<?xml version="1.0" encoding="UTF-8" standalone="no"?><svg xmlns="http://www.w3.org/2000/svg" xmlns:xlink="http://www.w3.org/1999/xlink" clip-rule="evenodd" stroke-miterlimit="4.00" viewBox="0 0 1024 768"><desc>SVG generated by Keynote</desc><defs></defs><g transform="matrix(1.00, 0.00, -0.00, -1.00, 0.0, 768.0)"><g><clipPath id="clip-399"><path d="M 0.0 768.0 L 1024.0 768.0 L 1024.0 0.0 L 0.0 0.0 Z M 0.0 768.0 "></path></clipPath><g clip-path="url(#clip-399)"><image xlink:href="../../86BB661C-AAFE-46F2-89B5-B98D6D644DD8/assets/DE78B55DDE70D88C6FF874E8D33A46A3.jpeg" width="1024.00" height="768.00" transform="matrix(1.00, 0.00, -0.00, -1.00, 0.0, 768.0)"></image></g></g><image xlink:href="../../86BB661C-AAFE-46F2-89B5-B98D6D644DD8/assets/610DE41026624E3AEF638D24E71EF355.png" width="74.00" height="62.00" transform="matrix(1.00, 0.00, -0.00, -1.00, 949.0, 64.0)"></image><image xlink:href="../../86BB661C-AAFE-46F2-89B5-B98D6D644DD8/assets/C79B4846A618BF06956E5E1178655E37.png" width="40.00" height="40.00" transform="matrix(1.00, 0.00, -0.00, -1.01, 966.2, 53.0)" opacity="0.50"></image><g><clipPath id="clip-400"><path d="M 996.7 43.5 C 1002.5 37.6 1002.5 28.0 996.7 22.0 C 990.9 16.1 981.4 16.1 975.6 22.0 C 969.7 28.0 969.7 37.6 975.6 43.5 C 981.4 49.5 990.9 49.5 996.7 43.5 Z M 996.7 43.5 "></path></clipPath><g clip-path="url(#clip-400)"><image xlink:href="../../86BB661C-AAFE-46F2-89B5-B98D6D644DD8/assets/DE78B55DDE70D88C6FF874E8D33A46A3.jpeg" width="1024.00" height="768.00" transform="matrix(0.04, 0.00, -0.00, -0.04, 965.9, 48.0)"></image></g></g><text xml:space="preserve" font-family="HoboStd" font-size="18.0" fill="#E5CC77" transform="matrix(1.00, 0.00, -0.00, -1.00, 976.0, 26.0)">1</text><text xml:space="preserve" font-family="HoboStd" font-size="18.0" fill="#E5CC77" transform="matrix(1.00, 0.00, -0.00, -1.00, 986.4, 26.0)">5</text><image xlink:href="../../0F1C3E34-B6D3-4443-8C0C-3E94B790F8DE/assets/D80405605BA1A9B1C2A01B1F5A0C52F4.png" width="639.00" height="996.00" transform="matrix(1.00, 0.00, -0.00, -1.00, 181.4, 834.8)"></image><g><clipPath id="clip-401"><path d="M 204.0 670.0 L 762.0 670.0 L 762.0 98.0 L 204.0 98.0 Z M 204.3 670.2 "></path></clipPath><g clip-path="url(#clip-401)"><g><clipPath id="clip-402"><path d="M 452.3 670.2 C 449.3 670.2 442.2 668.5 439.4 667.1 C 435.5 665.1 431.7 661.2 430.2 657.9 C 429.2 655.6 429.0 654.3 429.3 651.4 C 429.6 646.9 431.0 644.0 434.6 640.8 L 437.0 638.3 L 437.0 637.7 L 437.0 637.7 L 437.0 636.2 L 437.0 629.9 C 437.0 621.8 437.4 621.5 436.2 621.0 C 435.5 620.7 427.7 619.5 418.9 618.2 C 402.2 615.9 338.7 606.7 311.4 602.8 C 302.8 601.5 293.2 600.1 290.2 599.7 C 285.0 599.0 262.7 595.8 221.7 589.8 C 212.3 588.5 204.5 587.2 204.4 587.1 C 204.2 586.9 204.8 582.9 205.6 578.1 C 206.4 573.3 210.2 550.8 214.0 528.2 C 217.8 505.6 222.7 476.0 225.0 462.5 C 227.3 448.9 231.7 422.5 234.9 403.6 C 238.1 384.8 242.7 357.5 245.1 343.1 C 247.5 328.7 251.7 303.6 254.5 287.3 C 259.9 255.2 269.8 196.3 275.0 165.5 C 276.8 154.9 280.0 135.4 282.2 122.2 L 286.2 98.0 L 287.7 99.0 C 288.4 99.2 290.9 99.2 293.2 99.5 C 293.4 99.5 293.8 99.6 294.0 99.6 C 293.8 100.2 294.6 100.5 299.0 101.4 C 301.4 101.9 304.9 102.6 306.7 103.1 C 308.6 103.5 314.7 104.9 320.3 106.1 C 337.5 109.9 378.3 119.9 396.7 124.8 C 399.0 125.5 402.9 126.5 405.2 127.1 C 407.6 127.8 410.8 128.6 412.3 129.0 C 415.8 129.9 422.4 131.8 438.2 136.3 C 475.8 147.0 516.3 160.0 555.4 174.0 C 618.5 196.7 679.1 223.8 734.1 253.9 C 751.9 263.6 762.6 270.0 762.5 270.8 C 762.3 272.1 760.3 283.1 754.8 312.2 C 751.9 327.5 749.1 342.7 748.5 345.9 C 746.8 355.1 739.2 395.3 738.0 401.7 C 737.4 404.9 734.6 419.4 731.9 433.9 C 729.1 448.4 727.0 460.5 727.2 461.1 C 727.0 461.7 726.8 462.5 726.6 462.8 C 725.9 464.7 725.5 466.4 719.2 500.0 C 717.0 511.4 714.7 524.0 713.9 527.9 C 710.5 546.3 704.6 577.3 703.4 584.0 C 702.6 588.1 701.5 593.9 700.9 597.0 C 700.3 600.0 697.9 613.2 695.4 626.3 C 693.0 639.3 690.7 651.6 690.3 653.6 C 689.6 656.9 689.5 657.2 688.2 657.1 C 687.5 657.0 666.1 653.9 640.7 650.3 C 615.4 646.6 588.6 642.8 581.3 641.7 C 574.1 640.7 556.9 638.2 543.2 636.2 C 529.5 634.2 515.7 632.2 512.5 631.8 C 509.4 631.4 498.2 629.8 487.8 628.3 C 477.3 626.7 468.5 625.6 468.3 625.8 C 468.0 625.9 468.0 628.9 468.0 632.3 L 468.0 636.2 L 468.0 637.7 L 468.0 637.7 L 468.0 638.5 L 470.4 640.9 C 478.9 649.0 476.7 661.3 465.7 666.8 C 462.5 668.4 455.5 670.2 452.3 670.2 Z M 452.3 670.2 "></path></clipPath><g clip-path="url(#clip-402)"><image xlink:href="../../0F1C3E34-B6D3-4443-8C0C-3E94B790F8DE/assets/39EAFCD9C7347459ED8911A6784D680C.png" width="659.00" height="659.00" transform="matrix(1.00, 0.00, -0.00, -1.00, 183.0, 713.0)"></image></g></g></g></g><text xml:space="preserve" font-family="BradleyHandITCTT-Bold" font-weight="bold" font-size="100.0" fill="#000000" transform="matrix(0.98, 0.17, 0.17, -0.98, 314.3, 408.7)">T</text><text xml:space="preserve" font-family="BradleyHandITCTT-Bold" font-weight="bold" font-size="100.0" fill="#000000" transform="matrix(0.98, 0.17, 0.17, -0.98, 374.6, 419.3)">h</text><text xml:space="preserve" font-family="BradleyHandITCTT-Bold" font-weight="bold" font-size="100.0" fill="#000000" transform="matrix(0.98, 0.17, 0.17, -0.98, 427.0, 428.5)">o</text><text xml:space="preserve" font-family="BradleyHandITCTT-Bold" font-weight="bold" font-size="100.0" fill="#000000" transform="matrix(0.98, 0.17, 0.17, -0.98, 469.1, 436.0)">m</text><text xml:space="preserve" font-family="BradleyHandITCTT-Bold" font-weight="bold" font-size="100.0" fill="#000000" transform="matrix(0.98, 0.17, 0.17, -0.98, 557.8, 451.6)">a</text><text xml:space="preserve" font-family="BradleyHandITCTT-Bold" font-weight="bold" font-size="100.0" fill="#000000" transform="matrix(0.98, 0.17, 0.17, -0.98, 608.5, 460.6)">s</text><text xml:space="preserve" font-family="BradleyHandITCTT-Bold" font-weight="bold" font-size="100.0" fill="#000000" transform="matrix(0.98, 0.17, 0.17, -0.98, 653.3, 468.5)"> </text><text xml:space="preserve" font-family="BradleyHandITCTT-Bold" font-weight="bold" font-size="100.0" fill="#000000" transform="matrix(0.98, 0.17, 0.17, -0.98, 417.3, 268.4)">F</text><text xml:space="preserve" font-family="BradleyHandITCTT-Bold" font-weight="bold" font-size="100.0" fill="#000000" transform="matrix(0.98, 0.17, 0.17, -0.98, 473.0, 278.2)">r</text><text xml:space="preserve" font-family="BradleyHandITCTT-Bold" font-weight="bold" font-size="100.0" fill="#000000" transform="matrix(0.98, 0.17, 0.17, -0.98, 511.5, 285.0)">e</text><text xml:space="preserve" font-family="BradleyHandITCTT-Bold" font-weight="bold" font-size="100.0" fill="#000000" transform="matrix(0.98, 0.17, 0.17, -0.98, 548.6, 291.6)">d</text><path d="M 485.5 386.5 C 485.6 386.5 485.7 386.5 485.9 386.5 C 485.8 386.5 485.8 386.4 485.8 386.3 C 485.6 386.3 485.4 386.3 485.1 386.2 C 485.1 386.3 485.2 386.3 485.4 386.3 C 485.5 386.4 485.4 386.5 485.5 386.5 C 485.5 386.5 485.5 386.5 485.5 386.5 Z M 525.3 393.0 C 525.0 392.9 525.3 393.2 525.4 393.2 C 525.4 393.2 525.4 393.2 525.5 393.2 C 525.5 393.4 525.3 393.4 525.1 393.4 C 524.3 393.2 524.9 392.9 525.3 393.0 C 525.3 393.0 525.3 393.0 525.3 393.0 Z M 562.8 399.4 C 563.4 399.6 562.8 399.2 562.7 399.1 C 563.0 399.1 562.8 398.7 563.2 398.7 C 563.2 398.8 563.4 398.9 563.4 399.1 C 563.2 399.0 563.0 399.0 563.0 399.1 C 563.2 399.1 563.5 399.1 563.5 399.2 C 563.0 399.2 563.4 399.5 563.4 399.6 C 563.0 399.5 562.9 399.7 562.8 399.4 C 562.8 399.4 562.8 399.4 562.8 399.4 Z M 441.2 377.5 C 441.0 377.5 440.9 377.4 441.0 377.3 C 441.1 377.3 441.3 377.4 441.4 377.5 C 441.4 377.4 441.4 377.2 441.5 377.2 C 441.7 377.5 441.5 377.8 441.4 377.9 C 441.4 377.7 440.8 377.7 441.2 377.5 C 441.2 377.5 441.2 377.5 441.2 377.5 Z M 457.1 379.9 C 457.6 380.1 457.2 379.6 457.7 379.8 C 457.6 380.0 457.7 380.2 457.3 380.2 C 457.3 380.1 457.1 380.0 457.1 379.9 C 457.1 379.9 457.1 379.9 457.1 379.9 Z M 547.3 394.8 C 547.3 395.0 547.6 395.0 547.5 395.2 C 547.3 395.2 547.1 395.1 547.0 395.1 C 546.9 394.9 547.0 394.8 547.3 394.8 C 547.3 394.8 547.3 394.8 547.3 394.8 Z M 567.4 397.9 C 568.0 398.3 568.7 398.0 568.5 398.2 C 568.7 398.5 567.9 398.8 568.0 398.6 C 567.9 398.3 566.9 397.8 567.4 397.9 C 567.4 397.9 567.4 397.9 567.4 397.9 Z M 529.2 389.5 C 529.8 389.8 529.8 389.1 530.2 389.5 C 530.1 389.5 530.0 389.5 529.9 389.6 C 530.0 389.6 530.2 389.6 530.2 389.7 C 529.8 389.7 529.4 389.7 529.2 389.5 C 529.2 389.5 529.2 389.5 529.2 389.5 Z M 476.1 384.3 C 475.9 384.3 475.9 384.3 475.9 384.4 C 475.4 384.3 475.4 384.5 475.2 384.3 C 475.2 384.0 475.6 384.2 475.9 384.3 C 475.9 384.2 476.0 384.2 476.1 384.3 C 476.1 384.3 476.1 384.3 476.1 384.3 Z M 463.9 381.3 C 463.9 381.5 464.1 381.6 463.7 381.6 C 463.3 381.2 463.7 381.1 464.2 381.0 C 464.3 380.9 464.3 380.8 464.3 380.7 C 464.1 380.7 464.0 380.6 463.9 380.5 C 463.7 380.9 463.5 380.2 462.8 380.3 C 463.2 380.2 462.8 379.8 463.3 380.0 C 463.2 379.8 463.5 379.9 463.5 379.6 C 463.3 379.7 462.8 379.6 462.8 379.9 C 462.6 379.9 462.4 379.9 462.3 379.8 C 462.2 379.5 462.8 379.8 462.6 379.5 C 462.5 379.5 462.5 379.4 462.4 379.4 C 462.3 379.5 462.3 379.6 462.2 379.6 C 461.7 379.4 462.3 379.3 461.7 379.2 C 461.6 379.3 461.8 379.4 461.8 379.5 C 461.4 379.6 461.5 379.4 461.2 379.5 C 461.2 379.3 461.4 379.3 461.2 379.3 C 461.0 379.6 460.7 378.9 460.2 379.2 C 460.4 379.7 460.2 379.1 459.7 379.5 C 459.7 379.3 460.0 379.0 459.7 379.0 C 459.7 379.6 458.5 379.2 459.4 379.9 C 458.9 379.8 458.6 380.3 459.0 380.4 C 458.1 380.1 458.3 380.5 458.0 380.5 C 457.6 380.4 458.2 380.4 458.0 380.2 C 458.4 380.2 458.3 380.1 458.6 380.3 C 458.6 380.1 458.7 380.1 458.8 380.0 C 458.4 380.1 458.0 379.7 458.3 379.5 C 458.5 379.6 458.3 379.8 458.5 379.8 C 458.5 379.5 458.8 379.9 458.8 379.7 C 458.7 379.4 459.3 379.2 458.8 379.1 C 458.8 379.2 458.8 379.3 458.7 379.5 C 458.6 379.4 458.5 379.4 458.3 379.4 C 458.2 379.1 458.4 379.0 458.3 378.9 C 458.0 378.8 457.9 378.9 457.8 379.0 C 458.1 379.1 458.4 379.3 457.9 379.3 C 458.2 378.9 457.3 379.1 457.7 378.9 C 457.2 378.6 456.9 379.0 456.9 378.6 C 456.6 378.6 456.7 378.9 456.4 378.8 C 455.9 378.5 456.0 378.9 455.3 378.5 C 455.1 378.9 455.2 378.4 455.0 378.4 C 455.0 378.5 455.0 378.7 455.0 378.8 C 454.7 378.5 454.2 378.3 453.6 378.5 C 453.4 378.4 453.6 378.2 453.2 378.2 C 452.7 378.4 452.3 378.0 451.8 378.2 C 451.7 378.0 451.4 378.0 451.2 378.1 C 451.1 377.9 451.4 377.7 451.1 377.6 C 450.9 377.8 451.2 378.0 450.8 378.0 C 450.9 377.7 450.3 378.1 450.4 377.8 C 450.5 377.8 450.7 377.7 450.8 377.7 C 450.6 377.6 450.7 377.5 450.6 377.5 C 450.6 377.8 450.3 377.5 450.2 377.4 C 450.1 377.5 450.1 377.6 450.0 377.7 C 449.7 377.6 449.5 377.6 449.4 377.7 C 449.1 377.5 449.6 377.5 449.3 377.4 C 449.0 378.0 448.8 377.2 448.1 377.5 C 448.0 377.3 447.8 377.1 447.3 377.0 C 447.3 377.2 447.7 377.2 447.7 377.4 C 447.1 377.2 447.8 377.5 447.4 377.5 C 446.6 377.2 446.0 377.1 445.1 376.7 C 445.1 376.9 444.3 376.9 444.4 376.8 C 444.5 376.8 444.0 376.5 443.7 376.4 C 443.6 376.8 443.0 377.1 443.0 377.3 C 442.9 377.0 442.9 377.0 442.9 376.7 C 442.4 376.5 442.1 376.8 441.8 376.3 C 441.8 376.5 441.6 376.5 441.4 376.6 C 441.5 376.4 441.6 376.3 441.7 376.1 C 441.5 376.1 441.4 376.0 441.2 376.0 C 440.8 376.6 440.6 375.7 440.3 376.3 C 439.9 376.2 440.0 376.0 439.6 375.9 C 439.6 376.1 439.5 376.2 439.4 376.2 C 439.7 376.2 439.9 376.0 440.0 376.3 C 439.4 376.3 440.9 377.2 439.9 377.3 C 439.9 377.2 440.0 377.0 439.9 376.9 C 439.3 377.0 439.6 377.3 439.8 377.3 C 439.4 377.3 439.1 377.2 439.3 377.5 C 438.5 377.4 439.1 377.3 438.8 377.2 C 437.4 377.1 435.6 376.9 433.8 376.3 C 433.7 376.6 432.7 376.1 432.4 375.9 C 431.8 376.0 431.3 376.0 431.1 375.7 C 431.0 375.9 430.5 375.4 430.4 375.6 C 430.7 375.6 430.8 375.8 430.5 375.8 C 429.8 375.5 428.7 375.2 428.2 375.4 C 427.9 375.0 427.4 375.0 427.1 375.1 C 427.0 374.9 427.3 374.9 427.1 374.9 C 427.0 375.0 426.3 375.0 426.1 374.8 C 426.3 374.9 426.6 374.6 426.3 374.6 C 426.3 374.7 425.9 374.6 426.0 374.8 C 425.5 374.6 425.2 374.7 424.9 374.5 C 425.2 374.6 425.4 374.5 425.5 374.3 C 425.2 374.4 424.9 374.5 424.8 374.2 C 424.8 374.6 424.4 374.3 423.9 374.4 C 423.8 374.2 423.7 374.1 423.4 374.0 C 423.1 374.2 423.9 374.4 423.4 374.4 C 423.5 374.3 423.1 374.0 423.2 374.3 C 422.7 374.1 422.4 374.3 422.1 374.0 C 422.5 374.1 422.2 373.7 422.1 373.7 C 422.0 373.7 421.9 373.6 421.8 373.7 C 421.8 373.8 422.1 373.8 422.1 373.9 C 421.8 373.7 421.6 374.1 421.5 373.9 C 421.7 373.9 421.7 373.8 421.5 373.7 C 421.4 374.1 420.5 373.6 420.9 373.5 C 420.8 373.6 421.2 373.7 421.3 373.6 C 421.2 373.4 420.6 373.5 420.8 373.3 C 421.1 373.3 421.0 373.4 421.4 373.5 C 421.5 373.3 421.8 373.3 421.9 373.2 C 421.3 373.1 421.1 373.4 421.1 373.1 C 420.8 373.0 420.9 373.3 420.5 373.2 C 419.9 373.0 420.4 372.9 420.3 372.8 C 419.7 372.8 419.8 373.2 420.0 373.4 C 419.6 373.3 419.4 373.5 418.9 373.3 C 418.9 373.2 419.0 373.1 419.2 373.1 C 419.2 373.1 419.6 373.4 419.6 373.2 C 419.6 372.9 419.3 372.6 418.7 372.5 C 418.8 372.9 418.9 372.7 418.3 372.6 C 418.3 372.9 418.0 372.5 418.0 372.7 C 418.0 372.8 418.2 372.8 418.4 372.8 C 418.3 373.0 418.2 373.1 418.0 373.1 C 417.9 373.0 417.8 373.1 417.5 372.9 C 417.5 372.7 417.8 372.7 417.8 372.6 C 417.7 372.6 417.6 372.7 417.4 372.7 C 417.3 372.4 417.3 372.1 417.4 371.8 C 417.6 371.7 418.0 371.8 417.7 371.6 C 418.6 371.7 417.6 371.9 417.9 372.0 C 418.3 371.8 418.1 372.2 418.6 372.2 C 418.8 372.2 418.9 372.2 418.9 372.1 C 418.9 372.1 418.6 371.8 419.0 371.8 C 419.0 372.0 419.2 372.1 419.5 372.2 C 419.5 372.1 419.0 371.9 419.5 372.0 C 419.8 372.1 419.5 372.3 419.9 372.4 C 419.9 372.3 420.0 372.3 420.1 372.2 C 419.5 372.2 420.2 372.1 419.9 371.9 C 420.4 371.8 419.9 372.2 420.2 372.2 C 420.3 372.0 420.7 372.4 420.8 372.1 C 420.6 372.2 420.2 372.1 420.3 371.9 C 420.6 372.0 422.4 372.1 421.6 372.3 C 421.9 372.2 423.2 372.1 423.1 372.3 C 422.7 372.2 422.7 372.4 422.6 372.5 C 423.4 372.4 423.7 372.6 424.5 372.4 C 423.7 372.3 424.4 372.0 423.9 371.7 C 423.7 371.7 423.4 371.6 423.3 371.7 C 423.4 371.9 423.7 371.9 423.9 371.8 C 423.9 372.0 423.8 372.2 423.8 372.4 C 422.9 372.0 422.4 372.2 422.0 372.0 C 422.4 372.0 421.3 371.6 421.8 371.6 C 421.9 371.8 422.4 371.8 422.7 372.0 C 422.7 371.9 422.7 371.8 422.8 371.7 C 422.9 371.8 423.2 371.8 423.2 371.7 C 422.7 371.7 422.4 371.4 422.1 371.5 C 422.1 371.5 422.1 371.4 422.1 371.4 C 422.0 371.4 421.9 371.3 422.0 371.3 C 422.1 371.3 422.4 371.4 422.4 371.3 C 422.0 371.1 422.0 370.9 421.6 370.8 C 421.8 370.5 421.3 370.1 421.9 370.1 C 421.9 370.4 422.3 370.5 422.2 370.7 C 422.4 370.8 422.7 370.8 422.9 370.7 C 422.8 370.5 422.4 370.4 422.5 370.1 C 422.8 370.2 423.0 370.1 423.1 370.3 C 422.5 370.4 423.4 370.6 423.6 370.9 C 423.6 370.8 423.5 370.7 423.4 370.5 C 423.9 370.6 424.0 370.9 424.1 370.5 C 424.7 370.5 424.5 370.8 424.9 370.8 C 424.7 370.5 425.2 370.7 425.0 370.3 C 425.7 370.4 425.2 370.7 425.4 370.7 C 425.6 370.8 425.6 370.6 425.8 370.7 C 426.1 370.9 426.7 371.0 426.7 371.3 C 427.0 371.3 427.0 371.4 427.3 371.5 C 427.4 371.4 427.5 371.3 427.6 371.3 C 427.6 371.4 427.8 371.5 427.9 371.4 C 427.2 370.9 427.4 370.9 426.7 370.6 C 426.6 370.7 426.5 370.7 426.7 370.8 C 426.1 370.8 426.0 370.6 425.6 370.5 C 425.5 370.3 425.5 370.0 425.1 370.1 C 425.2 369.9 425.1 369.8 425.3 369.7 C 425.5 369.9 425.8 370.1 426.1 370.2 C 426.1 370.1 426.1 370.0 426.2 370.0 C 426.4 370.1 426.6 370.2 426.8 370.2 C 426.8 370.3 426.7 370.3 426.6 370.4 C 427.3 370.6 427.1 370.2 427.6 370.5 C 427.5 370.3 427.2 370.2 427.5 370.1 C 428.0 370.2 428.1 370.3 428.3 370.4 C 428.4 370.4 428.4 370.3 428.5 370.3 C 428.8 370.5 427.7 370.7 428.2 371.1 C 428.3 370.8 428.9 371.0 428.9 371.2 C 428.7 371.4 428.4 371.0 428.3 371.2 C 429.4 371.4 428.3 371.6 429.4 371.8 C 429.4 371.7 429.4 371.6 429.4 371.5 C 429.0 371.5 429.0 371.3 429.1 371.1 C 428.7 371.0 428.6 370.6 428.3 370.8 C 428.5 370.3 428.6 370.8 429.0 370.9 C 429.0 370.6 428.6 370.6 428.6 370.3 C 429.5 370.7 429.7 370.4 430.5 370.9 C 430.4 370.6 431.0 371.0 431.0 370.8 C 430.2 370.7 430.7 370.1 430.6 369.9 C 430.1 369.9 430.2 370.4 429.9 370.5 C 429.8 370.2 429.9 370.1 430.0 369.8 C 430.4 369.9 430.4 369.9 430.7 369.8 C 431.0 370.1 431.2 370.6 430.7 370.6 C 430.8 370.6 431.4 370.6 431.4 370.8 C 430.9 370.6 431.5 370.9 431.1 370.9 C 431.5 371.2 432.3 371.0 432.8 371.3 C 432.8 371.2 433.0 371.2 433.0 371.0 C 432.4 371.2 432.4 370.6 431.9 370.5 C 432.1 370.5 432.0 370.4 432.0 370.3 C 432.4 370.5 432.7 370.3 433.0 370.6 C 433.1 370.6 433.1 370.5 433.1 370.4 C 433.7 370.7 433.6 370.6 434.1 370.5 C 434.2 370.7 433.9 371.0 433.8 371.3 C 434.0 371.2 434.8 371.4 434.4 371.0 C 434.9 371.1 434.7 371.4 435.2 371.5 C 435.3 371.3 434.8 371.2 435.0 370.9 C 435.5 370.9 435.2 371.2 435.6 371.1 C 435.5 371.3 435.5 371.5 435.9 371.5 C 435.7 371.3 436.0 371.5 436.1 371.3 C 435.9 371.3 435.8 371.2 435.7 371.1 C 436.4 371.3 436.5 371.3 437.1 371.3 C 436.8 371.6 437.1 371.7 436.7 371.8 C 437.1 371.7 437.5 372.1 437.7 371.9 C 437.5 371.8 437.2 371.7 437.1 371.6 C 438.2 371.7 438.8 371.5 439.7 372.0 C 439.5 372.0 439.3 372.0 439.3 372.1 C 439.4 372.1 439.6 372.1 439.6 372.2 C 439.2 372.1 438.9 372.1 438.7 372.1 C 438.4 371.9 438.9 371.9 438.6 371.8 C 438.5 372.0 438.0 371.7 438.1 372.1 C 438.7 372.0 439.1 372.3 439.3 372.7 C 439.9 372.4 439.4 372.3 440.0 371.9 C 440.0 372.1 440.1 372.2 440.3 372.2 C 440.2 371.8 440.8 372.1 440.8 372.2 C 440.6 372.3 439.6 372.3 440.0 372.7 C 439.9 372.0 441.1 373.0 440.9 372.5 C 441.5 372.6 441.3 372.9 441.6 372.6 C 441.6 372.7 441.6 372.8 441.7 372.9 C 441.9 372.9 442.0 372.8 442.0 372.8 C 441.2 372.5 441.5 372.2 441.0 372.1 C 441.1 372.1 441.2 372.1 441.2 372.1 C 441.2 372.0 441.2 372.0 441.3 372.0 C 441.3 372.3 441.8 372.0 441.8 372.3 C 441.7 372.2 441.5 372.2 441.5 372.4 C 442.2 372.4 442.1 372.7 443.0 373.0 C 442.7 372.8 443.1 372.8 443.5 372.9 C 443.9 373.0 443.7 373.3 444.2 373.4 C 444.3 372.8 444.8 373.6 445.5 373.3 C 445.4 373.6 446.3 373.9 446.5 373.6 C 446.5 373.8 446.8 373.8 447.0 373.8 C 447.1 374.0 446.8 374.0 447.0 374.1 C 447.2 374.0 447.1 373.8 447.3 373.8 C 447.6 373.9 447.5 374.2 448.0 374.2 C 448.0 374.0 447.8 374.0 448.0 373.9 C 448.4 374.1 448.8 374.1 448.5 373.8 C 449.1 373.9 448.7 374.3 449.3 374.4 C 449.1 374.2 449.1 374.2 449.4 374.2 C 449.6 374.4 449.6 374.5 449.7 374.6 C 449.9 374.4 449.8 374.4 450.2 374.5 C 450.3 374.4 450.3 374.3 450.3 374.2 C 450.5 374.3 450.8 374.3 450.8 374.4 C 450.5 374.3 450.5 374.5 450.4 374.6 C 450.7 374.7 451.4 375.1 450.9 374.7 C 451.5 374.6 451.2 374.9 451.6 374.9 C 451.4 374.6 451.6 374.9 452.0 374.9 C 452.1 374.6 452.3 375.0 452.6 375.0 C 452.6 374.8 452.7 374.7 452.9 374.7 C 452.9 374.8 453.1 374.9 453.3 374.9 C 453.4 374.8 452.8 374.6 453.4 374.7 C 453.6 374.9 453.6 375.1 454.0 375.2 C 454.1 375.5 453.6 375.3 453.7 375.6 C 454.1 375.4 454.1 375.6 454.6 375.7 C 454.5 375.2 455.8 375.3 455.2 375.0 C 455.4 375.1 455.7 374.8 455.8 375.0 C 455.6 375.1 455.9 375.3 455.9 375.4 C 456.1 375.4 456.7 375.6 456.7 375.4 C 456.2 375.4 456.2 375.2 456.1 375.0 C 456.9 375.0 457.5 375.2 457.4 375.5 C 457.4 375.4 457.5 375.4 457.6 375.4 C 457.3 375.3 457.2 374.9 457.5 374.9 C 457.4 375.2 457.6 375.3 457.9 375.4 C 457.9 375.2 458.9 375.7 458.7 375.3 C 458.3 375.4 458.0 375.0 458.4 374.9 C 458.6 375.2 459.1 375.4 459.0 375.6 C 459.1 375.5 459.3 375.5 459.4 375.4 C 459.6 375.2 459.3 375.2 459.4 375.0 C 459.6 375.1 459.9 375.1 459.9 375.2 C 459.4 375.1 460.2 375.4 459.6 375.5 C 459.9 375.5 460.0 375.7 460.3 375.7 C 460.3 375.7 460.4 375.7 460.4 375.6 C 460.2 375.7 459.9 375.5 460.0 375.3 C 460.6 375.3 460.4 375.6 460.8 375.7 C 461.0 375.5 461.6 375.3 461.9 375.5 C 461.3 375.4 461.9 375.7 461.6 375.7 C 461.1 375.5 460.9 375.7 460.7 375.9 C 460.9 376.1 461.3 376.2 461.4 375.9 C 461.1 375.9 461.1 376.0 460.9 376.0 C 461.0 375.9 461.1 375.8 461.3 375.8 C 461.5 376.0 462.0 375.9 461.6 376.1 C 462.0 376.1 462.4 376.4 462.8 376.3 C 462.4 376.2 462.1 376.0 462.0 375.8 C 462.3 375.8 462.6 376.1 462.7 375.9 C 462.7 375.7 462.1 375.7 462.0 375.5 C 462.5 375.3 463.1 376.1 462.6 375.5 C 462.8 375.6 463.2 375.7 463.3 375.8 C 463.0 375.8 463.2 376.1 463.4 376.2 C 463.6 376.2 463.8 376.2 463.9 376.2 C 463.5 376.2 463.3 375.8 463.6 375.8 C 463.6 376.0 463.7 375.8 463.8 375.8 C 463.8 376.0 464.3 375.9 464.4 376.1 C 464.4 375.9 464.2 375.9 464.1 375.8 C 464.4 375.8 464.9 375.5 465.0 375.8 C 464.8 375.8 464.6 375.8 464.6 375.9 C 465.2 376.3 465.4 376.7 466.2 377.0 C 466.1 377.0 466.1 377.0 466.1 377.1 C 466.6 377.2 467.0 377.4 466.9 377.6 C 467.2 377.6 467.4 377.5 467.6 377.4 C 467.3 377.2 467.1 377.4 466.9 377.2 C 467.1 377.1 466.7 376.6 466.6 376.5 C 466.0 376.6 466.0 376.2 465.4 376.2 C 465.6 376.0 464.9 376.1 465.1 375.9 C 465.7 376.3 466.2 376.2 467.0 376.5 C 466.9 376.6 466.8 376.8 467.1 377.0 C 467.6 377.2 467.4 376.8 467.8 376.9 C 468.0 377.2 467.7 377.2 467.9 377.3 C 468.1 377.2 468.5 377.3 468.6 377.5 C 468.0 377.4 468.7 377.8 468.3 377.8 C 468.5 377.8 468.6 377.9 468.7 378.0 C 468.2 377.6 469.3 377.7 468.9 377.4 C 469.7 377.4 468.9 378.0 469.5 378.1 C 469.2 377.9 469.6 377.8 470.1 378.0 C 470.2 378.2 470.6 378.4 471.0 378.5 C 470.8 378.3 470.7 378.3 471.1 378.2 C 470.9 378.1 470.6 378.0 470.4 378.1 C 470.4 378.0 470.3 377.9 470.3 377.8 C 470.7 377.9 470.6 377.7 470.7 377.7 C 470.8 377.8 471.2 377.9 471.2 378.0 C 471.3 377.9 471.4 377.9 471.4 377.9 C 470.8 377.7 471.6 377.6 471.2 377.4 C 470.9 377.4 471.1 377.7 470.7 377.6 C 470.5 377.2 471.1 377.3 471.3 377.1 C 471.0 376.9 470.6 377.1 470.6 376.8 C 471.0 376.6 471.5 376.9 472.0 377.1 C 472.0 376.7 472.7 377.3 472.9 376.9 C 472.9 377.0 473.0 377.1 473.1 377.2 C 473.3 377.0 473.4 377.3 473.5 377.4 C 473.6 377.2 473.5 377.1 473.4 377.0 C 474.0 377.2 474.1 377.3 474.8 377.3 C 474.9 377.4 475.0 377.6 475.0 377.8 C 474.9 377.8 474.7 377.8 474.6 377.9 C 475.5 378.1 475.0 377.3 475.6 377.8 C 475.6 377.7 475.2 377.3 475.6 377.3 C 476.1 377.7 477.0 377.6 476.8 378.3 C 477.3 378.6 477.7 378.2 477.9 378.5 C 478.1 378.6 478.2 378.5 478.2 378.4 C 478.1 378.3 477.9 378.1 477.8 377.9 C 477.4 378.0 477.3 377.7 477.6 378.1 C 477.1 378.1 477.0 377.9 476.8 377.8 C 477.4 377.7 478.0 378.0 478.1 377.7 C 478.3 377.8 478.4 378.0 478.6 378.2 C 478.7 378.1 479.4 378.1 479.4 378.4 C 478.9 378.2 478.4 378.4 478.8 378.7 C 480.0 378.7 480.6 379.3 481.7 379.2 C 481.7 379.3 481.6 379.5 481.8 379.5 C 481.8 379.4 481.9 379.3 482.0 379.3 C 482.3 379.3 482.5 379.5 482.9 379.5 C 482.9 379.7 482.9 379.9 483.1 380.0 C 483.3 379.8 483.9 379.4 484.1 379.5 C 483.8 379.5 484.1 379.9 484.3 379.9 C 484.2 379.5 485.5 380.4 485.2 380.0 C 485.8 380.1 486.0 380.2 486.0 380.4 C 486.2 380.4 486.3 380.3 486.6 380.3 C 486.6 380.7 487.7 380.6 487.8 380.8 C 487.5 380.6 487.3 381.0 487.6 381.0 C 487.8 380.8 488.8 380.8 488.9 380.9 C 488.8 381.0 488.7 381.2 488.3 381.2 C 489.0 381.3 489.1 381.0 489.4 380.8 C 489.3 381.1 489.7 380.9 489.8 380.9 C 490.0 381.1 489.7 381.0 489.7 381.2 C 490.0 381.3 490.0 381.4 490.4 381.5 C 490.3 381.2 490.7 381.4 490.8 381.5 C 490.9 381.3 491.1 381.2 491.4 381.2 C 490.9 381.6 493.1 382.0 492.7 381.6 C 493.1 381.5 493.1 382.0 493.6 382.0 C 493.7 381.9 494.0 382.1 493.8 381.8 C 494.2 381.8 493.9 382.1 494.5 382.1 C 494.3 381.8 495.0 382.3 494.9 381.9 C 495.1 382.3 495.6 381.8 496.0 382.3 C 496.0 382.2 496.1 382.2 496.2 382.2 C 496.3 382.1 495.7 381.9 496.1 381.9 C 496.5 382.2 496.2 382.2 496.3 382.3 C 497.6 382.5 499.1 382.8 500.5 383.2 C 500.3 383.0 500.4 382.9 500.7 383.0 C 501.0 383.5 502.6 383.5 502.9 383.4 C 503.0 383.8 503.8 383.6 504.0 383.8 C 503.8 383.7 503.4 383.9 503.8 384.0 C 504.1 383.7 504.3 384.0 504.7 383.8 C 504.8 384.2 505.8 384.0 505.3 384.4 C 505.5 384.5 505.6 384.5 505.7 384.6 C 505.8 384.3 506.0 384.4 505.6 384.2 C 506.5 384.5 506.8 384.3 507.4 384.6 C 507.6 384.5 507.1 384.3 507.5 384.3 C 507.5 384.4 507.5 384.4 507.5 384.5 C 507.6 384.5 507.7 384.4 507.7 384.5 C 507.7 384.7 507.5 384.6 507.4 384.9 C 507.7 384.8 507.9 385.2 508.1 385.0 C 507.6 384.9 508.0 384.5 508.3 384.8 C 508.0 384.9 509.4 385.0 509.8 384.9 C 510.0 385.2 509.3 384.9 509.4 385.1 C 510.2 385.1 510.1 385.2 510.3 385.0 C 510.7 385.1 510.8 385.3 511.4 385.2 C 511.6 385.4 511.1 385.4 511.4 385.5 C 511.7 385.5 511.8 385.3 512.0 385.4 C 512.7 386.0 514.6 385.5 515.3 386.4 C 515.0 386.2 515.5 386.1 515.9 386.2 C 515.9 386.3 515.9 386.4 516.0 386.5 C 516.0 386.3 516.2 386.2 516.5 386.3 C 516.5 386.4 516.4 386.5 516.6 386.6 C 516.8 386.3 517.1 386.7 517.3 386.5 C 517.4 386.8 516.8 386.6 516.7 386.8 C 517.4 387.1 517.6 386.8 518.1 387.0 C 517.8 387.0 518.3 387.3 518.3 387.4 C 518.3 387.1 518.7 387.0 518.4 386.8 C 518.6 386.9 519.0 386.9 519.0 387.0 C 518.9 387.0 518.7 386.9 518.7 387.0 C 518.9 387.0 519.2 387.4 519.4 387.2 C 519.2 387.1 519.1 387.0 519.1 386.9 C 519.2 386.8 519.3 386.7 519.5 386.7 C 519.0 387.2 520.2 387.1 520.3 387.0 C 520.3 387.4 520.4 387.4 520.3 387.6 C 520.8 387.7 520.8 387.4 521.1 387.4 C 520.9 387.6 520.8 387.8 521.2 388.0 C 521.2 387.7 521.7 387.9 521.6 387.5 C 522.8 387.6 523.0 388.0 523.7 388.1 C 523.7 388.0 523.5 387.9 523.7 387.9 C 524.0 388.0 524.3 388.2 524.5 388.4 C 524.7 388.2 524.5 388.1 524.7 388.1 C 525.2 388.4 525.0 388.7 525.4 388.9 C 526.0 388.8 525.8 389.0 526.2 388.7 C 526.0 388.7 525.8 388.6 526.0 388.6 C 526.4 388.9 526.4 389.1 526.5 389.2 C 526.3 389.2 526.1 389.1 526.0 389.0 C 525.9 389.2 525.5 389.1 525.8 389.3 C 525.4 389.2 525.0 389.1 524.5 389.0 C 524.7 389.3 524.1 389.0 524.2 389.3 C 524.8 389.3 524.9 389.5 525.4 389.6 C 525.4 389.3 525.9 389.5 526.0 389.6 C 526.0 389.5 526.4 389.6 526.3 389.4 C 526.8 389.4 526.7 389.6 527.2 389.6 C 527.2 389.7 527.1 389.8 527.3 389.8 C 527.5 389.6 527.5 390.0 527.7 390.0 C 527.6 389.7 528.2 390.0 528.3 389.8 C 528.1 389.7 527.9 389.7 527.9 389.6 C 528.6 389.8 528.0 389.4 527.9 389.2 C 528.0 389.3 527.6 389.6 527.6 389.4 C 528.2 389.3 526.9 388.9 527.4 389.1 C 527.8 389.2 527.8 389.0 528.3 389.1 C 528.7 389.6 528.0 389.8 528.5 390.2 C 528.8 390.1 529.1 390.2 529.1 389.9 C 529.2 390.0 529.2 390.1 529.4 390.2 C 529.5 390.1 529.0 389.9 529.4 389.9 C 529.6 390.0 529.3 390.3 529.8 390.3 C 530.0 390.1 529.3 389.9 529.7 389.9 C 530.1 390.4 529.6 389.8 530.1 389.9 C 530.2 389.9 530.2 390.0 530.4 390.0 C 530.4 390.1 530.3 390.3 530.5 390.3 C 530.7 389.9 530.7 390.5 531.0 390.5 C 531.3 390.2 530.7 390.3 530.8 390.1 C 531.2 390.4 531.5 390.1 531.7 390.2 C 531.3 390.4 532.2 390.5 532.2 390.7 C 532.1 390.4 532.3 390.6 532.8 390.4 C 532.7 390.9 533.3 390.7 533.4 391.0 C 533.5 390.9 533.6 390.8 533.7 390.7 C 533.6 390.7 533.4 390.7 533.5 390.5 C 533.6 390.6 533.8 390.6 533.9 390.6 C 534.1 390.8 533.4 391.2 534.4 391.3 C 534.3 391.0 534.7 391.0 535.0 391.0 C 535.0 390.7 534.6 390.9 534.6 390.7 C 535.0 390.6 535.2 390.9 535.4 391.0 C 536.0 391.0 536.6 391.3 537.4 391.3 C 537.5 391.5 536.7 391.4 537.2 391.6 C 537.4 391.6 537.3 391.4 537.6 391.5 C 537.2 392.5 539.7 392.1 539.8 392.5 C 539.9 392.3 540.6 392.6 540.5 392.3 C 540.0 392.4 539.8 392.0 539.6 391.9 C 539.2 391.9 539.9 392.2 539.5 392.2 C 539.5 392.0 538.9 392.0 539.0 391.8 C 539.6 391.9 538.8 391.5 539.2 391.4 C 539.8 391.5 540.9 391.5 540.6 391.7 C 540.6 391.6 540.4 391.6 540.4 391.7 C 541.0 391.9 541.4 391.8 541.7 391.6 C 541.9 391.9 543.1 391.7 542.8 391.8 C 542.8 392.1 542.1 391.7 542.2 391.9 C 543.3 392.2 543.4 392.0 544.1 392.3 C 543.9 392.0 545.0 392.0 544.9 392.1 C 544.8 392.4 545.0 392.6 545.6 392.4 C 545.4 392.7 545.7 392.8 545.9 392.9 C 546.1 392.7 545.7 392.6 545.8 392.5 C 546.1 392.5 546.3 392.5 546.5 392.6 C 546.5 392.7 546.5 392.8 546.6 392.9 C 546.9 392.8 547.9 392.7 547.8 392.8 C 547.3 393.1 548.4 393.2 547.7 393.3 C 547.9 393.3 547.9 393.4 548.1 393.4 C 548.1 393.3 548.2 393.2 548.2 393.1 C 548.7 393.2 548.4 393.5 548.8 393.6 C 548.9 393.5 549.1 393.5 549.1 393.4 C 548.9 393.4 548.9 393.5 548.7 393.5 C 549.0 393.1 548.3 393.2 548.4 392.9 C 548.8 393.0 548.8 393.2 549.0 393.3 C 549.6 393.3 549.3 393.3 550.0 393.5 C 550.0 393.4 549.8 393.4 549.9 393.3 C 550.7 393.5 550.5 394.0 551.1 393.9 C 550.9 393.9 550.4 394.0 550.7 394.1 C 551.1 394.0 551.3 393.8 551.8 393.8 C 551.8 393.9 551.7 394.1 551.9 394.1 C 552.1 394.0 552.2 393.8 552.4 393.8 C 552.4 393.9 552.7 393.9 552.8 393.9 C 552.9 394.1 552.7 394.1 552.9 394.2 C 553.3 394.3 553.6 393.8 553.9 393.9 C 553.9 394.2 554.3 394.2 554.6 394.2 C 554.6 394.5 555.4 394.6 555.8 394.7 C 555.8 394.4 556.2 394.6 556.2 394.4 C 555.9 394.3 555.8 394.2 555.8 394.1 C 556.3 394.2 556.4 394.7 556.9 394.4 C 557.1 394.6 557.3 394.8 557.6 395.0 C 557.7 394.8 557.0 394.6 557.4 394.6 C 557.4 394.7 557.6 394.7 557.7 394.6 C 557.6 394.9 557.9 395.0 558.0 395.2 C 558.4 395.0 559.0 395.5 558.8 395.1 C 559.3 395.2 558.9 395.6 559.3 395.6 C 559.1 395.3 559.8 395.4 559.5 395.1 C 560.0 395.1 559.9 395.6 559.7 395.6 C 560.2 395.8 560.3 395.6 560.5 395.8 C 560.3 395.5 561.1 395.5 560.7 395.6 C 560.5 395.8 561.1 395.8 561.2 395.9 C 561.1 395.7 561.3 395.7 561.0 395.5 C 561.4 395.5 561.9 395.6 562.2 395.9 C 562.7 395.9 563.2 395.9 562.9 396.1 C 563.4 396.1 563.2 396.1 563.6 396.3 C 563.6 396.2 563.5 396.1 563.5 396.1 C 564.1 396.2 564.0 396.3 564.7 396.5 C 564.6 396.7 565.1 396.8 565.2 397.0 C 564.9 396.9 564.7 396.8 564.4 396.7 C 564.3 396.8 564.6 396.9 564.4 396.9 C 564.4 396.9 564.2 396.8 564.1 396.7 C 564.6 397.1 563.4 397.0 563.8 396.9 C 563.8 396.9 563.8 397.0 563.9 397.0 C 563.9 396.7 563.9 396.8 564.0 396.6 C 563.7 396.6 563.6 396.2 563.4 396.5 C 563.4 396.6 563.7 396.6 563.7 396.7 C 563.0 396.7 563.6 396.3 563.0 396.3 C 562.9 396.6 563.1 396.7 563.2 396.8 C 562.8 396.8 562.4 396.7 562.3 396.5 C 561.8 396.5 562.3 396.7 562.0 396.8 C 561.8 396.6 561.9 396.5 561.6 396.4 C 561.3 396.4 561.7 396.6 561.4 396.6 C 561.1 396.4 561.7 396.3 561.2 396.1 C 561.2 396.5 560.7 396.0 560.7 396.2 C 561.0 396.2 561.0 396.6 560.9 396.3 C 560.3 395.9 559.6 396.7 559.0 396.0 C 559.0 396.1 558.9 396.1 558.9 396.1 C 559.4 396.4 560.1 396.6 560.2 396.9 C 560.6 396.9 560.6 396.7 560.7 396.6 C 561.1 397.0 561.0 397.1 560.7 397.4 C 559.9 397.3 559.6 397.0 559.1 396.8 C 558.7 397.0 559.1 396.9 559.2 397.1 C 557.6 396.5 558.7 397.5 558.1 397.3 C 558.1 397.2 558.0 397.1 557.9 397.0 C 557.9 397.1 557.6 397.1 557.6 397.1 C 557.7 397.2 557.7 397.2 557.7 397.3 C 557.2 397.3 557.5 397.1 557.4 397.0 C 557.8 397.0 558.0 397.0 558.0 396.9 C 557.6 396.9 557.3 396.7 557.0 396.9 C 556.7 396.5 557.4 396.2 557.2 395.9 C 557.3 395.8 556.8 396.5 556.5 396.5 C 556.0 396.4 555.9 396.7 555.5 396.6 C 555.4 396.3 556.0 396.6 556.0 396.4 C 555.8 396.3 555.8 396.3 555.7 396.2 C 555.4 396.2 555.3 396.4 555.1 396.5 C 555.0 396.2 554.9 396.3 554.7 396.4 C 554.4 396.2 554.9 396.2 554.6 396.1 C 554.2 396.0 553.9 396.3 553.8 396.2 C 553.8 396.1 553.9 396.0 553.7 396.0 C 553.3 396.1 553.2 396.1 553.7 396.3 C 553.2 396.2 553.0 396.2 553.1 396.5 C 553.7 396.7 553.9 396.6 554.1 397.0 C 554.3 396.8 554.4 397.0 554.7 397.1 C 554.6 396.7 555.0 397.2 555.1 397.0 C 555.0 396.9 554.8 396.8 554.7 396.7 C 555.4 396.9 555.4 396.9 556.1 396.6 C 556.0 396.7 556.1 396.8 556.2 396.9 C 556.0 397.0 555.5 396.8 555.4 397.0 C 555.8 397.4 556.0 396.9 556.4 397.3 C 556.6 397.2 556.1 397.0 556.4 397.0 C 556.6 397.2 556.8 397.4 557.1 397.5 C 557.4 397.5 557.5 397.5 557.8 397.4 C 557.8 397.5 557.8 397.6 558.0 397.6 C 558.1 397.5 557.8 397.4 558.1 397.4 C 558.8 397.8 559.2 398.1 560.0 398.1 C 559.7 398.0 559.2 397.6 559.5 397.7 C 559.8 397.9 560.3 397.7 560.6 398.0 C 560.7 398.1 560.2 397.8 560.2 398.3 C 560.6 398.3 560.8 398.4 560.9 398.5 C 561.0 398.3 561.3 398.4 561.3 398.2 C 561.0 398.1 560.9 398.4 560.8 398.3 C 561.2 397.6 561.8 398.7 562.3 398.8 C 562.7 398.7 562.1 398.5 562.5 398.5 C 562.8 398.4 562.8 399.0 562.4 399.0 C 562.2 398.9 562.0 399.2 562.0 398.9 C 561.9 398.9 561.7 398.8 561.7 398.9 C 561.9 399.0 561.8 399.1 561.9 399.2 C 561.7 399.1 561.6 399.6 561.4 399.3 C 561.5 399.3 561.6 399.2 561.7 399.2 C 560.9 399.1 560.7 398.9 560.3 398.7 C 560.5 398.9 560.3 398.8 560.3 399.0 C 560.6 399.0 561.2 399.2 560.8 399.3 C 560.6 398.9 560.3 399.6 560.1 399.3 C 560.3 399.3 560.3 399.1 560.4 399.1 C 560.1 399.0 560.1 398.8 559.9 398.8 C 558.9 399.0 558.3 398.2 556.7 398.5 C 556.2 398.4 557.2 398.4 557.2 398.2 C 557.1 398.2 557.1 398.1 557.0 398.1 C 556.9 398.4 556.7 398.0 556.5 398.2 C 556.6 398.0 555.8 398.1 555.6 397.8 C 555.5 397.9 555.5 398.1 555.4 398.1 C 554.4 397.5 552.5 397.7 551.8 397.3 C 551.8 397.5 551.4 397.4 551.3 397.5 C 550.8 397.4 551.1 397.2 550.3 397.3 C 550.0 397.3 550.4 397.2 550.5 397.1 C 549.4 397.0 548.5 396.6 547.8 396.8 C 547.4 396.8 547.8 396.6 547.2 396.4 C 547.1 396.8 546.1 396.1 545.9 396.5 C 545.4 396.4 544.7 395.8 545.0 396.2 C 544.4 396.2 544.9 395.9 544.7 395.8 C 544.3 395.8 544.7 396.5 544.3 396.4 C 544.4 396.2 544.0 396.2 543.8 395.9 C 544.1 396.0 544.3 396.0 544.4 395.9 C 544.1 396.0 544.1 395.8 543.7 395.7 C 543.3 395.8 542.3 395.9 542.1 395.5 C 542.1 395.6 542.2 395.7 542.2 395.7 C 542.0 395.7 541.7 395.4 541.7 395.7 C 541.0 395.6 540.8 395.3 540.4 395.5 C 540.1 395.5 540.5 395.3 539.7 395.1 C 539.7 395.4 538.3 395.1 537.9 394.8 C 537.9 395.1 537.8 394.8 537.6 394.8 C 537.6 394.9 537.6 395.0 537.5 395.0 C 537.4 394.9 537.3 394.9 537.2 394.9 C 537.3 394.6 536.6 394.9 536.7 394.7 C 536.8 394.7 536.8 394.5 536.7 394.4 C 536.6 394.7 536.1 394.2 536.1 394.4 C 536.2 394.5 536.6 394.5 536.5 394.7 C 535.9 394.7 536.2 394.4 535.8 394.4 C 535.8 394.5 536.1 394.6 535.8 394.6 C 535.4 394.5 535.8 394.6 535.6 394.3 C 535.4 394.3 535.0 394.4 534.8 394.4 C 534.9 394.4 534.8 394.3 534.7 394.2 C 534.0 394.0 532.3 394.0 531.7 393.5 C 531.6 393.6 531.4 393.7 531.5 393.8 C 531.1 393.6 531.1 393.7 530.7 393.5 C 530.6 393.6 530.6 393.7 530.6 393.8 C 530.0 393.9 530.6 393.5 530.2 393.5 C 530.1 394.0 530.0 393.2 529.7 393.2 C 529.6 393.3 529.5 393.3 529.5 393.5 C 529.0 393.4 529.1 393.0 528.6 393.1 C 528.7 393.1 528.6 393.9 528.5 394.1 C 528.5 394.0 528.3 393.9 528.1 393.8 C 528.4 393.6 528.5 392.7 527.7 392.8 C 528.1 392.9 528.2 393.0 528.1 393.2 C 527.6 393.1 527.5 392.9 527.0 392.8 C 526.9 393.0 527.2 393.1 527.1 393.4 C 527.0 393.4 526.9 393.4 526.9 393.5 C 526.5 393.4 526.5 393.2 525.9 393.3 C 526.0 393.1 526.1 393.1 526.2 393.2 C 526.2 393.0 526.3 392.8 526.6 392.9 C 526.6 393.0 526.4 393.3 526.8 393.3 C 526.8 393.1 526.9 393.0 526.9 392.9 C 526.6 392.8 525.9 392.5 525.8 392.6 C 525.9 392.7 526.1 392.8 526.0 393.0 C 525.5 392.9 525.4 392.6 524.9 392.4 C 524.2 392.3 522.8 392.0 522.9 392.4 C 522.5 392.2 522.6 392.2 522.2 392.1 C 522.3 392.4 521.8 392.2 521.8 392.4 C 522.3 392.4 522.1 392.4 522.6 392.4 C 522.6 392.6 522.5 392.7 522.3 392.7 C 522.3 392.6 522.1 392.5 521.8 392.4 C 521.8 392.5 522.1 392.8 521.7 392.8 C 521.7 392.7 521.6 392.6 521.4 392.6 C 521.5 392.5 521.5 392.4 521.5 392.2 C 521.7 392.2 522.0 392.2 522.1 392.1 C 522.0 392.1 522.0 392.0 521.8 392.0 C 521.7 392.1 521.2 391.8 521.1 392.0 C 521.3 392.0 521.5 392.2 521.2 392.2 C 521.2 392.1 520.8 392.0 520.7 392.1 C 521.1 392.3 520.9 392.3 521.2 392.6 C 520.6 392.5 520.7 392.2 520.1 392.2 C 520.1 392.0 520.1 391.8 520.3 391.8 C 520.0 391.2 518.9 391.5 518.6 391.4 C 518.8 391.5 519.1 391.2 518.8 391.1 C 518.8 391.2 518.6 391.1 518.5 391.2 C 518.3 391.7 518.6 391.9 518.8 392.2 C 518.5 392.2 518.4 392.3 518.2 392.2 C 518.1 392.0 518.5 391.7 518.2 391.6 C 518.0 392.0 517.6 391.6 517.4 391.8 C 517.6 391.9 517.8 392.0 517.5 392.0 C 517.6 391.8 517.1 391.9 517.1 391.7 C 517.5 391.7 517.7 391.5 517.9 391.5 C 517.6 391.4 518.1 391.3 517.7 391.2 C 517.4 391.4 517.3 391.6 516.7 391.5 C 516.6 391.4 516.8 391.2 516.5 391.1 C 516.5 391.4 516.0 391.3 516.4 391.2 C 516.2 391.1 516.1 391.1 516.0 391.0 C 516.2 391.3 514.8 391.4 515.0 391.6 C 515.0 391.2 515.0 390.9 515.0 390.8 C 514.7 391.1 514.4 390.8 513.7 390.7 C 513.7 391.0 513.6 390.7 513.3 390.7 C 513.2 390.8 513.4 390.9 513.2 390.9 C 512.9 390.8 512.9 390.8 512.9 390.6 C 512.6 390.6 512.4 390.5 512.3 390.5 C 512.3 390.6 512.3 390.6 512.4 390.7 C 511.5 390.3 511.0 390.5 510.2 390.3 C 510.5 390.5 510.6 390.1 510.3 390.1 C 510.2 390.1 510.0 390.1 509.9 390.2 C 510.1 390.5 510.0 390.3 509.6 390.2 C 509.2 390.3 509.7 390.6 509.4 390.6 C 509.1 390.4 509.3 390.3 509.2 390.2 C 509.0 390.2 508.9 390.2 508.7 390.1 C 509.0 390.3 508.7 390.4 508.4 390.4 C 508.6 390.2 508.5 390.1 508.0 390.1 C 508.0 390.0 508.3 389.9 508.1 389.9 C 508.0 389.8 507.5 390.1 507.2 389.8 C 507.3 389.8 507.4 389.8 507.4 389.7 C 507.0 389.8 506.8 389.4 506.5 389.3 C 506.8 389.5 506.5 389.7 506.6 389.9 C 506.4 389.6 505.9 389.8 505.7 389.4 C 506.2 389.6 505.8 389.0 505.5 388.9 C 505.4 389.2 505.9 389.2 505.7 389.4 C 505.5 389.6 505.2 389.2 505.0 389.4 C 505.0 389.6 505.2 389.4 505.3 389.5 C 505.0 389.5 505.3 389.7 505.1 389.7 C 505.0 389.4 504.8 389.7 504.7 389.7 C 504.5 389.6 504.2 389.2 504.0 389.3 C 504.0 389.4 504.2 389.4 504.2 389.5 C 503.5 389.5 503.3 389.1 502.6 389.3 C 502.5 389.2 502.4 389.1 502.2 389.0 C 502.2 389.1 502.0 389.2 501.9 389.2 C 501.6 389.0 501.3 388.8 500.9 388.7 C 501.0 388.5 501.2 388.4 500.7 388.3 C 500.7 388.4 500.9 388.5 500.7 388.5 C 500.7 388.4 500.6 388.4 500.5 388.5 C 500.5 388.5 500.5 388.6 500.5 388.6 C 500.7 388.6 500.8 388.7 500.9 388.7 C 500.9 388.8 500.9 388.9 501.0 389.0 C 500.4 389.0 500.5 388.5 500.1 388.7 C 500.1 388.3 500.0 388.2 500.3 388.0 C 500.0 388.0 499.7 388.1 499.6 388.3 C 500.0 388.3 499.8 388.6 499.9 388.7 C 499.6 388.7 499.6 388.8 499.5 388.8 C 499.2 388.6 499.9 388.5 499.3 388.3 C 499.7 388.7 498.8 388.5 498.6 388.3 C 498.6 388.5 498.7 388.5 498.5 388.6 C 497.7 388.6 497.9 387.8 497.3 388.1 C 497.4 388.0 497.1 387.9 497.1 387.8 C 497.5 387.8 497.6 387.8 497.8 387.8 C 497.8 387.7 497.6 387.6 497.5 387.6 C 497.5 387.7 497.4 387.7 497.2 387.6 C 497.1 387.7 497.1 388.1 496.7 388.3 C 496.7 388.2 496.7 388.0 496.6 388.0 C 496.4 388.2 496.8 387.6 496.1 387.6 C 496.2 387.7 496.2 387.8 496.2 388.0 C 495.8 388.0 495.9 387.9 495.4 388.0 C 495.4 387.5 495.8 387.5 496.0 387.3 C 495.7 387.3 495.4 387.5 495.1 387.3 C 495.3 387.5 495.1 387.7 494.8 387.7 C 494.5 387.6 494.9 387.3 494.6 387.2 C 494.3 387.3 494.2 387.4 494.4 387.6 C 493.9 387.4 493.9 387.7 493.5 387.6 C 493.5 387.5 493.6 387.5 493.8 387.6 C 493.8 387.5 493.8 387.4 493.7 387.3 C 493.4 387.5 492.7 387.4 492.4 387.5 C 491.8 386.9 491.0 387.3 490.4 387.1 C 490.7 386.9 489.6 386.9 489.4 386.6 C 489.1 386.6 488.5 387.0 488.7 386.8 C 488.7 386.5 488.3 386.5 488.1 386.4 C 488.1 386.5 488.0 386.6 488.0 386.6 C 487.4 386.6 487.3 386.3 487.1 386.1 C 486.3 386.1 485.6 385.6 484.6 385.7 C 484.4 385.4 484.2 385.4 483.7 385.1 C 483.7 385.4 483.2 385.3 482.8 385.2 C 482.9 385.5 482.5 385.3 482.5 385.5 C 482.8 385.6 482.6 385.8 482.8 386.0 C 482.4 385.6 482.0 386.1 481.7 385.8 C 482.2 385.7 482.4 385.4 482.5 385.1 C 482.0 385.1 481.7 384.9 481.6 384.7 C 481.5 384.9 481.6 385.0 481.7 385.1 C 481.5 385.1 481.3 385.0 481.1 385.0 C 481.1 384.9 481.4 384.8 481.2 384.8 C 481.0 384.8 480.8 384.9 480.7 384.9 C 480.6 384.7 480.9 384.8 481.0 384.7 C 480.3 384.4 480.5 385.0 480.1 385.0 C 480.0 384.8 480.1 384.6 479.8 384.5 C 479.6 384.6 479.5 384.8 479.1 384.7 C 478.9 384.7 479.2 384.4 478.9 384.3 C 478.9 384.4 478.8 384.3 478.6 384.3 C 478.6 384.4 478.5 384.4 478.3 384.4 C 478.3 384.3 478.0 384.3 477.9 384.4 C 477.9 384.2 477.5 383.9 477.4 384.0 C 477.4 384.1 477.6 384.1 477.6 384.2 C 477.3 384.2 477.1 384.2 476.9 384.2 C 476.9 383.6 476.3 384.0 475.7 383.6 C 475.3 383.7 475.8 384.0 475.2 384.1 C 475.0 383.8 475.3 383.8 475.3 383.6 C 475.2 383.5 474.8 383.3 474.8 383.5 C 474.7 383.6 475.0 383.6 475.0 383.7 C 474.6 383.8 474.7 383.6 474.5 383.4 C 474.5 383.6 474.2 383.6 474.1 383.8 C 473.1 383.8 473.2 383.3 472.8 383.1 C 472.8 383.2 472.5 383.1 472.5 383.2 C 472.8 383.1 473.1 383.4 472.7 383.4 C 472.8 383.3 472.2 383.3 472.2 383.4 C 472.2 383.5 472.6 383.5 472.4 383.7 C 471.9 383.7 472.2 383.3 471.7 383.4 C 471.7 383.3 471.9 383.3 472.1 383.3 C 471.9 383.2 471.7 383.2 471.6 383.1 C 471.9 383.1 471.9 382.9 472.0 382.8 C 471.7 382.9 471.2 382.6 471.5 383.0 C 471.0 382.8 470.4 382.9 470.8 383.2 C 470.3 383.2 470.6 382.9 470.2 383.0 C 470.3 382.7 470.4 382.6 470.2 382.4 C 470.1 382.5 469.8 382.5 469.8 382.7 C 469.2 382.6 469.0 382.3 468.8 382.0 C 469.0 382.4 468.7 382.1 468.3 382.3 C 468.1 382.1 468.4 381.9 467.8 381.9 C 468.4 382.3 467.1 381.8 467.3 382.3 C 466.7 382.0 466.7 382.0 466.0 381.8 C 466.1 381.6 466.3 381.5 466.6 381.6 C 466.3 381.7 467.1 381.9 467.1 381.7 C 467.1 381.7 467.1 381.6 467.1 381.6 C 466.6 381.5 466.3 381.4 466.1 381.2 C 465.9 381.4 465.7 381.4 465.7 381.7 C 465.2 381.3 464.6 381.7 464.4 381.3 C 464.6 381.4 464.8 381.4 464.8 381.2 C 464.5 381.3 464.3 381.3 464.3 381.5 C 464.7 381.6 464.8 381.7 465.0 381.5 C 464.8 381.7 465.3 381.9 464.9 381.9 C 465.0 381.5 464.1 381.9 464.4 381.7 C 464.9 381.7 463.9 381.4 463.9 381.3 C 463.9 381.3 463.9 381.3 463.9 381.3 Z M 560.0 398.8 C 560.4 398.7 560.0 398.4 559.6 398.4 C 559.7 398.5 559.7 398.6 559.7 398.7 C 559.9 398.7 560.0 398.7 560.0 398.8 C 560.0 398.8 560.0 398.8 560.0 398.8 Z M 556.1 394.5 C 555.9 394.8 556.7 394.7 557.0 394.8 C 556.9 394.7 556.8 394.7 557.0 394.7 C 556.7 394.4 556.5 394.8 556.1 394.5 C 556.1 394.5 556.1 394.5 556.1 394.5 Z M 540.5 392.7 C 540.6 392.6 540.9 392.6 540.9 392.7 C 541.0 392.7 541.0 392.6 541.1 392.5 C 541.4 392.5 540.9 392.9 541.4 392.8 C 541.7 392.4 540.7 392.1 540.5 392.7 C 540.5 392.7 540.5 392.7 540.5 392.7 Z M 469.8 378.7 C 469.7 378.5 470.2 378.4 470.1 378.1 C 469.3 378.2 469.8 378.6 468.7 378.3 C 468.8 378.4 468.9 378.5 468.8 378.6 C 469.4 378.5 469.4 378.4 469.2 378.8 C 469.5 378.8 469.6 378.3 469.8 378.7 C 469.8 378.7 469.8 378.7 469.8 378.7 Z M 459.9 375.9 C 460.0 375.9 460.1 376.0 460.1 376.1 C 460.4 376.1 460.3 376.0 460.8 376.2 C 460.8 375.8 460.3 375.8 459.9 375.9 C 459.9 375.9 459.9 375.9 459.9 375.9 Z M 433.5 370.6 C 433.4 370.6 433.3 370.6 433.2 370.6 C 433.2 370.7 432.9 371.0 433.4 371.0 C 433.5 371.0 433.4 370.9 433.3 370.9 C 433.4 370.9 433.6 370.9 433.6 370.7 C 433.5 370.7 433.5 370.7 433.5 370.6 C 433.5 370.6 433.5 370.6 433.5 370.6 Z M 421.9 370.9 C 422.5 370.7 421.3 369.9 421.9 370.9 C 421.9 370.9 421.9 370.9 421.9 370.9 C 421.9 370.9 421.9 370.9 421.9 370.9 Z M 422.5 373.8 C 422.5 373.9 422.7 373.9 422.7 373.8 C 423.1 374.0 422.7 374.0 422.9 374.2 C 423.3 374.1 422.8 373.7 423.3 373.7 C 423.2 373.5 422.8 373.9 422.5 373.8 C 422.5 373.8 422.5 373.8 422.5 373.8 Z M 497.9 388.1 C 498.3 388.1 498.4 387.9 498.5 387.6 C 498.3 387.6 498.1 387.5 498.0 387.4 C 497.5 387.4 498.3 387.6 498.4 387.7 C 498.3 387.9 497.9 387.8 497.9 388.1 C 497.9 388.1 497.9 388.1 497.9 388.1 Z M 499.1 388.2 C 499.3 388.1 499.6 388.1 499.6 387.9 C 499.4 387.9 499.4 387.8 499.4 387.7 C 499.1 387.8 499.4 388.0 499.1 388.2 C 499.1 388.2 499.1 388.2 499.1 388.2 Z M 496.8 387.6 C 497.0 387.6 497.0 387.4 497.0 387.3 C 496.7 387.2 496.7 387.1 496.5 387.1 C 496.5 387.2 496.4 387.3 496.4 387.3 C 496.6 387.4 496.7 387.3 496.9 387.3 C 496.8 387.4 496.8 387.5 496.8 387.6 C 496.8 387.6 496.8 387.6 496.8 387.6 Z M 500.5 388.1 C 501.2 388.3 501.6 387.9 502.1 387.7 C 501.6 387.6 501.0 388.0 500.7 387.8 C 500.2 387.8 500.8 388.0 500.8 388.1 C 500.7 388.2 500.6 388.1 500.5 388.1 C 500.5 388.1 500.5 388.1 500.5 388.1 Z M 506.9 389.3 C 507.0 389.5 507.4 389.1 507.8 389.2 C 507.7 389.2 507.6 389.1 507.7 389.0 C 507.1 388.8 507.3 389.3 506.9 389.3 C 506.9 389.3 506.9 389.3 506.9 389.3 Z M 510.4 389.7 C 510.8 389.8 510.2 389.5 510.5 389.4 C 510.1 389.3 509.6 389.2 509.6 389.5 C 510.1 389.4 510.2 389.4 510.4 389.7 C 510.4 389.7 510.4 389.7 510.4 389.7 Z M 512.9 390.2 C 513.4 390.1 512.8 389.8 513.0 389.6 C 512.9 389.6 512.9 389.7 512.9 389.8 C 512.7 389.8 512.6 389.7 512.4 389.7 C 512.6 389.8 513.0 389.9 512.9 390.2 C 512.9 390.2 512.9 390.2 512.9 390.2 Z M 487.8 385.6 C 488.1 385.5 488.0 385.3 488.5 385.4 C 487.7 385.3 488.3 384.6 487.3 384.6 C 487.4 384.7 487.3 384.8 487.2 384.7 C 486.8 384.8 487.6 384.9 487.2 385.0 C 487.5 385.1 487.3 384.8 487.6 384.8 C 487.9 385.1 488.0 385.3 487.8 385.6 C 487.8 385.6 487.8 385.6 487.8 385.6 Z M 487.3 384.3 C 487.0 384.2 486.9 384.7 486.8 384.4 C 486.7 384.4 486.7 384.5 486.7 384.6 C 486.8 384.6 486.8 384.6 486.8 384.7 C 487.1 384.6 487.3 384.6 487.3 384.3 C 487.3 384.3 487.3 384.3 487.3 384.3 Z M 490.0 384.8 C 489.5 384.8 489.3 384.6 489.1 384.8 C 489.0 384.4 488.7 384.9 488.5 384.6 C 488.1 384.5 488.4 384.7 488.5 384.9 C 488.0 384.9 488.4 384.6 488.0 384.6 C 487.8 384.9 488.4 384.9 488.3 385.2 C 488.6 385.2 488.7 385.0 488.9 385.0 C 489.1 385.1 489.0 385.2 489.0 385.3 C 489.4 385.3 489.3 385.5 489.7 385.5 C 489.8 385.3 489.7 385.2 489.3 385.2 C 489.7 385.1 489.9 385.0 490.3 385.2 C 489.9 385.4 491.3 385.7 491.3 385.3 C 490.9 385.2 491.0 385.4 490.8 385.5 C 490.4 385.1 490.1 385.1 490.0 384.8 C 490.0 384.8 490.0 384.8 490.0 384.8 Z M 496.8 386.7 C 496.9 386.8 497.0 386.9 497.2 386.9 C 497.2 387.1 497.0 387.0 497.2 387.2 C 497.5 387.3 497.5 387.2 497.7 387.2 C 497.6 387.1 497.1 386.7 497.4 386.7 C 497.3 386.6 497.1 386.5 496.9 386.4 C 497.1 386.8 496.5 386.4 496.2 386.3 C 496.1 386.7 495.7 386.1 495.4 386.3 C 495.6 386.6 496.2 386.5 496.4 386.5 C 496.3 386.5 497.0 387.2 496.8 386.7 C 496.8 386.7 496.8 386.7 496.8 386.7 Z M 486.1 384.3 C 486.1 384.4 485.7 384.3 486.0 384.4 C 485.8 384.5 485.6 384.3 485.6 384.7 C 485.5 384.7 485.4 384.6 485.2 384.6 C 485.3 384.5 485.7 384.6 485.6 384.4 C 485.3 384.4 485.4 384.3 485.0 384.3 C 485.2 384.1 485.0 384.0 485.2 383.7 C 485.1 383.8 484.8 383.8 484.8 384.0 C 484.2 383.8 485.0 383.7 484.3 383.6 C 484.3 383.4 484.8 383.5 485.0 383.6 C 485.1 383.4 484.1 383.4 483.6 383.2 C 484.0 383.5 483.6 383.6 483.4 383.8 C 483.2 383.7 483.4 383.6 483.1 383.4 C 482.9 383.4 482.7 383.5 482.7 383.4 C 482.5 383.4 482.6 383.5 482.5 383.7 C 482.2 383.6 482.5 383.3 482.0 383.2 C 482.3 383.6 481.9 383.6 481.3 383.4 C 481.3 383.5 481.5 383.6 481.5 383.7 C 481.4 383.9 481.0 383.5 481.0 383.4 C 480.7 383.4 480.9 383.5 481.1 383.6 C 480.9 383.6 480.8 383.7 480.6 383.7 C 481.3 383.9 482.4 384.0 483.6 384.6 C 483.4 384.3 483.7 384.3 484.1 384.5 C 484.1 384.6 484.0 384.6 483.8 384.6 C 484.2 385.0 484.3 384.3 484.9 384.6 C 485.3 384.8 484.5 384.8 484.9 385.0 C 485.1 384.9 485.3 384.8 485.4 385.1 C 485.9 385.0 486.1 384.8 486.8 384.9 C 486.4 384.7 486.3 384.1 485.9 384.2 C 485.9 384.2 486.0 384.3 486.1 384.3 C 486.1 384.3 486.1 384.3 486.1 384.3 Z M 499.4 387.5 C 499.7 387.6 499.8 387.5 499.8 387.6 C 500.3 387.6 499.8 387.3 499.8 387.3 C 499.6 387.3 499.5 387.4 499.4 387.5 C 499.4 387.5 499.4 387.5 499.4 387.5 Z M 541.9 395.0 C 542.4 395.2 542.4 394.9 542.8 394.9 C 542.5 394.8 542.4 394.6 541.9 394.5 C 541.8 394.7 541.8 394.9 541.9 395.0 C 541.9 395.0 541.9 395.0 541.9 395.0 Z M 498.0 387.1 C 497.7 387.3 498.5 386.9 498.5 387.1 C 498.9 387.0 498.1 386.9 498.5 386.7 C 498.2 386.8 498.0 386.6 497.6 386.6 C 497.5 386.8 497.9 386.9 498.2 386.9 C 498.2 387.1 498.1 387.0 498.0 387.1 C 498.0 387.1 498.0 387.1 498.0 387.1 Z M 536.6 393.4 C 536.2 393.6 536.8 393.9 537.0 394.1 C 537.1 393.8 537.0 393.8 536.6 393.4 C 536.6 393.4 536.6 393.4 536.6 393.4 Z M 545.6 395.3 C 545.9 395.0 545.0 395.1 545.3 394.9 C 545.0 394.8 545.0 394.9 544.9 395.0 C 544.8 394.9 544.4 394.9 544.6 394.7 C 544.5 394.5 545.2 394.8 545.0 394.5 C 545.3 394.5 545.3 394.6 545.4 394.7 C 545.0 394.6 545.2 394.9 545.7 395.0 C 545.7 394.8 545.5 394.8 545.7 394.7 C 545.7 394.8 546.0 395.1 545.9 395.4 C 546.3 395.5 546.1 395.0 546.7 395.1 C 546.6 395.0 546.3 394.9 546.1 394.8 C 546.2 394.5 546.6 395.1 546.6 394.7 C 546.7 394.9 546.9 395.1 546.9 395.3 C 546.5 395.4 546.2 395.5 545.9 395.6 C 546.1 395.8 546.7 395.3 547.1 395.6 C 547.1 395.4 547.4 395.5 547.4 395.2 C 547.8 395.4 547.5 395.6 547.4 395.7 C 547.5 395.8 548.3 395.9 548.3 395.7 C 548.3 395.9 549.3 396.0 549.3 395.7 C 549.5 395.9 550.1 395.6 550.1 396.0 C 550.3 395.9 550.6 396.0 551.0 396.0 C 551.1 395.8 550.5 395.8 550.5 395.6 C 550.4 395.4 551.1 395.8 551.1 395.6 C 551.1 395.5 551.1 395.5 551.1 395.4 C 550.8 395.4 550.5 395.5 550.2 395.5 C 550.0 395.4 550.3 395.4 550.2 395.3 C 550.0 395.4 549.1 395.5 549.1 395.1 C 548.5 395.1 548.1 394.9 547.8 395.1 C 547.5 395.0 548.0 395.0 547.9 394.8 C 546.8 394.9 545.5 394.3 544.6 394.5 C 544.4 394.5 544.5 394.3 544.5 394.2 C 543.3 394.1 544.2 394.6 543.3 394.4 C 543.4 394.2 543.8 394.3 543.8 394.1 C 543.5 394.0 543.4 394.1 543.0 394.0 C 542.9 394.1 542.9 394.2 542.9 394.3 C 542.6 394.2 542.7 394.0 542.6 393.8 C 542.1 393.8 542.2 394.0 542.0 393.7 C 541.6 393.7 541.2 393.7 540.7 393.5 C 540.4 393.6 540.9 394.1 541.3 394.2 C 541.3 394.3 541.2 394.2 541.2 394.3 C 540.7 394.0 540.7 393.6 539.9 393.4 C 540.5 393.7 539.6 393.4 539.5 393.2 C 539.2 393.2 539.4 393.5 539.6 393.6 C 539.5 393.7 539.3 393.5 539.3 393.4 C 539.2 393.8 539.9 394.1 540.8 394.1 C 540.3 394.4 541.4 394.2 540.8 394.6 C 541.5 394.6 541.0 394.2 541.7 394.4 C 541.7 394.3 541.6 394.2 541.5 394.1 C 542.1 394.1 541.9 394.4 542.5 394.5 C 542.6 394.3 542.2 394.3 542.2 394.1 C 542.8 394.4 543.0 394.6 543.4 394.9 C 543.5 394.7 543.4 394.5 544.1 394.8 C 544.1 394.8 544.1 394.9 544.1 394.9 C 543.8 394.8 543.6 395.3 544.5 395.4 C 544.5 395.2 544.3 395.2 544.1 395.2 C 544.2 395.0 544.5 395.0 544.8 395.0 C 545.0 395.1 545.1 395.2 544.9 395.2 C 545.0 395.5 545.2 395.1 545.6 395.3 C 545.6 395.3 545.6 395.3 545.6 395.3 Z M 506.3 388.6 C 506.4 388.6 506.5 388.5 506.7 388.6 C 506.9 388.4 506.5 388.4 506.5 388.2 C 506.2 388.1 506.4 388.5 506.3 388.6 C 506.3 388.6 506.3 388.6 506.3 388.6 Z M 502.4 387.7 C 502.4 387.9 502.7 387.7 503.0 387.8 C 503.1 387.6 502.7 387.6 502.7 387.5 C 502.4 387.3 502.8 387.9 502.4 387.7 C 502.4 387.7 502.4 387.7 502.4 387.7 Z M 504.1 388.0 C 504.2 388.3 504.3 387.9 504.0 387.9 C 504.0 387.8 504.1 387.7 504.3 387.7 C 504.1 387.4 503.9 387.8 503.6 387.6 C 503.7 387.8 503.9 387.9 504.1 388.0 C 504.1 388.0 504.1 388.0 504.1 388.0 Z M 504.6 388.1 C 504.9 388.0 505.0 388.2 505.4 388.2 C 505.3 388.0 504.5 387.9 504.4 388.0 C 504.2 388.2 505.1 388.3 504.6 388.1 C 504.6 388.1 504.6 388.1 504.6 388.1 Z M 531.0 392.1 C 531.2 392.2 531.2 392.1 531.2 392.0 C 531.6 392.4 532.2 392.5 531.7 392.7 C 532.1 392.6 532.5 393.0 532.9 393.1 C 533.2 393.2 533.1 392.9 533.3 392.9 C 533.7 393.1 533.1 393.0 533.2 393.2 C 533.2 393.4 533.4 393.0 533.9 393.2 C 533.8 392.8 534.3 393.3 534.2 392.9 C 534.5 393.1 534.6 392.9 534.9 393.0 C 534.9 392.8 534.6 392.8 534.6 392.6 C 534.4 392.3 534.3 392.8 534.7 392.8 C 534.4 393.0 534.0 392.5 533.8 392.7 C 533.7 392.4 534.3 392.7 534.2 392.4 C 534.0 392.5 533.9 392.5 533.9 392.5 C 533.7 392.5 533.5 392.4 533.5 392.2 C 533.6 392.2 533.6 392.3 533.6 392.3 C 533.9 392.4 533.4 391.9 533.9 392.0 C 533.9 391.9 533.6 391.9 533.7 391.7 C 533.6 391.5 533.6 392.4 533.1 392.0 C 532.7 392.2 533.9 392.4 533.5 392.8 C 532.7 392.6 533.2 392.3 532.6 392.2 C 532.6 392.3 532.6 392.4 532.4 392.4 C 532.4 392.5 532.7 392.5 532.8 392.5 C 532.8 392.6 532.6 392.6 532.4 392.5 C 532.4 392.6 532.5 392.6 532.5 392.7 C 532.0 392.5 532.2 392.0 532.7 392.0 C 532.7 391.8 532.0 391.7 531.8 391.8 C 532.0 392.0 531.8 391.9 531.9 392.2 C 532.0 392.2 532.0 392.1 532.1 392.1 C 532.3 392.2 532.1 392.2 532.0 392.3 C 531.7 392.2 531.8 392.0 531.5 392.1 C 531.6 392.1 531.6 392.0 531.7 391.9 C 531.5 391.9 531.4 391.9 531.2 391.8 C 531.2 392.0 531.0 392.0 531.0 392.1 C 531.0 392.1 531.0 392.1 531.0 392.1 Z M 538.2 394.0 C 538.7 394.2 538.4 393.9 538.2 393.9 C 538.3 393.8 538.5 393.8 538.7 393.8 C 538.6 393.7 538.4 393.7 538.0 393.6 C 538.4 393.4 538.1 392.8 537.4 392.8 C 537.1 393.2 537.7 393.4 537.4 393.6 C 538.0 393.5 538.2 393.7 538.2 394.0 C 538.2 394.0 538.2 394.0 538.2 394.0 Z M 499.8 387.2 C 500.0 387.2 500.3 387.3 500.6 387.3 C 500.6 387.1 499.8 386.8 499.8 387.2 C 499.8 387.2 499.8 387.2 499.8 387.2 Z M 480.1 383.3 C 480.0 383.3 480.0 383.3 480.0 383.2 C 479.6 383.2 480.1 383.4 479.9 383.6 C 480.1 383.6 480.2 383.7 480.3 383.7 C 480.4 383.6 479.8 383.3 480.3 383.3 C 480.2 383.2 480.1 383.3 480.1 383.3 C 480.1 383.3 480.1 383.3 480.1 383.3 Z M 506.1 388.2 C 506.3 388.2 506.2 387.8 506.8 388.0 C 506.6 387.8 506.5 387.8 506.1 387.8 C 506.1 388.0 506.1 388.1 506.1 388.2 C 506.1 388.2 506.1 388.2 506.1 388.2 Z M 528.9 392.2 C 529.2 392.5 529.4 391.9 530.0 392.2 C 529.7 391.8 529.3 392.1 528.9 392.2 C 528.9 392.2 528.9 392.2 528.9 392.2 Z M 552.2 395.9 C 552.0 395.7 552.2 395.7 551.9 395.6 C 551.7 395.6 551.6 395.7 551.3 395.7 C 551.7 396.0 552.4 395.9 552.6 396.3 C 553.0 396.4 553.0 396.1 553.1 395.9 C 553.0 395.9 552.9 395.9 552.9 395.8 C 552.6 396.1 552.5 395.5 552.2 395.9 C 552.2 395.9 552.2 395.9 552.2 395.9 Z M 536.5 393.3 C 536.2 393.1 536.7 393.1 536.8 393.0 C 537.0 393.0 536.9 393.2 536.9 393.3 C 537.1 393.4 537.2 393.2 537.2 393.1 C 536.8 392.9 536.2 392.8 536.6 392.5 C 536.2 392.4 536.3 392.8 536.1 392.8 C 535.9 392.6 536.1 392.6 536.2 392.3 C 536.1 392.3 535.7 392.6 535.8 392.2 C 535.1 392.4 535.3 392.9 535.7 393.4 C 536.2 393.2 535.7 393.0 536.5 393.3 C 536.5 393.3 536.5 393.3 536.5 393.3 Z M 518.7 390.0 C 518.8 390.1 519.0 390.1 519.0 390.2 C 519.3 390.0 519.6 389.8 519.9 389.6 C 519.9 389.4 519.5 389.5 519.6 389.7 C 519.6 389.5 519.3 389.4 519.2 389.2 C 518.9 389.1 518.7 389.6 518.7 389.2 C 518.4 389.3 518.6 389.4 518.1 389.2 C 518.8 389.6 517.9 389.3 517.8 389.6 C 518.2 389.6 518.6 389.7 518.5 389.4 C 518.8 389.6 519.1 389.7 519.2 390.0 C 519.1 390.0 518.9 390.0 518.7 390.0 C 518.7 390.0 518.7 390.0 518.7 390.0 Z M 520.5 389.5 C 520.4 389.6 520.3 389.6 520.1 389.6 C 520.2 389.6 520.2 389.8 520.2 389.9 C 520.5 389.9 520.7 389.8 520.7 390.1 C 521.1 390.2 520.7 389.7 521.2 389.9 C 521.2 389.8 520.9 389.8 520.9 389.7 C 520.9 389.9 520.7 389.9 520.5 389.5 C 520.5 389.5 520.5 389.5 520.5 389.5 Z M 524.8 390.8 C 525.2 390.8 524.6 390.6 524.8 390.5 C 524.7 390.5 524.1 390.3 524.2 390.1 C 524.0 389.8 523.2 390.3 523.4 389.9 C 523.2 389.9 523.2 390.0 523.2 390.1 C 523.7 390.1 523.6 390.3 523.3 390.3 C 523.3 390.4 523.6 390.4 523.8 390.5 C 523.9 390.3 523.7 390.3 523.8 390.1 C 524.2 390.3 524.4 390.6 524.8 390.8 C 524.8 390.8 524.8 390.8 524.8 390.8 Z M 465.0 380.2 C 465.3 380.2 465.5 380.2 465.7 380.2 C 465.6 380.0 465.4 380.1 465.3 380.1 C 465.2 380.0 465.4 380.0 465.6 380.0 C 465.4 379.8 464.8 379.9 465.0 380.2 C 465.0 380.2 465.0 380.2 465.0 380.2 Z M 467.8 380.6 C 468.1 380.7 468.3 380.7 468.3 380.6 C 468.2 380.4 468.2 380.7 468.0 380.6 C 467.9 380.5 467.9 380.4 467.8 380.3 C 467.7 380.3 467.7 380.4 467.6 380.5 C 467.5 380.5 467.5 380.4 467.5 380.4 C 467.1 380.5 468.0 380.4 467.8 380.6 C 467.8 380.6 467.8 380.6 467.8 380.6 Z M 522.4 390.2 C 522.3 390.1 522.3 389.9 521.9 389.9 C 522.0 390.1 521.7 390.0 521.5 390.0 C 521.8 390.2 521.9 390.1 522.4 390.2 C 522.4 390.2 522.4 390.2 522.4 390.2 Z M 485.3 383.6 C 485.6 383.9 485.7 383.5 486.2 383.7 C 486.3 383.7 486.3 383.6 486.3 383.5 C 485.9 383.6 485.7 383.5 485.3 383.6 C 485.3 383.6 485.3 383.6 485.3 383.6 Z M 427.5 373.4 C 427.6 373.2 427.1 373.2 427.1 373.1 C 427.0 373.4 426.9 372.8 426.0 372.7 C 426.0 372.6 426.1 372.6 426.2 372.6 C 425.6 372.4 426.4 372.9 426.4 373.1 C 426.9 373.2 427.0 373.4 427.5 373.4 C 427.5 373.4 427.5 373.4 427.5 373.4 Z M 548.1 394.4 C 548.0 394.5 548.1 394.5 548.2 394.5 C 548.3 394.5 548.4 394.5 548.5 394.6 C 548.5 394.2 548.1 394.0 548.5 393.7 C 548.4 393.7 548.3 393.8 548.3 393.8 C 547.5 394.4 547.2 393.1 546.2 393.4 C 546.1 393.4 546.1 393.5 546.1 393.6 C 546.2 393.6 546.2 393.6 546.2 393.7 C 546.4 393.4 547.1 393.9 546.7 393.9 C 546.7 394.0 546.9 394.0 546.9 393.9 C 547.0 394.0 547.1 394.0 547.1 394.0 C 547.1 393.9 546.9 393.8 546.9 393.7 C 547.3 393.9 547.9 394.1 547.5 394.3 C 547.8 394.3 547.9 394.2 548.1 394.2 C 548.3 394.2 548.3 394.4 548.1 394.4 C 548.1 394.4 548.1 394.4 548.1 394.4 Z M 551.7 395.0 C 552.2 395.1 552.0 394.8 552.5 394.9 C 552.2 394.7 551.8 394.9 551.5 394.7 C 551.5 394.8 551.7 394.8 551.7 395.0 C 551.7 395.0 551.7 395.0 551.7 395.0 Z M 543.7 393.2 C 543.8 393.0 543.4 392.9 543.0 392.8 C 542.9 393.1 543.3 393.1 543.7 393.2 C 543.7 393.2 543.7 393.2 543.7 393.2 Z M 545.5 393.5 C 545.9 393.5 545.0 393.4 545.3 393.2 C 545.1 393.2 544.9 393.1 544.9 393.0 C 544.7 393.1 544.7 393.2 544.4 393.1 C 544.4 393.3 544.9 393.2 544.8 393.4 C 545.1 393.3 545.2 393.3 545.5 393.5 C 545.5 393.5 545.5 393.5 545.5 393.5 Z M 545.8 393.6 C 546.1 393.6 545.8 393.1 545.4 393.0 C 545.5 393.2 545.6 393.4 545.8 393.6 C 545.8 393.6 545.8 393.6 545.8 393.6 Z M 513.1 387.7 C 513.3 387.8 513.2 387.5 513.4 387.6 C 513.4 387.4 512.6 387.3 513.3 387.4 C 513.1 387.0 512.9 387.4 512.6 387.3 C 512.6 387.4 512.7 387.5 512.5 387.5 C 512.4 387.7 513.2 387.6 513.1 387.7 C 513.1 387.7 513.1 387.7 513.1 387.7 Z M 513.9 387.9 C 514.1 387.9 514.0 387.8 513.9 387.8 C 514.0 387.7 514.2 387.8 514.4 387.8 C 514.4 387.9 514.1 387.4 514.2 387.2 C 513.4 387.3 513.9 387.6 513.9 387.9 C 513.9 387.9 513.9 387.9 513.9 387.9 Z M 514.6 387.9 C 515.1 388.2 515.7 388.2 516.1 388.0 C 515.8 387.6 514.9 387.6 514.6 387.9 C 514.6 387.9 514.6 387.9 514.6 387.9 Z M 510.0 387.0 C 510.8 387.4 512.5 387.3 511.1 386.8 C 511.1 387.0 510.1 386.9 509.6 386.7 C 509.6 386.8 509.0 386.9 509.1 386.8 C 508.7 386.9 510.2 387.2 510.0 387.0 C 510.0 387.0 510.0 387.0 510.0 387.0 Z M 516.7 387.7 C 516.4 387.7 516.7 388.2 516.3 388.0 C 516.1 388.0 516.4 388.1 516.3 388.2 C 516.7 388.3 517.7 388.2 517.7 388.5 C 517.9 388.4 518.0 388.3 518.4 388.4 C 518.5 388.2 516.9 388.3 516.7 387.8 C 516.7 387.7 517.3 387.8 516.7 387.7 C 516.7 387.7 516.7 387.7 516.7 387.7 Z M 485.5 382.2 C 485.4 382.4 486.0 382.3 485.9 382.5 C 486.2 382.3 486.5 382.5 486.9 382.4 C 487.0 382.5 486.9 382.8 487.4 383.0 C 487.4 382.8 487.2 382.8 487.4 382.7 C 487.9 382.7 487.7 383.0 488.3 383.0 C 488.2 382.6 489.4 383.1 489.3 382.7 C 489.0 382.6 489.0 382.8 488.6 382.7 C 488.4 382.6 488.5 382.5 488.3 382.5 C 488.5 382.3 488.7 382.7 488.9 382.5 C 488.9 382.3 488.6 382.3 488.5 382.1 C 488.3 382.1 488.6 382.2 488.5 382.4 C 487.9 382.3 488.6 381.8 488.0 381.8 C 488.1 382.0 488.1 382.1 487.9 382.3 C 487.7 382.1 487.0 382.1 487.4 381.9 C 487.4 381.7 486.9 381.9 487.0 382.1 C 486.7 382.1 486.7 382.0 486.7 381.9 C 486.1 381.9 486.0 382.1 486.1 382.3 C 485.9 382.5 485.9 382.1 485.5 382.2 C 485.5 382.2 485.5 382.2 485.5 382.2 Z M 505.6 386.1 C 505.2 386.2 506.0 386.1 506.3 386.2 C 505.9 386.1 506.1 385.8 505.7 385.7 C 505.8 385.8 505.7 385.9 505.5 385.8 C 505.4 385.9 506.0 386.1 505.6 386.1 C 505.6 386.1 505.6 386.1 505.6 386.1 Z M 519.3 388.5 C 519.4 388.7 520.1 388.7 520.5 388.8 C 520.5 388.4 519.5 388.8 519.4 388.4 C 519.2 388.4 519.5 388.5 519.3 388.5 C 519.3 388.5 519.3 388.5 519.3 388.5 Z M 490.8 383.4 C 490.9 383.4 490.9 383.3 490.8 383.3 C 490.8 383.2 491.1 383.3 491.4 383.3 C 491.1 383.1 491.5 383.1 491.4 382.9 C 491.6 382.9 491.7 382.9 491.7 382.8 C 491.7 383.3 492.7 382.7 491.8 382.5 C 491.9 382.8 491.8 382.8 491.5 382.8 C 491.1 382.5 490.7 382.7 490.7 382.4 C 490.4 382.4 490.3 382.5 489.9 382.4 C 489.9 382.2 489.6 382.1 489.9 381.8 C 489.3 381.7 489.6 382.3 489.1 382.3 C 488.6 382.1 489.4 382.1 489.3 381.8 C 489.2 381.8 489.2 381.7 489.2 381.7 C 489.0 381.7 489.0 381.9 489.2 381.9 C 489.1 382.0 488.6 382.1 488.7 381.8 C 488.4 381.9 489.1 382.6 489.5 382.5 C 489.7 382.5 489.7 382.9 489.4 382.8 C 489.5 383.1 490.0 382.6 489.8 383.1 C 490.0 383.1 490.2 383.1 490.4 383.2 C 490.4 383.1 490.3 383.1 490.3 383.0 C 490.4 383.0 490.6 383.1 490.8 383.1 C 490.6 383.2 490.6 383.3 490.8 383.4 C 490.8 383.4 490.8 383.4 490.8 383.4 Z M 517.5 388.1 C 517.8 388.2 517.9 388.1 518.2 388.1 C 518.1 387.9 517.3 387.9 517.5 388.1 C 517.5 388.1 517.5 388.1 517.5 388.1 Z M 483.3 381.0 C 483.3 381.1 483.5 381.1 483.5 381.2 C 483.1 381.2 483.5 381.4 483.1 381.8 C 483.7 381.7 484.0 381.2 483.3 380.9 C 482.7 380.8 483.8 381.1 483.3 381.0 C 483.3 381.0 483.3 381.0 483.3 381.0 Z M 484.9 381.5 C 485.3 381.4 484.4 381.2 484.3 381.0 C 484.3 381.0 484.3 380.9 484.3 380.8 C 483.8 381.1 484.4 381.3 483.9 381.7 C 484.4 381.9 484.6 382.0 485.1 382.0 C 485.1 381.9 485.0 381.9 485.0 382.0 C 484.6 381.9 484.9 381.6 485.3 381.8 C 485.2 381.7 484.9 381.6 484.6 381.5 C 484.7 381.6 484.7 381.7 484.7 381.8 C 484.4 381.8 484.5 381.6 484.3 381.5 C 484.3 381.4 484.9 381.3 484.9 381.5 C 484.9 381.5 484.9 381.5 484.9 381.5 Z M 457.3 377.0 C 457.6 377.0 457.1 376.6 457.1 376.3 C 456.9 376.2 456.8 376.2 456.6 376.2 C 456.6 376.4 457.0 376.5 457.1 376.7 C 457.0 377.0 456.7 376.5 456.5 376.7 C 456.3 377.0 457.2 376.7 457.3 377.0 C 457.3 377.0 457.3 377.0 457.3 377.0 Z M 497.4 384.2 C 497.6 384.2 497.5 384.1 497.4 384.1 C 497.5 384.0 497.7 384.1 497.7 384.1 C 497.9 384.2 497.6 384.0 497.9 384.0 C 497.9 383.9 497.5 384.0 497.4 384.0 C 497.1 384.0 497.4 383.7 497.4 383.6 C 497.1 383.5 497.1 383.8 496.8 383.7 C 497.0 383.8 497.2 384.0 497.4 384.2 C 497.4 384.2 497.4 384.2 497.4 384.2 Z M 482.2 381.3 C 482.1 381.4 482.6 381.0 482.9 381.3 C 483.4 381.4 482.7 381.0 483.1 381.1 C 482.7 381.0 482.3 381.1 481.7 381.0 C 481.5 381.1 482.5 381.2 481.9 381.2 C 481.9 381.3 482.1 381.3 482.1 381.2 C 482.2 381.2 482.2 381.3 482.2 381.3 C 482.2 381.3 482.2 381.3 482.2 381.3 Z M 482.9 380.9 C 482.8 380.8 482.7 380.8 482.7 380.8 C 482.5 380.8 482.6 380.6 482.8 380.6 C 482.6 380.3 482.5 380.8 482.0 380.6 C 482.2 380.8 482.3 381.0 481.9 380.7 C 481.5 380.9 482.7 381.0 482.9 380.9 C 482.9 380.9 482.9 380.9 482.9 380.9 Z M 461.8 377.6 C 461.8 377.5 461.5 377.5 461.2 377.5 C 461.6 377.3 462.7 377.6 462.8 377.8 C 462.9 377.8 463.0 377.8 463.1 377.9 C 463.1 377.8 463.4 377.7 463.2 377.7 C 463.3 377.6 463.5 377.7 463.5 377.5 C 464.0 377.7 463.4 377.7 463.5 377.9 C 464.0 377.7 463.9 377.9 464.5 378.0 C 464.4 377.8 463.7 377.7 463.9 377.4 C 463.3 377.6 462.9 377.4 462.6 377.1 C 463.0 377.5 461.3 377.4 460.6 377.2 C 460.6 377.0 460.4 377.0 460.1 376.8 C 459.9 376.6 459.9 377.1 460.3 377.1 C 460.3 377.2 459.7 377.0 459.5 377.0 C 459.7 377.2 459.5 377.3 459.7 377.3 C 460.2 377.5 459.7 377.3 459.9 377.1 C 460.0 377.2 460.1 377.2 460.3 377.2 C 459.5 377.5 461.4 377.5 460.7 377.4 C 461.3 377.4 461.2 377.7 461.8 377.6 C 461.8 377.6 461.8 377.6 461.8 377.6 Z M 474.9 380.0 C 475.0 380.0 475.5 379.9 475.5 380.1 C 476.1 380.1 475.6 379.8 476.3 379.9 C 476.2 379.8 476.0 379.8 476.0 379.7 C 475.7 379.7 475.5 379.7 475.5 380.0 C 475.2 379.9 475.1 380.0 474.9 380.0 C 475.0 379.9 475.1 379.8 475.4 379.9 C 475.5 379.7 475.4 379.5 475.0 379.5 C 474.8 379.7 474.9 379.9 474.9 380.0 C 474.9 380.0 474.9 380.0 474.9 380.0 Z M 476.4 380.0 C 476.4 380.1 476.5 380.1 476.5 380.2 C 476.6 380.5 476.6 379.9 476.8 380.0 C 477.0 380.0 476.9 380.1 476.9 380.2 C 477.2 380.2 477.4 380.2 477.5 380.3 C 477.9 380.3 477.1 380.0 477.0 379.9 C 476.7 379.9 476.8 380.1 476.4 380.0 C 476.4 380.0 476.4 380.0 476.4 380.0 Z M 480.5 381.0 C 480.6 381.2 480.8 380.9 481.0 380.9 C 480.9 380.7 480.4 380.8 480.8 380.5 C 480.4 380.4 480.3 380.4 479.9 380.4 C 479.7 380.1 479.9 380.6 480.3 380.5 C 480.2 380.6 480.1 380.6 480.0 380.7 C 479.8 380.2 479.0 380.8 479.5 380.5 C 479.6 380.6 479.6 380.7 479.7 380.8 C 479.8 380.6 480.8 380.9 480.5 381.0 C 480.5 381.0 480.5 381.0 480.5 381.0 Z M 494.6 383.2 C 494.0 383.1 494.0 383.1 493.4 383.0 C 493.4 382.9 493.5 382.8 493.6 382.8 C 493.5 382.7 493.3 382.7 493.1 382.8 C 493.1 382.8 493.2 382.8 493.2 382.8 C 493.6 383.0 493.2 383.0 493.1 383.2 C 493.6 383.5 494.2 383.1 494.4 383.5 C 494.6 383.4 494.3 383.3 494.6 383.2 C 494.6 383.2 494.6 383.2 494.6 383.2 Z M 428.4 371.5 C 428.3 371.6 428.1 371.5 428.1 371.7 C 428.3 371.7 428.5 371.7 428.7 371.6 C 428.3 371.5 428.4 371.2 427.9 371.1 C 428.1 371.3 428.0 371.5 428.4 371.5 C 428.4 371.5 428.4 371.5 428.4 371.5 Z M 479.1 380.6 C 479.2 380.5 479.2 380.4 479.3 380.4 C 479.4 380.2 478.9 380.3 479.0 380.1 C 478.8 380.1 478.8 380.2 478.6 380.2 C 478.7 380.3 479.1 380.4 478.9 380.6 C 478.8 380.6 478.7 380.5 478.7 380.5 C 478.4 380.5 478.9 380.7 479.1 380.6 C 479.1 380.6 479.1 380.6 479.1 380.6 Z M 455.9 376.5 C 456.1 376.5 456.0 376.4 455.8 376.4 C 456.3 376.2 455.6 375.9 455.7 375.7 C 455.8 375.9 456.4 375.9 456.5 376.0 C 456.6 376.0 456.5 375.7 456.9 375.7 C 456.9 375.5 456.4 375.6 456.5 375.8 C 456.4 375.5 455.9 375.8 456.0 375.5 C 455.4 375.3 455.2 375.5 455.1 375.7 C 455.7 375.7 455.3 376.1 455.9 376.1 C 455.9 376.2 455.7 376.1 455.6 376.1 C 455.6 376.3 455.8 376.4 455.9 376.5 C 455.9 376.5 455.9 376.5 455.9 376.5 Z M 470.5 379.1 C 470.8 379.1 470.8 378.9 470.8 378.8 C 470.7 378.8 470.5 378.8 470.3 378.7 C 470.3 378.9 470.7 378.9 470.5 379.1 C 470.5 379.1 470.5 379.1 470.5 379.1 Z M 458.2 376.6 C 458.2 376.7 458.4 376.7 458.4 376.6 C 458.7 376.7 458.8 376.8 458.9 377.0 C 459.1 377.0 459.0 376.8 459.1 376.7 C 458.7 376.8 458.8 376.5 458.4 376.5 C 458.4 376.6 458.3 376.6 458.2 376.6 C 458.2 376.6 458.2 376.6 458.2 376.6 Z M 467.6 378.4 C 467.7 378.4 467.7 378.4 467.6 378.3 C 467.8 378.1 468.4 378.4 468.6 378.4 C 468.7 378.2 467.9 378.1 468.8 378.1 C 468.7 377.9 467.9 378.0 467.5 377.8 C 467.7 377.6 468.2 377.8 468.2 377.5 C 467.7 377.5 467.2 377.6 467.1 377.9 C 467.7 378.1 467.5 378.2 467.6 378.4 C 467.6 378.4 467.6 378.4 467.6 378.4 Z M 466.9 378.1 C 466.9 378.3 467.1 378.1 467.3 378.2 C 467.0 377.9 466.8 377.9 466.1 377.8 C 466.1 377.8 466.1 377.9 466.1 377.9 C 465.9 377.9 465.8 377.9 465.7 377.8 C 466.2 378.2 466.4 378.1 467.1 378.1 C 467.1 378.2 467.0 378.2 466.9 378.1 C 466.9 378.1 466.9 378.1 466.9 378.1 Z M 485.6 381.4 C 485.5 381.3 485.3 381.1 485.0 381.0 C 485.0 381.2 485.2 381.4 485.6 381.4 C 485.6 381.4 485.6 381.4 485.6 381.4 Z M 457.7 376.4 C 457.3 376.4 458.1 376.4 457.9 376.1 C 457.6 376.0 457.3 375.9 457.3 375.6 C 456.6 375.8 457.8 376.1 457.7 376.4 C 457.7 376.4 457.7 376.4 457.7 376.4 Z M 460.3 376.2 C 460.5 376.3 460.4 376.7 460.3 376.4 C 459.9 376.3 460.6 376.7 460.0 376.5 C 460.2 376.7 460.8 376.9 461.1 376.8 C 461.1 376.6 460.6 376.6 460.6 376.4 C 460.6 376.3 460.7 376.3 460.7 376.3 C 460.7 376.2 460.6 376.3 460.3 376.2 C 460.3 376.2 460.3 376.2 460.3 376.2 Z M 462.3 377.0 C 462.1 376.8 461.9 376.7 461.4 376.6 C 461.7 376.8 461.8 377.1 462.3 377.0 C 462.3 377.0 462.3 377.0 462.3 377.0 Z M 436.0 372.0 C 436.3 372.1 436.1 371.8 436.0 371.7 C 435.7 371.6 435.7 371.8 435.3 371.7 C 435.4 372.0 435.8 371.7 436.0 372.0 C 436.0 372.0 436.0 372.0 436.0 372.0 Z M 434.8 371.7 C 434.7 371.5 434.2 371.5 434.2 371.3 C 433.9 371.7 433.6 370.9 433.5 371.3 C 433.4 371.2 433.3 371.2 433.1 371.1 C 433.4 371.6 434.3 371.6 434.8 371.7 C 434.8 371.7 434.8 371.7 434.8 371.7 Z M 464.8 377.0 C 465.2 377.1 464.8 376.6 465.1 376.7 C 465.2 376.6 464.5 376.4 464.9 376.4 C 464.4 376.1 464.9 376.9 464.8 377.0 C 464.8 377.0 464.8 377.0 464.8 377.0 Z M 471.7 377.9 C 471.6 378.1 472.2 378.1 472.4 378.1 C 472.4 378.1 472.2 378.0 472.1 378.0 C 472.2 377.9 472.3 377.9 472.4 377.9 C 472.3 377.7 471.9 377.9 471.7 377.9 C 471.7 377.9 471.7 377.9 471.7 377.9 Z M 463.4 380.9 C 463.2 380.7 462.9 380.4 462.7 380.7 C 462.5 380.5 462.9 380.5 462.6 380.3 C 462.2 380.4 462.4 380.1 461.8 380.2 C 462.0 379.9 461.5 379.8 461.4 379.6 C 461.7 379.6 462.0 380.0 462.2 379.7 C 461.9 379.7 462.1 379.5 462.2 379.7 C 462.6 379.9 461.6 379.9 462.1 380.1 C 462.3 379.8 462.9 380.5 463.4 380.6 C 463.2 380.8 463.8 381.0 463.4 380.9 C 463.4 380.9 463.4 380.9 463.4 380.9 Z M 461.0 380.0 C 460.6 380.0 460.5 379.4 460.6 379.5 C 460.6 379.6 461.0 379.6 461.0 379.5 C 460.9 379.5 460.9 379.5 460.9 379.4 C 461.5 379.6 461.3 379.7 461.4 379.9 C 461.0 380.0 461.0 379.8 460.8 379.9 C 460.9 379.9 461.0 380.0 461.0 380.0 C 461.0 380.0 461.0 380.0 461.0 380.0 Z M 454.2 374.8 C 454.3 374.9 454.4 374.8 454.5 374.7 C 454.5 375.1 455.3 374.8 455.4 375.0 C 455.2 375.1 454.8 375.0 454.6 375.1 C 454.8 375.1 454.8 375.2 455.0 375.2 C 455.0 375.4 454.5 375.3 454.4 375.4 C 454.4 375.3 454.2 375.5 454.1 375.3 C 454.7 375.3 453.9 374.7 454.2 374.8 C 454.2 374.8 454.2 374.8 454.2 374.8 Z M 468.1 377.2 C 468.2 377.0 467.7 376.3 468.3 376.1 C 468.4 376.3 468.4 376.6 468.3 376.8 C 468.7 376.7 468.8 377.0 469.0 376.8 C 469.5 377.6 468.5 376.6 468.1 377.2 C 468.1 377.2 468.1 377.2 468.1 377.2 Z M 470.4 377.4 C 470.2 377.6 470.5 377.6 470.4 377.8 C 470.2 377.6 469.3 377.7 469.6 377.6 C 469.9 377.5 469.9 377.3 470.4 377.4 C 470.4 377.4 470.4 377.4 470.4 377.4 Z M 527.6 389.7 C 527.1 389.8 527.0 389.3 527.2 389.2 C 527.1 389.4 527.8 389.4 527.6 389.7 C 527.6 389.7 527.6 389.7 527.6 389.7 Z M 510.7 390.6 C 511.1 390.8 511.3 390.7 511.3 390.9 C 510.9 390.9 511.0 390.8 510.7 390.7 C 510.6 390.8 510.4 390.9 510.4 390.8 C 510.6 390.8 510.6 390.6 510.7 390.6 C 510.7 390.6 510.7 390.6 510.7 390.6 Z M 477.9 384.5 C 477.9 384.6 478.1 384.7 478.0 384.8 C 477.6 384.6 477.1 384.7 476.7 384.8 C 476.7 384.7 476.7 384.6 476.7 384.5 C 477.4 384.7 477.6 384.6 477.9 384.5 C 477.9 384.5 477.9 384.5 477.9 384.5 Z M 478.7 385.1 C 478.7 385.0 478.6 384.7 478.9 384.7 C 478.8 384.9 479.3 385.2 479.1 385.2 C 479.0 385.1 478.9 385.0 478.7 385.1 C 478.7 385.1 478.7 385.1 478.7 385.1 Z M 455.4 379.7 C 455.0 379.6 455.5 379.9 455.5 380.0 C 455.2 379.9 454.9 379.9 454.8 379.7 C 455.0 379.8 455.3 379.5 455.4 379.7 C 455.4 379.7 455.4 379.7 455.4 379.7 Z M 460.7 380.0 C 461.4 380.1 461.0 380.5 461.7 380.7 C 461.4 380.8 460.7 380.7 460.5 380.8 C 460.6 380.7 460.4 380.6 460.4 380.5 C 460.7 380.5 460.7 380.6 461.0 380.7 C 460.9 380.4 460.9 380.5 461.0 380.3 C 460.9 380.2 460.7 380.3 460.6 380.3 C 460.7 380.2 460.4 380.0 460.7 380.0 C 460.7 380.0 460.7 380.0 460.7 380.0 Z M 455.6 379.1 C 455.3 379.1 455.2 378.7 455.4 378.8 C 455.4 378.9 455.6 378.8 455.7 378.9 C 455.2 378.9 456.0 379.1 455.7 379.3 C 455.5 379.2 455.4 379.3 455.4 379.4 C 455.3 379.4 455.0 379.4 455.0 379.3 C 455.1 379.3 455.3 379.3 455.3 379.3 C 455.2 379.3 455.1 379.2 455.2 379.2 C 455.4 379.2 455.6 379.2 455.6 379.1 C 455.6 379.1 455.6 379.1 455.6 379.1 Z M 457.6 379.4 C 457.2 379.3 457.2 379.1 457.1 378.9 C 457.6 379.1 457.6 379.4 458.0 379.7 C 457.6 379.5 457.1 379.8 457.0 379.6 C 457.2 379.5 457.5 379.6 457.6 379.4 C 457.6 379.4 457.6 379.4 457.6 379.4 Z M 563.7 397.6 C 563.3 397.5 563.1 397.2 562.8 397.1 C 562.6 397.3 563.2 397.9 562.9 397.7 C 562.5 397.6 562.9 397.4 562.6 397.3 C 562.8 397.7 561.2 397.4 561.2 397.0 C 561.4 397.1 561.5 397.0 561.5 396.8 C 562.1 397.0 562.4 396.8 562.9 396.9 C 563.2 397.2 564.3 397.5 564.9 397.3 C 565.2 397.8 565.9 397.4 566.4 397.9 C 566.5 397.8 566.0 397.5 566.4 397.6 C 566.6 397.9 566.4 397.9 566.7 398.1 C 566.8 398.0 566.7 397.8 566.9 397.8 C 566.9 398.0 567.1 398.0 567.2 398.1 C 566.4 397.9 567.2 398.4 566.6 398.4 C 566.3 398.2 566.9 398.0 566.2 397.9 C 565.9 398.0 565.7 398.0 565.7 398.2 C 565.5 398.2 565.4 398.2 565.3 398.3 C 565.6 398.0 564.3 398.2 564.9 397.9 C 564.9 397.9 565.3 398.0 565.6 398.0 C 565.4 397.7 565.1 397.8 564.6 397.8 C 564.5 397.6 564.8 397.6 564.6 397.5 C 564.2 397.6 564.6 397.8 564.3 397.9 C 564.4 398.0 564.6 398.0 564.6 398.0 C 564.1 397.7 563.8 397.9 563.5 397.9 C 563.7 397.7 563.2 397.6 563.7 397.6 C 563.7 397.6 563.7 397.6 563.7 397.6 Z M 568.8 398.2 C 568.9 398.2 569.0 398.3 569.2 398.3 C 569.2 398.5 568.6 398.5 568.9 398.7 C 568.3 398.6 569.0 398.4 568.8 398.2 C 568.8 398.2 568.8 398.2 568.8 398.2 Z M 566.1 396.9 C 566.0 396.6 566.0 397.1 565.8 397.1 C 566.1 397.1 566.4 397.1 566.4 397.4 C 566.1 397.2 565.9 397.2 565.5 397.2 C 565.9 396.9 565.1 396.9 565.0 396.6 C 565.3 396.6 565.6 396.5 566.0 396.6 C 565.9 396.7 566.5 396.9 566.1 396.9 C 566.1 396.9 566.1 396.9 566.1 396.9 Z M 567.3 396.7 C 567.3 396.9 568.0 396.9 567.8 397.1 C 567.4 397.0 567.3 397.1 567.3 397.3 C 567.0 397.3 567.0 397.2 566.8 397.1 C 566.7 396.8 567.1 396.9 567.3 396.8 C 567.2 396.8 567.1 396.7 567.3 396.7 C 567.3 396.7 567.3 396.7 567.3 396.7 Z M 425.3 370.2 C 425.4 370.5 424.9 370.2 424.8 370.1 C 424.9 370.4 424.8 370.5 424.4 370.5 C 424.6 370.2 424.1 370.2 423.8 369.8 C 423.7 370.0 424.1 370.2 423.6 370.2 C 423.3 370.0 422.9 370.1 422.3 370.0 C 422.3 369.8 422.5 369.8 422.7 369.7 C 422.3 369.7 422.4 369.5 422.2 369.4 C 422.2 369.6 421.9 369.6 421.9 369.5 C 422.4 369.5 421.3 369.1 421.8 369.0 C 421.8 369.1 421.9 369.1 422.1 369.1 C 421.9 369.4 422.6 369.4 422.7 369.6 C 423.1 369.1 423.8 369.4 424.6 369.8 C 424.6 369.9 424.3 369.9 424.5 370.0 C 424.6 369.9 424.8 370.0 425.0 369.9 C 424.9 370.1 425.0 370.1 425.2 370.2 C 425.2 370.2 425.2 370.1 425.3 370.2 C 425.3 370.2 425.3 370.2 425.3 370.2 Z M 541.2 391.0 C 541.3 390.6 540.3 390.7 540.1 390.7 C 540.2 390.3 541.8 390.7 541.2 391.0 C 541.2 391.0 541.2 391.0 541.2 391.0 Z M 546.7 391.6 C 546.5 391.6 546.6 391.8 546.4 391.8 C 546.4 391.6 545.8 392.0 545.8 391.7 C 546.1 391.6 546.3 391.6 546.7 391.6 C 546.7 391.6 546.7 391.6 546.7 391.6 Z M 551.7 392.6 C 551.3 392.6 551.9 392.8 551.8 392.9 C 551.5 392.8 551.1 392.7 551.2 392.5 C 551.5 392.7 551.7 392.4 551.7 392.6 C 551.7 392.6 551.7 392.6 551.7 392.6 Z M 544.2 391.0 C 543.9 390.8 544.5 390.6 544.5 390.8 C 544.2 390.8 544.7 391.0 545.1 391.0 C 545.0 391.3 544.9 391.2 545.0 391.5 C 544.5 391.5 545.0 391.2 544.6 391.2 C 544.3 391.3 544.6 391.3 544.5 391.5 C 544.4 391.5 544.3 391.5 544.1 391.4 C 544.2 391.3 544.2 391.2 544.2 391.0 C 544.4 391.1 544.5 391.1 544.5 390.9 C 544.4 390.9 544.3 391.0 544.2 391.0 C 544.2 391.0 544.2 391.0 544.2 391.0 Z M 418.2 368.4 C 417.9 368.4 418.1 368.5 418.3 368.6 C 418.3 368.5 418.5 368.1 418.7 368.4 C 418.2 368.4 418.8 368.7 418.5 368.8 C 418.4 368.5 418.1 368.8 417.8 368.7 C 417.7 368.5 418.1 368.2 418.2 368.4 C 418.2 368.4 418.2 368.4 418.2 368.4 Z M 419.1 368.7 C 419.1 368.7 419.0 368.6 418.8 368.6 C 419.1 368.4 418.8 368.4 419.0 368.3 C 419.0 368.4 419.7 368.6 419.3 368.6 C 418.9 368.4 419.4 368.8 419.5 368.8 C 419.3 368.8 419.0 369.0 418.9 368.8 C 419.0 368.8 419.1 368.8 419.1 368.7 C 419.1 368.7 419.1 368.7 419.1 368.7 Z M 428.2 370.0 C 428.3 369.9 428.1 369.8 428.0 369.7 C 428.7 369.9 429.3 370.0 429.7 370.1 C 429.4 370.1 429.3 370.3 429.5 370.4 C 429.2 370.2 429.0 370.4 428.9 370.2 C 429.3 370.1 428.7 370.1 428.2 370.0 C 428.2 370.0 428.2 370.0 428.2 370.0 Z M 428.2 370.0 " fill="#000000"></path></g></svg>