<?xml version="1.0" encoding="UTF-8" standalone="no"?><svg xmlns="http://www.w3.org/2000/svg" xmlns:xlink="http://www.w3.org/1999/xlink" clip-rule="evenodd" stroke-miterlimit="4.00" viewBox="0 0 1024 768"><desc>SVG generated by Keynote</desc><defs></defs><g transform="matrix(1.00, 0.00, -0.00, -1.00, 0.0, 768.0)"><g><clipPath id="clip-277"><path d="M 0.0 768.0 L 1024.0 768.0 L 1024.0 0.0 L 0.0 0.0 Z M 0.0 768.0 "></path></clipPath><g clip-path="url(#clip-277)"><image xlink:href="../../86BB661C-AAFE-46F2-89B5-B98D6D644DD8/assets/DE78B55DDE70D88C6FF874E8D33A46A3.jpeg" width="1024.00" height="768.00" transform="matrix(1.00, 0.00, -0.00, -1.00, 0.0, 768.0)"></image></g></g><image xlink:href="../../86BB661C-AAFE-46F2-89B5-B98D6D644DD8/assets/610DE41026624E3AEF638D24E71EF355.png" width="74.00" height="62.00" transform="matrix(1.00, 0.00, -0.00, -1.00, 949.0, 64.0)"></image><image xlink:href="../../86BB661C-AAFE-46F2-89B5-B98D6D644DD8/assets/C79B4846A618BF06956E5E1178655E37.png" width="40.00" height="40.00" transform="matrix(1.00, 0.00, -0.00, -1.01, 966.2, 53.0)" opacity="0.50"></image><g><clipPath id="clip-278"><path d="M 996.7 43.5 C 1002.5 37.6 1002.5 28.0 996.7 22.0 C 990.9 16.1 981.4 16.1 975.6 22.0 C 969.7 28.0 969.7 37.6 975.6 43.5 C 981.4 49.5 990.9 49.5 996.7 43.5 Z M 996.7 43.5 "></path></clipPath><g clip-path="url(#clip-278)"><image xlink:href="../../86BB661C-AAFE-46F2-89B5-B98D6D644DD8/assets/DE78B55DDE70D88C6FF874E8D33A46A3.jpeg" width="1024.00" height="768.00" transform="matrix(0.04, 0.00, -0.00, -0.04, 965.9, 48.0)"></image></g></g><text xml:space="preserve" font-family="HoboStd" font-size="18.0" fill="#E5CC77" transform="matrix(1.00, 0.00, -0.00, -1.00, 976.0, 26.0)">4</text><text xml:space="preserve" font-family="HoboStd" font-size="18.0" fill="#E5CC77" transform="matrix(1.00, 0.00, -0.00, -1.00, 986.4, 26.0)">5</text><g><clipPath id="clip-279"><path d="M 717.7 421.7 L 804.6 421.7 L 804.6 536.1 L 717.7 536.1 Z M 717.7 421.7 "></path></clipPath><g clip-path="url(#clip-279)"><image xlink:href="../../74A6F468-518A-4803-BCF5-8806AB2EFF65/assets/A14A10A9BF752EBB344FC720146687D3.png" width="85.00" height="112.00" transform="matrix(1.00, 0.00, -0.00, -1.00, 718.7, 535.1)" opacity="0.50"></image><path d="M 785.6 529.8 L 798.1 514.5 L 797.9 434.6 C 799.0 432.8 798.7 430.5 797.2 429.0 C 796.1 427.9 794.4 427.4 792.9 427.9 L 730.9 427.9 C 729.4 428.4 728.1 429.3 727.0 430.4 C 725.9 431.4 725.1 432.8 724.5 434.2 C 724.1 435.6 723.9 436.9 723.8 438.5 C 723.7 440.1 723.7 442.0 723.7 444.5 L 724.5 523.8 C 724.4 525.4 725.0 527.0 726.1 528.2 C 727.3 529.5 729.1 530.2 730.9 530.1 L 785.6 529.8 Z M 785.6 529.8 " fill="#EAEAEA"></path></g></g><g><clipPath id="clip-280"><path d="M 703.6 424.7 L 812.2 424.7 L 812.2 533.3 L 703.6 533.3 Z M 703.6 424.7 "></path></clipPath><g clip-path="url(#clip-280)"><image xlink:href="../../74A6F468-518A-4803-BCF5-8806AB2EFF65/assets/30BDB59357BC950F00B729E4DA28C73E.png" width="109.00" height="109.00" transform="matrix(0.99, 0.00, -0.00, -0.99, 704.0, 533.0)"></image></g></g><g><clipPath id="clip-281"><path d="M 734.6 442.8 L 787.6 442.8 L 787.6 487.5 L 734.6 487.5 Z M 734.6 442.8 "></path></clipPath><g clip-path="url(#clip-281)"><image xlink:href="../../86BB661C-AAFE-46F2-89B5-B98D6D644DD8/assets/610DE41026624E3AEF638D24E71EF355.png" width="74.00" height="62.00" transform="matrix(0.72, 0.00, -0.00, -0.71, 735.0, 487.0)"></image></g></g><image xlink:href="../../6C9DFC15-0176-4E52-9621-CC16FC0BB74E/assets/EEC92241F8E59D77E677633C5272992A.png" width="372.00" height="540.00" transform="matrix(0.98, 0.00, -0.00, -0.98, 156.0, 742.0)"></image><image xlink:href="../../74A6F468-518A-4803-BCF5-8806AB2EFF65/assets/A3BE195478F5157A28EC52C5E159112E.png" width="409.00" height="578.00" transform="matrix(1.00, 0.00, -0.00, 1.00, 134.0, 190.0)"></image><text xml:space="preserve" font-family="Chalkduster" font-size="20.0" fill="#FEFFFE" transform="matrix(1.00, 0.00, -0.00, -1.00, 723.0, 384.0)">d</text><text xml:space="preserve" font-family="Chalkduster" font-size="20.0" fill="#FEFFFE" transform="matrix(1.00, 0.00, -0.00, -1.00, 738.6, 384.0)">e</text><text xml:space="preserve" font-family="Chalkduster" font-size="20.0" fill="#FEFFFE" transform="matrix(1.00, 0.00, -0.00, -1.00, 750.6, 384.0)">f</text><text xml:space="preserve" font-family="Chalkduster" font-size="20.0" fill="#FEFFFE" transform="matrix(1.00, 0.00, -0.00, -1.00, 761.2, 384.0)"> </text><text xml:space="preserve" font-family="Chalkduster" font-size="20.0" fill="#FEFFFE" transform="matrix(1.00, 0.00, -0.00, -1.00, 771.1, 384.0)">f</text><text xml:space="preserve" font-family="Chalkduster" font-size="20.0" fill="#FEFFFE" transform="matrix(1.00, 0.00, -0.00, -1.00, 781.8, 384.0)">u</text><text xml:space="preserve" font-family="Chalkduster" font-size="20.0" fill="#FEFFFE" transform="matrix(1.00, 0.00, -0.00, -1.00, 795.8, 384.0)">n</text><text xml:space="preserve" font-family="Chalkduster" font-size="20.0" fill="#FEFFFE" transform="matrix(1.00, 0.00, -0.00, -1.00, 810.5, 384.0)">c</text><text xml:space="preserve" font-family="Chalkduster" font-size="20.0" fill="#FEFFFE" transform="matrix(1.00, 0.00, -0.00, -1.00, 823.0, 384.0)">1</text><text xml:space="preserve" font-family="Chalkduster" font-size="20.0" fill="#FEFFFE" transform="matrix(1.00, 0.00, -0.00, -1.00, 835.1, 384.0)">(</text><text xml:space="preserve" font-family="Chalkduster" font-size="20.0" fill="#FEFFFE" transform="matrix(1.00, 0.00, -0.00, -1.00, 843.9, 384.0)">)</text><text xml:space="preserve" font-family="Chalkduster" font-size="20.0" fill="#FEFFFE" transform="matrix(1.00, 0.00, -0.00, -1.00, 853.9, 384.0)">:</text><text xml:space="preserve" font-family="Chalkduster" font-size="20.0" fill="#FEFFFE" transform="matrix(1.00, 0.00, -0.00, -1.00, 860.5, 384.0)"> </text><text xml:space="preserve" font-family="Chalkduster" font-size="20.0" fill="#FEFFFE" transform="matrix(1.00, 0.00, -0.00, -1.00, 723.0, 353.0)">.</text><text xml:space="preserve" font-family="Chalkduster" font-size="20.0" fill="#FEFFFE" transform="matrix(1.00, 0.00, -0.00, -1.00, 728.1, 353.0)">.</text><text xml:space="preserve" font-family="Chalkduster" font-size="20.0" fill="#FEFFFE" transform="matrix(1.00, 0.00, -0.00, -1.00, 733.1, 353.0)">.</text><text xml:space="preserve" font-family="Chalkduster" font-size="20.0" fill="#FEFFFE" transform="matrix(1.00, 0.00, -0.00, -1.00, 738.8, 353.0)"> </text><text xml:space="preserve" font-family="Chalkduster" font-size="20.0" fill="#FEFFFE" transform="matrix(1.00, 0.00, -0.00, -1.00, 723.0, 322.0)">.</text><text xml:space="preserve" font-family="Chalkduster" font-size="20.0" fill="#FEFFFE" transform="matrix(1.00, 0.00, -0.00, -1.00, 728.1, 322.0)">.</text><text xml:space="preserve" font-family="Chalkduster" font-size="20.0" fill="#FEFFFE" transform="matrix(1.00, 0.00, -0.00, -1.00, 733.1, 322.0)">.</text><text xml:space="preserve" font-family="Chalkduster" font-size="20.0" fill="#FEFFFE" transform="matrix(1.00, 0.00, -0.00, -1.00, 738.8, 322.0)"> </text><text xml:space="preserve" font-family="Chalkduster" font-size="20.0" fill="#FEFFFE" transform="matrix(1.00, 0.00, -0.00, -1.00, 723.0, 291.0)">d</text><text xml:space="preserve" font-family="Chalkduster" font-size="20.0" fill="#FEFFFE" transform="matrix(1.00, 0.00, -0.00, -1.00, 738.6, 291.0)">e</text><text xml:space="preserve" font-family="Chalkduster" font-size="20.0" fill="#FEFFFE" transform="matrix(1.00, 0.00, -0.00, -1.00, 750.6, 291.0)">f</text><text xml:space="preserve" font-family="Chalkduster" font-size="20.0" fill="#FEFFFE" transform="matrix(1.00, 0.00, -0.00, -1.00, 761.2, 291.0)"> </text><text xml:space="preserve" font-family="Chalkduster" font-size="20.0" fill="#FEFFFE" transform="matrix(1.00, 0.00, -0.00, -1.00, 771.1, 291.0)">f</text><text xml:space="preserve" font-family="Chalkduster" font-size="20.0" fill="#FEFFFE" transform="matrix(1.00, 0.00, -0.00, -1.00, 781.8, 291.0)">u</text><text xml:space="preserve" font-family="Chalkduster" font-size="20.0" fill="#FEFFFE" transform="matrix(1.00, 0.00, -0.00, -1.00, 795.8, 291.0)">n</text><text xml:space="preserve" font-family="Chalkduster" font-size="20.0" fill="#FEFFFE" transform="matrix(1.00, 0.00, -0.00, -1.00, 810.5, 291.0)">c</text><text xml:space="preserve" font-family="Chalkduster" font-size="20.0" fill="#FEFFFE" transform="matrix(1.00, 0.00, -0.00, -1.00, 823.0, 291.0)">2</text><text xml:space="preserve" font-family="Chalkduster" font-size="20.0" fill="#FEFFFE" transform="matrix(1.00, 0.00, -0.00, -1.00, 834.3, 291.0)">(</text><text xml:space="preserve" font-family="Chalkduster" font-size="20.0" fill="#FEFFFE" transform="matrix(1.00, 0.00, -0.00, -1.00, 842.1, 291.0)">a</text><text xml:space="preserve" font-family="Chalkduster" font-size="20.0" fill="#FEFFFE" transform="matrix(1.00, 0.00, -0.00, -1.00, 854.8, 291.0)">r</text><text xml:space="preserve" font-family="Chalkduster" font-size="20.0" fill="#FEFFFE" transform="matrix(1.00, 0.00, -0.00, -1.00, 865.0, 291.0)">g</text><text xml:space="preserve" font-family="Chalkduster" font-size="20.0" fill="#FEFFFE" transform="matrix(1.00, 0.00, -0.00, -1.00, 878.7, 291.0)">1</text><text xml:space="preserve" font-family="Chalkduster" font-size="20.0" fill="#FEFFFE" transform="matrix(1.00, 0.00, -0.00, -1.00, 890.8, 291.0)">,</text><text xml:space="preserve" font-family="Chalkduster" font-size="20.0" fill="#FEFFFE" transform="matrix(1.00, 0.00, -0.00, -1.00, 897.0, 291.0)">a</text><text xml:space="preserve" font-family="Chalkduster" font-size="20.0" fill="#FEFFFE" transform="matrix(1.00, 0.00, -0.00, -1.00, 909.7, 291.0)">r</text><text xml:space="preserve" font-family="Chalkduster" font-size="20.0" fill="#FEFFFE" transform="matrix(1.00, 0.00, -0.00, -1.00, 919.9, 291.0)">g</text><text xml:space="preserve" font-family="Chalkduster" font-size="20.0" fill="#FEFFFE" transform="matrix(1.00, 0.00, -0.00, -1.00, 933.6, 291.0)">2</text><text xml:space="preserve" font-family="Chalkduster" font-size="20.0" fill="#FEFFFE" transform="matrix(1.00, 0.00, -0.00, -1.00, 944.8, 291.0)">)</text><text xml:space="preserve" font-family="Chalkduster" font-size="20.0" fill="#FEFFFE" transform="matrix(1.00, 0.00, -0.00, -1.00, 954.9, 291.0)">:</text><text xml:space="preserve" font-family="Chalkduster" font-size="20.0" fill="#FEFFFE" transform="matrix(1.00, 0.00, -0.00, -1.00, 961.5, 291.0)"> </text><text xml:space="preserve" font-family="Chalkduster" font-size="20.0" fill="#FEFFFE" transform="matrix(1.00, 0.00, -0.00, -1.00, 723.0, 260.0)">.</text><text xml:space="preserve" font-family="Chalkduster" font-size="20.0" fill="#FEFFFE" transform="matrix(1.00, 0.00, -0.00, -1.00, 728.1, 260.0)">.</text><text xml:space="preserve" font-family="Chalkduster" font-size="20.0" fill="#FEFFFE" transform="matrix(1.00, 0.00, -0.00, -1.00, 733.1, 260.0)">.</text><text xml:space="preserve" font-family="Chalkduster" font-size="30.0" fill="#FEFFFE" transform="matrix(1.00, 0.00, -0.00, -1.00, 726.0, 558.0)">e</text><text xml:space="preserve" font-family="Chalkduster" font-size="30.0" fill="#FEFFFE" transform="matrix(1.00, 0.00, -0.00, -1.00, 743.7, 558.0)">x</text><text xml:space="preserve" font-family="Chalkduster" font-size="30.0" fill="#FEFFFE" transform="matrix(1.00, 0.00, -0.00, -1.00, 762.7, 558.0)">t</text><text xml:space="preserve" font-family="Chalkduster" font-size="30.0" fill="#FEFFFE" transform="matrix(1.00, 0.00, -0.00, -1.00, 776.4, 558.0)">r</text><text xml:space="preserve" font-family="Chalkduster" font-size="30.0" fill="#FEFFFE" transform="matrix(1.00, 0.00, -0.00, -1.00, 792.2, 558.0)">a</text><text xml:space="preserve" font-family="Chalkduster" font-size="30.0" fill="#FEFFFE" transform="matrix(1.00, 0.00, -0.00, -1.00, 812.9, 558.0)">.</text><text xml:space="preserve" font-family="Chalkduster" font-size="30.0" fill="#FEFFFE" transform="matrix(1.00, 0.00, -0.00, -1.00, 821.5, 558.0)">p</text><text xml:space="preserve" font-family="Chalkduster" font-size="30.0" fill="#FEFFFE" transform="matrix(1.00, 0.00, -0.00, -1.00, 840.0, 558.0)">y</text><path d="M 164.1 91.7 L 859.9 91.7 L 859.9 20.7 L 164.1 20.7 Z M 164.1 91.7 " fill="#FEFFFE"></path><image xlink:href="../../83266095-0D9F-4024-985E-B7387C9B402D/assets/5FBF2CBDDFAB56B517F86D25F7FA0D86.png" width="740.00" height="121.00" transform="matrix(1.00, 0.00, -0.00, 1.00, 142.1, -3.3)"></image><g><clipPath id="clip-282"><path d="M 161.6 21.7 L 862.4 21.7 L 862.4 90.7 L 161.6 90.7 Z M 161.6 21.7 "></path></clipPath><g clip-path="url(#clip-282)"><text xml:space="preserve" font-family="Courier-Bold" font-weight="bold" font-size="30.0" fill="#008E00" transform="matrix(1.00, 0.00, -0.00, -1.00, 199.0, 45.0)">f</text><text xml:space="preserve" font-family="Courier-Bold" font-weight="bold" font-size="30.0" fill="#008E00" transform="matrix(1.00, 0.00, -0.00, -1.00, 217.0, 45.0)">r</text><text xml:space="preserve" font-family="Courier-Bold" font-weight="bold" font-size="30.0" fill="#008E00" transform="matrix(1.00, 0.00, -0.00, -1.00, 235.0, 45.0)">o</text><text xml:space="preserve" font-family="Courier-Bold" font-weight="bold" font-size="30.0" fill="#008E00" transform="matrix(1.00, 0.00, -0.00, -1.00, 253.0, 45.0)">m</text><text xml:space="preserve" font-family="Courier" font-size="30.0" fill="#000000" transform="matrix(1.00, 0.00, -0.00, -1.00, 271.0, 45.0)"> </text><text xml:space="preserve" font-family="Courier-Bold" font-weight="bold" font-size="30.0" fill="#0432FF" transform="matrix(1.00, 0.00, -0.00, -1.00, 289.0, 45.0)">e</text><text xml:space="preserve" font-family="Courier-Bold" font-weight="bold" font-size="30.0" fill="#0432FF" transform="matrix(1.00, 0.00, -0.00, -1.00, 307.0, 45.0)">x</text><text xml:space="preserve" font-family="Courier-Bold" font-weight="bold" font-size="30.0" fill="#0432FF" transform="matrix(1.00, 0.00, -0.00, -1.00, 325.0, 45.0)">t</text><text xml:space="preserve" font-family="Courier-Bold" font-weight="bold" font-size="30.0" fill="#0432FF" transform="matrix(1.00, 0.00, -0.00, -1.00, 343.0, 45.0)">r</text><text xml:space="preserve" font-family="Courier-Bold" font-weight="bold" font-size="30.0" fill="#0432FF" transform="matrix(1.00, 0.00, -0.00, -1.00, 361.0, 45.0)">a</text><text xml:space="preserve" font-family="Courier" font-size="30.0" fill="#000000" transform="matrix(1.00, 0.00, -0.00, -1.00, 379.0, 45.0)"> </text><text xml:space="preserve" font-family="Courier-Bold" font-weight="bold" font-size="30.0" fill="#008E00" transform="matrix(1.00, 0.00, -0.00, -1.00, 397.0, 45.0)">i</text><text xml:space="preserve" font-family="Courier-Bold" font-weight="bold" font-size="30.0" fill="#008E00" transform="matrix(1.00, 0.00, -0.00, -1.00, 415.0, 45.0)">m</text><text xml:space="preserve" font-family="Courier-Bold" font-weight="bold" font-size="30.0" fill="#008E00" transform="matrix(1.00, 0.00, -0.00, -1.00, 433.0, 45.0)">p</text><text xml:space="preserve" font-family="Courier-Bold" font-weight="bold" font-size="30.0" fill="#008E00" transform="matrix(1.00, 0.00, -0.00, -1.00, 451.0, 45.0)">o</text><text xml:space="preserve" font-family="Courier-Bold" font-weight="bold" font-size="30.0" fill="#008E00" transform="matrix(1.00, 0.00, -0.00, -1.00, 469.1, 45.0)">r</text><text xml:space="preserve" font-family="Courier-Bold" font-weight="bold" font-size="30.0" fill="#008E00" transform="matrix(1.00, 0.00, -0.00, -1.00, 487.1, 45.0)">t</text><text xml:space="preserve" font-family="Courier" font-size="30.0" fill="#000000" transform="matrix(1.00, 0.00, -0.00, -1.00, 505.0, 45.0)"> </text><text xml:space="preserve" font-family="Courier" font-size="30.0" fill="#000000" transform="matrix(1.00, 0.00, -0.00, -1.00, 523.1, 45.0)">f</text><text xml:space="preserve" font-family="Courier" font-size="30.0" fill="#000000" transform="matrix(1.00, 0.00, -0.00, -1.00, 541.1, 45.0)">u</text><text xml:space="preserve" font-family="Courier" font-size="30.0" fill="#000000" transform="matrix(1.00, 0.00, -0.00, -1.00, 559.1, 45.0)">n</text><text xml:space="preserve" font-family="Courier" font-size="30.0" fill="#000000" transform="matrix(1.00, 0.00, -0.00, -1.00, 577.1, 45.0)">c</text><text xml:space="preserve" font-family="Courier" font-size="30.0" fill="#000000" transform="matrix(1.00, 0.00, -0.00, -1.00, 595.1, 45.0)">1</text><text xml:space="preserve" font-family="Courier" font-size="30.0" fill="#000000" transform="matrix(1.00, 0.00, -0.00, -1.00, 613.1, 45.0)"> </text><text xml:space="preserve" font-family="Courier-Bold" font-weight="bold" font-size="30.0" fill="#008E00" transform="matrix(1.00, 0.00, -0.00, -1.00, 631.1, 45.0)">a</text><text xml:space="preserve" font-family="Courier-Bold" font-weight="bold" font-size="30.0" fill="#008E00" transform="matrix(1.00, 0.00, -0.00, -1.00, 649.1, 45.0)">s</text><text xml:space="preserve" font-family="Courier" font-size="30.0" fill="#000000" transform="matrix(1.00, 0.00, -0.00, -1.00, 667.1, 45.0)"> </text><text xml:space="preserve" font-family="Courier" font-size="30.0" fill="#000000" transform="matrix(1.00, 0.00, -0.00, -1.00, 685.1, 45.0)">t</text><text xml:space="preserve" font-family="Courier" font-size="30.0" fill="#000000" transform="matrix(1.00, 0.00, -0.00, -1.00, 703.1, 45.0)">h</text><text xml:space="preserve" font-family="Courier" font-size="30.0" fill="#000000" transform="matrix(1.00, 0.00, -0.00, -1.00, 721.1, 45.0)">e</text><text xml:space="preserve" font-family="Courier" font-size="30.0" fill="#000000" transform="matrix(1.00, 0.00, -0.00, -1.00, 739.1, 45.0)">_</text><text xml:space="preserve" font-family="Courier" font-size="30.0" fill="#000000" transform="matrix(1.00, 0.00, -0.00, -1.00, 757.1, 45.0)">f</text><text xml:space="preserve" font-family="Courier" font-size="30.0" fill="#000000" transform="matrix(1.00, 0.00, -0.00, -1.00, 775.1, 45.0)">u</text><text xml:space="preserve" font-family="Courier" font-size="30.0" fill="#000000" transform="matrix(1.00, 0.00, -0.00, -1.00, 793.1, 45.0)">n</text><text xml:space="preserve" font-family="Courier" font-size="30.0" fill="#000000" transform="matrix(1.00, 0.00, -0.00, -1.00, 811.1, 45.0)">c</text></g></g><path d="M 266.4 190.8 L 757.6 190.8 L 757.6 119.8 L 266.4 119.8 Z M 266.4 190.8 " fill="#FEFFFE"></path><image xlink:href="../../2E35211E-7E12-4B2E-8D80-674A10ED3426/assets/B017253E06E238DAECE66DFAC6BBAD19.png" width="535.00" height="121.00" transform="matrix(1.00, 0.00, -0.00, 1.00, 244.4, 95.8)"></image><g><clipPath id="clip-283"><path d="M 263.9 120.8 L 760.1 120.8 L 760.1 189.8 L 263.9 189.8 Z M 263.9 120.8 "></path></clipPath><g clip-path="url(#clip-283)"><text xml:space="preserve" font-family="Courier-Bold" font-weight="bold" font-size="30.0" fill="#008E00" transform="matrix(1.00, 0.00, -0.00, -1.00, 301.0, 144.0)">f</text><text xml:space="preserve" font-family="Courier-Bold" font-weight="bold" font-size="30.0" fill="#008E00" transform="matrix(1.00, 0.00, -0.00, -1.00, 319.0, 144.0)">r</text><text xml:space="preserve" font-family="Courier-Bold" font-weight="bold" font-size="30.0" fill="#008E00" transform="matrix(1.00, 0.00, -0.00, -1.00, 337.0, 144.0)">o</text><text xml:space="preserve" font-family="Courier-Bold" font-weight="bold" font-size="30.0" fill="#008E00" transform="matrix(1.00, 0.00, -0.00, -1.00, 355.0, 144.0)">m</text><text xml:space="preserve" font-family="Courier" font-size="30.0" fill="#000000" transform="matrix(1.00, 0.00, -0.00, -1.00, 373.0, 144.0)"> </text><text xml:space="preserve" font-family="Courier-Bold" font-weight="bold" font-size="30.0" fill="#0432FF" transform="matrix(1.00, 0.00, -0.00, -1.00, 391.0, 144.0)">e</text><text xml:space="preserve" font-family="Courier-Bold" font-weight="bold" font-size="30.0" fill="#0432FF" transform="matrix(1.00, 0.00, -0.00, -1.00, 409.0, 144.0)">x</text><text xml:space="preserve" font-family="Courier-Bold" font-weight="bold" font-size="30.0" fill="#0432FF" transform="matrix(1.00, 0.00, -0.00, -1.00, 427.0, 144.0)">t</text><text xml:space="preserve" font-family="Courier-Bold" font-weight="bold" font-size="30.0" fill="#0432FF" transform="matrix(1.00, 0.00, -0.00, -1.00, 445.0, 144.0)">r</text><text xml:space="preserve" font-family="Courier-Bold" font-weight="bold" font-size="30.0" fill="#0432FF" transform="matrix(1.00, 0.00, -0.00, -1.00, 463.0, 144.0)">a</text><text xml:space="preserve" font-family="Courier" font-size="30.0" fill="#000000" transform="matrix(1.00, 0.00, -0.00, -1.00, 481.0, 144.0)"> </text><text xml:space="preserve" font-family="Courier-Bold" font-weight="bold" font-size="30.0" fill="#008E00" transform="matrix(1.00, 0.00, -0.00, -1.00, 499.0, 144.0)">i</text><text xml:space="preserve" font-family="Courier-Bold" font-weight="bold" font-size="30.0" fill="#008E00" transform="matrix(1.00, 0.00, -0.00, -1.00, 517.0, 144.0)">m</text><text xml:space="preserve" font-family="Courier-Bold" font-weight="bold" font-size="30.0" fill="#008E00" transform="matrix(1.00, 0.00, -0.00, -1.00, 535.0, 144.0)">p</text><text xml:space="preserve" font-family="Courier-Bold" font-weight="bold" font-size="30.0" fill="#008E00" transform="matrix(1.00, 0.00, -0.00, -1.00, 553.0, 144.0)">o</text><text xml:space="preserve" font-family="Courier-Bold" font-weight="bold" font-size="30.0" fill="#008E00" transform="matrix(1.00, 0.00, -0.00, -1.00, 571.1, 144.0)">r</text><text xml:space="preserve" font-family="Courier-Bold" font-weight="bold" font-size="30.0" fill="#008E00" transform="matrix(1.00, 0.00, -0.00, -1.00, 589.1, 144.0)">t</text><text xml:space="preserve" font-family="Courier" font-size="30.0" fill="#000000" transform="matrix(1.00, 0.00, -0.00, -1.00, 607.0, 144.0)"> </text><text xml:space="preserve" font-family="Courier" font-size="30.0" fill="#000000" transform="matrix(1.00, 0.00, -0.00, -1.00, 625.1, 144.0)">f</text><text xml:space="preserve" font-family="Courier" font-size="30.0" fill="#000000" transform="matrix(1.00, 0.00, -0.00, -1.00, 643.1, 144.0)">u</text><text xml:space="preserve" font-family="Courier" font-size="30.0" fill="#000000" transform="matrix(1.00, 0.00, -0.00, -1.00, 661.1, 144.0)">n</text><text xml:space="preserve" font-family="Courier" font-size="30.0" fill="#000000" transform="matrix(1.00, 0.00, -0.00, -1.00, 679.1, 144.0)">c</text><text xml:space="preserve" font-family="Courier" font-size="30.0" fill="#000000" transform="matrix(1.00, 0.00, -0.00, -1.00, 697.1, 144.0)">1</text></g></g><path d="M 632.9 274.0 C 632.7 273.7 633.0 272.9 632.8 272.6 M 632.9 274.0 C 634.2 273.2 634.3 271.7 634.5 269.6 C 634.5 267.4 633.3 269.7 632.8 269.4 C 632.3 266.5 633.2 266.5 634.6 266.9 C 633.6 265.8 635.3 262.5 633.6 263.2 C 633.6 267.9 633.1 259.9 632.1 263.8 C 631.9 264.2 631.4 263.1 631.4 262.7 C 630.7 264.0 629.9 261.7 629.3 263.8 C 628.3 264.1 628.7 263.7 627.9 265.1 C 627.8 265.6 628.1 265.4 628.4 265.3 C 629.7 265.6 627.7 267.0 628.5 268.0 C 626.8 269.0 628.8 270.1 629.5 269.2 C 629.3 270.2 627.5 271.3 628.7 272.4 C 627.9 272.9 628.5 275.6 629.5 274.0 C 630.2 272.8 630.7 274.1 631.1 274.3 C 631.4 273.9 630.9 272.3 631.2 272.0 C 631.5 272.5 632.1 274.6 632.0 272.4 C 632.6 273.1 633.0 272.0 632.9 274.0 C 632.9 274.0 632.9 274.0 632.9 274.0 Z M 633.8 266.1 C 634.3 266.1 633.8 266.9 633.8 266.1 C 633.8 266.1 633.8 266.1 633.8 266.1 Z M 627.9 271.5 C 628.3 271.5 627.9 272.3 627.9 271.5 C 627.9 271.5 627.9 271.5 627.9 271.5 Z M 628.4 265.7 C 628.8 265.7 628.4 266.5 628.4 265.7 C 628.4 265.7 628.4 265.7 628.4 265.7 Z M 633.5 268.2 C 633.2 269.4 632.9 267.1 633.3 267.0 C 633.3 267.2 633.9 267.9 633.5 268.2 C 633.5 268.2 633.5 268.2 633.5 268.2 Z M 631.0 268.4 C 631.1 268.4 631.2 269.0 630.7 268.9 C 630.6 268.6 630.8 268.3 631.0 268.4 C 631.0 268.4 631.0 268.4 631.0 268.4 Z M 632.8 262.2 C 633.0 262.3 633.0 262.8 632.6 262.7 C 632.5 262.4 632.6 262.1 632.8 262.2 C 632.8 262.2 632.8 262.2 632.8 262.2 Z M 632.4 269.6 C 632.3 269.9 631.9 270.0 631.8 269.6 C 632.0 269.5 632.1 268.6 632.4 269.6 C 632.4 269.6 632.4 269.6 632.4 269.6 Z M 633.9 271.5 C 633.6 272.6 633.0 270.5 633.2 270.5 C 633.5 270.2 634.2 271.0 633.9 271.5 C 633.9 271.5 633.9 271.5 633.9 271.5 Z M 631.8 270.2 C 631.5 271.1 631.4 269.8 631.8 270.2 C 631.8 270.2 631.8 270.2 631.8 270.2 Z M 629.5 263.0 C 629.3 263.9 629.2 262.7 629.5 263.0 C 629.5 263.0 629.5 263.0 629.5 263.0 Z M 628.1 267.6 C 627.9 268.4 627.8 267.2 628.1 267.6 C 628.1 267.6 628.1 267.6 628.1 267.6 Z M 632.7 265.9 C 632.7 264.4 633.8 265.7 632.7 265.9 C 632.7 265.9 632.7 265.9 632.7 265.9 Z M 634.0 274.0 C 634.0 272.4 635.1 273.8 634.0 274.0 C 634.0 274.0 634.0 274.0 634.0 274.0 Z M 633.5 694.1 C 633.8 695.5 635.2 690.1 633.5 692.2 C 632.1 692.8 632.2 689.1 633.5 690.1 C 633.7 689.0 633.8 689.0 633.1 688.4 C 634.2 688.2 634.7 685.7 634.1 684.8 C 633.2 684.2 634.0 686.5 633.0 685.0 C 632.8 681.8 632.1 685.2 630.9 684.0 C 630.9 683.9 631.4 683.8 631.1 683.5 C 630.0 683.4 629.3 685.3 628.4 684.4 C 628.6 684.9 627.4 687.2 628.3 686.2 C 629.4 685.9 627.1 688.7 628.8 688.5 C 628.0 689.3 629.1 690.1 628.1 690.8 C 627.9 691.4 628.8 691.4 629.1 691.3 C 629.9 691.2 627.3 692.0 628.7 692.9 C 628.3 693.0 628.4 695.5 629.1 693.6 C 628.9 694.1 628.6 697.1 630.1 695.5 C 630.8 693.5 631.7 697.6 631.8 695.2 C 631.9 693.4 631.6 693.0 632.4 694.4 C 632.3 694.8 632.5 696.9 633.2 695.2 C 633.0 694.8 633.1 693.9 633.5 694.1 C 633.5 694.1 633.5 694.1 633.5 694.1 Z M 631.3 694.5 C 631.2 693.5 631.9 694.4 631.3 694.5 C 631.3 694.5 631.3 694.5 631.3 694.5 Z M 627.8 690.7 C 627.7 689.6 628.4 690.6 627.8 690.7 C 627.8 690.7 627.8 690.7 627.8 690.7 Z M 633.9 690.8 C 633.5 690.3 635.1 690.1 633.9 690.8 C 633.9 690.8 633.9 690.8 633.9 690.8 Z M 629.1 692.4 C 629.1 692.4 629.3 692.6 629.4 692.8 C 629.3 692.8 629.1 692.5 629.1 692.4 C 629.1 692.4 629.1 692.4 629.1 692.4 Z M 633.9 689.0 C 633.2 687.4 635.2 688.7 633.9 689.0 C 633.9 689.0 633.9 689.0 633.9 689.0 Z M 632.4 685.8 C 630.8 685.6 632.8 684.1 632.4 685.8 C 632.4 685.8 632.4 685.8 632.4 685.8 Z M 628.9 688.0 C 629.3 688.3 628.7 688.3 628.9 688.0 C 628.9 688.0 628.9 688.0 628.9 688.0 Z M 628.7 695.0 C 629.0 695.2 628.5 695.2 628.7 695.0 C 628.7 695.0 628.7 695.0 628.7 695.0 Z M 629.1 686.0 C 629.6 686.2 628.7 686.6 629.1 686.0 C 629.1 686.0 629.1 686.0 629.1 686.0 Z M 633.3 690.5 C 634.6 692.0 631.4 692.3 633.3 690.5 C 633.3 690.5 633.3 690.5 633.3 690.5 Z M 633.4 693.1 C 633.7 694.1 632.6 692.9 632.8 692.5 C 633.0 692.5 633.4 693.0 633.4 693.1 C 633.4 693.1 633.4 693.1 633.4 693.1 Z M 633.2 689.0 C 633.8 690.0 632.8 689.9 633.2 689.0 C 633.2 689.0 633.2 689.0 633.2 689.0 Z M 633.9 691.5 C 633.7 692.0 633.7 691.1 633.9 691.5 C 633.9 691.5 633.9 691.5 633.9 691.5 Z M 634.5 687.0 C 634.3 687.5 634.3 686.6 634.5 687.0 C 634.5 687.0 634.5 687.0 634.5 687.0 Z M 634.1 694.3 C 633.9 694.8 633.9 693.9 634.1 694.3 C 634.1 694.3 634.1 694.3 634.1 694.3 Z M 633.6 687.4 C 633.1 687.3 631.8 688.7 632.9 686.1 C 633.3 685.7 634.1 686.8 633.6 687.4 C 633.6 687.4 633.6 687.4 633.6 687.4 Z M 632.8 278.4 C 634.6 272.1 631.5 273.6 630.9 273.4 C 630.1 272.5 629.5 273.3 628.9 274.6 C 626.9 275.9 631.0 276.5 629.0 277.5 C 626.3 279.1 631.3 279.3 628.5 280.1 C 627.8 279.8 628.4 282.2 628.6 282.0 C 627.2 283.2 629.6 284.9 629.8 284.9 C 629.5 285.8 627.0 285.8 628.8 288.3 C 629.5 290.3 627.0 291.1 628.7 290.6 C 626.8 292.0 629.3 291.6 628.7 293.0 C 627.6 294.0 630.3 293.0 628.3 294.8 C 629.9 295.6 627.2 294.0 628.4 298.7 C 628.5 296.4 629.6 301.0 628.5 300.1 C 627.4 298.4 629.0 302.3 628.3 304.5 C 628.9 305.1 630.3 307.7 628.7 307.2 C 626.9 309.5 629.9 309.5 628.4 310.5 C 627.7 311.2 629.1 311.5 629.0 312.0 C 627.8 312.8 628.6 313.5 628.3 316.3 C 627.7 322.4 631.2 317.2 631.6 319.6 C 632.1 320.0 635.9 316.6 633.0 317.9 C 633.8 317.5 630.9 312.5 634.0 315.0 C 632.8 313.1 635.3 315.4 633.8 311.6 C 631.6 316.8 632.9 305.6 634.0 310.6 C 634.6 309.8 634.5 307.7 634.0 309.2 C 632.0 309.8 634.9 305.6 632.5 307.7 C 633.1 304.5 631.0 305.3 632.5 304.4 C 635.1 303.7 631.8 304.6 632.6 303.0 C 632.6 299.2 635.5 302.1 633.6 299.8 C 634.9 296.1 632.4 299.0 632.1 297.7 C 630.3 297.3 633.5 293.9 633.7 296.7 C 632.8 295.2 634.6 296.5 633.5 294.8 C 631.8 296.0 635.2 292.6 633.9 293.1 C 633.5 291.6 632.5 292.3 632.4 291.9 C 632.4 289.6 634.1 290.3 632.8 289.9 C 632.2 289.3 634.3 288.3 633.8 288.0 C 633.7 290.3 632.0 286.0 632.9 285.8 C 633.0 287.2 635.1 285.1 633.8 284.2 C 630.2 285.3 634.7 282.1 633.4 281.1 C 631.4 282.1 633.2 276.0 634.1 278.3 C 634.0 278.2 632.8 278.4 632.8 278.4 M 633.5 287.3 C 633.3 289.2 633.1 285.2 633.5 287.3 M 634.0 287.2 C 633.3 288.0 634.5 285.4 634.2 287.3 C 634.2 287.3 634.1 287.1 634.0 287.2 M 634.1 295.1 C 633.5 294.9 634.4 294.1 634.1 295.1 M 632.8 296.7 C 632.3 297.9 632.8 294.9 632.8 296.7 M 633.3 314.2 C 630.2 312.4 634.9 312.3 633.3 314.2 M 633.9 302.6 C 633.5 300.5 635.1 303.3 633.9 302.6 M 633.1 302.0 C 632.6 301.0 633.8 301.7 633.1 302.0 M 633.2 310.8 C 633.2 311.0 633.2 311.0 633.2 310.8 C 633.2 310.8 633.2 310.8 633.2 310.8 Z M 633.2 316.0 C 633.2 316.1 633.2 316.1 633.2 316.0 C 633.2 316.0 633.2 316.0 633.2 316.0 Z M 632.9 305.8 C 633.6 304.2 633.2 308.4 632.9 305.8 C 632.9 305.8 632.9 305.8 632.9 305.8 Z M 628.6 313.6 C 628.6 313.5 628.6 313.5 628.6 313.6 C 628.6 313.6 628.6 313.6 628.6 313.6 Z M 632.1 285.8 C 632.1 285.7 632.1 285.7 632.1 285.8 C 632.1 285.8 632.1 285.8 632.1 285.8 Z M 633.3 279.9 C 632.9 279.9 633.6 278.8 633.3 279.9 C 633.3 279.9 633.3 279.9 633.3 279.9 Z M 629.8 275.1 C 629.8 275.0 629.8 275.0 629.8 275.1 C 629.8 275.1 629.8 275.1 629.8 275.1 Z M 630.5 283.8 C 630.5 283.7 630.5 283.7 630.5 283.8 C 630.5 283.8 630.5 283.8 630.5 283.8 Z M 632.8 284.6 C 634.4 283.7 632.3 286.9 632.8 284.6 C 632.8 284.6 632.8 284.6 632.8 284.6 Z M 628.8 303.8 C 629.5 303.9 628.5 305.2 628.8 303.8 C 628.8 303.8 628.8 303.8 628.8 303.8 Z M 632.2 296.9 C 632.6 297.1 632.0 297.7 632.2 296.9 C 632.2 296.9 632.2 296.9 632.2 296.9 Z M 634.4 293.6 C 634.8 293.9 634.2 294.5 634.4 293.6 C 634.4 293.6 634.4 293.6 634.4 293.6 Z M 633.7 280.0 C 633.8 280.1 633.8 280.1 633.7 280.0 C 633.7 280.0 633.7 280.0 633.7 280.0 Z M 632.5 282.1 C 634.0 280.6 631.6 284.3 632.5 282.1 C 632.5 282.1 632.5 282.1 632.5 282.1 Z M 632.0 279.6 C 631.4 280.4 632.3 277.7 632.0 279.6 M 629.7 281.0 C 630.3 282.8 626.9 279.4 629.7 281.0 C 629.7 281.0 629.7 281.0 629.7 281.0 Z M 629.0 290.1 C 629.0 290.2 629.0 290.2 629.0 290.1 C 629.0 290.1 629.0 290.1 629.0 290.1 Z M 633.5 289.2 C 633.5 290.7 633.2 288.1 633.5 289.2 C 633.5 289.2 633.5 289.2 633.5 289.2 Z M 633.9 275.5 C 633.8 277.0 633.5 274.4 633.9 275.5 C 633.9 275.5 633.9 275.5 633.9 275.5 Z M 630.5 295.4 C 630.8 298.0 629.7 293.8 630.5 295.4 C 630.5 295.4 630.5 295.4 630.5 295.4 Z M 632.3 304.9 C 632.3 305.0 632.3 305.0 632.3 304.9 C 632.3 304.9 632.3 304.9 632.3 304.9 Z M 633.0 306.7 C 632.9 306.7 632.9 306.7 633.0 306.7 C 633.0 306.7 633.0 306.7 633.0 306.7 Z M 631.4 314.0 C 631.3 314.1 631.3 314.1 631.4 314.0 C 631.4 314.0 631.4 314.0 631.4 314.0 Z M 633.7 308.3 C 633.7 308.3 633.7 308.3 633.7 308.3 C 633.7 308.3 633.7 308.3 633.7 308.3 Z M 633.3 313.4 C 633.2 313.5 633.2 313.5 633.3 313.4 C 633.3 313.4 633.3 313.4 633.3 313.4 Z M 634.6 312.7 C 634.6 312.8 634.6 312.8 634.6 312.7 C 634.6 312.7 634.6 312.7 634.6 312.7 Z M 627.9 301.3 C 627.8 301.4 627.8 301.4 627.9 301.3 C 627.9 301.3 627.9 301.3 627.9 301.3 Z M 634.2 282.8 C 634.1 282.9 634.1 282.9 634.2 282.8 C 634.2 282.8 634.2 282.8 634.2 282.8 Z M 632.7 313.0 C 632.7 313.0 632.7 313.0 632.7 313.0 C 632.7 313.0 632.7 313.0 632.7 313.0 Z M 631.5 300.5 C 630.2 300.6 633.2 299.5 631.5 300.8 C 631.5 300.8 631.7 300.4 631.5 300.5 M 629.3 302.2 C 629.3 302.1 629.3 302.1 629.3 302.2 C 629.3 302.2 629.3 302.2 629.3 302.2 Z M 628.5 296.6 C 628.4 296.5 628.4 296.5 628.5 296.6 C 628.5 296.6 628.5 296.6 628.5 296.6 Z M 634.0 307.4 C 634.7 307.2 633.4 308.8 633.9 307.2 M 629.1 314.1 C 629.8 313.9 628.5 315.5 629.0 313.9 M 633.4 273.7 C 632.8 273.4 633.7 272.6 633.4 273.7 M 627.8 295.3 C 627.2 295.1 628.1 294.2 627.8 295.3 M 629.5 297.9 C 630.2 297.7 628.9 299.3 629.4 297.7 M 629.1 310.2 C 629.1 310.3 629.1 310.3 629.1 310.2 C 629.1 310.2 629.1 310.2 629.1 310.2 Z M 633.4 291.6 C 633.4 291.6 633.4 291.6 633.4 291.6 C 633.4 291.6 633.4 291.6 633.4 291.6 Z M 631.8 298.5 C 632.8 297.5 631.2 299.7 631.8 298.5 M 631.6 289.6 C 632.9 288.2 631.2 291.7 631.6 289.6 M 628.8 317.0 C 630.3 315.5 627.9 318.1 628.8 317.0 M 632.6 309.4 C 634.1 307.9 631.7 310.6 632.6 309.4 M 632.8 293.0 C 633.5 292.9 632.3 294.5 632.8 293.0 M 633.5 277.2 C 633.7 275.8 634.1 279.2 633.5 277.2 M 629.1 306.5 C 629.0 306.6 629.0 306.6 629.1 306.5 C 629.1 306.5 629.1 306.5 629.1 306.5 Z M 627.8 282.0 C 627.7 282.1 627.7 282.1 627.8 282.0 C 627.8 282.0 627.8 282.0 627.8 282.0 Z M 633.7 319.0 C 633.7 319.0 633.7 319.0 633.7 319.0 C 633.7 319.0 633.7 319.0 633.7 319.0 Z M 631.9 308.5 C 631.8 308.6 631.8 308.6 631.9 308.5 C 631.9 308.5 631.9 308.5 631.9 308.5 Z M 633.9 316.0 C 633.8 316.1 633.8 316.1 633.9 316.0 C 633.9 316.0 633.9 316.0 633.9 316.0 Z M 630.7 303.7 C 630.6 303.8 630.6 303.8 630.7 303.7 C 630.7 303.7 630.7 303.7 630.7 303.7 Z M 634.5 302.8 C 634.5 302.8 634.5 302.8 634.5 302.8 C 634.5 302.8 634.5 302.8 634.5 302.8 Z M 632.9 297.6 C 632.9 297.6 632.9 297.6 632.9 297.6 C 632.9 297.6 632.9 297.6 632.9 297.6 Z M 634.2 305.2 C 634.5 308.3 632.9 303.6 634.2 305.2 C 634.2 305.2 634.2 305.2 634.2 305.2 Z M 630.4 299.8 C 630.3 299.8 630.3 299.8 630.4 299.8 C 630.4 299.8 630.4 299.8 630.4 299.8 Z M 633.1 299.3 C 634.2 301.3 631.2 300.4 633.1 299.3 M 634.0 290.7 C 634.6 291.3 633.1 291.0 634.0 290.7 M 629.0 287.2 C 628.9 287.2 628.9 287.2 629.0 287.2 C 629.0 287.2 629.0 287.2 629.0 287.2 Z M 629.3 288.1 C 629.3 288.2 629.3 288.2 629.3 288.1 C 629.3 288.1 629.3 288.1 629.3 288.1 Z M 634.2 288.5 C 634.2 288.6 634.2 288.6 634.2 288.5 C 634.2 288.5 634.2 288.5 634.2 288.5 Z M 627.9 288.2 C 627.9 288.3 627.9 288.3 627.9 288.2 C 627.9 288.2 627.9 288.2 627.9 288.2 Z M 634.4 301.6 C 634.4 301.6 634.4 301.6 634.4 301.6 C 634.4 301.6 634.4 301.6 634.4 301.6 Z M 634.5 317.6 C 634.5 317.6 634.5 317.6 634.5 317.6 C 634.5 317.6 634.5 317.6 634.5 317.6 Z M 629.5 277.7 C 629.4 277.8 629.4 277.8 629.5 277.7 C 629.5 277.7 629.5 277.7 629.5 277.7 Z M 632.9 303.3 C 632.9 303.3 632.9 303.3 632.9 303.3 C 632.9 303.3 632.9 303.3 632.9 303.3 Z M 629.2 284.9 C 629.1 285.0 629.1 285.0 629.2 284.9 C 629.2 284.9 629.2 284.9 629.2 284.9 Z M 633.2 302.2 C 633.2 302.3 633.2 302.3 633.2 302.2 C 633.2 302.2 633.2 302.2 633.2 302.2 Z M 628.7 306.0 C 628.7 306.0 628.7 306.0 628.7 306.0 C 628.7 306.0 628.7 306.0 628.7 306.0 Z M 627.9 309.4 C 627.9 309.4 627.9 309.4 627.9 309.4 C 627.9 309.4 627.9 309.4 627.9 309.4 Z M 631.4 305.7 C 631.4 305.8 631.4 305.8 631.4 305.7 C 631.4 305.7 631.4 305.7 631.4 305.7 Z M 630.8 283.8 C 632.2 277.5 631.4 288.8 630.8 283.8 M 631.1 306.8 C 631.4 302.4 632.6 310.3 631.1 306.8 C 631.5 307.3 631.2 306.9 631.1 306.8 M 634.3 320.5 C 632.9 318.7 631.6 318.7 630.1 319.5 C 629.4 320.4 632.2 320.4 629.8 320.4 C 629.4 318.3 626.2 321.3 629.3 321.2 C 629.8 324.0 627.3 321.7 628.6 323.3 C 628.9 326.2 627.9 324.7 628.1 327.0 C 629.8 328.3 627.3 328.2 628.9 328.8 C 627.2 327.7 629.4 331.2 628.6 331.3 C 627.5 329.2 628.6 339.0 629.1 333.7 C 629.9 335.9 628.5 335.5 628.3 336.2 C 629.3 337.1 627.4 339.7 628.5 341.1 C 628.7 340.8 628.8 340.2 629.1 340.0 C 629.8 339.6 629.0 341.5 629.0 341.3 C 629.4 342.1 630.4 345.6 628.6 341.9 C 627.8 341.7 629.0 344.9 628.2 344.8 C 628.2 348.1 629.9 345.6 628.6 347.1 C 628.6 349.4 628.6 351.1 628.8 351.0 C 628.6 352.5 627.7 352.7 628.6 354.0 C 626.8 356.8 632.1 356.0 628.5 357.1 C 629.4 357.9 627.0 358.7 629.3 358.6 C 628.3 357.6 627.5 363.4 629.2 360.9 C 629.7 361.5 626.9 365.2 629.1 364.7 C 630.8 366.0 632.4 365.7 634.0 362.9 C 632.7 363.2 635.3 359.9 633.1 362.0 C 632.4 364.5 632.3 357.5 633.1 359.0 C 635.8 359.4 631.5 355.6 633.4 354.2 C 632.3 355.4 631.8 349.8 633.8 351.4 C 633.9 350.3 633.0 350.1 634.1 349.0 C 634.0 352.3 632.1 347.7 633.3 347.9 C 634.0 348.4 634.6 343.4 633.5 343.9 C 630.8 345.7 634.1 342.6 633.0 341.8 C 632.4 339.0 635.3 342.2 633.3 340.1 C 633.7 339.6 633.7 335.9 634.2 338.2 C 634.0 339.1 631.3 336.0 633.6 335.6 C 634.9 339.6 634.3 331.1 633.6 332.4 C 632.3 338.5 632.1 326.0 633.4 330.8 C 634.7 328.1 633.9 331.6 633.4 328.2 C 632.6 328.7 631.9 326.0 633.4 326.7 C 635.6 326.1 630.4 325.7 633.5 323.7 C 634.8 323.4 632.5 319.6 634.0 321.1 C 634.1 321.2 634.4 320.6 634.3 320.5 M 634.1 321.7 C 633.6 321.3 634.7 321.0 634.1 321.7 M 633.6 321.2 C 633.6 321.2 633.6 321.2 633.6 321.2 C 633.6 321.2 633.6 321.2 633.6 321.2 Z M 633.3 327.7 C 633.3 327.7 633.3 327.7 633.3 327.7 C 633.3 327.7 633.3 327.7 633.3 327.7 Z M 627.7 332.8 C 627.8 332.8 627.8 332.8 627.7 332.8 C 627.7 332.8 627.7 332.8 627.7 332.8 Z M 633.2 332.0 C 633.2 332.0 633.2 332.0 633.2 332.0 C 633.2 332.0 633.2 332.0 633.2 332.0 Z M 632.9 325.4 C 632.9 325.4 632.9 325.4 632.9 325.4 C 632.9 325.4 632.9 325.4 632.9 325.4 Z M 634.0 331.6 C 633.1 332.0 634.6 330.1 634.1 331.7 C 634.0 331.8 634.0 331.5 634.0 331.6 M 634.3 337.3 C 634.2 337.3 634.2 337.3 634.3 337.3 M 627.8 349.7 C 627.7 349.7 627.7 349.7 627.8 349.7 M 634.3 350.7 C 634.3 350.8 634.3 350.8 634.3 350.7 M 633.4 342.9 C 633.6 344.6 633.0 343.3 633.4 342.9 M 633.9 355.2 C 634.4 353.1 634.3 357.6 633.9 355.2 M 634.4 357.4 C 634.3 357.5 634.3 357.5 634.4 357.4 M 634.1 347.6 C 634.0 347.5 634.0 347.5 634.1 347.6 C 634.1 347.6 634.1 347.6 634.1 347.6 Z M 633.8 342.2 C 634.2 339.9 634.6 344.4 633.8 342.2 M 634.1 328.5 C 634.5 329.7 633.0 328.5 634.1 328.5 M 633.6 325.9 C 633.6 325.9 633.6 325.9 633.6 325.9 C 633.6 325.9 633.6 325.9 633.6 325.9 Z M 633.9 351.8 C 633.9 351.7 633.9 351.7 633.9 351.8 C 633.9 351.8 633.9 351.8 633.9 351.8 Z M 634.1 354.3 C 634.1 354.2 634.1 354.2 634.1 354.3 C 634.1 354.3 634.1 354.3 634.1 354.3 Z M 628.0 358.4 C 628.0 358.3 628.0 358.3 628.0 358.4 C 628.0 358.4 628.0 358.4 628.0 358.4 Z M 631.1 327.8 C 631.5 326.2 633.1 329.5 631.6 329.2 C 631.0 329.4 631.2 328.0 631.1 327.8 M 631.9 340.5 C 629.9 340.9 634.8 338.9 631.9 340.5 M 633.0 357.7 C 630.5 359.3 634.7 355.5 633.0 357.7 M 633.4 361.1 C 632.9 362.1 633.2 354.7 633.8 359.9 C 634.2 360.4 633.7 360.7 633.4 361.1 M 633.3 337.3 C 632.1 337.8 633.8 334.7 633.3 337.3 M 629.9 347.7 C 630.6 348.5 631.2 350.7 630.0 349.7 C 628.4 349.7 629.2 346.7 629.9 347.7 M 632.9 322.2 C 634.8 323.6 631.4 322.2 632.9 322.2 M 632.8 328.8 C 632.8 328.8 632.8 328.8 632.8 328.8 C 632.8 328.8 632.8 328.8 632.8 328.8 Z M 633.1 331.4 C 632.9 331.5 632.9 331.5 633.1 331.4 M 634.5 323.3 C 634.4 323.4 634.4 323.4 634.5 323.3 M 631.8 347.7 C 631.6 347.8 631.6 347.8 631.8 347.7 M 633.0 342.4 C 631.2 344.9 632.6 341.0 633.0 342.4 M 629.5 336.2 C 628.6 337.0 629.4 334.6 629.5 336.2 M 633.7 346.5 C 631.9 348.3 632.0 344.1 633.7 346.5 M 633.2 341.1 C 633.2 341.3 633.2 341.3 633.2 341.1 C 633.2 341.1 633.2 341.1 633.2 341.1 Z M 629.7 348.4 C 629.6 348.3 629.6 348.3 629.7 348.4 C 629.7 348.4 629.7 348.4 629.7 348.4 Z M 629.7 349.1 C 629.7 349.1 629.7 349.1 629.7 349.1 C 629.7 349.1 629.7 349.1 629.7 349.1 Z M 633.9 348.7 C 633.8 348.6 633.8 348.6 633.9 348.7 C 633.9 348.7 633.9 348.7 633.9 348.7 Z M 628.9 325.8 C 628.7 327.5 628.6 324.3 628.9 325.8 C 628.9 325.8 628.9 325.8 628.9 325.8 Z M 633.9 333.7 C 632.6 336.6 632.6 331.6 633.9 333.7 C 633.9 333.7 633.9 333.7 633.9 333.7 Z M 631.7 337.0 C 631.6 337.0 631.6 337.0 631.7 337.0 C 631.7 337.0 631.7 337.0 631.7 337.0 Z M 634.7 345.4 C 634.6 345.4 634.6 345.4 634.7 345.4 C 634.7 345.4 634.7 345.4 634.7 345.4 Z M 628.6 326.6 C 628.5 326.6 628.5 326.6 628.6 326.6 C 628.6 326.6 628.6 326.6 628.6 326.6 Z M 632.9 353.8 C 632.8 353.8 632.8 353.8 632.9 353.8 C 632.9 353.8 632.9 353.8 632.9 353.8 Z M 629.4 343.5 C 630.0 344.2 628.9 343.7 629.4 343.5 C 629.4 343.5 629.4 343.5 629.4 343.5 Z M 629.4 346.2 C 629.4 346.3 629.4 346.3 629.4 346.2 C 629.4 346.2 629.4 346.2 629.4 346.2 Z M 634.5 358.0 C 634.5 358.1 634.5 358.1 634.5 358.0 C 634.5 358.0 634.5 358.0 634.5 358.0 Z M 627.8 353.0 C 627.8 353.1 627.8 353.1 627.8 353.0 C 627.8 353.0 627.8 353.0 627.8 353.0 Z M 629.8 355.3 C 629.7 355.2 629.7 355.2 629.8 355.3 C 629.8 355.3 629.8 355.3 629.8 355.3 Z M 633.4 348.2 C 633.8 350.9 632.7 347.6 633.4 348.2 C 633.4 348.2 633.4 348.2 633.4 348.2 Z M 630.3 361.9 C 630.2 361.9 630.2 361.9 630.3 361.9 C 630.3 361.9 630.3 361.9 630.3 361.9 Z M 632.7 363.2 C 632.6 363.3 632.6 363.3 632.7 363.2 C 632.7 363.2 632.7 363.2 632.7 363.2 Z M 633.9 363.9 C 633.8 364.0 633.8 364.0 633.9 363.9 C 633.9 363.9 633.9 363.9 633.9 363.9 Z M 630.5 331.3 C 630.6 331.3 630.6 331.3 630.5 331.3 C 630.5 331.3 630.5 331.3 630.5 331.3 Z M 634.4 330.3 C 634.4 330.3 634.4 330.3 634.4 330.3 C 634.4 330.3 634.4 330.3 634.4 330.3 Z M 634.5 333.9 C 634.6 333.9 634.6 333.9 634.5 333.9 C 634.5 333.9 634.5 333.9 634.5 333.9 Z M 628.2 330.7 C 628.3 330.6 628.3 330.6 628.2 330.7 C 628.2 330.7 628.2 330.7 628.2 330.7 Z M 631.5 344.3 C 631.5 344.2 631.5 344.2 631.5 344.3 C 631.5 344.3 631.5 344.3 631.5 344.3 Z M 629.9 345.5 C 630.0 345.5 630.0 345.5 629.9 345.5 C 629.9 345.5 629.9 345.5 629.9 345.5 Z M 627.9 342.4 C 627.9 342.4 627.9 342.4 627.9 342.4 C 627.9 342.4 627.9 342.4 627.9 342.4 Z M 628.6 346.5 C 628.6 346.5 628.6 346.5 628.6 346.5 C 628.6 346.5 628.6 346.5 628.6 346.5 Z M 628.9 321.6 C 628.9 321.6 628.9 321.6 628.9 321.6 C 628.9 321.6 628.9 321.6 628.9 321.6 Z M 631.9 321.3 C 631.8 321.2 631.8 321.2 631.9 321.3 C 631.9 321.3 631.9 321.3 631.9 321.3 Z M 633.6 344.7 C 634.2 345.3 632.8 345.9 633.6 344.7 M 633.2 339.5 C 633.2 339.5 633.2 339.5 633.2 339.5 C 633.2 339.5 633.2 339.5 633.2 339.5 Z M 633.5 353.4 C 632.3 354.0 634.1 350.9 633.5 353.4 C 633.5 353.4 633.5 353.4 633.5 353.4 Z M 628.6 350.6 C 628.6 350.7 628.6 350.7 628.6 350.6 C 628.6 350.6 628.6 350.6 628.6 350.6 Z M 629.1 352.0 C 629.0 352.1 629.0 352.1 629.1 352.0 C 629.1 352.0 629.1 352.0 629.1 352.0 Z M 632.2 359.5 C 632.1 359.6 632.1 359.6 632.2 359.5 M 634.3 338.8 C 633.7 339.6 633.9 339.5 634.3 338.8 M 633.4 355.1 C 633.4 355.0 633.4 355.0 633.4 355.1 C 633.4 355.1 633.4 355.1 633.4 355.1 Z M 632.9 361.1 C 632.9 361.0 632.9 361.0 632.9 361.1 C 632.9 361.1 632.9 361.1 632.9 361.1 Z M 633.5 335.2 C 632.1 335.3 632.4 334.6 633.5 335.2 M 633.0 324.9 C 632.9 324.9 632.9 324.9 633.0 324.9 C 633.0 324.9 633.0 324.9 633.0 324.9 Z M 633.9 369.3 C 635.5 366.5 633.3 366.5 633.2 366.5 C 636.2 366.8 632.0 364.0 631.5 364.6 C 631.0 364.5 625.9 366.6 629.0 368.6 C 629.4 369.1 628.5 369.5 628.4 369.8 C 628.5 373.3 630.0 367.5 630.0 371.7 C 629.6 372.4 627.1 371.6 628.8 374.0 C 628.6 374.1 627.7 376.9 628.8 375.9 C 627.7 377.2 629.1 378.1 629.3 379.3 C 628.7 380.4 627.5 378.4 628.9 382.4 C 626.8 384.1 630.4 384.7 628.2 386.3 C 628.1 387.3 631.8 388.9 629.7 386.5 C 629.9 386.8 631.7 385.4 631.1 388.6 C 630.6 388.1 626.8 386.4 628.6 391.4 C 628.5 392.2 629.5 394.1 629.1 394.5 C 628.7 392.0 627.4 398.0 628.6 397.4 C 627.8 401.4 629.5 399.1 628.2 402.0 C 628.2 404.4 629.9 401.2 628.9 404.2 C 629.1 406.4 628.2 404.9 628.3 404.7 C 628.1 406.6 628.8 407.3 628.7 408.0 C 628.5 408.4 627.7 409.3 628.7 409.7 C 630.4 411.8 632.1 409.9 633.8 410.8 C 634.6 409.3 632.5 410.2 633.8 409.1 C 632.7 408.4 633.9 409.0 633.6 405.0 C 633.4 405.1 632.6 406.1 632.5 405.1 C 632.7 403.5 635.6 404.6 633.5 402.0 C 632.9 405.1 632.6 397.7 632.0 400.6 C 631.6 397.0 632.2 399.5 632.9 396.9 C 631.0 397.1 635.0 396.7 633.4 395.8 C 634.2 395.5 633.9 391.5 632.7 394.4 C 632.2 390.2 633.3 392.8 634.3 391.3 C 634.4 389.4 631.1 391.2 633.5 390.0 C 634.6 387.4 632.4 389.9 634.2 388.0 C 632.6 388.9 634.2 386.2 632.4 386.9 C 632.3 382.5 634.3 387.4 633.1 384.4 C 633.0 385.3 635.5 384.9 633.9 383.1 C 631.0 383.9 636.4 380.6 632.6 382.0 C 631.5 376.0 634.2 381.0 634.2 377.7 C 634.2 376.8 633.0 378.6 632.9 377.8 C 633.5 373.5 634.5 377.1 632.6 374.9 C 632.1 370.6 634.2 373.6 634.3 371.6 C 633.4 371.4 631.9 369.7 633.9 369.3 M 633.0 373.1 C 633.6 374.0 632.4 373.6 633.0 373.1 M 633.9 364.6 C 634.5 365.5 633.3 365.1 633.9 364.6 M 633.6 376.6 C 634.2 377.7 632.6 376.9 633.6 376.6 M 632.6 399.3 C 632.6 397.7 633.1 400.0 632.6 399.3 M 634.0 368.0 C 634.7 369.2 633.0 368.3 634.0 368.0 M 632.5 366.4 C 632.5 366.5 632.5 366.5 632.5 366.4 M 634.2 401.6 C 634.1 401.6 634.1 401.6 634.2 401.6 M 634.2 395.5 C 634.2 396.8 633.8 394.7 634.2 395.5 M 627.9 395.2 C 627.9 396.6 627.5 394.5 627.9 395.2 M 634.3 404.9 C 634.7 406.2 633.6 405.3 634.3 404.9 M 632.9 408.3 C 633.4 409.4 632.2 409.0 632.9 408.3 M 630.8 372.3 C 630.7 372.3 630.7 372.3 630.8 372.3 C 630.8 372.3 630.8 372.3 630.8 372.3 Z M 629.3 383.5 C 629.9 382.2 628.5 385.1 629.3 383.5 M 633.4 381.4 C 632.1 382.3 633.5 379.7 633.4 381.4 C 633.4 381.4 633.4 381.4 633.4 381.4 Z M 632.8 379.5 C 632.7 379.4 632.7 379.4 632.8 379.5 C 632.8 379.5 632.8 379.5 632.8 379.5 Z M 632.7 385.8 C 632.7 385.7 632.7 385.7 632.7 385.8 C 632.7 385.8 632.7 385.8 632.7 385.8 Z M 632.6 384.5 C 632.3 384.0 632.9 383.8 632.6 384.5 C 632.6 384.5 632.6 384.5 632.6 384.5 Z M 628.6 393.7 C 628.3 393.1 628.8 393.0 628.6 393.7 C 628.6 393.7 628.6 393.7 628.6 393.7 Z M 632.2 382.5 C 630.9 382.3 633.0 381.6 632.2 382.5 C 632.2 382.5 632.2 382.5 632.2 382.5 Z M 629.1 389.3 C 629.5 389.8 627.9 390.4 629.1 389.3 M 633.9 402.8 C 634.3 403.4 632.7 404.0 633.9 402.8 M 634.3 389.5 C 634.7 390.1 633.1 390.7 634.3 389.5 M 633.6 373.8 C 633.4 373.9 633.4 373.9 633.6 373.8 M 628.0 381.2 C 628.5 382.1 627.5 381.7 628.0 381.2 M 628.5 368.6 C 628.9 369.5 627.9 369.1 628.5 368.6 M 628.1 400.9 C 628.4 400.9 627.9 402.3 628.1 400.9 M 632.3 391.1 C 632.1 392.2 631.4 393.4 631.5 391.0 C 631.8 390.8 632.0 391.6 632.3 391.1 C 632.3 391.1 632.3 391.1 632.3 391.1 Z M 629.4 395.3 C 629.2 395.4 629.2 395.4 629.4 395.3 M 633.4 393.1 C 633.3 393.3 633.3 393.3 633.4 393.1 M 633.3 400.0 C 633.1 400.1 633.1 400.1 633.3 400.0 M 633.7 400.8 C 633.6 400.8 633.6 400.8 633.7 400.8 C 633.7 400.8 633.7 400.8 633.7 400.8 Z M 634.2 408.3 C 634.2 408.3 634.2 408.3 634.2 408.3 C 634.2 408.3 634.2 408.3 634.2 408.3 Z M 633.2 397.8 C 633.1 397.8 633.1 397.8 633.2 397.8 C 633.2 397.8 633.2 397.8 633.2 397.8 Z M 628.3 404.0 C 628.3 404.0 628.3 404.0 628.3 404.0 C 628.3 404.0 628.3 404.0 628.3 404.0 Z M 629.1 403.2 C 629.0 403.2 629.0 403.2 629.1 403.2 C 629.1 403.2 629.1 403.2 629.1 403.2 Z M 633.9 369.9 C 634.8 371.0 631.7 370.5 633.9 369.9 M 629.1 406.5 C 628.2 407.5 628.9 404.8 629.1 406.5 C 629.1 406.5 629.1 406.5 629.1 406.5 Z M 632.1 397.0 C 631.9 397.1 631.9 397.1 632.1 397.0 M 633.6 401.2 C 633.4 401.3 633.4 401.3 633.6 401.2 M 634.5 381.4 C 634.4 381.5 634.4 381.5 634.5 381.4 M 633.3 406.5 C 633.0 409.7 631.5 405.1 633.3 406.5 M 633.3 379.9 C 633.4 379.8 633.4 379.8 633.3 379.9 M 630.9 387.1 C 631.0 389.2 630.2 386.3 630.9 387.1 M 632.6 392.5 C 632.5 392.5 632.5 392.5 632.6 392.5 C 632.6 392.5 632.6 392.5 632.6 392.5 Z M 632.5 389.4 C 632.4 387.8 632.9 389.0 632.5 389.4 C 632.5 389.4 632.5 389.4 632.5 389.4 Z M 632.7 371.4 C 632.6 373.4 632.3 369.4 632.7 371.4 C 632.7 371.4 632.7 371.4 632.7 371.4 Z M 630.4 405.0 C 630.3 405.0 630.3 405.0 630.4 405.0 C 630.4 405.0 630.4 405.0 630.4 405.0 Z M 634.1 397.4 C 633.7 396.5 634.4 397.0 634.1 397.4 C 634.1 397.4 634.1 397.4 634.1 397.4 Z M 634.2 409.4 C 633.9 408.5 634.6 409.0 634.2 409.4 C 634.2 409.4 634.2 409.4 634.2 409.4 Z M 633.0 369.0 C 630.8 376.4 633.5 359.1 633.0 369.0 C 633.0 369.0 633.0 369.0 633.0 369.0 Z M 633.4 390.6 C 633.3 390.6 633.3 390.6 633.4 390.6 C 633.4 390.6 633.4 390.6 633.4 390.6 Z M 634.3 377.0 C 634.2 376.9 634.2 376.9 634.3 377.0 C 634.3 377.0 634.3 377.0 634.3 377.0 Z M 633.1 374.7 C 633.1 374.6 633.1 374.6 633.1 374.7 C 633.1 374.7 633.1 374.7 633.1 374.7 Z M 628.2 375.3 C 628.1 375.3 628.1 375.3 628.2 375.3 C 628.2 375.3 628.2 375.3 628.2 375.3 Z M 630.4 376.1 C 630.3 376.0 630.3 376.0 630.4 376.1 C 630.4 376.1 630.4 376.1 630.4 376.1 Z M 629.6 371.3 C 629.5 371.3 629.5 371.3 629.6 371.3 C 629.6 371.3 629.6 371.3 629.6 371.3 Z M 628.9 371.4 C 628.9 371.4 628.9 371.4 628.9 371.4 C 628.9 371.4 628.9 371.4 628.9 371.4 Z M 632.2 401.3 C 632.1 401.2 632.1 401.2 632.2 401.3 C 632.2 401.3 632.2 401.3 632.2 401.3 Z M 630.1 398.7 C 630.8 400.4 629.0 398.2 630.1 398.7 C 630.1 398.7 630.1 398.7 630.1 398.7 Z M 631.1 383.4 C 631.4 385.0 630.5 382.4 631.1 383.4 C 631.1 383.4 631.1 383.4 631.1 383.4 Z M 628.4 385.2 C 628.4 385.2 628.4 385.2 628.4 385.2 C 628.4 385.2 628.4 385.2 628.4 385.2 Z M 634.3 374.7 C 634.2 374.6 634.2 374.6 634.3 374.7 C 634.3 374.7 634.3 374.7 634.3 374.7 Z M 633.5 371.8 C 632.4 371.7 634.0 370.9 633.5 371.8 M 634.1 386.4 C 634.0 386.4 634.0 386.4 634.1 386.4 C 634.1 386.4 634.1 386.4 634.1 386.4 Z M 632.4 395.7 C 632.4 395.6 632.4 395.6 632.4 395.7 C 632.4 395.7 632.4 395.7 632.4 395.7 Z M 633.1 404.8 C 633.0 404.8 633.0 404.8 633.1 404.8 C 633.1 404.8 633.1 404.8 633.1 404.8 Z M 634.0 392.2 C 633.8 392.1 633.8 392.1 634.0 392.2 C 634.0 392.2 634.0 392.2 634.0 392.2 Z M 633.0 387.8 C 632.8 387.7 632.8 387.7 633.0 387.8 C 633.0 387.8 633.0 387.8 633.0 387.8 Z M 631.6 406.9 C 631.6 406.8 631.6 406.8 631.6 406.9 C 631.6 406.9 631.6 406.9 631.6 406.9 Z M 634.1 393.2 C 634.1 393.1 634.1 393.1 634.1 393.2 C 634.1 393.2 634.1 393.2 634.1 393.2 Z M 630.8 395.8 C 630.7 395.8 630.7 395.8 630.8 395.8 C 630.8 395.8 630.8 395.8 630.8 395.8 Z M 635.0 372.2 C 634.9 372.2 634.9 372.2 635.0 372.2 C 635.0 372.2 635.0 372.2 635.0 372.2 Z M 633.0 406.9 C 633.0 406.9 633.0 406.9 633.0 406.9 C 633.0 406.9 633.0 406.9 633.0 406.9 Z M 634.0 407.5 C 633.9 407.5 633.9 407.5 634.0 407.5 C 634.0 407.5 634.0 407.5 634.0 407.5 Z M 629.0 401.0 C 629.6 397.8 629.2 403.9 630.4 401.6 C 630.6 406.2 628.9 401.7 629.0 401.0 C 629.0 401.0 629.0 401.0 629.0 401.0 Z M 634.3 411.9 C 632.9 410.1 631.6 410.1 630.1 410.8 C 629.4 411.7 632.2 411.7 629.8 411.7 C 629.4 409.7 626.2 412.6 629.3 412.6 C 629.8 415.3 627.3 413.0 628.6 414.7 C 628.9 417.5 627.9 416.1 628.1 418.3 C 629.8 419.6 627.3 419.6 628.9 420.2 C 627.2 419.1 629.4 422.6 628.6 422.6 C 627.5 420.6 628.6 430.3 629.1 425.0 C 629.9 427.2 628.5 426.8 628.3 427.5 C 629.3 428.5 627.4 431.1 628.5 432.4 C 628.7 432.2 628.8 431.5 629.1 431.3 C 629.8 430.9 629.0 432.8 629.0 432.6 C 629.4 433.5 630.4 437.0 628.6 433.3 C 627.8 433.1 629.0 436.3 628.2 436.2 C 628.2 439.4 629.9 437.0 628.6 438.4 C 628.6 440.7 628.6 442.4 628.8 442.4 C 628.6 443.8 627.7 444.1 628.6 445.3 C 626.8 448.2 632.1 447.3 628.5 448.4 C 629.4 449.2 627.0 450.0 629.3 449.9 C 628.3 448.9 627.5 454.7 629.2 452.2 C 629.7 452.9 626.9 456.5 629.1 456.0 C 630.8 457.3 632.4 457.1 634.0 454.2 C 632.7 454.5 635.3 451.2 633.1 453.4 C 632.4 455.8 632.3 448.9 633.1 450.3 C 635.8 450.7 631.5 447.0 633.4 445.5 C 632.3 446.7 631.8 441.1 633.8 442.7 C 633.9 441.7 633.0 441.4 634.1 440.3 C 634.0 443.7 632.1 439.0 633.3 439.2 C 634.0 439.8 634.6 434.8 633.5 435.3 C 630.8 437.0 634.1 434.0 633.0 433.1 C 632.4 430.3 635.3 433.5 633.3 431.5 C 633.7 430.9 633.7 427.2 634.2 429.6 C 634.0 430.4 631.3 427.4 633.6 427.0 C 634.9 430.9 634.3 422.4 633.6 423.8 C 632.3 429.9 632.1 417.3 633.4 422.1 C 634.7 419.4 633.9 422.9 633.4 419.5 C 632.6 420.0 631.9 417.4 633.4 418.0 C 635.6 417.5 630.4 417.1 633.5 415.0 C 634.8 414.7 632.5 411.0 634.0 412.4 C 634.1 412.5 634.4 412.0 634.3 411.9 M 634.1 413.1 C 633.6 412.6 634.7 412.3 634.1 413.1 M 633.6 412.6 C 633.6 412.5 633.6 412.5 633.6 412.6 C 633.6 412.6 633.6 412.6 633.6 412.6 Z M 633.3 419.1 C 633.3 419.0 633.3 419.0 633.3 419.1 C 633.3 419.1 633.3 419.1 633.3 419.1 Z M 627.7 424.2 C 627.8 424.1 627.8 424.1 627.7 424.2 C 627.7 424.2 627.7 424.2 627.7 424.2 Z M 633.2 423.4 C 633.2 423.3 633.2 423.3 633.2 423.4 C 633.2 423.4 633.2 423.4 633.2 423.4 Z M 632.9 416.7 C 632.9 416.7 632.9 416.7 632.9 416.7 C 632.9 416.7 632.9 416.7 632.9 416.7 Z M 634.0 423.0 C 633.1 423.3 634.6 421.5 634.1 423.1 C 634.0 423.1 634.0 422.8 634.0 423.0 M 634.3 428.6 C 634.2 428.6 634.2 428.6 634.3 428.6 M 627.8 441.0 C 627.7 441.1 627.7 441.1 627.8 441.0 M 634.3 442.1 C 634.3 442.2 634.3 442.2 634.3 442.1 M 633.4 434.2 C 633.6 435.9 633.0 434.6 633.4 434.2 M 633.9 446.6 C 634.4 444.4 634.3 448.9 633.9 446.6 M 634.4 448.7 C 634.3 448.9 634.3 448.9 634.4 448.7 M 634.1 438.9 C 634.0 438.9 634.0 438.9 634.1 438.9 C 634.1 438.9 634.1 438.9 634.1 438.9 Z M 633.8 433.5 C 634.2 431.2 634.6 435.8 633.8 433.5 M 634.1 419.8 C 634.5 421.1 633.0 419.8 634.1 419.8 M 633.6 417.3 C 633.6 417.2 633.6 417.2 633.6 417.3 C 633.6 417.3 633.6 417.3 633.6 417.3 Z M 633.9 443.1 C 633.9 443.0 633.9 443.0 633.9 443.1 C 633.9 443.1 633.9 443.1 633.9 443.1 Z M 634.1 445.6 C 634.1 445.5 634.1 445.5 634.1 445.6 C 634.1 445.6 634.1 445.6 634.1 445.6 Z M 628.0 449.8 C 628.0 449.7 628.0 449.7 628.0 449.8 C 628.0 449.8 628.0 449.8 628.0 449.8 Z M 631.1 419.2 C 631.5 417.5 633.1 420.9 631.6 420.5 C 631.0 420.7 631.2 419.4 631.1 419.2 M 631.9 431.8 C 629.9 432.3 634.8 430.2 631.9 431.8 M 633.0 449.0 C 630.5 450.7 634.7 446.9 633.0 449.0 M 633.4 452.4 C 632.9 453.4 633.2 446.1 633.8 451.2 C 634.2 451.7 633.7 452.1 633.4 452.4 M 633.3 428.7 C 632.1 429.2 633.8 426.0 633.3 428.7 M 629.9 439.1 C 630.6 439.9 631.2 442.0 630.0 441.1 C 628.4 441.1 629.2 438.1 629.9 439.1 M 632.9 413.6 C 634.8 415.0 631.4 413.5 632.9 413.6 M 632.8 420.1 C 632.8 420.2 632.8 420.2 632.8 420.1 C 632.8 420.1 632.8 420.1 632.8 420.1 Z M 633.1 422.7 C 632.9 422.8 632.9 422.8 633.1 422.7 M 634.5 414.6 C 634.4 414.8 634.4 414.8 634.5 414.6 M 631.8 439.0 C 631.6 439.1 631.6 439.1 631.8 439.0 M 633.0 433.7 C 631.2 436.2 632.6 432.4 633.0 433.7 M 629.5 427.5 C 628.6 428.3 629.4 426.0 629.5 427.5 M 633.7 437.9 C 631.9 439.7 632.0 435.4 633.7 437.9 M 633.2 432.5 C 633.2 432.6 633.2 432.6 633.2 432.5 C 633.2 432.5 633.2 432.5 633.2 432.5 Z M 629.7 439.7 C 629.6 439.7 629.6 439.7 629.7 439.7 C 629.7 439.7 629.7 439.7 629.7 439.7 Z M 629.7 440.5 C 629.7 440.4 629.7 440.4 629.7 440.5 C 629.7 440.5 629.7 440.5 629.7 440.5 Z M 633.9 440.1 C 633.8 440.0 633.8 440.0 633.9 440.1 C 633.9 440.1 633.9 440.1 633.9 440.1 Z M 628.9 417.1 C 628.7 418.9 628.6 415.7 628.9 417.1 C 628.9 417.1 628.9 417.1 628.9 417.1 Z M 633.9 425.0 C 632.6 428.0 632.6 423.0 633.9 425.0 C 633.9 425.0 633.9 425.0 633.9 425.0 Z M 631.7 428.4 C 631.6 428.4 631.6 428.4 631.7 428.4 C 631.7 428.4 631.7 428.4 631.7 428.4 Z M 634.7 436.7 C 634.6 436.7 634.6 436.7 634.7 436.7 C 634.7 436.7 634.7 436.7 634.7 436.7 Z M 628.6 418.0 C 628.5 418.0 628.5 418.0 628.6 418.0 C 628.6 418.0 628.6 418.0 628.6 418.0 Z M 632.9 445.2 C 632.8 445.2 632.8 445.2 632.9 445.2 C 632.9 445.2 632.9 445.2 632.9 445.2 Z M 629.4 434.9 C 630.0 435.5 628.9 435.0 629.4 434.9 C 629.4 434.9 629.4 434.9 629.4 434.9 Z M 629.4 437.5 C 629.4 437.6 629.4 437.6 629.4 437.5 C 629.4 437.5 629.4 437.5 629.4 437.5 Z M 634.5 449.4 C 634.5 449.4 634.5 449.4 634.5 449.4 C 634.5 449.4 634.5 449.4 634.5 449.4 Z M 627.8 444.4 C 627.8 444.4 627.8 444.4 627.8 444.4 C 627.8 444.4 627.8 444.4 627.8 444.4 Z M 629.8 446.6 C 629.7 446.6 629.7 446.6 629.8 446.6 C 629.8 446.6 629.8 446.6 629.8 446.6 Z M 633.4 439.6 C 633.8 442.3 632.7 439.0 633.4 439.6 C 633.4 439.6 633.4 439.6 633.4 439.6 Z M 630.3 453.2 C 630.2 453.3 630.2 453.3 630.3 453.2 C 630.3 453.2 630.3 453.2 630.3 453.2 Z M 632.7 454.6 C 632.6 454.6 632.6 454.6 632.7 454.6 C 632.7 454.6 632.7 454.6 632.7 454.6 Z M 633.9 455.3 C 633.8 455.3 633.8 455.3 633.9 455.3 C 633.9 455.3 633.9 455.3 633.9 455.3 Z M 630.5 422.7 C 630.6 422.6 630.6 422.6 630.5 422.7 C 630.5 422.7 630.5 422.7 630.5 422.7 Z M 634.4 421.6 C 634.4 421.6 634.4 421.6 634.4 421.6 C 634.4 421.6 634.4 421.6 634.4 421.6 Z M 634.5 425.2 C 634.6 425.2 634.6 425.2 634.5 425.2 C 634.5 425.2 634.5 425.2 634.5 425.2 Z M 628.2 422.0 C 628.3 422.0 628.3 422.0 628.2 422.0 C 628.2 422.0 628.2 422.0 628.2 422.0 Z M 631.5 435.6 C 631.5 435.5 631.5 435.5 631.5 435.6 C 631.5 435.6 631.5 435.6 631.5 435.6 Z M 629.9 436.9 C 630.0 436.8 630.0 436.8 629.9 436.9 C 629.9 436.9 629.9 436.9 629.9 436.9 Z M 627.9 433.7 C 627.9 433.7 627.9 433.7 627.9 433.7 C 627.9 433.7 627.9 433.7 627.9 433.7 Z M 628.6 437.9 C 628.6 437.8 628.6 437.8 628.6 437.9 C 628.6 437.9 628.6 437.9 628.6 437.9 Z M 628.9 412.9 C 628.9 412.9 628.9 412.9 628.9 412.9 C 628.9 412.9 628.9 412.9 628.9 412.9 Z M 631.9 412.6 C 631.8 412.6 631.8 412.6 631.9 412.6 C 631.9 412.6 631.9 412.6 631.9 412.6 Z M 633.6 436.0 C 634.2 436.6 632.8 437.3 633.6 436.0 M 633.2 430.8 C 633.2 430.8 633.2 430.8 633.2 430.8 C 633.2 430.8 633.2 430.8 633.2 430.8 Z M 633.5 444.7 C 632.3 445.4 634.1 442.3 633.5 444.7 C 633.5 444.7 633.5 444.7 633.5 444.7 Z M 628.6 442.0 C 628.6 442.0 628.6 442.0 628.6 442.0 C 628.6 442.0 628.6 442.0 628.6 442.0 Z M 629.1 443.3 C 629.0 443.4 629.0 443.4 629.1 443.3 C 629.1 443.3 629.1 443.3 629.1 443.3 Z M 632.2 450.8 C 632.1 450.9 632.1 450.9 632.2 450.8 M 634.3 430.2 C 633.7 431.0 633.9 430.8 634.3 430.2 M 633.4 446.5 C 633.4 446.4 633.4 446.4 633.4 446.5 C 633.4 446.5 633.4 446.5 633.4 446.5 Z M 632.9 452.5 C 632.9 452.4 632.9 452.4 632.9 452.5 C 632.9 452.5 632.9 452.5 632.9 452.5 Z M 633.5 426.5 C 632.1 426.6 632.4 425.9 633.5 426.5 M 633.0 416.2 C 632.9 416.2 632.9 416.2 633.0 416.2 C 633.0 416.2 633.0 416.2 633.0 416.2 Z M 633.9 460.7 C 635.5 457.9 633.3 457.8 633.2 457.9 C 636.2 458.2 632.0 455.3 631.5 455.9 C 631.0 455.8 625.9 458.0 629.0 460.0 C 629.4 460.5 628.5 460.8 628.4 461.2 C 628.5 464.6 630.0 458.8 630.0 463.0 C 629.6 463.7 627.1 462.9 628.8 465.4 C 628.6 465.5 627.7 468.3 628.8 467.2 C 627.7 468.5 629.1 469.4 629.3 470.6 C 628.7 471.8 627.5 469.7 628.9 473.7 C 626.8 475.5 630.4 476.1 628.2 477.6 C 628.1 478.7 631.8 480.2 629.7 477.9 C 629.9 478.2 631.7 476.7 631.1 479.9 C 630.6 479.4 626.8 477.7 628.6 482.7 C 628.5 483.5 629.5 485.4 629.1 485.9 C 628.7 483.3 627.4 489.4 628.6 488.8 C 627.8 492.8 629.5 490.5 628.2 493.4 C 628.2 495.7 629.9 492.6 628.9 495.5 C 629.1 497.8 628.2 496.2 628.3 496.0 C 628.1 497.9 628.8 498.6 628.7 499.3 C 628.5 499.7 627.7 500.6 628.7 501.1 C 630.4 503.1 632.1 501.2 633.8 502.2 C 634.6 500.7 632.5 501.5 633.8 500.5 C 632.7 499.7 633.9 500.4 633.6 496.3 C 633.4 496.4 632.6 497.4 632.5 496.4 C 632.7 494.8 635.6 496.0 633.5 493.3 C 632.9 496.4 632.6 489.0 632.0 491.9 C 631.6 488.3 632.2 490.9 632.9 488.3 C 631.0 488.4 635.0 488.1 633.4 487.1 C 634.2 486.9 633.9 482.8 632.7 485.7 C 632.2 481.5 633.3 484.2 634.3 482.7 C 634.4 480.7 631.1 482.5 633.5 481.3 C 634.6 478.8 632.4 481.2 634.2 479.4 C 632.6 480.2 634.2 477.5 632.4 478.2 C 632.3 473.9 634.3 478.7 633.1 475.7 C 633.0 476.6 635.5 476.3 633.9 474.4 C 631.0 475.2 636.4 472.0 632.6 473.3 C 631.5 467.3 634.2 472.3 634.2 469.0 C 634.2 468.1 633.0 469.9 632.9 469.2 C 633.5 464.9 634.5 468.4 632.6 466.2 C 632.1 462.0 634.2 465.0 634.3 462.9 C 633.4 462.7 631.9 461.1 633.9 460.7 M 633.0 464.4 C 633.6 465.3 632.4 465.0 633.0 464.4 M 633.9 455.9 C 634.5 456.8 633.3 456.5 633.9 455.9 M 633.6 467.9 C 634.2 469.1 632.6 468.3 633.6 467.9 M 632.6 490.7 C 632.6 489.1 633.1 491.4 632.6 490.7 M 634.0 459.3 C 634.7 460.6 633.0 459.7 634.0 459.3 M 632.5 457.8 C 632.5 457.9 632.5 457.9 632.5 457.8 M 634.2 492.9 C 634.1 493.0 634.1 493.0 634.2 492.9 M 634.2 486.8 C 634.2 488.1 633.8 486.1 634.2 486.8 M 627.9 486.6 C 627.9 487.9 627.5 485.8 627.9 486.6 M 634.3 496.2 C 634.7 497.5 633.6 496.6 634.3 496.2 M 632.9 499.6 C 633.4 500.8 632.2 500.4 632.9 499.6 M 630.8 463.7 C 630.7 463.6 630.7 463.6 630.8 463.7 C 630.8 463.7 630.8 463.7 630.8 463.7 Z M 629.3 474.8 C 629.9 473.5 628.5 476.5 629.3 474.8 M 633.4 472.8 C 632.1 473.7 633.5 471.0 633.4 472.8 C 633.4 472.8 633.4 472.8 633.4 472.8 Z M 632.8 470.8 C 632.7 470.8 632.7 470.8 632.8 470.8 C 632.8 470.8 632.8 470.8 632.8 470.8 Z M 632.7 477.1 C 632.7 477.1 632.7 477.1 632.7 477.1 C 632.7 477.1 632.7 477.1 632.7 477.1 Z M 632.6 475.8 C 632.3 475.3 632.9 475.1 632.6 475.8 C 632.6 475.8 632.6 475.8 632.6 475.8 Z M 628.6 485.0 C 628.3 484.5 628.8 484.3 628.6 485.0 C 628.6 485.0 628.6 485.0 628.6 485.0 Z M 632.2 473.8 C 630.9 473.7 633.0 472.9 632.2 473.8 C 632.2 473.8 632.2 473.8 632.2 473.8 Z M 629.1 480.6 C 629.5 481.2 627.9 481.8 629.1 480.6 M 633.9 494.2 C 634.3 494.7 632.7 495.4 633.9 494.2 M 634.3 480.8 C 634.7 481.4 633.1 482.0 634.3 480.8 M 633.6 465.1 C 633.4 465.3 633.4 465.3 633.6 465.1 M 628.0 472.6 C 628.5 473.4 627.5 473.0 628.0 472.6 M 628.5 460.0 C 628.9 460.9 627.9 460.4 628.5 460.0 M 628.1 492.3 C 628.4 492.2 627.9 493.6 628.1 492.3 M 632.3 482.4 C 632.1 483.6 631.4 484.8 631.5 482.3 C 631.8 482.2 632.0 482.9 632.3 482.4 C 632.3 482.4 632.3 482.4 632.3 482.4 Z M 629.4 486.6 C 629.2 486.8 629.2 486.8 629.4 486.6 M 633.4 484.5 C 633.3 484.6 633.3 484.6 633.4 484.5 M 633.3 491.3 C 633.1 491.5 633.1 491.5 633.3 491.3 M 633.7 492.2 C 633.6 492.1 633.6 492.1 633.7 492.2 C 633.7 492.2 633.7 492.2 633.7 492.2 Z M 634.2 499.7 C 634.2 499.6 634.2 499.6 634.2 499.7 C 634.2 499.7 634.2 499.7 634.2 499.7 Z M 633.2 489.1 C 633.1 489.1 633.1 489.1 633.2 489.1 C 633.2 489.1 633.2 489.1 633.2 489.1 Z M 628.3 495.3 C 628.3 495.3 628.3 495.3 628.3 495.3 C 628.3 495.3 628.3 495.3 628.3 495.3 Z M 629.1 494.5 C 629.0 494.5 629.0 494.5 629.1 494.5 C 629.1 494.5 629.1 494.5 629.1 494.5 Z M 633.9 461.3 C 634.8 462.3 631.7 461.8 633.9 461.3 M 629.1 497.9 C 628.2 498.8 628.9 496.1 629.1 497.9 C 629.1 497.9 629.1 497.9 629.1 497.9 Z M 632.1 488.3 C 631.9 488.4 631.9 488.4 632.1 488.3 M 633.6 492.6 C 633.4 492.7 633.4 492.7 633.6 492.6 M 634.5 472.7 C 634.4 472.8 634.4 472.8 634.5 472.7 M 633.3 497.9 C 633.0 501.0 631.5 496.4 633.3 497.9 M 633.3 471.3 C 633.4 471.2 633.4 471.2 633.3 471.3 M 630.9 478.4 C 631.0 480.6 630.2 477.7 630.9 478.4 M 632.6 483.9 C 632.5 483.8 632.5 483.8 632.6 483.9 C 632.6 483.9 632.6 483.9 632.6 483.9 Z M 632.5 480.7 C 632.4 479.1 632.9 480.3 632.5 480.7 C 632.5 480.7 632.5 480.7 632.5 480.7 Z M 632.7 462.8 C 632.6 464.8 632.3 460.7 632.7 462.8 C 632.7 462.8 632.7 462.8 632.7 462.8 Z M 630.4 496.4 C 630.3 496.3 630.3 496.3 630.4 496.4 C 630.4 496.4 630.4 496.4 630.4 496.4 Z M 634.1 488.7 C 633.7 487.8 634.4 488.3 634.1 488.7 C 634.1 488.7 634.1 488.7 634.1 488.7 Z M 634.2 500.8 C 633.9 499.8 634.6 500.3 634.2 500.8 C 634.2 500.8 634.2 500.8 634.2 500.8 Z M 633.0 460.3 C 630.8 467.7 633.5 450.5 633.0 460.3 C 633.0 460.3 633.0 460.3 633.0 460.3 Z M 633.4 482.0 C 633.3 481.9 633.3 481.9 633.4 482.0 C 633.4 482.0 633.4 482.0 633.4 482.0 Z M 634.3 468.3 C 634.2 468.3 634.2 468.3 634.3 468.3 C 634.3 468.3 634.3 468.3 634.3 468.3 Z M 633.1 466.0 C 633.1 466.0 633.1 466.0 633.1 466.0 C 633.1 466.0 633.1 466.0 633.1 466.0 Z M 628.2 466.7 C 628.1 466.6 628.1 466.6 628.2 466.7 C 628.2 466.7 628.2 466.7 628.2 466.7 Z M 630.4 467.5 C 630.3 467.3 630.3 467.3 630.4 467.5 C 630.4 467.5 630.4 467.5 630.4 467.5 Z M 629.6 462.7 C 629.5 462.6 629.5 462.6 629.6 462.7 C 629.6 462.7 629.6 462.7 629.6 462.7 Z M 628.9 462.8 C 628.9 462.8 628.9 462.8 628.9 462.8 C 628.9 462.8 628.9 462.8 628.9 462.8 Z M 632.2 492.6 C 632.1 492.5 632.1 492.5 632.2 492.6 C 632.2 492.6 632.2 492.6 632.2 492.6 Z M 630.1 490.1 C 630.8 491.8 629.0 489.5 630.1 490.1 C 630.1 490.1 630.1 490.1 630.1 490.1 Z M 631.1 474.8 C 631.4 476.4 630.5 473.8 631.1 474.8 C 631.1 474.8 631.1 474.8 631.1 474.8 Z M 628.4 476.5 C 628.4 476.5 628.4 476.5 628.4 476.5 C 628.4 476.5 628.4 476.5 628.4 476.5 Z M 634.3 466.0 C 634.2 466.0 634.2 466.0 634.3 466.0 C 634.3 466.0 634.3 466.0 634.3 466.0 Z M 633.5 463.1 C 632.4 463.0 634.0 462.2 633.5 463.1 M 634.1 477.7 C 634.0 477.7 634.0 477.7 634.1 477.7 C 634.1 477.7 634.1 477.7 634.1 477.7 Z M 632.4 487.0 C 632.4 487.0 632.4 487.0 632.4 487.0 C 632.4 487.0 632.4 487.0 632.4 487.0 Z M 633.1 496.2 C 633.0 496.1 633.0 496.1 633.1 496.2 C 633.1 496.2 633.1 496.2 633.1 496.2 Z M 634.0 483.5 C 633.8 483.5 633.8 483.5 634.0 483.5 C 634.0 483.5 634.0 483.5 634.0 483.5 Z M 633.0 479.1 C 632.8 479.1 632.8 479.1 633.0 479.1 C 633.0 479.1 633.0 479.1 633.0 479.1 Z M 631.6 498.2 C 631.6 498.1 631.6 498.1 631.6 498.2 C 631.6 498.2 631.6 498.2 631.6 498.2 Z M 634.1 484.5 C 634.1 484.5 634.1 484.5 634.1 484.5 C 634.1 484.5 634.1 484.5 634.1 484.5 Z M 630.8 487.2 C 630.7 487.1 630.7 487.1 630.8 487.2 C 630.8 487.2 630.8 487.2 630.8 487.2 Z M 635.0 463.5 C 634.9 463.5 634.9 463.5 635.0 463.5 C 635.0 463.5 635.0 463.5 635.0 463.5 Z M 633.0 498.3 C 633.0 498.3 633.0 498.3 633.0 498.3 C 633.0 498.3 633.0 498.3 633.0 498.3 Z M 634.0 498.9 C 633.9 498.8 633.9 498.8 634.0 498.9 C 634.0 498.9 634.0 498.9 634.0 498.9 Z M 629.0 492.4 C 629.6 489.1 629.2 495.3 630.4 492.9 C 630.6 497.6 628.9 493.0 629.0 492.4 C 629.0 492.4 629.0 492.4 629.0 492.4 Z M 634.3 503.2 C 632.9 501.4 631.6 501.4 630.1 502.2 C 629.4 503.1 632.2 503.0 629.8 503.1 C 629.4 501.0 626.2 504.0 629.3 503.9 C 629.8 506.6 627.3 504.4 628.6 506.0 C 628.9 508.9 627.9 507.4 628.1 509.6 C 629.8 510.9 627.3 510.9 628.9 511.5 C 627.2 510.4 629.4 513.9 628.6 514.0 C 627.5 511.9 628.6 521.7 629.1 516.4 C 629.9 518.5 628.5 518.1 628.3 518.9 C 629.3 519.8 627.4 522.4 628.5 523.8 C 628.7 523.5 628.8 522.8 629.1 522.6 C 629.8 522.3 629.0 524.1 629.0 523.9 C 629.4 524.8 630.4 528.3 628.6 524.6 C 627.8 524.4 629.0 527.6 628.2 527.5 C 628.2 530.8 629.9 528.3 628.6 529.8 C 628.6 532.1 628.6 533.7 628.8 533.7 C 628.6 535.1 627.7 535.4 628.6 536.7 C 626.8 539.5 632.1 538.7 628.5 539.8 C 629.4 540.6 627.0 541.4 629.3 541.2 C 628.3 540.2 627.5 546.1 629.2 543.6 C 629.7 544.2 626.9 547.9 629.1 547.3 C 630.8 548.7 632.4 548.4 634.0 545.6 C 632.7 545.9 635.3 542.6 633.1 544.7 C 632.4 547.1 632.3 540.2 633.1 541.7 C 635.8 542.0 631.5 538.3 633.4 536.9 C 632.3 538.1 631.8 532.4 633.8 534.1 C 633.9 533.0 633.0 532.8 634.1 531.6 C 634.0 535.0 632.1 530.3 633.3 530.6 C 634.0 531.1 634.6 526.1 633.5 526.6 C 630.8 528.4 634.1 525.3 633.0 524.4 C 632.4 521.7 635.3 524.9 633.3 522.8 C 633.7 522.3 633.7 518.6 634.2 520.9 C 634.0 521.8 631.3 518.7 633.6 518.3 C 634.9 522.3 634.3 513.8 633.6 515.1 C 632.3 521.2 632.1 508.7 633.4 513.4 C 634.7 510.7 633.9 514.2 633.4 510.9 C 632.6 511.3 631.9 508.7 633.4 509.3 C 635.6 508.8 630.4 508.4 633.5 506.4 C 634.8 506.1 632.5 502.3 634.0 503.8 C 634.1 503.9 634.4 503.3 634.3 503.2 M 634.1 504.4 C 633.6 504.0 634.7 503.7 634.1 504.4 M 633.6 503.9 C 633.6 503.9 633.6 503.9 633.6 503.9 C 633.6 503.9 633.6 503.9 633.6 503.9 Z M 633.3 510.4 C 633.3 510.4 633.3 510.4 633.3 510.4 C 633.3 510.4 633.3 510.4 633.3 510.4 Z M 627.7 515.5 C 627.8 515.5 627.8 515.5 627.7 515.5 C 627.7 515.5 627.7 515.5 627.7 515.5 Z M 633.2 514.7 C 633.2 514.7 633.2 514.7 633.2 514.7 C 633.2 514.7 633.2 514.7 633.2 514.7 Z M 632.9 508.1 C 632.9 508.0 632.9 508.0 632.9 508.1 C 632.9 508.1 632.9 508.1 632.9 508.1 Z M 634.0 514.3 C 633.1 514.7 634.6 512.8 634.1 514.4 C 634.0 514.4 634.0 514.2 634.0 514.3 M 634.3 520.0 C 634.2 520.0 634.2 520.0 634.3 520.0 M 627.8 532.4 C 627.7 532.4 627.7 532.4 627.8 532.4 M 634.3 533.4 C 634.3 533.5 634.3 533.5 634.3 533.4 M 633.4 525.6 C 633.6 527.3 633.0 526.0 633.4 525.6 M 633.9 537.9 C 634.4 535.8 634.3 540.3 633.9 537.9 M 634.4 540.0 C 634.3 540.2 634.3 540.2 634.4 540.0 M 634.1 530.3 C 634.0 530.2 634.0 530.2 634.1 530.3 C 634.1 530.3 634.1 530.3 634.1 530.3 Z M 633.8 524.8 C 634.2 522.6 634.6 527.1 633.8 524.8 M 634.1 511.2 C 634.5 512.4 633.0 511.2 634.1 511.2 M 633.6 508.6 C 633.6 508.6 633.6 508.6 633.6 508.6 C 633.6 508.6 633.6 508.6 633.6 508.6 Z M 633.9 534.5 C 633.9 534.4 633.9 534.4 633.9 534.5 C 633.9 534.5 633.9 534.5 633.9 534.5 Z M 634.1 537.0 C 634.1 536.9 634.1 536.9 634.1 537.0 C 634.1 537.0 634.1 537.0 634.1 537.0 Z M 628.0 541.1 C 628.0 541.0 628.0 541.0 628.0 541.1 C 628.0 541.1 628.0 541.1 628.0 541.1 Z M 631.1 510.5 C 631.5 508.8 633.1 512.2 631.6 511.9 C 631.0 512.1 631.2 510.7 631.1 510.5 M 631.9 523.2 C 629.9 523.6 634.8 521.5 631.9 523.2 M 633.0 540.4 C 630.5 542.0 634.7 538.2 633.0 540.4 M 633.4 543.8 C 632.9 544.8 633.2 537.4 633.8 542.6 C 634.2 543.1 633.7 543.4 633.4 543.8 M 633.3 520.0 C 632.1 520.5 633.8 517.4 633.3 520.0 M 629.9 530.4 C 630.6 531.2 631.2 533.4 630.0 532.4 C 628.4 532.4 629.2 529.4 629.9 530.4 M 632.9 504.9 C 634.8 506.3 631.4 504.9 632.9 504.9 M 632.8 511.5 C 632.8 511.5 632.8 511.5 632.8 511.5 C 632.8 511.5 632.8 511.5 632.8 511.5 Z M 633.1 514.1 C 632.9 514.2 632.9 514.2 633.1 514.1 M 634.5 506.0 C 634.4 506.1 634.4 506.1 634.5 506.0 M 631.8 530.3 C 631.6 530.5 631.6 530.5 631.8 530.3 M 633.0 525.1 C 631.2 527.6 632.6 523.7 633.0 525.1 M 629.5 518.9 C 628.6 519.7 629.4 517.3 629.5 518.9 M 633.7 529.2 C 631.9 531.0 632.0 526.8 633.7 529.2 M 633.2 523.8 C 633.2 523.9 633.2 523.9 633.2 523.8 C 633.2 523.8 633.2 523.8 633.2 523.8 Z M 629.7 531.1 C 629.6 531.0 629.6 531.0 629.7 531.1 C 629.7 531.1 629.7 531.1 629.7 531.1 Z M 629.7 531.8 C 629.7 531.7 629.7 531.7 629.7 531.8 C 629.7 531.8 629.7 531.8 629.7 531.8 Z M 633.9 531.4 C 633.8 531.3 633.8 531.3 633.9 531.4 C 633.9 531.4 633.9 531.4 633.9 531.4 Z M 628.9 508.4 C 628.7 510.2 628.6 507.0 628.9 508.4 C 628.9 508.4 628.9 508.4 628.9 508.4 Z M 633.9 516.4 C 632.6 519.3 632.6 514.3 633.9 516.4 C 633.9 516.4 633.9 516.4 633.9 516.4 Z M 631.7 519.7 C 631.6 519.7 631.6 519.7 631.7 519.7 C 631.7 519.7 631.7 519.7 631.7 519.7 Z M 634.7 528.1 C 634.6 528.1 634.6 528.1 634.7 528.1 C 634.7 528.1 634.7 528.1 634.7 528.1 Z M 628.6 509.3 C 628.5 509.3 628.5 509.3 628.6 509.3 C 628.6 509.3 628.6 509.3 628.6 509.3 Z M 632.9 536.5 C 632.8 536.5 632.8 536.5 632.9 536.5 C 632.9 536.5 632.9 536.5 632.9 536.5 Z M 629.4 526.2 C 630.0 526.9 628.9 526.3 629.4 526.2 C 629.4 526.2 629.4 526.2 629.4 526.2 Z M 629.4 528.9 C 629.4 529.0 629.4 529.0 629.4 528.9 C 629.4 528.9 629.4 528.9 629.4 528.9 Z M 634.5 540.7 C 634.5 540.8 634.5 540.8 634.5 540.7 C 634.5 540.7 634.5 540.7 634.5 540.7 Z M 627.8 535.7 C 627.8 535.8 627.8 535.8 627.8 535.7 C 627.8 535.7 627.8 535.7 627.8 535.7 Z M 629.8 537.9 C 629.7 537.9 629.7 537.9 629.8 537.9 C 629.8 537.9 629.8 537.9 629.8 537.9 Z M 633.4 530.9 C 633.8 533.6 632.7 530.3 633.4 530.9 C 633.4 530.9 633.4 530.9 633.4 530.9 Z M 630.3 544.6 C 630.2 544.6 630.2 544.6 630.3 544.6 C 630.3 544.6 630.3 544.6 630.3 544.6 Z M 632.7 545.9 C 632.6 546.0 632.6 546.0 632.7 545.9 C 632.7 545.9 632.7 545.9 632.7 545.9 Z M 633.9 546.6 C 633.8 546.7 633.8 546.7 633.9 546.6 C 633.9 546.6 633.9 546.6 633.9 546.6 Z M 630.5 514.0 C 630.6 514.0 630.6 514.0 630.5 514.0 C 630.5 514.0 630.5 514.0 630.5 514.0 Z M 634.4 513.0 C 634.4 512.9 634.4 512.9 634.4 513.0 C 634.4 513.0 634.4 513.0 634.4 513.0 Z M 634.5 516.6 C 634.6 516.6 634.6 516.6 634.5 516.6 C 634.5 516.6 634.5 516.6 634.5 516.6 Z M 628.2 513.4 C 628.3 513.3 628.3 513.3 628.2 513.4 C 628.2 513.4 628.2 513.4 628.2 513.4 Z M 631.5 526.9 C 631.5 526.9 631.5 526.9 631.5 526.9 C 631.5 526.9 631.5 526.9 631.5 526.9 Z M 629.9 528.2 C 630.0 528.2 630.0 528.2 629.9 528.2 C 629.9 528.2 629.9 528.2 629.9 528.2 Z M 627.9 525.1 C 627.9 525.1 627.9 525.1 627.9 525.1 C 627.9 525.1 627.9 525.1 627.9 525.1 Z M 628.6 529.2 C 628.6 529.2 628.6 529.2 628.6 529.2 C 628.6 529.2 628.6 529.2 628.6 529.2 Z M 628.9 504.3 C 628.9 504.3 628.9 504.3 628.9 504.3 C 628.9 504.3 628.9 504.3 628.9 504.3 Z M 631.9 504.0 C 631.8 503.9 631.8 503.9 631.9 504.0 C 631.9 504.0 631.9 504.0 631.9 504.0 Z M 633.6 527.4 C 634.2 528.0 632.8 528.6 633.6 527.4 M 633.2 522.2 C 633.2 522.2 633.2 522.2 633.2 522.2 C 633.2 522.2 633.2 522.2 633.2 522.2 Z M 633.5 536.1 C 632.3 536.7 634.1 533.6 633.5 536.1 C 633.5 536.1 633.5 536.1 633.5 536.1 Z M 628.6 533.3 C 628.6 533.4 628.6 533.4 628.6 533.3 C 628.6 533.3 628.6 533.3 628.6 533.3 Z M 629.1 534.7 C 629.0 534.8 629.0 534.8 629.1 534.7 C 629.1 534.7 629.1 534.7 629.1 534.7 Z M 632.2 542.1 C 632.1 542.3 632.1 542.3 632.2 542.1 M 634.3 521.5 C 633.7 522.3 633.9 522.1 634.3 521.5 M 633.4 537.8 C 633.4 537.7 633.4 537.7 633.4 537.8 C 633.4 537.8 633.4 537.8 633.4 537.8 Z M 632.9 543.8 C 632.9 543.7 632.9 543.7 632.9 543.8 C 632.9 543.8 632.9 543.8 632.9 543.8 Z M 633.5 517.9 C 632.1 518.0 632.4 517.3 633.5 517.9 M 633.0 507.6 C 632.9 507.6 632.9 507.6 633.0 507.6 C 633.0 507.6 633.0 507.6 633.0 507.6 Z M 632.8 552.4 C 634.6 546.2 631.5 547.7 630.9 547.4 C 630.1 546.6 629.5 547.4 628.9 548.6 C 626.9 549.9 631.0 550.6 629.0 551.5 C 626.3 553.2 631.3 553.4 628.5 554.1 C 627.8 553.8 628.4 556.2 628.6 556.0 C 627.2 557.2 629.6 559.0 629.8 559.0 C 629.5 559.8 627.0 559.9 628.8 562.4 C 629.5 564.3 627.0 565.1 628.7 564.6 C 626.8 566.0 629.3 565.6 628.7 567.0 C 627.6 568.0 630.3 567.0 628.3 568.8 C 629.9 569.6 627.2 568.0 628.4 572.8 C 628.5 570.5 629.6 575.0 628.5 574.1 C 627.4 572.5 629.0 576.4 628.3 578.5 C 628.9 579.1 630.3 581.7 628.7 581.3 C 626.9 583.5 629.9 583.6 628.4 584.5 C 627.7 585.3 629.1 585.6 629.0 586.1 C 627.8 586.8 628.6 587.6 628.3 590.4 C 627.7 596.5 631.2 591.3 631.6 593.6 C 632.1 594.0 635.9 590.6 633.0 591.9 C 633.8 591.5 630.9 586.5 634.0 589.0 C 632.8 587.1 635.3 589.4 633.8 585.6 C 631.6 590.8 632.9 579.6 634.0 584.7 C 634.6 583.8 634.5 581.7 634.0 583.2 C 632.0 583.8 634.9 579.6 632.5 581.7 C 633.1 578.5 631.0 579.4 632.5 578.5 C 635.1 577.7 631.8 578.6 632.6 577.0 C 632.6 573.2 635.5 576.1 633.6 573.8 C 634.9 570.1 632.4 573.0 632.1 571.7 C 630.3 571.4 633.5 567.9 633.7 570.8 C 632.8 569.3 634.6 570.5 633.5 568.8 C 631.8 570.0 635.2 566.6 633.9 567.1 C 633.5 565.6 632.5 566.4 632.4 565.9 C 632.4 563.6 634.1 564.3 632.8 563.9 C 632.2 563.4 634.3 562.3 633.8 562.0 C 633.7 564.3 632.0 560.1 632.9 559.8 C 633.0 561.3 635.1 559.1 633.8 558.2 C 630.2 559.3 634.7 556.2 633.4 555.1 C 631.4 556.1 633.2 550.0 634.1 552.3 C 634.0 552.2 632.8 552.4 632.8 552.4 M 633.5 561.3 C 633.3 563.2 633.1 559.3 633.5 561.3 M 634.0 561.2 C 633.3 562.1 634.5 559.4 634.2 561.3 C 634.2 561.4 634.1 561.1 634.0 561.2 M 634.1 569.2 C 633.5 568.9 634.4 568.1 634.1 569.2 M 632.8 570.7 C 632.3 572.0 632.8 569.0 632.8 570.7 M 633.3 588.2 C 630.2 586.4 634.9 586.4 633.3 588.2 M 633.9 576.6 C 633.5 574.5 635.1 577.4 633.9 576.6 M 633.1 576.0 C 632.6 575.0 633.8 575.8 633.1 576.0 M 633.2 584.9 C 633.2 585.0 633.2 585.0 633.2 584.9 C 633.2 584.9 633.2 584.9 633.2 584.9 Z M 633.2 590.1 C 633.2 590.1 633.2 590.1 633.2 590.1 C 633.2 590.1 633.2 590.1 633.2 590.1 Z M 632.9 579.8 C 633.6 578.2 633.2 582.5 632.9 579.8 C 632.9 579.8 632.9 579.8 632.9 579.8 Z M 628.6 587.6 C 628.6 587.5 628.6 587.5 628.6 587.6 C 628.6 587.6 628.6 587.6 628.6 587.6 Z M 632.1 559.8 C 632.1 559.7 632.1 559.7 632.1 559.8 C 632.1 559.8 632.1 559.8 632.1 559.8 Z M 633.3 553.9 C 632.9 554.0 633.6 552.8 633.3 553.9 C 633.3 553.9 633.3 553.9 633.3 553.9 Z M 629.8 549.1 C 629.8 549.0 629.8 549.0 629.8 549.1 C 629.8 549.1 629.8 549.1 629.8 549.1 Z M 630.5 557.8 C 630.5 557.8 630.5 557.8 630.5 557.8 C 630.5 557.8 630.5 557.8 630.5 557.8 Z M 632.8 558.7 C 634.4 557.7 632.3 560.9 632.8 558.7 C 632.8 558.7 632.8 558.7 632.8 558.7 Z M 628.8 577.8 C 629.5 577.9 628.5 579.2 628.8 577.8 C 628.8 577.8 628.8 577.8 628.8 577.8 Z M 632.2 570.9 C 632.6 571.2 632.0 571.8 632.2 570.9 C 632.2 570.9 632.2 570.9 632.2 570.9 Z M 634.4 567.7 C 634.8 567.9 634.2 568.5 634.4 567.7 C 634.4 567.7 634.4 567.7 634.4 567.7 Z M 633.7 554.0 C 633.8 554.1 633.8 554.1 633.7 554.0 C 633.7 554.0 633.7 554.0 633.7 554.0 Z M 632.5 556.1 C 634.0 554.7 631.6 558.4 632.5 556.1 C 632.5 556.1 632.5 556.1 632.5 556.1 Z M 632.0 553.6 C 631.4 554.4 632.3 551.7 632.0 553.6 M 629.7 555.0 C 630.3 556.8 626.9 553.4 629.7 555.0 C 629.7 555.0 629.7 555.0 629.7 555.0 Z M 629.0 564.1 C 629.0 564.3 629.0 564.3 629.0 564.1 C 629.0 564.1 629.0 564.1 629.0 564.1 Z M 633.5 563.2 C 633.5 564.8 633.2 562.2 633.5 563.2 C 633.5 563.2 633.5 563.2 633.5 563.2 Z M 633.9 549.5 C 633.8 551.1 633.5 548.5 633.9 549.5 C 633.9 549.5 633.9 549.5 633.9 549.5 Z M 630.5 569.4 C 630.8 572.0 629.7 567.8 630.5 569.4 C 630.5 569.4 630.5 569.4 630.5 569.4 Z M 632.3 578.9 C 632.3 579.0 632.3 579.0 632.3 578.9 C 632.3 578.9 632.3 578.9 632.3 578.9 Z M 633.0 580.7 C 632.9 580.8 632.9 580.8 633.0 580.7 C 633.0 580.7 633.0 580.7 633.0 580.7 Z M 631.4 588.0 C 631.3 588.2 631.3 588.2 631.4 588.0 C 631.4 588.0 631.4 588.0 631.4 588.0 Z M 633.7 582.3 C 633.7 582.4 633.7 582.4 633.7 582.3 C 633.7 582.3 633.7 582.3 633.7 582.3 Z M 633.3 587.4 C 633.2 587.5 633.2 587.5 633.3 587.4 C 633.3 587.4 633.3 587.4 633.3 587.4 Z M 634.6 586.7 C 634.6 586.8 634.6 586.8 634.6 586.7 C 634.6 586.7 634.6 586.7 634.6 586.7 Z M 627.9 575.4 C 627.8 575.5 627.8 575.5 627.9 575.4 C 627.9 575.4 627.9 575.4 627.9 575.4 Z M 634.2 556.8 C 634.1 556.9 634.1 556.9 634.2 556.8 C 634.2 556.8 634.2 556.8 634.2 556.8 Z M 632.7 587.0 C 632.7 587.0 632.7 587.0 632.7 587.0 C 632.7 587.0 632.7 587.0 632.7 587.0 Z M 631.5 574.5 C 630.2 574.6 633.2 573.5 631.5 574.9 C 631.5 574.8 631.7 574.5 631.5 574.5 M 629.3 576.2 C 629.3 576.1 629.3 576.1 629.3 576.2 C 629.3 576.2 629.3 576.2 629.3 576.2 Z M 628.5 570.6 C 628.4 570.5 628.4 570.5 628.5 570.6 C 628.5 570.6 628.5 570.6 628.5 570.6 Z M 634.0 581.4 C 634.7 581.2 633.4 582.8 633.9 581.2 M 629.1 588.1 C 629.8 587.9 628.5 589.5 629.0 587.9 M 633.4 547.7 C 632.8 547.5 633.7 546.6 633.4 547.7 M 627.8 569.3 C 627.2 569.1 628.1 568.3 627.8 569.3 M 629.5 572.0 C 630.2 571.7 628.9 573.3 629.4 571.7 M 629.1 584.2 C 629.1 584.3 629.1 584.3 629.1 584.2 C 629.1 584.2 629.1 584.2 629.1 584.2 Z M 633.4 565.6 C 633.4 565.7 633.4 565.7 633.4 565.6 C 633.4 565.6 633.4 565.6 633.4 565.6 Z M 631.8 572.5 C 632.8 571.6 631.2 573.7 631.8 572.5 M 631.6 563.6 C 632.9 562.2 631.2 565.8 631.6 563.6 M 628.8 591.0 C 630.3 589.5 627.9 592.2 628.8 591.0 M 632.6 583.5 C 634.1 581.9 631.7 584.6 632.6 583.5 M 632.8 567.0 C 633.5 566.9 632.3 568.5 632.8 567.0 M 633.5 551.3 C 633.7 549.8 634.1 553.2 633.5 551.3 M 629.1 580.5 C 629.0 580.6 629.0 580.6 629.1 580.5 C 629.1 580.5 629.1 580.5 629.1 580.5 Z M 627.8 556.0 C 627.7 556.1 627.7 556.1 627.8 556.0 C 627.8 556.0 627.8 556.0 627.8 556.0 Z M 633.7 593.0 C 633.7 593.1 633.7 593.1 633.7 593.0 C 633.7 593.0 633.7 593.0 633.7 593.0 Z M 631.9 582.5 C 631.8 582.6 631.8 582.6 631.9 582.5 C 631.9 582.5 631.9 582.5 631.9 582.5 Z M 633.9 590.1 C 633.8 590.1 633.8 590.1 633.9 590.1 C 633.9 590.1 633.9 590.1 633.9 590.1 Z M 630.7 577.8 C 630.6 577.8 630.6 577.8 630.7 577.8 C 630.7 577.8 630.7 577.8 630.7 577.8 Z M 634.5 576.8 C 634.5 576.8 634.5 576.8 634.5 576.8 C 634.5 576.8 634.5 576.8 634.5 576.8 Z M 632.9 571.6 C 632.9 571.6 632.9 571.6 632.9 571.6 C 632.9 571.6 632.9 571.6 632.9 571.6 Z M 634.2 579.2 C 634.5 582.3 632.9 577.6 634.2 579.2 C 634.2 579.2 634.2 579.2 634.2 579.2 Z M 630.4 573.8 C 630.3 573.8 630.3 573.8 630.4 573.8 C 630.4 573.8 630.4 573.8 630.4 573.8 Z M 633.1 573.4 C 634.2 575.3 631.2 574.4 633.1 573.4 M 634.0 564.7 C 634.6 565.3 633.1 565.0 634.0 564.7 M 629.0 561.2 C 628.9 561.2 628.9 561.2 629.0 561.2 C 629.0 561.2 629.0 561.2 629.0 561.2 Z M 629.3 562.1 C 629.3 562.2 629.3 562.2 629.3 562.1 C 629.3 562.1 629.3 562.1 629.3 562.1 Z M 634.2 562.6 C 634.2 562.6 634.2 562.6 634.2 562.6 C 634.2 562.6 634.2 562.6 634.2 562.6 Z M 627.9 562.3 C 627.9 562.4 627.9 562.4 627.9 562.3 C 627.9 562.3 627.9 562.3 627.9 562.3 Z M 634.4 575.6 C 634.4 575.7 634.4 575.7 634.4 575.6 C 634.4 575.6 634.4 575.6 634.4 575.6 Z M 634.5 591.6 C 634.5 591.6 634.5 591.6 634.5 591.6 C 634.5 591.6 634.5 591.6 634.5 591.6 Z M 629.5 551.7 C 629.4 551.8 629.4 551.8 629.5 551.7 C 629.5 551.7 629.5 551.7 629.5 551.7 Z M 632.9 577.3 C 632.9 577.3 632.9 577.3 632.9 577.3 C 632.9 577.3 632.9 577.3 632.9 577.3 Z M 629.2 559.0 C 629.1 559.0 629.1 559.0 629.2 559.0 C 629.2 559.0 629.2 559.0 629.2 559.0 Z M 633.2 576.2 C 633.2 576.3 633.2 576.3 633.2 576.2 C 633.2 576.2 633.2 576.2 633.2 576.2 Z M 628.7 580.0 C 628.7 580.1 628.7 580.1 628.7 580.0 C 628.7 580.0 628.7 580.0 628.7 580.0 Z M 627.9 583.4 C 627.9 583.5 627.9 583.5 627.9 583.4 C 627.9 583.4 627.9 583.4 627.9 583.4 Z M 631.4 579.8 C 631.4 579.8 631.4 579.8 631.4 579.8 C 631.4 579.8 631.4 579.8 631.4 579.8 Z M 630.8 557.8 C 632.2 551.6 631.4 562.8 630.8 557.8 M 631.1 580.8 C 631.4 576.4 632.6 584.3 631.1 580.8 C 631.5 581.3 631.2 580.9 631.1 580.8 M 633.9 597.7 C 635.5 594.9 633.3 594.9 633.2 594.9 C 636.2 595.2 632.0 592.4 631.5 592.9 C 631.0 592.8 625.9 595.0 629.0 597.0 C 629.4 597.5 628.5 597.8 628.4 598.2 C 628.5 601.6 630.0 595.8 630.0 600.0 C 629.6 600.8 627.1 599.9 628.8 602.4 C 628.6 602.5 627.7 605.3 628.8 604.2 C 627.7 605.5 629.1 606.4 629.3 607.7 C 628.7 608.8 627.5 606.7 628.9 610.8 C 626.8 612.5 630.4 613.1 628.2 614.7 C 628.1 615.7 631.8 617.2 629.7 614.9 C 629.9 615.2 631.7 613.7 631.1 616.9 C 630.6 616.5 626.8 614.7 628.6 619.7 C 628.5 620.5 629.5 622.4 629.1 622.9 C 628.7 620.3 627.4 626.4 628.6 625.8 C 627.8 629.8 629.5 627.5 628.2 630.4 C 628.2 632.8 629.9 629.6 628.9 632.5 C 629.1 634.8 628.2 633.3 628.3 633.0 C 628.1 635.0 628.8 635.7 628.7 636.3 C 628.5 636.8 627.7 637.6 628.7 638.1 C 630.4 640.1 632.1 638.3 633.8 639.2 C 634.6 637.7 632.5 638.5 633.8 637.5 C 632.7 636.8 633.9 637.4 633.6 633.3 C 633.4 633.4 632.6 634.4 632.5 633.4 C 632.7 631.8 635.6 633.0 633.5 630.4 C 632.9 633.4 632.6 626.0 632.0 628.9 C 631.6 625.3 632.2 627.9 632.9 625.3 C 631.0 625.4 635.0 625.1 633.4 624.1 C 634.2 623.9 633.9 619.8 632.7 622.7 C 632.2 618.5 633.3 621.2 634.3 619.7 C 634.4 617.7 631.1 619.5 633.5 618.3 C 634.6 615.8 632.4 618.2 634.2 616.4 C 632.6 617.2 634.2 614.5 632.4 615.2 C 632.3 610.9 634.3 615.8 633.1 612.7 C 633.0 613.7 635.5 613.3 633.9 611.4 C 631.0 612.2 636.4 609.0 632.6 610.3 C 631.5 604.3 634.2 609.3 634.2 606.0 C 634.2 605.2 633.0 606.9 632.9 606.2 C 633.5 601.9 634.5 605.4 632.6 603.2 C 632.1 599.0 634.2 602.0 634.3 599.9 C 633.4 599.8 631.9 598.1 633.9 597.7 M 633.0 601.4 C 633.6 602.3 632.4 602.0 633.0 601.4 M 633.9 593.0 C 634.5 593.8 633.3 593.5 633.9 593.0 M 633.6 604.9 C 634.2 606.1 632.6 605.3 633.6 604.9 M 632.6 627.7 C 632.6 626.1 633.1 628.4 632.6 627.7 M 634.0 596.3 C 634.7 597.6 633.0 596.7 634.0 596.3 M 632.5 594.8 C 632.5 594.9 632.5 594.9 632.5 594.8 M 634.2 629.9 C 634.1 630.0 634.1 630.0 634.2 629.9 M 634.2 623.8 C 634.2 625.1 633.8 623.1 634.2 623.8 M 627.9 623.6 C 627.9 624.9 627.5 622.8 627.9 623.6 M 634.3 633.2 C 634.7 634.5 633.6 633.6 634.3 633.2 M 632.9 636.6 C 633.4 637.8 632.2 637.4 632.9 636.6 M 630.8 600.7 C 630.7 600.7 630.7 600.7 630.8 600.7 C 630.8 600.7 630.8 600.7 630.8 600.7 Z M 629.3 611.8 C 629.9 610.5 628.5 613.5 629.3 611.8 M 633.4 609.8 C 632.1 610.7 633.5 608.1 633.4 609.8 C 633.4 609.8 633.4 609.8 633.4 609.8 Z M 632.8 607.8 C 632.7 607.8 632.7 607.8 632.8 607.8 C 632.8 607.8 632.8 607.8 632.8 607.8 Z M 632.7 614.1 C 632.7 614.1 632.7 614.1 632.7 614.1 C 632.7 614.1 632.7 614.1 632.7 614.1 Z M 632.6 612.8 C 632.3 612.3 632.9 612.1 632.6 612.8 C 632.6 612.8 632.6 612.8 632.6 612.8 Z M 628.6 622.0 C 628.3 621.5 628.8 621.3 628.6 622.0 C 628.6 622.0 628.6 622.0 628.6 622.0 Z M 632.2 610.9 C 630.9 610.7 633.0 610.0 632.2 610.9 C 632.2 610.9 632.2 610.9 632.2 610.9 Z M 629.1 617.6 C 629.5 618.2 627.9 618.8 629.1 617.6 M 633.9 631.2 C 634.3 631.7 632.7 632.4 633.9 631.2 M 634.3 617.8 C 634.7 618.4 633.1 619.0 634.3 617.8 M 633.6 602.2 C 633.4 602.3 633.4 602.3 633.6 602.2 M 628.0 609.6 C 628.5 610.4 627.5 610.0 628.0 609.6 M 628.5 597.0 C 628.9 597.9 627.9 597.4 628.5 597.0 M 628.1 629.3 C 628.4 629.3 627.9 630.7 628.1 629.3 M 632.3 619.4 C 632.1 620.6 631.4 621.8 631.5 619.3 C 631.8 619.2 632.0 619.9 632.3 619.4 C 632.3 619.4 632.3 619.4 632.3 619.4 Z M 629.4 623.6 C 629.2 623.8 629.2 623.8 629.4 623.6 M 633.4 621.5 C 633.3 621.7 633.3 621.7 633.4 621.5 M 633.3 628.3 C 633.1 628.5 633.1 628.5 633.3 628.3 M 633.7 629.2 C 633.6 629.2 633.6 629.2 633.7 629.2 C 633.7 629.2 633.7 629.2 633.7 629.2 Z M 634.2 636.7 C 634.2 636.6 634.2 636.6 634.2 636.7 C 634.2 636.7 634.2 636.7 634.2 636.7 Z M 633.2 626.1 C 633.1 626.1 633.1 626.1 633.2 626.1 C 633.2 626.1 633.2 626.1 633.2 626.1 Z M 628.3 632.3 C 628.3 632.3 628.3 632.3 628.3 632.3 C 628.3 632.3 628.3 632.3 628.3 632.3 Z M 629.1 631.5 C 629.0 631.6 629.0 631.6 629.1 631.5 C 629.1 631.5 629.1 631.5 629.1 631.5 Z M 633.9 598.3 C 634.8 599.3 631.7 598.8 633.9 598.3 M 629.1 634.9 C 628.2 635.9 628.9 633.1 629.1 634.9 C 629.1 634.9 629.1 634.9 629.1 634.9 Z M 632.1 625.3 C 631.9 625.4 631.9 625.4 632.1 625.3 M 633.6 629.6 C 633.4 629.7 633.4 629.7 633.6 629.6 M 634.5 609.7 C 634.4 609.8 634.4 609.8 634.5 609.7 M 633.3 634.9 C 633.0 638.1 631.5 633.4 633.3 634.9 M 633.3 608.3 C 633.4 608.2 633.4 608.2 633.3 608.3 M 630.9 615.4 C 631.0 617.6 630.2 614.7 630.9 615.4 M 632.6 620.9 C 632.5 620.8 632.5 620.8 632.6 620.9 C 632.6 620.9 632.6 620.9 632.6 620.9 Z M 632.5 617.7 C 632.4 616.2 632.9 617.3 632.5 617.7 C 632.5 617.7 632.5 617.7 632.5 617.7 Z M 632.7 599.8 C 632.6 601.8 632.3 597.7 632.7 599.8 C 632.7 599.8 632.7 599.8 632.7 599.8 Z M 630.4 633.4 C 630.3 633.3 630.3 633.3 630.4 633.4 C 630.4 633.4 630.4 633.4 630.4 633.4 Z M 634.1 625.8 C 633.7 624.8 634.4 625.3 634.1 625.8 C 634.1 625.8 634.1 625.8 634.1 625.8 Z M 634.2 637.8 C 633.9 636.8 634.6 637.3 634.2 637.8 C 634.2 637.8 634.2 637.8 634.2 637.8 Z M 633.0 597.4 C 630.8 604.8 633.5 587.5 633.0 597.4 C 633.0 597.4 633.0 597.4 633.0 597.4 Z M 633.4 619.0 C 633.3 618.9 633.3 618.9 633.4 619.0 C 633.4 619.0 633.4 619.0 633.4 619.0 Z M 634.3 605.3 C 634.2 605.3 634.2 605.3 634.3 605.3 C 634.3 605.3 634.3 605.3 634.3 605.3 Z M 633.1 603.0 C 633.1 603.0 633.1 603.0 633.1 603.0 C 633.1 603.0 633.1 603.0 633.1 603.0 Z M 628.2 603.7 C 628.1 603.6 628.1 603.6 628.2 603.7 C 628.2 603.7 628.2 603.7 628.2 603.7 Z M 630.4 604.5 C 630.3 604.4 630.3 604.4 630.4 604.5 C 630.4 604.5 630.4 604.5 630.4 604.5 Z M 629.6 599.7 C 629.5 599.6 629.5 599.6 629.6 599.7 C 629.6 599.7 629.6 599.7 629.6 599.7 Z M 628.9 599.8 C 628.9 599.8 628.9 599.8 628.9 599.8 C 628.9 599.8 628.9 599.8 628.9 599.8 Z M 632.2 629.6 C 632.1 629.5 632.1 629.5 632.2 629.6 C 632.2 629.6 632.2 629.6 632.2 629.6 Z M 630.1 627.1 C 630.8 628.8 629.0 626.5 630.1 627.1 C 630.1 627.1 630.1 627.1 630.1 627.1 Z M 631.1 611.8 C 631.4 613.4 630.5 610.8 631.1 611.8 C 631.1 611.8 631.1 611.8 631.1 611.8 Z M 628.4 613.5 C 628.4 613.5 628.4 613.5 628.4 613.5 C 628.4 613.5 628.4 613.5 628.4 613.5 Z M 634.3 603.0 C 634.2 603.0 634.2 603.0 634.3 603.0 C 634.3 603.0 634.3 603.0 634.3 603.0 Z M 633.5 600.1 C 632.4 600.0 634.0 599.2 633.5 600.1 M 634.1 614.8 C 634.0 614.8 634.0 614.8 634.1 614.8 C 634.1 614.8 634.1 614.8 634.1 614.8 Z M 632.4 624.0 C 632.4 624.0 632.4 624.0 632.4 624.0 C 632.4 624.0 632.4 624.0 632.4 624.0 Z M 633.1 633.2 C 633.0 633.2 633.0 633.2 633.1 633.2 C 633.1 633.2 633.1 633.2 633.1 633.2 Z M 634.0 620.5 C 633.8 620.5 633.8 620.5 634.0 620.5 C 634.0 620.5 634.0 620.5 634.0 620.5 Z M 633.0 616.1 C 632.8 616.1 632.8 616.1 633.0 616.1 C 633.0 616.1 633.0 616.1 633.0 616.1 Z M 631.6 635.2 C 631.6 635.1 631.6 635.1 631.6 635.2 C 631.6 635.2 631.6 635.2 631.6 635.2 Z M 634.1 621.5 C 634.1 621.5 634.1 621.5 634.1 621.5 C 634.1 621.5 634.1 621.5 634.1 621.5 Z M 630.8 624.2 C 630.7 624.1 630.7 624.1 630.8 624.2 C 630.8 624.2 630.8 624.2 630.8 624.2 Z M 635.0 600.5 C 634.9 600.5 634.9 600.5 635.0 600.5 C 635.0 600.5 635.0 600.5 635.0 600.5 Z M 633.0 635.3 C 633.0 635.3 633.0 635.3 633.0 635.3 C 633.0 635.3 633.0 635.3 633.0 635.3 Z M 634.0 635.9 C 633.9 635.8 633.9 635.8 634.0 635.9 C 634.0 635.9 634.0 635.9 634.0 635.9 Z M 629.0 629.4 C 629.6 626.1 629.2 632.3 630.4 629.9 C 630.6 634.6 628.9 630.1 629.0 629.4 C 629.0 629.4 629.0 629.4 629.0 629.4 Z M 634.3 640.2 C 632.9 638.4 631.6 638.4 630.1 639.2 C 629.4 640.1 632.2 640.1 629.8 640.1 C 629.4 638.0 626.2 641.0 629.3 640.9 C 629.8 643.7 627.3 641.4 628.6 643.0 C 628.9 645.9 627.9 644.4 628.1 646.6 C 629.8 647.9 627.3 647.9 628.9 648.5 C 627.2 647.4 629.4 650.9 628.6 651.0 C 627.5 648.9 628.6 658.7 629.1 653.4 C 629.9 655.6 628.5 655.2 628.3 655.9 C 629.3 656.8 627.4 659.4 628.5 660.8 C 628.7 660.5 628.8 659.9 629.1 659.7 C 629.8 659.3 629.0 661.2 629.0 661.0 C 629.4 661.8 630.4 665.3 628.6 661.6 C 627.8 661.4 629.0 664.6 628.2 664.5 C 628.2 667.8 629.9 665.3 628.6 666.8 C 628.6 669.1 628.6 670.8 628.8 670.7 C 628.6 672.1 627.7 672.4 628.6 673.7 C 626.8 676.5 632.1 675.7 628.5 676.8 C 629.4 677.6 627.0 678.4 629.3 678.3 C 628.3 677.3 627.5 683.1 629.2 680.6 C 629.7 681.2 626.9 684.9 629.1 684.4 C 630.8 685.7 632.4 685.4 634.0 682.6 C 632.7 682.9 635.3 679.6 633.1 681.7 C 632.4 684.2 632.3 677.2 633.1 678.7 C 635.8 679.1 631.5 675.3 633.4 673.9 C 632.3 675.1 631.8 669.4 633.8 671.1 C 633.9 670.0 633.0 669.8 634.1 668.7 C 634.0 672.0 632.1 667.4 633.3 667.6 C 634.0 668.1 634.6 663.1 633.5 663.6 C 630.8 665.4 634.1 662.3 633.0 661.5 C 632.4 658.7 635.3 661.9 633.3 659.8 C 633.7 659.3 633.7 655.6 634.2 657.9 C 634.0 658.8 631.3 655.7 633.6 655.3 C 634.9 659.3 634.3 650.8 633.6 652.1 C 632.3 658.2 632.1 645.7 633.4 650.5 C 634.7 647.8 633.9 651.3 633.4 647.9 C 632.6 648.4 631.9 645.7 633.4 646.4 C 635.6 645.8 630.4 645.4 633.5 643.4 C 634.8 643.1 632.5 639.3 634.0 640.8 C 634.1 640.9 634.4 640.3 634.3 640.2 M 634.1 641.4 C 633.6 641.0 634.7 640.7 634.1 641.4 M 633.6 640.9 C 633.6 640.9 633.6 640.9 633.6 640.9 C 633.6 640.9 633.6 640.9 633.6 640.9 Z M 633.3 647.4 C 633.3 647.4 633.3 647.4 633.3 647.4 C 633.3 647.4 633.3 647.4 633.3 647.4 Z M 627.7 652.5 C 627.8 652.5 627.8 652.5 627.7 652.5 C 627.7 652.5 627.7 652.5 627.7 652.5 Z M 633.2 651.7 C 633.2 651.7 633.2 651.7 633.2 651.7 C 633.2 651.7 633.2 651.7 633.2 651.7 Z M 632.9 645.1 C 632.9 645.0 632.9 645.0 632.9 645.1 C 632.9 645.1 632.9 645.1 632.9 645.1 Z M 634.0 651.3 C 633.1 651.7 634.6 649.8 634.1 651.4 C 634.0 651.5 634.0 651.2 634.0 651.3 M 634.3 657.0 C 634.2 657.0 634.2 657.0 634.3 657.0 M 627.8 669.4 C 627.7 669.4 627.7 669.4 627.8 669.4 M 634.3 670.4 C 634.3 670.5 634.3 670.5 634.3 670.4 M 633.4 662.6 C 633.6 664.3 633.0 663.0 633.4 662.6 M 633.9 674.9 C 634.4 672.8 634.3 677.3 633.9 674.9 M 634.4 677.1 C 634.3 677.2 634.3 677.2 634.4 677.1 M 634.1 667.3 C 634.0 667.2 634.0 667.2 634.1 667.3 C 634.1 667.3 634.1 667.3 634.1 667.3 Z M 633.8 661.8 C 634.2 659.6 634.6 664.1 633.8 661.8 M 634.1 648.2 C 634.5 649.4 633.0 648.2 634.1 648.2 M 633.6 645.6 C 633.6 645.6 633.6 645.6 633.6 645.6 C 633.6 645.6 633.6 645.6 633.6 645.6 Z M 633.9 671.5 C 633.9 671.4 633.9 671.4 633.9 671.5 C 633.9 671.5 633.9 671.5 633.9 671.5 Z M 634.1 674.0 C 634.1 673.9 634.1 673.9 634.1 674.0 C 634.1 674.0 634.1 674.0 634.1 674.0 Z M 628.0 678.1 C 628.0 678.0 628.0 678.0 628.0 678.1 C 628.0 678.1 628.0 678.1 628.0 678.1 Z M 631.1 647.5 C 631.5 645.8 633.1 649.2 631.6 648.9 C 631.0 649.1 631.2 647.7 631.1 647.5 M 631.9 660.2 C 629.9 660.6 634.8 658.5 631.9 660.2 M 633.0 677.4 C 630.5 679.0 634.7 675.2 633.0 677.4 M 633.4 680.8 C 632.9 681.8 633.2 674.4 633.8 679.6 C 634.2 680.1 633.7 680.4 633.4 680.8 M 633.3 657.0 C 632.1 657.5 633.8 654.4 633.3 657.0 M 629.9 667.4 C 630.6 668.2 631.2 670.4 630.0 669.4 C 628.4 669.4 629.2 666.4 629.9 667.4 M 632.9 641.9 C 634.8 643.3 631.4 641.9 632.9 641.9 M 632.8 648.5 C 632.8 648.5 632.8 648.5 632.8 648.5 C 632.8 648.5 632.8 648.5 632.8 648.5 Z M 633.1 651.1 C 632.9 651.2 632.9 651.2 633.1 651.1 M 634.5 643.0 C 634.4 643.1 634.4 643.1 634.5 643.0 M 631.8 667.4 C 631.6 667.5 631.6 667.5 631.8 667.4 M 633.0 662.1 C 631.2 664.6 632.6 660.7 633.0 662.1 M 629.5 655.9 C 628.6 656.7 629.4 654.3 629.5 655.9 M 633.7 666.2 C 631.9 668.0 632.0 663.8 633.7 666.2 M 633.2 660.8 C 633.2 661.0 633.2 661.0 633.2 660.8 C 633.2 660.8 633.2 660.8 633.2 660.8 Z M 629.7 668.1 C 629.6 668.0 629.6 668.0 629.7 668.1 C 629.7 668.1 629.7 668.1 629.7 668.1 Z M 629.7 668.8 C 629.7 668.8 629.7 668.8 629.7 668.8 C 629.7 668.8 629.7 668.8 629.7 668.8 Z M 633.9 668.4 C 633.8 668.3 633.8 668.3 633.9 668.4 C 633.9 668.4 633.9 668.4 633.9 668.4 Z M 628.9 645.4 C 628.7 647.2 628.6 644.0 628.9 645.4 C 628.9 645.4 628.9 645.4 628.9 645.4 Z M 633.9 653.4 C 632.6 656.3 632.6 651.3 633.9 653.4 C 633.9 653.4 633.9 653.4 633.9 653.4 Z M 631.7 656.7 C 631.6 656.7 631.6 656.7 631.7 656.7 C 631.7 656.7 631.7 656.7 631.7 656.7 Z M 634.7 665.1 C 634.6 665.1 634.6 665.1 634.7 665.1 C 634.7 665.1 634.7 665.1 634.7 665.1 Z M 628.6 646.3 C 628.5 646.3 628.5 646.3 628.6 646.3 C 628.6 646.3 628.6 646.3 628.6 646.3 Z M 632.9 673.5 C 632.8 673.5 632.8 673.5 632.9 673.5 C 632.9 673.5 632.9 673.5 632.9 673.5 Z M 629.4 663.2 C 630.0 663.9 628.9 663.4 629.4 663.2 C 629.4 663.2 629.4 663.2 629.4 663.2 Z M 629.4 665.9 C 629.4 666.0 629.4 666.0 629.4 665.9 C 629.4 665.9 629.4 665.9 629.4 665.9 Z M 634.5 677.7 C 634.5 677.8 634.5 677.8 634.5 677.7 C 634.5 677.7 634.5 677.7 634.5 677.7 Z M 627.8 672.7 C 627.8 672.8 627.8 672.8 627.8 672.7 C 627.8 672.7 627.8 672.7 627.8 672.7 Z M 629.8 675.0 C 629.7 674.9 629.7 674.9 629.8 675.0 C 629.8 675.0 629.8 675.0 629.8 675.0 Z M 633.4 667.9 C 633.8 670.6 632.7 667.3 633.4 667.9 C 633.4 667.9 633.4 667.9 633.4 667.9 Z M 630.3 681.6 C 630.2 681.6 630.2 681.6 630.3 681.6 C 630.3 681.6 630.3 681.6 630.3 681.6 Z M 632.7 682.9 C 632.6 683.0 632.6 683.0 632.7 682.9 C 632.7 682.9 632.7 682.9 632.7 682.9 Z M 633.9 683.6 C 633.8 683.7 633.8 683.7 633.9 683.6 C 633.9 683.6 633.9 683.6 633.9 683.6 Z M 630.5 651.0 C 630.6 651.0 630.6 651.0 630.5 651.0 C 630.5 651.0 630.5 651.0 630.5 651.0 Z M 634.4 650.0 C 634.4 649.9 634.4 649.9 634.4 650.0 C 634.4 650.0 634.4 650.0 634.4 650.0 Z M 634.5 653.6 C 634.6 653.6 634.6 653.6 634.5 653.6 C 634.5 653.6 634.5 653.6 634.5 653.6 Z M 628.2 650.4 C 628.3 650.3 628.3 650.3 628.2 650.4 C 628.2 650.4 628.2 650.4 628.2 650.4 Z M 631.5 664.0 C 631.5 663.9 631.5 663.9 631.5 664.0 C 631.5 664.0 631.5 664.0 631.5 664.0 Z M 629.9 665.2 C 630.0 665.2 630.0 665.2 629.9 665.2 C 629.9 665.2 629.9 665.2 629.9 665.2 Z M 627.9 662.1 C 627.9 662.1 627.9 662.1 627.9 662.1 C 627.9 662.1 627.9 662.1 627.9 662.1 Z M 628.6 666.2 C 628.6 666.2 628.6 666.2 628.6 666.2 C 628.6 666.2 628.6 666.2 628.6 666.2 Z M 628.9 641.3 C 628.9 641.3 628.9 641.3 628.9 641.3 C 628.9 641.3 628.9 641.3 628.9 641.3 Z M 631.9 641.0 C 631.8 640.9 631.8 640.9 631.9 641.0 C 631.9 641.0 631.9 641.0 631.9 641.0 Z M 633.6 664.4 C 634.2 665.0 632.8 665.6 633.6 664.4 M 633.2 659.2 C 633.2 659.2 633.2 659.2 633.2 659.2 C 633.2 659.2 633.2 659.2 633.2 659.2 Z M 633.5 673.1 C 632.3 673.7 634.1 670.6 633.5 673.1 C 633.5 673.1 633.5 673.1 633.5 673.1 Z M 628.6 670.3 C 628.6 670.4 628.6 670.4 628.6 670.3 C 628.6 670.3 628.6 670.3 628.6 670.3 Z M 629.1 671.7 C 629.0 671.8 629.0 671.8 629.1 671.7 C 629.1 671.7 629.1 671.7 629.1 671.7 Z M 632.2 679.2 C 632.1 679.3 632.1 679.3 632.2 679.2 M 634.3 658.5 C 633.7 659.3 633.9 659.2 634.3 658.5 M 633.4 674.8 C 633.4 674.7 633.4 674.7 633.4 674.8 C 633.4 674.8 633.4 674.8 633.4 674.8 Z M 632.9 680.8 C 632.9 680.7 632.9 680.7 632.9 680.8 C 632.9 680.8 632.9 680.8 632.9 680.8 Z M 633.5 654.9 C 632.1 655.0 632.4 654.3 633.5 654.9 M 633.0 644.6 C 632.9 644.6 632.9 644.6 633.0 644.6 C 633.0 644.6 633.0 644.6 633.0 644.6 Z M 633.0 644.6 " fill="#71AFE1"></path></g></svg>