<?xml version="1.0" encoding="UTF-8" standalone="no"?><svg xmlns="http://www.w3.org/2000/svg" xmlns:xlink="http://www.w3.org/1999/xlink" clip-rule="evenodd" stroke-miterlimit="4.00" viewBox="0 0 196 30"><desc>SVG generated by Keynote</desc><defs></defs><g transform="matrix(1.00, 0.00, -0.00, -1.00, 0.0, 30.0)"><text xml:space="preserve" font-family="Courier-Bold" font-weight="bold" font-size="30.0" fill="#008E00" transform="matrix(1.00, 0.00, -0.00, -1.00, 2.0, 8.0)">p</text><text xml:space="preserve" font-family="Courier-Bold" font-weight="bold" font-size="30.0" fill="#008E00" transform="matrix(1.00, 0.00, -0.00, -1.00, 20.0, 8.0)">r</text><text xml:space="preserve" font-family="Courier-Bold" font-weight="bold" font-size="30.0" fill="#008E00" transform="matrix(1.00, 0.00, -0.00, -1.00, 38.0, 8.0)">i</text><text xml:space="preserve" font-family="Courier-Bold" font-weight="bold" font-size="30.0" fill="#008E00" transform="matrix(1.00, 0.00, -0.00, -1.00, 56.0, 8.0)">n</text><text xml:space="preserve" font-family="Courier-Bold" font-weight="bold" font-size="30.0" fill="#008E00" transform="matrix(1.00, 0.00, -0.00, -1.00, 74.0, 8.0)">t</text><text xml:space="preserve" font-family="Courier" font-size="30.0" fill="#000000" transform="matrix(1.00, 0.00, -0.00, -1.00, 92.0, 8.0)">(</text><text xml:space="preserve" font-family="Courier" font-size="30.0" fill="#000000" transform="matrix(1.00, 0.00, -0.00, -1.00, 110.0, 8.0)">i</text><text xml:space="preserve" font-family="Courier" font-size="30.0" fill="#000000" transform="matrix(1.00, 0.00, -0.00, -1.00, 128.0, 8.0)">t</text><text xml:space="preserve" font-family="Courier" font-size="30.0" fill="#000000" transform="matrix(1.00, 0.00, -0.00, -1.00, 146.0, 8.0)">e</text><text xml:space="preserve" font-family="Courier" font-size="30.0" fill="#000000" transform="matrix(1.00, 0.00, -0.00, -1.00, 164.1, 8.0)">m</text><text xml:space="preserve" font-family="Courier" font-size="30.0" fill="#000000" transform="matrix(1.00, 0.00, -0.00, -1.00, 182.1, 8.0)">)</text></g></svg>