<?xml version="1.0" encoding="UTF-8" standalone="no"?><svg xmlns="http://www.w3.org/2000/svg" xmlns:xlink="http://www.w3.org/1999/xlink" clip-rule="evenodd" stroke-miterlimit="4.00" viewBox="0 0 680 334"><desc>SVG generated by Keynote</desc><defs></defs><g transform="matrix(1.00, 0.00, -0.00, -1.00, 0.0, 334.0)"><path d="M 23.7 306.4 L 656.3 306.4 L 656.3 25.6 L 23.7 25.6 Z M 23.7 306.4 " fill="#FEFFFE"></path><image xlink:href="../../FA37723B-2AE7-48BB-AE7F-6B4B40C81602/assets/989F87BA95F87DD4B20992C86CEF9EC1.png" width="677.00" height="331.00" transform="matrix(1.00, 0.00, -0.00, 1.00, 1.7, 1.6)"></image><g><clipPath id="clip-318"><path d="M 21.2 26.6 L 658.8 26.6 L 658.8 305.4 L 21.2 305.4 Z M 21.2 26.6 "></path></clipPath><g clip-path="url(#clip-318)"><text xml:space="preserve" font-family="Courier-Bold" font-weight="bold" font-size="30.0" fill="#008E00" transform="matrix(1.00, 0.00, -0.00, -1.00, 59.0, 227.0)">i</text><text xml:space="preserve" font-family="Courier-Bold" font-weight="bold" font-size="30.0" fill="#008E00" transform="matrix(1.00, 0.00, -0.00, -1.00, 77.0, 227.0)">f</text><text xml:space="preserve" font-family="Courier" font-size="30.0" fill="#000000" transform="matrix(1.00, 0.00, -0.00, -1.00, 95.0, 227.0)"> </text><text xml:space="preserve" font-family="Courier" font-size="30.0" fill="#000000" transform="matrix(1.00, 0.00, -0.00, -1.00, 113.0, 227.0)">x</text><text xml:space="preserve" font-family="Courier" font-size="30.0" fill="#000000" transform="matrix(1.00, 0.00, -0.00, -1.00, 131.0, 227.0)"> </text><text xml:space="preserve" font-family="Courier" font-size="30.0" fill="#797979" transform="matrix(1.00, 0.00, -0.00, -1.00, 149.0, 227.0)">=</text><text xml:space="preserve" font-family="Courier" font-size="30.0" fill="#797979" transform="matrix(1.00, 0.00, -0.00, -1.00, 167.0, 227.0)">=</text><text xml:space="preserve" font-family="Courier" font-size="30.0" fill="#000000" transform="matrix(1.00, 0.00, -0.00, -1.00, 185.0, 227.0)"> </text><text xml:space="preserve" font-family="Courier" font-size="30.0" fill="#000000" transform="matrix(1.00, 0.00, -0.00, -1.00, 203.0, 227.0)">y</text><text xml:space="preserve" font-family="Courier" font-size="30.0" fill="#000000" transform="matrix(1.00, 0.00, -0.00, -1.00, 221.0, 227.0)"> </text><text xml:space="preserve" font-family="Courier-Bold" font-weight="bold" font-size="30.0" fill="#BA49FF" transform="matrix(1.00, 0.00, -0.00, -1.00, 239.0, 227.0)">a</text><text xml:space="preserve" font-family="Courier-Bold" font-weight="bold" font-size="30.0" fill="#BA49FF" transform="matrix(1.00, 0.00, -0.00, -1.00, 257.0, 227.0)">n</text><text xml:space="preserve" font-family="Courier-Bold" font-weight="bold" font-size="30.0" fill="#BA49FF" transform="matrix(1.00, 0.00, -0.00, -1.00, 275.0, 227.0)">d</text><text xml:space="preserve" font-family="Courier" font-size="30.0" fill="#000000" transform="matrix(1.00, 0.00, -0.00, -1.00, 293.0, 227.0)"> </text><text xml:space="preserve" font-family="Courier" font-size="30.0" fill="#000000" transform="matrix(1.00, 0.00, -0.00, -1.00, 311.0, 227.0)">a</text><text xml:space="preserve" font-family="Courier" font-size="30.0" fill="#000000" transform="matrix(1.00, 0.00, -0.00, -1.00, 329.0, 227.0)"> </text><text xml:space="preserve" font-family="Courier" font-size="30.0" fill="#797979" transform="matrix(1.00, 0.00, -0.00, -1.00, 347.0, 227.0)">&gt;</text><text xml:space="preserve" font-family="Courier" font-size="30.0" fill="#797979" transform="matrix(1.00, 0.00, -0.00, -1.00, 365.1, 227.0)">=</text><text xml:space="preserve" font-family="Courier" font-size="30.0" fill="#000000" transform="matrix(1.00, 0.00, -0.00, -1.00, 383.1, 227.0)"> </text><text xml:space="preserve" font-family="Courier" font-size="30.0" fill="#000000" transform="matrix(1.00, 0.00, -0.00, -1.00, 401.1, 227.0)">b</text><text xml:space="preserve" font-family="Courier" font-size="30.0" fill="#000000" transform="matrix(1.00, 0.00, -0.00, -1.00, 419.1, 227.0)"> </text><text xml:space="preserve" font-family="Courier-Bold" font-weight="bold" font-size="30.0" fill="#BA49FF" transform="matrix(1.00, 0.00, -0.00, -1.00, 437.1, 227.0)">a</text><text xml:space="preserve" font-family="Courier-Bold" font-weight="bold" font-size="30.0" fill="#BA49FF" transform="matrix(1.00, 0.00, -0.00, -1.00, 455.1, 227.0)">n</text><text xml:space="preserve" font-family="Courier-Bold" font-weight="bold" font-size="30.0" fill="#BA49FF" transform="matrix(1.00, 0.00, -0.00, -1.00, 473.1, 227.0)">d</text><text xml:space="preserve" font-family="Courier" font-size="30.0" fill="#000000" transform="matrix(1.00, 0.00, -0.00, -1.00, 491.1, 227.0)"> </text><text xml:space="preserve" font-family="Courier" font-size="30.0" fill="#000000" transform="matrix(1.00, 0.00, -0.00, -1.00, 509.1, 227.0)">e</text><text xml:space="preserve" font-family="Courier" font-size="30.0" fill="#000000" transform="matrix(1.00, 0.00, -0.00, -1.00, 527.1, 227.0)"> </text><text xml:space="preserve" font-family="Courier" font-size="30.0" fill="#797979" transform="matrix(1.00, 0.00, -0.00, -1.00, 545.1, 227.0)">&lt;</text><text xml:space="preserve" font-family="Courier" font-size="30.0" fill="#000000" transform="matrix(1.00, 0.00, -0.00, -1.00, 563.1, 227.0)"> </text><text xml:space="preserve" font-family="Courier" font-size="30.0" fill="#000000" transform="matrix(1.00, 0.00, -0.00, -1.00, 581.1, 227.0)">f</text><text xml:space="preserve" font-family="Courier" font-size="30.0" fill="#000000" transform="matrix(1.00, 0.00, -0.00, -1.00, 599.1, 227.0)">:</text><text xml:space="preserve" font-family="Courier" font-size="30.0" fill="#000000" transform="matrix(1.00, 0.00, -0.00, -1.00, 59.0, 191.0)"> </text><text xml:space="preserve" font-family="Courier" font-size="30.0" fill="#000000" transform="matrix(1.00, 0.00, -0.00, -1.00, 77.0, 191.0)"> </text><text xml:space="preserve" font-family="Courier" font-size="30.0" fill="#000000" transform="matrix(1.00, 0.00, -0.00, -1.00, 95.0, 191.0)"> </text><text xml:space="preserve" font-family="Courier" font-size="30.0" fill="#000000" transform="matrix(1.00, 0.00, -0.00, -1.00, 113.0, 191.0)"> </text><text xml:space="preserve" font-family="Courier-Bold" font-weight="bold" font-size="30.0" fill="#008E00" transform="matrix(1.00, 0.00, -0.00, -1.00, 131.0, 191.0)">p</text><text xml:space="preserve" font-family="Courier-Bold" font-weight="bold" font-size="30.0" fill="#008E00" transform="matrix(1.00, 0.00, -0.00, -1.00, 149.0, 191.0)">r</text><text xml:space="preserve" font-family="Courier-Bold" font-weight="bold" font-size="30.0" fill="#008E00" transform="matrix(1.00, 0.00, -0.00, -1.00, 167.0, 191.0)">i</text><text xml:space="preserve" font-family="Courier-Bold" font-weight="bold" font-size="30.0" fill="#008E00" transform="matrix(1.00, 0.00, -0.00, -1.00, 185.0, 191.0)">n</text><text xml:space="preserve" font-family="Courier-Bold" font-weight="bold" font-size="30.0" fill="#008E00" transform="matrix(1.00, 0.00, -0.00, -1.00, 203.0, 191.0)">t</text><text xml:space="preserve" font-family="Courier" font-size="30.0" fill="#000000" transform="matrix(1.00, 0.00, -0.00, -1.00, 221.0, 191.0)">(</text><text xml:space="preserve" font-family="Courier" font-size="30.0" fill="#C8352B" transform="matrix(1.00, 0.00, -0.00, -1.00, 239.0, 191.0)">'</text><text xml:space="preserve" font-family="Courier" font-size="30.0" fill="#C8352B" transform="matrix(1.00, 0.00, -0.00, -1.00, 257.0, 191.0)">G</text><text xml:space="preserve" font-family="Courier" font-size="30.0" fill="#C8352B" transform="matrix(1.00, 0.00, -0.00, -1.00, 275.0, 191.0)">o</text><text xml:space="preserve" font-family="Courier" font-size="30.0" fill="#C8352B" transform="matrix(1.00, 0.00, -0.00, -1.00, 293.0, 191.0)">t</text><text xml:space="preserve" font-family="Courier" font-size="30.0" fill="#C8352B" transform="matrix(1.00, 0.00, -0.00, -1.00, 311.1, 191.0)">c</text><text xml:space="preserve" font-family="Courier" font-size="30.0" fill="#C8352B" transform="matrix(1.00, 0.00, -0.00, -1.00, 329.1, 191.0)">h</text><text xml:space="preserve" font-family="Courier" font-size="30.0" fill="#C8352B" transform="matrix(1.00, 0.00, -0.00, -1.00, 347.1, 191.0)">a</text><text xml:space="preserve" font-family="Courier" font-size="30.0" fill="#C8352B" transform="matrix(1.00, 0.00, -0.00, -1.00, 365.1, 191.0)">'</text><text xml:space="preserve" font-family="Courier" font-size="30.0" fill="#000000" transform="matrix(1.00, 0.00, -0.00, -1.00, 383.1, 191.0)">)</text><text xml:space="preserve" font-family="Courier-Bold" font-weight="bold" font-size="30.0" fill="#008E00" transform="matrix(1.00, 0.00, -0.00, -1.00, 59.0, 155.0)">e</text><text xml:space="preserve" font-family="Courier-Bold" font-weight="bold" font-size="30.0" fill="#008E00" transform="matrix(1.00, 0.00, -0.00, -1.00, 77.0, 155.0)">l</text><text xml:space="preserve" font-family="Courier-Bold" font-weight="bold" font-size="30.0" fill="#008E00" transform="matrix(1.00, 0.00, -0.00, -1.00, 95.0, 155.0)">s</text><text xml:space="preserve" font-family="Courier-Bold" font-weight="bold" font-size="30.0" fill="#008E00" transform="matrix(1.00, 0.00, -0.00, -1.00, 113.0, 155.0)">e</text><text xml:space="preserve" font-family="Courier" font-size="30.0" fill="#000000" transform="matrix(1.00, 0.00, -0.00, -1.00, 131.0, 155.0)">:</text><text xml:space="preserve" font-family="Courier" font-size="30.0" fill="#000000" transform="matrix(1.00, 0.00, -0.00, -1.00, 59.0, 119.0)"> </text><text xml:space="preserve" font-family="Courier" font-size="30.0" fill="#000000" transform="matrix(1.00, 0.00, -0.00, -1.00, 77.0, 119.0)"> </text><text xml:space="preserve" font-family="Courier" font-size="30.0" fill="#000000" transform="matrix(1.00, 0.00, -0.00, -1.00, 95.0, 119.0)"> </text><text xml:space="preserve" font-family="Courier" font-size="30.0" fill="#000000" transform="matrix(1.00, 0.00, -0.00, -1.00, 113.0, 119.0)"> </text><text xml:space="preserve" font-family="Courier-Bold" font-weight="bold" font-size="30.0" fill="#008E00" transform="matrix(1.00, 0.00, -0.00, -1.00, 131.0, 119.0)">p</text><text xml:space="preserve" font-family="Courier-Bold" font-weight="bold" font-size="30.0" fill="#008E00" transform="matrix(1.00, 0.00, -0.00, -1.00, 149.0, 119.0)">r</text><text xml:space="preserve" font-family="Courier-Bold" font-weight="bold" font-size="30.0" fill="#008E00" transform="matrix(1.00, 0.00, -0.00, -1.00, 167.0, 119.0)">i</text><text xml:space="preserve" font-family="Courier-Bold" font-weight="bold" font-size="30.0" fill="#008E00" transform="matrix(1.00, 0.00, -0.00, -1.00, 185.0, 119.0)">n</text><text xml:space="preserve" font-family="Courier-Bold" font-weight="bold" font-size="30.0" fill="#008E00" transform="matrix(1.00, 0.00, -0.00, -1.00, 203.0, 119.0)">t</text><text xml:space="preserve" font-family="Courier" font-size="30.0" fill="#000000" transform="matrix(1.00, 0.00, -0.00, -1.00, 221.0, 119.0)">(</text><text xml:space="preserve" font-family="Courier" font-size="30.0" fill="#C8352B" transform="matrix(1.00, 0.00, -0.00, -1.00, 239.0, 119.0)">'</text><text xml:space="preserve" font-family="Courier" font-size="30.0" fill="#C8352B" transform="matrix(1.00, 0.00, -0.00, -1.00, 257.0, 119.0)">N</text><text xml:space="preserve" font-family="Courier" font-size="30.0" fill="#C8352B" transform="matrix(1.00, 0.00, -0.00, -1.00, 275.0, 119.0)">o</text><text xml:space="preserve" font-family="Courier" font-size="30.0" fill="#C8352B" transform="matrix(1.00, 0.00, -0.00, -1.00, 293.0, 119.0)">t</text><text xml:space="preserve" font-family="Courier" font-size="30.0" fill="#C8352B" transform="matrix(1.00, 0.00, -0.00, -1.00, 311.1, 119.0)"> </text><text xml:space="preserve" font-family="Courier" font-size="30.0" fill="#C8352B" transform="matrix(1.00, 0.00, -0.00, -1.00, 329.1, 119.0)">y</text><text xml:space="preserve" font-family="Courier" font-size="30.0" fill="#C8352B" transform="matrix(1.00, 0.00, -0.00, -1.00, 347.1, 119.0)">o</text><text xml:space="preserve" font-family="Courier" font-size="30.0" fill="#C8352B" transform="matrix(1.00, 0.00, -0.00, -1.00, 365.1, 119.0)">u</text><text xml:space="preserve" font-family="Courier" font-size="30.0" fill="#C8352B" transform="matrix(1.00, 0.00, -0.00, -1.00, 383.1, 119.0)">'</text><text xml:space="preserve" font-family="Courier" font-size="30.0" fill="#000000" transform="matrix(1.00, 0.00, -0.00, -1.00, 401.1, 119.0)">)</text></g></g></g></svg>