<?xml version="1.0" encoding="UTF-8" standalone="no"?><svg xmlns="http://www.w3.org/2000/svg" xmlns:xlink="http://www.w3.org/1999/xlink" clip-rule="evenodd" stroke-miterlimit="4.00" viewBox="0 0 638 21"><desc>SVG generated by Keynote</desc><defs></defs><g transform="matrix(1.00, 0.00, -0.00, -1.00, 0.0, 21.0)"><text xml:space="preserve" font-family="Courier-Bold" font-weight="bold" font-size="19.0" fill="#008E00" transform="matrix(1.00, 0.00, -0.00, -1.00, -0.4, 6.0)">f</text><text xml:space="preserve" font-family="Courier-Bold" font-weight="bold" font-size="19.0" fill="#008E00" transform="matrix(1.00, 0.00, -0.00, -1.00, 11.0, 6.0)">o</text><text xml:space="preserve" font-family="Courier-Bold" font-weight="bold" font-size="19.0" fill="#008E00" transform="matrix(1.00, 0.00, -0.00, -1.00, 22.4, 6.0)">r</text><text xml:space="preserve" font-family="Courier" font-size="19.0" fill="#000000" transform="matrix(1.00, 0.00, -0.00, -1.00, 33.8, 6.0)"> </text><text xml:space="preserve" font-family="Courier" font-size="19.0" fill="#000000" transform="matrix(1.00, 0.00, -0.00, -1.00, 45.2, 6.0)">l</text><text xml:space="preserve" font-family="Courier" font-size="19.0" fill="#000000" transform="matrix(1.00, 0.00, -0.00, -1.00, 56.6, 6.0)">i</text><text xml:space="preserve" font-family="Courier" font-size="19.0" fill="#000000" transform="matrix(1.00, 0.00, -0.00, -1.00, 68.0, 6.0)">n</text><text xml:space="preserve" font-family="Courier" font-size="19.0" fill="#000000" transform="matrix(1.00, 0.00, -0.00, -1.00, 79.4, 6.0)">e</text><text xml:space="preserve" font-family="Courier" font-size="19.0" fill="#000000" transform="matrix(1.00, 0.00, -0.00, -1.00, 90.8, 6.0)"> </text><text xml:space="preserve" font-family="Courier-Bold" font-weight="bold" font-size="19.0" fill="#BA49FF" transform="matrix(1.00, 0.00, -0.00, -1.00, 102.2, 6.0)">i</text><text xml:space="preserve" font-family="Courier-Bold" font-weight="bold" font-size="19.0" fill="#BA49FF" transform="matrix(1.00, 0.00, -0.00, -1.00, 113.6, 6.0)">n</text><text xml:space="preserve" font-family="Courier" font-size="19.0" fill="#000000" transform="matrix(1.00, 0.00, -0.00, -1.00, 125.0, 6.0)"> </text><text xml:space="preserve" font-family="Courier" font-size="19.0" fill="#000000" transform="matrix(1.00, 0.00, -0.00, -1.00, 136.4, 6.0)">t</text><text xml:space="preserve" font-family="Courier" font-size="19.0" fill="#000000" transform="matrix(1.00, 0.00, -0.00, -1.00, 147.8, 6.0)">h</text><text xml:space="preserve" font-family="Courier" font-size="19.0" fill="#000000" transform="matrix(1.00, 0.00, -0.00, -1.00, 159.2, 6.0)">e</text><text xml:space="preserve" font-family="Courier" font-size="19.0" fill="#000000" transform="matrix(1.00, 0.00, -0.00, -1.00, 170.6, 6.0)">_</text><text xml:space="preserve" font-family="Courier" font-size="19.0" fill="#000000" transform="matrix(1.00, 0.00, -0.00, -1.00, 182.0, 6.0)">f</text><text xml:space="preserve" font-family="Courier" font-size="19.0" fill="#000000" transform="matrix(1.00, 0.00, -0.00, -1.00, 193.5, 6.0)">i</text><text xml:space="preserve" font-family="Courier" font-size="19.0" fill="#000000" transform="matrix(1.00, 0.00, -0.00, -1.00, 204.9, 6.0)">l</text><text xml:space="preserve" font-family="Courier" font-size="19.0" fill="#000000" transform="matrix(1.00, 0.00, -0.00, -1.00, 216.3, 6.0)">e</text><text xml:space="preserve" font-family="Courier" font-size="19.0" fill="#000000" transform="matrix(1.00, 0.00, -0.00, -1.00, 227.7, 6.0)">:</text><text xml:space="preserve" font-family="Courier" font-size="19.0" fill="#000000" transform="matrix(1.00, 0.00, -0.00, -1.00, 239.1, 6.0)"> </text><text xml:space="preserve" font-family="Courier" font-size="19.0" fill="#000000" transform="matrix(1.00, 0.00, -0.00, -1.00, 250.5, 6.0)"> </text><text xml:space="preserve" font-family="Courier" font-size="19.0" fill="#000000" transform="matrix(1.00, 0.00, -0.00, -1.00, 261.9, 6.0)"> </text><text xml:space="preserve" font-family="Courier" font-size="19.0" fill="#000000" transform="matrix(1.00, 0.00, -0.00, -1.00, 273.3, 6.0)"> </text><text xml:space="preserve" font-family="Courier" font-size="19.0" fill="#000000" transform="matrix(1.00, 0.00, -0.00, -1.00, 284.7, 6.0)"> </text><text xml:space="preserve" font-family="Courier-Oblique" font-style="italic" font-size="19.0" fill="#4E9192" transform="matrix(1.00, 0.00, -0.00, -1.00, 296.1, 6.0)">#</text><text xml:space="preserve" font-family="Courier-Oblique" font-style="italic" font-size="19.0" fill="#4E9192" transform="matrix(1.00, 0.00, -0.00, -1.00, 307.5, 6.0)"> </text><text xml:space="preserve" font-family="Courier-Oblique" font-style="italic" font-size="19.0" fill="#4E9192" transform="matrix(1.00, 0.00, -0.00, -1.00, 318.9, 6.0)">t</text><text xml:space="preserve" font-family="Courier-Oblique" font-style="italic" font-size="19.0" fill="#4E9192" transform="matrix(1.00, 0.00, -0.00, -1.00, 330.3, 6.0)">h</text><text xml:space="preserve" font-family="Courier-Oblique" font-style="italic" font-size="19.0" fill="#4E9192" transform="matrix(1.00, 0.00, -0.00, -1.00, 341.7, 6.0)">e</text><text xml:space="preserve" font-family="Courier-Oblique" font-style="italic" font-size="19.0" fill="#4E9192" transform="matrix(1.00, 0.00, -0.00, -1.00, 353.1, 6.0)">_</text><text xml:space="preserve" font-family="Courier-Oblique" font-style="italic" font-size="19.0" fill="#4E9192" transform="matrix(1.00, 0.00, -0.00, -1.00, 364.5, 6.0)">f</text><text xml:space="preserve" font-family="Courier-Oblique" font-style="italic" font-size="19.0" fill="#4E9192" transform="matrix(1.00, 0.00, -0.00, -1.00, 375.9, 6.0)">i</text><text xml:space="preserve" font-family="Courier-Oblique" font-style="italic" font-size="19.0" fill="#4E9192" transform="matrix(1.00, 0.00, -0.00, -1.00, 387.3, 6.0)">l</text><text xml:space="preserve" font-family="Courier-Oblique" font-style="italic" font-size="19.0" fill="#4E9192" transform="matrix(1.00, 0.00, -0.00, -1.00, 398.7, 6.0)">e</text><text xml:space="preserve" font-family="Courier-Oblique" font-style="italic" font-size="19.0" fill="#4E9192" transform="matrix(1.00, 0.00, -0.00, -1.00, 410.1, 6.0)"> </text><text xml:space="preserve" font-family="Courier-Oblique" font-style="italic" font-size="19.0" fill="#4E9192" transform="matrix(1.00, 0.00, -0.00, -1.00, 421.5, 6.0)">i</text><text xml:space="preserve" font-family="Courier-Oblique" font-style="italic" font-size="19.0" fill="#4E9192" transform="matrix(1.00, 0.00, -0.00, -1.00, 432.9, 6.0)">s</text><text xml:space="preserve" font-family="Courier-Oblique" font-style="italic" font-size="19.0" fill="#4E9192" transform="matrix(1.00, 0.00, -0.00, -1.00, 444.3, 6.0)"> </text><text xml:space="preserve" font-family="Courier-Oblique" font-style="italic" font-size="19.0" fill="#4E9192" transform="matrix(1.00, 0.00, -0.00, -1.00, 455.7, 6.0)">i</text><text xml:space="preserve" font-family="Courier-Oblique" font-style="italic" font-size="19.0" fill="#4E9192" transform="matrix(1.00, 0.00, -0.00, -1.00, 467.1, 6.0)">t</text><text xml:space="preserve" font-family="Courier-Oblique" font-style="italic" font-size="19.0" fill="#4E9192" transform="matrix(1.00, 0.00, -0.00, -1.00, 478.5, 6.0)">e</text><text xml:space="preserve" font-family="Courier-Oblique" font-style="italic" font-size="19.0" fill="#4E9192" transform="matrix(1.00, 0.00, -0.00, -1.00, 489.9, 6.0)">r</text><text xml:space="preserve" font-family="Courier-Oblique" font-style="italic" font-size="19.0" fill="#4E9192" transform="matrix(1.00, 0.00, -0.00, -1.00, 501.3, 6.0)">a</text><text xml:space="preserve" font-family="Courier-Oblique" font-style="italic" font-size="19.0" fill="#4E9192" transform="matrix(1.00, 0.00, -0.00, -1.00, 512.7, 6.0)">b</text><text xml:space="preserve" font-family="Courier-Oblique" font-style="italic" font-size="19.0" fill="#4E9192" transform="matrix(1.00, 0.00, -0.00, -1.00, 524.1, 6.0)">l</text><text xml:space="preserve" font-family="Courier-Oblique" font-style="italic" font-size="19.0" fill="#4E9192" transform="matrix(1.00, 0.00, -0.00, -1.00, 535.5, 6.0)">e</text><text xml:space="preserve" font-family="Courier-Oblique" font-style="italic" font-size="19.0" fill="#4E9192" transform="matrix(1.00, 0.00, -0.00, -1.00, 546.9, 6.0)">,</text><text xml:space="preserve" font-family="Courier-Oblique" font-style="italic" font-size="19.0" fill="#4E9192" transform="matrix(1.00, 0.00, -0.00, -1.00, 558.3, 6.0)"> </text><text xml:space="preserve" font-family="Courier-Oblique" font-style="italic" font-size="19.0" fill="#4E9192" transform="matrix(1.00, 0.00, -0.00, -1.00, 569.7, 6.0)">y</text><text xml:space="preserve" font-family="Courier-Oblique" font-style="italic" font-size="19.0" fill="#4E9192" transform="matrix(1.00, 0.00, -0.00, -1.00, 581.1, 6.0)">e</text><text xml:space="preserve" font-family="Courier-Oblique" font-style="italic" font-size="19.0" fill="#4E9192" transform="matrix(1.00, 0.00, -0.00, -1.00, 592.6, 6.0)">i</text><text xml:space="preserve" font-family="Courier-Oblique" font-style="italic" font-size="19.0" fill="#4E9192" transform="matrix(1.00, 0.00, -0.00, -1.00, 604.0, 6.0)">i</text><text xml:space="preserve" font-family="Courier-Oblique" font-style="italic" font-size="19.0" fill="#4E9192" transform="matrix(1.00, 0.00, -0.00, -1.00, 615.4, 6.0)"> </text><text xml:space="preserve" font-family="Courier-Oblique" font-style="italic" font-size="19.0" fill="#4E9192" transform="matrix(1.00, 0.00, -0.00, -1.00, 626.8, 6.0)">!</text></g></svg>