<?xml version="1.0" encoding="UTF-8" standalone="no"?><svg xmlns="http://www.w3.org/2000/svg" xmlns:xlink="http://www.w3.org/1999/xlink" clip-rule="evenodd" stroke-miterlimit="4.00" viewBox="0 0 750 144"><desc>SVG generated by Keynote</desc><defs></defs><g transform="matrix(1.00, 0.00, -0.00, -1.00, 0.0, 144.0)"><path d="M 23.4 116.1 L 726.6 116.1 L 726.6 25.9 L 23.4 25.9 Z M 23.4 116.1 " fill="#FEFFFE"></path><image xlink:href="../../C2C1E5BD-749E-46E5-B272-23DC1559A9BA/assets/1E6ACCA5B7885FEECEC9764E5725DEC9.png" width="747.00" height="140.00" transform="matrix(1.00, 0.00, -0.00, 1.00, 1.4, 1.9)"></image><g><clipPath id="clip-38"><path d="M 23.4 26.9 L 726.6 26.9 L 726.6 115.1 L 23.4 115.1 Z M 23.4 26.9 "></path></clipPath><g clip-path="url(#clip-38)"><text xml:space="preserve" font-family="Courier" font-size="20.0" fill="#008E00" transform="matrix(1.00, 0.00, -0.00, -1.00, 141.0, 64.0)">o</text><text xml:space="preserve" font-family="Courier" font-size="20.0" fill="#008E00" transform="matrix(1.00, 0.00, -0.00, -1.00, 153.0, 64.0)">p</text><text xml:space="preserve" font-family="Courier" font-size="20.0" fill="#008E00" transform="matrix(1.00, 0.00, -0.00, -1.00, 165.0, 64.0)">e</text><text xml:space="preserve" font-family="Courier" font-size="20.0" fill="#008E00" transform="matrix(1.00, 0.00, -0.00, -1.00, 177.0, 64.0)">n</text><text xml:space="preserve" font-family="Courier" font-size="20.0" fill="#000000" transform="matrix(1.00, 0.00, -0.00, -1.00, 189.0, 64.0)">(</text><text xml:space="preserve" font-family="Courier" font-size="20.0" fill="#C8352B" transform="matrix(1.00, 0.00, -0.00, -1.00, 201.0, 64.0)">'</text><text xml:space="preserve" font-family="Courier" font-size="20.0" fill="#C8352B" transform="matrix(1.00, 0.00, -0.00, -1.00, 213.0, 64.0)">f</text><text xml:space="preserve" font-family="Courier" font-size="20.0" fill="#C8352B" transform="matrix(1.00, 0.00, -0.00, -1.00, 225.0, 64.0)">i</text><text xml:space="preserve" font-family="Courier" font-size="20.0" fill="#C8352B" transform="matrix(1.00, 0.00, -0.00, -1.00, 237.0, 64.0)">l</text><text xml:space="preserve" font-family="Courier" font-size="20.0" fill="#C8352B" transform="matrix(1.00, 0.00, -0.00, -1.00, 249.0, 64.0)">e</text><text xml:space="preserve" font-family="Courier" font-size="20.0" fill="#C8352B" transform="matrix(1.00, 0.00, -0.00, -1.00, 261.0, 64.0)">n</text><text xml:space="preserve" font-family="Courier" font-size="20.0" fill="#C8352B" transform="matrix(1.00, 0.00, -0.00, -1.00, 273.0, 64.0)">a</text><text xml:space="preserve" font-family="Courier" font-size="20.0" fill="#C8352B" transform="matrix(1.00, 0.00, -0.00, -1.00, 285.0, 64.0)">m</text><text xml:space="preserve" font-family="Courier" font-size="20.0" fill="#C8352B" transform="matrix(1.00, 0.00, -0.00, -1.00, 297.0, 64.0)">e</text><text xml:space="preserve" font-family="Courier" font-size="20.0" fill="#C8352B" transform="matrix(1.00, 0.00, -0.00, -1.00, 309.0, 64.0)">'</text><text xml:space="preserve" font-family="Courier" font-size="20.0" fill="#000000" transform="matrix(1.00, 0.00, -0.00, -1.00, 321.0, 64.0)">,</text><text xml:space="preserve" font-family="Courier" font-size="20.0" fill="#000000" transform="matrix(1.00, 0.00, -0.00, -1.00, 333.0, 64.0)"> </text><text xml:space="preserve" font-family="Courier" font-size="20.0" fill="#C8352B" transform="matrix(1.00, 0.00, -0.00, -1.00, 345.0, 64.0)">'</text><text xml:space="preserve" font-family="Courier" font-size="20.0" fill="#C8352B" transform="matrix(1.00, 0.00, -0.00, -1.00, 357.0, 64.0)">r</text><text xml:space="preserve" font-family="Courier" font-size="20.0" fill="#C8352B" transform="matrix(1.00, 0.00, -0.00, -1.00, 369.0, 64.0)">'</text><text xml:space="preserve" font-family="Courier" font-size="20.0" fill="#000000" transform="matrix(1.00, 0.00, -0.00, -1.00, 381.0, 64.0)">,</text><text xml:space="preserve" font-family="Courier" font-size="20.0" fill="#000000" transform="matrix(1.00, 0.00, -0.00, -1.00, 393.0, 64.0)"> </text><text xml:space="preserve" font-family="Courier" font-size="20.0" fill="#000000" transform="matrix(1.00, 0.00, -0.00, -1.00, 405.0, 64.0)">e</text><text xml:space="preserve" font-family="Courier" font-size="20.0" fill="#000000" transform="matrix(1.00, 0.00, -0.00, -1.00, 417.1, 64.0)">n</text><text xml:space="preserve" font-family="Courier" font-size="20.0" fill="#000000" transform="matrix(1.00, 0.00, -0.00, -1.00, 429.1, 64.0)">c</text><text xml:space="preserve" font-family="Courier" font-size="20.0" fill="#000000" transform="matrix(1.00, 0.00, -0.00, -1.00, 441.1, 64.0)">o</text><text xml:space="preserve" font-family="Courier" font-size="20.0" fill="#000000" transform="matrix(1.00, 0.00, -0.00, -1.00, 453.1, 64.0)">d</text><text xml:space="preserve" font-family="Courier" font-size="20.0" fill="#000000" transform="matrix(1.00, 0.00, -0.00, -1.00, 465.1, 64.0)">i</text><text xml:space="preserve" font-family="Courier" font-size="20.0" fill="#000000" transform="matrix(1.00, 0.00, -0.00, -1.00, 477.1, 64.0)">n</text><text xml:space="preserve" font-family="Courier" font-size="20.0" fill="#000000" transform="matrix(1.00, 0.00, -0.00, -1.00, 489.1, 64.0)">g</text><text xml:space="preserve" font-family="Courier" font-size="20.0" fill="#797979" transform="matrix(1.00, 0.00, -0.00, -1.00, 501.1, 64.0)">=</text><text xml:space="preserve" font-family="Courier" font-size="20.0" fill="#C8352B" transform="matrix(1.00, 0.00, -0.00, -1.00, 513.1, 64.0)">'</text><text xml:space="preserve" font-family="Courier" font-size="20.0" fill="#C8352B" transform="matrix(1.00, 0.00, -0.00, -1.00, 525.1, 64.0)">u</text><text xml:space="preserve" font-family="Courier" font-size="20.0" fill="#C8352B" transform="matrix(1.00, 0.00, -0.00, -1.00, 537.1, 64.0)">t</text><text xml:space="preserve" font-family="Courier" font-size="20.0" fill="#C8352B" transform="matrix(1.00, 0.00, -0.00, -1.00, 549.1, 64.0)">f</text><text xml:space="preserve" font-family="Courier" font-size="20.0" fill="#C8352B" transform="matrix(1.00, 0.00, -0.00, -1.00, 561.1, 64.0)">-</text><text xml:space="preserve" font-family="Courier" font-size="20.0" fill="#C8352B" transform="matrix(1.00, 0.00, -0.00, -1.00, 573.1, 64.0)">8</text><text xml:space="preserve" font-family="Courier" font-size="20.0" fill="#C8352B" transform="matrix(1.00, 0.00, -0.00, -1.00, 585.1, 64.0)">'</text><text xml:space="preserve" font-family="Courier" font-size="20.0" fill="#000000" transform="matrix(1.00, 0.00, -0.00, -1.00, 597.1, 64.0)">)</text></g></g></g></svg>