<?xml version="1.0" encoding="UTF-8" standalone="no"?><svg xmlns="http://www.w3.org/2000/svg" xmlns:xlink="http://www.w3.org/1999/xlink" clip-rule="evenodd" stroke-miterlimit="4.00" viewBox="0 0 652 21"><desc>SVG generated by Keynote</desc><defs></defs><g transform="matrix(1.00, 0.00, -0.00, -1.00, 0.0, 21.0)"><text xml:space="preserve" font-family="Courier-Bold" font-weight="bold" font-size="19.0" fill="#008E00" transform="matrix(1.00, 0.00, -0.00, -1.00, 2.0, 6.0)">w</text><text xml:space="preserve" font-family="Courier-Bold" font-weight="bold" font-size="19.0" fill="#008E00" transform="matrix(1.00, 0.00, -0.00, -1.00, 13.4, 6.0)">i</text><text xml:space="preserve" font-family="Courier-Bold" font-weight="bold" font-size="19.0" fill="#008E00" transform="matrix(1.00, 0.00, -0.00, -1.00, 24.8, 6.0)">t</text><text xml:space="preserve" font-family="Courier-Bold" font-weight="bold" font-size="19.0" fill="#008E00" transform="matrix(1.00, 0.00, -0.00, -1.00, 36.2, 6.0)">h</text><text xml:space="preserve" font-family="Courier" font-size="19.0" fill="#000000" transform="matrix(1.00, 0.00, -0.00, -1.00, 47.6, 6.0)"> </text><text xml:space="preserve" font-family="Courier" font-size="19.0" fill="#008E00" transform="matrix(1.00, 0.00, -0.00, -1.00, 59.0, 6.0)">o</text><text xml:space="preserve" font-family="Courier" font-size="19.0" fill="#008E00" transform="matrix(1.00, 0.00, -0.00, -1.00, 70.4, 6.0)">p</text><text xml:space="preserve" font-family="Courier" font-size="19.0" fill="#008E00" transform="matrix(1.00, 0.00, -0.00, -1.00, 81.8, 6.0)">e</text><text xml:space="preserve" font-family="Courier" font-size="19.0" fill="#008E00" transform="matrix(1.00, 0.00, -0.00, -1.00, 93.2, 6.0)">n</text><text xml:space="preserve" font-family="Courier" font-size="19.0" fill="#000000" transform="matrix(1.00, 0.00, -0.00, -1.00, 104.6, 6.0)">(</text><text xml:space="preserve" font-family="Courier" font-size="19.0" fill="#C8352B" transform="matrix(1.00, 0.00, -0.00, -1.00, 116.0, 6.0)">'</text><text xml:space="preserve" font-family="Courier" font-size="19.0" fill="#C8352B" transform="matrix(1.00, 0.00, -0.00, -1.00, 127.4, 6.0)">f</text><text xml:space="preserve" font-family="Courier" font-size="19.0" fill="#C8352B" transform="matrix(1.00, 0.00, -0.00, -1.00, 138.8, 6.0)">i</text><text xml:space="preserve" font-family="Courier" font-size="19.0" fill="#C8352B" transform="matrix(1.00, 0.00, -0.00, -1.00, 150.2, 6.0)">l</text><text xml:space="preserve" font-family="Courier" font-size="19.0" fill="#C8352B" transform="matrix(1.00, 0.00, -0.00, -1.00, 161.6, 6.0)">e</text><text xml:space="preserve" font-family="Courier" font-size="19.0" fill="#C8352B" transform="matrix(1.00, 0.00, -0.00, -1.00, 173.0, 6.0)">n</text><text xml:space="preserve" font-family="Courier" font-size="19.0" fill="#C8352B" transform="matrix(1.00, 0.00, -0.00, -1.00, 184.4, 6.0)">a</text><text xml:space="preserve" font-family="Courier" font-size="19.0" fill="#C8352B" transform="matrix(1.00, 0.00, -0.00, -1.00, 195.8, 6.0)">m</text><text xml:space="preserve" font-family="Courier" font-size="19.0" fill="#C8352B" transform="matrix(1.00, 0.00, -0.00, -1.00, 207.2, 6.0)">e</text><text xml:space="preserve" font-family="Courier" font-size="19.0" fill="#C8352B" transform="matrix(1.00, 0.00, -0.00, -1.00, 218.7, 6.0)">'</text><text xml:space="preserve" font-family="Courier" font-size="19.0" fill="#000000" transform="matrix(1.00, 0.00, -0.00, -1.00, 230.0, 6.0)">,</text><text xml:space="preserve" font-family="Courier" font-size="19.0" fill="#000000" transform="matrix(1.00, 0.00, -0.00, -1.00, 241.4, 6.0)"> </text><text xml:space="preserve" font-family="Courier" font-size="19.0" fill="#C8352B" transform="matrix(1.00, 0.00, -0.00, -1.00, 252.8, 6.0)">'</text><text xml:space="preserve" font-family="Courier" font-size="19.0" fill="#C8352B" transform="matrix(1.00, 0.00, -0.00, -1.00, 264.2, 6.0)">r</text><text xml:space="preserve" font-family="Courier" font-size="19.0" fill="#C8352B" transform="matrix(1.00, 0.00, -0.00, -1.00, 275.6, 6.0)">'</text><text xml:space="preserve" font-family="Courier" font-size="19.0" fill="#000000" transform="matrix(1.00, 0.00, -0.00, -1.00, 287.0, 6.0)">,</text><text xml:space="preserve" font-family="Courier" font-size="19.0" fill="#000000" transform="matrix(1.00, 0.00, -0.00, -1.00, 298.5, 6.0)"> </text><text xml:space="preserve" font-family="Courier" font-size="19.0" fill="#000000" transform="matrix(1.00, 0.00, -0.00, -1.00, 309.9, 6.0)">e</text><text xml:space="preserve" font-family="Courier" font-size="19.0" fill="#000000" transform="matrix(1.00, 0.00, -0.00, -1.00, 321.3, 6.0)">n</text><text xml:space="preserve" font-family="Courier" font-size="19.0" fill="#000000" transform="matrix(1.00, 0.00, -0.00, -1.00, 332.7, 6.0)">c</text><text xml:space="preserve" font-family="Courier" font-size="19.0" fill="#000000" transform="matrix(1.00, 0.00, -0.00, -1.00, 344.1, 6.0)">o</text><text xml:space="preserve" font-family="Courier" font-size="19.0" fill="#000000" transform="matrix(1.00, 0.00, -0.00, -1.00, 355.5, 6.0)">d</text><text xml:space="preserve" font-family="Courier" font-size="19.0" fill="#000000" transform="matrix(1.00, 0.00, -0.00, -1.00, 366.9, 6.0)">i</text><text xml:space="preserve" font-family="Courier" font-size="19.0" fill="#000000" transform="matrix(1.00, 0.00, -0.00, -1.00, 378.3, 6.0)">n</text><text xml:space="preserve" font-family="Courier" font-size="19.0" fill="#000000" transform="matrix(1.00, 0.00, -0.00, -1.00, 389.7, 6.0)">g</text><text xml:space="preserve" font-family="Courier" font-size="19.0" fill="#797979" transform="matrix(1.00, 0.00, -0.00, -1.00, 401.1, 6.0)">=</text><text xml:space="preserve" font-family="Courier" font-size="19.0" fill="#C8352B" transform="matrix(1.00, 0.00, -0.00, -1.00, 412.5, 6.0)">'</text><text xml:space="preserve" font-family="Courier" font-size="19.0" fill="#C8352B" transform="matrix(1.00, 0.00, -0.00, -1.00, 423.9, 6.0)">u</text><text xml:space="preserve" font-family="Courier" font-size="19.0" fill="#C8352B" transform="matrix(1.00, 0.00, -0.00, -1.00, 435.3, 6.0)">t</text><text xml:space="preserve" font-family="Courier" font-size="19.0" fill="#C8352B" transform="matrix(1.00, 0.00, -0.00, -1.00, 446.7, 6.0)">f</text><text xml:space="preserve" font-family="Courier" font-size="19.0" fill="#C8352B" transform="matrix(1.00, 0.00, -0.00, -1.00, 458.1, 6.0)">-</text><text xml:space="preserve" font-family="Courier" font-size="19.0" fill="#C8352B" transform="matrix(1.00, 0.00, -0.00, -1.00, 469.5, 6.0)">8</text><text xml:space="preserve" font-family="Courier" font-size="19.0" fill="#C8352B" transform="matrix(1.00, 0.00, -0.00, -1.00, 480.9, 6.0)">'</text><text xml:space="preserve" font-family="Courier" font-size="19.0" fill="#000000" transform="matrix(1.00, 0.00, -0.00, -1.00, 492.3, 6.0)">)</text><text xml:space="preserve" font-family="Courier" font-size="19.0" fill="#000000" transform="matrix(1.00, 0.00, -0.00, -1.00, 503.7, 6.0)"> </text><text xml:space="preserve" font-family="Courier-Bold" font-weight="bold" font-size="19.0" fill="#008E00" transform="matrix(1.00, 0.00, -0.00, -1.00, 515.1, 6.0)">a</text><text xml:space="preserve" font-family="Courier-Bold" font-weight="bold" font-size="19.0" fill="#008E00" transform="matrix(1.00, 0.00, -0.00, -1.00, 526.5, 6.0)">s</text><text xml:space="preserve" font-family="Courier" font-size="19.0" fill="#000000" transform="matrix(1.00, 0.00, -0.00, -1.00, 537.9, 6.0)"> </text><text xml:space="preserve" font-family="Courier" font-size="19.0" fill="#000000" transform="matrix(1.00, 0.00, -0.00, -1.00, 549.3, 6.0)">t</text><text xml:space="preserve" font-family="Courier" font-size="19.0" fill="#000000" transform="matrix(1.00, 0.00, -0.00, -1.00, 560.7, 6.0)">h</text><text xml:space="preserve" font-family="Courier" font-size="19.0" fill="#000000" transform="matrix(1.00, 0.00, -0.00, -1.00, 572.1, 6.0)">e</text><text xml:space="preserve" font-family="Courier" font-size="19.0" fill="#000000" transform="matrix(1.00, 0.00, -0.00, -1.00, 583.5, 6.0)">_</text><text xml:space="preserve" font-family="Courier" font-size="19.0" fill="#000000" transform="matrix(1.00, 0.00, -0.00, -1.00, 594.9, 6.0)">f</text><text xml:space="preserve" font-family="Courier" font-size="19.0" fill="#000000" transform="matrix(1.00, 0.00, -0.00, -1.00, 606.3, 6.0)">i</text><text xml:space="preserve" font-family="Courier" font-size="19.0" fill="#000000" transform="matrix(1.00, 0.00, -0.00, -1.00, 617.7, 6.0)">l</text><text xml:space="preserve" font-family="Courier" font-size="19.0" fill="#000000" transform="matrix(1.00, 0.00, -0.00, -1.00, 629.1, 6.0)">e</text><text xml:space="preserve" font-family="Courier" font-size="19.0" fill="#000000" transform="matrix(1.00, 0.00, -0.00, -1.00, 640.5, 6.0)">:</text></g></svg>