<?xml version="1.0" encoding="UTF-8" standalone="no"?><svg xmlns="http://www.w3.org/2000/svg" xmlns:xlink="http://www.w3.org/1999/xlink" clip-rule="evenodd" stroke-miterlimit="4.00" viewBox="0 0 285 21"><desc>SVG generated by Keynote</desc><defs></defs><g transform="matrix(1.00, 0.00, -0.00, -1.00, 0.0, 21.0)"><text xml:space="preserve" font-family="Courier-Oblique" font-style="italic" font-size="19.0" fill="#4E9192" transform="matrix(1.00, 0.00, -0.00, -1.00, 1.1, 6.0)">#</text><text xml:space="preserve" font-family="Courier-Oblique" font-style="italic" font-size="19.0" fill="#4E9192" transform="matrix(1.00, 0.00, -0.00, -1.00, 12.5, 6.0)"> </text><text xml:space="preserve" font-family="Courier-Oblique" font-style="italic" font-size="19.0" fill="#4E9192" transform="matrix(1.00, 0.00, -0.00, -1.00, 23.9, 6.0)">s</text><text xml:space="preserve" font-family="Courier-Oblique" font-style="italic" font-size="19.0" fill="#4E9192" transform="matrix(1.00, 0.00, -0.00, -1.00, 35.3, 6.0)">i</text><text xml:space="preserve" font-family="Courier-Oblique" font-style="italic" font-size="19.0" fill="#4E9192" transform="matrix(1.00, 0.00, -0.00, -1.00, 46.7, 6.0)">n</text><text xml:space="preserve" font-family="Courier-Oblique" font-style="italic" font-size="19.0" fill="#4E9192" transform="matrix(1.00, 0.00, -0.00, -1.00, 58.1, 6.0)">c</text><text xml:space="preserve" font-family="Courier-Oblique" font-style="italic" font-size="19.0" fill="#4E9192" transform="matrix(1.00, 0.00, -0.00, -1.00, 69.5, 6.0)">e</text><text xml:space="preserve" font-family="Courier-Oblique" font-style="italic" font-size="19.0" fill="#4E9192" transform="matrix(1.00, 0.00, -0.00, -1.00, 80.9, 6.0)"> </text><text xml:space="preserve" font-family="Courier-Oblique" font-style="italic" font-size="19.0" fill="#4E9192" transform="matrix(1.00, 0.00, -0.00, -1.00, 92.3, 6.0)">p</text><text xml:space="preserve" font-family="Courier-Oblique" font-style="italic" font-size="19.0" fill="#4E9192" transform="matrix(1.00, 0.00, -0.00, -1.00, 103.7, 6.0)">r</text><text xml:space="preserve" font-family="Courier-Oblique" font-style="italic" font-size="19.0" fill="#4E9192" transform="matrix(1.00, 0.00, -0.00, -1.00, 115.1, 6.0)">i</text><text xml:space="preserve" font-family="Courier-Oblique" font-style="italic" font-size="19.0" fill="#4E9192" transform="matrix(1.00, 0.00, -0.00, -1.00, 126.5, 6.0)">n</text><text xml:space="preserve" font-family="Courier-Oblique" font-style="italic" font-size="19.0" fill="#4E9192" transform="matrix(1.00, 0.00, -0.00, -1.00, 137.9, 6.0)">t</text><text xml:space="preserve" font-family="Courier-Oblique" font-style="italic" font-size="19.0" fill="#4E9192" transform="matrix(1.00, 0.00, -0.00, -1.00, 149.3, 6.0)">(</text><text xml:space="preserve" font-family="Courier-Oblique" font-style="italic" font-size="19.0" fill="#4E9192" transform="matrix(1.00, 0.00, -0.00, -1.00, 160.7, 6.0)">)</text><text xml:space="preserve" font-family="Courier-Oblique" font-style="italic" font-size="19.0" fill="#4E9192" transform="matrix(1.00, 0.00, -0.00, -1.00, 172.1, 6.0)"> </text><text xml:space="preserve" font-family="Courier-Oblique" font-style="italic" font-size="19.0" fill="#4E9192" transform="matrix(1.00, 0.00, -0.00, -1.00, 183.5, 6.0)">a</text><text xml:space="preserve" font-family="Courier-Oblique" font-style="italic" font-size="19.0" fill="#4E9192" transform="matrix(1.00, 0.00, -0.00, -1.00, 194.9, 6.0)">d</text><text xml:space="preserve" font-family="Courier-Oblique" font-style="italic" font-size="19.0" fill="#4E9192" transform="matrix(1.00, 0.00, -0.00, -1.00, 206.3, 6.0)">d</text><text xml:space="preserve" font-family="Courier-Oblique" font-style="italic" font-size="19.0" fill="#4E9192" transform="matrix(1.00, 0.00, -0.00, -1.00, 217.7, 6.0)">s</text><text xml:space="preserve" font-family="Courier-Oblique" font-style="italic" font-size="19.0" fill="#4E9192" transform="matrix(1.00, 0.00, -0.00, -1.00, 229.1, 6.0)"> </text><text xml:space="preserve" font-family="Courier-Oblique" font-style="italic" font-size="19.0" fill="#4E9192" transform="matrix(1.00, 0.00, -0.00, -1.00, 240.5, 6.0)">o</text><text xml:space="preserve" font-family="Courier-Oblique" font-style="italic" font-size="19.0" fill="#4E9192" transform="matrix(1.00, 0.00, -0.00, -1.00, 251.9, 6.0)">n</text><text xml:space="preserve" font-family="Courier-Oblique" font-style="italic" font-size="19.0" fill="#4E9192" transform="matrix(1.00, 0.00, -0.00, -1.00, 263.3, 6.0)">e</text><text xml:space="preserve" font-family="Courier-Oblique" font-style="italic" font-size="19.0" fill="#4E9192" transform="matrix(1.00, 0.00, -0.00, -1.00, 274.7, 6.0)">.</text></g></svg>