<?xml version="1.0" encoding="UTF-8" standalone="no"?><svg xmlns="http://www.w3.org/2000/svg" xmlns:xlink="http://www.w3.org/1999/xlink" clip-rule="evenodd" stroke-miterlimit="4.00" viewBox="0 0 1024 768"><desc>SVG generated by Keynote</desc><defs></defs><g transform="matrix(1.00, 0.00, -0.00, -1.00, 0.0, 768.0)"><g><clipPath id="clip-123"><path d="M 0.0 768.0 L 1024.0 768.0 L 1024.0 0.0 L 0.0 0.0 Z M 0.0 768.0 "></path></clipPath><g clip-path="url(#clip-123)"><image xlink:href="../../86BB661C-AAFE-46F2-89B5-B98D6D644DD8/assets/DE78B55DDE70D88C6FF874E8D33A46A3.jpeg" width="1024.00" height="768.00" transform="matrix(1.00, 0.00, -0.00, -1.00, 0.0, 768.0)"></image></g></g><image xlink:href="../../86BB661C-AAFE-46F2-89B5-B98D6D644DD8/assets/610DE41026624E3AEF638D24E71EF355.png" width="74.00" height="62.00" transform="matrix(1.00, 0.00, -0.00, -1.00, 949.0, 64.0)"></image><image xlink:href="../../86BB661C-AAFE-46F2-89B5-B98D6D644DD8/assets/C79B4846A618BF06956E5E1178655E37.png" width="40.00" height="40.00" transform="matrix(1.00, 0.00, -0.00, -1.01, 966.2, 53.0)" opacity="0.50"></image><g><clipPath id="clip-124"><path d="M 996.7 43.5 C 1002.5 37.6 1002.5 28.0 996.7 22.0 C 990.9 16.1 981.4 16.1 975.6 22.0 C 969.7 28.0 969.7 37.6 975.6 43.5 C 981.4 49.5 990.9 49.5 996.7 43.5 Z M 996.7 43.5 "></path></clipPath><g clip-path="url(#clip-124)"><image xlink:href="../../86BB661C-AAFE-46F2-89B5-B98D6D644DD8/assets/DE78B55DDE70D88C6FF874E8D33A46A3.jpeg" width="1024.00" height="768.00" transform="matrix(0.04, 0.00, -0.00, -0.04, 965.9, 48.0)"></image></g></g><text xml:space="preserve" font-family="HoboStd" font-size="18.0" fill="#E5CC77" transform="matrix(1.00, 0.00, -0.00, -1.00, 976.0, 26.0)">2</text><text xml:space="preserve" font-family="HoboStd" font-size="18.0" fill="#E5CC77" transform="matrix(1.00, 0.00, -0.00, -1.00, 986.4, 26.0)">4</text><image xlink:href="2BBB56AE5BA498405A6AD967B879DBEC.png" width="537.00" height="294.00" transform="matrix(1.00, 0.00, -0.00, -1.00, 34.0, 760.0)"></image><image xlink:href="F718AB515DD2584262FC65C77BD204A8.png" width="723.00" height="396.00" transform="matrix(1.00, 0.00, -0.00, -1.00, 589.0, 459.0)"></image><image xlink:href="3473D3183AC7159DAD1976248DDF98EB.png" width="168.00" height="139.00" transform="matrix(1.00, 0.00, -0.00, -1.00, 217.9, 347.6)" opacity="0.50"></image><g><clipPath id="clip-125"><path d="M 252.6 342.6 L 350.9 342.6 C 359.4 342.6 363.8 342.6 368.3 341.1 C 373.4 339.3 377.3 335.4 379.1 330.4 C 380.6 325.8 380.6 321.5 380.6 312.8 L 380.6 242.9 C 380.6 234.4 380.6 230.1 379.1 225.5 C 377.3 220.5 373.4 216.6 368.3 214.7 C 363.8 213.3 359.4 213.3 350.8 213.3 L 252.6 213.3 C 244.1 213.3 239.7 213.3 235.2 214.7 C 230.1 216.6 226.2 220.5 224.4 225.5 C 222.9 230.1 222.9 234.4 222.9 243.1 L 222.9 313.0 C 222.9 321.5 222.9 325.8 224.4 330.4 C 226.2 335.4 230.1 339.3 235.2 341.1 C 239.7 342.6 244.1 342.6 252.7 342.6 Z M 252.6 342.6 "></path></clipPath><g clip-path="url(#clip-125)"><image xlink:href="59DBD66EA15A3D40E065F836EF2595FD.jpeg" width="400.00" height="400.00" transform="matrix(1.00, 0.00, -0.00, -1.00, 222.9, 342.6)"></image></g></g><image xlink:href="2AE79B3F95C3E84AD4E4E2DA61DBFFC8.png" width="134.00" height="54.00" transform="matrix(1.00, 0.00, -0.00, -1.00, 236.0, 293.0)"></image><g><clipPath id="clip-126"><path d="M 213.2 213.3 L 393.1 213.3 L 393.1 342.6 L 213.2 342.6 Z M 213.2 213.3 "></path></clipPath><g clip-path="url(#clip-126)"><text xml:space="preserve" font-family="Chalkduster" font-size="32.0" fill="#FEFFFE" transform="matrix(1.00, 0.00, -0.00, -1.00, 239.0, 263.0)">P</text><text xml:space="preserve" font-family="Chalkduster" font-size="32.0" fill="#FEFFFE" transform="matrix(1.00, 0.00, -0.00, -1.00, 261.8, 263.0)">y</text><text xml:space="preserve" font-family="Chalkduster" font-size="32.0" fill="#FEFFFE" transform="matrix(1.00, 0.00, -0.00, -1.00, 281.2, 263.0)">t</text><text xml:space="preserve" font-family="Chalkduster" font-size="32.0" fill="#FEFFFE" transform="matrix(1.00, 0.00, -0.00, -1.00, 296.5, 263.0)">h</text><text xml:space="preserve" font-family="Chalkduster" font-size="32.0" fill="#FEFFFE" transform="matrix(1.00, 0.00, -0.00, -1.00, 316.3, 263.0)">o</text><text xml:space="preserve" font-family="Chalkduster" font-size="32.0" fill="#FEFFFE" transform="matrix(1.00, 0.00, -0.00, -1.00, 340.1, 263.0)">n</text></g></g></g></svg>