<?xml version="1.0" encoding="UTF-8" standalone="no"?><svg xmlns="http://www.w3.org/2000/svg" xmlns:xlink="http://www.w3.org/1999/xlink" clip-rule="evenodd" stroke-miterlimit="4.00" viewBox="0 0 188 136"><desc>SVG generated by Keynote</desc><defs></defs><g transform="matrix(1.00, 0.00, -0.00, -1.00, 0.0, 136.0)"><g><clipPath id="clip-727"><path d="M 68.5 123.8 L 187.5 123.8 L 187.5 132.8 L 68.5 132.8 Z M 68.5 123.8 "></path></clipPath><g clip-path="url(#clip-727)"><path d="M 85.2 126.6 C 84.9 126.8 84.0 126.5 83.8 126.7 M 85.2 126.6 C 84.4 125.3 82.8 125.2 80.8 125.0 C 78.5 124.9 80.8 126.2 80.6 126.7 C 77.7 127.2 77.7 126.3 78.1 124.9 C 77.0 125.8 73.6 124.2 74.3 125.9 C 79.0 125.9 71.1 126.3 75.0 127.3 C 75.4 127.6 74.3 128.0 73.8 128.1 C 75.1 128.8 72.9 129.6 75.0 130.1 C 75.3 131.2 74.9 130.7 76.2 131.6 C 76.8 131.7 76.6 131.3 76.5 131.1 C 76.7 129.8 78.1 131.8 79.2 131.0 C 80.2 132.7 81.2 130.7 80.4 130.0 C 81.3 130.2 82.5 131.9 83.5 130.7 C 84.1 131.6 86.7 131.0 85.1 130.0 C 84.0 129.3 85.3 128.8 85.5 128.4 C 85.1 128.0 83.4 128.6 83.2 128.3 C 83.7 128.0 85.8 127.4 83.5 127.4 C 84.3 126.9 83.2 126.5 85.2 126.6 C 85.2 126.6 85.2 126.6 85.2 126.6 Z M 77.3 125.6 C 77.3 125.2 78.0 125.7 77.3 125.6 C 77.3 125.6 77.3 125.6 77.3 125.6 Z M 82.7 131.6 C 82.7 131.1 83.4 131.6 82.7 131.6 C 82.7 131.6 82.7 131.6 82.7 131.6 Z M 76.9 131.1 C 76.9 130.7 77.6 131.1 76.9 131.1 C 76.9 131.1 76.9 131.1 76.9 131.1 Z M 79.3 125.9 C 80.6 126.3 78.3 126.6 78.1 126.1 C 78.4 126.2 79.0 125.6 79.3 125.9 C 79.3 125.9 79.3 125.9 79.3 125.9 Z M 79.5 128.5 C 79.6 128.3 80.1 128.3 80.1 128.7 C 79.7 128.8 79.4 128.7 79.5 128.5 C 79.5 128.5 79.5 128.5 79.5 128.5 Z M 73.3 126.7 C 73.4 126.5 73.9 126.5 73.9 126.9 C 73.6 127.0 73.2 126.8 73.3 126.7 C 73.3 126.7 73.3 126.7 73.3 126.7 Z M 80.8 127.1 C 81.1 127.2 81.2 127.6 80.8 127.6 C 80.6 127.4 79.8 127.4 80.8 127.1 C 80.8 127.1 80.8 127.1 80.8 127.1 Z M 82.7 125.6 C 83.7 125.9 81.6 126.5 81.7 126.3 C 81.3 126.0 82.1 125.3 82.7 125.6 C 82.7 125.6 82.7 125.6 82.7 125.6 Z M 81.4 127.7 C 82.2 127.9 81.0 128.0 81.4 127.7 C 81.4 127.7 81.4 127.7 81.4 127.7 Z M 74.2 130.0 C 75.0 130.2 73.8 130.3 74.2 130.0 C 74.2 130.0 74.2 130.0 74.2 130.0 Z M 78.7 131.3 C 79.6 131.6 78.4 131.7 78.7 131.3 C 78.7 131.3 78.7 131.3 78.7 131.3 Z M 77.0 126.8 C 75.5 126.8 76.8 125.7 77.0 126.8 C 77.0 126.8 77.0 126.8 77.0 126.8 Z M 85.1 125.5 C 83.6 125.5 84.9 124.4 85.1 125.5 C 85.1 125.5 85.1 125.5 85.1 125.5 Z M 180.9 125.9 C 182.3 125.7 177.0 124.2 179.0 126.0 C 179.6 127.4 175.9 127.3 176.9 125.9 C 175.8 125.8 175.8 125.7 175.2 126.4 C 175.0 125.3 172.5 124.8 171.6 125.3 C 171.0 126.2 173.3 125.5 171.8 126.4 C 168.7 126.7 172.0 127.4 170.8 128.6 C 170.7 128.6 170.7 128.0 170.4 128.4 C 170.3 129.5 172.1 130.2 171.3 131.1 C 171.7 130.9 174.0 132.1 173.1 131.1 C 172.7 130.1 175.6 132.4 175.3 130.7 C 176.1 131.5 176.9 130.4 177.6 131.3 C 178.2 131.5 178.2 130.6 178.1 130.4 C 178.0 129.6 178.8 132.2 179.7 130.8 C 179.8 131.2 182.3 131.0 180.4 130.4 C 181.0 130.5 183.9 130.9 182.3 129.4 C 180.3 128.7 184.5 127.8 182.1 127.7 C 180.2 127.5 179.9 127.9 181.2 127.0 C 181.6 127.1 183.8 127.0 182.0 126.3 C 181.6 126.5 180.7 126.3 180.9 125.9 C 180.9 125.9 180.9 125.9 180.9 125.9 Z M 181.3 128.2 C 180.3 128.3 181.2 127.6 181.3 128.2 C 181.3 128.2 181.3 128.2 181.3 128.2 Z M 177.5 131.7 C 176.4 131.8 177.4 131.1 177.5 131.7 C 177.5 131.7 177.5 131.7 177.5 131.7 Z M 177.6 125.5 C 177.1 126.0 176.9 124.4 177.6 125.5 C 177.6 125.5 177.6 125.5 177.6 125.5 Z M 179.3 130.4 C 179.2 130.4 179.4 130.2 179.6 130.1 C 179.6 130.2 179.3 130.4 179.3 130.4 C 179.3 130.4 179.3 130.4 179.3 130.4 Z M 175.8 125.5 C 174.2 126.3 175.5 124.3 175.8 125.5 C 175.8 125.5 175.8 125.5 175.8 125.5 Z M 172.6 127.1 C 172.4 128.7 171.0 126.7 172.6 127.1 C 172.6 127.1 172.6 127.1 172.6 127.1 Z M 174.8 130.6 C 175.1 130.2 175.1 130.8 174.8 130.6 C 174.8 130.6 174.8 130.6 174.8 130.6 Z M 181.8 130.8 C 182.0 130.5 182.0 131.0 181.8 130.8 C 181.8 130.8 181.8 130.8 181.8 130.8 Z M 172.9 130.4 C 173.0 129.8 173.4 130.7 172.9 130.4 C 172.9 130.4 172.9 130.4 172.9 130.4 Z M 177.3 126.2 C 178.8 124.9 179.1 128.0 177.3 126.2 C 177.3 126.2 177.3 126.2 177.3 126.2 Z M 179.9 126.0 C 180.9 125.8 179.8 126.8 179.3 126.6 C 179.4 126.5 179.8 126.1 179.9 126.0 C 179.9 126.0 179.9 126.0 179.9 126.0 Z M 175.8 126.3 C 176.8 125.7 176.7 126.7 175.8 126.3 C 175.8 126.3 175.8 126.3 175.8 126.3 Z M 178.3 125.6 C 178.8 125.8 177.9 125.8 178.3 125.6 C 178.3 125.6 178.3 125.6 178.3 125.6 Z M 173.8 125.0 C 174.3 125.1 173.4 125.2 173.8 125.0 C 173.8 125.0 173.8 125.0 173.8 125.0 Z M 181.2 125.4 C 181.6 125.5 180.7 125.6 181.2 125.4 C 181.2 125.4 181.2 125.4 181.2 125.4 Z M 174.2 125.8 C 174.1 126.4 175.5 127.7 173.0 126.6 C 172.5 126.2 173.6 125.4 174.2 125.8 C 174.2 125.8 174.2 125.8 174.2 125.8 Z M 89.3 126.6 C 83.4 124.9 84.8 128.0 84.5 128.6 C 83.7 129.4 84.5 130.0 85.7 130.5 C 86.9 132.5 87.5 128.5 88.4 130.5 C 90.0 133.1 90.2 128.2 90.9 131.0 C 90.6 131.7 92.9 131.1 92.7 130.9 C 93.9 132.2 95.5 129.9 95.5 129.6 C 96.3 130.0 96.4 132.5 98.8 130.6 C 100.6 130.0 101.4 132.4 100.9 130.7 C 102.2 132.7 101.8 130.2 103.1 130.8 C 104.1 131.9 103.2 129.2 104.9 131.2 C 105.6 129.6 104.1 132.3 108.6 131.1 C 106.4 131.0 110.7 129.9 109.9 130.9 C 108.3 132.1 112.0 130.5 114.1 131.2 C 114.6 130.6 117.1 129.2 116.7 130.7 C 118.8 132.6 118.9 129.6 119.8 131.1 C 120.5 131.8 120.8 130.4 121.2 130.5 C 122.0 131.6 122.7 130.9 125.3 131.2 C 131.1 131.8 126.2 128.3 128.4 127.9 C 128.8 127.4 125.5 123.6 126.8 126.4 C 126.4 125.6 121.7 128.6 124.0 125.5 C 122.2 126.7 124.4 124.2 120.8 125.7 C 125.8 127.9 115.1 126.6 119.9 125.5 C 119.1 124.9 117.1 125.0 118.6 125.5 C 119.1 127.5 115.1 124.6 117.1 127.0 C 114.1 126.4 114.9 128.5 114.0 127.0 C 113.3 124.4 114.2 127.7 112.6 126.9 C 109.0 126.9 111.8 123.9 109.6 125.9 C 106.1 124.6 108.8 127.0 107.6 127.4 C 107.3 129.1 104.0 126.0 106.7 125.7 C 105.3 126.7 106.5 124.9 104.9 126.0 C 106.0 127.7 102.8 124.3 103.3 125.6 C 101.8 126.0 102.5 127.0 102.1 127.0 C 100.0 127.0 100.6 125.4 100.2 126.6 C 99.7 127.3 98.7 125.2 98.4 125.7 C 100.6 125.8 96.6 127.4 96.3 126.5 C 97.7 126.4 95.6 124.4 94.8 125.7 C 95.9 129.3 92.9 124.7 91.9 126.0 C 92.8 128.0 87.0 126.3 89.2 125.3 C 89.1 125.5 89.3 126.7 89.3 126.6 M 97.8 126.0 C 99.6 126.1 95.8 126.4 97.8 126.0 M 97.7 125.4 C 98.5 126.1 96.0 125.0 97.8 125.2 C 97.8 125.2 97.6 125.4 97.7 125.4 M 105.2 125.4 C 105.0 125.9 104.2 125.1 105.2 125.4 M 106.6 126.6 C 107.8 127.2 105.0 126.7 106.6 126.6 M 123.3 126.2 C 121.6 129.2 121.5 124.5 123.3 126.2 M 112.3 125.6 C 110.2 126.0 113.0 124.4 112.3 125.6 M 111.7 126.4 C 110.7 126.9 111.5 125.7 111.7 126.4 M 120.1 126.2 C 120.3 126.3 120.3 126.3 120.1 126.2 C 120.1 126.2 120.1 126.2 120.1 126.2 Z M 125.0 126.3 C 125.1 126.3 125.1 126.3 125.0 126.3 C 125.0 126.3 125.0 126.3 125.0 126.3 Z M 115.3 126.5 C 113.8 125.8 117.8 126.3 115.3 126.5 C 115.3 126.5 115.3 126.5 115.3 126.5 Z M 122.7 130.9 C 122.6 130.9 122.6 130.9 122.7 130.9 C 122.7 130.9 122.7 130.9 122.7 130.9 Z M 96.3 127.3 C 96.2 127.4 96.2 127.4 96.3 127.3 C 96.3 127.3 96.3 127.3 96.3 127.3 Z M 90.7 126.2 C 90.8 126.6 89.7 125.9 90.7 126.2 C 90.7 126.2 90.7 126.2 90.7 126.2 Z M 86.2 129.6 C 86.1 129.7 86.1 129.7 86.2 129.6 C 86.2 129.6 86.2 129.6 86.2 129.6 Z M 94.4 128.9 C 94.4 129.0 94.4 129.0 94.4 128.9 C 94.4 128.9 94.4 128.9 94.4 128.9 Z M 95.2 126.7 C 94.3 125.1 97.4 127.1 95.2 126.7 C 95.2 126.7 95.2 126.7 95.2 126.7 Z M 113.4 130.7 C 113.5 130.0 114.7 130.9 113.4 130.7 C 113.4 130.7 113.4 130.7 113.4 130.7 Z M 106.9 127.3 C 107.1 126.9 107.7 127.5 106.9 127.3 C 106.9 127.3 106.9 127.3 106.9 127.3 Z M 103.8 125.1 C 104.0 124.7 104.6 125.2 103.8 125.1 C 103.8 125.1 103.8 125.1 103.8 125.1 Z M 90.8 125.8 C 90.9 125.7 90.9 125.7 90.8 125.8 C 90.8 125.8 90.8 125.8 90.8 125.8 Z M 92.8 127.0 C 91.4 125.5 95.0 127.8 92.8 127.0 C 92.8 127.0 92.8 127.0 92.8 127.0 Z M 90.4 127.5 C 91.2 128.1 88.6 127.2 90.4 127.5 M 91.8 129.8 C 93.5 129.2 90.3 132.6 91.8 129.8 C 91.8 129.8 91.8 129.8 91.8 129.8 Z M 100.4 130.4 C 100.5 130.5 100.5 130.5 100.4 130.4 C 100.4 130.4 100.4 130.4 100.4 130.4 Z M 99.5 125.9 C 101.0 126.0 98.6 126.3 99.5 125.9 C 99.5 125.9 99.5 125.9 99.5 125.9 Z M 86.5 125.6 C 88.0 125.6 85.5 125.9 86.5 125.6 C 86.5 125.6 86.5 125.6 86.5 125.6 Z M 105.5 128.9 C 107.9 128.7 103.9 129.8 105.5 128.9 C 105.5 128.9 105.5 128.9 105.5 128.9 Z M 114.5 127.1 C 114.5 127.2 114.5 127.2 114.5 127.1 C 114.5 127.1 114.5 127.1 114.5 127.1 Z M 116.1 126.5 C 116.2 126.5 116.2 126.5 116.1 126.5 C 116.1 126.5 116.1 126.5 116.1 126.5 Z M 123.1 128.1 C 123.2 128.2 123.2 128.2 123.1 128.1 C 123.1 128.1 123.1 128.1 123.1 128.1 Z M 117.7 125.8 C 117.7 125.8 117.7 125.8 117.7 125.8 C 117.7 125.8 117.7 125.8 117.7 125.8 Z M 122.5 126.2 C 122.6 126.2 122.6 126.2 122.5 126.2 C 122.5 126.2 122.5 126.2 122.5 126.2 Z M 121.8 124.8 C 121.9 124.9 121.9 124.9 121.8 124.8 C 121.8 124.8 121.8 124.8 121.8 124.8 Z M 111.1 131.6 C 111.2 131.6 111.2 131.6 111.1 131.6 C 111.1 131.6 111.1 131.6 111.1 131.6 Z M 93.5 125.2 C 93.6 125.4 93.6 125.4 93.5 125.2 C 93.5 125.2 93.5 125.2 93.5 125.2 Z M 122.1 126.8 C 122.2 126.8 122.2 126.8 122.1 126.8 C 122.1 126.8 122.1 126.8 122.1 126.8 Z M 110.3 128.0 C 110.4 129.3 109.3 126.3 110.6 127.9 C 110.5 128.0 110.2 127.8 110.3 128.0 M 111.9 130.2 C 111.8 130.2 111.8 130.2 111.9 130.2 C 111.9 130.2 111.9 130.2 111.9 130.2 Z M 106.5 131.0 C 106.5 131.0 106.5 131.0 106.5 131.0 C 106.5 131.0 106.5 131.0 106.5 131.0 Z M 116.8 125.5 C 116.6 124.8 118.1 126.1 116.6 125.5 M 123.2 130.4 C 123.0 129.7 124.5 131.0 123.0 130.4 M 84.8 126.1 C 84.6 126.7 83.8 125.8 84.8 126.1 M 105.3 131.7 C 105.1 132.3 104.3 131.4 105.3 131.7 M 107.8 130.0 C 107.6 129.3 109.2 130.6 107.6 130.0 M 119.5 130.4 C 119.6 130.4 119.6 130.4 119.5 130.4 C 119.5 130.4 119.5 130.4 119.5 130.4 Z M 101.8 126.1 C 101.9 126.1 101.9 126.1 101.8 126.1 C 101.8 126.1 101.8 126.1 101.8 126.1 Z M 108.3 127.6 C 107.5 126.6 109.5 128.3 108.3 127.6 M 99.9 127.8 C 98.6 126.6 102.0 128.2 99.9 127.8 M 126.0 130.7 C 124.5 129.2 127.0 131.5 126.0 130.7 M 118.8 126.9 C 117.3 125.4 119.8 127.7 118.8 126.9 M 103.1 126.7 C 103.0 125.9 104.6 127.2 103.1 126.7 M 88.2 125.9 C 86.8 125.8 90.0 125.3 88.2 125.9 M 116.0 130.4 C 116.0 130.5 116.0 130.5 116.0 130.4 C 116.0 130.4 116.0 130.4 116.0 130.4 Z M 92.7 131.7 C 92.8 131.8 92.8 131.8 92.7 131.7 C 92.7 131.7 92.7 131.7 92.7 131.7 Z M 127.8 125.8 C 127.9 125.8 127.9 125.8 127.8 125.8 C 127.8 125.8 127.8 125.8 127.8 125.8 Z M 117.9 127.6 C 117.9 127.7 117.9 127.7 117.9 127.6 C 117.9 127.6 117.9 127.6 117.9 127.6 Z M 125.0 125.5 C 125.1 125.6 125.1 125.6 125.0 125.5 C 125.0 125.5 125.0 125.5 125.0 125.5 Z M 113.4 128.8 C 113.4 128.8 113.4 128.8 113.4 128.8 C 113.4 128.8 113.4 128.8 113.4 128.8 Z M 112.5 124.9 C 112.5 125.0 112.5 125.0 112.5 124.9 C 112.5 124.9 112.5 124.9 112.5 124.9 Z M 107.5 126.6 C 107.5 126.6 107.5 126.6 107.5 126.6 C 107.5 126.6 107.5 126.6 107.5 126.6 Z M 114.7 125.2 C 117.7 125.0 113.2 126.5 114.7 125.2 C 114.7 125.2 114.7 125.2 114.7 125.2 Z M 109.6 129.1 C 109.6 129.1 109.6 129.1 109.6 129.1 C 109.6 129.1 109.6 129.1 109.6 129.1 Z M 109.2 126.4 C 111.0 125.3 110.2 128.2 109.2 126.4 M 100.9 125.5 C 101.5 124.9 101.2 126.4 100.9 125.5 M 97.7 130.5 C 97.7 130.6 97.7 130.6 97.7 130.5 C 97.7 130.5 97.7 130.5 97.7 130.5 Z M 98.5 130.1 C 98.6 130.2 98.6 130.2 98.5 130.1 C 98.5 130.1 98.5 130.1 98.5 130.1 Z M 98.9 125.2 C 99.0 125.3 99.0 125.3 98.9 125.2 C 98.9 125.2 98.9 125.2 98.9 125.2 Z M 98.7 131.6 C 98.7 131.6 98.7 131.6 98.7 131.6 C 98.7 131.6 98.7 131.6 98.7 131.6 Z M 111.3 125.0 C 111.4 125.1 111.4 125.1 111.3 125.0 C 111.3 125.0 111.3 125.0 111.3 125.0 Z M 126.5 125.0 C 126.5 125.0 126.5 125.0 126.5 125.0 C 126.5 125.0 126.5 125.0 126.5 125.0 Z M 88.6 130.0 C 88.7 130.0 88.7 130.0 88.6 130.0 C 88.6 130.0 88.6 130.0 88.6 130.0 Z M 112.9 126.6 C 112.9 126.6 112.9 126.6 112.9 126.6 C 112.9 126.6 112.9 126.6 112.9 126.6 Z M 95.5 130.3 C 95.6 130.3 95.6 130.3 95.5 130.3 C 95.5 130.3 95.5 130.3 95.5 130.3 Z M 111.9 126.2 C 112.0 126.3 112.0 126.3 111.9 126.2 C 111.9 126.2 111.9 126.2 111.9 126.2 Z M 115.5 130.7 C 115.5 130.7 115.5 130.7 115.5 130.7 C 115.5 130.7 115.5 130.7 115.5 130.7 Z M 118.7 131.6 C 118.8 131.6 118.8 131.6 118.7 131.6 C 118.7 131.6 118.7 131.6 118.7 131.6 Z M 115.3 128.0 C 115.3 128.1 115.3 128.1 115.3 128.0 C 115.3 128.0 115.3 128.0 115.3 128.0 Z M 94.5 128.6 C 88.5 127.3 99.2 128.0 94.5 128.6 M 116.3 128.4 C 112.1 128.0 119.6 126.9 116.3 128.4 C 116.7 128.0 116.3 128.3 116.3 128.4 M 129.3 125.1 C 127.6 126.5 127.6 127.9 128.3 129.4 C 129.2 130.1 129.1 127.3 129.2 129.7 C 127.2 130.1 130.0 133.3 130.0 130.2 C 132.6 129.7 130.4 132.1 131.9 130.9 C 134.7 130.6 133.3 131.5 135.4 131.3 C 136.6 129.6 136.6 132.2 137.2 130.6 C 136.1 132.3 139.4 130.1 139.5 130.9 C 137.6 131.9 146.8 130.9 141.8 130.4 C 143.9 129.6 143.5 131.0 144.2 131.2 C 145.0 130.2 147.5 132.0 148.8 131.0 C 148.6 130.8 147.9 130.7 147.7 130.4 C 147.4 129.7 149.2 130.5 149.0 130.5 C 149.8 130.1 153.1 129.0 149.6 130.9 C 149.4 131.7 152.5 130.5 152.4 131.2 C 155.5 131.3 153.1 129.6 154.5 130.8 C 156.7 130.9 158.3 130.9 158.3 130.6 C 159.6 130.8 159.9 131.8 161.1 130.9 C 163.8 132.7 163.0 127.3 164.0 130.9 C 164.8 130.1 165.5 132.4 165.4 130.2 C 164.4 131.2 170.0 131.9 167.6 130.3 C 168.2 129.8 171.7 132.6 171.2 130.3 C 172.4 128.7 172.2 127.1 169.5 125.5 C 169.8 126.8 166.7 124.1 168.7 126.3 C 171.0 127.1 164.4 127.1 165.8 126.3 C 166.2 123.7 162.6 128.0 161.2 126.1 C 162.4 127.1 157.0 127.7 158.6 125.7 C 157.6 125.5 157.4 126.5 156.3 125.3 C 159.5 125.5 155.0 127.4 155.2 126.2 C 155.8 125.4 151.0 124.8 151.5 126.0 C 153.2 128.7 150.3 125.4 149.4 126.5 C 146.8 127.1 149.9 124.1 147.9 126.1 C 147.4 125.8 143.9 125.8 146.1 125.2 C 146.9 125.5 144.0 128.2 143.6 125.9 C 147.4 124.6 139.3 125.2 140.6 125.9 C 146.4 127.2 134.5 127.3 139.0 126.1 C 136.4 124.8 139.8 125.6 136.6 126.1 C 137.0 126.8 134.5 127.6 135.1 126.1 C 134.6 123.9 134.2 129.0 132.3 126.0 C 132.0 124.7 128.4 127.0 129.8 125.5 C 129.9 125.4 129.4 125.1 129.3 125.1 M 130.4 125.4 C 130.0 125.9 129.7 124.8 130.4 125.4 M 130.0 125.9 C 129.9 125.8 129.9 125.8 130.0 125.9 C 130.0 125.9 130.0 125.9 130.0 125.9 Z M 136.1 126.2 C 136.1 126.1 136.1 126.1 136.1 126.2 C 136.1 126.2 136.1 126.2 136.1 126.2 Z M 141.0 131.7 C 140.9 131.7 140.9 131.7 141.0 131.7 C 141.0 131.7 141.0 131.7 141.0 131.7 Z M 140.2 126.3 C 140.2 126.3 140.2 126.3 140.2 126.3 C 140.2 126.3 140.2 126.3 140.2 126.3 Z M 133.9 126.5 C 133.9 126.5 133.9 126.5 133.9 126.5 C 133.9 126.5 133.9 126.5 133.9 126.5 Z M 139.8 125.5 C 140.2 126.3 138.4 124.9 139.9 125.4 C 140.0 125.4 139.7 125.4 139.8 125.5 M 145.2 125.2 C 145.2 125.3 145.2 125.3 145.2 125.2 M 157.0 131.7 C 157.0 131.8 157.0 131.8 157.0 131.7 M 157.9 125.1 C 158.1 125.2 158.1 125.2 157.9 125.1 M 150.5 126.0 C 152.1 125.9 150.9 126.4 150.5 126.0 M 162.2 125.6 C 160.2 125.1 164.5 125.1 162.2 125.6 M 164.2 125.1 C 164.4 125.2 164.4 125.2 164.2 125.1 M 155.0 125.4 C 154.9 125.5 154.9 125.5 155.0 125.4 C 155.0 125.4 155.0 125.4 155.0 125.4 Z M 149.8 125.7 C 147.7 125.2 152.0 124.9 149.8 125.7 M 136.8 125.4 C 138.0 125.0 136.8 126.5 136.8 125.4 M 134.4 125.9 C 134.4 125.9 134.4 125.9 134.4 125.9 C 134.4 125.9 134.4 125.9 134.4 125.9 Z M 159.0 125.5 C 158.9 125.6 158.9 125.6 159.0 125.5 C 159.0 125.5 159.0 125.5 159.0 125.5 Z M 161.3 125.4 C 161.2 125.4 161.2 125.4 161.3 125.4 C 161.3 125.4 161.3 125.4 161.3 125.4 Z M 165.3 131.5 C 165.2 131.5 165.2 131.5 165.3 131.5 C 165.3 131.5 165.3 131.5 165.3 131.5 Z M 136.2 128.4 C 134.6 128.0 137.8 126.4 137.5 127.9 C 137.7 128.5 136.4 128.3 136.2 128.4 M 148.3 127.5 C 148.7 129.6 146.7 124.7 148.3 127.5 M 164.5 126.5 C 166.1 128.9 162.5 124.7 164.5 126.5 M 167.8 126.0 C 168.7 126.5 161.8 126.3 166.6 125.7 C 167.1 125.3 167.4 125.8 167.8 126.0 M 145.3 126.2 C 145.7 127.3 142.7 125.7 145.3 126.2 M 155.1 129.6 C 155.9 128.9 157.9 128.2 157.0 129.5 C 157.0 131.1 154.1 130.2 155.1 129.6 M 130.9 126.5 C 132.2 124.7 130.9 128.1 130.9 126.5 M 137.1 126.7 C 137.2 126.6 137.2 126.6 137.1 126.7 C 137.1 126.7 137.1 126.7 137.1 126.7 Z M 139.6 126.4 C 139.7 126.6 139.7 126.6 139.6 126.4 M 131.9 124.9 C 132.0 125.1 132.0 125.1 131.9 124.9 M 155.0 127.7 C 155.2 127.9 155.2 127.9 155.0 127.7 M 150.0 126.5 C 152.4 128.3 148.7 126.9 150.0 126.5 M 144.2 130.0 C 144.9 130.9 142.7 130.1 144.2 130.0 M 154.0 125.8 C 155.7 127.5 151.6 127.4 154.0 125.8 M 148.8 126.3 C 149.0 126.3 149.0 126.3 148.8 126.3 C 148.8 126.3 148.8 126.3 148.8 126.3 Z M 155.7 129.8 C 155.7 129.8 155.7 129.8 155.7 129.8 C 155.7 129.8 155.7 129.8 155.7 129.8 Z M 156.5 129.7 C 156.4 129.8 156.4 129.8 156.5 129.7 C 156.5 129.7 156.5 129.7 156.5 129.7 Z M 156.1 125.6 C 156.0 125.7 156.0 125.7 156.1 125.6 C 156.1 125.6 156.1 125.6 156.1 125.6 Z M 134.3 130.6 C 136.0 130.7 132.9 130.9 134.3 130.6 C 134.3 130.6 134.3 130.6 134.3 130.6 Z M 141.8 125.5 C 144.6 126.9 139.8 126.8 141.8 125.5 C 141.8 125.5 141.8 125.5 141.8 125.5 Z M 145.0 127.8 C 145.0 127.9 145.0 127.9 145.0 127.8 C 145.0 127.8 145.0 127.8 145.0 127.8 Z M 152.9 124.8 C 152.9 124.9 152.9 124.9 152.9 124.8 C 152.9 124.8 152.9 124.8 152.9 124.8 Z M 135.1 130.8 C 135.1 130.9 135.1 130.9 135.1 130.8 C 135.1 130.8 135.1 130.8 135.1 130.8 Z M 160.9 126.5 C 160.9 126.6 160.9 126.6 160.9 126.5 C 160.9 126.5 160.9 126.5 160.9 126.5 Z M 151.1 130.1 C 151.7 129.4 151.3 130.6 151.1 130.1 C 151.1 130.1 151.1 130.1 151.1 130.1 Z M 153.7 130.1 C 153.7 130.1 153.7 130.1 153.7 130.1 C 153.7 130.1 153.7 130.1 153.7 130.1 Z M 164.9 125.0 C 164.9 125.0 164.9 125.0 164.9 125.0 C 164.9 125.0 164.9 125.0 164.9 125.0 Z M 160.1 131.7 C 160.2 131.7 160.2 131.7 160.1 131.7 C 160.1 131.7 160.1 131.7 160.1 131.7 Z M 162.3 129.7 C 162.2 129.7 162.2 129.7 162.3 129.7 C 162.3 129.7 162.3 129.7 162.3 129.7 Z M 155.6 126.0 C 158.1 125.7 155.0 126.8 155.6 126.0 C 155.6 126.0 155.6 126.0 155.6 126.0 Z M 168.5 129.1 C 168.6 129.3 168.6 129.3 168.5 129.1 C 168.5 129.1 168.5 129.1 168.5 129.1 Z M 169.8 126.8 C 169.9 126.9 169.9 126.9 169.8 126.8 C 169.8 126.8 169.8 126.8 169.8 126.8 Z M 170.5 125.5 C 170.5 125.6 170.5 125.6 170.5 125.5 C 170.5 125.5 170.5 125.5 170.5 125.5 Z M 139.6 128.9 C 139.5 128.9 139.5 128.9 139.6 128.9 C 139.6 128.9 139.6 128.9 139.6 128.9 Z M 138.5 125.1 C 138.5 125.1 138.5 125.1 138.5 125.1 C 138.5 125.1 138.5 125.1 138.5 125.1 Z M 142.0 124.9 C 142.0 124.9 142.0 124.9 142.0 124.9 C 142.0 124.9 142.0 124.9 142.0 124.9 Z M 138.9 131.3 C 138.9 131.2 138.9 131.2 138.9 131.3 C 138.9 131.3 138.9 131.3 138.9 131.3 Z M 151.8 128.0 C 151.8 127.9 151.8 127.9 151.8 128.0 C 151.8 128.0 151.8 128.0 151.8 128.0 Z M 153.0 129.6 C 153.0 129.5 153.0 129.5 153.0 129.6 C 153.0 129.6 153.0 129.6 153.0 129.6 Z M 150.1 131.6 C 150.0 131.6 150.0 131.6 150.1 131.6 C 150.1 131.6 150.1 131.6 150.1 131.6 Z M 154.0 130.9 C 153.9 130.9 153.9 130.9 154.0 130.9 C 154.0 130.9 154.0 130.9 154.0 130.9 Z M 130.3 130.6 C 130.3 130.6 130.3 130.6 130.3 130.6 C 130.3 130.6 130.3 130.6 130.3 130.6 Z M 130.0 127.6 C 130.0 127.7 130.0 127.7 130.0 127.6 C 130.0 127.6 130.0 127.6 130.0 127.6 Z M 152.2 125.9 C 152.8 125.3 153.4 126.7 152.2 125.9 M 147.3 126.3 C 147.3 126.3 147.3 126.3 147.3 126.3 C 147.3 126.3 147.3 126.3 147.3 126.3 Z M 160.5 126.0 C 161.1 127.1 158.2 125.4 160.5 126.0 C 160.5 126.0 160.5 126.0 160.5 126.0 Z M 157.9 130.9 C 157.9 130.9 157.9 130.9 157.9 130.9 C 157.9 130.9 157.9 130.9 157.9 130.9 Z M 159.2 130.4 C 159.2 130.5 159.2 130.5 159.2 130.4 C 159.2 130.4 159.2 130.4 159.2 130.4 Z M 166.2 127.2 C 166.4 127.3 166.4 127.3 166.2 127.2 M 146.7 125.2 C 147.4 125.7 147.3 125.6 146.7 125.2 M 162.1 126.0 C 162.0 126.1 162.0 126.1 162.1 126.0 C 162.1 126.0 162.1 126.0 162.1 126.0 Z M 167.8 126.6 C 167.8 126.6 167.8 126.6 167.8 126.6 C 167.8 126.6 167.8 126.6 167.8 126.6 Z M 143.2 126.0 C 143.3 127.4 142.6 127.1 143.2 126.0 M 133.4 126.4 C 133.4 126.5 133.4 126.5 133.4 126.4 C 133.4 126.4 133.4 126.4 133.4 126.4 Z M 133.4 126.4 " fill="#71AFE1"></path></g></g><g><clipPath id="clip-728"><path d="M 0.8 6.8 L 129.3 135.3 L 135.7 129.0 L 7.2 0.5 Z M 0.8 6.8 "></path></clipPath><g clip-path="url(#clip-728)"><path d="M 17.0 14.2 C 16.7 14.1 16.3 13.3 16.0 13.3 M 17.0 14.2 C 17.4 12.7 16.3 11.6 15.1 10.0 C 13.5 8.4 14.3 10.9 13.7 11.0 C 11.3 9.4 11.9 8.7 13.2 8.0 C 11.8 7.9 10.6 4.4 9.8 6.1 C 13.2 9.4 7.2 4.1 9.3 7.5 C 9.4 8.0 8.3 7.5 8.0 7.2 C 8.4 8.7 6.2 7.7 7.3 9.5 C 6.8 10.5 6.8 9.9 7.2 11.4 C 7.5 11.9 7.6 11.5 7.7 11.3 C 8.8 10.5 8.4 12.9 9.7 13.1 C 9.2 15.0 11.3 14.3 11.2 13.2 C 11.8 14.1 11.4 16.1 12.9 16.0 C 12.7 17.0 15.0 18.4 14.6 16.6 C 14.3 15.3 15.5 15.9 15.9 15.7 C 15.9 15.2 14.4 14.4 14.4 14.0 C 15.0 14.1 16.9 15.2 15.3 13.7 C 16.2 13.8 15.7 12.7 17.0 14.2 C 17.0 14.2 17.0 14.2 17.0 14.2 Z M 12.1 8.0 C 12.4 7.6 12.6 8.5 12.1 8.0 C 12.1 8.0 12.1 8.0 12.1 8.0 Z M 11.7 16.0 C 12.0 15.6 12.2 16.5 11.7 16.0 C 11.7 16.0 11.7 16.0 11.7 16.0 Z M 8.0 11.6 C 8.3 11.2 8.5 12.1 8.0 11.6 C 8.0 11.6 8.0 11.6 8.0 11.6 Z M 13.4 9.6 C 14.0 10.8 12.2 9.3 12.4 8.9 C 12.5 9.1 13.4 9.1 13.4 9.6 C 13.4 9.6 13.4 9.6 13.4 9.6 Z M 11.7 11.6 C 11.9 11.5 12.3 11.8 11.9 12.1 C 11.6 12.0 11.5 11.6 11.7 11.6 C 11.7 11.6 11.7 11.6 11.7 11.6 Z M 8.6 5.9 C 8.8 5.9 9.2 6.2 8.8 6.5 C 8.5 6.3 8.4 5.9 8.6 5.9 C 8.6 5.9 8.6 5.9 8.6 5.9 Z M 13.5 11.5 C 13.7 11.7 13.5 12.1 13.2 11.9 C 13.2 11.6 12.6 10.9 13.5 11.5 C 13.5 11.5 13.5 11.5 13.5 11.5 Z M 16.0 11.8 C 16.5 12.7 14.6 11.7 14.7 11.5 C 14.7 11.1 15.8 11.1 16.0 11.8 C 16.0 11.8 16.0 11.8 16.0 11.8 Z M 13.5 12.3 C 14.0 13.1 13.0 12.3 13.5 12.3 C 13.5 12.3 13.5 12.3 13.5 12.3 Z M 6.9 8.8 C 7.3 9.6 6.4 8.8 6.9 8.8 C 6.9 8.8 6.9 8.8 6.9 8.8 Z M 9.1 13.0 C 9.6 13.8 8.6 13.0 9.1 13.0 C 9.1 13.0 9.1 13.0 9.1 13.0 Z M 11.1 8.6 C 10.1 7.5 11.8 7.7 11.1 8.6 C 11.1 8.6 11.1 8.6 11.1 8.6 Z M 17.7 13.4 C 16.7 12.3 18.4 12.5 17.7 13.4 C 17.7 13.4 17.7 13.4 17.7 13.4 Z M 129.6 125.8 C 130.7 126.6 128.0 121.8 128.2 124.5 C 127.6 125.9 125.1 123.2 126.7 123.0 C 126.0 122.1 126.1 122.0 125.2 122.1 C 125.8 121.2 124.4 119.0 123.4 118.8 C 122.4 119.0 124.5 120.1 122.8 119.7 C 120.4 117.7 122.2 120.6 120.5 120.6 C 120.4 120.5 120.8 120.0 120.4 120.1 C 119.5 120.8 120.3 122.6 119.1 122.6 C 119.6 122.8 120.3 125.3 120.3 123.9 C 120.8 123.0 121.2 126.6 122.3 125.2 C 122.2 126.3 123.6 126.1 123.4 127.3 C 123.7 127.9 124.3 127.2 124.4 127.0 C 124.9 126.4 123.6 128.7 125.2 128.4 C 125.0 128.7 126.9 130.4 126.0 128.6 C 126.3 129.1 128.1 131.4 128.1 129.3 C 127.2 127.3 130.8 129.6 129.1 127.9 C 127.9 126.5 127.4 126.4 129.0 126.8 C 129.2 127.2 130.8 128.6 130.0 126.8 C 129.6 126.7 129.1 125.9 129.6 125.8 C 129.6 125.8 129.6 125.8 129.6 125.8 Z M 128.2 127.7 C 127.5 127.0 128.6 127.2 128.2 127.7 C 128.2 127.7 128.2 127.7 128.2 127.7 Z M 123.1 127.4 C 122.2 126.7 123.4 127.0 123.1 127.4 C 123.1 127.4 123.1 127.4 123.1 127.4 Z M 127.5 123.2 C 126.8 123.2 127.8 121.9 127.5 123.2 C 127.5 123.2 127.5 123.2 127.5 123.2 Z M 125.2 127.8 C 125.2 127.7 125.5 127.8 125.7 127.9 C 125.6 127.9 125.3 127.8 125.2 127.8 C 125.2 127.8 125.2 127.8 125.2 127.8 Z M 126.2 121.9 C 124.6 121.4 126.9 120.8 126.2 121.9 C 126.2 121.9 126.2 121.9 126.2 121.9 Z M 122.9 120.7 C 121.6 121.7 122.0 119.3 122.9 120.7 C 122.9 120.7 122.9 120.7 122.9 120.7 Z M 122.0 124.8 C 122.4 124.7 122.0 125.1 122.0 124.8 C 122.0 124.8 122.0 124.8 122.0 124.8 Z M 126.7 129.9 C 127.2 129.8 126.8 130.2 126.7 129.9 C 126.7 129.9 126.7 129.9 126.7 129.9 Z M 120.7 123.3 C 121.2 123.0 120.9 123.9 120.7 123.3 C 120.7 123.3 120.7 123.3 120.7 123.3 Z M 126.8 123.4 C 128.8 123.6 126.8 126.0 126.8 123.4 C 126.8 123.4 126.8 123.4 126.8 123.4 Z M 128.8 125.2 C 129.7 125.7 128.1 125.6 127.9 125.2 C 128.0 125.1 128.6 125.1 128.8 125.2 C 128.8 125.2 128.8 125.2 128.8 125.2 Z M 125.7 122.5 C 126.8 122.7 126.1 123.4 125.7 122.5 C 125.7 122.5 125.7 122.5 125.7 122.5 Z M 127.9 123.8 C 128.2 124.2 127.5 123.6 127.9 123.8 C 127.9 123.8 127.9 123.8 127.9 123.8 Z M 125.2 120.1 C 125.4 120.6 124.8 119.9 125.2 120.1 C 125.2 120.1 125.2 120.1 125.2 120.1 Z M 130.1 125.6 C 130.3 126.0 129.7 125.4 130.1 125.6 C 130.1 125.6 130.1 125.6 130.1 125.6 Z M 124.9 121.0 C 124.4 121.3 124.5 123.2 123.5 120.6 C 123.4 120.0 124.8 120.2 124.9 121.0 C 124.9 121.0 124.9 121.0 124.9 121.0 Z M 20.4 17.6 C 16.9 11.6 15.8 14.9 15.2 15.1 C 13.9 15.1 14.2 16.1 14.7 17.5 C 14.3 19.9 17.7 17.6 17.0 19.7 C 16.4 22.8 20.1 19.5 18.6 22.0 C 17.9 22.3 20.2 23.8 20.2 23.5 C 20.2 25.3 23.2 25.0 23.3 24.8 C 23.7 25.7 22.0 27.5 25.3 28.2 C 27.2 29.2 26.1 31.6 26.9 30.0 C 26.7 32.4 28.1 30.3 28.7 31.9 C 28.7 33.4 29.9 30.7 29.8 33.5 C 31.5 33.0 28.4 33.7 32.9 36.5 C 31.3 34.7 35.6 37.4 34.1 37.4 C 32.0 37.0 36.1 38.8 37.3 41.0 C 38.2 41.0 41.2 42.0 39.8 42.8 C 40.2 45.8 42.3 43.8 42.0 45.6 C 42.1 46.6 43.3 45.9 43.6 46.3 C 43.4 47.8 44.5 47.8 46.4 50.1 C 50.7 55.3 49.2 48.8 51.3 50.3 C 51.9 50.2 52.0 45.0 51.0 48.0 C 51.2 47.1 45.3 45.3 49.4 45.1 C 47.1 44.5 50.7 44.5 46.7 42.6 C 49.2 48.1 41.4 38.6 46.1 41.7 C 45.9 40.6 44.2 39.1 45.0 40.6 C 44.0 42.5 42.8 37.2 42.7 40.5 C 40.7 37.6 39.9 39.8 40.2 38.0 C 41.5 35.6 39.9 38.6 39.2 36.8 C 36.2 33.9 40.6 34.0 37.4 33.6 C 35.5 29.9 36.0 33.8 34.8 33.1 C 33.3 34.0 32.8 29.1 35.2 31.2 C 33.4 30.7 35.6 30.4 33.5 29.9 C 33.3 32.0 33.0 26.9 32.5 28.2 C 31.0 27.4 30.9 28.7 30.5 28.3 C 28.8 26.6 30.5 26.0 29.2 26.5 C 28.4 26.6 29.1 24.2 28.5 24.4 C 30.2 26.2 25.7 24.1 26.2 23.3 C 27.4 24.3 27.2 21.2 25.5 21.4 C 23.9 24.9 24.6 19.2 22.9 19.3 C 22.3 21.5 18.8 15.6 21.3 16.7 C 21.0 16.7 20.4 17.7 20.4 17.6 M 27.7 24.1 C 29.1 25.7 25.9 22.7 27.7 24.1 M 28.1 23.6 C 28.2 24.7 27.0 21.9 28.3 23.5 C 28.3 23.6 28.0 23.5 28.1 23.6 M 34.2 29.7 C 33.6 29.9 33.6 28.6 34.2 29.7 M 34.5 31.7 C 35.1 33.1 33.1 30.5 34.5 31.7 M 48.3 45.0 C 44.8 45.7 48.1 42.3 48.3 45.0 M 39.8 35.6 C 37.9 34.2 41.2 35.3 39.8 35.6 M 38.8 35.6 C 37.7 35.2 39.1 35.0 38.8 35.6 M 45.7 42.4 C 45.8 42.6 45.8 42.6 45.7 42.4 C 45.7 42.4 45.7 42.4 45.7 42.4 Z M 49.7 46.5 C 49.7 46.4 49.7 46.4 49.7 46.5 C 49.7 46.5 49.7 46.5 49.7 46.5 Z M 41.6 38.7 C 40.9 37.0 43.8 40.6 41.6 38.7 C 41.6 38.7 41.6 38.7 41.6 38.7 Z M 44.5 47.8 C 44.4 47.7 44.4 47.7 44.5 47.8 C 44.5 47.8 44.5 47.8 44.5 47.8 Z M 25.6 23.9 C 25.5 23.8 25.5 23.8 25.6 23.9 C 25.6 23.9 25.6 23.9 25.6 23.9 Z M 21.8 18.5 C 21.6 18.8 21.2 17.5 21.8 18.5 C 21.8 18.5 21.8 18.5 21.8 18.5 Z M 15.7 17.2 C 15.7 17.2 15.7 17.2 15.7 17.2 C 15.7 17.2 15.7 17.2 15.7 17.2 Z M 23.0 23.5 C 22.9 23.4 22.9 23.4 23.0 23.5 C 23.0 23.5 23.0 23.5 23.0 23.5 Z M 25.2 22.5 C 25.6 20.6 26.6 24.6 25.2 22.5 C 25.2 22.5 25.2 22.5 25.2 22.5 Z M 37.2 40.1 C 37.7 39.7 38.0 41.4 37.2 40.1 C 37.2 40.1 37.2 40.1 37.2 40.1 Z M 34.2 32.4 C 34.7 32.3 34.8 33.2 34.2 32.4 C 34.2 32.4 34.2 32.4 34.2 32.4 Z M 33.3 28.3 C 33.7 28.2 33.8 29.1 33.3 28.3 C 33.3 28.3 33.3 28.3 33.3 28.3 Z M 22.2 18.3 C 22.4 18.3 22.4 18.3 22.2 18.3 C 22.2 18.3 22.2 18.3 22.2 18.3 Z M 23.0 20.8 C 23.0 18.6 24.1 23.1 23.0 20.8 C 23.0 20.8 23.0 20.8 23.0 20.8 Z M 20.7 19.2 C 20.9 20.2 19.5 17.5 20.7 19.2 M 20.2 21.9 C 22.0 22.8 17.0 22.6 20.2 21.9 C 20.2 21.9 20.2 21.9 20.2 21.9 Z M 26.8 29.4 C 26.8 29.5 26.8 29.5 26.8 29.4 C 26.8 29.4 26.8 29.4 26.8 29.4 Z M 29.2 25.5 C 30.4 26.7 28.2 24.9 29.2 25.5 C 29.2 25.5 29.2 25.5 29.2 25.5 Z M 18.9 14.6 C 20.1 15.9 17.8 14.1 18.9 14.6 C 18.9 14.6 18.9 14.6 18.9 14.6 Z M 31.9 32.4 C 34.1 34.2 30.1 31.8 31.9 32.4 C 31.9 32.4 31.9 32.4 31.9 32.4 Z M 40.5 38.5 C 40.5 38.6 40.5 38.6 40.5 38.5 C 40.5 38.5 40.5 38.5 40.5 38.5 Z M 42.3 39.4 C 42.3 39.4 42.3 39.4 42.3 39.4 C 42.3 39.4 42.3 39.4 42.3 39.4 Z M 46.9 46.2 C 46.9 46.3 46.9 46.3 46.9 46.2 C 46.9 46.2 46.9 46.2 46.9 46.2 Z M 44.1 40.1 C 44.1 40.1 44.1 40.1 44.1 40.1 C 44.1 40.1 44.1 40.1 44.1 40.1 Z M 47.7 44.3 C 47.8 44.4 47.8 44.4 47.7 44.3 C 47.7 44.3 47.7 44.3 47.7 44.3 Z M 48.1 42.8 C 48.2 42.9 48.2 42.9 48.1 42.8 C 48.1 42.8 48.1 42.8 48.1 42.8 Z M 34.6 38.8 C 34.6 39.0 34.6 39.0 34.6 38.8 C 34.6 38.8 34.6 38.8 34.6 38.8 Z M 24.8 20.0 C 24.8 20.2 24.8 20.2 24.8 20.0 C 24.8 20.0 24.8 20.0 24.8 20.0 Z M 47.0 44.4 C 47.0 44.5 47.0 44.5 47.0 44.4 C 47.0 44.4 47.0 44.4 47.0 44.4 Z M 36.5 35.7 C 35.6 36.7 36.9 33.6 36.8 35.9 C 36.7 35.9 36.6 35.5 36.5 35.7 M 36.3 38.5 C 36.2 38.5 36.2 38.5 36.3 38.5 C 36.3 38.5 36.3 38.5 36.3 38.5 Z M 31.3 34.7 C 31.2 34.7 31.2 34.7 31.3 34.7 C 31.3 34.7 31.3 34.7 31.3 34.7 Z M 43.6 39.2 C 43.9 38.5 44.2 40.7 43.4 39.1 M 45.3 47.8 C 45.6 47.2 45.9 49.3 45.1 47.7 M 17.1 13.6 C 16.6 13.8 16.6 12.6 17.1 13.6 M 29.9 34.3 C 29.3 34.5 29.3 33.2 29.9 34.3 M 33.1 35.1 C 33.4 34.4 33.8 36.6 32.9 35.0 M 42.3 44.8 C 42.4 44.9 42.4 44.9 42.3 44.8 C 42.3 44.8 42.3 44.8 42.3 44.8 Z M 31.0 27.4 C 31.0 27.5 31.0 27.5 31.0 27.4 C 31.0 27.4 31.0 27.4 31.0 27.4 Z M 35.2 33.8 C 35.2 32.4 35.7 35.2 35.2 33.8 M 28.2 27.1 C 28.0 25.2 29.6 29.1 28.2 27.1 M 47.3 50.3 C 47.2 48.1 47.6 51.8 47.3 50.3 M 44.1 41.8 C 44.0 39.6 44.4 43.3 44.1 41.8 M 31.6 28.9 C 32.1 28.3 32.4 30.5 31.6 28.9 M 20.0 16.3 C 19.0 15.1 21.9 17.3 20.0 16.3 M 39.4 42.0 C 39.4 42.1 39.4 42.1 39.4 42.0 C 39.4 42.0 39.4 42.0 39.4 42.0 Z M 19.6 24.0 C 19.6 24.1 19.6 24.1 19.6 24.0 C 19.6 24.0 19.6 24.0 19.6 24.0 Z M 52.3 48.3 C 52.3 48.4 52.3 48.4 52.3 48.3 C 52.3 48.3 52.3 48.3 52.3 48.3 Z M 42.9 41.6 C 42.9 41.7 42.9 41.7 42.9 41.6 C 42.9 41.6 42.9 41.6 42.9 41.6 Z M 50.2 45.9 C 50.2 46.1 50.2 46.1 50.2 45.9 C 50.2 45.9 50.2 45.9 50.2 45.9 Z M 38.4 38.7 C 38.4 38.8 38.4 38.8 38.4 38.7 C 38.4 38.7 38.4 38.7 38.4 38.7 Z M 40.4 35.3 C 40.4 35.3 40.4 35.3 40.4 35.3 C 40.4 35.3 40.4 35.3 40.4 35.3 Z M 35.2 32.4 C 35.2 32.5 35.2 32.5 35.2 32.4 C 35.2 32.4 35.2 32.4 35.2 32.4 Z M 42.0 37.3 C 44.6 39.6 39.9 37.0 42.0 37.3 C 42.0 37.3 42.0 37.3 42.0 37.3 Z M 35.2 35.9 C 35.2 35.9 35.2 35.9 35.2 35.9 C 35.2 35.9 35.2 35.9 35.2 35.9 Z M 36.7 33.6 C 39.0 34.4 36.2 35.7 36.7 33.6 M 30.7 26.3 C 31.6 26.3 30.3 27.2 30.7 26.3 M 24.5 27.2 C 24.4 27.2 24.4 27.2 24.5 27.2 C 24.5 27.2 24.5 27.2 24.5 27.2 Z M 25.4 27.6 C 25.5 27.7 25.5 27.7 25.4 27.6 C 25.4 27.6 25.4 27.6 25.4 27.6 Z M 29.2 24.5 C 29.2 24.5 29.2 24.5 29.2 24.5 C 29.2 24.5 29.2 24.5 29.2 24.5 Z M 24.5 28.7 C 24.6 28.8 24.6 28.8 24.5 28.7 C 24.5 28.7 24.5 28.7 24.5 28.7 Z M 39.4 34.4 C 39.4 34.5 39.4 34.5 39.4 34.4 C 39.4 34.4 39.4 34.4 39.4 34.4 Z M 51.8 46.7 C 51.8 46.7 51.8 46.7 51.8 46.7 C 51.8 46.7 51.8 46.7 51.8 46.7 Z M 17.5 19.5 C 17.5 19.6 17.5 19.6 17.5 19.5 C 17.5 19.5 17.5 19.5 17.5 19.5 Z M 39.6 36.8 C 39.6 36.9 39.6 36.9 39.6 36.8 C 39.6 36.8 39.6 36.8 39.6 36.8 Z M 22.9 25.3 C 22.9 25.4 22.9 25.4 22.9 25.3 C 22.9 25.3 22.9 25.3 22.9 25.3 Z M 39.1 35.8 C 39.1 35.8 39.1 35.8 39.1 35.8 C 39.1 35.8 39.1 35.8 39.1 35.8 Z M 38.8 41.8 C 38.8 41.9 38.8 41.9 38.8 41.8 C 38.8 41.8 38.8 41.8 38.8 41.8 Z M 40.8 45.1 C 40.8 45.1 40.8 45.1 40.8 45.1 C 40.8 45.1 40.8 45.1 40.8 45.1 Z M 40.5 39.7 C 40.5 39.8 40.5 39.8 40.5 39.7 C 40.5 39.7 40.5 39.7 40.5 39.7 Z M 23.2 23.3 C 19.3 17.5 27.4 26.7 23.2 23.3 M 41.1 40.8 C 37.9 37.2 44.9 42.4 41.1 40.8 C 41.7 40.9 41.2 40.8 41.1 40.8 M 54.0 49.1 C 51.6 48.7 50.6 49.7 50.2 51.3 C 50.3 52.5 52.3 50.5 50.7 52.2 C 48.8 50.9 48.8 55.4 51.0 53.2 C 53.4 55.0 49.9 54.9 52.0 55.3 C 54.5 57.3 52.7 56.9 54.5 58.4 C 56.7 58.2 55.0 60.0 56.5 59.3 C 54.4 59.7 58.7 60.8 58.2 61.4 C 55.9 60.6 64.1 67.4 60.4 62.9 C 62.7 64.0 61.3 64.8 61.7 65.5 C 63.2 65.5 63.9 68.8 65.7 69.1 C 65.6 68.7 65.2 68.2 65.2 67.8 C 65.4 67.0 66.3 69.0 66.2 68.9 C 67.1 69.3 70.6 71.2 66.4 69.6 C 65.7 70.1 69.0 71.7 68.4 72.1 C 70.9 74.7 70.2 71.6 70.4 73.6 C 72.2 75.4 73.5 76.7 73.6 76.5 C 74.5 77.7 74.1 78.6 75.7 79.0 C 76.6 82.4 79.8 78.0 78.0 81.4 C 79.3 81.4 78.2 83.7 79.7 82.0 C 78.2 82.0 82.2 87.0 81.4 83.9 C 82.3 84.0 83.1 88.8 84.3 86.8 C 86.5 86.6 87.5 85.3 86.4 82.0 C 85.7 83.2 85.0 78.7 85.1 81.9 C 86.5 84.4 81.1 79.0 82.8 79.6 C 84.9 78.0 79.0 78.2 79.2 75.7 C 79.4 77.4 74.7 73.4 77.4 73.3 C 76.7 72.4 75.8 72.8 75.8 71.1 C 78.2 73.9 73.3 71.6 74.3 70.9 C 75.3 70.8 71.8 66.5 71.4 67.7 C 70.9 71.0 70.8 66.3 69.4 66.4 C 66.9 64.7 71.4 65.1 68.4 64.9 C 68.2 64.3 65.3 61.4 67.5 62.8 C 68.0 63.7 63.7 63.2 65.1 61.3 C 69.0 63.4 62.1 57.3 62.6 58.8 C 66.4 64.4 56.6 54.9 61.2 57.6 C 60.0 54.7 62.2 57.9 59.2 55.7 C 59.0 56.6 56.5 55.1 58.0 54.5 C 59.2 52.5 55.2 55.9 55.8 52.2 C 56.5 51.0 52.0 49.7 54.1 49.8 C 54.3 49.8 54.1 49.2 54.0 49.1 M 54.7 50.2 C 54.0 50.2 54.6 49.2 54.7 50.2 M 54.0 50.1 C 54.0 50.1 54.0 50.1 54.0 50.1 C 54.0 50.1 54.0 50.1 54.0 50.1 Z M 58.7 55.4 C 58.8 55.3 58.8 55.3 58.7 55.4 C 58.7 55.4 58.7 55.4 58.7 55.4 Z M 58.8 63.3 C 58.8 63.2 58.8 63.2 58.8 63.3 C 58.8 63.3 58.8 63.3 58.8 63.3 Z M 62.0 58.8 C 62.0 58.8 62.0 58.8 62.0 58.8 C 62.0 58.8 62.0 58.8 62.0 58.8 Z M 56.7 53.9 C 56.7 53.8 56.7 53.8 56.7 53.9 C 56.7 53.9 56.7 53.9 56.7 53.9 Z M 62.3 57.9 C 61.9 58.8 61.5 56.3 62.4 57.9 C 62.4 58.0 62.2 57.7 62.3 57.9 M 66.8 62.0 C 66.8 62.1 66.8 62.1 66.8 62.0 M 71.8 76.2 C 71.8 76.3 71.8 76.3 71.8 76.2 M 77.2 72.4 C 77.3 72.5 77.3 72.5 77.2 72.4 M 70.6 66.9 C 72.0 68.2 70.6 67.6 70.6 66.9 M 80.4 76.2 C 79.1 74.2 82.5 77.7 80.4 76.2 M 82.4 77.5 C 82.5 77.7 82.5 77.7 82.4 77.5 M 74.6 70.2 C 74.5 70.2 74.5 70.2 74.6 70.2 C 74.6 70.2 74.6 70.2 74.6 70.2 Z M 70.2 66.2 C 68.8 64.1 72.6 67.4 70.2 66.2 M 59.9 55.4 C 61.1 56.1 59.1 56.2 59.9 55.4 M 57.6 53.8 C 57.6 53.8 57.6 53.8 57.6 53.8 C 57.6 53.8 57.6 53.8 57.6 53.8 Z M 77.8 73.5 C 77.7 73.4 77.7 73.4 77.8 73.5 C 77.8 73.5 77.8 73.5 77.8 73.5 Z M 79.8 75.3 C 79.7 75.3 79.7 75.3 79.8 75.3 C 79.8 75.3 79.8 75.3 79.8 75.3 Z M 78.7 82.8 C 78.6 82.8 78.6 82.8 78.7 82.8 C 78.7 82.8 78.7 82.8 78.7 82.8 Z M 57.3 57.0 C 56.3 55.4 60.0 56.9 58.7 57.7 C 58.4 58.3 57.5 57.1 57.3 57.0 M 67.7 66.2 C 66.5 68.0 68.4 62.9 67.7 66.2 M 81.7 78.7 C 81.2 81.7 81.3 75.8 81.7 78.7 M 84.6 81.0 C 85.0 82.1 79.5 76.3 83.9 79.8 C 84.6 79.9 84.5 80.5 84.6 81.0 M 66.2 62.8 C 65.8 64.0 64.5 60.4 66.2 62.8 M 71.8 73.2 C 72.9 73.3 75.0 74.5 73.4 74.7 C 72.2 75.8 70.5 72.9 71.8 73.2 M 54.3 51.4 C 56.6 51.2 53.1 52.5 54.3 51.4 M 59.2 56.6 C 59.3 56.5 59.3 56.5 59.2 56.6 C 59.2 56.6 59.2 56.6 59.2 56.6 Z M 61.4 58.4 C 61.4 58.6 61.4 58.6 61.4 58.4 M 56.2 51.1 C 56.2 51.3 56.2 51.3 56.2 51.1 M 73.1 71.8 C 73.1 72.0 73.1 72.0 73.1 71.8 M 69.9 66.9 C 70.5 70.1 68.5 66.1 69.9 66.9 M 62.6 64.6 C 62.6 65.8 61.3 63.4 62.6 64.6 M 73.5 69.6 C 73.7 72.2 70.5 68.9 73.5 69.6 M 69.0 65.8 C 69.1 65.9 69.1 65.9 69.0 65.8 C 69.0 65.8 69.0 65.8 69.0 65.8 Z M 72.1 73.9 C 72.1 73.9 72.1 73.9 72.1 73.9 C 72.1 73.9 72.1 73.9 72.1 73.9 Z M 72.8 74.4 C 72.7 74.4 72.7 74.4 72.8 74.4 C 72.8 74.4 72.8 74.4 72.8 74.4 Z M 75.4 71.2 C 75.3 71.2 75.3 71.2 75.4 71.2 C 75.4 71.2 75.4 71.2 75.4 71.2 Z M 54.1 57.0 C 55.4 58.5 52.8 56.1 54.1 57.0 C 54.1 57.0 54.1 57.0 54.1 57.0 Z M 63.8 59.5 C 65.1 62.8 61.3 58.8 63.8 59.5 C 63.8 59.5 63.8 59.5 63.8 59.5 Z M 64.8 63.7 C 64.8 63.8 64.8 63.8 64.8 63.7 C 64.8 63.7 64.8 63.7 64.8 63.7 Z M 73.4 68.0 C 73.3 68.1 73.3 68.1 73.4 68.0 C 73.4 68.0 73.4 68.0 73.4 68.0 Z M 54.7 57.8 C 54.6 57.9 54.6 57.9 54.7 57.8 C 54.7 57.8 54.7 57.8 54.7 57.8 Z M 78.6 75.8 C 78.6 75.8 78.6 75.8 78.6 75.8 C 78.6 75.8 78.6 75.8 78.6 75.8 Z M 68.2 70.3 C 69.2 70.4 67.9 70.8 68.2 70.3 C 68.2 70.3 68.2 70.3 68.2 70.3 Z M 70.2 72.4 C 70.3 72.4 70.3 72.4 70.2 72.4 C 70.2 72.4 70.2 72.4 70.2 72.4 Z M 83.0 77.9 C 83.1 77.9 83.1 77.9 83.0 77.9 C 83.0 77.9 83.0 77.9 83.0 77.9 Z M 74.4 78.8 C 74.4 78.9 74.4 78.9 74.4 78.8 C 74.4 78.8 74.4 78.8 74.4 78.8 Z M 77.5 79.1 C 77.5 79.1 77.5 79.1 77.5 79.1 C 77.5 79.1 77.5 79.1 77.5 79.1 Z M 74.7 71.1 C 77.0 72.9 73.7 71.2 74.7 71.1 C 74.7 71.1 74.7 71.1 74.7 71.1 Z M 83.0 83.8 C 83.0 83.9 83.0 83.9 83.0 83.8 C 83.0 83.8 83.0 83.8 83.0 83.8 Z M 85.7 83.2 C 85.7 83.3 85.7 83.3 85.7 83.2 C 85.7 83.2 85.7 83.2 85.7 83.2 Z M 87.1 82.8 C 87.1 83.0 87.1 83.0 87.1 82.8 C 87.1 82.8 87.1 82.8 87.1 82.8 Z M 59.6 60.1 C 59.6 60.0 59.6 60.0 59.6 60.1 C 59.6 60.1 59.6 60.1 59.6 60.1 Z M 61.5 56.6 C 61.5 56.6 61.5 56.6 61.5 56.6 C 61.5 56.6 61.5 56.6 61.5 56.6 Z M 64.4 59.3 C 64.4 59.2 64.4 59.2 64.4 59.3 C 64.4 59.3 64.4 59.3 64.4 59.3 Z M 57.5 61.3 C 57.5 61.2 57.5 61.2 57.5 61.3 C 57.5 61.3 57.5 61.3 57.5 61.3 Z M 70.2 69.4 C 70.2 69.3 70.2 69.3 70.2 69.4 C 70.2 69.4 70.2 69.4 70.2 69.4 Z M 70.1 71.5 C 70.1 71.4 70.1 71.4 70.1 71.5 C 70.1 71.5 70.1 71.5 70.1 71.5 Z M 66.2 70.5 C 66.2 70.5 66.2 70.5 66.2 70.5 C 66.2 70.5 66.2 70.5 66.2 70.5 Z M 69.9 73.2 C 69.9 73.2 69.9 73.2 69.9 73.2 C 69.9 73.2 69.9 73.2 69.9 73.2 Z M 50.9 53.7 C 50.9 53.8 50.9 53.8 50.9 53.7 C 50.9 53.7 50.9 53.7 50.9 53.7 Z M 52.8 51.4 C 52.7 51.5 52.7 51.5 52.8 51.4 C 52.8 51.4 52.8 51.4 52.8 51.4 Z M 72.1 68.2 C 73.0 68.3 72.4 69.8 72.1 68.2 M 67.8 64.5 C 67.7 64.5 67.7 64.5 67.8 64.5 C 67.8 64.5 67.8 64.5 67.8 64.5 Z M 78.7 75.0 C 78.4 76.4 77.2 72.7 78.7 75.0 C 78.7 75.0 78.7 75.0 78.7 75.0 Z M 73.1 76.4 C 73.1 76.4 73.1 76.4 73.1 76.4 C 73.1 76.4 73.1 76.4 73.1 76.4 Z M 74.5 77.1 C 74.5 77.2 74.5 77.2 74.5 77.1 C 74.5 77.1 74.5 77.1 74.5 77.1 Z M 82.5 80.6 C 82.5 80.8 82.5 80.8 82.5 80.6 M 68.0 63.3 C 68.3 64.2 68.2 64.0 68.0 63.3 M 80.0 76.4 C 79.9 76.4 79.9 76.4 80.0 76.4 C 80.0 76.4 80.0 76.4 80.0 76.4 Z M 84.2 81.4 C 84.2 81.4 84.2 81.4 84.2 81.4 C 84.2 81.4 84.2 81.4 84.2 81.4 Z M 64.6 61.0 C 63.7 62.1 63.4 61.3 64.6 61.0 M 56.4 53.4 C 56.3 53.5 56.3 53.5 56.4 53.4 C 56.4 53.4 56.4 53.4 56.4 53.4 Z M 91.3 87.0 C 90.2 83.8 88.7 85.3 88.6 85.4 C 91.0 83.5 85.9 84.3 85.9 85.1 C 85.5 85.3 83.5 90.6 87.3 89.9 C 88.0 90.1 87.6 91.0 87.8 91.3 C 90.5 93.9 87.1 88.3 90.3 91.6 C 90.6 92.5 88.2 93.5 91.3 94.2 C 91.2 94.5 92.7 97.3 92.7 95.7 C 92.9 97.5 94.6 97.2 95.7 98.0 C 96.1 99.3 93.7 98.5 97.8 100.7 C 97.7 103.4 100.7 101.4 100.3 104.2 C 101.1 105.0 104.9 103.6 101.6 103.3 C 102.0 103.3 102.1 101.0 104.1 103.9 C 103.4 103.8 99.4 105.2 104.5 107.8 C 105.1 108.4 107.3 109.2 107.3 109.9 C 105.0 108.2 108.9 113.7 109.2 112.5 C 111.7 116.1 111.1 113.1 112.5 116.2 C 114.3 118.1 113.1 114.5 114.7 117.4 C 116.5 119.0 114.7 118.5 114.6 118.3 C 115.9 119.9 116.9 120.0 117.4 120.5 C 117.6 121.0 117.7 122.2 118.8 121.9 C 121.5 122.2 121.3 119.6 123.2 119.1 C 122.6 117.4 121.8 119.5 121.9 117.8 C 120.6 118.0 121.9 117.7 118.6 114.7 C 118.5 115.0 118.7 116.3 117.9 115.6 C 116.8 114.3 119.7 113.1 116.2 112.5 C 118.1 115.3 112.2 109.8 114.0 112.5 C 111.0 110.0 113.4 111.5 111.9 109.0 C 110.6 110.5 113.2 107.4 111.3 107.8 C 111.7 107.0 108.3 104.1 109.8 107.2 C 106.1 104.3 109.0 105.6 108.5 103.7 C 107.1 102.1 106.2 105.8 106.9 103.2 C 105.8 100.5 106.0 104.0 105.9 101.2 C 105.4 103.0 104.5 99.8 103.8 101.6 C 100.3 98.4 105.5 100.7 102.3 99.2 C 103.0 100.0 104.4 98.0 101.9 97.6 C 100.5 100.3 101.8 94.0 100.1 97.7 C 94.7 93.8 100.5 95.8 97.9 93.2 C 97.3 92.6 97.8 94.8 97.2 94.3 C 94.2 90.6 97.7 92.6 94.6 92.2 C 91.0 89.3 94.8 90.1 93.3 88.5 C 92.6 89.0 90.2 88.7 91.3 87.0 M 93.5 90.6 C 94.6 90.8 93.5 91.4 93.5 90.6 M 87.6 83.4 C 88.7 83.7 87.6 84.2 87.6 83.4 M 96.6 92.9 C 98.0 93.3 96.2 93.8 96.6 92.9 M 113.5 111.1 C 112.3 109.8 114.4 111.3 113.5 111.1 M 90.3 85.9 C 91.8 86.4 89.9 86.9 90.3 85.9 M 88.1 85.8 C 88.1 85.9 88.1 85.9 88.1 85.8 M 116.3 111.7 C 116.4 111.8 116.4 111.8 116.3 111.7 M 111.7 107.0 C 112.6 108.0 110.8 106.7 111.7 107.0 M 107.0 111.2 C 108.0 112.3 106.2 110.9 107.0 111.2 M 119.0 114.2 C 120.3 114.9 118.8 115.0 119.0 114.2 M 120.6 117.8 C 121.9 118.3 120.7 118.8 120.6 117.8 M 91.4 91.5 C 91.3 91.6 91.3 91.6 91.4 91.5 C 91.4 91.5 91.4 91.5 91.4 91.5 Z M 98.9 101.2 C 98.3 99.8 99.6 103.0 98.9 101.2 M 100.2 96.7 C 100.0 98.3 99.0 95.3 100.2 96.7 C 100.2 96.7 100.2 96.7 100.2 96.7 Z M 98.3 95.6 C 98.3 95.7 98.3 95.7 98.3 95.6 C 98.3 95.6 98.3 95.6 98.3 95.6 Z M 103.1 100.6 C 103.1 100.5 103.1 100.5 103.1 100.6 C 103.1 100.6 103.1 100.6 103.1 100.6 Z M 102.1 99.6 C 101.5 99.4 101.7 98.9 102.1 99.6 C 102.1 99.6 102.1 99.6 102.1 99.6 Z M 106.3 109.6 C 105.7 109.3 105.9 108.8 106.3 109.6 C 106.3 109.6 106.3 109.6 106.3 109.6 Z M 100.2 98.4 C 99.2 99.2 100.1 97.1 100.2 98.4 C 100.2 98.4 100.2 98.4 100.2 98.4 Z M 103.3 105.8 C 104.0 106.0 103.3 107.5 103.3 105.8 M 117.2 112.8 C 117.8 113.0 117.2 114.6 117.2 112.8 M 107.1 102.3 C 107.8 102.5 107.2 104.1 107.1 102.3 M 94.5 90.7 C 94.5 90.9 94.5 90.9 94.5 90.7 M 96.3 100.3 C 97.3 100.7 96.3 101.1 96.3 100.3 M 86.9 90.4 C 87.9 90.7 86.8 91.1 86.9 90.4 M 111.5 115.5 C 111.7 115.3 112.5 116.7 111.5 115.5 M 106.9 104.9 C 107.7 106.0 108.1 107.4 106.3 105.4 C 106.4 105.1 107.1 105.5 106.9 104.9 C 106.9 104.9 106.9 104.9 106.9 104.9 Z M 108.1 110.2 C 108.1 110.5 108.1 110.5 108.1 110.2 M 109.3 105.7 C 109.4 105.9 109.4 105.9 109.3 105.7 M 114.5 111.1 C 114.5 111.3 114.5 111.3 114.5 111.1 M 115.4 111.5 C 115.4 111.5 115.4 111.5 115.4 111.5 C 115.4 111.5 115.4 111.5 115.4 111.5 Z M 121.6 116.9 C 121.5 116.9 121.5 116.9 121.6 116.9 C 121.6 116.9 121.6 116.9 121.6 116.9 Z M 112.7 109.5 C 112.7 109.5 112.7 109.5 112.7 109.5 C 112.7 109.5 112.7 109.5 112.7 109.5 Z M 114.0 117.7 C 114.0 117.7 114.0 117.7 114.0 117.7 C 114.0 117.7 114.0 117.7 114.0 117.7 Z M 114.0 116.6 C 114.0 116.6 114.0 116.6 114.0 116.6 C 114.0 116.6 114.0 116.6 114.0 116.6 Z M 91.8 87.5 C 93.2 87.6 90.6 89.5 91.8 87.5 M 116.5 119.1 C 116.7 120.5 115.1 117.9 116.5 119.1 C 116.5 119.1 116.5 119.1 116.5 119.1 Z M 111.3 109.6 C 111.3 109.8 111.3 109.8 111.3 109.6 M 115.7 111.9 C 115.6 112.1 115.6 112.1 115.7 111.9 M 101.0 95.9 C 101.0 96.1 101.0 96.1 101.0 95.9 M 119.5 116.1 C 121.8 118.8 117.2 116.3 119.5 116.1 M 99.0 95.6 C 99.1 95.5 99.1 95.5 99.0 95.6 M 102.9 102.8 C 104.6 104.4 101.8 102.7 102.9 102.8 M 108.2 105.9 C 108.1 105.9 108.1 105.9 108.2 105.9 C 108.2 105.9 108.2 105.9 108.2 105.9 Z M 105.8 103.4 C 104.4 102.4 105.7 102.9 105.8 103.4 C 105.8 103.4 105.8 103.4 105.8 103.4 Z M 92.1 89.5 C 93.5 91.2 90.2 88.2 92.1 89.5 C 92.1 89.5 92.1 89.5 92.1 89.5 Z M 116.3 117.1 C 116.2 117.1 116.2 117.1 116.3 117.1 C 116.3 117.1 116.3 117.1 116.3 117.1 Z M 113.0 108.6 C 112.1 108.1 113.0 108.0 113.0 108.6 C 113.0 108.6 113.0 108.6 113.0 108.6 Z M 122.4 117.7 C 121.5 117.3 122.4 117.1 122.4 117.7 C 122.4 117.7 122.4 117.7 122.4 117.7 Z M 90.4 87.4 C 94.6 94.6 83.2 79.5 90.4 87.4 C 90.4 87.4 90.4 87.4 90.4 87.4 Z M 107.4 103.8 C 107.3 103.8 107.3 103.8 107.4 103.8 C 107.4 103.8 107.4 103.8 107.4 103.8 Z M 97.5 92.7 C 97.4 92.7 97.4 92.7 97.5 92.7 C 97.5 92.7 97.5 92.7 97.5 92.7 Z M 94.8 91.7 C 94.8 91.7 94.8 91.7 94.8 91.7 C 94.8 91.7 94.8 91.7 94.8 91.7 Z M 91.8 95.7 C 91.8 95.7 91.8 95.7 91.8 95.7 C 91.8 95.7 91.8 95.7 91.8 95.7 Z M 94.1 94.7 C 93.9 94.8 93.9 94.8 94.1 94.7 C 94.1 94.7 94.1 94.7 94.1 94.7 Z M 89.8 91.7 C 89.7 91.7 89.7 91.7 89.8 91.7 C 89.8 91.7 89.8 91.7 89.8 91.7 Z M 89.4 92.2 C 89.3 92.2 89.3 92.2 89.4 92.2 C 89.4 92.2 89.4 92.2 89.4 92.2 Z M 114.7 112.9 C 114.6 112.9 114.6 112.9 114.7 112.9 C 114.7 112.9 114.7 112.9 114.7 112.9 Z M 111.2 112.4 C 113.1 113.2 110.1 112.7 111.2 112.4 C 111.2 112.4 111.2 112.4 111.2 112.4 Z M 100.2 99.9 C 101.6 100.9 99.0 99.6 100.2 99.9 C 100.2 99.9 100.2 99.9 100.2 99.9 Z M 99.6 103.1 C 99.6 103.2 99.6 103.2 99.6 103.1 C 99.6 103.1 99.6 103.1 99.6 103.1 Z M 95.7 90.9 C 95.6 90.9 95.6 90.9 95.7 90.9 C 95.7 90.9 95.7 90.9 95.7 90.9 Z M 92.9 89.2 C 92.0 89.9 92.6 88.2 92.9 89.2 M 104.6 100.1 C 104.5 100.2 104.5 100.2 104.6 100.1 C 104.6 100.1 104.6 100.1 104.6 100.1 Z M 110.6 108.4 C 110.5 108.4 110.5 108.4 110.6 108.4 C 110.6 108.4 110.6 108.4 110.6 108.4 Z M 118.1 115.0 C 118.0 115.0 118.0 115.0 118.1 115.0 C 118.1 115.0 118.1 115.0 118.1 115.0 Z M 108.9 104.6 C 108.8 104.7 108.8 104.7 108.9 104.6 C 108.9 104.6 108.9 104.6 108.9 104.6 Z M 104.9 101.9 C 104.7 102.0 104.7 102.0 104.9 101.9 C 104.9 101.9 104.9 101.9 104.9 101.9 Z M 118.6 117.6 C 118.5 117.6 118.5 117.6 118.6 117.6 C 118.6 117.6 118.6 117.6 118.6 117.6 Z M 109.8 105.3 C 109.8 105.3 109.8 105.3 109.8 105.3 C 109.8 105.3 109.8 105.3 109.8 105.3 Z M 109.5 109.7 C 109.4 109.7 109.4 109.7 109.5 109.7 C 109.5 109.7 109.5 109.7 109.5 109.7 Z M 94.2 88.5 C 94.2 88.5 94.2 88.5 94.2 88.5 C 94.2 88.5 94.2 88.5 94.2 88.5 Z M 119.7 116.7 C 119.6 116.7 119.6 116.7 119.7 116.7 C 119.7 116.7 119.7 116.7 119.7 116.7 Z M 120.8 116.4 C 120.7 116.4 120.7 116.4 120.8 116.4 C 120.8 116.4 120.8 116.4 120.8 116.4 Z M 112.2 114.9 C 110.2 112.0 114.6 117.0 113.6 114.4 C 117.4 117.8 112.7 115.5 112.2 114.9 C 112.2 114.9 112.2 114.9 112.2 114.9 Z M 112.2 114.9 " fill="#71AFE1"></path></g></g></g></svg>