<?xml version="1.0" encoding="UTF-8" standalone="no"?><svg xmlns="http://www.w3.org/2000/svg" xmlns:xlink="http://www.w3.org/1999/xlink" clip-rule="evenodd" stroke-miterlimit="4.00" viewBox="0 0 467 21"><desc>SVG generated by Keynote</desc><defs></defs><g transform="matrix(1.00, 0.00, -0.00, -1.00, 0.0, 21.0)"><text xml:space="preserve" font-family="Courier" font-size="20.0" fill="#008E00" transform="matrix(1.00, 0.00, -0.00, -1.00, 1.0, 5.0)">o</text><text xml:space="preserve" font-family="Courier" font-size="20.0" fill="#008E00" transform="matrix(1.00, 0.00, -0.00, -1.00, 13.0, 5.0)">p</text><text xml:space="preserve" font-family="Courier" font-size="20.0" fill="#008E00" transform="matrix(1.00, 0.00, -0.00, -1.00, 25.0, 5.0)">e</text><text xml:space="preserve" font-family="Courier" font-size="20.0" fill="#008E00" transform="matrix(1.00, 0.00, -0.00, -1.00, 37.0, 5.0)">n</text><text xml:space="preserve" font-family="Courier" font-size="20.0" fill="#000000" transform="matrix(1.00, 0.00, -0.00, -1.00, 49.0, 5.0)">(</text><text xml:space="preserve" font-family="Courier" font-size="20.0" fill="#C8352B" transform="matrix(1.00, 0.00, -0.00, -1.00, 61.0, 5.0)">'</text><text xml:space="preserve" font-family="Courier" font-size="20.0" fill="#C8352B" transform="matrix(1.00, 0.00, -0.00, -1.00, 73.0, 5.0)">f</text><text xml:space="preserve" font-family="Courier" font-size="20.0" fill="#C8352B" transform="matrix(1.00, 0.00, -0.00, -1.00, 85.0, 5.0)">i</text><text xml:space="preserve" font-family="Courier" font-size="20.0" fill="#C8352B" transform="matrix(1.00, 0.00, -0.00, -1.00, 97.0, 5.0)">l</text><text xml:space="preserve" font-family="Courier" font-size="20.0" fill="#C8352B" transform="matrix(1.00, 0.00, -0.00, -1.00, 109.0, 5.0)">e</text><text xml:space="preserve" font-family="Courier" font-size="20.0" fill="#C8352B" transform="matrix(1.00, 0.00, -0.00, -1.00, 121.0, 5.0)">n</text><text xml:space="preserve" font-family="Courier" font-size="20.0" fill="#C8352B" transform="matrix(1.00, 0.00, -0.00, -1.00, 133.0, 5.0)">a</text><text xml:space="preserve" font-family="Courier" font-size="20.0" fill="#C8352B" transform="matrix(1.00, 0.00, -0.00, -1.00, 145.0, 5.0)">m</text><text xml:space="preserve" font-family="Courier" font-size="20.0" fill="#C8352B" transform="matrix(1.00, 0.00, -0.00, -1.00, 157.0, 5.0)">e</text><text xml:space="preserve" font-family="Courier" font-size="20.0" fill="#C8352B" transform="matrix(1.00, 0.00, -0.00, -1.00, 169.0, 5.0)">'</text><text xml:space="preserve" font-family="Courier" font-size="20.0" fill="#000000" transform="matrix(1.00, 0.00, -0.00, -1.00, 181.0, 5.0)">,</text><text xml:space="preserve" font-family="Courier" font-size="20.0" fill="#000000" transform="matrix(1.00, 0.00, -0.00, -1.00, 193.0, 5.0)"> </text><text xml:space="preserve" font-family="Courier" font-size="20.0" fill="#C8352B" transform="matrix(1.00, 0.00, -0.00, -1.00, 205.0, 5.0)">'</text><text xml:space="preserve" font-family="Courier" font-size="20.0" fill="#C8352B" transform="matrix(1.00, 0.00, -0.00, -1.00, 217.0, 5.0)">r</text><text xml:space="preserve" font-family="Courier" font-size="20.0" fill="#C8352B" transform="matrix(1.00, 0.00, -0.00, -1.00, 229.0, 5.0)">'</text><text xml:space="preserve" font-family="Courier" font-size="20.0" fill="#000000" transform="matrix(1.00, 0.00, -0.00, -1.00, 241.0, 5.0)">,</text><text xml:space="preserve" font-family="Courier" font-size="20.0" fill="#000000" transform="matrix(1.00, 0.00, -0.00, -1.00, 253.0, 5.0)"> </text><text xml:space="preserve" font-family="Courier" font-size="20.0" fill="#000000" transform="matrix(1.00, 0.00, -0.00, -1.00, 265.0, 5.0)">e</text><text xml:space="preserve" font-family="Courier" font-size="20.0" fill="#000000" transform="matrix(1.00, 0.00, -0.00, -1.00, 277.1, 5.0)">n</text><text xml:space="preserve" font-family="Courier" font-size="20.0" fill="#000000" transform="matrix(1.00, 0.00, -0.00, -1.00, 289.1, 5.0)">c</text><text xml:space="preserve" font-family="Courier" font-size="20.0" fill="#000000" transform="matrix(1.00, 0.00, -0.00, -1.00, 301.1, 5.0)">o</text><text xml:space="preserve" font-family="Courier" font-size="20.0" fill="#000000" transform="matrix(1.00, 0.00, -0.00, -1.00, 313.1, 5.0)">d</text><text xml:space="preserve" font-family="Courier" font-size="20.0" fill="#000000" transform="matrix(1.00, 0.00, -0.00, -1.00, 325.1, 5.0)">i</text><text xml:space="preserve" font-family="Courier" font-size="20.0" fill="#000000" transform="matrix(1.00, 0.00, -0.00, -1.00, 337.1, 5.0)">n</text><text xml:space="preserve" font-family="Courier" font-size="20.0" fill="#000000" transform="matrix(1.00, 0.00, -0.00, -1.00, 349.1, 5.0)">g</text><text xml:space="preserve" font-family="Courier" font-size="20.0" fill="#797979" transform="matrix(1.00, 0.00, -0.00, -1.00, 361.1, 5.0)">=</text><text xml:space="preserve" font-family="Courier" font-size="20.0" fill="#C8352B" transform="matrix(1.00, 0.00, -0.00, -1.00, 373.1, 5.0)">'</text><text xml:space="preserve" font-family="Courier" font-size="20.0" fill="#C8352B" transform="matrix(1.00, 0.00, -0.00, -1.00, 385.1, 5.0)">u</text><text xml:space="preserve" font-family="Courier" font-size="20.0" fill="#C8352B" transform="matrix(1.00, 0.00, -0.00, -1.00, 397.1, 5.0)">t</text><text xml:space="preserve" font-family="Courier" font-size="20.0" fill="#C8352B" transform="matrix(1.00, 0.00, -0.00, -1.00, 409.1, 5.0)">f</text><text xml:space="preserve" font-family="Courier" font-size="20.0" fill="#C8352B" transform="matrix(1.00, 0.00, -0.00, -1.00, 421.1, 5.0)">-</text><text xml:space="preserve" font-family="Courier" font-size="20.0" fill="#C8352B" transform="matrix(1.00, 0.00, -0.00, -1.00, 433.1, 5.0)">8</text><text xml:space="preserve" font-family="Courier" font-size="20.0" fill="#C8352B" transform="matrix(1.00, 0.00, -0.00, -1.00, 445.1, 5.0)">'</text><text xml:space="preserve" font-family="Courier" font-size="20.0" fill="#000000" transform="matrix(1.00, 0.00, -0.00, -1.00, 457.1, 5.0)">)</text></g></svg>