<?xml version="1.0" encoding="UTF-8" standalone="no"?><svg xmlns="http://www.w3.org/2000/svg" xmlns:xlink="http://www.w3.org/1999/xlink" clip-rule="evenodd" stroke-miterlimit="4.00" viewBox="0 0 345 22"><desc>SVG generated by Keynote</desc><defs></defs><g transform="matrix(1.00, 0.00, -0.00, -1.00, 0.0, 22.0)"><text xml:space="preserve" font-family="CourierNewPSMT" font-size="24.0" fill="#FEFFFE" transform="matrix(1.00, 0.00, -0.00, -1.00, -1.0, 4.0)">s</text><text xml:space="preserve" font-family="CourierNewPSMT" font-size="24.0" fill="#FEFFFE" transform="matrix(1.00, 0.00, -0.00, -1.00, 13.4, 4.0)">o</text><text xml:space="preserve" font-family="CourierNewPSMT" font-size="24.0" fill="#FEFFFE" transform="matrix(1.00, 0.00, -0.00, -1.00, 27.8, 4.0)">m</text><text xml:space="preserve" font-family="CourierNewPSMT" font-size="24.0" fill="#FEFFFE" transform="matrix(1.00, 0.00, -0.00, -1.00, 42.2, 4.0)">e</text><text xml:space="preserve" font-family="CourierNewPSMT" font-size="24.0" fill="#FEFFFE" transform="matrix(1.00, 0.00, -0.00, -1.00, 56.6, 4.0)">/</text><text xml:space="preserve" font-family="CourierNewPSMT" font-size="24.0" fill="#FEFFFE" transform="matrix(1.00, 0.00, -0.00, -1.00, 71.0, 4.0)">f</text><text xml:space="preserve" font-family="CourierNewPSMT" font-size="24.0" fill="#FEFFFE" transform="matrix(1.00, 0.00, -0.00, -1.00, 85.4, 4.0)">o</text><text xml:space="preserve" font-family="CourierNewPSMT" font-size="24.0" fill="#FEFFFE" transform="matrix(1.00, 0.00, -0.00, -1.00, 99.8, 4.0)">l</text><text xml:space="preserve" font-family="CourierNewPSMT" font-size="24.0" fill="#FEFFFE" transform="matrix(1.00, 0.00, -0.00, -1.00, 114.2, 4.0)">d</text><text xml:space="preserve" font-family="CourierNewPSMT" font-size="24.0" fill="#FEFFFE" transform="matrix(1.00, 0.00, -0.00, -1.00, 128.6, 4.0)">e</text><text xml:space="preserve" font-family="CourierNewPSMT" font-size="24.0" fill="#FEFFFE" transform="matrix(1.00, 0.00, -0.00, -1.00, 143.0, 4.0)">r</text><text xml:space="preserve" font-family="CourierNewPSMT" font-size="24.0" fill="#FEFFFE" transform="matrix(1.00, 0.00, -0.00, -1.00, 157.5, 4.0)">/</text><text xml:space="preserve" font-family="CourierNewPSMT" font-size="24.0" fill="#FEFFFE" transform="matrix(1.00, 0.00, -0.00, -1.00, 171.9, 4.0)">t</text><text xml:space="preserve" font-family="CourierNewPSMT" font-size="24.0" fill="#FEFFFE" transform="matrix(1.00, 0.00, -0.00, -1.00, 186.3, 4.0)">o</text><text xml:space="preserve" font-family="CourierNewPSMT" font-size="24.0" fill="#FEFFFE" transform="matrix(1.00, 0.00, -0.00, -1.00, 200.7, 4.0)">/</text><text xml:space="preserve" font-family="CourierNewPSMT" font-size="24.0" fill="#FEFFFE" transform="matrix(1.00, 0.00, -0.00, -1.00, 215.1, 4.0)">f</text><text xml:space="preserve" font-family="CourierNewPSMT" font-size="24.0" fill="#FEFFFE" transform="matrix(1.00, 0.00, -0.00, -1.00, 229.5, 4.0)">i</text><text xml:space="preserve" font-family="CourierNewPSMT" font-size="24.0" fill="#FEFFFE" transform="matrix(1.00, 0.00, -0.00, -1.00, 243.9, 4.0)">l</text><text xml:space="preserve" font-family="CourierNewPSMT" font-size="24.0" fill="#FEFFFE" transform="matrix(1.00, 0.00, -0.00, -1.00, 258.3, 4.0)">e</text><text xml:space="preserve" font-family="CourierNewPSMT" font-size="24.0" fill="#FEFFFE" transform="matrix(1.00, 0.00, -0.00, -1.00, 272.7, 4.0)">/</text><text xml:space="preserve" font-family="CourierNewPSMT" font-size="24.0" fill="#FEFFFE" transform="matrix(1.00, 0.00, -0.00, -1.00, 287.1, 4.0)">n</text><text xml:space="preserve" font-family="CourierNewPSMT" font-size="24.0" fill="#FEFFFE" transform="matrix(1.00, 0.00, -0.00, -1.00, 301.5, 4.0)">a</text><text xml:space="preserve" font-family="CourierNewPSMT" font-size="24.0" fill="#FEFFFE" transform="matrix(1.00, 0.00, -0.00, -1.00, 315.9, 4.0)">m</text><text xml:space="preserve" font-family="CourierNewPSMT" font-size="24.0" fill="#FEFFFE" transform="matrix(1.00, 0.00, -0.00, -1.00, 330.3, 4.0)">e</text></g></svg>