<?xml version="1.0" encoding="UTF-8" standalone="no"?><svg xmlns="http://www.w3.org/2000/svg" xmlns:xlink="http://www.w3.org/1999/xlink" clip-rule="evenodd" stroke-miterlimit="4.00" viewBox="0 0 371 22"><desc>SVG generated by Keynote</desc><defs></defs><g transform="matrix(1.00, 0.00, -0.00, -1.00, 0.0, 22.0)"><text xml:space="preserve" font-family="CourierNewPSMT" font-size="24.0" fill="#FEFFFE" transform="matrix(1.00, 0.00, -0.00, -1.00, -4.0, 4.0)">.</text><text xml:space="preserve" font-family="CourierNewPSMT" font-size="24.0" fill="#FEFFFE" transform="matrix(1.00, 0.00, -0.00, -1.00, 10.4, 4.0)">.</text><text xml:space="preserve" font-family="CourierNewPSMT" font-size="24.0" fill="#FEFFFE" transform="matrix(1.00, 0.00, -0.00, -1.00, 24.8, 4.0)">/</text><text xml:space="preserve" font-family="CourierNewPSMT" font-size="24.0" fill="#FEFFFE" transform="matrix(1.00, 0.00, -0.00, -1.00, 39.2, 4.0)">.</text><text xml:space="preserve" font-family="CourierNewPSMT" font-size="24.0" fill="#FEFFFE" transform="matrix(1.00, 0.00, -0.00, -1.00, 53.6, 4.0)">.</text><text xml:space="preserve" font-family="CourierNewPSMT" font-size="24.0" fill="#FEFFFE" transform="matrix(1.00, 0.00, -0.00, -1.00, 68.0, 4.0)">/</text><text xml:space="preserve" font-family="CourierNewPSMT" font-size="24.0" fill="#FEFFFE" transform="matrix(1.00, 0.00, -0.00, -1.00, 82.4, 4.0)">.</text><text xml:space="preserve" font-family="CourierNewPSMT" font-size="24.0" fill="#FEFFFE" transform="matrix(1.00, 0.00, -0.00, -1.00, 96.8, 4.0)">.</text><text xml:space="preserve" font-family="CourierNewPSMT" font-size="24.0" fill="#FEFFFE" transform="matrix(1.00, 0.00, -0.00, -1.00, 111.2, 4.0)">/</text><text xml:space="preserve" font-family="CourierNewPSMT" font-size="24.0" fill="#FEFFFE" transform="matrix(1.00, 0.00, -0.00, -1.00, 125.6, 4.0)">b</text><text xml:space="preserve" font-family="CourierNewPSMT" font-size="24.0" fill="#FEFFFE" transform="matrix(1.00, 0.00, -0.00, -1.00, 140.0, 4.0)">l</text><text xml:space="preserve" font-family="CourierNewPSMT" font-size="24.0" fill="#FEFFFE" transform="matrix(1.00, 0.00, -0.00, -1.00, 154.5, 4.0)">a</text><text xml:space="preserve" font-family="CourierNewPSMT" font-size="24.0" fill="#FEFFFE" transform="matrix(1.00, 0.00, -0.00, -1.00, 168.9, 4.0)">/</text><text xml:space="preserve" font-family="CourierNewPSMT" font-size="24.0" fill="#FEFFFE" transform="matrix(1.00, 0.00, -0.00, -1.00, 183.3, 4.0)">b</text><text xml:space="preserve" font-family="CourierNewPSMT" font-size="24.0" fill="#FEFFFE" transform="matrix(1.00, 0.00, -0.00, -1.00, 197.7, 4.0)">l</text><text xml:space="preserve" font-family="CourierNewPSMT" font-size="24.0" fill="#FEFFFE" transform="matrix(1.00, 0.00, -0.00, -1.00, 212.1, 4.0)">a</text><text xml:space="preserve" font-family="CourierNewPSMT" font-size="24.0" fill="#FEFFFE" transform="matrix(1.00, 0.00, -0.00, -1.00, 226.5, 4.0)">/</text><text xml:space="preserve" font-family="CourierNewPSMT" font-size="24.0" fill="#FEFFFE" transform="matrix(1.00, 0.00, -0.00, -1.00, 240.9, 4.0)">f</text><text xml:space="preserve" font-family="CourierNewPSMT" font-size="24.0" fill="#FEFFFE" transform="matrix(1.00, 0.00, -0.00, -1.00, 255.3, 4.0)">i</text><text xml:space="preserve" font-family="CourierNewPSMT" font-size="24.0" fill="#FEFFFE" transform="matrix(1.00, 0.00, -0.00, -1.00, 269.7, 4.0)">l</text><text xml:space="preserve" font-family="CourierNewPSMT" font-size="24.0" fill="#FEFFFE" transform="matrix(1.00, 0.00, -0.00, -1.00, 284.1, 4.0)">e</text><text xml:space="preserve" font-family="CourierNewPSMT" font-size="24.0" fill="#FEFFFE" transform="matrix(1.00, 0.00, -0.00, -1.00, 298.5, 4.0)">/</text><text xml:space="preserve" font-family="CourierNewPSMT" font-size="24.0" fill="#FEFFFE" transform="matrix(1.00, 0.00, -0.00, -1.00, 312.9, 4.0)">n</text><text xml:space="preserve" font-family="CourierNewPSMT" font-size="24.0" fill="#FEFFFE" transform="matrix(1.00, 0.00, -0.00, -1.00, 327.3, 4.0)">a</text><text xml:space="preserve" font-family="CourierNewPSMT" font-size="24.0" fill="#FEFFFE" transform="matrix(1.00, 0.00, -0.00, -1.00, 341.7, 4.0)">m</text><text xml:space="preserve" font-family="CourierNewPSMT" font-size="24.0" fill="#FEFFFE" transform="matrix(1.00, 0.00, -0.00, -1.00, 356.1, 4.0)">e</text></g></svg>