<?xml version="1.0" encoding="UTF-8" standalone="no"?><svg xmlns="http://www.w3.org/2000/svg" xmlns:xlink="http://www.w3.org/1999/xlink" clip-rule="evenodd" stroke-miterlimit="4.00" viewBox="0 0 196 29"><desc>SVG generated by Keynote</desc><defs></defs><g transform="matrix(1.00, 0.00, -0.00, -1.00, 0.0, 29.0)"><text xml:space="preserve" font-family="Chalkduster" font-size="20.0" fill="#FEFFFE" transform="matrix(1.00, 0.00, -0.00, -1.00, 0.5, 6.3)">*</text><text xml:space="preserve" font-family="Chalkduster" font-size="20.0" fill="#FEFFFE" transform="matrix(1.00, 0.00, -0.00, -1.00, 31.0, 9.0)">g</text><text xml:space="preserve" font-family="Chalkduster" font-size="20.0" fill="#FEFFFE" transform="matrix(1.00, 0.00, -0.00, -1.00, 44.9, 9.0)">e</text><text xml:space="preserve" font-family="Chalkduster" font-size="20.0" fill="#FEFFFE" transform="matrix(1.00, 0.00, -0.00, -1.00, 57.1, 9.0)">t</text><text xml:space="preserve" font-family="Chalkduster" font-size="20.0" fill="#FEFFFE" transform="matrix(1.00, 0.00, -0.00, -1.00, 66.3, 9.0)"> </text><text xml:space="preserve" font-family="Chalkduster" font-size="20.0" fill="#FEFFFE" transform="matrix(1.00, 0.00, -0.00, -1.00, 76.2, 9.0)">s</text><text xml:space="preserve" font-family="Chalkduster" font-size="20.0" fill="#FEFFFE" transform="matrix(1.00, 0.00, -0.00, -1.00, 86.3, 9.0)">o</text><text xml:space="preserve" font-family="Chalkduster" font-size="20.0" fill="#FEFFFE" transform="matrix(1.00, 0.00, -0.00, -1.00, 101.3, 9.0)">m</text><text xml:space="preserve" font-family="Chalkduster" font-size="20.0" fill="#FEFFFE" transform="matrix(1.00, 0.00, -0.00, -1.00, 122.0, 9.0)">e</text><text xml:space="preserve" font-family="Chalkduster" font-size="20.0" fill="#FEFFFE" transform="matrix(1.00, 0.00, -0.00, -1.00, 134.4, 9.0)"> </text><text xml:space="preserve" font-family="Chalkduster" font-size="20.0" fill="#FEFFFE" transform="matrix(1.00, 0.00, -0.00, -1.00, 144.4, 9.0)">d</text><text xml:space="preserve" font-family="Chalkduster" font-size="20.0" fill="#FEFFFE" transform="matrix(1.00, 0.00, -0.00, -1.00, 160.0, 9.0)">a</text><text xml:space="preserve" font-family="Chalkduster" font-size="20.0" fill="#FEFFFE" transform="matrix(1.00, 0.00, -0.00, -1.00, 172.4, 9.0)">t</text><text xml:space="preserve" font-family="Chalkduster" font-size="20.0" fill="#FEFFFE" transform="matrix(1.00, 0.00, -0.00, -1.00, 181.4, 9.0)">a</text></g></svg>