<?xml version="1.0" encoding="UTF-8" standalone="no"?><svg xmlns="http://www.w3.org/2000/svg" xmlns:xlink="http://www.w3.org/1999/xlink" clip-rule="evenodd" stroke-miterlimit="4.00" viewBox="0 0 365 34"><desc>SVG generated by Keynote</desc><defs></defs><g transform="matrix(1.00, 0.00, -0.00, -1.00, 0.0, 34.0)"><text xml:space="preserve" font-family="Chalkduster" font-size="20.0" fill="#FEFFFE" transform="matrix(1.00, 0.00, -0.00, -1.00, 1.0, 13.0)">T</text><text xml:space="preserve" font-family="Chalkduster" font-size="20.0" fill="#FEFFFE" transform="matrix(1.00, 0.00, -0.00, -1.00, 13.7, 13.0)">o</text><text xml:space="preserve" font-family="Chalkduster" font-size="20.0" fill="#FEFFFE" transform="matrix(1.00, 0.00, -0.00, -1.00, 28.9, 13.0)">o</text><text xml:space="preserve" font-family="Chalkduster" font-size="20.0" fill="#FEFFFE" transform="matrix(1.00, 0.00, -0.00, -1.00, 43.2, 13.0)"> </text><text xml:space="preserve" font-family="Chalkduster" font-size="20.0" fill="#FEFFFE" transform="matrix(1.00, 0.00, -0.00, -1.00, 53.2, 13.0)">s</text><text xml:space="preserve" font-family="Chalkduster" font-size="20.0" fill="#FEFFFE" transform="matrix(1.00, 0.00, -0.00, -1.00, 63.3, 13.0)">l</text><text xml:space="preserve" font-family="Chalkduster" font-size="20.0" fill="#FEFFFE" transform="matrix(1.00, 0.00, -0.00, -1.00, 71.9, 13.0)">o</text><text xml:space="preserve" font-family="Chalkduster" font-size="20.0" fill="#FEFFFE" transform="matrix(1.00, 0.00, -0.00, -1.00, 86.8, 13.0)">w</text><text xml:space="preserve" font-family="Chalkduster" font-size="20.0" fill="#FEFFFE" transform="matrix(1.00, 0.00, -0.00, -1.00, 102.0, 13.0)">.</text><text xml:space="preserve" font-family="Chalkduster" font-size="20.0" fill="#FEFFFE" transform="matrix(1.00, 0.00, -0.00, -1.00, 107.1, 13.0)">.</text><text xml:space="preserve" font-family="Chalkduster" font-size="20.0" fill="#FEFFFE" transform="matrix(1.00, 0.00, -0.00, -1.00, 112.1, 13.0)">.</text><text xml:space="preserve" font-family="Chalkduster" font-size="20.0" fill="#FEFFFE" transform="matrix(1.00, 0.00, -0.00, -1.00, 117.8, 13.0)"> </text><text xml:space="preserve" font-family="Chalkduster" font-size="20.0" fill="#FEFFFE" transform="matrix(1.00, 0.00, -0.00, -1.00, 127.8, 13.0)">=</text><text xml:space="preserve" font-family="Chalkduster" font-size="20.0" fill="#FEFFFE" transform="matrix(1.00, 0.00, -0.00, -1.00, 141.3, 13.0)">&gt;</text><text xml:space="preserve" font-family="Chalkduster" font-size="20.0" fill="#FEFFFE" transform="matrix(1.00, 0.00, -0.00, -1.00, 151.1, 13.0)"> </text><text xml:space="preserve" font-family="Chalkduster" font-size="20.0" fill="#FEFFFE" transform="matrix(1.00, 0.00, -0.00, -1.00, 161.0, 13.0)">P</text><text xml:space="preserve" font-family="Chalkduster" font-size="20.0" fill="#FEFFFE" transform="matrix(1.00, 0.00, -0.00, -1.00, 175.2, 13.0)">y</text><text xml:space="preserve" font-family="Chalkduster" font-size="20.0" fill="#FEFFFE" transform="matrix(1.00, 0.00, -0.00, -1.00, 187.4, 13.0)">t</text><text xml:space="preserve" font-family="Chalkduster" font-size="20.0" fill="#FEFFFE" transform="matrix(1.00, 0.00, -0.00, -1.00, 196.9, 13.0)">h</text><text xml:space="preserve" font-family="Chalkduster" font-size="20.0" fill="#FEFFFE" transform="matrix(1.00, 0.00, -0.00, -1.00, 209.3, 13.0)">o</text><text xml:space="preserve" font-family="Chalkduster" font-size="20.0" fill="#FEFFFE" transform="matrix(1.00, 0.00, -0.00, -1.00, 224.1, 13.0)">n</text><text xml:space="preserve" font-family="Chalkduster" font-size="20.0" fill="#FEFFFE" transform="matrix(1.00, 0.00, -0.00, -1.00, 238.8, 13.0)"> </text><text xml:space="preserve" font-family="Chalkduster" font-size="20.0" fill="#FEFFFE" transform="matrix(1.00, 0.00, -0.00, -1.00, 248.8, 13.0)">i</text><text xml:space="preserve" font-family="Chalkduster" font-size="20.0" fill="#FEFFFE" transform="matrix(1.00, 0.00, -0.00, -1.00, 256.7, 13.0)">s</text><text xml:space="preserve" font-family="Chalkduster" font-size="20.0" fill="#FEFFFE" transform="matrix(1.00, 0.00, -0.00, -1.00, 266.8, 13.0)"> </text><text xml:space="preserve" font-family="Chalkduster" font-size="20.0" fill="#FEFFFE" transform="matrix(1.00, 0.00, -0.00, -1.00, 276.7, 13.0)">f</text><text xml:space="preserve" font-family="Chalkduster" font-size="20.0" fill="#FEFFFE" transform="matrix(1.00, 0.00, -0.00, -1.00, 286.7, 13.0)">o</text><text xml:space="preserve" font-family="Chalkduster" font-size="20.0" fill="#FEFFFE" transform="matrix(1.00, 0.00, -0.00, -1.00, 301.3, 13.0)">r</text><text xml:space="preserve" font-family="Chalkduster" font-size="20.0" fill="#FEFFFE" transform="matrix(1.00, 0.00, -0.00, -1.00, 311.8, 13.0)"> </text><text xml:space="preserve" font-family="Chalkduster" font-size="20.0" fill="#FEFFFE" transform="matrix(1.00, 0.00, -0.00, -1.00, 321.8, 13.0)">y</text><text xml:space="preserve" font-family="Chalkduster" font-size="20.0" fill="#FEFFFE" transform="matrix(1.00, 0.00, -0.00, -1.00, 333.4, 13.0)">o</text><text xml:space="preserve" font-family="Chalkduster" font-size="20.0" fill="#FEFFFE" transform="matrix(1.00, 0.00, -0.00, -1.00, 348.4, 13.0)">u</text></g></svg>