<?xml version="1.0" encoding="UTF-8" standalone="no"?><svg xmlns="http://www.w3.org/2000/svg" xmlns:xlink="http://www.w3.org/1999/xlink" clip-rule="evenodd" stroke-miterlimit="4.00" viewBox="0 0 1024 768"><desc>SVG generated by Keynote</desc><defs></defs><g transform="matrix(1.00, 0.00, -0.00, -1.00, 0.0, 768.0)"><g><clipPath id="clip-288"><path d="M 0.0 768.0 L 1024.0 768.0 L 1024.0 0.0 L 0.0 0.0 Z M 0.0 768.0 "></path></clipPath><g clip-path="url(#clip-288)"><image xlink:href="../../86BB661C-AAFE-46F2-89B5-B98D6D644DD8/assets/DE78B55DDE70D88C6FF874E8D33A46A3.jpeg" width="1024.00" height="768.00" transform="matrix(1.00, 0.00, -0.00, -1.00, 0.0, 768.0)"></image></g></g><image xlink:href="../../86BB661C-AAFE-46F2-89B5-B98D6D644DD8/assets/610DE41026624E3AEF638D24E71EF355.png" width="74.00" height="62.00" transform="matrix(1.00, 0.00, -0.00, -1.00, 949.0, 64.0)"></image><image xlink:href="../../86BB661C-AAFE-46F2-89B5-B98D6D644DD8/assets/C79B4846A618BF06956E5E1178655E37.png" width="40.00" height="40.00" transform="matrix(1.00, 0.00, -0.00, -1.01, 966.2, 53.0)" opacity="0.50"></image><g><clipPath id="clip-289"><path d="M 996.7 43.5 C 1002.5 37.6 1002.5 28.0 996.7 22.0 C 990.9 16.1 981.4 16.1 975.6 22.0 C 969.7 28.0 969.7 37.6 975.6 43.5 C 981.4 49.5 990.9 49.5 996.7 43.5 Z M 996.7 43.5 "></path></clipPath><g clip-path="url(#clip-289)"><image xlink:href="../../86BB661C-AAFE-46F2-89B5-B98D6D644DD8/assets/DE78B55DDE70D88C6FF874E8D33A46A3.jpeg" width="1024.00" height="768.00" transform="matrix(0.04, 0.00, -0.00, -0.04, 965.9, 48.0)"></image></g></g><text xml:space="preserve" font-family="HoboStd" font-size="18.0" fill="#E5CC77" transform="matrix(1.00, 0.00, -0.00, -1.00, 976.0, 26.0)">4</text><text xml:space="preserve" font-family="HoboStd" font-size="18.0" fill="#E5CC77" transform="matrix(1.00, 0.00, -0.00, -1.00, 986.4, 26.0)">6</text><text xml:space="preserve" font-family="Chalkduster" font-size="30.0" fill="#FEFFFE" transform="matrix(1.00, 0.00, -0.00, -1.00, 694.0, 616.0)">e</text><text xml:space="preserve" font-family="Chalkduster" font-size="30.0" fill="#FEFFFE" transform="matrix(1.00, 0.00, -0.00, -1.00, 711.7, 616.0)">x</text><text xml:space="preserve" font-family="Chalkduster" font-size="30.0" fill="#FEFFFE" transform="matrix(1.00, 0.00, -0.00, -1.00, 730.7, 616.0)">t</text><text xml:space="preserve" font-family="Chalkduster" font-size="30.0" fill="#FEFFFE" transform="matrix(1.00, 0.00, -0.00, -1.00, 744.4, 616.0)">r</text><text xml:space="preserve" font-family="Chalkduster" font-size="30.0" fill="#FEFFFE" transform="matrix(1.00, 0.00, -0.00, -1.00, 760.2, 616.0)">a</text><text xml:space="preserve" font-family="Chalkduster" font-size="30.0" fill="#FEFFFE" transform="matrix(1.00, 0.00, -0.00, -1.00, 780.9, 616.0)">.</text><text xml:space="preserve" font-family="Chalkduster" font-size="30.0" fill="#FEFFFE" transform="matrix(1.00, 0.00, -0.00, -1.00, 789.5, 616.0)">p</text><text xml:space="preserve" font-family="Chalkduster" font-size="30.0" fill="#FEFFFE" transform="matrix(1.00, 0.00, -0.00, -1.00, 808.0, 616.0)">y</text><text xml:space="preserve" font-family="Chalkduster" font-size="30.0" fill="#FEFFFE" transform="matrix(1.00, 0.00, -0.00, -1.00, 216.0, 616.0)">c</text><text xml:space="preserve" font-family="Chalkduster" font-size="30.0" fill="#FEFFFE" transform="matrix(1.00, 0.00, -0.00, -1.00, 233.9, 616.0)">o</text><text xml:space="preserve" font-family="Chalkduster" font-size="30.0" fill="#FEFFFE" transform="matrix(1.00, 0.00, -0.00, -1.00, 257.0, 616.0)">d</text><text xml:space="preserve" font-family="Chalkduster" font-size="30.0" fill="#FEFFFE" transform="matrix(1.00, 0.00, -0.00, -1.00, 280.4, 616.0)">e</text><text xml:space="preserve" font-family="Chalkduster" font-size="30.0" fill="#FEFFFE" transform="matrix(1.00, 0.00, -0.00, -1.00, 297.9, 616.0)">.</text><text xml:space="preserve" font-family="Chalkduster" font-size="30.0" fill="#FEFFFE" transform="matrix(1.00, 0.00, -0.00, -1.00, 306.5, 616.0)">p</text><text xml:space="preserve" font-family="Chalkduster" font-size="30.0" fill="#FEFFFE" transform="matrix(1.00, 0.00, -0.00, -1.00, 325.0, 616.0)">y</text><g opacity="0.10"><g><clipPath id="clip-290"><path d="M 40.0 150.0 L 519.0 150.0 L 519.0 618.0 L 40.0 618.0 Z M 40.0 150.0 "></path></clipPath><g clip-path="url(#clip-290)"><image xlink:href="../../48E22A73-02F8-4AC3-835C-66A34058290F/assets/BDE9FBF184FDFBDBFECC48471F25B6C7.png" width="433.00" height="414.00" transform="matrix(1.00, 0.00, -0.00, -1.00, 63.0, 590.0)"></image></g></g><g><clipPath id="clip-291"><path d="M 40.0 150.0 L 519.0 150.0 L 519.0 618.0 L 40.0 618.0 Z M 40.0 150.0 "></path></clipPath><g clip-path="url(#clip-291)"><image xlink:href="../../48E22A73-02F8-4AC3-835C-66A34058290F/assets/26CB688EE9B56EA52B237E7FCF92B335.png" width="477.00" height="464.00" transform="matrix(1.00, 0.00, -0.00, 1.00, 41.0, 152.0)"></image></g></g></g><g opacity="0.10"><g><clipPath id="clip-292"><path d="M 519.0 150.0 L 1000.0 150.0 L 1000.0 618.0 L 519.0 618.0 Z M 519.0 150.0 "></path></clipPath><g clip-path="url(#clip-292)"><image xlink:href="../../48E22A73-02F8-4AC3-835C-66A34058290F/assets/1F8FFF801CEBD1E0D30A2A120D66FD19.png" width="433.00" height="414.00" transform="matrix(1.00, 0.00, -0.00, -1.00, 544.0, 590.0)"></image></g></g><g><clipPath id="clip-293"><path d="M 519.0 150.0 L 1000.0 150.0 L 1000.0 618.0 L 519.0 618.0 Z M 519.0 150.0 "></path></clipPath><g clip-path="url(#clip-293)"><image xlink:href="../../48E22A73-02F8-4AC3-835C-66A34058290F/assets/1F83160893DAC3F77FF2F4E13C6BE7A9.png" width="476.00" height="464.00" transform="matrix(1.00, 0.00, -0.00, 1.00, 522.0, 152.0)"></image></g></g></g><image xlink:href="../../1352F473-A1CC-4A0E-9DD6-41D642DA962E/assets/02A24308A8F26541D0DF30EC3C5F8A51.png" width="822.00" height="540.00" transform="matrix(1.02, 0.00, -0.00, -1.02, 93.0, 659.0)"></image><image xlink:href="../../1352F473-A1CC-4A0E-9DD6-41D642DA962E/assets/B2D67837C2585E35C48302751A034727.png" width="882.00" height="600.00" transform="matrix(1.00, 0.00, -0.00, 1.00, 71.0, 85.0)"></image></g></svg>