<?xml version="1.0" encoding="UTF-8" standalone="no"?><svg xmlns="http://www.w3.org/2000/svg" xmlns:xlink="http://www.w3.org/1999/xlink" clip-rule="evenodd" stroke-miterlimit="4.00" viewBox="0 0 262 106"><desc>SVG generated by Keynote</desc><defs></defs><g transform="matrix(1.00, 0.00, -0.00, -1.00, 0.0, 106.0)"><path d="M 219.7 86.3 C 268.7 67.9 268.7 38.1 219.7 19.7 C 170.7 1.3 91.3 1.3 42.3 19.7 C -6.7 38.1 -6.7 67.9 42.3 86.3 C 91.3 104.7 170.7 104.7 219.7 86.3 Z M 219.7 86.3 " fill="#A8E685"></path><path d="M 65.4 8.8 C 65.0 9.0 64.6 9.1 63.9 9.2 C 64.2 9.2 64.5 9.3 64.5 9.4 C 65.0 9.2 65.8 9.0 67.0 8.7 C 66.9 8.7 66.3 8.8 65.9 8.9 C 65.4 9.0 65.5 8.9 65.4 8.8 C 65.4 8.8 65.4 8.8 65.4 8.8 Z M 55.4 94.1 C 54.5 93.8 55.5 94.3 55.8 94.4 C 55.9 94.4 55.9 94.4 56.3 94.5 C 56.4 94.7 55.5 94.5 54.8 94.4 C 52.2 93.6 54.3 93.7 55.4 94.1 C 55.4 94.1 55.4 94.1 55.4 94.1 Z M 199.4 95.8 C 201.6 95.3 199.2 95.6 198.8 95.6 C 199.8 95.3 198.9 95.1 200.2 94.8 C 200.5 94.8 201.0 94.8 201.2 94.8 C 200.7 95.0 199.8 95.2 199.8 95.3 C 200.5 95.1 201.6 94.8 201.7 94.9 C 200.1 95.3 201.5 95.2 201.8 95.3 C 200.4 95.6 199.9 95.9 199.4 95.8 C 199.4 95.8 199.4 95.8 199.4 95.8 Z M 236.9 24.6 C 237.6 25.0 238.2 25.4 237.9 25.4 C 237.2 25.0 236.7 24.6 236.3 24.4 C 236.1 24.4 236.3 24.6 235.6 24.3 C 234.9 23.6 235.4 23.6 235.9 23.7 C 235.9 23.9 238.5 25.3 236.9 24.6 C 236.9 24.6 236.9 24.6 236.9 24.6 Z M 177.5 6.9 C 175.5 6.5 177.3 7.2 175.3 6.8 C 175.4 6.6 175.1 6.3 176.5 6.5 C 176.6 6.6 177.3 6.8 177.5 6.9 C 177.5 6.9 177.5 6.9 177.5 6.9 Z M 138.6 101.4 C 138.6 101.5 140.1 101.4 139.8 101.7 C 139.0 101.7 138.3 101.7 137.5 101.7 C 137.4 101.5 137.6 101.4 138.6 101.4 C 138.6 101.4 138.6 101.4 138.6 101.4 Z M 213.0 89.6 C 215.1 89.2 217.1 88.0 216.6 88.5 C 217.4 88.5 215.4 89.6 215.4 89.4 C 215.1 89.2 211.4 90.1 213.0 89.6 C 213.0 89.6 213.0 89.6 213.0 89.6 Z M 67.6 92.8 C 69.9 93.5 69.6 92.8 71.1 93.4 C 70.5 93.3 70.3 93.3 70.1 93.4 C 70.5 93.5 71.1 93.6 71.0 93.6 C 69.9 93.4 68.5 93.2 67.6 92.8 C 67.6 92.8 67.6 92.8 67.6 92.8 Z M 101.5 3.8 C 101.9 3.8 102.2 3.7 102.1 3.6 C 103.8 3.5 103.8 3.3 104.8 3.4 C 104.9 3.7 103.5 3.7 102.1 3.8 C 102.1 3.8 101.6 3.9 101.5 3.8 C 101.5 3.8 101.5 3.8 101.5 3.8 Z M 150.8 4.0 C 150.8 3.8 149.7 3.7 151.4 3.7 C 153.2 4.1 151.6 4.2 149.6 4.3 C 149.6 4.4 149.6 4.5 149.6 4.6 C 150.4 4.6 150.9 4.7 151.3 4.8 C 151.6 4.4 152.9 5.2 155.7 5.1 C 154.4 5.2 155.8 5.6 154.0 5.3 C 154.5 5.6 153.3 5.5 153.5 5.7 C 154.2 5.6 156.1 5.8 155.7 5.5 C 156.7 5.5 157.4 5.6 157.9 5.7 C 158.6 6.0 156.1 5.6 156.8 5.9 C 157.3 6.0 157.4 6.1 157.9 6.1 C 158.0 6.0 157.8 5.9 158.4 5.9 C 160.2 6.2 158.1 6.2 160.6 6.4 C 160.8 6.3 160.0 6.2 160.1 6.0 C 161.2 6.0 161.1 6.2 162.3 6.2 C 162.5 6.3 161.4 6.3 162.2 6.4 C 163.0 6.1 164.5 6.9 166.1 6.7 C 165.1 6.1 166.3 6.8 167.7 6.5 C 168.1 6.7 167.0 6.9 168.2 7.0 C 167.9 6.4 172.7 7.1 168.9 6.2 C 170.9 6.4 171.7 6.0 170.0 5.7 C 173.6 6.3 172.5 5.8 173.8 6.0 C 175.2 6.2 173.1 6.0 173.8 6.3 C 172.3 6.1 172.7 6.3 171.7 6.0 C 171.6 6.1 171.4 6.2 171.0 6.2 C 172.5 6.2 174.2 6.8 173.1 6.9 C 172.4 6.8 173.1 6.6 172.1 6.5 C 172.4 6.9 171.1 6.3 171.0 6.5 C 171.6 6.9 169.5 6.9 171.5 7.2 C 171.5 7.1 171.5 6.9 171.6 6.8 C 172.1 6.9 172.6 6.9 173.1 7.0 C 173.6 7.3 173.2 7.4 173.6 7.6 C 174.5 7.7 175.0 7.7 175.3 7.6 C 174.2 7.4 172.9 7.0 174.7 7.2 C 174.0 7.6 177.3 7.7 175.8 7.8 C 177.7 8.2 178.7 8.0 178.9 8.3 C 179.9 8.5 179.3 8.1 180.5 8.3 C 182.4 8.9 182.1 8.5 184.7 9.1 C 185.0 8.8 184.9 9.2 185.7 9.4 C 185.7 9.3 185.8 9.1 185.8 9.0 C 186.7 9.4 188.7 9.9 190.9 10.1 C 191.4 10.2 191.0 10.4 192.3 10.6 C 193.9 10.6 195.6 11.3 197.4 11.4 C 197.5 11.6 198.7 11.9 199.3 11.9 C 199.6 12.1 198.7 12.2 199.8 12.4 C 200.5 12.4 199.3 12.0 200.8 12.3 C 200.6 12.5 202.3 12.5 202.2 12.7 C 201.8 12.7 201.2 12.6 200.7 12.6 C 201.4 12.8 201.2 12.9 201.7 13.0 C 201.7 12.7 202.8 13.2 203.1 13.4 C 203.1 13.2 203.3 13.2 203.7 13.2 C 204.5 13.4 205.2 13.6 205.6 13.6 C 206.6 14.0 204.9 13.7 206.0 14.0 C 206.7 13.5 207.5 14.5 209.8 14.8 C 210.3 15.1 211.1 15.5 212.5 15.9 C 212.7 15.8 211.2 15.4 211.2 15.3 C 213.2 16.0 210.9 15.0 212.2 15.4 C 215.0 16.4 216.8 17.1 219.6 18.3 C 219.6 18.1 223.0 19.3 222.9 19.3 C 221.9 19.0 224.8 20.4 226.3 21.1 C 226.8 20.9 229.2 21.5 229.4 21.4 C 229.8 21.8 229.7 21.8 229.8 22.2 C 232.1 23.4 233.4 23.7 234.6 24.8 C 234.6 24.6 235.6 25.1 236.5 25.5 C 236.1 25.5 235.6 25.4 235.1 25.2 C 236.2 25.8 236.3 26.0 237.3 26.6 C 238.6 26.5 239.6 28.2 240.7 28.1 C 242.1 29.0 241.7 29.1 243.0 30.0 C 243.0 29.8 243.2 29.8 243.6 30.0 C 242.7 29.5 242.0 29.3 241.7 28.7 C 243.7 29.9 238.4 25.7 241.7 27.6 C 241.8 27.7 241.4 27.7 242.1 28.2 C 243.9 29.3 243.0 28.4 242.2 27.9 C 243.5 28.6 244.7 29.6 243.9 28.7 C 246.6 30.5 244.8 29.5 245.6 30.2 C 250.2 33.5 254.8 38.2 257.1 43.7 C 257.5 43.8 258.3 46.8 258.4 47.8 C 259.0 49.3 259.3 51.0 259.0 51.5 C 259.3 51.8 258.9 53.4 259.1 53.6 C 259.1 52.9 259.2 52.4 259.3 53.1 C 259.1 55.5 258.3 58.8 258.0 60.2 C 257.4 60.9 256.9 62.3 256.6 63.4 C 256.3 63.5 256.7 62.7 256.3 63.3 C 256.4 63.5 255.3 65.7 254.9 66.0 C 255.3 65.5 255.4 64.6 254.9 65.5 C 255.0 65.6 254.2 66.6 254.6 66.5 C 253.6 67.7 253.1 68.5 252.2 69.4 C 252.9 68.6 253.2 68.0 253.2 67.7 C 252.7 68.5 252.3 69.2 251.6 69.6 C 252.0 69.7 250.8 70.7 249.8 72.0 C 249.3 72.2 249.0 72.3 248.0 73.3 C 247.6 73.9 249.8 72.0 248.6 73.1 C 248.6 73.0 247.4 73.9 247.8 73.8 C 246.3 75.0 245.6 75.7 244.2 76.5 C 245.9 75.4 244.5 76.0 244.0 76.2 C 243.7 76.5 243.1 76.9 243.1 77.0 C 243.2 77.1 244.0 76.4 244.2 76.4 C 243.0 77.2 242.9 77.8 242.3 77.9 C 242.8 77.5 242.8 77.3 242.2 77.7 C 242.3 78.1 238.4 80.3 239.6 79.3 C 239.7 79.4 241.1 78.5 241.2 78.3 C 240.7 78.5 238.6 79.9 239.0 79.4 C 240.2 78.6 240.2 78.8 241.6 77.9 C 241.6 77.6 242.4 77.0 242.9 76.6 C 240.7 78.1 240.3 78.6 239.9 78.6 C 238.9 79.2 239.7 79.1 237.9 80.1 C 235.3 81.5 237.3 80.1 236.6 80.4 C 234.4 81.8 235.2 81.7 236.3 81.3 C 234.5 82.4 234.0 82.8 231.6 83.9 C 231.6 83.7 231.9 83.5 232.7 83.0 C 232.8 83.0 234.8 82.2 234.5 82.1 C 234.2 81.9 232.6 82.6 230.0 83.8 C 230.7 83.8 230.8 83.6 228.1 84.8 C 228.7 85.0 226.7 85.4 226.8 85.6 C 226.9 85.6 227.9 85.2 228.8 84.8 C 228.8 84.9 228.5 85.2 227.7 85.6 C 227.0 85.8 226.6 86.1 224.9 86.7 C 224.7 86.6 225.9 86.1 226.1 85.8 C 225.1 86.2 225.0 86.4 224.0 86.8 C 223.1 87.0 223.1 86.6 223.0 86.3 C 224.1 85.8 225.8 85.1 224.4 85.5 C 228.4 83.8 224.3 85.9 225.9 85.3 C 227.4 84.3 226.7 85.1 229.2 83.9 C 229.9 83.5 230.1 83.3 230.4 83.1 C 230.2 83.2 228.7 83.6 230.3 82.8 C 230.7 82.8 231.6 82.5 232.9 81.9 C 232.8 81.8 230.3 83.0 232.8 81.7 C 234.0 81.1 233.1 82.0 234.7 81.0 C 234.7 81.0 235.1 80.7 235.2 80.6 C 232.9 81.9 235.6 80.2 233.9 80.9 C 235.9 79.7 234.4 81.0 235.7 80.2 C 235.7 80.1 237.9 79.1 237.8 78.8 C 237.1 79.4 235.4 80.3 235.5 79.9 C 237.1 79.2 243.1 75.0 241.0 76.9 C 241.7 76.2 245.5 73.0 245.3 73.3 C 244.2 74.2 244.3 74.3 244.2 74.6 C 246.2 72.7 247.4 72.0 249.0 69.8 C 247.0 71.9 248.3 70.0 246.8 71.1 C 246.2 71.6 245.4 72.3 245.3 72.5 C 245.7 72.5 246.6 71.6 246.9 71.1 C 247.0 71.3 247.2 71.5 247.3 71.6 C 244.7 73.7 243.2 75.0 241.7 76.0 C 242.9 75.1 239.1 77.3 240.5 76.3 C 241.2 76.0 242.7 75.0 243.9 74.1 C 243.8 74.1 243.8 74.0 243.7 74.0 C 244.2 73.6 244.9 73.0 244.9 72.9 C 243.5 74.2 242.4 74.6 241.4 75.6 C 241.4 75.5 241.3 75.5 241.3 75.4 C 241.0 75.6 240.7 75.8 240.8 75.7 C 241.4 75.3 242.1 74.8 242.2 74.6 C 240.9 75.4 240.6 75.4 239.1 76.3 C 239.3 75.9 237.2 76.8 239.2 75.4 C 239.7 75.4 240.9 74.7 240.9 74.8 C 241.5 74.5 242.6 73.6 243.1 73.1 C 242.5 73.4 241.3 74.2 241.1 74.0 C 242.0 73.3 242.6 72.7 243.3 72.5 C 241.6 74.0 244.4 71.9 245.2 71.6 C 244.9 71.6 244.5 71.9 244.2 72.0 C 245.5 70.9 246.2 70.5 246.0 70.2 C 247.4 68.8 247.3 69.3 248.2 68.3 C 247.3 68.7 248.6 67.6 247.8 68.0 C 249.3 66.4 248.5 67.8 249.0 67.2 C 249.4 66.7 249.4 66.6 249.7 66.1 C 250.5 65.5 251.5 64.1 251.9 64.0 C 252.3 63.4 252.4 63.4 252.8 62.7 C 252.8 62.5 252.9 62.3 253.0 61.9 C 253.1 61.9 253.4 61.5 253.4 61.3 C 252.2 62.9 252.5 62.4 251.0 64.0 C 251.0 64.2 250.9 64.5 251.2 64.1 C 250.4 65.4 250.0 65.7 249.1 66.7 C 248.8 66.7 248.4 66.7 247.6 67.8 C 247.7 67.4 247.4 67.6 247.7 67.2 C 248.3 66.8 249.0 66.2 249.6 65.5 C 249.6 65.4 249.4 65.4 249.7 65.0 C 250.1 64.8 250.5 64.2 250.7 63.7 C 250.8 63.8 250.8 64.0 250.7 64.2 C 251.9 62.6 251.2 63.0 252.1 61.9 C 251.8 62.0 251.4 62.8 251.6 62.0 C 252.2 60.9 252.4 60.7 252.8 60.2 C 252.8 60.1 252.6 60.1 252.8 59.8 C 253.3 59.1 252.4 61.8 253.4 60.5 C 253.2 60.2 253.8 58.9 254.0 58.8 C 254.1 59.3 253.5 60.0 253.6 60.1 C 254.7 57.6 254.2 60.2 255.0 57.6 C 254.9 57.5 254.8 57.5 254.7 57.5 C 254.4 58.6 254.2 58.5 254.0 58.4 C 253.7 59.3 253.2 59.5 253.1 60.3 C 252.8 59.8 253.4 59.6 253.7 58.7 C 253.5 58.6 253.2 59.4 252.9 59.5 C 254.0 57.5 253.7 57.0 254.4 55.0 C 254.0 55.5 254.4 54.0 254.2 54.1 C 254.2 55.8 253.5 55.0 253.4 55.2 C 253.2 56.3 253.8 55.9 253.8 56.6 C 253.4 56.8 253.4 56.6 253.1 56.4 C 253.4 55.5 253.3 55.6 253.3 54.9 C 253.5 54.3 254.0 53.8 254.1 54.7 C 254.1 54.5 254.0 53.2 254.2 53.1 C 254.2 54.3 254.3 53.0 254.4 53.7 C 254.6 52.8 254.2 51.1 254.2 49.9 C 254.1 50.0 253.9 49.6 253.8 49.6 C 254.3 50.8 253.8 51.1 253.8 52.2 C 253.8 51.7 253.6 52.0 253.6 52.2 C 253.7 51.1 253.4 50.6 253.4 49.7 C 253.3 49.7 253.3 49.8 253.2 49.8 C 253.1 48.4 253.0 48.6 252.5 47.7 C 252.5 47.2 253.1 47.6 253.4 47.7 C 253.1 47.2 252.4 45.4 252.6 46.5 C 252.1 45.5 252.5 45.6 251.9 44.5 C 251.7 44.6 252.3 45.6 251.8 45.4 C 251.2 44.4 251.8 44.8 251.1 44.1 C 251.3 43.9 251.5 43.8 250.9 42.9 C 251.2 43.7 250.8 42.9 250.5 42.7 C 250.7 43.1 250.9 43.5 251.0 43.8 C 250.0 42.2 249.8 41.8 248.7 40.6 C 249.3 40.9 248.8 40.1 249.6 40.9 C 248.8 40.2 248.1 39.0 247.6 38.7 C 248.0 39.2 248.7 40.0 248.9 40.4 C 246.7 37.9 245.0 36.8 242.4 34.4 C 242.9 34.7 243.5 35.3 243.7 35.3 C 243.4 35.0 242.9 34.6 242.9 34.5 C 243.9 35.3 244.8 36.1 245.3 36.4 C 246.0 37.2 244.7 36.2 245.5 36.9 C 245.7 36.9 247.0 38.4 246.7 37.7 C 245.3 36.6 244.1 35.2 243.7 34.4 C 242.0 33.6 243.4 34.7 241.5 33.8 C 241.6 33.8 241.3 33.4 240.8 33.0 C 241.1 33.7 239.1 32.1 238.9 31.9 C 239.8 32.3 242.8 34.3 241.5 33.0 C 241.8 34.0 238.0 30.4 238.6 31.3 C 236.5 30.1 237.4 30.2 236.1 29.8 C 236.1 29.7 236.3 29.6 235.7 29.3 C 235.1 28.9 234.8 28.9 234.5 28.8 C 237.6 30.7 236.5 30.5 238.4 31.7 C 238.0 31.5 237.7 31.3 237.8 31.4 C 237.8 31.5 237.7 31.5 237.3 31.2 C 237.3 30.8 235.7 30.3 235.4 29.8 C 236.0 30.2 236.6 30.5 236.4 30.3 C 233.9 28.8 234.6 28.8 230.6 26.6 C 231.8 27.4 230.2 26.6 228.7 26.0 C 226.7 25.0 227.7 25.0 225.0 23.9 C 225.0 24.2 224.4 23.9 223.2 23.4 C 222.1 22.8 219.9 21.9 218.8 21.7 C 219.1 21.5 216.5 20.4 215.9 20.5 C 215.8 20.3 214.9 20.0 214.2 19.8 C 214.0 19.6 214.9 19.8 214.3 19.6 C 213.6 19.4 214.1 19.8 213.3 19.6 C 212.4 19.2 212.6 19.0 211.2 18.6 C 211.1 18.7 211.9 18.9 211.1 18.9 C 209.9 18.4 208.7 18.0 209.7 18.6 C 207.8 18.0 208.8 17.9 207.0 17.4 C 207.6 17.7 207.5 17.7 206.5 17.5 C 205.9 17.1 205.9 17.0 205.7 16.8 C 205.1 16.9 205.3 17.0 203.8 16.5 C 203.8 16.6 203.7 16.7 203.7 16.8 C 203.0 16.6 202.0 16.4 201.8 16.2 C 203.1 16.6 202.8 16.3 203.3 16.3 C 202.1 16.0 199.6 15.1 201.4 15.9 C 199.6 15.5 200.6 15.4 199.1 15.1 C 199.9 15.6 199.1 15.1 197.6 14.8 C 197.7 15.2 196.6 14.6 195.7 14.4 C 195.8 14.7 195.5 14.7 194.6 14.5 C 194.7 14.4 194.2 14.2 193.2 14.1 C 193.2 14.2 195.2 14.8 193.1 14.3 C 192.2 14.0 192.3 13.7 190.7 13.4 C 190.4 13.1 192.1 13.5 191.8 13.2 C 190.5 13.2 190.1 12.9 188.3 12.5 C 188.9 13.1 184.4 12.4 186.6 13.0 C 186.0 12.8 185.0 13.0 184.6 12.7 C 185.3 12.8 184.1 12.3 184.1 12.3 C 183.2 12.2 181.1 11.7 181.1 11.8 C 183.0 12.1 183.0 12.3 183.6 12.6 C 180.7 12.2 178.2 11.7 178.4 11.5 C 178.4 11.6 178.0 11.5 177.9 11.6 C 178.9 11.7 179.5 12.2 178.3 12.0 C 178.6 11.8 177.8 11.6 176.9 11.4 C 176.8 11.7 173.0 10.8 173.7 11.2 C 175.2 11.2 176.4 11.8 175.2 11.7 C 174.3 11.4 172.2 11.0 172.7 10.8 C 172.1 10.8 171.6 10.8 171.0 10.9 C 170.5 11.0 171.7 11.2 171.5 11.3 C 170.7 11.2 169.5 11.1 169.4 11.0 C 171.5 11.2 168.3 10.7 170.5 10.8 C 169.2 10.6 168.9 10.5 167.8 10.3 C 167.8 10.4 167.4 10.4 167.3 10.4 C 168.3 10.4 169.2 10.6 168.9 10.8 C 167.0 10.7 167.3 10.4 165.7 10.2 C 165.2 10.4 163.0 10.5 161.9 10.2 C 164.0 10.4 161.7 10.0 163.0 10.0 C 164.9 10.4 165.5 10.2 166.2 10.1 C 165.4 9.8 163.8 9.6 163.6 9.8 C 164.6 10.0 164.6 9.8 165.2 9.9 C 165.1 10.0 164.8 10.1 164.1 10.1 C 163.2 9.8 161.2 9.8 162.5 9.6 C 161.1 9.6 159.6 9.2 158.2 9.3 C 159.8 9.4 160.9 9.6 161.4 9.9 C 160.1 9.9 158.8 9.5 158.7 9.6 C 158.8 9.9 160.9 10.0 161.3 10.2 C 159.6 10.3 157.1 9.4 159.2 10.1 C 158.2 9.9 156.9 9.8 156.5 9.7 C 157.7 9.8 156.4 9.3 155.9 9.2 C 154.9 9.2 154.1 9.2 153.8 9.2 C 155.3 9.3 156.4 9.7 155.4 9.6 C 155.1 9.5 154.8 9.6 154.3 9.6 C 154.2 9.5 152.5 9.4 152.1 9.3 C 152.2 9.4 153.0 9.5 153.2 9.6 C 152.2 9.6 150.7 9.9 149.9 9.5 C 150.6 9.5 151.5 9.6 151.5 9.5 C 148.7 9.0 147.8 8.6 144.5 8.3 C 144.9 8.3 145.1 8.3 145.0 8.2 C 142.9 8.1 141.5 7.9 141.7 7.8 C 140.4 7.8 139.7 7.9 139.0 8.0 C 140.4 8.2 140.9 8.0 141.7 8.2 C 141.2 8.2 142.8 8.7 143.4 8.9 C 145.7 8.7 145.9 9.1 148.3 9.1 C 147.6 9.3 150.1 9.2 149.4 9.5 C 147.1 9.0 145.0 9.1 141.7 8.9 C 142.1 8.7 142.5 8.5 141.2 8.4 C 139.1 8.2 140.1 8.6 138.4 8.5 C 137.7 8.2 138.7 8.2 137.8 8.1 C 137.2 8.2 135.6 8.2 135.1 7.9 C 137.4 8.0 134.7 7.7 136.2 7.6 C 135.4 7.6 135.0 7.6 134.5 7.5 C 136.7 7.8 132.3 7.9 133.9 8.1 C 130.9 8.2 133.7 7.5 131.2 7.5 C 132.4 7.7 130.8 7.8 129.0 7.7 C 128.5 7.5 126.6 7.5 125.1 7.4 C 125.9 7.6 126.5 7.6 125.1 7.7 C 125.8 7.8 127.1 7.8 127.8 7.7 C 127.8 7.8 128.1 7.9 128.4 7.9 C 126.6 8.0 127.4 8.1 126.8 8.2 C 126.2 8.1 124.9 8.1 124.5 8.0 C 124.5 8.0 124.1 8.1 124.0 8.1 C 126.3 8.1 123.6 8.5 125.1 8.5 C 126.1 8.5 125.5 8.2 126.8 8.3 C 128.0 8.5 125.7 8.6 125.1 8.8 C 126.2 9.0 127.5 8.7 127.8 9.0 C 126.4 9.3 124.2 9.1 122.4 9.1 C 122.5 9.4 119.3 9.1 119.0 9.5 C 118.8 9.4 118.4 9.3 118.0 9.3 C 117.4 9.6 116.8 9.2 116.3 9.3 C 116.2 9.4 116.4 9.5 116.8 9.6 C 114.6 9.5 114.0 9.6 111.4 9.9 C 110.9 9.7 110.5 9.6 110.2 9.4 C 110.9 9.4 111.5 9.3 111.9 9.2 C 108.2 9.4 110.6 9.9 108.1 9.7 C 108.2 9.8 109.9 10.0 108.6 10.1 C 106.3 10.0 103.1 10.5 103.2 9.8 C 101.1 9.8 99.8 10.3 98.8 10.1 C 98.2 10.2 98.0 10.3 97.8 10.4 C 98.4 10.5 99.2 10.5 99.9 10.6 C 101.1 10.4 101.7 10.5 100.5 10.3 C 102.3 10.1 102.8 10.2 103.7 10.2 C 101.3 10.6 99.0 10.6 98.9 11.0 C 98.1 10.9 97.4 10.8 96.7 10.8 C 96.5 11.0 93.8 11.3 93.5 11.1 C 95.4 11.0 97.3 10.5 95.6 10.5 C 91.0 11.2 88.5 11.1 84.5 11.9 C 84.4 11.8 84.7 11.6 84.0 11.7 C 84.0 11.8 83.9 11.9 83.5 12.1 C 82.3 12.2 81.5 12.3 79.9 12.6 C 79.9 12.3 79.7 12.2 78.8 12.3 C 78.3 12.6 76.7 13.4 75.8 13.5 C 76.8 13.3 75.4 13.2 74.7 13.3 C 75.4 13.6 70.2 14.0 71.7 14.0 C 69.7 14.4 68.8 14.5 68.7 14.4 C 68.0 14.6 67.5 14.8 66.8 15.0 C 66.3 14.7 62.9 15.8 62.4 15.8 C 63.6 15.6 63.8 15.2 62.8 15.4 C 62.2 15.8 59.2 16.8 58.7 16.8 C 58.8 16.7 59.0 16.4 60.4 16.0 C 57.9 16.6 58.0 16.9 57.3 17.4 C 57.3 17.0 56.2 17.6 55.9 17.8 C 55.1 17.8 55.9 17.7 55.8 17.5 C 54.9 17.7 54.6 17.6 53.5 18.0 C 53.9 18.1 52.6 18.4 52.1 18.5 C 52.0 18.7 51.4 19.0 50.4 19.3 C 51.7 18.5 44.8 20.8 46.5 20.5 C 45.2 21.2 45.0 20.7 43.4 21.4 C 43.1 21.6 42.1 21.9 43.1 21.7 C 42.4 22.0 41.7 22.2 41.4 22.3 C 41.1 22.3 40.7 22.4 39.4 23.0 C 40.7 22.8 36.9 24.0 37.6 24.1 C 36.3 24.1 34.5 25.6 32.4 26.2 C 32.5 26.3 32.0 26.5 31.9 26.6 C 31.6 26.9 34.3 25.7 32.6 26.5 C 30.5 27.4 31.6 26.8 31.2 26.8 C 25.9 29.6 20.5 33.0 16.9 36.1 C 17.4 35.8 17.4 35.9 16.7 36.6 C 15.4 37.1 12.2 41.0 11.9 41.7 C 11.4 41.9 10.4 43.9 10.1 44.2 C 10.3 43.8 10.5 43.0 10.0 43.8 C 10.0 44.4 9.4 45.0 9.3 45.9 C 8.8 46.1 8.3 48.5 8.2 47.3 C 8.0 47.8 7.9 48.0 7.8 48.3 C 8.1 48.4 7.9 48.8 8.3 48.1 C 7.4 50.1 7.6 50.7 7.4 52.3 C 7.5 52.5 7.7 51.3 7.7 52.3 C 7.6 52.3 7.6 52.3 7.5 52.3 C 7.5 52.6 7.6 52.7 7.5 52.9 C 7.4 52.8 7.4 52.3 7.1 52.2 C 7.2 53.1 6.9 53.6 7.1 53.9 C 7.1 52.8 7.6 53.5 7.4 54.2 C 7.2 53.6 7.8 56.8 8.2 57.7 C 8.1 58.3 7.9 56.6 7.7 56.8 C 8.2 58.7 8.2 58.6 8.5 58.7 C 8.8 59.7 8.8 60.2 9.6 61.3 C 9.9 62.1 9.2 61.0 9.6 61.8 C 9.9 62.2 10.1 62.3 10.6 63.0 C 11.2 65.0 15.5 68.6 17.3 71.2 C 16.5 70.2 17.8 71.2 19.1 72.2 C 19.2 72.3 18.9 72.3 19.4 72.7 C 19.4 72.5 19.9 72.8 20.9 73.5 C 20.9 73.6 20.6 73.6 21.2 74.0 C 21.7 74.0 22.8 75.1 23.6 75.5 C 23.8 75.9 21.8 74.4 21.6 74.5 C 23.8 76.3 24.5 76.3 26.5 77.6 C 25.4 77.0 27.2 78.3 27.5 78.5 C 27.1 78.0 28.9 78.8 27.7 78.0 C 28.5 78.5 29.8 79.1 30.0 79.3 C 29.5 79.1 28.8 78.7 28.8 78.7 C 29.8 79.3 31.1 80.2 31.7 80.3 C 31.0 79.9 30.5 79.6 30.6 79.4 C 30.9 79.5 31.3 79.6 31.9 79.8 C 30.0 79.5 35.2 81.7 35.6 81.7 C 35.9 82.3 36.2 82.4 36.0 82.5 C 38.2 83.5 38.1 83.1 39.5 83.6 C 39.0 83.7 38.4 83.8 40.6 84.8 C 40.3 84.3 43.0 85.4 42.3 84.8 C 43.8 85.3 44.1 85.4 44.7 85.6 C 45.3 85.9 45.8 86.1 46.2 86.3 C 47.1 86.7 47.8 87.0 48.9 87.3 C 49.0 87.3 48.3 87.0 49.0 87.2 C 50.0 87.6 50.9 88.0 51.5 88.3 C 52.2 88.3 51.4 88.0 52.1 88.2 C 53.7 88.9 53.2 89.1 54.6 89.7 C 56.5 90.0 55.8 90.0 57.0 90.0 C 56.5 89.9 55.9 89.6 56.6 89.8 C 57.7 90.3 58.1 90.7 58.4 90.8 C 57.5 90.6 56.9 90.4 56.5 90.2 C 56.2 90.3 55.0 90.0 56.0 90.4 C 54.8 90.0 53.5 89.6 51.8 89.1 C 52.3 89.5 50.3 88.7 50.8 89.1 C 52.7 89.7 53.1 90.0 54.9 90.4 C 54.6 90.1 56.5 90.7 56.8 90.9 C 56.8 90.7 58.1 91.1 57.9 90.8 C 59.3 91.2 59.2 91.4 60.7 91.7 C 60.7 91.8 60.5 91.9 61.1 92.0 C 61.7 91.9 62.0 92.4 62.5 92.5 C 62.2 92.1 64.3 92.8 64.5 92.6 C 64.0 92.5 63.2 92.3 63.1 92.2 C 65.4 92.8 63.6 92.1 63.2 91.8 C 63.2 91.9 62.3 92.0 62.2 91.8 C 64.2 92.1 59.5 90.7 61.3 91.2 C 62.8 91.7 62.7 91.5 64.2 91.9 C 65.9 92.7 63.7 92.5 65.4 93.2 C 66.6 93.3 67.4 93.5 67.5 93.3 C 67.7 93.4 68.0 93.6 68.4 93.7 C 68.9 93.7 67.0 93.2 68.5 93.4 C 69.3 93.7 68.3 93.8 69.9 94.1 C 70.7 94.0 68.0 93.4 69.5 93.7 C 71.0 94.4 69.2 93.5 71.0 93.8 C 71.1 93.9 71.4 94.0 72.0 94.1 C 72.1 94.2 71.8 94.3 72.5 94.5 C 72.9 94.2 73.1 94.8 74.5 95.0 C 75.3 94.8 73.1 94.6 73.5 94.4 C 75.0 95.0 76.0 94.8 76.6 95.0 C 75.3 94.9 78.5 95.5 78.6 95.7 C 78.3 95.4 78.9 95.6 80.8 95.7 C 80.8 96.1 82.9 96.2 83.3 96.6 C 83.5 96.5 84.1 96.5 84.3 96.4 C 83.7 96.3 83.1 96.2 83.3 96.1 C 83.9 96.2 84.4 96.2 84.9 96.3 C 85.8 96.7 83.4 96.8 86.9 97.3 C 86.6 96.9 88.1 97.1 89.1 97.1 C 89.0 96.8 87.7 96.9 87.6 96.7 C 88.8 96.7 90.0 97.1 90.7 97.3 C 92.8 97.4 95.2 97.9 98.2 98.1 C 98.9 98.3 95.7 98.0 97.7 98.3 C 98.5 98.4 98.1 98.2 99.3 98.3 C 98.1 99.3 107.5 99.2 108.0 99.7 C 108.4 99.5 111.1 99.8 110.8 99.5 C 109.0 99.6 107.8 99.2 107.0 99.0 C 105.3 99.0 108.4 99.3 106.9 99.3 C 106.8 99.1 104.5 99.1 104.8 98.9 C 107.1 99.1 103.6 98.6 105.3 98.5 C 107.5 98.7 111.9 98.7 110.8 98.9 C 110.8 98.8 109.9 98.8 109.8 98.9 C 112.2 99.1 113.7 99.0 114.7 98.9 C 115.9 99.1 120.3 99.0 119.2 99.1 C 119.5 99.3 116.5 98.9 116.9 99.2 C 121.5 99.4 121.6 99.2 124.7 99.5 C 123.7 99.2 127.9 99.1 127.5 99.2 C 127.5 99.4 128.4 99.6 130.3 99.4 C 130.0 99.6 131.0 99.7 132.0 99.8 C 132.4 99.5 131.1 99.6 131.4 99.4 C 132.3 99.4 133.3 99.4 134.2 99.4 C 134.2 99.5 134.1 99.6 134.7 99.6 C 135.8 99.4 139.5 99.1 139.2 99.3 C 137.6 99.6 141.7 99.5 139.2 99.8 C 139.9 99.7 139.9 99.8 140.9 99.8 C 140.9 99.7 140.9 99.6 140.9 99.5 C 142.9 99.4 141.9 99.8 143.6 99.8 C 143.8 99.7 144.5 99.6 144.8 99.5 C 144.1 99.5 144.0 99.6 143.1 99.6 C 144.1 99.2 141.2 99.5 141.4 99.2 C 143.3 99.1 143.3 99.4 144.2 99.4 C 146.6 99.2 145.5 99.3 148.0 99.3 C 148.0 99.2 147.3 99.2 147.5 99.0 C 150.6 99.0 150.3 99.5 152.5 99.2 C 152.0 99.2 150.1 99.5 151.4 99.5 C 152.9 99.3 153.3 99.0 155.2 98.8 C 155.3 98.9 155.2 99.0 155.8 99.0 C 156.6 98.9 156.6 98.6 157.4 98.5 C 157.5 98.6 158.6 98.4 159.0 98.3 C 159.7 98.5 158.8 98.6 159.6 98.6 C 161.2 98.5 162.0 97.8 163.4 97.8 C 163.3 98.1 164.8 97.9 166.1 97.7 C 166.4 97.9 169.1 97.6 171.0 97.4 C 170.5 97.2 172.4 97.1 171.9 96.9 C 171.1 97.0 170.6 97.0 170.4 96.9 C 172.4 96.6 173.1 97.1 174.6 96.4 C 175.4 96.5 176.4 96.5 177.8 96.4 C 177.9 96.2 175.3 96.5 176.7 96.2 C 176.9 96.3 177.3 96.2 177.8 96.1 C 177.6 96.4 178.7 96.3 179.4 96.3 C 180.6 95.9 183.2 95.8 182.0 95.7 C 183.9 95.3 182.7 96.0 184.2 95.7 C 183.4 95.5 185.9 95.1 184.6 95.1 C 186.5 94.7 186.4 95.1 185.7 95.4 C 187.5 95.1 187.8 94.8 188.7 94.8 C 187.9 94.7 190.5 94.1 189.2 94.5 C 188.8 94.8 190.8 94.3 191.3 94.3 C 190.6 94.3 191.5 94.1 190.2 94.2 C 191.5 93.9 193.5 93.4 194.7 93.4 C 196.3 92.9 197.8 92.5 197.2 92.9 C 198.7 92.5 198.1 92.7 199.7 92.3 C 199.6 92.3 199.2 92.3 199.1 92.3 C 201.2 91.8 200.8 92.1 203.5 91.4 C 203.2 91.7 205.0 91.3 205.5 91.3 C 204.4 91.6 203.5 91.8 202.6 91.9 C 202.4 92.1 203.3 91.9 202.7 92.2 C 202.5 92.1 202.1 92.2 201.7 92.2 C 203.5 92.0 199.5 93.2 200.7 92.6 C 200.7 92.7 200.9 92.7 201.2 92.6 C 200.8 92.4 200.9 92.5 201.1 92.2 C 200.3 92.5 199.5 92.4 199.2 92.7 C 199.3 92.8 200.1 92.6 200.2 92.6 C 198.0 93.3 199.5 92.5 197.7 93.0 C 197.4 93.3 198.4 93.2 198.8 93.2 C 197.2 93.6 195.8 93.9 195.3 93.9 C 193.8 94.3 195.5 94.0 194.4 94.4 C 193.9 94.4 193.9 94.2 192.8 94.4 C 191.8 94.7 193.5 94.4 192.4 94.7 C 191.2 94.8 193.2 94.2 191.3 94.6 C 191.8 94.8 189.6 94.8 189.8 95.0 C 190.9 94.8 191.0 95.1 190.4 95.0 C 187.8 95.2 186.3 96.4 183.7 96.2 C 183.7 96.3 183.3 96.4 183.2 96.5 C 185.1 96.3 187.9 95.8 188.4 96.1 C 189.9 95.7 189.7 95.5 189.9 95.4 C 191.7 95.4 191.5 95.4 190.6 96.0 C 187.7 96.7 186.4 96.7 184.4 96.9 C 183.3 97.3 184.5 97.0 184.9 97.1 C 178.8 97.9 183.5 97.8 181.3 98.1 C 181.4 98.0 180.9 98.0 180.3 98.0 C 180.3 98.1 179.4 98.2 179.2 98.4 C 179.6 98.3 179.8 98.3 179.8 98.4 C 178.2 98.8 178.8 98.4 178.7 98.3 C 179.9 98.1 180.6 98.0 180.8 97.8 C 179.2 98.2 178.0 98.1 177.1 98.5 C 175.6 98.4 177.8 97.7 176.9 97.6 C 177.2 97.3 176.0 98.3 174.9 98.6 C 173.0 98.8 173.0 99.1 171.2 99.3 C 170.7 99.1 173.0 99.0 172.8 98.8 C 172.3 98.9 172.1 98.8 171.7 98.9 C 170.4 99.0 170.6 99.3 169.6 99.4 C 169.0 99.3 168.7 99.4 168.0 99.6 C 166.8 99.7 168.6 99.4 167.4 99.5 C 166.0 99.5 165.1 100.0 164.7 100.0 C 164.6 99.9 164.8 99.8 164.1 99.8 C 162.6 100.1 162.2 100.2 164.2 100.1 C 162.5 100.3 161.7 100.4 162.0 100.7 C 164.6 100.4 165.2 100.3 166.4 100.5 C 166.9 100.2 167.6 100.3 168.6 100.3 C 168.0 99.9 169.7 100.1 170.2 99.9 C 169.6 99.9 168.9 99.9 168.5 99.9 C 171.2 99.6 171.2 99.6 173.3 99.0 C 173.3 99.1 173.6 99.1 173.9 99.1 C 173.2 99.3 171.3 99.5 171.2 99.7 C 172.8 99.8 173.3 99.3 175.0 99.4 C 175.7 99.1 173.6 99.3 175.0 99.1 C 175.7 99.1 176.6 99.1 177.7 99.1 C 178.8 98.9 179.4 98.7 180.3 98.4 C 180.4 98.5 180.5 98.6 181.4 98.4 C 181.3 98.3 180.4 98.4 181.3 98.2 C 184.2 98.0 186.0 97.9 188.7 97.3 C 187.7 97.4 185.5 97.5 186.6 97.3 C 187.8 97.3 189.4 96.7 190.7 96.6 C 191.1 96.6 189.2 96.8 189.7 97.2 C 190.9 96.9 191.7 96.8 192.3 96.7 C 192.2 96.6 193.6 96.3 193.2 96.2 C 192.2 96.4 192.0 96.7 191.7 96.7 C 192.4 95.8 195.5 96.1 197.3 95.7 C 198.5 95.3 196.4 95.7 197.7 95.3 C 198.6 95.0 199.2 95.4 197.9 95.8 C 196.9 95.9 196.6 96.3 196.3 96.1 C 196.0 96.2 195.4 96.3 195.4 96.4 C 196.1 96.2 196.0 96.4 196.4 96.4 C 195.4 96.6 195.4 97.1 194.4 97.0 C 195.0 96.9 195.2 96.7 195.4 96.6 C 192.8 97.3 191.9 97.3 190.3 97.5 C 191.2 97.4 190.3 97.6 190.4 97.8 C 191.5 97.5 193.8 97.2 192.4 97.5 C 191.5 97.4 190.9 98.3 189.9 98.2 C 190.6 98.0 190.5 97.9 190.9 97.7 C 189.8 97.9 189.8 97.7 188.8 97.9 C 185.5 98.9 182.8 98.8 177.3 100.1 C 175.4 100.4 179.1 99.7 178.9 99.5 C 178.3 99.6 178.2 99.6 177.8 99.6 C 177.8 99.9 176.8 99.8 176.2 100.1 C 176.3 99.8 173.7 100.4 172.4 100.4 C 172.4 100.5 172.5 100.6 171.9 100.7 C 167.9 100.9 160.7 102.0 157.7 102.0 C 157.8 102.2 156.4 102.3 156.1 102.4 C 154.1 102.5 155.0 102.3 152.2 102.7 C 150.7 102.9 152.4 102.5 152.7 102.4 C 148.5 102.8 144.7 102.8 142.1 103.1 C 140.7 103.3 142.1 103.0 139.3 103.0 C 139.2 103.3 134.8 102.9 134.2 103.3 C 132.5 103.4 129.4 102.9 130.8 103.2 C 128.5 103.2 130.0 102.9 129.1 102.9 C 127.5 102.9 129.6 103.5 128.0 103.5 C 128.2 103.3 126.8 103.4 125.8 103.1 C 127.0 103.1 127.8 103.1 128.0 103.0 C 126.9 103.1 127.0 102.9 125.2 102.9 C 123.9 103.1 120.1 103.2 119.0 102.8 C 119.0 102.9 119.3 103.0 119.6 103.0 C 118.5 103.0 117.2 102.7 117.3 103.0 C 114.8 102.9 113.7 102.6 112.3 102.8 C 111.2 102.8 112.7 102.6 109.5 102.4 C 109.4 102.6 103.8 102.2 102.3 101.8 C 102.2 102.2 101.9 101.8 101.2 101.7 C 101.1 101.8 101.3 102.0 100.6 101.9 C 100.5 101.8 100.0 101.8 99.5 101.8 C 100.0 101.5 97.5 101.7 97.4 101.4 C 97.8 101.5 97.9 101.3 97.4 101.2 C 97.2 101.5 95.0 100.8 95.2 101.0 C 95.7 101.2 97.2 101.3 96.8 101.5 C 94.6 101.3 95.5 101.1 94.1 100.9 C 94.2 101.0 95.0 101.2 94.1 101.2 C 92.6 100.9 94.0 101.1 93.0 100.8 C 92.2 100.8 90.8 100.8 90.3 100.7 C 90.4 100.7 90.0 100.5 89.7 100.5 C 87.0 100.0 80.7 99.4 78.1 98.6 C 77.9 98.6 77.3 98.6 77.5 98.8 C 76.0 98.4 76.0 98.5 74.5 98.1 C 74.4 98.2 74.4 98.3 74.4 98.4 C 72.3 98.1 74.3 98.0 72.9 97.8 C 72.6 98.3 72.1 97.4 70.9 97.2 C 70.7 97.3 70.1 97.2 70.3 97.4 C 68.3 97.0 68.5 96.7 66.8 96.4 C 67.2 96.5 67.3 97.4 67.1 97.5 C 66.8 97.4 66.3 97.2 65.6 97.0 C 66.5 96.9 66.3 95.9 63.8 95.7 C 65.1 95.9 65.6 96.1 65.3 96.2 C 63.5 95.9 62.9 95.5 61.3 95.1 C 61.0 95.3 62.1 95.6 61.7 95.8 C 61.3 95.7 61.1 95.7 61.2 95.8 C 59.6 95.4 59.6 95.2 57.8 94.9 C 57.8 94.7 58.2 94.8 58.8 95.1 C 58.7 94.9 58.8 94.7 59.8 94.9 C 59.9 95.1 59.3 95.2 60.8 95.5 C 60.8 95.4 60.8 95.2 60.9 95.1 C 59.8 94.8 57.3 94.0 57.0 94.0 C 57.5 94.3 58.3 94.5 57.8 94.7 C 56.0 94.1 55.6 93.7 54.1 93.1 C 51.5 92.5 47.1 91.0 47.6 91.5 C 46.1 90.9 46.6 91.1 45.3 90.6 C 45.6 91.0 43.8 90.2 43.9 90.4 C 45.5 90.9 45.0 90.8 46.6 91.3 C 46.5 91.4 46.2 91.4 45.6 91.3 C 45.5 91.1 44.9 90.9 43.8 90.5 C 44.0 90.6 44.9 91.2 43.7 90.8 C 43.7 90.7 43.4 90.6 42.9 90.4 C 42.9 90.3 43.0 90.2 43.0 90.1 C 43.7 90.2 44.4 90.4 44.9 90.5 C 44.4 90.3 44.4 90.2 44.0 90.1 C 43.7 90.1 41.9 89.3 41.8 89.4 C 42.5 89.7 42.9 90.0 42.1 89.7 C 42.0 89.6 40.6 89.0 39.8 88.9 C 42.4 90.0 41.3 89.6 42.0 90.1 C 40.2 89.5 40.2 89.2 36.9 87.9 C 36.9 87.7 36.9 87.6 37.8 87.8 C 35.9 86.5 31.2 84.9 29.8 84.1 C 30.8 84.7 32.0 84.9 30.6 84.2 C 30.5 84.2 29.4 83.7 29.2 83.7 C 28.5 83.8 29.7 84.7 30.7 85.5 C 29.5 84.9 29.2 84.8 28.1 84.3 C 27.8 84.0 29.1 84.2 27.8 83.5 C 27.3 83.7 25.3 82.2 24.7 82.2 C 25.6 82.7 26.2 83.1 25.2 82.6 C 25.4 82.6 23.5 81.6 23.6 81.4 C 25.1 82.2 25.6 82.2 26.6 82.8 C 25.4 82.1 27.6 83.1 25.6 81.9 C 24.6 81.6 24.0 81.5 22.0 80.3 C 21.3 79.8 22.1 80.0 21.1 79.4 C 21.3 79.7 19.2 78.4 20.5 79.1 C 19.8 78.6 19.5 78.3 19.1 78.0 C 19.9 78.9 15.2 75.9 15.8 76.5 C 16.0 76.2 16.0 75.8 15.8 75.6 C 14.8 75.2 14.0 74.3 12.0 72.4 C 11.9 72.7 11.7 72.2 10.9 71.4 C 10.6 71.3 11.3 72.1 10.7 71.6 C 9.9 70.6 9.9 70.5 9.8 70.3 C 9.2 69.6 8.8 69.1 8.6 68.7 C 8.5 68.7 8.6 69.0 8.7 69.2 C 6.8 66.5 5.7 65.3 4.6 62.9 C 5.0 64.0 5.4 64.0 5.0 63.2 C 4.7 62.8 4.5 62.4 4.3 62.1 C 4.3 62.8 4.3 62.5 3.9 61.3 C 3.4 60.3 3.7 61.9 3.3 61.0 C 3.1 60.1 3.4 60.6 3.3 60.1 C 3.2 59.7 3.1 59.2 2.9 58.8 C 3.0 59.6 2.7 58.8 2.4 58.1 C 2.8 58.5 2.7 58.2 2.4 56.7 C 2.5 56.5 2.7 57.3 2.6 56.7 C 2.6 56.3 2.1 55.2 2.3 54.1 C 2.3 54.5 2.4 54.6 2.4 54.6 C 2.2 53.4 2.5 52.6 2.7 51.6 C 2.4 52.6 2.3 52.0 2.1 52.4 C 2.3 51.4 2.2 50.2 2.6 49.5 C 2.3 50.9 3.1 49.6 3.2 48.7 C 3.0 48.4 2.8 50.0 2.6 49.5 C 2.5 48.9 3.1 47.9 3.0 47.3 C 2.8 47.4 2.9 48.0 2.7 48.1 C 2.9 47.4 2.5 48.4 2.7 47.7 C 3.0 47.3 2.8 46.8 2.9 46.4 C 3.2 45.9 3.9 44.9 3.9 44.4 C 3.8 44.4 3.6 45.1 3.4 45.1 C 4.2 42.8 4.9 42.3 5.8 40.2 C 6.1 40.0 6.4 39.7 6.8 39.1 C 6.7 39.1 6.9 38.7 7.2 38.2 C 7.9 37.5 8.6 36.7 9.6 35.7 C 9.6 36.1 9.2 36.6 10.5 35.2 C 10.5 35.1 10.0 35.6 10.4 35.1 C 10.4 35.1 10.8 34.8 10.8 34.7 C 10.7 34.7 10.7 34.6 10.7 34.6 C 10.3 35.0 9.9 35.4 9.6 35.7 C 9.5 35.6 9.4 35.6 9.0 35.9 C 10.4 34.2 10.7 34.6 11.6 33.4 C 12.1 33.5 12.5 33.2 11.8 34.3 C 12.7 33.3 13.3 32.6 13.4 32.2 C 12.2 33.3 12.4 32.7 12.0 33.0 C 12.8 32.3 12.7 32.2 13.1 31.8 C 14.1 31.1 12.4 32.9 14.2 31.4 C 12.6 32.3 15.2 30.2 16.3 29.5 C 16.1 29.6 15.7 29.8 16.2 29.3 C 18.8 27.1 19.1 28.0 20.7 26.4 C 20.7 26.7 21.5 26.1 21.9 26.0 C 20.4 27.0 20.1 27.3 19.4 27.8 C 19.6 27.8 20.1 27.5 20.5 27.2 C 20.4 27.1 20.8 26.8 21.5 26.5 C 21.9 26.1 21.6 25.9 22.7 24.9 C 22.9 24.9 22.8 25.1 23.5 24.8 C 23.9 24.2 23.1 25.4 25.9 23.7 C 25.3 23.9 25.0 24.0 25.1 23.7 C 26.4 22.9 26.2 23.1 28.1 22.0 C 29.0 22.0 27.0 23.1 26.6 23.6 C 27.8 22.9 28.8 22.1 30.2 21.6 C 29.1 22.0 30.0 21.3 31.3 20.6 C 32.4 20.1 31.4 21.0 32.8 20.4 C 33.9 19.8 34.4 19.4 33.3 19.7 C 35.8 18.7 35.1 18.7 37.3 17.8 C 37.5 17.9 36.8 18.2 36.0 18.5 C 36.2 18.5 35.9 18.7 36.8 18.4 C 38.1 17.6 41.3 16.4 42.3 15.8 C 44.4 15.5 46.5 14.2 48.6 13.7 C 47.9 14.2 51.4 12.9 52.4 12.9 C 53.1 12.6 54.9 11.5 54.2 11.9 C 54.5 12.2 55.7 11.8 56.7 11.6 C 56.7 11.5 56.7 11.4 56.7 11.3 C 58.8 10.7 59.4 10.8 60.1 10.9 C 62.8 10.0 65.8 9.7 69.1 8.7 C 70.0 8.8 70.7 8.6 72.8 8.4 C 72.7 8.1 74.3 7.8 75.8 7.5 C 75.4 7.4 76.8 7.2 76.8 7.0 C 75.4 7.3 75.9 6.9 75.2 6.9 C 77.0 6.8 77.9 6.2 79.3 6.2 C 77.6 6.6 77.1 7.0 76.9 7.4 C 79.0 7.0 80.1 6.9 80.6 7.0 C 80.7 6.8 80.4 6.8 80.0 6.7 C 80.7 6.6 81.4 6.5 82.1 6.4 C 82.3 6.5 81.3 6.7 82.1 6.6 C 82.6 6.5 83.2 6.3 83.7 6.2 C 84.3 6.3 82.9 6.5 82.7 6.6 C 85.5 6.3 84.2 6.0 85.8 5.7 C 86.2 5.8 86.1 6.1 87.5 5.9 C 88.0 5.7 88.1 5.5 89.6 5.3 C 90.5 5.2 89.5 5.6 90.7 5.5 C 90.8 5.4 91.3 5.4 91.8 5.4 C 91.7 5.2 92.2 5.1 92.8 5.0 C 93.0 5.1 94.0 4.9 94.4 4.8 C 94.6 4.9 96.3 5.0 96.6 4.8 C 96.6 4.7 95.7 4.9 95.6 4.8 C 96.8 4.7 97.6 4.5 98.3 4.4 C 98.7 4.9 100.7 4.3 103.2 4.4 C 104.8 4.0 102.9 4.0 104.9 3.7 C 106.1 3.7 104.6 3.9 104.9 4.1 C 105.2 4.1 107.1 4.2 107.1 4.0 C 107.1 3.9 106.1 4.0 106.0 3.9 C 107.5 3.6 107.4 3.9 108.3 3.9 C 108.1 3.7 109.1 3.6 109.3 3.4 C 113.3 3.0 113.3 3.5 114.9 3.6 C 114.9 3.5 115.9 3.5 116.0 3.4 C 114.9 3.5 113.3 3.4 114.9 3.3 C 114.7 3.4 117.0 3.2 117.2 3.1 C 116.9 3.0 115.4 3.1 116.0 2.8 C 118.1 2.6 117.3 3.2 118.8 2.9 C 119.0 3.0 118.1 3.1 117.7 3.1 C 118.4 3.1 119.3 3.1 119.4 3.2 C 118.6 3.3 118.6 3.4 118.3 3.6 C 119.4 3.4 121.3 3.5 120.0 3.2 C 122.2 3.2 124.3 3.0 122.8 2.8 C 124.6 2.7 123.6 3.1 125.0 2.9 C 124.8 3.1 124.4 3.3 125.6 3.5 C 125.8 3.3 126.8 3.3 126.7 3.1 C 129.4 3.0 130.2 3.3 131.2 3.5 C 130.3 3.1 131.6 3.4 132.9 3.2 C 133.7 3.3 132.9 3.6 135.1 3.5 C 132.8 3.2 137.9 3.5 136.8 3.1 C 139.6 3.3 139.6 3.3 142.5 3.5 C 142.2 3.6 141.5 3.7 140.2 3.7 C 141.1 3.5 137.8 3.4 138.0 3.6 C 138.0 3.7 138.0 3.7 138.0 3.8 C 140.1 3.8 141.5 3.9 142.5 4.0 C 142.9 3.9 143.9 3.8 143.6 3.5 C 145.6 3.9 147.7 3.6 148.6 3.9 C 147.9 3.9 147.3 3.9 147.5 4.0 C 148.3 4.0 149.3 4.0 149.2 3.8 C 147.6 3.6 147.2 3.6 146.4 3.7 C 147.1 3.5 144.8 3.3 146.4 3.3 C 146.3 3.7 149.8 3.3 148.6 3.5 C 146.8 3.6 150.6 3.8 150.8 4.0 C 150.8 4.0 150.8 4.0 150.8 4.0 Z M 189.3 97.8 C 190.8 97.4 188.9 97.5 187.7 97.8 C 188.1 97.8 188.2 97.9 188.3 98.0 C 188.7 97.9 189.2 97.7 189.3 97.8 C 189.3 97.8 189.3 97.8 189.3 97.8 Z M 172.0 97.0 C 171.5 97.4 174.1 96.9 175.2 96.8 C 174.9 96.7 174.5 96.7 175.2 96.6 C 174.0 96.6 173.7 97.0 172.0 97.0 C 172.0 97.0 172.0 97.0 172.0 97.0 Z M 110.8 99.9 C 111.2 99.9 112.3 99.8 112.4 100.0 C 113.0 100.0 112.9 99.9 113.0 99.8 C 114.3 99.8 112.7 100.1 114.7 100.1 C 115.5 99.7 111.2 99.3 110.8 99.9 C 110.8 99.9 110.8 99.9 110.8 99.9 Z M 129.5 7.0 C 130.3 7.2 128.4 7.4 129.0 7.6 C 132.1 7.4 129.7 7.1 134.0 7.2 C 133.7 7.1 133.4 7.1 133.4 7.0 C 131.4 7.1 131.2 7.2 131.7 6.8 C 130.8 6.8 130.6 7.3 129.5 7.0 C 129.5 7.0 129.5 7.0 129.5 7.0 Z M 169.0 10.3 C 168.6 10.2 168.4 10.1 168.4 10.0 C 167.1 9.9 167.4 10.0 165.7 9.7 C 165.9 10.1 167.5 10.3 169.0 10.3 C 169.0 10.3 169.0 10.3 169.0 10.3 Z M 253.1 48.8 C 253.2 49.0 253.2 49.2 253.3 49.4 C 253.4 49.3 253.9 49.8 253.5 48.7 C 253.4 48.7 253.5 48.8 253.5 49.0 C 253.4 48.9 253.2 48.3 253.1 48.5 C 253.2 48.8 253.2 48.8 253.1 48.8 C 253.1 48.8 253.1 48.8 253.1 48.8 Z M 240.1 75.7 C 241.8 74.2 236.9 76.8 240.1 75.7 C 240.1 75.7 240.1 75.7 240.1 75.7 C 240.1 75.7 240.1 75.7 240.1 75.7 Z M 245.5 75.2 C 245.6 75.3 245.9 74.9 245.9 74.9 C 247.4 73.8 246.1 75.0 247.0 74.5 C 247.9 73.4 246.1 74.6 247.4 73.3 C 247.1 73.5 246.3 74.6 245.5 75.2 C 245.5 75.2 245.5 75.2 245.5 75.2 Z M 18.8 27.9 C 17.5 28.9 17.3 29.4 17.2 29.7 C 18.1 29.1 18.8 28.6 19.2 28.5 C 20.8 27.2 18.0 29.2 17.6 29.3 C 17.7 29.0 18.9 28.1 18.8 27.9 C 18.8 27.9 18.8 27.9 18.8 27.9 Z M 14.7 31.1 C 14.3 31.6 13.6 32.3 13.7 32.5 C 14.4 31.8 14.5 31.8 14.6 31.9 C 15.2 31.2 14.3 31.8 14.7 31.1 C 14.7 31.1 14.7 31.1 14.7 31.1 Z M 23.1 25.5 C 22.4 25.9 22.8 25.9 22.7 26.1 C 23.7 25.5 23.9 25.5 25.0 24.9 C 24.9 24.8 24.9 24.7 24.9 24.7 C 24.0 25.1 24.0 25.3 23.2 25.7 C 23.2 25.6 23.1 25.6 23.1 25.5 C 23.1 25.5 23.1 25.5 23.1 25.5 Z M 11.4 34.6 C 9.4 36.5 9.1 37.7 8.4 39.1 C 9.4 37.7 10.1 36.1 11.2 35.2 C 12.3 33.9 10.7 35.5 10.7 35.4 C 10.7 35.3 11.1 34.9 11.4 34.6 C 11.4 34.6 11.4 34.6 11.4 34.6 Z M 2.7 52.9 C 2.5 53.3 2.9 54.1 3.0 55.4 C 3.0 55.1 3.1 54.9 3.2 54.9 C 3.1 53.1 2.7 54.2 2.7 52.9 C 2.7 52.9 2.7 52.9 2.7 52.9 Z M 5.4 63.0 C 5.9 64.1 5.2 62.4 5.6 62.9 C 5.1 61.8 4.6 60.5 4.4 60.6 C 5.0 61.8 5.1 62.1 5.4 63.0 C 5.4 63.0 5.4 63.0 5.4 63.0 Z M 10.2 70.0 C 11.3 71.0 10.0 69.3 10.6 69.6 C 10.2 69.2 10.2 69.4 10.1 69.4 C 9.9 69.0 9.6 68.7 9.2 68.2 C 9.4 68.7 10.5 69.9 10.2 70.0 C 10.2 70.0 10.2 70.0 10.2 70.0 Z M 58.3 12.0 C 57.5 12.2 57.8 12.4 56.0 12.8 C 58.7 12.1 57.4 13.2 61.0 12.2 C 60.4 12.2 60.7 12.0 61.0 12.1 C 62.3 11.6 59.6 12.3 60.9 11.7 C 59.9 12.0 60.5 12.1 59.5 12.4 C 58.4 12.4 57.8 12.5 58.3 12.0 C 58.3 12.0 58.3 12.0 58.3 12.0 Z M 61.0 12.4 C 62.0 12.2 61.9 11.8 62.5 11.9 C 62.9 11.8 62.8 11.7 62.9 11.6 C 62.5 11.7 62.5 11.7 62.4 11.7 C 61.6 11.9 60.7 12.2 61.0 12.4 C 61.0 12.4 61.0 12.4 61.0 12.4 Z M 52.0 14.9 C 53.6 14.3 54.1 14.4 54.8 13.9 C 55.4 14.1 55.8 13.5 56.7 13.6 C 58.3 13.0 57.1 13.3 56.6 13.2 C 58.1 12.7 57.1 13.4 58.6 12.9 C 58.8 12.5 56.9 13.1 57.0 12.8 C 55.9 13.1 55.9 13.3 55.2 13.6 C 54.6 13.7 54.8 13.5 54.7 13.5 C 53.3 13.9 53.4 13.7 52.3 14.1 C 52.1 14.3 52.6 14.3 53.8 13.9 C 52.5 14.4 52.0 14.7 50.6 15.0 C 51.5 14.5 46.9 15.8 47.4 16.1 C 48.7 15.8 48.2 15.7 48.7 15.4 C 50.4 15.1 51.3 14.8 52.0 14.9 C 52.0 14.9 52.0 14.9 52.0 14.9 Z M 24.1 25.8 C 23.6 26.1 23.1 26.3 22.4 26.8 C 22.3 26.6 23.2 26.1 22.3 26.5 C 21.1 27.2 20.9 27.4 20.2 27.9 C 20.7 27.7 23.2 26.5 22.0 27.3 C 22.4 27.2 23.2 26.7 24.2 26.1 C 22.9 26.5 25.9 25.2 27.1 24.5 C 26.8 24.3 29.2 23.5 30.0 22.8 C 29.2 23.0 26.8 24.5 25.8 25.0 C 26.3 24.7 22.8 26.2 24.1 25.8 C 24.1 25.8 24.1 25.8 24.1 25.8 Z M 64.9 11.3 C 65.2 11.2 66.3 10.9 65.4 11.0 C 65.8 10.8 66.8 10.8 66.3 10.5 C 66.8 10.4 67.3 10.3 67.8 10.2 C 67.6 10.3 66.3 10.6 66.9 10.7 C 67.9 10.4 67.5 10.6 68.9 10.3 C 68.2 10.7 69.0 10.5 68.5 10.9 C 68.9 10.7 70.1 10.5 69.9 10.3 C 71.9 9.9 69.5 10.7 72.0 10.2 C 72.0 10.4 70.2 10.8 69.5 10.8 C 69.2 11.1 72.7 10.2 74.6 9.9 C 72.9 10.1 74.2 9.6 75.0 9.2 C 75.6 9.2 75.0 9.4 76.1 9.3 C 77.0 9.2 77.4 9.0 77.7 9.1 C 78.4 8.9 78.0 8.8 78.1 8.7 C 79.3 8.5 78.5 9.0 80.3 8.6 C 78.9 8.5 80.4 8.2 82.8 7.9 C 82.7 7.8 81.9 7.9 81.8 7.8 C 82.1 7.6 83.5 7.7 83.9 7.7 C 84.8 7.5 84.2 7.5 83.4 7.6 C 83.9 7.5 84.4 7.3 84.9 7.2 C 82.3 7.5 78.1 8.2 73.4 8.8 C 74.3 8.8 73.3 9.1 71.8 9.3 C 71.6 9.2 72.2 9.0 72.9 8.9 C 71.2 8.9 71.4 9.5 68.8 9.9 C 67.4 10.1 70.3 9.4 68.8 9.6 C 67.8 9.8 67.3 10.2 66.8 10.0 C 65.2 10.5 64.8 10.9 62.4 11.4 C 63.8 11.2 64.5 11.6 65.9 11.2 C 65.9 11.1 65.3 11.2 64.9 11.3 C 64.9 11.3 64.9 11.3 64.9 11.3 Z M 14.7 32.0 C 14.0 32.6 13.8 33.0 13.5 33.1 C 12.4 34.2 13.8 33.1 14.1 33.0 C 14.6 32.4 14.8 32.2 14.7 32.0 C 14.7 32.0 14.7 32.0 14.7 32.0 Z M 117.9 102.3 C 120.0 102.5 119.6 102.2 121.3 102.2 C 119.9 102.1 119.6 101.9 117.4 101.8 C 117.3 102.0 117.2 102.2 117.9 102.3 C 117.9 102.3 117.9 102.3 117.9 102.3 Z M 19.3 28.7 C 20.4 27.7 18.1 29.9 18.0 29.8 C 16.8 30.8 19.3 29.0 18.2 30.1 C 19.2 29.1 20.1 28.8 21.5 27.7 C 21.4 27.6 20.1 28.4 19.0 29.2 C 18.8 29.2 19.4 28.8 19.3 28.7 C 19.3 28.7 19.3 28.7 19.3 28.7 Z M 96.4 100.1 C 94.9 100.2 97.7 100.7 98.5 100.9 C 98.6 100.6 98.1 100.6 96.4 100.1 C 96.4 100.1 96.4 100.1 96.4 100.1 Z M 132.5 102.2 C 133.3 101.9 130.0 102.2 130.8 101.9 C 129.8 101.8 129.7 101.9 129.7 102.0 C 129.2 101.9 127.6 102.0 128.0 101.8 C 127.7 101.6 130.5 101.8 129.7 101.5 C 130.6 101.5 130.6 101.6 131.4 101.6 C 129.7 101.6 130.5 101.9 132.5 101.9 C 132.5 101.7 131.6 101.8 132.5 101.6 C 132.6 101.7 133.7 101.9 133.6 102.2 C 135.4 102.2 134.3 101.8 136.4 101.8 C 136.2 101.7 134.9 101.7 134.1 101.6 C 134.4 101.3 136.3 101.8 135.8 101.4 C 136.3 101.6 137.5 101.7 137.5 102.0 C 136.0 102.1 134.9 102.3 133.6 102.4 C 134.8 102.6 136.6 102.0 138.6 102.2 C 138.4 102.0 139.7 102.0 139.2 101.8 C 140.9 101.8 140.1 102.1 139.8 102.1 C 140.2 102.3 143.4 102.1 143.2 101.9 C 143.4 102.1 147.2 101.9 147.0 101.5 C 148.2 101.7 149.9 101.2 150.4 101.5 C 151.0 101.4 152.3 101.3 153.7 101.2 C 154.1 100.9 151.7 101.2 151.5 101.1 C 151.1 100.9 154.1 101.0 153.7 100.8 C 153.7 100.7 153.7 100.7 153.7 100.6 C 152.6 100.8 151.4 100.9 150.4 101.1 C 149.6 101.1 150.6 100.9 150.4 100.8 C 149.6 101.0 146.0 101.5 145.9 101.0 C 143.5 101.3 141.8 101.2 140.9 101.5 C 139.4 101.5 141.7 101.3 140.8 101.1 C 136.7 101.6 131.5 101.2 128.0 101.6 C 127.3 101.6 127.5 101.4 127.4 101.3 C 122.6 101.4 126.7 101.8 122.9 101.6 C 122.9 101.4 124.7 101.5 124.6 101.2 C 123.3 101.2 123.0 101.3 121.3 101.2 C 121.3 101.3 121.3 101.4 121.3 101.6 C 119.8 101.5 120.4 101.2 119.6 101.1 C 117.8 101.1 118.3 101.3 117.4 100.9 C 115.7 101.0 114.1 101.0 112.4 100.8 C 111.2 100.9 113.4 101.4 115.1 101.5 C 115.0 101.5 114.5 101.5 114.5 101.6 C 112.5 101.3 112.2 100.8 109.1 100.6 C 111.4 101.0 107.8 100.6 107.4 100.4 C 106.1 100.3 107.0 100.7 107.9 100.7 C 107.7 100.8 106.9 100.7 106.8 100.6 C 106.7 100.9 109.7 101.3 112.9 101.4 C 111.4 101.7 115.2 101.5 113.4 101.9 C 116.1 101.9 113.8 101.5 116.8 101.7 C 116.5 101.6 116.0 101.5 115.7 101.3 C 117.9 101.4 117.3 101.7 119.6 101.7 C 120.0 101.5 118.5 101.5 118.5 101.4 C 121.0 101.7 121.8 101.8 123.5 102.1 C 123.9 101.9 123.4 101.7 126.3 101.9 C 126.3 102.0 126.3 102.0 126.3 102.1 C 125.0 102.0 124.6 102.5 128.0 102.5 C 128.2 102.3 127.2 102.3 126.3 102.3 C 126.7 102.2 127.8 102.1 129.1 102.1 C 129.8 102.1 130.5 102.2 129.7 102.3 C 130.2 102.5 130.7 102.0 132.5 102.2 C 132.5 102.2 132.5 102.2 132.5 102.2 Z M 3.4 50.8 C 3.4 51.2 3.4 51.5 3.4 52.1 C 3.6 52.4 3.6 51.3 3.7 51.3 C 3.8 50.4 3.5 51.1 3.4 50.8 C 3.4 50.8 3.4 50.8 3.4 50.8 Z M 7.8 39.9 C 7.6 39.9 7.5 40.6 6.9 41.4 C 6.9 41.8 7.5 40.7 7.6 40.8 C 8.3 39.8 7.1 40.9 7.8 39.9 C 7.8 39.9 7.8 39.9 7.8 39.9 Z M 5.3 44.5 C 4.9 44.8 5.2 45.0 5.5 44.1 C 5.6 44.3 5.6 44.5 5.5 45.0 C 5.9 44.6 5.7 44.0 6.3 43.1 C 6.0 43.4 5.6 43.8 5.3 44.5 C 5.3 44.5 5.3 44.5 5.3 44.5 Z M 4.6 46.1 C 4.6 46.7 4.2 47.0 4.1 48.1 C 4.3 47.9 4.9 45.7 5.0 45.3 C 5.0 44.9 4.1 47.2 4.6 46.1 C 4.6 46.1 4.6 46.1 4.6 46.1 Z M 75.2 96.7 C 75.7 96.8 75.6 96.7 75.7 96.7 C 77.3 97.3 79.5 97.6 77.7 97.7 C 79.4 97.7 80.9 98.3 82.4 98.6 C 83.6 98.8 83.0 98.5 84.0 98.6 C 85.6 98.9 83.2 98.6 83.5 98.8 C 83.7 99.0 84.3 98.7 86.1 99.1 C 85.6 98.6 87.7 99.3 87.2 98.8 C 88.2 99.1 88.6 99.0 89.9 99.2 C 89.8 99.0 88.5 98.9 88.3 98.7 C 87.7 98.3 87.6 98.8 88.8 98.9 C 88.1 99.1 86.3 98.4 85.7 98.5 C 85.0 98.2 87.4 98.7 86.7 98.4 C 86.3 98.3 85.8 98.3 85.7 98.4 C 84.9 98.2 84.4 98.1 84.1 97.9 C 84.6 98.0 84.6 98.0 84.6 98.1 C 85.6 98.2 83.7 97.5 85.8 97.8 C 85.4 97.7 84.5 97.6 84.7 97.4 C 84.1 97.2 84.6 98.1 82.5 97.5 C 81.1 97.5 85.8 98.2 84.5 98.5 C 81.6 98.0 83.3 97.9 81.0 97.5 C 81.0 97.6 81.0 97.7 80.4 97.6 C 80.5 97.8 81.3 97.9 81.9 98.0 C 81.8 98.1 81.0 97.9 80.4 97.8 C 80.4 97.9 80.9 98.0 80.9 98.0 C 78.9 97.6 79.2 97.2 81.0 97.3 C 81.0 97.1 78.5 96.7 77.9 96.7 C 78.5 97.0 77.8 96.9 78.3 97.2 C 78.8 97.3 78.7 97.2 78.9 97.2 C 79.8 97.4 78.9 97.3 78.9 97.4 C 77.8 97.2 77.9 97.0 76.8 96.9 C 77.1 96.9 77.3 96.9 77.3 96.8 C 76.8 96.7 76.3 96.6 75.8 96.5 C 75.8 96.7 75.1 96.6 75.2 96.7 C 75.2 96.7 75.2 96.7 75.2 96.7 Z M 102.9 101.1 C 104.7 101.3 103.8 101.0 102.9 100.9 C 103.3 100.9 104.0 100.9 104.6 100.9 C 104.1 100.8 103.6 100.8 101.9 100.6 C 103.4 100.4 101.9 99.8 99.2 99.6 C 98.3 100.0 100.6 100.3 99.7 100.5 C 101.7 100.5 102.7 100.8 102.9 101.1 C 102.9 101.1 102.9 101.1 102.9 101.1 Z M 14.2 33.0 C 13.4 33.7 12.6 34.4 11.9 35.1 C 12.2 35.2 14.6 33.1 14.2 33.0 C 14.2 33.0 14.2 33.0 14.2 33.0 Z M 87.0 7.2 C 87.5 7.1 87.6 7.1 87.6 7.2 C 89.2 6.9 86.9 7.1 87.6 6.8 C 87.0 6.9 86.5 6.9 86.0 7.0 C 85.9 7.1 88.2 6.9 86.5 7.3 C 86.6 7.3 87.1 7.2 87.0 7.2 C 87.0 7.2 87.0 7.2 87.0 7.2 Z M 3.8 50.1 C 3.8 50.8 4.1 50.4 3.9 52.1 C 4.1 51.5 4.1 51.1 4.2 50.1 C 4.1 50.1 3.9 50.1 3.8 50.1 C 3.8 50.1 3.8 50.1 3.8 50.1 Z M 67.5 95.6 C 68.7 96.1 69.2 95.6 71.6 96.3 C 70.4 95.7 68.9 95.8 67.5 95.6 C 67.5 95.6 67.5 95.6 67.5 95.6 Z M 158.1 100.5 C 157.3 100.5 158.3 100.4 157.0 100.4 C 156.2 100.5 155.9 100.7 154.8 100.8 C 156.4 100.9 159.1 100.4 160.3 100.7 C 161.6 100.6 161.5 100.3 161.9 100.1 C 161.3 100.2 161.0 100.2 160.8 100.1 C 160.1 100.5 159.1 100.0 158.1 100.5 C 158.1 100.5 158.1 100.5 158.1 100.5 Z M 95.9 100.0 C 94.9 99.7 96.6 99.8 97.0 99.7 C 97.7 99.8 97.4 100.0 97.5 100.1 C 98.5 100.2 98.7 100.1 98.6 99.9 C 96.8 99.6 94.6 99.4 95.9 99.2 C 94.2 98.9 95.1 99.4 94.3 99.3 C 93.3 99.1 94.2 99.1 94.3 98.9 C 93.9 98.9 92.5 99.0 92.7 98.7 C 90.1 98.7 91.2 99.2 93.1 99.8 C 94.9 99.8 92.9 99.5 95.9 100.0 C 95.9 100.0 95.9 100.0 95.9 100.0 Z M 29.8 82.5 C 29.9 82.7 31.0 83.2 31.0 83.3 C 32.4 83.7 33.7 84.1 35.1 84.4 C 35.0 84.1 33.1 83.5 33.8 84.0 C 33.3 83.6 32.1 82.9 31.4 82.4 C 30.1 81.8 29.5 82.0 29.5 81.6 C 28.3 81.1 28.9 81.5 27.1 80.4 C 29.9 82.2 26.1 80.0 25.8 80.1 C 27.4 81.1 28.9 81.8 28.8 81.5 C 30.1 82.2 31.5 83.0 31.7 83.4 C 31.5 83.4 30.5 82.9 29.8 82.5 C 29.8 82.5 29.8 82.5 29.8 82.5 Z M 37.9 85.4 C 37.3 85.2 36.8 85.1 35.9 84.7 C 36.4 84.9 36.5 85.1 36.4 85.2 C 38.1 86.0 38.6 86.0 39.2 86.4 C 40.8 87.1 38.8 86.0 41.4 87.1 C 41.3 86.9 40.0 86.4 40.0 86.3 C 39.7 86.4 38.7 86.1 37.9 85.4 C 37.9 85.4 37.9 85.4 37.9 85.4 Z M 53.1 91.3 C 54.4 91.6 52.6 90.9 53.2 91.0 C 52.9 90.9 50.6 90.1 51.0 90.0 C 50.5 89.5 48.0 89.4 48.3 89.1 C 47.8 88.9 47.9 89.1 47.8 89.2 C 49.4 89.6 49.3 89.8 48.2 89.5 C 48.3 89.6 49.3 89.9 50.0 90.1 C 50.1 90.0 49.5 89.8 49.6 89.7 C 51.0 90.2 51.9 90.7 53.1 91.3 C 53.1 91.3 53.1 91.3 53.1 91.3 Z M 147.4 5.1 C 146.1 5.0 145.3 5.0 144.6 5.1 C 145.0 5.2 145.6 5.1 146.3 5.1 C 146.4 5.3 145.8 5.3 145.1 5.2 C 145.8 5.5 148.1 5.4 147.4 5.1 C 147.4 5.1 147.4 5.1 147.4 5.1 Z M 136.2 4.7 C 135.0 4.7 134.1 4.7 134.0 4.9 C 134.5 5.0 134.3 4.8 135.1 4.8 C 135.6 4.9 135.9 5.0 136.2 5.1 C 136.8 5.1 136.6 5.0 136.8 4.9 C 137.2 4.9 137.3 5.0 137.4 5.0 C 138.9 4.8 135.6 5.0 136.2 4.7 C 136.2 4.7 136.2 4.7 136.2 4.7 Z M 45.5 88.6 C 45.2 88.4 44.9 88.2 43.8 87.8 C 44.0 88.0 43.2 87.7 42.5 87.5 C 43.4 88.0 44.0 88.1 45.5 88.6 C 45.5 88.6 45.5 88.6 45.5 88.6 Z M 68.5 11.1 C 67.0 11.2 67.2 11.6 65.0 11.9 C 65.1 11.9 65.1 12.0 65.1 12.1 C 66.3 11.6 67.0 11.6 68.5 11.1 C 68.5 11.1 68.5 11.1 68.5 11.1 Z M 255.2 62.2 C 255.1 62.0 254.6 63.2 254.4 63.2 C 254.6 63.6 253.8 63.8 252.4 66.0 C 252.3 66.0 252.3 65.8 252.5 65.5 C 251.3 67.2 253.1 65.2 253.4 65.1 C 254.3 63.7 254.6 63.6 255.2 62.2 C 255.2 62.2 255.2 62.2 255.2 62.2 Z M 141.4 100.7 C 141.3 100.8 141.7 100.8 142.0 100.8 C 142.4 100.8 142.7 100.8 143.1 100.8 C 142.9 100.4 141.1 100.4 142.5 100.0 C 142.0 100.0 142.0 100.0 142.0 100.1 C 139.3 100.9 137.1 99.8 133.6 100.2 C 133.0 100.3 133.2 100.3 133.0 100.4 C 133.5 100.4 133.5 100.4 133.6 100.5 C 134.0 100.1 137.2 100.5 135.8 100.6 C 135.9 100.7 136.4 100.7 136.4 100.6 C 136.7 100.6 137.1 100.6 137.5 100.6 C 137.3 100.5 136.5 100.5 136.4 100.4 C 138.2 100.4 140.3 100.5 139.2 100.8 C 140.3 100.7 140.7 100.6 141.4 100.5 C 142.1 100.5 142.1 100.7 141.4 100.7 C 141.4 100.7 141.4 100.7 141.4 100.7 Z M 155.8 99.9 C 157.5 99.8 156.9 99.6 158.6 99.5 C 157.5 99.4 156.2 99.8 154.7 99.7 C 154.9 99.8 155.7 99.8 155.8 99.9 C 155.8 99.9 155.8 99.9 155.8 99.9 Z M 123.6 100.4 C 123.9 100.1 122.4 100.1 120.8 100.0 C 120.4 100.3 121.9 100.4 123.6 100.4 C 123.6 100.4 123.6 100.4 123.6 100.4 Z M 130.8 100.5 C 132.4 100.4 128.7 100.4 129.7 100.2 C 128.9 100.2 128.1 100.2 128.0 100.1 C 127.4 100.1 127.4 100.3 126.3 100.2 C 126.4 100.4 128.2 100.3 128.0 100.5 C 129.3 100.3 129.5 100.3 130.8 100.5 C 130.8 100.5 130.8 100.5 130.8 100.5 Z M 131.9 100.5 C 133.0 100.4 131.6 100.0 130.3 100.0 C 130.8 100.2 131.1 100.4 131.9 100.5 C 131.9 100.5 131.9 100.5 131.9 100.5 Z M 11.4 67.7 C 11.8 68.1 11.6 67.6 12.1 68.2 C 12.2 68.1 10.4 66.1 12.0 67.7 C 11.6 66.9 11.0 66.9 10.5 66.0 C 10.6 66.3 10.7 66.6 10.3 66.1 C 10.0 66.0 11.7 67.8 11.4 67.7 C 11.4 67.7 11.4 67.7 11.4 67.7 Z M 13.3 69.7 C 13.7 70.1 13.5 69.9 13.3 69.7 C 13.5 69.7 14.0 70.3 14.5 70.7 C 14.4 70.8 13.9 69.7 14.1 69.6 C 12.3 68.0 13.4 69.5 13.3 69.7 C 13.3 69.7 13.3 69.7 13.3 69.7 Z M 15.2 71.3 C 16.3 72.6 18.3 74.1 19.4 74.6 C 18.5 73.6 16.0 71.6 15.2 71.3 C 15.2 71.3 15.2 71.3 15.2 71.3 Z M 6.8 59.7 C 7.3 62.0 10.0 65.9 8.2 62.1 C 8.1 62.3 6.8 59.8 6.6 58.6 C 6.4 58.6 5.9 57.3 6.0 57.2 C 5.6 56.3 6.8 60.3 6.8 59.7 C 6.8 59.7 6.8 59.7 6.8 59.7 Z M 21.5 75.5 C 20.7 75.1 21.4 76.1 20.3 75.2 C 19.6 74.7 20.4 75.4 20.2 75.4 C 21.6 76.4 25.1 78.2 25.2 78.6 C 26.1 79.0 26.4 79.0 28.1 79.9 C 28.2 79.9 22.3 76.8 21.4 75.6 C 21.6 75.6 23.5 76.8 21.5 75.5 C 21.5 75.5 21.5 75.5 21.5 75.5 Z M 68.8 12.5 C 68.9 12.3 66.9 12.9 67.3 12.5 C 66.2 13.0 65.1 13.1 63.9 13.6 C 63.5 13.6 63.6 13.2 61.9 13.6 C 61.9 13.8 62.7 13.6 62.0 13.9 C 60.4 14.3 60.8 14.0 59.0 14.5 C 59.4 14.8 55.4 15.6 55.8 15.9 C 56.7 15.6 56.6 15.4 58.2 15.1 C 58.7 14.9 58.5 15.1 59.1 15.0 C 58.7 15.3 57.9 15.2 57.3 15.6 C 57.5 15.7 58.6 15.4 58.8 15.5 C 59.5 15.3 58.6 15.4 58.7 15.3 C 60.6 14.7 58.7 15.8 60.7 15.2 C 60.3 15.1 60.3 15.1 60.6 14.8 C 61.4 14.7 63.9 13.9 62.6 14.5 C 62.8 14.6 64.2 14.0 64.0 13.9 C 64.8 13.7 64.9 13.8 65.0 13.8 C 67.1 13.3 67.3 13.0 66.8 12.8 C 67.2 12.5 67.6 12.9 68.8 12.5 C 68.8 12.5 68.8 12.5 68.8 12.5 Z M 6.2 48.2 C 6.3 47.3 6.0 49.2 5.8 50.0 C 6.0 49.0 6.3 49.4 6.6 48.3 C 6.4 48.7 6.4 48.6 6.6 47.9 C 6.5 47.7 6.0 49.2 6.2 48.2 C 6.2 48.2 6.2 48.2 6.2 48.2 Z M 31.7 81.8 C 32.3 82.3 35.7 83.7 37.5 84.5 C 37.3 84.0 32.8 82.5 32.4 81.9 C 31.4 81.5 32.9 82.3 31.7 81.8 C 31.7 81.8 31.7 81.8 31.7 81.8 Z M 50.6 16.9 C 50.2 17.1 50.4 17.1 50.7 17.0 C 50.6 17.1 49.6 17.4 48.9 17.7 C 49.9 17.5 48.7 17.9 49.0 18.1 C 48.5 18.3 48.3 18.4 48.2 18.5 C 48.0 18.1 45.5 19.6 48.3 18.8 C 47.7 18.7 47.9 18.7 49.1 18.2 C 50.4 18.0 51.3 17.4 51.9 17.6 C 52.7 17.3 53.0 17.0 54.1 16.7 C 54.4 16.8 55.5 16.6 54.7 17.2 C 56.7 16.6 55.2 16.4 56.9 15.9 C 58.5 15.6 56.1 16.4 56.6 16.5 C 57.0 16.4 56.9 16.5 57.1 16.5 C 57.6 16.3 57.6 16.1 57.0 16.3 C 57.1 16.2 58.7 15.5 58.4 15.9 C 59.3 15.6 56.7 15.6 55.5 16.2 C 54.7 16.5 54.6 16.0 55.3 15.9 C 55.0 15.7 53.6 16.7 53.9 16.1 C 53.3 16.3 52.7 16.5 52.1 16.7 C 52.2 16.7 52.5 16.6 52.6 16.7 C 52.0 16.8 51.4 17.0 50.7 17.2 C 51.2 17.0 51.2 16.9 50.6 16.9 C 50.6 16.9 50.6 16.9 50.6 16.9 Z M 24.3 77.7 C 25.6 78.5 26.0 78.6 27.1 79.1 C 26.8 78.7 23.8 77.1 24.3 77.7 C 24.3 77.7 24.3 77.7 24.3 77.7 Z M 77.6 11.5 C 77.4 11.5 76.5 11.6 76.5 11.5 C 78.1 11.2 76.3 11.4 77.5 10.7 C 75.4 11.3 74.8 12.0 77.6 11.7 C 79.6 11.3 75.5 11.9 77.6 11.5 C 77.6 11.5 77.6 11.5 77.6 11.5 Z M 71.4 12.5 C 70.2 12.9 73.3 12.4 74.0 12.3 C 74.1 12.4 74.1 12.5 74.1 12.6 C 75.7 11.9 73.4 12.2 74.9 11.4 C 72.9 11.7 72.0 11.8 70.4 12.3 C 70.5 12.3 70.9 12.2 70.8 12.2 C 72.1 11.9 71.3 12.4 69.9 12.6 C 70.3 12.6 71.6 12.4 72.4 12.2 C 72.2 12.2 71.9 12.2 71.9 12.1 C 73.0 11.8 72.6 12.1 73.4 12.0 C 73.4 12.1 71.5 12.7 71.4 12.5 C 71.4 12.5 71.4 12.5 71.4 12.5 Z M 178.1 9.9 C 177.1 9.8 179.2 10.4 179.0 10.8 C 180.2 11.0 180.4 10.9 181.1 11.0 C 180.8 10.8 179.6 10.6 179.1 10.4 C 179.4 10.1 180.7 10.7 181.2 10.6 C 181.9 10.3 178.5 10.3 178.1 9.9 C 178.1 9.9 178.1 9.9 178.1 9.9 Z M 24.9 28.4 C 24.3 28.8 24.7 28.7 24.9 28.5 C 24.9 28.7 23.9 29.2 23.9 29.1 C 23.1 29.6 24.4 29.0 23.5 29.6 C 23.4 29.8 24.9 28.7 25.0 28.6 C 26.1 27.9 25.4 28.7 25.7 28.6 C 26.8 28.0 26.3 28.0 27.8 27.2 C 26.8 27.6 26.0 27.9 24.9 28.4 C 24.9 28.4 24.9 28.4 24.9 28.4 Z M 81.1 10.4 C 81.3 10.3 79.9 11.0 78.5 11.0 C 76.7 11.3 79.7 11.1 78.1 11.3 C 79.4 11.2 81.1 10.7 83.2 10.3 C 83.7 10.1 80.2 10.8 82.2 10.3 C 82.0 10.3 81.6 10.4 81.6 10.4 C 81.2 10.5 81.1 10.5 81.1 10.4 C 81.1 10.4 81.1 10.4 81.1 10.4 Z M 79.1 11.3 C 79.2 11.4 79.7 11.3 79.7 11.2 C 80.3 11.1 80.4 11.4 79.7 11.5 C 80.6 11.6 80.5 11.1 82.3 11.0 C 81.5 10.9 81.1 10.8 82.7 10.7 C 84.0 10.3 79.7 11.1 79.1 11.3 C 79.1 11.3 79.1 11.3 79.1 11.3 Z M 161.0 8.0 C 161.2 8.1 162.3 8.2 163.2 8.3 C 162.1 8.4 157.7 7.9 157.2 7.7 C 156.7 7.7 156.2 7.7 156.1 7.6 C 156.1 7.6 154.9 7.7 155.5 7.8 C 155.4 7.8 154.5 7.7 154.4 7.9 C 152.8 7.7 154.9 7.7 154.5 7.5 C 152.5 7.6 152.9 7.5 150.6 7.3 C 151.0 7.5 153.5 7.6 153.3 7.9 C 155.1 7.8 157.1 8.1 158.2 8.5 C 156.5 8.0 162.9 8.3 165.9 8.7 C 165.7 8.9 166.8 8.9 168.0 9.2 C 168.8 9.5 168.6 9.0 166.9 8.9 C 167.0 8.7 169.2 9.1 170.1 9.2 C 169.1 8.9 169.7 8.9 169.1 8.8 C 167.0 8.5 168.9 8.8 168.5 8.9 C 168.0 8.9 167.5 8.8 166.9 8.8 C 169.8 8.7 162.8 8.3 165.3 8.5 C 163.1 8.3 163.1 8.0 161.0 8.0 C 161.0 8.0 161.0 8.0 161.0 8.0 Z M 109.0 7.3 C 108.6 7.3 106.9 7.6 106.8 7.4 C 104.6 7.8 106.6 7.8 104.1 8.0 C 104.3 8.1 105.2 8.0 105.2 8.1 C 106.2 8.0 107.1 7.8 106.8 7.6 C 108.0 7.5 108.3 7.4 109.0 7.3 C 108.8 7.5 108.3 7.6 107.4 7.6 C 107.2 7.8 107.6 8.0 109.1 7.8 C 109.7 7.6 109.2 7.4 109.0 7.3 C 109.0 7.3 109.0 7.3 109.0 7.3 Z M 103.5 8.0 C 103.3 8.0 102.9 7.9 103.0 7.8 C 102.2 7.6 102.7 8.1 101.9 8.2 C 101.3 8.3 101.5 8.1 101.4 8.0 C 100.4 8.2 99.7 8.3 99.2 8.2 C 97.7 8.5 100.9 8.3 101.4 8.4 C 102.4 8.3 102.1 8.1 103.5 8.0 C 103.5 8.0 103.5 8.0 103.5 8.0 Z M 87.4 9.6 C 87.1 9.4 86.6 9.8 85.8 9.9 C 86.4 10.0 87.9 9.7 86.9 10.1 C 88.5 10.0 88.6 9.9 90.1 9.7 C 91.1 9.8 90.1 9.5 88.5 9.8 C 88.7 9.7 89.4 9.6 89.5 9.4 C 90.6 9.8 93.2 8.7 91.7 9.2 C 91.2 9.2 90.9 9.2 90.6 9.1 C 90.2 9.4 86.6 9.8 87.4 9.6 C 87.4 9.6 87.4 9.6 87.4 9.6 Z M 37.7 22.6 C 39.1 22.0 39.8 21.7 40.5 21.4 C 41.2 21.1 42.2 20.7 43.0 20.5 C 43.1 20.5 43.0 20.6 42.7 20.8 C 43.1 20.7 43.6 20.5 44.4 20.1 C 44.3 20.1 43.9 20.3 43.9 20.3 C 42.5 20.6 43.7 20.2 43.8 19.9 C 42.1 20.4 39.6 21.8 38.3 22.0 C 37.3 22.5 38.5 22.0 37.7 22.6 C 37.7 22.6 37.7 22.6 37.7 22.6 Z M 254.0 59.9 C 254.0 60.1 253.8 60.7 254.0 60.7 C 254.1 60.2 254.2 59.8 254.4 59.3 C 253.9 60.2 253.7 59.9 253.1 61.1 C 253.4 60.8 253.6 61.0 254.0 59.9 C 254.0 59.9 254.0 59.9 254.0 59.9 Z M 92.7 8.9 C 92.8 9.1 92.9 9.2 92.2 9.2 C 92.0 9.5 93.8 9.2 93.8 9.3 C 94.4 9.2 94.2 9.1 94.9 9.0 C 94.6 8.9 93.2 9.1 93.8 8.8 C 94.2 8.8 94.3 8.8 94.4 8.8 C 95.4 8.6 93.8 8.7 92.7 8.9 C 92.7 8.9 92.7 8.9 92.7 8.9 Z M 183.3 11.0 C 182.6 10.9 183.2 11.1 183.8 11.2 C 182.2 11.2 184.6 11.8 184.7 12.0 C 184.1 11.7 182.0 11.5 181.6 11.4 C 181.0 11.3 181.7 11.6 180.0 11.4 C 180.2 11.7 182.0 11.8 181.6 11.5 C 182.0 11.9 183.8 11.8 183.6 12.1 C 185.9 12.6 186.5 12.5 186.7 12.3 C 184.5 12.0 185.7 11.7 183.7 11.5 C 183.8 11.4 184.4 11.5 184.8 11.6 C 184.6 11.4 183.8 11.2 183.3 11.0 C 183.3 11.0 183.3 11.0 183.3 11.0 Z M 126.7 6.7 C 125.5 6.8 125.6 7.0 125.6 7.1 C 126.1 7.1 126.9 7.0 127.8 7.0 C 127.6 6.9 126.1 7.0 126.7 6.7 C 126.7 6.7 126.7 6.7 126.7 6.7 Z M 174.9 10.0 C 174.8 9.9 174.4 9.9 174.4 9.9 C 173.0 9.8 172.7 9.6 172.3 9.4 C 171.5 9.3 171.8 9.5 171.7 9.7 C 173.0 9.6 172.7 9.9 174.3 10.1 C 174.2 10.0 174.5 10.0 174.9 10.0 C 174.9 10.0 174.9 10.0 174.9 10.0 Z M 138.4 6.9 C 137.8 6.9 138.1 7.0 138.4 7.0 C 137.6 7.3 135.4 7.0 134.5 7.1 C 134.4 7.3 137.2 7.3 134.0 7.4 C 134.5 7.5 137.5 7.4 138.9 7.5 C 138.6 7.7 136.6 7.7 136.7 8.0 C 138.4 7.8 140.3 7.8 140.6 7.4 C 138.1 7.3 139.0 7.1 138.4 6.9 C 138.4 6.9 138.4 6.9 138.4 6.9 Z M 141.2 7.2 C 140.9 7.1 140.5 7.2 139.5 7.1 C 140.9 7.5 141.7 7.4 144.5 7.5 C 144.5 7.5 144.5 7.4 144.5 7.4 C 145.0 7.4 145.6 7.4 146.2 7.4 C 143.8 7.1 143.2 7.2 140.6 7.2 C 140.5 7.2 140.8 7.2 141.2 7.2 C 141.2 7.2 141.2 7.2 141.2 7.2 Z M 69.0 13.2 C 69.7 13.2 70.3 13.2 71.5 13.0 C 71.4 12.8 70.6 12.8 69.0 13.2 C 69.0 13.2 69.0 13.2 69.0 13.2 Z M 177.0 10.5 C 178.4 10.5 175.6 10.3 176.4 10.6 C 177.5 10.9 178.7 11.2 178.9 11.4 C 181.1 11.4 176.7 10.7 177.0 10.5 C 177.0 10.5 177.0 10.5 177.0 10.5 Z M 167.4 9.8 C 166.8 9.7 166.8 9.3 167.4 9.6 C 168.9 9.8 166.1 9.2 168.5 9.6 C 167.5 9.4 165.2 9.0 164.2 9.0 C 164.2 9.2 166.3 9.4 166.3 9.6 C 166.4 9.6 166.1 9.6 165.8 9.6 C 166.0 9.7 166.4 9.6 167.4 9.8 C 167.4 9.8 167.4 9.8 167.4 9.8 Z M 159.3 8.6 C 160.2 8.8 161.3 9.0 163.1 9.2 C 161.9 8.9 161.2 8.6 159.3 8.6 C 159.3 8.6 159.3 8.6 159.3 8.6 Z M 251.1 42.3 C 250.5 41.5 250.8 42.4 250.8 42.5 C 251.3 43.3 251.4 43.2 251.9 44.1 C 252.0 43.7 251.2 43.0 251.1 42.3 C 251.1 42.3 251.1 42.3 251.1 42.3 Z M 252.6 45.3 C 252.5 45.5 253.1 46.6 253.0 46.7 C 253.7 47.2 253.3 48.5 253.6 48.3 C 253.7 48.6 253.7 48.8 253.8 49.3 C 254.0 48.3 253.1 46.3 252.6 45.3 C 252.6 45.3 252.6 45.3 252.6 45.3 Z M 150.0 8.4 C 148.5 8.2 150.4 8.8 148.9 8.6 C 148.7 8.7 151.6 8.9 149.9 8.9 C 152.2 9.2 149.8 8.4 150.0 8.4 C 150.0 8.4 150.0 8.4 150.0 8.4 Z M 122.9 8.2 C 123.0 8.0 120.9 8.2 120.1 8.2 C 120.1 8.2 120.8 8.2 121.2 8.2 C 121.0 8.3 120.7 8.4 120.1 8.4 C 120.6 8.6 122.1 8.2 122.9 8.2 C 122.9 8.2 122.9 8.2 122.9 8.2 Z M 153.0 4.4 C 153.9 4.7 155.1 5.0 155.8 4.7 C 156.7 4.9 155.1 4.9 156.3 5.1 C 157.8 5.1 157.1 5.3 159.6 5.4 C 159.1 5.6 160.9 5.8 161.2 6.0 C 160.2 5.9 158.9 5.6 158.4 5.8 C 159.3 5.8 158.8 6.0 158.4 5.8 C 156.8 5.6 160.5 5.7 158.5 5.3 C 157.8 5.6 154.9 4.8 153.0 4.7 C 153.8 4.6 151.5 4.3 153.0 4.4 C 153.0 4.4 153.0 4.4 153.0 4.4 Z M 162.9 5.7 C 164.2 5.8 164.8 6.4 164.5 6.3 C 164.5 6.2 163.0 6.1 162.8 6.1 C 163.2 6.2 163.5 6.2 163.4 6.3 C 160.9 6.0 161.8 5.9 161.2 5.7 C 162.6 5.7 162.9 5.9 163.4 5.8 C 163.1 5.8 162.8 5.7 162.9 5.7 C 162.9 5.7 162.9 5.7 162.9 5.7 Z M 190.1 13.7 C 189.9 13.5 189.6 13.7 189.1 13.6 C 189.1 13.2 186.4 13.2 186.1 13.0 C 186.7 13.0 188.0 13.2 188.7 13.2 C 188.0 13.0 187.8 12.9 187.1 12.9 C 187.3 12.7 188.8 13.0 189.2 12.9 C 189.3 13.1 190.1 13.0 190.2 13.2 C 188.3 12.9 191.2 14.0 190.1 13.7 C 190.1 13.7 190.1 13.7 190.1 13.7 Z M 137.3 8.2 C 137.1 8.4 139.4 9.1 137.3 9.3 C 136.8 9.1 136.5 8.9 136.7 8.6 C 135.3 8.7 134.8 8.5 133.9 8.7 C 131.4 8.0 135.9 8.8 137.3 8.2 C 137.3 8.2 137.3 8.2 137.3 8.2 Z M 128.4 8.4 C 128.9 8.2 127.6 8.2 127.8 8.0 C 128.9 8.2 132.4 7.9 131.2 8.1 C 130.1 8.1 130.1 8.4 128.4 8.4 C 128.4 8.4 128.4 8.4 128.4 8.4 Z M 62.1 92.0 C 60.5 91.8 59.8 91.2 60.8 91.3 C 60.3 91.5 62.7 91.9 62.1 92.0 C 62.1 92.0 62.1 92.0 62.1 92.0 Z M 5.3 64.6 C 5.8 65.9 6.4 66.5 6.3 66.7 C 5.5 65.7 5.8 65.7 5.2 64.7 C 5.0 64.7 4.6 64.1 4.7 64.0 C 5.0 64.5 5.0 64.3 5.3 64.6 C 5.3 64.6 5.3 64.6 5.3 64.6 Z M 94.4 4.7 C 94.3 4.6 93.6 4.7 93.9 4.5 C 95.5 4.4 97.4 4.0 98.7 3.7 C 98.7 3.8 98.8 3.9 98.8 4.0 C 96.1 4.2 95.5 4.5 94.4 4.7 C 94.4 4.7 94.4 4.7 94.4 4.7 Z M 91.1 4.6 C 90.8 4.8 91.8 5.0 90.6 5.1 C 90.6 4.9 88.5 4.9 89.5 4.8 C 89.8 4.9 90.4 4.8 91.1 4.6 C 91.1 4.6 91.1 4.6 91.1 4.6 Z M 183.8 7.8 C 185.1 8.0 183.3 7.5 183.4 7.4 C 184.3 7.6 185.5 7.9 185.9 8.0 C 185.0 7.9 184.3 8.1 183.8 7.8 C 183.8 7.8 183.8 7.8 183.8 7.8 Z M 164.0 5.7 C 161.2 5.4 162.4 5.1 159.6 4.8 C 160.8 4.8 163.3 5.0 164.1 4.9 C 163.9 5.0 164.6 5.1 164.6 5.3 C 163.5 5.2 163.4 5.1 162.4 5.0 C 162.7 5.3 162.7 5.2 162.3 5.4 C 163.1 5.5 163.6 5.5 164.0 5.5 C 163.8 5.6 164.8 5.7 164.0 5.7 C 164.0 5.7 164.0 5.7 164.0 5.7 Z M 183.2 8.4 C 184.3 8.5 185.1 9.0 184.2 8.8 C 184.1 8.6 183.3 8.7 183.2 8.5 C 184.7 8.7 182.0 8.2 182.7 8.1 C 183.6 8.3 183.9 8.3 183.8 8.1 C 184.4 8.2 185.3 8.3 185.3 8.4 C 184.9 8.4 184.3 8.2 184.3 8.3 C 184.6 8.4 184.9 8.4 184.8 8.5 C 183.9 8.3 183.5 8.3 183.2 8.4 C 183.2 8.4 183.2 8.4 183.2 8.4 Z M 175.8 7.2 C 177.3 7.5 177.4 7.7 177.9 7.9 C 176.0 7.6 175.7 7.2 174.3 6.8 C 175.9 7.1 177.5 7.1 178.0 7.3 C 177.3 7.3 176.0 7.1 175.8 7.2 C 175.8 7.2 175.8 7.2 175.8 7.2 Z M 200.9 93.4 C 199.7 93.6 198.7 93.7 197.4 93.9 C 197.0 94.2 199.5 94.1 198.5 94.2 C 197.2 94.5 198.0 94.0 196.9 94.2 C 198.1 94.3 192.3 95.6 192.0 95.3 C 192.9 95.1 193.1 95.0 192.9 94.9 C 195.3 94.4 196.1 94.0 197.8 93.5 C 199.1 93.5 202.8 92.7 204.6 91.9 C 205.9 92.0 208.0 90.9 209.8 90.7 C 210.2 90.4 208.4 90.9 209.7 90.4 C 210.7 90.4 210.0 90.7 211.3 90.4 C 211.3 90.3 211.0 90.2 211.6 90.0 C 211.6 90.2 212.3 90.0 212.6 89.9 C 210.1 90.7 212.9 90.2 210.9 90.9 C 210.1 91.0 211.6 90.2 209.4 90.9 C 208.6 91.2 207.8 91.5 208.1 91.7 C 207.5 91.9 207.1 92.1 206.7 92.2 C 207.5 91.7 203.5 93.2 205.3 92.4 C 205.4 92.3 206.7 92.0 207.6 91.6 C 206.7 91.6 205.7 92.1 204.3 92.6 C 203.6 92.5 204.5 92.2 203.7 92.4 C 202.6 92.8 204.2 92.6 203.4 93.0 C 203.7 92.9 204.3 92.7 204.3 92.8 C 202.3 93.1 201.5 93.6 200.5 93.8 C 201.1 93.5 199.2 93.9 200.9 93.4 C 200.9 93.4 200.9 93.4 200.9 93.4 Z M 217.5 88.1 C 217.9 88.0 218.3 87.8 218.8 87.7 C 218.9 87.9 217.3 88.5 218.5 88.3 C 216.6 88.9 218.5 88.0 217.5 88.1 C 217.5 88.1 217.5 88.1 217.5 88.1 Z M 208.2 90.2 C 207.4 90.2 208.0 90.6 207.3 90.8 C 208.5 90.4 209.5 90.0 209.7 90.3 C 208.4 90.6 207.8 90.7 206.4 91.2 C 207.7 90.5 204.9 91.4 204.4 91.2 C 205.4 90.9 206.2 90.5 207.6 90.1 C 207.4 90.3 209.5 89.8 208.2 90.2 C 208.2 90.2 208.2 90.2 208.2 90.2 Z M 211.8 88.8 C 212.1 88.9 214.0 88.1 213.6 88.5 C 212.5 88.8 212.0 89.1 212.4 89.2 C 211.5 89.5 211.3 89.4 210.5 89.7 C 209.9 89.5 211.4 89.1 211.8 88.9 C 211.5 88.9 211.2 89.0 211.8 88.8 C 211.8 88.8 211.8 88.8 211.8 88.8 Z M 248.3 67.2 C 248.8 67.1 247.4 68.3 247.1 68.5 C 247.6 68.3 247.5 68.6 246.7 69.5 C 246.8 68.9 245.6 70.2 244.5 70.7 C 244.4 71.1 245.6 70.2 244.3 71.3 C 243.3 72.1 242.4 73.0 240.6 74.3 C 240.0 74.3 240.8 73.7 241.2 73.3 C 240.1 74.2 240.3 73.8 239.3 74.5 C 239.6 74.4 238.8 75.0 238.4 75.1 C 240.1 74.0 236.0 76.3 237.7 75.1 C 237.9 75.1 238.3 74.8 238.7 74.5 C 238.4 75.1 240.6 73.5 241.2 73.3 C 241.7 72.2 244.0 70.7 246.2 68.9 C 246.4 68.9 245.8 69.6 246.4 69.1 C 246.3 69.0 247.0 68.4 247.3 68.0 C 247.3 68.1 247.6 67.9 248.0 67.5 C 248.0 67.5 248.0 67.4 248.3 67.2 C 248.3 67.2 248.3 67.2 248.3 67.2 Z M 112.5 98.2 C 112.6 97.8 109.1 97.8 108.1 97.9 C 108.3 97.4 114.5 97.9 112.5 98.2 C 112.5 98.2 112.5 98.2 112.5 98.2 Z M 134.1 98.4 C 133.2 98.4 133.8 98.6 133.0 98.7 C 133.0 98.4 130.9 98.9 130.8 98.7 C 131.8 98.4 132.5 98.5 134.1 98.4 C 134.1 98.4 134.1 98.4 134.1 98.4 Z M 154.0 97.7 C 152.4 97.9 154.9 97.8 154.6 97.9 C 153.2 98.0 151.8 98.1 151.8 97.8 C 153.1 97.9 153.9 97.5 154.0 97.7 C 154.0 97.7 154.0 97.7 154.0 97.7 Z M 124.2 98.1 C 122.8 98.0 125.0 97.7 125.2 97.9 C 123.8 97.9 126.2 98.1 127.5 98.1 C 127.4 98.4 126.9 98.3 127.5 98.6 C 125.5 98.7 127.1 98.3 125.8 98.3 C 124.9 98.4 125.8 98.4 125.8 98.6 C 125.2 98.6 124.7 98.6 124.2 98.6 C 124.2 98.5 124.2 98.3 124.2 98.2 C 124.8 98.2 125.5 98.2 125.2 98.0 C 124.7 98.0 124.6 98.1 124.2 98.1 C 124.2 98.1 124.2 98.1 124.2 98.1 Z M 222.5 82.8 C 221.4 83.3 222.4 83.0 223.2 82.7 C 223.3 82.5 223.8 81.8 225.1 81.5 C 222.6 82.8 226.0 81.5 224.6 82.2 C 224.0 82.3 222.5 83.2 221.2 83.7 C 220.6 83.7 221.8 82.8 222.5 82.8 C 222.5 82.8 222.5 82.8 222.5 82.8 Z M 227.1 81.0 C 227.0 81.0 226.6 81.1 225.8 81.5 C 226.5 80.9 225.4 81.4 226.4 80.9 C 226.3 81.0 229.6 79.6 227.7 80.5 C 225.9 81.2 228.2 80.4 229.0 80.1 C 228.2 80.5 226.8 81.4 226.5 81.3 C 226.9 81.1 227.3 81.0 227.1 81.0 C 227.1 81.0 227.1 81.0 227.1 81.0 Z M 252.3 60.3 C 252.2 60.1 251.9 60.7 251.7 60.8 C 252.6 59.3 253.0 57.9 253.3 57.1 C 253.1 57.8 253.3 57.9 253.5 57.5 C 253.2 58.3 253.2 58.5 253.0 58.7 C 253.1 58.0 252.7 59.3 252.3 60.3 C 252.3 60.3 252.3 60.3 252.3 60.3 Z M 252.3 60.3 " fill="#000000"></path><image xlink:href="../../DA20E8C4-59DB-4817-A6D8-BA617C8D950F/assets/D5178D66195BC9E5B5D5A5906EB727D3.png" width="94.00" height="52.00" transform="matrix(1.00, 0.00, -0.00, -1.00, 86.0, 69.0)"></image><g><clipPath id="clip-182"><path d="M 5.5 100.1 L 256.5 100.1 L 256.5 5.9 L 5.5 5.9 Z M 5.5 100.1 "></path></clipPath><g clip-path="url(#clip-182)"><text xml:space="preserve" font-family="Chalkduster" font-size="30.0" fill="#000000" transform="matrix(1.00, 0.00, -0.00, -1.00, 88.8, 40.4)">t</text><text xml:space="preserve" font-family="Chalkduster" font-size="30.0" fill="#000000" transform="matrix(1.00, 0.00, -0.00, -1.00, 102.5, 40.4)">u</text><text xml:space="preserve" font-family="Chalkduster" font-size="30.0" fill="#000000" transform="matrix(1.00, 0.00, -0.00, -1.00, 123.6, 40.4)">p</text><text xml:space="preserve" font-family="Chalkduster" font-size="30.0" fill="#000000" transform="matrix(1.00, 0.00, -0.00, -1.00, 142.1, 40.4)">l</text><text xml:space="preserve" font-family="Chalkduster" font-size="30.0" fill="#000000" transform="matrix(1.00, 0.00, -0.00, -1.00, 154.6, 40.4)">e</text></g></g></g></svg>