<?xml version="1.0" encoding="UTF-8" standalone="no"?><svg xmlns="http://www.w3.org/2000/svg" xmlns:xlink="http://www.w3.org/1999/xlink" clip-rule="evenodd" stroke-miterlimit="4.00" viewBox="0 0 198 66"><desc>SVG generated by Keynote</desc><defs></defs><g transform="matrix(1.00, 0.00, -0.00, -1.00, 0.0, 66.0)"><path d="M 165.1 52.1 C 201.6 41.3 201.6 23.9 165.1 13.2 C 128.6 2.5 69.4 2.5 32.9 13.2 C -3.7 23.9 -3.7 41.3 32.9 52.1 C 69.4 62.8 128.6 62.8 165.1 52.1 Z M 165.1 52.1 " fill="#A8E685"></path><path d="M 49.4 5.4 C 49.2 5.5 48.8 5.6 48.4 5.6 C 48.6 5.7 48.8 5.7 48.8 5.8 C 49.2 5.7 49.7 5.5 50.6 5.4 C 50.5 5.3 50.1 5.4 49.8 5.5 C 49.5 5.5 49.5 5.4 49.4 5.4 C 49.4 5.4 49.4 5.4 49.4 5.4 Z M 46.2 58.7 C 45.5 58.6 46.2 59.0 46.5 59.0 C 46.5 59.0 46.6 59.0 46.8 59.0 C 46.9 59.2 46.2 59.2 45.8 59.1 C 43.8 58.6 45.3 58.5 46.2 58.7 C 46.2 58.7 46.2 58.7 46.2 58.7 Z M 150.5 58.8 C 152.1 58.5 150.3 58.6 150.1 58.6 C 150.8 58.4 150.1 58.1 151.1 57.9 C 151.3 58.0 151.6 58.0 151.8 58.1 C 151.4 58.2 150.8 58.2 150.8 58.3 C 151.3 58.3 152.1 58.1 152.2 58.1 C 151.0 58.4 152.0 58.4 152.3 58.5 C 151.2 58.7 150.9 59.0 150.5 58.8 C 150.5 58.8 150.5 58.8 150.5 58.8 Z M 173.2 13.1 C 173.8 13.3 174.3 13.5 174.2 13.6 C 173.5 13.3 173.0 13.1 172.6 12.9 C 172.5 13.0 172.7 13.2 172.1 13.0 C 171.4 12.5 171.9 12.4 172.3 12.4 C 172.3 12.6 174.6 13.4 173.2 13.1 C 173.2 13.1 173.2 13.1 173.2 13.1 Z M 130.4 4.4 C 128.9 4.2 130.3 4.8 128.8 4.5 C 128.9 4.3 128.7 4.0 129.6 4.1 C 129.7 4.2 130.3 4.3 130.4 4.4 C 130.4 4.4 130.4 4.4 130.4 4.4 Z M 106.7 61.4 C 106.7 61.5 107.8 61.4 107.6 61.7 C 107.0 61.7 106.5 61.7 106.0 61.7 C 105.8 61.5 106.0 61.4 106.7 61.4 C 106.7 61.4 106.7 61.4 106.7 61.4 Z M 160.2 54.3 C 161.8 54.2 163.2 53.4 162.8 53.7 C 163.5 53.8 162.0 54.7 162.0 54.4 C 161.8 54.2 159.1 54.6 160.2 54.3 C 160.2 54.3 160.2 54.3 160.2 54.3 Z M 55.2 56.1 C 56.9 56.6 56.6 55.8 57.7 56.3 C 57.3 56.3 57.1 56.3 57.0 56.4 C 57.3 56.4 57.7 56.5 57.7 56.5 C 56.8 56.5 55.8 56.4 55.2 56.1 C 55.2 56.1 55.2 56.1 55.2 56.1 Z M 75.4 2.7 C 75.7 2.7 75.9 2.6 75.8 2.5 C 77.1 2.5 77.0 2.3 77.8 2.4 C 77.9 2.7 76.8 2.6 75.8 2.7 C 75.8 2.7 75.5 2.8 75.4 2.7 C 75.4 2.7 75.4 2.7 75.4 2.7 Z M 111.0 2.9 C 110.9 2.7 110.2 2.7 111.4 2.6 C 112.7 3.0 111.5 3.1 110.1 3.2 C 110.1 3.3 110.1 3.4 110.1 3.5 C 110.7 3.6 111.0 3.6 111.3 3.7 C 111.6 3.3 112.5 4.0 114.5 3.9 C 113.6 4.0 114.6 4.3 113.3 4.1 C 113.7 4.4 112.8 4.3 112.9 4.5 C 113.5 4.4 114.8 4.5 114.5 4.2 C 115.2 4.2 115.8 4.3 116.1 4.4 C 116.6 4.7 114.8 4.4 115.3 4.6 C 115.7 4.7 115.8 4.7 116.1 4.8 C 116.2 4.7 116.0 4.5 116.5 4.5 C 117.8 4.7 116.3 4.8 118.1 5.0 C 118.2 4.8 117.7 4.8 117.7 4.6 C 118.5 4.5 118.5 4.7 119.3 4.6 C 119.4 4.8 118.7 4.8 119.3 4.9 C 119.8 4.5 120.9 5.2 122.1 5.0 C 121.3 4.4 122.2 5.1 123.3 4.7 C 123.5 4.8 122.7 5.1 123.6 5.2 C 123.4 4.5 126.9 5.0 124.1 4.3 C 125.6 4.4 126.1 3.9 124.9 3.8 C 127.5 4.1 126.7 3.7 127.7 3.8 C 128.7 3.9 127.2 3.9 127.7 4.1 C 126.6 4.0 126.9 4.2 126.1 4.0 C 126.1 4.1 125.9 4.1 125.7 4.2 C 126.8 4.1 128.0 4.6 127.2 4.8 C 126.7 4.7 127.2 4.5 126.5 4.4 C 126.7 4.8 125.7 4.3 125.7 4.5 C 126.1 4.8 124.6 5.0 126.0 5.2 C 126.0 5.0 126.0 4.9 126.0 4.8 C 126.4 4.8 126.8 4.8 127.2 4.9 C 127.5 5.1 127.2 5.3 127.6 5.4 C 128.2 5.4 128.6 5.4 128.8 5.3 C 128.0 5.2 127.0 4.9 128.4 5.0 C 127.8 5.4 130.2 5.3 129.1 5.4 C 130.5 5.7 131.3 5.4 131.4 5.8 C 132.2 5.8 131.7 5.5 132.6 5.7 C 134.0 6.0 133.8 5.7 135.6 6.1 C 135.9 5.7 135.8 6.2 136.4 6.3 C 136.4 6.1 136.4 6.0 136.4 5.9 C 137.1 6.2 138.6 6.5 140.2 6.5 C 140.6 6.6 140.2 6.8 141.3 6.9 C 142.4 6.7 143.6 7.3 144.9 7.1 C 145.0 7.3 145.9 7.5 146.4 7.4 C 146.6 7.6 145.9 7.8 146.7 7.9 C 147.3 7.8 146.3 7.5 147.5 7.6 C 147.3 7.9 148.6 7.6 148.5 7.9 C 148.2 7.9 147.8 7.9 147.4 7.9 C 147.9 8.0 147.7 8.1 148.1 8.2 C 148.1 7.9 148.9 8.3 149.2 8.4 C 149.2 8.3 149.3 8.2 149.6 8.2 C 150.2 8.3 150.7 8.4 151.0 8.4 C 151.8 8.6 150.5 8.5 151.3 8.7 C 151.8 8.1 152.5 9.0 154.1 8.9 C 154.5 9.2 155.1 9.4 156.1 9.7 C 156.3 9.5 155.2 9.4 155.2 9.2 C 156.6 9.6 154.9 9.0 155.9 9.2 C 158.0 9.8 159.3 10.2 161.4 10.9 C 161.4 10.7 163.1 11.0 163.1 11.1 C 162.6 11.0 163.9 11.6 164.6 11.9 C 164.9 11.5 166.4 11.6 166.5 11.4 C 166.9 11.7 166.8 11.7 166.9 12.1 C 169.0 12.9 170.1 12.9 171.2 13.7 C 171.2 13.5 172.1 13.8 172.9 14.0 C 172.6 14.1 172.1 14.1 171.7 14.0 C 172.7 14.4 172.8 14.5 173.7 14.9 C 174.8 14.6 175.8 15.9 176.7 15.6 C 178.0 16.1 177.7 16.3 178.8 16.8 C 178.8 16.6 179.0 16.6 179.4 16.7 C 178.6 16.4 177.9 16.3 177.6 15.9 C 179.4 16.6 174.6 13.8 177.6 14.8 C 177.6 15.0 177.3 15.0 177.9 15.3 C 179.5 15.9 178.7 15.3 178.0 15.0 C 179.2 15.4 180.2 16.0 179.5 15.3 C 181.9 16.4 180.3 15.9 181.1 16.4 C 185.3 18.3 189.6 21.0 192.2 24.7 C 192.5 24.6 193.6 26.7 193.7 27.4 C 194.5 28.3 194.9 29.5 194.7 29.9 C 195.0 30.1 194.8 31.3 195.0 31.4 C 195.0 30.9 195.0 30.6 195.2 31.1 C 195.3 32.7 194.8 35.1 194.7 36.1 C 194.2 36.6 193.9 37.6 193.7 38.3 C 193.5 38.4 193.7 37.8 193.5 38.2 C 193.5 38.4 192.8 39.9 192.4 40.1 C 192.8 39.8 192.8 39.1 192.3 39.7 C 192.5 39.8 191.9 40.5 192.2 40.4 C 191.5 41.2 191.1 41.8 190.4 42.4 C 190.9 41.8 191.1 41.4 191.1 41.2 C 190.7 41.7 190.5 42.2 189.9 42.4 C 190.3 42.5 189.3 43.1 188.5 44.0 C 188.2 44.1 187.9 44.2 187.2 44.8 C 186.9 45.2 188.5 44.0 187.7 44.8 C 187.6 44.7 186.7 45.2 187.1 45.2 C 185.9 45.9 185.4 46.5 184.3 46.9 C 185.6 46.2 184.4 46.5 184.1 46.6 C 183.8 46.8 183.4 47.0 183.4 47.1 C 183.5 47.2 184.1 46.8 184.2 46.8 C 183.3 47.2 183.2 47.8 182.8 47.7 C 183.2 47.5 183.2 47.3 182.7 47.6 C 182.8 48.0 179.8 49.2 180.7 48.6 C 180.7 48.7 181.8 48.1 181.9 47.9 C 181.5 48.0 179.9 49.0 180.2 48.5 C 181.1 48.0 181.2 48.2 182.2 47.6 C 182.3 47.4 182.9 47.0 183.2 46.7 C 181.6 47.6 181.2 48.1 180.9 47.9 C 180.1 48.4 180.7 48.4 179.3 49.0 C 177.3 49.8 178.9 48.8 178.3 49.0 C 176.6 49.9 177.3 50.0 178.1 49.9 C 176.7 50.5 176.3 50.8 174.4 51.5 C 174.5 51.3 174.7 51.1 175.3 50.8 C 175.4 50.8 176.9 50.4 176.7 50.3 C 176.5 50.0 175.2 50.4 173.2 51.1 C 173.8 51.3 173.8 51.1 171.7 51.8 C 172.1 52.0 170.6 52.1 170.6 52.4 C 170.8 52.4 171.6 52.1 172.3 51.9 C 172.3 52.0 172.0 52.2 171.3 52.5 C 170.8 52.6 170.5 52.9 169.2 53.2 C 169.0 53.0 169.9 52.7 170.1 52.5 C 169.4 52.7 169.2 52.9 168.5 53.2 C 167.8 53.2 167.7 52.8 167.7 52.5 C 168.5 52.1 169.9 51.7 168.7 51.9 C 171.9 50.8 168.7 52.3 169.9 51.9 C 171.1 51.2 170.6 51.9 172.5 51.1 C 173.1 50.9 173.3 50.7 173.5 50.6 C 173.3 50.6 172.1 50.7 173.4 50.3 C 173.7 50.3 174.4 50.2 175.4 49.8 C 175.4 49.7 173.4 50.4 175.3 49.6 C 176.3 49.2 175.6 49.9 176.8 49.3 C 176.8 49.2 177.2 49.1 177.2 49.0 C 175.4 49.8 177.5 48.6 176.2 49.0 C 177.8 48.2 176.6 49.2 177.6 48.7 C 177.6 48.5 179.3 48.0 179.3 47.8 C 178.7 48.2 177.4 48.7 177.5 48.4 C 178.7 47.9 183.3 45.3 181.7 46.6 C 182.3 46.1 185.1 44.0 185.0 44.3 C 184.1 44.8 184.2 44.9 184.2 45.1 C 185.7 43.8 186.6 43.5 187.8 42.0 C 186.2 43.3 187.1 42.0 186.1 42.6 C 185.6 42.9 185.0 43.3 184.9 43.5 C 185.3 43.6 185.9 43.0 186.1 42.7 C 186.2 42.8 186.4 43.0 186.5 43.2 C 184.5 44.4 183.3 45.3 182.2 45.9 C 183.1 45.3 180.2 46.6 181.3 45.9 C 181.8 45.8 183.0 45.2 183.9 44.7 C 183.8 44.6 183.8 44.5 183.8 44.5 C 184.1 44.2 184.7 43.9 184.7 43.8 C 183.6 44.6 182.8 44.8 182.0 45.4 C 181.9 45.4 181.9 45.3 181.9 45.3 C 181.7 45.4 181.5 45.5 181.5 45.4 C 181.9 45.2 182.5 44.9 182.5 44.7 C 181.6 45.2 181.3 45.1 180.2 45.7 C 180.3 45.3 178.7 45.8 180.3 44.8 C 180.6 44.9 181.5 44.5 181.5 44.7 C 182.0 44.5 182.9 43.9 183.2 43.6 C 182.7 43.7 181.8 44.1 181.6 44.0 C 182.3 43.5 182.8 43.1 183.3 43.1 C 182.0 44.0 184.1 42.8 184.8 42.6 C 184.6 42.6 184.2 42.8 184.0 42.8 C 185.0 42.1 185.5 42.0 185.3 41.6 C 186.3 40.7 186.3 41.1 186.9 40.6 C 186.3 40.7 187.2 40.1 186.6 40.2 C 187.6 39.2 187.1 40.2 187.5 39.8 C 187.8 39.5 187.7 39.4 188.0 39.1 C 188.5 38.8 189.2 37.9 189.5 38.0 C 189.8 37.6 189.9 37.6 190.2 37.2 C 190.1 37.1 190.1 36.9 190.2 36.7 C 190.3 36.7 190.5 36.5 190.5 36.3 C 189.6 37.2 189.8 36.9 188.8 37.8 C 188.8 37.9 188.7 38.1 189.0 37.9 C 188.5 38.7 188.1 38.8 187.5 39.5 C 187.3 39.4 186.9 39.3 186.4 40.0 C 186.4 39.7 186.2 39.8 186.4 39.5 C 186.8 39.3 187.3 39.0 187.8 38.6 C 187.8 38.5 187.6 38.5 187.8 38.2 C 188.1 38.1 188.4 37.8 188.5 37.5 C 188.6 37.6 188.6 37.7 188.5 37.9 C 189.4 37.0 188.8 37.1 189.4 36.5 C 189.2 36.5 188.9 37.0 189.0 36.5 C 189.3 35.8 189.5 35.8 189.7 35.5 C 189.7 35.4 189.6 35.4 189.7 35.2 C 190.0 34.9 189.7 36.5 190.3 35.8 C 190.1 35.6 190.5 34.9 190.7 34.8 C 190.8 35.1 190.3 35.5 190.5 35.6 C 191.1 34.1 191.0 35.7 191.4 34.2 C 191.3 34.2 191.2 34.1 191.1 34.1 C 191.0 34.7 190.8 34.7 190.6 34.6 C 190.4 35.1 190.1 35.1 190.0 35.6 C 189.7 35.3 190.2 35.2 190.4 34.7 C 190.2 34.7 190.0 35.1 189.7 35.1 C 190.4 34.0 190.1 33.8 190.5 32.8 C 190.2 33.0 190.4 32.2 190.2 32.3 C 190.3 33.1 189.6 32.8 189.5 32.9 C 189.5 33.4 190.0 33.2 190.1 33.6 C 189.8 33.7 189.7 33.6 189.4 33.4 C 189.5 33.0 189.5 33.1 189.4 32.7 C 189.6 32.5 190.0 32.1 190.2 32.6 C 190.1 32.5 189.9 31.9 190.1 31.8 C 190.2 32.4 190.2 31.7 190.4 32.1 C 190.5 31.6 190.0 30.7 189.9 30.0 C 189.8 30.1 189.7 29.9 189.6 29.9 C 190.1 30.5 189.6 30.8 189.7 31.4 C 189.6 31.1 189.5 31.3 189.5 31.4 C 189.5 30.9 189.2 30.6 189.2 30.1 C 189.1 30.1 189.0 30.2 189.0 30.2 C 188.8 29.5 188.8 29.6 188.3 29.1 C 188.2 28.8 188.8 28.9 189.1 28.8 C 188.8 28.6 188.1 27.5 188.3 28.3 C 187.8 27.7 188.2 27.6 187.6 27.0 C 187.4 27.1 188.0 27.7 187.5 27.7 C 187.0 27.2 187.5 27.3 186.9 26.9 C 187.0 26.8 187.2 26.6 186.6 26.1 C 186.9 26.6 186.5 26.1 186.3 26.1 C 186.5 26.3 186.7 26.6 186.7 26.8 C 185.9 25.8 185.6 25.6 184.6 24.9 C 185.1 24.9 184.6 24.4 185.3 24.9 C 184.6 24.5 184.0 23.6 183.5 23.5 C 183.9 23.9 184.5 24.4 184.7 24.7 C 182.6 23.2 181.1 22.6 178.7 21.0 C 179.2 21.2 179.8 21.6 179.9 21.5 C 179.6 21.4 179.1 21.1 179.2 21.1 C 180.1 21.5 180.9 22.0 181.3 22.2 C 182.0 22.7 180.8 22.1 181.5 22.5 C 181.7 22.5 183.0 23.4 182.6 22.9 C 181.4 22.3 180.2 21.4 179.8 20.8 C 178.3 20.5 179.5 21.1 177.9 20.8 C 178.0 20.7 177.7 20.4 177.2 20.2 C 177.5 20.7 175.7 19.7 175.5 19.6 C 176.3 19.8 179.0 20.9 177.8 19.9 C 178.2 20.8 174.6 18.3 175.2 19.1 C 173.3 18.4 174.1 18.3 172.9 18.2 C 172.9 18.1 173.1 18.0 172.5 17.8 C 172.0 17.6 171.8 17.6 171.5 17.6 C 174.3 18.8 173.4 18.7 175.0 19.5 C 174.7 19.4 174.5 19.3 174.5 19.4 C 174.5 19.4 174.5 19.4 174.1 19.3 C 174.1 18.9 172.6 18.7 172.3 18.4 C 172.9 18.6 173.4 18.8 173.3 18.6 C 171.0 17.7 171.6 17.6 168.0 16.3 C 169.1 16.8 167.6 16.3 166.3 16.0 C 164.5 15.4 165.0 15.1 163.7 14.8 C 163.7 15.4 162.5 14.4 160.9 14.3 C 161.1 14.0 159.1 13.4 158.7 13.6 C 158.6 13.5 157.9 13.3 157.4 13.2 C 157.3 13.0 157.9 13.1 157.5 13.0 C 157.0 12.9 157.4 13.3 156.7 13.1 C 156.1 12.9 156.2 12.7 155.2 12.4 C 155.1 12.6 155.7 12.7 155.1 12.8 C 154.2 12.4 153.3 12.3 154.1 12.7 C 152.6 12.4 153.4 12.1 152.1 11.9 C 152.5 12.1 152.4 12.1 151.7 12.0 C 151.3 11.7 151.2 11.6 151.1 11.5 C 150.7 11.6 150.8 11.7 149.7 11.4 C 149.7 11.5 149.6 11.6 149.6 11.7 C 149.1 11.6 148.4 11.5 148.3 11.4 C 149.2 11.6 149.0 11.3 149.4 11.3 C 148.4 11.1 146.6 10.5 148.0 11.1 C 146.6 10.9 147.3 10.7 146.2 10.6 C 146.8 11.0 146.3 10.6 145.1 10.5 C 145.2 10.8 144.4 10.4 143.7 10.3 C 143.8 10.5 143.6 10.6 142.9 10.5 C 143.0 10.4 142.6 10.3 141.9 10.2 C 141.9 10.3 143.4 10.7 141.8 10.4 C 141.2 10.2 141.2 9.9 140.1 9.8 C 139.8 9.5 141.1 9.8 140.9 9.5 C 139.9 9.6 139.6 9.3 138.3 9.1 C 138.8 9.6 135.5 9.3 137.1 9.8 C 136.6 9.7 135.9 9.9 135.6 9.6 C 136.1 9.6 135.2 9.3 135.2 9.3 C 134.6 9.2 133.0 8.9 133.0 9.1 C 134.4 9.2 134.4 9.4 134.8 9.6 C 132.7 9.5 130.9 9.2 131.1 8.9 C 131.1 9.0 130.8 9.0 130.7 9.1 C 131.4 9.1 131.9 9.6 131.0 9.5 C 131.2 9.3 130.6 9.1 129.9 9.0 C 129.9 9.2 127.1 8.6 127.6 9.0 C 128.7 8.9 129.6 9.4 128.7 9.4 C 128.0 9.1 126.5 8.9 126.9 8.7 C 126.5 8.7 126.1 8.8 125.7 8.8 C 125.3 9.0 126.2 9.1 126.0 9.3 C 125.5 9.2 124.6 9.2 124.5 9.0 C 126.0 9.1 123.7 8.8 125.3 8.8 C 124.3 8.7 124.1 8.6 123.4 8.5 C 123.4 8.6 123.1 8.5 123.0 8.6 C 123.7 8.5 124.3 8.7 124.1 8.9 C 122.7 8.9 123.0 8.6 121.8 8.5 C 121.4 8.7 119.8 8.9 119.0 8.6 C 120.6 8.8 118.9 8.5 119.9 8.5 C 121.3 8.7 121.6 8.5 122.2 8.3 C 121.6 8.1 120.4 7.9 120.3 8.2 C 121.0 8.3 121.0 8.2 121.4 8.2 C 121.4 8.3 121.2 8.4 120.6 8.4 C 120.0 8.2 118.5 8.3 119.5 8.0 C 118.5 8.1 117.4 7.8 116.4 7.9 C 117.5 8.0 118.3 8.2 118.7 8.4 C 117.7 8.4 116.8 8.1 116.7 8.3 C 116.8 8.5 118.4 8.5 118.7 8.7 C 117.4 8.9 115.6 8.1 117.1 8.7 C 116.4 8.6 115.4 8.5 115.1 8.4 C 116.0 8.4 115.1 8.1 114.7 8.0 C 114.0 8.0 113.4 8.0 113.1 8.1 C 114.3 8.0 115.1 8.4 114.3 8.4 C 114.1 8.2 113.9 8.4 113.6 8.4 C 113.5 8.3 112.2 8.3 112.0 8.2 C 112.1 8.3 112.6 8.3 112.7 8.5 C 112.0 8.5 110.9 8.8 110.4 8.4 C 110.8 8.4 111.5 8.5 111.5 8.4 C 109.5 8.0 108.9 7.7 106.4 7.4 C 106.7 7.4 106.9 7.4 106.8 7.3 C 105.3 7.2 104.2 7.1 104.4 6.9 C 103.5 6.9 103.0 7.1 102.5 7.2 C 103.5 7.4 103.8 7.1 104.4 7.3 C 104.0 7.4 105.2 7.8 105.6 8.0 C 107.3 7.8 107.4 8.2 109.2 8.1 C 108.7 8.3 110.5 8.2 110.0 8.4 C 108.4 8.0 106.8 8.2 104.4 8.0 C 104.7 7.8 105.0 7.7 104.0 7.5 C 102.5 7.4 103.3 7.8 102.0 7.7 C 101.5 7.5 102.3 7.4 101.6 7.4 C 101.2 7.5 100.0 7.4 99.6 7.2 C 101.3 7.2 99.3 7.0 100.4 6.9 C 99.9 6.9 99.6 6.8 99.2 6.8 C 100.8 7.1 97.6 7.1 98.8 7.3 C 96.6 7.5 98.7 6.7 96.8 6.8 C 97.7 7.0 96.6 7.1 95.2 7.1 C 94.9 6.8 93.5 6.8 92.4 6.7 C 93.0 6.9 93.4 6.9 92.4 7.0 C 93.0 7.1 93.9 7.1 94.4 7.0 C 94.4 7.1 94.6 7.2 94.8 7.2 C 93.5 7.3 94.1 7.4 93.6 7.5 C 93.3 7.4 92.3 7.4 92.0 7.3 C 92.0 7.3 91.7 7.4 91.7 7.4 C 93.3 7.4 91.4 7.8 92.4 7.8 C 93.2 7.8 92.7 7.5 93.6 7.6 C 94.5 7.9 92.9 7.9 92.4 8.1 C 93.2 8.3 94.2 8.0 94.4 8.3 C 93.4 8.6 91.8 8.4 90.5 8.3 C 90.6 8.7 88.3 8.3 88.1 8.7 C 87.9 8.7 87.7 8.6 87.3 8.5 C 86.9 8.8 86.5 8.5 86.1 8.5 C 86.1 8.6 86.2 8.7 86.5 8.8 C 84.9 8.7 84.5 8.8 82.6 9.0 C 82.3 8.8 81.9 8.7 81.8 8.5 C 82.2 8.5 82.6 8.4 82.9 8.3 C 80.3 8.4 82.0 9.0 80.2 8.7 C 80.3 8.8 81.6 9.0 80.6 9.2 C 78.9 9.0 76.6 9.4 76.7 8.7 C 75.2 8.6 74.3 9.1 73.6 8.9 C 73.1 8.9 73.0 9.0 72.8 9.1 C 73.2 9.2 73.8 9.3 74.4 9.4 C 75.2 9.2 75.6 9.4 74.8 9.1 C 76.0 9.0 76.4 9.1 77.1 9.2 C 75.3 9.5 73.7 9.4 73.6 9.8 C 73.0 9.7 72.6 9.5 72.1 9.4 C 71.9 9.6 69.9 9.9 69.7 9.6 C 71.1 9.6 72.4 9.1 71.2 9.1 C 68.0 9.6 66.1 9.3 63.3 9.9 C 63.2 9.8 63.4 9.6 62.9 9.7 C 62.9 9.8 62.8 9.9 62.5 10.0 C 61.6 10.1 61.1 10.1 59.9 10.3 C 60.0 10.0 59.8 9.9 59.1 9.9 C 58.8 10.2 57.7 10.8 57.0 10.9 C 57.7 10.7 56.8 10.6 56.3 10.7 C 56.7 10.9 53.0 10.9 54.1 11.1 C 52.6 11.3 52.0 11.3 51.9 11.2 C 51.4 11.3 51.1 11.5 50.6 11.6 C 50.2 11.3 47.8 12.0 47.4 12.0 C 48.3 11.9 48.4 11.5 47.7 11.6 C 47.3 11.9 45.1 12.6 44.7 12.6 C 44.8 12.5 44.9 12.2 46.0 11.9 C 44.2 12.2 44.3 12.6 43.7 13.0 C 43.7 12.6 43.0 13.1 42.7 13.2 C 42.1 13.1 42.7 13.1 42.6 12.9 C 42.0 13.0 41.8 12.9 41.0 13.1 C 41.3 13.3 40.3 13.4 40.0 13.4 C 39.9 13.6 39.5 13.8 38.8 14.0 C 39.7 13.4 34.7 14.7 35.9 14.6 C 35.0 15.1 34.9 14.6 33.7 15.0 C 33.5 15.2 32.8 15.3 33.5 15.3 C 33.0 15.5 32.4 15.6 32.2 15.6 C 31.9 15.6 31.6 15.6 30.6 16.0 C 31.6 16.0 28.6 16.6 29.2 16.8 C 28.2 16.7 26.8 17.8 25.2 18.0 C 25.2 18.1 24.8 18.3 24.7 18.4 C 24.5 18.6 26.6 17.9 25.3 18.4 C 23.6 18.9 24.5 18.5 24.2 18.4 C 20.1 20.2 16.0 22.2 13.3 24.1 C 13.7 24.0 13.7 24.0 13.2 24.5 C 12.2 24.6 10.0 27.1 9.9 27.5 C 9.4 27.5 8.9 28.8 8.7 28.9 C 8.8 28.7 8.9 28.1 8.6 28.6 C 8.6 29.0 8.2 29.3 8.3 29.8 C 7.9 29.9 7.7 31.3 7.5 30.6 C 7.4 30.8 7.3 30.9 7.2 31.1 C 7.5 31.2 7.4 31.4 7.7 31.0 C 7.2 32.1 7.4 32.3 7.3 33.2 C 7.5 33.4 7.5 32.7 7.6 33.2 C 7.6 33.2 7.5 33.2 7.5 33.2 C 7.5 33.4 7.6 33.4 7.5 33.5 C 7.4 33.5 7.4 33.2 7.1 33.2 C 7.2 33.7 6.9 34.0 7.2 34.1 C 7.1 33.5 7.6 33.8 7.5 34.3 C 7.3 34.0 8.0 35.7 8.4 36.2 C 8.4 36.6 8.1 35.6 7.9 35.7 C 8.5 36.8 8.5 36.8 8.8 36.7 C 9.1 37.4 9.1 37.7 9.9 38.3 C 10.2 38.8 9.5 38.2 9.9 38.7 C 10.2 38.9 10.4 38.9 10.8 39.3 C 11.5 40.7 15.5 42.5 17.2 44.4 C 16.5 43.8 17.7 44.3 18.9 44.9 C 18.9 45.0 18.7 45.1 19.1 45.3 C 19.1 45.1 19.6 45.3 20.4 45.7 C 20.5 45.8 20.3 45.8 20.7 46.1 C 21.2 46.0 22.2 46.7 23.0 46.9 C 23.2 47.3 21.3 46.3 21.1 46.4 C 23.2 47.6 23.8 47.5 25.6 48.3 C 24.6 47.9 26.2 48.8 26.5 48.9 C 26.2 48.5 27.7 49.0 26.7 48.4 C 27.4 48.7 28.6 49.1 28.7 49.2 C 28.3 49.1 27.6 48.9 27.6 48.9 C 28.6 49.2 29.7 49.9 30.3 49.8 C 29.6 49.6 29.2 49.4 29.3 49.2 C 29.5 49.2 29.9 49.2 30.4 49.4 C 28.7 49.5 33.3 50.6 33.5 50.5 C 33.6 50.9 33.8 51.0 33.7 51.1 C 34.7 51.4 34.6 51.1 35.3 51.2 C 35.0 51.5 34.8 51.6 35.7 52.0 C 35.6 51.7 36.8 52.0 36.6 51.6 C 39.2 52.2 39.7 52.7 41.3 53.0 C 41.4 52.9 40.9 52.8 41.4 52.9 C 42.1 53.1 42.8 53.4 43.3 53.6 C 43.8 53.5 43.2 53.3 43.7 53.4 C 44.9 53.9 44.5 54.1 45.6 54.5 C 47.0 54.6 46.5 54.7 47.4 54.6 C 47.0 54.5 46.5 54.3 47.1 54.3 C 47.9 54.7 48.1 55.1 48.3 55.2 C 47.7 55.0 47.3 54.9 47.0 54.8 C 46.7 54.9 45.9 54.7 46.6 55.0 C 45.7 54.8 44.7 54.6 43.5 54.3 C 43.9 54.7 42.4 54.1 42.8 54.5 C 44.1 54.7 44.4 55.0 45.8 55.2 C 45.5 54.9 46.9 55.3 47.2 55.4 C 47.2 55.3 48.2 55.5 48.0 55.2 C 49.0 55.4 49.0 55.6 50.0 55.7 C 50.1 55.8 49.9 55.9 50.3 56.0 C 50.8 55.8 51.1 56.2 51.4 56.3 C 51.2 56.0 52.8 56.4 52.9 56.2 C 52.5 56.1 51.9 56.0 51.8 55.9 C 53.6 56.3 52.2 55.8 51.9 55.5 C 51.9 55.7 51.3 55.9 51.2 55.7 C 52.7 55.7 49.2 54.9 50.5 55.2 C 51.6 55.5 51.5 55.3 52.7 55.5 C 53.9 56.2 52.3 56.1 53.6 56.7 C 54.4 56.7 55.0 56.8 55.1 56.6 C 55.2 56.7 55.4 56.8 55.8 56.9 C 56.1 56.8 54.7 56.5 55.8 56.6 C 56.4 56.7 55.7 57.0 56.9 57.1 C 57.4 57.0 55.5 56.6 56.6 56.7 C 57.6 57.3 56.3 56.6 57.7 56.7 C 57.8 56.8 58.0 56.9 58.4 56.9 C 58.5 57.0 58.2 57.2 58.7 57.3 C 59.0 56.9 59.2 57.5 60.2 57.6 C 60.8 57.3 59.2 57.3 59.5 57.1 C 60.6 57.5 61.3 57.2 61.7 57.3 C 60.8 57.4 63.1 57.7 63.2 57.9 C 63.0 57.6 63.5 57.8 64.8 57.7 C 64.8 58.2 66.3 58.0 66.6 58.4 C 66.8 58.3 67.2 58.3 67.4 58.2 C 67.0 58.1 66.5 58.1 66.7 57.9 C 67.1 58.0 67.4 58.0 67.8 58.1 C 68.5 58.3 66.7 58.7 69.3 58.8 C 69.0 58.5 70.1 58.6 70.9 58.5 C 70.8 58.2 69.8 58.4 69.8 58.2 C 70.6 58.1 71.5 58.4 72.0 58.6 C 73.6 58.6 75.3 58.9 77.5 59.0 C 78.0 59.2 75.7 59.0 77.1 59.3 C 77.7 59.3 77.4 59.1 78.3 59.2 C 77.5 60.2 84.2 59.7 84.6 60.2 C 84.9 60.0 86.8 60.2 86.6 59.9 C 85.3 60.0 84.5 59.7 83.9 59.5 C 82.6 59.6 84.9 59.8 83.8 59.8 C 83.7 59.6 82.1 59.7 82.3 59.5 C 84.0 59.6 81.4 59.2 82.7 59.0 C 84.3 59.2 87.4 59.0 86.7 59.3 C 86.7 59.2 86.0 59.2 85.9 59.3 C 87.7 59.5 88.7 59.3 89.5 59.2 C 90.3 59.4 93.5 59.1 92.7 59.2 C 92.9 59.5 90.8 59.1 91.1 59.4 C 94.4 59.5 94.5 59.3 96.7 59.5 C 96.0 59.2 99.0 59.1 98.7 59.2 C 98.7 59.5 99.4 59.6 100.7 59.4 C 100.5 59.6 101.2 59.7 101.9 59.8 C 102.2 59.5 101.3 59.6 101.5 59.4 C 102.1 59.4 102.9 59.4 103.5 59.3 C 103.6 59.4 103.4 59.6 103.9 59.6 C 104.7 59.4 107.3 59.1 107.1 59.3 C 106.0 59.6 109.0 59.5 107.1 59.8 C 107.6 59.7 107.7 59.8 108.3 59.8 C 108.3 59.7 108.3 59.6 108.3 59.5 C 109.8 59.4 109.1 59.8 110.3 59.8 C 110.4 59.7 111.0 59.7 111.1 59.5 C 110.6 59.6 110.6 59.7 109.9 59.7 C 110.7 59.2 108.6 59.5 108.7 59.2 C 110.1 59.1 110.1 59.4 110.7 59.5 C 112.5 59.2 111.6 59.4 113.5 59.4 C 113.5 59.3 113.0 59.3 113.1 59.1 C 115.4 59.1 115.2 59.6 116.7 59.4 C 116.4 59.4 115.0 59.7 115.9 59.6 C 117.0 59.5 117.3 59.2 118.7 59.1 C 118.7 59.2 118.6 59.3 119.1 59.3 C 119.7 59.2 119.7 59.0 120.2 58.8 C 120.3 58.9 121.1 58.8 121.4 58.7 C 121.9 58.9 121.2 59.0 121.9 59.0 C 123.0 58.9 123.6 58.3 124.5 58.3 C 124.5 58.7 125.6 58.5 126.5 58.3 C 126.7 58.6 128.7 58.4 130.0 58.3 C 129.7 58.1 131.0 58.0 130.7 57.8 C 130.1 57.9 129.7 57.9 129.6 57.8 C 131.1 57.6 131.6 58.1 132.6 57.5 C 133.2 57.6 133.9 57.7 134.9 57.7 C 135.0 57.5 133.1 57.6 134.1 57.4 C 134.2 57.5 134.6 57.4 134.9 57.3 C 134.8 57.6 135.6 57.6 136.1 57.7 C 136.9 57.4 138.8 57.5 137.9 57.3 C 139.3 57.0 138.4 57.6 139.5 57.5 C 138.9 57.2 140.7 56.9 139.8 56.9 C 141.2 56.6 141.1 57.0 140.6 57.2 C 141.9 57.1 142.1 56.8 142.8 56.9 C 142.1 56.7 144.1 56.3 143.1 56.6 C 142.8 56.9 144.3 56.5 144.6 56.6 C 144.1 56.5 144.8 56.4 143.8 56.4 C 144.8 56.2 146.2 55.9 147.1 56.0 C 148.2 55.7 149.3 55.4 148.8 55.8 C 149.9 55.5 149.5 55.6 150.6 55.4 C 150.6 55.4 150.3 55.4 150.2 55.3 C 151.7 55.1 151.4 55.3 153.4 54.9 C 153.2 55.2 154.4 55.0 154.8 55.1 C 154.0 55.2 153.4 55.3 152.7 55.3 C 152.6 55.5 153.3 55.4 152.8 55.6 C 152.7 55.5 152.4 55.5 152.1 55.6 C 153.4 55.5 150.5 56.3 151.4 55.9 C 151.4 55.9 151.5 55.9 151.8 55.9 C 151.5 55.7 151.5 55.8 151.7 55.5 C 151.1 55.7 150.5 55.5 150.3 55.7 C 150.3 55.8 151.0 55.7 151.0 55.8 C 149.5 56.2 150.5 55.6 149.3 55.9 C 149.0 56.2 149.7 56.1 150.0 56.2 C 148.9 56.5 147.9 56.6 147.5 56.5 C 146.5 56.8 147.6 56.7 146.9 56.9 C 146.5 56.9 146.5 56.7 145.7 56.8 C 144.9 57.1 146.2 56.9 145.4 57.1 C 144.5 57.1 146.0 56.7 144.6 56.8 C 145.0 57.2 143.4 57.0 143.5 57.2 C 144.3 57.0 144.4 57.4 144.0 57.2 C 142.1 57.2 141.0 58.2 139.1 57.9 C 139.2 58.0 138.9 58.1 138.8 58.1 C 140.2 58.1 142.2 57.8 142.6 58.1 C 143.6 57.9 143.4 57.7 143.6 57.6 C 144.9 57.7 144.8 57.7 144.1 58.2 C 142.0 58.6 141.1 58.6 139.7 58.7 C 138.9 58.9 139.7 58.7 140.1 58.8 C 135.6 59.2 139.1 59.5 137.5 59.6 C 137.5 59.5 137.2 59.4 136.7 59.5 C 136.7 59.6 136.1 59.6 136.0 59.7 C 136.3 59.7 136.4 59.7 136.3 59.8 C 135.2 60.1 135.7 59.7 135.6 59.6 C 136.4 59.5 137.0 59.4 137.1 59.3 C 136.0 59.5 135.1 59.4 134.4 59.7 C 133.3 59.5 134.9 59.0 134.3 58.8 C 134.5 58.6 133.7 59.5 132.9 59.7 C 131.5 59.8 131.5 60.1 130.2 60.2 C 129.8 60.0 131.5 60.0 131.3 59.8 C 130.9 59.8 130.9 59.8 130.5 59.8 C 129.6 59.9 129.7 60.1 129.0 60.3 C 128.6 60.1 128.4 60.2 127.9 60.4 C 127.0 60.3 128.3 60.1 127.4 60.2 C 126.5 60.2 125.8 60.6 125.5 60.6 C 125.4 60.5 125.6 60.3 125.1 60.4 C 124.0 60.6 123.8 60.7 125.1 60.7 C 123.9 60.8 123.4 60.9 123.6 61.1 C 125.4 61.0 125.9 60.9 126.8 61.2 C 127.1 60.9 127.6 61.0 128.3 61.0 C 127.9 60.7 129.1 61.0 129.5 60.7 C 129.0 60.7 128.6 60.7 128.3 60.6 C 130.2 60.5 130.2 60.5 131.7 60.0 C 131.7 60.1 131.9 60.1 132.1 60.2 C 131.6 60.3 130.2 60.4 130.2 60.6 C 131.4 60.8 131.7 60.3 133.0 60.5 C 133.5 60.2 131.9 60.3 132.9 60.2 C 133.4 60.3 134.1 60.3 134.9 60.3 C 135.7 60.2 136.1 60.0 136.7 59.9 C 136.8 59.9 136.9 60.0 137.5 59.9 C 137.5 59.8 136.8 59.8 137.5 59.7 C 139.5 59.7 140.9 59.8 142.8 59.3 C 142.1 59.4 140.5 59.3 141.3 59.2 C 142.1 59.3 143.3 58.8 144.2 58.9 C 144.5 58.9 143.1 58.9 143.5 59.3 C 144.4 59.1 144.9 59.1 145.4 59.1 C 145.3 58.9 146.3 58.8 146.0 58.6 C 145.3 58.7 145.2 59.1 145.0 59.0 C 145.5 58.2 147.7 58.7 149.0 58.5 C 149.8 58.3 148.3 58.4 149.3 58.1 C 149.9 57.9 150.3 58.4 149.4 58.7 C 148.7 58.7 148.5 59.1 148.3 58.8 C 148.0 58.9 147.6 58.9 147.6 59.0 C 148.1 58.9 148.0 59.1 148.3 59.1 C 147.6 59.2 147.6 59.7 146.9 59.5 C 147.3 59.5 147.5 59.4 147.6 59.3 C 145.7 59.7 145.1 59.6 143.9 59.6 C 144.6 59.7 143.9 59.7 144.0 59.9 C 144.8 59.7 146.5 59.6 145.5 59.9 C 144.8 59.7 144.4 60.5 143.7 60.3 C 144.2 60.2 144.1 60.1 144.4 60.0 C 143.6 60.1 143.6 59.9 142.8 60.0 C 140.5 60.7 138.5 60.3 134.6 61.3 C 133.2 61.5 135.9 61.1 135.7 60.9 C 135.3 60.9 135.2 60.9 134.9 60.9 C 134.9 61.2 134.2 61.0 133.8 61.3 C 133.8 61.0 132.0 61.5 131.1 61.3 C 131.0 61.4 131.2 61.6 130.7 61.6 C 127.8 61.6 122.7 62.5 120.5 62.3 C 120.6 62.5 119.6 62.6 119.3 62.7 C 117.9 62.8 118.5 62.5 116.5 62.9 C 115.5 63.0 116.7 62.7 116.9 62.6 C 113.8 62.9 111.2 62.8 109.2 63.1 C 108.2 63.3 109.2 63.0 107.2 63.0 C 107.2 63.3 104.0 62.9 103.6 63.3 C 102.3 63.3 100.1 62.9 101.1 63.2 C 99.5 63.2 100.6 62.9 99.9 62.9 C 98.7 62.9 100.2 63.5 99.1 63.5 C 99.2 63.3 98.2 63.4 97.5 63.1 C 98.4 63.2 99.0 63.1 99.1 63.0 C 98.3 63.1 98.3 62.9 97.1 63.0 C 96.1 63.1 93.4 63.3 92.6 62.9 C 92.6 63.0 92.8 63.1 93.0 63.2 C 92.2 63.2 91.3 62.9 91.4 63.2 C 89.6 63.2 88.8 62.9 87.7 63.1 C 86.9 63.2 88.0 62.9 85.7 62.8 C 85.7 63.0 81.6 62.8 80.5 62.5 C 80.4 62.9 80.2 62.5 79.7 62.5 C 79.6 62.6 79.7 62.7 79.3 62.7 C 79.2 62.6 78.8 62.6 78.5 62.6 C 78.8 62.3 77.0 62.7 76.9 62.4 C 77.3 62.4 77.3 62.2 76.9 62.1 C 76.8 62.4 75.2 61.9 75.3 62.1 C 75.7 62.2 76.8 62.2 76.5 62.4 C 74.9 62.4 75.6 62.1 74.5 62.0 C 74.6 62.1 75.2 62.3 74.5 62.3 C 73.4 62.1 74.4 62.2 73.8 62.0 C 73.2 62.0 72.1 62.1 71.7 62.0 C 71.8 62.1 71.5 61.9 71.4 61.9 C 69.3 61.6 64.8 61.4 62.9 60.8 C 62.7 60.9 62.3 60.9 62.4 61.1 C 61.3 60.8 61.4 60.9 60.2 60.6 C 60.2 60.7 60.2 60.8 60.2 60.9 C 58.6 60.9 60.0 60.6 59.1 60.5 C 58.9 61.0 58.5 60.2 57.6 60.1 C 57.4 60.2 57.0 60.2 57.1 60.3 C 55.7 60.1 55.8 59.8 54.6 59.7 C 54.9 59.8 55.0 60.6 54.8 60.8 C 54.6 60.7 54.2 60.5 53.7 60.4 C 54.4 60.3 54.2 59.3 52.4 59.3 C 53.4 59.4 53.7 59.5 53.5 59.7 C 52.1 59.5 51.7 59.3 50.6 59.1 C 50.3 59.3 51.2 59.4 50.8 59.7 C 50.5 59.6 50.4 59.7 50.4 59.8 C 49.2 59.5 49.2 59.3 47.9 59.2 C 48.0 59.1 48.2 59.1 48.7 59.3 C 48.6 59.1 48.7 58.9 49.4 59.0 C 49.5 59.2 49.0 59.4 50.1 59.5 C 50.2 59.3 50.2 59.2 50.2 59.1 C 49.4 58.9 47.5 58.4 47.3 58.5 C 47.7 58.6 48.3 58.8 48.0 59.0 C 46.6 58.7 46.3 58.3 45.2 58.0 C 43.3 57.7 40.0 56.8 40.3 57.3 C 39.2 56.9 39.6 57.0 38.7 56.7 C 38.9 57.1 37.5 56.6 37.6 56.8 C 38.8 57.0 38.4 57.0 39.6 57.2 C 39.6 57.4 39.3 57.4 38.9 57.4 C 38.8 57.2 38.4 57.1 37.6 56.9 C 37.7 57.0 38.3 57.4 37.5 57.2 C 37.4 57.1 37.3 57.0 36.9 57.0 C 36.9 56.8 36.9 56.7 37.0 56.6 C 37.4 56.6 38.0 56.7 38.4 56.7 C 38.0 56.6 38.0 56.5 37.7 56.4 C 37.5 56.5 36.2 56.0 36.0 56.2 C 36.6 56.3 36.9 56.5 36.3 56.4 C 36.2 56.3 35.3 56.0 35.0 56.1 C 36.1 56.5 35.6 56.4 36.2 56.8 C 34.9 56.5 35.1 56.2 33.6 55.9 C 33.7 55.7 33.7 55.5 34.1 55.6 C 33.7 55.2 32.9 55.0 32.2 54.8 C 31.4 54.6 29.6 54.2 28.9 53.9 C 29.8 54.2 30.9 54.2 29.6 53.8 C 29.6 53.9 28.6 53.6 28.4 53.6 C 27.8 53.9 28.9 54.5 29.8 55.0 C 28.7 54.7 28.5 54.7 27.5 54.4 C 27.3 54.1 28.4 54.1 27.2 53.7 C 26.8 54.0 24.9 52.9 24.4 53.1 C 25.2 53.3 25.8 53.7 24.9 53.4 C 25.1 53.3 23.4 52.7 23.4 52.6 C 24.8 53.0 25.2 52.9 26.1 53.2 C 25.0 52.8 27.0 53.3 25.2 52.6 C 24.3 52.5 23.8 52.6 22.0 51.8 C 21.3 51.5 22.0 51.5 21.2 51.2 C 21.3 51.5 19.4 50.7 20.6 51.0 C 20.0 50.8 19.7 50.6 19.3 50.4 C 20.1 51.0 15.9 49.3 16.4 49.8 C 16.6 49.5 16.5 49.1 16.3 48.9 C 15.4 48.8 14.6 48.1 12.8 47.0 C 12.7 47.3 12.5 46.9 11.8 46.4 C 11.6 46.5 12.2 46.9 11.6 46.6 C 10.9 46.0 10.9 46.0 10.8 45.8 C 10.2 45.4 9.8 45.0 9.6 44.8 C 9.5 44.8 9.6 45.0 9.7 45.2 C 7.8 43.4 6.7 42.8 5.5 41.2 C 6.0 41.9 6.4 41.8 5.9 41.3 C 5.6 41.0 5.4 40.8 5.2 40.7 C 5.3 41.2 5.2 40.9 4.7 40.2 C 4.1 39.5 4.6 40.7 4.2 40.1 C 3.9 39.4 4.2 39.7 4.1 39.4 C 3.9 39.1 3.8 38.8 3.6 38.5 C 3.8 39.1 3.4 38.6 3.0 38.1 C 3.5 38.3 3.4 38.1 2.9 37.1 C 2.9 36.9 3.2 37.4 3.1 37.0 C 3.0 36.8 2.4 36.0 2.5 35.2 C 2.5 35.5 2.6 35.6 2.7 35.5 C 2.3 34.7 2.5 34.0 2.6 33.3 C 2.4 34.1 2.2 33.7 2.1 34.0 C 2.2 33.3 1.9 32.4 2.3 31.8 C 2.1 32.9 2.7 31.9 2.8 31.2 C 2.6 31.1 2.5 32.2 2.3 31.8 C 2.1 31.4 2.6 30.7 2.4 30.3 C 2.3 30.3 2.4 30.7 2.2 30.8 C 2.3 30.3 2.1 31.0 2.1 30.5 C 2.4 30.3 2.2 29.9 2.3 29.5 C 2.4 29.2 3.0 28.5 3.0 28.1 C 2.9 28.1 2.7 28.6 2.6 28.6 C 3.1 26.9 3.7 26.6 4.3 25.1 C 4.6 25.0 4.8 24.8 5.1 24.4 C 5.0 24.4 5.1 24.1 5.4 23.8 C 5.9 23.3 6.5 22.8 7.3 22.2 C 7.3 22.4 7.0 22.8 8.0 21.9 C 8.0 21.8 7.6 22.2 7.9 21.8 C 7.9 21.8 8.2 21.7 8.2 21.5 C 8.2 21.5 8.1 21.5 8.1 21.4 C 7.8 21.7 7.5 21.9 7.3 22.2 C 7.2 22.0 7.1 22.0 6.8 22.2 C 7.9 21.0 8.1 21.5 8.8 20.6 C 9.2 20.8 9.5 20.6 9.0 21.4 C 9.7 20.7 10.2 20.2 10.2 19.9 C 9.3 20.6 9.5 20.2 9.1 20.3 C 9.7 19.8 9.6 19.7 9.9 19.5 C 10.7 19.1 9.4 20.3 10.9 19.4 C 9.6 19.9 11.6 18.5 12.5 18.1 C 12.3 18.1 12.0 18.3 12.3 17.9 C 14.4 16.4 14.7 17.3 15.9 16.2 C 15.8 16.4 16.5 16.0 16.8 15.9 C 15.6 16.6 15.4 16.8 14.9 17.1 C 15.0 17.2 15.4 17.0 15.7 16.9 C 15.7 16.7 16.0 16.6 16.5 16.4 C 16.8 16.1 16.5 15.8 17.4 15.1 C 17.6 15.2 17.5 15.3 18.0 15.1 C 18.4 14.7 17.7 15.6 19.9 14.6 C 19.5 14.7 19.2 14.7 19.3 14.4 C 20.3 13.8 20.2 14.0 21.6 13.3 C 22.3 13.5 20.8 14.2 20.5 14.6 C 21.4 14.1 22.2 13.5 23.3 13.3 C 22.4 13.5 23.2 13.0 24.1 12.5 C 25.1 12.2 24.2 12.9 25.3 12.5 C 26.2 12.1 26.6 11.8 25.7 12.0 C 27.7 11.3 27.1 11.2 28.9 10.7 C 29.0 10.8 28.5 11.0 27.9 11.1 C 28.0 11.2 27.8 11.4 28.5 11.2 C 29.5 10.6 32.0 9.8 32.8 9.5 C 34.3 9.5 35.8 8.5 37.3 8.3 C 36.8 8.7 39.3 7.9 40.1 8.0 C 40.5 7.8 41.9 6.9 41.4 7.3 C 41.6 7.6 42.5 7.3 43.2 7.2 C 43.2 7.1 43.2 7.0 43.1 7.0 C 44.7 6.6 45.1 6.8 45.6 6.8 C 47.5 6.3 49.7 6.3 52.1 5.6 C 52.7 5.8 53.3 5.6 54.7 5.5 C 54.7 5.3 55.8 5.1 56.9 5.0 C 56.6 4.8 57.7 4.7 57.6 4.6 C 56.6 4.7 57.0 4.3 56.4 4.3 C 57.8 4.4 58.4 3.8 59.5 3.9 C 58.2 4.2 57.8 4.6 57.7 5.0 C 59.2 4.7 60.0 4.7 60.4 4.8 C 60.5 4.6 60.3 4.5 59.9 4.5 C 60.4 4.4 60.9 4.3 61.4 4.3 C 61.6 4.4 60.9 4.6 61.5 4.5 C 61.8 4.4 62.2 4.3 62.6 4.1 C 63.1 4.3 62.0 4.4 61.9 4.6 C 63.9 4.4 63.0 4.0 64.1 3.8 C 64.4 3.9 64.4 4.2 65.3 4.1 C 65.7 3.9 65.8 3.7 66.8 3.6 C 67.5 3.6 66.8 4.0 67.6 3.9 C 67.7 3.8 68.1 3.8 68.4 3.8 C 68.4 3.7 68.7 3.6 69.1 3.5 C 69.3 3.6 70.0 3.5 70.3 3.4 C 70.4 3.5 71.7 3.7 71.9 3.5 C 71.9 3.4 71.2 3.5 71.1 3.4 C 72.0 3.3 72.6 3.2 73.1 3.1 C 73.4 3.7 74.8 3.1 76.7 3.3 C 77.8 3.0 76.4 2.9 77.8 2.6 C 78.7 2.7 77.6 2.9 77.9 3.1 C 78.1 3.1 79.4 3.2 79.5 3.0 C 79.4 2.9 78.7 3.0 78.7 2.9 C 79.7 2.6 79.7 2.9 80.3 3.0 C 80.2 2.8 80.9 2.7 81.0 2.5 C 83.9 2.2 83.9 2.6 85.1 2.8 C 85.1 2.7 85.8 2.7 85.9 2.6 C 85.0 2.7 83.9 2.6 85.1 2.5 C 84.9 2.6 86.6 2.4 86.7 2.3 C 86.5 2.2 85.4 2.3 85.8 2.0 C 87.4 1.9 86.8 2.4 87.9 2.1 C 88.0 2.3 87.4 2.3 87.1 2.4 C 87.6 2.4 88.2 2.3 88.3 2.4 C 87.7 2.5 87.7 2.7 87.5 2.9 C 88.3 2.6 89.7 2.8 88.7 2.5 C 90.3 2.5 91.9 2.3 90.7 2.1 C 92.0 2.0 91.3 2.4 92.4 2.2 C 92.2 2.4 91.9 2.6 92.8 2.8 C 92.9 2.6 93.6 2.6 93.6 2.4 C 95.5 2.3 96.1 2.6 96.8 2.8 C 96.1 2.4 97.1 2.7 98.0 2.5 C 98.6 2.6 98.1 2.9 99.7 2.8 C 98.0 2.5 101.6 2.7 100.9 2.3 C 102.9 2.5 102.9 2.5 105.0 2.6 C 104.8 2.8 104.2 2.9 103.3 2.9 C 104.0 2.7 101.6 2.7 101.7 2.8 C 101.7 2.9 101.7 2.9 101.7 3.0 C 103.2 3.0 104.3 3.0 104.9 3.2 C 105.3 3.0 106.0 2.9 105.7 2.6 C 107.2 3.0 108.7 2.6 109.4 2.9 C 108.9 2.9 108.4 2.9 108.6 3.0 C 109.2 3.0 109.9 3.0 109.8 2.8 C 108.6 2.6 108.4 2.6 107.8 2.8 C 108.3 2.6 106.6 2.4 107.8 2.4 C 107.8 2.7 110.2 2.3 109.4 2.5 C 108.1 2.6 110.9 2.8 111.0 2.9 C 111.0 2.9 111.0 2.9 111.0 2.9 Z M 143.2 59.9 C 144.3 59.6 142.9 59.6 142.1 59.8 C 142.3 59.8 142.5 59.9 142.5 60.0 C 142.8 59.9 143.1 59.8 143.2 59.9 C 143.2 59.9 143.2 59.9 143.2 59.9 Z M 130.7 58.0 C 130.4 58.3 132.3 57.9 133.0 57.9 C 132.8 57.8 132.5 57.8 133.0 57.7 C 132.2 57.6 131.9 58.1 130.7 58.0 C 130.7 58.0 130.7 58.0 130.7 58.0 Z M 86.6 60.3 C 86.9 60.2 87.7 60.2 87.8 60.3 C 88.3 60.3 88.2 60.2 88.2 60.1 C 89.2 60.1 88.0 60.4 89.4 60.4 C 90.0 59.9 87.0 59.7 86.6 60.3 C 86.6 60.3 86.6 60.3 86.6 60.3 Z M 95.6 6.3 C 96.2 6.5 94.8 6.7 95.2 6.9 C 97.5 6.7 95.7 6.4 98.8 6.5 C 98.6 6.4 98.4 6.3 98.4 6.2 C 97.0 6.3 96.9 6.5 97.2 6.1 C 96.6 6.1 96.4 6.6 95.6 6.3 C 95.6 6.3 95.6 6.3 95.6 6.3 Z M 124.2 8.4 C 124.0 8.3 123.8 8.2 123.8 8.1 C 122.9 8.1 123.0 8.2 121.8 8.0 C 122.0 8.4 123.1 8.5 124.2 8.4 C 124.2 8.4 124.2 8.4 124.2 8.4 Z M 188.9 29.6 C 188.9 29.8 189.0 29.9 189.0 30.0 C 189.1 29.8 189.6 30.0 189.2 29.5 C 189.1 29.5 189.2 29.6 189.2 29.7 C 189.1 29.6 189.0 29.3 188.8 29.4 C 188.9 29.6 188.9 29.6 188.9 29.6 C 188.9 29.6 188.9 29.6 188.9 29.6 Z M 181.0 45.3 C 182.3 44.3 178.5 45.7 181.0 45.3 C 181.0 45.3 181.0 45.3 181.0 45.3 C 181.0 45.3 181.0 45.3 181.0 45.3 Z M 185.2 46.0 C 185.3 46.0 185.6 45.8 185.6 45.8 C 186.7 45.1 185.7 45.9 186.4 45.6 C 187.1 44.9 185.7 45.6 186.7 44.7 C 186.4 44.7 185.9 45.6 185.2 46.0 C 185.2 46.0 185.2 46.0 185.2 46.0 Z M 14.4 17.1 C 13.4 17.8 13.2 18.2 13.2 18.5 C 13.8 18.1 14.5 17.8 14.7 17.8 C 16.0 16.9 13.8 18.1 13.5 18.2 C 13.6 17.9 14.5 17.4 14.4 17.1 C 14.4 17.1 14.4 17.1 14.4 17.1 Z M 11.2 19.2 C 10.9 19.6 10.4 20.0 10.5 20.2 C 11.0 19.8 11.1 19.8 11.2 19.9 C 11.6 19.4 10.9 19.7 11.2 19.2 C 11.2 19.2 11.2 19.2 11.2 19.2 Z M 17.8 15.7 C 17.2 16.0 17.5 16.1 17.5 16.2 C 18.3 15.8 18.4 15.9 19.2 15.5 C 19.2 15.4 19.2 15.3 19.1 15.3 C 18.4 15.6 18.4 15.7 17.9 16.0 C 17.8 15.9 17.8 15.8 17.8 15.7 C 17.8 15.7 17.8 15.7 17.8 15.7 Z M 8.7 21.5 C 7.2 22.8 7.0 23.7 6.5 24.7 C 7.3 23.8 7.8 22.6 8.6 22.0 C 9.4 21.2 8.2 22.2 8.2 22.1 C 8.1 22.0 8.5 21.7 8.7 21.5 C 8.7 21.5 8.7 21.5 8.7 21.5 Z M 2.7 34.2 C 2.6 34.6 3.1 35.1 3.3 36.0 C 3.3 35.8 3.3 35.6 3.4 35.6 C 3.2 34.4 2.9 35.2 2.7 34.2 C 2.7 34.2 2.7 34.2 2.7 34.2 Z M 6.2 41.1 C 6.8 41.7 6.0 40.6 6.5 40.9 C 5.9 40.1 5.3 39.3 5.1 39.5 C 5.8 40.2 6.0 40.4 6.2 41.1 C 6.2 41.1 6.2 41.1 6.2 41.1 Z M 11.0 45.4 C 12.0 45.9 10.8 44.8 11.4 44.9 C 11.0 44.7 11.0 44.8 10.9 44.9 C 10.7 44.7 10.5 44.4 10.1 44.1 C 10.2 44.5 11.3 45.2 11.0 45.4 C 11.0 45.4 11.0 45.4 11.0 45.4 Z M 44.4 7.7 C 43.8 7.9 44.0 8.1 42.7 8.3 C 44.6 7.9 43.7 8.9 46.3 8.2 C 45.8 8.2 46.1 8.1 46.3 8.2 C 47.2 7.8 45.3 8.2 46.2 7.8 C 45.5 7.9 45.9 8.1 45.2 8.3 C 44.4 8.2 44.0 8.2 44.4 7.7 C 44.4 7.7 44.4 7.7 44.4 7.7 Z M 46.3 8.5 C 47.1 8.4 47.0 7.9 47.4 8.1 C 47.7 8.1 47.6 8.0 47.7 7.9 C 47.4 8.0 47.4 7.9 47.3 7.9 C 46.7 8.1 46.1 8.3 46.3 8.5 C 46.3 8.5 46.3 8.5 46.3 8.5 Z M 39.8 9.9 C 40.9 9.5 41.3 9.6 41.8 9.3 C 42.3 9.5 42.6 9.0 43.2 9.1 C 44.3 8.8 43.5 8.9 43.2 8.8 C 44.2 8.5 43.5 9.0 44.6 8.7 C 44.7 8.4 43.3 8.7 43.4 8.4 C 42.6 8.6 42.6 8.8 42.1 9.0 C 41.7 9.0 41.8 8.9 41.7 8.8 C 40.8 9.1 40.8 8.9 40.0 9.1 C 39.9 9.4 40.2 9.4 41.1 9.1 C 40.2 9.4 39.9 9.7 38.8 9.8 C 39.5 9.4 36.2 10.2 36.5 10.5 C 37.4 10.3 37.1 10.2 37.4 10.0 C 38.6 9.9 39.3 9.7 39.8 9.9 C 39.8 9.9 39.8 9.9 39.8 9.9 Z M 18.6 16.2 C 18.2 16.4 17.8 16.5 17.3 16.8 C 17.1 16.6 17.9 16.3 17.1 16.5 C 16.2 16.9 16.1 17.1 15.5 17.4 C 15.9 17.4 17.8 16.7 16.9 17.2 C 17.3 17.2 17.9 16.9 18.7 16.6 C 17.6 16.7 19.9 15.9 20.9 15.5 C 20.6 15.2 22.5 14.9 23.2 14.4 C 22.5 14.5 20.7 15.5 19.9 15.8 C 20.3 15.6 17.5 16.3 18.6 16.2 C 18.6 16.2 18.6 16.2 18.6 16.2 Z M 49.1 7.8 C 49.3 7.7 50.1 7.5 49.5 7.6 C 49.8 7.4 50.5 7.4 50.1 7.1 C 50.5 7.1 50.8 7.0 51.2 6.9 C 51.1 7.1 50.1 7.2 50.5 7.4 C 51.2 7.1 51.0 7.3 52.0 7.1 C 51.5 7.4 52.0 7.4 51.7 7.7 C 52.0 7.6 52.8 7.4 52.7 7.2 C 54.1 7.1 52.4 7.6 54.2 7.3 C 54.2 7.5 52.9 7.7 52.5 7.7 C 52.2 8.0 54.7 7.4 56.1 7.3 C 54.9 7.3 55.8 6.9 56.4 6.6 C 56.8 6.6 56.4 6.8 57.2 6.8 C 57.8 6.7 58.1 6.5 58.3 6.6 C 58.8 6.5 58.6 6.4 58.6 6.3 C 59.5 6.2 58.9 6.6 60.2 6.4 C 59.2 6.2 60.2 5.9 62.0 5.8 C 61.9 5.7 61.3 5.8 61.2 5.7 C 61.5 5.5 62.5 5.7 62.8 5.7 C 63.4 5.6 63.0 5.5 62.4 5.6 C 62.7 5.5 63.1 5.3 63.5 5.2 C 61.6 5.4 58.6 5.9 55.2 6.0 C 55.9 6.1 55.1 6.3 54.1 6.4 C 53.9 6.3 54.4 6.2 54.8 6.1 C 53.6 6.0 53.8 6.6 51.9 6.7 C 50.9 6.8 53.0 6.4 51.9 6.4 C 51.2 6.6 50.8 6.9 50.4 6.7 C 49.3 7.0 49.0 7.3 47.3 7.6 C 48.3 7.6 48.8 8.1 49.9 7.7 C 49.8 7.7 49.4 7.8 49.1 7.8 C 49.1 7.8 49.1 7.8 49.1 7.8 Z M 11.3 20.0 C 10.7 20.4 10.6 20.7 10.4 20.7 C 9.5 21.5 10.6 20.8 10.9 20.7 C 11.2 20.4 11.3 20.2 11.3 20.0 C 11.3 20.0 11.3 20.0 11.3 20.0 Z M 91.8 62.5 C 93.3 62.6 93.0 62.3 94.2 62.3 C 93.3 62.2 93.0 62.0 91.4 62.0 C 91.3 62.2 91.3 62.4 91.8 62.5 C 91.8 62.5 91.8 62.5 91.8 62.5 Z M 14.8 18.0 C 15.6 17.2 13.9 18.9 13.8 18.7 C 12.9 19.4 14.8 18.2 14.0 19.0 C 14.8 18.4 15.4 18.3 16.6 17.5 C 16.5 17.4 15.5 17.9 14.6 18.4 C 14.4 18.4 14.9 18.1 14.8 18.0 C 14.8 18.0 14.8 18.0 14.8 18.0 Z M 76.2 61.1 C 75.1 61.2 77.1 61.6 77.7 61.8 C 77.8 61.5 77.5 61.5 76.2 61.1 C 76.2 61.1 76.2 61.1 76.2 61.1 Z M 102.3 62.2 C 102.9 61.8 100.5 62.2 101.1 61.9 C 100.4 61.8 100.3 61.9 100.3 62.0 C 99.9 61.9 98.8 62.0 99.1 61.8 C 98.9 61.6 100.9 61.8 100.3 61.5 C 100.9 61.5 101.0 61.6 101.5 61.6 C 100.3 61.6 100.9 61.9 102.3 61.9 C 102.3 61.7 101.7 61.8 102.3 61.6 C 102.4 61.7 103.2 61.9 103.1 62.2 C 104.4 62.2 103.6 61.8 105.1 61.8 C 105.0 61.6 104.1 61.7 103.5 61.6 C 103.7 61.3 105.1 61.8 104.7 61.4 C 105.0 61.6 105.9 61.7 106.0 61.9 C 104.8 62.1 104.1 62.2 103.1 62.4 C 104.0 62.5 105.3 61.9 106.8 62.2 C 106.6 62.0 107.5 62.0 107.2 61.7 C 108.4 61.8 107.8 62.1 107.6 62.1 C 107.9 62.3 110.2 62.1 110.0 61.9 C 110.2 62.1 112.9 61.9 112.8 61.6 C 113.6 61.8 114.9 61.3 115.2 61.7 C 115.7 61.6 116.6 61.5 117.6 61.5 C 117.9 61.2 116.1 61.4 116.0 61.2 C 115.7 61.0 117.9 61.2 117.6 61.0 C 117.6 60.9 117.6 60.9 117.6 60.8 C 116.8 61.0 116.0 61.1 115.2 61.2 C 114.6 61.2 115.4 61.1 115.2 61.0 C 114.7 61.1 112.1 61.6 112.0 61.1 C 110.3 61.3 109.1 61.3 108.4 61.5 C 107.3 61.5 108.9 61.3 108.3 61.2 C 105.3 61.6 101.6 61.2 99.1 61.6 C 98.5 61.6 98.7 61.4 98.7 61.3 C 95.2 61.5 98.1 61.8 95.4 61.7 C 95.4 61.5 96.7 61.5 96.7 61.3 C 95.7 61.3 95.5 61.4 94.2 61.3 C 94.2 61.4 94.2 61.5 94.2 61.7 C 93.2 61.6 93.6 61.3 93.0 61.2 C 91.7 61.3 92.0 61.4 91.4 61.1 C 90.2 61.2 89.0 61.3 87.8 61.1 C 86.9 61.2 88.5 61.7 89.8 61.7 C 89.7 61.8 89.4 61.8 89.4 61.9 C 87.9 61.6 87.6 61.1 85.4 61.0 C 87.1 61.3 84.5 61.1 84.2 60.9 C 83.2 60.8 83.9 61.2 84.6 61.2 C 84.4 61.3 83.9 61.2 83.8 61.1 C 83.6 61.5 85.8 61.7 88.1 61.7 C 87.1 62.1 89.8 61.7 88.6 62.2 C 90.5 62.1 88.8 61.8 91.0 61.9 C 90.8 61.8 90.4 61.7 90.2 61.6 C 91.8 61.6 91.3 61.9 93.0 61.9 C 93.3 61.7 92.2 61.7 92.2 61.5 C 94.0 61.8 94.6 61.9 95.9 62.2 C 96.1 62.0 95.8 61.8 97.9 61.9 C 97.9 62.0 97.9 62.0 97.9 62.1 C 96.9 62.0 96.6 62.5 99.1 62.5 C 99.3 62.3 98.5 62.3 97.9 62.3 C 98.1 62.2 98.9 62.1 99.9 62.1 C 100.4 62.1 100.9 62.2 100.3 62.3 C 100.7 62.5 101.0 62.0 102.3 62.2 C 102.3 62.2 102.3 62.2 102.3 62.2 Z M 3.2 32.7 C 3.2 33.0 3.3 33.2 3.3 33.6 C 3.6 33.8 3.4 33.0 3.6 33.0 C 3.6 32.4 3.3 32.9 3.2 32.7 C 3.2 32.7 3.2 32.7 3.2 32.7 Z M 6.1 25.2 C 5.9 25.2 5.9 25.7 5.4 26.2 C 5.5 26.5 5.9 25.8 6.0 25.9 C 6.6 25.3 5.6 25.8 6.1 25.2 C 6.1 25.2 6.1 25.2 6.1 25.2 Z M 4.3 28.3 C 3.9 28.5 4.3 28.7 4.5 28.1 C 4.6 28.2 4.6 28.4 4.5 28.7 C 4.9 28.5 4.6 28.0 5.1 27.4 C 4.8 27.6 4.5 27.9 4.3 28.3 C 4.3 28.3 4.3 28.3 4.3 28.3 Z M 3.9 29.4 C 3.9 29.9 3.6 30.1 3.6 30.8 C 3.8 30.7 4.1 29.1 4.1 28.9 C 4.1 28.6 3.5 30.2 3.9 29.4 C 3.9 29.4 3.9 29.4 3.9 29.4 Z M 60.7 59.2 C 61.1 59.3 61.1 59.2 61.1 59.1 C 62.3 59.6 63.9 59.8 62.6 59.9 C 63.8 59.9 64.9 60.3 66.0 60.5 C 66.9 60.6 66.5 60.3 67.2 60.4 C 68.3 60.6 66.6 60.5 66.8 60.6 C 67.0 60.8 67.4 60.4 68.7 60.7 C 68.4 60.2 69.9 60.9 69.5 60.4 C 70.2 60.6 70.5 60.5 71.5 60.6 C 71.4 60.4 70.4 60.3 70.3 60.1 C 69.9 59.9 69.8 60.3 70.7 60.3 C 70.1 60.5 68.8 60.1 68.4 60.2 C 67.9 59.9 69.6 60.3 69.2 60.0 C 68.8 60.0 68.5 60.0 68.4 60.0 C 67.8 59.9 67.5 59.8 67.3 59.7 C 67.6 59.7 67.6 59.8 67.6 59.8 C 68.3 59.9 66.9 59.3 68.5 59.5 C 68.2 59.4 67.6 59.3 67.7 59.2 C 67.3 59.0 67.6 59.8 66.1 59.4 C 65.1 59.5 68.5 59.9 67.6 60.3 C 65.4 60.0 66.7 59.8 65.0 59.5 C 64.9 59.6 65.0 59.7 64.5 59.7 C 64.6 59.8 65.2 59.9 65.7 59.9 C 65.6 60.0 65.0 59.9 64.5 59.9 C 64.6 59.9 64.9 60.0 64.9 60.1 C 63.5 59.8 63.7 59.3 65.0 59.4 C 65.0 59.1 63.2 58.9 62.7 59.0 C 63.1 59.2 62.6 59.1 63.0 59.4 C 63.4 59.5 63.3 59.4 63.4 59.3 C 64.1 59.5 63.5 59.5 63.4 59.6 C 62.6 59.4 62.7 59.2 61.9 59.3 C 62.1 59.3 62.3 59.2 62.3 59.1 C 61.9 59.1 61.5 59.0 61.2 59.0 C 61.2 59.1 60.7 59.1 60.7 59.2 C 60.7 59.2 60.7 59.2 60.7 59.2 Z M 80.9 61.7 C 82.2 61.9 81.6 61.6 80.9 61.6 C 81.2 61.5 81.7 61.5 82.2 61.5 C 81.8 61.4 81.4 61.4 80.2 61.3 C 81.3 61.0 80.2 60.5 78.2 60.5 C 77.6 60.9 79.3 61.1 78.6 61.3 C 80.0 61.2 80.8 61.4 80.9 61.7 C 80.9 61.7 80.9 61.7 80.9 61.7 Z M 10.9 20.8 C 10.3 21.2 9.7 21.7 9.2 22.2 C 9.4 22.3 11.3 21.0 10.9 20.8 C 10.9 20.8 10.9 20.8 10.9 20.8 Z M 65.0 5.4 C 65.4 5.3 65.4 5.4 65.4 5.4 C 66.6 5.2 64.9 5.3 65.4 5.0 C 65.0 5.0 64.6 5.1 64.2 5.1 C 64.2 5.2 65.8 5.2 64.7 5.4 C 64.7 5.5 65.0 5.4 65.0 5.4 C 65.0 5.4 65.0 5.4 65.0 5.4 Z M 3.5 32.2 C 3.6 32.7 3.9 32.4 3.9 33.5 C 4.0 33.1 3.9 32.9 3.9 32.2 C 3.8 32.2 3.7 32.2 3.5 32.2 C 3.5 32.2 3.5 32.2 3.5 32.2 Z M 55.1 58.8 C 56.0 59.2 56.3 58.7 58.1 59.1 C 57.2 58.7 56.2 58.9 55.1 58.8 C 55.1 58.8 55.1 58.8 55.1 58.8 Z M 120.8 60.9 C 120.2 60.8 120.9 60.7 120.0 60.7 C 119.4 60.8 119.2 60.9 118.4 61.0 C 119.5 61.2 121.5 60.8 122.4 61.2 C 123.3 61.0 123.2 60.8 123.5 60.6 C 123.1 60.6 122.8 60.6 122.7 60.6 C 122.2 60.9 121.5 60.4 120.8 60.9 C 120.8 60.9 120.8 60.9 120.8 60.9 Z M 75.8 61.0 C 75.1 60.8 76.3 60.8 76.6 60.7 C 77.1 60.7 76.9 60.9 77.0 61.0 C 77.7 61.0 77.9 60.9 77.8 60.7 C 76.5 60.6 74.9 60.5 75.9 60.2 C 74.6 60.0 75.3 60.4 74.6 60.4 C 74.0 60.2 74.6 60.2 74.7 60.0 C 74.4 60.0 73.4 60.2 73.5 59.9 C 71.6 60.0 72.4 60.5 73.8 61.0 C 75.1 60.9 73.6 60.7 75.8 61.0 C 75.8 61.0 75.8 61.0 75.8 61.0 Z M 28.8 52.4 C 28.9 52.5 29.9 52.8 29.9 52.9 C 31.1 53.1 32.4 53.2 33.1 53.1 C 33.0 52.9 31.7 52.7 32.3 53.1 C 31.9 52.7 30.8 52.3 30.2 52.0 C 29.0 51.6 28.5 51.9 28.5 51.5 C 27.4 51.3 28.0 51.5 26.4 50.9 C 28.9 52.0 25.4 50.7 25.2 50.9 C 26.7 51.4 28.0 51.9 27.9 51.6 C 29.0 52.0 30.3 52.5 30.5 52.8 C 30.4 52.9 29.4 52.6 28.8 52.4 C 28.8 52.4 28.8 52.4 28.8 52.4 Z M 34.4 53.3 C 34.1 53.3 33.9 53.3 33.4 53.1 C 33.7 53.3 33.7 53.4 33.6 53.5 C 34.4 53.7 34.7 53.6 34.9 53.9 C 35.6 54.2 34.8 53.5 35.9 54.0 C 35.8 53.9 35.3 53.7 35.3 53.6 C 35.2 53.8 34.7 53.7 34.4 53.3 C 34.4 53.3 34.4 53.3 34.4 53.3 Z M 44.5 56.3 C 45.4 56.4 44.1 56.0 44.6 55.9 C 44.3 55.9 42.6 55.5 42.9 55.3 C 42.5 54.9 40.6 55.2 40.9 54.8 C 40.5 54.7 40.6 54.9 40.5 55.0 C 41.7 55.2 41.7 55.4 40.8 55.2 C 40.9 55.3 41.6 55.5 42.1 55.6 C 42.2 55.5 41.8 55.3 41.9 55.2 C 42.9 55.6 43.6 55.9 44.5 56.3 C 44.5 56.3 44.5 56.3 44.5 56.3 Z M 108.5 4.1 C 107.6 4.1 107.0 4.1 106.5 4.2 C 106.8 4.3 107.2 4.2 107.7 4.2 C 107.8 4.3 107.4 4.3 106.9 4.3 C 107.4 4.6 109.0 4.4 108.5 4.1 C 108.5 4.1 108.5 4.1 108.5 4.1 Z M 100.4 4.0 C 99.5 4.0 98.9 4.0 98.8 4.1 C 99.2 4.3 99.1 4.1 99.6 4.1 C 100.0 4.1 100.2 4.2 100.4 4.3 C 100.8 4.3 100.8 4.2 100.9 4.2 C 101.2 4.1 101.2 4.2 101.3 4.2 C 102.4 4.0 100.0 4.3 100.4 4.0 C 100.4 4.0 100.4 4.0 100.4 4.0 Z M 38.8 54.8 C 38.6 54.6 38.4 54.4 37.6 54.2 C 37.7 54.4 37.0 54.3 36.5 54.1 C 37.2 54.5 37.7 54.5 38.8 54.8 C 38.8 54.8 38.8 54.8 38.8 54.8 Z M 51.7 7.9 C 50.6 7.9 50.8 8.2 49.2 8.3 C 49.2 8.4 49.2 8.5 49.3 8.6 C 50.2 8.2 50.6 8.3 51.7 7.9 C 51.7 7.9 51.7 7.9 51.7 7.9 Z M 192.3 37.2 C 192.1 37.1 191.8 37.9 191.7 37.8 C 191.9 38.2 191.2 38.2 190.2 39.6 C 190.1 39.6 190.2 39.4 190.3 39.2 C 189.4 40.3 190.7 39.1 191.0 39.1 C 191.6 38.2 191.9 38.2 192.3 37.2 C 192.3 37.2 192.3 37.2 192.3 37.2 Z M 108.8 60.7 C 108.7 60.8 108.9 60.8 109.2 60.8 C 109.4 60.8 109.7 60.8 109.9 60.8 C 109.8 60.5 108.5 60.4 109.5 60.0 C 109.2 60.0 109.1 60.0 109.1 60.1 C 107.2 60.9 105.6 59.7 103.1 60.2 C 102.7 60.2 102.8 60.3 102.7 60.4 C 103.0 60.4 103.1 60.4 103.1 60.5 C 103.4 60.1 105.7 60.5 104.7 60.6 C 104.8 60.7 105.1 60.6 105.1 60.6 C 105.4 60.6 105.7 60.6 105.9 60.6 C 105.8 60.5 105.2 60.5 105.1 60.4 C 106.4 60.4 108.0 60.5 107.2 60.8 C 107.9 60.7 108.2 60.6 108.8 60.5 C 109.3 60.5 109.3 60.7 108.8 60.7 C 108.8 60.7 108.8 60.7 108.8 60.7 Z M 119.1 60.2 C 120.4 60.2 119.9 59.9 121.1 59.9 C 120.3 59.7 119.4 60.1 118.3 60.0 C 118.5 60.1 119.0 60.1 119.1 60.2 C 119.1 60.2 119.1 60.2 119.1 60.2 Z M 95.9 60.5 C 96.1 60.2 95.0 60.2 93.8 60.1 C 93.6 60.4 94.7 60.5 95.9 60.5 C 95.9 60.5 95.9 60.5 95.9 60.5 Z M 101.1 60.5 C 102.3 60.4 99.6 60.4 100.3 60.2 C 99.7 60.2 99.1 60.2 99.1 60.1 C 98.7 60.1 98.7 60.3 97.9 60.3 C 97.9 60.4 99.2 60.3 99.1 60.5 C 100.0 60.3 100.2 60.3 101.1 60.5 C 101.1 60.5 101.1 60.5 101.1 60.5 Z M 101.9 60.5 C 102.7 60.4 101.7 60.0 100.7 60.0 C 101.1 60.2 101.3 60.4 101.9 60.5 C 101.9 60.5 101.9 60.5 101.9 60.5 Z M 11.9 43.0 C 12.3 43.3 12.1 42.9 12.6 43.2 C 12.6 43.1 10.9 41.9 12.4 42.9 C 12.0 42.3 11.5 42.4 11.0 41.9 C 11.1 42.1 11.2 42.3 10.8 42.0 C 10.5 42.0 12.2 43.0 11.9 43.0 C 11.9 43.0 11.9 43.0 11.9 43.0 Z M 13.7 44.3 C 14.1 44.5 13.9 44.3 13.7 44.2 C 13.8 44.1 14.3 44.5 14.8 44.7 C 14.7 44.9 14.2 44.0 14.4 43.8 C 12.6 43.0 13.7 44.0 13.7 44.3 C 13.7 44.3 13.7 44.3 13.7 44.3 Z M 15.4 45.1 C 16.5 46.0 18.3 46.9 19.3 47.1 C 18.5 46.3 16.1 45.2 15.4 45.1 C 15.4 45.1 15.4 45.1 15.4 45.1 Z M 7.2 38.1 C 7.9 39.5 10.5 41.8 8.7 39.4 C 8.6 39.6 7.3 38.1 7.0 37.3 C 6.9 37.3 6.2 36.6 6.4 36.5 C 5.9 36.0 7.3 38.5 7.2 38.1 C 7.2 38.1 7.2 38.1 7.2 38.1 Z M 21.2 47.4 C 20.4 47.2 21.1 48.0 20.1 47.4 C 19.5 47.1 20.3 47.6 20.0 47.6 C 21.4 48.2 24.4 49.2 24.6 49.5 C 25.4 49.7 25.7 49.7 27.2 50.2 C 27.3 50.1 21.9 48.4 21.1 47.6 C 21.2 47.5 22.9 48.2 21.2 47.4 C 21.2 47.4 21.2 47.4 21.2 47.4 Z M 52.0 9.3 C 52.0 9.1 50.6 9.5 50.8 9.2 C 50.1 9.6 49.3 9.6 48.4 9.9 C 48.2 9.9 48.2 9.6 47.0 9.7 C 47.0 10.0 47.6 9.8 47.0 10.1 C 45.9 10.3 46.2 10.0 44.9 10.3 C 45.2 10.7 42.3 11.0 42.6 11.3 C 43.3 11.1 43.2 10.9 44.3 10.8 C 44.7 10.7 44.5 10.9 45.0 10.8 C 44.7 11.1 44.1 10.9 43.7 11.2 C 43.8 11.3 44.6 11.1 44.8 11.3 C 45.2 11.1 44.6 11.2 44.7 11.0 C 46.0 10.7 44.7 11.6 46.2 11.2 C 45.8 11.0 45.8 11.0 46.1 10.7 C 46.7 10.7 48.4 10.2 47.5 10.7 C 47.6 10.8 48.7 10.4 48.5 10.3 C 49.1 10.1 49.2 10.2 49.2 10.3 C 50.7 9.9 50.9 9.7 50.5 9.5 C 50.8 9.2 51.1 9.6 52.0 9.3 C 52.0 9.3 52.0 9.3 52.0 9.3 Z M 5.7 30.9 C 5.6 30.4 5.6 31.5 5.5 32.0 C 5.6 31.4 5.9 31.7 6.1 31.0 C 5.9 31.2 5.9 31.2 6.0 30.8 C 5.9 30.6 5.6 31.6 5.7 30.9 C 5.7 30.9 5.7 30.9 5.7 30.9 Z M 30.4 51.3 C 30.7 51.5 31.5 51.7 32.5 52.0 C 33.6 52.3 33.8 52.4 34.3 52.5 C 34.2 52.3 33.7 52.2 33.1 52.1 C 32.5 52.0 31.2 51.6 31.0 51.3 C 30.1 51.1 31.4 51.6 30.4 51.3 C 30.4 51.3 30.4 51.3 30.4 51.3 Z M 38.9 11.7 C 38.5 11.8 38.7 11.8 38.9 11.8 C 38.8 11.9 38.1 12.0 37.6 12.2 C 38.4 12.2 37.5 12.4 37.7 12.6 C 37.4 12.7 37.2 12.8 37.1 12.9 C 37.0 12.5 35.2 13.7 37.2 13.2 C 36.8 13.1 36.9 13.0 37.8 12.7 C 38.7 12.7 39.4 12.3 39.8 12.5 C 40.4 12.3 40.6 12.1 41.4 11.9 C 41.6 12.1 42.4 12.0 41.8 12.5 C 43.3 12.1 42.2 11.8 43.4 11.5 C 44.6 11.4 42.9 11.9 43.2 12.0 C 43.5 11.9 43.4 12.1 43.5 12.1 C 43.9 12.0 43.9 11.8 43.5 11.9 C 43.6 11.8 44.7 11.3 44.5 11.6 C 45.1 11.4 43.2 11.1 42.4 11.6 C 41.8 11.8 41.7 11.3 42.3 11.2 C 42.0 11.1 41.0 11.8 41.2 11.3 C 40.8 11.4 40.4 11.5 39.9 11.6 C 40.0 11.7 40.2 11.6 40.3 11.7 C 39.8 11.8 39.4 11.9 39.0 12.0 C 39.3 11.8 39.3 11.7 38.9 11.7 C 38.9 11.7 38.9 11.7 38.9 11.7 Z M 23.7 48.8 C 24.9 49.3 25.3 49.3 26.3 49.6 C 25.9 49.3 23.3 48.4 23.7 48.8 C 23.7 48.8 23.7 48.8 23.7 48.8 Z M 58.3 9.1 C 58.2 9.0 57.5 9.1 57.5 9.0 C 58.6 8.7 57.3 8.8 58.2 8.3 C 56.7 8.7 56.3 9.3 58.3 9.2 C 59.7 9.0 56.8 9.3 58.3 9.1 C 58.3 9.1 58.3 9.1 58.3 9.1 Z M 53.8 9.6 C 53.0 9.8 55.2 9.6 55.7 9.6 C 55.7 9.7 55.8 9.8 55.8 9.8 C 57.0 9.3 55.3 9.4 56.3 8.8 C 54.9 8.9 54.3 8.9 53.1 9.2 C 53.2 9.3 53.4 9.2 53.4 9.2 C 54.3 9.0 53.8 9.5 52.8 9.5 C 53.1 9.6 53.9 9.4 54.6 9.4 C 54.4 9.3 54.2 9.3 54.2 9.2 C 55.0 9.0 54.7 9.3 55.3 9.2 C 55.3 9.3 53.9 9.7 53.8 9.6 C 53.8 9.6 53.8 9.6 53.8 9.6 Z M 130.9 7.4 C 130.1 7.4 131.6 7.8 131.5 8.2 C 132.3 8.3 132.5 8.2 133.0 8.3 C 132.8 8.1 131.9 8.0 131.6 7.8 C 131.7 7.5 132.7 8.0 133.1 7.8 C 133.6 7.5 131.2 7.7 130.9 7.4 C 130.9 7.4 130.9 7.4 130.9 7.4 Z M 19.3 18.8 C 18.8 19.1 19.1 19.0 19.3 18.9 C 19.3 19.0 18.5 19.4 18.5 19.3 C 17.9 19.6 18.9 19.2 18.2 19.6 C 18.1 19.8 19.3 19.1 19.3 19.0 C 20.2 18.5 19.6 19.2 19.9 19.1 C 20.7 18.8 20.3 18.7 21.5 18.2 C 20.8 18.4 20.1 18.6 19.3 18.8 C 19.3 18.8 19.3 18.8 19.3 18.8 Z M 60.8 8.2 C 60.9 8.1 60.0 8.7 58.9 8.6 C 57.7 8.8 59.8 8.8 58.6 8.9 C 59.6 8.8 60.8 8.5 62.3 8.3 C 62.6 8.1 60.2 8.5 61.6 8.2 C 61.5 8.1 61.1 8.2 61.2 8.3 C 60.9 8.3 60.8 8.3 60.8 8.2 C 60.8 8.2 60.8 8.2 60.8 8.2 Z M 59.4 9.0 C 59.5 9.1 59.8 9.0 59.8 8.9 C 60.2 8.9 60.3 9.1 59.8 9.2 C 60.4 9.4 60.3 8.9 61.6 8.8 C 61.1 8.7 60.8 8.6 62.0 8.6 C 62.9 8.3 59.8 8.8 59.4 9.0 C 59.4 9.0 59.4 9.0 59.4 9.0 Z M 118.4 6.5 C 118.5 6.6 119.4 6.6 120.0 6.7 C 119.2 6.8 116.0 6.5 115.6 6.3 C 115.3 6.4 114.9 6.4 114.8 6.3 C 114.9 6.4 114.0 6.5 114.4 6.5 C 114.3 6.6 113.6 6.5 113.6 6.7 C 112.4 6.5 114.0 6.5 113.7 6.3 C 112.2 6.5 112.5 6.3 110.9 6.2 C 111.1 6.5 113.0 6.5 112.8 6.8 C 114.1 6.6 115.6 6.8 116.4 7.1 C 115.1 6.7 119.8 6.8 121.9 7.0 C 121.8 7.1 122.6 7.2 123.5 7.4 C 124.0 7.6 123.9 7.1 122.7 7.1 C 122.8 7.0 124.3 7.2 125.0 7.2 C 124.2 7.0 124.7 7.0 124.3 6.9 C 122.8 6.7 124.1 6.9 123.9 7.1 C 123.5 7.0 123.1 7.0 122.7 7.0 C 124.8 6.7 119.7 6.7 121.5 6.8 C 119.9 6.7 119.9 6.4 118.4 6.5 C 118.4 6.5 118.4 6.5 118.4 6.5 Z M 80.9 6.3 C 80.6 6.4 79.3 6.6 79.3 6.4 C 77.7 6.7 79.1 6.8 77.3 7.0 C 77.4 7.1 78.1 7.0 78.1 7.1 C 78.8 7.0 79.5 6.8 79.3 6.6 C 80.1 6.6 80.3 6.5 80.9 6.4 C 80.7 6.5 80.4 6.6 79.7 6.7 C 79.6 6.9 79.9 7.0 80.9 6.9 C 81.3 6.7 81.0 6.5 80.9 6.3 C 80.9 6.3 80.9 6.3 80.9 6.3 Z M 76.9 6.9 C 76.7 6.9 76.5 6.8 76.5 6.7 C 75.9 6.5 76.3 7.0 75.7 7.1 C 75.3 7.1 75.4 7.0 75.3 6.9 C 74.7 7.0 74.1 7.1 73.8 7.0 C 72.7 7.2 75.0 7.1 75.4 7.2 C 76.1 7.1 75.8 6.9 76.9 6.9 C 76.9 6.9 76.9 6.9 76.9 6.9 Z M 65.3 7.8 C 65.1 7.5 64.7 7.9 64.2 8.0 C 64.6 8.1 65.7 7.9 65.0 8.3 C 66.1 8.2 66.2 8.2 67.3 8.0 C 68.0 8.2 67.3 7.8 66.1 8.1 C 66.3 7.9 66.8 7.9 66.8 7.7 C 67.6 8.1 69.5 7.2 68.4 7.7 C 68.0 7.6 67.8 7.6 67.6 7.5 C 67.4 7.7 64.8 7.9 65.3 7.8 C 65.3 7.8 65.3 7.8 65.3 7.8 Z M 29.3 15.4 C 31.4 14.6 32.2 14.4 33.4 14.1 C 33.5 14.2 33.4 14.2 33.2 14.3 C 33.5 14.3 33.8 14.2 34.4 14.0 C 34.3 13.9 34.1 14.0 34.1 14.1 C 33.0 14.2 33.9 13.9 34.0 13.7 C 32.7 13.8 30.7 14.9 29.7 14.9 C 28.9 15.2 29.9 15.0 29.3 15.4 C 29.3 15.4 29.3 15.4 29.3 15.4 Z M 190.9 35.5 C 190.9 35.7 190.7 36.0 190.9 36.0 C 191.0 35.7 191.0 35.5 191.1 35.1 C 190.8 35.7 190.6 35.5 190.2 36.2 C 190.4 36.0 190.6 36.2 190.9 35.5 C 190.9 35.5 190.9 35.5 190.9 35.5 Z M 69.1 7.4 C 69.2 7.5 69.2 7.6 68.8 7.7 C 68.7 7.9 69.9 7.7 69.9 7.8 C 70.4 7.8 70.2 7.6 70.7 7.6 C 70.5 7.5 69.5 7.6 69.9 7.3 C 70.2 7.3 70.3 7.3 70.3 7.4 C 71.1 7.2 69.9 7.3 69.1 7.4 C 69.1 7.4 69.1 7.4 69.1 7.4 Z M 134.6 8.1 C 134.1 8.0 134.6 8.2 135.0 8.3 C 133.9 8.4 135.6 8.7 135.6 9.0 C 135.2 8.7 133.7 8.7 133.4 8.6 C 133.0 8.6 133.5 8.8 132.2 8.8 C 132.4 9.0 133.7 8.9 133.4 8.7 C 133.7 9.1 135.0 8.9 134.9 9.1 C 136.6 9.4 137.0 9.3 137.1 9.0 C 135.5 8.9 136.4 8.6 135.0 8.5 C 135.0 8.4 135.4 8.5 135.7 8.5 C 135.6 8.3 135.0 8.2 134.6 8.1 C 134.6 8.1 134.6 8.1 134.6 8.1 Z M 93.6 6.0 C 92.7 6.1 92.8 6.3 92.8 6.4 C 93.2 6.4 93.7 6.3 94.4 6.3 C 94.2 6.2 93.2 6.3 93.6 6.0 C 93.6 6.0 93.6 6.0 93.6 6.0 Z M 128.5 7.7 C 128.4 7.6 128.1 7.6 128.1 7.7 C 127.1 7.6 126.9 7.4 126.6 7.3 C 126.1 7.3 126.2 7.5 126.2 7.6 C 127.1 7.5 126.9 7.8 128.1 7.8 C 128.0 7.7 128.2 7.7 128.5 7.7 C 128.5 7.7 128.5 7.7 128.5 7.7 Z M 102.0 6.2 C 101.6 6.2 101.8 6.2 102.0 6.2 C 101.5 6.5 99.8 6.3 99.2 6.4 C 99.1 6.6 101.2 6.5 98.8 6.6 C 99.3 6.8 101.4 6.7 102.4 6.7 C 102.2 6.9 100.7 6.9 100.8 7.2 C 102.1 7.1 103.4 6.9 103.6 6.6 C 101.8 6.5 102.5 6.3 102.0 6.2 C 102.0 6.2 102.0 6.2 102.0 6.2 Z M 104.0 6.3 C 103.9 6.2 103.5 6.4 102.9 6.3 C 103.8 6.6 104.4 6.5 106.4 6.6 C 106.4 6.6 106.4 6.5 106.4 6.5 C 106.8 6.5 107.3 6.5 107.7 6.5 C 105.9 6.2 105.5 6.4 103.6 6.4 C 103.6 6.4 103.8 6.3 104.0 6.3 C 104.0 6.3 104.0 6.3 104.0 6.3 Z M 52.1 10.0 C 52.6 10.1 53.0 10.1 53.9 10.0 C 53.8 9.8 53.3 9.8 52.1 10.0 C 52.1 10.0 52.1 10.0 52.1 10.0 Z M 130.0 8.0 C 131.1 8.0 129.0 7.9 129.6 8.2 C 130.4 8.4 131.3 8.6 131.5 8.8 C 133.0 8.7 129.8 8.3 130.0 8.0 C 130.0 8.0 130.0 8.0 130.0 8.0 Z M 123.0 8.0 C 122.6 7.9 122.6 7.5 123.0 7.8 C 124.1 7.9 122.1 7.5 123.8 7.7 C 123.1 7.5 121.5 7.3 120.7 7.4 C 120.7 7.6 122.2 7.6 122.2 7.8 C 122.3 7.9 122.1 7.9 121.8 7.9 C 122.0 8.0 122.3 7.9 123.0 8.0 C 123.0 8.0 123.0 8.0 123.0 8.0 Z M 117.2 7.2 C 117.8 7.3 118.6 7.5 119.9 7.6 C 119.0 7.3 118.6 7.1 117.2 7.2 C 117.2 7.2 117.2 7.2 117.2 7.2 Z M 186.7 25.5 C 186.2 25.1 186.5 25.7 186.5 25.8 C 187.0 26.3 187.1 26.1 187.6 26.7 C 187.6 26.3 186.9 26.0 186.7 25.5 C 186.7 25.5 186.7 25.5 186.7 25.5 Z M 188.3 27.4 C 188.2 27.6 188.8 28.2 188.7 28.3 C 189.3 28.4 189.0 29.4 189.3 29.2 C 189.4 29.3 189.4 29.5 189.5 29.7 C 189.7 29.1 188.8 28.0 188.3 27.4 C 188.3 27.4 188.3 27.4 188.3 27.4 Z M 110.4 7.3 C 109.3 7.2 110.7 7.7 109.6 7.6 C 109.5 7.7 111.6 7.8 110.4 7.9 C 112.0 8.1 110.3 7.4 110.4 7.3 C 110.4 7.3 110.4 7.3 110.4 7.3 Z M 90.8 7.5 C 90.9 7.3 89.4 7.5 88.9 7.4 C 88.9 7.5 89.3 7.5 89.6 7.5 C 89.5 7.6 89.3 7.6 88.9 7.7 C 89.2 7.8 90.3 7.5 90.8 7.5 C 90.8 7.5 90.8 7.5 90.8 7.5 Z M 112.6 3.2 C 113.2 3.5 114.1 3.7 114.6 3.4 C 115.3 3.6 114.1 3.7 114.9 3.8 C 116.1 3.8 115.5 4.0 117.4 4.0 C 117.0 4.2 118.3 4.3 118.5 4.5 C 117.8 4.5 116.9 4.2 116.5 4.4 C 117.1 4.4 116.8 4.6 116.5 4.5 C 115.3 4.3 118.0 4.2 116.5 4.0 C 116.1 4.3 114.0 3.6 112.6 3.6 C 113.1 3.4 111.5 3.2 112.6 3.2 C 112.6 3.2 112.6 3.2 112.6 3.2 Z M 119.7 4.1 C 120.7 4.2 121.2 4.7 120.9 4.7 C 120.9 4.6 119.8 4.5 119.7 4.6 C 120.0 4.6 120.2 4.6 120.1 4.7 C 118.3 4.5 119.0 4.4 118.6 4.2 C 119.5 4.1 119.8 4.3 120.1 4.2 C 119.9 4.2 119.7 4.2 119.7 4.1 C 119.7 4.1 119.7 4.1 119.7 4.1 Z M 139.6 10.2 C 139.5 10.0 139.2 10.2 138.9 10.2 C 138.8 9.8 136.9 10.0 136.7 9.8 C 137.1 9.7 138.1 9.8 138.6 9.8 C 138.1 9.7 138.0 9.6 137.4 9.6 C 137.6 9.4 138.7 9.6 139.0 9.4 C 139.1 9.6 139.6 9.5 139.7 9.6 C 138.3 9.6 140.5 10.3 139.6 10.2 C 139.6 10.2 139.6 10.2 139.6 10.2 Z M 101.2 7.4 C 101.1 7.7 102.8 8.3 101.2 8.6 C 100.9 8.4 100.7 8.1 100.8 7.8 C 99.8 8.0 99.4 7.8 98.8 8.0 C 97.0 7.3 100.2 8.1 101.2 7.4 C 101.2 7.4 101.2 7.4 101.2 7.4 Z M 94.8 7.7 C 95.2 7.5 94.3 7.5 94.4 7.3 C 95.2 7.5 97.7 7.2 96.8 7.4 C 96.0 7.4 96.0 7.7 94.8 7.7 C 94.8 7.7 94.8 7.7 94.8 7.7 Z M 51.1 55.9 C 49.9 55.9 49.4 55.3 50.1 55.3 C 49.8 55.5 51.6 55.7 51.1 55.9 C 51.1 55.9 51.1 55.9 51.1 55.9 Z M 6.3 42.4 C 6.9 43.2 7.5 43.5 7.4 43.8 C 6.6 43.1 6.8 43.1 6.2 42.5 C 6.1 42.5 5.7 42.2 5.7 42.0 C 6.0 42.4 6.1 42.2 6.3 42.4 C 6.3 42.4 6.3 42.4 6.3 42.4 Z M 70.3 3.3 C 70.2 3.2 69.7 3.2 69.9 3.0 C 71.1 3.0 72.4 2.7 73.4 2.5 C 73.4 2.6 73.4 2.7 73.4 2.8 C 71.5 2.8 71.1 3.1 70.3 3.3 C 70.3 3.3 70.3 3.3 70.3 3.3 Z M 67.9 3.0 C 67.7 3.2 68.4 3.4 67.6 3.5 C 67.6 3.3 66.1 3.2 66.8 3.1 C 67.0 3.2 67.4 3.2 67.9 3.0 C 67.9 3.0 67.9 3.0 67.9 3.0 Z M 135.0 4.9 C 135.9 5.0 134.6 4.6 134.7 4.5 C 135.3 4.6 136.2 4.8 136.5 4.9 C 135.9 4.8 135.3 5.1 135.0 4.9 C 135.0 4.9 135.0 4.9 135.0 4.9 Z M 120.5 4.1 C 118.5 4.0 119.4 3.6 117.4 3.4 C 118.2 3.3 120.0 3.5 120.6 3.3 C 120.5 3.4 121.0 3.5 121.0 3.6 C 120.2 3.6 120.1 3.5 119.4 3.4 C 119.6 3.7 119.6 3.6 119.4 3.8 C 119.9 3.9 120.2 3.9 120.6 3.8 C 120.4 4.0 121.1 4.1 120.5 4.1 C 120.5 4.1 120.5 4.1 120.5 4.1 Z M 134.5 5.5 C 135.3 5.5 136.0 5.9 135.3 5.8 C 135.2 5.6 134.7 5.8 134.5 5.6 C 135.6 5.7 133.6 5.4 134.2 5.3 C 134.9 5.4 135.1 5.3 135.0 5.1 C 135.4 5.2 136.1 5.2 136.1 5.3 C 135.8 5.3 135.4 5.3 135.3 5.3 C 135.6 5.4 135.8 5.4 135.7 5.5 C 135.0 5.4 134.7 5.4 134.5 5.5 C 134.5 5.5 134.5 5.5 134.5 5.5 Z M 129.2 4.9 C 130.2 5.0 130.3 5.2 130.7 5.4 C 129.3 5.2 129.1 4.9 128.0 4.6 C 129.2 4.8 130.4 4.6 130.8 4.8 C 130.2 4.8 129.3 4.7 129.2 4.9 C 129.2 4.9 129.2 4.9 129.2 4.9 Z M 151.5 56.6 C 150.7 56.7 150.0 56.7 149.0 56.7 C 148.8 57.0 150.6 57.2 149.8 57.1 C 148.9 57.4 149.4 56.9 148.7 57.0 C 149.5 57.2 145.3 58.0 145.1 57.7 C 145.8 57.6 145.9 57.4 145.8 57.3 C 147.5 57.0 148.1 56.7 149.3 56.4 C 150.3 56.6 152.9 56.1 154.2 55.5 C 155.2 55.8 156.7 54.9 158.0 55.0 C 158.2 54.8 156.9 55.0 157.9 54.7 C 158.6 54.8 158.1 55.0 159.0 54.9 C 159.0 54.8 158.8 54.7 159.2 54.5 C 159.2 54.7 159.8 54.6 160.0 54.6 C 158.2 55.0 160.2 54.9 158.8 55.3 C 158.1 55.3 159.3 54.8 157.7 55.2 C 157.1 55.4 156.5 55.6 156.7 55.8 C 156.3 55.9 156.0 56.0 155.7 56.1 C 156.3 55.7 153.4 56.7 154.7 56.1 C 154.8 56.1 155.7 55.9 156.3 55.6 C 155.7 55.5 155.0 55.8 154.0 56.1 C 153.5 56.0 154.1 55.9 153.6 55.9 C 152.8 56.2 153.9 56.2 153.3 56.4 C 153.6 56.4 154.0 56.3 154.0 56.4 C 152.5 56.4 152.0 56.8 151.2 56.9 C 151.7 56.7 150.3 56.9 151.5 56.6 C 151.5 56.6 151.5 56.6 151.5 56.6 Z M 163.5 53.5 C 163.8 53.4 164.1 53.3 164.4 53.2 C 164.5 53.4 163.3 53.8 164.2 53.8 C 162.8 54.1 164.2 53.5 163.5 53.5 C 163.5 53.5 163.5 53.5 163.5 53.5 Z M 156.8 54.3 C 156.2 54.2 156.6 54.7 156.2 54.8 C 157.0 54.5 157.7 54.3 157.8 54.5 C 156.9 54.7 156.5 54.8 155.5 55.1 C 156.4 54.5 154.4 55.0 154.0 54.8 C 154.8 54.6 155.3 54.4 156.4 54.1 C 156.2 54.3 157.7 54.0 156.8 54.3 C 156.8 54.3 156.8 54.3 156.8 54.3 Z M 159.3 53.3 C 159.6 53.5 160.9 53.0 160.7 53.3 C 159.8 53.5 159.5 53.7 159.8 53.8 C 159.1 54.0 159.0 53.9 158.4 54.1 C 158.0 53.9 159.1 53.6 159.3 53.4 C 159.2 53.5 158.9 53.5 159.3 53.3 C 159.3 53.3 159.3 53.3 159.3 53.3 Z M 186.9 39.6 C 187.3 39.6 186.3 40.4 186.0 40.5 C 186.5 40.4 186.4 40.6 185.8 41.2 C 185.9 40.7 185.0 41.5 184.2 41.7 C 184.1 42.0 185.0 41.5 184.1 42.2 C 183.3 42.7 182.6 43.3 181.3 44.1 C 180.8 44.0 181.4 43.7 181.7 43.4 C 180.8 43.9 181.0 43.6 180.3 44.0 C 180.5 44.0 179.9 44.4 179.6 44.4 C 180.9 43.7 177.7 45.1 179.1 44.3 C 179.2 44.3 179.5 44.1 179.8 43.9 C 179.6 44.4 181.2 43.3 181.7 43.3 C 182.0 42.4 183.8 41.6 185.4 40.6 C 185.5 40.6 185.1 41.0 185.5 40.8 C 185.5 40.7 186.0 40.3 186.1 40.1 C 186.2 40.2 186.4 40.1 186.7 39.9 C 186.7 39.8 186.7 39.8 186.9 39.6 C 186.9 39.6 186.9 39.6 186.9 39.6 Z M 87.9 58.5 C 88.0 58.1 85.4 58.3 84.7 58.3 C 84.8 57.9 89.3 58.2 87.9 58.5 C 87.9 58.5 87.9 58.5 87.9 58.5 Z M 103.5 58.4 C 102.8 58.4 103.3 58.6 102.7 58.6 C 102.6 58.4 101.1 58.9 101.1 58.7 C 101.8 58.4 102.3 58.4 103.5 58.4 C 103.5 58.4 103.5 58.4 103.5 58.4 Z M 117.8 57.9 C 116.7 58.0 118.4 58.0 118.2 58.1 C 117.2 58.2 116.2 58.3 116.2 58.0 C 117.1 58.1 117.7 57.7 117.8 57.9 C 117.8 57.9 117.8 57.9 117.8 57.9 Z M 96.3 58.2 C 95.3 58.1 96.9 57.8 97.1 57.9 C 96.0 58.0 97.8 58.2 98.7 58.1 C 98.6 58.4 98.2 58.3 98.7 58.6 C 97.3 58.7 98.4 58.3 97.5 58.3 C 96.8 58.5 97.5 58.4 97.5 58.7 C 97.1 58.7 96.7 58.6 96.3 58.6 C 96.3 58.5 96.3 58.4 96.3 58.2 C 96.8 58.2 97.2 58.2 97.1 58.1 C 96.7 58.1 96.6 58.1 96.3 58.2 C 96.3 58.2 96.3 58.2 96.3 58.2 Z M 167.2 49.0 C 166.4 49.3 167.2 49.2 167.8 49.0 C 167.9 48.9 168.3 48.3 169.3 48.2 C 167.3 49.1 170.0 48.3 168.9 48.8 C 168.4 48.7 167.2 49.4 166.2 49.7 C 165.7 49.6 166.7 49.0 167.2 49.0 C 167.2 49.0 167.2 49.0 167.2 49.0 Z M 170.9 48.0 C 170.8 47.9 170.4 48.0 169.8 48.2 C 170.4 47.8 169.5 48.1 170.3 47.7 C 170.2 47.9 172.8 47.0 171.3 47.6 C 169.9 48.0 171.7 47.6 172.4 47.4 C 171.7 47.6 170.6 48.3 170.4 48.2 C 170.7 48.1 171.0 48.0 170.9 48.0 C 170.9 48.0 170.9 48.0 170.9 48.0 Z M 189.3 35.5 C 189.2 35.4 189.0 35.7 188.9 35.7 C 189.4 34.9 189.6 34.2 189.7 33.8 C 189.7 34.2 189.8 34.2 190.0 34.0 C 189.8 34.4 189.9 34.6 189.7 34.7 C 189.7 34.3 189.6 35.0 189.3 35.5 C 189.3 35.5 189.3 35.5 189.3 35.5 Z M 189.3 35.5 " fill="#000000"></path><image xlink:href="6E50EE1E852DF2F7EA8D9FA26D7B51A5.png" width="116.00" height="32.00" transform="matrix(1.00, 0.00, -0.00, -1.00, 42.0, 43.0)"></image><g><clipPath id="clip-11"><path d="M 5.5 5.1 L 192.5 5.1 L 192.5 60.1 L 5.5 60.1 Z M 5.5 5.1 "></path></clipPath><g clip-path="url(#clip-11)"><text xml:space="preserve" font-family="Chalkduster" font-size="18.0" fill="#000000" transform="matrix(1.00, 0.00, -0.00, -1.00, 46.0, 24.0)">A</text><text xml:space="preserve" font-family="Chalkduster" font-size="18.0" fill="#000000" transform="matrix(1.00, 0.00, -0.00, -1.00, 59.3, 24.0)">r</text><text xml:space="preserve" font-family="Chalkduster" font-size="18.0" fill="#000000" transform="matrix(1.00, 0.00, -0.00, -1.00, 68.5, 24.0)">g</text><text xml:space="preserve" font-family="Chalkduster" font-size="18.0" fill="#000000" transform="matrix(1.00, 0.00, -0.00, -1.00, 80.8, 24.0)">u</text><text xml:space="preserve" font-family="Chalkduster" font-size="18.0" fill="#000000" transform="matrix(1.00, 0.00, -0.00, -1.00, 92.8, 24.0)">m</text><text xml:space="preserve" font-family="Chalkduster" font-size="18.0" fill="#000000" transform="matrix(1.00, 0.00, -0.00, -1.00, 111.5, 24.0)">e</text><text xml:space="preserve" font-family="Chalkduster" font-size="18.0" fill="#000000" transform="matrix(1.00, 0.00, -0.00, -1.00, 122.8, 24.0)">n</text><text xml:space="preserve" font-family="Chalkduster" font-size="18.0" fill="#000000" transform="matrix(1.00, 0.00, -0.00, -1.00, 135.3, 24.0)">t</text><text xml:space="preserve" font-family="Chalkduster" font-size="18.0" fill="#000000" transform="matrix(1.00, 0.00, -0.00, -1.00, 143.6, 24.0)">s</text></g></g></g></svg>