<?xml version="1.0" encoding="UTF-8" standalone="no"?><svg xmlns="http://www.w3.org/2000/svg" xmlns:xlink="http://www.w3.org/1999/xlink" clip-rule="evenodd" stroke-miterlimit="4.00" viewBox="0 0 174 66"><desc>SVG generated by Keynote</desc><defs></defs><g transform="matrix(1.00, 0.00, -0.00, -1.00, 0.0, 66.0)"><path d="M 144.7 52.3 C 176.7 41.6 176.7 24.2 144.7 13.4 C 112.8 2.7 61.0 2.7 29.1 13.4 C -2.9 24.2 -2.9 41.6 29.1 52.3 C 61.0 63.1 112.8 63.1 144.7 52.3 Z M 144.7 52.3 " fill="#A8E685"></path><path d="M 43.7 5.6 C 43.4 5.7 43.1 5.8 42.7 5.8 C 42.9 5.9 43.1 5.9 43.1 6.0 C 43.4 5.9 43.9 5.7 44.7 5.6 C 44.6 5.5 44.3 5.6 44.0 5.7 C 43.7 5.7 43.7 5.6 43.7 5.6 C 43.7 5.6 43.7 5.6 43.7 5.6 Z M 39.0 58.6 C 38.3 58.4 39.0 58.8 39.2 58.9 C 39.2 58.8 39.3 58.8 39.5 58.9 C 39.5 59.1 39.0 59.0 38.5 59.0 C 36.8 58.4 38.2 58.4 39.0 58.6 C 39.0 58.6 39.0 58.6 39.0 58.6 Z M 131.9 59.1 C 133.3 58.8 131.7 58.9 131.5 58.8 C 132.1 58.6 131.5 58.4 132.4 58.2 C 132.5 58.2 132.9 58.2 133.0 58.3 C 132.7 58.4 132.2 58.5 132.1 58.6 C 132.6 58.5 133.3 58.3 133.4 58.4 C 132.3 58.7 133.3 58.7 133.5 58.8 C 132.5 59.0 132.3 59.3 131.9 59.1 C 131.9 59.1 131.9 59.1 131.9 59.1 Z M 154.3 14.3 C 154.9 14.6 155.3 14.8 155.1 14.9 C 154.6 14.6 154.2 14.4 153.9 14.2 C 153.8 14.3 153.9 14.5 153.4 14.3 C 152.9 13.8 153.3 13.7 153.7 13.7 C 153.6 13.9 155.5 14.7 154.3 14.3 C 154.3 14.3 154.3 14.3 154.3 14.3 Z M 115.9 4.9 C 114.6 4.6 115.8 5.2 114.5 4.9 C 114.5 4.7 114.4 4.4 115.2 4.5 C 115.3 4.7 115.8 4.7 115.9 4.9 C 115.9 4.9 115.9 4.9 115.9 4.9 Z M 92.8 61.6 C 92.8 61.8 93.8 61.7 93.5 61.9 C 93.0 61.9 92.6 61.9 92.1 62.0 C 92.0 61.8 92.1 61.7 92.8 61.6 C 92.8 61.6 92.8 61.6 92.8 61.6 Z M 140.5 54.5 C 141.9 54.4 143.1 53.6 142.8 53.9 C 143.4 54.0 142.1 54.9 142.1 54.6 C 141.8 54.4 139.4 54.8 140.5 54.5 C 140.5 54.5 140.5 54.5 140.5 54.5 Z M 47.1 56.0 C 48.6 56.5 48.4 55.8 49.3 56.3 C 49.0 56.2 48.8 56.3 48.7 56.3 C 48.9 56.4 49.3 56.4 49.3 56.5 C 48.6 56.4 47.7 56.4 47.1 56.0 C 47.1 56.0 47.1 56.0 47.1 56.0 Z M 66.9 2.9 C 67.2 2.8 67.3 2.8 67.3 2.7 C 68.4 2.6 68.4 2.4 69.1 2.5 C 69.1 2.9 68.2 2.8 67.3 2.8 C 67.3 2.9 67.0 3.0 66.9 2.9 C 66.9 2.9 66.9 2.9 66.9 2.9 Z M 98.7 3.2 C 98.6 3.0 98.0 2.9 99.0 2.9 C 100.2 3.3 99.1 3.4 97.9 3.5 C 97.9 3.6 97.9 3.7 97.9 3.8 C 98.4 3.8 98.7 3.9 99.0 4.0 C 99.2 3.6 100.0 4.3 101.8 4.2 C 100.9 4.3 101.9 4.7 100.7 4.4 C 101.0 4.7 100.2 4.6 100.4 4.8 C 100.8 4.7 102.1 4.8 101.8 4.5 C 102.4 4.5 102.9 4.6 103.2 4.7 C 103.6 5.0 102.1 4.7 102.5 5.0 C 102.8 5.0 102.9 5.0 103.2 5.1 C 103.3 5.0 103.1 4.8 103.5 4.9 C 104.7 5.0 103.3 5.1 104.9 5.3 C 105.0 5.1 104.6 5.1 104.6 4.9 C 105.3 4.9 105.3 5.1 106.0 5.0 C 106.2 5.1 105.5 5.1 106.0 5.2 C 106.5 4.9 107.5 5.6 108.5 5.3 C 107.8 4.8 108.6 5.5 109.6 5.0 C 109.8 5.2 109.1 5.5 109.9 5.6 C 109.7 4.9 112.8 5.4 110.3 4.6 C 111.6 4.8 112.1 4.3 111.1 4.1 C 113.4 4.5 112.7 4.1 113.5 4.2 C 114.4 4.3 113.0 4.3 113.5 4.5 C 112.6 4.4 112.8 4.5 112.1 4.3 C 112.1 4.4 111.9 4.5 111.7 4.5 C 112.7 4.5 113.8 5.0 113.0 5.2 C 112.6 5.1 113.0 4.9 112.4 4.8 C 112.6 5.1 111.7 4.6 111.7 4.9 C 112.1 5.2 110.7 5.3 112.0 5.5 C 112.0 5.4 112.0 5.3 112.0 5.1 C 112.4 5.2 112.7 5.2 113.0 5.2 C 113.3 5.5 113.1 5.7 113.4 5.8 C 113.9 5.8 114.2 5.8 114.4 5.7 C 113.7 5.6 112.9 5.3 114.1 5.4 C 113.6 5.8 115.7 5.7 114.7 5.8 C 116.0 6.2 116.7 5.9 116.8 6.2 C 117.4 6.3 117.0 5.9 117.8 6.1 C 119.0 6.5 118.9 6.1 120.5 6.5 C 120.8 6.2 120.7 6.7 121.2 6.7 C 121.2 6.6 121.2 6.5 121.2 6.3 C 121.8 6.6 123.1 7.0 124.5 7.0 C 124.9 7.1 124.6 7.3 125.5 7.4 C 126.5 7.2 127.6 7.8 128.8 7.7 C 128.8 7.9 129.6 8.0 130.0 8.0 C 130.2 8.1 129.6 8.3 130.3 8.5 C 130.8 8.3 130.0 8.1 131.0 8.2 C 130.8 8.4 131.9 8.2 131.9 8.5 C 131.6 8.5 131.2 8.5 130.9 8.5 C 131.3 8.6 131.2 8.7 131.5 8.8 C 131.5 8.5 132.2 8.9 132.5 9.0 C 132.5 8.9 132.6 8.8 132.8 8.8 C 133.4 8.9 133.8 9.0 134.1 9.0 C 134.8 9.3 133.7 9.1 134.3 9.3 C 134.8 8.8 135.3 9.6 136.8 9.6 C 137.1 9.8 137.7 10.1 138.6 10.4 C 138.7 10.2 137.7 10.0 137.7 9.9 C 139.0 10.3 137.5 9.7 138.4 9.9 C 140.2 10.5 141.4 10.9 143.2 11.6 C 143.3 11.5 144.8 11.8 144.7 11.9 C 144.3 11.8 145.6 12.5 146.7 12.9 C 147.1 12.6 148.8 12.8 148.9 12.7 C 149.2 13.0 149.1 13.0 149.2 13.4 C 150.8 14.2 151.8 14.2 152.6 15.0 C 152.6 14.8 153.4 15.0 154.0 15.2 C 153.7 15.3 153.3 15.3 152.9 15.3 C 153.8 15.6 153.8 15.8 154.5 16.1 C 155.5 15.8 156.2 17.2 157.0 16.8 C 158.0 17.4 157.7 17.5 158.6 18.0 C 158.7 17.9 158.8 17.9 159.1 18.0 C 158.5 17.7 158.0 17.6 157.8 17.2 C 159.2 17.9 155.4 15.1 157.9 16.1 C 157.9 16.3 157.6 16.3 158.1 16.6 C 159.4 17.2 158.8 16.6 158.2 16.3 C 159.2 16.7 160.0 17.3 159.5 16.7 C 161.4 17.7 160.1 17.2 160.7 17.7 C 164.1 19.6 167.6 22.4 169.4 26.0 C 169.8 26.0 170.5 28.0 170.5 28.7 C 171.1 29.6 171.4 30.7 171.1 31.1 C 171.5 31.3 171.1 32.4 171.3 32.5 C 171.3 32.0 171.4 31.7 171.5 32.2 C 171.4 33.8 170.9 36.0 170.8 37.0 C 170.3 37.4 170.0 38.3 169.8 39.0 C 169.6 39.1 169.8 38.6 169.6 38.9 C 169.7 39.1 169.0 40.5 168.7 40.8 C 169.0 40.4 169.0 39.8 168.6 40.3 C 168.7 40.4 168.2 41.1 168.5 41.0 C 167.8 41.8 167.5 42.3 166.8 42.9 C 167.3 42.3 167.5 42.0 167.4 41.7 C 167.1 42.3 166.9 42.7 166.4 42.9 C 166.7 43.1 165.9 43.6 165.2 44.5 C 164.9 44.6 164.6 44.7 164.0 45.2 C 163.7 45.7 165.2 44.5 164.5 45.2 C 164.4 45.1 163.5 45.6 163.9 45.7 C 162.9 46.3 162.4 46.9 161.4 47.3 C 162.6 46.6 161.6 46.9 161.3 47.0 C 161.0 47.2 160.6 47.4 160.7 47.5 C 160.7 47.6 161.3 47.2 161.4 47.2 C 160.6 47.6 160.6 48.1 160.1 48.1 C 160.5 47.9 160.5 47.7 160.1 48.0 C 160.2 48.4 157.5 49.6 158.3 48.9 C 158.4 49.0 159.3 48.5 159.4 48.3 C 159.0 48.4 157.7 49.3 157.8 48.9 C 158.7 48.4 158.7 48.6 159.6 48.0 C 159.6 47.8 160.1 47.4 160.4 47.1 C 159.0 48.0 158.8 48.4 158.4 48.3 C 157.7 48.7 158.3 48.7 157.1 49.3 C 155.4 50.1 156.7 49.2 156.2 49.3 C 154.7 50.2 155.3 50.3 156.1 50.2 C 154.9 50.8 154.5 51.1 152.9 51.8 C 152.9 51.6 153.1 51.4 153.6 51.1 C 153.7 51.1 155.1 50.7 154.9 50.6 C 154.6 50.3 153.5 50.7 151.8 51.4 C 152.3 51.5 152.3 51.3 150.5 52.1 C 150.9 52.3 149.6 52.4 149.6 52.6 C 149.8 52.7 150.4 52.4 151.0 52.1 C 151.0 52.3 150.9 52.5 150.3 52.8 C 149.8 52.8 149.6 53.1 148.4 53.4 C 148.2 53.3 149.0 52.9 149.2 52.7 C 148.5 53.0 148.4 53.1 147.8 53.4 C 147.2 53.4 147.1 53.1 147.0 52.7 C 147.8 52.4 148.9 52.0 147.9 52.2 C 150.6 51.1 147.9 52.5 149.0 52.2 C 149.9 51.5 149.5 52.1 151.2 51.4 C 151.7 51.2 151.8 51.0 152.0 50.9 C 151.9 50.9 150.8 51.0 151.9 50.6 C 152.2 50.6 152.8 50.5 153.7 50.1 C 153.6 50.0 151.9 50.7 153.6 49.9 C 154.4 49.5 153.8 50.2 154.9 49.6 C 154.9 49.6 155.1 49.4 155.2 49.3 C 153.6 50.1 155.4 49.0 154.3 49.4 C 155.6 48.6 154.7 49.5 155.5 49.0 C 155.5 48.9 157.0 48.4 156.9 48.1 C 156.5 48.5 155.3 49.0 155.4 48.7 C 156.4 48.3 160.4 45.7 159.0 47.0 C 159.5 46.5 161.9 44.5 161.8 44.7 C 161.1 45.3 161.2 45.4 161.2 45.6 C 162.5 44.3 163.3 44.0 164.3 42.6 C 162.9 43.8 163.7 42.6 162.7 43.1 C 162.3 43.5 161.8 43.9 161.7 44.0 C 162.0 44.1 162.6 43.5 162.8 43.2 C 162.9 43.4 163.0 43.5 163.2 43.7 C 161.4 44.9 160.4 45.8 159.4 46.3 C 160.2 45.7 157.7 47.0 158.6 46.3 C 159.1 46.2 160.1 45.6 160.9 45.1 C 160.8 45.1 160.8 45.0 160.7 44.9 C 161.1 44.7 161.5 44.4 161.5 44.3 C 160.6 45.1 159.8 45.2 159.2 45.9 C 159.2 45.8 159.1 45.8 159.1 45.7 C 158.9 45.9 158.7 46.0 158.8 45.9 C 159.1 45.6 159.6 45.3 159.6 45.2 C 158.8 45.7 158.5 45.6 157.6 46.1 C 157.7 45.7 156.3 46.2 157.6 45.3 C 157.9 45.4 158.7 45.0 158.7 45.1 C 159.2 45.0 159.9 44.4 160.1 44.1 C 159.7 44.2 158.9 44.6 158.7 44.5 C 159.3 44.0 159.7 43.6 160.2 43.6 C 159.1 44.5 160.9 43.3 161.5 43.2 C 161.3 43.2 161.0 43.3 160.8 43.3 C 161.6 42.7 162.1 42.5 161.9 42.2 C 162.8 41.4 162.8 41.7 163.4 41.2 C 162.7 41.3 163.6 40.7 163.0 40.8 C 163.9 39.9 163.5 40.8 163.8 40.5 C 164.1 40.2 164.0 40.1 164.2 39.8 C 164.7 39.5 165.4 38.6 165.7 38.7 C 166.0 38.3 166.1 38.3 166.3 37.9 C 166.3 37.8 166.3 37.6 166.3 37.4 C 166.4 37.4 166.7 37.2 166.6 37.1 C 165.8 37.9 165.9 37.6 165.0 38.5 C 165.0 38.6 164.9 38.8 165.2 38.6 C 164.7 39.4 164.4 39.5 163.8 40.1 C 163.6 40.1 163.3 39.9 162.8 40.7 C 162.8 40.3 162.6 40.4 162.8 40.2 C 163.2 40.0 163.6 39.6 164.1 39.3 C 164.0 39.2 163.9 39.2 164.0 38.9 C 164.3 38.8 164.6 38.5 164.7 38.2 C 164.8 38.3 164.7 38.4 164.7 38.6 C 165.5 37.7 165.0 37.8 165.5 37.2 C 165.3 37.2 165.1 37.7 165.1 37.2 C 165.5 36.6 165.6 36.5 165.8 36.2 C 165.8 36.2 165.7 36.2 165.8 36.0 C 166.1 35.6 165.8 37.2 166.4 36.5 C 166.2 36.4 166.6 35.6 166.8 35.6 C 166.9 35.9 166.5 36.2 166.6 36.3 C 167.2 34.9 167.1 36.5 167.6 35.0 C 167.5 34.9 167.4 34.9 167.3 34.9 C 167.2 35.5 166.9 35.4 166.7 35.3 C 166.5 35.8 166.2 35.9 166.1 36.4 C 165.8 36.0 166.3 36.0 166.5 35.5 C 166.3 35.4 166.1 35.8 165.9 35.8 C 166.5 34.8 166.2 34.5 166.7 33.5 C 166.4 33.7 166.7 32.9 166.5 33.0 C 166.5 33.9 165.8 33.4 165.7 33.6 C 165.7 34.1 166.2 33.9 166.2 34.3 C 166.0 34.4 165.9 34.3 165.5 34.1 C 165.7 33.7 165.7 33.8 165.6 33.4 C 165.8 33.1 166.3 32.8 166.4 33.3 C 166.3 33.2 166.2 32.5 166.4 32.5 C 166.4 33.1 166.5 32.4 166.6 32.8 C 166.8 32.3 166.4 31.4 166.4 30.7 C 166.3 30.8 166.2 30.6 166.0 30.7 C 166.5 31.2 166.0 31.5 166.0 32.0 C 166.0 31.8 165.8 31.9 165.8 32.1 C 165.8 31.5 165.6 31.3 165.7 30.8 C 165.6 30.8 165.5 30.8 165.4 30.9 C 165.4 30.1 165.3 30.2 164.9 29.8 C 164.9 29.5 165.5 29.6 165.7 29.6 C 165.5 29.4 165.0 28.3 165.1 29.0 C 164.8 28.5 165.1 28.4 164.7 27.8 C 164.5 27.9 164.9 28.5 164.5 28.5 C 164.1 28.0 164.6 28.1 164.0 27.7 C 164.2 27.6 164.4 27.5 163.9 27.0 C 164.1 27.4 163.8 27.0 163.6 26.9 C 163.8 27.2 163.9 27.4 163.9 27.6 C 163.3 26.6 163.1 26.5 162.3 25.8 C 162.8 25.9 162.4 25.4 163.0 25.8 C 162.4 25.4 162.0 24.6 161.6 24.5 C 161.9 24.8 162.4 25.3 162.5 25.6 C 160.9 24.2 159.7 23.6 157.9 22.1 C 158.2 22.3 158.7 22.6 158.8 22.6 C 158.6 22.4 158.2 22.2 158.3 22.1 C 159.0 22.6 159.6 23.0 159.9 23.2 C 160.4 23.7 159.5 23.1 160.0 23.6 C 160.2 23.5 161.1 24.4 161.0 23.9 C 159.9 23.3 159.1 22.5 158.8 21.8 C 157.6 21.6 158.6 22.1 157.2 21.8 C 157.3 21.7 157.1 21.5 156.7 21.3 C 156.9 21.8 155.5 20.8 155.4 20.7 C 156.0 20.9 158.2 21.9 157.3 21.0 C 157.4 21.9 154.8 19.5 155.2 20.2 C 153.7 19.5 154.4 19.5 153.4 19.3 C 153.4 19.2 153.6 19.2 153.2 18.9 C 152.7 18.7 152.5 18.7 152.3 18.7 C 154.5 19.9 153.7 19.9 155.0 20.6 C 154.8 20.5 154.6 20.4 154.6 20.5 C 154.6 20.5 154.5 20.5 154.2 20.4 C 154.3 20.0 153.1 19.9 152.9 19.5 C 153.3 19.7 153.7 19.9 153.7 19.7 C 151.8 18.9 152.4 18.7 149.6 17.4 C 150.4 17.9 149.2 17.5 148.2 17.1 C 146.8 16.5 147.5 16.4 145.6 15.7 C 145.6 16.4 143.9 15.1 142.5 15.0 C 142.7 14.7 141.0 14.1 140.6 14.3 C 140.5 14.1 139.9 14.0 139.5 13.9 C 139.4 13.7 139.9 13.8 139.5 13.6 C 139.1 13.6 139.4 13.9 138.9 13.8 C 138.3 13.5 138.5 13.3 137.5 13.1 C 137.5 13.3 138.0 13.4 137.5 13.4 C 136.7 13.1 135.9 12.9 136.5 13.3 C 135.3 13.0 136.0 12.7 134.8 12.5 C 135.2 12.7 135.1 12.7 134.5 12.6 C 134.1 12.3 134.1 12.2 134.0 12.1 C 133.6 12.2 133.7 12.3 132.7 12.0 C 132.7 12.1 132.7 12.2 132.7 12.3 C 132.2 12.1 131.6 12.0 131.5 11.9 C 132.3 12.2 132.1 11.9 132.4 11.9 C 131.6 11.7 130.0 11.1 131.2 11.6 C 130.0 11.5 130.7 11.3 129.7 11.1 C 130.2 11.5 129.7 11.2 128.8 11.0 C 128.8 11.3 128.1 10.9 127.5 10.8 C 127.5 11.0 127.4 11.1 126.8 11.0 C 126.9 10.9 126.5 10.8 125.9 10.7 C 125.9 10.8 127.2 11.2 125.8 10.9 C 125.2 10.7 125.3 10.4 124.3 10.2 C 124.1 10.0 125.2 10.3 125.0 10.0 C 124.1 10.1 123.9 9.8 122.7 9.6 C 123.1 10.1 120.2 9.8 121.6 10.2 C 121.2 10.1 120.6 10.4 120.3 10.1 C 120.8 10.1 120.0 9.8 120.0 9.7 C 119.4 9.7 118.1 9.3 118.0 9.5 C 119.3 9.6 119.3 9.9 119.6 10.1 C 117.8 9.9 116.2 9.6 116.3 9.4 C 116.3 9.4 116.1 9.4 116.0 9.5 C 116.7 9.5 117.0 10.0 116.3 9.9 C 116.5 9.7 115.9 9.5 115.3 9.4 C 115.3 9.6 112.9 9.0 113.3 9.4 C 114.3 9.3 115.0 9.8 114.3 9.8 C 113.7 9.5 112.3 9.2 112.6 9.1 C 112.3 9.1 111.9 9.2 111.6 9.2 C 111.3 9.4 112.0 9.5 111.9 9.6 C 111.4 9.6 110.6 9.5 110.5 9.4 C 111.9 9.5 109.8 9.2 111.3 9.2 C 110.4 9.1 110.2 8.9 109.5 8.8 C 109.5 8.9 109.3 8.9 109.2 9.0 C 109.8 8.9 110.4 9.1 110.2 9.3 C 109.0 9.2 109.2 8.9 108.2 8.9 C 107.8 9.0 106.4 9.2 105.7 9.0 C 107.1 9.1 105.6 8.8 106.4 8.8 C 107.7 9.1 108.0 8.8 108.5 8.7 C 108.0 8.5 107.0 8.3 106.8 8.6 C 107.5 8.7 107.5 8.5 107.8 8.5 C 107.8 8.7 107.6 8.8 107.1 8.8 C 106.6 8.5 105.3 8.6 106.1 8.4 C 105.2 8.4 104.3 8.1 103.3 8.2 C 104.4 8.3 105.1 8.5 105.4 8.7 C 104.5 8.7 103.7 8.4 103.7 8.6 C 103.7 8.8 105.1 8.8 105.4 9.0 C 104.3 9.2 102.7 8.4 104.0 9.0 C 103.4 8.9 102.5 8.9 102.3 8.7 C 103.0 8.7 102.2 8.4 101.9 8.3 C 101.3 8.3 100.7 8.3 100.5 8.4 C 101.5 8.3 102.2 8.7 101.5 8.7 C 101.4 8.5 101.2 8.7 100.9 8.7 C 100.8 8.6 99.7 8.6 99.5 8.5 C 99.5 8.6 100.0 8.6 100.1 8.8 C 99.5 8.8 98.5 9.1 98.0 8.7 C 98.5 8.7 99.0 8.8 99.1 8.7 C 97.3 8.3 96.7 7.9 94.5 7.7 C 94.8 7.7 95.0 7.7 94.9 7.6 C 93.5 7.5 92.6 7.3 92.8 7.2 C 91.9 7.2 91.5 7.3 91.0 7.5 C 91.9 7.6 92.2 7.4 92.8 7.6 C 92.4 7.6 93.5 8.1 93.8 8.2 C 95.4 8.0 95.4 8.5 97.0 8.4 C 96.5 8.6 98.1 8.5 97.7 8.7 C 96.3 8.3 94.9 8.5 92.8 8.3 C 93.1 8.1 93.3 7.9 92.4 7.8 C 91.1 7.7 91.7 8.0 90.6 7.9 C 90.2 7.7 90.9 7.7 90.3 7.6 C 89.9 7.7 88.9 7.7 88.5 7.4 C 90.0 7.5 88.3 7.2 89.2 7.1 C 88.7 7.1 88.5 7.1 88.2 7.0 C 89.6 7.3 86.7 7.4 87.8 7.6 C 85.8 7.7 87.7 7.0 86.0 7.0 C 86.8 7.2 85.8 7.3 84.6 7.3 C 84.3 7.0 83.1 7.0 82.1 6.9 C 82.6 7.1 83.0 7.1 82.1 7.2 C 82.6 7.3 83.4 7.3 83.9 7.2 C 83.9 7.3 84.1 7.4 84.3 7.4 C 83.1 7.5 83.6 7.6 83.2 7.7 C 82.9 7.6 82.0 7.6 81.8 7.5 C 81.8 7.6 81.5 7.6 81.4 7.6 C 82.9 7.6 81.2 8.0 82.1 8.0 C 82.8 8.0 82.4 7.8 83.2 7.8 C 84.0 8.1 82.6 8.1 82.2 8.3 C 82.8 8.5 83.7 8.2 83.9 8.5 C 83.0 8.8 81.6 8.6 80.4 8.6 C 80.5 8.9 78.4 8.5 78.3 8.9 C 78.1 8.9 77.9 8.8 77.6 8.7 C 77.3 9.0 76.9 8.7 76.5 8.7 C 76.5 8.8 76.6 8.9 76.9 9.0 C 75.4 8.9 75.1 8.9 73.4 9.2 C 73.1 9.0 72.8 8.9 72.7 8.7 C 73.1 8.7 73.4 8.6 73.7 8.5 C 71.4 8.6 72.9 9.2 71.3 8.9 C 71.3 9.0 72.5 9.2 71.6 9.4 C 70.2 9.1 68.1 9.6 68.1 8.9 C 66.8 8.8 66.0 9.3 65.4 9.0 C 65.0 9.1 64.8 9.2 64.7 9.3 C 65.1 9.4 65.6 9.5 66.1 9.5 C 66.9 9.4 67.2 9.6 66.4 9.3 C 67.6 9.1 67.9 9.3 68.5 9.3 C 66.9 9.6 65.5 9.5 65.5 9.9 C 64.9 9.8 64.5 9.7 64.0 9.6 C 63.9 9.8 62.1 10.0 62.0 9.8 C 63.2 9.7 64.4 9.3 63.3 9.2 C 60.4 9.7 58.7 9.5 56.2 10.1 C 56.2 10.0 56.3 9.8 55.9 9.8 C 55.9 10.0 55.8 10.1 55.6 10.2 C 54.8 10.3 54.3 10.2 53.3 10.4 C 53.3 10.2 53.1 10.1 52.5 10.1 C 52.3 10.4 51.3 11.0 50.7 11.0 C 51.3 10.9 50.4 10.7 50.0 10.8 C 50.4 11.1 47.1 11.1 48.1 11.2 C 46.8 11.5 46.2 11.5 46.1 11.4 C 45.7 11.5 45.4 11.6 44.9 11.8 C 44.6 11.5 42.4 12.2 42.1 12.1 C 42.9 12.1 43.0 11.7 42.4 11.8 C 42.0 12.1 40.1 12.7 39.7 12.8 C 39.8 12.6 39.9 12.4 40.8 12.1 C 39.2 12.4 39.3 12.8 38.9 13.1 C 38.8 12.8 38.2 13.3 38.0 13.4 C 37.4 13.3 38.0 13.3 37.9 13.1 C 37.3 13.2 37.1 13.1 36.4 13.3 C 36.7 13.5 35.8 13.6 35.5 13.6 C 35.5 13.8 35.1 14.0 34.5 14.2 C 35.2 13.6 30.8 14.9 31.9 14.8 C 31.1 15.3 31.0 14.8 30.0 15.2 C 29.8 15.4 29.2 15.5 29.8 15.5 C 29.0 15.9 29.0 15.5 27.3 16.2 C 28.2 16.2 25.6 16.8 26.2 17.0 C 25.3 16.8 24.2 17.9 22.7 18.1 C 22.8 18.2 22.4 18.4 22.4 18.5 C 22.2 18.7 24.0 18.0 22.9 18.5 C 21.5 18.9 22.2 18.5 21.9 18.5 C 18.4 20.2 14.9 22.2 12.6 24.0 C 12.9 23.8 12.9 23.9 12.5 24.3 C 11.6 24.5 9.6 26.8 9.5 27.2 C 9.1 27.2 8.7 28.5 8.4 28.6 C 8.6 28.4 8.6 27.9 8.3 28.3 C 8.4 28.8 8.0 29.0 8.0 29.5 C 7.6 29.6 7.5 31.0 7.2 30.3 C 7.1 30.5 7.0 30.6 7.0 30.8 C 7.2 30.9 7.1 31.1 7.4 30.7 C 6.9 31.8 7.1 32.1 6.9 33.0 C 7.1 33.1 7.2 32.4 7.2 32.9 C 7.2 32.9 7.1 32.9 7.1 32.9 C 7.1 33.1 7.2 33.2 7.1 33.3 C 7.0 33.3 7.0 33.0 6.7 33.0 C 6.8 33.4 6.5 33.7 6.7 33.8 C 6.7 33.2 7.2 33.6 7.0 34.0 C 6.8 33.7 7.3 35.4 7.7 35.9 C 7.5 36.3 7.4 35.3 7.3 35.4 C 7.7 36.5 7.6 36.4 7.9 36.4 C 8.1 37.0 8.1 37.3 8.7 37.9 C 8.9 38.4 8.4 37.8 8.6 38.2 C 8.9 38.5 9.1 38.5 9.4 38.9 C 9.8 40.2 13.0 42.0 14.2 43.8 C 13.6 43.2 14.6 43.6 15.5 44.3 C 15.5 44.4 15.3 44.4 15.7 44.7 C 15.7 44.5 16.1 44.6 16.7 45.0 C 16.7 45.1 16.5 45.2 16.9 45.4 C 17.4 45.3 18.1 46.1 18.7 46.2 C 18.8 46.6 17.4 45.6 17.2 45.7 C 18.8 46.9 19.3 46.8 20.7 47.6 C 19.9 47.2 21.2 48.1 21.4 48.2 C 21.2 47.8 22.4 48.3 21.6 47.7 C 22.2 48.0 23.1 48.3 23.2 48.5 C 22.9 48.4 22.3 48.1 22.3 48.2 C 23.1 48.5 24.0 49.2 24.4 49.1 C 23.9 48.9 23.6 48.7 23.6 48.5 C 23.9 48.5 24.2 48.5 24.6 48.7 C 23.2 48.7 26.9 49.9 27.2 49.8 C 27.4 50.3 27.6 50.4 27.4 50.5 C 29.0 51.1 29.2 50.9 29.8 51.0 C 29.5 51.2 29.2 51.3 30.1 51.8 C 30.0 51.4 31.0 51.8 30.8 51.3 C 33.1 52.0 33.6 52.5 35.0 52.8 C 35.0 52.8 34.6 52.6 35.0 52.7 C 35.7 52.9 36.3 53.2 36.7 53.5 C 37.1 53.4 36.6 53.2 37.1 53.2 C 38.1 53.7 37.8 53.9 38.7 54.4 C 39.9 54.5 39.4 54.5 40.2 54.4 C 39.9 54.3 39.5 54.1 40.0 54.2 C 40.7 54.6 40.9 54.9 41.1 55.0 C 40.5 54.9 40.1 54.8 39.9 54.7 C 39.7 54.8 38.9 54.6 39.5 54.9 C 38.8 54.7 37.9 54.4 36.8 54.2 C 37.1 54.5 35.8 54.0 36.1 54.3 C 37.4 54.6 37.6 54.8 38.8 55.1 C 38.6 54.7 39.8 55.2 40.0 55.3 C 40.1 55.1 40.9 55.4 40.7 55.1 C 41.7 55.3 41.6 55.5 42.6 55.6 C 42.6 55.7 42.5 55.8 42.8 55.9 C 43.2 55.7 43.4 56.1 43.7 56.2 C 43.6 55.9 44.9 56.3 45.1 56.1 C 44.7 56.1 44.2 56.0 44.1 55.9 C 45.7 56.2 44.5 55.7 44.2 55.5 C 44.3 55.6 43.6 55.8 43.6 55.6 C 44.9 55.7 41.9 54.8 43.0 55.1 C 43.9 55.4 43.9 55.2 44.9 55.5 C 46.0 56.1 44.5 56.1 45.6 56.7 C 46.4 56.6 46.9 56.7 47.0 56.5 C 47.1 56.6 47.3 56.8 47.6 56.9 C 47.9 56.8 46.7 56.4 47.6 56.6 C 48.1 56.7 47.5 56.9 48.6 57.0 C 49.0 56.9 47.3 56.6 48.3 56.7 C 49.2 57.2 48.1 56.5 49.3 56.7 C 49.4 56.8 49.5 56.8 49.9 56.9 C 50.0 57.0 49.8 57.2 50.2 57.2 C 50.5 56.9 50.6 57.5 51.5 57.5 C 52.0 57.3 50.6 57.2 50.9 57.0 C 51.9 57.5 52.5 57.3 52.9 57.4 C 52.0 57.4 54.1 57.7 54.1 58.0 C 54.0 57.6 54.4 57.8 55.6 57.8 C 55.6 58.2 56.9 58.1 57.2 58.5 C 57.4 58.4 57.7 58.3 57.9 58.2 C 57.5 58.2 57.1 58.1 57.2 58.0 C 57.6 58.0 57.9 58.1 58.3 58.1 C 58.8 58.4 57.3 58.7 59.5 58.9 C 59.3 58.6 60.3 58.6 60.9 58.6 C 60.9 58.3 60.0 58.5 59.9 58.3 C 60.7 58.2 61.5 58.5 62.0 58.7 C 63.3 58.7 64.9 59.0 66.8 59.1 C 67.3 59.3 65.2 59.1 66.5 59.4 C 67.0 59.4 66.8 59.2 67.5 59.3 C 66.7 60.3 72.8 59.9 73.1 60.3 C 73.4 60.1 75.1 60.4 74.9 60.0 C 73.8 60.2 73.0 59.8 72.4 59.7 C 71.4 59.7 73.4 60.0 72.4 60.0 C 72.3 59.8 70.9 59.9 71.0 59.6 C 72.5 59.7 70.2 59.4 71.4 59.2 C 72.8 59.3 75.6 59.2 74.9 59.5 C 74.9 59.4 74.3 59.3 74.2 59.4 C 75.8 59.6 76.8 59.5 77.4 59.3 C 78.2 59.6 81.0 59.3 80.3 59.4 C 80.5 59.7 78.6 59.3 78.8 59.6 C 81.8 59.7 81.9 59.5 83.8 59.7 C 83.2 59.5 85.9 59.3 85.6 59.4 C 85.6 59.7 86.2 59.9 87.4 59.6 C 87.2 59.9 87.9 59.9 88.5 60.0 C 88.8 59.8 88.0 59.8 88.1 59.6 C 88.7 59.6 89.3 59.6 89.9 59.6 C 89.9 59.7 89.8 59.8 90.3 59.8 C 90.9 59.7 93.3 59.4 93.1 59.5 C 92.1 59.9 94.7 59.8 93.1 60.0 C 93.6 60.0 93.6 60.1 94.2 60.1 C 94.2 60.0 94.2 59.8 94.2 59.7 C 95.5 59.7 94.9 60.1 96.0 60.1 C 96.1 60.0 96.6 59.9 96.7 59.8 C 96.2 59.8 96.2 59.9 95.6 59.9 C 96.3 59.5 94.4 59.8 94.5 59.5 C 95.8 59.4 95.8 59.6 96.3 59.7 C 97.9 59.5 97.1 59.6 98.8 59.6 C 98.8 59.5 98.3 59.5 98.4 59.4 C 100.4 59.4 100.3 59.9 101.6 59.6 C 101.3 59.7 100.1 59.9 101.0 59.9 C 101.9 59.7 102.1 59.5 103.4 59.4 C 103.4 59.5 103.4 59.6 103.8 59.6 C 104.3 59.4 104.3 59.2 104.8 59.1 C 104.9 59.2 105.6 59.1 105.8 59.0 C 106.3 59.2 105.7 59.3 106.2 59.3 C 107.2 59.2 107.7 58.6 108.6 58.6 C 108.6 58.9 109.5 58.7 110.4 58.6 C 110.5 58.9 112.3 58.7 113.5 58.6 C 113.2 58.4 114.4 58.3 114.1 58.1 C 113.5 58.2 113.2 58.2 113.1 58.1 C 114.4 57.9 114.9 58.4 115.8 57.8 C 116.3 57.9 117.0 58.0 117.9 58.0 C 117.9 57.8 116.3 57.9 117.2 57.7 C 117.2 57.8 117.5 57.7 117.8 57.6 C 117.7 57.9 118.4 57.9 118.9 58.0 C 119.6 57.7 121.3 57.8 120.5 57.6 C 121.7 57.3 121.0 57.9 121.9 57.8 C 121.4 57.5 123.0 57.2 122.2 57.2 C 123.4 56.9 123.4 57.3 122.9 57.5 C 124.1 57.4 124.3 57.1 124.9 57.2 C 124.3 57.0 126.0 56.6 125.1 56.9 C 124.9 57.2 126.2 56.8 126.5 56.9 C 126.0 56.8 126.6 56.7 125.8 56.7 C 126.6 56.5 127.9 56.2 128.7 56.3 C 129.7 55.9 130.7 55.7 130.3 56.1 C 131.2 55.8 130.9 55.9 131.9 55.7 C 131.8 55.6 131.6 55.7 131.5 55.6 C 132.8 55.3 132.6 55.6 134.3 55.2 C 134.2 55.5 135.3 55.2 135.6 55.3 C 134.9 55.5 134.3 55.5 133.8 55.6 C 133.7 55.8 134.3 55.7 133.8 55.8 C 133.7 55.8 133.5 55.8 133.2 55.8 C 134.3 55.8 131.8 56.6 132.6 56.1 C 132.6 56.2 132.7 56.2 132.9 56.1 C 132.6 55.9 132.7 56.0 132.8 55.7 C 132.3 56.0 131.7 55.7 131.6 56.0 C 131.6 56.1 132.2 56.0 132.2 56.0 C 130.9 56.5 131.8 55.8 130.6 56.1 C 130.5 56.5 131.0 56.4 131.4 56.5 C 130.3 56.7 129.4 56.9 129.1 56.8 C 128.2 57.1 129.2 57.0 128.6 57.2 C 128.2 57.2 128.2 57.0 127.5 57.1 C 126.8 57.4 128.0 57.2 127.3 57.4 C 126.4 57.4 127.7 57.0 126.5 57.1 C 126.9 57.5 125.4 57.3 125.6 57.5 C 126.3 57.3 126.3 57.7 125.9 57.5 C 124.3 57.4 123.3 58.5 121.7 58.2 C 121.7 58.3 121.4 58.3 121.4 58.4 C 122.6 58.4 124.3 58.1 124.7 58.4 C 125.7 58.2 125.5 58.0 125.6 57.9 C 126.8 58.0 126.7 58.0 126.1 58.5 C 124.3 58.9 123.4 58.8 122.1 58.9 C 121.5 59.2 122.2 59.0 122.5 59.1 C 118.5 59.5 121.6 59.7 120.2 59.9 C 120.2 59.8 119.9 59.7 119.5 59.8 C 119.5 59.9 118.9 59.9 118.8 60.0 C 119.1 60.0 119.3 60.0 119.2 60.1 C 118.2 60.3 118.6 60.0 118.5 59.9 C 119.3 59.8 119.7 59.7 119.8 59.5 C 118.9 59.8 118.1 59.7 117.5 60.0 C 116.5 59.8 117.9 59.3 117.3 59.1 C 117.5 58.9 116.8 59.8 116.1 60.0 C 114.8 60.1 114.8 60.4 113.7 60.5 C 113.4 60.3 114.8 60.3 114.7 60.1 C 114.4 60.1 114.3 60.1 114.0 60.1 C 113.2 60.2 113.3 60.4 112.6 60.6 C 112.3 60.3 112.1 60.5 111.6 60.7 C 110.8 60.6 112.0 60.4 111.2 60.5 C 110.4 60.5 109.8 60.9 109.5 60.9 C 109.4 60.8 109.6 60.6 109.2 60.7 C 108.2 60.9 107.9 61.0 109.2 61.0 C 108.1 61.0 107.6 61.2 107.8 61.4 C 109.5 61.3 109.9 61.2 110.6 61.5 C 110.9 61.2 111.4 61.3 112.0 61.3 C 111.6 61.0 112.8 61.2 113.1 61.0 C 112.7 61.0 112.2 61.0 112.0 60.9 C 113.7 60.8 113.7 60.8 115.1 60.3 C 115.1 60.4 115.2 60.4 115.4 60.5 C 115.0 60.6 113.7 60.7 113.7 60.9 C 114.8 61.1 115.0 60.6 116.2 60.8 C 116.6 60.5 115.2 60.6 116.1 60.5 C 116.6 60.6 117.2 60.6 117.9 60.6 C 118.6 60.5 119.0 60.3 119.5 60.2 C 119.6 60.2 119.7 60.3 120.3 60.2 C 120.2 60.1 119.6 60.1 120.2 60.0 C 122.0 60.0 123.3 60.0 125.0 59.6 C 124.3 59.6 122.9 59.6 123.6 59.5 C 124.4 59.6 125.4 59.1 126.2 59.1 C 126.5 59.2 125.3 59.2 125.6 59.6 C 126.4 59.4 126.9 59.4 127.3 59.4 C 127.2 59.2 128.1 59.1 127.9 58.9 C 127.2 59.0 127.1 59.3 126.9 59.3 C 127.3 58.5 129.3 59.0 130.5 58.8 C 131.3 58.5 129.9 58.7 130.8 58.4 C 131.3 58.2 131.7 58.7 130.9 59.0 C 130.3 59.0 130.1 59.3 129.9 59.1 C 129.7 59.2 129.3 59.2 129.3 59.3 C 129.7 59.2 129.7 59.4 130.0 59.4 C 129.3 59.5 129.3 60.0 128.7 59.8 C 129.1 59.7 129.2 59.6 129.3 59.5 C 127.6 60.0 127.0 59.8 126.0 59.9 C 126.6 60.0 126.0 60.0 126.1 60.2 C 126.8 60.0 128.3 59.9 127.4 60.1 C 126.8 59.9 126.4 60.8 125.8 60.6 C 126.3 60.5 126.2 60.4 126.4 60.3 C 125.7 60.3 125.7 60.2 125.0 60.2 C 122.9 61.0 121.2 60.6 117.7 61.6 C 116.4 61.8 118.8 61.4 118.7 61.2 C 118.3 61.2 118.2 61.2 118.0 61.2 C 118.0 61.5 117.3 61.3 117.0 61.6 C 117.0 61.3 115.3 61.7 114.5 61.6 C 114.5 61.7 114.6 61.8 114.2 61.9 C 111.6 61.9 107.0 62.7 105.0 62.6 C 105.1 62.8 104.2 62.9 104.0 63.0 C 102.8 63.1 103.3 62.8 101.5 63.2 C 100.6 63.3 101.7 63.0 101.8 62.9 C 99.1 63.2 96.7 63.1 95.0 63.4 C 94.1 63.5 95.0 63.2 93.2 63.2 C 93.2 63.6 90.3 63.1 90.0 63.5 C 88.9 63.6 86.9 63.1 87.8 63.5 C 86.3 63.5 87.3 63.1 86.7 63.1 C 85.6 63.2 87.0 63.7 86.0 63.8 C 86.1 63.5 85.2 63.6 84.5 63.4 C 85.3 63.4 85.9 63.4 86.0 63.2 C 85.3 63.4 85.3 63.2 84.2 63.2 C 83.3 63.3 80.9 63.5 80.2 63.1 C 80.1 63.2 80.3 63.3 80.5 63.4 C 79.8 63.4 79.0 63.1 79.1 63.4 C 77.5 63.4 76.8 63.1 75.8 63.3 C 75.1 63.4 76.1 63.1 74.0 63.0 C 74.0 63.2 70.3 62.9 69.4 62.7 C 69.3 63.0 69.1 62.7 68.7 62.6 C 68.6 62.7 68.7 62.8 68.3 62.8 C 68.2 62.7 67.9 62.7 67.6 62.8 C 67.9 62.4 66.3 62.8 66.2 62.5 C 66.5 62.5 66.5 62.3 66.2 62.3 C 66.1 62.5 64.7 62.0 64.8 62.2 C 65.1 62.3 66.1 62.3 65.8 62.5 C 64.4 62.5 65.0 62.2 64.1 62.1 C 64.1 62.2 64.7 62.4 64.1 62.4 C 63.1 62.2 64.0 62.3 63.4 62.1 C 62.9 62.1 61.9 62.2 61.6 62.1 C 61.7 62.1 61.4 62.0 61.3 61.9 C 59.5 61.6 55.4 61.4 53.8 60.8 C 53.6 60.9 53.2 60.9 53.3 61.1 C 52.3 60.8 52.4 60.9 51.4 60.6 C 51.3 60.7 51.3 60.8 51.3 60.9 C 49.9 60.8 51.2 60.6 50.4 60.4 C 50.2 61.0 49.9 60.2 49.0 60.1 C 48.9 60.1 48.5 60.1 48.6 60.3 C 47.4 60.1 47.5 59.7 46.4 59.7 C 46.7 59.7 46.7 60.5 46.5 60.7 C 46.4 60.6 46.1 60.5 45.6 60.3 C 46.2 60.2 46.1 59.2 44.5 59.2 C 45.3 59.3 45.6 59.5 45.4 59.6 C 44.2 59.4 43.8 59.2 42.8 58.9 C 42.6 59.2 43.3 59.3 43.0 59.6 C 42.8 59.5 42.7 59.5 42.7 59.7 C 41.6 59.4 41.7 59.2 40.5 59.1 C 40.5 58.9 40.8 59.0 41.1 59.2 C 41.1 58.9 41.2 58.8 41.8 58.9 C 41.9 59.1 41.4 59.2 42.4 59.4 C 42.5 59.2 42.5 59.1 42.5 59.0 C 41.8 58.8 40.2 58.2 40.0 58.3 C 40.3 58.5 40.9 58.7 40.5 58.9 C 39.3 58.5 39.1 58.2 38.1 57.8 C 36.4 57.5 33.6 56.6 33.8 57.1 C 32.8 56.7 33.2 56.8 32.3 56.5 C 32.5 56.8 31.3 56.3 31.4 56.5 C 32.4 56.8 32.1 56.7 33.2 57.0 C 33.1 57.1 32.9 57.2 32.5 57.1 C 32.5 57.0 32.0 56.8 31.3 56.6 C 31.4 56.7 32.0 57.1 31.3 56.9 C 31.2 56.8 31.1 56.8 30.7 56.7 C 30.7 56.5 30.8 56.4 30.8 56.3 C 31.2 56.3 31.7 56.4 32.1 56.4 C 31.8 56.3 31.7 56.2 31.5 56.2 C 31.3 56.2 30.1 55.7 30.0 55.9 C 30.5 56.0 30.8 56.2 30.2 56.1 C 30.2 56.0 29.4 55.7 29.1 55.7 C 30.0 56.2 29.7 56.1 30.1 56.5 C 29.5 56.3 29.3 56.2 29.1 56.0 C 28.8 55.9 29.0 55.9 27.8 55.6 C 27.8 55.4 28.0 55.2 28.3 55.2 C 27.7 54.5 23.8 53.6 22.8 53.1 C 23.5 53.4 24.4 53.4 23.4 53.0 C 23.3 53.1 22.5 52.7 22.4 52.8 C 21.8 53.0 22.7 53.6 23.4 54.2 C 22.5 53.9 22.3 53.9 21.5 53.5 C 21.3 53.3 22.3 53.3 21.3 52.8 C 21.0 53.1 19.5 52.1 19.1 52.2 C 19.7 52.5 20.1 52.8 19.4 52.5 C 19.6 52.4 18.2 51.9 18.3 51.7 C 19.4 52.1 19.8 52.1 20.5 52.4 C 19.6 52.0 21.2 52.5 19.7 51.8 C 19.0 51.7 18.6 51.7 17.1 51.0 C 16.6 50.7 17.2 50.7 16.5 50.3 C 16.6 50.6 15.1 49.9 16.1 50.2 C 15.6 49.9 15.3 49.7 15.1 49.5 C 15.7 50.1 12.2 48.4 12.6 48.9 C 12.8 48.6 12.8 48.2 12.7 48.0 C 11.9 47.9 11.3 47.3 9.8 46.2 C 9.7 46.4 9.6 46.0 9.0 45.6 C 8.8 45.6 9.2 46.0 8.8 45.7 C 8.2 45.1 8.2 45.1 8.2 44.9 C 7.7 44.5 7.4 44.1 7.2 43.9 C 7.2 43.9 7.2 44.1 7.3 44.3 C 5.9 42.5 5.0 41.8 4.1 40.3 C 4.3 41.0 4.8 40.9 4.4 40.4 C 4.2 40.1 4.0 39.9 3.8 39.7 C 3.8 40.2 3.8 40.0 3.4 39.2 C 3.0 38.6 3.2 39.7 2.9 39.2 C 2.8 38.5 3.0 38.8 3.0 38.4 C 2.8 38.2 2.7 37.9 2.6 37.6 C 2.7 38.2 2.4 37.6 2.1 37.2 C 2.5 37.4 2.4 37.2 2.1 36.2 C 2.2 36.1 2.4 36.6 2.3 36.2 C 2.3 35.9 1.8 35.2 1.9 34.5 C 2.0 34.7 2.0 34.8 2.1 34.7 C 1.8 34.0 2.1 33.4 2.2 32.7 C 2.0 33.4 1.8 33.0 1.7 33.3 C 1.9 32.6 1.6 31.7 2.0 31.2 C 1.8 32.2 2.5 31.3 2.6 30.7 C 2.3 30.6 2.2 31.6 2.0 31.2 C 1.8 30.9 2.3 30.2 2.2 29.8 C 2.0 29.8 2.1 30.3 2.0 30.3 C 2.1 29.8 1.8 30.5 1.9 30.0 C 2.2 29.8 1.9 29.4 2.0 29.1 C 2.2 28.8 2.8 28.2 2.8 27.8 C 2.7 27.7 2.5 28.3 2.4 28.3 C 2.8 26.7 3.4 26.4 4.0 25.0 C 4.2 24.9 4.4 24.6 4.7 24.3 C 4.6 24.2 4.7 24.0 4.9 23.7 C 5.4 23.2 6.0 22.7 6.7 22.1 C 6.7 22.4 6.5 22.8 7.4 21.9 C 7.3 21.8 6.9 22.1 7.2 21.8 C 7.3 21.8 7.5 21.6 7.5 21.5 C 7.5 21.5 7.4 21.4 7.4 21.4 C 7.1 21.7 6.9 21.9 6.7 22.1 C 6.6 22.0 6.4 22.0 6.2 22.1 C 7.1 21.0 7.4 21.4 8.0 20.6 C 8.4 20.8 8.7 20.6 8.3 21.4 C 8.8 20.7 9.2 20.2 9.3 19.9 C 8.5 20.6 8.6 20.2 8.3 20.3 C 8.8 19.9 8.7 19.8 8.9 19.5 C 9.7 19.1 8.5 20.4 9.8 19.4 C 8.7 19.9 10.5 18.6 11.2 18.2 C 11.0 18.2 10.8 18.3 11.1 18.0 C 12.9 16.6 13.2 17.4 14.2 16.3 C 14.2 16.5 14.8 16.1 15.1 16.1 C 14.0 16.7 13.8 16.9 13.4 17.2 C 13.5 17.3 13.8 17.1 14.1 17.0 C 14.1 16.8 14.3 16.7 14.8 16.5 C 15.1 16.2 14.8 15.9 15.5 15.3 C 15.7 15.3 15.6 15.5 16.1 15.3 C 16.4 14.9 15.9 15.8 17.7 14.7 C 17.4 14.8 17.1 14.8 17.2 14.6 C 18.1 14.0 17.9 14.2 19.2 13.5 C 19.8 13.7 18.5 14.4 18.2 14.8 C 19.1 14.3 19.7 13.7 20.7 13.5 C 19.9 13.7 20.5 13.2 21.3 12.7 C 22.1 12.5 21.4 13.1 22.4 12.7 C 23.1 12.4 23.5 12.0 22.7 12.2 C 24.4 11.6 23.9 11.5 25.4 11.0 C 25.5 11.1 25.1 11.3 24.5 11.4 C 24.6 11.4 24.5 11.6 25.1 11.4 C 26.0 10.9 28.1 10.1 28.7 9.7 C 30.1 9.8 31.5 8.8 32.9 8.5 C 32.4 9.0 34.6 8.1 35.3 8.2 C 35.7 8.0 36.9 7.2 36.5 7.5 C 36.7 7.8 37.4 7.5 38.1 7.4 C 38.1 7.3 38.1 7.2 38.0 7.2 C 39.4 6.8 39.8 7.0 40.3 7.0 C 42.0 6.5 44.0 6.4 46.1 5.8 C 46.7 5.9 47.1 5.8 48.5 5.7 C 48.4 5.5 49.4 5.3 50.4 5.2 C 50.1 5.0 51.0 4.9 51.0 4.7 C 50.1 4.9 50.4 4.5 49.9 4.5 C 51.2 4.6 51.7 4.0 52.6 4.1 C 51.5 4.4 51.2 4.7 51.1 5.1 C 52.4 4.8 53.2 4.8 53.5 5.0 C 53.6 4.8 53.4 4.7 53.1 4.7 C 53.5 4.6 54.0 4.5 54.4 4.5 C 54.6 4.6 54.0 4.7 54.5 4.7 C 54.8 4.6 55.1 4.4 55.5 4.3 C 55.9 4.5 54.9 4.6 54.8 4.7 C 56.7 4.6 55.8 4.2 56.8 4.0 C 57.1 4.1 57.1 4.4 57.9 4.3 C 58.2 4.1 58.3 3.9 59.2 3.8 C 59.9 3.7 59.2 4.1 60.0 4.1 C 60.1 4.0 60.4 4.0 60.7 4.0 C 60.6 3.9 60.9 3.8 61.3 3.7 C 61.4 3.8 62.1 3.6 62.4 3.6 C 62.5 3.7 63.6 3.9 63.8 3.7 C 63.8 3.6 63.2 3.6 63.1 3.6 C 63.9 3.5 64.4 3.4 64.8 3.3 C 65.1 3.8 66.4 3.3 68.1 3.4 C 69.0 3.2 67.8 3.0 69.1 2.8 C 69.9 2.9 68.9 3.0 69.1 3.3 C 69.3 3.3 70.5 3.4 70.5 3.2 C 70.5 3.1 69.9 3.2 69.8 3.1 C 70.8 2.8 70.7 3.1 71.3 3.1 C 71.2 2.9 71.8 2.9 71.9 2.7 C 74.5 2.4 74.5 2.8 75.6 3.0 C 75.6 2.9 76.2 2.9 76.3 2.8 C 75.5 2.9 74.5 2.7 75.6 2.7 C 75.4 2.8 76.9 2.6 77.0 2.5 C 76.8 2.4 75.9 2.5 76.2 2.2 C 77.6 2.1 77.1 2.6 78.1 2.3 C 78.2 2.5 77.6 2.5 77.3 2.6 C 77.8 2.6 78.4 2.5 78.4 2.6 C 77.9 2.7 77.9 2.9 77.7 3.0 C 78.4 2.8 79.7 3.0 78.8 2.7 C 80.2 2.7 81.6 2.5 80.6 2.3 C 81.8 2.2 81.1 2.6 82.1 2.4 C 81.9 2.6 81.7 2.8 82.4 3.0 C 82.6 2.8 83.2 2.8 83.1 2.6 C 84.9 2.6 85.4 2.8 86.1 3.0 C 85.4 2.7 86.3 3.0 87.1 2.7 C 87.7 2.8 87.2 3.1 88.6 3.0 C 87.1 2.7 90.3 3.0 89.7 2.6 C 91.5 2.8 91.4 2.8 93.3 2.9 C 93.1 3.1 92.6 3.2 91.8 3.2 C 92.4 3.0 90.3 2.9 90.4 3.1 C 90.4 3.1 90.4 3.2 90.4 3.2 C 91.8 3.2 92.7 3.3 93.3 3.4 C 93.6 3.3 94.2 3.2 94.0 2.9 C 95.3 3.3 96.7 2.9 97.3 3.2 C 96.8 3.2 96.4 3.2 96.5 3.3 C 97.0 3.3 97.7 3.2 97.6 3.0 C 96.6 2.9 96.4 2.9 95.8 3.0 C 96.3 2.9 94.8 2.7 95.8 2.6 C 95.8 3.0 98.0 2.5 97.3 2.8 C 96.1 2.9 98.6 3.0 98.7 3.2 C 98.7 3.2 98.7 3.2 98.7 3.2 Z M 125.4 60.2 C 126.3 59.9 125.1 59.9 124.3 60.0 C 124.6 60.1 124.7 60.2 124.7 60.3 C 125.0 60.2 125.3 60.1 125.4 60.2 C 125.4 60.2 125.4 60.2 125.4 60.2 Z M 114.1 58.3 C 113.8 58.6 115.5 58.2 116.2 58.2 C 116.0 58.1 115.7 58.1 116.2 58.0 C 115.4 57.9 115.2 58.4 114.1 58.3 C 114.1 58.3 114.1 58.3 114.1 58.3 Z M 74.9 60.4 C 75.2 60.4 75.9 60.4 75.9 60.5 C 76.3 60.5 76.2 60.3 76.3 60.3 C 77.2 60.3 76.1 60.6 77.4 60.5 C 77.9 60.1 75.2 59.9 74.9 60.4 C 74.9 60.4 74.9 60.4 74.9 60.4 Z M 85.0 6.5 C 85.5 6.7 84.3 6.9 84.6 7.1 C 86.6 6.9 85.1 6.6 87.8 6.7 C 87.6 6.6 87.4 6.6 87.5 6.5 C 86.2 6.6 86.1 6.7 86.4 6.3 C 85.8 6.3 85.7 6.8 85.0 6.5 C 85.0 6.5 85.0 6.5 85.0 6.5 Z M 110.3 8.7 C 110.1 8.7 109.9 8.6 109.9 8.5 C 109.1 8.5 109.3 8.6 108.2 8.4 C 108.3 8.7 109.3 8.8 110.3 8.7 C 110.3 8.7 110.3 8.7 110.3 8.7 Z M 165.4 30.3 C 165.5 30.4 165.5 30.5 165.5 30.6 C 165.7 30.5 166.1 30.7 165.8 30.2 C 165.7 30.2 165.7 30.3 165.8 30.4 C 165.7 30.3 165.6 30.0 165.4 30.1 C 165.5 30.3 165.5 30.3 165.4 30.3 C 165.4 30.3 165.4 30.3 165.4 30.3 Z M 158.2 45.7 C 159.3 44.7 156.0 46.1 158.2 45.7 C 158.2 45.7 158.2 45.7 158.2 45.7 C 158.2 45.7 158.2 45.7 158.2 45.7 Z M 162.3 46.4 C 162.3 46.5 162.6 46.2 162.5 46.2 C 163.6 45.6 162.7 46.3 163.3 46.0 C 163.9 45.3 162.7 46.0 163.5 45.2 C 163.2 45.2 162.8 46.0 162.3 46.4 C 162.3 46.4 162.3 46.4 162.3 46.4 Z M 12.9 17.2 C 12.0 17.9 11.9 18.2 11.9 18.6 C 12.5 18.2 13.0 17.9 13.3 17.9 C 14.4 17.0 12.4 18.2 12.2 18.3 C 12.2 18.0 13.0 17.4 12.9 17.2 C 12.9 17.2 12.9 17.2 12.9 17.2 Z M 10.1 19.3 C 9.9 19.6 9.4 20.1 9.5 20.2 C 10.0 19.8 10.1 19.9 10.2 19.9 C 10.6 19.5 9.9 19.8 10.1 19.3 C 10.1 19.3 10.1 19.3 10.1 19.3 Z M 15.9 15.9 C 15.4 16.1 15.7 16.2 15.7 16.4 C 16.3 16.0 16.5 16.0 17.2 15.6 C 17.2 15.6 17.1 15.5 17.1 15.4 C 16.5 15.7 16.5 15.8 16.0 16.1 C 16.0 16.0 15.9 15.9 15.9 15.9 C 15.9 15.9 15.9 15.9 15.9 15.9 Z M 8.0 21.5 C 6.6 22.7 6.5 23.6 6.1 24.6 C 6.8 23.7 7.2 22.5 7.9 22.0 C 8.6 21.2 7.5 22.1 7.5 22.1 C 7.5 22.0 7.8 21.7 8.0 21.5 C 8.0 21.5 8.0 21.5 8.0 21.5 Z M 2.3 33.5 C 2.1 33.9 2.6 34.4 2.7 35.2 C 2.7 35.0 2.7 34.9 2.9 34.9 C 2.7 33.7 2.4 34.5 2.3 33.5 C 2.3 33.5 2.3 33.5 2.3 33.5 Z M 4.7 40.2 C 5.2 40.9 4.6 39.8 5.0 40.0 C 4.5 39.3 4.2 38.5 3.9 38.7 C 4.5 39.4 4.6 39.5 4.7 40.2 C 4.7 40.2 4.7 40.2 4.7 40.2 Z M 8.5 44.5 C 9.3 45.1 8.4 44.0 8.9 44.1 C 8.6 43.8 8.6 44.0 8.5 44.1 C 8.3 43.8 8.1 43.6 7.8 43.3 C 7.9 43.6 8.8 44.4 8.5 44.5 C 8.5 44.5 8.5 44.5 8.5 44.5 Z M 39.2 7.9 C 38.7 8.1 38.9 8.3 37.7 8.6 C 39.5 8.1 38.7 9.1 40.9 8.4 C 40.6 8.4 40.8 8.3 40.9 8.4 C 41.8 8.0 40.1 8.4 40.8 8.0 C 40.2 8.1 40.6 8.3 40.0 8.5 C 39.3 8.4 38.9 8.4 39.2 7.9 C 39.2 7.9 39.2 7.9 39.2 7.9 Z M 41.0 8.7 C 41.6 8.6 41.5 8.1 41.9 8.3 C 42.2 8.2 42.1 8.2 42.2 8.1 C 41.9 8.1 41.9 8.1 41.9 8.1 C 41.3 8.3 40.8 8.5 41.0 8.7 C 41.0 8.7 41.0 8.7 41.0 8.7 Z M 35.2 10.1 C 36.2 9.7 36.5 9.8 37.0 9.5 C 37.4 9.7 37.6 9.2 38.2 9.3 C 39.2 9.0 38.5 9.1 38.1 9.0 C 39.1 8.7 38.4 9.2 39.4 8.9 C 39.5 8.6 38.3 8.9 38.4 8.6 C 37.6 8.8 37.7 9.0 37.2 9.2 C 36.9 9.3 36.9 9.1 36.9 9.0 C 36.0 9.3 36.0 9.1 35.3 9.3 C 35.2 9.6 35.5 9.6 36.3 9.3 C 35.5 9.6 35.2 9.9 34.3 10.0 C 34.8 9.6 31.9 10.4 32.2 10.7 C 33.0 10.5 32.7 10.4 33.0 10.2 C 34.1 10.1 34.7 9.9 35.2 10.1 C 35.2 10.1 35.2 10.1 35.2 10.1 Z M 16.7 16.4 C 16.3 16.5 16.0 16.6 15.5 16.9 C 15.4 16.7 16.0 16.4 15.4 16.6 C 14.6 17.0 14.5 17.2 14.0 17.5 C 14.3 17.4 16.0 16.8 15.3 17.3 C 15.6 17.3 16.1 17.0 16.8 16.7 C 15.8 16.8 17.9 16.1 18.7 15.7 C 18.4 15.4 20.1 15.1 20.6 14.6 C 20.1 14.6 18.5 15.6 17.8 15.9 C 18.1 15.7 15.7 16.4 16.7 16.4 C 16.7 16.4 16.7 16.4 16.7 16.4 Z M 43.5 8.0 C 43.6 7.9 44.4 7.7 43.8 7.7 C 44.0 7.6 44.7 7.6 44.3 7.3 C 44.7 7.2 45.0 7.2 45.3 7.1 C 45.2 7.3 44.3 7.4 44.7 7.6 C 45.4 7.3 45.1 7.5 46.0 7.3 C 45.6 7.6 46.1 7.5 45.8 7.9 C 46.0 7.7 46.8 7.6 46.7 7.4 C 48.0 7.2 46.4 7.8 48.1 7.5 C 48.1 7.7 46.9 7.9 46.5 7.9 C 46.3 8.1 48.5 7.6 49.7 7.4 C 48.6 7.4 49.4 7.1 50.0 6.8 C 50.4 6.8 50.0 6.9 50.7 7.0 C 51.2 6.9 51.5 6.7 51.7 6.8 C 52.1 6.7 51.9 6.6 52.0 6.4 C 52.7 6.3 52.2 6.8 53.3 6.5 C 52.4 6.3 53.4 6.1 55.0 6.0 C 54.9 5.9 54.4 5.9 54.3 5.8 C 54.5 5.6 55.4 5.8 55.7 5.9 C 56.2 5.8 55.8 5.7 55.3 5.8 C 55.6 5.6 56.0 5.5 56.3 5.4 C 54.6 5.6 52.0 6.0 48.9 6.2 C 49.5 6.3 48.8 6.5 47.9 6.5 C 47.8 6.4 48.1 6.3 48.5 6.3 C 47.4 6.2 47.6 6.8 46.0 6.9 C 45.1 7.0 46.9 6.5 45.9 6.6 C 45.3 6.8 44.9 7.1 44.6 6.8 C 43.6 7.2 43.4 7.5 41.8 7.8 C 42.7 7.8 43.2 8.2 44.1 7.9 C 44.1 7.8 43.7 7.9 43.5 8.0 C 43.5 8.0 43.5 8.0 43.5 8.0 Z M 10.3 20.0 C 9.8 20.4 9.7 20.7 9.5 20.7 C 8.7 21.4 9.8 20.8 10.0 20.7 C 10.3 20.4 10.3 20.2 10.3 20.0 C 10.3 20.0 10.3 20.0 10.3 20.0 Z M 79.4 62.7 C 80.8 62.8 80.5 62.5 81.6 62.5 C 80.8 62.4 80.6 62.2 79.1 62.2 C 79.0 62.4 79.0 62.6 79.4 62.7 C 79.4 62.7 79.4 62.7 79.4 62.7 Z M 13.4 18.1 C 14.1 17.3 12.7 18.9 12.5 18.7 C 11.7 19.5 13.4 18.3 12.7 19.1 C 13.4 18.4 14.0 18.3 15.0 17.6 C 14.8 17.5 14.0 17.9 13.2 18.5 C 13.1 18.4 13.5 18.1 13.4 18.1 C 13.4 18.1 13.4 18.1 13.4 18.1 Z M 65.6 61.2 C 64.6 61.3 66.4 61.7 66.9 61.9 C 67.0 61.6 66.7 61.6 65.6 61.2 C 65.6 61.2 65.6 61.2 65.6 61.2 Z M 88.8 62.4 C 89.4 62.1 87.2 62.4 87.8 62.1 C 87.1 62.1 87.1 62.2 87.0 62.2 C 86.7 62.2 85.7 62.2 86.0 62.0 C 85.8 61.8 87.6 62.1 87.0 61.8 C 87.6 61.7 87.7 61.8 88.1 61.8 C 87.1 61.8 87.5 62.1 88.8 62.2 C 88.8 61.9 88.2 62.0 88.8 61.8 C 88.9 61.9 89.6 62.1 89.6 62.5 C 90.7 62.4 90.0 62.0 91.3 62.0 C 91.2 61.9 90.4 61.9 89.9 61.8 C 90.0 61.6 91.3 62.0 91.0 61.7 C 91.3 61.8 92.0 61.9 92.1 62.2 C 91.1 62.3 90.4 62.5 89.6 62.6 C 90.3 62.8 91.4 62.2 92.8 62.4 C 92.6 62.2 93.5 62.2 93.2 62.0 C 94.2 62.0 93.7 62.4 93.5 62.4 C 93.8 62.5 95.8 62.4 95.7 62.2 C 95.8 62.4 98.3 62.2 98.2 61.9 C 98.9 62.1 100.0 61.6 100.3 62.0 C 100.8 61.8 101.6 61.8 102.5 61.7 C 102.7 61.5 101.2 61.7 101.1 61.5 C 100.8 61.3 102.7 61.5 102.5 61.3 C 102.5 61.2 102.5 61.2 102.5 61.1 C 101.7 61.2 101.0 61.4 100.3 61.5 C 99.8 61.5 100.5 61.4 100.3 61.2 C 99.8 61.4 97.5 61.8 97.5 61.4 C 95.9 61.6 94.8 61.5 94.2 61.7 C 93.3 61.7 94.7 61.6 94.2 61.4 C 91.5 61.8 88.2 61.5 86.0 61.8 C 85.5 61.8 85.7 61.6 85.6 61.5 C 82.5 61.7 85.1 62.0 82.7 61.9 C 82.7 61.7 83.9 61.7 83.8 61.5 C 83.0 61.5 82.7 61.6 81.6 61.5 C 81.6 61.7 81.6 61.8 81.6 61.9 C 80.7 61.8 81.1 61.6 80.6 61.4 C 79.4 61.5 79.7 61.6 79.1 61.3 C 78.1 61.4 77.0 61.4 75.9 61.3 C 75.2 61.4 76.5 61.9 77.7 61.9 C 77.6 62.0 77.3 62.0 77.3 62.1 C 76.0 61.8 75.8 61.3 73.8 61.2 C 75.3 61.5 73.0 61.2 72.7 61.0 C 71.9 61.0 72.5 61.4 73.0 61.4 C 72.9 61.5 72.4 61.3 72.3 61.2 C 72.2 61.6 74.1 61.9 76.2 61.9 C 75.3 62.2 77.7 61.9 76.6 62.3 C 78.3 62.3 76.8 62.0 78.7 62.1 C 78.6 62.0 78.2 61.9 78.0 61.8 C 79.5 61.8 79.0 62.1 80.6 62.1 C 80.8 61.9 79.8 61.9 79.8 61.7 C 81.5 62.0 82.0 62.1 83.1 62.4 C 83.3 62.2 83.0 62.0 84.9 62.2 C 84.9 62.2 84.9 62.3 84.9 62.3 C 84.0 62.3 83.8 62.7 86.0 62.7 C 86.1 62.6 85.4 62.6 84.9 62.6 C 85.1 62.4 85.8 62.4 86.7 62.3 C 87.1 62.4 87.6 62.5 87.0 62.5 C 87.4 62.7 87.7 62.3 88.8 62.4 C 88.8 62.4 88.8 62.4 88.8 62.4 Z M 2.9 32.2 C 2.9 32.4 2.9 32.6 2.9 33.0 C 3.1 33.2 3.1 32.5 3.2 32.5 C 3.3 31.9 3.0 32.3 2.9 32.2 C 2.9 32.2 2.9 32.2 2.9 32.2 Z M 5.7 25.1 C 5.5 25.0 5.5 25.5 5.1 26.0 C 5.2 26.3 5.6 25.6 5.7 25.7 C 6.2 25.1 5.2 25.7 5.7 25.1 C 5.7 25.1 5.7 25.1 5.7 25.1 Z M 4.0 28.0 C 3.7 28.2 4.0 28.3 4.2 27.8 C 4.3 27.9 4.4 28.1 4.3 28.4 C 4.7 28.2 4.4 27.7 4.8 27.2 C 4.6 27.3 4.3 27.6 4.0 28.0 C 4.0 28.0 4.0 28.0 4.0 28.0 Z M 3.6 29.0 C 3.7 29.5 3.4 29.7 3.4 30.4 C 3.6 30.2 3.9 28.8 3.9 28.6 C 3.8 28.3 3.3 29.8 3.6 29.0 C 3.6 29.0 3.6 29.0 3.6 29.0 Z M 51.9 59.2 C 52.2 59.3 52.2 59.2 52.3 59.1 C 53.2 59.6 54.7 59.8 53.5 60.0 C 54.6 59.9 55.6 60.4 56.5 60.5 C 57.3 60.7 57.0 60.4 57.6 60.4 C 58.6 60.6 57.0 60.5 57.2 60.6 C 57.4 60.9 57.8 60.5 58.9 60.8 C 58.7 60.3 60.0 60.9 59.7 60.5 C 60.3 60.7 60.5 60.6 61.4 60.7 C 61.3 60.5 60.5 60.4 60.4 60.2 C 60.0 59.9 59.9 60.4 60.7 60.4 C 60.2 60.6 59.1 60.1 58.7 60.3 C 58.3 59.9 59.8 60.3 59.4 60.0 C 59.1 60.0 58.8 60.0 58.7 60.1 C 58.2 60.0 57.9 59.9 57.7 59.7 C 58.0 59.8 58.0 59.8 58.0 59.9 C 58.6 59.9 57.4 59.4 58.8 59.5 C 58.5 59.4 58.0 59.4 58.1 59.2 C 57.7 59.0 58.0 59.9 56.7 59.4 C 55.7 59.6 58.8 60.0 57.9 60.3 C 56.0 60.0 57.2 59.8 55.6 59.5 C 55.6 59.7 55.7 59.8 55.3 59.7 C 55.3 59.8 55.9 59.9 56.3 59.9 C 56.2 60.0 55.6 59.9 55.2 59.9 C 55.3 60.0 55.6 60.0 55.6 60.1 C 54.3 59.8 54.5 59.3 55.7 59.4 C 55.7 59.2 54.1 59.0 53.6 59.0 C 54.0 59.3 53.6 59.2 53.9 59.5 C 54.2 59.5 54.2 59.4 54.3 59.4 C 54.9 59.5 54.3 59.5 54.3 59.6 C 53.6 59.4 53.6 59.3 52.9 59.3 C 53.1 59.3 53.3 59.2 53.3 59.1 C 53.0 59.1 52.6 59.0 52.3 59.0 C 52.3 59.1 51.9 59.1 51.9 59.2 C 51.9 59.2 51.9 59.2 51.9 59.2 Z M 69.8 61.9 C 71.0 62.0 70.4 61.8 69.8 61.7 C 70.1 61.7 70.5 61.7 70.9 61.6 C 70.5 61.5 70.2 61.6 69.1 61.4 C 70.1 61.2 69.1 60.7 67.4 60.6 C 66.8 61.0 68.3 61.2 67.7 61.4 C 69.0 61.4 69.7 61.6 69.8 61.9 C 69.8 61.9 69.8 61.9 69.8 61.9 Z M 10.0 20.8 C 9.5 21.2 9.0 21.7 8.5 22.1 C 8.7 22.2 10.4 21.0 10.0 20.8 C 10.0 20.8 10.0 20.8 10.0 20.8 Z M 57.7 5.5 C 58.0 5.5 58.0 5.5 58.1 5.6 C 59.1 5.4 57.6 5.4 58.0 5.2 C 57.6 5.2 57.3 5.3 57.0 5.3 C 56.9 5.4 58.4 5.4 57.3 5.6 C 57.4 5.7 57.7 5.6 57.7 5.5 C 57.7 5.5 57.7 5.5 57.7 5.5 Z M 3.2 31.7 C 3.3 32.2 3.6 31.9 3.5 33.0 C 3.7 32.6 3.6 32.3 3.6 31.7 C 3.5 31.7 3.4 31.7 3.2 31.7 C 3.2 31.7 3.2 31.7 3.2 31.7 Z M 46.9 58.8 C 47.7 59.2 48.0 58.7 49.5 59.1 C 48.8 58.6 47.8 58.9 46.9 58.8 C 46.9 58.8 46.9 58.8 46.9 58.8 Z M 105.3 61.1 C 104.8 61.1 105.4 61.0 104.6 61.0 C 104.1 61.1 103.9 61.2 103.2 61.3 C 104.2 61.5 106.0 61.1 106.7 61.4 C 107.6 61.3 107.5 61.1 107.7 60.9 C 107.3 60.9 107.1 60.9 107.0 60.8 C 106.6 61.2 105.9 60.7 105.3 61.1 C 105.3 61.1 105.3 61.1 105.3 61.1 Z M 65.2 61.1 C 64.6 60.9 65.7 60.9 66.0 60.8 C 66.4 60.9 66.3 61.0 66.3 61.1 C 66.9 61.2 67.1 61.1 67.0 60.9 C 65.9 60.7 64.4 60.6 65.3 60.3 C 64.2 60.1 64.8 60.5 64.2 60.5 C 63.6 60.3 64.2 60.3 64.3 60.1 C 64.0 60.1 63.1 60.3 63.2 60.0 C 61.5 60.1 62.2 60.6 63.5 61.1 C 64.6 61.0 63.3 60.7 65.2 61.1 C 65.2 61.1 65.2 61.1 65.2 61.1 Z M 22.9 51.6 C 23.0 51.7 23.7 52.0 23.7 52.1 C 24.7 52.3 25.7 52.4 26.7 52.5 C 26.6 52.2 25.2 51.9 25.7 52.3 C 25.4 52.0 24.5 51.5 24.1 51.2 C 23.2 50.8 22.7 51.2 22.7 50.7 C 21.8 50.5 22.3 50.7 21.0 50.1 C 23.0 51.2 20.2 49.9 20.0 50.1 C 21.2 50.6 22.3 51.1 22.2 50.8 C 23.1 51.3 24.1 51.8 24.2 52.0 C 24.1 52.1 23.4 51.8 22.9 51.6 C 22.9 51.6 22.9 51.6 22.9 51.6 Z M 28.7 53.0 C 28.3 52.9 27.9 52.8 27.2 52.6 C 27.6 52.8 27.7 52.9 27.6 53.0 C 28.8 53.5 29.0 53.3 29.2 53.6 C 29.8 53.9 29.1 53.3 30.1 53.7 C 30.0 53.6 29.5 53.5 29.6 53.4 C 29.4 53.5 29.2 53.5 28.7 53.0 C 28.7 53.0 28.7 53.0 28.7 53.0 Z M 37.6 56.1 C 38.4 56.3 37.2 55.9 37.7 55.8 C 37.4 55.8 36.0 55.3 36.2 55.2 C 35.9 54.7 34.2 55.0 34.5 54.6 C 34.1 54.5 34.2 54.7 34.1 54.7 C 35.2 55.0 35.1 55.2 34.4 55.0 C 34.4 55.1 35.1 55.3 35.5 55.4 C 35.6 55.3 35.2 55.1 35.3 55.0 C 36.2 55.4 36.8 55.7 37.6 56.1 C 37.6 56.1 37.6 56.1 37.6 56.1 Z M 96.4 4.4 C 95.6 4.3 95.1 4.4 94.6 4.4 C 94.9 4.6 95.3 4.5 95.7 4.5 C 95.8 4.6 95.4 4.6 95.0 4.6 C 95.4 4.8 96.9 4.7 96.4 4.4 C 96.4 4.4 96.4 4.4 96.4 4.4 Z M 89.3 4.2 C 88.5 4.2 87.9 4.2 87.8 4.4 C 88.1 4.5 88.0 4.3 88.6 4.3 C 88.9 4.4 89.1 4.5 89.3 4.6 C 89.6 4.6 89.5 4.5 89.6 4.4 C 89.9 4.4 90.0 4.4 90.0 4.5 C 91.0 4.3 88.8 4.5 89.3 4.2 C 89.3 4.2 89.3 4.2 89.3 4.2 Z M 32.6 54.6 C 32.4 54.4 32.2 54.2 31.5 54.0 C 31.6 54.2 31.1 54.0 30.6 53.9 C 31.2 54.3 31.6 54.3 32.6 54.6 C 32.6 54.6 32.6 54.6 32.6 54.6 Z M 45.8 8.1 C 44.8 8.0 45.0 8.4 43.6 8.5 C 43.6 8.6 43.6 8.7 43.6 8.8 C 44.4 8.4 44.8 8.5 45.8 8.1 C 45.8 8.1 45.8 8.1 45.8 8.1 Z M 168.4 38.0 C 168.3 37.8 168.0 38.6 167.8 38.5 C 168.1 38.9 167.4 38.9 166.5 40.2 C 166.4 40.2 166.4 40.1 166.5 39.9 C 165.7 40.9 167.0 39.8 167.2 39.8 C 167.8 38.9 168.0 38.9 168.4 38.0 C 168.4 38.0 168.4 38.0 168.4 38.0 Z M 94.6 61.0 C 94.5 61.1 94.7 61.1 94.9 61.1 C 95.2 61.1 95.4 61.1 95.6 61.1 C 95.5 60.7 94.4 60.6 95.2 60.3 C 94.9 60.3 94.9 60.3 94.9 60.4 C 93.2 61.1 91.8 60.0 89.5 60.5 C 89.2 60.5 89.3 60.6 89.2 60.6 C 89.5 60.6 89.5 60.7 89.5 60.7 C 89.8 60.4 91.9 60.7 91.0 60.9 C 91.0 60.9 91.3 60.9 91.3 60.8 C 91.6 60.8 91.8 60.8 92.1 60.8 C 91.9 60.7 91.4 60.7 91.3 60.6 C 92.5 60.7 93.9 60.7 93.1 61.0 C 93.8 61.0 94.1 60.9 94.6 60.8 C 95.0 60.8 95.0 61.0 94.6 61.0 C 94.6 61.0 94.6 61.0 94.6 61.0 Z M 103.8 60.5 C 104.9 60.4 104.5 60.2 105.6 60.2 C 104.9 60.0 104.0 60.4 103.1 60.3 C 103.2 60.4 103.7 60.3 103.8 60.5 C 103.8 60.5 103.8 60.5 103.8 60.5 Z M 83.1 60.7 C 83.3 60.4 82.3 60.4 81.3 60.3 C 81.1 60.6 82.0 60.7 83.1 60.7 C 83.1 60.7 83.1 60.7 83.1 60.7 Z M 87.8 60.7 C 88.8 60.6 86.4 60.7 87.0 60.4 C 86.5 60.4 86.0 60.4 86.0 60.3 C 85.6 60.4 85.6 60.5 84.9 60.5 C 84.9 60.6 86.1 60.5 86.0 60.7 C 86.8 60.6 86.9 60.6 87.8 60.7 C 87.8 60.7 87.8 60.7 87.8 60.7 Z M 88.5 60.7 C 89.2 60.6 88.3 60.2 87.4 60.2 C 87.7 60.4 87.9 60.6 88.5 60.7 C 88.5 60.7 88.5 60.7 88.5 60.7 Z M 9.7 42.3 C 10.0 42.6 9.9 42.2 10.3 42.5 C 10.3 42.5 9.0 41.2 10.2 42.2 C 9.9 41.6 9.4 41.7 9.0 41.2 C 9.1 41.4 9.2 41.6 8.9 41.4 C 8.6 41.4 10.0 42.3 9.7 42.3 C 9.7 42.3 9.7 42.3 9.7 42.3 Z M 11.1 43.6 C 11.4 43.8 11.3 43.6 11.1 43.5 C 11.2 43.5 11.6 43.8 11.9 44.0 C 11.9 44.1 11.6 43.3 11.8 43.2 C 10.4 42.3 11.2 43.3 11.1 43.6 C 11.1 43.6 11.1 43.6 11.1 43.6 Z M 12.5 44.4 C 13.2 45.3 14.7 46.1 15.5 46.3 C 14.9 45.6 13.1 44.5 12.5 44.4 C 12.5 44.4 12.5 44.4 12.5 44.4 Z M 6.2 37.5 C 6.6 38.9 8.7 41.2 7.4 38.8 C 7.3 39.0 6.3 37.6 6.1 36.8 C 6.0 36.8 5.5 36.1 5.6 36.0 C 5.2 35.5 6.2 37.9 6.2 37.5 C 6.2 37.5 6.2 37.5 6.2 37.5 Z M 17.1 46.7 C 16.5 46.5 17.0 47.3 16.2 46.7 C 15.7 46.4 16.3 46.8 16.1 46.9 C 17.1 47.5 19.6 48.4 19.7 48.8 C 20.3 49.0 20.6 48.9 21.8 49.5 C 21.9 49.4 17.6 47.7 17.0 46.8 C 17.1 46.8 18.5 47.5 17.1 46.7 C 17.1 46.7 17.1 46.7 17.1 46.7 Z M 46.1 9.5 C 46.2 9.3 44.9 9.7 45.1 9.4 C 44.4 9.8 43.7 9.8 43.0 10.1 C 42.7 10.1 42.7 9.7 41.6 9.9 C 41.6 10.1 42.2 10.0 41.7 10.2 C 40.7 10.5 40.9 10.2 39.8 10.5 C 40.1 10.9 37.5 11.2 37.8 11.5 C 38.4 11.3 38.3 11.1 39.3 11.0 C 39.6 10.9 39.5 11.1 39.9 11.0 C 39.7 11.3 39.1 11.1 38.7 11.4 C 38.9 11.5 39.6 11.3 39.7 11.4 C 40.1 11.3 39.6 11.4 39.7 11.2 C 40.8 10.9 39.7 11.8 41.0 11.4 C 40.7 11.2 40.7 11.2 40.9 10.9 C 41.4 10.9 43.0 10.4 42.2 10.9 C 42.3 11.0 43.2 10.6 43.0 10.4 C 43.5 10.3 43.6 10.4 43.7 10.5 C 45.0 10.1 45.1 9.8 44.8 9.7 C 45.1 9.4 45.3 9.7 46.1 9.5 C 46.1 9.5 46.1 9.5 46.1 9.5 Z M 5.4 30.6 C 5.4 30.1 5.4 31.2 5.2 31.7 C 5.4 31.1 5.6 31.3 5.8 30.7 C 5.7 30.9 5.6 30.8 5.7 30.4 C 5.6 30.3 5.3 31.2 5.4 30.6 C 5.4 30.6 5.4 30.6 5.4 30.6 Z M 24.3 50.5 C 24.7 50.9 27.1 51.6 28.4 52.1 C 28.3 51.7 25.1 51.1 24.8 50.6 C 24.1 50.3 25.1 50.8 24.3 50.5 C 24.3 50.5 24.3 50.5 24.3 50.5 Z M 34.4 11.9 C 34.1 12.0 34.3 12.0 34.5 12.0 C 34.4 12.1 33.8 12.2 33.3 12.4 C 34.0 12.4 33.3 12.7 33.5 12.9 C 33.1 12.9 33.0 13.0 32.9 13.1 C 32.8 12.7 31.2 13.9 33.0 13.4 C 32.6 13.3 32.8 13.2 33.5 12.9 C 34.3 12.9 34.9 12.5 35.3 12.7 C 35.8 12.5 36.0 12.3 36.7 12.1 C 36.9 12.3 37.6 12.2 37.1 12.7 C 38.4 12.3 37.4 12.0 38.5 11.7 C 39.5 11.5 38.0 12.1 38.3 12.2 C 38.6 12.1 38.5 12.2 38.6 12.3 C 39.0 12.2 39.0 12.0 38.6 12.0 C 38.7 11.9 39.7 11.5 39.5 11.8 C 40.1 11.6 38.3 11.3 37.6 11.8 C 37.1 12.0 37.0 11.5 37.5 11.4 C 37.2 11.3 36.4 12.0 36.5 11.5 C 36.1 11.6 35.8 11.7 35.4 11.8 C 35.4 11.9 35.7 11.8 35.7 11.9 C 35.3 12.0 34.9 12.1 34.5 12.2 C 34.8 12.0 34.8 11.9 34.4 11.9 C 34.4 11.9 34.4 11.9 34.4 11.9 Z M 19.1 48.1 C 20.0 48.6 20.3 48.6 21.1 48.9 C 20.8 48.6 18.7 47.7 19.1 48.1 C 19.1 48.1 19.1 48.1 19.1 48.1 Z M 51.7 9.2 C 51.6 9.1 51.1 9.3 51.0 9.2 C 52.1 8.9 50.9 9.0 51.6 8.4 C 50.3 8.8 50.0 9.5 51.8 9.4 C 53.0 9.1 50.4 9.5 51.7 9.2 C 51.7 9.2 51.7 9.2 51.7 9.2 Z M 47.8 9.7 C 47.0 10.0 49.0 9.7 49.5 9.8 C 49.5 9.8 49.5 9.9 49.5 10.0 C 50.6 9.4 49.1 9.6 50.0 8.9 C 48.7 9.0 48.2 9.1 47.1 9.4 C 47.2 9.5 47.4 9.4 47.4 9.3 C 48.2 9.2 47.7 9.6 46.8 9.7 C 47.1 9.7 47.9 9.6 48.4 9.5 C 48.3 9.5 48.1 9.5 48.1 9.4 C 48.8 9.2 48.6 9.4 49.1 9.3 C 49.1 9.5 47.9 9.9 47.8 9.7 C 47.8 9.7 47.8 9.7 47.8 9.7 Z M 116.2 7.8 C 115.5 7.8 116.9 8.3 116.8 8.6 C 117.5 8.7 117.7 8.7 118.1 8.7 C 117.9 8.5 117.1 8.4 116.8 8.2 C 117.0 7.9 117.9 8.4 118.2 8.2 C 118.7 7.9 116.5 8.1 116.2 7.8 C 116.2 7.8 116.2 7.8 116.2 7.8 Z M 17.5 18.9 C 17.2 19.1 17.4 19.1 17.6 19.0 C 17.5 19.1 16.9 19.4 16.9 19.3 C 16.4 19.7 17.3 19.3 16.7 19.7 C 16.6 19.9 17.6 19.1 17.6 19.0 C 18.4 18.6 17.9 19.2 18.2 19.2 C 18.8 18.8 18.5 18.8 19.5 18.3 C 18.8 18.5 18.3 18.6 17.5 18.9 C 17.5 18.9 17.5 18.9 17.5 18.9 Z M 54.0 8.4 C 54.1 8.3 53.2 8.9 52.3 8.8 C 51.2 9.0 53.1 8.9 52.1 9.1 C 52.9 9.0 54.0 8.6 55.3 8.4 C 55.6 8.2 53.4 8.7 54.6 8.4 C 54.6 8.3 54.3 8.4 54.3 8.4 C 54.0 8.5 54.0 8.4 54.0 8.4 C 54.0 8.4 54.0 8.4 54.0 8.4 Z M 52.7 9.1 C 52.8 9.2 53.1 9.1 53.1 9.1 C 53.5 9.0 53.5 9.3 53.1 9.3 C 53.7 9.5 53.6 9.0 54.7 9.0 C 54.2 8.9 54.0 8.8 55.0 8.8 C 55.9 8.4 53.1 8.9 52.7 9.1 C 52.7 9.1 52.7 9.1 52.7 9.1 Z M 105.2 6.8 C 105.3 7.0 106.0 7.0 106.6 7.0 C 105.9 7.2 103.1 6.8 102.7 6.7 C 102.4 6.7 102.1 6.7 102.0 6.6 C 102.0 6.7 101.2 6.8 101.7 6.8 C 101.6 6.9 101.0 6.8 101.0 7.0 C 99.9 6.8 101.3 6.8 101.0 6.6 C 99.7 6.8 100.0 6.6 98.5 6.5 C 98.7 6.7 100.4 6.8 100.2 7.1 C 101.4 6.9 102.7 7.1 103.4 7.4 C 102.3 7.0 106.4 7.1 108.3 7.3 C 108.2 7.5 108.9 7.5 109.7 7.7 C 110.2 8.0 110.0 7.5 109.0 7.5 C 109.0 7.3 110.4 7.6 111.1 7.6 C 110.4 7.4 110.8 7.3 110.4 7.2 C 109.1 7.1 110.3 7.3 110.0 7.4 C 109.7 7.4 109.3 7.4 109.0 7.3 C 110.8 7.1 106.3 7.0 108.0 7.2 C 106.5 7.0 106.5 6.8 105.2 6.8 C 105.2 6.8 105.2 6.8 105.2 6.8 Z M 71.8 6.5 C 71.6 6.6 70.5 6.8 70.4 6.6 C 69.0 6.9 70.3 7.0 68.7 7.2 C 68.8 7.2 69.4 7.1 69.4 7.3 C 70.0 7.1 70.6 7.0 70.4 6.8 C 71.2 6.8 71.4 6.7 71.8 6.6 C 71.7 6.7 71.4 6.8 70.8 6.8 C 70.7 7.1 70.9 7.2 71.9 7.1 C 72.3 6.9 72.0 6.7 71.8 6.5 C 71.8 6.5 71.8 6.5 71.8 6.5 Z M 68.3 7.1 C 68.2 7.0 68.0 7.0 68.0 6.9 C 67.4 6.7 67.8 7.2 67.3 7.3 C 66.9 7.3 67.0 7.1 66.9 7.0 C 66.3 7.2 65.9 7.2 65.5 7.2 C 64.6 7.4 66.6 7.3 67.0 7.4 C 67.6 7.3 67.4 7.1 68.3 7.1 C 68.3 7.1 68.3 7.1 68.3 7.1 Z M 58.0 7.9 C 57.8 7.7 57.5 8.1 57.0 8.1 C 57.4 8.3 58.3 8.0 57.7 8.4 C 58.7 8.4 58.8 8.4 59.8 8.2 C 60.4 8.3 59.8 8.0 58.7 8.2 C 58.8 8.1 59.3 8.0 59.4 7.9 C 60.1 8.3 61.7 7.4 60.7 7.8 C 60.4 7.8 60.2 7.7 60.0 7.7 C 59.8 7.9 57.5 8.1 58.0 7.9 C 58.0 7.9 58.0 7.9 58.0 7.9 Z M 26.1 15.6 C 27.9 14.8 28.5 14.6 29.6 14.3 C 29.7 14.4 29.6 14.4 29.4 14.5 C 29.7 14.5 30.0 14.4 30.5 14.2 C 30.4 14.1 30.2 14.2 30.2 14.3 C 29.3 14.4 30.0 14.1 30.1 13.9 C 29.0 14.1 27.3 15.1 26.4 15.1 C 25.8 15.4 26.6 15.2 26.1 15.6 C 26.1 15.6 26.1 15.6 26.1 15.6 Z M 167.0 36.3 C 167.0 36.4 166.8 36.8 167.0 36.8 C 167.1 36.5 167.1 36.2 167.2 35.9 C 166.9 36.4 166.7 36.2 166.3 36.9 C 166.5 36.8 166.8 36.9 167.0 36.3 C 167.0 36.3 167.0 36.3 167.0 36.3 Z M 61.4 7.6 C 61.5 7.7 61.5 7.8 61.1 7.9 C 61.0 8.1 62.1 7.8 62.1 8.0 C 62.5 7.9 62.3 7.8 62.8 7.8 C 62.6 7.7 61.7 7.8 62.1 7.5 C 62.4 7.5 62.4 7.5 62.5 7.6 C 63.1 7.4 62.1 7.4 61.4 7.6 C 61.4 7.6 61.4 7.6 61.4 7.6 Z M 119.5 8.5 C 119.1 8.5 119.5 8.6 119.8 8.7 C 118.8 8.8 120.4 9.2 120.4 9.4 C 120.0 9.2 118.7 9.1 118.4 9.0 C 118.1 9.0 118.5 9.3 117.4 9.2 C 117.5 9.4 118.7 9.4 118.4 9.2 C 118.7 9.5 119.9 9.3 119.7 9.6 C 121.2 9.9 121.6 9.7 121.7 9.5 C 120.3 9.4 121.1 9.1 119.8 9.0 C 119.8 8.9 120.2 8.9 120.5 9.0 C 120.4 8.8 119.9 8.7 119.5 8.5 C 119.5 8.5 119.5 8.5 119.5 8.5 Z M 83.2 6.2 C 82.4 6.3 82.4 6.5 82.5 6.7 C 82.8 6.6 83.3 6.6 83.9 6.6 C 83.7 6.4 82.8 6.5 83.2 6.2 C 83.2 6.2 83.2 6.2 83.2 6.2 Z M 114.1 8.1 C 114.0 8.0 113.8 8.0 113.8 8.1 C 112.9 8.0 112.7 7.8 112.4 7.7 C 112.0 7.6 112.1 7.8 112.1 8.0 C 112.9 7.8 112.7 8.1 113.7 8.2 C 113.7 8.1 113.8 8.1 114.1 8.1 C 114.1 8.1 114.1 8.1 114.1 8.1 Z M 90.7 6.4 C 90.2 6.4 90.5 6.5 90.7 6.5 C 90.2 6.8 88.7 6.5 88.2 6.6 C 88.1 6.8 89.9 6.8 87.8 6.9 C 88.2 7.0 90.1 6.9 91.0 7.0 C 90.8 7.2 89.5 7.2 89.6 7.4 C 90.7 7.3 91.9 7.2 92.1 6.8 C 90.5 6.8 91.0 6.6 90.7 6.4 C 90.7 6.4 90.7 6.4 90.7 6.4 Z M 92.4 6.6 C 92.3 6.5 92.0 6.6 91.4 6.6 C 92.3 6.9 92.8 6.8 94.6 6.9 C 94.6 6.9 94.6 6.8 94.6 6.7 C 94.9 6.8 95.3 6.8 95.6 6.8 C 94.1 6.5 93.7 6.6 92.1 6.7 C 92.0 6.6 92.2 6.6 92.4 6.6 C 92.4 6.6 92.4 6.6 92.4 6.6 Z M 46.2 10.2 C 46.7 10.2 47.1 10.3 47.9 10.2 C 47.8 10.0 47.3 10.0 46.2 10.2 C 46.2 10.2 46.2 10.2 46.2 10.2 Z M 115.4 8.4 C 116.4 8.4 114.5 8.3 115.1 8.6 C 115.8 8.8 116.6 9.0 116.7 9.2 C 118.1 9.1 115.2 8.7 115.4 8.4 C 115.4 8.4 115.4 8.4 115.4 8.4 Z M 109.3 8.3 C 108.9 8.2 108.9 7.9 109.3 8.2 C 110.2 8.2 108.5 7.9 110.0 8.1 C 109.3 7.9 107.9 7.6 107.2 7.7 C 107.2 7.9 108.5 8.0 108.6 8.2 C 108.6 8.2 108.4 8.2 108.2 8.2 C 108.3 8.3 108.7 8.2 109.3 8.3 C 109.3 8.3 109.3 8.3 109.3 8.3 Z M 104.1 7.5 C 104.7 7.6 105.3 7.8 106.5 7.9 C 105.7 7.7 105.3 7.4 104.1 7.5 C 104.1 7.5 104.1 7.5 104.1 7.5 Z M 164.1 26.5 C 163.7 26.0 163.9 26.6 163.9 26.7 C 164.3 27.1 164.4 27.0 164.7 27.6 C 164.8 27.2 164.2 26.9 164.1 26.5 C 164.1 26.5 164.1 26.5 164.1 26.5 Z M 165.2 28.2 C 165.1 28.4 165.6 29.0 165.5 29.1 C 166.1 29.2 165.6 30.1 165.9 29.9 C 166.0 30.1 166.0 30.2 166.1 30.5 C 166.3 29.9 165.6 28.8 165.2 28.2 C 165.2 28.2 165.2 28.2 165.2 28.2 Z M 98.1 7.6 C 97.1 7.5 98.3 8.0 97.4 7.9 C 97.3 8.0 99.1 8.1 98.0 8.2 C 99.5 8.4 98.0 7.7 98.1 7.6 C 98.1 7.6 98.1 7.6 98.1 7.6 Z M 80.7 7.7 C 80.8 7.5 79.5 7.7 79.0 7.6 C 79.0 7.7 79.4 7.7 79.7 7.7 C 79.5 7.8 79.3 7.8 79.0 7.9 C 79.2 8.0 80.2 7.7 80.7 7.7 C 80.7 7.7 80.7 7.7 80.7 7.7 Z M 100.1 3.5 C 100.7 3.8 101.4 4.0 101.8 3.7 C 102.5 4.0 101.4 4.0 102.2 4.1 C 103.2 4.1 102.7 4.3 104.3 4.3 C 104.0 4.6 105.2 4.6 105.3 4.8 C 104.7 4.8 103.9 4.5 103.6 4.7 C 104.1 4.7 103.8 5.0 103.5 4.8 C 102.5 4.6 104.9 4.6 103.6 4.3 C 103.2 4.6 101.3 3.9 100.1 3.8 C 100.6 3.7 99.1 3.5 100.1 3.5 C 100.1 3.5 100.1 3.5 100.1 3.5 Z M 106.4 4.4 C 107.3 4.5 107.7 5.1 107.4 5.0 C 107.4 4.9 106.5 4.8 106.4 4.9 C 106.6 4.9 106.8 5.0 106.7 5.0 C 105.2 4.9 105.7 4.7 105.4 4.5 C 106.2 4.5 106.5 4.6 106.8 4.6 C 106.6 4.5 106.4 4.5 106.4 4.4 C 106.4 4.4 106.4 4.4 106.4 4.4 Z M 123.9 10.7 C 123.7 10.5 123.5 10.6 123.2 10.6 C 123.2 10.3 121.5 10.5 121.3 10.2 C 121.7 10.2 122.5 10.3 122.9 10.3 C 122.5 10.2 122.4 10.1 122.0 10.1 C 122.1 9.9 123.0 10.0 123.3 9.9 C 123.4 10.1 123.9 10.0 124.0 10.1 C 122.7 10.0 124.6 10.8 123.9 10.7 C 123.9 10.7 123.9 10.7 123.9 10.7 Z M 90.0 7.7 C 89.8 7.9 91.3 8.5 89.9 8.8 C 89.6 8.6 89.5 8.4 89.6 8.1 C 88.7 8.2 88.3 8.0 87.8 8.2 C 86.2 7.5 89.0 8.3 90.0 7.7 C 90.0 7.7 90.0 7.7 90.0 7.7 Z M 84.2 7.9 C 84.6 7.7 83.8 7.7 83.9 7.5 C 84.6 7.7 86.8 7.4 86.0 7.6 C 85.3 7.7 85.3 7.9 84.2 7.9 C 84.2 7.9 84.2 7.9 84.2 7.9 Z M 43.5 55.8 C 42.5 55.8 42.0 55.2 42.6 55.2 C 42.3 55.4 43.9 55.6 43.5 55.8 C 43.5 55.8 43.5 55.8 43.5 55.8 Z M 4.6 41.4 C 5.0 42.3 5.5 42.6 5.4 42.8 C 4.8 42.2 5.0 42.1 4.5 41.5 C 4.4 41.5 4.0 41.2 4.1 41.1 C 4.3 41.4 4.4 41.2 4.6 41.4 C 4.6 41.4 4.6 41.4 4.6 41.4 Z M 62.4 3.5 C 62.3 3.4 61.8 3.4 62.0 3.2 C 63.1 3.2 64.2 2.9 65.1 2.6 C 65.1 2.7 65.1 2.8 65.2 2.9 C 63.5 3.0 63.0 3.3 62.4 3.5 C 62.4 3.5 62.4 3.5 62.4 3.5 Z M 60.2 3.2 C 60.0 3.4 60.7 3.6 59.9 3.6 C 59.9 3.5 58.6 3.4 59.2 3.2 C 59.4 3.4 59.7 3.4 60.2 3.2 C 60.2 3.2 60.2 3.2 60.2 3.2 Z M 120.0 5.3 C 120.8 5.4 119.6 5.1 119.7 5.0 C 120.3 5.1 121.1 5.2 121.3 5.4 C 120.8 5.3 120.3 5.6 120.0 5.3 C 120.0 5.3 120.0 5.3 120.0 5.3 Z M 107.1 4.4 C 105.3 4.3 106.1 3.9 104.4 3.7 C 105.1 3.6 106.7 3.8 107.2 3.6 C 107.1 3.8 107.6 3.8 107.5 4.0 C 106.9 3.9 106.8 3.8 106.1 3.8 C 106.3 4.0 106.4 4.0 106.1 4.2 C 106.6 4.2 106.9 4.2 107.2 4.2 C 107.0 4.3 107.7 4.4 107.1 4.4 C 107.1 4.4 107.1 4.4 107.1 4.4 Z M 119.6 5.9 C 120.3 5.9 120.8 6.4 120.2 6.3 C 120.1 6.1 119.6 6.2 119.5 6.1 C 120.5 6.2 118.8 5.8 119.2 5.7 C 119.8 5.8 120.1 5.8 119.9 5.6 C 120.3 5.6 120.9 5.7 120.9 5.8 C 120.7 5.8 120.3 5.7 120.3 5.8 C 120.5 5.8 120.7 5.9 120.6 5.9 C 120.0 5.8 119.7 5.8 119.6 5.9 C 119.6 5.9 119.6 5.9 119.6 5.9 Z M 114.8 5.3 C 115.7 5.4 115.8 5.7 116.1 5.9 C 114.9 5.6 114.7 5.3 113.8 5.0 C 114.8 5.2 115.9 5.0 116.2 5.2 C 115.7 5.2 114.9 5.1 114.8 5.3 C 114.8 5.3 114.8 5.3 114.8 5.3 Z M 132.7 56.9 C 132.0 57.0 131.3 56.9 130.5 57.0 C 130.2 57.3 131.9 57.4 131.2 57.4 C 130.4 57.6 130.9 57.2 130.2 57.3 C 130.9 57.5 127.2 58.3 127.0 57.9 C 127.6 57.8 127.7 57.7 127.6 57.6 C 129.1 57.3 129.6 57.0 130.7 56.7 C 131.6 56.8 133.9 56.4 135.1 55.8 C 136.0 56.1 137.3 55.2 138.5 55.3 C 138.7 55.0 137.5 55.2 138.4 54.9 C 139.0 55.0 138.6 55.3 139.4 55.2 C 139.4 55.0 139.2 54.9 139.6 54.8 C 139.6 54.9 140.1 54.8 140.2 54.8 C 138.7 55.3 140.4 55.1 139.2 55.5 C 138.6 55.6 139.6 55.0 138.2 55.4 C 137.7 55.6 137.2 55.8 137.4 56.0 C 137.0 56.1 136.7 56.2 136.5 56.3 C 137.0 55.9 134.4 56.9 135.5 56.3 C 135.6 56.3 136.5 56.1 137.0 55.9 C 136.4 55.8 135.8 56.1 134.9 56.4 C 134.5 56.3 135.0 56.1 134.5 56.2 C 133.8 56.5 134.9 56.5 134.3 56.7 C 134.6 56.7 134.9 56.6 135.0 56.6 C 133.6 56.7 133.2 57.1 132.5 57.2 C 132.9 57.0 131.7 57.2 132.7 56.9 C 132.7 56.9 132.7 56.9 132.7 56.9 Z M 143.4 53.7 C 143.6 53.6 143.9 53.6 144.2 53.5 C 144.3 53.7 143.3 54.1 144.1 54.0 C 142.8 54.4 144.0 53.7 143.4 53.7 C 143.4 53.7 143.4 53.7 143.4 53.7 Z M 137.3 54.6 C 136.8 54.4 137.2 54.9 136.8 55.0 C 137.5 54.8 138.2 54.5 138.3 54.8 C 137.5 54.9 137.1 55.0 136.2 55.3 C 137.0 54.8 135.2 55.3 134.9 55.1 C 135.6 54.9 136.1 54.6 137.0 54.4 C 136.8 54.6 138.2 54.3 137.3 54.6 C 137.3 54.6 137.3 54.6 137.3 54.6 Z M 139.6 53.6 C 139.8 53.7 141.0 53.2 140.8 53.6 C 140.1 53.8 139.8 53.9 140.0 54.1 C 139.5 54.2 139.4 54.2 138.8 54.3 C 138.5 54.1 139.4 53.9 139.6 53.7 C 139.4 53.7 139.3 53.7 139.6 53.6 C 139.6 53.6 139.6 53.6 139.6 53.6 Z M 163.2 40.3 C 163.6 40.3 162.7 41.0 162.5 41.1 C 162.9 41.0 162.9 41.2 162.4 41.8 C 162.4 41.3 161.6 42.1 160.8 42.3 C 160.9 42.6 161.6 42.1 160.8 42.8 C 160.1 43.2 159.6 43.8 158.4 44.6 C 158.0 44.5 158.5 44.2 158.8 43.9 C 158.0 44.4 158.1 44.1 157.5 44.5 C 157.7 44.5 157.2 44.9 156.9 44.9 C 158.0 44.2 155.3 45.5 156.4 44.7 C 156.5 44.8 156.8 44.6 157.0 44.4 C 156.9 44.9 158.3 43.9 158.7 43.8 C 159.0 43.0 160.5 42.2 161.9 41.2 C 162.1 41.2 161.7 41.6 162.0 41.4 C 162.0 41.3 162.4 40.9 162.6 40.7 C 162.6 40.8 162.8 40.7 163.1 40.5 C 163.1 40.5 163.1 40.4 163.2 40.3 C 163.2 40.3 163.2 40.3 163.2 40.3 Z M 76.0 58.7 C 76.1 58.3 73.8 58.4 73.2 58.5 C 73.3 58.1 77.3 58.4 76.0 58.7 C 76.0 58.7 76.0 58.7 76.0 58.7 Z M 89.9 58.6 C 89.3 58.6 89.7 58.9 89.2 58.9 C 89.1 58.6 87.8 59.1 87.7 58.9 C 88.4 58.7 88.8 58.7 89.9 58.6 C 89.9 58.6 89.9 58.6 89.9 58.6 Z M 102.6 58.2 C 101.6 58.3 103.2 58.3 103.0 58.4 C 102.1 58.5 101.2 58.5 101.2 58.3 C 102.0 58.4 102.5 58.0 102.6 58.2 C 102.6 58.2 102.6 58.2 102.6 58.2 Z M 83.5 58.4 C 82.6 58.3 84.0 58.0 84.2 58.2 C 83.2 58.2 84.8 58.4 85.6 58.3 C 85.6 58.6 85.2 58.5 85.6 58.8 C 84.3 58.9 85.4 58.5 84.5 58.6 C 83.9 58.7 84.6 58.7 84.5 58.9 C 84.2 58.9 83.8 58.9 83.5 58.9 C 83.5 58.7 83.5 58.6 83.5 58.5 C 83.9 58.5 84.3 58.5 84.2 58.3 C 83.8 58.3 83.8 58.4 83.5 58.4 C 83.5 58.4 83.5 58.4 83.5 58.4 Z M 146.4 49.3 C 145.7 49.6 146.3 49.5 146.9 49.3 C 146.9 49.2 147.2 48.6 148.1 48.5 C 146.5 49.3 148.7 48.6 147.8 49.1 C 147.4 49.0 146.4 49.7 145.5 50.0 C 145.1 49.9 145.9 49.3 146.4 49.3 C 146.4 49.3 146.4 49.3 146.4 49.3 Z M 149.5 48.3 C 149.4 48.3 149.1 48.3 148.6 48.6 C 149.0 48.2 148.3 48.4 148.9 48.1 C 148.9 48.2 151.1 47.4 149.8 48.0 C 148.6 48.3 150.2 48.0 150.7 47.8 C 150.2 48.0 149.3 48.7 149.1 48.5 C 149.3 48.4 149.6 48.3 149.5 48.3 C 149.5 48.3 149.5 48.3 149.5 48.3 Z M 165.4 36.2 C 165.3 36.1 165.1 36.4 165.0 36.5 C 165.5 35.6 165.7 34.9 165.9 34.5 C 165.8 34.9 166.0 35.0 166.1 34.8 C 165.9 35.2 166.0 35.3 165.8 35.4 C 165.8 35.0 165.7 35.7 165.4 36.2 C 165.4 36.2 165.4 36.2 165.4 36.2 Z M 165.4 36.2 " fill="#000000"></path><image xlink:href="A346AE12D7B9F73A2D7718CA2C5E6188.png" width="82.00" height="34.00" transform="matrix(1.00, 0.00, -0.00, -1.00, 47.0, 42.0)"></image><g><clipPath id="clip-14"><path d="M 5.1 5.4 L 168.7 5.4 L 168.7 60.4 L 5.1 60.4 Z M 5.1 5.4 "></path></clipPath><g clip-path="url(#clip-14)"><text xml:space="preserve" font-family="Chalkduster" font-size="18.0" fill="#000000" transform="matrix(1.00, 0.00, -0.00, -1.00, 51.0, 24.0)">R</text><text xml:space="preserve" font-family="Chalkduster" font-size="18.0" fill="#000000" transform="matrix(1.00, 0.00, -0.00, -1.00, 65.0, 24.0)">e</text><text xml:space="preserve" font-family="Chalkduster" font-size="18.0" fill="#000000" transform="matrix(1.00, 0.00, -0.00, -1.00, 75.6, 24.0)">g</text><text xml:space="preserve" font-family="Chalkduster" font-size="18.0" fill="#000000" transform="matrix(1.00, 0.00, -0.00, -1.00, 87.9, 24.0)">E</text><text xml:space="preserve" font-family="Chalkduster" font-size="18.0" fill="#000000" transform="matrix(1.00, 0.00, -0.00, -1.00, 101.2, 24.0)">x</text><text xml:space="preserve" font-family="Chalkduster" font-size="18.0" fill="#000000" transform="matrix(1.00, 0.00, -0.00, -1.00, 112.4, 24.0)">p</text></g></g></g></svg>