<?xml version="1.0" encoding="UTF-8" standalone="no"?><svg xmlns="http://www.w3.org/2000/svg" xmlns:xlink="http://www.w3.org/1999/xlink" clip-rule="evenodd" stroke-miterlimit="4.00" viewBox="0 0 274 59"><desc>SVG generated by Keynote</desc><defs></defs><g transform="matrix(1.00, 0.00, -0.00, -1.00, 0.0, 59.0)"><path d="M 229.8 46.1 C 281.0 36.8 281.0 21.8 229.8 12.5 C 178.5 3.2 95.4 3.2 44.2 12.5 C -7.1 21.8 -7.1 36.8 44.2 46.1 C 95.4 55.4 178.5 55.4 229.8 46.1 Z M 229.8 46.1 " fill="#A8E685"></path><path d="M 66.9 5.3 C 66.6 5.4 66.1 5.5 65.5 5.5 C 65.8 5.6 66.0 5.6 66.0 5.7 C 66.5 5.6 67.3 5.5 68.4 5.4 C 68.4 5.3 67.8 5.4 67.4 5.4 C 66.9 5.4 67.0 5.3 66.9 5.3 C 66.9 5.3 66.9 5.3 66.9 5.3 Z M 69.6 53.0 C 68.7 52.9 69.7 53.3 70.1 53.3 C 70.1 53.3 70.2 53.2 70.6 53.3 C 70.7 53.5 69.8 53.5 69.1 53.5 C 66.4 53.1 68.5 52.9 69.6 53.0 C 69.6 53.0 69.6 53.0 69.6 53.0 Z M 209.7 52.3 C 211.8 52.0 209.6 52.0 209.2 52.0 C 210.2 51.8 209.4 51.5 210.6 51.3 C 210.9 51.4 211.3 51.5 211.6 51.5 C 211.0 51.6 210.2 51.7 210.2 51.8 C 210.9 51.7 211.9 51.6 212.0 51.6 C 210.5 51.9 211.8 51.9 212.1 52.0 C 210.7 52.2 210.2 52.5 209.7 52.3 C 209.7 52.3 209.7 52.3 209.7 52.3 Z M 229.6 9.7 C 230.1 9.8 231.0 10.0 230.7 10.1 C 229.5 9.9 229.5 9.8 229.2 9.7 C 229.1 9.8 229.2 10.0 228.7 9.9 C 228.2 9.6 228.5 9.4 228.8 9.3 C 228.8 9.5 230.7 9.7 229.6 9.7 C 229.6 9.7 229.6 9.7 229.6 9.7 Z M 175.3 4.3 C 173.3 4.1 175.1 4.6 173.1 4.4 C 173.2 4.2 172.9 3.9 174.3 4.0 C 174.3 4.1 175.1 4.2 175.3 4.3 C 175.3 4.3 175.3 4.3 175.3 4.3 Z M 151.4 54.2 C 151.4 54.4 152.9 54.3 152.6 54.5 C 151.8 54.5 151.1 54.6 150.4 54.6 C 150.2 54.4 150.5 54.3 151.4 54.2 C 151.4 54.2 151.4 54.2 151.4 54.2 Z M 223.1 48.1 C 225.1 48.0 227.2 47.3 226.6 47.6 C 227.4 47.8 225.3 48.6 225.3 48.3 C 225.1 48.0 221.5 48.3 223.1 48.1 C 223.1 48.1 223.1 48.1 223.1 48.1 Z M 81.4 50.0 C 83.8 50.4 83.3 49.7 84.9 50.1 C 84.3 50.1 84.1 50.1 83.9 50.2 C 84.3 50.2 84.9 50.3 84.9 50.3 C 83.7 50.3 82.3 50.3 81.4 50.0 C 81.4 50.0 81.4 50.0 81.4 50.0 Z M 101.4 3.1 C 101.9 3.1 102.1 3.0 102.0 2.9 C 103.7 2.9 103.6 2.7 104.6 2.8 C 104.7 3.1 103.3 3.0 102.0 3.1 C 102.0 3.1 101.6 3.2 101.4 3.1 C 101.4 3.1 101.4 3.1 101.4 3.1 Z M 149.1 3.2 C 149.0 3.0 148.0 2.9 149.6 2.9 C 151.4 3.2 149.8 3.4 147.9 3.5 C 147.9 3.6 147.9 3.7 147.9 3.8 C 148.7 3.8 149.2 3.9 149.6 3.9 C 149.9 3.6 151.1 4.3 153.9 4.1 C 152.6 4.2 154.0 4.5 152.3 4.4 C 152.7 4.6 151.5 4.6 151.7 4.8 C 152.5 4.6 154.3 4.7 153.9 4.4 C 154.8 4.4 155.6 4.5 156.0 4.5 C 156.7 4.8 154.3 4.6 155.0 4.8 C 155.5 4.8 155.6 4.9 156.0 4.9 C 156.1 4.8 155.9 4.7 156.6 4.7 C 158.3 4.9 156.2 5.0 158.7 5.1 C 158.9 4.9 158.1 4.9 158.2 4.8 C 159.3 4.7 159.2 4.9 160.3 4.7 C 160.5 4.9 159.6 4.9 160.3 5.0 C 161.0 4.6 162.6 5.3 164.1 5.0 C 163.1 4.5 164.4 5.1 165.7 4.7 C 166.0 4.9 165.0 5.1 166.2 5.2 C 165.8 4.6 170.6 4.9 166.8 4.3 C 168.8 4.4 169.5 3.9 167.9 3.8 C 171.4 4.0 170.3 3.7 171.6 3.7 C 173.0 3.8 170.9 3.8 171.6 4.0 C 170.2 3.9 170.5 4.1 169.5 3.9 C 169.5 4.0 169.2 4.1 168.9 4.1 C 170.4 4.0 172.1 4.5 171.0 4.7 C 170.3 4.6 171.0 4.4 170.0 4.3 C 170.3 4.7 169.0 4.2 168.9 4.4 C 169.6 4.8 167.5 5.0 169.4 5.1 C 169.5 5.0 169.5 4.8 169.5 4.7 C 170.0 4.7 170.5 4.8 171.0 4.8 C 171.5 5.0 171.1 5.2 171.6 5.3 C 172.4 5.3 172.9 5.3 173.2 5.2 C 172.1 5.1 170.8 4.8 172.6 4.9 C 171.9 5.3 175.1 5.1 173.7 5.3 C 175.6 5.6 176.6 5.2 176.8 5.6 C 177.8 5.6 177.2 5.3 178.4 5.4 C 180.3 5.8 180.0 5.4 182.5 5.8 C 182.8 5.4 182.8 5.9 183.6 5.9 C 183.6 5.8 183.6 5.6 183.6 5.5 C 184.5 5.8 186.5 6.0 188.7 6.0 C 189.2 6.1 188.8 6.3 190.2 6.3 C 191.7 6.1 193.4 6.6 195.2 6.4 C 195.4 6.6 196.6 6.7 197.2 6.7 C 197.5 6.8 196.6 7.0 197.7 7.1 C 198.4 7.0 197.2 6.8 198.7 6.8 C 198.5 7.1 200.2 6.8 200.2 7.1 C 199.7 7.1 199.2 7.1 198.7 7.2 C 199.3 7.2 199.1 7.3 199.7 7.4 C 199.6 7.1 200.8 7.5 201.1 7.6 C 201.1 7.4 201.3 7.3 201.6 7.3 C 202.5 7.4 203.2 7.4 203.6 7.4 C 204.7 7.6 203.0 7.5 204.0 7.7 C 204.6 7.1 205.6 7.9 207.9 7.8 C 208.4 8.1 209.3 8.3 210.7 8.5 C 210.9 8.3 209.4 8.2 209.3 8.1 C 211.4 8.4 209.0 7.9 210.3 8.0 C 213.2 8.5 215.1 8.7 218.1 9.4 C 218.1 9.2 220.4 9.4 220.3 9.4 C 219.7 9.4 221.6 9.9 222.5 10.1 C 222.8 9.7 224.3 9.6 224.4 9.4 C 224.7 9.7 224.6 9.7 224.8 10.1 C 226.3 10.4 227.2 10.2 228.2 10.8 C 228.1 10.6 228.9 10.7 229.5 10.7 C 229.3 10.9 228.9 10.9 228.5 11.0 C 229.4 11.1 228.9 11.2 230.4 11.4 C 232.1 11.1 234.4 12.4 235.7 12.0 C 238.0 12.4 237.5 12.6 239.6 13.0 C 239.5 12.9 239.8 12.8 240.4 12.9 C 239.0 12.7 238.0 12.6 237.3 12.2 C 240.4 12.8 231.5 10.3 236.7 11.1 C 236.8 11.3 236.3 11.3 237.4 11.6 C 240.3 12.1 238.6 11.5 237.5 11.3 C 239.4 11.6 241.4 12.1 239.9 11.5 C 244.3 12.4 241.5 12.0 242.9 12.4 C 250.3 14.0 257.9 16.3 263.1 19.5 C 263.4 19.3 265.9 21.2 266.5 21.9 C 267.8 22.6 268.8 23.6 268.8 24.2 C 269.2 24.2 269.5 25.6 269.8 25.5 C 269.5 25.1 269.4 24.7 269.8 25.1 C 270.7 26.8 270.9 29.6 270.9 30.8 C 270.4 31.4 270.1 32.5 269.8 33.3 C 269.6 33.3 269.9 32.7 269.6 33.1 C 269.6 33.4 268.7 34.9 268.3 35.1 C 268.7 34.7 268.8 34.1 268.3 34.7 C 268.4 34.8 267.7 35.4 268.0 35.4 C 267.1 36.2 266.6 36.7 265.7 37.3 C 266.4 36.7 266.7 36.3 266.7 36.1 C 266.2 36.6 265.8 37.1 265.2 37.2 C 265.5 37.4 264.4 38.0 263.2 38.8 C 262.8 38.9 262.5 38.9 261.5 39.5 C 261.0 39.9 263.2 38.9 262.1 39.5 C 262.0 39.4 260.8 39.9 261.2 40.0 C 259.7 40.6 258.8 41.1 257.4 41.5 C 259.2 40.8 257.7 41.0 257.3 41.2 C 256.9 41.3 256.3 41.6 256.3 41.6 C 256.3 41.7 257.2 41.4 257.3 41.4 C 256.1 41.8 255.8 42.3 255.3 42.3 C 255.9 42.1 255.9 41.9 255.2 42.1 C 255.2 42.5 251.0 43.7 252.4 43.0 C 252.4 43.1 254.0 42.6 254.1 42.4 C 253.6 42.5 251.3 43.4 251.7 43.0 C 253.1 42.5 253.1 42.7 254.6 42.1 C 254.7 41.9 255.6 41.5 256.1 41.2 C 253.8 42.1 253.2 42.5 252.8 42.4 C 251.7 42.8 252.5 42.8 250.5 43.4 C 247.6 44.1 249.9 43.2 249.1 43.3 C 246.6 44.2 247.4 44.3 248.6 44.2 C 246.5 44.8 245.9 45.1 243.1 45.8 C 243.2 45.6 243.6 45.4 244.5 45.1 C 244.6 45.1 246.9 44.7 246.6 44.6 C 246.4 44.3 244.6 44.7 241.5 45.3 C 242.3 45.5 242.4 45.3 239.2 46.0 C 239.9 46.2 237.7 46.3 237.7 46.5 C 237.8 46.6 239.0 46.3 240.1 46.1 C 240.0 46.2 239.7 46.5 238.6 46.7 C 237.9 46.8 237.4 47.0 235.4 47.3 C 235.2 47.2 236.6 46.8 236.9 46.6 C 235.8 46.9 235.6 47.0 234.4 47.3 C 233.4 47.3 233.4 46.9 233.4 46.6 C 234.7 46.2 236.7 45.8 235.1 46.0 C 239.9 45.0 234.9 46.4 236.8 46.1 C 238.6 45.3 237.7 46.0 240.7 45.3 C 241.5 45.1 241.8 44.9 242.1 44.8 C 241.9 44.8 240.2 44.9 242.1 44.5 C 242.5 44.5 243.6 44.4 245.0 44.1 C 245.0 43.9 242.0 44.6 244.9 43.8 C 246.4 43.5 245.2 44.1 247.1 43.6 C 247.1 43.5 247.6 43.4 247.7 43.3 C 245.0 44.0 248.2 42.9 246.3 43.3 C 248.6 42.5 246.8 43.5 248.3 43.0 C 248.3 42.8 250.8 42.4 250.7 42.1 C 249.9 42.5 248.0 43.0 248.2 42.7 C 249.9 42.3 256.7 39.7 254.2 41.0 C 255.1 40.5 259.2 38.5 259.0 38.8 C 257.8 39.3 257.9 39.4 257.8 39.7 C 260.0 38.4 261.2 38.1 262.9 36.7 C 260.9 37.9 262.2 36.6 260.8 37.1 C 260.2 37.4 259.3 37.8 259.2 38.0 C 259.6 38.1 260.5 37.5 260.8 37.2 C 260.9 37.4 261.0 37.6 261.1 37.8 C 258.5 38.9 256.7 39.8 255.1 40.3 C 256.5 39.7 252.4 40.9 254.0 40.3 C 254.7 40.2 256.3 39.6 257.6 39.1 C 257.6 39.1 257.5 39.0 257.5 38.9 C 258.0 38.7 258.8 38.4 258.8 38.3 C 257.2 39.0 256.2 39.2 255.0 39.8 C 254.9 39.8 254.9 39.7 254.9 39.7 C 254.6 39.8 254.3 39.9 254.4 39.8 C 255.0 39.6 255.8 39.3 255.9 39.1 C 254.6 39.6 254.2 39.5 252.6 40.0 C 252.9 39.6 250.7 40.0 253.0 39.1 C 253.4 39.2 254.7 38.9 254.7 39.0 C 255.3 38.9 256.6 38.3 257.1 38.0 C 256.4 38.0 255.2 38.5 255.0 38.3 C 256.0 37.8 256.7 37.4 257.4 37.4 C 255.5 38.3 258.5 37.1 259.3 37.1 C 259.0 37.1 258.6 37.2 258.3 37.2 C 259.7 36.5 260.3 36.4 260.3 36.1 C 261.7 35.2 261.5 35.6 262.4 35.0 C 261.6 35.1 262.9 34.6 262.1 34.6 C 263.5 33.7 262.7 34.6 263.2 34.3 C 263.6 34.0 263.6 33.9 263.9 33.6 C 264.5 33.4 265.3 32.6 265.7 32.7 C 266.0 32.3 266.1 32.3 266.4 32.0 C 266.3 31.8 266.3 31.7 266.4 31.5 C 266.5 31.5 266.7 31.3 266.7 31.2 C 265.9 31.9 266.1 31.6 265.0 32.4 C 265.0 32.5 264.8 32.7 265.1 32.5 C 264.5 33.2 264.1 33.3 263.3 33.9 C 263.1 33.9 262.8 33.7 262.0 34.4 C 262.1 34.1 261.8 34.2 262.1 33.9 C 262.6 33.7 263.2 33.4 263.8 33.1 C 263.8 33.0 263.6 32.9 263.9 32.7 C 264.2 32.6 264.5 32.4 264.7 32.1 C 264.8 32.1 264.7 32.3 264.7 32.4 C 265.6 31.6 265.1 31.7 265.6 31.2 C 265.4 31.2 265.2 31.6 265.3 31.2 C 265.6 30.6 265.7 30.6 265.9 30.4 C 265.9 30.3 265.8 30.3 265.8 30.2 C 266.1 30.0 265.9 31.2 266.5 30.7 C 266.3 30.5 266.6 29.9 266.7 29.9 C 266.9 30.1 266.5 30.4 266.6 30.5 C 267.1 29.3 267.2 30.6 267.4 29.3 C 267.3 29.3 267.1 29.3 267.0 29.3 C 267.1 29.8 266.8 29.8 266.6 29.7 C 266.5 30.1 266.2 30.1 266.2 30.5 C 265.8 30.2 266.3 30.2 266.4 29.8 C 266.2 29.8 266.1 30.1 265.9 30.1 C 266.3 29.4 266.0 29.4 266.1 28.5 C 265.9 28.8 265.9 28.1 265.7 28.2 C 266.1 28.9 265.3 28.8 265.2 28.9 C 265.3 29.2 265.7 28.9 265.9 29.1 C 265.7 29.2 265.5 29.2 265.2 29.2 C 265.3 29.0 265.2 29.0 265.0 28.8 C 265.2 28.6 265.5 28.2 265.8 28.5 C 265.7 28.4 265.3 28.0 265.4 27.8 C 265.8 28.4 265.5 27.7 265.8 28.0 C 265.7 27.5 264.8 26.8 264.3 26.0 C 264.2 26.2 263.9 26.0 263.9 26.1 C 264.8 26.6 264.5 27.1 264.9 27.6 C 264.7 27.4 264.7 27.6 264.7 27.7 C 264.4 27.2 263.9 27.0 263.6 26.4 C 263.6 26.5 263.5 26.5 263.4 26.6 C 262.8 25.7 262.8 25.9 261.8 25.4 C 261.5 25.1 262.2 25.1 262.5 24.9 C 262.0 24.7 260.3 23.6 261.2 24.5 C 260.1 23.9 260.5 23.7 259.3 23.1 C 259.1 23.3 260.3 23.9 259.7 24.0 C 258.6 23.4 259.4 23.4 258.2 23.1 C 258.3 22.9 258.4 22.7 257.2 22.2 C 258.0 22.8 257.0 22.3 256.6 22.3 C 257.2 22.5 257.6 22.8 257.9 23.0 C 255.9 22.0 255.3 21.8 253.3 21.1 C 254.1 21.1 253.0 20.6 254.4 21.0 C 253.1 20.7 251.5 19.8 250.7 19.7 C 251.5 20.1 252.9 20.6 253.4 20.9 C 249.2 19.5 246.4 19.0 241.7 17.5 C 242.5 17.7 243.6 18.0 243.8 17.9 C 243.3 17.8 242.4 17.6 242.4 17.5 C 244.1 17.9 245.6 18.3 246.5 18.5 C 247.8 19.0 245.6 18.4 247.0 18.9 C 247.3 18.8 249.8 19.7 249.0 19.1 C 246.6 18.7 244.3 17.8 243.2 17.1 C 240.7 16.9 243.0 17.5 240.1 17.3 C 240.2 17.2 239.6 17.0 238.7 16.7 C 239.5 17.3 236.0 16.3 235.6 16.2 C 237.0 16.3 242.1 17.3 239.6 16.4 C 240.6 17.3 233.6 15.0 234.9 15.7 C 231.4 15.1 232.7 15.0 230.7 14.9 C 230.6 14.8 230.9 14.7 229.9 14.5 C 228.9 14.3 229.0 14.4 228.8 14.5 C 230.0 14.8 231.5 15.2 232.2 15.4 C 232.8 15.6 233.2 15.8 234.8 16.1 C 234.3 16.0 233.8 15.9 233.9 16.0 C 233.9 16.1 233.8 16.1 233.1 15.9 C 232.9 15.6 230.5 15.5 229.8 15.1 C 230.8 15.3 231.8 15.5 231.5 15.3 C 227.2 14.6 228.7 14.5 225.9 13.9 C 226.7 14.2 225.6 14.1 224.6 13.9 C 223.2 13.7 223.8 13.4 222.0 13.1 C 222.1 13.8 220.2 12.8 218.0 12.8 C 218.3 12.5 215.5 12.0 214.9 12.2 C 214.8 12.1 213.8 12.0 213.1 11.9 C 212.9 11.8 213.8 11.8 213.1 11.7 C 212.5 11.6 213.0 12.0 212.2 11.9 C 211.2 11.7 211.4 11.4 209.9 11.3 C 209.8 11.5 210.7 11.5 209.9 11.6 C 208.6 11.3 207.4 11.2 208.4 11.6 C 206.5 11.4 207.5 11.0 205.6 10.9 C 206.2 11.0 206.1 11.1 205.1 11.0 C 204.5 10.8 204.4 10.7 204.2 10.5 C 203.6 10.7 203.8 10.7 202.3 10.5 C 202.3 10.6 202.2 10.7 202.2 10.8 C 201.5 10.7 200.5 10.7 200.3 10.5 C 201.6 10.7 201.3 10.5 201.8 10.4 C 200.5 10.3 197.9 9.8 199.9 10.3 C 198.0 10.2 198.9 9.9 197.4 9.9 C 198.3 10.2 197.5 9.9 195.9 9.8 C 196.1 10.1 194.9 9.7 194.0 9.7 C 194.1 9.9 193.8 10.0 193.0 9.9 C 193.0 9.8 192.4 9.7 191.5 9.6 C 191.5 9.8 193.5 10.1 191.4 9.9 C 190.5 9.7 190.5 9.4 188.9 9.3 C 188.6 9.0 190.4 9.2 190.0 9.0 C 188.7 9.1 188.3 8.9 186.4 8.7 C 187.1 9.2 182.6 9.0 184.8 9.4 C 184.2 9.3 183.3 9.6 182.8 9.3 C 183.5 9.3 182.3 9.0 182.3 9.0 C 181.4 9.0 179.3 8.7 179.2 8.8 C 181.2 8.9 181.2 9.1 181.8 9.3 C 178.9 9.3 176.4 9.0 176.6 8.8 C 176.6 8.8 176.2 8.8 176.1 8.9 C 177.1 8.9 177.7 9.4 176.6 9.3 C 176.8 9.1 176.0 9.0 175.1 8.8 C 175.0 9.1 171.2 8.5 171.9 8.9 C 173.4 8.8 174.6 9.2 173.5 9.3 C 172.5 9.0 170.4 8.8 170.9 8.6 C 170.3 8.7 169.8 8.7 169.3 8.8 C 168.8 9.0 170.0 9.0 169.8 9.2 C 169.0 9.2 167.8 9.2 167.7 9.0 C 169.8 9.1 166.6 8.8 168.8 8.8 C 167.4 8.7 167.1 8.6 166.1 8.5 C 166.1 8.6 165.7 8.6 165.6 8.6 C 166.5 8.5 167.4 8.7 167.2 8.9 C 165.2 8.9 165.6 8.6 164.0 8.6 C 163.5 8.7 161.3 9.0 160.2 8.8 C 162.3 8.8 160.1 8.6 161.3 8.6 C 163.2 8.8 163.8 8.5 164.5 8.3 C 163.7 8.2 162.1 8.0 161.8 8.3 C 162.9 8.4 162.9 8.3 163.5 8.2 C 163.4 8.4 163.1 8.5 162.4 8.5 C 161.5 8.3 159.5 8.4 160.8 8.1 C 159.4 8.2 157.9 7.9 156.5 8.1 C 158.1 8.2 159.2 8.3 159.7 8.5 C 158.4 8.6 157.1 8.2 157.0 8.4 C 157.2 8.6 159.3 8.6 159.7 8.8 C 158.0 9.0 155.5 8.3 157.6 8.8 C 156.6 8.8 155.3 8.7 154.9 8.6 C 156.0 8.6 154.8 8.2 154.3 8.2 C 153.3 8.2 152.5 8.2 152.2 8.3 C 153.7 8.2 154.8 8.6 153.8 8.6 C 153.5 8.4 153.2 8.6 152.7 8.6 C 152.6 8.5 150.9 8.5 150.6 8.4 C 150.7 8.5 151.5 8.6 151.6 8.7 C 150.6 8.7 149.2 9.1 148.4 8.7 C 149.1 8.7 150.0 8.7 150.0 8.7 C 147.2 8.3 146.4 7.9 143.0 7.8 C 143.5 7.8 143.7 7.7 143.6 7.6 C 141.5 7.6 140.1 7.4 140.3 7.3 C 139.0 7.3 138.3 7.4 137.7 7.6 C 139.0 7.7 139.5 7.5 140.3 7.7 C 139.8 7.7 141.4 8.2 142.0 8.3 C 144.3 8.1 144.5 8.5 146.8 8.4 C 146.1 8.6 148.6 8.5 147.9 8.7 C 145.7 8.3 143.6 8.6 140.3 8.4 C 140.8 8.2 141.1 8.0 139.8 7.9 C 137.8 7.8 138.8 8.1 137.1 8.1 C 136.4 7.9 137.4 7.8 136.5 7.7 C 136.0 7.8 134.4 7.8 133.9 7.6 C 136.1 7.6 133.4 7.4 134.9 7.3 C 134.2 7.3 133.8 7.2 133.3 7.2 C 135.4 7.5 131.1 7.5 132.8 7.7 C 129.7 7.9 132.5 7.1 130.1 7.2 C 131.3 7.4 129.7 7.5 127.9 7.5 C 127.4 7.2 125.6 7.2 124.1 7.1 C 124.9 7.3 125.5 7.3 124.1 7.5 C 124.8 7.5 126.1 7.5 126.8 7.4 C 126.8 7.5 127.1 7.6 127.4 7.6 C 125.6 7.7 126.3 7.8 125.7 7.9 C 125.2 7.8 123.9 7.8 123.6 7.7 C 123.6 7.8 123.1 7.8 123.1 7.9 C 125.3 7.9 122.7 8.2 124.1 8.3 C 125.1 8.2 124.5 8.0 125.8 8.0 C 127.0 8.3 124.8 8.3 124.1 8.6 C 125.2 8.7 126.4 8.4 126.8 8.7 C 125.5 9.0 123.2 8.8 121.5 8.8 C 121.6 9.1 118.5 8.8 118.2 9.2 C 118.0 9.1 117.6 9.0 117.2 9.0 C 116.7 9.2 116.1 8.9 115.6 8.9 C 115.5 9.1 115.7 9.2 116.1 9.2 C 113.9 9.2 113.4 9.2 110.8 9.4 C 110.4 9.3 109.9 9.2 109.7 9.0 C 110.3 8.9 110.9 8.8 111.3 8.8 C 107.8 8.9 110.1 9.4 107.6 9.1 C 107.7 9.3 109.4 9.5 108.1 9.6 C 105.9 9.4 102.8 9.8 102.8 9.1 C 100.9 9.0 99.6 9.5 98.6 9.3 C 98.0 9.3 97.8 9.4 97.6 9.5 C 98.2 9.6 99.0 9.7 99.7 9.8 C 100.9 9.6 101.4 9.8 100.2 9.5 C 102.0 9.4 102.4 9.5 103.4 9.6 C 101.0 9.9 98.8 9.8 98.7 10.1 C 97.9 10.0 97.3 9.9 96.6 9.8 C 96.3 10.0 93.7 10.2 93.5 10.0 C 95.3 9.9 97.1 9.5 95.5 9.4 C 91.1 9.9 88.6 9.6 84.8 10.2 C 84.7 10.1 85.0 9.9 84.3 9.9 C 84.3 10.0 84.1 10.2 83.8 10.3 C 82.6 10.3 81.9 10.3 80.3 10.5 C 80.4 10.2 80.1 10.1 79.2 10.1 C 78.8 10.4 77.2 11.0 76.3 11.0 C 77.3 10.9 76.0 10.7 75.3 10.8 C 75.9 11.1 71.0 10.9 72.4 11.1 C 70.4 11.3 69.6 11.3 69.5 11.2 C 68.8 11.3 68.3 11.5 67.6 11.6 C 67.2 11.3 63.9 11.9 63.4 11.8 C 64.6 11.8 64.7 11.4 63.8 11.5 C 63.2 11.8 60.3 12.4 59.7 12.4 C 59.9 12.3 60.1 12.0 61.5 11.7 C 59.1 12.0 59.2 12.4 58.4 12.7 C 58.4 12.4 57.4 12.8 57.0 12.9 C 56.3 12.9 57.1 12.8 57.0 12.6 C 56.2 12.7 55.8 12.6 54.8 12.8 C 55.1 13.0 53.9 13.0 53.4 13.0 C 53.3 13.2 52.7 13.4 51.7 13.6 C 53.0 13.0 46.3 14.1 47.9 14.1 C 46.6 14.5 46.5 14.0 44.9 14.4 C 44.8 14.5 44.4 14.5 44.0 14.6 C 43.7 14.7 44.1 14.7 44.5 14.7 C 44.2 14.7 43.5 14.9 43.2 14.9 C 42.9 14.9 42.7 14.9 42.6 14.9 C 42.2 14.9 41.8 15.0 40.2 15.3 C 41.6 15.3 37.1 15.9 37.9 16.1 C 36.5 16.0 34.2 17.1 31.9 17.2 C 31.9 17.3 31.3 17.5 31.1 17.6 C 30.8 17.8 34.0 17.1 32.0 17.6 C 29.5 18.0 30.8 17.7 30.4 17.6 C 24.1 19.3 18.1 21.3 14.4 23.1 C 14.9 22.9 14.9 23.0 14.1 23.5 C 12.9 23.6 9.9 25.9 9.7 26.3 C 9.3 26.2 8.7 27.4 8.4 27.5 C 8.6 27.3 8.6 26.8 8.3 27.2 C 8.4 27.6 8.0 27.8 8.1 28.2 C 7.7 28.2 7.8 29.3 7.4 28.7 C 7.4 28.9 7.3 29.0 7.3 29.1 C 7.6 29.2 7.5 29.3 7.7 29.0 C 7.4 29.8 7.7 29.9 7.9 30.7 C 8.1 30.8 7.9 30.2 8.2 30.6 C 8.1 30.6 8.1 30.6 8.0 30.6 C 8.1 30.8 8.3 30.8 8.2 30.9 C 8.1 31.0 8.0 30.7 7.7 30.8 C 8.0 31.2 7.9 31.6 8.2 31.6 C 7.8 31.0 8.4 31.1 8.5 31.6 C 8.2 31.4 9.9 33.0 10.8 33.5 C 11.0 34.0 9.9 32.9 9.9 33.1 C 11.2 34.1 11.2 34.1 11.6 34.0 C 12.4 34.7 12.7 35.0 14.2 35.6 C 14.9 36.1 13.6 35.5 14.4 36.0 C 15.0 36.2 15.3 36.2 16.1 36.5 C 18.2 38.0 25.3 39.6 29.2 41.4 C 27.6 40.8 29.8 41.2 32.1 41.8 C 32.2 41.9 31.9 42.0 32.7 42.2 C 32.6 42.0 33.4 42.1 35.0 42.5 C 35.2 42.6 34.8 42.7 35.7 42.9 C 36.5 42.8 38.5 43.5 39.8 43.6 C 40.3 44.0 36.8 43.1 36.5 43.2 C 38.5 43.8 39.8 44.0 40.9 44.2 C 42.1 44.3 43.8 44.6 44.6 44.8 C 43.7 44.7 45.1 45.2 45.4 45.3 C 45.1 44.9 46.4 45.1 45.5 44.7 C 46.1 44.9 47.0 45.0 47.1 45.1 C 46.8 45.1 46.3 45.0 46.2 45.0 C 47.0 45.1 48.0 45.6 48.4 45.4 C 47.9 45.3 47.5 45.2 47.6 45.0 C 47.8 45.0 48.0 44.9 48.5 44.9 C 47.2 45.3 50.7 45.6 51.0 45.5 C 51.3 45.9 51.5 46.0 51.3 46.1 C 52.8 46.4 52.7 46.1 53.6 46.1 C 53.3 46.4 52.9 46.6 54.4 46.9 C 54.1 46.5 55.8 46.8 55.4 46.4 C 59.1 46.8 59.8 47.3 62.1 47.6 C 62.2 47.5 61.5 47.4 62.2 47.4 C 63.2 47.6 64.2 47.8 64.9 48.1 C 65.5 47.9 64.7 47.8 65.4 47.8 C 67.1 48.2 66.7 48.5 68.2 48.8 C 70.1 48.9 69.4 48.9 70.6 48.8 C 70.1 48.7 69.4 48.5 70.1 48.6 C 71.3 48.9 71.7 49.3 72.0 49.3 C 71.1 49.3 70.5 49.2 70.1 49.1 C 69.8 49.2 68.6 49.1 69.6 49.3 C 68.4 49.1 67.0 48.9 65.3 48.8 C 65.8 49.1 63.8 48.6 64.3 49.0 C 66.2 49.1 66.7 49.4 68.6 49.5 C 68.2 49.2 70.1 49.6 70.5 49.7 C 70.5 49.5 71.8 49.7 71.5 49.4 C 73.0 49.5 72.9 49.7 74.4 49.8 C 74.5 49.9 74.3 50.0 74.8 50.1 C 75.4 49.9 75.8 50.3 76.3 50.3 C 76.0 50.0 78.2 50.4 78.3 50.2 C 77.8 50.1 76.9 50.1 76.8 50.0 C 79.2 50.2 77.3 49.8 76.9 49.6 C 77.0 49.7 76.1 49.9 75.9 49.7 C 77.9 49.7 73.1 49.0 74.9 49.3 C 76.4 49.5 76.4 49.3 77.9 49.5 C 79.7 50.1 77.5 50.2 79.3 50.7 C 80.4 50.6 81.2 50.7 81.3 50.5 C 81.6 50.6 81.9 50.7 82.3 50.8 C 82.8 50.7 80.9 50.4 82.3 50.5 C 83.1 50.6 82.2 50.8 83.8 50.9 C 84.5 50.8 81.9 50.5 83.4 50.5 C 84.9 51.1 83.0 50.4 84.8 50.5 C 85.0 50.6 85.3 50.6 85.9 50.7 C 86.0 50.8 85.7 50.9 86.4 51.0 C 86.7 50.6 87.0 51.2 88.4 51.3 C 89.2 51.0 87.0 51.0 87.4 50.8 C 88.9 51.2 89.9 50.9 90.5 51.0 C 89.2 51.1 92.4 51.3 92.5 51.5 C 92.2 51.2 92.9 51.4 94.6 51.3 C 94.7 51.7 96.8 51.5 97.2 51.9 C 97.5 51.8 98.0 51.7 98.2 51.6 C 97.6 51.6 97.0 51.5 97.2 51.4 C 97.7 51.5 98.2 51.5 98.8 51.5 C 99.7 51.8 97.4 52.1 100.9 52.3 C 100.5 51.9 102.0 52.0 102.9 51.9 C 102.9 51.6 101.6 51.8 101.4 51.6 C 102.6 51.5 103.8 51.8 104.5 52.0 C 106.6 51.9 109.0 52.2 112.0 52.2 C 112.7 52.4 109.5 52.3 111.5 52.5 C 112.3 52.5 111.9 52.3 113.0 52.4 C 112.0 53.4 121.1 52.8 121.7 53.3 C 122.1 53.0 124.6 53.2 124.4 52.9 C 122.6 53.1 121.4 52.8 120.6 52.6 C 119.0 52.7 122.1 52.9 120.6 52.9 C 120.4 52.7 118.2 52.8 118.4 52.6 C 120.7 52.7 117.2 52.3 119.0 52.1 C 121.1 52.3 125.4 52.1 124.4 52.3 C 124.4 52.3 123.4 52.2 123.3 52.3 C 125.7 52.5 127.2 52.3 128.2 52.2 C 129.3 52.4 133.6 52.0 132.5 52.2 C 132.9 52.4 129.9 52.1 130.3 52.3 C 134.8 52.5 134.9 52.3 137.9 52.5 C 136.9 52.2 141.0 52.0 140.6 52.1 C 140.6 52.4 141.5 52.5 143.3 52.3 C 143.1 52.5 144.0 52.6 145.0 52.6 C 145.4 52.4 144.2 52.4 144.4 52.3 C 145.3 52.2 146.2 52.2 147.1 52.2 C 147.2 52.3 147.0 52.4 147.7 52.5 C 148.7 52.3 152.3 52.0 152.0 52.1 C 150.5 52.5 154.5 52.4 152.0 52.6 C 152.7 52.6 152.7 52.7 153.6 52.7 C 153.6 52.6 153.6 52.4 153.6 52.3 C 155.6 52.3 154.6 52.7 156.3 52.7 C 156.5 52.6 157.2 52.5 157.4 52.4 C 156.7 52.4 156.7 52.5 155.8 52.5 C 156.8 52.1 154.0 52.4 154.1 52.1 C 156.0 52.0 156.0 52.2 156.8 52.3 C 159.2 52.1 158.1 52.2 160.6 52.2 C 160.6 52.1 159.9 52.1 160.1 52.0 C 163.1 52.0 162.8 52.5 164.9 52.2 C 164.4 52.3 162.5 52.5 163.8 52.5 C 165.2 52.3 165.6 52.1 167.5 52.0 C 167.6 52.1 167.4 52.2 168.1 52.2 C 168.8 52.0 168.9 51.8 169.6 51.7 C 169.8 51.8 170.8 51.7 171.2 51.6 C 171.9 51.8 170.9 51.9 171.8 51.9 C 173.3 51.8 174.1 51.2 175.4 51.3 C 175.3 51.6 176.8 51.4 178.0 51.3 C 178.3 51.6 180.9 51.3 182.7 51.3 C 182.3 51.1 184.1 51.0 183.7 50.8 C 182.8 50.9 182.4 50.8 182.2 50.8 C 184.2 50.6 184.8 51.1 186.3 50.6 C 187.0 50.7 188.0 50.7 189.3 50.7 C 189.4 50.6 186.9 50.7 188.3 50.5 C 188.4 50.6 188.8 50.5 189.3 50.4 C 189.1 50.7 190.2 50.7 190.9 50.8 C 192.0 50.5 194.5 50.6 193.3 50.4 C 195.2 50.2 194.0 50.7 195.4 50.6 C 194.6 50.3 197.1 50.1 195.8 50.0 C 197.7 49.8 197.6 50.2 196.8 50.4 C 198.6 50.3 198.9 50.0 199.8 50.1 C 199.0 49.9 201.6 49.5 200.3 49.8 C 199.9 50.1 201.9 49.8 202.2 49.9 C 201.6 49.7 202.5 49.7 201.3 49.6 C 202.5 49.4 204.4 49.2 205.6 49.3 C 207.2 49.0 208.6 48.8 208.0 49.2 C 209.4 48.9 208.9 49.0 210.4 48.9 C 210.3 48.8 209.9 48.8 209.8 48.8 C 211.8 48.5 211.5 48.7 214.1 48.4 C 213.8 48.7 215.4 48.5 216.0 48.6 C 214.9 48.8 214.0 48.8 213.2 48.8 C 213.0 49.0 213.9 49.0 213.2 49.1 C 213.1 49.0 212.7 49.0 212.3 49.0 C 214.0 49.1 210.1 49.7 211.3 49.3 C 211.3 49.4 211.4 49.4 211.8 49.3 C 211.5 49.1 211.5 49.2 211.8 48.9 C 210.9 49.1 210.2 48.9 209.9 49.2 C 209.9 49.3 210.8 49.1 210.9 49.2 C 208.7 49.6 210.2 49.0 208.5 49.3 C 208.2 49.6 209.0 49.5 209.5 49.6 C 207.9 49.8 206.6 50.0 206.1 49.9 C 204.7 50.1 206.2 50.0 205.2 50.3 C 204.7 50.2 204.7 50.0 203.7 50.1 C 202.7 50.3 204.4 50.2 203.3 50.4 C 202.1 50.4 204.1 50.0 202.3 50.1 C 202.7 50.4 200.7 50.2 200.8 50.4 C 201.9 50.3 201.9 50.6 201.3 50.4 C 198.9 50.4 197.3 51.4 194.9 51.1 C 194.9 51.1 194.5 51.2 194.4 51.3 C 196.3 51.3 198.9 51.0 199.4 51.4 C 200.8 51.1 200.6 50.9 200.9 50.8 C 202.6 50.9 202.4 51.0 201.5 51.5 C 198.7 51.8 197.4 51.7 195.5 51.8 C 194.5 52.1 195.6 51.9 196.0 52.0 C 190.1 52.3 194.7 52.6 192.5 52.7 C 192.6 52.6 192.1 52.5 191.5 52.6 C 191.6 52.7 190.7 52.7 190.5 52.8 C 190.9 52.8 191.1 52.8 191.0 52.9 C 189.6 53.1 190.1 52.8 190.0 52.7 C 191.2 52.6 191.9 52.5 192.0 52.4 C 190.6 52.6 189.4 52.5 188.5 52.8 C 187.1 52.6 189.2 52.0 188.4 51.8 C 188.6 51.6 187.5 52.5 186.4 52.7 C 184.6 52.8 184.5 53.1 182.8 53.2 C 182.4 53.0 184.5 53.0 184.4 52.8 C 183.9 52.8 183.8 52.8 183.3 52.8 C 182.1 52.9 182.2 53.1 181.3 53.2 C 180.7 53.0 180.4 53.2 179.7 53.3 C 178.6 53.3 180.4 53.1 179.2 53.1 C 177.9 53.1 177.0 53.5 176.6 53.5 C 176.5 53.4 176.7 53.3 176.1 53.3 C 174.6 53.6 174.2 53.6 176.1 53.6 C 174.4 53.7 173.7 53.8 174.0 54.1 C 176.5 54.0 177.1 53.9 178.2 54.1 C 178.6 53.8 179.4 54.0 180.3 54.0 C 179.7 53.6 181.4 53.9 181.8 53.7 C 181.2 53.7 180.6 53.7 180.3 53.6 C 182.9 53.5 182.8 53.5 184.9 53.0 C 184.9 53.1 185.1 53.1 185.4 53.2 C 184.8 53.3 182.9 53.4 182.9 53.6 C 184.3 53.8 184.8 53.3 186.5 53.5 C 187.2 53.3 185.1 53.3 186.5 53.2 C 187.1 53.3 188.0 53.4 189.0 53.4 C 190.1 53.3 190.6 53.1 191.5 53.0 C 191.6 53.0 191.7 53.1 192.6 53.0 C 192.5 52.9 191.7 52.9 192.6 52.8 C 195.2 52.9 197.0 52.9 199.6 52.6 C 198.7 52.6 196.6 52.5 197.6 52.4 C 198.7 52.5 200.3 52.0 201.5 52.1 C 201.9 52.2 200.1 52.2 200.5 52.5 C 201.7 52.4 202.4 52.4 203.0 52.4 C 203.0 52.2 204.3 52.1 203.9 51.9 C 203.0 52.0 202.7 52.3 202.5 52.3 C 203.2 51.5 206.1 52.1 207.8 51.9 C 209.0 51.7 206.9 51.8 208.3 51.5 C 209.1 51.3 209.6 51.9 208.3 52.1 C 207.4 52.1 207.1 52.4 206.9 52.2 C 206.5 52.3 205.9 52.3 205.9 52.4 C 206.6 52.3 206.5 52.5 206.9 52.5 C 206.0 52.6 205.9 53.1 205.0 52.9 C 205.6 52.8 205.7 52.7 206.0 52.6 C 203.4 53.0 202.6 52.8 201.1 52.9 C 201.9 53.0 201.0 53.0 201.1 53.2 C 202.2 53.0 204.4 53.0 203.1 53.2 C 202.2 52.9 201.5 53.8 200.6 53.6 C 201.3 53.5 201.2 53.3 201.6 53.2 C 200.6 53.3 200.6 53.1 199.6 53.2 C 196.4 53.9 193.9 53.5 188.6 54.4 C 186.8 54.5 190.3 54.2 190.1 54.0 C 189.6 54.0 189.5 53.9 189.1 54.0 C 189.0 54.2 188.1 54.0 187.5 54.3 C 187.6 54.1 185.1 54.5 183.9 54.3 C 183.9 54.4 184.0 54.6 183.4 54.6 C 179.6 54.5 172.7 55.4 169.8 55.2 C 169.9 55.4 168.6 55.5 168.2 55.6 C 166.3 55.6 167.2 55.4 164.5 55.8 C 163.1 55.9 164.7 55.6 165.0 55.5 C 160.9 55.8 157.3 55.7 154.8 56.0 C 153.4 56.1 154.8 55.8 152.1 55.8 C 152.0 56.2 147.8 55.7 147.2 56.1 C 145.6 56.2 142.6 55.8 143.9 56.1 C 141.7 56.1 143.2 55.8 142.3 55.8 C 140.7 55.8 142.7 56.4 141.2 56.4 C 141.4 56.2 140.0 56.3 139.0 56.1 C 140.2 56.1 141.0 56.0 141.2 55.9 C 140.1 56.0 140.2 55.8 138.5 55.9 C 137.2 56.0 133.5 56.2 132.5 55.9 C 132.4 56.0 132.8 56.1 133.0 56.1 C 132.0 56.2 130.7 55.9 130.8 56.2 C 128.4 56.2 127.3 55.9 126.0 56.1 C 124.9 56.2 126.3 55.9 123.2 55.8 C 123.2 56.1 117.7 55.9 116.2 55.7 C 116.1 56.0 115.8 55.7 115.1 55.6 C 115.0 55.7 115.2 55.9 114.6 55.9 C 114.5 55.8 114.0 55.8 113.5 55.8 C 113.9 55.5 111.5 55.9 111.4 55.6 C 111.8 55.6 111.8 55.4 111.4 55.4 C 111.2 55.6 109.0 55.1 109.2 55.4 C 109.7 55.5 111.2 55.5 110.8 55.7 C 108.7 55.7 109.5 55.4 108.1 55.3 C 108.2 55.4 109.1 55.5 108.1 55.6 C 106.7 55.5 108.0 55.5 107.1 55.3 C 106.3 55.3 104.9 55.4 104.4 55.4 C 104.5 55.4 104.1 55.2 103.9 55.2 C 101.1 55.0 95.0 54.9 92.4 54.4 C 92.1 54.5 91.6 54.5 91.8 54.7 C 90.2 54.4 90.3 54.5 88.7 54.3 C 88.7 54.4 88.7 54.5 88.7 54.6 C 86.6 54.6 88.5 54.3 87.2 54.2 C 87.0 54.8 86.4 54.0 85.1 53.9 C 85.0 54.0 84.4 54.0 84.6 54.2 C 82.6 54.0 82.8 53.6 81.1 53.6 C 81.5 53.7 81.7 54.5 81.5 54.7 C 81.2 54.6 80.7 54.5 80.0 54.4 C 80.9 54.2 80.5 53.2 78.1 53.3 C 79.4 53.4 79.9 53.5 79.5 53.7 C 77.7 53.5 77.1 53.3 75.6 53.2 C 75.3 53.4 76.4 53.5 76.0 53.8 C 75.6 53.7 75.4 53.8 75.5 53.9 C 73.9 53.7 73.8 53.5 72.1 53.4 C 72.1 53.3 72.5 53.3 73.1 53.5 C 73.0 53.3 73.0 53.1 74.1 53.2 C 74.2 53.3 73.5 53.5 75.0 53.6 C 75.1 53.5 75.1 53.3 75.1 53.2 C 74.0 53.1 71.4 52.6 71.2 52.7 C 71.7 52.9 72.5 53.0 72.1 53.2 C 70.2 53.0 69.7 52.6 68.2 52.3 C 65.6 52.1 61.1 51.5 61.6 51.9 C 60.0 51.6 60.6 51.7 59.2 51.5 C 59.6 51.8 57.7 51.4 57.8 51.6 C 59.5 51.8 59.0 51.7 60.6 51.9 C 60.6 52.0 60.3 52.1 59.6 52.1 C 59.6 51.9 58.9 51.8 57.8 51.7 C 58.0 51.8 58.9 52.1 57.8 52.0 C 57.7 51.9 57.4 51.9 56.9 51.8 C 56.9 51.7 56.9 51.5 56.9 51.4 C 57.6 51.4 58.3 51.5 58.8 51.4 C 58.4 51.4 58.3 51.3 57.9 51.2 C 57.6 51.3 55.7 50.9 55.6 51.0 C 56.3 51.1 56.8 51.3 56.0 51.3 C 55.9 51.2 54.7 51.0 54.2 51.0 C 55.8 51.4 55.1 51.3 55.9 51.7 C 54.1 51.5 54.4 51.2 52.4 51.0 C 52.4 50.8 52.4 50.6 52.9 50.6 C 51.7 49.9 48.6 49.9 47.7 49.7 C 48.3 49.8 49.2 49.6 48.1 49.4 C 48.1 49.5 47.4 49.4 47.2 49.4 C 46.8 49.8 47.7 50.2 48.4 50.6 C 47.6 50.4 47.4 50.5 46.6 50.4 C 46.4 50.2 47.3 50.0 46.3 49.8 C 46.1 50.1 44.5 49.5 44.2 49.7 C 44.8 49.8 45.3 50.0 44.5 49.9 C 44.7 49.8 43.1 49.6 43.1 49.4 C 44.2 49.6 44.2 49.5 44.5 49.5 C 44.9 49.5 45.1 49.5 45.5 49.5 C 44.6 49.4 46.2 49.4 44.7 49.2 C 44.0 49.2 43.6 49.4 40.5 48.8 C 39.3 48.5 40.4 48.5 38.9 48.1 C 39.2 48.5 35.9 47.8 38.0 48.0 C 36.8 47.8 36.2 47.6 35.6 47.5 C 37.1 48.0 29.8 46.7 30.8 47.1 C 30.9 46.8 30.6 46.4 30.3 46.2 C 28.8 46.2 27.3 45.6 24.0 44.6 C 24.1 45.0 23.5 44.5 22.2 44.1 C 21.9 44.2 23.0 44.6 22.1 44.4 C 20.7 43.8 20.6 43.8 20.4 43.6 C 19.4 43.2 18.6 42.9 18.2 42.7 C 18.1 42.8 18.4 43.0 18.6 43.1 C 15.0 41.5 13.3 41.1 10.9 39.8 C 11.9 40.4 12.3 40.2 11.5 39.8 C 11.0 39.6 10.5 39.4 10.2 39.3 C 10.6 39.8 10.4 39.5 9.4 38.9 C 8.4 38.4 9.5 39.4 8.8 39.0 C 8.1 38.4 8.6 38.6 8.3 38.3 C 7.9 38.0 7.6 37.8 7.3 37.5 C 7.8 38.1 7.0 37.7 6.4 37.3 C 7.0 37.4 6.8 37.2 5.7 36.3 C 5.7 36.1 6.3 36.6 5.9 36.2 C 5.7 35.9 4.7 35.4 4.3 34.6 C 4.5 34.8 4.7 34.9 4.7 34.8 C 3.9 34.2 3.8 33.3 3.6 32.6 C 3.7 33.4 3.4 33.1 3.4 33.5 C 3.2 32.6 2.5 31.7 2.7 31.0 C 2.9 32.2 3.1 30.9 3.0 30.2 C 2.8 30.1 3.1 31.3 2.7 31.0 C 2.4 30.6 2.6 29.6 2.4 29.2 C 2.3 29.3 2.5 29.8 2.4 29.9 C 2.3 29.3 2.2 30.2 2.2 29.6 C 2.4 29.2 2.1 28.8 2.1 28.4 C 2.3 28.0 2.8 27.1 2.8 26.7 C 2.7 26.6 2.5 27.3 2.4 27.3 C 2.8 25.3 3.5 24.9 4.4 23.4 C 4.7 23.3 5.0 23.0 5.4 22.7 C 5.3 22.6 5.5 22.3 5.8 22.0 C 6.5 21.5 7.2 21.1 8.2 20.5 C 8.1 20.8 7.7 21.2 9.0 20.3 C 9.0 20.2 8.5 20.5 8.9 20.2 C 9.0 20.2 9.3 20.1 9.3 19.9 C 9.3 19.9 9.3 19.9 9.2 19.8 C 8.8 20.1 8.5 20.3 8.2 20.5 C 8.1 20.4 7.9 20.3 7.6 20.5 C 9.1 19.3 9.3 19.8 10.3 19.0 C 10.6 19.2 11.0 19.1 10.2 19.8 C 11.2 19.2 11.9 18.7 12.1 18.4 C 10.8 19.1 11.1 18.6 10.7 18.7 C 11.5 18.3 11.4 18.2 11.8 17.9 C 12.9 17.6 10.9 18.8 12.9 17.9 C 11.3 18.3 14.1 17.1 15.2 16.7 C 15.0 16.7 14.6 16.8 15.1 16.5 C 18.0 15.1 18.1 16.0 20.0 14.9 C 19.9 15.1 20.9 14.8 21.3 14.7 C 19.6 15.4 19.2 15.6 18.5 15.9 C 18.6 15.9 19.1 15.8 19.6 15.6 C 19.6 15.5 20.0 15.3 20.8 15.2 C 21.2 14.9 20.9 14.6 22.3 13.9 C 22.5 14.0 22.3 14.1 23.1 13.9 C 23.7 13.5 22.5 14.5 25.7 13.5 C 25.1 13.6 24.8 13.5 25.0 13.3 C 26.5 12.8 26.2 12.9 28.3 12.3 C 29.3 12.5 27.0 13.1 26.4 13.5 C 27.9 13.1 29.0 12.5 30.7 12.3 C 29.4 12.5 30.6 12.0 32.0 11.5 C 33.3 11.3 32.0 11.9 33.7 11.6 C 34.9 11.2 35.6 10.9 34.3 11.0 C 37.2 10.5 36.5 10.3 39.1 9.8 C 39.2 10.0 38.5 10.1 37.5 10.3 C 37.7 10.3 37.4 10.5 38.4 10.3 C 39.2 10.0 40.6 9.7 42.0 9.4 C 43.5 9.1 44.2 8.9 44.7 8.7 C 46.7 8.8 48.8 7.9 50.8 7.8 C 50.0 8.2 53.4 7.4 54.4 7.6 C 55.0 7.4 56.9 6.6 56.2 6.9 C 56.4 7.2 57.6 6.9 58.6 6.9 C 58.5 6.8 58.5 6.7 58.5 6.7 C 60.6 6.3 61.1 6.5 61.8 6.6 C 64.3 6.2 67.2 6.2 70.4 5.6 C 71.2 5.8 71.9 5.6 73.9 5.6 C 73.8 5.4 75.3 5.2 76.8 5.1 C 76.4 4.9 77.8 4.8 77.8 4.7 C 76.5 4.8 76.9 4.5 76.2 4.4 C 78.0 4.5 78.8 3.9 80.2 4.1 C 78.5 4.3 78.0 4.7 77.8 5.1 C 79.8 4.8 80.9 4.8 81.4 5.0 C 81.5 4.8 81.2 4.7 80.8 4.7 C 81.5 4.6 82.2 4.5 82.8 4.5 C 83.0 4.6 82.1 4.8 82.8 4.7 C 83.3 4.6 83.8 4.5 84.3 4.4 C 84.9 4.6 83.6 4.6 83.4 4.8 C 86.1 4.7 84.9 4.3 86.4 4.1 C 86.8 4.2 86.7 4.5 87.9 4.4 C 88.4 4.2 88.6 4.0 90.0 3.9 C 90.9 3.9 90.0 4.3 91.0 4.2 C 91.2 4.1 91.6 4.1 92.1 4.1 C 92.0 4.0 92.5 3.9 93.1 3.8 C 93.2 3.9 94.2 3.8 94.6 3.7 C 94.8 3.9 96.4 4.0 96.8 3.8 C 96.7 3.7 95.8 3.8 95.7 3.7 C 96.9 3.7 97.7 3.6 98.3 3.5 C 98.7 4.0 100.6 3.5 103.1 3.7 C 104.6 3.4 102.7 3.3 104.7 3.0 C 105.8 3.2 104.4 3.3 104.7 3.5 C 105.0 3.5 106.8 3.6 106.8 3.4 C 106.8 3.3 105.9 3.4 105.8 3.3 C 107.2 3.0 107.1 3.3 107.9 3.4 C 107.8 3.2 108.7 3.1 108.9 2.9 C 112.8 2.6 112.8 3.1 114.3 3.2 C 114.3 3.1 115.3 3.1 115.4 3.0 C 114.3 3.2 112.8 3.0 114.3 2.9 C 114.1 3.0 116.3 2.8 116.5 2.8 C 116.2 2.6 114.8 2.7 115.4 2.5 C 117.4 2.3 116.6 2.8 118.1 2.6 C 118.3 2.7 117.4 2.7 117.0 2.8 C 117.6 2.8 118.5 2.8 118.6 2.9 C 117.9 3.0 117.9 3.1 117.5 3.3 C 118.6 3.1 120.5 3.2 119.2 2.9 C 121.3 2.9 123.4 2.7 121.9 2.5 C 123.7 2.5 122.7 2.8 124.1 2.6 C 123.9 2.9 123.5 3.0 124.6 3.2 C 124.8 3.1 125.8 3.0 125.7 2.8 C 128.3 2.8 129.0 3.0 130.1 3.2 C 129.1 2.9 130.4 3.1 131.7 2.9 C 132.5 3.0 131.7 3.3 133.8 3.2 C 131.6 2.9 136.5 3.1 135.5 2.7 C 138.2 2.9 138.1 2.9 141.0 3.0 C 140.7 3.1 140.0 3.2 138.8 3.3 C 139.6 3.1 136.4 3.1 136.6 3.2 C 136.6 3.2 136.6 3.3 136.6 3.4 C 138.7 3.3 140.0 3.4 140.9 3.5 C 141.4 3.4 142.3 3.3 142.0 3.0 C 144.0 3.3 146.0 2.9 146.9 3.2 C 146.3 3.2 145.6 3.2 145.8 3.3 C 146.6 3.3 147.6 3.2 147.5 3.0 C 145.9 2.9 145.6 2.9 144.8 3.1 C 145.5 2.9 143.2 2.7 144.8 2.7 C 144.7 3.1 148.0 2.5 146.9 2.8 C 145.2 2.9 148.9 3.0 149.1 3.2 C 149.1 3.2 149.1 3.2 149.1 3.2 Z M 200.1 53.1 C 201.5 52.9 199.7 52.8 198.6 53.0 C 198.9 53.0 199.1 53.1 199.1 53.2 C 199.5 53.2 200.0 53.1 200.1 53.1 C 200.1 53.1 200.1 53.1 200.1 53.1 Z M 183.7 51.0 C 183.2 51.3 185.7 50.9 186.8 50.9 C 186.5 50.9 186.1 50.8 186.8 50.8 C 185.7 50.6 185.3 51.1 183.7 51.0 C 183.7 51.0 183.7 51.0 183.7 51.0 Z M 124.4 53.3 C 124.8 53.3 125.8 53.2 125.9 53.3 C 126.6 53.3 126.4 53.2 126.5 53.1 C 127.8 53.1 126.2 53.5 128.2 53.4 C 128.9 52.9 124.8 52.7 124.4 53.3 C 124.4 53.3 124.4 53.3 124.4 53.3 Z M 128.4 6.7 C 129.2 6.9 127.4 7.1 127.9 7.3 C 130.9 7.1 128.6 6.8 132.7 6.9 C 132.5 6.8 132.2 6.7 132.2 6.6 C 130.3 6.8 130.1 6.9 130.6 6.5 C 129.7 6.5 129.5 7.0 128.4 6.7 C 128.4 6.7 128.4 6.7 128.4 6.7 Z M 167.2 8.4 C 166.9 8.3 166.6 8.2 166.6 8.1 C 165.4 8.2 165.6 8.2 164.0 8.1 C 164.2 8.5 165.8 8.5 167.2 8.4 C 167.2 8.4 167.2 8.4 167.2 8.4 Z M 262.9 25.9 C 263.1 26.1 263.2 26.2 263.4 26.3 C 263.4 26.1 264.0 26.2 263.2 25.6 C 263.1 25.6 263.2 25.8 263.3 25.9 C 263.2 25.8 262.8 25.5 262.7 25.7 C 263.0 25.8 262.9 25.9 262.9 25.9 C 262.9 25.9 262.9 25.9 262.9 25.9 Z M 253.7 39.6 C 255.7 38.6 250.4 39.9 253.7 39.6 C 253.7 39.6 253.7 39.6 253.7 39.6 C 253.7 39.6 253.7 39.6 253.7 39.6 Z M 258.8 40.6 C 258.9 40.7 259.3 40.5 259.3 40.4 C 260.8 39.8 259.4 40.6 260.3 40.3 C 261.4 39.6 259.6 40.2 260.9 39.4 C 260.6 39.4 259.7 40.2 258.8 40.6 C 258.8 40.6 258.8 40.6 258.8 40.6 Z M 17.8 15.8 C 16.4 16.5 16.1 16.8 15.9 17.2 C 16.9 16.8 17.7 16.5 18.1 16.5 C 19.9 15.7 16.8 16.8 16.5 16.9 C 16.6 16.6 17.9 16.1 17.8 15.8 C 17.8 15.8 17.8 15.8 17.8 15.8 Z M 13.4 17.8 C 12.9 18.1 12.2 18.6 12.2 18.8 C 13.0 18.4 13.1 18.4 13.2 18.5 C 13.8 18.0 12.9 18.3 13.4 17.8 C 13.4 17.8 13.4 17.8 13.4 17.8 Z M 22.5 14.6 C 21.8 14.8 22.1 14.9 22.0 15.1 C 23.1 14.7 23.4 14.8 24.5 14.4 C 24.5 14.3 24.5 14.2 24.5 14.2 C 23.5 14.4 23.4 14.5 22.6 14.8 C 22.6 14.7 22.6 14.7 22.5 14.6 C 22.5 14.6 22.5 14.6 22.5 14.6 Z M 9.8 20.0 C 7.9 21.1 7.4 22.0 6.8 23.1 C 7.7 22.2 8.6 21.0 9.6 20.5 C 10.8 19.7 9.2 20.6 9.1 20.5 C 9.1 20.4 9.6 20.2 9.8 20.0 C 9.8 20.0 9.8 20.0 9.8 20.0 Z M 4.1 33.4 C 4.2 33.9 4.9 34.2 5.5 35.0 C 5.4 34.8 5.4 34.6 5.5 34.6 C 4.6 33.4 4.7 34.4 4.1 33.4 C 4.1 33.4 4.1 33.4 4.1 33.4 Z M 11.6 39.4 C 12.7 40.0 11.2 39.0 11.8 39.1 C 10.6 38.5 9.5 37.8 9.4 38.1 C 10.6 38.6 10.9 38.8 11.6 39.4 C 11.6 39.4 11.6 39.4 11.6 39.4 Z M 20.5 43.1 C 22.3 43.6 19.9 42.6 20.7 42.6 C 20.0 42.4 20.2 42.5 20.1 42.6 C 19.6 42.4 19.2 42.2 18.4 41.9 C 18.9 42.3 20.9 42.9 20.5 43.1 C 20.5 43.1 20.5 43.1 20.5 43.1 Z M 60.0 7.5 C 59.2 7.7 59.5 7.9 57.8 8.0 C 60.3 7.7 59.0 8.6 62.4 8.1 C 61.9 8.1 62.2 7.9 62.4 8.0 C 63.7 7.7 61.2 8.0 62.4 7.6 C 61.4 7.7 62.0 7.9 61.1 8.1 C 60.0 8.0 59.4 7.9 60.0 7.5 C 60.0 7.5 60.0 7.5 60.0 7.5 Z M 62.5 8.3 C 63.4 8.3 63.4 7.8 63.9 8.0 C 64.3 7.9 64.2 7.8 64.3 7.8 C 63.9 7.8 63.9 7.8 63.8 7.7 C 63.0 7.9 62.2 8.1 62.5 8.3 C 62.5 8.3 62.5 8.3 62.5 8.3 Z M 53.8 9.5 C 55.3 9.2 55.8 9.3 56.5 8.9 C 57.1 9.2 57.5 8.7 58.3 8.9 C 59.8 8.6 58.7 8.6 58.3 8.5 C 59.7 8.2 58.7 8.7 60.1 8.5 C 60.4 8.1 58.5 8.5 58.7 8.2 C 57.6 8.3 57.6 8.5 56.9 8.6 C 56.4 8.7 56.5 8.6 56.4 8.5 C 55.1 8.7 55.2 8.5 54.2 8.7 C 53.9 9.0 54.4 9.0 55.6 8.8 C 54.3 9.0 53.8 9.3 52.4 9.4 C 53.4 9.0 49.0 9.6 49.4 9.9 C 50.6 9.8 50.2 9.6 50.7 9.5 C 52.2 9.5 53.2 9.3 53.8 9.5 C 53.8 9.5 53.8 9.5 53.8 9.5 Z M 23.4 15.1 C 22.9 15.3 22.4 15.4 21.6 15.6 C 21.5 15.5 22.5 15.2 21.5 15.3 C 20.2 15.7 20.0 15.9 19.2 16.2 C 19.7 16.2 22.3 15.5 21.0 16.1 C 21.5 16.1 22.3 15.8 23.5 15.5 C 22.0 15.5 25.3 14.9 26.7 14.5 C 26.5 14.2 29.1 14.0 30.1 13.5 C 29.2 13.5 26.5 14.4 25.3 14.8 C 25.9 14.5 22.0 15.2 23.4 15.1 C 23.4 15.1 23.4 15.1 23.4 15.1 Z M 66.2 7.7 C 66.5 7.6 67.5 7.4 66.7 7.5 C 67.1 7.3 68.0 7.4 67.6 7.1 C 68.1 7.0 68.6 7.0 69.1 6.9 C 68.9 7.0 67.6 7.1 68.1 7.3 C 69.1 7.1 68.7 7.3 70.0 7.1 C 69.3 7.4 70.1 7.4 69.6 7.7 C 70.0 7.6 71.2 7.4 71.0 7.3 C 72.9 7.1 70.5 7.6 73.0 7.4 C 73.0 7.6 71.2 7.7 70.6 7.7 C 70.3 8.0 73.7 7.5 75.5 7.4 C 73.8 7.3 75.1 7.0 75.9 6.7 C 76.5 6.7 75.9 6.9 76.9 6.9 C 77.8 6.8 78.2 6.7 78.5 6.8 C 79.1 6.7 78.8 6.5 78.9 6.4 C 80.1 6.3 79.2 6.8 80.9 6.6 C 79.6 6.3 81.1 6.1 83.4 6.0 C 83.3 5.9 82.5 6.0 82.4 5.9 C 82.7 5.7 84.1 5.9 84.5 5.9 C 85.3 5.8 84.7 5.7 83.9 5.8 C 84.4 5.7 84.9 5.6 85.5 5.5 C 82.9 5.6 78.9 6.0 74.4 6.1 C 75.3 6.2 74.3 6.4 72.9 6.4 C 72.7 6.3 73.3 6.2 73.9 6.2 C 72.3 6.0 72.5 6.6 70.0 6.7 C 68.7 6.8 71.5 6.4 70.0 6.4 C 69.1 6.6 68.5 6.8 68.1 6.6 C 66.5 6.9 66.1 7.2 63.8 7.5 C 65.1 7.5 65.8 8.0 67.2 7.7 C 67.2 7.6 66.6 7.7 66.2 7.7 C 66.2 7.7 66.2 7.7 66.2 7.7 Z M 13.3 18.6 C 12.5 19.0 12.2 19.3 12.0 19.3 C 10.8 20.0 12.3 19.4 12.5 19.3 C 13.1 19.0 13.2 18.8 13.3 18.6 C 13.3 18.6 13.3 18.6 13.3 18.6 Z M 131.4 55.5 C 133.4 55.6 133.0 55.2 134.7 55.2 C 133.3 55.2 133.0 55.0 130.8 55.0 C 130.7 55.2 130.7 55.4 131.4 55.5 C 131.4 55.5 131.4 55.5 131.4 55.5 Z M 18.2 16.7 C 19.4 16.0 16.7 17.6 16.7 17.4 C 15.3 18.1 18.0 17.0 16.8 17.8 C 18.0 17.1 18.8 17.1 20.5 16.3 C 20.4 16.2 19.0 16.7 17.7 17.2 C 17.5 17.1 18.2 16.8 18.2 16.7 C 18.2 16.7 18.2 16.7 18.2 16.7 Z M 110.3 54.4 C 108.9 54.5 111.6 54.9 112.4 55.0 C 112.5 54.7 112.1 54.7 110.3 54.4 C 110.3 54.4 110.3 54.4 110.3 54.4 Z M 145.5 55.0 C 146.3 54.7 143.1 55.1 143.9 54.7 C 142.9 54.7 142.8 54.8 142.8 54.9 C 142.3 54.8 140.8 54.9 141.2 54.7 C 140.9 54.5 143.6 54.7 142.8 54.4 C 143.7 54.4 143.7 54.5 144.4 54.5 C 142.8 54.5 143.6 54.8 145.5 54.8 C 145.5 54.6 144.6 54.7 145.5 54.5 C 145.6 54.6 146.6 54.8 146.6 55.1 C 148.3 55.1 147.3 54.7 149.3 54.7 C 149.1 54.5 147.9 54.5 147.1 54.5 C 147.3 54.2 149.2 54.6 148.8 54.3 C 149.2 54.5 150.3 54.6 150.4 54.8 C 148.9 54.9 147.9 55.1 146.6 55.3 C 147.8 55.4 149.4 54.8 151.5 55.0 C 151.2 54.8 152.5 54.8 152.0 54.6 C 153.6 54.6 152.9 55.0 152.6 55.0 C 153.0 55.1 156.0 55.0 155.8 54.8 C 156.0 55.0 159.7 54.8 159.6 54.5 C 160.7 54.7 162.3 54.2 162.8 54.5 C 163.4 54.4 164.7 54.4 166.0 54.3 C 166.4 54.1 164.0 54.3 163.9 54.1 C 163.5 53.9 166.4 54.1 166.0 53.9 C 166.0 53.8 166.0 53.8 166.0 53.7 C 164.9 53.8 163.8 53.9 162.8 54.1 C 162.0 54.1 163.0 54.0 162.8 53.8 C 162.1 54.0 158.6 54.4 158.5 54.0 C 156.2 54.2 154.6 54.1 153.6 54.3 C 152.2 54.4 154.4 54.2 153.6 54.0 C 149.6 54.4 144.6 54.1 141.2 54.5 C 140.4 54.5 140.7 54.3 140.6 54.2 C 135.9 54.4 139.9 54.7 136.3 54.6 C 136.3 54.4 138.0 54.4 137.9 54.2 C 136.6 54.2 136.3 54.3 134.6 54.3 C 134.6 54.4 134.6 54.5 134.6 54.6 C 133.2 54.6 133.8 54.3 133.0 54.2 C 131.3 54.3 131.7 54.4 130.9 54.1 C 129.2 54.2 127.6 54.3 125.9 54.1 C 124.8 54.3 126.9 54.7 128.7 54.7 C 128.6 54.8 128.1 54.8 128.1 54.9 C 126.1 54.6 125.8 54.2 122.7 54.1 C 125.0 54.4 121.5 54.2 121.1 54.0 C 119.8 53.9 120.8 54.3 121.6 54.3 C 121.4 54.4 120.7 54.3 120.6 54.2 C 120.4 54.5 123.3 54.8 126.5 54.7 C 125.0 55.1 128.7 54.7 127.0 55.2 C 129.6 55.1 127.4 54.8 130.3 54.9 C 130.0 54.8 129.5 54.7 129.2 54.6 C 131.4 54.5 130.7 54.9 133.0 54.8 C 133.4 54.6 131.9 54.7 131.9 54.5 C 134.4 54.8 135.2 54.8 136.8 55.1 C 137.2 54.9 136.7 54.7 139.5 54.8 C 139.5 54.9 139.5 55.0 139.5 55.0 C 138.2 55.0 137.9 55.4 141.2 55.4 C 141.4 55.2 140.4 55.3 139.5 55.2 C 139.9 55.1 141.0 55.0 142.3 55.0 C 142.9 55.0 143.6 55.1 142.8 55.1 C 143.3 55.4 143.8 54.9 145.5 55.0 C 145.5 55.0 145.5 55.0 145.5 55.0 Z M 3.9 31.7 C 4.0 31.9 4.1 32.1 4.4 32.6 C 4.7 32.7 4.2 31.9 4.4 31.9 C 4.1 31.2 4.1 31.8 3.9 31.7 C 3.9 31.7 3.9 31.7 3.9 31.7 Z M 6.3 23.6 C 6.1 23.5 5.9 24.1 5.4 24.6 C 5.4 24.9 5.9 24.2 6.1 24.3 C 6.7 23.7 5.6 24.2 6.3 23.6 C 6.3 23.6 6.3 23.6 6.3 23.6 Z M 4.1 26.8 C 3.8 27.0 4.1 27.1 4.3 26.5 C 4.4 26.6 4.4 26.8 4.4 27.2 C 4.8 26.9 4.5 26.5 4.9 25.8 C 4.7 26.0 4.4 26.3 4.1 26.8 C 4.1 26.8 4.1 26.8 4.1 26.8 Z M 3.7 28.0 C 3.8 28.5 3.5 28.8 3.7 29.5 C 3.8 29.3 4.0 27.7 4.0 27.4 C 3.9 27.1 3.4 28.9 3.7 28.0 C 3.7 28.0 3.7 28.0 3.7 28.0 Z M 89.3 52.9 C 89.8 53.0 89.7 52.9 89.8 52.8 C 91.4 53.3 93.6 53.3 91.9 53.6 C 93.5 53.5 95.1 53.9 96.5 54.0 C 97.7 54.1 97.1 53.8 98.1 53.9 C 99.6 54.0 97.3 53.9 97.6 54.1 C 97.9 54.3 98.4 53.9 100.2 54.1 C 99.7 53.7 101.8 54.3 101.3 53.8 C 102.3 54.0 102.6 53.9 103.9 53.9 C 103.8 53.8 102.5 53.7 102.4 53.5 C 101.7 53.3 101.6 53.7 102.9 53.7 C 102.1 53.9 100.3 53.5 99.7 53.6 C 99.1 53.4 101.4 53.7 100.8 53.4 C 100.3 53.4 99.8 53.4 99.7 53.5 C 99.0 53.4 98.5 53.3 98.2 53.2 C 98.6 53.2 98.7 53.2 98.7 53.3 C 99.6 53.3 97.7 52.8 99.8 52.9 C 99.4 52.8 98.5 52.8 98.7 52.6 C 98.1 52.4 98.7 53.3 96.6 52.9 C 95.2 53.1 99.8 53.3 98.6 53.7 C 95.7 53.5 97.4 53.2 95.0 53.1 C 95.0 53.2 95.1 53.3 94.5 53.3 C 94.6 53.4 95.4 53.4 96.0 53.4 C 95.9 53.5 95.1 53.4 94.5 53.4 C 94.6 53.5 95.0 53.5 95.0 53.6 C 93.0 53.4 93.3 52.9 95.0 52.9 C 95.0 52.7 92.6 52.6 91.9 52.6 C 92.6 52.8 91.9 52.8 92.4 53.1 C 92.9 53.1 92.8 53.0 93.0 52.9 C 93.9 53.0 93.0 53.1 92.9 53.2 C 91.9 53.1 92.0 52.9 90.9 53.0 C 91.1 52.9 91.4 52.9 91.4 52.7 C 90.9 52.7 90.3 52.7 89.8 52.6 C 89.9 52.8 89.2 52.8 89.3 52.9 C 89.3 52.9 89.3 52.9 89.3 52.9 Z M 116.7 54.9 C 118.5 55.0 117.6 54.8 116.7 54.7 C 117.1 54.7 117.8 54.6 118.4 54.6 C 117.9 54.5 117.4 54.6 115.7 54.5 C 117.2 54.2 115.7 53.7 113.0 53.7 C 112.2 54.1 114.5 54.2 113.6 54.5 C 115.5 54.4 116.5 54.6 116.7 54.9 C 116.7 54.9 116.7 54.9 116.7 54.9 Z M 12.6 19.4 C 11.7 19.8 11.0 20.3 10.2 20.7 C 10.4 20.8 12.9 19.7 12.6 19.4 C 12.6 19.4 12.6 19.4 12.6 19.4 Z M 87.5 5.6 C 87.9 5.6 88.0 5.6 88.0 5.7 C 89.5 5.5 87.3 5.5 88.0 5.3 C 87.5 5.3 87.0 5.4 86.5 5.4 C 86.4 5.5 88.6 5.5 87.0 5.7 C 87.1 5.8 87.5 5.7 87.5 5.6 C 87.5 5.6 87.5 5.6 87.5 5.6 Z M 4.0 31.0 C 4.2 31.5 4.3 31.1 4.9 32.3 C 4.8 31.8 4.6 31.6 4.4 30.9 C 4.3 30.9 4.1 31.0 4.0 31.0 C 4.0 31.0 4.0 31.0 4.0 31.0 Z M 81.6 52.7 C 82.9 53.1 83.3 52.6 85.7 52.9 C 84.5 52.5 83.1 52.8 81.6 52.7 C 81.6 52.7 81.6 52.7 81.6 52.7 Z M 170.3 53.8 C 169.5 53.7 170.5 53.6 169.2 53.6 C 168.4 53.7 168.1 53.8 167.1 53.9 C 168.6 54.1 171.2 53.7 172.3 54.1 C 173.6 53.9 173.5 53.7 173.9 53.5 C 173.3 53.5 173.0 53.5 172.9 53.5 C 172.1 53.9 171.2 53.3 170.3 53.8 C 170.3 53.8 170.3 53.8 170.3 53.8 Z M 109.8 54.3 C 108.8 54.1 110.5 54.1 110.9 53.9 C 111.6 54.0 111.3 54.1 111.4 54.2 C 112.4 54.3 112.6 54.1 112.5 54.0 C 110.7 53.8 108.5 53.7 109.8 53.5 C 108.1 53.3 109.0 53.7 108.2 53.7 C 107.3 53.5 108.2 53.5 108.2 53.2 C 107.8 53.3 106.5 53.5 106.6 53.2 C 104.1 53.4 105.2 53.8 107.1 54.3 C 108.8 54.1 106.8 54.0 109.8 54.3 C 109.8 54.3 109.8 54.3 109.8 54.3 Z M 47.5 48.2 C 47.6 48.3 48.3 48.4 48.3 48.5 C 49.3 48.4 50.1 48.3 51.0 48.2 C 50.9 47.9 49.6 48.0 50.1 48.2 C 49.8 48.0 48.9 47.8 48.5 47.5 C 47.6 47.3 47.2 47.8 47.2 47.4 C 46.3 47.4 46.8 47.5 45.5 47.2 C 47.5 47.8 44.7 47.2 44.5 47.4 C 45.7 47.7 46.8 47.8 46.7 47.6 C 47.6 47.8 48.6 48.0 48.8 48.3 C 48.7 48.4 48.0 48.2 47.5 48.2 C 47.5 48.2 47.5 48.2 47.5 48.2 Z M 52.8 48.3 C 52.4 48.3 52.1 48.3 51.5 48.2 C 51.8 48.3 51.9 48.4 51.9 48.6 C 53.0 48.7 53.3 48.6 53.6 48.9 C 54.7 49.1 53.4 48.5 55.0 48.9 C 54.9 48.8 54.1 48.7 54.1 48.6 C 54.0 48.7 53.3 48.7 52.8 48.3 C 52.8 48.3 52.8 48.3 52.8 48.3 Z M 67.0 50.6 C 68.2 50.8 66.3 50.4 67.0 50.3 C 66.7 50.3 64.3 50.0 64.7 49.8 C 64.0 49.4 61.6 49.8 61.9 49.4 C 61.3 49.3 61.5 49.5 61.4 49.6 C 63.0 49.7 63.0 49.9 61.8 49.8 C 62.0 49.9 63.0 50.0 63.7 50.1 C 63.8 50.0 63.1 49.9 63.3 49.7 C 64.6 50.0 65.7 50.3 67.0 50.6 C 67.0 50.6 67.0 50.6 67.0 50.6 Z M 145.8 4.4 C 144.5 4.4 143.7 4.4 143.1 4.5 C 143.4 4.6 144.1 4.5 144.7 4.5 C 144.9 4.6 144.3 4.6 143.6 4.6 C 144.2 4.9 146.5 4.7 145.8 4.4 C 145.8 4.4 145.8 4.4 145.8 4.4 Z M 134.9 4.4 C 133.7 4.4 132.9 4.4 132.7 4.5 C 133.2 4.7 133.1 4.5 133.8 4.5 C 134.3 4.5 134.6 4.6 134.9 4.7 C 135.4 4.7 135.3 4.6 135.5 4.5 C 135.9 4.5 136.0 4.6 136.0 4.6 C 137.5 4.4 134.3 4.6 134.9 4.4 C 134.9 4.4 134.9 4.4 134.9 4.4 Z M 59.1 49.5 C 58.7 49.3 58.4 49.2 57.3 49.0 C 57.5 49.2 56.6 49.1 55.9 49.0 C 56.9 49.3 57.4 49.3 59.1 49.5 C 59.1 49.5 59.1 49.5 59.1 49.5 Z M 69.6 7.9 C 68.2 7.8 68.3 8.2 66.3 8.3 C 66.3 8.3 66.3 8.4 66.3 8.5 C 67.5 8.2 68.1 8.2 69.6 7.9 C 69.6 7.9 69.6 7.9 69.6 7.9 Z M 268.4 32.1 C 268.3 32.0 268.0 32.7 267.8 32.7 C 268.0 33.0 267.4 33.0 266.1 34.4 C 266.0 34.3 266.1 34.2 266.2 34.0 C 265.1 35.0 266.7 33.9 267.0 33.9 C 267.7 33.1 268.0 33.0 268.4 32.1 C 268.4 32.1 268.4 32.1 268.4 32.1 Z M 154.2 53.6 C 154.1 53.7 154.4 53.7 154.7 53.7 C 155.1 53.7 155.4 53.7 155.8 53.6 C 155.6 53.3 153.8 53.2 155.2 52.9 C 154.7 52.9 154.7 52.9 154.7 53.0 C 152.1 53.7 150.0 52.6 146.6 53.1 C 146.0 53.1 146.1 53.2 146.0 53.3 C 146.5 53.3 146.5 53.3 146.6 53.3 C 147.0 53.0 150.1 53.3 148.7 53.5 C 148.8 53.6 149.3 53.5 149.3 53.5 C 149.6 53.5 150.0 53.5 150.4 53.4 C 150.2 53.3 149.4 53.3 149.3 53.2 C 151.0 53.3 153.1 53.3 152.0 53.7 C 153.1 53.6 153.4 53.5 154.2 53.4 C 154.8 53.4 154.9 53.6 154.2 53.6 C 154.2 53.6 154.2 53.6 154.2 53.6 Z M 168.1 53.1 C 169.7 53.0 169.1 52.8 170.7 52.8 C 169.7 52.6 168.4 53.0 167.0 52.9 C 167.2 53.0 167.9 52.9 168.1 53.1 C 168.1 53.1 168.1 53.1 168.1 53.1 Z M 136.8 53.4 C 137.2 53.1 135.7 53.1 134.1 53.1 C 133.8 53.4 135.2 53.4 136.8 53.4 C 136.8 53.4 136.8 53.4 136.8 53.4 Z M 143.9 53.4 C 145.5 53.3 141.9 53.3 142.8 53.1 C 142.0 53.1 141.2 53.1 141.2 53.0 C 140.6 53.1 140.6 53.2 139.5 53.2 C 139.6 53.3 141.3 53.2 141.2 53.4 C 142.4 53.2 142.6 53.2 143.9 53.4 C 143.9 53.4 143.9 53.4 143.9 53.4 Z M 144.9 53.4 C 146.0 53.3 144.7 52.9 143.3 52.9 C 143.8 53.1 144.1 53.3 144.9 53.4 C 144.9 53.4 144.9 53.4 144.9 53.4 Z M 20.2 40.5 C 21.0 40.7 20.5 40.3 21.4 40.6 C 21.4 40.5 18.1 39.4 20.9 40.3 C 20.0 39.6 19.3 39.9 18.2 39.4 C 18.5 39.6 18.8 39.7 18.1 39.5 C 17.7 39.6 20.7 40.4 20.2 40.5 C 20.2 40.5 20.2 40.5 20.2 40.5 Z M 23.6 41.6 C 24.4 41.8 24.0 41.6 23.7 41.5 C 23.8 41.5 24.8 41.8 25.6 42.0 C 25.6 42.1 24.3 41.2 24.4 41.1 C 21.3 40.3 23.6 41.3 23.6 41.6 C 23.6 41.6 23.6 41.6 23.6 41.6 Z M 26.8 42.3 C 28.9 43.2 32.2 43.9 33.9 44.0 C 32.2 43.3 27.9 42.3 26.8 42.3 C 26.8 42.3 26.8 42.3 26.8 42.3 Z M 10.8 35.9 C 12.5 37.4 17.5 39.3 13.4 37.0 C 13.5 37.3 10.9 35.9 10.0 35.1 C 9.9 35.2 8.7 34.6 8.8 34.5 C 8.0 34.1 11.1 36.3 10.8 35.9 C 10.8 35.9 10.8 35.9 10.8 35.9 Z M 37.1 44.3 C 35.8 44.1 37.3 44.9 35.4 44.3 C 34.3 44.1 35.7 44.5 35.4 44.5 C 37.8 45.1 43.2 45.8 43.7 46.2 C 45.0 46.4 44.8 46.1 46.0 46.4 C 46.0 46.3 45.8 46.3 43.2 45.9 C 40.6 45.4 38.0 44.8 37.1 44.4 C 37.2 44.3 40.3 45.0 37.1 44.3 C 37.1 44.3 37.1 44.3 37.1 44.3 Z M 69.8 9.3 C 69.9 9.1 67.9 9.5 68.3 9.2 C 67.3 9.6 66.2 9.5 65.1 9.9 C 64.7 9.8 64.8 9.5 63.1 9.6 C 63.1 9.8 63.9 9.7 63.2 9.9 C 61.7 10.1 62.0 9.8 60.4 10.1 C 60.7 10.5 56.8 10.7 57.2 11.0 C 58.1 10.9 58.0 10.7 59.5 10.6 C 60.0 10.5 59.8 10.7 60.4 10.6 C 60.0 10.9 59.2 10.6 58.6 10.9 C 58.8 11.1 59.9 10.9 60.0 11.0 C 60.7 10.9 59.8 11.0 60.0 10.8 C 61.8 10.5 59.9 11.4 61.9 11.1 C 61.5 10.9 61.4 10.9 61.8 10.6 C 62.6 10.6 65.0 10.1 63.7 10.6 C 63.9 10.7 65.3 10.3 65.1 10.2 C 65.9 10.0 66.0 10.1 66.0 10.2 C 68.0 9.9 68.3 9.7 67.9 9.4 C 68.3 9.2 68.6 9.6 69.8 9.3 C 69.8 9.3 69.8 9.3 69.8 9.3 Z M 5.8 29.2 C 5.6 28.8 5.8 29.8 5.9 30.3 C 5.8 29.7 6.1 29.8 6.2 29.3 C 6.1 29.5 6.0 29.4 6.0 29.0 C 5.9 28.9 5.8 29.8 5.8 29.2 C 5.8 29.2 5.8 29.2 5.8 29.2 Z M 48.6 46.8 C 49.0 47.1 51.3 47.3 52.5 47.5 C 52.3 47.1 49.3 47.2 49.0 46.7 C 48.3 46.6 49.4 46.9 48.6 46.8 C 48.6 46.8 48.6 46.8 48.6 46.8 Z M 52.2 11.3 C 51.8 11.4 52.0 11.4 52.3 11.3 C 52.1 11.5 51.2 11.6 50.5 11.7 C 51.5 11.7 50.3 12.0 50.6 12.2 C 50.1 12.2 49.8 12.3 49.8 12.4 C 49.7 11.9 47.1 13.1 49.8 12.7 C 49.3 12.5 49.5 12.5 50.6 12.2 C 51.9 12.2 52.8 11.9 53.3 12.1 C 54.1 11.9 54.4 11.7 55.5 11.6 C 55.8 11.8 56.8 11.7 56.0 12.2 C 58.0 11.9 56.6 11.5 58.2 11.2 C 59.8 11.2 57.4 11.6 57.8 11.8 C 58.2 11.7 58.1 11.8 58.3 11.9 C 58.8 11.8 58.8 11.5 58.2 11.6 C 58.4 11.5 60.0 11.1 59.6 11.4 C 60.5 11.2 58.0 10.9 56.8 11.3 C 56.1 11.5 56.0 11.0 56.8 10.9 C 56.5 10.8 55.1 11.5 55.4 11.0 C 54.8 11.1 54.2 11.1 53.6 11.2 C 53.7 11.3 54.0 11.2 54.1 11.3 C 53.5 11.4 52.9 11.5 52.3 11.6 C 52.8 11.4 52.8 11.3 52.2 11.3 C 52.2 11.3 52.2 11.3 52.2 11.3 Z M 41.9 45.6 C 44.1 46.0 44.4 45.9 45.2 46.0 C 45.1 45.9 44.7 45.8 43.5 45.6 C 42.4 45.4 41.5 45.3 41.9 45.6 C 41.9 45.6 41.9 45.6 41.9 45.6 Z M 78.2 9.2 C 78.0 9.1 77.2 9.2 77.2 9.1 C 78.7 8.9 76.9 9.0 78.1 8.4 C 76.1 8.8 75.5 9.4 78.2 9.4 C 80.1 9.1 76.2 9.4 78.2 9.2 C 78.2 9.2 78.2 9.2 78.2 9.2 Z M 72.2 9.6 C 71.1 9.9 74.1 9.7 74.7 9.7 C 74.8 9.8 74.8 9.9 74.8 9.9 C 76.4 9.4 74.1 9.5 75.6 8.9 C 73.7 8.9 72.9 8.9 71.3 9.2 C 71.4 9.3 71.7 9.2 71.7 9.2 C 73.0 9.1 72.1 9.5 70.8 9.5 C 71.2 9.6 72.4 9.5 73.2 9.4 C 73.0 9.4 72.7 9.4 72.7 9.3 C 73.8 9.1 73.4 9.3 74.2 9.3 C 74.2 9.4 72.3 9.8 72.2 9.6 C 72.2 9.6 72.2 9.6 72.2 9.6 Z M 176.2 7.2 C 175.1 7.2 177.3 7.6 177.2 8.0 C 178.3 8.1 178.5 8.0 179.2 8.0 C 178.9 7.9 177.7 7.8 177.2 7.6 C 177.4 7.3 178.8 7.7 179.3 7.6 C 179.9 7.2 176.6 7.5 176.2 7.2 C 176.2 7.2 176.2 7.2 176.2 7.2 Z M 23.6 17.9 C 22.9 18.1 23.3 18.0 23.6 17.9 C 23.5 18.1 22.5 18.4 22.4 18.3 C 21.6 18.6 23.0 18.3 21.9 18.6 C 21.8 18.9 23.6 18.1 23.6 18.0 C 24.9 17.6 24.0 18.2 24.4 18.2 C 25.5 17.8 25.0 17.8 26.8 17.3 C 25.7 17.5 24.7 17.6 23.6 17.9 C 23.6 17.9 23.6 17.9 23.6 17.9 Z M 81.6 8.4 C 81.8 8.3 80.4 8.9 79.1 8.8 C 77.4 9.0 80.2 9.0 78.7 9.1 C 80.0 9.0 81.6 8.7 83.6 8.5 C 84.1 8.3 80.8 8.7 82.6 8.4 C 82.5 8.3 82.1 8.4 82.1 8.5 C 81.7 8.5 81.6 8.5 81.6 8.4 C 81.6 8.4 81.6 8.4 81.6 8.4 Z M 79.6 9.2 C 79.7 9.2 80.2 9.2 80.2 9.1 C 80.8 9.1 80.8 9.3 80.2 9.3 C 81.0 9.6 81.0 9.1 82.7 9.1 C 81.9 8.9 81.6 8.8 83.2 8.9 C 84.4 8.5 80.2 8.9 79.6 9.2 C 79.6 9.2 79.6 9.2 79.6 9.2 Z M 159.2 6.6 C 159.4 6.8 160.5 6.7 161.4 6.8 C 160.3 7.0 156.0 6.7 155.5 6.5 C 155.0 6.6 154.5 6.6 154.4 6.5 C 154.4 6.6 153.2 6.7 153.8 6.7 C 153.7 6.8 152.8 6.8 152.8 6.9 C 151.2 6.8 153.3 6.7 152.8 6.5 C 150.8 6.7 151.3 6.6 149.0 6.5 C 149.4 6.7 151.9 6.7 151.7 7.0 C 153.5 6.8 155.4 7.0 156.5 7.3 C 154.8 6.9 161.1 6.9 164.0 7.0 C 163.9 7.2 165.0 7.2 166.1 7.4 C 167.0 7.6 166.7 7.1 165.1 7.2 C 165.2 7.0 167.3 7.2 168.3 7.2 C 167.2 7.0 167.8 7.0 167.2 6.9 C 165.2 6.8 167.0 6.9 166.7 7.1 C 166.1 7.1 165.6 7.0 165.1 7.0 C 167.9 6.7 161.0 6.8 163.5 6.9 C 161.3 6.8 161.3 6.5 159.2 6.6 C 159.2 6.6 159.2 6.6 159.2 6.6 Z M 108.6 6.8 C 108.2 6.8 106.5 7.1 106.4 6.9 C 104.3 7.1 106.2 7.3 103.8 7.4 C 103.9 7.5 104.9 7.4 104.9 7.5 C 105.8 7.4 106.7 7.3 106.4 7.0 C 107.5 7.0 107.8 6.9 108.6 6.9 C 108.3 7.0 107.9 7.0 107.0 7.1 C 106.8 7.3 107.2 7.4 108.6 7.3 C 109.2 7.1 108.8 6.9 108.6 6.8 C 108.6 6.8 108.6 6.8 108.6 6.8 Z M 103.3 7.3 C 103.0 7.3 102.7 7.2 102.7 7.1 C 101.9 6.9 102.4 7.4 101.7 7.5 C 101.1 7.5 101.3 7.4 101.1 7.3 C 100.2 7.4 99.5 7.4 99.1 7.4 C 97.6 7.6 100.7 7.5 101.2 7.6 C 102.2 7.5 101.8 7.3 103.3 7.3 C 103.3 7.3 103.3 7.3 103.3 7.3 Z M 87.7 8.0 C 87.4 7.8 86.9 8.2 86.2 8.2 C 86.7 8.4 88.2 8.2 87.2 8.5 C 88.7 8.5 88.8 8.5 90.3 8.3 C 91.2 8.5 90.3 8.1 88.7 8.4 C 88.9 8.2 89.6 8.2 89.7 8.0 C 90.7 8.5 93.3 7.5 91.8 8.0 C 91.3 8.0 91.0 7.9 90.8 7.8 C 90.4 8.0 86.9 8.2 87.7 8.0 C 87.7 8.0 87.7 8.0 87.7 8.0 Z M 38.4 14.6 C 40.0 14.3 40.9 14.1 41.7 13.9 C 42.6 13.8 43.9 13.5 44.7 13.4 C 44.8 13.5 44.7 13.6 44.4 13.6 C 44.7 13.7 45.3 13.5 46.0 13.4 C 45.9 13.3 45.6 13.4 45.6 13.4 C 44.2 13.5 45.3 13.3 45.5 13.0 C 43.8 13.1 40.6 14.2 39.2 14.1 C 38.0 14.5 39.4 14.2 38.4 14.6 C 38.4 14.6 38.4 14.6 38.4 14.6 Z M 267.0 30.5 C 267.0 30.6 266.9 30.9 267.1 30.9 C 267.2 30.6 267.1 30.4 267.2 30.2 C 267.0 30.6 266.7 30.4 266.4 31.0 C 266.6 30.9 266.8 31.0 267.0 30.5 C 267.0 30.5 267.0 30.5 267.0 30.5 Z M 92.8 7.8 C 92.9 7.9 92.9 8.0 92.3 8.0 C 92.1 8.2 93.8 8.0 93.9 8.2 C 94.4 8.1 94.2 8.0 94.9 7.9 C 94.6 7.8 93.3 8.0 93.8 7.7 C 94.3 7.6 94.3 7.7 94.4 7.7 C 95.4 7.6 93.8 7.6 92.8 7.8 C 92.8 7.8 92.8 7.8 92.8 7.8 Z M 181.3 7.8 C 180.6 7.8 181.3 7.9 181.9 8.0 C 180.3 8.1 182.7 8.4 182.8 8.7 C 182.2 8.4 180.1 8.4 179.8 8.3 C 179.2 8.3 179.9 8.6 178.2 8.5 C 178.4 8.7 180.2 8.7 179.8 8.5 C 180.2 8.8 182.0 8.6 181.8 8.8 C 184.1 9.1 184.7 8.9 184.9 8.7 C 182.6 8.6 183.8 8.3 181.9 8.2 C 181.9 8.1 182.5 8.2 182.9 8.2 C 182.7 8.0 181.9 7.9 181.3 7.8 C 181.3 7.8 181.3 7.8 181.3 7.8 Z M 125.7 6.5 C 124.5 6.5 124.6 6.7 124.6 6.9 C 125.1 6.8 125.8 6.8 126.8 6.8 C 126.6 6.6 125.1 6.7 125.7 6.5 C 125.7 6.5 125.7 6.5 125.7 6.5 Z M 173.0 7.6 C 172.9 7.5 172.5 7.5 172.5 7.6 C 171.1 7.5 170.8 7.4 170.4 7.2 C 169.7 7.2 169.9 7.4 169.8 7.5 C 171.1 7.4 170.8 7.7 172.5 7.7 C 172.4 7.6 172.6 7.6 173.0 7.6 C 173.0 7.6 173.0 7.6 173.0 7.6 Z M 137.1 6.5 C 136.4 6.5 136.8 6.6 137.1 6.6 C 136.3 6.9 134.1 6.7 133.3 6.8 C 133.2 7.0 135.9 6.9 132.7 7.0 C 133.3 7.2 136.2 7.0 137.6 7.1 C 137.3 7.3 135.3 7.3 135.4 7.6 C 137.1 7.4 139.0 7.3 139.2 6.9 C 136.8 6.9 137.7 6.7 137.1 6.5 C 137.1 6.5 137.1 6.5 137.1 6.5 Z M 139.8 6.7 C 139.6 6.6 139.1 6.7 138.2 6.7 C 139.5 7.0 140.3 6.9 143.0 7.0 C 143.0 6.9 143.0 6.9 143.0 6.8 C 143.6 6.8 144.2 6.8 144.7 6.8 C 142.3 6.5 141.7 6.7 139.2 6.8 C 139.1 6.7 139.5 6.7 139.8 6.7 C 139.8 6.7 139.8 6.7 139.8 6.7 Z M 69.9 10.0 C 70.5 10.1 71.1 10.2 72.3 10.1 C 72.2 9.9 71.5 9.8 69.9 10.0 C 69.9 10.0 69.9 10.0 69.9 10.0 Z M 175.1 7.9 C 176.5 7.8 173.7 7.8 174.5 8.1 C 175.7 8.2 176.9 8.4 177.1 8.6 C 179.2 8.4 174.8 8.2 175.1 7.9 C 175.1 7.9 175.1 7.9 175.1 7.9 Z M 165.6 8.0 C 165.0 7.9 165.0 7.6 165.6 7.8 C 167.1 7.9 164.3 7.6 166.6 7.7 C 165.7 7.6 163.4 7.4 162.4 7.5 C 162.4 7.7 164.5 7.7 164.5 7.9 C 164.6 7.9 164.3 7.9 164.0 7.9 C 164.2 8.0 164.7 7.9 165.6 8.0 C 165.6 8.0 165.6 8.0 165.6 8.0 Z M 157.6 7.3 C 158.5 7.5 159.5 7.6 161.3 7.7 C 160.2 7.5 159.5 7.2 157.6 7.3 C 157.6 7.3 157.6 7.3 157.6 7.3 Z M 256.9 21.6 C 255.8 21.1 256.7 21.8 256.8 21.9 C 257.9 22.4 257.9 22.2 258.9 22.8 C 258.7 22.3 257.5 22.1 256.9 21.6 C 256.9 21.6 256.9 21.6 256.9 21.6 Z M 260.4 23.4 C 260.4 23.6 261.6 24.2 261.6 24.4 C 262.5 24.4 262.9 25.6 263.1 25.3 C 263.2 25.4 263.4 25.6 263.7 25.9 C 263.4 25.0 261.5 24.0 260.4 23.4 C 260.4 23.4 260.4 23.4 260.4 23.4 Z M 148.4 7.6 C 147.0 7.5 148.8 8.0 147.4 7.9 C 147.2 8.0 150.1 8.1 148.4 8.1 C 150.6 8.4 148.2 7.7 148.4 7.6 C 148.4 7.6 148.4 7.6 148.4 7.6 Z M 122.0 7.9 C 122.1 7.7 120.1 7.9 119.3 7.9 C 119.3 7.9 119.9 7.9 120.3 7.9 C 120.1 8.0 119.9 8.1 119.3 8.1 C 119.7 8.3 121.2 7.9 122.0 7.9 C 122.0 7.9 122.0 7.9 122.0 7.9 Z M 151.2 3.5 C 152.1 3.7 153.3 3.9 153.9 3.6 C 154.9 3.8 153.3 3.9 154.4 4.0 C 156.0 3.9 155.2 4.2 157.7 4.1 C 157.2 4.4 159.0 4.4 159.3 4.6 C 158.3 4.7 157.1 4.3 156.6 4.6 C 157.4 4.6 156.9 4.8 156.6 4.6 C 154.9 4.5 158.6 4.4 156.6 4.2 C 156.0 4.5 153.1 3.8 151.2 3.8 C 152.0 3.6 149.8 3.5 151.2 3.5 C 151.2 3.5 151.2 3.5 151.2 3.5 Z M 160.9 4.2 C 162.2 4.2 162.9 4.8 162.5 4.7 C 162.5 4.6 161.0 4.6 160.9 4.7 C 161.2 4.7 161.5 4.7 161.4 4.8 C 159.0 4.7 159.9 4.5 159.3 4.3 C 160.6 4.3 161.0 4.4 161.5 4.3 C 161.1 4.3 160.8 4.3 160.9 4.2 C 160.9 4.2 160.9 4.2 160.9 4.2 Z M 188.4 9.7 C 188.2 9.6 187.9 9.7 187.4 9.7 C 187.3 9.4 184.7 9.6 184.3 9.4 C 184.9 9.3 186.3 9.4 186.9 9.4 C 186.2 9.3 186.0 9.2 185.3 9.2 C 185.5 9.0 187.0 9.1 187.4 9.0 C 187.5 9.2 188.3 9.0 188.4 9.2 C 186.5 9.1 189.5 9.8 188.4 9.7 C 188.4 9.7 188.4 9.7 188.4 9.7 Z M 136.0 7.8 C 135.8 8.1 138.1 8.6 136.0 8.9 C 135.5 8.7 135.3 8.5 135.4 8.2 C 134.1 8.4 133.5 8.1 132.8 8.4 C 130.3 7.7 134.7 8.4 136.0 7.8 C 136.0 7.8 136.0 7.8 136.0 7.8 Z M 127.3 8.1 C 127.8 7.9 126.6 7.9 126.8 7.7 C 127.9 7.9 131.2 7.6 130.1 7.8 C 129.0 7.9 129.0 8.1 127.3 8.1 C 127.3 8.1 127.3 8.1 127.3 8.1 Z M 75.9 50.0 C 74.3 50.0 73.5 49.5 74.4 49.4 C 74.0 49.7 76.4 49.7 75.9 50.0 C 75.9 50.0 75.9 50.0 75.9 50.0 Z M 12.6 40.8 C 13.8 41.5 14.7 41.8 14.8 42.1 C 13.4 41.5 13.6 41.4 12.5 40.9 C 12.4 41.0 11.7 40.8 11.6 40.6 C 12.2 40.9 12.2 40.7 12.6 40.8 C 12.6 40.8 12.6 40.8 12.6 40.8 Z M 94.6 3.6 C 94.5 3.5 93.9 3.5 94.1 3.3 C 95.7 3.3 97.5 3.1 98.8 2.8 C 98.8 2.9 98.8 3.0 98.8 3.1 C 96.3 3.2 95.7 3.4 94.6 3.6 C 94.6 3.6 94.6 3.6 94.6 3.6 Z M 91.5 3.4 C 91.2 3.5 92.1 3.7 91.0 3.8 C 91.0 3.6 89.0 3.5 89.9 3.4 C 90.3 3.5 90.8 3.5 91.5 3.4 C 91.5 3.4 91.5 3.4 91.5 3.4 Z M 181.5 4.6 C 182.8 4.6 181.0 4.3 181.0 4.2 C 182.0 4.3 183.2 4.4 183.6 4.6 C 182.7 4.5 182.0 4.8 181.5 4.6 C 181.5 4.6 181.5 4.6 181.5 4.6 Z M 162.0 4.2 C 159.2 4.1 160.4 3.7 157.7 3.6 C 158.8 3.4 161.3 3.5 162.0 3.4 C 161.9 3.5 162.6 3.6 162.5 3.7 C 161.5 3.7 161.4 3.6 160.4 3.5 C 160.7 3.8 160.7 3.7 160.4 4.0 C 161.1 4.0 161.6 4.0 162.0 3.9 C 161.8 4.1 162.8 4.2 162.0 4.2 C 162.0 4.2 162.0 4.2 162.0 4.2 Z M 181.0 5.2 C 182.1 5.2 182.9 5.6 182.0 5.5 C 181.9 5.3 181.2 5.5 181.0 5.3 C 182.5 5.4 179.8 5.1 180.5 5.0 C 181.4 5.1 181.7 5.0 181.5 4.8 C 182.1 4.9 183.0 4.9 183.1 5.0 C 182.7 5.0 182.1 4.9 182.1 5.0 C 182.4 5.0 182.7 5.1 182.6 5.1 C 181.7 5.1 181.2 5.1 181.0 5.2 C 181.0 5.2 181.0 5.2 181.0 5.2 Z M 173.7 4.8 C 175.1 4.9 175.3 5.1 175.8 5.3 C 173.8 5.1 173.5 4.7 172.1 4.5 C 173.7 4.7 175.3 4.4 175.8 4.6 C 175.1 4.7 173.8 4.6 173.7 4.8 C 173.7 4.8 173.7 4.8 173.7 4.8 Z M 211.4 50.1 C 210.3 50.1 209.3 50.1 208.1 50.1 C 207.7 50.4 210.1 50.6 209.1 50.6 C 207.8 50.7 208.6 50.3 207.6 50.4 C 208.7 50.6 203.1 51.3 202.8 50.9 C 203.7 50.9 204.0 50.7 203.7 50.6 C 206.0 50.4 206.9 50.1 208.5 49.8 C 209.8 50.0 213.2 49.6 215.0 49.1 C 216.3 49.4 218.4 48.6 220.0 48.7 C 220.4 48.5 218.6 48.6 220.0 48.4 C 220.9 48.5 220.2 48.7 221.4 48.7 C 221.5 48.5 221.2 48.4 221.8 48.3 C 221.7 48.4 222.4 48.3 222.7 48.4 C 220.3 48.7 222.9 48.7 221.0 49.0 C 220.2 49.0 221.8 48.5 219.6 48.8 C 218.8 49.0 218.1 49.2 218.3 49.4 C 217.7 49.5 217.3 49.6 217.0 49.7 C 217.8 49.3 213.9 50.2 215.6 49.6 C 215.7 49.6 217.0 49.5 217.8 49.3 C 217.0 49.1 216.1 49.4 214.6 49.7 C 214.0 49.6 214.9 49.4 214.2 49.4 C 213.1 49.8 214.6 49.7 213.8 50.0 C 214.1 49.9 214.7 49.9 214.7 49.9 C 212.7 49.9 212.0 50.3 211.0 50.4 C 211.6 50.2 209.8 50.3 211.4 50.1 C 211.4 50.1 211.4 50.1 211.4 50.1 Z M 227.4 47.4 C 227.8 47.4 228.3 47.3 228.7 47.2 C 228.8 47.4 227.2 47.8 228.3 47.8 C 226.5 48.1 228.4 47.5 227.4 47.4 C 227.4 47.4 227.4 47.4 227.4 47.4 Z M 218.6 47.9 C 217.9 47.8 218.3 48.3 217.7 48.4 C 218.8 48.2 219.8 48.0 220.0 48.2 C 218.7 48.3 218.1 48.4 216.8 48.7 C 218.0 48.1 215.4 48.6 214.9 48.4 C 215.9 48.2 216.7 48.0 218.1 47.8 C 217.9 47.9 219.8 47.7 218.6 47.9 C 218.6 47.9 218.6 47.9 218.6 47.9 Z M 222.1 47.1 C 222.4 47.2 224.2 46.8 223.9 47.1 C 222.7 47.3 222.3 47.4 222.6 47.6 C 221.7 47.7 221.6 47.6 220.8 47.8 C 220.3 47.6 221.7 47.4 222.1 47.2 C 221.8 47.2 221.6 47.2 222.1 47.1 C 222.1 47.1 222.1 47.1 222.1 47.1 Z M 262.6 34.1 C 263.0 34.1 261.7 34.8 261.4 34.9 C 261.9 34.8 261.8 35.0 261.0 35.6 C 261.1 35.1 259.9 35.9 258.8 36.0 C 258.7 36.4 260.0 35.9 258.6 36.6 C 257.5 37.0 256.5 37.6 254.5 38.4 C 253.9 38.3 254.8 37.9 255.3 37.6 C 254.0 38.2 254.3 37.9 253.2 38.2 C 253.5 38.3 252.6 38.7 252.2 38.7 C 254.1 37.9 249.5 39.3 251.6 38.5 C 251.7 38.5 252.2 38.3 252.6 38.1 C 252.2 38.6 254.7 37.6 255.3 37.6 C 256.0 36.7 258.5 35.9 260.6 35.0 C 260.8 35.0 260.2 35.4 260.7 35.2 C 260.7 35.0 261.4 34.7 261.6 34.5 C 261.7 34.6 262.0 34.5 262.3 34.3 C 262.4 34.2 262.4 34.2 262.6 34.1 C 262.6 34.1 262.6 34.1 262.6 34.1 Z M 126.0 51.6 C 126.1 51.1 122.6 51.3 121.7 51.4 C 121.8 51.0 127.9 51.2 126.0 51.6 C 126.0 51.6 126.0 51.6 126.0 51.6 Z M 147.1 51.3 C 146.2 51.3 146.8 51.5 146.0 51.5 C 146.0 51.3 143.9 51.8 143.9 51.5 C 144.9 51.3 145.5 51.3 147.1 51.3 C 147.1 51.3 147.1 51.3 147.1 51.3 Z M 166.4 50.8 C 164.9 50.9 167.2 50.9 166.9 51.0 C 165.6 51.1 164.2 51.1 164.3 50.9 C 165.5 51.0 166.2 50.6 166.4 50.8 C 166.4 50.8 166.4 50.8 166.4 50.8 Z M 137.4 51.1 C 136.1 51.0 138.2 50.7 138.4 50.8 C 137.0 50.9 139.4 51.1 140.6 51.0 C 140.5 51.3 140.0 51.2 140.6 51.5 C 138.7 51.6 140.3 51.2 139.0 51.3 C 138.1 51.4 139.0 51.3 139.0 51.6 C 138.4 51.6 137.9 51.6 137.4 51.6 C 137.4 51.4 137.4 51.3 137.4 51.2 C 138.0 51.2 138.6 51.1 138.4 51.0 C 137.9 51.0 137.8 51.1 137.4 51.1 C 137.4 51.1 137.4 51.1 137.4 51.1 Z M 233.7 43.0 C 232.4 43.3 233.5 43.2 234.5 43.0 C 234.7 42.9 235.4 42.3 236.8 42.2 C 233.8 43.1 237.8 42.4 236.2 42.8 C 235.4 42.8 233.6 43.4 232.0 43.7 C 231.3 43.6 232.9 43.0 233.7 43.0 C 233.7 43.0 233.7 43.0 233.7 43.0 Z M 239.2 42.0 C 239.0 42.0 238.5 42.1 237.6 42.3 C 238.6 41.9 237.2 42.1 238.4 41.8 C 238.3 41.9 242.2 41.1 239.9 41.7 C 237.8 42.0 240.5 41.7 241.4 41.5 C 240.4 41.7 238.7 42.4 238.4 42.3 C 238.9 42.2 239.4 42.0 239.2 42.0 C 239.2 42.0 239.2 42.0 239.2 42.0 Z M 265.5 30.3 C 265.4 30.2 265.2 30.4 265.1 30.5 C 265.5 29.9 265.6 29.5 265.6 29.3 C 265.6 29.5 265.8 29.5 265.9 29.4 C 265.8 29.7 265.9 29.7 265.8 29.8 C 265.6 29.5 265.7 30.0 265.5 30.3 C 265.5 30.3 265.5 30.3 265.5 30.3 Z M 265.5 30.3 " fill="#000000"></path><image xlink:href="726FB8377E6CBC5FD29232CFD6B9FF21.png" width="148.00" height="27.00" transform="matrix(1.00, 0.00, -0.00, -1.00, 64.0, 39.0)"></image><g><clipPath id="clip-12"><path d="M 5.7 3.3 L 268.2 3.3 L 268.2 53.1 L 5.7 53.1 Z M 5.7 3.3 "></path></clipPath><g clip-path="url(#clip-12)"><text xml:space="preserve" font-family="Chalkduster" font-size="18.0" fill="#000000" transform="matrix(1.00, 0.00, -0.00, -1.00, 68.0, 20.0)">C</text><text xml:space="preserve" font-family="Chalkduster" font-size="18.0" fill="#000000" transform="matrix(1.00, 0.00, -0.00, -1.00, 82.6, 20.0)">o</text><text xml:space="preserve" font-family="Chalkduster" font-size="18.0" fill="#000000" transform="matrix(1.00, 0.00, -0.00, -1.00, 96.0, 20.0)">n</text><text xml:space="preserve" font-family="Chalkduster" font-size="18.0" fill="#000000" transform="matrix(1.00, 0.00, -0.00, -1.00, 108.5, 20.0)">t</text><text xml:space="preserve" font-family="Chalkduster" font-size="18.0" fill="#000000" transform="matrix(1.00, 0.00, -0.00, -1.00, 116.7, 20.0)">r</text><text xml:space="preserve" font-family="Chalkduster" font-size="18.0" fill="#000000" transform="matrix(1.00, 0.00, -0.00, -1.00, 126.0, 20.0)">o</text><text xml:space="preserve" font-family="Chalkduster" font-size="18.0" fill="#000000" transform="matrix(1.00, 0.00, -0.00, -1.00, 139.7, 20.0)">l</text><text xml:space="preserve" font-family="Chalkduster" font-size="18.0" fill="#000000" transform="matrix(1.00, 0.00, -0.00, -1.00, 148.1, 20.0)"> </text><text xml:space="preserve" font-family="Chalkduster" font-size="18.0" fill="#000000" transform="matrix(1.00, 0.00, -0.00, -1.00, 157.1, 20.0)">F</text><text xml:space="preserve" font-family="Chalkduster" font-size="18.0" fill="#000000" transform="matrix(1.00, 0.00, -0.00, -1.00, 170.5, 20.0)">l</text><text xml:space="preserve" font-family="Chalkduster" font-size="18.0" fill="#000000" transform="matrix(1.00, 0.00, -0.00, -1.00, 178.2, 20.0)">o</text><text xml:space="preserve" font-family="Chalkduster" font-size="18.0" fill="#000000" transform="matrix(1.00, 0.00, -0.00, -1.00, 191.6, 20.0)">w</text></g></g></g></svg>