<?xml version="1.0" encoding="UTF-8" standalone="no"?><svg xmlns="http://www.w3.org/2000/svg" xmlns:xlink="http://www.w3.org/1999/xlink" clip-rule="evenodd" stroke-miterlimit="4.00" viewBox="0 0 58 46"><desc>SVG generated by Keynote</desc><defs></defs><g transform="matrix(1.00, 0.00, -0.00, -1.00, 0.0, 46.0)"><path d="M 48.5 34.3 C 48.4 34.5 48.0 34.3 47.4 34.6 C 46.9 34.8 46.3 35.3 46.6 35.4 C 46.9 35.6 47.2 35.6 47.2 36.1 C 47.1 36.6 47.2 37.5 47.8 37.4 C 48.3 37.3 50.2 36.6 50.4 35.9 C 50.5 35.3 50.6 35.0 50.7 34.6 C 50.8 34.1 51.2 34.8 51.2 34.8 C 51.2 34.8 51.9 34.2 52.3 33.7 C 52.8 33.2 53.3 32.5 53.2 32.4 C 53.2 32.2 53.0 31.9 53.0 31.9 C 53.0 31.9 53.6 31.8 53.9 31.4 C 54.2 31.0 53.9 31.0 53.7 31.0 C 53.5 31.0 52.8 31.2 52.9 31.0 C 53.0 30.9 54.0 30.7 54.2 30.4 C 54.4 30.2 54.7 29.4 54.7 29.4 C 54.7 29.4 54.3 29.3 54.2 29.2 C 54.1 29.1 54.4 28.4 54.5 28.5 C 54.7 28.5 55.1 28.7 55.3 28.4 C 55.7 27.3 54.8 27.2 54.8 27.1 C 54.8 27.0 55.5 27.2 55.6 26.9 C 55.8 26.7 56.1 24.4 56.0 24.3 C 55.8 24.2 56.5 23.5 56.1 23.1 C 55.6 22.8 55.5 22.7 55.4 22.6 C 55.3 22.6 54.6 22.2 54.9 22.0 C 55.1 21.8 55.9 22.6 56.1 22.3 C 56.3 22.1 56.2 20.6 56.0 20.4 C 55.7 20.1 55.0 20.1 55.0 20.0 C 55.0 19.8 55.6 18.8 55.5 18.8 C 55.3 18.8 54.6 18.8 54.5 18.9 C 54.4 18.9 53.1 19.0 53.0 19.2 C 52.8 19.4 52.5 20.1 52.9 20.0 C 53.2 19.8 53.6 19.6 53.8 19.8 C 54.0 20.0 54.1 20.2 53.9 20.2 C 53.8 20.3 53.6 20.2 53.5 20.7 C 53.3 21.1 53.0 20.9 53.0 21.3 C 53.1 21.7 53.2 22.0 53.5 22.0 C 53.8 21.9 54.2 22.3 54.1 22.6 C 54.1 22.9 53.5 22.4 53.3 23.3 C 53.0 24.2 52.8 24.7 53.0 24.9 C 53.2 25.2 53.9 25.4 53.5 25.8 C 53.1 26.1 53.0 25.9 52.8 26.4 C 52.7 27.0 53.2 27.4 53.1 27.8 C 53.0 28.1 52.9 28.2 52.9 28.2 C 52.9 28.2 52.2 27.7 51.8 28.5 C 51.4 29.2 51.3 29.3 51.9 29.4 C 52.5 29.6 52.2 30.2 51.8 30.0 C 51.5 29.9 51.0 30.2 50.8 30.4 C 50.6 30.6 51.4 31.3 51.3 31.4 C 51.3 31.5 51.0 31.8 50.8 31.5 C 50.6 31.2 50.4 31.4 50.1 31.6 C 49.8 31.7 49.4 32.4 49.5 32.5 C 49.7 32.6 50.5 32.8 49.8 33.0 C 49.2 33.2 48.7 33.0 48.3 33.4 C 47.9 33.8 48.7 33.9 48.5 34.3 C 48.5 34.3 48.5 34.3 48.5 34.3 Z M 52.5 19.0 C 52.8 19.8 55.2 18.6 55.6 18.0 C 56.1 17.5 55.5 16.9 55.3 16.2 C 55.1 15.5 54.5 16.0 54.1 15.8 C 53.7 15.5 54.2 15.4 54.5 15.1 C 54.8 14.7 53.9 13.9 53.6 13.3 C 53.3 12.7 52.1 12.6 51.7 12.2 C 51.4 11.8 51.7 12.9 51.1 12.1 C 50.5 11.3 51.2 11.3 52.1 12.1 C 53.0 12.8 52.3 11.4 51.9 10.8 C 51.6 10.3 50.5 9.7 50.2 9.3 C 49.8 8.9 49.8 9.9 49.3 9.4 C 48.7 8.8 49.5 8.6 48.9 8.0 C 48.3 7.4 48.0 7.9 47.6 7.9 C 47.3 7.8 47.6 7.5 47.3 7.3 C 47.1 7.1 46.9 6.6 46.2 6.4 C 45.6 6.2 45.7 6.5 45.4 6.3 C 45.1 6.2 44.7 6.0 44.7 6.0 C 44.7 5.8 44.8 5.6 44.9 5.3 C 44.9 5.3 43.9 4.7 43.6 4.5 C 43.3 4.3 42.4 4.3 42.5 4.5 C 42.7 4.7 41.8 4.8 41.6 4.6 C 41.5 4.5 41.1 3.9 40.8 3.7 C 40.4 3.4 40.0 5.0 39.9 5.3 C 39.8 5.5 39.3 6.3 39.5 6.5 C 39.8 6.7 40.2 6.5 40.0 6.7 C 39.9 6.9 40.9 7.0 41.1 7.1 C 41.4 7.2 41.9 6.8 41.9 6.8 C 41.9 6.8 42.4 6.4 42.8 6.6 C 43.2 6.8 42.8 7.8 42.8 7.8 C 42.8 7.8 43.2 8.3 43.7 8.5 C 44.2 8.7 45.1 8.3 45.3 8.2 C 45.5 8.1 45.1 8.7 45.3 9.0 C 45.6 9.3 45.8 9.8 46.0 9.9 C 46.2 9.9 46.7 9.7 46.7 9.7 C 46.7 9.7 47.6 9.9 47.7 10.0 C 47.8 10.2 47.1 10.6 47.1 10.6 C 47.1 10.6 48.1 11.8 48.3 12.1 C 48.5 12.3 49.0 12.6 49.2 12.7 C 49.4 12.8 50.3 12.4 50.5 12.8 C 50.6 13.1 49.8 12.9 49.9 13.2 C 50.0 13.5 50.2 14.1 50.3 14.3 C 50.4 14.4 50.8 14.4 51.0 14.6 C 51.2 14.8 52.0 14.7 52.2 15.1 C 52.4 15.5 52.1 15.9 52.1 16.0 C 52.1 16.2 51.6 16.6 51.7 16.9 C 51.8 17.2 52.1 16.8 52.2 17.1 C 52.4 17.3 52.8 17.2 52.8 17.5 C 52.8 17.8 52.0 17.9 52.2 18.2 C 52.3 18.3 52.3 18.2 52.5 19.0 C 52.5 19.0 52.5 19.0 52.5 19.0 Z M 38.8 6.1 C 39.1 6.6 39.7 6.3 39.7 6.0 C 39.8 5.6 40.0 4.6 40.2 4.4 C 40.5 4.2 41.3 3.8 40.5 3.4 C 39.7 2.9 39.4 3.1 39.4 3.4 C 39.3 3.6 38.8 4.5 38.6 4.3 C 38.4 4.2 38.3 3.8 38.3 3.7 C 38.2 3.6 38.2 2.5 37.7 2.5 C 37.2 2.6 36.8 2.7 36.8 2.7 C 36.6 2.7 36.3 2.7 36.1 2.6 C 36.1 2.6 35.6 1.9 35.1 2.0 C 34.6 2.0 34.1 2.0 33.7 1.9 C 33.4 1.8 33.0 1.8 32.9 2.0 C 32.8 2.3 32.3 3.0 32.3 3.0 C 32.3 3.0 31.7 3.2 31.5 3.1 C 31.3 2.9 31.3 2.4 31.3 2.3 C 31.4 2.1 31.4 1.6 31.0 1.5 C 30.6 1.4 29.0 0.9 28.8 1.2 C 28.6 1.4 28.6 1.8 28.4 1.9 C 28.3 2.0 27.2 2.1 27.1 1.9 C 27.0 1.6 27.1 1.1 26.8 1.2 C 26.5 1.3 25.8 1.2 25.8 1.3 C 25.8 1.4 25.7 1.6 25.7 1.9 C 25.7 2.2 25.1 2.5 25.0 2.6 C 24.9 2.8 24.4 2.9 24.4 2.9 C 24.2 2.7 24.0 2.6 23.8 2.5 C 23.8 2.5 24.1 1.9 24.2 1.8 C 24.4 1.7 24.0 1.4 23.9 1.4 C 23.7 1.4 22.5 1.7 22.5 1.7 C 22.6 2.0 22.6 2.4 22.7 2.8 C 22.4 2.9 22.2 3.1 21.9 3.2 C 21.9 3.2 21.7 1.9 21.2 2.0 C 20.7 2.1 20.0 2.3 20.0 2.3 C 20.0 2.3 19.6 2.9 19.5 3.0 C 19.3 3.1 19.6 4.3 19.6 4.3 C 19.8 4.7 20.0 5.1 20.1 5.6 C 20.1 5.6 20.8 5.8 21.1 5.6 C 21.4 5.3 21.0 4.9 21.0 4.7 C 21.0 4.4 21.4 4.1 21.4 4.1 C 21.7 4.3 22.0 4.5 22.3 4.7 C 22.3 4.7 22.5 4.9 22.8 5.1 C 23.1 5.2 23.9 5.2 24.1 5.1 C 24.3 5.0 24.4 4.6 24.7 4.4 C 24.9 4.1 24.8 3.7 25.2 4.0 C 25.6 4.3 25.8 4.6 26.0 4.6 C 26.1 4.6 26.8 4.1 26.8 4.1 C 27.0 3.9 27.2 3.8 27.4 3.7 C 27.4 3.7 28.0 3.5 28.1 3.7 C 28.1 4.0 29.3 3.7 29.3 3.7 C 29.3 3.7 29.2 4.5 29.4 4.6 C 29.7 4.8 30.1 5.0 30.6 4.9 C 31.0 4.8 31.4 4.0 31.4 4.0 C 31.6 4.2 31.7 4.4 31.8 4.6 C 32.2 4.7 32.6 4.8 33.0 4.9 C 33.0 4.9 34.0 5.0 34.0 4.9 C 34.0 4.8 34.0 4.0 34.1 3.9 C 34.2 3.7 34.7 3.6 34.8 3.8 C 34.8 4.0 35.1 4.8 35.1 4.8 C 35.1 4.8 35.4 5.2 35.7 5.3 C 35.9 5.4 36.4 5.3 36.6 5.2 C 36.7 5.1 37.3 4.7 37.3 4.7 C 37.3 5.0 37.4 5.2 37.4 5.4 C 37.4 5.4 38.3 5.3 38.8 6.1 C 38.8 6.1 38.8 6.1 38.8 6.1 Z M 19.9 6.1 C 20.8 5.7 19.4 3.4 18.9 3.0 C 18.3 2.6 17.7 3.2 17.0 3.3 C 16.3 3.5 16.8 4.2 16.5 4.6 C 16.3 4.9 16.2 4.4 15.9 4.1 C 15.5 3.8 14.7 4.6 14.1 4.8 C 13.5 5.1 13.3 6.2 12.9 6.5 C 12.5 6.8 13.5 6.7 12.7 7.1 C 11.9 7.5 12.0 6.9 12.8 6.1 C 13.6 5.3 12.2 5.9 11.6 6.1 C 11.0 6.4 10.4 7.3 10.0 7.5 C 9.6 7.7 10.5 7.9 9.9 8.4 C 9.3 8.8 9.2 8.0 8.5 8.5 C 7.8 8.9 8.3 9.4 8.1 9.7 C 8.0 10.1 7.7 9.8 7.5 10.0 C 7.2 10.2 6.7 10.4 6.4 11.1 C 6.0 11.7 6.3 11.7 6.1 11.9 C 6.0 12.2 5.7 12.7 5.7 12.7 C 5.4 12.6 5.2 12.5 5.0 12.4 C 5.0 12.4 4.3 13.4 4.1 13.7 C 3.8 14.0 3.7 14.8 3.9 14.7 C 4.1 14.6 4.2 15.5 4.0 15.6 C 3.8 15.7 3.3 16.1 3.0 16.5 C 2.7 16.8 4.4 17.3 4.6 17.4 C 4.8 17.4 5.6 18.0 5.8 17.7 C 6.0 17.5 5.8 17.1 6.0 17.3 C 6.2 17.4 6.4 16.5 6.5 16.3 C 6.6 16.1 6.2 15.5 6.2 15.5 C 6.2 15.5 5.8 15.0 6.1 14.6 C 6.3 14.2 7.3 14.7 7.3 14.7 C 7.3 14.7 7.7 14.4 8.0 13.9 C 8.3 13.4 8.0 12.4 8.0 12.2 C 7.9 12.0 8.5 12.5 8.8 12.3 C 9.2 12.1 9.8 11.8 9.9 11.7 C 10.0 11.5 9.8 10.9 9.8 10.9 C 9.8 10.9 10.2 10.1 10.3 10.0 C 10.5 9.9 10.7 10.7 10.7 10.7 C 10.7 10.7 12.1 9.9 12.4 9.8 C 12.7 9.7 12.9 9.2 13.1 9.1 C 13.2 8.9 12.9 7.9 13.3 7.8 C 13.6 7.8 13.3 8.5 13.7 8.5 C 14.0 8.4 14.6 8.3 14.7 8.2 C 14.8 8.1 14.9 7.7 15.1 7.5 C 15.3 7.4 15.3 6.5 15.7 6.4 C 16.1 6.2 16.5 6.5 16.7 6.5 C 16.9 6.5 17.2 7.1 17.5 7.0 C 17.9 6.9 17.5 6.6 17.8 6.4 C 18.1 6.3 17.9 5.9 18.2 5.8 C 18.6 5.8 18.7 6.6 19.0 6.4 C 19.1 6.3 19.0 6.4 19.9 6.1 C 19.9 6.1 19.9 6.1 19.9 6.1 Z M 5.5 18.4 C 6.0 18.1 5.7 17.6 5.3 17.5 C 4.9 17.4 4.0 17.2 3.8 17.0 C 3.6 16.7 3.1 15.9 2.7 16.7 C 2.2 17.5 2.5 17.8 2.7 17.8 C 2.9 17.9 3.8 18.4 3.7 18.5 C 3.6 18.7 3.2 18.9 3.1 18.9 C 2.9 18.9 1.9 19.0 2.0 19.5 C 2.0 19.9 2.2 20.3 2.2 20.3 C 2.2 20.6 2.2 20.8 2.2 21.0 C 2.2 21.0 1.5 21.5 1.7 22.0 C 1.8 22.5 1.8 23.0 1.8 23.3 C 1.7 23.7 1.8 24.0 2.1 24.1 C 2.3 24.1 3.2 24.4 3.2 24.4 C 3.2 24.4 3.5 24.9 3.4 25.1 C 3.3 25.4 2.8 25.5 2.6 25.5 C 2.4 25.5 2.0 25.6 2.0 26.0 C 2.0 26.3 1.9 28.0 2.3 28.1 C 2.6 28.3 2.9 28.1 3.1 28.2 C 3.2 28.3 3.6 29.3 3.5 29.4 C 3.3 29.6 2.8 29.8 3.0 30.0 C 3.1 30.3 3.3 30.9 3.4 30.8 C 3.5 30.8 3.8 30.9 4.0 30.8 C 4.3 30.7 4.8 31.1 4.9 31.1 C 5.1 31.1 5.4 31.5 5.4 31.5 C 5.4 31.8 5.4 32.0 5.4 32.3 C 5.4 32.3 4.7 32.2 4.5 32.1 C 4.4 32.0 4.3 32.5 4.3 32.7 C 4.4 32.8 5.2 33.8 5.2 33.8 C 5.5 33.6 5.8 33.4 6.2 33.1 C 6.4 33.3 6.6 33.5 6.9 33.7 C 6.9 33.7 5.8 34.4 6.2 34.9 C 6.6 35.3 7.1 35.9 7.1 35.9 C 7.1 35.9 7.9 36.0 8.0 36.0 C 8.2 36.1 9.1 35.3 9.1 35.3 C 9.3 34.9 9.6 34.5 9.9 34.2 C 9.9 34.2 9.8 33.4 9.4 33.3 C 9.0 33.1 8.8 33.7 8.6 33.8 C 8.4 33.9 7.9 33.7 7.9 33.7 C 7.9 33.3 8.0 33.0 8.0 32.6 C 8.0 32.6 8.0 32.3 8.1 32.0 C 8.1 31.7 7.8 31.0 7.6 30.9 C 7.4 30.7 7.0 30.7 6.7 30.6 C 6.3 30.5 6.0 30.8 6.1 30.3 C 6.2 29.9 6.5 29.6 6.4 29.4 C 6.3 29.3 5.6 28.9 5.6 28.9 C 5.4 28.8 5.3 28.6 5.1 28.5 C 5.1 28.5 4.7 28.1 4.9 28.0 C 5.1 27.8 4.5 26.9 4.5 26.9 C 4.5 26.9 5.3 26.8 5.4 26.5 C 5.5 26.2 5.5 25.8 5.3 25.5 C 5.1 25.1 4.3 25.0 4.3 25.0 C 4.5 24.8 4.6 24.7 4.8 24.5 C 4.8 24.2 4.9 23.8 4.9 23.4 C 4.9 23.4 4.8 22.6 4.7 22.6 C 4.6 22.6 3.9 22.7 3.7 22.7 C 3.5 22.6 3.3 22.2 3.5 22.1 C 3.7 22.1 4.4 21.7 4.4 21.7 C 4.4 21.7 4.9 21.4 4.9 21.2 C 5.0 20.9 4.8 20.5 4.7 20.4 C 4.6 20.3 4.2 19.8 4.2 19.8 C 4.4 19.7 4.6 19.7 4.9 19.6 C 4.9 19.6 4.7 18.8 5.5 18.4 C 5.5 18.4 5.5 18.4 5.5 18.4 Z M 10.5 34.1 C 9.7 33.5 8.4 35.9 8.4 36.6 C 8.4 37.3 9.3 37.7 9.9 38.2 C 10.4 38.7 10.7 37.8 11.1 37.9 C 11.6 37.9 11.2 38.3 11.1 38.7 C 11.0 39.1 12.2 39.4 12.7 39.8 C 13.3 40.1 14.3 39.7 14.8 39.9 C 15.2 40.0 14.6 39.3 15.4 39.7 C 16.2 40.1 15.6 40.4 14.5 40.2 C 13.4 39.9 14.6 40.8 15.1 41.2 C 15.7 41.5 16.7 41.5 17.2 41.7 C 17.6 41.9 17.3 41.1 17.9 41.3 C 18.5 41.6 18.0 42.1 18.6 42.4 C 19.3 42.7 19.4 42.1 19.8 42.1 C 20.1 42.0 20.0 42.4 20.2 42.5 C 20.5 42.6 20.9 42.9 21.6 42.9 C 22.3 42.9 22.1 42.7 22.4 42.7 C 22.7 42.7 23.3 42.8 23.3 42.8 C 23.3 43.0 23.3 43.2 23.3 43.5 C 23.3 43.5 24.5 43.7 24.8 43.8 C 25.2 43.9 26.0 43.7 25.8 43.5 C 25.6 43.3 26.5 43.0 26.6 43.1 C 26.8 43.2 27.4 43.6 27.8 43.7 C 28.2 43.9 28.1 42.2 28.1 41.9 C 28.1 41.7 28.4 40.8 28.1 40.7 C 27.7 40.6 27.4 40.9 27.5 40.6 C 27.6 40.4 26.6 40.6 26.3 40.6 C 26.0 40.5 25.6 41.1 25.6 41.1 C 25.6 41.1 25.3 41.6 24.8 41.6 C 24.4 41.5 24.4 40.4 24.4 40.4 C 24.4 40.4 23.9 40.2 23.3 40.1 C 22.8 40.1 22.0 40.8 21.9 41.0 C 21.7 41.1 21.9 40.3 21.5 40.2 C 21.2 40.0 20.7 39.6 20.5 39.6 C 20.4 39.6 20.0 40.0 20.0 40.0 C 20.0 40.0 19.2 40.1 19.0 40.1 C 18.9 40.0 19.4 39.4 19.4 39.4 C 19.4 39.4 18.1 38.7 17.8 38.5 C 17.6 38.3 17.0 38.3 16.8 38.3 C 16.6 38.3 15.9 39.0 15.7 38.8 C 15.4 38.6 16.2 38.4 16.0 38.1 C 15.7 37.9 15.3 37.5 15.2 37.4 C 15.0 37.3 14.7 37.5 14.4 37.4 C 14.2 37.4 13.5 37.8 13.1 37.6 C 12.7 37.4 12.8 36.9 12.7 36.7 C 12.6 36.5 12.9 35.9 12.6 35.7 C 12.4 35.5 12.3 36.0 12.1 35.8 C 11.8 35.6 11.6 36.1 11.3 35.8 C 11.1 35.4 11.7 35.0 11.4 34.8 C 11.2 34.7 11.3 34.8 10.5 34.1 C 10.5 34.1 10.5 34.1 10.5 34.1 Z M 30.2 41.4 C 30.0 41.5 29.8 41.0 29.3 40.9 C 28.7 40.7 28.0 40.7 28.2 41.0 C 28.3 41.3 28.5 41.5 28.2 41.9 C 27.9 42.3 27.5 43.0 27.9 43.3 C 28.3 43.6 30.0 44.3 30.5 43.9 C 31.0 43.5 31.1 43.3 31.5 43.0 C 31.9 42.8 31.7 43.6 31.7 43.6 C 31.7 43.6 32.6 43.6 33.2 43.6 C 33.9 43.6 34.7 43.5 34.7 43.3 C 34.8 43.2 35.0 42.9 35.0 42.9 C 35.0 42.9 35.4 43.2 35.9 43.2 C 36.4 43.1 36.1 43.0 36.0 42.8 C 35.9 42.6 35.3 42.2 35.5 42.2 C 35.7 42.1 36.4 42.8 36.8 42.8 C 37.1 42.8 37.9 42.6 37.9 42.6 C 37.9 42.6 37.7 42.1 37.7 42.0 C 37.8 41.9 38.5 41.6 38.5 41.8 C 38.6 41.9 38.7 42.4 39.1 42.3 C 40.2 42.1 39.8 41.3 39.9 41.2 C 40.0 41.1 40.2 41.8 40.5 41.8 C 40.8 41.8 42.9 40.8 42.9 40.6 C 43.0 40.4 44.0 40.6 44.1 40.1 C 44.2 39.6 44.2 39.4 44.2 39.3 C 44.2 39.1 44.2 38.3 44.6 38.5 C 44.9 38.6 44.5 39.7 44.8 39.8 C 45.1 39.8 46.4 39.1 46.5 38.8 C 46.6 38.3 46.3 37.8 46.5 37.6 C 46.7 37.5 47.8 37.7 47.8 37.6 C 47.8 37.5 47.4 36.8 47.3 36.7 C 47.3 36.6 46.7 35.5 46.5 35.4 C 46.2 35.4 45.3 35.5 45.6 35.7 C 45.9 35.9 46.3 36.2 46.2 36.5 C 46.1 36.8 45.9 36.9 45.8 36.8 C 45.7 36.7 45.7 36.5 45.2 36.6 C 44.7 36.6 44.8 36.3 44.4 36.5 C 44.1 36.8 43.8 37.0 43.9 37.2 C 44.1 37.5 43.9 38.0 43.6 38.2 C 43.3 38.3 43.5 37.5 42.5 37.7 C 41.5 38.0 41.0 38.1 40.8 38.5 C 40.6 38.8 40.8 39.5 40.3 39.4 C 39.7 39.2 39.9 39.0 39.3 39.2 C 38.7 39.4 38.6 40.1 38.2 40.2 C 37.9 40.3 37.7 40.3 37.7 40.3 C 37.7 40.3 37.7 39.5 36.8 39.7 C 35.9 39.9 35.7 39.8 36.0 40.4 C 36.4 40.9 35.7 41.1 35.6 40.7 C 35.4 40.3 34.9 40.2 34.5 40.2 C 34.2 40.2 34.3 41.2 34.2 41.3 C 34.0 41.3 33.6 41.3 33.7 41.0 C 33.8 40.6 33.5 40.6 33.2 40.5 C 32.9 40.4 32.0 40.6 32.1 40.8 C 32.1 41.0 32.6 41.6 31.9 41.3 C 31.3 41.0 31.1 40.5 30.6 40.6 C 30.1 40.7 30.6 41.2 30.2 41.4 C 30.2 41.4 30.2 41.4 30.2 41.4 Z M 30.2 41.4 " fill="#FDC8C6"></path></g></svg>