<?xml version="1.0" encoding="UTF-8" standalone="no"?><svg xmlns="http://www.w3.org/2000/svg" xmlns:xlink="http://www.w3.org/1999/xlink" clip-rule="evenodd" stroke-miterlimit="4.00" viewBox="0 0 251 189"><desc>SVG generated by Keynote</desc><defs></defs><g transform="matrix(1.00, 0.00, -0.00, -1.00, 0.0, 189.0)"><g><clipPath id="clip-543"><path d="M 0.2 -2.9 L 479.5 -2.9 L 479.5 148.0 L 0.2 148.0 Z M 0.2 -2.9 "></path></clipPath><g clip-path="url(#clip-543)"><text xml:space="preserve" font-family="ZapfDingbatsITC" font-size="30.0" fill="#FEFFFE" transform="matrix(1.00, 0.00, -0.00, -1.00, 9.7, 107.5)">✓</text><text xml:space="preserve" font-family="Chalkduster" font-size="30.0" fill="#FEFFFE" transform="matrix(1.00, 0.00, -0.00, -1.00, 40.0, 103.0)">a</text><text xml:space="preserve" font-family="Chalkduster" font-size="30.0" fill="#FEFFFE" transform="matrix(1.00, 0.00, -0.00, -1.00, 60.7, 103.0)"> </text><text xml:space="preserve" font-family="Chalkduster" font-size="30.0" fill="#FEFFFE" transform="matrix(1.00, 0.00, -0.00, -1.00, 75.6, 103.0)">l</text><text xml:space="preserve" font-family="Chalkduster" font-size="30.0" fill="#FEFFFE" transform="matrix(1.00, 0.00, -0.00, -1.00, 88.0, 103.0)">e</text><text xml:space="preserve" font-family="Chalkduster" font-size="30.0" fill="#FEFFFE" transform="matrix(1.00, 0.00, -0.00, -1.00, 106.3, 103.0)">t</text><text xml:space="preserve" font-family="Chalkduster" font-size="30.0" fill="#FEFFFE" transform="matrix(1.00, 0.00, -0.00, -1.00, 118.8, 103.0)">t</text><text xml:space="preserve" font-family="Chalkduster" font-size="30.0" fill="#FEFFFE" transform="matrix(1.00, 0.00, -0.00, -1.00, 132.2, 103.0)">e</text><text xml:space="preserve" font-family="Chalkduster" font-size="30.0" fill="#FEFFFE" transform="matrix(1.00, 0.00, -0.00, -1.00, 150.5, 103.0)">r</text><text xml:space="preserve" font-family="Chalkduster" font-size="30.0" fill="#FEFFFE" transform="matrix(1.00, 0.00, -0.00, -1.00, 166.3, 103.0)"> </text><text xml:space="preserve" font-family="ZapfDingbatsITC" font-size="30.0" fill="#FEFFFE" transform="matrix(1.00, 0.00, -0.00, -1.00, 9.7, 63.5)">✓</text><text xml:space="preserve" font-family="Chalkduster" font-size="30.0" fill="#FEFFFE" transform="matrix(1.00, 0.00, -0.00, -1.00, 40.0, 59.0)">u</text><text xml:space="preserve" font-family="Chalkduster" font-size="30.0" fill="#FEFFFE" transform="matrix(1.00, 0.00, -0.00, -1.00, 61.1, 59.0)">n</text><text xml:space="preserve" font-family="Chalkduster" font-size="30.0" fill="#FEFFFE" transform="matrix(1.00, 0.00, -0.00, -1.00, 83.1, 59.0)">d</text><text xml:space="preserve" font-family="Chalkduster" font-size="30.0" fill="#FEFFFE" transform="matrix(1.00, 0.00, -0.00, -1.00, 106.5, 59.0)">e</text><text xml:space="preserve" font-family="Chalkduster" font-size="30.0" fill="#FEFFFE" transform="matrix(1.00, 0.00, -0.00, -1.00, 124.8, 59.0)">r</text><text xml:space="preserve" font-family="Chalkduster" font-size="30.0" fill="#FEFFFE" transform="matrix(1.00, 0.00, -0.00, -1.00, 140.3, 59.0)">s</text><text xml:space="preserve" font-family="Chalkduster" font-size="30.0" fill="#FEFFFE" transform="matrix(1.00, 0.00, -0.00, -1.00, 156.0, 59.0)">c</text><text xml:space="preserve" font-family="Chalkduster" font-size="30.0" fill="#FEFFFE" transform="matrix(1.00, 0.00, -0.00, -1.00, 173.9, 59.0)">o</text><text xml:space="preserve" font-family="Chalkduster" font-size="30.0" fill="#FEFFFE" transform="matrix(1.00, 0.00, -0.00, -1.00, 195.8, 59.0)">r</text><text xml:space="preserve" font-family="Chalkduster" font-size="30.0" fill="#FEFFFE" transform="matrix(1.00, 0.00, -0.00, -1.00, 211.0, 59.0)">e</text><text xml:space="preserve" font-family="Chalkduster" font-size="30.0" fill="#FEFFFE" transform="matrix(1.00, 0.00, -0.00, -1.00, 229.5, 59.0)"> </text><text xml:space="preserve" font-family="Chalkduster" font-size="30.0" fill="#FEFFFE" transform="matrix(1.00, 0.00, -0.00, -1.00, 40.0, 15.0)">d</text><text xml:space="preserve" font-family="Chalkduster" font-size="30.0" fill="#FEFFFE" transform="matrix(1.00, 0.00, -0.00, -1.00, 64.7, 15.0)">i</text><text xml:space="preserve" font-family="Chalkduster" font-size="30.0" fill="#FEFFFE" transform="matrix(1.00, 0.00, -0.00, -1.00, 76.5, 15.0)">g</text><text xml:space="preserve" font-family="Chalkduster" font-size="30.0" fill="#FEFFFE" transform="matrix(1.00, 0.00, -0.00, -1.00, 98.0, 15.0)">i</text><text xml:space="preserve" font-family="Chalkduster" font-size="30.0" fill="#FEFFFE" transform="matrix(1.00, 0.00, -0.00, -1.00, 110.2, 15.0)">t</text></g></g><g><clipPath id="clip-544"><path d="M 174.4 188.0 L 187.0 175.3 L 136.9 125.5 L 124.2 138.2 Z M 174.4 188.0 "></path></clipPath><g clip-path="url(#clip-544)"><path d="M 134.1 134.7 C 133.9 134.7 134.1 134.3 133.8 133.8 C 133.5 133.4 133.1 132.9 133.0 133.2 C 132.9 133.4 132.9 133.7 132.5 133.7 C 132.1 133.7 131.5 133.9 131.6 134.2 C 131.8 134.6 132.4 136.0 132.9 136.2 C 133.4 136.3 133.6 136.3 134.0 136.4 C 134.4 136.5 133.8 136.8 133.8 136.8 C 133.8 136.8 134.3 137.4 134.6 137.8 C 135.0 138.3 135.5 138.8 135.6 138.7 C 135.7 138.7 136.0 138.7 136.0 138.7 C 136.0 138.7 136.0 139.1 136.3 139.5 C 136.6 139.8 136.6 139.6 136.6 139.4 C 136.7 139.3 136.6 138.7 136.7 138.8 C 136.8 138.9 136.8 139.7 137.0 140.0 C 137.2 140.2 137.7 140.7 137.7 140.7 C 137.7 140.7 137.9 140.4 138.0 140.4 C 138.1 140.4 138.6 140.8 138.5 140.9 C 138.4 141.1 138.1 141.3 138.4 141.5 C 139.1 142.3 139.4 141.7 139.5 141.8 C 139.6 141.8 139.2 142.2 139.3 142.4 C 139.5 142.7 141.0 144.1 141.1 144.0 C 141.3 144.0 141.4 144.8 141.9 144.8 C 142.3 144.8 142.5 144.8 142.6 144.8 C 142.7 144.8 143.3 144.7 143.3 145.0 C 143.3 145.3 142.3 145.1 142.4 145.4 C 142.4 145.7 143.3 146.6 143.6 146.6 C 144.0 146.7 144.4 146.4 144.5 146.6 C 144.6 146.7 144.7 147.6 144.8 147.6 C 144.9 147.6 145.4 147.3 145.4 147.2 C 145.5 147.1 146.3 146.6 146.3 146.5 C 146.3 146.3 146.0 145.4 145.9 145.7 C 145.8 146.0 145.6 146.3 145.4 146.2 C 145.1 146.1 145.0 146.0 145.0 145.9 C 145.0 145.8 145.2 145.8 145.0 145.4 C 144.8 144.9 145.1 144.9 144.8 144.7 C 144.5 144.4 144.2 144.1 144.1 144.3 C 144.0 144.5 143.4 144.4 143.2 144.1 C 143.0 143.9 143.7 144.0 143.2 143.2 C 142.6 142.3 142.2 141.9 141.9 141.8 C 141.6 141.7 141.1 142.1 141.0 141.6 C 140.8 141.1 141.1 141.2 140.7 140.8 C 140.2 140.3 139.7 140.5 139.5 140.2 C 139.2 139.9 139.1 139.8 139.1 139.8 C 139.1 139.8 139.7 139.5 139.1 138.9 C 138.5 138.2 138.4 138.1 138.2 138.5 C 138.0 139.0 137.5 138.5 137.7 138.3 C 137.9 138.1 137.7 137.5 137.5 137.3 C 137.3 137.1 136.7 137.5 136.6 137.5 C 136.5 137.4 136.3 137.1 136.5 137.0 C 136.8 137.0 136.6 136.7 136.5 136.4 C 136.3 136.2 135.7 135.6 135.6 135.7 C 135.5 135.8 135.5 136.5 135.2 135.9 C 135.0 135.3 135.2 135.0 134.8 134.6 C 134.4 134.3 134.4 134.9 134.1 134.7 C 134.1 134.7 134.1 134.7 134.1 134.7 Z M 146.7 146.5 C 146.0 145.9 145.1 147.7 145.0 148.2 C 145.0 148.8 145.6 149.1 146.0 149.6 C 146.4 150.1 146.7 149.5 147.1 149.6 C 147.5 149.7 147.1 149.9 147.0 150.2 C 146.9 150.6 147.8 151.1 148.2 151.5 C 148.6 151.9 149.5 151.9 149.8 152.2 C 150.2 152.5 149.8 151.7 150.4 152.3 C 150.9 152.9 150.4 152.9 149.6 152.3 C 148.7 151.8 149.6 152.9 149.9 153.3 C 150.2 153.7 151.0 154.1 151.3 154.4 C 151.6 154.8 151.6 154.0 152.0 154.5 C 152.4 154.9 151.8 155.1 152.2 155.6 C 152.6 156.0 152.9 155.7 153.2 155.8 C 153.5 155.9 153.2 156.1 153.4 156.3 C 153.5 156.5 153.7 156.9 154.2 157.3 C 154.7 157.6 154.7 157.4 154.9 157.5 C 155.1 157.7 155.4 158.0 155.4 158.0 C 155.3 158.2 155.3 158.3 155.2 158.5 C 155.2 158.5 155.9 159.2 156.1 159.5 C 156.3 159.7 156.9 160.1 156.9 159.9 C 156.8 159.7 157.6 159.9 157.6 160.1 C 157.7 160.2 157.9 160.8 158.0 161.1 C 158.2 161.5 159.1 160.5 159.2 160.4 C 159.3 160.2 160.0 159.9 159.8 159.6 C 159.6 159.3 159.3 159.3 159.4 159.2 C 159.6 159.2 158.8 158.6 158.6 158.4 C 158.4 158.2 157.9 158.4 157.9 158.4 C 157.9 158.4 157.4 158.5 157.1 158.2 C 156.8 157.9 157.3 157.2 157.3 157.2 C 157.3 157.2 157.0 156.7 156.6 156.4 C 156.2 156.0 155.3 156.1 155.1 156.1 C 155.0 156.1 155.4 155.7 155.2 155.4 C 155.0 155.1 154.7 154.6 154.6 154.5 C 154.5 154.4 154.0 154.5 154.0 154.5 C 154.0 154.5 153.3 154.2 153.2 154.1 C 153.1 154.0 153.7 153.7 153.7 153.7 C 153.7 153.7 152.8 152.6 152.7 152.4 C 152.5 152.1 152.0 151.9 151.9 151.8 C 151.7 151.7 151.0 152.0 150.8 151.7 C 150.6 151.4 151.3 151.6 151.2 151.3 C 151.0 151.0 150.7 150.5 150.6 150.4 C 150.5 150.3 150.1 150.3 149.9 150.2 C 149.7 150.0 149.1 150.2 148.8 149.9 C 148.5 149.6 148.6 149.2 148.5 149.0 C 148.5 148.9 148.7 148.4 148.5 148.2 C 148.3 147.9 148.2 148.3 148.0 148.1 C 147.8 147.9 147.5 148.2 147.3 147.9 C 147.2 147.6 147.7 147.3 147.4 147.1 C 147.3 147.1 147.4 147.1 146.7 146.5 C 146.7 146.5 146.7 146.5 146.7 146.5 Z M 160.3 160.2 C 160.2 159.7 159.6 159.7 159.5 159.9 C 159.3 160.1 158.9 160.8 158.7 160.8 C 158.4 160.8 157.7 160.8 158.2 161.5 C 158.6 162.1 158.9 162.1 159.0 161.9 C 159.1 161.8 159.8 161.4 159.9 161.6 C 160.0 161.8 160.0 162.1 160.0 162.2 C 159.9 162.3 159.6 163.0 160.0 163.2 C 160.3 163.4 160.7 163.5 160.7 163.5 C 160.9 163.7 161.0 163.8 161.2 163.9 C 161.2 163.9 161.2 164.6 161.6 164.9 C 162.0 165.1 162.3 165.4 162.5 165.7 C 162.7 165.9 163.0 166.1 163.1 166.0 C 163.3 165.9 164.0 165.8 164.0 165.8 C 164.0 165.8 164.5 166.0 164.6 166.2 C 164.7 166.4 164.5 166.7 164.3 166.8 C 164.2 166.9 164.0 167.1 164.1 167.4 C 164.3 167.7 165.1 168.9 165.4 168.9 C 165.7 168.9 165.8 168.7 166.0 168.7 C 166.1 168.8 166.8 169.4 166.7 169.6 C 166.7 169.8 166.4 170.0 166.6 170.2 C 166.8 170.3 167.1 170.8 167.2 170.7 C 167.2 170.6 167.4 170.7 167.6 170.6 C 167.8 170.4 168.3 170.7 168.4 170.7 C 168.6 170.7 168.9 171.0 168.9 171.0 C 168.9 171.2 169.0 171.4 169.0 171.6 C 169.0 171.6 168.5 171.6 168.4 171.6 C 168.2 171.5 168.2 171.9 168.3 172.0 C 168.4 172.1 169.1 172.8 169.1 172.8 C 169.4 172.6 169.6 172.4 169.8 172.2 C 170.0 172.4 170.2 172.5 170.4 172.6 C 170.4 172.6 169.7 173.3 170.0 173.6 C 170.3 173.9 170.7 174.4 170.7 174.4 C 170.7 174.4 171.4 174.4 171.5 174.5 C 171.6 174.6 172.3 174.0 172.3 174.0 C 172.5 173.7 172.7 173.4 172.9 173.1 C 172.9 173.1 172.8 172.5 172.4 172.4 C 172.1 172.2 172.0 172.7 171.9 172.8 C 171.7 172.9 171.3 172.6 171.3 172.6 C 171.2 172.4 171.2 172.1 171.2 171.8 C 171.2 171.8 171.2 171.5 171.2 171.2 C 171.1 171.0 170.7 170.4 170.5 170.3 C 170.3 170.2 170.0 170.2 169.6 170.1 C 169.3 170.0 169.2 170.3 169.1 169.9 C 169.0 169.5 169.1 169.2 169.0 169.1 C 168.9 169.0 168.2 168.7 168.2 168.7 C 168.0 168.7 167.8 168.6 167.6 168.5 C 167.6 168.5 167.1 168.3 167.2 168.1 C 167.3 167.9 166.4 167.3 166.4 167.3 C 166.4 167.3 166.9 166.9 166.8 166.7 C 166.7 166.4 166.5 166.0 166.1 165.8 C 165.7 165.5 165.1 165.7 165.1 165.7 C 165.1 165.5 165.1 165.3 165.1 165.1 C 164.9 164.8 164.6 164.5 164.4 164.2 C 164.4 164.2 163.7 163.6 163.6 163.6 C 163.6 163.7 163.3 164.2 163.1 164.2 C 163.0 164.3 162.5 164.1 162.6 163.9 C 162.7 163.8 162.7 163.1 162.7 163.1 C 162.7 163.1 162.7 162.6 162.5 162.4 C 162.4 162.2 162.0 162.0 161.8 162.0 C 161.7 162.0 161.1 162.0 161.1 162.0 C 161.1 161.8 161.2 161.6 161.2 161.4 C 161.2 161.4 160.5 161.1 160.3 160.2 C 160.3 160.2 160.3 160.2 160.3 160.2 Z M 160.3 160.2 " fill="#FEFFFE"></path><path d="M 170.0 173.8 C 169.5 173.0 171.3 172.6 170.8 171.8 C 170.4 171.0 172.0 171.5 172.7 171.8 C 172.8 171.8 172.8 171.8 172.9 171.8 C 173.0 171.9 173.1 172.1 173.3 172.2 C 173.0 171.9 173.9 172.1 173.9 171.7 C 173.9 171.7 173.5 171.3 173.5 171.2 C 173.6 170.9 173.5 170.6 173.5 170.1 C 173.5 170.1 173.5 170.0 173.6 169.9 C 173.6 169.9 173.6 169.9 173.6 169.8 C 173.6 169.7 174.1 169.5 174.1 169.3 C 174.1 169.3 173.9 168.9 173.9 168.8 C 174.0 168.7 173.6 169.0 173.6 168.9 C 173.7 168.8 173.7 168.7 173.8 168.6 C 173.8 168.4 173.8 168.3 173.8 168.0 C 173.8 168.0 173.8 167.9 173.8 167.9 C 173.5 167.6 173.7 167.1 173.8 166.7 C 173.9 166.7 174.4 165.9 174.4 165.8 C 174.4 165.8 174.4 165.8 174.4 165.7 C 174.4 165.6 174.5 165.6 174.6 165.6 C 174.7 165.5 175.0 165.7 175.0 166.0 C 174.9 166.2 174.8 164.9 175.0 164.9 C 175.5 165.1 175.1 165.3 175.1 165.6 C 175.2 165.9 175.7 165.9 175.6 166.4 C 175.6 166.6 175.1 167.6 175.5 167.6 C 175.6 167.3 175.3 167.3 175.7 167.2 C 176.0 167.2 175.9 167.7 175.9 167.8 C 175.9 168.0 176.2 168.0 176.2 168.1 C 176.3 168.5 176.5 168.8 176.6 169.1 C 176.5 169.2 175.7 170.1 176.4 170.0 C 176.7 170.0 176.9 170.0 176.8 170.3 C 176.8 170.4 176.8 170.5 176.8 170.6 C 176.7 170.6 176.7 170.7 176.6 170.7 C 176.6 170.7 176.6 170.8 176.6 170.8 C 176.7 171.0 176.7 171.2 176.7 171.3 C 176.8 171.2 176.8 171.3 176.9 171.2 C 176.9 171.7 176.7 172.1 176.8 172.6 C 176.9 172.9 176.9 172.0 177.3 172.0 C 177.4 172.2 177.6 173.2 177.5 173.4 C 177.6 173.7 176.9 173.2 176.7 173.5 C 176.6 173.7 177.2 174.0 177.0 174.2 C 176.9 174.3 177.2 174.7 177.2 174.8 C 177.2 174.9 177.7 174.9 177.7 175.0 C 177.8 175.1 177.8 175.1 177.9 175.2 C 177.9 175.2 177.9 175.3 177.9 175.5 C 177.9 175.5 177.5 175.7 177.5 175.8 C 177.6 175.7 177.8 175.9 177.8 175.8 C 178.0 175.9 178.1 176.2 178.1 176.3 C 178.0 176.4 178.0 176.5 178.0 176.5 C 178.0 176.9 177.8 176.6 177.9 177.0 C 178.0 177.2 178.1 177.3 178.2 177.5 L 178.3 178.5 C 178.3 178.5 178.3 179.0 178.4 179.1 C 178.6 180.2 177.4 179.5 177.3 179.5 C 177.3 179.5 176.8 179.5 176.8 179.5 C 176.4 179.4 176.0 179.3 175.7 179.4 C 175.6 179.4 175.4 179.3 175.4 179.3 C 177.2 178.8 173.3 178.8 174.2 179.4 C 174.2 179.4 174.1 179.5 174.1 179.5 C 174.0 179.5 173.8 179.4 173.8 179.4 C 173.6 179.4 173.8 179.2 173.6 179.2 C 173.3 179.1 173.2 179.1 173.0 178.9 C 172.8 178.8 172.9 179.1 172.1 179.1 C 174.4 178.2 172.5 177.9 171.6 177.9 C 171.3 177.8 171.4 178.8 171.1 178.7 C 169.8 178.5 171.0 178.2 171.1 178.1 C 170.9 178.1 171.2 177.8 170.1 177.8 C 170.0 177.8 169.7 178.1 169.7 178.1 C 169.4 178.1 168.9 178.0 168.7 177.8 C 168.5 177.6 168.5 177.1 168.2 177.0 C 167.9 177.0 167.8 177.2 167.7 177.5 C 167.6 177.5 166.8 177.0 166.7 177.1 C 166.8 177.2 166.8 177.2 166.9 177.2 L 166.9 177.3 C 166.6 177.2 166.6 177.4 166.4 177.4 L 166.0 177.3 C 165.8 177.2 166.9 176.6 166.7 176.5 C 163.6 175.3 165.5 176.9 165.3 176.9 C 165.3 176.9 165.1 176.8 165.0 176.6 C 164.9 176.6 164.9 176.6 164.8 176.5 C 164.5 176.5 164.2 176.4 163.9 176.2 C 163.9 176.1 163.8 176.1 163.7 176.0 C 163.6 175.9 163.4 175.7 163.5 175.5 C 164.1 175.2 164.4 175.3 164.9 175.3 C 165.0 175.3 165.1 175.3 165.1 175.3 C 165.3 175.3 165.6 175.3 165.8 175.1 C 165.9 175.1 165.9 175.1 166.0 175.1 C 166.5 175.0 167.0 174.8 167.5 174.6 C 167.5 174.6 167.9 174.9 167.9 174.9 C 168.1 174.8 167.9 174.4 168.1 174.6 C 168.1 174.6 168.8 174.9 168.9 174.9 C 169.1 174.9 168.7 174.6 168.9 174.6 C 168.9 174.7 169.0 174.7 169.1 174.7 C 169.5 174.4 170.4 175.2 170.5 174.6 C 170.1 173.8 170.4 174.6 170.0 173.8 Z M 174.0 165.8 C 174.1 165.8 174.1 165.8 174.0 165.9 C 174.0 165.8 174.0 165.7 174.0 165.8 Z M 174.4 166.2 C 174.5 166.3 174.5 166.3 174.5 166.4 C 174.7 166.6 174.6 166.7 174.5 166.9 C 174.4 166.9 174.2 167.1 174.2 167.2 C 174.0 167.4 173.9 167.4 174.0 167.4 C 174.0 167.4 173.9 167.5 174.0 167.7 C 174.1 167.7 174.1 167.6 174.2 167.5 C 174.2 167.5 174.4 167.7 174.5 167.6 C 174.5 167.6 174.4 167.3 174.4 167.2 C 174.5 167.2 174.7 166.9 174.8 166.9 C 174.7 166.8 174.7 166.3 174.5 166.3 C 174.5 166.3 174.5 166.2 174.4 166.2 Z M 174.9 169.9 C 174.8 170.1 174.8 170.3 174.6 170.4 C 174.6 170.4 174.6 170.5 174.5 170.5 C 174.5 170.6 174.4 170.6 174.4 170.7 C 174.4 170.8 174.6 170.8 174.4 170.8 C 174.5 170.7 174.6 170.6 174.6 170.6 C 174.7 170.6 174.7 170.6 174.8 170.6 C 175.1 170.5 175.2 170.2 175.0 169.9 C 175.0 169.8 174.9 169.8 174.9 169.9 Z M 175.1 167.4 C 174.2 168.2 174.4 168.4 175.2 167.6 C 175.2 167.6 175.1 167.5 175.1 167.4 Z M 173.7 169.3 C 173.7 169.3 173.7 169.2 173.6 169.1 C 173.6 169.2 173.5 169.5 173.7 169.4 C 173.7 169.3 173.6 169.4 173.7 169.3 Z M 174.9 169.4 C 175.1 169.6 175.1 169.6 175.2 169.7 C 175.3 169.8 175.3 169.8 175.3 169.8 C 175.3 169.8 175.3 169.7 175.2 169.6 C 175.1 169.5 175.0 169.4 175.0 169.4 C 175.0 169.4 175.0 169.4 174.9 169.4 Z M 175.7 169.2 C 175.7 169.1 175.7 169.0 175.6 168.8 C 175.3 168.9 175.4 169.4 175.6 169.5 C 175.7 169.4 175.7 169.3 175.7 169.2 Z M 173.7 170.6 C 173.7 170.7 173.9 171.1 173.7 171.2 C 174.0 171.5 174.1 171.4 174.4 171.1 C 174.0 171.2 174.0 170.3 174.0 169.7 C 174.0 169.7 173.7 170.6 173.7 170.6 Z M 175.8 170.8 C 175.8 170.8 175.6 170.9 175.5 170.9 C 175.4 170.9 175.3 170.9 175.3 170.9 C 175.2 170.9 175.2 171.0 175.1 171.0 C 175.1 171.0 175.0 171.0 175.0 171.0 C 174.9 171.4 174.4 171.4 174.5 171.8 C 174.6 171.6 174.6 171.6 174.8 171.5 C 174.8 171.4 174.9 171.4 174.9 171.4 C 174.9 171.3 175.0 171.3 175.0 171.3 C 175.0 171.3 175.1 171.2 175.1 171.2 C 175.2 171.2 175.3 171.1 175.3 171.1 C 175.4 171.1 175.4 171.0 175.5 171.0 C 175.6 171.0 175.7 170.9 175.8 171.0 C 175.8 170.9 175.8 170.8 175.8 170.8 Z M 176.2 176.2 C 176.1 176.1 176.1 176.2 176.1 176.3 C 176.1 176.3 176.2 176.4 176.2 176.4 C 176.3 176.4 176.3 176.4 176.4 176.4 C 176.4 176.4 176.4 176.3 176.3 176.3 C 176.3 176.3 176.2 176.2 176.2 176.2 Z M 176.7 177.7 C 176.7 177.7 176.7 177.8 176.8 177.9 C 176.8 177.9 176.9 178.0 176.9 178.0 C 177.0 178.0 177.0 178.1 177.1 178.1 C 177.1 178.1 177.2 178.2 177.2 178.2 C 177.4 178.5 177.1 178.5 177.6 178.5 C 177.4 178.2 177.7 177.9 177.2 178.0 C 177.2 178.0 177.2 177.9 177.1 177.9 C 177.1 177.8 177.1 177.8 177.1 177.8 C 177.1 177.7 177.1 177.7 177.0 177.6 L 177.0 177.6 C 177.0 177.5 176.6 177.5 176.7 177.7 Z M 177.6 176.6 C 176.1 175.1 176.7 175.9 177.5 176.6 C 177.6 176.6 177.6 176.6 177.6 176.6 Z M 175.5 178.0 C 175.6 178.0 175.7 178.0 175.7 178.0 L 175.7 178.0 C 175.8 177.9 175.8 177.9 175.7 177.8 C 175.6 177.7 175.6 177.8 175.4 177.8 C 175.4 177.8 175.1 177.6 175.1 177.7 C 175.2 177.8 175.4 178.0 175.5 178.0 Z M 174.7 178.3 C 174.7 178.1 174.4 178.1 174.2 178.1 C 174.4 178.1 174.7 178.4 174.7 178.3 Z M 175.3 176.8 C 175.4 176.9 175.4 177.0 175.5 177.0 C 175.5 177.0 175.6 176.9 175.6 177.0 L 175.6 177.0 C 175.6 176.9 175.7 176.8 175.6 176.8 C 175.5 176.7 175.4 176.8 175.3 176.8 C 175.3 176.8 175.3 176.7 175.2 176.7 C 175.2 176.8 175.2 176.8 175.3 176.8 Z M 176.0 174.1 C 176.0 174.2 176.0 174.2 176.0 174.2 C 176.0 174.3 176.0 174.3 176.1 174.4 C 176.1 174.4 176.1 174.3 176.1 174.2 C 176.2 174.1 176.1 174.1 176.0 174.1 Z M 175.8 174.4 C 175.7 174.7 175.8 174.8 176.0 175.1 C 176.0 174.8 176.0 174.6 175.8 174.4 Z M 175.0 175.4 C 175.0 175.4 175.1 175.5 175.2 175.5 C 175.2 175.4 175.2 175.4 175.2 175.3 C 175.1 175.3 175.0 175.3 175.0 175.4 Z M 177.2 173.7 C 177.1 173.7 177.1 173.7 177.0 173.7 C 177.1 173.8 177.1 173.8 177.1 173.8 C 177.1 173.8 177.1 173.8 177.2 173.7 Z M 177.6 174.7 C 177.5 174.5 177.4 174.4 177.4 174.2 L 177.2 174.0 C 177.1 174.3 177.3 174.5 177.4 174.6 C 177.4 174.8 177.5 174.8 177.6 174.7 Z M 176.8 174.9 C 176.9 174.8 176.9 174.6 176.7 174.6 C 176.7 174.6 176.7 174.8 176.8 174.9 Z M 172.1 178.7 C 172.1 178.7 171.8 178.7 171.7 178.6 C 171.8 178.9 172.2 178.8 172.1 178.7 Z M 173.6 179.0 C 173.8 178.9 173.7 178.6 173.5 178.6 C 173.2 178.9 173.4 179.0 173.6 179.0 Z M 173.1 177.5 C 173.2 177.5 173.4 177.6 173.4 177.6 C 173.3 177.5 173.2 177.5 173.0 177.3 C 173.2 177.4 173.2 177.5 173.1 177.5 Z M 173.6 177.1 C 173.7 177.2 173.8 177.3 173.9 177.3 C 173.8 177.2 173.7 177.0 173.5 176.8 C 173.5 176.8 173.4 176.9 173.4 176.9 C 173.1 176.9 173.5 177.1 173.6 177.1 Z M 165.2 175.9 C 165.3 175.9 165.4 175.9 165.5 175.9 C 165.7 175.9 166.0 175.9 166.1 175.6 C 165.9 175.7 165.8 175.9 165.6 175.8 C 165.5 175.8 165.5 175.8 165.4 175.8 C 165.3 175.8 165.3 175.8 165.2 175.9 Z M 166.8 175.2 C 166.5 175.2 166.3 175.1 166.1 175.3 C 166.5 175.5 166.7 175.2 167.0 175.1 C 166.9 175.1 166.8 175.1 166.8 175.2 Z M 166.4 175.6 C 166.6 175.6 166.4 175.8 166.6 175.8 C 166.7 175.7 166.7 175.7 166.5 175.6 C 166.5 175.6 166.4 175.6 166.4 175.6 Z M 167.5 175.2 C 167.6 175.5 167.0 175.2 167.1 175.6 C 167.3 175.5 167.4 175.3 167.5 175.3 C 167.5 175.2 167.5 175.2 167.5 175.2 Z M 176.3 171.1 C 175.5 171.9 175.6 172.1 176.4 171.2 C 176.3 171.1 176.3 171.1 176.3 171.1 Z M 173.9 172.4 C 174.2 172.8 173.8 172.2 174.2 172.6 C 174.2 172.6 174.1 172.8 174.1 172.9 C 174.1 172.8 173.9 172.9 173.9 172.8 C 173.4 172.3 173.6 172.8 173.6 172.1 C 173.6 172.1 173.9 172.4 173.9 172.4 Z M 176.1 172.4 C 176.1 172.4 176.1 172.4 176.1 172.5 C 176.2 172.6 176.2 172.7 176.3 172.8 C 176.3 172.7 176.2 172.5 176.1 172.4 Z M 173.8 175.2 C 173.9 175.2 173.9 175.3 173.9 175.4 C 174.0 175.3 173.9 175.2 173.8 175.2 Z M 174.8 179.4 C 174.8 179.4 174.9 179.4 174.9 179.4 C 174.9 179.4 174.9 179.4 174.9 179.3 C 174.8 179.4 174.8 179.4 174.8 179.4 Z M 176.3 173.4 C 176.3 173.4 176.3 173.4 176.4 173.3 C 176.4 173.3 176.4 173.2 176.4 173.1 C 176.4 173.1 176.3 173.0 176.3 173.0 C 176.1 173.1 176.1 173.1 176.2 173.3 C 176.2 173.3 176.2 173.4 176.3 173.4 Z M 169.8 174.5 C 169.8 174.5 169.9 174.5 169.9 174.5 C 169.9 174.4 169.9 174.3 169.9 174.3 C 169.9 174.2 169.8 174.2 169.8 174.2 C 169.7 174.3 169.7 174.3 169.7 174.4 C 169.7 174.5 169.7 174.5 169.8 174.5 Z M 174.5 165.3 C 174.6 165.3 174.7 165.2 174.7 165.2 C 174.8 165.0 174.8 164.9 174.7 164.7 C 174.7 164.6 174.7 164.6 174.6 164.5 C 174.3 164.8 174.3 164.8 174.4 165.1 C 174.4 165.2 174.5 165.2 174.5 165.3 Z M 176.7 169.8 C 176.8 169.8 176.8 169.8 176.8 169.7 C 176.9 169.7 176.9 169.6 176.9 169.5 C 176.8 169.5 176.8 169.4 176.8 169.4 C 176.6 169.5 176.6 169.5 176.7 169.7 C 176.7 169.7 176.7 169.8 176.7 169.8 Z M 172.1 178.4 C 172.2 178.4 172.7 178.4 172.7 178.3 C 172.6 178.2 171.8 178.1 171.7 178.1 C 171.7 178.2 172.1 178.2 172.1 178.4 Z M 171.5 176.7 C 171.9 176.8 172.0 176.9 172.2 176.5 C 172.1 176.4 172.0 176.3 171.9 176.3 C 171.7 176.3 171.6 176.3 171.5 176.3 C 171.2 176.4 171.2 176.4 171.1 176.5 C 171.1 176.6 171.2 176.6 171.3 176.6 C 171.4 176.7 171.5 176.7 171.5 176.7 Z M 165.9 176.8 C 166.1 176.8 166.2 176.9 166.3 176.6 C 166.3 176.6 166.2 176.5 166.1 176.5 C 166.0 176.5 165.9 176.5 165.9 176.5 C 165.7 176.6 165.7 176.6 165.6 176.6 C 165.7 176.7 165.7 176.7 165.8 176.7 C 165.8 176.7 165.9 176.7 165.9 176.8 Z M 172.3 176.4 C 172.4 176.3 172.3 176.2 172.1 176.2 C 172.1 176.3 172.2 176.3 172.3 176.4 Z M 171.2 174.9 C 171.3 174.9 171.4 174.9 171.5 174.8 C 171.3 174.4 170.9 174.2 170.6 174.0 C 170.7 174.3 171.0 174.6 171.2 174.9 Z M 173.9 174.2 C 173.7 174.2 173.7 173.7 173.3 173.9 C 173.3 173.9 173.4 174.0 173.4 174.0 C 173.5 174.1 173.5 174.2 173.7 174.2 C 173.7 174.2 173.8 174.2 173.9 174.2 Z M 170.3 178.6 C 170.2 178.7 170.2 178.1 169.8 178.3 C 169.8 178.3 169.8 178.4 169.9 178.4 C 169.9 178.5 170.0 178.6 170.2 178.6 C 170.2 178.6 170.3 178.6 170.3 178.6 Z M 169.5 177.2 C 169.6 177.3 169.7 177.2 169.8 177.2 C 169.9 177.1 170.0 177.1 170.0 177.1 C 169.9 177.0 169.7 176.8 169.7 176.9 C 169.6 176.9 169.5 176.9 169.5 176.9 C 169.4 176.9 169.3 176.9 169.3 177.0 C 169.4 177.1 169.3 177.1 169.5 177.2 Z M 168.2 177.6 C 168.2 177.5 168.2 177.2 168.0 177.4 C 167.9 177.4 168.2 177.6 168.2 177.6 Z M 168.1 176.8 C 168.1 176.8 168.0 176.7 167.9 176.6 C 167.8 176.6 167.9 177.0 168.1 176.8 Z M 168.8 176.1 C 168.7 176.1 168.6 176.0 168.6 176.0 C 168.6 176.1 168.7 176.2 168.8 176.1 Z M 168.3 175.2 C 168.2 175.1 168.2 175.1 168.0 175.1 C 168.0 175.2 167.9 175.2 167.9 175.3 C 167.8 175.4 167.7 175.6 167.6 175.5 C 167.6 175.7 168.0 175.6 168.1 175.7 C 168.2 175.6 168.3 175.5 168.3 175.4 C 168.4 175.4 168.4 175.3 168.4 175.3 C 168.4 175.3 168.3 175.3 168.3 175.2 Z M 167.3 176.6 L 167.4 176.6 C 167.5 176.7 167.7 176.7 167.7 176.5 C 167.6 176.5 167.4 176.5 167.3 176.6 Z M 168.6 175.4 C 168.6 175.5 168.6 175.5 168.8 175.6 C 168.8 175.7 168.9 175.7 168.9 175.7 C 169.2 175.9 169.4 176.0 169.7 176.0 C 169.6 175.8 169.4 175.7 169.1 175.6 C 169.0 175.6 169.0 175.6 168.9 175.6 C 168.8 175.6 168.6 175.5 168.7 175.4 C 168.7 175.4 168.6 175.4 168.6 175.4 Z M 169.5 175.5 C 169.6 175.5 169.6 175.5 169.7 175.6 C 169.9 175.7 170.1 175.9 169.8 175.5 C 169.7 175.5 169.7 175.4 169.6 175.4 C 169.5 175.4 169.5 175.3 169.5 175.5 Z M 169.9 176.0 C 169.9 176.2 170.0 176.3 170.1 176.3 C 170.1 176.4 170.1 176.5 170.0 176.5 C 170.1 176.6 170.1 176.7 170.1 176.7 C 170.2 176.8 170.3 176.8 170.4 176.7 C 170.2 176.7 170.3 176.4 170.2 176.2 C 170.2 176.2 170.2 176.2 170.1 176.2 C 170.0 176.1 169.9 176.1 169.9 176.0 Z M 172.8 174.5 C 172.8 174.2 173.1 173.8 172.7 173.8 C 172.6 174.0 172.6 174.3 172.8 174.5 Z M 172.8 172.9 C 172.7 173.0 172.7 173.0 172.7 173.0 C 172.7 173.0 172.7 173.0 172.6 173.1 C 172.6 173.1 172.6 173.2 172.6 173.2 C 172.6 173.3 172.7 173.4 172.9 173.4 C 173.0 173.4 172.9 173.3 172.8 173.2 C 172.8 173.1 172.7 173.1 172.7 173.0 C 172.7 173.0 172.7 172.9 172.8 172.9 L 172.8 172.9 Z M 171.6 173.7 C 171.7 173.7 171.7 173.7 171.8 173.7 C 171.9 173.7 171.9 173.7 172.0 173.7 C 172.0 173.6 172.0 173.6 171.9 173.5 C 171.9 173.4 171.8 173.4 171.8 173.3 C 171.6 173.3 171.5 173.1 171.3 173.1 C 171.3 173.1 171.2 173.1 171.2 173.1 C 171.1 173.1 171.1 173.1 171.0 173.2 C 171.1 173.2 171.2 173.3 171.2 173.4 C 171.3 173.5 171.4 173.6 171.4 173.6 C 171.5 173.7 171.6 173.7 171.6 173.7 Z M 171.0 173.5 C 171.0 173.4 171.0 173.3 170.9 173.2 C 170.8 173.3 170.8 173.4 171.0 173.5 Z M 171.9 172.6 C 172.1 172.6 171.9 172.5 171.8 172.4 C 171.9 172.5 171.9 172.5 171.9 172.6 Z M 170.2 173.3 C 170.5 173.5 170.6 173.2 170.6 173.1 C 170.5 173.2 170.3 173.3 170.2 173.3 Z M 170.2 173.3 " fill="#FEFFFE"></path></g></g><g><clipPath id="clip-545"><path d="M -1.9 -12.3 L 31.0 -12.3 L 31.0 46.1 L -1.9 46.1 Z M -1.9 -12.3 "></path></clipPath><g clip-path="url(#clip-545)"><text xml:space="preserve" font-family="ZapfDingbatsITC" font-size="30.0" fill="#FEFFFE" transform="matrix(1.00, 0.00, -0.00, -1.00, 6.0, 15.0)">✗</text></g></g></g></svg>