<?xml version="1.0" encoding="UTF-8" standalone="no"?><svg xmlns="http://www.w3.org/2000/svg" xmlns:xlink="http://www.w3.org/1999/xlink" clip-rule="evenodd" stroke-miterlimit="4.00" viewBox="0 0 428 16"><desc>SVG generated by Keynote</desc><defs></defs><g transform="matrix(1.00, 0.00, -0.00, -1.00, 0.0, 16.0)"><text xml:space="preserve" font-family="CourierNewPSMT" font-size="42.0" fill="#FEFFFE" transform="matrix(1.00, 0.00, -0.00, -1.00, 2.0, 14.0)">_</text><text xml:space="preserve" font-family="CourierNewPSMT" font-size="42.0" fill="#FEFFFE" transform="matrix(1.00, 0.00, -0.00, -1.00, 27.2, 14.0)"> </text><text xml:space="preserve" font-family="CourierNewPSMT" font-size="42.0" fill="#FEFFFE" transform="matrix(1.00, 0.00, -0.00, -1.00, 52.4, 14.0)">_</text><text xml:space="preserve" font-family="CourierNewPSMT" font-size="42.0" fill="#FEFFFE" transform="matrix(1.00, 0.00, -0.00, -1.00, 77.6, 14.0)"> </text><text xml:space="preserve" font-family="CourierNewPSMT" font-size="42.0" fill="#FEFFFE" transform="matrix(1.00, 0.00, -0.00, -1.00, 102.8, 14.0)">_</text><text xml:space="preserve" font-family="CourierNewPSMT" font-size="42.0" fill="#FEFFFE" transform="matrix(1.00, 0.00, -0.00, -1.00, 128.0, 14.0)"> </text><text xml:space="preserve" font-family="CourierNewPSMT" font-size="42.0" fill="#FEFFFE" transform="matrix(1.00, 0.00, -0.00, -1.00, 153.2, 14.0)">_</text><text xml:space="preserve" font-family="CourierNewPSMT" font-size="42.0" fill="#FEFFFE" transform="matrix(1.00, 0.00, -0.00, -1.00, 178.5, 14.0)"> </text><text xml:space="preserve" font-family="CourierNewPSMT" font-size="42.0" fill="#FEFFFE" transform="matrix(1.00, 0.00, -0.00, -1.00, 203.7, 14.0)">_</text><text xml:space="preserve" font-family="CourierNewPSMT" font-size="42.0" fill="#FEFFFE" transform="matrix(1.00, 0.00, -0.00, -1.00, 228.9, 14.0)"> </text><text xml:space="preserve" font-family="CourierNewPSMT" font-size="42.0" fill="#FEFFFE" transform="matrix(1.00, 0.00, -0.00, -1.00, 254.1, 14.0)">_</text><text xml:space="preserve" font-family="Chalkduster" font-size="42.0" fill="#FEFFFE" transform="matrix(1.00, 0.00, -0.00, -1.00, 279.2, 14.0)"> </text><text xml:space="preserve" font-family="CourierNewPSMT" font-size="42.0" fill="#FEFFFE" transform="matrix(1.00, 0.00, -0.00, -1.00, 300.1, 14.0)">_</text><text xml:space="preserve" font-family="CourierNewPSMT" font-size="42.0" fill="#FEFFFE" transform="matrix(1.00, 0.00, -0.00, -1.00, 325.3, 14.0)"> </text><text xml:space="preserve" font-family="CourierNewPSMT" font-size="42.0" fill="#FEFFFE" transform="matrix(1.00, 0.00, -0.00, -1.00, 350.5, 14.0)">_</text><text xml:space="preserve" font-family="CourierNewPSMT" font-size="42.0" fill="#FEFFFE" transform="matrix(1.00, 0.00, -0.00, -1.00, 375.8, 14.0)"> </text><text xml:space="preserve" font-family="CourierNewPSMT" font-size="42.0" fill="#FEFFFE" transform="matrix(1.00, 0.00, -0.00, -1.00, 401.0, 14.0)">_</text></g></svg>