<?xml version="1.0" encoding="UTF-8" standalone="no"?><svg xmlns="http://www.w3.org/2000/svg" xmlns:xlink="http://www.w3.org/1999/xlink" clip-rule="evenodd" stroke-miterlimit="4.00" viewBox="0 0 952 279"><desc>SVG generated by Keynote</desc><defs></defs><g transform="matrix(1.00, 0.00, -0.00, -1.00, 0.0, 279.0)"><path d="M 23.4 251.6 L 928.6 251.6 L 928.6 25.6 L 23.4 25.6 Z M 23.4 251.6 " fill="#FEFFFE"></path><image xlink:href="D592077684967D652102A30249687FEF.png" width="949.00" height="276.00" transform="matrix(1.00, 0.00, -0.00, 1.00, 1.4, 1.6)"></image><g><clipPath id="clip-199"><path d="M 20.9 23.1 L 1812.4 23.1 L 1812.4 254.1 L 20.9 254.1 Z M 20.9 23.1 "></path></clipPath><g clip-path="url(#clip-199)"><text xml:space="preserve" font-family="Courier-Bold" font-weight="bold" font-size="30.0" fill="#008E00" transform="matrix(1.00, 0.00, -0.00, -1.00, 58.0, 218.0)">d</text><text xml:space="preserve" font-family="Courier-Bold" font-weight="bold" font-size="30.0" fill="#008E00" transform="matrix(1.00, 0.00, -0.00, -1.00, 76.0, 218.0)">e</text><text xml:space="preserve" font-family="Courier-Bold" font-weight="bold" font-size="30.0" fill="#008E00" transform="matrix(1.00, 0.00, -0.00, -1.00, 94.0, 218.0)">f</text><text xml:space="preserve" font-family="Courier" font-size="30.0" fill="#000000" transform="matrix(1.00, 0.00, -0.00, -1.00, 112.0, 218.0)"> </text><text xml:space="preserve" font-family="Courier" font-size="30.0" fill="#0432FF" transform="matrix(1.00, 0.00, -0.00, -1.00, 130.0, 218.0)">f</text><text xml:space="preserve" font-family="Courier" font-size="30.0" fill="#0432FF" transform="matrix(1.00, 0.00, -0.00, -1.00, 148.0, 218.0)">o</text><text xml:space="preserve" font-family="Courier" font-size="30.0" fill="#0432FF" transform="matrix(1.00, 0.00, -0.00, -1.00, 166.0, 218.0)">r</text><text xml:space="preserve" font-family="Courier" font-size="30.0" fill="#0432FF" transform="matrix(1.00, 0.00, -0.00, -1.00, 184.0, 218.0)">m</text><text xml:space="preserve" font-family="Courier" font-size="30.0" fill="#0432FF" transform="matrix(1.00, 0.00, -0.00, -1.00, 202.0, 218.0)">a</text><text xml:space="preserve" font-family="Courier" font-size="30.0" fill="#0432FF" transform="matrix(1.00, 0.00, -0.00, -1.00, 220.0, 218.0)">t</text><text xml:space="preserve" font-family="Courier" font-size="30.0" fill="#0432FF" transform="matrix(1.00, 0.00, -0.00, -1.00, 238.0, 218.0)">_</text><text xml:space="preserve" font-family="Courier" font-size="30.0" fill="#0432FF" transform="matrix(1.00, 0.00, -0.00, -1.00, 256.1, 218.0)">n</text><text xml:space="preserve" font-family="Courier" font-size="30.0" fill="#0432FF" transform="matrix(1.00, 0.00, -0.00, -1.00, 274.1, 218.0)">i</text><text xml:space="preserve" font-family="Courier" font-size="30.0" fill="#0432FF" transform="matrix(1.00, 0.00, -0.00, -1.00, 292.1, 218.0)">c</text><text xml:space="preserve" font-family="Courier" font-size="30.0" fill="#0432FF" transform="matrix(1.00, 0.00, -0.00, -1.00, 310.1, 218.0)">e</text><text xml:space="preserve" font-family="Courier" font-size="30.0" fill="#0432FF" transform="matrix(1.00, 0.00, -0.00, -1.00, 328.1, 218.0)">l</text><text xml:space="preserve" font-family="Courier" font-size="30.0" fill="#0432FF" transform="matrix(1.00, 0.00, -0.00, -1.00, 346.1, 218.0)">y</text><text xml:space="preserve" font-family="Courier" font-size="30.0" fill="#000000" transform="matrix(1.00, 0.00, -0.00, -1.00, 364.0, 218.0)">(</text><text xml:space="preserve" font-family="Courier" font-size="30.0" fill="#000000" transform="matrix(1.00, 0.00, -0.00, -1.00, 382.1, 218.0)">s</text><text xml:space="preserve" font-family="Courier" font-size="30.0" fill="#000000" transform="matrix(1.00, 0.00, -0.00, -1.00, 400.1, 218.0)">t</text><text xml:space="preserve" font-family="Courier" font-size="30.0" fill="#000000" transform="matrix(1.00, 0.00, -0.00, -1.00, 418.1, 218.0)">r</text><text xml:space="preserve" font-family="Courier" font-size="30.0" fill="#000000" transform="matrix(1.00, 0.00, -0.00, -1.00, 436.1, 218.0)">1</text><text xml:space="preserve" font-family="Courier" font-size="30.0" fill="#000000" transform="matrix(1.00, 0.00, -0.00, -1.00, 454.1, 218.0)">,</text><text xml:space="preserve" font-family="Courier" font-size="30.0" fill="#000000" transform="matrix(1.00, 0.00, -0.00, -1.00, 472.1, 218.0)">s</text><text xml:space="preserve" font-family="Courier" font-size="30.0" fill="#000000" transform="matrix(1.00, 0.00, -0.00, -1.00, 490.1, 218.0)">t</text><text xml:space="preserve" font-family="Courier" font-size="30.0" fill="#000000" transform="matrix(1.00, 0.00, -0.00, -1.00, 508.1, 218.0)">r</text><text xml:space="preserve" font-family="Courier" font-size="30.0" fill="#000000" transform="matrix(1.00, 0.00, -0.00, -1.00, 526.1, 218.0)">2</text><text xml:space="preserve" font-family="Courier" font-size="30.0" fill="#000000" transform="matrix(1.00, 0.00, -0.00, -1.00, 544.1, 218.0)">,</text><text xml:space="preserve" font-family="Courier" font-size="30.0" fill="#000000" transform="matrix(1.00, 0.00, -0.00, -1.00, 562.1, 218.0)">s</text><text xml:space="preserve" font-family="Courier" font-size="30.0" fill="#000000" transform="matrix(1.00, 0.00, -0.00, -1.00, 580.1, 218.0)">t</text><text xml:space="preserve" font-family="Courier" font-size="30.0" fill="#000000" transform="matrix(1.00, 0.00, -0.00, -1.00, 598.1, 218.0)">r</text><text xml:space="preserve" font-family="Courier" font-size="30.0" fill="#000000" transform="matrix(1.00, 0.00, -0.00, -1.00, 616.1, 218.0)">3</text><text xml:space="preserve" font-family="Courier" font-size="30.0" fill="#000000" transform="matrix(1.00, 0.00, -0.00, -1.00, 634.1, 218.0)">)</text><text xml:space="preserve" font-family="Courier" font-size="30.0" fill="#000000" transform="matrix(1.00, 0.00, -0.00, -1.00, 652.1, 218.0)">:</text><text xml:space="preserve" font-family="Courier" font-size="30.0" fill="#000000" transform="matrix(1.00, 0.00, -0.00, -1.00, 58.0, 146.0)"> </text><text xml:space="preserve" font-family="Courier" font-size="30.0" fill="#000000" transform="matrix(1.00, 0.00, -0.00, -1.00, 76.0, 146.0)"> </text><text xml:space="preserve" font-family="Courier" font-size="30.0" fill="#000000" transform="matrix(1.00, 0.00, -0.00, -1.00, 94.0, 146.0)"> </text><text xml:space="preserve" font-family="Courier" font-size="30.0" fill="#000000" transform="matrix(1.00, 0.00, -0.00, -1.00, 112.0, 146.0)"> </text><text xml:space="preserve" font-family="Courier" font-size="30.0" fill="#000000" transform="matrix(1.00, 0.00, -0.00, -1.00, 130.0, 146.0)">a</text><text xml:space="preserve" font-family="Courier" font-size="30.0" fill="#000000" transform="matrix(1.00, 0.00, -0.00, -1.00, 148.0, 146.0)">n</text><text xml:space="preserve" font-family="Courier" font-size="30.0" fill="#000000" transform="matrix(1.00, 0.00, -0.00, -1.00, 166.0, 146.0)">s</text><text xml:space="preserve" font-family="Courier" font-size="30.0" fill="#000000" transform="matrix(1.00, 0.00, -0.00, -1.00, 184.0, 146.0)"> </text><text xml:space="preserve" font-family="Courier" font-size="30.0" fill="#797979" transform="matrix(1.00, 0.00, -0.00, -1.00, 202.0, 146.0)">=</text><text xml:space="preserve" font-family="Courier" font-size="30.0" fill="#000000" transform="matrix(1.00, 0.00, -0.00, -1.00, 220.0, 146.0)"> </text><text xml:space="preserve" font-family="Courier" font-size="30.0" fill="#000000" transform="matrix(1.00, 0.00, -0.00, -1.00, 238.0, 146.0)">s</text><text xml:space="preserve" font-family="Courier" font-size="30.0" fill="#000000" transform="matrix(1.00, 0.00, -0.00, -1.00, 256.0, 146.0)">t</text><text xml:space="preserve" font-family="Courier" font-size="30.0" fill="#000000" transform="matrix(1.00, 0.00, -0.00, -1.00, 274.0, 146.0)">r</text><text xml:space="preserve" font-family="Courier" font-size="30.0" fill="#000000" transform="matrix(1.00, 0.00, -0.00, -1.00, 292.1, 146.0)">1</text><text xml:space="preserve" font-family="Courier" font-size="30.0" fill="#000000" transform="matrix(1.00, 0.00, -0.00, -1.00, 310.1, 146.0)"> </text><text xml:space="preserve" font-family="Courier" font-size="30.0" fill="#797979" transform="matrix(1.00, 0.00, -0.00, -1.00, 328.0, 146.0)">+</text><text xml:space="preserve" font-family="Courier" font-size="30.0" fill="#000000" transform="matrix(1.00, 0.00, -0.00, -1.00, 346.0, 146.0)"> </text><text xml:space="preserve" font-family="Courier" font-size="30.0" fill="#C8352B" transform="matrix(1.00, 0.00, -0.00, -1.00, 364.0, 146.0)">'</text><text xml:space="preserve" font-family="Courier-Bold" font-weight="bold" font-size="30.0" fill="#C8792C" transform="matrix(1.00, 0.00, -0.00, -1.00, 382.1, 146.0)">\</text><text xml:space="preserve" font-family="Courier-Bold" font-weight="bold" font-size="30.0" fill="#C8792C" transform="matrix(1.00, 0.00, -0.00, -1.00, 400.1, 146.0)">t</text><text xml:space="preserve" font-family="Courier" font-size="30.0" fill="#C8352B" transform="matrix(1.00, 0.00, -0.00, -1.00, 418.1, 146.0)">'</text><text xml:space="preserve" font-family="Courier" font-size="30.0" fill="#000000" transform="matrix(1.00, 0.00, -0.00, -1.00, 436.1, 146.0)"> </text><text xml:space="preserve" font-family="Courier" font-size="30.0" fill="#797979" transform="matrix(1.00, 0.00, -0.00, -1.00, 454.1, 146.0)">+</text><text xml:space="preserve" font-family="Courier" font-size="30.0" fill="#000000" transform="matrix(1.00, 0.00, -0.00, -1.00, 472.1, 146.0)"> </text><text xml:space="preserve" font-family="Courier" font-size="30.0" fill="#000000" transform="matrix(1.00, 0.00, -0.00, -1.00, 490.1, 146.0)">s</text><text xml:space="preserve" font-family="Courier" font-size="30.0" fill="#000000" transform="matrix(1.00, 0.00, -0.00, -1.00, 508.1, 146.0)">t</text><text xml:space="preserve" font-family="Courier" font-size="30.0" fill="#000000" transform="matrix(1.00, 0.00, -0.00, -1.00, 526.1, 146.0)">r</text><text xml:space="preserve" font-family="Courier" font-size="30.0" fill="#000000" transform="matrix(1.00, 0.00, -0.00, -1.00, 544.1, 146.0)">2</text><text xml:space="preserve" font-family="Courier" font-size="30.0" fill="#000000" transform="matrix(1.00, 0.00, -0.00, -1.00, 562.1, 146.0)"> </text><text xml:space="preserve" font-family="Courier" font-size="30.0" fill="#797979" transform="matrix(1.00, 0.00, -0.00, -1.00, 580.1, 146.0)">+</text><text xml:space="preserve" font-family="Courier" font-size="30.0" fill="#000000" transform="matrix(1.00, 0.00, -0.00, -1.00, 598.1, 146.0)"> </text><text xml:space="preserve" font-family="Courier" font-size="30.0" fill="#C8352B" transform="matrix(1.00, 0.00, -0.00, -1.00, 616.1, 146.0)">'</text><text xml:space="preserve" font-family="Courier" font-size="30.0" fill="#C8352B" transform="matrix(1.00, 0.00, -0.00, -1.00, 634.1, 146.0)"> </text><text xml:space="preserve" font-family="Courier" font-size="30.0" fill="#C8352B" transform="matrix(1.00, 0.00, -0.00, -1.00, 652.1, 146.0)">(</text><text xml:space="preserve" font-family="Courier" font-size="30.0" fill="#C8352B" transform="matrix(1.00, 0.00, -0.00, -1.00, 670.1, 146.0)">'</text><text xml:space="preserve" font-family="Courier" font-size="30.0" fill="#000000" transform="matrix(1.00, 0.00, -0.00, -1.00, 688.1, 146.0)"> </text><text xml:space="preserve" font-family="Courier" font-size="30.0" fill="#797979" transform="matrix(1.00, 0.00, -0.00, -1.00, 706.1, 146.0)">+</text><text xml:space="preserve" font-family="Courier" font-size="30.0" fill="#000000" transform="matrix(1.00, 0.00, -0.00, -1.00, 724.1, 146.0)"> </text><text xml:space="preserve" font-family="Courier" font-size="30.0" fill="#000000" transform="matrix(1.00, 0.00, -0.00, -1.00, 742.1, 146.0)">s</text><text xml:space="preserve" font-family="Courier" font-size="30.0" fill="#000000" transform="matrix(1.00, 0.00, -0.00, -1.00, 760.1, 146.0)">t</text><text xml:space="preserve" font-family="Courier" font-size="30.0" fill="#000000" transform="matrix(1.00, 0.00, -0.00, -1.00, 778.1, 146.0)">r</text><text xml:space="preserve" font-family="Courier" font-size="30.0" fill="#000000" transform="matrix(1.00, 0.00, -0.00, -1.00, 796.1, 146.0)">3</text><text xml:space="preserve" font-family="Courier" font-size="30.0" fill="#000000" transform="matrix(1.00, 0.00, -0.00, -1.00, 814.1, 146.0)"> </text><text xml:space="preserve" font-family="Courier" font-size="30.0" fill="#797979" transform="matrix(1.00, 0.00, -0.00, -1.00, 832.1, 146.0)">+</text><text xml:space="preserve" font-family="Courier" font-size="30.0" fill="#C8352B" transform="matrix(1.00, 0.00, -0.00, -1.00, 850.1, 146.0)">'</text><text xml:space="preserve" font-family="Courier" font-size="30.0" fill="#C8352B" transform="matrix(1.00, 0.00, -0.00, -1.00, 868.1, 146.0)">)</text><text xml:space="preserve" font-family="Courier" font-size="30.0" fill="#C8352B" transform="matrix(1.00, 0.00, -0.00, -1.00, 886.1, 146.0)">'</text><text xml:space="preserve" font-family="Courier" font-size="30.0" fill="#000000" transform="matrix(1.00, 0.00, -0.00, -1.00, 58.0, 74.0)"> </text><text xml:space="preserve" font-family="Courier" font-size="30.0" fill="#000000" transform="matrix(1.00, 0.00, -0.00, -1.00, 76.0, 74.0)"> </text><text xml:space="preserve" font-family="Courier" font-size="30.0" fill="#000000" transform="matrix(1.00, 0.00, -0.00, -1.00, 94.0, 74.0)"> </text><text xml:space="preserve" font-family="Courier" font-size="30.0" fill="#000000" transform="matrix(1.00, 0.00, -0.00, -1.00, 112.0, 74.0)"> </text><text xml:space="preserve" font-family="Courier-Bold" font-weight="bold" font-size="30.0" fill="#008E00" transform="matrix(1.00, 0.00, -0.00, -1.00, 130.0, 74.0)">r</text><text xml:space="preserve" font-family="Courier-Bold" font-weight="bold" font-size="30.0" fill="#008E00" transform="matrix(1.00, 0.00, -0.00, -1.00, 148.0, 74.0)">e</text><text xml:space="preserve" font-family="Courier-Bold" font-weight="bold" font-size="30.0" fill="#008E00" transform="matrix(1.00, 0.00, -0.00, -1.00, 166.0, 74.0)">t</text><text xml:space="preserve" font-family="Courier-Bold" font-weight="bold" font-size="30.0" fill="#008E00" transform="matrix(1.00, 0.00, -0.00, -1.00, 184.0, 74.0)">u</text><text xml:space="preserve" font-family="Courier-Bold" font-weight="bold" font-size="30.0" fill="#008E00" transform="matrix(1.00, 0.00, -0.00, -1.00, 202.0, 74.0)">r</text><text xml:space="preserve" font-family="Courier-Bold" font-weight="bold" font-size="30.0" fill="#008E00" transform="matrix(1.00, 0.00, -0.00, -1.00, 220.0, 74.0)">n</text><text xml:space="preserve" font-family="Courier" font-size="30.0" fill="#000000" transform="matrix(1.00, 0.00, -0.00, -1.00, 238.0, 74.0)"> </text><text xml:space="preserve" font-family="Courier" font-size="30.0" fill="#000000" transform="matrix(1.00, 0.00, -0.00, -1.00, 256.0, 74.0)">a</text><text xml:space="preserve" font-family="Courier" font-size="30.0" fill="#000000" transform="matrix(1.00, 0.00, -0.00, -1.00, 274.0, 74.0)">n</text><text xml:space="preserve" font-family="Courier" font-size="30.0" fill="#000000" transform="matrix(1.00, 0.00, -0.00, -1.00, 292.0, 74.0)">s</text></g></g></g></svg>