<?xml version="1.0" encoding="UTF-8" standalone="no"?><svg xmlns="http://www.w3.org/2000/svg" xmlns:xlink="http://www.w3.org/1999/xlink" clip-rule="evenodd" stroke-miterlimit="4.00" viewBox="0 0 42 94"><desc>SVG generated by Keynote</desc><defs></defs><g transform="matrix(1.00, 0.00, -0.00, -1.00, 0.0, 94.0)"><path d="M 3.3 77.1 C 3.5 77.5 3.2 78.3 3.4 78.6 M 3.3 77.1 C 2.0 78.0 1.9 79.6 1.7 81.7 C 1.7 84.0 2.9 81.6 3.4 81.8 C 4.0 84.8 3.1 84.8 1.7 84.5 C 2.7 85.6 1.4 89.1 3.0 88.3 C 2.6 83.5 3.7 91.5 4.4 87.5 C 4.6 87.0 5.1 88.2 5.2 88.6 C 5.8 87.2 6.8 89.3 7.2 87.2 C 8.2 86.9 7.8 87.3 8.5 85.9 C 8.6 85.4 8.2 85.6 8.0 85.7 C 6.7 85.6 8.6 84.1 7.8 83.1 C 9.4 82.0 7.4 81.1 6.7 82.0 C 6.9 81.0 8.6 79.9 7.4 78.9 C 8.3 78.3 7.8 75.7 6.7 77.3 C 6.0 78.4 5.5 77.1 5.1 76.9 C 4.8 77.3 5.3 79.0 5.0 79.2 C 4.7 78.7 4.1 76.6 4.1 78.8 C 3.6 78.1 3.2 79.2 3.3 77.1 C 3.3 77.1 3.3 77.1 3.3 77.1 Z M 2.5 85.3 C 2.1 85.3 2.5 84.5 2.5 85.3 C 2.5 85.3 2.5 85.3 2.5 85.3 Z M 8.3 79.7 C 7.8 79.7 8.3 79.0 8.3 79.7 C 8.3 79.7 8.3 79.7 8.3 79.7 Z M 8.0 85.3 C 7.6 85.4 8.0 84.6 8.0 85.3 C 8.0 85.3 8.0 85.3 8.0 85.3 Z M 2.7 83.1 C 3.0 81.8 3.4 84.2 3.0 84.4 C 3.0 84.1 2.3 83.5 2.7 83.1 C 2.7 83.1 2.7 83.1 2.7 83.1 Z M 5.3 82.9 C 5.1 82.8 5.0 82.3 5.5 82.3 C 5.6 82.6 5.4 83.0 5.3 82.9 C 5.3 82.9 5.3 82.9 5.3 82.9 Z M 3.9 89.2 C 3.7 89.1 3.6 88.6 4.0 88.6 C 4.2 88.9 4.0 89.3 3.9 89.2 C 3.9 89.2 3.9 89.2 3.9 89.2 Z M 3.8 81.7 C 3.9 81.3 4.3 81.2 4.4 81.6 C 4.2 81.8 4.1 82.7 3.8 81.7 C 3.8 81.7 3.8 81.7 3.8 81.7 Z M 2.3 79.7 C 2.5 78.6 3.2 80.8 3.0 80.7 C 2.7 81.1 2.0 80.3 2.3 79.7 C 2.3 79.7 2.3 79.7 2.3 79.7 Z M 4.4 81.0 C 4.6 80.2 4.8 81.4 4.4 81.0 C 4.4 81.0 4.4 81.0 4.4 81.0 Z M 7.1 88.1 C 7.2 87.2 7.4 88.4 7.1 88.1 C 7.1 88.1 7.1 88.1 7.1 88.1 Z M 8.1 83.5 C 8.3 82.7 8.5 83.8 8.1 83.5 C 8.1 83.5 8.1 83.5 8.1 83.5 Z M 3.7 85.4 C 3.8 87.0 2.6 85.7 3.7 85.4 C 3.7 85.4 3.7 85.4 3.7 85.4 Z M 2.2 77.2 C 2.2 78.8 1.1 77.4 2.2 77.2 C 2.2 77.2 2.2 77.2 2.2 77.2 Z M 33.5 5.0 C 34.4 3.8 29.4 6.7 32.1 6.4 C 33.6 7.0 30.9 9.6 30.6 8.0 C 29.8 8.7 29.7 8.7 29.8 9.5 C 28.9 9.0 26.7 10.6 26.6 11.7 C 26.9 12.7 27.8 10.4 27.6 12.2 C 25.7 14.8 28.5 12.6 28.6 14.3 C 28.5 14.4 28.0 14.1 28.1 14.5 C 28.9 15.3 30.6 14.4 30.7 15.6 C 30.9 15.1 33.3 14.2 31.9 14.3 C 30.9 13.8 34.5 13.3 33.1 12.3 C 34.2 12.3 33.9 11.0 35.1 11.1 C 35.6 10.9 34.9 10.3 34.7 10.2 C 34.1 9.6 36.5 10.9 36.1 9.3 C 36.4 9.5 38.1 7.7 36.3 8.5 C 36.8 8.3 39.1 6.5 36.9 6.5 C 35.0 7.4 37.4 3.8 35.6 5.5 C 34.1 6.6 34.1 7.1 34.5 5.6 C 34.9 5.3 36.3 3.7 34.5 4.5 C 34.4 4.9 33.6 5.5 33.5 5.0 C 33.5 5.0 33.5 5.0 33.5 5.0 Z M 35.4 6.3 C 34.7 7.1 34.9 6.0 35.4 6.3 C 35.4 6.3 35.4 6.3 35.4 6.3 Z M 35.2 11.5 C 34.6 12.3 34.7 11.1 35.2 11.5 C 35.2 11.5 35.2 11.5 35.2 11.5 Z M 30.8 7.1 C 30.8 7.9 29.5 6.9 30.8 7.1 C 30.8 7.1 30.8 7.1 30.8 7.1 Z M 35.5 9.3 C 35.4 9.4 35.5 9.1 35.5 8.9 C 35.6 9.0 35.5 9.3 35.5 9.3 C 35.5 9.3 35.5 9.3 35.5 9.3 Z M 29.6 8.5 C 29.1 10.2 28.5 7.9 29.6 8.5 C 29.6 8.5 29.6 8.5 29.6 8.5 Z M 28.6 12.0 C 29.7 13.1 27.2 13.0 28.6 12.0 C 28.6 12.0 28.6 12.0 28.6 12.0 Z M 32.7 12.6 C 32.6 12.2 33.0 12.5 32.7 12.6 C 32.7 12.6 32.7 12.6 32.7 12.6 Z M 37.5 7.9 C 37.5 7.5 37.8 7.8 37.5 7.9 C 37.5 7.9 37.5 7.9 37.5 7.9 Z M 31.3 14.0 C 30.9 13.5 31.9 13.7 31.3 14.0 C 31.3 14.0 31.3 14.0 31.3 14.0 Z M 31.1 7.8 C 31.2 5.9 33.7 7.8 31.1 7.8 C 31.1 7.8 31.1 7.8 31.1 7.8 Z M 32.9 5.8 C 33.4 4.9 33.3 6.5 32.8 6.7 C 32.8 6.6 32.8 6.0 32.9 5.8 C 32.9 5.8 32.9 5.8 32.9 5.8 Z M 30.1 9.1 C 30.4 7.9 31.0 8.6 30.1 9.1 C 30.1 9.1 30.1 9.1 30.1 9.1 Z M 31.4 6.7 C 31.9 6.4 31.2 7.1 31.4 6.7 C 31.4 6.7 31.4 6.7 31.4 6.7 Z M 27.8 9.7 C 28.3 9.4 27.7 10.1 27.8 9.7 C 27.8 9.7 27.8 9.7 27.8 9.7 Z M 33.3 4.5 C 33.8 4.2 33.1 4.9 33.3 4.5 C 33.3 4.5 33.3 4.5 33.3 4.5 Z M 28.7 9.9 C 29.1 10.4 30.9 10.1 28.4 11.4 C 27.8 11.5 27.9 10.1 28.7 9.9 C 28.7 9.9 28.7 9.9 28.7 9.9 Z M 3.5 73.9 C 1.4 78.7 4.7 77.6 5.3 77.8 C 6.1 78.5 6.7 77.9 7.3 77.0 C 9.3 76.0 5.3 75.4 7.3 74.8 C 10.0 73.7 5.0 73.2 7.9 72.9 C 8.6 73.1 8.1 71.3 7.9 71.5 C 9.3 70.7 7.1 69.2 6.8 69.2 C 7.3 68.6 9.7 68.8 8.1 66.7 C 7.6 65.3 10.2 65.0 8.4 65.1 C 10.5 64.3 8.0 64.3 8.8 63.4 C 9.9 62.8 7.2 63.1 9.4 62.1 C 7.9 61.3 10.3 62.9 9.8 59.2 C 9.4 60.9 8.9 57.3 9.9 58.2 C 10.7 59.6 9.8 56.5 10.8 55.1 C 10.4 54.5 9.5 52.3 10.9 53.0 C 13.1 51.9 10.3 51.1 11.9 50.8 C 12.7 50.5 11.5 49.9 11.7 49.5 C 13.0 49.3 12.4 48.6 13.4 46.7 C 15.4 42.6 10.8 45.1 11.1 43.3 C 10.7 42.8 6.3 44.0 9.3 44.0 C 8.4 44.0 9.9 48.7 7.6 45.8 C 8.3 47.7 6.4 45.2 7.0 48.5 C 10.3 45.2 6.5 53.2 6.6 49.1 C 5.8 49.5 5.5 51.1 6.3 50.2 C 8.3 50.3 4.7 52.6 7.4 51.7 C 6.1 53.9 8.4 53.8 6.8 54.1 C 4.1 54.1 7.4 54.2 6.4 55.2 C 5.7 58.1 3.3 55.2 4.9 57.4 C 3.0 59.9 5.9 58.2 6.0 59.3 C 7.7 59.9 4.1 61.9 4.3 59.7 C 5.0 61.0 3.4 59.7 4.3 61.2 C 6.1 60.6 2.2 62.6 3.6 62.5 C 3.8 63.7 4.9 63.2 4.9 63.6 C 4.7 65.3 3.1 64.6 4.3 65.1 C 4.9 65.6 2.7 66.1 3.2 66.4 C 3.5 64.6 4.7 68.1 3.8 68.2 C 3.8 67.1 1.6 68.5 2.8 69.4 C 6.5 68.8 1.8 70.9 3.0 71.8 C 5.0 71.2 3.0 75.8 2.2 73.9 C 2.3 74.0 3.5 73.9 3.5 73.9 M 3.4 67.0 C 3.7 65.5 3.6 68.6 3.4 67.0 M 2.9 67.0 C 3.6 66.4 2.2 68.3 2.6 66.9 C 2.7 66.9 2.8 67.1 2.9 67.0 M 3.7 60.9 C 4.2 61.1 3.2 61.6 3.7 60.9 M 5.1 59.9 C 5.8 59.0 5.0 61.2 5.1 59.9 M 8.1 46.7 C 10.5 48.9 6.1 47.5 8.1 46.7 M 5.1 55.2 C 5.1 56.9 4.0 54.3 5.1 55.2 M 5.7 55.8 C 6.0 56.7 5.0 55.9 5.7 55.8 M 7.3 49.1 C 7.4 49.0 7.4 49.0 7.3 49.1 C 7.3 49.1 7.3 49.1 7.3 49.1 Z M 8.7 45.3 C 8.6 45.3 8.6 45.3 8.7 45.3 C 8.7 45.3 8.7 45.3 8.7 45.3 Z M 6.6 53.0 C 5.6 54.0 6.8 51.0 6.6 53.0 C 6.6 53.0 6.6 53.0 6.6 53.0 Z M 12.4 48.6 C 12.4 48.6 12.4 48.6 12.4 48.6 C 12.4 48.6 12.4 48.6 12.4 48.6 Z M 4.6 68.3 C 4.7 68.4 4.7 68.4 4.6 68.3 C 4.6 68.3 4.6 68.3 4.6 68.3 Z M 3.1 72.7 C 3.5 72.7 2.8 73.6 3.1 72.7 C 3.1 72.7 3.1 72.7 3.1 72.7 Z M 6.4 76.5 C 6.4 76.6 6.4 76.6 6.4 76.5 C 6.4 76.5 6.4 76.5 6.4 76.5 Z M 6.0 69.9 C 6.1 70.0 6.1 70.0 6.0 69.9 C 6.0 69.9 6.0 69.9 6.0 69.9 Z M 3.9 69.1 C 2.2 69.7 4.5 67.4 3.9 69.1 C 3.9 69.1 3.9 69.1 3.9 69.1 Z M 10.2 55.5 C 9.5 55.2 10.7 54.5 10.2 55.5 C 10.2 55.5 10.2 55.5 10.2 55.5 Z M 5.8 59.9 C 5.5 59.6 6.1 59.2 5.8 59.9 C 5.8 59.9 5.8 59.9 5.8 59.9 Z M 3.2 61.9 C 2.8 61.7 3.5 61.3 3.2 61.9 C 3.2 61.9 3.2 61.9 3.2 61.9 Z M 2.7 72.6 C 2.6 72.5 2.6 72.5 2.7 72.6 C 2.7 72.6 2.7 72.6 2.7 72.6 Z M 4.0 71.1 C 2.4 72.1 5.0 69.4 4.0 71.1 C 4.0 71.1 4.0 71.1 4.0 71.1 Z M 4.3 73.0 C 5.0 72.5 4.0 74.5 4.3 73.0 M 6.8 72.1 C 6.2 70.7 9.5 73.5 6.8 72.1 C 6.8 72.1 6.8 72.1 6.8 72.1 Z M 8.1 65.4 C 8.2 65.3 8.2 65.3 8.1 65.4 C 8.1 65.4 8.1 65.4 8.1 65.4 Z M 3.5 65.5 C 3.7 64.3 3.8 66.4 3.5 65.5 C 3.5 65.5 3.5 65.5 3.5 65.5 Z M 2.3 76.2 C 2.4 74.9 2.7 77.0 2.3 76.2 C 2.3 76.2 2.3 76.2 2.3 76.2 Z M 7.2 61.3 C 7.3 59.3 7.8 62.6 7.2 61.3 C 7.2 61.3 7.2 61.3 7.2 61.3 Z M 7.0 53.8 C 7.1 53.8 7.1 53.8 7.0 53.8 C 7.0 53.8 7.0 53.8 7.0 53.8 Z M 6.7 52.3 C 6.8 52.3 6.8 52.3 6.7 52.3 C 6.7 52.3 6.7 52.3 6.7 52.3 Z M 9.9 47.4 C 9.9 47.3 9.9 47.3 9.9 47.4 C 9.9 47.4 9.9 47.4 9.9 47.4 Z M 6.3 50.9 C 6.4 50.9 6.4 50.9 6.3 50.9 C 6.3 50.9 6.3 50.9 6.3 50.9 Z M 7.9 47.3 C 7.9 47.2 7.9 47.2 7.9 47.3 C 7.9 47.3 7.9 47.3 7.9 47.3 Z M 6.4 47.4 C 6.5 47.3 6.5 47.3 6.4 47.4 C 6.4 47.4 6.4 47.4 6.4 47.4 Z M 10.7 57.5 C 10.8 57.4 10.8 57.4 10.7 57.5 C 10.7 57.5 10.7 57.5 10.7 57.5 Z M 2.3 70.4 C 2.5 70.3 2.5 70.3 2.3 70.4 C 2.3 70.4 2.3 70.4 2.3 70.4 Z M 8.3 47.7 C 8.4 47.7 8.4 47.7 8.3 47.7 C 8.3 47.7 8.3 47.7 8.3 47.7 Z M 7.0 57.3 C 8.4 57.5 5.2 57.7 7.0 57.0 C 7.1 57.1 6.8 57.3 7.0 57.3 M 9.5 56.5 C 9.5 56.6 9.5 56.6 9.5 56.5 C 9.5 56.5 9.5 56.5 9.5 56.5 Z M 9.4 60.8 C 9.4 60.9 9.4 60.9 9.4 60.8 C 9.4 60.8 9.4 60.8 9.4 60.8 Z M 5.9 51.5 C 5.1 51.5 6.7 50.6 5.9 51.7 M 12.1 48.0 C 11.3 48.0 12.9 47.2 12.0 48.2 M 2.8 77.6 C 3.4 77.7 2.5 78.4 2.8 77.6 M 9.9 61.8 C 10.5 62.1 9.5 62.5 9.9 61.8 M 8.6 59.6 C 7.9 59.6 9.4 58.7 8.6 59.8 M 11.2 50.8 C 11.2 50.7 11.2 50.7 11.2 50.8 C 11.2 50.8 11.2 50.8 11.2 50.8 Z M 3.9 63.7 C 4.0 63.6 4.0 63.6 3.9 63.7 C 3.9 63.7 3.9 63.7 3.9 63.7 Z M 6.4 58.7 C 5.3 59.2 7.2 58.0 6.4 58.7 M 5.5 65.5 C 4.1 66.3 6.1 63.9 5.5 65.5 M 13.0 46.1 C 11.2 46.6 14.1 45.6 13.0 46.1 M 7.7 50.4 C 5.9 51.1 8.7 49.8 7.7 50.4 M 4.7 62.7 C 3.9 62.7 5.4 61.6 4.7 62.7 M 2.7 74.8 C 2.6 75.9 2.2 73.3 2.7 74.8 M 10.5 53.5 C 10.5 53.4 10.5 53.4 10.5 53.5 C 10.5 53.5 10.5 53.5 10.5 53.5 Z M 8.7 71.5 C 8.8 71.5 8.8 71.5 8.7 71.5 C 8.7 71.5 8.7 71.5 8.7 71.5 Z M 8.9 43.0 C 9.0 42.9 9.0 42.9 8.9 43.0 C 8.9 43.0 8.9 43.0 8.9 43.0 Z M 8.2 51.3 C 8.3 51.2 8.3 51.2 8.2 51.3 C 8.2 51.3 8.2 51.3 8.2 51.3 Z M 7.9 45.1 C 8.0 45.1 8.0 45.1 7.9 45.1 C 7.9 45.1 7.9 45.1 7.9 45.1 Z M 8.4 55.1 C 8.4 55.1 8.4 55.1 8.4 55.1 C 8.4 55.1 8.4 55.1 8.4 55.1 Z M 4.5 54.9 C 4.5 54.9 4.5 54.9 4.5 54.9 C 4.5 54.9 4.5 54.9 4.5 54.9 Z M 5.2 59.2 C 5.3 59.2 5.3 59.2 5.2 59.2 C 5.2 59.2 5.2 59.2 5.2 59.2 Z M 5.2 53.2 C 5.6 50.7 6.1 54.7 5.2 53.2 C 5.2 53.2 5.2 53.2 5.2 53.2 Z M 8.0 58.1 C 8.1 58.0 8.1 58.0 8.0 58.1 C 8.0 58.1 8.0 58.1 8.0 58.1 Z M 5.3 57.8 C 4.5 56.1 7.3 57.4 5.3 57.8 M 3.2 64.3 C 2.7 63.8 4.2 64.2 3.2 64.3 M 7.9 67.6 C 8.0 67.6 8.0 67.6 7.9 67.6 C 7.9 67.6 7.9 67.6 7.9 67.6 Z M 7.6 66.9 C 7.6 66.8 7.6 66.8 7.6 66.9 C 7.6 66.9 7.6 66.9 7.6 66.9 Z M 2.8 65.9 C 2.8 65.9 2.8 65.9 2.8 65.9 C 2.8 65.9 2.8 65.9 2.8 65.9 Z M 9.0 66.9 C 9.1 66.9 9.1 66.9 9.0 66.9 C 9.0 66.9 9.0 66.9 9.0 66.9 Z M 4.4 55.8 C 4.4 55.8 4.4 55.8 4.4 55.8 C 4.4 55.8 4.4 55.8 4.4 55.8 Z M 7.8 43.8 C 7.8 43.7 7.8 43.7 7.8 43.8 C 7.8 43.8 7.8 43.8 7.8 43.8 Z M 6.8 74.6 C 6.9 74.5 6.9 74.5 6.8 74.6 C 6.8 74.6 6.8 74.6 6.8 74.6 Z M 6.1 54.9 C 6.2 54.9 6.2 54.9 6.1 54.9 C 6.1 54.9 6.1 54.9 6.1 54.9 Z M 7.5 69.2 C 7.5 69.2 7.5 69.2 7.5 69.2 C 7.5 69.2 7.5 69.2 7.5 69.2 Z M 5.6 55.6 C 5.7 55.6 5.7 55.6 5.6 55.6 C 5.6 55.6 5.6 55.6 5.6 55.6 Z M 10.7 53.9 C 10.7 53.9 10.7 53.9 10.7 53.9 C 10.7 53.9 10.7 53.9 10.7 53.9 Z M 12.2 51.7 C 12.2 51.7 12.2 51.7 12.2 51.7 C 12.2 51.7 12.2 51.7 12.2 51.7 Z M 8.0 53.4 C 8.1 53.4 8.1 53.4 8.0 53.4 C 8.0 53.4 8.0 53.4 8.0 53.4 Z M 5.8 69.9 C 4.0 74.5 5.5 66.1 5.8 69.9 M 8.5 52.7 C 7.4 55.9 7.8 49.7 8.5 52.7 C 8.2 52.3 8.5 52.7 8.5 52.7 M 8.7 41.6 C 9.5 43.5 10.8 43.9 12.4 43.9 C 13.3 43.5 10.7 42.5 12.9 43.3 C 12.8 44.9 16.5 44.0 13.6 42.9 C 14.0 40.9 15.6 43.3 14.9 41.7 C 15.4 39.6 15.9 41.0 16.3 39.4 C 15.2 37.9 17.5 38.9 16.2 37.8 C 17.4 39.3 16.5 36.0 17.3 36.3 C 17.6 38.1 19.8 31.1 17.6 34.5 C 17.6 32.6 18.7 33.6 19.2 33.2 C 18.6 32.1 21.1 31.3 20.7 29.9 C 20.5 30.0 20.2 30.4 19.8 30.3 C 19.1 30.2 20.5 29.4 20.3 29.5 C 20.3 28.8 20.7 26.0 20.9 29.3 C 21.6 29.8 21.8 27.2 22.3 27.6 C 23.6 25.6 21.3 26.2 22.9 26.0 C 23.8 24.6 24.5 23.5 24.3 23.4 C 25.1 22.7 26.0 23.1 25.8 21.7 C 28.5 21.1 23.8 18.4 27.2 19.9 C 26.8 18.9 29.1 19.9 27.2 18.6 C 27.6 19.8 30.8 16.9 28.4 17.3 C 28.3 16.6 32.2 16.3 30.2 15.1 C 29.5 13.3 28.2 12.4 25.6 13.1 C 26.7 13.7 23.1 14.1 25.8 14.2 C 27.6 13.2 24.3 17.4 24.4 16.0 C 22.4 14.2 24.1 19.0 22.0 18.9 C 23.3 18.7 21.3 22.6 20.4 20.4 C 19.8 21.0 20.5 21.7 19.0 21.8 C 20.6 19.7 20.2 23.8 19.3 23.0 C 18.9 22.2 16.3 25.3 17.5 25.5 C 20.5 25.7 16.5 26.1 17.1 27.2 C 16.5 29.3 15.2 25.8 16.2 28.1 C 15.6 28.3 14.3 30.9 14.6 29.0 C 15.2 28.5 16.5 31.9 14.3 31.1 C 14.5 27.8 12.1 34.0 13.2 33.3 C 16.4 29.6 12.3 38.5 12.7 34.6 C 10.7 36.0 12.5 33.8 12.0 36.4 C 12.8 36.4 12.6 38.6 11.4 37.5 C 9.2 37.0 13.9 39.3 10.5 39.6 C 9.2 39.4 10.2 42.9 9.3 41.3 C 9.1 41.2 8.7 41.5 8.7 41.6 M 9.3 40.8 C 9.6 41.3 8.5 41.1 9.3 40.8 M 9.6 41.4 C 9.6 41.4 9.6 41.4 9.6 41.4 C 9.6 41.4 9.6 41.4 9.6 41.4 Z M 11.9 36.8 C 11.8 36.8 11.8 36.8 11.9 36.8 C 11.9 36.8 11.9 36.8 11.9 36.8 Z M 18.5 35.6 C 18.5 35.6 18.5 35.6 18.5 35.6 C 18.5 35.6 18.5 35.6 18.5 35.6 Z M 13.4 33.8 C 13.4 33.8 13.4 33.8 13.4 33.8 C 13.4 33.8 13.4 33.8 13.4 33.8 Z M 11.5 38.6 C 11.5 38.6 11.5 38.6 11.5 38.6 C 11.5 38.6 11.5 38.6 11.5 38.6 Z M 12.5 33.7 C 13.4 33.9 11.5 34.5 12.5 33.6 C 12.5 33.6 12.4 33.8 12.5 33.7 M 14.2 29.6 C 14.3 29.7 14.3 29.7 14.2 29.6 M 24.6 24.8 C 24.7 24.9 24.7 24.9 24.6 24.8 M 19.6 20.6 C 19.8 20.5 19.8 20.5 19.6 20.6 M 17.1 26.2 C 17.7 25.0 17.6 26.2 17.1 26.2 M 22.0 17.9 C 20.6 19.0 22.7 16.2 22.0 17.9 M 22.6 16.3 C 22.8 16.2 22.8 16.2 22.6 16.3 M 18.5 22.8 C 18.6 22.8 18.6 22.8 18.5 22.8 C 18.5 22.8 18.5 22.8 18.5 22.8 Z M 16.5 26.5 C 15.3 27.9 16.8 24.6 16.5 26.5 M 11.4 36.0 C 11.4 34.9 12.4 36.4 11.4 36.0 M 11.0 38.0 C 11.0 38.0 11.0 38.0 11.0 38.0 C 11.0 38.0 11.0 38.0 11.0 38.0 Z M 20.4 20.1 C 20.4 20.2 20.4 20.2 20.4 20.1 C 20.4 20.1 20.4 20.1 20.4 20.1 Z M 21.4 18.4 C 21.4 18.5 21.4 18.5 21.4 18.4 C 21.4 18.4 21.4 18.4 21.4 18.4 Z M 28.2 19.5 C 28.2 19.5 28.2 19.5 28.2 19.5 C 28.2 19.5 28.2 19.5 28.2 19.5 Z M 13.9 37.6 C 13.0 38.6 12.6 35.6 13.9 36.5 C 14.5 36.6 13.8 37.4 13.9 37.6 M 17.5 28.6 C 19.5 29.3 14.4 28.3 17.5 28.6 M 23.8 16.9 C 26.6 17.3 21.5 17.2 23.8 16.9 M 25.1 14.6 C 26.0 14.2 22.3 18.6 24.2 15.1 C 24.2 14.5 24.7 14.6 25.1 14.6 M 15.2 30.1 C 16.4 30.3 13.7 31.7 15.2 30.1 M 22.1 24.9 C 21.8 24.0 22.2 22.3 22.8 23.6 C 24.2 24.5 22.2 25.9 22.1 24.9 M 10.5 40.9 C 9.2 39.2 12.0 41.5 10.5 40.9 M 12.7 36.3 C 12.6 36.2 12.6 36.2 12.7 36.3 C 12.7 36.3 12.7 36.3 12.7 36.3 Z M 13.3 34.3 C 13.4 34.3 13.4 34.3 13.3 34.3 M 9.4 39.5 C 9.5 39.5 9.5 39.5 9.4 39.5 M 20.5 24.0 C 20.7 24.0 20.7 24.0 20.5 24.0 M 17.3 26.8 C 19.9 26.0 17.1 27.9 17.3 26.8 M 18.1 32.6 C 19.1 32.5 17.6 33.7 18.1 32.6 M 18.4 23.7 C 20.6 23.4 18.8 26.2 18.4 23.7 M 16.7 27.6 C 16.7 27.5 16.7 27.5 16.7 27.6 C 16.7 27.6 16.7 27.6 16.7 27.6 Z M 22.6 24.6 C 22.6 24.7 22.6 24.7 22.6 24.6 C 22.6 24.6 22.6 24.6 22.6 24.6 Z M 22.8 24.1 C 22.8 24.2 22.8 24.2 22.8 24.1 C 22.8 24.1 22.8 24.1 22.8 24.1 Z M 19.2 22.1 C 19.2 22.2 19.2 22.2 19.2 22.1 C 19.2 22.1 19.2 22.1 19.2 22.1 Z M 15.3 40.0 C 16.0 38.8 15.2 41.0 15.3 40.0 C 15.3 40.0 15.3 40.0 15.3 40.0 Z M 13.3 32.3 C 15.5 30.8 13.7 34.3 13.3 32.3 C 13.3 32.3 13.3 32.3 13.3 32.3 Z M 16.5 31.0 C 16.5 31.1 16.5 31.1 16.5 31.0 C 16.5 31.0 16.5 31.0 16.5 31.0 Z M 17.0 23.9 C 17.1 23.9 17.1 23.9 17.0 23.9 C 17.0 23.9 17.0 23.9 17.0 23.9 Z M 15.8 39.4 C 15.9 39.5 15.9 39.5 15.8 39.4 C 15.8 39.4 15.8 39.4 15.8 39.4 Z M 22.2 19.4 C 22.2 19.4 22.2 19.4 22.2 19.4 C 22.2 19.4 22.2 19.4 22.2 19.4 Z M 20.9 27.9 C 20.5 27.1 21.4 28.1 20.9 27.9 C 20.9 27.9 20.9 27.9 20.9 27.9 Z M 21.9 26.2 C 21.9 26.1 21.9 26.1 21.9 26.2 C 21.9 26.2 21.9 26.2 21.9 26.2 Z M 22.8 15.8 C 22.8 15.7 22.8 15.7 22.8 15.8 C 22.8 15.8 22.8 15.8 22.8 15.8 Z M 26.1 22.8 C 26.1 22.8 26.1 22.8 26.1 22.8 C 26.1 22.8 26.1 22.8 26.1 22.8 Z M 25.4 20.3 C 25.4 20.3 25.4 20.3 25.4 20.3 C 25.4 20.3 25.4 20.3 25.4 20.3 Z M 19.3 22.7 C 20.2 20.7 19.7 23.5 19.3 22.7 C 19.3 22.7 19.3 22.7 19.3 22.7 Z M 27.9 16.0 C 28.1 16.0 28.1 16.0 27.9 16.0 C 27.9 16.0 27.9 16.0 27.9 16.0 Z M 26.7 13.7 C 26.9 13.7 26.9 13.7 26.7 13.7 C 26.7 13.7 26.7 13.7 26.7 13.7 Z M 26.1 12.5 C 26.2 12.5 26.2 12.5 26.1 12.5 C 26.1 12.5 26.1 12.5 26.1 12.5 Z M 15.5 35.4 C 15.4 35.4 15.4 35.4 15.5 35.4 C 15.5 35.4 15.5 35.4 15.5 35.4 Z M 11.7 34.5 C 11.7 34.5 11.7 34.5 11.7 34.5 C 11.7 34.5 11.7 34.5 11.7 34.5 Z M 12.8 31.9 C 12.8 31.9 12.8 31.9 12.8 31.9 C 12.8 31.9 12.8 31.9 12.8 31.9 Z M 17.4 36.9 C 17.4 36.9 17.4 36.9 17.4 36.9 C 17.4 36.9 17.4 36.9 17.4 36.9 Z M 19.4 26.3 C 19.3 26.3 19.3 26.3 19.4 26.3 C 19.4 26.3 19.4 26.3 19.4 26.3 Z M 21.2 26.3 C 21.1 26.3 21.1 26.3 21.2 26.3 C 21.2 26.3 21.2 26.3 21.2 26.3 Z M 21.8 29.4 C 21.7 29.4 21.7 29.4 21.8 29.4 C 21.8 29.4 21.8 29.4 21.8 29.4 Z M 22.7 26.4 C 22.7 26.4 22.7 26.4 22.7 26.4 C 22.7 26.4 22.7 26.4 22.7 26.4 Z M 14.1 42.8 C 14.1 42.8 14.1 42.8 14.1 42.8 C 14.1 42.8 14.1 42.8 14.1 42.8 Z M 11.3 42.0 C 11.3 42.0 11.3 42.0 11.3 42.0 C 11.3 42.0 11.3 42.0 11.3 42.0 Z M 17.7 24.9 C 17.4 24.2 18.9 24.6 17.7 24.9 M 16.0 28.6 C 16.0 28.7 16.0 28.7 16.0 28.6 C 16.0 28.6 16.0 28.6 16.0 28.6 Z M 21.5 19.3 C 22.7 19.6 19.9 20.5 21.5 19.3 C 21.5 19.3 21.5 19.3 21.5 19.3 Z M 24.4 23.8 C 24.4 23.8 24.4 23.8 24.4 23.8 C 24.4 23.8 24.4 23.8 24.4 23.8 Z M 24.5 22.7 C 24.7 22.7 24.7 22.7 24.5 22.7 C 24.5 22.7 24.5 22.7 24.5 22.7 Z M 25.3 16.3 C 25.4 16.3 25.4 16.3 25.3 16.3 M 14.9 28.6 C 15.6 28.3 15.4 28.3 14.9 28.6 M 22.3 18.3 C 22.3 18.3 22.3 18.3 22.3 18.3 C 22.3 18.3 22.3 18.3 22.3 18.3 Z M 25.6 14.9 C 25.6 14.9 25.6 14.9 25.6 14.9 C 25.6 14.9 25.6 14.9 25.6 14.9 Z M 14.2 31.5 C 15.5 32.0 15.0 32.4 14.2 31.5 M 11.2 38.9 C 11.3 39.0 11.3 39.0 11.2 38.9 C 11.2 38.9 11.2 38.9 11.2 38.9 Z M 11.2 38.9 " fill="#71AFE1"></path></g></svg>