<?xml version="1.0" encoding="UTF-8" standalone="no"?><svg xmlns="http://www.w3.org/2000/svg" xmlns:xlink="http://www.w3.org/1999/xlink" clip-rule="evenodd" stroke-miterlimit="4.00" viewBox="0 0 147 88"><desc>SVG generated by Keynote</desc><defs></defs><g transform="matrix(1.00, 0.00, -0.00, -1.00, 0.0, 88.0)"><path d="M 10.4 71.7 C 10.4 72.1 9.7 72.6 9.7 73.0 M 10.4 71.7 C 8.9 71.7 7.9 72.9 6.6 74.6 C 5.3 76.5 7.6 75.2 7.9 75.7 C 6.8 78.5 6.0 78.0 5.1 76.9 C 5.3 78.4 2.1 80.5 4.0 80.8 C 6.4 76.6 2.6 83.9 5.5 80.9 C 6.0 80.7 5.8 81.9 5.6 82.3 C 6.8 81.5 6.4 83.8 7.9 82.3 C 9.0 82.6 8.4 82.7 9.8 82.0 C 10.2 81.5 9.8 81.6 9.5 81.5 C 8.5 80.6 10.9 80.5 10.8 79.1 C 12.8 79.2 11.7 77.3 10.6 77.6 C 11.3 76.9 13.4 76.9 12.9 75.4 C 13.9 75.4 14.9 72.9 13.2 73.6 C 12.0 74.2 12.3 72.9 12.1 72.5 C 11.5 72.6 11.1 74.3 10.7 74.3 C 10.7 73.7 11.4 71.6 10.2 73.5 C 10.1 72.6 9.2 73.4 10.4 71.7 C 10.4 71.7 10.4 71.7 10.4 71.7 Z M 5.3 78.0 C 4.9 77.8 5.7 77.4 5.3 78.0 C 5.3 78.0 5.3 78.0 5.3 78.0 Z M 13.2 76.5 C 12.8 76.3 13.6 75.9 13.2 76.5 C 13.2 76.5 13.2 76.5 13.2 76.5 Z M 9.7 81.2 C 9.4 81.0 10.1 80.5 9.7 81.2 C 9.7 81.2 9.7 81.2 9.7 81.2 Z M 6.6 76.4 C 7.6 75.5 6.6 77.6 6.1 77.5 C 6.3 77.3 6.1 76.4 6.6 76.4 C 6.6 76.4 6.6 76.4 6.6 76.4 Z M 8.9 77.6 C 8.8 77.4 9.0 76.9 9.4 77.2 C 9.3 77.6 9.0 77.7 8.9 77.6 C 8.9 77.6 8.9 77.6 8.9 77.6 Z M 4.1 82.0 C 4.0 81.9 4.2 81.4 4.6 81.7 C 4.5 82.0 4.2 82.2 4.1 82.0 C 4.1 82.0 4.1 82.0 4.1 82.0 Z M 8.4 75.8 C 8.6 75.5 9.0 75.6 8.8 76.0 C 8.6 76.0 8.0 76.8 8.4 75.8 C 8.4 75.8 8.4 75.8 8.4 75.8 Z M 8.2 73.3 C 9.0 72.5 8.3 74.7 8.2 74.5 C 7.7 74.7 7.6 73.6 8.2 73.3 C 8.2 73.3 8.2 73.3 8.2 73.3 Z M 9.2 75.6 C 9.9 74.9 9.3 76.1 9.2 75.6 C 9.2 75.6 9.2 75.6 9.2 75.6 Z M 7.4 82.9 C 8.0 82.3 7.5 83.4 7.4 82.9 C 7.4 82.9 7.4 82.9 7.4 82.9 Z M 10.9 79.7 C 11.5 79.1 11.0 80.2 10.9 79.7 C 10.9 79.7 10.9 79.7 10.9 79.7 Z M 6.1 78.8 C 5.3 80.1 5.1 78.4 6.1 78.8 C 6.1 78.8 6.1 78.8 6.1 78.8 Z M 9.5 71.2 C 8.6 72.4 8.4 70.7 9.5 71.2 C 9.5 71.2 9.5 71.2 9.5 71.2 Z M 140.0 2.3 C 141.4 2.1 135.9 0.6 138.0 2.4 C 138.6 3.8 134.9 3.7 135.9 2.4 C 134.7 2.2 134.7 2.2 134.1 2.9 C 133.9 1.8 131.3 1.4 130.4 2.0 C 129.9 2.9 132.2 2.0 130.8 3.0 C 127.6 3.5 131.0 4.0 129.9 5.3 C 129.7 5.3 129.7 4.7 129.4 5.1 C 129.4 6.2 131.2 6.8 130.4 7.7 C 130.9 7.5 133.2 8.6 132.2 7.7 C 131.8 6.7 134.7 8.9 134.4 7.1 C 135.2 7.9 136.0 6.8 136.7 7.8 C 137.3 8.0 137.2 7.1 137.2 6.8 C 137.1 6.0 137.8 8.6 138.7 7.2 C 138.8 7.6 141.3 7.5 139.4 6.8 C 140.0 6.9 142.9 7.4 141.3 5.8 C 139.3 5.1 143.5 4.2 141.1 4.1 C 139.2 3.9 138.9 4.3 140.3 3.5 C 140.7 3.6 142.8 3.4 141.0 2.7 C 140.6 2.9 139.7 2.8 140.0 2.3 C 140.0 2.3 140.0 2.3 140.0 2.3 Z M 140.3 4.6 C 139.3 4.7 140.3 4.0 140.3 4.6 C 140.3 4.6 140.3 4.6 140.3 4.6 Z M 136.5 8.1 C 135.5 8.2 136.5 7.5 136.5 8.1 C 136.5 8.1 136.5 8.1 136.5 8.1 Z M 136.6 1.9 C 136.1 2.4 135.9 0.8 136.6 1.9 C 136.6 1.9 136.6 1.9 136.6 1.9 Z M 138.3 6.8 C 138.2 6.8 138.5 6.6 138.7 6.5 C 138.6 6.6 138.4 6.8 138.3 6.8 C 138.3 6.8 138.3 6.8 138.3 6.8 Z M 134.8 2.0 C 133.2 2.8 134.4 0.8 134.8 2.0 C 134.8 2.0 134.8 2.0 134.8 2.0 Z M 131.6 3.6 C 131.5 5.2 129.9 3.4 131.6 3.6 C 131.6 3.6 131.6 3.6 131.6 3.6 Z M 133.9 7.0 C 134.2 6.7 134.2 7.2 133.9 7.0 C 133.9 7.0 133.9 7.0 133.9 7.0 Z M 140.8 7.2 C 141.0 6.9 141.0 7.4 140.8 7.2 C 140.8 7.2 140.8 7.2 140.8 7.2 Z M 132.0 7.0 C 132.1 6.4 132.6 7.3 132.0 7.0 C 132.0 7.0 132.0 7.0 132.0 7.0 Z M 136.3 2.6 C 137.8 1.3 138.1 4.4 136.3 2.6 C 136.3 2.6 136.3 2.6 136.3 2.6 Z M 139.0 2.5 C 140.0 2.2 138.8 3.2 138.3 3.1 C 138.4 2.9 138.8 2.5 139.0 2.5 C 139.0 2.5 139.0 2.5 139.0 2.5 Z M 134.8 2.8 C 135.8 2.1 135.7 3.1 134.8 2.8 C 134.8 2.8 134.8 2.8 134.8 2.8 Z M 137.3 2.0 C 137.8 2.2 136.9 2.2 137.3 2.0 C 137.3 2.0 137.3 2.0 137.3 2.0 Z M 132.7 1.5 C 133.2 1.6 132.3 1.7 132.7 1.5 C 132.7 1.5 132.7 1.5 132.7 1.5 Z M 140.2 1.8 C 140.7 2.0 139.8 2.0 140.2 1.8 C 140.2 1.8 140.2 1.8 140.2 1.8 Z M 133.2 2.3 C 133.0 2.9 134.5 4.1 131.9 3.2 C 131.4 2.8 132.5 1.9 133.2 2.3 C 133.2 2.3 133.2 2.3 133.2 2.3 Z M 13.1 68.0 C 7.8 72.2 11.3 72.8 11.7 73.4 C 11.9 74.6 12.8 74.1 14.0 73.4 C 16.4 73.4 13.5 70.6 15.6 70.9 C 18.8 71.1 14.9 68.0 17.6 69.1 C 18.0 69.7 19.0 67.4 18.8 67.4 C 20.6 67.3 19.8 64.4 19.6 64.3 C 20.4 63.8 22.3 65.3 22.5 62.2 C 23.3 60.2 25.7 61.2 24.1 60.5 C 26.5 60.6 24.3 59.3 25.7 58.7 C 27.2 58.6 24.6 57.6 27.3 57.6 C 26.6 55.9 27.4 58.9 29.9 54.6 C 28.2 56.2 30.6 52.0 30.7 53.4 C 30.4 55.4 32.0 51.5 34.1 50.5 C 34.1 49.6 35.0 46.7 35.8 48.2 C 38.7 48.0 36.7 45.8 38.4 46.3 C 39.4 46.2 38.8 45.0 39.2 44.7 C 40.6 45.1 40.6 44.0 43.0 42.5 C 48.1 38.9 41.8 39.6 43.5 37.8 C 43.4 37.1 38.3 36.4 41.2 37.7 C 40.3 37.4 38.2 43.0 38.2 39.0 C 37.5 41.2 37.7 37.7 35.6 41.5 C 41.2 39.4 31.6 46.3 34.8 42.0 C 33.7 42.1 32.2 43.7 33.7 43.0 C 35.5 44.0 30.3 44.9 33.6 45.2 C 30.7 47.0 32.8 47.9 31.1 47.5 C 28.7 46.2 31.7 47.8 29.9 48.5 C 27.1 51.3 27.2 47.1 26.9 50.2 C 23.3 52.1 27.1 51.5 26.4 52.8 C 27.5 54.2 22.7 54.7 24.6 52.4 C 24.2 54.2 23.7 52.0 23.4 54.1 C 25.5 54.2 20.5 54.7 21.9 55.1 C 21.1 56.6 22.4 56.7 22.1 57.1 C 20.6 58.9 19.8 57.3 20.5 58.4 C 20.6 59.3 18.3 58.7 18.5 59.3 C 20.1 57.5 18.6 62.0 17.7 61.6 C 18.6 60.4 15.5 60.9 15.9 62.5 C 19.6 63.7 13.9 63.6 14.3 65.3 C 16.5 65.6 11.3 69.8 12.0 67.2 C 12.0 67.5 13.1 67.9 13.1 68.0 M 18.3 60.1 C 19.7 58.6 17.2 62.0 18.3 60.1 M 17.8 59.8 C 18.9 59.5 16.2 61.0 17.7 59.6 C 17.7 59.6 17.7 59.9 17.8 59.8 M 23.2 53.4 C 23.4 54.0 22.2 54.0 23.2 53.4 M 25.2 53.1 C 26.5 52.4 24.0 54.4 25.2 53.1 M 38.1 40.1 C 38.6 43.6 35.5 40.1 38.1 40.1 M 28.7 47.9 C 27.4 49.7 28.4 46.4 28.7 47.9 M 28.8 48.9 C 28.4 49.9 28.2 48.6 28.8 48.9 M 35.4 42.4 C 35.6 42.3 35.6 42.3 35.4 42.4 C 35.4 42.4 35.4 42.4 35.4 42.4 Z M 39.6 38.9 C 39.6 38.8 39.6 38.8 39.6 38.9 C 39.6 38.9 39.6 38.9 39.6 38.9 Z M 31.8 46.2 C 30.1 46.8 33.6 44.1 31.8 46.2 C 31.8 46.2 31.8 46.2 31.8 46.2 Z M 40.6 44.0 C 40.6 44.1 40.6 44.1 40.6 44.0 C 40.6 44.0 40.6 44.0 40.6 44.0 Z M 18.3 62.2 C 18.3 62.2 18.3 62.2 18.3 62.2 C 18.3 62.2 18.3 62.2 18.3 62.2 Z M 13.7 66.4 C 14.0 66.6 12.7 67.1 13.7 66.4 C 13.7 66.4 13.7 66.4 13.7 66.4 Z M 13.6 72.5 C 13.6 72.6 13.6 72.6 13.6 72.5 C 13.6 72.5 13.6 72.5 13.6 72.5 Z M 18.3 64.8 C 18.3 64.8 18.3 64.8 18.3 64.8 C 18.3 64.8 18.3 64.8 18.3 64.8 Z M 17.1 62.7 C 15.2 62.5 18.9 61.1 17.1 62.7 C 17.1 62.7 17.1 62.7 17.1 62.7 Z M 33.2 50.6 C 32.8 50.0 34.4 49.8 33.2 50.6 C 33.2 50.6 33.2 50.6 33.2 50.6 Z M 25.8 53.3 C 25.7 52.9 26.6 52.8 25.8 53.3 C 25.8 53.3 25.8 53.3 25.8 53.3 Z M 21.9 54.4 C 21.8 53.9 22.6 53.8 21.9 54.4 C 21.9 54.4 21.9 54.4 21.9 54.4 Z M 13.4 66.1 C 13.3 65.9 13.3 65.9 13.4 66.1 C 13.4 66.1 13.4 66.1 13.4 66.1 Z M 15.7 65.0 C 13.5 65.3 17.8 63.6 15.7 65.0 C 15.7 65.0 15.7 65.0 15.7 65.0 Z M 14.5 67.4 C 15.4 67.1 13.1 68.8 14.5 67.4 M 17.3 67.6 C 17.8 65.7 18.5 70.6 17.3 67.6 C 17.3 67.6 17.3 67.6 17.3 67.6 Z M 23.6 60.6 C 23.7 60.6 23.7 60.6 23.6 60.6 C 23.6 60.6 23.6 60.6 23.6 60.6 Z M 19.5 58.5 C 20.6 57.3 19.1 59.6 19.5 58.5 C 19.5 58.5 19.5 58.5 19.5 58.5 Z M 10.4 69.9 C 11.4 68.5 10.1 71.0 10.4 69.9 C 10.4 69.9 10.4 69.9 10.4 69.9 Z M 26.0 55.6 C 27.6 53.4 25.5 57.3 26.0 55.6 C 26.0 55.6 26.0 55.6 26.0 55.6 Z M 31.5 47.3 C 31.6 47.2 31.6 47.2 31.5 47.3 C 31.5 47.3 31.5 47.3 31.5 47.3 Z M 32.4 45.5 C 32.5 45.5 32.5 45.5 32.4 45.5 C 32.4 45.5 32.4 45.5 32.4 45.5 Z M 39.2 41.6 C 39.3 41.6 39.3 41.6 39.2 41.6 C 39.2 41.6 39.2 41.6 39.2 41.6 Z M 33.1 43.8 C 33.2 43.8 33.2 43.8 33.1 43.8 C 33.1 43.8 33.1 43.8 33.1 43.8 Z M 37.4 40.6 C 37.5 40.5 37.5 40.5 37.4 40.6 C 37.4 40.6 37.4 40.6 37.4 40.6 Z M 35.9 40.1 C 36.1 40.0 36.1 40.0 35.9 40.1 C 35.9 40.1 35.9 40.1 35.9 40.1 Z M 32.1 53.0 C 32.2 53.0 32.2 53.0 32.1 53.0 C 32.1 53.0 32.1 53.0 32.1 53.0 Z M 14.7 63.4 C 14.9 63.3 14.9 63.3 14.7 63.4 C 14.7 63.4 14.7 63.4 14.7 63.4 Z M 37.5 41.3 C 37.5 41.3 37.5 41.3 37.5 41.3 C 37.5 41.3 37.5 41.3 37.5 41.3 Z M 28.9 51.1 C 29.9 52.0 26.9 50.6 29.1 50.8 C 29.1 50.9 28.7 51.0 28.9 51.1 M 31.7 51.4 C 31.7 51.5 31.7 51.5 31.7 51.4 C 31.7 51.4 31.7 51.4 31.7 51.4 Z M 28.3 56.1 C 28.3 56.2 28.3 56.2 28.3 56.1 C 28.3 56.1 28.3 56.1 28.3 56.1 Z M 32.3 44.3 C 31.6 43.9 33.7 43.7 32.1 44.5 M 40.7 43.3 C 40.1 42.9 42.2 42.8 40.6 43.5 M 9.8 71.7 C 10.1 72.2 8.9 72.5 9.8 71.7 M 28.0 57.5 C 28.2 58.0 27.0 58.1 28.0 57.5 M 28.5 54.4 C 27.8 54.1 29.9 53.7 28.4 54.6 M 37.7 45.9 C 37.8 45.8 37.8 45.8 37.7 45.9 C 37.7 45.9 37.7 45.9 37.7 45.9 Z M 21.2 56.7 C 21.3 56.6 21.3 56.6 21.2 56.7 C 21.2 56.7 21.2 56.7 21.2 56.7 Z M 27.2 52.4 C 25.8 52.4 28.5 51.9 27.2 52.4 M 21.2 59.4 C 19.3 59.7 23.0 57.9 21.2 59.4 M 43.2 41.6 C 41.0 41.4 44.6 41.5 43.2 41.6 M 34.8 43.9 C 32.6 43.8 36.2 43.7 34.8 43.9 M 22.6 56.0 C 22.0 55.5 24.1 55.1 22.6 56.0 M 11.8 68.5 C 10.8 69.7 12.5 66.5 11.8 68.5 M 35.0 48.5 C 35.1 48.5 35.1 48.5 35.0 48.5 C 35.0 48.5 35.0 48.5 35.0 48.5 Z M 19.4 67.9 C 19.5 67.9 19.5 67.9 19.4 67.9 C 19.4 67.9 19.4 67.9 19.4 67.9 Z M 41.6 36.5 C 41.7 36.5 41.7 36.5 41.6 36.5 C 41.6 36.5 41.6 36.5 41.6 36.5 Z M 34.6 45.0 C 34.7 45.1 34.7 45.1 34.6 45.0 C 34.6 45.0 34.6 45.0 34.6 45.0 Z M 39.1 38.3 C 39.2 38.3 39.2 38.3 39.1 38.3 C 39.1 38.3 39.1 38.3 39.1 38.3 Z M 31.8 49.3 C 31.9 49.3 31.9 49.3 31.8 49.3 C 31.8 49.3 31.8 49.3 31.8 49.3 Z M 28.4 47.2 C 28.5 47.3 28.5 47.3 28.4 47.2 C 28.4 47.2 28.4 47.2 28.4 47.2 Z M 25.8 52.3 C 25.8 52.3 25.8 52.3 25.8 52.3 C 25.8 52.3 25.8 52.3 25.8 52.3 Z M 30.4 45.7 C 32.6 43.3 30.1 47.8 30.4 45.7 C 30.4 45.7 30.4 45.7 30.4 45.7 Z M 29.2 52.4 C 29.2 52.4 29.2 52.4 29.2 52.4 C 29.2 52.4 29.2 52.4 29.2 52.4 Z M 26.9 50.8 C 27.5 48.6 29.0 51.3 26.9 50.8 M 20.1 57.0 C 20.1 56.1 21.0 57.4 20.1 57.0 M 21.7 63.0 C 21.8 63.0 21.8 63.0 21.7 63.0 C 21.7 63.0 21.7 63.0 21.7 63.0 Z M 22.0 62.0 C 22.1 62.0 22.1 62.0 22.0 62.0 C 22.0 62.0 22.0 62.0 22.0 62.0 Z M 18.5 58.6 C 18.6 58.5 18.6 58.5 18.5 58.6 C 18.5 58.6 18.5 58.6 18.5 58.6 Z M 23.2 62.8 C 23.3 62.8 23.3 62.8 23.2 62.8 C 23.2 62.8 23.2 62.8 23.2 62.8 Z M 27.6 48.2 C 27.7 48.2 27.7 48.2 27.6 48.2 C 27.6 48.2 27.6 48.2 27.6 48.2 Z M 40.0 36.9 C 40.0 36.8 40.0 36.8 40.0 36.9 C 40.0 36.9 40.0 36.9 40.0 36.9 Z M 15.4 70.5 C 15.5 70.4 15.5 70.4 15.4 70.5 C 15.4 70.5 15.4 70.5 15.4 70.5 Z M 29.9 48.1 C 30.0 48.1 30.0 48.1 29.9 48.1 C 29.9 48.1 29.9 48.1 29.9 48.1 Z M 20.1 64.7 C 20.2 64.7 20.2 64.7 20.1 64.7 C 20.1 64.7 20.1 64.7 20.1 64.7 Z M 28.9 48.6 C 29.0 48.6 29.0 48.6 28.9 48.6 C 28.9 48.6 28.9 48.6 28.9 48.6 Z M 34.8 49.1 C 34.9 49.1 34.9 49.1 34.8 49.1 C 34.8 49.1 34.8 49.1 34.8 49.1 Z M 37.9 47.3 C 38.0 47.3 38.0 47.3 37.9 47.3 C 37.9 47.3 37.9 47.3 37.9 47.3 Z M 32.8 47.3 C 32.9 47.3 32.9 47.3 32.8 47.3 C 32.8 47.3 32.8 47.3 32.8 47.3 Z M 18.1 64.6 C 13.0 68.9 20.8 60.1 18.1 64.6 M 33.8 46.8 C 30.3 49.7 35.4 43.2 33.8 46.8 C 33.9 46.1 33.8 46.7 33.8 46.8 M 42.5 35.0 C 41.9 37.3 42.8 38.3 44.3 39.0 C 45.5 39.0 43.7 36.8 45.2 38.6 C 43.8 40.3 48.1 40.9 46.2 38.5 C 48.1 36.5 47.7 39.8 48.3 37.8 C 50.5 35.8 49.8 37.5 51.5 36.0 C 51.6 33.9 53.1 35.9 52.6 34.3 C 52.7 36.3 54.4 32.5 54.9 33.1 C 53.7 35.1 61.4 28.8 56.6 31.3 C 58.0 29.5 58.5 30.9 59.2 30.7 C 59.5 29.3 62.7 29.5 63.3 28.0 C 63.0 27.9 62.4 28.2 62.0 28.0 C 61.4 27.6 63.4 27.3 63.2 27.4 C 63.8 26.6 66.4 23.9 64.0 27.4 C 64.2 28.2 66.5 25.6 66.7 26.3 C 69.6 24.7 66.7 24.4 68.6 24.8 C 70.6 23.8 72.2 23.0 72.1 22.8 C 73.4 22.4 74.1 23.1 74.8 21.7 C 78.2 22.2 75.2 17.6 77.7 20.5 C 78.1 19.4 79.8 21.2 78.8 19.2 C 78.3 20.5 84.0 18.9 81.0 18.4 C 81.4 17.6 85.9 18.9 84.6 16.9 C 85.3 14.9 84.5 13.4 81.1 13.1 C 81.9 14.2 77.7 13.0 80.6 14.2 C 83.3 14.0 76.6 16.8 77.7 15.5 C 77.0 12.9 75.2 18.4 73.0 17.3 C 74.6 17.7 69.5 20.8 70.2 18.2 C 69.1 18.6 69.3 19.5 67.7 19.1 C 71.0 17.6 67.5 21.5 67.1 20.3 C 67.3 19.4 62.4 21.4 63.4 22.1 C 66.3 23.6 61.9 22.3 61.6 23.7 C 59.5 25.6 60.9 21.4 60.0 24.2 C 59.4 24.2 56.0 26.3 57.8 24.5 C 58.8 24.3 57.5 28.2 55.9 26.5 C 58.7 23.2 51.5 28.5 53.1 28.3 C 59.1 25.8 48.3 33.3 51.7 29.4 C 48.7 30.0 52.1 28.5 49.6 31.0 C 50.4 31.3 48.6 33.5 48.2 31.9 C 46.5 30.4 49.2 34.8 45.7 33.7 C 44.7 32.8 42.9 37.0 43.2 34.9 C 43.2 34.8 42.6 34.9 42.5 35.0 M 43.7 34.4 C 43.6 35.1 42.7 34.4 43.7 34.4 M 43.5 35.1 C 43.5 35.1 43.5 35.1 43.5 35.1 C 43.5 35.1 43.5 35.1 43.5 35.1 Z M 49.2 31.4 C 49.1 31.3 49.1 31.3 49.2 31.4 C 49.2 31.4 49.2 31.4 49.2 31.4 Z M 56.6 33.0 C 56.6 32.9 56.6 32.9 56.6 33.0 C 56.6 33.0 56.6 33.0 56.6 33.0 Z M 53.0 28.9 C 52.9 28.9 52.9 28.9 53.0 28.9 C 53.0 28.9 53.0 28.9 53.0 28.9 Z M 47.4 33.0 C 47.4 33.1 47.4 33.1 47.4 33.0 C 47.4 33.0 47.4 33.0 47.4 33.0 Z M 52.2 28.5 C 52.9 29.0 50.5 28.8 52.2 28.3 C 52.2 28.3 52.0 28.5 52.2 28.5 M 57.0 25.0 C 57.0 25.0 57.0 25.0 57.0 25.0 M 71.3 24.4 C 71.4 24.4 71.4 24.4 71.3 24.4 M 69.3 18.0 C 69.4 18.1 69.4 18.1 69.3 18.0 M 62.4 22.7 C 64.0 21.7 63.0 22.9 62.4 22.7 M 73.8 16.4 C 71.5 16.9 75.8 15.0 73.8 16.4 M 75.6 15.0 C 75.8 15.0 75.8 15.0 75.6 15.0 M 66.5 19.8 C 66.5 19.9 66.5 19.9 66.5 19.8 C 66.5 19.8 66.5 19.8 66.5 19.8 Z M 61.6 22.8 C 59.3 23.6 63.3 20.9 61.6 22.8 M 49.4 30.2 C 50.2 29.2 50.0 31.1 49.4 30.2 M 47.5 32.2 C 47.5 32.2 47.5 32.2 47.5 32.2 C 47.5 32.2 47.5 32.2 47.5 32.2 Z M 70.5 17.9 C 70.4 18.0 70.4 18.0 70.5 17.9 C 70.5 17.9 70.5 17.9 70.5 17.9 Z M 72.8 16.7 C 72.7 16.7 72.7 16.7 72.8 16.7 C 72.8 16.7 72.8 16.7 72.8 16.7 Z M 79.2 20.4 C 79.1 20.5 79.1 20.5 79.2 20.4 C 79.2 20.4 79.2 20.4 79.2 20.4 Z M 50.5 33.1 C 48.9 33.7 50.8 30.4 51.4 31.9 C 51.9 32.3 50.6 32.9 50.5 33.1 M 61.1 25.2 C 62.5 26.8 58.2 23.7 61.1 25.2 M 76.5 16.1 C 79.1 17.7 73.7 15.5 76.5 16.1 M 79.6 14.3 C 80.7 14.4 73.5 17.2 78.3 14.5 C 78.6 13.9 79.1 14.2 79.6 14.3 M 57.6 25.8 C 58.6 26.5 54.9 26.8 57.6 25.8 M 68.6 23.5 C 69.0 22.4 70.6 20.8 70.3 22.4 C 71.0 23.8 67.9 24.5 68.6 23.5 M 44.8 35.0 C 44.8 32.7 45.7 36.3 44.8 35.0 M 50.4 31.1 C 50.4 31.0 50.4 31.0 50.4 31.1 C 50.4 31.1 50.4 31.1 50.4 31.1 Z M 52.4 29.4 C 52.6 29.4 52.6 29.4 52.4 29.4 M 44.7 33.1 C 44.9 33.1 44.9 33.1 44.7 33.1 M 67.6 21.8 C 67.8 21.9 67.8 21.9 67.6 21.8 M 62.2 23.4 C 65.4 23.7 61.2 24.4 62.2 23.4 M 58.6 29.7 C 59.7 30.0 57.2 30.6 58.6 29.7 M 65.7 20.7 C 68.1 21.3 64.2 23.3 65.7 20.7 M 61.0 23.9 C 61.1 23.8 61.1 23.8 61.0 23.9 C 61.0 23.9 61.0 23.9 61.0 23.9 Z M 69.2 23.3 C 69.2 23.4 69.2 23.4 69.2 23.3 C 69.2 23.3 69.2 23.3 69.2 23.3 Z M 69.9 22.9 C 69.9 23.0 69.9 23.0 69.9 22.9 C 69.9 22.9 69.9 22.9 69.9 22.9 Z M 67.6 19.4 C 67.6 19.5 67.6 19.5 67.6 19.4 C 67.6 19.4 67.6 19.4 67.6 19.4 Z M 50.1 36.1 C 51.7 35.2 49.1 37.2 50.1 36.1 C 50.1 36.1 50.1 36.1 50.1 36.1 Z M 54.0 27.3 C 57.3 26.7 52.9 29.6 54.0 27.3 C 54.0 27.3 54.0 27.3 54.0 27.3 Z M 58.1 27.3 C 58.2 27.4 58.2 27.4 58.1 27.3 C 58.1 27.3 58.1 27.3 58.1 27.3 Z M 64.1 20.3 C 64.2 20.4 64.2 20.4 64.1 20.3 C 64.1 20.3 64.1 20.3 64.1 20.3 Z M 51.0 35.8 C 51.1 35.8 51.1 35.8 51.0 35.8 C 51.0 35.8 51.0 35.8 51.0 35.8 Z M 72.8 17.9 C 72.9 18.0 72.9 18.0 72.8 17.9 C 72.8 17.9 72.8 17.9 72.8 17.9 Z M 65.0 25.9 C 65.3 25.0 65.4 26.3 65.0 25.9 C 65.0 25.9 65.0 25.9 65.0 25.9 Z M 67.4 24.6 C 67.5 24.6 67.5 24.6 67.4 24.6 C 67.4 24.6 67.4 24.6 67.4 24.6 Z M 76.2 14.6 C 76.3 14.6 76.3 14.6 76.2 14.6 C 76.2 14.6 76.2 14.6 76.2 14.6 Z M 74.3 22.9 C 74.4 22.9 74.4 22.9 74.3 22.9 C 74.3 22.9 74.3 22.9 74.3 22.9 Z M 75.5 20.1 C 75.5 20.2 75.5 20.2 75.5 20.1 C 75.5 20.1 75.5 20.1 75.5 20.1 Z M 67.4 20.0 C 69.7 18.4 67.2 21.0 67.4 20.0 C 67.4 20.0 67.4 20.0 67.4 20.0 Z M 81.5 16.9 C 81.6 17.0 81.6 17.0 81.5 16.9 C 81.5 16.9 81.5 16.9 81.5 16.9 Z M 82.0 14.2 C 82.1 14.3 82.1 14.3 82.0 14.2 C 82.0 14.2 82.0 14.2 82.0 14.2 Z M 82.2 12.8 C 82.3 12.8 82.3 12.8 82.2 12.8 C 82.2 12.8 82.2 12.8 82.2 12.8 Z M 53.8 31.5 C 53.7 31.5 53.7 31.5 53.8 31.5 C 53.8 31.5 53.8 31.5 53.8 31.5 Z M 50.8 28.9 C 50.7 28.9 50.7 28.9 50.8 28.9 C 50.8 28.9 50.8 28.9 50.8 28.9 Z M 53.8 26.7 C 53.8 26.7 53.8 26.7 53.8 26.7 C 53.8 26.7 53.8 26.7 53.8 26.7 Z M 54.6 33.8 C 54.5 33.8 54.5 33.8 54.6 33.8 C 54.6 33.8 54.6 33.8 54.6 33.8 Z M 64.7 23.7 C 64.6 23.7 64.6 23.7 64.7 23.7 C 64.7 23.7 64.7 23.7 64.7 23.7 Z M 66.6 24.5 C 66.5 24.4 66.5 24.4 66.6 24.5 C 66.6 24.5 66.6 24.5 66.6 24.5 Z M 64.8 27.8 C 64.7 27.8 64.7 27.8 64.8 27.8 C 64.8 27.8 64.8 27.8 64.8 27.8 Z M 68.1 25.2 C 68.0 25.1 68.0 25.1 68.1 25.2 C 68.1 25.2 68.1 25.2 68.1 25.2 Z M 46.7 38.6 C 46.7 38.6 46.7 38.6 46.7 38.6 C 46.7 38.6 46.7 38.6 46.7 38.6 Z M 44.7 36.5 C 44.7 36.6 44.7 36.6 44.7 36.5 C 44.7 36.5 44.7 36.5 44.7 36.5 Z M 64.0 21.7 C 64.3 20.8 65.5 21.8 64.0 21.7 M 59.5 24.7 C 59.5 24.7 59.5 24.7 59.5 24.7 C 59.5 24.7 59.5 24.7 59.5 24.7 Z M 72.2 17.6 C 73.3 18.3 69.6 18.2 72.2 17.6 C 72.2 17.6 72.2 17.6 72.2 17.6 Z M 71.8 23.2 C 71.8 23.2 71.8 23.2 71.8 23.2 C 71.8 23.2 71.8 23.2 71.8 23.2 Z M 72.8 22.2 C 72.9 22.2 72.9 22.2 72.8 22.2 C 72.8 22.2 72.8 22.2 72.8 22.2 Z M 78.5 16.1 C 78.7 16.1 78.7 16.1 78.5 16.1 M 58.4 24.1 C 59.3 24.2 59.2 24.2 58.4 24.1 M 73.8 16.9 C 73.8 16.9 73.8 16.9 73.8 16.9 C 73.8 16.9 73.8 16.9 73.8 16.9 Z M 79.8 14.8 C 79.8 14.9 79.8 14.9 79.8 14.8 C 79.8 14.8 79.8 14.8 79.8 14.8 Z M 55.5 26.8 C 56.4 28.0 55.6 28.1 55.5 26.8 M 46.9 33.3 C 47.0 33.4 47.0 33.4 46.9 33.3 C 46.9 33.3 46.9 33.3 46.9 33.3 Z M 87.5 10.8 C 84.2 10.3 84.9 12.4 85.0 12.4 C 84.2 9.6 82.9 14.5 83.7 14.8 C 83.8 15.2 87.6 19.3 88.5 15.7 C 88.8 15.1 89.5 15.9 89.8 15.8 C 93.1 14.5 87.0 15.0 91.1 13.7 C 92.0 13.8 91.9 16.4 93.8 14.0 C 93.9 14.2 97.0 14.3 95.6 13.5 C 97.2 14.2 97.7 12.6 98.8 12.0 C 100.2 12.4 98.3 14.0 102.0 11.6 C 104.3 13.2 104.1 9.6 106.1 11.4 C 107.2 11.2 107.9 7.2 106.0 9.8 C 106.3 9.5 104.4 8.1 107.8 8.0 C 107.4 8.6 106.4 12.6 111.1 9.9 C 112.0 9.8 113.7 8.5 114.3 8.8 C 111.7 9.7 118.0 9.9 117.3 8.9 C 121.4 9.1 118.9 7.7 121.9 8.6 C 124.3 8.4 121.0 7.0 124.1 7.7 C 126.3 7.3 124.9 8.3 124.6 8.3 C 126.6 8.3 127.2 7.6 127.9 7.6 C 128.4 7.7 129.3 8.4 129.7 7.5 C 131.7 5.6 129.7 4.0 130.6 2.3 C 128.9 1.6 129.9 3.6 128.8 2.4 C 128.1 3.5 128.6 2.3 124.4 2.9 C 124.5 3.2 125.6 3.8 124.6 4.0 C 123.0 4.0 123.8 1.0 121.3 3.4 C 124.6 3.6 117.0 4.8 120.0 5.1 C 116.4 5.9 118.9 5.0 116.1 4.7 C 116.6 6.6 115.6 2.6 114.8 4.4 C 114.5 3.6 110.3 4.7 113.5 5.3 C 109.2 6.6 111.8 5.0 110.0 4.3 C 108.0 4.6 110.5 7.4 108.8 5.3 C 105.9 4.8 108.9 6.5 106.6 5.1 C 107.8 6.5 104.6 5.5 105.8 7.1 C 101.3 8.2 105.9 5.1 103.0 7.1 C 104.0 6.9 103.0 4.6 101.5 6.6 C 103.0 9.2 98.4 4.8 100.7 8.1 C 94.8 10.8 99.2 6.8 95.9 7.8 C 95.0 8.1 97.1 8.7 96.4 9.0 C 91.9 9.7 95.2 7.7 93.5 10.2 C 89.4 12.0 91.8 9.0 89.6 9.6 C 89.8 10.5 88.6 12.5 87.5 10.8 M 91.6 10.4 C 92.3 9.5 92.3 10.8 91.6 10.4 M 82.9 12.5 C 83.5 11.6 83.6 12.9 82.9 12.5 M 94.9 8.8 C 95.9 7.8 95.6 9.6 94.9 8.8 M 118.6 4.6 C 117.0 4.8 119.3 4.0 118.6 4.6 M 86.1 11.2 C 87.1 10.0 86.8 12.0 86.1 11.2 M 85.1 13.1 C 85.2 13.1 85.2 13.1 85.1 13.1 M 120.8 2.8 C 120.9 2.8 120.9 2.8 120.8 2.8 M 114.4 3.6 C 115.7 3.5 113.7 4.1 114.4 3.6 M 115.2 9.9 C 116.5 9.7 114.5 10.4 115.2 9.9 M 124.3 2.3 C 125.6 1.7 124.7 3.0 124.3 2.3 M 127.9 3.4 C 129.1 2.7 128.8 4.0 127.9 3.4 M 91.5 12.7 C 91.5 12.8 91.5 12.8 91.5 12.7 C 91.5 12.7 91.5 12.7 91.5 12.7 Z M 103.0 11.0 C 101.6 10.7 104.9 11.3 103.0 11.0 M 99.9 7.5 C 101.2 8.5 98.1 7.9 99.9 7.5 C 99.9 7.5 99.9 7.5 99.9 7.5 Z M 98.1 8.6 C 98.1 8.7 98.1 8.7 98.1 8.6 C 98.1 8.6 98.1 8.6 98.1 8.6 Z M 104.6 7.1 C 104.5 7.1 104.5 7.1 104.6 7.1 C 104.6 7.1 104.6 7.1 104.6 7.1 Z M 103.3 7.5 C 102.8 7.9 102.4 7.4 103.3 7.5 C 103.3 7.5 103.3 7.5 103.3 7.5 Z M 113.5 9.5 C 113.0 9.9 112.7 9.4 113.5 9.5 C 113.5 9.5 113.5 9.5 113.5 9.5 Z M 101.3 8.4 C 101.5 9.7 100.2 7.8 101.3 8.4 C 101.3 8.4 101.3 8.4 101.3 8.4 Z M 108.9 9.8 C 109.4 9.3 110.3 10.7 108.9 9.8 M 122.1 2.8 C 122.7 2.4 123.5 3.9 122.1 2.8 M 108.1 4.7 C 108.6 4.2 109.6 5.6 108.1 4.7 M 92.1 9.6 C 92.3 9.7 92.3 9.7 92.1 9.6 M 101.1 12.8 C 101.8 12.1 101.7 13.2 101.1 12.8 M 88.7 16.2 C 89.4 15.4 89.3 16.5 88.7 16.2 M 120.9 8.9 C 120.8 8.6 122.3 8.9 120.9 8.9 M 110.1 6.3 C 111.4 6.3 112.8 6.7 110.2 7.1 C 110.0 6.9 110.7 6.5 110.1 6.3 C 110.1 6.3 110.1 6.3 110.1 6.3 Z M 115.0 8.4 C 115.1 8.5 115.1 8.5 115.0 8.4 M 112.1 4.8 C 112.3 4.9 112.3 4.9 112.1 4.8 M 119.2 3.8 C 119.4 4.0 119.4 4.0 119.2 3.8 M 120.1 3.3 C 120.0 3.4 120.0 3.4 120.1 3.3 C 120.1 3.3 120.1 3.3 120.1 3.3 Z M 127.9 2.1 C 127.9 2.1 127.9 2.1 127.9 2.1 C 127.9 2.1 127.9 2.1 127.9 2.1 Z M 117.0 4.3 C 116.9 4.3 116.9 4.3 117.0 4.3 C 117.0 4.3 117.0 4.3 117.0 4.3 Z M 123.9 8.3 C 123.9 8.4 123.9 8.4 123.9 8.3 C 123.9 8.3 123.9 8.3 123.9 8.3 Z M 123.0 7.6 C 123.0 7.7 123.0 7.7 123.0 7.6 C 123.0 7.6 123.0 7.6 123.0 7.6 Z M 88.1 10.6 C 88.9 9.4 89.4 12.5 88.1 10.6 M 126.4 7.3 C 127.5 8.1 124.7 7.7 126.4 7.3 C 126.4 7.3 126.4 7.3 126.4 7.3 Z M 116.3 5.5 C 116.4 5.6 116.4 5.6 116.3 5.5 M 120.5 3.4 C 120.6 3.6 120.6 3.6 120.5 3.4 M 99.6 6.4 C 99.7 6.6 99.7 6.6 99.6 6.4 M 126.1 3.1 C 129.4 3.1 124.7 5.0 126.1 3.1 M 98.4 8.0 C 98.3 7.9 98.3 7.9 98.4 8.0 M 106.3 8.5 C 108.5 7.9 105.7 9.4 106.3 8.5 M 111.6 5.8 C 111.6 5.9 111.6 5.9 111.6 5.8 C 111.6 5.8 111.6 5.8 111.6 5.8 Z M 108.3 6.4 C 106.7 6.9 107.8 6.2 108.3 6.4 C 108.3 6.4 108.3 6.4 108.3 6.4 Z M 90.0 11.2 C 92.1 10.7 88.1 12.3 90.0 11.2 C 90.0 11.2 90.0 11.2 90.0 11.2 Z M 124.8 6.2 C 124.7 6.3 124.7 6.3 124.8 6.2 C 124.8 6.2 124.8 6.2 124.8 6.2 Z M 116.4 3.5 C 115.5 3.9 115.9 3.2 116.4 3.5 C 116.4 3.5 116.4 3.5 116.4 3.5 Z M 129.1 2.0 C 128.1 2.4 128.6 1.6 129.1 2.0 C 129.1 2.0 129.1 2.0 129.1 2.0 Z M 87.5 11.8 C 95.6 11.2 77.6 14.7 87.5 11.8 C 87.5 11.8 87.5 11.8 87.5 11.8 Z M 109.5 5.3 C 109.4 5.4 109.4 5.4 109.5 5.3 C 109.5 5.3 109.5 5.3 109.5 5.3 Z M 95.1 7.9 C 95.1 8.0 95.1 8.0 95.1 7.9 C 95.1 7.9 95.1 7.9 95.1 7.9 Z M 93.1 9.8 C 93.1 9.8 93.1 9.8 93.1 9.8 C 93.1 9.8 93.1 9.8 93.1 9.8 Z M 95.2 14.3 C 95.2 14.4 95.2 14.4 95.2 14.3 C 95.2 14.3 95.2 14.3 95.2 14.3 Z M 95.4 11.9 C 95.3 12.1 95.3 12.1 95.4 11.9 C 95.4 11.9 95.4 11.9 95.4 11.9 Z M 90.9 14.2 C 90.9 14.3 90.9 14.3 90.9 14.2 C 90.9 14.2 90.9 14.2 90.9 14.2 Z M 91.2 14.8 C 91.2 14.8 91.2 14.8 91.2 14.8 C 91.2 14.8 91.2 14.8 91.2 14.8 Z M 120.7 4.8 C 120.6 4.9 120.6 4.9 120.7 4.8 C 120.7 4.8 120.7 4.8 120.7 4.8 Z M 118.3 7.2 C 120.0 6.2 118.0 8.3 118.3 7.2 C 118.3 7.2 118.3 7.2 118.3 7.2 Z M 102.6 9.2 C 104.1 8.6 101.7 10.1 102.6 9.2 C 102.6 9.2 102.6 9.2 102.6 9.2 Z M 104.9 11.4 C 105.0 11.4 105.0 11.4 104.9 11.4 C 104.9 11.4 104.9 11.4 104.9 11.4 Z M 92.8 8.6 C 92.8 8.7 92.8 8.7 92.8 8.6 C 92.8 8.6 92.8 8.6 92.8 8.6 Z M 90.1 10.4 C 90.3 11.4 89.1 10.2 90.1 10.4 M 104.9 5.6 C 104.9 5.7 104.9 5.7 104.9 5.6 C 104.9 5.6 104.9 5.6 104.9 5.6 Z M 114.9 5.3 C 114.9 5.4 114.9 5.4 114.9 5.3 C 114.9 5.3 114.9 5.3 114.9 5.3 Z M 124.3 3.4 C 124.3 3.6 124.3 3.6 124.3 3.4 C 124.3 3.4 124.3 3.4 124.3 3.4 Z M 111.0 4.5 C 111.0 4.6 111.0 4.6 111.0 4.5 C 111.0 4.5 111.0 4.5 111.0 4.5 Z M 106.6 6.3 C 106.6 6.5 106.6 6.5 106.6 6.3 C 106.6 6.3 106.6 6.3 106.6 6.3 Z M 126.6 4.7 C 126.5 4.8 126.5 4.8 126.6 4.7 C 126.6 4.7 126.6 4.7 126.6 4.7 Z M 112.0 4.1 C 112.0 4.2 112.0 4.2 112.0 4.1 C 112.0 4.1 112.0 4.1 112.0 4.1 Z M 115.3 7.0 C 115.3 7.1 115.3 7.1 115.3 7.0 C 115.3 7.0 115.3 7.0 115.3 7.0 Z M 90.1 8.8 C 90.0 8.9 90.0 8.9 90.1 8.8 C 90.1 8.8 90.1 8.8 90.1 8.8 Z M 126.5 3.3 C 126.5 3.4 126.5 3.4 126.5 3.3 C 126.5 3.3 126.5 3.3 126.5 3.3 Z M 127.1 2.4 C 127.0 2.4 127.0 2.4 127.1 2.4 C 127.1 2.4 127.1 2.4 127.1 2.4 Z M 120.8 8.0 C 117.5 7.8 123.8 7.4 121.2 6.6 C 126.0 5.7 121.5 7.9 120.8 8.0 C 120.8 8.0 120.8 8.0 120.8 8.0 Z M 120.8 8.0 " fill="#71AFE1"></path></g></svg>