<?xml version="1.0" encoding="UTF-8" standalone="no"?><svg xmlns="http://www.w3.org/2000/svg" xmlns:xlink="http://www.w3.org/1999/xlink" clip-rule="evenodd" stroke-miterlimit="4.00" viewBox="0 0 714 143"><desc>SVG generated by Keynote</desc><defs></defs><g transform="matrix(1.00, 0.00, -0.00, -1.00, 0.0, 143.0)"><g><clipPath id="clip-776"><path d="M -3.9 -4.2 L 770.1 -4.2 L 770.1 147.3 L -3.9 147.3 Z M -3.9 -4.2 "></path></clipPath><g clip-path="url(#clip-776)"><text xml:space="preserve" font-family="Chalkduster" font-size="30.0" fill="#FEFFFE" transform="matrix(1.00, 0.00, -0.00, -1.00, 6.0, 103.0)">E</text><text xml:space="preserve" font-family="Chalkduster" font-size="30.0" fill="#FEFFFE" transform="matrix(1.00, 0.00, -0.00, -1.00, 28.2, 103.0)">v</text><text xml:space="preserve" font-family="Chalkduster" font-size="30.0" fill="#FEFFFE" transform="matrix(1.00, 0.00, -0.00, -1.00, 45.2, 103.0)">a</text><text xml:space="preserve" font-family="Chalkduster" font-size="30.0" fill="#FEFFFE" transform="matrix(1.00, 0.00, -0.00, -1.00, 64.7, 103.0)">l</text><text xml:space="preserve" font-family="Chalkduster" font-size="30.0" fill="#FEFFFE" transform="matrix(1.00, 0.00, -0.00, -1.00, 78.4, 103.0)">u</text><text xml:space="preserve" font-family="Chalkduster" font-size="30.0" fill="#FEFFFE" transform="matrix(1.00, 0.00, -0.00, -1.00, 99.1, 103.0)">a</text><text xml:space="preserve" font-family="Chalkduster" font-size="30.0" fill="#FEFFFE" transform="matrix(1.00, 0.00, -0.00, -1.00, 117.7, 103.0)">t</text><text xml:space="preserve" font-family="Chalkduster" font-size="30.0" fill="#FEFFFE" transform="matrix(1.00, 0.00, -0.00, -1.00, 131.1, 103.0)">e</text><text xml:space="preserve" font-family="Chalkduster" font-size="30.0" fill="#FEFFFE" transform="matrix(1.00, 0.00, -0.00, -1.00, 150.4, 103.0)">s</text><text xml:space="preserve" font-family="Chalkduster" font-size="30.0" fill="#FEFFFE" transform="matrix(1.00, 0.00, -0.00, -1.00, 165.5, 103.0)"> </text><text xml:space="preserve" font-family="Chalkduster" font-size="30.0" fill="#FEFFFE" transform="matrix(1.00, 0.00, -0.00, -1.00, 180.5, 103.0)">t</text><text xml:space="preserve" font-family="Chalkduster" font-size="30.0" fill="#FEFFFE" transform="matrix(1.00, 0.00, -0.00, -1.00, 192.8, 103.0)">o</text><text xml:space="preserve" font-family="Chalkduster" font-size="30.0" fill="#FEFFFE" transform="matrix(1.00, 0.00, -0.00, -1.00, 214.4, 103.0)"> </text><text xml:space="preserve" font-family="Chalkduster" font-size="30.0" fill="#FEFFFE" transform="matrix(1.00, 0.00, -0.00, -1.00, 229.3, 103.0)">F</text><text xml:space="preserve" font-family="Chalkduster" font-size="30.0" fill="#FEFFFE" transform="matrix(1.00, 0.00, -0.00, -1.00, 249.5, 103.0)">a</text><text xml:space="preserve" font-family="Chalkduster" font-size="30.0" fill="#FEFFFE" transform="matrix(1.00, 0.00, -0.00, -1.00, 268.9, 103.0)">l</text><text xml:space="preserve" font-family="Chalkduster" font-size="30.0" fill="#FEFFFE" transform="matrix(1.00, 0.00, -0.00, -1.00, 283.0, 103.0)">s</text><text xml:space="preserve" font-family="Chalkduster" font-size="30.0" fill="#FEFFFE" transform="matrix(1.00, 0.00, -0.00, -1.00, 298.1, 103.0)">e</text><text xml:space="preserve" font-family="Chalkduster" font-size="30.0" fill="#FEFFFE" transform="matrix(1.00, 0.00, -0.00, -1.00, 316.7, 103.0)">:</text><text xml:space="preserve" font-family="Chalkduster" font-size="30.0" fill="#FEFFFE" transform="matrix(1.00, 0.00, -0.00, -1.00, 326.6, 103.0)"> </text><text xml:space="preserve" font-family="CourierNewPSMT" font-size="30.0" fill="#FEFFFE" transform="matrix(1.00, 0.00, -0.00, -1.00, 6.0, 59.0)">F</text><text xml:space="preserve" font-family="CourierNewPSMT" font-size="30.0" fill="#FEFFFE" transform="matrix(1.00, 0.00, -0.00, -1.00, 24.0, 59.0)">a</text><text xml:space="preserve" font-family="CourierNewPSMT" font-size="30.0" fill="#FEFFFE" transform="matrix(1.00, 0.00, -0.00, -1.00, 42.0, 59.0)">l</text><text xml:space="preserve" font-family="CourierNewPSMT" font-size="30.0" fill="#FEFFFE" transform="matrix(1.00, 0.00, -0.00, -1.00, 60.0, 59.0)">s</text><text xml:space="preserve" font-family="CourierNewPSMT" font-size="30.0" fill="#FEFFFE" transform="matrix(1.00, 0.00, -0.00, -1.00, 78.0, 59.0)">e</text><text xml:space="preserve" font-family="Chalkduster" font-size="30.0" fill="#FEFFFE" transform="matrix(1.00, 0.00, -0.00, -1.00, 96.0, 59.0)">,</text><text xml:space="preserve" font-family="Chalkduster" font-size="30.0" fill="#FEFFFE" transform="matrix(1.00, 0.00, -0.00, -1.00, 105.3, 59.0)"> </text><text xml:space="preserve" font-family="CourierNewPSMT" font-size="30.0" fill="#FEFFFE" transform="matrix(1.00, 0.00, -0.00, -1.00, 120.2, 59.0)">N</text><text xml:space="preserve" font-family="CourierNewPSMT" font-size="30.0" fill="#FEFFFE" transform="matrix(1.00, 0.00, -0.00, -1.00, 138.2, 59.0)">o</text><text xml:space="preserve" font-family="CourierNewPSMT" font-size="30.0" fill="#FEFFFE" transform="matrix(1.00, 0.00, -0.00, -1.00, 156.2, 59.0)">n</text><text xml:space="preserve" font-family="CourierNewPSMT" font-size="30.0" fill="#FEFFFE" transform="matrix(1.00, 0.00, -0.00, -1.00, 174.2, 59.0)">e</text><text xml:space="preserve" font-family="Chalkduster" font-size="30.0" fill="#FEFFFE" transform="matrix(1.00, 0.00, -0.00, -1.00, 192.2, 59.0)">,</text><text xml:space="preserve" font-family="Chalkduster" font-size="30.0" fill="#FEFFFE" transform="matrix(1.00, 0.00, -0.00, -1.00, 201.5, 59.0)"> </text><text xml:space="preserve" font-family="CourierNewPSMT" font-size="30.0" fill="#FEFFFE" transform="matrix(1.00, 0.00, -0.00, -1.00, 216.4, 59.0)">0</text><text xml:space="preserve" font-family="Chalkduster" font-size="30.0" fill="#FEFFFE" transform="matrix(1.00, 0.00, -0.00, -1.00, 234.4, 59.0)">,</text><text xml:space="preserve" font-family="Chalkduster" font-size="30.0" fill="#FEFFFE" transform="matrix(1.00, 0.00, -0.00, -1.00, 243.7, 59.0)"> </text><text xml:space="preserve" font-family="CourierNewPSMT" font-size="30.0" fill="#FEFFFE" transform="matrix(1.00, 0.00, -0.00, -1.00, 258.6, 59.0)">0</text><text xml:space="preserve" font-family="CourierNewPSMT" font-size="30.0" fill="#FEFFFE" transform="matrix(1.00, 0.00, -0.00, -1.00, 276.6, 59.0)">.</text><text xml:space="preserve" font-family="CourierNewPSMT" font-size="30.0" fill="#FEFFFE" transform="matrix(1.00, 0.00, -0.00, -1.00, 294.6, 59.0)">0</text><text xml:space="preserve" font-family="Chalkduster" font-size="30.0" fill="#FEFFFE" transform="matrix(1.00, 0.00, -0.00, -1.00, 312.6, 59.0)">,</text><text xml:space="preserve" font-family="Chalkduster" font-size="30.0" fill="#FEFFFE" transform="matrix(1.00, 0.00, -0.00, -1.00, 321.9, 59.0)"> </text><text xml:space="preserve" font-family="CourierNewPSMT" font-size="30.0" fill="#FEFFFE" transform="matrix(1.00, 0.00, -0.00, -1.00, 336.8, 59.0)">[</text><text xml:space="preserve" font-family="CourierNewPSMT" font-size="30.0" fill="#FEFFFE" transform="matrix(1.00, 0.00, -0.00, -1.00, 354.8, 59.0)">]</text><text xml:space="preserve" font-family="Chalkduster" font-size="30.0" fill="#FEFFFE" transform="matrix(1.00, 0.00, -0.00, -1.00, 372.8, 59.0)"> </text><text xml:space="preserve" font-family="Chalkduster" font-size="30.0" fill="#FEFFFE" transform="matrix(1.00, 0.00, -0.00, -1.00, 6.0, 14.0)">.</text><text xml:space="preserve" font-family="Chalkduster" font-size="30.0" fill="#FEFFFE" transform="matrix(1.00, 0.00, -0.00, -1.00, 13.6, 14.0)">.</text><text xml:space="preserve" font-family="Chalkduster" font-size="30.0" fill="#FEFFFE" transform="matrix(1.00, 0.00, -0.00, -1.00, 21.2, 14.0)">.</text><text xml:space="preserve" font-family="Chalkduster" font-size="30.0" fill="#FEFFFE" transform="matrix(1.00, 0.00, -0.00, -1.00, 29.8, 14.0)"> </text><text xml:space="preserve" font-family="Chalkduster" font-size="30.0" fill="#FEFFFE" transform="matrix(1.00, 0.00, -0.00, -1.00, 44.7, 14.0)">m</text><text xml:space="preserve" font-family="Chalkduster" font-size="30.0" fill="#FEFFFE" transform="matrix(1.00, 0.00, -0.00, -1.00, 75.0, 14.0)">o</text><text xml:space="preserve" font-family="Chalkduster" font-size="30.0" fill="#FEFFFE" transform="matrix(1.00, 0.00, -0.00, -1.00, 96.9, 14.0)">r</text><text xml:space="preserve" font-family="Chalkduster" font-size="30.0" fill="#FEFFFE" transform="matrix(1.00, 0.00, -0.00, -1.00, 112.1, 14.0)">e</text><text xml:space="preserve" font-family="Chalkduster" font-size="30.0" fill="#FEFFFE" transform="matrix(1.00, 0.00, -0.00, -1.00, 130.7, 14.0)"> </text><text xml:space="preserve" font-family="Chalkduster" font-size="30.0" fill="#FEFFFE" transform="matrix(1.00, 0.00, -0.00, -1.00, 145.6, 14.0)">l</text><text xml:space="preserve" font-family="Chalkduster" font-size="30.0" fill="#FEFFFE" transform="matrix(1.00, 0.00, -0.00, -1.00, 159.0, 14.0)">a</text><text xml:space="preserve" font-family="Chalkduster" font-size="30.0" fill="#FEFFFE" transform="matrix(1.00, 0.00, -0.00, -1.00, 177.6, 14.0)">t</text><text xml:space="preserve" font-family="Chalkduster" font-size="30.0" fill="#FEFFFE" transform="matrix(1.00, 0.00, -0.00, -1.00, 191.0, 14.0)">e</text><text xml:space="preserve" font-family="Chalkduster" font-size="30.0" fill="#FEFFFE" transform="matrix(1.00, 0.00, -0.00, -1.00, 209.3, 14.0)">r</text></g></g><g><clipPath id="clip-777"><path d="M 437.5 40.1 L 717.8 40.1 L 717.8 103.0 L 437.5 103.0 Z M 437.5 40.1 "></path></clipPath><g clip-path="url(#clip-777)"><text xml:space="preserve" font-family="Chalkduster" font-size="30.0" fill="#FEFFFE" transform="matrix(1.00, 0.00, -0.00, -1.00, 447.0, 58.0)">O</text><text xml:space="preserve" font-family="Chalkduster" font-size="30.0" fill="#FEFFFE" transform="matrix(1.00, 0.00, -0.00, -1.00, 468.7, 58.0)">t</text><text xml:space="preserve" font-family="Chalkduster" font-size="30.0" fill="#FEFFFE" transform="matrix(1.00, 0.00, -0.00, -1.00, 483.1, 58.0)">h</text><text xml:space="preserve" font-family="Chalkduster" font-size="30.0" fill="#FEFFFE" transform="matrix(1.00, 0.00, -0.00, -1.00, 501.6, 58.0)">e</text><text xml:space="preserve" font-family="Chalkduster" font-size="30.0" fill="#FEFFFE" transform="matrix(1.00, 0.00, -0.00, -1.00, 519.9, 58.0)">r</text><text xml:space="preserve" font-family="Chalkduster" font-size="30.0" fill="#FEFFFE" transform="matrix(1.00, 0.00, -0.00, -1.00, 536.6, 58.0)">w</text><text xml:space="preserve" font-family="Chalkduster" font-size="30.0" fill="#FEFFFE" transform="matrix(1.00, 0.00, -0.00, -1.00, 562.3, 58.0)">i</text><text xml:space="preserve" font-family="Chalkduster" font-size="30.0" fill="#FEFFFE" transform="matrix(1.00, 0.00, -0.00, -1.00, 574.1, 58.0)">s</text><text xml:space="preserve" font-family="Chalkduster" font-size="30.0" fill="#FEFFFE" transform="matrix(1.00, 0.00, -0.00, -1.00, 589.3, 58.0)">e</text><text xml:space="preserve" font-family="Chalkduster" font-size="30.0" fill="#FEFFFE" transform="matrix(1.00, 0.00, -0.00, -1.00, 607.9, 58.0)"> </text><text xml:space="preserve" font-family="Chalkduster" font-size="30.0" fill="#FEFFFE" transform="matrix(1.00, 0.00, -0.00, -1.00, 620.3, 58.0)">T</text><text xml:space="preserve" font-family="Chalkduster" font-size="30.0" fill="#FEFFFE" transform="matrix(1.00, 0.00, -0.00, -1.00, 640.9, 58.0)">r</text><text xml:space="preserve" font-family="Chalkduster" font-size="30.0" fill="#FEFFFE" transform="matrix(1.00, 0.00, -0.00, -1.00, 657.5, 58.0)">u</text><text xml:space="preserve" font-family="Chalkduster" font-size="30.0" fill="#FEFFFE" transform="matrix(1.00, 0.00, -0.00, -1.00, 678.2, 58.0)">e</text><text xml:space="preserve" font-family="Chalkduster" font-size="30.0" fill="#FEFFFE" transform="matrix(1.00, 0.00, -0.00, -1.00, 696.8, 58.0)">!</text></g></g><g><clipPath id="clip-778"><path d="M 398.9 11.8 L 398.9 131.7 L 407.9 131.7 L 407.9 11.8 Z M 398.9 11.8 "></path></clipPath><g clip-path="url(#clip-778)"><path d="M 405.1 28.5 C 405.0 28.2 405.2 27.3 405.0 27.1 M 405.1 28.5 C 406.4 27.6 406.5 26.1 406.8 24.1 C 406.8 21.8 405.6 24.1 405.0 23.9 C 404.5 21.0 405.5 21.0 406.8 21.4 C 405.9 20.3 407.6 16.9 405.8 17.6 C 405.8 22.3 405.4 14.3 404.4 18.3 C 404.2 18.7 403.7 17.5 403.7 17.1 C 403.0 18.4 402.1 16.2 401.6 18.3 C 400.5 18.6 401.0 18.2 400.1 19.5 C 400.0 20.1 400.4 19.8 400.7 19.8 C 401.9 20.0 400.0 21.4 400.8 22.5 C 399.1 23.5 401.0 24.5 401.7 23.6 C 401.5 24.6 399.8 25.8 401.0 26.8 C 400.2 27.4 400.7 30.0 401.8 28.4 C 402.5 27.3 402.9 28.6 403.3 28.7 C 403.7 28.3 403.2 26.7 403.5 26.5 C 403.8 27.0 404.4 29.1 404.3 26.8 C 404.9 27.5 405.2 26.4 405.1 28.5 C 405.1 28.5 405.1 28.5 405.1 28.5 Z M 406.1 20.6 C 406.6 20.6 406.1 21.3 406.1 20.6 C 406.1 20.6 406.1 20.6 406.1 20.6 Z M 400.2 26.0 C 400.6 25.9 400.1 26.7 400.2 26.0 C 400.2 26.0 400.2 26.0 400.2 26.0 Z M 400.6 20.2 C 401.1 20.2 400.6 20.9 400.6 20.2 C 400.6 20.2 400.6 20.2 400.6 20.2 Z M 405.8 22.6 C 405.4 23.9 405.2 21.6 405.6 21.4 C 405.6 21.7 406.2 22.3 405.8 22.6 C 405.8 22.6 405.8 22.6 405.8 22.6 Z M 403.2 22.8 C 403.4 22.9 403.5 23.4 403.0 23.3 C 402.9 23.0 403.1 22.7 403.2 22.8 C 403.2 22.8 403.2 22.8 403.2 22.8 Z M 405.1 16.6 C 405.2 16.7 405.3 17.2 404.8 17.2 C 404.7 16.8 404.9 16.5 405.1 16.6 C 405.1 16.6 405.1 16.6 405.1 16.6 Z M 404.6 24.0 C 404.6 24.3 404.2 24.5 404.1 24.1 C 404.3 23.9 404.4 23.0 404.6 24.0 C 404.6 24.0 404.6 24.0 404.6 24.0 Z M 406.1 26.0 C 405.9 27.0 405.2 24.9 405.4 24.9 C 405.8 24.6 406.5 25.4 406.1 26.0 C 406.1 26.0 406.1 26.0 406.1 26.0 Z M 404.0 24.6 C 403.8 25.5 403.7 24.3 404.0 24.6 C 404.0 24.6 404.0 24.6 404.0 24.6 Z M 401.8 17.5 C 401.6 18.3 401.5 17.1 401.8 17.5 C 401.8 17.5 401.8 17.5 401.8 17.5 Z M 400.4 22.0 C 400.2 22.9 400.1 21.7 400.4 22.0 C 400.4 22.0 400.4 22.0 400.4 22.0 Z M 404.9 20.3 C 405.0 18.8 406.1 20.1 404.9 20.3 C 404.9 20.3 404.9 20.3 404.9 20.3 Z M 406.2 28.4 C 406.3 26.9 407.4 28.2 406.2 28.4 C 406.2 28.4 406.2 28.4 406.2 28.4 Z M 405.8 125.2 C 406.1 126.6 407.5 121.2 405.8 123.2 C 404.3 123.8 404.5 120.2 405.8 121.1 C 406.0 120.0 406.0 120.0 405.4 119.4 C 406.4 119.3 407.0 116.7 406.4 115.8 C 405.5 115.3 406.3 117.5 405.3 116.1 C 405.1 112.9 404.3 116.3 403.1 115.1 C 403.1 114.9 403.7 114.9 403.4 114.6 C 402.3 114.5 401.5 116.3 400.7 115.5 C 400.9 116.0 399.6 118.3 400.6 117.3 C 401.7 117.0 399.4 119.8 401.1 119.6 C 400.3 120.4 401.4 121.1 400.4 121.9 C 400.2 122.4 401.1 122.4 401.3 122.3 C 402.1 122.3 399.5 123.0 401.0 123.9 C 400.5 124.0 400.7 126.6 401.3 124.7 C 401.2 125.2 400.8 128.1 402.4 126.6 C 403.1 124.6 404.0 128.7 404.0 126.3 C 404.2 124.5 403.9 124.1 404.7 125.5 C 404.6 125.9 404.8 128.0 405.5 126.2 C 405.3 125.8 405.4 124.9 405.8 125.2 C 405.8 125.2 405.8 125.2 405.8 125.2 Z M 403.6 125.6 C 403.5 124.5 404.1 125.5 403.6 125.6 C 403.6 125.6 403.6 125.6 403.6 125.6 Z M 400.1 121.7 C 400.0 120.7 400.6 121.6 400.1 121.7 C 400.1 121.7 400.1 121.7 400.1 121.7 Z M 406.2 121.9 C 405.7 121.3 407.4 121.2 406.2 121.9 C 406.2 121.9 406.2 121.9 406.2 121.9 Z M 401.3 123.5 C 401.3 123.4 401.5 123.7 401.6 123.9 C 401.6 123.8 401.4 123.6 401.3 123.5 C 401.3 123.5 401.3 123.5 401.3 123.5 Z M 406.2 120.1 C 405.4 118.5 407.5 119.7 406.2 120.1 C 406.2 120.1 406.2 120.1 406.2 120.1 Z M 404.7 116.8 C 403.1 116.7 405.0 115.2 404.7 116.8 C 404.7 116.8 404.7 116.8 404.7 116.8 Z M 401.2 119.1 C 401.5 119.4 401.0 119.4 401.2 119.1 C 401.2 119.1 401.2 119.1 401.2 119.1 Z M 401.0 126.0 C 401.3 126.3 400.8 126.3 401.0 126.0 C 401.0 126.0 401.0 126.0 401.0 126.0 Z M 401.3 117.1 C 401.9 117.2 401.0 117.7 401.3 117.1 C 401.3 117.1 401.3 117.1 401.3 117.1 Z M 405.6 121.6 C 406.8 123.0 403.7 123.3 405.6 121.6 C 405.6 121.6 405.6 121.6 405.6 121.6 Z M 405.7 124.2 C 406.0 125.2 404.9 124.0 405.1 123.6 C 405.2 123.6 405.6 124.0 405.7 124.2 C 405.7 124.2 405.7 124.2 405.7 124.2 Z M 405.4 120.0 C 406.1 121.0 405.1 121.0 405.4 120.0 C 405.4 120.0 405.4 120.0 405.4 120.0 Z M 406.1 122.6 C 406.0 123.1 406.0 122.1 406.1 122.6 C 406.1 122.6 406.1 122.6 406.1 122.6 Z M 406.8 118.1 C 406.6 118.5 406.6 117.6 406.8 118.1 C 406.8 118.1 406.8 118.1 406.8 118.1 Z M 406.4 125.4 C 406.2 125.9 406.2 125.0 406.4 125.4 C 406.4 125.4 406.4 125.4 406.4 125.4 Z M 405.9 118.5 C 405.3 118.3 404.1 119.7 405.2 117.2 C 405.6 116.8 406.4 117.8 405.9 118.5 C 405.9 118.5 405.9 118.5 405.9 118.5 Z M 405.1 32.6 C 406.9 26.6 403.8 28.1 403.2 27.8 C 402.3 27.0 401.8 27.8 401.2 29.0 C 399.2 30.2 403.2 30.9 401.3 31.7 C 398.6 33.3 403.6 33.6 400.8 34.2 C 400.1 34.0 400.6 36.3 400.8 36.1 C 399.5 37.3 401.9 38.9 402.1 38.9 C 401.7 39.7 399.3 39.8 401.1 42.2 C 401.8 44.0 399.3 44.8 401.0 44.3 C 399.1 45.7 401.6 45.3 400.9 46.6 C 399.9 47.6 402.6 46.7 400.5 48.4 C 402.1 49.1 399.5 47.6 400.6 52.2 C 400.8 50.0 401.9 54.3 400.8 53.4 C 399.7 51.9 401.2 55.6 400.6 57.7 C 401.1 58.3 402.6 60.7 401.0 60.3 C 399.2 62.5 402.1 62.5 400.6 63.4 C 400.0 64.2 401.3 64.4 401.2 64.9 C 400.1 65.7 400.9 66.4 400.5 69.0 C 400.0 74.9 403.5 69.9 403.8 72.2 C 404.4 72.5 408.1 69.3 405.3 70.6 C 406.1 70.1 403.2 65.4 406.3 67.7 C 405.0 65.9 407.5 68.1 406.1 64.5 C 403.9 69.5 405.2 58.7 406.2 63.6 C 406.9 62.8 406.8 60.8 406.2 62.2 C 404.3 62.8 407.1 58.8 404.7 60.8 C 405.4 57.7 403.2 58.5 404.7 57.6 C 407.3 56.9 404.1 57.8 404.8 56.2 C 404.9 52.6 407.8 55.4 405.9 53.2 C 407.1 49.6 404.7 52.4 404.4 51.2 C 402.6 50.8 405.8 47.5 406.0 50.2 C 405.1 48.8 406.9 50.0 405.7 48.4 C 404.1 49.6 407.5 46.2 406.2 46.7 C 405.7 45.3 404.8 46.0 404.7 45.6 C 404.7 43.4 406.3 44.1 405.1 43.6 C 404.4 43.1 406.6 42.1 406.1 41.8 C 406.0 44.1 404.3 40.0 405.2 39.7 C 405.3 41.1 407.4 39.0 406.1 38.2 C 402.4 39.3 407.0 36.2 405.7 35.2 C 403.7 36.2 405.5 30.3 406.4 32.5 C 406.2 32.4 405.1 32.6 405.1 32.6 M 405.8 41.2 C 405.6 43.0 405.4 39.2 405.8 41.2 M 406.3 41.1 C 405.6 41.9 406.8 39.4 406.5 41.2 C 406.5 41.2 406.3 41.0 406.3 41.1 M 406.4 48.7 C 405.8 48.5 406.7 47.7 406.4 48.7 M 405.1 50.2 C 404.6 51.4 405.0 48.5 405.1 50.2 M 405.5 67.0 C 402.5 65.3 407.2 65.2 405.5 67.0 M 406.1 55.9 C 405.7 53.8 407.4 56.6 406.1 55.9 M 405.4 55.2 C 404.9 54.3 406.1 55.0 405.4 55.2 M 405.5 63.8 C 405.5 63.9 405.5 63.9 405.5 63.8 C 405.5 63.8 405.5 63.8 405.5 63.8 Z M 405.4 68.8 C 405.5 68.8 405.5 68.8 405.4 68.8 C 405.4 68.8 405.4 68.8 405.4 68.8 Z M 405.2 58.9 C 405.9 57.4 405.5 61.5 405.2 58.9 C 405.2 58.9 405.2 58.9 405.2 58.9 Z M 400.9 66.4 C 400.8 66.3 400.8 66.3 400.9 66.4 C 400.9 66.4 400.9 66.4 400.9 66.4 Z M 404.4 39.7 C 404.4 39.7 404.4 39.7 404.4 39.7 C 404.4 39.7 404.4 39.7 404.4 39.7 Z M 405.5 34.1 C 405.1 34.1 405.8 33.0 405.5 34.1 C 405.5 34.1 405.5 34.1 405.5 34.1 Z M 402.1 29.5 C 402.1 29.4 402.1 29.4 402.1 29.5 C 402.1 29.5 402.1 29.5 402.1 29.5 Z M 402.8 37.8 C 402.8 37.8 402.8 37.8 402.8 37.8 C 402.8 37.8 402.8 37.8 402.8 37.8 Z M 405.0 38.6 C 406.7 37.7 404.6 40.8 405.0 38.6 C 405.0 38.6 405.0 38.6 405.0 38.6 Z M 401.1 57.0 C 401.8 57.1 400.8 58.4 401.1 57.0 C 401.1 57.0 401.1 57.0 401.1 57.0 Z M 404.5 50.4 C 404.8 50.6 404.3 51.2 404.5 50.4 C 404.5 50.4 404.5 50.4 404.5 50.4 Z M 406.7 47.3 C 407.1 47.5 406.5 48.1 406.7 47.3 C 406.7 47.3 406.7 47.3 406.7 47.3 Z M 406.0 34.2 C 406.1 34.3 406.1 34.3 406.0 34.2 C 406.0 34.2 406.0 34.2 406.0 34.2 Z M 404.7 36.2 C 406.3 34.8 403.9 38.4 404.7 36.2 C 404.7 36.2 404.7 36.2 404.7 36.2 Z M 404.3 33.8 C 403.7 34.5 404.6 32.0 404.3 33.8 M 401.9 35.2 C 402.6 36.9 399.1 33.6 401.9 35.2 C 401.9 35.2 401.9 35.2 401.9 35.2 Z M 401.3 43.9 C 401.2 44.0 401.2 44.0 401.3 43.9 C 401.3 43.9 401.3 43.9 401.3 43.9 Z M 405.8 43.0 C 405.8 44.5 405.5 42.0 405.8 43.0 C 405.8 43.0 405.8 43.0 405.8 43.0 Z M 406.2 29.8 C 406.1 31.3 405.8 28.8 406.2 29.8 C 406.2 29.8 406.2 29.8 406.2 29.8 Z M 402.8 49.0 C 403.1 51.4 402.0 47.4 402.8 49.0 C 402.8 49.0 402.8 49.0 402.8 49.0 Z M 404.6 58.1 C 404.6 58.2 404.6 58.2 404.6 58.1 C 404.6 58.1 404.6 58.1 404.6 58.1 Z M 405.2 59.8 C 405.2 59.8 405.2 59.8 405.2 59.8 C 405.2 59.8 405.2 59.8 405.2 59.8 Z M 403.7 66.8 C 403.6 66.9 403.6 66.9 403.7 66.8 C 403.7 66.8 403.7 66.8 403.7 66.8 Z M 406.0 61.3 C 406.0 61.4 406.0 61.4 406.0 61.3 C 406.0 61.3 406.0 61.3 406.0 61.3 Z M 405.6 66.2 C 405.5 66.3 405.5 66.3 405.6 66.2 C 405.6 66.2 405.6 66.2 405.6 66.2 Z M 406.9 65.5 C 406.9 65.6 406.9 65.6 406.9 65.5 C 406.9 65.5 406.9 65.5 406.9 65.5 Z M 400.2 54.6 C 400.1 54.8 400.1 54.8 400.2 54.6 C 400.2 54.6 400.2 54.6 400.2 54.6 Z M 406.5 36.8 C 406.4 37.0 406.4 37.0 406.5 36.8 C 406.5 36.8 406.5 36.8 406.5 36.8 Z M 405.0 65.8 C 404.9 65.9 404.9 65.9 405.0 65.8 C 405.0 65.8 405.0 65.8 405.0 65.8 Z M 403.8 53.9 C 402.4 53.9 405.5 52.9 403.8 54.2 C 403.8 54.1 404.0 53.8 403.8 53.9 M 401.6 55.5 C 401.5 55.4 401.5 55.4 401.6 55.5 C 401.6 55.5 401.6 55.5 401.6 55.5 Z M 400.8 50.1 C 400.7 50.0 400.7 50.0 400.8 50.1 C 400.8 50.1 400.8 50.1 400.8 50.1 Z M 406.2 60.5 C 407.0 60.2 405.7 61.8 406.2 60.3 M 401.3 66.9 C 402.1 66.7 400.8 68.2 401.3 66.7 M 405.7 28.1 C 405.1 27.9 406.0 27.1 405.7 28.1 M 400.1 48.9 C 399.5 48.7 400.4 47.8 400.1 48.9 M 401.7 51.4 C 402.5 51.2 401.2 52.7 401.7 51.2 M 401.4 63.2 C 401.4 63.2 401.4 63.2 401.4 63.2 C 401.4 63.2 401.4 63.2 401.4 63.2 Z M 405.7 45.3 C 405.7 45.4 405.7 45.4 405.7 45.3 C 405.7 45.3 405.7 45.3 405.7 45.3 Z M 404.1 51.9 C 405.1 51.0 403.5 53.1 404.1 51.9 M 403.9 43.4 C 405.2 42.1 403.5 45.4 403.9 43.4 M 401.0 69.7 C 402.5 68.2 400.2 70.8 401.0 69.7 M 404.8 62.4 C 406.3 61.0 404.0 63.5 404.8 62.4 M 405.0 46.6 C 405.8 46.5 404.6 48.1 405.0 46.6 M 405.8 31.5 C 405.9 30.1 406.4 33.4 405.8 31.5 M 401.3 59.6 C 401.3 59.7 401.3 59.7 401.3 59.6 C 401.3 59.6 401.3 59.6 401.3 59.6 Z M 400.0 36.1 C 400.0 36.2 400.0 36.2 400.0 36.1 C 400.0 36.1 400.0 36.1 400.0 36.1 Z M 406.0 71.6 C 405.9 71.6 405.9 71.6 406.0 71.6 C 406.0 71.6 406.0 71.6 406.0 71.6 Z M 404.1 61.5 C 404.0 61.6 404.0 61.6 404.1 61.5 C 404.1 61.5 404.1 61.5 404.1 61.5 Z M 406.2 68.8 C 406.1 68.8 406.1 68.8 406.2 68.8 C 406.2 68.8 406.2 68.8 406.2 68.8 Z M 402.9 57.0 C 402.9 57.0 402.9 57.0 402.9 57.0 C 402.9 57.0 402.9 57.0 402.9 57.0 Z M 406.8 56.0 C 406.8 56.1 406.8 56.1 406.8 56.0 C 406.8 56.0 406.8 56.0 406.8 56.0 Z M 405.2 51.0 C 405.1 51.1 405.1 51.1 405.2 51.0 C 405.2 51.0 405.2 51.0 405.2 51.0 Z M 406.5 58.3 C 406.7 61.3 405.2 56.8 406.5 58.3 C 406.5 58.3 406.5 58.3 406.5 58.3 Z M 402.7 53.2 C 402.6 53.2 402.6 53.2 402.7 53.2 C 402.7 53.2 402.7 53.2 402.7 53.2 Z M 405.4 52.7 C 406.5 54.6 403.5 53.7 405.4 52.7 M 406.3 44.4 C 406.9 45.0 405.4 44.7 406.3 44.4 M 401.2 41.1 C 401.2 41.1 401.2 41.1 401.2 41.1 C 401.2 41.1 401.2 41.1 401.2 41.1 Z M 401.6 42.0 C 401.6 42.1 401.6 42.1 401.6 42.0 C 401.6 42.0 401.6 42.0 401.6 42.0 Z M 406.5 42.4 C 406.5 42.4 406.5 42.4 406.5 42.4 C 406.5 42.4 406.5 42.4 406.5 42.4 Z M 400.2 42.1 C 400.1 42.2 400.1 42.2 400.2 42.1 C 400.2 42.1 400.2 42.1 400.2 42.1 Z M 406.7 54.9 C 406.7 54.9 406.7 54.9 406.7 54.9 C 406.7 54.9 406.7 54.9 406.7 54.9 Z M 406.7 70.2 C 406.7 70.3 406.7 70.3 406.7 70.2 C 406.7 70.2 406.7 70.2 406.7 70.2 Z M 401.8 32.0 C 401.7 32.0 401.7 32.0 401.8 32.0 C 401.8 32.0 401.8 32.0 401.8 32.0 Z M 405.2 56.5 C 405.1 56.5 405.1 56.5 405.2 56.5 C 405.2 56.5 405.2 56.5 405.2 56.5 Z M 401.5 38.9 C 401.4 39.0 401.4 39.0 401.5 38.9 C 401.5 38.9 401.5 38.9 401.5 38.9 Z M 405.5 55.5 C 405.5 55.5 405.5 55.5 405.5 55.5 C 405.5 55.5 405.5 55.5 405.5 55.5 Z M 401.0 59.1 C 401.0 59.2 401.0 59.2 401.0 59.1 C 401.0 59.1 401.0 59.1 401.0 59.1 Z M 400.2 62.4 C 400.1 62.4 400.1 62.4 400.2 62.4 C 400.2 62.4 400.2 62.4 400.2 62.4 Z M 403.7 58.9 C 403.7 58.9 403.7 58.9 403.7 58.9 C 403.7 58.9 403.7 58.9 403.7 58.9 Z M 403.1 37.9 C 404.4 31.8 403.7 42.6 403.1 37.9 M 403.4 59.9 C 403.7 55.7 404.9 63.3 403.4 59.9 C 403.8 60.4 403.4 60.0 403.4 59.9 M 406.6 73.1 C 405.2 71.3 403.8 71.3 402.4 72.1 C 401.7 72.9 404.5 72.9 402.1 73.0 C 401.6 71.0 398.5 73.8 401.6 73.8 C 402.0 76.4 399.6 74.2 400.8 75.7 C 401.1 78.5 400.2 77.1 400.4 79.2 C 402.1 80.5 399.6 80.5 401.2 81.0 C 399.4 80.0 401.7 83.3 400.9 83.4 C 399.8 81.4 400.9 90.8 401.4 85.7 C 402.2 87.8 400.7 87.4 400.5 88.1 C 401.6 89.0 399.7 91.5 400.7 92.8 C 401.0 92.5 401.0 91.9 401.4 91.7 C 402.0 91.4 401.2 93.2 401.3 93.0 C 401.7 93.8 402.7 97.2 400.9 93.6 C 400.0 93.4 401.3 96.5 400.5 96.4 C 400.5 99.5 402.2 97.2 400.9 98.6 C 400.9 100.8 400.9 102.4 401.1 102.4 C 400.9 103.7 399.9 104.0 400.9 105.2 C 399.0 107.9 404.4 107.1 400.8 108.1 C 401.7 108.9 399.3 109.7 401.5 109.6 C 400.5 108.6 399.8 114.2 401.4 111.8 C 402.0 112.4 399.1 115.9 401.4 115.4 C 403.1 116.7 404.7 116.4 406.3 113.7 C 405.0 114.0 407.6 110.8 405.4 112.9 C 404.7 115.2 404.6 108.6 405.4 110.0 C 408.0 110.3 403.8 106.8 405.7 105.4 C 404.6 106.5 404.1 101.1 406.0 102.7 C 406.2 101.7 405.3 101.5 406.4 100.4 C 406.2 103.6 404.4 99.1 405.6 99.3 C 406.3 99.9 406.9 95.0 405.8 95.5 C 403.1 97.2 406.4 94.3 405.3 93.4 C 404.7 90.8 407.6 93.9 405.6 91.9 C 405.9 91.4 406.0 87.8 406.5 90.1 C 406.2 90.9 403.5 87.9 405.9 87.6 C 407.2 91.4 406.6 83.2 405.8 84.5 C 404.6 90.3 404.4 78.3 405.7 82.9 C 406.9 80.3 406.2 83.7 405.6 80.4 C 404.9 80.9 404.2 78.4 405.7 79.0 C 407.9 78.4 402.7 78.1 405.7 76.1 C 407.0 75.8 404.8 72.2 406.2 73.6 C 406.4 73.7 406.6 73.2 406.6 73.1 M 406.4 74.2 C 405.9 73.8 407.0 73.5 406.4 74.2 M 405.9 73.8 C 405.9 73.7 405.9 73.7 405.9 73.8 C 405.9 73.8 405.9 73.8 405.9 73.8 Z M 405.5 80.0 C 405.6 79.9 405.6 79.9 405.5 80.0 C 405.5 80.0 405.5 80.0 405.5 80.0 Z M 400.0 84.9 C 400.1 84.8 400.1 84.8 400.0 84.9 C 400.0 84.9 400.0 84.9 400.0 84.9 Z M 405.4 84.1 C 405.4 84.1 405.4 84.1 405.4 84.1 C 405.4 84.1 405.4 84.1 405.4 84.1 Z M 405.2 77.8 C 405.2 77.7 405.2 77.7 405.2 77.8 C 405.2 77.8 405.2 77.8 405.2 77.8 Z M 406.2 83.7 C 405.4 84.0 406.8 82.3 406.4 83.8 C 406.3 83.9 406.3 83.6 406.2 83.7 M 406.6 89.1 C 406.5 89.2 406.5 89.2 406.6 89.1 M 400.1 101.1 C 400.0 101.1 400.0 101.1 400.1 101.1 M 406.6 102.0 C 406.5 102.2 406.5 102.2 406.6 102.0 M 405.7 94.5 C 405.8 96.2 405.3 94.9 405.7 94.5 M 406.1 106.4 C 406.7 104.3 406.6 108.6 406.1 106.4 M 406.6 108.4 C 406.6 108.6 406.6 108.6 406.6 108.4 M 406.3 99.0 C 406.3 99.0 406.3 99.0 406.3 99.0 C 406.3 99.0 406.3 99.0 406.3 99.0 Z M 406.1 93.8 C 406.5 91.7 406.8 96.0 406.1 93.8 M 406.3 80.7 C 406.7 81.9 405.3 80.7 406.3 80.7 M 405.9 78.3 C 405.8 78.2 405.8 78.2 405.9 78.3 C 405.9 78.3 405.9 78.3 405.9 78.3 Z M 406.2 103.1 C 406.2 103.0 406.2 103.0 406.2 103.1 C 406.2 103.1 406.2 103.1 406.2 103.1 Z M 406.3 105.5 C 406.3 105.4 406.3 105.4 406.3 105.5 C 406.3 105.5 406.3 105.5 406.3 105.5 Z M 400.3 109.4 C 400.2 109.4 400.2 109.4 400.3 109.4 C 400.3 109.4 400.3 109.4 400.3 109.4 Z M 403.3 80.1 C 403.8 78.5 405.3 81.7 403.9 81.4 C 403.2 81.6 403.5 80.3 403.3 80.1 M 404.2 92.2 C 402.1 92.7 407.0 90.7 404.2 92.2 M 405.3 108.7 C 402.8 110.3 407.0 106.7 405.3 108.7 M 405.7 112.0 C 405.2 112.9 405.4 105.9 406.1 110.8 C 406.5 111.3 406.0 111.6 405.7 112.0 M 405.6 89.2 C 404.4 89.7 406.1 86.6 405.6 89.2 M 402.1 99.2 C 402.9 99.9 403.5 102.0 402.2 101.1 C 400.6 101.1 401.5 98.2 402.1 99.2 M 405.2 74.7 C 407.0 76.0 403.6 74.7 405.2 74.7 M 405.0 81.0 C 405.1 81.0 405.1 81.0 405.0 81.0 C 405.0 81.0 405.0 81.0 405.0 81.0 Z M 405.3 83.5 C 405.2 83.6 405.2 83.6 405.3 83.5 M 406.8 75.7 C 406.7 75.8 406.7 75.8 406.8 75.7 M 404.0 99.1 C 403.9 99.2 403.9 99.2 404.0 99.1 M 405.2 94.0 C 403.4 96.4 404.9 92.7 405.2 94.0 M 401.7 88.1 C 400.9 88.8 401.7 86.6 401.7 88.1 M 405.9 98.0 C 404.2 99.7 404.3 95.7 405.9 98.0 M 405.4 92.8 C 405.4 93.0 405.4 93.0 405.4 92.8 C 405.4 92.8 405.4 92.8 405.4 92.8 Z M 401.9 99.8 C 401.9 99.7 401.9 99.7 401.9 99.8 C 401.9 99.8 401.9 99.8 401.9 99.8 Z M 402.0 100.5 C 402.0 100.5 402.0 100.5 402.0 100.5 C 402.0 100.5 402.0 100.5 402.0 100.5 Z M 406.1 100.1 C 406.1 100.1 406.1 100.1 406.1 100.1 C 406.1 100.1 406.1 100.1 406.1 100.1 Z M 401.1 78.1 C 401.0 79.8 400.9 76.7 401.1 78.1 C 401.1 78.1 401.1 78.1 401.1 78.1 Z M 406.2 85.7 C 404.8 88.5 404.9 83.7 406.2 85.7 C 406.2 85.7 406.2 85.7 406.2 85.7 Z M 404.0 88.9 C 403.9 88.9 403.9 88.9 404.0 88.9 C 404.0 88.9 404.0 88.9 404.0 88.9 Z M 407.0 96.9 C 406.9 96.9 406.9 96.9 407.0 96.9 C 407.0 96.9 407.0 96.9 407.0 96.9 Z M 400.9 78.9 C 400.8 78.9 400.8 78.9 400.9 78.9 C 400.9 78.9 400.9 78.9 400.9 78.9 Z M 405.2 105.0 C 405.1 105.0 405.1 105.0 405.2 105.0 C 405.2 105.0 405.2 105.0 405.2 105.0 Z M 401.7 95.1 C 402.3 95.8 401.1 95.3 401.7 95.1 C 401.7 95.1 401.7 95.1 401.7 95.1 Z M 401.6 97.7 C 401.7 97.8 401.7 97.8 401.6 97.7 C 401.6 97.7 401.6 97.7 401.6 97.7 Z M 406.8 109.1 C 406.8 109.1 406.8 109.1 406.8 109.1 C 406.8 109.1 406.8 109.1 406.8 109.1 Z M 400.0 104.2 C 400.0 104.3 400.0 104.3 400.0 104.2 C 400.0 104.2 400.0 104.2 400.0 104.2 Z M 402.0 106.4 C 402.0 106.4 402.0 106.4 402.0 106.4 C 402.0 106.4 402.0 106.4 402.0 106.4 Z M 405.7 99.7 C 406.0 102.2 404.9 99.1 405.7 99.7 C 405.7 99.7 405.7 99.7 405.7 99.7 Z M 402.6 112.7 C 402.5 112.8 402.5 112.8 402.6 112.7 C 402.6 112.7 402.6 112.7 402.6 112.7 Z M 405.0 114.0 C 404.8 114.1 404.8 114.1 405.0 114.0 C 405.0 114.0 405.0 114.0 405.0 114.0 Z M 406.2 114.7 C 406.1 114.8 406.1 114.8 406.2 114.7 C 406.2 114.7 406.2 114.7 406.2 114.7 Z M 402.8 83.4 C 402.9 83.4 402.9 83.4 402.8 83.4 C 402.8 83.4 402.8 83.4 402.8 83.4 Z M 406.6 82.4 C 406.7 82.4 406.7 82.4 406.6 82.4 C 406.6 82.4 406.6 82.4 406.6 82.4 Z M 406.8 85.9 C 406.8 85.9 406.8 85.9 406.8 85.9 C 406.8 85.9 406.8 85.9 406.8 85.9 Z M 400.5 82.8 C 400.5 82.8 400.5 82.8 400.5 82.8 C 400.5 82.8 400.5 82.8 400.5 82.8 Z M 403.7 95.8 C 403.8 95.8 403.8 95.8 403.7 95.8 C 403.7 95.8 403.7 95.8 403.7 95.8 Z M 402.2 97.1 C 402.3 97.0 402.3 97.0 402.2 97.1 C 402.2 97.1 402.2 97.1 402.2 97.1 Z M 400.1 94.1 C 400.2 94.0 400.2 94.0 400.1 94.1 C 400.1 94.1 400.1 94.1 400.1 94.1 Z M 400.8 98.0 C 400.9 98.0 400.9 98.0 400.8 98.0 C 400.8 98.0 400.8 98.0 400.8 98.0 Z M 401.2 74.1 C 401.2 74.1 401.2 74.1 401.2 74.1 C 401.2 74.1 401.2 74.1 401.2 74.1 Z M 404.1 73.8 C 404.0 73.8 404.0 73.8 404.1 73.8 C 404.1 73.8 404.1 73.8 404.1 73.8 Z M 405.9 96.2 C 406.5 96.8 405.0 97.4 405.9 96.2 M 405.5 91.3 C 405.4 91.2 405.4 91.2 405.5 91.3 C 405.5 91.3 405.5 91.3 405.5 91.3 Z M 405.8 104.6 C 404.6 105.2 406.4 102.3 405.8 104.6 C 405.8 104.6 405.8 104.6 405.8 104.6 Z M 400.9 102.0 C 400.8 102.0 400.8 102.0 400.9 102.0 C 400.9 102.0 400.9 102.0 400.9 102.0 Z M 401.3 103.3 C 401.2 103.4 401.2 103.4 401.3 103.3 C 401.3 103.3 401.3 103.3 401.3 103.3 Z M 404.5 110.4 C 404.4 110.6 404.4 110.6 404.5 110.4 M 406.5 90.6 C 406.0 91.4 406.1 91.2 406.5 90.6 M 405.7 106.3 C 405.7 106.2 405.7 106.2 405.7 106.3 C 405.7 106.3 405.7 106.3 405.7 106.3 Z M 405.2 112.0 C 405.1 112.0 405.1 112.0 405.2 112.0 C 405.2 112.0 405.2 112.0 405.2 112.0 Z M 405.7 87.1 C 404.3 87.3 404.7 86.6 405.7 87.1 M 405.3 77.2 C 405.2 77.3 405.2 77.3 405.3 77.2 C 405.3 77.2 405.3 77.2 405.3 77.2 Z M 405.3 77.2 " fill="#FEFFFE"></path></g></g></g></svg>