<?xml version="1.0" encoding="UTF-8" standalone="no"?><svg xmlns="http://www.w3.org/2000/svg" xmlns:xlink="http://www.w3.org/1999/xlink" clip-rule="evenodd" stroke-miterlimit="4.00" viewBox="0 0 1024 768"><desc>SVG generated by Keynote</desc><defs></defs><g transform="matrix(1.00, 0.00, -0.00, -1.00, 0.0, 768.0)"><g><clipPath id="clip-7"><path d="M 0.0 768.0 L 1024.0 768.0 L 1024.0 0.0 L 0.0 0.0 Z M 0.0 768.0 "></path></clipPath><g clip-path="url(#clip-7)"><image xlink:href="../../86BB661C-AAFE-46F2-89B5-B98D6D644DD8/assets/DE78B55DDE70D88C6FF874E8D33A46A3.jpeg" width="1024.00" height="768.00" transform="matrix(1.00, 0.00, -0.00, -1.00, 0.0, 768.0)"></image></g></g><image xlink:href="../../86BB661C-AAFE-46F2-89B5-B98D6D644DD8/assets/610DE41026624E3AEF638D24E71EF355.png" width="74.00" height="62.00" transform="matrix(1.00, 0.00, -0.00, -1.00, 949.0, 64.0)"></image><image xlink:href="../../86BB661C-AAFE-46F2-89B5-B98D6D644DD8/assets/C79B4846A618BF06956E5E1178655E37.png" width="40.00" height="40.00" transform="matrix(1.00, 0.00, -0.00, -1.01, 966.2, 53.0)" opacity="0.50"></image><g><clipPath id="clip-8"><path d="M 996.7 43.5 C 1002.5 37.6 1002.5 28.0 996.7 22.0 C 990.9 16.1 981.4 16.1 975.6 22.0 C 969.7 28.0 969.7 37.6 975.6 43.5 C 981.4 49.5 990.9 49.5 996.7 43.5 Z M 996.7 43.5 "></path></clipPath><g clip-path="url(#clip-8)"><image xlink:href="../../86BB661C-AAFE-46F2-89B5-B98D6D644DD8/assets/DE78B55DDE70D88C6FF874E8D33A46A3.jpeg" width="1024.00" height="768.00" transform="matrix(0.04, 0.00, -0.00, -0.04, 965.9, 48.0)"></image></g></g><text xml:space="preserve" font-family="HoboStd" font-size="18.0" fill="#E5CC77" transform="matrix(1.00, 0.00, -0.00, -1.00, 981.0, 26.0)">3</text><path d="M 628.9 420.1 C 693.5 400.2 693.5 367.8 628.9 347.9 C 564.4 327.9 459.6 327.9 395.1 347.9 C 330.5 367.8 330.5 400.2 395.1 420.1 C 459.6 440.1 564.4 440.1 628.9 420.1 Z M 628.9 420.1 " fill="#A8E685"></path><path d="M 425.1 336.6 C 424.6 336.7 424.0 336.8 423.2 337.0 C 423.5 337.0 423.9 337.0 423.8 337.1 C 424.6 336.9 425.5 336.7 427.1 336.4 C 427.0 336.4 426.2 336.5 425.7 336.6 C 425.1 336.7 425.2 336.6 425.1 336.6 C 425.1 336.6 425.1 336.6 425.1 336.6 Z M 418.0 429.5 C 416.7 429.2 418.1 429.7 418.6 429.8 C 418.6 429.8 418.7 429.8 419.2 429.9 C 419.3 430.1 418.2 429.9 417.3 429.8 C 413.9 429.0 416.5 429.1 418.0 429.5 C 418.0 429.5 418.0 429.5 418.0 429.5 Z M 602.6 430.0 C 605.3 429.5 602.3 429.8 601.9 429.8 C 603.2 429.5 602.0 429.3 603.7 429.0 C 604.0 429.0 604.6 429.0 605.0 429.0 C 604.2 429.2 603.2 429.4 603.1 429.5 C 604.1 429.3 605.4 429.0 605.6 429.0 C 603.5 429.6 605.3 429.4 605.7 429.4 C 603.8 429.8 603.2 430.1 602.6 430.0 C 602.6 430.0 602.6 430.0 602.6 430.0 Z M 644.2 350.4 C 645.3 350.9 646.2 351.2 645.9 351.3 C 644.8 350.8 644.0 350.5 643.4 350.1 C 643.2 350.2 643.5 350.4 642.4 350.0 C 641.3 349.4 642.0 349.3 642.7 349.4 C 642.7 349.7 646.6 351.1 644.2 350.4 C 644.2 350.4 644.2 350.4 644.2 350.4 Z M 568.4 333.6 C 565.8 333.2 568.2 334.0 565.6 333.6 C 565.7 333.4 565.3 333.1 567.1 333.3 C 567.2 333.4 568.2 333.5 568.4 333.6 C 568.4 333.6 568.4 333.6 568.4 333.6 Z M 525.1 436.3 C 525.1 436.4 527.0 436.3 526.6 436.6 C 525.6 436.6 524.7 436.6 523.7 436.6 C 523.5 436.4 523.8 436.3 525.1 436.3 C 525.1 436.3 525.1 436.3 525.1 436.3 Z M 620.2 423.5 C 622.9 423.1 625.5 421.9 624.8 422.4 C 625.8 422.4 623.1 423.6 623.2 423.3 C 622.8 423.1 618.1 424.1 620.2 423.5 C 620.2 423.5 620.2 423.5 620.2 423.5 Z M 433.4 428.1 C 436.4 428.8 435.9 428.1 437.9 428.7 C 437.2 428.6 436.9 428.6 436.6 428.7 C 437.1 428.7 437.9 428.9 437.8 428.9 C 436.4 428.7 434.6 428.5 433.4 428.1 C 433.4 428.1 433.4 428.1 433.4 428.1 Z M 471.0 331.1 C 471.6 331.1 471.8 331.0 471.8 330.9 C 474.0 330.8 473.9 330.6 475.3 330.7 C 475.3 331.0 473.5 331.0 471.8 331.1 C 471.7 331.1 471.2 331.2 471.0 331.1 C 471.0 331.1 471.0 331.1 471.0 331.1 Z M 534.0 330.9 C 534.0 330.7 532.7 330.6 534.7 330.6 C 537.1 331.0 535.0 331.1 532.6 331.2 C 532.6 331.3 532.6 331.4 532.5 331.5 C 533.5 331.5 534.1 331.6 534.7 331.6 C 535.1 331.3 536.7 332.0 540.4 332.0 C 538.6 332.1 540.5 332.5 538.2 332.2 C 538.8 332.5 537.2 332.4 537.5 332.6 C 538.5 332.5 540.9 332.6 540.4 332.3 C 541.6 332.4 542.6 332.5 543.2 332.6 C 544.1 332.9 540.9 332.5 541.8 332.8 C 542.5 332.8 542.6 332.9 543.2 333.0 C 543.3 332.9 543.1 332.7 543.9 332.8 C 546.1 333.0 543.5 333.0 546.7 333.3 C 546.9 333.1 545.9 333.0 546.0 332.9 C 547.5 332.8 547.4 333.0 548.8 333.0 C 549.1 333.2 547.8 333.1 548.8 333.2 C 549.7 332.9 551.7 333.7 553.7 333.5 C 552.4 332.9 554.1 333.7 555.9 333.3 C 556.3 333.5 555.0 333.7 556.5 333.8 C 556.0 333.2 562.3 333.9 557.3 332.9 C 559.9 333.2 560.9 332.8 558.8 332.5 C 563.4 333.1 561.9 332.6 563.7 332.7 C 565.4 332.9 562.7 332.8 563.6 333.1 C 561.7 332.9 562.2 333.1 560.9 332.8 C 560.9 332.9 560.5 332.9 560.1 333.0 C 562.0 333.0 564.2 333.5 562.8 333.7 C 561.9 333.6 562.8 333.4 561.5 333.3 C 561.9 333.7 560.2 333.1 560.1 333.3 C 560.9 333.7 558.2 333.7 560.7 334.0 C 560.8 333.9 560.8 333.7 560.8 333.6 C 561.5 333.7 562.1 333.7 562.8 333.8 C 563.4 334.1 562.9 334.2 563.5 334.3 C 564.6 334.5 565.3 334.5 565.6 334.4 C 564.2 334.2 562.5 333.8 564.9 334.0 C 564.0 334.4 568.2 334.5 566.3 334.5 C 568.8 335.0 570.1 334.7 570.3 335.1 C 571.6 335.2 570.8 334.9 572.4 335.1 C 574.9 335.6 574.5 335.2 577.8 335.8 C 578.2 335.5 578.1 336.0 579.1 336.1 C 579.2 336.0 579.2 335.8 579.2 335.7 C 580.3 336.1 583.0 336.6 585.8 336.7 C 586.5 336.9 585.9 337.1 587.7 337.3 C 589.7 337.3 591.9 338.0 594.2 338.1 C 594.4 338.3 596.0 338.6 596.8 338.6 C 597.1 338.8 596.0 338.9 597.4 339.1 C 598.4 339.1 596.7 338.7 598.7 339.0 C 598.5 339.2 600.6 339.1 600.6 339.4 C 600.0 339.4 599.3 339.3 598.6 339.3 C 599.5 339.4 599.2 339.5 599.9 339.7 C 599.9 339.3 601.3 339.9 601.8 340.1 C 601.8 339.9 602.0 339.8 602.5 339.9 C 603.6 340.1 604.4 340.2 605.0 340.3 C 606.3 340.7 604.2 340.3 605.5 340.7 C 606.3 340.2 607.6 341.2 610.5 341.4 C 611.1 341.8 612.3 342.1 614.1 342.6 C 614.3 342.4 612.3 342.1 612.3 341.9 C 614.9 342.6 611.9 341.7 613.6 342.1 C 617.3 343.1 619.7 343.7 623.4 344.9 C 623.4 344.8 626.4 345.4 626.3 345.5 C 625.5 345.3 627.8 346.3 628.9 346.7 C 629.4 346.4 632.8 347.1 633.1 346.9 C 633.8 347.4 633.6 347.3 633.8 347.8 C 637.4 349.1 639.3 349.4 641.2 350.6 C 641.1 350.3 642.7 350.9 644.0 351.3 C 643.6 351.4 642.8 351.2 642.0 351.1 C 643.7 351.7 643.9 351.9 645.4 352.5 C 647.1 352.5 649.1 354.3 650.5 354.2 C 652.7 355.2 652.2 355.3 654.1 356.3 C 654.1 356.1 654.3 356.1 654.9 356.3 C 653.6 355.7 652.6 355.5 652.0 354.9 C 655.0 356.2 646.7 351.6 651.7 353.6 C 651.8 353.8 651.2 353.8 652.3 354.3 C 655.0 355.5 653.5 354.5 652.4 354.0 C 654.3 354.8 656.1 355.8 654.8 354.8 C 658.9 356.8 656.2 355.7 657.5 356.5 C 664.5 360.1 671.6 365.1 675.7 371.3 C 676.1 371.3 677.9 374.7 678.2 375.9 C 679.2 377.5 679.7 379.4 679.5 380.1 C 679.9 380.3 679.7 382.3 680.0 382.5 C 679.9 381.7 679.9 381.1 680.1 381.9 C 680.2 384.6 679.5 388.5 679.2 390.1 C 678.6 390.9 678.0 392.6 677.5 393.8 C 677.3 393.9 677.7 393.0 677.3 393.7 C 677.3 394.0 676.0 396.4 675.5 396.8 C 676.0 396.2 676.3 395.2 675.5 396.2 C 675.7 396.3 674.7 397.5 675.1 397.3 C 673.9 398.7 673.3 399.6 672.1 400.7 C 673.0 399.7 673.4 399.1 673.4 398.8 C 672.8 399.7 672.3 400.4 671.5 400.9 C 671.9 401.0 670.4 402.1 669.0 403.6 C 668.5 403.9 668.1 404.0 666.7 405.1 C 666.2 405.7 669.0 403.6 667.5 404.9 C 667.4 404.8 665.9 405.8 666.4 405.7 C 664.5 407.0 663.5 407.9 661.7 408.7 C 663.9 407.4 662.1 408.2 661.5 408.5 C 661.1 408.8 660.3 409.2 660.3 409.3 C 660.4 409.4 661.5 408.7 661.7 408.7 C 660.1 409.5 659.8 410.1 659.1 410.3 C 659.8 409.9 659.9 409.7 659.1 410.1 C 659.1 410.6 654.0 413.0 655.6 411.9 C 655.7 412.0 657.6 411.0 657.7 410.8 C 657.1 411.0 654.3 412.6 654.8 412.1 C 656.5 411.2 656.4 411.4 658.3 410.3 C 658.4 410.0 659.5 409.4 660.1 408.9 C 657.3 410.6 656.6 411.2 656.1 411.2 C 654.7 411.9 655.7 411.7 653.3 412.8 C 649.9 414.5 652.6 412.8 651.7 413.2 C 648.6 414.8 649.7 414.7 651.2 414.2 C 648.7 415.4 648.0 415.9 644.7 417.2 C 644.8 416.9 645.2 416.7 646.3 416.1 C 646.4 416.2 649.1 415.2 648.8 415.1 C 648.4 414.9 646.3 415.7 642.7 417.1 C 643.7 417.1 643.8 416.9 640.1 418.3 C 640.8 418.4 638.3 418.8 638.3 419.1 C 638.5 419.1 639.8 418.6 641.0 418.2 C 641.0 418.3 640.6 418.6 639.4 419.1 C 638.5 419.3 638.0 419.7 635.6 420.4 C 635.3 420.2 637.0 419.6 637.3 419.3 C 636.0 419.8 635.8 420.0 634.5 420.5 C 633.3 420.7 633.3 420.3 633.3 420.0 C 634.8 419.4 637.1 418.6 635.2 419.1 C 640.7 417.1 635.0 419.5 637.1 418.8 C 639.3 417.7 638.2 418.6 641.7 417.2 C 642.7 416.8 643.0 416.6 643.4 416.4 C 643.1 416.4 641.1 417.0 643.3 416.1 C 643.8 416.0 645.1 415.7 646.8 415.0 C 646.7 414.9 643.2 416.2 646.7 414.8 C 648.3 414.1 647.0 415.0 649.2 414.0 C 649.2 413.9 649.8 413.6 649.9 413.5 C 646.7 415.0 650.5 413.0 648.2 413.9 C 651.0 412.5 648.8 413.9 650.6 413.1 C 650.6 412.9 653.6 411.8 653.5 411.5 C 652.5 412.1 650.3 413.1 650.5 412.8 C 652.5 411.9 660.7 407.2 657.7 409.3 C 658.8 408.5 663.9 404.9 663.6 405.3 C 662.1 406.3 662.3 406.4 662.1 406.7 C 664.9 404.5 666.3 403.7 668.6 401.3 C 665.9 403.6 667.7 401.5 665.8 402.7 C 665.1 403.4 663.9 404.1 663.8 404.4 C 664.3 404.3 665.5 403.3 665.9 402.8 C 666.0 403.0 666.1 403.1 666.3 403.3 C 662.8 405.7 660.8 407.2 658.8 408.2 C 660.5 407.2 655.4 409.8 657.3 408.6 C 658.3 408.3 660.2 407.1 661.8 406.2 C 661.8 406.1 661.7 406.1 661.7 406.0 C 662.3 405.5 663.3 404.9 663.3 404.8 C 661.3 406.2 660.0 406.8 658.6 407.8 C 658.5 407.8 658.5 407.7 658.5 407.7 C 658.1 407.9 657.7 408.1 657.8 408.0 C 658.6 407.5 659.6 406.9 659.7 406.8 C 658.0 407.7 657.6 407.7 655.6 408.8 C 656.0 408.2 653.2 409.4 656.0 407.7 C 656.6 407.7 658.1 406.9 658.1 407.1 C 659.0 406.7 660.4 405.7 661.1 405.1 C 660.3 405.5 658.7 406.3 658.5 406.2 C 659.7 405.4 660.6 404.7 661.4 404.4 C 659.1 406.1 662.8 403.7 663.9 403.3 C 663.5 403.4 663.0 403.7 662.6 403.8 C 664.4 402.6 665.2 402.1 665.1 401.8 C 666.9 400.2 666.7 400.7 667.9 399.7 C 666.9 400.1 668.5 398.8 667.5 399.3 C 669.4 397.5 668.3 399.0 669.0 398.4 C 669.5 397.8 669.5 397.7 670.0 397.1 C 670.9 396.4 672.2 394.8 672.6 394.7 C 673.1 394.0 673.2 393.9 673.7 393.2 C 673.7 393.0 673.8 392.7 673.9 392.3 C 674.1 392.3 674.5 391.8 674.4 391.6 C 673.1 393.4 673.4 392.8 671.7 394.7 C 671.7 394.9 671.5 395.2 671.9 394.8 C 670.9 396.3 670.4 396.6 669.2 397.8 C 668.9 397.9 668.4 397.9 667.4 399.1 C 667.5 398.7 667.1 398.9 667.5 398.4 C 668.3 398.0 669.1 397.2 670.0 396.4 C 670.0 396.3 669.7 396.3 670.1 395.9 C 670.5 395.6 671.1 395.0 671.4 394.4 C 671.5 394.5 671.4 394.7 671.3 395.0 C 672.8 393.2 672.0 393.6 673.0 392.3 C 672.8 392.4 672.2 393.3 672.5 392.5 C 673.3 391.2 673.5 391.0 673.9 390.4 C 673.8 390.3 673.7 390.3 673.9 389.9 C 674.4 389.1 673.4 392.2 674.4 390.7 C 674.3 390.4 675.0 388.9 675.2 388.7 C 675.2 389.3 674.6 390.1 674.7 390.3 C 676.0 387.4 675.4 390.4 676.1 387.4 C 676.0 387.3 675.9 387.3 675.8 387.3 C 675.6 388.5 675.3 388.5 675.2 388.3 C 674.8 389.3 674.4 389.6 674.1 390.5 C 673.9 390.0 674.5 389.7 674.9 388.6 C 674.6 388.6 674.3 389.5 674.0 389.6 C 675.2 387.3 674.9 386.8 675.4 384.6 C 675.1 385.1 675.3 383.4 675.2 383.5 C 675.3 385.4 674.5 384.6 674.4 384.9 C 674.4 386.1 674.9 385.6 674.9 386.4 C 674.6 386.7 674.5 386.5 674.2 386.2 C 674.4 385.2 674.4 385.4 674.3 384.5 C 674.5 383.9 675.0 383.2 675.1 384.2 C 675.0 384.0 674.8 382.6 675.0 382.5 C 675.1 383.9 675.1 382.3 675.3 383.2 C 675.4 382.1 674.7 380.2 674.4 378.8 C 674.3 379.0 674.1 378.5 674.0 378.6 C 674.8 379.8 674.3 380.2 674.5 381.5 C 674.4 380.9 674.3 381.3 674.3 381.5 C 674.2 380.3 673.8 379.7 673.6 378.7 C 673.6 378.8 673.5 378.8 673.4 378.8 C 673.0 377.3 673.0 377.5 672.1 376.4 C 672.0 375.9 672.7 376.3 673.0 376.3 C 672.6 375.8 671.3 373.7 671.9 375.1 C 671.0 373.8 671.6 373.9 670.5 372.7 C 670.3 372.8 671.2 374.0 670.6 373.7 C 669.7 372.6 670.5 373.1 669.5 372.2 C 669.6 372.1 669.8 371.9 668.8 370.9 C 669.3 371.7 668.6 370.8 668.2 370.7 C 668.7 371.2 669.0 371.6 669.2 371.9 C 667.5 370.0 667.1 369.6 665.3 368.2 C 666.1 368.6 665.2 367.7 666.5 368.6 C 665.3 367.8 664.0 366.4 663.2 366.0 C 663.9 366.6 665.1 367.6 665.4 368.0 C 661.8 365.1 659.3 363.9 655.0 361.1 C 655.8 361.5 656.8 362.1 657.0 362.1 C 656.5 361.8 655.7 361.4 655.7 361.3 C 657.3 362.2 658.7 363.0 659.5 363.4 C 660.6 364.3 658.6 363.1 659.9 364.0 C 660.2 364.0 662.4 365.7 661.7 364.8 C 659.6 363.6 657.5 362.1 656.6 361.2 C 654.2 360.3 656.4 361.5 653.6 360.5 C 653.7 360.4 653.2 360.1 652.4 359.6 C 653.0 360.3 649.8 358.5 649.4 358.3 C 650.8 358.8 655.5 361.0 653.3 359.5 C 654.0 360.6 647.7 356.7 648.8 357.7 C 645.6 356.3 646.9 356.5 644.9 356.0 C 644.9 355.8 645.2 355.8 644.2 355.4 C 643.2 355.0 642.9 355.0 642.5 354.9 C 647.4 357.0 645.8 356.7 648.7 358.1 C 648.2 357.9 647.7 357.7 647.8 357.8 C 647.8 357.8 647.7 357.8 647.1 357.5 C 647.0 357.1 644.6 356.5 644.0 356.0 C 644.9 356.4 645.8 356.8 645.6 356.5 C 641.6 354.9 642.6 354.9 636.4 352.5 C 638.2 353.3 635.8 352.5 633.5 351.8 C 632.0 351.2 631.5 350.9 631.0 350.7 C 630.4 350.4 629.1 349.9 628.0 349.6 C 628.1 350.2 625.8 348.8 623.0 348.4 C 623.4 348.2 619.9 347.1 619.1 347.2 C 619.0 347.0 617.7 346.7 616.8 346.5 C 616.6 346.3 617.7 346.5 616.9 346.3 C 616.1 346.1 616.7 346.5 615.6 346.3 C 614.4 345.9 614.7 345.7 612.8 345.3 C 612.7 345.4 613.7 345.6 612.7 345.6 C 611.1 345.1 609.6 344.7 610.9 345.3 C 608.4 344.8 609.7 344.6 607.4 344.1 C 608.0 344.4 608.0 344.4 606.7 344.2 C 605.9 343.8 605.8 343.7 605.6 343.5 C 604.8 343.6 605.0 343.7 603.1 343.2 C 603.0 343.3 603.0 343.4 603.0 343.5 C 602.1 343.3 600.8 343.1 600.5 342.9 C 602.2 343.3 601.8 343.0 602.5 343.1 C 600.8 342.7 597.5 341.8 600.0 342.6 C 597.6 342.2 598.8 342.1 596.9 341.8 C 598.0 342.3 597.0 341.8 595.0 341.5 C 595.1 341.9 593.7 341.3 592.4 341.2 C 592.6 341.4 592.2 341.4 591.1 341.3 C 591.2 341.1 590.5 341.0 589.2 340.8 C 589.2 340.9 591.9 341.5 589.2 341.0 C 587.9 340.7 588.0 340.4 585.9 340.1 C 585.5 339.8 587.8 340.2 587.3 339.9 C 585.6 339.9 585.2 339.6 582.7 339.2 C 583.6 339.8 577.8 339.1 580.6 339.7 C 579.8 339.6 578.6 339.8 578.0 339.4 C 578.9 339.5 577.3 339.1 577.4 339.0 C 576.2 338.9 573.5 338.4 573.4 338.6 C 575.9 338.8 575.9 339.1 576.7 339.3 C 572.9 339.0 569.7 338.5 569.9 338.3 C 569.9 338.3 569.4 338.3 569.3 338.3 C 570.6 338.5 571.4 339.0 569.9 338.8 C 570.2 338.6 569.1 338.4 567.9 338.2 C 567.9 338.4 562.9 337.5 563.8 338.0 C 565.8 338.0 567.4 338.5 565.8 338.5 C 564.6 338.2 561.9 337.8 562.5 337.6 C 561.8 337.6 561.1 337.6 560.4 337.7 C 559.8 337.8 561.3 338.0 561.0 338.1 C 560.0 338.0 558.5 337.9 558.3 337.8 C 561.0 338.0 556.9 337.5 559.7 337.6 C 558.0 337.4 557.6 337.3 556.2 337.1 C 556.2 337.2 555.7 337.2 555.6 337.2 C 556.8 337.2 558.0 337.4 557.6 337.6 C 555.1 337.5 555.6 337.2 553.5 337.0 C 552.8 337.2 550.0 337.3 548.6 337.0 C 551.3 337.2 548.4 336.9 550.0 336.9 C 552.5 337.2 553.2 337.0 554.2 336.9 C 553.1 336.6 551.0 336.4 550.7 336.7 C 552.1 336.8 552.1 336.7 552.8 336.7 C 552.7 336.8 552.3 336.9 551.4 336.9 C 550.2 336.6 547.6 336.6 549.3 336.4 C 547.6 336.4 545.6 336.1 543.7 336.1 C 545.8 336.3 547.3 336.5 547.9 336.7 C 546.2 336.7 544.5 336.3 544.4 336.5 C 544.6 336.7 547.3 336.8 547.9 337.0 C 545.7 337.1 542.4 336.2 545.1 336.9 C 543.8 336.8 542.1 336.7 541.6 336.6 C 543.1 336.6 541.5 336.2 540.9 336.1 C 539.6 336.1 538.5 336.1 538.0 336.1 C 540.0 336.1 541.5 336.5 540.1 336.5 C 539.8 336.3 539.4 336.5 538.8 336.5 C 538.6 336.3 536.4 336.3 536.0 336.2 C 536.1 336.3 537.1 336.4 537.3 336.5 C 536.0 336.5 534.1 336.8 533.1 336.4 C 533.9 336.4 535.1 336.5 535.2 336.4 C 531.6 335.9 530.4 335.6 526.0 335.3 C 526.6 335.3 526.9 335.2 526.7 335.1 C 523.9 335.0 522.1 334.9 522.5 334.7 C 520.8 334.7 519.9 334.9 518.9 335.0 C 520.8 335.1 521.4 334.9 522.5 335.1 C 521.8 335.2 523.9 335.6 524.6 335.8 C 527.7 335.6 527.9 336.1 531.0 336.0 C 530.1 336.2 533.3 336.1 532.4 336.4 C 529.5 335.9 526.7 336.1 522.5 335.8 C 523.0 335.6 523.5 335.5 521.8 335.3 C 519.1 335.2 520.4 335.5 518.2 335.4 C 517.3 335.2 518.6 335.2 517.5 335.1 C 516.7 335.2 514.6 335.2 513.9 334.9 C 516.9 335.0 513.4 334.7 515.3 334.6 C 514.4 334.6 513.8 334.6 513.2 334.5 C 516.0 334.8 510.3 334.9 512.5 335.1 C 508.5 335.2 512.2 334.5 508.9 334.5 C 510.5 334.7 508.4 334.8 506.1 334.8 C 505.4 334.6 503.0 334.5 501.1 334.5 C 502.1 334.7 502.9 334.6 501.1 334.8 C 502.0 334.9 503.7 334.9 504.6 334.7 C 504.6 334.9 505.0 334.9 505.4 335.0 C 503.0 335.1 504.0 335.2 503.2 335.2 C 502.5 335.1 500.8 335.2 500.4 335.1 C 500.4 335.1 499.8 335.2 499.7 335.2 C 502.7 335.2 499.2 335.6 501.1 335.6 C 502.4 335.6 501.6 335.3 503.2 335.3 C 504.8 335.6 501.9 335.7 501.1 335.9 C 502.5 336.1 504.1 335.7 504.6 336.0 C 502.8 336.3 499.9 336.2 497.6 336.2 C 497.7 336.5 493.6 336.2 493.3 336.6 C 492.9 336.5 492.5 336.5 491.9 336.4 C 491.2 336.7 490.4 336.4 489.8 336.4 C 489.7 336.6 489.9 336.7 490.5 336.7 C 487.6 336.7 486.9 336.8 483.5 337.1 C 482.9 336.9 482.3 336.8 482.0 336.7 C 482.8 336.6 483.6 336.5 484.1 336.4 C 479.4 336.6 482.5 337.1 479.2 336.9 C 479.3 337.0 481.6 337.2 479.9 337.4 C 476.9 337.2 472.8 337.8 472.9 337.1 C 470.3 337.1 468.6 337.7 467.4 337.5 C 466.5 337.6 466.3 337.7 466.0 337.8 C 466.8 337.8 467.8 337.9 468.8 337.9 C 470.3 337.7 471.0 337.8 469.5 337.6 C 471.8 337.4 472.4 337.5 473.6 337.5 C 470.4 338.0 467.5 338.0 467.4 338.4 C 466.3 338.3 465.5 338.2 464.6 338.1 C 464.3 338.3 460.8 338.8 460.5 338.5 C 462.9 338.4 465.4 337.8 463.2 337.9 C 457.3 338.6 454.0 338.5 449.0 339.4 C 448.8 339.3 449.2 339.1 448.3 339.2 C 448.3 339.3 448.1 339.5 447.6 339.6 C 446.1 339.8 445.1 339.8 443.0 340.2 C 443.1 339.9 442.8 339.8 441.6 339.9 C 441.0 340.2 439.0 341.0 437.8 341.1 C 439.0 340.9 437.3 340.9 436.4 341.0 C 437.3 341.2 430.6 341.7 432.6 341.7 C 429.9 342.2 428.8 342.3 428.7 342.1 C 427.8 342.4 427.2 342.6 426.3 342.8 C 425.6 342.5 421.3 343.7 420.6 343.6 C 422.2 343.5 422.4 343.0 421.2 343.3 C 420.4 343.6 416.5 344.7 415.8 344.8 C 416.0 344.6 416.2 344.3 418.1 343.8 C 414.9 344.5 415.0 344.9 414.0 345.3 C 414.0 345.0 412.7 345.6 412.2 345.8 C 411.2 345.8 412.2 345.6 412.1 345.4 C 411.0 345.7 410.6 345.6 409.2 346.0 C 409.6 346.2 408.0 346.4 407.4 346.5 C 407.2 346.7 406.5 347.0 405.2 347.4 C 406.8 346.6 398.0 349.0 400.1 348.7 C 398.4 349.4 398.3 348.9 396.2 349.6 C 396.0 349.7 395.5 349.9 395.1 350.0 C 394.7 350.2 395.1 350.1 395.7 350.0 C 395.3 350.1 394.5 350.4 394.1 350.4 C 393.8 350.5 393.6 350.5 393.4 350.6 C 393.0 350.6 392.5 350.7 390.7 351.4 C 392.4 351.2 387.2 352.6 388.1 352.7 C 386.4 352.8 383.8 354.3 381.0 355.1 C 381.1 355.1 380.3 355.5 380.2 355.6 C 379.9 355.9 383.5 354.5 381.2 355.4 C 378.3 356.4 379.8 355.7 379.4 355.8 C 372.0 359.0 364.7 362.9 359.9 366.5 C 360.5 366.1 360.5 366.2 359.6 367.0 C 357.9 367.7 353.7 372.2 353.3 372.9 C 352.8 373.1 351.5 375.5 351.1 375.8 C 351.4 375.4 351.7 374.4 351.1 375.3 C 351.0 376.0 350.4 376.7 350.2 377.6 C 349.7 377.9 349.1 380.7 349.0 379.3 C 348.9 379.8 348.8 380.1 348.6 380.4 C 348.9 380.5 348.7 381.0 349.1 380.1 C 348.3 382.5 348.6 383.0 348.5 384.9 C 348.6 385.2 348.7 383.8 348.8 384.8 C 348.7 384.8 348.7 384.8 348.6 384.8 C 348.6 385.2 348.8 385.4 348.7 385.5 C 348.5 385.5 348.5 384.9 348.2 384.9 C 348.4 385.8 348.2 386.4 348.4 386.7 C 348.2 385.4 348.8 386.2 348.8 387.0 C 348.5 386.4 349.6 389.9 350.4 391.0 C 350.4 391.7 349.7 389.8 349.6 390.0 C 350.6 392.1 350.6 392.0 351.0 392.1 C 351.6 393.3 351.7 393.9 353.0 395.2 C 353.5 396.0 352.4 394.8 353.1 395.7 C 353.6 396.1 353.9 396.3 354.6 397.0 C 356.1 399.4 362.6 403.5 365.9 406.4 C 364.5 405.3 366.5 406.4 368.6 407.5 C 368.7 407.7 368.4 407.7 369.2 408.1 C 369.1 407.9 369.8 408.2 371.3 409.0 C 371.4 409.1 371.1 409.1 371.9 409.5 C 372.7 409.6 374.5 410.8 375.7 411.2 C 376.1 411.7 372.9 410.0 372.6 410.1 C 376.3 412.0 377.2 412.1 380.4 413.5 C 378.6 412.8 381.5 414.2 382.0 414.5 C 381.3 413.9 384.0 414.9 382.2 414.0 C 383.4 414.5 385.4 415.2 385.6 415.4 C 384.9 415.1 383.8 414.7 383.8 414.8 C 385.4 415.4 387.5 416.4 388.3 416.5 C 387.2 416.0 386.5 415.7 386.6 415.6 C 387.0 415.6 387.6 415.7 388.5 416.0 C 385.7 415.7 393.6 418.1 394.1 418.0 C 394.8 418.7 395.3 418.8 394.9 418.9 C 396.7 419.4 396.5 419.3 396.9 419.3 C 397.2 419.4 397.4 419.4 398.0 419.5 C 397.6 419.7 397.2 419.8 398.9 420.4 C 398.6 420.0 400.8 420.7 400.2 420.1 C 404.9 421.4 405.9 422.0 408.8 422.7 C 408.9 422.6 408.0 422.3 408.8 422.5 C 410.2 422.9 411.4 423.3 412.3 423.7 C 413.1 423.6 412.0 423.4 412.9 423.5 C 415.1 424.2 414.5 424.4 416.4 425.0 C 418.9 425.4 418.0 425.3 419.5 425.4 C 418.9 425.2 418.0 424.9 418.9 425.1 C 420.4 425.6 420.9 426.0 421.3 426.1 C 420.2 425.9 419.4 425.7 418.8 425.5 C 418.4 425.6 417.0 425.3 418.2 425.7 C 416.6 425.3 414.9 424.9 412.7 424.4 C 413.4 424.9 410.8 424.0 411.5 424.5 C 413.9 425.0 414.5 425.3 416.9 425.8 C 416.4 425.4 418.9 426.1 419.3 426.2 C 419.4 426.1 421.0 426.5 420.7 426.2 C 422.5 426.5 422.4 426.7 424.3 427.0 C 424.5 427.1 424.2 427.2 424.9 427.3 C 425.6 427.2 426.2 427.7 426.8 427.8 C 426.4 427.4 429.2 428.1 429.4 427.9 C 428.7 427.8 427.6 427.6 427.5 427.5 C 430.6 428.1 428.2 427.4 427.6 427.1 C 427.7 427.2 426.5 427.4 426.3 427.1 C 428.9 427.4 422.8 426.0 425.1 426.6 C 427.0 427.0 426.9 426.8 428.9 427.2 C 431.2 428.0 428.3 427.8 430.6 428.6 C 432.1 428.6 433.1 428.8 433.3 428.6 C 433.6 428.7 434.0 428.9 434.5 429.0 C 435.2 429.0 432.7 428.5 434.6 428.7 C 435.6 429.0 434.4 429.1 436.5 429.4 C 437.4 429.3 434.0 428.7 435.9 428.9 C 437.9 429.6 435.5 428.8 437.8 429.1 C 438.0 429.2 438.4 429.3 439.2 429.4 C 439.3 429.5 438.9 429.6 439.7 429.8 C 440.3 429.4 440.6 430.1 442.4 430.3 C 443.4 430.1 440.6 429.8 441.1 429.7 C 443.1 430.3 444.3 430.1 445.1 430.2 C 443.4 430.2 447.6 430.7 447.7 431.0 C 447.3 430.6 448.2 430.9 450.5 430.9 C 450.6 431.4 453.3 431.4 453.8 431.8 C 454.2 431.7 454.8 431.7 455.2 431.6 C 454.4 431.5 453.6 431.4 453.9 431.3 C 454.5 431.4 455.2 431.5 455.9 431.6 C 457.0 431.9 454.0 432.1 458.6 432.5 C 458.1 432.1 460.0 432.3 461.3 432.3 C 461.2 432.0 459.5 432.1 459.3 431.9 C 460.9 431.9 462.5 432.3 463.4 432.5 C 466.1 432.6 469.3 433.1 473.2 433.2 C 474.0 433.5 469.9 433.2 472.5 433.5 C 473.5 433.6 473.0 433.4 474.5 433.5 C 473.1 434.5 485.1 434.4 485.8 434.8 C 486.3 434.6 489.7 434.9 489.4 434.6 C 487.1 434.7 485.5 434.3 484.4 434.1 C 482.3 434.1 486.3 434.5 484.4 434.4 C 484.2 434.3 481.3 434.2 481.6 434.0 C 484.6 434.2 480.0 433.7 482.3 433.6 C 485.1 433.8 490.7 433.8 489.4 434.0 C 489.4 433.9 488.2 433.9 488.0 434.0 C 491.2 434.2 493.1 434.1 494.4 434.0 C 495.8 434.2 501.6 434.0 500.1 434.1 C 500.6 434.4 496.7 434.0 497.2 434.2 C 503.1 434.5 503.3 434.3 507.2 434.5 C 505.9 434.2 511.3 434.1 510.8 434.2 C 510.8 434.4 512.0 434.6 514.4 434.3 C 514.0 434.6 515.3 434.7 516.5 434.7 C 517.1 434.5 515.5 434.5 515.8 434.3 C 517.0 434.3 518.2 434.3 519.4 434.3 C 519.5 434.4 519.3 434.5 520.1 434.5 C 521.4 434.4 526.2 434.0 525.8 434.2 C 523.8 434.5 529.1 434.4 525.8 434.7 C 526.7 434.6 526.8 434.7 528.0 434.7 C 528.0 434.6 528.0 434.5 528.0 434.4 C 530.6 434.2 529.3 434.7 531.5 434.6 C 531.7 434.5 532.7 434.5 533.0 434.3 C 532.1 434.4 532.0 434.5 530.8 434.5 C 532.1 434.1 528.5 434.4 528.7 434.1 C 531.2 434.0 531.2 434.2 532.2 434.3 C 535.3 434.0 533.9 434.2 537.2 434.1 C 537.2 434.0 536.3 434.0 536.5 433.9 C 540.5 433.8 540.1 434.3 542.9 433.9 C 542.2 434.0 539.8 434.3 541.5 434.3 C 543.3 434.0 543.9 433.8 546.3 433.6 C 546.5 433.6 546.3 433.8 547.1 433.7 C 548.1 433.6 548.2 433.4 549.1 433.2 C 549.4 433.3 550.7 433.1 551.3 433.1 C 552.2 433.2 550.9 433.3 552.0 433.3 C 554.1 433.1 555.1 432.5 556.8 432.4 C 556.8 432.8 558.7 432.5 560.3 432.3 C 560.6 432.6 564.2 432.2 566.5 432.0 C 566.0 431.8 568.4 431.6 567.8 431.4 C 566.7 431.6 566.1 431.6 565.8 431.5 C 568.5 431.2 569.3 431.6 571.2 431.0 C 572.3 431.0 573.5 431.0 575.3 430.9 C 575.5 430.7 572.1 431.0 574.0 430.7 C 574.1 430.8 574.7 430.7 575.3 430.5 C 575.0 430.8 576.5 430.7 577.4 430.8 C 578.9 430.4 582.2 430.2 580.6 430.1 C 583.1 429.7 581.5 430.4 583.4 430.1 C 582.4 429.9 585.6 429.5 584.0 429.5 C 586.5 429.1 586.3 429.5 585.3 429.8 C 587.6 429.5 588.1 429.2 589.3 429.2 C 588.2 429.1 591.6 428.4 589.9 428.8 C 589.3 429.2 592.0 428.6 592.5 428.6 C 591.6 428.6 592.8 428.4 591.2 428.5 C 592.9 428.2 595.3 427.7 596.9 427.7 C 599.0 427.1 601.0 426.7 600.1 427.1 C 602.0 426.7 601.3 426.9 603.2 426.5 C 603.2 426.4 602.7 426.5 602.5 426.5 C 605.2 425.9 604.7 426.2 608.2 425.5 C 607.8 425.9 610.0 425.4 610.7 425.4 C 609.3 425.7 608.1 425.9 607.0 426.1 C 606.8 426.2 607.9 426.1 607.0 426.3 C 606.9 426.2 606.3 426.3 605.8 426.4 C 608.1 426.1 603.0 427.4 604.6 426.8 C 604.6 426.9 604.7 426.9 605.2 426.8 C 604.7 426.6 604.7 426.7 605.1 426.4 C 604.0 426.7 603.0 426.6 602.6 426.9 C 602.7 427.0 603.8 426.7 603.9 426.8 C 601.1 427.5 603.0 426.6 600.8 427.2 C 600.4 427.5 601.5 427.4 602.1 427.4 C 600.0 427.8 598.2 428.2 597.7 428.1 C 595.8 428.5 597.8 428.3 596.5 428.6 C 595.8 428.7 595.8 428.5 594.5 428.7 C 593.1 429.0 595.3 428.7 593.9 429.0 C 592.3 429.1 594.9 428.5 592.5 428.9 C 593.1 429.1 590.4 429.2 590.6 429.3 C 592.0 429.1 592.0 429.4 591.3 429.3 C 588.1 429.5 586.0 430.8 582.8 430.7 C 582.8 430.7 582.3 430.8 582.1 430.9 C 584.6 430.7 588.1 430.2 588.8 430.5 C 590.7 430.1 590.4 429.9 590.7 429.7 C 592.9 429.7 592.7 429.8 591.5 430.3 C 587.8 431.0 586.1 431.1 583.6 431.3 C 582.3 431.7 583.7 431.4 584.3 431.5 C 576.4 432.4 582.5 432.2 579.7 432.6 C 579.7 432.4 579.1 432.4 578.3 432.5 C 578.3 432.6 577.1 432.7 577.0 432.8 C 577.5 432.8 577.8 432.8 577.6 432.9 C 575.7 433.3 576.4 432.9 576.3 432.8 C 577.8 432.6 578.8 432.4 578.9 432.2 C 577.0 432.6 575.5 432.6 574.2 433.0 C 572.4 432.9 575.1 432.2 574.1 432.1 C 574.4 431.8 572.9 432.8 571.5 433.1 C 569.0 433.4 569.0 433.7 566.7 433.9 C 566.1 433.7 569.0 433.5 568.8 433.3 C 568.1 433.4 568.0 433.4 567.4 433.4 C 565.8 433.6 565.9 433.8 564.6 434.0 C 563.9 433.9 563.6 434.0 562.6 434.2 C 561.1 434.3 563.5 434.0 561.9 434.1 C 560.2 434.2 559.0 434.6 558.4 434.6 C 558.3 434.6 558.6 434.4 557.7 434.5 C 555.8 434.8 555.3 434.9 557.8 434.8 C 555.6 434.9 554.6 435.1 555.0 435.3 C 558.3 435.1 559.1 435.0 560.6 435.2 C 561.2 434.8 562.2 434.9 563.4 434.9 C 562.6 434.5 564.8 434.7 565.4 434.4 C 564.6 434.5 563.8 434.5 563.3 434.5 C 566.8 434.2 566.7 434.2 569.5 433.5 C 569.5 433.6 569.8 433.7 570.2 433.7 C 569.3 433.9 566.8 434.1 566.8 434.3 C 568.7 434.4 569.4 433.8 571.6 433.9 C 572.5 433.6 569.8 433.8 571.6 433.6 C 572.4 433.7 573.6 433.7 575.0 433.6 C 576.4 433.3 577.1 433.1 578.3 432.9 C 578.4 433.0 578.6 433.1 579.7 432.9 C 579.6 432.8 578.5 432.9 579.7 432.6 C 583.2 432.5 585.6 432.3 589.0 431.6 C 587.8 431.8 585.0 431.9 586.3 431.7 C 587.9 431.7 590.0 431.0 591.6 431.0 C 592.1 431.0 589.7 431.2 590.3 431.5 C 591.8 431.2 592.8 431.1 593.5 431.0 C 593.5 430.9 595.3 430.6 594.8 430.5 C 593.6 430.7 593.2 431.0 592.9 431.0 C 593.8 430.1 597.6 430.4 600.0 429.9 C 601.5 429.5 598.8 429.9 600.5 429.5 C 601.6 429.2 602.4 429.6 600.6 430.1 C 599.5 430.2 599.0 430.6 598.7 430.3 C 598.2 430.5 597.5 430.6 597.5 430.7 C 598.4 430.5 598.2 430.7 598.8 430.7 C 597.5 430.9 597.4 431.4 596.2 431.3 C 597.0 431.1 597.2 431.0 597.5 430.9 C 594.1 431.6 593.0 431.6 591.0 431.8 C 592.1 431.8 591.0 431.9 591.1 432.1 C 592.6 431.8 595.4 431.5 593.7 431.8 C 592.5 431.7 591.7 432.6 590.5 432.5 C 591.4 432.4 591.2 432.2 591.7 432.1 C 590.4 432.3 590.4 432.1 589.1 432.3 C 584.8 433.3 581.5 433.2 574.4 434.6 C 572.0 434.9 576.7 434.2 576.4 434.0 C 575.7 434.1 575.6 434.1 575.1 434.1 C 575.0 434.4 573.8 434.3 573.0 434.6 C 573.1 434.4 569.8 435.0 568.2 434.9 C 568.1 435.0 568.4 435.2 567.6 435.3 C 562.5 435.5 553.3 436.7 549.4 436.7 C 549.5 436.9 547.8 437.0 547.3 437.2 C 544.9 437.3 546.0 437.1 542.4 437.5 C 540.6 437.6 542.7 437.3 543.0 437.2 C 537.7 437.6 532.9 437.6 529.5 438.0 C 527.7 438.1 529.5 437.8 525.9 437.9 C 525.8 438.2 520.2 437.8 519.5 438.2 C 517.3 438.3 513.3 437.9 515.1 438.2 C 512.2 438.2 514.1 437.9 512.9 437.9 C 510.9 437.9 513.6 438.5 511.5 438.5 C 511.7 438.2 510.0 438.4 508.6 438.1 C 510.3 438.1 511.3 438.1 511.5 438.0 C 510.1 438.1 510.2 437.9 507.9 437.9 C 506.3 438.1 501.4 438.2 500.0 437.8 C 499.9 437.9 500.4 438.0 500.7 438.1 C 499.3 438.1 497.6 437.8 497.8 438.1 C 494.6 438.0 493.2 437.7 491.4 437.9 C 490.0 437.9 491.9 437.7 487.8 437.5 C 487.7 437.7 480.5 437.3 478.6 437.0 C 478.5 437.3 478.1 437.0 477.2 436.9 C 477.0 437.0 477.2 437.1 476.4 437.1 C 476.3 437.0 475.6 437.0 475.0 437.0 C 475.5 436.6 472.4 436.9 472.2 436.6 C 472.8 436.7 472.9 436.5 472.2 436.4 C 472.0 436.7 469.1 436.0 469.4 436.2 C 470.0 436.4 472.0 436.5 471.5 436.7 C 468.7 436.5 469.8 436.3 468.0 436.1 C 468.1 436.2 469.2 436.4 468.0 436.4 C 466.1 436.2 467.8 436.3 466.6 436.0 C 465.6 436.0 463.7 436.0 463.1 435.9 C 463.3 435.9 462.7 435.7 462.4 435.7 C 458.8 435.3 450.8 434.6 447.4 433.8 C 447.1 433.9 446.4 433.9 446.6 434.1 C 444.6 433.7 444.7 433.8 442.7 433.4 C 442.6 433.5 442.6 433.6 442.6 433.7 C 439.9 433.4 442.4 433.3 440.6 433.1 C 440.4 433.6 439.6 432.8 438.0 432.5 C 437.8 432.6 437.0 432.5 437.3 432.7 C 434.8 432.3 434.9 432.0 432.8 431.8 C 433.3 431.9 433.5 432.7 433.2 432.9 C 432.9 432.7 432.2 432.5 431.3 432.3 C 432.5 432.3 432.0 431.3 428.9 431.0 C 430.6 431.3 431.2 431.4 430.8 431.6 C 428.4 431.2 427.6 430.9 425.7 430.5 C 425.3 430.7 426.7 431.0 426.2 431.2 C 425.7 431.1 425.4 431.1 425.5 431.2 C 423.4 430.8 423.4 430.6 421.1 430.3 C 421.1 430.1 421.6 430.2 422.4 430.4 C 422.3 430.2 422.3 430.0 423.7 430.3 C 423.9 430.5 423.0 430.6 424.9 430.8 C 425.0 430.7 425.0 430.6 425.0 430.5 C 423.6 430.2 420.3 429.3 420.0 429.4 C 420.6 429.6 421.7 429.9 421.1 430.0 C 418.8 429.5 418.2 429.1 416.3 428.5 C 412.9 427.8 407.1 426.4 407.7 426.9 C 405.8 426.3 406.5 426.5 404.8 426.0 C 405.2 426.4 402.8 425.6 402.9 425.9 C 405.0 426.3 404.4 426.2 406.5 426.7 C 406.4 426.8 406.0 426.9 405.2 426.7 C 405.1 426.5 404.3 426.3 402.9 425.9 C 403.1 426.0 404.3 426.6 402.8 426.2 C 402.7 426.1 402.4 426.0 401.7 425.9 C 401.7 425.7 401.8 425.6 401.8 425.5 C 402.6 425.6 403.6 425.8 404.2 425.9 C 403.6 425.7 403.5 425.6 403.0 425.5 C 402.6 425.5 400.3 424.7 400.1 424.8 C 401.1 425.1 401.6 425.4 400.6 425.1 C 400.5 425.1 398.9 424.5 398.3 424.5 C 400.3 425.2 399.5 425.0 400.5 425.5 C 398.2 425.0 398.6 424.7 396.0 424.1 C 396.0 423.9 396.1 423.7 396.8 423.8 C 396.0 423.3 395.0 423.0 392.6 422.3 C 390.2 421.6 388.0 420.9 386.9 420.5 C 388.4 421.1 390.2 421.3 388.0 420.6 C 387.9 420.7 386.3 420.0 386.0 420.0 C 385.1 420.2 386.9 421.1 388.5 421.9 C 386.7 421.3 386.3 421.3 384.7 420.7 C 384.2 420.3 386.0 420.6 384.0 419.8 C 383.4 420.0 380.2 418.4 379.4 418.4 C 380.8 418.9 381.7 419.4 380.2 418.9 C 380.5 418.8 377.7 417.8 377.7 417.6 C 380.0 418.4 380.7 418.5 382.2 419.0 C 380.3 418.3 383.6 419.4 380.5 418.1 C 379.1 417.8 378.3 417.7 375.2 416.4 C 374.2 415.9 375.3 416.1 373.8 415.4 C 374.1 415.8 370.9 414.4 372.9 415.1 C 371.9 414.6 371.3 414.3 370.7 413.9 C 372.1 414.9 365.1 411.6 366.0 412.3 C 366.2 412.0 366.0 411.6 365.7 411.3 C 364.3 410.8 362.9 409.8 359.9 407.8 C 359.8 408.2 359.4 407.6 358.2 406.7 C 357.9 406.7 358.9 407.5 358.0 406.9 C 356.7 405.9 356.7 405.8 356.5 405.5 C 355.6 404.8 354.9 404.2 354.5 403.8 C 354.4 403.8 354.7 404.1 354.9 404.4 C 351.7 401.4 350.1 400.1 348.2 397.5 C 348.9 398.7 349.4 398.6 348.7 397.8 C 348.3 397.3 347.9 396.8 347.6 396.6 C 347.9 397.3 347.8 397.0 347.0 395.7 C 346.1 394.6 346.9 396.4 346.3 395.4 C 345.8 394.4 346.3 394.9 346.1 394.3 C 345.8 393.9 345.5 393.4 345.3 392.9 C 345.6 393.8 345.0 392.9 344.6 392.1 C 345.1 392.6 345.0 392.2 344.3 390.6 C 344.3 390.3 344.7 391.2 344.5 390.5 C 344.4 390.1 343.7 388.9 343.7 387.6 C 343.8 388.0 343.8 388.2 343.9 388.1 C 343.5 386.8 343.7 385.8 343.7 384.6 C 343.6 385.8 343.4 385.2 343.2 385.7 C 343.4 384.5 343.1 383.1 343.5 382.2 C 343.3 383.9 343.9 382.3 344.1 381.2 C 343.9 381.0 343.7 382.7 343.5 382.2 C 343.3 381.6 343.9 380.4 343.8 379.7 C 343.6 379.8 343.7 380.5 343.5 380.7 C 343.7 379.8 343.3 380.9 343.5 380.2 C 343.8 379.7 343.6 379.1 343.7 378.6 C 344.0 378.0 344.8 376.9 344.8 376.3 C 344.7 376.3 344.4 377.1 344.3 377.2 C 345.1 374.5 345.8 373.9 347.1 371.5 C 347.4 371.3 347.8 370.9 348.3 370.3 C 348.1 370.2 348.4 369.8 348.8 369.2 C 349.7 368.4 350.6 367.5 351.8 366.4 C 351.8 366.7 351.2 367.3 352.9 365.8 C 352.9 365.6 352.2 366.3 352.8 365.7 C 352.8 365.7 353.2 365.4 353.3 365.2 C 353.2 365.2 353.2 365.1 353.2 365.1 C 352.7 365.5 352.2 366.0 351.8 366.4 C 351.8 366.2 351.6 366.3 351.2 366.6 C 353.0 364.6 353.2 365.1 354.5 363.7 C 355.0 363.8 355.5 363.5 354.5 364.7 C 355.6 363.6 356.5 362.8 356.7 362.3 C 355.1 363.6 355.5 363.0 355.0 363.2 C 356.0 362.4 355.9 362.3 356.4 361.9 C 357.7 361.1 355.3 363.2 357.8 361.5 C 355.8 362.5 359.2 360.1 360.6 359.3 C 360.3 359.4 359.8 359.7 360.4 359.1 C 364.0 356.6 364.2 357.6 366.4 355.8 C 366.3 356.1 367.5 355.5 368.0 355.3 C 365.9 356.5 365.4 356.8 364.6 357.3 C 364.8 357.3 365.4 357.0 366.0 356.7 C 365.9 356.6 366.5 356.3 367.4 355.9 C 368.0 355.4 367.5 355.2 369.2 354.1 C 369.4 354.1 369.2 354.4 370.1 353.9 C 370.8 353.4 369.5 354.6 373.3 352.8 C 372.6 353.0 372.1 353.1 372.4 352.8 C 374.1 351.8 373.8 352.1 376.3 350.9 C 377.5 350.9 374.8 352.1 374.2 352.6 C 375.9 351.8 377.2 350.9 379.1 350.3 C 377.6 350.8 379.0 350.0 380.7 349.3 C 382.2 348.7 380.7 349.7 382.6 349.0 C 384.1 348.3 384.8 347.8 383.4 348.3 C 386.8 347.1 385.9 347.1 388.9 346.1 C 389.1 346.2 388.2 346.5 387.1 346.8 C 387.3 346.9 387.0 347.1 388.1 346.7 C 389.0 346.3 390.6 345.7 392.3 345.1 C 394.0 344.5 395.0 344.2 395.6 343.9 C 398.2 343.6 401.0 342.2 403.7 341.7 C 402.7 342.2 407.2 340.9 408.5 340.8 C 409.3 340.5 411.7 339.4 410.8 339.8 C 411.1 340.1 412.7 339.6 414.0 339.4 C 414.0 339.4 413.9 339.3 413.9 339.2 C 416.7 338.6 417.3 338.7 418.3 338.7 C 421.6 337.8 425.5 337.4 429.7 336.4 C 430.8 336.5 431.8 336.2 434.3 336.0 C 434.2 335.8 436.3 335.4 438.2 335.1 C 437.7 335.0 439.5 334.8 439.5 334.6 C 437.8 334.9 438.4 334.5 437.5 334.5 C 439.8 334.4 440.9 333.8 442.8 333.8 C 440.5 334.2 439.8 334.6 439.6 335.0 C 442.3 334.6 443.7 334.5 444.3 334.6 C 444.5 334.4 444.1 334.3 443.5 334.3 C 444.4 334.2 445.4 334.0 446.2 333.9 C 446.5 334.0 445.3 334.3 446.2 334.2 C 446.9 334.0 447.6 333.8 448.3 333.7 C 449.1 333.8 447.2 334.0 447.0 334.1 C 450.6 333.8 449.0 333.5 450.9 333.2 C 451.5 333.3 451.4 333.5 453.1 333.4 C 453.7 333.2 453.9 332.9 455.8 332.7 C 457.0 332.6 455.7 333.1 457.1 332.9 C 457.3 332.8 457.9 332.8 458.6 332.8 C 458.5 332.7 459.1 332.5 459.9 332.4 C 460.1 332.5 461.4 332.3 462.0 332.2 C 462.1 332.3 464.3 332.4 464.8 332.2 C 464.8 332.1 463.5 332.2 463.4 332.1 C 465.0 332.0 466.0 331.9 466.9 331.7 C 467.4 332.3 469.9 331.6 473.2 331.6 C 475.2 331.3 472.7 331.3 475.3 330.9 C 476.8 331.0 474.9 331.2 475.3 331.4 C 475.7 331.4 478.1 331.4 478.1 331.2 C 478.1 331.1 476.9 331.2 476.7 331.1 C 478.6 330.8 478.5 331.1 479.6 331.1 C 479.4 330.9 480.7 330.8 480.9 330.6 C 486.1 330.2 486.0 330.7 488.1 330.8 C 488.1 330.7 489.4 330.6 489.5 330.5 C 488.1 330.7 486.1 330.6 488.1 330.4 C 487.8 330.6 490.8 330.3 491.0 330.2 C 490.6 330.1 488.7 330.3 489.5 330.0 C 492.2 329.8 491.1 330.3 493.1 330.0 C 493.3 330.1 492.2 330.2 491.7 330.3 C 492.5 330.3 493.7 330.2 493.8 330.3 C 492.8 330.4 492.8 330.6 492.4 330.7 C 493.8 330.5 496.3 330.6 494.5 330.4 C 497.4 330.3 500.1 330.1 498.2 329.9 C 500.5 329.8 499.2 330.2 501.0 329.9 C 500.8 330.2 500.2 330.4 501.8 330.6 C 502.0 330.4 503.3 330.3 503.1 330.1 C 506.6 330.1 507.6 330.3 509.0 330.6 C 507.7 330.2 509.4 330.5 511.1 330.2 C 512.1 330.3 511.1 330.6 514.0 330.6 C 510.9 330.2 517.5 330.5 516.1 330.1 C 519.7 330.3 519.6 330.3 523.3 330.4 C 523.0 330.6 522.1 330.7 520.5 330.7 C 521.6 330.5 517.3 330.4 517.6 330.6 C 517.6 330.6 517.6 330.7 517.6 330.7 C 520.3 330.7 522.2 330.8 523.3 331.0 C 523.9 330.8 525.2 330.8 524.8 330.5 C 527.3 330.8 530.1 330.5 531.2 330.8 C 530.3 330.8 529.5 330.8 529.8 330.9 C 530.8 330.9 532.1 330.9 531.9 330.7 C 529.9 330.5 529.4 330.5 528.4 330.6 C 529.3 330.5 526.3 330.2 528.4 330.2 C 528.3 330.6 532.7 330.2 531.3 330.4 C 529.0 330.5 533.8 330.7 534.0 330.9 C 534.0 330.9 534.0 330.9 534.0 330.9 Z M 589.7 432.2 C 591.7 431.7 589.2 431.9 587.7 432.2 C 588.2 432.2 588.4 432.2 588.4 432.4 C 589.0 432.2 589.6 432.1 589.7 432.2 C 589.7 432.2 589.7 432.2 589.7 432.2 Z M 567.8 431.6 C 567.2 432.0 570.6 431.4 572.0 431.3 C 571.5 431.3 571.1 431.2 571.9 431.1 C 570.5 431.1 570.0 431.6 567.8 431.6 C 567.8 431.6 567.8 431.6 567.8 431.6 Z M 489.4 435.0 C 489.9 435.0 491.3 434.9 491.4 435.1 C 492.3 435.1 492.1 435.0 492.2 434.9 C 493.9 434.9 491.8 435.2 494.4 435.2 C 495.3 434.7 489.9 434.5 489.4 435.0 C 489.4 435.0 489.4 435.0 489.4 435.0 Z M 506.8 334.1 C 507.8 334.2 505.4 334.4 506.1 334.6 C 510.0 334.4 507.0 334.1 512.5 334.2 C 512.1 334.1 511.7 334.1 511.8 334.0 C 509.2 334.1 509.0 334.3 509.6 333.8 C 508.4 333.8 508.2 334.3 506.8 334.1 C 506.8 334.1 506.8 334.1 506.8 334.1 Z M 557.7 337.1 C 557.3 337.0 556.9 336.9 557.0 336.8 C 555.3 336.7 555.7 336.8 553.5 336.6 C 553.7 336.9 555.8 337.1 557.7 337.1 C 557.7 337.1 557.7 337.1 557.7 337.1 Z M 673.1 377.7 C 673.2 377.9 673.3 378.2 673.4 378.4 C 673.5 378.2 674.1 378.7 673.5 377.5 C 673.4 377.5 673.5 377.7 673.6 377.9 C 673.4 377.7 673.1 377.1 673.0 377.3 C 673.2 377.6 673.1 377.7 673.1 377.7 C 673.1 377.7 673.1 377.7 673.1 377.7 Z M 657.0 408.0 C 659.4 406.3 652.9 409.4 657.0 408.0 C 657.0 408.0 657.0 408.0 657.0 408.0 C 657.0 408.0 657.0 408.0 657.0 408.0 Z M 663.4 407.3 C 663.6 407.4 664.0 407.0 664.0 406.9 C 666.0 405.7 664.2 407.1 665.3 406.4 C 666.7 405.2 664.4 406.6 666.1 405.2 C 665.6 405.3 664.6 406.6 663.4 407.3 C 663.4 407.3 663.4 407.3 663.4 407.3 Z M 363.8 357.5 C 362.0 358.6 361.7 359.1 361.6 359.5 C 362.7 358.8 363.7 358.3 364.2 358.1 C 366.4 356.7 362.6 358.9 362.2 359.1 C 362.3 358.7 363.9 357.7 363.8 357.5 C 363.8 357.5 363.8 357.5 363.8 357.5 Z M 358.4 361.1 C 357.8 361.7 356.9 362.5 357.0 362.7 C 357.9 361.9 358.0 361.9 358.2 362.0 C 358.9 361.2 357.8 361.9 358.4 361.1 C 358.4 361.1 358.4 361.1 358.4 361.1 Z M 369.5 354.8 C 368.6 355.3 369.0 355.2 368.9 355.4 C 370.3 354.7 370.5 354.7 371.9 354.0 C 371.9 353.9 371.9 353.9 371.8 353.8 C 370.6 354.3 370.6 354.5 369.6 355.0 C 369.6 354.9 369.5 354.8 369.5 354.8 C 369.5 354.8 369.5 354.8 369.5 354.8 Z M 353.9 365.0 C 351.5 367.2 350.9 368.5 350.0 370.2 C 351.2 368.5 352.3 366.7 353.7 365.7 C 355.1 364.3 353.1 366.0 353.1 365.9 C 353.0 365.9 353.6 365.4 353.9 365.0 C 353.9 365.0 353.9 365.0 353.9 365.0 Z M 343.9 386.1 C 343.8 386.6 344.3 387.5 344.6 388.9 C 344.6 388.6 344.6 388.4 344.7 388.4 C 344.3 386.3 344.1 387.6 343.9 386.1 C 343.9 386.1 343.9 386.1 343.9 386.1 Z M 349.0 397.5 C 349.9 398.7 348.7 396.9 349.3 397.3 C 348.3 396.1 347.5 394.7 347.3 394.9 C 348.3 396.2 348.5 396.5 349.0 397.5 C 349.0 397.5 349.0 397.5 349.0 397.5 Z M 356.8 405.1 C 358.4 406.2 356.3 404.4 357.2 404.7 C 356.5 404.2 356.6 404.5 356.5 404.5 C 356.1 404.1 355.7 403.8 355.1 403.2 C 355.4 403.7 357.2 405.1 356.8 405.1 C 356.8 405.1 356.8 405.1 356.8 405.1 Z M 415.9 339.8 C 414.9 340.1 415.2 340.3 412.9 340.7 C 416.4 340.0 414.6 341.1 419.2 340.0 C 418.4 340.1 418.9 339.9 419.2 339.9 C 420.9 339.4 417.5 340.1 419.1 339.5 C 417.8 339.8 418.6 339.9 417.3 340.2 C 416.0 340.3 415.2 340.3 415.9 339.8 C 415.9 339.8 415.9 339.8 415.9 339.8 Z M 419.2 340.2 C 420.5 340.1 420.4 339.6 421.1 339.7 C 421.7 339.6 421.6 339.5 421.7 339.4 C 421.2 339.5 421.1 339.5 421.0 339.5 C 420.0 339.8 418.9 340.1 419.2 340.2 C 419.2 340.2 419.2 340.2 419.2 340.2 Z M 407.7 342.9 C 409.7 342.3 410.3 342.3 411.3 341.9 C 412.1 342.0 412.6 341.4 413.7 341.4 C 415.7 340.9 414.2 341.1 413.7 341.1 C 415.6 340.6 414.2 341.3 416.1 340.7 C 416.4 340.4 414.0 341.0 414.2 340.7 C 412.7 341.0 412.7 341.2 411.8 341.5 C 411.1 341.6 411.3 341.4 411.2 341.4 C 409.5 341.9 409.6 341.6 408.2 342.0 C 407.9 342.3 408.5 342.2 410.0 341.8 C 408.4 342.3 407.8 342.7 405.9 343.0 C 407.2 342.4 401.3 343.9 401.9 344.2 C 403.5 343.8 403.0 343.7 403.6 343.5 C 405.6 343.1 406.9 342.8 407.7 342.9 C 407.7 342.9 407.7 342.9 407.7 342.9 Z M 370.6 355.1 C 370.0 355.4 369.4 355.6 368.4 356.1 C 368.3 356.0 369.5 355.4 368.3 355.8 C 366.7 356.6 366.5 356.9 365.5 357.4 C 366.1 357.2 369.4 355.8 367.8 356.7 C 368.3 356.6 369.3 356.1 370.7 355.4 C 369.0 355.9 373.0 354.3 374.6 353.6 C 374.3 353.3 377.4 352.4 378.6 351.7 C 377.5 351.9 374.3 353.5 372.9 354.2 C 373.6 353.8 369.0 355.5 370.6 355.1 C 370.6 355.1 370.6 355.1 370.6 355.1 Z M 424.2 339.1 C 424.6 338.9 426.0 338.6 424.9 338.8 C 425.4 338.6 426.6 338.5 426.0 338.2 C 426.7 338.1 427.3 338.0 428.0 337.9 C 427.7 338.1 426.0 338.3 426.7 338.4 C 428.0 338.1 427.5 338.3 429.3 338.0 C 428.4 338.4 429.4 338.2 428.7 338.6 C 429.2 338.4 430.8 338.2 430.6 338.0 C 433.1 337.6 430.0 338.4 433.3 337.9 C 433.2 338.1 430.9 338.5 430.1 338.5 C 429.7 338.8 434.1 337.9 436.6 337.6 C 434.4 337.7 436.0 337.2 437.1 336.8 C 437.9 336.8 437.1 337.0 438.5 336.9 C 439.6 336.8 440.1 336.6 440.5 336.6 C 441.4 336.5 441.0 336.4 441.1 336.2 C 442.6 336.0 441.5 336.6 443.8 336.2 C 442.0 336.1 444.0 335.7 447.1 335.4 C 446.9 335.3 445.9 335.4 445.7 335.3 C 446.2 335.1 448.0 335.2 448.5 335.2 C 449.6 335.0 448.8 335.0 447.8 335.2 C 448.4 335.0 449.1 334.8 449.8 334.7 C 446.4 335.1 441.1 335.8 435.1 336.4 C 436.2 336.4 434.9 336.7 433.1 336.9 C 432.8 336.8 433.6 336.7 434.4 336.5 C 432.3 336.6 432.5 337.2 429.3 337.6 C 427.5 337.8 431.2 337.1 429.2 337.3 C 428.0 337.5 427.3 337.9 426.6 337.7 C 424.6 338.2 424.1 338.6 421.0 339.2 C 422.8 339.0 423.7 339.4 425.5 338.9 C 425.5 338.8 424.7 339.0 424.2 339.1 C 424.2 339.1 424.2 339.1 424.2 339.1 Z M 358.3 362.1 C 357.3 362.8 356.9 363.3 356.6 363.3 C 355.1 364.6 357.0 363.4 357.3 363.2 C 358.0 362.6 358.2 362.3 358.3 362.1 C 358.3 362.1 358.3 362.1 358.3 362.1 Z M 498.6 437.4 C 501.3 437.5 500.7 437.2 502.9 437.2 C 501.1 437.1 500.7 436.9 497.9 436.9 C 497.7 437.1 497.7 437.3 498.6 437.4 C 498.6 437.4 498.6 437.4 498.6 437.4 Z M 364.3 358.3 C 365.7 357.2 362.6 359.7 362.5 359.5 C 360.8 360.8 364.2 358.6 362.7 359.9 C 364.1 358.8 365.1 358.4 367.1 357.2 C 367.0 357.1 365.3 358.0 363.8 358.9 C 363.5 358.9 364.3 358.4 364.3 358.3 C 364.3 358.3 364.3 358.3 364.3 358.3 Z M 470.9 435.3 C 469.0 435.4 472.5 435.9 473.6 436.1 C 473.7 435.8 473.2 435.8 470.9 435.3 C 470.9 435.3 470.9 435.3 470.9 435.3 Z M 517.3 437.1 C 518.3 436.8 514.0 437.1 515.1 436.8 C 513.8 436.8 513.7 436.9 513.6 437.0 C 513.0 436.9 511.0 437.0 511.5 436.8 C 511.2 436.6 514.7 436.8 513.6 436.5 C 514.8 436.5 514.9 436.6 515.8 436.6 C 513.7 436.6 514.7 436.8 517.3 436.9 C 517.3 436.7 516.1 436.7 517.3 436.6 C 517.4 436.7 518.7 436.8 518.7 437.2 C 520.9 437.1 519.6 436.7 522.2 436.7 C 522.0 436.6 520.3 436.6 519.4 436.5 C 519.6 436.3 522.2 436.7 521.5 436.3 C 522.1 436.5 523.6 436.6 523.7 436.9 C 521.7 437.0 520.4 437.2 518.7 437.3 C 520.2 437.5 522.4 436.9 525.1 437.1 C 524.8 436.9 526.4 436.9 525.9 436.6 C 528.0 436.7 527.0 437.0 526.6 437.0 C 527.1 437.2 531.2 436.9 530.9 436.7 C 531.2 436.9 536.1 436.7 535.8 436.4 C 537.3 436.5 539.5 436.0 540.1 436.3 C 541.0 436.2 542.6 436.1 544.4 436.0 C 544.9 435.7 541.8 436.0 541.6 435.8 C 541.0 435.7 544.9 435.7 544.4 435.5 C 544.4 435.5 544.4 435.4 544.4 435.4 C 542.9 435.5 541.5 435.7 540.1 435.8 C 539.1 435.9 540.4 435.7 540.1 435.6 C 539.1 435.8 534.6 436.3 534.4 435.9 C 531.4 436.1 529.2 436.1 528.0 436.3 C 526.1 436.4 529.0 436.2 527.9 436.0 C 522.6 436.5 516.0 436.2 511.5 436.6 C 510.5 436.6 510.9 436.4 510.8 436.3 C 504.6 436.4 509.8 436.8 505.0 436.6 C 505.0 436.4 507.3 436.5 507.2 436.2 C 505.5 436.2 505.1 436.4 502.8 436.3 C 502.8 436.4 502.8 436.5 502.8 436.6 C 501.0 436.5 501.7 436.3 500.7 436.1 C 498.4 436.2 499.0 436.3 497.9 436.0 C 495.7 436.1 493.6 436.1 491.4 435.9 C 489.9 436.0 492.7 436.5 495.0 436.6 C 494.9 436.6 494.2 436.6 494.2 436.7 C 491.6 436.4 491.2 435.9 487.2 435.7 C 490.2 436.1 485.6 435.7 485.0 435.5 C 483.4 435.4 484.6 435.8 485.7 435.9 C 485.5 436.0 484.5 435.8 484.3 435.7 C 484.1 436.1 488.0 436.5 492.1 436.5 C 490.2 436.8 495.0 436.5 492.8 437.0 C 496.2 437.0 493.3 436.6 497.1 436.8 C 496.8 436.7 496.1 436.5 495.7 436.4 C 498.6 436.5 497.7 436.8 500.7 436.8 C 501.2 436.6 499.3 436.6 499.3 436.4 C 502.6 436.7 503.6 436.8 505.8 437.1 C 506.2 437.0 505.6 436.7 509.3 436.9 C 509.3 437.0 509.3 437.0 509.3 437.1 C 507.6 437.0 507.2 437.5 511.5 437.5 C 511.8 437.3 510.5 437.3 509.3 437.3 C 509.8 437.1 511.2 437.1 512.9 437.1 C 513.8 437.1 514.7 437.2 513.6 437.2 C 514.3 437.4 515.0 437.0 517.3 437.1 C 517.3 437.1 517.3 437.1 517.3 437.1 Z M 344.4 383.7 C 344.4 384.1 344.4 384.4 344.5 385.1 C 344.7 385.4 344.6 384.1 344.8 384.1 C 344.8 383.2 344.5 383.9 344.4 383.7 C 344.4 383.7 344.4 383.7 344.4 383.7 Z M 349.3 371.1 C 349.0 371.0 348.8 371.8 348.1 372.8 C 348.1 373.2 348.8 372.0 348.9 372.1 C 349.8 371.0 348.4 372.2 349.3 371.1 C 349.3 371.1 349.3 371.1 349.3 371.1 Z M 346.2 376.3 C 345.7 376.7 346.0 376.9 346.4 375.9 C 346.5 376.0 346.5 376.3 346.3 376.9 C 346.8 376.4 346.6 375.8 347.3 374.7 C 347.0 375.0 346.6 375.6 346.2 376.3 C 346.2 376.3 346.2 376.3 346.2 376.3 Z M 345.5 378.2 C 345.4 378.9 345.0 379.3 344.9 380.5 C 345.2 380.2 345.8 377.7 345.9 377.3 C 345.8 376.8 344.9 379.5 345.5 378.2 C 345.5 378.2 345.5 378.2 345.5 378.2 Z M 443.5 432.0 C 444.2 432.1 444.0 432.0 444.2 432.0 C 446.2 432.6 449.1 432.9 446.8 433.0 C 449.0 433.0 451.0 433.6 452.8 433.9 C 454.4 434.1 453.7 433.7 454.9 433.9 C 456.9 434.1 453.8 433.9 454.2 434.0 C 454.6 434.3 455.3 433.9 457.6 434.3 C 457.0 433.8 459.7 434.6 459.0 434.1 C 460.4 434.4 460.8 434.3 462.5 434.4 C 462.3 434.2 460.7 434.1 460.5 433.9 C 459.6 433.6 459.5 434.0 461.1 434.1 C 460.2 434.3 457.8 433.7 457.0 433.8 C 456.2 433.4 459.2 434.0 458.4 433.6 C 457.8 433.6 457.2 433.6 457.0 433.6 C 456.0 433.5 455.4 433.3 455.0 433.2 C 455.6 433.2 455.7 433.3 455.7 433.3 C 456.9 433.5 454.4 432.8 457.1 433.1 C 456.6 432.9 455.5 432.8 455.7 432.7 C 455.0 432.4 455.6 433.4 453.0 432.8 C 451.1 432.8 457.2 433.5 455.6 433.8 C 451.8 433.3 454.0 433.2 450.9 432.8 C 450.9 432.9 451.0 433.0 450.2 432.9 C 450.3 433.0 451.4 433.1 452.2 433.2 C 452.1 433.3 451.0 433.2 450.2 433.1 C 450.3 433.2 450.9 433.2 450.9 433.3 C 448.3 432.9 448.6 432.4 451.0 432.6 C 450.9 432.4 447.8 432.0 446.9 432.0 C 447.7 432.3 446.8 432.2 447.5 432.5 C 448.2 432.6 448.0 432.5 448.2 432.4 C 449.4 432.6 448.3 432.6 448.2 432.7 C 446.8 432.4 446.9 432.3 445.5 432.2 C 445.9 432.2 446.2 432.2 446.2 432.1 C 445.6 432.0 444.9 431.9 444.2 431.8 C 444.3 432.0 443.4 431.9 443.5 432.0 C 443.5 432.0 443.5 432.0 443.5 432.0 Z M 479.3 436.2 C 481.6 436.4 480.4 436.1 479.3 436.1 C 479.8 436.0 480.6 436.0 481.5 436.0 C 480.8 435.9 480.1 435.9 477.9 435.7 C 479.9 435.5 477.9 435.0 474.4 434.8 C 473.4 435.2 476.3 435.4 475.1 435.6 C 477.7 435.7 479.0 435.9 479.3 436.2 C 479.3 436.2 479.3 436.2 479.3 436.2 Z M 357.4 363.2 C 356.4 364.0 355.4 364.8 354.5 365.6 C 354.7 365.7 357.9 363.3 357.4 363.2 C 357.4 363.2 357.4 363.2 357.4 363.2 Z M 452.5 334.6 C 453.1 334.6 453.1 334.6 453.2 334.6 C 455.2 334.3 452.3 334.6 453.2 334.2 C 452.4 334.3 451.8 334.4 451.1 334.5 C 451.0 334.6 453.9 334.4 451.8 334.7 C 452.0 334.8 452.5 334.7 452.5 334.6 C 452.5 334.6 452.5 334.6 452.5 334.6 Z M 344.7 382.8 C 344.8 383.6 345.0 383.1 345.0 385.1 C 345.2 384.3 345.1 383.9 345.1 382.8 C 345.0 382.8 344.8 382.8 344.7 382.8 C 344.7 382.8 344.7 382.8 344.7 382.8 Z M 433.6 430.9 C 435.2 431.4 435.7 431.0 438.8 431.6 C 437.3 431.0 435.4 431.1 433.6 430.9 C 433.6 430.9 433.6 430.9 433.6 430.9 Z M 550.0 435.2 C 549.0 435.2 550.3 435.1 548.6 435.1 C 547.6 435.2 547.2 435.4 545.8 435.5 C 547.8 435.6 551.3 435.1 552.8 435.4 C 554.5 435.2 554.4 435.0 554.9 434.8 C 554.1 434.9 553.7 434.9 553.5 434.8 C 552.5 435.2 551.2 434.8 550.0 435.2 C 550.0 435.2 550.0 435.2 550.0 435.2 Z M 470.2 435.2 C 468.9 434.9 471.1 435.0 471.6 434.9 C 472.5 435.0 472.2 435.1 472.3 435.3 C 473.6 435.3 473.9 435.3 473.7 435.1 C 471.4 434.8 468.5 434.6 470.3 434.4 C 468.0 434.1 469.2 434.6 468.1 434.5 C 466.9 434.3 468.1 434.3 468.2 434.1 C 467.6 434.1 465.9 434.2 466.1 433.9 C 462.7 433.9 464.2 434.4 466.6 435.0 C 468.9 435.0 466.3 434.7 470.2 435.2 C 470.2 435.2 470.2 435.2 470.2 435.2 Z M 386.4 418.8 C 386.6 419.0 388.3 419.5 388.3 419.6 C 390.4 420.1 392.3 420.5 394.3 420.9 C 394.0 420.5 391.2 419.9 392.3 420.4 C 391.5 420.0 389.6 419.3 388.6 418.7 C 386.6 418.0 385.9 418.3 385.7 417.8 C 383.9 417.3 384.9 417.7 382.1 416.5 C 386.5 418.5 380.6 416.1 380.2 416.2 C 382.7 417.2 385.0 418.1 384.8 417.7 C 386.7 418.5 388.9 419.4 389.3 419.7 C 389.1 419.8 387.5 419.2 386.4 418.8 C 386.4 418.8 386.4 418.8 386.4 418.8 Z M 396.8 421.5 C 396.3 421.4 395.9 421.3 395.2 421.0 C 395.6 421.2 395.7 421.4 395.6 421.5 C 397.0 421.9 397.4 421.9 397.8 422.3 C 399.1 422.7 397.6 421.8 399.6 422.5 C 399.4 422.4 398.4 422.1 398.5 422.0 C 398.2 422.1 397.4 421.9 396.8 421.5 C 396.8 421.5 396.8 421.5 396.8 421.5 Z M 414.7 426.6 C 416.3 427.0 413.9 426.3 414.8 426.3 C 414.4 426.2 411.4 425.5 411.9 425.4 C 411.1 424.9 407.9 424.8 408.3 424.4 C 407.6 424.3 407.8 424.5 407.6 424.5 C 409.7 425.0 409.7 425.2 408.2 424.8 C 408.4 425.0 409.7 425.3 410.5 425.5 C 410.7 425.4 409.9 425.1 410.0 425.0 C 411.8 425.6 413.1 426.1 414.7 426.6 C 414.7 426.6 414.7 426.6 414.7 426.6 Z M 529.7 332.0 C 528.0 331.9 526.9 331.9 526.1 332.0 C 526.6 332.1 527.4 332.0 528.3 332.1 C 528.5 332.2 527.7 332.2 526.8 332.2 C 527.6 332.4 530.6 332.3 529.7 332.0 C 529.7 332.0 529.7 332.0 529.7 332.0 Z M 515.3 331.7 C 513.7 331.7 512.7 331.7 512.5 331.9 C 513.1 332.0 512.9 331.8 513.9 331.8 C 514.6 331.9 515.0 332.0 515.3 332.1 C 516.0 332.1 515.9 332.0 516.1 331.9 C 516.7 331.9 516.7 331.9 516.8 332.0 C 518.8 331.8 514.5 332.0 515.3 331.7 C 515.3 331.7 515.3 331.7 515.3 331.7 Z M 404.7 424.0 C 404.2 423.8 403.8 423.5 402.4 423.2 C 402.7 423.4 401.6 423.1 400.7 422.8 C 401.9 423.4 402.6 423.5 404.7 424.0 C 404.7 424.0 404.7 424.0 404.7 424.0 Z M 428.8 338.8 C 426.8 338.9 427.1 339.3 424.3 339.6 C 424.3 339.7 424.3 339.8 424.4 339.9 C 426.0 339.4 426.8 339.4 428.8 338.8 C 428.8 338.8 428.8 338.8 428.8 338.8 Z M 676.2 392.5 C 676.1 392.3 675.5 393.6 675.3 393.7 C 675.5 394.1 674.7 394.4 672.9 396.9 C 672.8 396.8 672.8 396.6 673.1 396.3 C 671.5 398.2 673.7 395.9 674.1 395.8 C 675.1 394.2 675.5 394.1 676.2 392.5 C 676.2 392.5 676.2 392.5 676.2 392.5 Z M 528.7 435.6 C 528.6 435.7 529.0 435.7 529.4 435.7 C 529.9 435.7 530.4 435.6 530.8 435.6 C 530.6 435.3 528.3 435.2 530.1 434.8 C 529.4 434.8 529.4 434.9 529.4 434.9 C 525.9 435.8 523.2 434.7 518.6 435.2 C 517.9 435.2 518.1 435.3 517.9 435.4 C 518.5 435.3 518.6 435.4 518.6 435.4 C 519.2 435.1 523.3 435.4 521.5 435.5 C 521.7 435.6 522.2 435.6 522.2 435.5 C 522.7 435.5 523.2 435.5 523.7 435.5 C 523.4 435.4 522.4 435.4 522.2 435.3 C 524.5 435.3 527.3 435.4 525.8 435.7 C 527.2 435.6 527.7 435.5 528.7 435.4 C 529.6 435.4 529.6 435.6 528.7 435.6 C 528.7 435.6 528.7 435.6 528.7 435.6 Z M 547.1 434.6 C 549.3 434.5 548.5 434.3 550.7 434.2 C 549.3 434.1 547.6 434.5 545.7 434.5 C 546.0 434.6 547.0 434.5 547.1 434.6 C 547.1 434.6 547.1 434.6 547.1 434.6 Z M 505.8 435.4 C 506.2 435.1 504.3 435.1 502.2 435.1 C 501.7 435.3 503.6 435.4 505.8 435.4 C 505.8 435.4 505.8 435.4 505.8 435.4 Z M 515.1 435.5 C 517.2 435.4 512.4 435.4 513.6 435.1 C 512.6 435.2 511.6 435.2 511.5 435.1 C 510.8 435.1 510.8 435.3 509.4 435.2 C 509.4 435.4 511.7 435.3 511.5 435.5 C 513.1 435.3 513.4 435.3 515.1 435.5 C 515.1 435.5 515.1 435.5 515.1 435.5 Z M 516.5 435.4 C 517.9 435.4 516.1 435.0 514.4 435.0 C 515.0 435.2 515.4 435.3 516.5 435.4 C 516.5 435.4 516.5 435.4 516.5 435.4 Z M 357.3 402.5 C 358.0 403.0 357.6 402.4 358.4 403.0 C 358.5 402.9 355.6 400.7 358.0 402.5 C 357.3 401.6 356.6 401.6 355.7 400.6 C 355.9 400.9 356.1 401.2 355.5 400.8 C 355.1 400.6 357.8 402.6 357.3 402.5 C 357.3 402.5 357.3 402.5 357.3 402.5 Z M 360.4 404.8 C 361.0 405.2 360.7 404.9 360.4 404.7 C 360.6 404.7 361.5 405.4 362.2 405.8 C 362.2 405.9 361.2 404.7 361.3 404.6 C 358.4 402.8 360.4 404.5 360.4 404.8 C 360.4 404.8 360.4 404.8 360.4 404.8 Z M 363.3 406.5 C 365.2 408.0 368.2 409.6 369.9 410.2 C 368.4 409.0 364.4 406.9 363.3 406.5 C 363.3 406.5 363.3 406.5 363.3 406.5 Z M 349.5 393.5 C 350.7 396.1 355.0 400.5 351.7 396.2 C 351.7 396.4 349.5 393.7 348.9 392.2 C 348.8 392.2 347.9 390.8 348.0 390.7 C 347.4 389.7 349.6 394.2 349.5 393.5 C 349.5 393.5 349.5 393.5 349.5 393.5 Z M 372.9 411.2 C 371.7 410.7 373.0 411.9 371.3 410.8 C 370.2 410.3 371.5 411.0 371.2 411.0 C 373.4 412.2 378.6 414.1 379.0 414.6 C 380.3 415.0 380.7 415.0 383.3 416.1 C 383.4 416.0 374.4 412.6 372.9 411.3 C 373.1 411.3 376.0 412.7 372.9 411.2 C 372.9 411.2 372.9 411.2 372.9 411.2 Z M 429.0 340.2 C 429.2 340.0 426.5 340.6 427.1 340.3 C 425.7 340.8 424.3 340.9 422.8 341.4 C 422.3 341.4 422.4 341.0 420.2 341.4 C 420.2 341.7 421.2 341.4 420.2 341.8 C 418.3 342.2 418.7 341.8 416.5 342.4 C 416.9 342.7 411.8 343.5 412.4 343.8 C 413.5 343.5 413.4 343.3 415.4 343.0 C 416.0 342.8 415.8 343.0 416.6 342.9 C 416.1 343.2 415.0 343.1 414.2 343.5 C 414.4 343.6 415.9 343.3 416.1 343.4 C 417.0 343.2 415.8 343.3 416.0 343.1 C 418.4 342.6 416.0 343.7 418.6 343.1 C 418.0 343.0 418.0 343.0 418.5 342.6 C 419.5 342.5 422.7 341.7 421.0 342.3 C 421.2 342.5 423.1 341.8 422.8 341.7 C 423.8 341.5 424.0 341.6 424.1 341.6 C 426.7 341.0 427.1 340.8 426.5 340.6 C 427.0 340.3 427.4 340.6 429.0 340.2 C 429.0 340.2 429.0 340.2 429.0 340.2 Z M 347.1 380.5 C 347.1 379.5 346.9 381.5 346.7 382.5 C 346.9 381.3 347.2 381.7 347.5 380.5 C 347.3 381.0 347.2 380.9 347.4 380.1 C 347.3 379.9 346.9 381.6 347.1 380.5 C 347.1 380.5 347.1 380.5 347.1 380.5 Z M 388.8 418.1 C 389.8 418.6 395.0 420.1 396.5 420.6 C 396.4 420.4 395.6 420.2 393.8 419.7 C 392.0 419.1 390.1 418.6 389.8 418.2 C 388.3 417.7 390.6 418.6 388.8 418.1 C 388.8 418.1 388.8 418.1 388.8 418.1 Z M 405.8 345.0 C 405.1 345.1 405.5 345.1 405.8 345.0 C 405.6 345.2 404.4 345.5 403.5 345.7 C 404.8 345.5 403.3 346.0 403.6 346.2 C 402.9 346.4 402.6 346.5 402.5 346.6 C 402.4 346.1 399.0 347.8 402.6 346.9 C 401.9 346.8 402.2 346.8 403.6 346.3 C 405.3 346.0 406.6 345.5 407.2 345.6 C 408.3 345.3 408.6 345.0 410.1 344.7 C 410.5 344.8 411.8 344.6 410.8 345.2 C 413.4 344.6 411.5 344.4 413.7 343.8 C 415.7 343.5 412.7 344.4 413.2 344.4 C 413.7 344.3 413.6 344.4 413.8 344.5 C 414.6 344.3 414.5 344.1 413.8 344.2 C 414.0 344.1 416.0 343.4 415.5 343.8 C 416.7 343.4 413.5 343.5 411.8 344.2 C 410.9 344.5 410.8 344.0 411.7 343.8 C 411.4 343.7 409.5 344.7 409.9 344.1 C 409.1 344.3 408.4 344.5 407.6 344.7 C 407.7 344.7 408.2 344.6 408.2 344.7 C 407.4 344.9 406.6 345.1 405.8 345.3 C 406.5 345.0 406.5 344.9 405.8 345.0 C 405.8 345.0 405.8 345.0 405.8 345.0 Z M 377.4 413.6 C 379.5 414.5 380.0 414.5 381.7 415.2 C 381.1 414.7 376.6 413.0 377.4 413.6 C 377.4 413.6 377.4 413.6 377.4 413.6 Z M 440.2 339.1 C 440.0 339.1 438.8 339.3 438.8 339.2 C 440.9 338.8 438.5 339.0 440.1 338.3 C 437.5 338.9 436.7 339.6 440.2 339.3 C 442.8 338.9 437.6 339.6 440.2 339.1 C 440.2 339.1 440.2 339.1 440.2 339.1 Z M 432.3 340.2 C 430.8 340.6 434.7 340.0 435.6 340.0 C 435.6 340.1 435.7 340.2 435.7 340.2 C 437.8 339.5 434.8 339.9 436.8 339.1 C 434.2 339.4 433.1 339.5 431.0 340.0 C 431.1 340.0 431.6 339.9 431.6 339.9 C 433.2 339.6 432.2 340.1 430.4 340.3 C 430.9 340.3 432.5 340.1 433.6 339.9 C 433.3 339.9 432.9 339.9 432.9 339.8 C 434.3 339.5 433.9 339.8 434.9 339.6 C 434.9 339.7 432.4 340.4 432.3 340.2 C 432.3 340.2 432.3 340.2 432.3 340.2 Z M 569.5 336.7 C 568.1 336.5 570.9 337.2 570.7 337.5 C 572.1 337.7 572.5 337.7 573.4 337.8 C 573.0 337.6 571.4 337.4 570.7 337.1 C 571.0 336.9 572.8 337.4 573.5 337.3 C 574.4 337.1 570.0 337.0 569.5 336.7 C 569.5 336.7 569.5 336.7 569.5 336.7 Z M 371.1 357.8 C 370.3 358.2 370.7 358.1 371.1 357.9 C 371.0 358.1 369.8 358.7 369.7 358.6 C 368.7 359.2 370.4 358.4 369.1 359.1 C 368.9 359.4 371.1 358.1 371.1 358.0 C 372.7 357.2 371.6 358.1 372.1 357.9 C 373.5 357.3 372.9 357.3 375.0 356.4 C 373.6 356.8 372.5 357.2 371.1 357.8 C 371.1 357.8 371.1 357.8 371.1 357.8 Z M 444.7 338.0 C 444.9 337.8 443.2 338.6 441.4 338.6 C 439.1 339.0 442.9 338.7 440.8 338.9 C 442.6 338.7 444.7 338.2 447.4 337.9 C 448.0 337.6 443.6 338.3 446.1 337.9 C 445.9 337.8 445.4 337.9 445.4 338.0 C 444.8 338.1 444.8 338.0 444.7 338.0 C 444.7 338.0 444.7 338.0 444.7 338.0 Z M 442.1 338.9 C 442.3 339.0 442.8 338.9 442.8 338.8 C 443.7 338.7 443.7 338.9 442.9 339.0 C 444.0 339.2 443.9 338.7 446.2 338.5 C 445.2 338.4 444.7 338.4 446.8 338.3 C 448.4 337.8 442.9 338.6 442.1 338.9 C 442.1 338.9 442.1 338.9 442.1 338.9 Z M 547.3 334.8 C 547.5 334.9 549.0 335.0 550.1 335.1 C 548.7 335.2 543.1 334.7 542.4 334.5 C 541.8 334.5 541.1 334.5 540.9 334.4 C 541.0 334.5 539.4 334.5 540.2 334.6 C 540.1 334.7 538.9 334.6 538.9 334.7 C 536.7 334.6 539.5 334.6 538.9 334.4 C 536.3 334.5 536.9 334.3 533.9 334.2 C 534.4 334.4 537.7 334.5 537.4 334.8 C 539.8 334.7 542.3 335.0 543.7 335.3 C 541.6 334.8 549.8 335.2 553.6 335.5 C 553.4 335.7 554.8 335.7 556.3 336.0 C 557.4 336.3 557.1 335.8 555.0 335.7 C 555.1 335.6 557.9 335.9 559.1 336.0 C 557.7 335.7 558.5 335.7 557.8 335.6 C 555.1 335.3 557.5 335.6 557.0 335.7 C 556.4 335.7 555.7 335.6 554.9 335.6 C 558.6 335.5 549.7 335.1 552.9 335.3 C 550.1 335.1 550.0 334.9 547.3 334.8 C 547.3 334.8 547.3 334.8 547.3 334.8 Z M 480.5 334.5 C 480.0 334.6 477.8 334.9 477.7 334.7 C 474.8 335.1 477.3 335.1 474.1 335.3 C 474.4 335.4 475.6 335.3 475.6 335.4 C 476.8 335.2 478.0 335.1 477.7 334.8 C 479.1 334.8 479.5 334.7 480.5 334.6 C 480.1 334.7 479.6 334.8 478.4 334.9 C 478.2 335.1 478.7 335.2 480.5 335.1 C 481.3 334.8 480.8 334.7 480.5 334.5 C 480.5 334.5 480.5 334.5 480.5 334.5 Z M 473.5 335.3 C 473.1 335.3 472.7 335.2 472.8 335.1 C 471.7 334.9 472.4 335.5 471.4 335.5 C 470.5 335.6 470.8 335.4 470.7 335.3 C 469.4 335.5 468.5 335.6 467.9 335.6 C 466.0 335.9 470.1 335.6 470.7 335.7 C 472.0 335.6 471.5 335.4 473.5 335.3 C 473.5 335.3 473.5 335.3 473.5 335.3 Z M 452.8 337.0 C 452.4 336.8 451.7 337.3 450.8 337.4 C 451.5 337.5 453.4 337.1 452.2 337.6 C 454.1 337.4 454.3 337.4 456.2 337.1 C 457.5 337.2 456.3 336.9 454.2 337.3 C 454.4 337.1 455.4 337.0 455.5 336.9 C 456.9 337.2 460.2 336.1 458.2 336.7 C 457.6 336.7 457.2 336.6 456.9 336.6 C 456.4 336.8 451.8 337.3 452.8 337.0 C 452.8 337.0 452.8 337.0 452.8 337.0 Z M 388.5 351.0 C 390.4 350.4 391.4 350.0 392.4 349.7 C 393.3 349.4 394.8 349.0 395.9 348.7 C 396.0 348.7 395.8 348.8 395.4 349.0 C 395.9 348.9 396.6 348.7 397.5 348.3 C 397.5 348.3 397.0 348.4 397.0 348.5 C 395.2 348.9 396.7 348.4 396.9 348.1 C 394.7 348.6 391.1 350.2 389.4 350.4 C 388.0 351.0 389.7 350.5 388.5 351.0 C 388.5 351.0 388.5 351.0 388.5 351.0 Z M 675.1 390.0 C 675.1 390.3 674.8 390.9 675.0 390.9 C 675.3 390.3 675.4 389.9 675.5 389.3 C 675.1 390.3 674.9 390.1 674.1 391.4 C 674.5 391.0 674.7 391.3 675.1 390.0 C 675.1 390.0 675.1 390.0 675.1 390.0 Z M 459.6 336.4 C 459.7 336.5 459.8 336.6 459.0 336.7 C 458.7 336.9 460.9 336.6 461.0 336.7 C 461.7 336.6 461.4 336.5 462.4 336.4 C 462.0 336.3 460.2 336.5 460.9 336.2 C 461.5 336.1 461.6 336.2 461.7 336.2 C 463.1 336.0 460.9 336.1 459.6 336.4 C 459.6 336.4 459.6 336.4 459.6 336.4 Z M 576.1 337.7 C 575.2 337.6 576.1 337.9 576.8 338.0 C 574.8 338.0 578.0 338.5 578.1 338.8 C 577.2 338.5 574.5 338.2 574.1 338.1 C 573.3 338.1 574.2 338.4 572.0 338.2 C 572.3 338.4 574.6 338.5 574.1 338.3 C 574.6 338.6 577.0 338.6 576.7 338.9 C 579.7 339.3 580.4 339.2 580.7 339.0 C 577.8 338.7 579.4 338.5 576.8 338.2 C 576.8 338.1 577.6 338.3 578.1 338.3 C 577.9 338.1 576.8 337.9 576.1 337.7 C 576.1 337.7 576.1 337.7 576.1 337.7 Z M 503.2 333.8 C 501.6 333.8 501.7 334.0 501.8 334.2 C 502.4 334.2 503.4 334.1 504.6 334.1 C 504.3 334.0 502.4 334.1 503.2 333.8 C 503.2 333.8 503.2 333.8 503.2 333.8 Z M 565.3 336.8 C 565.2 336.7 564.6 336.7 564.6 336.7 C 562.9 336.5 562.5 336.4 561.9 336.2 C 561.0 336.1 561.3 336.3 561.2 336.4 C 562.8 336.4 562.5 336.7 564.6 336.9 C 564.5 336.8 564.7 336.7 565.3 336.8 C 565.3 336.8 565.3 336.8 565.3 336.8 Z M 518.2 333.9 C 517.4 333.9 517.8 334.0 518.2 334.0 C 517.2 334.3 514.3 334.0 513.2 334.1 C 513.0 334.3 516.7 334.3 512.5 334.4 C 513.2 334.6 517.0 334.4 518.9 334.5 C 518.5 334.7 515.9 334.7 516.0 334.9 C 518.3 334.8 520.7 334.7 521.0 334.4 C 517.8 334.3 519.0 334.1 518.2 333.9 C 518.2 333.9 518.2 333.9 518.2 333.9 Z M 521.7 334.1 C 521.5 334.0 520.8 334.2 519.7 334.1 C 521.4 334.4 522.4 334.3 526.0 334.5 C 526.0 334.4 526.0 334.4 526.0 334.3 C 526.7 334.3 527.5 334.4 528.2 334.4 C 525.1 334.0 524.3 334.2 521.0 334.2 C 520.9 334.1 521.3 334.1 521.7 334.1 C 521.7 334.1 521.7 334.1 521.7 334.1 Z M 429.2 340.9 C 430.0 340.9 430.8 340.9 432.4 340.7 C 432.2 340.5 431.3 340.5 429.2 340.9 C 429.2 340.9 429.2 340.9 429.2 340.9 Z M 568.0 337.2 C 569.9 337.3 566.2 337.0 567.3 337.4 C 568.7 337.6 570.3 337.9 570.6 338.2 C 573.4 338.2 567.6 337.5 568.0 337.2 C 568.0 337.2 568.0 337.2 568.0 337.2 Z M 555.6 336.6 C 554.8 336.5 554.8 336.1 555.6 336.4 C 557.6 336.6 554.0 336.1 557.0 336.4 C 555.7 336.2 552.8 335.8 551.4 335.8 C 551.5 336.1 554.1 336.2 554.2 336.4 C 554.3 336.5 553.9 336.4 553.5 336.4 C 553.8 336.5 554.4 336.4 555.6 336.6 C 555.6 336.6 555.6 336.6 555.6 336.6 Z M 545.2 335.4 C 546.3 335.6 547.7 335.8 550.1 336.0 C 548.5 335.7 547.6 335.4 545.2 335.4 C 545.2 335.4 545.2 335.4 545.2 335.4 Z M 668.7 370.1 C 667.8 369.2 668.4 370.2 668.5 370.4 C 669.4 371.3 669.5 371.1 670.3 372.2 C 670.2 371.7 669.1 370.9 668.7 370.1 C 668.7 370.1 668.7 370.1 668.7 370.1 Z M 671.5 373.6 C 671.5 373.8 672.5 375.1 672.4 375.2 C 673.3 375.7 673.2 377.3 673.5 377.1 C 673.6 377.4 673.7 377.7 673.9 378.2 C 673.9 377.0 672.4 374.7 671.5 373.6 C 671.5 373.6 671.5 373.6 671.5 373.6 Z M 533.1 335.3 C 531.2 335.1 533.6 335.7 531.7 335.5 C 531.6 335.6 535.3 335.8 533.1 335.8 C 536.0 336.1 532.9 335.3 533.1 335.3 C 533.1 335.3 533.1 335.3 533.1 335.3 Z M 498.2 335.3 C 498.4 335.1 495.7 335.3 494.7 335.3 C 494.7 335.4 495.5 335.3 496.1 335.3 C 495.8 335.4 495.5 335.5 494.7 335.5 C 495.3 335.7 497.2 335.3 498.2 335.3 C 498.2 335.3 498.2 335.3 498.2 335.3 Z M 536.9 331.3 C 538.0 331.5 539.6 331.8 540.4 331.5 C 541.6 331.8 539.6 331.8 541.1 332.0 C 543.1 332.0 542.1 332.1 545.4 332.2 C 544.7 332.5 547.1 332.6 547.5 332.8 C 546.2 332.8 544.5 332.4 543.9 332.6 C 545.0 332.7 544.4 332.9 543.9 332.7 C 541.8 332.4 546.5 332.5 543.9 332.2 C 543.1 332.5 539.4 331.7 536.9 331.6 C 537.8 331.4 535.0 331.2 536.9 331.3 C 536.9 331.3 536.9 331.3 536.9 331.3 Z M 549.6 332.5 C 551.3 332.6 552.1 333.2 551.6 333.1 C 551.7 333.0 549.7 332.9 549.5 333.0 C 550.0 333.0 550.4 333.1 550.3 333.1 C 547.1 332.8 548.2 332.7 547.5 332.5 C 549.2 332.5 549.7 332.7 550.3 332.6 C 549.9 332.6 549.5 332.6 549.6 332.5 C 549.6 332.5 549.6 332.5 549.6 332.5 Z M 585.2 340.5 C 584.9 340.3 584.5 340.4 583.9 340.3 C 583.8 340.0 580.4 340.0 580.0 339.7 C 580.8 339.7 582.5 339.9 583.3 339.9 C 582.4 339.8 582.2 339.7 581.3 339.6 C 581.5 339.4 583.4 339.7 584.0 339.6 C 584.1 339.8 585.1 339.8 585.3 339.9 C 582.7 339.7 586.7 340.7 585.2 340.5 C 585.2 340.5 585.2 340.5 585.2 340.5 Z M 516.8 335.2 C 516.5 335.4 519.6 336.0 516.8 336.3 C 516.2 336.1 515.8 335.9 516.0 335.6 C 514.3 335.7 513.5 335.5 512.5 335.7 C 509.2 335.0 515.0 335.8 516.8 335.2 C 516.8 335.2 516.8 335.2 516.8 335.2 Z M 505.3 335.5 C 505.9 335.2 504.3 335.3 504.6 335.1 C 506.0 335.2 510.5 334.9 508.9 335.1 C 507.5 335.2 507.5 335.4 505.3 335.5 C 505.3 335.5 505.3 335.5 505.3 335.5 Z M 426.3 427.3 C 424.2 427.1 423.2 426.5 424.4 426.6 C 423.9 426.8 427.0 427.2 426.3 427.3 C 426.3 427.3 426.3 427.3 426.3 427.3 Z M 349.5 399.4 C 350.5 400.8 351.3 401.4 351.3 401.7 C 350.1 400.5 350.3 400.5 349.4 399.5 C 349.2 399.5 348.6 398.9 348.6 398.7 C 349.1 399.3 349.1 399.0 349.5 399.4 C 349.5 399.4 349.5 399.4 349.5 399.4 Z M 462.0 332.1 C 461.7 332.0 460.9 332.0 461.3 331.8 C 463.4 331.7 465.7 331.3 467.5 331.0 C 467.5 331.1 467.5 331.2 467.5 331.3 C 464.2 331.5 463.3 331.8 462.0 332.1 C 462.0 332.1 462.0 332.1 462.0 332.1 Z M 457.7 332.0 C 457.4 332.2 458.6 332.4 457.1 332.5 C 457.1 332.3 454.5 332.4 455.7 332.2 C 456.1 332.3 456.8 332.2 457.7 332.0 C 457.7 332.0 457.7 332.0 457.7 332.0 Z M 576.6 334.5 C 578.2 334.7 575.9 334.2 575.9 334.1 C 577.1 334.3 578.8 334.6 579.3 334.7 C 578.1 334.6 577.2 334.9 576.6 334.5 C 576.6 334.5 576.6 334.5 576.6 334.5 Z M 551.0 332.5 C 547.4 332.3 549.0 332.0 545.4 331.7 C 546.9 331.6 550.1 331.9 551.1 331.7 C 550.9 331.9 551.8 332.0 551.7 332.1 C 550.4 332.0 550.2 331.9 548.9 331.8 C 549.4 332.1 549.4 332.0 548.9 332.2 C 549.9 332.3 550.5 332.3 551.0 332.3 C 550.7 332.4 552.0 332.6 551.0 332.5 C 551.0 332.5 551.0 332.5 551.0 332.5 Z M 575.8 335.1 C 577.2 335.2 578.3 335.7 577.2 335.5 C 577.0 335.3 576.0 335.4 575.8 335.3 C 577.8 335.4 574.2 334.9 575.2 334.9 C 576.4 335.0 576.8 335.0 576.5 334.8 C 577.3 334.9 578.5 335.0 578.5 335.1 C 578.0 335.1 577.2 335.0 577.2 335.0 C 577.6 335.1 578.0 335.2 577.9 335.2 C 576.7 335.0 576.2 335.0 575.8 335.1 C 575.8 335.1 575.8 335.1 575.8 335.1 Z M 566.3 334.0 C 568.2 334.2 568.4 334.4 569.0 334.7 C 566.5 334.3 566.1 334.0 564.3 333.6 C 566.3 333.9 568.4 333.8 569.1 334.0 C 568.1 334.0 566.5 333.8 566.3 334.0 C 566.3 334.0 566.3 334.0 566.3 334.0 Z M 604.7 427.6 C 603.2 427.8 601.9 427.9 600.3 428.1 C 599.8 428.4 602.9 428.3 601.6 428.4 C 599.9 428.8 601.0 428.2 599.6 428.5 C 601.1 428.5 593.7 429.9 593.3 429.6 C 594.4 429.4 594.8 429.3 594.5 429.2 C 597.5 428.7 598.6 428.2 600.8 427.7 C 602.5 427.7 607.1 426.9 609.5 426.0 C 611.2 426.1 613.9 424.9 616.1 424.7 C 616.7 424.5 614.3 424.9 616.0 424.4 C 617.3 424.4 616.4 424.7 617.9 424.4 C 618.0 424.3 617.6 424.2 618.4 424.0 C 618.3 424.2 619.3 423.9 619.7 423.9 C 616.5 424.7 619.9 424.2 617.4 424.9 C 616.4 425.1 618.4 424.2 615.6 425.0 C 614.5 425.3 613.6 425.6 613.9 425.8 C 613.0 426.0 612.6 426.1 612.1 426.3 C 613.1 425.7 608.0 427.3 610.2 426.5 C 610.4 426.4 612.1 426.1 613.2 425.7 C 612.1 425.7 610.9 426.1 609.0 426.7 C 608.2 426.7 609.3 426.4 608.3 426.5 C 606.9 427.0 608.9 426.7 607.8 427.1 C 608.3 427.0 609.0 426.8 609.0 426.9 C 606.4 427.2 605.4 427.7 604.1 428.0 C 605.0 427.6 602.6 428.1 604.7 427.6 C 604.7 427.6 604.7 427.6 604.7 427.6 Z M 625.9 422.0 C 626.5 421.9 627.0 421.7 627.6 421.5 C 627.8 421.7 625.6 422.4 627.1 422.1 C 624.7 422.8 627.2 421.8 625.9 422.0 C 625.9 422.0 625.9 422.0 625.9 422.0 Z M 614.2 424.2 C 613.2 424.2 613.8 424.6 613.0 424.8 C 614.5 424.4 615.8 424.0 616.0 424.3 C 614.3 424.6 613.6 424.8 611.8 425.3 C 613.4 424.5 609.9 425.4 609.3 425.3 C 610.6 424.9 611.7 424.6 613.5 424.2 C 613.2 424.3 615.8 423.8 614.2 424.2 C 614.2 424.2 614.2 424.2 614.2 424.2 Z M 618.8 422.7 C 619.1 422.8 621.6 422.0 621.1 422.4 C 619.6 422.8 619.1 423.0 619.5 423.1 C 618.3 423.5 618.1 423.4 617.1 423.7 C 616.4 423.5 618.3 423.1 618.8 422.8 C 618.4 422.9 618.1 422.9 618.8 422.7 C 618.8 422.7 618.8 422.7 618.8 422.7 Z M 668.2 398.4 C 668.7 398.2 667.0 399.7 666.6 399.9 C 667.3 399.7 667.1 399.9 666.0 401.0 C 666.2 400.3 664.6 401.8 663.3 402.4 C 663.1 402.8 664.7 401.8 662.9 403.1 C 661.5 404.0 660.3 405.0 657.8 406.5 C 657.2 406.6 658.2 405.9 658.8 405.4 C 657.2 406.5 657.6 406.0 656.3 406.8 C 656.6 406.7 655.6 407.4 655.1 407.5 C 657.3 406.2 651.8 408.9 654.2 407.5 C 654.4 407.5 655.0 407.2 655.5 406.8 C 655.0 407.5 658.1 405.6 658.8 405.4 C 659.7 404.2 662.7 402.5 665.5 400.4 C 665.8 400.4 665.0 401.1 665.7 400.6 C 665.7 400.4 666.6 399.7 666.9 399.3 C 667.0 399.5 667.3 399.2 667.9 398.8 C 667.9 398.7 667.9 398.6 668.2 398.4 C 668.2 398.4 668.2 398.4 668.2 398.4 Z M 491.5 433.3 C 491.7 432.9 487.1 432.9 485.8 433.0 C 486.1 432.6 494.1 433.0 491.5 433.3 C 491.5 433.3 491.5 433.3 491.5 433.3 Z M 519.3 433.3 C 518.1 433.4 519.0 433.6 517.9 433.6 C 517.9 433.4 515.1 433.9 515.1 433.6 C 516.4 433.4 517.2 433.4 519.3 433.3 C 519.3 433.3 519.3 433.3 519.3 433.3 Z M 544.9 432.5 C 542.8 432.6 546.0 432.5 545.6 432.6 C 543.8 432.7 542.0 432.8 542.1 432.6 C 543.7 432.6 544.7 432.3 544.9 432.5 C 544.9 432.5 544.9 432.5 544.9 432.5 Z M 506.5 433.1 C 504.8 433.0 507.6 432.7 507.9 432.9 C 506.0 433.0 509.2 433.1 510.8 433.1 C 510.7 433.4 510.0 433.3 510.8 433.5 C 508.2 433.7 510.3 433.3 508.6 433.3 C 507.4 433.5 508.7 433.4 508.6 433.6 C 507.9 433.6 507.2 433.6 506.5 433.6 C 506.5 433.5 506.5 433.3 506.5 433.2 C 507.3 433.2 508.2 433.2 507.9 433.1 C 507.2 433.0 507.1 433.1 506.5 433.1 C 506.5 433.1 506.5 433.1 506.5 433.1 Z M 633.2 416.4 C 631.7 416.9 633.1 416.6 634.2 416.2 C 634.4 416.0 635.2 415.3 636.8 414.9 C 633.4 416.4 638.0 414.9 636.1 415.7 C 635.2 415.8 633.2 416.8 631.3 417.3 C 630.5 417.4 632.3 416.4 633.2 416.4 C 633.2 416.4 633.2 416.4 633.2 416.4 Z M 639.6 414.2 C 639.5 414.2 638.8 414.4 637.8 414.8 C 638.9 414.2 637.3 414.8 638.6 414.2 C 638.5 414.3 643.1 412.6 640.4 413.8 C 638.0 414.5 641.2 413.6 642.2 413.2 C 641.1 413.7 639.1 414.7 638.7 414.7 C 639.3 414.4 639.8 414.2 639.6 414.2 C 639.6 414.2 639.6 414.2 639.6 414.2 Z M 673.3 390.6 C 673.2 390.4 672.9 391.0 672.7 391.2 C 673.8 389.4 674.2 387.8 674.4 387.0 C 674.3 387.8 674.4 387.9 674.7 387.4 C 674.3 388.3 674.4 388.5 674.2 388.8 C 674.2 388.0 673.9 389.5 673.3 390.6 C 673.3 390.6 673.3 390.6 673.3 390.6 Z M 673.3 390.6 " fill="#000000"></path><image xlink:href="2CEEBA4157250F06245509AF01406847.png" width="101.00" height="50.00" transform="matrix(1.00, 0.00, -0.00, -1.00, 462.0, 398.0)"></image><g><clipPath id="clip-9"><path d="M 346.6 435.1 L 677.4 435.1 L 677.4 332.9 L 346.6 332.9 Z M 346.6 435.1 "></path></clipPath><g clip-path="url(#clip-9)"><text xml:space="preserve" font-family="Chalkduster" font-size="30.0" fill="#000000" transform="matrix(1.00, 0.00, -0.00, -1.00, 465.6, 370.7)">T</text><text xml:space="preserve" font-family="Chalkduster" font-size="30.0" fill="#000000" transform="matrix(1.00, 0.00, -0.00, -1.00, 486.9, 370.7)">y</text><text xml:space="preserve" font-family="Chalkduster" font-size="30.0" fill="#000000" transform="matrix(1.00, 0.00, -0.00, -1.00, 505.1, 370.7)">p</text><text xml:space="preserve" font-family="Chalkduster" font-size="30.0" fill="#000000" transform="matrix(1.00, 0.00, -0.00, -1.00, 523.9, 370.7)">e</text><text xml:space="preserve" font-family="Chalkduster" font-size="30.0" fill="#000000" transform="matrix(1.00, 0.00, -0.00, -1.00, 543.2, 370.7)">s</text></g></g><text xml:space="preserve" font-family="Chalkduster" font-size="30.0" fill="#FEFFFE" transform="matrix(1.00, 0.00, -0.00, -1.00, 182.0, 223.0)">B</text><text xml:space="preserve" font-family="Chalkduster" font-size="30.0" fill="#FEFFFE" transform="matrix(1.00, 0.00, -0.00, -1.00, 202.0, 223.0)">u</text><text xml:space="preserve" font-family="Chalkduster" font-size="30.0" fill="#FEFFFE" transform="matrix(1.00, 0.00, -0.00, -1.00, 222.7, 223.0)">i</text><text xml:space="preserve" font-family="Chalkduster" font-size="30.0" fill="#FEFFFE" transform="matrix(1.00, 0.00, -0.00, -1.00, 234.8, 223.0)">l</text><text xml:space="preserve" font-family="Chalkduster" font-size="30.0" fill="#FEFFFE" transform="matrix(1.00, 0.00, -0.00, -1.00, 245.7, 223.0)">t</text><text xml:space="preserve" font-family="Chalkduster" font-size="30.0" fill="#FEFFFE" transform="matrix(1.00, 0.00, -0.00, -1.00, 259.6, 223.0)">i</text><text xml:space="preserve" font-family="Chalkduster" font-size="30.0" fill="#FEFFFE" transform="matrix(1.00, 0.00, -0.00, -1.00, 271.5, 223.0)">n</text><text xml:space="preserve" font-family="Chalkduster" font-size="30.0" fill="#FEFFFE" transform="matrix(1.00, 0.00, -0.00, -1.00, 293.5, 223.0)"> </text><text xml:space="preserve" font-family="Chalkduster" font-size="30.0" fill="#FEFFFE" transform="matrix(1.00, 0.00, -0.00, -1.00, 308.4, 223.0)">t</text><text xml:space="preserve" font-family="Chalkduster" font-size="30.0" fill="#FEFFFE" transform="matrix(1.00, 0.00, -0.00, -1.00, 322.1, 223.0)">y</text><text xml:space="preserve" font-family="Chalkduster" font-size="30.0" fill="#FEFFFE" transform="matrix(1.00, 0.00, -0.00, -1.00, 340.3, 223.0)">p</text><text xml:space="preserve" font-family="Chalkduster" font-size="30.0" fill="#FEFFFE" transform="matrix(1.00, 0.00, -0.00, -1.00, 359.2, 223.0)">e</text><text xml:space="preserve" font-family="Chalkduster" font-size="30.0" fill="#FEFFFE" transform="matrix(1.00, 0.00, -0.00, -1.00, 378.5, 223.0)">s</text><text xml:space="preserve" font-family="Chalkduster" font-size="30.0" fill="#FEFFFE" transform="matrix(1.00, 0.00, -0.00, -1.00, 553.0, 223.0)">B</text><text xml:space="preserve" font-family="Chalkduster" font-size="30.0" fill="#FEFFFE" transform="matrix(1.00, 0.00, -0.00, -1.00, 573.0, 223.0)">u</text><text xml:space="preserve" font-family="Chalkduster" font-size="30.0" fill="#FEFFFE" transform="matrix(1.00, 0.00, -0.00, -1.00, 593.7, 223.0)">i</text><text xml:space="preserve" font-family="Chalkduster" font-size="30.0" fill="#FEFFFE" transform="matrix(1.00, 0.00, -0.00, -1.00, 605.8, 223.0)">l</text><text xml:space="preserve" font-family="Chalkduster" font-size="30.0" fill="#FEFFFE" transform="matrix(1.00, 0.00, -0.00, -1.00, 616.7, 223.0)">t</text><text xml:space="preserve" font-family="Chalkduster" font-size="30.0" fill="#FEFFFE" transform="matrix(1.00, 0.00, -0.00, -1.00, 630.6, 223.0)">i</text><text xml:space="preserve" font-family="Chalkduster" font-size="30.0" fill="#FEFFFE" transform="matrix(1.00, 0.00, -0.00, -1.00, 642.5, 223.0)">n</text><text xml:space="preserve" font-family="Chalkduster" font-size="30.0" fill="#FEFFFE" transform="matrix(1.00, 0.00, -0.00, -1.00, 664.5, 223.0)"> </text><text xml:space="preserve" font-family="Chalkduster" font-size="30.0" fill="#FEFFFE" transform="matrix(1.00, 0.00, -0.00, -1.00, 679.4, 223.0)">f</text><text xml:space="preserve" font-family="Chalkduster" font-size="30.0" fill="#FEFFFE" transform="matrix(1.00, 0.00, -0.00, -1.00, 695.3, 223.0)">u</text><text xml:space="preserve" font-family="Chalkduster" font-size="30.0" fill="#FEFFFE" transform="matrix(1.00, 0.00, -0.00, -1.00, 716.4, 223.0)">n</text><text xml:space="preserve" font-family="Chalkduster" font-size="30.0" fill="#FEFFFE" transform="matrix(1.00, 0.00, -0.00, -1.00, 738.4, 223.0)">c</text><text xml:space="preserve" font-family="Chalkduster" font-size="30.0" fill="#FEFFFE" transform="matrix(1.00, 0.00, -0.00, -1.00, 756.2, 223.0)">t</text><text xml:space="preserve" font-family="Chalkduster" font-size="30.0" fill="#FEFFFE" transform="matrix(1.00, 0.00, -0.00, -1.00, 770.1, 223.0)">i</text><text xml:space="preserve" font-family="Chalkduster" font-size="30.0" fill="#FEFFFE" transform="matrix(1.00, 0.00, -0.00, -1.00, 781.9, 223.0)">o</text><text xml:space="preserve" font-family="Chalkduster" font-size="30.0" fill="#FEFFFE" transform="matrix(1.00, 0.00, -0.00, -1.00, 804.2, 223.0)">n</text><text xml:space="preserve" font-family="Chalkduster" font-size="30.0" fill="#FEFFFE" transform="matrix(1.00, 0.00, -0.00, -1.00, 826.2, 223.0)">s</text><text xml:space="preserve" font-family="Chalkduster" font-size="30.0" fill="#FEFFFE" transform="matrix(1.00, 0.00, -0.00, -1.00, 180.0, 105.0)">i</text><text xml:space="preserve" font-family="Chalkduster" font-size="30.0" fill="#FEFFFE" transform="matrix(1.00, 0.00, -0.00, -1.00, 191.8, 105.0)">n</text><text xml:space="preserve" font-family="Chalkduster" font-size="30.0" fill="#FEFFFE" transform="matrix(1.00, 0.00, -0.00, -1.00, 212.7, 105.0)">t</text><text xml:space="preserve" font-family="Chalkduster" font-size="30.0" fill="#FEFFFE" transform="matrix(1.00, 0.00, -0.00, -1.00, 222.5, 105.0)">,</text><text xml:space="preserve" font-family="Chalkduster" font-size="30.0" fill="#FEFFFE" transform="matrix(1.00, 0.00, -0.00, -1.00, 231.8, 105.0)"> </text><text xml:space="preserve" font-family="Chalkduster" font-size="30.0" fill="#FEFFFE" transform="matrix(1.00, 0.00, -0.00, -1.00, 246.7, 105.0)">f</text><text xml:space="preserve" font-family="Chalkduster" font-size="30.0" fill="#FEFFFE" transform="matrix(1.00, 0.00, -0.00, -1.00, 262.7, 105.0)">l</text><text xml:space="preserve" font-family="Chalkduster" font-size="30.0" fill="#FEFFFE" transform="matrix(1.00, 0.00, -0.00, -1.00, 275.6, 105.0)">o</text><text xml:space="preserve" font-family="Chalkduster" font-size="30.0" fill="#FEFFFE" transform="matrix(1.00, 0.00, -0.00, -1.00, 297.6, 105.0)">a</text><text xml:space="preserve" font-family="Chalkduster" font-size="30.0" fill="#FEFFFE" transform="matrix(1.00, 0.00, -0.00, -1.00, 316.2, 105.0)">t</text><text xml:space="preserve" font-family="Chalkduster" font-size="30.0" fill="#FEFFFE" transform="matrix(1.00, 0.00, -0.00, -1.00, 326.0, 105.0)">,</text><text xml:space="preserve" font-family="Chalkduster" font-size="30.0" fill="#FEFFFE" transform="matrix(1.00, 0.00, -0.00, -1.00, 335.3, 105.0)"> </text><text xml:space="preserve" font-family="Chalkduster" font-size="30.0" fill="#FEFFFE" transform="matrix(1.00, 0.00, -0.00, -1.00, 350.2, 105.0)">s</text><text xml:space="preserve" font-family="Chalkduster" font-size="30.0" fill="#FEFFFE" transform="matrix(1.00, 0.00, -0.00, -1.00, 366.3, 105.0)">t</text><text xml:space="preserve" font-family="Chalkduster" font-size="30.0" fill="#FEFFFE" transform="matrix(1.00, 0.00, -0.00, -1.00, 380.0, 105.0)">r</text><text xml:space="preserve" font-family="Chalkduster" font-size="30.0" fill="#FEFFFE" transform="matrix(1.00, 0.00, -0.00, -1.00, 395.8, 105.0)"> </text><text xml:space="preserve" font-family="Chalkduster" font-size="30.0" fill="#FEFFFE" transform="matrix(1.00, 0.00, -0.00, -1.00, 187.0, 61.0)">b</text><text xml:space="preserve" font-family="Chalkduster" font-size="30.0" fill="#FEFFFE" transform="matrix(1.00, 0.00, -0.00, -1.00, 204.4, 61.0)">o</text><text xml:space="preserve" font-family="Chalkduster" font-size="30.0" fill="#FEFFFE" transform="matrix(1.00, 0.00, -0.00, -1.00, 227.2, 61.0)">o</text><text xml:space="preserve" font-family="Chalkduster" font-size="30.0" fill="#FEFFFE" transform="matrix(1.00, 0.00, -0.00, -1.00, 250.0, 61.0)">l</text><text xml:space="preserve" font-family="Chalkduster" font-size="30.0" fill="#FEFFFE" transform="matrix(1.00, 0.00, -0.00, -1.00, 262.7, 61.0)">,</text><text xml:space="preserve" font-family="Chalkduster" font-size="30.0" fill="#FEFFFE" transform="matrix(1.00, 0.00, -0.00, -1.00, 272.0, 61.0)"> </text><text xml:space="preserve" font-family="Chalkduster" font-size="30.0" fill="#FEFFFE" transform="matrix(1.00, 0.00, -0.00, -1.00, 286.9, 61.0)">l</text><text xml:space="preserve" font-family="Chalkduster" font-size="30.0" fill="#FEFFFE" transform="matrix(1.00, 0.00, -0.00, -1.00, 301.3, 61.0)">i</text><text xml:space="preserve" font-family="Chalkduster" font-size="30.0" fill="#FEFFFE" transform="matrix(1.00, 0.00, -0.00, -1.00, 313.2, 61.0)">s</text><text xml:space="preserve" font-family="Chalkduster" font-size="30.0" fill="#FEFFFE" transform="matrix(1.00, 0.00, -0.00, -1.00, 329.3, 61.0)">t</text><text xml:space="preserve" font-family="Chalkduster" font-size="30.0" fill="#FEFFFE" transform="matrix(1.00, 0.00, -0.00, -1.00, 339.1, 61.0)">,</text><text xml:space="preserve" font-family="Chalkduster" font-size="30.0" fill="#FEFFFE" transform="matrix(1.00, 0.00, -0.00, -1.00, 348.3, 61.0)"> </text><text xml:space="preserve" font-family="Chalkduster" font-size="30.0" fill="#FEFFFE" transform="matrix(1.00, 0.00, -0.00, -1.00, 363.3, 61.0)">.</text><text xml:space="preserve" font-family="Chalkduster" font-size="30.0" fill="#FEFFFE" transform="matrix(1.00, 0.00, -0.00, -1.00, 370.9, 61.0)">.</text><text xml:space="preserve" font-family="Chalkduster" font-size="30.0" fill="#FEFFFE" transform="matrix(1.00, 0.00, -0.00, -1.00, 378.5, 61.0)">.</text><text xml:space="preserve" font-family="Chalkduster" font-size="30.0" fill="#FEFFFE" transform="matrix(1.00, 0.00, -0.00, -1.00, 524.0, 127.0)">m</text><text xml:space="preserve" font-family="Chalkduster" font-size="30.0" fill="#FEFFFE" transform="matrix(1.00, 0.00, -0.00, -1.00, 554.8, 127.0)">i</text><text xml:space="preserve" font-family="Chalkduster" font-size="30.0" fill="#FEFFFE" transform="matrix(1.00, 0.00, -0.00, -1.00, 566.7, 127.0)">n</text><text xml:space="preserve" font-family="Chalkduster" font-size="30.0" fill="#FEFFFE" transform="matrix(1.00, 0.00, -0.00, -1.00, 588.7, 127.0)">(</text><text xml:space="preserve" font-family="Chalkduster" font-size="30.0" fill="#FEFFFE" transform="matrix(1.00, 0.00, -0.00, -1.00, 601.8, 127.0)">)</text><text xml:space="preserve" font-family="Chalkduster" font-size="30.0" fill="#FEFFFE" transform="matrix(1.00, 0.00, -0.00, -1.00, 616.9, 127.0)">,</text><text xml:space="preserve" font-family="Chalkduster" font-size="30.0" fill="#FEFFFE" transform="matrix(1.00, 0.00, -0.00, -1.00, 626.2, 127.0)"> </text><text xml:space="preserve" font-family="Chalkduster" font-size="30.0" fill="#FEFFFE" transform="matrix(1.00, 0.00, -0.00, -1.00, 641.1, 127.0)">m</text><text xml:space="preserve" font-family="Chalkduster" font-size="30.0" fill="#FEFFFE" transform="matrix(1.00, 0.00, -0.00, -1.00, 671.5, 127.0)">a</text><text xml:space="preserve" font-family="Chalkduster" font-size="30.0" fill="#FEFFFE" transform="matrix(1.00, 0.00, -0.00, -1.00, 691.5, 127.0)">x</text><text xml:space="preserve" font-family="Chalkduster" font-size="30.0" fill="#FEFFFE" transform="matrix(1.00, 0.00, -0.00, -1.00, 710.6, 127.0)">(</text><text xml:space="preserve" font-family="Chalkduster" font-size="30.0" fill="#FEFFFE" transform="matrix(1.00, 0.00, -0.00, -1.00, 723.7, 127.0)">)</text><text xml:space="preserve" font-family="Chalkduster" font-size="30.0" fill="#FEFFFE" transform="matrix(1.00, 0.00, -0.00, -1.00, 738.8, 127.0)">,</text><text xml:space="preserve" font-family="Chalkduster" font-size="30.0" fill="#FEFFFE" transform="matrix(1.00, 0.00, -0.00, -1.00, 748.1, 127.0)"> </text><text xml:space="preserve" font-family="Chalkduster" font-size="30.0" fill="#FEFFFE" transform="matrix(1.00, 0.00, -0.00, -1.00, 763.0, 127.0)">t</text><text xml:space="preserve" font-family="Chalkduster" font-size="30.0" fill="#FEFFFE" transform="matrix(1.00, 0.00, -0.00, -1.00, 776.7, 127.0)">y</text><text xml:space="preserve" font-family="Chalkduster" font-size="30.0" fill="#FEFFFE" transform="matrix(1.00, 0.00, -0.00, -1.00, 795.0, 127.0)">p</text><text xml:space="preserve" font-family="Chalkduster" font-size="30.0" fill="#FEFFFE" transform="matrix(1.00, 0.00, -0.00, -1.00, 813.8, 127.0)">e</text><text xml:space="preserve" font-family="Chalkduster" font-size="30.0" fill="#FEFFFE" transform="matrix(1.00, 0.00, -0.00, -1.00, 832.4, 127.0)">(</text><text xml:space="preserve" font-family="Chalkduster" font-size="30.0" fill="#FEFFFE" transform="matrix(1.00, 0.00, -0.00, -1.00, 845.5, 127.0)">)</text><text xml:space="preserve" font-family="Chalkduster" font-size="30.0" fill="#FEFFFE" transform="matrix(1.00, 0.00, -0.00, -1.00, 860.6, 127.0)">,</text><text xml:space="preserve" font-family="Chalkduster" font-size="30.0" fill="#FEFFFE" transform="matrix(1.00, 0.00, -0.00, -1.00, 869.9, 127.0)"> </text><text xml:space="preserve" font-family="Chalkduster" font-size="30.0" fill="#FEFFFE" transform="matrix(1.00, 0.00, -0.00, -1.00, 552.0, 83.0)">l</text><text xml:space="preserve" font-family="Chalkduster" font-size="30.0" fill="#FEFFFE" transform="matrix(1.00, 0.00, -0.00, -1.00, 566.4, 83.0)">i</text><text xml:space="preserve" font-family="Chalkduster" font-size="30.0" fill="#FEFFFE" transform="matrix(1.00, 0.00, -0.00, -1.00, 578.3, 83.0)">s</text><text xml:space="preserve" font-family="Chalkduster" font-size="30.0" fill="#FEFFFE" transform="matrix(1.00, 0.00, -0.00, -1.00, 594.3, 83.0)">t</text><text xml:space="preserve" font-family="Chalkduster" font-size="30.0" fill="#FEFFFE" transform="matrix(1.00, 0.00, -0.00, -1.00, 608.0, 83.0)">(</text><text xml:space="preserve" font-family="Chalkduster" font-size="30.0" fill="#FEFFFE" transform="matrix(1.00, 0.00, -0.00, -1.00, 621.2, 83.0)">)</text><text xml:space="preserve" font-family="Chalkduster" font-size="30.0" fill="#FEFFFE" transform="matrix(1.00, 0.00, -0.00, -1.00, 636.2, 83.0)">,</text><text xml:space="preserve" font-family="Chalkduster" font-size="30.0" fill="#FEFFFE" transform="matrix(1.00, 0.00, -0.00, -1.00, 645.5, 83.0)"> </text><text xml:space="preserve" font-family="Chalkduster" font-size="30.0" fill="#FEFFFE" transform="matrix(1.00, 0.00, -0.00, -1.00, 660.4, 83.0)">i</text><text xml:space="preserve" font-family="Chalkduster" font-size="30.0" fill="#FEFFFE" transform="matrix(1.00, 0.00, -0.00, -1.00, 672.3, 83.0)">n</text><text xml:space="preserve" font-family="Chalkduster" font-size="30.0" fill="#FEFFFE" transform="matrix(1.00, 0.00, -0.00, -1.00, 693.2, 83.0)">t</text><text xml:space="preserve" font-family="Chalkduster" font-size="30.0" fill="#FEFFFE" transform="matrix(1.00, 0.00, -0.00, -1.00, 706.9, 83.0)">(</text><text xml:space="preserve" font-family="Chalkduster" font-size="30.0" fill="#FEFFFE" transform="matrix(1.00, 0.00, -0.00, -1.00, 720.0, 83.0)">)</text><text xml:space="preserve" font-family="Chalkduster" font-size="30.0" fill="#FEFFFE" transform="matrix(1.00, 0.00, -0.00, -1.00, 735.1, 83.0)">,</text><text xml:space="preserve" font-family="Chalkduster" font-size="30.0" fill="#FEFFFE" transform="matrix(1.00, 0.00, -0.00, -1.00, 744.4, 83.0)"> </text><text xml:space="preserve" font-family="Chalkduster" font-size="30.0" fill="#FEFFFE" transform="matrix(1.00, 0.00, -0.00, -1.00, 759.3, 83.0)">s</text><text xml:space="preserve" font-family="Chalkduster" font-size="30.0" fill="#FEFFFE" transform="matrix(1.00, 0.00, -0.00, -1.00, 775.4, 83.0)">t</text><text xml:space="preserve" font-family="Chalkduster" font-size="30.0" fill="#FEFFFE" transform="matrix(1.00, 0.00, -0.00, -1.00, 789.1, 83.0)">r</text><text xml:space="preserve" font-family="Chalkduster" font-size="30.0" fill="#FEFFFE" transform="matrix(1.00, 0.00, -0.00, -1.00, 804.9, 83.0)">(</text><text xml:space="preserve" font-family="Chalkduster" font-size="30.0" fill="#FEFFFE" transform="matrix(1.00, 0.00, -0.00, -1.00, 818.0, 83.0)">)</text><text xml:space="preserve" font-family="Chalkduster" font-size="30.0" fill="#FEFFFE" transform="matrix(1.00, 0.00, -0.00, -1.00, 833.1, 83.0)">,</text><text xml:space="preserve" font-family="Chalkduster" font-size="30.0" fill="#FEFFFE" transform="matrix(1.00, 0.00, -0.00, -1.00, 842.4, 83.0)"> </text><text xml:space="preserve" font-family="Chalkduster" font-size="30.0" fill="#FEFFFE" transform="matrix(1.00, 0.00, -0.00, -1.00, 520.0, 39.0)">i</text><text xml:space="preserve" font-family="Chalkduster" font-size="30.0" fill="#FEFFFE" transform="matrix(1.00, 0.00, -0.00, -1.00, 532.9, 39.0)">d</text><text xml:space="preserve" font-family="Chalkduster" font-size="30.0" fill="#FEFFFE" transform="matrix(1.00, 0.00, -0.00, -1.00, 556.3, 39.0)">(</text><text xml:space="preserve" font-family="Chalkduster" font-size="30.0" fill="#FEFFFE" transform="matrix(1.00, 0.00, -0.00, -1.00, 569.5, 39.0)">)</text><text xml:space="preserve" font-family="Chalkduster" font-size="30.0" fill="#FEFFFE" transform="matrix(1.00, 0.00, -0.00, -1.00, 584.5, 39.0)">,</text><text xml:space="preserve" font-family="Chalkduster" font-size="30.0" fill="#FEFFFE" transform="matrix(1.00, 0.00, -0.00, -1.00, 593.8, 39.0)"> </text><text xml:space="preserve" font-family="Chalkduster" font-size="30.0" fill="#FEFFFE" transform="matrix(1.00, 0.00, -0.00, -1.00, 608.8, 39.0)">h</text><text xml:space="preserve" font-family="Chalkduster" font-size="30.0" fill="#FEFFFE" transform="matrix(1.00, 0.00, -0.00, -1.00, 627.3, 39.0)">e</text><text xml:space="preserve" font-family="Chalkduster" font-size="30.0" fill="#FEFFFE" transform="matrix(1.00, 0.00, -0.00, -1.00, 645.9, 39.0)">l</text><text xml:space="preserve" font-family="Chalkduster" font-size="30.0" fill="#FEFFFE" transform="matrix(1.00, 0.00, -0.00, -1.00, 660.0, 39.0)">p</text><text xml:space="preserve" font-family="Chalkduster" font-size="30.0" fill="#FEFFFE" transform="matrix(1.00, 0.00, -0.00, -1.00, 678.5, 39.0)">(</text><text xml:space="preserve" font-family="Chalkduster" font-size="30.0" fill="#FEFFFE" transform="matrix(1.00, 0.00, -0.00, -1.00, 691.6, 39.0)">)</text><text xml:space="preserve" font-family="Chalkduster" font-size="30.0" fill="#FEFFFE" transform="matrix(1.00, 0.00, -0.00, -1.00, 706.7, 39.0)">,</text><text xml:space="preserve" font-family="Chalkduster" font-size="30.0" fill="#FEFFFE" transform="matrix(1.00, 0.00, -0.00, -1.00, 716.0, 39.0)"> </text><text xml:space="preserve" font-family="Chalkduster" font-size="30.0" fill="#FEFFFE" transform="matrix(1.00, 0.00, -0.00, -1.00, 730.9, 39.0)">o</text><text xml:space="preserve" font-family="Chalkduster" font-size="30.0" fill="#FEFFFE" transform="matrix(1.00, 0.00, -0.00, -1.00, 752.7, 39.0)">p</text><text xml:space="preserve" font-family="Chalkduster" font-size="30.0" fill="#FEFFFE" transform="matrix(1.00, 0.00, -0.00, -1.00, 771.6, 39.0)">e</text><text xml:space="preserve" font-family="Chalkduster" font-size="30.0" fill="#FEFFFE" transform="matrix(1.00, 0.00, -0.00, -1.00, 790.5, 39.0)">n</text><text xml:space="preserve" font-family="Chalkduster" font-size="30.0" fill="#FEFFFE" transform="matrix(1.00, 0.00, -0.00, -1.00, 812.5, 39.0)">(</text><text xml:space="preserve" font-family="Chalkduster" font-size="30.0" fill="#FEFFFE" transform="matrix(1.00, 0.00, -0.00, -1.00, 825.6, 39.0)">)</text><text xml:space="preserve" font-family="Chalkduster" font-size="30.0" fill="#FEFFFE" transform="matrix(1.00, 0.00, -0.00, -1.00, 840.7, 39.0)">,</text><text xml:space="preserve" font-family="Chalkduster" font-size="30.0" fill="#FEFFFE" transform="matrix(1.00, 0.00, -0.00, -1.00, 850.0, 39.0)">.</text><text xml:space="preserve" font-family="Chalkduster" font-size="30.0" fill="#FEFFFE" transform="matrix(1.00, 0.00, -0.00, -1.00, 857.6, 39.0)">.</text><text xml:space="preserve" font-family="Chalkduster" font-size="30.0" fill="#FEFFFE" transform="matrix(1.00, 0.00, -0.00, -1.00, 865.2, 39.0)">.</text></g></svg>