<?xml version="1.0" encoding="UTF-8" standalone="no"?><svg xmlns="http://www.w3.org/2000/svg" xmlns:xlink="http://www.w3.org/1999/xlink" clip-rule="evenodd" stroke-miterlimit="4.00" viewBox="0 0 192 59"><desc>SVG generated by Keynote</desc><defs></defs><g transform="matrix(1.00, 0.00, -0.00, -1.00, 0.0, 59.0)"><image xlink:href="../../83ADBADA-7164-47B7-A993-08191439138F/assets/DB1296B8371905F8554934048CAFB7C4.png" width="189.00" height="56.00" transform="matrix(1.00, 0.00, -0.00, -0.99, 1.4, 57.1)" opacity="0.50"></image><g><clipPath id="clip-571"><path d="M 29.2 52.1 L 162.5 52.1 C 168.9 52.1 172.2 52.1 175.7 51.0 C 179.6 49.6 182.7 46.5 184.1 42.6 C 185.2 39.1 185.2 35.7 185.2 29.3 C 185.2 22.9 185.2 19.6 184.1 16.1 C 182.7 12.2 179.6 9.1 175.7 7.7 C 172.2 6.6 168.9 6.6 162.5 6.6 L 29.2 6.6 C 22.8 6.6 19.4 6.6 15.9 7.7 C 12.0 9.1 8.9 12.2 7.5 16.1 C 6.4 19.6 6.4 22.9 6.4 29.3 C 6.4 35.7 6.4 39.1 7.5 42.6 C 8.9 46.5 12.0 49.6 15.9 51.0 C 19.4 52.1 22.8 52.1 29.2 52.1 Z M 29.2 52.1 "></path></clipPath><g clip-path="url(#clip-571)"><image xlink:href="../../83ADBADA-7164-47B7-A993-08191439138F/assets/CFA53D52FE8B7C3E70EDC25518D34A22.jpeg" width="400.00" height="400.00" transform="matrix(1.00, 0.00, -0.00, -1.00, 6.4, 52.1)"></image></g></g></g></svg>