<?xml version="1.0" encoding="UTF-8" standalone="no"?><svg xmlns="http://www.w3.org/2000/svg" xmlns:xlink="http://www.w3.org/1999/xlink" clip-rule="evenodd" stroke-miterlimit="4.00" viewBox="0 0 894 74"><desc>SVG generated by Keynote</desc><defs><pattern id="D2C9AB29-7CE9-461B-9006-2605172E7A9F" patternUnits="userSpaceOnUse" width="400" height="400" viewBox="0 0 400 400" patternTransform="matrix(1.000000, 0.000000, 0.000000, -1.000000, 6.408287, 67.865780)"><image xlink:href="../../D599F83F-E0AD-4917-B5BF-C1DEC8CAAC90/assets/C5221962E1EB334F1B4BCD7605686450.jpeg" width="400.00" height="400.00"></image></pattern></defs><g transform="matrix(1.00, 0.00, -0.00, -1.00, 0.0, 74.0)"><image xlink:href="../../D599F83F-E0AD-4917-B5BF-C1DEC8CAAC90/assets/8F592B0201E0717BF54AEA586B6B1E18.png" width="891.00" height="72.00" transform="matrix(1.00, 0.00, -0.00, -1.00, 1.4, 72.9)" opacity="0.50"></image><g><clipPath id="clip-143"><path d="M 6.4 67.9 L 887.6 67.9 L 887.6 6.1 L 6.4 6.1 Z M 6.4 67.9 "></path></clipPath><g clip-path="url(#clip-143)"><path d="M 6.4 6.1 L 887.6 6.1 L 887.6 67.9 L 6.4 67.9 Z M 6.4 6.1 " fill="url(#D2C9AB29-7CE9-461B-9006-2605172E7A9F)"></path></g></g><g><clipPath id="clip-144"><path d="M 2.2 6.1 L 891.8 6.1 L 891.8 67.9 L 2.2 67.9 Z M 2.2 6.1 "></path></clipPath><g clip-path="url(#clip-144)"><text xml:space="preserve" font-family="Chalkduster" font-size="26.0" fill="#FEFFFE" transform="matrix(1.00, 0.00, -0.00, -1.00, 33.0, 26.0)">#</text><text xml:space="preserve" font-family="Chalkduster" font-size="26.0" fill="#FEFFFE" transform="matrix(1.00, 0.00, -0.00, -1.00, 59.2, 26.0)"> </text><text xml:space="preserve" font-family="Chalkduster" font-size="26.0" fill="#FEFFFE" transform="matrix(1.00, 0.00, -0.00, -1.00, 69.8, 26.0)">V</text><text xml:space="preserve" font-family="Chalkduster" font-size="26.0" fill="#FEFFFE" transform="matrix(1.00, 0.00, -0.00, -1.00, 87.6, 26.0)">o</text><text xml:space="preserve" font-family="Chalkduster" font-size="26.0" fill="#FEFFFE" transform="matrix(1.00, 0.00, -0.00, -1.00, 105.3, 26.0)">t</text><text xml:space="preserve" font-family="Chalkduster" font-size="26.0" fill="#FEFFFE" transform="matrix(1.00, 0.00, -0.00, -1.00, 116.9, 26.0)">e</text><text xml:space="preserve" font-family="Chalkduster" font-size="26.0" fill="#FEFFFE" transform="matrix(1.00, 0.00, -0.00, -1.00, 133.6, 26.0)">s</text><text xml:space="preserve" font-family="Chalkduster" font-size="26.0" fill="#FEFFFE" transform="matrix(1.00, 0.00, -0.00, -1.00, 146.8, 26.0)"> </text><text xml:space="preserve" font-family="Chalkduster" font-size="26.0" fill="#FEFFFE" transform="matrix(1.00, 0.00, -0.00, -1.00, 159.7, 26.0)">|</text><text xml:space="preserve" font-family="Chalkduster" font-size="26.0" fill="#FEFFFE" transform="matrix(1.00, 0.00, -0.00, -1.00, 167.9, 26.0)"> </text><text xml:space="preserve" font-family="Chalkduster" font-size="26.0" fill="#FEFFFE" transform="matrix(1.00, 0.00, -0.00, -1.00, 180.8, 26.0)">R</text><text xml:space="preserve" font-family="Chalkduster" font-size="26.0" fill="#FEFFFE" transform="matrix(1.00, 0.00, -0.00, -1.00, 201.0, 26.0)">a</text><text xml:space="preserve" font-family="Chalkduster" font-size="26.0" fill="#FEFFFE" transform="matrix(1.00, 0.00, -0.00, -1.00, 217.1, 26.0)">t</text><text xml:space="preserve" font-family="Chalkduster" font-size="26.0" fill="#FEFFFE" transform="matrix(1.00, 0.00, -0.00, -1.00, 229.2, 26.0)">i</text><text xml:space="preserve" font-family="Chalkduster" font-size="26.0" fill="#FEFFFE" transform="matrix(1.00, 0.00, -0.00, -1.00, 239.4, 26.0)">n</text><text xml:space="preserve" font-family="Chalkduster" font-size="26.0" fill="#FEFFFE" transform="matrix(1.00, 0.00, -0.00, -1.00, 257.7, 26.0)">g</text><text xml:space="preserve" font-family="Chalkduster" font-size="26.0" fill="#FEFFFE" transform="matrix(1.00, 0.00, -0.00, -1.00, 275.4, 26.0)"> </text><text xml:space="preserve" font-family="Chalkduster" font-size="26.0" fill="#FEFFFE" transform="matrix(1.00, 0.00, -0.00, -1.00, 288.4, 26.0)">|</text><text xml:space="preserve" font-family="Chalkduster" font-size="26.0" fill="#FEFFFE" transform="matrix(1.00, 0.00, -0.00, -1.00, 296.5, 26.0)"> </text><text xml:space="preserve" font-family="Chalkduster" font-size="26.0" fill="#FEFFFE" transform="matrix(1.00, 0.00, -0.00, -1.00, 307.5, 26.0)">Y</text><text xml:space="preserve" font-family="Chalkduster" font-size="26.0" fill="#FEFFFE" transform="matrix(1.00, 0.00, -0.00, -1.00, 327.5, 26.0)">e</text><text xml:space="preserve" font-family="Chalkduster" font-size="26.0" fill="#FEFFFE" transform="matrix(1.00, 0.00, -0.00, -1.00, 343.6, 26.0)">a</text><text xml:space="preserve" font-family="Chalkduster" font-size="26.0" fill="#FEFFFE" transform="matrix(1.00, 0.00, -0.00, -1.00, 360.2, 26.0)">r</text><text xml:space="preserve" font-family="Chalkduster" font-size="26.0" fill="#FEFFFE" transform="matrix(1.00, 0.00, -0.00, -1.00, 373.9, 26.0)"> </text><text xml:space="preserve" font-family="Chalkduster" font-size="26.0" fill="#FEFFFE" transform="matrix(1.00, 0.00, -0.00, -1.00, 386.8, 26.0)">|</text><text xml:space="preserve" font-family="Chalkduster" font-size="26.0" fill="#FEFFFE" transform="matrix(1.00, 0.00, -0.00, -1.00, 395.0, 26.0)"> </text><text xml:space="preserve" font-family="Chalkduster" font-size="26.0" fill="#FEFFFE" transform="matrix(1.00, 0.00, -0.00, -1.00, 407.9, 26.0)">R</text><text xml:space="preserve" font-family="Chalkduster" font-size="26.0" fill="#FEFFFE" transform="matrix(1.00, 0.00, -0.00, -1.00, 428.1, 26.0)">u</text><text xml:space="preserve" font-family="Chalkduster" font-size="26.0" fill="#FEFFFE" transform="matrix(1.00, 0.00, -0.00, -1.00, 446.4, 26.0)">n</text><text xml:space="preserve" font-family="Chalkduster" font-size="26.0" fill="#FEFFFE" transform="matrix(1.00, 0.00, -0.00, -1.00, 464.5, 26.0)">t</text><text xml:space="preserve" font-family="Chalkduster" font-size="26.0" fill="#FEFFFE" transform="matrix(1.00, 0.00, -0.00, -1.00, 476.5, 26.0)">i</text><text xml:space="preserve" font-family="Chalkduster" font-size="26.0" fill="#FEFFFE" transform="matrix(1.00, 0.00, -0.00, -1.00, 486.8, 26.0)">m</text><text xml:space="preserve" font-family="Chalkduster" font-size="26.0" fill="#FEFFFE" transform="matrix(1.00, 0.00, -0.00, -1.00, 513.7, 26.0)">e</text><text xml:space="preserve" font-family="Chalkduster" font-size="26.0" fill="#FEFFFE" transform="matrix(1.00, 0.00, -0.00, -1.00, 529.8, 26.0)"> </text><text xml:space="preserve" font-family="Chalkduster" font-size="26.0" fill="#FEFFFE" transform="matrix(1.00, 0.00, -0.00, -1.00, 542.8, 26.0)">|</text><text xml:space="preserve" font-family="Chalkduster" font-size="26.0" fill="#FEFFFE" transform="matrix(1.00, 0.00, -0.00, -1.00, 550.9, 26.0)"> </text><text xml:space="preserve" font-family="Chalkduster" font-size="26.0" fill="#FEFFFE" transform="matrix(1.00, 0.00, -0.00, -1.00, 563.9, 26.0)">U</text><text xml:space="preserve" font-family="Chalkduster" font-size="26.0" fill="#FEFFFE" transform="matrix(1.00, 0.00, -0.00, -1.00, 583.0, 26.0)">R</text><text xml:space="preserve" font-family="Chalkduster" font-size="26.0" fill="#FEFFFE" transform="matrix(1.00, 0.00, -0.00, -1.00, 603.2, 26.0)">L</text><text xml:space="preserve" font-family="Chalkduster" font-size="26.0" fill="#FEFFFE" transform="matrix(1.00, 0.00, -0.00, -1.00, 619.7, 26.0)"> </text><text xml:space="preserve" font-family="Chalkduster" font-size="26.0" fill="#FEFFFE" transform="matrix(1.00, 0.00, -0.00, -1.00, 632.6, 26.0)">|</text><text xml:space="preserve" font-family="Chalkduster" font-size="26.0" fill="#FEFFFE" transform="matrix(1.00, 0.00, -0.00, -1.00, 640.7, 26.0)"> </text><text xml:space="preserve" font-family="Chalkduster" font-size="26.0" fill="#FEFFFE" transform="matrix(1.00, 0.00, -0.00, -1.00, 653.7, 26.0)">G</text><text xml:space="preserve" font-family="Chalkduster" font-size="26.0" fill="#FEFFFE" transform="matrix(1.00, 0.00, -0.00, -1.00, 682.5, 26.0)">e</text><text xml:space="preserve" font-family="Chalkduster" font-size="26.0" fill="#FEFFFE" transform="matrix(1.00, 0.00, -0.00, -1.00, 698.9, 26.0)">n</text><text xml:space="preserve" font-family="Chalkduster" font-size="26.0" fill="#FEFFFE" transform="matrix(1.00, 0.00, -0.00, -1.00, 718.0, 26.0)">r</text><text xml:space="preserve" font-family="Chalkduster" font-size="26.0" fill="#FEFFFE" transform="matrix(1.00, 0.00, -0.00, -1.00, 731.2, 26.0)">e</text><text xml:space="preserve" font-family="Chalkduster" font-size="26.0" fill="#FEFFFE" transform="matrix(1.00, 0.00, -0.00, -1.00, 747.9, 26.0)">s</text><text xml:space="preserve" font-family="Chalkduster" font-size="26.0" fill="#FEFFFE" transform="matrix(1.00, 0.00, -0.00, -1.00, 761.0, 26.0)"> </text><text xml:space="preserve" font-family="Chalkduster" font-size="26.0" fill="#FEFFFE" transform="matrix(1.00, 0.00, -0.00, -1.00, 773.9, 26.0)">|</text><text xml:space="preserve" font-family="Chalkduster" font-size="26.0" fill="#FEFFFE" transform="matrix(1.00, 0.00, -0.00, -1.00, 782.1, 26.0)"> </text><text xml:space="preserve" font-family="Chalkduster" font-size="26.0" fill="#FEFFFE" transform="matrix(1.00, 0.00, -0.00, -1.00, 792.8, 26.0)">T</text><text xml:space="preserve" font-family="Chalkduster" font-size="26.0" fill="#FEFFFE" transform="matrix(1.00, 0.00, -0.00, -1.00, 812.0, 26.0)">i</text><text xml:space="preserve" font-family="Chalkduster" font-size="26.0" fill="#FEFFFE" transform="matrix(1.00, 0.00, -0.00, -1.00, 822.5, 26.0)">t</text><text xml:space="preserve" font-family="Chalkduster" font-size="26.0" fill="#FEFFFE" transform="matrix(1.00, 0.00, -0.00, -1.00, 834.4, 26.0)">l</text><text xml:space="preserve" font-family="Chalkduster" font-size="26.0" fill="#FEFFFE" transform="matrix(1.00, 0.00, -0.00, -1.00, 845.1, 26.0)">e</text></g></g></g></svg>