<?xml version="1.0" encoding="UTF-8" standalone="no"?><svg xmlns="http://www.w3.org/2000/svg" xmlns:xlink="http://www.w3.org/1999/xlink" clip-rule="evenodd" stroke-miterlimit="4.00" viewBox="0 0 539 73"><desc>SVG generated by Keynote</desc><defs></defs><g transform="matrix(1.00, 0.00, -0.00, -1.00, 0.0, 73.0)"><path d="M 17.4 6.0 C 17.0 6.1 16.2 5.6 15.9 5.7 M 17.4 6.0 C 16.9 4.5 15.4 4.0 13.3 3.2 C 11.0 2.7 13.1 4.4 12.7 4.9 C 9.7 4.7 9.8 3.9 10.5 2.6 C 9.2 3.3 5.8 1.3 6.4 3.1 C 11.4 3.5 3.0 3.1 6.9 4.5 C 7.3 4.9 6.1 5.2 5.7 5.2 C 6.9 6.0 4.7 6.6 6.6 7.3 C 6.8 8.4 6.5 7.9 7.7 8.9 C 8.2 9.1 8.0 8.7 8.0 8.5 C 8.3 7.2 9.4 9.4 10.5 8.8 C 11.1 10.6 12.5 8.9 11.8 8.0 C 12.7 8.4 13.3 10.4 14.5 9.5 C 14.8 10.4 17.4 10.7 16.3 9.2 C 15.4 8.2 16.7 8.1 17.0 7.8 C 16.8 7.4 15.1 7.4 14.9 7.0 C 15.5 6.9 17.7 6.9 15.5 6.3 C 16.3 6.0 15.4 5.3 17.4 6.0 C 17.4 6.0 17.4 6.0 17.4 6.0 Z M 9.5 3.2 C 9.6 2.7 10.3 3.3 9.5 3.2 C 9.5 3.2 9.5 3.2 9.5 3.2 Z M 13.6 10.1 C 13.7 9.7 14.2 10.3 13.6 10.1 C 13.6 10.1 13.6 10.1 13.6 10.1 Z M 8.3 8.5 C 8.4 8.1 9.0 8.6 8.3 8.5 C 8.3 8.5 8.3 8.5 8.3 8.5 Z M 11.6 3.8 C 12.8 4.5 10.4 4.3 10.3 3.8 C 10.6 3.9 11.4 3.4 11.6 3.8 C 11.6 3.8 11.6 3.8 11.6 3.8 Z M 11.3 6.4 C 11.4 6.3 11.9 6.3 11.8 6.7 C 11.4 6.8 11.2 6.5 11.3 6.4 C 11.3 6.4 11.3 6.4 11.3 6.4 Z M 5.3 3.8 C 5.4 3.6 5.9 3.6 5.8 4.0 C 5.5 4.1 5.1 3.9 5.3 3.8 C 5.3 3.8 5.3 3.8 5.3 3.8 Z M 12.8 5.3 C 13.1 5.4 13.1 5.9 12.7 5.8 C 12.6 5.6 11.8 5.3 12.8 5.3 C 12.8 5.3 12.8 5.3 12.8 5.3 Z M 15.2 4.4 C 16.2 4.9 13.8 4.9 13.9 4.7 C 13.7 4.3 14.7 3.9 15.2 4.4 C 15.2 4.4 15.2 4.4 15.2 4.4 Z M 13.3 6.0 C 14.1 6.4 12.8 6.3 13.3 6.0 C 13.3 6.0 13.3 6.0 13.3 6.0 Z M 5.9 7.1 C 6.7 7.4 5.5 7.4 5.9 7.1 C 5.9 7.1 5.9 7.1 5.9 7.1 Z M 10.0 9.0 C 10.8 9.4 9.6 9.3 10.0 9.0 C 10.0 9.0 10.0 9.0 10.0 9.0 Z M 9.1 4.3 C 7.5 4.0 9.1 3.1 9.1 4.3 C 9.1 4.3 9.1 4.3 9.1 4.3 Z M 17.6 5.0 C 16.1 4.5 17.8 3.8 17.6 5.0 C 17.6 5.0 17.6 5.0 17.6 5.0 Z M 536.1 66.2 C 536.0 67.8 538.5 62.0 536.5 64.1 C 534.9 64.5 535.5 60.6 536.7 61.7 C 537.0 60.6 537.0 60.5 536.4 59.9 C 537.4 59.7 537.9 56.8 537.3 55.9 C 536.3 55.4 537.3 57.7 536.2 56.3 C 535.7 53.0 535.3 56.5 533.9 55.5 C 533.9 55.4 534.5 55.2 534.2 55.0 C 533.0 55.0 532.5 56.8 531.6 56.1 C 531.8 56.5 530.7 58.7 531.6 57.8 C 532.6 57.4 530.4 60.1 532.1 59.9 C 531.3 60.6 532.3 61.5 531.3 62.0 C 531.0 62.6 531.9 62.6 532.2 62.6 C 533.0 62.6 530.3 63.0 531.6 64.1 C 531.1 64.1 530.9 66.6 531.8 64.8 C 531.6 65.3 530.5 68.2 532.4 67.0 C 533.6 65.1 533.4 69.6 534.1 67.1 C 534.7 65.2 534.5 64.7 535.0 66.3 C 534.8 66.8 534.4 69.1 535.5 67.3 C 535.4 66.8 535.8 65.9 536.1 66.2 C 536.1 66.2 536.1 66.2 536.1 66.2 Z M 533.8 66.2 C 534.0 65.1 534.4 66.2 533.8 66.2 C 533.8 66.2 533.8 66.2 533.8 66.2 Z M 531.0 61.9 C 531.0 60.9 531.5 61.8 531.0 61.9 C 531.0 61.9 531.0 61.9 531.0 61.9 Z M 537.1 62.6 C 536.6 61.9 538.3 61.9 537.1 62.6 C 537.1 62.6 537.1 62.6 537.1 62.6 Z M 532.0 63.7 C 532.0 63.6 532.2 63.9 532.3 64.1 C 532.2 64.1 532.0 63.8 532.0 63.7 C 532.0 63.7 532.0 63.7 532.0 63.7 Z M 537.2 60.6 C 536.5 58.8 538.5 60.3 537.2 60.6 C 537.2 60.6 537.2 60.6 537.2 60.6 Z M 535.7 57.1 C 534.1 57.0 535.9 55.4 535.7 57.1 C 535.7 57.1 535.7 57.1 535.7 57.1 Z M 532.2 59.4 C 532.5 59.7 532.0 59.7 532.2 59.4 C 532.2 59.4 532.2 59.4 532.2 59.4 Z M 531.2 66.1 C 531.5 66.4 530.9 66.3 531.2 66.1 C 531.2 66.1 531.2 66.1 531.2 66.1 Z M 532.3 57.6 C 532.9 57.7 532.0 58.1 532.3 57.6 C 532.3 57.6 532.3 57.6 532.3 57.6 Z M 536.5 62.2 C 537.6 63.9 534.4 64.0 536.5 62.2 C 536.5 62.2 536.5 62.2 536.5 62.2 Z M 536.2 65.1 C 536.3 66.2 535.5 64.8 535.7 64.3 C 535.9 64.4 536.2 64.9 536.2 65.1 C 536.2 65.1 536.2 65.1 536.2 65.1 Z M 536.4 60.5 C 537.0 61.6 536.0 61.5 536.4 60.5 C 536.4 60.5 536.4 60.5 536.4 60.5 Z M 536.9 63.4 C 536.7 63.9 536.8 62.9 536.9 63.4 C 536.9 63.4 536.9 63.4 536.9 63.4 Z M 537.8 58.4 C 537.6 58.9 537.6 57.9 537.8 58.4 C 537.8 58.4 537.8 58.4 537.8 58.4 Z M 536.6 66.6 C 536.3 67.1 536.5 66.1 536.6 66.6 C 536.6 66.6 536.6 66.6 536.6 66.6 Z M 536.9 58.8 C 536.4 58.7 535.2 60.2 536.1 57.5 C 536.5 57.0 537.4 58.1 536.9 58.8 C 536.9 58.8 536.9 58.8 536.9 58.8 Z M 21.8 7.8 C 16.3 3.4 16.6 7.2 16.1 7.7 C 15.0 8.2 15.7 9.0 16.7 10.0 C 17.3 12.3 19.3 8.8 19.4 10.9 C 19.9 14.0 22.2 9.6 21.6 12.5 C 21.0 13.0 23.4 13.6 23.3 13.3 C 23.8 15.0 26.4 13.9 26.5 13.7 C 27.1 14.4 25.7 16.5 28.8 16.5 C 30.8 17.1 29.9 19.6 30.5 17.9 C 30.4 20.3 31.7 18.1 32.3 19.5 C 32.3 21.0 33.5 18.4 33.3 21.1 C 35.0 20.5 32.1 21.0 36.1 23.9 C 34.7 22.1 38.5 24.8 37.1 24.8 C 35.1 24.2 38.9 26.4 39.5 28.6 C 40.3 28.7 42.9 30.3 41.3 30.7 C 40.8 33.7 43.4 32.3 42.5 33.9 C 42.2 34.9 43.6 34.6 43.7 35.1 C 43.1 36.4 44.0 36.7 45.1 39.7 C 47.5 46.2 48.1 39.4 49.7 41.4 C 50.3 41.5 52.0 36.7 50.1 39.2 C 50.6 38.4 45.7 34.8 49.6 36.0 C 47.7 34.6 51.0 35.9 47.9 32.6 C 48.4 38.8 44.3 27.0 47.6 31.6 C 47.8 30.5 46.6 28.4 46.9 30.2 C 45.5 31.7 45.8 26.2 44.8 29.4 C 43.7 25.9 42.2 27.9 42.9 26.2 C 44.7 24.1 42.5 26.8 42.1 24.8 C 39.7 21.4 44.0 22.2 40.8 21.4 C 39.2 17.4 39.4 21.4 38.2 20.6 C 36.6 21.5 36.4 16.6 38.7 18.7 C 36.8 18.2 39.1 17.9 37.0 17.4 C 36.8 19.5 36.4 14.4 35.9 15.8 C 34.4 14.9 34.4 16.3 33.9 15.9 C 32.1 14.4 33.7 13.6 32.5 14.2 C 31.7 14.4 32.0 12.0 31.4 12.2 C 33.5 13.8 28.7 12.5 29.0 11.6 C 30.4 12.3 29.5 9.3 27.9 9.9 C 27.1 13.6 26.4 7.9 24.8 8.5 C 24.8 10.8 19.5 6.4 22.3 6.6 C 22.0 6.7 21.8 7.8 21.8 7.8 M 30.6 12.0 C 32.3 13.4 28.6 11.0 30.6 12.0 M 30.9 11.6 C 31.3 12.6 29.5 10.0 31.1 11.4 C 31.1 11.5 30.8 11.4 30.9 11.6 M 37.7 17.2 C 37.1 17.4 37.1 16.1 37.7 17.2 M 38.0 19.3 C 38.5 20.7 36.6 18.0 38.0 19.3 M 48.6 35.5 C 45.1 35.0 49.3 32.9 48.6 35.5 M 42.9 23.8 C 41.2 22.0 44.4 23.7 42.9 23.8 M 41.9 23.6 C 40.9 23.0 42.3 23.0 41.9 23.6 M 47.1 32.1 C 47.1 32.3 47.1 32.3 47.1 32.1 C 47.1 32.1 47.1 32.1 47.1 32.1 Z M 49.4 37.3 C 49.4 37.4 49.4 37.4 49.4 37.3 C 49.4 37.3 49.4 37.3 49.4 37.3 Z M 44.1 27.3 C 43.8 25.4 45.9 29.6 44.1 27.3 C 44.1 27.3 44.1 27.3 44.1 27.3 Z M 44.1 36.8 C 44.0 36.7 44.0 36.7 44.1 36.8 C 44.1 36.8 44.1 36.8 44.1 36.8 Z M 28.5 12.2 C 28.4 12.2 28.4 12.2 28.5 12.2 C 28.5 12.2 28.5 12.2 28.5 12.2 Z M 23.5 8.1 C 23.4 8.5 22.6 7.3 23.5 8.1 C 23.5 8.1 23.5 8.1 23.5 8.1 Z M 17.5 9.3 C 17.4 9.3 17.4 9.3 17.5 9.3 C 17.5 9.3 17.5 9.3 17.5 9.3 Z M 25.9 12.5 C 25.8 12.5 25.8 12.5 25.9 12.5 C 25.9 12.5 25.9 12.5 25.9 12.5 Z M 27.8 11.0 C 27.8 9.1 29.7 12.7 27.8 11.0 C 27.8 11.0 27.8 11.0 27.8 11.0 Z M 39.5 27.7 C 40.1 27.4 40.1 29.0 39.5 27.7 C 39.5 27.7 39.5 27.7 39.5 27.7 Z M 37.7 19.9 C 38.1 19.8 38.2 20.7 37.7 19.9 C 37.7 19.9 37.7 19.9 37.7 19.9 Z M 36.7 15.8 C 37.2 15.7 37.3 16.6 36.7 15.8 C 36.7 15.8 36.7 15.8 36.7 15.8 Z M 23.8 7.7 C 24.0 7.7 24.0 7.7 23.8 7.7 C 23.8 7.7 23.8 7.7 23.8 7.7 Z M 25.3 9.9 C 24.6 7.8 27.0 11.8 25.3 9.9 C 25.3 9.9 25.3 9.9 25.3 9.9 Z M 22.7 9.1 C 23.2 10.0 20.9 8.0 22.7 9.1 M 23.0 11.9 C 24.9 12.1 20.2 13.6 23.0 11.9 C 23.0 11.9 23.0 11.9 23.0 11.9 Z M 30.4 17.4 C 30.4 17.5 30.4 17.5 30.4 17.4 C 30.4 17.4 30.4 17.4 30.4 17.4 Z M 32.3 13.2 C 33.7 14.3 31.2 12.8 32.3 13.2 C 32.3 13.2 32.3 13.2 32.3 13.2 Z M 19.2 5.6 C 20.9 6.3 18.0 5.6 19.2 5.6 C 19.2 5.6 19.2 5.6 19.2 5.6 Z M 35.4 19.9 C 37.5 21.7 33.6 19.3 35.4 19.9 C 35.4 19.9 35.4 19.9 35.4 19.9 Z M 43.1 26.8 C 43.1 26.8 43.1 26.8 43.1 26.8 C 43.1 26.8 43.1 26.8 43.1 26.8 Z M 44.7 28.1 C 44.7 28.2 44.7 28.2 44.7 28.1 C 44.7 28.1 44.7 28.1 44.7 28.1 Z M 46.8 36.1 C 46.8 36.2 46.8 36.2 46.8 36.1 C 46.8 36.1 46.8 36.1 46.8 36.1 Z M 46.2 29.3 C 46.2 29.4 46.2 29.4 46.2 29.3 C 46.2 29.3 46.2 29.3 46.2 29.3 Z M 48.3 34.6 C 48.3 34.8 48.3 34.8 48.3 34.6 C 48.3 34.6 48.3 34.6 48.3 34.6 Z M 49.2 33.4 C 49.2 33.5 49.2 33.5 49.2 33.4 C 49.2 33.4 49.2 33.4 49.2 33.4 Z M 37.3 26.2 C 37.3 26.3 37.3 26.3 37.3 26.2 C 37.3 26.2 37.3 26.2 37.3 26.2 Z M 26.8 8.7 C 26.8 8.9 26.8 8.9 26.8 8.7 C 26.8 8.7 26.8 8.7 26.8 8.7 Z M 47.6 34.5 C 47.6 34.6 47.6 34.6 47.6 34.5 C 47.6 34.5 47.6 34.5 47.6 34.5 Z M 39.7 23.3 C 38.7 24.2 40.3 21.4 39.9 23.6 C 39.8 23.6 39.8 23.1 39.7 23.3 M 39.0 26.1 C 38.9 26.0 38.9 26.0 39.0 26.1 C 39.0 26.1 39.0 26.1 39.0 26.1 Z M 34.7 22.2 C 34.6 22.2 34.6 22.2 34.7 22.2 C 34.7 22.2 34.7 22.2 34.7 22.2 Z M 45.9 28.3 C 46.5 27.7 46.2 30.0 45.8 28.1 M 44.8 37.1 C 45.3 36.6 44.9 38.7 44.6 36.9 M 17.2 5.4 C 16.7 5.9 16.1 4.7 17.2 5.4 M 33.4 21.8 C 32.8 22.0 32.9 20.8 33.4 21.8 M 36.4 22.5 C 36.8 21.9 36.9 24.0 36.2 22.4 M 43.1 33.3 C 43.1 33.4 43.1 33.4 43.1 33.3 C 43.1 33.3 43.1 33.3 43.1 33.3 Z M 34.3 15.0 C 34.4 15.1 34.4 15.1 34.3 15.0 C 34.3 15.0 34.3 15.0 34.3 15.0 Z M 38.5 21.4 C 38.6 20.0 38.9 22.8 38.5 21.4 M 31.5 15.0 C 31.2 13.1 33.1 16.7 31.5 15.0 M 45.9 40.2 C 46.5 38.0 45.7 41.7 45.9 40.2 M 45.8 31.0 C 46.4 28.8 45.6 32.5 45.8 31.0 M 35.0 16.5 C 35.5 15.8 36.0 18.0 35.0 16.5 M 20.9 6.7 C 19.5 5.9 23.1 6.9 20.9 6.7 M 41.2 29.9 C 41.2 30.0 41.2 30.0 41.2 29.9 C 41.2 29.9 41.2 29.9 41.2 29.9 Z M 22.9 14.0 C 23.0 14.1 23.0 14.1 22.9 14.0 C 22.9 14.0 22.9 14.0 22.9 14.0 Z M 51.2 39.8 C 51.2 39.9 51.2 39.9 51.2 39.8 C 51.2 39.8 51.2 39.8 51.2 39.8 Z M 44.7 30.4 C 44.6 30.5 44.6 30.5 44.7 30.4 C 44.7 30.4 44.7 30.4 44.7 30.4 Z M 50.1 37.0 C 50.0 37.1 50.0 37.1 50.1 37.0 C 50.1 37.0 50.1 37.0 50.1 37.0 Z M 41.0 26.6 C 41.0 26.7 41.0 26.7 41.0 26.6 C 41.0 26.6 41.0 26.6 41.0 26.6 Z M 43.6 23.5 C 43.6 23.6 43.6 23.6 43.6 23.5 C 43.6 23.5 43.6 23.5 43.6 23.5 Z M 38.7 20.0 C 38.7 20.0 38.7 20.0 38.7 20.0 C 38.7 20.0 38.7 20.0 38.7 20.0 Z M 44.9 26.0 C 47.0 28.9 42.8 25.1 44.9 26.0 C 44.9 26.0 44.9 26.0 44.9 26.0 Z M 38.3 23.4 C 38.3 23.5 38.3 23.5 38.3 23.4 C 38.3 23.4 38.3 23.4 38.3 23.4 Z M 40.1 21.3 C 42.4 22.3 39.4 23.4 40.1 21.3 M 33.9 13.9 C 34.8 13.9 33.6 14.8 33.9 13.9 M 28.0 15.7 C 27.9 15.7 27.9 15.7 28.0 15.7 C 28.0 15.7 28.0 15.7 28.0 15.7 Z M 28.9 15.9 C 29.0 16.0 29.0 16.0 28.9 15.9 C 28.9 15.9 28.9 15.9 28.9 15.9 Z M 32.2 12.2 C 32.2 12.3 32.2 12.3 32.2 12.2 C 32.2 12.2 32.2 12.2 32.2 12.2 Z M 28.2 17.2 C 28.2 17.2 28.2 17.2 28.2 17.2 C 28.2 17.2 28.2 17.2 28.2 17.2 Z M 42.7 22.5 C 42.7 22.6 42.7 22.6 42.7 22.5 C 42.7 22.5 42.7 22.5 42.7 22.5 Z M 51.2 38.2 C 51.3 38.3 51.3 38.3 51.2 38.2 C 51.2 38.2 51.2 38.2 51.2 38.2 Z M 19.8 10.6 C 19.9 10.7 19.9 10.7 19.8 10.6 C 19.8 10.6 19.8 10.6 19.8 10.6 Z M 42.6 24.9 C 42.6 25.0 42.6 25.0 42.6 24.9 C 42.6 24.9 42.6 24.9 42.6 24.9 Z M 26.2 14.2 C 26.2 14.3 26.2 14.3 26.2 14.2 C 26.2 14.2 26.2 14.2 26.2 14.2 Z M 42.2 23.8 C 42.2 23.8 42.2 23.8 42.2 23.8 C 42.2 23.8 42.2 23.8 42.2 23.8 Z M 40.7 29.6 C 40.7 29.7 40.7 29.7 40.7 29.6 C 40.7 29.6 40.7 29.6 40.7 29.6 Z M 41.6 33.1 C 41.6 33.1 41.6 33.1 41.6 33.1 C 41.6 33.1 41.6 33.1 41.6 33.1 Z M 42.8 28.0 C 42.8 28.1 42.8 28.1 42.8 28.0 C 42.8 28.0 42.8 28.0 42.8 28.0 Z M 26.1 12.2 C 21.1 7.7 30.9 14.4 26.1 12.2 M 43.1 29.1 C 41.0 24.9 46.3 31.7 43.1 29.1 C 43.7 29.4 43.2 29.2 43.1 29.1 M 52.5 40.8 C 50.4 40.1 49.2 40.6 48.3 42.1 C 48.2 43.3 50.6 41.8 48.6 43.1 C 47.0 41.3 46.1 45.8 48.7 44.1 C 50.7 46.5 47.3 45.8 49.4 46.5 C 51.7 48.9 49.9 48.3 52.1 49.9 C 54.4 49.6 53.0 51.6 54.5 50.6 C 52.4 51.4 57.3 51.4 57.2 52.2 C 55.7 52.2 58.2 53.2 60.2 53.4 C 62.1 53.6 63.4 53.4 60.3 52.6 C 63.1 52.3 62.3 53.5 63.2 53.7 C 64.4 52.7 67.7 54.1 68.8 52.6 C 68.4 52.5 67.7 52.7 67.4 52.4 C 66.8 51.8 69.0 52.0 68.8 52.1 C 69.6 51.4 72.8 48.9 69.6 52.2 C 69.7 53.0 72.4 50.3 72.7 51.1 C 75.8 49.2 72.5 49.3 74.5 49.3 C 76.6 47.8 78.0 46.5 77.8 46.4 C 79.1 45.4 80.0 45.9 80.3 44.2 C 83.9 43.2 79.3 40.1 82.8 41.7 C 82.8 40.4 85.2 41.4 83.4 40.0 C 83.4 41.5 88.5 37.2 85.3 38.1 C 85.5 37.2 90.3 36.3 88.3 35.1 C 88.2 32.9 86.9 31.8 83.5 33.1 C 84.6 33.7 80.1 34.7 83.4 34.4 C 85.9 32.9 80.4 38.7 81.0 36.9 C 79.3 34.8 79.5 40.9 77.1 40.7 C 78.7 40.5 74.8 45.1 74.7 42.5 C 73.8 43.1 74.2 44.0 72.6 43.8 C 75.2 41.9 73.0 46.2 72.4 45.1 C 72.4 44.2 68.4 46.1 69.3 46.9 C 71.9 48.6 68.1 46.9 67.8 48.1 C 65.9 49.5 67.6 45.9 66.5 48.2 C 66.0 48.0 63.2 48.4 64.8 47.7 C 65.5 47.8 63.0 50.7 62.8 48.4 C 66.2 47.3 58.9 46.8 60.0 47.9 C 62.7 49.3 61.2 49.3 59.4 48.8 C 57.5 48.3 55.6 47.1 58.3 47.5 C 57.1 46.3 57.7 46.4 57.7 46.5 C 57.8 46.7 57.6 47.1 56.3 46.5 C 56.2 47.3 53.9 46.4 55.2 45.7 C 56.3 43.7 52.3 47.1 53.5 43.7 C 54.3 42.7 50.5 41.1 52.5 41.5 C 52.7 41.5 52.6 40.9 52.5 40.8 M 52.9 41.9 C 52.3 41.9 53.1 41.0 52.9 41.9 M 52.3 41.8 C 52.3 41.7 52.3 41.7 52.3 41.8 C 52.3 41.8 52.3 41.8 52.3 41.8 Z M 55.9 46.3 C 55.9 46.2 55.9 46.2 55.9 46.3 C 55.9 46.3 55.9 46.3 55.9 46.3 Z M 58.9 53.7 C 58.9 53.6 58.9 53.6 58.9 53.7 C 58.9 53.7 58.9 53.7 58.9 53.7 Z M 59.5 48.2 C 59.4 48.2 59.4 48.2 59.5 48.2 C 59.5 48.2 59.5 48.2 59.5 48.2 Z M 54.1 45.3 C 54.1 45.2 54.1 45.2 54.1 45.3 C 54.1 45.3 54.1 45.3 54.1 45.3 Z M 59.3 47.3 C 59.4 48.2 58.1 46.2 59.5 47.2 C 59.5 47.3 59.2 47.2 59.3 47.3 M 64.1 47.7 C 64.2 47.8 64.2 47.8 64.1 47.7 M 77.4 48.2 C 77.4 48.2 77.4 48.2 77.4 48.2 M 73.8 42.5 C 74.0 42.5 74.0 42.5 73.8 42.5 M 68.5 47.4 C 69.8 46.7 69.0 47.6 68.5 47.4 M 77.5 39.5 C 75.5 40.9 79.0 37.4 77.5 39.5 M 78.8 37.5 C 79.0 37.4 79.0 37.4 78.8 37.5 M 71.7 44.7 C 71.7 44.8 71.7 44.8 71.7 44.7 C 71.7 44.7 71.7 44.7 71.7 44.7 Z M 67.9 47.3 C 66.0 47.6 69.2 45.9 67.9 47.3 M 56.9 46.0 C 57.9 46.2 56.3 46.9 56.9 46.0 M 54.9 45.1 C 54.9 45.1 54.9 45.1 54.9 45.1 C 54.9 45.1 54.9 45.1 54.9 45.1 Z M 74.9 42.1 C 74.8 42.2 74.8 42.2 74.9 42.1 C 74.9 42.1 74.9 42.1 74.9 42.1 Z M 76.6 40.2 C 76.6 40.2 76.6 40.2 76.6 40.2 C 76.6 40.2 76.6 40.2 76.6 40.2 Z M 84.3 40.9 C 84.2 41.0 84.2 41.0 84.3 40.9 C 84.3 40.9 84.3 40.9 84.3 40.9 Z M 54.7 48.2 C 53.5 46.8 57.2 47.3 56.1 48.5 C 56.0 49.1 54.9 48.2 54.7 48.2 M 67.2 49.5 C 68.1 51.4 64.9 47.2 67.2 49.5 M 80.0 38.1 C 83.1 38.4 77.1 38.7 80.0 38.1 M 82.4 35.0 C 83.5 34.5 77.5 40.5 81.2 35.8 C 81.3 35.1 81.9 35.1 82.4 35.0 M 64.3 48.7 C 64.7 49.8 62.0 48.3 64.3 48.7 M 74.4 48.0 C 74.6 46.8 75.9 44.9 76.0 46.5 C 77.0 47.7 73.9 49.1 74.4 48.0 M 52.2 43.0 C 54.5 43.0 50.9 43.8 52.2 43.0 M 56.4 47.3 C 56.5 47.2 56.5 47.2 56.4 47.3 C 56.4 47.3 56.4 47.3 56.4 47.3 Z M 58.8 48.0 C 58.9 48.2 58.9 48.2 58.8 48.0 M 54.1 42.8 C 54.1 43.0 54.1 43.0 54.1 42.8 M 73.2 46.5 C 73.3 46.5 73.3 46.5 73.2 46.5 M 68.3 48.0 C 71.0 48.8 67.4 48.8 68.3 48.0 M 63.3 52.5 C 64.1 53.4 61.5 52.5 63.3 52.5 M 71.2 45.6 C 73.5 46.1 70.3 48.2 71.2 45.6 M 67.3 48.2 C 67.4 48.1 67.4 48.1 67.3 48.2 C 67.3 48.2 67.3 48.2 67.3 48.2 Z M 75.0 47.7 C 75.0 47.7 75.0 47.7 75.0 47.7 C 75.0 47.7 75.0 47.7 75.0 47.7 Z M 75.6 47.1 C 75.6 47.2 75.6 47.2 75.6 47.1 C 75.6 47.1 75.6 47.1 75.6 47.1 Z M 72.7 44.2 C 72.6 44.3 72.6 44.3 72.7 44.2 C 72.7 44.2 72.7 44.2 72.7 44.2 Z M 51.5 48.4 C 52.9 49.9 50.2 47.5 51.5 48.4 C 51.5 48.4 51.5 48.4 51.5 48.4 Z M 61.2 47.8 C 63.5 49.7 59.1 48.7 61.2 47.8 C 61.2 47.8 61.2 47.8 61.2 47.8 Z M 64.1 50.3 C 64.1 50.4 64.1 50.4 64.1 50.3 C 64.1 50.3 64.1 50.3 64.1 50.3 Z M 69.7 45.2 C 69.8 45.3 69.8 45.3 69.7 45.2 C 69.7 45.2 69.7 45.2 69.7 45.2 Z M 52.2 49.3 C 52.1 49.4 52.1 49.4 52.2 49.3 C 52.2 49.3 52.2 49.3 52.2 49.3 Z M 77.1 41.3 C 77.2 41.4 77.2 41.4 77.1 41.3 C 77.1 41.3 77.1 41.3 77.1 41.3 Z M 70.9 50.7 C 71.2 49.8 71.2 51.1 70.9 50.7 C 70.9 50.7 70.9 50.7 70.9 50.7 Z M 73.3 49.3 C 73.4 49.2 73.4 49.2 73.3 49.3 C 73.3 49.3 73.3 49.3 73.3 49.3 Z M 79.2 36.8 C 79.2 36.8 79.2 36.8 79.2 36.8 C 79.2 36.8 79.2 36.8 79.2 36.8 Z M 80.2 45.6 C 80.2 45.5 80.2 45.5 80.2 45.6 C 80.2 45.6 80.2 45.6 80.2 45.6 Z M 80.5 42.4 C 80.5 42.4 80.5 42.4 80.5 42.4 C 80.5 42.4 80.5 42.4 80.5 42.4 Z M 72.6 44.8 C 74.4 42.9 72.6 45.8 72.6 44.8 C 72.6 44.8 72.6 44.8 72.6 44.8 Z M 85.3 36.5 C 85.4 36.5 85.4 36.5 85.3 36.5 C 85.3 36.5 85.3 36.5 85.3 36.5 Z M 84.7 33.7 C 84.8 33.7 84.8 33.7 84.7 33.7 C 84.7 33.7 84.7 33.7 84.7 33.7 Z M 84.4 32.3 C 84.5 32.3 84.5 32.3 84.4 32.3 C 84.4 32.3 84.4 32.3 84.4 32.3 Z M 57.9 50.4 C 57.8 50.3 57.8 50.3 57.9 50.4 C 57.9 50.4 57.9 50.4 57.9 50.4 Z M 58.3 46.4 C 58.3 46.4 58.3 46.4 58.3 46.4 C 58.3 46.4 58.3 46.4 58.3 46.4 Z M 61.5 47.3 C 61.5 47.2 61.5 47.2 61.5 47.3 C 61.5 47.3 61.5 47.3 61.5 47.3 Z M 56.2 52.3 C 56.2 52.2 56.2 52.2 56.2 52.3 C 56.2 52.3 56.2 52.3 56.2 52.3 Z M 70.5 48.6 C 70.5 48.5 70.5 48.5 70.5 48.6 C 70.5 48.6 70.5 48.6 70.5 48.6 Z M 72.4 49.2 C 72.3 49.2 72.3 49.2 72.4 49.2 C 72.4 49.2 72.4 49.2 72.4 49.2 Z M 70.4 52.7 C 70.3 52.6 70.3 52.6 70.4 52.7 C 70.4 52.7 70.4 52.7 70.4 52.7 Z M 74.1 49.8 C 74.0 49.7 74.0 49.7 74.1 49.8 C 74.1 49.8 74.1 49.8 74.1 49.8 Z M 48.5 44.7 C 48.5 44.7 48.5 44.7 48.5 44.7 C 48.5 44.7 48.5 44.7 48.5 44.7 Z M 50.8 42.8 C 50.7 42.8 50.7 42.8 50.8 42.8 C 50.8 42.8 50.8 42.8 50.8 42.8 Z M 69.8 46.5 C 69.9 45.7 71.2 46.7 69.8 46.5 M 66.0 48.5 C 66.0 48.5 66.0 48.5 66.0 48.5 C 66.0 48.5 66.0 48.5 66.0 48.5 Z M 76.4 41.3 C 77.7 41.6 74.1 42.7 76.4 41.3 C 76.4 41.3 76.4 41.3 76.4 41.3 Z M 77.6 46.9 C 77.7 46.8 77.7 46.8 77.6 46.9 C 77.6 46.9 77.6 46.9 77.6 46.9 Z M 78.4 45.5 C 78.6 45.5 78.6 45.5 78.4 45.5 C 78.4 45.5 78.4 45.5 78.4 45.5 Z M 82.0 37.2 C 82.2 37.1 82.2 37.1 82.0 37.2 M 65.3 47.6 C 65.9 48.0 65.8 47.9 65.3 47.6 M 77.7 39.9 C 77.7 40.0 77.7 40.0 77.7 39.9 C 77.7 39.9 77.7 39.9 77.7 39.9 Z M 82.8 35.3 C 82.8 35.4 82.8 35.4 82.8 35.3 C 82.8 35.3 82.8 35.3 82.8 35.3 Z M 62.4 48.5 C 62.4 49.9 61.8 49.5 62.4 48.5 M 53.9 44.8 C 53.8 44.9 53.8 44.9 53.9 44.8 C 53.9 44.8 53.9 44.8 53.9 44.8 Z M 89.2 28.0 C 85.6 28.8 87.1 30.6 87.1 30.7 C 85.4 28.2 85.8 33.5 86.7 33.5 C 86.9 33.9 92.0 36.1 91.6 32.4 C 91.8 31.7 92.6 32.2 93.0 32.0 C 95.8 29.7 89.9 32.2 93.6 29.6 C 94.5 29.5 95.1 32.0 96.3 29.2 C 96.6 29.3 99.5 28.6 98.0 28.2 C 99.8 28.5 99.9 26.9 100.9 26.1 C 102.3 26.1 100.7 28.0 104.1 25.1 C 106.5 26.4 105.9 22.8 108.0 24.5 C 109.0 24.3 109.5 20.2 107.8 23.0 C 108.0 22.6 106.0 21.3 109.5 21.1 C 109.1 21.6 108.2 25.5 112.8 22.8 C 113.6 22.7 115.4 21.5 115.9 21.8 C 113.4 22.6 119.5 23.2 118.8 22.1 C 122.8 22.7 120.5 21.0 123.3 22.4 C 125.6 22.6 122.7 20.6 125.5 21.9 C 127.6 22.0 126.1 22.7 125.9 22.6 C 127.7 23.0 128.5 22.5 129.1 22.7 C 129.5 23.0 130.1 23.9 130.8 23.1 C 133.1 21.9 131.7 19.8 133.1 18.4 C 131.7 17.2 132.1 19.5 131.3 18.0 C 130.3 18.8 131.2 17.6 126.8 17.3 C 126.9 17.6 127.8 18.5 126.8 18.4 C 125.1 18.1 126.5 15.3 123.5 17.2 C 126.9 18.0 118.9 18.0 121.9 18.7 C 118.1 18.9 120.9 18.3 118.0 17.8 C 118.3 19.8 117.6 15.8 116.7 17.4 C 116.4 16.6 112.0 17.5 115.3 18.3 C 110.8 19.4 113.6 17.9 111.7 17.2 C 109.5 17.5 112.2 20.3 110.4 18.3 C 107.4 17.9 110.6 19.4 108.1 18.2 C 109.4 19.5 106.1 18.7 107.3 20.2 C 102.9 21.7 107.3 18.1 104.5 20.5 C 105.5 20.2 104.3 18.0 102.9 20.2 C 104.8 22.6 99.4 18.9 102.2 21.9 C 96.5 25.4 100.5 20.7 97.1 22.5 C 96.3 23.0 98.6 23.1 97.9 23.6 C 93.4 25.3 96.3 22.6 95.1 25.5 C 91.3 28.4 93.1 24.8 91.0 26.1 C 91.4 27.0 90.8 29.3 89.2 28.0 M 93.2 26.2 C 93.7 25.2 94.1 26.4 93.2 26.2 M 85.0 31.7 C 85.3 30.6 85.9 31.7 85.0 31.7 M 96.3 23.7 C 97.2 22.5 97.2 24.3 96.3 23.7 M 120.6 18.0 C 118.9 18.0 121.4 17.5 120.6 18.0 M 87.9 28.9 C 88.5 27.5 88.8 29.5 87.9 28.9 M 87.5 31.2 C 87.6 31.2 87.6 31.2 87.5 31.2 M 123.1 16.5 C 123.2 16.5 123.2 16.5 123.1 16.5 M 116.3 16.7 C 117.7 16.6 115.5 17.1 116.3 16.7 M 116.7 22.9 C 118.0 22.8 116.0 23.4 116.7 22.9 M 126.8 16.7 C 128.3 16.4 127.1 17.5 126.8 16.7 M 130.2 18.7 C 131.6 18.4 130.9 19.4 130.2 18.7 M 93.7 28.5 C 93.8 28.6 93.8 28.6 93.7 28.5 C 93.7 28.5 93.7 28.5 93.7 28.5 Z M 105.0 24.4 C 103.5 24.3 106.8 24.5 105.0 24.4 M 101.4 21.4 C 102.8 22.2 99.5 22.1 101.4 21.4 C 101.4 21.4 101.4 21.4 101.4 21.4 Z M 99.6 22.8 C 99.6 22.9 99.6 22.9 99.6 22.8 C 99.6 22.8 99.6 22.8 99.6 22.8 Z M 106.1 20.3 C 106.1 20.4 106.1 20.4 106.1 20.3 C 106.1 20.3 106.1 20.3 106.1 20.3 Z M 104.8 20.9 C 104.4 21.3 104.0 20.9 104.8 20.9 C 104.8 20.9 104.8 20.9 104.8 20.9 Z M 115.1 22.5 C 114.6 22.8 114.4 22.3 115.1 22.5 C 115.1 22.5 115.1 22.5 115.1 22.5 Z M 102.9 22.1 C 103.2 23.3 101.7 21.7 102.9 22.1 C 102.9 22.1 102.9 22.1 102.9 22.1 Z M 110.6 22.8 C 111.1 22.3 112.1 23.7 110.6 22.8 M 124.5 16.8 C 125.1 16.5 125.7 18.1 124.5 16.8 M 109.7 17.7 C 110.2 17.2 111.2 18.5 109.7 17.7 M 93.6 25.3 C 93.8 25.3 93.8 25.3 93.6 25.3 M 103.3 26.4 C 103.9 25.6 103.9 26.7 103.3 26.4 M 92.0 32.8 C 92.4 31.8 92.7 32.9 92.0 32.8 M 122.2 22.6 C 122.2 22.2 123.5 22.8 122.2 22.6 M 111.8 19.3 C 113.1 19.2 114.4 19.6 111.9 20.1 C 111.7 19.8 112.4 19.5 111.8 19.3 C 111.8 19.3 111.8 19.3 111.8 19.3 Z M 116.6 21.5 C 116.8 21.6 116.8 21.6 116.6 21.5 M 113.8 17.7 C 114.0 17.8 114.0 17.8 113.8 17.7 M 121.3 17.3 C 121.5 17.5 121.5 17.5 121.3 17.3 M 122.2 17.0 C 122.2 17.0 122.2 17.0 122.2 17.0 C 122.2 17.0 122.2 17.0 122.2 17.0 Z M 130.5 17.4 C 130.5 17.4 130.5 17.4 130.5 17.4 C 130.5 17.4 130.5 17.4 130.5 17.4 Z M 118.9 17.5 C 118.9 17.6 118.9 17.6 118.9 17.5 C 118.9 17.5 118.9 17.5 118.9 17.5 Z M 125.2 22.5 C 125.2 22.6 125.2 22.6 125.2 22.5 C 125.2 22.5 125.2 22.5 125.2 22.5 Z M 124.5 21.7 C 124.5 21.7 124.5 21.7 124.5 21.7 C 124.5 21.7 124.5 21.7 124.5 21.7 Z M 89.7 27.6 C 90.1 26.2 91.6 29.0 89.7 27.6 M 127.7 22.1 C 128.6 23.1 126.0 22.0 127.7 22.1 C 127.7 22.1 127.7 22.1 127.7 22.1 Z M 118.1 18.6 C 118.2 18.8 118.2 18.8 118.1 18.6 M 122.7 17.1 C 122.8 17.3 122.8 17.3 122.7 17.1 M 100.9 20.4 C 101.0 20.5 101.0 20.5 100.9 20.4 M 128.4 17.9 C 131.8 18.7 126.6 19.4 128.4 17.9 M 99.8 22.2 C 99.7 22.1 99.7 22.1 99.8 22.2 M 108.0 21.6 C 110.1 20.9 107.4 22.5 108.0 21.6 M 113.3 18.7 C 113.3 18.8 113.3 18.8 113.3 18.7 C 113.3 18.7 113.3 18.7 113.3 18.7 Z M 109.9 19.4 C 108.3 20.0 109.4 19.2 109.9 19.4 C 109.9 19.4 109.9 19.4 109.9 19.4 Z M 91.8 27.5 C 93.8 26.3 90.1 29.2 91.8 27.5 C 91.8 27.5 91.8 27.5 91.8 27.5 Z M 126.5 20.6 C 126.4 20.7 126.4 20.7 126.5 20.6 C 126.5 20.6 126.5 20.6 126.5 20.6 Z M 118.5 16.7 C 117.4 17.0 117.9 16.3 118.5 16.7 C 118.5 16.7 118.5 16.7 118.5 16.7 Z M 131.7 17.6 C 130.6 17.7 131.4 17.2 131.7 17.6 C 131.7 17.6 131.7 17.6 131.7 17.6 Z M 89.5 29.0 C 97.5 25.4 80.2 35.7 89.5 29.0 C 89.5 29.0 89.5 29.0 89.5 29.0 Z M 111.1 18.3 C 111.1 18.4 111.1 18.4 111.1 18.3 C 111.1 18.3 111.1 18.3 111.1 18.3 Z M 96.4 22.8 C 96.4 22.9 96.4 22.9 96.4 22.8 C 96.4 22.8 96.4 22.8 96.4 22.8 Z M 94.7 25.2 C 94.7 25.2 94.7 25.2 94.7 25.2 C 94.7 25.2 94.7 25.2 94.7 25.2 Z M 97.9 29.0 C 97.9 29.1 97.9 29.1 97.9 29.0 C 97.9 29.0 97.9 29.0 97.9 29.0 Z M 97.4 26.6 C 97.4 26.8 97.4 26.8 97.4 26.6 C 97.4 26.6 97.4 26.6 97.4 26.6 Z M 93.6 30.1 C 93.6 30.3 93.6 30.3 93.6 30.1 C 93.6 30.1 93.6 30.1 93.6 30.1 Z M 94.1 30.6 C 94.1 30.7 94.1 30.7 94.1 30.6 C 94.1 30.6 94.1 30.6 94.1 30.6 Z M 122.7 18.5 C 122.6 18.6 122.6 18.6 122.7 18.5 C 122.7 18.5 122.7 18.5 122.7 18.5 Z M 120.0 20.6 C 121.7 19.8 119.5 21.6 120.0 20.6 C 120.0 20.6 120.0 20.6 120.0 20.6 Z M 104.3 22.7 C 105.8 21.8 103.5 23.7 104.3 22.7 C 104.3 22.7 104.3 22.7 104.3 22.7 Z M 106.9 24.6 C 106.9 24.6 106.9 24.6 106.9 24.6 C 106.9 24.6 106.9 24.6 106.9 24.6 Z M 94.1 24.1 C 94.1 24.3 94.1 24.3 94.1 24.1 C 94.1 24.1 94.1 24.1 94.1 24.1 Z M 91.7 26.7 C 92.2 27.6 90.6 26.9 91.7 26.7 M 106.4 18.8 C 106.4 18.9 106.4 18.9 106.4 18.8 C 106.4 18.8 106.4 18.8 106.4 18.8 Z M 116.7 18.4 C 116.7 18.5 116.7 18.5 116.7 18.4 C 116.7 18.4 116.7 18.4 116.7 18.4 Z M 126.6 17.8 C 126.5 18.0 126.5 18.0 126.6 17.8 C 126.6 17.8 126.6 17.8 126.6 17.8 Z M 112.7 17.4 C 112.6 17.6 112.6 17.6 112.7 17.4 C 112.7 17.4 112.7 17.4 112.7 17.4 Z M 108.2 19.4 C 108.1 19.6 108.1 19.6 108.2 19.4 C 108.2 19.4 108.2 19.4 108.2 19.4 Z M 128.5 19.6 C 128.4 19.7 128.4 19.7 128.5 19.6 C 128.5 19.6 128.5 19.6 128.5 19.6 Z M 113.8 17.1 C 113.8 17.1 113.8 17.1 113.8 17.1 C 113.8 17.1 113.8 17.1 113.8 17.1 Z M 117.0 20.0 C 117.0 20.1 117.0 20.1 117.0 20.0 C 117.0 20.0 117.0 20.0 117.0 20.0 Z M 91.3 25.2 C 91.3 25.2 91.3 25.2 91.3 25.2 C 91.3 25.2 91.3 25.2 91.3 25.2 Z M 128.8 18.2 C 128.8 18.3 128.8 18.3 128.8 18.2 C 128.8 18.2 128.8 18.2 128.8 18.2 Z M 129.6 17.4 C 129.6 17.5 129.6 17.5 129.6 17.4 C 129.6 17.4 129.6 17.4 129.6 17.4 Z M 122.3 21.7 C 119.1 21.0 125.3 21.5 122.9 20.3 C 127.7 20.2 123.0 21.7 122.3 21.7 C 122.3 21.7 122.3 21.7 122.3 21.7 Z M 134.4 18.2 C 132.1 19.0 131.8 20.4 132.2 22.0 C 132.9 22.9 133.6 20.2 133.0 22.5 C 130.9 22.4 132.7 26.2 133.6 23.2 C 136.4 23.6 133.4 25.2 135.3 24.6 C 138.1 25.3 136.4 25.7 138.4 26.4 C 140.3 25.5 139.2 27.8 140.5 26.7 C 138.6 27.6 143.1 27.5 142.8 28.3 C 140.3 28.0 150.3 33.0 145.4 29.3 C 147.9 29.9 146.7 30.9 147.3 31.6 C 148.8 31.3 150.3 34.6 152.2 34.7 C 152.1 34.3 151.4 33.8 151.5 33.4 C 151.5 32.6 152.8 34.5 152.7 34.4 C 153.7 34.7 157.7 36.3 153.1 35.1 C 152.4 35.7 156.2 37.0 155.7 37.5 C 158.8 39.8 157.4 36.7 158.1 38.7 C 160.3 40.4 161.9 41.5 162.0 41.3 C 163.2 42.5 162.9 43.5 164.7 43.5 C 166.3 46.9 168.5 41.8 167.6 45.5 C 168.8 45.3 168.3 47.7 169.4 45.8 C 167.9 46.1 173.1 49.9 171.5 47.2 C 172.4 47.1 174.7 51.3 175.1 49.1 C 177.1 48.1 177.4 46.6 175.7 43.9 C 175.4 45.2 173.7 41.3 174.5 44.3 C 176.3 46.1 170.1 42.6 171.8 42.7 C 173.5 40.7 167.8 42.2 167.5 39.7 C 168.1 41.3 162.5 38.1 165.2 37.5 C 164.3 36.7 163.5 37.3 163.1 35.6 C 166.2 38.1 160.6 36.4 161.6 35.5 C 162.5 35.3 158.0 31.3 157.9 32.6 C 158.0 36.0 157.0 31.2 155.5 31.5 C 152.4 30.0 157.3 29.9 154.1 30.1 C 153.7 29.4 150.1 26.8 152.7 28.0 C 153.4 28.8 148.8 29.0 149.7 26.8 C 154.4 28.3 145.5 23.3 146.5 24.7 C 152.0 29.6 139.1 22.1 144.7 23.8 C 142.5 21.1 145.8 23.8 142.0 22.4 C 142.1 23.3 139.2 22.6 140.4 21.6 C 140.9 19.3 138.5 23.8 137.4 20.2 C 137.6 18.9 132.9 19.7 134.9 18.8 C 135.0 18.7 134.5 18.2 134.4 18.2 M 135.6 18.9 C 135.0 19.2 135.0 18.0 135.6 18.9 M 134.9 19.1 C 134.9 19.1 134.9 19.1 134.9 19.1 C 134.9 19.1 134.9 19.1 134.9 19.1 Z M 141.5 22.2 C 141.4 22.1 141.4 22.1 141.5 22.2 C 141.5 22.2 141.5 22.2 141.5 22.2 Z M 143.8 29.9 C 143.8 29.8 143.8 29.8 143.8 29.9 C 143.8 29.9 143.8 29.9 143.8 29.9 Z M 145.9 24.8 C 145.8 24.8 145.8 24.8 145.9 24.8 C 145.9 24.8 145.9 24.8 145.9 24.8 Z M 139.0 21.4 C 138.9 21.4 138.9 21.4 139.0 21.4 C 139.0 21.4 139.0 21.4 139.0 21.4 Z M 145.9 23.9 C 145.8 24.8 144.6 22.4 146.0 23.8 C 146.0 23.9 145.7 23.7 145.9 23.9 M 151.8 27.3 C 151.8 27.4 151.8 27.4 151.8 27.3 M 160.1 41.3 C 160.0 41.4 160.0 41.4 160.1 41.3 M 164.9 36.6 C 164.9 36.8 164.9 36.8 164.9 36.6 M 156.8 31.9 C 158.6 33.0 157.0 32.5 156.8 31.9 M 168.8 39.9 C 167.1 38.2 171.2 41.0 168.8 39.9 M 171.0 40.8 C 171.1 40.9 171.1 40.9 171.0 40.8 M 161.7 34.7 C 161.6 34.7 161.6 34.7 161.7 34.7 C 161.7 34.7 161.7 34.7 161.7 34.7 Z M 156.3 31.1 C 154.4 29.2 159.0 32.1 156.3 31.1 M 142.6 21.9 C 144.1 22.3 142.1 22.9 142.6 21.9 M 139.8 21.0 C 139.7 21.1 139.7 21.1 139.8 21.0 C 139.8 21.0 139.8 21.0 139.8 21.0 Z M 165.6 37.7 C 165.5 37.6 165.5 37.6 165.6 37.7 C 165.6 37.7 165.6 37.7 165.6 37.7 Z M 168.0 39.2 C 167.9 39.1 167.9 39.1 168.0 39.2 C 168.0 39.2 168.0 39.2 168.0 39.2 Z M 168.6 46.8 C 168.5 46.8 168.5 46.8 168.6 46.8 C 168.6 46.8 168.6 46.8 168.6 46.8 Z M 140.6 24.2 C 139.1 23.0 143.2 23.4 142.2 24.5 C 142.1 25.2 140.8 24.2 140.6 24.2 M 153.6 31.5 C 152.8 33.4 153.6 28.0 153.6 31.5 M 170.5 42.1 C 170.7 45.1 169.5 39.4 170.5 42.1 M 173.8 43.5 C 174.5 44.5 168.0 40.5 172.9 42.6 C 173.6 42.5 173.6 43.1 173.8 43.5 M 151.3 28.2 C 151.1 29.5 148.9 25.9 151.3 28.2 M 159.4 38.2 C 160.6 38.2 163.0 39.1 161.4 39.5 C 160.4 40.8 158.1 38.0 159.4 38.2 M 135.8 20.1 C 137.8 18.9 135.2 21.6 135.8 20.1 M 142.3 23.3 C 142.4 23.2 142.4 23.2 142.3 23.3 C 142.3 23.3 142.3 23.3 142.3 23.3 Z M 145.1 24.5 C 145.2 24.7 145.2 24.7 145.1 24.5 M 137.4 19.0 C 137.5 19.2 137.5 19.2 137.4 19.0 M 160.4 36.6 C 160.5 36.8 160.5 36.8 160.4 36.6 M 156.1 31.9 C 157.4 35.2 154.5 31.3 156.1 31.9 M 148.0 30.6 C 148.3 31.8 146.4 29.6 148.0 30.6 M 160.5 34.3 C 161.2 36.9 157.2 33.9 160.5 34.3 M 154.9 30.9 C 155.1 31.0 155.1 31.0 154.9 30.9 C 154.9 30.9 154.9 30.9 154.9 30.9 Z M 159.9 38.8 C 159.8 38.8 159.8 38.8 159.9 38.8 C 159.9 38.8 159.9 38.8 159.9 38.8 Z M 160.7 39.3 C 160.6 39.3 160.6 39.3 160.7 39.3 C 160.7 39.3 160.7 39.3 160.7 39.3 Z M 162.7 35.7 C 162.6 35.7 162.6 35.7 162.7 35.7 C 162.7 35.7 162.7 35.7 162.7 35.7 Z M 137.7 25.3 C 139.2 26.1 136.3 24.9 137.7 25.3 C 137.7 25.3 137.7 25.3 137.7 25.3 Z M 147.9 25.2 C 150.2 28.3 145.2 24.9 147.9 25.2 C 147.9 25.2 147.9 25.2 147.9 25.2 Z M 150.1 29.3 C 150.0 29.4 150.0 29.4 150.1 29.3 C 150.1 29.3 150.1 29.3 150.1 29.3 Z M 160.0 32.6 C 160.0 32.7 160.0 32.7 160.0 32.6 C 160.0 32.6 160.0 32.6 160.0 32.6 Z M 138.4 25.9 C 138.3 25.9 138.3 25.9 138.4 25.9 C 138.4 25.9 138.4 25.9 138.4 25.9 Z M 166.9 39.8 C 166.9 39.9 166.9 39.9 166.9 39.8 C 166.9 39.8 166.9 39.8 166.9 39.8 Z M 155.1 35.6 C 156.1 35.6 154.9 36.2 155.1 35.6 C 155.1 35.6 155.1 35.6 155.1 35.6 Z M 157.6 37.5 C 157.7 37.6 157.7 37.6 157.6 37.5 C 157.6 37.5 157.6 37.5 157.6 37.5 Z M 171.6 41.0 C 171.7 41.0 171.7 41.0 171.6 41.0 C 171.6 41.0 171.6 41.0 171.6 41.0 Z M 163.2 43.6 C 163.3 43.6 163.3 43.6 163.2 43.6 C 163.2 43.6 163.2 43.6 163.2 43.6 Z M 166.5 43.3 C 166.5 43.3 166.5 43.3 166.5 43.3 C 166.5 43.3 166.5 43.3 166.5 43.3 Z M 162.0 35.7 C 164.7 37.3 161.0 35.9 162.0 35.7 C 162.0 35.7 162.0 35.7 162.0 35.7 Z M 173.0 46.7 C 173.1 46.8 173.1 46.8 173.0 46.7 C 173.0 46.7 173.0 46.7 173.0 46.7 Z M 175.4 45.2 C 175.4 45.3 175.4 45.3 175.4 45.2 C 175.4 45.2 175.4 45.2 175.4 45.2 Z M 176.5 44.4 C 176.5 44.5 176.5 44.5 176.5 44.4 C 176.5 44.4 176.5 44.4 176.5 44.4 Z M 143.8 26.6 C 143.8 26.5 143.8 26.5 143.8 26.6 C 143.8 26.6 143.8 26.6 143.8 26.6 Z M 144.7 22.7 C 144.6 22.7 144.6 22.7 144.7 22.7 C 144.7 22.7 144.7 22.7 144.7 22.7 Z M 148.5 24.8 C 148.5 24.8 148.5 24.8 148.5 24.8 C 148.5 24.8 148.5 24.8 148.5 24.8 Z M 142.0 28.3 C 142.0 28.2 142.0 28.2 142.0 28.3 C 142.0 28.3 142.0 28.3 142.0 28.3 Z M 157.0 34.5 C 157.0 34.4 157.0 34.4 157.0 34.5 C 157.0 34.5 157.0 34.5 157.0 34.5 Z M 157.3 36.6 C 157.3 36.5 157.3 36.5 157.3 36.6 C 157.3 36.6 157.3 36.6 157.3 36.6 Z M 153.1 36.1 C 153.1 36.0 153.1 36.0 153.1 36.1 C 153.1 36.1 153.1 36.1 153.1 36.1 Z M 157.5 38.4 C 157.5 38.4 157.5 38.4 157.5 38.4 C 157.5 38.4 157.5 38.4 157.5 38.4 Z M 133.8 23.7 C 133.8 23.8 133.8 23.8 133.8 23.7 C 133.8 23.7 133.8 23.7 133.8 23.7 Z M 134.5 20.8 C 134.4 20.9 134.4 20.9 134.5 20.8 C 134.5 20.8 134.5 20.8 134.5 20.8 Z M 158.7 33.0 C 159.6 33.0 159.4 34.6 158.7 33.0 M 153.4 29.7 C 153.3 29.7 153.3 29.7 153.4 29.7 C 153.4 29.7 153.4 29.7 153.4 29.7 Z M 166.8 39.1 C 166.8 40.5 164.9 37.0 166.8 39.1 C 166.8 39.1 166.8 39.1 166.8 39.1 Z M 161.4 41.3 C 161.5 41.3 161.5 41.3 161.4 41.3 C 161.4 41.3 161.4 41.3 161.4 41.3 Z M 163.0 41.8 C 163.0 41.9 163.0 41.9 163.0 41.8 C 163.0 41.8 163.0 41.8 163.0 41.8 Z M 171.8 43.7 C 171.8 43.9 171.8 43.9 171.8 43.7 M 153.3 28.4 C 153.8 29.4 153.7 29.2 153.3 28.4 M 168.4 40.2 C 168.3 40.2 168.3 40.2 168.4 40.2 C 168.4 40.2 168.4 40.2 168.4 40.2 Z M 173.6 44.0 C 173.5 44.0 173.5 44.0 173.6 44.0 C 173.6 44.0 173.6 44.0 173.6 44.0 Z M 149.2 26.5 C 148.6 27.8 148.0 27.1 149.2 26.5 M 138.5 21.1 C 138.5 21.2 138.5 21.2 138.5 21.1 C 138.5 21.1 138.5 21.1 138.5 21.1 Z M 181.0 46.2 C 179.2 44.0 178.5 46.0 178.5 46.0 C 179.8 43.4 175.8 46.1 176.0 46.9 C 175.8 47.2 176.0 53.0 178.9 50.7 C 179.5 50.5 179.6 51.5 179.9 51.6 C 183.4 52.5 178.1 49.7 182.1 50.5 C 182.7 51.1 181.5 53.5 184.1 52.1 C 184.2 52.3 187.0 53.4 186.0 52.2 C 187.3 53.4 188.2 52.0 189.3 51.5 C 190.5 52.0 188.9 53.8 192.5 51.2 C 194.8 52.6 193.9 49.1 196.6 50.1 C 197.6 49.6 197.1 45.6 196.0 48.7 C 196.2 48.3 194.0 47.9 197.1 46.4 C 197.0 47.0 197.9 51.7 201.1 46.1 C 201.9 45.5 202.6 43.1 203.3 42.9 C 201.8 45.6 206.9 40.2 205.5 40.3 C 208.5 36.6 205.7 38.1 208.2 35.7 C 209.4 33.3 206.3 35.7 208.6 33.2 C 209.4 30.9 209.6 32.8 209.4 33.0 C 210.5 31.2 210.2 30.3 210.6 29.8 C 210.9 29.5 212.0 29.2 211.4 28.3 C 211.0 25.8 208.6 26.4 207.8 24.6 C 206.1 25.5 208.4 25.8 206.7 26.2 C 207.2 27.5 206.4 26.2 204.7 30.5 C 205.0 30.5 206.1 29.8 205.7 30.8 C 204.9 32.3 202.8 30.0 203.4 33.5 C 205.4 30.7 202.2 38.2 204.1 35.6 C 202.7 39.3 203.5 36.6 201.5 38.6 C 203.3 39.5 199.6 37.7 200.4 39.4 C 199.6 39.1 197.6 42.6 200.2 40.9 C 198.2 44.6 198.8 41.9 197.2 42.0 C 195.8 43.1 199.1 44.6 196.7 43.5 C 194.0 44.3 197.2 44.7 194.8 44.1 C 196.4 45.0 193.4 45.0 194.9 46.2 C 191.5 48.5 194.4 44.5 192.6 46.7 C 193.4 46.4 192.2 44.3 191.4 46.3 C 192.9 48.8 188.8 44.5 191.0 47.8 C 186.5 50.3 189.8 46.7 187.4 46.8 C 186.8 46.9 188.2 48.0 187.6 48.1 C 184.2 47.8 187.2 46.7 185.3 48.4 C 181.8 48.6 184.5 46.8 182.9 46.3 C 182.6 47.1 180.8 48.2 181.0 46.2 M 183.9 47.8 C 184.7 47.4 184.2 48.5 183.9 47.8 M 177.1 44.7 C 178.1 44.5 177.3 45.5 177.1 44.7 M 186.6 47.5 C 187.5 46.9 186.9 48.5 186.6 47.5 M 202.9 36.5 C 202.1 38.1 202.8 35.6 202.9 36.5 M 180.0 45.8 C 181.2 45.5 179.9 46.8 180.0 45.8 M 178.1 46.6 C 178.2 46.7 178.2 46.7 178.1 46.6 M 202.6 33.7 C 202.7 33.6 202.7 33.6 202.6 33.7 M 199.6 39.2 C 200.3 38.2 199.6 40.0 199.6 39.2 M 204.7 42.9 C 205.6 41.6 204.5 43.9 204.7 42.9 M 204.1 30.3 C 204.3 28.7 204.9 30.2 204.1 30.3 M 207.0 27.5 C 207.2 26.1 208.0 27.0 207.0 27.5 M 182.8 49.9 C 182.8 49.9 182.8 49.9 182.8 49.9 C 182.8 49.9 182.8 49.9 182.8 49.9 Z M 193.4 50.5 C 191.9 50.4 195.2 50.6 193.4 50.5 M 190.3 47.2 C 191.3 48.3 189.0 47.5 190.3 47.2 C 190.3 47.2 190.3 47.2 190.3 47.2 Z M 189.0 48.1 C 188.9 48.1 188.9 48.1 189.0 48.1 C 189.0 48.1 189.0 48.1 189.0 48.1 Z M 193.9 46.4 C 193.9 46.5 193.9 46.5 193.9 46.4 C 193.9 46.4 193.9 46.4 193.9 46.4 Z M 192.9 47.1 C 192.7 47.5 192.2 47.1 192.9 47.1 C 192.9 47.1 192.9 47.1 192.9 47.1 Z M 203.0 44.1 C 202.9 44.7 202.3 44.6 203.0 44.1 C 203.0 44.1 203.0 44.1 203.0 44.1 Z M 191.5 48.1 C 191.8 49.4 190.5 47.5 191.5 48.1 C 191.5 48.1 191.5 48.1 191.5 48.1 Z M 198.9 47.4 C 199.2 46.7 200.7 47.5 198.9 47.4 M 203.4 32.5 C 203.4 31.8 205.1 31.8 203.4 32.5 M 195.8 43.2 C 196.0 42.6 197.4 43.5 195.8 43.2 M 184.5 47.4 C 184.6 47.5 184.6 47.5 184.5 47.4 M 191.5 52.4 C 192.3 51.7 192.1 52.8 191.5 52.4 M 178.7 51.2 C 179.8 51.1 179.0 51.9 178.7 51.2 M 207.8 36.9 C 207.5 36.8 208.7 35.5 207.8 36.9 M 198.4 43.7 C 199.4 42.9 200.9 42.5 198.8 44.3 C 198.5 44.2 199.0 43.5 198.4 43.7 C 198.4 43.7 198.4 43.7 198.4 43.7 Z M 203.5 42.1 C 203.7 42.0 203.7 42.0 203.5 42.1 M 198.9 41.4 C 199.1 41.4 199.1 41.4 198.9 41.4 M 202.6 35.6 C 202.9 35.5 202.9 35.5 202.6 35.6 M 202.7 34.6 C 202.7 34.6 202.7 34.6 202.7 34.6 C 202.7 34.6 202.7 34.6 202.7 34.6 Z M 205.9 26.8 C 205.9 26.8 205.9 26.8 205.9 26.8 C 205.9 26.8 205.9 26.8 205.9 26.8 Z M 201.7 37.7 C 201.7 37.8 201.7 37.8 201.7 37.7 C 201.7 37.7 201.7 37.7 201.7 37.7 Z M 209.1 33.7 C 209.1 33.7 209.1 33.7 209.1 33.7 C 209.1 33.7 209.1 33.7 209.1 33.7 Z M 208.0 34.2 C 208.1 34.2 208.1 34.2 208.0 34.2 C 208.0 34.2 208.0 34.2 208.0 34.2 Z M 181.5 46.4 C 182.6 45.8 181.4 48.6 181.5 46.4 M 209.6 30.9 C 210.8 30.4 208.9 32.6 209.6 30.9 C 209.6 30.9 209.6 30.9 209.6 30.9 Z M 202.2 39.0 C 202.4 39.0 202.4 39.0 202.2 39.0 M 203.0 34.2 C 203.2 34.2 203.2 34.2 203.0 34.2 M 190.0 46.1 C 190.1 46.2 190.1 46.2 190.0 46.1 M 205.7 29.0 C 207.6 26.0 206.6 31.3 205.7 29.0 M 189.2 47.5 C 189.1 47.4 189.1 47.4 189.2 47.5 M 195.9 47.3 C 197.7 46.1 195.6 48.3 195.9 47.3 M 199.2 42.5 C 199.2 42.5 199.2 42.5 199.2 42.5 C 199.2 42.5 199.2 42.5 199.2 42.5 Z M 196.8 44.7 C 195.7 45.8 196.3 44.7 196.8 44.7 C 196.8 44.7 196.8 44.7 196.8 44.7 Z M 182.5 47.8 C 184.1 48.4 180.6 47.8 182.5 47.8 C 182.5 47.8 182.5 47.8 182.5 47.8 Z M 207.7 31.8 C 207.7 31.9 207.7 31.9 207.7 31.8 C 207.7 31.8 207.7 31.8 207.7 31.8 Z M 200.7 37.6 C 200.5 38.6 200.2 37.8 200.7 37.6 C 200.7 37.6 200.7 37.6 200.7 37.6 Z M 206.6 25.7 C 206.3 26.8 206.0 25.9 206.6 25.7 C 206.6 25.7 206.6 25.7 206.6 25.7 Z M 180.5 47.1 C 186.1 51.1 172.3 43.9 180.5 47.1 C 180.5 47.1 180.5 47.1 180.5 47.1 Z M 197.2 43.2 C 197.3 43.3 197.3 43.3 197.2 43.2 C 197.2 43.2 197.2 43.2 197.2 43.2 Z M 186.9 46.8 C 186.9 46.8 186.9 46.8 186.9 46.8 C 186.9 46.8 186.9 46.8 186.9 46.8 Z M 185.1 47.9 C 185.1 47.9 185.1 47.9 185.1 47.9 C 185.1 47.9 185.1 47.9 185.1 47.9 Z M 185.4 52.9 C 185.4 52.9 185.4 52.9 185.4 52.9 C 185.4 52.9 185.4 52.9 185.4 52.9 Z M 186.2 50.6 C 186.1 50.8 186.1 50.8 186.2 50.6 C 186.2 50.6 186.2 50.6 186.2 50.6 Z M 181.7 50.9 C 181.6 51.0 181.6 51.0 181.7 50.9 C 181.7 50.9 181.7 50.9 181.7 50.9 Z M 181.6 51.6 C 181.6 51.6 181.6 51.6 181.6 51.6 C 181.6 51.6 181.6 51.6 181.6 51.6 Z M 204.3 34.8 C 204.4 34.9 204.4 34.9 204.3 34.8 C 204.3 34.8 204.3 34.8 204.3 34.8 Z M 204.9 38.3 C 205.1 36.2 205.6 39.3 204.9 38.3 C 204.9 38.3 204.9 38.3 204.9 38.3 Z M 192.7 48.8 C 193.9 48.0 192.0 49.7 192.7 48.8 C 192.7 48.8 192.7 48.8 192.7 48.8 Z M 195.4 50.6 C 195.4 50.6 195.4 50.6 195.4 50.6 C 195.4 50.6 195.4 50.6 195.4 50.6 Z M 185.3 46.7 C 185.2 46.8 185.2 46.8 185.3 46.7 C 185.3 46.7 185.3 46.7 185.3 46.7 Z M 182.9 47.2 C 182.6 48.2 182.3 46.5 182.9 47.2 M 193.7 45.0 C 193.8 45.1 193.8 45.1 193.7 45.0 C 193.7 45.0 193.7 45.0 193.7 45.0 Z M 201.2 40.0 C 201.2 40.1 201.2 40.1 201.2 40.0 C 201.2 40.0 201.2 40.0 201.2 40.0 Z M 205.1 30.8 C 205.2 30.9 205.2 30.9 205.1 30.8 C 205.1 30.8 205.1 30.8 205.1 30.8 Z M 197.9 41.8 C 198.0 41.9 198.0 41.9 197.9 41.8 C 197.9 41.8 197.9 41.8 197.9 41.8 Z M 195.3 45.3 C 195.4 45.4 195.4 45.4 195.3 45.3 C 195.3 45.3 195.3 45.3 195.3 45.3 Z M 207.4 29.4 C 207.4 29.5 207.4 29.5 207.4 29.4 C 207.4 29.4 207.4 29.4 207.4 29.4 Z M 198.4 41.0 C 198.4 41.0 198.4 41.0 198.4 41.0 C 198.4 41.0 198.4 41.0 198.4 41.0 Z M 202.7 40.7 C 202.7 40.9 202.7 40.9 202.7 40.7 C 202.7 40.7 202.7 40.7 202.7 40.7 Z M 183.5 45.8 C 183.5 45.8 183.5 45.8 183.5 45.8 C 183.5 45.8 183.5 45.8 183.5 45.8 Z M 206.2 28.7 C 206.2 28.8 206.2 28.8 206.2 28.7 C 206.2 28.7 206.2 28.7 206.2 28.7 Z M 205.7 27.7 C 205.7 27.8 205.7 27.8 205.7 27.7 C 205.7 27.7 205.7 27.7 205.7 27.7 Z M 207.0 36.4 C 204.9 39.5 208.2 33.4 206.1 35.3 C 208.0 30.4 207.4 35.7 207.0 36.4 C 207.0 36.4 207.0 36.4 207.0 36.4 Z M 208.0 23.2 C 207.8 25.8 209.2 26.4 210.8 26.6 C 211.9 26.3 209.6 24.7 211.6 26.1 C 210.8 27.9 214.8 27.7 212.4 25.8 C 213.6 23.6 214.0 26.8 214.2 25.0 C 215.7 23.2 215.3 24.7 216.7 23.8 C 216.8 21.9 217.8 24.2 217.8 22.6 C 217.4 24.5 220.0 21.7 220.1 22.5 C 218.4 23.7 226.5 23.3 222.1 22.1 C 224.1 21.6 223.4 23.0 223.9 23.4 C 224.9 22.7 226.0 25.4 227.6 25.3 C 227.6 25.0 227.1 24.5 227.1 24.2 C 227.2 23.4 228.2 25.1 228.1 25.0 C 229.0 25.2 232.3 26.4 228.3 25.6 C 227.7 26.2 230.9 27.4 230.3 27.8 C 232.8 30.2 232.1 27.2 232.3 29.2 C 234.1 31.0 235.5 32.4 235.6 32.2 C 236.6 33.4 236.2 34.4 238.0 34.6 C 239.3 38.2 241.7 33.2 240.8 36.9 C 242.0 36.7 241.6 39.2 242.6 37.2 C 241.1 37.5 247.1 41.0 245.0 38.4 C 245.9 38.2 249.9 41.8 249.4 39.5 C 251.2 37.9 250.2 36.4 248.3 34.4 C 248.3 35.7 246.2 32.4 247.4 35.1 C 249.2 36.4 243.3 34.1 244.9 34.0 C 246.4 31.8 241.1 33.5 241.2 31.1 C 241.5 32.7 236.7 29.1 239.3 28.9 C 238.6 28.0 237.8 28.5 237.7 26.8 C 240.2 29.5 235.2 27.2 236.2 26.5 C 237.2 26.4 233.4 22.0 233.1 23.3 C 232.8 26.6 232.3 21.8 230.9 22.1 C 228.1 20.6 232.7 20.4 229.6 20.7 C 229.3 20.1 225.5 18.0 228.2 18.8 C 229.0 19.6 224.8 20.6 225.1 18.2 C 227.5 18.3 226.4 17.7 224.6 17.3 C 222.8 16.9 220.4 17.1 221.3 17.5 C 225.1 18.3 222.9 18.5 220.8 18.5 C 218.7 18.6 216.1 18.7 219.1 17.8 C 215.5 16.9 219.7 16.6 215.9 18.5 C 216.6 19.0 214.1 20.9 214.1 19.2 C 212.6 17.5 215.0 21.8 211.2 21.1 C 210.1 20.4 208.8 25.2 208.7 23.0 C 208.7 22.8 208.1 23.1 208.0 23.2 M 209.1 22.3 C 209.1 23.0 208.1 22.6 209.1 22.3 M 209.1 23.1 C 209.1 23.1 209.1 23.1 209.1 23.1 C 209.1 23.1 209.1 23.1 209.1 23.1 Z M 215.3 18.8 C 215.3 18.8 215.3 18.8 215.3 18.8 C 215.3 18.8 215.3 18.8 215.3 18.8 Z M 221.3 23.4 C 221.3 23.3 221.3 23.3 221.3 23.4 C 221.3 23.4 221.3 23.4 221.3 23.4 Z M 220.7 17.9 C 220.7 17.9 220.7 17.9 220.7 17.9 C 220.7 17.9 220.7 17.9 220.7 17.9 Z M 213.1 20.4 C 213.0 20.4 213.0 20.4 213.1 20.4 C 213.1 20.4 213.1 20.4 213.1 20.4 Z M 220.2 17.1 C 220.7 18.0 218.2 16.6 220.3 17.0 C 220.4 17.1 220.0 17.1 220.2 17.1 M 227.2 18.3 C 227.2 18.4 227.2 18.4 227.2 18.3 M 233.8 31.9 C 233.7 32.0 233.7 32.0 233.8 31.9 M 239.2 28.0 C 239.2 28.1 239.2 28.1 239.2 28.0 M 232.2 22.5 C 233.8 23.7 232.3 23.2 232.2 22.5 M 242.3 31.4 C 241.0 29.7 244.4 32.5 242.3 31.4 M 244.2 32.2 C 244.3 32.4 244.3 32.4 244.2 32.2 M 236.5 25.8 C 236.4 25.8 236.4 25.8 236.5 25.8 C 236.5 25.8 236.5 25.8 236.5 25.8 Z M 231.8 21.8 C 230.0 19.8 234.3 22.8 231.8 21.8 M 216.0 17.7 C 217.4 16.9 216.3 18.8 216.0 17.7 M 213.2 19.5 C 213.2 19.5 213.2 19.5 213.2 19.5 C 213.2 19.5 213.2 19.5 213.2 19.5 Z M 239.7 29.1 C 239.6 29.0 239.6 29.0 239.7 29.1 C 239.7 29.1 239.7 29.1 239.7 29.1 Z M 241.7 30.7 C 241.6 30.6 241.6 30.6 241.7 30.7 C 241.7 30.7 241.7 30.7 241.7 30.7 Z M 241.8 38.2 C 241.8 38.2 241.8 38.2 241.8 38.2 C 241.8 38.2 241.8 38.2 241.8 38.2 Z M 216.2 20.8 C 214.5 21.0 217.5 18.4 217.5 19.9 C 217.9 20.4 216.4 20.6 216.2 20.8 M 229.2 22.1 C 228.4 24.1 229.3 18.8 229.2 22.1 M 243.7 33.5 C 243.8 36.4 243.0 30.9 243.7 33.5 M 246.7 34.5 C 247.3 35.3 241.6 32.5 245.9 33.8 C 246.4 33.6 246.5 34.2 246.7 34.5 M 226.8 19.2 C 226.9 20.5 224.3 17.5 226.8 19.2 M 233.7 28.8 C 234.8 28.9 237.0 30.2 235.3 30.3 C 234.2 31.5 232.4 28.5 233.7 28.8 M 210.4 22.7 C 210.1 20.3 211.5 23.8 210.4 22.7 M 216.8 18.9 C 216.8 18.8 216.8 18.8 216.8 18.9 C 216.8 18.9 216.8 18.9 216.8 18.9 Z M 219.9 18.0 C 220.1 18.2 220.1 18.2 219.9 18.0 M 210.1 20.6 C 210.3 20.6 210.3 20.6 210.1 20.6 M 235.0 27.4 C 235.0 27.7 235.0 27.7 235.0 27.4 M 231.4 22.6 C 232.5 25.7 230.0 21.9 231.4 22.6 M 224.3 22.3 C 224.6 23.3 223.0 21.9 224.3 22.3 M 235.4 25.2 C 235.6 27.8 232.3 24.4 235.4 25.2 M 230.4 21.5 C 230.6 21.6 230.6 21.6 230.4 21.5 C 230.4 21.5 230.4 21.5 230.4 21.5 Z M 234.0 29.5 C 234.0 29.5 234.0 29.5 234.0 29.5 C 234.0 29.5 234.0 29.5 234.0 29.5 Z M 234.7 30.0 C 234.6 30.0 234.6 30.0 234.7 30.0 C 234.7 30.0 234.7 30.0 234.7 30.0 Z M 237.3 26.8 C 237.2 26.8 237.2 26.8 237.3 26.8 C 237.3 26.8 237.3 26.8 237.3 26.8 Z M 215.5 23.6 C 216.8 23.0 214.7 24.4 215.5 23.6 C 215.5 23.6 215.5 23.6 215.5 23.6 Z M 222.9 17.3 C 226.3 19.2 220.1 18.2 222.9 17.3 C 222.9 17.3 222.9 17.3 222.9 17.3 Z M 225.9 20.5 C 225.9 20.6 225.9 20.6 225.9 20.5 C 225.9 20.5 225.9 20.5 225.9 20.5 Z M 235.2 23.5 C 235.1 23.6 235.1 23.6 235.2 23.5 C 235.2 23.5 235.2 23.5 235.2 23.5 Z M 216.3 23.5 C 216.3 23.6 216.3 23.6 216.3 23.5 C 216.3 23.5 216.3 23.5 216.3 23.5 Z M 240.6 31.2 C 240.6 31.3 240.6 31.3 240.6 31.2 C 240.6 31.2 240.6 31.2 240.6 31.2 Z M 230.1 26.1 C 231.0 26.0 229.8 26.6 230.1 26.1 C 230.1 26.1 230.1 26.1 230.1 26.1 Z M 232.1 28.0 C 232.2 28.1 232.2 28.1 232.1 28.0 C 232.1 28.0 232.1 28.0 232.1 28.0 Z M 244.8 32.4 C 244.9 32.4 244.9 32.4 244.8 32.4 C 244.8 32.4 244.8 32.4 244.8 32.4 Z M 236.5 34.5 C 236.6 34.6 236.6 34.6 236.5 34.5 C 236.5 34.5 236.5 34.5 236.5 34.5 Z M 239.8 34.7 C 239.8 34.7 239.8 34.7 239.8 34.7 C 239.8 34.7 239.8 34.7 239.8 34.7 Z M 236.6 26.7 C 239.0 28.6 235.6 26.8 236.6 26.7 C 236.6 26.7 236.6 26.7 236.6 26.7 Z M 246.4 37.7 C 246.5 37.8 246.5 37.8 246.4 37.7 C 246.4 37.7 246.4 37.7 246.4 37.7 Z M 248.3 35.7 C 248.4 35.9 248.4 35.9 248.3 35.7 C 248.3 35.7 248.3 35.7 248.3 35.7 Z M 249.1 34.6 C 249.2 34.7 249.2 34.7 249.1 34.6 C 249.1 34.6 249.1 34.6 249.1 34.6 Z M 220.0 20.6 C 220.0 20.5 220.0 20.5 220.0 20.6 C 220.0 20.6 220.0 20.6 220.0 20.6 Z M 218.3 16.9 C 218.3 16.9 218.3 16.9 218.3 16.9 C 218.3 16.9 218.3 16.9 218.3 16.9 Z M 223.2 16.8 C 223.2 16.7 223.2 16.7 223.2 16.8 C 223.2 16.8 223.2 16.8 223.2 16.8 Z M 219.6 22.9 C 219.6 22.9 219.6 22.9 219.6 22.9 C 219.6 22.9 219.6 22.9 219.6 22.9 Z M 232.0 25.1 C 232.0 25.0 232.0 25.0 232.0 25.1 C 232.0 25.1 232.0 25.1 232.0 25.1 Z M 232.0 27.1 C 232.0 27.0 232.0 27.0 232.0 27.1 C 232.0 27.1 232.0 27.1 232.0 27.1 Z M 228.2 26.5 C 228.2 26.5 228.2 26.5 228.2 26.5 C 228.2 26.5 228.2 26.5 228.2 26.5 Z M 231.8 28.8 C 231.8 28.8 231.8 28.8 231.8 28.8 C 231.8 28.8 231.8 28.8 231.8 28.8 Z M 212.9 25.8 C 212.9 25.8 212.9 25.8 212.9 25.8 C 212.9 25.8 212.9 25.8 212.9 25.8 Z M 210.5 24.1 C 210.5 24.2 210.5 24.2 210.5 24.1 C 210.5 24.1 210.5 24.1 210.5 24.1 Z M 233.8 23.8 C 234.7 23.8 234.3 25.4 233.8 23.8 M 229.0 20.4 C 228.9 20.5 228.9 20.5 229.0 20.4 C 229.0 20.4 229.0 20.4 229.0 20.4 Z M 240.6 30.5 C 240.4 31.8 239.1 28.4 240.6 30.5 C 240.6 30.5 240.6 30.5 240.6 30.5 Z M 235.1 32.0 C 235.1 32.1 235.1 32.1 235.1 32.0 C 235.1 32.0 235.1 32.0 235.1 32.0 Z M 236.6 32.8 C 236.6 32.9 236.6 32.9 236.6 32.8 C 236.6 32.8 236.6 32.8 236.6 32.8 Z M 244.9 35.0 C 244.9 35.2 244.9 35.2 244.9 35.0 M 228.8 19.2 C 229.4 20.1 229.3 19.9 228.8 19.2 M 242.0 31.7 C 241.9 31.7 241.9 31.7 242.0 31.7 C 242.0 31.7 242.0 31.7 242.0 31.7 Z M 246.5 35.0 C 246.5 35.0 246.5 35.0 246.5 35.0 C 246.5 35.0 246.5 35.0 246.5 35.0 Z M 224.5 18.1 C 224.3 19.6 223.6 19.0 224.5 18.1 M 212.5 20.6 C 212.6 20.7 212.6 20.7 212.5 20.6 C 212.5 20.6 212.5 20.6 212.5 20.6 Z M 254.3 35.3 C 251.4 35.2 250.5 35.3 250.0 35.9 C 249.6 36.5 249.8 37.4 249.6 37.7 C 248.6 38.5 249.5 39.2 251.0 39.7 C 252.6 41.7 252.9 37.6 254.4 39.2 C 256.9 41.4 255.5 36.5 257.4 38.8 C 257.4 39.6 259.6 37.8 259.3 37.8 C 261.2 38.2 261.4 35.1 261.3 34.9 C 262.2 34.7 264.0 36.5 264.8 33.2 C 265.8 31.3 268.2 32.3 266.6 31.5 C 269.1 31.7 267.0 30.4 268.5 29.7 C 270.0 29.6 267.3 28.5 270.1 28.5 C 269.5 26.7 270.3 29.7 273.0 25.2 C 271.2 26.9 273.8 22.7 273.9 24.1 C 273.5 26.1 275.3 22.1 277.4 21.4 C 277.6 20.5 279.0 17.9 279.4 19.5 C 282.2 20.0 281.0 17.4 282.6 18.4 C 283.6 18.7 283.5 17.3 284.0 17.3 C 285.2 18.1 285.8 17.0 288.5 17.0 C 294.3 16.9 289.1 13.9 291.6 13.6 C 292.0 13.1 288.1 9.4 289.8 12.2 C 289.2 11.4 283.7 15.2 286.2 11.6 C 284.1 13.2 286.3 9.8 282.0 12.9 C 289.3 12.7 274.7 16.6 280.8 13.1 C 279.5 12.9 277.1 14.2 279.0 13.9 C 280.4 15.4 274.8 15.1 278.0 16.0 C 274.5 17.2 276.6 18.6 274.9 18.0 C 272.6 16.5 275.4 18.4 273.5 19.0 C 270.2 21.8 270.7 17.5 270.1 20.7 C 266.2 22.8 270.3 22.2 269.5 23.5 C 270.5 25.0 265.6 25.6 267.6 23.1 C 267.1 25.0 266.7 22.8 266.3 24.9 C 268.5 25.0 263.4 25.5 264.7 26.0 C 263.9 27.5 265.2 27.6 264.9 28.0 C 263.2 29.8 262.6 28.0 263.1 29.2 C 263.2 30.1 260.9 29.3 261.1 29.9 C 262.8 28.4 260.8 32.5 260.1 31.9 C 261.1 31.0 258.2 30.6 258.3 32.2 C 261.3 34.5 256.4 32.3 256.2 33.9 C 257.9 35.3 252.4 35.5 253.9 34.1 C 253.8 34.3 254.3 35.3 254.3 35.3 M 260.8 30.6 C 262.3 29.4 259.6 32.2 260.8 30.6 M 260.4 30.2 C 261.4 30.2 258.8 31.0 260.3 30.0 C 260.3 30.0 260.3 30.3 260.4 30.2 M 266.1 24.2 C 266.3 24.8 265.0 24.9 266.1 24.2 M 268.2 23.8 C 269.5 23.1 266.9 25.3 268.2 23.8 M 285.4 12.5 C 283.9 15.9 282.8 11.3 285.4 12.5 M 272.3 18.3 C 270.7 20.3 272.2 16.8 272.3 18.3 M 272.3 19.4 C 271.8 20.5 271.6 19.0 272.3 19.4 M 281.3 13.7 C 281.5 13.7 281.5 13.7 281.3 13.7 C 281.3 13.7 281.3 13.7 281.3 13.7 Z M 287.6 12.2 C 287.6 12.2 287.6 12.2 287.6 12.2 C 287.6 12.2 287.6 12.2 287.6 12.2 Z M 275.9 16.8 C 273.9 17.2 278.3 14.8 275.9 16.8 C 275.9 16.8 275.9 16.8 275.9 16.8 Z M 285.7 17.2 C 285.6 17.3 285.6 17.3 285.7 17.2 C 285.7 17.2 285.7 17.2 285.7 17.2 Z M 260.5 32.6 C 260.5 32.6 260.5 32.6 260.5 32.6 C 260.5 32.6 260.5 32.6 260.5 32.6 Z M 255.4 34.5 C 255.6 34.8 254.4 34.5 255.4 34.5 C 255.4 34.5 255.4 34.5 255.4 34.5 Z M 251.6 38.8 C 251.5 38.8 251.5 38.8 251.6 38.8 C 251.6 38.8 251.6 38.8 251.6 38.8 Z M 259.9 35.0 C 259.9 35.1 259.9 35.1 259.9 35.0 C 259.9 35.0 259.9 35.0 259.9 35.0 Z M 259.3 32.7 C 257.6 32.0 261.3 31.8 259.3 32.7 C 259.3 32.7 259.3 32.7 259.3 32.7 Z M 276.6 21.4 C 276.2 20.8 277.9 20.7 276.6 21.4 C 276.6 21.4 276.6 21.4 276.6 21.4 Z M 268.8 24.1 C 268.7 23.6 269.6 23.5 268.8 24.1 C 268.8 24.1 268.8 24.1 268.8 24.1 Z M 264.7 25.2 C 264.7 24.8 265.5 24.6 264.7 25.2 C 264.7 25.2 264.7 25.2 264.7 25.2 Z M 255.3 34.0 C 255.3 33.9 255.3 33.9 255.3 34.0 C 255.3 34.0 255.3 34.0 255.3 34.0 Z M 257.5 34.3 C 255.5 33.6 259.7 34.0 257.5 34.3 C 257.5 34.3 257.5 34.3 257.5 34.3 Z M 255.6 35.7 C 256.5 36.0 253.8 36.1 255.6 35.7 M 257.9 37.3 C 259.3 35.9 257.5 40.6 257.9 37.3 C 257.9 37.3 257.9 37.3 257.9 37.3 Z M 266.0 31.7 C 266.2 31.7 266.2 31.7 266.0 31.7 C 266.0 31.7 266.0 31.7 266.0 31.7 Z M 262.1 29.2 C 263.3 28.2 261.6 30.2 262.1 29.2 C 262.1 29.2 262.1 29.2 262.1 29.2 Z M 251.7 34.7 C 253.0 34.7 250.8 35.2 251.7 34.7 C 251.7 34.7 251.7 34.7 251.7 34.7 Z M 268.9 26.4 C 270.7 24.1 268.3 28.3 268.9 26.4 C 268.9 26.4 268.9 26.4 268.9 26.4 Z M 275.4 17.8 C 275.5 17.8 275.5 17.8 275.4 17.8 C 275.4 17.8 275.4 17.8 275.4 17.8 Z M 276.7 16.2 C 276.8 16.2 276.8 16.2 276.7 16.2 C 276.7 16.2 276.7 16.2 276.7 16.2 Z M 285.6 14.4 C 285.7 14.4 285.7 14.4 285.6 14.4 C 285.6 14.4 285.6 14.4 285.6 14.4 Z M 278.0 14.6 C 278.1 14.6 278.1 14.6 278.0 14.6 C 278.0 14.6 278.0 14.6 278.0 14.6 Z M 284.4 12.7 C 284.5 12.7 284.5 12.7 284.4 12.7 C 284.4 12.7 284.4 12.7 284.4 12.7 Z M 283.1 11.6 C 283.3 11.6 283.3 11.6 283.1 11.6 C 283.1 11.6 283.1 11.6 283.1 11.6 Z M 275.3 23.7 C 275.4 23.7 275.4 23.7 275.3 23.7 C 275.3 23.7 275.3 23.7 275.3 23.7 Z M 257.1 32.5 C 257.2 32.6 257.2 32.6 257.1 32.5 C 257.1 32.5 257.1 32.5 257.1 32.5 Z M 284.0 13.4 C 284.1 13.4 284.1 13.4 284.0 13.4 C 284.0 13.4 284.0 13.4 284.0 13.4 Z M 272.2 21.7 C 273.1 22.6 270.1 21.2 272.4 21.4 C 272.4 21.5 272.0 21.6 272.2 21.7 M 275.0 22.1 C 275.0 22.1 275.0 22.1 275.0 22.1 C 275.0 22.1 275.0 22.1 275.0 22.1 Z M 271.3 26.9 C 271.3 27.0 271.3 27.0 271.3 26.9 C 271.3 26.9 271.3 26.9 271.3 26.9 Z M 276.9 14.9 C 276.3 14.4 278.7 14.5 276.7 15.1 M 286.1 16.6 C 285.8 15.9 287.7 16.8 285.9 16.7 M 250.1 35.2 C 249.8 35.8 249.1 34.9 250.1 35.2 M 270.9 28.4 C 271.1 28.9 269.8 29.0 270.9 28.4 M 271.6 25.1 C 270.9 24.8 273.1 24.4 271.5 25.3 M 282.0 17.8 C 282.1 17.8 282.1 17.8 282.0 17.8 C 282.0 17.8 282.0 17.8 282.0 17.8 Z M 264.0 27.6 C 264.0 27.5 264.0 27.5 264.0 27.6 C 264.0 27.6 264.0 27.6 264.0 27.6 Z M 270.3 23.0 C 268.8 23.1 271.7 22.5 270.3 23.0 M 263.8 30.3 C 261.8 30.4 265.7 29.0 263.8 30.3 M 289.1 16.5 C 287.5 15.1 290.2 17.2 289.1 16.5 M 279.8 15.0 C 277.5 14.4 281.3 15.3 279.8 15.0 M 265.5 26.9 C 264.8 26.4 266.9 26.0 265.5 26.9 M 253.2 34.9 C 252.0 35.0 254.6 33.9 253.2 34.9 M 278.6 19.6 C 278.7 19.6 278.7 19.6 278.6 19.6 C 278.6 19.6 278.6 19.6 278.6 19.6 Z M 259.7 38.5 C 259.8 38.5 259.8 38.5 259.7 38.5 C 259.7 38.5 259.7 38.5 259.7 38.5 Z M 291.0 11.5 C 291.1 11.5 291.1 11.5 291.0 11.5 C 291.0 11.5 291.0 11.5 291.0 11.5 Z M 279.1 16.1 C 279.2 16.2 279.2 16.2 279.1 16.1 C 279.1 16.1 279.1 16.1 279.1 16.1 Z M 287.5 11.4 C 287.6 11.5 287.6 11.5 287.5 11.4 C 287.5 11.4 287.5 11.4 287.5 11.4 Z M 275.4 19.9 C 275.4 19.9 275.4 19.9 275.4 19.9 C 275.4 19.9 275.4 19.9 275.4 19.9 Z M 272.1 17.7 C 272.1 17.7 272.1 17.7 272.1 17.7 C 272.1 17.7 272.1 17.7 272.1 17.7 Z M 268.9 23.0 C 268.9 23.0 268.9 23.0 268.9 23.0 C 268.9 23.0 268.9 23.0 268.9 23.0 Z M 274.5 16.1 C 277.5 13.8 273.7 18.3 274.5 16.1 C 274.5 16.1 274.5 16.1 274.5 16.1 Z M 272.4 23.0 C 272.4 23.0 272.4 23.0 272.4 23.0 C 272.4 23.0 272.4 23.0 272.4 23.0 Z M 270.1 21.4 C 270.9 19.1 272.3 21.9 270.1 21.4 M 262.9 27.8 C 262.9 27.0 263.7 28.2 262.9 27.8 M 263.7 34.0 C 263.8 34.1 263.8 34.1 263.7 34.0 C 263.7 34.0 263.7 34.0 263.7 34.0 Z M 264.2 33.0 C 264.3 33.0 264.3 33.0 264.2 33.0 C 264.2 33.0 264.2 33.0 264.2 33.0 Z M 261.2 29.2 C 261.2 29.2 261.2 29.2 261.2 29.2 C 261.2 29.2 261.2 29.2 261.2 29.2 Z M 265.3 34.0 C 265.4 33.9 265.4 33.9 265.3 34.0 C 265.3 34.0 265.3 34.0 265.3 34.0 Z M 271.1 18.7 C 271.1 18.7 271.1 18.7 271.1 18.7 C 271.1 18.7 271.1 18.7 271.1 18.7 Z M 289.3 10.7 C 289.3 10.7 289.3 10.7 289.3 10.7 C 289.3 10.7 289.3 10.7 289.3 10.7 Z M 254.5 38.7 C 254.6 38.7 254.6 38.7 254.5 38.7 C 254.5 38.7 254.5 38.7 254.5 38.7 Z M 273.5 18.5 C 273.6 18.6 273.6 18.6 273.5 18.5 C 273.5 18.5 273.5 18.5 273.5 18.5 Z M 261.7 35.4 C 261.8 35.4 261.8 35.4 261.7 35.4 C 261.7 35.4 261.7 35.4 261.7 35.4 Z M 272.4 19.1 C 272.5 19.1 272.5 19.1 272.4 19.1 C 272.4 19.1 272.4 19.1 272.4 19.1 Z M 278.4 20.1 C 278.4 20.1 278.4 20.1 278.4 20.1 C 278.4 20.1 278.4 20.1 278.4 20.1 Z M 281.6 19.3 C 281.7 19.3 281.7 19.3 281.6 19.3 C 281.6 19.3 281.6 19.3 281.6 19.3 Z M 276.7 18.0 C 276.7 18.0 276.7 18.0 276.7 18.0 C 276.7 18.0 276.7 18.0 276.7 18.0 Z M 259.8 34.8 C 253.8 37.3 263.6 31.4 259.8 34.8 M 277.8 17.7 C 273.6 19.9 280.3 14.4 277.8 17.7 C 278.1 17.1 277.9 17.6 277.8 17.7 M 296.3 11.9 C 293.6 9.7 293.1 12.0 293.1 12.1 C 293.7 9.2 290.3 13.1 290.9 13.7 C 290.8 14.1 292.2 19.3 294.5 16.6 C 295.1 16.2 295.1 17.2 295.5 17.4 C 298.4 18.0 293.7 15.0 297.5 16.3 C 298.0 16.9 296.4 18.8 299.1 18.2 C 299.1 18.4 301.0 20.4 300.6 18.9 C 301.2 20.5 302.5 19.7 303.7 20.2 C 304.3 21.4 301.9 20.9 306.0 22.4 C 306.1 25.0 308.9 22.7 308.6 25.5 C 309.3 26.3 313.0 24.6 309.8 24.5 C 310.2 24.6 310.2 22.1 312.3 25.0 C 311.6 25.0 307.7 26.3 312.8 28.9 C 313.4 29.6 315.5 30.5 315.6 31.1 C 313.3 29.3 317.1 35.2 317.5 33.9 C 320.0 37.7 319.4 34.7 320.8 37.9 C 322.6 39.9 321.4 36.1 323.0 39.2 C 324.9 40.9 323.0 40.3 322.9 40.1 C 324.3 41.8 325.4 41.9 325.9 42.4 C 326.1 42.9 326.3 44.2 327.3 43.8 C 330.1 44.1 329.8 41.5 331.6 40.8 C 331.0 39.2 330.2 41.3 330.3 39.7 C 329.0 39.9 330.3 39.6 327.0 36.6 C 326.9 36.9 327.1 38.2 326.3 37.4 C 325.1 36.1 328.1 35.0 324.6 34.3 C 326.5 37.2 320.6 31.4 322.4 34.2 C 319.4 31.4 321.8 33.2 320.2 30.5 C 318.9 32.0 321.6 28.9 319.7 29.2 C 320.1 28.4 316.7 25.3 318.1 28.5 C 314.4 25.4 317.3 26.9 316.8 24.9 C 315.3 23.2 314.5 27.0 315.2 24.3 C 313.9 21.6 314.3 25.1 314.1 22.3 C 313.6 24.2 312.5 20.9 311.9 22.7 C 308.2 19.6 313.6 21.6 310.2 20.4 C 311.0 21.1 312.2 19.0 309.6 18.9 C 308.5 21.7 309.0 15.2 307.9 19.1 C 302.0 16.0 308.0 17.1 304.9 15.2 C 304.0 14.7 305.1 16.7 304.4 16.3 C 300.7 13.5 304.4 14.5 301.4 15.1 C 297.2 13.6 300.9 13.0 298.8 12.2 C 298.3 13.0 296.2 13.9 296.3 11.9 M 299.9 14.0 C 301.0 13.8 300.2 14.8 299.9 14.0 M 290.9 11.3 C 292.0 10.7 291.5 11.9 290.9 11.3 M 303.5 15.1 C 304.9 15.2 303.4 16.2 303.5 15.1 M 321.9 32.7 C 320.7 31.4 322.8 32.9 321.9 32.7 M 294.8 11.5 C 296.3 11.0 295.0 12.6 294.8 11.5 M 292.9 12.7 C 293.0 12.8 293.0 12.8 292.9 12.7 M 324.7 33.5 C 324.8 33.6 324.8 33.6 324.7 33.5 M 320.0 28.4 C 321.0 29.5 319.2 28.1 320.0 28.4 M 315.3 32.5 C 316.3 33.6 314.4 32.2 315.3 32.5 M 327.3 36.1 C 328.7 36.8 327.1 36.9 327.3 36.1 M 329.0 39.7 C 330.3 40.1 329.2 40.7 329.0 39.7 M 298.4 15.8 C 298.3 15.8 298.3 15.8 298.4 15.8 C 298.4 15.8 298.4 15.8 298.4 15.8 Z M 307.1 22.8 C 306.4 21.4 307.9 24.4 307.1 22.8 M 307.9 18.2 C 307.9 19.8 306.4 17.0 307.9 18.2 C 307.9 18.2 307.9 18.2 307.9 18.2 Z M 305.8 17.4 C 305.7 17.5 305.7 17.5 305.8 17.4 C 305.8 17.4 305.8 17.4 305.8 17.4 Z M 311.2 21.7 C 311.1 21.7 311.1 21.7 311.2 21.7 C 311.2 21.7 311.2 21.7 311.2 21.7 Z M 310.0 20.9 C 309.4 20.7 309.6 20.1 310.0 20.9 C 310.0 20.9 310.0 20.9 310.0 20.9 Z M 314.5 30.8 C 313.9 30.5 314.2 30.0 314.5 30.8 C 314.5 30.8 314.5 30.8 314.5 30.8 Z M 308.1 19.8 C 307.1 20.7 307.8 18.6 308.1 19.8 C 308.1 19.8 308.1 19.8 308.1 19.8 Z M 311.5 26.9 C 312.2 27.1 311.6 28.7 311.5 26.9 M 325.6 34.7 C 326.2 34.9 325.6 36.5 325.6 34.7 M 315.3 23.4 C 316.0 23.6 315.4 25.2 315.3 23.4 M 300.8 13.8 C 300.9 14.0 300.9 14.0 300.8 13.8 M 304.5 22.3 C 305.5 22.4 304.5 23.0 304.5 22.3 M 294.4 17.1 C 295.3 16.8 294.7 17.7 294.4 17.1 M 319.8 37.2 C 320.0 36.9 320.8 38.4 319.8 37.2 M 315.2 26.1 C 316.0 27.2 316.4 28.6 314.6 26.6 C 314.6 26.3 315.4 26.7 315.2 26.1 C 315.2 26.1 315.2 26.1 315.2 26.1 Z M 316.3 31.6 C 316.4 31.8 316.4 31.8 316.3 31.6 M 317.6 27.0 C 317.7 27.2 317.7 27.2 317.6 27.0 M 322.9 32.7 C 322.9 33.0 322.9 33.0 322.9 32.7 M 323.8 33.2 C 323.8 33.2 323.8 33.2 323.8 33.2 C 323.8 33.2 323.8 33.2 323.8 33.2 Z M 329.9 38.7 C 329.9 38.8 329.9 38.8 329.9 38.7 C 329.9 38.7 329.9 38.7 329.9 38.7 Z M 321.1 31.0 C 321.0 31.1 321.0 31.1 321.1 31.0 C 321.1 31.0 321.1 31.0 321.1 31.0 Z M 322.4 39.5 C 322.3 39.5 322.3 39.5 322.4 39.5 C 322.4 39.5 322.4 39.5 322.4 39.5 Z M 322.3 38.3 C 322.3 38.4 322.3 38.4 322.3 38.3 C 322.3 38.3 322.3 38.3 322.3 38.3 Z M 296.9 12.1 C 298.2 11.5 297.0 14.4 296.9 12.1 M 324.9 41.0 C 325.1 42.4 323.4 39.8 324.9 41.0 C 324.9 41.0 324.9 41.0 324.9 41.0 Z M 319.7 31.1 C 319.6 31.3 319.6 31.3 319.7 31.1 M 324.1 33.6 C 324.0 33.8 324.0 33.8 324.1 33.6 M 308.5 17.2 C 308.5 17.4 308.5 17.4 308.5 17.2 M 327.9 38.0 C 330.2 40.7 325.5 38.2 327.9 38.0 M 306.5 17.3 C 306.5 17.1 306.5 17.1 306.5 17.3 M 311.1 24.0 C 312.8 25.5 310.0 24.0 311.1 24.0 M 316.5 27.1 C 316.4 27.1 316.4 27.1 316.5 27.1 C 316.5 27.1 316.5 27.1 316.5 27.1 Z M 314.0 24.6 C 312.6 23.5 313.9 24.0 314.0 24.6 C 314.0 24.6 314.0 24.6 314.0 24.6 Z M 298.1 13.6 C 300.1 14.5 295.9 13.4 298.1 13.6 C 298.1 13.6 298.1 13.6 298.1 13.6 Z M 324.7 38.9 C 324.6 39.0 324.6 39.0 324.7 38.9 C 324.7 38.9 324.7 38.9 324.7 38.9 Z M 321.4 30.1 C 320.5 29.6 321.4 29.5 321.4 30.1 C 321.4 30.1 321.4 30.1 321.4 30.1 Z M 330.8 39.6 C 329.9 39.1 330.7 39.0 330.8 39.6 C 330.8 39.6 330.8 39.6 330.8 39.6 Z M 295.7 12.7 C 303.0 16.5 285.4 10.0 295.7 12.7 C 295.7 12.7 295.7 12.7 295.7 12.7 Z M 315.6 25.0 C 315.5 25.0 315.5 25.0 315.6 25.0 C 315.6 25.0 315.6 25.0 315.6 25.0 Z M 304.3 14.7 C 304.2 14.7 304.2 14.7 304.3 14.7 C 304.3 14.7 304.3 14.7 304.3 14.7 Z M 301.5 14.6 C 301.4 14.6 301.4 14.6 301.5 14.6 C 301.5 14.6 301.5 14.6 301.5 14.6 Z M 299.9 19.3 C 299.8 19.4 299.8 19.4 299.9 19.3 C 299.9 19.3 299.9 19.3 299.9 19.3 Z M 301.6 17.6 C 301.4 17.7 301.4 17.7 301.6 17.6 C 301.6 17.6 301.6 17.6 301.6 17.6 Z M 297.1 16.6 C 297.0 16.7 297.0 16.7 297.1 16.6 C 297.1 16.6 297.1 16.6 297.1 16.6 Z M 297.0 17.3 C 296.9 17.3 296.9 17.3 297.0 17.3 C 297.0 17.3 297.0 17.3 297.0 17.3 Z M 323.0 34.6 C 322.9 34.6 322.9 34.6 323.0 34.6 C 323.0 34.6 323.0 34.6 323.0 34.6 Z M 319.5 33.9 C 321.4 34.8 318.4 34.2 319.5 33.9 C 319.5 33.9 319.5 33.9 319.5 33.9 Z M 308.2 21.3 C 309.7 22.2 306.9 21.1 308.2 21.3 C 308.2 21.3 308.2 21.3 308.2 21.3 Z M 307.8 24.5 C 307.8 24.6 307.8 24.6 307.8 24.5 C 307.8 24.5 307.8 24.5 307.8 24.5 Z M 302.0 13.5 C 301.9 13.6 301.9 13.6 302.0 13.5 C 302.0 13.5 302.0 13.5 302.0 13.5 Z M 298.7 13.1 C 298.3 14.0 298.0 12.3 298.7 13.1 M 312.6 21.2 C 312.5 21.3 312.5 21.3 312.6 21.2 C 312.6 21.2 312.6 21.2 312.6 21.2 Z M 318.9 29.8 C 318.8 29.8 318.8 29.8 318.9 29.8 C 318.9 29.8 318.9 29.8 318.9 29.8 Z M 326.5 36.9 C 326.4 36.9 326.4 36.9 326.5 36.9 C 326.5 36.9 326.5 36.9 326.5 36.9 Z M 317.2 25.8 C 317.1 25.9 317.1 25.9 317.2 25.8 C 317.2 25.8 317.2 25.8 317.2 25.8 Z M 313.0 23.0 C 312.9 23.1 312.9 23.1 313.0 23.0 C 313.0 23.0 313.0 23.0 313.0 23.0 Z M 327.0 39.5 C 326.9 39.5 326.9 39.5 327.0 39.5 C 327.0 39.5 327.0 39.5 327.0 39.5 Z M 318.2 26.6 C 318.1 26.6 318.1 26.6 318.2 26.6 C 318.2 26.6 318.2 26.6 318.2 26.6 Z M 317.8 31.1 C 317.7 31.1 317.7 31.1 317.8 31.1 C 317.8 31.1 317.8 31.1 317.8 31.1 Z M 299.7 11.8 C 299.6 11.8 299.6 11.8 299.7 11.8 C 299.7 11.8 299.7 11.8 299.7 11.8 Z M 328.1 38.6 C 328.0 38.6 328.0 38.6 328.1 38.6 C 328.1 38.6 328.1 38.6 328.1 38.6 Z M 329.2 38.3 C 329.1 38.3 329.1 38.3 329.2 38.3 C 329.2 38.3 329.2 38.3 329.2 38.3 Z M 320.5 36.6 C 318.4 33.5 323.0 38.8 322.0 36.1 C 325.8 39.8 321.0 37.2 320.5 36.6 C 320.5 36.6 320.5 36.6 320.5 36.6 Z M 332.8 41.1 C 330.5 41.0 329.5 41.9 329.2 43.6 C 329.4 44.8 331.3 42.6 329.7 44.5 C 327.7 43.3 328.1 47.9 330.1 45.5 C 332.7 47.0 329.2 47.3 331.4 47.5 C 334.1 49.2 332.2 49.0 334.4 50.1 C 336.5 49.5 335.2 51.6 336.6 50.5 C 334.7 51.4 339.0 51.2 338.8 52.0 C 336.3 52.0 346.5 54.8 341.4 52.5 C 343.8 52.4 343.0 53.6 343.7 54.0 C 345.0 53.2 347.7 55.4 349.2 54.4 C 348.9 54.2 348.2 54.1 348.0 53.7 C 347.6 53.0 349.6 53.9 349.4 53.8 C 350.4 53.4 354.4 52.2 350.2 54.2 C 350.0 55.0 353.6 53.4 353.7 54.2 C 357.6 53.4 354.2 52.4 356.2 53.1 C 358.9 52.3 360.6 51.3 360.5 51.2 C 362.0 50.6 362.8 51.2 363.5 49.6 C 367.2 49.4 363.2 45.6 366.4 47.6 C 366.5 46.4 368.7 47.7 367.2 46.0 C 367.0 47.5 372.3 43.8 369.2 44.4 C 369.4 43.6 374.2 42.9 372.2 41.6 C 372.1 39.5 370.8 38.5 367.5 39.4 C 368.6 40.1 364.3 40.6 367.4 40.7 C 369.8 39.5 364.4 44.4 365.0 42.8 C 363.6 40.5 363.3 46.3 361.0 45.6 C 362.6 45.8 358.0 49.1 358.5 46.6 C 357.5 46.9 357.7 47.9 356.3 47.3 C 359.2 46.2 355.8 49.6 355.6 48.4 C 355.9 47.5 351.1 48.1 351.8 49.1 C 353.9 51.6 350.6 48.7 349.8 49.8 C 347.2 50.5 350.2 47.6 348.3 49.5 C 347.8 49.1 344.7 48.8 346.7 48.5 C 347.4 48.8 344.2 51.0 344.4 48.7 C 348.1 48.3 340.9 46.7 341.8 47.8 C 346.3 51.0 335.9 46.7 340.3 47.4 C 338.7 45.2 341.2 47.4 338.2 46.3 C 338.2 47.2 335.7 46.5 337.0 45.5 C 337.8 43.4 334.5 47.5 334.7 43.8 C 335.2 42.6 330.9 42.0 333.0 41.8 C 333.1 41.7 332.9 41.2 332.8 41.1 M 333.5 42.1 C 332.9 42.2 333.4 41.2 333.5 42.1 M 332.8 42.2 C 332.8 42.1 332.8 42.1 332.8 42.2 C 332.8 42.2 332.8 42.2 332.8 42.2 Z M 337.8 46.2 C 337.8 46.1 337.8 46.1 337.8 46.2 C 337.8 46.2 337.8 46.2 337.8 46.2 Z M 340.0 53.4 C 340.0 53.3 340.0 53.3 340.0 53.4 C 340.0 53.4 340.0 53.4 340.0 53.4 Z M 341.3 48.1 C 341.2 48.1 341.2 48.1 341.3 48.1 C 341.3 48.1 341.3 48.1 341.3 48.1 Z M 335.7 45.2 C 335.7 45.2 335.7 45.2 335.7 45.2 C 335.7 45.2 335.7 45.2 335.7 45.2 Z M 341.3 47.2 C 341.2 48.1 340.3 46.1 341.4 47.1 C 341.4 47.2 341.2 47.1 341.3 47.2 M 345.9 48.3 C 345.9 48.4 345.9 48.4 345.9 48.3 M 359.5 52.8 C 359.6 52.9 359.6 52.9 359.5 52.8 M 357.7 46.4 C 357.8 46.4 357.8 46.4 357.7 46.4 M 350.8 49.3 C 352.4 49.0 351.2 49.7 350.8 49.3 M 361.6 44.5 C 359.6 45.3 363.2 42.8 361.6 44.5 M 363.0 42.9 C 363.2 42.8 363.2 42.8 363.0 42.9 M 355.1 47.8 C 355.1 47.9 355.1 47.9 355.1 47.8 C 355.1 47.8 355.1 47.8 355.1 47.8 Z M 350.1 49.0 C 348.0 48.7 352.1 48.1 350.1 49.0 M 338.8 45.8 C 340.0 46.0 338.3 46.8 338.8 45.8 M 336.5 45.0 C 336.5 45.0 336.5 45.0 336.5 45.0 C 336.5 45.0 336.5 45.0 336.5 45.0 Z M 358.7 46.3 C 358.7 46.4 358.7 46.4 358.7 46.3 C 358.7 46.3 358.7 46.3 358.7 46.3 Z M 360.7 44.9 C 360.6 45.0 360.6 45.0 360.7 44.9 C 360.7 44.9 360.7 44.9 360.7 44.9 Z M 367.9 47.1 C 367.8 47.2 367.8 47.2 367.9 47.1 C 367.9 47.1 367.9 47.1 367.9 47.1 Z M 336.7 48.1 C 335.5 46.9 339.2 47.2 338.2 48.3 C 338.0 49.0 337.0 48.1 336.7 48.1 M 348.6 50.9 C 349.0 53.0 347.1 48.1 348.6 50.9 M 364.1 43.8 C 366.9 44.6 361.3 43.8 364.1 43.8 M 366.5 41.1 C 367.6 40.8 361.7 45.7 365.3 41.7 C 365.4 41.0 366.0 41.2 366.5 41.1 M 345.8 49.3 C 346.1 50.5 343.6 48.4 345.8 49.3 M 356.6 51.7 C 357.2 50.7 359.1 49.2 358.6 50.8 C 359.3 52.3 355.7 52.7 356.6 51.7 M 333.2 43.3 C 335.4 42.8 332.2 44.5 333.2 43.3 M 338.4 47.1 C 338.5 47.1 338.5 47.1 338.4 47.1 C 338.4 47.1 338.4 47.1 338.4 47.1 Z M 340.7 47.9 C 340.7 48.1 340.7 48.1 340.7 47.9 M 335.0 42.7 C 335.0 42.9 335.0 42.9 335.0 42.7 M 355.9 49.9 C 356.1 50.0 356.1 50.0 355.9 49.9 M 350.4 49.8 C 352.9 51.5 349.1 50.3 350.4 49.8 M 344.0 52.8 C 344.6 53.8 342.4 52.5 344.0 52.8 M 354.3 48.5 C 356.4 49.7 352.4 50.7 354.3 48.5 M 349.2 49.7 C 349.3 49.7 349.3 49.7 349.2 49.7 C 349.2 49.7 349.2 49.7 349.2 49.7 Z M 357.3 51.7 C 357.3 51.7 357.3 51.7 357.3 51.7 C 357.3 51.7 357.3 51.7 357.3 51.7 Z M 358.1 51.3 C 358.1 51.3 358.1 51.3 358.1 51.3 C 358.1 51.3 358.1 51.3 358.1 51.3 Z M 356.2 47.6 C 356.1 47.7 356.1 47.7 356.2 47.6 C 356.2 47.6 356.2 47.6 356.2 47.6 Z M 333.7 48.8 C 335.3 50.0 332.3 48.2 333.7 48.8 C 333.7 48.8 333.7 48.8 333.7 48.8 Z M 342.9 47.9 C 344.9 50.0 340.8 48.5 342.9 47.9 C 342.9 47.9 342.9 47.9 342.9 47.9 Z M 345.3 50.8 C 345.3 50.9 345.3 50.9 345.3 50.8 C 345.3 50.8 345.3 50.8 345.3 50.8 Z M 352.9 47.7 C 353.0 47.8 353.0 47.8 352.9 47.7 C 352.9 47.7 352.9 47.7 352.9 47.7 Z M 334.4 49.5 C 334.4 49.6 334.4 49.6 334.4 49.5 C 334.4 49.5 334.4 49.5 334.4 49.5 Z M 361.0 46.1 C 361.0 46.2 361.0 46.2 361.0 46.1 C 361.0 46.1 361.0 46.1 361.0 46.1 Z M 351.9 53.3 C 352.6 52.5 352.2 53.8 351.9 53.3 C 351.9 53.3 351.9 53.3 351.9 53.3 Z M 355.0 52.7 C 355.1 52.7 355.1 52.7 355.0 52.7 C 355.0 52.7 355.0 52.7 355.0 52.7 Z M 363.4 42.4 C 363.4 42.3 363.4 42.3 363.4 42.4 C 363.4 42.4 363.4 42.4 363.4 42.4 Z M 363.0 51.0 C 363.1 50.9 363.1 50.9 363.0 51.0 C 363.0 51.0 363.0 51.0 363.0 51.0 Z M 364.0 47.9 C 364.0 47.9 364.0 47.9 364.0 47.9 C 364.0 47.9 364.0 47.9 364.0 47.9 Z M 355.9 48.2 C 358.2 47.0 355.6 49.1 355.9 48.2 C 355.9 48.2 355.9 48.2 355.9 48.2 Z M 369.2 42.8 C 369.3 42.9 369.3 42.9 369.2 42.8 C 369.2 42.8 369.2 42.8 369.2 42.8 Z M 368.7 40.1 C 368.8 40.1 368.8 40.1 368.7 40.1 C 368.7 40.1 368.7 40.1 368.7 40.1 Z M 368.3 38.7 C 368.5 38.7 368.5 38.7 368.3 38.7 C 368.3 38.7 368.3 38.7 368.3 38.7 Z M 339.6 50.2 C 339.6 50.1 339.6 50.1 339.6 50.2 C 339.6 50.2 339.6 50.2 339.6 50.2 Z M 340.4 46.3 C 340.3 46.3 340.3 46.3 340.4 46.3 C 340.4 46.3 340.4 46.3 340.4 46.3 Z M 343.3 47.4 C 343.3 47.3 343.3 47.3 343.3 47.4 C 343.3 47.4 343.3 47.4 343.3 47.4 Z M 338.0 52.0 C 338.0 52.0 338.0 52.0 338.0 52.0 C 338.0 52.0 338.0 52.0 338.0 52.0 Z M 352.4 51.1 C 352.4 51.0 352.4 51.0 352.4 51.1 C 352.4 51.1 352.4 51.1 352.4 51.1 Z M 354.1 52.3 C 354.0 52.3 354.0 52.3 354.1 52.3 C 354.1 52.3 354.1 52.3 354.1 52.3 Z M 350.8 54.9 C 350.7 54.9 350.7 54.9 350.8 54.9 C 350.8 54.9 350.8 54.9 350.8 54.9 Z M 355.6 53.4 C 355.6 53.3 355.6 53.3 355.6 53.4 C 355.6 53.4 355.6 53.4 355.6 53.4 Z M 330.1 46.0 C 330.1 46.0 330.1 46.0 330.1 46.0 C 330.1 46.0 330.1 46.0 330.1 46.0 Z M 331.8 43.5 C 331.7 43.6 331.7 43.6 331.8 43.5 C 331.8 43.5 331.8 43.5 331.8 43.5 Z M 352.5 48.9 C 353.0 48.2 353.8 49.5 352.5 48.9 M 347.7 49.6 C 347.7 49.6 347.7 49.6 347.7 49.6 C 347.7 49.6 347.7 49.6 347.7 49.6 Z M 360.3 45.9 C 361.5 46.5 358.0 46.7 360.3 45.9 C 360.3 45.9 360.3 45.9 360.3 45.9 Z M 360.2 51.6 C 360.2 51.6 360.2 51.6 360.2 51.6 C 360.2 51.6 360.2 51.6 360.2 51.6 Z M 361.3 50.4 C 361.5 50.5 361.5 50.5 361.3 50.4 C 361.3 50.4 361.3 50.4 361.3 50.4 Z M 366.0 43.1 C 366.2 43.1 366.2 43.1 366.0 43.1 M 347.2 48.5 C 347.8 49.1 347.7 49.0 347.2 48.5 M 361.7 45.0 C 361.7 45.1 361.7 45.1 361.7 45.0 C 361.7 45.0 361.7 45.0 361.7 45.0 Z M 366.9 41.5 C 366.8 41.6 366.8 41.6 366.9 41.5 C 366.9 41.5 366.9 41.5 366.9 41.5 Z M 344.0 48.7 C 343.7 50.1 343.2 49.6 344.0 48.7 M 335.4 44.9 C 335.3 45.0 335.3 45.0 335.4 44.9 C 335.4 44.9 335.4 44.9 335.4 44.9 Z M 372.7 34.7 C 369.3 35.6 370.8 37.2 370.9 37.3 C 369.1 34.9 369.7 40.0 370.6 40.0 C 370.8 40.4 376.0 42.5 375.4 38.8 C 375.5 38.2 376.4 38.6 376.8 38.4 C 379.3 35.9 373.8 38.8 377.1 35.9 C 378.0 35.8 378.8 38.2 379.7 35.4 C 380.0 35.5 382.7 34.7 381.2 34.3 C 382.9 34.6 382.9 33.0 383.8 32.2 C 385.1 32.3 383.5 34.0 386.7 31.5 C 388.9 32.9 388.8 29.3 390.5 31.3 C 391.4 31.3 392.6 27.4 390.5 29.8 C 390.8 29.5 389.2 27.7 392.5 28.3 C 392.0 28.8 390.4 32.1 395.1 30.9 C 395.8 31.0 397.8 30.4 398.1 30.9 C 395.6 30.7 400.6 33.5 400.5 32.2 C 403.7 34.2 402.4 31.9 404.3 34.3 C 406.4 35.4 404.5 32.4 406.6 34.7 C 408.6 35.7 406.8 35.7 406.7 35.6 C 408.2 36.7 409.2 36.6 409.8 37.0 C 410.1 37.4 410.4 38.6 411.3 38.1 C 414.1 37.9 413.4 35.3 415.2 34.5 C 414.3 32.9 413.9 35.2 413.6 33.5 C 412.4 33.9 413.6 33.2 409.7 31.1 C 409.6 31.4 410.2 32.6 409.2 32.1 C 407.8 31.1 410.2 29.1 406.8 29.6 C 409.5 31.7 402.2 28.4 404.7 30.3 C 401.1 29.0 403.9 29.5 401.5 28.0 C 401.0 29.9 401.9 25.9 400.4 27.1 C 400.4 26.2 396.0 25.5 398.8 27.4 C 394.3 26.8 397.3 26.4 395.7 25.2 C 393.5 24.8 395.4 28.3 394.1 25.8 C 391.3 24.6 394.1 26.9 391.8 25.2 C 392.9 26.8 389.6 25.3 390.6 27.0 C 385.7 27.7 390.8 24.8 387.6 26.9 C 388.7 26.7 387.6 24.3 385.9 26.5 C 387.6 29.0 382.4 25.0 385.1 28.1 C 382.1 29.7 381.8 29.7 381.7 29.2 C 381.5 28.7 381.6 27.8 380.0 28.8 C 379.1 29.3 381.5 29.3 380.8 29.8 C 376.4 31.7 379.1 28.9 378.2 31.8 C 374.8 34.9 376.1 31.3 374.3 32.7 C 374.7 33.5 374.3 35.9 372.7 34.7 M 376.4 32.7 C 376.8 31.6 377.3 32.8 376.4 32.7 M 368.9 38.2 C 369.2 37.1 369.7 38.3 368.9 38.2 M 379.2 30.0 C 380.0 28.7 380.1 30.6 379.2 30.0 M 403.7 29.1 C 402.2 28.5 404.6 29.0 403.7 29.1 M 371.5 35.6 C 372.0 34.2 372.5 36.1 371.5 35.6 M 371.3 37.8 C 371.4 37.8 371.4 37.8 371.3 37.8 M 406.6 28.8 C 406.7 28.9 406.7 28.9 406.6 28.8 M 400.3 26.2 C 401.7 26.7 399.4 26.4 400.3 26.2 M 398.4 32.2 C 399.5 32.6 397.6 32.4 398.4 32.2 M 409.9 30.5 C 411.4 30.9 409.9 31.3 409.9 30.5 M 412.3 33.7 C 413.7 33.9 412.7 34.7 412.3 33.7 M 377.2 34.9 C 377.2 35.0 377.2 35.0 377.2 34.9 C 377.2 34.9 377.2 34.9 377.2 34.9 Z M 387.6 30.8 C 386.2 30.6 389.3 31.1 387.6 30.8 M 384.2 27.6 C 385.7 28.4 382.3 28.3 384.2 27.6 C 384.2 27.6 384.2 27.6 384.2 27.6 Z M 382.4 29.0 C 382.4 29.1 382.4 29.1 382.4 29.0 C 382.4 29.0 382.4 29.0 382.4 29.0 Z M 389.3 26.9 C 389.2 26.9 389.2 26.9 389.3 26.9 C 389.3 26.9 389.3 26.9 389.3 26.9 Z M 387.8 27.3 C 387.3 27.7 386.9 27.2 387.8 27.3 C 387.8 27.3 387.8 27.3 387.8 27.3 Z M 397.1 31.2 C 396.6 31.4 396.6 30.9 397.1 31.2 C 397.1 31.2 397.1 31.2 397.1 31.2 Z M 385.8 28.3 C 386.0 29.6 384.6 27.8 385.8 28.3 C 385.8 28.3 385.8 28.3 385.8 28.3 Z M 393.2 30.2 C 393.8 29.9 394.3 31.4 393.2 30.2 M 407.8 29.7 C 408.5 29.7 408.3 31.4 407.8 29.7 M 393.6 25.0 C 394.2 24.7 394.9 26.3 393.6 25.0 M 376.7 31.8 C 376.9 31.8 376.9 31.8 376.7 31.8 M 386.0 32.6 C 386.5 31.9 386.6 33.0 386.0 32.6 M 375.8 39.2 C 376.2 38.2 376.5 39.3 375.8 39.2 M 403.3 34.0 C 403.4 33.7 404.4 34.7 403.3 34.0 M 395.2 27.2 C 396.4 27.5 397.6 28.3 395.0 27.9 C 394.9 27.6 395.7 27.5 395.2 27.2 C 395.2 27.2 395.2 27.2 395.2 27.2 Z M 398.8 30.8 C 398.9 31.0 398.9 31.0 398.8 30.8 M 397.6 26.4 C 397.8 26.5 397.8 26.5 397.6 26.4 M 404.7 28.8 C 404.7 29.0 404.7 29.0 404.7 28.8 M 405.7 28.9 C 405.6 28.9 405.6 28.9 405.7 28.9 C 405.7 28.9 405.7 28.9 405.7 28.9 Z M 413.1 32.6 C 413.1 32.6 413.1 32.6 413.1 32.6 C 413.1 32.6 413.1 32.6 413.1 32.6 Z M 402.4 28.0 C 402.4 28.1 402.4 28.1 402.4 28.0 C 402.4 28.0 402.4 28.0 402.4 28.0 Z M 406.1 35.2 C 406.0 35.2 406.0 35.2 406.1 35.2 C 406.1 35.2 406.1 35.2 406.1 35.2 Z M 405.8 34.1 C 405.7 34.2 405.7 34.2 405.8 34.1 C 405.8 34.1 405.8 34.1 405.8 34.1 Z M 373.2 34.2 C 373.4 32.8 375.1 35.5 373.2 34.2 M 408.7 35.9 C 409.1 37.2 407.1 35.1 408.7 35.9 C 408.7 35.9 408.7 35.9 408.7 35.9 Z M 401.2 28.7 C 401.3 28.9 401.3 28.9 401.2 28.7 M 406.0 29.2 C 406.1 29.4 406.1 29.4 406.0 29.2 M 383.8 26.5 C 383.9 26.7 383.9 26.7 383.8 26.5 M 410.9 32.3 C 413.8 34.4 408.6 33.0 410.9 32.3 M 382.7 28.3 C 382.5 28.3 382.5 28.3 382.7 28.3 M 391.0 28.5 C 393.2 28.2 390.2 29.3 391.0 28.5 M 396.8 27.1 C 396.7 27.2 396.7 27.2 396.8 27.1 C 396.8 27.1 396.8 27.1 396.8 27.1 Z M 393.4 26.8 C 391.6 27.0 392.9 26.4 393.4 26.8 C 393.4 26.8 393.4 26.8 393.4 26.8 Z M 375.2 34.0 C 377.0 32.8 373.7 35.8 375.2 34.0 C 375.2 34.0 375.2 34.0 375.2 34.0 Z M 408.1 34.0 C 408.0 34.0 408.0 34.0 408.1 34.0 C 408.1 34.0 408.1 34.0 408.1 34.0 Z M 402.3 27.1 C 401.2 27.0 402.0 26.5 402.3 27.1 C 402.3 27.1 402.3 27.1 402.3 27.1 Z M 414.1 33.3 C 413.1 33.0 413.9 32.7 414.1 33.3 C 414.1 33.3 414.1 33.3 414.1 33.3 Z M 373.0 35.6 C 380.5 31.7 364.7 42.5 373.0 35.6 C 373.0 35.6 373.0 35.6 373.0 35.6 Z M 394.8 26.0 C 394.8 26.1 394.8 26.1 394.8 26.0 C 394.8 26.0 394.8 26.0 394.8 26.0 Z M 379.3 29.1 C 379.2 29.2 379.2 29.2 379.3 29.1 C 379.3 29.1 379.3 29.1 379.3 29.1 Z M 377.7 31.5 C 377.7 31.6 377.7 31.6 377.7 31.5 C 377.7 31.5 377.7 31.5 377.7 31.5 Z M 381.2 35.2 C 381.2 35.3 381.2 35.3 381.2 35.2 C 381.2 35.2 381.2 35.2 381.2 35.2 Z M 380.5 32.9 C 380.5 33.1 380.5 33.1 380.5 32.9 C 380.5 32.9 380.5 32.9 380.5 32.9 Z M 377.2 36.5 C 377.2 36.6 377.2 36.6 377.2 36.5 C 377.2 36.5 377.2 36.5 377.2 36.5 Z M 377.7 36.9 C 377.7 37.0 377.7 37.0 377.7 36.9 C 377.7 36.9 377.7 36.9 377.7 36.9 Z M 405.4 30.4 C 405.3 30.5 405.3 30.5 405.4 30.4 C 405.4 30.4 405.4 30.4 405.4 30.4 Z M 402.2 31.2 C 404.0 31.2 401.3 32.0 402.2 31.2 C 402.2 31.2 402.2 31.2 402.2 31.2 Z M 387.1 29.0 C 388.6 28.3 386.2 29.9 387.1 29.0 C 387.1 29.0 387.1 29.0 387.1 29.0 Z M 389.4 31.3 C 389.4 31.3 389.4 31.3 389.4 31.3 C 389.4 31.3 389.4 31.3 389.4 31.3 Z M 377.0 30.5 C 377.1 30.7 377.1 30.7 377.0 30.5 C 377.0 30.5 377.0 30.5 377.0 30.5 Z M 375.0 33.2 C 375.6 34.1 373.9 33.5 375.0 33.2 M 389.9 25.5 C 389.9 25.6 389.9 25.6 389.9 25.5 C 389.9 25.5 389.9 25.5 389.9 25.5 Z M 400.0 28.0 C 400.0 28.0 400.0 28.0 400.0 28.0 C 400.0 28.0 400.0 28.0 400.0 28.0 Z M 409.3 31.5 C 409.2 31.6 409.2 31.6 409.3 31.5 C 409.3 31.5 409.3 31.5 409.3 31.5 Z M 396.6 25.7 C 396.5 25.8 396.5 25.8 396.6 25.7 C 396.6 25.7 396.6 25.7 396.6 25.7 Z M 391.6 26.4 C 391.5 26.5 391.5 26.5 391.6 26.4 C 391.6 26.4 391.6 26.4 391.6 26.4 Z M 410.4 33.9 C 410.3 33.9 410.3 33.9 410.4 33.9 C 410.4 33.9 410.4 33.9 410.4 33.9 Z M 397.8 25.7 C 397.7 25.7 397.7 25.7 397.8 25.7 C 397.8 25.7 397.8 25.7 397.8 25.7 Z M 399.7 29.6 C 399.6 29.7 399.6 29.7 399.7 29.6 C 399.7 29.6 399.7 29.6 399.7 29.6 Z M 374.4 31.8 C 374.4 31.8 374.4 31.8 374.4 31.8 C 374.4 31.8 374.4 31.8 374.4 31.8 Z M 411.2 32.8 C 411.1 32.8 411.1 32.8 411.2 32.8 C 411.2 32.8 411.2 32.8 411.2 32.8 Z M 412.2 32.3 C 412.2 32.3 412.2 32.3 412.2 32.3 C 412.2 32.3 412.2 32.3 412.2 32.3 Z M 403.8 33.2 C 401.2 31.3 406.5 34.3 404.9 32.2 C 409.3 34.1 404.4 33.5 403.8 33.2 C 403.8 33.2 403.8 33.2 403.8 33.2 Z M 416.5 34.7 C 414.0 34.7 413.2 35.9 413.1 37.5 C 413.5 38.7 415.1 36.3 413.8 38.3 C 411.7 37.4 412.5 41.9 414.2 39.3 C 416.9 40.6 413.5 41.2 415.7 41.2 C 418.5 42.8 416.6 42.6 418.8 43.8 C 420.9 43.2 419.6 45.3 421.0 44.3 C 419.0 45.1 423.5 45.3 423.2 46.1 C 420.6 45.8 430.7 50.2 425.7 47.0 C 428.3 47.4 427.2 48.5 427.9 49.0 C 429.3 48.5 431.4 51.4 433.2 50.8 C 433.0 50.5 432.3 50.2 432.2 49.8 C 432.0 49.1 433.8 50.5 433.6 50.4 C 434.6 50.3 438.8 50.2 434.2 50.9 C 433.8 51.7 437.7 51.2 437.5 52.0 C 441.4 52.6 438.6 50.5 440.2 51.8 C 442.9 52.0 444.8 51.8 444.8 51.6 C 446.3 51.6 446.9 52.5 448.1 51.3 C 451.5 52.6 449.3 47.5 451.4 50.6 C 452.0 49.5 453.5 51.5 452.7 49.4 C 452.0 50.7 458.3 49.2 455.1 48.7 C 455.6 47.9 460.4 48.8 458.9 47.0 C 459.5 44.9 458.4 43.7 455.2 43.4 C 456.0 44.5 451.9 43.4 454.7 44.5 C 457.3 44.3 450.8 46.8 451.9 45.6 C 451.4 43.0 449.1 48.2 447.4 46.6 C 448.7 47.4 443.3 48.7 444.6 46.6 C 443.6 46.5 443.4 47.5 442.3 46.4 C 445.5 46.5 441.0 48.4 441.2 47.2 C 441.8 46.5 437.0 45.4 437.3 46.6 C 438.5 49.6 436.2 45.8 435.1 46.6 C 432.3 46.5 436.2 44.6 433.7 45.9 C 433.3 45.4 429.9 44.1 432.2 44.4 C 432.9 44.9 429.0 46.2 429.6 43.9 C 433.8 44.5 425.9 41.1 426.7 42.4 C 431.6 46.6 420.2 40.1 425.1 41.7 C 423.4 39.1 426.1 41.8 422.8 40.3 C 422.8 41.1 420.1 40.1 421.4 39.3 C 422.2 37.2 418.9 41.2 418.8 37.4 C 419.3 36.2 414.6 35.6 416.7 35.4 C 416.9 35.3 416.6 34.7 416.5 34.7 M 417.4 35.7 C 416.7 35.8 417.1 34.7 417.4 35.7 M 416.7 35.7 C 416.7 35.7 416.7 35.7 416.7 35.7 C 416.7 35.7 416.7 35.7 416.7 35.7 Z M 422.3 40.0 C 422.3 39.9 422.3 39.9 422.3 40.0 C 422.3 40.0 422.3 40.0 422.3 40.0 Z M 424.2 47.7 C 424.2 47.6 424.2 47.6 424.2 47.7 C 424.2 47.7 424.2 47.7 424.2 47.7 Z M 426.2 42.6 C 426.1 42.5 426.1 42.5 426.2 42.6 C 426.2 42.6 426.2 42.6 426.2 42.6 Z M 420.1 38.9 C 420.0 38.9 420.0 38.9 420.1 38.9 C 420.1 38.9 420.1 38.9 420.1 38.9 Z M 426.2 41.7 C 426.1 42.6 425.2 40.3 426.3 41.6 C 426.4 41.7 426.1 41.5 426.2 41.7 M 431.4 44.0 C 431.4 44.1 431.4 44.1 431.4 44.0 M 443.3 52.7 C 443.3 52.8 443.3 52.8 443.3 52.7 M 444.0 46.1 C 444.1 46.2 444.1 46.2 444.0 46.1 M 436.3 46.5 C 438.0 46.7 436.6 47.0 436.3 46.5 M 448.2 45.9 C 446.1 45.8 450.3 45.0 448.2 45.9 M 450.0 44.9 C 450.2 45.0 450.2 45.0 450.0 44.9 M 441.0 46.5 C 440.9 46.5 440.9 46.5 441.0 46.5 C 441.0 46.5 441.0 46.5 441.0 46.5 Z M 435.7 46.0 C 433.7 45.0 438.0 45.8 435.7 46.0 M 423.4 39.8 C 424.8 40.2 422.9 40.7 423.4 39.8 M 420.9 38.7 C 420.9 38.7 420.9 38.7 420.9 38.7 C 420.9 38.7 420.9 38.7 420.9 38.7 Z M 445.0 46.4 C 444.9 46.4 444.9 46.4 445.0 46.4 C 445.0 46.4 445.0 46.4 445.0 46.4 Z M 447.3 45.9 C 447.2 45.9 447.2 45.9 447.3 45.9 C 447.3 45.9 447.3 45.9 447.3 45.9 Z M 453.0 50.7 C 452.9 50.7 452.9 50.7 453.0 50.7 C 453.0 50.7 453.0 50.7 453.0 50.7 Z M 421.2 41.9 C 419.9 40.6 423.8 41.3 422.7 42.3 C 422.6 43.0 421.5 41.9 421.2 41.9 M 433.6 47.3 C 433.4 49.4 432.8 44.1 433.6 47.3 M 450.7 46.1 C 453.0 48.0 448.2 45.1 450.7 46.1 M 453.8 44.6 C 454.9 44.7 448.0 47.0 452.5 44.7 C 452.8 44.2 453.3 44.5 453.8 44.6 M 431.1 44.9 C 431.1 46.2 428.8 43.4 431.1 44.9 M 441.0 50.7 C 441.9 50.0 444.2 49.2 443.2 50.5 C 443.3 52.1 439.8 51.2 441.0 50.7 M 417.2 36.9 C 419.5 36.3 416.3 38.2 417.2 36.9 M 423.0 41.1 C 423.1 41.0 423.1 41.0 423.0 41.1 C 423.0 41.1 423.0 41.1 423.0 41.1 Z M 425.5 42.3 C 425.6 42.5 425.6 42.5 425.5 42.3 M 419.1 36.3 C 419.1 36.5 419.1 36.5 419.1 36.3 M 441.0 48.8 C 441.1 48.9 441.1 48.9 441.0 48.8 M 435.7 46.8 C 437.7 49.2 434.3 46.9 435.7 46.8 M 428.4 47.9 C 428.8 49.0 426.8 47.2 428.4 47.9 M 439.9 46.8 C 441.6 48.6 437.4 48.2 439.9 46.8 M 434.6 46.3 C 434.7 46.4 434.7 46.4 434.6 46.3 C 434.6 46.3 434.6 46.3 434.6 46.3 Z M 441.7 50.9 C 441.7 50.9 441.7 50.9 441.7 50.9 C 441.7 50.9 441.7 50.9 441.7 50.9 Z M 442.6 50.8 C 442.5 50.8 442.5 50.8 442.6 50.8 C 442.6 50.8 442.6 50.8 442.6 50.8 Z M 442.1 46.7 C 442.0 46.7 442.0 46.7 442.1 46.7 C 442.1 46.7 442.1 46.7 442.1 46.7 Z M 418.1 42.5 C 419.6 43.7 416.6 41.8 418.1 42.5 C 418.1 42.5 418.1 42.5 418.1 42.5 Z M 428.0 42.7 C 430.0 45.4 425.6 42.9 428.0 42.7 C 428.0 42.7 428.0 42.7 428.0 42.7 Z M 430.2 46.3 C 430.1 46.4 430.1 46.4 430.2 46.3 C 430.2 46.3 430.2 46.3 430.2 46.3 Z M 438.9 45.6 C 438.9 45.7 438.9 45.7 438.9 45.6 C 438.9 45.6 438.9 45.6 438.9 45.6 Z M 418.8 43.2 C 418.7 43.3 418.7 43.3 418.8 43.2 C 418.8 43.2 418.8 43.2 418.8 43.2 Z M 447.1 47.1 C 447.1 47.2 447.1 47.2 447.1 47.1 C 447.1 47.1 447.1 47.1 447.1 47.1 Z M 436.2 50.6 C 437.0 50.1 436.2 51.1 436.2 50.6 C 436.2 50.6 436.2 50.6 436.2 50.6 Z M 439.2 51.0 C 439.3 51.0 439.3 51.0 439.2 51.0 C 439.2 51.0 439.2 51.0 439.2 51.0 Z M 450.6 44.6 C 450.7 44.6 450.7 44.6 450.6 44.6 C 450.6 44.6 450.6 44.6 450.6 44.6 Z M 447.1 52.4 C 447.2 52.3 447.2 52.3 447.1 52.4 C 447.1 52.4 447.1 52.4 447.1 52.4 Z M 449.2 49.9 C 449.1 49.9 449.1 49.9 449.2 49.9 C 449.2 49.9 449.2 49.9 449.2 49.9 Z M 441.6 47.1 C 444.3 46.8 441.0 47.8 441.6 47.1 C 441.6 47.1 441.6 47.1 441.6 47.1 Z M 455.7 47.2 C 455.8 47.3 455.8 47.3 455.7 47.2 C 455.7 47.2 455.7 47.2 455.7 47.2 Z M 456.0 44.5 C 456.2 44.5 456.2 44.5 456.0 44.5 C 456.0 44.5 456.0 44.5 456.0 44.5 Z M 456.1 43.0 C 456.3 43.1 456.3 43.1 456.1 43.0 C 456.1 43.0 456.1 43.0 456.1 43.0 Z M 424.2 44.4 C 424.2 44.3 424.2 44.3 424.2 44.4 C 424.2 44.4 424.2 44.4 424.2 44.4 Z M 425.2 40.6 C 425.2 40.5 425.2 40.5 425.2 40.6 C 425.2 40.6 425.2 40.6 425.2 40.6 Z M 428.5 42.3 C 428.5 42.3 428.5 42.3 428.5 42.3 C 428.5 42.3 428.5 42.3 428.5 42.3 Z M 422.4 46.1 C 422.3 46.0 422.3 46.0 422.4 46.1 C 422.4 46.1 422.4 46.1 422.4 46.1 Z M 437.3 48.7 C 437.3 48.6 437.3 48.6 437.3 48.7 C 437.3 48.7 437.3 48.7 437.3 48.7 Z M 438.5 50.4 C 438.4 50.3 438.4 50.3 438.5 50.4 C 438.5 50.4 438.5 50.4 438.5 50.4 Z M 434.5 51.8 C 434.5 51.8 434.5 51.8 434.5 51.8 C 434.5 51.8 434.5 51.8 434.5 51.8 Z M 439.5 51.9 C 439.5 51.8 439.5 51.8 439.5 51.9 C 439.5 51.9 439.5 51.9 439.5 51.9 Z M 414.3 39.8 C 414.3 39.8 414.3 39.8 414.3 39.8 C 414.3 39.8 414.3 39.8 414.3 39.8 Z M 415.7 37.2 C 415.6 37.3 415.6 37.3 415.7 37.2 C 415.7 37.2 415.7 37.2 415.7 37.2 Z M 438.1 46.6 C 438.8 46.1 439.2 47.7 438.1 46.6 M 433.1 45.8 C 433.0 45.8 433.0 45.8 433.1 45.8 C 433.1 45.8 433.1 45.8 433.1 45.8 Z M 446.6 46.6 C 447.4 47.7 444.2 46.4 446.6 46.6 C 446.6 46.6 446.6 46.6 446.6 46.6 Z M 444.3 51.9 C 444.4 51.9 444.4 51.9 444.3 51.9 C 444.3 51.9 444.3 51.9 444.3 51.9 Z M 445.8 51.2 C 445.9 51.3 445.9 51.3 445.8 51.2 C 445.8 51.2 445.8 51.2 445.8 51.2 Z M 452.7 46.3 C 452.8 46.4 452.8 46.4 452.7 46.3 M 432.8 44.6 C 433.3 45.3 433.2 45.2 432.8 44.6 M 448.2 46.4 C 448.2 46.4 448.2 46.4 448.2 46.4 C 448.2 46.4 448.2 46.4 448.2 46.4 Z M 454.0 45.1 C 453.9 45.2 453.9 45.2 454.0 45.1 C 454.0 45.1 454.0 45.1 454.0 45.1 Z M 429.2 43.8 C 428.7 45.2 428.2 44.5 429.2 43.8 M 419.6 38.5 C 419.6 38.6 419.6 38.6 419.6 38.5 C 419.6 38.5 419.6 38.5 419.6 38.5 Z M 461.1 40.5 C 457.8 40.6 458.8 42.5 458.8 42.5 C 457.7 39.7 457.0 44.7 457.8 45.0 C 457.9 45.4 462.5 48.9 462.8 45.2 C 463.1 44.5 463.9 45.1 464.3 45.0 C 467.5 43.0 461.3 44.9 465.2 42.6 C 466.1 42.5 466.6 45.1 468.0 42.3 C 468.2 42.4 471.3 41.5 469.7 41.2 C 471.6 41.4 471.6 39.7 472.6 38.7 C 474.0 38.6 472.7 40.8 475.7 37.3 C 478.4 38.0 477.1 34.6 479.6 35.7 C 480.6 35.2 480.1 31.2 479.0 34.3 C 479.2 33.9 477.0 33.1 480.3 32.0 C 480.1 32.6 480.3 36.7 484.0 32.7 C 484.8 32.4 486.2 30.7 486.7 30.9 C 484.5 32.4 490.6 31.1 489.6 30.3 C 493.6 29.6 491.0 28.7 494.0 29.3 C 496.2 28.8 492.9 27.7 495.9 28.2 C 498.0 27.6 496.7 28.8 496.5 28.8 C 498.3 28.7 498.9 28.0 499.6 28.0 C 500.1 28.2 501.0 29.0 501.5 28.0 C 503.6 26.4 501.7 24.6 502.9 23.0 C 501.1 22.0 502.1 24.2 500.9 22.9 C 500.0 24.0 500.5 22.5 496.0 23.4 C 496.1 23.7 497.3 24.2 496.3 24.5 C 494.5 24.6 495.1 21.5 492.7 24.2 C 496.2 24.0 488.5 26.3 491.6 26.1 C 488.0 27.4 490.5 26.0 487.6 26.4 C 488.5 28.2 486.6 24.6 486.2 26.4 C 485.7 25.8 481.8 27.9 485.1 27.7 C 481.2 30.0 483.3 27.8 481.4 27.7 C 479.4 28.6 482.7 30.6 480.4 29.1 C 477.4 29.5 480.9 30.1 478.2 29.5 C 479.8 30.5 476.4 30.6 478.0 31.7 C 474.0 34.3 477.5 29.8 475.3 32.6 C 476.2 32.1 474.6 30.2 473.7 32.7 C 475.9 34.6 470.0 31.9 473.3 34.4 C 468.3 38.8 471.5 33.7 468.5 35.6 C 467.7 36.1 470.0 36.1 469.3 36.6 C 465.1 38.6 467.8 35.7 466.8 38.6 C 463.2 41.4 464.8 37.9 462.9 39.0 C 463.2 39.8 462.4 42.0 461.1 40.5 M 464.9 39.2 C 465.4 38.3 465.8 39.5 464.9 39.2 M 456.8 42.8 C 457.3 41.9 457.5 43.1 456.8 42.8 M 467.8 36.8 C 468.6 35.6 468.7 37.4 467.8 36.8 M 490.1 25.8 C 488.5 26.3 490.7 25.1 490.1 25.8 M 459.8 41.1 C 460.6 39.8 460.6 41.8 459.8 41.1 M 459.1 43.2 C 459.2 43.1 459.2 43.1 459.1 43.2 M 492.1 23.7 C 492.2 23.7 492.2 23.7 492.1 23.7 M 485.6 25.8 C 487.0 25.3 485.0 26.5 485.6 25.8 M 487.8 31.7 C 489.1 31.2 487.3 32.3 487.8 31.7 M 495.8 22.8 C 497.2 22.1 496.3 23.5 495.8 22.8 M 499.8 23.9 C 501.2 23.3 500.8 24.5 499.8 23.9 M 465.4 41.5 C 465.4 41.6 465.4 41.6 465.4 41.5 C 465.4 41.5 465.4 41.5 465.4 41.5 Z M 476.5 36.3 C 475.0 36.6 478.4 36.1 476.5 36.3 M 472.4 34.1 C 473.9 34.6 470.8 35.0 472.4 34.1 C 472.4 34.1 472.4 34.1 472.4 34.1 Z M 470.9 35.7 C 470.9 35.8 470.9 35.8 470.9 35.7 C 470.9 35.7 470.9 35.7 470.9 35.7 Z M 476.8 32.1 C 476.8 32.1 476.8 32.1 476.8 32.1 C 476.8 32.1 476.8 32.1 476.8 32.1 Z M 475.7 32.9 C 475.3 33.5 474.8 33.1 475.7 32.9 C 475.7 32.9 475.7 32.9 475.7 32.9 Z M 486.1 31.8 C 485.8 32.2 485.4 31.8 486.1 31.8 C 486.1 31.8 486.1 31.8 486.1 31.8 Z M 474.0 34.5 C 474.6 35.6 472.8 34.3 474.0 34.5 C 474.0 34.5 474.0 34.5 474.0 34.5 Z M 481.9 33.3 C 482.2 32.7 483.5 33.8 481.9 33.3 M 493.5 23.5 C 494.1 23.1 495.1 24.5 493.5 23.5 M 479.6 28.7 C 480.0 28.1 481.3 29.1 479.6 28.7 M 465.3 38.4 C 465.5 38.4 465.5 38.4 465.3 38.4 M 475.1 38.7 C 475.6 37.8 475.8 38.9 475.1 38.7 M 463.1 45.6 C 463.7 44.7 463.8 45.9 463.1 45.6 M 493.0 29.7 C 492.9 29.4 494.3 29.5 493.0 29.7 M 482.1 29.6 C 483.3 29.2 484.7 29.2 482.3 30.4 C 482.1 30.2 482.7 29.6 482.1 29.6 C 482.1 29.6 482.1 29.6 482.1 29.6 Z M 487.3 30.4 C 487.5 30.4 487.5 30.4 487.3 30.4 M 483.6 27.6 C 483.8 27.6 483.8 27.6 483.6 27.6 M 490.6 24.9 C 490.8 25.1 490.8 25.1 490.6 24.9 M 491.4 24.3 C 491.4 24.4 491.4 24.4 491.4 24.3 C 491.4 24.3 491.4 24.3 491.4 24.3 Z M 499.8 22.5 C 499.8 22.6 499.8 22.6 499.8 22.5 C 499.8 22.5 499.8 22.5 499.8 22.5 Z M 488.4 25.9 C 488.4 25.9 488.4 25.9 488.4 25.9 C 488.4 25.9 488.4 25.9 488.4 25.9 Z M 495.8 28.9 C 495.8 28.9 495.8 28.9 495.8 28.9 C 495.8 28.9 495.8 28.9 495.8 28.9 Z M 494.9 28.2 C 494.9 28.3 494.9 28.3 494.9 28.2 C 494.9 28.2 494.9 28.2 494.9 28.2 Z M 461.6 40.2 C 462.1 38.9 463.2 41.8 461.6 40.2 M 498.1 27.8 C 499.2 28.6 496.4 28.1 498.1 27.8 C 498.1 27.8 498.1 27.8 498.1 27.8 Z M 487.9 27.2 C 488.1 27.3 488.1 27.3 487.9 27.2 M 491.9 24.3 C 492.1 24.5 492.1 24.5 491.9 24.3 M 471.7 33.1 C 471.9 33.2 471.9 33.2 471.7 33.1 M 497.8 23.5 C 501.4 23.5 496.3 25.5 497.8 23.5 M 471.0 35.0 C 470.9 35.0 470.9 35.0 471.0 35.0 M 478.9 32.9 C 480.9 31.7 478.6 33.9 478.9 32.9 M 483.3 28.7 C 483.3 28.8 483.3 28.8 483.3 28.7 C 483.3 28.7 483.3 28.7 483.3 28.7 Z M 480.3 30.3 C 478.9 31.3 479.7 30.2 480.3 30.3 C 480.3 30.3 480.3 30.3 480.3 30.3 Z M 463.6 40.4 C 465.5 39.4 461.9 41.9 463.6 40.4 C 463.6 40.4 463.6 40.4 463.6 40.4 Z M 496.5 26.7 C 496.5 26.8 496.5 26.8 496.5 26.7 C 496.5 26.7 496.5 26.7 496.5 26.7 Z M 487.7 25.2 C 486.8 25.8 487.1 25.0 487.7 25.2 C 487.7 25.2 487.7 25.2 487.7 25.2 Z M 501.2 22.5 C 500.1 22.8 500.7 22.1 501.2 22.5 C 501.2 22.5 501.2 22.5 501.2 22.5 Z M 461.2 41.5 C 469.0 39.5 451.9 46.1 461.2 41.5 C 461.2 41.5 461.2 41.5 461.2 41.5 Z M 481.1 28.9 C 481.1 29.0 481.1 29.0 481.1 28.9 C 481.1 28.9 481.1 28.9 481.1 28.9 Z M 467.8 35.9 C 467.8 36.0 467.8 36.0 467.8 35.9 C 467.8 35.9 467.8 35.9 467.8 35.9 Z M 466.3 38.2 C 466.3 38.3 466.3 38.3 466.3 38.2 C 466.3 38.2 466.3 38.2 466.3 38.2 Z M 469.6 42.1 C 469.6 42.1 469.6 42.1 469.6 42.1 C 469.6 42.1 469.6 42.1 469.6 42.1 Z M 469.1 39.7 C 469.1 39.9 469.1 39.9 469.1 39.7 C 469.1 39.7 469.1 39.7 469.1 39.7 Z M 465.1 43.2 C 465.1 43.3 465.1 43.3 465.1 43.2 C 465.1 43.2 465.1 43.2 465.1 43.2 Z M 465.6 43.7 C 465.6 43.7 465.6 43.7 465.6 43.7 C 465.6 43.7 465.6 43.7 465.6 43.7 Z M 492.3 25.7 C 492.2 25.8 492.2 25.8 492.3 25.7 C 492.3 25.7 492.3 25.7 492.3 25.7 Z M 490.3 28.4 C 491.7 27.2 490.2 29.6 490.3 28.4 C 490.3 28.4 490.3 28.4 490.3 28.4 Z M 475.5 34.8 C 476.8 33.7 474.9 35.9 475.5 34.8 C 475.5 34.8 475.5 34.8 475.5 34.8 Z M 478.5 36.1 C 478.5 36.1 478.5 36.1 478.5 36.1 C 478.5 36.1 478.5 36.1 478.5 36.1 Z M 465.7 37.2 C 465.7 37.4 465.7 37.4 465.7 37.2 C 465.7 37.2 465.7 37.2 465.7 37.2 Z M 463.5 39.6 C 463.9 40.5 462.4 39.6 463.5 39.6 M 476.7 30.6 C 476.8 30.7 476.8 30.7 476.7 30.6 C 476.7 30.6 476.7 30.6 476.7 30.6 Z M 486.5 27.4 C 486.5 27.5 486.5 27.5 486.5 27.4 C 486.5 27.4 486.5 27.4 486.5 27.4 Z M 495.9 24.0 C 495.9 24.1 495.9 24.1 495.9 24.0 C 495.9 24.0 495.9 24.0 495.9 24.0 Z M 482.4 27.6 C 482.4 27.8 482.4 27.8 482.4 27.6 C 482.4 27.6 482.4 27.6 482.4 27.6 Z M 478.6 30.7 C 478.6 30.9 478.6 30.9 478.6 30.7 C 478.6 30.7 478.6 30.7 478.6 30.7 Z M 498.3 25.2 C 498.2 25.3 498.2 25.3 498.3 25.2 C 498.3 25.2 498.3 25.2 498.3 25.2 Z M 483.3 27.0 C 483.3 27.0 483.3 27.0 483.3 27.0 C 483.3 27.0 483.3 27.0 483.3 27.0 Z M 487.3 28.8 C 487.3 29.0 487.3 29.0 487.3 28.8 C 487.3 28.8 487.3 28.8 487.3 28.8 Z M 463.1 38.1 C 463.1 38.1 463.1 38.1 463.1 38.1 C 463.1 38.1 463.1 38.1 463.1 38.1 Z M 498.3 23.8 C 498.2 23.8 498.2 23.8 498.3 23.8 C 498.3 23.8 498.3 23.8 498.3 23.8 Z M 498.9 22.8 C 498.8 22.9 498.8 22.9 498.9 22.8 C 498.9 22.8 498.9 22.8 498.9 22.8 Z M 492.8 28.8 C 489.6 29.1 495.6 27.9 493.0 27.4 C 497.6 25.9 493.5 28.7 492.8 28.8 C 492.8 28.8 492.8 28.8 492.8 28.8 Z M 504.2 22.5 C 501.9 23.7 502.0 25.2 502.7 26.7 C 503.6 27.4 503.8 24.6 503.7 27.0 C 501.4 27.3 504.2 30.7 504.5 27.6 C 507.4 27.5 504.7 29.6 506.5 28.6 C 509.4 28.9 507.7 29.5 509.9 29.9 C 511.6 28.7 510.8 31.1 511.9 29.8 C 510.2 31.0 514.2 30.2 514.0 31.0 C 511.7 31.1 520.6 34.6 516.3 31.6 C 518.5 32.0 517.4 33.0 517.9 33.6 C 519.2 33.3 520.0 36.2 521.7 36.3 C 521.6 36.0 521.2 35.5 521.3 35.1 C 521.4 34.4 522.3 36.2 522.2 36.0 C 523.0 36.3 526.2 37.9 522.3 36.8 C 521.6 37.2 524.6 38.6 524.0 39.0 C 526.0 41.4 525.8 38.6 525.6 40.4 C 527.0 42.2 527.7 43.6 527.9 43.5 C 528.4 44.8 527.7 45.4 529.0 46.1 C 528.5 49.4 533.1 46.7 530.1 48.9 C 531.1 49.3 529.1 50.8 531.2 50.0 C 530.0 49.4 530.7 55.0 531.7 52.3 C 532.4 52.8 530.1 56.7 532.3 56.0 C 534.0 57.1 535.8 56.9 536.9 53.5 C 535.6 54.0 537.6 49.9 535.8 52.6 C 535.6 55.5 533.8 48.0 535.1 49.4 C 537.7 49.0 532.4 46.5 533.4 44.3 C 533.0 45.9 529.8 40.7 532.4 41.3 C 531.9 40.2 531.0 40.5 531.3 38.8 C 533.2 42.1 528.8 38.8 529.9 38.3 C 530.8 38.4 527.7 33.6 527.3 34.8 C 526.6 38.1 526.7 33.3 525.3 33.5 C 522.7 31.8 527.2 32.0 524.2 32.0 C 523.9 31.4 520.7 28.8 523.1 30.0 C 523.7 30.8 519.4 31.0 520.3 28.9 C 524.7 30.2 516.2 25.7 517.2 27.1 C 522.7 31.3 510.1 25.4 515.5 26.4 C 513.2 24.0 516.5 26.1 512.8 25.4 C 513.0 26.2 510.0 26.0 511.1 24.8 C 511.2 22.5 509.6 27.3 507.8 23.9 C 507.7 22.6 502.9 24.2 504.8 23.0 C 505.0 22.8 504.3 22.5 504.2 22.5 M 505.6 22.9 C 505.0 23.3 504.8 22.2 505.6 22.9 M 505.0 23.3 C 504.9 23.3 504.9 23.3 505.0 23.3 C 505.0 23.3 505.0 23.3 505.0 23.3 Z M 512.2 25.3 C 512.2 25.2 512.2 25.2 512.2 25.3 C 512.2 25.3 512.2 25.3 512.2 25.3 Z M 514.9 32.4 C 514.9 32.4 514.9 32.4 514.9 32.4 C 514.9 32.4 514.9 32.4 514.9 32.4 Z M 516.6 27.2 C 516.6 27.2 516.6 27.2 516.6 27.2 C 516.6 27.2 516.6 27.2 516.6 27.2 Z M 509.6 24.9 C 509.5 24.9 509.5 24.9 509.6 24.9 C 509.6 24.9 509.6 24.9 509.6 24.9 Z M 516.6 26.3 C 516.6 27.2 515.3 25.0 516.7 26.2 C 516.8 26.3 516.5 26.2 516.6 26.3 M 522.3 29.3 C 522.2 29.4 522.2 29.4 522.3 29.3 M 526.3 42.9 C 526.3 43.0 526.3 43.0 526.3 42.9 M 532.5 40.4 C 532.5 40.6 532.5 40.6 532.5 40.4 M 526.4 34.0 C 527.9 35.3 526.5 34.7 526.4 34.0 M 534.4 45.2 C 533.9 42.7 535.8 47.4 534.4 45.2 M 535.7 47.2 C 535.7 47.5 535.7 47.5 535.7 47.2 M 530.3 37.6 C 530.2 37.6 530.2 37.6 530.3 37.6 C 530.3 37.6 530.3 37.6 530.3 37.6 Z M 526.1 33.2 C 524.6 31.1 528.5 34.4 526.1 33.2 M 513.3 24.8 C 514.8 24.9 512.9 25.8 513.3 24.8 M 510.3 24.4 C 510.3 24.4 510.3 24.4 510.3 24.4 C 510.3 24.4 510.3 24.4 510.3 24.4 Z M 532.7 41.6 C 532.7 41.6 532.7 41.6 532.7 41.6 C 532.7 41.6 532.7 41.6 532.7 41.6 Z M 534.1 44.1 C 534.1 44.0 534.1 44.0 534.1 44.1 C 534.1 44.1 534.1 44.1 534.1 44.1 Z M 530.0 50.3 C 529.9 50.2 529.9 50.2 530.0 50.3 C 530.0 50.3 530.0 50.3 530.0 50.3 Z M 511.6 27.4 C 510.1 26.4 514.0 26.2 513.2 27.4 C 513.1 28.1 511.9 27.3 511.6 27.4 M 523.6 33.3 C 522.5 35.2 524.1 30.1 523.6 33.3 M 534.5 48.0 C 532.7 50.5 535.4 45.2 534.5 48.0 M 535.9 51.5 C 535.7 52.7 533.9 44.7 536.0 50.1 C 536.5 50.6 536.1 51.1 535.9 51.5 M 521.7 30.2 C 521.5 31.4 519.6 28.0 521.7 30.2 M 527.0 40.2 C 528.0 40.4 529.8 41.9 528.2 41.8 C 526.8 42.6 525.9 39.8 527.0 40.2 M 506.0 24.2 C 507.9 22.6 505.8 25.7 506.0 24.2 M 513.2 26.2 C 513.2 26.1 513.2 26.1 513.2 26.2 C 513.2 26.2 513.2 26.2 513.2 26.2 Z M 515.9 27.0 C 516.0 27.2 516.0 27.2 515.9 27.0 M 507.5 22.8 C 507.7 22.9 507.7 22.9 507.5 22.8 M 528.5 39.1 C 528.5 39.2 528.5 39.2 528.5 39.1 M 525.7 34.0 C 526.4 37.2 524.4 33.2 525.7 34.0 M 518.6 32.6 C 518.7 33.7 517.2 31.8 518.6 32.6 M 529.3 36.9 C 529.1 39.5 526.3 35.8 529.3 36.9 M 524.9 32.9 C 525.0 33.0 525.0 33.0 524.9 32.9 C 524.9 32.9 524.9 32.9 524.9 32.9 Z M 527.2 40.9 C 527.2 40.8 527.2 40.8 527.2 40.9 C 527.2 40.9 527.2 40.9 527.2 40.9 Z M 527.7 41.4 C 527.6 41.4 527.6 41.4 527.7 41.4 C 527.7 41.4 527.7 41.4 527.7 41.4 Z M 530.9 38.8 C 530.8 38.7 530.8 38.7 530.9 38.8 C 530.9 38.8 530.9 38.8 530.9 38.8 Z M 508.9 28.9 C 510.6 29.5 507.5 28.8 508.9 28.9 C 508.9 28.9 508.9 28.9 508.9 28.9 Z M 518.6 27.4 C 520.9 30.2 516.0 27.4 518.6 27.4 C 518.6 27.4 518.6 27.4 518.6 27.4 Z M 520.5 31.3 C 520.5 31.4 520.5 31.4 520.5 31.3 C 520.5 31.3 520.5 31.3 520.5 31.3 Z M 529.3 35.3 C 529.2 35.3 529.2 35.3 529.3 35.3 C 529.3 35.3 529.3 35.3 529.3 35.3 Z M 509.7 29.4 C 509.7 29.5 509.7 29.5 509.7 29.4 C 509.7 29.4 509.7 29.4 509.7 29.4 Z M 532.8 44.1 C 532.8 44.2 532.8 44.2 532.8 44.1 C 532.8 44.1 532.8 44.1 532.8 44.1 Z M 524.0 37.3 C 524.9 37.3 523.7 37.8 524.0 37.3 C 524.0 37.3 524.0 37.3 524.0 37.3 Z M 525.7 39.3 C 525.8 39.4 525.8 39.4 525.7 39.3 C 525.7 39.3 525.7 39.3 525.7 39.3 Z M 536.0 47.9 C 536.1 48.0 536.1 48.0 536.0 47.9 C 536.0 47.9 536.0 47.9 536.0 47.9 Z M 527.8 45.7 C 527.9 45.7 527.9 45.7 527.8 45.7 C 527.8 45.7 527.8 45.7 527.8 45.7 Z M 530.6 46.8 C 530.5 46.7 530.5 46.7 530.6 46.8 C 530.6 46.8 530.6 46.8 530.6 46.8 Z M 530.2 38.6 C 532.2 40.8 529.2 38.5 530.2 38.6 C 530.2 38.6 530.2 38.6 530.2 38.6 Z M 533.0 53.0 C 532.9 53.1 532.9 53.1 533.0 53.0 C 533.0 53.0 533.0 53.0 533.0 53.0 Z M 535.6 54.0 C 535.5 54.1 535.5 54.1 535.6 54.0 C 535.6 54.0 535.6 54.0 535.6 54.0 Z M 537.0 54.6 C 536.9 54.7 536.9 54.7 537.0 54.6 C 537.0 54.6 537.0 54.6 537.0 54.6 Z M 514.8 29.3 C 514.8 29.2 514.8 29.2 514.8 29.3 C 514.8 29.3 514.8 29.3 514.8 29.3 Z M 515.3 25.3 C 515.3 25.3 515.3 25.3 515.3 25.3 C 515.3 25.3 515.3 25.3 515.3 25.3 Z M 519.2 27.0 C 519.1 27.0 519.1 27.0 519.2 27.0 C 519.2 27.0 519.2 27.0 519.2 27.0 Z M 513.3 31.1 C 513.2 31.1 513.2 31.1 513.3 31.1 C 513.3 31.1 513.3 31.1 513.3 31.1 Z M 526.0 36.5 C 526.0 36.4 526.0 36.4 526.0 36.5 C 526.0 36.5 526.0 36.5 526.0 36.5 Z M 525.7 38.5 C 525.7 38.4 525.7 38.4 525.7 38.5 C 525.7 38.5 525.7 38.5 525.7 38.5 Z M 522.1 37.6 C 522.2 37.6 522.2 37.6 522.1 37.6 C 522.1 37.6 522.1 37.6 522.1 37.6 Z M 525.3 40.0 C 525.3 40.0 525.3 40.0 525.3 40.0 C 525.3 40.0 525.3 40.0 525.3 40.0 Z M 504.8 28.0 C 504.8 28.1 504.8 28.1 504.8 28.0 C 504.8 28.0 504.8 28.0 504.8 28.0 Z M 504.9 25.1 C 504.8 25.2 504.8 25.2 504.9 25.1 C 504.9 25.1 504.9 25.1 504.9 25.1 Z M 527.9 35.4 C 528.8 35.5 528.2 37.0 527.9 35.4 M 523.6 31.7 C 523.5 31.7 523.5 31.7 523.6 31.7 C 523.6 31.7 523.6 31.7 523.6 31.7 Z M 533.1 43.4 C 532.4 44.6 532.5 40.7 533.1 43.4 C 533.1 43.4 533.1 43.4 533.1 43.4 Z M 527.5 43.3 C 527.5 43.3 527.5 43.3 527.5 43.3 C 527.5 43.3 527.5 43.3 527.5 43.3 Z M 528.6 44.2 C 528.5 44.3 528.5 44.3 528.6 44.2 C 528.6 44.2 528.6 44.2 528.6 44.2 Z M 534.3 50.1 C 534.3 50.3 534.3 50.3 534.3 50.1 M 523.7 30.4 C 524.0 31.4 524.0 31.2 523.7 30.4 M 533.9 45.2 C 533.8 45.1 533.8 45.1 533.9 45.2 C 533.9 45.2 533.9 45.2 533.9 45.2 Z M 535.4 51.7 C 535.4 51.6 535.4 51.6 535.4 51.7 C 535.4 51.7 535.4 51.7 535.4 51.7 Z M 519.8 28.7 C 519.2 29.9 518.7 29.2 519.8 28.7 M 509.0 24.6 C 509.0 24.7 509.0 24.7 509.0 24.6 C 509.0 24.6 509.0 24.6 509.0 24.6 Z M 509.0 24.6 " fill="#FF7777"></path></g></svg>