<?xml version="1.0" encoding="UTF-8" standalone="no"?><svg xmlns="http://www.w3.org/2000/svg" xmlns:xlink="http://www.w3.org/1999/xlink" clip-rule="evenodd" stroke-miterlimit="4.00" viewBox="0 0 1024 768"><desc>SVG generated by Keynote</desc><defs></defs><g transform="matrix(1.00, 0.00, -0.00, -1.00, 0.0, 768.0)"><g><clipPath id="clip-116"><path d="M 0.0 768.0 L 1024.0 768.0 L 1024.0 0.0 L 0.0 0.0 Z M 0.0 768.0 "></path></clipPath><g clip-path="url(#clip-116)"><image xlink:href="../../86BB661C-AAFE-46F2-89B5-B98D6D644DD8/assets/DE78B55DDE70D88C6FF874E8D33A46A3.jpeg" width="1024.00" height="768.00" transform="matrix(1.00, 0.00, -0.00, -1.00, 0.0, 768.0)"></image></g></g><image xlink:href="../../86BB661C-AAFE-46F2-89B5-B98D6D644DD8/assets/610DE41026624E3AEF638D24E71EF355.png" width="74.00" height="62.00" transform="matrix(1.00, 0.00, -0.00, -1.00, 949.0, 64.0)"></image><image xlink:href="../../86BB661C-AAFE-46F2-89B5-B98D6D644DD8/assets/C79B4846A618BF06956E5E1178655E37.png" width="40.00" height="40.00" transform="matrix(1.00, 0.00, -0.00, -1.01, 966.2, 53.0)" opacity="0.50"></image><g><clipPath id="clip-117"><path d="M 996.7 43.5 C 1002.5 37.6 1002.5 28.0 996.7 22.0 C 990.9 16.1 981.4 16.1 975.6 22.0 C 969.7 28.0 969.7 37.6 975.6 43.5 C 981.4 49.5 990.9 49.5 996.7 43.5 Z M 996.7 43.5 "></path></clipPath><g clip-path="url(#clip-117)"><image xlink:href="../../86BB661C-AAFE-46F2-89B5-B98D6D644DD8/assets/DE78B55DDE70D88C6FF874E8D33A46A3.jpeg" width="1024.00" height="768.00" transform="matrix(0.04, 0.00, -0.00, -0.04, 965.9, 48.0)"></image></g></g><text xml:space="preserve" font-family="HoboStd" font-size="18.0" fill="#E5CC77" transform="matrix(1.00, 0.00, -0.00, -1.00, 976.0, 26.0)">2</text><text xml:space="preserve" font-family="HoboStd" font-size="18.0" fill="#E5CC77" transform="matrix(1.00, 0.00, -0.00, -1.00, 986.4, 26.0)">2</text><path d="M 17.3 574.6 L 1006.7 574.6 L 1006.7 153.1 L 17.3 153.1 Z M 17.3 574.6 " fill="#FEFFFE"></path><image xlink:href="../../963CEC35-FCE8-4BAB-AC0A-B40CFB0A1C3C/assets/4E705C77D3CF26EDE400D44374334438.png" width="1033.00" height="471.00" transform="matrix(1.00, 0.00, -0.00, 1.00, -4.7, 129.1)"></image><g><clipPath id="clip-118"><path d="M 16.5 154.1 L 1007.5 154.1 L 1007.5 573.6 L 16.5 573.6 Z M 16.5 154.1 "></path></clipPath><g clip-path="url(#clip-118)"><text xml:space="preserve" font-family="Courier-Bold" font-weight="bold" font-size="23.0" fill="#008E00" transform="matrix(1.00, 0.00, -0.00, -1.00, 52.0, 509.0)">w</text><text xml:space="preserve" font-family="Courier-Bold" font-weight="bold" font-size="23.0" fill="#008E00" transform="matrix(1.00, 0.00, -0.00, -1.00, 65.8, 509.0)">i</text><text xml:space="preserve" font-family="Courier-Bold" font-weight="bold" font-size="23.0" fill="#008E00" transform="matrix(1.00, 0.00, -0.00, -1.00, 79.6, 509.0)">t</text><text xml:space="preserve" font-family="Courier-Bold" font-weight="bold" font-size="23.0" fill="#008E00" transform="matrix(1.00, 0.00, -0.00, -1.00, 93.4, 509.0)">h</text><text xml:space="preserve" font-family="Courier" font-size="23.0" fill="#000000" transform="matrix(1.00, 0.00, -0.00, -1.00, 107.2, 509.0)"> </text><text xml:space="preserve" font-family="Courier" font-size="23.0" fill="#008E00" transform="matrix(1.00, 0.00, -0.00, -1.00, 121.0, 509.0)">o</text><text xml:space="preserve" font-family="Courier" font-size="23.0" fill="#008E00" transform="matrix(1.00, 0.00, -0.00, -1.00, 134.8, 509.0)">p</text><text xml:space="preserve" font-family="Courier" font-size="23.0" fill="#008E00" transform="matrix(1.00, 0.00, -0.00, -1.00, 148.6, 509.0)">e</text><text xml:space="preserve" font-family="Courier" font-size="23.0" fill="#008E00" transform="matrix(1.00, 0.00, -0.00, -1.00, 162.4, 509.0)">n</text><text xml:space="preserve" font-family="Courier" font-size="23.0" fill="#000000" transform="matrix(1.00, 0.00, -0.00, -1.00, 176.2, 509.0)">(</text><text xml:space="preserve" font-family="Courier" font-size="23.0" fill="#C8352B" transform="matrix(1.00, 0.00, -0.00, -1.00, 190.0, 509.0)">'</text><text xml:space="preserve" font-family="Courier" font-size="23.0" fill="#C8352B" transform="matrix(1.00, 0.00, -0.00, -1.00, 203.8, 509.0)">a</text><text xml:space="preserve" font-family="Courier" font-size="23.0" fill="#C8352B" transform="matrix(1.00, 0.00, -0.00, -1.00, 217.6, 509.0)">'</text><text xml:space="preserve" font-family="Courier" font-size="23.0" fill="#000000" transform="matrix(1.00, 0.00, -0.00, -1.00, 231.4, 509.0)">,</text><text xml:space="preserve" font-family="Courier" font-size="23.0" fill="#000000" transform="matrix(1.00, 0.00, -0.00, -1.00, 245.2, 509.0)"> </text><text xml:space="preserve" font-family="Courier" font-size="23.0" fill="#C8352B" transform="matrix(1.00, 0.00, -0.00, -1.00, 259.0, 509.0)">'</text><text xml:space="preserve" font-family="Courier" font-size="23.0" fill="#C8352B" transform="matrix(1.00, 0.00, -0.00, -1.00, 272.8, 509.0)">r</text><text xml:space="preserve" font-family="Courier" font-size="23.0" fill="#C8352B" transform="matrix(1.00, 0.00, -0.00, -1.00, 286.6, 509.0)">'</text><text xml:space="preserve" font-family="Courier" font-size="23.0" fill="#000000" transform="matrix(1.00, 0.00, -0.00, -1.00, 300.4, 509.0)">)</text><text xml:space="preserve" font-family="Courier" font-size="23.0" fill="#000000" transform="matrix(1.00, 0.00, -0.00, -1.00, 314.2, 509.0)"> </text><text xml:space="preserve" font-family="Courier-Bold" font-weight="bold" font-size="23.0" fill="#008E00" transform="matrix(1.00, 0.00, -0.00, -1.00, 328.0, 509.0)">a</text><text xml:space="preserve" font-family="Courier-Bold" font-weight="bold" font-size="23.0" fill="#008E00" transform="matrix(1.00, 0.00, -0.00, -1.00, 341.8, 509.0)">s</text><text xml:space="preserve" font-family="Courier" font-size="23.0" fill="#000000" transform="matrix(1.00, 0.00, -0.00, -1.00, 355.6, 509.0)"> </text><text xml:space="preserve" font-family="Courier" font-size="23.0" fill="#000000" transform="matrix(1.00, 0.00, -0.00, -1.00, 369.5, 509.0)">f</text><text xml:space="preserve" font-family="Courier" font-size="23.0" fill="#000000" transform="matrix(1.00, 0.00, -0.00, -1.00, 383.3, 509.0)">_</text><text xml:space="preserve" font-family="Courier" font-size="23.0" fill="#000000" transform="matrix(1.00, 0.00, -0.00, -1.00, 397.1, 509.0)">i</text><text xml:space="preserve" font-family="Courier" font-size="23.0" fill="#000000" transform="matrix(1.00, 0.00, -0.00, -1.00, 410.9, 509.0)">n</text><text xml:space="preserve" font-family="Courier" font-size="23.0" fill="#000000" transform="matrix(1.00, 0.00, -0.00, -1.00, 424.7, 509.0)">p</text><text xml:space="preserve" font-family="Courier" font-size="23.0" fill="#000000" transform="matrix(1.00, 0.00, -0.00, -1.00, 438.5, 509.0)">u</text><text xml:space="preserve" font-family="Courier" font-size="23.0" fill="#000000" transform="matrix(1.00, 0.00, -0.00, -1.00, 452.3, 509.0)">t</text><text xml:space="preserve" font-family="Courier" font-size="23.0" fill="#000000" transform="matrix(1.00, 0.00, -0.00, -1.00, 466.1, 509.0)">,</text><text xml:space="preserve" font-family="Courier" font-size="23.0" fill="#000000" transform="matrix(1.00, 0.00, -0.00, -1.00, 479.9, 509.0)"> </text><text xml:space="preserve" font-family="Courier" font-size="23.0" fill="#008E00" transform="matrix(1.00, 0.00, -0.00, -1.00, 493.7, 509.0)">o</text><text xml:space="preserve" font-family="Courier" font-size="23.0" fill="#008E00" transform="matrix(1.00, 0.00, -0.00, -1.00, 507.5, 509.0)">p</text><text xml:space="preserve" font-family="Courier" font-size="23.0" fill="#008E00" transform="matrix(1.00, 0.00, -0.00, -1.00, 521.3, 509.0)">e</text><text xml:space="preserve" font-family="Courier" font-size="23.0" fill="#008E00" transform="matrix(1.00, 0.00, -0.00, -1.00, 535.1, 509.0)">n</text><text xml:space="preserve" font-family="Courier" font-size="23.0" fill="#000000" transform="matrix(1.00, 0.00, -0.00, -1.00, 548.9, 509.0)">(</text><text xml:space="preserve" font-family="Courier" font-size="23.0" fill="#C8352B" transform="matrix(1.00, 0.00, -0.00, -1.00, 562.7, 509.0)">'</text><text xml:space="preserve" font-family="Courier" font-size="23.0" fill="#C8352B" transform="matrix(1.00, 0.00, -0.00, -1.00, 576.5, 509.0)">b</text><text xml:space="preserve" font-family="Courier" font-size="23.0" fill="#C8352B" transform="matrix(1.00, 0.00, -0.00, -1.00, 590.3, 509.0)">'</text><text xml:space="preserve" font-family="Courier" font-size="23.0" fill="#000000" transform="matrix(1.00, 0.00, -0.00, -1.00, 604.1, 509.0)">,</text><text xml:space="preserve" font-family="Courier" font-size="23.0" fill="#000000" transform="matrix(1.00, 0.00, -0.00, -1.00, 617.9, 509.0)"> </text><text xml:space="preserve" font-family="Courier" font-size="23.0" fill="#C8352B" transform="matrix(1.00, 0.00, -0.00, -1.00, 631.7, 509.0)">'</text><text xml:space="preserve" font-family="Courier" font-size="23.0" fill="#C8352B" transform="matrix(1.00, 0.00, -0.00, -1.00, 645.5, 509.0)">w</text><text xml:space="preserve" font-family="Courier" font-size="23.0" fill="#C8352B" transform="matrix(1.00, 0.00, -0.00, -1.00, 659.3, 509.0)">'</text><text xml:space="preserve" font-family="Courier" font-size="23.0" fill="#000000" transform="matrix(1.00, 0.00, -0.00, -1.00, 673.1, 509.0)">)</text><text xml:space="preserve" font-family="Courier" font-size="23.0" fill="#000000" transform="matrix(1.00, 0.00, -0.00, -1.00, 686.9, 509.0)"> </text><text xml:space="preserve" font-family="Courier-Bold" font-weight="bold" font-size="23.0" fill="#008E00" transform="matrix(1.00, 0.00, -0.00, -1.00, 700.7, 509.0)">a</text><text xml:space="preserve" font-family="Courier-Bold" font-weight="bold" font-size="23.0" fill="#008E00" transform="matrix(1.00, 0.00, -0.00, -1.00, 714.5, 509.0)">s</text><text xml:space="preserve" font-family="Courier" font-size="23.0" fill="#000000" transform="matrix(1.00, 0.00, -0.00, -1.00, 728.3, 509.0)"> </text><text xml:space="preserve" font-family="Courier" font-size="23.0" fill="#000000" transform="matrix(1.00, 0.00, -0.00, -1.00, 742.1, 509.0)">f</text><text xml:space="preserve" font-family="Courier" font-size="23.0" fill="#000000" transform="matrix(1.00, 0.00, -0.00, -1.00, 755.9, 509.0)">_</text><text xml:space="preserve" font-family="Courier" font-size="23.0" fill="#000000" transform="matrix(1.00, 0.00, -0.00, -1.00, 769.7, 509.0)">o</text><text xml:space="preserve" font-family="Courier" font-size="23.0" fill="#000000" transform="matrix(1.00, 0.00, -0.00, -1.00, 783.5, 509.0)">u</text><text xml:space="preserve" font-family="Courier" font-size="23.0" fill="#000000" transform="matrix(1.00, 0.00, -0.00, -1.00, 797.3, 509.0)">t</text><text xml:space="preserve" font-family="Courier" font-size="23.0" fill="#000000" transform="matrix(1.00, 0.00, -0.00, -1.00, 811.1, 509.0)">p</text><text xml:space="preserve" font-family="Courier" font-size="23.0" fill="#000000" transform="matrix(1.00, 0.00, -0.00, -1.00, 824.9, 509.0)">u</text><text xml:space="preserve" font-family="Courier" font-size="23.0" fill="#000000" transform="matrix(1.00, 0.00, -0.00, -1.00, 838.7, 509.0)">t</text><text xml:space="preserve" font-family="Courier" font-size="23.0" fill="#000000" transform="matrix(1.00, 0.00, -0.00, -1.00, 852.5, 509.0)">:</text><text xml:space="preserve" font-family="Courier" font-size="23.0" fill="#000000" transform="matrix(1.00, 0.00, -0.00, -1.00, 52.0, 453.0)"> </text><text xml:space="preserve" font-family="Courier" font-size="23.0" fill="#000000" transform="matrix(1.00, 0.00, -0.00, -1.00, 65.8, 453.0)"> </text><text xml:space="preserve" font-family="Courier" font-size="23.0" fill="#000000" transform="matrix(1.00, 0.00, -0.00, -1.00, 79.6, 453.0)"> </text><text xml:space="preserve" font-family="Courier" font-size="23.0" fill="#000000" transform="matrix(1.00, 0.00, -0.00, -1.00, 93.4, 453.0)"> </text><text xml:space="preserve" font-family="Courier" font-size="23.0" fill="#000000" transform="matrix(1.00, 0.00, -0.00, -1.00, 107.2, 453.0)">f</text><text xml:space="preserve" font-family="Courier" font-size="23.0" fill="#000000" transform="matrix(1.00, 0.00, -0.00, -1.00, 121.0, 453.0)">_</text><text xml:space="preserve" font-family="Courier" font-size="23.0" fill="#000000" transform="matrix(1.00, 0.00, -0.00, -1.00, 134.8, 453.0)">o</text><text xml:space="preserve" font-family="Courier" font-size="23.0" fill="#000000" transform="matrix(1.00, 0.00, -0.00, -1.00, 148.6, 453.0)">u</text><text xml:space="preserve" font-family="Courier" font-size="23.0" fill="#000000" transform="matrix(1.00, 0.00, -0.00, -1.00, 162.4, 453.0)">t</text><text xml:space="preserve" font-family="Courier" font-size="23.0" fill="#000000" transform="matrix(1.00, 0.00, -0.00, -1.00, 176.2, 453.0)">p</text><text xml:space="preserve" font-family="Courier" font-size="23.0" fill="#000000" transform="matrix(1.00, 0.00, -0.00, -1.00, 190.0, 453.0)">u</text><text xml:space="preserve" font-family="Courier" font-size="23.0" fill="#000000" transform="matrix(1.00, 0.00, -0.00, -1.00, 203.9, 453.0)">t</text><text xml:space="preserve" font-family="Courier" font-size="23.0" fill="#797979" transform="matrix(1.00, 0.00, -0.00, -1.00, 217.6, 453.0)">.</text><text xml:space="preserve" font-family="Courier" font-size="23.0" fill="#000000" transform="matrix(1.00, 0.00, -0.00, -1.00, 231.4, 453.0)">w</text><text xml:space="preserve" font-family="Courier" font-size="23.0" fill="#000000" transform="matrix(1.00, 0.00, -0.00, -1.00, 245.2, 453.0)">r</text><text xml:space="preserve" font-family="Courier" font-size="23.0" fill="#000000" transform="matrix(1.00, 0.00, -0.00, -1.00, 259.0, 453.0)">i</text><text xml:space="preserve" font-family="Courier" font-size="23.0" fill="#000000" transform="matrix(1.00, 0.00, -0.00, -1.00, 272.8, 453.0)">t</text><text xml:space="preserve" font-family="Courier" font-size="23.0" fill="#000000" transform="matrix(1.00, 0.00, -0.00, -1.00, 286.6, 453.0)">e</text><text xml:space="preserve" font-family="Courier" font-size="23.0" fill="#000000" transform="matrix(1.00, 0.00, -0.00, -1.00, 300.5, 453.0)">(</text><text xml:space="preserve" font-family="Courier" font-size="23.0" fill="#C8352B" transform="matrix(1.00, 0.00, -0.00, -1.00, 314.2, 453.0)">'</text><text xml:space="preserve" font-family="Courier" font-size="23.0" fill="#C8352B" transform="matrix(1.00, 0.00, -0.00, -1.00, 328.0, 453.0)">#</text><text xml:space="preserve" font-family="Courier" font-size="23.0" fill="#C8352B" transform="matrix(1.00, 0.00, -0.00, -1.00, 341.9, 453.0)"> </text><text xml:space="preserve" font-family="Courier" font-size="23.0" fill="#C8352B" transform="matrix(1.00, 0.00, -0.00, -1.00, 355.7, 453.0)">F</text><text xml:space="preserve" font-family="Courier" font-size="23.0" fill="#C8352B" transform="matrix(1.00, 0.00, -0.00, -1.00, 369.5, 453.0)">O</text><text xml:space="preserve" font-family="Courier" font-size="23.0" fill="#C8352B" transform="matrix(1.00, 0.00, -0.00, -1.00, 383.3, 453.0)">R</text><text xml:space="preserve" font-family="Courier" font-size="23.0" fill="#C8352B" transform="matrix(1.00, 0.00, -0.00, -1.00, 397.1, 453.0)">M</text><text xml:space="preserve" font-family="Courier" font-size="23.0" fill="#C8352B" transform="matrix(1.00, 0.00, -0.00, -1.00, 410.9, 453.0)">A</text><text xml:space="preserve" font-family="Courier" font-size="23.0" fill="#C8352B" transform="matrix(1.00, 0.00, -0.00, -1.00, 424.7, 453.0)">T</text><text xml:space="preserve" font-family="Courier" font-size="23.0" fill="#C8352B" transform="matrix(1.00, 0.00, -0.00, -1.00, 438.5, 453.0)">:</text><text xml:space="preserve" font-family="Courier-Bold" font-weight="bold" font-size="23.0" fill="#C8792C" transform="matrix(1.00, 0.00, -0.00, -1.00, 452.3, 453.0)">\</text><text xml:space="preserve" font-family="Courier-Bold" font-weight="bold" font-size="23.0" fill="#C8792C" transform="matrix(1.00, 0.00, -0.00, -1.00, 466.1, 453.0)">n</text><text xml:space="preserve" font-family="Courier" font-size="23.0" fill="#C8352B" transform="matrix(1.00, 0.00, -0.00, -1.00, 479.9, 453.0)">'</text><text xml:space="preserve" font-family="Courier" font-size="23.0" fill="#000000" transform="matrix(1.00, 0.00, -0.00, -1.00, 493.7, 453.0)">)</text><text xml:space="preserve" font-family="Courier" font-size="23.0" fill="#000000" transform="matrix(1.00, 0.00, -0.00, -1.00, 52.0, 425.0)"> </text><text xml:space="preserve" font-family="Courier" font-size="23.0" fill="#000000" transform="matrix(1.00, 0.00, -0.00, -1.00, 65.8, 425.0)"> </text><text xml:space="preserve" font-family="Courier" font-size="23.0" fill="#000000" transform="matrix(1.00, 0.00, -0.00, -1.00, 79.6, 425.0)"> </text><text xml:space="preserve" font-family="Courier" font-size="23.0" fill="#000000" transform="matrix(1.00, 0.00, -0.00, -1.00, 93.4, 425.0)"> </text><text xml:space="preserve" font-family="Courier" font-size="23.0" fill="#000000" transform="matrix(1.00, 0.00, -0.00, -1.00, 107.2, 425.0)">f</text><text xml:space="preserve" font-family="Courier" font-size="23.0" fill="#000000" transform="matrix(1.00, 0.00, -0.00, -1.00, 121.0, 425.0)">_</text><text xml:space="preserve" font-family="Courier" font-size="23.0" fill="#000000" transform="matrix(1.00, 0.00, -0.00, -1.00, 134.8, 425.0)">o</text><text xml:space="preserve" font-family="Courier" font-size="23.0" fill="#000000" transform="matrix(1.00, 0.00, -0.00, -1.00, 148.6, 425.0)">u</text><text xml:space="preserve" font-family="Courier" font-size="23.0" fill="#000000" transform="matrix(1.00, 0.00, -0.00, -1.00, 162.4, 425.0)">t</text><text xml:space="preserve" font-family="Courier" font-size="23.0" fill="#000000" transform="matrix(1.00, 0.00, -0.00, -1.00, 176.2, 425.0)">p</text><text xml:space="preserve" font-family="Courier" font-size="23.0" fill="#000000" transform="matrix(1.00, 0.00, -0.00, -1.00, 190.0, 425.0)">u</text><text xml:space="preserve" font-family="Courier" font-size="23.0" fill="#000000" transform="matrix(1.00, 0.00, -0.00, -1.00, 203.9, 425.0)">t</text><text xml:space="preserve" font-family="Courier" font-size="23.0" fill="#797979" transform="matrix(1.00, 0.00, -0.00, -1.00, 217.6, 425.0)">.</text><text xml:space="preserve" font-family="Courier" font-size="23.0" fill="#000000" transform="matrix(1.00, 0.00, -0.00, -1.00, 231.4, 425.0)">w</text><text xml:space="preserve" font-family="Courier" font-size="23.0" fill="#000000" transform="matrix(1.00, 0.00, -0.00, -1.00, 245.2, 425.0)">r</text><text xml:space="preserve" font-family="Courier" font-size="23.0" fill="#000000" transform="matrix(1.00, 0.00, -0.00, -1.00, 259.0, 425.0)">i</text><text xml:space="preserve" font-family="Courier" font-size="23.0" fill="#000000" transform="matrix(1.00, 0.00, -0.00, -1.00, 272.8, 425.0)">t</text><text xml:space="preserve" font-family="Courier" font-size="23.0" fill="#000000" transform="matrix(1.00, 0.00, -0.00, -1.00, 286.6, 425.0)">e</text><text xml:space="preserve" font-family="Courier" font-size="23.0" fill="#000000" transform="matrix(1.00, 0.00, -0.00, -1.00, 300.5, 425.0)">(</text><text xml:space="preserve" font-family="Courier" font-size="23.0" fill="#C8352B" transform="matrix(1.00, 0.00, -0.00, -1.00, 314.2, 425.0)">'</text><text xml:space="preserve" font-family="Courier" font-size="23.0" fill="#C8352B" transform="matrix(1.00, 0.00, -0.00, -1.00, 328.0, 425.0)">#</text><text xml:space="preserve" font-family="Courier" font-size="23.0" fill="#C8352B" transform="matrix(1.00, 0.00, -0.00, -1.00, 341.9, 425.0)"> </text><text xml:space="preserve" font-family="Courier" font-size="23.0" fill="#C8352B" transform="matrix(1.00, 0.00, -0.00, -1.00, 355.7, 425.0)">&gt;</text><text xml:space="preserve" font-family="Courier" font-size="23.0" fill="#C8352B" transform="matrix(1.00, 0.00, -0.00, -1.00, 369.5, 425.0)"> </text><text xml:space="preserve" font-family="Courier" font-size="23.0" fill="#C8352B" transform="matrix(1.00, 0.00, -0.00, -1.00, 383.3, 425.0)">C</text><text xml:space="preserve" font-family="Courier" font-size="23.0" fill="#C8352B" transform="matrix(1.00, 0.00, -0.00, -1.00, 397.1, 425.0)">A</text><text xml:space="preserve" font-family="Courier" font-size="23.0" fill="#C8352B" transform="matrix(1.00, 0.00, -0.00, -1.00, 410.9, 425.0)">T</text><text xml:space="preserve" font-family="Courier" font-size="23.0" fill="#C8352B" transform="matrix(1.00, 0.00, -0.00, -1.00, 424.7, 425.0)">E</text><text xml:space="preserve" font-family="Courier" font-size="23.0" fill="#C8352B" transform="matrix(1.00, 0.00, -0.00, -1.00, 438.5, 425.0)">G</text><text xml:space="preserve" font-family="Courier" font-size="23.0" fill="#C8352B" transform="matrix(1.00, 0.00, -0.00, -1.00, 452.3, 425.0)">O</text><text xml:space="preserve" font-family="Courier" font-size="23.0" fill="#C8352B" transform="matrix(1.00, 0.00, -0.00, -1.00, 466.1, 425.0)">R</text><text xml:space="preserve" font-family="Courier" font-size="23.0" fill="#C8352B" transform="matrix(1.00, 0.00, -0.00, -1.00, 479.9, 425.0)">Y</text><text xml:space="preserve" font-family="Courier-Bold" font-weight="bold" font-size="23.0" fill="#C8792C" transform="matrix(1.00, 0.00, -0.00, -1.00, 493.7, 425.0)">\</text><text xml:space="preserve" font-family="Courier-Bold" font-weight="bold" font-size="23.0" fill="#C8792C" transform="matrix(1.00, 0.00, -0.00, -1.00, 507.5, 425.0)">n</text><text xml:space="preserve" font-family="Courier" font-size="23.0" fill="#C8352B" transform="matrix(1.00, 0.00, -0.00, -1.00, 521.3, 425.0)">'</text><text xml:space="preserve" font-family="Courier" font-size="23.0" fill="#000000" transform="matrix(1.00, 0.00, -0.00, -1.00, 535.1, 425.0)">)</text><text xml:space="preserve" font-family="Courier" font-size="23.0" fill="#000000" transform="matrix(1.00, 0.00, -0.00, -1.00, 52.0, 397.0)"> </text><text xml:space="preserve" font-family="Courier" font-size="23.0" fill="#000000" transform="matrix(1.00, 0.00, -0.00, -1.00, 65.8, 397.0)"> </text><text xml:space="preserve" font-family="Courier" font-size="23.0" fill="#000000" transform="matrix(1.00, 0.00, -0.00, -1.00, 79.6, 397.0)"> </text><text xml:space="preserve" font-family="Courier" font-size="23.0" fill="#000000" transform="matrix(1.00, 0.00, -0.00, -1.00, 93.4, 397.0)"> </text><text xml:space="preserve" font-family="Courier" font-size="23.0" fill="#000000" transform="matrix(1.00, 0.00, -0.00, -1.00, 107.2, 397.0)">f</text><text xml:space="preserve" font-family="Courier" font-size="23.0" fill="#000000" transform="matrix(1.00, 0.00, -0.00, -1.00, 121.0, 397.0)">_</text><text xml:space="preserve" font-family="Courier" font-size="23.0" fill="#000000" transform="matrix(1.00, 0.00, -0.00, -1.00, 134.8, 397.0)">o</text><text xml:space="preserve" font-family="Courier" font-size="23.0" fill="#000000" transform="matrix(1.00, 0.00, -0.00, -1.00, 148.6, 397.0)">u</text><text xml:space="preserve" font-family="Courier" font-size="23.0" fill="#000000" transform="matrix(1.00, 0.00, -0.00, -1.00, 162.4, 397.0)">t</text><text xml:space="preserve" font-family="Courier" font-size="23.0" fill="#000000" transform="matrix(1.00, 0.00, -0.00, -1.00, 176.2, 397.0)">p</text><text xml:space="preserve" font-family="Courier" font-size="23.0" fill="#000000" transform="matrix(1.00, 0.00, -0.00, -1.00, 190.0, 397.0)">u</text><text xml:space="preserve" font-family="Courier" font-size="23.0" fill="#000000" transform="matrix(1.00, 0.00, -0.00, -1.00, 203.9, 397.0)">t</text><text xml:space="preserve" font-family="Courier" font-size="23.0" fill="#797979" transform="matrix(1.00, 0.00, -0.00, -1.00, 217.6, 397.0)">.</text><text xml:space="preserve" font-family="Courier" font-size="23.0" fill="#000000" transform="matrix(1.00, 0.00, -0.00, -1.00, 231.4, 397.0)">w</text><text xml:space="preserve" font-family="Courier" font-size="23.0" fill="#000000" transform="matrix(1.00, 0.00, -0.00, -1.00, 245.2, 397.0)">r</text><text xml:space="preserve" font-family="Courier" font-size="23.0" fill="#000000" transform="matrix(1.00, 0.00, -0.00, -1.00, 259.0, 397.0)">i</text><text xml:space="preserve" font-family="Courier" font-size="23.0" fill="#000000" transform="matrix(1.00, 0.00, -0.00, -1.00, 272.8, 397.0)">t</text><text xml:space="preserve" font-family="Courier" font-size="23.0" fill="#000000" transform="matrix(1.00, 0.00, -0.00, -1.00, 286.6, 397.0)">e</text><text xml:space="preserve" font-family="Courier" font-size="23.0" fill="#000000" transform="matrix(1.00, 0.00, -0.00, -1.00, 300.5, 397.0)">(</text><text xml:space="preserve" font-family="Courier" font-size="23.0" fill="#C8352B" transform="matrix(1.00, 0.00, -0.00, -1.00, 314.2, 397.0)">'</text><text xml:space="preserve" font-family="Courier" font-size="23.0" fill="#C8352B" transform="matrix(1.00, 0.00, -0.00, -1.00, 328.0, 397.0)">#</text><text xml:space="preserve" font-family="Courier" font-size="23.0" fill="#C8352B" transform="matrix(1.00, 0.00, -0.00, -1.00, 341.9, 397.0)"> </text><text xml:space="preserve" font-family="Courier" font-size="23.0" fill="#C8352B" transform="matrix(1.00, 0.00, -0.00, -1.00, 355.7, 397.0)">M</text><text xml:space="preserve" font-family="Courier" font-size="23.0" fill="#C8352B" transform="matrix(1.00, 0.00, -0.00, -1.00, 369.5, 397.0)">o</text><text xml:space="preserve" font-family="Courier" font-size="23.0" fill="#C8352B" transform="matrix(1.00, 0.00, -0.00, -1.00, 383.3, 397.0)">v</text><text xml:space="preserve" font-family="Courier" font-size="23.0" fill="#C8352B" transform="matrix(1.00, 0.00, -0.00, -1.00, 397.1, 397.0)">i</text><text xml:space="preserve" font-family="Courier" font-size="23.0" fill="#C8352B" transform="matrix(1.00, 0.00, -0.00, -1.00, 410.9, 397.0)">e</text><text xml:space="preserve" font-family="Courier" font-size="23.0" fill="#C8352B" transform="matrix(1.00, 0.00, -0.00, -1.00, 424.7, 397.0)">:</text><text xml:space="preserve" font-family="Courier" font-size="23.0" fill="#C8352B" transform="matrix(1.00, 0.00, -0.00, -1.00, 438.5, 397.0)"> </text><text xml:space="preserve" font-family="Courier" font-size="23.0" fill="#C8352B" transform="matrix(1.00, 0.00, -0.00, -1.00, 452.3, 397.0)">R</text><text xml:space="preserve" font-family="Courier" font-size="23.0" fill="#C8352B" transform="matrix(1.00, 0.00, -0.00, -1.00, 466.1, 397.0)">a</text><text xml:space="preserve" font-family="Courier" font-size="23.0" fill="#C8352B" transform="matrix(1.00, 0.00, -0.00, -1.00, 479.9, 397.0)">t</text><text xml:space="preserve" font-family="Courier" font-size="23.0" fill="#C8352B" transform="matrix(1.00, 0.00, -0.00, -1.00, 493.7, 397.0)">i</text><text xml:space="preserve" font-family="Courier" font-size="23.0" fill="#C8352B" transform="matrix(1.00, 0.00, -0.00, -1.00, 507.5, 397.0)">n</text><text xml:space="preserve" font-family="Courier" font-size="23.0" fill="#C8352B" transform="matrix(1.00, 0.00, -0.00, -1.00, 521.3, 397.0)">g</text><text xml:space="preserve" font-family="Courier" font-size="23.0" fill="#C8352B" transform="matrix(1.00, 0.00, -0.00, -1.00, 535.1, 397.0)"> </text><text xml:space="preserve" font-family="Courier-Bold" font-weight="bold" font-size="23.0" fill="#C8792C" transform="matrix(1.00, 0.00, -0.00, -1.00, 548.9, 397.0)">\</text><text xml:space="preserve" font-family="Courier-Bold" font-weight="bold" font-size="23.0" fill="#C8792C" transform="matrix(1.00, 0.00, -0.00, -1.00, 562.7, 397.0)">t</text><text xml:space="preserve" font-family="Courier" font-size="23.0" fill="#C8352B" transform="matrix(1.00, 0.00, -0.00, -1.00, 576.5, 397.0)"> </text><text xml:space="preserve" font-family="Courier" font-size="23.0" fill="#C8352B" transform="matrix(1.00, 0.00, -0.00, -1.00, 590.3, 397.0)">N</text><text xml:space="preserve" font-family="Courier" font-size="23.0" fill="#C8352B" transform="matrix(1.00, 0.00, -0.00, -1.00, 604.1, 397.0)">a</text><text xml:space="preserve" font-family="Courier" font-size="23.0" fill="#C8352B" transform="matrix(1.00, 0.00, -0.00, -1.00, 617.9, 397.0)">m</text><text xml:space="preserve" font-family="Courier" font-size="23.0" fill="#C8352B" transform="matrix(1.00, 0.00, -0.00, -1.00, 631.7, 397.0)">e</text><text xml:space="preserve" font-family="Courier" font-size="23.0" fill="#C8352B" transform="matrix(1.00, 0.00, -0.00, -1.00, 645.5, 397.0)"> </text><text xml:space="preserve" font-family="Courier" font-size="23.0" fill="#C8352B" transform="matrix(1.00, 0.00, -0.00, -1.00, 659.3, 397.0)">(</text><text xml:space="preserve" font-family="Courier" font-size="23.0" fill="#C8352B" transform="matrix(1.00, 0.00, -0.00, -1.00, 673.1, 397.0)">Y</text><text xml:space="preserve" font-family="Courier" font-size="23.0" fill="#C8352B" transform="matrix(1.00, 0.00, -0.00, -1.00, 686.9, 397.0)">e</text><text xml:space="preserve" font-family="Courier" font-size="23.0" fill="#C8352B" transform="matrix(1.00, 0.00, -0.00, -1.00, 700.7, 397.0)">a</text><text xml:space="preserve" font-family="Courier" font-size="23.0" fill="#C8352B" transform="matrix(1.00, 0.00, -0.00, -1.00, 714.5, 397.0)">r</text><text xml:space="preserve" font-family="Courier" font-size="23.0" fill="#C8352B" transform="matrix(1.00, 0.00, -0.00, -1.00, 728.3, 397.0)">)</text><text xml:space="preserve" font-family="Courier-Bold" font-weight="bold" font-size="23.0" fill="#C8792C" transform="matrix(1.00, 0.00, -0.00, -1.00, 742.1, 397.0)">\</text><text xml:space="preserve" font-family="Courier-Bold" font-weight="bold" font-size="23.0" fill="#C8792C" transform="matrix(1.00, 0.00, -0.00, -1.00, 755.9, 397.0)">n</text><text xml:space="preserve" font-family="Courier" font-size="23.0" fill="#C8352B" transform="matrix(1.00, 0.00, -0.00, -1.00, 769.7, 397.0)">'</text><text xml:space="preserve" font-family="Courier" font-size="23.0" fill="#000000" transform="matrix(1.00, 0.00, -0.00, -1.00, 783.5, 397.0)">)</text><text xml:space="preserve" font-family="Courier" font-size="23.0" fill="#000000" transform="matrix(1.00, 0.00, -0.00, -1.00, 52.0, 313.0)"> </text><text xml:space="preserve" font-family="Courier" font-size="23.0" fill="#000000" transform="matrix(1.00, 0.00, -0.00, -1.00, 65.8, 313.0)"> </text><text xml:space="preserve" font-family="Courier" font-size="23.0" fill="#000000" transform="matrix(1.00, 0.00, -0.00, -1.00, 79.6, 313.0)"> </text><text xml:space="preserve" font-family="Courier" font-size="23.0" fill="#000000" transform="matrix(1.00, 0.00, -0.00, -1.00, 93.4, 313.0)"> </text><text xml:space="preserve" font-family="Courier-Bold" font-weight="bold" font-size="23.0" fill="#008E00" transform="matrix(1.00, 0.00, -0.00, -1.00, 107.2, 313.0)">f</text><text xml:space="preserve" font-family="Courier-Bold" font-weight="bold" font-size="23.0" fill="#008E00" transform="matrix(1.00, 0.00, -0.00, -1.00, 121.0, 313.0)">o</text><text xml:space="preserve" font-family="Courier-Bold" font-weight="bold" font-size="23.0" fill="#008E00" transform="matrix(1.00, 0.00, -0.00, -1.00, 134.8, 313.0)">r</text><text xml:space="preserve" font-family="Courier" font-size="23.0" fill="#000000" transform="matrix(1.00, 0.00, -0.00, -1.00, 148.6, 313.0)"> </text><text xml:space="preserve" font-family="Courier" font-size="23.0" fill="#000000" transform="matrix(1.00, 0.00, -0.00, -1.00, 162.4, 313.0)">l</text><text xml:space="preserve" font-family="Courier" font-size="23.0" fill="#000000" transform="matrix(1.00, 0.00, -0.00, -1.00, 176.2, 313.0)">i</text><text xml:space="preserve" font-family="Courier" font-size="23.0" fill="#000000" transform="matrix(1.00, 0.00, -0.00, -1.00, 190.0, 313.0)">n</text><text xml:space="preserve" font-family="Courier" font-size="23.0" fill="#000000" transform="matrix(1.00, 0.00, -0.00, -1.00, 203.8, 313.0)">e</text><text xml:space="preserve" font-family="Courier" font-size="23.0" fill="#000000" transform="matrix(1.00, 0.00, -0.00, -1.00, 217.6, 313.0)"> </text><text xml:space="preserve" font-family="Courier-Bold" font-weight="bold" font-size="23.0" fill="#BA49FF" transform="matrix(1.00, 0.00, -0.00, -1.00, 231.4, 313.0)">i</text><text xml:space="preserve" font-family="Courier-Bold" font-weight="bold" font-size="23.0" fill="#BA49FF" transform="matrix(1.00, 0.00, -0.00, -1.00, 245.2, 313.0)">n</text><text xml:space="preserve" font-family="Courier" font-size="23.0" fill="#000000" transform="matrix(1.00, 0.00, -0.00, -1.00, 259.0, 313.0)"> </text><text xml:space="preserve" font-family="Courier" font-size="23.0" fill="#000000" transform="matrix(1.00, 0.00, -0.00, -1.00, 272.8, 313.0)">f</text><text xml:space="preserve" font-family="Courier" font-size="23.0" fill="#000000" transform="matrix(1.00, 0.00, -0.00, -1.00, 286.6, 313.0)">_</text><text xml:space="preserve" font-family="Courier" font-size="23.0" fill="#000000" transform="matrix(1.00, 0.00, -0.00, -1.00, 300.4, 313.0)">i</text><text xml:space="preserve" font-family="Courier" font-size="23.0" fill="#000000" transform="matrix(1.00, 0.00, -0.00, -1.00, 314.3, 313.0)">n</text><text xml:space="preserve" font-family="Courier" font-size="23.0" fill="#000000" transform="matrix(1.00, 0.00, -0.00, -1.00, 328.1, 313.0)">p</text><text xml:space="preserve" font-family="Courier" font-size="23.0" fill="#000000" transform="matrix(1.00, 0.00, -0.00, -1.00, 341.9, 313.0)">u</text><text xml:space="preserve" font-family="Courier" font-size="23.0" fill="#000000" transform="matrix(1.00, 0.00, -0.00, -1.00, 355.7, 313.0)">t</text><text xml:space="preserve" font-family="Courier" font-size="23.0" fill="#000000" transform="matrix(1.00, 0.00, -0.00, -1.00, 369.5, 313.0)">:</text><text xml:space="preserve" font-family="Courier" font-size="23.0" fill="#000000" transform="matrix(1.00, 0.00, -0.00, -1.00, 52.0, 285.0)"> </text><text xml:space="preserve" font-family="Courier" font-size="23.0" fill="#000000" transform="matrix(1.00, 0.00, -0.00, -1.00, 65.8, 285.0)"> </text><text xml:space="preserve" font-family="Courier" font-size="23.0" fill="#000000" transform="matrix(1.00, 0.00, -0.00, -1.00, 79.6, 285.0)"> </text><text xml:space="preserve" font-family="Courier" font-size="23.0" fill="#000000" transform="matrix(1.00, 0.00, -0.00, -1.00, 93.4, 285.0)"> </text><text xml:space="preserve" font-family="Courier" font-size="23.0" fill="#000000" transform="matrix(1.00, 0.00, -0.00, -1.00, 107.2, 285.0)"> </text><text xml:space="preserve" font-family="Courier" font-size="23.0" fill="#000000" transform="matrix(1.00, 0.00, -0.00, -1.00, 121.0, 285.0)"> </text><text xml:space="preserve" font-family="Courier" font-size="23.0" fill="#000000" transform="matrix(1.00, 0.00, -0.00, -1.00, 134.8, 285.0)"> </text><text xml:space="preserve" font-family="Courier" font-size="23.0" fill="#000000" transform="matrix(1.00, 0.00, -0.00, -1.00, 148.6, 285.0)"> </text><text xml:space="preserve" font-family="Courier-Bold" font-weight="bold" font-size="23.0" fill="#008E00" transform="matrix(1.00, 0.00, -0.00, -1.00, 162.4, 285.0)">i</text><text xml:space="preserve" font-family="Courier-Bold" font-weight="bold" font-size="23.0" fill="#008E00" transform="matrix(1.00, 0.00, -0.00, -1.00, 176.2, 285.0)">f</text><text xml:space="preserve" font-family="Courier" font-size="23.0" fill="#000000" transform="matrix(1.00, 0.00, -0.00, -1.00, 190.0, 285.0)"> </text><text xml:space="preserve" font-family="Courier" font-size="23.0" fill="#000000" transform="matrix(1.00, 0.00, -0.00, -1.00, 203.8, 285.0)">l</text><text xml:space="preserve" font-family="Courier" font-size="23.0" fill="#000000" transform="matrix(1.00, 0.00, -0.00, -1.00, 217.6, 285.0)">i</text><text xml:space="preserve" font-family="Courier" font-size="23.0" fill="#000000" transform="matrix(1.00, 0.00, -0.00, -1.00, 231.4, 285.0)">n</text><text xml:space="preserve" font-family="Courier" font-size="23.0" fill="#000000" transform="matrix(1.00, 0.00, -0.00, -1.00, 245.2, 285.0)">e</text><text xml:space="preserve" font-family="Courier" font-size="23.0" fill="#797979" transform="matrix(1.00, 0.00, -0.00, -1.00, 259.0, 285.0)">.</text><text xml:space="preserve" font-family="Courier" font-size="23.0" fill="#000000" transform="matrix(1.00, 0.00, -0.00, -1.00, 272.8, 285.0)">s</text><text xml:space="preserve" font-family="Courier" font-size="23.0" fill="#000000" transform="matrix(1.00, 0.00, -0.00, -1.00, 286.6, 285.0)">t</text><text xml:space="preserve" font-family="Courier" font-size="23.0" fill="#000000" transform="matrix(1.00, 0.00, -0.00, -1.00, 300.4, 285.0)">a</text><text xml:space="preserve" font-family="Courier" font-size="23.0" fill="#000000" transform="matrix(1.00, 0.00, -0.00, -1.00, 314.2, 285.0)">r</text><text xml:space="preserve" font-family="Courier" font-size="23.0" fill="#000000" transform="matrix(1.00, 0.00, -0.00, -1.00, 328.1, 285.0)">t</text><text xml:space="preserve" font-family="Courier" font-size="23.0" fill="#000000" transform="matrix(1.00, 0.00, -0.00, -1.00, 341.9, 285.0)">s</text><text xml:space="preserve" font-family="Courier" font-size="23.0" fill="#000000" transform="matrix(1.00, 0.00, -0.00, -1.00, 355.7, 285.0)">w</text><text xml:space="preserve" font-family="Courier" font-size="23.0" fill="#000000" transform="matrix(1.00, 0.00, -0.00, -1.00, 369.5, 285.0)">i</text><text xml:space="preserve" font-family="Courier" font-size="23.0" fill="#000000" transform="matrix(1.00, 0.00, -0.00, -1.00, 383.3, 285.0)">t</text><text xml:space="preserve" font-family="Courier" font-size="23.0" fill="#000000" transform="matrix(1.00, 0.00, -0.00, -1.00, 397.1, 285.0)">h</text><text xml:space="preserve" font-family="Courier" font-size="23.0" fill="#000000" transform="matrix(1.00, 0.00, -0.00, -1.00, 410.9, 285.0)">(</text><text xml:space="preserve" font-family="Courier" font-size="23.0" fill="#C8352B" transform="matrix(1.00, 0.00, -0.00, -1.00, 424.7, 285.0)">'</text><text xml:space="preserve" font-family="Courier" font-size="23.0" fill="#C8352B" transform="matrix(1.00, 0.00, -0.00, -1.00, 438.5, 285.0)">#</text><text xml:space="preserve" font-family="Courier" font-size="23.0" fill="#C8352B" transform="matrix(1.00, 0.00, -0.00, -1.00, 452.3, 285.0)">'</text><text xml:space="preserve" font-family="Courier" font-size="23.0" fill="#000000" transform="matrix(1.00, 0.00, -0.00, -1.00, 466.1, 285.0)">)</text><text xml:space="preserve" font-family="Courier" font-size="23.0" fill="#000000" transform="matrix(1.00, 0.00, -0.00, -1.00, 479.9, 285.0)">:</text><text xml:space="preserve" font-family="Courier" font-size="23.0" fill="#000000" transform="matrix(1.00, 0.00, -0.00, -1.00, 52.0, 257.0)"> </text><text xml:space="preserve" font-family="Courier" font-size="23.0" fill="#000000" transform="matrix(1.00, 0.00, -0.00, -1.00, 65.8, 257.0)"> </text><text xml:space="preserve" font-family="Courier" font-size="23.0" fill="#000000" transform="matrix(1.00, 0.00, -0.00, -1.00, 79.6, 257.0)"> </text><text xml:space="preserve" font-family="Courier" font-size="23.0" fill="#000000" transform="matrix(1.00, 0.00, -0.00, -1.00, 93.4, 257.0)"> </text><text xml:space="preserve" font-family="Courier" font-size="23.0" fill="#000000" transform="matrix(1.00, 0.00, -0.00, -1.00, 107.2, 257.0)"> </text><text xml:space="preserve" font-family="Courier" font-size="23.0" fill="#000000" transform="matrix(1.00, 0.00, -0.00, -1.00, 121.0, 257.0)"> </text><text xml:space="preserve" font-family="Courier" font-size="23.0" fill="#000000" transform="matrix(1.00, 0.00, -0.00, -1.00, 134.8, 257.0)"> </text><text xml:space="preserve" font-family="Courier" font-size="23.0" fill="#000000" transform="matrix(1.00, 0.00, -0.00, -1.00, 148.6, 257.0)"> </text><text xml:space="preserve" font-family="Courier" font-size="23.0" fill="#000000" transform="matrix(1.00, 0.00, -0.00, -1.00, 162.4, 257.0)"> </text><text xml:space="preserve" font-family="Courier" font-size="23.0" fill="#000000" transform="matrix(1.00, 0.00, -0.00, -1.00, 176.2, 257.0)"> </text><text xml:space="preserve" font-family="Courier" font-size="23.0" fill="#000000" transform="matrix(1.00, 0.00, -0.00, -1.00, 190.0, 257.0)"> </text><text xml:space="preserve" font-family="Courier" font-size="23.0" fill="#000000" transform="matrix(1.00, 0.00, -0.00, -1.00, 203.9, 257.0)"> </text><text xml:space="preserve" font-family="Courier-Bold" font-weight="bold" font-size="23.0" fill="#008E00" transform="matrix(1.00, 0.00, -0.00, -1.00, 217.6, 257.0)">c</text><text xml:space="preserve" font-family="Courier-Bold" font-weight="bold" font-size="23.0" fill="#008E00" transform="matrix(1.00, 0.00, -0.00, -1.00, 231.4, 257.0)">o</text><text xml:space="preserve" font-family="Courier-Bold" font-weight="bold" font-size="23.0" fill="#008E00" transform="matrix(1.00, 0.00, -0.00, -1.00, 245.2, 257.0)">n</text><text xml:space="preserve" font-family="Courier-Bold" font-weight="bold" font-size="23.0" fill="#008E00" transform="matrix(1.00, 0.00, -0.00, -1.00, 259.0, 257.0)">t</text><text xml:space="preserve" font-family="Courier-Bold" font-weight="bold" font-size="23.0" fill="#008E00" transform="matrix(1.00, 0.00, -0.00, -1.00, 272.8, 257.0)">i</text><text xml:space="preserve" font-family="Courier-Bold" font-weight="bold" font-size="23.0" fill="#008E00" transform="matrix(1.00, 0.00, -0.00, -1.00, 286.6, 257.0)">n</text><text xml:space="preserve" font-family="Courier-Bold" font-weight="bold" font-size="23.0" fill="#008E00" transform="matrix(1.00, 0.00, -0.00, -1.00, 300.5, 257.0)">u</text><text xml:space="preserve" font-family="Courier-Bold" font-weight="bold" font-size="23.0" fill="#008E00" transform="matrix(1.00, 0.00, -0.00, -1.00, 314.3, 257.0)">e</text><text xml:space="preserve" font-family="Courier" font-size="23.0" fill="#000000" transform="matrix(1.00, 0.00, -0.00, -1.00, 52.0, 201.0)"> </text><text xml:space="preserve" font-family="Courier" font-size="23.0" fill="#000000" transform="matrix(1.00, 0.00, -0.00, -1.00, 65.8, 201.0)"> </text><text xml:space="preserve" font-family="Courier" font-size="23.0" fill="#000000" transform="matrix(1.00, 0.00, -0.00, -1.00, 79.6, 201.0)"> </text><text xml:space="preserve" font-family="Courier" font-size="23.0" fill="#000000" transform="matrix(1.00, 0.00, -0.00, -1.00, 93.4, 201.0)"> </text><text xml:space="preserve" font-family="Courier" font-size="23.0" fill="#000000" transform="matrix(1.00, 0.00, -0.00, -1.00, 107.2, 201.0)"> </text><text xml:space="preserve" font-family="Courier" font-size="23.0" fill="#000000" transform="matrix(1.00, 0.00, -0.00, -1.00, 121.0, 201.0)"> </text><text xml:space="preserve" font-family="Courier" font-size="23.0" fill="#000000" transform="matrix(1.00, 0.00, -0.00, -1.00, 134.8, 201.0)"> </text><text xml:space="preserve" font-family="Courier" font-size="23.0" fill="#000000" transform="matrix(1.00, 0.00, -0.00, -1.00, 148.6, 201.0)"> </text><text xml:space="preserve" font-family="Courier-Oblique" font-style="italic" font-size="23.0" fill="#4E9192" transform="matrix(1.00, 0.00, -0.00, -1.00, 162.4, 201.0)">#</text><text xml:space="preserve" font-family="Courier-Oblique" font-style="italic" font-size="23.0" fill="#4E9192" transform="matrix(1.00, 0.00, -0.00, -1.00, 176.2, 201.0)"> </text><text xml:space="preserve" font-family="Courier-Oblique" font-style="italic" font-size="23.0" fill="#4E9192" transform="matrix(1.00, 0.00, -0.00, -1.00, 190.0, 201.0)">D</text><text xml:space="preserve" font-family="Courier-Oblique" font-style="italic" font-size="23.0" fill="#4E9192" transform="matrix(1.00, 0.00, -0.00, -1.00, 203.8, 201.0)">o</text><text xml:space="preserve" font-family="Courier-Oblique" font-style="italic" font-size="23.0" fill="#4E9192" transform="matrix(1.00, 0.00, -0.00, -1.00, 217.6, 201.0)"> </text><text xml:space="preserve" font-family="Courier-Oblique" font-style="italic" font-size="23.0" fill="#4E9192" transform="matrix(1.00, 0.00, -0.00, -1.00, 231.4, 201.0)">s</text><text xml:space="preserve" font-family="Courier-Oblique" font-style="italic" font-size="23.0" fill="#4E9192" transform="matrix(1.00, 0.00, -0.00, -1.00, 245.2, 201.0)">o</text><text xml:space="preserve" font-family="Courier-Oblique" font-style="italic" font-size="23.0" fill="#4E9192" transform="matrix(1.00, 0.00, -0.00, -1.00, 259.0, 201.0)">m</text><text xml:space="preserve" font-family="Courier-Oblique" font-style="italic" font-size="23.0" fill="#4E9192" transform="matrix(1.00, 0.00, -0.00, -1.00, 272.9, 201.0)">e</text><text xml:space="preserve" font-family="Courier-Oblique" font-style="italic" font-size="23.0" fill="#4E9192" transform="matrix(1.00, 0.00, -0.00, -1.00, 286.7, 201.0)">t</text><text xml:space="preserve" font-family="Courier-Oblique" font-style="italic" font-size="23.0" fill="#4E9192" transform="matrix(1.00, 0.00, -0.00, -1.00, 300.5, 201.0)">h</text><text xml:space="preserve" font-family="Courier-Oblique" font-style="italic" font-size="23.0" fill="#4E9192" transform="matrix(1.00, 0.00, -0.00, -1.00, 314.3, 201.0)">i</text><text xml:space="preserve" font-family="Courier-Oblique" font-style="italic" font-size="23.0" fill="#4E9192" transform="matrix(1.00, 0.00, -0.00, -1.00, 328.1, 201.0)">n</text><text xml:space="preserve" font-family="Courier-Oblique" font-style="italic" font-size="23.0" fill="#4E9192" transform="matrix(1.00, 0.00, -0.00, -1.00, 341.9, 201.0)">g</text><text xml:space="preserve" font-family="Courier-Oblique" font-style="italic" font-size="23.0" fill="#4E9192" transform="matrix(1.00, 0.00, -0.00, -1.00, 355.7, 201.0)"> </text><text xml:space="preserve" font-family="Courier-Oblique" font-style="italic" font-size="23.0" fill="#4E9192" transform="matrix(1.00, 0.00, -0.00, -1.00, 369.5, 201.0)">w</text><text xml:space="preserve" font-family="Courier-Oblique" font-style="italic" font-size="23.0" fill="#4E9192" transform="matrix(1.00, 0.00, -0.00, -1.00, 383.3, 201.0)">i</text><text xml:space="preserve" font-family="Courier-Oblique" font-style="italic" font-size="23.0" fill="#4E9192" transform="matrix(1.00, 0.00, -0.00, -1.00, 397.1, 201.0)">t</text><text xml:space="preserve" font-family="Courier-Oblique" font-style="italic" font-size="23.0" fill="#4E9192" transform="matrix(1.00, 0.00, -0.00, -1.00, 410.9, 201.0)">h</text><text xml:space="preserve" font-family="Courier-Oblique" font-style="italic" font-size="23.0" fill="#4E9192" transform="matrix(1.00, 0.00, -0.00, -1.00, 424.7, 201.0)"> </text><text xml:space="preserve" font-family="Courier-Oblique" font-style="italic" font-size="23.0" fill="#4E9192" transform="matrix(1.00, 0.00, -0.00, -1.00, 438.5, 201.0)">t</text><text xml:space="preserve" font-family="Courier-Oblique" font-style="italic" font-size="23.0" fill="#4E9192" transform="matrix(1.00, 0.00, -0.00, -1.00, 452.3, 201.0)">h</text><text xml:space="preserve" font-family="Courier-Oblique" font-style="italic" font-size="23.0" fill="#4E9192" transform="matrix(1.00, 0.00, -0.00, -1.00, 466.1, 201.0)">a</text><text xml:space="preserve" font-family="Courier-Oblique" font-style="italic" font-size="23.0" fill="#4E9192" transform="matrix(1.00, 0.00, -0.00, -1.00, 479.9, 201.0)">t</text><text xml:space="preserve" font-family="Courier-Oblique" font-style="italic" font-size="23.0" fill="#4E9192" transform="matrix(1.00, 0.00, -0.00, -1.00, 493.7, 201.0)"> </text><text xml:space="preserve" font-family="Courier-Oblique" font-style="italic" font-size="23.0" fill="#4E9192" transform="matrix(1.00, 0.00, -0.00, -1.00, 507.5, 201.0)">l</text><text xml:space="preserve" font-family="Courier-Oblique" font-style="italic" font-size="23.0" fill="#4E9192" transform="matrix(1.00, 0.00, -0.00, -1.00, 521.3, 201.0)">i</text><text xml:space="preserve" font-family="Courier-Oblique" font-style="italic" font-size="23.0" fill="#4E9192" transform="matrix(1.00, 0.00, -0.00, -1.00, 535.1, 201.0)">n</text><text xml:space="preserve" font-family="Courier-Oblique" font-style="italic" font-size="23.0" fill="#4E9192" transform="matrix(1.00, 0.00, -0.00, -1.00, 548.9, 201.0)">e</text></g></g><path d="M 60.4 448.7 C 60.2 448.8 60.0 448.3 59.4 448.2 C 58.8 448.0 58.0 448.0 58.2 448.3 C 58.3 448.6 58.5 448.8 58.2 449.2 C 57.9 449.6 57.5 450.3 57.9 450.6 C 58.4 450.9 60.0 451.6 60.6 451.2 C 61.1 450.8 61.3 450.7 61.7 450.4 C 62.1 450.2 61.8 451.0 61.8 451.0 C 61.8 451.0 62.7 451.1 63.4 451.1 C 64.1 451.2 64.9 451.2 64.9 451.1 C 65.0 451.0 65.3 450.7 65.3 450.7 C 65.3 450.7 65.6 451.0 66.1 451.1 C 66.6 451.2 66.4 451.0 66.4 450.8 C 66.3 450.6 65.7 450.1 65.9 450.1 C 66.1 450.1 66.8 450.9 67.1 451.0 C 67.5 451.0 68.3 451.0 68.3 451.0 C 68.3 451.0 68.2 450.5 68.3 450.4 C 68.3 450.3 69.1 450.3 69.2 450.4 C 69.2 450.6 69.1 451.1 69.5 451.1 C 70.8 451.2 70.6 450.3 70.7 450.3 C 70.8 450.3 70.8 450.9 71.1 451.0 C 71.4 451.2 73.8 451.1 73.9 450.9 C 74.0 450.7 74.8 451.3 75.2 450.9 C 75.6 450.5 75.7 450.4 75.7 450.3 C 75.8 450.1 76.3 449.5 76.5 449.7 C 76.7 450.0 75.8 450.8 76.0 451.0 C 76.3 451.2 77.8 451.2 78.1 451.0 C 78.5 450.7 78.6 450.1 78.8 450.1 C 79.0 450.1 79.8 450.9 79.9 450.8 C 80.0 450.7 80.1 449.9 80.1 449.8 C 80.1 449.7 80.4 448.4 80.2 448.3 C 80.0 448.1 79.1 447.6 79.2 448.0 C 79.3 448.3 79.6 448.8 79.2 448.9 C 78.9 449.1 78.7 449.1 78.7 449.0 C 78.6 448.9 78.8 448.7 78.2 448.5 C 77.7 448.2 78.0 447.9 77.5 448.0 C 77.0 448.0 76.5 448.1 76.6 448.3 C 76.6 448.6 76.1 449.0 75.7 449.0 C 75.4 449.0 76.0 448.4 74.9 448.1 C 73.7 447.9 73.0 447.8 72.7 448.1 C 72.4 448.3 72.3 449.0 71.8 448.7 C 71.2 448.4 71.5 448.2 70.8 448.2 C 70.1 448.2 69.8 448.8 69.3 448.8 C 68.9 448.9 68.7 448.8 68.7 448.8 C 68.7 448.8 69.0 448.0 67.9 448.0 C 66.9 447.9 66.7 447.8 66.9 448.4 C 67.1 449.0 66.3 449.1 66.3 448.7 C 66.3 448.3 65.7 448.0 65.3 448.0 C 64.9 447.9 64.8 448.9 64.7 449.0 C 64.5 449.0 64.1 448.9 64.3 448.6 C 64.5 448.3 64.1 448.2 63.7 448.1 C 63.4 448.0 62.5 448.1 62.5 448.2 C 62.5 448.4 62.9 449.1 62.3 448.8 C 61.7 448.4 61.5 447.9 60.9 447.9 C 60.3 448.0 60.8 448.6 60.4 448.7 C 60.4 448.7 60.4 448.7 60.4 448.7 Z M 80.6 447.9 C 79.5 448.0 80.2 450.6 80.6 451.1 C 81.1 451.7 81.8 451.3 82.5 451.4 C 83.3 451.5 83.0 450.7 83.5 450.5 C 83.9 450.2 83.7 450.8 83.9 451.1 C 84.1 451.5 85.2 451.2 85.9 451.2 C 86.6 451.3 87.3 450.4 87.9 450.3 C 88.4 450.3 87.4 449.9 88.4 449.9 C 89.4 450.0 88.9 450.5 87.7 450.7 C 86.6 451.0 88.2 451.2 88.8 451.3 C 89.4 451.4 90.5 451.0 91.0 451.1 C 91.4 451.1 90.7 450.5 91.7 450.5 C 92.7 450.5 92.2 451.2 93.1 451.3 C 94.0 451.4 93.9 450.8 94.3 450.6 C 94.7 450.4 94.6 450.8 95.0 450.9 C 95.3 450.9 95.8 451.1 96.5 450.9 C 97.1 450.7 96.9 450.5 97.2 450.5 C 97.5 450.4 98.0 450.3 98.0 450.3 C 98.0 450.5 98.1 450.8 98.2 451.0 C 98.2 451.0 99.3 450.8 99.6 450.8 C 99.9 450.8 100.6 450.3 100.4 450.2 C 100.1 450.1 100.8 449.4 101.0 449.4 C 101.2 449.4 102.0 449.4 102.5 449.3 C 103.0 449.2 101.9 447.8 101.8 447.6 C 101.7 447.4 101.3 446.5 101.0 446.6 C 100.7 446.7 100.7 447.1 100.6 446.8 C 100.5 446.6 99.8 447.2 99.6 447.3 C 99.3 447.4 99.4 448.0 99.4 448.0 C 99.4 448.0 99.3 448.6 98.9 448.7 C 98.5 448.8 98.2 447.8 98.2 447.8 C 98.2 447.8 97.7 447.6 97.3 447.7 C 96.8 447.8 96.3 448.8 96.2 449.0 C 96.1 449.2 96.1 448.3 95.6 448.3 C 95.2 448.2 94.6 447.9 94.4 448.0 C 94.2 448.1 93.8 448.6 93.8 448.6 C 93.8 448.6 92.9 448.9 92.6 448.9 C 92.4 448.9 92.8 448.1 92.8 448.1 C 92.8 448.1 90.7 447.9 90.4 447.9 C 90.0 447.8 89.5 448.0 89.2 448.0 C 89.0 448.1 88.6 449.1 88.2 449.0 C 87.9 448.9 88.6 448.4 88.2 448.3 C 87.9 448.2 87.2 448.0 87.0 448.0 C 86.8 448.0 86.6 448.3 86.3 448.4 C 86.0 448.4 85.5 449.1 85.1 449.1 C 84.6 449.1 84.3 448.7 84.1 448.6 C 84.0 448.5 83.8 447.9 83.4 447.8 C 83.1 447.8 83.3 448.3 83.0 448.3 C 82.6 448.3 82.6 448.7 82.2 448.7 C 81.9 448.6 82.1 447.8 81.7 447.9 C 81.5 447.9 81.7 447.9 80.6 447.9 C 80.6 447.9 80.6 447.9 80.6 447.9 Z M 101.7 446.2 C 101.1 446.2 101.1 446.8 101.3 447.1 C 101.6 447.4 102.2 448.1 102.2 448.4 C 102.2 448.7 102.0 449.7 103.0 449.3 C 103.9 448.8 103.9 448.4 103.8 448.2 C 103.6 448.0 103.1 447.1 103.3 447.0 C 103.6 446.9 103.9 446.9 104.1 447.0 C 104.2 447.0 105.2 447.4 105.4 446.9 C 105.7 446.4 105.7 445.9 105.7 445.9 C 105.8 445.6 105.9 445.4 106.0 445.2 C 106.0 445.2 106.9 444.8 107.0 444.2 C 107.1 443.6 107.2 443.1 107.3 442.8 C 107.5 442.5 107.4 442.2 107.2 442.1 C 107.0 442.0 106.2 441.4 106.2 441.4 C 106.2 441.4 106.1 440.9 106.2 440.7 C 106.4 440.6 106.9 440.5 107.0 440.6 C 107.2 440.7 107.7 440.7 107.8 440.3 C 107.9 440.0 108.5 438.4 108.2 438.1 C 107.9 437.8 107.6 437.9 107.5 437.7 C 107.4 437.4 107.4 436.1 107.6 436.0 C 107.8 435.9 108.3 436.0 108.3 435.6 C 108.2 435.2 108.4 434.3 108.2 434.3 C 108.1 434.3 108.0 434.1 107.7 434.1 C 107.4 434.1 107.2 433.4 107.0 433.3 C 106.9 433.2 106.8 432.7 106.8 432.7 C 107.0 432.5 107.2 432.3 107.3 432.1 C 107.3 432.1 107.8 432.5 107.9 432.6 C 108.0 432.8 108.3 432.5 108.4 432.3 C 108.4 432.1 108.3 430.7 108.3 430.7 C 107.9 430.6 107.6 430.6 107.2 430.6 C 107.1 430.2 107.0 429.8 106.9 429.5 C 106.9 429.5 108.3 429.6 108.3 428.9 C 108.3 428.3 108.2 427.5 108.2 427.5 C 108.2 427.5 107.7 427.0 107.7 426.8 C 107.6 426.7 106.4 426.7 106.4 426.7 C 105.9 426.8 105.5 426.8 105.0 426.9 C 105.0 426.9 104.6 427.5 104.8 427.9 C 105.0 428.3 105.5 428.0 105.7 428.0 C 105.9 428.1 106.2 428.7 106.2 428.7 C 105.9 429.0 105.7 429.3 105.4 429.6 C 105.4 429.6 105.2 429.9 105.0 430.2 C 104.7 430.5 104.6 431.7 104.7 432.0 C 104.8 432.2 105.1 432.5 105.3 432.8 C 105.6 433.1 106.0 433.0 105.6 433.4 C 105.3 433.8 105.0 433.9 105.0 434.1 C 105.0 434.3 105.4 435.4 105.4 435.4 C 105.5 435.7 105.6 436.0 105.7 436.3 C 105.7 436.3 106.0 437.0 105.7 437.1 C 105.4 437.2 105.7 438.5 105.7 438.5 C 105.7 438.5 104.9 438.4 104.7 438.7 C 104.6 439.0 104.4 439.4 104.5 439.8 C 104.6 440.3 105.3 440.6 105.3 440.6 C 105.1 440.7 104.9 440.8 104.7 440.9 C 104.6 441.3 104.4 441.6 104.3 441.9 C 104.3 441.9 104.2 442.6 104.3 442.6 C 104.4 442.7 105.1 442.8 105.3 442.9 C 105.5 443.0 105.5 443.5 105.3 443.5 C 105.1 443.5 104.3 443.6 104.3 443.6 C 104.3 443.6 103.8 443.8 103.6 444.0 C 103.4 444.2 103.4 444.6 103.4 444.8 C 103.5 445.0 103.6 445.6 103.6 445.6 C 103.4 445.6 103.1 445.5 102.9 445.5 C 102.9 445.5 102.6 446.3 101.7 446.2 C 101.7 446.2 101.7 446.2 101.7 446.2 Z M 104.6 426.5 C 104.7 427.5 107.3 426.7 107.8 426.2 C 108.3 425.8 107.9 425.1 107.9 424.4 C 107.9 423.7 107.1 424.1 106.8 423.8 C 106.4 423.5 107.0 423.5 107.3 423.2 C 107.7 423.0 107.0 422.0 106.7 421.2 C 106.4 420.5 105.2 420.3 104.8 419.9 C 104.4 419.4 104.8 420.5 104.2 419.7 C 103.5 418.9 104.2 418.9 105.2 419.7 C 106.2 420.6 105.3 419.0 104.9 418.4 C 104.5 417.8 103.3 417.4 102.8 417.0 C 102.4 416.7 102.6 417.6 102.0 417.2 C 101.3 416.8 102.0 416.4 101.2 415.9 C 100.5 415.5 100.3 416.2 100.0 416.2 C 99.7 416.3 99.8 415.9 99.6 415.8 C 99.3 415.7 98.9 415.4 98.3 415.5 C 97.7 415.5 97.8 415.7 97.6 415.8 C 97.3 415.8 96.8 415.7 96.8 415.7 C 96.7 415.5 96.7 415.3 96.7 415.0 C 96.7 415.0 95.5 414.9 95.1 414.9 C 94.7 414.8 93.7 415.1 94.0 415.2 C 94.2 415.4 93.2 415.8 93.0 415.7 C 92.8 415.6 92.0 415.3 91.3 415.1 C 90.7 415.0 91.0 416.7 91.0 416.9 C 91.0 417.2 90.7 418.1 91.1 418.2 C 91.5 418.3 92.0 418.0 91.9 418.2 C 91.9 418.5 93.3 418.2 93.6 418.2 C 94.0 418.2 94.4 417.6 94.4 417.6 C 94.4 417.6 94.8 417.1 95.3 417.1 C 95.8 417.1 95.9 418.2 95.9 418.2 C 95.9 418.2 96.4 418.4 96.9 418.4 C 97.4 418.4 98.0 417.6 98.2 417.4 C 98.3 417.2 98.1 418.0 98.4 418.2 C 98.7 418.4 99.1 418.7 99.2 418.7 C 99.4 418.7 99.7 418.2 99.7 418.2 C 99.7 418.2 100.5 418.2 100.6 418.2 C 100.8 418.3 100.2 418.9 100.2 418.9 C 100.2 418.9 101.3 419.8 101.4 420.0 C 101.6 420.2 102.1 420.3 102.3 420.4 C 102.4 420.5 103.4 420.1 103.5 420.4 C 103.7 420.7 102.8 420.6 103.0 420.9 C 103.1 421.2 103.3 421.7 103.3 421.9 C 103.4 422.0 103.8 422.0 104.0 422.2 C 104.1 422.4 105.0 422.5 105.2 422.9 C 105.3 423.3 104.9 423.6 104.8 423.7 C 104.8 423.9 104.2 424.1 104.2 424.4 C 104.2 424.6 104.6 424.4 104.7 424.6 C 104.7 424.9 105.2 424.8 105.2 425.1 C 105.1 425.4 104.3 425.3 104.4 425.6 C 104.5 425.8 104.5 425.6 104.6 426.5 C 104.6 426.5 104.6 426.5 104.6 426.5 Z M 90.2 418.1 C 90.7 418.5 91.2 418.0 91.1 417.7 C 91.0 417.3 90.9 416.3 91.0 416.0 C 91.2 415.8 91.9 415.1 90.9 414.9 C 90.0 414.8 89.8 415.1 89.8 415.3 C 89.8 415.5 89.6 416.5 89.4 416.4 C 89.1 416.4 88.9 416.1 88.8 415.9 C 88.7 415.8 88.4 414.8 87.9 415.0 C 87.5 415.1 87.1 415.4 87.1 415.4 C 86.8 415.4 86.6 415.4 86.4 415.4 C 86.4 415.4 85.8 414.8 85.3 415.0 C 84.8 415.1 84.2 415.1 83.8 415.1 C 83.4 415.0 83.1 415.1 83.0 415.3 C 82.9 415.6 82.5 416.4 82.5 416.4 C 82.5 416.4 81.9 416.6 81.6 416.5 C 81.4 416.4 81.3 415.9 81.4 415.7 C 81.5 415.5 81.4 415.1 81.0 415.0 C 80.6 414.9 79.0 414.4 78.8 414.7 C 78.5 415.0 78.6 415.3 78.4 415.4 C 78.2 415.5 77.1 415.6 77.1 415.3 C 77.0 415.1 77.0 414.6 76.7 414.6 C 76.4 414.7 75.8 414.6 75.8 414.7 C 75.8 414.8 75.6 415.0 75.6 415.2 C 75.5 415.5 74.9 415.8 74.8 415.9 C 74.7 416.0 74.2 416.1 74.2 416.1 C 74.0 415.9 73.8 415.8 73.6 415.6 C 73.6 415.6 73.9 415.1 74.1 415.0 C 74.3 414.9 74.0 414.6 73.8 414.6 C 73.6 414.5 72.4 414.6 72.4 414.6 C 72.4 415.0 72.4 415.4 72.4 415.8 C 72.1 415.8 71.8 415.9 71.5 416.0 C 71.5 416.0 71.6 414.6 71.1 414.6 C 70.5 414.6 69.8 414.6 69.8 414.6 C 69.8 414.6 69.2 415.2 69.1 415.2 C 68.9 415.2 68.9 416.4 68.9 416.4 C 68.9 416.9 69.0 417.4 69.0 417.8 C 69.0 417.8 69.7 418.3 70.1 418.1 C 70.4 417.9 70.1 417.4 70.2 417.2 C 70.3 417.0 70.8 416.7 70.8 416.7 C 71.1 417.0 71.3 417.2 71.6 417.5 C 71.6 417.5 71.8 417.7 72.1 418.0 C 72.3 418.2 73.2 418.3 73.4 418.3 C 73.7 418.2 73.9 417.8 74.2 417.6 C 74.5 417.4 74.5 417.0 74.9 417.3 C 75.2 417.6 75.4 418.0 75.6 418.0 C 75.8 418.0 76.6 417.5 76.6 417.5 C 76.8 417.4 77.1 417.3 77.3 417.2 C 77.3 417.2 77.9 417.0 78.0 417.2 C 78.1 417.5 79.3 417.2 79.3 417.2 C 79.3 417.2 79.2 418.0 79.5 418.2 C 79.8 418.3 80.3 418.5 80.8 418.3 C 81.3 418.2 81.6 417.4 81.6 417.4 C 81.8 417.6 82.0 417.8 82.1 418.0 C 82.6 418.1 83.0 418.2 83.5 418.2 C 83.5 418.2 84.6 418.2 84.6 418.0 C 84.6 417.9 84.4 417.2 84.5 417.0 C 84.6 416.8 85.1 416.6 85.2 416.8 C 85.3 417.0 85.8 417.7 85.8 417.7 C 85.8 417.7 86.2 418.1 86.5 418.2 C 86.8 418.2 87.3 418.0 87.4 417.8 C 87.6 417.7 88.1 417.2 88.1 417.2 C 88.2 417.4 88.3 417.6 88.5 417.8 C 88.5 417.8 89.3 417.5 90.2 418.1 C 90.2 418.1 90.2 418.1 90.2 418.1 Z M 68.5 418.3 C 69.7 418.2 68.9 415.6 68.5 415.0 C 68.1 414.5 67.3 414.8 66.6 414.7 C 65.8 414.6 66.1 415.5 65.7 415.7 C 65.2 416.0 65.4 415.4 65.2 415.0 C 65.0 414.6 63.9 415.0 63.2 414.9 C 62.5 414.9 61.8 415.8 61.3 415.8 C 60.7 415.9 61.7 416.3 60.8 416.3 C 59.8 416.2 60.3 415.7 61.4 415.4 C 62.5 415.2 60.9 414.9 60.3 414.8 C 59.7 414.7 58.7 415.1 58.2 415.1 C 57.7 415.0 58.4 415.7 57.4 415.7 C 56.4 415.7 56.9 415.0 56.0 414.9 C 55.1 414.8 55.2 415.4 54.8 415.6 C 54.4 415.7 54.5 415.3 54.2 415.3 C 53.8 415.3 53.3 415.1 52.7 415.3 C 52.0 415.5 52.2 415.6 51.9 415.7 C 51.7 415.8 51.2 415.9 51.2 415.9 C 51.1 415.6 51.0 415.4 51.0 415.2 C 51.0 415.2 49.9 415.4 49.5 415.4 C 49.2 415.4 48.6 415.9 48.8 416.0 C 49.0 416.1 48.3 416.8 48.1 416.8 C 47.9 416.8 47.1 416.8 46.6 416.9 C 46.1 417.0 47.2 418.4 47.3 418.6 C 47.5 418.8 47.8 419.7 48.1 419.6 C 48.4 419.5 48.5 419.1 48.5 419.4 C 48.6 419.6 49.3 419.0 49.6 418.9 C 49.8 418.8 49.8 418.1 49.8 418.1 C 49.8 418.1 49.9 417.6 50.2 417.5 C 50.6 417.4 50.9 418.4 50.9 418.4 C 50.9 418.4 51.4 418.5 51.9 418.4 C 52.3 418.3 52.9 417.4 53.0 417.2 C 53.1 417.0 53.1 417.8 53.5 417.9 C 53.9 418.0 54.6 418.2 54.8 418.2 C 55.0 418.1 55.3 417.6 55.3 417.6 C 55.3 417.6 56.2 417.2 56.5 417.2 C 56.7 417.2 56.3 418.0 56.3 418.0 C 56.3 418.0 58.4 418.3 58.8 418.3 C 59.1 418.4 59.7 418.2 59.9 418.1 C 60.1 418.1 60.5 417.1 60.9 417.2 C 61.2 417.3 60.5 417.8 60.9 417.9 C 61.2 418.0 61.9 418.2 62.1 418.2 C 62.3 418.2 62.5 417.9 62.8 417.8 C 63.1 417.8 63.6 417.0 64.1 417.0 C 64.6 417.0 64.8 417.5 65.0 417.6 C 65.2 417.7 65.3 418.3 65.7 418.3 C 66.1 418.4 65.8 417.9 66.2 417.9 C 66.5 417.9 66.5 417.4 66.9 417.5 C 67.3 417.6 67.0 418.4 67.4 418.3 C 67.6 418.3 67.4 418.3 68.5 418.3 C 68.5 418.3 68.5 418.3 68.5 418.3 Z M 46.1 420.3 C 46.2 420.1 46.6 420.3 47.1 420.1 C 47.6 419.9 48.1 419.6 47.9 419.4 C 47.6 419.2 47.3 419.1 47.3 418.6 C 47.3 418.1 47.3 417.3 46.8 417.3 C 46.2 417.4 44.3 418.1 44.1 418.8 C 44.0 419.5 44.0 419.8 44.0 420.2 C 43.9 420.7 43.4 420.0 43.4 420.0 C 43.4 420.0 42.8 420.9 42.4 421.5 C 42.1 422.2 41.8 423.0 41.9 423.1 C 42.1 423.2 42.3 423.5 42.3 423.5 C 42.3 423.5 41.8 423.7 41.7 424.1 C 41.5 424.5 41.8 424.4 42.0 424.4 C 42.2 424.3 42.8 423.9 42.7 424.1 C 42.7 424.3 41.8 424.7 41.7 425.0 C 41.6 425.3 41.6 426.1 41.6 426.1 C 41.6 426.1 42.0 426.0 42.1 426.1 C 42.2 426.2 42.2 426.9 42.1 427.0 C 41.9 427.0 41.4 426.9 41.4 427.3 C 41.2 428.6 42.1 428.5 42.2 428.6 C 42.2 428.7 41.5 428.7 41.4 429.0 C 41.3 429.4 41.4 432.4 41.5 432.5 C 41.7 432.6 41.1 433.4 41.5 433.8 C 41.9 434.1 42.1 434.3 42.2 434.3 C 42.3 434.4 43.0 435.0 42.7 435.3 C 42.4 435.6 41.7 434.3 41.5 434.7 C 41.3 435.1 41.2 437.1 41.4 437.3 C 41.7 437.8 42.4 437.9 42.4 438.1 C 42.4 438.3 41.6 439.2 41.7 439.3 C 41.9 439.4 42.6 439.4 42.7 439.4 C 42.8 439.4 44.1 439.6 44.3 439.4 C 44.4 439.2 44.9 438.4 44.5 438.5 C 44.1 438.6 43.7 438.8 43.5 438.5 C 43.4 438.2 43.3 438.0 43.5 437.9 C 43.6 437.9 43.8 438.1 44.0 437.5 C 44.2 436.9 44.5 437.2 44.5 436.6 C 44.4 436.0 44.4 435.4 44.1 435.4 C 43.8 435.5 43.4 434.7 43.4 434.3 C 43.5 434.0 44.1 434.6 44.3 433.4 C 44.6 432.3 44.6 431.5 44.4 431.1 C 44.1 430.6 43.4 430.5 43.7 429.9 C 44.1 429.2 44.2 429.5 44.2 428.7 C 44.2 427.9 43.7 427.7 43.7 427.2 C 43.7 426.8 43.7 426.7 43.7 426.7 C 43.7 426.7 44.5 426.9 44.6 426.0 C 44.7 425.2 44.9 425.1 44.2 425.2 C 43.6 425.3 43.7 424.7 44.1 424.7 C 44.5 424.7 44.8 424.4 44.9 424.1 C 45.0 423.9 44.0 423.6 44.0 423.4 C 44.1 423.3 44.2 423.1 44.5 423.3 C 44.8 423.5 44.9 423.2 45.1 423.1 C 45.3 422.9 45.6 422.1 45.4 422.0 C 45.3 422.0 44.5 422.0 45.1 421.6 C 45.7 421.3 46.1 421.5 46.4 421.1 C 46.7 420.7 46.0 420.7 46.1 420.3 C 46.1 420.3 46.1 420.3 46.1 420.3 Z M 44.5 440.1 C 44.8 439.7 44.4 439.3 44.0 439.4 C 43.6 439.4 42.7 439.7 42.4 439.5 C 42.1 439.4 41.4 438.8 41.3 439.7 C 41.2 440.6 41.5 440.8 41.7 440.7 C 42.0 440.7 43.0 440.8 42.9 441.0 C 42.9 441.2 42.6 441.5 42.5 441.5 C 42.4 441.6 41.5 442.1 41.7 442.5 C 41.9 442.8 42.3 443.1 42.3 443.1 C 42.3 443.3 42.4 443.5 42.5 443.7 C 42.5 443.7 42.2 444.6 42.6 445.1 C 43.0 445.5 43.3 446.1 43.5 446.4 C 43.7 446.8 44.1 447.1 44.3 447.0 C 44.5 446.9 45.5 446.7 45.5 446.7 C 45.5 446.7 46.0 446.9 46.1 447.2 C 46.2 447.5 46.0 447.9 45.8 448.0 C 45.6 448.1 45.4 448.5 45.7 448.8 C 46.0 449.1 47.4 450.5 47.8 450.4 C 48.2 450.2 48.2 449.9 48.5 449.8 C 48.7 449.8 49.6 450.1 49.7 450.3 C 49.7 450.5 49.5 451.0 49.8 451.0 C 50.1 451.1 50.6 451.3 50.6 451.2 C 50.7 451.0 50.9 450.9 50.9 450.6 C 51.0 450.4 51.6 450.2 51.7 450.1 C 51.8 450.0 52.3 450.0 52.3 450.0 C 52.4 450.1 52.6 450.3 52.8 450.5 C 52.8 450.5 52.4 451.0 52.2 451.0 C 52.0 451.1 52.3 451.5 52.5 451.5 C 52.7 451.6 53.9 451.5 53.9 451.5 C 53.9 451.2 54.0 450.8 54.0 450.4 C 54.3 450.3 54.6 450.2 55.0 450.2 C 55.0 450.2 54.8 451.5 55.5 451.5 C 56.1 451.5 57.0 451.5 57.0 451.5 C 57.0 451.5 57.8 451.0 58.1 451.0 C 58.3 450.9 58.4 449.7 58.4 449.7 C 58.3 449.3 58.2 448.8 58.2 448.3 C 58.2 448.3 57.2 447.9 56.7 448.1 C 56.2 448.2 56.6 448.8 56.5 449.0 C 56.5 449.2 55.8 449.4 55.8 449.4 C 55.5 449.2 55.2 448.9 54.9 448.6 C 54.9 448.6 54.6 448.4 54.4 448.2 C 54.1 447.9 53.3 447.8 53.1 447.8 C 52.9 447.9 52.6 448.2 52.3 448.4 C 52.1 448.6 52.1 449.1 51.8 448.7 C 51.5 448.4 51.4 448.0 51.3 447.9 C 51.2 447.9 50.5 448.3 50.5 448.3 C 50.3 448.3 50.1 448.4 49.9 448.5 C 49.9 448.5 49.4 448.6 49.4 448.3 C 49.5 448.0 48.4 447.9 48.4 447.9 C 48.4 447.9 48.8 447.2 48.7 446.9 C 48.5 446.7 48.3 446.3 47.9 446.2 C 47.5 446.1 46.7 446.5 46.7 446.5 C 46.8 446.3 46.8 446.0 46.8 445.8 C 46.6 445.5 46.4 445.1 46.2 444.8 C 46.2 444.8 45.7 444.1 45.6 444.2 C 45.5 444.3 44.9 444.7 44.7 444.8 C 44.5 444.8 44.1 444.4 44.3 444.3 C 44.4 444.1 44.8 443.4 44.8 443.4 C 44.8 443.4 45.1 443.0 45.1 442.8 C 45.0 442.5 44.7 442.3 44.6 442.2 C 44.4 442.2 43.8 441.9 43.8 441.9 C 44.0 441.8 44.2 441.6 44.4 441.5 C 44.4 441.5 44.0 440.9 44.5 440.1 C 44.5 440.1 44.5 440.1 44.5 440.1 Z M 44.5 440.1 " fill="#71AFE1"></path></g></svg>