<?xml version="1.0" encoding="UTF-8" standalone="no"?><svg xmlns="http://www.w3.org/2000/svg" xmlns:xlink="http://www.w3.org/1999/xlink" clip-rule="evenodd" stroke-miterlimit="4.00" viewBox="0 0 1024 768"><desc>SVG generated by Keynote</desc><defs></defs><g transform="matrix(1.00, 0.00, -0.00, -1.00, 0.0, 768.0)"><g><clipPath id="clip-443"><path d="M 0.0 768.0 L 1024.0 768.0 L 1024.0 0.0 L 0.0 0.0 Z M 0.0 768.0 "></path></clipPath><g clip-path="url(#clip-443)"><image xlink:href="../../86BB661C-AAFE-46F2-89B5-B98D6D644DD8/assets/DE78B55DDE70D88C6FF874E8D33A46A3.jpeg" width="1024.00" height="768.00" transform="matrix(1.00, 0.00, -0.00, -1.00, 0.0, 768.0)"></image></g></g><image xlink:href="../../86BB661C-AAFE-46F2-89B5-B98D6D644DD8/assets/610DE41026624E3AEF638D24E71EF355.png" width="74.00" height="62.00" transform="matrix(1.00, 0.00, -0.00, -1.00, 949.0, 64.0)"></image><image xlink:href="../../86BB661C-AAFE-46F2-89B5-B98D6D644DD8/assets/C79B4846A618BF06956E5E1178655E37.png" width="40.00" height="40.00" transform="matrix(1.00, 0.00, -0.00, -1.01, 966.2, 53.0)" opacity="0.50"></image><g><clipPath id="clip-444"><path d="M 996.7 43.5 C 1002.5 37.6 1002.5 28.0 996.7 22.0 C 990.9 16.1 981.4 16.1 975.6 22.0 C 969.7 28.0 969.7 37.6 975.6 43.5 C 981.4 49.5 990.9 49.5 996.7 43.5 Z M 996.7 43.5 "></path></clipPath><g clip-path="url(#clip-444)"><image xlink:href="../../86BB661C-AAFE-46F2-89B5-B98D6D644DD8/assets/DE78B55DDE70D88C6FF874E8D33A46A3.jpeg" width="1024.00" height="768.00" transform="matrix(0.04, 0.00, -0.00, -0.04, 965.9, 48.0)"></image></g></g><text xml:space="preserve" font-family="HoboStd" font-size="18.0" fill="#E5CC77" transform="matrix(1.00, 0.00, -0.00, -1.00, 976.0, 26.0)">2</text><text xml:space="preserve" font-family="HoboStd" font-size="18.0" fill="#E5CC77" transform="matrix(1.00, 0.00, -0.00, -1.00, 986.4, 26.0)">2</text><image xlink:href="../../C4DAA233-18F5-48F4-BBD0-76CE04EE7CD7/assets/3473D3183AC7159DAD1976248DDF98EB.png" width="168.00" height="139.00" transform="matrix(1.00, 0.00, -0.00, -1.00, 235.7, 654.2)" opacity="0.50"></image><g><clipPath id="clip-445"><path d="M 270.3 649.2 L 368.7 649.2 C 377.2 649.2 381.5 649.2 386.1 647.7 C 391.1 645.9 395.1 642.0 396.9 636.9 C 398.3 632.4 398.3 628.0 398.3 619.4 L 398.3 549.5 C 398.3 541.0 398.3 536.7 396.9 532.1 C 395.1 527.1 391.1 523.2 386.1 521.3 C 381.5 519.9 377.2 519.9 368.6 519.9 L 270.3 519.9 C 261.8 519.9 257.5 519.9 252.9 521.3 C 247.9 523.2 243.9 527.1 242.1 532.1 C 240.7 536.7 240.7 541.0 240.7 549.7 L 240.7 619.5 C 240.7 628.0 240.7 632.4 242.1 636.9 C 243.9 642.0 247.9 645.9 252.9 647.7 C 257.5 649.2 261.8 649.2 270.4 649.2 Z M 270.3 649.2 "></path></clipPath><g clip-path="url(#clip-445)"><image xlink:href="../../0F1C3E34-B6D3-4443-8C0C-3E94B790F8DE/assets/59DBD66EA15A3D40E065F836EF2595FD.jpeg" width="400.00" height="400.00" transform="matrix(1.00, 0.00, -0.00, -1.00, 240.7, 649.2)"></image></g></g><image xlink:href="../../C4DAA233-18F5-48F4-BBD0-76CE04EE7CD7/assets/C1DE5F05925899D1C81160A88AE40170.png" width="104.00" height="38.00" transform="matrix(1.00, 0.00, -0.00, -1.00, 269.0, 599.0)"></image><g><clipPath id="clip-446"><path d="M 231.0 519.9 L 410.9 519.9 L 410.9 649.2 L 231.0 649.2 Z M 231.0 519.9 "></path></clipPath><g clip-path="url(#clip-446)"><text xml:space="preserve" font-family="Chalkduster" font-size="32.0" fill="#FEFFFE" transform="matrix(1.00, 0.00, -0.00, -1.00, 272.0, 570.0)">L</text><text xml:space="preserve" font-family="Chalkduster" font-size="32.0" fill="#FEFFFE" transform="matrix(1.00, 0.00, -0.00, -1.00, 292.3, 570.0)">e</text><text xml:space="preserve" font-family="Chalkduster" font-size="32.0" fill="#FEFFFE" transform="matrix(1.00, 0.00, -0.00, -1.00, 311.1, 570.0)">x</text><text xml:space="preserve" font-family="Chalkduster" font-size="32.0" fill="#FEFFFE" transform="matrix(1.00, 0.00, -0.00, -1.00, 331.0, 570.0)">e</text><text xml:space="preserve" font-family="Chalkduster" font-size="32.0" fill="#FEFFFE" transform="matrix(1.00, 0.00, -0.00, -1.00, 350.5, 570.0)">r</text></g></g><image xlink:href="../../C4DAA233-18F5-48F4-BBD0-76CE04EE7CD7/assets/3473D3183AC7159DAD1976248DDF98EB.png" width="168.00" height="139.00" transform="matrix(1.00, 0.00, -0.00, -1.00, 436.9, 426.1)" opacity="0.50"></image><g><clipPath id="clip-447"><path d="M 471.5 421.1 L 569.9 421.1 C 578.4 421.1 582.7 421.1 587.3 419.7 C 592.3 417.9 596.3 413.9 598.1 408.9 C 599.6 404.3 599.6 400.0 599.6 391.4 L 599.6 321.5 C 599.6 313.0 599.6 308.7 598.1 304.1 C 596.3 299.1 592.3 295.1 587.3 293.3 C 582.7 291.8 578.4 291.8 569.8 291.8 L 471.5 291.8 C 463.0 291.8 458.7 291.8 454.1 293.3 C 449.1 295.1 445.2 299.1 443.3 304.1 C 441.9 308.7 441.9 313.0 441.9 321.6 L 441.9 391.5 C 441.9 400.0 441.9 404.3 443.3 408.9 C 445.2 413.9 449.1 417.9 454.1 419.7 C 458.7 421.1 463.0 421.1 471.7 421.1 Z M 471.5 421.1 "></path></clipPath><g clip-path="url(#clip-447)"><image xlink:href="../../0F1C3E34-B6D3-4443-8C0C-3E94B790F8DE/assets/59DBD66EA15A3D40E065F836EF2595FD.jpeg" width="400.00" height="400.00" transform="matrix(1.00, 0.00, -0.00, -1.00, 441.9, 421.1)"></image></g></g><image xlink:href="../../C4DAA233-18F5-48F4-BBD0-76CE04EE7CD7/assets/486E9D2311BE545F4E974DA80F68BC76.png" width="119.00" height="38.00" transform="matrix(1.00, 0.00, -0.00, -1.00, 463.0, 371.0)"></image><g><clipPath id="clip-448"><path d="M 432.2 291.8 L 612.1 291.8 L 612.1 421.1 L 432.2 421.1 Z M 432.2 291.8 "></path></clipPath><g clip-path="url(#clip-448)"><text xml:space="preserve" font-family="Chalkduster" font-size="32.0" fill="#FEFFFE" transform="matrix(1.00, 0.00, -0.00, -1.00, 466.0, 342.0)">P</text><text xml:space="preserve" font-family="Chalkduster" font-size="32.0" fill="#FEFFFE" transform="matrix(1.00, 0.00, -0.00, -1.00, 486.6, 342.0)">a</text><text xml:space="preserve" font-family="Chalkduster" font-size="32.0" fill="#FEFFFE" transform="matrix(1.00, 0.00, -0.00, -1.00, 507.0, 342.0)">r</text><text xml:space="preserve" font-family="Chalkduster" font-size="32.0" fill="#FEFFFE" transform="matrix(1.00, 0.00, -0.00, -1.00, 523.5, 342.0)">s</text><text xml:space="preserve" font-family="Chalkduster" font-size="32.0" fill="#FEFFFE" transform="matrix(1.00, 0.00, -0.00, -1.00, 539.7, 342.0)">e</text><text xml:space="preserve" font-family="Chalkduster" font-size="32.0" fill="#FEFFFE" transform="matrix(1.00, 0.00, -0.00, -1.00, 559.2, 342.0)">r</text></g></g><image xlink:href="../../C4DAA233-18F5-48F4-BBD0-76CE04EE7CD7/assets/3473D3183AC7159DAD1976248DDF98EB.png" width="168.00" height="139.00" transform="matrix(1.00, 0.00, -0.00, -1.00, 693.4, 199.8)" opacity="0.50"></image><g><clipPath id="clip-449"><path d="M 728.1 194.8 L 826.5 194.8 C 835.0 194.8 839.3 194.8 843.9 193.3 C 848.9 191.5 852.8 187.5 854.7 182.5 C 856.1 177.9 856.1 173.6 856.1 165.0 L 856.1 95.1 C 856.1 86.6 856.1 82.3 854.7 77.7 C 852.8 72.7 848.9 68.7 843.9 66.9 C 839.3 65.5 835.0 65.5 826.3 65.5 L 728.1 65.5 C 719.6 65.5 715.3 65.5 710.7 66.9 C 705.7 68.7 701.7 72.7 699.9 77.7 C 698.4 82.3 698.4 86.6 698.4 95.2 L 698.4 165.1 C 698.4 173.6 698.4 177.9 699.9 182.5 C 701.7 187.5 705.7 191.5 710.7 193.3 C 715.3 194.8 719.6 194.8 728.2 194.8 Z M 728.1 194.8 "></path></clipPath><g clip-path="url(#clip-449)"><image xlink:href="../../0F1C3E34-B6D3-4443-8C0C-3E94B790F8DE/assets/59DBD66EA15A3D40E065F836EF2595FD.jpeg" width="400.00" height="400.00" transform="matrix(1.00, 0.00, -0.00, -1.00, 698.4, 194.8)"></image></g></g><image xlink:href="../../C4DAA233-18F5-48F4-BBD0-76CE04EE7CD7/assets/A61E9E7473B295A098A2922A06DE4AA0.png" width="126.00" height="54.00" transform="matrix(1.00, 0.00, -0.00, -1.00, 715.0, 146.0)"></image><g><clipPath id="clip-450"><path d="M 688.7 65.5 L 868.6 65.5 L 868.6 194.8 L 688.7 194.8 Z M 688.7 65.5 "></path></clipPath><g clip-path="url(#clip-450)"><text xml:space="preserve" font-family="Chalkduster" font-size="32.0" fill="#FEFFFE" transform="matrix(1.00, 0.00, -0.00, -1.00, 719.0, 116.0)">A</text><text xml:space="preserve" font-family="Chalkduster" font-size="32.0" fill="#FEFFFE" transform="matrix(1.00, 0.00, -0.00, -1.00, 742.7, 116.0)">n</text><text xml:space="preserve" font-family="Chalkduster" font-size="32.0" fill="#FEFFFE" transform="matrix(1.00, 0.00, -0.00, -1.00, 766.1, 116.0)">a</text><text xml:space="preserve" font-family="Chalkduster" font-size="32.0" fill="#FEFFFE" transform="matrix(1.00, 0.00, -0.00, -1.00, 786.8, 116.0)">l</text><text xml:space="preserve" font-family="Chalkduster" font-size="32.0" fill="#FEFFFE" transform="matrix(1.00, 0.00, -0.00, -1.00, 799.8, 116.0)">y</text><text xml:space="preserve" font-family="Chalkduster" font-size="32.0" fill="#FEFFFE" transform="matrix(1.00, 0.00, -0.00, -1.00, 819.3, 116.0)">s</text></g></g></g></svg>