<?xml version="1.0" encoding="UTF-8" standalone="no"?><svg xmlns="http://www.w3.org/2000/svg" xmlns:xlink="http://www.w3.org/1999/xlink" clip-rule="evenodd" stroke-miterlimit="4.00" viewBox="0 0 1024 768"><desc>SVG generated by Keynote</desc><defs></defs><g transform="matrix(1.00, 0.00, -0.00, -1.00, 0.0, 768.0)"><g><clipPath id="clip-149"><path d="M 0.0 768.0 L 1024.0 768.0 L 1024.0 0.0 L 0.0 0.0 Z M 0.0 768.0 "></path></clipPath><g clip-path="url(#clip-149)"><image xlink:href="../../86BB661C-AAFE-46F2-89B5-B98D6D644DD8/assets/DE78B55DDE70D88C6FF874E8D33A46A3.jpeg" width="1024.00" height="768.00" transform="matrix(1.00, 0.00, -0.00, -1.00, 0.0, 768.0)"></image></g></g><image xlink:href="../../86BB661C-AAFE-46F2-89B5-B98D6D644DD8/assets/610DE41026624E3AEF638D24E71EF355.png" width="74.00" height="62.00" transform="matrix(1.00, 0.00, -0.00, -1.00, 949.0, 64.0)"></image><image xlink:href="../../86BB661C-AAFE-46F2-89B5-B98D6D644DD8/assets/C79B4846A618BF06956E5E1178655E37.png" width="40.00" height="40.00" transform="matrix(1.00, 0.00, -0.00, -1.01, 966.2, 53.0)" opacity="0.50"></image><g><clipPath id="clip-150"><path d="M 996.7 43.5 C 1002.5 37.6 1002.5 28.0 996.7 22.0 C 990.9 16.1 981.4 16.1 975.6 22.0 C 969.7 28.0 969.7 37.6 975.6 43.5 C 981.4 49.5 990.9 49.5 996.7 43.5 Z M 996.7 43.5 "></path></clipPath><g clip-path="url(#clip-150)"><image xlink:href="../../86BB661C-AAFE-46F2-89B5-B98D6D644DD8/assets/DE78B55DDE70D88C6FF874E8D33A46A3.jpeg" width="1024.00" height="768.00" transform="matrix(0.04, 0.00, -0.00, -0.04, 965.9, 48.0)"></image></g></g><text xml:space="preserve" font-family="HoboStd" font-size="18.0" fill="#E5CC77" transform="matrix(1.00, 0.00, -0.00, -1.00, 976.0, 26.0)">1</text><text xml:space="preserve" font-family="HoboStd" font-size="18.0" fill="#E5CC77" transform="matrix(1.00, 0.00, -0.00, -1.00, 986.4, 26.0)">4</text><g><clipPath id="clip-151"><path d="M 63.0 607.0 L 961.6 607.0 L 961.6 141.4 L 63.0 141.4 Z M 63.0 607.0 "></path></clipPath><g clip-path="url(#clip-151)"><path d="M 63.0 607.0 L 212.8 607.0 L 212.8 554.0 L 63.0 554.0 Z M 63.0 607.0 " fill="#FFBC5C" fill-opacity="0.82"></path><path d="M 212.8 607.0 L 362.5 607.0 L 362.5 554.0 L 212.8 554.0 Z M 212.8 607.0 " fill="#FFBC5C" fill-opacity="0.82"></path><path d="M 362.5 607.0 L 512.3 607.0 L 512.3 554.0 L 362.5 554.0 Z M 362.5 607.0 " fill="#FFBC5C" fill-opacity="0.82"></path><path d="M 512.3 607.0 L 662.0 607.0 L 662.0 554.0 L 512.3 554.0 Z M 512.3 607.0 " fill="#FFBC5C" fill-opacity="0.82"></path><path d="M 662.0 607.0 L 811.8 607.0 L 811.8 554.0 L 662.0 554.0 Z M 662.0 607.0 " fill="#FFBC5C" fill-opacity="0.82"></path><path d="M 811.8 607.0 L 961.6 607.0 L 961.6 554.0 L 811.8 554.0 Z M 811.8 607.0 " fill="#FFBC5C" fill-opacity="0.82"></path><path d="M 63.0 554.0 L 212.8 554.0 L 212.8 388.8 L 63.0 388.8 Z M 63.0 554.0 " fill="#454545" fill-opacity="0.41"></path><path d="M 63.0 388.8 L 212.8 388.8 L 212.8 337.1 L 63.0 337.1 Z M 63.0 388.8 " fill="#454545" fill-opacity="0.41"></path><path d="M 63.0 337.1 L 212.8 337.1 L 212.8 223.9 L 63.0 223.9 Z M 63.0 337.1 " fill="#454545" fill-opacity="0.41"></path><path d="M 63.0 223.9 L 212.8 223.9 L 212.8 141.4 L 63.0 141.4 Z M 63.0 223.9 " fill="#454545" fill-opacity="0.41"></path></g></g><g><clipPath id="clip-152"><path d="M 63.0 607.0 L 961.6 607.0 L 961.6 141.4 L 63.0 141.4 Z M 63.0 607.0 "></path></clipPath><g clip-path="url(#clip-152)"><g><clipPath id="clip-153"><path d="M 212.8 555.0 L 362.5 555.0 L 362.5 607.0 L 212.8 607.0 Z M 212.8 555.0 "></path></clipPath><g clip-path="url(#clip-153)"><text xml:space="preserve" font-family="Chalkduster" font-size="20.0" fill="#282A2E" transform="matrix(1.00, 0.00, -0.00, -1.00, 243.0, 571.0)">M</text><text xml:space="preserve" font-family="Chalkduster" font-size="20.0" fill="#282A2E" transform="matrix(1.00, 0.00, -0.00, -1.00, 260.4, 571.0)">o</text><text xml:space="preserve" font-family="Chalkduster" font-size="20.0" fill="#282A2E" transform="matrix(1.00, 0.00, -0.00, -1.00, 275.2, 571.0)">n</text><text xml:space="preserve" font-family="Chalkduster" font-size="20.0" fill="#282A2E" transform="matrix(1.00, 0.00, -0.00, -1.00, 289.9, 571.0)">d</text><text xml:space="preserve" font-family="Chalkduster" font-size="20.0" fill="#282A2E" transform="matrix(1.00, 0.00, -0.00, -1.00, 305.5, 571.0)">a</text><text xml:space="preserve" font-family="Chalkduster" font-size="20.0" fill="#282A2E" transform="matrix(1.00, 0.00, -0.00, -1.00, 319.3, 571.0)">y</text></g></g></g></g><g><clipPath id="clip-154"><path d="M 63.0 607.0 L 961.6 607.0 L 961.6 141.4 L 63.0 141.4 Z M 63.0 607.0 "></path></clipPath><g clip-path="url(#clip-154)"><g><clipPath id="clip-155"><path d="M 362.5 555.0 L 512.3 555.0 L 512.3 607.0 L 362.5 607.0 Z M 362.5 555.0 "></path></clipPath><g clip-path="url(#clip-155)"><text xml:space="preserve" font-family="Chalkduster" font-size="20.0" fill="#282A2E" transform="matrix(1.00, 0.00, -0.00, -1.00, 392.0, 571.0)">T</text><text xml:space="preserve" font-family="Chalkduster" font-size="20.0" fill="#282A2E" transform="matrix(1.00, 0.00, -0.00, -1.00, 405.5, 571.0)">u</text><text xml:space="preserve" font-family="Chalkduster" font-size="20.0" fill="#282A2E" transform="matrix(1.00, 0.00, -0.00, -1.00, 419.2, 571.0)">e</text><text xml:space="preserve" font-family="Chalkduster" font-size="20.0" fill="#282A2E" transform="matrix(1.00, 0.00, -0.00, -1.00, 432.1, 571.0)">s</text><text xml:space="preserve" font-family="Chalkduster" font-size="20.0" fill="#282A2E" transform="matrix(1.00, 0.00, -0.00, -1.00, 442.2, 571.0)">d</text><text xml:space="preserve" font-family="Chalkduster" font-size="20.0" fill="#282A2E" transform="matrix(1.00, 0.00, -0.00, -1.00, 457.8, 571.0)">a</text><text xml:space="preserve" font-family="Chalkduster" font-size="20.0" fill="#282A2E" transform="matrix(1.00, 0.00, -0.00, -1.00, 471.6, 571.0)">y</text></g></g></g></g><g><clipPath id="clip-156"><path d="M 63.0 607.0 L 961.6 607.0 L 961.6 141.4 L 63.0 141.4 Z M 63.0 607.0 "></path></clipPath><g clip-path="url(#clip-156)"><g><clipPath id="clip-157"><path d="M 512.3 555.0 L 662.0 555.0 L 662.0 607.0 L 512.3 607.0 Z M 512.3 555.0 "></path></clipPath><g clip-path="url(#clip-157)"><text xml:space="preserve" font-family="Chalkduster" font-size="20.0" fill="#282A2E" transform="matrix(1.00, 0.00, -0.00, -1.00, 524.0, 571.0)">W</text><text xml:space="preserve" font-family="Chalkduster" font-size="20.0" fill="#282A2E" transform="matrix(1.00, 0.00, -0.00, -1.00, 542.5, 571.0)">e</text><text xml:space="preserve" font-family="Chalkduster" font-size="20.0" fill="#282A2E" transform="matrix(1.00, 0.00, -0.00, -1.00, 555.6, 571.0)">d</text><text xml:space="preserve" font-family="Chalkduster" font-size="20.0" fill="#282A2E" transform="matrix(1.00, 0.00, -0.00, -1.00, 571.2, 571.0)">n</text><text xml:space="preserve" font-family="Chalkduster" font-size="20.0" fill="#282A2E" transform="matrix(1.00, 0.00, -0.00, -1.00, 586.2, 571.0)">e</text><text xml:space="preserve" font-family="Chalkduster" font-size="20.0" fill="#282A2E" transform="matrix(1.00, 0.00, -0.00, -1.00, 599.0, 571.0)">s</text><text xml:space="preserve" font-family="Chalkduster" font-size="20.0" fill="#282A2E" transform="matrix(1.00, 0.00, -0.00, -1.00, 609.1, 571.0)">d</text><text xml:space="preserve" font-family="Chalkduster" font-size="20.0" fill="#282A2E" transform="matrix(1.00, 0.00, -0.00, -1.00, 624.8, 571.0)">a</text><text xml:space="preserve" font-family="Chalkduster" font-size="20.0" fill="#282A2E" transform="matrix(1.00, 0.00, -0.00, -1.00, 638.6, 571.0)">y</text></g></g></g></g><g><clipPath id="clip-158"><path d="M 63.0 607.0 L 961.6 607.0 L 961.6 141.4 L 63.0 141.4 Z M 63.0 607.0 "></path></clipPath><g clip-path="url(#clip-158)"><g><clipPath id="clip-159"><path d="M 662.0 555.0 L 811.8 555.0 L 811.8 607.0 L 662.0 607.0 Z M 662.0 555.0 "></path></clipPath><g clip-path="url(#clip-159)"><text xml:space="preserve" font-family="Chalkduster" font-size="20.0" fill="#282A2E" transform="matrix(1.00, 0.00, -0.00, -1.00, 685.0, 571.0)">T</text><text xml:space="preserve" font-family="Chalkduster" font-size="20.0" fill="#282A2E" transform="matrix(1.00, 0.00, -0.00, -1.00, 700.4, 571.0)">h</text><text xml:space="preserve" font-family="Chalkduster" font-size="20.0" fill="#282A2E" transform="matrix(1.00, 0.00, -0.00, -1.00, 712.7, 571.0)">u</text><text xml:space="preserve" font-family="Chalkduster" font-size="20.0" fill="#282A2E" transform="matrix(1.00, 0.00, -0.00, -1.00, 726.8, 571.0)">r</text><text xml:space="preserve" font-family="Chalkduster" font-size="20.0" fill="#282A2E" transform="matrix(1.00, 0.00, -0.00, -1.00, 737.1, 571.0)">s</text><text xml:space="preserve" font-family="Chalkduster" font-size="20.0" fill="#282A2E" transform="matrix(1.00, 0.00, -0.00, -1.00, 747.2, 571.0)">d</text><text xml:space="preserve" font-family="Chalkduster" font-size="20.0" fill="#282A2E" transform="matrix(1.00, 0.00, -0.00, -1.00, 762.8, 571.0)">a</text><text xml:space="preserve" font-family="Chalkduster" font-size="20.0" fill="#282A2E" transform="matrix(1.00, 0.00, -0.00, -1.00, 776.6, 571.0)">y</text></g></g></g></g><g><clipPath id="clip-160"><path d="M 63.0 607.0 L 961.6 607.0 L 961.6 141.4 L 63.0 141.4 Z M 63.0 607.0 "></path></clipPath><g clip-path="url(#clip-160)"><g><clipPath id="clip-161"><path d="M 811.8 555.0 L 961.6 555.0 L 961.6 607.0 L 811.8 607.0 Z M 811.8 555.0 "></path></clipPath><g clip-path="url(#clip-161)"><text xml:space="preserve" font-family="Chalkduster" font-size="20.0" fill="#282A2E" transform="matrix(1.00, 0.00, -0.00, -1.00, 849.0, 571.0)">F</text><text xml:space="preserve" font-family="Chalkduster" font-size="20.0" fill="#282A2E" transform="matrix(1.00, 0.00, -0.00, -1.00, 863.4, 571.0)">r</text><text xml:space="preserve" font-family="Chalkduster" font-size="20.0" fill="#282A2E" transform="matrix(1.00, 0.00, -0.00, -1.00, 874.5, 571.0)">i</text><text xml:space="preserve" font-family="Chalkduster" font-size="20.0" fill="#282A2E" transform="matrix(1.00, 0.00, -0.00, -1.00, 883.1, 571.0)">d</text><text xml:space="preserve" font-family="Chalkduster" font-size="20.0" fill="#282A2E" transform="matrix(1.00, 0.00, -0.00, -1.00, 898.7, 571.0)">a</text><text xml:space="preserve" font-family="Chalkduster" font-size="20.0" fill="#282A2E" transform="matrix(1.00, 0.00, -0.00, -1.00, 912.5, 571.0)">y</text></g></g></g></g><image xlink:href="../../06CCC27B-670E-4A1A-97C4-EDA68A2117DD/assets/E01F31CBB90D06BF013FDD7F7A496D49.png" width="140.00" height="27.00" transform="matrix(1.00, 0.00, -0.00, -1.00, 67.0, 481.0)"></image><g><clipPath id="clip-162"><path d="M 63.0 607.0 L 961.6 607.0 L 961.6 141.4 L 63.0 141.4 Z M 63.0 607.0 "></path></clipPath><g clip-path="url(#clip-162)"><g><clipPath id="clip-163"><path d="M 63.0 388.8 L 212.3 388.8 L 212.3 553.0 L 63.0 553.0 Z M 63.0 388.8 "></path></clipPath><g clip-path="url(#clip-163)"><text xml:space="preserve" font-family="Chalkduster" font-size="20.0" fill="#FEFFFE" transform="matrix(1.00, 0.00, -0.00, -1.00, 72.0, 461.0)">0</text><text xml:space="preserve" font-family="Chalkduster" font-size="20.0" fill="#FEFFFE" transform="matrix(1.00, 0.00, -0.00, -1.00, 85.8, 461.0)">9</text><text xml:space="preserve" font-family="Chalkduster" font-size="20.0" fill="#FEFFFE" transform="matrix(1.00, 0.00, -0.00, -1.00, 97.9, 461.0)">:</text><text xml:space="preserve" font-family="Chalkduster" font-size="20.0" fill="#FEFFFE" transform="matrix(1.00, 0.00, -0.00, -1.00, 104.4, 461.0)">0</text><text xml:space="preserve" font-family="Chalkduster" font-size="20.0" fill="#FEFFFE" transform="matrix(1.00, 0.00, -0.00, -1.00, 118.5, 461.0)">0</text><text xml:space="preserve" font-family="Chalkduster" font-size="20.0" fill="#FEFFFE" transform="matrix(1.00, 0.00, -0.00, -1.00, 133.2, 461.0)">-</text><text xml:space="preserve" font-family="Chalkduster" font-size="20.0" fill="#FEFFFE" transform="matrix(1.00, 0.00, -0.00, -1.00, 145.3, 461.0)">1</text><text xml:space="preserve" font-family="Chalkduster" font-size="20.0" fill="#FEFFFE" transform="matrix(1.00, 0.00, -0.00, -1.00, 157.0, 461.0)">2</text><text xml:space="preserve" font-family="Chalkduster" font-size="20.0" fill="#FEFFFE" transform="matrix(1.00, 0.00, -0.00, -1.00, 168.2, 461.0)">:</text><text xml:space="preserve" font-family="Chalkduster" font-size="20.0" fill="#FEFFFE" transform="matrix(1.00, 0.00, -0.00, -1.00, 174.8, 461.0)">0</text><text xml:space="preserve" font-family="Chalkduster" font-size="20.0" fill="#FEFFFE" transform="matrix(1.00, 0.00, -0.00, -1.00, 188.9, 461.0)">0</text></g></g></g></g><image xlink:href="A25D4513DC4BC546756249838A54CDCD.png" width="118.00" height="29.00" transform="matrix(1.00, 0.00, -0.00, -1.00, 453.0, 485.0)"></image><g><clipPath id="clip-164"><path d="M 63.0 607.0 L 961.6 607.0 L 961.6 141.4 L 63.0 141.4 Z M 63.0 607.0 "></path></clipPath><g clip-path="url(#clip-164)"><g><clipPath id="clip-165"><path d="M 213.3 389.8 L 961.6 389.8 L 961.6 553.0 L 213.3 553.0 Z M 213.3 389.8 "></path></clipPath><g clip-path="url(#clip-165)"><text xml:space="preserve" font-family="Chalkduster" font-size="20.0" fill="#FEFFFE" transform="matrix(1.00, 0.00, -0.00, -1.00, 458.0, 462.0)">H</text><text xml:space="preserve" font-family="Chalkduster" font-size="20.0" fill="#FEFFFE" transform="matrix(1.00, 0.00, -0.00, -1.00, 470.3, 462.0)">a</text><text xml:space="preserve" font-family="Chalkduster" font-size="20.0" fill="#FEFFFE" transform="matrix(1.00, 0.00, -0.00, -1.00, 484.1, 462.0)">n</text><text xml:space="preserve" font-family="Chalkduster" font-size="20.0" fill="#FEFFFE" transform="matrix(1.00, 0.00, -0.00, -1.00, 498.8, 462.0)">d</text><text xml:space="preserve" font-family="Chalkduster" font-size="20.0" fill="#FEFFFE" transform="matrix(1.00, 0.00, -0.00, -1.00, 515.0, 462.0)">s</text><text xml:space="preserve" font-family="Chalkduster" font-size="20.0" fill="#FEFFFE" transform="matrix(1.00, 0.00, -0.00, -1.00, 524.2, 462.0)">-</text><text xml:space="preserve" font-family="Chalkduster" font-size="20.0" fill="#FEFFFE" transform="matrix(1.00, 0.00, -0.00, -1.00, 536.3, 462.0)">o</text><text xml:space="preserve" font-family="Chalkduster" font-size="20.0" fill="#FEFFFE" transform="matrix(1.00, 0.00, -0.00, -1.00, 551.2, 462.0)">n</text></g></g></g></g><image xlink:href="532B55E982DDA2BA9A8D2985CE659926.png" width="152.00" height="40.00" transform="matrix(1.00, 0.00, -0.00, -1.00, 571.0, 486.0)"></image><g><clipPath id="clip-166"><path d="M 63.0 607.0 L 961.6 607.0 L 961.6 141.4 L 63.0 141.4 Z M 63.0 607.0 "></path></clipPath><g clip-path="url(#clip-166)"><g><clipPath id="clip-167"><path d="M 213.3 389.8 L 961.6 389.8 L 961.6 553.0 L 213.3 553.0 Z M 213.3 389.8 "></path></clipPath><g clip-path="url(#clip-167)"><text xml:space="preserve" font-family="Chalkduster" font-size="20.0" fill="#FEFFFE" transform="matrix(1.00, 0.00, -0.00, -1.00, 565.8, 462.0)"> </text><text xml:space="preserve" font-family="Chalkduster" font-size="20.0" fill="#FEFFFE" transform="matrix(1.00, 0.00, -0.00, -1.00, 575.8, 462.0)">P</text><text xml:space="preserve" font-family="Chalkduster" font-size="20.0" fill="#FEFFFE" transform="matrix(1.00, 0.00, -0.00, -1.00, 590.0, 462.0)">y</text><text xml:space="preserve" font-family="Chalkduster" font-size="20.0" fill="#FEFFFE" transform="matrix(1.00, 0.00, -0.00, -1.00, 602.2, 462.0)">t</text><text xml:space="preserve" font-family="Chalkduster" font-size="20.0" fill="#FEFFFE" transform="matrix(1.00, 0.00, -0.00, -1.00, 611.7, 462.0)">h</text><text xml:space="preserve" font-family="Chalkduster" font-size="20.0" fill="#FEFFFE" transform="matrix(1.00, 0.00, -0.00, -1.00, 624.1, 462.0)">o</text><text xml:space="preserve" font-family="Chalkduster" font-size="20.0" fill="#FEFFFE" transform="matrix(1.00, 0.00, -0.00, -1.00, 638.9, 462.0)">n</text><text xml:space="preserve" font-family="Chalkduster" font-size="20.0" fill="#FEFFFE" transform="matrix(1.00, 0.00, -0.00, -1.00, 653.6, 462.0)"> </text><text xml:space="preserve" font-family="Chalkduster" font-size="20.0" fill="#FEFFFE" transform="matrix(1.00, 0.00, -0.00, -1.00, 663.6, 462.0)">s</text><text xml:space="preserve" font-family="Chalkduster" font-size="20.0" fill="#FEFFFE" transform="matrix(1.00, 0.00, -0.00, -1.00, 674.3, 462.0)">t</text><text xml:space="preserve" font-family="Chalkduster" font-size="20.0" fill="#FEFFFE" transform="matrix(1.00, 0.00, -0.00, -1.00, 683.4, 462.0)">u</text><text xml:space="preserve" font-family="Chalkduster" font-size="20.0" fill="#FEFFFE" transform="matrix(1.00, 0.00, -0.00, -1.00, 696.5, 462.0)">f</text><text xml:space="preserve" font-family="Chalkduster" font-size="20.0" fill="#FEFFFE" transform="matrix(1.00, 0.00, -0.00, -1.00, 706.5, 462.0)">f</text></g></g></g></g><g><clipPath id="clip-168"><path d="M 63.0 607.0 L 961.6 607.0 L 961.6 141.4 L 63.0 141.4 Z M 63.0 607.0 "></path></clipPath><g clip-path="url(#clip-168)"><g><clipPath id="clip-169"><path d="M 213.3 389.8 L 961.6 389.8 L 961.6 553.0 L 213.3 553.0 Z M 213.3 389.8 "></path></clipPath><g clip-path="url(#clip-169)"><path d="M 244.6 94.0 L 352.4 94.0 " fill="none" stroke="#FEFFFE" stroke-width="0.44" stroke-miterlimit="0.00" transform="matrix(1.00, 0.00, 0.00, -1.00, 213.3, 553.0)"></path></g></g></g></g><image xlink:href="../../06CCC27B-670E-4A1A-97C4-EDA68A2117DD/assets/CE8E01D5A916205A8930C5806761A55B.png" width="139.00" height="27.00" transform="matrix(1.00, 0.00, -0.00, -1.00, 68.0, 373.0)"></image><g><clipPath id="clip-170"><path d="M 63.0 607.0 L 961.6 607.0 L 961.6 141.4 L 63.0 141.4 Z M 63.0 607.0 "></path></clipPath><g clip-path="url(#clip-170)"><g><clipPath id="clip-171"><path d="M 63.0 337.1 L 212.3 337.1 L 212.3 388.8 L 63.0 388.8 Z M 63.0 337.1 "></path></clipPath><g clip-path="url(#clip-171)"><text xml:space="preserve" font-family="Chalkduster" font-size="20.0" fill="#FEFFFE" transform="matrix(1.00, 0.00, -0.00, -1.00, 72.0, 353.0)">1</text><text xml:space="preserve" font-family="Chalkduster" font-size="20.0" fill="#FEFFFE" transform="matrix(1.00, 0.00, -0.00, -1.00, 83.7, 353.0)">2</text><text xml:space="preserve" font-family="Chalkduster" font-size="20.0" fill="#FEFFFE" transform="matrix(1.00, 0.00, -0.00, -1.00, 94.9, 353.0)">:</text><text xml:space="preserve" font-family="Chalkduster" font-size="20.0" fill="#FEFFFE" transform="matrix(1.00, 0.00, -0.00, -1.00, 101.5, 353.0)">0</text><text xml:space="preserve" font-family="Chalkduster" font-size="20.0" fill="#FEFFFE" transform="matrix(1.00, 0.00, -0.00, -1.00, 115.6, 353.0)">0</text><text xml:space="preserve" font-family="Chalkduster" font-size="20.0" fill="#FEFFFE" transform="matrix(1.00, 0.00, -0.00, -1.00, 130.3, 353.0)">-</text><text xml:space="preserve" font-family="Chalkduster" font-size="20.0" fill="#FEFFFE" transform="matrix(1.00, 0.00, -0.00, -1.00, 142.4, 353.0)">1</text><text xml:space="preserve" font-family="Chalkduster" font-size="20.0" fill="#FEFFFE" transform="matrix(1.00, 0.00, -0.00, -1.00, 154.5, 353.0)">3</text><text xml:space="preserve" font-family="Chalkduster" font-size="20.0" fill="#FEFFFE" transform="matrix(1.00, 0.00, -0.00, -1.00, 168.2, 353.0)">:</text><text xml:space="preserve" font-family="Chalkduster" font-size="20.0" fill="#FEFFFE" transform="matrix(1.00, 0.00, -0.00, -1.00, 174.8, 353.0)">0</text><text xml:space="preserve" font-family="Chalkduster" font-size="20.0" fill="#FEFFFE" transform="matrix(1.00, 0.00, -0.00, -1.00, 188.9, 353.0)">0</text></g></g></g></g><image xlink:href="../../06CCC27B-670E-4A1A-97C4-EDA68A2117DD/assets/7206033E86186D209175CE2BFA33EDB5.png" width="76.00" height="28.00" transform="matrix(1.00, 0.00, -0.00, -1.00, 549.0, 374.0)"></image><g><clipPath id="clip-172"><path d="M 63.0 607.0 L 961.6 607.0 L 961.6 141.4 L 63.0 141.4 Z M 63.0 607.0 "></path></clipPath><g clip-path="url(#clip-172)"><g><clipPath id="clip-173"><path d="M 213.3 338.1 L 961.6 338.1 L 961.6 387.8 L 213.3 387.8 Z M 213.3 338.1 "></path></clipPath><g clip-path="url(#clip-173)"><text xml:space="preserve" font-family="Chalkduster" font-size="20.0" fill="#FEFFFE" transform="matrix(1.00, 0.00, -0.00, -1.00, 554.0, 353.0)">L</text><text xml:space="preserve" font-family="Chalkduster" font-size="20.0" fill="#FEFFFE" transform="matrix(1.00, 0.00, -0.00, -1.00, 566.7, 353.0)">u</text><text xml:space="preserve" font-family="Chalkduster" font-size="20.0" fill="#FEFFFE" transform="matrix(1.00, 0.00, -0.00, -1.00, 580.7, 353.0)">n</text><text xml:space="preserve" font-family="Chalkduster" font-size="20.0" fill="#FEFFFE" transform="matrix(1.00, 0.00, -0.00, -1.00, 595.4, 353.0)">c</text><text xml:space="preserve" font-family="Chalkduster" font-size="20.0" fill="#FEFFFE" transform="matrix(1.00, 0.00, -0.00, -1.00, 608.0, 353.0)">h</text></g></g></g></g><image xlink:href="BC8039F6415D2346D19CA78B63D0F1D7.png" width="141.00" height="27.00" transform="matrix(1.00, 0.00, -0.00, -1.00, 67.0, 291.0)"></image><g><clipPath id="clip-174"><path d="M 63.0 607.0 L 961.6 607.0 L 961.6 141.4 L 63.0 141.4 Z M 63.0 607.0 "></path></clipPath><g clip-path="url(#clip-174)"><g><clipPath id="clip-175"><path d="M 63.0 223.9 L 212.3 223.9 L 212.3 337.1 L 63.0 337.1 Z M 63.0 223.9 "></path></clipPath><g clip-path="url(#clip-175)"><text xml:space="preserve" font-family="Chalkduster" font-size="20.0" fill="#FEFFFE" transform="matrix(1.00, 0.00, -0.00, -1.00, 71.0, 271.0)">1</text><text xml:space="preserve" font-family="Chalkduster" font-size="20.0" fill="#FEFFFE" transform="matrix(1.00, 0.00, -0.00, -1.00, 83.1, 271.0)">3</text><text xml:space="preserve" font-family="Chalkduster" font-size="20.0" fill="#FEFFFE" transform="matrix(1.00, 0.00, -0.00, -1.00, 96.9, 271.0)">:</text><text xml:space="preserve" font-family="Chalkduster" font-size="20.0" fill="#FEFFFE" transform="matrix(1.00, 0.00, -0.00, -1.00, 103.4, 271.0)">0</text><text xml:space="preserve" font-family="Chalkduster" font-size="20.0" fill="#FEFFFE" transform="matrix(1.00, 0.00, -0.00, -1.00, 117.5, 271.0)">0</text><text xml:space="preserve" font-family="Chalkduster" font-size="20.0" fill="#FEFFFE" transform="matrix(1.00, 0.00, -0.00, -1.00, 132.2, 271.0)">-</text><text xml:space="preserve" font-family="Chalkduster" font-size="20.0" fill="#FEFFFE" transform="matrix(1.00, 0.00, -0.00, -1.00, 144.3, 271.0)">1</text><text xml:space="preserve" font-family="Chalkduster" font-size="20.0" fill="#FEFFFE" transform="matrix(1.00, 0.00, -0.00, -1.00, 156.4, 271.0)">5</text><text xml:space="preserve" font-family="Chalkduster" font-size="20.0" fill="#FEFFFE" transform="matrix(1.00, 0.00, -0.00, -1.00, 169.2, 271.0)">:</text><text xml:space="preserve" font-family="Chalkduster" font-size="20.0" fill="#FEFFFE" transform="matrix(1.00, 0.00, -0.00, -1.00, 175.8, 271.0)">0</text><text xml:space="preserve" font-family="Chalkduster" font-size="20.0" fill="#FEFFFE" transform="matrix(1.00, 0.00, -0.00, -1.00, 189.9, 271.0)">0</text></g></g></g></g><image xlink:href="../../5F7206A7-669E-4A84-89D0-7E8E555A8FC7/assets/A25D4513DC4BC546756249838A54CDCD.png" width="118.00" height="29.00" transform="matrix(1.00, 0.00, -0.00, -1.00, 419.0, 294.0)"></image><g><clipPath id="clip-176"><path d="M 63.0 607.0 L 961.6 607.0 L 961.6 141.4 L 63.0 141.4 Z M 63.0 607.0 "></path></clipPath><g clip-path="url(#clip-176)"><g><clipPath id="clip-177"><path d="M 213.3 224.9 L 961.6 224.9 L 961.6 336.1 L 213.3 336.1 Z M 213.3 224.9 "></path></clipPath><g clip-path="url(#clip-177)"><text xml:space="preserve" font-family="Chalkduster" font-size="20.0" fill="#FEFFFE" transform="matrix(1.00, 0.00, -0.00, -1.00, 424.0, 271.0)">H</text><text xml:space="preserve" font-family="Chalkduster" font-size="20.0" fill="#FEFFFE" transform="matrix(1.00, 0.00, -0.00, -1.00, 436.3, 271.0)">a</text><text xml:space="preserve" font-family="Chalkduster" font-size="20.0" fill="#FEFFFE" transform="matrix(1.00, 0.00, -0.00, -1.00, 450.1, 271.0)">n</text><text xml:space="preserve" font-family="Chalkduster" font-size="20.0" fill="#FEFFFE" transform="matrix(1.00, 0.00, -0.00, -1.00, 464.8, 271.0)">d</text><text xml:space="preserve" font-family="Chalkduster" font-size="20.0" fill="#FEFFFE" transform="matrix(1.00, 0.00, -0.00, -1.00, 481.0, 271.0)">s</text><text xml:space="preserve" font-family="Chalkduster" font-size="20.0" fill="#FEFFFE" transform="matrix(1.00, 0.00, -0.00, -1.00, 490.2, 271.0)">-</text><text xml:space="preserve" font-family="Chalkduster" font-size="20.0" fill="#FEFFFE" transform="matrix(1.00, 0.00, -0.00, -1.00, 502.3, 271.0)">o</text><text xml:space="preserve" font-family="Chalkduster" font-size="20.0" fill="#FEFFFE" transform="matrix(1.00, 0.00, -0.00, -1.00, 517.2, 271.0)">n</text></g></g></g></g><image xlink:href="964CF298718E9985773C51285C9B0258.png" width="219.00" height="40.00" transform="matrix(1.00, 0.00, -0.00, -1.00, 537.0, 295.0)"></image><g><clipPath id="clip-178"><path d="M 63.0 607.0 L 961.6 607.0 L 961.6 141.4 L 63.0 141.4 Z M 63.0 607.0 "></path></clipPath><g clip-path="url(#clip-178)"><g><clipPath id="clip-179"><path d="M 213.3 224.9 L 961.6 224.9 L 961.6 336.1 L 213.3 336.1 Z M 213.3 224.9 "></path></clipPath><g clip-path="url(#clip-179)"><text xml:space="preserve" font-family="Chalkduster" font-size="20.0" fill="#FEFFFE" transform="matrix(1.00, 0.00, -0.00, -1.00, 531.8, 271.0)"> </text><text xml:space="preserve" font-family="Chalkduster" font-size="20.0" fill="#FEFFFE" transform="matrix(1.00, 0.00, -0.00, -1.00, 541.8, 271.0)">m</text><text xml:space="preserve" font-family="Chalkduster" font-size="20.0" fill="#FEFFFE" transform="matrix(1.00, 0.00, -0.00, -1.00, 562.0, 271.0)">o</text><text xml:space="preserve" font-family="Chalkduster" font-size="20.0" fill="#FEFFFE" transform="matrix(1.00, 0.00, -0.00, -1.00, 576.6, 271.0)">r</text><text xml:space="preserve" font-family="Chalkduster" font-size="20.0" fill="#FEFFFE" transform="matrix(1.00, 0.00, -0.00, -1.00, 586.7, 271.0)">e</text><text xml:space="preserve" font-family="Chalkduster" font-size="20.0" fill="#FEFFFE" transform="matrix(1.00, 0.00, -0.00, -1.00, 599.1, 271.0)"> </text><text xml:space="preserve" font-family="Chalkduster" font-size="20.0" fill="#FEFFFE" transform="matrix(1.00, 0.00, -0.00, -1.00, 609.1, 271.0)">P</text><text xml:space="preserve" font-family="Chalkduster" font-size="20.0" fill="#FEFFFE" transform="matrix(1.00, 0.00, -0.00, -1.00, 623.3, 271.0)">y</text><text xml:space="preserve" font-family="Chalkduster" font-size="20.0" fill="#FEFFFE" transform="matrix(1.00, 0.00, -0.00, -1.00, 635.5, 271.0)">t</text><text xml:space="preserve" font-family="Chalkduster" font-size="20.0" fill="#FEFFFE" transform="matrix(1.00, 0.00, -0.00, -1.00, 645.0, 271.0)">h</text><text xml:space="preserve" font-family="Chalkduster" font-size="20.0" fill="#FEFFFE" transform="matrix(1.00, 0.00, -0.00, -1.00, 657.4, 271.0)">o</text><text xml:space="preserve" font-family="Chalkduster" font-size="20.0" fill="#FEFFFE" transform="matrix(1.00, 0.00, -0.00, -1.00, 672.2, 271.0)">n</text><text xml:space="preserve" font-family="Chalkduster" font-size="20.0" fill="#FEFFFE" transform="matrix(1.00, 0.00, -0.00, -1.00, 686.9, 271.0)"> </text><text xml:space="preserve" font-family="Chalkduster" font-size="20.0" fill="#FEFFFE" transform="matrix(1.00, 0.00, -0.00, -1.00, 696.8, 271.0)">s</text><text xml:space="preserve" font-family="Chalkduster" font-size="20.0" fill="#FEFFFE" transform="matrix(1.00, 0.00, -0.00, -1.00, 707.6, 271.0)">t</text><text xml:space="preserve" font-family="Chalkduster" font-size="20.0" fill="#FEFFFE" transform="matrix(1.00, 0.00, -0.00, -1.00, 716.7, 271.0)">u</text><text xml:space="preserve" font-family="Chalkduster" font-size="20.0" fill="#FEFFFE" transform="matrix(1.00, 0.00, -0.00, -1.00, 729.8, 271.0)">f</text><text xml:space="preserve" font-family="Chalkduster" font-size="20.0" fill="#FEFFFE" transform="matrix(1.00, 0.00, -0.00, -1.00, 739.8, 271.0)">f</text></g></g></g></g><g><clipPath id="clip-180"><path d="M 63.0 607.0 L 961.6 607.0 L 961.6 141.4 L 63.0 141.4 Z M 63.0 607.0 "></path></clipPath><g clip-path="url(#clip-180)"><g><clipPath id="clip-181"><path d="M 213.3 224.9 L 961.6 224.9 L 961.6 336.1 L 213.3 336.1 Z M 213.3 224.9 "></path></clipPath><g clip-path="url(#clip-181)"><path d="M 210.9 68.0 L 318.8 68.0 " fill="none" stroke="#FEFFFE" stroke-width="0.44" stroke-miterlimit="0.00" transform="matrix(1.00, 0.00, 0.00, -1.00, 213.3, 336.1)"></path></g></g></g></g><image xlink:href="573C3E4FF1FC5F7EF1BB6B2D72F71CEC.png" width="140.00" height="27.00" transform="matrix(1.00, 0.00, -0.00, -1.00, 68.0, 193.0)"></image><g><clipPath id="clip-182"><path d="M 63.0 607.0 L 961.6 607.0 L 961.6 141.4 L 63.0 141.4 Z M 63.0 607.0 "></path></clipPath><g clip-path="url(#clip-182)"><g><clipPath id="clip-183"><path d="M 63.0 141.4 L 212.3 141.4 L 212.3 223.9 L 63.0 223.9 Z M 63.0 141.4 "></path></clipPath><g clip-path="url(#clip-183)"><text xml:space="preserve" font-family="Chalkduster" font-size="20.0" fill="#FEFFFE" transform="matrix(1.00, 0.00, -0.00, -1.00, 72.0, 173.0)">1</text><text xml:space="preserve" font-family="Chalkduster" font-size="20.0" fill="#FEFFFE" transform="matrix(1.00, 0.00, -0.00, -1.00, 84.1, 173.0)">5</text><text xml:space="preserve" font-family="Chalkduster" font-size="20.0" fill="#FEFFFE" transform="matrix(1.00, 0.00, -0.00, -1.00, 96.9, 173.0)">:</text><text xml:space="preserve" font-family="Chalkduster" font-size="20.0" fill="#FEFFFE" transform="matrix(1.00, 0.00, -0.00, -1.00, 103.5, 173.0)">0</text><text xml:space="preserve" font-family="Chalkduster" font-size="20.0" fill="#FEFFFE" transform="matrix(1.00, 0.00, -0.00, -1.00, 117.6, 173.0)">0</text><text xml:space="preserve" font-family="Chalkduster" font-size="20.0" fill="#FEFFFE" transform="matrix(1.00, 0.00, -0.00, -1.00, 132.2, 173.0)">-</text><text xml:space="preserve" font-family="Chalkduster" font-size="20.0" fill="#FEFFFE" transform="matrix(1.00, 0.00, -0.00, -1.00, 144.3, 173.0)">1</text><text xml:space="preserve" font-family="Chalkduster" font-size="20.0" fill="#FEFFFE" transform="matrix(1.00, 0.00, -0.00, -1.00, 156.4, 173.0)">7</text><text xml:space="preserve" font-family="Chalkduster" font-size="20.0" fill="#FEFFFE" transform="matrix(1.00, 0.00, -0.00, -1.00, 168.3, 173.0)">:</text><text xml:space="preserve" font-family="Chalkduster" font-size="20.0" fill="#FEFFFE" transform="matrix(1.00, 0.00, -0.00, -1.00, 174.9, 173.0)">0</text><text xml:space="preserve" font-family="Chalkduster" font-size="20.0" fill="#FEFFFE" transform="matrix(1.00, 0.00, -0.00, -1.00, 189.0, 173.0)">0</text></g></g></g></g><image xlink:href="240F7867A9BE78CA5EAAFA03805270E1.png" width="395.00" height="35.00" transform="matrix(1.00, 0.00, -0.00, -1.00, 390.0, 194.0)"></image><g><clipPath id="clip-184"><path d="M 63.0 607.0 L 961.6 607.0 L 961.6 141.4 L 63.0 141.4 Z M 63.0 607.0 "></path></clipPath><g clip-path="url(#clip-184)"><g><clipPath id="clip-185"><path d="M 213.3 141.4 L 961.6 141.4 L 961.6 222.9 L 213.3 222.9 Z M 213.3 141.4 "></path></clipPath><g clip-path="url(#clip-185)"><text xml:space="preserve" font-family="Chalkduster" font-size="20.0" fill="#FEFFFE" transform="matrix(1.00, 0.00, -0.00, -1.00, 394.0, 172.0)">O</text><text xml:space="preserve" font-family="Chalkduster" font-size="20.0" fill="#FEFFFE" transform="matrix(1.00, 0.00, -0.00, -1.00, 408.5, 172.0)">w</text><text xml:space="preserve" font-family="Chalkduster" font-size="20.0" fill="#FEFFFE" transform="matrix(1.00, 0.00, -0.00, -1.00, 425.3, 172.0)">n</text><text xml:space="preserve" font-family="Chalkduster" font-size="20.0" fill="#FEFFFE" transform="matrix(1.00, 0.00, -0.00, -1.00, 440.0, 172.0)"> </text><text xml:space="preserve" font-family="Chalkduster" font-size="20.0" fill="#FEFFFE" transform="matrix(1.00, 0.00, -0.00, -1.00, 449.9, 172.0)">P</text><text xml:space="preserve" font-family="Chalkduster" font-size="20.0" fill="#FEFFFE" transform="matrix(1.00, 0.00, -0.00, -1.00, 463.8, 172.0)">r</text><text xml:space="preserve" font-family="Chalkduster" font-size="20.0" fill="#FEFFFE" transform="matrix(1.00, 0.00, -0.00, -1.00, 474.4, 172.0)">a</text><text xml:space="preserve" font-family="Chalkduster" font-size="20.0" fill="#FEFFFE" transform="matrix(1.00, 0.00, -0.00, -1.00, 487.5, 172.0)">c</text><text xml:space="preserve" font-family="Chalkduster" font-size="20.0" fill="#FEFFFE" transform="matrix(1.00, 0.00, -0.00, -1.00, 499.4, 172.0)">t</text><text xml:space="preserve" font-family="Chalkduster" font-size="20.0" fill="#FEFFFE" transform="matrix(1.00, 0.00, -0.00, -1.00, 508.6, 172.0)">i</text><text xml:space="preserve" font-family="Chalkduster" font-size="20.0" fill="#FEFFFE" transform="matrix(1.00, 0.00, -0.00, -1.00, 516.7, 172.0)">c</text><text xml:space="preserve" font-family="Chalkduster" font-size="20.0" fill="#FEFFFE" transform="matrix(1.00, 0.00, -0.00, -1.00, 528.8, 172.0)">e</text><text xml:space="preserve" font-family="Chalkduster" font-size="20.0" fill="#FEFFFE" transform="matrix(1.00, 0.00, -0.00, -1.00, 541.2, 172.0)"> </text><text xml:space="preserve" font-family="Chalkduster" font-size="20.0" fill="#FEFFFE" transform="matrix(1.00, 0.00, -0.00, -1.00, 551.2, 172.0)">o</text><text xml:space="preserve" font-family="Chalkduster" font-size="20.0" fill="#FEFFFE" transform="matrix(1.00, 0.00, -0.00, -1.00, 566.0, 172.0)">n</text><text xml:space="preserve" font-family="Chalkduster" font-size="20.0" fill="#FEFFFE" transform="matrix(1.00, 0.00, -0.00, -1.00, 580.7, 172.0)"> </text><text xml:space="preserve" font-family="Chalkduster" font-size="20.0" fill="#FEFFFE" transform="matrix(1.00, 0.00, -0.00, -1.00, 590.7, 172.0)">M</text><text xml:space="preserve" font-family="Chalkduster" font-size="20.0" fill="#FEFFFE" transform="matrix(1.00, 0.00, -0.00, -1.00, 607.5, 172.0)">a</text><text xml:space="preserve" font-family="Chalkduster" font-size="20.0" fill="#FEFFFE" transform="matrix(1.00, 0.00, -0.00, -1.00, 621.3, 172.0)">i</text><text xml:space="preserve" font-family="Chalkduster" font-size="20.0" fill="#FEFFFE" transform="matrix(1.00, 0.00, -0.00, -1.00, 629.2, 172.0)">n</text><text xml:space="preserve" font-family="Chalkduster" font-size="20.0" fill="#FEFFFE" transform="matrix(1.00, 0.00, -0.00, -1.00, 643.8, 172.0)"> </text><text xml:space="preserve" font-family="Chalkduster" font-size="20.0" fill="#FEFFFE" transform="matrix(1.00, 0.00, -0.00, -1.00, 652.4, 172.0)">A</text><text xml:space="preserve" font-family="Chalkduster" font-size="20.0" fill="#FEFFFE" transform="matrix(1.00, 0.00, -0.00, -1.00, 667.2, 172.0)">s</text><text xml:space="preserve" font-family="Chalkduster" font-size="20.0" fill="#FEFFFE" transform="matrix(1.00, 0.00, -0.00, -1.00, 677.3, 172.0)">s</text><text xml:space="preserve" font-family="Chalkduster" font-size="20.0" fill="#FEFFFE" transform="matrix(1.00, 0.00, -0.00, -1.00, 687.4, 172.0)">i</text><text xml:space="preserve" font-family="Chalkduster" font-size="20.0" fill="#FEFFFE" transform="matrix(1.00, 0.00, -0.00, -1.00, 695.3, 172.0)">g</text><text xml:space="preserve" font-family="Chalkduster" font-size="20.0" fill="#FEFFFE" transform="matrix(1.00, 0.00, -0.00, -1.00, 709.2, 172.0)">n</text><text xml:space="preserve" font-family="Chalkduster" font-size="20.0" fill="#FEFFFE" transform="matrix(1.00, 0.00, -0.00, -1.00, 723.9, 172.0)">m</text><text xml:space="preserve" font-family="Chalkduster" font-size="20.0" fill="#FEFFFE" transform="matrix(1.00, 0.00, -0.00, -1.00, 744.6, 172.0)">e</text><text xml:space="preserve" font-family="Chalkduster" font-size="20.0" fill="#FEFFFE" transform="matrix(1.00, 0.00, -0.00, -1.00, 757.2, 172.0)">n</text><text xml:space="preserve" font-family="Chalkduster" font-size="20.0" fill="#FEFFFE" transform="matrix(1.00, 0.00, -0.00, -1.00, 771.1, 172.0)">t</text></g></g></g></g><g><clipPath id="clip-186"><path d="M 63.0 607.0 L 961.6 607.0 L 961.6 141.4 L 63.0 141.4 Z M 63.0 607.0 "></path></clipPath><g clip-path="url(#clip-186)"><g><clipPath id="clip-187"><path d="M 212.3 387.8 L 961.6 387.8 L 961.6 389.8 L 212.3 389.8 Z M 212.3 387.8 "></path></clipPath><g clip-path="url(#clip-187)"><path d="M 1.0 219.2 L 899.6 219.2 " fill="none" stroke="#FEFFFE" stroke-opacity="0.75" stroke-width="2.00" stroke-dasharray="4.0, 4.0" transform="matrix(1.00, 0.00, 0.00, -1.00, 62.0, 608.0)"></path></g></g></g></g><g><clipPath id="clip-188"><path d="M 63.0 607.0 L 961.6 607.0 L 961.6 141.4 L 63.0 141.4 Z M 63.0 607.0 "></path></clipPath><g clip-path="url(#clip-188)"><g><clipPath id="clip-189"><path d="M 212.3 336.1 L 961.6 336.1 L 961.6 338.1 L 212.3 338.1 Z M 212.3 336.1 "></path></clipPath><g clip-path="url(#clip-189)"><path d="M 1.0 270.9 L 899.6 270.9 " fill="none" stroke="#FEFFFE" stroke-opacity="0.75" stroke-width="2.00" stroke-dasharray="4.0, 4.0" transform="matrix(1.00, 0.00, 0.00, -1.00, 62.0, 608.0)"></path></g></g></g></g><g><clipPath id="clip-190"><path d="M 63.0 607.0 L 961.6 607.0 L 961.6 141.4 L 63.0 141.4 Z M 63.0 607.0 "></path></clipPath><g clip-path="url(#clip-190)"><g><clipPath id="clip-191"><path d="M 212.3 222.9 L 961.6 222.9 L 961.6 224.9 L 212.3 224.9 Z M 212.3 222.9 "></path></clipPath><g clip-path="url(#clip-191)"><path d="M 1.0 384.1 L 899.6 384.1 " fill="none" stroke="#FEFFFE" stroke-opacity="0.75" stroke-width="2.00" stroke-dasharray="4.0, 4.0" transform="matrix(1.00, 0.00, 0.00, -1.00, 62.0, 608.0)"></path></g></g></g></g><g><clipPath id="clip-192"><path d="M 63.0 607.0 L 961.6 607.0 L 961.6 141.4 L 63.0 141.4 Z M 63.0 607.0 "></path></clipPath><g clip-path="url(#clip-192)"><path d="M 150.8 53.0 L 150.8 466.6 " fill="none" stroke="#FEFFFE" stroke-opacity="0.75" stroke-width="1.00" transform="matrix(1.00, 0.00, 0.00, -1.00, 62.0, 608.0)"></path><path d="M 1.0 54.0 L 899.6 54.0 " fill="none" stroke="#FEFFFE" stroke-opacity="0.75" stroke-width="2.00" transform="matrix(1.00, 0.00, 0.00, -1.00, 62.0, 608.0)"></path></g></g></g></svg>