<?xml version="1.0" encoding="UTF-8" standalone="no"?><svg xmlns="http://www.w3.org/2000/svg" xmlns:xlink="http://www.w3.org/1999/xlink" clip-rule="evenodd" stroke-miterlimit="4.00" viewBox="0 0 578 212"><desc>SVG generated by Keynote</desc><defs><pattern id="1081F422-29FE-4BA8-A124-6298F3DCD950" patternUnits="userSpaceOnUse" width="400" height="400" viewBox="0 0 400 400" patternTransform="matrix(1.000000, 0.000000, 0.000000, -1.000000, 6.713622, 205.854700)"><image xlink:href="../../77A22124-ADA6-47CF-82EF-BF417E5B2E45/assets/A8498EFF91E9DEC6C4DDBA59DF308009.jpeg" width="400.00" height="400.00"></image></pattern></defs><g transform="matrix(1.00, 0.00, -0.00, -1.00, 0.0, 212.0)"><image xlink:href="../../77A22124-ADA6-47CF-82EF-BF417E5B2E45/assets/A459A358D511A4D35423B6B3A17C8D4C.png" width="575.00" height="210.00" transform="matrix(1.00, 0.00, -0.00, -1.00, 1.7, 210.9)" opacity="0.50"></image><g><clipPath id="clip-247"><path d="M 6.7 205.9 L 571.4 205.9 L 571.4 6.3 L 6.7 6.3 Z M 6.7 205.9 "></path></clipPath><g clip-path="url(#clip-247)"><path d="M 6.7 6.3 L 571.4 6.3 L 571.4 205.9 L 6.7 205.9 Z M 6.7 6.3 " fill="url(#1081F422-29FE-4BA8-A124-6298F3DCD950)"></path></g></g><image xlink:href="../../77A22124-ADA6-47CF-82EF-BF417E5B2E45/assets/98BA8E05A581BE470CB3B6187FBD6316.png" width="549.00" height="56.00" transform="matrix(1.00, 0.00, -0.00, -1.00, 7.0, 195.0)"></image><g><clipPath id="clip-248"><path d="M -3.0 -6.2 L 1122.4 -6.2 L 1122.4 215.5 L -3.0 215.5 Z M -3.0 -6.2 "></path></clipPath><g clip-path="url(#clip-248)"><text xml:space="preserve" font-family="Chalkduster" font-size="32.0" fill="#FEFFFE" transform="matrix(1.00, 0.00, -0.00, -1.00, 11.0, 163.0)">F</text><text xml:space="preserve" font-family="Chalkduster" font-size="32.0" fill="#FEFFFE" transform="matrix(1.00, 0.00, -0.00, -1.00, 32.2, 163.0)">o</text><text xml:space="preserve" font-family="Chalkduster" font-size="32.0" fill="#FEFFFE" transform="matrix(1.00, 0.00, -0.00, -1.00, 55.5, 163.0)">r</text><text xml:space="preserve" font-family="Chalkduster" font-size="32.0" fill="#FEFFFE" transform="matrix(1.00, 0.00, -0.00, -1.00, 72.4, 163.0)"> </text><text xml:space="preserve" font-family="Chalkduster" font-size="32.0" fill="#FEFFFE" transform="matrix(1.00, 0.00, -0.00, -1.00, 88.3, 163.0)">t</text><text xml:space="preserve" font-family="Chalkduster" font-size="32.0" fill="#FEFFFE" transform="matrix(1.00, 0.00, -0.00, -1.00, 103.6, 163.0)">h</text><text xml:space="preserve" font-family="Chalkduster" font-size="32.0" fill="#FEFFFE" transform="matrix(1.00, 0.00, -0.00, -1.00, 123.3, 163.0)">e</text><text xml:space="preserve" font-family="Chalkduster" font-size="32.0" fill="#FEFFFE" transform="matrix(1.00, 0.00, -0.00, -1.00, 143.1, 163.0)"> </text><text xml:space="preserve" font-family="Chalkduster" font-size="32.0" fill="#FEFFFE" transform="matrix(1.00, 0.00, -0.00, -1.00, 159.1, 163.0)">c</text><text xml:space="preserve" font-family="Chalkduster" font-size="32.0" fill="#FEFFFE" transform="matrix(1.00, 0.00, -0.00, -1.00, 178.0, 163.0)">a</text><text xml:space="preserve" font-family="Chalkduster" font-size="32.0" fill="#FEFFFE" transform="matrix(1.00, 0.00, -0.00, -1.00, 197.8, 163.0)">t</text><text xml:space="preserve" font-family="Chalkduster" font-size="32.0" fill="#FEFFFE" transform="matrix(1.00, 0.00, -0.00, -1.00, 212.1, 163.0)">e</text><text xml:space="preserve" font-family="Chalkduster" font-size="32.0" fill="#FEFFFE" transform="matrix(1.00, 0.00, -0.00, -1.00, 231.0, 163.0)">g</text><text xml:space="preserve" font-family="Chalkduster" font-size="32.0" fill="#FEFFFE" transform="matrix(1.00, 0.00, -0.00, -1.00, 253.5, 163.0)">o</text><text xml:space="preserve" font-family="Chalkduster" font-size="32.0" fill="#FEFFFE" transform="matrix(1.00, 0.00, -0.00, -1.00, 276.8, 163.0)">r</text><text xml:space="preserve" font-family="Chalkduster" font-size="32.0" fill="#FEFFFE" transform="matrix(1.00, 0.00, -0.00, -1.00, 294.9, 163.0)">y</text><text xml:space="preserve" font-family="Chalkduster" font-size="32.0" fill="#FEFFFE" transform="matrix(1.00, 0.00, -0.00, -1.00, 314.3, 163.0)"> </text><text xml:space="preserve" font-family="Chalkduster" font-size="32.0" fill="#FEFFFE" transform="matrix(1.00, 0.00, -0.00, -1.00, 330.3, 163.0)">"</text><text xml:space="preserve" font-family="Chalkduster" font-size="32.0" fill="#FEFFFE" transform="matrix(1.00, 0.00, -0.00, -1.00, 340.8, 163.0)">A</text><text xml:space="preserve" font-family="Chalkduster" font-size="32.0" fill="#FEFFFE" transform="matrix(1.00, 0.00, -0.00, -1.00, 364.4, 163.0)">d</text><text xml:space="preserve" font-family="Chalkduster" font-size="32.0" fill="#FEFFFE" transform="matrix(1.00, 0.00, -0.00, -1.00, 389.5, 163.0)">v</text><text xml:space="preserve" font-family="Chalkduster" font-size="32.0" fill="#FEFFFE" transform="matrix(1.00, 0.00, -0.00, -1.00, 409.1, 163.0)">e</text><text xml:space="preserve" font-family="Chalkduster" font-size="32.0" fill="#FEFFFE" transform="matrix(1.00, 0.00, -0.00, -1.00, 429.3, 163.0)">n</text><text xml:space="preserve" font-family="Chalkduster" font-size="32.0" fill="#FEFFFE" transform="matrix(1.00, 0.00, -0.00, -1.00, 451.6, 163.0)">t</text><text xml:space="preserve" font-family="Chalkduster" font-size="32.0" fill="#FEFFFE" transform="matrix(1.00, 0.00, -0.00, -1.00, 466.2, 163.0)">u</text><text xml:space="preserve" font-family="Chalkduster" font-size="32.0" fill="#FEFFFE" transform="matrix(1.00, 0.00, -0.00, -1.00, 488.7, 163.0)">r</text><text xml:space="preserve" font-family="Chalkduster" font-size="32.0" fill="#FEFFFE" transform="matrix(1.00, 0.00, -0.00, -1.00, 504.9, 163.0)">e</text><text xml:space="preserve" font-family="Chalkduster" font-size="32.0" fill="#FEFFFE" transform="matrix(1.00, 0.00, -0.00, -1.00, 524.7, 163.0)">"</text><text xml:space="preserve" font-family="Chalkduster" font-size="32.0" fill="#FEFFFE" transform="matrix(1.00, 0.00, -0.00, -1.00, 540.9, 163.0)">,</text><text xml:space="preserve" font-family="Chalkduster" font-size="32.0" fill="#FEFFFE" transform="matrix(1.00, 0.00, -0.00, -1.00, 550.8, 163.0)"> </text></g></g><image xlink:href="../../77A22124-ADA6-47CF-82EF-BF417E5B2E45/assets/6D6ACB6FCB2017ED1684B1A32D37F2D5.png" width="189.00" height="51.00" transform="matrix(1.00, 0.00, -0.00, -1.00, 7.0, 150.0)"></image><g><clipPath id="clip-249"><path d="M -3.0 -6.2 L 1122.4 -6.2 L 1122.4 215.5 L -3.0 215.5 Z M -3.0 -6.2 "></path></clipPath><g clip-path="url(#clip-249)"><text xml:space="preserve" font-family="Chalkduster" font-size="32.0" fill="#FEFFFE" transform="matrix(1.00, 0.00, -0.00, -1.00, 11.0, 115.0)">f</text><text xml:space="preserve" font-family="Chalkduster" font-size="32.0" fill="#FEFFFE" transform="matrix(1.00, 0.00, -0.00, -1.00, 28.1, 115.0)">i</text><text xml:space="preserve" font-family="Chalkduster" font-size="32.0" fill="#FEFFFE" transform="matrix(1.00, 0.00, -0.00, -1.00, 40.7, 115.0)">n</text><text xml:space="preserve" font-family="Chalkduster" font-size="32.0" fill="#FEFFFE" transform="matrix(1.00, 0.00, -0.00, -1.00, 64.2, 115.0)">d</text><text xml:space="preserve" font-family="Chalkduster" font-size="32.0" fill="#FEFFFE" transform="matrix(1.00, 0.00, -0.00, -1.00, 89.2, 115.0)"> </text><text xml:space="preserve" font-family="Chalkduster" font-size="32.0" fill="#FEFFFE" transform="matrix(1.00, 0.00, -0.00, -1.00, 105.1, 115.0)">b</text><text xml:space="preserve" font-family="Chalkduster" font-size="32.0" fill="#FEFFFE" transform="matrix(1.00, 0.00, -0.00, -1.00, 123.7, 115.0)">o</text><text xml:space="preserve" font-family="Chalkduster" font-size="32.0" fill="#FEFFFE" transform="matrix(1.00, 0.00, -0.00, -1.00, 145.6, 115.0)">t</text><text xml:space="preserve" font-family="Chalkduster" font-size="32.0" fill="#FEFFFE" transform="matrix(1.00, 0.00, -0.00, -1.00, 160.8, 115.0)">h</text><text xml:space="preserve" font-family="Chalkduster" font-size="32.0" fill="#FEFFFE" transform="matrix(1.00, 0.00, -0.00, -1.00, 180.6, 115.0)">:</text><text xml:space="preserve" font-family="Chalkduster" font-size="32.0" fill="#FEFFFE" transform="matrix(1.00, 0.00, -0.00, -1.00, 191.2, 115.0)"> </text></g></g><image xlink:href="../../77A22124-ADA6-47CF-82EF-BF417E5B2E45/assets/1C744EA188A75D32802A969B7E4BEBEC.png" width="26.00" height="25.00" transform="matrix(1.00, 0.00, -0.00, -1.00, 9.0, 89.0)"></image><g><clipPath id="clip-250"><path d="M -3.0 -6.2 L 1122.4 -6.2 L 1122.4 215.5 L -3.0 215.5 Z M -3.0 -6.2 "></path></clipPath><g clip-path="url(#clip-250)"><text xml:space="preserve" font-family="Chalkduster" font-size="32.0" fill="#FEFFFE" transform="matrix(1.00, 0.00, -0.00, -1.00, 10.7, 67.3)">•</text></g></g><image xlink:href="../../77A22124-ADA6-47CF-82EF-BF417E5B2E45/assets/0B761B8A11C220A28973790D13C62F7E.png" width="261.00" height="54.00" transform="matrix(1.00, 0.00, -0.00, -1.00, 38.0, 97.0)"></image><g><clipPath id="clip-251"><path d="M -3.0 -6.2 L 1122.4 -6.2 L 1122.4 215.5 L -3.0 215.5 Z M -3.0 -6.2 "></path></clipPath><g clip-path="url(#clip-251)"><text xml:space="preserve" font-family="Chalkduster" font-size="32.0" fill="#FEFFFE" transform="matrix(1.00, 0.00, -0.00, -1.00, 41.0, 67.0)">t</text><text xml:space="preserve" font-family="Chalkduster" font-size="32.0" fill="#FEFFFE" transform="matrix(1.00, 0.00, -0.00, -1.00, 56.3, 67.0)">h</text><text xml:space="preserve" font-family="Chalkduster" font-size="32.0" fill="#FEFFFE" transform="matrix(1.00, 0.00, -0.00, -1.00, 76.0, 67.0)">e</text><text xml:space="preserve" font-family="Chalkduster" font-size="32.0" fill="#FEFFFE" transform="matrix(1.00, 0.00, -0.00, -1.00, 95.9, 67.0)"> </text><text xml:space="preserve" font-family="Chalkduster" font-size="32.0" fill="#FEFFFE" transform="matrix(1.00, 0.00, -0.00, -1.00, 111.8, 67.0)">t</text><text xml:space="preserve" font-family="Chalkduster" font-size="32.0" fill="#FEFFFE" transform="matrix(1.00, 0.00, -0.00, -1.00, 125.0, 67.0)">o</text><text xml:space="preserve" font-family="Chalkduster" font-size="32.0" fill="#FEFFFE" transform="matrix(1.00, 0.00, -0.00, -1.00, 148.3, 67.0)">p</text><text xml:space="preserve" font-family="Chalkduster" font-size="32.0" fill="#FEFFFE" transform="matrix(1.00, 0.00, -0.00, -1.00, 168.1, 67.0)"> </text><text xml:space="preserve" font-family="Chalkduster" font-size="32.0" fill="#FEFFFE" transform="matrix(1.00, 0.00, -0.00, -1.00, 184.0, 67.0)">m</text><text xml:space="preserve" font-family="Chalkduster" font-size="32.0" fill="#FEFFFE" transform="matrix(1.00, 0.00, -0.00, -1.00, 216.4, 67.0)">o</text><text xml:space="preserve" font-family="Chalkduster" font-size="32.0" fill="#FEFFFE" transform="matrix(1.00, 0.00, -0.00, -1.00, 240.4, 67.0)">v</text><text xml:space="preserve" font-family="Chalkduster" font-size="32.0" fill="#FEFFFE" transform="matrix(1.00, 0.00, -0.00, -1.00, 260.3, 67.0)">i</text><text xml:space="preserve" font-family="Chalkduster" font-size="32.0" fill="#FEFFFE" transform="matrix(1.00, 0.00, -0.00, -1.00, 272.9, 67.0)">e</text><text xml:space="preserve" font-family="Chalkduster" font-size="32.0" fill="#FEFFFE" transform="matrix(1.00, 0.00, -0.00, -1.00, 292.8, 67.0)"> </text></g></g><image xlink:href="../../77A22124-ADA6-47CF-82EF-BF417E5B2E45/assets/1C744EA188A75D32802A969B7E4BEBEC.png" width="26.00" height="25.00" transform="matrix(1.00, 0.00, -0.00, -1.00, 9.0, 41.0)"></image><g><clipPath id="clip-252"><path d="M -3.0 -6.2 L 1122.4 -6.2 L 1122.4 215.5 L -3.0 215.5 Z M -3.0 -6.2 "></path></clipPath><g clip-path="url(#clip-252)"><text xml:space="preserve" font-family="Chalkduster" font-size="32.0" fill="#FEFFFE" transform="matrix(1.00, 0.00, -0.00, -1.00, 10.7, 19.3)">•</text></g></g><image xlink:href="../../77A22124-ADA6-47CF-82EF-BF417E5B2E45/assets/9458387B5E0F5DA7FCEE2F29AAEF297F.png" width="279.00" height="59.00" transform="matrix(1.00, 0.00, -0.00, -1.00, 38.0, 54.0)"></image><g><clipPath id="clip-253"><path d="M -3.0 -6.2 L 1122.4 -6.2 L 1122.4 215.5 L -3.0 215.5 Z M -3.0 -6.2 "></path></clipPath><g clip-path="url(#clip-253)"><text xml:space="preserve" font-family="Chalkduster" font-size="32.0" fill="#FEFFFE" transform="matrix(1.00, 0.00, -0.00, -1.00, 41.0, 19.0)">t</text><text xml:space="preserve" font-family="Chalkduster" font-size="32.0" fill="#FEFFFE" transform="matrix(1.00, 0.00, -0.00, -1.00, 56.3, 19.0)">h</text><text xml:space="preserve" font-family="Chalkduster" font-size="32.0" fill="#FEFFFE" transform="matrix(1.00, 0.00, -0.00, -1.00, 76.0, 19.0)">e</text><text xml:space="preserve" font-family="Chalkduster" font-size="32.0" fill="#FEFFFE" transform="matrix(1.00, 0.00, -0.00, -1.00, 95.9, 19.0)"> </text><text xml:space="preserve" font-family="Chalkduster" font-size="32.0" fill="#FEFFFE" transform="matrix(1.00, 0.00, -0.00, -1.00, 111.8, 19.0)">f</text><text xml:space="preserve" font-family="Chalkduster" font-size="32.0" fill="#FEFFFE" transform="matrix(1.00, 0.00, -0.00, -1.00, 128.8, 19.0)">l</text><text xml:space="preserve" font-family="Chalkduster" font-size="32.0" fill="#FEFFFE" transform="matrix(1.00, 0.00, -0.00, -1.00, 142.6, 19.0)">o</text><text xml:space="preserve" font-family="Chalkduster" font-size="32.0" fill="#FEFFFE" transform="matrix(1.00, 0.00, -0.00, -1.00, 165.9, 19.0)">p</text><text xml:space="preserve" font-family="Chalkduster" font-size="32.0" fill="#FEFFFE" transform="matrix(1.00, 0.00, -0.00, -1.00, 185.7, 19.0)"> </text><text xml:space="preserve" font-family="Chalkduster" font-size="32.0" fill="#FEFFFE" transform="matrix(1.00, 0.00, -0.00, -1.00, 201.6, 19.0)">m</text><text xml:space="preserve" font-family="Chalkduster" font-size="32.0" fill="#FEFFFE" transform="matrix(1.00, 0.00, -0.00, -1.00, 234.0, 19.0)">o</text><text xml:space="preserve" font-family="Chalkduster" font-size="32.0" fill="#FEFFFE" transform="matrix(1.00, 0.00, -0.00, -1.00, 258.0, 19.0)">v</text><text xml:space="preserve" font-family="Chalkduster" font-size="32.0" fill="#FEFFFE" transform="matrix(1.00, 0.00, -0.00, -1.00, 277.9, 19.0)">i</text><text xml:space="preserve" font-family="Chalkduster" font-size="32.0" fill="#FEFFFE" transform="matrix(1.00, 0.00, -0.00, -1.00, 290.5, 19.0)">e</text></g></g></g></svg>