<?xml version="1.0" encoding="UTF-8" standalone="no"?><svg xmlns="http://www.w3.org/2000/svg" xmlns:xlink="http://www.w3.org/1999/xlink" clip-rule="evenodd" stroke-miterlimit="4.00" viewBox="0 0 489 164"><desc>SVG generated by Keynote</desc><defs><pattern id="72083CAE-4E1E-4876-BFE5-B0A4933E5BCB" patternUnits="userSpaceOnUse" width="400" height="400" viewBox="0 0 400 400" patternTransform="matrix(1.000000, 0.000000, 0.000000, -1.000000, 6.235115, 157.948100)"><image xlink:href="../../77A22124-ADA6-47CF-82EF-BF417E5B2E45/assets/A8498EFF91E9DEC6C4DDBA59DF308009.jpeg" width="400.00" height="400.00"></image></pattern></defs><g transform="matrix(1.00, 0.00, -0.00, -1.00, 0.0, 164.0)"><image xlink:href="../../77A22124-ADA6-47CF-82EF-BF417E5B2E45/assets/E65829D838CB547BA113528F28D1F130.png" width="486.00" height="162.00" transform="matrix(1.00, 0.00, -0.00, -1.00, 1.2, 162.9)" opacity="0.50"></image><g><clipPath id="clip-265"><path d="M 6.2 157.9 L 482.5 157.9 L 482.5 6.4 L 6.2 6.4 Z M 6.2 157.9 "></path></clipPath><g clip-path="url(#clip-265)"><path d="M 6.2 6.4 L 482.5 6.4 L 482.5 157.9 L 6.2 157.9 Z M 6.2 6.4 " fill="url(#72083CAE-4E1E-4876-BFE5-B0A4933E5BCB)"></path></g></g><image xlink:href="../../77A22124-ADA6-47CF-82EF-BF417E5B2E45/assets/0030FA8CCA45F43E657B659B1AD39193.png" width="149.00" height="38.00" transform="matrix(1.00, 0.00, -0.00, -1.00, 171.0, 144.0)"></image><g><clipPath id="clip-266"><path d="M -3.5 -6.1 L 945.2 -6.1 L 945.2 167.6 L -3.5 167.6 Z M -3.5 -6.1 "></path></clipPath><g clip-path="url(#clip-266)"><text xml:space="preserve" font-family="Chalkduster" font-size="32.0" fill="#FEFFFE" transform="matrix(1.00, 0.00, -0.00, -1.00, 174.0, 115.0)">H</text><text xml:space="preserve" font-family="Chalkduster" font-size="32.0" fill="#FEFFFE" transform="matrix(1.00, 0.00, -0.00, -1.00, 193.7, 115.0)">o</text><text xml:space="preserve" font-family="Chalkduster" font-size="32.0" fill="#FEFFFE" transform="matrix(1.00, 0.00, -0.00, -1.00, 217.7, 115.0)">m</text><text xml:space="preserve" font-family="Chalkduster" font-size="32.0" fill="#FEFFFE" transform="matrix(1.00, 0.00, -0.00, -1.00, 250.9, 115.0)">e</text><text xml:space="preserve" font-family="Chalkduster" font-size="32.0" fill="#FEFFFE" transform="matrix(1.00, 0.00, -0.00, -1.00, 270.7, 115.0)">D</text><text xml:space="preserve" font-family="Chalkduster" font-size="32.0" fill="#FEFFFE" transform="matrix(1.00, 0.00, -0.00, -1.00, 293.1, 115.0)">B</text><text xml:space="preserve" font-family="Chalkduster" font-size="32.0" fill="#FEFFFE" transform="matrix(1.00, 0.00, -0.00, -1.00, 314.5, 115.0)"> </text></g></g><image xlink:href="../../77A22124-ADA6-47CF-82EF-BF417E5B2E45/assets/E547F4730453CE87595A35D2B7CAF91E.png" width="26.00" height="25.00" transform="matrix(1.00, 0.00, -0.00, -1.00, 8.0, 89.0)"></image><g><clipPath id="clip-267"><path d="M -3.5 -6.1 L 945.2 -6.1 L 945.2 167.6 L -3.5 167.6 Z M -3.5 -6.1 "></path></clipPath><g clip-path="url(#clip-267)"><text xml:space="preserve" font-family="Chalkduster" font-size="32.0" fill="#FEFFFE" transform="matrix(1.00, 0.00, -0.00, -1.00, 10.2, 67.4)">•</text></g></g><image xlink:href="../../77A22124-ADA6-47CF-82EF-BF417E5B2E45/assets/7D8E57BE547BF0889ACDB8142DAA05C4.png" width="433.00" height="56.00" transform="matrix(1.00, 0.00, -0.00, -1.00, 36.0, 99.0)"></image><g><clipPath id="clip-268"><path d="M -3.5 -6.1 L 945.2 -6.1 L 945.2 167.6 L -3.5 167.6 Z M -3.5 -6.1 "></path></clipPath><g clip-path="url(#clip-268)"><text xml:space="preserve" font-family="Chalkduster" font-size="32.0" fill="#FEFFFE" transform="matrix(1.00, 0.00, -0.00, -1.00, 40.0, 67.0)">C</text><text xml:space="preserve" font-family="Chalkduster" font-size="32.0" fill="#FEFFFE" transform="matrix(1.00, 0.00, -0.00, -1.00, 66.9, 67.0)">h</text><text xml:space="preserve" font-family="Chalkduster" font-size="32.0" fill="#FEFFFE" transform="matrix(1.00, 0.00, -0.00, -1.00, 86.7, 67.0)">e</text><text xml:space="preserve" font-family="Chalkduster" font-size="32.0" fill="#FEFFFE" transform="matrix(1.00, 0.00, -0.00, -1.00, 106.5, 67.0)">a</text><text xml:space="preserve" font-family="Chalkduster" font-size="32.0" fill="#FEFFFE" transform="matrix(1.00, 0.00, -0.00, -1.00, 128.6, 67.0)">p</text><text xml:space="preserve" font-family="Chalkduster" font-size="32.0" fill="#FEFFFE" transform="matrix(1.00, 0.00, -0.00, -1.00, 148.8, 67.0)">e</text><text xml:space="preserve" font-family="Chalkduster" font-size="32.0" fill="#FEFFFE" transform="matrix(1.00, 0.00, -0.00, -1.00, 169.3, 67.0)">s</text><text xml:space="preserve" font-family="Chalkduster" font-size="32.0" fill="#FEFFFE" transform="matrix(1.00, 0.00, -0.00, -1.00, 186.5, 67.0)">t</text><text xml:space="preserve" font-family="Chalkduster" font-size="32.0" fill="#FEFFFE" transform="matrix(1.00, 0.00, -0.00, -1.00, 201.1, 67.0)"> </text><text xml:space="preserve" font-family="Chalkduster" font-size="32.0" fill="#FEFFFE" transform="matrix(1.00, 0.00, -0.00, -1.00, 217.0, 67.0)">h</text><text xml:space="preserve" font-family="Chalkduster" font-size="32.0" fill="#FEFFFE" transform="matrix(1.00, 0.00, -0.00, -1.00, 236.8, 67.0)">o</text><text xml:space="preserve" font-family="Chalkduster" font-size="32.0" fill="#FEFFFE" transform="matrix(1.00, 0.00, -0.00, -1.00, 260.7, 67.0)">m</text><text xml:space="preserve" font-family="Chalkduster" font-size="32.0" fill="#FEFFFE" transform="matrix(1.00, 0.00, -0.00, -1.00, 293.9, 67.0)">e</text><text xml:space="preserve" font-family="Chalkduster" font-size="32.0" fill="#FEFFFE" transform="matrix(1.00, 0.00, -0.00, -1.00, 313.7, 67.0)"> </text><text xml:space="preserve" font-family="Chalkduster" font-size="32.0" fill="#FEFFFE" transform="matrix(1.00, 0.00, -0.00, -1.00, 329.6, 67.0)">a</text><text xml:space="preserve" font-family="Chalkduster" font-size="32.0" fill="#FEFFFE" transform="matrix(1.00, 0.00, -0.00, -1.00, 350.0, 67.0)">r</text><text xml:space="preserve" font-family="Chalkduster" font-size="32.0" fill="#FEFFFE" transform="matrix(1.00, 0.00, -0.00, -1.00, 366.5, 67.0)">o</text><text xml:space="preserve" font-family="Chalkduster" font-size="32.0" fill="#FEFFFE" transform="matrix(1.00, 0.00, -0.00, -1.00, 390.4, 67.0)">u</text><text xml:space="preserve" font-family="Chalkduster" font-size="32.0" fill="#FEFFFE" transform="matrix(1.00, 0.00, -0.00, -1.00, 412.9, 67.0)">n</text><text xml:space="preserve" font-family="Chalkduster" font-size="32.0" fill="#FEFFFE" transform="matrix(1.00, 0.00, -0.00, -1.00, 436.4, 67.0)">d</text><text xml:space="preserve" font-family="Chalkduster" font-size="32.0" fill="#FEFFFE" transform="matrix(1.00, 0.00, -0.00, -1.00, 461.4, 67.0)"> </text></g></g><image xlink:href="../../77A22124-ADA6-47CF-82EF-BF417E5B2E45/assets/E547F4730453CE87595A35D2B7CAF91E.png" width="26.00" height="25.00" transform="matrix(1.00, 0.00, -0.00, -1.00, 8.0, 41.0)"></image><g><clipPath id="clip-269"><path d="M -3.5 -6.1 L 945.2 -6.1 L 945.2 167.6 L -3.5 167.6 Z M -3.5 -6.1 "></path></clipPath><g clip-path="url(#clip-269)"><text xml:space="preserve" font-family="Chalkduster" font-size="32.0" fill="#FEFFFE" transform="matrix(1.00, 0.00, -0.00, -1.00, 10.2, 19.4)">•</text></g></g><image xlink:href="../../77A22124-ADA6-47CF-82EF-BF417E5B2E45/assets/BEF7549015AB6DD03B0126F9C6BB2B7E.png" width="329.00" height="55.00" transform="matrix(1.00, 0.00, -0.00, -1.00, 37.0, 50.0)"></image><g><clipPath id="clip-270"><path d="M -3.5 -6.1 L 945.2 -6.1 L 945.2 167.6 L -3.5 167.6 Z M -3.5 -6.1 "></path></clipPath><g clip-path="url(#clip-270)"><text xml:space="preserve" font-family="Chalkduster" font-size="32.0" fill="#FEFFFE" transform="matrix(1.00, 0.00, -0.00, -1.00, 40.0, 19.0)">M</text><text xml:space="preserve" font-family="Chalkduster" font-size="32.0" fill="#FEFFFE" transform="matrix(1.00, 0.00, -0.00, -1.00, 67.8, 19.0)">o</text><text xml:space="preserve" font-family="Chalkduster" font-size="32.0" fill="#FEFFFE" transform="matrix(1.00, 0.00, -0.00, -1.00, 91.1, 19.0)">s</text><text xml:space="preserve" font-family="Chalkduster" font-size="32.0" fill="#FEFFFE" transform="matrix(1.00, 0.00, -0.00, -1.00, 108.2, 19.0)">t</text><text xml:space="preserve" font-family="Chalkduster" font-size="32.0" fill="#FEFFFE" transform="matrix(1.00, 0.00, -0.00, -1.00, 122.9, 19.0)"> </text><text xml:space="preserve" font-family="Chalkduster" font-size="32.0" fill="#FEFFFE" transform="matrix(1.00, 0.00, -0.00, -1.00, 138.8, 19.0)">e</text><text xml:space="preserve" font-family="Chalkduster" font-size="32.0" fill="#FEFFFE" transform="matrix(1.00, 0.00, -0.00, -1.00, 157.6, 19.0)">x</text><text xml:space="preserve" font-family="Chalkduster" font-size="32.0" fill="#FEFFFE" transform="matrix(1.00, 0.00, -0.00, -1.00, 177.5, 19.0)">p</text><text xml:space="preserve" font-family="Chalkduster" font-size="32.0" fill="#FEFFFE" transform="matrix(1.00, 0.00, -0.00, -1.00, 197.7, 19.0)">e</text><text xml:space="preserve" font-family="Chalkduster" font-size="32.0" fill="#FEFFFE" transform="matrix(1.00, 0.00, -0.00, -1.00, 217.8, 19.0)">n</text><text xml:space="preserve" font-family="Chalkduster" font-size="32.0" fill="#FEFFFE" transform="matrix(1.00, 0.00, -0.00, -1.00, 241.3, 19.0)">s</text><text xml:space="preserve" font-family="Chalkduster" font-size="32.0" fill="#FEFFFE" transform="matrix(1.00, 0.00, -0.00, -1.00, 257.5, 19.0)">i</text><text xml:space="preserve" font-family="Chalkduster" font-size="32.0" fill="#FEFFFE" transform="matrix(1.00, 0.00, -0.00, -1.00, 270.1, 19.0)">v</text><text xml:space="preserve" font-family="Chalkduster" font-size="32.0" fill="#FEFFFE" transform="matrix(1.00, 0.00, -0.00, -1.00, 289.8, 19.0)">e</text><text xml:space="preserve" font-family="Chalkduster" font-size="32.0" fill="#FEFFFE" transform="matrix(1.00, 0.00, -0.00, -1.00, 309.6, 19.0)">/</text><text xml:space="preserve" font-family="Chalkduster" font-size="32.0" fill="#FEFFFE" transform="matrix(1.00, 0.00, -0.00, -1.00, 328.6, 19.0)">m</text></g></g><image xlink:href="../../77A22124-ADA6-47CF-82EF-BF417E5B2E45/assets/53205F3C147FAB575AA0490DBE7702E2.png" width="22.00" height="27.00" transform="matrix(1.00, 0.00, -0.00, -1.00, 357.0, 49.0)"></image><g><clipPath id="clip-271"><path d="M -3.5 -6.1 L 945.2 -6.1 L 945.2 167.6 L -3.5 167.6 Z M -3.5 -6.1 "></path></clipPath><g clip-path="url(#clip-271)"><text xml:space="preserve" font-family="Chalkduster" font-size="21.3" fill="#FEFFFE" transform="matrix(1.00, 0.00, -0.00, -1.00, 361.0, 29.5)">2</text></g></g></g></svg>