<?xml version="1.0" encoding="UTF-8" standalone="no"?><svg xmlns="http://www.w3.org/2000/svg" xmlns:xlink="http://www.w3.org/1999/xlink" clip-rule="evenodd" stroke-miterlimit="4.00" viewBox="0 0 313 69"><desc>SVG generated by Keynote</desc><defs></defs><g transform="matrix(1.00, 0.00, -0.00, -1.00, 0.0, 69.0)"><image xlink:href="../../77A22124-ADA6-47CF-82EF-BF417E5B2E45/assets/1B3855564D2FC721A7EF15F1911BB6B8.png" width="309.00" height="66.00" transform="matrix(1.00, 0.00, -0.00, -0.99, 1.6, 67.5)" opacity="0.50"></image><g><clipPath id="clip-274"><path d="M 6.6 62.5 L 306.1 62.5 L 306.1 6.9 L 6.6 6.9 Z M 6.6 62.5 "></path></clipPath><g clip-path="url(#clip-274)"><image xlink:href="../../77A22124-ADA6-47CF-82EF-BF417E5B2E45/assets/A8498EFF91E9DEC6C4DDBA59DF308009.jpeg" width="400.00" height="400.00" transform="matrix(1.00, 0.00, -0.00, -1.00, 6.6, 62.5)"></image></g></g><image xlink:href="../../77A22124-ADA6-47CF-82EF-BF417E5B2E45/assets/CBBF90EC656241B260947CCFCA2CC4D8.png" width="300.00" height="43.00" transform="matrix(1.00, 0.00, -0.00, -1.00, 7.0, 52.0)"></image><g><clipPath id="clip-275"><path d="M -3.0 -5.6 L 318.6 -5.6 L 318.6 72.2 L -3.0 72.2 Z M -3.0 -5.6 "></path></clipPath><g clip-path="url(#clip-275)"><text xml:space="preserve" font-family="Chalkduster" font-size="32.0" fill="#FEFFFE" transform="matrix(1.00, 0.00, -0.00, -1.00, 11.0, 20.0)">F</text><text xml:space="preserve" font-family="Chalkduster" font-size="32.0" fill="#FEFFFE" transform="matrix(1.00, 0.00, -0.00, -1.00, 34.8, 20.0)">i</text><text xml:space="preserve" font-family="Chalkduster" font-size="32.0" fill="#FEFFFE" transform="matrix(1.00, 0.00, -0.00, -1.00, 47.5, 20.0)">n</text><text xml:space="preserve" font-family="Chalkduster" font-size="32.0" fill="#FEFFFE" transform="matrix(1.00, 0.00, -0.00, -1.00, 70.9, 20.0)">d</text><text xml:space="preserve" font-family="Chalkduster" font-size="32.0" fill="#FEFFFE" transform="matrix(1.00, 0.00, -0.00, -1.00, 95.9, 20.0)"> </text><text xml:space="preserve" font-family="Chalkduster" font-size="32.0" fill="#FEFFFE" transform="matrix(1.00, 0.00, -0.00, -1.00, 111.8, 20.0)">R</text><text xml:space="preserve" font-family="Chalkduster" font-size="32.0" fill="#FEFFFE" transform="matrix(1.00, 0.00, -0.00, -1.00, 136.7, 20.0)">x</text><text xml:space="preserve" font-family="Chalkduster" font-size="32.0" fill="#FEFFFE" transform="matrix(1.00, 0.00, -0.00, -1.00, 157.1, 20.0)">L</text><text xml:space="preserve" font-family="Chalkduster" font-size="32.0" fill="#FEFFFE" transform="matrix(1.00, 0.00, -0.00, -1.00, 177.3, 20.0)">R</text><text xml:space="preserve" font-family="Chalkduster" font-size="32.0" fill="#FEFFFE" transform="matrix(1.00, 0.00, -0.00, -1.00, 202.2, 20.0)">.</text><text xml:space="preserve" font-family="Chalkduster" font-size="32.0" fill="#FEFFFE" transform="matrix(1.00, 0.00, -0.00, -1.00, 210.3, 20.0)">.</text><text xml:space="preserve" font-family="Chalkduster" font-size="32.0" fill="#FEFFFE" transform="matrix(1.00, 0.00, -0.00, -1.00, 218.4, 20.0)">.</text><text xml:space="preserve" font-family="Chalkduster" font-size="32.0" fill="#FEFFFE" transform="matrix(1.00, 0.00, -0.00, -1.00, 229.3, 20.0)">E</text><text xml:space="preserve" font-family="Chalkduster" font-size="32.0" fill="#FEFFFE" transform="matrix(1.00, 0.00, -0.00, -1.00, 252.9, 20.0)">E</text><text xml:space="preserve" font-family="Chalkduster" font-size="32.0" fill="#FEFFFE" transform="matrix(1.00, 0.00, -0.00, -1.00, 276.6, 20.0)">R</text></g></g></g></svg>