<?xml version="1.0" encoding="UTF-8" standalone="no"?><svg xmlns="http://www.w3.org/2000/svg" xmlns:xlink="http://www.w3.org/1999/xlink" clip-rule="evenodd" stroke-miterlimit="4.00" viewBox="0 0 1024 768"><desc>SVG generated by Keynote</desc><defs></defs><g transform="matrix(1.00, 0.00, -0.00, -1.00, 0.0, 768.0)"><g><clipPath id="clip-159"><path d="M 0.0 768.0 L 1024.0 768.0 L 1024.0 0.0 L 0.0 0.0 Z M 0.0 768.0 "></path></clipPath><g clip-path="url(#clip-159)"><image xlink:href="../../86BB661C-AAFE-46F2-89B5-B98D6D644DD8/assets/DE78B55DDE70D88C6FF874E8D33A46A3.jpeg" width="1024.00" height="768.00" transform="matrix(1.00, 0.00, -0.00, -1.00, 0.0, 768.0)"></image></g></g><image xlink:href="../../86BB661C-AAFE-46F2-89B5-B98D6D644DD8/assets/610DE41026624E3AEF638D24E71EF355.png" width="74.00" height="62.00" transform="matrix(1.00, 0.00, -0.00, -1.00, 949.0, 64.0)"></image><image xlink:href="../../86BB661C-AAFE-46F2-89B5-B98D6D644DD8/assets/C79B4846A618BF06956E5E1178655E37.png" width="40.00" height="40.00" transform="matrix(1.00, 0.00, -0.00, -1.01, 966.2, 53.0)" opacity="0.50"></image><g><clipPath id="clip-160"><path d="M 996.7 43.5 C 1002.5 37.6 1002.5 28.0 996.7 22.0 C 990.9 16.1 981.4 16.1 975.6 22.0 C 969.7 28.0 969.7 37.6 975.6 43.5 C 981.4 49.5 990.9 49.5 996.7 43.5 Z M 996.7 43.5 "></path></clipPath><g clip-path="url(#clip-160)"><image xlink:href="../../86BB661C-AAFE-46F2-89B5-B98D6D644DD8/assets/DE78B55DDE70D88C6FF874E8D33A46A3.jpeg" width="1024.00" height="768.00" transform="matrix(0.04, 0.00, -0.00, -0.04, 965.9, 48.0)"></image></g></g><text xml:space="preserve" font-family="HoboStd" font-size="18.0" fill="#E5CC77" transform="matrix(1.00, 0.00, -0.00, -1.00, 976.0, 26.0)">2</text><text xml:space="preserve" font-family="HoboStd" font-size="18.0" fill="#E5CC77" transform="matrix(1.00, 0.00, -0.00, -1.00, 986.4, 26.0)">5</text><image xlink:href="../../FA68C869-2C28-4629-9F9B-1CACE2D925C2/assets/A43A8645B2F587711586D2C4834C14E3.png" width="627.00" height="540.00" transform="matrix(1.37, 0.00, -0.00, -1.37, 83.0, 753.0)"></image><image xlink:href="../../F8D197C3-2CB1-427F-A149-DD6A1004466B/assets/E4A601E9DF05EF15F49A436D5F4C09A3.png" width="902.00" height="790.00" transform="matrix(1.00, 0.00, -0.00, 1.00, 61.0, -11.0)"></image></g></svg>