<?xml version="1.0" encoding="UTF-8" standalone="no"?><svg xmlns="http://www.w3.org/2000/svg" xmlns:xlink="http://www.w3.org/1999/xlink" clip-rule="evenodd" stroke-miterlimit="4.00" viewBox="0 0 140 73"><desc>SVG generated by Keynote</desc><defs></defs><g transform="matrix(1.00, 0.00, -0.00, -1.00, 0.0, 73.0)"><g><clipPath id="clip-453"><path d="M 90.1 8.2 L 139.0 8.2 L 139.0 72.9 L 90.1 72.9 Z M 90.1 8.2 "></path></clipPath><g clip-path="url(#clip-453)"><path d="M 132.3 56.5 C 132.5 56.7 132.3 57.6 132.6 57.8 M 132.3 56.5 C 131.1 57.4 131.2 58.9 131.1 60.8 C 131.2 62.9 132.3 60.7 132.8 60.9 C 133.5 63.7 132.5 63.7 131.1 63.3 C 132.0 64.3 130.2 67.4 132.0 66.9 C 132.3 62.4 132.2 70.2 133.4 66.4 C 133.7 66.0 134.1 67.1 134.1 67.5 C 134.9 66.3 135.6 68.6 136.2 66.5 C 137.3 66.3 136.9 66.6 137.8 65.2 C 137.9 64.6 137.5 64.9 137.3 64.9 C 136.0 64.7 138.0 63.2 137.2 62.1 C 138.8 61.0 136.8 60.0 136.1 60.9 C 136.3 59.9 137.9 58.5 136.6 57.6 C 137.3 56.9 136.4 54.3 135.6 56.0 C 135.1 57.3 134.4 56.1 134.0 56.0 C 133.7 56.4 134.5 58.0 134.2 58.2 C 133.8 57.8 133.0 55.8 133.3 57.9 C 132.7 57.3 132.5 58.4 132.3 56.5 C 132.3 56.5 132.3 56.5 132.3 56.5 Z M 131.8 64.1 C 131.4 64.1 131.8 63.4 131.8 64.1 C 131.8 64.1 131.8 64.1 131.8 64.1 Z M 137.5 58.4 C 137.1 58.5 137.5 57.6 137.5 58.4 C 137.5 58.4 137.5 58.4 137.5 58.4 Z M 137.3 64.5 C 136.9 64.6 137.3 63.7 137.3 64.5 C 137.3 64.5 137.3 64.5 137.3 64.5 Z M 132.1 62.1 C 132.4 60.9 132.7 63.1 132.3 63.3 C 132.4 63.0 131.7 62.4 132.1 62.1 C 132.1 62.1 132.1 62.1 132.1 62.1 Z M 134.6 61.9 C 134.5 61.8 134.4 61.3 134.9 61.3 C 135.0 61.6 134.8 62.0 134.6 61.9 C 134.6 61.9 134.6 61.9 134.6 61.9 Z M 132.7 67.9 C 132.5 67.8 132.5 67.3 133.0 67.4 C 133.0 67.7 132.8 68.0 132.7 67.9 C 132.7 67.9 132.7 67.9 132.7 67.9 Z M 133.2 60.7 C 133.3 60.4 133.7 60.2 133.7 60.6 C 133.5 60.8 133.5 61.7 133.2 60.7 C 133.2 60.7 133.2 60.7 133.2 60.7 Z M 131.6 58.9 C 131.7 57.9 132.6 59.9 132.4 59.9 C 132.1 60.2 131.3 59.5 131.6 58.9 C 131.6 58.9 131.6 58.9 131.6 58.9 Z M 133.8 60.1 C 133.9 59.2 134.1 60.4 133.8 60.1 C 133.8 60.1 133.8 60.1 133.8 60.1 Z M 136.0 67.3 C 136.3 66.4 136.3 67.7 136.0 67.3 C 136.0 67.3 136.0 67.3 136.0 67.3 Z M 137.5 62.6 C 137.7 61.7 137.8 63.0 137.5 62.6 C 137.5 62.6 137.5 62.6 137.5 62.6 Z M 133.0 64.3 C 132.9 65.8 131.9 64.5 133.0 64.3 C 133.0 64.3 133.0 64.3 133.0 64.3 Z M 131.2 56.7 C 131.4 58.1 130.1 57.0 131.2 56.7 C 131.2 56.7 131.2 56.7 131.2 56.7 Z M 95.9 15.5 C 94.6 15.4 99.0 18.3 97.7 16.0 C 97.6 14.5 100.9 15.8 99.6 16.7 C 100.5 17.2 100.5 17.3 101.3 16.9 C 101.0 18.0 103.0 19.4 104.0 19.3 C 104.8 18.7 102.6 18.5 104.2 18.2 C 107.1 19.3 104.5 17.2 106.1 16.7 C 106.2 16.7 106.0 17.3 106.4 17.1 C 107.0 16.2 105.7 14.7 106.8 14.3 C 106.3 14.2 104.6 12.1 105.1 13.4 C 105.0 14.5 103.2 11.2 102.8 12.9 C 102.3 11.8 101.1 12.6 100.8 11.4 C 100.2 11.0 100.0 11.9 100.0 12.1 C 99.8 12.9 99.8 10.2 98.5 11.2 C 98.6 10.8 95.9 10.2 97.7 11.4 C 97.2 11.1 94.3 9.9 95.5 11.8 C 97.3 13.0 93.0 12.8 95.3 13.5 C 97.1 14.1 97.5 14.0 96.0 14.4 C 95.6 14.2 93.6 13.8 95.1 14.9 C 95.5 14.8 96.2 15.2 95.9 15.5 C 95.9 15.5 95.9 15.5 95.9 15.5 Z M 96.2 13.2 C 97.2 13.5 96.1 13.8 96.2 13.2 C 96.2 13.2 96.2 13.2 96.2 13.2 Z M 101.0 11.1 C 102.1 11.4 100.9 11.7 101.0 11.1 C 101.0 11.1 101.0 11.1 101.0 11.1 Z M 98.8 16.9 C 99.4 16.6 99.0 18.2 98.8 16.9 C 98.8 16.9 98.8 16.9 98.8 16.9 Z M 98.8 11.7 C 98.9 11.8 98.6 11.9 98.4 11.9 C 98.4 11.8 98.7 11.7 98.8 11.7 C 98.8 11.7 98.8 11.7 98.8 11.7 Z M 100.4 17.5 C 102.1 17.3 100.2 18.7 100.4 17.5 C 100.4 17.5 100.4 17.5 100.4 17.5 Z M 103.8 17.3 C 104.7 15.9 105.1 18.3 103.8 17.3 C 103.8 17.3 103.8 17.3 103.8 17.3 Z M 103.2 13.2 C 102.8 13.4 103.0 12.9 103.2 13.2 C 103.2 13.2 103.2 13.2 103.2 13.2 Z M 96.4 10.6 C 96.1 10.9 96.2 10.3 96.4 10.6 C 96.4 10.6 96.4 10.6 96.4 10.6 Z M 105.0 14.2 C 104.7 14.6 104.6 13.6 105.0 14.2 C 105.0 14.2 105.0 14.2 105.0 14.2 Z M 99.3 16.4 C 97.5 17.1 98.3 14.0 99.3 16.4 C 99.3 16.4 99.3 16.4 99.3 16.4 Z M 96.9 15.7 C 95.9 15.7 97.3 15.0 97.6 15.3 C 97.5 15.4 97.0 15.7 96.9 15.7 C 96.9 15.7 96.9 15.7 96.9 15.7 Z M 100.7 16.8 C 99.6 17.0 100.0 16.1 100.7 16.8 C 100.7 16.8 100.7 16.8 100.7 16.8 Z M 98.2 16.6 C 97.8 16.3 98.6 16.5 98.2 16.6 C 98.2 16.6 98.2 16.6 98.2 16.6 Z M 101.9 18.7 C 101.6 18.4 102.3 18.7 101.9 18.7 C 101.9 18.7 101.9 18.7 101.9 18.7 Z M 95.6 16.0 C 95.2 15.7 96.0 15.9 95.6 16.0 C 95.6 16.0 95.6 16.0 95.6 16.0 Z M 101.9 17.8 C 102.3 17.3 101.6 15.6 103.3 17.6 C 103.5 18.1 102.3 18.5 101.9 17.8 C 101.9 17.8 101.9 17.8 101.9 17.8 Z M 132.0 54.4 C 130.8 58.0 133.7 56.7 134.3 56.8 C 135.2 57.2 135.7 56.6 136.2 55.9 C 138.0 54.8 134.0 55.1 135.8 54.2 C 138.3 52.8 133.4 53.6 136.0 52.6 C 136.8 52.6 135.9 51.4 135.7 51.5 C 136.9 50.5 134.3 50.1 134.1 50.2 C 134.3 49.6 136.7 48.9 134.5 48.0 C 133.6 47.1 135.8 45.9 134.2 46.7 C 135.8 45.3 133.5 46.4 133.9 45.4 C 134.7 44.5 132.4 45.9 133.9 44.2 C 132.2 44.4 135.1 44.2 132.9 42.1 C 133.3 43.4 131.2 41.4 132.4 41.5 C 133.9 41.9 131.5 40.5 131.6 39.0 C 130.9 38.9 128.9 38.3 130.4 37.8 C 131.4 35.7 128.8 37.2 129.8 35.9 C 130.2 35.2 128.9 35.7 128.8 35.4 C 129.6 34.4 128.7 34.5 128.1 32.9 C 126.5 29.6 125.4 34.1 124.3 33.2 C 123.7 33.4 121.7 37.1 123.6 34.8 C 123.1 35.5 127.0 36.1 123.7 36.7 C 125.3 36.9 122.5 37.1 124.9 38.1 C 125.3 34.6 127.2 40.4 124.9 38.7 C 124.6 39.4 125.3 40.3 125.3 39.3 C 126.9 38.1 125.5 41.4 127.0 39.3 C 127.3 41.2 129.0 39.8 127.8 40.9 C 125.7 42.4 128.4 40.5 128.1 41.7 C 129.0 43.5 125.6 43.3 127.9 43.6 C 127.5 46.0 129.1 43.6 129.7 44.1 C 131.4 43.6 129.2 46.5 128.4 45.2 C 129.6 45.6 127.6 45.6 129.0 46.1 C 130.3 44.9 127.8 47.8 128.9 47.1 C 129.6 47.7 130.4 47.0 130.5 47.2 C 130.9 48.4 129.2 48.5 130.5 48.4 C 131.2 48.4 129.3 49.6 129.9 49.6 C 129.6 48.4 131.8 50.1 131.0 50.5 C 130.7 49.8 129.0 51.4 130.4 51.6 C 133.7 50.1 129.7 52.8 131.1 53.1 C 132.9 52.1 131.8 55.7 130.7 54.7 C 130.9 54.7 132.0 54.4 132.0 54.4 M 130.2 49.9 C 130.1 48.8 130.9 50.8 130.2 49.9 M 129.7 50.0 C 130.3 49.4 129.5 51.1 129.5 50.1 C 129.5 50.0 129.7 50.1 129.7 50.0 M 128.4 46.1 C 128.9 46.0 128.2 46.8 128.4 46.1 M 129.2 44.9 C 129.5 44.1 129.7 45.7 129.2 44.9 M 124.6 36.7 C 127.6 35.9 123.7 38.4 124.6 36.7 M 127.0 42.4 C 127.9 43.2 125.7 42.6 127.0 42.4 M 127.9 42.4 C 128.5 42.7 127.3 42.8 127.9 42.4 M 125.5 38.2 C 125.5 38.1 125.5 38.1 125.5 38.2 C 125.5 38.2 125.5 38.2 125.5 38.2 Z M 124.1 35.8 C 124.0 35.8 124.0 35.8 124.1 35.8 C 124.1 35.8 124.1 35.8 124.1 35.8 Z M 127.1 40.4 C 126.9 41.5 126.2 39.3 127.1 40.4 C 127.1 40.4 127.1 40.4 127.1 40.4 Z M 128.7 34.5 C 128.8 34.5 128.8 34.5 128.7 34.5 C 128.7 34.5 128.7 34.5 128.7 34.5 Z M 131.8 50.3 C 131.8 50.3 131.8 50.3 131.8 50.3 C 131.8 50.3 131.8 50.3 131.8 50.3 Z M 131.4 53.7 C 131.8 53.5 131.2 54.3 131.4 53.7 C 131.4 53.7 131.4 53.7 131.4 53.7 Z M 135.2 55.7 C 135.3 55.7 135.3 55.7 135.2 55.7 C 135.2 55.7 135.2 55.7 135.2 55.7 Z M 133.6 51.0 C 133.6 51.0 133.6 51.0 133.6 51.0 C 133.6 51.0 133.6 51.0 133.6 51.0 Z M 131.3 51.0 C 129.8 52.0 131.4 49.8 131.3 51.0 C 131.3 51.0 131.3 51.0 131.3 51.0 Z M 131.3 39.6 C 130.6 39.9 131.2 38.7 131.3 39.6 C 131.3 39.6 131.3 39.6 131.3 39.6 Z M 129.8 44.5 C 129.4 44.6 129.8 44.0 129.8 44.5 C 129.8 44.5 129.8 44.5 129.8 44.5 Z M 128.3 47.0 C 127.9 47.0 128.3 46.5 128.3 47.0 C 128.3 47.0 128.3 47.0 128.3 47.0 Z M 130.9 53.7 C 130.8 53.7 130.8 53.7 130.9 53.7 C 130.9 53.7 130.9 53.7 130.9 53.7 Z M 131.9 52.3 C 130.6 53.4 132.5 50.9 131.9 52.3 C 131.9 52.3 131.9 52.3 131.9 52.3 Z M 132.6 53.6 C 133.1 53.0 132.6 54.7 132.6 53.6 M 134.8 52.3 C 133.9 51.4 137.7 52.6 134.8 52.3 C 134.8 52.3 134.8 52.3 134.8 52.3 Z M 134.0 47.1 C 134.1 47.0 134.1 47.0 134.0 47.1 C 134.0 47.1 134.0 47.1 134.0 47.1 Z M 129.9 48.9 C 129.7 48.1 130.4 49.3 129.9 48.9 C 129.9 48.9 129.9 48.9 129.9 48.9 Z M 131.2 56.1 C 131.1 55.3 131.6 56.6 131.2 56.1 C 131.2 56.1 131.2 56.1 131.2 56.1 Z M 131.6 44.7 C 130.9 43.4 132.7 45.3 131.6 44.7 C 131.6 44.7 131.6 44.7 131.6 44.7 Z M 127.9 40.6 C 127.9 40.5 127.9 40.5 127.9 40.6 C 127.9 40.6 127.9 40.6 127.9 40.6 Z M 126.8 40.0 C 126.9 40.0 126.9 40.0 126.8 40.0 C 126.8 40.0 126.8 40.0 126.8 40.0 Z M 126.2 35.7 C 126.2 35.6 126.2 35.6 126.2 35.7 C 126.2 35.7 126.2 35.7 126.2 35.7 Z M 125.8 39.6 C 125.8 39.6 125.8 39.6 125.8 39.6 C 125.8 39.6 125.8 39.6 125.8 39.6 Z M 124.8 37.1 C 124.8 37.0 124.8 37.0 124.8 37.1 C 124.8 37.1 124.8 37.1 124.8 37.1 Z M 123.8 38.1 C 123.8 38.0 123.8 38.0 123.8 38.1 C 123.8 38.1 123.8 38.1 123.8 38.1 Z M 132.7 40.5 C 132.8 40.4 132.8 40.4 132.7 40.5 C 132.7 40.5 132.7 40.5 132.7 40.5 Z M 130.1 52.4 C 130.2 52.3 130.2 52.3 130.1 52.4 C 130.1 52.4 130.1 52.4 130.1 52.4 Z M 125.4 36.9 C 125.4 36.9 125.4 36.9 125.4 36.9 C 125.4 36.9 125.4 36.9 125.4 36.9 Z M 129.7 42.4 C 130.9 41.9 128.3 43.7 129.5 42.3 C 129.6 42.3 129.5 42.5 129.7 42.4 M 131.3 40.6 C 131.3 40.7 131.3 40.7 131.3 40.6 C 131.3 40.6 131.3 40.6 131.3 40.6 Z M 133.3 43.3 C 133.4 43.4 133.4 43.4 133.3 43.3 C 133.3 43.3 133.3 43.3 133.3 43.3 Z M 125.8 40.2 C 125.2 40.6 125.9 39.2 125.9 40.2 M 128.1 34.5 C 127.6 35.0 128.2 33.5 128.2 34.6 M 131.8 57.0 C 132.4 57.0 131.6 57.6 131.8 57.0 M 134.2 43.8 C 134.8 43.7 134.1 44.5 134.2 43.8 M 132.1 43.0 C 131.5 43.4 132.3 42.0 132.2 43.1 M 129.3 36.4 C 129.2 36.4 129.2 36.4 129.3 36.4 C 129.3 36.4 129.3 36.4 129.3 36.4 Z M 129.6 47.7 C 129.6 47.6 129.6 47.6 129.6 47.7 C 129.6 47.7 129.6 47.7 129.6 47.7 Z M 129.8 43.6 C 129.1 44.5 130.1 42.7 129.8 43.6 M 131.7 48.2 C 130.7 49.2 131.7 46.9 131.7 48.2 M 127.4 32.9 C 126.7 34.5 127.7 31.9 127.4 32.9 M 126.5 38.5 C 125.6 40.0 126.9 37.6 126.5 38.5 M 130.0 46.7 C 129.3 47.1 130.2 45.8 130.0 46.7 M 131.4 55.1 C 131.4 55.9 130.6 54.2 131.4 55.1 M 130.3 38.3 C 130.4 38.3 130.4 38.3 130.3 38.3 C 130.3 38.3 130.3 38.3 130.3 38.3 Z M 136.5 51.3 C 136.6 51.3 136.6 51.3 136.5 51.3 C 136.5 51.3 136.5 51.3 136.5 51.3 Z M 122.7 34.8 C 122.8 34.7 122.8 34.7 122.7 34.8 C 122.7 34.8 122.7 34.8 122.7 34.8 Z M 127.4 38.6 C 127.4 38.5 127.4 38.5 127.4 38.6 C 127.4 38.6 127.4 38.6 127.4 38.6 Z M 123.5 36.2 C 123.5 36.1 123.5 36.1 123.5 36.2 C 123.5 36.2 123.5 36.2 123.5 36.2 Z M 129.6 40.4 C 129.7 40.4 129.7 40.4 129.6 40.4 C 129.6 40.4 129.6 40.4 129.6 40.4 Z M 126.4 42.6 C 126.4 42.6 126.4 42.6 126.4 42.6 C 126.4 42.6 126.4 42.6 126.4 42.6 Z M 129.0 44.5 C 129.0 44.4 129.0 44.4 129.0 44.5 C 129.0 44.5 129.0 44.5 129.0 44.5 Z M 126.1 41.3 C 125.2 40.0 127.6 41.5 126.1 41.3 C 126.1 41.3 126.1 41.3 126.1 41.3 Z M 130.8 42.4 C 130.9 42.3 130.9 42.3 130.8 42.4 C 130.8 42.4 130.8 42.4 130.8 42.4 Z M 128.4 43.7 C 127.0 43.1 129.9 42.4 128.4 43.7 M 129.2 48.3 C 128.6 48.2 130.0 47.9 129.2 48.3 M 134.6 48.7 C 134.7 48.7 134.7 48.7 134.6 48.7 C 134.6 48.7 134.6 48.7 134.6 48.7 Z M 134.1 48.3 C 134.1 48.2 134.1 48.2 134.1 48.3 C 134.1 48.3 134.1 48.3 134.1 48.3 Z M 129.3 49.4 C 129.3 49.4 129.3 49.4 129.3 49.4 C 129.3 49.4 129.3 49.4 129.3 49.4 Z M 135.4 47.8 C 135.5 47.7 135.5 47.7 135.4 47.8 C 135.4 47.8 135.4 47.8 135.4 47.8 Z M 126.7 43.1 C 126.7 43.1 126.7 43.1 126.7 43.1 C 126.7 43.1 126.7 43.1 126.7 43.1 Z M 122.5 35.8 C 122.6 35.8 122.6 35.8 122.5 35.8 C 122.5 35.8 122.5 35.8 122.5 35.8 Z M 135.3 54.2 C 135.4 54.1 135.4 54.1 135.3 54.2 C 135.3 54.2 135.3 54.2 135.3 54.2 Z M 127.7 41.7 C 127.8 41.6 127.8 41.6 127.7 41.7 C 127.7 41.7 127.7 41.7 127.7 41.7 Z M 134.7 50.0 C 134.8 50.0 134.8 50.0 134.7 50.0 C 134.7 50.0 134.7 50.0 134.7 50.0 Z M 127.7 42.3 C 127.7 42.3 127.7 42.3 127.7 42.3 C 127.7 42.3 127.7 42.3 127.7 42.3 Z M 130.8 38.4 C 130.8 38.4 130.8 38.4 130.8 38.4 C 130.8 38.4 130.8 38.4 130.8 38.4 Z M 130.6 36.2 C 130.6 36.2 130.6 36.2 130.6 36.2 C 130.6 36.2 130.6 36.2 130.6 36.2 Z M 128.4 39.8 C 128.5 39.7 128.5 39.7 128.4 39.8 C 128.4 39.8 128.4 39.8 128.4 39.8 Z M 133.3 51.0 C 132.8 54.8 132.0 48.5 133.3 51.0 M 128.5 39.1 C 129.3 41.4 126.2 38.1 128.5 39.1 C 128.0 39.1 128.4 39.1 128.5 39.1 M 121.7 34.5 C 123.4 34.4 124.6 33.7 125.5 32.4 C 125.8 31.6 123.5 33.3 125.4 31.8 C 126.5 32.5 128.0 29.3 125.5 31.1 C 124.2 30.1 127.0 29.7 125.4 29.7 C 124.1 28.6 125.4 28.7 124.4 27.8 C 122.6 28.3 124.5 26.6 123.1 27.4 C 124.8 26.8 121.8 26.7 122.3 26.2 C 123.9 26.3 119.2 22.9 121.0 25.5 C 119.5 25.1 120.7 24.3 120.5 23.8 C 119.4 24.2 119.5 21.8 118.3 22.0 C 118.2 22.3 118.5 22.6 118.3 23.0 C 118.1 23.6 117.8 22.3 117.8 22.4 C 117.2 22.3 115.0 21.8 117.8 21.8 C 118.4 21.3 116.2 21.0 116.7 20.5 C 115.2 19.2 115.3 21.5 115.4 20.0 C 114.4 19.1 113.6 18.6 113.4 18.7 C 112.9 18.1 113.3 17.2 112.1 17.6 C 111.8 15.1 109.3 20.0 110.7 16.6 C 109.8 17.1 110.6 14.8 109.5 16.8 C 110.6 16.2 107.9 13.9 108.4 16.0 C 107.8 16.3 107.2 12.8 106.5 14.9 C 105.1 16.1 104.6 17.6 105.1 19.7 C 105.6 18.5 105.9 21.7 106.0 19.2 C 105.2 17.9 108.5 19.7 107.4 20.0 C 105.9 22.1 109.8 19.5 109.4 21.5 C 109.5 20.3 112.3 21.6 110.5 22.7 C 110.8 23.1 111.5 22.5 111.3 23.7 C 110.0 22.5 113.1 22.5 112.3 23.4 C 111.6 23.8 113.3 25.9 113.8 24.9 C 114.8 22.2 114.0 25.7 115.0 25.2 C 116.5 25.8 113.3 26.8 115.5 26.1 C 115.4 26.5 116.9 27.8 115.6 27.4 C 115.4 26.9 118.5 26.1 117.0 27.9 C 114.6 27.3 118.2 30.1 118.3 29.1 C 116.9 25.9 121.7 30.7 119.0 29.6 C 119.0 31.6 118.3 29.6 119.9 30.6 C 120.3 30.0 121.8 30.6 120.5 31.3 C 119.0 32.9 123.1 29.8 121.4 32.6 C 120.5 33.5 123.5 33.7 121.9 34.0 C 121.7 34.0 121.7 34.4 121.7 34.5 M 121.6 33.8 C 122.1 33.7 121.3 34.5 121.6 33.8 M 122.1 33.7 C 122.1 33.8 122.1 33.8 122.1 33.7 C 122.1 33.7 122.1 33.7 122.1 33.7 Z M 120.2 30.8 C 120.1 30.8 120.1 30.8 120.2 30.8 C 120.2 30.8 120.2 30.8 120.2 30.8 Z M 122.3 24.9 C 122.3 25.0 122.3 25.0 122.3 24.9 C 122.3 24.9 122.3 24.9 122.3 24.9 Z M 118.7 29.0 C 118.7 29.0 118.7 29.0 118.7 29.0 C 118.7 29.0 118.7 29.0 118.7 29.0 Z M 121.3 31.5 C 121.3 31.5 121.3 31.5 121.3 31.5 C 121.3 31.5 121.3 31.5 121.3 31.5 Z M 118.3 29.7 C 118.8 29.0 118.4 30.7 118.1 29.7 C 118.2 29.7 118.3 29.8 118.3 29.7 M 115.9 27.8 C 116.0 27.7 116.0 27.7 115.9 27.8 M 114.7 18.4 C 114.7 18.3 114.7 18.3 114.7 18.4 M 110.4 23.4 C 110.4 23.2 110.4 23.2 110.4 23.4 M 114.3 25.2 C 113.5 24.7 114.4 24.7 114.3 25.2 M 108.7 21.6 C 109.4 22.7 107.4 21.4 108.7 21.6 M 107.5 21.5 C 107.5 21.4 107.5 21.4 107.5 21.5 M 111.9 24.1 C 112.0 24.1 112.0 24.1 111.9 24.1 C 111.9 24.1 111.9 24.1 111.9 24.1 Z M 114.3 25.7 C 115.0 26.8 112.9 25.5 114.3 25.7 M 119.3 31.0 C 118.6 30.8 120.1 30.3 119.3 31.0 M 120.5 31.7 C 120.6 31.7 120.6 31.7 120.5 31.7 C 120.5 31.7 120.5 31.7 120.5 31.7 Z M 110.2 22.7 C 110.3 22.7 110.3 22.7 110.2 22.7 C 110.2 22.7 110.2 22.7 110.2 22.7 Z M 109.0 22.1 C 109.1 22.1 109.1 22.1 109.0 22.1 C 109.0 22.1 109.0 22.1 109.0 22.1 Z M 110.3 15.7 C 110.3 15.7 110.3 15.7 110.3 15.7 C 110.3 15.7 110.3 15.7 110.3 15.7 Z M 121.8 29.3 C 122.1 30.3 119.7 29.9 120.9 29.0 C 121.3 28.6 121.6 29.3 121.8 29.3 M 116.2 24.9 C 117.4 23.2 115.0 27.6 116.2 24.9 M 108.1 20.2 C 108.6 17.6 108.1 22.3 108.1 20.2 M 106.3 19.7 C 106.0 19.0 109.3 21.1 106.6 20.3 C 106.2 20.5 106.3 20.0 106.3 19.7 M 116.6 27.0 C 117.2 26.0 117.3 28.4 116.6 27.0 M 114.4 20.7 C 113.6 21.0 112.2 20.8 113.4 20.1 C 114.4 18.8 115.2 20.5 114.4 20.7 M 122.3 32.9 C 120.4 33.4 123.6 31.9 122.3 32.9 M 120.2 30.0 C 120.1 30.0 120.1 30.0 120.2 30.0 C 120.2 30.0 120.2 30.0 120.2 30.0 Z M 119.0 29.2 C 119.1 29.0 119.1 29.0 119.0 29.2 M 120.7 33.4 C 120.8 33.3 120.8 33.3 120.7 33.4 M 113.3 22.2 C 113.3 22.1 113.3 22.1 113.3 22.2 M 114.8 25.0 C 114.9 22.7 115.6 25.2 114.8 25.0 M 119.7 24.7 C 120.0 23.8 120.4 25.3 119.7 24.7 M 112.6 24.1 C 112.9 22.2 114.6 23.6 112.6 24.1 M 115.2 25.6 C 115.1 25.5 115.1 25.5 115.2 25.6 C 115.2 25.6 115.2 25.6 115.2 25.6 Z M 114.2 20.3 C 114.3 20.3 114.3 20.3 114.2 20.3 C 114.2 20.3 114.2 20.3 114.2 20.3 Z M 113.8 20.1 C 113.9 20.1 113.9 20.1 113.8 20.1 C 113.8 20.1 113.8 20.1 113.8 20.1 Z M 111.6 23.6 C 111.6 23.6 111.6 23.6 111.6 23.6 C 111.6 23.6 111.6 23.6 111.6 23.6 Z M 124.3 28.8 C 123.7 27.9 125.0 29.2 124.3 28.8 C 124.3 28.8 124.3 28.8 124.3 28.8 Z M 117.5 28.9 C 117.4 26.8 119.2 28.7 117.5 28.9 C 117.5 28.9 117.5 28.9 117.5 28.9 Z M 117.8 26.0 C 117.9 25.9 117.9 25.9 117.8 26.0 C 117.8 26.0 117.8 26.0 117.8 26.0 Z M 112.4 25.3 C 112.5 25.3 112.5 25.3 112.4 25.3 C 112.4 25.3 112.4 25.3 112.4 25.3 Z M 124.1 28.2 C 124.2 28.2 124.2 28.2 124.1 28.2 C 124.1 28.2 124.1 28.2 124.1 28.2 Z M 109.9 21.3 C 109.9 21.2 109.9 21.2 109.9 21.3 C 109.9 21.3 109.9 21.3 109.9 21.3 Z M 116.6 21.8 C 115.9 22.1 116.9 21.4 116.6 21.8 C 116.6 21.8 116.6 21.8 116.6 21.8 Z M 115.4 20.8 C 115.3 20.8 115.3 20.8 115.4 20.8 C 115.4 20.8 115.4 20.8 115.4 20.8 Z M 107.1 21.4 C 107.1 21.4 107.1 21.4 107.1 21.4 C 107.1 21.4 107.1 21.4 107.1 21.4 Z M 113.1 17.2 C 113.1 17.2 113.1 17.2 113.1 17.2 C 113.1 17.2 113.1 17.2 113.1 17.2 Z M 110.9 18.2 C 110.9 18.2 110.9 18.2 110.9 18.2 C 110.9 18.2 110.9 18.2 110.9 18.2 Z M 112.0 23.4 C 110.7 22.8 112.7 23.0 112.0 23.4 C 112.0 23.4 112.0 23.4 112.0 23.4 Z M 107.4 16.7 C 107.4 16.6 107.4 16.6 107.4 16.7 C 107.4 16.7 107.4 16.7 107.4 16.7 Z M 105.6 18.5 C 105.6 18.4 105.6 18.4 105.6 18.5 C 105.6 18.5 105.6 18.5 105.6 18.5 Z M 104.7 19.4 C 104.7 19.3 104.7 19.3 104.7 19.4 C 104.7 19.4 104.7 19.4 104.7 19.4 Z M 120.9 27.4 C 120.9 27.5 120.9 27.5 120.9 27.4 C 120.9 27.4 120.9 27.4 120.9 27.4 Z M 118.5 30.5 C 118.4 30.5 118.4 30.5 118.5 30.5 C 118.5 30.5 118.5 30.5 118.5 30.5 Z M 117.0 29.2 C 117.0 29.2 117.0 29.2 117.0 29.2 C 117.0 29.2 117.0 29.2 117.0 29.2 Z M 122.8 26.2 C 122.8 26.2 122.8 26.2 122.8 26.2 C 122.8 26.2 122.8 26.2 122.8 26.2 Z M 114.9 23.2 C 114.9 23.2 114.9 23.2 114.9 23.2 C 114.9 23.2 114.9 23.2 114.9 23.2 Z M 115.4 21.5 C 115.3 21.6 115.3 21.6 115.4 21.5 C 115.4 21.5 115.4 21.5 115.4 21.5 Z M 118.1 21.1 C 118.1 21.1 118.1 21.1 118.1 21.1 C 118.1 21.1 118.1 21.1 118.1 21.1 Z M 115.7 20.1 C 115.7 20.1 115.7 20.1 115.7 20.1 C 115.7 20.1 115.7 20.1 115.7 20.1 Z M 125.7 30.7 C 125.8 30.7 125.8 30.7 125.7 30.7 C 125.7 30.7 125.7 30.7 125.7 30.7 Z M 123.5 32.6 C 123.6 32.6 123.6 32.6 123.5 32.6 C 123.5 32.6 123.5 32.6 123.5 32.6 Z M 113.4 24.7 C 112.8 25.0 113.4 23.6 113.4 24.7 M 115.8 26.2 C 115.8 26.2 115.8 26.2 115.8 26.2 C 115.8 26.2 115.8 26.2 115.8 26.2 Z M 109.8 21.9 C 110.1 20.7 110.5 23.1 109.8 21.9 C 109.8 21.9 109.8 21.9 109.8 21.9 Z M 113.8 18.7 C 113.8 18.6 113.8 18.6 113.8 18.7 C 113.8 18.7 113.8 18.7 113.8 18.7 Z M 112.9 18.6 C 112.9 18.5 112.9 18.5 112.9 18.6 C 112.9 18.6 112.9 18.6 112.9 18.6 Z M 107.6 19.1 C 107.6 18.9 107.6 18.9 107.6 19.1 M 115.3 27.2 C 115.4 26.5 115.4 26.7 115.3 27.2 M 109.0 21.3 C 109.1 21.3 109.1 21.3 109.0 21.3 C 109.0 21.3 109.0 21.3 109.0 21.3 Z M 106.5 19.2 C 106.6 19.2 106.6 19.2 106.5 19.2 C 106.5 19.2 106.5 19.2 106.5 19.2 Z M 117.3 28.0 C 118.2 26.9 118.3 27.4 117.3 28.0 M 121.4 31.8 C 121.4 31.7 121.4 31.7 121.4 31.8 C 121.4 31.8 121.4 31.8 121.4 31.8 Z M 121.4 31.8 " fill="#FF7777"></path></g></g><g><clipPath id="clip-454"><path d="M 1.4 1.6 L 94.7 1.6 L 94.7 27.4 L 1.4 27.4 Z M 1.4 1.6 "></path></clipPath><g clip-path="url(#clip-454)"><text xml:space="preserve" font-family="Chalkduster" font-size="12.0" fill="#FEFFFE" transform="matrix(1.00, 0.00, -0.00, -1.00, 5.0, 9.0)">i</text><text xml:space="preserve" font-family="Chalkduster" font-size="12.0" fill="#FEFFFE" transform="matrix(1.00, 0.00, -0.00, -1.00, 9.9, 9.0)">l</text><text xml:space="preserve" font-family="Chalkduster" font-size="12.0" fill="#FEFFFE" transform="matrix(1.00, 0.00, -0.00, -1.00, 15.3, 9.0)">l</text><text xml:space="preserve" font-family="Chalkduster" font-size="12.0" fill="#FEFFFE" transform="matrix(1.00, 0.00, -0.00, -1.00, 20.3, 9.0)">e</text><text xml:space="preserve" font-family="Chalkduster" font-size="12.0" fill="#FEFFFE" transform="matrix(1.00, 0.00, -0.00, -1.00, 27.3, 9.0)">g</text><text xml:space="preserve" font-family="Chalkduster" font-size="12.0" fill="#FEFFFE" transform="matrix(1.00, 0.00, -0.00, -1.00, 35.5, 9.0)">a</text><text xml:space="preserve" font-family="Chalkduster" font-size="12.0" fill="#FEFFFE" transform="matrix(1.00, 0.00, -0.00, -1.00, 43.3, 9.0)">l</text><text xml:space="preserve" font-family="Chalkduster" font-size="12.0" fill="#FEFFFE" transform="matrix(1.00, 0.00, -0.00, -1.00, 48.9, 9.0)"> </text><text xml:space="preserve" font-family="Chalkduster" font-size="12.0" fill="#FEFFFE" transform="matrix(1.00, 0.00, -0.00, -1.00, 54.9, 9.0)">w</text><text xml:space="preserve" font-family="Chalkduster" font-size="12.0" fill="#FEFFFE" transform="matrix(1.00, 0.00, -0.00, -1.00, 64.8, 9.0)">o</text><text xml:space="preserve" font-family="Chalkduster" font-size="12.0" fill="#FEFFFE" transform="matrix(1.00, 0.00, -0.00, -1.00, 73.5, 9.0)">r</text><text xml:space="preserve" font-family="Chalkduster" font-size="12.0" fill="#FEFFFE" transform="matrix(1.00, 0.00, -0.00, -1.00, 79.9, 9.0)">d</text></g></g></g></svg>