<?xml version="1.0" encoding="UTF-8" standalone="no"?><svg xmlns="http://www.w3.org/2000/svg" xmlns:xlink="http://www.w3.org/1999/xlink" clip-rule="evenodd" stroke-miterlimit="4.00" viewBox="0 0 171 143"><desc>SVG generated by Keynote</desc><defs></defs><g transform="matrix(1.00, 0.00, -0.00, -1.00, 0.0, 143.0)"><image xlink:href="../../C4DAA233-18F5-48F4-BBD0-76CE04EE7CD7/assets/3473D3183AC7159DAD1976248DDF98EB.png" width="168.00" height="139.00" transform="matrix(1.00, 0.00, -0.00, -1.00, 1.9, 141.1)" opacity="0.50"></image><g><clipPath id="clip-457"><path d="M 36.5 136.1 L 134.9 136.1 C 143.4 136.1 147.7 136.1 152.3 134.7 C 157.3 132.9 161.3 128.9 163.1 123.9 C 164.6 119.3 164.6 115.0 164.6 106.4 L 164.6 36.5 C 164.6 28.0 164.6 23.7 163.1 19.1 C 161.3 14.1 157.3 10.1 152.3 8.3 C 147.7 6.8 143.4 6.8 134.8 6.8 L 36.5 6.8 C 28.0 6.8 23.7 6.8 19.1 8.3 C 14.1 10.1 10.2 14.1 8.3 19.1 C 6.9 23.7 6.9 28.0 6.9 36.6 L 6.9 106.5 C 6.9 115.0 6.9 119.3 8.3 123.9 C 10.2 128.9 14.1 132.9 19.1 134.7 C 23.7 136.1 28.0 136.1 36.7 136.1 Z M 36.5 136.1 "></path></clipPath><g clip-path="url(#clip-457)"><image xlink:href="../../0F1C3E34-B6D3-4443-8C0C-3E94B790F8DE/assets/59DBD66EA15A3D40E065F836EF2595FD.jpeg" width="400.00" height="400.00" transform="matrix(1.00, 0.00, -0.00, -1.00, 6.9, 136.1)"></image></g></g><image xlink:href="../../C4DAA233-18F5-48F4-BBD0-76CE04EE7CD7/assets/486E9D2311BE545F4E974DA80F68BC76.png" width="119.00" height="38.00" transform="matrix(1.00, 0.00, -0.00, -1.00, 28.0, 86.0)"></image><g><clipPath id="clip-458"><path d="M -2.8 6.8 L 177.1 6.8 L 177.1 136.1 L -2.8 136.1 Z M -2.8 6.8 "></path></clipPath><g clip-path="url(#clip-458)"><text xml:space="preserve" font-family="Chalkduster" font-size="32.0" fill="#FEFFFE" transform="matrix(1.00, 0.00, -0.00, -1.00, 31.0, 57.0)">P</text><text xml:space="preserve" font-family="Chalkduster" font-size="32.0" fill="#FEFFFE" transform="matrix(1.00, 0.00, -0.00, -1.00, 51.6, 57.0)">a</text><text xml:space="preserve" font-family="Chalkduster" font-size="32.0" fill="#FEFFFE" transform="matrix(1.00, 0.00, -0.00, -1.00, 72.0, 57.0)">r</text><text xml:space="preserve" font-family="Chalkduster" font-size="32.0" fill="#FEFFFE" transform="matrix(1.00, 0.00, -0.00, -1.00, 88.5, 57.0)">s</text><text xml:space="preserve" font-family="Chalkduster" font-size="32.0" fill="#FEFFFE" transform="matrix(1.00, 0.00, -0.00, -1.00, 104.7, 57.0)">e</text><text xml:space="preserve" font-family="Chalkduster" font-size="32.0" fill="#FEFFFE" transform="matrix(1.00, 0.00, -0.00, -1.00, 124.2, 57.0)">r</text></g></g></g></svg>