<?xml version="1.0" encoding="UTF-8" standalone="no"?><svg xmlns="http://www.w3.org/2000/svg" xmlns:xlink="http://www.w3.org/1999/xlink" clip-rule="evenodd" stroke-miterlimit="4.00" viewBox="0 0 171 142"><desc>SVG generated by Keynote</desc><defs></defs><g transform="matrix(1.00, 0.00, -0.00, -1.00, 0.0, 142.0)"><image xlink:href="../../C4DAA233-18F5-48F4-BBD0-76CE04EE7CD7/assets/3473D3183AC7159DAD1976248DDF98EB.png" width="168.00" height="139.00" transform="matrix(1.00, 0.00, -0.00, -1.00, 1.4, 140.8)" opacity="0.50"></image><g><clipPath id="clip-459"><path d="M 36.1 135.8 L 134.5 135.8 C 143.0 135.8 147.3 135.8 151.9 134.3 C 156.9 132.5 160.8 128.5 162.7 123.5 C 164.1 118.9 164.1 114.6 164.1 106.0 L 164.1 36.1 C 164.1 27.6 164.1 23.3 162.7 18.7 C 160.8 13.7 156.9 9.7 151.9 7.9 C 147.3 6.5 143.0 6.5 134.3 6.5 L 36.1 6.5 C 27.6 6.5 23.3 6.5 18.7 7.9 C 13.7 9.7 9.7 13.7 7.9 18.7 C 6.4 23.3 6.4 27.6 6.4 36.2 L 6.4 106.1 C 6.4 114.6 6.4 118.9 7.9 123.5 C 9.7 128.5 13.7 132.5 18.7 134.3 C 23.3 135.8 27.6 135.8 36.2 135.8 Z M 36.1 135.8 "></path></clipPath><g clip-path="url(#clip-459)"><image xlink:href="../../0F1C3E34-B6D3-4443-8C0C-3E94B790F8DE/assets/59DBD66EA15A3D40E065F836EF2595FD.jpeg" width="400.00" height="400.00" transform="matrix(1.00, 0.00, -0.00, -1.00, 6.4, 135.8)"></image></g></g><image xlink:href="../../C4DAA233-18F5-48F4-BBD0-76CE04EE7CD7/assets/A61E9E7473B295A098A2922A06DE4AA0.png" width="126.00" height="54.00" transform="matrix(1.00, 0.00, -0.00, -1.00, 23.0, 87.0)"></image><g><clipPath id="clip-460"><path d="M -3.3 6.5 L 176.6 6.5 L 176.6 135.8 L -3.3 135.8 Z M -3.3 6.5 "></path></clipPath><g clip-path="url(#clip-460)"><text xml:space="preserve" font-family="Chalkduster" font-size="32.0" fill="#FEFFFE" transform="matrix(1.00, 0.00, -0.00, -1.00, 27.0, 57.0)">A</text><text xml:space="preserve" font-family="Chalkduster" font-size="32.0" fill="#FEFFFE" transform="matrix(1.00, 0.00, -0.00, -1.00, 50.7, 57.0)">n</text><text xml:space="preserve" font-family="Chalkduster" font-size="32.0" fill="#FEFFFE" transform="matrix(1.00, 0.00, -0.00, -1.00, 74.1, 57.0)">a</text><text xml:space="preserve" font-family="Chalkduster" font-size="32.0" fill="#FEFFFE" transform="matrix(1.00, 0.00, -0.00, -1.00, 94.8, 57.0)">l</text><text xml:space="preserve" font-family="Chalkduster" font-size="32.0" fill="#FEFFFE" transform="matrix(1.00, 0.00, -0.00, -1.00, 107.8, 57.0)">y</text><text xml:space="preserve" font-family="Chalkduster" font-size="32.0" fill="#FEFFFE" transform="matrix(1.00, 0.00, -0.00, -1.00, 127.3, 57.0)">s</text></g></g></g></svg>