<?xml version="1.0" encoding="UTF-8" standalone="no"?><svg xmlns="http://www.w3.org/2000/svg" xmlns:xlink="http://www.w3.org/1999/xlink" clip-rule="evenodd" stroke-miterlimit="4.00" viewBox="0 0 122 161"><desc>SVG generated by Keynote</desc><defs></defs><g transform="matrix(1.00, 0.00, -0.00, -1.00, 0.0, 161.0)"><path d="M 9.0 154.1 C 8.8 154.3 8.4 154.0 8.2 154.2 M 9.0 154.1 C 8.5 152.8 7.7 152.7 6.9 152.5 C 6.1 152.4 7.0 153.7 6.9 154.2 C 5.8 154.7 6.0 153.8 6.1 152.4 C 5.8 153.3 5.5 151.7 5.5 153.4 C 5.8 153.4 5.2 153.8 5.5 154.8 C 5.6 155.1 5.5 155.5 5.5 155.5 C 5.5 156.3 5.3 157.1 5.5 157.6 C 5.5 158.7 5.5 158.2 5.7 159.1 C 5.8 159.2 5.7 158.8 5.7 158.6 C 5.8 157.3 6.1 159.3 6.4 158.5 C 6.7 160.2 7.1 158.2 6.8 157.5 C 7.1 157.7 7.6 159.4 8.1 158.2 C 8.4 159.0 9.9 158.5 9.0 157.4 C 8.3 156.8 9.1 156.3 9.2 155.9 C 8.9 155.5 8.1 156.1 8.0 155.7 C 8.2 155.5 9.2 154.9 8.1 154.9 C 8.5 154.3 7.9 154.0 9.0 154.1 C 9.0 154.1 9.0 154.1 9.0 154.1 Z M 5.9 153.1 C 5.9 152.7 6.1 153.1 5.9 153.1 C 5.9 153.1 5.9 153.1 5.9 153.1 Z M 7.7 159.1 C 7.7 158.6 8.1 159.1 7.7 159.1 C 7.7 159.1 7.7 159.1 7.7 159.1 Z M 5.8 158.6 C 5.8 158.2 6.0 158.6 5.8 158.6 C 5.8 158.6 5.8 158.6 5.8 158.6 Z M 6.4 153.4 C 6.8 153.8 6.1 154.0 6.1 153.6 C 6.2 153.7 6.3 153.0 6.4 153.4 C 6.4 153.4 6.4 153.4 6.4 153.4 Z M 6.5 156.0 C 6.5 155.8 6.7 155.8 6.7 156.2 C 6.6 156.3 6.5 156.1 6.5 156.0 C 6.5 156.0 6.5 156.0 6.5 156.0 Z M 5.4 154.2 C 5.5 154.0 5.5 153.9 5.5 154.4 C 5.4 154.5 5.4 154.3 5.4 154.2 C 5.4 154.2 5.4 154.2 5.4 154.2 Z M 6.9 154.6 C 7.0 154.7 7.1 155.1 6.9 155.1 C 6.9 154.9 6.5 154.8 6.9 154.6 C 6.9 154.6 6.9 154.6 6.9 154.6 Z M 7.7 153.1 C 8.2 153.3 7.3 154.0 7.3 153.8 C 7.1 153.5 7.5 152.8 7.7 153.1 C 7.7 153.1 7.7 153.1 7.7 153.1 Z M 7.2 155.2 C 7.5 155.4 7.0 155.5 7.2 155.2 C 7.2 155.2 7.2 155.2 7.2 155.2 Z M 5.5 157.4 C 5.5 157.7 5.4 157.8 5.5 157.4 C 5.5 157.4 5.5 157.4 5.5 157.4 Z M 6.3 158.8 C 6.5 159.0 6.1 159.1 6.3 158.8 C 6.3 158.8 6.3 158.8 6.3 158.8 Z M 5.9 154.3 C 5.6 154.3 5.8 153.2 5.9 154.3 C 5.9 154.3 5.9 154.3 5.9 154.3 Z M 9.0 153.0 C 8.1 153.0 8.8 151.9 9.0 153.0 C 9.0 153.0 9.0 153.0 9.0 153.0 Z M 114.3 5.6 C 114.0 5.4 112.6 6.0 114.3 5.8 C 115.8 5.8 115.6 6.5 114.3 6.2 C 114.1 6.4 114.0 6.4 114.7 6.6 C 113.6 6.6 113.1 7.4 113.6 7.8 C 114.5 8.1 113.7 7.2 114.7 7.8 C 114.9 9.1 115.7 7.7 116.9 8.3 C 116.8 8.4 116.3 8.3 116.6 8.5 C 117.7 8.6 118.5 7.8 119.3 8.2 C 119.1 8.0 120.4 7.2 119.4 7.5 C 118.4 7.6 120.7 6.8 119.0 6.8 C 119.8 6.6 118.7 6.4 119.7 6.3 C 119.9 6.1 119.0 6.1 118.7 6.1 C 117.9 6.1 120.5 6.1 119.1 5.9 C 119.6 5.9 119.4 5.6 118.8 5.8 C 118.9 5.8 119.3 5.7 117.7 5.6 C 117.0 5.7 116.1 5.5 116.1 5.6 C 115.9 5.6 116.2 5.7 115.4 5.6 C 115.5 5.6 115.3 5.5 114.6 5.5 C 114.8 5.5 114.7 5.6 114.3 5.6 C 114.3 5.6 114.3 5.6 114.3 5.6 Z M 116.5 5.6 C 116.6 5.7 116.0 5.6 116.5 5.6 C 116.5 5.6 116.5 5.6 116.5 5.6 Z M 120.0 6.3 C 120.1 6.5 119.4 6.3 120.0 6.3 C 120.0 6.3 120.0 6.3 120.0 6.3 Z M 113.9 6.0 C 114.3 6.1 112.7 6.1 113.9 6.0 C 113.9 6.0 113.9 6.0 113.9 6.0 Z M 118.7 5.9 C 118.7 5.9 118.5 5.9 118.4 5.9 C 118.5 5.9 118.7 5.9 118.7 5.9 C 118.7 5.9 118.7 5.9 118.7 5.9 Z M 113.9 6.4 C 114.6 6.9 112.6 6.5 113.9 6.4 C 113.9 6.4 113.9 6.4 113.9 6.4 Z M 115.3 7.5 C 116.9 7.7 115.0 8.1 115.3 7.5 C 115.3 7.5 115.3 7.5 115.3 7.5 Z M 118.9 6.9 C 118.5 6.8 119.1 6.8 118.9 6.9 C 118.9 6.9 118.9 6.9 118.9 6.9 Z M 119.1 5.7 C 118.8 5.7 119.3 5.7 119.1 5.7 C 119.1 5.7 119.1 5.7 119.1 5.7 Z M 118.7 7.6 C 118.1 7.5 119.0 7.4 118.7 7.6 C 118.7 7.6 118.7 7.6 118.7 7.6 Z M 114.5 6.1 C 113.2 5.7 116.4 5.8 114.5 6.1 C 114.5 6.1 114.5 6.1 114.5 6.1 Z M 114.4 5.7 C 114.1 5.5 115.2 5.7 115.0 5.8 C 114.9 5.8 114.5 5.7 114.4 5.7 C 114.4 5.7 114.4 5.7 114.4 5.7 Z M 114.6 6.5 C 114.0 6.2 115.0 6.2 114.6 6.5 C 114.6 6.5 114.6 6.5 114.6 6.5 Z M 114.0 5.9 C 114.1 5.8 114.1 6.0 114.0 5.9 C 114.0 5.9 114.0 5.9 114.0 5.9 Z M 113.3 7.0 C 113.4 6.8 113.4 7.1 113.3 7.0 C 113.3 7.0 113.3 7.0 113.3 7.0 Z M 113.7 5.5 C 113.9 5.5 113.9 5.6 113.7 5.5 C 113.7 5.5 113.7 5.5 113.7 5.5 Z M 114.1 6.9 C 114.7 7.0 116.0 6.5 114.9 7.4 C 114.5 7.5 113.7 7.1 114.1 6.9 C 114.1 6.9 114.1 6.9 114.1 6.9 Z M 11.5 154.1 C 7.4 152.3 8.8 155.5 8.6 156.0 C 8.2 156.9 8.6 157.4 9.3 158.0 C 10.0 160.0 10.4 156.0 11.0 157.9 C 12.1 160.6 12.2 155.6 12.8 158.4 C 12.6 159.1 14.4 158.5 14.2 158.4 C 15.1 159.7 16.6 157.3 16.6 157.0 C 17.3 157.4 17.3 159.9 19.6 158.0 C 21.4 157.3 22.4 159.7 21.8 158.0 C 23.2 159.9 22.7 157.5 24.2 158.0 C 25.3 159.1 24.2 156.4 26.1 158.4 C 26.9 156.8 25.1 159.5 30.5 158.1 C 27.9 158.1 33.0 156.8 32.0 157.9 C 30.2 159.1 34.6 157.4 37.3 157.9 C 37.9 157.3 41.1 155.7 40.6 157.3 C 43.5 159.0 43.4 156.0 44.7 157.4 C 45.7 158.0 45.9 156.6 46.6 156.7 C 47.7 157.8 48.5 157.0 52.1 157.0 C 60.0 157.0 53.0 154.0 56.0 153.4 C 56.4 152.8 51.8 149.4 53.7 152.1 C 53.1 151.4 47.0 154.7 49.9 151.4 C 47.6 152.8 50.4 150.2 45.7 151.9 C 52.4 153.7 38.3 153.3 44.5 151.8 C 43.4 151.3 40.9 151.5 42.7 151.9 C 43.6 153.9 38.3 151.3 41.0 153.6 C 37.0 153.1 38.1 155.2 37.0 153.7 C 35.9 151.2 37.2 154.4 35.2 153.7 C 30.7 153.9 34.1 150.8 31.5 152.9 C 27.2 151.7 30.6 154.0 29.2 154.4 C 28.9 156.2 25.0 153.2 28.1 152.8 C 26.5 153.9 27.7 152.0 26.0 153.2 C 27.3 154.8 23.6 151.5 24.2 152.8 C 22.6 153.3 23.5 154.2 23.0 154.3 C 20.7 154.4 21.4 152.7 21.0 153.9 C 20.5 154.6 19.4 152.5 19.2 153.0 C 21.3 153.1 17.5 154.8 17.3 153.9 C 18.5 153.8 16.6 151.8 15.8 153.1 C 16.9 156.7 14.2 152.2 13.4 153.5 C 14.2 155.5 10.0 153.7 11.5 152.8 C 11.4 153.0 11.5 154.1 11.5 154.1 M 18.6 153.3 C 20.3 153.5 16.7 153.8 18.6 153.3 M 18.5 152.8 C 19.3 153.5 16.8 152.3 18.6 152.6 C 18.6 152.6 18.4 152.8 18.5 152.8 M 26.3 152.5 C 26.1 153.1 25.2 152.3 26.3 152.5 M 28.0 153.7 C 29.4 154.2 26.1 153.9 28.0 153.7 M 49.0 152.2 C 47.0 155.4 46.5 150.7 49.0 152.2 M 34.7 152.5 C 32.2 153.0 35.5 151.2 34.7 152.5 M 34.0 153.3 C 32.9 153.8 33.7 152.6 34.0 153.3 M 44.8 152.5 C 45.0 152.6 45.0 152.6 44.8 152.5 C 44.8 152.5 44.8 152.5 44.8 152.5 Z M 51.3 152.2 C 51.4 152.1 51.4 152.1 51.3 152.2 C 51.3 152.2 51.3 152.2 51.3 152.2 Z M 38.6 153.2 C 36.6 152.6 41.8 152.8 38.6 153.2 C 38.6 153.2 38.6 153.2 38.6 153.2 Z M 48.5 156.9 C 48.4 157.0 48.4 157.0 48.5 156.9 C 48.5 156.9 48.5 156.9 48.5 156.9 Z M 17.2 154.7 C 17.2 154.8 17.2 154.8 17.2 154.7 C 17.2 154.7 17.2 154.7 17.2 154.7 Z M 12.6 153.7 C 12.6 154.1 11.8 153.4 12.6 153.7 C 12.6 153.7 12.6 153.7 12.6 153.7 Z M 9.6 157.1 C 9.5 157.2 9.5 157.2 9.6 157.1 C 9.6 157.1 9.6 157.1 9.6 157.1 Z M 15.6 156.3 C 15.5 156.4 15.5 156.4 15.6 156.3 C 15.6 156.3 15.6 156.3 15.6 156.3 Z M 16.3 154.1 C 15.4 152.5 18.2 154.5 16.3 154.1 C 16.3 154.1 16.3 154.1 16.3 154.1 Z M 36.4 157.5 C 36.5 156.7 38.1 157.6 36.4 157.5 C 36.4 157.5 36.4 157.5 36.4 157.5 Z M 28.3 154.4 C 28.5 154.0 29.2 154.5 28.3 154.4 C 28.3 154.4 28.3 154.4 28.3 154.4 Z M 24.7 152.3 C 25.0 151.9 25.6 152.4 24.7 152.3 C 24.7 152.3 24.7 152.3 24.7 152.3 Z M 12.6 153.2 C 12.7 153.1 12.7 153.1 12.6 153.2 C 12.6 153.2 12.6 153.2 12.6 153.2 Z M 14.2 154.4 C 13.1 152.9 16.0 155.3 14.2 154.4 C 14.2 154.4 14.2 154.4 14.2 154.4 Z M 12.4 154.9 C 12.9 155.5 11.0 154.7 12.4 154.9 M 13.4 157.3 C 14.8 156.6 12.3 160.1 13.4 157.3 C 13.4 157.3 13.4 157.3 13.4 157.3 Z M 21.3 157.7 C 21.4 157.8 21.4 157.8 21.3 157.7 C 21.3 157.7 21.3 157.7 21.3 157.7 Z M 20.3 153.3 C 21.8 153.3 19.3 153.6 20.3 153.3 C 20.3 153.3 20.3 153.3 20.3 153.3 Z M 9.7 153.1 C 10.6 153.1 9.2 153.4 9.7 153.1 C 9.7 153.1 9.7 153.1 9.7 153.1 Z M 26.7 156.1 C 29.5 155.8 25.0 157.0 26.7 156.1 C 26.7 156.1 26.7 156.1 26.7 156.1 Z M 37.6 153.9 C 37.7 153.9 37.7 153.9 37.6 153.9 C 37.6 153.9 37.6 153.9 37.6 153.9 Z M 39.7 153.1 C 39.7 153.1 39.7 153.1 39.7 153.1 C 39.7 153.1 39.7 153.1 39.7 153.1 Z M 48.9 154.1 C 49.1 154.2 49.1 154.2 48.9 154.1 C 48.9 154.1 48.9 154.1 48.9 154.1 Z M 41.6 152.3 C 41.7 152.3 41.7 152.3 41.6 152.3 C 41.6 152.3 41.6 152.3 41.6 152.3 Z M 48.0 152.3 C 48.1 152.3 48.1 152.3 48.0 152.3 C 48.0 152.3 48.0 152.3 48.0 152.3 Z M 47.0 151.0 C 47.1 151.0 47.1 151.0 47.0 151.0 C 47.0 151.0 47.0 151.0 47.0 151.0 Z M 33.5 158.5 C 33.6 158.5 33.6 158.5 33.5 158.5 C 33.5 158.5 33.5 158.5 33.5 158.5 Z M 14.7 152.7 C 14.8 152.8 14.8 152.8 14.7 152.7 C 14.7 152.7 14.7 152.7 14.7 152.7 Z M 47.5 152.9 C 47.6 152.9 47.6 152.9 47.5 152.9 C 47.5 152.9 47.5 152.9 47.5 152.9 Z M 32.4 154.9 C 32.5 156.3 31.1 153.3 32.8 154.9 C 32.7 154.9 32.3 154.7 32.4 154.9 M 34.5 157.0 C 34.4 157.1 34.4 157.1 34.5 157.0 C 34.5 157.0 34.5 157.0 34.5 157.0 Z M 28.0 158.1 C 28.0 158.1 28.0 158.1 28.0 158.1 C 28.0 158.1 28.0 158.1 28.0 158.1 Z M 40.5 152.1 C 40.2 151.3 42.2 152.5 40.2 152.1 M 49.2 156.4 C 48.8 155.7 51.0 156.9 48.9 156.5 M 8.8 153.6 C 8.7 154.1 8.2 153.2 8.8 153.6 M 26.7 158.8 C 26.5 159.4 25.5 158.5 26.7 158.8 M 29.5 157.1 C 29.2 156.3 31.1 157.6 29.3 157.1 M 44.3 156.7 C 44.4 156.7 44.4 156.7 44.3 156.7 C 44.3 156.7 44.3 156.7 44.3 156.7 Z M 22.7 153.3 C 22.7 153.4 22.7 153.4 22.7 153.3 C 22.7 153.3 22.7 153.3 22.7 153.3 Z M 30.1 154.7 C 29.0 153.7 31.5 155.3 30.1 154.7 M 20.7 155.2 C 19.4 153.9 22.8 155.5 20.7 155.2 M 52.9 156.4 C 50.9 155.1 54.4 157.1 52.9 156.4 M 43.1 153.3 C 41.1 151.9 44.5 154.1 43.1 153.3 M 24.1 153.9 C 24.0 153.2 25.7 154.4 24.1 153.9 M 10.8 153.4 C 9.9 153.3 12.0 152.8 10.8 153.4 M 39.6 157.0 C 39.7 157.1 39.7 157.1 39.6 157.0 C 39.6 157.0 39.6 157.0 39.6 157.0 Z M 14.2 159.2 C 14.2 159.2 14.2 159.2 14.2 159.2 C 14.2 159.2 14.2 159.2 14.2 159.2 Z M 55.0 151.3 C 55.1 151.3 55.1 151.3 55.0 151.3 C 55.0 151.3 55.0 151.3 55.0 151.3 Z M 42.0 154.1 C 42.1 154.2 42.1 154.2 42.0 154.1 C 42.0 154.1 42.0 154.1 42.0 154.1 Z M 51.3 151.4 C 51.4 151.5 51.4 151.5 51.3 151.4 C 51.3 151.4 51.3 151.4 51.3 151.4 Z M 36.2 155.6 C 36.3 155.6 36.3 155.6 36.2 155.6 C 36.2 155.6 36.2 155.6 36.2 155.6 Z M 34.9 151.8 C 35.0 151.8 35.0 151.8 34.9 151.8 C 34.9 151.8 34.9 151.8 34.9 151.8 Z M 29.0 153.7 C 29.1 153.7 29.1 153.7 29.0 153.7 C 29.0 153.7 29.0 153.7 29.0 153.7 Z M 37.8 152.0 C 41.5 151.5 35.9 153.3 37.8 152.0 C 37.8 152.0 37.8 152.0 37.8 152.0 Z M 31.6 156.1 C 31.6 156.1 31.6 156.1 31.6 156.1 C 31.6 156.1 31.6 156.1 31.6 156.1 Z M 31.0 153.4 C 33.2 152.2 32.3 155.2 31.0 153.4 M 21.7 152.8 C 22.3 152.2 22.1 153.7 21.7 152.8 M 18.6 157.9 C 18.6 158.0 18.6 158.0 18.6 157.9 C 18.6 157.9 18.6 157.9 18.6 157.9 Z M 19.4 157.5 C 19.5 157.5 19.5 157.5 19.4 157.5 C 19.4 157.5 19.4 157.5 19.4 157.5 Z M 19.7 152.6 C 19.7 152.6 19.7 152.6 19.7 152.6 C 19.7 152.6 19.7 152.6 19.7 152.6 Z M 19.6 158.9 C 19.7 158.9 19.7 158.9 19.6 158.9 C 19.6 158.9 19.6 158.9 19.6 158.9 Z M 33.5 151.9 C 33.6 152.0 33.6 152.0 33.5 151.9 C 33.5 151.9 33.5 151.9 33.5 151.9 Z M 53.2 150.7 C 53.2 150.7 53.2 150.7 53.2 150.7 C 53.2 150.7 53.2 150.7 53.2 150.7 Z M 11.1 157.5 C 11.2 157.5 11.2 157.5 11.1 157.5 C 11.1 157.5 11.1 157.5 11.1 157.5 Z M 35.6 153.4 C 35.6 153.4 35.6 153.4 35.6 153.4 C 35.6 153.4 35.6 153.4 35.6 153.4 Z M 16.6 157.7 C 16.6 157.7 16.6 157.7 16.6 157.7 C 16.6 157.7 16.6 157.7 16.6 157.7 Z M 34.3 153.1 C 34.4 153.1 34.4 153.1 34.3 153.1 C 34.3 153.1 34.3 153.1 34.3 153.1 Z M 39.1 157.4 C 39.1 157.4 39.1 157.4 39.1 157.4 C 39.1 157.4 39.1 157.4 39.1 157.4 Z M 43.3 158.0 C 43.4 158.0 43.4 158.0 43.3 158.0 C 43.3 158.0 43.3 158.0 43.3 158.0 Z M 38.6 154.7 C 38.7 154.7 38.7 154.7 38.6 154.7 C 38.6 154.7 38.6 154.7 38.6 154.7 Z M 15.6 156.0 C 10.4 154.8 19.7 155.4 15.6 156.0 M 39.9 155.0 C 34.5 154.9 44.1 153.2 39.9 155.0 C 40.5 154.5 40.0 154.9 39.9 155.0 M 56.9 150.5 C 54.8 152.1 54.9 153.5 56.0 154.8 C 57.2 155.5 56.9 152.6 57.2 155.0 C 54.6 155.7 58.6 158.5 58.3 155.4 C 61.7 154.7 59.1 157.3 61.0 155.9 C 64.6 155.2 62.8 156.4 65.6 155.8 C 67.0 154.0 67.3 156.4 67.8 154.8 C 66.7 156.7 70.7 153.9 70.9 154.7 C 68.6 156.1 80.0 153.3 73.7 153.8 C 76.1 152.6 75.8 154.1 76.7 154.1 C 77.6 152.9 80.9 154.2 82.1 152.9 C 81.8 152.7 81.0 152.8 80.8 152.5 C 80.2 152.0 82.4 152.3 82.2 152.3 C 83.0 151.8 86.5 149.9 83.0 152.6 C 82.9 153.4 86.0 151.5 86.0 152.2 C 89.3 151.4 86.4 150.4 88.1 151.2 C 90.3 150.7 91.7 150.2 91.7 150.0 C 92.9 149.7 93.5 150.5 94.2 149.3 C 97.1 150.0 94.1 145.4 96.5 148.3 C 96.7 147.2 98.3 149.0 97.2 147.1 C 97.0 148.3 101.0 146.6 98.6 146.3 C 98.7 145.6 102.3 146.3 100.4 144.9 C 99.7 143.3 98.7 142.1 96.7 141.7 C 97.6 142.6 94.7 141.6 96.9 142.7 C 98.3 142.5 95.1 144.7 95.5 143.6 C 94.4 141.2 94.2 146.1 92.5 144.8 C 93.7 145.4 89.7 147.5 90.3 145.2 C 89.5 145.3 89.5 146.3 88.3 145.5 C 91.1 144.8 87.7 147.8 87.6 146.6 C 87.9 145.7 83.1 146.4 83.9 147.3 C 86.2 149.6 82.5 147.1 81.9 148.3 C 79.2 149.5 81.9 145.9 80.1 148.3 C 79.5 148.1 75.5 148.9 77.9 147.8 C 78.9 147.9 76.0 151.2 75.2 149.0 C 79.4 147.0 69.9 149.1 71.5 149.6 C 78.8 149.8 64.1 152.0 69.6 150.0 C 66.2 149.2 70.5 149.4 66.5 150.5 C 67.1 151.1 64.0 152.2 64.6 150.7 C 63.7 148.5 63.8 153.7 60.9 151.0 C 60.4 149.7 56.0 152.4 57.7 150.8 C 57.7 150.7 57.0 150.5 56.9 150.5 M 58.4 150.6 C 57.9 151.2 57.5 150.1 58.4 150.6 M 57.9 151.1 C 57.8 151.1 57.8 151.1 57.9 151.1 C 57.9 151.1 57.9 151.1 57.9 151.1 Z M 65.9 150.6 C 65.9 150.6 65.9 150.6 65.9 150.6 C 65.9 150.6 65.9 150.6 65.9 150.6 Z M 72.9 155.3 C 72.8 155.2 72.8 155.2 72.9 155.3 C 72.9 155.3 72.9 155.3 72.9 155.3 Z M 71.1 150.1 C 71.1 150.1 71.1 150.1 71.1 150.1 C 71.1 150.1 71.1 150.1 71.1 150.1 Z M 63.1 151.3 C 63.1 151.3 63.1 151.3 63.1 151.3 C 63.1 151.3 63.1 151.3 63.1 151.3 Z M 70.5 149.3 C 71.0 150.1 68.7 149.0 70.6 149.2 C 70.7 149.2 70.3 149.3 70.5 149.3 M 76.9 148.0 C 76.9 148.1 76.9 148.1 76.9 148.0 M 90.8 151.3 C 90.9 151.4 90.9 151.4 90.8 151.3 M 89.6 144.8 C 89.7 144.9 89.7 144.9 89.6 144.8 M 82.9 147.6 C 84.6 147.1 83.4 147.9 82.9 147.6 M 93.0 144.0 C 91.4 144.1 94.3 143.0 93.0 144.0 M 94.0 143.0 C 94.2 143.0 94.2 143.0 94.0 143.0 M 87.1 145.9 C 87.1 146.0 87.1 146.0 87.1 145.9 C 87.1 145.9 87.1 145.9 87.1 145.9 Z M 82.1 147.5 C 79.7 147.5 84.2 146.2 82.1 147.5 M 66.8 149.7 C 68.2 149.1 66.9 150.8 66.8 149.7 M 63.7 150.5 C 63.7 150.6 63.7 150.6 63.7 150.5 C 63.7 150.5 63.7 150.5 63.7 150.5 Z M 90.6 144.9 C 90.5 145.0 90.5 145.0 90.6 144.9 C 90.6 144.9 90.6 144.9 90.6 144.9 Z M 92.3 144.1 C 92.2 144.2 92.2 144.2 92.3 144.1 C 92.3 144.1 92.3 144.1 92.3 144.1 Z M 97.7 148.2 C 97.6 148.3 97.6 148.3 97.7 148.2 C 97.7 148.2 97.7 148.2 97.7 148.2 Z M 66.3 152.8 C 64.2 152.6 68.1 150.5 67.9 152.1 C 68.2 152.7 66.5 152.6 66.3 152.8 M 80.8 149.6 C 81.7 151.6 78.5 147.2 80.8 149.6 M 94.8 144.1 C 96.9 145.8 92.8 143.2 94.8 144.1 M 96.3 142.7 C 97.0 142.8 93.5 144.8 95.6 142.8 C 95.6 142.3 96.0 142.6 96.3 142.7 M 77.1 149.0 C 77.9 150.0 74.1 149.0 77.1 149.0 M 88.4 149.9 C 88.9 149.0 90.6 147.8 90.2 149.3 C 90.6 150.8 87.6 150.8 88.4 149.9 M 59.2 151.7 C 60.7 149.7 59.3 153.3 59.2 151.7 M 67.3 151.0 C 67.3 150.9 67.3 150.9 67.3 151.0 C 67.3 151.0 67.3 151.0 67.3 151.0 Z M 70.4 150.3 C 70.5 150.4 70.5 150.4 70.4 150.3 M 60.3 150.0 C 60.5 150.1 60.5 150.1 60.3 150.0 M 87.8 148.1 C 88.0 148.2 88.0 148.2 87.8 148.1 M 82.5 148.2 C 85.4 149.4 81.2 148.9 82.5 148.2 M 76.5 152.9 C 77.5 153.6 74.7 153.3 76.5 152.9 M 86.3 146.6 C 88.3 147.8 84.5 148.7 86.3 146.6 M 81.2 148.3 C 81.3 148.3 81.3 148.3 81.2 148.3 C 81.2 148.3 81.2 148.3 81.2 148.3 Z M 89.1 149.9 C 89.0 150.0 89.0 150.0 89.1 149.9 C 89.1 149.9 89.1 149.9 89.1 149.9 Z M 89.7 149.6 C 89.7 149.7 89.7 149.7 89.7 149.6 C 89.7 149.6 89.7 149.6 89.7 149.6 Z M 88.1 145.8 C 88.1 145.9 88.1 145.9 88.1 145.8 C 88.1 145.8 88.1 145.8 88.1 145.8 Z M 64.0 155.3 C 66.3 155.2 62.3 155.8 64.0 155.3 C 64.0 155.3 64.0 155.3 64.0 155.3 Z M 72.9 149.0 C 76.5 149.8 70.7 150.6 72.9 149.0 C 72.9 149.0 72.9 149.0 72.9 149.0 Z M 77.1 150.6 C 77.1 150.7 77.1 150.7 77.1 150.6 C 77.1 150.6 77.1 150.6 77.1 150.6 Z M 85.0 145.8 C 85.0 145.9 85.0 145.9 85.0 145.8 C 85.0 145.8 85.0 145.8 85.0 145.8 Z M 65.2 155.4 C 65.2 155.5 65.2 155.5 65.2 155.4 C 65.2 155.4 65.2 155.4 65.2 155.4 Z M 92.4 145.3 C 92.4 145.4 92.4 145.4 92.4 145.3 C 92.4 145.3 92.4 145.3 92.4 145.3 Z M 84.5 151.4 C 85.0 150.6 84.7 151.9 84.5 151.4 C 84.5 151.4 84.5 151.4 84.5 151.4 Z M 87.1 150.8 C 87.2 150.7 87.2 150.7 87.1 150.8 C 87.1 150.8 87.1 150.8 87.1 150.8 Z M 94.3 142.7 C 94.4 142.6 94.4 142.6 94.3 142.7 C 94.3 142.7 94.3 142.7 94.3 142.7 Z M 93.7 150.4 C 93.7 150.3 93.7 150.3 93.7 150.4 C 93.7 150.4 93.7 150.4 93.7 150.4 Z M 94.7 147.8 C 94.7 147.8 94.7 147.8 94.7 147.8 C 94.7 147.8 94.7 147.8 94.7 147.8 Z M 87.9 146.3 C 90.1 145.3 87.6 147.2 87.9 146.3 C 87.9 146.3 87.9 146.3 87.9 146.3 Z M 98.5 145.0 C 98.6 145.0 98.6 145.0 98.5 145.0 C 98.5 145.0 98.5 145.0 98.5 145.0 Z M 97.6 142.7 C 97.7 142.7 97.7 142.7 97.6 142.7 C 97.6 142.7 97.6 142.7 97.6 142.7 Z M 96.9 141.6 C 97.0 141.7 97.0 141.7 96.9 141.6 C 96.9 141.6 96.9 141.6 96.9 141.6 Z M 70.7 152.8 C 70.6 152.7 70.6 152.7 70.7 152.8 C 70.7 152.8 70.7 152.8 70.7 152.8 Z M 68.9 149.2 C 68.8 149.1 68.8 149.1 68.9 149.2 C 68.9 149.2 68.9 149.2 68.9 149.2 Z M 73.1 148.4 C 73.0 148.3 73.0 148.3 73.1 148.4 C 73.1 148.4 73.1 148.4 73.1 148.4 Z M 70.2 155.2 C 70.1 155.1 70.1 155.1 70.2 155.2 C 70.2 155.2 70.2 155.2 70.2 155.2 Z M 84.7 149.2 C 84.6 149.2 84.6 149.2 84.7 149.2 C 84.7 149.2 84.7 149.2 84.7 149.2 Z M 86.3 150.4 C 86.2 150.4 86.2 150.4 86.3 150.4 C 86.3 150.4 86.3 150.4 86.3 150.4 Z M 83.6 153.2 C 83.6 153.2 83.6 153.2 83.6 153.2 C 83.6 153.2 83.6 153.2 83.6 153.2 Z M 87.6 151.5 C 87.6 151.4 87.6 151.4 87.6 151.5 C 87.6 151.5 87.6 151.5 87.6 151.5 Z M 58.8 155.8 C 58.7 155.8 58.7 155.8 58.8 155.8 C 58.8 155.8 58.8 155.8 58.8 155.8 Z M 58.1 152.9 C 58.1 153.0 58.1 153.0 58.1 152.9 C 58.1 152.9 58.1 152.9 58.1 152.9 Z M 84.6 147.1 C 85.0 146.3 86.0 147.6 84.6 147.1 M 79.5 148.6 C 79.4 148.6 79.4 148.6 79.5 148.6 C 79.5 148.6 79.5 148.6 79.5 148.6 Z M 91.9 144.9 C 92.8 145.8 89.9 145.0 91.9 144.9 C 91.9 144.9 91.9 144.9 91.9 144.9 Z M 91.4 150.3 C 91.4 150.3 91.4 150.3 91.4 150.3 C 91.4 150.3 91.4 150.3 91.4 150.3 Z M 92.4 149.4 C 92.5 149.5 92.5 149.5 92.4 149.4 C 92.4 149.4 92.4 149.4 92.4 149.4 Z M 96.2 144.2 C 96.3 144.3 96.3 144.3 96.2 144.2 M 78.6 147.7 C 79.5 148.0 79.3 148.0 78.6 147.7 M 93.1 144.5 C 93.0 144.5 93.0 144.5 93.1 144.5 C 93.1 144.5 93.1 144.5 93.1 144.5 Z M 96.7 143.1 C 96.6 143.2 96.6 143.2 96.7 143.1 C 96.7 143.1 96.7 143.1 96.7 143.1 Z M 74.7 149.2 C 75.1 150.6 74.2 150.4 74.7 149.2 M 62.5 151.3 C 62.5 151.4 62.5 151.4 62.5 151.3 C 62.5 151.3 62.5 151.3 62.5 151.3 Z M 97.8 140.5 C 95.9 140.6 97.8 141.6 97.8 141.7 C 95.6 139.8 98.2 143.0 98.8 143.3 C 99.0 143.6 103.8 146.0 101.8 143.4 C 101.6 142.9 102.5 143.3 102.6 143.1 C 103.5 141.4 100.7 143.5 101.7 141.5 C 102.3 141.3 104.3 142.8 103.4 140.7 C 103.6 140.8 105.2 139.4 103.8 139.6 C 105.2 139.3 104.2 138.2 104.2 137.3 C 105.1 136.7 105.7 138.6 105.3 135.2 C 107.7 134.5 104.4 133.0 106.9 132.3 C 107.2 131.5 103.9 129.3 105.4 131.7 C 105.3 131.4 103.3 132.2 104.5 129.7 C 104.9 130.2 108.2 132.7 107.5 127.7 C 107.7 127.0 107.2 125.0 107.7 124.6 C 107.6 127.2 110.0 121.4 108.7 121.8 C 110.3 117.8 108.1 120.0 109.9 117.0 C 110.4 114.4 108.1 117.6 109.6 114.5 C 109.8 112.0 110.5 113.8 110.4 114.0 C 110.9 111.9 110.3 110.9 110.5 110.2 C 110.8 109.7 111.7 108.8 110.8 108.1 C 109.5 105.5 107.5 107.4 105.9 106.1 C 104.9 107.8 107.1 107.1 105.7 108.1 C 106.6 109.1 105.6 108.3 105.1 112.9 C 105.4 112.8 106.3 111.8 106.2 112.9 C 105.8 114.7 103.2 113.0 104.7 116.1 C 105.9 112.9 104.8 120.9 106.0 117.9 C 105.7 121.8 105.5 119.0 104.4 121.5 C 106.3 121.7 102.3 121.3 103.6 122.6 C 102.8 122.6 102.4 126.6 104.1 124.0 C 103.8 128.2 103.2 125.4 101.9 126.5 C 101.4 128.2 105.0 127.4 102.4 127.9 C 100.8 129.8 103.5 128.3 101.4 129.4 C 103.1 129.1 101.0 130.9 102.9 130.8 C 102.1 134.3 101.1 129.9 101.7 132.5 C 102.0 131.9 99.5 131.5 100.7 133.3 C 103.6 133.5 97.7 134.2 101.7 134.4 C 101.4 138.9 99.9 134.8 99.2 136.7 C 99.1 137.1 100.6 136.5 100.5 137.0 C 99.0 139.4 98.9 136.9 100.1 138.8 C 99.6 141.1 98.4 138.8 97.9 139.5 C 98.6 140.0 99.6 141.4 97.8 140.5 M 99.4 139.5 C 99.0 138.8 100.0 139.5 99.4 139.5 M 97.0 141.6 C 96.7 141.0 97.5 141.9 97.0 141.6 M 99.6 137.5 C 99.3 136.6 100.6 137.7 99.6 137.5 M 105.1 119.1 C 104.8 120.8 104.7 118.3 105.1 119.1 M 97.5 140.8 C 97.1 140.1 98.4 141.3 97.5 140.8 M 98.4 142.1 C 98.4 142.1 98.4 142.1 98.4 142.1 M 104.0 116.5 C 104.0 116.4 104.0 116.4 104.0 116.5 M 102.8 122.7 C 103.1 121.5 103.1 123.5 102.8 122.7 M 108.9 124.1 C 109.2 122.8 109.2 125.0 108.9 124.1 M 104.5 112.9 C 104.2 111.4 105.2 112.6 104.5 112.9 M 106.4 109.2 C 106.1 107.8 107.2 108.4 106.4 109.2 M 101.2 140.8 C 101.2 140.8 101.2 140.8 101.2 140.8 C 101.2 140.8 101.2 140.8 101.2 140.8 Z M 105.2 134.2 C 104.3 135.1 106.3 133.2 105.2 134.2 M 100.8 134.6 C 102.2 134.3 100.4 135.7 100.8 134.6 C 100.8 134.6 100.8 134.6 100.8 134.6 Z M 101.0 136.0 C 101.0 136.1 101.0 136.1 101.0 136.0 C 101.0 136.0 101.0 136.0 101.0 136.0 Z M 102.4 131.5 C 102.4 131.6 102.4 131.6 102.4 131.5 C 102.4 131.5 102.4 131.5 102.4 131.5 Z M 102.2 132.6 C 102.4 133.0 101.8 133.1 102.2 132.6 C 102.2 132.6 102.2 132.6 102.2 132.6 Z M 108.0 125.6 C 108.2 126.1 107.6 126.2 108.0 125.6 C 108.0 125.6 108.0 125.6 108.0 125.6 Z M 102.2 134.2 C 103.4 134.7 101.2 134.6 102.2 134.2 C 102.2 134.2 102.2 134.2 102.2 134.2 Z M 106.6 129.5 C 106.3 128.9 108.0 128.7 106.6 129.5 M 104.4 115.2 C 104.2 114.5 105.8 114.1 104.4 115.2 M 101.6 128.1 C 101.3 127.6 103.0 127.4 101.6 128.1 M 99.0 138.9 C 99.2 138.9 99.2 138.9 99.0 138.9 M 105.9 136.3 C 105.6 135.5 106.5 136.1 105.9 136.3 M 102.2 143.7 C 102.1 143.0 102.8 143.8 102.2 143.7 M 109.9 118.2 C 109.5 118.2 110.3 116.7 109.9 118.2 M 103.9 127.2 C 104.2 126.2 105.2 125.3 104.6 127.4 C 104.3 127.5 104.2 126.8 103.9 127.2 C 103.9 127.2 103.9 127.2 103.9 127.2 Z M 107.5 123.8 C 107.7 123.7 107.7 123.7 107.5 123.8 M 103.1 125.1 C 103.3 124.9 103.3 124.9 103.1 125.1 M 104.5 118.3 C 104.7 118.2 104.7 118.2 104.5 118.3 M 104.3 117.4 C 104.4 117.4 104.4 117.4 104.3 117.4 C 104.3 117.4 104.3 117.4 104.3 117.4 Z M 105.1 109.0 C 105.2 109.0 105.2 109.0 105.1 109.0 C 105.1 109.0 105.1 109.0 105.1 109.0 Z M 104.3 120.6 C 104.3 120.6 104.3 120.6 104.3 120.6 C 104.3 120.6 104.3 120.6 104.3 120.6 Z M 110.2 114.8 C 110.3 114.8 110.3 114.8 110.2 114.8 C 110.2 114.8 110.2 114.8 110.2 114.8 Z M 109.3 115.6 C 109.4 115.6 109.4 115.6 109.3 115.6 C 109.3 115.6 109.3 115.6 109.3 115.6 Z M 97.9 140.3 C 97.3 139.5 99.9 141.2 97.9 140.3 M 109.9 111.8 C 110.9 110.8 109.8 113.8 109.9 111.8 C 109.9 111.8 109.9 111.8 109.9 111.8 Z M 105.2 121.6 C 105.4 121.6 105.4 121.6 105.2 121.6 M 104.5 116.9 C 104.7 116.9 104.7 116.9 104.5 116.9 M 99.7 134.3 C 99.9 134.2 99.9 134.2 99.7 134.3 M 105.7 111.2 C 106.5 107.6 107.2 113.1 105.7 111.2 M 100.5 135.6 C 100.4 135.6 100.4 135.6 100.5 135.6 M 104.3 130.9 C 104.7 129.2 104.9 131.7 104.3 130.9 M 103.9 125.8 C 103.9 125.9 103.9 125.9 103.9 125.8 C 103.9 125.8 103.9 125.8 103.9 125.8 Z M 103.2 128.6 C 103.1 130.0 102.8 128.9 103.2 128.6 C 103.2 128.6 103.2 128.6 103.2 128.6 Z M 99.2 140.3 C 99.8 139.6 99.2 141.4 99.2 140.3 C 99.2 140.3 99.2 140.3 99.2 140.3 Z M 108.4 113.3 C 108.4 113.4 108.4 113.4 108.4 113.3 C 108.4 113.3 108.4 113.3 108.4 113.3 Z M 103.3 120.8 C 103.5 121.8 102.9 121.2 103.3 120.8 C 103.3 120.8 103.3 120.8 103.3 120.8 Z M 105.3 107.7 C 105.5 108.8 104.9 108.1 105.3 107.7 C 105.3 107.7 105.3 107.7 105.3 107.7 Z M 98.5 141.1 C 101.9 139.8 96.0 144.1 98.5 141.1 C 98.5 141.1 98.5 141.1 98.5 141.1 Z M 102.7 127.4 C 102.7 127.4 102.7 127.4 102.7 127.4 C 102.7 127.4 102.7 127.4 102.7 127.4 Z M 99.0 137.0 C 99.1 137.1 99.1 137.1 99.0 137.0 C 99.0 137.0 99.0 137.0 99.0 137.0 Z M 99.6 138.7 C 99.6 138.7 99.6 138.7 99.6 138.7 C 99.6 138.7 99.6 138.7 99.6 138.7 Z M 104.3 140.2 C 104.4 140.3 104.4 140.3 104.3 140.2 C 104.3 140.2 104.3 140.2 104.3 140.2 Z M 102.4 138.9 C 102.5 139.0 102.5 139.0 102.4 138.9 C 102.4 138.9 102.4 138.9 102.4 138.9 Z M 102.0 141.8 C 102.1 141.9 102.1 141.9 102.0 141.8 C 102.0 141.8 102.0 141.8 102.0 141.8 Z M 102.6 142.1 C 102.7 142.1 102.7 142.1 102.6 142.1 C 102.6 142.1 102.6 142.1 102.6 142.1 Z M 105.9 117.2 C 106.0 117.3 106.0 117.3 105.9 117.2 C 105.9 117.2 105.9 117.2 105.9 117.2 Z M 107.5 120.2 C 107.1 118.3 108.4 120.9 107.5 120.2 C 107.5 120.2 107.5 120.2 107.5 120.2 Z M 103.4 133.8 C 103.5 132.5 103.8 134.7 103.4 133.8 C 103.4 133.8 103.4 133.8 103.4 133.8 Z M 106.4 133.2 C 106.4 133.1 106.4 133.1 106.4 133.2 C 106.4 133.2 106.4 133.2 106.4 133.2 Z M 98.5 138.2 C 98.6 138.3 98.6 138.3 98.5 138.2 C 98.5 138.2 98.5 138.2 98.5 138.2 Z M 98.7 139.8 C 99.6 140.4 98.0 140.0 98.7 139.8 M 101.2 130.7 C 101.3 130.8 101.3 130.8 101.2 130.7 C 101.2 130.7 101.2 130.7 101.2 130.7 Z M 104.6 122.9 C 104.7 122.9 104.7 122.9 104.6 122.9 C 104.6 122.9 104.6 122.9 104.6 122.9 Z M 105.6 113.1 C 105.7 113.2 105.7 113.2 105.6 113.1 C 105.6 113.1 105.6 113.1 105.6 113.1 Z M 102.4 125.9 C 102.6 125.9 102.6 125.9 102.4 125.9 C 102.4 125.9 102.4 125.9 102.4 125.9 Z M 102.5 129.9 C 102.6 129.9 102.6 129.9 102.5 129.9 C 102.5 129.9 102.5 129.9 102.5 129.9 Z M 107.4 111.0 C 107.5 111.1 107.5 111.1 107.4 111.0 C 107.4 111.0 107.4 111.0 107.4 111.0 Z M 102.5 124.9 C 102.5 124.9 102.5 124.9 102.5 124.9 C 102.5 124.9 102.5 124.9 102.5 124.9 Z M 106.3 123.0 C 106.3 123.1 106.3 123.1 106.3 123.0 C 106.3 123.0 106.3 123.0 106.3 123.0 Z M 97.4 139.0 C 97.5 139.0 97.5 139.0 97.4 139.0 C 97.4 139.0 97.4 139.0 97.4 139.0 Z M 106.0 110.7 C 106.1 110.8 106.1 110.8 106.0 110.7 C 106.0 110.7 106.0 110.7 106.0 110.7 Z M 105.2 109.9 C 105.3 110.0 105.3 110.0 105.2 109.9 C 105.2 109.9 105.2 109.9 105.2 109.9 Z M 109.0 118.0 C 107.8 121.4 109.3 114.8 107.7 117.1 C 108.3 112.1 109.2 117.2 109.0 118.0 C 109.0 118.0 109.0 118.0 109.0 118.0 Z M 105.6 104.8 C 106.7 107.1 108.0 107.3 109.6 106.6 C 110.5 105.6 107.6 105.3 110.0 105.5 C 110.1 108.1 113.7 104.9 110.7 104.6 C 110.7 101.2 112.7 104.3 111.7 102.1 C 111.9 98.5 112.6 100.5 112.7 97.7 C 111.2 95.8 113.7 96.1 112.2 95.2 C 113.8 96.8 112.1 92.1 112.9 92.1 C 113.7 94.8 114.0 82.0 112.7 88.9 C 112.2 86.0 113.6 86.7 113.9 85.7 C 113.0 84.4 115.2 81.1 114.4 79.3 C 114.1 79.6 114.0 80.5 113.6 80.7 C 112.9 81.1 113.9 78.7 113.9 79.0 C 113.6 77.8 113.0 73.0 114.3 78.1 C 115.1 78.5 114.3 74.1 115.0 74.3 C 115.5 70.0 113.5 73.1 114.9 71.3 C 115.2 68.2 115.4 66.1 115.2 66.1 C 115.5 64.2 116.5 63.9 115.7 62.2 C 117.9 58.7 112.4 59.4 116.1 58.2 C 115.3 57.1 117.7 56.3 115.5 56.3 C 116.4 57.6 117.7 50.3 115.8 53.4 C 115.4 52.5 118.5 48.2 116.2 48.6 C 114.7 46.9 113.0 47.1 111.2 50.5 C 112.5 50.2 109.6 54.1 112.0 51.6 C 113.0 48.6 112.4 57.4 111.7 55.4 C 109.1 54.8 113.0 59.9 111.0 61.6 C 112.1 60.1 112.1 67.5 110.3 65.2 C 110.0 66.6 110.9 66.9 109.6 68.4 C 110.2 64.0 111.6 70.2 110.4 69.9 C 109.7 69.0 108.5 75.6 109.7 75.0 C 112.6 73.0 109.0 76.7 109.9 77.9 C 110.2 81.6 107.7 77.1 109.4 80.0 C 109.0 80.7 108.5 85.6 108.3 82.4 C 108.6 81.3 110.9 85.6 108.6 85.9 C 107.8 80.6 107.2 91.7 108.1 90.0 C 110.2 82.3 108.6 98.4 108.1 92.2 C 106.4 95.5 107.7 91.2 107.7 95.5 C 108.5 95.0 108.8 98.3 107.5 97.4 C 105.2 97.8 110.2 98.9 106.9 101.1 C 105.6 101.3 107.2 106.1 106.0 104.2 C 105.9 104.0 105.6 104.7 105.6 104.8 M 106.0 103.4 C 106.4 104.0 105.3 104.2 106.0 103.4 M 106.4 104.0 C 106.4 104.1 106.4 104.1 106.4 104.0 C 106.4 104.0 106.4 104.0 106.4 104.0 Z M 107.7 96.1 C 107.7 96.1 107.7 96.1 107.7 96.1 C 107.7 96.1 107.7 96.1 107.7 96.1 Z M 114.0 90.2 C 113.9 90.2 113.9 90.2 114.0 90.2 C 114.0 90.2 114.0 90.2 114.0 90.2 Z M 108.5 90.6 C 108.5 90.7 108.5 90.7 108.5 90.6 C 108.5 90.6 108.5 90.6 108.5 90.6 Z M 107.7 99.0 C 107.7 99.1 107.7 99.1 107.7 99.0 C 107.7 99.0 107.7 99.0 107.7 99.0 Z M 107.6 91.0 C 108.5 90.7 106.8 92.9 107.5 90.9 C 107.6 90.8 107.5 91.2 107.6 91.0 M 108.1 83.7 C 108.2 83.7 108.2 83.7 108.1 83.7 M 116.1 67.9 C 116.2 67.9 116.2 67.9 116.1 67.9 M 109.6 66.0 C 109.8 65.9 109.8 65.9 109.6 66.0 M 109.6 76.4 C 109.7 74.1 110.1 75.9 109.6 76.4 M 110.6 60.2 C 109.8 62.9 110.4 57.1 110.6 60.2 M 110.3 57.4 C 110.4 57.2 110.4 57.2 110.3 57.4 M 109.6 70.2 C 109.6 70.2 109.6 70.2 109.6 70.2 C 109.6 70.2 109.6 70.2 109.6 70.2 Z M 109.2 77.3 C 108.5 80.3 108.7 74.3 109.2 77.3 M 107.1 95.0 C 106.8 93.4 108.1 95.2 107.1 95.0 M 107.1 98.3 C 107.2 98.3 107.2 98.3 107.1 98.3 C 107.1 98.3 107.1 98.3 107.1 98.3 Z M 110.2 64.7 C 110.2 64.8 110.2 64.8 110.2 64.7 C 110.2 64.7 110.2 64.7 110.2 64.7 Z M 110.3 61.4 C 110.3 61.5 110.3 61.5 110.3 61.4 C 110.3 61.4 110.3 61.4 110.3 61.4 Z M 116.8 56.6 C 116.8 56.7 116.8 56.7 116.8 56.6 C 116.8 56.6 116.8 56.6 116.8 56.6 Z M 109.9 96.2 C 109.3 98.3 108.2 93.8 109.6 94.4 C 110.3 94.2 109.8 95.9 109.9 96.2 M 110.8 79.7 C 113.0 79.3 107.8 81.6 110.8 79.7 M 111.7 57.1 C 114.3 55.2 109.8 59.7 111.7 57.1 M 111.6 52.8 C 112.2 51.6 111.3 60.8 111.1 54.3 C 110.8 53.6 111.3 53.2 111.6 52.8 M 109.1 83.7 C 110.3 83.2 108.2 87.1 109.1 83.7 M 113.8 70.4 C 113.1 69.2 112.7 66.3 113.9 67.7 C 115.5 67.9 114.3 71.7 113.8 70.4 M 107.2 102.9 C 105.6 101.0 108.8 103.2 107.2 102.9 M 108.4 94.8 C 108.3 94.7 108.3 94.7 108.4 94.8 C 108.4 94.8 108.4 94.8 108.4 94.8 Z M 108.5 91.5 C 108.6 91.3 108.6 91.3 108.5 91.5 M 105.8 101.4 C 106.0 101.3 106.0 101.3 105.8 101.4 M 111.9 70.3 C 112.0 70.1 112.0 70.1 111.9 70.3 M 110.0 77.1 C 112.2 74.0 110.2 78.9 110.0 77.1 M 112.7 85.6 C 113.7 84.7 112.6 87.7 112.7 85.6 M 109.9 71.6 C 111.8 69.4 111.2 75.0 109.9 71.6 M 109.7 78.8 C 109.7 78.6 109.7 78.6 109.7 78.8 C 109.7 78.8 109.7 78.8 109.7 78.8 Z M 114.1 69.5 C 114.1 69.6 114.1 69.6 114.1 69.5 C 114.1 69.5 114.1 69.5 114.1 69.5 Z M 114.1 68.5 C 114.1 68.6 114.1 68.6 114.1 68.5 C 114.1 68.5 114.1 68.5 114.1 68.5 Z M 109.9 68.7 C 109.9 68.8 109.9 68.8 109.9 68.7 C 109.9 68.7 109.9 68.7 109.9 68.7 Z M 111.8 99.1 C 112.2 96.9 111.9 100.9 111.8 99.1 C 111.8 99.1 111.8 99.1 111.8 99.1 Z M 107.9 88.4 C 109.7 84.7 108.9 91.2 107.9 88.4 C 107.9 88.4 107.9 88.4 107.9 88.4 Z M 110.6 84.2 C 110.7 84.3 110.7 84.3 110.6 84.2 C 110.6 84.2 110.6 84.2 110.6 84.2 Z M 108.7 73.0 C 108.8 73.0 108.8 73.0 108.7 73.0 C 108.7 73.0 108.7 73.0 108.7 73.0 Z M 112.2 98.0 C 112.3 98.0 112.3 98.0 112.2 98.0 C 112.2 98.0 112.2 98.0 112.2 98.0 Z M 111.4 62.1 C 111.5 62.1 111.5 62.1 111.4 62.1 C 111.4 62.1 111.4 62.1 111.4 62.1 Z M 113.7 75.9 C 113.2 75.0 114.3 75.8 113.7 75.9 C 113.7 75.9 113.7 75.9 113.7 75.9 Z M 114.1 72.4 C 114.1 72.3 114.1 72.3 114.1 72.4 C 114.1 72.4 114.1 72.4 114.1 72.4 Z M 110.2 56.6 C 110.2 56.5 110.2 56.5 110.2 56.6 C 110.2 56.6 110.2 56.6 110.2 56.6 Z M 116.5 63.6 C 116.5 63.5 116.5 63.5 116.5 63.6 C 116.5 63.6 116.5 63.6 116.5 63.6 Z M 114.7 60.5 C 114.7 60.5 114.7 60.5 114.7 60.5 C 114.7 60.5 114.7 60.5 114.7 60.5 Z M 110.3 69.4 C 110.3 65.8 111.0 70.2 110.3 69.4 C 110.3 69.4 110.3 69.4 110.3 69.4 Z M 114.8 52.0 C 114.9 51.9 114.9 51.9 114.8 52.0 C 114.8 52.0 114.8 52.0 114.8 52.0 Z M 112.5 50.1 C 112.7 50.1 112.7 50.1 112.5 50.1 C 112.5 50.1 112.5 50.1 112.5 50.1 Z M 111.4 49.2 C 111.5 49.1 111.5 49.1 111.4 49.2 C 111.4 49.2 111.4 49.2 111.4 49.2 Z M 111.0 91.8 C 110.9 91.9 110.9 91.9 111.0 91.8 C 111.0 91.8 111.0 91.8 111.0 91.8 Z M 107.0 92.7 C 107.0 92.7 107.0 92.7 107.0 92.7 C 107.0 92.7 107.0 92.7 107.0 92.7 Z M 107.4 88.0 C 107.3 88.1 107.3 88.1 107.4 88.0 C 107.4 88.0 107.4 88.0 107.4 88.0 Z M 113.2 92.9 C 113.2 92.9 113.2 92.9 113.2 92.9 C 113.2 92.9 113.2 92.9 113.2 92.9 Z M 111.8 74.8 C 111.7 74.8 111.7 74.8 111.8 74.8 C 111.8 74.8 111.8 74.8 111.8 74.8 Z M 113.5 73.2 C 113.4 73.3 113.4 73.3 113.5 73.2 C 113.5 73.2 113.5 73.2 113.5 73.2 Z M 115.1 77.6 C 115.1 77.6 115.1 77.6 115.1 77.6 C 115.1 77.6 115.1 77.6 115.1 77.6 Z M 114.9 72.0 C 114.9 72.1 114.9 72.1 114.9 72.0 C 114.9 72.0 114.9 72.0 114.9 72.0 Z M 111.1 104.2 C 111.1 104.2 111.1 104.2 111.1 104.2 C 111.1 104.2 111.1 104.2 111.1 104.2 Z M 108.1 104.2 C 108.2 104.3 108.2 104.3 108.1 104.2 C 108.1 104.2 108.1 104.2 108.1 104.2 Z M 109.7 74.0 C 109.2 73.2 110.7 72.5 109.7 74.0 M 109.4 80.9 C 109.5 80.9 109.5 80.9 109.4 80.9 C 109.4 80.9 109.4 80.9 109.4 80.9 Z M 110.8 62.6 C 112.0 61.9 109.9 65.8 110.8 62.6 C 110.8 62.6 110.8 62.6 110.8 62.6 Z M 115.4 66.6 C 115.4 66.6 115.4 66.6 115.4 66.6 C 115.4 66.6 115.4 66.6 115.4 66.6 Z M 115.0 64.8 C 115.2 64.7 115.2 64.7 115.0 64.8 C 115.0 64.8 115.0 64.8 115.0 64.8 Z M 112.6 54.9 C 112.8 54.7 112.8 54.7 112.6 54.9 M 108.3 81.6 C 108.9 80.7 108.8 80.9 108.3 81.6 M 111.0 60.4 C 111.0 60.5 111.0 60.5 111.0 60.4 C 111.0 60.4 111.0 60.4 111.0 60.4 Z M 112.1 52.8 C 112.2 52.9 112.2 52.9 112.1 52.8 C 112.1 52.8 112.1 52.8 112.1 52.8 Z M 108.6 86.5 C 110.0 86.5 109.6 87.4 108.6 86.5 M 107.6 99.7 C 107.7 99.7 107.7 99.7 107.6 99.7 C 107.6 99.7 107.6 99.7 107.6 99.7 Z M 111.8 42.7 C 110.1 45.9 112.2 46.1 112.3 46.1 C 109.4 45.5 113.3 49.2 113.9 48.6 C 114.3 48.7 119.6 46.4 116.7 43.9 C 116.3 43.2 117.3 42.9 117.4 42.4 C 117.5 38.4 115.6 45.0 115.9 40.2 C 116.4 39.4 118.8 40.5 117.3 37.6 C 117.5 37.5 118.6 34.4 117.4 35.5 C 118.6 34.1 117.3 33.1 117.1 31.8 C 117.9 30.6 118.9 32.7 117.8 28.6 C 119.9 27.0 116.4 26.1 118.7 24.8 C 118.8 23.8 115.2 22.2 117.2 24.5 C 117.0 24.2 115.1 25.4 115.9 22.6 C 116.4 23.0 120.1 24.6 118.5 20.2 C 118.6 19.5 117.7 18.0 118.2 17.6 C 118.5 19.7 119.9 15.1 118.8 15.5 C 119.7 12.6 117.9 14.1 119.3 12.4 C 119.4 11.0 117.6 12.7 118.6 11.1 C 118.5 9.9 119.4 10.8 119.3 10.9 C 119.6 9.9 118.9 9.5 119.0 9.2 C 119.2 9.1 120.0 8.7 119.0 8.5 C 117.4 7.6 115.6 8.2 113.9 7.8 C 113.1 8.4 115.2 8.1 113.9 8.5 C 115.0 8.9 113.8 8.3 114.0 10.5 C 114.2 10.5 115.0 10.0 115.1 10.5 C 114.9 11.3 112.0 10.5 114.0 12.2 C 114.7 10.4 114.8 15.0 115.5 13.2 C 115.7 15.5 115.2 13.8 114.5 15.6 C 116.4 15.6 112.4 15.6 113.9 16.5 C 113.1 16.6 113.3 19.8 114.6 17.6 C 114.9 20.9 113.9 18.7 112.8 20.0 C 112.6 21.6 116.0 20.2 113.5 21.2 C 112.3 23.3 114.7 21.3 112.7 22.9 C 114.5 22.2 112.6 24.6 114.5 24.0 C 114.4 28.1 112.6 23.3 113.7 26.4 C 113.8 25.5 111.3 25.7 112.8 27.6 C 115.7 27.0 110.1 29.9 114.0 28.8 C 114.7 35.0 112.4 29.6 112.2 33.2 C 112.1 34.1 113.5 32.3 113.4 33.1 C 112.6 37.7 111.9 33.8 113.6 36.4 C 113.7 41.1 111.9 37.6 111.6 40.0 C 112.5 40.3 113.9 42.3 111.8 42.7 M 113.0 38.4 C 112.5 37.3 113.7 37.8 113.0 38.4 M 111.5 48.4 C 111.0 47.2 112.1 47.8 111.5 48.4 M 112.7 34.4 C 112.2 33.1 113.7 34.1 112.7 34.4 M 114.8 14.0 C 114.7 15.0 114.3 13.5 114.8 14.0 M 111.6 44.3 C 111.0 42.7 112.7 43.9 111.6 44.3 M 113.0 46.2 C 113.0 46.1 113.0 46.1 113.0 46.2 M 113.3 12.4 C 113.4 12.4 113.4 12.4 113.3 12.4 M 113.1 16.6 C 113.2 15.7 113.5 17.2 113.1 16.6 M 119.3 17.1 C 119.4 16.1 119.7 17.7 119.3 17.1 M 113.4 10.5 C 112.9 9.8 114.1 10.3 113.4 10.5 M 114.8 8.9 C 114.3 8.4 115.5 8.6 114.8 8.9 M 115.2 39.4 C 115.2 39.4 115.2 39.4 115.2 39.4 C 115.2 39.4 115.2 39.4 115.2 39.4 Z M 117.4 27.5 C 116.8 28.7 118.3 25.9 117.4 27.5 M 113.2 29.3 C 114.6 28.4 113.0 31.1 113.2 29.3 C 113.2 29.3 113.2 29.3 113.2 29.3 Z M 113.7 31.4 C 113.7 31.4 113.7 31.4 113.7 31.4 C 113.7 31.4 113.7 31.4 113.7 31.4 Z M 114.1 25.0 C 114.1 25.1 114.1 25.1 114.1 25.0 C 114.1 25.0 114.1 25.0 114.1 25.0 Z M 114.2 26.3 C 114.4 26.8 113.9 27.0 114.2 26.3 C 114.2 26.3 114.2 26.3 114.2 26.3 Z M 118.7 18.3 C 118.9 18.8 118.4 18.9 118.7 18.3 C 118.7 18.3 118.7 18.3 118.7 18.3 Z M 114.5 28.3 C 115.8 28.5 113.6 29.1 114.5 28.3 C 114.5 28.3 114.5 28.3 114.5 28.3 Z M 117.9 22.0 C 117.6 21.5 119.1 21.1 117.9 22.0 M 113.6 11.7 C 113.3 11.3 114.8 11.0 113.6 11.7 M 112.7 21.5 C 112.4 21.0 114.0 20.6 112.7 21.5 M 112.5 37.5 C 112.7 37.4 112.7 37.4 112.5 37.5 M 118.5 29.8 C 118.1 28.9 119.1 29.4 118.5 29.8 M 117.2 43.8 C 116.8 42.8 117.8 43.4 117.2 43.8 M 119.4 13.1 C 119.1 13.1 119.6 12.3 119.4 13.1 M 114.8 20.3 C 115.0 19.3 115.8 18.3 115.6 20.4 C 115.3 20.5 115.1 19.9 114.8 20.3 C 114.8 20.3 114.8 20.3 114.8 20.3 Z M 117.9 17.1 C 118.0 16.9 118.0 16.9 117.9 17.1 M 113.8 18.5 C 113.9 18.4 113.9 18.4 113.8 18.5 M 114.1 13.5 C 114.3 13.4 114.3 13.4 114.1 13.5 M 113.8 12.9 C 113.9 12.9 113.9 12.9 113.8 12.9 C 113.8 12.9 113.8 12.9 113.8 12.9 Z M 113.5 8.8 C 113.5 8.8 113.5 8.8 113.5 8.8 C 113.5 8.8 113.5 8.8 113.5 8.8 Z M 114.2 15.0 C 114.3 15.0 114.3 15.0 114.2 15.0 C 114.2 15.0 114.2 15.0 114.2 15.0 Z M 119.3 11.3 C 119.3 11.3 119.3 11.3 119.3 11.3 C 119.3 11.3 119.3 11.3 119.3 11.3 Z M 118.5 11.7 C 118.5 11.7 118.5 11.7 118.5 11.7 C 118.5 11.7 118.5 11.7 118.5 11.7 Z M 111.9 42.0 C 111.1 40.7 114.1 41.5 111.9 42.0 M 118.6 9.9 C 119.5 9.5 118.7 10.8 118.6 9.9 C 118.6 9.9 118.6 9.9 118.6 9.9 Z M 115.3 15.6 C 115.4 15.6 115.4 15.6 115.3 15.6 M 113.9 12.7 C 114.1 12.6 114.1 12.6 113.9 12.7 M 112.1 29.3 C 112.2 29.2 112.2 29.2 112.1 29.3 M 114.3 9.7 C 114.7 8.2 116.1 10.5 114.3 9.7 M 113.2 30.9 C 113.1 30.9 113.1 30.9 113.2 30.9 M 116.0 23.9 C 116.0 21.9 116.6 24.7 116.0 23.9 M 114.6 19.1 C 114.7 19.1 114.7 19.1 114.6 19.1 C 114.6 19.1 114.6 19.1 114.6 19.1 Z M 114.5 21.8 C 114.6 23.1 114.1 22.1 114.5 21.8 C 114.5 21.8 114.5 21.8 114.5 21.8 Z M 113.2 40.3 C 113.5 38.0 113.4 42.7 113.2 40.3 C 113.2 40.3 113.2 40.3 113.2 40.3 Z M 117.2 10.6 C 117.3 10.7 117.3 10.7 117.2 10.6 C 117.2 10.6 117.2 10.6 117.2 10.6 Z M 113.3 15.2 C 113.6 15.9 112.9 15.5 113.3 15.2 C 113.3 15.2 113.3 15.2 113.3 15.2 Z M 113.5 8.4 C 113.8 8.8 113.1 8.5 113.5 8.4 C 113.5 8.4 113.5 8.4 113.5 8.4 Z M 112.8 43.1 C 115.5 34.5 111.4 54.8 112.8 43.1 C 112.8 43.1 112.8 43.1 112.8 43.1 Z M 113.7 20.6 C 113.7 20.7 113.7 20.7 113.7 20.6 C 113.7 20.6 113.7 20.6 113.7 20.6 Z M 112.0 33.9 C 112.1 34.0 112.1 34.0 112.0 33.9 C 112.0 33.9 112.0 33.9 112.0 33.9 Z M 113.0 36.6 C 113.1 36.6 113.1 36.6 113.0 36.6 C 113.0 36.6 113.0 36.6 113.0 36.6 Z M 118.0 36.2 C 118.1 36.2 118.1 36.2 118.0 36.2 C 118.0 36.2 118.0 36.2 118.0 36.2 Z M 115.8 35.1 C 116.0 35.3 116.0 35.3 115.8 35.1 C 115.8 35.1 115.8 35.1 115.8 35.1 Z M 116.3 40.6 C 116.4 40.7 116.4 40.7 116.3 40.6 C 116.3 40.6 116.3 40.6 116.3 40.6 Z M 117.0 40.5 C 117.0 40.5 117.0 40.5 117.0 40.5 C 117.0 40.5 117.0 40.5 117.0 40.5 Z M 115.3 12.7 C 115.4 12.8 115.4 12.8 115.3 12.7 C 115.3 12.7 115.3 12.7 115.3 12.7 Z M 117.3 14.5 C 116.6 13.3 118.4 14.9 117.3 14.5 C 117.3 14.5 117.3 14.5 117.3 14.5 Z M 115.6 27.4 C 115.4 25.8 116.2 28.4 115.6 27.4 C 115.6 27.4 115.6 27.4 115.6 27.4 Z M 118.4 25.9 C 118.4 25.8 118.4 25.8 118.4 25.9 C 118.4 25.9 118.4 25.9 118.4 25.9 Z M 111.8 36.5 C 111.9 36.6 111.9 36.6 111.8 36.5 C 111.8 36.5 111.8 36.5 111.8 36.5 Z M 112.5 39.8 C 113.5 40.0 111.9 40.8 112.5 39.8 M 112.8 24.4 C 112.9 24.4 112.9 24.4 112.8 24.4 C 112.8 24.4 112.8 24.4 112.8 24.4 Z M 114.9 16.6 C 114.9 16.6 114.9 16.6 114.9 16.6 C 114.9 16.6 114.9 16.6 114.9 16.6 Z M 114.5 10.6 C 114.6 10.6 114.6 10.6 114.5 10.6 C 114.5 10.6 114.5 10.6 114.5 10.6 Z M 113.2 19.3 C 113.3 19.3 113.3 19.3 113.2 19.3 C 113.2 19.3 113.2 19.3 113.2 19.3 Z M 114.0 23.2 C 114.1 23.2 114.1 23.2 114.0 23.2 C 114.0 23.2 114.0 23.2 114.0 23.2 Z M 116.0 9.6 C 116.1 9.7 116.1 9.7 116.0 9.6 C 116.0 9.6 116.0 9.6 116.0 9.6 Z M 113.1 18.4 C 113.1 18.5 113.1 18.5 113.1 18.4 C 113.1 18.4 113.1 18.4 113.1 18.4 Z M 116.5 16.5 C 116.6 16.6 116.6 16.6 116.5 16.5 C 116.5 16.5 116.5 16.5 116.5 16.5 Z M 111.0 39.3 C 111.1 39.3 111.1 39.3 111.0 39.3 C 111.0 39.3 111.0 39.3 111.0 39.3 Z M 114.6 9.5 C 114.7 9.5 114.7 9.5 114.6 9.5 C 114.6 9.5 114.6 9.5 114.6 9.5 Z M 113.7 9.2 C 113.7 9.2 113.7 9.2 113.7 9.2 C 113.7 9.2 113.7 9.2 113.7 9.2 Z M 118.5 13.0 C 117.8 15.1 118.4 11.2 117.2 12.6 C 117.0 9.7 118.6 12.6 118.5 13.0 C 118.5 13.0 118.5 13.0 118.5 13.0 Z M 118.5 13.0 " fill="#FEFFFE"></path></g></svg>