<?xml version="1.0" encoding="UTF-8" standalone="no"?><svg xmlns="http://www.w3.org/2000/svg" xmlns:xlink="http://www.w3.org/1999/xlink" clip-rule="evenodd" stroke-miterlimit="4.00" viewBox="0 0 44 201"><desc>SVG generated by Keynote</desc><defs></defs><g transform="matrix(1.00, 0.00, -0.00, -1.00, 0.0, 201.0)"><path d="M 13.0 184.4 C 13.0 184.8 12.3 185.4 12.3 185.7 M 13.0 184.4 C 11.4 184.5 10.5 185.8 9.2 187.4 C 7.9 189.4 10.2 188.0 10.5 188.5 C 9.3 191.4 8.5 190.9 7.6 189.7 C 7.7 191.2 4.4 193.2 6.2 193.6 C 9.0 189.5 4.6 196.7 7.8 193.8 C 8.2 193.6 7.9 194.8 7.7 195.2 C 9.1 194.5 8.4 196.9 10.1 195.4 C 11.2 195.7 10.5 195.8 12.1 195.1 C 12.5 194.6 12.0 194.6 11.8 194.5 C 10.9 193.7 13.4 193.5 13.3 192.1 C 15.3 192.1 14.3 190.1 13.2 190.5 C 13.9 189.7 16.0 189.6 15.6 188.0 C 16.6 188.0 17.6 185.3 15.8 186.2 C 14.6 186.9 14.9 185.4 14.7 185.1 C 14.1 185.2 13.7 187.0 13.3 187.0 C 13.3 186.5 14.0 184.3 12.8 186.3 C 12.7 185.3 11.8 186.1 13.0 184.4 C 13.0 184.4 13.0 184.4 13.0 184.4 Z M 7.7 190.8 C 7.3 190.6 8.2 190.2 7.7 190.8 C 7.7 190.8 7.7 190.8 7.7 190.8 Z M 15.8 189.2 C 15.4 189.0 16.3 188.6 15.8 189.2 C 15.8 189.2 15.8 189.2 15.8 189.2 Z M 12.1 194.2 C 11.7 194.0 12.5 193.6 12.1 194.2 C 12.1 194.2 12.1 194.2 12.1 194.2 Z M 9.2 189.2 C 10.2 188.3 9.1 190.5 8.6 190.4 C 8.8 190.2 8.7 189.3 9.2 189.2 C 9.2 189.2 9.2 189.2 9.2 189.2 Z M 11.4 190.4 C 11.3 190.3 11.6 189.8 11.9 190.1 C 11.8 190.4 11.5 190.6 11.4 190.4 C 11.4 190.4 11.4 190.4 11.4 190.4 Z M 6.2 194.9 C 6.2 194.7 6.4 194.2 6.8 194.5 C 6.7 194.9 6.3 195.0 6.2 194.9 C 6.2 194.9 6.2 194.9 6.2 194.9 Z M 10.9 188.6 C 11.2 188.4 11.6 188.5 11.4 188.8 C 11.2 188.9 10.6 189.6 10.9 188.6 C 10.9 188.6 10.9 188.6 10.9 188.6 Z M 10.8 186.1 C 11.5 185.3 10.9 187.5 10.8 187.4 C 10.3 187.5 10.2 186.4 10.8 186.1 C 10.8 186.1 10.8 186.1 10.8 186.1 Z M 11.8 188.4 C 12.5 187.7 11.9 188.9 11.8 188.4 C 11.8 188.4 11.8 188.4 11.8 188.4 Z M 9.5 196.0 C 10.2 195.4 9.5 196.5 9.5 196.0 C 9.5 196.0 9.5 196.0 9.5 196.0 Z M 13.3 192.7 C 14.0 192.0 13.4 193.2 13.3 192.7 C 13.3 192.7 13.3 192.7 13.3 192.7 Z M 8.6 191.7 C 7.7 193.0 7.5 191.3 8.6 191.7 C 8.6 191.7 8.6 191.7 8.6 191.7 Z M 12.0 183.9 C 11.2 185.2 10.9 183.5 12.0 183.9 C 12.0 183.9 12.0 183.9 12.0 183.9 Z M 4.3 7.8 C 3.3 6.8 5.4 12.2 5.6 9.5 C 6.4 8.1 8.5 11.4 6.8 11.3 C 7.3 12.4 7.2 12.4 8.1 12.6 C 7.4 13.3 8.4 15.8 9.3 16.3 C 10.4 16.3 8.5 14.7 10.1 15.5 C 12.1 18.1 10.8 14.7 12.5 15.2 C 12.6 15.3 12.1 15.6 12.6 15.7 C 13.6 15.2 13.2 13.2 14.3 13.5 C 13.9 13.2 13.6 10.4 13.4 11.8 C 12.7 12.7 12.9 8.9 11.6 10.0 C 11.8 8.9 10.4 8.8 10.8 7.6 C 10.6 7.0 9.9 7.5 9.7 7.7 C 9.1 8.2 10.8 6.1 9.1 6.1 C 9.4 5.8 7.6 3.6 8.3 5.7 C 8.1 5.1 6.5 2.3 6.3 4.6 C 7.0 6.8 3.6 3.7 5.1 5.8 C 6.1 7.5 6.6 7.6 5.1 6.9 C 4.9 6.5 3.4 4.8 4.0 6.7 C 4.4 6.9 4.8 7.8 4.3 7.8 C 4.3 7.8 4.3 7.8 4.3 7.8 Z M 5.9 6.2 C 6.6 7.0 5.5 6.6 5.9 6.2 C 5.9 6.2 5.9 6.2 5.9 6.2 Z M 11.2 7.6 C 11.9 8.5 10.7 8.0 11.2 7.6 C 11.2 7.6 11.2 7.6 11.2 7.6 Z M 6.0 10.9 C 6.7 11.1 5.5 12.2 6.0 10.9 C 6.0 10.9 6.0 10.9 6.0 10.9 Z M 9.0 6.7 C 9.1 6.8 8.8 6.7 8.6 6.5 C 8.6 6.5 9.0 6.6 9.0 6.7 C 9.0 6.7 9.0 6.7 9.0 6.7 Z M 7.1 12.5 C 8.6 13.4 6.2 13.4 7.1 12.5 C 7.1 12.5 7.1 12.5 7.1 12.5 Z M 10.2 14.4 C 11.6 13.7 10.9 16.1 10.2 14.4 C 10.2 14.4 10.2 14.4 10.2 14.4 Z M 11.8 10.5 C 11.4 10.5 11.8 10.2 11.8 10.5 C 11.8 10.5 11.8 10.5 11.8 10.5 Z M 7.8 4.3 C 7.3 4.2 7.8 3.9 7.8 4.3 C 7.8 4.3 7.8 4.3 7.8 4.3 Z M 12.9 12.4 C 12.3 12.6 12.8 11.7 12.9 12.4 C 12.9 12.4 12.9 12.4 12.9 12.4 Z M 6.7 10.8 C 4.8 10.3 7.2 8.2 6.7 10.8 C 6.7 10.8 6.7 10.8 6.7 10.8 Z M 5.0 8.6 C 4.2 7.9 5.8 8.3 5.9 8.8 C 5.8 8.8 5.2 8.7 5.0 8.6 C 5.0 8.6 5.0 8.6 5.0 8.6 Z M 7.7 12.1 C 6.6 11.5 7.5 11.1 7.7 12.1 C 7.7 12.1 7.7 12.1 7.7 12.1 Z M 5.7 10.2 C 5.5 9.7 6.1 10.5 5.7 10.2 C 5.7 10.2 5.7 10.2 5.7 10.2 Z M 7.8 14.5 C 7.6 14.0 8.2 14.8 7.8 14.5 C 7.8 14.5 7.8 14.5 7.8 14.5 Z M 3.8 7.9 C 3.6 7.4 4.2 8.2 3.8 7.9 C 3.8 7.9 3.8 7.9 3.8 7.9 Z M 8.2 13.7 C 8.8 13.5 9.1 11.6 9.6 14.4 C 9.5 15.0 8.2 14.5 8.2 13.7 C 8.2 13.7 8.2 13.7 8.2 13.7 Z M 15.3 180.5 C 10.5 185.2 13.9 185.4 14.3 186.0 C 14.5 187.2 15.5 186.7 16.6 185.9 C 19.0 185.8 15.9 183.1 18.1 183.3 C 21.3 183.1 17.1 180.4 19.9 181.1 C 20.4 181.7 21.1 179.2 20.8 179.3 C 22.6 178.9 21.4 176.1 21.2 176.0 C 21.9 175.4 24.2 176.5 23.6 173.3 C 23.9 171.3 26.5 171.6 24.8 171.3 C 27.1 170.8 24.7 170.2 25.9 169.1 C 27.3 168.6 24.4 168.4 27.0 167.6 C 25.9 166.2 27.7 168.8 28.6 163.8 C 27.5 165.9 28.3 161.2 28.9 162.5 C 29.4 164.5 29.4 160.2 30.8 158.4 C 30.5 157.7 30.1 154.7 31.4 155.7 C 33.9 154.2 31.1 153.1 32.9 152.7 C 33.7 152.2 32.5 151.5 32.8 151.1 C 34.1 150.7 33.6 149.7 34.8 147.2 C 37.1 141.5 32.2 145.5 32.5 143.1 C 32.1 142.6 27.6 144.8 30.6 144.3 C 29.8 144.5 31.1 150.0 28.9 146.7 C 29.5 148.9 27.8 146.0 28.1 150.0 C 31.7 145.8 27.0 155.7 27.6 150.8 C 26.7 151.3 26.2 153.3 27.1 152.1 C 29.2 152.2 25.1 155.1 28.1 154.0 C 26.4 156.7 28.6 156.7 26.9 157.0 C 24.2 156.8 27.6 157.1 26.3 158.3 C 24.9 161.8 23.2 158.0 24.2 160.8 C 21.6 163.7 24.9 162.0 24.7 163.3 C 26.2 164.4 21.9 166.2 22.8 163.6 C 23.1 165.3 21.9 163.4 22.3 165.4 C 24.3 165.0 19.8 166.7 21.2 166.8 C 20.9 168.4 22.2 168.1 22.0 168.5 C 21.0 170.6 19.9 169.2 20.7 170.2 C 21.1 171.0 18.7 171.0 19.0 171.5 C 20.2 169.4 19.7 174.0 18.8 173.8 C 19.4 172.5 16.6 173.5 17.3 174.9 C 21.0 175.5 15.5 176.2 16.1 177.8 C 18.3 177.9 13.7 182.5 14.1 179.9 C 14.2 180.2 15.3 180.5 15.3 180.5 M 19.0 172.2 C 20.0 170.6 18.4 174.3 19.0 172.2 M 18.5 172.0 C 19.5 171.6 17.2 173.4 18.3 171.8 C 18.4 171.8 18.4 172.1 18.5 172.0 M 21.9 164.9 C 22.3 165.3 21.1 165.7 21.9 164.9 M 23.6 164.0 C 24.6 163.0 23.0 165.6 23.6 164.0 M 29.4 147.7 C 31.7 150.3 27.2 148.9 29.4 147.7 M 25.0 158.2 C 24.6 160.3 24.1 157.0 25.0 158.2 M 25.4 159.0 C 25.5 160.1 24.7 159.0 25.4 159.0 M 28.3 150.8 C 28.4 150.7 28.4 150.7 28.3 150.8 C 28.3 150.8 28.3 150.8 28.3 150.8 Z M 30.0 146.0 C 29.9 146.0 29.9 146.0 30.0 146.0 C 30.0 146.0 30.0 146.0 30.0 146.0 Z M 27.0 155.6 C 25.7 156.8 27.6 153.0 27.0 155.6 C 27.0 155.6 27.0 155.6 27.0 155.6 Z M 33.6 149.7 C 33.6 149.8 33.6 149.8 33.6 149.7 C 33.6 149.7 33.6 149.7 33.6 149.7 Z M 19.5 174.2 C 19.5 174.3 19.5 174.3 19.5 174.2 C 19.5 174.2 19.5 174.2 19.5 174.2 Z M 15.7 179.0 C 16.1 179.1 14.9 179.8 15.7 179.0 C 15.7 179.0 15.7 179.0 15.7 179.0 Z M 16.1 185.0 C 16.1 185.1 16.1 185.1 16.1 185.0 C 16.1 185.0 16.1 185.0 16.1 185.0 Z M 20.0 176.7 C 20.0 176.8 20.0 176.8 20.0 176.7 C 20.0 176.7 20.0 176.7 20.0 176.7 Z M 18.4 174.9 C 16.5 175.0 19.9 173.1 18.4 174.9 C 18.4 174.9 18.4 174.9 18.4 174.9 Z M 30.1 158.9 C 29.5 158.6 30.9 157.7 30.1 158.9 C 30.1 158.9 30.1 158.9 30.1 158.9 Z M 24.3 164.0 C 24.1 163.7 24.8 163.3 24.3 164.0 C 24.3 164.0 24.3 164.0 24.3 164.0 Z M 20.9 166.1 C 20.7 165.7 21.5 165.4 20.9 166.1 C 20.9 166.1 20.9 166.1 20.9 166.1 Z M 15.3 178.7 C 15.3 178.5 15.3 178.5 15.3 178.7 C 15.3 178.7 15.3 178.7 15.3 178.7 Z M 17.5 177.4 C 15.4 177.9 19.3 175.7 17.5 177.4 C 17.5 177.4 17.5 177.4 17.5 177.4 Z M 16.6 179.8 C 17.5 179.4 15.4 181.4 16.6 179.8 M 19.4 179.7 C 19.7 177.8 21.0 182.5 19.4 179.7 C 19.4 179.7 19.4 179.7 19.4 179.7 Z M 24.3 171.6 C 24.4 171.5 24.4 171.5 24.3 171.6 C 24.3 171.6 24.3 171.6 24.3 171.6 Z M 19.8 170.5 C 20.6 169.1 19.7 171.6 19.8 170.5 C 19.8 170.5 19.8 170.5 19.8 170.5 Z M 12.8 182.6 C 13.7 181.2 12.6 183.7 12.8 182.6 C 12.8 182.6 12.8 182.6 12.8 182.6 Z M 25.2 166.1 C 26.1 163.6 25.3 167.9 25.2 166.1 C 25.2 166.1 25.2 166.1 25.2 166.1 Z M 27.2 156.6 C 27.3 156.5 27.3 156.5 27.2 156.6 C 27.2 156.6 27.2 156.6 27.2 156.6 Z M 27.2 154.7 C 27.3 154.7 27.3 154.7 27.2 154.7 C 27.2 154.7 27.2 154.7 27.2 154.7 Z M 31.1 148.4 C 31.2 148.3 31.2 148.3 31.1 148.4 C 31.1 148.4 31.1 148.4 31.1 148.4 Z M 27.1 153.0 C 27.1 153.0 27.1 153.0 27.1 153.0 C 27.1 153.0 27.1 153.0 27.1 153.0 Z M 29.1 148.4 C 29.2 148.4 29.2 148.4 29.1 148.4 C 29.1 148.4 29.1 148.4 29.1 148.4 Z M 27.6 148.7 C 27.7 148.6 27.7 148.6 27.6 148.7 C 27.6 148.7 27.6 148.7 27.6 148.7 Z M 30.0 161.6 C 30.1 161.5 30.1 161.5 30.0 161.6 C 30.0 161.6 30.0 161.6 30.0 161.6 Z M 16.2 175.9 C 16.4 175.9 16.4 175.9 16.2 175.9 C 16.2 175.9 16.2 175.9 16.2 175.9 Z M 29.5 149.0 C 29.6 149.0 29.6 149.0 29.5 149.0 C 29.5 149.0 29.5 149.0 29.5 149.0 Z M 26.4 161.0 C 27.6 161.4 24.4 161.3 26.4 160.7 C 26.5 160.7 26.2 161.0 26.4 161.0 M 29.0 160.2 C 29.1 160.3 29.1 160.3 29.0 160.2 C 29.0 160.2 29.0 160.2 29.0 160.2 Z M 27.6 165.8 C 27.6 165.9 27.6 165.9 27.6 165.8 C 27.6 165.8 27.6 165.8 27.6 165.8 Z M 26.5 153.7 C 25.8 153.7 27.5 152.7 26.5 154.0 M 33.3 149.1 C 32.5 149.1 34.3 147.9 33.3 149.3 M 12.3 184.4 C 12.7 184.9 11.5 185.2 12.3 184.4 M 27.7 167.3 C 28.1 167.7 26.9 168.2 27.7 167.3 M 27.2 164.2 C 26.4 164.1 28.3 163.1 27.2 164.4 M 32.0 152.7 C 32.1 152.7 32.1 152.7 32.0 152.7 C 32.0 152.7 32.0 152.7 32.0 152.7 Z M 21.0 168.4 C 21.0 168.3 21.0 168.3 21.0 168.4 C 21.0 168.4 21.0 168.4 21.0 168.4 Z M 25.3 162.7 C 24.0 163.2 26.3 161.9 25.3 162.7 M 21.7 171.0 C 20.0 171.7 23.0 169.2 21.7 171.0 M 34.5 146.4 C 32.6 147.4 35.6 145.5 34.5 146.4 M 28.6 152.3 C 26.6 153.2 29.7 151.6 28.6 152.3 M 22.2 167.4 C 21.4 167.2 23.2 166.2 22.2 167.4 M 14.1 181.2 C 13.2 182.4 14.6 179.2 14.1 181.2 M 30.8 156.3 C 30.9 156.2 30.9 156.2 30.8 156.3 C 30.8 156.3 30.8 156.3 30.8 156.3 Z M 21.5 179.7 C 21.6 179.7 21.6 179.7 21.5 179.7 C 21.5 179.7 21.5 179.7 21.5 179.7 Z M 30.3 143.1 C 30.3 143.1 30.3 143.1 30.3 143.1 C 30.3 143.1 30.3 143.1 30.3 143.1 Z M 28.9 153.4 C 29.0 153.4 29.0 153.4 28.9 153.4 C 28.9 153.4 28.9 153.4 28.9 153.4 Z M 29.3 145.8 C 29.4 145.7 29.4 145.7 29.3 145.8 C 29.3 145.8 29.3 145.8 29.3 145.8 Z M 28.3 158.3 C 28.4 158.3 28.4 158.3 28.3 158.3 C 28.3 158.3 28.3 158.3 28.3 158.3 Z M 24.4 157.7 C 24.4 157.7 24.4 157.7 24.4 157.7 C 24.4 157.7 24.4 157.7 24.4 157.7 Z M 23.9 163.1 C 24.0 163.1 24.0 163.1 23.9 163.1 C 23.9 163.1 23.9 163.1 23.9 163.1 Z M 25.5 155.7 C 26.4 152.8 26.2 157.6 25.5 155.7 C 25.5 155.7 25.5 155.7 25.5 155.7 Z M 27.1 162.1 C 27.2 162.1 27.2 162.1 27.1 162.1 C 27.1 162.1 27.1 162.1 27.1 162.1 Z M 24.4 161.4 C 24.2 159.2 26.6 161.2 24.4 161.4 M 20.0 168.9 C 19.8 168.2 21.0 169.1 20.0 168.9 M 23.0 174.3 C 23.1 174.4 23.1 174.4 23.0 174.3 C 23.0 174.3 23.0 174.3 23.0 174.3 Z M 23.1 173.3 C 23.2 173.3 23.2 173.3 23.1 173.3 C 23.1 173.3 23.1 173.3 23.1 173.3 Z M 18.9 170.7 C 18.9 170.7 18.9 170.7 18.9 170.7 C 18.9 170.7 18.9 170.7 18.9 170.7 Z M 24.4 173.9 C 24.5 173.8 24.5 173.8 24.4 173.9 C 24.4 173.9 24.4 173.9 24.4 173.9 Z M 24.1 158.9 C 24.1 158.8 24.1 158.8 24.1 158.9 C 24.1 158.9 24.1 158.9 24.1 158.9 Z M 29.2 144.2 C 29.2 144.2 29.2 144.2 29.2 144.2 C 29.2 144.2 29.2 144.2 29.2 144.2 Z M 17.8 182.8 C 17.9 182.8 17.9 182.8 17.8 182.8 C 17.8 182.8 17.8 182.8 17.8 182.8 Z M 26.1 157.9 C 26.2 157.9 26.2 157.9 26.1 157.9 C 26.1 157.9 26.1 157.9 26.1 157.9 Z M 21.7 176.3 C 21.8 176.3 21.8 176.3 21.7 176.3 C 21.7 176.3 21.7 176.3 21.7 176.3 Z M 25.4 158.7 C 25.4 158.7 25.4 158.7 25.4 158.7 C 25.4 158.7 25.4 158.7 25.4 158.7 Z M 30.9 156.9 C 31.0 156.8 31.0 156.8 30.9 156.9 C 30.9 156.9 30.9 156.9 30.9 156.9 Z M 32.9 153.9 C 33.0 153.9 33.0 153.9 32.9 153.9 C 32.9 153.9 32.9 153.9 32.9 153.9 Z M 28.3 156.2 C 28.4 156.1 28.4 156.1 28.3 156.2 C 28.3 156.2 28.3 156.2 28.3 156.2 Z M 19.7 176.6 C 15.5 181.7 21.6 171.8 19.7 176.6 M 29.0 155.3 C 27.2 159.3 28.8 151.5 29.0 155.3 C 28.8 154.7 29.0 155.2 29.0 155.3 M 30.1 141.5 C 31.0 143.6 32.3 144.0 33.9 143.6 C 34.8 143.0 32.1 142.2 34.4 142.8 C 34.3 144.9 38.1 142.9 35.1 142.2 C 35.4 139.5 37.1 142.3 36.3 140.4 C 36.8 137.5 37.3 139.2 37.6 137.0 C 36.3 135.3 38.7 135.9 37.3 135.0 C 38.8 136.4 37.3 132.6 38.1 132.7 C 38.7 134.9 39.5 125.2 38.1 130.3 C 37.7 128.0 39.0 128.7 39.3 128.0 C 38.5 126.9 40.7 124.6 39.9 123.2 C 39.6 123.4 39.5 124.1 39.1 124.2 C 38.4 124.5 39.4 122.8 39.4 123.0 C 39.1 122.0 38.5 118.5 39.9 122.4 C 40.7 122.7 39.8 119.4 40.6 119.6 C 41.0 116.4 39.0 118.6 40.4 117.3 C 40.7 115.1 40.8 113.5 40.6 113.5 C 40.9 112.1 41.9 111.9 41.0 110.6 C 43.0 107.9 37.6 108.5 41.2 107.6 C 40.4 106.7 42.7 106.1 40.5 106.1 C 41.5 107.1 42.3 101.4 40.7 103.8 C 40.1 103.2 43.0 99.6 40.7 100.1 C 39.0 98.9 37.4 99.2 35.8 101.9 C 37.1 101.6 34.5 104.7 36.7 102.7 C 37.5 100.4 37.4 107.0 36.7 105.6 C 34.0 105.2 38.2 108.9 36.2 110.1 C 37.3 109.1 37.5 114.4 35.7 112.8 C 35.4 113.7 36.3 114.0 35.1 115.0 C 35.6 111.9 37.0 116.4 35.9 116.1 C 35.2 115.5 34.1 120.2 35.2 119.8 C 38.1 118.5 34.5 121.0 35.5 121.9 C 35.7 124.6 33.2 121.2 34.9 123.4 C 34.5 123.9 34.0 127.3 33.8 125.1 C 34.2 124.3 36.4 127.6 34.0 127.6 C 33.4 123.7 32.5 131.7 33.4 130.6 C 35.8 125.2 33.6 136.9 33.3 132.2 C 31.5 134.5 33.0 131.4 32.8 134.6 C 33.6 134.4 33.8 137.0 32.5 136.1 C 30.2 136.0 35.1 137.6 31.7 138.8 C 30.4 138.8 31.6 142.8 30.6 141.1 C 30.5 141.0 30.1 141.4 30.1 141.5 M 30.6 140.5 C 31.0 141.0 29.8 141.0 30.6 140.5 M 31.0 141.1 C 30.9 141.1 30.9 141.1 31.0 141.1 C 31.0 141.1 31.0 141.1 31.0 141.1 Z M 32.8 135.1 C 32.7 135.1 32.7 135.1 32.8 135.1 C 32.8 135.1 32.8 135.1 32.8 135.1 Z M 39.3 131.4 C 39.2 131.4 39.2 131.4 39.3 131.4 C 39.3 131.4 39.3 131.4 39.3 131.4 Z M 33.8 131.1 C 33.8 131.1 33.8 131.1 33.8 131.1 C 33.8 131.1 33.8 131.1 33.8 131.1 Z M 32.6 137.3 C 32.6 137.4 32.6 137.4 32.6 137.3 C 32.6 137.3 32.6 137.3 32.6 137.3 Z M 32.9 131.3 C 33.8 131.1 32.0 132.6 32.8 131.2 C 32.9 131.1 32.8 131.4 32.9 131.3 M 33.6 126.0 C 33.7 125.9 33.7 125.9 33.6 126.0 M 41.5 114.9 C 41.6 114.8 41.6 114.8 41.5 114.9 M 35.1 113.3 C 35.2 113.2 35.2 113.2 35.1 113.3 M 35.2 120.8 C 35.3 119.2 35.6 120.5 35.2 120.8 M 35.8 109.1 C 35.2 111.1 35.4 106.9 35.8 109.1 M 35.4 107.1 C 35.5 106.9 35.5 106.9 35.4 107.1 M 35.1 116.3 C 35.1 116.4 35.1 116.4 35.1 116.3 C 35.1 116.3 35.1 116.3 35.1 116.3 Z M 34.8 121.5 C 34.0 123.5 34.3 119.2 34.8 121.5 M 32.2 134.2 C 32.0 133.0 33.2 134.4 32.2 134.2 M 32.1 136.7 C 32.1 136.7 32.1 136.7 32.1 136.7 C 32.1 136.7 32.1 136.7 32.1 136.7 Z M 35.5 112.4 C 35.6 112.5 35.6 112.5 35.5 112.4 C 35.5 112.4 35.5 112.4 35.5 112.4 Z M 35.5 110.0 C 35.6 110.1 35.6 110.1 35.5 110.0 C 35.5 110.0 35.5 110.0 35.5 110.0 Z M 41.8 106.3 C 41.8 106.3 41.8 106.3 41.8 106.3 C 41.8 106.3 41.8 106.3 41.8 106.3 Z M 35.0 135.5 C 34.2 137.0 33.4 133.4 34.8 134.1 C 35.4 134.0 34.9 135.3 35.0 135.5 M 36.4 123.3 C 38.5 123.2 33.4 124.4 36.4 123.3 M 36.8 106.8 C 39.3 105.3 34.9 108.8 36.8 106.8 M 36.4 103.6 C 36.9 102.7 36.6 109.6 36.0 104.7 C 35.6 104.3 36.1 103.9 36.4 103.6 M 34.6 126.0 C 35.8 125.8 33.7 128.5 34.6 126.0 M 39.3 116.6 C 38.6 115.7 38.2 113.6 39.3 114.6 C 40.9 114.8 39.8 117.6 39.3 116.6 M 31.9 140.3 C 30.4 138.5 33.4 140.8 31.9 140.3 M 33.5 134.2 C 33.4 134.2 33.4 134.2 33.5 134.2 C 33.5 134.2 33.5 134.2 33.5 134.2 Z M 33.8 131.7 C 33.9 131.6 33.9 131.6 33.8 131.7 M 30.6 138.9 C 30.7 138.8 30.7 138.8 30.6 138.9 M 37.4 116.5 C 37.5 116.4 37.5 116.4 37.4 116.5 M 35.6 121.3 C 37.7 119.2 35.8 122.7 35.6 121.3 M 38.1 127.8 C 39.1 127.2 37.9 129.3 38.1 127.8 M 35.4 117.3 C 37.3 115.8 36.8 119.8 35.4 117.3 M 35.3 122.5 C 35.3 122.4 35.3 122.4 35.3 122.5 C 35.3 122.5 35.3 122.5 35.3 122.5 Z M 39.5 116.0 C 39.6 116.0 39.6 116.0 39.5 116.0 C 39.5 116.0 39.5 116.0 39.5 116.0 Z M 39.5 115.2 C 39.6 115.3 39.6 115.3 39.5 115.2 C 39.5 115.2 39.5 115.2 39.5 115.2 Z M 35.4 115.3 C 35.4 115.3 35.4 115.3 35.4 115.3 C 35.4 115.3 35.4 115.3 35.4 115.3 Z M 36.7 138.0 C 37.2 136.3 36.6 139.4 36.7 138.0 C 36.7 138.0 36.7 138.0 36.7 138.0 Z M 33.3 129.4 C 35.2 126.9 34.2 131.5 33.3 129.4 C 33.3 129.4 33.3 129.4 33.3 129.4 Z M 36.1 126.6 C 36.2 126.6 36.2 126.6 36.1 126.6 C 36.1 126.6 36.1 126.6 36.1 126.6 Z M 34.2 118.3 C 34.3 118.3 34.3 118.3 34.2 118.3 C 34.2 118.3 34.2 118.3 34.2 118.3 Z M 37.1 137.2 C 37.2 137.2 37.2 137.2 37.1 137.2 C 37.1 137.2 37.1 137.2 37.1 137.2 Z M 36.7 110.5 C 36.8 110.5 36.8 110.5 36.7 110.5 C 36.7 110.5 36.7 110.5 36.7 110.5 Z M 39.3 120.7 C 38.7 120.0 39.8 120.6 39.3 120.7 C 39.3 120.7 39.3 120.7 39.3 120.7 Z M 39.6 118.1 C 39.6 118.0 39.6 118.0 39.6 118.1 C 39.6 118.1 39.6 118.1 39.6 118.1 Z M 35.3 106.5 C 35.3 106.4 35.3 106.4 35.3 106.5 C 35.3 106.5 35.3 106.5 35.3 106.5 Z M 41.8 111.6 C 41.8 111.5 41.8 111.5 41.8 111.6 C 41.8 111.6 41.8 111.6 41.8 111.6 Z M 39.9 109.3 C 39.9 109.3 39.9 109.3 39.9 109.3 C 39.9 109.3 39.9 109.3 39.9 109.3 Z M 35.8 115.8 C 35.7 113.2 36.5 116.4 35.8 115.8 C 35.8 115.8 35.8 115.8 35.8 115.8 Z M 39.5 102.9 C 39.6 102.8 39.6 102.8 39.5 102.9 C 39.5 102.9 39.5 102.9 39.5 102.9 Z M 37.2 101.5 C 37.3 101.5 37.3 101.5 37.2 101.5 C 37.2 101.5 37.2 101.5 37.2 101.5 Z M 35.9 100.9 C 36.0 100.8 36.0 100.8 35.9 100.9 C 35.9 100.9 35.9 100.9 35.9 100.9 Z M 36.2 132.3 C 36.1 132.3 36.1 132.3 36.2 132.3 C 36.2 132.3 36.2 132.3 36.2 132.3 Z M 32.3 132.5 C 32.2 132.5 32.2 132.5 32.3 132.5 C 32.3 132.5 32.3 132.5 32.3 132.5 Z M 32.8 129.1 C 32.7 129.1 32.7 129.1 32.8 129.1 C 32.8 129.1 32.8 129.1 32.8 129.1 Z M 38.4 133.4 C 38.3 133.4 38.3 133.4 38.4 133.4 C 38.4 133.4 38.4 133.4 38.4 133.4 Z M 37.3 119.7 C 37.2 119.8 37.2 119.8 37.3 119.7 C 37.3 119.7 37.3 119.7 37.3 119.7 Z M 39.0 118.7 C 38.9 118.8 38.9 118.8 39.0 118.7 C 39.0 118.7 39.0 118.7 39.0 118.7 Z M 40.7 122.0 C 40.6 122.0 40.6 122.0 40.7 122.0 C 40.7 122.0 40.7 122.0 40.7 122.0 Z M 40.4 117.9 C 40.4 117.9 40.4 117.9 40.4 117.9 C 40.4 117.9 40.4 117.9 40.4 117.9 Z M 35.6 142.0 C 35.6 142.0 35.6 142.0 35.6 142.0 C 35.6 142.0 35.6 142.0 35.6 142.0 Z M 32.7 141.5 C 32.7 141.5 32.7 141.5 32.7 141.5 C 32.7 141.5 32.7 141.5 32.7 141.5 Z M 35.2 119.1 C 34.7 118.5 36.2 118.0 35.2 119.1 M 35.0 124.0 C 35.0 124.1 35.0 124.1 35.0 124.0 C 35.0 124.0 35.0 124.0 35.0 124.0 Z M 36.1 110.9 C 37.3 110.3 35.3 113.2 36.1 110.9 C 36.1 110.9 36.1 110.9 36.1 110.9 Z M 40.8 113.9 C 40.8 113.8 40.8 113.8 40.8 113.9 C 40.8 113.9 40.8 113.9 40.8 113.9 Z M 40.4 112.5 C 40.5 112.4 40.5 112.4 40.4 112.5 C 40.4 112.5 40.4 112.5 40.4 112.5 Z M 37.6 105.2 C 37.7 105.0 37.7 105.0 37.6 105.2 M 33.8 124.5 C 34.5 123.8 34.3 124.0 33.8 124.5 M 36.2 109.3 C 36.3 109.3 36.3 109.3 36.2 109.3 C 36.2 109.3 36.2 109.3 36.2 109.3 Z M 36.9 103.6 C 37.0 103.6 37.0 103.6 36.9 103.6 C 36.9 103.6 36.9 103.6 36.9 103.6 Z M 34.0 128.1 C 35.4 128.2 35.0 128.8 34.0 128.1 M 32.4 137.8 C 32.5 137.8 32.5 137.8 32.4 137.8 C 32.4 137.8 32.4 137.8 32.4 137.8 Z M 35.8 95.8 C 34.3 98.5 36.5 98.4 36.6 98.4 C 33.6 98.2 37.8 100.8 38.4 100.3 C 38.8 100.3 43.9 98.1 40.7 96.3 C 40.3 95.8 41.2 95.4 41.3 95.1 C 41.0 91.7 39.8 97.4 39.6 93.4 C 39.9 92.6 42.5 93.3 40.6 91.0 C 40.8 90.9 41.5 88.1 40.5 89.2 C 41.5 87.8 40.0 87.1 39.7 85.9 C 40.2 84.8 41.6 86.6 39.7 82.9 C 41.5 81.0 37.9 80.9 39.9 79.0 C 39.8 78.0 35.9 77.1 38.4 79.0 C 38.1 78.8 36.6 80.4 36.7 77.3 C 37.2 77.7 41.3 78.7 38.6 74.2 C 38.6 73.4 37.3 71.7 37.6 71.2 C 38.5 73.6 38.4 67.5 37.5 68.3 C 37.4 64.3 36.2 66.9 36.7 63.8 C 36.2 61.5 35.3 65.0 35.5 61.9 C 34.7 59.9 36.0 61.1 36.0 61.3 C 35.7 59.4 34.8 58.9 34.7 58.3 C 34.8 57.8 35.2 56.8 34.2 56.6 C 32.0 55.2 30.9 57.4 29.0 57.1 C 28.7 58.7 30.5 57.3 29.5 58.6 C 30.7 59.0 29.5 58.8 30.8 62.5 C 31.0 62.3 31.5 61.2 31.8 62.1 C 32.1 63.6 29.0 63.3 31.6 65.2 C 31.5 62.2 33.5 69.0 33.5 66.1 C 34.6 69.4 33.5 67.2 33.3 69.7 C 35.2 69.2 31.4 70.4 33.1 70.9 C 32.3 71.3 33.5 75.1 34.1 72.1 C 35.4 75.9 33.8 73.7 33.0 75.3 C 33.3 77.1 36.2 74.8 34.0 76.4 C 33.4 78.9 35.2 76.3 33.7 78.3 C 35.2 77.3 33.9 80.1 35.6 79.1 C 36.4 83.2 33.7 78.9 35.3 81.6 C 35.2 80.7 32.9 81.4 34.7 82.9 C 37.4 81.8 32.5 85.5 36.1 83.8 C 37.9 89.3 34.7 84.9 35.0 88.0 C 35.0 88.8 36.1 87.0 36.2 87.7 C 36.1 91.8 34.8 88.5 36.8 90.5 C 37.6 94.5 35.3 91.8 35.3 93.7 C 36.2 93.8 37.8 95.4 35.8 95.8 M 36.5 92.2 C 35.9 91.4 37.1 91.7 36.5 92.2 M 35.9 100.3 C 35.3 99.4 36.5 99.7 35.9 100.3 M 35.7 89.0 C 35.0 87.9 36.7 88.5 35.7 89.0 M 33.1 67.5 C 33.4 69.0 32.5 66.9 33.1 67.5 M 35.7 97.1 C 35.0 95.9 36.8 96.7 35.7 97.1 M 37.3 98.5 C 37.3 98.4 37.3 98.4 37.3 98.5 M 31.1 65.7 C 31.1 65.7 31.1 65.7 31.1 65.7 M 32.4 71.4 C 32.2 70.2 32.9 72.0 32.4 71.4 M 38.6 70.3 C 38.3 69.0 39.1 70.9 38.6 70.3 M 30.2 62.7 C 29.4 61.6 30.8 62.2 30.2 62.7 M 30.6 59.2 C 29.8 58.3 31.0 58.3 30.6 59.2 M 38.7 92.8 C 38.8 92.8 38.8 92.8 38.7 92.8 C 38.7 92.8 38.7 92.8 38.7 92.8 Z M 39.2 81.9 C 38.8 83.3 39.8 80.2 39.2 81.9 M 35.4 84.4 C 36.6 83.4 35.5 86.0 35.4 84.4 C 35.4 84.4 35.4 84.4 35.4 84.4 Z M 36.2 86.1 C 36.3 86.2 36.3 86.2 36.2 86.1 C 36.2 86.1 36.2 86.1 36.2 86.1 Z M 35.5 80.2 C 35.5 80.2 35.5 80.2 35.5 80.2 C 35.5 80.2 35.5 80.2 35.5 80.2 Z M 35.8 81.4 C 36.1 81.8 35.6 82.1 35.8 81.4 C 35.8 81.4 35.8 81.4 35.8 81.4 Z M 38.3 72.0 C 38.6 72.4 38.1 72.7 38.3 72.0 C 38.3 72.0 38.3 72.0 38.3 72.0 Z M 36.5 83.2 C 37.8 83.2 35.7 84.2 36.5 83.2 C 36.5 83.2 36.5 83.2 36.5 83.2 Z M 38.5 76.3 C 38.1 75.8 39.5 75.0 38.5 76.3 M 31.0 64.5 C 30.5 64.1 31.9 63.1 31.0 64.5 M 33.4 77.0 C 32.9 76.5 34.4 75.7 33.4 77.0 M 35.9 91.6 C 36.0 91.4 36.0 91.4 35.9 91.6 M 40.7 83.9 C 40.1 83.2 41.2 83.4 40.7 83.9 M 41.3 96.2 C 40.8 95.4 41.8 95.8 41.3 96.2 M 37.2 64.8 C 36.8 65.0 37.0 63.5 37.2 64.8 M 35.1 75.1 C 35.0 74.0 35.5 72.7 35.9 75.1 C 35.6 75.3 35.3 74.6 35.1 75.1 C 35.1 75.1 35.1 75.1 35.1 75.1 Z M 37.2 70.6 C 37.2 70.4 37.2 70.4 37.2 70.6 M 33.6 73.4 C 33.6 73.2 33.6 73.2 33.6 73.4 M 32.3 67.0 C 32.4 66.8 32.4 66.8 32.3 67.0 M 31.7 66.3 C 31.8 66.3 31.8 66.3 31.7 66.3 C 31.7 66.3 31.7 66.3 31.7 66.3 Z M 29.3 59.5 C 29.4 59.5 29.4 59.5 29.3 59.5 C 29.3 59.5 29.3 59.5 29.3 59.5 Z M 32.9 69.0 C 33.0 69.0 33.0 69.0 32.9 69.0 C 32.9 69.0 32.9 69.0 32.9 69.0 Z M 36.2 62.0 C 36.2 62.0 36.2 62.0 36.2 62.0 C 36.2 62.0 36.2 62.0 36.2 62.0 Z M 35.6 62.9 C 35.7 62.9 35.7 62.9 35.6 62.9 C 35.6 62.9 35.6 62.9 35.6 62.9 Z M 35.8 95.2 C 34.8 94.3 38.0 94.6 35.8 95.2 M 34.8 59.8 C 35.3 58.6 35.4 61.4 34.8 59.8 C 34.8 59.8 34.8 59.8 34.8 59.8 Z M 34.1 69.5 C 34.3 69.4 34.3 69.4 34.1 69.5 M 31.7 65.9 C 31.9 65.8 31.9 65.8 31.7 65.9 M 34.3 84.6 C 34.4 84.4 34.4 84.4 34.3 84.6 M 30.7 60.9 C 30.1 57.9 32.8 61.8 30.7 60.9 M 35.6 85.8 C 35.5 85.9 35.5 85.9 35.6 85.8 M 37.0 78.7 C 36.7 76.7 37.9 79.3 37.0 78.7 M 34.6 73.8 C 34.6 73.9 34.6 73.9 34.6 73.8 C 34.6 73.8 34.6 73.8 34.6 73.8 Z M 35.1 76.8 C 35.5 78.2 34.8 77.2 35.1 76.8 C 35.1 76.8 35.1 76.8 35.1 76.8 Z M 36.9 93.8 C 36.9 91.8 37.4 95.7 36.9 93.8 C 36.9 93.8 36.9 93.8 36.9 93.8 Z M 33.9 61.5 C 34.0 61.5 34.0 61.5 33.9 61.5 C 33.9 61.5 33.9 61.5 33.9 61.5 Z M 32.1 69.6 C 32.6 70.4 31.9 70.1 32.1 69.6 C 32.1 69.6 32.1 69.6 32.1 69.6 Z M 29.0 58.5 C 29.6 59.3 28.8 59.0 29.0 58.5 C 29.0 58.5 29.0 58.5 29.0 58.5 Z M 36.8 96.1 C 38.6 89.0 36.6 105.4 36.8 96.1 C 36.8 96.1 36.8 96.1 36.8 96.1 Z M 34.0 75.8 C 34.1 75.8 34.1 75.8 34.0 75.8 C 34.0 75.8 34.0 75.8 34.0 75.8 Z M 34.9 88.6 C 35.0 88.7 35.0 88.7 34.9 88.6 C 34.9 88.6 34.9 88.6 34.9 88.6 Z M 36.3 90.7 C 36.3 90.8 36.3 90.8 36.3 90.7 C 36.3 90.7 36.3 90.7 36.3 90.7 Z M 41.2 89.7 C 41.2 89.7 41.2 89.7 41.2 89.7 C 41.2 89.7 41.2 89.7 41.2 89.7 Z M 38.8 89.1 C 39.0 89.2 39.0 89.2 38.8 89.1 C 38.8 89.1 38.8 89.1 38.8 89.1 Z M 40.0 93.7 C 40.1 93.7 40.1 93.7 40.0 93.7 C 40.0 93.7 40.0 93.7 40.0 93.7 Z M 40.7 93.5 C 40.7 93.6 40.7 93.6 40.7 93.5 C 40.7 93.5 40.7 93.5 40.7 93.5 Z M 33.1 65.5 C 33.2 65.6 33.2 65.6 33.1 65.5 C 33.1 65.5 33.1 65.5 33.1 65.5 Z M 35.7 67.4 C 34.6 66.0 36.9 67.7 35.7 67.4 C 35.7 67.4 35.7 67.4 35.7 67.4 Z M 37.4 82.2 C 36.9 80.7 38.2 83.1 37.4 82.2 C 37.4 82.2 37.4 82.2 37.4 82.2 Z M 39.8 80.2 C 39.9 80.1 39.9 80.1 39.8 80.2 C 39.8 80.2 39.8 80.2 39.8 80.2 Z M 35.1 90.8 C 35.2 90.9 35.2 90.9 35.1 90.8 C 35.1 90.8 35.1 90.8 35.1 90.8 Z M 36.1 93.5 C 37.2 93.5 35.6 94.4 36.1 93.5 M 34.0 79.8 C 34.2 79.8 34.2 79.8 34.0 79.8 C 34.0 79.8 34.0 79.8 34.0 79.8 Z M 34.1 70.8 C 34.1 70.9 34.1 70.9 34.1 70.8 C 34.1 70.8 34.1 70.8 34.1 70.8 Z M 31.3 62.4 C 31.5 62.4 31.5 62.4 31.3 62.4 C 31.3 62.4 31.3 62.4 31.3 62.4 Z M 33.2 74.4 C 33.4 74.4 33.4 74.4 33.2 74.4 C 33.2 74.4 33.2 74.4 33.2 74.4 Z M 34.9 78.3 C 35.1 78.4 35.1 78.4 34.9 78.3 C 34.9 78.3 34.9 78.3 34.9 78.3 Z M 32.2 60.1 C 32.3 60.2 32.3 60.2 32.2 60.1 C 32.2 60.1 32.2 60.1 32.2 60.1 Z M 32.9 73.5 C 33.0 73.5 33.0 73.5 32.9 73.5 C 32.9 73.5 32.9 73.5 32.9 73.5 Z M 35.7 70.3 C 35.8 70.4 35.8 70.4 35.7 70.3 C 35.7 70.3 35.7 70.3 35.7 70.3 Z M 34.6 93.2 C 34.7 93.2 34.7 93.2 34.6 93.2 C 34.6 93.2 34.6 93.2 34.6 93.2 Z M 30.8 60.4 C 30.9 60.5 30.9 60.5 30.8 60.4 C 30.8 60.4 30.8 60.4 30.8 60.4 Z M 29.8 60.2 C 29.8 60.2 29.8 60.2 29.8 60.2 C 29.8 60.2 29.8 60.2 29.8 60.2 Z M 36.2 65.0 C 36.5 68.2 35.3 62.3 34.8 64.8 C 33.4 60.5 36.1 64.3 36.2 65.0 C 36.2 65.0 36.2 65.0 36.2 65.0 Z M 28.2 56.3 C 30.1 57.5 31.4 57.1 32.5 56.0 C 33.0 54.9 30.3 55.8 32.5 55.0 C 33.6 56.8 35.7 53.1 32.8 54.1 C 31.5 51.6 34.5 53.0 32.8 51.9 C 31.6 49.2 33.0 50.3 32.0 48.3 C 29.9 47.6 32.3 46.8 30.6 46.8 C 32.6 47.2 29.3 44.7 30.0 44.4 C 31.7 45.9 27.0 37.1 28.6 42.3 C 27.0 40.6 28.5 40.4 28.4 39.6 C 27.1 39.2 27.7 36.0 26.2 35.2 C 26.1 35.5 26.3 36.1 26.1 36.5 C 25.7 37.1 25.6 35.0 25.6 35.2 C 24.9 34.6 22.4 31.8 25.7 34.4 C 26.5 34.3 24.0 31.8 24.7 31.6 C 23.3 28.5 22.9 31.6 23.3 29.7 C 22.3 27.5 21.5 26.0 21.3 26.1 C 20.7 24.7 21.4 24.0 20.0 23.3 C 20.2 19.8 15.9 23.3 18.5 20.5 C 17.3 20.2 18.9 18.3 17.0 19.5 C 18.4 19.9 15.9 14.3 15.9 17.4 C 15.1 17.0 15.4 12.3 13.8 13.9 C 11.7 13.7 10.4 14.8 10.7 18.1 C 11.6 17.1 11.1 21.4 11.9 18.4 C 11.2 15.9 14.9 22.0 13.5 21.1 C 11.0 22.1 16.6 23.3 15.7 25.5 C 16.0 23.9 19.3 28.7 16.7 28.2 C 17.1 29.2 18.0 28.9 17.6 30.5 C 16.2 27.4 20.0 30.7 18.8 31.1 C 17.9 30.9 19.6 35.7 20.4 34.7 C 22.1 31.9 20.4 36.1 21.8 36.5 C 23.5 38.7 19.5 37.0 22.2 38.1 C 22.1 38.7 23.6 42.0 22.1 40.2 C 22.0 39.3 25.7 41.0 23.7 42.2 C 21.0 39.2 24.8 46.6 25.0 45.1 C 23.9 39.1 28.6 50.5 25.7 46.6 C 25.5 49.5 25.0 46.1 26.7 48.9 C 27.2 48.3 28.7 50.4 27.2 50.4 C 25.3 51.6 30.3 50.2 28.1 53.1 C 26.9 53.8 30.2 56.6 28.4 55.7 C 28.2 55.6 28.1 56.2 28.2 56.3 M 28.1 55.1 C 28.7 55.4 27.7 56.0 28.1 55.1 M 28.7 55.4 C 28.6 55.5 28.6 55.5 28.7 55.4 C 28.7 55.4 28.7 55.4 28.7 55.4 Z M 26.9 49.4 C 26.9 49.4 26.9 49.4 26.9 49.4 C 26.9 49.4 26.9 49.4 26.9 49.4 Z M 30.2 42.6 C 30.2 42.6 30.2 42.6 30.2 42.6 C 30.2 42.6 30.2 42.6 30.2 42.6 Z M 25.5 45.4 C 25.5 45.4 25.5 45.4 25.5 45.4 C 25.5 45.4 25.5 45.4 25.5 45.4 Z M 28.0 51.4 C 28.0 51.4 28.0 51.4 28.0 51.4 C 28.0 51.4 28.0 51.4 28.0 51.4 Z M 24.9 46.0 C 25.5 45.4 24.9 47.6 24.7 46.0 C 24.8 45.9 24.9 46.2 24.9 46.0 M 22.5 41.0 C 22.5 41.0 22.5 41.0 22.5 41.0 M 22.8 26.9 C 22.9 26.8 22.9 26.8 22.8 26.9 M 16.6 29.0 C 16.6 28.9 16.6 28.9 16.6 29.0 M 20.9 35.6 C 20.1 34.1 21.1 35.1 20.9 35.6 M 14.8 24.8 C 15.4 26.9 13.2 22.9 14.8 24.8 M 13.3 23.2 C 13.2 22.9 13.2 22.9 13.3 23.2 M 18.3 31.7 C 18.4 31.7 18.4 31.7 18.3 31.7 C 18.3 31.7 18.3 31.7 18.3 31.7 Z M 20.9 36.4 C 21.5 38.7 19.2 34.7 20.9 36.4 M 25.9 48.9 C 25.1 48.0 26.9 48.6 25.9 48.9 M 27.2 51.1 C 27.2 51.1 27.2 51.1 27.2 51.1 C 27.2 51.1 27.2 51.1 27.2 51.1 Z M 16.4 27.9 C 16.5 27.9 16.5 27.9 16.4 27.9 C 16.4 27.9 16.4 27.9 16.4 27.9 Z M 15.1 25.7 C 15.1 25.8 15.1 25.8 15.1 25.7 C 15.1 25.7 15.1 25.7 15.1 25.7 Z M 18.2 19.0 C 18.3 19.0 18.3 19.0 18.2 19.0 C 18.2 19.0 18.2 19.0 18.2 19.0 Z M 28.9 48.5 C 29.1 50.2 26.5 47.6 28.0 47.4 C 28.5 47.0 28.7 48.4 28.9 48.5 M 23.3 37.1 C 25.0 35.9 21.4 39.8 23.3 37.1 M 14.3 22.2 C 15.5 19.5 13.9 25.0 14.3 22.2 M 12.1 19.4 C 12.0 18.3 15.7 24.8 12.4 20.7 C 11.8 20.4 12.1 19.8 12.1 19.4 M 23.3 40.6 C 24.2 39.7 23.9 43.2 23.3 40.6 M 22.0 29.6 C 20.9 29.2 19.3 27.6 20.9 27.9 C 22.3 27.1 23.0 30.3 22.0 29.6 M 29.0 54.3 C 26.8 53.6 30.5 53.8 29.0 54.3 M 27.0 48.2 C 26.9 48.2 26.9 48.2 27.0 48.2 C 27.0 48.2 27.0 48.2 27.0 48.2 Z M 25.8 45.9 C 25.9 45.8 25.9 45.8 25.8 45.9 M 27.2 53.8 C 27.3 53.7 27.3 53.7 27.2 53.8 M 20.3 30.6 C 20.4 30.4 20.4 30.4 20.3 30.6 M 21.5 35.9 C 22.1 32.8 22.5 36.9 21.5 35.9 M 27.3 40.1 C 27.8 39.1 28.0 41.6 27.3 40.1 M 19.1 32.4 C 19.8 30.1 21.7 33.9 19.1 32.4 M 21.9 37.1 C 21.9 37.0 21.9 37.0 21.9 37.1 C 21.9 37.1 21.9 37.1 21.9 37.1 Z M 21.8 29.0 C 21.9 29.0 21.9 29.0 21.8 29.0 C 21.8 29.0 21.8 29.0 21.8 29.0 Z M 21.4 28.3 C 21.5 28.3 21.5 28.3 21.4 28.3 C 21.4 28.3 21.4 28.3 21.4 28.3 Z M 17.9 30.6 C 18.0 30.6 18.0 30.6 17.9 30.6 C 17.9 30.6 17.9 30.6 17.9 30.6 Z M 31.7 49.7 C 31.2 47.9 32.5 50.9 31.7 49.7 C 31.7 49.7 31.7 49.7 31.7 49.7 Z M 24.2 44.2 C 24.3 40.9 26.1 45.5 24.2 44.2 C 24.2 44.2 24.2 44.2 24.2 44.2 Z M 24.9 40.2 C 25.0 40.2 25.0 40.2 24.9 40.2 C 24.9 40.2 24.9 40.2 24.9 40.2 Z M 18.7 33.9 C 18.8 33.9 18.8 33.9 18.7 33.9 C 18.7 33.9 18.7 33.9 18.7 33.9 Z M 31.6 48.7 C 31.7 48.7 31.7 48.7 31.6 48.7 C 31.6 48.7 31.6 48.7 31.6 48.7 Z M 16.3 25.6 C 16.4 25.5 16.4 25.5 16.3 25.6 C 16.3 25.6 16.3 25.6 16.3 25.6 Z M 24.3 33.3 C 23.4 33.0 24.7 32.9 24.3 33.3 C 24.3 33.3 24.3 33.3 24.3 33.3 Z M 23.1 30.8 C 23.0 30.8 23.0 30.8 23.1 30.8 C 23.1 30.8 23.1 30.8 23.1 30.8 Z M 12.8 22.6 C 12.8 22.6 12.8 22.6 12.8 22.6 C 12.8 22.6 12.8 22.6 12.8 22.6 Z M 21.2 23.8 C 21.2 23.7 21.2 23.7 21.2 23.8 C 21.2 23.8 21.2 23.8 21.2 23.8 Z M 18.3 22.7 C 18.4 22.8 18.4 22.8 18.3 22.7 C 18.3 22.7 18.3 22.7 18.3 22.7 Z M 18.5 30.8 C 17.0 28.6 19.5 31.0 18.5 30.8 C 18.5 30.8 18.5 30.8 18.5 30.8 Z M 14.3 17.1 C 14.4 16.9 14.4 16.9 14.3 17.1 C 14.3 17.1 14.3 17.1 14.3 17.1 Z M 11.6 17.1 C 11.6 17.0 11.6 17.0 11.6 17.1 C 11.6 17.1 11.6 17.1 11.6 17.1 Z M 10.1 17.2 C 10.2 17.1 10.2 17.1 10.1 17.2 C 10.1 17.2 10.1 17.2 10.1 17.2 Z M 28.2 45.0 C 28.1 45.1 28.1 45.1 28.2 45.0 C 28.2 45.0 28.2 45.0 28.2 45.0 Z M 25.0 47.4 C 25.0 47.4 25.0 47.4 25.0 47.4 C 25.0 47.4 25.0 47.4 25.0 47.4 Z M 23.5 44.2 C 23.5 44.2 23.5 44.2 23.5 44.2 C 23.5 44.2 23.5 44.2 23.5 44.2 Z M 30.6 44.8 C 30.6 44.8 30.6 44.8 30.6 44.8 C 30.6 44.8 30.6 44.8 30.6 44.8 Z M 22.1 33.5 C 22.0 33.6 22.0 33.6 22.1 33.5 C 22.1 33.5 22.1 33.5 22.1 33.5 Z M 22.9 31.7 C 22.9 31.8 22.9 31.8 22.9 31.7 C 22.9 31.7 22.9 31.7 22.9 31.7 Z M 26.2 33.7 C 26.1 33.7 26.1 33.7 26.2 33.7 C 26.2 33.7 26.2 33.7 26.2 33.7 Z M 23.7 30.2 C 23.6 30.2 23.6 30.2 23.7 30.2 C 23.7 30.2 23.7 30.2 23.7 30.2 Z M 33.0 53.6 C 33.1 53.6 33.1 53.6 33.0 53.6 C 33.0 53.6 33.0 53.6 33.0 53.6 Z M 30.3 54.8 C 30.4 54.8 30.4 54.8 30.3 54.8 C 30.3 54.8 30.3 54.8 30.3 54.8 Z M 20.0 34.1 C 19.2 33.8 20.2 32.6 20.0 34.1 M 22.5 38.6 C 22.6 38.6 22.6 38.6 22.5 38.6 C 22.5 38.6 22.5 38.6 22.5 38.6 Z M 16.0 26.2 C 16.7 25.1 16.7 28.7 16.0 26.2 C 16.0 26.2 16.0 26.2 16.0 26.2 Z M 21.7 26.4 C 21.7 26.3 21.7 26.3 21.7 26.4 C 21.7 26.4 21.7 26.4 21.7 26.4 Z M 20.6 25.4 C 20.6 25.2 20.6 25.2 20.6 25.4 C 20.6 25.4 20.6 25.4 20.6 25.4 Z M 14.0 20.2 C 14.0 20.0 14.0 20.0 14.0 20.2 M 21.8 39.6 C 22.0 38.7 22.0 38.9 21.8 39.6 M 15.2 24.7 C 15.3 24.7 15.3 24.7 15.2 24.7 C 15.2 24.7 15.2 24.7 15.2 24.7 Z M 12.6 19.1 C 12.6 19.1 12.6 19.1 12.6 19.1 C 12.6 19.1 12.6 19.1 12.6 19.1 Z M 24.0 42.6 C 25.3 41.9 25.2 42.7 24.0 42.6 M 28.1 51.9 C 28.2 51.8 28.2 51.8 28.1 51.9 C 28.1 51.9 28.1 51.9 28.1 51.9 Z M 28.1 51.9 " fill="#71AFE1"></path></g></svg>