<?xml version="1.0" encoding="UTF-8" standalone="no"?><svg xmlns="http://www.w3.org/2000/svg" xmlns:xlink="http://www.w3.org/1999/xlink" clip-rule="evenodd" stroke-miterlimit="4.00" viewBox="0 0 141 312"><desc>SVG generated by Keynote</desc><defs></defs><g transform="matrix(1.00, 0.00, -0.00, -1.00, 0.0, 312.0)"><g><clipPath id="clip-37"><path d="M 7.0 311.6 L 140.1 178.4 L 133.8 172.0 L 0.6 305.2 Z M 7.0 311.6 "></path></clipPath><g clip-path="url(#clip-37)"><path d="M 14.4 295.3 C 14.3 295.7 13.5 296.1 13.4 296.4 M 14.4 295.3 C 12.9 295.0 11.7 296.1 10.1 297.3 C 8.5 298.9 11.0 298.1 11.2 298.7 C 9.5 301.1 8.8 300.4 8.1 299.2 C 8.0 300.6 4.5 301.8 6.2 302.5 C 9.5 299.2 4.2 305.2 7.6 303.1 C 8.1 303.0 7.6 304.1 7.4 304.4 C 8.8 304.0 7.8 306.2 9.6 305.1 C 10.6 305.6 10.0 305.6 11.6 305.2 C 12.0 304.9 11.6 304.8 11.4 304.7 C 10.6 303.6 13.0 304.0 13.2 302.7 C 15.1 303.2 14.5 301.1 13.3 301.2 C 14.2 300.6 16.2 301.0 16.1 299.5 C 17.1 299.6 18.6 297.4 16.7 297.8 C 15.4 298.1 16.0 296.8 15.8 296.4 C 15.3 296.5 14.5 298.0 14.1 297.9 C 14.3 297.4 15.3 295.5 13.8 297.1 C 13.9 296.2 12.8 296.7 14.4 295.3 C 14.4 295.3 14.4 295.3 14.4 295.3 Z M 8.1 300.3 C 7.8 300.0 8.6 299.8 8.1 300.3 C 8.1 300.3 8.1 300.3 8.1 300.3 Z M 16.1 300.7 C 15.8 300.4 16.6 300.1 16.1 300.7 C 16.1 300.7 16.1 300.7 16.1 300.7 Z M 11.7 304.4 C 11.3 304.1 12.2 303.9 11.7 304.4 C 11.7 304.4 11.7 304.4 11.7 304.4 Z M 9.7 299.0 C 10.9 298.4 9.4 300.2 9.0 300.0 C 9.2 299.9 9.3 299.0 9.7 299.0 C 9.7 299.0 9.7 299.0 9.7 299.0 Z M 11.7 300.7 C 11.6 300.5 12.0 300.1 12.2 300.5 C 12.1 300.8 11.7 300.9 11.7 300.7 C 11.7 300.7 11.7 300.7 11.7 300.7 Z M 6.0 303.8 C 6.0 303.6 6.3 303.2 6.6 303.6 C 6.4 303.9 6.1 304.0 6.0 303.8 C 6.0 303.8 6.0 303.8 6.0 303.8 Z M 11.6 298.8 C 11.8 298.7 12.2 298.9 12.0 299.2 C 11.7 299.2 11.1 299.7 11.6 298.8 C 11.6 298.8 11.6 298.8 11.6 298.8 Z M 11.9 296.4 C 12.8 295.8 11.8 297.8 11.7 297.6 C 11.2 297.7 11.2 296.6 11.9 296.4 C 11.9 296.4 11.9 296.4 11.9 296.4 Z M 12.4 298.8 C 13.2 298.4 12.4 299.3 12.4 298.8 C 12.4 298.8 12.4 298.8 12.4 298.8 Z M 8.9 305.5 C 9.7 305.1 8.9 306.0 8.9 305.5 C 8.9 305.5 8.9 305.5 8.9 305.5 Z M 13.1 303.3 C 13.9 302.8 13.1 303.7 13.1 303.3 C 13.1 303.3 13.1 303.3 13.1 303.3 Z M 8.7 301.3 C 7.7 302.3 7.8 300.6 8.7 301.3 C 8.7 301.3 8.7 301.3 8.7 301.3 Z M 13.5 294.6 C 12.4 295.7 12.6 294.0 13.5 294.6 C 13.5 294.6 13.5 294.6 13.5 294.6 Z M 130.7 178.1 C 131.5 176.9 126.6 179.7 129.3 179.5 C 130.7 180.1 128.1 182.6 127.8 181.0 C 126.9 181.6 126.8 181.6 126.9 182.5 C 126.0 181.9 123.9 183.3 123.6 184.3 C 123.9 185.3 124.9 183.2 124.6 184.9 C 122.5 187.3 125.4 185.4 125.4 187.2 C 125.3 187.2 124.9 186.9 124.9 187.3 C 125.6 188.2 127.4 187.4 127.4 188.6 C 127.6 188.1 130.1 187.4 128.8 187.4 C 127.8 186.8 131.4 186.5 130.1 185.4 C 131.2 185.4 130.9 184.1 132.1 184.3 C 132.7 184.0 132.0 183.4 131.8 183.3 C 131.2 182.7 133.6 184.1 133.2 182.4 C 133.6 182.7 135.3 180.7 133.5 181.6 C 133.9 181.3 136.3 179.5 134.1 179.6 C 132.1 180.5 134.5 176.9 132.7 178.6 C 131.3 179.8 131.2 180.2 131.6 178.7 C 132.0 178.5 133.4 176.9 131.6 177.6 C 131.5 178.1 130.8 178.6 130.7 178.1 C 130.7 178.1 130.7 178.1 130.7 178.1 Z M 132.5 179.4 C 131.8 180.2 132.1 179.1 132.5 179.4 C 132.5 179.4 132.5 179.4 132.5 179.4 Z M 132.3 184.6 C 131.6 185.4 131.8 184.3 132.3 184.6 C 132.3 184.6 132.3 184.6 132.3 184.6 Z M 128.0 180.2 C 128.0 180.9 126.7 179.8 128.0 180.2 C 128.0 180.2 128.0 180.2 128.0 180.2 Z M 132.6 182.5 C 132.6 182.5 132.6 182.2 132.7 182.0 C 132.7 182.1 132.7 182.4 132.6 182.5 C 132.6 182.5 132.6 182.5 132.6 182.5 Z M 126.7 181.5 C 126.2 183.1 125.6 180.8 126.7 181.5 C 126.7 181.5 126.7 181.5 126.7 181.5 Z M 125.6 184.8 C 126.6 186.1 124.2 185.7 125.6 184.8 C 125.6 184.8 125.6 184.8 125.6 184.8 Z M 129.6 185.7 C 129.6 185.3 130.0 185.6 129.6 185.7 C 129.6 185.7 129.6 185.7 129.6 185.7 Z M 134.7 181.0 C 134.6 180.5 135.0 180.9 134.7 181.0 C 134.7 181.0 134.7 181.0 134.7 181.0 Z M 128.1 187.0 C 127.8 186.5 128.7 186.8 128.1 187.0 C 128.1 187.0 128.1 187.0 128.1 187.0 Z M 128.3 180.8 C 128.4 178.9 130.8 180.9 128.3 180.8 C 128.3 180.8 128.3 180.8 128.3 180.8 Z M 130.0 178.9 C 130.5 178.0 130.5 179.6 130.0 179.8 C 129.9 179.6 130.0 179.1 130.0 178.9 C 130.0 178.9 130.0 178.9 130.0 178.9 Z M 127.3 182.0 C 127.5 180.9 128.2 181.6 127.3 182.0 C 127.3 182.0 127.3 182.0 127.3 182.0 Z M 128.6 179.7 C 129.0 179.5 128.4 180.1 128.6 179.7 C 128.6 179.7 128.6 179.7 128.6 179.7 Z M 125.0 182.5 C 125.4 182.2 124.8 182.9 125.0 182.5 C 125.0 182.5 125.0 182.5 125.0 182.5 Z M 130.4 177.6 C 130.9 177.3 130.2 178.0 130.4 177.6 C 130.4 177.6 130.4 177.6 130.4 177.6 Z M 125.8 182.8 C 126.1 183.3 128.0 183.2 125.5 184.2 C 124.9 184.2 125.0 182.9 125.8 182.8 C 125.8 182.8 125.8 182.8 125.8 182.8 Z M 16.9 292.8 C 11.9 295.3 15.0 296.6 15.3 297.2 C 15.4 298.3 16.3 298.2 17.4 297.9 C 19.6 298.5 17.2 295.2 19.1 296.1 C 22.0 296.9 18.6 293.3 21.0 294.9 C 21.4 295.5 22.4 293.7 22.2 293.6 C 23.8 293.9 23.2 291.1 23.0 291.0 C 23.8 290.7 25.6 292.4 25.8 289.6 C 26.5 288.0 28.7 289.2 27.2 288.3 C 29.4 288.8 27.4 287.3 28.7 286.9 C 30.1 287.1 27.6 285.8 30.1 286.1 C 29.4 284.5 30.4 287.4 32.4 283.7 C 30.9 285.0 32.9 281.4 33.1 282.7 C 32.9 284.5 34.1 281.1 35.9 280.3 C 35.9 279.5 36.4 276.9 37.3 278.3 C 40.0 278.2 37.9 276.1 39.5 276.6 C 40.4 276.6 39.6 275.4 40.0 275.2 C 41.3 275.5 41.2 274.6 43.1 273.1 C 47.2 269.8 41.6 270.5 42.7 268.8 C 42.6 268.2 37.9 267.6 40.7 268.8 C 39.9 268.5 38.9 273.6 38.2 269.9 C 38.0 271.9 37.6 268.7 36.3 272.1 C 41.0 270.5 33.3 276.3 35.6 272.5 C 34.7 272.6 33.5 273.9 34.8 273.4 C 36.5 274.4 32.0 274.9 34.9 275.4 C 32.5 276.8 34.6 277.9 32.9 277.3 C 30.7 276.0 33.5 277.7 32.0 278.2 C 29.7 280.4 29.4 276.6 29.4 279.3 C 26.2 280.7 29.7 280.6 29.1 281.6 C 30.2 283.1 25.9 283.0 27.4 281.1 C 27.2 282.7 26.6 280.6 26.4 282.5 C 28.3 282.9 23.8 282.5 25.1 283.2 C 24.5 284.4 25.6 284.6 25.4 284.9 C 24.0 286.3 23.3 284.7 23.9 285.9 C 24.0 286.7 21.9 285.8 22.1 286.3 C 23.5 285.0 22.2 288.7 21.4 288.3 C 22.2 287.3 19.4 287.2 19.8 288.6 C 23.0 290.5 17.9 289.2 18.2 290.7 C 20.2 291.5 15.2 294.0 16.0 291.9 C 16.0 292.1 17.0 292.8 16.9 292.8 M 21.9 287.0 C 23.1 285.9 20.9 288.5 21.9 287.0 M 21.5 286.6 C 22.4 286.6 20.0 287.4 21.4 286.4 C 21.4 286.4 21.3 286.7 21.5 286.6 M 26.2 281.8 C 26.4 282.3 25.3 282.2 26.2 281.8 M 28.0 281.8 C 29.1 281.4 27.0 282.9 28.0 281.8 M 38.3 270.9 C 39.3 274.1 36.0 270.8 38.3 270.9 M 30.9 277.5 C 29.8 279.0 30.4 276.1 30.9 277.5 M 31.0 278.4 C 30.8 279.3 30.4 278.0 31.0 278.4 M 36.3 272.9 C 36.4 272.8 36.4 272.8 36.3 272.9 C 36.3 272.9 36.3 272.9 36.3 272.9 Z M 39.5 269.8 C 39.5 269.8 39.5 269.8 39.5 269.8 C 39.5 269.8 39.5 269.8 39.5 269.8 Z M 33.5 276.2 C 32.0 276.6 34.8 274.4 33.5 276.2 C 33.5 276.2 33.5 276.2 33.5 276.2 Z M 41.2 274.5 C 41.2 274.6 41.2 274.6 41.2 274.5 C 41.2 274.5 41.2 274.5 41.2 274.5 Z M 21.9 288.8 C 21.9 288.9 21.9 288.9 21.9 288.8 C 21.9 288.8 21.9 288.8 21.9 288.8 Z M 17.6 291.6 C 17.9 291.8 16.7 292.0 17.6 291.6 C 17.6 291.6 17.6 291.6 17.6 291.6 Z M 17.1 296.9 C 17.1 297.0 17.1 297.0 17.1 296.9 C 17.1 296.9 17.1 296.9 17.1 296.9 Z M 21.8 291.2 C 21.8 291.2 21.8 291.2 21.8 291.2 C 21.8 291.2 21.8 291.2 21.8 291.2 Z M 20.8 289.1 C 19.0 288.5 22.4 288.0 20.8 289.1 C 20.8 289.1 20.8 289.1 20.8 289.1 Z M 35.2 280.3 C 34.7 279.8 36.2 279.6 35.2 280.3 C 35.2 280.3 35.2 280.3 35.2 280.3 Z M 28.6 282.1 C 28.5 281.7 29.2 281.7 28.6 282.1 C 28.6 282.1 28.6 282.1 28.6 282.1 Z M 25.0 282.5 C 24.9 282.1 25.7 282.1 25.0 282.5 C 25.0 282.5 25.0 282.5 25.0 282.5 Z M 17.3 291.2 C 17.3 291.1 17.3 291.1 17.3 291.2 C 17.3 291.2 17.3 291.2 17.3 291.2 Z M 19.5 290.8 C 17.5 290.6 21.4 290.1 19.5 290.8 C 19.5 290.8 19.5 290.8 19.5 290.8 Z M 18.3 292.7 C 19.1 292.6 16.9 293.6 18.3 292.7 M 20.8 293.5 C 21.4 291.9 21.8 296.4 20.8 293.5 C 20.8 293.5 20.8 293.5 20.8 293.5 Z M 26.7 288.4 C 26.8 288.4 26.8 288.4 26.7 288.4 C 26.7 288.4 26.7 288.4 26.7 288.4 Z M 23.0 285.8 C 24.0 284.9 22.6 286.7 23.0 285.8 C 23.0 285.8 23.0 285.8 23.0 285.8 Z M 14.4 293.8 C 15.4 292.9 14.1 294.7 14.4 293.8 C 14.4 293.8 14.4 293.8 14.4 293.8 Z M 28.9 284.1 C 30.3 282.4 28.5 285.7 28.9 284.1 C 28.9 284.1 28.9 284.1 28.9 284.1 Z M 33.3 277.1 C 33.4 277.1 33.4 277.1 33.3 277.1 C 33.3 277.1 33.3 277.1 33.3 277.1 Z M 34.0 275.6 C 34.0 275.6 34.0 275.6 34.0 275.6 C 34.0 275.6 34.0 275.6 34.0 275.6 Z M 39.5 272.3 C 39.6 272.3 39.6 272.3 39.5 272.3 C 39.5 272.3 39.5 272.3 39.5 272.3 Z M 34.4 274.1 C 34.4 274.1 34.4 274.1 34.4 274.1 C 34.4 274.1 34.4 274.1 34.4 274.1 Z M 37.8 271.3 C 37.9 271.3 37.9 271.3 37.8 271.3 C 37.8 271.3 37.8 271.3 37.8 271.3 Z M 36.4 270.8 C 36.5 270.8 36.5 270.8 36.4 270.8 C 36.4 270.8 36.4 270.8 36.4 270.8 Z M 34.3 282.4 C 34.4 282.4 34.4 282.4 34.3 282.4 C 34.3 282.4 34.3 282.4 34.3 282.4 Z M 18.6 289.2 C 18.8 289.2 18.8 289.2 18.6 289.2 C 18.6 289.2 18.6 289.2 18.6 289.2 Z M 37.9 272.0 C 38.0 272.0 38.0 272.0 37.9 272.0 C 37.9 272.0 37.9 272.0 37.9 272.0 Z M 31.3 280.4 C 32.2 281.3 29.4 279.8 31.4 280.2 C 31.4 280.2 31.1 280.3 31.3 280.4 M 33.8 280.9 C 33.8 281.0 33.8 281.0 33.8 280.9 C 33.8 280.9 33.8 280.9 33.8 280.9 Z M 31.0 284.9 C 31.0 285.0 31.0 285.0 31.0 284.9 C 31.0 284.9 31.0 284.9 31.0 284.9 Z M 33.7 274.5 C 33.0 274.1 34.9 274.0 33.6 274.6 M 41.2 273.9 C 40.5 273.5 42.4 273.5 41.1 274.1 M 13.7 295.3 C 14.0 295.8 12.8 295.7 13.7 295.3 M 30.7 286.2 C 31.0 286.7 29.9 286.6 30.7 286.2 M 31.1 283.4 C 30.5 283.0 32.4 282.9 31.0 283.5 M 38.8 276.2 C 38.9 276.2 38.9 276.2 38.8 276.2 C 38.8 276.2 38.8 276.2 38.8 276.2 Z M 24.5 284.4 C 24.6 284.4 24.6 284.4 24.5 284.4 C 24.5 284.4 24.5 284.4 24.5 284.4 Z M 29.8 281.4 C 28.5 281.2 31.0 281.1 29.8 281.4 M 24.6 286.9 C 22.8 286.8 26.2 285.9 24.6 286.9 M 43.2 272.3 C 41.2 272.2 44.4 272.2 43.2 272.3 M 35.9 274.2 C 33.9 274.1 37.2 274.1 35.9 274.2 M 25.8 284.1 C 25.2 283.6 27.1 283.5 25.8 284.1 M 15.8 293.0 C 14.8 293.8 16.5 291.4 15.8 293.0 M 36.6 278.5 C 36.7 278.5 36.7 278.5 36.6 278.5 C 36.6 278.5 36.6 278.5 36.6 278.5 Z M 22.7 294.2 C 22.8 294.2 22.8 294.2 22.7 294.2 C 22.7 294.2 22.7 294.2 22.7 294.2 Z M 40.8 267.7 C 40.9 267.6 40.9 267.6 40.8 267.7 C 40.8 267.7 40.8 267.7 40.8 267.7 Z M 35.8 275.3 C 36.0 275.3 36.0 275.3 35.8 275.3 C 35.8 275.3 35.8 275.3 35.8 275.3 Z M 38.9 269.3 C 39.1 269.3 39.1 269.3 38.9 269.3 C 38.9 269.3 38.9 269.3 38.9 269.3 Z M 33.8 279.0 C 33.8 279.0 33.8 279.0 33.8 279.0 C 33.8 279.0 33.8 279.0 33.8 279.0 Z M 30.5 276.9 C 30.5 276.9 30.5 276.9 30.5 276.9 C 30.5 276.9 30.5 276.9 30.5 276.9 Z M 28.5 281.2 C 28.6 281.2 28.6 281.2 28.5 281.2 C 28.5 281.2 28.5 281.2 28.5 281.2 Z M 32.1 275.6 C 33.9 273.6 32.1 277.5 32.1 275.6 C 32.1 275.6 32.1 275.6 32.1 275.6 Z M 31.6 281.6 C 31.7 281.6 31.7 281.6 31.6 281.6 C 31.6 281.6 31.6 281.6 31.6 281.6 Z M 29.4 280.0 C 29.8 278.0 31.4 280.6 29.4 280.0 M 23.5 284.6 C 23.5 283.8 24.4 285.0 23.5 284.6 M 25.0 290.2 C 25.1 290.3 25.1 290.3 25.0 290.2 C 25.0 290.2 25.0 290.2 25.0 290.2 Z M 25.3 289.4 C 25.4 289.4 25.4 289.4 25.3 289.4 C 25.3 289.4 25.3 289.4 25.3 289.4 Z M 22.1 285.7 C 22.1 285.7 22.1 285.7 22.1 285.7 C 22.1 285.7 22.1 285.7 22.1 285.7 Z M 26.4 290.3 C 26.5 290.3 26.5 290.3 26.4 290.3 C 26.4 290.3 26.4 290.3 26.4 290.3 Z M 29.8 277.7 C 29.9 277.6 29.9 277.6 29.8 277.7 C 29.8 277.7 29.8 277.7 29.8 277.7 Z M 39.5 268.0 C 39.5 268.0 39.5 268.0 39.5 268.0 C 39.5 268.0 39.5 268.0 39.5 268.0 Z M 18.9 295.6 C 19.0 295.6 19.0 295.6 18.9 295.6 C 18.9 295.6 18.9 295.6 18.9 295.6 Z M 31.9 277.7 C 32.0 277.7 32.0 277.7 31.9 277.7 C 31.9 277.7 31.9 277.7 31.9 277.7 Z M 23.5 291.4 C 23.6 291.4 23.6 291.4 23.5 291.4 C 23.5 291.4 23.5 291.4 23.5 291.4 Z M 31.1 278.1 C 31.1 278.1 31.1 278.1 31.1 278.1 C 31.1 278.1 31.1 278.1 31.1 278.1 Z M 36.5 279.0 C 36.6 279.0 36.6 279.0 36.5 279.0 C 36.5 279.0 36.5 279.0 36.5 279.0 Z M 39.2 277.6 C 39.2 277.6 39.2 277.6 39.2 277.6 C 39.2 277.6 39.2 277.6 39.2 277.6 Z M 34.5 277.3 C 34.5 277.3 34.5 277.3 34.5 277.3 C 34.5 277.3 34.5 277.3 34.5 277.3 Z M 21.6 290.9 C 16.9 293.8 24.2 287.5 21.6 290.9 M 35.3 276.9 C 32.5 279.3 36.4 273.7 35.3 276.9 C 35.3 276.3 35.3 276.8 35.3 276.9 M 41.3 266.3 C 41.2 268.4 42.2 269.3 43.7 269.9 C 44.8 269.9 42.7 267.9 44.5 269.6 C 43.6 271.1 47.6 271.6 45.3 269.4 C 46.7 267.4 47.0 270.5 47.1 268.7 C 48.6 266.7 48.4 268.3 49.6 266.8 C 49.2 264.8 51.0 266.6 50.2 265.1 C 50.8 267.0 51.3 263.3 51.9 263.8 C 51.4 265.8 56.6 259.2 53.0 262.0 C 53.7 260.1 54.5 261.4 55.1 261.1 C 55.0 259.8 57.8 259.5 57.9 258.0 C 57.6 258.0 57.2 258.4 56.8 258.2 C 56.1 258.0 57.8 257.4 57.7 257.5 C 57.9 256.7 59.3 253.9 58.3 257.4 C 58.8 258.1 59.9 255.3 60.3 255.9 C 62.3 254.0 59.7 254.2 61.4 254.3 C 62.8 252.9 63.8 251.9 63.7 251.7 C 64.7 251.0 65.5 251.5 65.6 250.1 C 68.6 249.7 64.3 246.4 67.5 248.3 C 67.4 247.2 69.6 248.4 67.9 246.9 C 68.0 248.2 72.1 245.2 69.4 245.6 C 69.4 244.8 73.6 244.6 71.7 243.3 C 71.3 241.3 70.0 240.3 67.2 240.9 C 68.3 241.6 64.4 241.8 67.3 242.1 C 69.3 241.1 65.1 245.3 65.4 243.9 C 63.8 241.8 64.6 247.1 62.4 246.6 C 63.8 246.6 60.8 250.4 60.4 248.0 C 59.6 248.5 60.2 249.4 58.7 249.2 C 60.8 247.3 59.3 251.5 58.6 250.5 C 58.4 249.6 55.0 252.2 56.1 252.7 C 59.1 253.6 54.9 253.1 55.1 254.4 C 53.9 256.5 53.7 252.5 53.9 255.1 C 53.3 255.2 51.1 257.5 52.1 255.7 C 52.8 255.3 52.9 259.1 51.0 257.7 C 52.5 254.4 47.8 259.9 49.1 259.6 C 53.7 256.8 46.2 264.5 48.2 260.8 C 45.7 261.5 48.3 259.9 46.7 262.3 C 47.5 262.6 46.4 264.7 45.7 263.2 C 43.8 262.0 47.3 265.9 43.9 265.0 C 42.8 264.3 42.1 268.1 42.0 266.2 C 41.9 266.1 41.4 266.2 41.3 266.3 M 42.3 265.7 C 42.3 266.3 41.4 265.7 42.3 265.7 M 42.3 266.4 C 42.2 266.4 42.2 266.4 42.3 266.4 C 42.3 266.4 42.3 266.4 42.3 266.4 Z M 46.4 262.7 C 46.4 262.7 46.4 262.7 46.4 262.7 C 46.4 262.7 46.4 262.7 46.4 262.7 Z M 53.5 263.5 C 53.4 263.5 53.4 263.5 53.5 263.5 C 53.5 263.5 53.5 263.5 53.5 263.5 Z M 49.1 260.2 C 49.1 260.2 49.1 260.2 49.1 260.2 C 49.1 260.2 49.1 260.2 49.1 260.2 Z M 45.3 264.3 C 45.3 264.4 45.3 264.4 45.3 264.3 C 45.3 264.3 45.3 264.3 45.3 264.3 Z M 48.3 259.8 C 49.1 260.2 47.0 260.3 48.3 259.7 C 48.4 259.7 48.2 259.9 48.3 259.8 M 51.5 256.2 C 51.6 256.3 51.6 256.3 51.5 256.2 M 63.6 253.3 C 63.7 253.3 63.7 253.3 63.6 253.3 M 59.6 248.0 C 59.7 248.0 59.7 248.0 59.6 248.0 M 55.5 253.4 C 56.5 252.3 56.0 253.4 55.5 253.4 M 62.7 245.6 C 61.0 246.6 63.7 243.9 62.7 245.6 M 63.6 244.0 C 63.8 243.9 63.8 243.9 63.6 244.0 M 57.9 250.1 C 57.9 250.2 57.9 250.2 57.9 250.1 C 57.9 250.1 57.9 250.1 57.9 250.1 Z M 54.8 253.6 C 53.1 254.7 55.6 251.7 54.8 253.6 M 46.3 261.7 C 46.8 260.6 47.1 262.4 46.3 261.7 M 45.1 263.5 C 45.1 263.6 45.1 263.6 45.1 263.5 C 45.1 263.5 45.1 263.5 45.1 263.5 Z M 60.5 247.7 C 60.5 247.8 60.5 247.8 60.5 247.7 C 60.5 247.7 60.5 247.7 60.5 247.7 Z M 61.9 246.1 C 61.9 246.1 61.9 246.1 61.9 246.1 C 61.9 246.1 61.9 246.1 61.9 246.1 Z M 68.7 247.9 C 68.7 247.9 68.7 247.9 68.7 247.9 C 68.7 247.9 68.7 247.9 68.7 247.9 Z M 48.1 264.2 C 46.8 264.9 47.7 261.7 48.5 263.0 C 49.1 263.3 48.1 264.0 48.1 264.2 M 55.1 255.9 C 56.8 257.1 52.1 254.9 55.1 255.9 M 64.7 244.8 C 67.5 245.5 62.2 244.8 64.7 244.8 M 66.5 242.4 C 67.4 242.2 62.9 246.5 65.5 242.9 C 65.5 242.3 66.1 242.4 66.5 242.4 M 52.3 256.9 C 53.4 257.4 50.3 258.1 52.3 256.9 M 61.0 253.0 C 60.9 252.0 61.8 250.3 62.1 251.7 C 63.2 252.9 60.8 254.1 61.0 253.0 M 43.4 266.2 C 42.9 264.1 44.5 267.4 43.4 266.2 M 47.5 262.4 C 47.4 262.3 47.4 262.3 47.5 262.4 C 47.5 262.4 47.5 262.4 47.5 262.4 Z M 48.8 260.6 C 49.0 260.7 49.0 260.7 48.8 260.6 M 42.9 264.5 C 43.1 264.5 43.1 264.5 42.9 264.5 M 59.6 251.7 C 59.8 251.7 59.8 251.7 59.6 251.7 M 55.5 254.0 C 58.3 253.8 55.0 255.1 55.5 254.0 M 54.3 260.2 C 55.3 260.4 53.4 261.3 54.3 260.2 M 57.5 251.1 C 59.8 251.2 57.2 253.7 57.5 251.1 M 54.6 254.7 C 54.7 254.6 54.7 254.6 54.6 254.7 C 54.6 254.7 54.6 254.7 54.6 254.7 Z M 61.5 252.8 C 61.5 252.8 61.5 252.8 61.5 252.8 C 61.5 252.8 61.5 252.8 61.5 252.8 Z M 61.9 252.2 C 61.9 252.3 61.9 252.3 61.9 252.2 C 61.9 252.2 61.9 252.2 61.9 252.2 Z M 58.7 249.6 C 58.7 249.7 58.7 249.7 58.7 249.6 C 58.7 249.6 58.7 249.6 58.7 249.6 Z M 48.4 267.0 C 49.6 266.0 47.7 268.0 48.4 267.0 C 48.4 267.0 48.4 267.0 48.4 267.0 Z M 49.6 258.6 C 52.3 257.8 49.2 260.8 49.6 258.6 C 49.6 258.6 49.6 258.6 49.6 258.6 Z M 53.2 258.2 C 53.3 258.2 53.3 258.2 53.2 258.2 C 53.2 258.2 53.2 258.2 53.2 258.2 Z M 56.1 251.0 C 56.2 251.1 56.2 251.1 56.1 251.0 C 56.1 251.0 56.1 251.0 56.1 251.0 Z M 49.1 266.6 C 49.2 266.7 49.2 266.7 49.1 266.6 C 49.1 266.6 49.1 266.6 49.1 266.6 Z M 62.5 247.2 C 62.5 247.2 62.5 247.2 62.5 247.2 C 62.5 247.2 62.5 247.2 62.5 247.2 Z M 58.7 255.9 C 58.7 255.0 59.2 256.2 58.7 255.9 C 58.7 255.9 58.7 255.9 58.7 255.9 Z M 60.4 254.3 C 60.4 254.2 60.4 254.2 60.4 254.3 C 60.4 254.3 60.4 254.3 60.4 254.3 Z M 63.9 243.5 C 63.9 243.5 63.9 243.5 63.9 243.5 C 63.9 243.5 63.9 243.5 63.9 243.5 Z M 65.6 251.3 C 65.7 251.3 65.7 251.3 65.6 251.3 C 65.6 251.3 65.6 251.3 65.6 251.3 Z M 65.6 248.5 C 65.6 248.6 65.6 248.6 65.6 248.5 C 65.6 248.5 65.6 248.5 65.6 248.5 Z M 58.7 250.2 C 60.1 248.3 58.9 251.1 58.7 250.2 C 58.7 250.2 58.7 250.2 58.7 250.2 Z M 69.2 244.1 C 69.3 244.2 69.3 244.2 69.2 244.1 C 69.2 244.1 69.2 244.1 69.2 244.1 Z M 68.3 241.6 C 68.4 241.7 68.4 241.7 68.3 241.6 C 68.3 241.6 68.3 241.6 68.3 241.6 Z M 67.8 240.4 C 68.0 240.4 68.0 240.4 67.8 240.4 C 67.8 240.4 67.8 240.4 67.8 240.4 Z M 50.6 262.4 C 50.5 262.4 50.5 262.4 50.6 262.4 C 50.6 262.4 50.6 262.4 50.6 262.4 Z M 47.2 260.4 C 47.2 260.4 47.2 260.4 47.2 260.4 C 47.2 260.4 47.2 260.4 47.2 260.4 Z M 49.3 258.1 C 49.3 258.1 49.3 258.1 49.3 258.1 C 49.3 258.1 49.3 258.1 49.3 258.1 Z M 51.8 264.5 C 51.8 264.5 51.8 264.5 51.8 264.5 C 51.8 264.5 51.8 264.5 51.8 264.5 Z M 57.7 254.0 C 57.6 254.0 57.6 254.0 57.7 254.0 C 57.7 254.0 57.7 254.0 57.7 254.0 Z M 59.6 254.3 C 59.5 254.3 59.5 254.3 59.6 254.3 C 59.6 254.3 59.6 254.3 59.6 254.3 Z M 59.2 257.6 C 59.1 257.6 59.1 257.6 59.2 257.6 C 59.2 257.6 59.2 257.6 59.2 257.6 Z M 61.1 254.7 C 61.1 254.6 61.1 254.6 61.1 254.7 C 61.1 254.7 61.1 254.7 61.1 254.7 Z M 45.8 269.5 C 45.8 269.5 45.8 269.5 45.8 269.5 C 45.8 269.5 45.8 269.5 45.8 269.5 Z M 43.6 267.6 C 43.6 267.7 43.6 267.7 43.6 267.6 C 43.6 267.6 43.6 267.6 43.6 267.6 Z M 56.5 252.2 C 56.4 251.4 57.8 252.1 56.5 252.2 M 53.6 255.6 C 53.6 255.7 53.6 255.7 53.6 255.6 C 53.6 255.6 53.6 255.6 53.6 255.6 Z M 61.8 247.0 C 63.0 247.5 59.9 248.1 61.8 247.0 C 61.8 247.0 61.8 247.0 61.8 247.0 Z M 63.6 252.2 C 63.7 252.1 63.7 252.1 63.6 252.2 C 63.6 252.2 63.6 252.2 63.6 252.2 Z M 64.1 251.0 C 64.2 251.0 64.2 251.0 64.1 251.0 C 64.1 251.0 64.1 251.0 64.1 251.0 Z M 66.4 244.2 C 66.5 244.2 66.5 244.2 66.4 244.2 M 52.5 255.3 C 53.3 255.2 53.1 255.2 52.5 255.3 M 62.9 246.0 C 62.9 246.1 62.9 246.1 62.9 246.0 C 62.9 246.0 62.9 246.0 62.9 246.0 Z M 66.9 242.8 C 66.9 242.8 66.9 242.8 66.9 242.8 C 66.9 242.8 66.9 242.8 66.9 242.8 Z M 50.8 258.0 C 51.9 259.0 51.2 259.2 50.8 258.0 M 44.9 264.6 C 45.0 264.6 45.0 264.6 44.9 264.6 C 44.9 264.6 44.9 264.6 44.9 264.6 Z M 71.1 237.1 C 68.3 237.7 69.9 239.3 69.9 239.3 C 68.0 237.0 69.3 241.6 70.0 241.7 C 70.2 242.1 75.2 244.4 74.2 241.0 C 74.2 240.4 75.1 240.9 75.3 240.7 C 77.3 238.5 72.8 241.0 75.3 238.4 C 76.0 238.3 77.3 240.6 77.6 237.9 C 77.8 238.0 80.1 236.9 78.7 236.7 C 80.3 236.8 79.8 235.3 80.4 234.3 C 81.6 234.1 81.1 236.2 82.6 232.7 C 85.1 233.2 82.9 230.3 85.5 230.9 C 86.1 230.3 84.4 226.8 84.5 229.7 C 84.5 229.3 82.4 229.0 84.8 227.5 C 84.8 228.1 86.4 231.8 88.2 227.5 C 88.7 227.1 89.2 225.3 89.8 225.3 C 88.5 227.1 93.1 224.3 91.9 223.9 C 94.9 222.0 92.3 222.2 94.9 221.4 C 96.4 220.0 93.2 220.6 95.7 219.6 C 96.9 218.1 96.7 219.6 96.5 219.7 C 97.8 218.7 97.7 217.8 98.2 217.4 C 98.6 217.3 99.6 217.3 99.3 216.4 C 99.3 214.0 96.9 213.9 96.3 212.1 C 94.8 212.4 96.8 213.4 95.3 213.1 C 95.6 214.3 95.1 213.1 92.9 215.8 C 93.1 215.9 94.2 215.8 93.7 216.5 C 92.7 217.3 91.3 214.6 91.2 217.6 C 93.5 216.2 89.2 220.9 91.4 219.6 C 89.5 222.0 90.6 220.1 88.5 221.1 C 90.0 222.4 86.9 219.8 87.5 221.5 C 86.7 221.0 84.5 223.7 87.1 222.8 C 85.0 225.7 85.8 223.3 84.2 223.5 C 82.9 224.6 86.3 225.9 83.9 224.9 C 81.6 225.6 84.6 225.8 82.2 225.6 C 83.9 226.3 81.1 226.7 82.8 227.6 C 80.3 230.3 81.7 225.9 80.8 228.6 C 81.4 228.1 79.5 226.6 79.5 228.8 C 82.0 230.4 76.2 228.5 79.7 230.4 C 76.8 234.8 78.0 229.9 76.0 231.9 C 75.5 232.4 77.4 232.2 77.0 232.7 C 74.0 234.9 75.4 232.0 75.4 234.7 C 73.2 237.6 73.5 234.3 72.2 235.5 C 72.7 236.2 72.8 238.3 71.1 237.1 M 74.1 235.5 C 74.2 234.5 74.8 235.6 74.1 235.5 M 68.3 240.0 C 68.4 239.0 69.1 240.1 68.3 240.0 M 75.8 233.0 C 76.0 231.8 76.7 233.5 75.8 233.0 M 90.2 219.9 C 89.2 220.8 90.2 219.1 90.2 219.9 M 70.3 237.8 C 70.5 236.6 71.2 238.4 70.3 237.8 M 70.4 239.8 C 70.4 239.8 70.4 239.8 70.4 239.8 M 90.4 217.4 C 90.5 217.4 90.5 217.4 90.4 217.4 M 86.7 221.1 C 87.5 220.4 86.6 221.8 86.7 221.1 M 91.0 225.7 C 91.8 224.9 90.8 226.4 91.0 225.7 M 92.4 215.4 C 92.8 214.3 93.1 215.6 92.4 215.4 M 95.4 214.3 C 95.7 213.2 96.3 214.3 95.4 214.3 M 75.1 237.5 C 75.2 237.5 75.2 237.5 75.1 237.5 C 75.1 237.5 75.1 237.5 75.1 237.5 Z M 83.0 231.8 C 81.7 232.2 84.5 231.4 83.0 231.8 M 78.8 230.2 C 80.3 230.5 77.7 231.2 78.8 230.2 C 78.8 230.2 78.8 230.2 78.8 230.2 Z M 78.1 231.8 C 78.1 231.8 78.1 231.8 78.1 231.8 C 78.1 231.8 78.1 231.8 78.1 231.8 Z M 81.9 228.0 C 81.9 228.1 81.9 228.1 81.9 228.0 C 81.9 228.0 81.9 228.0 81.9 228.0 Z M 81.2 228.9 C 81.1 229.4 80.6 229.1 81.2 228.9 C 81.2 228.9 81.2 228.9 81.2 228.9 Z M 89.6 226.2 C 89.5 226.7 89.0 226.4 89.6 226.2 C 89.6 226.2 89.6 226.2 89.6 226.2 Z M 80.3 230.4 C 81.1 231.4 79.2 230.3 80.3 230.4 C 80.3 230.4 80.3 230.4 80.3 230.4 Z M 86.6 228.4 C 86.7 227.9 88.1 228.6 86.6 228.4 M 91.4 216.8 C 91.5 216.3 92.9 217.0 91.4 216.8 M 83.0 224.6 C 83.1 224.1 84.6 224.8 83.0 224.6 M 74.1 234.6 C 74.3 234.7 74.3 234.7 74.1 234.6 M 82.5 234.1 C 82.7 233.2 83.1 234.2 82.5 234.1 M 74.6 241.4 C 74.8 240.5 75.2 241.5 74.6 241.4 M 94.4 222.1 C 94.1 221.9 95.3 221.4 94.4 222.1 M 85.4 225.1 C 86.2 224.5 87.5 224.3 85.9 225.7 C 85.6 225.6 85.9 225.0 85.4 225.1 C 85.4 225.1 85.4 225.1 85.4 225.1 Z M 90.0 224.7 C 90.2 224.6 90.2 224.6 90.0 224.7 M 85.9 223.0 C 86.0 223.0 86.0 223.0 85.9 223.0 M 90.1 219.0 C 90.3 219.0 90.3 219.0 90.1 219.0 M 90.3 218.2 C 90.3 218.3 90.3 218.3 90.3 218.2 C 90.3 218.2 90.3 218.2 90.3 218.2 Z M 94.5 213.3 C 94.5 213.4 94.5 213.4 94.5 213.3 C 94.5 213.3 94.5 213.3 94.5 213.3 Z M 88.9 220.4 C 88.9 220.5 88.9 220.5 88.9 220.4 C 88.9 220.4 88.9 220.4 88.9 220.4 Z M 96.0 220.1 C 96.1 220.2 96.1 220.2 96.0 220.1 C 96.0 220.1 96.0 220.1 96.0 220.1 Z M 95.0 220.1 C 95.1 220.1 95.1 220.1 95.0 220.1 C 95.0 220.1 95.0 220.1 95.0 220.1 Z M 71.5 236.7 C 71.5 235.5 73.4 238.0 71.5 236.7 M 97.0 218.1 C 98.2 218.1 96.1 219.2 97.0 218.1 C 97.0 218.1 97.0 218.1 97.0 218.1 Z M 89.1 221.7 C 89.3 221.7 89.3 221.7 89.1 221.7 M 90.7 218.1 C 90.8 218.1 90.8 218.1 90.7 218.1 M 78.0 229.4 C 78.2 229.4 78.2 229.4 78.0 229.4 M 94.0 215.1 C 96.2 213.3 94.4 217.2 94.0 215.1 M 78.0 231.1 C 77.8 231.1 77.8 231.1 78.0 231.1 M 84.0 228.5 C 85.2 227.1 84.0 229.4 84.0 228.5 M 86.1 224.1 C 86.1 224.1 86.1 224.1 86.1 224.1 C 86.1 224.1 86.1 224.1 86.1 224.1 Z M 84.2 226.0 C 83.4 227.0 83.7 226.0 84.2 226.0 C 84.2 226.0 84.2 226.0 84.2 226.0 Z M 73.2 236.7 C 74.6 235.6 72.3 238.2 73.2 236.7 C 73.2 236.7 73.2 236.7 73.2 236.7 Z M 95.2 218.0 C 95.3 218.1 95.3 218.1 95.2 218.0 C 95.2 218.0 95.2 218.0 95.2 218.0 Z M 88.0 220.0 C 87.7 220.8 87.5 220.0 88.0 220.0 C 88.0 220.0 88.0 220.0 88.0 220.0 Z M 95.2 212.7 C 94.8 213.5 94.6 212.7 95.2 212.7 C 95.2 212.7 95.2 212.7 95.2 212.7 Z M 71.6 238.0 C 77.6 235.0 65.3 243.5 71.6 238.0 C 71.6 238.0 71.6 238.0 71.6 238.0 Z M 84.4 224.6 C 84.4 224.7 84.4 224.7 84.4 224.6 C 84.4 224.6 84.4 224.6 84.4 224.6 Z M 75.5 232.2 C 75.5 232.3 75.5 232.3 75.5 232.2 C 75.5 232.2 75.5 232.2 75.5 232.2 Z M 74.9 234.4 C 74.9 234.5 74.9 234.5 74.9 234.4 C 74.9 234.4 74.9 234.4 74.9 234.4 Z M 78.8 237.6 C 78.9 237.6 78.9 237.6 78.8 237.6 C 78.8 237.6 78.8 237.6 78.8 237.6 Z M 77.7 235.5 C 77.7 235.6 77.7 235.6 77.7 235.5 C 77.7 235.5 77.7 235.5 77.7 235.5 Z M 75.4 238.9 C 75.5 239.0 75.5 239.0 75.4 238.9 C 75.4 238.9 75.4 238.9 75.4 238.9 Z M 76.0 239.4 C 76.0 239.4 76.0 239.4 76.0 239.4 C 76.0 239.4 76.0 239.4 76.0 239.4 Z M 91.7 219.0 C 91.7 219.2 91.7 219.2 91.7 219.0 C 91.7 219.0 91.7 219.0 91.7 219.0 Z M 91.6 222.1 C 92.1 220.5 92.0 223.1 91.6 222.1 C 91.6 222.1 91.6 222.1 91.6 222.1 Z M 81.7 230.6 C 82.4 229.4 81.5 231.6 81.7 230.6 C 81.7 230.6 81.7 230.6 81.7 230.6 Z M 84.6 231.4 C 84.6 231.4 84.6 231.4 84.6 231.4 C 84.6 231.4 84.6 231.4 84.6 231.4 Z M 74.1 233.6 C 74.1 233.7 74.1 233.7 74.1 233.6 C 74.1 233.6 74.1 233.6 74.1 233.6 Z M 72.9 235.9 C 73.6 236.7 72.0 236.1 72.9 235.9 M 81.3 226.7 C 81.4 226.8 81.4 226.8 81.3 226.7 C 81.3 226.7 81.3 226.7 81.3 226.7 Z M 88.1 222.2 C 88.1 222.3 88.1 222.3 88.1 222.2 C 88.1 222.2 88.1 222.2 88.1 222.2 Z M 93.2 216.2 C 93.2 216.3 93.2 216.3 93.2 216.2 C 93.2 216.2 93.2 216.2 93.2 216.2 Z M 84.9 223.3 C 85.0 223.4 85.0 223.4 84.9 223.3 C 84.9 223.3 84.9 223.3 84.9 223.3 Z M 82.9 226.6 C 83.0 226.7 83.0 226.7 82.9 226.6 C 82.9 226.6 82.9 226.6 82.9 226.6 Z M 95.4 216.0 C 95.4 216.1 95.4 216.1 95.4 216.0 C 95.4 216.0 95.4 216.0 95.4 216.0 Z M 85.4 222.6 C 85.4 222.6 85.4 222.6 85.4 222.6 C 85.4 222.6 85.4 222.6 85.4 222.6 Z M 89.4 223.3 C 89.4 223.4 89.4 223.4 89.4 223.3 C 89.4 223.3 89.4 223.3 89.4 223.3 Z M 72.1 234.6 C 72.1 234.7 72.1 234.7 72.1 234.6 C 72.1 234.6 72.1 234.6 72.1 234.6 Z M 94.5 215.0 C 94.5 215.0 94.5 215.0 94.5 215.0 C 94.5 215.0 94.5 215.0 94.5 215.0 Z M 94.2 214.0 C 94.2 214.0 94.2 214.0 94.2 214.0 C 94.2 214.0 94.2 214.0 94.2 214.0 Z M 93.8 221.4 C 91.4 223.0 95.4 219.5 93.1 220.1 C 95.7 217.1 94.2 221.1 93.8 221.4 C 93.8 221.4 93.8 221.4 93.8 221.4 Z M 96.5 211.1 C 96.4 213.2 97.4 214.1 98.9 214.7 C 100.0 214.7 97.9 212.7 99.7 214.4 C 98.7 215.9 102.7 216.4 100.5 214.2 C 101.9 212.3 102.2 215.3 102.3 213.5 C 103.8 211.5 103.6 213.1 104.8 211.6 C 104.4 209.6 106.2 211.4 105.4 209.9 C 105.9 211.8 106.5 208.1 107.1 208.6 C 106.6 210.6 111.8 204.0 108.2 206.8 C 108.9 205.0 109.7 206.2 110.3 205.9 C 110.1 204.6 113.0 204.4 113.1 202.8 C 112.8 202.8 112.3 203.2 112.0 203.1 C 111.3 202.8 113.0 202.3 112.8 202.3 C 113.1 201.5 114.5 198.7 113.5 202.2 C 114.0 202.9 115.1 200.1 115.5 200.7 C 117.5 198.8 114.8 199.1 116.6 199.1 C 118.0 197.7 119.0 196.7 118.9 196.6 C 119.9 195.8 120.7 196.3 120.8 194.9 C 123.8 194.5 119.5 191.2 122.7 193.1 C 122.6 192.0 124.7 193.2 123.1 191.7 C 123.2 193.0 127.2 190.0 124.6 190.4 C 124.6 189.6 128.8 189.4 126.9 188.1 C 126.5 186.2 125.2 185.1 122.4 185.7 C 123.5 186.5 119.6 186.6 122.5 186.9 C 124.5 185.9 120.3 190.2 120.6 188.7 C 119.0 186.6 119.8 191.9 117.6 191.4 C 119.0 191.5 116.0 195.2 115.6 192.8 C 114.8 193.4 115.4 194.2 113.8 194.1 C 116.0 192.1 114.5 196.3 113.8 195.3 C 113.6 194.4 110.2 197.1 111.3 197.5 C 114.2 198.4 110.1 197.9 110.3 199.2 C 109.1 201.3 108.9 197.3 109.1 200.0 C 108.5 200.1 106.3 202.3 107.3 200.5 C 108.0 200.1 108.1 203.9 106.2 202.5 C 107.7 199.2 103.0 204.7 104.3 204.4 C 108.8 201.7 101.4 209.3 103.4 205.6 C 100.8 206.3 103.5 204.7 101.9 207.2 C 102.7 207.4 101.6 209.5 100.9 208.1 C 99.0 206.8 102.4 210.7 99.1 209.8 C 98.0 209.1 97.3 212.9 97.2 211.0 C 97.1 210.9 96.6 211.0 96.5 211.1 M 97.4 210.5 C 97.5 211.2 96.6 210.6 97.4 210.5 M 97.5 211.2 C 97.4 211.2 97.4 211.2 97.5 211.2 C 97.5 211.2 97.5 211.2 97.5 211.2 Z M 101.6 207.5 C 101.6 207.5 101.6 207.5 101.6 207.5 C 101.6 207.5 101.6 207.5 101.6 207.5 Z M 108.6 208.3 C 108.6 208.3 108.6 208.3 108.6 208.3 C 108.6 208.3 108.6 208.3 108.6 208.3 Z M 104.3 205.0 C 104.3 205.0 104.3 205.0 104.3 205.0 C 104.3 205.0 104.3 205.0 104.3 205.0 Z M 100.5 209.1 C 100.4 209.2 100.4 209.2 100.5 209.1 C 100.5 209.1 100.5 209.1 100.5 209.1 Z M 103.5 204.7 C 104.3 205.0 102.2 205.1 103.5 204.5 C 103.5 204.5 103.4 204.7 103.5 204.7 M 106.7 201.0 C 106.8 201.1 106.8 201.1 106.7 201.0 M 118.8 198.1 C 118.9 198.2 118.9 198.2 118.8 198.1 M 114.8 192.9 C 114.9 192.8 114.9 192.8 114.8 192.9 M 110.7 198.2 C 111.6 197.1 111.2 198.3 110.7 198.2 M 117.8 190.4 C 116.2 191.4 118.9 188.7 117.8 190.4 M 118.8 188.8 C 118.9 188.8 118.9 188.8 118.8 188.8 M 113.1 195.0 C 113.1 195.0 113.1 195.0 113.1 195.0 C 113.1 195.0 113.1 195.0 113.1 195.0 Z M 110.0 198.4 C 108.3 199.5 110.8 196.5 110.0 198.4 M 101.5 206.5 C 102.0 205.4 102.3 207.2 101.5 206.5 M 100.3 208.4 C 100.3 208.4 100.3 208.4 100.3 208.4 C 100.3 208.4 100.3 208.4 100.3 208.4 Z M 115.7 192.5 C 115.7 192.6 115.7 192.6 115.7 192.5 C 115.7 192.5 115.7 192.5 115.7 192.5 Z M 117.1 190.9 C 117.1 191.0 117.1 191.0 117.1 190.9 C 117.1 190.9 117.1 190.9 117.1 190.9 Z M 123.9 192.7 C 123.9 192.7 123.9 192.7 123.9 192.7 C 123.9 192.7 123.9 192.7 123.9 192.7 Z M 103.2 209.0 C 101.9 209.7 102.9 206.6 103.7 207.8 C 104.3 208.1 103.3 208.8 103.2 209.0 M 110.3 200.7 C 112.0 201.9 107.3 199.7 110.3 200.7 M 119.9 189.6 C 122.7 190.3 117.4 189.6 119.9 189.6 M 121.7 187.2 C 122.6 187.0 118.0 191.3 120.7 187.7 C 120.7 187.1 121.3 187.3 121.7 187.2 M 107.4 201.7 C 108.6 202.2 105.5 202.9 107.4 201.7 M 116.1 197.8 C 116.1 196.8 117.0 195.1 117.3 196.5 C 118.4 197.7 116.0 198.9 116.1 197.8 M 98.6 211.1 C 98.1 208.9 99.6 212.2 98.6 211.1 M 102.7 207.2 C 102.6 207.1 102.6 207.1 102.7 207.2 C 102.7 207.2 102.7 207.2 102.7 207.2 Z M 104.0 205.4 C 104.2 205.5 104.2 205.5 104.0 205.4 M 98.1 209.3 C 98.2 209.3 98.2 209.3 98.1 209.3 M 114.8 196.5 C 114.9 196.6 114.9 196.6 114.8 196.5 M 110.7 198.9 C 113.5 198.6 110.2 199.9 110.7 198.9 M 109.4 205.1 C 110.5 205.2 108.5 206.1 109.4 205.1 M 112.7 195.9 C 115.0 196.0 112.4 198.5 112.7 195.9 M 109.8 199.5 C 109.9 199.4 109.9 199.4 109.8 199.5 C 109.8 199.5 109.8 199.5 109.8 199.5 Z M 116.7 197.6 C 116.7 197.6 116.7 197.6 116.7 197.6 C 116.7 197.6 116.7 197.6 116.7 197.6 Z M 117.1 197.1 C 117.1 197.1 117.1 197.1 117.1 197.1 C 117.1 197.1 117.1 197.1 117.1 197.1 Z M 113.9 194.4 C 113.9 194.5 113.9 194.5 113.9 194.4 C 113.9 194.4 113.9 194.4 113.9 194.4 Z M 103.6 211.8 C 104.7 210.8 102.9 212.9 103.6 211.8 C 103.6 211.8 103.6 211.8 103.6 211.8 Z M 104.8 203.4 C 107.5 202.6 104.4 205.6 104.8 203.4 C 104.8 203.4 104.8 203.4 104.8 203.4 Z M 108.4 203.0 C 108.5 203.1 108.5 203.1 108.4 203.0 C 108.4 203.0 108.4 203.0 108.4 203.0 Z M 111.3 195.8 C 111.4 195.9 111.4 195.9 111.3 195.8 C 111.3 195.8 111.3 195.8 111.3 195.8 Z M 104.3 211.4 C 104.3 211.5 104.3 211.5 104.3 211.4 C 104.3 211.4 104.3 211.4 104.3 211.4 Z M 117.6 192.0 C 117.7 192.1 117.7 192.1 117.6 192.0 C 117.6 192.0 117.6 192.0 117.6 192.0 Z M 113.9 200.7 C 113.9 199.8 114.4 201.0 113.9 200.7 C 113.9 200.7 113.9 200.7 113.9 200.7 Z M 115.6 199.1 C 115.6 199.0 115.6 199.0 115.6 199.1 C 115.6 199.1 115.6 199.1 115.6 199.1 Z M 119.1 188.3 C 119.1 188.3 119.1 188.3 119.1 188.3 C 119.1 188.3 119.1 188.3 119.1 188.3 Z M 120.8 196.1 C 120.9 196.1 120.9 196.1 120.8 196.1 C 120.8 196.1 120.8 196.1 120.8 196.1 Z M 120.8 193.3 C 120.7 193.4 120.7 193.4 120.8 193.3 C 120.8 193.3 120.8 193.3 120.8 193.3 Z M 113.9 195.0 C 115.3 193.1 114.1 195.9 113.9 195.0 C 113.9 195.0 113.9 195.0 113.9 195.0 Z M 124.4 189.0 C 124.5 189.0 124.5 189.0 124.4 189.0 C 124.4 189.0 124.4 189.0 124.4 189.0 Z M 123.5 186.5 C 123.6 186.5 123.6 186.5 123.5 186.5 C 123.5 186.5 123.5 186.5 123.5 186.5 Z M 123.0 185.2 C 123.2 185.2 123.2 185.2 123.0 185.2 C 123.0 185.2 123.0 185.2 123.0 185.2 Z M 105.8 207.3 C 105.7 207.2 105.7 207.2 105.8 207.3 C 105.8 207.3 105.8 207.3 105.8 207.3 Z M 102.4 205.2 C 102.4 205.2 102.4 205.2 102.4 205.2 C 102.4 205.2 102.4 205.2 102.4 205.2 Z M 104.5 202.9 C 104.4 202.9 104.4 202.9 104.5 202.9 C 104.5 202.9 104.5 202.9 104.5 202.9 Z M 107.0 209.3 C 106.9 209.3 106.9 209.3 107.0 209.3 C 107.0 209.3 107.0 209.3 107.0 209.3 Z M 112.9 198.8 C 112.8 198.8 112.8 198.8 112.9 198.8 C 112.9 198.8 112.9 198.8 112.9 198.8 Z M 114.8 199.1 C 114.7 199.1 114.7 199.1 114.8 199.1 C 114.8 199.1 114.8 199.1 114.8 199.1 Z M 114.3 202.5 C 114.3 202.5 114.3 202.5 114.3 202.5 C 114.3 202.5 114.3 202.5 114.3 202.5 Z M 116.3 199.5 C 116.3 199.5 116.3 199.5 116.3 199.5 C 116.3 199.5 116.3 199.5 116.3 199.5 Z M 101.0 214.3 C 101.0 214.3 101.0 214.3 101.0 214.3 C 101.0 214.3 101.0 214.3 101.0 214.3 Z M 98.8 212.4 C 98.8 212.5 98.8 212.5 98.8 212.4 C 98.8 212.4 98.8 212.4 98.8 212.4 Z M 111.6 197.0 C 111.6 196.2 113.0 196.9 111.6 197.0 M 108.8 200.4 C 108.8 200.5 108.8 200.5 108.8 200.4 C 108.8 200.4 108.8 200.4 108.8 200.4 Z M 117.0 191.9 C 118.2 192.3 115.1 192.9 117.0 191.9 C 117.0 191.9 117.0 191.9 117.0 191.9 Z M 118.8 197.0 C 118.8 197.0 118.8 197.0 118.8 197.0 C 118.8 197.0 118.8 197.0 118.8 197.0 Z M 119.3 195.8 C 119.4 195.8 119.4 195.8 119.3 195.8 C 119.3 195.8 119.3 195.8 119.3 195.8 Z M 121.5 189.0 C 121.7 189.0 121.7 189.0 121.5 189.0 M 107.7 200.1 C 108.5 200.0 108.3 200.0 107.7 200.1 M 118.1 190.8 C 118.0 190.9 118.0 190.9 118.1 190.8 C 118.1 190.8 118.1 190.8 118.1 190.8 Z M 122.1 187.6 C 122.1 187.7 122.1 187.7 122.1 187.6 C 122.1 187.6 122.1 187.6 122.1 187.6 Z M 106.0 202.9 C 107.1 203.8 106.4 204.0 106.0 202.9 M 100.1 209.4 C 100.2 209.5 100.2 209.5 100.1 209.4 C 100.1 209.4 100.1 209.4 100.1 209.4 Z M 100.1 209.4 " fill="#71AFE1"></path></g></g><g><clipPath id="clip-38"><path d="M 140.1 133.3 L 7.0 0.1 L 0.6 6.5 L 133.8 139.7 Z M 140.1 133.3 "></path></clipPath><g clip-path="url(#clip-38)"><path d="M 123.9 125.9 C 124.3 126.0 124.7 126.8 125.0 126.8 M 123.9 125.9 C 123.6 127.4 124.6 128.6 125.9 130.2 C 127.5 131.8 126.7 129.3 127.3 129.1 C 129.7 130.8 129.0 131.5 127.8 132.1 C 129.2 132.3 130.4 135.8 131.1 134.1 C 127.8 130.8 133.7 136.1 131.7 132.6 C 131.6 132.1 132.7 132.6 133.0 132.9 C 132.6 131.5 134.8 132.5 133.6 130.6 C 134.2 129.7 134.1 130.3 133.8 128.7 C 133.5 128.2 133.4 128.7 133.3 128.9 C 132.2 129.6 132.6 127.2 131.3 127.0 C 131.8 125.2 129.7 125.8 129.8 126.9 C 129.2 126.1 129.6 124.1 128.1 124.2 C 128.2 123.2 126.0 121.7 126.4 123.6 C 126.7 124.9 125.4 124.3 125.0 124.5 C 125.1 125.0 126.6 125.8 126.5 126.2 C 126.0 126.0 124.1 125.0 125.7 126.5 C 124.8 126.4 125.3 127.4 123.9 125.9 C 123.9 125.9 123.9 125.9 123.9 125.9 Z M 128.9 132.2 C 128.6 132.5 128.3 131.7 128.9 132.2 C 128.9 132.2 128.9 132.2 128.9 132.2 Z M 129.2 124.2 C 128.9 124.5 128.7 123.6 129.2 124.2 C 129.2 124.2 129.2 124.2 129.2 124.2 Z M 133.0 128.6 C 132.7 128.9 132.5 128.1 133.0 128.6 C 133.0 128.6 133.0 128.6 133.0 128.6 Z M 127.6 130.5 C 127.0 129.4 128.8 130.8 128.6 131.2 C 128.5 131.0 127.6 131.0 127.6 130.5 C 127.6 130.5 127.6 130.5 127.6 130.5 Z M 129.3 128.6 C 129.1 128.6 128.7 128.3 129.1 128.0 C 129.4 128.2 129.5 128.5 129.3 128.6 C 129.3 128.6 129.3 128.6 129.3 128.6 Z M 132.4 134.2 C 132.2 134.3 131.8 134.0 132.2 133.7 C 132.5 133.8 132.6 134.2 132.4 134.2 C 132.4 134.2 132.4 134.2 132.4 134.2 Z M 127.4 128.7 C 127.3 128.4 127.5 128.0 127.8 128.3 C 127.8 128.5 128.3 129.2 127.4 128.7 C 127.4 128.7 127.4 128.7 127.4 128.7 Z M 125.0 128.4 C 124.4 127.5 126.4 128.5 126.2 128.6 C 126.2 129.1 125.2 129.0 125.0 128.4 C 125.0 128.4 125.0 128.4 125.0 128.4 Z M 127.4 127.8 C 127.0 127.1 127.9 127.9 127.4 127.8 C 127.4 127.8 127.4 127.8 127.4 127.8 Z M 134.1 131.3 C 133.7 130.6 134.6 131.4 134.1 131.3 C 134.1 131.3 134.1 131.3 134.1 131.3 Z M 131.9 127.1 C 131.4 126.4 132.3 127.2 131.9 127.1 C 131.9 127.1 131.9 127.1 131.9 127.1 Z M 129.9 131.5 C 130.9 132.6 129.2 132.5 129.9 131.5 C 129.9 131.5 129.9 131.5 129.9 131.5 Z M 123.2 126.7 C 124.3 127.8 122.6 127.7 123.2 126.7 C 123.2 126.7 123.2 126.7 123.2 126.7 Z M 6.7 9.6 C 5.5 8.8 8.3 13.6 8.1 11.0 C 8.7 9.5 11.2 12.2 9.6 12.5 C 10.2 13.4 10.2 13.4 11.1 13.4 C 10.5 14.2 11.9 16.4 12.9 16.6 C 13.9 16.4 11.8 15.4 13.5 15.7 C 15.9 17.8 14.0 14.9 15.7 14.9 C 15.8 15.0 15.5 15.4 15.9 15.4 C 16.7 14.7 16.0 12.8 17.2 12.8 C 16.7 12.6 16.0 10.1 15.9 11.5 C 15.4 12.5 15.1 8.8 14.0 10.2 C 14.0 9.1 12.7 9.3 12.9 8.1 C 12.6 7.6 12.0 8.2 11.9 8.4 C 11.3 9.1 12.7 6.7 11.0 7.1 C 11.3 6.7 9.3 5.0 10.2 6.8 C 9.9 6.3 8.1 4.0 8.1 6.2 C 9.1 8.1 5.5 5.8 7.2 7.6 C 8.3 9.0 8.8 9.0 7.3 8.6 C 7.0 8.3 5.4 6.9 6.2 8.6 C 6.7 8.8 7.2 9.5 6.7 9.6 C 6.7 9.6 6.7 9.6 6.7 9.6 Z M 8.0 7.7 C 8.8 8.4 7.7 8.2 8.0 7.7 C 8.0 7.7 8.0 7.7 8.0 7.7 Z M 13.2 8.0 C 14.0 8.7 12.9 8.5 13.2 8.0 C 13.2 8.0 13.2 8.0 13.2 8.0 Z M 8.8 12.2 C 9.5 12.3 8.4 13.5 8.8 12.2 C 8.8 12.2 8.8 12.2 8.8 12.2 Z M 11.1 7.6 C 11.1 7.7 10.8 7.7 10.6 7.6 C 10.7 7.6 11.0 7.6 11.1 7.6 C 11.1 7.6 11.1 7.6 11.1 7.6 Z M 10.0 13.5 C 11.7 14.1 9.4 14.6 10.0 13.5 C 10.0 13.5 10.0 13.5 10.0 13.5 Z M 13.4 14.7 C 14.6 13.7 14.3 16.1 13.4 14.7 C 13.4 14.7 13.4 14.7 13.4 14.7 Z M 14.3 10.7 C 13.9 10.7 14.2 10.3 14.3 10.7 C 14.3 10.7 14.3 10.7 14.3 10.7 Z M 9.6 5.6 C 9.1 5.6 9.5 5.3 9.6 5.6 C 9.6 5.6 9.6 5.6 9.6 5.6 Z M 15.6 12.2 C 15.1 12.5 15.4 11.5 15.6 12.2 C 15.6 12.2 15.6 12.2 15.6 12.2 Z M 9.4 12.0 C 7.5 11.9 9.5 9.4 9.4 12.0 C 9.4 12.0 9.4 12.0 9.4 12.0 Z M 7.5 10.2 C 6.6 9.7 8.2 9.8 8.4 10.3 C 8.2 10.3 7.7 10.3 7.5 10.2 C 7.5 10.2 7.5 10.2 7.5 10.2 Z M 10.6 13.0 C 9.5 12.7 10.2 12.1 10.6 13.0 C 10.6 13.0 10.6 13.0 10.6 13.0 Z M 8.3 11.7 C 8.1 11.2 8.7 11.9 8.3 11.7 C 8.3 11.7 8.3 11.7 8.3 11.7 Z M 11.1 15.3 C 10.8 14.9 11.5 15.5 11.1 15.3 C 11.1 15.3 11.1 15.3 11.1 15.3 Z M 6.2 9.8 C 5.9 9.4 6.6 10.0 6.2 9.8 C 6.2 9.8 6.2 9.8 6.2 9.8 Z M 11.4 14.4 C 11.9 14.1 11.8 12.2 12.8 14.8 C 12.8 15.4 11.5 15.2 11.4 14.4 C 11.4 14.4 11.4 14.4 11.4 14.4 Z M 121.4 123.3 C 123.9 128.3 125.2 125.2 125.8 125.0 C 126.9 124.9 126.8 124.0 126.5 122.9 C 127.1 120.7 123.8 123.1 124.7 121.2 C 125.5 118.3 121.9 121.7 123.4 119.2 C 124.1 118.9 122.3 117.9 122.2 118.1 C 122.5 116.4 119.7 117.1 119.6 117.2 C 119.3 116.5 121.0 114.7 118.2 114.5 C 116.6 113.8 117.8 111.5 116.9 113.0 C 117.4 110.8 115.9 112.8 115.5 111.6 C 115.7 110.2 114.4 112.7 114.7 110.2 C 113.1 110.8 116.0 109.9 112.3 107.8 C 113.6 109.3 110.0 107.4 111.3 107.2 C 113.1 107.3 109.7 106.1 108.8 104.3 C 108.1 104.4 105.5 103.8 106.9 103.0 C 106.8 100.3 104.7 102.4 105.2 100.7 C 105.2 99.8 104.0 100.6 103.8 100.2 C 104.1 99.0 103.2 99.1 101.7 97.2 C 98.4 93.1 99.1 98.7 97.4 97.5 C 96.8 97.7 96.2 102.4 97.4 99.6 C 97.1 100.4 102.2 101.3 98.5 102.0 C 100.5 102.3 97.3 102.7 100.7 103.9 C 99.1 99.2 104.9 106.9 101.1 104.6 C 101.2 105.6 102.5 106.8 102.0 105.5 C 103.0 103.7 103.5 108.3 104.0 105.3 C 105.4 107.7 106.4 105.7 105.9 107.3 C 104.5 109.6 106.3 106.7 106.8 108.3 C 109.0 110.6 105.2 110.9 107.9 110.9 C 109.3 114.1 109.2 110.6 110.2 111.1 C 111.7 110.1 111.6 114.4 109.7 112.9 C 111.3 113.1 109.2 113.6 111.1 113.8 C 111.5 111.9 111.1 116.4 111.8 115.2 C 113.0 115.8 113.2 114.6 113.5 114.9 C 114.9 116.2 113.3 117.0 114.5 116.4 C 115.3 116.2 114.4 118.4 114.9 118.2 C 113.6 116.7 117.3 118.1 116.9 118.9 C 115.9 118.1 115.8 120.9 117.2 120.5 C 119.1 117.2 117.8 122.4 119.3 122.1 C 120.1 120.1 122.6 125.0 120.5 124.3 C 120.7 124.3 121.4 123.3 121.4 123.3 M 115.6 118.4 C 114.5 117.1 117.1 119.4 115.6 118.4 M 115.2 118.8 C 115.2 117.8 116.0 120.3 115.0 118.9 C 115.0 118.9 115.3 118.9 115.2 118.8 M 110.4 114.1 C 110.9 113.8 110.8 115.0 110.4 114.1 M 110.4 112.3 C 110.0 111.1 111.5 113.2 110.4 112.3 M 99.5 102.0 C 102.7 100.9 99.4 104.3 99.5 102.0 M 106.1 109.4 C 107.6 110.4 104.7 109.8 106.1 109.4 M 107.0 109.3 C 107.9 109.5 106.6 109.9 107.0 109.3 M 101.5 104.0 C 101.4 103.9 101.4 103.9 101.5 104.0 C 101.5 104.0 101.5 104.0 101.5 104.0 Z M 98.4 100.8 C 98.4 100.8 98.4 100.8 98.4 100.8 C 98.4 100.8 98.4 100.8 98.4 100.8 Z M 104.8 106.8 C 105.2 108.3 103.0 105.4 104.8 106.8 C 104.8 106.8 104.8 106.8 104.8 106.8 Z M 103.1 99.1 C 103.2 99.1 103.2 99.1 103.1 99.1 C 103.1 99.1 103.1 99.1 103.1 99.1 Z M 117.4 118.3 C 117.5 118.4 117.5 118.4 117.4 118.3 C 117.4 118.3 117.4 118.3 117.4 118.3 Z M 120.2 122.7 C 120.4 122.4 120.6 123.6 120.2 122.7 C 120.2 122.7 120.2 122.7 120.2 122.7 Z M 125.5 123.2 C 125.6 123.2 125.6 123.2 125.5 123.2 C 125.5 123.2 125.5 123.2 125.5 123.2 Z M 119.7 118.4 C 119.8 118.4 119.8 118.4 119.7 118.4 C 119.7 118.4 119.7 118.4 119.7 118.4 Z M 117.7 119.5 C 117.1 121.2 116.6 117.8 117.7 119.5 C 117.7 119.5 117.7 119.5 117.7 119.5 Z M 108.9 105.1 C 108.4 105.6 108.2 104.1 108.9 105.1 C 108.9 105.1 108.9 105.1 108.9 105.1 Z M 110.7 111.7 C 110.3 111.8 110.3 111.0 110.7 111.7 C 110.7 111.7 110.7 111.7 110.7 111.7 Z M 111.1 115.2 C 110.6 115.3 110.7 114.6 111.1 115.2 C 111.1 115.2 111.1 115.2 111.1 115.2 Z M 119.8 123.0 C 119.7 123.0 119.7 123.0 119.8 123.0 C 119.8 123.0 119.8 123.0 119.8 123.0 Z M 119.4 120.8 C 119.2 122.8 118.7 118.9 119.4 120.8 C 119.4 120.8 119.4 120.8 119.4 120.8 Z M 121.3 122.0 C 121.2 121.1 122.2 123.4 121.3 122.0 M 122.1 119.5 C 120.5 118.9 125.0 118.5 122.1 119.5 C 122.1 119.5 122.1 119.5 122.1 119.5 Z M 117.0 113.5 C 117.0 113.4 117.0 113.4 117.0 113.5 C 117.0 113.5 117.0 113.5 117.0 113.5 Z M 114.4 117.3 C 113.5 116.3 115.3 117.7 114.4 117.3 C 114.4 117.3 114.4 117.3 114.4 117.3 Z M 122.4 125.8 C 121.5 124.8 123.3 126.2 122.4 125.8 C 122.4 125.8 122.4 125.8 122.4 125.8 Z M 112.7 111.4 C 111.0 110.0 114.3 111.8 112.7 111.4 C 112.7 111.4 112.7 111.4 112.7 111.4 Z M 105.7 106.9 C 105.7 106.9 105.7 106.9 105.7 106.9 C 105.7 106.9 105.7 106.9 105.7 106.9 Z M 104.2 106.3 C 104.2 106.3 104.2 106.3 104.2 106.3 C 104.2 106.3 104.2 106.3 104.2 106.3 Z M 100.9 100.8 C 100.9 100.6 100.9 100.6 100.9 100.8 C 100.9 100.8 100.9 100.8 100.9 100.8 Z M 102.7 105.9 C 102.7 105.8 102.7 105.8 102.7 105.9 C 102.7 105.9 102.7 105.9 102.7 105.9 Z M 99.9 102.5 C 99.9 102.4 99.9 102.4 99.9 102.5 C 99.9 102.5 99.9 102.5 99.9 102.5 Z M 99.4 103.9 C 99.4 103.8 99.4 103.8 99.4 103.9 C 99.4 103.9 99.4 103.9 99.4 103.9 Z M 111.0 106.0 C 111.0 105.9 111.0 105.9 111.0 106.0 C 111.0 106.0 111.0 106.0 111.0 106.0 Z M 117.8 121.7 C 117.8 121.5 117.8 121.5 117.8 121.7 C 117.8 121.7 117.8 121.7 117.8 121.7 Z M 100.6 102.3 C 100.6 102.3 100.6 102.3 100.6 102.3 C 100.6 102.3 100.6 102.3 100.6 102.3 Z M 109.0 109.0 C 109.9 108.0 108.4 110.9 108.7 108.8 C 108.8 108.8 108.9 109.2 109.0 109.0 M 109.5 106.4 C 109.6 106.4 109.6 106.4 109.5 106.4 C 109.5 106.4 109.5 106.4 109.5 106.4 Z M 113.5 109.3 C 113.6 109.3 113.6 109.3 113.5 109.3 C 113.5 109.3 113.5 109.3 113.5 109.3 Z M 103.1 106.6 C 102.7 107.3 102.6 105.4 103.2 106.7 M 102.5 99.1 C 102.1 99.7 102.0 97.8 102.7 99.2 M 123.9 126.6 C 124.4 126.3 124.3 127.4 123.9 126.6 M 114.7 109.5 C 115.3 109.3 115.2 110.4 114.7 109.5 M 112.0 109.1 C 111.6 109.8 111.5 107.9 112.1 109.2 M 104.8 101.5 C 104.8 101.4 104.8 101.4 104.8 101.5 C 104.8 101.5 104.8 101.5 104.8 101.5 Z M 113.0 115.7 C 113.0 115.7 113.0 115.7 113.0 115.7 C 113.0 115.7 113.0 115.7 113.0 115.7 Z M 110.0 110.5 C 109.8 111.8 109.7 109.3 110.0 110.5 M 115.5 115.7 C 115.4 117.4 114.5 114.1 115.5 115.7 M 100.9 97.1 C 100.8 99.1 100.8 95.8 100.9 97.1 M 102.8 104.3 C 102.7 106.3 102.7 103.1 102.8 104.3 M 112.7 114.5 C 112.2 115.1 112.1 113.2 112.7 114.5 M 121.6 124.5 C 122.4 125.5 120.0 123.8 121.6 124.5 M 107.1 103.7 C 107.1 103.6 107.1 103.6 107.1 103.7 C 107.1 103.7 107.1 103.7 107.1 103.7 Z M 122.8 117.5 C 122.8 117.5 122.8 117.5 122.8 117.5 C 122.8 117.5 122.8 117.5 122.8 117.5 Z M 96.3 99.4 C 96.2 99.3 96.2 99.3 96.3 99.4 C 96.3 99.4 96.3 99.4 96.3 99.4 Z M 103.9 104.4 C 103.9 104.3 103.9 104.3 103.9 104.4 C 103.9 104.4 103.9 104.4 103.9 104.4 Z M 97.9 101.3 C 97.9 101.2 97.9 101.2 97.9 101.3 C 97.9 101.3 97.9 101.3 97.9 101.3 Z M 107.6 106.5 C 107.6 106.4 107.6 106.4 107.6 106.5 C 107.6 106.5 107.6 106.5 107.6 106.5 Z M 105.5 109.8 C 105.5 109.7 105.5 109.7 105.5 109.8 C 105.5 109.8 105.5 109.8 105.5 109.8 Z M 109.8 111.8 C 109.8 111.7 109.8 111.7 109.8 111.8 C 109.8 111.8 109.8 111.8 109.8 111.8 Z M 104.2 108.1 C 102.2 106.4 106.1 108.2 104.2 108.1 C 104.2 108.1 104.2 108.1 104.2 108.1 Z M 110.2 108.7 C 110.2 108.6 110.2 108.6 110.2 108.7 C 110.2 108.7 110.2 108.7 110.2 108.7 Z M 108.6 110.8 C 106.6 110.4 109.2 108.9 108.6 110.8 M 113.2 116.7 C 112.4 116.8 113.6 115.9 113.2 116.7 M 118.8 115.2 C 118.9 115.2 118.9 115.2 118.8 115.2 C 118.8 115.2 118.8 115.2 118.8 115.2 Z M 118.0 115.0 C 118.0 114.9 118.0 114.9 118.0 115.0 C 118.0 115.0 118.0 115.0 118.0 115.0 Z M 114.3 118.2 C 114.3 118.1 114.3 118.1 114.3 118.2 C 114.3 118.2 114.3 118.2 114.3 118.2 Z M 118.9 113.9 C 118.9 113.8 118.9 113.8 118.9 113.9 C 118.9 113.9 118.9 113.9 118.9 113.9 Z M 106.3 110.4 C 106.2 110.4 106.2 110.4 106.3 110.4 C 106.3 110.4 106.3 110.4 106.3 110.4 Z M 96.6 100.8 C 96.6 100.8 96.6 100.8 96.6 100.8 C 96.6 100.8 96.6 100.8 96.6 100.8 Z M 124.2 121.4 C 124.2 121.3 124.2 121.3 124.2 121.4 C 124.2 121.4 124.2 121.4 124.2 121.4 Z M 106.3 108.3 C 106.3 108.3 106.3 108.3 106.3 108.3 C 106.3 108.3 106.3 108.3 106.3 108.3 Z M 120.0 116.8 C 120.0 116.7 120.0 116.7 120.0 116.8 C 120.0 116.8 120.0 116.8 120.0 116.8 Z M 106.7 109.2 C 106.7 109.2 106.7 109.2 106.7 109.2 C 106.7 109.2 106.7 109.2 106.7 109.2 Z M 107.6 103.7 C 107.6 103.7 107.6 103.7 107.6 103.7 C 107.6 103.7 107.6 103.7 107.6 103.7 Z M 106.2 101.1 C 106.1 101.0 106.1 101.0 106.2 101.1 C 106.2 101.1 106.2 101.1 106.2 101.1 Z M 105.9 105.8 C 105.8 105.7 105.8 105.7 105.9 105.8 C 105.9 105.8 105.9 105.8 105.9 105.8 Z M 119.5 118.6 C 122.4 123.3 116.1 116.0 119.5 118.6 M 105.4 104.9 C 107.9 107.8 102.3 103.9 105.4 104.9 C 104.9 104.9 105.4 104.9 105.4 104.9 M 94.9 98.9 C 97.0 99.0 97.9 98.1 98.5 96.5 C 98.5 95.5 96.5 97.5 98.1 95.8 C 99.7 96.7 100.1 92.7 98.0 94.9 C 96.0 93.6 99.1 93.3 97.3 93.2 C 95.3 91.6 96.9 91.9 95.4 90.7 C 93.4 91.1 95.2 89.3 93.7 90.1 C 95.6 89.5 91.9 89.0 92.4 88.4 C 94.4 88.8 87.8 83.7 90.6 87.3 C 88.7 86.5 90.0 85.7 89.7 85.2 C 88.4 85.3 88.1 82.4 86.6 82.3 C 86.6 82.7 87.0 83.1 86.8 83.5 C 86.6 84.2 86.0 82.5 86.1 82.6 C 85.3 82.3 82.5 81.0 86.0 81.9 C 86.7 81.5 83.9 80.4 84.5 79.9 C 82.6 77.9 82.8 80.6 82.9 78.8 C 81.5 77.4 80.5 76.4 80.3 76.6 C 79.6 75.6 80.1 74.7 78.7 74.6 C 78.3 71.6 75.0 75.9 76.9 72.7 C 75.8 72.8 77.0 70.7 75.5 72.4 C 76.8 72.2 73.8 68.2 74.2 70.9 C 73.4 70.9 73.2 66.7 71.9 68.6 C 69.9 68.9 68.9 70.2 69.5 73.1 C 70.2 72.0 70.4 75.8 70.7 73.0 C 69.7 71.0 73.9 75.1 72.5 74.8 C 70.4 76.5 75.7 75.7 75.2 77.9 C 75.2 76.4 79.0 79.5 76.6 79.9 C 77.1 80.6 78.0 80.1 77.8 81.6 C 75.9 79.4 80.1 80.9 79.1 81.7 C 78.2 81.8 80.8 85.3 81.3 84.2 C 82.2 81.2 81.7 85.4 83.0 85.1 C 85.1 86.4 81.1 86.5 83.7 86.4 C 83.8 86.9 86.1 89.2 84.3 88.1 C 83.9 87.4 87.7 87.4 86.3 89.2 C 83.0 87.8 88.5 92.5 88.2 91.2 C 85.4 86.6 93.1 94.1 89.4 92.1 C 90.1 94.6 88.5 91.9 90.9 93.6 C 91.2 92.8 93.3 93.9 91.8 94.5 C 90.6 96.4 94.5 93.0 93.6 96.4 C 92.9 97.5 96.7 98.2 94.8 98.3 C 94.6 98.4 94.8 98.9 94.9 98.9 M 94.3 98.0 C 94.9 97.9 94.3 98.9 94.3 98.0 M 95.0 98.0 C 95.0 98.0 95.0 98.0 95.0 98.0 C 95.0 98.0 95.0 98.0 95.0 98.0 Z M 91.3 93.8 C 91.3 93.9 91.3 93.9 91.3 93.8 C 91.3 93.8 91.3 93.8 91.3 93.8 Z M 92.1 86.8 C 92.1 86.9 92.1 86.9 92.1 86.8 C 92.1 86.8 92.1 86.8 92.1 86.8 Z M 88.8 91.1 C 88.8 91.2 88.8 91.2 88.8 91.1 C 88.8 91.1 88.8 91.1 88.8 91.1 Z M 92.9 95.0 C 93.0 95.0 93.0 95.0 92.9 95.0 C 92.9 95.0 92.9 95.0 92.9 95.0 Z M 88.4 91.9 C 88.8 91.1 88.9 93.3 88.3 92.0 C 88.3 91.9 88.5 92.1 88.4 91.9 M 84.8 88.8 C 84.8 88.7 84.8 88.7 84.8 88.8 M 81.9 76.7 C 81.9 76.6 81.9 76.6 81.9 76.7 M 76.6 80.7 C 76.6 80.5 76.6 80.5 76.6 80.7 M 82.0 84.8 C 80.9 83.8 82.0 84.2 82.0 84.8 M 74.2 77.6 C 75.1 79.3 72.5 76.5 74.2 77.6 M 72.6 76.7 C 72.5 76.5 72.5 76.5 72.6 76.7 M 78.7 82.4 C 78.8 82.3 78.8 82.3 78.7 82.4 C 78.7 82.4 78.7 82.4 78.7 82.4 Z M 82.2 85.5 C 83.3 87.1 80.3 84.6 82.2 85.5 M 90.3 93.9 C 89.2 93.5 91.0 93.2 90.3 93.9 M 92.1 95.1 C 92.2 95.1 92.2 95.1 92.1 95.1 C 92.1 95.1 92.1 95.1 92.1 95.1 Z M 76.3 79.7 C 76.3 79.8 76.3 79.8 76.3 79.7 C 76.3 79.7 76.3 79.7 76.3 79.7 Z M 74.7 78.3 C 74.7 78.4 74.7 78.4 74.7 78.3 C 74.7 78.3 74.7 78.3 74.7 78.3 Z M 76.5 71.5 C 76.5 71.6 76.5 71.6 76.5 71.5 C 76.5 71.5 76.5 71.5 76.5 71.5 Z M 92.8 92.2 C 93.5 93.5 90.3 92.6 91.6 91.7 C 91.9 91.2 92.6 92.2 92.8 92.2 M 84.5 85.2 C 85.7 83.4 83.5 88.1 84.5 85.2 M 73.4 75.5 C 74.1 72.8 73.4 78.0 73.4 75.5 M 71.0 73.8 C 70.8 72.8 75.0 77.4 71.5 74.8 C 70.9 74.8 71.0 74.2 71.0 73.8 M 85.5 88.0 C 86.0 86.9 86.7 90.0 85.5 88.0 M 81.6 79.3 C 80.6 79.3 78.9 78.5 80.3 78.2 C 81.5 77.1 82.7 79.5 81.6 79.3 M 94.8 96.9 C 92.7 97.4 96.0 95.8 94.8 96.9 M 91.0 92.8 C 90.9 92.9 90.9 92.9 91.0 92.8 C 91.0 92.8 91.0 92.8 91.0 92.8 Z M 89.2 91.5 C 89.2 91.3 89.2 91.3 89.2 91.5 M 93.1 97.4 C 93.1 97.2 93.1 97.2 93.1 97.4 M 80.3 80.7 C 80.3 80.5 80.3 80.5 80.3 80.7 M 82.6 84.7 C 82.4 81.9 83.7 85.3 82.6 84.7 M 88.8 86.0 C 89.0 84.9 89.8 86.9 88.8 86.0 M 79.7 82.7 C 79.8 80.4 82.3 83.1 79.7 82.7 M 83.3 85.6 C 83.2 85.5 83.2 85.5 83.3 85.6 C 83.3 85.6 83.3 85.6 83.3 85.6 Z M 81.4 78.8 C 81.4 78.8 81.4 78.8 81.4 78.8 C 81.4 78.8 81.4 78.8 81.4 78.8 Z M 80.8 78.4 C 80.9 78.4 80.9 78.4 80.8 78.4 C 80.8 78.4 80.8 78.4 80.8 78.4 Z M 78.2 81.5 C 78.3 81.6 78.3 81.6 78.2 81.5 C 78.2 81.5 78.2 81.5 78.2 81.5 Z M 95.6 91.9 C 94.6 90.7 96.6 92.5 95.6 91.9 C 95.6 91.9 95.6 91.9 95.6 91.9 Z M 87.2 90.7 C 86.4 87.9 89.4 91.0 87.2 90.7 C 87.2 90.7 87.2 90.7 87.2 90.7 Z M 86.8 87.1 C 86.8 87.0 86.8 87.0 86.8 87.1 C 86.8 87.1 86.8 87.1 86.8 87.1 Z M 79.6 84.2 C 79.7 84.1 79.7 84.1 79.6 84.2 C 79.6 84.2 79.6 84.2 79.6 84.2 Z M 95.2 91.2 C 95.3 91.1 95.3 91.1 95.2 91.2 C 95.2 91.2 95.2 91.2 95.2 91.2 Z M 75.8 77.8 C 75.8 77.7 75.8 77.7 75.8 77.8 C 75.8 77.8 75.8 77.8 75.8 77.8 Z M 84.5 81.5 C 83.6 81.6 84.8 81.1 84.5 81.5 C 84.5 81.5 84.5 81.5 84.5 81.5 Z M 82.9 79.9 C 82.8 79.9 82.8 79.9 82.9 79.9 C 82.9 79.9 82.9 79.9 82.9 79.9 Z M 72.1 76.4 C 72.1 76.3 72.1 76.3 72.1 76.4 C 72.1 76.4 72.1 76.4 72.1 76.4 Z M 79.9 74.6 C 79.9 74.6 79.9 74.6 79.9 74.6 C 79.9 74.6 79.9 74.6 79.9 74.6 Z M 77.1 74.7 C 77.2 74.7 77.2 74.7 77.1 74.7 C 77.1 74.7 77.1 74.7 77.1 74.7 Z M 78.8 81.5 C 76.9 80.1 79.7 81.4 78.8 81.5 C 78.8 81.5 78.8 81.5 78.8 81.5 Z M 72.7 71.1 C 72.8 71.0 72.8 71.0 72.7 71.1 C 72.7 71.1 72.7 71.1 72.7 71.1 Z M 70.2 71.9 C 70.3 71.8 70.3 71.8 70.2 71.9 C 70.2 71.9 70.2 71.9 70.2 71.9 Z M 68.9 72.4 C 69.0 72.3 69.0 72.3 68.9 72.4 C 68.9 72.4 68.9 72.4 68.9 72.4 Z M 91.0 89.7 C 91.0 89.8 91.0 89.8 91.0 89.7 C 91.0 89.7 91.0 89.7 91.0 89.7 Z M 89.0 93.0 C 89.0 93.1 89.0 93.1 89.0 93.0 C 89.0 93.0 89.0 93.0 89.0 93.0 Z M 86.7 91.0 C 86.6 91.0 86.6 91.0 86.7 91.0 C 86.7 91.0 86.7 91.0 86.7 91.0 Z M 93.1 88.4 C 93.1 88.5 93.1 88.5 93.1 88.4 C 93.1 88.4 93.1 88.4 93.1 88.4 Z M 82.6 82.5 C 82.6 82.6 82.6 82.6 82.6 82.5 C 82.6 82.5 82.6 82.5 82.6 82.5 Z M 82.9 80.7 C 82.9 80.8 82.9 80.8 82.9 80.7 C 82.9 80.7 82.9 80.7 82.9 80.7 Z M 86.2 81.1 C 86.2 81.2 86.2 81.2 86.2 81.1 C 86.2 81.1 86.2 81.1 86.2 81.1 Z M 83.2 79.1 C 83.2 79.2 83.2 79.2 83.2 79.1 C 83.2 79.1 83.2 79.1 83.2 79.1 Z M 98.1 94.4 C 98.1 94.4 98.1 94.4 98.1 94.4 C 98.1 94.4 98.1 94.4 98.1 94.4 Z M 96.2 96.7 C 96.3 96.7 96.3 96.7 96.2 96.7 C 96.2 96.7 96.2 96.7 96.2 96.7 Z M 80.8 83.8 C 80.0 83.9 80.7 82.5 80.8 83.8 M 84.2 86.7 C 84.3 86.6 84.3 86.6 84.2 86.7 C 84.2 86.7 84.2 86.7 84.2 86.7 Z M 75.6 78.5 C 76.1 77.2 76.7 80.4 75.6 78.5 C 75.6 78.5 75.6 78.5 75.6 78.5 Z M 80.8 76.7 C 80.7 76.6 80.7 76.6 80.8 76.7 C 80.8 76.7 80.8 76.7 80.8 76.7 Z M 79.6 76.2 C 79.6 76.1 79.6 76.1 79.6 76.2 C 79.6 76.2 79.6 76.2 79.6 76.2 Z M 72.8 73.9 C 72.8 73.8 72.8 73.8 72.8 73.9 M 83.9 87.8 C 83.8 87.0 83.8 87.1 83.9 87.8 M 74.6 77.4 C 74.7 77.4 74.7 77.4 74.6 77.4 C 74.6 77.4 74.6 77.4 74.6 77.4 Z M 71.4 73.4 C 71.4 73.4 71.4 73.4 71.4 73.4 C 71.4 73.4 71.4 73.4 71.4 73.4 Z M 86.6 89.5 C 87.6 88.4 87.8 89.0 86.6 89.5 M 93.2 95.4 C 93.2 95.3 93.2 95.3 93.2 95.4 C 93.2 95.4 93.2 95.4 93.2 95.4 Z M 65.7 69.1 C 66.3 71.9 67.8 70.4 67.9 70.3 C 65.6 72.3 70.2 71.0 70.3 70.3 C 70.7 70.0 73.0 65.1 69.6 66.1 C 69.0 66.1 69.5 65.2 69.3 64.9 C 67.1 62.9 69.6 67.5 67.0 65.0 C 66.9 64.2 69.1 63.0 66.5 62.7 C 66.6 62.5 65.5 60.1 65.3 61.6 C 65.4 60.0 63.9 60.4 62.9 59.9 C 62.7 58.7 64.8 59.2 61.3 57.7 C 61.8 55.2 58.9 57.3 59.5 54.8 C 58.9 54.1 55.4 55.8 58.3 55.8 C 57.9 55.7 57.6 57.9 56.1 55.5 C 56.7 55.4 60.4 53.8 56.1 52.1 C 55.7 51.5 53.9 51.1 53.9 50.5 C 55.7 51.8 52.9 47.2 52.5 48.4 C 50.6 45.4 50.8 48.0 49.9 45.4 C 48.5 43.9 49.2 47.0 48.1 44.5 C 46.7 43.3 48.2 43.6 48.3 43.8 C 47.3 42.5 46.4 42.5 46.0 42.1 C 45.9 41.7 45.9 40.6 45.0 41.0 C 42.5 41.0 42.5 43.3 40.7 44.0 C 41.0 45.5 42.0 43.5 41.7 45.0 C 42.9 44.7 41.7 45.1 44.4 47.4 C 44.5 47.2 44.4 46.0 45.1 46.6 C 45.9 47.6 43.2 49.0 46.2 49.1 C 44.8 46.8 49.5 51.1 48.2 48.9 C 50.6 50.8 48.6 49.7 49.7 51.7 C 51.0 50.3 48.4 53.3 50.1 52.8 C 49.6 53.5 52.3 55.7 51.4 53.1 C 54.3 55.3 51.9 54.5 52.1 56.1 C 53.2 57.4 54.4 54.0 53.5 56.4 C 54.2 58.7 54.4 55.6 54.2 58.0 C 54.9 56.4 55.3 59.2 56.1 57.5 C 58.9 60.0 54.5 58.5 57.2 59.5 C 56.7 58.9 55.2 60.8 57.4 60.8 C 59.0 58.3 57.1 64.1 59.0 60.6 C 63.4 63.5 58.5 62.3 60.5 64.3 C 61.0 64.8 60.8 62.9 61.3 63.3 C 63.5 66.3 60.6 64.8 63.3 64.9 C 66.2 67.1 62.9 66.7 64.1 68.1 C 64.8 67.5 66.9 67.5 65.7 69.1 M 64.1 66.2 C 63.1 66.1 64.2 65.5 64.1 66.2 M 68.6 72.0 C 67.6 71.9 68.7 71.2 68.6 72.0 M 61.6 64.5 C 60.4 64.2 62.1 63.6 61.6 64.5 M 48.5 50.1 C 49.4 51.1 47.7 50.0 48.5 50.1 M 66.4 70.0 C 65.2 69.8 67.0 69.1 66.4 70.0 M 68.4 69.9 C 68.4 69.8 68.4 69.8 68.4 69.9 M 46.0 49.8 C 46.0 49.8 46.0 49.8 46.0 49.8 M 49.7 53.5 C 48.9 52.7 50.4 53.7 49.7 53.5 M 54.3 49.3 C 53.5 48.4 55.0 49.4 54.3 49.3 M 44.0 47.9 C 42.8 47.4 44.2 47.2 44.0 47.9 M 42.9 44.9 C 41.8 44.6 42.9 44.0 42.9 44.9 M 66.1 65.1 C 66.1 65.1 66.1 65.1 66.1 65.1 C 66.1 65.1 66.1 65.1 66.1 65.1 Z M 60.4 57.3 C 60.8 58.5 60.0 55.8 60.4 57.3 M 58.8 61.4 C 59.1 60.0 59.8 62.5 58.8 61.4 C 58.8 61.4 58.8 61.4 58.8 61.4 Z M 60.4 62.2 C 60.4 62.2 60.4 62.2 60.4 62.2 C 60.4 62.2 60.4 62.2 60.4 62.2 Z M 56.6 58.3 C 56.7 58.4 56.7 58.4 56.6 58.3 C 56.6 58.3 56.6 58.3 56.6 58.3 Z M 57.5 59.0 C 58.0 59.2 57.7 59.7 57.5 59.0 C 57.5 59.0 57.5 59.0 57.5 59.0 Z M 54.8 50.6 C 55.3 50.8 55.0 51.3 54.8 50.6 C 54.8 50.6 54.8 50.6 54.8 50.6 Z M 59.0 59.9 C 60.0 59.1 58.9 61.1 59.0 59.9 C 59.0 59.9 59.0 59.9 59.0 59.9 Z M 57.0 53.7 C 56.4 53.6 57.2 52.1 57.0 53.7 M 45.4 48.9 C 44.8 48.8 45.6 47.3 45.4 48.9 M 53.2 57.2 C 52.7 57.1 53.4 55.7 53.2 57.2 M 63.2 66.2 C 63.3 66.0 63.3 66.0 63.2 66.2 M 62.7 57.8 C 61.8 57.6 62.8 57.1 62.7 57.8 M 70.0 65.7 C 69.1 65.5 70.1 65.0 70.0 65.7 M 50.7 45.9 C 50.5 46.2 50.0 45.0 50.7 45.9 M 53.7 54.8 C 53.1 54.0 52.9 52.8 54.3 54.3 C 54.2 54.6 53.6 54.3 53.7 54.8 C 53.7 54.8 53.7 54.8 53.7 54.8 Z M 53.2 50.2 C 53.2 50.1 53.2 50.1 53.2 50.2 M 51.6 54.4 C 51.6 54.2 51.6 54.2 51.6 54.4 M 47.6 50.2 C 47.6 50.0 47.6 50.0 47.6 50.2 M 46.8 49.9 C 46.9 49.9 46.9 49.9 46.8 49.9 C 46.8 49.9 46.8 49.9 46.8 49.9 Z M 41.9 45.8 C 42.0 45.8 42.0 45.8 41.9 45.8 C 41.9 45.8 41.9 45.8 41.9 45.8 Z M 49.0 51.4 C 49.1 51.4 49.1 51.4 49.0 51.4 C 49.0 51.4 49.0 51.4 49.0 51.4 Z M 48.7 44.2 C 48.8 44.2 48.8 44.2 48.7 44.2 C 48.7 44.2 48.7 44.2 48.7 44.2 Z M 48.7 45.2 C 48.7 45.2 48.7 45.2 48.7 45.2 C 48.7 45.2 48.7 45.2 48.7 45.2 Z M 65.3 68.8 C 64.1 68.8 66.6 66.9 65.3 68.8 M 46.7 43.2 C 46.7 42.0 47.8 44.2 46.7 43.2 C 46.7 43.2 46.7 43.2 46.7 43.2 Z M 50.3 51.1 C 50.3 51.0 50.3 51.0 50.3 51.1 M 46.7 49.6 C 46.7 49.4 46.7 49.4 46.7 49.6 M 58.0 62.3 C 58.0 62.1 58.0 62.1 58.0 62.3 M 43.7 46.2 C 41.9 44.1 45.8 45.8 43.7 46.2 M 59.7 62.3 C 59.7 62.4 59.7 62.4 59.7 62.3 M 57.1 56.3 C 55.7 55.1 58.0 56.3 57.1 56.3 M 52.6 54.2 C 52.7 54.1 52.7 54.1 52.6 54.2 C 52.6 54.2 52.6 54.2 52.6 54.2 Z M 54.6 56.1 C 55.6 56.9 54.5 56.6 54.6 56.1 C 54.6 56.1 54.6 56.1 54.6 56.1 Z M 65.3 67.0 C 64.2 65.7 66.8 68.0 65.3 67.0 C 65.3 67.0 65.3 67.0 65.3 67.0 Z M 46.6 45.0 C 46.7 45.0 46.7 45.0 46.6 45.0 C 46.6 45.0 46.6 45.0 46.6 45.0 Z M 48.6 52.3 C 49.4 52.6 48.6 52.8 48.6 52.3 C 48.6 52.3 48.6 52.3 48.6 52.3 Z M 41.3 45.1 C 42.1 45.4 41.3 45.6 41.3 45.1 C 41.3 45.1 41.3 45.1 41.3 45.1 Z M 66.6 68.7 C 63.6 62.7 72.1 75.0 66.6 68.7 C 66.6 68.7 66.6 68.7 66.6 68.7 Z M 53.2 55.9 C 53.3 55.9 53.3 55.9 53.2 55.9 C 53.2 55.9 53.2 55.9 53.2 55.9 Z M 60.8 64.8 C 60.9 64.7 60.9 64.7 60.8 64.8 C 60.8 64.8 60.8 64.8 60.8 64.8 Z M 63.0 65.3 C 63.1 65.3 63.1 65.3 63.0 65.3 C 63.0 65.3 63.0 65.3 63.0 65.3 Z M 66.1 61.4 C 66.2 61.4 66.2 61.4 66.1 61.4 C 66.1 61.4 66.1 61.4 66.1 61.4 Z M 64.1 62.6 C 64.2 62.5 64.2 62.5 64.1 62.6 C 64.1 62.6 64.1 62.6 64.1 62.6 Z M 67.5 64.8 C 67.6 64.8 67.6 64.8 67.5 64.8 C 67.5 64.8 67.5 64.8 67.5 64.8 Z M 68.0 64.3 C 68.0 64.3 68.0 64.3 68.0 64.3 C 68.0 64.3 68.0 64.3 68.0 64.3 Z M 47.6 48.6 C 47.8 48.6 47.8 48.6 47.6 48.6 C 47.6 48.6 47.6 48.6 47.6 48.6 Z M 50.6 48.7 C 49.1 48.2 51.7 48.2 50.6 48.7 C 50.6 48.7 50.6 48.7 50.6 48.7 Z M 59.2 58.6 C 58.0 57.8 60.2 58.8 59.2 58.6 C 59.2 58.6 59.2 58.6 59.2 58.6 Z M 60.0 55.7 C 60.0 55.6 60.0 55.6 60.0 55.7 C 60.0 55.7 60.0 55.7 60.0 55.7 Z M 62.2 66.2 C 62.3 66.1 62.3 66.1 62.2 66.2 C 62.2 66.2 62.2 66.2 62.2 66.2 Z M 64.5 67.3 C 65.3 66.7 64.7 68.2 64.5 67.3 M 55.3 58.9 C 55.4 58.8 55.4 58.8 55.3 58.9 C 55.3 58.9 55.3 58.9 55.3 58.9 Z M 50.8 52.2 C 50.9 52.1 50.9 52.1 50.8 52.2 C 50.8 52.2 50.8 52.2 50.8 52.2 Z M 44.8 47.1 C 44.9 47.0 44.9 47.0 44.8 47.1 C 44.8 47.1 44.8 47.1 44.8 47.1 Z M 51.9 55.4 C 52.0 55.3 52.0 55.3 51.9 55.4 C 51.9 55.4 51.9 55.4 51.9 55.4 Z M 55.2 57.3 C 55.3 57.3 55.3 57.3 55.2 57.3 C 55.2 57.3 55.2 57.3 55.2 57.3 Z M 44.6 44.8 C 44.7 44.8 44.7 44.8 44.6 44.8 C 44.6 44.8 44.6 44.8 44.6 44.8 Z M 51.1 54.8 C 51.2 54.8 51.2 54.8 51.1 54.8 C 51.1 54.8 51.1 54.8 51.1 54.8 Z M 51.9 50.9 C 52.0 50.9 52.0 50.9 51.9 50.9 C 51.9 50.9 51.9 50.9 51.9 50.9 Z M 63.2 68.2 C 63.3 68.1 63.3 68.1 63.2 68.2 C 63.2 68.2 63.2 68.2 63.2 68.2 Z M 43.6 45.8 C 43.6 45.8 43.6 45.8 43.6 45.8 C 43.6 45.8 43.6 45.8 43.6 45.8 Z M 42.6 46.1 C 42.6 46.1 42.6 46.1 42.6 46.1 C 42.6 46.1 42.6 46.1 42.6 46.1 Z M 50.0 46.5 C 51.6 48.9 48.1 44.9 48.7 47.1 C 45.7 44.5 49.7 46.1 50.0 46.5 C 50.0 46.5 50.0 46.5 50.0 46.5 Z M 39.7 43.7 C 41.8 43.8 42.7 42.9 43.3 41.4 C 43.3 40.3 41.3 42.3 43.0 40.6 C 44.5 41.5 45.0 37.5 42.8 39.7 C 40.9 38.4 43.9 38.1 42.1 38.0 C 40.1 36.4 41.7 36.7 40.2 35.5 C 38.2 35.9 40.0 34.1 38.5 34.9 C 40.4 34.3 36.7 33.8 37.2 33.2 C 39.2 33.7 32.6 28.5 35.4 32.1 C 33.6 31.3 34.8 30.6 34.5 30.0 C 33.2 30.1 32.9 27.2 31.4 27.2 C 31.4 27.5 31.8 27.9 31.7 28.3 C 31.4 29.0 30.8 27.3 30.9 27.4 C 30.1 27.2 27.3 25.8 30.8 26.8 C 31.5 26.3 28.7 25.2 29.3 24.7 C 27.4 22.7 27.7 25.4 27.7 23.7 C 26.3 22.2 25.3 21.2 25.1 21.4 C 24.4 20.4 24.9 19.6 23.5 19.5 C 23.1 16.4 19.8 20.7 21.7 17.5 C 20.6 17.7 21.8 15.5 20.3 17.2 C 21.6 17.0 18.6 13.0 19.0 15.7 C 18.2 15.7 18.0 11.5 16.7 13.4 C 14.8 13.8 13.7 15.1 14.3 17.9 C 15.1 16.8 15.2 20.7 15.5 17.8 C 14.5 15.8 18.7 20.0 17.3 19.6 C 15.2 21.3 20.5 20.5 20.0 22.7 C 20.0 21.3 23.8 24.3 21.4 24.7 C 22.0 25.4 22.8 24.9 22.6 26.4 C 20.7 24.3 24.9 25.7 23.9 26.5 C 23.0 26.6 25.7 30.1 26.1 29.0 C 27.0 26.0 26.5 30.2 27.8 30.0 C 29.9 31.2 25.9 31.3 28.6 31.2 C 28.6 31.7 30.9 34.0 29.1 33.0 C 28.7 32.2 32.5 32.2 31.1 34.1 C 27.8 32.6 33.3 37.3 33.0 36.0 C 30.3 31.4 37.9 38.9 34.2 36.9 C 34.9 39.4 33.3 36.8 35.7 38.4 C 36.0 37.6 38.1 38.7 36.7 39.3 C 35.4 41.2 39.3 37.8 38.4 41.2 C 37.7 42.3 41.5 43.0 39.6 43.1 C 39.5 43.2 39.6 43.7 39.7 43.7 M 39.1 42.8 C 39.8 42.8 39.1 43.7 39.1 42.8 M 39.8 42.8 C 39.8 42.8 39.8 42.8 39.8 42.8 C 39.8 42.8 39.8 42.8 39.8 42.8 Z M 36.1 38.6 C 36.1 38.7 36.1 38.7 36.1 38.6 C 36.1 38.6 36.1 38.6 36.1 38.6 Z M 36.9 31.6 C 36.9 31.7 36.9 31.7 36.9 31.6 C 36.9 31.6 36.9 31.6 36.9 31.6 Z M 33.6 35.9 C 33.6 36.0 33.6 36.0 33.6 35.9 C 33.6 35.9 33.6 35.9 33.6 35.9 Z M 37.7 39.8 C 37.8 39.8 37.8 39.8 37.7 39.8 C 37.7 39.8 37.7 39.8 37.7 39.8 Z M 33.3 36.8 C 33.6 36.0 33.7 38.1 33.1 36.8 C 33.1 36.7 33.3 36.9 33.3 36.8 M 29.6 33.6 C 29.7 33.5 29.7 33.5 29.6 33.6 M 26.7 21.5 C 26.7 21.4 26.7 21.4 26.7 21.5 M 21.4 25.5 C 21.4 25.4 21.4 25.4 21.4 25.5 M 26.8 29.6 C 25.7 28.6 26.9 29.0 26.8 29.6 M 19.0 22.4 C 20.0 24.1 17.3 21.3 19.0 22.4 M 17.4 21.5 C 17.4 21.3 17.4 21.3 17.4 21.5 M 23.5 27.2 C 23.6 27.2 23.6 27.2 23.5 27.2 C 23.5 27.2 23.5 27.2 23.5 27.2 Z M 27.0 30.3 C 28.1 32.0 25.1 29.4 27.0 30.3 M 35.1 38.7 C 34.0 38.3 35.8 38.0 35.1 38.7 M 36.9 40.0 C 37.0 39.9 37.0 39.9 36.9 40.0 C 36.9 40.0 36.9 40.0 36.9 40.0 Z M 21.1 24.6 C 21.2 24.6 21.2 24.6 21.1 24.6 C 21.1 24.6 21.1 24.6 21.1 24.6 Z M 19.5 23.2 C 19.6 23.2 19.6 23.2 19.5 23.2 C 19.5 23.2 19.5 23.2 19.5 23.2 Z M 21.3 16.3 C 21.3 16.4 21.3 16.4 21.3 16.3 C 21.3 16.3 21.3 16.3 21.3 16.3 Z M 37.6 37.0 C 38.3 38.3 35.2 37.4 36.4 36.5 C 36.7 36.0 37.4 37.0 37.6 37.0 M 29.3 30.0 C 30.5 28.2 28.3 33.0 29.3 30.0 M 18.2 20.3 C 18.9 17.6 18.2 22.9 18.2 20.3 M 15.8 18.6 C 15.6 17.6 19.9 22.2 16.3 19.6 C 15.7 19.6 15.9 19.0 15.8 18.6 M 30.3 32.8 C 30.8 31.7 31.5 34.8 30.3 32.8 M 26.4 24.1 C 25.4 24.2 23.7 23.3 25.1 23.0 C 26.3 21.9 27.5 24.3 26.4 24.1 M 39.7 41.7 C 37.5 42.2 40.8 40.6 39.7 41.7 M 35.8 37.6 C 35.7 37.7 35.7 37.7 35.8 37.6 C 35.8 37.6 35.8 37.6 35.8 37.6 Z M 34.0 36.3 C 34.1 36.1 34.1 36.1 34.0 36.3 M 37.9 42.2 C 37.9 42.0 37.9 42.0 37.9 42.2 M 25.1 25.5 C 25.2 25.3 25.2 25.3 25.1 25.5 M 27.5 29.6 C 27.2 26.8 28.5 30.1 27.5 29.6 M 33.7 30.8 C 33.8 29.7 34.7 31.7 33.7 30.8 M 24.5 27.5 C 24.6 25.3 27.1 27.9 24.5 27.5 M 28.1 30.4 C 28.0 30.4 28.0 30.4 28.1 30.4 C 28.1 30.4 28.1 30.4 28.1 30.4 Z M 26.2 23.6 C 26.2 23.6 26.2 23.6 26.2 23.6 C 26.2 23.6 26.2 23.6 26.2 23.6 Z M 25.6 23.2 C 25.7 23.2 25.7 23.2 25.6 23.2 C 25.6 23.2 25.6 23.2 25.6 23.2 Z M 23.0 26.3 C 23.1 26.4 23.1 26.4 23.0 26.3 C 23.0 26.3 23.0 26.3 23.0 26.3 Z M 40.4 36.7 C 39.4 35.5 41.4 37.4 40.4 36.7 C 40.4 36.7 40.4 36.7 40.4 36.7 Z M 32.0 35.5 C 31.2 32.7 34.2 35.8 32.0 35.5 C 32.0 35.5 32.0 35.5 32.0 35.5 Z M 31.6 31.9 C 31.7 31.8 31.7 31.8 31.6 31.9 C 31.6 31.9 31.6 31.9 31.6 31.9 Z M 24.4 29.0 C 24.5 28.9 24.5 28.9 24.4 29.0 C 24.4 29.0 24.4 29.0 24.4 29.0 Z M 40.0 36.0 C 40.1 35.9 40.1 35.9 40.0 36.0 C 40.0 36.0 40.0 36.0 40.0 36.0 Z M 20.6 22.6 C 20.6 22.5 20.6 22.5 20.6 22.6 C 20.6 22.6 20.6 22.6 20.6 22.6 Z M 29.3 26.3 C 28.4 26.4 29.6 25.9 29.3 26.3 C 29.3 26.3 29.3 26.3 29.3 26.3 Z M 27.7 24.7 C 27.6 24.7 27.6 24.7 27.7 24.7 C 27.7 24.7 27.7 24.7 27.7 24.7 Z M 16.9 21.2 C 16.9 21.2 16.9 21.2 16.9 21.2 C 16.9 21.2 16.9 21.2 16.9 21.2 Z M 24.7 19.4 C 24.7 19.4 24.7 19.4 24.7 19.4 C 24.7 19.4 24.7 19.4 24.7 19.4 Z M 21.9 19.5 C 22.0 19.5 22.0 19.5 21.9 19.5 C 21.9 19.5 21.9 19.5 21.9 19.5 Z M 23.6 26.3 C 21.7 25.0 24.5 26.2 23.6 26.3 C 23.6 26.3 23.6 26.3 23.6 26.3 Z M 17.5 15.9 C 17.6 15.8 17.6 15.8 17.5 15.9 C 17.5 15.9 17.5 15.9 17.5 15.9 Z M 15.1 16.8 C 15.1 16.6 15.1 16.6 15.1 16.8 C 15.1 16.8 15.1 16.8 15.1 16.8 Z M 13.8 17.2 C 13.8 17.1 13.8 17.1 13.8 17.2 C 13.8 17.2 13.8 17.2 13.8 17.2 Z M 35.9 34.5 C 35.8 34.6 35.8 34.6 35.9 34.5 C 35.9 34.5 35.9 34.5 35.9 34.5 Z M 33.8 37.9 C 33.8 37.9 33.8 37.9 33.8 37.9 C 33.8 37.9 33.8 37.9 33.8 37.9 Z M 31.5 35.8 C 31.5 35.8 31.5 35.8 31.5 35.8 C 31.5 35.8 31.5 35.8 31.5 35.8 Z M 37.9 33.3 C 37.9 33.3 37.9 33.3 37.9 33.3 C 37.9 33.3 37.9 33.3 37.9 33.3 Z M 27.4 27.4 C 27.4 27.4 27.4 27.4 27.4 27.4 C 27.4 27.4 27.4 27.4 27.4 27.4 Z M 27.7 25.5 C 27.7 25.6 27.7 25.6 27.7 25.5 C 27.7 25.5 27.7 25.5 27.7 25.5 Z M 31.1 25.9 C 31.1 26.0 31.1 26.0 31.1 25.9 C 31.1 25.9 31.1 25.9 31.1 25.9 Z M 28.1 24.0 C 28.1 24.0 28.1 24.0 28.1 24.0 C 28.1 24.0 28.1 24.0 28.1 24.0 Z M 42.9 39.3 C 42.9 39.2 42.9 39.2 42.9 39.3 C 42.9 39.3 42.9 39.3 42.9 39.3 Z M 41.0 41.5 C 41.1 41.5 41.1 41.5 41.0 41.5 C 41.0 41.5 41.0 41.5 41.0 41.5 Z M 25.6 28.6 C 24.8 28.7 25.5 27.3 25.6 28.6 M 29.0 31.5 C 29.1 31.5 29.1 31.5 29.0 31.5 C 29.0 31.5 29.0 31.5 29.0 31.5 Z M 20.4 23.3 C 20.9 22.1 21.5 25.2 20.4 23.3 C 20.4 23.3 20.4 23.3 20.4 23.3 Z M 25.6 21.5 C 25.6 21.4 25.6 21.4 25.6 21.5 C 25.6 21.5 25.6 21.5 25.6 21.5 Z M 24.4 21.0 C 24.4 20.9 24.4 20.9 24.4 21.0 C 24.4 21.0 24.4 21.0 24.4 21.0 Z M 17.6 18.7 C 17.6 18.6 17.6 18.6 17.6 18.7 M 28.7 32.6 C 28.6 31.8 28.6 31.9 28.7 32.6 M 19.4 22.2 C 19.5 22.2 19.5 22.2 19.4 22.2 C 19.4 22.2 19.4 22.2 19.4 22.2 Z M 16.2 18.2 C 16.3 18.2 16.3 18.2 16.2 18.2 C 16.2 18.2 16.2 18.2 16.2 18.2 Z M 31.5 34.3 C 32.4 33.2 32.6 33.9 31.5 34.3 M 38.0 40.2 C 38.1 40.1 38.1 40.1 38.0 40.2 C 38.0 40.2 38.0 40.2 38.0 40.2 Z M 38.0 40.2 " fill="#71AFE1"></path></g></g></g></svg>