<?xml version="1.0" encoding="UTF-8" standalone="no"?><svg xmlns="http://www.w3.org/2000/svg" xmlns:xlink="http://www.w3.org/1999/xlink" clip-rule="evenodd" stroke-miterlimit="4.00" viewBox="0 0 77 40"><desc>SVG generated by Keynote</desc><defs></defs><g transform="matrix(1.00, 0.00, -0.00, -1.00, 0.0, 40.0)"><path d="M 65.1 29.4 C 65.0 29.6 64.5 29.3 63.8 29.5 C 63.1 29.7 62.3 30.1 62.6 30.3 C 62.9 30.5 63.2 30.5 63.1 31.1 C 62.9 31.6 62.7 32.5 63.4 32.4 C 64.0 32.4 66.2 32.0 66.6 31.4 C 67.0 30.7 67.1 30.5 67.3 30.0 C 67.5 29.6 67.7 30.4 67.7 30.4 C 67.7 30.4 68.7 29.9 69.3 29.4 C 69.9 29.0 70.5 28.4 70.5 28.3 C 70.4 28.2 70.4 27.8 70.4 27.8 C 70.4 27.8 70.9 27.8 71.4 27.5 C 71.7 27.1 71.5 27.1 71.3 27.1 C 71.1 27.0 70.3 27.1 70.5 26.9 C 70.6 26.8 71.6 26.8 71.9 26.6 C 72.2 26.4 72.5 25.7 72.5 25.7 C 72.5 25.7 72.1 25.5 72.1 25.4 C 72.0 25.3 72.4 24.7 72.5 24.7 C 72.7 24.8 73.1 25.1 73.3 24.8 C 73.9 23.8 73.0 23.6 73.0 23.5 C 73.0 23.4 73.6 23.7 73.8 23.5 C 74.0 23.3 74.4 21.2 74.3 21.1 C 74.1 20.9 74.8 20.3 74.4 20.0 C 74.0 19.7 73.9 19.6 73.7 19.6 C 73.6 19.5 72.9 19.2 73.2 19.0 C 73.4 18.8 74.3 19.5 74.5 19.3 C 74.7 19.0 74.5 17.7 74.2 17.5 C 73.9 17.3 73.2 17.4 73.2 17.2 C 73.1 17.1 73.7 16.1 73.5 16.1 C 73.4 16.1 72.7 16.3 72.6 16.3 C 72.4 16.4 71.2 16.7 71.1 16.9 C 71.0 17.1 70.8 17.8 71.1 17.6 C 71.4 17.4 71.8 17.1 72.0 17.2 C 72.2 17.4 72.3 17.5 72.2 17.6 C 72.1 17.7 71.9 17.6 71.7 18.0 C 71.6 18.4 71.3 18.3 71.4 18.6 C 71.4 18.9 71.5 19.1 71.8 19.1 C 72.1 19.0 72.5 19.3 72.5 19.6 C 72.5 19.8 71.9 19.5 71.6 20.1 C 71.3 20.8 71.2 21.2 71.4 21.4 C 71.5 21.7 72.2 21.9 71.8 22.2 C 71.4 22.4 71.3 22.1 71.1 22.6 C 70.9 23.0 71.4 23.5 71.2 23.8 C 71.1 24.1 71.0 24.2 71.0 24.2 C 71.0 24.2 70.4 23.6 69.9 24.2 C 69.4 24.8 69.2 24.9 69.8 25.1 C 70.4 25.4 70.0 25.9 69.7 25.7 C 69.3 25.5 68.8 25.6 68.5 25.8 C 68.3 26.0 68.9 26.8 68.8 26.9 C 68.8 27.0 68.4 27.2 68.3 26.9 C 68.2 26.6 67.9 26.8 67.6 26.9 C 67.3 27.0 66.6 27.6 66.7 27.7 C 66.8 27.9 67.6 28.1 66.9 28.3 C 66.1 28.4 65.7 28.1 65.2 28.4 C 64.6 28.8 65.4 29.0 65.1 29.4 C 65.1 29.4 65.1 29.4 65.1 29.4 Z M 70.7 16.8 C 71.1 17.4 73.3 15.9 73.6 15.3 C 73.9 14.8 73.3 14.3 72.9 13.6 C 72.6 13.0 72.1 13.7 71.6 13.5 C 71.2 13.3 71.7 13.1 71.9 12.7 C 72.1 12.3 71.1 11.7 70.6 11.2 C 70.1 10.6 68.9 10.8 68.4 10.5 C 67.9 10.2 68.5 11.2 67.7 10.5 C 66.9 9.8 67.6 9.7 68.8 10.3 C 69.9 10.8 68.7 9.5 68.2 9.1 C 67.6 8.6 66.3 8.2 65.8 7.9 C 65.3 7.5 65.7 8.5 64.9 8.0 C 64.1 7.6 64.8 7.2 64.0 6.7 C 63.2 6.2 63.2 6.9 62.8 6.9 C 62.5 6.9 62.7 6.5 62.5 6.4 C 62.2 6.2 61.9 5.9 61.3 5.8 C 60.7 5.7 60.8 5.9 60.5 5.9 C 60.2 5.8 59.8 5.7 59.8 5.7 C 59.8 5.4 59.8 5.2 59.9 5.0 C 59.9 5.0 58.8 4.6 58.5 4.4 C 58.2 4.2 57.4 4.3 57.5 4.5 C 57.7 4.7 56.8 4.9 56.7 4.8 C 56.5 4.6 56.1 4.1 55.7 3.9 C 55.4 3.6 55.0 5.3 55.0 5.6 C 54.9 5.8 54.5 6.6 54.8 6.8 C 55.1 7.0 55.4 6.7 55.3 7.0 C 55.2 7.2 56.2 7.2 56.4 7.3 C 56.7 7.4 57.2 6.9 57.2 6.9 C 57.2 6.9 57.6 6.4 58.0 6.6 C 58.5 6.7 58.3 7.8 58.3 7.8 C 58.3 7.8 58.7 8.1 59.2 8.3 C 59.7 8.4 60.5 7.8 60.7 7.7 C 60.9 7.5 60.6 8.3 60.9 8.5 C 61.1 8.7 61.5 9.2 61.7 9.2 C 61.8 9.2 62.3 8.8 62.3 8.8 C 62.3 8.8 63.2 8.9 63.4 9.0 C 63.6 9.1 62.9 9.6 62.9 9.6 C 62.9 9.6 64.5 10.8 64.8 11.0 C 65.1 11.3 65.7 11.4 65.9 11.5 C 66.1 11.6 67.0 11.0 67.3 11.3 C 67.5 11.6 66.6 11.6 66.8 11.9 C 67.1 12.2 67.4 12.7 67.6 12.9 C 67.7 13.0 68.1 12.9 68.3 13.0 C 68.6 13.2 69.4 12.9 69.7 13.2 C 70.0 13.6 69.8 14.0 69.8 14.2 C 69.8 14.4 69.4 14.9 69.6 15.1 C 69.7 15.4 70.0 14.9 70.1 15.1 C 70.3 15.4 70.7 15.1 70.8 15.4 C 70.8 15.7 70.1 16.0 70.3 16.2 C 70.4 16.2 70.3 16.2 70.7 16.8 C 70.7 16.8 70.7 16.8 70.7 16.8 Z M 54.0 6.5 C 54.4 7.0 54.9 6.7 54.9 6.3 C 55.0 5.9 55.0 4.9 55.3 4.7 C 55.5 4.5 56.3 4.0 55.4 3.6 C 54.6 3.2 54.4 3.5 54.3 3.7 C 54.3 3.9 53.9 4.9 53.7 4.7 C 53.5 4.6 53.3 4.3 53.3 4.1 C 53.2 4.0 53.1 2.9 52.6 3.0 C 52.2 3.0 51.7 3.2 51.7 3.2 C 51.5 3.2 51.3 3.2 51.1 3.1 C 51.1 3.1 50.6 2.4 50.1 2.5 C 49.6 2.6 49.0 2.5 48.6 2.4 C 48.3 2.3 47.9 2.3 47.8 2.5 C 47.7 2.8 47.1 3.5 47.1 3.5 C 47.1 3.5 46.6 3.7 46.3 3.5 C 46.1 3.4 46.1 2.9 46.2 2.7 C 46.3 2.5 46.3 2.1 45.9 1.9 C 45.5 1.8 43.9 1.2 43.7 1.5 C 43.4 1.7 43.4 2.1 43.2 2.2 C 43.0 2.3 42.0 2.3 41.9 2.0 C 41.8 1.8 41.9 1.3 41.6 1.3 C 41.3 1.3 40.6 1.2 40.6 1.3 C 40.6 1.5 40.4 1.6 40.4 1.9 C 40.4 2.2 39.7 2.4 39.6 2.5 C 39.5 2.6 39.0 2.7 39.0 2.7 C 38.8 2.5 38.6 2.4 38.4 2.2 C 38.4 2.2 38.7 1.7 38.9 1.6 C 39.1 1.5 38.8 1.2 38.6 1.2 C 38.4 1.1 37.2 1.2 37.2 1.2 C 37.2 1.6 37.2 2.0 37.2 2.4 C 36.9 2.5 36.6 2.5 36.3 2.6 C 36.3 2.6 36.4 1.3 35.8 1.3 C 35.3 1.3 34.6 1.4 34.6 1.4 C 34.6 1.4 34.0 1.9 33.9 1.9 C 33.7 2.0 33.7 3.2 33.7 3.2 C 33.8 3.7 33.9 4.1 33.9 4.6 C 33.9 4.6 34.6 5.0 35.0 4.8 C 35.3 4.6 35.0 4.1 35.1 3.9 C 35.1 3.6 35.6 3.4 35.6 3.4 C 35.9 3.6 36.2 3.9 36.4 4.2 C 36.4 4.2 36.7 4.4 36.9 4.6 C 37.2 4.8 38.0 5.0 38.2 4.9 C 38.5 4.8 38.7 4.4 39.0 4.2 C 39.3 4.0 39.3 3.6 39.6 3.9 C 40.0 4.2 40.2 4.6 40.4 4.6 C 40.5 4.6 41.3 4.2 41.3 4.2 C 41.6 4.1 41.8 4.0 42.0 3.9 C 42.0 3.9 42.6 3.7 42.7 4.0 C 42.8 4.2 44.0 4.0 44.0 4.0 C 44.0 4.0 43.8 4.8 44.1 5.0 C 44.4 5.1 44.8 5.4 45.3 5.3 C 45.8 5.2 46.2 4.4 46.2 4.4 C 46.4 4.7 46.5 4.9 46.6 5.1 C 47.0 5.2 47.5 5.3 47.9 5.5 C 47.9 5.5 48.9 5.5 48.9 5.4 C 49.0 5.3 48.9 4.6 49.0 4.4 C 49.1 4.2 49.7 4.1 49.7 4.3 C 49.7 4.6 50.1 5.3 50.1 5.3 C 50.1 5.3 50.4 5.8 50.7 5.9 C 51.0 6.0 51.5 5.8 51.6 5.7 C 51.7 5.6 52.3 5.2 52.3 5.2 C 52.4 5.4 52.5 5.7 52.5 5.9 C 52.5 5.9 53.4 5.7 54.0 6.5 C 54.0 6.5 54.0 6.5 54.0 6.5 Z M 33.5 5.0 C 34.6 4.9 33.7 2.3 33.2 1.8 C 32.8 1.3 32.0 1.7 31.3 1.7 C 30.6 1.7 30.9 2.5 30.5 2.8 C 30.1 3.1 30.2 2.5 30.0 2.1 C 29.7 1.8 28.6 2.2 28.0 2.3 C 27.3 2.4 26.8 3.4 26.2 3.5 C 25.7 3.6 26.8 3.9 25.8 4.0 C 24.9 4.1 25.3 3.6 26.3 3.1 C 27.3 2.6 25.8 2.7 25.2 2.7 C 24.5 2.7 23.6 3.3 23.2 3.4 C 22.7 3.4 23.4 3.9 22.8 4.1 C 22.1 4.2 22.3 3.5 21.6 3.5 C 20.9 3.6 21.1 4.2 20.8 4.5 C 20.6 4.7 20.5 4.3 20.2 4.3 C 19.9 4.4 19.4 4.3 18.9 4.6 C 18.3 5.0 18.6 5.1 18.3 5.2 C 18.1 5.4 17.6 5.5 17.6 5.5 C 17.5 5.3 17.4 5.1 17.3 4.9 C 17.3 4.9 16.2 5.3 15.8 5.4 C 15.5 5.4 14.9 6.0 15.2 6.0 C 15.4 6.1 14.9 6.8 14.7 6.8 C 14.5 6.8 13.9 6.7 13.5 6.7 C 13.1 6.7 13.9 8.3 14.0 8.5 C 14.1 8.7 14.2 9.7 14.7 9.6 C 15.1 9.4 15.1 9.1 15.1 9.3 C 15.2 9.6 15.9 9.0 16.2 8.9 C 16.4 8.8 16.4 8.1 16.4 8.1 C 16.4 8.1 16.5 7.5 16.9 7.3 C 17.3 7.2 17.8 8.1 17.8 8.1 C 17.8 8.1 18.3 8.1 18.8 7.9 C 19.3 7.7 19.6 6.7 19.6 6.4 C 19.7 6.2 19.9 7.0 20.3 7.0 C 20.7 7.0 21.3 7.1 21.5 7.0 C 21.6 6.9 21.7 6.3 21.7 6.3 C 21.7 6.3 22.3 5.8 22.5 5.7 C 22.7 5.7 22.6 6.5 22.6 6.5 C 22.6 6.5 24.1 6.4 24.4 6.4 C 24.7 6.4 25.2 6.1 25.4 6.0 C 25.6 5.9 25.8 4.9 26.1 4.9 C 26.5 4.9 25.9 5.6 26.3 5.6 C 26.6 5.6 27.3 5.7 27.4 5.7 C 27.6 5.7 27.8 5.3 28.1 5.2 C 28.3 5.1 28.6 4.3 29.1 4.3 C 29.6 4.2 29.9 4.6 30.0 4.7 C 30.2 4.8 30.4 5.4 30.8 5.4 C 31.2 5.3 30.9 4.9 31.2 4.9 C 31.6 4.9 31.5 4.4 31.9 4.4 C 32.2 4.5 32.1 5.3 32.5 5.2 C 32.6 5.1 32.5 5.2 33.5 5.0 C 33.5 5.0 33.5 5.0 33.5 5.0 Z M 13.7 10.0 C 14.4 10.0 14.7 9.3 14.5 9.0 C 14.2 8.7 13.6 8.0 13.7 7.6 C 13.8 7.3 14.2 6.3 13.0 6.7 C 11.9 7.1 11.8 7.5 11.9 7.7 C 12.0 7.9 12.3 8.9 12.0 9.0 C 11.7 9.0 11.3 8.9 11.2 8.9 C 11.0 8.8 10.1 8.2 9.8 8.6 C 9.4 9.0 9.2 9.5 9.2 9.5 C 9.0 9.7 8.8 9.8 8.6 10.0 C 8.6 10.0 7.6 10.0 7.3 10.4 C 7.0 10.9 6.6 11.3 6.2 11.5 C 5.9 11.8 5.8 12.1 5.9 12.3 C 6.0 12.5 6.3 13.4 6.3 13.4 C 6.3 13.4 6.2 13.9 5.9 14.0 C 5.7 14.1 5.3 13.9 5.2 13.7 C 5.1 13.6 4.7 13.4 4.4 13.6 C 4.1 13.9 2.9 15.0 3.1 15.3 C 3.2 15.6 3.6 15.7 3.6 15.9 C 3.6 16.1 3.4 17.0 3.1 17.0 C 2.9 17.0 2.4 16.8 2.4 17.1 C 2.3 17.4 2.1 17.9 2.2 17.9 C 2.3 17.9 2.4 18.1 2.7 18.2 C 3.0 18.3 3.2 18.8 3.3 18.9 C 3.4 19.0 3.4 19.4 3.4 19.4 C 3.3 19.6 3.1 19.7 3.0 19.9 C 3.0 19.9 2.4 19.6 2.4 19.4 C 2.3 19.3 1.9 19.5 1.9 19.7 C 1.8 19.9 2.0 20.9 2.0 20.9 C 2.4 20.9 2.8 20.9 3.2 20.9 C 3.3 21.1 3.4 21.3 3.5 21.5 C 3.5 21.5 2.1 21.7 2.3 22.2 C 2.4 22.7 2.6 23.3 2.6 23.3 C 2.6 23.3 3.3 23.6 3.3 23.7 C 3.4 23.8 4.6 23.3 4.6 23.3 C 5.0 23.1 5.4 22.9 5.8 22.7 C 5.8 22.7 6.1 22.1 5.8 21.9 C 5.6 21.8 5.1 22.1 4.9 22.2 C 4.7 22.2 4.3 21.9 4.3 21.9 C 4.5 21.6 4.8 21.4 5.0 21.2 C 5.0 21.2 5.2 21.0 5.4 20.8 C 5.6 20.6 5.7 20.1 5.6 19.9 C 5.5 19.8 5.2 19.7 4.9 19.5 C 4.7 19.2 4.3 19.2 4.7 19.0 C 5.0 18.8 5.4 18.8 5.4 18.6 C 5.4 18.5 5.1 17.9 5.1 17.9 C 5.0 17.7 5.0 17.6 4.9 17.4 C 4.9 17.4 4.9 16.9 5.1 16.9 C 5.4 17.0 5.5 16.0 5.5 16.0 C 5.5 16.0 6.2 16.5 6.4 16.4 C 6.6 16.3 7.0 16.1 7.0 15.7 C 7.1 15.3 6.7 14.6 6.7 14.6 C 6.9 14.6 7.2 14.6 7.4 14.7 C 7.7 14.4 8.0 14.2 8.3 13.9 C 8.3 13.9 8.9 13.3 8.8 13.2 C 8.7 13.1 8.2 12.6 8.1 12.5 C 8.0 12.3 8.3 11.7 8.5 11.9 C 8.7 12.0 9.4 12.2 9.4 12.2 C 9.4 12.2 10.0 12.3 10.3 12.1 C 10.6 12.0 10.9 11.5 10.9 11.3 C 10.9 11.1 11.1 10.4 11.1 10.4 C 11.3 10.5 11.6 10.6 11.8 10.7 C 11.8 10.7 12.5 9.9 13.7 10.0 C 13.7 10.0 13.7 10.0 13.7 10.0 Z M 6.3 22.8 C 6.0 22.2 3.7 23.6 3.4 24.2 C 3.1 24.8 3.7 25.3 4.1 25.9 C 4.4 26.6 4.9 25.9 5.4 26.1 C 5.8 26.3 5.3 26.5 5.1 26.9 C 4.9 27.2 5.9 27.9 6.4 28.4 C 6.9 28.9 8.1 28.8 8.6 29.1 C 9.1 29.4 8.5 28.4 9.3 29.1 C 10.1 29.8 9.4 29.9 8.3 29.3 C 7.1 28.8 8.3 30.0 8.9 30.5 C 9.4 31.0 10.7 31.4 11.2 31.7 C 11.7 32.1 11.4 31.1 12.1 31.5 C 12.9 32.0 12.2 32.4 13.0 32.9 C 13.8 33.4 13.8 32.7 14.2 32.7 C 14.5 32.7 14.3 33.0 14.5 33.2 C 14.8 33.4 15.1 33.7 15.7 33.8 C 16.3 33.9 16.2 33.6 16.5 33.7 C 16.8 33.8 17.3 33.9 17.3 33.9 C 17.2 34.1 17.2 34.4 17.1 34.6 C 17.1 34.6 18.2 35.0 18.5 35.2 C 18.8 35.3 19.6 35.3 19.5 35.1 C 19.3 34.9 20.2 34.7 20.3 34.8 C 20.5 35.0 20.9 35.5 21.3 35.7 C 21.6 35.9 22.0 34.3 22.0 34.0 C 22.1 33.8 22.5 32.9 22.2 32.8 C 21.9 32.6 21.6 32.8 21.7 32.6 C 21.8 32.4 20.8 32.4 20.6 32.3 C 20.3 32.2 19.8 32.7 19.8 32.7 C 19.8 32.7 19.4 33.2 19.0 33.0 C 18.6 32.9 18.8 31.8 18.8 31.8 C 18.8 31.8 18.3 31.5 17.8 31.3 C 17.3 31.2 16.5 31.8 16.3 31.9 C 16.1 32.1 16.4 31.3 16.2 31.1 C 15.9 30.9 15.5 30.4 15.3 30.4 C 15.2 30.4 14.7 30.8 14.7 30.8 C 14.7 30.8 13.8 30.7 13.6 30.6 C 13.4 30.5 14.1 30.0 14.1 30.0 C 14.1 30.0 12.5 28.8 12.2 28.6 C 11.9 28.3 11.3 28.2 11.1 28.1 C 10.9 28.0 10.0 28.6 9.7 28.3 C 9.5 28.0 10.4 28.0 10.2 27.7 C 9.9 27.4 9.6 26.8 9.4 26.7 C 9.3 26.6 8.9 26.7 8.7 26.6 C 8.4 26.4 7.6 26.7 7.3 26.3 C 7.0 26.0 7.2 25.6 7.2 25.4 C 7.2 25.2 7.6 24.7 7.4 24.5 C 7.3 24.2 7.1 24.7 6.9 24.4 C 6.7 24.2 6.3 24.5 6.2 24.2 C 6.2 23.9 6.9 23.6 6.7 23.4 C 6.6 23.3 6.7 23.4 6.3 22.8 C 6.3 22.8 6.3 22.8 6.3 22.8 Z M 24.2 34.0 C 23.9 34.1 23.9 33.5 23.4 33.3 C 22.9 33.0 22.2 32.8 22.3 33.1 C 22.3 33.5 22.4 33.7 22.1 34.0 C 21.7 34.3 21.2 34.9 21.5 35.3 C 21.8 35.6 23.2 36.7 23.8 36.5 C 24.4 36.2 24.6 36.1 25.0 35.9 C 25.4 35.8 25.0 36.5 25.0 36.5 C 25.0 36.5 25.9 36.8 26.5 36.9 C 27.2 37.1 27.9 37.2 28.0 37.1 C 28.1 37.0 28.4 36.8 28.4 36.8 C 28.4 36.8 28.7 37.2 29.2 37.3 C 29.6 37.5 29.5 37.2 29.4 37.0 C 29.4 36.8 28.9 36.2 29.1 36.3 C 29.3 36.3 29.8 37.2 30.2 37.3 C 30.5 37.4 31.3 37.4 31.3 37.4 C 31.3 37.4 31.3 37.0 31.4 36.9 C 31.4 36.8 32.2 36.8 32.2 37.0 C 32.3 37.1 32.1 37.6 32.5 37.7 C 33.8 37.9 33.7 37.0 33.8 36.9 C 33.9 36.9 33.8 37.6 34.1 37.7 C 34.4 37.8 36.8 37.8 37.0 37.7 C 37.1 37.5 37.9 38.1 38.3 37.7 C 38.6 37.3 38.7 37.2 38.8 37.1 C 38.9 36.9 39.3 36.3 39.6 36.5 C 39.8 36.8 38.8 37.6 39.1 37.8 C 39.4 38.0 41.0 38.0 41.2 37.8 C 41.6 37.5 41.6 36.8 41.8 36.8 C 42.1 36.8 43.0 37.6 43.0 37.4 C 43.1 37.3 43.1 36.6 43.1 36.5 C 43.1 36.3 43.3 35.1 43.1 34.9 C 43.0 34.8 42.0 34.3 42.2 34.7 C 42.3 35.0 42.5 35.5 42.2 35.6 C 41.9 35.8 41.8 35.9 41.7 35.7 C 41.6 35.6 41.8 35.4 41.2 35.2 C 40.7 35.0 41.0 34.7 40.5 34.7 C 40.0 34.8 39.6 34.9 39.6 35.1 C 39.7 35.4 39.2 35.8 38.8 35.8 C 38.5 35.8 39.0 35.2 38.0 34.9 C 36.9 34.7 36.2 34.6 35.9 34.8 C 35.5 35.0 35.4 35.8 34.9 35.4 C 34.4 35.1 34.7 34.9 34.0 34.9 C 33.3 34.8 33.0 35.4 32.6 35.4 C 32.1 35.4 32.0 35.3 32.0 35.3 C 32.0 35.3 32.3 34.5 31.3 34.4 C 30.3 34.2 30.1 34.1 30.3 34.8 C 30.4 35.4 29.6 35.3 29.7 34.9 C 29.7 34.5 29.1 34.2 28.8 34.1 C 28.5 34.0 28.2 35.0 28.1 35.0 C 27.9 35.0 27.6 34.9 27.8 34.6 C 28.0 34.3 27.6 34.2 27.3 34.0 C 27.0 33.8 26.2 33.8 26.1 33.9 C 26.1 34.1 26.4 34.8 25.9 34.4 C 25.4 34.0 25.3 33.4 24.7 33.3 C 24.2 33.2 24.6 33.9 24.2 34.0 C 24.2 34.0 24.2 34.0 24.2 34.0 Z M 44.0 34.6 C 43.4 34.3 43.0 34.8 43.1 35.2 C 43.2 35.5 43.4 36.5 43.3 36.8 C 43.1 37.1 42.5 37.8 43.5 37.9 C 44.4 38.0 44.6 37.7 44.6 37.4 C 44.5 37.2 44.6 36.2 44.9 36.2 C 45.1 36.3 45.4 36.6 45.5 36.7 C 45.6 36.8 46.0 37.8 46.4 37.6 C 46.9 37.4 47.3 37.1 47.3 37.1 C 47.5 37.0 47.7 37.0 47.9 36.9 C 47.9 36.9 48.6 37.4 49.1 37.2 C 49.6 37.0 50.1 36.9 50.5 36.9 C 50.8 36.9 51.2 36.7 51.2 36.5 C 51.2 36.3 51.5 35.4 51.5 35.4 C 51.5 35.4 52.0 35.0 52.3 35.1 C 52.5 35.2 52.7 35.6 52.7 35.8 C 52.6 36.0 52.8 36.5 53.2 36.5 C 53.5 36.5 55.2 36.6 55.3 36.3 C 55.5 35.9 55.3 35.6 55.5 35.4 C 55.6 35.3 56.6 35.0 56.7 35.2 C 56.9 35.4 57.0 35.9 57.2 35.8 C 57.5 35.6 58.1 35.6 58.1 35.5 C 58.0 35.3 58.2 35.2 58.1 34.9 C 58.0 34.6 58.5 34.2 58.6 34.0 C 58.6 33.9 59.0 33.7 59.0 33.7 C 59.2 33.8 59.5 33.9 59.7 33.9 C 59.7 33.9 59.6 34.5 59.4 34.7 C 59.3 34.8 59.7 35.0 59.9 35.0 C 60.0 35.0 61.0 34.5 61.0 34.5 C 60.9 34.2 60.8 33.8 60.7 33.4 C 60.9 33.3 61.1 33.1 61.3 32.9 C 61.3 32.9 61.7 34.2 62.2 34.0 C 62.6 33.8 63.2 33.6 63.2 33.6 C 63.2 33.6 63.4 32.9 63.5 32.8 C 63.6 32.7 63.1 31.6 63.1 31.6 C 62.9 31.2 62.7 30.8 62.4 30.4 C 62.4 30.4 61.7 30.2 61.5 30.5 C 61.3 30.8 61.8 31.1 61.8 31.4 C 61.9 31.6 61.5 32.0 61.5 32.0 C 61.2 31.9 60.9 31.7 60.6 31.5 C 60.6 31.5 60.4 31.4 60.1 31.3 C 59.8 31.1 59.1 31.3 58.9 31.4 C 58.7 31.6 58.6 32.0 58.5 32.3 C 58.3 32.6 58.5 32.9 58.1 32.7 C 57.6 32.5 57.4 32.2 57.2 32.3 C 57.1 32.3 56.5 33.0 56.5 33.0 C 56.4 33.2 56.2 33.3 56.0 33.5 C 56.0 33.5 55.6 33.8 55.4 33.6 C 55.3 33.4 54.3 33.9 54.3 33.9 C 54.3 33.9 54.2 33.1 53.9 33.0 C 53.6 33.0 53.1 32.9 52.7 33.1 C 52.3 33.4 52.1 34.2 52.1 34.2 C 51.9 34.0 51.7 33.9 51.5 33.7 C 51.1 33.7 50.7 33.7 50.2 33.8 C 50.2 33.8 49.2 34.0 49.3 34.1 C 49.3 34.2 49.5 34.9 49.5 35.1 C 49.5 35.3 49.0 35.6 48.9 35.4 C 48.8 35.2 48.2 34.6 48.2 34.6 C 48.2 34.6 47.7 34.2 47.4 34.2 C 47.1 34.2 46.7 34.5 46.6 34.7 C 46.5 34.8 46.1 35.4 46.1 35.4 C 45.9 35.2 45.8 35.0 45.6 34.8 C 45.6 34.8 44.8 35.2 44.0 34.6 C 44.0 34.6 44.0 34.6 44.0 34.6 Z M 44.0 34.6 " fill="#C03520"></path></g></svg>