<?xml version="1.0" encoding="UTF-8" standalone="no"?><svg xmlns="http://www.w3.org/2000/svg" xmlns:xlink="http://www.w3.org/1999/xlink" clip-rule="evenodd" stroke-miterlimit="4.00" viewBox="0 0 805 72"><desc>SVG generated by Keynote</desc><defs></defs><g transform="matrix(1.00, 0.00, -0.00, -1.00, 0.0, 72.0)"><text xml:space="preserve" font-family="Chalkduster" font-size="50.0" fill="#FEFFFE" transform="matrix(1.00, 0.00, -0.00, -1.00, 1.0, 29.0)">S</text><text xml:space="preserve" font-family="Chalkduster" font-size="50.0" fill="#FEFFFE" transform="matrix(1.00, 0.00, -0.00, -1.00, 25.9, 29.0)">p</text><text xml:space="preserve" font-family="Chalkduster" font-size="50.0" fill="#FEFFFE" transform="matrix(1.00, 0.00, -0.00, -1.00, 57.3, 29.0)">e</text><text xml:space="preserve" font-family="Chalkduster" font-size="50.0" fill="#FEFFFE" transform="matrix(1.00, 0.00, -0.00, -1.00, 89.1, 29.0)">c</text><text xml:space="preserve" font-family="Chalkduster" font-size="50.0" fill="#FEFFFE" transform="matrix(1.00, 0.00, -0.00, -1.00, 120.5, 29.0)">i</text><text xml:space="preserve" font-family="Chalkduster" font-size="50.0" fill="#FEFFFE" transform="matrix(1.00, 0.00, -0.00, -1.00, 140.8, 29.0)">a</text><text xml:space="preserve" font-family="Chalkduster" font-size="50.0" fill="#FEFFFE" transform="matrix(1.00, 0.00, -0.00, -1.00, 173.2, 29.0)">l</text><text xml:space="preserve" font-family="Chalkduster" font-size="50.0" fill="#FEFFFE" transform="matrix(1.00, 0.00, -0.00, -1.00, 196.6, 29.0)"> </text><text xml:space="preserve" font-family="Chalkduster" font-size="50.0" fill="#FEFFFE" transform="matrix(1.00, 0.00, -0.00, -1.00, 221.5, 29.0)">c</text><text xml:space="preserve" font-family="Chalkduster" font-size="50.0" fill="#FEFFFE" transform="matrix(1.00, 0.00, -0.00, -1.00, 253.0, 29.0)">h</text><text xml:space="preserve" font-family="Chalkduster" font-size="50.0" fill="#FEFFFE" transform="matrix(1.00, 0.00, -0.00, -1.00, 283.9, 29.0)">a</text><text xml:space="preserve" font-family="Chalkduster" font-size="50.0" fill="#FEFFFE" transform="matrix(1.00, 0.00, -0.00, -1.00, 315.7, 29.0)">r</text><text xml:space="preserve" font-family="Chalkduster" font-size="50.0" fill="#FEFFFE" transform="matrix(1.00, 0.00, -0.00, -1.00, 342.1, 29.0)">a</text><text xml:space="preserve" font-family="Chalkduster" font-size="50.0" fill="#FEFFFE" transform="matrix(1.00, 0.00, -0.00, -1.00, 375.0, 29.0)">c</text><text xml:space="preserve" font-family="Chalkduster" font-size="50.0" fill="#FEFFFE" transform="matrix(1.00, 0.00, -0.00, -1.00, 404.6, 29.0)">t</text><text xml:space="preserve" font-family="Chalkduster" font-size="50.0" fill="#FEFFFE" transform="matrix(1.00, 0.00, -0.00, -1.00, 427.0, 29.0)">e</text><text xml:space="preserve" font-family="Chalkduster" font-size="50.0" fill="#FEFFFE" transform="matrix(1.00, 0.00, -0.00, -1.00, 457.5, 29.0)">r</text><text xml:space="preserve" font-family="Chalkduster" font-size="50.0" fill="#FEFFFE" transform="matrix(1.00, 0.00, -0.00, -1.00, 483.3, 29.0)">s</text><text xml:space="preserve" font-family="Chalkduster" font-size="50.0" fill="#FEFFFE" transform="matrix(1.00, 0.00, -0.00, -1.00, 508.5, 29.0)"> </text><text xml:space="preserve" font-family="Chalkduster" font-size="50.0" fill="#FEFFFE" transform="matrix(1.00, 0.00, -0.00, -1.00, 533.4, 29.0)">i</text><text xml:space="preserve" font-family="Chalkduster" font-size="50.0" fill="#FEFFFE" transform="matrix(1.00, 0.00, -0.00, -1.00, 553.1, 29.0)">n</text><text xml:space="preserve" font-family="Chalkduster" font-size="50.0" fill="#FEFFFE" transform="matrix(1.00, 0.00, -0.00, -1.00, 589.8, 29.0)"> </text><text xml:space="preserve" font-family="Chalkduster" font-size="50.0" fill="#FEFFFE" transform="matrix(1.00, 0.00, -0.00, -1.00, 614.7, 29.0)">S</text><text xml:space="preserve" font-family="Chalkduster" font-size="50.0" fill="#FEFFFE" transform="matrix(1.00, 0.00, -0.00, -1.00, 639.5, 29.0)">t</text><text xml:space="preserve" font-family="Chalkduster" font-size="50.0" fill="#FEFFFE" transform="matrix(1.00, 0.00, -0.00, -1.00, 662.4, 29.0)">r</text><text xml:space="preserve" font-family="Chalkduster" font-size="50.0" fill="#FEFFFE" transform="matrix(1.00, 0.00, -0.00, -1.00, 690.1, 29.0)">i</text><text xml:space="preserve" font-family="Chalkduster" font-size="50.0" fill="#FEFFFE" transform="matrix(1.00, 0.00, -0.00, -1.00, 709.8, 29.0)">n</text><text xml:space="preserve" font-family="Chalkduster" font-size="50.0" fill="#FEFFFE" transform="matrix(1.00, 0.00, -0.00, -1.00, 744.9, 29.0)">g</text><text xml:space="preserve" font-family="Chalkduster" font-size="50.0" fill="#FEFFFE" transform="matrix(1.00, 0.00, -0.00, -1.00, 780.5, 29.0)">s</text></g></svg>