<?xml version="1.0" encoding="UTF-8" standalone="no"?><svg xmlns="http://www.w3.org/2000/svg" xmlns:xlink="http://www.w3.org/1999/xlink" clip-rule="evenodd" stroke-miterlimit="4.00" viewBox="0 0 855 112"><desc>SVG generated by Keynote</desc><defs></defs><g transform="matrix(1.00, 0.00, -0.00, -1.00, 0.0, 112.0)"><text xml:space="preserve" font-family="Chalkduster" font-size="24.0" fill="#FEFFFE" transform="matrix(1.00, 0.00, -0.00, -1.00, 0.0, 90.0)">O</text><text xml:space="preserve" font-family="Chalkduster" font-size="24.0" fill="#FEFFFE" transform="matrix(1.00, 0.00, -0.00, -1.00, 17.4, 90.0)">p</text><text xml:space="preserve" font-family="Chalkduster" font-size="24.0" fill="#FEFFFE" transform="matrix(1.00, 0.00, -0.00, -1.00, 32.5, 90.0)">e</text><text xml:space="preserve" font-family="Chalkduster" font-size="24.0" fill="#FEFFFE" transform="matrix(1.00, 0.00, -0.00, -1.00, 47.6, 90.0)">n</text><text xml:space="preserve" font-family="Chalkduster" font-size="24.0" fill="#FEFFFE" transform="matrix(1.00, 0.00, -0.00, -1.00, 65.2, 90.0)"> </text><text xml:space="preserve" font-family="Chalkduster" font-size="24.0" fill="#FEFFFE" transform="matrix(1.00, 0.00, -0.00, -1.00, 77.2, 90.0)">a</text><text xml:space="preserve" font-family="Chalkduster" font-size="24.0" fill="#FEFFFE" transform="matrix(1.00, 0.00, -0.00, -1.00, 93.7, 90.0)"> </text><text xml:space="preserve" font-family="Chalkduster" font-size="24.0" fill="#FEFFFE" transform="matrix(1.00, 0.00, -0.00, -1.00, 105.6, 90.0)">t</text><text xml:space="preserve" font-family="Chalkduster" font-size="24.0" fill="#FEFFFE" transform="matrix(1.00, 0.00, -0.00, -1.00, 116.3, 90.0)">e</text><text xml:space="preserve" font-family="Chalkduster" font-size="24.0" fill="#FEFFFE" transform="matrix(1.00, 0.00, -0.00, -1.00, 130.5, 90.0)">x</text><text xml:space="preserve" font-family="Chalkduster" font-size="24.0" fill="#FEFFFE" transform="matrix(1.00, 0.00, -0.00, -1.00, 145.7, 90.0)">t</text><text xml:space="preserve" font-family="Chalkduster" font-size="24.0" fill="#FEFFFE" transform="matrix(1.00, 0.00, -0.00, -1.00, 156.7, 90.0)"> </text><text xml:space="preserve" font-family="Chalkduster" font-size="24.0" fill="#FEFFFE" transform="matrix(1.00, 0.00, -0.00, -1.00, 168.7, 90.0)">e</text><text xml:space="preserve" font-family="Chalkduster" font-size="24.0" fill="#FEFFFE" transform="matrix(1.00, 0.00, -0.00, -1.00, 184.3, 90.0)">d</text><text xml:space="preserve" font-family="Chalkduster" font-size="24.0" fill="#FEFFFE" transform="matrix(1.00, 0.00, -0.00, -1.00, 204.0, 90.0)">i</text><text xml:space="preserve" font-family="Chalkduster" font-size="24.0" fill="#FEFFFE" transform="matrix(1.00, 0.00, -0.00, -1.00, 213.8, 90.0)">t</text><text xml:space="preserve" font-family="Chalkduster" font-size="24.0" fill="#FEFFFE" transform="matrix(1.00, 0.00, -0.00, -1.00, 223.6, 90.0)">o</text><text xml:space="preserve" font-family="Chalkduster" font-size="24.0" fill="#FEFFFE" transform="matrix(1.00, 0.00, -0.00, -1.00, 241.1, 90.0)">r</text><text xml:space="preserve" font-family="Chalkduster" font-size="24.0" fill="#FEFFFE" transform="matrix(1.00, 0.00, -0.00, -1.00, 253.4, 90.0)">:</text><text xml:space="preserve" font-family="Chalkduster" font-size="24.0" fill="#FEFFFE" transform="matrix(1.00, 0.00, -0.00, -1.00, 261.3, 90.0)"> </text><text xml:space="preserve" font-family="Chalkduster" font-size="24.0" fill="#FEFFFE" transform="matrix(1.00, 0.00, -0.00, -1.00, 0.0, 49.9)">*</text><text xml:space="preserve" font-family="Chalkduster" font-size="24.0" fill="#FEFFFE" transform="matrix(1.00, 0.00, -0.00, -1.00, 30.0, 53.0)">F</text><text xml:space="preserve" font-family="Chalkduster" font-size="24.0" fill="#FEFFFE" transform="matrix(1.00, 0.00, -0.00, -1.00, 47.9, 53.0)">i</text><text xml:space="preserve" font-family="Chalkduster" font-size="24.0" fill="#FEFFFE" transform="matrix(1.00, 0.00, -0.00, -1.00, 57.4, 53.0)">r</text><text xml:space="preserve" font-family="Chalkduster" font-size="24.0" fill="#FEFFFE" transform="matrix(1.00, 0.00, -0.00, -1.00, 69.7, 53.0)">s</text><text xml:space="preserve" font-family="Chalkduster" font-size="24.0" fill="#FEFFFE" transform="matrix(1.00, 0.00, -0.00, -1.00, 82.6, 53.0)">t</text><text xml:space="preserve" font-family="Chalkduster" font-size="24.0" fill="#FEFFFE" transform="matrix(1.00, 0.00, -0.00, -1.00, 93.6, 53.0)"> </text><text xml:space="preserve" font-family="Chalkduster" font-size="24.0" fill="#FEFFFE" transform="matrix(1.00, 0.00, -0.00, -1.00, 105.5, 53.0)">l</text><text xml:space="preserve" font-family="Chalkduster" font-size="24.0" fill="#FEFFFE" transform="matrix(1.00, 0.00, -0.00, -1.00, 117.0, 53.0)">i</text><text xml:space="preserve" font-family="Chalkduster" font-size="24.0" fill="#FEFFFE" transform="matrix(1.00, 0.00, -0.00, -1.00, 126.5, 53.0)">n</text><text xml:space="preserve" font-family="Chalkduster" font-size="24.0" fill="#FEFFFE" transform="matrix(1.00, 0.00, -0.00, -1.00, 144.5, 53.0)">e</text><text xml:space="preserve" font-family="Chalkduster" font-size="24.0" fill="#FEFFFE" transform="matrix(1.00, 0.00, -0.00, -1.00, 159.3, 53.0)">:</text><text xml:space="preserve" font-family="Chalkduster" font-size="24.0" fill="#FEFFFE" transform="matrix(1.00, 0.00, -0.00, -1.00, 167.3, 53.0)"> </text><text xml:space="preserve" font-family="Chalkduster" font-size="24.0" fill="#FEFFFE" transform="matrix(1.00, 0.00, -0.00, -1.00, 179.2, 53.0)"> </text><text xml:space="preserve" font-family="Chalkduster" font-size="24.0" fill="#FEFFFE" transform="matrix(1.00, 0.00, -0.00, -1.00, 191.1, 53.0)"> </text><text xml:space="preserve" font-family="Chalkduster" font-size="24.0" fill="#FEFFFE" transform="matrix(1.00, 0.00, -0.00, -1.00, 203.1, 53.0)"> </text><text xml:space="preserve" font-family="Chalkduster" font-size="24.0" fill="#FEFFFE" transform="matrix(1.00, 0.00, -0.00, -1.00, 215.0, 53.0)"> </text><text xml:space="preserve" font-family="Chalkduster" font-size="24.0" fill="#FEFFFE" transform="matrix(1.00, 0.00, -0.00, -1.00, 226.9, 53.0)"> </text><text xml:space="preserve" font-family="Chalkduster" font-size="24.0" fill="#FEFFFE" transform="matrix(1.00, 0.00, -0.00, -1.00, 238.8, 53.0)"> </text><text xml:space="preserve" font-family="Chalkduster" font-size="24.0" fill="#FEFFFE" transform="matrix(1.00, 0.00, -0.00, -1.00, 250.8, 53.0)"> </text><text xml:space="preserve" font-family="Chalkduster" font-size="24.0" fill="#FEFFFE" transform="matrix(1.00, 0.00, -0.00, -1.00, 262.7, 53.0)"> </text><text xml:space="preserve" font-family="Chalkduster" font-size="24.0" fill="#FEFFFE" transform="matrix(1.00, 0.00, -0.00, -1.00, 274.6, 53.0)"> </text><text xml:space="preserve" font-family="Chalkduster" font-size="24.0" fill="#FEFFFE" transform="matrix(1.00, 0.00, -0.00, -1.00, 286.6, 53.0)"> </text><text xml:space="preserve" font-family="Chalkduster" font-size="24.0" fill="#FEFFFE" transform="matrix(1.00, 0.00, -0.00, -1.00, 298.5, 53.0)"> </text><text xml:space="preserve" font-family="Chalkduster" font-size="24.0" fill="#FEFFFE" transform="matrix(1.00, 0.00, -0.00, -1.00, 310.4, 53.0)"> </text><text xml:space="preserve" font-family="Chalkduster" font-size="24.0" fill="#FEFFFE" transform="matrix(1.00, 0.00, -0.00, -1.00, 322.3, 53.0)"> </text><text xml:space="preserve" font-family="Chalkduster" font-size="24.0" fill="#FEFFFE" transform="matrix(1.00, 0.00, -0.00, -1.00, 334.3, 53.0)"> </text><text xml:space="preserve" font-family="Chalkduster" font-size="24.0" fill="#FEFFFE" transform="matrix(1.00, 0.00, -0.00, -1.00, 346.2, 53.0)"> </text><text xml:space="preserve" font-family="Chalkduster" font-size="24.0" fill="#A8E685" transform="matrix(1.00, 0.00, -0.00, -1.00, 358.2, 53.0)">#</text><text xml:space="preserve" font-family="Chalkduster" font-size="24.0" fill="#A8E685" transform="matrix(1.00, 0.00, -0.00, -1.00, 382.4, 53.0)">!</text><text xml:space="preserve" font-family="Chalkduster" font-size="24.0" fill="#A8E685" transform="matrix(1.00, 0.00, -0.00, -1.00, 390.9, 53.0)">/</text><text xml:space="preserve" font-family="Chalkduster" font-size="24.0" fill="#A8E685" transform="matrix(1.00, 0.00, -0.00, -1.00, 403.8, 53.0)">u</text><text xml:space="preserve" font-family="Chalkduster" font-size="24.0" fill="#A8E685" transform="matrix(1.00, 0.00, -0.00, -1.00, 421.0, 53.0)">s</text><text xml:space="preserve" font-family="Chalkduster" font-size="24.0" fill="#A8E685" transform="matrix(1.00, 0.00, -0.00, -1.00, 433.1, 53.0)">r</text><text xml:space="preserve" font-family="Chalkduster" font-size="24.0" fill="#A8E685" transform="matrix(1.00, 0.00, -0.00, -1.00, 444.2, 53.0)">/</text><text xml:space="preserve" font-family="Chalkduster" font-size="24.0" fill="#A8E685" transform="matrix(1.00, 0.00, -0.00, -1.00, 459.1, 53.0)">b</text><text xml:space="preserve" font-family="Chalkduster" font-size="24.0" fill="#A8E685" transform="matrix(1.00, 0.00, -0.00, -1.00, 473.0, 53.0)">i</text><text xml:space="preserve" font-family="Chalkduster" font-size="24.0" fill="#A8E685" transform="matrix(1.00, 0.00, -0.00, -1.00, 482.5, 53.0)">n</text><text xml:space="preserve" font-family="Chalkduster" font-size="24.0" fill="#A8E685" transform="matrix(1.00, 0.00, -0.00, -1.00, 500.1, 53.0)">/</text><text xml:space="preserve" font-family="Chalkduster" font-size="24.0" fill="#A8E685" transform="matrix(1.00, 0.00, -0.00, -1.00, 513.4, 53.0)">p</text><text xml:space="preserve" font-family="Chalkduster" font-size="24.0" fill="#A8E685" transform="matrix(1.00, 0.00, -0.00, -1.00, 528.3, 53.0)">y</text><text xml:space="preserve" font-family="Chalkduster" font-size="24.0" fill="#A8E685" transform="matrix(1.00, 0.00, -0.00, -1.00, 542.9, 53.0)">t</text><text xml:space="preserve" font-family="Chalkduster" font-size="24.0" fill="#A8E685" transform="matrix(1.00, 0.00, -0.00, -1.00, 554.4, 53.0)">h</text><text xml:space="preserve" font-family="Chalkduster" font-size="24.0" fill="#A8E685" transform="matrix(1.00, 0.00, -0.00, -1.00, 569.2, 53.0)">o</text><text xml:space="preserve" font-family="Chalkduster" font-size="24.0" fill="#A8E685" transform="matrix(1.00, 0.00, -0.00, -1.00, 587.0, 53.0)">n</text><text xml:space="preserve" font-family="Chalkduster" font-size="24.0" fill="#A8E685" transform="matrix(1.00, 0.00, -0.00, -1.00, 604.6, 53.0)"> </text><text xml:space="preserve" font-family="Chalkduster" font-size="24.0" fill="#FEFFFE" transform="matrix(1.00, 0.00, -0.00, -1.00, 0.0, 12.9)">*</text><text xml:space="preserve" font-family="Chalkduster" font-size="24.0" fill="#FEFFFE" transform="matrix(1.00, 0.00, -0.00, -1.00, 30.0, 16.0)">S</text><text xml:space="preserve" font-family="Chalkduster" font-size="24.0" fill="#FEFFFE" transform="matrix(1.00, 0.00, -0.00, -1.00, 41.9, 16.0)">e</text><text xml:space="preserve" font-family="Chalkduster" font-size="24.0" fill="#FEFFFE" transform="matrix(1.00, 0.00, -0.00, -1.00, 57.2, 16.0)">c</text><text xml:space="preserve" font-family="Chalkduster" font-size="24.0" fill="#FEFFFE" transform="matrix(1.00, 0.00, -0.00, -1.00, 71.6, 16.0)">o</text><text xml:space="preserve" font-family="Chalkduster" font-size="24.0" fill="#FEFFFE" transform="matrix(1.00, 0.00, -0.00, -1.00, 89.4, 16.0)">n</text><text xml:space="preserve" font-family="Chalkduster" font-size="24.0" fill="#FEFFFE" transform="matrix(1.00, 0.00, -0.00, -1.00, 107.0, 16.0)">d</text><text xml:space="preserve" font-family="Chalkduster" font-size="24.0" fill="#FEFFFE" transform="matrix(1.00, 0.00, -0.00, -1.00, 125.7, 16.0)"> </text><text xml:space="preserve" font-family="Chalkduster" font-size="24.0" fill="#FEFFFE" transform="matrix(1.00, 0.00, -0.00, -1.00, 137.7, 16.0)">l</text><text xml:space="preserve" font-family="Chalkduster" font-size="24.0" fill="#FEFFFE" transform="matrix(1.00, 0.00, -0.00, -1.00, 149.2, 16.0)">i</text><text xml:space="preserve" font-family="Chalkduster" font-size="24.0" fill="#FEFFFE" transform="matrix(1.00, 0.00, -0.00, -1.00, 158.7, 16.0)">n</text><text xml:space="preserve" font-family="Chalkduster" font-size="24.0" fill="#FEFFFE" transform="matrix(1.00, 0.00, -0.00, -1.00, 176.7, 16.0)">e</text><text xml:space="preserve" font-family="Chalkduster" font-size="24.0" fill="#FEFFFE" transform="matrix(1.00, 0.00, -0.00, -1.00, 191.5, 16.0)"> </text><text xml:space="preserve" font-family="Chalkduster" font-size="24.0" fill="#FEFFFE" transform="matrix(1.00, 0.00, -0.00, -1.00, 203.5, 16.0)">(</text><text xml:space="preserve" font-family="Chalkduster" font-size="24.0" fill="#FEFFFE" transform="matrix(1.00, 0.00, -0.00, -1.00, 213.1, 16.0)">o</text><text xml:space="preserve" font-family="Chalkduster" font-size="24.0" fill="#FEFFFE" transform="matrix(1.00, 0.00, -0.00, -1.00, 230.5, 16.0)">p</text><text xml:space="preserve" font-family="Chalkduster" font-size="24.0" fill="#FEFFFE" transform="matrix(1.00, 0.00, -0.00, -1.00, 245.6, 16.0)">t</text><text xml:space="preserve" font-family="Chalkduster" font-size="24.0" fill="#FEFFFE" transform="matrix(1.00, 0.00, -0.00, -1.00, 256.7, 16.0)">i</text><text xml:space="preserve" font-family="Chalkduster" font-size="24.0" fill="#FEFFFE" transform="matrix(1.00, 0.00, -0.00, -1.00, 266.2, 16.0)">o</text><text xml:space="preserve" font-family="Chalkduster" font-size="24.0" fill="#FEFFFE" transform="matrix(1.00, 0.00, -0.00, -1.00, 284.0, 16.0)">n</text><text xml:space="preserve" font-family="Chalkduster" font-size="24.0" fill="#FEFFFE" transform="matrix(1.00, 0.00, -0.00, -1.00, 301.6, 16.0)">a</text><text xml:space="preserve" font-family="Chalkduster" font-size="24.0" fill="#FEFFFE" transform="matrix(1.00, 0.00, -0.00, -1.00, 317.1, 16.0)">l</text><text xml:space="preserve" font-family="Chalkduster" font-size="24.0" fill="#FEFFFE" transform="matrix(1.00, 0.00, -0.00, -1.00, 327.5, 16.0)">)</text><text xml:space="preserve" font-family="Chalkduster" font-size="24.0" fill="#FEFFFE" transform="matrix(1.00, 0.00, -0.00, -1.00, 339.5, 16.0)">:</text><text xml:space="preserve" font-family="Chalkduster" font-size="24.0" fill="#FEFFFE" transform="matrix(1.00, 0.00, -0.00, -1.00, 347.5, 16.0)"> </text><text xml:space="preserve" font-family="Chalkduster" font-size="24.0" fill="#A8E685" transform="matrix(1.00, 0.00, -0.00, -1.00, 359.4, 16.0)">#</text><text xml:space="preserve" font-family="Chalkduster" font-size="24.0" fill="#A8E685" transform="matrix(1.00, 0.00, -0.00, -1.00, 383.6, 16.0)"> </text><text xml:space="preserve" font-family="Chalkduster" font-size="24.0" fill="#A8E685" transform="matrix(1.00, 0.00, -0.00, -1.00, 395.6, 16.0)">-</text><text xml:space="preserve" font-family="Chalkduster" font-size="24.0" fill="#A8E685" transform="matrix(1.00, 0.00, -0.00, -1.00, 410.1, 16.0)">*</text><text xml:space="preserve" font-family="Chalkduster" font-size="24.0" fill="#A8E685" transform="matrix(1.00, 0.00, -0.00, -1.00, 424.4, 16.0)">-</text><text xml:space="preserve" font-family="Chalkduster" font-size="24.0" fill="#A8E685" transform="matrix(1.00, 0.00, -0.00, -1.00, 438.9, 16.0)"> </text><text xml:space="preserve" font-family="Chalkduster" font-size="24.0" fill="#A8E685" transform="matrix(1.00, 0.00, -0.00, -1.00, 450.9, 16.0)">c</text><text xml:space="preserve" font-family="Chalkduster" font-size="24.0" fill="#A8E685" transform="matrix(1.00, 0.00, -0.00, -1.00, 465.2, 16.0)">o</text><text xml:space="preserve" font-family="Chalkduster" font-size="24.0" fill="#A8E685" transform="matrix(1.00, 0.00, -0.00, -1.00, 483.7, 16.0)">d</text><text xml:space="preserve" font-family="Chalkduster" font-size="24.0" fill="#A8E685" transform="matrix(1.00, 0.00, -0.00, -1.00, 503.4, 16.0)">i</text><text xml:space="preserve" font-family="Chalkduster" font-size="24.0" fill="#A8E685" transform="matrix(1.00, 0.00, -0.00, -1.00, 512.9, 16.0)">n</text><text xml:space="preserve" font-family="Chalkduster" font-size="24.0" fill="#A8E685" transform="matrix(1.00, 0.00, -0.00, -1.00, 529.7, 16.0)">g</text><text xml:space="preserve" font-family="Chalkduster" font-size="24.0" fill="#A8E685" transform="matrix(1.00, 0.00, -0.00, -1.00, 544.9, 16.0)">:</text><text xml:space="preserve" font-family="Chalkduster" font-size="24.0" fill="#A8E685" transform="matrix(1.00, 0.00, -0.00, -1.00, 552.8, 16.0)"> </text><text xml:space="preserve" font-family="Chalkduster" font-size="24.0" fill="#A8E685" transform="matrix(1.00, 0.00, -0.00, -1.00, 564.7, 16.0)">&lt;</text><text xml:space="preserve" font-family="Chalkduster" font-size="24.0" fill="#A8E685" transform="matrix(1.00, 0.00, -0.00, -1.00, 576.2, 16.0)">s</text><text xml:space="preserve" font-family="Chalkduster" font-size="24.0" fill="#A8E685" transform="matrix(1.00, 0.00, -0.00, -1.00, 588.4, 16.0)">o</text><text xml:space="preserve" font-family="Chalkduster" font-size="24.0" fill="#A8E685" transform="matrix(1.00, 0.00, -0.00, -1.00, 606.4, 16.0)">m</text><text xml:space="preserve" font-family="Chalkduster" font-size="24.0" fill="#A8E685" transform="matrix(1.00, 0.00, -0.00, -1.00, 631.2, 16.0)">e</text><text xml:space="preserve" font-family="Chalkduster" font-size="24.0" fill="#A8E685" transform="matrix(1.00, 0.00, -0.00, -1.00, 646.1, 16.0)"> </text><text xml:space="preserve" font-family="Chalkduster" font-size="24.0" fill="#A8E685" transform="matrix(1.00, 0.00, -0.00, -1.00, 658.0, 16.0)">e</text><text xml:space="preserve" font-family="Chalkduster" font-size="24.0" fill="#A8E685" transform="matrix(1.00, 0.00, -0.00, -1.00, 673.2, 16.0)">n</text><text xml:space="preserve" font-family="Chalkduster" font-size="24.0" fill="#A8E685" transform="matrix(1.00, 0.00, -0.00, -1.00, 690.8, 16.0)">c</text><text xml:space="preserve" font-family="Chalkduster" font-size="24.0" fill="#A8E685" transform="matrix(1.00, 0.00, -0.00, -1.00, 705.1, 16.0)">o</text><text xml:space="preserve" font-family="Chalkduster" font-size="24.0" fill="#A8E685" transform="matrix(1.00, 0.00, -0.00, -1.00, 723.6, 16.0)">d</text><text xml:space="preserve" font-family="Chalkduster" font-size="24.0" fill="#A8E685" transform="matrix(1.00, 0.00, -0.00, -1.00, 743.3, 16.0)">i</text><text xml:space="preserve" font-family="Chalkduster" font-size="24.0" fill="#A8E685" transform="matrix(1.00, 0.00, -0.00, -1.00, 752.8, 16.0)">n</text><text xml:space="preserve" font-family="Chalkduster" font-size="24.0" fill="#A8E685" transform="matrix(1.00, 0.00, -0.00, -1.00, 769.6, 16.0)">g</text><text xml:space="preserve" font-family="Chalkduster" font-size="24.0" fill="#A8E685" transform="matrix(1.00, 0.00, -0.00, -1.00, 786.0, 16.0)">&gt;</text><text xml:space="preserve" font-family="Chalkduster" font-size="24.0" fill="#A8E685" transform="matrix(1.00, 0.00, -0.00, -1.00, 797.7, 16.0)"> </text><text xml:space="preserve" font-family="Chalkduster" font-size="24.0" fill="#A8E685" transform="matrix(1.00, 0.00, -0.00, -1.00, 809.6, 16.0)">-</text><text xml:space="preserve" font-family="Chalkduster" font-size="24.0" fill="#A8E685" transform="matrix(1.00, 0.00, -0.00, -1.00, 824.1, 16.0)">*</text><text xml:space="preserve" font-family="Chalkduster" font-size="24.0" fill="#A8E685" transform="matrix(1.00, 0.00, -0.00, -1.00, 838.5, 16.0)">-</text></g></svg>