<?xml version="1.0" encoding="UTF-8" standalone="no"?><svg xmlns="http://www.w3.org/2000/svg" xmlns:xlink="http://www.w3.org/1999/xlink" clip-rule="evenodd" stroke-miterlimit="4.00" viewBox="0 0 607 40"><desc>SVG generated by Keynote</desc><defs></defs><g transform="matrix(1.00, 0.00, -0.00, -1.00, 0.0, 40.0)"><text xml:space="preserve" font-family="Chalkduster" font-size="24.0" fill="#FEFFFE" transform="matrix(1.00, 0.00, -0.00, -1.00, 0.0, 12.9)">*</text><text xml:space="preserve" font-family="Chalkduster" font-size="24.0" fill="#FEFFFE" transform="matrix(1.00, 0.00, -0.00, -1.00, 30.0, 16.0)">F</text><text xml:space="preserve" font-family="Chalkduster" font-size="24.0" fill="#FEFFFE" transform="matrix(1.00, 0.00, -0.00, -1.00, 47.9, 16.0)">i</text><text xml:space="preserve" font-family="Chalkduster" font-size="24.0" fill="#FEFFFE" transform="matrix(1.00, 0.00, -0.00, -1.00, 57.4, 16.0)">r</text><text xml:space="preserve" font-family="Chalkduster" font-size="24.0" fill="#FEFFFE" transform="matrix(1.00, 0.00, -0.00, -1.00, 69.7, 16.0)">s</text><text xml:space="preserve" font-family="Chalkduster" font-size="24.0" fill="#FEFFFE" transform="matrix(1.00, 0.00, -0.00, -1.00, 82.6, 16.0)">t</text><text xml:space="preserve" font-family="Chalkduster" font-size="24.0" fill="#FEFFFE" transform="matrix(1.00, 0.00, -0.00, -1.00, 93.6, 16.0)"> </text><text xml:space="preserve" font-family="Chalkduster" font-size="24.0" fill="#FEFFFE" transform="matrix(1.00, 0.00, -0.00, -1.00, 105.5, 16.0)">l</text><text xml:space="preserve" font-family="Chalkduster" font-size="24.0" fill="#FEFFFE" transform="matrix(1.00, 0.00, -0.00, -1.00, 117.0, 16.0)">i</text><text xml:space="preserve" font-family="Chalkduster" font-size="24.0" fill="#FEFFFE" transform="matrix(1.00, 0.00, -0.00, -1.00, 126.5, 16.0)">n</text><text xml:space="preserve" font-family="Chalkduster" font-size="24.0" fill="#FEFFFE" transform="matrix(1.00, 0.00, -0.00, -1.00, 144.5, 16.0)">e</text><text xml:space="preserve" font-family="Chalkduster" font-size="24.0" fill="#FEFFFE" transform="matrix(1.00, 0.00, -0.00, -1.00, 159.3, 16.0)">:</text><text xml:space="preserve" font-family="Chalkduster" font-size="24.0" fill="#FEFFFE" transform="matrix(1.00, 0.00, -0.00, -1.00, 167.3, 16.0)"> </text><text xml:space="preserve" font-family="Chalkduster" font-size="24.0" fill="#FEFFFE" transform="matrix(1.00, 0.00, -0.00, -1.00, 179.2, 16.0)"> </text><text xml:space="preserve" font-family="Chalkduster" font-size="24.0" fill="#FEFFFE" transform="matrix(1.00, 0.00, -0.00, -1.00, 191.1, 16.0)"> </text><text xml:space="preserve" font-family="Chalkduster" font-size="24.0" fill="#FEFFFE" transform="matrix(1.00, 0.00, -0.00, -1.00, 203.1, 16.0)"> </text><text xml:space="preserve" font-family="Chalkduster" font-size="24.0" fill="#FEFFFE" transform="matrix(1.00, 0.00, -0.00, -1.00, 215.0, 16.0)"> </text><text xml:space="preserve" font-family="Chalkduster" font-size="24.0" fill="#FEFFFE" transform="matrix(1.00, 0.00, -0.00, -1.00, 226.9, 16.0)"> </text><text xml:space="preserve" font-family="Chalkduster" font-size="24.0" fill="#FEFFFE" transform="matrix(1.00, 0.00, -0.00, -1.00, 238.8, 16.0)"> </text><text xml:space="preserve" font-family="Chalkduster" font-size="24.0" fill="#FEFFFE" transform="matrix(1.00, 0.00, -0.00, -1.00, 250.8, 16.0)"> </text><text xml:space="preserve" font-family="Chalkduster" font-size="24.0" fill="#FEFFFE" transform="matrix(1.00, 0.00, -0.00, -1.00, 262.7, 16.0)"> </text><text xml:space="preserve" font-family="Chalkduster" font-size="24.0" fill="#FEFFFE" transform="matrix(1.00, 0.00, -0.00, -1.00, 274.6, 16.0)"> </text><text xml:space="preserve" font-family="Chalkduster" font-size="24.0" fill="#FEFFFE" transform="matrix(1.00, 0.00, -0.00, -1.00, 286.6, 16.0)"> </text><text xml:space="preserve" font-family="Chalkduster" font-size="24.0" fill="#FEFFFE" transform="matrix(1.00, 0.00, -0.00, -1.00, 298.5, 16.0)"> </text><text xml:space="preserve" font-family="Chalkduster" font-size="24.0" fill="#FEFFFE" transform="matrix(1.00, 0.00, -0.00, -1.00, 310.4, 16.0)"> </text><text xml:space="preserve" font-family="Chalkduster" font-size="24.0" fill="#FEFFFE" transform="matrix(1.00, 0.00, -0.00, -1.00, 322.3, 16.0)"> </text><text xml:space="preserve" font-family="Chalkduster" font-size="24.0" fill="#FEFFFE" transform="matrix(1.00, 0.00, -0.00, -1.00, 334.3, 16.0)"> </text><text xml:space="preserve" font-family="Chalkduster" font-size="24.0" fill="#FEFFFE" transform="matrix(1.00, 0.00, -0.00, -1.00, 346.2, 16.0)"> </text><text xml:space="preserve" font-family="Chalkduster" font-size="24.0" fill="#A8E685" transform="matrix(1.00, 0.00, -0.00, -1.00, 358.2, 16.0)">#</text><text xml:space="preserve" font-family="Chalkduster" font-size="24.0" fill="#A8E685" transform="matrix(1.00, 0.00, -0.00, -1.00, 382.4, 16.0)">!</text><text xml:space="preserve" font-family="Chalkduster" font-size="24.0" fill="#A8E685" transform="matrix(1.00, 0.00, -0.00, -1.00, 390.9, 16.0)">/</text><text xml:space="preserve" font-family="Chalkduster" font-size="24.0" fill="#A8E685" transform="matrix(1.00, 0.00, -0.00, -1.00, 403.8, 16.0)">u</text><text xml:space="preserve" font-family="Chalkduster" font-size="24.0" fill="#A8E685" transform="matrix(1.00, 0.00, -0.00, -1.00, 421.0, 16.0)">s</text><text xml:space="preserve" font-family="Chalkduster" font-size="24.0" fill="#A8E685" transform="matrix(1.00, 0.00, -0.00, -1.00, 433.1, 16.0)">r</text><text xml:space="preserve" font-family="Chalkduster" font-size="24.0" fill="#A8E685" transform="matrix(1.00, 0.00, -0.00, -1.00, 444.2, 16.0)">/</text><text xml:space="preserve" font-family="Chalkduster" font-size="24.0" fill="#A8E685" transform="matrix(1.00, 0.00, -0.00, -1.00, 459.1, 16.0)">b</text><text xml:space="preserve" font-family="Chalkduster" font-size="24.0" fill="#A8E685" transform="matrix(1.00, 0.00, -0.00, -1.00, 473.0, 16.0)">i</text><text xml:space="preserve" font-family="Chalkduster" font-size="24.0" fill="#A8E685" transform="matrix(1.00, 0.00, -0.00, -1.00, 482.5, 16.0)">n</text><text xml:space="preserve" font-family="Chalkduster" font-size="24.0" fill="#A8E685" transform="matrix(1.00, 0.00, -0.00, -1.00, 500.1, 16.0)">/</text><text xml:space="preserve" font-family="Chalkduster" font-size="24.0" fill="#A8E685" transform="matrix(1.00, 0.00, -0.00, -1.00, 513.4, 16.0)">p</text><text xml:space="preserve" font-family="Chalkduster" font-size="24.0" fill="#A8E685" transform="matrix(1.00, 0.00, -0.00, -1.00, 528.3, 16.0)">y</text><text xml:space="preserve" font-family="Chalkduster" font-size="24.0" fill="#A8E685" transform="matrix(1.00, 0.00, -0.00, -1.00, 542.9, 16.0)">t</text><text xml:space="preserve" font-family="Chalkduster" font-size="24.0" fill="#A8E685" transform="matrix(1.00, 0.00, -0.00, -1.00, 554.4, 16.0)">h</text><text xml:space="preserve" font-family="Chalkduster" font-size="24.0" fill="#A8E685" transform="matrix(1.00, 0.00, -0.00, -1.00, 569.2, 16.0)">o</text><text xml:space="preserve" font-family="Chalkduster" font-size="24.0" fill="#A8E685" transform="matrix(1.00, 0.00, -0.00, -1.00, 587.0, 16.0)">n</text></g></svg>