<?xml version="1.0" encoding="UTF-8" standalone="no"?><svg xmlns="http://www.w3.org/2000/svg" xmlns:xlink="http://www.w3.org/1999/xlink" clip-rule="evenodd" stroke-miterlimit="4.00" viewBox="0 0 110 116"><desc>SVG generated by Keynote</desc><defs></defs><g transform="matrix(1.00, 0.00, -0.00, -1.00, 0.0, 116.0)"><g><clipPath id="clip-695"><path d="M 14.5 0.8 L 101.4 0.8 L 101.4 115.2 L 14.5 115.2 Z M 14.5 0.8 "></path></clipPath><g clip-path="url(#clip-695)"><image xlink:href="../../DE3B4409-7999-4EDC-ACF1-3F223E844B25/assets/A14A10A9BF752EBB344FC720146687D3.png" width="85.00" height="112.00" transform="matrix(1.00, 0.00, -0.00, -1.00, 15.5, 114.2)" opacity="0.50"></image><path d="M 82.5 108.9 L 95.0 93.6 L 94.8 13.6 C 95.8 11.8 95.5 9.6 94.0 8.1 C 92.9 7.0 91.2 6.5 89.7 7.0 L 27.7 7.0 C 26.2 7.5 24.9 8.4 23.8 9.4 C 22.8 10.5 21.9 11.8 21.4 13.3 C 20.9 14.6 20.7 16.0 20.6 17.6 C 20.5 19.2 20.5 21.1 20.5 23.6 L 21.4 102.9 C 21.2 104.5 21.8 106.1 22.9 107.3 C 24.1 108.6 25.9 109.3 27.7 109.2 L 82.5 108.9 Z M 82.5 108.9 " fill="#EAEAEA"></path></g></g><g><clipPath id="clip-696"><path d="M 0.4 3.7 L 109.1 3.7 L 109.1 112.4 L 0.4 112.4 Z M 0.4 3.7 "></path></clipPath><g clip-path="url(#clip-696)"><image xlink:href="../../DE3B4409-7999-4EDC-ACF1-3F223E844B25/assets/30BDB59357BC950F00B729E4DA28C73E.png" width="109.00" height="109.00" transform="matrix(1.00, 0.00, -0.00, -0.99, 0.0, 112.0)"></image></g></g><g><clipPath id="clip-697"><path d="M 31.5 21.9 L 84.5 21.9 L 84.5 66.6 L 31.5 66.6 Z M 31.5 21.9 "></path></clipPath><g clip-path="url(#clip-697)"><image xlink:href="../../86BB661C-AAFE-46F2-89B5-B98D6D644DD8/assets/610DE41026624E3AEF638D24E71EF355.png" width="74.00" height="62.00" transform="matrix(0.72, 0.00, -0.00, -0.73, 31.0, 67.0)"></image></g></g></g></svg>