<?xml version="1.0" encoding="UTF-8" standalone="no"?><svg xmlns="http://www.w3.org/2000/svg" xmlns:xlink="http://www.w3.org/1999/xlink" clip-rule="evenodd" stroke-miterlimit="4.00" viewBox="0 0 863 40"><desc>SVG generated by Keynote</desc><defs></defs><g transform="matrix(1.00, 0.00, -0.00, -1.00, 0.0, 40.0)"><text xml:space="preserve" font-family="Chalkduster" font-size="24.0" fill="#FEFFFE" transform="matrix(1.00, 0.00, -0.00, -1.00, 1.0, 16.0)">F</text><text xml:space="preserve" font-family="Chalkduster" font-size="24.0" fill="#FEFFFE" transform="matrix(1.00, 0.00, -0.00, -1.00, 16.9, 16.0)">o</text><text xml:space="preserve" font-family="Chalkduster" font-size="24.0" fill="#FEFFFE" transform="matrix(1.00, 0.00, -0.00, -1.00, 34.4, 16.0)">r</text><text xml:space="preserve" font-family="Chalkduster" font-size="24.0" fill="#FEFFFE" transform="matrix(1.00, 0.00, -0.00, -1.00, 47.0, 16.0)"> </text><text xml:space="preserve" font-family="Chalkduster" font-size="24.0" fill="#FEFFFE" transform="matrix(1.00, 0.00, -0.00, -1.00, 59.0, 16.0)">e</text><text xml:space="preserve" font-family="Chalkduster" font-size="24.0" fill="#FEFFFE" transform="matrix(1.00, 0.00, -0.00, -1.00, 73.8, 16.0)">a</text><text xml:space="preserve" font-family="Chalkduster" font-size="24.0" fill="#FEFFFE" transform="matrix(1.00, 0.00, -0.00, -1.00, 89.6, 16.0)">c</text><text xml:space="preserve" font-family="Chalkduster" font-size="24.0" fill="#FEFFFE" transform="matrix(1.00, 0.00, -0.00, -1.00, 104.7, 16.0)">h</text><text xml:space="preserve" font-family="Chalkduster" font-size="24.0" fill="#FEFFFE" transform="matrix(1.00, 0.00, -0.00, -1.00, 119.5, 16.0)"> </text><text xml:space="preserve" font-family="Chalkduster" font-size="24.0" fill="#FEFFFE" transform="matrix(1.00, 0.00, -0.00, -1.00, 131.5, 16.0)">i</text><text xml:space="preserve" font-family="Chalkduster" font-size="24.0" fill="#FEFFFE" transform="matrix(1.00, 0.00, -0.00, -1.00, 141.2, 16.0)">t</text><text xml:space="preserve" font-family="Chalkduster" font-size="24.0" fill="#FEFFFE" transform="matrix(1.00, 0.00, -0.00, -1.00, 152.0, 16.0)">e</text><text xml:space="preserve" font-family="Chalkduster" font-size="24.0" fill="#FEFFFE" transform="matrix(1.00, 0.00, -0.00, -1.00, 166.8, 16.0)">m</text><text xml:space="preserve" font-family="Chalkduster" font-size="24.0" fill="#FEFFFE" transform="matrix(1.00, 0.00, -0.00, -1.00, 191.1, 16.0)">,</text><text xml:space="preserve" font-family="Chalkduster" font-size="24.0" fill="#FEFFFE" transform="matrix(1.00, 0.00, -0.00, -1.00, 198.6, 16.0)"> </text><text xml:space="preserve" font-family="Chalkduster" font-size="24.0" fill="#FEFFFE" transform="matrix(1.00, 0.00, -0.00, -1.00, 210.5, 16.0)">p</text><text xml:space="preserve" font-family="Chalkduster" font-size="24.0" fill="#FEFFFE" transform="matrix(1.00, 0.00, -0.00, -1.00, 225.3, 16.0)">r</text><text xml:space="preserve" font-family="Chalkduster" font-size="24.0" fill="#FEFFFE" transform="matrix(1.00, 0.00, -0.00, -1.00, 238.6, 16.0)">i</text><text xml:space="preserve" font-family="Chalkduster" font-size="24.0" fill="#FEFFFE" transform="matrix(1.00, 0.00, -0.00, -1.00, 248.1, 16.0)">n</text><text xml:space="preserve" font-family="Chalkduster" font-size="24.0" fill="#FEFFFE" transform="matrix(1.00, 0.00, -0.00, -1.00, 264.8, 16.0)">t</text><text xml:space="preserve" font-family="Chalkduster" font-size="24.0" fill="#FEFFFE" transform="matrix(1.00, 0.00, -0.00, -1.00, 275.7, 16.0)"> </text><text xml:space="preserve" font-family="Chalkduster" font-size="24.0" fill="#FEFFFE" transform="matrix(1.00, 0.00, -0.00, -1.00, 287.7, 16.0)">'</text><text xml:space="preserve" font-family="Chalkduster" font-size="24.0" fill="#FEFFFE" transform="matrix(1.00, 0.00, -0.00, -1.00, 292.7, 16.0)">R</text><text xml:space="preserve" font-family="Chalkduster" font-size="24.0" fill="#FEFFFE" transform="matrix(1.00, 0.00, -0.00, -1.00, 311.4, 16.0)">e</text><text xml:space="preserve" font-family="Chalkduster" font-size="24.0" fill="#FEFFFE" transform="matrix(1.00, 0.00, -0.00, -1.00, 326.3, 16.0)">m</text><text xml:space="preserve" font-family="Chalkduster" font-size="24.0" fill="#FEFFFE" transform="matrix(1.00, 0.00, -0.00, -1.00, 351.1, 16.0)">e</text><text xml:space="preserve" font-family="Chalkduster" font-size="24.0" fill="#FEFFFE" transform="matrix(1.00, 0.00, -0.00, -1.00, 366.0, 16.0)">m</text><text xml:space="preserve" font-family="Chalkduster" font-size="24.0" fill="#FEFFFE" transform="matrix(1.00, 0.00, -0.00, -1.00, 390.3, 16.0)">b</text><text xml:space="preserve" font-family="Chalkduster" font-size="24.0" fill="#FEFFFE" transform="matrix(1.00, 0.00, -0.00, -1.00, 404.3, 16.0)">e</text><text xml:space="preserve" font-family="Chalkduster" font-size="24.0" fill="#FEFFFE" transform="matrix(1.00, 0.00, -0.00, -1.00, 418.9, 16.0)">r</text><text xml:space="preserve" font-family="Chalkduster" font-size="24.0" fill="#FEFFFE" transform="matrix(1.00, 0.00, -0.00, -1.00, 431.6, 16.0)"> </text><text xml:space="preserve" font-family="Chalkduster" font-size="24.0" fill="#FEFFFE" transform="matrix(1.00, 0.00, -0.00, -1.00, 443.5, 16.0)">t</text><text xml:space="preserve" font-family="Chalkduster" font-size="24.0" fill="#FEFFFE" transform="matrix(1.00, 0.00, -0.00, -1.00, 453.4, 16.0)">o</text><text xml:space="preserve" font-family="Chalkduster" font-size="24.0" fill="#FEFFFE" transform="matrix(1.00, 0.00, -0.00, -1.00, 469.6, 16.0)">'</text><text xml:space="preserve" font-family="Chalkduster" font-size="24.0" fill="#FEFFFE" transform="matrix(1.00, 0.00, -0.00, -1.00, 474.7, 16.0)">,</text><text xml:space="preserve" font-family="Chalkduster" font-size="24.0" fill="#FEFFFE" transform="matrix(1.00, 0.00, -0.00, -1.00, 482.1, 16.0)"> </text><text xml:space="preserve" font-family="Chalkduster" font-size="24.0" fill="#FEFFFE" transform="matrix(1.00, 0.00, -0.00, -1.00, 494.0, 16.0)">a</text><text xml:space="preserve" font-family="Chalkduster" font-size="24.0" fill="#FEFFFE" transform="matrix(1.00, 0.00, -0.00, -1.00, 510.6, 16.0)"> </text><text xml:space="preserve" font-family="Chalkduster" font-size="24.0" fill="#FEFFFE" transform="matrix(1.00, 0.00, -0.00, -1.00, 522.5, 16.0)">s</text><text xml:space="preserve" font-family="Chalkduster" font-size="24.0" fill="#FEFFFE" transform="matrix(1.00, 0.00, -0.00, -1.00, 534.6, 16.0)">p</text><text xml:space="preserve" font-family="Chalkduster" font-size="24.0" fill="#FEFFFE" transform="matrix(1.00, 0.00, -0.00, -1.00, 549.4, 16.0)">a</text><text xml:space="preserve" font-family="Chalkduster" font-size="24.0" fill="#FEFFFE" transform="matrix(1.00, 0.00, -0.00, -1.00, 565.2, 16.0)">c</text><text xml:space="preserve" font-family="Chalkduster" font-size="24.0" fill="#FEFFFE" transform="matrix(1.00, 0.00, -0.00, -1.00, 579.8, 16.0)">e</text><text xml:space="preserve" font-family="Chalkduster" font-size="24.0" fill="#FEFFFE" transform="matrix(1.00, 0.00, -0.00, -1.00, 594.1, 16.0)">,</text><text xml:space="preserve" font-family="Chalkduster" font-size="24.0" fill="#FEFFFE" transform="matrix(1.00, 0.00, -0.00, -1.00, 601.5, 16.0)"> </text><text xml:space="preserve" font-family="Chalkduster" font-size="24.0" fill="#FEFFFE" transform="matrix(1.00, 0.00, -0.00, -1.00, 613.5, 16.0)">a</text><text xml:space="preserve" font-family="Chalkduster" font-size="24.0" fill="#FEFFFE" transform="matrix(1.00, 0.00, -0.00, -1.00, 630.0, 16.0)">n</text><text xml:space="preserve" font-family="Chalkduster" font-size="24.0" fill="#FEFFFE" transform="matrix(1.00, 0.00, -0.00, -1.00, 647.6, 16.0)">d</text><text xml:space="preserve" font-family="Chalkduster" font-size="24.0" fill="#FEFFFE" transform="matrix(1.00, 0.00, -0.00, -1.00, 666.4, 16.0)"> </text><text xml:space="preserve" font-family="Chalkduster" font-size="24.0" fill="#FEFFFE" transform="matrix(1.00, 0.00, -0.00, -1.00, 678.3, 16.0)">t</text><text xml:space="preserve" font-family="Chalkduster" font-size="24.0" fill="#FEFFFE" transform="matrix(1.00, 0.00, -0.00, -1.00, 689.8, 16.0)">h</text><text xml:space="preserve" font-family="Chalkduster" font-size="24.0" fill="#FEFFFE" transform="matrix(1.00, 0.00, -0.00, -1.00, 704.6, 16.0)">e</text><text xml:space="preserve" font-family="Chalkduster" font-size="24.0" fill="#FEFFFE" transform="matrix(1.00, 0.00, -0.00, -1.00, 719.7, 16.0)">n</text><text xml:space="preserve" font-family="Chalkduster" font-size="24.0" fill="#FEFFFE" transform="matrix(1.00, 0.00, -0.00, -1.00, 737.3, 16.0)"> </text><text xml:space="preserve" font-family="Chalkduster" font-size="24.0" fill="#FEFFFE" transform="matrix(1.00, 0.00, -0.00, -1.00, 749.2, 16.0)">t</text><text xml:space="preserve" font-family="Chalkduster" font-size="24.0" fill="#FEFFFE" transform="matrix(1.00, 0.00, -0.00, -1.00, 760.7, 16.0)">h</text><text xml:space="preserve" font-family="Chalkduster" font-size="24.0" fill="#FEFFFE" transform="matrix(1.00, 0.00, -0.00, -1.00, 775.5, 16.0)">e</text><text xml:space="preserve" font-family="Chalkduster" font-size="24.0" fill="#FEFFFE" transform="matrix(1.00, 0.00, -0.00, -1.00, 790.4, 16.0)"> </text><text xml:space="preserve" font-family="Chalkduster" font-size="24.0" fill="#FEFFFE" transform="matrix(1.00, 0.00, -0.00, -1.00, 802.3, 16.0)">i</text><text xml:space="preserve" font-family="Chalkduster" font-size="24.0" fill="#FEFFFE" transform="matrix(1.00, 0.00, -0.00, -1.00, 812.1, 16.0)">t</text><text xml:space="preserve" font-family="Chalkduster" font-size="24.0" fill="#FEFFFE" transform="matrix(1.00, 0.00, -0.00, -1.00, 822.8, 16.0)">e</text><text xml:space="preserve" font-family="Chalkduster" font-size="24.0" fill="#FEFFFE" transform="matrix(1.00, 0.00, -0.00, -1.00, 837.7, 16.0)">m</text></g></svg>