<?xml version="1.0" encoding="UTF-8" standalone="no"?><svg xmlns="http://www.w3.org/2000/svg" xmlns:xlink="http://www.w3.org/1999/xlink" clip-rule="evenodd" stroke-miterlimit="4.00" viewBox="0 0 855 40"><desc>SVG generated by Keynote</desc><defs></defs><g transform="matrix(1.00, 0.00, -0.00, -1.00, 0.0, 40.0)"><text xml:space="preserve" font-family="Chalkduster" font-size="24.0" fill="#FEFFFE" transform="matrix(1.00, 0.00, -0.00, -1.00, 0.0, 12.9)">*</text><text xml:space="preserve" font-family="Chalkduster" font-size="24.0" fill="#FEFFFE" transform="matrix(1.00, 0.00, -0.00, -1.00, 30.0, 16.0)">S</text><text xml:space="preserve" font-family="Chalkduster" font-size="24.0" fill="#FEFFFE" transform="matrix(1.00, 0.00, -0.00, -1.00, 41.9, 16.0)">e</text><text xml:space="preserve" font-family="Chalkduster" font-size="24.0" fill="#FEFFFE" transform="matrix(1.00, 0.00, -0.00, -1.00, 57.2, 16.0)">c</text><text xml:space="preserve" font-family="Chalkduster" font-size="24.0" fill="#FEFFFE" transform="matrix(1.00, 0.00, -0.00, -1.00, 71.6, 16.0)">o</text><text xml:space="preserve" font-family="Chalkduster" font-size="24.0" fill="#FEFFFE" transform="matrix(1.00, 0.00, -0.00, -1.00, 89.4, 16.0)">n</text><text xml:space="preserve" font-family="Chalkduster" font-size="24.0" fill="#FEFFFE" transform="matrix(1.00, 0.00, -0.00, -1.00, 107.0, 16.0)">d</text><text xml:space="preserve" font-family="Chalkduster" font-size="24.0" fill="#FEFFFE" transform="matrix(1.00, 0.00, -0.00, -1.00, 125.7, 16.0)"> </text><text xml:space="preserve" font-family="Chalkduster" font-size="24.0" fill="#FEFFFE" transform="matrix(1.00, 0.00, -0.00, -1.00, 137.7, 16.0)">l</text><text xml:space="preserve" font-family="Chalkduster" font-size="24.0" fill="#FEFFFE" transform="matrix(1.00, 0.00, -0.00, -1.00, 149.2, 16.0)">i</text><text xml:space="preserve" font-family="Chalkduster" font-size="24.0" fill="#FEFFFE" transform="matrix(1.00, 0.00, -0.00, -1.00, 158.7, 16.0)">n</text><text xml:space="preserve" font-family="Chalkduster" font-size="24.0" fill="#FEFFFE" transform="matrix(1.00, 0.00, -0.00, -1.00, 176.7, 16.0)">e</text><text xml:space="preserve" font-family="Chalkduster" font-size="24.0" fill="#FEFFFE" transform="matrix(1.00, 0.00, -0.00, -1.00, 191.5, 16.0)"> </text><text xml:space="preserve" font-family="Chalkduster" font-size="24.0" fill="#FEFFFE" transform="matrix(1.00, 0.00, -0.00, -1.00, 203.5, 16.0)">(</text><text xml:space="preserve" font-family="Chalkduster" font-size="24.0" fill="#FEFFFE" transform="matrix(1.00, 0.00, -0.00, -1.00, 213.1, 16.0)">o</text><text xml:space="preserve" font-family="Chalkduster" font-size="24.0" fill="#FEFFFE" transform="matrix(1.00, 0.00, -0.00, -1.00, 230.5, 16.0)">p</text><text xml:space="preserve" font-family="Chalkduster" font-size="24.0" fill="#FEFFFE" transform="matrix(1.00, 0.00, -0.00, -1.00, 245.6, 16.0)">t</text><text xml:space="preserve" font-family="Chalkduster" font-size="24.0" fill="#FEFFFE" transform="matrix(1.00, 0.00, -0.00, -1.00, 256.7, 16.0)">i</text><text xml:space="preserve" font-family="Chalkduster" font-size="24.0" fill="#FEFFFE" transform="matrix(1.00, 0.00, -0.00, -1.00, 266.2, 16.0)">o</text><text xml:space="preserve" font-family="Chalkduster" font-size="24.0" fill="#FEFFFE" transform="matrix(1.00, 0.00, -0.00, -1.00, 284.0, 16.0)">n</text><text xml:space="preserve" font-family="Chalkduster" font-size="24.0" fill="#FEFFFE" transform="matrix(1.00, 0.00, -0.00, -1.00, 301.6, 16.0)">a</text><text xml:space="preserve" font-family="Chalkduster" font-size="24.0" fill="#FEFFFE" transform="matrix(1.00, 0.00, -0.00, -1.00, 317.1, 16.0)">l</text><text xml:space="preserve" font-family="Chalkduster" font-size="24.0" fill="#FEFFFE" transform="matrix(1.00, 0.00, -0.00, -1.00, 327.5, 16.0)">)</text><text xml:space="preserve" font-family="Chalkduster" font-size="24.0" fill="#FEFFFE" transform="matrix(1.00, 0.00, -0.00, -1.00, 339.5, 16.0)">:</text><text xml:space="preserve" font-family="Chalkduster" font-size="24.0" fill="#FEFFFE" transform="matrix(1.00, 0.00, -0.00, -1.00, 347.5, 16.0)"> </text><text xml:space="preserve" font-family="Chalkduster" font-size="24.0" fill="#A8E685" transform="matrix(1.00, 0.00, -0.00, -1.00, 359.4, 16.0)">#</text><text xml:space="preserve" font-family="Chalkduster" font-size="24.0" fill="#A8E685" transform="matrix(1.00, 0.00, -0.00, -1.00, 383.6, 16.0)"> </text><text xml:space="preserve" font-family="Chalkduster" font-size="24.0" fill="#A8E685" transform="matrix(1.00, 0.00, -0.00, -1.00, 395.6, 16.0)">-</text><text xml:space="preserve" font-family="Chalkduster" font-size="24.0" fill="#A8E685" transform="matrix(1.00, 0.00, -0.00, -1.00, 410.1, 16.0)">*</text><text xml:space="preserve" font-family="Chalkduster" font-size="24.0" fill="#A8E685" transform="matrix(1.00, 0.00, -0.00, -1.00, 424.4, 16.0)">-</text><text xml:space="preserve" font-family="Chalkduster" font-size="24.0" fill="#A8E685" transform="matrix(1.00, 0.00, -0.00, -1.00, 438.9, 16.0)"> </text><text xml:space="preserve" font-family="Chalkduster" font-size="24.0" fill="#A8E685" transform="matrix(1.00, 0.00, -0.00, -1.00, 450.9, 16.0)">c</text><text xml:space="preserve" font-family="Chalkduster" font-size="24.0" fill="#A8E685" transform="matrix(1.00, 0.00, -0.00, -1.00, 465.2, 16.0)">o</text><text xml:space="preserve" font-family="Chalkduster" font-size="24.0" fill="#A8E685" transform="matrix(1.00, 0.00, -0.00, -1.00, 483.7, 16.0)">d</text><text xml:space="preserve" font-family="Chalkduster" font-size="24.0" fill="#A8E685" transform="matrix(1.00, 0.00, -0.00, -1.00, 503.4, 16.0)">i</text><text xml:space="preserve" font-family="Chalkduster" font-size="24.0" fill="#A8E685" transform="matrix(1.00, 0.00, -0.00, -1.00, 512.9, 16.0)">n</text><text xml:space="preserve" font-family="Chalkduster" font-size="24.0" fill="#A8E685" transform="matrix(1.00, 0.00, -0.00, -1.00, 529.7, 16.0)">g</text><text xml:space="preserve" font-family="Chalkduster" font-size="24.0" fill="#A8E685" transform="matrix(1.00, 0.00, -0.00, -1.00, 544.9, 16.0)">:</text><text xml:space="preserve" font-family="Chalkduster" font-size="24.0" fill="#A8E685" transform="matrix(1.00, 0.00, -0.00, -1.00, 552.8, 16.0)"> </text><text xml:space="preserve" font-family="Chalkduster" font-size="24.0" fill="#A8E685" transform="matrix(1.00, 0.00, -0.00, -1.00, 564.7, 16.0)">&lt;</text><text xml:space="preserve" font-family="Chalkduster" font-size="24.0" fill="#A8E685" transform="matrix(1.00, 0.00, -0.00, -1.00, 576.2, 16.0)">s</text><text xml:space="preserve" font-family="Chalkduster" font-size="24.0" fill="#A8E685" transform="matrix(1.00, 0.00, -0.00, -1.00, 588.4, 16.0)">o</text><text xml:space="preserve" font-family="Chalkduster" font-size="24.0" fill="#A8E685" transform="matrix(1.00, 0.00, -0.00, -1.00, 606.4, 16.0)">m</text><text xml:space="preserve" font-family="Chalkduster" font-size="24.0" fill="#A8E685" transform="matrix(1.00, 0.00, -0.00, -1.00, 631.2, 16.0)">e</text><text xml:space="preserve" font-family="Chalkduster" font-size="24.0" fill="#A8E685" transform="matrix(1.00, 0.00, -0.00, -1.00, 646.1, 16.0)"> </text><text xml:space="preserve" font-family="Chalkduster" font-size="24.0" fill="#A8E685" transform="matrix(1.00, 0.00, -0.00, -1.00, 658.0, 16.0)">e</text><text xml:space="preserve" font-family="Chalkduster" font-size="24.0" fill="#A8E685" transform="matrix(1.00, 0.00, -0.00, -1.00, 673.2, 16.0)">n</text><text xml:space="preserve" font-family="Chalkduster" font-size="24.0" fill="#A8E685" transform="matrix(1.00, 0.00, -0.00, -1.00, 690.8, 16.0)">c</text><text xml:space="preserve" font-family="Chalkduster" font-size="24.0" fill="#A8E685" transform="matrix(1.00, 0.00, -0.00, -1.00, 705.1, 16.0)">o</text><text xml:space="preserve" font-family="Chalkduster" font-size="24.0" fill="#A8E685" transform="matrix(1.00, 0.00, -0.00, -1.00, 723.6, 16.0)">d</text><text xml:space="preserve" font-family="Chalkduster" font-size="24.0" fill="#A8E685" transform="matrix(1.00, 0.00, -0.00, -1.00, 743.3, 16.0)">i</text><text xml:space="preserve" font-family="Chalkduster" font-size="24.0" fill="#A8E685" transform="matrix(1.00, 0.00, -0.00, -1.00, 752.8, 16.0)">n</text><text xml:space="preserve" font-family="Chalkduster" font-size="24.0" fill="#A8E685" transform="matrix(1.00, 0.00, -0.00, -1.00, 769.6, 16.0)">g</text><text xml:space="preserve" font-family="Chalkduster" font-size="24.0" fill="#A8E685" transform="matrix(1.00, 0.00, -0.00, -1.00, 786.0, 16.0)">&gt;</text><text xml:space="preserve" font-family="Chalkduster" font-size="24.0" fill="#A8E685" transform="matrix(1.00, 0.00, -0.00, -1.00, 797.7, 16.0)"> </text><text xml:space="preserve" font-family="Chalkduster" font-size="24.0" fill="#A8E685" transform="matrix(1.00, 0.00, -0.00, -1.00, 809.6, 16.0)">-</text><text xml:space="preserve" font-family="Chalkduster" font-size="24.0" fill="#A8E685" transform="matrix(1.00, 0.00, -0.00, -1.00, 824.1, 16.0)">*</text><text xml:space="preserve" font-family="Chalkduster" font-size="24.0" fill="#A8E685" transform="matrix(1.00, 0.00, -0.00, -1.00, 838.5, 16.0)">-</text></g></svg>