<?xml version="1.0" encoding="UTF-8" standalone="no"?><svg xmlns="http://www.w3.org/2000/svg" xmlns:xlink="http://www.w3.org/1999/xlink" clip-rule="evenodd" stroke-miterlimit="4.00" viewBox="0 0 1024 768"><desc>SVG generated by Keynote</desc><defs></defs><g transform="matrix(1.00, 0.00, -0.00, -1.00, 0.0, 768.0)"><g><clipPath id="clip-116"><path d="M 0.0 768.0 L 1024.0 768.0 L 1024.0 0.0 L 0.0 0.0 Z M 0.0 768.0 "></path></clipPath><g clip-path="url(#clip-116)"><image xlink:href="../../86BB661C-AAFE-46F2-89B5-B98D6D644DD8/assets/DE78B55DDE70D88C6FF874E8D33A46A3.jpeg" width="1024.00" height="768.00" transform="matrix(1.00, 0.00, -0.00, -1.00, 0.0, 768.0)"></image></g></g><image xlink:href="../../86BB661C-AAFE-46F2-89B5-B98D6D644DD8/assets/610DE41026624E3AEF638D24E71EF355.png" width="74.00" height="62.00" transform="matrix(1.00, 0.00, -0.00, -1.00, 949.0, 64.0)"></image><image xlink:href="../../86BB661C-AAFE-46F2-89B5-B98D6D644DD8/assets/C79B4846A618BF06956E5E1178655E37.png" width="40.00" height="40.00" transform="matrix(1.00, 0.00, -0.00, -1.01, 966.2, 53.0)" opacity="0.50"></image><g><clipPath id="clip-117"><path d="M 996.7 43.5 C 1002.5 37.6 1002.5 28.0 996.7 22.0 C 990.9 16.1 981.4 16.1 975.6 22.0 C 969.7 28.0 969.7 37.6 975.6 43.5 C 981.4 49.5 990.9 49.5 996.7 43.5 Z M 996.7 43.5 "></path></clipPath><g clip-path="url(#clip-117)"><image xlink:href="../../86BB661C-AAFE-46F2-89B5-B98D6D644DD8/assets/DE78B55DDE70D88C6FF874E8D33A46A3.jpeg" width="1024.00" height="768.00" transform="matrix(0.04, 0.00, -0.00, -0.04, 965.9, 48.0)"></image></g></g><text xml:space="preserve" font-family="HoboStd" font-size="18.0" fill="#E5CC77" transform="matrix(1.00, 0.00, -0.00, -1.00, 976.0, 26.0)">1</text><text xml:space="preserve" font-family="HoboStd" font-size="18.0" fill="#E5CC77" transform="matrix(1.00, 0.00, -0.00, -1.00, 986.4, 26.0)">2</text><g><clipPath id="clip-118"><path d="M 62.5 607.5 L 962.1 607.5 L 962.1 160.2 L 62.5 160.2 Z M 62.5 607.5 "></path></clipPath><g clip-path="url(#clip-118)"><path d="M 63.0 607.0 L 212.8 607.0 L 212.8 542.1 L 63.0 542.1 Z M 63.0 607.0 " fill="#869ABB"></path><path d="M 212.8 607.0 L 362.5 607.0 L 362.5 542.1 L 212.8 542.1 Z M 212.8 607.0 " fill="#869ABB"></path><path d="M 362.5 607.0 L 512.3 607.0 L 512.3 542.1 L 362.5 542.1 Z M 362.5 607.0 " fill="#869ABB"></path><path d="M 512.3 607.0 L 662.0 607.0 L 662.0 542.1 L 512.3 542.1 Z M 512.3 607.0 " fill="#869ABB"></path><path d="M 662.0 607.0 L 811.8 607.0 L 811.8 542.1 L 662.0 542.1 Z M 662.0 607.0 " fill="#869ABB"></path><path d="M 811.8 607.0 L 961.6 607.0 L 961.6 542.1 L 811.8 542.1 Z M 811.8 607.0 " fill="#869ABB"></path><path d="M 63.0 542.1 L 212.8 542.1 L 212.8 393.4 L 63.0 393.4 Z M 63.0 542.1 " fill="#869ABB"></path><path d="M 63.0 393.4 L 212.8 393.4 L 212.8 332.8 L 63.0 332.8 Z M 63.0 393.4 " fill="#869ABB"></path><path d="M 212.8 393.4 L 961.6 393.4 L 961.6 332.8 L 212.8 332.8 Z M 212.8 393.4 " fill="#000000" fill-opacity="0.25"></path><path d="M 63.0 332.8 L 212.8 332.8 L 212.8 160.7 L 63.0 160.7 Z M 63.0 332.8 " fill="#869ABB"></path></g></g><image xlink:href="../../06CCC27B-670E-4A1A-97C4-EDA68A2117DD/assets/3F63CEFE6CE33F4E08B9F13EFF9278B6.png" width="97.00" height="39.00" transform="matrix(1.00, 0.00, -0.00, -1.00, 239.0, 587.0)"></image><g><clipPath id="clip-119"><path d="M 62.5 607.5 L 962.1 607.5 L 962.1 160.2 L 62.5 160.2 Z M 62.5 607.5 "></path></clipPath><g clip-path="url(#clip-119)"><g><clipPath id="clip-120"><path d="M 213.3 542.6 L 362.0 542.6 L 362.0 606.5 L 213.3 606.5 Z M 213.3 542.6 "></path></clipPath><g clip-path="url(#clip-120)"><text xml:space="preserve" font-family="Chalkduster" font-size="20.0" fill="#FEFFFE" transform="matrix(1.00, 0.00, -0.00, -1.00, 243.0, 564.0)">M</text><text xml:space="preserve" font-family="Chalkduster" font-size="20.0" fill="#FEFFFE" transform="matrix(1.00, 0.00, -0.00, -1.00, 260.4, 564.0)">o</text><text xml:space="preserve" font-family="Chalkduster" font-size="20.0" fill="#FEFFFE" transform="matrix(1.00, 0.00, -0.00, -1.00, 275.2, 564.0)">n</text><text xml:space="preserve" font-family="Chalkduster" font-size="20.0" fill="#FEFFFE" transform="matrix(1.00, 0.00, -0.00, -1.00, 289.9, 564.0)">d</text><text xml:space="preserve" font-family="Chalkduster" font-size="20.0" fill="#FEFFFE" transform="matrix(1.00, 0.00, -0.00, -1.00, 305.5, 564.0)">a</text><text xml:space="preserve" font-family="Chalkduster" font-size="20.0" fill="#FEFFFE" transform="matrix(1.00, 0.00, -0.00, -1.00, 319.3, 564.0)">y</text></g></g></g></g><image xlink:href="../../06CCC27B-670E-4A1A-97C4-EDA68A2117DD/assets/2A0EC4650553CEA145B6C52FC33047A8.png" width="102.00" height="39.00" transform="matrix(1.00, 0.00, -0.00, -1.00, 387.0, 587.0)"></image><g><clipPath id="clip-121"><path d="M 62.5 607.5 L 962.1 607.5 L 962.1 160.2 L 62.5 160.2 Z M 62.5 607.5 "></path></clipPath><g clip-path="url(#clip-121)"><g><clipPath id="clip-122"><path d="M 363.0 542.6 L 511.8 542.6 L 511.8 606.5 L 363.0 606.5 Z M 363.0 542.6 "></path></clipPath><g clip-path="url(#clip-122)"><text xml:space="preserve" font-family="Chalkduster" font-size="20.0" fill="#FEFFFE" transform="matrix(1.00, 0.00, -0.00, -1.00, 392.0, 564.0)">T</text><text xml:space="preserve" font-family="Chalkduster" font-size="20.0" fill="#FEFFFE" transform="matrix(1.00, 0.00, -0.00, -1.00, 405.5, 564.0)">u</text><text xml:space="preserve" font-family="Chalkduster" font-size="20.0" fill="#FEFFFE" transform="matrix(1.00, 0.00, -0.00, -1.00, 419.2, 564.0)">e</text><text xml:space="preserve" font-family="Chalkduster" font-size="20.0" fill="#FEFFFE" transform="matrix(1.00, 0.00, -0.00, -1.00, 432.1, 564.0)">s</text><text xml:space="preserve" font-family="Chalkduster" font-size="20.0" fill="#FEFFFE" transform="matrix(1.00, 0.00, -0.00, -1.00, 442.2, 564.0)">d</text><text xml:space="preserve" font-family="Chalkduster" font-size="20.0" fill="#FEFFFE" transform="matrix(1.00, 0.00, -0.00, -1.00, 457.8, 564.0)">a</text><text xml:space="preserve" font-family="Chalkduster" font-size="20.0" fill="#FEFFFE" transform="matrix(1.00, 0.00, -0.00, -1.00, 471.6, 564.0)">y</text></g></g></g></g><image xlink:href="../../06CCC27B-670E-4A1A-97C4-EDA68A2117DD/assets/DDD45CF4741E89830BEC6D8C79354A87.png" width="137.00" height="39.00" transform="matrix(1.00, 0.00, -0.00, -1.00, 519.0, 587.0)"></image><g><clipPath id="clip-123"><path d="M 62.5 607.5 L 962.1 607.5 L 962.1 160.2 L 62.5 160.2 Z M 62.5 607.5 "></path></clipPath><g clip-path="url(#clip-123)"><g><clipPath id="clip-124"><path d="M 512.8 542.6 L 661.5 542.6 L 661.5 606.5 L 512.8 606.5 Z M 512.8 542.6 "></path></clipPath><g clip-path="url(#clip-124)"><text xml:space="preserve" font-family="Chalkduster" font-size="20.0" fill="#FEFFFE" transform="matrix(1.00, 0.00, -0.00, -1.00, 524.0, 564.0)">W</text><text xml:space="preserve" font-family="Chalkduster" font-size="20.0" fill="#FEFFFE" transform="matrix(1.00, 0.00, -0.00, -1.00, 542.5, 564.0)">e</text><text xml:space="preserve" font-family="Chalkduster" font-size="20.0" fill="#FEFFFE" transform="matrix(1.00, 0.00, -0.00, -1.00, 555.6, 564.0)">d</text><text xml:space="preserve" font-family="Chalkduster" font-size="20.0" fill="#FEFFFE" transform="matrix(1.00, 0.00, -0.00, -1.00, 571.2, 564.0)">n</text><text xml:space="preserve" font-family="Chalkduster" font-size="20.0" fill="#FEFFFE" transform="matrix(1.00, 0.00, -0.00, -1.00, 586.2, 564.0)">e</text><text xml:space="preserve" font-family="Chalkduster" font-size="20.0" fill="#FEFFFE" transform="matrix(1.00, 0.00, -0.00, -1.00, 599.0, 564.0)">s</text><text xml:space="preserve" font-family="Chalkduster" font-size="20.0" fill="#FEFFFE" transform="matrix(1.00, 0.00, -0.00, -1.00, 609.1, 564.0)">d</text><text xml:space="preserve" font-family="Chalkduster" font-size="20.0" fill="#FEFFFE" transform="matrix(1.00, 0.00, -0.00, -1.00, 624.8, 564.0)">a</text><text xml:space="preserve" font-family="Chalkduster" font-size="20.0" fill="#FEFFFE" transform="matrix(1.00, 0.00, -0.00, -1.00, 638.6, 564.0)">y</text></g></g></g></g><image xlink:href="../../06CCC27B-670E-4A1A-97C4-EDA68A2117DD/assets/6E92C726E3D93AF753CF87EF8A42AFBC.png" width="114.00" height="39.00" transform="matrix(1.00, 0.00, -0.00, -1.00, 680.0, 587.0)"></image><g><clipPath id="clip-125"><path d="M 62.5 607.5 L 962.1 607.5 L 962.1 160.2 L 62.5 160.2 Z M 62.5 607.5 "></path></clipPath><g clip-path="url(#clip-125)"><g><clipPath id="clip-126"><path d="M 662.5 542.6 L 811.3 542.6 L 811.3 606.5 L 662.5 606.5 Z M 662.5 542.6 "></path></clipPath><g clip-path="url(#clip-126)"><text xml:space="preserve" font-family="Chalkduster" font-size="20.0" fill="#FEFFFE" transform="matrix(1.00, 0.00, -0.00, -1.00, 685.0, 564.0)">T</text><text xml:space="preserve" font-family="Chalkduster" font-size="20.0" fill="#FEFFFE" transform="matrix(1.00, 0.00, -0.00, -1.00, 700.4, 564.0)">h</text><text xml:space="preserve" font-family="Chalkduster" font-size="20.0" fill="#FEFFFE" transform="matrix(1.00, 0.00, -0.00, -1.00, 712.7, 564.0)">u</text><text xml:space="preserve" font-family="Chalkduster" font-size="20.0" fill="#FEFFFE" transform="matrix(1.00, 0.00, -0.00, -1.00, 726.8, 564.0)">r</text><text xml:space="preserve" font-family="Chalkduster" font-size="20.0" fill="#FEFFFE" transform="matrix(1.00, 0.00, -0.00, -1.00, 737.1, 564.0)">s</text><text xml:space="preserve" font-family="Chalkduster" font-size="20.0" fill="#FEFFFE" transform="matrix(1.00, 0.00, -0.00, -1.00, 747.2, 564.0)">d</text><text xml:space="preserve" font-family="Chalkduster" font-size="20.0" fill="#FEFFFE" transform="matrix(1.00, 0.00, -0.00, -1.00, 762.8, 564.0)">a</text><text xml:space="preserve" font-family="Chalkduster" font-size="20.0" fill="#FEFFFE" transform="matrix(1.00, 0.00, -0.00, -1.00, 776.6, 564.0)">y</text></g></g></g></g><image xlink:href="../../06CCC27B-670E-4A1A-97C4-EDA68A2117DD/assets/D0DC2189A0E57001FCF0151F6B4788A9.png" width="86.00" height="39.00" transform="matrix(1.00, 0.00, -0.00, -1.00, 844.0, 587.0)"></image><g><clipPath id="clip-127"><path d="M 62.5 607.5 L 962.1 607.5 L 962.1 160.2 L 62.5 160.2 Z M 62.5 607.5 "></path></clipPath><g clip-path="url(#clip-127)"><g><clipPath id="clip-128"><path d="M 812.3 542.6 L 961.1 542.6 L 961.1 606.5 L 812.3 606.5 Z M 812.3 542.6 "></path></clipPath><g clip-path="url(#clip-128)"><text xml:space="preserve" font-family="Chalkduster" font-size="20.0" fill="#FEFFFE" transform="matrix(1.00, 0.00, -0.00, -1.00, 849.0, 564.0)">F</text><text xml:space="preserve" font-family="Chalkduster" font-size="20.0" fill="#FEFFFE" transform="matrix(1.00, 0.00, -0.00, -1.00, 863.4, 564.0)">r</text><text xml:space="preserve" font-family="Chalkduster" font-size="20.0" fill="#FEFFFE" transform="matrix(1.00, 0.00, -0.00, -1.00, 874.5, 564.0)">i</text><text xml:space="preserve" font-family="Chalkduster" font-size="20.0" fill="#FEFFFE" transform="matrix(1.00, 0.00, -0.00, -1.00, 883.1, 564.0)">d</text><text xml:space="preserve" font-family="Chalkduster" font-size="20.0" fill="#FEFFFE" transform="matrix(1.00, 0.00, -0.00, -1.00, 898.7, 564.0)">a</text><text xml:space="preserve" font-family="Chalkduster" font-size="20.0" fill="#FEFFFE" transform="matrix(1.00, 0.00, -0.00, -1.00, 912.5, 564.0)">y</text></g></g></g></g><image xlink:href="../../06CCC27B-670E-4A1A-97C4-EDA68A2117DD/assets/E01F31CBB90D06BF013FDD7F7A496D49.png" width="140.00" height="27.00" transform="matrix(1.00, 0.00, -0.00, -1.00, 68.0, 477.0)"></image><g><clipPath id="clip-129"><path d="M 62.5 607.5 L 962.1 607.5 L 962.1 160.2 L 62.5 160.2 Z M 62.5 607.5 "></path></clipPath><g clip-path="url(#clip-129)"><g><clipPath id="clip-130"><path d="M 63.5 393.9 L 212.3 393.9 L 212.3 541.6 L 63.5 541.6 Z M 63.5 393.9 "></path></clipPath><g clip-path="url(#clip-130)"><text xml:space="preserve" font-family="Chalkduster" font-size="20.0" fill="#FEFFFE" transform="matrix(1.00, 0.00, -0.00, -1.00, 73.0, 457.0)">0</text><text xml:space="preserve" font-family="Chalkduster" font-size="20.0" fill="#FEFFFE" transform="matrix(1.00, 0.00, -0.00, -1.00, 86.8, 457.0)">9</text><text xml:space="preserve" font-family="Chalkduster" font-size="20.0" fill="#FEFFFE" transform="matrix(1.00, 0.00, -0.00, -1.00, 98.9, 457.0)">:</text><text xml:space="preserve" font-family="Chalkduster" font-size="20.0" fill="#FEFFFE" transform="matrix(1.00, 0.00, -0.00, -1.00, 105.4, 457.0)">0</text><text xml:space="preserve" font-family="Chalkduster" font-size="20.0" fill="#FEFFFE" transform="matrix(1.00, 0.00, -0.00, -1.00, 119.5, 457.0)">0</text><text xml:space="preserve" font-family="Chalkduster" font-size="20.0" fill="#FEFFFE" transform="matrix(1.00, 0.00, -0.00, -1.00, 134.2, 457.0)">-</text><text xml:space="preserve" font-family="Chalkduster" font-size="20.0" fill="#FEFFFE" transform="matrix(1.00, 0.00, -0.00, -1.00, 146.3, 457.0)">1</text><text xml:space="preserve" font-family="Chalkduster" font-size="20.0" fill="#FEFFFE" transform="matrix(1.00, 0.00, -0.00, -1.00, 158.0, 457.0)">2</text><text xml:space="preserve" font-family="Chalkduster" font-size="20.0" fill="#FEFFFE" transform="matrix(1.00, 0.00, -0.00, -1.00, 169.2, 457.0)">:</text><text xml:space="preserve" font-family="Chalkduster" font-size="20.0" fill="#FEFFFE" transform="matrix(1.00, 0.00, -0.00, -1.00, 175.8, 457.0)">0</text><text xml:space="preserve" font-family="Chalkduster" font-size="20.0" fill="#FEFFFE" transform="matrix(1.00, 0.00, -0.00, -1.00, 189.9, 457.0)">0</text></g></g></g></g><image xlink:href="../../06CCC27B-670E-4A1A-97C4-EDA68A2117DD/assets/66499C9631A56C1ABA380613CBB8E42C.png" width="103.00" height="29.00" transform="matrix(1.00, 0.00, -0.00, -1.00, 535.0, 479.0)"></image><g><clipPath id="clip-131"><path d="M 62.5 607.5 L 962.1 607.5 L 962.1 160.2 L 62.5 160.2 Z M 62.5 607.5 "></path></clipPath><g clip-path="url(#clip-131)"><g><clipPath id="clip-132"><path d="M 213.3 393.9 L 961.1 393.9 L 961.1 541.6 L 213.3 541.6 Z M 213.3 393.9 "></path></clipPath><g clip-path="url(#clip-132)"><text xml:space="preserve" font-family="Chalkduster" font-size="20.0" fill="#FEFFFE" transform="matrix(1.00, 0.00, -0.00, -1.00, 540.0, 457.0)">L</text><text xml:space="preserve" font-family="Chalkduster" font-size="20.0" fill="#FEFFFE" transform="matrix(1.00, 0.00, -0.00, -1.00, 552.7, 457.0)">e</text><text xml:space="preserve" font-family="Chalkduster" font-size="20.0" fill="#FEFFFE" transform="matrix(1.00, 0.00, -0.00, -1.00, 565.4, 457.0)">c</text><text xml:space="preserve" font-family="Chalkduster" font-size="20.0" fill="#FEFFFE" transform="matrix(1.00, 0.00, -0.00, -1.00, 577.2, 457.0)">t</text><text xml:space="preserve" font-family="Chalkduster" font-size="20.0" fill="#FEFFFE" transform="matrix(1.00, 0.00, -0.00, -1.00, 586.4, 457.0)">u</text><text xml:space="preserve" font-family="Chalkduster" font-size="20.0" fill="#FEFFFE" transform="matrix(1.00, 0.00, -0.00, -1.00, 600.4, 457.0)">r</text><text xml:space="preserve" font-family="Chalkduster" font-size="20.0" fill="#FEFFFE" transform="matrix(1.00, 0.00, -0.00, -1.00, 610.6, 457.0)">e</text><text xml:space="preserve" font-family="Chalkduster" font-size="20.0" fill="#FEFFFE" transform="matrix(1.00, 0.00, -0.00, -1.00, 623.4, 457.0)">s</text></g></g></g></g><image xlink:href="../../06CCC27B-670E-4A1A-97C4-EDA68A2117DD/assets/CE8E01D5A916205A8930C5806761A55B.png" width="139.00" height="27.00" transform="matrix(1.00, 0.00, -0.00, -1.00, 69.0, 373.0)"></image><g><clipPath id="clip-133"><path d="M 62.5 607.5 L 962.1 607.5 L 962.1 160.2 L 62.5 160.2 Z M 62.5 607.5 "></path></clipPath><g clip-path="url(#clip-133)"><g><clipPath id="clip-134"><path d="M 63.5 333.3 L 212.3 333.3 L 212.3 392.9 L 63.5 392.9 Z M 63.5 333.3 "></path></clipPath><g clip-path="url(#clip-134)"><text xml:space="preserve" font-family="Chalkduster" font-size="20.0" fill="#FEFFFE" transform="matrix(1.00, 0.00, -0.00, -1.00, 73.0, 353.0)">1</text><text xml:space="preserve" font-family="Chalkduster" font-size="20.0" fill="#FEFFFE" transform="matrix(1.00, 0.00, -0.00, -1.00, 84.7, 353.0)">2</text><text xml:space="preserve" font-family="Chalkduster" font-size="20.0" fill="#FEFFFE" transform="matrix(1.00, 0.00, -0.00, -1.00, 95.9, 353.0)">:</text><text xml:space="preserve" font-family="Chalkduster" font-size="20.0" fill="#FEFFFE" transform="matrix(1.00, 0.00, -0.00, -1.00, 102.5, 353.0)">0</text><text xml:space="preserve" font-family="Chalkduster" font-size="20.0" fill="#FEFFFE" transform="matrix(1.00, 0.00, -0.00, -1.00, 116.6, 353.0)">0</text><text xml:space="preserve" font-family="Chalkduster" font-size="20.0" fill="#FEFFFE" transform="matrix(1.00, 0.00, -0.00, -1.00, 131.3, 353.0)">-</text><text xml:space="preserve" font-family="Chalkduster" font-size="20.0" fill="#FEFFFE" transform="matrix(1.00, 0.00, -0.00, -1.00, 143.4, 353.0)">1</text><text xml:space="preserve" font-family="Chalkduster" font-size="20.0" fill="#FEFFFE" transform="matrix(1.00, 0.00, -0.00, -1.00, 155.5, 353.0)">3</text><text xml:space="preserve" font-family="Chalkduster" font-size="20.0" fill="#FEFFFE" transform="matrix(1.00, 0.00, -0.00, -1.00, 169.2, 353.0)">:</text><text xml:space="preserve" font-family="Chalkduster" font-size="20.0" fill="#FEFFFE" transform="matrix(1.00, 0.00, -0.00, -1.00, 175.8, 353.0)">0</text><text xml:space="preserve" font-family="Chalkduster" font-size="20.0" fill="#FEFFFE" transform="matrix(1.00, 0.00, -0.00, -1.00, 189.9, 353.0)">0</text></g></g></g></g><image xlink:href="../../06CCC27B-670E-4A1A-97C4-EDA68A2117DD/assets/7206033E86186D209175CE2BFA33EDB5.png" width="76.00" height="28.00" transform="matrix(1.00, 0.00, -0.00, -1.00, 549.0, 374.0)"></image><g><clipPath id="clip-135"><path d="M 62.5 607.5 L 962.1 607.5 L 962.1 160.2 L 62.5 160.2 Z M 62.5 607.5 "></path></clipPath><g clip-path="url(#clip-135)"><g><clipPath id="clip-136"><path d="M 213.3 333.3 L 961.1 333.3 L 961.1 392.9 L 213.3 392.9 Z M 213.3 333.3 "></path></clipPath><g clip-path="url(#clip-136)"><text xml:space="preserve" font-family="Chalkduster" font-size="20.0" fill="#FEFFFE" transform="matrix(1.00, 0.00, -0.00, -1.00, 554.0, 353.0)">L</text><text xml:space="preserve" font-family="Chalkduster" font-size="20.0" fill="#FEFFFE" transform="matrix(1.00, 0.00, -0.00, -1.00, 566.7, 353.0)">u</text><text xml:space="preserve" font-family="Chalkduster" font-size="20.0" fill="#FEFFFE" transform="matrix(1.00, 0.00, -0.00, -1.00, 580.7, 353.0)">n</text><text xml:space="preserve" font-family="Chalkduster" font-size="20.0" fill="#FEFFFE" transform="matrix(1.00, 0.00, -0.00, -1.00, 595.4, 353.0)">c</text><text xml:space="preserve" font-family="Chalkduster" font-size="20.0" fill="#FEFFFE" transform="matrix(1.00, 0.00, -0.00, -1.00, 608.0, 353.0)">h</text></g></g></g></g><image xlink:href="../../06CCC27B-670E-4A1A-97C4-EDA68A2117DD/assets/171DDD30A65EE960A756B9CC7A32A388.png" width="140.00" height="27.00" transform="matrix(1.00, 0.00, -0.00, -1.00, 68.0, 257.0)"></image><g><clipPath id="clip-137"><path d="M 62.5 607.5 L 962.1 607.5 L 962.1 160.2 L 62.5 160.2 Z M 62.5 607.5 "></path></clipPath><g clip-path="url(#clip-137)"><g><clipPath id="clip-138"><path d="M 63.5 161.2 L 212.3 161.2 L 212.3 332.3 L 63.5 332.3 Z M 63.5 161.2 "></path></clipPath><g clip-path="url(#clip-138)"><text xml:space="preserve" font-family="Chalkduster" font-size="20.0" fill="#FEFFFE" transform="matrix(1.00, 0.00, -0.00, -1.00, 72.0, 237.0)">1</text><text xml:space="preserve" font-family="Chalkduster" font-size="20.0" fill="#FEFFFE" transform="matrix(1.00, 0.00, -0.00, -1.00, 84.1, 237.0)">3</text><text xml:space="preserve" font-family="Chalkduster" font-size="20.0" fill="#FEFFFE" transform="matrix(1.00, 0.00, -0.00, -1.00, 97.9, 237.0)">:</text><text xml:space="preserve" font-family="Chalkduster" font-size="20.0" fill="#FEFFFE" transform="matrix(1.00, 0.00, -0.00, -1.00, 104.4, 237.0)">0</text><text xml:space="preserve" font-family="Chalkduster" font-size="20.0" fill="#FEFFFE" transform="matrix(1.00, 0.00, -0.00, -1.00, 118.5, 237.0)">0</text><text xml:space="preserve" font-family="Chalkduster" font-size="20.0" fill="#FEFFFE" transform="matrix(1.00, 0.00, -0.00, -1.00, 133.2, 237.0)">-</text><text xml:space="preserve" font-family="Chalkduster" font-size="20.0" fill="#FEFFFE" transform="matrix(1.00, 0.00, -0.00, -1.00, 145.3, 237.0)">1</text><text xml:space="preserve" font-family="Chalkduster" font-size="20.0" fill="#FEFFFE" transform="matrix(1.00, 0.00, -0.00, -1.00, 157.4, 237.0)">7</text><text xml:space="preserve" font-family="Chalkduster" font-size="20.0" fill="#FEFFFE" transform="matrix(1.00, 0.00, -0.00, -1.00, 169.3, 237.0)">:</text><text xml:space="preserve" font-family="Chalkduster" font-size="20.0" fill="#FEFFFE" transform="matrix(1.00, 0.00, -0.00, -1.00, 175.9, 237.0)">0</text><text xml:space="preserve" font-family="Chalkduster" font-size="20.0" fill="#FEFFFE" transform="matrix(1.00, 0.00, -0.00, -1.00, 190.0, 237.0)">0</text></g></g></g></g><image xlink:href="../../06CCC27B-670E-4A1A-97C4-EDA68A2117DD/assets/9BD7D8E62B14429D40BC0A4C03BB9DF0.png" width="226.00" height="36.00" transform="matrix(1.00, 0.00, -0.00, -1.00, 474.0, 260.0)"></image><g><clipPath id="clip-139"><path d="M 62.5 607.5 L 962.1 607.5 L 962.1 160.2 L 62.5 160.2 Z M 62.5 607.5 "></path></clipPath><g clip-path="url(#clip-139)"><g><clipPath id="clip-140"><path d="M 213.3 161.2 L 961.1 161.2 L 961.1 332.3 L 213.3 332.3 Z M 213.3 161.2 "></path></clipPath><g clip-path="url(#clip-140)"><text xml:space="preserve" font-family="Chalkduster" font-size="20.0" fill="#FEFFFE" transform="matrix(1.00, 0.00, -0.00, -1.00, 479.0, 237.0)">E</text><text xml:space="preserve" font-family="Chalkduster" font-size="20.0" fill="#FEFFFE" transform="matrix(1.00, 0.00, -0.00, -1.00, 493.8, 237.0)">x</text><text xml:space="preserve" font-family="Chalkduster" font-size="20.0" fill="#FEFFFE" transform="matrix(1.00, 0.00, -0.00, -1.00, 506.2, 237.0)">e</text><text xml:space="preserve" font-family="Chalkduster" font-size="20.0" fill="#FEFFFE" transform="matrix(1.00, 0.00, -0.00, -1.00, 518.4, 237.0)">r</text><text xml:space="preserve" font-family="Chalkduster" font-size="20.0" fill="#FEFFFE" transform="matrix(1.00, 0.00, -0.00, -1.00, 528.7, 237.0)">c</text><text xml:space="preserve" font-family="Chalkduster" font-size="20.0" fill="#FEFFFE" transform="matrix(1.00, 0.00, -0.00, -1.00, 541.3, 237.0)">i</text><text xml:space="preserve" font-family="Chalkduster" font-size="20.0" fill="#FEFFFE" transform="matrix(1.00, 0.00, -0.00, -1.00, 549.2, 237.0)">s</text><text xml:space="preserve" font-family="Chalkduster" font-size="20.0" fill="#FEFFFE" transform="matrix(1.00, 0.00, -0.00, -1.00, 559.3, 237.0)">e</text><text xml:space="preserve" font-family="Chalkduster" font-size="20.0" fill="#FEFFFE" transform="matrix(1.00, 0.00, -0.00, -1.00, 572.1, 237.0)">s</text><text xml:space="preserve" font-family="Chalkduster" font-size="20.0" fill="#FEFFFE" transform="matrix(1.00, 0.00, -0.00, -1.00, 582.2, 237.0)"> </text><text xml:space="preserve" font-family="Chalkduster" font-size="20.0" fill="#FEFFFE" transform="matrix(1.00, 0.00, -0.00, -1.00, 592.2, 237.0)">+</text><text xml:space="preserve" font-family="Chalkduster" font-size="20.0" fill="#FEFFFE" transform="matrix(1.00, 0.00, -0.00, -1.00, 604.6, 237.0)"> </text><text xml:space="preserve" font-family="Chalkduster" font-size="20.0" fill="#FEFFFE" transform="matrix(1.00, 0.00, -0.00, -1.00, 614.6, 237.0)">P</text><text xml:space="preserve" font-family="Chalkduster" font-size="20.0" fill="#FEFFFE" transform="matrix(1.00, 0.00, -0.00, -1.00, 628.5, 237.0)">r</text><text xml:space="preserve" font-family="Chalkduster" font-size="20.0" fill="#FEFFFE" transform="matrix(1.00, 0.00, -0.00, -1.00, 638.7, 237.0)">o</text><text xml:space="preserve" font-family="Chalkduster" font-size="20.0" fill="#FEFFFE" transform="matrix(1.00, 0.00, -0.00, -1.00, 652.1, 237.0)">j</text><text xml:space="preserve" font-family="Chalkduster" font-size="20.0" fill="#FEFFFE" transform="matrix(1.00, 0.00, -0.00, -1.00, 661.9, 237.0)">e</text><text xml:space="preserve" font-family="Chalkduster" font-size="20.0" fill="#FEFFFE" transform="matrix(1.00, 0.00, -0.00, -1.00, 674.6, 237.0)">c</text><text xml:space="preserve" font-family="Chalkduster" font-size="20.0" fill="#FEFFFE" transform="matrix(1.00, 0.00, -0.00, -1.00, 686.5, 237.0)">t</text></g></g></g></g><g><clipPath id="clip-141"><path d="M 62.5 607.5 L 962.1 607.5 L 962.1 160.2 L 62.5 160.2 Z M 62.5 607.5 "></path></clipPath><g clip-path="url(#clip-141)"><path d="M 301.5 1.5 L 301.5 67.4 " fill="none" stroke="#FEFFFE" stroke-opacity="0.50" stroke-width="1.00" transform="matrix(1.00, 0.00, 0.00, -1.00, 61.0, 609.0)"></path><path d="M 451.3 1.5 L 451.3 67.4 " fill="none" stroke="#FEFFFE" stroke-opacity="0.50" stroke-width="1.00" transform="matrix(1.00, 0.00, 0.00, -1.00, 61.0, 609.0)"></path><path d="M 601.0 1.5 L 601.0 67.4 " fill="none" stroke="#FEFFFE" stroke-opacity="0.50" stroke-width="1.00" transform="matrix(1.00, 0.00, 0.00, -1.00, 61.0, 609.0)"></path><path d="M 750.8 1.5 L 750.8 67.4 " fill="none" stroke="#FEFFFE" stroke-opacity="0.50" stroke-width="1.00" transform="matrix(1.00, 0.00, 0.00, -1.00, 61.0, 609.0)"></path><path d="M 1.5 215.6 L 151.8 215.6 " fill="none" stroke="#FEFFFE" stroke-opacity="0.50" stroke-width="1.00" transform="matrix(1.00, 0.00, 0.00, -1.00, 61.0, 609.0)"></path><path d="M 151.8 215.6 L 901.1 215.6 " fill="none" stroke="#FEFFFE" stroke-opacity="0.50" stroke-width="1.00" transform="matrix(1.00, 0.00, 0.00, -1.00, 61.0, 609.0)"></path><path d="M 1.5 276.2 L 151.8 276.2 " fill="none" stroke="#FEFFFE" stroke-opacity="0.50" stroke-width="1.00" transform="matrix(1.00, 0.00, 0.00, -1.00, 61.0, 609.0)"></path><path d="M 151.8 276.2 L 901.1 276.2 " fill="none" stroke="#FEFFFE" stroke-opacity="0.50" stroke-width="1.00" transform="matrix(1.00, 0.00, 0.00, -1.00, 61.0, 609.0)"></path><path d="M 151.8 1.5 L 151.8 66.9 " fill="none" stroke="#FEFFFE" stroke-opacity="0.50" stroke-width="1.00" transform="matrix(1.00, 0.00, 0.00, -1.00, 61.0, 609.0)"></path><path d="M 151.8 66.9 L 151.8 448.8 " fill="none" stroke="#FEFFFE" stroke-opacity="0.50" stroke-width="1.00" transform="matrix(1.00, 0.00, 0.00, -1.00, 61.0, 609.0)"></path><path d="M 1.5 66.9 L 901.1 66.9 " fill="none" stroke="#FEFFFE" stroke-opacity="0.50" stroke-width="1.00" transform="matrix(1.00, 0.00, 0.00, -1.00, 61.0, 609.0)"></path><path d="M 2.0 1.5 L 2.0 66.9 " fill="none" stroke="#FEFFFE" stroke-opacity="0.50" stroke-width="1.00" transform="matrix(1.00, 0.00, 0.00, -1.00, 61.0, 609.0)"></path><path d="M 2.0 66.9 L 2.0 448.8 " fill="none" stroke="#FEFFFE" stroke-opacity="0.50" stroke-width="1.00" transform="matrix(1.00, 0.00, 0.00, -1.00, 61.0, 609.0)"></path><path d="M 900.6 1.5 L 900.6 66.9 " fill="none" stroke="#FEFFFE" stroke-opacity="0.50" stroke-width="1.00" transform="matrix(1.00, 0.00, 0.00, -1.00, 61.0, 609.0)"></path><path d="M 900.6 66.9 L 900.6 448.8 " fill="none" stroke="#FEFFFE" stroke-opacity="0.50" stroke-width="1.00" transform="matrix(1.00, 0.00, 0.00, -1.00, 61.0, 609.0)"></path><path d="M 1.5 2.0 L 901.1 2.0 " fill="none" stroke="#FEFFFE" stroke-opacity="0.50" stroke-width="1.00" transform="matrix(1.00, 0.00, 0.00, -1.00, 61.0, 609.0)"></path><path d="M 1.5 448.3 L 151.8 448.3 " fill="none" stroke="#FEFFFE" stroke-opacity="0.50" stroke-width="1.00" transform="matrix(1.00, 0.00, 0.00, -1.00, 61.0, 609.0)"></path><path d="M 151.8 448.3 L 901.1 448.3 " fill="none" stroke="#FEFFFE" stroke-opacity="0.50" stroke-width="1.00" transform="matrix(1.00, 0.00, 0.00, -1.00, 61.0, 609.0)"></path></g></g><path d="M 911.2 288.5 C 943.3 289.7 949.5 273.8 924.9 253.1 C 900.4 232.3 854.4 214.4 822.2 213.2 C 790.1 212.0 783.9 227.9 808.5 248.7 C 833.1 269.4 879.0 287.3 911.2 288.5 Z M 911.2 288.5 " fill="#A8E685"></path><path d="M 838.0 211.0 C 837.8 211.0 837.5 211.0 837.1 210.9 C 837.2 211.0 837.4 211.1 837.3 211.2 C 837.7 211.2 838.2 211.3 838.9 211.4 C 838.9 211.3 838.5 211.3 838.3 211.2 C 838.0 211.2 838.1 211.1 838.0 211.0 C 838.0 211.0 838.0 211.0 838.0 211.0 Z M 814.7 257.6 C 814.2 257.2 814.6 257.8 814.8 258.0 C 814.9 257.9 814.9 257.9 815.1 258.1 C 815.1 258.3 814.6 258.0 814.2 257.8 C 812.9 256.7 814.1 257.2 814.7 257.6 C 814.7 257.6 814.7 257.6 814.7 257.6 Z M 897.4 290.3 C 898.7 290.5 897.3 290.0 897.1 289.9 C 897.8 289.9 897.3 289.5 898.1 289.6 C 898.3 289.7 898.5 289.8 898.7 290.0 C 898.3 289.9 897.8 289.8 897.7 289.9 C 898.2 290.0 898.9 290.1 899.0 290.2 C 897.9 290.1 898.7 290.4 898.9 290.6 C 898.0 290.4 897.6 290.6 897.4 290.3 C 897.4 290.3 897.4 290.3 897.4 290.3 Z M 933.6 257.5 C 933.9 257.9 934.2 258.3 934.0 258.3 C 933.6 257.9 933.4 257.6 933.2 257.3 C 933.1 257.3 933.1 257.5 932.7 257.1 C 932.5 256.6 932.9 256.6 933.2 256.7 C 933.1 256.9 934.5 258.2 933.6 257.5 C 933.6 257.5 933.6 257.5 933.6 257.5 Z M 902.6 235.4 C 901.6 234.7 902.4 235.7 901.4 235.0 C 901.5 234.8 901.4 234.5 902.2 234.9 C 902.2 235.0 902.6 235.3 902.6 235.4 C 902.6 235.4 902.6 235.4 902.6 235.4 Z M 861.6 279.0 C 861.5 279.2 862.4 279.4 862.2 279.6 C 861.7 279.4 861.3 279.3 860.9 279.1 C 860.8 278.9 861.0 278.8 861.6 279.0 C 861.6 279.0 861.6 279.0 861.6 279.0 Z M 906.6 289.0 C 907.9 289.4 909.3 289.1 908.9 289.3 C 909.4 289.6 907.9 290.0 908.0 289.7 C 907.9 289.4 905.6 289.0 906.6 289.0 C 906.6 289.0 906.6 289.0 906.6 289.0 Z M 822.9 258.1 C 824.1 259.0 824.2 258.3 824.9 259.1 C 824.6 258.9 824.4 258.9 824.3 258.9 C 824.5 259.0 824.8 259.2 824.7 259.3 C 824.1 258.9 823.4 258.6 822.9 258.1 C 822.9 258.1 822.9 258.1 822.9 258.1 Z M 859.7 216.6 C 860.0 216.7 860.1 216.7 860.1 216.6 C 861.1 216.9 861.2 216.7 861.8 217.1 C 861.7 217.4 860.9 217.0 860.1 216.7 C 860.0 216.8 859.8 216.7 859.7 216.6 C 859.7 216.6 859.7 216.6 859.7 216.6 Z M 887.9 227.9 C 887.9 227.8 887.4 227.4 888.3 227.8 C 889.3 228.5 888.2 228.3 887.1 228.0 C 887.1 228.0 887.0 228.1 887.0 228.2 C 887.4 228.4 887.7 228.6 887.9 228.7 C 888.2 228.5 888.7 229.4 890.4 229.9 C 889.5 229.7 890.2 230.4 889.3 229.8 C 889.5 230.1 888.8 229.8 888.8 230.0 C 889.3 230.1 890.3 230.6 890.2 230.2 C 890.8 230.5 891.2 230.7 891.4 230.9 C 891.7 231.3 890.4 230.5 890.7 230.9 C 891.0 231.0 891.0 231.1 891.2 231.2 C 891.3 231.2 891.3 231.0 891.6 231.2 C 892.6 231.7 891.3 231.3 892.7 232.0 C 892.9 231.9 892.5 231.7 892.6 231.6 C 893.3 231.8 893.1 231.9 893.8 232.1 C 893.9 232.3 893.3 232.1 893.7 232.3 C 894.3 232.2 894.9 233.2 895.9 233.3 C 895.5 232.6 896.0 233.5 896.9 233.4 C 897.1 233.6 896.4 233.6 897.0 234.0 C 897.1 233.3 899.7 234.8 897.7 233.3 C 898.9 233.9 899.5 233.6 898.6 233.1 C 900.5 234.2 900.0 233.6 900.8 234.0 C 901.5 234.4 900.3 233.9 900.7 234.3 C 899.9 233.8 900.0 234.1 899.5 233.6 C 899.4 233.7 899.3 233.7 899.0 233.7 C 899.9 234.0 900.7 234.8 900.0 234.7 C 899.6 234.5 900.1 234.4 899.6 234.1 C 899.6 234.6 899.0 233.8 898.9 234.0 C 899.1 234.4 897.9 234.1 898.9 234.7 C 899.0 234.6 899.0 234.5 899.1 234.3 C 899.4 234.5 899.7 234.7 900.0 234.8 C 900.1 235.2 899.8 235.2 900.1 235.4 C 900.5 235.7 900.8 235.7 901.0 235.7 C 900.4 235.4 899.8 234.8 900.9 235.3 C 900.3 235.5 902.2 236.1 901.3 235.9 C 902.3 236.7 903.0 236.6 902.9 237.0 C 903.5 237.3 903.3 236.8 903.9 237.2 C 904.9 238.0 904.9 237.6 906.1 238.6 C 906.5 238.3 906.2 238.7 906.7 239.0 C 906.7 238.9 906.8 238.7 906.9 238.6 C 907.3 239.1 908.3 239.9 909.6 240.3 C 909.8 240.6 909.5 240.6 910.3 241.0 C 911.2 241.2 912.0 242.2 913.1 242.4 C 913.1 242.7 913.7 243.1 914.1 243.2 C 914.2 243.4 913.6 243.3 914.1 243.7 C 914.7 243.8 914.0 243.3 914.9 243.7 C 914.7 243.9 915.7 244.0 915.6 244.3 C 915.3 244.2 915.0 244.1 914.7 244.0 C 915.0 244.2 914.9 244.3 915.1 244.5 C 915.3 244.1 915.7 244.8 915.9 245.0 C 915.9 244.8 916.1 244.8 916.3 244.9 C 916.8 245.2 917.1 245.4 917.4 245.5 C 917.9 246.0 916.9 245.5 917.5 245.9 C 918.1 245.6 918.2 246.5 919.6 247.0 C 919.8 247.3 920.2 247.8 920.9 248.3 C 921.0 248.2 920.2 247.7 920.3 247.6 C 921.3 248.4 920.2 247.3 920.9 247.8 C 922.3 249.0 923.2 249.8 924.5 251.1 C 924.6 251.0 925.8 251.8 925.8 251.8 C 925.4 251.6 926.5 252.9 927.3 253.6 C 927.8 253.5 929.2 254.3 929.4 254.2 C 929.5 254.6 929.4 254.5 929.3 254.9 C 930.5 256.2 931.4 256.5 931.8 257.5 C 931.8 257.3 932.4 257.8 932.9 258.2 C 932.6 258.2 932.3 258.1 931.9 257.9 C 932.5 258.5 932.5 258.7 933.0 259.2 C 934.0 259.3 934.1 260.7 935.0 260.7 C 935.7 261.6 935.3 261.6 935.9 262.3 C 936.0 262.2 936.2 262.3 936.4 262.4 C 936.0 262.0 935.5 261.7 935.5 261.2 C 936.5 262.4 934.2 258.6 936.0 260.3 C 936.0 260.5 935.7 260.4 936.0 260.8 C 937.0 261.9 936.6 261.1 936.2 260.6 C 936.9 261.3 937.4 262.2 937.2 261.4 C 938.6 263.0 937.6 262.1 937.9 262.7 C 940.2 265.6 942.3 269.4 942.6 273.3 C 942.9 273.3 942.8 275.4 942.6 276.1 C 942.8 277.1 942.6 278.2 942.2 278.5 C 942.4 278.7 941.7 279.6 941.9 279.8 C 942.0 279.4 942.2 279.1 942.1 279.6 C 941.5 281.0 940.2 282.8 939.8 283.6 C 939.2 283.8 938.6 284.6 938.2 285.2 C 938.0 285.1 938.4 284.7 938.0 285.0 C 938.0 285.2 936.9 286.2 936.5 286.3 C 936.9 286.1 937.2 285.5 936.6 285.9 C 936.7 286.0 936.0 286.4 936.3 286.5 C 935.4 286.9 935.0 287.3 934.1 287.6 C 934.7 287.3 935.0 287.0 935.1 286.8 C 934.6 287.2 934.3 287.4 933.7 287.5 C 934.0 287.7 933.0 287.9 932.1 288.5 C 931.8 288.5 931.6 288.4 930.8 288.7 C 930.4 289.0 932.1 288.5 931.2 288.9 C 931.2 288.8 930.3 288.9 930.6 289.1 C 929.4 289.4 928.8 289.7 927.8 289.7 C 929.1 289.5 928.0 289.4 927.7 289.4 C 927.5 289.5 927.0 289.6 927.1 289.6 C 927.1 289.7 927.7 289.6 927.8 289.6 C 926.9 289.7 926.7 290.2 926.4 290.0 C 926.8 290.0 926.8 289.8 926.3 289.9 C 926.3 290.3 923.5 290.4 924.4 290.1 C 924.5 290.2 925.5 290.1 925.6 289.9 C 925.3 289.9 923.7 290.2 924.0 289.9 C 924.9 289.8 924.9 290.0 925.9 289.7 C 926.0 289.5 926.6 289.4 927.0 289.2 C 925.4 289.5 925.0 289.8 924.7 289.6 C 924.0 289.7 924.5 290.0 923.2 290.1 C 921.4 290.2 922.9 289.8 922.4 289.8 C 920.8 290.1 921.3 290.4 922.0 290.5 C 920.7 290.6 920.3 290.8 918.7 290.9 C 918.7 290.7 918.9 290.6 919.5 290.5 C 919.6 290.6 921.0 290.6 920.8 290.5 C 920.7 290.1 919.6 290.1 917.8 290.1 C 918.2 290.4 918.3 290.3 916.4 290.3 C 916.7 290.7 915.5 290.3 915.5 290.5 C 915.5 290.6 916.2 290.6 916.8 290.5 C 916.8 290.7 916.6 290.8 916.0 290.9 C 915.6 290.8 915.2 290.9 914.1 290.8 C 914.0 290.6 914.8 290.6 915.0 290.4 C 914.4 290.4 914.2 290.5 913.6 290.6 C 913.0 290.3 913.1 290.0 913.1 289.7 C 913.9 289.6 915.0 289.6 914.1 289.5 C 916.8 289.4 914.0 289.8 915.0 289.9 C 916.1 289.5 915.5 290.0 917.3 289.9 C 917.8 289.9 918.0 289.8 918.2 289.7 C 918.0 289.6 917.0 289.4 918.1 289.4 C 918.4 289.5 919.0 289.6 919.9 289.6 C 919.9 289.5 918.1 289.5 919.9 289.3 C 920.7 289.3 920.0 289.7 921.1 289.6 C 921.1 289.5 921.5 289.4 921.5 289.4 C 919.9 289.6 921.8 289.1 920.7 289.1 C 922.1 288.9 921.0 289.4 921.9 289.2 C 921.9 289.1 923.5 289.2 923.5 288.9 C 922.9 289.1 921.7 289.2 921.9 288.9 C 922.9 288.9 927.4 287.9 925.7 288.6 C 926.3 288.3 929.2 287.3 929.0 287.5 C 928.2 287.7 928.2 287.9 928.1 288.1 C 929.7 287.4 930.6 287.3 931.9 286.4 C 930.3 287.0 931.4 286.2 930.3 286.3 C 929.9 286.5 929.2 286.7 929.1 286.8 C 929.4 287.0 930.1 286.6 930.3 286.4 C 930.4 286.6 930.5 286.8 930.6 287.0 C 928.5 287.4 927.4 287.9 926.3 288.1 C 927.2 287.9 924.5 288.1 925.6 287.8 C 926.0 287.9 927.1 287.7 928.0 287.5 C 928.0 287.5 928.0 287.4 927.9 287.3 C 928.3 287.2 928.8 287.1 928.8 287.0 C 927.7 287.3 927.0 287.2 926.2 287.6 C 926.2 287.6 926.2 287.5 926.2 287.5 C 926.0 287.5 925.8 287.5 925.8 287.4 C 926.3 287.3 926.8 287.3 926.9 287.1 C 926.0 287.3 925.8 287.1 924.7 287.2 C 924.9 286.9 923.5 286.8 925.0 286.5 C 925.2 286.7 926.1 286.6 926.1 286.7 C 926.5 286.8 927.3 286.5 927.7 286.3 C 927.2 286.2 926.4 286.4 926.3 286.1 C 927.0 285.9 927.4 285.7 927.9 285.8 C 926.6 286.3 928.6 285.8 929.2 285.9 C 929.0 285.9 928.7 285.9 928.5 285.8 C 929.5 285.5 930.0 285.6 929.9 285.2 C 931.0 284.7 930.8 285.1 931.5 284.8 C 931.0 284.6 931.9 284.4 931.4 284.3 C 932.5 283.8 931.8 284.4 932.2 284.3 C 932.5 284.1 932.5 284.0 932.8 283.8 C 933.4 283.7 934.2 283.2 934.5 283.3 C 934.9 283.1 935.0 283.1 935.3 282.9 C 935.3 282.7 935.4 282.6 935.5 282.4 C 935.6 282.4 935.9 282.3 935.9 282.2 C 934.8 282.6 935.1 282.4 933.9 282.9 C 933.9 283.0 933.8 283.1 934.1 283.1 C 933.4 283.6 933.1 283.6 932.3 283.9 C 932.2 283.8 931.9 283.6 931.3 284.1 C 931.3 283.8 931.1 283.8 931.4 283.6 C 931.8 283.6 932.3 283.4 932.8 283.3 C 932.8 283.1 932.7 283.1 932.9 282.9 C 933.2 282.9 933.5 282.8 933.7 282.5 C 933.8 282.6 933.7 282.7 933.7 282.8 C 934.6 282.3 934.1 282.3 934.8 281.9 C 934.6 281.9 934.3 282.2 934.5 281.8 C 935.0 281.3 935.2 281.3 935.5 281.1 C 935.5 281.1 935.4 281.0 935.5 280.9 C 935.9 280.7 935.1 282.0 935.9 281.6 C 935.8 281.4 936.4 280.9 936.6 280.9 C 936.6 281.2 936.0 281.4 936.1 281.5 C 937.2 280.4 936.5 281.8 937.5 280.6 C 937.4 280.5 937.3 280.5 937.3 280.4 C 936.9 280.9 936.7 280.8 936.6 280.6 C 936.3 281.0 935.9 280.9 935.7 281.4 C 935.5 280.9 936.0 281.1 936.4 280.7 C 936.2 280.5 935.8 280.9 935.6 280.8 C 936.6 280.1 936.4 279.7 937.2 278.9 C 936.8 279.0 937.4 278.4 937.2 278.4 C 936.9 279.2 936.4 278.6 936.3 278.6 C 936.1 279.1 936.6 279.1 936.5 279.5 C 936.2 279.5 936.2 279.4 935.9 279.1 C 936.2 278.8 936.2 278.8 936.2 278.4 C 936.5 278.3 937.1 278.2 937.0 278.7 C 937.0 278.5 937.1 277.9 937.3 277.9 C 937.1 278.5 937.4 277.9 937.4 278.3 C 937.7 277.9 937.7 277.0 938.0 276.4 C 937.8 276.4 937.8 276.2 937.7 276.2 C 937.8 276.8 937.3 276.8 937.1 277.4 C 937.2 277.1 937.0 277.2 936.9 277.3 C 937.2 276.8 937.0 276.5 937.3 276.1 C 937.2 276.1 937.1 276.1 937.0 276.1 C 937.3 275.5 937.2 275.5 937.0 275.0 C 937.1 274.7 937.5 275.0 937.8 275.1 C 937.7 274.8 937.6 273.7 937.4 274.4 C 937.3 273.8 937.7 273.9 937.5 273.2 C 937.3 273.2 937.4 273.8 937.0 273.7 C 936.9 273.1 937.3 273.3 937.0 272.9 C 937.1 272.8 937.4 272.7 937.2 272.2 C 937.1 272.6 937.1 272.1 936.9 272.0 C 936.9 272.3 936.9 272.5 936.9 272.7 C 936.7 271.6 936.6 271.4 936.1 270.5 C 936.5 270.8 936.4 270.2 936.8 270.8 C 936.4 270.3 936.3 269.4 936.0 269.1 C 936.1 269.6 936.4 270.2 936.4 270.4 C 935.5 268.6 934.6 267.7 933.7 265.7 C 933.9 266.0 934.2 266.5 934.3 266.5 C 934.1 266.3 933.9 265.9 934.0 265.9 C 934.4 266.5 934.8 267.1 935.1 267.4 C 935.3 268.0 934.7 267.2 935.0 267.8 C 935.2 267.8 935.6 268.9 935.7 268.4 C 935.0 267.5 934.6 266.5 934.6 265.8 C 933.6 265.2 934.3 266.0 933.1 265.3 C 933.3 265.2 933.2 265.0 932.9 264.6 C 932.9 265.1 932.1 263.8 932.0 263.6 C 932.5 264.0 934.0 265.7 933.5 264.6 C 933.3 265.4 932.0 262.4 932.0 263.2 C 931.0 262.0 931.6 262.2 930.8 261.7 C 930.8 261.6 931.0 261.6 930.7 261.3 C 930.4 261.0 930.2 260.9 930.0 260.8 C 931.5 262.6 930.8 262.3 931.7 263.4 C 931.5 263.2 931.4 263.1 931.4 263.2 C 931.3 263.2 931.3 263.2 931.1 262.9 C 931.3 262.7 930.3 262.1 930.2 261.7 C 930.5 262.0 930.8 262.4 930.8 262.2 C 929.5 260.8 930.1 260.9 928.1 258.7 C 928.6 259.4 927.8 258.7 927.0 258.0 C 926.0 257.0 926.7 257.1 925.3 255.9 C 925.0 256.5 923.8 254.5 922.6 254.0 C 922.9 253.8 921.6 252.6 921.1 252.6 C 921.2 252.5 920.7 252.1 920.3 251.9 C 920.3 251.7 920.8 251.9 920.5 251.7 C 920.1 251.5 920.3 251.9 919.8 251.6 C 919.4 251.2 919.6 251.0 918.9 250.5 C 918.7 250.6 919.2 250.9 918.7 250.7 C 918.1 250.2 917.5 249.7 917.9 250.3 C 916.9 249.7 917.7 249.6 916.7 249.0 C 916.9 249.3 916.9 249.3 916.4 249.0 C 916.1 248.6 916.1 248.5 916.1 248.3 C 915.7 248.3 915.8 248.4 915.0 247.8 C 915.0 247.9 914.9 248.0 914.8 248.1 C 914.5 247.8 913.9 247.5 913.9 247.3 C 914.6 247.8 914.5 247.5 914.8 247.6 C 914.1 247.1 913.0 246.0 913.8 247.0 C 912.8 246.4 913.4 246.4 912.6 246.0 C 913.0 246.5 912.7 246.0 911.8 245.5 C 911.7 245.9 911.3 245.2 910.8 245.0 C 910.7 245.2 910.6 245.2 910.1 244.9 C 910.2 244.8 909.9 244.6 909.4 244.3 C 909.3 244.4 910.3 245.2 909.3 244.5 C 908.8 244.1 908.9 243.8 908.1 243.3 C 908.1 243.0 909.0 243.6 908.9 243.3 C 908.1 243.1 908.0 242.8 907.0 242.2 C 907.2 242.8 904.7 241.5 905.8 242.4 C 905.4 242.1 904.8 242.2 904.6 241.8 C 905.0 242.0 904.5 241.4 904.5 241.4 C 904.0 241.1 903.0 240.3 902.8 240.5 C 903.9 241.0 903.8 241.2 904.1 241.5 C 902.5 240.8 901.1 239.9 901.4 239.8 C 901.4 239.8 901.1 239.7 901.0 239.7 C 901.6 240.0 901.8 240.6 901.1 240.2 C 901.4 240.1 900.9 239.8 900.5 239.4 C 900.3 239.6 898.4 238.2 898.6 238.7 C 899.6 239.0 900.1 239.7 899.4 239.5 C 898.9 239.0 897.8 238.3 898.2 238.2 C 897.9 238.1 897.5 238.0 897.2 238.0 C 896.9 238.0 897.5 238.4 897.3 238.5 C 896.9 238.2 896.2 237.9 896.2 237.8 C 897.4 238.4 895.7 237.4 896.9 237.8 C 896.2 237.5 896.1 237.2 895.5 236.9 C 895.5 237.0 895.3 236.9 895.2 236.9 C 895.8 237.0 896.2 237.4 895.9 237.6 C 894.9 237.1 895.2 236.9 894.3 236.5 C 893.9 236.5 892.6 236.2 892.1 235.7 C 893.2 236.3 892.0 235.6 892.8 235.8 C 893.8 236.5 894.2 236.4 894.7 236.4 C 894.3 236.0 893.4 235.5 893.2 235.7 C 893.7 236.0 893.8 235.9 894.1 236.0 C 894.0 236.2 893.8 236.2 893.4 236.0 C 893.0 235.6 891.8 235.3 892.7 235.3 C 891.8 235.1 891.1 234.4 890.2 234.2 C 891.1 234.7 891.7 235.1 891.9 235.4 C 891.1 235.1 890.5 234.5 890.4 234.7 C 890.4 234.9 891.6 235.4 891.7 235.7 C 890.7 235.4 889.6 234.1 890.5 235.2 C 890.0 234.9 889.3 234.5 889.1 234.3 C 889.7 234.6 889.2 234.0 888.9 233.8 C 888.4 233.5 887.9 233.4 887.6 233.4 C 888.5 233.7 889.1 234.3 888.5 234.0 C 888.4 233.8 888.1 233.9 887.8 233.8 C 887.8 233.7 886.8 233.3 886.7 233.1 C 886.7 233.2 887.1 233.5 887.2 233.6 C 886.6 233.4 885.6 233.4 885.3 232.9 C 885.7 233.0 886.2 233.3 886.3 233.2 C 884.8 232.2 884.4 231.7 882.6 230.7 C 882.8 230.8 883.0 230.8 883.0 230.7 C 881.8 230.1 881.0 229.7 881.2 229.6 C 880.5 229.3 880.0 229.3 879.5 229.3 C 880.3 229.7 880.7 229.6 881.1 230.0 C 880.8 229.9 881.5 230.7 881.8 231.0 C 883.2 231.3 883.1 231.7 884.5 232.2 C 884.0 232.2 885.5 232.6 885.0 232.7 C 883.9 231.8 882.6 231.6 880.8 230.6 C 881.1 230.6 881.4 230.5 880.7 230.1 C 879.5 229.5 880.0 230.0 879.0 229.6 C 878.7 229.2 879.3 229.4 878.8 229.1 C 878.5 229.1 877.6 228.7 877.3 228.4 C 878.6 228.9 877.2 228.1 878.1 228.3 C 877.6 228.1 877.4 228.0 877.2 227.9 C 878.3 228.6 875.8 227.7 876.6 228.3 C 874.8 227.7 876.7 227.6 875.3 227.1 C 875.9 227.6 875.0 227.3 873.9 226.9 C 873.7 226.5 872.7 226.1 871.8 225.7 C 872.2 226.0 872.6 226.1 871.7 226.0 C 872.1 226.2 872.9 226.5 873.3 226.5 C 873.3 226.6 873.4 226.8 873.6 226.9 C 872.5 226.6 872.9 226.8 872.5 226.8 C 872.2 226.6 871.5 226.3 871.3 226.1 C 871.3 226.2 871.0 226.1 871.0 226.1 C 872.3 226.6 870.6 226.4 871.4 226.7 C 872.0 226.9 871.7 226.5 872.5 226.8 C 873.1 227.4 871.8 226.9 871.3 227.0 C 871.9 227.4 872.7 227.4 872.8 227.7 C 871.9 227.7 870.7 227.1 869.7 226.6 C 869.6 226.9 868.0 225.9 867.7 226.2 C 867.6 226.1 867.4 225.9 867.1 225.8 C 866.7 225.9 866.5 225.5 866.2 225.4 C 866.1 225.5 866.2 225.6 866.4 225.8 C 865.1 225.2 864.8 225.1 863.2 224.7 C 863.0 224.5 862.8 224.3 862.7 224.1 C 863.1 224.2 863.5 224.2 863.8 224.2 C 861.7 223.5 862.8 224.6 861.5 223.8 C 861.5 223.9 862.4 224.5 861.6 224.3 C 860.4 223.6 858.4 223.3 858.7 222.7 C 857.6 222.1 856.6 222.3 856.2 221.8 C 855.8 221.7 855.6 221.8 855.5 221.8 C 855.8 222.1 856.2 222.3 856.6 222.6 C 857.4 222.6 857.6 223.0 857.0 222.4 C 858.1 222.7 858.3 222.9 858.8 223.2 C 857.3 222.9 856.1 222.4 855.9 222.7 C 855.5 222.4 855.1 222.1 854.8 221.9 C 854.6 222.0 852.9 221.6 852.9 221.4 C 854.0 221.7 855.2 221.7 854.2 221.3 C 851.5 220.7 850.1 219.9 847.7 219.6 C 847.6 219.5 847.8 219.4 847.4 219.3 C 847.4 219.4 847.3 219.5 847.0 219.5 C 846.3 219.3 845.9 219.1 844.9 218.9 C 845.0 218.7 844.9 218.5 844.4 218.3 C 844.0 218.5 842.9 218.8 842.4 218.6 C 843.0 218.7 842.2 218.2 841.8 218.1 C 842.1 218.5 839.2 217.4 840.0 217.9 C 838.7 217.6 838.2 217.4 838.2 217.3 C 837.8 217.3 837.4 217.3 837.0 217.3 C 836.8 216.9 834.6 216.8 834.4 216.6 C 835.1 216.8 835.3 216.5 834.7 216.4 C 834.2 216.5 832.3 216.5 832.0 216.4 C 832.1 216.3 832.3 216.1 833.2 216.1 C 831.7 215.9 831.6 216.2 831.1 216.4 C 831.2 216.1 830.5 216.3 830.2 216.3 C 829.8 216.1 830.3 216.2 830.3 216.0 C 829.7 215.9 829.6 215.7 828.9 215.7 C 829.0 216.0 828.3 215.7 828.0 215.7 C 827.9 215.8 827.5 215.9 826.8 215.9 C 827.7 215.5 823.3 215.2 824.3 215.6 C 823.5 215.7 823.5 215.2 822.4 215.2 C 822.2 215.4 821.6 215.2 822.2 215.4 C 821.3 215.5 821.5 215.1 819.8 215.2 C 820.5 215.5 818.1 215.1 818.5 215.5 C 817.7 215.1 816.4 215.7 815.0 215.4 C 815.0 215.5 814.7 215.5 814.6 215.6 C 814.4 215.7 816.2 215.7 815.1 215.8 C 813.6 215.7 814.4 215.6 814.2 215.4 C 810.5 215.8 806.7 216.4 804.0 217.2 C 804.4 217.2 804.4 217.3 803.9 217.5 C 803.0 217.3 800.4 218.7 800.2 219.1 C 799.8 218.9 799.0 219.9 798.7 219.9 C 798.9 219.8 799.1 219.3 798.7 219.6 C 798.6 220.1 798.2 220.2 798.0 220.6 C 797.7 220.6 797.0 221.8 797.0 221.0 C 796.9 221.2 796.8 221.3 796.6 221.4 C 796.9 221.6 796.7 221.7 797.1 221.5 C 796.2 222.3 796.3 222.6 795.8 223.3 C 795.9 223.5 796.2 223.0 796.1 223.4 C 796.1 223.4 796.0 223.4 796.0 223.4 C 795.9 223.5 796.0 223.6 795.8 223.7 C 795.7 223.6 795.9 223.4 795.6 223.2 C 795.5 223.7 795.1 223.9 795.3 224.1 C 795.5 223.5 795.8 224.0 795.5 224.3 C 795.4 223.9 795.3 225.7 795.4 226.2 C 795.1 226.5 795.4 225.6 795.2 225.7 C 795.2 226.7 795.1 226.7 795.4 226.8 C 795.4 227.4 795.3 227.7 795.6 228.4 C 795.5 228.9 795.3 228.2 795.4 228.7 C 795.5 228.9 795.7 229.0 795.8 229.5 C 795.7 230.8 797.8 233.5 798.2 235.5 C 797.9 234.7 798.6 235.5 799.2 236.4 C 799.2 236.5 799.0 236.5 799.2 236.8 C 799.3 236.6 799.6 236.9 800.0 237.5 C 800.0 237.6 799.8 237.6 800.0 237.9 C 800.4 238.0 800.8 238.9 801.3 239.2 C 801.2 239.6 800.3 238.3 800.1 238.3 C 801.1 239.8 801.6 239.9 802.5 241.1 C 802.0 240.6 802.7 241.7 802.9 242.0 C 802.8 241.5 803.8 242.3 803.3 241.6 C 803.7 242.0 804.3 242.6 804.3 242.8 C 804.1 242.6 803.8 242.2 803.7 242.3 C 804.3 242.8 804.8 243.7 805.2 243.8 C 804.8 243.4 804.7 243.1 804.8 243.0 C 805.0 243.1 805.2 243.2 805.5 243.4 C 804.2 243.0 807.1 245.3 807.3 245.3 C 807.4 245.9 807.5 246.0 807.3 246.1 C 808.5 247.2 808.5 246.8 809.3 247.4 C 808.9 247.4 808.8 247.6 809.4 248.3 C 809.4 247.9 810.2 248.6 810.2 248.1 C 812.0 249.5 812.2 250.1 813.4 251.0 C 813.4 250.9 813.1 250.6 813.5 250.8 C 813.9 251.3 814.4 251.7 814.6 252.1 C 815.1 252.2 814.7 251.8 815.1 252.0 C 815.8 252.8 815.4 252.9 816.1 253.6 C 817.1 254.2 816.7 254.0 817.5 254.2 C 817.2 254.0 816.9 253.7 817.3 253.9 C 817.8 254.5 817.9 254.9 818.0 255.1 C 817.5 254.8 817.2 254.5 817.0 254.3 C 816.8 254.4 816.2 253.9 816.6 254.4 C 816.0 253.9 815.4 253.4 814.5 252.8 C 814.6 253.2 813.7 252.3 813.8 252.7 C 814.8 253.4 815.0 253.7 815.9 254.3 C 815.9 253.9 816.8 254.8 816.9 255.0 C 817.0 254.8 817.7 255.3 817.6 255.0 C 818.4 255.5 818.3 255.7 819.1 256.1 C 819.1 256.2 818.9 256.3 819.2 256.5 C 819.6 256.4 819.7 256.9 819.9 257.1 C 819.9 256.7 820.9 257.6 821.1 257.5 C 820.8 257.3 820.4 257.0 820.4 256.9 C 821.6 257.7 820.8 256.9 820.6 256.6 C 820.6 256.7 820.0 256.7 820.0 256.4 C 821.1 257.0 818.8 255.1 819.6 255.8 C 820.4 256.4 820.4 256.2 821.2 256.8 C 821.9 257.8 820.7 257.2 821.4 258.1 C 822.1 258.3 822.5 258.6 822.7 258.5 C 822.8 258.6 822.9 258.8 823.1 259.0 C 823.4 259.0 822.4 258.3 823.2 258.7 C 823.6 259.0 823.0 259.0 823.9 259.5 C 824.4 259.6 823.0 258.6 823.8 259.1 C 824.4 259.9 823.7 258.9 824.7 259.4 C 824.7 259.5 824.8 259.6 825.2 259.8 C 825.2 260.0 824.9 260.0 825.3 260.3 C 825.7 260.0 825.5 260.6 826.3 261.0 C 826.9 261.0 825.6 260.4 826.0 260.3 C 826.7 261.1 827.3 261.0 827.6 261.3 C 826.8 261.1 828.6 262.0 828.5 262.3 C 828.5 261.9 828.8 262.2 829.9 262.6 C 829.7 263.0 831.0 263.3 831.0 263.8 C 831.2 263.8 831.6 263.8 831.8 263.8 C 831.4 263.6 831.1 263.4 831.3 263.4 C 831.6 263.5 831.8 263.7 832.1 263.8 C 832.5 264.3 831.0 264.0 833.0 265.0 C 832.9 264.6 833.7 265.0 834.3 265.2 C 834.4 264.9 833.6 264.8 833.6 264.6 C 834.3 264.8 834.9 265.3 835.2 265.7 C 836.4 266.2 837.7 267.0 839.4 267.7 C 839.7 268.1 837.9 267.2 839.0 267.8 C 839.5 268.1 839.3 267.8 839.9 268.1 C 838.9 268.8 844.4 270.5 844.6 271.0 C 844.9 270.9 846.3 271.7 846.3 271.4 C 845.2 271.1 844.6 270.5 844.2 270.2 C 843.2 269.9 844.9 270.8 844.1 270.4 C 844.0 270.3 842.7 269.8 842.9 269.7 C 844.3 270.3 842.4 269.1 843.4 269.4 C 844.6 270.0 847.2 270.8 846.5 270.8 C 846.5 270.8 846.0 270.5 845.9 270.6 C 847.2 271.3 848.1 271.5 848.8 271.6 C 849.3 272.0 852.0 272.8 851.3 272.7 C 851.4 272.9 849.8 272.0 849.9 272.3 C 852.5 273.5 852.6 273.3 854.3 274.2 C 853.9 273.7 856.3 274.5 856.0 274.5 C 855.9 274.7 856.4 275.1 857.5 275.3 C 857.3 275.5 857.8 275.7 858.4 276.0 C 858.7 275.9 858.0 275.7 858.2 275.5 C 858.7 275.7 859.3 275.9 859.8 276.1 C 859.8 276.2 859.6 276.3 860.0 276.5 C 860.7 276.6 862.9 277.1 862.7 277.2 C 861.6 277.2 864.0 278.0 862.5 277.6 C 862.9 277.8 862.9 277.9 863.4 278.1 C 863.5 278.0 863.5 277.9 863.5 277.8 C 864.7 278.2 864.0 278.3 865.0 278.7 C 865.1 278.6 865.6 278.8 865.7 278.7 C 865.3 278.6 865.3 278.6 864.7 278.4 C 865.5 278.3 863.8 277.9 863.9 277.6 C 865.1 278.0 865.0 278.2 865.4 278.5 C 866.9 278.8 866.2 278.7 867.7 279.3 C 867.7 279.2 867.3 279.0 867.4 278.9 C 869.2 279.6 868.9 280.0 870.2 280.2 C 869.9 280.2 868.7 280.0 869.5 280.3 C 870.4 280.4 870.7 280.3 871.9 280.6 C 871.9 280.7 871.8 280.8 872.1 280.9 C 872.6 281.0 872.7 280.8 873.2 280.8 C 873.2 281.0 873.9 281.1 874.2 281.1 C 874.5 281.4 873.9 281.3 874.4 281.5 C 875.4 281.8 876.0 281.4 876.8 281.7 C 876.6 282.0 877.5 282.2 878.3 282.3 C 878.4 282.7 880.1 283.0 881.1 283.4 C 880.9 283.1 882.0 283.5 881.8 283.2 C 881.3 283.0 881.1 282.9 881.0 282.8 C 882.2 283.1 882.4 283.7 883.5 283.5 C 883.9 283.8 884.4 284.1 885.3 284.3 C 885.4 284.2 883.8 283.7 884.7 283.9 C 884.8 284.0 885.0 284.0 885.3 284.0 C 885.1 284.3 885.8 284.5 886.2 284.7 C 887.0 284.7 888.4 285.4 887.8 284.9 C 888.9 285.1 888.1 285.4 889.0 285.6 C 888.6 285.1 890.1 285.4 889.4 285.1 C 890.6 285.3 890.4 285.7 889.9 285.7 C 891.0 286.0 891.3 285.8 891.8 286.1 C 891.3 285.7 893.0 285.9 892.1 285.9 C 891.8 286.1 893.1 286.2 893.3 286.3 C 893.0 286.1 893.5 286.2 892.8 285.9 C 893.6 286.0 894.8 286.2 895.5 286.6 C 896.5 286.6 897.5 286.7 897.0 286.9 C 897.9 287.0 897.6 286.9 898.5 287.1 C 898.5 287.1 898.3 287.0 898.2 286.9 C 899.5 287.1 899.2 287.2 900.9 287.5 C 900.7 287.7 901.7 287.9 902.0 288.1 C 901.3 288.0 900.8 287.8 900.3 287.7 C 900.1 287.8 900.7 288.0 900.2 287.9 C 900.2 287.8 899.9 287.8 899.7 287.7 C 900.7 288.1 898.2 287.9 899.0 287.8 C 899.0 287.8 899.1 287.9 899.3 287.9 C 899.1 287.6 899.1 287.7 899.4 287.5 C 898.8 287.5 898.4 287.1 898.2 287.3 C 898.2 287.4 898.7 287.5 898.8 287.6 C 897.4 287.5 898.4 287.2 897.3 287.1 C 897.0 287.3 897.6 287.5 897.8 287.7 C 896.8 287.5 895.9 287.4 895.7 287.2 C 894.8 287.1 895.7 287.4 895.0 287.4 C 894.7 287.2 894.8 287.0 894.2 286.9 C 893.5 286.9 894.5 287.2 893.8 287.1 C 893.1 286.8 894.4 286.9 893.3 286.6 C 893.5 287.0 892.3 286.3 892.3 286.6 C 893.0 286.7 892.9 287.0 892.6 286.7 C 891.2 286.1 889.9 286.8 888.5 285.9 C 888.5 286.0 888.3 285.9 888.2 286.0 C 889.3 286.4 891.0 286.7 891.2 287.2 C 892.1 287.3 892.1 287.0 892.2 287.0 C 893.2 287.5 893.1 287.5 892.4 287.7 C 890.6 287.5 889.9 287.1 888.7 286.7 C 888.0 286.8 888.8 286.9 889.0 287.1 C 885.3 286.0 888.0 287.3 886.7 287.0 C 886.7 286.8 886.5 286.7 886.1 286.6 C 886.1 286.7 885.5 286.5 885.4 286.6 C 885.7 286.7 885.8 286.7 885.7 286.8 C 884.7 286.7 885.2 286.5 885.1 286.4 C 885.8 286.6 886.3 286.6 886.4 286.5 C 885.5 286.4 884.8 286.0 884.2 286.1 C 883.4 285.6 884.8 285.6 884.4 285.2 C 884.6 285.1 883.7 285.7 883.0 285.6 C 881.8 285.3 881.7 285.5 880.6 285.3 C 880.4 284.9 881.7 285.4 881.7 285.2 C 881.4 285.1 881.3 285.0 881.1 285.0 C 880.3 284.8 880.3 285.0 879.7 284.9 C 879.4 284.6 879.2 284.7 878.7 284.7 C 878.1 284.4 879.2 284.6 878.5 284.4 C 877.7 284.1 877.0 284.2 876.8 284.1 C 876.8 284.0 876.9 283.9 876.5 283.8 C 875.6 283.7 875.4 283.7 876.5 284.1 C 875.5 283.8 875.0 283.8 875.1 284.1 C 876.6 284.5 877.0 284.6 877.6 285.1 C 877.9 284.9 878.3 285.2 878.9 285.5 C 878.6 285.0 879.5 285.6 879.9 285.5 C 879.5 285.4 879.2 285.2 879.0 285.1 C 880.6 285.5 880.5 285.6 881.9 285.5 C 881.9 285.6 882.1 285.7 882.2 285.8 C 881.8 285.8 880.6 285.5 880.5 285.7 C 881.4 286.2 881.8 285.8 882.8 286.4 C 883.2 286.3 882.0 285.9 882.8 286.1 C 883.2 286.3 883.7 286.6 884.3 286.8 C 885.0 287.0 885.4 286.9 886.0 287.0 C 886.0 287.1 886.1 287.2 886.6 287.3 C 886.6 287.2 886.1 287.0 886.7 287.0 C 888.3 287.7 889.3 288.2 891.0 288.4 C 890.4 288.2 889.2 287.6 889.8 287.8 C 890.5 288.1 891.6 288.0 892.3 288.4 C 892.5 288.5 891.4 288.1 891.6 288.6 C 892.4 288.7 892.8 288.8 893.2 288.9 C 893.2 288.8 894.0 289.0 893.9 288.7 C 893.2 288.6 893.0 288.8 892.9 288.7 C 893.5 288.1 895.1 289.3 896.3 289.5 C 897.0 289.6 895.7 289.2 896.6 289.3 C 897.2 289.3 897.4 289.9 896.5 289.8 C 896.0 289.6 895.7 289.9 895.6 289.6 C 895.4 289.6 895.0 289.5 895.0 289.6 C 895.4 289.7 895.3 289.8 895.6 289.9 C 895.0 289.8 894.8 290.2 894.3 289.9 C 894.6 289.9 894.8 289.9 894.9 289.8 C 893.3 289.6 892.8 289.3 891.8 289.0 C 892.3 289.3 891.8 289.1 891.8 289.3 C 892.5 289.4 893.9 289.8 893.0 289.7 C 892.5 289.3 891.9 290.0 891.4 289.6 C 891.9 289.6 891.8 289.5 892.1 289.5 C 891.4 289.3 891.5 289.1 890.9 289.0 C 888.7 288.9 887.3 288.0 883.8 287.7 C 882.6 287.4 884.9 287.8 884.8 287.6 C 884.5 287.5 884.5 287.5 884.2 287.4 C 884.1 287.7 883.6 287.2 883.2 287.4 C 883.3 287.2 881.7 287.0 881.0 286.6 C 880.9 286.7 881.0 286.8 880.6 286.7 C 878.3 285.8 873.9 285.0 872.2 284.2 C 872.2 284.4 871.4 284.2 871.1 284.2 C 870.0 283.8 870.6 283.8 868.8 283.5 C 868.0 283.3 869.0 283.4 869.2 283.4 C 866.7 282.7 864.6 281.7 862.9 281.5 C 862.1 281.3 863.0 281.3 861.4 280.7 C 861.3 281.0 858.9 279.6 858.4 279.8 C 857.4 279.5 855.8 278.4 856.5 279.0 C 855.1 278.5 856.1 278.5 855.6 278.3 C 854.7 278.0 855.7 279.0 854.7 278.7 C 854.9 278.5 854.1 278.2 853.6 277.8 C 854.3 278.1 854.8 278.2 855.0 278.1 C 854.3 278.0 854.4 277.9 853.4 277.5 C 852.5 277.3 850.3 276.6 849.8 276.1 C 849.8 276.2 849.9 276.3 850.0 276.4 C 849.4 276.2 848.8 275.6 848.7 275.9 C 847.3 275.3 846.8 274.8 845.9 274.7 C 845.2 274.5 846.2 274.6 844.4 273.8 C 844.3 274.0 841.1 272.5 840.4 271.9 C 840.2 272.2 840.2 271.8 839.8 271.6 C 839.7 271.7 839.7 271.8 839.3 271.7 C 839.3 271.6 839.0 271.5 838.7 271.4 C 839.1 271.1 837.6 270.9 837.6 270.6 C 837.9 270.8 838.0 270.6 837.7 270.4 C 837.5 270.6 836.4 269.6 836.5 269.9 C 836.7 270.1 837.6 270.5 837.2 270.6 C 836.0 270.1 836.6 270.0 835.8 269.6 C 835.9 269.7 836.3 270.0 835.7 269.8 C 834.9 269.3 835.7 269.7 835.3 269.3 C 834.8 269.1 833.9 268.9 833.6 268.7 C 833.7 268.8 833.5 268.5 833.4 268.4 C 831.9 267.5 828.4 265.9 827.1 264.8 C 827.0 264.8 826.6 264.7 826.7 264.9 C 825.9 264.3 825.9 264.4 825.1 263.8 C 825.0 263.9 825.0 264.0 824.9 264.0 C 823.7 263.5 825.0 263.7 824.2 263.3 C 823.9 263.7 823.9 262.9 823.2 262.5 C 823.1 262.5 822.7 262.3 822.7 262.6 C 821.7 261.9 822.0 261.6 821.0 261.2 C 821.2 261.3 820.9 262.1 820.7 262.2 C 820.6 262.0 820.4 261.8 820.0 261.5 C 820.6 261.6 820.8 260.7 819.4 260.1 C 820.1 260.5 820.4 260.7 820.1 260.8 C 819.1 260.2 818.9 259.8 818.1 259.3 C 817.8 259.4 818.4 259.8 818.0 259.9 C 817.8 259.8 817.7 259.8 817.7 259.9 C 816.8 259.3 816.9 259.1 815.9 258.6 C 816.0 258.5 816.2 258.6 816.5 258.9 C 816.5 258.7 816.6 258.5 817.2 258.9 C 817.2 259.1 816.7 259.1 817.6 259.5 C 817.6 259.4 817.7 259.3 817.8 259.2 C 817.2 258.8 816.0 257.7 815.8 257.7 C 816.0 258.0 816.4 258.4 816.0 258.4 C 815.1 257.7 815.0 257.3 814.3 256.6 C 812.9 255.7 810.6 253.9 810.7 254.4 C 810.0 253.8 810.3 254.0 809.6 253.4 C 809.7 253.8 808.8 252.9 808.7 253.1 C 809.6 253.7 809.3 253.6 810.2 254.1 C 810.1 254.2 809.8 254.2 809.5 254.0 C 809.5 253.9 809.2 253.6 808.7 253.2 C 808.7 253.3 809.1 253.9 808.5 253.4 C 808.5 253.3 808.3 253.2 808.1 253.0 C 808.2 252.9 808.2 252.8 808.3 252.7 C 808.7 252.9 809.1 253.1 809.4 253.2 C 809.2 253.1 809.2 253.0 809.0 252.8 C 808.7 252.8 807.9 251.9 807.7 252.0 C 808.1 252.3 808.3 252.6 807.9 252.3 C 807.8 252.2 807.3 251.7 807.0 251.6 C 807.7 252.3 807.4 252.1 807.6 252.6 C 806.7 251.9 807.5 252.2 805.7 250.8 C 805.8 250.6 805.9 250.5 806.4 250.8 C 805.6 249.5 802.9 247.6 802.2 246.9 C 802.7 247.4 803.5 247.7 802.7 246.9 C 802.7 247.0 802.1 246.4 802.0 246.4 C 801.4 246.5 801.9 247.3 802.3 248.1 C 801.7 247.5 801.5 247.4 800.9 246.8 C 800.8 246.5 801.7 246.9 801.0 246.1 C 800.6 246.2 799.7 244.8 799.2 244.8 C 799.7 245.3 800.0 245.7 799.4 245.2 C 799.6 245.2 798.6 244.2 798.7 244.1 C 799.5 244.8 799.9 244.9 800.4 245.4 C 799.8 244.8 801.0 245.8 800.0 244.6 C 799.4 244.3 799.0 244.2 798.0 243.0 C 797.7 242.6 798.2 242.8 797.7 242.2 C 797.7 242.5 796.6 241.3 797.4 241.9 C 797.0 241.5 796.9 241.2 796.7 241.0 C 797.0 241.7 794.6 239.0 794.7 239.5 C 795.0 239.3 795.2 239.0 795.1 238.8 C 794.5 238.4 794.2 237.6 793.3 236.1 C 793.1 236.3 793.2 235.9 792.8 235.3 C 792.6 235.2 792.8 235.8 792.6 235.4 C 792.3 234.6 792.3 234.6 792.3 234.4 C 792.1 233.9 791.9 233.5 791.9 233.2 C 791.8 233.2 791.8 233.4 791.8 233.6 C 791.2 231.4 790.6 230.5 790.4 228.8 C 790.4 229.6 790.8 229.6 790.6 229.1 C 790.6 228.7 790.5 228.4 790.4 228.2 C 790.2 228.7 790.3 228.5 790.2 227.6 C 790.0 226.9 789.8 228.0 789.8 227.4 C 789.9 226.7 790.0 227.1 790.1 226.8 C 790.1 226.5 790.1 226.2 790.1 225.9 C 789.9 226.4 789.8 225.8 789.8 225.3 C 790.0 225.7 790.1 225.5 790.1 224.4 C 790.3 224.3 790.3 224.9 790.4 224.5 C 790.4 224.3 790.2 223.4 790.6 222.8 C 790.6 223.0 790.6 223.1 790.7 223.1 C 790.7 222.3 791.2 221.9 791.5 221.3 C 791.1 221.8 791.1 221.5 790.8 221.7 C 791.2 221.1 791.3 220.3 791.9 219.9 C 791.3 220.8 792.2 220.2 792.6 219.7 C 792.4 219.5 792.0 220.4 791.9 219.9 C 791.8 219.6 792.5 219.1 792.5 218.7 C 792.4 218.7 792.3 219.1 792.2 219.1 C 792.4 218.7 792.0 219.2 792.2 218.8 C 792.6 218.7 792.5 218.3 792.6 218.0 C 792.9 217.8 793.7 217.4 793.8 217.1 C 793.7 217.0 793.4 217.4 793.3 217.4 C 794.2 216.1 794.8 216.1 795.9 214.9 C 796.1 214.9 796.4 214.8 796.8 214.6 C 796.7 214.5 796.9 214.3 797.2 214.1 C 797.8 213.9 798.4 213.6 799.3 213.3 C 799.2 213.6 798.9 213.8 800.0 213.4 C 800.0 213.2 799.5 213.4 799.9 213.2 C 799.9 213.2 800.2 213.2 800.2 213.1 C 800.2 213.0 800.2 213.0 800.2 212.9 C 799.8 213.1 799.6 213.2 799.3 213.3 C 799.2 213.2 799.1 213.1 798.8 213.2 C 800.1 212.5 800.2 213.0 801.0 212.4 C 801.3 212.7 801.6 212.7 801.0 213.2 C 801.7 212.8 802.2 212.5 802.4 212.2 C 801.4 212.6 801.6 212.2 801.3 212.2 C 801.9 212.0 801.9 211.9 802.2 211.7 C 803.0 211.6 801.6 212.4 803.0 212.0 C 801.8 212.0 803.9 211.4 804.7 211.3 C 804.5 211.2 804.3 211.3 804.6 211.1 C 806.7 210.4 806.7 211.3 808.0 210.6 C 807.9 210.8 808.6 210.7 808.9 210.7 C 807.7 211.0 807.5 211.1 807.0 211.2 C 807.1 211.3 807.4 211.3 807.8 211.2 C 807.7 211.1 808.0 211.0 808.5 211.0 C 808.8 210.8 808.7 210.5 809.6 210.1 C 809.7 210.2 809.6 210.4 810.0 210.3 C 810.4 210.1 809.7 210.7 811.7 210.4 C 811.3 210.4 811.1 210.3 811.3 210.1 C 812.2 209.9 812.0 210.0 813.4 209.8 C 813.9 210.2 812.5 210.4 812.2 210.6 C 813.1 210.5 813.8 210.2 814.8 210.3 C 814.0 210.2 814.7 210.0 815.6 209.9 C 816.4 209.9 815.6 210.2 816.6 210.2 C 817.3 210.1 817.7 209.9 817.0 209.8 C 818.7 209.9 818.3 209.6 819.9 209.6 C 819.9 209.8 819.5 209.8 818.9 209.7 C 819.0 209.8 818.8 209.9 819.4 210.0 C 820.4 209.7 822.5 209.8 823.2 209.7 C 824.5 210.2 826.0 209.7 827.3 210.0 C 826.7 210.2 829.1 210.2 829.7 210.5 C 830.1 210.5 831.4 210.1 830.9 210.3 C 831.0 210.6 831.8 210.6 832.4 210.8 C 832.4 210.7 832.4 210.6 832.4 210.5 C 833.8 210.7 834.1 211.0 834.5 211.2 C 836.2 211.3 838.0 211.9 840.1 212.0 C 840.6 212.4 841.0 212.4 842.2 212.8 C 842.3 212.6 843.2 212.8 844.2 213.0 C 844.0 212.7 844.9 213.0 844.9 212.8 C 844.0 212.6 844.4 212.4 844.0 212.2 C 845.1 212.7 845.7 212.3 846.6 212.8 C 845.4 212.6 845.0 212.9 844.8 213.2 C 846.1 213.4 846.8 213.7 847.0 213.9 C 847.1 213.8 847.0 213.6 846.7 213.4 C 847.2 213.5 847.6 213.6 848.0 213.7 C 848.1 213.9 847.5 213.8 848.0 214.0 C 848.3 214.0 848.7 214.0 849.0 214.0 C 849.3 214.3 848.4 214.0 848.3 214.1 C 850.0 214.6 849.3 214.0 850.3 214.1 C 850.5 214.3 850.4 214.6 851.2 214.8 C 851.5 214.7 851.7 214.5 852.6 214.8 C 853.1 214.9 852.4 215.1 853.1 215.3 C 853.2 215.2 853.5 215.4 853.8 215.5 C 853.8 215.3 854.1 215.3 854.5 215.4 C 854.5 215.6 855.2 215.7 855.4 215.7 C 855.5 215.8 856.4 216.4 856.7 216.3 C 856.7 216.2 856.1 216.0 856.1 215.9 C 856.8 216.2 857.3 216.3 857.7 216.3 C 857.8 216.9 859.1 216.8 860.5 217.5 C 861.5 217.6 860.5 217.1 861.7 217.3 C 862.3 217.7 861.5 217.5 861.5 217.8 C 861.7 217.8 862.8 218.3 862.8 218.2 C 862.9 218.1 862.3 217.9 862.3 217.8 C 863.2 217.9 863.1 218.1 863.5 218.4 C 863.5 218.2 864.1 218.3 864.3 218.2 C 866.7 218.8 866.5 219.2 867.4 219.7 C 867.4 219.6 868.0 219.8 868.1 219.8 C 867.4 219.6 866.6 219.1 867.5 219.4 C 867.3 219.5 868.7 219.8 868.8 219.8 C 868.7 219.6 867.8 219.4 868.3 219.3 C 869.5 219.6 868.9 219.9 869.9 220.0 C 869.9 220.2 869.4 220.0 869.1 220.0 C 869.5 220.1 870.1 220.3 870.1 220.4 C 869.6 220.3 869.5 220.5 869.3 220.5 C 870.0 220.6 871.1 221.1 870.4 220.6 C 871.7 221.1 873.0 221.4 872.1 220.9 C 873.2 221.2 872.5 221.3 873.4 221.4 C 873.2 221.6 872.9 221.7 873.5 222.1 C 873.7 222.0 874.3 222.2 874.3 222.0 C 875.8 222.6 876.2 223.0 876.7 223.4 C 876.3 222.9 876.9 223.4 877.8 223.5 C 878.2 223.8 877.7 223.9 879.0 224.3 C 877.7 223.4 880.6 224.8 880.1 224.2 C 881.6 225.0 881.6 225.0 883.2 225.8 C 883.0 225.9 882.6 225.8 881.8 225.5 C 882.4 225.5 880.5 224.8 880.6 224.9 C 880.6 225.0 880.5 225.0 880.5 225.1 C 881.8 225.6 882.5 225.9 883.0 226.3 C 883.3 226.2 883.9 226.4 883.9 226.0 C 884.9 226.8 886.2 226.9 886.7 227.4 C 886.3 227.3 885.9 227.1 885.9 227.3 C 886.4 227.4 887.0 227.6 887.0 227.4 C 886.1 226.9 886.0 226.8 885.4 226.8 C 885.9 226.8 884.6 226.1 885.6 226.4 C 885.4 226.8 887.5 227.1 886.8 227.1 C 885.7 226.8 887.9 227.7 887.9 227.9 C 887.9 227.9 887.9 227.9 887.9 227.9 Z M 891.2 289.0 C 892.1 289.1 891.0 288.7 890.3 288.5 C 890.5 288.7 890.6 288.8 890.6 288.9 C 890.8 288.9 891.1 288.9 891.2 289.0 C 891.2 289.0 891.2 289.0 891.2 289.0 Z M 881.8 283.3 C 881.4 283.5 883.0 283.8 883.7 284.0 C 883.5 283.8 883.3 283.7 883.7 283.8 C 883.1 283.4 882.7 283.8 881.8 283.3 C 881.8 283.3 881.8 283.3 881.8 283.3 Z M 846.1 271.7 C 846.4 271.8 847.0 272.0 847.0 272.1 C 847.4 272.3 847.3 272.1 847.4 272.1 C 848.2 272.3 847.1 272.3 848.3 272.7 C 848.9 272.5 846.6 271.3 846.1 271.7 C 846.1 271.7 846.1 271.7 846.1 271.7 Z M 874.5 226.3 C 874.9 226.6 873.7 226.4 874.0 226.7 C 875.8 227.2 874.6 226.4 877.0 227.4 C 876.8 227.3 876.7 227.2 876.7 227.1 C 875.6 226.8 875.4 226.9 875.8 226.6 C 875.3 226.4 875.0 226.8 874.5 226.3 C 874.5 226.3 874.5 226.3 874.5 226.3 Z M 896.2 237.1 C 896.1 236.9 895.9 236.8 896.0 236.7 C 895.3 236.5 895.4 236.6 894.5 236.0 C 894.5 236.4 895.4 236.8 896.2 237.1 C 896.2 237.1 896.2 237.1 896.2 237.1 Z M 937.2 275.6 C 937.2 275.7 937.2 275.9 937.2 276.0 C 937.4 275.9 937.7 276.2 937.6 275.6 C 937.5 275.6 937.5 275.7 937.5 275.8 C 937.4 275.7 937.5 275.4 937.3 275.5 C 937.3 275.6 937.3 275.6 937.2 275.6 C 937.2 275.6 937.2 275.6 937.2 275.6 Z M 925.4 287.1 C 926.7 286.6 923.3 286.7 925.4 287.1 C 925.4 287.1 925.4 287.1 925.4 287.1 C 925.4 287.1 925.4 287.1 925.4 287.1 Z M 928.8 289.2 C 928.9 289.3 929.2 289.2 929.2 289.1 C 930.3 288.9 929.2 289.3 929.9 289.2 C 930.7 288.8 929.3 289.0 930.4 288.5 C 930.1 288.4 929.5 289.0 928.8 289.2 C 928.8 289.2 928.8 289.2 928.8 289.2 Z M 806.5 211.0 C 805.5 211.3 805.3 211.6 805.2 211.9 C 805.9 211.8 806.5 211.7 806.7 211.8 C 807.9 211.4 805.8 211.8 805.6 211.7 C 805.7 211.5 806.6 211.3 806.5 211.0 C 806.5 211.0 806.5 211.0 806.5 211.0 Z M 803.4 211.9 C 803.0 212.2 802.5 212.4 802.5 212.6 C 803.1 212.4 803.2 212.5 803.2 212.6 C 803.7 212.3 803.0 212.3 803.4 211.9 C 803.4 211.9 803.4 211.9 803.4 211.9 Z M 809.7 210.8 C 809.2 210.9 809.4 211.1 809.3 211.2 C 810.1 211.1 810.2 211.2 810.9 211.1 C 810.9 211.0 810.9 210.9 810.9 210.8 C 810.3 210.9 810.2 211.0 809.7 211.1 C 809.7 211.0 809.7 210.9 809.7 210.8 C 809.7 210.8 809.7 210.8 809.7 210.8 Z M 800.6 213.2 C 799.1 213.9 798.6 214.6 797.9 215.4 C 798.9 214.8 799.6 213.9 800.5 213.7 C 801.4 213.2 800.1 213.6 800.1 213.6 C 800.1 213.5 800.4 213.3 800.6 213.2 C 800.6 213.2 800.6 213.2 800.6 213.2 Z M 791.3 222.1 C 791.0 222.3 791.3 223.0 791.0 223.8 C 791.1 223.6 791.2 223.5 791.3 223.5 C 791.6 222.4 791.0 223.0 791.3 222.1 C 791.3 222.1 791.3 222.1 791.3 222.1 Z M 791.0 229.0 C 791.2 229.7 791.1 228.6 791.4 228.9 C 791.2 228.1 791.2 227.3 790.9 227.3 C 791.1 228.2 791.2 228.3 791.0 229.0 C 791.0 229.0 791.0 229.0 791.0 229.0 Z M 792.8 234.2 C 793.3 235.0 792.9 233.7 793.3 233.9 C 793.1 233.6 793.0 233.8 792.9 233.8 C 792.9 233.5 792.8 233.3 792.6 232.9 C 792.6 233.2 793.1 234.2 792.8 234.2 C 792.8 234.2 792.8 234.2 792.8 234.2 Z M 833.2 211.7 C 832.7 211.7 832.8 211.9 831.7 211.7 C 833.4 211.9 832.3 212.5 834.6 212.7 C 834.2 212.6 834.5 212.5 834.6 212.7 C 835.5 212.6 833.8 212.4 834.7 212.3 C 834.0 212.2 834.3 212.5 833.7 212.5 C 833.1 212.1 832.7 212.0 833.2 211.7 C 833.2 211.7 833.2 211.7 833.2 211.7 Z M 834.6 213.0 C 835.2 213.1 835.2 212.7 835.5 213.0 C 835.8 213.0 835.7 212.9 835.8 212.8 C 835.6 212.8 835.6 212.8 835.5 212.7 C 835.0 212.7 834.4 212.7 834.6 213.0 C 834.6 213.0 834.6 213.0 834.6 213.0 Z M 828.9 212.3 C 829.9 212.3 830.2 212.5 830.7 212.3 C 831.0 212.7 831.4 212.3 831.9 212.6 C 832.9 212.7 832.1 212.5 831.9 212.3 C 832.9 212.3 832.1 212.6 833.1 212.6 C 833.3 212.4 832.0 212.3 832.2 212.0 C 831.5 211.9 831.5 212.1 831.0 212.1 C 830.6 212.1 830.8 211.9 830.7 211.8 C 829.9 211.8 830.0 211.6 829.3 211.6 C 829.1 211.8 829.3 211.9 830.1 211.9 C 829.3 212.0 829.0 212.1 828.0 211.9 C 828.7 211.7 825.8 211.4 826.0 211.8 C 826.8 211.9 826.6 211.7 826.9 211.6 C 827.9 211.9 828.5 212.0 828.9 212.3 C 828.9 212.3 828.9 212.3 828.9 212.3 Z M 810.2 211.6 C 809.9 211.6 809.5 211.6 809.0 211.7 C 808.9 211.5 809.6 211.4 809.0 211.3 C 808.1 211.4 808.0 211.6 807.5 211.7 C 807.8 211.8 809.5 211.7 808.6 212.0 C 808.9 212.0 809.5 212.0 810.2 211.9 C 809.3 211.7 811.4 211.7 812.3 211.7 C 812.1 211.3 813.7 211.6 814.3 211.3 C 813.8 211.2 812.1 211.5 811.4 211.6 C 811.7 211.5 809.3 211.3 810.2 211.6 C 810.2 211.6 810.2 211.6 810.2 211.6 Z M 837.0 213.2 C 837.2 213.2 837.9 213.2 837.4 213.1 C 837.7 213.0 838.2 213.3 838.0 212.9 C 838.4 212.9 838.7 213.0 839.0 213.0 C 838.8 213.1 838.0 212.9 838.3 213.2 C 838.9 213.2 838.7 213.3 839.5 213.5 C 839.0 213.6 839.5 213.7 839.1 214.0 C 839.4 213.9 840.1 214.0 840.1 213.8 C 841.3 214.1 839.7 214.1 841.3 214.4 C 841.2 214.5 840.1 214.3 839.7 214.1 C 839.5 214.3 841.6 214.6 842.8 214.9 C 841.8 214.5 842.7 214.4 843.2 214.3 C 843.6 214.5 843.2 214.5 843.8 214.8 C 844.3 214.9 844.6 214.8 844.8 215.0 C 845.2 215.0 845.0 214.8 845.1 214.7 C 845.9 214.9 845.2 215.1 846.3 215.3 C 845.6 214.8 846.5 214.9 848.0 215.3 C 847.9 215.2 847.4 215.1 847.4 215.0 C 847.7 214.9 848.4 215.4 848.6 215.5 C 849.2 215.6 848.9 215.4 848.4 215.3 C 848.7 215.3 849.0 215.3 849.4 215.3 C 847.8 214.9 845.3 214.3 842.4 213.4 C 843.0 213.7 842.3 213.7 841.5 213.4 C 841.4 213.2 841.7 213.3 842.1 213.4 C 841.2 212.9 841.1 213.5 839.6 213.1 C 838.8 212.8 840.6 213.1 839.7 212.8 C 839.1 212.7 838.6 212.8 838.4 212.5 C 837.4 212.5 837.1 212.7 835.6 212.5 C 836.4 212.7 836.7 213.4 837.6 213.4 C 837.6 213.3 837.3 213.2 837.0 213.2 C 837.0 213.2 837.0 213.2 837.0 213.2 Z M 803.3 212.7 C 802.7 212.9 802.5 213.1 802.3 213.0 C 801.4 213.4 802.5 213.2 802.7 213.2 C 803.1 213.0 803.3 212.9 803.3 212.7 C 803.3 212.7 803.3 212.7 803.3 212.7 Z M 849.3 275.4 C 850.5 276.0 850.4 275.6 851.4 276.0 C 850.6 275.6 850.5 275.3 849.2 274.8 C 849.1 275.0 849.0 275.2 849.3 275.4 C 849.3 275.4 849.3 275.4 849.3 275.4 Z M 806.7 212.0 C 807.6 211.5 805.8 212.5 805.7 212.3 C 804.8 212.7 806.7 212.2 805.8 212.7 C 806.6 212.3 807.2 212.4 808.3 212.1 C 808.2 211.9 807.3 212.1 806.4 212.3 C 806.3 212.2 806.8 212.1 806.7 212.0 C 806.7 212.0 806.7 212.0 806.7 212.0 Z M 837.5 269.3 C 836.6 269.0 838.1 270.0 838.5 270.4 C 838.7 270.1 838.4 270.0 837.5 269.3 C 837.5 269.3 837.5 269.3 837.5 269.3 Z M 857.8 278.4 C 858.4 278.3 856.4 277.8 857.0 277.7 C 856.4 277.5 856.3 277.5 856.2 277.6 C 856.0 277.4 855.1 277.1 855.4 277.0 C 855.3 276.8 856.8 277.6 856.4 277.2 C 857.0 277.4 857.0 277.5 857.4 277.6 C 856.4 277.2 856.8 277.7 857.9 278.2 C 858.0 278.0 857.4 277.8 858.0 277.9 C 858.0 278.0 858.6 278.4 858.4 278.7 C 859.4 279.1 859.0 278.5 860.2 278.9 C 860.1 278.7 859.4 278.5 859.0 278.2 C 859.2 278.0 860.1 278.9 860.0 278.4 C 860.2 278.7 860.8 279.1 860.8 279.3 C 859.8 279.1 859.2 279.0 858.4 278.9 C 859.0 279.3 860.2 279.1 861.3 279.8 C 861.3 279.5 862.0 279.8 861.8 279.5 C 862.7 279.9 862.2 280.0 862.0 280.0 C 862.2 280.2 864.1 280.8 864.0 280.5 C 864.1 280.8 866.3 281.5 866.3 281.2 C 866.9 281.6 868.0 281.5 868.2 282.0 C 868.6 282.0 869.4 282.2 870.2 282.5 C 870.5 282.3 869.1 282.0 869.0 281.8 C 868.8 281.5 870.5 282.3 870.4 282.1 C 870.4 282.0 870.4 282.0 870.4 281.9 C 869.7 281.8 869.0 281.6 868.4 281.5 C 867.9 281.3 868.5 281.5 868.4 281.3 C 868.0 281.3 865.8 280.9 865.9 280.4 C 864.4 280.1 863.5 279.6 862.8 279.6 C 862.0 279.3 863.4 279.7 862.9 279.3 C 860.4 278.8 857.6 277.3 855.5 276.9 C 855.0 276.7 855.2 276.6 855.2 276.4 C 852.4 275.5 854.6 276.8 852.5 275.8 C 852.6 275.6 853.6 276.0 853.6 275.8 C 852.9 275.5 852.7 275.6 851.7 275.1 C 851.6 275.2 851.6 275.3 851.6 275.4 C 850.8 275.0 851.2 274.9 850.8 274.6 C 849.7 274.3 849.9 274.5 849.6 274.0 C 848.6 273.7 847.6 273.4 846.7 272.9 C 846.0 272.7 847.0 273.6 848.1 274.1 C 848.0 274.1 847.7 274.0 847.6 274.1 C 846.6 273.4 846.6 272.9 844.8 272.0 C 846.1 272.9 844.1 271.8 843.9 271.5 C 843.2 271.2 843.6 271.8 844.1 272.0 C 844.0 272.0 843.6 271.7 843.5 271.6 C 843.3 271.9 844.9 272.8 846.8 273.5 C 845.8 273.5 848.1 274.0 846.9 274.1 C 848.4 274.7 847.3 273.8 848.9 274.6 C 848.8 274.4 848.5 274.2 848.4 274.1 C 849.7 274.6 849.2 274.7 850.5 275.2 C 850.8 275.1 850.0 274.8 850.0 274.7 C 851.4 275.5 851.8 275.8 852.7 276.4 C 852.9 276.3 852.8 276.0 854.4 276.8 C 854.3 276.8 854.3 276.9 854.3 276.9 C 853.5 276.6 853.2 276.9 855.1 277.7 C 855.3 277.6 854.7 277.4 854.2 277.2 C 854.5 277.1 855.1 277.3 855.9 277.6 C 856.3 277.7 856.7 278.0 856.2 277.8 C 856.4 278.2 856.8 277.9 857.8 278.4 C 857.8 278.4 857.8 278.4 857.8 278.4 Z M 792.3 221.1 C 792.3 221.3 792.2 221.5 792.1 221.9 C 792.2 222.1 792.4 221.4 792.6 221.5 C 792.8 221.0 792.4 221.3 792.3 221.1 C 792.3 221.1 792.3 221.1 792.3 221.1 Z M 797.4 215.7 C 797.3 215.6 797.1 216.0 796.5 216.4 C 796.5 216.6 797.1 216.1 797.2 216.3 C 797.8 215.9 796.8 216.1 797.4 215.7 C 797.4 215.7 797.4 215.7 797.4 215.7 Z M 794.9 217.8 C 794.5 217.8 794.7 218.1 795.1 217.6 C 795.2 217.8 795.2 218.0 795.0 218.2 C 795.4 218.2 795.3 217.7 795.9 217.3 C 795.6 217.3 795.3 217.5 794.9 217.8 C 794.9 217.8 794.9 217.8 794.9 217.8 Z M 794.2 218.6 C 794.0 219.0 793.7 219.0 793.4 219.6 C 793.7 219.6 794.5 218.4 794.6 218.2 C 794.6 217.9 793.6 219.1 794.2 218.6 C 794.2 218.6 794.2 218.6 794.2 218.6 Z M 826.1 262.7 C 826.3 262.8 826.3 262.7 826.4 262.7 C 827.1 263.5 828.4 264.2 827.2 263.9 C 828.2 264.2 828.9 265.0 829.7 265.5 C 830.4 265.9 830.1 265.5 830.7 265.8 C 831.5 266.3 830.2 265.6 830.3 265.8 C 830.4 266.1 830.8 265.8 831.8 266.5 C 831.7 266.0 832.6 267.0 832.5 266.5 C 833.0 266.9 833.3 266.9 834.0 267.3 C 834.0 267.1 833.3 266.7 833.3 266.5 C 833.0 266.1 832.8 266.5 833.5 266.8 C 833.0 266.8 832.1 266.0 831.7 266.0 C 831.5 265.5 832.7 266.4 832.4 266.0 C 832.2 265.9 831.9 265.8 831.8 265.8 C 831.4 265.6 831.1 265.3 831.0 265.1 C 831.3 265.3 831.3 265.3 831.3 265.4 C 831.8 265.7 830.9 264.7 832.1 265.3 C 831.9 265.2 831.4 264.9 831.6 264.8 C 831.3 264.5 831.2 265.4 830.2 264.5 C 829.4 264.3 831.9 265.7 831.0 265.8 C 829.5 264.8 830.5 265.0 829.3 264.3 C 829.2 264.4 829.2 264.5 828.9 264.3 C 828.9 264.4 829.4 264.7 829.7 264.9 C 829.6 264.9 829.1 264.6 828.8 264.4 C 828.8 264.5 829.0 264.7 829.0 264.7 C 828.0 264.1 828.3 263.7 829.4 264.1 C 829.4 263.9 828.1 263.2 827.7 263.1 C 828.0 263.4 827.6 263.2 827.8 263.6 C 828.0 263.7 828.0 263.6 828.1 263.6 C 828.6 264.0 828.1 263.8 828.0 263.8 C 827.5 263.5 827.6 263.3 826.9 263.1 C 827.1 263.1 827.3 263.2 827.3 263.1 C 827.1 262.9 826.8 262.7 826.5 262.6 C 826.5 262.7 826.1 262.5 826.1 262.7 C 826.1 262.7 826.1 262.7 826.1 262.7 Z M 841.0 271.3 C 842.0 271.9 841.6 271.4 841.1 271.2 C 841.3 271.2 841.7 271.3 842.1 271.5 C 841.8 271.2 841.5 271.2 840.6 270.7 C 841.6 270.8 840.9 270.0 839.4 269.3 C 838.7 269.5 840.0 270.2 839.3 270.2 C 840.5 270.5 841.0 271.0 841.0 271.3 C 841.0 271.3 841.0 271.3 841.0 271.3 Z M 802.7 213.3 C 802.1 213.5 801.5 213.7 800.9 214.0 C 801.1 214.2 803.0 213.6 802.7 213.3 C 802.7 213.3 802.7 213.3 802.7 213.3 Z M 850.5 215.9 C 850.8 215.9 850.9 216.0 850.9 216.0 C 851.8 216.2 850.5 215.7 851.0 215.7 C 850.6 215.6 850.3 215.5 850.0 215.4 C 849.9 215.5 851.3 216.0 850.2 215.8 C 850.3 215.9 850.5 215.9 850.5 215.9 C 850.5 215.9 850.5 215.9 850.5 215.9 Z M 792.8 220.8 C 792.7 221.2 793.1 221.1 792.6 222.1 C 792.9 221.8 792.9 221.5 793.2 221.0 C 793.1 220.9 793.0 220.8 792.8 220.8 C 792.8 220.8 792.8 220.8 792.8 220.8 Z M 821.8 260.5 C 822.3 261.2 822.8 260.8 824.0 261.7 C 823.5 261.1 822.6 260.9 821.8 260.5 C 821.8 260.5 821.8 260.5 821.8 260.5 Z M 872.9 282.9 C 872.5 282.7 873.1 282.9 872.3 282.5 C 871.9 282.4 871.6 282.5 871.0 282.3 C 871.8 282.9 873.5 283.1 874.1 283.7 C 874.9 283.9 874.9 283.6 875.2 283.5 C 874.8 283.4 874.6 283.3 874.6 283.3 C 874.0 283.5 873.6 282.7 872.9 282.9 C 872.9 282.9 872.9 282.9 872.9 282.9 Z M 837.3 269.0 C 836.8 268.6 837.7 269.0 838.0 269.0 C 838.4 269.2 838.2 269.3 838.2 269.4 C 838.7 269.7 838.9 269.6 838.9 269.4 C 838.0 268.9 836.7 268.2 837.6 268.3 C 836.7 267.8 837.1 268.3 836.6 268.2 C 836.1 267.7 836.6 267.9 836.8 267.7 C 836.5 267.7 835.7 267.5 835.9 267.3 C 834.3 266.8 834.8 267.5 835.7 268.4 C 836.7 268.7 835.7 268.0 837.3 269.0 C 837.3 269.0 837.3 269.0 837.3 269.0 Z M 802.9 245.5 C 802.9 245.7 803.5 246.2 803.4 246.3 C 804.3 246.8 805.1 247.2 805.9 247.6 C 805.9 247.3 804.8 246.6 805.1 247.1 C 804.9 246.7 804.3 246.0 804.1 245.6 C 803.4 244.9 802.9 245.1 803.1 244.7 C 802.3 244.2 802.7 244.5 801.8 243.5 C 803.1 245.2 801.2 243.1 800.9 243.2 C 801.7 244.1 802.5 244.9 802.6 244.6 C 803.2 245.3 803.9 246.1 803.9 246.4 C 803.8 246.4 803.2 245.9 802.9 245.5 C 802.9 245.5 802.9 245.5 802.9 245.5 Z M 807.5 248.8 C 807.1 248.5 806.8 248.3 806.4 247.9 C 806.6 248.2 806.6 248.4 806.5 248.4 C 807.4 249.2 807.8 249.4 807.8 249.7 C 808.3 250.1 807.9 249.3 808.6 250.1 C 808.6 249.9 808.2 249.6 808.3 249.6 C 808.1 249.6 807.7 249.4 807.5 248.8 C 807.5 248.8 807.5 248.8 807.5 248.8 Z M 814.4 254.8 C 815.1 255.3 814.2 254.5 814.6 254.6 C 814.4 254.5 813.3 253.6 813.6 253.5 C 813.4 253.0 811.9 252.6 812.2 252.4 C 811.9 252.2 812.0 252.4 811.9 252.4 C 812.7 253.0 812.6 253.1 812.0 252.7 C 812.0 252.9 812.5 253.2 812.9 253.5 C 813.0 253.4 812.7 253.1 812.8 253.1 C 813.5 253.7 813.9 254.2 814.4 254.8 C 814.4 254.8 814.4 254.8 814.4 254.8 Z M 885.5 228.3 C 884.8 227.9 884.3 227.8 883.9 227.7 C 884.0 227.9 884.5 227.9 884.8 228.1 C 884.9 228.3 884.5 228.1 884.1 228.0 C 884.4 228.3 885.8 228.7 885.5 228.3 C 885.5 228.3 885.5 228.3 885.5 228.3 Z M 879.1 225.6 C 878.4 225.3 878.0 225.2 877.8 225.3 C 878.0 225.5 878.0 225.3 878.5 225.5 C 878.8 225.6 878.9 225.8 879.0 225.9 C 879.3 226.1 879.3 225.9 879.4 225.9 C 879.7 226.0 879.7 226.1 879.7 226.1 C 880.7 226.3 878.7 225.7 879.1 225.6 C 879.1 225.6 879.1 225.6 879.1 225.6 Z M 810.6 251.7 C 810.4 251.5 810.4 251.2 809.8 250.8 C 809.8 251.0 809.4 250.7 809.1 250.4 C 809.5 251.0 809.8 251.1 810.6 251.7 C 810.6 251.7 810.6 251.7 810.6 251.7 Z M 839.1 214.1 C 838.2 213.7 838.2 214.1 836.9 213.7 C 836.9 213.8 836.9 213.9 836.9 214.0 C 837.7 213.9 838.1 214.1 839.1 214.1 C 839.1 214.1 839.1 214.1 839.1 214.1 Z M 937.2 283.7 C 937.2 283.5 936.6 284.1 936.5 284.0 C 936.6 284.4 936.0 284.1 934.7 285.0 C 934.6 285.0 934.7 284.9 934.9 284.7 C 933.8 285.3 935.3 284.8 935.6 284.9 C 936.3 284.3 936.6 284.3 937.2 283.7 C 937.2 283.7 937.2 283.7 937.2 283.7 Z M 863.4 279.1 C 863.3 279.1 863.5 279.2 863.7 279.3 C 863.9 279.3 864.2 279.4 864.3 279.5 C 864.4 279.2 863.4 278.7 864.3 278.6 C 864.0 278.5 864.0 278.5 864.0 278.6 C 862.1 278.7 861.3 277.2 859.1 276.8 C 858.8 276.7 858.8 276.8 858.8 276.9 C 859.0 276.9 859.0 277.0 859.0 277.1 C 859.4 276.8 861.1 277.9 860.3 277.7 C 860.3 277.8 860.6 277.8 860.6 277.8 C 860.8 277.9 861.0 278.0 861.2 278.0 C 861.2 277.9 860.7 277.7 860.7 277.6 C 861.7 278.0 862.9 278.6 862.1 278.6 C 862.8 278.8 863.0 278.8 863.5 278.9 C 863.9 279.0 863.8 279.2 863.4 279.1 C 863.4 279.1 863.4 279.1 863.4 279.1 Z M 871.8 281.8 C 872.8 282.1 872.5 281.8 873.5 282.1 C 873.0 281.7 872.1 281.8 871.3 281.3 C 871.4 281.5 871.8 281.6 871.8 281.8 C 871.8 281.8 871.8 281.8 871.8 281.8 Z M 853.3 274.8 C 853.6 274.6 852.8 274.2 851.8 273.9 C 851.5 274.1 852.4 274.4 853.3 274.8 C 853.3 274.8 853.3 274.8 853.3 274.8 Z M 857.5 276.5 C 858.4 276.7 856.3 275.9 856.9 275.9 C 856.5 275.7 856.0 275.6 856.0 275.5 C 855.6 275.4 855.6 275.5 855.0 275.2 C 855.0 275.4 856.0 275.7 855.9 275.8 C 856.6 276.0 856.8 276.0 857.5 276.5 C 857.5 276.5 857.5 276.5 857.5 276.5 Z M 858.1 276.7 C 858.7 276.9 858.1 276.2 857.3 275.9 C 857.5 276.1 857.7 276.4 858.1 276.7 C 858.1 276.7 858.1 276.7 858.1 276.7 Z M 794.7 232.6 C 794.9 233.0 795.0 232.6 795.2 233.0 C 795.3 233.0 794.5 231.4 795.2 232.7 C 795.2 232.1 794.7 232.0 794.6 231.4 C 794.6 231.6 794.6 231.8 794.4 231.5 C 794.1 231.4 795.0 232.7 794.7 232.6 C 794.7 232.6 794.7 232.6 794.7 232.6 Z M 795.5 234.2 C 795.7 234.5 795.6 234.3 795.6 234.2 C 795.7 234.2 795.9 234.6 796.1 235.0 C 796.0 235.0 796.1 234.2 796.3 234.1 C 795.4 232.9 795.7 234.0 795.5 234.2 C 795.5 234.2 795.5 234.2 795.5 234.2 Z M 796.4 235.5 C 796.8 236.5 797.7 237.8 798.4 238.3 C 798.1 237.4 796.9 235.8 796.4 235.5 C 796.4 235.5 796.4 235.5 796.4 235.5 Z M 793.5 227.1 C 793.3 228.5 794.3 231.3 794.0 228.7 C 793.8 228.8 793.5 227.2 793.6 226.4 C 793.5 226.4 793.3 225.6 793.5 225.5 C 793.3 225.0 793.3 227.5 793.5 227.1 C 793.5 227.1 793.5 227.1 793.5 227.1 Z M 799.6 239.1 C 799.2 238.7 799.3 239.6 798.9 238.8 C 798.5 238.4 798.9 238.9 798.7 238.9 C 799.4 239.8 801.2 241.5 801.1 241.9 C 801.6 242.3 801.9 242.3 802.7 243.2 C 802.8 243.1 799.7 240.2 799.5 239.2 C 799.6 239.2 800.6 240.3 799.6 239.1 C 799.6 239.1 799.6 239.1 799.6 239.1 Z M 838.8 215.5 C 839.0 215.3 837.7 215.3 838.0 215.1 C 837.2 215.2 836.6 214.9 835.8 215.0 C 835.6 214.9 835.7 214.6 834.7 214.4 C 834.6 214.6 835.2 214.6 834.6 214.7 C 833.7 214.6 834.0 214.3 832.9 214.3 C 833.0 214.7 830.5 214.1 830.7 214.5 C 831.3 214.5 831.3 214.3 832.2 214.5 C 832.5 214.6 832.4 214.7 832.8 214.8 C 832.5 214.9 832.0 214.5 831.6 214.7 C 831.7 214.9 832.4 214.9 832.4 215.1 C 832.9 215.1 832.3 215.0 832.5 214.9 C 833.6 215.0 832.3 215.4 833.6 215.5 C 833.4 215.3 833.4 215.2 833.7 215.0 C 834.1 215.2 835.7 215.3 834.8 215.4 C 834.9 215.6 835.9 215.5 835.8 215.3 C 836.3 215.4 836.3 215.5 836.3 215.6 C 837.6 215.7 837.9 215.5 837.6 215.2 C 837.9 215.1 838.0 215.5 838.8 215.5 C 838.8 215.5 838.8 215.5 838.8 215.5 Z M 795.3 220.6 C 795.4 220.1 795.0 221.1 794.7 221.5 C 795.0 221.0 795.2 221.4 795.6 220.9 C 795.4 221.0 795.4 220.9 795.6 220.6 C 795.6 220.4 795.0 221.2 795.3 220.6 C 795.3 220.6 795.3 220.6 795.3 220.6 Z M 804.6 245.0 C 804.8 245.5 806.6 247.0 807.6 247.9 C 807.6 247.5 805.0 245.8 805.0 245.2 C 804.5 244.8 805.2 245.6 804.6 245.0 C 804.6 245.0 804.6 245.0 804.6 245.0 Z M 827.6 213.7 C 827.3 213.7 827.4 213.8 827.6 213.8 C 827.5 213.9 826.9 213.8 826.4 213.8 C 827.0 214.0 826.3 214.0 826.4 214.2 C 826.0 214.2 825.9 214.2 825.8 214.3 C 825.8 213.8 824.0 214.4 825.8 214.6 C 825.5 214.3 825.6 214.4 826.4 214.3 C 827.2 214.6 827.8 214.4 828.1 214.7 C 828.6 214.7 828.8 214.6 829.5 214.7 C 829.7 214.9 830.3 215.1 829.7 215.4 C 831.0 215.5 830.2 214.8 831.3 214.9 C 832.3 215.2 830.7 215.1 830.9 215.3 C 831.2 215.4 831.1 215.5 831.2 215.5 C 831.6 215.6 831.6 215.3 831.2 215.3 C 831.4 215.2 832.4 215.2 832.1 215.4 C 832.7 215.4 831.3 214.5 830.4 214.7 C 829.9 214.7 830.0 214.2 830.5 214.3 C 830.3 214.1 829.3 214.5 829.6 214.1 C 829.2 214.0 828.8 214.0 828.4 213.9 C 828.5 214.0 828.7 214.0 828.7 214.1 C 828.3 214.1 827.9 214.1 827.5 214.0 C 827.9 213.9 827.9 213.8 827.6 213.7 C 827.6 213.7 827.6 213.7 827.6 213.7 Z M 800.8 241.0 C 801.5 241.8 801.8 241.9 802.3 242.4 C 802.2 242.1 800.7 240.5 800.8 241.0 C 800.8 241.0 800.8 241.0 800.8 241.0 Z M 844.0 217.2 C 843.9 217.1 843.3 217.1 843.4 217.0 C 844.3 217.1 843.3 216.7 844.1 216.5 C 842.8 216.4 842.3 216.9 843.9 217.4 C 845.1 217.6 842.7 217.0 844.0 217.2 C 844.0 217.2 844.0 217.2 844.0 217.2 Z M 840.3 216.4 C 839.5 216.3 841.3 216.8 841.8 217.0 C 841.7 217.0 841.7 217.1 841.7 217.2 C 842.8 217.0 841.4 216.7 842.5 216.4 C 841.3 216.0 840.8 215.8 839.7 215.8 C 839.8 215.9 840.0 215.9 840.0 215.8 C 840.8 216.0 840.2 216.2 839.4 216.0 C 839.6 216.1 840.4 216.3 840.9 216.4 C 840.8 216.3 840.6 216.2 840.6 216.1 C 841.3 216.2 841.0 216.3 841.5 216.4 C 841.5 216.5 840.3 216.5 840.3 216.4 C 840.3 216.4 840.3 216.4 840.3 216.4 Z M 901.8 238.3 C 901.2 238.0 902.3 238.9 902.1 239.2 C 902.6 239.6 902.8 239.6 903.2 239.8 C 903.1 239.5 902.5 239.1 902.2 238.9 C 902.5 238.6 903.1 239.4 903.5 239.3 C 904.0 239.2 902.0 238.7 901.8 238.3 C 901.8 238.3 901.8 238.3 901.8 238.3 Z M 810.1 214.2 C 809.7 214.3 810.0 214.3 810.2 214.3 C 810.1 214.4 809.5 214.5 809.4 214.4 C 808.9 214.5 809.8 214.5 809.1 214.6 C 809.0 214.8 810.1 214.5 810.2 214.4 C 811.0 214.3 810.4 214.7 810.6 214.7 C 811.3 214.7 811.1 214.5 812.1 214.4 C 811.5 214.3 810.9 214.3 810.1 214.2 C 810.1 214.2 810.1 214.2 810.1 214.2 Z M 846.2 217.2 C 846.4 217.2 845.4 217.5 844.6 217.1 C 843.5 216.8 845.2 217.5 844.3 217.2 C 845.1 217.5 846.1 217.5 847.4 217.8 C 847.8 217.7 845.7 217.3 846.8 217.5 C 846.8 217.4 846.5 217.4 846.5 217.4 C 846.3 217.4 846.2 217.3 846.2 217.2 C 846.2 217.2 846.2 217.2 846.2 217.2 Z M 844.8 217.5 C 844.9 217.6 845.2 217.6 845.2 217.6 C 845.6 217.7 845.5 217.9 845.1 217.8 C 845.6 218.2 845.7 217.7 846.7 218.1 C 846.3 217.8 846.1 217.6 847.0 218.0 C 847.9 218.0 845.2 217.4 844.8 217.5 C 844.8 217.5 844.8 217.5 844.8 217.5 Z M 892.4 233.6 C 892.4 233.7 893.1 234.0 893.6 234.2 C 892.9 234.1 890.5 232.8 890.3 232.6 C 890.0 232.5 889.7 232.4 889.6 232.3 C 889.6 232.3 888.9 232.1 889.2 232.3 C 889.1 232.4 888.6 232.1 888.6 232.2 C 887.7 231.7 888.9 232.2 888.7 231.9 C 887.5 231.6 887.8 231.6 886.5 230.9 C 886.7 231.3 888.1 231.8 887.9 232.1 C 889.0 232.3 890.0 233.0 890.5 233.5 C 889.8 232.7 893.4 234.2 895.0 235.1 C 894.8 235.2 895.4 235.5 896.0 235.9 C 896.4 236.4 896.5 235.8 895.5 235.5 C 895.6 235.3 896.8 236.1 897.3 236.3 C 896.8 235.9 897.2 236.0 896.9 235.7 C 895.8 235.1 896.8 235.7 896.5 235.8 C 896.2 235.6 895.9 235.5 895.6 235.3 C 897.3 235.8 893.3 234.2 894.7 234.8 C 893.5 234.2 893.6 234.0 892.4 233.6 C 892.4 233.6 892.4 233.6 892.4 233.6 Z M 862.8 221.7 C 862.6 221.7 861.5 221.5 861.5 221.3 C 860.1 221.1 861.2 221.7 859.8 221.2 C 859.8 221.3 860.4 221.5 860.4 221.6 C 861.0 221.7 861.6 221.8 861.5 221.5 C 862.1 221.7 862.3 221.7 862.8 221.8 C 862.6 221.9 862.3 221.8 861.8 221.7 C 861.6 221.8 861.8 222.0 862.6 222.3 C 863.1 222.2 862.9 221.9 862.8 221.7 C 862.8 221.7 862.8 221.7 862.8 221.7 Z M 859.5 221.1 C 859.3 220.9 859.2 220.8 859.2 220.7 C 858.8 220.3 859.0 221.0 858.5 220.8 C 858.1 220.7 858.3 220.6 858.2 220.5 C 857.7 220.4 857.2 220.3 857.0 220.1 C 856.1 220.0 857.9 220.6 858.2 220.8 C 858.8 221.0 858.6 220.7 859.5 221.1 C 859.5 221.1 859.5 221.1 859.5 221.1 Z M 850.0 218.2 C 849.9 217.9 849.5 218.2 849.0 218.1 C 849.3 218.4 850.2 218.5 849.6 218.6 C 850.5 218.9 850.5 218.9 851.5 219.1 C 852.0 219.4 851.5 218.9 850.5 218.8 C 850.7 218.7 851.1 218.8 851.2 218.7 C 851.7 219.3 853.5 219.0 852.5 219.1 C 852.2 219.0 852.0 218.8 851.9 218.7 C 851.6 218.8 849.5 218.2 850.0 218.2 C 850.0 218.2 850.0 218.2 850.0 218.2 Z M 818.9 214.2 C 820.7 214.1 821.4 214.2 822.5 214.2 C 822.5 214.3 822.4 214.4 822.2 214.4 C 822.4 214.5 822.8 214.5 823.3 214.4 C 823.3 214.4 823.0 214.4 823.0 214.4 C 822.1 214.2 822.9 214.2 823.0 214.0 C 822.0 213.8 820.2 214.2 819.4 213.9 C 818.7 213.9 819.5 214.0 818.9 214.2 C 818.9 214.2 818.9 214.2 818.9 214.2 Z M 936.5 281.6 C 936.5 281.7 936.2 282.0 936.4 282.0 C 936.6 281.8 936.7 281.6 936.8 281.3 C 936.4 281.7 936.2 281.4 935.7 281.9 C 935.9 281.9 936.1 282.1 936.5 281.6 C 936.5 281.6 936.5 281.6 936.5 281.6 Z M 853.1 219.1 C 853.1 219.2 853.1 219.3 852.8 219.3 C 852.6 219.4 853.6 219.6 853.6 219.7 C 854.0 219.8 853.9 219.6 854.3 219.7 C 854.2 219.6 853.4 219.4 853.8 219.3 C 854.0 219.3 854.1 219.4 854.1 219.4 C 854.8 219.5 853.8 219.2 853.1 219.1 C 853.1 219.1 853.1 219.1 853.1 219.1 Z M 904.5 240.1 C 904.1 239.9 904.5 240.2 904.8 240.4 C 903.8 240.1 905.0 241.0 905.0 241.2 C 904.7 240.8 903.6 240.3 903.4 240.1 C 903.0 240.0 903.3 240.4 902.4 239.9 C 902.4 240.2 903.5 240.6 903.3 240.3 C 903.4 240.7 904.5 240.9 904.3 241.1 C 905.5 241.9 905.9 241.9 906.1 241.7 C 904.9 241.1 905.7 241.1 904.6 240.6 C 904.7 240.5 905.0 240.7 905.2 240.8 C 905.2 240.6 904.8 240.3 904.5 240.1 C 904.5 240.1 904.5 240.1 904.5 240.1 Z M 873.0 225.4 C 872.3 225.2 872.3 225.4 872.2 225.5 C 872.5 225.6 873.0 225.7 873.5 225.9 C 873.4 225.8 872.5 225.5 873.0 225.4 C 873.0 225.4 873.0 225.4 873.0 225.4 Z M 899.9 237.8 C 899.8 237.7 899.6 237.6 899.6 237.7 C 898.8 237.3 898.7 237.1 898.5 236.8 C 898.1 236.7 898.2 236.9 898.1 237.0 C 898.9 237.2 898.6 237.4 899.5 237.8 C 899.5 237.7 899.6 237.7 899.9 237.8 C 899.9 237.8 899.9 237.8 899.9 237.8 Z M 879.6 228.2 C 879.2 228.0 879.4 228.2 879.6 228.2 C 879.0 228.3 877.8 227.6 877.3 227.5 C 877.2 227.6 878.8 228.2 876.9 227.6 C 877.2 227.9 878.9 228.4 879.7 228.8 C 879.4 228.9 878.3 228.4 878.3 228.7 C 879.3 229.0 880.4 229.3 880.7 229.0 C 879.3 228.4 879.9 228.4 879.6 228.2 C 879.6 228.2 879.6 228.2 879.6 228.2 Z M 881.1 228.9 C 881.0 228.8 880.7 228.8 880.2 228.6 C 880.8 229.1 881.4 229.2 882.9 230.0 C 882.9 229.9 882.9 229.9 883.0 229.8 C 883.3 229.9 883.6 230.1 883.9 230.2 C 882.7 229.4 882.2 229.4 880.8 228.9 C 880.7 228.8 880.9 228.9 881.1 228.9 C 881.1 228.9 881.1 228.9 881.1 228.9 Z M 838.7 216.2 C 839.1 216.4 839.4 216.6 840.2 216.8 C 840.1 216.6 839.7 216.4 838.7 216.2 C 838.7 216.2 838.7 216.2 838.7 216.2 Z M 900.9 238.6 C 901.8 238.9 900.2 238.2 900.5 238.6 C 901.1 239.1 901.7 239.5 901.7 239.8 C 903.0 240.1 900.6 238.8 900.9 238.6 C 900.9 238.6 900.9 238.6 900.9 238.6 Z M 895.5 236.3 C 895.1 236.1 895.3 235.8 895.5 236.2 C 896.4 236.6 894.9 235.6 896.2 236.3 C 895.7 236.0 894.5 235.2 893.9 235.1 C 893.8 235.3 895.0 235.8 894.9 236.0 C 894.9 236.1 894.7 236.0 894.6 235.9 C 894.6 236.1 895.0 236.1 895.5 236.3 C 895.5 236.3 895.5 236.3 895.5 236.3 Z M 891.2 233.8 C 891.6 234.1 892.1 234.5 893.2 235.0 C 892.6 234.5 892.3 234.1 891.2 233.8 C 891.2 233.8 891.2 233.8 891.2 233.8 Z M 937.6 271.8 C 937.4 271.2 937.3 271.8 937.2 271.9 C 937.4 272.4 937.6 272.3 937.6 272.9 C 937.9 272.7 937.4 272.2 937.6 271.8 C 937.6 271.8 937.6 271.8 937.6 271.8 Z M 937.9 273.7 C 937.7 273.8 937.9 274.5 937.7 274.5 C 938.2 274.9 937.5 275.5 937.8 275.5 C 937.8 275.6 937.8 275.8 937.8 276.0 C 938.2 275.5 938.0 274.3 937.9 273.7 C 937.9 273.7 937.9 273.7 937.9 273.7 Z M 885.8 231.8 C 885.0 231.4 885.9 232.3 885.0 231.8 C 884.9 231.9 886.5 232.7 885.5 232.3 C 886.7 233.0 885.6 231.9 885.8 231.8 C 885.8 231.8 885.8 231.8 885.8 231.8 Z M 870.3 225.9 C 870.4 225.7 869.2 225.4 868.7 225.2 C 868.7 225.3 869.1 225.4 869.3 225.5 C 869.2 225.6 869.0 225.6 868.7 225.5 C 868.9 225.7 869.8 225.7 870.3 225.9 C 870.3 225.9 870.3 225.9 870.3 225.9 Z M 889.0 228.7 C 889.5 229.2 890.0 229.7 890.6 229.5 C 891.0 229.9 890.1 229.6 890.7 230.0 C 891.6 230.3 891.1 230.3 892.5 230.9 C 892.1 231.0 893.2 231.5 893.3 231.8 C 892.7 231.5 892.1 230.9 891.7 231.0 C 892.2 231.2 891.8 231.3 891.7 231.1 C 890.8 230.5 892.9 231.4 891.9 230.7 C 891.4 230.8 890.0 229.5 888.9 229.0 C 889.4 229.0 888.2 228.4 889.0 228.7 C 889.0 228.7 889.0 228.7 889.0 228.7 Z M 894.4 231.8 C 895.1 232.1 895.3 232.8 895.1 232.6 C 895.1 232.6 894.3 232.1 894.1 232.2 C 894.4 232.3 894.5 232.4 894.4 232.4 C 893.1 231.7 893.7 231.8 893.4 231.5 C 894.2 231.7 894.3 232.0 894.6 232.0 C 894.5 231.9 894.3 231.8 894.4 231.8 C 894.4 231.8 894.4 231.8 894.4 231.8 Z M 907.6 243.6 C 907.6 243.4 907.3 243.4 907.0 243.3 C 907.2 243.0 905.6 242.5 905.5 242.3 C 905.8 242.4 906.6 242.8 906.9 242.9 C 906.6 242.6 906.5 242.5 906.1 242.4 C 906.3 242.2 907.1 242.7 907.4 242.7 C 907.4 242.9 907.9 242.9 907.9 243.1 C 906.8 242.6 908.2 243.9 907.6 243.6 C 907.6 243.6 907.6 243.6 907.6 243.6 Z M 878.5 229.1 C 878.3 229.3 879.4 230.3 878.1 230.1 C 877.9 229.8 877.8 229.6 878.0 229.3 C 877.2 229.2 877.0 228.8 876.4 228.9 C 875.2 227.6 877.5 229.4 878.5 229.1 C 878.5 229.1 878.5 229.1 878.5 229.1 Z M 873.4 227.3 C 873.7 227.2 873.0 227.0 873.2 226.8 C 873.7 227.2 875.8 227.8 875.1 227.6 C 874.4 227.5 874.3 227.7 873.4 227.3 C 873.4 227.3 873.4 227.3 873.4 227.3 Z M 819.8 256.6 C 818.9 256.2 818.8 255.6 819.3 255.8 C 818.9 255.9 820.3 256.6 819.8 256.6 C 819.8 256.6 819.8 256.6 819.8 256.6 Z M 790.4 230.0 C 790.5 230.9 790.8 231.4 790.6 231.6 C 790.3 230.8 790.5 230.8 790.3 230.1 C 790.2 230.0 790.0 229.6 790.1 229.5 C 790.2 229.9 790.3 229.8 790.4 230.0 C 790.4 230.0 790.4 230.0 790.4 230.0 Z M 855.5 215.6 C 855.4 215.4 855.0 215.3 855.2 215.2 C 856.2 215.5 857.3 215.7 858.2 215.8 C 858.2 215.9 858.2 216.0 858.1 216.1 C 856.6 215.5 856.1 215.6 855.5 215.6 C 855.5 215.6 855.5 215.6 855.5 215.6 Z M 853.6 214.6 C 853.4 214.7 853.9 215.1 853.2 214.9 C 853.3 214.7 852.1 214.2 852.7 214.3 C 852.8 214.5 853.2 214.6 853.6 214.6 C 853.6 214.6 853.6 214.6 853.6 214.6 Z M 906.1 237.3 C 906.8 237.7 905.9 236.9 906.0 236.8 C 906.5 237.2 907.2 237.6 907.3 237.8 C 906.9 237.5 906.3 237.6 906.1 237.3 C 906.1 237.3 906.1 237.3 906.1 237.3 Z M 895.0 232.0 C 893.4 231.3 894.3 231.2 892.8 230.4 C 893.5 230.5 894.9 231.3 895.4 231.3 C 895.2 231.4 895.6 231.6 895.5 231.7 C 895.0 231.5 894.9 231.3 894.3 231.0 C 894.4 231.4 894.5 231.3 894.2 231.4 C 894.6 231.6 894.9 231.7 895.1 231.8 C 894.9 231.9 895.5 232.2 895.0 232.0 C 895.0 232.0 895.0 232.0 895.0 232.0 Z M 905.5 237.7 C 906.1 237.9 906.5 238.5 906.0 238.2 C 906.0 238.0 905.5 238.0 905.5 237.8 C 906.3 238.2 904.8 237.3 905.3 237.4 C 905.8 237.7 906.0 237.7 906.0 237.5 C 906.3 237.7 906.8 237.9 906.8 238.0 C 906.6 237.9 906.3 237.7 906.2 237.8 C 906.4 237.9 906.6 238.0 906.5 238.0 C 906.0 237.7 905.7 237.7 905.5 237.7 C 905.5 237.7 905.5 237.7 905.5 237.7 Z M 901.5 235.4 C 902.3 235.9 902.3 236.1 902.5 236.4 C 901.5 235.8 901.4 235.4 900.7 234.8 C 901.6 235.4 902.6 235.6 902.8 235.9 C 902.4 235.7 901.7 235.3 901.5 235.4 C 901.5 235.4 901.5 235.4 901.5 235.4 Z M 898.9 288.6 C 898.2 288.3 897.6 288.1 896.8 287.8 C 896.5 288.1 897.9 288.8 897.3 288.5 C 896.5 288.4 897.1 288.2 896.5 288.0 C 897.1 288.5 893.5 287.9 893.4 287.5 C 894.0 287.6 894.2 287.6 894.1 287.4 C 895.5 287.7 896.1 287.6 897.2 287.7 C 897.9 288.1 900.1 288.5 901.4 288.3 C 902.1 288.9 903.6 288.5 904.6 289.0 C 904.9 288.9 903.7 288.7 904.6 288.7 C 905.2 289.0 904.7 289.1 905.4 289.3 C 905.5 289.1 905.4 289.0 905.8 289.0 C 905.7 289.1 906.2 289.2 906.3 289.3 C 904.8 289.1 906.4 289.6 905.1 289.5 C 904.6 289.4 905.7 289.2 904.3 289.1 C 903.8 289.1 903.3 289.1 903.4 289.4 C 902.9 289.3 902.7 289.3 902.4 289.3 C 903.0 289.1 900.4 289.2 901.6 289.0 C 901.7 289.0 902.5 289.1 903.1 289.1 C 902.6 288.8 901.9 288.9 901.0 288.8 C 900.6 288.6 901.2 288.6 900.7 288.5 C 900.0 288.6 901.0 288.9 900.4 288.9 C 900.6 289.0 901.0 289.0 901.0 289.1 C 899.7 288.7 899.2 288.9 898.6 288.8 C 899.0 288.7 897.8 288.4 898.9 288.6 C 898.9 288.6 898.9 288.6 898.9 288.6 Z M 909.5 289.3 C 909.8 289.3 910.0 289.3 910.3 289.4 C 910.4 289.6 909.3 289.6 910.0 289.8 C 908.8 289.7 910.1 289.5 909.5 289.3 C 909.5 289.3 909.5 289.3 909.5 289.3 Z M 903.8 288.0 C 903.4 287.7 903.6 288.3 903.2 288.2 C 903.9 288.3 904.6 288.2 904.6 288.5 C 903.8 288.4 903.4 288.3 902.6 288.3 C 903.4 288.1 901.7 287.9 901.4 287.6 C 902.1 287.6 902.7 287.6 903.5 287.7 C 903.4 287.8 904.7 288.0 903.8 288.0 C 903.8 288.0 903.8 288.0 903.8 288.0 Z M 906.2 287.9 C 906.3 288.1 907.6 288.0 907.3 288.3 C 906.5 288.2 906.2 288.2 906.4 288.5 C 905.8 288.4 905.8 288.3 905.3 288.3 C 905.0 288.0 905.9 288.1 906.2 288.0 C 906.0 287.9 905.8 287.9 906.2 287.9 C 906.2 287.9 906.2 287.9 906.2 287.9 Z M 931.7 283.9 C 932.1 284.0 931.0 284.3 930.8 284.4 C 931.2 284.5 931.1 284.6 930.5 284.9 C 930.6 284.5 929.6 285.0 928.9 284.9 C 928.8 285.2 929.7 285.0 928.7 285.3 C 927.9 285.5 927.3 285.8 926.0 286.1 C 925.6 285.9 926.2 285.8 926.5 285.6 C 925.6 285.8 925.9 285.6 925.2 285.7 C 925.3 285.8 924.8 286.0 924.5 285.9 C 925.7 285.6 922.9 285.9 924.1 285.6 C 924.2 285.6 924.5 285.5 924.8 285.4 C 924.5 285.8 926.1 285.4 926.5 285.5 C 927.0 284.8 928.6 284.6 930.2 284.3 C 930.3 284.3 929.9 284.6 930.3 284.5 C 930.3 284.4 930.8 284.2 931.0 284.0 C 931.0 284.2 931.2 284.1 931.5 284.0 C 931.6 284.0 931.6 283.9 931.7 283.9 C 931.7 283.9 931.7 283.9 931.7 283.9 Z M 847.7 270.5 C 848.0 270.2 845.9 269.5 845.3 269.3 C 845.6 269.0 849.0 270.7 847.7 270.5 C 847.7 270.5 847.7 270.5 847.7 270.5 Z M 860.1 275.2 C 859.6 275.0 859.9 275.4 859.4 275.2 C 859.4 275.0 858.1 275.0 858.1 274.7 C 858.8 274.7 859.1 274.9 860.1 275.2 C 860.1 275.2 860.1 275.2 860.1 275.2 Z M 871.6 279.3 C 870.6 279.0 872.0 279.5 871.8 279.6 C 871.0 279.3 870.2 279.0 870.3 278.9 C 871.0 279.2 871.6 279.0 871.6 279.3 C 871.6 279.3 871.6 279.3 871.6 279.3 Z M 854.5 272.8 C 853.8 272.4 855.1 272.6 855.2 272.8 C 854.4 272.5 855.7 273.2 856.4 273.5 C 856.3 273.7 856.0 273.5 856.2 273.9 C 855.1 273.6 856.1 273.6 855.4 273.3 C 854.8 273.3 855.4 273.4 855.2 273.6 C 854.9 273.5 854.6 273.4 854.3 273.2 C 854.4 273.1 854.4 273.0 854.5 272.9 C 854.8 273.0 855.2 273.1 855.1 273.0 C 854.8 272.8 854.8 272.9 854.5 272.8 C 854.5 272.8 854.5 272.8 854.5 272.8 Z M 913.7 286.2 C 912.9 286.3 913.6 286.4 914.1 286.4 C 914.2 286.3 914.7 285.8 915.5 286.1 C 913.7 286.3 916.0 286.4 915.0 286.6 C 914.6 286.3 913.6 286.6 912.7 286.6 C 912.3 286.4 913.3 286.0 913.7 286.2 C 913.7 286.2 913.7 286.2 913.7 286.2 Z M 916.8 286.4 C 916.7 286.3 916.4 286.3 915.9 286.3 C 916.4 286.1 915.7 286.1 916.3 286.0 C 916.3 286.1 918.5 286.1 917.2 286.2 C 916.0 286.1 917.5 286.3 918.0 286.3 C 917.5 286.3 916.4 286.7 916.3 286.5 C 916.6 286.5 916.9 286.4 916.8 286.4 C 916.8 286.4 916.8 286.4 916.8 286.4 Z M 935.1 281.0 C 935.0 280.8 934.8 281.0 934.6 281.0 C 935.4 280.4 935.8 279.9 936.1 279.6 C 935.9 279.9 936.0 280.0 936.2 279.9 C 935.9 280.2 935.9 280.3 935.7 280.4 C 935.8 280.0 935.5 280.6 935.1 281.0 C 935.1 281.0 935.1 281.0 935.1 281.0 Z M 935.1 281.0 " fill="#000000"></path><image xlink:href="../../F28DB714-4F67-4B8A-8BBE-A0CA2576D80F/assets/B8E645EC83B385724E2939478DAAFACB.png" width="102.00" height="55.00" transform="matrix(1.00, 0.00, -0.00, -1.00, 819.0, 273.0)"></image><g><clipPath id="clip-142"><path d="M 784.4 247.7 L 929.6 304.1 L 949.0 254.0 L 803.8 197.6 Z M 784.4 247.7 "></path></clipPath><g clip-path="url(#clip-142)"><text xml:space="preserve" font-family="Chalkduster" font-size="18.0" fill="#000000" transform="matrix(0.93, 0.36, 0.36, -0.93, 824.0, 224.8)">A</text><text xml:space="preserve" font-family="Chalkduster" font-size="18.0" fill="#000000" transform="matrix(0.93, 0.36, 0.36, -0.93, 836.4, 229.6)">s</text><text xml:space="preserve" font-family="Chalkduster" font-size="18.0" fill="#000000" transform="matrix(0.93, 0.36, 0.36, -0.93, 844.9, 232.9)">s</text><text xml:space="preserve" font-family="Chalkduster" font-size="18.0" fill="#000000" transform="matrix(0.93, 0.36, 0.36, -0.93, 853.3, 236.2)">i</text><text xml:space="preserve" font-family="Chalkduster" font-size="18.0" fill="#000000" transform="matrix(0.93, 0.36, 0.36, -0.93, 860.0, 238.8)">s</text><text xml:space="preserve" font-family="Chalkduster" font-size="18.0" fill="#000000" transform="matrix(0.93, 0.36, 0.36, -0.93, 869.0, 242.3)">t</text><text xml:space="preserve" font-family="Chalkduster" font-size="18.0" fill="#000000" transform="matrix(0.93, 0.36, 0.36, -0.93, 876.5, 245.2)">a</text><text xml:space="preserve" font-family="Chalkduster" font-size="18.0" fill="#000000" transform="matrix(0.93, 0.36, 0.36, -0.93, 888.0, 249.7)">n</text><text xml:space="preserve" font-family="Chalkduster" font-size="18.0" fill="#000000" transform="matrix(0.93, 0.36, 0.36, -0.93, 899.7, 254.2)">t</text><text xml:space="preserve" font-family="Chalkduster" font-size="18.0" fill="#000000" transform="matrix(0.93, 0.36, 0.36, -0.93, 907.4, 257.2)">s</text></g></g></g></svg>