<?xml version="1.0" encoding="UTF-8" standalone="no"?><svg xmlns="http://www.w3.org/2000/svg" xmlns:xlink="http://www.w3.org/1999/xlink" clip-rule="evenodd" stroke-miterlimit="4.00" viewBox="0 0 178 120"><desc>SVG generated by Keynote</desc><defs></defs><g transform="matrix(1.00, 0.00, -0.00, -1.00, 0.0, 120.0)"><path d="M 133.2 97.5 C 165.3 98.7 171.5 82.8 146.9 62.1 C 122.4 41.3 76.4 23.4 44.2 22.2 C 12.1 21.0 5.9 36.9 30.5 57.7 C 55.1 78.4 101.0 96.3 133.2 97.5 Z M 133.2 97.5 " fill="#A8E685"></path><path d="M 60.0 20.0 C 59.8 20.0 59.5 20.0 59.1 19.9 C 59.2 20.0 59.4 20.1 59.3 20.2 C 59.7 20.2 60.2 20.3 60.9 20.4 C 60.9 20.3 60.5 20.3 60.3 20.2 C 60.0 20.2 60.1 20.1 60.0 20.0 C 60.0 20.0 60.0 20.0 60.0 20.0 Z M 36.7 66.6 C 36.2 66.2 36.6 66.8 36.8 67.0 C 36.9 66.9 36.9 66.9 37.1 67.1 C 37.1 67.3 36.6 67.0 36.2 66.8 C 34.9 65.7 36.1 66.2 36.7 66.6 C 36.7 66.6 36.7 66.6 36.7 66.6 Z M 119.4 99.3 C 120.7 99.5 119.3 99.0 119.1 98.9 C 119.8 98.9 119.3 98.5 120.1 98.6 C 120.3 98.7 120.5 98.8 120.7 99.0 C 120.3 98.9 119.8 98.8 119.7 98.9 C 120.2 99.0 120.9 99.1 121.0 99.2 C 119.9 99.1 120.7 99.4 120.9 99.6 C 120.0 99.4 119.6 99.6 119.4 99.3 C 119.4 99.3 119.4 99.3 119.4 99.3 Z M 155.6 66.5 C 155.9 66.9 156.2 67.3 156.0 67.3 C 155.6 66.9 155.4 66.6 155.2 66.3 C 155.1 66.3 155.1 66.5 154.7 66.1 C 154.5 65.6 154.9 65.6 155.2 65.7 C 155.1 65.9 156.5 67.2 155.6 66.5 C 155.6 66.5 155.6 66.5 155.6 66.5 Z M 124.6 44.4 C 123.6 43.7 124.4 44.7 123.4 44.0 C 123.5 43.8 123.4 43.5 124.2 43.9 C 124.2 44.0 124.6 44.3 124.6 44.4 C 124.6 44.4 124.6 44.4 124.6 44.4 Z M 83.6 88.0 C 83.5 88.2 84.4 88.4 84.2 88.6 C 83.7 88.4 83.3 88.3 82.9 88.1 C 82.8 87.9 83.0 87.8 83.6 88.0 C 83.6 88.0 83.6 88.0 83.6 88.0 Z M 128.6 98.0 C 129.9 98.4 131.3 98.1 130.9 98.3 C 131.4 98.6 129.9 99.0 130.0 98.7 C 129.9 98.4 127.6 98.0 128.6 98.0 C 128.6 98.0 128.6 98.0 128.6 98.0 Z M 44.9 67.1 C 46.1 68.0 46.2 67.3 46.9 68.1 C 46.6 67.9 46.4 67.9 46.3 67.9 C 46.5 68.0 46.8 68.2 46.7 68.3 C 46.1 67.9 45.4 67.6 44.9 67.1 C 44.9 67.1 44.9 67.1 44.9 67.1 Z M 81.7 25.6 C 82.0 25.7 82.1 25.7 82.1 25.6 C 83.1 25.9 83.2 25.7 83.8 26.1 C 83.7 26.4 82.9 26.0 82.1 25.7 C 82.0 25.8 81.8 25.7 81.7 25.6 C 81.7 25.6 81.7 25.6 81.7 25.6 Z M 109.9 36.9 C 109.9 36.8 109.4 36.4 110.3 36.8 C 111.3 37.5 110.2 37.3 109.1 37.0 C 109.1 37.0 109.0 37.1 109.0 37.2 C 109.4 37.4 109.7 37.6 109.9 37.7 C 110.2 37.5 110.7 38.4 112.4 38.9 C 111.5 38.7 112.2 39.4 111.3 38.8 C 111.5 39.1 110.8 38.8 110.8 39.0 C 111.3 39.1 112.3 39.6 112.2 39.2 C 112.8 39.5 113.2 39.7 113.4 39.9 C 113.7 40.3 112.4 39.5 112.7 39.9 C 113.0 40.0 113.0 40.1 113.2 40.2 C 113.3 40.2 113.3 40.0 113.6 40.2 C 114.6 40.7 113.3 40.3 114.7 41.0 C 114.9 40.9 114.5 40.7 114.6 40.6 C 115.3 40.8 115.1 40.9 115.8 41.1 C 115.9 41.3 115.3 41.1 115.7 41.3 C 116.3 41.2 116.9 42.2 117.9 42.3 C 117.5 41.6 118.0 42.5 118.9 42.4 C 119.1 42.6 118.4 42.6 119.0 43.0 C 119.1 42.3 121.7 43.8 119.7 42.3 C 120.9 42.9 121.5 42.6 120.6 42.1 C 122.5 43.2 122.0 42.6 122.8 43.0 C 123.5 43.4 122.3 42.9 122.7 43.3 C 121.9 42.8 122.0 43.1 121.5 42.6 C 121.4 42.7 121.3 42.7 121.0 42.7 C 121.9 43.0 122.7 43.8 122.0 43.7 C 121.6 43.5 122.1 43.4 121.6 43.1 C 121.6 43.6 121.0 42.8 120.9 43.0 C 121.1 43.4 119.9 43.1 120.9 43.7 C 121.0 43.6 121.0 43.5 121.1 43.3 C 121.4 43.5 121.7 43.7 122.0 43.8 C 122.1 44.2 121.8 44.2 122.1 44.4 C 122.5 44.7 122.8 44.7 123.0 44.7 C 122.4 44.4 121.8 43.8 122.9 44.3 C 122.3 44.5 124.2 45.1 123.3 44.9 C 124.3 45.7 125.0 45.6 124.9 46.0 C 125.5 46.3 125.3 45.8 125.9 46.2 C 126.9 47.0 126.9 46.6 128.1 47.6 C 128.5 47.3 128.2 47.7 128.7 48.0 C 128.7 47.9 128.8 47.7 128.9 47.6 C 129.3 48.1 130.3 48.9 131.6 49.3 C 131.8 49.6 131.5 49.6 132.3 50.0 C 133.2 50.2 134.0 51.2 135.1 51.4 C 135.1 51.7 135.7 52.1 136.1 52.2 C 136.2 52.4 135.6 52.3 136.1 52.7 C 136.7 52.8 136.0 52.3 136.9 52.7 C 136.7 52.9 137.7 53.0 137.6 53.3 C 137.3 53.2 137.0 53.1 136.7 53.0 C 137.0 53.2 136.9 53.3 137.1 53.5 C 137.3 53.1 137.7 53.8 137.9 54.0 C 137.9 53.8 138.1 53.8 138.3 53.9 C 138.8 54.2 139.1 54.4 139.4 54.5 C 139.9 55.0 138.9 54.5 139.5 54.9 C 140.1 54.6 140.2 55.5 141.6 56.0 C 141.8 56.3 142.2 56.8 142.9 57.3 C 143.0 57.2 142.2 56.7 142.3 56.6 C 143.3 57.4 142.2 56.3 142.9 56.8 C 144.3 58.0 145.2 58.8 146.5 60.1 C 146.6 60.0 147.8 60.8 147.8 60.8 C 147.4 60.6 148.5 61.9 149.3 62.6 C 149.8 62.5 151.2 63.3 151.4 63.2 C 151.5 63.6 151.4 63.5 151.3 63.9 C 152.5 65.2 153.4 65.5 153.8 66.5 C 153.8 66.3 154.4 66.8 154.9 67.2 C 154.6 67.2 154.3 67.1 153.9 66.9 C 154.5 67.5 154.5 67.7 155.0 68.2 C 156.0 68.3 156.1 69.7 157.0 69.7 C 157.7 70.6 157.3 70.6 157.9 71.3 C 158.0 71.2 158.2 71.3 158.4 71.4 C 158.0 71.0 157.5 70.7 157.5 70.2 C 158.5 71.4 156.2 67.6 158.0 69.3 C 158.0 69.5 157.7 69.4 158.0 69.8 C 159.0 70.9 158.6 70.1 158.2 69.6 C 158.9 70.3 159.4 71.2 159.2 70.4 C 160.6 72.0 159.6 71.1 159.9 71.7 C 162.2 74.6 164.3 78.4 164.6 82.3 C 164.9 82.3 164.8 84.4 164.6 85.1 C 164.8 86.1 164.6 87.2 164.2 87.5 C 164.4 87.7 163.7 88.6 163.9 88.8 C 164.0 88.4 164.2 88.1 164.1 88.6 C 163.5 90.0 162.2 91.8 161.8 92.6 C 161.2 92.8 160.6 93.6 160.2 94.2 C 160.0 94.1 160.4 93.7 160.0 94.0 C 160.0 94.2 158.9 95.2 158.5 95.3 C 158.9 95.1 159.2 94.5 158.6 94.9 C 158.7 95.0 158.0 95.4 158.3 95.5 C 157.4 95.9 157.0 96.3 156.1 96.6 C 156.7 96.3 157.0 96.0 157.1 95.8 C 156.6 96.2 156.3 96.4 155.7 96.5 C 156.0 96.7 155.0 96.9 154.1 97.5 C 153.8 97.5 153.6 97.4 152.8 97.7 C 152.4 98.0 154.1 97.5 153.2 97.9 C 153.2 97.8 152.3 97.9 152.6 98.1 C 151.4 98.4 150.8 98.7 149.8 98.7 C 151.1 98.5 150.0 98.4 149.7 98.4 C 149.5 98.5 149.0 98.6 149.1 98.6 C 149.1 98.7 149.7 98.6 149.8 98.6 C 148.9 98.7 148.7 99.2 148.4 99.0 C 148.8 99.0 148.8 98.8 148.3 98.9 C 148.3 99.3 145.5 99.4 146.4 99.1 C 146.5 99.2 147.5 99.1 147.6 98.9 C 147.3 98.9 145.7 99.2 146.0 98.9 C 146.9 98.8 146.9 99.0 147.9 98.7 C 148.0 98.5 148.6 98.4 149.0 98.2 C 147.4 98.5 147.0 98.8 146.7 98.6 C 146.0 98.7 146.5 99.0 145.2 99.1 C 143.4 99.2 144.9 98.8 144.4 98.8 C 142.8 99.1 143.3 99.4 144.0 99.5 C 142.7 99.6 142.3 99.8 140.7 99.9 C 140.7 99.7 140.9 99.6 141.5 99.5 C 141.6 99.6 143.0 99.6 142.8 99.5 C 142.7 99.1 141.6 99.1 139.8 99.1 C 140.2 99.4 140.3 99.3 138.4 99.3 C 138.7 99.7 137.5 99.3 137.5 99.5 C 137.5 99.6 138.2 99.6 138.8 99.5 C 138.8 99.7 138.6 99.8 138.0 99.9 C 137.6 99.8 137.2 99.9 136.1 99.8 C 136.0 99.6 136.8 99.6 137.0 99.4 C 136.4 99.4 136.2 99.5 135.6 99.6 C 135.0 99.3 135.1 99.0 135.1 98.7 C 135.9 98.6 137.0 98.6 136.1 98.5 C 138.8 98.4 136.0 98.8 137.0 98.9 C 138.1 98.5 137.5 99.0 139.3 98.9 C 139.8 98.9 140.0 98.8 140.2 98.7 C 140.0 98.6 139.0 98.4 140.1 98.4 C 140.4 98.5 141.0 98.6 141.9 98.6 C 141.9 98.5 140.1 98.5 141.9 98.3 C 142.7 98.3 142.0 98.7 143.1 98.6 C 143.1 98.5 143.5 98.4 143.5 98.4 C 141.9 98.6 143.8 98.1 142.7 98.1 C 144.1 97.9 143.0 98.4 143.9 98.2 C 143.9 98.1 145.5 98.2 145.5 97.9 C 144.9 98.1 143.7 98.2 143.9 97.9 C 144.9 97.9 149.4 96.9 147.7 97.6 C 148.3 97.3 151.2 96.3 151.0 96.5 C 150.2 96.7 150.2 96.9 150.1 97.1 C 151.7 96.4 152.6 96.3 153.9 95.4 C 152.3 96.0 153.4 95.2 152.3 95.3 C 151.9 95.5 151.2 95.7 151.1 95.8 C 151.4 96.0 152.1 95.6 152.3 95.4 C 152.4 95.6 152.5 95.8 152.6 96.0 C 150.5 96.4 149.4 96.9 148.3 97.1 C 149.2 96.9 146.5 97.1 147.6 96.8 C 148.0 96.9 149.1 96.7 150.0 96.5 C 150.0 96.5 150.0 96.4 149.9 96.3 C 150.3 96.2 150.8 96.1 150.8 96.0 C 149.7 96.3 149.0 96.2 148.2 96.6 C 148.2 96.6 148.2 96.5 148.2 96.5 C 148.0 96.5 147.8 96.5 147.8 96.4 C 148.3 96.3 148.8 96.3 148.9 96.1 C 148.0 96.3 147.8 96.1 146.7 96.2 C 146.9 95.9 145.5 95.8 147.0 95.5 C 147.2 95.7 148.1 95.6 148.1 95.7 C 148.5 95.8 149.3 95.5 149.7 95.3 C 149.2 95.2 148.4 95.4 148.3 95.1 C 149.0 94.9 149.4 94.7 149.9 94.8 C 148.6 95.3 150.6 94.8 151.2 94.9 C 151.0 94.9 150.7 94.9 150.5 94.8 C 151.5 94.5 152.0 94.6 151.9 94.2 C 153.0 93.7 152.8 94.1 153.5 93.8 C 153.0 93.6 153.9 93.4 153.4 93.3 C 154.5 92.8 153.8 93.4 154.2 93.3 C 154.5 93.1 154.5 93.0 154.8 92.8 C 155.4 92.7 156.2 92.2 156.5 92.3 C 156.9 92.1 157.0 92.1 157.3 91.9 C 157.3 91.7 157.4 91.6 157.5 91.4 C 157.6 91.4 157.9 91.3 157.9 91.2 C 156.8 91.6 157.1 91.4 155.9 91.9 C 155.9 92.0 155.8 92.1 156.1 92.1 C 155.4 92.6 155.1 92.6 154.3 92.9 C 154.2 92.8 153.9 92.6 153.3 93.1 C 153.3 92.8 153.1 92.8 153.4 92.6 C 153.8 92.6 154.3 92.4 154.8 92.3 C 154.8 92.1 154.7 92.1 154.9 91.9 C 155.2 91.9 155.5 91.8 155.7 91.5 C 155.8 91.6 155.7 91.7 155.7 91.8 C 156.6 91.3 156.1 91.3 156.8 90.9 C 156.6 90.9 156.3 91.2 156.5 90.8 C 157.0 90.3 157.2 90.3 157.5 90.1 C 157.5 90.1 157.4 90.0 157.5 89.9 C 157.9 89.7 157.1 91.0 157.9 90.6 C 157.8 90.4 158.4 89.9 158.6 89.9 C 158.6 90.2 158.0 90.4 158.1 90.5 C 159.2 89.4 158.5 90.8 159.5 89.6 C 159.4 89.5 159.3 89.5 159.3 89.4 C 158.9 89.9 158.7 89.8 158.6 89.6 C 158.3 90.0 157.9 89.9 157.7 90.4 C 157.5 89.9 158.0 90.1 158.4 89.7 C 158.2 89.5 157.8 89.9 157.6 89.8 C 158.6 89.1 158.4 88.7 159.2 87.9 C 158.8 88.0 159.4 87.4 159.2 87.4 C 158.9 88.2 158.4 87.6 158.3 87.6 C 158.1 88.1 158.6 88.1 158.5 88.5 C 158.2 88.5 158.2 88.4 157.9 88.1 C 158.2 87.8 158.2 87.8 158.2 87.4 C 158.5 87.3 159.1 87.2 159.0 87.7 C 159.0 87.5 159.1 86.9 159.3 86.9 C 159.1 87.5 159.4 86.9 159.4 87.3 C 159.7 86.9 159.7 86.0 160.0 85.4 C 159.8 85.4 159.8 85.2 159.7 85.2 C 159.8 85.8 159.3 85.8 159.1 86.4 C 159.2 86.1 159.0 86.2 158.9 86.3 C 159.2 85.8 159.0 85.5 159.3 85.1 C 159.2 85.1 159.1 85.1 159.0 85.1 C 159.3 84.5 159.2 84.5 159.0 84.0 C 159.1 83.7 159.5 84.0 159.8 84.1 C 159.7 83.8 159.6 82.7 159.4 83.4 C 159.3 82.8 159.7 82.9 159.5 82.2 C 159.3 82.2 159.4 82.8 159.0 82.7 C 158.9 82.1 159.3 82.3 159.0 81.9 C 159.1 81.8 159.4 81.7 159.2 81.2 C 159.1 81.6 159.1 81.1 158.9 81.0 C 158.9 81.3 158.9 81.5 158.9 81.7 C 158.7 80.6 158.6 80.4 158.1 79.5 C 158.5 79.8 158.4 79.2 158.8 79.8 C 158.4 79.3 158.3 78.4 158.0 78.1 C 158.1 78.6 158.4 79.2 158.4 79.4 C 157.5 77.6 156.6 76.7 155.7 74.7 C 155.9 75.0 156.2 75.5 156.3 75.5 C 156.1 75.3 155.9 74.9 156.0 74.9 C 156.4 75.5 156.8 76.1 157.1 76.4 C 157.3 77.0 156.7 76.2 157.0 76.8 C 157.2 76.8 157.6 77.9 157.7 77.4 C 157.0 76.5 156.6 75.5 156.6 74.8 C 155.6 74.2 156.3 75.0 155.1 74.3 C 155.3 74.2 155.2 74.0 154.9 73.6 C 154.9 74.1 154.1 72.8 154.0 72.6 C 154.5 73.0 156.0 74.7 155.5 73.6 C 155.3 74.4 154.0 71.4 154.0 72.2 C 153.0 71.0 153.6 71.2 152.8 70.7 C 152.8 70.6 153.0 70.6 152.7 70.3 C 152.4 70.0 152.2 69.9 152.0 69.8 C 153.5 71.6 152.8 71.3 153.7 72.4 C 153.5 72.2 153.4 72.1 153.4 72.2 C 153.3 72.2 153.3 72.2 153.1 71.9 C 153.3 71.7 152.3 71.1 152.2 70.7 C 152.5 71.0 152.8 71.4 152.8 71.2 C 151.5 69.8 152.1 69.9 150.1 67.7 C 150.6 68.4 149.8 67.7 149.0 67.0 C 148.0 66.0 148.7 66.1 147.3 64.9 C 147.0 65.5 145.8 63.5 144.6 63.0 C 144.9 62.8 143.6 61.6 143.1 61.6 C 143.2 61.5 142.7 61.1 142.3 60.9 C 142.3 60.7 142.8 60.9 142.5 60.7 C 142.1 60.5 142.3 60.9 141.8 60.6 C 141.4 60.2 141.6 60.0 140.9 59.5 C 140.7 59.6 141.2 59.9 140.7 59.7 C 140.1 59.2 139.5 58.7 139.9 59.3 C 138.9 58.7 139.7 58.6 138.7 58.0 C 138.9 58.3 138.9 58.3 138.4 58.0 C 138.1 57.6 138.1 57.5 138.1 57.3 C 137.7 57.3 137.8 57.4 137.0 56.8 C 137.0 56.9 136.9 57.0 136.8 57.1 C 136.5 56.8 135.9 56.5 135.9 56.3 C 136.6 56.8 136.5 56.5 136.8 56.6 C 136.1 56.1 135.0 55.0 135.8 56.0 C 134.8 55.4 135.4 55.4 134.6 55.0 C 135.0 55.5 134.7 55.0 133.8 54.5 C 133.7 54.9 133.3 54.2 132.8 54.0 C 132.7 54.2 132.6 54.2 132.1 53.9 C 132.2 53.8 131.9 53.6 131.4 53.3 C 131.3 53.4 132.3 54.2 131.3 53.5 C 130.8 53.1 130.9 52.8 130.1 52.3 C 130.1 52.0 131.0 52.6 130.9 52.3 C 130.1 52.1 130.0 51.8 129.0 51.2 C 129.2 51.8 126.7 50.5 127.8 51.4 C 127.4 51.1 126.8 51.2 126.6 50.8 C 127.0 51.0 126.5 50.4 126.5 50.4 C 126.0 50.1 125.0 49.3 124.8 49.5 C 125.9 50.0 125.8 50.2 126.1 50.5 C 124.5 49.8 123.1 48.9 123.4 48.8 C 123.4 48.8 123.1 48.7 123.0 48.7 C 123.6 49.0 123.8 49.6 123.1 49.2 C 123.4 49.1 122.9 48.8 122.5 48.4 C 122.3 48.6 120.4 47.2 120.6 47.7 C 121.6 48.0 122.1 48.7 121.4 48.5 C 120.9 48.0 119.8 47.3 120.2 47.2 C 119.9 47.1 119.5 47.0 119.2 47.0 C 118.9 47.0 119.5 47.4 119.3 47.5 C 118.9 47.2 118.2 46.9 118.2 46.8 C 119.4 47.4 117.7 46.4 118.9 46.8 C 118.2 46.5 118.1 46.2 117.5 45.9 C 117.5 46.0 117.3 45.9 117.2 45.9 C 117.8 46.0 118.2 46.4 117.9 46.6 C 116.9 46.1 117.2 45.9 116.3 45.5 C 115.9 45.5 114.6 45.2 114.1 44.7 C 115.2 45.3 114.0 44.6 114.8 44.8 C 115.8 45.5 116.2 45.4 116.7 45.4 C 116.3 45.0 115.4 44.5 115.2 44.7 C 115.7 45.0 115.8 44.9 116.1 45.0 C 116.0 45.2 115.8 45.2 115.4 45.0 C 115.0 44.6 113.8 44.3 114.7 44.3 C 113.8 44.1 113.1 43.4 112.2 43.2 C 113.1 43.7 113.7 44.1 113.9 44.4 C 113.1 44.1 112.5 43.5 112.4 43.7 C 112.4 43.9 113.6 44.4 113.7 44.7 C 112.7 44.4 111.6 43.1 112.5 44.2 C 112.0 43.9 111.3 43.5 111.1 43.3 C 111.7 43.6 111.2 43.0 110.9 42.8 C 110.4 42.5 109.9 42.4 109.6 42.4 C 110.5 42.7 111.1 43.3 110.5 43.0 C 110.4 42.8 110.1 42.9 109.8 42.8 C 109.8 42.7 108.8 42.3 108.7 42.1 C 108.7 42.2 109.1 42.5 109.2 42.6 C 108.6 42.4 107.6 42.4 107.3 41.9 C 107.7 42.0 108.2 42.3 108.3 42.2 C 106.8 41.2 106.4 40.7 104.6 39.7 C 104.8 39.8 105.0 39.8 105.0 39.7 C 103.8 39.1 103.0 38.7 103.2 38.6 C 102.5 38.3 102.0 38.3 101.5 38.3 C 102.3 38.7 102.7 38.6 103.1 39.0 C 102.8 38.9 103.5 39.7 103.8 40.0 C 105.2 40.3 105.1 40.7 106.5 41.2 C 106.0 41.2 107.5 41.6 107.0 41.7 C 105.9 40.8 104.6 40.6 102.8 39.6 C 103.1 39.6 103.4 39.5 102.7 39.1 C 101.5 38.5 102.0 39.0 101.0 38.6 C 100.7 38.2 101.3 38.4 100.8 38.1 C 100.5 38.1 99.6 37.7 99.3 37.4 C 100.6 37.9 99.2 37.1 100.1 37.3 C 99.6 37.1 99.4 37.0 99.2 36.9 C 100.3 37.6 97.8 36.7 98.6 37.3 C 96.8 36.7 98.7 36.6 97.3 36.1 C 97.9 36.6 97.0 36.3 95.9 35.9 C 95.7 35.5 94.7 35.1 93.8 34.7 C 94.2 35.0 94.6 35.1 93.7 35.0 C 94.1 35.2 94.9 35.5 95.3 35.5 C 95.3 35.6 95.4 35.8 95.6 35.9 C 94.5 35.6 94.9 35.8 94.5 35.8 C 94.2 35.6 93.5 35.3 93.3 35.1 C 93.3 35.2 93.0 35.1 93.0 35.1 C 94.3 35.6 92.6 35.4 93.4 35.7 C 94.0 35.9 93.7 35.5 94.5 35.8 C 95.1 36.4 93.8 35.9 93.3 36.0 C 93.9 36.4 94.7 36.4 94.8 36.7 C 93.9 36.7 92.7 36.1 91.7 35.6 C 91.6 35.9 90.0 34.9 89.7 35.2 C 89.6 35.1 89.4 34.9 89.1 34.8 C 88.7 34.9 88.5 34.5 88.2 34.4 C 88.1 34.5 88.2 34.6 88.4 34.8 C 87.1 34.2 86.8 34.1 85.2 33.7 C 85.0 33.5 84.8 33.3 84.7 33.1 C 85.1 33.2 85.5 33.2 85.8 33.2 C 83.7 32.5 84.8 33.6 83.5 32.8 C 83.5 32.9 84.4 33.5 83.6 33.3 C 82.4 32.6 80.4 32.3 80.7 31.7 C 79.6 31.1 78.6 31.3 78.2 30.8 C 77.8 30.7 77.6 30.8 77.5 30.8 C 77.8 31.1 78.2 31.3 78.6 31.6 C 79.4 31.6 79.6 32.0 79.0 31.4 C 80.1 31.7 80.3 31.9 80.8 32.2 C 79.3 31.9 78.1 31.4 77.9 31.7 C 77.5 31.4 77.1 31.1 76.8 30.9 C 76.6 31.0 74.9 30.6 74.9 30.4 C 76.0 30.7 77.2 30.7 76.2 30.3 C 73.5 29.7 72.1 28.9 69.7 28.6 C 69.6 28.5 69.8 28.4 69.4 28.3 C 69.4 28.4 69.3 28.5 69.0 28.5 C 68.3 28.3 67.9 28.1 66.9 27.9 C 67.0 27.7 66.9 27.5 66.4 27.3 C 66.0 27.5 64.9 27.8 64.4 27.6 C 65.0 27.7 64.2 27.2 63.8 27.1 C 64.1 27.5 61.2 26.4 62.0 26.9 C 60.7 26.6 60.2 26.4 60.2 26.3 C 59.8 26.3 59.4 26.3 59.0 26.3 C 58.8 25.9 56.6 25.8 56.4 25.6 C 57.1 25.8 57.3 25.5 56.7 25.4 C 56.2 25.5 54.3 25.5 54.0 25.4 C 54.1 25.3 54.3 25.1 55.2 25.1 C 53.7 24.9 53.6 25.2 53.1 25.4 C 53.2 25.1 52.5 25.3 52.2 25.3 C 51.8 25.1 52.3 25.2 52.3 25.0 C 51.7 24.9 51.6 24.7 50.9 24.7 C 51.0 25.0 50.3 24.7 50.0 24.7 C 49.9 24.8 49.5 24.9 48.8 24.9 C 49.7 24.5 45.3 24.2 46.3 24.6 C 45.5 24.7 45.5 24.2 44.4 24.2 C 44.2 24.4 43.6 24.2 44.2 24.4 C 43.3 24.5 43.5 24.1 41.8 24.2 C 42.5 24.5 40.1 24.1 40.5 24.5 C 39.7 24.1 38.4 24.7 37.0 24.4 C 37.0 24.5 36.7 24.5 36.6 24.6 C 36.4 24.7 38.2 24.7 37.1 24.8 C 35.6 24.7 36.4 24.6 36.2 24.4 C 32.5 24.8 28.7 25.4 26.0 26.2 C 26.4 26.2 26.4 26.3 25.9 26.5 C 25.0 26.3 22.4 27.7 22.2 28.1 C 21.8 27.9 21.0 28.9 20.7 28.9 C 20.9 28.8 21.1 28.3 20.7 28.6 C 20.6 29.1 20.2 29.2 20.0 29.6 C 19.7 29.6 19.0 30.8 19.0 30.0 C 18.9 30.2 18.8 30.3 18.6 30.4 C 18.9 30.6 18.7 30.7 19.1 30.5 C 18.2 31.3 18.3 31.6 17.8 32.3 C 17.9 32.5 18.2 32.0 18.1 32.4 C 18.1 32.4 18.0 32.4 18.0 32.4 C 17.9 32.5 18.0 32.6 17.8 32.7 C 17.7 32.6 17.9 32.4 17.6 32.2 C 17.5 32.7 17.1 32.9 17.3 33.1 C 17.5 32.5 17.8 33.0 17.5 33.3 C 17.4 32.9 17.3 34.7 17.4 35.2 C 17.1 35.5 17.4 34.6 17.2 34.7 C 17.2 35.7 17.1 35.7 17.4 35.8 C 17.4 36.4 17.3 36.7 17.6 37.4 C 17.5 37.9 17.3 37.2 17.4 37.7 C 17.5 37.9 17.7 38.0 17.8 38.5 C 17.7 39.8 19.8 42.5 20.2 44.5 C 19.9 43.7 20.6 44.5 21.2 45.4 C 21.2 45.5 21.0 45.5 21.2 45.8 C 21.3 45.6 21.6 45.9 22.0 46.5 C 22.0 46.6 21.8 46.6 22.0 46.9 C 22.4 47.0 22.8 47.9 23.3 48.2 C 23.2 48.6 22.3 47.3 22.1 47.3 C 23.1 48.8 23.6 48.9 24.5 50.1 C 24.0 49.6 24.7 50.7 24.9 51.0 C 24.8 50.5 25.8 51.3 25.3 50.6 C 25.7 51.0 26.3 51.6 26.3 51.8 C 26.1 51.6 25.8 51.2 25.7 51.3 C 26.3 51.8 26.8 52.7 27.2 52.8 C 26.8 52.4 26.7 52.1 26.8 52.0 C 27.0 52.1 27.2 52.2 27.5 52.4 C 26.2 52.0 29.1 54.3 29.3 54.3 C 29.4 54.9 29.5 55.0 29.3 55.1 C 30.5 56.2 30.5 55.8 31.3 56.4 C 30.9 56.4 30.8 56.6 31.4 57.3 C 31.4 56.9 32.2 57.6 32.2 57.1 C 34.0 58.5 34.2 59.1 35.4 60.0 C 35.4 59.9 35.1 59.6 35.5 59.8 C 35.9 60.3 36.4 60.7 36.6 61.1 C 37.1 61.2 36.7 60.8 37.1 61.0 C 37.8 61.8 37.4 61.9 38.1 62.6 C 39.1 63.2 38.7 63.0 39.5 63.2 C 39.2 63.0 38.9 62.7 39.3 62.9 C 39.8 63.5 39.9 63.9 40.0 64.1 C 39.5 63.8 39.2 63.5 39.0 63.3 C 38.8 63.4 38.2 62.9 38.6 63.4 C 38.0 62.9 37.4 62.4 36.5 61.8 C 36.6 62.2 35.7 61.3 35.8 61.7 C 36.8 62.4 37.0 62.7 37.9 63.3 C 37.9 62.9 38.8 63.8 38.9 64.0 C 39.0 63.8 39.7 64.3 39.6 64.0 C 40.4 64.5 40.3 64.7 41.1 65.1 C 41.1 65.2 40.9 65.3 41.2 65.5 C 41.6 65.4 41.7 65.9 41.9 66.1 C 41.9 65.7 42.9 66.6 43.1 66.5 C 42.8 66.3 42.4 66.0 42.4 65.9 C 43.6 66.7 42.8 65.9 42.6 65.6 C 42.6 65.7 42.0 65.7 42.0 65.4 C 43.1 66.0 40.8 64.1 41.6 64.8 C 42.4 65.4 42.4 65.2 43.2 65.8 C 43.9 66.8 42.7 66.2 43.4 67.1 C 44.1 67.3 44.5 67.6 44.7 67.5 C 44.8 67.6 44.9 67.8 45.1 68.0 C 45.4 68.0 44.4 67.3 45.2 67.7 C 45.6 68.0 45.0 68.0 45.9 68.5 C 46.4 68.6 45.0 67.6 45.8 68.1 C 46.4 68.9 45.7 67.9 46.7 68.4 C 46.7 68.5 46.8 68.6 47.2 68.8 C 47.2 69.0 46.9 69.0 47.3 69.3 C 47.7 69.0 47.5 69.6 48.3 70.0 C 48.9 70.0 47.6 69.4 48.0 69.3 C 48.7 70.1 49.3 70.0 49.6 70.3 C 48.8 70.1 50.6 71.0 50.5 71.3 C 50.5 70.9 50.8 71.2 51.9 71.6 C 51.7 72.0 53.0 72.3 53.0 72.8 C 53.2 72.8 53.6 72.8 53.8 72.8 C 53.4 72.6 53.1 72.4 53.3 72.4 C 53.6 72.5 53.8 72.7 54.1 72.8 C 54.5 73.3 53.0 73.0 55.0 74.0 C 54.9 73.6 55.7 74.0 56.3 74.2 C 56.4 73.9 55.6 73.8 55.6 73.6 C 56.3 73.8 56.9 74.3 57.2 74.7 C 58.4 75.2 59.7 76.0 61.4 76.7 C 61.7 77.1 59.9 76.2 61.0 76.8 C 61.5 77.1 61.3 76.8 61.9 77.1 C 60.9 77.8 66.4 79.5 66.6 80.0 C 66.9 79.9 68.3 80.7 68.3 80.4 C 67.2 80.1 66.6 79.5 66.2 79.2 C 65.2 78.9 66.9 79.8 66.1 79.4 C 66.0 79.3 64.7 78.8 64.9 78.7 C 66.3 79.3 64.4 78.1 65.4 78.4 C 66.6 79.0 69.2 79.8 68.5 79.8 C 68.5 79.8 68.0 79.5 67.9 79.6 C 69.2 80.3 70.1 80.5 70.8 80.6 C 71.3 81.0 74.0 81.8 73.3 81.7 C 73.4 81.9 71.8 81.0 71.9 81.3 C 74.5 82.5 74.6 82.3 76.3 83.2 C 75.9 82.7 78.3 83.5 78.0 83.5 C 77.9 83.7 78.4 84.1 79.5 84.3 C 79.3 84.5 79.8 84.7 80.4 85.0 C 80.7 84.9 80.0 84.7 80.2 84.5 C 80.7 84.7 81.3 84.9 81.8 85.1 C 81.8 85.2 81.6 85.3 82.0 85.5 C 82.7 85.6 84.9 86.1 84.7 86.2 C 83.6 86.2 86.0 87.0 84.5 86.6 C 84.9 86.8 84.9 86.9 85.4 87.1 C 85.5 87.0 85.5 86.9 85.5 86.8 C 86.7 87.2 86.0 87.3 87.0 87.7 C 87.1 87.6 87.6 87.8 87.7 87.7 C 87.3 87.6 87.3 87.6 86.7 87.4 C 87.5 87.3 85.8 86.9 85.9 86.6 C 87.1 87.0 87.0 87.2 87.4 87.5 C 88.9 87.8 88.2 87.7 89.7 88.3 C 89.7 88.2 89.3 88.0 89.4 87.9 C 91.2 88.6 90.9 89.0 92.2 89.2 C 91.9 89.2 90.7 89.0 91.5 89.3 C 92.4 89.4 92.7 89.3 93.9 89.6 C 93.9 89.7 93.8 89.8 94.1 89.9 C 94.6 90.0 94.7 89.8 95.2 89.8 C 95.2 90.0 95.9 90.1 96.2 90.1 C 96.5 90.4 95.9 90.3 96.4 90.5 C 97.4 90.8 98.0 90.4 98.8 90.7 C 98.6 91.0 99.5 91.2 100.3 91.3 C 100.4 91.7 102.1 92.0 103.1 92.4 C 102.9 92.1 104.0 92.5 103.8 92.2 C 103.3 92.0 103.1 91.9 103.0 91.8 C 104.2 92.1 104.4 92.7 105.5 92.5 C 105.9 92.8 106.4 93.1 107.3 93.3 C 107.4 93.2 105.8 92.7 106.7 92.9 C 106.8 93.0 107.0 93.0 107.3 93.0 C 107.1 93.3 107.8 93.5 108.2 93.7 C 109.0 93.7 110.4 94.4 109.8 93.9 C 110.9 94.1 110.1 94.4 111.0 94.6 C 110.6 94.1 112.1 94.4 111.4 94.1 C 112.6 94.3 112.4 94.7 111.9 94.7 C 113.0 95.0 113.3 94.8 113.8 95.1 C 113.3 94.7 115.0 94.9 114.1 94.9 C 113.8 95.1 115.1 95.2 115.3 95.3 C 115.0 95.1 115.5 95.2 114.8 94.9 C 115.6 95.0 116.8 95.2 117.5 95.6 C 118.5 95.6 119.5 95.7 119.0 95.9 C 119.9 96.0 119.6 95.9 120.5 96.1 C 120.5 96.1 120.3 96.0 120.2 95.9 C 121.5 96.1 121.2 96.2 122.9 96.5 C 122.7 96.7 123.7 96.9 124.0 97.1 C 123.3 97.0 122.8 96.8 122.3 96.7 C 122.1 96.8 122.7 97.0 122.2 96.9 C 122.2 96.8 121.9 96.8 121.7 96.7 C 122.7 97.1 120.2 96.9 121.0 96.8 C 121.0 96.8 121.1 96.9 121.3 96.9 C 121.1 96.6 121.1 96.7 121.4 96.5 C 120.8 96.5 120.4 96.1 120.2 96.3 C 120.2 96.4 120.7 96.5 120.8 96.6 C 119.4 96.5 120.4 96.2 119.3 96.1 C 119.0 96.3 119.6 96.5 119.8 96.7 C 118.8 96.5 117.9 96.4 117.7 96.2 C 116.8 96.1 117.7 96.4 117.0 96.4 C 116.7 96.2 116.8 96.0 116.2 95.9 C 115.5 95.9 116.5 96.2 115.8 96.1 C 115.1 95.8 116.4 95.9 115.3 95.6 C 115.5 96.0 114.3 95.3 114.3 95.6 C 115.0 95.7 114.9 96.0 114.6 95.7 C 113.2 95.1 111.9 95.8 110.5 94.9 C 110.5 95.0 110.3 94.9 110.2 95.0 C 111.3 95.4 113.0 95.7 113.2 96.2 C 114.1 96.3 114.1 96.0 114.2 96.0 C 115.2 96.5 115.1 96.5 114.4 96.7 C 112.6 96.5 111.9 96.1 110.7 95.7 C 110.0 95.8 110.8 95.9 111.0 96.1 C 107.3 95.0 110.0 96.3 108.7 96.0 C 108.7 95.8 108.5 95.7 108.1 95.6 C 108.1 95.7 107.5 95.5 107.4 95.6 C 107.7 95.7 107.8 95.7 107.7 95.8 C 106.7 95.7 107.2 95.5 107.1 95.4 C 107.8 95.6 108.3 95.6 108.4 95.5 C 107.5 95.4 106.8 95.0 106.2 95.1 C 105.4 94.6 106.8 94.6 106.4 94.2 C 106.6 94.1 105.7 94.7 105.0 94.6 C 103.8 94.3 103.7 94.5 102.6 94.3 C 102.4 93.9 103.7 94.4 103.7 94.2 C 103.4 94.1 103.3 94.0 103.1 94.0 C 102.3 93.8 102.3 94.0 101.7 93.9 C 101.4 93.6 101.2 93.7 100.7 93.7 C 100.1 93.4 101.2 93.6 100.5 93.4 C 99.7 93.1 99.0 93.2 98.8 93.1 C 98.8 93.0 98.9 92.9 98.5 92.8 C 97.6 92.7 97.4 92.7 98.5 93.1 C 97.5 92.8 97.0 92.8 97.1 93.1 C 98.6 93.5 99.0 93.6 99.6 94.1 C 99.9 93.9 100.3 94.2 100.9 94.5 C 100.6 94.0 101.5 94.6 101.9 94.5 C 101.5 94.4 101.2 94.2 101.0 94.1 C 102.6 94.5 102.5 94.6 103.9 94.5 C 103.9 94.6 104.1 94.7 104.2 94.8 C 103.8 94.8 102.6 94.5 102.5 94.7 C 103.4 95.2 103.8 94.8 104.8 95.4 C 105.2 95.3 104.0 94.9 104.8 95.1 C 105.2 95.3 105.7 95.6 106.3 95.8 C 107.0 96.0 107.4 95.9 108.0 96.0 C 108.0 96.1 108.1 96.2 108.6 96.3 C 108.6 96.2 108.1 96.0 108.7 96.0 C 110.3 96.7 111.3 97.2 113.0 97.4 C 112.4 97.2 111.2 96.6 111.8 96.8 C 112.5 97.1 113.6 97.0 114.3 97.4 C 114.5 97.5 113.4 97.1 113.6 97.6 C 114.4 97.7 114.8 97.8 115.2 97.9 C 115.2 97.8 116.0 98.0 115.9 97.7 C 115.2 97.6 115.0 97.8 114.9 97.7 C 115.5 97.1 117.1 98.3 118.3 98.5 C 119.0 98.6 117.7 98.2 118.6 98.3 C 119.2 98.3 119.4 98.9 118.5 98.8 C 118.0 98.6 117.7 98.9 117.6 98.6 C 117.4 98.6 117.0 98.5 117.0 98.6 C 117.4 98.7 117.3 98.8 117.6 98.9 C 117.0 98.8 116.8 99.2 116.3 98.9 C 116.6 98.9 116.8 98.9 116.9 98.8 C 115.3 98.6 114.8 98.3 113.8 98.0 C 114.3 98.3 113.8 98.1 113.8 98.3 C 114.5 98.4 115.9 98.8 115.0 98.7 C 114.5 98.3 113.9 99.0 113.4 98.6 C 113.9 98.6 113.8 98.5 114.1 98.5 C 113.4 98.3 113.5 98.1 112.9 98.0 C 110.7 97.9 109.3 97.0 105.8 96.7 C 104.6 96.4 106.9 96.8 106.8 96.6 C 106.5 96.5 106.5 96.5 106.2 96.4 C 106.1 96.7 105.6 96.2 105.2 96.4 C 105.3 96.2 103.7 96.0 103.0 95.6 C 102.9 95.7 103.0 95.8 102.6 95.7 C 100.3 94.8 95.9 94.0 94.2 93.2 C 94.2 93.4 93.4 93.2 93.1 93.2 C 92.0 92.8 92.6 92.8 90.8 92.5 C 90.0 92.3 91.0 92.4 91.2 92.4 C 88.7 91.7 86.6 90.7 84.9 90.5 C 84.1 90.3 85.0 90.3 83.4 89.7 C 83.3 90.0 80.9 88.6 80.4 88.8 C 79.4 88.5 77.8 87.4 78.5 88.0 C 77.1 87.5 78.1 87.5 77.6 87.3 C 76.7 87.0 77.7 88.0 76.7 87.7 C 76.9 87.5 76.1 87.2 75.6 86.8 C 76.3 87.1 76.8 87.2 77.0 87.1 C 76.3 87.0 76.4 86.9 75.4 86.5 C 74.5 86.3 72.3 85.6 71.8 85.1 C 71.8 85.2 71.9 85.3 72.0 85.4 C 71.4 85.2 70.8 84.6 70.7 84.9 C 69.3 84.3 68.8 83.8 67.9 83.7 C 67.2 83.5 68.2 83.6 66.4 82.8 C 66.3 83.0 63.1 81.5 62.4 80.9 C 62.2 81.2 62.2 80.8 61.8 80.6 C 61.7 80.7 61.7 80.8 61.3 80.7 C 61.3 80.6 61.0 80.5 60.7 80.4 C 61.1 80.1 59.6 79.9 59.6 79.6 C 59.9 79.8 60.0 79.6 59.7 79.4 C 59.5 79.6 58.4 78.6 58.5 78.9 C 58.7 79.1 59.6 79.5 59.2 79.6 C 58.0 79.1 58.6 79.0 57.8 78.6 C 57.9 78.7 58.3 79.0 57.7 78.8 C 56.9 78.3 57.7 78.7 57.3 78.3 C 56.8 78.1 55.9 77.9 55.6 77.7 C 55.7 77.8 55.5 77.5 55.4 77.4 C 53.9 76.5 50.4 74.9 49.1 73.8 C 49.0 73.8 48.6 73.7 48.7 73.9 C 47.9 73.3 47.9 73.4 47.1 72.8 C 47.0 72.9 47.0 73.0 46.9 73.0 C 45.7 72.5 47.0 72.7 46.2 72.3 C 45.9 72.7 45.9 71.9 45.2 71.5 C 45.1 71.5 44.7 71.3 44.7 71.6 C 43.7 70.9 44.0 70.6 43.0 70.2 C 43.2 70.3 42.9 71.1 42.7 71.2 C 42.6 71.0 42.4 70.8 42.0 70.5 C 42.6 70.6 42.8 69.7 41.4 69.1 C 42.1 69.5 42.4 69.7 42.1 69.8 C 41.1 69.2 40.9 68.8 40.1 68.3 C 39.8 68.4 40.4 68.8 40.0 68.9 C 39.8 68.8 39.7 68.8 39.7 68.9 C 38.8 68.3 38.9 68.1 37.9 67.6 C 38.0 67.5 38.2 67.6 38.5 67.9 C 38.5 67.7 38.6 67.5 39.2 67.9 C 39.2 68.1 38.7 68.1 39.6 68.5 C 39.6 68.4 39.7 68.3 39.8 68.2 C 39.2 67.8 38.0 66.7 37.8 66.7 C 38.0 67.0 38.4 67.4 38.0 67.4 C 37.1 66.7 37.0 66.3 36.3 65.6 C 34.9 64.7 32.6 62.9 32.7 63.4 C 32.0 62.8 32.3 63.0 31.6 62.4 C 31.7 62.8 30.8 61.9 30.7 62.1 C 31.6 62.7 31.3 62.6 32.2 63.1 C 32.1 63.2 31.8 63.2 31.5 63.0 C 31.5 62.9 31.2 62.6 30.7 62.2 C 30.7 62.3 31.1 62.9 30.5 62.4 C 30.5 62.3 30.3 62.2 30.1 62.0 C 30.2 61.9 30.2 61.8 30.3 61.7 C 30.7 61.9 31.1 62.1 31.4 62.2 C 31.2 62.1 31.2 62.0 31.0 61.8 C 30.7 61.8 29.9 60.9 29.7 61.0 C 30.1 61.3 30.3 61.6 29.9 61.3 C 29.8 61.2 29.3 60.7 29.0 60.6 C 29.7 61.3 29.4 61.1 29.6 61.6 C 28.7 60.9 29.5 61.2 27.7 59.8 C 27.8 59.6 27.9 59.5 28.4 59.8 C 27.6 58.5 24.9 56.6 24.2 55.9 C 24.7 56.4 25.5 56.7 24.7 55.9 C 24.7 56.0 24.1 55.4 24.0 55.4 C 23.4 55.5 23.9 56.3 24.3 57.1 C 23.7 56.5 23.5 56.4 22.9 55.8 C 22.8 55.5 23.7 55.9 23.0 55.1 C 22.6 55.2 21.7 53.8 21.2 53.8 C 21.7 54.3 22.0 54.7 21.4 54.2 C 21.6 54.2 20.6 53.2 20.7 53.1 C 21.5 53.8 21.9 53.9 22.4 54.4 C 21.8 53.8 23.0 54.8 22.0 53.6 C 21.4 53.3 21.0 53.2 20.0 52.0 C 19.7 51.6 20.2 51.8 19.7 51.2 C 19.7 51.5 18.6 50.3 19.4 50.9 C 19.0 50.5 18.9 50.2 18.7 50.0 C 19.0 50.7 16.6 48.0 16.7 48.5 C 17.0 48.3 17.2 48.0 17.1 47.8 C 16.5 47.4 16.2 46.6 15.3 45.1 C 15.1 45.3 15.2 44.9 14.8 44.3 C 14.6 44.2 14.8 44.8 14.6 44.4 C 14.3 43.6 14.3 43.6 14.3 43.4 C 14.1 42.9 13.9 42.5 13.9 42.2 C 13.8 42.2 13.8 42.4 13.8 42.6 C 13.2 40.4 12.6 39.5 12.4 37.8 C 12.4 38.6 12.8 38.6 12.6 38.1 C 12.6 37.7 12.5 37.4 12.4 37.2 C 12.2 37.7 12.3 37.5 12.2 36.6 C 12.0 35.9 11.8 37.0 11.8 36.4 C 11.9 35.7 12.0 36.1 12.1 35.8 C 12.1 35.5 12.1 35.2 12.1 34.9 C 11.9 35.4 11.8 34.8 11.8 34.3 C 12.0 34.7 12.1 34.5 12.1 33.4 C 12.3 33.3 12.3 33.9 12.4 33.5 C 12.4 33.3 12.2 32.4 12.6 31.8 C 12.6 32.0 12.6 32.1 12.7 32.1 C 12.7 31.3 13.2 30.9 13.5 30.3 C 13.1 30.8 13.1 30.5 12.8 30.7 C 13.2 30.1 13.3 29.3 13.9 28.9 C 13.3 29.8 14.2 29.2 14.6 28.7 C 14.4 28.5 14.0 29.4 13.9 28.9 C 13.8 28.6 14.5 28.1 14.5 27.7 C 14.4 27.7 14.3 28.1 14.2 28.1 C 14.4 27.7 14.0 28.2 14.2 27.8 C 14.6 27.7 14.5 27.3 14.6 27.0 C 14.9 26.8 15.7 26.4 15.8 26.1 C 15.7 26.0 15.4 26.4 15.3 26.4 C 16.2 25.1 16.8 25.1 17.9 23.9 C 18.1 23.9 18.4 23.8 18.8 23.6 C 18.7 23.5 18.9 23.3 19.2 23.1 C 19.8 22.9 20.4 22.6 21.3 22.3 C 21.2 22.6 20.9 22.8 22.0 22.4 C 22.0 22.2 21.5 22.4 21.9 22.2 C 21.9 22.2 22.2 22.2 22.2 22.1 C 22.2 22.0 22.2 22.0 22.2 21.9 C 21.8 22.1 21.6 22.2 21.3 22.3 C 21.2 22.2 21.1 22.1 20.8 22.2 C 22.1 21.5 22.2 22.0 23.0 21.4 C 23.3 21.7 23.6 21.7 23.0 22.2 C 23.7 21.8 24.2 21.5 24.4 21.2 C 23.4 21.6 23.6 21.2 23.3 21.2 C 23.9 21.0 23.9 20.9 24.2 20.7 C 25.0 20.6 23.6 21.4 25.0 21.0 C 23.8 21.0 25.9 20.4 26.7 20.3 C 26.5 20.2 26.3 20.3 26.6 20.1 C 28.7 19.4 28.7 20.3 30.0 19.6 C 29.9 19.8 30.6 19.7 30.9 19.7 C 29.7 20.0 29.5 20.1 29.0 20.2 C 29.1 20.3 29.4 20.3 29.8 20.2 C 29.7 20.1 30.0 20.0 30.5 20.0 C 30.8 19.8 30.7 19.5 31.6 19.1 C 31.7 19.2 31.6 19.4 32.0 19.3 C 32.4 19.1 31.7 19.7 33.7 19.4 C 33.3 19.4 33.1 19.3 33.3 19.1 C 34.2 18.9 34.0 19.0 35.4 18.8 C 35.9 19.2 34.5 19.4 34.2 19.6 C 35.1 19.5 35.8 19.2 36.8 19.3 C 36.0 19.2 36.7 19.0 37.6 18.9 C 38.4 18.9 37.6 19.2 38.6 19.2 C 39.3 19.1 39.7 18.9 39.0 18.8 C 40.7 18.9 40.3 18.6 41.9 18.6 C 41.9 18.8 41.5 18.8 40.9 18.7 C 41.0 18.8 40.8 18.9 41.4 19.0 C 42.4 18.7 44.5 18.8 45.2 18.7 C 46.5 19.2 48.0 18.7 49.3 19.0 C 48.7 19.2 51.1 19.2 51.7 19.5 C 52.1 19.5 53.4 19.1 52.9 19.3 C 53.0 19.6 53.8 19.6 54.4 19.8 C 54.4 19.7 54.4 19.6 54.4 19.5 C 55.8 19.7 56.1 20.0 56.5 20.2 C 58.2 20.3 60.0 20.9 62.1 21.0 C 62.6 21.4 63.0 21.4 64.2 21.8 C 64.3 21.6 65.2 21.8 66.2 22.0 C 66.0 21.7 66.9 22.0 66.9 21.8 C 66.0 21.6 66.4 21.4 66.0 21.2 C 67.1 21.7 67.7 21.3 68.6 21.8 C 67.4 21.6 67.0 21.9 66.8 22.2 C 68.1 22.4 68.8 22.7 69.0 22.9 C 69.1 22.8 69.0 22.6 68.7 22.4 C 69.2 22.5 69.6 22.6 70.0 22.7 C 70.1 22.9 69.5 22.8 70.0 23.0 C 70.3 23.0 70.7 23.0 71.0 23.0 C 71.3 23.3 70.4 23.0 70.3 23.1 C 72.0 23.6 71.3 23.0 72.3 23.1 C 72.5 23.3 72.4 23.6 73.2 23.8 C 73.5 23.7 73.7 23.5 74.6 23.8 C 75.1 23.9 74.4 24.1 75.1 24.3 C 75.2 24.2 75.5 24.4 75.8 24.5 C 75.8 24.3 76.1 24.3 76.5 24.4 C 76.5 24.6 77.2 24.7 77.4 24.7 C 77.5 24.8 78.4 25.4 78.7 25.3 C 78.7 25.2 78.1 25.0 78.1 24.9 C 78.8 25.2 79.3 25.3 79.7 25.3 C 79.8 25.9 81.1 25.8 82.5 26.5 C 83.5 26.6 82.5 26.1 83.7 26.3 C 84.3 26.7 83.5 26.5 83.5 26.8 C 83.7 26.8 84.8 27.3 84.8 27.2 C 84.9 27.1 84.3 26.9 84.3 26.8 C 85.2 26.9 85.1 27.1 85.5 27.4 C 85.5 27.2 86.1 27.3 86.3 27.2 C 88.7 27.8 88.5 28.2 89.4 28.7 C 89.4 28.6 90.0 28.8 90.1 28.8 C 89.4 28.6 88.6 28.1 89.5 28.4 C 89.3 28.5 90.7 28.8 90.8 28.8 C 90.7 28.6 89.8 28.4 90.3 28.3 C 91.5 28.6 90.9 28.9 91.9 29.0 C 91.9 29.2 91.4 29.0 91.1 29.0 C 91.5 29.1 92.1 29.3 92.1 29.4 C 91.6 29.3 91.5 29.5 91.3 29.5 C 92.0 29.6 93.1 30.1 92.4 29.6 C 93.7 30.1 95.0 30.4 94.1 29.9 C 95.2 30.2 94.5 30.3 95.4 30.4 C 95.2 30.6 94.9 30.7 95.5 31.1 C 95.7 31.0 96.3 31.2 96.3 31.0 C 97.8 31.6 98.2 32.0 98.7 32.4 C 98.3 31.9 98.9 32.4 99.8 32.5 C 100.2 32.8 99.7 32.9 101.0 33.3 C 99.7 32.4 102.6 33.8 102.1 33.2 C 103.6 34.0 103.6 34.0 105.2 34.8 C 105.0 34.9 104.6 34.8 103.8 34.5 C 104.4 34.5 102.5 33.8 102.6 33.9 C 102.6 34.0 102.5 34.0 102.5 34.1 C 103.8 34.6 104.5 34.9 105.0 35.3 C 105.3 35.2 105.9 35.4 105.9 35.0 C 106.9 35.8 108.2 35.9 108.7 36.4 C 108.3 36.3 107.9 36.1 107.9 36.3 C 108.4 36.4 109.0 36.6 109.0 36.4 C 108.1 35.9 108.0 35.8 107.4 35.8 C 107.9 35.8 106.6 35.1 107.6 35.4 C 107.4 35.8 109.5 36.1 108.8 36.1 C 107.7 35.8 109.9 36.7 109.9 36.9 C 109.9 36.9 109.9 36.9 109.9 36.9 Z M 113.2 98.0 C 114.1 98.1 113.0 97.7 112.3 97.5 C 112.5 97.7 112.6 97.8 112.6 97.9 C 112.8 97.9 113.1 97.9 113.2 98.0 C 113.2 98.0 113.2 98.0 113.2 98.0 Z M 103.8 92.3 C 103.4 92.5 105.0 92.8 105.7 93.0 C 105.5 92.8 105.3 92.7 105.7 92.8 C 105.1 92.4 104.7 92.8 103.8 92.3 C 103.8 92.3 103.8 92.3 103.8 92.3 Z M 68.1 80.7 C 68.4 80.8 69.0 81.0 69.0 81.1 C 69.4 81.3 69.3 81.1 69.4 81.1 C 70.2 81.3 69.1 81.3 70.3 81.7 C 70.9 81.5 68.6 80.3 68.1 80.7 C 68.1 80.7 68.1 80.7 68.1 80.7 Z M 96.5 35.3 C 96.9 35.6 95.7 35.4 96.0 35.7 C 97.8 36.2 96.6 35.4 99.0 36.4 C 98.8 36.3 98.7 36.2 98.7 36.1 C 97.6 35.8 97.4 35.9 97.8 35.6 C 97.3 35.4 97.0 35.8 96.5 35.3 C 96.5 35.3 96.5 35.3 96.5 35.3 Z M 118.2 46.1 C 118.1 45.9 117.9 45.8 118.0 45.7 C 117.3 45.5 117.4 45.6 116.5 45.0 C 116.5 45.4 117.4 45.8 118.2 46.1 C 118.2 46.1 118.2 46.1 118.2 46.1 Z M 159.2 84.6 C 159.2 84.7 159.2 84.9 159.2 85.0 C 159.4 84.9 159.7 85.2 159.6 84.6 C 159.5 84.6 159.5 84.7 159.5 84.8 C 159.4 84.7 159.5 84.4 159.3 84.5 C 159.3 84.6 159.3 84.6 159.2 84.6 C 159.2 84.6 159.2 84.6 159.2 84.6 Z M 147.4 96.1 C 148.7 95.6 145.3 95.7 147.4 96.1 C 147.4 96.1 147.4 96.1 147.4 96.1 C 147.4 96.1 147.4 96.1 147.4 96.1 Z M 150.8 98.2 C 150.9 98.3 151.2 98.2 151.2 98.1 C 152.3 97.9 151.2 98.3 151.9 98.2 C 152.7 97.8 151.3 98.0 152.4 97.5 C 152.1 97.4 151.5 98.0 150.8 98.2 C 150.8 98.2 150.8 98.2 150.8 98.2 Z M 28.5 20.0 C 27.5 20.3 27.3 20.6 27.2 20.9 C 27.9 20.8 28.5 20.7 28.7 20.8 C 29.9 20.4 27.8 20.8 27.6 20.7 C 27.7 20.5 28.6 20.3 28.5 20.0 C 28.5 20.0 28.5 20.0 28.5 20.0 Z M 25.4 20.9 C 25.0 21.2 24.5 21.4 24.5 21.6 C 25.1 21.4 25.2 21.5 25.2 21.6 C 25.7 21.3 25.0 21.3 25.4 20.9 C 25.4 20.9 25.4 20.9 25.4 20.9 Z M 31.7 19.8 C 31.2 19.9 31.4 20.1 31.3 20.2 C 32.1 20.1 32.2 20.2 32.9 20.1 C 32.9 20.0 32.9 19.9 32.9 19.8 C 32.3 19.9 32.2 20.0 31.7 20.1 C 31.7 20.0 31.7 19.9 31.7 19.8 C 31.7 19.8 31.7 19.8 31.7 19.8 Z M 22.6 22.2 C 21.1 22.9 20.6 23.6 19.9 24.4 C 20.9 23.8 21.6 22.9 22.5 22.7 C 23.4 22.2 22.1 22.6 22.1 22.6 C 22.1 22.5 22.4 22.3 22.6 22.2 C 22.6 22.2 22.6 22.2 22.6 22.2 Z M 13.3 31.1 C 13.0 31.3 13.3 32.0 13.0 32.8 C 13.1 32.6 13.2 32.5 13.3 32.5 C 13.7 31.4 13.0 32.0 13.3 31.1 C 13.3 31.1 13.3 31.1 13.3 31.1 Z M 13.0 38.0 C 13.2 38.7 13.1 37.6 13.4 37.9 C 13.2 37.1 13.2 36.3 12.9 36.3 C 13.1 37.2 13.2 37.3 13.0 38.0 C 13.0 38.0 13.0 38.0 13.0 38.0 Z M 14.8 43.2 C 15.3 44.0 14.9 42.7 15.3 42.9 C 15.1 42.6 15.0 42.8 14.9 42.8 C 14.9 42.5 14.8 42.3 14.6 41.9 C 14.6 42.2 15.1 43.2 14.8 43.2 C 14.8 43.2 14.8 43.2 14.8 43.2 Z M 55.2 20.7 C 54.7 20.7 54.8 20.9 53.7 20.7 C 55.4 20.9 54.3 21.5 56.6 21.7 C 56.2 21.6 56.5 21.5 56.6 21.7 C 57.5 21.6 55.8 21.4 56.7 21.3 C 56.0 21.2 56.3 21.5 55.7 21.5 C 55.1 21.1 54.7 21.0 55.2 20.7 C 55.2 20.7 55.2 20.7 55.2 20.7 Z M 56.6 22.0 C 57.2 22.1 57.2 21.7 57.5 22.0 C 57.8 22.0 57.7 21.9 57.8 21.8 C 57.6 21.8 57.6 21.8 57.5 21.7 C 57.0 21.7 56.4 21.7 56.6 22.0 C 56.6 22.0 56.6 22.0 56.6 22.0 Z M 50.9 21.3 C 51.9 21.3 52.2 21.5 52.7 21.3 C 53.0 21.7 53.4 21.3 53.9 21.6 C 54.9 21.7 54.1 21.5 53.9 21.3 C 54.9 21.3 54.1 21.6 55.1 21.6 C 55.3 21.4 54.0 21.3 54.2 21.0 C 53.5 20.9 53.5 21.1 53.0 21.1 C 52.6 21.1 52.8 20.9 52.7 20.8 C 51.9 20.8 52.0 20.6 51.3 20.6 C 51.1 20.8 51.3 20.9 52.1 20.9 C 51.3 21.0 51.0 21.1 50.0 20.9 C 50.7 20.7 47.8 20.4 48.0 20.8 C 48.8 20.9 48.6 20.7 48.9 20.6 C 49.9 20.9 50.5 21.0 50.9 21.3 C 50.9 21.3 50.9 21.3 50.9 21.3 Z M 32.2 20.6 C 31.9 20.6 31.5 20.6 31.0 20.7 C 30.9 20.5 31.6 20.4 31.0 20.3 C 30.1 20.4 30.0 20.6 29.5 20.7 C 29.8 20.8 31.5 20.7 30.6 21.0 C 30.9 21.0 31.5 21.0 32.2 20.9 C 31.3 20.7 33.4 20.7 34.3 20.7 C 34.1 20.3 35.7 20.6 36.3 20.3 C 35.8 20.2 34.1 20.5 33.4 20.6 C 33.7 20.5 31.3 20.3 32.2 20.6 C 32.2 20.6 32.2 20.6 32.2 20.6 Z M 59.0 22.2 C 59.2 22.2 59.9 22.2 59.4 22.1 C 59.7 22.0 60.2 22.3 60.0 21.9 C 60.4 21.9 60.7 22.0 61.0 22.0 C 60.8 22.1 60.0 21.9 60.3 22.2 C 60.9 22.2 60.7 22.3 61.5 22.5 C 61.0 22.6 61.5 22.7 61.1 23.0 C 61.4 22.9 62.1 23.0 62.1 22.8 C 63.3 23.1 61.7 23.1 63.3 23.4 C 63.2 23.5 62.1 23.3 61.7 23.1 C 61.5 23.3 63.6 23.6 64.8 23.9 C 63.8 23.5 64.7 23.4 65.2 23.3 C 65.6 23.5 65.2 23.5 65.8 23.8 C 66.3 23.9 66.6 23.8 66.8 24.0 C 67.2 24.0 67.0 23.8 67.1 23.7 C 67.9 23.9 67.2 24.1 68.3 24.3 C 67.6 23.8 68.5 23.9 70.0 24.3 C 69.9 24.2 69.4 24.1 69.4 24.0 C 69.7 23.9 70.4 24.4 70.6 24.5 C 71.2 24.6 70.9 24.4 70.4 24.3 C 70.7 24.3 71.0 24.3 71.4 24.3 C 69.8 23.9 67.3 23.3 64.4 22.4 C 65.0 22.7 64.3 22.7 63.5 22.4 C 63.4 22.2 63.7 22.3 64.1 22.4 C 63.2 21.9 63.1 22.5 61.6 22.1 C 60.8 21.8 62.6 22.1 61.7 21.8 C 61.1 21.7 60.6 21.8 60.4 21.5 C 59.4 21.5 59.1 21.7 57.6 21.5 C 58.4 21.7 58.7 22.4 59.6 22.4 C 59.6 22.3 59.3 22.2 59.0 22.2 C 59.0 22.2 59.0 22.2 59.0 22.2 Z M 25.3 21.7 C 24.7 21.9 24.5 22.1 24.3 22.0 C 23.4 22.4 24.5 22.2 24.7 22.2 C 25.1 22.0 25.3 21.9 25.3 21.7 C 25.3 21.7 25.3 21.7 25.3 21.7 Z M 71.3 84.4 C 72.5 85.0 72.4 84.6 73.4 85.0 C 72.6 84.6 72.5 84.3 71.2 83.8 C 71.1 84.0 71.0 84.2 71.3 84.4 C 71.3 84.4 71.3 84.4 71.3 84.4 Z M 28.7 21.0 C 29.6 20.5 27.8 21.5 27.7 21.3 C 26.8 21.7 28.7 21.2 27.8 21.7 C 28.6 21.3 29.2 21.4 30.3 21.1 C 30.2 20.9 29.3 21.1 28.4 21.3 C 28.3 21.2 28.8 21.1 28.7 21.0 C 28.7 21.0 28.7 21.0 28.7 21.0 Z M 59.5 78.3 C 58.6 78.0 60.1 79.0 60.5 79.4 C 60.7 79.1 60.4 79.0 59.5 78.3 C 59.5 78.3 59.5 78.3 59.5 78.3 Z M 79.8 87.4 C 80.4 87.3 78.4 86.8 79.0 86.7 C 78.4 86.5 78.3 86.5 78.2 86.6 C 78.0 86.4 77.1 86.1 77.4 86.0 C 77.3 85.8 78.8 86.6 78.4 86.2 C 79.0 86.4 79.0 86.5 79.4 86.6 C 78.4 86.2 78.8 86.7 79.9 87.2 C 80.0 87.0 79.4 86.8 80.0 86.9 C 80.0 87.0 80.6 87.4 80.4 87.7 C 81.4 88.1 81.0 87.5 82.2 87.9 C 82.1 87.7 81.4 87.5 81.0 87.2 C 81.2 87.0 82.1 87.9 82.0 87.4 C 82.2 87.7 82.8 88.1 82.8 88.3 C 81.8 88.1 81.2 88.0 80.4 87.9 C 81.0 88.3 82.2 88.1 83.3 88.8 C 83.3 88.5 84.0 88.8 83.8 88.5 C 84.7 88.9 84.2 89.0 84.0 89.0 C 84.2 89.2 86.1 89.8 86.0 89.5 C 86.1 89.8 88.3 90.5 88.3 90.2 C 88.9 90.6 90.0 90.5 90.2 91.0 C 90.6 91.0 91.4 91.2 92.2 91.5 C 92.5 91.3 91.1 91.0 91.0 90.8 C 90.8 90.5 92.5 91.3 92.4 91.1 C 92.4 91.0 92.4 91.0 92.4 90.9 C 91.7 90.8 91.0 90.6 90.4 90.5 C 89.9 90.3 90.5 90.5 90.4 90.3 C 90.0 90.3 87.8 89.9 87.9 89.4 C 86.4 89.1 85.5 88.6 84.8 88.6 C 84.0 88.3 85.4 88.7 84.9 88.3 C 82.4 87.8 79.6 86.3 77.5 85.9 C 77.0 85.7 77.2 85.6 77.2 85.4 C 74.4 84.5 76.6 85.8 74.5 84.8 C 74.6 84.6 75.6 85.0 75.6 84.8 C 74.9 84.5 74.7 84.6 73.7 84.1 C 73.6 84.2 73.6 84.3 73.6 84.4 C 72.8 84.0 73.2 83.9 72.8 83.6 C 71.7 83.3 71.9 83.5 71.6 83.0 C 70.6 82.7 69.6 82.4 68.7 81.9 C 68.0 81.7 69.0 82.6 70.1 83.1 C 70.0 83.1 69.7 83.0 69.6 83.1 C 68.6 82.4 68.6 81.9 66.8 81.0 C 68.1 81.9 66.1 80.8 65.9 80.5 C 65.2 80.2 65.6 80.8 66.1 81.0 C 66.0 81.0 65.6 80.7 65.5 80.6 C 65.3 80.9 66.9 81.8 68.8 82.5 C 67.8 82.5 70.1 83.0 68.9 83.1 C 70.4 83.7 69.3 82.8 70.9 83.6 C 70.8 83.4 70.5 83.2 70.4 83.1 C 71.7 83.6 71.2 83.7 72.5 84.2 C 72.8 84.1 72.0 83.8 72.0 83.7 C 73.4 84.5 73.8 84.8 74.7 85.4 C 74.9 85.3 74.8 85.0 76.4 85.8 C 76.3 85.8 76.3 85.9 76.3 85.9 C 75.5 85.6 75.2 85.9 77.1 86.7 C 77.3 86.6 76.7 86.4 76.2 86.2 C 76.5 86.1 77.1 86.3 77.9 86.6 C 78.3 86.7 78.7 87.0 78.2 86.8 C 78.4 87.2 78.8 86.9 79.8 87.4 C 79.8 87.4 79.8 87.4 79.8 87.4 Z M 14.3 30.1 C 14.3 30.3 14.2 30.5 14.1 30.9 C 14.2 31.1 14.4 30.4 14.6 30.5 C 14.8 30.0 14.4 30.3 14.3 30.1 C 14.3 30.1 14.3 30.1 14.3 30.1 Z M 19.4 24.7 C 19.3 24.6 19.1 25.0 18.5 25.4 C 18.5 25.6 19.1 25.1 19.2 25.3 C 19.8 24.9 18.8 25.1 19.4 24.7 C 19.4 24.7 19.4 24.7 19.4 24.7 Z M 16.9 26.8 C 16.5 26.8 16.7 27.1 17.1 26.6 C 17.2 26.8 17.2 27.0 17.0 27.2 C 17.4 27.1 17.3 26.7 17.9 26.3 C 17.6 26.3 17.3 26.5 16.9 26.8 C 16.9 26.8 16.9 26.8 16.9 26.8 Z M 16.2 27.6 C 16.0 28.0 15.7 28.0 15.4 28.6 C 15.7 28.6 16.5 27.4 16.6 27.2 C 16.6 26.9 15.6 28.1 16.2 27.6 C 16.2 27.6 16.2 27.6 16.2 27.6 Z M 48.1 71.7 C 48.3 71.8 48.3 71.7 48.4 71.7 C 49.1 72.5 50.4 73.2 49.2 72.9 C 50.2 73.2 50.9 74.0 51.7 74.5 C 52.4 74.9 52.1 74.5 52.7 74.8 C 53.5 75.3 52.2 74.6 52.3 74.8 C 52.4 75.1 52.8 74.8 53.8 75.5 C 53.7 75.0 54.6 76.0 54.5 75.5 C 55.0 75.9 55.3 75.9 56.0 76.3 C 56.0 76.1 55.3 75.7 55.3 75.5 C 55.0 75.1 54.8 75.5 55.5 75.8 C 55.0 75.8 54.1 75.0 53.7 75.0 C 53.5 74.5 54.7 75.4 54.4 75.0 C 54.2 74.9 53.9 74.8 53.8 74.8 C 53.4 74.6 53.1 74.3 53.0 74.1 C 53.3 74.3 53.3 74.3 53.3 74.4 C 53.8 74.7 52.9 73.7 54.1 74.3 C 53.9 74.2 53.4 73.9 53.6 73.8 C 53.3 73.5 53.2 74.4 52.2 73.5 C 51.4 73.3 53.9 74.7 53.0 74.8 C 51.5 73.8 52.5 74.0 51.3 73.3 C 51.2 73.4 51.2 73.5 50.9 73.3 C 50.9 73.4 51.4 73.7 51.7 73.9 C 51.6 73.9 51.1 73.6 50.8 73.4 C 50.8 73.5 51.0 73.7 51.0 73.7 C 50.0 73.1 50.3 72.7 51.4 73.1 C 51.4 72.9 50.1 72.2 49.7 72.1 C 50.0 72.4 49.6 72.2 49.8 72.6 C 50.0 72.7 50.0 72.6 50.1 72.6 C 50.6 73.0 50.1 72.8 50.0 72.8 C 49.5 72.5 49.6 72.3 48.9 72.1 C 49.1 72.1 49.3 72.2 49.3 72.1 C 49.1 71.9 48.8 71.7 48.5 71.6 C 48.5 71.7 48.1 71.5 48.1 71.7 C 48.1 71.7 48.1 71.7 48.1 71.7 Z M 63.0 80.3 C 64.0 80.9 63.6 80.4 63.1 80.2 C 63.3 80.2 63.7 80.3 64.1 80.5 C 63.8 80.2 63.5 80.2 62.6 79.7 C 63.6 79.8 62.9 79.0 61.4 78.3 C 60.7 78.5 62.0 79.2 61.3 79.2 C 62.5 79.5 63.0 80.0 63.0 80.3 C 63.0 80.3 63.0 80.3 63.0 80.3 Z M 24.7 22.3 C 24.1 22.5 23.5 22.7 22.9 23.0 C 23.1 23.2 25.0 22.6 24.7 22.3 C 24.7 22.3 24.7 22.3 24.7 22.3 Z M 72.5 24.9 C 72.8 24.9 72.9 25.0 72.9 25.0 C 73.8 25.2 72.5 24.7 73.0 24.7 C 72.6 24.6 72.3 24.5 72.0 24.4 C 71.9 24.5 73.3 25.0 72.2 24.8 C 72.3 24.9 72.5 24.9 72.5 24.9 C 72.5 24.9 72.5 24.9 72.5 24.9 Z M 14.8 29.8 C 14.7 30.2 15.1 30.1 14.6 31.1 C 14.9 30.8 14.9 30.5 15.2 30.0 C 15.1 29.9 15.0 29.8 14.8 29.8 C 14.8 29.8 14.8 29.8 14.8 29.8 Z M 43.8 69.5 C 44.3 70.2 44.8 69.8 46.0 70.7 C 45.5 70.1 44.6 69.9 43.8 69.5 C 43.8 69.5 43.8 69.5 43.8 69.5 Z M 94.9 91.9 C 94.5 91.7 95.1 91.9 94.3 91.5 C 93.9 91.4 93.6 91.5 93.0 91.3 C 93.8 91.9 95.5 92.1 96.1 92.7 C 96.9 92.9 96.9 92.6 97.2 92.5 C 96.8 92.4 96.6 92.3 96.6 92.3 C 96.0 92.5 95.6 91.7 94.9 91.9 C 94.9 91.9 94.9 91.9 94.9 91.9 Z M 59.3 78.0 C 58.8 77.6 59.7 78.0 60.0 78.0 C 60.4 78.2 60.2 78.3 60.2 78.4 C 60.7 78.7 60.9 78.6 60.9 78.4 C 60.0 77.9 58.7 77.2 59.6 77.3 C 58.7 76.8 59.1 77.3 58.6 77.2 C 58.1 76.7 58.6 76.9 58.8 76.7 C 58.5 76.7 57.7 76.5 57.9 76.3 C 56.3 75.8 56.8 76.5 57.7 77.4 C 58.7 77.7 57.7 77.0 59.3 78.0 C 59.3 78.0 59.3 78.0 59.3 78.0 Z M 24.9 54.5 C 24.9 54.7 25.5 55.2 25.4 55.3 C 26.3 55.8 27.1 56.2 27.9 56.6 C 27.9 56.3 26.8 55.6 27.1 56.1 C 26.9 55.7 26.3 55.0 26.1 54.6 C 25.4 53.9 24.9 54.1 25.1 53.7 C 24.3 53.2 24.7 53.5 23.8 52.5 C 25.1 54.2 23.2 52.1 22.9 52.2 C 23.7 53.1 24.5 53.9 24.6 53.6 C 25.2 54.3 25.9 55.1 25.9 55.4 C 25.8 55.4 25.2 54.9 24.9 54.5 C 24.9 54.5 24.9 54.5 24.9 54.5 Z M 29.5 57.8 C 29.1 57.5 28.8 57.3 28.4 56.9 C 28.6 57.2 28.6 57.4 28.5 57.4 C 29.4 58.2 29.8 58.4 29.8 58.7 C 30.3 59.1 29.9 58.3 30.6 59.1 C 30.6 58.9 30.2 58.6 30.3 58.6 C 30.1 58.6 29.7 58.4 29.5 57.8 C 29.5 57.8 29.5 57.8 29.5 57.8 Z M 36.4 63.8 C 37.1 64.3 36.2 63.5 36.6 63.6 C 36.4 63.5 35.3 62.6 35.6 62.5 C 35.4 62.0 33.9 61.6 34.2 61.4 C 33.9 61.2 34.0 61.4 33.9 61.4 C 34.7 62.0 34.6 62.1 34.0 61.7 C 34.0 61.9 34.5 62.2 34.9 62.5 C 35.0 62.4 34.7 62.1 34.8 62.1 C 35.5 62.7 35.9 63.2 36.4 63.8 C 36.4 63.8 36.4 63.8 36.4 63.8 Z M 107.5 37.3 C 106.8 36.9 106.3 36.8 105.9 36.7 C 106.0 36.9 106.5 36.9 106.8 37.1 C 106.9 37.3 106.5 37.1 106.1 37.0 C 106.4 37.3 107.8 37.7 107.5 37.3 C 107.5 37.3 107.5 37.3 107.5 37.3 Z M 101.1 34.6 C 100.4 34.3 100.0 34.2 99.8 34.3 C 100.0 34.5 100.0 34.3 100.5 34.5 C 100.8 34.6 100.9 34.8 101.0 34.9 C 101.3 35.1 101.3 34.9 101.4 34.9 C 101.7 35.0 101.7 35.1 101.7 35.1 C 102.7 35.3 100.7 34.7 101.1 34.6 C 101.1 34.6 101.1 34.6 101.1 34.6 Z M 32.6 60.7 C 32.4 60.5 32.4 60.2 31.8 59.8 C 31.8 60.0 31.4 59.7 31.1 59.4 C 31.5 60.0 31.8 60.1 32.6 60.7 C 32.6 60.7 32.6 60.7 32.6 60.7 Z M 61.1 23.1 C 60.2 22.7 60.2 23.1 58.9 22.7 C 58.9 22.8 58.9 22.9 58.9 23.0 C 59.7 22.9 60.1 23.1 61.1 23.1 C 61.1 23.1 61.1 23.1 61.1 23.1 Z M 159.2 92.7 C 159.2 92.5 158.6 93.1 158.5 93.0 C 158.6 93.4 158.0 93.1 156.7 94.0 C 156.6 94.0 156.7 93.9 156.9 93.7 C 155.8 94.3 157.3 93.8 157.6 93.9 C 158.3 93.3 158.6 93.3 159.2 92.7 C 159.2 92.7 159.2 92.7 159.2 92.7 Z M 85.4 88.1 C 85.3 88.1 85.5 88.2 85.7 88.3 C 85.9 88.3 86.2 88.4 86.3 88.5 C 86.4 88.2 85.4 87.7 86.3 87.6 C 86.0 87.5 86.0 87.5 86.0 87.6 C 84.1 87.7 83.3 86.2 81.1 85.8 C 80.8 85.7 80.8 85.8 80.8 85.9 C 81.0 85.9 81.0 86.0 81.0 86.1 C 81.4 85.8 83.1 86.9 82.3 86.7 C 82.3 86.8 82.6 86.8 82.6 86.8 C 82.8 86.9 83.0 87.0 83.2 87.0 C 83.2 86.9 82.7 86.7 82.7 86.6 C 83.7 87.0 84.9 87.6 84.1 87.6 C 84.8 87.8 85.0 87.8 85.5 87.9 C 85.9 88.0 85.8 88.2 85.4 88.1 C 85.4 88.1 85.4 88.1 85.4 88.1 Z M 93.8 90.8 C 94.8 91.1 94.5 90.8 95.5 91.1 C 95.0 90.7 94.1 90.8 93.3 90.3 C 93.4 90.5 93.8 90.6 93.8 90.8 C 93.8 90.8 93.8 90.8 93.8 90.8 Z M 75.3 83.8 C 75.6 83.6 74.8 83.2 73.8 82.9 C 73.5 83.1 74.4 83.4 75.3 83.8 C 75.3 83.8 75.3 83.8 75.3 83.8 Z M 79.5 85.5 C 80.4 85.7 78.3 84.9 78.9 84.9 C 78.5 84.7 78.0 84.6 78.0 84.5 C 77.6 84.4 77.6 84.5 77.0 84.2 C 77.0 84.4 78.0 84.7 77.9 84.8 C 78.6 85.0 78.8 85.0 79.5 85.5 C 79.5 85.5 79.5 85.5 79.5 85.5 Z M 80.1 85.7 C 80.7 85.9 80.1 85.2 79.3 84.9 C 79.5 85.1 79.7 85.4 80.1 85.7 C 80.1 85.7 80.1 85.7 80.1 85.7 Z M 16.7 41.6 C 16.9 42.0 17.0 41.6 17.2 42.0 C 17.3 42.0 16.5 40.4 17.2 41.7 C 17.2 41.1 16.7 41.0 16.6 40.4 C 16.6 40.6 16.6 40.8 16.4 40.5 C 16.1 40.4 17.0 41.7 16.7 41.6 C 16.7 41.6 16.7 41.6 16.7 41.6 Z M 17.5 43.2 C 17.7 43.5 17.6 43.3 17.6 43.2 C 17.7 43.2 17.9 43.6 18.1 44.0 C 18.0 44.0 18.1 43.2 18.3 43.1 C 17.4 41.9 17.7 43.0 17.5 43.2 C 17.5 43.2 17.5 43.2 17.5 43.2 Z M 18.4 44.5 C 18.8 45.5 19.7 46.8 20.4 47.3 C 20.1 46.4 18.9 44.8 18.4 44.5 C 18.4 44.5 18.4 44.5 18.4 44.5 Z M 15.5 36.1 C 15.3 37.5 16.3 40.3 16.0 37.7 C 15.8 37.8 15.5 36.2 15.6 35.4 C 15.5 35.4 15.3 34.6 15.5 34.5 C 15.3 34.0 15.3 36.5 15.5 36.1 C 15.5 36.1 15.5 36.1 15.5 36.1 Z M 21.6 48.1 C 21.2 47.7 21.3 48.6 20.9 47.8 C 20.5 47.4 20.9 47.9 20.7 47.9 C 21.4 48.8 23.2 50.5 23.1 50.9 C 23.6 51.3 23.9 51.3 24.7 52.2 C 24.8 52.1 21.7 49.2 21.5 48.2 C 21.6 48.2 22.6 49.3 21.6 48.1 C 21.6 48.1 21.6 48.1 21.6 48.1 Z M 60.8 24.5 C 61.0 24.3 59.7 24.3 60.0 24.1 C 59.2 24.2 58.6 23.9 57.8 24.0 C 57.6 23.9 57.7 23.6 56.7 23.4 C 56.6 23.6 57.2 23.6 56.6 23.7 C 55.7 23.6 56.0 23.3 54.9 23.3 C 55.0 23.7 52.5 23.1 52.7 23.5 C 53.3 23.5 53.3 23.3 54.2 23.5 C 54.5 23.6 54.4 23.7 54.8 23.8 C 54.5 23.9 54.0 23.5 53.6 23.7 C 53.7 23.9 54.4 23.9 54.4 24.1 C 54.9 24.1 54.3 24.0 54.5 23.9 C 55.6 24.0 54.3 24.4 55.6 24.5 C 55.4 24.3 55.4 24.2 55.7 24.0 C 56.1 24.2 57.7 24.3 56.8 24.4 C 56.9 24.6 57.9 24.5 57.8 24.3 C 58.3 24.4 58.3 24.5 58.3 24.6 C 59.6 24.7 59.9 24.5 59.6 24.2 C 59.9 24.1 60.0 24.5 60.8 24.5 C 60.8 24.5 60.8 24.5 60.8 24.5 Z M 17.3 29.6 C 17.4 29.1 17.0 30.1 16.7 30.5 C 17.0 30.0 17.2 30.4 17.6 29.9 C 17.4 30.0 17.4 29.9 17.6 29.6 C 17.6 29.4 17.0 30.2 17.3 29.6 C 17.3 29.6 17.3 29.6 17.3 29.6 Z M 26.6 54.0 C 26.8 54.5 28.6 56.0 29.6 56.9 C 29.6 56.5 27.0 54.8 27.0 54.2 C 26.5 53.8 27.2 54.6 26.6 54.0 C 26.6 54.0 26.6 54.0 26.6 54.0 Z M 49.6 22.7 C 49.3 22.7 49.4 22.8 49.6 22.8 C 49.5 22.9 48.9 22.8 48.4 22.8 C 49.0 23.0 48.3 23.0 48.4 23.2 C 48.0 23.2 47.9 23.2 47.8 23.3 C 47.8 22.8 46.0 23.4 47.8 23.6 C 47.5 23.3 47.6 23.4 48.4 23.3 C 49.2 23.6 49.8 23.4 50.1 23.7 C 50.6 23.7 50.8 23.6 51.5 23.7 C 51.7 23.9 52.3 24.1 51.7 24.4 C 53.0 24.5 52.2 23.8 53.3 23.9 C 54.3 24.2 52.7 24.1 52.9 24.3 C 53.2 24.4 53.1 24.5 53.2 24.5 C 53.6 24.6 53.6 24.3 53.2 24.3 C 53.4 24.2 54.4 24.2 54.1 24.4 C 54.7 24.4 53.3 23.5 52.4 23.7 C 51.9 23.7 52.0 23.2 52.5 23.3 C 52.3 23.1 51.3 23.5 51.6 23.1 C 51.2 23.0 50.8 23.0 50.4 22.9 C 50.5 23.0 50.7 23.0 50.7 23.1 C 50.3 23.1 49.9 23.1 49.5 23.0 C 49.9 22.9 49.9 22.8 49.6 22.7 C 49.6 22.7 49.6 22.7 49.6 22.7 Z M 22.8 50.0 C 23.5 50.8 23.8 50.9 24.3 51.4 C 24.2 51.1 22.7 49.5 22.8 50.0 C 22.8 50.0 22.8 50.0 22.8 50.0 Z M 66.0 26.2 C 65.9 26.1 65.3 26.1 65.4 26.0 C 66.3 26.1 65.3 25.7 66.1 25.5 C 64.8 25.4 64.3 25.9 65.9 26.4 C 67.1 26.6 64.7 26.0 66.0 26.2 C 66.0 26.2 66.0 26.2 66.0 26.2 Z M 62.3 25.4 C 61.5 25.3 63.3 25.8 63.8 26.0 C 63.7 26.0 63.7 26.1 63.7 26.2 C 64.8 26.0 63.4 25.7 64.5 25.4 C 63.3 25.0 62.8 24.8 61.7 24.8 C 61.8 24.9 62.0 24.9 62.0 24.8 C 62.8 25.0 62.2 25.2 61.4 25.0 C 61.6 25.1 62.4 25.3 62.9 25.4 C 62.8 25.3 62.6 25.2 62.6 25.1 C 63.3 25.2 63.0 25.3 63.5 25.4 C 63.5 25.5 62.3 25.5 62.3 25.4 C 62.3 25.4 62.3 25.4 62.3 25.4 Z M 123.8 47.3 C 123.2 47.0 124.3 47.9 124.1 48.2 C 124.6 48.6 124.8 48.6 125.2 48.8 C 125.1 48.5 124.5 48.1 124.2 47.9 C 124.5 47.6 125.1 48.4 125.5 48.3 C 126.0 48.2 124.0 47.7 123.8 47.3 C 123.8 47.3 123.8 47.3 123.8 47.3 Z M 32.1 23.2 C 31.7 23.3 32.0 23.3 32.2 23.3 C 32.1 23.4 31.5 23.5 31.4 23.4 C 30.9 23.5 31.8 23.5 31.1 23.6 C 31.0 23.8 32.1 23.5 32.2 23.4 C 33.0 23.3 32.4 23.7 32.6 23.7 C 33.3 23.7 33.1 23.5 34.1 23.4 C 33.5 23.3 32.9 23.3 32.1 23.2 C 32.1 23.2 32.1 23.2 32.1 23.2 Z M 68.2 26.2 C 68.4 26.2 67.4 26.5 66.6 26.1 C 65.5 25.8 67.2 26.5 66.3 26.2 C 67.1 26.5 68.1 26.5 69.4 26.8 C 69.8 26.7 67.7 26.3 68.8 26.5 C 68.8 26.4 68.5 26.4 68.5 26.4 C 68.3 26.4 68.2 26.3 68.2 26.2 C 68.2 26.2 68.2 26.2 68.2 26.2 Z M 66.8 26.5 C 66.9 26.6 67.2 26.6 67.2 26.6 C 67.6 26.7 67.5 26.9 67.1 26.8 C 67.6 27.2 67.7 26.7 68.7 27.1 C 68.3 26.8 68.1 26.6 69.0 27.0 C 69.9 27.0 67.2 26.4 66.8 26.5 C 66.8 26.5 66.8 26.5 66.8 26.5 Z M 114.4 42.6 C 114.4 42.7 115.1 43.0 115.6 43.2 C 114.9 43.1 112.5 41.8 112.3 41.6 C 112.0 41.5 111.7 41.4 111.6 41.3 C 111.6 41.3 110.9 41.1 111.2 41.3 C 111.1 41.4 110.6 41.1 110.6 41.2 C 109.7 40.7 110.9 41.2 110.7 40.9 C 109.5 40.6 109.8 40.6 108.5 39.9 C 108.7 40.3 110.1 40.8 109.9 41.1 C 111.0 41.3 112.0 42.0 112.5 42.5 C 111.8 41.7 115.4 43.2 117.0 44.1 C 116.8 44.2 117.4 44.5 118.0 44.9 C 118.4 45.4 118.5 44.8 117.5 44.5 C 117.6 44.3 118.8 45.1 119.3 45.3 C 118.8 44.9 119.2 45.0 118.9 44.7 C 117.8 44.1 118.8 44.7 118.5 44.8 C 118.2 44.6 117.9 44.5 117.6 44.3 C 119.3 44.8 115.3 43.2 116.7 43.8 C 115.5 43.2 115.6 43.0 114.4 42.6 C 114.4 42.6 114.4 42.6 114.4 42.6 Z M 84.8 30.7 C 84.6 30.7 83.5 30.5 83.5 30.3 C 82.1 30.1 83.2 30.7 81.8 30.2 C 81.8 30.3 82.4 30.5 82.4 30.6 C 83.0 30.7 83.6 30.8 83.5 30.5 C 84.1 30.7 84.3 30.7 84.8 30.8 C 84.6 30.9 84.3 30.8 83.8 30.7 C 83.6 30.8 83.8 31.0 84.6 31.3 C 85.1 31.2 84.9 30.9 84.8 30.7 C 84.8 30.7 84.8 30.7 84.8 30.7 Z M 81.5 30.1 C 81.3 29.9 81.2 29.8 81.2 29.7 C 80.8 29.3 81.0 30.0 80.5 29.8 C 80.1 29.7 80.3 29.6 80.2 29.5 C 79.7 29.4 79.2 29.3 79.0 29.1 C 78.1 29.0 79.9 29.6 80.2 29.8 C 80.8 30.0 80.6 29.7 81.5 30.1 C 81.5 30.1 81.5 30.1 81.5 30.1 Z M 72.0 27.2 C 71.9 26.9 71.5 27.2 71.0 27.1 C 71.3 27.4 72.2 27.5 71.6 27.6 C 72.5 27.9 72.5 27.9 73.5 28.1 C 74.0 28.4 73.5 27.9 72.5 27.8 C 72.7 27.7 73.1 27.8 73.2 27.7 C 73.7 28.3 75.5 28.0 74.5 28.1 C 74.2 28.0 74.0 27.8 73.9 27.7 C 73.6 27.8 71.5 27.2 72.0 27.2 C 72.0 27.2 72.0 27.2 72.0 27.2 Z M 40.9 23.2 C 42.7 23.1 43.4 23.2 44.5 23.2 C 44.5 23.3 44.4 23.4 44.2 23.4 C 44.4 23.5 44.8 23.5 45.3 23.4 C 45.3 23.4 45.0 23.4 45.0 23.4 C 44.1 23.2 44.9 23.2 45.0 23.0 C 44.0 22.8 42.2 23.2 41.4 22.9 C 40.7 22.9 41.5 23.0 40.9 23.2 C 40.9 23.2 40.9 23.2 40.9 23.2 Z M 158.5 90.6 C 158.5 90.7 158.2 91.0 158.4 91.0 C 158.6 90.8 158.7 90.6 158.8 90.3 C 158.4 90.7 158.2 90.4 157.7 90.9 C 157.9 90.9 158.1 91.1 158.5 90.6 C 158.5 90.6 158.5 90.6 158.5 90.6 Z M 75.1 28.1 C 75.1 28.2 75.1 28.3 74.8 28.3 C 74.6 28.4 75.6 28.6 75.6 28.7 C 76.0 28.8 75.9 28.6 76.3 28.7 C 76.2 28.6 75.4 28.4 75.8 28.3 C 76.0 28.3 76.1 28.4 76.1 28.4 C 76.8 28.5 75.8 28.2 75.1 28.1 C 75.1 28.1 75.1 28.1 75.1 28.1 Z M 126.5 49.1 C 126.1 48.9 126.5 49.2 126.8 49.4 C 125.8 49.1 127.0 50.0 127.0 50.2 C 126.7 49.8 125.6 49.3 125.4 49.1 C 125.0 49.0 125.3 49.4 124.4 48.9 C 124.4 49.2 125.5 49.6 125.3 49.3 C 125.4 49.7 126.5 49.9 126.3 50.1 C 127.5 50.9 127.9 50.9 128.1 50.7 C 126.9 50.1 127.7 50.1 126.6 49.6 C 126.7 49.5 127.0 49.7 127.2 49.8 C 127.2 49.6 126.8 49.3 126.5 49.1 C 126.5 49.1 126.5 49.1 126.5 49.1 Z M 95.0 34.4 C 94.3 34.2 94.3 34.4 94.2 34.5 C 94.5 34.6 95.0 34.7 95.5 34.9 C 95.4 34.8 94.5 34.5 95.0 34.4 C 95.0 34.4 95.0 34.4 95.0 34.4 Z M 121.9 46.8 C 121.8 46.7 121.6 46.6 121.6 46.7 C 120.8 46.3 120.7 46.1 120.5 45.8 C 120.1 45.7 120.2 45.9 120.1 46.0 C 120.9 46.2 120.6 46.4 121.5 46.8 C 121.5 46.7 121.6 46.7 121.9 46.8 C 121.9 46.8 121.9 46.8 121.9 46.8 Z M 101.6 37.2 C 101.2 37.0 101.4 37.2 101.6 37.2 C 101.0 37.3 99.8 36.6 99.3 36.5 C 99.2 36.6 100.8 37.2 98.9 36.6 C 99.2 36.9 100.9 37.4 101.7 37.8 C 101.4 37.9 100.3 37.4 100.3 37.7 C 101.3 38.0 102.4 38.3 102.7 38.0 C 101.3 37.4 101.9 37.4 101.6 37.2 C 101.6 37.2 101.6 37.2 101.6 37.2 Z M 103.1 37.9 C 103.0 37.8 102.7 37.8 102.2 37.6 C 102.8 38.1 103.4 38.2 104.9 39.0 C 104.9 38.9 104.9 38.9 105.0 38.8 C 105.3 38.9 105.6 39.1 105.9 39.2 C 104.7 38.4 104.2 38.4 102.8 37.9 C 102.7 37.8 102.9 37.9 103.1 37.9 C 103.1 37.9 103.1 37.9 103.1 37.9 Z M 60.7 25.2 C 61.1 25.4 61.4 25.6 62.2 25.8 C 62.1 25.6 61.7 25.4 60.7 25.2 C 60.7 25.2 60.7 25.2 60.7 25.2 Z M 122.9 47.6 C 123.8 47.9 122.2 47.2 122.5 47.6 C 123.1 48.1 123.7 48.5 123.7 48.8 C 125.0 49.1 122.6 47.8 122.9 47.6 C 122.9 47.6 122.9 47.6 122.9 47.6 Z M 117.5 45.3 C 117.1 45.1 117.3 44.8 117.5 45.2 C 118.4 45.6 116.9 44.6 118.2 45.3 C 117.7 45.0 116.5 44.2 115.9 44.1 C 115.8 44.3 117.0 44.8 116.9 45.0 C 116.9 45.1 116.7 45.0 116.6 44.9 C 116.6 45.1 117.0 45.1 117.5 45.3 C 117.5 45.3 117.5 45.3 117.5 45.3 Z M 113.2 42.8 C 113.6 43.1 114.1 43.5 115.2 44.0 C 114.6 43.5 114.3 43.1 113.2 42.8 C 113.2 42.8 113.2 42.8 113.2 42.8 Z M 159.6 80.8 C 159.4 80.2 159.3 80.8 159.2 80.9 C 159.4 81.4 159.6 81.3 159.6 81.9 C 159.9 81.7 159.4 81.2 159.6 80.8 C 159.6 80.8 159.6 80.8 159.6 80.8 Z M 159.9 82.7 C 159.7 82.8 159.9 83.5 159.7 83.5 C 160.2 83.9 159.5 84.5 159.8 84.5 C 159.8 84.6 159.8 84.8 159.8 85.0 C 160.2 84.5 160.0 83.3 159.9 82.7 C 159.9 82.7 159.9 82.7 159.9 82.7 Z M 107.8 40.8 C 107.0 40.4 107.9 41.3 107.0 40.8 C 106.9 40.9 108.5 41.7 107.5 41.3 C 108.7 42.0 107.6 40.9 107.8 40.8 C 107.8 40.8 107.8 40.8 107.8 40.8 Z M 92.3 34.9 C 92.4 34.7 91.2 34.4 90.7 34.2 C 90.7 34.3 91.1 34.4 91.3 34.5 C 91.2 34.6 91.0 34.6 90.7 34.5 C 90.9 34.7 91.8 34.7 92.3 34.9 C 92.3 34.9 92.3 34.9 92.3 34.9 Z M 111.0 37.7 C 111.5 38.2 112.0 38.7 112.6 38.5 C 113.0 38.9 112.1 38.6 112.7 39.0 C 113.6 39.3 113.1 39.3 114.5 39.9 C 114.1 40.0 115.2 40.5 115.3 40.8 C 114.7 40.5 114.1 39.9 113.7 40.0 C 114.2 40.2 113.8 40.3 113.7 40.1 C 112.8 39.5 114.9 40.4 113.9 39.7 C 113.4 39.8 112.0 38.5 110.9 38.0 C 111.4 38.0 110.2 37.4 111.0 37.7 C 111.0 37.7 111.0 37.7 111.0 37.7 Z M 116.4 40.8 C 117.1 41.1 117.3 41.8 117.1 41.6 C 117.1 41.6 116.3 41.1 116.1 41.2 C 116.4 41.3 116.5 41.4 116.4 41.4 C 115.1 40.7 115.7 40.8 115.4 40.5 C 116.2 40.7 116.3 41.0 116.6 41.0 C 116.5 40.9 116.3 40.8 116.4 40.8 C 116.4 40.8 116.4 40.8 116.4 40.8 Z M 129.6 52.6 C 129.6 52.4 129.3 52.4 129.0 52.3 C 129.2 52.0 127.6 51.5 127.5 51.3 C 127.8 51.4 128.6 51.8 128.9 51.9 C 128.6 51.6 128.5 51.5 128.1 51.4 C 128.3 51.2 129.1 51.7 129.4 51.7 C 129.4 51.9 129.9 51.9 129.9 52.1 C 128.8 51.6 130.2 52.9 129.6 52.6 C 129.6 52.6 129.6 52.6 129.6 52.6 Z M 100.5 38.1 C 100.3 38.3 101.4 39.3 100.1 39.1 C 99.9 38.8 99.8 38.6 100.0 38.3 C 99.2 38.2 99.0 37.8 98.4 37.9 C 97.2 36.6 99.5 38.4 100.5 38.1 C 100.5 38.1 100.5 38.1 100.5 38.1 Z M 95.4 36.3 C 95.7 36.2 95.0 36.0 95.2 35.8 C 95.7 36.2 97.8 36.8 97.1 36.6 C 96.4 36.5 96.3 36.7 95.4 36.3 C 95.4 36.3 95.4 36.3 95.4 36.3 Z M 41.8 65.6 C 40.9 65.2 40.8 64.6 41.3 64.8 C 40.9 64.9 42.3 65.6 41.8 65.6 C 41.8 65.6 41.8 65.6 41.8 65.6 Z M 12.4 39.0 C 12.5 39.9 12.8 40.4 12.6 40.6 C 12.3 39.8 12.5 39.8 12.3 39.1 C 12.2 39.0 12.0 38.6 12.1 38.5 C 12.2 38.9 12.3 38.8 12.4 39.0 C 12.4 39.0 12.4 39.0 12.4 39.0 Z M 77.5 24.6 C 77.4 24.4 77.0 24.3 77.2 24.2 C 78.2 24.5 79.3 24.7 80.2 24.8 C 80.2 24.9 80.2 25.0 80.1 25.1 C 78.6 24.5 78.1 24.6 77.5 24.6 C 77.5 24.6 77.5 24.6 77.5 24.6 Z M 75.6 23.6 C 75.4 23.7 75.9 24.1 75.2 23.9 C 75.3 23.7 74.1 23.2 74.7 23.3 C 74.8 23.5 75.2 23.6 75.6 23.6 C 75.6 23.6 75.6 23.6 75.6 23.6 Z M 128.1 46.3 C 128.8 46.7 127.9 45.9 128.0 45.8 C 128.5 46.2 129.2 46.6 129.3 46.8 C 128.9 46.5 128.3 46.6 128.1 46.3 C 128.1 46.3 128.1 46.3 128.1 46.3 Z M 117.0 41.0 C 115.4 40.3 116.3 40.2 114.8 39.4 C 115.5 39.5 116.9 40.3 117.4 40.3 C 117.2 40.4 117.6 40.6 117.5 40.7 C 117.0 40.5 116.9 40.3 116.3 40.0 C 116.4 40.4 116.5 40.3 116.2 40.4 C 116.6 40.6 116.9 40.7 117.1 40.8 C 116.9 40.9 117.5 41.2 117.0 41.0 C 117.0 41.0 117.0 41.0 117.0 41.0 Z M 127.5 46.7 C 128.1 46.9 128.5 47.5 128.0 47.2 C 128.0 47.0 127.5 47.0 127.5 46.8 C 128.3 47.2 126.8 46.3 127.3 46.4 C 127.8 46.7 128.0 46.7 128.0 46.5 C 128.3 46.7 128.8 46.9 128.8 47.0 C 128.6 46.9 128.3 46.7 128.2 46.8 C 128.4 46.9 128.6 47.0 128.5 47.0 C 128.0 46.7 127.7 46.7 127.5 46.7 C 127.5 46.7 127.5 46.7 127.5 46.7 Z M 123.5 44.4 C 124.3 44.9 124.3 45.1 124.5 45.4 C 123.5 44.8 123.4 44.4 122.7 43.8 C 123.6 44.4 124.6 44.6 124.8 44.9 C 124.4 44.7 123.7 44.3 123.5 44.4 C 123.5 44.4 123.5 44.4 123.5 44.4 Z M 120.9 97.6 C 120.2 97.3 119.6 97.1 118.8 96.8 C 118.5 97.1 119.9 97.8 119.3 97.5 C 118.5 97.4 119.1 97.2 118.5 97.0 C 119.1 97.5 115.5 96.9 115.4 96.5 C 116.0 96.6 116.2 96.6 116.1 96.4 C 117.5 96.7 118.1 96.6 119.2 96.7 C 119.9 97.1 122.1 97.5 123.4 97.3 C 124.1 97.9 125.6 97.5 126.6 98.0 C 126.9 97.9 125.7 97.7 126.6 97.7 C 127.2 98.0 126.7 98.1 127.4 98.3 C 127.5 98.1 127.4 98.0 127.8 98.0 C 127.7 98.1 128.2 98.2 128.3 98.3 C 126.8 98.1 128.4 98.6 127.1 98.5 C 126.6 98.4 127.7 98.2 126.3 98.1 C 125.8 98.1 125.3 98.1 125.4 98.4 C 124.9 98.3 124.7 98.3 124.4 98.3 C 125.0 98.1 122.4 98.2 123.6 98.0 C 123.7 98.0 124.5 98.1 125.1 98.1 C 124.6 97.8 123.9 97.9 123.0 97.8 C 122.6 97.6 123.2 97.6 122.7 97.5 C 122.0 97.6 123.0 97.9 122.4 97.9 C 122.6 98.0 123.0 98.0 123.0 98.1 C 121.7 97.7 121.2 97.9 120.6 97.8 C 121.0 97.7 119.8 97.4 120.9 97.6 C 120.9 97.6 120.9 97.6 120.9 97.6 Z M 131.5 98.3 C 131.8 98.3 132.0 98.3 132.3 98.4 C 132.4 98.6 131.3 98.6 132.0 98.8 C 130.8 98.7 132.1 98.5 131.5 98.3 C 131.5 98.3 131.5 98.3 131.5 98.3 Z M 125.8 97.0 C 125.4 96.7 125.6 97.3 125.2 97.2 C 125.9 97.3 126.6 97.2 126.6 97.5 C 125.8 97.4 125.4 97.3 124.6 97.3 C 125.4 97.1 123.7 96.9 123.4 96.6 C 124.1 96.6 124.7 96.6 125.5 96.7 C 125.4 96.8 126.7 97.0 125.8 97.0 C 125.8 97.0 125.8 97.0 125.8 97.0 Z M 128.2 96.9 C 128.3 97.1 129.6 97.0 129.3 97.3 C 128.5 97.2 128.2 97.2 128.4 97.5 C 127.8 97.4 127.8 97.3 127.3 97.3 C 127.0 97.0 127.9 97.1 128.2 97.0 C 128.0 96.9 127.8 96.9 128.2 96.9 C 128.2 96.9 128.2 96.9 128.2 96.9 Z M 153.7 92.9 C 154.1 93.0 153.0 93.3 152.8 93.4 C 153.2 93.5 153.1 93.6 152.5 93.9 C 152.6 93.5 151.6 94.0 150.9 93.9 C 150.8 94.2 151.7 94.0 150.7 94.3 C 149.9 94.5 149.3 94.8 148.0 95.1 C 147.6 94.9 148.2 94.8 148.5 94.6 C 147.6 94.8 147.9 94.6 147.2 94.7 C 147.3 94.8 146.8 95.0 146.5 94.9 C 147.7 94.6 144.9 94.9 146.1 94.6 C 146.2 94.6 146.5 94.5 146.8 94.4 C 146.5 94.8 148.1 94.4 148.5 94.5 C 149.0 93.8 150.6 93.6 152.2 93.3 C 152.3 93.3 151.9 93.6 152.3 93.5 C 152.3 93.4 152.8 93.2 153.0 93.0 C 153.0 93.2 153.2 93.1 153.5 93.0 C 153.6 93.0 153.6 92.9 153.7 92.9 C 153.7 92.9 153.7 92.9 153.7 92.9 Z M 69.7 79.5 C 70.0 79.2 67.9 78.5 67.3 78.3 C 67.6 78.0 71.0 79.7 69.7 79.5 C 69.7 79.5 69.7 79.5 69.7 79.5 Z M 82.1 84.2 C 81.6 84.0 81.9 84.4 81.4 84.2 C 81.4 84.0 80.1 84.0 80.1 83.7 C 80.8 83.7 81.1 83.9 82.1 84.2 C 82.1 84.2 82.1 84.2 82.1 84.2 Z M 93.6 88.3 C 92.6 88.0 94.0 88.5 93.8 88.6 C 93.0 88.3 92.2 88.0 92.3 87.9 C 93.0 88.2 93.6 88.0 93.6 88.3 C 93.6 88.3 93.6 88.3 93.6 88.3 Z M 76.5 81.8 C 75.8 81.4 77.1 81.6 77.2 81.8 C 76.4 81.5 77.7 82.2 78.4 82.5 C 78.3 82.7 78.0 82.5 78.2 82.9 C 77.1 82.6 78.1 82.6 77.4 82.3 C 76.8 82.3 77.4 82.4 77.2 82.6 C 76.9 82.5 76.6 82.4 76.3 82.2 C 76.4 82.1 76.4 82.0 76.5 81.9 C 76.8 82.0 77.2 82.1 77.1 82.0 C 76.8 81.8 76.8 81.9 76.5 81.8 C 76.5 81.8 76.5 81.8 76.5 81.8 Z M 135.7 95.2 C 134.9 95.3 135.6 95.4 136.1 95.4 C 136.2 95.3 136.7 94.8 137.5 95.1 C 135.7 95.3 138.0 95.4 137.0 95.6 C 136.6 95.3 135.6 95.6 134.7 95.6 C 134.3 95.4 135.3 95.0 135.7 95.2 C 135.7 95.2 135.7 95.2 135.7 95.2 Z M 138.8 95.4 C 138.7 95.3 138.4 95.3 137.9 95.3 C 138.4 95.1 137.7 95.1 138.3 95.0 C 138.3 95.1 140.5 95.1 139.2 95.2 C 138.0 95.1 139.5 95.3 140.0 95.3 C 139.5 95.3 138.4 95.7 138.3 95.5 C 138.6 95.5 138.9 95.4 138.8 95.4 C 138.8 95.4 138.8 95.4 138.8 95.4 Z M 157.1 90.0 C 157.0 89.8 156.8 90.0 156.6 90.0 C 157.4 89.4 157.8 88.9 158.1 88.6 C 157.9 88.9 158.0 89.0 158.2 88.9 C 157.9 89.2 157.9 89.3 157.7 89.4 C 157.8 89.0 157.5 89.6 157.1 90.0 C 157.1 90.0 157.1 90.0 157.1 90.0 Z M 157.1 90.0 " fill="#000000"></path><image xlink:href="B8E645EC83B385724E2939478DAAFACB.png" width="102.00" height="55.00" transform="matrix(1.00, 0.00, -0.00, -1.00, 41.0, 82.0)"></image><g><clipPath id="clip-115"><path d="M 6.4 56.7 L 151.6 113.1 L 171.0 63.0 L 25.8 6.6 Z M 6.4 56.7 "></path></clipPath><g clip-path="url(#clip-115)"><text xml:space="preserve" font-family="Chalkduster" font-size="18.0" fill="#000000" transform="matrix(0.93, 0.36, 0.36, -0.93, 46.0, 33.8)">A</text><text xml:space="preserve" font-family="Chalkduster" font-size="18.0" fill="#000000" transform="matrix(0.93, 0.36, 0.36, -0.93, 58.4, 38.6)">s</text><text xml:space="preserve" font-family="Chalkduster" font-size="18.0" fill="#000000" transform="matrix(0.93, 0.36, 0.36, -0.93, 66.9, 41.9)">s</text><text xml:space="preserve" font-family="Chalkduster" font-size="18.0" fill="#000000" transform="matrix(0.93, 0.36, 0.36, -0.93, 75.3, 45.2)">i</text><text xml:space="preserve" font-family="Chalkduster" font-size="18.0" fill="#000000" transform="matrix(0.93, 0.36, 0.36, -0.93, 82.0, 47.8)">s</text><text xml:space="preserve" font-family="Chalkduster" font-size="18.0" fill="#000000" transform="matrix(0.93, 0.36, 0.36, -0.93, 91.0, 51.3)">t</text><text xml:space="preserve" font-family="Chalkduster" font-size="18.0" fill="#000000" transform="matrix(0.93, 0.36, 0.36, -0.93, 98.5, 54.2)">a</text><text xml:space="preserve" font-family="Chalkduster" font-size="18.0" fill="#000000" transform="matrix(0.93, 0.36, 0.36, -0.93, 110.0, 58.7)">n</text><text xml:space="preserve" font-family="Chalkduster" font-size="18.0" fill="#000000" transform="matrix(0.93, 0.36, 0.36, -0.93, 121.7, 63.2)">t</text><text xml:space="preserve" font-family="Chalkduster" font-size="18.0" fill="#000000" transform="matrix(0.93, 0.36, 0.36, -0.93, 129.4, 66.2)">s</text></g></g></g></svg>