<?xml version="1.0" encoding="UTF-8" standalone="no"?><svg xmlns="http://www.w3.org/2000/svg" xmlns:xlink="http://www.w3.org/1999/xlink" clip-rule="evenodd" stroke-miterlimit="4.00" viewBox="0 0 116 7"><desc>SVG generated by Keynote</desc><defs></defs><g transform="matrix(1.00, 0.00, -0.00, -1.00, 0.0, 7.0)"><path d="M 52.7 5.1 C 52.8 5.1 52.9 5.1 53.0 5.1 C 52.9 5.1 52.9 5.0 52.9 5.0 C 52.8 5.0 52.6 5.0 52.4 5.0 C 52.4 5.0 52.5 5.0 52.6 5.0 C 52.7 5.0 52.7 5.1 52.7 5.1 C 52.7 5.1 52.7 5.1 52.7 5.1 Z M 81.0 4.8 C 80.8 4.8 81.0 5.0 81.1 5.0 C 81.1 4.9 81.1 4.9 81.2 4.9 C 81.2 5.0 81.0 5.1 80.9 5.1 C 80.3 5.0 80.7 4.8 81.0 4.8 C 81.0 4.8 81.0 4.8 81.0 4.8 Z M 107.6 4.8 C 108.1 4.8 107.6 4.6 107.5 4.6 C 107.8 4.6 107.6 4.4 107.8 4.4 C 107.9 4.4 108.0 4.5 108.0 4.5 C 107.9 4.5 107.8 4.5 107.7 4.6 C 107.9 4.6 108.1 4.5 108.1 4.6 C 107.8 4.6 108.1 4.7 108.1 4.8 C 107.8 4.8 107.7 4.9 107.6 4.8 C 107.6 4.8 107.6 4.8 107.6 4.8 Z M 21.0 4.5 C 20.9 4.5 20.8 4.5 20.8 4.4 C 21.0 4.4 21.1 4.5 21.1 4.5 C 21.1 4.4 21.1 4.4 21.2 4.4 C 21.4 4.5 21.3 4.6 21.2 4.7 C 21.2 4.6 20.8 4.6 21.0 4.5 C 21.0 4.5 21.0 4.5 21.0 4.5 Z M 32.3 4.3 C 32.7 4.4 32.3 4.1 32.7 4.2 C 32.7 4.3 32.7 4.4 32.5 4.4 C 32.5 4.4 32.3 4.4 32.3 4.3 C 32.3 4.3 32.3 4.3 32.3 4.3 Z M 96.4 3.8 C 96.4 3.9 96.7 3.9 96.6 4.0 C 96.5 4.0 96.3 4.0 96.2 4.0 C 96.2 3.9 96.2 3.9 96.4 3.8 C 96.4 3.8 96.4 3.8 96.4 3.8 Z M 110.6 3.6 C 111.1 3.7 111.6 3.6 111.4 3.7 C 111.6 3.8 111.1 4.0 111.1 3.9 C 111.1 3.7 110.3 3.6 110.6 3.6 C 110.6 3.6 110.6 3.6 110.6 3.6 Z M 83.3 2.8 C 83.7 2.9 83.6 2.5 83.9 2.7 C 83.8 2.7 83.8 2.7 83.8 2.8 C 83.8 2.8 83.9 2.8 83.9 2.8 C 83.7 2.8 83.5 2.9 83.3 2.8 C 83.3 2.8 83.3 2.8 83.3 2.8 Z M 45.9 4.8 C 45.8 4.9 45.8 4.9 45.8 4.9 C 45.5 4.9 45.5 5.0 45.3 4.9 C 45.3 4.8 45.6 4.8 45.8 4.8 C 45.8 4.8 45.9 4.8 45.9 4.8 C 45.9 4.8 45.9 4.8 45.9 4.8 Z M 37.2 4.4 C 37.2 4.5 37.4 4.5 37.1 4.6 C 36.7 4.4 37.0 4.3 37.4 4.2 C 37.4 4.2 37.4 4.1 37.4 4.1 C 37.2 4.1 37.1 4.1 37.1 4.0 C 37.0 4.2 36.8 3.9 36.3 4.0 C 36.5 3.9 36.2 3.8 36.6 3.8 C 36.5 3.7 36.7 3.7 36.7 3.6 C 36.5 3.7 36.2 3.7 36.3 3.8 C 36.1 3.8 36.0 3.8 35.9 3.8 C 35.7 3.7 36.2 3.8 36.1 3.6 C 36.0 3.6 35.9 3.6 35.9 3.6 C 35.8 3.7 35.9 3.7 35.8 3.7 C 35.4 3.7 35.8 3.6 35.4 3.6 C 35.3 3.6 35.5 3.7 35.5 3.7 C 35.3 3.8 35.3 3.7 35.1 3.8 C 35.0 3.7 35.2 3.7 35.1 3.6 C 34.9 3.8 34.7 3.5 34.4 3.7 C 34.6 3.9 34.3 3.6 34.1 3.9 C 34.0 3.8 34.2 3.7 34.0 3.6 C 34.0 4.0 33.2 3.9 33.9 4.1 C 33.5 4.1 33.4 4.4 33.7 4.4 C 33.0 4.3 33.2 4.5 33.0 4.5 C 32.7 4.5 33.1 4.5 33.0 4.4 C 33.2 4.4 33.2 4.3 33.4 4.4 C 33.4 4.3 33.4 4.3 33.5 4.2 C 33.2 4.3 32.9 4.2 33.1 4.0 C 33.2 4.0 33.1 4.2 33.3 4.2 C 33.2 4.0 33.5 4.2 33.5 4.1 C 33.4 3.9 33.7 3.8 33.4 3.8 C 33.4 3.8 33.4 3.9 33.4 4.0 C 33.3 4.0 33.2 4.0 33.1 4.0 C 33.0 3.8 33.1 3.8 33.0 3.7 C 32.8 3.7 32.7 3.8 32.7 3.8 C 32.9 3.8 33.1 3.9 32.8 4.0 C 32.9 3.7 32.3 3.9 32.6 3.8 C 32.2 3.7 32.0 3.9 32.0 3.7 C 31.8 3.7 31.9 3.9 31.7 3.8 C 31.3 3.7 31.4 3.9 30.9 3.8 C 30.8 4.0 30.8 3.8 30.7 3.8 C 30.7 3.8 30.7 3.9 30.7 4.0 C 30.5 3.9 30.1 3.8 29.7 3.9 C 29.6 3.9 29.7 3.8 29.4 3.8 C 29.1 4.0 28.7 3.8 28.4 4.0 C 28.4 3.9 28.1 3.9 28.0 3.9 C 27.9 3.9 28.1 3.7 27.9 3.7 C 27.7 3.8 28.0 3.9 27.7 3.9 C 27.7 3.8 27.4 4.0 27.4 3.9 C 27.5 3.8 27.6 3.8 27.7 3.8 C 27.6 3.8 27.6 3.7 27.5 3.7 C 27.5 3.9 27.3 3.7 27.2 3.7 C 27.2 3.8 27.2 3.8 27.1 3.8 C 26.9 3.8 26.8 3.9 26.7 3.9 C 26.5 3.8 26.8 3.8 26.6 3.8 C 26.5 4.1 26.3 3.7 25.8 3.9 C 25.7 3.8 25.5 3.8 25.2 3.8 C 25.2 3.9 25.5 3.8 25.5 3.9 C 25.1 3.9 25.6 4.0 25.3 4.0 C 24.7 3.9 24.3 3.9 23.6 3.8 C 23.6 3.9 23.1 4.0 23.1 3.9 C 23.3 3.9 22.8 3.8 22.6 3.8 C 22.6 4.0 22.2 4.2 22.2 4.2 C 22.1 4.1 22.2 4.1 22.1 4.0 C 21.7 3.9 21.6 4.1 21.3 3.9 C 21.3 4.0 21.2 4.0 21.0 4.0 C 21.1 3.9 21.1 3.9 21.2 3.8 C 21.0 3.8 21.0 3.8 20.8 3.8 C 20.7 4.1 20.4 3.7 20.2 4.0 C 19.9 4.0 20.0 3.9 19.7 3.9 C 19.7 4.0 19.7 4.0 19.6 4.0 C 19.8 4.0 19.9 3.9 20.0 4.0 C 19.6 4.1 20.8 4.4 20.1 4.5 C 20.1 4.5 20.2 4.4 20.0 4.4 C 19.7 4.4 19.9 4.5 20.0 4.5 C 19.8 4.6 19.5 4.5 19.7 4.7 C 19.2 4.7 19.5 4.6 19.3 4.6 C 18.3 4.7 17.1 4.7 15.8 4.6 C 15.7 4.7 15.0 4.6 14.8 4.5 C 14.4 4.6 14.0 4.6 13.9 4.5 C 13.8 4.6 13.4 4.4 13.4 4.5 C 13.5 4.5 13.6 4.6 13.5 4.6 C 12.9 4.5 12.1 4.5 11.8 4.6 C 11.6 4.4 11.2 4.5 11.0 4.6 C 10.9 4.5 11.1 4.5 11.0 4.4 C 10.9 4.5 10.4 4.6 10.3 4.5 C 10.4 4.5 10.6 4.4 10.4 4.4 C 10.4 4.4 10.1 4.4 10.2 4.5 C 9.8 4.5 9.6 4.5 9.4 4.5 C 9.6 4.5 9.7 4.4 9.8 4.3 C 9.6 4.4 9.4 4.4 9.3 4.3 C 9.3 4.5 9.0 4.4 8.7 4.5 C 8.6 4.4 8.5 4.4 8.3 4.4 C 8.1 4.5 8.7 4.5 8.4 4.5 C 8.4 4.5 8.1 4.4 8.2 4.5 C 7.8 4.5 7.7 4.6 7.4 4.4 C 7.7 4.5 7.5 4.3 7.4 4.3 C 7.3 4.3 7.2 4.3 7.2 4.3 C 7.2 4.4 7.4 4.4 7.4 4.4 C 7.1 4.3 7.1 4.6 7.0 4.4 C 7.1 4.4 7.1 4.4 7.0 4.4 C 7.0 4.6 6.2 4.4 6.5 4.3 C 6.5 4.4 6.8 4.4 6.8 4.3 C 6.7 4.3 6.3 4.3 6.4 4.2 C 6.6 4.2 6.6 4.3 6.9 4.2 C 6.9 4.2 7.1 4.1 7.2 4.1 C 6.7 4.1 6.6 4.2 6.6 4.1 C 6.4 4.1 6.5 4.2 6.2 4.2 C 5.7 4.2 6.1 4.0 6.0 4.0 C 5.6 4.1 5.7 4.2 5.9 4.4 C 5.6 4.4 5.5 4.4 5.1 4.4 C 5.1 4.3 5.2 4.3 5.3 4.2 C 5.3 4.3 5.6 4.4 5.6 4.3 C 5.6 4.1 5.3 4.0 4.9 4.0 C 5.0 4.2 5.0 4.1 4.6 4.1 C 4.7 4.3 4.4 4.1 4.4 4.2 C 4.4 4.2 4.6 4.2 4.7 4.2 C 4.7 4.3 4.6 4.3 4.5 4.4 C 4.4 4.3 4.3 4.4 4.1 4.3 C 4.1 4.2 4.3 4.2 4.3 4.1 C 4.2 4.1 4.1 4.2 4.0 4.2 C 3.9 4.1 3.9 3.9 3.9 3.8 C 4.1 3.7 4.3 3.7 4.1 3.6 C 4.7 3.6 4.1 3.8 4.3 3.8 C 4.5 3.7 4.4 3.9 4.8 3.9 C 4.9 3.9 4.9 3.8 5.0 3.8 C 5.0 3.8 4.7 3.6 5.0 3.6 C 5.1 3.7 5.2 3.8 5.4 3.8 C 5.4 3.7 5.0 3.7 5.4 3.7 C 5.6 3.7 5.4 3.9 5.7 3.8 C 5.7 3.8 5.8 3.8 5.8 3.8 C 5.4 3.8 5.9 3.7 5.6 3.6 C 5.9 3.5 5.7 3.7 5.9 3.7 C 5.9 3.6 6.3 3.8 6.3 3.6 C 6.1 3.7 5.8 3.7 5.9 3.6 C 6.1 3.6 7.4 3.5 6.9 3.7 C 7.1 3.6 7.9 3.4 7.9 3.5 C 7.6 3.5 7.6 3.6 7.6 3.7 C 8.1 3.5 8.3 3.6 8.9 3.5 C 8.3 3.5 8.7 3.3 8.4 3.2 C 8.2 3.2 8.0 3.1 8.0 3.2 C 8.0 3.3 8.3 3.3 8.4 3.2 C 8.4 3.3 8.4 3.4 8.4 3.5 C 7.7 3.4 7.4 3.5 7.1 3.5 C 7.3 3.5 6.6 3.3 6.9 3.3 C 7.0 3.4 7.3 3.4 7.6 3.4 C 7.6 3.4 7.6 3.3 7.6 3.3 C 7.7 3.3 7.9 3.3 7.9 3.2 C 7.5 3.3 7.3 3.1 7.1 3.2 C 7.1 3.2 7.1 3.2 7.1 3.2 C 7.0 3.2 7.0 3.2 7.0 3.1 C 7.1 3.1 7.3 3.1 7.3 3.1 C 7.0 3.1 7.0 2.9 6.7 2.9 C 6.8 2.8 6.4 2.6 6.8 2.6 C 6.9 2.7 7.1 2.7 7.1 2.8 C 7.2 2.9 7.5 2.8 7.6 2.8 C 7.5 2.7 7.2 2.6 7.2 2.5 C 7.4 2.5 7.6 2.5 7.7 2.6 C 7.3 2.6 7.9 2.7 8.1 2.8 C 8.0 2.7 7.9 2.7 7.9 2.6 C 8.2 2.6 8.4 2.7 8.4 2.6 C 8.8 2.5 8.7 2.6 9.0 2.6 C 8.8 2.5 9.2 2.6 9.0 2.4 C 9.4 2.4 9.1 2.6 9.3 2.6 C 9.4 2.6 9.4 2.5 9.6 2.5 C 9.8 2.6 10.2 2.6 10.3 2.7 C 10.5 2.7 10.5 2.8 10.7 2.8 C 10.7 2.7 10.8 2.7 10.9 2.6 C 10.9 2.7 11.0 2.7 11.1 2.7 C 10.6 2.5 10.7 2.5 10.2 2.4 C 10.1 2.4 10.1 2.4 10.2 2.5 C 9.8 2.5 9.7 2.4 9.4 2.4 C 9.3 2.3 9.3 2.2 9.0 2.3 C 9.0 2.2 9.0 2.1 9.1 2.1 C 9.2 2.2 9.4 2.2 9.7 2.2 C 9.7 2.2 9.7 2.1 9.8 2.1 C 9.9 2.2 10.0 2.2 10.2 2.2 C 10.2 2.2 10.1 2.3 10.1 2.3 C 10.6 2.3 10.4 2.2 10.8 2.2 C 10.7 2.2 10.5 2.2 10.7 2.1 C 11.0 2.1 11.1 2.1 11.3 2.2 C 11.3 2.1 11.3 2.1 11.4 2.1 C 11.6 2.2 10.8 2.3 11.3 2.5 C 11.3 2.4 11.7 2.4 11.8 2.5 C 11.6 2.6 11.4 2.4 11.4 2.5 C 12.1 2.5 11.4 2.7 12.2 2.8 C 12.2 2.7 12.2 2.7 12.2 2.6 C 11.9 2.6 11.8 2.5 11.9 2.4 C 11.6 2.4 11.5 2.2 11.3 2.3 C 11.4 2.1 11.5 2.3 11.8 2.3 C 11.8 2.2 11.5 2.2 11.5 2.1 C 12.1 2.2 12.2 2.0 12.9 2.2 C 12.7 2.1 13.2 2.2 13.2 2.1 C 12.6 2.1 12.8 1.8 12.8 1.7 C 12.4 1.7 12.6 2.0 12.4 2.0 C 12.3 1.9 12.3 1.9 12.4 1.7 C 12.7 1.7 12.6 1.7 12.9 1.6 C 13.1 1.7 13.2 2.0 13.0 2.0 C 13.0 2.0 13.4 2.0 13.5 2.0 C 13.1 2.0 13.5 2.1 13.3 2.2 C 13.6 2.2 14.1 2.1 14.5 2.2 C 14.4 2.1 14.6 2.1 14.6 2.0 C 14.2 2.2 14.1 1.9 13.8 1.9 C 13.9 1.9 13.8 1.8 13.8 1.8 C 14.1 1.8 14.3 1.7 14.6 1.8 C 14.6 1.8 14.6 1.8 14.6 1.7 C 15.0 1.8 14.9 1.8 15.3 1.7 C 15.4 1.8 15.2 2.0 15.2 2.1 C 15.3 2.0 15.9 2.1 15.6 1.9 C 15.9 1.9 15.8 2.1 16.1 2.1 C 16.2 2.0 15.8 2.0 16.0 1.8 C 16.3 1.8 16.1 1.9 16.4 1.8 C 16.4 1.9 16.4 2.1 16.6 2.0 C 16.4 2.0 16.7 2.0 16.7 1.9 C 16.6 1.9 16.5 1.9 16.4 1.8 C 16.9 1.9 17.0 1.9 17.4 1.8 C 17.3 2.0 17.5 2.0 17.2 2.1 C 17.5 2.0 17.8 2.2 17.9 2.1 C 17.8 2.0 17.5 2.0 17.4 2.0 C 18.2 1.9 18.7 1.8 19.3 2.0 C 19.2 2.0 19.1 2.0 19.0 2.0 C 19.1 2.0 19.2 2.0 19.2 2.0 C 19.0 2.0 18.8 2.0 18.6 2.1 C 18.4 2.0 18.8 2.0 18.5 2.0 C 18.5 2.0 18.1 2.0 18.2 2.1 C 18.6 2.0 19.0 2.1 19.1 2.3 C 19.5 2.1 19.2 2.1 19.5 1.9 C 19.5 2.0 19.6 2.0 19.7 2.0 C 19.6 1.8 20.1 1.9 20.1 1.9 C 20.0 2.0 19.3 2.1 19.6 2.2 C 19.5 1.9 20.4 2.3 20.2 2.1 C 20.7 2.1 20.5 2.2 20.7 2.1 C 20.7 2.1 20.7 2.2 20.8 2.2 C 20.9 2.2 21.0 2.2 21.0 2.1 C 20.4 2.1 20.6 1.9 20.2 1.9 C 20.3 1.9 20.4 1.9 20.3 1.8 C 20.3 1.8 20.3 1.8 20.4 1.8 C 20.5 2.0 20.7 1.8 20.8 1.9 C 20.7 1.9 20.6 1.9 20.6 2.0 C 21.1 1.9 21.0 2.1 21.7 2.2 C 21.5 2.1 21.8 2.1 22.0 2.0 C 22.4 2.1 22.2 2.3 22.6 2.2 C 22.6 1.9 23.0 2.3 23.5 2.1 C 23.5 2.2 24.1 2.3 24.2 2.2 C 24.2 2.2 24.5 2.2 24.6 2.2 C 24.7 2.3 24.5 2.3 24.6 2.3 C 24.7 2.3 24.6 2.2 24.8 2.2 C 25.0 2.2 25.0 2.3 25.3 2.3 C 25.3 2.2 25.1 2.2 25.3 2.2 C 25.6 2.2 25.8 2.2 25.6 2.1 C 26.0 2.1 25.8 2.3 26.2 2.3 C 26.1 2.2 26.1 2.2 26.3 2.2 C 26.4 2.3 26.5 2.3 26.5 2.4 C 26.6 2.3 26.6 2.2 26.9 2.3 C 26.9 2.2 26.9 2.2 26.9 2.1 C 27.1 2.1 27.3 2.1 27.3 2.2 C 27.0 2.1 27.1 2.2 27.0 2.3 C 27.3 2.3 27.8 2.4 27.4 2.3 C 27.8 2.2 27.6 2.4 27.9 2.4 C 27.7 2.2 27.9 2.3 28.2 2.3 C 28.2 2.2 28.4 2.3 28.6 2.3 C 28.6 2.2 28.6 2.1 28.8 2.1 C 28.8 2.2 28.9 2.2 29.1 2.2 C 29.1 2.1 28.7 2.1 29.1 2.1 C 29.3 2.1 29.3 2.3 29.6 2.3 C 29.7 2.4 29.3 2.4 29.4 2.5 C 29.6 2.4 29.7 2.5 30.1 2.5 C 29.9 2.3 30.8 2.2 30.4 2.1 C 30.5 2.1 30.7 1.9 30.8 2.0 C 30.7 2.1 30.9 2.2 30.9 2.2 C 31.1 2.2 31.5 2.2 31.5 2.2 C 31.1 2.2 31.1 2.1 31.0 2.0 C 31.5 1.9 32.0 2.0 32.0 2.1 C 32.0 2.1 32.1 2.1 32.1 2.0 C 31.9 2.1 31.8 1.9 32.0 1.8 C 31.9 2.0 32.1 2.0 32.3 2.0 C 32.3 1.9 33.0 2.1 32.9 1.9 C 32.6 2.0 32.4 1.8 32.6 1.8 C 32.8 1.9 33.2 1.9 33.1 2.0 C 33.2 2.0 33.3 2.0 33.4 1.9 C 33.5 1.8 33.2 1.8 33.3 1.7 C 33.4 1.7 33.6 1.7 33.7 1.8 C 33.3 1.8 33.9 1.8 33.5 1.9 C 33.7 1.9 33.8 2.0 34.0 2.0 C 34.0 2.0 34.0 2.0 34.1 1.9 C 33.9 2.0 33.7 1.9 33.8 1.8 C 34.1 1.8 34.1 1.9 34.4 1.9 C 34.5 1.8 34.9 1.7 35.1 1.8 C 34.7 1.8 35.1 1.8 34.9 1.9 C 34.5 1.8 34.4 1.9 34.3 2.0 C 34.4 2.1 34.7 2.2 34.8 2.0 C 34.6 2.0 34.6 2.1 34.5 2.1 C 34.5 2.0 34.5 1.9 34.7 1.9 C 34.8 2.0 35.2 1.9 35.0 2.1 C 35.2 2.0 35.5 2.1 35.8 2.0 C 35.5 2.0 35.3 2.0 35.2 1.9 C 35.4 1.8 35.7 2.0 35.7 1.9 C 35.6 1.8 35.2 1.8 35.2 1.7 C 35.5 1.6 36.0 1.9 35.6 1.7 C 35.7 1.7 36.0 1.7 36.1 1.8 C 35.8 1.8 36.1 1.9 36.2 2.0 C 36.4 2.0 36.5 1.9 36.6 1.9 C 36.3 1.9 36.1 1.8 36.3 1.8 C 36.3 1.8 36.4 1.7 36.5 1.7 C 36.5 1.8 36.8 1.7 36.9 1.8 C 36.8 1.7 36.7 1.7 36.7 1.7 C 36.8 1.6 37.1 1.5 37.3 1.6 C 37.1 1.6 37.0 1.6 37.0 1.7 C 37.5 1.9 37.6 2.0 38.3 2.1 C 38.2 2.1 38.1 2.1 38.2 2.2 C 38.5 2.2 38.8 2.2 38.7 2.3 C 39.0 2.3 39.1 2.2 39.2 2.2 C 39.0 2.1 38.9 2.2 38.7 2.1 C 38.8 2.1 38.6 1.9 38.4 1.8 C 38.0 1.9 38.0 1.7 37.6 1.8 C 37.7 1.7 37.2 1.8 37.4 1.6 C 37.8 1.8 38.2 1.7 38.7 1.8 C 38.7 1.9 38.6 1.9 38.8 2.0 C 39.2 2.1 39.0 1.9 39.3 1.9 C 39.5 2.0 39.3 2.0 39.4 2.1 C 39.6 2.0 39.8 2.0 39.9 2.2 C 39.5 2.1 40.0 2.3 39.7 2.3 C 39.9 2.3 40.0 2.3 40.0 2.4 C 39.7 2.2 40.4 2.2 40.1 2.1 C 40.7 2.0 40.2 2.4 40.6 2.4 C 40.4 2.3 40.7 2.2 41.0 2.2 C 41.1 2.4 41.5 2.4 41.7 2.4 C 41.6 2.3 41.5 2.4 41.7 2.3 C 41.6 2.2 41.4 2.2 41.2 2.3 C 41.2 2.2 41.2 2.2 41.1 2.2 C 41.5 2.1 41.3 2.1 41.4 2.0 C 41.5 2.1 41.8 2.1 41.8 2.2 C 41.8 2.1 41.9 2.1 41.9 2.1 C 41.5 2.1 42.0 1.9 41.7 1.9 C 41.6 1.9 41.7 2.0 41.4 2.0 C 41.2 1.8 41.6 1.8 41.7 1.7 C 41.5 1.6 41.3 1.8 41.2 1.6 C 41.5 1.5 41.9 1.6 42.2 1.6 C 42.2 1.5 42.8 1.7 42.8 1.5 C 42.9 1.5 42.9 1.6 43.0 1.6 C 43.1 1.5 43.2 1.6 43.3 1.6 C 43.3 1.6 43.3 1.5 43.2 1.5 C 43.6 1.5 43.7 1.5 44.2 1.5 C 44.3 1.6 44.4 1.6 44.4 1.7 C 44.3 1.7 44.2 1.8 44.1 1.8 C 44.8 1.8 44.4 1.5 44.8 1.7 C 44.8 1.6 44.5 1.5 44.7 1.4 C 45.1 1.6 45.7 1.5 45.7 1.8 C 46.1 1.9 46.3 1.7 46.5 1.8 C 46.6 1.8 46.7 1.8 46.7 1.8 C 46.6 1.7 46.5 1.6 46.3 1.6 C 46.1 1.6 46.0 1.5 46.2 1.7 C 45.9 1.7 45.8 1.6 45.6 1.6 C 46.1 1.5 46.5 1.6 46.5 1.4 C 46.7 1.5 46.8 1.6 46.9 1.6 C 47.0 1.6 47.5 1.5 47.5 1.6 C 47.2 1.6 46.8 1.8 47.1 1.8 C 48.0 1.7 48.4 2.0 49.2 1.8 C 49.2 1.9 49.2 2.0 49.3 2.0 C 49.3 1.9 49.3 1.9 49.4 1.8 C 49.6 1.9 49.8 1.9 50.1 1.9 C 50.1 2.0 50.1 2.1 50.3 2.1 C 50.4 2.0 50.7 1.8 50.9 1.8 C 50.7 1.8 51.0 2.0 51.1 2.0 C 51.0 1.8 52.0 2.1 51.7 1.9 C 52.1 1.9 52.3 2.0 52.3 2.0 C 52.4 2.0 52.5 2.0 52.7 2.0 C 52.8 2.1 53.5 2.0 53.6 2.1 C 53.3 2.0 53.3 2.2 53.5 2.2 C 53.6 2.1 54.3 2.0 54.4 2.0 C 54.3 2.1 54.3 2.2 54.0 2.2 C 54.5 2.3 54.5 2.1 54.7 2.0 C 54.7 2.1 54.9 2.0 55.0 2.0 C 55.1 2.0 55.0 2.0 55.0 2.1 C 55.2 2.1 55.2 2.2 55.5 2.2 C 55.4 2.1 55.7 2.1 55.8 2.2 C 55.8 2.1 56.0 2.0 56.2 2.0 C 55.9 2.2 57.4 2.2 57.1 2.1 C 57.4 2.0 57.4 2.2 57.8 2.2 C 57.8 2.1 58.1 2.2 57.9 2.1 C 58.2 2.1 58.0 2.2 58.4 2.2 C 58.2 2.0 58.7 2.2 58.7 2.0 C 58.8 2.2 59.1 1.9 59.5 2.1 C 59.5 2.1 59.5 2.1 59.6 2.0 C 59.6 2.0 59.2 1.9 59.5 1.9 C 59.8 2.0 59.6 2.1 59.7 2.1 C 60.6 2.1 61.7 2.1 62.6 2.2 C 62.5 2.1 62.5 2.1 62.7 2.0 C 63.0 2.3 64.2 2.2 64.3 2.1 C 64.4 2.2 65.0 2.1 65.1 2.2 C 65.0 2.1 64.8 2.3 65.0 2.3 C 65.2 2.1 65.4 2.2 65.6 2.1 C 65.7 2.3 66.5 2.1 66.1 2.4 C 66.3 2.4 66.3 2.4 66.4 2.4 C 66.4 2.3 66.6 2.3 66.3 2.2 C 67.0 2.3 67.1 2.2 67.6 2.3 C 67.7 2.2 67.3 2.1 67.6 2.1 C 67.6 2.2 67.6 2.2 67.6 2.2 C 67.7 2.2 67.8 2.1 67.8 2.2 C 67.8 2.3 67.6 2.3 67.6 2.4 C 67.9 2.4 68.0 2.5 68.1 2.4 C 67.8 2.4 68.0 2.2 68.2 2.3 C 68.0 2.4 69.0 2.3 69.3 2.2 C 69.5 2.3 69.0 2.2 69.0 2.3 C 69.6 2.3 69.6 2.4 69.6 2.2 C 69.9 2.2 70.0 2.3 70.4 2.2 C 70.6 2.3 70.3 2.3 70.5 2.4 C 70.6 2.3 70.7 2.3 70.9 2.2 C 71.4 2.5 72.7 2.1 73.3 2.5 C 73.1 2.4 73.4 2.3 73.7 2.3 C 73.7 2.4 73.7 2.4 73.8 2.4 C 73.8 2.4 73.9 2.3 74.1 2.3 C 74.1 2.4 74.1 2.4 74.2 2.4 C 74.3 2.3 74.5 2.4 74.7 2.4 C 74.8 2.5 74.3 2.4 74.3 2.5 C 74.8 2.6 74.9 2.5 75.3 2.5 C 75.1 2.5 75.4 2.6 75.5 2.7 C 75.4 2.5 75.7 2.5 75.5 2.4 C 75.6 2.4 75.9 2.4 75.9 2.4 C 75.8 2.5 75.7 2.4 75.7 2.5 C 75.9 2.5 76.1 2.6 76.2 2.5 C 76.1 2.5 76.0 2.4 76.0 2.4 C 76.0 2.3 76.1 2.3 76.2 2.2 C 75.9 2.6 76.7 2.4 76.8 2.3 C 76.9 2.5 76.9 2.5 76.9 2.6 C 77.2 2.6 77.2 2.5 77.4 2.4 C 77.3 2.6 77.3 2.7 77.6 2.8 C 77.5 2.6 77.9 2.6 77.8 2.4 C 78.6 2.4 78.8 2.6 79.3 2.6 C 79.3 2.5 79.1 2.5 79.3 2.5 C 79.5 2.5 79.7 2.6 79.9 2.6 C 80.0 2.5 79.8 2.5 80.0 2.5 C 80.3 2.6 80.2 2.7 80.6 2.8 C 81.0 2.7 80.8 2.8 81.1 2.7 C 81.0 2.7 80.8 2.6 81.0 2.6 C 81.2 2.7 81.3 2.9 81.4 2.9 C 81.2 2.9 81.1 2.9 81.0 2.8 C 80.9 2.9 80.7 2.9 80.9 3.0 C 80.6 3.0 80.3 3.0 80.0 3.0 C 80.1 3.1 79.6 3.0 79.8 3.1 C 80.2 3.1 80.3 3.2 80.7 3.2 C 80.6 3.0 81.0 3.1 81.1 3.1 C 81.1 3.0 81.3 3.1 81.3 3.0 C 81.6 2.9 81.6 3.0 81.9 3.0 C 81.9 3.1 81.8 3.1 82.0 3.1 C 82.1 3.0 82.2 3.2 82.3 3.2 C 82.2 3.0 82.6 3.1 82.7 3.0 C 82.5 3.0 82.4 3.0 82.4 3.0 C 82.8 3.0 82.5 2.9 82.4 2.8 C 82.4 2.8 82.2 3.0 82.2 2.9 C 82.6 2.8 81.6 2.7 82.0 2.7 C 82.3 2.8 82.2 2.7 82.6 2.7 C 82.9 2.9 82.5 3.0 82.9 3.2 C 83.1 3.1 83.2 3.1 83.3 3.0 C 83.3 3.1 83.4 3.1 83.5 3.1 C 83.5 3.1 83.2 3.0 83.5 3.0 C 83.6 3.0 83.4 3.2 83.8 3.1 C 83.9 3.0 83.4 3.0 83.7 3.0 C 84.0 3.2 83.6 2.9 83.9 2.9 C 84.0 2.9 84.0 2.9 84.2 2.9 C 84.2 3.0 84.1 3.1 84.2 3.1 C 84.3 2.9 84.4 3.2 84.6 3.1 C 84.8 3.0 84.4 3.0 84.5 2.9 C 84.8 3.1 84.9 2.9 85.0 2.9 C 84.8 3.0 85.4 3.0 85.4 3.1 C 85.4 3.0 85.5 3.0 85.9 2.9 C 85.9 3.2 86.3 3.0 86.3 3.2 C 86.4 3.1 86.5 3.1 86.5 3.0 C 86.4 3.0 86.3 3.0 86.3 2.9 C 86.4 2.9 86.5 2.9 86.6 2.9 C 86.8 3.0 86.4 3.3 87.0 3.2 C 87.0 3.1 87.2 3.1 87.4 3.0 C 87.4 2.9 87.2 3.0 87.1 2.9 C 87.4 2.8 87.6 2.9 87.7 3.0 C 88.1 2.9 88.6 3.0 89.1 3.0 C 89.3 3.1 88.7 3.1 89.0 3.1 C 89.2 3.1 89.1 3.0 89.3 3.0 C 89.1 3.6 90.8 3.1 90.9 3.4 C 91.0 3.3 91.5 3.3 91.4 3.2 C 91.1 3.3 90.9 3.1 90.7 3.0 C 90.4 3.1 91.0 3.2 90.7 3.2 C 90.7 3.1 90.3 3.2 90.3 3.1 C 90.8 3.1 90.1 3.0 90.4 2.8 C 90.8 2.9 91.6 2.7 91.4 2.9 C 91.4 2.8 91.2 2.8 91.2 2.9 C 91.7 2.9 91.9 2.8 92.1 2.8 C 92.3 2.9 93.1 2.7 92.9 2.8 C 93.0 2.9 92.4 2.7 92.5 2.8 C 93.3 2.9 93.4 2.8 93.9 2.9 C 93.7 2.7 94.5 2.7 94.4 2.7 C 94.4 2.8 94.6 2.9 94.9 2.8 C 94.9 2.9 95.0 3.0 95.2 3.0 C 95.3 2.9 95.1 2.9 95.1 2.8 C 95.3 2.8 95.4 2.8 95.6 2.8 C 95.6 2.9 95.6 2.9 95.7 2.9 C 95.9 2.9 96.6 2.7 96.5 2.8 C 96.2 3.0 97.0 2.9 96.5 3.0 C 96.6 3.0 96.6 3.1 96.8 3.1 C 96.8 3.0 96.8 3.0 96.8 2.9 C 97.2 2.9 97.0 3.1 97.3 3.1 C 97.3 3.1 97.5 3.1 97.5 3.0 C 97.4 3.0 97.4 3.1 97.2 3.0 C 97.4 2.8 96.9 2.9 96.9 2.8 C 97.2 2.8 97.2 2.9 97.4 3.0 C 97.8 2.9 97.6 2.9 98.1 3.0 C 98.1 2.9 98.0 2.9 98.0 2.8 C 98.6 2.9 98.5 3.1 98.9 3.0 C 98.8 3.1 98.5 3.1 98.7 3.2 C 99.0 3.1 99.0 3.0 99.4 3.0 C 99.4 3.0 99.4 3.1 99.5 3.1 C 99.6 3.0 99.6 2.9 99.8 2.9 C 99.8 2.9 100.0 2.9 100.1 2.9 C 100.2 3.0 100.0 3.0 100.2 3.0 C 100.5 3.0 100.6 2.8 100.9 2.8 C 100.9 3.0 101.1 2.9 101.4 2.9 C 101.4 3.0 101.9 3.0 102.3 3.0 C 102.2 2.9 102.5 3.0 102.5 2.8 C 102.3 2.8 102.2 2.8 102.2 2.8 C 102.6 2.7 102.7 3.0 103.0 2.8 C 103.1 2.9 103.3 3.0 103.6 3.0 C 103.6 2.9 103.1 2.9 103.4 2.8 C 103.4 2.9 103.5 2.9 103.6 2.8 C 103.5 3.0 103.7 3.0 103.9 3.1 C 104.1 3.0 104.6 3.2 104.4 3.0 C 104.7 3.0 104.5 3.2 104.8 3.2 C 104.6 3.0 105.1 3.0 104.9 2.9 C 105.2 2.9 105.2 3.1 105.1 3.2 C 105.4 3.2 105.5 3.1 105.7 3.2 C 105.5 3.0 106.0 3.0 105.8 3.0 C 105.7 3.2 106.1 3.1 106.2 3.2 C 106.0 3.1 106.2 3.1 106.0 3.0 C 106.2 3.0 106.6 3.0 106.9 3.1 C 107.2 3.0 107.5 3.0 107.4 3.1 C 107.7 3.1 107.5 3.1 107.9 3.1 C 107.9 3.1 107.8 3.1 107.8 3.0 C 108.2 3.0 108.1 3.1 108.7 3.1 C 108.6 3.3 108.9 3.3 109.1 3.4 C 108.8 3.4 108.6 3.3 108.5 3.3 C 108.4 3.4 108.6 3.4 108.5 3.4 C 108.4 3.4 108.3 3.3 108.3 3.3 C 108.6 3.4 107.8 3.5 108.1 3.4 C 108.1 3.4 108.1 3.5 108.1 3.4 C 108.1 3.3 108.1 3.4 108.1 3.2 C 108.0 3.3 107.8 3.1 107.8 3.2 C 107.8 3.3 107.9 3.3 108.0 3.3 C 107.5 3.4 107.8 3.2 107.5 3.2 C 107.4 3.3 107.6 3.4 107.7 3.4 C 107.3 3.5 107.0 3.4 107.0 3.4 C 106.7 3.4 107.0 3.5 106.8 3.5 C 106.7 3.5 106.7 3.4 106.5 3.4 C 106.2 3.4 106.6 3.5 106.4 3.5 C 106.1 3.4 106.5 3.3 106.2 3.3 C 106.2 3.5 105.8 3.3 105.9 3.4 C 106.1 3.3 106.1 3.5 106.0 3.4 C 105.5 3.2 105.1 3.7 104.7 3.4 C 104.7 3.4 104.6 3.5 104.6 3.5 C 104.9 3.6 105.5 3.6 105.6 3.8 C 105.8 3.7 105.8 3.6 105.9 3.6 C 106.2 3.7 106.2 3.7 106.0 3.9 C 105.4 4.0 105.1 3.9 104.8 3.8 C 104.6 3.9 104.8 3.9 104.9 3.9 C 103.7 3.8 104.6 4.2 104.2 4.1 C 104.2 4.1 104.1 4.0 104.0 4.0 C 104.0 4.1 103.8 4.0 103.8 4.1 C 103.8 4.1 103.9 4.1 103.9 4.2 C 103.6 4.2 103.7 4.1 103.7 4.0 C 103.9 4.0 104.0 4.0 104.1 3.9 C 103.8 4.0 103.6 3.9 103.4 4.0 C 103.1 3.8 103.5 3.7 103.4 3.5 C 103.4 3.4 103.2 3.8 103.0 3.9 C 102.6 3.9 102.6 4.0 102.3 4.0 C 102.2 3.9 102.6 4.0 102.6 3.8 C 102.5 3.8 102.5 3.8 102.4 3.8 C 102.1 3.8 102.2 3.9 102.0 4.0 C 101.9 3.8 101.8 3.9 101.7 4.0 C 101.5 3.9 101.8 3.9 101.6 3.8 C 101.3 3.8 101.2 4.0 101.1 4.0 C 101.1 3.9 101.1 3.9 101.0 3.8 C 100.7 3.9 100.6 3.9 101.0 4.0 C 100.7 4.0 100.5 4.0 100.6 4.2 C 101.1 4.2 101.2 4.2 101.4 4.3 C 101.5 4.2 101.6 4.3 101.8 4.3 C 101.7 4.1 102.0 4.3 102.1 4.2 C 102.0 4.2 101.8 4.2 101.8 4.1 C 102.3 4.1 102.3 4.2 102.7 4.0 C 102.7 4.0 102.7 4.1 102.8 4.1 C 102.6 4.1 102.3 4.1 102.3 4.2 C 102.6 4.4 102.7 4.1 103.0 4.3 C 103.1 4.2 102.7 4.1 103.0 4.1 C 103.1 4.2 103.3 4.3 103.5 4.3 C 103.7 4.3 103.8 4.2 104.0 4.2 C 104.0 4.3 104.0 4.3 104.2 4.3 C 104.2 4.2 104.0 4.2 104.2 4.2 C 104.7 4.3 105.0 4.4 105.6 4.4 C 105.4 4.3 105.0 4.2 105.2 4.2 C 105.4 4.3 105.7 4.1 106.0 4.2 C 106.0 4.3 105.7 4.2 105.8 4.4 C 106.0 4.4 106.1 4.4 106.3 4.4 C 106.3 4.4 106.5 4.4 106.5 4.3 C 106.3 4.3 106.2 4.4 106.2 4.4 C 106.3 4.0 106.9 4.5 107.3 4.5 C 107.5 4.4 107.1 4.4 107.4 4.3 C 107.5 4.3 107.6 4.6 107.4 4.6 C 107.2 4.5 107.1 4.7 107.1 4.6 C 107.0 4.6 106.9 4.6 106.9 4.6 C 107.0 4.6 107.0 4.7 107.1 4.7 C 106.9 4.7 106.8 4.9 106.7 4.8 C 106.8 4.8 106.8 4.8 106.9 4.7 C 106.3 4.8 106.2 4.7 105.9 4.6 C 106.0 4.7 105.8 4.7 105.9 4.8 C 106.1 4.7 106.5 4.8 106.3 4.8 C 106.1 4.7 105.9 5.1 105.8 4.9 C 105.9 4.9 105.9 4.8 106.0 4.8 C 105.8 4.8 105.8 4.7 105.6 4.7 C 104.9 4.9 104.4 4.5 103.4 4.8 C 103.0 4.8 103.7 4.8 103.7 4.6 C 103.6 4.6 103.5 4.6 103.5 4.6 C 103.5 4.7 103.3 4.6 103.2 4.7 C 103.2 4.6 102.7 4.7 102.5 4.6 C 102.5 4.7 102.5 4.7 102.4 4.7 C 101.6 4.6 100.3 4.8 99.8 4.6 C 99.8 4.7 99.6 4.7 99.5 4.8 C 99.1 4.8 99.3 4.7 98.8 4.8 C 98.5 4.8 98.8 4.7 98.9 4.7 C 98.1 4.7 97.5 4.6 97.0 4.8 C 96.8 4.8 97.0 4.7 96.5 4.6 C 96.5 4.8 95.7 4.6 95.6 4.8 C 95.3 4.8 94.8 4.6 95.0 4.7 C 94.6 4.7 94.9 4.6 94.7 4.6 C 94.4 4.6 94.8 4.9 94.5 4.9 C 94.5 4.8 94.3 4.8 94.1 4.7 C 94.3 4.7 94.5 4.7 94.5 4.6 C 94.3 4.7 94.3 4.6 94.0 4.6 C 93.8 4.7 93.1 4.8 92.9 4.6 C 92.9 4.7 93.0 4.7 93.0 4.7 C 92.8 4.7 92.6 4.6 92.6 4.8 C 92.2 4.8 92.0 4.6 91.7 4.8 C 91.5 4.8 91.8 4.6 91.2 4.6 C 91.2 4.8 90.2 4.7 89.9 4.6 C 89.9 4.8 89.9 4.7 89.7 4.6 C 89.7 4.7 89.7 4.8 89.6 4.8 C 89.6 4.7 89.5 4.7 89.4 4.8 C 89.5 4.6 89.1 4.8 89.0 4.7 C 89.1 4.7 89.1 4.6 89.0 4.6 C 89.0 4.7 88.6 4.5 88.6 4.6 C 88.7 4.6 89.0 4.6 88.9 4.7 C 88.5 4.8 88.7 4.6 88.4 4.6 C 88.5 4.7 88.6 4.7 88.4 4.7 C 88.2 4.7 88.4 4.7 88.2 4.6 C 88.1 4.6 87.8 4.7 87.7 4.7 C 87.8 4.7 87.7 4.7 87.6 4.6 C 87.1 4.6 86.0 4.7 85.5 4.6 C 85.4 4.6 85.3 4.6 85.3 4.7 C 85.0 4.7 85.1 4.7 84.8 4.6 C 84.8 4.7 84.8 4.8 84.8 4.8 C 84.4 4.9 84.7 4.6 84.5 4.6 C 84.4 4.9 84.3 4.6 84.1 4.6 C 84.0 4.6 83.9 4.6 83.9 4.7 C 83.6 4.7 83.6 4.5 83.3 4.6 C 83.3 4.6 83.4 5.0 83.4 5.1 C 83.3 5.1 83.2 5.0 83.1 5.0 C 83.2 4.9 83.1 4.4 82.7 4.6 C 82.9 4.5 83.0 4.6 83.0 4.7 C 82.6 4.7 82.5 4.6 82.2 4.6 C 82.1 4.7 82.3 4.7 82.3 4.9 C 82.2 4.9 82.1 4.9 82.2 5.0 C 81.8 4.9 81.8 4.8 81.5 4.9 C 81.5 4.9 81.5 4.8 81.7 4.9 C 81.6 4.8 81.6 4.7 81.9 4.7 C 81.9 4.8 81.8 4.9 82.1 4.8 C 82.1 4.8 82.1 4.7 82.1 4.6 C 81.8 4.6 81.3 4.5 81.3 4.6 C 81.4 4.7 81.5 4.7 81.5 4.8 C 81.1 4.8 81.0 4.6 80.7 4.6 C 80.1 4.6 79.2 4.6 79.3 4.8 C 78.9 4.7 79.1 4.7 78.8 4.7 C 78.9 4.8 78.4 4.7 78.5 4.8 C 78.8 4.8 78.7 4.8 79.1 4.8 C 79.1 4.9 79.0 4.9 78.9 5.0 C 78.9 4.9 78.7 4.9 78.5 4.9 C 78.5 4.9 78.7 5.0 78.5 5.0 C 78.5 5.0 78.4 5.0 78.3 5.0 C 78.3 4.9 78.3 4.9 78.3 4.8 C 78.4 4.8 78.6 4.7 78.7 4.7 C 78.6 4.7 78.6 4.7 78.5 4.6 C 78.4 4.7 78.0 4.6 78.0 4.7 C 78.1 4.7 78.2 4.8 78.1 4.8 C 78.0 4.8 77.8 4.7 77.7 4.8 C 78.0 4.9 77.9 4.9 78.1 5.0 C 77.7 5.0 77.7 4.9 77.3 4.9 C 77.3 4.8 77.3 4.7 77.4 4.7 C 77.1 4.4 76.4 4.7 76.2 4.6 C 76.3 4.7 76.5 4.5 76.3 4.5 C 76.3 4.5 76.1 4.5 76.1 4.6 C 76.0 4.8 76.2 4.9 76.4 5.0 C 76.2 5.0 76.2 5.1 76.0 5.1 C 75.9 5.0 76.1 4.8 75.9 4.8 C 75.8 5.0 75.5 4.8 75.4 5.0 C 75.6 5.0 75.7 5.0 75.5 5.0 C 75.5 5.0 75.2 5.0 75.2 4.9 C 75.5 4.9 75.5 4.8 75.7 4.8 C 75.5 4.8 75.8 4.7 75.5 4.6 C 75.3 4.7 75.3 4.8 74.9 4.8 C 74.8 4.8 74.9 4.7 74.7 4.7 C 74.7 4.8 74.3 4.8 74.6 4.7 C 74.5 4.7 74.4 4.7 74.3 4.7 C 74.5 4.8 73.6 5.0 73.7 5.0 C 73.7 4.9 73.6 4.7 73.6 4.7 C 73.4 4.8 73.2 4.7 72.7 4.7 C 72.7 4.9 72.6 4.7 72.4 4.8 C 72.4 4.8 72.6 4.9 72.4 4.9 C 72.2 4.8 72.2 4.8 72.1 4.8 C 71.9 4.8 71.8 4.8 71.7 4.7 C 71.7 4.8 71.8 4.8 71.8 4.8 C 71.1 4.7 70.8 4.9 70.2 4.8 C 70.5 4.9 70.5 4.7 70.3 4.7 C 70.2 4.7 70.1 4.8 70.0 4.8 C 70.2 4.9 70.1 4.9 69.8 4.8 C 69.6 4.9 69.9 5.0 69.7 5.0 C 69.5 5.0 69.6 4.9 69.5 4.9 C 69.4 4.9 69.3 4.9 69.2 4.9 C 69.4 5.0 69.2 5.0 69.0 5.0 C 69.1 4.9 69.1 4.9 68.7 4.9 C 68.7 4.9 68.9 4.8 68.7 4.8 C 68.6 4.8 68.4 5.0 68.1 4.8 C 68.2 4.8 68.2 4.8 68.2 4.8 C 68.0 4.9 67.8 4.7 67.5 4.6 C 67.8 4.7 67.6 4.8 67.7 4.9 C 67.5 4.8 67.2 4.9 67.0 4.8 C 67.4 4.8 67.0 4.6 66.8 4.6 C 66.8 4.7 67.1 4.7 67.0 4.8 C 66.9 4.9 66.6 4.7 66.5 4.8 C 66.6 4.9 66.7 4.8 66.7 4.9 C 66.5 4.9 66.8 4.9 66.6 5.0 C 66.5 4.8 66.4 5.0 66.3 5.0 C 66.2 5.0 65.9 4.8 65.8 4.9 C 65.8 4.9 66.0 4.9 66.0 5.0 C 65.5 5.0 65.3 4.9 64.8 5.0 C 64.8 4.9 64.7 4.9 64.5 4.9 C 64.5 5.0 64.5 5.0 64.3 5.0 C 64.1 4.9 63.9 4.9 63.6 4.8 C 63.7 4.7 63.8 4.7 63.4 4.7 C 63.4 4.7 63.6 4.7 63.4 4.8 C 63.4 4.7 63.4 4.7 63.3 4.8 C 63.3 4.8 63.3 4.8 63.3 4.8 C 63.4 4.8 63.5 4.8 63.6 4.8 C 63.6 4.9 63.7 5.0 63.7 5.0 C 63.3 5.1 63.3 4.8 63.0 4.9 C 63.0 4.7 62.9 4.7 63.1 4.6 C 62.9 4.6 62.7 4.7 62.6 4.8 C 62.9 4.7 62.9 4.9 62.9 5.0 C 62.7 4.9 62.7 5.0 62.6 5.0 C 62.4 5.0 62.9 4.8 62.4 4.8 C 62.8 5.0 62.2 4.9 61.9 4.9 C 62.0 4.9 62.1 4.9 61.9 5.0 C 61.4 5.1 61.4 4.7 61.1 4.9 C 61.1 4.8 60.9 4.8 60.9 4.8 C 61.1 4.7 61.2 4.7 61.3 4.7 C 61.3 4.6 61.2 4.6 61.2 4.6 C 61.2 4.7 61.1 4.7 60.9 4.6 C 60.9 4.7 60.9 4.9 60.7 5.0 C 60.6 4.9 60.7 4.9 60.6 4.9 C 60.4 5.0 60.6 4.7 60.2 4.7 C 60.2 4.8 60.3 4.8 60.3 4.9 C 60.0 5.0 60.1 4.9 59.8 5.0 C 59.6 4.7 60.0 4.7 60.1 4.6 C 59.8 4.6 59.7 4.8 59.5 4.7 C 59.6 4.7 59.5 4.8 59.3 4.9 C 59.1 4.9 59.3 4.7 59.1 4.7 C 58.9 4.7 58.8 4.8 59.0 4.9 C 58.6 4.8 58.7 5.0 58.4 5.0 C 58.4 4.9 58.4 4.9 58.6 4.9 C 58.5 4.9 58.6 4.8 58.5 4.8 C 58.3 4.9 57.8 4.9 57.6 5.0 C 57.1 4.8 56.6 5.0 56.2 5.0 C 56.4 4.8 55.6 4.9 55.4 4.8 C 55.2 4.8 54.8 5.1 55.0 5.0 C 54.9 4.8 54.7 4.9 54.5 4.8 C 54.5 4.9 54.5 4.9 54.5 5.0 C 54.0 5.0 53.9 4.9 53.8 4.8 C 53.2 4.8 52.6 4.7 52.0 4.8 C 51.8 4.7 51.7 4.7 51.3 4.6 C 51.3 4.7 51.0 4.7 50.7 4.7 C 50.8 4.8 50.5 4.8 50.5 4.9 C 50.8 4.9 50.7 5.0 50.8 5.1 C 50.4 5.0 50.3 5.2 50.0 5.1 C 50.3 5.0 50.4 4.9 50.5 4.7 C 50.1 4.7 49.9 4.7 49.8 4.6 C 49.8 4.6 49.8 4.7 49.9 4.8 C 49.8 4.8 49.6 4.8 49.5 4.8 C 49.5 4.7 49.6 4.7 49.5 4.6 C 49.4 4.7 49.3 4.7 49.2 4.8 C 49.1 4.6 49.4 4.7 49.4 4.6 C 48.9 4.5 49.1 4.8 48.8 4.8 C 48.7 4.7 48.7 4.6 48.5 4.6 C 48.4 4.7 48.4 4.8 48.1 4.8 C 47.9 4.8 48.1 4.6 47.9 4.6 C 47.9 4.6 47.8 4.6 47.7 4.6 C 47.7 4.7 47.6 4.7 47.5 4.7 C 47.5 4.7 47.3 4.7 47.2 4.7 C 47.2 4.7 46.9 4.5 46.8 4.6 C 46.8 4.6 47.0 4.6 47.0 4.7 C 46.8 4.7 46.6 4.7 46.5 4.7 C 46.4 4.4 46.1 4.7 45.6 4.5 C 45.3 4.6 45.7 4.7 45.3 4.8 C 45.1 4.7 45.4 4.7 45.3 4.6 C 45.3 4.5 44.9 4.5 44.9 4.6 C 44.9 4.6 45.1 4.6 45.1 4.6 C 44.9 4.7 44.9 4.6 44.7 4.6 C 44.7 4.7 44.6 4.7 44.5 4.8 C 43.8 4.8 43.8 4.6 43.5 4.5 C 43.5 4.6 43.3 4.6 43.3 4.6 C 43.5 4.5 43.8 4.7 43.5 4.7 C 43.6 4.6 43.2 4.7 43.1 4.7 C 43.2 4.8 43.4 4.7 43.3 4.9 C 43.0 4.9 43.1 4.7 42.8 4.8 C 42.8 4.7 43.0 4.7 43.0 4.7 C 42.9 4.7 42.7 4.7 42.7 4.6 C 42.9 4.6 42.9 4.5 42.9 4.4 C 42.7 4.5 42.4 4.4 42.6 4.6 C 42.2 4.6 41.9 4.6 42.1 4.8 C 41.8 4.8 42.0 4.6 41.7 4.7 C 41.8 4.6 41.8 4.5 41.6 4.4 C 41.6 4.5 41.4 4.5 41.4 4.6 C 41.0 4.6 40.8 4.5 40.6 4.4 C 40.8 4.5 40.6 4.4 40.3 4.5 C 40.2 4.5 40.3 4.3 39.9 4.4 C 40.4 4.5 39.5 4.4 39.6 4.6 C 39.1 4.5 39.2 4.5 38.6 4.5 C 38.7 4.4 38.8 4.3 39.0 4.3 C 38.9 4.4 39.5 4.4 39.4 4.4 C 39.4 4.3 39.4 4.3 39.4 4.3 C 39.1 4.3 38.8 4.3 38.6 4.2 C 38.6 4.3 38.4 4.3 38.4 4.5 C 38.1 4.3 37.7 4.5 37.5 4.4 C 37.7 4.4 37.8 4.4 37.7 4.3 C 37.6 4.3 37.4 4.4 37.4 4.5 C 37.7 4.5 37.8 4.5 37.9 4.4 C 37.8 4.5 38.2 4.6 37.9 4.6 C 38.0 4.4 37.4 4.7 37.5 4.6 C 37.9 4.5 37.2 4.5 37.2 4.4 C 37.2 4.4 37.2 4.4 37.2 4.4 Z M 105.7 4.7 C 106.0 4.6 105.6 4.5 105.4 4.5 C 105.4 4.6 105.5 4.6 105.5 4.7 C 105.5 4.7 105.6 4.6 105.7 4.7 C 105.7 4.7 105.7 4.7 105.7 4.7 Z M 102.5 2.9 C 102.4 3.1 102.9 3.0 103.1 3.0 C 103.0 3.0 102.9 2.9 103.1 2.9 C 102.9 2.8 102.8 3.0 102.5 2.9 C 102.5 2.9 102.5 2.9 102.5 2.9 Z M 91.4 3.4 C 91.5 3.3 91.7 3.3 91.7 3.4 C 91.8 3.4 91.8 3.3 91.8 3.2 C 92.1 3.2 91.8 3.4 92.1 3.4 C 92.3 3.1 91.5 3.1 91.4 3.4 C 91.4 3.4 91.4 3.4 91.4 3.4 Z M 40.9 2.6 C 40.8 2.5 41.1 2.4 41.0 2.3 C 40.5 2.4 40.9 2.6 40.1 2.5 C 40.2 2.6 40.3 2.6 40.2 2.6 C 40.6 2.6 40.6 2.5 40.5 2.7 C 40.7 2.7 40.7 2.5 40.9 2.6 C 40.9 2.6 40.9 2.6 40.9 2.6 Z M 33.8 2.1 C 33.8 2.1 33.9 2.1 33.9 2.2 C 34.1 2.1 34.1 2.1 34.4 2.2 C 34.3 2.0 34.0 2.0 33.8 2.1 C 33.8 2.1 33.8 2.1 33.8 2.1 Z M 14.9 1.8 C 14.8 1.8 14.7 1.8 14.7 1.8 C 14.7 1.9 14.5 2.0 14.9 2.0 C 14.9 2.0 14.8 2.0 14.8 2.0 C 14.8 1.9 15.0 1.9 15.0 1.8 C 14.9 1.9 14.9 1.8 14.9 1.8 C 14.9 1.8 14.9 1.8 14.9 1.8 Z M 6.9 2.9 C 7.3 2.8 6.3 2.5 6.9 2.9 C 6.9 2.9 6.9 2.9 6.9 2.9 C 6.9 2.9 6.9 2.9 6.9 2.9 Z M 7.7 4.3 C 7.7 4.4 7.8 4.3 7.8 4.3 C 8.1 4.4 7.8 4.4 8.0 4.5 C 8.2 4.4 7.8 4.3 8.2 4.2 C 8.1 4.1 7.9 4.3 7.7 4.3 C 7.7 4.3 7.7 4.3 7.7 4.3 Z M 61.5 4.8 C 61.7 4.8 61.8 4.7 61.9 4.5 C 61.7 4.5 61.5 4.5 61.5 4.4 C 61.1 4.5 61.7 4.5 61.7 4.6 C 61.7 4.7 61.5 4.7 61.5 4.8 C 61.5 4.8 61.5 4.8 61.5 4.8 Z M 62.3 4.8 C 62.5 4.7 62.6 4.7 62.6 4.6 C 62.5 4.6 62.5 4.5 62.4 4.5 C 62.3 4.6 62.5 4.6 62.3 4.8 C 62.3 4.8 62.3 4.8 62.3 4.8 Z M 60.7 4.6 C 60.8 4.6 60.7 4.5 60.8 4.5 C 60.6 4.5 60.5 4.4 60.4 4.4 C 60.4 4.5 60.4 4.5 60.4 4.6 C 60.5 4.6 60.5 4.5 60.7 4.5 C 60.7 4.6 60.7 4.6 60.7 4.6 C 60.7 4.6 60.7 4.6 60.7 4.6 Z M 63.2 4.6 C 63.8 4.6 64.0 4.4 64.3 4.2 C 64.0 4.3 63.6 4.5 63.3 4.4 C 63.0 4.5 63.5 4.5 63.4 4.6 C 63.4 4.6 63.3 4.6 63.2 4.6 C 63.2 4.6 63.2 4.6 63.2 4.6 Z M 67.8 4.6 C 67.9 4.7 68.1 4.5 68.4 4.5 C 68.4 4.5 68.3 4.5 68.3 4.4 C 67.9 4.4 68.1 4.6 67.8 4.6 C 67.8 4.6 67.8 4.6 67.8 4.6 Z M 70.3 4.5 C 70.6 4.5 70.2 4.5 70.3 4.4 C 70.0 4.4 69.7 4.4 69.7 4.5 C 70.0 4.4 70.1 4.4 70.3 4.5 C 70.3 4.5 70.3 4.5 70.3 4.5 Z M 72.1 4.5 C 72.4 4.5 72.0 4.4 72.1 4.2 C 72.0 4.2 72.0 4.3 72.0 4.4 C 71.9 4.3 71.8 4.3 71.7 4.3 C 71.8 4.4 72.1 4.4 72.1 4.5 C 72.1 4.5 72.1 4.5 72.1 4.5 Z M 54.2 4.4 C 54.4 4.4 54.3 4.3 54.7 4.3 C 54.1 4.3 54.4 3.9 53.7 4.0 C 53.8 4.1 53.7 4.1 53.7 4.0 C 53.4 4.1 54.0 4.1 53.7 4.2 C 53.9 4.2 53.8 4.1 54.0 4.1 C 54.2 4.2 54.3 4.3 54.2 4.4 C 54.2 4.4 54.2 4.4 54.2 4.4 Z M 53.7 3.9 C 53.5 3.8 53.5 4.1 53.4 4.0 C 53.3 4.0 53.3 4.0 53.3 4.0 C 53.4 4.0 53.4 4.1 53.4 4.1 C 53.6 4.0 53.7 4.0 53.7 3.9 C 53.7 3.9 53.7 3.9 53.7 3.9 Z M 55.6 3.9 C 55.2 3.9 55.1 3.9 55.0 4.0 C 54.9 3.8 54.8 4.0 54.6 3.9 C 54.3 3.9 54.5 4.0 54.6 4.0 C 54.3 4.1 54.5 3.9 54.2 4.0 C 54.1 4.1 54.5 4.1 54.5 4.2 C 54.7 4.2 54.7 4.1 54.9 4.1 C 55.0 4.1 55.0 4.2 55.0 4.2 C 55.3 4.2 55.2 4.3 55.5 4.2 C 55.5 4.1 55.4 4.1 55.2 4.1 C 55.4 4.1 55.6 4.0 55.9 4.0 C 55.6 4.2 56.6 4.2 56.6 4.0 C 56.3 4.0 56.4 4.1 56.3 4.1 C 55.9 4.0 55.7 4.0 55.6 3.9 C 55.6 3.9 55.6 3.9 55.6 3.9 Z M 60.6 4.2 C 60.6 4.3 60.7 4.3 60.9 4.3 C 60.9 4.4 60.7 4.4 60.9 4.4 C 61.1 4.5 61.1 4.4 61.3 4.4 C 61.2 4.3 60.7 4.2 61.0 4.2 C 60.9 4.1 60.7 4.1 60.6 4.1 C 60.8 4.3 60.3 4.1 60.1 4.1 C 60.1 4.3 59.7 4.0 59.6 4.2 C 59.7 4.3 60.1 4.2 60.3 4.2 C 60.2 4.2 60.8 4.4 60.6 4.2 C 60.6 4.2 60.6 4.2 60.6 4.2 Z M 52.9 4.0 C 52.8 4.0 52.6 4.0 52.8 4.0 C 52.7 4.1 52.5 4.0 52.6 4.2 C 52.5 4.2 52.4 4.2 52.3 4.2 C 52.3 4.1 52.6 4.2 52.5 4.0 C 52.3 4.1 52.4 4.0 52.1 4.0 C 52.2 3.9 52.1 3.9 52.2 3.8 C 52.1 3.8 51.9 3.8 51.9 3.9 C 51.5 3.9 52.0 3.8 51.5 3.8 C 51.5 3.7 51.9 3.7 52.0 3.7 C 52.1 3.6 51.4 3.7 51.0 3.6 C 51.3 3.7 51.1 3.9 50.9 4.0 C 50.8 3.9 50.9 3.9 50.7 3.8 C 50.5 3.8 50.4 3.9 50.4 3.8 C 50.3 3.8 50.3 3.9 50.3 4.0 C 50.1 4.0 50.2 3.8 49.9 3.8 C 50.2 4.0 49.9 4.0 49.4 4.0 C 49.4 4.0 49.6 4.0 49.6 4.1 C 49.5 4.2 49.3 4.0 49.2 4.0 C 49.0 4.0 49.1 4.1 49.3 4.0 C 49.2 4.1 49.1 4.1 49.0 4.2 C 49.5 4.2 50.3 4.1 51.2 4.3 C 51.0 4.2 51.2 4.2 51.5 4.2 C 51.5 4.3 51.4 4.3 51.3 4.3 C 51.6 4.5 51.6 4.2 52.1 4.2 C 52.4 4.3 51.8 4.3 52.1 4.4 C 52.3 4.4 52.4 4.3 52.5 4.4 C 52.8 4.3 52.9 4.2 53.4 4.2 C 53.1 4.1 53.0 3.9 52.7 3.9 C 52.7 4.0 52.8 4.0 52.9 4.0 C 52.9 4.0 52.9 4.0 52.9 4.0 Z M 62.4 4.4 C 62.6 4.4 62.7 4.3 62.7 4.4 C 63.0 4.4 62.7 4.3 62.6 4.2 C 62.5 4.3 62.5 4.3 62.4 4.4 C 62.4 4.4 62.4 4.4 62.4 4.4 Z M 92.7 4.4 C 93.1 4.4 93.0 4.3 93.3 4.3 C 93.1 4.2 93.0 4.1 92.6 4.2 C 92.6 4.3 92.6 4.4 92.7 4.4 C 92.7 4.4 92.7 4.4 92.7 4.4 Z M 61.5 4.3 C 61.2 4.5 61.7 4.2 61.7 4.3 C 62.0 4.2 61.5 4.2 61.7 4.1 C 61.5 4.2 61.4 4.1 61.1 4.1 C 61.1 4.2 61.3 4.2 61.6 4.2 C 61.6 4.3 61.5 4.3 61.5 4.3 C 61.5 4.3 61.5 4.3 61.5 4.3 Z M 88.8 4.1 C 88.6 4.2 89.1 4.3 89.2 4.4 C 89.2 4.2 89.2 4.2 88.8 4.1 C 88.8 4.1 88.8 4.1 88.8 4.1 Z M 95.3 4.2 C 95.5 4.1 94.9 4.2 95.0 4.0 C 94.8 4.0 94.8 4.1 94.8 4.1 C 94.7 4.1 94.4 4.1 94.5 4.0 C 94.5 3.9 95.0 4.0 94.8 3.9 C 95.0 3.9 95.0 3.9 95.1 3.9 C 94.8 3.9 94.9 4.0 95.3 4.1 C 95.3 4.0 95.1 4.0 95.3 3.9 C 95.3 4.0 95.5 4.1 95.5 4.2 C 95.8 4.2 95.6 4.0 96.0 4.0 C 96.0 4.0 95.7 4.0 95.6 3.9 C 95.6 3.8 96.0 4.0 95.9 3.8 C 96.0 3.9 96.2 4.0 96.2 4.1 C 95.9 4.2 95.7 4.3 95.5 4.3 C 95.7 4.4 96.0 4.1 96.4 4.2 C 96.4 4.1 96.6 4.2 96.5 4.0 C 96.8 4.1 96.7 4.2 96.6 4.2 C 96.7 4.3 97.2 4.3 97.2 4.2 C 97.2 4.3 97.9 4.2 97.9 4.1 C 98.1 4.2 98.4 4.0 98.5 4.2 C 98.6 4.1 98.8 4.1 99.1 4.1 C 99.2 4.0 98.7 4.1 98.7 4.0 C 98.6 3.9 99.2 4.0 99.1 3.9 C 99.1 3.9 99.1 3.8 99.1 3.8 C 98.9 3.8 98.7 3.9 98.5 3.9 C 98.3 3.9 98.5 3.9 98.5 3.8 C 98.4 3.9 97.7 4.0 97.7 3.8 C 97.3 3.9 97.0 3.8 96.8 3.9 C 96.5 3.9 96.9 3.9 96.8 3.8 C 96.0 3.9 95.1 3.7 94.5 3.9 C 94.4 3.9 94.4 3.8 94.4 3.8 C 93.5 3.8 94.3 4.0 93.6 4.0 C 93.6 3.9 93.9 3.9 93.9 3.8 C 93.7 3.8 93.6 3.8 93.3 3.8 C 93.3 3.9 93.3 3.9 93.3 4.0 C 93.1 4.0 93.2 3.8 93.0 3.8 C 92.7 3.8 92.8 3.9 92.6 3.7 C 92.3 3.8 92.0 3.8 91.7 3.8 C 91.5 3.8 91.9 4.0 92.2 4.0 C 92.2 4.1 92.1 4.1 92.1 4.1 C 91.7 4.0 91.7 3.8 91.1 3.8 C 91.5 3.9 90.9 3.8 90.8 3.7 C 90.6 3.7 90.8 3.9 90.9 3.9 C 90.9 3.9 90.7 3.9 90.7 3.8 C 90.7 4.0 91.2 4.1 91.8 4.0 C 91.5 4.3 92.2 4.0 91.9 4.3 C 92.4 4.2 92.0 4.1 92.5 4.1 C 92.5 4.1 92.4 4.0 92.3 4.0 C 92.7 3.9 92.6 4.1 93.0 4.1 C 93.1 4.0 92.8 4.0 92.8 3.9 C 93.3 4.0 93.4 4.1 93.7 4.2 C 93.8 4.1 93.7 4.0 94.2 4.1 C 94.2 4.1 94.2 4.1 94.2 4.2 C 94.0 4.1 93.9 4.4 94.5 4.4 C 94.5 4.3 94.4 4.3 94.2 4.3 C 94.3 4.2 94.5 4.2 94.7 4.2 C 94.8 4.2 95.0 4.2 94.8 4.2 C 94.9 4.4 95.0 4.1 95.3 4.2 C 95.3 4.2 95.3 4.2 95.3 4.2 Z M 67.3 4.3 C 67.4 4.3 67.5 4.3 67.6 4.3 C 67.7 4.2 67.4 4.2 67.4 4.1 C 67.2 4.1 67.4 4.3 67.3 4.3 C 67.3 4.3 67.3 4.3 67.3 4.3 Z M 64.5 4.2 C 64.6 4.3 64.7 4.2 64.9 4.2 C 65.0 4.1 64.7 4.2 64.7 4.1 C 64.5 4.1 64.8 4.3 64.5 4.2 C 64.5 4.2 64.5 4.2 64.5 4.2 Z M 65.7 4.2 C 65.8 4.4 65.8 4.2 65.6 4.2 C 65.6 4.1 65.7 4.1 65.8 4.0 C 65.7 3.9 65.6 4.1 65.3 4.1 C 65.4 4.2 65.6 4.2 65.7 4.2 C 65.7 4.2 65.7 4.2 65.7 4.2 Z M 66.1 4.2 C 66.3 4.2 66.4 4.3 66.6 4.2 C 66.6 4.1 66.0 4.2 65.9 4.2 C 65.8 4.3 66.4 4.3 66.1 4.2 C 66.1 4.2 66.1 4.2 66.1 4.2 Z M 84.9 3.9 C 84.9 3.9 84.9 3.9 84.9 3.8 C 85.3 4.0 85.7 4.0 85.3 4.2 C 85.7 4.1 86.0 4.2 86.2 4.2 C 86.5 4.3 86.4 4.1 86.5 4.1 C 86.8 4.1 86.4 4.2 86.4 4.2 C 86.5 4.3 86.6 4.1 86.9 4.2 C 86.8 4.0 87.2 4.2 87.1 4.0 C 87.3 4.1 87.4 4.0 87.6 4.0 C 87.6 3.9 87.4 3.9 87.3 3.8 C 87.2 3.7 87.2 4.0 87.4 3.9 C 87.3 4.1 86.9 3.9 86.8 4.0 C 86.7 3.8 87.2 3.9 87.0 3.8 C 86.9 3.8 86.9 3.8 86.8 3.9 C 86.7 3.9 86.6 3.8 86.5 3.8 C 86.6 3.8 86.6 3.8 86.6 3.8 C 86.8 3.8 86.5 3.6 86.8 3.6 C 86.8 3.6 86.6 3.6 86.6 3.5 C 86.5 3.4 86.6 3.8 86.2 3.7 C 86.0 3.8 86.9 3.8 86.6 4.0 C 86.1 4.0 86.4 3.8 85.9 3.8 C 85.9 3.9 86.0 3.9 85.8 3.9 C 85.9 4.0 86.0 4.0 86.1 4.0 C 86.1 4.0 86.0 4.0 85.8 4.0 C 85.9 4.0 85.9 4.0 85.9 4.1 C 85.6 4.0 85.6 3.8 85.9 3.7 C 85.9 3.6 85.5 3.6 85.3 3.7 C 85.5 3.8 85.3 3.8 85.4 3.9 C 85.5 3.9 85.5 3.8 85.5 3.8 C 85.7 3.8 85.6 3.9 85.5 3.9 C 85.3 3.9 85.4 3.8 85.2 3.9 C 85.2 3.9 85.2 3.8 85.2 3.8 C 85.2 3.8 85.0 3.8 84.9 3.8 C 85.0 3.8 84.8 3.8 84.9 3.9 C 84.9 3.9 84.9 3.9 84.9 3.9 Z M 90.0 4.2 C 90.4 4.3 90.2 4.2 90.0 4.2 C 90.1 4.1 90.2 4.1 90.3 4.1 C 90.2 4.0 90.1 4.1 89.8 4.0 C 90.1 3.9 89.8 3.7 89.3 3.7 C 89.2 3.9 89.6 3.9 89.4 4.1 C 89.8 4.0 90.0 4.1 90.0 4.2 C 90.0 4.2 90.0 4.2 90.0 4.2 Z M 62.6 4.2 C 62.8 4.2 63.0 4.2 63.2 4.2 C 63.2 4.1 62.6 4.0 62.6 4.2 C 62.6 4.2 62.6 4.2 62.6 4.2 Z M 48.6 4.0 C 48.5 4.0 48.5 4.0 48.5 4.0 C 48.2 4.0 48.6 4.1 48.5 4.2 C 48.6 4.2 48.7 4.2 48.8 4.2 C 48.8 4.1 48.4 4.0 48.7 4.0 C 48.7 4.0 48.6 4.0 48.6 4.0 C 48.6 4.0 48.6 4.0 48.6 4.0 Z M 67.1 4.2 C 67.3 4.1 67.2 4.0 67.6 4.0 C 67.5 3.9 67.4 3.9 67.1 4.0 C 67.1 4.0 67.1 4.1 67.1 4.2 C 67.1 4.2 67.1 4.2 67.1 4.2 Z M 83.4 4.1 C 83.6 4.2 83.7 4.0 84.2 4.0 C 83.9 3.9 83.6 4.1 83.4 4.1 C 83.4 4.1 83.4 4.1 83.4 4.1 Z M 99.9 3.9 C 99.7 3.9 99.9 3.9 99.7 3.8 C 99.5 3.8 99.5 3.9 99.3 3.9 C 99.6 4.1 100.1 3.9 100.3 4.1 C 100.5 4.1 100.5 4.0 100.6 3.9 C 100.5 3.9 100.4 3.9 100.4 3.8 C 100.2 4.0 100.1 3.7 99.9 3.9 C 99.9 3.9 99.9 3.9 99.9 3.9 Z M 88.7 4.0 C 88.5 4.0 88.9 3.9 88.9 3.8 C 89.1 3.9 89.0 3.9 89.0 4.0 C 89.2 4.0 89.3 3.9 89.2 3.8 C 88.9 3.8 88.5 3.8 88.7 3.6 C 88.4 3.6 88.6 3.8 88.4 3.8 C 88.3 3.7 88.4 3.7 88.4 3.6 C 88.4 3.6 88.1 3.7 88.1 3.6 C 87.7 3.7 87.9 3.9 88.2 4.1 C 88.5 4.0 88.2 3.9 88.7 4.0 C 88.7 4.0 88.7 4.0 88.7 4.0 Z M 76.1 3.9 C 76.1 4.0 76.3 4.0 76.3 4.0 C 76.5 3.9 76.7 3.8 76.9 3.6 C 76.8 3.5 76.6 3.6 76.7 3.7 C 76.6 3.6 76.4 3.6 76.3 3.5 C 76.1 3.5 76.0 3.8 76.0 3.6 C 75.8 3.6 75.9 3.6 75.6 3.6 C 76.1 3.7 75.4 3.7 75.4 3.8 C 75.7 3.8 75.9 3.8 75.9 3.7 C 76.1 3.7 76.3 3.8 76.4 3.9 C 76.4 3.9 76.2 3.9 76.1 3.9 C 76.1 3.9 76.1 3.9 76.1 3.9 Z M 77.3 3.6 C 77.2 3.6 77.1 3.6 77.0 3.6 C 77.1 3.6 77.1 3.7 77.1 3.8 C 77.3 3.8 77.4 3.7 77.5 3.8 C 77.7 3.8 77.4 3.6 77.8 3.7 C 77.8 3.6 77.6 3.7 77.6 3.6 C 77.6 3.7 77.4 3.7 77.3 3.6 C 77.3 3.6 77.3 3.6 77.3 3.6 Z M 80.4 3.8 C 80.6 3.8 80.2 3.7 80.4 3.6 C 80.3 3.7 79.8 3.6 79.9 3.5 C 79.7 3.4 79.2 3.7 79.3 3.5 C 79.2 3.5 79.2 3.6 79.2 3.6 C 79.5 3.6 79.5 3.7 79.3 3.7 C 79.3 3.7 79.5 3.7 79.7 3.7 C 79.7 3.7 79.6 3.6 79.6 3.6 C 79.9 3.6 80.1 3.7 80.4 3.8 C 80.4 3.8 80.4 3.8 80.4 3.8 Z M 37.8 3.8 C 38.0 3.8 38.1 3.8 38.3 3.7 C 38.2 3.7 38.1 3.7 38.0 3.7 C 37.9 3.7 38.0 3.7 38.2 3.6 C 38.0 3.5 37.6 3.6 37.8 3.8 C 37.8 3.8 37.8 3.8 37.8 3.8 Z M 39.7 3.8 C 40.0 3.8 40.1 3.8 40.1 3.7 C 40.1 3.6 40.1 3.7 39.9 3.7 C 39.9 3.7 39.8 3.7 39.7 3.6 C 39.7 3.6 39.7 3.7 39.6 3.7 C 39.6 3.7 39.6 3.7 39.5 3.6 C 39.3 3.8 39.9 3.6 39.7 3.8 C 39.7 3.8 39.7 3.8 39.7 3.8 Z M 78.7 3.7 C 78.6 3.7 78.5 3.6 78.3 3.6 C 78.3 3.7 78.1 3.7 78.0 3.7 C 78.2 3.8 78.3 3.7 78.7 3.7 C 78.7 3.7 78.7 3.7 78.7 3.7 Z M 52.2 3.7 C 52.5 3.8 52.5 3.6 52.9 3.7 C 52.9 3.6 52.9 3.6 52.9 3.6 C 52.6 3.7 52.5 3.6 52.2 3.7 C 52.2 3.7 52.2 3.7 52.2 3.7 Z M 11.1 3.7 C 11.1 3.6 10.8 3.6 10.8 3.6 C 10.7 3.8 10.6 3.4 10.0 3.5 C 10.0 3.4 10.0 3.4 10.1 3.4 C 9.6 3.4 10.2 3.5 10.3 3.6 C 10.6 3.6 10.7 3.7 11.1 3.7 C 11.1 3.7 11.1 3.7 11.1 3.7 Z M 96.9 3.6 C 96.9 3.6 96.9 3.6 97.0 3.6 C 97.1 3.6 97.1 3.6 97.2 3.6 C 97.2 3.4 96.8 3.4 97.1 3.2 C 97.0 3.2 97.0 3.2 97.0 3.2 C 96.5 3.6 96.1 3.0 95.5 3.2 C 95.4 3.2 95.4 3.3 95.4 3.3 C 95.5 3.3 95.5 3.3 95.5 3.4 C 95.6 3.2 96.2 3.4 95.9 3.4 C 95.9 3.5 96.0 3.5 96.0 3.4 C 96.1 3.4 96.1 3.4 96.2 3.4 C 96.2 3.4 96.0 3.4 96.0 3.3 C 96.3 3.4 96.7 3.4 96.5 3.6 C 96.7 3.6 96.8 3.5 96.9 3.4 C 97.0 3.5 97.0 3.6 96.9 3.6 C 96.9 3.6 96.9 3.6 96.9 3.6 Z M 99.5 3.5 C 99.8 3.6 99.7 3.4 100.0 3.4 C 99.8 3.3 99.5 3.5 99.3 3.4 C 99.3 3.5 99.5 3.5 99.5 3.5 C 99.5 3.5 99.5 3.5 99.5 3.5 Z M 93.7 3.4 C 93.8 3.2 93.5 3.2 93.2 3.2 C 93.2 3.4 93.4 3.4 93.7 3.4 C 93.7 3.4 93.7 3.4 93.7 3.4 Z M 95.0 3.4 C 95.3 3.3 94.6 3.3 94.8 3.2 C 94.7 3.2 94.5 3.2 94.5 3.2 C 94.4 3.2 94.4 3.3 94.2 3.2 C 94.2 3.3 94.5 3.3 94.5 3.4 C 94.7 3.3 94.8 3.3 95.0 3.4 C 95.0 3.4 95.0 3.4 95.0 3.4 Z M 95.2 3.4 C 95.4 3.3 95.2 3.1 94.9 3.1 C 95.0 3.2 95.1 3.3 95.2 3.4 C 95.2 3.4 95.2 3.4 95.2 3.4 Z M 71.9 3.3 C 72.0 3.3 71.9 3.2 72.1 3.2 C 72.1 3.1 71.5 3.1 72.0 3.1 C 71.8 3.0 71.7 3.2 71.5 3.2 C 71.6 3.2 71.6 3.2 71.5 3.2 C 71.4 3.4 72.0 3.2 71.9 3.3 C 71.9 3.3 71.9 3.3 71.9 3.3 Z M 72.5 3.3 C 72.6 3.3 72.6 3.3 72.5 3.3 C 72.5 3.2 72.7 3.3 72.8 3.2 C 72.8 3.3 72.6 3.1 72.6 3.0 C 72.1 3.1 72.5 3.2 72.5 3.3 C 72.5 3.3 72.5 3.3 72.5 3.3 Z M 73.0 3.2 C 73.3 3.4 73.8 3.3 74.0 3.2 C 73.8 3.0 73.2 3.1 73.0 3.2 C 73.0 3.2 73.0 3.2 73.0 3.2 Z M 69.7 3.2 C 70.3 3.4 71.5 3.2 70.4 3.0 C 70.5 3.1 69.8 3.2 69.4 3.1 C 69.4 3.2 69.0 3.3 69.0 3.2 C 68.8 3.3 69.9 3.3 69.7 3.2 C 69.7 3.2 69.7 3.2 69.7 3.2 Z M 74.4 3.0 C 74.2 3.0 74.4 3.2 74.2 3.2 C 74.0 3.2 74.2 3.2 74.2 3.3 C 74.5 3.3 75.1 3.1 75.2 3.3 C 75.3 3.2 75.4 3.2 75.7 3.2 C 75.7 3.1 74.6 3.3 74.4 3.0 C 74.4 3.0 74.8 3.0 74.4 3.0 C 74.4 3.0 74.4 3.0 74.4 3.0 Z M 52.2 3.0 C 52.2 3.1 52.6 3.0 52.5 3.1 C 52.7 3.0 52.9 3.1 53.2 3.0 C 53.3 3.0 53.2 3.2 53.6 3.2 C 53.6 3.1 53.4 3.1 53.6 3.0 C 53.9 3.0 53.8 3.2 54.2 3.1 C 54.1 2.9 55.0 3.1 54.9 2.9 C 54.7 2.9 54.7 3.0 54.4 3.0 C 54.3 3.0 54.3 2.9 54.2 2.9 C 54.3 2.8 54.4 2.9 54.6 2.8 C 54.6 2.8 54.3 2.8 54.3 2.7 C 54.1 2.7 54.3 2.7 54.3 2.8 C 53.9 2.8 54.3 2.5 53.9 2.6 C 54.0 2.7 54.0 2.7 53.9 2.8 C 53.7 2.7 53.2 2.8 53.5 2.7 C 53.5 2.6 53.1 2.7 53.2 2.8 C 53.0 2.8 53.0 2.8 53.0 2.7 C 52.6 2.8 52.5 2.9 52.6 3.0 C 52.5 3.1 52.4 2.9 52.2 3.0 C 52.2 3.0 52.2 3.0 52.2 3.0 Z M 66.5 3.2 C 66.3 3.3 66.8 3.1 67.0 3.2 C 66.7 3.1 66.8 3.0 66.5 3.0 C 66.6 3.0 66.6 3.0 66.4 3.0 C 66.4 3.1 66.8 3.1 66.5 3.2 C 66.5 3.2 66.5 3.2 66.5 3.2 Z M 76.3 3.2 C 76.4 3.3 76.9 3.2 77.2 3.2 C 77.1 3.0 76.5 3.3 76.4 3.1 C 76.2 3.1 76.5 3.2 76.3 3.2 C 76.3 3.2 76.3 3.2 76.3 3.2 Z M 56.0 3.1 C 56.1 3.1 56.0 3.1 56.0 3.1 C 56.0 3.0 56.2 3.1 56.4 3.0 C 56.2 3.0 56.4 2.9 56.4 2.8 C 56.5 2.8 56.6 2.8 56.6 2.8 C 56.6 3.0 57.2 2.6 56.6 2.6 C 56.7 2.7 56.6 2.7 56.4 2.8 C 56.1 2.7 55.9 2.8 55.8 2.6 C 55.6 2.7 55.5 2.7 55.3 2.7 C 55.2 2.6 55.0 2.6 55.2 2.4 C 54.7 2.4 55.0 2.7 54.7 2.7 C 54.3 2.6 54.9 2.6 54.8 2.5 C 54.7 2.5 54.7 2.4 54.7 2.4 C 54.6 2.4 54.6 2.5 54.7 2.5 C 54.6 2.6 54.3 2.7 54.4 2.5 C 54.2 2.6 54.7 2.9 55.0 2.8 C 55.1 2.7 55.1 3.0 55.0 3.0 C 55.0 3.1 55.4 2.8 55.3 3.0 C 55.4 3.0 55.5 3.0 55.7 3.0 C 55.7 3.0 55.6 3.0 55.6 3.0 C 55.7 3.0 55.8 3.0 56.0 3.0 C 55.9 3.0 55.9 3.1 56.0 3.1 C 56.0 3.1 56.0 3.1 56.0 3.1 Z M 75.0 3.1 C 75.2 3.1 75.3 3.1 75.5 3.0 C 75.4 3.0 74.9 3.0 75.0 3.1 C 75.0 3.1 75.0 3.1 75.0 3.1 Z M 50.5 2.6 C 50.5 2.6 50.7 2.6 50.7 2.7 C 50.4 2.7 50.7 2.8 50.5 3.0 C 50.9 2.9 51.0 2.6 50.5 2.5 C 50.1 2.5 50.9 2.6 50.5 2.6 C 50.5 2.6 50.5 2.6 50.5 2.6 Z M 51.7 2.7 C 51.9 2.6 51.3 2.6 51.2 2.5 C 51.2 2.5 51.2 2.4 51.2 2.4 C 50.9 2.6 51.3 2.6 51.0 2.9 C 51.4 2.9 51.6 3.0 51.9 2.9 C 51.9 2.9 51.8 2.9 51.8 2.9 C 51.5 2.9 51.7 2.7 52.0 2.8 C 51.9 2.7 51.7 2.7 51.5 2.7 C 51.5 2.8 51.6 2.8 51.6 2.8 C 51.4 2.9 51.5 2.8 51.3 2.8 C 51.3 2.7 51.7 2.6 51.7 2.7 C 51.7 2.7 51.7 2.7 51.7 2.7 Z M 32.1 2.9 C 32.3 2.9 31.9 2.7 31.9 2.5 C 31.7 2.5 31.6 2.6 31.5 2.6 C 31.6 2.6 31.8 2.7 31.9 2.7 C 31.8 2.9 31.6 2.7 31.5 2.8 C 31.4 3.0 32.0 2.7 32.1 2.9 C 32.1 2.9 32.1 2.9 32.1 2.9 Z M 60.7 2.9 C 60.8 2.9 60.7 2.9 60.7 2.9 C 60.7 2.8 60.9 2.8 60.9 2.9 C 61.0 2.9 60.8 2.8 60.9 2.8 C 61.0 2.7 60.7 2.8 60.7 2.8 C 60.4 2.9 60.6 2.7 60.6 2.6 C 60.4 2.6 60.4 2.8 60.2 2.7 C 60.3 2.8 60.5 2.9 60.7 2.9 C 60.7 2.9 60.7 2.9 60.7 2.9 Z M 49.8 2.8 C 49.8 2.9 50.0 2.7 50.3 2.8 C 50.6 2.8 50.1 2.6 50.4 2.6 C 50.1 2.6 49.8 2.7 49.4 2.7 C 49.3 2.8 50.0 2.7 49.6 2.8 C 49.6 2.9 49.7 2.8 49.7 2.8 C 49.8 2.8 49.8 2.8 49.8 2.8 C 49.8 2.8 49.8 2.8 49.8 2.8 Z M 50.2 2.6 C 50.2 2.5 50.1 2.5 50.1 2.6 C 50.0 2.6 50.0 2.4 50.1 2.4 C 49.9 2.3 49.9 2.6 49.6 2.5 C 49.7 2.6 49.8 2.7 49.5 2.6 C 49.3 2.7 50.1 2.6 50.2 2.6 C 50.2 2.6 50.2 2.6 50.2 2.6 Z M 35.3 2.8 C 35.2 2.7 35.0 2.8 34.9 2.8 C 35.1 2.7 35.9 2.7 36.0 2.8 C 36.0 2.8 36.1 2.8 36.2 2.8 C 36.2 2.8 36.4 2.7 36.3 2.7 C 36.3 2.6 36.5 2.7 36.5 2.6 C 36.8 2.6 36.4 2.7 36.5 2.8 C 36.8 2.6 36.7 2.7 37.2 2.8 C 37.1 2.6 36.6 2.7 36.7 2.5 C 36.3 2.7 36.0 2.6 35.8 2.4 C 36.1 2.6 34.9 2.7 34.4 2.7 C 34.4 2.6 34.2 2.6 34.0 2.6 C 33.8 2.4 33.9 2.7 34.2 2.6 C 34.2 2.7 33.7 2.7 33.6 2.7 C 33.8 2.8 33.7 2.8 33.8 2.8 C 34.2 2.8 33.8 2.8 33.9 2.7 C 34.0 2.7 34.1 2.7 34.2 2.7 C 33.7 2.9 34.9 2.7 34.5 2.8 C 34.9 2.7 34.9 2.9 35.3 2.8 C 35.3 2.8 35.3 2.8 35.3 2.8 Z M 44.6 2.8 C 44.7 2.8 45.0 2.7 45.0 2.8 C 45.4 2.7 45.1 2.6 45.5 2.6 C 45.5 2.6 45.3 2.6 45.3 2.6 C 45.1 2.6 45.0 2.6 45.0 2.8 C 44.8 2.7 44.8 2.8 44.6 2.8 C 44.7 2.8 44.7 2.7 44.9 2.7 C 45.0 2.6 44.9 2.6 44.6 2.6 C 44.5 2.7 44.6 2.8 44.6 2.8 C 44.6 2.8 44.6 2.8 44.6 2.8 Z M 45.6 2.7 C 45.7 2.7 45.7 2.7 45.7 2.8 C 45.9 2.9 45.8 2.6 45.9 2.6 C 46.0 2.7 46.0 2.7 46.0 2.8 C 46.2 2.7 46.3 2.7 46.4 2.8 C 46.7 2.7 46.1 2.7 46.0 2.6 C 45.8 2.6 45.9 2.7 45.6 2.7 C 45.6 2.7 45.6 2.7 45.6 2.7 Z M 48.6 2.8 C 48.7 2.9 48.8 2.7 48.9 2.8 C 48.8 2.7 48.5 2.7 48.7 2.6 C 48.4 2.5 48.4 2.5 48.1 2.6 C 47.9 2.5 48.1 2.7 48.4 2.6 C 48.4 2.7 48.2 2.7 48.2 2.7 C 48.0 2.5 47.5 2.9 47.8 2.7 C 47.9 2.7 48.0 2.8 48.0 2.8 C 48.1 2.7 48.8 2.8 48.6 2.8 C 48.6 2.8 48.6 2.8 48.6 2.8 Z M 58.6 2.7 C 58.2 2.7 58.2 2.7 57.8 2.7 C 57.8 2.6 57.8 2.6 57.9 2.6 C 57.8 2.6 57.6 2.6 57.5 2.6 C 57.5 2.6 57.6 2.6 57.6 2.6 C 57.9 2.7 57.6 2.7 57.6 2.8 C 58.0 2.9 58.3 2.7 58.5 2.8 C 58.6 2.8 58.4 2.8 58.6 2.7 C 58.6 2.7 58.6 2.7 58.6 2.7 Z M 11.5 2.7 C 11.4 2.7 11.2 2.7 11.3 2.8 C 11.4 2.8 11.5 2.7 11.7 2.7 C 11.4 2.7 11.4 2.5 11.1 2.5 C 11.2 2.6 11.2 2.7 11.5 2.7 C 11.5 2.7 11.5 2.7 11.5 2.7 Z M 47.6 2.8 C 47.6 2.7 47.6 2.7 47.7 2.6 C 47.7 2.6 47.4 2.6 47.4 2.5 C 47.3 2.5 47.3 2.6 47.2 2.6 C 47.3 2.7 47.5 2.6 47.4 2.8 C 47.3 2.8 47.3 2.7 47.3 2.7 C 47.1 2.8 47.4 2.8 47.6 2.8 C 47.6 2.8 47.6 2.8 47.6 2.8 Z M 31.1 2.8 C 31.2 2.7 31.1 2.7 31.0 2.7 C 31.3 2.6 30.8 2.5 30.8 2.4 C 30.9 2.5 31.3 2.4 31.4 2.4 C 31.5 2.4 31.4 2.3 31.7 2.3 C 31.6 2.2 31.3 2.3 31.4 2.4 C 31.3 2.2 31.0 2.4 31.0 2.2 C 30.5 2.2 30.4 2.3 30.4 2.4 C 30.8 2.4 30.6 2.6 31.0 2.6 C 31.0 2.6 30.9 2.6 30.8 2.6 C 30.8 2.7 31.0 2.7 31.1 2.8 C 31.1 2.8 31.1 2.8 31.1 2.8 Z M 41.4 2.8 C 41.7 2.8 41.7 2.7 41.6 2.6 C 41.6 2.6 41.4 2.6 41.2 2.6 C 41.3 2.7 41.6 2.6 41.4 2.8 C 41.4 2.8 41.4 2.8 41.4 2.8 Z M 32.7 2.6 C 32.7 2.6 32.8 2.6 32.8 2.6 C 33.0 2.6 33.1 2.7 33.2 2.7 C 33.3 2.7 33.3 2.6 33.3 2.6 C 33.0 2.7 33.1 2.5 32.8 2.5 C 32.8 2.6 32.8 2.6 32.7 2.6 C 32.7 2.6 32.7 2.6 32.7 2.6 Z M 39.3 2.7 C 39.5 2.7 39.4 2.6 39.3 2.6 C 39.5 2.5 39.9 2.6 40.0 2.6 C 40.1 2.5 39.6 2.5 40.1 2.4 C 40.0 2.4 39.5 2.4 39.3 2.4 C 39.3 2.3 39.7 2.3 39.7 2.2 C 39.3 2.2 39.0 2.3 39.0 2.5 C 39.4 2.5 39.2 2.6 39.3 2.7 C 39.3 2.7 39.3 2.7 39.3 2.7 Z M 38.9 2.6 C 38.9 2.7 39.0 2.6 39.1 2.6 C 38.9 2.5 38.8 2.5 38.3 2.5 C 38.3 2.5 38.3 2.5 38.3 2.6 C 38.2 2.6 38.0 2.6 38.0 2.6 C 38.4 2.7 38.5 2.6 39.0 2.6 C 39.0 2.6 38.9 2.6 38.9 2.6 C 38.9 2.6 38.9 2.6 38.9 2.6 Z M 52.2 2.6 C 52.1 2.5 51.9 2.5 51.7 2.4 C 51.7 2.6 51.9 2.6 52.2 2.6 C 52.2 2.6 52.2 2.6 52.2 2.6 Z M 32.3 2.5 C 32.0 2.6 32.5 2.5 32.4 2.4 C 32.2 2.4 31.9 2.3 31.9 2.2 C 31.5 2.4 32.3 2.4 32.3 2.5 C 32.3 2.5 32.3 2.5 32.3 2.5 Z M 34.1 2.2 C 34.2 2.3 34.2 2.4 34.1 2.3 C 33.8 2.3 34.3 2.4 33.9 2.4 C 34.1 2.5 34.5 2.5 34.7 2.4 C 34.7 2.3 34.3 2.4 34.3 2.3 C 34.3 2.2 34.3 2.2 34.4 2.2 C 34.3 2.2 34.2 2.3 34.1 2.2 C 34.1 2.2 34.1 2.2 34.1 2.2 Z M 35.6 2.4 C 35.4 2.4 35.2 2.3 34.9 2.3 C 35.1 2.4 35.2 2.5 35.6 2.4 C 35.6 2.4 35.6 2.4 35.6 2.4 Z M 16.7 2.3 C 17.0 2.3 16.8 2.1 16.7 2.1 C 16.5 2.1 16.5 2.2 16.2 2.2 C 16.3 2.3 16.6 2.1 16.7 2.3 C 16.7 2.3 16.7 2.3 16.7 2.3 Z M 15.9 2.2 C 15.8 2.1 15.5 2.2 15.5 2.1 C 15.3 2.3 14.9 1.9 15.0 2.1 C 14.9 2.1 14.8 2.1 14.7 2.1 C 14.9 2.3 15.6 2.2 15.9 2.2 C 15.9 2.2 15.9 2.2 15.9 2.2 Z M 37.3 2.2 C 37.5 2.2 37.2 2.0 37.5 2.0 C 37.5 2.0 37.0 2.0 37.3 1.9 C 36.9 1.8 37.3 2.2 37.3 2.2 C 37.3 2.2 37.3 2.2 37.3 2.2 Z M 42.1 2.1 C 42.1 2.2 42.5 2.1 42.6 2.1 C 42.6 2.1 42.5 2.1 42.4 2.1 C 42.5 2.0 42.5 2.0 42.6 2.0 C 42.6 1.9 42.3 2.1 42.1 2.1 C 42.1 2.1 42.1 2.1 42.1 2.1 Z M 36.8 4.3 C 36.6 4.2 36.4 4.1 36.3 4.2 C 36.1 4.1 36.4 4.1 36.2 4.0 C 35.9 4.1 36.0 4.0 35.6 4.0 C 35.7 3.9 35.3 3.9 35.3 3.8 C 35.4 3.8 35.7 3.9 35.8 3.8 C 35.6 3.8 35.7 3.7 35.8 3.8 C 36.1 3.8 35.4 3.9 35.8 4.0 C 35.9 3.8 36.4 4.1 36.8 4.1 C 36.6 4.2 37.0 4.3 36.8 4.3 C 36.8 4.3 36.8 4.3 36.8 4.3 Z M 35.0 4.0 C 34.7 4.0 34.6 3.8 34.7 3.8 C 34.7 3.9 34.9 3.9 35.0 3.8 C 34.9 3.8 34.8 3.8 34.9 3.8 C 35.3 3.8 35.2 3.9 35.3 4.0 C 35.0 4.0 35.0 3.9 34.9 4.0 C 34.9 4.0 35.0 4.0 35.0 4.0 C 35.0 4.0 35.0 4.0 35.0 4.0 Z M 29.7 2.0 C 29.7 2.1 29.8 2.0 29.9 2.0 C 29.9 2.2 30.4 1.9 30.5 2.0 C 30.4 2.1 30.1 2.1 30.0 2.2 C 30.1 2.2 30.2 2.2 30.3 2.2 C 30.3 2.3 30.0 2.3 29.9 2.4 C 29.9 2.3 29.7 2.4 29.7 2.3 C 30.1 2.3 29.5 2.0 29.7 2.0 C 29.7 2.0 29.7 2.0 29.7 2.0 Z M 39.5 2.0 C 39.6 1.9 39.2 1.6 39.5 1.5 C 39.6 1.6 39.7 1.7 39.7 1.8 C 39.9 1.8 40.0 1.9 40.1 1.8 C 40.6 2.1 39.8 1.7 39.5 2.0 C 39.5 2.0 39.5 2.0 39.5 2.0 Z M 41.1 1.9 C 41.1 2.0 41.3 2.0 41.2 2.1 C 41.0 2.0 40.4 2.2 40.6 2.1 C 40.8 2.0 40.8 1.9 41.1 1.9 C 41.1 1.9 41.1 1.9 41.1 1.9 Z M 82.2 3.0 C 81.8 3.1 81.7 2.9 81.9 2.8 C 81.8 2.9 82.3 2.9 82.2 3.0 C 82.2 3.0 82.2 3.0 82.2 3.0 Z M 70.6 4.9 C 70.9 5.0 71.1 4.9 71.1 5.0 C 70.8 5.1 70.9 5.0 70.6 5.0 C 70.6 5.0 70.4 5.1 70.4 5.0 C 70.6 5.0 70.5 5.0 70.6 4.9 C 70.6 4.9 70.6 4.9 70.6 4.9 Z M 47.2 4.8 C 47.2 4.8 47.4 4.8 47.3 4.9 C 47.0 4.9 46.7 5.0 46.4 5.0 C 46.4 5.0 46.4 4.9 46.4 4.9 C 46.9 4.9 47.0 4.8 47.2 4.8 C 47.2 4.8 47.2 4.8 47.2 4.8 Z M 47.8 5.0 C 47.9 4.9 47.7 4.8 47.9 4.8 C 47.9 4.9 48.3 5.0 48.1 5.0 C 48.0 5.0 48.0 5.0 47.8 5.0 C 47.8 5.0 47.8 5.0 47.8 5.0 Z M 31.1 4.4 C 30.8 4.4 31.2 4.5 31.2 4.5 C 31.0 4.5 30.8 4.5 30.7 4.4 C 30.9 4.5 31.0 4.3 31.1 4.4 C 31.1 4.4 31.1 4.4 31.1 4.4 Z M 34.8 4.1 C 35.3 4.1 35.1 4.3 35.6 4.3 C 35.4 4.4 34.9 4.4 34.8 4.5 C 34.8 4.4 34.7 4.4 34.7 4.3 C 34.9 4.3 34.9 4.4 35.1 4.4 C 35.0 4.2 35.0 4.3 35.1 4.2 C 34.9 4.2 34.8 4.2 34.8 4.2 C 34.8 4.1 34.6 4.1 34.8 4.1 C 34.8 4.1 34.8 4.1 34.8 4.1 Z M 31.2 4.0 C 31.0 4.1 30.8 3.9 31.0 3.9 C 31.0 4.0 31.1 3.9 31.2 4.0 C 30.9 4.0 31.4 4.0 31.3 4.1 C 31.1 4.1 31.0 4.2 31.1 4.2 C 31.0 4.2 30.8 4.3 30.8 4.2 C 30.9 4.2 31.0 4.2 31.0 4.2 C 30.9 4.2 30.9 4.2 30.9 4.1 C 31.1 4.1 31.1 4.1 31.2 4.0 C 31.2 4.0 31.2 4.0 31.2 4.0 Z M 32.6 4.0 C 32.3 4.0 32.3 3.9 32.2 3.8 C 32.5 3.9 32.6 4.0 32.9 4.1 C 32.6 4.1 32.3 4.2 32.2 4.2 C 32.3 4.1 32.6 4.1 32.6 4.0 C 32.6 4.0 32.6 4.0 32.6 4.0 Z M 108.0 3.8 C 107.8 3.7 107.6 3.7 107.4 3.6 C 107.3 3.7 107.8 4.0 107.5 3.9 C 107.3 3.9 107.5 3.7 107.2 3.7 C 107.5 3.9 106.3 3.9 106.3 3.7 C 106.4 3.7 106.5 3.7 106.5 3.6 C 106.9 3.6 107.1 3.5 107.5 3.5 C 107.7 3.6 108.4 3.7 108.8 3.5 C 109.1 3.8 109.6 3.5 109.9 3.7 C 110.0 3.6 109.6 3.5 109.9 3.5 C 110.1 3.7 110.0 3.7 110.2 3.8 C 110.3 3.7 110.2 3.6 110.3 3.6 C 110.3 3.7 110.5 3.7 110.5 3.7 C 110.0 3.7 110.6 3.9 110.1 3.9 C 110.0 3.9 110.3 3.7 109.8 3.7 C 109.7 3.8 109.5 3.8 109.5 3.9 C 109.4 3.9 109.3 3.9 109.2 4.0 C 109.4 3.8 108.6 4.0 108.9 3.8 C 109.0 3.8 109.2 3.9 109.4 3.8 C 109.3 3.7 109.1 3.7 108.7 3.8 C 108.6 3.7 108.8 3.7 108.6 3.6 C 108.4 3.7 108.7 3.8 108.5 3.9 C 108.6 3.9 108.7 3.9 108.7 3.9 C 108.3 3.8 108.2 3.9 107.9 3.9 C 108.1 3.8 107.7 3.8 108.0 3.8 C 108.0 3.8 108.0 3.8 108.0 3.8 Z M 111.6 3.6 C 111.7 3.6 111.8 3.6 111.9 3.6 C 112.0 3.8 111.6 3.8 111.8 3.9 C 111.4 3.9 111.8 3.7 111.6 3.6 C 111.6 3.6 111.6 3.6 111.6 3.6 Z M 109.6 3.2 C 109.5 3.1 109.6 3.4 109.4 3.4 C 109.7 3.3 109.9 3.3 109.9 3.4 C 109.7 3.4 109.5 3.4 109.2 3.4 C 109.5 3.3 108.9 3.3 108.8 3.2 C 109.1 3.1 109.2 3.1 109.5 3.1 C 109.5 3.1 109.9 3.2 109.6 3.2 C 109.6 3.2 109.6 3.2 109.6 3.2 Z M 110.4 3.0 C 110.5 3.1 110.9 3.1 110.8 3.2 C 110.6 3.2 110.5 3.2 110.5 3.3 C 110.3 3.3 110.3 3.3 110.1 3.3 C 110.0 3.1 110.3 3.2 110.4 3.1 C 110.4 3.1 110.3 3.1 110.4 3.0 C 110.4 3.0 110.4 3.0 110.4 3.0 Z M 9.2 2.3 C 9.3 2.4 8.9 2.4 8.8 2.3 C 8.9 2.4 8.8 2.5 8.6 2.5 C 8.7 2.4 8.3 2.4 8.1 2.2 C 8.0 2.4 8.3 2.4 8.0 2.4 C 7.7 2.4 7.5 2.5 7.1 2.5 C 7.0 2.4 7.2 2.3 7.3 2.3 C 7.0 2.3 7.1 2.2 6.9 2.2 C 6.9 2.3 6.8 2.3 6.7 2.2 C 7.0 2.2 6.2 2.1 6.6 2.0 C 6.6 2.1 6.7 2.1 6.8 2.0 C 6.7 2.2 7.2 2.2 7.3 2.2 C 7.5 2.0 8.0 2.1 8.6 2.2 C 8.6 2.2 8.4 2.3 8.6 2.3 C 8.6 2.2 8.8 2.2 8.9 2.2 C 8.9 2.3 9.0 2.3 9.1 2.3 C 9.1 2.3 9.1 2.3 9.2 2.3 C 9.2 2.3 9.2 2.3 9.2 2.3 Z M 91.7 2.5 C 91.7 2.3 91.1 2.4 90.9 2.4 C 90.9 2.2 92.1 2.3 91.7 2.5 C 91.7 2.5 91.7 2.5 91.7 2.5 Z M 95.6 2.3 C 95.4 2.3 95.5 2.4 95.4 2.4 C 95.4 2.3 95.0 2.6 95.0 2.4 C 95.2 2.3 95.3 2.3 95.6 2.3 C 95.6 2.3 95.6 2.3 95.6 2.3 Z M 99.2 2.4 C 98.9 2.4 99.3 2.4 99.3 2.5 C 99.0 2.5 98.8 2.5 98.8 2.4 C 99.0 2.4 99.2 2.3 99.2 2.4 C 99.2 2.4 99.2 2.4 99.2 2.4 Z M 93.8 2.2 C 93.6 2.2 94.0 2.0 94.0 2.1 C 93.7 2.1 94.2 2.2 94.4 2.2 C 94.4 2.3 94.3 2.3 94.4 2.4 C 94.1 2.5 94.3 2.3 94.1 2.3 C 93.9 2.4 94.1 2.3 94.1 2.4 C 94.0 2.4 93.9 2.4 93.8 2.4 C 93.8 2.4 93.8 2.3 93.8 2.2 C 93.9 2.2 94.0 2.2 94.0 2.2 C 93.9 2.2 93.9 2.2 93.8 2.2 C 93.8 2.2 93.8 2.2 93.8 2.2 Z M 4.0 2.0 C 3.8 2.1 4.0 2.1 4.1 2.1 C 4.1 2.1 4.2 1.8 4.4 2.0 C 4.0 2.1 4.5 2.1 4.3 2.2 C 4.2 2.1 4.0 2.2 3.8 2.2 C 3.7 2.1 3.9 1.9 4.0 2.0 C 4.0 2.0 4.0 2.0 4.0 2.0 Z M 4.7 2.1 C 4.7 2.1 4.6 2.1 4.5 2.1 C 4.6 2.0 4.5 2.0 4.6 1.9 C 4.6 2.0 5.1 2.0 4.8 2.0 C 4.5 2.0 4.9 2.1 5.0 2.1 C 4.9 2.1 4.6 2.3 4.6 2.2 C 4.7 2.2 4.7 2.2 4.7 2.1 C 4.7 2.1 4.7 2.1 4.7 2.1 Z M 11.2 2.0 C 11.2 1.9 11.0 1.9 11.0 1.8 C 11.5 1.9 11.9 1.9 12.2 1.9 C 11.9 1.9 11.9 2.0 12.1 2.0 C 11.8 2.0 11.8 2.1 11.7 2.0 C 11.9 1.9 11.5 2.0 11.2 2.0 C 11.2 2.0 11.2 2.0 11.2 2.0 Z M 11.2 2.0 " fill="#71AFE1"></path></g></svg>