<?xml version="1.0" encoding="UTF-8" standalone="no"?><svg xmlns="http://www.w3.org/2000/svg" xmlns:xlink="http://www.w3.org/1999/xlink" clip-rule="evenodd" stroke-miterlimit="4.00" viewBox="0 0 7 95"><desc>SVG generated by Keynote</desc><defs></defs><g transform="matrix(1.00, 0.00, -0.00, -1.00, 0.0, 95.0)"><path d="M 5.0 51.9 C 5.0 51.9 4.9 51.8 4.9 51.7 C 4.9 51.7 4.9 51.8 4.8 51.8 C 4.9 51.9 4.9 52.0 4.9 52.2 C 4.9 52.2 4.9 52.1 4.9 52.0 C 4.9 51.9 5.0 52.0 5.0 51.9 C 5.0 51.9 5.0 51.9 5.0 51.9 Z M 4.7 29.1 C 4.7 29.2 4.8 29.1 4.8 29.0 C 4.8 29.0 4.8 29.0 4.8 28.9 C 4.9 28.9 4.9 29.1 4.9 29.2 C 4.9 29.6 4.7 29.3 4.7 29.1 C 4.7 29.1 4.7 29.1 4.7 29.1 Z M 4.6 7.5 C 4.6 7.2 4.5 7.6 4.5 7.6 C 4.4 7.4 4.2 7.6 4.2 7.4 C 4.3 7.3 4.3 7.2 4.4 7.2 C 4.4 7.3 4.4 7.4 4.4 7.4 C 4.4 7.3 4.4 7.2 4.5 7.1 C 4.5 7.4 4.6 7.2 4.7 7.1 C 4.6 7.4 4.8 7.4 4.6 7.5 C 4.6 7.5 4.6 7.5 4.6 7.5 Z M 4.4 77.5 C 4.4 77.6 4.4 77.7 4.3 77.7 C 4.3 77.6 4.3 77.5 4.3 77.4 C 4.3 77.4 4.2 77.5 4.2 77.4 C 4.3 77.2 4.5 77.3 4.5 77.4 C 4.4 77.4 4.5 77.7 4.4 77.5 C 4.4 77.5 4.4 77.5 4.4 77.5 Z M 4.2 68.4 C 4.2 68.1 4.0 68.4 4.1 68.1 C 4.2 68.1 4.3 68.1 4.3 68.3 C 4.3 68.3 4.2 68.4 4.2 68.4 C 4.2 68.4 4.2 68.4 4.2 68.4 Z M 3.7 16.6 C 3.8 16.6 3.8 16.4 3.9 16.5 C 3.9 16.6 3.9 16.7 3.9 16.8 C 3.8 16.8 3.7 16.8 3.7 16.6 C 3.7 16.6 3.7 16.6 3.7 16.6 Z M 3.5 5.1 C 3.6 4.7 3.4 4.4 3.5 4.5 C 3.7 4.3 3.9 4.7 3.7 4.7 C 3.6 4.8 3.5 5.4 3.5 5.1 C 3.5 5.1 3.5 5.1 3.5 5.1 Z M 2.6 27.2 C 2.7 26.8 2.4 26.9 2.5 26.7 C 2.6 26.8 2.6 26.8 2.6 26.8 C 2.6 26.8 2.6 26.7 2.7 26.7 C 2.7 26.9 2.7 27.1 2.6 27.2 C 2.6 27.2 2.6 27.2 2.6 27.2 Z M 4.7 57.4 C 4.7 57.5 4.7 57.5 4.8 57.5 C 4.8 57.7 4.9 57.7 4.8 57.9 C 4.6 57.9 4.7 57.7 4.7 57.5 C 4.7 57.5 4.7 57.4 4.7 57.4 C 4.7 57.4 4.7 57.4 4.7 57.4 Z M 4.3 64.5 C 4.4 64.5 4.4 64.3 4.4 64.6 C 4.3 64.8 4.2 64.6 4.1 64.3 C 4.1 64.3 4.0 64.3 3.9 64.3 C 3.9 64.4 3.9 64.5 3.9 64.6 C 4.1 64.6 3.8 64.8 3.9 65.2 C 3.8 65.0 3.6 65.2 3.7 65.0 C 3.6 65.0 3.6 64.9 3.5 64.9 C 3.6 65.0 3.6 65.3 3.7 65.2 C 3.7 65.3 3.7 65.5 3.7 65.5 C 3.5 65.6 3.6 65.3 3.5 65.4 C 3.5 65.5 3.5 65.5 3.5 65.5 C 3.5 65.5 3.6 65.5 3.6 65.6 C 3.5 65.9 3.4 65.6 3.4 65.9 C 3.5 66.0 3.5 65.8 3.6 65.9 C 3.7 66.0 3.6 66.0 3.6 66.2 C 3.6 66.2 3.5 66.1 3.5 66.2 C 3.7 66.3 3.4 66.5 3.5 66.7 C 3.8 66.6 3.5 66.8 3.7 67.0 C 3.7 67.0 3.5 66.9 3.5 67.1 C 3.8 67.0 3.7 67.7 4.0 67.1 C 4.0 67.4 4.2 67.5 4.3 67.3 C 4.2 67.8 4.4 67.7 4.4 67.9 C 4.4 68.1 4.3 67.8 4.2 67.9 C 4.2 67.6 4.2 67.7 4.2 67.5 C 4.2 67.5 4.1 67.5 4.1 67.5 C 4.2 67.7 4.0 67.9 3.9 67.8 C 3.9 67.7 4.0 67.8 4.0 67.6 C 3.9 67.7 4.1 67.5 3.9 67.5 C 3.8 67.6 3.7 67.2 3.6 67.5 C 3.7 67.5 3.8 67.5 3.8 67.5 C 3.8 67.6 3.8 67.7 3.8 67.8 C 3.7 67.9 3.6 67.8 3.6 67.9 C 3.6 68.0 3.6 68.1 3.7 68.1 C 3.7 67.9 3.8 67.7 3.8 68.0 C 3.6 67.9 3.8 68.4 3.6 68.2 C 3.5 68.5 3.7 68.6 3.6 68.7 C 3.6 68.8 3.7 68.7 3.7 68.9 C 3.6 69.2 3.8 69.2 3.7 69.6 C 3.9 69.6 3.6 69.6 3.6 69.7 C 3.7 69.7 3.8 69.7 3.8 69.7 C 3.7 69.9 3.7 70.2 3.8 70.5 C 3.7 70.6 3.6 70.5 3.7 70.8 C 3.8 71.0 3.6 71.3 3.8 71.6 C 3.7 71.6 3.7 71.8 3.8 71.9 C 3.7 71.9 3.6 71.8 3.6 72.0 C 3.7 72.1 3.7 71.9 3.8 72.1 C 3.7 72.1 3.9 72.4 3.7 72.4 C 3.7 72.3 3.7 72.2 3.6 72.1 C 3.6 72.2 3.6 72.2 3.5 72.3 C 3.7 72.3 3.6 72.5 3.5 72.5 C 3.6 72.5 3.7 72.6 3.7 72.6 C 3.7 72.8 3.7 72.9 3.7 72.9 C 3.7 73.1 3.6 72.8 3.6 73.0 C 3.9 73.1 3.6 73.3 3.8 73.7 C 3.7 73.7 3.6 73.9 3.6 74.1 C 3.7 74.2 3.7 73.9 3.7 73.9 C 3.7 74.3 3.8 73.8 3.8 74.1 C 3.8 74.6 3.8 74.9 3.7 75.4 C 3.8 75.4 3.8 75.8 3.8 75.8 C 3.8 75.7 3.6 76.1 3.6 76.2 C 3.8 76.3 4.0 76.5 4.1 76.6 C 4.0 76.6 4.0 76.6 3.8 76.6 C 3.8 76.9 3.9 77.1 3.7 77.3 C 3.8 77.3 3.9 77.4 3.9 77.5 C 3.8 77.5 3.7 77.4 3.7 77.4 C 3.7 77.5 3.6 77.5 3.6 77.7 C 4.0 77.8 3.5 78.1 3.9 78.2 C 3.9 78.4 3.7 78.4 3.7 78.6 C 3.8 78.6 3.9 78.6 3.9 78.6 C 3.9 78.5 3.8 78.4 3.9 78.3 C 3.9 78.6 4.2 77.7 4.4 78.2 C 4.3 78.3 4.2 78.2 4.2 78.3 C 4.3 78.6 4.4 78.4 4.4 78.3 C 4.4 78.5 4.4 78.7 4.5 78.6 C 4.6 79.0 4.5 78.7 4.4 78.9 C 4.5 79.7 4.6 80.7 4.4 81.8 C 4.6 81.8 4.4 82.4 4.3 82.6 C 4.5 82.9 4.5 83.2 4.3 83.3 C 4.5 83.4 4.3 83.7 4.4 83.7 C 4.4 83.6 4.4 83.5 4.5 83.6 C 4.4 84.1 4.4 84.7 4.5 85.0 C 4.3 85.2 4.3 85.5 4.4 85.7 C 4.4 85.7 4.3 85.5 4.3 85.7 C 4.4 85.7 4.5 86.1 4.4 86.2 C 4.4 86.1 4.2 85.9 4.2 86.1 C 4.3 86.1 4.3 86.3 4.4 86.3 C 4.3 86.6 4.4 86.7 4.3 86.9 C 4.3 86.8 4.3 86.6 4.2 86.6 C 4.3 86.8 4.3 86.9 4.2 87.0 C 4.4 87.0 4.3 87.2 4.3 87.5 C 4.3 87.6 4.2 87.6 4.2 87.8 C 4.3 87.9 4.4 87.5 4.4 87.7 C 4.3 87.7 4.3 88.0 4.4 87.9 C 4.3 88.2 4.4 88.3 4.3 88.5 C 4.3 88.3 4.2 88.5 4.1 88.5 C 4.2 88.6 4.1 88.7 4.2 88.7 C 4.2 88.7 4.2 88.6 4.3 88.5 C 4.2 88.7 4.4 88.8 4.3 88.9 C 4.3 88.8 4.2 88.8 4.2 88.9 C 4.4 88.9 4.3 89.5 4.2 89.3 C 4.2 89.3 4.2 89.0 4.2 89.0 C 4.1 89.1 4.2 89.4 4.1 89.3 C 4.0 89.2 4.1 89.2 4.1 88.9 C 4.0 88.9 4.0 88.8 3.9 88.7 C 3.9 89.1 4.1 89.1 3.9 89.2 C 4.0 89.3 4.1 89.3 4.1 89.5 C 4.0 89.9 3.9 89.6 3.9 89.7 C 3.9 90.0 4.1 89.9 4.2 89.8 C 4.2 90.0 4.3 90.1 4.3 90.4 C 4.2 90.4 4.1 90.3 4.1 90.2 C 4.1 90.2 4.2 90.0 4.1 90.0 C 4.0 90.0 3.9 90.2 3.9 90.6 C 4.0 90.5 3.9 90.5 3.9 90.8 C 4.1 90.7 3.9 91.0 4.0 91.0 C 4.1 90.9 4.1 90.8 4.1 90.7 C 4.1 90.7 4.2 90.8 4.2 90.9 C 4.2 90.9 4.2 91.0 4.2 91.2 C 4.1 91.2 4.1 91.1 4.0 91.0 C 4.0 91.2 4.1 91.2 4.1 91.3 C 4.0 91.4 3.8 91.4 3.6 91.4 C 3.6 91.2 3.6 91.0 3.5 91.2 C 3.5 90.7 3.7 91.2 3.7 91.0 C 3.5 90.8 3.8 91.0 3.7 90.6 C 3.7 90.5 3.7 90.5 3.7 90.5 C 3.6 90.5 3.5 90.7 3.5 90.5 C 3.6 90.4 3.6 90.3 3.7 90.2 C 3.6 90.2 3.5 90.5 3.5 90.2 C 3.6 90.0 3.7 90.1 3.7 89.9 C 3.7 89.9 3.7 89.8 3.6 89.8 C 3.6 90.2 3.5 89.8 3.5 90.0 C 3.4 89.7 3.6 89.9 3.6 89.8 C 3.5 89.7 3.7 89.4 3.5 89.4 C 3.6 89.5 3.5 89.8 3.4 89.8 C 3.5 89.5 3.3 88.6 3.5 88.9 C 3.5 88.8 3.3 88.1 3.4 88.1 C 3.4 88.4 3.5 88.3 3.5 88.4 C 3.4 88.0 3.5 87.8 3.3 87.3 C 3.3 87.8 3.1 87.5 3.0 87.7 C 3.0 87.9 3.0 88.0 3.1 88.1 C 3.2 88.0 3.1 87.8 3.1 87.7 C 3.2 87.7 3.3 87.7 3.4 87.7 C 3.3 88.3 3.4 88.5 3.3 88.8 C 3.3 88.6 3.2 89.2 3.1 88.9 C 3.2 88.8 3.2 88.6 3.3 88.4 C 3.2 88.4 3.2 88.4 3.1 88.4 C 3.1 88.3 3.2 88.2 3.1 88.1 C 3.1 88.4 3.0 88.6 3.1 88.8 C 3.1 88.8 3.1 88.8 3.0 88.8 C 3.0 88.8 3.0 88.9 3.0 88.9 C 3.0 88.8 3.0 88.6 2.9 88.6 C 2.9 88.8 2.8 88.9 2.8 89.1 C 2.6 89.1 2.5 89.4 2.4 89.0 C 2.6 89.0 2.6 88.8 2.7 88.8 C 2.7 88.7 2.7 88.5 2.6 88.4 C 2.5 88.5 2.5 88.7 2.4 88.7 C 2.4 88.5 2.3 88.4 2.4 88.3 C 2.5 88.6 2.5 88.1 2.7 88.0 C 2.6 88.0 2.6 88.1 2.5 88.1 C 2.5 87.9 2.6 87.8 2.4 87.7 C 2.4 87.4 2.5 87.5 2.5 87.3 C 2.3 87.4 2.4 87.1 2.3 87.3 C 2.2 86.9 2.4 87.1 2.4 87.0 C 2.4 86.9 2.4 86.9 2.3 86.8 C 2.4 86.6 2.4 86.3 2.6 86.2 C 2.6 86.1 2.6 86.0 2.6 85.9 C 2.6 85.8 2.5 85.8 2.5 85.7 C 2.5 85.7 2.6 85.6 2.5 85.6 C 2.4 86.0 2.3 85.9 2.2 86.3 C 2.3 86.3 2.3 86.4 2.3 86.3 C 2.4 86.6 2.3 86.7 2.3 86.9 C 2.2 87.0 2.0 87.0 2.1 87.3 C 2.0 87.2 2.0 87.3 1.9 87.2 C 2.0 87.0 2.1 86.9 2.1 86.7 C 2.1 86.7 2.0 86.7 2.0 86.6 C 2.0 86.5 2.1 86.4 2.0 86.3 C 2.1 86.3 2.1 86.3 2.1 86.4 C 2.2 86.0 2.0 86.1 2.1 85.8 C 2.0 85.9 2.0 86.1 1.9 85.9 C 1.9 85.6 2.0 85.5 2.0 85.4 C 2.0 85.4 1.9 85.4 1.9 85.3 C 2.0 85.1 2.2 85.8 2.3 85.4 C 2.2 85.4 2.3 85.0 2.3 85.0 C 2.4 85.1 2.3 85.3 2.4 85.3 C 2.4 84.7 2.6 85.3 2.6 84.7 C 2.6 84.7 2.5 84.7 2.5 84.7 C 2.5 84.9 2.4 84.9 2.3 84.9 C 2.3 85.1 2.1 85.2 2.2 85.4 C 2.0 85.3 2.2 85.2 2.2 85.0 C 2.1 85.0 2.1 85.2 1.9 85.2 C 2.0 84.7 1.9 84.6 2.1 84.1 C 1.9 84.2 2.0 83.8 1.9 83.9 C 2.0 84.3 1.6 84.1 1.6 84.2 C 1.6 84.5 1.8 84.4 1.9 84.5 C 1.8 84.6 1.7 84.6 1.5 84.5 C 1.6 84.3 1.6 84.3 1.5 84.1 C 1.6 83.9 1.8 83.8 1.9 84.0 C 1.9 84.0 1.8 83.7 1.9 83.6 C 1.9 83.9 2.0 83.6 2.0 83.8 C 2.1 83.5 2.0 83.1 2.1 82.8 C 2.0 82.9 2.0 82.7 1.9 82.7 C 2.0 83.0 1.8 83.1 1.7 83.4 C 1.7 83.3 1.7 83.3 1.6 83.4 C 1.7 83.1 1.6 83.0 1.7 82.7 C 1.7 82.7 1.6 82.7 1.6 82.7 C 1.7 82.4 1.6 82.5 1.5 82.2 C 1.6 82.1 1.8 82.2 1.9 82.3 C 1.9 82.1 1.9 81.7 1.8 81.9 C 1.8 81.7 2.0 81.7 1.9 81.5 C 1.8 81.5 1.8 81.7 1.7 81.6 C 1.6 81.4 1.8 81.5 1.7 81.3 C 1.8 81.3 1.9 81.3 1.9 81.1 C 1.8 81.2 1.9 81.0 1.8 81.0 C 1.8 81.1 1.7 81.2 1.7 81.2 C 1.7 80.8 1.7 80.7 1.7 80.4 C 1.8 80.5 1.9 80.4 1.9 80.6 C 1.9 80.4 2.0 80.1 1.9 80.0 C 1.9 80.1 1.9 80.3 1.8 80.4 C 1.8 79.8 1.6 79.4 1.8 78.9 C 1.8 79.0 1.8 79.1 1.9 79.1 C 1.9 79.1 1.9 79.0 1.9 79.0 C 1.9 79.2 1.9 79.4 1.9 79.5 C 1.9 79.6 1.8 79.4 1.8 79.5 C 1.9 79.6 1.8 79.9 2.0 79.8 C 1.9 79.5 2.0 79.2 2.2 79.0 C 2.0 78.8 2.0 79.0 1.7 78.7 C 1.8 78.7 1.8 78.7 1.9 78.6 C 1.7 78.7 1.8 78.3 1.8 78.2 C 1.9 78.4 2.0 78.9 2.1 78.6 C 1.8 78.8 2.2 78.0 1.9 78.2 C 1.9 77.8 2.1 77.9 1.9 77.8 C 2.0 77.8 2.1 77.8 2.1 77.7 C 2.1 77.6 2.0 77.6 2.0 77.5 C 1.9 78.0 1.8 77.9 1.7 78.2 C 1.7 78.1 1.7 78.1 1.7 78.1 C 1.7 78.1 1.7 78.1 1.7 78.0 C 1.8 78.0 1.6 77.8 1.7 77.7 C 1.7 77.8 1.8 77.9 1.8 77.8 C 1.8 77.4 1.9 77.5 2.0 77.0 C 1.9 77.1 1.9 76.9 1.9 76.7 C 1.9 76.4 2.1 76.6 2.1 76.2 C 1.8 76.3 2.1 75.9 1.9 75.5 C 2.1 75.5 2.2 75.0 2.0 74.9 C 2.1 74.9 2.1 74.7 2.1 74.6 C 2.1 74.6 2.2 74.7 2.2 74.6 C 2.2 74.5 2.0 74.6 2.0 74.5 C 2.1 74.3 2.2 74.3 2.2 74.1 C 2.1 74.1 2.1 74.2 2.0 74.1 C 2.1 73.8 2.1 73.6 1.9 73.8 C 1.9 73.5 2.2 73.6 2.1 73.3 C 2.1 73.4 2.0 73.4 2.0 73.3 C 2.1 73.1 2.2 73.1 2.2 73.1 C 2.1 73.0 2.1 73.0 2.1 72.8 C 2.1 72.8 2.0 72.8 2.0 72.8 C 2.0 72.7 2.0 72.5 2.0 72.4 C 2.0 72.7 2.1 72.6 2.1 72.7 C 2.2 72.5 2.3 72.0 2.1 72.4 C 2.1 72.1 2.3 72.2 2.2 72.0 C 2.1 72.1 2.2 72.0 2.2 71.7 C 2.0 71.8 2.2 71.6 2.1 71.4 C 2.1 71.4 2.0 71.4 2.0 71.2 C 2.1 71.3 2.1 71.2 2.1 71.0 C 2.0 71.0 1.9 71.3 1.9 71.0 C 2.0 70.8 2.1 70.8 2.1 70.6 C 2.3 70.5 2.2 70.8 2.3 70.8 C 2.2 70.6 2.3 70.5 2.3 70.2 C 2.1 70.3 2.0 69.6 1.9 70.0 C 1.9 69.9 1.8 69.7 1.9 69.6 C 1.9 69.7 2.0 69.5 2.1 69.6 C 2.0 69.4 2.1 69.1 2.0 69.1 C 2.1 69.4 1.9 69.4 1.9 69.5 C 1.8 69.0 1.8 68.6 2.0 68.7 C 1.9 68.7 1.9 68.6 1.9 68.6 C 1.9 68.7 1.7 68.8 1.7 68.7 C 1.8 68.7 1.9 68.6 1.9 68.4 C 1.8 68.4 2.0 67.8 1.8 67.9 C 1.9 68.2 1.7 68.4 1.6 68.2 C 1.7 68.0 1.8 67.7 1.9 67.8 C 1.9 67.7 1.8 67.6 1.8 67.5 C 1.7 67.5 1.7 67.7 1.6 67.6 C 1.6 67.5 1.6 67.3 1.6 67.3 C 1.6 67.6 1.7 67.1 1.8 67.5 C 1.8 67.3 1.8 67.2 1.9 67.1 C 1.8 67.1 1.8 67.0 1.8 67.0 C 1.9 67.1 1.8 67.3 1.7 67.2 C 1.6 66.9 1.8 67.0 1.8 66.7 C 1.7 66.7 1.5 66.3 1.6 66.2 C 1.6 66.5 1.7 66.1 1.7 66.3 C 1.7 66.6 1.8 66.7 1.9 66.8 C 2.0 66.7 2.0 66.4 1.9 66.4 C 1.9 66.6 1.9 66.6 1.9 66.7 C 1.9 66.7 1.8 66.6 1.8 66.5 C 1.9 66.4 1.8 66.1 1.9 66.3 C 1.9 66.1 2.0 65.8 1.9 65.6 C 1.9 65.9 1.8 66.0 1.7 66.1 C 1.7 65.9 1.8 65.7 1.7 65.7 C 1.6 65.7 1.7 66.0 1.6 66.1 C 1.5 65.8 1.8 65.5 1.5 65.8 C 1.6 65.6 1.6 65.4 1.6 65.4 C 1.6 65.5 1.8 65.4 1.8 65.3 C 1.8 65.1 1.8 65.0 1.7 65.0 C 1.8 65.2 1.6 65.4 1.6 65.2 C 1.7 65.2 1.6 65.1 1.6 65.1 C 1.7 65.0 1.6 64.8 1.7 64.7 C 1.6 64.7 1.6 64.9 1.5 64.9 C 1.5 64.7 1.3 64.5 1.5 64.4 C 1.5 64.5 1.5 64.6 1.5 64.6 C 1.7 64.2 1.9 64.1 1.9 63.6 C 2.0 63.7 2.0 63.7 2.0 63.7 C 2.0 63.4 2.1 63.2 2.2 63.2 C 2.2 63.0 2.1 62.9 2.0 62.8 C 2.0 63.0 2.1 63.1 2.0 63.2 C 2.0 63.1 1.7 63.4 1.7 63.4 C 1.8 63.8 1.6 63.8 1.7 64.2 C 1.5 64.1 1.6 64.4 1.5 64.3 C 1.7 64.0 1.5 63.7 1.6 63.2 C 1.7 63.3 1.8 63.3 1.9 63.1 C 1.9 62.8 1.8 63.0 1.8 62.7 C 1.9 62.6 1.9 62.8 1.9 62.6 C 1.9 62.5 1.9 62.3 2.0 62.2 C 2.0 62.6 2.1 62.2 2.2 62.4 C 2.2 62.3 2.2 62.2 2.2 62.1 C 2.1 62.5 2.1 61.8 1.9 62.1 C 1.9 61.6 2.3 62.0 2.2 61.7 C 2.1 61.9 2.1 61.6 2.1 61.3 C 2.2 61.3 2.3 61.0 2.3 60.8 C 2.2 60.9 2.2 61.0 2.1 60.8 C 2.1 60.9 2.1 61.1 2.1 61.2 C 2.1 61.2 2.1 61.2 2.0 61.3 C 2.0 61.0 1.9 61.1 1.9 61.0 C 2.0 60.9 2.0 60.8 2.0 60.7 C 2.0 60.7 2.0 60.6 1.9 60.6 C 1.9 61.0 1.8 60.6 1.7 60.8 C 1.7 60.9 1.9 60.8 1.9 61.0 C 1.7 61.2 1.7 60.9 1.6 60.8 C 1.5 60.9 1.7 61.1 1.5 61.2 C 1.4 61.0 1.5 60.7 1.5 60.4 C 1.3 60.4 1.5 59.9 1.3 59.9 C 1.4 59.9 1.4 59.8 1.5 59.7 C 1.3 59.7 1.5 59.6 1.5 59.5 C 1.4 59.5 1.4 59.5 1.3 59.6 C 1.4 59.2 1.4 59.2 1.3 58.8 C 1.4 58.7 1.5 58.6 1.6 58.6 C 1.6 58.7 1.6 58.8 1.7 58.9 C 1.7 58.3 1.3 58.7 1.5 58.3 C 1.5 58.3 1.3 58.6 1.3 58.4 C 1.5 58.0 1.3 57.6 1.7 57.6 C 1.8 57.3 1.5 57.1 1.7 56.9 C 1.7 56.8 1.7 56.8 1.6 56.8 C 1.5 56.9 1.5 57.0 1.4 57.1 C 1.5 57.3 1.4 57.3 1.5 57.2 C 1.6 57.4 1.5 57.5 1.4 57.6 C 1.3 57.3 1.4 56.9 1.3 56.9 C 1.3 56.8 1.4 56.7 1.5 56.6 C 1.4 56.6 1.4 56.1 1.5 56.1 C 1.5 56.4 1.6 56.7 1.7 56.4 C 1.6 55.7 1.8 55.4 1.7 54.8 C 1.8 54.7 1.9 54.8 1.9 54.7 C 1.8 54.7 1.7 54.6 1.7 54.6 C 1.7 54.4 1.8 54.3 1.7 54.0 C 1.9 54.0 1.9 54.0 2.0 53.9 C 1.9 53.8 1.6 53.5 1.7 53.4 C 1.7 53.5 1.8 53.3 1.8 53.2 C 1.7 53.3 2.0 52.5 1.8 52.7 C 1.8 52.4 1.8 52.3 1.9 52.3 C 1.9 52.1 1.8 52.1 1.8 51.9 C 2.0 51.9 1.9 51.3 1.9 51.2 C 1.9 51.4 2.1 51.4 2.1 51.3 C 2.0 51.2 1.9 50.7 1.9 50.6 C 2.0 50.6 2.1 50.6 2.1 50.9 C 2.1 50.5 1.9 50.5 1.8 50.3 C 2.0 50.3 1.9 50.1 1.8 50.1 C 1.9 50.0 1.9 50.1 2.0 50.1 C 2.0 49.9 2.1 49.9 2.1 49.7 C 1.9 49.7 2.0 49.5 2.0 49.4 C 1.9 49.4 1.9 49.3 1.9 49.1 C 2.1 49.4 2.1 48.1 1.9 48.4 C 1.8 48.1 2.1 48.1 2.1 47.8 C 2.0 47.8 2.0 47.6 1.9 47.8 C 1.9 47.5 2.1 47.7 2.0 47.3 C 1.9 47.5 2.1 47.0 1.9 47.1 C 2.1 47.0 1.8 46.7 2.0 46.5 C 1.9 46.5 1.9 46.4 1.9 46.4 C 1.8 46.3 1.8 46.7 1.8 46.5 C 1.9 46.2 1.9 46.3 2.0 46.3 C 1.9 45.6 2.0 44.7 2.0 43.9 C 2.0 44.0 1.9 44.0 1.9 43.8 C 2.1 43.6 2.0 42.7 1.9 42.5 C 2.1 42.4 1.9 42.0 2.0 41.9 C 2.0 42.0 2.1 42.2 2.1 42.0 C 2.0 41.8 2.1 41.7 2.0 41.5 C 2.1 41.4 2.0 40.8 2.2 41.1 C 2.2 41.0 2.2 40.9 2.3 40.8 C 2.1 40.8 2.1 40.7 2.1 40.9 C 2.2 40.4 2.0 40.3 2.1 39.9 C 2.1 39.8 2.0 40.1 2.0 39.9 C 2.0 39.9 2.0 39.9 2.1 39.9 C 2.1 39.8 2.0 39.7 2.1 39.7 C 2.1 39.7 2.1 39.9 2.3 39.9 C 2.2 39.7 2.4 39.5 2.3 39.5 C 2.2 39.7 2.0 39.5 2.1 39.4 C 2.2 39.5 2.1 38.7 2.1 38.5 C 2.2 38.4 2.1 38.8 2.2 38.7 C 2.2 38.3 2.2 38.3 2.1 38.3 C 2.1 38.0 2.2 37.9 2.1 37.6 C 2.2 37.4 2.2 37.7 2.2 37.5 C 2.2 37.4 2.1 37.4 2.1 37.2 C 2.4 36.8 1.9 35.8 2.3 35.3 C 2.2 35.5 2.2 35.2 2.2 35.0 C 2.2 34.9 2.3 35.0 2.3 34.9 C 2.2 34.9 2.2 34.8 2.2 34.6 C 2.2 34.6 2.3 34.7 2.3 34.6 C 2.2 34.5 2.3 34.3 2.2 34.2 C 2.4 34.1 2.3 34.4 2.4 34.5 C 2.5 34.1 2.3 34.0 2.4 33.7 C 2.4 33.8 2.5 33.6 2.5 33.5 C 2.4 33.6 2.4 33.3 2.3 33.5 C 2.3 33.4 2.3 33.2 2.3 33.2 C 2.3 33.2 2.3 33.4 2.3 33.4 C 2.3 33.2 2.5 33.0 2.3 32.9 C 2.3 33.0 2.3 33.1 2.2 33.1 C 2.2 33.1 2.1 33.0 2.1 32.9 C 2.4 33.2 2.3 32.5 2.2 32.5 C 2.4 32.4 2.4 32.4 2.5 32.4 C 2.5 32.1 2.3 32.1 2.3 32.0 C 2.4 32.0 2.6 32.1 2.6 31.8 C 2.5 31.9 2.5 31.6 2.3 31.7 C 2.3 31.0 2.4 30.8 2.4 30.4 C 2.4 30.4 2.4 30.6 2.3 30.4 C 2.4 30.3 2.4 30.1 2.5 30.0 C 2.4 29.9 2.4 30.0 2.3 29.9 C 2.5 29.6 2.6 29.7 2.7 29.4 C 2.6 29.1 2.7 29.2 2.5 29.0 C 2.5 29.1 2.5 29.2 2.5 29.1 C 2.6 28.9 2.7 28.8 2.7 28.8 C 2.7 28.9 2.7 29.0 2.7 29.1 C 2.8 29.1 2.8 29.3 2.9 29.2 C 2.8 29.4 2.8 29.6 2.8 29.9 C 3.0 29.8 2.9 30.2 3.0 30.0 C 3.0 29.7 3.0 29.6 3.0 29.3 C 2.9 29.4 3.0 29.1 3.0 29.0 C 2.9 29.0 2.9 28.8 2.8 28.8 C 2.8 28.6 2.9 28.6 2.9 28.4 C 2.9 28.3 3.0 28.4 3.0 28.3 C 2.9 28.2 3.0 28.1 3.0 28.0 C 2.9 28.1 3.0 27.7 2.9 27.7 C 2.9 27.8 2.9 27.9 2.8 28.0 C 2.8 27.6 2.7 27.9 2.6 28.0 C 2.7 27.9 2.8 28.1 2.7 28.1 C 2.6 27.8 2.5 28.6 2.6 28.3 C 2.6 28.0 2.5 28.0 2.5 27.8 C 2.8 27.5 2.9 27.9 3.1 27.6 C 3.0 27.4 3.0 27.2 2.9 27.2 C 2.9 27.2 3.0 27.1 3.0 27.1 C 2.9 27.0 2.9 27.3 2.8 27.1 C 2.9 27.0 3.0 27.1 3.0 26.8 C 2.9 26.7 2.9 27.1 2.8 26.9 C 3.0 26.7 2.8 27.0 2.7 26.7 C 2.8 26.7 2.8 26.6 2.8 26.5 C 2.8 26.5 2.9 26.5 2.9 26.4 C 2.7 26.4 3.0 26.3 3.0 26.1 C 2.8 26.0 2.9 26.3 2.8 26.3 C 2.9 26.0 2.8 25.9 2.8 25.8 C 2.9 26.0 2.9 25.5 3.0 25.5 C 2.8 25.5 2.9 25.4 2.8 25.1 C 3.0 25.1 2.9 24.8 3.0 24.7 C 3.0 24.7 2.9 24.6 2.9 24.6 C 2.9 24.7 2.9 24.8 2.8 24.7 C 2.8 24.7 2.8 24.6 2.8 24.5 C 2.9 24.4 3.1 24.7 3.1 24.2 C 2.9 24.2 2.9 24.0 2.9 23.9 C 2.7 23.9 2.9 24.1 2.8 24.1 C 2.7 23.9 2.8 23.7 2.9 23.6 C 2.8 23.3 2.9 22.9 2.8 22.5 C 2.9 22.4 2.9 22.9 3.0 22.6 C 3.0 22.4 2.9 22.5 2.9 22.3 C 3.4 22.5 3.0 21.1 3.2 21.0 C 3.1 21.0 3.2 20.6 3.0 20.6 C 3.1 20.9 3.0 21.1 2.9 21.2 C 3.0 21.4 3.0 21.0 3.1 21.2 C 3.0 21.2 3.1 21.6 2.9 21.5 C 2.9 21.2 2.8 21.7 2.7 21.4 C 2.7 21.1 2.6 20.5 2.7 20.6 C 2.7 20.6 2.7 20.8 2.7 20.8 C 2.8 20.4 2.7 20.2 2.6 20.1 C 2.7 19.9 2.5 19.3 2.6 19.4 C 2.7 19.4 2.6 19.8 2.7 19.7 C 2.8 19.1 2.7 19.1 2.7 18.6 C 2.6 18.8 2.5 18.2 2.6 18.2 C 2.7 18.2 2.8 18.1 2.7 17.8 C 2.8 17.9 2.8 17.7 2.9 17.6 C 2.8 17.5 2.8 17.7 2.7 17.7 C 2.7 17.5 2.7 17.4 2.7 17.3 C 2.7 17.2 2.8 17.3 2.8 17.2 C 2.7 17.0 2.6 16.5 2.7 16.5 C 2.8 16.8 2.8 16.2 2.9 16.5 C 2.9 16.4 3.0 16.4 2.9 16.3 C 2.9 16.3 2.8 16.3 2.8 16.3 C 2.8 16.0 3.0 16.1 3.0 15.9 C 2.9 15.9 2.9 15.8 2.9 15.7 C 2.9 15.8 2.9 15.8 2.9 16.0 C 2.7 15.8 2.8 16.2 2.7 16.2 C 2.6 15.9 2.8 15.9 2.8 15.8 C 2.7 15.5 2.8 15.6 2.8 15.2 C 2.8 15.2 2.8 15.3 2.7 15.3 C 2.7 14.9 3.0 14.9 2.9 14.6 C 2.9 14.7 3.0 15.0 3.0 14.8 C 3.0 14.5 2.8 14.5 2.8 14.2 C 2.9 14.2 2.9 14.2 2.9 14.1 C 2.9 14.0 2.8 14.0 2.7 13.9 C 2.8 13.9 2.8 13.7 2.7 13.6 C 2.8 13.5 2.9 13.7 2.9 13.6 C 2.9 13.3 2.6 13.2 2.7 13.0 C 2.8 13.0 2.8 12.8 2.7 12.6 C 2.9 12.6 2.9 12.1 2.9 11.9 C 2.8 11.9 2.8 11.6 2.7 11.7 C 2.7 11.8 2.7 11.9 2.6 11.9 C 2.6 11.6 2.9 11.5 2.7 11.3 C 2.8 11.2 2.8 11.0 2.9 10.8 C 2.8 10.8 2.7 11.2 2.7 11.0 C 2.8 11.0 2.7 10.9 2.7 10.8 C 2.8 10.9 2.9 10.7 2.9 10.6 C 2.8 10.4 3.0 10.0 2.9 10.2 C 2.8 9.9 3.1 10.1 3.1 9.8 C 2.9 10.0 2.9 9.6 2.8 9.8 C 2.7 9.5 3.0 9.5 3.0 9.6 C 3.1 9.3 2.9 9.3 3.0 9.1 C 2.9 9.3 2.8 8.8 2.9 9.0 C 3.0 9.1 3.0 8.8 3.0 8.7 C 2.9 8.8 2.9 8.7 2.9 8.9 C 2.8 8.7 2.8 8.4 2.9 8.2 C 2.9 7.9 2.9 7.6 3.0 7.8 C 3.0 7.5 3.0 7.6 3.0 7.4 C 2.9 7.4 2.9 7.4 2.9 7.4 C 2.9 7.1 3.0 7.2 3.0 6.7 C 3.1 6.8 3.1 6.5 3.2 6.4 C 3.2 6.6 3.2 6.7 3.1 6.9 C 3.2 6.9 3.2 6.8 3.3 6.9 C 3.2 6.9 3.2 7.0 3.2 7.0 C 3.3 6.7 3.4 7.4 3.3 7.2 C 3.3 7.2 3.3 7.2 3.3 7.1 C 3.2 7.2 3.2 7.2 3.1 7.1 C 3.1 7.3 3.0 7.4 3.1 7.4 C 3.2 7.4 3.1 7.3 3.2 7.3 C 3.3 7.6 3.0 7.4 3.1 7.7 C 3.2 7.7 3.2 7.6 3.3 7.5 C 3.3 7.8 3.3 8.0 3.2 8.1 C 3.3 8.3 3.3 8.1 3.4 8.2 C 3.3 8.3 3.2 8.3 3.2 8.5 C 3.3 8.7 3.3 8.4 3.3 8.6 C 3.3 8.8 3.2 8.4 3.1 8.7 C 3.3 8.7 3.1 9.0 3.2 9.0 C 3.2 8.8 3.4 8.8 3.3 8.9 C 3.1 9.3 3.6 9.6 3.3 9.9 C 3.3 9.9 3.3 10.0 3.3 10.0 C 3.4 9.7 3.4 9.3 3.6 9.2 C 3.6 9.0 3.5 9.0 3.4 9.0 C 3.6 8.7 3.6 8.7 3.8 8.9 C 3.8 9.3 3.7 9.5 3.7 9.8 C 3.8 10.0 3.7 9.8 3.8 9.8 C 3.7 10.7 4.0 10.0 4.0 10.3 C 3.9 10.3 3.9 10.4 3.9 10.5 C 3.9 10.5 3.9 10.6 3.9 10.7 C 4.0 10.6 4.0 10.6 4.0 10.6 C 4.1 10.8 3.9 10.7 3.9 10.7 C 3.9 10.6 3.9 10.4 3.8 10.4 C 3.8 10.6 3.7 10.8 3.9 11.0 C 3.7 11.2 3.5 10.9 3.4 11.0 C 3.3 10.9 3.7 11.1 3.7 11.3 C 3.7 11.6 3.9 11.6 3.9 11.9 C 3.7 11.9 3.8 11.6 3.7 11.6 C 3.7 11.7 3.7 11.7 3.7 11.8 C 3.7 12.0 3.8 12.0 3.8 12.1 C 3.7 12.2 3.8 12.2 3.8 12.3 C 3.8 12.5 3.7 12.2 3.7 12.4 C 3.7 12.6 3.8 12.8 3.8 12.8 C 3.8 12.8 3.7 12.8 3.7 12.9 C 3.8 13.1 3.8 13.2 3.9 12.9 C 3.9 13.2 3.9 13.3 4.0 13.2 C 4.0 12.9 4.0 12.8 4.2 12.6 C 4.1 12.5 4.2 12.4 4.2 12.3 C 4.0 12.4 4.2 12.1 4.1 12.0 C 4.0 12.1 4.0 12.2 4.0 12.3 C 4.0 11.9 4.0 11.9 3.8 11.5 C 3.9 11.5 3.9 11.5 3.9 11.5 C 4.0 11.6 4.0 11.9 4.1 11.9 C 4.2 11.6 4.0 11.6 4.1 11.3 C 4.1 11.2 4.0 11.5 4.0 11.3 C 4.1 11.2 4.1 11.1 4.2 10.9 C 4.2 10.7 4.1 10.6 4.1 10.5 C 4.1 10.5 4.2 10.5 4.1 10.3 C 4.1 10.3 4.1 10.5 4.0 10.3 C 4.2 9.9 4.3 9.6 4.2 9.2 C 4.2 9.4 4.1 9.7 4.1 9.5 C 4.1 9.3 4.0 9.1 4.1 8.9 C 4.1 8.8 4.1 9.1 4.3 9.0 C 4.3 8.9 4.3 8.7 4.3 8.6 C 4.2 8.6 4.3 8.4 4.1 8.5 C 4.1 8.6 4.3 8.7 4.2 8.7 C 3.9 8.6 4.3 8.1 4.3 7.8 C 4.3 7.6 4.2 8.0 4.2 7.8 C 4.1 7.6 4.4 7.5 4.5 7.8 C 4.4 7.9 4.6 8.0 4.4 8.0 C 4.4 8.1 4.4 8.2 4.5 8.2 C 4.5 8.1 4.6 8.1 4.6 8.0 C 4.6 8.2 4.8 8.2 4.7 8.3 C 4.7 8.2 4.6 8.2 4.6 8.2 C 4.6 8.6 4.5 8.7 4.5 9.0 C 4.5 8.8 4.5 9.0 4.6 9.0 C 4.6 8.8 4.7 8.4 4.7 8.6 C 4.6 8.8 4.9 8.9 4.8 9.0 C 4.8 8.9 4.7 9.0 4.7 8.9 C 4.7 9.1 4.6 9.0 4.5 9.2 C 4.7 9.7 4.4 10.1 4.7 11.0 C 4.7 11.3 4.6 10.7 4.5 10.7 C 4.5 10.8 4.5 10.8 4.5 10.9 C 4.6 10.9 4.5 11.0 4.6 11.1 C 4.5 11.1 4.6 11.5 4.5 11.7 C 4.5 11.7 4.6 11.7 4.6 11.8 C 4.4 12.4 4.6 13.4 4.5 13.9 C 4.6 13.9 4.6 14.1 4.7 14.1 C 4.6 14.4 4.5 14.3 4.7 14.7 C 4.7 14.9 4.6 14.6 4.5 14.6 C 4.6 15.2 4.5 15.7 4.6 16.1 C 4.7 16.3 4.5 16.1 4.5 16.5 C 4.7 16.5 4.4 17.2 4.6 17.3 C 4.7 17.5 4.4 17.9 4.6 17.7 C 4.6 18.1 4.4 17.9 4.4 18.0 C 4.4 18.2 4.7 17.9 4.7 18.1 C 4.6 18.1 4.7 18.3 4.5 18.5 C 4.6 18.3 4.5 18.2 4.5 18.1 C 4.5 18.3 4.4 18.3 4.5 18.5 C 4.5 18.7 4.6 19.3 4.5 19.4 C 4.5 19.4 4.6 19.4 4.6 19.3 C 4.6 19.5 4.5 19.7 4.6 19.7 C 4.6 20.0 4.5 20.2 4.6 20.4 C 4.7 20.5 4.5 20.3 4.5 20.8 C 4.6 20.8 4.6 21.6 4.5 21.8 C 4.7 21.9 4.5 21.9 4.5 22.0 C 4.6 22.0 4.6 22.0 4.6 22.1 C 4.6 22.1 4.6 22.2 4.6 22.2 C 4.4 22.2 4.7 22.5 4.5 22.6 C 4.5 22.5 4.4 22.5 4.4 22.6 C 4.6 22.6 4.4 22.9 4.5 22.9 C 4.5 22.8 4.5 22.6 4.6 22.7 C 4.6 23.0 4.5 22.8 4.5 23.1 C 4.5 23.0 4.6 22.9 4.6 23.1 C 4.6 23.3 4.6 23.1 4.5 23.2 C 4.5 23.3 4.6 23.5 4.6 23.6 C 4.6 23.6 4.5 23.7 4.5 23.7 C 4.5 24.1 4.6 25.1 4.4 25.5 C 4.5 25.5 4.5 25.6 4.6 25.5 C 4.5 25.8 4.6 25.8 4.5 26.0 C 4.6 26.0 4.6 26.0 4.7 26.0 C 4.7 26.3 4.5 26.1 4.5 26.3 C 4.8 26.3 4.4 26.4 4.4 26.6 C 4.5 26.6 4.5 26.7 4.6 26.7 C 4.6 27.0 4.4 27.0 4.5 27.2 C 4.5 27.2 4.9 27.1 5.0 27.2 C 4.9 27.2 4.9 27.3 4.9 27.4 C 4.7 27.3 4.3 27.3 4.4 27.7 C 4.4 27.5 4.4 27.4 4.5 27.5 C 4.6 27.8 4.5 27.9 4.5 28.1 C 4.6 28.2 4.6 28.0 4.7 28.0 C 4.8 28.1 4.8 28.1 4.8 28.1 C 4.8 28.4 4.7 28.4 4.8 28.7 C 4.7 28.7 4.7 28.6 4.7 28.5 C 4.6 28.5 4.6 28.5 4.5 28.4 C 4.6 28.3 4.7 28.4 4.7 28.2 C 4.6 28.2 4.6 28.2 4.5 28.2 C 4.5 28.4 4.4 28.8 4.5 28.8 C 4.5 28.8 4.5 28.6 4.7 28.7 C 4.6 29.0 4.5 29.1 4.4 29.3 C 4.5 29.8 4.4 30.5 4.6 30.4 C 4.6 30.7 4.6 30.6 4.5 30.9 C 4.7 30.8 4.6 31.1 4.7 31.1 C 4.7 30.8 4.7 30.9 4.7 30.6 C 4.7 30.6 4.8 30.7 4.8 30.8 C 4.8 30.8 4.7 30.9 4.7 31.1 C 4.8 31.1 4.9 30.9 4.9 31.1 C 4.9 31.1 4.9 31.2 4.9 31.3 C 4.8 31.3 4.7 31.3 4.7 31.3 C 4.6 31.1 4.6 31.0 4.5 30.9 C 4.5 31.0 4.5 31.0 4.5 31.1 C 4.6 31.1 4.5 31.5 4.6 31.5 C 4.6 31.4 4.6 31.3 4.7 31.4 C 4.6 31.4 4.6 31.7 4.7 31.7 C 4.7 31.5 4.7 31.6 4.9 31.4 C 4.9 31.7 4.7 31.7 4.8 32.1 C 4.7 32.1 4.6 32.1 4.5 32.0 C 4.3 32.2 4.5 32.8 4.5 32.9 C 4.5 32.8 4.4 32.7 4.3 32.9 C 4.4 32.9 4.4 33.0 4.4 33.0 C 4.7 33.1 4.8 32.9 4.9 32.8 C 4.9 32.9 5.0 33.0 4.9 33.1 C 4.9 33.2 4.7 33.0 4.7 33.2 C 4.9 33.2 4.7 33.5 4.8 33.6 C 4.8 33.5 4.9 33.4 4.9 33.5 C 4.8 33.5 4.9 33.7 4.8 33.8 C 4.7 33.5 4.6 33.5 4.6 33.4 C 4.6 33.5 4.5 33.2 4.5 33.5 C 4.6 33.6 4.7 33.7 4.7 34.0 C 4.7 34.1 4.5 34.0 4.5 34.2 C 4.7 34.1 4.7 34.4 4.6 34.2 C 4.6 34.3 4.6 34.4 4.5 34.5 C 4.7 34.3 4.8 35.1 4.9 35.0 C 4.7 35.0 4.6 35.0 4.5 35.0 C 4.7 35.2 4.6 35.4 4.6 35.8 C 4.7 35.8 4.6 35.8 4.6 36.0 C 4.7 36.0 4.7 35.9 4.7 36.0 C 4.7 36.2 4.7 36.2 4.6 36.2 C 4.6 36.4 4.6 36.5 4.6 36.6 C 4.6 36.6 4.7 36.5 4.7 36.5 C 4.6 37.0 4.7 37.3 4.7 37.8 C 4.8 37.6 4.6 37.5 4.6 37.7 C 4.6 37.8 4.6 37.9 4.7 37.9 C 4.8 37.8 4.7 37.9 4.7 38.1 C 4.8 38.3 4.9 38.0 4.9 38.2 C 4.8 38.3 4.8 38.2 4.7 38.3 C 4.7 38.4 4.7 38.5 4.7 38.6 C 4.8 38.4 4.9 38.6 4.9 38.7 C 4.8 38.6 4.7 38.7 4.8 39.0 C 4.7 39.0 4.7 38.9 4.7 39.0 C 4.6 39.0 4.8 39.3 4.7 39.5 C 4.7 39.4 4.7 39.4 4.6 39.4 C 4.7 39.6 4.5 39.8 4.5 39.9 C 4.6 39.8 4.7 39.9 4.8 39.8 C 4.7 40.0 4.8 40.2 4.7 40.3 C 4.7 40.1 4.4 40.3 4.4 40.5 C 4.5 40.6 4.5 40.3 4.7 40.3 C 4.8 40.4 4.6 40.7 4.7 40.7 C 4.8 40.7 4.7 40.6 4.7 40.6 C 4.8 40.7 4.8 40.5 4.8 40.7 C 4.7 40.7 4.9 40.8 4.9 40.9 C 4.8 41.0 4.7 41.2 4.7 41.3 C 4.8 41.3 4.8 41.2 4.8 41.2 C 4.9 41.6 4.7 41.7 4.9 42.1 C 4.8 42.2 4.8 42.2 4.7 42.4 C 4.8 42.4 4.8 42.4 4.9 42.5 C 4.8 42.7 4.7 42.9 4.7 43.1 C 4.6 43.0 4.5 42.9 4.5 43.2 C 4.6 43.3 4.6 43.1 4.6 43.2 C 4.6 43.2 4.6 43.3 4.6 43.3 C 4.7 43.3 4.7 43.3 4.7 43.3 C 4.7 43.2 4.7 43.2 4.7 43.1 C 4.8 43.1 4.8 43.1 4.9 43.0 C 4.9 43.4 4.7 43.3 4.8 43.6 C 4.6 43.6 4.5 43.7 4.4 43.5 C 4.5 43.7 4.5 43.8 4.6 43.9 C 4.6 43.6 4.8 43.7 4.8 43.7 C 4.8 43.8 4.9 43.8 4.9 43.9 C 4.8 44.1 4.7 43.7 4.7 44.1 C 4.8 43.8 4.8 44.3 4.7 44.5 C 4.8 44.4 4.8 44.4 4.9 44.5 C 4.9 44.9 4.5 44.9 4.7 45.2 C 4.7 45.1 4.7 45.3 4.6 45.3 C 4.6 45.1 4.6 45.0 4.5 44.9 C 4.5 45.0 4.5 45.0 4.5 45.1 C 4.5 45.1 4.5 45.2 4.5 45.3 C 4.6 45.3 4.8 45.3 4.9 45.5 C 4.8 45.5 4.7 45.5 4.7 45.6 C 4.8 45.7 4.5 45.5 4.6 45.9 C 4.6 45.8 4.7 45.8 4.8 45.8 C 4.8 46.0 4.8 46.0 4.8 46.2 C 4.6 46.3 4.6 46.1 4.5 46.0 C 4.5 46.2 4.6 46.3 4.5 46.5 C 4.6 46.3 4.7 46.5 4.7 46.6 C 4.7 46.8 4.5 46.6 4.5 46.8 C 4.6 46.9 4.7 47.0 4.7 46.9 C 4.7 47.2 4.8 47.1 4.8 47.3 C 4.7 47.4 4.7 47.3 4.8 47.2 C 4.7 47.2 4.7 47.2 4.7 47.3 C 4.8 47.4 4.8 47.8 4.9 48.0 C 4.6 48.3 4.9 48.8 4.8 49.1 C 4.7 49.0 4.8 49.6 4.7 49.8 C 4.7 49.9 5.0 50.2 4.9 50.1 C 4.7 50.1 4.7 50.3 4.7 50.5 C 4.7 50.5 4.8 50.5 4.8 50.5 C 4.8 50.9 4.7 50.9 4.6 51.0 C 4.7 51.5 4.5 52.0 4.7 52.5 C 4.5 52.6 4.5 52.8 4.5 53.1 C 4.6 53.1 4.6 53.3 4.6 53.5 C 4.7 53.5 4.7 53.7 4.7 53.7 C 4.7 53.5 4.9 53.6 4.9 53.5 C 4.8 53.7 5.1 53.9 4.9 54.1 C 4.9 53.8 4.7 53.7 4.5 53.7 C 4.6 54.0 4.5 54.2 4.4 54.3 C 4.5 54.3 4.6 54.3 4.6 54.2 C 4.6 54.3 4.6 54.4 4.6 54.5 C 4.5 54.5 4.5 54.4 4.5 54.5 C 4.5 54.6 4.6 54.7 4.6 54.8 C 4.5 54.8 4.5 54.6 4.5 54.6 C 4.4 55.0 4.7 54.8 4.7 55.1 C 4.6 55.1 4.5 55.1 4.5 55.3 C 4.5 55.4 4.6 55.4 4.7 55.6 C 4.6 55.8 4.5 55.6 4.5 55.8 C 4.5 55.8 4.5 55.9 4.5 56.0 C 4.5 56.0 4.6 56.0 4.6 56.1 C 4.5 56.1 4.5 56.3 4.6 56.4 C 4.5 56.4 4.4 56.6 4.5 56.7 C 4.5 56.7 4.5 56.5 4.5 56.5 C 4.5 56.7 4.5 56.8 4.6 56.9 C 4.3 57.0 4.5 57.3 4.4 57.6 C 4.5 57.9 4.6 57.6 4.7 57.9 C 4.6 58.1 4.5 57.9 4.4 57.9 C 4.4 57.9 4.3 58.2 4.4 58.2 C 4.5 58.2 4.5 58.1 4.5 58.1 C 4.6 58.3 4.5 58.3 4.4 58.4 C 4.5 58.4 4.5 58.5 4.6 58.5 C 4.7 59.1 4.5 59.1 4.4 59.3 C 4.4 59.3 4.4 59.5 4.5 59.5 C 4.4 59.3 4.5 59.1 4.5 59.3 C 4.5 59.3 4.5 59.6 4.6 59.7 C 4.6 59.6 4.6 59.4 4.7 59.5 C 4.8 59.8 4.5 59.7 4.7 59.9 C 4.6 59.9 4.6 59.8 4.5 59.7 C 4.5 59.8 4.5 60.0 4.5 60.0 C 4.5 59.9 4.4 59.9 4.3 59.8 C 4.4 60.0 4.3 60.3 4.5 60.1 C 4.4 60.4 4.5 60.7 4.6 60.5 C 4.6 60.7 4.5 60.6 4.6 60.8 C 4.4 60.8 4.4 60.7 4.3 60.9 C 4.3 60.9 4.4 61.0 4.5 61.0 C 4.5 61.4 4.3 61.5 4.2 61.7 C 4.4 61.5 4.3 61.7 4.4 61.9 C 4.3 62.0 4.2 61.9 4.2 62.2 C 4.4 61.9 4.3 62.6 4.5 62.5 C 4.4 62.9 4.4 62.9 4.3 63.3 C 4.2 63.2 4.2 63.1 4.2 63.0 C 4.3 63.1 4.3 62.6 4.2 62.6 C 4.2 62.6 4.2 62.6 4.1 62.6 C 4.2 62.9 4.1 63.2 4.1 63.3 C 4.1 63.3 4.2 63.5 4.3 63.4 C 4.2 63.7 4.4 64.0 4.3 64.2 C 4.3 64.1 4.2 64.0 4.2 64.0 C 4.2 64.1 4.2 64.3 4.3 64.3 C 4.4 64.0 4.4 64.0 4.3 63.9 C 4.4 64.0 4.5 63.6 4.5 63.9 C 4.3 63.8 4.6 64.3 4.5 64.2 C 4.4 63.9 4.4 64.5 4.3 64.5 C 4.3 64.5 4.3 64.5 4.3 64.5 Z M 4.5 9.1 C 4.5 8.9 4.4 9.2 4.4 9.4 C 4.4 9.3 4.5 9.3 4.5 9.3 C 4.5 9.2 4.5 9.2 4.5 9.1 C 4.5 9.1 4.5 9.1 4.5 9.1 Z M 2.8 11.7 C 2.9 11.8 2.8 11.4 2.9 11.2 C 2.8 11.3 2.8 11.3 2.8 11.2 C 2.7 11.4 2.9 11.5 2.8 11.7 C 2.8 11.7 2.8 11.7 2.8 11.7 Z M 3.2 20.6 C 3.2 20.6 3.2 20.4 3.2 20.4 C 3.2 20.3 3.2 20.3 3.1 20.3 C 3.1 20.1 3.3 20.4 3.2 20.1 C 3.0 20.0 2.9 20.6 3.2 20.6 C 3.2 20.6 3.2 20.6 3.2 20.6 Z M 2.5 61.4 C 2.4 61.5 2.3 61.3 2.2 61.3 C 2.3 61.8 2.4 61.5 2.4 62.1 C 2.4 62.0 2.5 62.0 2.5 62.0 C 2.4 61.7 2.4 61.7 2.6 61.7 C 2.6 61.6 2.3 61.6 2.5 61.4 C 2.5 61.4 2.5 61.4 2.5 61.4 Z M 1.9 67.2 C 2.0 67.2 2.0 67.1 2.1 67.1 C 2.0 66.9 2.0 67.0 2.0 66.7 C 1.8 66.8 1.9 67.0 1.9 67.2 C 1.9 67.2 1.9 67.2 1.9 67.2 Z M 1.7 82.5 C 1.7 82.6 1.7 82.6 1.7 82.7 C 1.7 82.6 1.9 82.8 1.9 82.5 C 1.8 82.5 1.8 82.5 1.8 82.6 C 1.8 82.5 1.8 82.4 1.7 82.4 C 1.7 82.5 1.7 82.5 1.7 82.5 C 1.7 82.5 1.7 82.5 1.7 82.5 Z M 2.8 88.9 C 2.7 88.6 2.4 89.4 2.8 88.9 C 2.8 88.9 2.8 88.9 2.8 88.9 C 2.8 88.9 2.8 88.9 2.8 88.9 Z M 4.2 88.3 C 4.2 88.3 4.2 88.2 4.2 88.2 C 4.2 87.9 4.3 88.2 4.3 88.1 C 4.3 87.8 4.1 88.2 4.1 87.9 C 4.0 87.9 4.2 88.1 4.2 88.3 C 4.2 88.3 4.2 88.3 4.2 88.3 Z M 4.7 44.9 C 4.6 44.6 4.5 44.6 4.4 44.5 C 4.4 44.7 4.4 44.8 4.3 44.9 C 4.4 45.1 4.4 44.7 4.4 44.6 C 4.5 44.6 4.5 44.9 4.7 44.9 C 4.7 44.9 4.7 44.9 4.7 44.9 Z M 4.6 44.1 C 4.6 44.0 4.5 43.9 4.4 43.9 C 4.4 44.0 4.4 44.0 4.3 44.1 C 4.4 44.2 4.5 44.0 4.6 44.1 C 4.6 44.1 4.6 44.1 4.6 44.1 Z M 4.5 45.5 C 4.5 45.4 4.4 45.4 4.3 45.4 C 4.4 45.6 4.3 45.6 4.3 45.7 C 4.3 45.7 4.4 45.7 4.4 45.7 C 4.4 45.6 4.4 45.6 4.4 45.5 C 4.4 45.5 4.5 45.5 4.5 45.5 C 4.5 45.5 4.5 45.5 4.5 45.5 Z M 4.5 43.4 C 4.5 43.0 4.3 42.8 4.1 42.5 C 4.1 42.8 4.4 43.1 4.3 43.3 C 4.3 43.6 4.4 43.2 4.4 43.2 C 4.5 43.3 4.5 43.3 4.5 43.4 C 4.5 43.4 4.5 43.4 4.5 43.4 Z M 4.5 39.7 C 4.6 39.6 4.4 39.5 4.4 39.2 C 4.4 39.3 4.3 39.3 4.3 39.3 C 4.2 39.7 4.5 39.4 4.5 39.7 C 4.5 39.7 4.5 39.7 4.5 39.7 Z M 4.4 37.7 C 4.4 37.5 4.3 37.8 4.2 37.7 C 4.2 37.9 4.2 38.2 4.3 38.2 C 4.3 37.9 4.3 37.9 4.4 37.7 C 4.4 37.7 4.4 37.7 4.4 37.7 Z M 4.4 36.2 C 4.3 36.0 4.2 36.3 4.1 36.2 C 4.1 36.3 4.2 36.3 4.2 36.3 C 4.2 36.4 4.2 36.5 4.2 36.6 C 4.3 36.5 4.3 36.2 4.4 36.2 C 4.4 36.2 4.4 36.2 4.4 36.2 Z M 4.3 50.7 C 4.3 50.6 4.1 50.6 4.2 50.3 C 4.2 50.8 3.8 50.5 3.9 51.1 C 3.9 51.0 4.0 51.1 3.9 51.1 C 4.0 51.4 4.0 50.9 4.1 51.1 C 4.1 51.0 4.0 51.1 3.9 50.9 C 4.1 50.7 4.1 50.6 4.3 50.7 C 4.3 50.7 4.3 50.7 4.3 50.7 Z M 3.7 51.1 C 3.7 51.3 4.0 51.3 3.8 51.4 C 3.8 51.4 3.9 51.4 3.9 51.4 C 3.9 51.4 3.9 51.4 3.9 51.4 C 3.9 51.2 3.9 51.1 3.7 51.1 C 3.7 51.1 3.7 51.1 3.7 51.1 Z M 3.7 49.6 C 3.8 49.9 3.7 50.0 3.8 50.1 C 3.6 50.2 3.9 50.3 3.7 50.4 C 3.8 50.7 3.8 50.5 3.9 50.4 C 4.0 50.7 3.8 50.5 3.8 50.7 C 4.0 50.8 3.9 50.4 4.1 50.5 C 4.1 50.3 4.0 50.3 3.9 50.2 C 4.0 50.1 4.0 50.1 4.1 50.1 C 4.0 49.9 4.1 49.9 4.1 49.7 C 4.0 49.6 4.0 49.7 4.0 49.9 C 3.9 49.7 3.8 49.6 3.9 49.4 C 4.0 49.5 4.1 48.7 3.9 48.8 C 3.8 49.0 3.9 49.0 4.0 49.0 C 3.9 49.3 3.9 49.5 3.7 49.6 C 3.7 49.6 3.7 49.6 3.7 49.6 Z M 4.1 45.6 C 4.1 45.5 4.1 45.4 4.1 45.3 C 4.3 45.3 4.2 45.5 4.3 45.3 C 4.3 45.2 4.3 45.1 4.3 45.0 C 4.2 45.1 4.1 45.4 4.0 45.3 C 4.0 45.3 4.0 45.4 3.9 45.6 C 4.1 45.4 4.0 45.8 3.9 46.0 C 4.1 46.0 3.9 46.3 4.0 46.4 C 4.1 46.3 4.0 46.0 4.0 45.8 C 4.0 45.9 4.3 45.4 4.1 45.6 C 4.1 45.6 4.1 45.6 4.1 45.6 Z M 3.8 51.8 C 3.9 51.8 3.9 52.0 3.9 51.9 C 4.0 51.9 3.9 52.1 4.1 52.0 C 4.1 52.1 4.1 52.2 4.1 52.3 C 4.0 52.2 4.0 52.0 3.9 52.1 C 4.0 52.3 3.9 52.2 3.9 52.4 C 3.8 52.3 3.8 52.4 3.6 52.3 C 3.7 52.4 3.7 52.6 3.8 52.6 C 3.8 52.9 3.6 52.5 3.6 52.9 C 3.5 52.9 3.5 52.6 3.6 52.5 C 3.5 52.4 3.5 53.0 3.5 53.3 C 3.6 53.0 3.7 53.2 3.8 53.4 C 3.8 53.5 3.7 53.4 3.7 53.5 C 3.7 53.7 3.7 53.7 3.7 53.8 C 3.7 53.9 3.8 53.8 3.8 53.9 C 3.8 54.1 3.6 53.9 3.7 54.2 C 3.8 54.0 3.9 54.2 3.8 54.6 C 3.9 54.6 3.9 54.4 3.9 54.4 C 4.0 54.5 3.9 54.7 3.8 54.8 C 3.9 54.9 3.9 54.8 3.9 54.7 C 3.9 54.8 4.0 54.8 4.0 54.9 C 4.0 54.5 4.0 53.9 4.2 53.1 C 4.1 53.3 4.1 53.1 4.1 52.9 C 4.2 52.9 4.2 53.0 4.2 53.1 C 4.3 52.8 4.0 52.8 4.1 52.4 C 4.1 52.2 4.2 52.7 4.3 52.4 C 4.2 52.3 4.1 52.2 4.3 52.1 C 4.2 51.8 4.1 51.8 4.1 51.4 C 4.0 51.6 3.7 51.7 3.8 51.9 C 3.8 51.9 3.8 51.8 3.8 51.8 C 3.8 51.8 3.8 51.8 3.8 51.8 Z M 4.3 44.1 C 4.3 43.9 4.2 43.8 4.3 43.8 C 4.2 43.6 4.1 43.8 4.1 43.9 C 4.1 44.0 4.2 44.0 4.3 44.1 C 4.3 44.1 4.3 44.1 4.3 44.1 Z M 4.3 19.6 C 4.3 19.3 4.1 19.3 4.1 19.1 C 4.1 19.3 4.0 19.3 4.0 19.7 C 4.1 19.7 4.2 19.7 4.3 19.6 C 4.3 19.6 4.3 19.6 4.3 19.6 Z M 4.2 44.9 C 4.3 45.0 4.0 44.6 4.1 44.6 C 4.1 44.4 4.1 44.8 3.9 44.6 C 4.0 44.8 3.9 44.9 4.0 45.2 C 4.1 45.2 4.1 45.0 4.1 44.8 C 4.1 44.7 4.1 44.9 4.2 44.9 C 4.2 44.9 4.2 44.9 4.2 44.9 Z M 3.9 22.7 C 4.0 22.9 4.2 22.5 4.2 22.4 C 4.1 22.4 4.1 22.5 3.9 22.7 C 3.9 22.7 3.9 22.7 3.9 22.7 Z M 4.1 17.5 C 3.9 17.4 4.1 17.9 3.9 17.7 C 3.9 17.9 3.9 17.9 4.0 17.9 C 3.9 18.0 4.0 18.2 3.9 18.1 C 3.8 18.2 3.9 17.8 3.7 17.9 C 3.7 17.8 3.8 17.8 3.8 17.7 C 3.8 17.9 3.9 17.8 3.9 17.5 C 3.8 17.5 3.9 17.6 3.8 17.5 C 3.8 17.5 3.9 17.3 4.1 17.3 C 4.1 17.1 3.9 17.2 3.9 16.9 C 3.8 17.0 3.8 17.2 3.8 17.3 C 3.7 17.2 3.9 16.9 3.7 17.0 C 3.8 17.0 3.9 16.8 4.0 16.8 C 4.0 17.0 4.1 17.2 4.2 17.3 C 4.3 17.2 4.0 16.9 4.1 16.6 C 4.0 16.7 4.0 16.5 3.9 16.5 C 3.9 16.3 4.1 16.4 4.1 16.5 C 4.2 16.4 4.1 15.9 4.0 16.0 C 4.1 15.9 4.1 15.4 3.9 15.4 C 4.0 15.2 3.9 15.0 4.0 14.9 C 4.0 14.8 4.0 14.6 4.0 14.4 C 3.9 14.4 3.9 14.7 3.8 14.8 C 3.7 14.8 3.9 14.4 3.7 14.4 C 3.7 14.4 3.7 14.4 3.7 14.4 C 3.7 14.6 3.7 14.8 3.8 14.9 C 3.8 15.0 3.7 14.9 3.7 14.9 C 3.7 15.0 3.9 15.6 3.7 15.6 C 3.7 15.9 3.7 16.2 3.8 16.3 C 3.8 16.5 3.7 16.2 3.6 16.3 C 3.8 16.9 3.6 17.6 3.8 18.1 C 3.8 18.3 3.7 18.2 3.6 18.2 C 3.7 18.9 3.9 18.3 3.8 18.9 C 3.7 18.9 3.7 18.6 3.6 18.6 C 3.6 18.8 3.7 18.9 3.7 19.1 C 3.7 19.1 3.8 19.1 3.8 19.1 C 3.8 19.3 3.7 19.2 3.6 19.3 C 3.7 19.6 3.7 19.5 3.6 19.7 C 3.6 19.9 3.7 20.1 3.6 20.4 C 3.7 20.6 3.9 20.3 3.9 20.0 C 3.9 20.0 3.9 20.1 4.0 20.1 C 3.9 20.4 3.6 20.4 3.6 20.9 C 3.8 20.5 3.7 21.1 3.6 21.1 C 3.6 21.3 3.8 21.2 3.7 21.0 C 3.8 21.1 3.7 21.2 3.7 21.2 C 3.9 21.2 4.0 20.8 3.9 20.3 C 4.1 20.5 3.9 20.0 4.1 20.2 C 4.1 19.9 4.0 20.2 4.0 19.8 C 3.9 19.8 3.9 19.9 3.8 19.9 C 3.8 19.6 4.0 19.7 3.9 19.3 C 3.8 19.3 3.9 19.5 3.8 19.5 C 3.9 19.1 3.9 19.0 4.1 18.8 C 4.0 18.7 3.9 18.8 3.9 18.4 C 4.0 18.4 4.0 18.4 4.0 18.4 C 4.0 18.6 4.2 18.6 4.2 18.1 C 4.1 18.1 4.1 18.3 4.1 18.4 C 4.1 18.3 4.0 18.2 4.0 18.0 C 4.0 17.9 4.1 17.8 4.1 17.9 C 4.2 17.8 4.0 17.8 4.1 17.5 C 4.1 17.5 4.1 17.5 4.1 17.5 Z M 4.2 40.1 C 4.2 40.0 4.1 40.0 4.1 39.9 C 4.0 39.8 4.1 40.0 4.0 40.0 C 4.0 40.2 4.1 40.1 4.2 40.1 C 4.2 40.1 4.2 40.1 4.2 40.1 Z M 4.1 42.4 C 4.2 42.3 4.1 42.2 4.1 42.0 C 4.0 42.0 4.0 42.2 3.9 42.2 C 3.9 42.4 4.1 42.1 4.1 42.4 C 4.1 42.4 4.1 42.4 4.1 42.4 Z M 4.1 41.4 C 4.2 41.3 4.0 41.3 4.1 41.5 C 4.0 41.5 3.9 41.4 3.9 41.3 C 3.8 41.4 4.0 41.5 3.9 41.7 C 4.0 41.6 4.1 41.5 4.1 41.4 C 4.1 41.4 4.1 41.4 4.1 41.4 Z M 4.1 41.1 C 4.0 41.0 4.1 40.9 4.1 40.7 C 4.0 40.7 4.0 41.2 4.1 41.2 C 4.2 41.3 4.2 40.8 4.1 41.1 C 4.1 41.1 4.1 41.1 4.1 41.1 Z M 3.8 25.9 C 3.8 25.9 3.7 25.9 3.7 25.9 C 3.9 25.6 3.9 25.3 4.0 25.5 C 3.9 25.3 4.1 25.0 4.1 24.8 C 4.1 24.6 4.0 24.7 4.0 24.6 C 4.0 24.3 4.0 24.7 4.1 24.7 C 4.2 24.6 4.0 24.5 4.1 24.3 C 3.9 24.3 4.1 24.0 3.9 24.1 C 3.9 23.9 3.9 23.9 3.9 23.7 C 3.8 23.7 3.8 23.9 3.7 23.9 C 3.6 24.0 3.8 24.0 3.8 23.9 C 3.9 24.0 3.7 24.3 3.8 24.3 C 3.7 24.4 3.8 24.1 3.7 24.2 C 3.7 24.3 3.7 24.3 3.7 24.3 C 3.7 24.5 3.7 24.5 3.6 24.6 C 3.6 24.5 3.6 24.5 3.7 24.5 C 3.7 24.4 3.5 24.7 3.5 24.3 C 3.4 24.4 3.4 24.5 3.3 24.5 C 3.3 24.6 3.7 24.5 3.5 24.8 C 3.7 25.0 3.7 24.3 3.9 24.5 C 3.9 25.0 3.7 24.7 3.7 25.1 C 3.7 25.1 3.8 25.1 3.8 25.1 C 3.8 25.1 3.8 25.0 3.8 24.9 C 3.9 24.9 3.9 25.1 3.9 25.1 C 3.9 25.1 3.9 25.1 3.9 25.1 C 3.9 25.4 3.6 25.3 3.6 25.1 C 3.5 25.1 3.5 25.4 3.5 25.5 C 3.6 25.4 3.6 25.6 3.7 25.5 C 3.7 25.4 3.7 25.4 3.7 25.4 C 3.7 25.2 3.7 25.4 3.8 25.4 C 3.8 25.5 3.7 25.5 3.7 25.7 C 3.7 25.7 3.7 25.6 3.6 25.6 C 3.6 25.7 3.6 25.8 3.6 25.9 C 3.7 25.9 3.7 26.0 3.8 25.9 C 3.8 25.9 3.8 25.9 3.8 25.9 Z M 4.1 21.8 C 4.1 21.5 4.0 21.6 4.0 21.8 C 4.0 21.7 4.0 21.6 3.9 21.5 C 3.9 21.6 3.9 21.7 3.9 21.9 C 3.7 21.7 3.5 21.9 3.5 22.3 C 3.8 22.4 3.8 22.1 3.9 22.2 C 3.9 22.0 4.0 21.8 4.1 21.8 C 4.1 21.8 4.1 21.8 4.1 21.8 Z M 4.1 43.9 C 4.1 43.7 4.1 43.6 4.1 43.4 C 4.0 43.4 3.9 43.9 4.1 43.9 C 4.1 43.9 4.1 43.9 4.1 43.9 Z M 3.9 55.2 C 3.9 55.3 3.9 55.3 3.8 55.3 C 3.9 55.6 3.9 55.2 4.0 55.3 C 4.0 55.2 4.0 55.2 4.0 55.1 C 4.0 55.1 3.9 55.4 3.9 55.2 C 3.8 55.2 3.8 55.2 3.9 55.2 C 3.9 55.2 3.9 55.2 3.9 55.2 Z M 4.0 40.3 C 4.0 40.1 3.8 40.2 3.9 39.9 C 3.8 40.0 3.8 40.1 3.8 40.3 C 3.9 40.3 4.0 40.3 4.0 40.3 C 4.0 40.3 4.0 40.3 4.0 40.3 Z M 4.0 27.2 C 4.1 27.0 3.8 26.9 3.9 26.5 C 3.7 26.7 3.9 26.9 4.0 27.2 C 4.0 27.2 4.0 27.2 4.0 27.2 Z M 3.8 13.8 C 3.7 13.9 3.7 13.8 3.7 14.0 C 3.7 14.1 3.8 14.1 3.8 14.3 C 3.9 14.1 3.8 13.6 4.0 13.5 C 4.0 13.3 3.8 13.3 3.7 13.2 C 3.8 13.3 3.7 13.4 3.7 13.4 C 3.9 13.5 3.6 13.7 3.8 13.8 C 3.8 13.8 3.8 13.8 3.8 13.8 Z M 3.9 22.8 C 3.8 23.0 3.8 22.7 3.7 22.7 C 3.7 22.5 3.8 22.6 3.9 22.6 C 3.9 22.4 3.8 22.4 3.7 22.4 C 3.7 22.7 3.7 23.0 3.5 22.8 C 3.5 23.1 3.6 22.9 3.7 23.1 C 3.6 23.2 3.6 23.1 3.4 23.1 C 3.5 23.1 3.6 23.3 3.4 23.3 C 3.6 23.7 3.8 23.5 4.0 23.2 C 3.9 23.0 3.8 23.3 3.9 22.8 C 3.9 22.8 3.9 22.8 3.9 22.8 Z M 3.8 33.0 C 3.8 33.0 3.8 32.9 3.9 32.9 C 3.8 32.7 3.6 32.5 3.5 32.4 C 3.4 32.4 3.5 32.6 3.6 32.5 C 3.5 32.6 3.5 32.8 3.4 32.9 C 3.4 33.0 3.6 33.1 3.4 33.1 C 3.5 33.3 3.5 33.2 3.5 33.4 C 3.6 33.0 3.5 33.6 3.7 33.6 C 3.7 33.4 3.7 33.2 3.5 33.2 C 3.6 33.0 3.6 32.8 3.7 32.8 C 3.8 32.8 3.8 32.9 3.8 33.0 C 3.8 33.0 3.8 33.0 3.8 33.0 Z M 3.4 32.1 C 3.4 32.1 3.5 32.2 3.5 32.3 C 3.5 32.2 3.6 32.2 3.6 32.2 C 3.6 32.0 3.5 32.0 3.7 31.9 C 3.7 31.7 3.5 31.9 3.5 31.7 C 3.5 31.7 3.5 31.8 3.5 31.8 C 3.6 31.8 3.6 32.0 3.4 32.1 C 3.4 32.1 3.4 32.1 3.4 32.1 Z M 3.7 29.6 C 3.7 29.4 3.6 29.7 3.5 29.6 C 3.5 29.6 3.5 30.0 3.4 30.0 C 3.2 30.1 3.6 30.5 3.3 30.5 C 3.4 30.6 3.4 30.5 3.5 30.5 C 3.4 30.3 3.5 30.3 3.5 30.5 C 3.6 30.4 3.6 30.3 3.6 30.1 C 3.5 30.1 3.5 30.2 3.4 30.2 C 3.5 30.0 3.6 29.8 3.7 29.6 C 3.7 29.6 3.7 29.6 3.7 29.6 Z M 3.6 64.0 C 3.6 63.8 3.6 63.7 3.6 63.6 C 3.5 63.7 3.6 63.7 3.6 63.8 C 3.5 63.9 3.5 63.8 3.5 63.7 C 3.4 63.8 3.5 64.1 3.6 64.0 C 3.6 64.0 3.6 64.0 3.6 64.0 Z M 3.6 62.4 C 3.6 62.2 3.6 62.1 3.5 62.1 C 3.5 62.1 3.6 62.1 3.6 62.2 C 3.6 62.3 3.5 62.4 3.5 62.4 C 3.5 62.5 3.5 62.5 3.5 62.5 C 3.6 62.5 3.5 62.5 3.5 62.6 C 3.6 62.8 3.5 62.3 3.6 62.4 C 3.6 62.4 3.6 62.4 3.6 62.4 Z M 3.6 30.9 C 3.5 31.0 3.5 31.1 3.5 31.3 C 3.6 31.2 3.5 31.4 3.5 31.5 C 3.6 31.3 3.6 31.2 3.6 30.9 C 3.6 30.9 3.6 30.9 3.6 30.9 Z M 3.5 52.3 C 3.7 52.1 3.5 52.1 3.5 51.8 C 3.5 51.8 3.5 51.8 3.4 51.8 C 3.5 52.0 3.5 52.1 3.5 52.3 C 3.5 52.3 3.5 52.3 3.5 52.3 Z M 3.5 85.6 C 3.5 85.5 3.5 85.8 3.4 85.8 C 3.6 85.9 3.3 86.0 3.3 86.5 C 3.3 86.5 3.3 86.4 3.3 86.4 C 3.2 86.7 3.4 86.3 3.5 86.2 C 3.5 85.9 3.6 85.9 3.5 85.6 C 3.5 85.6 3.5 85.6 3.5 85.6 Z M 3.4 16.2 C 3.5 16.2 3.5 16.2 3.5 16.1 C 3.5 16.1 3.5 16.0 3.5 16.0 C 3.3 16.0 3.2 16.3 3.1 16.1 C 3.1 16.1 3.1 16.1 3.1 16.1 C 3.5 16.5 2.9 16.8 3.1 17.3 C 3.1 17.4 3.2 17.4 3.2 17.4 C 3.2 17.4 3.2 17.3 3.2 17.3 C 3.1 17.3 3.2 16.8 3.3 17.0 C 3.4 17.0 3.3 16.9 3.3 16.9 C 3.3 16.9 3.3 16.8 3.3 16.8 C 3.3 16.8 3.2 16.9 3.2 16.9 C 3.2 16.7 3.3 16.4 3.4 16.5 C 3.4 16.4 3.3 16.3 3.3 16.2 C 3.3 16.1 3.4 16.1 3.4 16.2 C 3.4 16.2 3.4 16.2 3.4 16.2 Z M 3.4 14.1 C 3.4 13.9 3.3 14.0 3.3 13.7 C 3.2 13.9 3.4 14.1 3.3 14.3 C 3.3 14.3 3.3 14.1 3.4 14.1 C 3.4 14.1 3.4 14.1 3.4 14.1 Z M 3.2 18.8 C 3.1 18.7 3.1 19.0 3.1 19.2 C 3.2 19.2 3.2 19.0 3.2 18.8 C 3.2 18.8 3.2 18.8 3.2 18.8 Z M 3.2 17.7 C 3.2 17.5 3.2 18.0 3.1 17.9 C 3.1 18.0 3.1 18.1 3.0 18.1 C 3.1 18.2 3.1 18.2 3.1 18.4 C 3.2 18.4 3.1 18.1 3.2 18.1 C 3.1 18.0 3.1 17.9 3.2 17.7 C 3.2 17.7 3.2 17.7 3.2 17.7 Z M 3.2 17.6 C 3.2 17.4 3.0 17.6 3.0 17.8 C 3.1 17.7 3.2 17.7 3.2 17.6 C 3.2 17.6 3.2 17.6 3.2 17.6 Z M 3.2 36.4 C 3.2 36.3 3.1 36.4 3.1 36.2 C 3.0 36.2 3.0 36.7 3.0 36.3 C 2.8 36.5 3.1 36.6 3.0 36.7 C 3.1 36.7 3.1 36.6 3.1 36.7 C 3.2 36.8 3.1 36.3 3.2 36.4 C 3.2 36.4 3.2 36.4 3.2 36.4 Z M 3.2 35.9 C 3.2 35.8 3.1 35.9 3.1 35.9 C 3.1 35.9 3.1 35.8 3.1 35.7 C 3.2 35.7 2.9 35.9 2.8 35.8 C 2.9 36.3 3.1 35.9 3.2 35.9 C 3.2 35.9 3.2 35.9 3.2 35.9 Z M 3.1 35.5 C 3.2 35.3 3.2 34.9 3.1 34.7 C 2.9 34.9 2.9 35.4 3.1 35.5 C 3.1 35.5 3.1 35.5 3.1 35.5 Z M 3.1 38.2 C 3.2 37.7 3.0 36.7 2.9 37.6 C 3.0 37.6 3.1 38.1 3.0 38.4 C 3.0 38.4 3.1 38.7 3.1 38.7 C 3.2 39.0 3.2 38.1 3.1 38.2 C 3.1 38.2 3.1 38.2 3.1 38.2 Z M 2.8 34.4 C 2.9 34.5 3.1 34.4 3.0 34.6 C 3.0 34.7 3.1 34.5 3.1 34.6 C 3.1 34.3 3.0 33.8 3.1 33.8 C 3.1 33.6 3.0 33.6 3.0 33.4 C 3.0 33.3 3.1 34.2 2.9 34.4 C 2.9 34.4 2.8 34.1 2.8 34.4 C 2.8 34.4 2.8 34.4 2.8 34.4 Z M 2.8 52.3 C 2.9 52.4 2.9 52.0 3.0 52.1 C 2.8 51.9 2.9 51.7 2.8 51.5 C 2.9 51.5 3.0 51.5 3.1 51.2 C 3.0 51.2 3.0 51.3 2.9 51.2 C 2.9 51.0 3.0 51.0 3.0 50.7 C 2.8 50.8 2.9 50.1 2.7 50.2 C 2.8 50.3 2.9 50.3 2.8 50.6 C 2.8 50.7 2.7 50.6 2.7 50.7 C 2.6 50.6 2.8 50.5 2.7 50.4 C 2.6 50.4 2.6 50.6 2.5 50.6 C 2.6 50.8 2.6 50.6 2.7 50.6 C 2.7 51.0 2.4 50.6 2.4 51.0 C 2.5 50.9 2.5 50.9 2.7 51.0 C 2.6 51.1 2.7 51.5 2.5 51.3 C 2.5 51.3 2.6 51.6 2.7 51.5 C 2.7 51.7 2.6 51.7 2.6 51.7 C 2.6 52.0 2.7 52.1 2.9 52.0 C 3.0 52.1 2.8 52.1 2.8 52.3 C 2.8 52.3 2.8 52.3 2.8 52.3 Z M 3.0 40.7 C 3.1 40.9 3.0 40.5 3.0 40.3 C 3.0 40.6 2.8 40.5 2.8 40.7 C 2.9 40.7 2.9 40.7 2.9 40.8 C 3.0 40.9 3.0 40.5 3.0 40.7 C 3.0 40.7 3.0 40.7 3.0 40.7 Z M 3.0 32.9 C 3.1 32.8 3.0 32.4 3.1 32.1 C 2.9 32.2 3.1 32.7 2.9 32.8 C 3.0 32.9 3.0 32.7 3.0 32.9 C 3.0 32.9 3.0 32.9 3.0 32.9 Z M 3.0 49.3 C 3.0 49.2 2.9 49.2 2.9 49.3 C 2.9 49.3 2.9 49.1 2.9 49.0 C 2.8 49.1 2.8 48.9 2.7 49.0 C 2.7 48.9 2.7 48.8 2.6 48.8 C 2.9 48.8 2.5 48.3 2.5 48.8 C 2.6 48.7 2.6 48.7 2.6 49.0 C 2.5 49.2 2.6 49.4 2.5 49.4 C 2.5 49.6 2.6 49.6 2.6 49.8 C 2.5 49.9 2.4 50.1 2.3 49.9 C 2.3 50.3 2.6 50.0 2.6 50.3 C 2.5 50.6 2.4 50.2 2.3 50.2 C 2.3 50.3 2.3 50.3 2.3 50.3 C 2.3 50.4 2.4 50.4 2.4 50.3 C 2.4 50.4 2.5 50.6 2.4 50.6 C 2.4 50.7 2.8 50.3 2.6 50.1 C 2.6 50.0 2.8 50.0 2.8 50.1 C 2.9 50.0 2.7 49.8 2.9 49.8 C 2.9 49.7 2.9 49.6 2.9 49.5 C 2.9 49.5 2.9 49.6 2.8 49.6 C 2.8 49.5 2.8 49.4 2.8 49.3 C 2.9 49.4 2.9 49.4 3.0 49.3 C 3.0 49.3 3.0 49.3 3.0 49.3 Z M 3.0 33.9 C 3.0 33.7 2.9 33.7 2.9 33.5 C 2.8 33.6 2.9 34.0 3.0 33.9 C 3.0 33.9 3.0 33.9 3.0 33.9 Z M 2.5 53.7 C 2.5 53.7 2.5 53.5 2.5 53.5 C 2.6 53.8 2.7 53.5 2.9 53.7 C 2.8 53.4 2.5 53.3 2.4 53.7 C 2.4 54.0 2.4 53.4 2.5 53.7 C 2.5 53.7 2.5 53.7 2.5 53.7 Z M 2.5 52.7 C 2.5 52.5 2.4 53.0 2.4 53.1 C 2.3 53.1 2.3 53.1 2.3 53.1 C 2.4 53.4 2.5 53.0 2.7 53.3 C 2.8 53.0 2.8 52.9 2.8 52.6 C 2.7 52.6 2.8 52.7 2.8 52.7 C 2.8 52.9 2.6 52.7 2.7 52.5 C 2.6 52.6 2.6 52.8 2.6 52.9 C 2.6 52.9 2.7 52.8 2.7 52.8 C 2.7 53.0 2.6 52.9 2.6 53.1 C 2.6 53.1 2.5 52.7 2.5 52.7 C 2.5 52.7 2.5 52.7 2.5 52.7 Z M 2.7 68.6 C 2.7 68.4 2.6 68.8 2.4 68.7 C 2.4 68.9 2.4 69.0 2.4 69.1 C 2.5 69.0 2.5 68.8 2.6 68.7 C 2.7 68.8 2.6 69.0 2.7 69.1 C 2.8 69.2 2.6 68.7 2.7 68.6 C 2.7 68.6 2.7 68.6 2.7 68.6 Z M 2.8 45.5 C 2.8 45.4 2.7 45.5 2.7 45.5 C 2.7 45.5 2.7 45.3 2.7 45.3 C 2.7 45.2 2.7 45.4 2.7 45.3 C 2.6 45.2 2.7 45.5 2.7 45.5 C 2.7 45.7 2.6 45.5 2.5 45.6 C 2.5 45.7 2.6 45.7 2.6 45.9 C 2.7 45.8 2.7 45.7 2.8 45.5 C 2.8 45.5 2.8 45.5 2.8 45.5 Z M 2.7 54.3 C 2.8 54.3 2.5 54.1 2.6 53.9 C 2.6 53.6 2.5 54.0 2.5 53.8 C 2.5 54.0 2.6 54.3 2.6 54.6 C 2.7 54.7 2.6 54.1 2.7 54.4 C 2.7 54.4 2.7 54.3 2.7 54.3 C 2.7 54.3 2.7 54.3 2.7 54.3 C 2.7 54.3 2.7 54.3 2.7 54.3 Z M 2.4 53.9 C 2.4 54.0 2.4 54.0 2.4 54.0 C 2.4 54.1 2.3 54.1 2.3 54.0 C 2.2 54.2 2.4 54.2 2.3 54.4 C 2.4 54.3 2.5 54.3 2.4 54.5 C 2.5 54.7 2.5 54.0 2.4 53.9 C 2.4 53.9 2.4 53.9 2.4 53.9 Z M 2.7 66.0 C 2.6 66.0 2.6 66.2 2.6 66.3 C 2.5 66.2 2.6 65.5 2.7 65.5 C 2.6 65.4 2.6 65.3 2.7 65.3 C 2.6 65.3 2.6 65.1 2.5 65.2 C 2.5 65.2 2.5 65.1 2.5 65.1 C 2.5 64.8 2.5 65.1 2.6 65.1 C 2.5 64.8 2.6 64.8 2.6 64.5 C 2.5 64.5 2.5 64.9 2.4 64.9 C 2.5 65.2 2.4 65.4 2.3 65.6 C 2.5 65.4 2.6 66.3 2.5 66.7 C 2.5 66.7 2.5 66.9 2.4 67.1 C 2.3 67.2 2.6 67.1 2.5 66.9 C 2.6 66.9 2.5 67.2 2.5 67.4 C 2.6 67.2 2.7 67.3 2.7 67.2 C 2.7 66.9 2.7 67.2 2.6 67.1 C 2.6 67.1 2.6 67.0 2.6 66.9 C 2.8 67.3 2.6 66.3 2.6 66.7 C 2.6 66.3 2.7 66.3 2.7 66.0 C 2.7 66.0 2.7 66.0 2.7 66.0 Z M 2.7 58.5 C 2.7 58.4 2.6 58.1 2.7 58.1 C 2.6 57.8 2.5 58.1 2.5 57.7 C 2.5 57.7 2.5 57.9 2.4 57.9 C 2.5 58.0 2.5 58.2 2.6 58.1 C 2.6 58.3 2.7 58.3 2.7 58.5 C 2.6 58.4 2.6 58.4 2.6 58.2 C 2.5 58.2 2.4 58.2 2.4 58.5 C 2.5 58.5 2.6 58.5 2.7 58.5 C 2.7 58.5 2.7 58.5 2.7 58.5 Z M 2.5 57.6 C 2.6 57.6 2.6 57.6 2.7 57.6 C 2.8 57.5 2.5 57.5 2.5 57.4 C 2.5 57.3 2.6 57.3 2.6 57.3 C 2.6 57.2 2.6 57.1 2.6 57.0 C 2.6 56.8 2.5 57.3 2.5 57.3 C 2.5 57.5 2.6 57.4 2.5 57.6 C 2.5 57.6 2.5 57.6 2.5 57.6 Z M 2.7 55.2 C 2.8 55.2 2.6 55.1 2.6 55.0 C 2.5 55.1 2.6 55.3 2.4 55.2 C 2.4 55.4 2.4 55.4 2.4 55.6 C 2.3 55.8 2.5 55.6 2.5 55.4 C 2.5 55.4 2.5 55.5 2.6 55.6 C 2.3 55.7 2.7 56.1 2.5 55.9 C 2.6 55.8 2.6 55.8 2.7 55.7 C 2.6 55.7 2.6 55.1 2.7 55.2 C 2.7 55.2 2.7 55.2 2.7 55.2 Z M 2.5 47.2 C 2.6 47.5 2.6 47.5 2.5 47.8 C 2.5 47.8 2.5 47.8 2.5 47.8 C 2.4 47.8 2.4 47.9 2.5 48.1 C 2.5 48.1 2.5 48.0 2.5 48.0 C 2.6 47.7 2.6 48.0 2.7 48.0 C 2.8 47.7 2.5 47.4 2.7 47.3 C 2.7 47.2 2.6 47.3 2.5 47.2 C 2.5 47.2 2.5 47.2 2.5 47.2 Z M 2.5 85.2 C 2.6 85.3 2.6 85.4 2.7 85.4 C 2.6 85.3 2.6 85.2 2.6 85.1 C 2.5 85.3 2.4 85.3 2.4 85.6 C 2.4 85.5 2.6 85.5 2.5 85.2 C 2.5 85.2 2.5 85.2 2.5 85.2 Z M 2.6 56.0 C 2.6 56.0 2.5 56.1 2.5 56.0 C 2.4 55.9 2.5 56.2 2.4 56.2 C 2.4 56.3 2.5 56.2 2.5 56.4 C 2.5 56.3 2.5 56.1 2.6 56.2 C 2.6 56.3 2.6 56.3 2.6 56.3 C 2.6 56.4 2.7 56.2 2.6 56.0 C 2.6 56.0 2.6 56.0 2.6 56.0 Z M 2.6 69.4 C 2.6 69.3 2.6 69.4 2.5 69.5 C 2.4 69.2 2.4 69.6 2.2 69.6 C 2.3 69.5 2.3 69.2 2.3 69.2 C 2.3 69.1 2.2 69.2 2.1 68.9 C 2.0 68.9 2.1 69.2 2.2 69.2 C 2.1 69.2 2.3 69.5 2.1 69.5 C 2.1 69.8 2.2 69.9 2.3 70.0 C 2.3 69.6 2.5 69.8 2.4 69.5 C 2.5 69.5 2.5 69.6 2.5 69.6 C 2.5 69.6 2.6 69.5 2.6 69.4 C 2.6 69.4 2.6 69.4 2.6 69.4 Z M 2.6 61.0 C 2.6 60.8 2.5 60.9 2.4 60.9 C 2.5 60.9 2.5 61.0 2.5 61.2 C 2.5 61.2 2.5 60.9 2.6 61.0 C 2.6 61.0 2.6 61.0 2.6 61.0 Z M 2.5 68.1 C 2.5 68.1 2.5 68.0 2.5 68.0 C 2.5 67.8 2.5 67.8 2.6 67.7 C 2.6 67.6 2.5 67.6 2.4 67.6 C 2.5 67.8 2.4 67.8 2.4 68.0 C 2.4 68.0 2.5 68.0 2.5 68.1 C 2.5 68.1 2.5 68.1 2.5 68.1 Z M 2.5 62.7 C 2.5 62.6 2.5 62.7 2.5 62.7 C 2.4 62.6 2.5 62.3 2.4 62.1 C 2.3 62.1 2.3 62.5 2.3 62.1 C 2.2 62.2 2.3 62.6 2.3 62.8 C 2.2 62.7 2.2 62.5 2.0 62.5 C 2.1 62.7 2.2 63.0 2.3 63.0 C 2.4 62.7 2.5 62.8 2.5 62.7 C 2.5 62.7 2.5 62.7 2.5 62.7 Z M 2.5 63.1 C 2.5 63.1 2.4 63.0 2.5 62.9 C 2.3 63.1 2.4 63.2 2.3 63.6 C 2.4 63.6 2.4 63.6 2.4 63.6 C 2.4 63.7 2.4 63.8 2.4 63.8 C 2.6 63.5 2.5 63.4 2.4 63.0 C 2.5 63.0 2.5 63.1 2.5 63.1 C 2.5 63.1 2.5 63.1 2.5 63.1 Z M 2.5 52.3 C 2.4 52.4 2.3 52.5 2.3 52.7 C 2.4 52.7 2.5 52.6 2.5 52.3 C 2.5 52.3 2.5 52.3 2.5 52.3 Z M 2.4 68.4 C 2.5 68.6 2.4 68.2 2.3 68.3 C 2.2 68.5 2.2 68.7 2.1 68.7 C 2.2 69.1 2.2 68.4 2.4 68.4 C 2.4 68.4 2.4 68.4 2.4 68.4 Z M 2.1 67.0 C 2.1 66.9 2.3 66.9 2.2 67.0 C 2.2 67.2 2.3 66.8 2.3 67.1 C 2.3 67.0 2.4 66.7 2.3 66.5 C 2.2 66.5 2.2 66.8 2.1 66.8 C 2.1 66.8 2.1 66.8 2.1 66.7 C 2.0 66.8 2.1 66.8 2.1 67.0 C 2.1 67.0 2.1 67.0 2.1 67.0 Z M 2.3 65.8 C 2.2 65.9 2.2 66.1 2.2 66.3 C 2.3 66.2 2.4 66.1 2.3 65.8 C 2.3 65.8 2.3 65.8 2.3 65.8 Z M 2.1 81.0 C 2.1 80.8 2.0 81.0 2.0 81.0 C 2.0 81.2 2.1 81.2 2.0 81.4 C 2.2 81.3 2.0 81.1 2.1 81.0 C 2.1 81.0 2.1 81.0 2.1 81.0 Z M 2.1 81.7 C 2.0 81.7 2.0 82.0 1.9 82.0 C 2.2 82.2 1.8 82.4 2.0 82.4 C 2.0 82.5 1.9 82.6 1.9 82.7 C 2.2 82.4 2.1 81.9 2.1 81.7 C 2.1 81.7 2.1 81.7 2.1 81.7 Z M 2.1 64.4 C 2.1 64.2 1.9 64.5 1.9 64.2 C 1.9 64.2 1.8 64.7 1.8 64.4 C 1.7 64.7 2.0 64.4 2.1 64.4 C 2.1 64.4 2.1 64.4 2.1 64.4 Z M 1.9 60.5 C 2.0 60.5 2.0 60.2 2.0 60.1 C 1.9 60.1 2.0 60.2 1.9 60.2 C 1.9 60.2 1.9 60.1 1.9 60.1 C 1.8 60.1 1.9 60.3 1.9 60.5 C 1.9 60.5 1.9 60.5 1.9 60.5 Z M 4.1 64.8 C 4.0 64.9 3.9 65.1 4.1 65.2 C 4.0 65.3 4.0 65.1 3.9 65.3 C 4.0 65.5 3.8 65.4 3.9 65.8 C 3.8 65.7 3.8 66.0 3.7 66.0 C 3.6 65.9 3.8 65.7 3.7 65.6 C 3.7 65.7 3.6 65.7 3.6 65.6 C 3.7 65.4 3.8 65.9 3.9 65.6 C 3.7 65.5 4.0 65.1 4.0 64.8 C 4.1 64.9 4.1 64.6 4.1 64.8 C 4.1 64.8 4.1 64.8 4.1 64.8 Z M 3.9 66.3 C 3.9 66.4 3.7 66.5 3.7 66.5 C 3.7 66.5 3.7 66.3 3.7 66.3 C 3.7 66.3 3.7 66.4 3.6 66.3 C 3.6 66.0 3.7 66.1 3.8 66.0 C 3.9 66.2 3.8 66.3 3.9 66.3 C 3.9 66.3 3.9 66.2 3.9 66.3 C 3.9 66.3 3.9 66.3 3.9 66.3 Z M 1.9 70.5 C 2.0 70.5 1.9 70.4 1.9 70.4 C 2.0 70.3 1.8 69.9 1.9 69.9 C 2.0 70.0 2.0 70.2 2.0 70.3 C 2.0 70.2 2.1 70.1 2.0 70.0 C 2.1 70.1 2.1 70.3 2.2 70.4 C 2.1 70.4 2.2 70.5 2.2 70.5 C 2.1 70.2 1.9 70.7 1.9 70.5 C 1.9 70.5 1.9 70.5 1.9 70.5 Z M 1.9 62.6 C 1.8 62.5 1.5 62.9 1.3 62.6 C 1.4 62.5 1.6 62.4 1.7 62.5 C 1.6 62.3 1.7 62.2 1.6 62.1 C 2.0 61.7 1.6 62.4 1.9 62.6 C 1.9 62.6 1.9 62.6 1.9 62.6 Z M 1.8 61.3 C 1.9 61.3 1.9 61.2 2.0 61.2 C 1.9 61.3 2.0 61.8 1.9 61.7 C 1.9 61.5 1.8 61.5 1.8 61.3 C 1.8 61.3 1.8 61.3 1.8 61.3 Z M 2.9 28.1 C 3.0 28.4 2.7 28.5 2.7 28.4 C 2.8 28.4 2.7 28.0 2.9 28.1 C 2.9 28.1 2.9 28.1 2.9 28.1 Z M 4.8 37.5 C 4.9 37.2 4.8 37.1 4.9 37.1 C 4.9 37.3 4.9 37.3 4.9 37.5 C 4.9 37.5 5.0 37.6 4.9 37.6 C 4.9 37.5 4.8 37.5 4.8 37.5 C 4.8 37.5 4.8 37.5 4.8 37.5 Z M 4.6 56.4 C 4.7 56.3 4.7 56.2 4.8 56.3 C 4.7 56.5 4.8 56.8 4.9 57.0 C 4.9 57.0 4.8 57.0 4.7 57.0 C 4.8 56.6 4.7 56.5 4.6 56.4 C 4.6 56.4 4.6 56.4 4.6 56.4 Z M 4.9 55.9 C 4.8 55.8 4.7 56.0 4.7 55.8 C 4.8 55.8 4.9 55.5 4.9 55.6 C 4.8 55.7 4.8 55.8 4.9 55.9 C 4.9 55.9 4.9 55.9 4.9 55.9 Z M 4.2 69.4 C 4.2 69.6 4.3 69.3 4.4 69.3 C 4.4 69.5 4.4 69.6 4.3 69.7 C 4.3 69.6 4.1 69.5 4.2 69.4 C 4.2 69.4 4.2 69.4 4.2 69.4 Z M 3.9 66.4 C 3.9 66.0 4.1 66.2 4.2 65.8 C 4.3 65.9 4.2 66.3 4.3 66.4 C 4.3 66.4 4.3 66.5 4.2 66.5 C 4.2 66.3 4.2 66.3 4.2 66.2 C 4.1 66.2 4.1 66.2 4.0 66.2 C 4.0 66.3 4.0 66.4 4.1 66.4 C 4.0 66.4 4.0 66.5 3.9 66.4 C 3.9 66.4 3.9 66.4 3.9 66.4 Z M 3.9 69.3 C 3.9 69.5 3.8 69.6 3.8 69.5 C 3.9 69.5 3.8 69.3 3.8 69.3 C 3.9 69.5 3.9 69.1 4.0 69.2 C 4.0 69.4 4.0 69.4 4.1 69.4 C 4.1 69.5 4.1 69.6 4.1 69.6 C 4.1 69.6 4.1 69.5 4.0 69.5 C 4.0 69.5 4.0 69.6 4.0 69.6 C 4.0 69.4 4.0 69.4 3.9 69.3 C 3.9 69.3 3.9 69.3 3.9 69.3 Z M 3.9 68.2 C 3.9 68.4 3.8 68.4 3.7 68.5 C 3.7 68.2 3.9 68.2 4.0 67.9 C 4.0 68.2 4.1 68.4 4.0 68.5 C 4.0 68.4 4.0 68.2 3.9 68.2 C 3.9 68.2 3.9 68.2 3.9 68.2 Z M 3.7 7.2 C 3.6 7.4 3.5 7.6 3.5 7.8 C 3.6 7.8 3.8 7.4 3.7 7.6 C 3.8 7.8 3.6 7.7 3.6 7.8 C 3.8 7.7 3.8 8.6 3.6 8.6 C 3.6 8.5 3.5 8.5 3.5 8.5 C 3.5 8.1 3.4 8.0 3.3 7.7 C 3.5 7.5 3.5 6.9 3.4 6.6 C 3.6 6.4 3.4 6.0 3.5 5.7 C 3.5 5.6 3.4 5.9 3.4 5.7 C 3.5 5.5 3.6 5.6 3.6 5.4 C 3.6 5.4 3.5 5.5 3.5 5.4 C 3.5 5.4 3.5 5.2 3.6 5.2 C 3.6 5.6 3.8 5.2 3.8 5.5 C 3.7 5.7 3.6 5.4 3.6 5.8 C 3.6 5.9 3.7 6.0 3.8 6.0 C 3.8 6.1 3.8 6.2 3.8 6.2 C 3.7 6.1 3.9 6.8 3.7 6.5 C 3.7 6.5 3.7 6.2 3.7 6.1 C 3.5 6.2 3.6 6.4 3.7 6.6 C 3.6 6.7 3.5 6.6 3.5 6.7 C 3.6 6.9 3.7 6.6 3.7 6.8 C 3.8 6.7 3.7 6.6 3.8 6.6 C 3.7 7.0 3.8 7.1 3.8 7.3 C 3.7 7.2 3.7 7.5 3.7 7.2 C 3.7 7.2 3.7 7.2 3.7 7.2 Z M 3.5 4.3 C 3.5 4.2 3.5 4.1 3.5 4.1 C 3.6 4.0 3.6 4.4 3.7 4.1 C 3.7 4.5 3.6 4.1 3.5 4.3 C 3.5 4.3 3.5 4.3 3.5 4.3 Z M 3.1 5.9 C 2.9 6.0 3.2 6.0 3.2 6.1 C 3.2 5.9 3.2 5.7 3.3 5.7 C 3.3 5.9 3.3 6.0 3.3 6.2 C 3.1 6.0 3.2 6.5 3.0 6.6 C 3.0 6.4 2.9 6.2 2.9 6.0 C 3.0 6.0 3.0 5.7 3.1 5.9 C 3.1 5.9 3.1 5.9 3.1 5.9 Z M 2.9 5.3 C 3.0 5.2 2.9 4.9 3.1 4.9 C 3.0 5.2 3.1 5.2 3.2 5.2 C 3.2 5.3 3.1 5.4 3.1 5.5 C 3.0 5.6 3.0 5.3 2.9 5.3 C 2.9 5.3 2.9 5.4 2.9 5.3 C 2.9 5.3 2.9 5.3 2.9 5.3 Z M 2.1 87.1 C 2.3 87.0 2.2 87.4 2.2 87.4 C 2.3 87.3 2.3 87.4 2.4 87.6 C 2.2 87.5 2.3 87.8 2.1 88.0 C 2.2 88.0 2.3 87.8 2.3 88.1 C 2.3 88.3 2.3 88.5 2.3 88.8 C 2.2 88.9 2.2 88.7 2.1 88.6 C 2.2 88.8 2.1 88.8 2.1 88.9 C 2.1 88.9 2.2 89.0 2.1 89.1 C 2.1 88.8 2.0 89.5 1.9 89.2 C 2.0 89.2 1.9 89.1 1.9 89.0 C 2.1 89.1 2.0 88.7 2.1 88.6 C 1.8 88.5 1.9 88.1 2.0 87.6 C 2.1 87.5 2.1 87.7 2.1 87.6 C 2.1 87.6 2.1 87.4 2.1 87.3 C 2.1 87.3 2.2 87.3 2.2 87.2 C 2.2 87.2 2.1 87.2 2.1 87.1 C 2.1 87.1 2.1 87.1 2.1 87.1 Z M 2.3 20.4 C 2.1 20.4 2.3 20.9 2.3 21.0 C 2.1 21.0 2.1 20.1 2.3 20.4 C 2.3 20.4 2.3 20.4 2.3 20.4 Z M 2.2 17.3 C 2.2 17.4 2.3 17.3 2.3 17.4 C 2.2 17.4 2.4 17.7 2.3 17.7 C 2.2 17.6 2.2 17.5 2.2 17.3 C 2.2 17.3 2.2 17.3 2.2 17.3 Z M 2.2 14.4 C 2.2 14.6 2.3 14.2 2.3 14.3 C 2.3 14.5 2.3 14.7 2.2 14.7 C 2.3 14.5 2.1 14.4 2.2 14.4 C 2.2 14.4 2.2 14.4 2.2 14.4 Z M 2.1 18.7 C 2.0 18.9 1.9 18.6 1.9 18.5 C 2.0 18.8 2.1 18.4 2.0 18.2 C 2.2 18.2 2.1 18.3 2.3 18.2 C 2.3 18.5 2.1 18.3 2.1 18.5 C 2.2 18.6 2.2 18.5 2.3 18.5 C 2.3 18.5 2.3 18.6 2.3 18.7 C 2.2 18.7 2.2 18.7 2.1 18.7 C 2.1 18.6 2.1 18.5 2.0 18.5 C 2.0 18.6 2.1 18.6 2.1 18.7 C 2.1 18.7 2.1 18.7 2.1 18.7 Z M 1.9 91.3 C 1.9 91.4 2.0 91.3 2.0 91.2 C 1.9 91.2 1.7 91.1 1.8 91.0 C 1.9 91.3 2.0 90.9 2.1 91.0 C 1.9 91.1 2.1 91.3 2.1 91.4 C 2.0 91.5 1.8 91.3 1.9 91.3 C 1.9 91.3 1.9 91.3 1.9 91.3 Z M 2.0 90.7 C 2.0 90.7 1.9 90.8 1.9 90.9 C 1.8 90.8 1.8 90.9 1.8 90.8 C 1.8 90.8 1.9 90.4 1.9 90.6 C 1.8 90.9 2.0 90.6 2.0 90.5 C 2.0 90.6 2.1 90.8 2.0 90.8 C 2.0 90.7 2.0 90.7 2.0 90.7 C 2.0 90.7 2.0 90.7 2.0 90.7 Z M 1.8 85.5 C 1.7 85.5 1.7 85.6 1.7 85.6 C 1.7 85.2 1.7 84.9 1.7 84.7 C 1.8 84.9 1.9 84.9 1.9 84.8 C 1.9 85.0 1.9 85.0 1.9 85.1 C 1.8 84.9 1.8 85.2 1.8 85.5 C 1.8 85.5 1.8 85.5 1.8 85.5 Z M 1.8 85.5 " fill="#71AFE1"></path></g></svg>