<?xml version="1.0" encoding="UTF-8" standalone="no"?><svg xmlns="http://www.w3.org/2000/svg" xmlns:xlink="http://www.w3.org/1999/xlink" clip-rule="evenodd" stroke-miterlimit="4.00" viewBox="0 0 348 240"><desc>SVG generated by Keynote</desc><defs></defs><g transform="matrix(1.00, 0.00, -0.00, -1.00, 0.0, 240.0)"><path d="M 23.3 213.0 L 324.7 213.0 L 324.7 25.0 L 23.3 25.0 Z M 23.3 213.0 " fill="#FEFFFE"></path><image xlink:href="../../B1876968-F79A-4719-BB7A-48728F16CA54/assets/CAECF46E36C2704383B32C2580F6CB3B.png" width="345.00" height="238.00" transform="matrix(1.00, 0.00, -0.00, 1.00, 1.3, 1.0)"></image><g><clipPath id="clip-821"><path d="M 23.3 26.0 L 324.7 26.0 L 324.7 212.0 L 23.3 212.0 Z M 23.3 26.0 "></path></clipPath><g clip-path="url(#clip-821)"><text xml:space="preserve" font-family="Courier-Bold" font-weight="bold" font-size="20.0" fill="#008E00" transform="matrix(1.00, 0.00, -0.00, -1.00, 58.0, 160.0)">i</text><text xml:space="preserve" font-family="Courier-Bold" font-weight="bold" font-size="20.0" fill="#008E00" transform="matrix(1.00, 0.00, -0.00, -1.00, 70.0, 160.0)">f</text><text xml:space="preserve" font-family="Courier" font-size="20.0" fill="#000000" transform="matrix(1.00, 0.00, -0.00, -1.00, 82.0, 160.0)"> </text><text xml:space="preserve" font-family="Courier" font-size="20.0" fill="#000000" transform="matrix(1.00, 0.00, -0.00, -1.00, 94.0, 160.0)">f</text><text xml:space="preserve" font-family="Courier" font-size="20.0" fill="#000000" transform="matrix(1.00, 0.00, -0.00, -1.00, 106.0, 160.0)">o</text><text xml:space="preserve" font-family="Courier" font-size="20.0" fill="#000000" transform="matrix(1.00, 0.00, -0.00, -1.00, 118.0, 160.0)">o</text><text xml:space="preserve" font-family="Courier" font-size="20.0" fill="#000000" transform="matrix(1.00, 0.00, -0.00, -1.00, 130.0, 160.0)">:</text><text xml:space="preserve" font-family="Courier" font-size="20.0" fill="#000000" transform="matrix(1.00, 0.00, -0.00, -1.00, 58.0, 136.0)"> </text><text xml:space="preserve" font-family="Courier" font-size="20.0" fill="#000000" transform="matrix(1.00, 0.00, -0.00, -1.00, 70.0, 136.0)"> </text><text xml:space="preserve" font-family="Courier" font-size="20.0" fill="#000000" transform="matrix(1.00, 0.00, -0.00, -1.00, 82.0, 136.0)"> </text><text xml:space="preserve" font-family="Courier" font-size="20.0" fill="#000000" transform="matrix(1.00, 0.00, -0.00, -1.00, 94.0, 136.0)"> </text><text xml:space="preserve" font-family="Courier-Bold" font-weight="bold" font-size="20.0" fill="#008E00" transform="matrix(1.00, 0.00, -0.00, -1.00, 106.0, 136.0)">i</text><text xml:space="preserve" font-family="Courier-Bold" font-weight="bold" font-size="20.0" fill="#008E00" transform="matrix(1.00, 0.00, -0.00, -1.00, 118.0, 136.0)">f</text><text xml:space="preserve" font-family="Courier" font-size="20.0" fill="#000000" transform="matrix(1.00, 0.00, -0.00, -1.00, 130.0, 136.0)"> </text><text xml:space="preserve" font-family="Courier" font-size="20.0" fill="#000000" transform="matrix(1.00, 0.00, -0.00, -1.00, 142.0, 136.0)">b</text><text xml:space="preserve" font-family="Courier" font-size="20.0" fill="#000000" transform="matrix(1.00, 0.00, -0.00, -1.00, 154.0, 136.0)">a</text><text xml:space="preserve" font-family="Courier" font-size="20.0" fill="#000000" transform="matrix(1.00, 0.00, -0.00, -1.00, 166.0, 136.0)">r</text><text xml:space="preserve" font-family="Courier" font-size="20.0" fill="#000000" transform="matrix(1.00, 0.00, -0.00, -1.00, 178.0, 136.0)">:</text><text xml:space="preserve" font-family="Courier" font-size="20.0" fill="#000000" transform="matrix(1.00, 0.00, -0.00, -1.00, 58.0, 112.0)"> </text><text xml:space="preserve" font-family="Courier" font-size="20.0" fill="#000000" transform="matrix(1.00, 0.00, -0.00, -1.00, 70.0, 112.0)"> </text><text xml:space="preserve" font-family="Courier" font-size="20.0" fill="#000000" transform="matrix(1.00, 0.00, -0.00, -1.00, 82.0, 112.0)"> </text><text xml:space="preserve" font-family="Courier" font-size="20.0" fill="#000000" transform="matrix(1.00, 0.00, -0.00, -1.00, 94.0, 112.0)"> </text><text xml:space="preserve" font-family="Courier" font-size="20.0" fill="#000000" transform="matrix(1.00, 0.00, -0.00, -1.00, 106.0, 112.0)"> </text><text xml:space="preserve" font-family="Courier" font-size="20.0" fill="#000000" transform="matrix(1.00, 0.00, -0.00, -1.00, 118.0, 112.0)"> </text><text xml:space="preserve" font-family="Courier" font-size="20.0" fill="#000000" transform="matrix(1.00, 0.00, -0.00, -1.00, 130.0, 112.0)"> </text><text xml:space="preserve" font-family="Courier" font-size="20.0" fill="#000000" transform="matrix(1.00, 0.00, -0.00, -1.00, 142.0, 112.0)"> </text><text xml:space="preserve" font-family="Courier-Bold" font-weight="bold" font-size="20.0" fill="#008E00" transform="matrix(1.00, 0.00, -0.00, -1.00, 154.0, 112.0)">p</text><text xml:space="preserve" font-family="Courier-Bold" font-weight="bold" font-size="20.0" fill="#008E00" transform="matrix(1.00, 0.00, -0.00, -1.00, 166.0, 112.0)">r</text><text xml:space="preserve" font-family="Courier-Bold" font-weight="bold" font-size="20.0" fill="#008E00" transform="matrix(1.00, 0.00, -0.00, -1.00, 178.0, 112.0)">i</text><text xml:space="preserve" font-family="Courier-Bold" font-weight="bold" font-size="20.0" fill="#008E00" transform="matrix(1.00, 0.00, -0.00, -1.00, 190.0, 112.0)">n</text><text xml:space="preserve" font-family="Courier-Bold" font-weight="bold" font-size="20.0" fill="#008E00" transform="matrix(1.00, 0.00, -0.00, -1.00, 202.0, 112.0)">t</text><text xml:space="preserve" font-family="Courier" font-size="20.0" fill="#000000" transform="matrix(1.00, 0.00, -0.00, -1.00, 214.0, 112.0)">(</text><text xml:space="preserve" font-family="Courier" font-size="20.0" fill="#000000" transform="matrix(1.00, 0.00, -0.00, -1.00, 226.0, 112.0)">b</text><text xml:space="preserve" font-family="Courier" font-size="20.0" fill="#000000" transform="matrix(1.00, 0.00, -0.00, -1.00, 238.0, 112.0)">a</text><text xml:space="preserve" font-family="Courier" font-size="20.0" fill="#000000" transform="matrix(1.00, 0.00, -0.00, -1.00, 250.0, 112.0)">z</text><text xml:space="preserve" font-family="Courier" font-size="20.0" fill="#000000" transform="matrix(1.00, 0.00, -0.00, -1.00, 262.0, 112.0)">)</text><text xml:space="preserve" font-family="Courier" font-size="20.0" fill="#000000" transform="matrix(1.00, 0.00, -0.00, -1.00, 58.0, 88.0)"> </text><text xml:space="preserve" font-family="Courier" font-size="20.0" fill="#000000" transform="matrix(1.00, 0.00, -0.00, -1.00, 70.0, 88.0)"> </text><text xml:space="preserve" font-family="Courier" font-size="20.0" fill="#000000" transform="matrix(1.00, 0.00, -0.00, -1.00, 82.0, 88.0)"> </text><text xml:space="preserve" font-family="Courier" font-size="20.0" fill="#000000" transform="matrix(1.00, 0.00, -0.00, -1.00, 94.0, 88.0)"> </text><text xml:space="preserve" font-family="Courier-Bold" font-weight="bold" font-size="20.0" fill="#008E00" transform="matrix(1.00, 0.00, -0.00, -1.00, 106.0, 88.0)">e</text><text xml:space="preserve" font-family="Courier-Bold" font-weight="bold" font-size="20.0" fill="#008E00" transform="matrix(1.00, 0.00, -0.00, -1.00, 118.0, 88.0)">l</text><text xml:space="preserve" font-family="Courier-Bold" font-weight="bold" font-size="20.0" fill="#008E00" transform="matrix(1.00, 0.00, -0.00, -1.00, 130.0, 88.0)">s</text><text xml:space="preserve" font-family="Courier-Bold" font-weight="bold" font-size="20.0" fill="#008E00" transform="matrix(1.00, 0.00, -0.00, -1.00, 142.0, 88.0)">e</text><text xml:space="preserve" font-family="Courier" font-size="20.0" fill="#000000" transform="matrix(1.00, 0.00, -0.00, -1.00, 154.0, 88.0)">:</text><text xml:space="preserve" font-family="Courier" font-size="20.0" fill="#000000" transform="matrix(1.00, 0.00, -0.00, -1.00, 58.0, 64.0)"> </text><text xml:space="preserve" font-family="Courier" font-size="20.0" fill="#000000" transform="matrix(1.00, 0.00, -0.00, -1.00, 70.0, 64.0)"> </text><text xml:space="preserve" font-family="Courier" font-size="20.0" fill="#000000" transform="matrix(1.00, 0.00, -0.00, -1.00, 82.0, 64.0)"> </text><text xml:space="preserve" font-family="Courier" font-size="20.0" fill="#000000" transform="matrix(1.00, 0.00, -0.00, -1.00, 94.0, 64.0)"> </text><text xml:space="preserve" font-family="Courier" font-size="20.0" fill="#000000" transform="matrix(1.00, 0.00, -0.00, -1.00, 106.0, 64.0)"> </text><text xml:space="preserve" font-family="Courier" font-size="20.0" fill="#000000" transform="matrix(1.00, 0.00, -0.00, -1.00, 118.0, 64.0)"> </text><text xml:space="preserve" font-family="Courier" font-size="20.0" fill="#000000" transform="matrix(1.00, 0.00, -0.00, -1.00, 130.0, 64.0)"> </text><text xml:space="preserve" font-family="Courier" font-size="20.0" fill="#000000" transform="matrix(1.00, 0.00, -0.00, -1.00, 142.0, 64.0)"> </text><text xml:space="preserve" font-family="Courier-Bold" font-weight="bold" font-size="20.0" fill="#008E00" transform="matrix(1.00, 0.00, -0.00, -1.00, 154.0, 64.0)">p</text><text xml:space="preserve" font-family="Courier-Bold" font-weight="bold" font-size="20.0" fill="#008E00" transform="matrix(1.00, 0.00, -0.00, -1.00, 166.0, 64.0)">r</text><text xml:space="preserve" font-family="Courier-Bold" font-weight="bold" font-size="20.0" fill="#008E00" transform="matrix(1.00, 0.00, -0.00, -1.00, 178.0, 64.0)">i</text><text xml:space="preserve" font-family="Courier-Bold" font-weight="bold" font-size="20.0" fill="#008E00" transform="matrix(1.00, 0.00, -0.00, -1.00, 190.0, 64.0)">n</text><text xml:space="preserve" font-family="Courier-Bold" font-weight="bold" font-size="20.0" fill="#008E00" transform="matrix(1.00, 0.00, -0.00, -1.00, 202.0, 64.0)">t</text><text xml:space="preserve" font-family="Courier" font-size="20.0" fill="#000000" transform="matrix(1.00, 0.00, -0.00, -1.00, 214.0, 64.0)">(</text><text xml:space="preserve" font-family="Courier" font-size="20.0" fill="#000000" transform="matrix(1.00, 0.00, -0.00, -1.00, 226.0, 64.0)">q</text><text xml:space="preserve" font-family="Courier" font-size="20.0" fill="#000000" transform="matrix(1.00, 0.00, -0.00, -1.00, 238.0, 64.0)">)</text></g></g></g></svg>