<?xml version="1.0" encoding="UTF-8" standalone="no"?><svg xmlns="http://www.w3.org/2000/svg" xmlns:xlink="http://www.w3.org/1999/xlink" clip-rule="evenodd" stroke-miterlimit="4.00" viewBox="0 0 120 21"><desc>SVG generated by Keynote</desc><defs></defs><g transform="matrix(1.00, 0.00, -0.00, -1.00, 0.0, 21.0)"><text xml:space="preserve" font-family="Courier-Bold" font-weight="bold" font-size="20.0" fill="#008E00" transform="matrix(1.00, 0.00, -0.00, -1.00, 1.0, 6.0)">p</text><text xml:space="preserve" font-family="Courier-Bold" font-weight="bold" font-size="20.0" fill="#008E00" transform="matrix(1.00, 0.00, -0.00, -1.00, 13.0, 6.0)">r</text><text xml:space="preserve" font-family="Courier-Bold" font-weight="bold" font-size="20.0" fill="#008E00" transform="matrix(1.00, 0.00, -0.00, -1.00, 25.0, 6.0)">i</text><text xml:space="preserve" font-family="Courier-Bold" font-weight="bold" font-size="20.0" fill="#008E00" transform="matrix(1.00, 0.00, -0.00, -1.00, 37.0, 6.0)">n</text><text xml:space="preserve" font-family="Courier-Bold" font-weight="bold" font-size="20.0" fill="#008E00" transform="matrix(1.00, 0.00, -0.00, -1.00, 49.0, 6.0)">t</text><text xml:space="preserve" font-family="Courier" font-size="20.0" fill="#000000" transform="matrix(1.00, 0.00, -0.00, -1.00, 61.0, 6.0)">(</text><text xml:space="preserve" font-family="Courier" font-size="20.0" fill="#000000" transform="matrix(1.00, 0.00, -0.00, -1.00, 73.0, 6.0)">b</text><text xml:space="preserve" font-family="Courier" font-size="20.0" fill="#000000" transform="matrix(1.00, 0.00, -0.00, -1.00, 85.0, 6.0)">a</text><text xml:space="preserve" font-family="Courier" font-size="20.0" fill="#000000" transform="matrix(1.00, 0.00, -0.00, -1.00, 97.0, 6.0)">z</text><text xml:space="preserve" font-family="Courier" font-size="20.0" fill="#000000" transform="matrix(1.00, 0.00, -0.00, -1.00, 109.0, 6.0)">)</text></g></svg>