<?xml version="1.0" encoding="UTF-8" standalone="no"?><svg xmlns="http://www.w3.org/2000/svg" xmlns:xlink="http://www.w3.org/1999/xlink" clip-rule="evenodd" stroke-miterlimit="4.00" viewBox="0 0 94 7"><desc>SVG generated by Keynote</desc><defs></defs><g transform="matrix(1.00, 0.00, -0.00, -1.00, 0.0, 7.0)"><path d="M 42.9 5.7 C 42.9 5.7 43.0 5.6 43.1 5.7 C 43.1 5.6 43.0 5.6 43.0 5.5 C 42.9 5.6 42.8 5.6 42.6 5.6 C 42.6 5.6 42.7 5.6 42.8 5.6 C 42.9 5.6 42.9 5.7 42.9 5.7 C 42.9 5.7 42.9 5.7 42.9 5.7 Z M 65.7 5.4 C 65.6 5.4 65.7 5.5 65.8 5.5 C 65.8 5.5 65.8 5.5 65.9 5.5 C 65.9 5.6 65.8 5.6 65.6 5.7 C 65.2 5.6 65.5 5.4 65.7 5.4 C 65.7 5.4 65.7 5.4 65.7 5.4 Z M 87.3 5.3 C 87.6 5.3 87.3 5.2 87.2 5.2 C 87.4 5.1 87.2 4.9 87.4 4.9 C 87.5 5.0 87.6 5.0 87.6 5.1 C 87.5 5.1 87.4 5.1 87.4 5.1 C 87.5 5.1 87.7 5.1 87.7 5.2 C 87.4 5.2 87.6 5.3 87.7 5.4 C 87.4 5.4 87.4 5.5 87.3 5.3 C 87.3 5.3 87.3 5.3 87.3 5.3 Z M 17.3 5.1 C 17.2 5.1 17.1 5.1 17.1 5.0 C 17.2 5.0 17.3 5.0 17.4 5.0 C 17.4 5.0 17.4 4.9 17.4 4.9 C 17.6 5.0 17.5 5.2 17.4 5.3 C 17.4 5.1 17.1 5.2 17.3 5.1 C 17.3 5.1 17.3 5.1 17.3 5.1 Z M 26.4 4.9 C 26.7 4.9 26.4 4.7 26.7 4.8 C 26.7 4.9 26.7 5.0 26.5 5.0 C 26.5 5.0 26.4 4.9 26.4 4.9 C 26.4 4.9 26.4 4.9 26.4 4.9 Z M 78.2 4.4 C 78.2 4.5 78.4 4.5 78.4 4.6 C 78.2 4.6 78.1 4.6 78.0 4.6 C 78.0 4.5 78.0 4.4 78.2 4.4 C 78.2 4.4 78.2 4.4 78.2 4.4 Z M 89.7 4.2 C 90.1 4.3 90.5 4.1 90.3 4.2 C 90.5 4.4 90.1 4.6 90.1 4.5 C 90.1 4.3 89.4 4.2 89.7 4.2 C 89.7 4.2 89.7 4.2 89.7 4.2 Z M 67.6 3.3 C 68.0 3.4 67.9 3.1 68.1 3.3 C 68.0 3.3 68.0 3.3 68.0 3.3 C 68.0 3.3 68.1 3.3 68.1 3.4 C 67.9 3.4 67.7 3.4 67.6 3.3 C 67.6 3.3 67.6 3.3 67.6 3.3 Z M 37.4 5.4 C 37.3 5.4 37.3 5.4 37.3 5.5 C 37.1 5.5 37.1 5.6 36.9 5.5 C 36.9 5.3 37.1 5.4 37.3 5.4 C 37.3 5.4 37.4 5.4 37.4 5.4 C 37.4 5.4 37.4 5.4 37.4 5.4 Z M 30.3 5.0 C 30.3 5.1 30.5 5.1 30.2 5.1 C 30.0 5.0 30.2 4.9 30.5 4.8 C 30.5 4.8 30.5 4.7 30.5 4.6 C 30.4 4.7 30.3 4.6 30.2 4.6 C 30.2 4.8 30.0 4.5 29.6 4.6 C 29.8 4.5 29.6 4.3 29.8 4.4 C 29.8 4.3 29.9 4.3 29.9 4.2 C 29.8 4.3 29.5 4.3 29.6 4.4 C 29.5 4.4 29.3 4.4 29.3 4.4 C 29.2 4.2 29.5 4.3 29.4 4.2 C 29.4 4.2 29.3 4.2 29.3 4.2 C 29.3 4.2 29.3 4.3 29.2 4.3 C 28.9 4.2 29.2 4.1 28.9 4.1 C 28.9 4.2 29.0 4.2 29.0 4.3 C 28.8 4.4 28.8 4.3 28.6 4.3 C 28.6 4.3 28.7 4.2 28.6 4.2 C 28.5 4.4 28.3 4.1 28.1 4.3 C 28.2 4.5 28.0 4.2 27.8 4.5 C 27.8 4.4 27.9 4.2 27.7 4.2 C 27.8 4.5 27.1 4.4 27.7 4.7 C 27.4 4.7 27.3 4.9 27.5 5.0 C 27.0 4.9 27.1 5.1 26.9 5.1 C 26.7 5.1 27.0 5.0 26.9 4.9 C 27.2 4.9 27.1 4.9 27.3 4.9 C 27.3 4.9 27.3 4.8 27.3 4.8 C 27.1 4.9 26.9 4.7 27.0 4.6 C 27.1 4.6 27.0 4.7 27.2 4.7 C 27.1 4.6 27.3 4.8 27.3 4.6 C 27.2 4.5 27.6 4.4 27.3 4.3 C 27.3 4.4 27.3 4.5 27.3 4.5 C 27.2 4.5 27.1 4.5 27.0 4.5 C 27.0 4.4 27.0 4.3 26.9 4.3 C 26.8 4.3 26.7 4.3 26.7 4.4 C 26.9 4.4 27.1 4.5 26.8 4.5 C 26.9 4.3 26.4 4.5 26.6 4.3 C 26.3 4.3 26.2 4.4 26.1 4.3 C 26.0 4.3 26.1 4.4 25.9 4.4 C 25.6 4.3 25.7 4.5 25.3 4.4 C 25.2 4.6 25.2 4.3 25.1 4.3 C 25.1 4.4 25.1 4.5 25.1 4.5 C 24.9 4.4 24.6 4.4 24.3 4.5 C 24.2 4.5 24.3 4.3 24.0 4.4 C 23.8 4.5 23.5 4.4 23.2 4.5 C 23.2 4.4 23.0 4.4 22.9 4.5 C 22.9 4.4 23.0 4.3 22.8 4.3 C 22.7 4.4 22.9 4.4 22.7 4.5 C 22.7 4.4 22.4 4.6 22.4 4.5 C 22.5 4.4 22.6 4.4 22.7 4.3 C 22.6 4.3 22.6 4.3 22.5 4.2 C 22.5 4.4 22.3 4.3 22.3 4.2 C 22.3 4.3 22.3 4.4 22.2 4.4 C 22.0 4.4 21.9 4.4 21.9 4.4 C 21.7 4.4 22.0 4.4 21.8 4.3 C 21.7 4.6 21.5 4.3 21.1 4.5 C 21.1 4.4 20.9 4.3 20.7 4.3 C 20.6 4.4 20.9 4.4 20.9 4.4 C 20.6 4.4 21.0 4.5 20.7 4.5 C 20.2 4.5 19.9 4.5 19.4 4.4 C 19.4 4.5 19.0 4.5 19.0 4.5 C 19.1 4.5 18.7 4.3 18.6 4.3 C 18.5 4.5 18.3 4.7 18.2 4.8 C 18.2 4.7 18.2 4.7 18.2 4.5 C 17.9 4.5 17.7 4.7 17.5 4.4 C 17.5 4.5 17.4 4.6 17.3 4.6 C 17.3 4.5 17.4 4.4 17.4 4.4 C 17.3 4.4 17.3 4.3 17.1 4.3 C 17.0 4.7 16.7 4.2 16.6 4.6 C 16.4 4.6 16.4 4.4 16.2 4.4 C 16.2 4.5 16.2 4.6 16.2 4.6 C 16.3 4.6 16.4 4.5 16.5 4.6 C 16.2 4.6 17.1 4.9 16.6 5.1 C 16.5 5.0 16.6 4.9 16.5 4.9 C 16.2 5.0 16.4 5.1 16.5 5.1 C 16.3 5.1 16.1 5.1 16.2 5.2 C 15.8 5.3 16.1 5.2 15.9 5.1 C 15.1 5.2 14.1 5.3 13.0 5.1 C 13.0 5.3 12.4 5.1 12.2 5.0 C 11.9 5.2 11.6 5.2 11.5 5.0 C 11.4 5.2 11.1 5.0 11.1 5.1 C 11.2 5.1 11.3 5.1 11.2 5.2 C 10.7 5.1 10.1 5.1 9.8 5.2 C 9.6 5.0 9.3 5.0 9.2 5.1 C 9.1 5.1 9.3 5.0 9.2 5.0 C 9.1 5.1 8.7 5.2 8.6 5.1 C 8.7 5.1 8.9 4.9 8.7 4.9 C 8.7 5.0 8.5 5.0 8.5 5.1 C 8.2 5.0 8.1 5.1 7.9 5.0 C 8.0 5.0 8.2 5.0 8.2 4.9 C 8.0 5.0 7.9 5.0 7.8 4.9 C 7.8 5.1 7.6 5.0 7.3 5.0 C 7.2 5.0 7.2 4.9 7.0 4.9 C 6.9 5.0 7.3 5.1 7.1 5.1 C 7.1 5.0 6.8 5.0 6.9 5.1 C 6.6 5.0 6.5 5.1 6.3 5.0 C 6.5 5.1 6.3 4.9 6.3 4.8 C 6.2 4.9 6.1 4.9 6.1 4.9 C 6.1 4.9 6.2 4.9 6.3 5.0 C 6.1 4.9 6.0 5.1 5.9 5.0 C 6.0 5.0 6.0 4.9 5.9 4.9 C 5.9 5.1 5.3 5.0 5.5 4.9 C 5.5 4.9 5.8 4.9 5.8 4.9 C 5.7 4.8 5.4 4.9 5.5 4.8 C 5.6 4.8 5.6 4.8 5.9 4.8 C 5.9 4.7 6.0 4.7 6.1 4.6 C 5.7 4.7 5.7 4.8 5.6 4.6 C 5.5 4.7 5.6 4.8 5.3 4.8 C 4.9 4.7 5.2 4.6 5.1 4.6 C 4.8 4.6 4.9 4.8 5.1 4.9 C 4.8 4.9 4.7 5.0 4.4 5.0 C 4.4 4.9 4.5 4.8 4.6 4.8 C 4.6 4.8 4.8 4.9 4.8 4.8 C 4.8 4.7 4.6 4.6 4.3 4.6 C 4.3 4.7 4.3 4.6 4.0 4.6 C 4.1 4.8 3.9 4.6 3.8 4.7 C 3.9 4.8 4.0 4.8 4.1 4.8 C 4.1 4.8 4.0 4.9 3.9 4.9 C 3.9 4.9 3.8 4.9 3.6 4.9 C 3.6 4.8 3.7 4.8 3.8 4.7 C 3.7 4.7 3.6 4.8 3.5 4.8 C 3.4 4.7 3.4 4.5 3.4 4.3 C 3.6 4.3 3.8 4.3 3.6 4.2 C 4.1 4.2 3.6 4.4 3.8 4.4 C 4.0 4.2 3.9 4.5 4.2 4.4 C 4.3 4.4 4.3 4.4 4.3 4.4 C 4.3 4.3 4.1 4.2 4.3 4.2 C 4.4 4.3 4.5 4.3 4.7 4.4 C 4.7 4.3 4.3 4.2 4.7 4.2 C 4.8 4.3 4.7 4.4 4.9 4.4 C 4.9 4.4 5.0 4.4 5.0 4.3 C 4.6 4.3 5.0 4.2 4.8 4.2 C 5.1 4.1 4.9 4.3 5.1 4.3 C 5.1 4.2 5.4 4.4 5.4 4.2 C 5.3 4.3 5.0 4.3 5.1 4.1 C 5.3 4.2 6.2 4.0 5.9 4.2 C 6.0 4.2 6.7 4.0 6.7 4.1 C 6.4 4.1 6.5 4.2 6.4 4.2 C 6.8 4.1 7.0 4.2 7.5 4.0 C 7.0 4.0 7.3 3.8 7.1 3.7 C 6.9 3.7 6.8 3.7 6.7 3.8 C 6.8 3.9 7.0 3.8 7.1 3.8 C 7.1 3.9 7.1 4.0 7.1 4.1 C 6.5 4.0 6.3 4.1 6.0 4.0 C 6.2 4.0 5.6 3.9 5.9 3.8 C 6.0 3.9 6.2 3.9 6.4 4.0 C 6.4 3.9 6.4 3.9 6.4 3.8 C 6.5 3.8 6.7 3.9 6.7 3.8 C 6.4 3.8 6.2 3.7 6.0 3.8 C 6.0 3.8 6.0 3.8 6.0 3.7 C 6.0 3.7 5.9 3.7 5.9 3.7 C 6.0 3.7 6.2 3.7 6.2 3.6 C 6.0 3.6 5.9 3.5 5.7 3.5 C 5.7 3.3 5.4 3.2 5.8 3.1 C 5.8 3.3 6.0 3.3 6.0 3.4 C 6.1 3.4 6.3 3.4 6.4 3.3 C 6.3 3.2 6.1 3.2 6.1 3.1 C 6.3 3.1 6.4 3.0 6.5 3.1 C 6.2 3.2 6.7 3.2 6.8 3.4 C 6.8 3.3 6.7 3.3 6.7 3.2 C 6.9 3.2 7.1 3.3 7.1 3.1 C 7.4 3.1 7.3 3.2 7.5 3.2 C 7.4 3.0 7.7 3.1 7.5 3.0 C 7.9 2.9 7.7 3.1 7.8 3.1 C 7.9 3.1 7.9 3.1 8.0 3.0 C 8.2 3.1 8.5 3.1 8.6 3.3 C 8.7 3.3 8.8 3.3 8.9 3.3 C 9.0 3.3 9.0 3.2 9.1 3.2 C 9.1 3.3 9.2 3.3 9.2 3.2 C 8.8 3.1 8.9 3.1 8.5 2.9 C 8.5 3.0 8.4 3.0 8.5 3.0 C 8.2 3.1 8.1 3.0 7.9 3.0 C 7.8 2.9 7.8 2.7 7.5 2.8 C 7.6 2.7 7.5 2.7 7.6 2.6 C 7.8 2.7 7.9 2.8 8.1 2.8 C 8.1 2.8 8.1 2.7 8.2 2.7 C 8.3 2.8 8.4 2.8 8.5 2.7 C 8.5 2.8 8.5 2.8 8.4 2.8 C 8.8 2.9 8.7 2.7 9.0 2.8 C 8.9 2.7 8.8 2.7 8.9 2.6 C 9.2 2.6 9.3 2.7 9.4 2.7 C 9.4 2.7 9.4 2.6 9.5 2.6 C 9.7 2.7 9.1 2.9 9.4 3.0 C 9.4 2.9 9.8 3.0 9.8 3.0 C 9.7 3.1 9.5 3.0 9.5 3.1 C 10.1 3.1 9.5 3.3 10.1 3.3 C 10.1 3.3 10.1 3.2 10.1 3.2 C 9.9 3.2 9.9 3.1 9.9 3.0 C 9.7 3.0 9.6 2.8 9.4 2.9 C 9.5 2.7 9.6 2.9 9.8 2.9 C 9.8 2.8 9.6 2.8 9.6 2.6 C 10.1 2.8 10.2 2.6 10.7 2.8 C 10.6 2.6 11.0 2.7 10.9 2.6 C 10.5 2.7 10.7 2.3 10.6 2.3 C 10.3 2.3 10.4 2.5 10.3 2.6 C 10.2 2.5 10.2 2.4 10.3 2.2 C 10.5 2.3 10.5 2.3 10.7 2.2 C 10.9 2.3 11.0 2.5 10.8 2.6 C 10.8 2.6 11.1 2.5 11.2 2.6 C 10.9 2.6 11.2 2.7 11.0 2.7 C 11.3 2.8 11.7 2.7 12.0 2.8 C 12.0 2.7 12.1 2.7 12.1 2.6 C 11.8 2.7 11.7 2.5 11.4 2.5 C 11.5 2.4 11.5 2.4 11.4 2.3 C 11.7 2.4 11.9 2.3 12.1 2.4 C 12.1 2.4 12.1 2.3 12.1 2.3 C 12.4 2.4 12.4 2.3 12.6 2.2 C 12.7 2.3 12.6 2.5 12.5 2.7 C 12.7 2.6 13.1 2.6 12.9 2.5 C 13.1 2.5 13.1 2.7 13.3 2.7 C 13.4 2.5 13.1 2.5 13.2 2.4 C 13.4 2.3 13.3 2.5 13.5 2.4 C 13.5 2.5 13.5 2.6 13.7 2.6 C 13.6 2.5 13.8 2.6 13.8 2.5 C 13.7 2.5 13.6 2.4 13.6 2.4 C 14.0 2.4 14.1 2.4 14.4 2.4 C 14.3 2.5 14.4 2.6 14.2 2.6 C 14.4 2.6 14.7 2.7 14.8 2.6 C 14.7 2.6 14.5 2.6 14.4 2.5 C 15.0 2.5 15.4 2.3 15.9 2.5 C 15.8 2.5 15.7 2.5 15.7 2.6 C 15.7 2.6 15.8 2.6 15.8 2.6 C 15.6 2.6 15.5 2.6 15.4 2.6 C 15.2 2.6 15.5 2.6 15.3 2.5 C 15.2 2.6 14.9 2.5 15.0 2.7 C 15.3 2.6 15.6 2.7 15.8 2.9 C 16.0 2.7 15.8 2.7 16.1 2.4 C 16.1 2.5 16.1 2.5 16.2 2.6 C 16.1 2.4 16.5 2.5 16.6 2.5 C 16.4 2.6 15.9 2.7 16.2 2.8 C 16.0 2.5 16.8 2.9 16.6 2.6 C 17.0 2.6 16.9 2.8 17.0 2.6 C 17.1 2.7 17.0 2.8 17.1 2.8 C 17.2 2.8 17.2 2.7 17.3 2.7 C 16.8 2.6 17.0 2.5 16.6 2.4 C 16.7 2.4 16.7 2.4 16.7 2.4 C 16.7 2.4 16.7 2.4 16.8 2.4 C 16.8 2.5 17.1 2.3 17.1 2.4 C 17.0 2.5 16.9 2.5 17.0 2.5 C 17.4 2.5 17.3 2.7 17.8 2.7 C 17.7 2.6 17.9 2.6 18.1 2.6 C 18.4 2.6 18.3 2.8 18.6 2.8 C 18.5 2.5 18.9 2.8 19.3 2.6 C 19.3 2.8 19.8 2.9 19.9 2.7 C 19.9 2.8 20.1 2.8 20.2 2.8 C 20.2 2.8 20.1 2.9 20.2 2.9 C 20.3 2.9 20.2 2.7 20.3 2.7 C 20.5 2.8 20.5 2.9 20.7 2.9 C 20.7 2.8 20.6 2.8 20.7 2.7 C 21.0 2.8 21.2 2.8 21.0 2.6 C 21.3 2.6 21.2 2.9 21.5 2.8 C 21.4 2.8 21.4 2.7 21.5 2.7 C 21.7 2.8 21.7 2.9 21.7 2.9 C 21.8 2.8 21.8 2.8 22.0 2.8 C 22.0 2.8 22.0 2.7 22.0 2.7 C 22.2 2.7 22.3 2.7 22.4 2.7 C 22.1 2.7 22.2 2.8 22.1 2.8 C 22.3 2.9 22.8 3.0 22.4 2.8 C 22.7 2.8 22.6 3.0 22.8 2.9 C 22.7 2.8 22.8 2.9 23.1 2.9 C 23.1 2.7 23.2 2.9 23.4 2.8 C 23.4 2.8 23.4 2.7 23.6 2.7 C 23.5 2.8 23.6 2.8 23.8 2.8 C 23.8 2.7 23.5 2.6 23.8 2.6 C 24.0 2.7 24.0 2.8 24.2 2.8 C 24.3 3.0 24.0 2.9 24.0 3.0 C 24.2 2.9 24.3 3.0 24.6 3.0 C 24.5 2.8 25.2 2.8 24.9 2.6 C 25.0 2.7 25.1 2.5 25.2 2.6 C 25.1 2.6 25.3 2.7 25.3 2.8 C 25.4 2.7 25.7 2.8 25.7 2.7 C 25.4 2.8 25.4 2.6 25.3 2.6 C 25.8 2.5 26.2 2.5 26.1 2.7 C 26.1 2.6 26.2 2.6 26.2 2.6 C 26.1 2.6 26.0 2.4 26.1 2.4 C 26.1 2.5 26.2 2.6 26.4 2.6 C 26.4 2.5 27.0 2.7 26.9 2.5 C 26.6 2.6 26.4 2.4 26.6 2.3 C 26.8 2.4 27.1 2.5 27.0 2.6 C 27.1 2.6 27.2 2.5 27.3 2.5 C 27.3 2.4 27.1 2.4 27.2 2.3 C 27.3 2.3 27.5 2.3 27.5 2.3 C 27.2 2.3 27.7 2.4 27.3 2.5 C 27.5 2.5 27.6 2.5 27.7 2.6 C 27.7 2.5 27.8 2.5 27.8 2.5 C 27.7 2.6 27.5 2.5 27.6 2.4 C 27.9 2.3 27.8 2.5 28.1 2.5 C 28.1 2.4 28.5 2.2 28.6 2.3 C 28.3 2.3 28.7 2.4 28.5 2.4 C 28.2 2.4 28.1 2.5 28.0 2.6 C 28.1 2.7 28.4 2.7 28.4 2.6 C 28.2 2.6 28.2 2.6 28.1 2.6 C 28.2 2.6 28.2 2.5 28.3 2.5 C 28.4 2.6 28.7 2.5 28.5 2.6 C 28.7 2.6 29.0 2.7 29.2 2.6 C 29.0 2.6 28.8 2.5 28.7 2.4 C 28.9 2.4 29.1 2.5 29.1 2.4 C 29.1 2.3 28.8 2.4 28.7 2.3 C 29.0 2.2 29.3 2.5 29.0 2.2 C 29.2 2.3 29.4 2.3 29.4 2.3 C 29.3 2.3 29.4 2.5 29.5 2.5 C 29.7 2.5 29.8 2.5 29.8 2.4 C 29.6 2.5 29.4 2.3 29.6 2.3 C 29.6 2.4 29.7 2.3 29.8 2.3 C 29.8 2.4 30.0 2.3 30.1 2.4 C 30.1 2.3 29.9 2.3 29.9 2.2 C 30.1 2.2 30.3 2.0 30.4 2.2 C 30.3 2.2 30.2 2.2 30.2 2.2 C 30.6 2.4 30.7 2.6 31.2 2.6 C 31.1 2.7 31.1 2.7 31.1 2.7 C 31.4 2.7 31.6 2.8 31.6 2.9 C 31.8 2.9 31.9 2.8 32.0 2.7 C 31.8 2.7 31.7 2.8 31.6 2.7 C 31.7 2.7 31.4 2.4 31.4 2.4 C 31.0 2.5 31.0 2.3 30.6 2.4 C 30.7 2.2 30.4 2.3 30.5 2.2 C 30.8 2.4 31.1 2.3 31.6 2.3 C 31.5 2.4 31.5 2.5 31.7 2.6 C 32.0 2.6 31.8 2.5 32.1 2.5 C 32.2 2.6 32.0 2.6 32.2 2.6 C 32.3 2.6 32.5 2.6 32.6 2.7 C 32.2 2.7 32.6 2.8 32.4 2.9 C 32.5 2.9 32.6 2.9 32.7 2.9 C 32.3 2.8 33.0 2.8 32.7 2.6 C 33.2 2.6 32.8 3.0 33.1 2.9 C 33.0 2.8 33.2 2.8 33.5 2.8 C 33.5 2.9 33.8 3.0 34.0 3.0 C 33.9 2.9 33.8 2.9 34.0 2.8 C 33.9 2.8 33.7 2.8 33.6 2.8 C 33.6 2.8 33.6 2.8 33.5 2.7 C 33.8 2.7 33.7 2.6 33.8 2.6 C 33.9 2.7 34.1 2.7 34.1 2.7 C 34.1 2.7 34.2 2.7 34.2 2.6 C 33.8 2.6 34.2 2.5 34.0 2.4 C 33.9 2.5 34.0 2.6 33.8 2.6 C 33.6 2.4 33.9 2.4 34.0 2.3 C 33.9 2.2 33.7 2.4 33.6 2.2 C 33.8 2.1 34.2 2.2 34.4 2.2 C 34.4 2.0 34.9 2.2 34.9 2.0 C 34.9 2.1 35.0 2.1 35.1 2.2 C 35.1 2.0 35.2 2.2 35.3 2.2 C 35.3 2.1 35.3 2.1 35.2 2.0 C 35.6 2.1 35.6 2.1 36.0 2.0 C 36.1 2.1 36.2 2.2 36.2 2.3 C 36.1 2.3 36.0 2.3 36.0 2.4 C 36.5 2.4 36.1 2.0 36.5 2.2 C 36.5 2.2 36.2 2.0 36.4 2.0 C 36.8 2.2 37.3 2.0 37.2 2.4 C 37.5 2.5 37.7 2.2 37.9 2.4 C 38.0 2.4 38.0 2.4 38.0 2.3 C 38.0 2.3 37.8 2.2 37.7 2.1 C 37.5 2.2 37.5 2.1 37.6 2.2 C 37.4 2.3 37.3 2.2 37.2 2.1 C 37.5 2.0 37.9 2.1 37.9 2.0 C 38.0 2.0 38.1 2.1 38.2 2.2 C 38.2 2.1 38.7 2.1 38.7 2.2 C 38.4 2.2 38.1 2.3 38.4 2.4 C 39.1 2.3 39.4 2.5 40.1 2.4 C 40.1 2.5 40.0 2.6 40.1 2.6 C 40.1 2.5 40.2 2.4 40.2 2.4 C 40.4 2.4 40.5 2.5 40.8 2.4 C 40.8 2.6 40.8 2.6 40.9 2.7 C 41.0 2.6 41.3 2.3 41.4 2.4 C 41.3 2.4 41.5 2.5 41.6 2.5 C 41.5 2.4 42.3 2.7 42.1 2.5 C 42.4 2.5 42.5 2.5 42.5 2.6 C 42.7 2.6 42.8 2.5 42.9 2.5 C 42.9 2.7 43.5 2.6 43.6 2.6 C 43.4 2.6 43.4 2.8 43.5 2.8 C 43.6 2.7 44.1 2.6 44.2 2.6 C 44.2 2.7 44.2 2.8 43.9 2.8 C 44.3 2.8 44.3 2.6 44.5 2.5 C 44.5 2.7 44.7 2.6 44.7 2.5 C 44.9 2.6 44.7 2.6 44.7 2.7 C 44.9 2.7 44.9 2.8 45.1 2.8 C 45.1 2.6 45.3 2.7 45.4 2.7 C 45.4 2.6 45.5 2.6 45.7 2.6 C 45.4 2.8 46.7 2.8 46.4 2.6 C 46.7 2.5 46.7 2.8 47.0 2.8 C 47.0 2.7 47.2 2.7 47.1 2.6 C 47.3 2.6 47.2 2.8 47.5 2.7 C 47.3 2.6 47.8 2.8 47.7 2.6 C 47.8 2.8 48.1 2.5 48.3 2.7 C 48.3 2.6 48.4 2.6 48.4 2.6 C 48.5 2.6 48.1 2.5 48.3 2.5 C 48.6 2.6 48.5 2.6 48.5 2.7 C 49.2 2.6 50.1 2.7 50.9 2.7 C 50.8 2.7 50.8 2.6 51.0 2.6 C 51.2 2.8 52.1 2.7 52.3 2.6 C 52.4 2.8 52.8 2.6 52.9 2.7 C 52.8 2.7 52.7 2.8 52.8 2.8 C 53.0 2.7 53.1 2.8 53.3 2.7 C 53.4 2.8 54.0 2.7 53.7 2.9 C 53.8 2.9 53.9 2.9 54.0 3.0 C 54.0 2.8 54.1 2.8 53.9 2.8 C 54.4 2.9 54.5 2.7 54.9 2.8 C 55.0 2.8 54.7 2.7 54.9 2.7 C 54.9 2.7 54.9 2.7 54.9 2.8 C 55.0 2.8 55.1 2.7 55.1 2.8 C 55.1 2.8 54.9 2.8 54.9 3.0 C 55.1 2.9 55.3 3.1 55.3 3.0 C 55.1 3.0 55.3 2.7 55.4 2.8 C 55.3 2.9 56.1 2.8 56.3 2.8 C 56.4 2.9 56.0 2.8 56.1 2.9 C 56.5 2.9 56.5 2.9 56.6 2.8 C 56.8 2.8 56.9 2.9 57.2 2.8 C 57.4 2.9 57.1 2.9 57.3 2.9 C 57.4 2.9 57.4 2.8 57.6 2.8 C 58.0 3.1 59.0 2.7 59.5 3.0 C 59.3 3.0 59.6 2.9 59.8 2.9 C 59.9 2.9 59.8 3.0 59.9 3.0 C 59.9 2.9 60.0 2.9 60.2 2.9 C 60.2 2.9 60.2 3.0 60.2 3.0 C 60.3 2.9 60.5 3.0 60.7 2.9 C 60.7 3.1 60.4 3.0 60.3 3.1 C 60.7 3.2 60.8 3.0 61.1 3.1 C 61.0 3.1 61.2 3.2 61.3 3.2 C 61.2 3.1 61.5 3.1 61.3 3.0 C 61.4 3.0 61.6 3.0 61.6 3.0 C 61.6 3.0 61.5 3.0 61.5 3.0 C 61.6 3.0 61.8 3.2 61.9 3.0 C 61.8 3.0 61.7 3.0 61.7 2.9 C 61.7 2.9 61.8 2.8 61.9 2.8 C 61.6 3.1 62.3 3.0 62.3 2.9 C 62.4 3.1 62.4 3.1 62.4 3.2 C 62.7 3.2 62.7 3.0 62.8 3.0 C 62.8 3.2 62.7 3.3 63.0 3.3 C 62.9 3.2 63.2 3.2 63.1 3.0 C 63.8 3.0 64.0 3.1 64.4 3.1 C 64.4 3.1 64.2 3.1 64.4 3.0 C 64.5 3.1 64.7 3.1 64.8 3.2 C 64.9 3.1 64.8 3.1 64.9 3.0 C 65.2 3.2 65.1 3.3 65.4 3.4 C 65.7 3.3 65.6 3.4 65.8 3.2 C 65.7 3.2 65.6 3.2 65.7 3.2 C 65.9 3.3 66.0 3.4 66.0 3.4 C 65.9 3.5 65.8 3.4 65.7 3.4 C 65.7 3.5 65.5 3.5 65.6 3.6 C 65.4 3.5 65.2 3.5 64.9 3.5 C 65.0 3.7 64.7 3.6 64.8 3.7 C 65.1 3.7 65.2 3.7 65.5 3.7 C 65.4 3.6 65.7 3.7 65.8 3.7 C 65.8 3.6 66.0 3.6 66.0 3.5 C 66.2 3.5 66.2 3.6 66.4 3.6 C 66.5 3.6 66.4 3.7 66.5 3.7 C 66.6 3.6 66.7 3.7 66.8 3.7 C 66.7 3.6 67.1 3.7 67.1 3.6 C 67.0 3.6 66.9 3.6 66.8 3.5 C 67.2 3.5 66.9 3.4 66.8 3.3 C 66.9 3.4 66.7 3.6 66.7 3.4 C 67.0 3.3 66.2 3.2 66.5 3.3 C 66.8 3.3 66.8 3.2 67.0 3.3 C 67.3 3.5 67.0 3.6 67.3 3.8 C 67.4 3.7 67.6 3.7 67.6 3.6 C 67.6 3.6 67.7 3.7 67.7 3.7 C 67.8 3.6 67.5 3.6 67.7 3.5 C 67.9 3.6 67.7 3.7 68.0 3.7 C 68.1 3.6 67.7 3.6 67.9 3.5 C 68.1 3.7 67.8 3.5 68.1 3.5 C 68.2 3.5 68.2 3.5 68.3 3.5 C 68.3 3.6 68.3 3.6 68.4 3.7 C 68.4 3.4 68.5 3.7 68.7 3.7 C 68.8 3.5 68.5 3.6 68.5 3.5 C 68.8 3.6 68.9 3.5 69.0 3.5 C 68.8 3.6 69.3 3.6 69.3 3.7 C 69.3 3.5 69.4 3.6 69.7 3.5 C 69.7 3.7 70.0 3.6 70.1 3.7 C 70.1 3.7 70.2 3.6 70.2 3.6 C 70.1 3.6 70.0 3.6 70.1 3.5 C 70.1 3.5 70.2 3.5 70.3 3.5 C 70.4 3.6 70.1 3.8 70.6 3.8 C 70.6 3.6 70.8 3.6 70.9 3.6 C 70.9 3.4 70.7 3.6 70.7 3.5 C 70.9 3.4 71.1 3.5 71.2 3.6 C 71.5 3.5 71.9 3.6 72.3 3.5 C 72.4 3.6 71.9 3.6 72.2 3.7 C 72.4 3.7 72.3 3.6 72.5 3.6 C 72.3 4.1 73.7 3.7 73.8 3.9 C 73.8 3.8 74.2 3.9 74.2 3.7 C 73.9 3.8 73.7 3.7 73.6 3.6 C 73.4 3.7 73.8 3.7 73.6 3.8 C 73.6 3.7 73.3 3.8 73.3 3.7 C 73.6 3.6 73.1 3.5 73.4 3.4 C 73.7 3.4 74.3 3.3 74.2 3.4 C 74.2 3.4 74.0 3.4 74.0 3.4 C 74.4 3.5 74.6 3.4 74.7 3.3 C 74.9 3.4 75.5 3.3 75.4 3.3 C 75.4 3.4 75.0 3.3 75.1 3.4 C 75.7 3.5 75.7 3.4 76.2 3.4 C 76.0 3.3 76.6 3.2 76.6 3.3 C 76.6 3.4 76.7 3.5 77.0 3.4 C 76.9 3.5 77.1 3.5 77.2 3.6 C 77.3 3.5 77.1 3.5 77.1 3.4 C 77.3 3.4 77.4 3.4 77.6 3.4 C 77.6 3.4 77.5 3.5 77.6 3.5 C 77.8 3.4 78.3 3.3 78.3 3.4 C 78.0 3.5 78.6 3.5 78.3 3.6 C 78.4 3.6 78.4 3.7 78.5 3.7 C 78.5 3.6 78.5 3.5 78.5 3.5 C 78.8 3.5 78.7 3.7 78.9 3.7 C 78.9 3.6 79.0 3.6 79.1 3.6 C 79.0 3.6 79.0 3.6 78.8 3.6 C 79.0 3.4 78.6 3.5 78.6 3.4 C 78.9 3.3 78.9 3.5 79.0 3.5 C 79.3 3.4 79.2 3.5 79.6 3.5 C 79.6 3.5 79.5 3.5 79.5 3.4 C 79.9 3.4 79.9 3.7 80.2 3.6 C 80.1 3.6 79.8 3.7 80.0 3.7 C 80.3 3.7 80.3 3.5 80.6 3.5 C 80.6 3.6 80.6 3.6 80.7 3.6 C 80.8 3.6 80.8 3.5 80.9 3.4 C 80.9 3.5 81.1 3.5 81.2 3.4 C 81.3 3.6 81.1 3.6 81.3 3.6 C 81.5 3.6 81.6 3.3 81.8 3.4 C 81.8 3.5 82.0 3.5 82.2 3.4 C 82.2 3.6 82.7 3.6 82.9 3.6 C 82.9 3.5 83.2 3.5 83.1 3.4 C 83.0 3.4 82.9 3.4 82.9 3.3 C 83.2 3.3 83.3 3.6 83.5 3.4 C 83.6 3.5 83.8 3.5 84.0 3.6 C 84.0 3.5 83.6 3.4 83.8 3.4 C 83.8 3.5 83.9 3.4 84.0 3.4 C 84.0 3.5 84.1 3.6 84.2 3.6 C 84.4 3.6 84.8 3.7 84.6 3.6 C 84.9 3.5 84.7 3.8 85.0 3.8 C 84.8 3.6 85.2 3.6 85.0 3.5 C 85.3 3.5 85.3 3.7 85.2 3.7 C 85.5 3.8 85.5 3.7 85.7 3.7 C 85.5 3.6 86.0 3.5 85.8 3.6 C 85.7 3.7 86.0 3.7 86.1 3.7 C 86.0 3.6 86.1 3.6 85.9 3.6 C 86.1 3.5 86.4 3.5 86.6 3.6 C 86.9 3.6 87.2 3.6 87.0 3.7 C 87.3 3.7 87.2 3.7 87.4 3.7 C 87.4 3.6 87.4 3.6 87.4 3.6 C 87.7 3.6 87.6 3.7 88.1 3.7 C 88.0 3.8 88.3 3.8 88.4 3.9 C 88.2 3.9 88.1 3.9 87.9 3.8 C 87.9 3.9 88.0 4.0 87.9 4.0 C 87.9 3.9 87.8 3.9 87.8 3.9 C 88.1 4.0 87.4 4.1 87.6 4.0 C 87.6 4.0 87.6 4.0 87.7 4.0 C 87.6 3.9 87.6 3.9 87.7 3.8 C 87.5 3.8 87.4 3.7 87.4 3.8 C 87.4 3.9 87.5 3.8 87.5 3.9 C 87.2 4.0 87.4 3.7 87.1 3.8 C 87.1 3.9 87.2 3.9 87.3 4.0 C 87.0 4.0 86.8 4.0 86.7 3.9 C 86.5 4.0 86.7 4.0 86.6 4.1 C 86.5 4.0 86.5 3.9 86.3 3.9 C 86.1 4.0 86.4 4.0 86.2 4.0 C 86.0 4.0 86.4 3.9 86.1 3.8 C 86.1 4.0 85.8 3.8 85.8 3.9 C 86.0 3.9 86.0 4.1 85.9 4.0 C 85.5 3.8 85.3 4.3 84.9 4.0 C 84.9 4.0 84.8 4.0 84.8 4.1 C 85.1 4.1 85.5 4.1 85.6 4.3 C 85.8 4.3 85.8 4.2 85.8 4.1 C 86.1 4.3 86.1 4.3 85.9 4.5 C 85.5 4.5 85.3 4.4 85.0 4.4 C 84.8 4.5 85.0 4.4 85.0 4.5 C 84.1 4.4 84.8 4.7 84.5 4.7 C 84.5 4.6 84.4 4.6 84.3 4.6 C 84.3 4.6 84.2 4.6 84.1 4.7 C 84.2 4.7 84.2 4.7 84.2 4.7 C 84.0 4.8 84.1 4.6 84.1 4.6 C 84.2 4.6 84.4 4.6 84.4 4.5 C 84.2 4.6 84.0 4.4 83.8 4.6 C 83.6 4.4 83.9 4.2 83.8 4.1 C 83.9 4.0 83.7 4.4 83.5 4.5 C 83.2 4.4 83.2 4.6 82.9 4.6 C 82.9 4.4 83.2 4.5 83.2 4.4 C 83.1 4.4 83.1 4.4 83.0 4.4 C 82.8 4.4 82.8 4.5 82.7 4.5 C 82.6 4.4 82.6 4.5 82.5 4.5 C 82.3 4.5 82.6 4.4 82.4 4.4 C 82.2 4.4 82.0 4.5 82.0 4.5 C 82.0 4.5 82.0 4.4 81.9 4.4 C 81.7 4.5 81.6 4.5 81.9 4.6 C 81.6 4.6 81.5 4.6 81.6 4.7 C 82.0 4.8 82.0 4.7 82.2 4.9 C 82.3 4.8 82.4 4.9 82.5 4.9 C 82.5 4.7 82.7 4.9 82.8 4.8 C 82.7 4.8 82.6 4.7 82.5 4.7 C 82.9 4.7 82.9 4.7 83.3 4.5 C 83.3 4.6 83.3 4.6 83.3 4.7 C 83.2 4.7 82.9 4.7 82.9 4.8 C 83.2 4.9 83.2 4.7 83.5 4.9 C 83.6 4.8 83.3 4.7 83.5 4.7 C 83.6 4.8 83.7 4.8 83.9 4.9 C 84.1 4.9 84.2 4.8 84.3 4.8 C 84.3 4.8 84.3 4.9 84.5 4.9 C 84.5 4.8 84.3 4.8 84.5 4.7 C 84.9 4.9 85.2 5.0 85.6 4.9 C 85.4 4.9 85.1 4.8 85.3 4.8 C 85.5 4.9 85.7 4.7 85.9 4.8 C 86.0 4.9 85.7 4.8 85.8 5.0 C 85.9 5.0 86.1 5.0 86.2 5.0 C 86.2 4.9 86.4 5.0 86.3 4.9 C 86.2 4.8 86.1 5.0 86.1 4.9 C 86.2 4.6 86.7 5.0 87.0 5.1 C 87.2 5.0 86.8 4.9 87.0 4.9 C 87.2 4.8 87.3 5.1 87.0 5.2 C 86.9 5.1 86.8 5.3 86.8 5.1 C 86.7 5.1 86.6 5.1 86.6 5.2 C 86.8 5.2 86.7 5.3 86.8 5.3 C 86.6 5.3 86.6 5.5 86.5 5.4 C 86.6 5.4 86.6 5.3 86.6 5.3 C 86.2 5.3 86.1 5.2 85.8 5.2 C 86.0 5.3 85.8 5.2 85.8 5.3 C 86.0 5.3 86.4 5.4 86.2 5.4 C 86.0 5.3 85.9 5.6 85.8 5.5 C 85.9 5.5 85.8 5.4 85.9 5.4 C 85.7 5.4 85.8 5.3 85.6 5.3 C 85.1 5.4 84.7 5.1 83.8 5.4 C 83.5 5.4 84.1 5.3 84.1 5.2 C 84.0 5.2 84.0 5.2 83.9 5.2 C 83.9 5.3 83.8 5.2 83.7 5.3 C 83.7 5.2 83.3 5.3 83.1 5.2 C 83.1 5.2 83.1 5.3 83.0 5.3 C 82.4 5.1 81.4 5.3 80.9 5.2 C 80.9 5.3 80.7 5.3 80.7 5.4 C 80.4 5.3 80.5 5.3 80.1 5.4 C 79.9 5.4 80.2 5.3 80.2 5.3 C 79.6 5.3 79.1 5.2 78.7 5.3 C 78.5 5.4 78.7 5.2 78.3 5.2 C 78.3 5.4 77.6 5.1 77.6 5.3 C 77.3 5.4 76.9 5.1 77.1 5.3 C 76.7 5.3 77.0 5.1 76.8 5.1 C 76.6 5.2 76.9 5.4 76.7 5.5 C 76.7 5.3 76.5 5.4 76.3 5.3 C 76.5 5.3 76.6 5.2 76.7 5.2 C 76.5 5.2 76.5 5.2 76.3 5.2 C 76.1 5.2 75.5 5.4 75.4 5.2 C 75.4 5.2 75.4 5.3 75.5 5.3 C 75.3 5.3 75.1 5.2 75.1 5.3 C 74.8 5.3 74.6 5.2 74.4 5.3 C 74.3 5.4 74.5 5.2 74.0 5.2 C 74.0 5.3 73.2 5.3 73.0 5.2 C 73.0 5.4 72.9 5.2 72.8 5.2 C 72.8 5.3 72.8 5.3 72.7 5.3 C 72.7 5.3 72.6 5.3 72.6 5.3 C 72.6 5.1 72.3 5.4 72.2 5.3 C 72.3 5.2 72.3 5.1 72.2 5.1 C 72.2 5.3 71.9 5.1 71.9 5.2 C 72.0 5.2 72.2 5.2 72.2 5.3 C 71.8 5.3 72.0 5.2 71.8 5.2 C 71.8 5.2 71.9 5.3 71.8 5.3 C 71.5 5.3 71.7 5.3 71.6 5.2 C 71.5 5.2 71.3 5.3 71.2 5.3 C 71.2 5.3 71.1 5.2 71.1 5.2 C 70.7 5.2 69.8 5.3 69.3 5.1 C 69.3 5.2 69.2 5.2 69.3 5.3 C 69.0 5.2 69.0 5.3 68.8 5.2 C 68.8 5.3 68.8 5.3 68.8 5.4 C 68.5 5.4 68.7 5.2 68.5 5.2 C 68.5 5.5 68.4 5.1 68.2 5.1 C 68.2 5.2 68.1 5.2 68.1 5.3 C 67.8 5.3 67.8 5.1 67.6 5.2 C 67.6 5.2 67.7 5.6 67.7 5.7 C 67.6 5.6 67.5 5.6 67.4 5.6 C 67.5 5.4 67.5 5.0 67.1 5.1 C 67.3 5.1 67.4 5.1 67.3 5.3 C 67.0 5.3 66.9 5.2 66.7 5.2 C 66.6 5.3 66.8 5.3 66.8 5.4 C 66.7 5.5 66.7 5.5 66.7 5.5 C 66.4 5.5 66.4 5.4 66.1 5.5 C 66.1 5.4 66.2 5.4 66.3 5.5 C 66.3 5.4 66.3 5.3 66.4 5.3 C 66.5 5.3 66.4 5.5 66.6 5.4 C 66.6 5.3 66.6 5.3 66.6 5.2 C 66.4 5.2 66.0 5.1 66.0 5.2 C 66.0 5.2 66.2 5.2 66.1 5.4 C 65.8 5.3 65.7 5.2 65.5 5.1 C 65.0 5.2 64.3 5.1 64.4 5.3 C 64.1 5.3 64.2 5.3 63.9 5.3 C 64.0 5.4 63.7 5.3 63.7 5.4 C 64.0 5.4 63.9 5.4 64.2 5.4 C 64.2 5.4 64.1 5.5 64.0 5.5 C 64.0 5.5 63.9 5.4 63.7 5.4 C 63.7 5.5 63.9 5.6 63.7 5.6 C 63.7 5.6 63.6 5.6 63.5 5.6 C 63.5 5.5 63.5 5.4 63.5 5.4 C 63.7 5.3 63.8 5.3 63.9 5.3 C 63.8 5.3 63.8 5.2 63.7 5.2 C 63.7 5.3 63.3 5.2 63.3 5.3 C 63.4 5.3 63.5 5.3 63.4 5.4 C 63.4 5.4 63.1 5.3 63.1 5.4 C 63.3 5.4 63.2 5.4 63.4 5.6 C 63.1 5.6 63.1 5.4 62.7 5.5 C 62.7 5.4 62.7 5.3 62.8 5.3 C 62.6 5.0 62.0 5.2 61.9 5.2 C 62.0 5.2 62.1 5.1 61.9 5.0 C 61.9 5.1 61.8 5.1 61.8 5.1 C 61.7 5.4 61.9 5.5 62.0 5.6 C 61.9 5.6 61.8 5.7 61.7 5.7 C 61.6 5.6 61.8 5.4 61.6 5.4 C 61.6 5.6 61.3 5.4 61.2 5.5 C 61.3 5.5 61.4 5.6 61.3 5.6 C 61.3 5.5 61.1 5.6 61.1 5.5 C 61.3 5.4 61.3 5.3 61.5 5.3 C 61.3 5.3 61.6 5.2 61.3 5.2 C 61.2 5.3 61.1 5.4 60.8 5.4 C 60.7 5.4 60.8 5.3 60.7 5.2 C 60.7 5.4 60.4 5.4 60.6 5.3 C 60.5 5.3 60.4 5.3 60.3 5.2 C 60.5 5.4 59.7 5.5 59.8 5.6 C 59.8 5.4 59.8 5.3 59.8 5.2 C 59.6 5.4 59.4 5.3 59.0 5.3 C 59.1 5.4 59.0 5.3 58.8 5.3 C 58.8 5.4 58.9 5.4 58.8 5.4 C 58.6 5.4 58.6 5.4 58.6 5.3 C 58.4 5.3 58.3 5.3 58.2 5.3 C 58.2 5.3 58.3 5.4 58.3 5.4 C 57.8 5.3 57.5 5.4 57.0 5.4 C 57.2 5.5 57.3 5.3 57.1 5.3 C 57.0 5.3 56.9 5.3 56.9 5.4 C 57.0 5.5 56.9 5.4 56.7 5.4 C 56.5 5.5 56.8 5.6 56.6 5.6 C 56.5 5.5 56.6 5.5 56.5 5.4 C 56.4 5.4 56.3 5.4 56.2 5.4 C 56.4 5.5 56.2 5.6 56.1 5.6 C 56.2 5.5 56.1 5.4 55.8 5.5 C 55.8 5.4 55.9 5.4 55.8 5.4 C 55.8 5.4 55.5 5.5 55.3 5.4 C 55.4 5.4 55.4 5.4 55.4 5.3 C 55.2 5.4 55.0 5.2 54.9 5.2 C 55.0 5.3 54.9 5.4 55.0 5.5 C 54.8 5.4 54.6 5.5 54.5 5.4 C 54.7 5.4 54.5 5.1 54.3 5.1 C 54.3 5.3 54.5 5.2 54.5 5.4 C 54.4 5.5 54.1 5.3 54.1 5.4 C 54.1 5.5 54.2 5.4 54.2 5.4 C 54.1 5.5 54.3 5.5 54.1 5.5 C 54.1 5.4 54.0 5.6 53.9 5.6 C 53.8 5.5 53.6 5.4 53.5 5.4 C 53.5 5.5 53.6 5.5 53.6 5.5 C 53.2 5.6 53.1 5.4 52.7 5.6 C 52.6 5.5 52.6 5.5 52.4 5.4 C 52.4 5.5 52.4 5.5 52.3 5.6 C 52.1 5.5 51.9 5.4 51.7 5.4 C 51.8 5.3 51.9 5.3 51.6 5.2 C 51.5 5.3 51.7 5.3 51.6 5.3 C 51.6 5.3 51.5 5.3 51.5 5.3 C 51.5 5.4 51.5 5.4 51.5 5.4 C 51.6 5.4 51.6 5.4 51.7 5.4 C 51.7 5.5 51.7 5.5 51.8 5.6 C 51.4 5.6 51.5 5.4 51.2 5.5 C 51.2 5.3 51.1 5.2 51.3 5.1 C 51.1 5.2 51.0 5.2 50.9 5.3 C 51.2 5.3 51.1 5.5 51.2 5.5 C 51.0 5.5 51.0 5.6 50.9 5.6 C 50.7 5.5 51.1 5.4 50.8 5.4 C 51.0 5.5 50.5 5.5 50.4 5.4 C 50.4 5.5 50.4 5.5 50.4 5.6 C 49.9 5.6 49.9 5.2 49.6 5.4 C 49.7 5.4 49.5 5.4 49.5 5.3 C 49.7 5.3 49.8 5.3 49.9 5.2 C 49.9 5.2 49.8 5.2 49.7 5.2 C 49.7 5.2 49.6 5.2 49.5 5.2 C 49.5 5.3 49.5 5.5 49.3 5.6 C 49.3 5.5 49.3 5.4 49.2 5.4 C 49.1 5.5 49.3 5.2 48.9 5.3 C 49.0 5.3 49.0 5.4 49.0 5.5 C 48.8 5.5 48.8 5.5 48.6 5.5 C 48.5 5.3 48.8 5.3 48.8 5.2 C 48.7 5.2 48.5 5.3 48.3 5.2 C 48.5 5.3 48.3 5.4 48.2 5.4 C 48.0 5.4 48.2 5.3 48.0 5.2 C 47.9 5.3 47.8 5.4 47.9 5.4 C 47.6 5.4 47.7 5.5 47.5 5.5 C 47.5 5.4 47.5 5.4 47.6 5.5 C 47.6 5.4 47.6 5.4 47.5 5.4 C 47.4 5.5 47.0 5.5 46.8 5.6 C 46.5 5.3 46.0 5.6 45.7 5.5 C 45.8 5.4 45.2 5.5 45.0 5.4 C 44.9 5.4 44.6 5.7 44.7 5.6 C 44.7 5.4 44.5 5.4 44.3 5.4 C 44.3 5.4 44.3 5.5 44.3 5.5 C 44.0 5.5 43.9 5.4 43.8 5.3 C 43.3 5.4 42.8 5.2 42.3 5.4 C 42.2 5.2 42.1 5.3 41.7 5.2 C 41.7 5.3 41.5 5.3 41.3 5.3 C 41.3 5.4 41.1 5.4 41.1 5.4 C 41.3 5.4 41.2 5.6 41.3 5.6 C 41.1 5.5 40.9 5.8 40.7 5.6 C 41.0 5.6 41.1 5.4 41.1 5.2 C 40.8 5.3 40.6 5.2 40.5 5.1 C 40.5 5.2 40.5 5.3 40.6 5.3 C 40.5 5.3 40.4 5.3 40.3 5.3 C 40.3 5.3 40.4 5.2 40.3 5.2 C 40.2 5.2 40.1 5.3 40.1 5.3 C 40.0 5.2 40.2 5.2 40.2 5.2 C 39.8 5.1 40.0 5.4 39.7 5.4 C 39.7 5.3 39.7 5.2 39.5 5.2 C 39.4 5.2 39.4 5.4 39.2 5.4 C 39.0 5.3 39.2 5.2 39.0 5.2 C 39.0 5.2 38.9 5.2 38.8 5.2 C 38.9 5.2 38.8 5.3 38.7 5.3 C 38.7 5.2 38.5 5.3 38.4 5.3 C 38.4 5.2 38.2 5.1 38.1 5.2 C 38.1 5.2 38.3 5.2 38.3 5.2 C 38.1 5.2 38.0 5.2 37.9 5.3 C 37.8 5.0 37.5 5.2 37.2 5.1 C 36.9 5.2 37.2 5.3 36.9 5.4 C 36.7 5.3 37.0 5.2 36.9 5.1 C 36.9 5.1 36.6 5.0 36.6 5.1 C 36.6 5.2 36.7 5.2 36.8 5.2 C 36.5 5.3 36.5 5.2 36.4 5.1 C 36.4 5.2 36.3 5.2 36.3 5.3 C 35.7 5.4 35.7 5.2 35.5 5.1 C 35.5 5.1 35.3 5.1 35.3 5.2 C 35.5 5.1 35.7 5.2 35.5 5.2 C 35.5 5.2 35.2 5.2 35.1 5.3 C 35.2 5.3 35.4 5.3 35.3 5.4 C 35.0 5.5 35.1 5.2 34.9 5.4 C 34.9 5.3 35.0 5.3 35.1 5.2 C 35.0 5.2 34.8 5.2 34.8 5.2 C 34.9 5.2 34.9 5.1 35.0 5.0 C 34.8 5.1 34.5 5.0 34.7 5.2 C 34.4 5.1 34.1 5.2 34.3 5.3 C 34.1 5.3 34.2 5.2 34.0 5.3 C 34.0 5.1 34.1 5.1 33.9 5.0 C 33.9 5.0 33.8 5.1 33.8 5.2 C 33.4 5.2 33.3 5.0 33.1 4.9 C 33.3 5.1 33.1 5.0 32.9 5.1 C 32.8 5.0 32.9 4.9 32.6 4.9 C 32.9 5.1 32.2 5.0 32.3 5.2 C 31.9 5.1 31.9 5.1 31.5 5.0 C 31.6 5.0 31.7 4.9 31.8 4.9 C 31.7 5.0 32.2 5.0 32.2 4.9 C 32.2 4.9 32.2 4.9 32.2 4.8 C 31.9 4.9 31.7 4.8 31.5 4.8 C 31.5 4.8 31.3 4.9 31.4 5.0 C 31.1 4.9 30.8 5.1 30.6 5.0 C 30.7 5.0 30.8 4.9 30.8 4.9 C 30.7 4.9 30.5 4.9 30.6 5.0 C 30.8 5.1 30.8 5.1 31.0 5.0 C 30.9 5.1 31.2 5.2 31.0 5.2 C 31.0 5.0 30.5 5.3 30.6 5.2 C 30.9 5.1 30.3 5.1 30.3 5.0 C 30.3 5.0 30.3 5.0 30.3 5.0 Z M 85.7 5.3 C 85.9 5.2 85.6 5.1 85.4 5.1 C 85.5 5.1 85.5 5.2 85.5 5.3 C 85.6 5.2 85.7 5.2 85.7 5.3 C 85.7 5.3 85.7 5.3 85.7 5.3 Z M 83.1 3.5 C 83.0 3.6 83.4 3.5 83.6 3.6 C 83.5 3.5 83.5 3.5 83.6 3.5 C 83.4 3.4 83.3 3.6 83.1 3.5 C 83.1 3.5 83.1 3.5 83.1 3.5 Z M 74.2 3.9 C 74.2 3.9 74.4 3.9 74.4 3.9 C 74.5 3.9 74.5 3.9 74.5 3.8 C 74.7 3.8 74.4 4.0 74.7 3.9 C 74.8 3.7 74.2 3.6 74.2 3.9 C 74.2 3.9 74.2 3.9 74.2 3.9 Z M 33.4 3.2 C 33.3 3.1 33.5 3.0 33.5 2.9 C 33.0 3.0 33.4 3.1 32.7 3.1 C 32.8 3.1 32.8 3.2 32.8 3.2 C 33.1 3.2 33.1 3.1 33.1 3.3 C 33.2 3.3 33.2 3.0 33.4 3.2 C 33.4 3.2 33.4 3.2 33.4 3.2 Z M 27.6 2.6 C 27.6 2.7 27.7 2.7 27.7 2.8 C 27.9 2.7 27.8 2.7 28.1 2.7 C 28.0 2.5 27.8 2.6 27.6 2.6 C 27.6 2.6 27.6 2.6 27.6 2.6 Z M 12.3 2.4 C 12.2 2.4 12.2 2.4 12.1 2.4 C 12.2 2.4 12.0 2.6 12.3 2.6 C 12.3 2.5 12.3 2.5 12.2 2.5 C 12.3 2.5 12.4 2.5 12.4 2.4 C 12.3 2.4 12.3 2.4 12.3 2.4 C 12.3 2.4 12.3 2.4 12.3 2.4 Z M 5.9 3.5 C 6.2 3.4 5.4 3.1 5.9 3.5 C 5.9 3.5 5.9 3.5 5.9 3.5 C 5.9 3.5 5.9 3.5 5.9 3.5 Z M 6.5 4.9 C 6.5 4.9 6.6 4.9 6.6 4.9 C 6.9 4.9 6.6 5.0 6.7 5.0 C 7.0 5.0 6.6 4.8 6.9 4.8 C 6.9 4.7 6.7 4.9 6.5 4.9 C 6.5 4.9 6.5 4.9 6.5 4.9 Z M 50.0 5.4 C 50.2 5.3 50.2 5.2 50.3 5.1 C 50.1 5.1 50.0 5.1 50.0 5.0 C 49.7 5.1 50.1 5.1 50.2 5.1 C 50.2 5.2 50.0 5.3 50.0 5.4 C 50.0 5.4 50.0 5.4 50.0 5.4 Z M 50.7 5.3 C 50.8 5.3 50.9 5.2 50.9 5.1 C 50.8 5.1 50.8 5.1 50.8 5.1 C 50.6 5.1 50.8 5.2 50.7 5.3 C 50.7 5.3 50.7 5.3 50.7 5.3 Z M 49.3 5.2 C 49.4 5.2 49.4 5.1 49.4 5.0 C 49.2 5.1 49.2 5.0 49.1 5.0 C 49.1 5.0 49.1 5.1 49.1 5.1 C 49.2 5.1 49.2 5.1 49.3 5.1 C 49.3 5.1 49.3 5.2 49.3 5.2 C 49.3 5.2 49.3 5.2 49.3 5.2 Z M 51.4 5.2 C 51.8 5.2 52.0 5.0 52.3 4.8 C 52.0 4.8 51.7 5.1 51.5 5.0 C 51.2 5.0 51.6 5.1 51.6 5.1 C 51.6 5.2 51.5 5.2 51.4 5.2 C 51.4 5.2 51.4 5.2 51.4 5.2 Z M 55.1 5.2 C 55.2 5.3 55.3 5.1 55.6 5.1 C 55.5 5.1 55.5 5.0 55.5 5.0 C 55.2 4.9 55.4 5.2 55.1 5.2 C 55.1 5.2 55.1 5.2 55.1 5.2 Z M 57.1 5.1 C 57.3 5.1 57.0 5.0 57.1 4.9 C 56.9 4.9 56.6 4.9 56.6 5.1 C 56.9 5.0 56.9 5.0 57.1 5.1 C 57.1 5.1 57.1 5.1 57.1 5.1 Z M 58.6 5.1 C 58.8 5.0 58.5 4.9 58.6 4.8 C 58.5 4.8 58.5 4.9 58.5 4.9 C 58.4 4.9 58.3 4.9 58.2 4.9 C 58.3 5.0 58.6 5.0 58.6 5.1 C 58.6 5.1 58.6 5.1 58.6 5.1 Z M 44.1 5.0 C 44.2 5.0 44.2 4.8 44.5 4.9 C 44.0 4.9 44.3 4.5 43.7 4.6 C 43.8 4.6 43.7 4.7 43.7 4.6 C 43.4 4.7 43.9 4.7 43.7 4.8 C 43.8 4.8 43.7 4.7 43.9 4.6 C 44.1 4.8 44.2 4.8 44.1 5.0 C 44.1 5.0 44.1 5.0 44.1 5.0 Z M 43.7 4.5 C 43.5 4.4 43.5 4.7 43.4 4.5 C 43.4 4.5 43.4 4.6 43.4 4.6 C 43.4 4.6 43.4 4.6 43.4 4.7 C 43.6 4.6 43.7 4.6 43.7 4.5 C 43.7 4.5 43.7 4.5 43.7 4.5 Z M 45.2 4.5 C 44.9 4.5 44.9 4.4 44.7 4.5 C 44.6 4.4 44.5 4.6 44.4 4.5 C 44.1 4.5 44.3 4.5 44.4 4.6 C 44.1 4.7 44.3 4.5 44.1 4.5 C 44.0 4.7 44.4 4.6 44.3 4.8 C 44.5 4.8 44.5 4.7 44.6 4.6 C 44.7 4.7 44.7 4.7 44.7 4.8 C 44.9 4.7 44.9 4.8 45.1 4.8 C 45.2 4.7 45.1 4.7 44.9 4.7 C 45.1 4.6 45.2 4.5 45.4 4.6 C 45.3 4.7 46.1 4.8 46.0 4.6 C 45.8 4.5 45.9 4.7 45.8 4.7 C 45.5 4.6 45.3 4.6 45.2 4.5 C 45.2 4.5 45.2 4.5 45.2 4.5 Z M 49.2 4.8 C 49.3 4.8 49.4 4.9 49.5 4.9 C 49.5 5.0 49.3 4.9 49.5 5.0 C 49.6 5.0 49.7 5.0 49.8 5.0 C 49.7 4.9 49.4 4.8 49.6 4.7 C 49.5 4.7 49.4 4.7 49.2 4.6 C 49.4 4.8 49.0 4.7 48.8 4.6 C 48.8 4.8 48.5 4.6 48.4 4.7 C 48.5 4.8 48.8 4.7 49.0 4.7 C 48.9 4.8 49.4 5.0 49.2 4.8 C 49.2 4.8 49.2 4.8 49.2 4.8 Z M 43.0 4.5 C 43.0 4.6 42.8 4.6 42.9 4.6 C 42.9 4.7 42.7 4.6 42.8 4.8 C 42.7 4.8 42.6 4.8 42.5 4.8 C 42.6 4.7 42.8 4.7 42.7 4.6 C 42.5 4.7 42.6 4.6 42.4 4.6 C 42.5 4.5 42.4 4.5 42.5 4.3 C 42.4 4.4 42.2 4.4 42.2 4.5 C 41.9 4.5 42.3 4.3 41.9 4.3 C 41.9 4.2 42.2 4.2 42.3 4.3 C 42.4 4.2 41.8 4.2 41.5 4.2 C 41.8 4.3 41.6 4.4 41.4 4.5 C 41.3 4.5 41.4 4.4 41.3 4.4 C 41.1 4.4 41.1 4.4 41.0 4.4 C 40.9 4.4 41.0 4.5 40.9 4.5 C 40.8 4.5 40.9 4.3 40.6 4.4 C 40.8 4.5 40.6 4.6 40.2 4.5 C 40.2 4.6 40.4 4.6 40.4 4.6 C 40.3 4.7 40.1 4.6 40.1 4.5 C 39.9 4.6 40.0 4.6 40.1 4.6 C 40.1 4.7 40.0 4.7 39.9 4.7 C 40.3 4.7 40.9 4.7 41.7 4.9 C 41.5 4.8 41.7 4.8 41.9 4.8 C 41.9 4.9 41.8 4.9 41.7 4.9 C 42.0 5.0 42.0 4.7 42.4 4.8 C 42.6 4.8 42.1 4.9 42.4 5.0 C 42.5 4.9 42.6 4.8 42.7 5.0 C 43.0 4.9 43.0 4.8 43.4 4.8 C 43.2 4.7 43.1 4.4 42.9 4.5 C 42.9 4.5 43.0 4.5 43.0 4.5 C 43.0 4.5 43.0 4.5 43.0 4.5 Z M 50.8 5.0 C 50.9 5.0 51.0 4.9 51.0 5.0 C 51.2 4.9 51.0 4.8 50.9 4.8 C 50.8 4.8 50.8 4.9 50.8 5.0 C 50.8 5.0 50.8 5.0 50.8 5.0 Z M 75.2 5.0 C 75.5 5.0 75.5 4.9 75.7 4.9 C 75.5 4.8 75.5 4.7 75.1 4.7 C 75.1 4.8 75.1 4.9 75.2 5.0 C 75.2 5.0 75.2 5.0 75.2 5.0 Z M 50.0 4.9 C 49.8 5.0 50.2 4.7 50.2 4.9 C 50.4 4.8 50.0 4.8 50.2 4.7 C 50.0 4.7 49.9 4.6 49.6 4.7 C 49.6 4.8 49.8 4.8 50.0 4.8 C 50.1 4.8 50.0 4.8 50.0 4.9 C 50.0 4.9 50.0 4.9 50.0 4.9 Z M 72.1 4.6 C 71.9 4.7 72.3 4.9 72.4 4.9 C 72.4 4.8 72.3 4.8 72.1 4.6 C 72.1 4.6 72.1 4.6 72.1 4.6 Z M 77.3 4.8 C 77.4 4.6 76.9 4.8 77.1 4.6 C 76.9 4.6 76.9 4.6 76.9 4.7 C 76.8 4.6 76.6 4.7 76.7 4.6 C 76.6 4.5 77.0 4.6 76.9 4.5 C 77.0 4.4 77.0 4.5 77.1 4.5 C 76.9 4.5 77.0 4.6 77.3 4.6 C 77.3 4.5 77.2 4.6 77.3 4.5 C 77.3 4.5 77.5 4.6 77.5 4.8 C 77.7 4.8 77.6 4.6 77.9 4.6 C 77.8 4.5 77.7 4.5 77.5 4.5 C 77.6 4.4 77.9 4.6 77.8 4.4 C 77.8 4.5 78.0 4.6 78.0 4.7 C 77.8 4.7 77.7 4.8 77.5 4.9 C 77.6 5.0 77.9 4.7 78.2 4.8 C 78.2 4.7 78.3 4.7 78.3 4.6 C 78.5 4.6 78.4 4.8 78.4 4.8 C 78.4 4.9 78.9 4.8 78.8 4.7 C 78.9 4.8 79.4 4.8 79.4 4.6 C 79.6 4.7 79.8 4.6 79.9 4.7 C 80.0 4.7 80.2 4.7 80.4 4.7 C 80.4 4.6 80.1 4.6 80.0 4.5 C 80.0 4.4 80.4 4.6 80.4 4.4 C 80.4 4.4 80.4 4.4 80.4 4.4 C 80.2 4.4 80.0 4.4 79.9 4.5 C 79.8 4.5 79.9 4.4 79.9 4.4 C 79.8 4.4 79.3 4.6 79.2 4.4 C 78.9 4.4 78.6 4.4 78.5 4.5 C 78.3 4.5 78.6 4.4 78.5 4.3 C 77.9 4.5 77.2 4.3 76.7 4.5 C 76.6 4.5 76.6 4.4 76.6 4.3 C 75.9 4.4 76.5 4.6 75.9 4.5 C 75.9 4.4 76.2 4.4 76.2 4.3 C 76.0 4.3 75.9 4.4 75.7 4.4 C 75.7 4.4 75.7 4.5 75.7 4.5 C 75.5 4.5 75.6 4.4 75.5 4.3 C 75.2 4.4 75.3 4.4 75.1 4.3 C 74.9 4.4 74.7 4.4 74.4 4.3 C 74.2 4.4 74.6 4.6 74.8 4.6 C 74.8 4.6 74.7 4.6 74.7 4.7 C 74.4 4.6 74.4 4.4 73.9 4.3 C 74.3 4.5 73.7 4.4 73.7 4.3 C 73.5 4.3 73.6 4.5 73.8 4.4 C 73.7 4.5 73.6 4.5 73.6 4.4 C 73.6 4.6 74.0 4.7 74.5 4.6 C 74.3 4.8 74.8 4.6 74.6 4.8 C 74.9 4.8 74.6 4.7 75.0 4.7 C 75.0 4.6 74.9 4.6 74.9 4.5 C 75.2 4.5 75.1 4.7 75.5 4.6 C 75.5 4.5 75.3 4.6 75.3 4.5 C 75.7 4.6 75.8 4.6 76.0 4.8 C 76.1 4.7 76.0 4.6 76.4 4.6 C 76.4 4.7 76.4 4.7 76.4 4.7 C 76.2 4.7 76.2 4.9 76.7 4.9 C 76.7 4.8 76.5 4.9 76.4 4.8 C 76.5 4.8 76.6 4.7 76.8 4.7 C 76.9 4.7 77.0 4.8 76.9 4.8 C 77.0 4.9 77.0 4.7 77.3 4.8 C 77.3 4.8 77.3 4.8 77.3 4.8 Z M 54.7 4.9 C 54.8 4.9 54.8 4.8 54.9 4.9 C 55.0 4.7 54.8 4.8 54.8 4.7 C 54.6 4.7 54.7 4.8 54.7 4.9 C 54.7 4.9 54.7 4.9 54.7 4.9 Z M 52.4 4.8 C 52.5 4.9 52.6 4.8 52.8 4.8 C 52.8 4.7 52.6 4.7 52.6 4.6 C 52.4 4.6 52.7 4.8 52.4 4.8 C 52.4 4.8 52.4 4.8 52.4 4.8 Z M 53.4 4.8 C 53.5 4.9 53.5 4.8 53.3 4.8 C 53.3 4.7 53.4 4.6 53.5 4.6 C 53.4 4.5 53.3 4.7 53.1 4.6 C 53.2 4.7 53.3 4.8 53.4 4.8 C 53.4 4.8 53.4 4.8 53.4 4.8 Z M 53.7 4.8 C 53.9 4.7 53.9 4.8 54.1 4.8 C 54.1 4.7 53.6 4.7 53.6 4.8 C 53.5 4.9 54.0 4.9 53.7 4.8 C 53.7 4.8 53.7 4.8 53.7 4.8 Z M 68.9 4.5 C 68.9 4.5 68.9 4.4 68.9 4.4 C 69.2 4.6 69.5 4.6 69.3 4.7 C 69.5 4.6 69.8 4.8 70.0 4.8 C 70.2 4.8 70.1 4.7 70.2 4.7 C 70.5 4.7 70.1 4.8 70.1 4.8 C 70.2 4.9 70.3 4.7 70.5 4.8 C 70.5 4.6 70.8 4.8 70.7 4.6 C 70.9 4.6 70.9 4.6 71.1 4.6 C 71.1 4.5 70.9 4.5 70.9 4.4 C 70.8 4.3 70.8 4.5 70.9 4.5 C 70.8 4.6 70.6 4.4 70.5 4.5 C 70.4 4.4 70.7 4.5 70.6 4.4 C 70.6 4.4 70.5 4.4 70.5 4.5 C 70.3 4.4 70.3 4.4 70.2 4.3 C 70.3 4.3 70.3 4.3 70.3 4.4 C 70.5 4.4 70.2 4.2 70.5 4.2 C 70.4 4.1 70.3 4.1 70.3 4.1 C 70.2 4.0 70.3 4.4 70.0 4.2 C 69.8 4.4 70.5 4.4 70.3 4.6 C 69.9 4.6 70.1 4.4 69.7 4.4 C 69.7 4.4 69.8 4.5 69.7 4.5 C 69.7 4.5 69.8 4.5 69.9 4.5 C 69.9 4.6 69.8 4.6 69.7 4.6 C 69.7 4.6 69.7 4.6 69.7 4.6 C 69.4 4.6 69.5 4.4 69.7 4.3 C 69.7 4.2 69.4 4.2 69.3 4.3 C 69.4 4.3 69.3 4.3 69.3 4.5 C 69.4 4.4 69.4 4.4 69.4 4.4 C 69.6 4.4 69.4 4.4 69.4 4.5 C 69.3 4.5 69.3 4.4 69.1 4.5 C 69.1 4.4 69.2 4.4 69.2 4.3 C 69.1 4.3 69.0 4.3 68.9 4.3 C 68.9 4.4 68.8 4.4 68.9 4.5 C 68.9 4.5 68.9 4.5 68.9 4.5 Z M 73.0 4.8 C 73.3 4.8 73.2 4.7 73.0 4.7 C 73.1 4.7 73.2 4.7 73.3 4.6 C 73.2 4.6 73.1 4.6 72.9 4.6 C 73.1 4.4 72.9 4.2 72.5 4.2 C 72.4 4.5 72.7 4.5 72.6 4.6 C 72.9 4.6 73.0 4.7 73.0 4.8 C 73.0 4.8 73.0 4.8 73.0 4.8 Z M 50.9 4.8 C 51.1 4.8 51.2 4.8 51.4 4.8 C 51.4 4.7 50.9 4.6 50.9 4.8 C 50.9 4.8 50.9 4.8 50.9 4.8 Z M 39.6 4.6 C 39.5 4.6 39.5 4.6 39.5 4.5 C 39.3 4.6 39.6 4.6 39.5 4.7 C 39.6 4.7 39.7 4.7 39.7 4.7 C 39.7 4.7 39.4 4.6 39.7 4.6 C 39.6 4.5 39.6 4.5 39.6 4.6 C 39.6 4.6 39.6 4.6 39.6 4.6 Z M 54.5 4.7 C 54.7 4.7 54.6 4.5 54.9 4.6 C 54.8 4.5 54.7 4.5 54.5 4.5 C 54.5 4.6 54.5 4.7 54.5 4.7 C 54.5 4.7 54.5 4.7 54.5 4.7 Z M 67.7 4.7 C 67.9 4.8 67.9 4.5 68.3 4.6 C 68.1 4.4 67.9 4.6 67.7 4.7 C 67.7 4.7 67.7 4.7 67.7 4.7 Z M 81.0 4.5 C 80.9 4.5 81.0 4.4 80.8 4.4 C 80.7 4.4 80.7 4.5 80.5 4.5 C 80.8 4.6 81.2 4.5 81.3 4.7 C 81.5 4.7 81.5 4.5 81.6 4.4 C 81.5 4.5 81.4 4.4 81.4 4.4 C 81.3 4.6 81.2 4.3 81.0 4.5 C 81.0 4.5 81.0 4.5 81.0 4.5 Z M 72.0 4.6 C 71.8 4.5 72.1 4.5 72.2 4.4 C 72.3 4.4 72.2 4.5 72.2 4.6 C 72.4 4.6 72.4 4.5 72.4 4.4 C 72.1 4.4 71.8 4.4 72.0 4.2 C 71.7 4.2 71.9 4.3 71.8 4.4 C 71.6 4.3 71.7 4.3 71.8 4.1 C 71.7 4.2 71.5 4.3 71.5 4.1 C 71.1 4.3 71.3 4.5 71.6 4.7 C 71.8 4.6 71.5 4.5 72.0 4.6 C 72.0 4.6 72.0 4.6 72.0 4.6 Z M 61.8 4.5 C 61.8 4.5 61.9 4.5 61.9 4.6 C 62.1 4.5 62.3 4.3 62.4 4.2 C 62.4 4.1 62.2 4.2 62.3 4.3 C 62.2 4.2 62.0 4.2 61.9 4.1 C 61.8 4.1 61.7 4.3 61.7 4.1 C 61.5 4.2 61.6 4.2 61.4 4.2 C 61.8 4.3 61.2 4.2 61.2 4.4 C 61.4 4.4 61.6 4.4 61.6 4.2 C 61.8 4.3 62.0 4.3 62.0 4.4 C 62.0 4.5 61.9 4.5 61.8 4.5 C 61.8 4.5 61.8 4.5 61.8 4.5 Z M 62.7 4.1 C 62.7 4.2 62.6 4.2 62.5 4.2 C 62.6 4.2 62.6 4.3 62.6 4.3 C 62.8 4.3 62.8 4.3 62.9 4.4 C 63.1 4.4 62.9 4.2 63.1 4.2 C 63.1 4.2 63.0 4.2 63.0 4.2 C 63.0 4.3 62.8 4.3 62.7 4.1 C 62.7 4.1 62.7 4.1 62.7 4.1 Z M 65.2 4.4 C 65.4 4.4 65.1 4.3 65.2 4.2 C 65.2 4.2 64.8 4.2 64.8 4.1 C 64.7 3.9 64.3 4.3 64.3 4.1 C 64.3 4.1 64.3 4.1 64.3 4.2 C 64.6 4.1 64.6 4.2 64.3 4.3 C 64.4 4.3 64.6 4.3 64.7 4.3 C 64.7 4.2 64.6 4.2 64.6 4.1 C 64.8 4.2 65.0 4.3 65.2 4.4 C 65.2 4.4 65.2 4.4 65.2 4.4 Z M 30.8 4.3 C 31.0 4.3 31.1 4.3 31.2 4.3 C 31.1 4.2 31.1 4.3 31.0 4.3 C 30.9 4.2 31.0 4.2 31.1 4.2 C 31.0 4.1 30.7 4.2 30.8 4.3 C 30.8 4.3 30.8 4.3 30.8 4.3 Z M 32.4 4.3 C 32.6 4.3 32.7 4.3 32.7 4.2 C 32.7 4.2 32.7 4.3 32.6 4.3 C 32.5 4.3 32.5 4.2 32.4 4.2 C 32.3 4.2 32.3 4.2 32.3 4.2 C 32.3 4.3 32.3 4.2 32.2 4.2 C 32.0 4.3 32.5 4.2 32.4 4.3 C 32.4 4.3 32.4 4.3 32.4 4.3 Z M 63.9 4.3 C 63.8 4.2 63.7 4.2 63.5 4.2 C 63.6 4.3 63.4 4.2 63.3 4.2 C 63.5 4.3 63.6 4.3 63.9 4.3 C 63.9 4.3 63.9 4.3 63.9 4.3 Z M 42.5 4.2 C 42.7 4.4 42.7 4.2 43.0 4.2 C 43.0 4.2 43.0 4.2 43.0 4.1 C 42.8 4.2 42.7 4.2 42.5 4.2 C 42.5 4.2 42.5 4.2 42.5 4.2 Z M 9.2 4.2 C 9.3 4.2 9.0 4.2 9.0 4.1 C 8.9 4.3 8.8 4.0 8.4 4.1 C 8.3 4.0 8.4 4.0 8.4 4.0 C 8.1 3.9 8.5 4.1 8.6 4.2 C 8.9 4.2 8.9 4.3 9.2 4.2 C 9.2 4.2 9.2 4.2 9.2 4.2 Z M 78.6 4.1 C 78.6 4.2 78.6 4.2 78.7 4.2 C 78.7 4.2 78.8 4.2 78.8 4.2 C 78.8 4.0 78.5 3.9 78.8 3.8 C 78.7 3.8 78.7 3.8 78.7 3.8 C 78.3 4.2 78.0 3.6 77.5 3.8 C 77.4 3.8 77.4 3.9 77.4 3.9 C 77.4 3.9 77.5 3.9 77.5 3.9 C 77.5 3.8 78.0 4.0 77.8 4.0 C 77.8 4.1 77.9 4.0 77.9 4.0 C 77.9 4.0 78.0 4.0 78.0 4.0 C 78.0 4.0 77.9 3.9 77.9 3.9 C 78.1 3.9 78.4 4.0 78.3 4.1 C 78.4 4.1 78.5 4.0 78.6 4.0 C 78.7 4.0 78.7 4.1 78.6 4.1 C 78.6 4.1 78.6 4.1 78.6 4.1 Z M 80.7 4.1 C 80.9 4.1 80.8 4.0 81.1 4.0 C 80.9 3.9 80.7 4.1 80.5 4.0 C 80.6 4.0 80.7 4.0 80.7 4.1 C 80.7 4.1 80.7 4.1 80.7 4.1 Z M 76.0 3.9 C 76.1 3.8 75.8 3.8 75.6 3.8 C 75.6 3.9 75.8 3.9 76.0 3.9 C 76.0 3.9 76.0 3.9 76.0 3.9 Z M 77.1 3.9 C 77.3 3.9 76.8 3.9 76.9 3.8 C 76.8 3.8 76.7 3.8 76.7 3.7 C 76.6 3.8 76.6 3.8 76.4 3.8 C 76.4 3.9 76.7 3.8 76.7 3.9 C 76.8 3.9 76.9 3.9 77.1 3.9 C 77.1 3.9 77.1 3.9 77.1 3.9 Z M 77.2 3.9 C 77.4 3.9 77.2 3.7 77.0 3.7 C 77.1 3.8 77.1 3.9 77.2 3.9 C 77.2 3.9 77.2 3.9 77.2 3.9 Z M 58.4 3.9 C 58.5 3.9 58.4 3.8 58.6 3.8 C 58.6 3.7 58.1 3.7 58.5 3.7 C 58.3 3.5 58.3 3.8 58.1 3.7 C 58.1 3.8 58.2 3.8 58.1 3.8 C 58.0 3.9 58.5 3.8 58.4 3.9 C 58.4 3.9 58.4 3.9 58.4 3.9 Z M 58.9 3.9 C 59.0 3.9 58.9 3.8 58.9 3.8 C 58.9 3.8 59.0 3.8 59.1 3.8 C 59.1 3.9 59.0 3.6 59.0 3.5 C 58.6 3.6 58.9 3.8 58.9 3.9 C 58.9 3.9 58.9 3.9 58.9 3.9 Z M 59.3 3.8 C 59.5 3.9 59.9 3.9 60.1 3.8 C 59.9 3.6 59.4 3.7 59.3 3.8 C 59.3 3.8 59.3 3.8 59.3 3.8 Z M 56.6 3.8 C 57.1 3.9 58.1 3.7 57.2 3.6 C 57.2 3.7 56.7 3.8 56.4 3.7 C 56.4 3.7 56.1 3.8 56.1 3.8 C 55.9 3.9 56.7 3.9 56.6 3.8 C 56.6 3.8 56.6 3.8 56.6 3.8 Z M 60.4 3.5 C 60.3 3.6 60.4 3.8 60.2 3.7 C 60.1 3.7 60.3 3.8 60.2 3.8 C 60.5 3.8 61.0 3.7 61.1 3.8 C 61.2 3.8 61.2 3.7 61.5 3.7 C 61.5 3.7 60.6 3.8 60.4 3.6 C 60.4 3.6 60.7 3.5 60.4 3.5 C 60.4 3.5 60.4 3.5 60.4 3.5 Z M 42.5 3.5 C 42.4 3.6 42.8 3.6 42.7 3.7 C 42.9 3.5 43.1 3.6 43.3 3.5 C 43.3 3.6 43.3 3.7 43.6 3.8 C 43.6 3.7 43.5 3.7 43.6 3.6 C 43.8 3.6 43.8 3.7 44.1 3.7 C 44.0 3.5 44.7 3.7 44.6 3.4 C 44.5 3.5 44.5 3.6 44.2 3.5 C 44.1 3.5 44.2 3.4 44.1 3.4 C 44.2 3.3 44.3 3.5 44.4 3.4 C 44.4 3.3 44.2 3.3 44.2 3.3 C 44.0 3.3 44.2 3.3 44.2 3.4 C 43.8 3.4 44.2 3.1 43.8 3.1 C 43.9 3.2 43.9 3.3 43.8 3.4 C 43.7 3.3 43.3 3.4 43.5 3.3 C 43.5 3.2 43.2 3.3 43.3 3.4 C 43.1 3.4 43.1 3.3 43.1 3.3 C 42.8 3.3 42.7 3.4 42.8 3.6 C 42.7 3.7 42.7 3.5 42.5 3.5 C 42.5 3.5 42.5 3.5 42.5 3.5 Z M 54.1 3.7 C 53.9 3.8 54.3 3.7 54.5 3.7 C 54.2 3.7 54.3 3.5 54.1 3.5 C 54.1 3.6 54.1 3.6 54.0 3.6 C 53.9 3.7 54.3 3.7 54.1 3.7 C 54.1 3.7 54.1 3.7 54.1 3.7 Z M 61.9 3.7 C 62.0 3.8 62.4 3.7 62.7 3.8 C 62.6 3.6 62.1 3.9 62.0 3.7 C 61.9 3.7 62.1 3.7 61.9 3.7 C 61.9 3.7 61.9 3.7 61.9 3.7 Z M 45.5 3.7 C 45.6 3.7 45.6 3.7 45.5 3.7 C 45.6 3.6 45.7 3.6 45.9 3.6 C 45.7 3.5 45.9 3.5 45.9 3.4 C 45.9 3.4 46.0 3.4 46.0 3.3 C 46.0 3.6 46.5 3.2 46.0 3.2 C 46.1 3.3 46.1 3.3 45.9 3.3 C 45.6 3.2 45.4 3.3 45.4 3.2 C 45.2 3.2 45.2 3.3 45.0 3.3 C 44.9 3.2 44.7 3.1 44.9 3.0 C 44.5 3.0 44.8 3.3 44.5 3.3 C 44.2 3.2 44.6 3.2 44.6 3.0 C 44.5 3.0 44.5 3.0 44.5 3.0 C 44.4 3.0 44.4 3.1 44.5 3.1 C 44.4 3.1 44.2 3.2 44.2 3.1 C 44.1 3.2 44.5 3.5 44.7 3.3 C 44.9 3.3 44.9 3.6 44.7 3.5 C 44.8 3.6 45.0 3.4 45.0 3.6 C 45.1 3.6 45.2 3.6 45.3 3.6 C 45.3 3.6 45.2 3.6 45.2 3.5 C 45.3 3.5 45.4 3.5 45.5 3.5 C 45.4 3.6 45.4 3.6 45.5 3.7 C 45.5 3.7 45.5 3.7 45.5 3.7 Z M 60.9 3.7 C 61.1 3.7 61.1 3.6 61.3 3.6 C 61.2 3.5 60.8 3.6 60.9 3.7 C 60.9 3.7 60.9 3.7 60.9 3.7 Z M 41.1 3.2 C 41.1 3.2 41.3 3.2 41.3 3.3 C 41.0 3.3 41.3 3.4 41.1 3.6 C 41.4 3.5 41.5 3.2 41.1 3.1 C 40.8 3.1 41.4 3.2 41.1 3.2 C 41.1 3.2 41.1 3.2 41.1 3.2 Z M 42.1 3.3 C 42.3 3.2 41.8 3.1 41.7 3.1 C 41.7 3.0 41.7 3.0 41.7 3.0 C 41.4 3.2 41.8 3.2 41.5 3.4 C 41.8 3.5 42.0 3.6 42.2 3.5 C 42.2 3.4 42.1 3.5 42.1 3.5 C 41.9 3.5 42.1 3.3 42.3 3.4 C 42.2 3.3 42.0 3.3 41.9 3.3 C 41.9 3.3 42.0 3.4 42.0 3.4 C 41.8 3.4 41.9 3.3 41.7 3.3 C 41.7 3.3 42.1 3.2 42.1 3.3 C 42.1 3.3 42.1 3.3 42.1 3.3 Z M 26.2 3.4 C 26.4 3.4 26.0 3.3 26.1 3.1 C 25.9 3.1 25.8 3.1 25.7 3.1 C 25.8 3.2 26.0 3.2 26.1 3.3 C 26.0 3.4 25.8 3.3 25.7 3.4 C 25.6 3.6 26.1 3.3 26.2 3.4 C 26.2 3.4 26.2 3.4 26.2 3.4 Z M 49.3 3.5 C 49.4 3.5 49.3 3.4 49.3 3.4 C 49.3 3.4 49.5 3.4 49.5 3.4 C 49.6 3.4 49.4 3.4 49.5 3.4 C 49.6 3.3 49.3 3.4 49.3 3.4 C 49.1 3.4 49.3 3.3 49.2 3.2 C 49.1 3.2 49.1 3.3 48.9 3.3 C 49.0 3.4 49.2 3.4 49.3 3.5 C 49.3 3.5 49.3 3.5 49.3 3.5 Z M 40.5 3.4 C 40.5 3.5 40.7 3.2 40.9 3.3 C 41.2 3.3 40.8 3.2 41.0 3.2 C 40.8 3.2 40.5 3.3 40.2 3.3 C 40.1 3.4 40.7 3.3 40.4 3.4 C 40.4 3.4 40.5 3.4 40.5 3.4 C 40.5 3.4 40.5 3.4 40.5 3.4 C 40.5 3.4 40.5 3.4 40.5 3.4 Z M 40.9 3.1 C 40.8 3.1 40.8 3.1 40.8 3.1 C 40.7 3.1 40.7 3.0 40.8 3.0 C 40.6 2.9 40.6 3.1 40.4 3.0 C 40.5 3.2 40.5 3.2 40.3 3.1 C 40.1 3.2 40.8 3.2 40.9 3.1 C 40.9 3.1 40.9 3.1 40.9 3.1 Z M 28.8 3.4 C 28.8 3.3 28.6 3.3 28.5 3.3 C 28.6 3.2 29.3 3.3 29.4 3.4 C 29.4 3.3 29.5 3.3 29.5 3.4 C 29.5 3.3 29.7 3.3 29.6 3.3 C 29.6 3.2 29.8 3.2 29.8 3.2 C 30.0 3.2 29.7 3.3 29.8 3.3 C 30.0 3.2 30.0 3.3 30.3 3.3 C 30.3 3.2 29.9 3.3 29.9 3.1 C 29.7 3.2 29.4 3.1 29.2 3.0 C 29.4 3.2 28.5 3.3 28.1 3.2 C 28.1 3.2 27.9 3.2 27.7 3.1 C 27.6 3.0 27.7 3.3 27.9 3.2 C 27.9 3.3 27.6 3.2 27.4 3.2 C 27.6 3.3 27.5 3.4 27.6 3.4 C 27.9 3.4 27.6 3.4 27.7 3.3 C 27.7 3.3 27.8 3.3 27.9 3.3 C 27.5 3.5 28.5 3.3 28.1 3.3 C 28.5 3.3 28.5 3.4 28.8 3.4 C 28.8 3.4 28.8 3.4 28.8 3.4 Z M 36.4 3.4 C 36.4 3.4 36.7 3.3 36.7 3.4 C 37.0 3.3 36.7 3.2 37.1 3.2 C 37.1 3.2 36.9 3.2 36.9 3.1 C 36.8 3.2 36.6 3.2 36.7 3.3 C 36.5 3.3 36.5 3.4 36.4 3.4 C 36.4 3.3 36.5 3.3 36.6 3.3 C 36.6 3.2 36.6 3.1 36.4 3.1 C 36.3 3.2 36.3 3.3 36.4 3.4 C 36.4 3.4 36.4 3.4 36.4 3.4 Z M 37.2 3.3 C 37.2 3.3 37.2 3.3 37.2 3.4 C 37.4 3.5 37.3 3.2 37.4 3.2 C 37.5 3.2 37.5 3.3 37.5 3.3 C 37.6 3.3 37.7 3.3 37.8 3.3 C 38.0 3.3 37.6 3.2 37.5 3.2 C 37.3 3.2 37.4 3.3 37.2 3.3 C 37.2 3.3 37.2 3.3 37.2 3.3 Z M 39.6 3.4 C 39.6 3.5 39.7 3.3 39.8 3.3 C 39.7 3.2 39.5 3.3 39.7 3.1 C 39.4 3.1 39.4 3.1 39.2 3.1 C 39.0 3.0 39.2 3.2 39.4 3.2 C 39.4 3.2 39.3 3.2 39.3 3.3 C 39.1 3.0 38.7 3.4 38.9 3.3 C 39.0 3.3 39.0 3.3 39.1 3.4 C 39.1 3.3 39.7 3.3 39.6 3.4 C 39.6 3.4 39.6 3.4 39.6 3.4 Z M 47.6 3.3 C 47.3 3.3 47.3 3.3 47.0 3.3 C 47.0 3.2 47.0 3.2 47.1 3.2 C 47.0 3.1 46.9 3.1 46.7 3.2 C 46.7 3.2 46.8 3.2 46.8 3.2 C 47.1 3.3 46.9 3.3 46.8 3.4 C 47.1 3.5 47.4 3.3 47.5 3.4 C 47.7 3.4 47.5 3.3 47.6 3.3 C 47.6 3.3 47.6 3.3 47.6 3.3 Z M 9.6 3.3 C 9.5 3.3 9.4 3.3 9.4 3.4 C 9.5 3.3 9.6 3.3 9.7 3.3 C 9.5 3.3 9.5 3.1 9.2 3.1 C 9.3 3.2 9.3 3.3 9.6 3.3 C 9.6 3.3 9.6 3.3 9.6 3.3 Z M 38.8 3.3 C 38.8 3.3 38.8 3.2 38.8 3.2 C 38.9 3.1 38.6 3.2 38.6 3.1 C 38.5 3.1 38.6 3.2 38.4 3.2 C 38.5 3.2 38.7 3.2 38.6 3.3 C 38.5 3.3 38.5 3.3 38.5 3.3 C 38.4 3.3 38.6 3.4 38.8 3.3 C 38.8 3.3 38.8 3.3 38.8 3.3 Z M 25.4 3.3 C 25.5 3.3 25.4 3.3 25.3 3.3 C 25.6 3.1 25.2 3.1 25.2 2.9 C 25.3 3.0 25.6 3.0 25.7 3.0 C 25.7 3.0 25.6 2.9 25.9 2.9 C 25.9 2.8 25.6 2.8 25.7 2.9 C 25.6 2.8 25.3 3.0 25.3 2.8 C 25.0 2.8 24.9 2.9 24.9 3.0 C 25.2 3.0 25.0 3.2 25.3 3.1 C 25.3 3.2 25.2 3.2 25.2 3.2 C 25.2 3.3 25.3 3.3 25.4 3.3 C 25.4 3.3 25.4 3.3 25.4 3.3 Z M 33.8 3.3 C 34.0 3.3 34.0 3.2 33.9 3.1 C 33.9 3.2 33.8 3.2 33.6 3.2 C 33.7 3.2 33.9 3.2 33.8 3.3 C 33.8 3.3 33.8 3.3 33.8 3.3 Z M 26.7 3.2 C 26.7 3.2 26.8 3.2 26.8 3.2 C 27.0 3.2 27.0 3.2 27.1 3.3 C 27.2 3.3 27.2 3.2 27.2 3.1 C 27.0 3.2 27.0 3.1 26.8 3.1 C 26.8 3.1 26.8 3.2 26.7 3.2 C 26.7 3.2 26.7 3.2 26.7 3.2 Z M 32.1 3.3 C 32.2 3.2 32.1 3.2 32.1 3.2 C 32.2 3.1 32.5 3.2 32.7 3.1 C 32.7 3.0 32.3 3.0 32.7 3.0 C 32.6 2.9 32.2 3.0 32.0 3.0 C 32.1 2.9 32.3 2.9 32.3 2.7 C 32.1 2.8 31.8 2.9 31.8 3.0 C 32.1 3.1 32.0 3.2 32.1 3.3 C 32.1 3.3 32.1 3.3 32.1 3.3 Z M 31.7 3.2 C 31.7 3.2 31.8 3.2 31.9 3.2 C 31.7 3.0 31.6 3.1 31.2 3.0 C 31.2 3.1 31.2 3.1 31.2 3.1 C 31.1 3.1 31.0 3.1 31.0 3.1 C 31.3 3.3 31.4 3.2 31.8 3.1 C 31.8 3.2 31.7 3.2 31.7 3.2 C 31.7 3.2 31.7 3.2 31.7 3.2 Z M 42.5 3.2 C 42.4 3.1 42.3 3.0 42.1 3.0 C 42.1 3.1 42.2 3.2 42.5 3.2 C 42.5 3.2 42.5 3.2 42.5 3.2 Z M 26.4 3.1 C 26.2 3.2 26.6 3.1 26.5 3.0 C 26.3 2.9 26.1 2.9 26.1 2.8 C 25.7 2.9 26.4 2.9 26.4 3.1 C 26.4 3.1 26.4 3.1 26.4 3.1 Z M 27.8 2.8 C 27.9 2.8 27.9 3.0 27.8 2.9 C 27.6 2.9 28.0 3.0 27.7 3.0 C 27.8 3.0 28.2 3.1 28.3 3.0 C 28.3 2.9 28.0 3.0 28.0 2.8 C 28.0 2.8 28.0 2.8 28.1 2.8 C 28.0 2.8 28.0 2.8 27.8 2.8 C 27.8 2.8 27.8 2.8 27.8 2.8 Z M 29.0 3.0 C 28.9 2.9 28.7 2.9 28.5 2.9 C 28.6 3.0 28.7 3.1 29.0 3.0 C 29.0 3.0 29.0 3.0 29.0 3.0 Z M 13.8 2.9 C 14.0 2.8 13.9 2.7 13.8 2.7 C 13.6 2.7 13.6 2.8 13.4 2.7 C 13.5 2.9 13.7 2.7 13.8 2.9 C 13.8 2.9 13.8 2.9 13.8 2.9 Z M 13.1 2.8 C 13.1 2.7 12.8 2.7 12.8 2.6 C 12.6 2.9 12.4 2.5 12.4 2.7 C 12.3 2.7 12.3 2.6 12.1 2.6 C 12.4 2.9 12.9 2.8 13.1 2.8 C 13.1 2.8 13.1 2.8 13.1 2.8 Z M 30.4 2.8 C 30.6 2.8 30.3 2.6 30.6 2.6 C 30.6 2.6 30.2 2.5 30.4 2.5 C 30.1 2.4 30.4 2.7 30.4 2.8 C 30.4 2.8 30.4 2.8 30.4 2.8 Z M 34.3 2.6 C 34.3 2.7 34.6 2.7 34.7 2.7 C 34.7 2.6 34.6 2.7 34.6 2.6 C 34.6 2.6 34.7 2.6 34.7 2.6 C 34.7 2.5 34.5 2.6 34.3 2.6 C 34.3 2.6 34.3 2.6 34.3 2.6 Z M 30.0 4.9 C 29.9 4.7 29.7 4.6 29.6 4.8 C 29.5 4.7 29.7 4.7 29.5 4.6 C 29.3 4.7 29.4 4.5 29.0 4.6 C 29.1 4.5 28.8 4.5 28.8 4.4 C 28.9 4.3 29.1 4.5 29.2 4.4 C 29.1 4.4 29.1 4.3 29.2 4.3 C 29.4 4.4 28.9 4.5 29.2 4.6 C 29.3 4.4 29.7 4.7 30.0 4.7 C 29.9 4.8 30.2 4.8 30.0 4.9 C 30.0 4.9 30.0 4.9 30.0 4.9 Z M 28.6 4.6 C 28.4 4.6 28.3 4.4 28.3 4.4 C 28.3 4.4 28.5 4.4 28.6 4.4 C 28.5 4.4 28.5 4.4 28.5 4.3 C 28.8 4.3 28.7 4.5 28.8 4.5 C 28.6 4.6 28.5 4.5 28.5 4.6 C 28.5 4.6 28.6 4.6 28.6 4.6 C 28.6 4.6 28.6 4.6 28.6 4.6 Z M 24.3 2.6 C 24.3 2.7 24.4 2.6 24.5 2.6 C 24.5 2.7 24.9 2.5 24.9 2.6 C 24.8 2.7 24.6 2.7 24.5 2.7 C 24.6 2.7 24.7 2.8 24.8 2.7 C 24.7 2.8 24.5 2.8 24.5 2.9 C 24.4 2.9 24.3 3.0 24.3 2.9 C 24.6 2.8 24.1 2.6 24.3 2.6 C 24.3 2.6 24.3 2.6 24.3 2.6 Z M 32.2 2.6 C 32.3 2.5 31.9 2.2 32.2 2.0 C 32.3 2.1 32.4 2.3 32.3 2.4 C 32.5 2.3 32.6 2.4 32.7 2.3 C 33.1 2.7 32.5 2.3 32.2 2.6 C 32.2 2.6 32.2 2.6 32.2 2.6 Z M 33.5 2.5 C 33.5 2.6 33.7 2.6 33.6 2.7 C 33.5 2.6 33.0 2.7 33.1 2.6 C 33.3 2.6 33.3 2.5 33.5 2.5 C 33.5 2.5 33.5 2.5 33.5 2.5 Z M 66.7 3.6 C 66.4 3.7 66.3 3.4 66.4 3.4 C 66.4 3.5 66.8 3.4 66.7 3.6 C 66.7 3.6 66.7 3.6 66.7 3.6 Z M 57.4 5.5 C 57.6 5.6 57.7 5.5 57.8 5.6 C 57.5 5.6 57.5 5.6 57.4 5.6 C 57.3 5.6 57.2 5.7 57.2 5.6 C 57.3 5.6 57.3 5.5 57.4 5.5 C 57.4 5.5 57.4 5.5 57.4 5.5 Z M 38.4 5.3 C 38.5 5.4 38.6 5.4 38.5 5.5 C 38.3 5.4 38.0 5.5 37.8 5.6 C 37.8 5.6 37.8 5.5 37.8 5.5 C 38.2 5.5 38.3 5.4 38.4 5.3 C 38.4 5.3 38.4 5.3 38.4 5.3 Z M 38.9 5.6 C 39.0 5.5 38.8 5.4 39.0 5.4 C 39.0 5.5 39.3 5.6 39.2 5.6 C 39.1 5.5 39.0 5.5 38.9 5.6 C 38.9 5.6 38.9 5.6 38.9 5.6 Z M 25.4 4.9 C 25.2 4.9 25.5 5.0 25.5 5.1 C 25.4 5.1 25.2 5.1 25.1 5.0 C 25.2 5.0 25.3 4.8 25.4 4.9 C 25.4 4.9 25.4 4.9 25.4 4.9 Z M 28.4 4.6 C 28.8 4.6 28.6 4.8 29.0 4.9 C 28.9 5.0 28.5 4.9 28.4 5.0 C 28.4 5.0 28.3 5.0 28.3 4.9 C 28.5 4.9 28.5 4.9 28.6 4.9 C 28.6 4.8 28.6 4.9 28.6 4.7 C 28.5 4.7 28.5 4.8 28.4 4.8 C 28.4 4.7 28.3 4.7 28.4 4.6 C 28.4 4.6 28.4 4.6 28.4 4.6 Z M 25.5 4.6 C 25.3 4.6 25.2 4.5 25.3 4.5 C 25.4 4.6 25.5 4.5 25.5 4.5 C 25.3 4.6 25.7 4.6 25.6 4.7 C 25.4 4.7 25.4 4.7 25.4 4.8 C 25.3 4.8 25.2 4.8 25.2 4.8 C 25.2 4.8 25.3 4.8 25.3 4.7 C 25.3 4.7 25.2 4.7 25.3 4.7 C 25.4 4.7 25.5 4.7 25.5 4.6 C 25.5 4.6 25.5 4.6 25.5 4.6 Z M 26.6 4.6 C 26.4 4.6 26.4 4.5 26.3 4.4 C 26.6 4.5 26.6 4.6 26.9 4.7 C 26.6 4.7 26.4 4.8 26.3 4.7 C 26.4 4.7 26.6 4.7 26.6 4.6 C 26.6 4.6 26.6 4.6 26.6 4.6 Z M 87.6 4.4 C 87.4 4.3 87.3 4.2 87.0 4.2 C 87.0 4.3 87.4 4.5 87.2 4.5 C 87.0 4.5 87.1 4.3 87.0 4.3 C 87.1 4.5 86.2 4.5 86.2 4.3 C 86.3 4.3 86.3 4.3 86.3 4.2 C 86.7 4.2 86.8 4.1 87.1 4.1 C 87.3 4.2 87.9 4.2 88.2 4.1 C 88.5 4.3 88.8 4.1 89.1 4.2 C 89.2 4.2 88.9 4.1 89.1 4.1 C 89.3 4.2 89.2 4.3 89.4 4.3 C 89.4 4.3 89.3 4.2 89.5 4.2 C 89.4 4.2 89.6 4.3 89.6 4.3 C 89.2 4.3 89.6 4.5 89.3 4.5 C 89.2 4.4 89.4 4.3 89.1 4.3 C 88.9 4.3 88.8 4.4 88.8 4.5 C 88.7 4.5 88.6 4.5 88.6 4.5 C 88.7 4.4 88.0 4.6 88.3 4.4 C 88.4 4.4 88.6 4.4 88.7 4.4 C 88.6 4.2 88.4 4.3 88.2 4.4 C 88.1 4.3 88.2 4.2 88.1 4.2 C 87.9 4.3 88.2 4.4 88.0 4.5 C 88.1 4.5 88.2 4.5 88.2 4.5 C 87.8 4.4 87.7 4.5 87.5 4.5 C 87.6 4.4 87.3 4.4 87.6 4.4 C 87.6 4.4 87.6 4.4 87.6 4.4 Z M 90.5 4.2 C 90.6 4.2 90.7 4.2 90.7 4.2 C 90.8 4.3 90.4 4.3 90.7 4.5 C 90.3 4.4 90.7 4.3 90.5 4.2 C 90.5 4.2 90.5 4.2 90.5 4.2 Z M 88.9 3.8 C 88.8 3.6 88.8 3.9 88.7 3.9 C 88.9 3.9 89.1 3.9 89.1 4.0 C 88.9 4.0 88.8 4.0 88.6 4.0 C 88.8 3.8 88.3 3.9 88.2 3.7 C 88.4 3.7 88.6 3.6 88.8 3.7 C 88.8 3.7 89.1 3.7 88.9 3.8 C 88.9 3.8 88.9 3.8 88.9 3.8 Z M 89.5 3.6 C 89.6 3.7 89.9 3.6 89.9 3.8 C 89.6 3.7 89.6 3.8 89.6 3.9 C 89.5 3.9 89.4 3.8 89.3 3.8 C 89.2 3.7 89.5 3.7 89.5 3.7 C 89.5 3.7 89.4 3.6 89.5 3.6 C 89.5 3.6 89.5 3.6 89.5 3.6 Z M 7.7 2.9 C 7.8 3.0 7.5 2.9 7.4 2.9 C 7.5 3.0 7.4 3.0 7.2 3.1 C 7.3 2.9 7.0 3.0 6.8 2.8 C 6.8 2.9 7.0 3.0 6.7 3.0 C 6.5 3.0 6.3 3.0 6.0 3.0 C 6.0 2.9 6.1 2.9 6.2 2.8 C 6.0 2.9 6.0 2.8 5.9 2.8 C 5.9 2.8 5.8 2.9 5.7 2.8 C 6.0 2.8 5.3 2.7 5.6 2.6 C 5.6 2.7 5.7 2.6 5.8 2.6 C 5.7 2.8 6.1 2.7 6.2 2.8 C 6.3 2.5 6.8 2.6 7.2 2.7 C 7.3 2.8 7.1 2.8 7.2 2.8 C 7.2 2.8 7.4 2.8 7.5 2.8 C 7.5 2.8 7.5 2.9 7.6 2.9 C 7.6 2.9 7.6 2.8 7.7 2.9 C 7.7 2.9 7.7 2.9 7.7 2.9 Z M 74.4 3.0 C 74.4 2.8 73.9 3.0 73.8 3.0 C 73.8 2.8 74.7 2.9 74.4 3.0 C 74.4 3.0 74.4 3.0 74.4 3.0 Z M 77.5 2.9 C 77.4 2.9 77.5 3.0 77.4 3.0 C 77.4 2.9 77.1 3.1 77.1 3.0 C 77.2 2.9 77.3 2.9 77.5 2.9 C 77.5 2.9 77.5 2.9 77.5 2.9 Z M 80.4 2.9 C 80.2 3.0 80.6 3.0 80.5 3.0 C 80.3 3.0 80.1 3.0 80.1 2.9 C 80.3 3.0 80.4 2.8 80.4 2.9 C 80.4 2.9 80.4 2.9 80.4 2.9 Z M 76.1 2.8 C 75.9 2.7 76.2 2.6 76.3 2.6 C 76.0 2.7 76.4 2.8 76.6 2.7 C 76.6 2.9 76.5 2.8 76.6 3.0 C 76.3 3.0 76.5 2.8 76.3 2.9 C 76.2 2.9 76.3 2.9 76.3 3.0 C 76.3 3.0 76.2 3.0 76.1 3.0 C 76.1 2.9 76.1 2.9 76.1 2.8 C 76.2 2.8 76.3 2.8 76.3 2.7 C 76.2 2.7 76.2 2.8 76.1 2.8 C 76.1 2.8 76.1 2.8 76.1 2.8 Z M 3.5 2.6 C 3.4 2.6 3.5 2.7 3.6 2.7 C 3.6 2.6 3.7 2.4 3.9 2.5 C 3.5 2.6 3.9 2.7 3.8 2.8 C 3.7 2.7 3.5 2.8 3.4 2.8 C 3.3 2.7 3.5 2.5 3.5 2.6 C 3.5 2.6 3.5 2.6 3.5 2.6 Z M 4.1 2.7 C 4.1 2.7 4.0 2.6 3.9 2.6 C 4.0 2.5 3.9 2.5 4.0 2.5 C 4.0 2.5 4.4 2.6 4.2 2.6 C 4.0 2.5 4.2 2.7 4.3 2.7 C 4.2 2.7 4.0 2.8 4.0 2.7 C 4.1 2.7 4.1 2.7 4.1 2.7 C 4.1 2.7 4.1 2.7 4.1 2.7 Z M 9.3 2.5 C 9.3 2.4 9.2 2.4 9.2 2.4 C 9.6 2.4 9.9 2.4 10.1 2.4 C 9.9 2.5 9.9 2.6 10.0 2.6 C 9.8 2.6 9.8 2.6 9.7 2.6 C 9.9 2.5 9.6 2.5 9.3 2.5 C 9.3 2.5 9.3 2.5 9.3 2.5 Z M 9.3 2.5 " fill="#71AFE1"></path></g></svg>