<?xml version="1.0" encoding="UTF-8" standalone="no"?><svg xmlns="http://www.w3.org/2000/svg" xmlns:xlink="http://www.w3.org/1999/xlink" clip-rule="evenodd" stroke-miterlimit="4.00" viewBox="0 0 1024 768"><desc>SVG generated by Keynote</desc><defs></defs><g transform="matrix(1.00, 0.00, -0.00, -1.00, 0.0, 768.0)"><g><clipPath id="clip-342"><path d="M 0.0 768.0 L 1024.0 768.0 L 1024.0 0.0 L 0.0 0.0 Z M 0.0 768.0 "></path></clipPath><g clip-path="url(#clip-342)"><image xlink:href="../../86BB661C-AAFE-46F2-89B5-B98D6D644DD8/assets/DE78B55DDE70D88C6FF874E8D33A46A3.jpeg" width="1024.00" height="768.00" transform="matrix(1.00, 0.00, -0.00, -1.00, 0.0, 768.0)"></image></g></g><image xlink:href="../../86BB661C-AAFE-46F2-89B5-B98D6D644DD8/assets/610DE41026624E3AEF638D24E71EF355.png" width="74.00" height="62.00" transform="matrix(1.00, 0.00, -0.00, -1.00, 949.0, 64.0)"></image><image xlink:href="../../86BB661C-AAFE-46F2-89B5-B98D6D644DD8/assets/C79B4846A618BF06956E5E1178655E37.png" width="40.00" height="40.00" transform="matrix(1.00, 0.00, -0.00, -1.01, 966.2, 53.0)" opacity="0.50"></image><g><clipPath id="clip-343"><path d="M 996.7 43.5 C 1002.5 37.6 1002.5 28.0 996.7 22.0 C 990.9 16.1 981.4 16.1 975.6 22.0 C 969.7 28.0 969.7 37.6 975.6 43.5 C 981.4 49.5 990.9 49.5 996.7 43.5 Z M 996.7 43.5 "></path></clipPath><g clip-path="url(#clip-343)"><image xlink:href="../../86BB661C-AAFE-46F2-89B5-B98D6D644DD8/assets/DE78B55DDE70D88C6FF874E8D33A46A3.jpeg" width="1024.00" height="768.00" transform="matrix(0.04, 0.00, -0.00, -0.04, 965.9, 48.0)"></image></g></g><text xml:space="preserve" font-family="HoboStd" font-size="18.0" fill="#E5CC77" transform="matrix(1.00, 0.00, -0.00, -1.00, 976.0, 26.0)">5</text><text xml:space="preserve" font-family="HoboStd" font-size="18.0" fill="#E5CC77" transform="matrix(1.00, 0.00, -0.00, -1.00, 986.4, 26.0)">3</text><path d="M 600.7 417.3 C 649.7 398.9 649.7 369.1 600.7 350.7 C 551.7 332.3 472.3 332.3 423.3 350.7 C 374.3 369.1 374.3 398.9 423.3 417.3 C 472.3 435.7 551.7 435.7 600.7 417.3 Z M 600.7 417.3 " fill="#A8E685"></path><path d="M 446.4 339.8 C 446.0 340.0 445.6 340.1 444.9 340.2 C 445.2 340.2 445.5 340.3 445.5 340.4 C 446.0 340.2 446.8 340.0 448.0 339.7 C 447.9 339.7 447.3 339.8 446.9 339.9 C 446.4 340.0 446.5 339.9 446.4 339.8 C 446.4 339.8 446.4 339.8 446.4 339.8 Z M 436.4 425.1 C 435.5 424.8 436.5 425.3 436.8 425.4 C 436.9 425.4 436.9 425.4 437.3 425.5 C 437.4 425.7 436.5 425.5 435.8 425.4 C 433.2 424.6 435.3 424.7 436.4 425.1 C 436.4 425.1 436.4 425.1 436.4 425.1 Z M 580.4 426.8 C 582.6 426.3 580.2 426.6 579.8 426.6 C 580.8 426.3 579.9 426.1 581.2 425.8 C 581.5 425.8 582.0 425.8 582.2 425.8 C 581.7 426.0 580.8 426.2 580.8 426.3 C 581.5 426.1 582.6 425.8 582.7 425.9 C 581.1 426.3 582.5 426.2 582.8 426.3 C 581.4 426.6 580.9 426.9 580.4 426.8 C 580.4 426.8 580.4 426.8 580.4 426.8 Z M 617.9 355.6 C 618.6 356.0 619.2 356.4 618.9 356.4 C 618.2 356.0 617.7 355.6 617.3 355.4 C 617.1 355.4 617.3 355.6 616.6 355.3 C 615.9 354.6 616.4 354.6 616.9 354.7 C 616.9 354.9 619.5 356.3 617.9 355.6 C 617.9 355.6 617.9 355.6 617.9 355.6 Z M 558.5 337.9 C 556.5 337.5 558.3 338.2 556.3 337.8 C 556.4 337.6 556.1 337.3 557.5 337.5 C 557.6 337.6 558.3 337.8 558.5 337.9 C 558.5 337.9 558.5 337.9 558.5 337.9 Z M 519.6 432.4 C 519.6 432.5 521.1 432.4 520.8 432.7 C 520.0 432.7 519.3 432.7 518.5 432.7 C 518.4 432.5 518.6 432.4 519.6 432.4 C 519.6 432.4 519.6 432.4 519.6 432.4 Z M 594.0 420.6 C 596.1 420.2 598.1 419.0 597.6 419.5 C 598.4 419.5 596.4 420.6 596.4 420.4 C 596.1 420.2 592.4 421.1 594.0 420.6 C 594.0 420.6 594.0 420.6 594.0 420.6 Z M 448.6 423.8 C 450.9 424.5 450.6 423.8 452.1 424.4 C 451.5 424.3 451.3 424.3 451.1 424.4 C 451.5 424.5 452.1 424.6 452.0 424.6 C 450.9 424.4 449.5 424.2 448.6 423.8 C 448.6 423.8 448.6 423.8 448.6 423.8 Z M 482.5 334.8 C 482.9 334.8 483.2 334.7 483.1 334.6 C 484.8 334.5 484.8 334.3 485.8 334.4 C 485.9 334.7 484.5 334.7 483.1 334.8 C 483.1 334.8 482.6 334.9 482.5 334.8 C 482.5 334.8 482.5 334.8 482.5 334.8 Z M 531.8 335.0 C 531.8 334.8 530.7 334.7 532.4 334.7 C 534.2 335.1 532.6 335.2 530.6 335.3 C 530.6 335.4 530.6 335.5 530.6 335.6 C 531.4 335.6 531.9 335.7 532.3 335.8 C 532.6 335.4 533.9 336.2 536.7 336.1 C 535.4 336.2 536.8 336.6 535.0 336.3 C 535.5 336.6 534.3 336.5 534.5 336.7 C 535.2 336.6 537.1 336.8 536.7 336.5 C 537.7 336.5 538.4 336.6 538.9 336.7 C 539.6 337.0 537.1 336.6 537.8 336.9 C 538.3 337.0 538.4 337.1 538.9 337.1 C 539.0 337.0 538.8 336.9 539.4 336.9 C 541.2 337.2 539.1 337.2 541.6 337.4 C 541.8 337.3 541.0 337.2 541.1 337.0 C 542.2 337.0 542.1 337.2 543.3 337.2 C 543.5 337.3 542.4 337.3 543.2 337.4 C 544.0 337.1 545.5 337.9 547.1 337.7 C 546.1 337.1 547.3 337.8 548.7 337.5 C 549.1 337.7 548.0 337.9 549.2 338.0 C 548.9 337.4 553.7 338.1 549.9 337.2 C 551.9 337.4 552.7 337.0 551.0 336.7 C 554.6 337.3 553.5 336.8 554.8 337.0 C 556.2 337.2 554.1 337.0 554.8 337.3 C 553.3 337.1 553.7 337.3 552.7 337.0 C 552.6 337.1 552.4 337.2 552.0 337.2 C 553.5 337.2 555.2 337.8 554.1 337.9 C 553.4 337.8 554.1 337.6 553.1 337.5 C 553.4 337.9 552.1 337.3 552.0 337.5 C 552.6 337.9 550.5 337.9 552.5 338.2 C 552.5 338.1 552.5 337.9 552.6 337.8 C 553.1 337.9 553.6 337.9 554.1 338.0 C 554.6 338.3 554.2 338.4 554.6 338.6 C 555.5 338.7 556.0 338.7 556.3 338.6 C 555.2 338.4 553.9 338.0 555.7 338.2 C 555.0 338.6 558.3 338.7 556.8 338.8 C 558.7 339.2 559.7 339.0 559.9 339.3 C 560.9 339.5 560.3 339.1 561.5 339.3 C 563.4 339.9 563.1 339.5 565.7 340.1 C 566.0 339.8 565.9 340.2 566.7 340.4 C 566.7 340.3 566.8 340.1 566.8 340.0 C 567.7 340.4 569.7 340.9 571.9 341.1 C 572.4 341.2 572.0 341.4 573.3 341.6 C 574.9 341.6 576.6 342.3 578.4 342.4 C 578.5 342.6 579.7 342.9 580.3 342.9 C 580.6 343.1 579.7 343.2 580.8 343.4 C 581.5 343.4 580.3 343.0 581.8 343.3 C 581.6 343.5 583.3 343.5 583.2 343.7 C 582.8 343.7 582.2 343.6 581.7 343.6 C 582.4 343.8 582.2 343.9 582.7 344.0 C 582.7 343.7 583.8 344.2 584.1 344.4 C 584.1 344.2 584.3 344.2 584.7 344.2 C 585.5 344.4 586.2 344.6 586.6 344.6 C 587.6 345.0 585.9 344.7 587.0 345.0 C 587.7 344.5 588.5 345.5 590.8 345.8 C 591.3 346.1 592.1 346.5 593.5 346.9 C 593.7 346.8 592.2 346.4 592.2 346.3 C 594.2 347.0 591.9 346.0 593.2 346.4 C 596.0 347.4 597.8 348.1 600.6 349.3 C 600.6 349.1 604.0 350.3 603.9 350.3 C 602.9 350.0 605.8 351.4 607.3 352.1 C 607.8 351.9 610.2 352.5 610.4 352.4 C 610.8 352.8 610.7 352.8 610.8 353.2 C 613.1 354.4 614.4 354.7 615.6 355.8 C 615.6 355.6 616.6 356.1 617.5 356.5 C 617.1 356.5 616.6 356.4 616.1 356.2 C 617.2 356.8 617.3 357.0 618.3 357.6 C 619.6 357.5 620.6 359.2 621.7 359.1 C 623.1 360.0 622.7 360.1 624.0 361.0 C 624.0 360.8 624.2 360.8 624.6 361.0 C 623.7 360.5 623.0 360.3 622.7 359.7 C 624.7 360.9 619.4 356.7 622.7 358.6 C 622.8 358.7 622.4 358.7 623.1 359.2 C 624.9 360.3 624.0 359.4 623.2 358.9 C 624.5 359.6 625.7 360.6 624.9 359.7 C 627.6 361.5 625.8 360.5 626.6 361.2 C 631.2 364.5 635.8 369.2 638.1 374.7 C 638.5 374.8 639.3 377.8 639.4 378.8 C 640.0 380.3 640.3 382.0 640.0 382.5 C 640.3 382.8 639.9 384.4 640.1 384.6 C 640.1 383.9 640.2 383.4 640.3 384.1 C 640.1 386.5 639.3 389.8 639.0 391.2 C 638.4 391.9 637.9 393.3 637.6 394.4 C 637.3 394.5 637.7 393.7 637.3 394.3 C 637.4 394.5 636.3 396.7 635.9 397.0 C 636.3 396.5 636.4 395.6 635.9 396.5 C 636.0 396.6 635.2 397.6 635.6 397.5 C 634.6 398.7 634.1 399.5 633.2 400.4 C 633.9 399.6 634.2 399.0 634.2 398.7 C 633.7 399.5 633.3 400.2 632.6 400.6 C 633.0 400.7 631.8 401.7 630.8 403.0 C 630.3 403.2 630.0 403.3 629.0 404.3 C 628.6 404.9 630.8 403.0 629.6 404.1 C 629.6 404.0 628.4 404.9 628.8 404.8 C 627.3 406.0 626.6 406.7 625.2 407.5 C 626.9 406.4 625.5 407.0 625.0 407.2 C 624.7 407.5 624.1 407.9 624.1 408.0 C 624.2 408.1 625.0 407.4 625.2 407.4 C 624.0 408.2 623.9 408.8 623.3 408.9 C 623.8 408.5 623.8 408.3 623.2 408.7 C 623.3 409.1 619.4 411.3 620.6 410.3 C 620.7 410.4 622.1 409.5 622.2 409.3 C 621.7 409.5 619.6 410.9 620.0 410.4 C 621.2 409.6 621.2 409.8 622.6 408.9 C 622.6 408.6 623.4 408.0 623.9 407.6 C 621.7 409.1 621.3 409.6 620.9 409.6 C 619.9 410.2 620.7 410.1 618.9 411.1 C 616.3 412.5 618.3 411.1 617.6 411.4 C 615.4 412.8 616.2 412.7 617.3 412.3 C 615.5 413.4 615.0 413.8 612.6 414.9 C 612.6 414.7 612.9 414.5 613.7 414.0 C 613.8 414.0 615.8 413.2 615.5 413.1 C 615.2 412.9 613.6 413.6 611.0 414.8 C 611.7 414.8 611.8 414.6 609.1 415.8 C 609.7 416.0 607.7 416.4 607.8 416.6 C 607.9 416.6 608.9 416.2 609.8 415.8 C 609.8 415.9 609.5 416.2 608.7 416.6 C 608.0 416.8 607.6 417.1 605.9 417.7 C 605.7 417.6 606.9 417.1 607.1 416.8 C 606.1 417.2 606.0 417.4 605.0 417.8 C 604.1 418.0 604.1 417.6 604.0 417.3 C 605.1 416.8 606.8 416.1 605.4 416.5 C 609.4 414.8 605.3 416.9 606.9 416.3 C 608.4 415.3 607.7 416.1 610.2 414.9 C 610.9 414.5 611.1 414.3 611.4 414.1 C 611.2 414.2 609.7 414.6 611.3 413.8 C 611.7 413.8 612.6 413.5 613.9 412.9 C 613.8 412.8 611.3 414.0 613.8 412.7 C 615.0 412.1 614.1 413.0 615.7 412.0 C 615.7 412.0 616.1 411.7 616.2 411.6 C 613.9 412.9 616.6 411.2 614.9 411.9 C 616.9 410.7 615.4 412.0 616.7 411.2 C 616.7 411.1 618.9 410.1 618.8 409.8 C 618.1 410.4 616.4 411.3 616.5 410.9 C 618.1 410.2 624.1 406.0 622.0 407.9 C 622.7 407.2 626.5 404.0 626.3 404.3 C 625.2 405.2 625.3 405.3 625.2 405.6 C 627.2 403.7 628.4 403.0 630.0 400.8 C 628.0 402.9 629.3 401.0 627.8 402.1 C 627.2 402.6 626.4 403.3 626.3 403.5 C 626.7 403.5 627.6 402.6 627.9 402.1 C 628.0 402.3 628.2 402.5 628.3 402.6 C 625.7 404.7 624.2 406.0 622.7 407.0 C 623.9 406.1 620.1 408.3 621.5 407.3 C 622.2 407.0 623.7 406.0 624.9 405.1 C 624.8 405.1 624.8 405.0 624.7 405.0 C 625.2 404.6 625.9 404.0 625.9 403.9 C 624.5 405.2 623.4 405.6 622.4 406.6 C 622.4 406.5 622.3 406.5 622.3 406.4 C 622.0 406.6 621.7 406.8 621.8 406.7 C 622.4 406.3 623.1 405.8 623.2 405.6 C 621.9 406.4 621.6 406.4 620.1 407.3 C 620.3 406.9 618.2 407.8 620.2 406.4 C 620.7 406.4 621.9 405.7 621.9 405.8 C 622.5 405.5 623.6 404.6 624.1 404.1 C 623.5 404.4 622.3 405.2 622.1 405.0 C 623.0 404.3 623.6 403.7 624.3 403.5 C 622.6 405.0 625.4 402.9 626.2 402.6 C 625.9 402.6 625.5 402.9 625.2 403.0 C 626.5 401.9 627.2 401.5 627.0 401.2 C 628.4 399.8 628.3 400.3 629.2 399.3 C 628.3 399.7 629.6 398.6 628.8 399.0 C 630.3 397.4 629.5 398.8 630.0 398.2 C 630.4 397.7 630.4 397.6 630.7 397.1 C 631.5 396.5 632.5 395.1 632.9 395.0 C 633.3 394.4 633.4 394.4 633.8 393.7 C 633.8 393.5 633.9 393.3 634.0 392.9 C 634.1 392.9 634.4 392.5 634.4 392.3 C 633.2 393.9 633.5 393.4 632.0 395.0 C 632.0 395.2 631.9 395.5 632.2 395.1 C 631.4 396.4 631.0 396.7 630.1 397.7 C 629.8 397.7 629.4 397.7 628.6 398.8 C 628.7 398.4 628.4 398.6 628.7 398.2 C 629.3 397.8 630.0 397.2 630.6 396.5 C 630.6 396.4 630.4 396.4 630.7 396.0 C 631.1 395.8 631.5 395.2 631.7 394.7 C 631.8 394.8 631.8 395.0 631.7 395.2 C 632.9 393.6 632.2 394.0 633.1 392.9 C 632.8 393.0 632.4 393.8 632.6 393.0 C 633.2 391.9 633.4 391.7 633.8 391.2 C 633.8 391.1 633.6 391.1 633.8 390.8 C 634.3 390.1 633.4 392.8 634.4 391.5 C 634.2 391.2 634.8 389.9 635.0 389.8 C 635.1 390.3 634.5 391.0 634.6 391.1 C 635.7 388.6 635.2 391.2 636.0 388.6 C 635.9 388.5 635.8 388.5 635.7 388.5 C 635.4 389.6 635.2 389.5 635.0 389.4 C 634.7 390.3 634.2 390.5 634.1 391.3 C 633.8 390.8 634.4 390.6 634.7 389.7 C 634.5 389.6 634.2 390.4 633.9 390.5 C 635.0 388.5 634.7 388.0 635.4 386.0 C 635.0 386.5 635.4 385.0 635.2 385.1 C 635.2 386.8 634.5 386.0 634.4 386.2 C 634.2 387.3 634.8 386.9 634.8 387.6 C 634.4 387.8 634.4 387.6 634.1 387.4 C 634.4 386.5 634.3 386.6 634.3 385.9 C 634.5 385.3 635.0 384.8 635.1 385.7 C 635.1 385.5 635.0 384.2 635.2 384.1 C 635.2 385.3 635.3 384.0 635.4 384.7 C 635.6 383.8 635.2 382.1 635.2 380.9 C 635.1 381.0 634.9 380.6 634.8 380.6 C 635.3 381.8 634.8 382.1 634.8 383.2 C 634.8 382.7 634.6 383.0 634.6 383.2 C 634.7 382.1 634.4 381.6 634.4 380.7 C 634.3 380.7 634.3 380.8 634.2 380.8 C 634.1 379.4 634.0 379.6 633.5 378.7 C 633.5 378.2 634.1 378.6 634.4 378.7 C 634.1 378.2 633.4 376.4 633.6 377.5 C 633.1 376.5 633.5 376.6 632.9 375.5 C 632.7 375.6 633.3 376.6 632.8 376.4 C 632.2 375.4 632.8 375.8 632.1 375.1 C 632.3 374.9 632.5 374.8 631.9 373.9 C 632.2 374.7 631.8 373.9 631.5 373.7 C 631.7 374.1 631.9 374.5 632.0 374.8 C 631.0 373.2 630.8 372.8 629.7 371.6 C 630.3 371.9 629.8 371.1 630.6 371.9 C 629.8 371.2 629.1 370.0 628.6 369.7 C 629.0 370.2 629.7 371.0 629.9 371.4 C 627.7 368.9 626.0 367.8 623.4 365.4 C 623.9 365.7 624.5 366.3 624.7 366.3 C 624.4 366.0 623.9 365.6 623.9 365.5 C 624.9 366.3 625.8 367.1 626.3 367.4 C 627.0 368.2 625.7 367.2 626.5 367.9 C 626.7 367.9 628.0 369.4 627.7 368.7 C 626.3 367.6 625.1 366.2 624.7 365.4 C 623.0 364.6 624.4 365.7 622.5 364.8 C 622.6 364.8 622.3 364.4 621.8 364.0 C 622.1 364.7 620.1 363.1 619.9 362.9 C 620.8 363.3 623.8 365.3 622.5 364.0 C 622.8 365.0 619.0 361.4 619.6 362.3 C 617.5 361.1 618.4 361.2 617.1 360.8 C 617.1 360.7 617.3 360.6 616.7 360.3 C 616.1 359.9 615.8 359.9 615.5 359.8 C 618.6 361.7 617.5 361.5 619.4 362.7 C 619.0 362.5 618.7 362.3 618.8 362.4 C 618.8 362.5 618.7 362.5 618.3 362.2 C 618.3 361.8 616.7 361.3 616.4 360.8 C 617.0 361.2 617.6 361.5 617.4 361.3 C 614.9 359.8 615.6 359.8 611.6 357.6 C 612.8 358.4 611.2 357.6 609.7 357.0 C 607.7 356.0 608.7 356.0 606.0 354.9 C 606.0 355.2 605.4 354.9 604.2 354.4 C 603.1 353.8 600.9 352.9 599.8 352.7 C 600.1 352.5 597.5 351.4 596.9 351.5 C 596.8 351.3 595.9 351.0 595.2 350.8 C 595.0 350.6 595.9 350.8 595.3 350.6 C 594.6 350.4 595.1 350.8 594.3 350.6 C 593.4 350.2 593.6 350.0 592.2 349.6 C 592.1 349.7 592.9 349.9 592.1 349.9 C 590.9 349.4 589.7 349.0 590.7 349.6 C 588.8 349.0 589.8 348.9 588.0 348.4 C 588.6 348.7 588.5 348.7 587.5 348.5 C 586.9 348.1 586.9 348.0 586.7 347.8 C 586.1 347.9 586.3 348.0 584.8 347.5 C 584.8 347.6 584.7 347.7 584.7 347.8 C 584.0 347.6 583.0 347.4 582.8 347.2 C 584.1 347.6 583.8 347.3 584.3 347.3 C 583.1 347.0 580.6 346.1 582.4 346.9 C 580.6 346.5 581.6 346.4 580.1 346.1 C 580.9 346.6 580.1 346.1 578.6 345.8 C 578.7 346.2 577.6 345.6 576.7 345.4 C 576.8 345.7 576.5 345.7 575.6 345.5 C 575.7 345.4 575.2 345.2 574.2 345.1 C 574.2 345.2 576.2 345.8 574.1 345.3 C 573.2 345.0 573.3 344.7 571.7 344.4 C 571.4 344.1 573.1 344.5 572.8 344.2 C 571.5 344.2 571.1 343.9 569.3 343.5 C 569.9 344.1 565.4 343.4 567.6 344.0 C 567.0 343.8 566.0 344.0 565.6 343.7 C 566.3 343.8 565.1 343.3 565.1 343.3 C 564.2 343.2 562.1 342.7 562.1 342.8 C 564.0 343.1 564.0 343.3 564.6 343.6 C 561.7 343.2 559.2 342.7 559.4 342.5 C 559.4 342.6 559.0 342.5 558.9 342.6 C 559.9 342.7 560.5 343.2 559.3 343.0 C 559.6 342.8 558.8 342.6 557.9 342.4 C 557.8 342.7 554.0 341.8 554.7 342.2 C 556.2 342.2 557.4 342.8 556.2 342.7 C 555.3 342.4 553.2 342.0 553.7 341.8 C 553.1 341.8 552.6 341.8 552.0 341.9 C 551.5 342.0 552.7 342.2 552.5 342.3 C 551.7 342.2 550.5 342.1 550.4 342.0 C 552.5 342.2 549.3 341.7 551.5 341.8 C 550.2 341.6 549.9 341.5 548.8 341.3 C 548.8 341.4 548.4 341.4 548.3 341.4 C 549.3 341.4 550.2 341.6 549.9 341.8 C 548.0 341.7 548.3 341.4 546.7 341.2 C 546.2 341.4 544.0 341.5 542.9 341.2 C 545.0 341.4 542.7 341.0 544.0 341.0 C 545.9 341.4 546.5 341.2 547.2 341.1 C 546.4 340.8 544.8 340.6 544.6 340.8 C 545.6 341.0 545.6 340.8 546.2 340.9 C 546.1 341.0 545.8 341.1 545.1 341.1 C 544.2 340.8 542.2 340.8 543.5 340.6 C 542.1 340.6 540.6 340.2 539.2 340.3 C 540.8 340.4 541.9 340.6 542.4 340.9 C 541.1 340.9 539.8 340.5 539.7 340.6 C 539.8 340.9 541.9 341.0 542.4 341.2 C 540.6 341.3 538.1 340.4 540.2 341.1 C 539.2 340.9 537.9 340.8 537.5 340.7 C 538.7 340.8 537.4 340.3 536.9 340.2 C 535.9 340.2 535.1 340.2 534.8 340.2 C 536.3 340.3 537.4 340.7 536.4 340.6 C 536.1 340.5 535.8 340.6 535.3 340.6 C 535.2 340.5 533.5 340.4 533.1 340.3 C 533.2 340.4 534.0 340.5 534.2 340.6 C 533.2 340.6 531.7 340.9 530.9 340.5 C 531.6 340.5 532.5 340.6 532.5 340.5 C 529.7 340.0 528.8 339.6 525.5 339.3 C 525.9 339.3 526.1 339.3 526.0 339.2 C 523.9 339.1 522.5 338.9 522.7 338.8 C 521.4 338.8 520.7 338.9 520.0 339.0 C 521.4 339.2 521.9 339.0 522.7 339.2 C 522.2 339.2 523.8 339.7 524.4 339.9 C 526.7 339.7 526.9 340.1 529.3 340.1 C 528.6 340.3 531.1 340.2 530.4 340.5 C 528.1 340.0 526.0 340.1 522.7 339.9 C 523.1 339.7 523.5 339.5 522.2 339.4 C 520.1 339.2 521.1 339.6 519.4 339.5 C 518.7 339.2 519.7 339.2 518.8 339.1 C 518.2 339.2 516.6 339.2 516.1 338.9 C 518.4 339.0 515.7 338.7 517.2 338.6 C 516.4 338.6 516.0 338.6 515.5 338.5 C 517.7 338.8 513.3 338.9 514.9 339.1 C 511.9 339.2 514.7 338.5 512.2 338.5 C 513.4 338.7 511.8 338.8 510.0 338.7 C 509.5 338.5 507.6 338.5 506.1 338.4 C 506.9 338.6 507.5 338.6 506.1 338.7 C 506.8 338.8 508.1 338.8 508.8 338.7 C 508.8 338.8 509.1 338.9 509.4 338.9 C 507.6 339.0 508.4 339.1 507.8 339.2 C 507.2 339.1 505.9 339.1 505.5 339.0 C 505.5 339.0 505.1 339.1 505.0 339.1 C 507.3 339.1 504.6 339.5 506.1 339.5 C 507.1 339.5 506.5 339.2 507.8 339.3 C 509.0 339.5 506.7 339.6 506.1 339.8 C 507.2 340.0 508.5 339.7 508.8 340.0 C 507.4 340.3 505.2 340.1 503.4 340.1 C 503.5 340.4 500.3 340.1 500.0 340.5 C 499.8 340.4 499.4 340.3 499.0 340.3 C 498.4 340.6 497.8 340.2 497.3 340.3 C 497.2 340.4 497.4 340.5 497.8 340.6 C 495.6 340.5 495.0 340.6 492.4 340.9 C 491.9 340.7 491.5 340.6 491.2 340.4 C 491.9 340.4 492.5 340.3 492.9 340.2 C 489.2 340.4 491.6 340.9 489.1 340.7 C 489.2 340.8 490.9 341.0 489.6 341.1 C 487.3 341.0 484.1 341.5 484.2 340.8 C 482.1 340.8 480.8 341.3 479.8 341.1 C 479.2 341.2 479.0 341.3 478.8 341.4 C 479.4 341.5 480.2 341.5 480.9 341.6 C 482.1 341.4 482.7 341.5 481.5 341.3 C 483.3 341.1 483.8 341.2 484.7 341.2 C 482.3 341.6 480.0 341.6 479.9 342.0 C 479.1 341.9 478.4 341.8 477.7 341.8 C 477.5 342.0 474.8 342.3 474.5 342.1 C 476.4 342.0 478.3 341.5 476.6 341.5 C 472.0 342.2 469.5 342.1 465.5 342.9 C 465.4 342.8 465.7 342.6 465.0 342.7 C 465.0 342.8 464.9 342.9 464.5 343.1 C 463.3 343.2 462.5 343.3 460.9 343.6 C 460.9 343.3 460.7 343.2 459.8 343.3 C 459.3 343.6 457.7 344.4 456.8 344.5 C 457.8 344.3 456.4 344.2 455.7 344.3 C 456.4 344.6 451.2 345.0 452.7 345.0 C 450.7 345.4 449.8 345.5 449.7 345.4 C 449.0 345.6 448.5 345.8 447.8 346.0 C 447.3 345.7 443.9 346.8 443.4 346.8 C 444.6 346.6 444.8 346.2 443.8 346.4 C 443.2 346.8 440.2 347.8 439.7 347.8 C 439.8 347.7 440.0 347.4 441.4 347.0 C 438.9 347.6 439.0 347.9 438.3 348.4 C 438.3 348.0 437.2 348.6 436.9 348.8 C 436.1 348.8 436.9 348.7 436.8 348.5 C 435.9 348.7 435.6 348.6 434.5 349.0 C 434.9 349.1 433.6 349.4 433.1 349.5 C 433.0 349.7 432.4 350.0 431.4 350.3 C 432.7 349.5 425.8 351.8 427.5 351.5 C 426.2 352.2 426.0 351.7 424.4 352.4 C 424.1 352.6 423.1 352.9 424.1 352.7 C 423.4 353.0 422.7 353.2 422.4 353.3 C 422.1 353.3 421.7 353.4 420.4 354.0 C 421.7 353.8 417.9 355.0 418.6 355.1 C 417.3 355.1 415.5 356.6 413.4 357.2 C 413.5 357.3 413.0 357.5 412.9 357.6 C 412.6 357.9 415.3 356.7 413.6 357.5 C 411.5 358.4 412.6 357.8 412.2 357.8 C 406.9 360.6 401.5 364.0 397.9 367.1 C 398.4 366.8 398.4 366.9 397.7 367.6 C 396.4 368.1 393.2 372.0 392.9 372.7 C 392.4 372.9 391.4 374.9 391.1 375.2 C 391.3 374.8 391.5 374.0 391.0 374.8 C 391.0 375.4 390.4 376.0 390.3 376.9 C 389.8 377.1 389.3 379.5 389.2 378.3 C 389.0 378.8 388.9 379.0 388.8 379.3 C 389.1 379.4 388.9 379.8 389.3 379.1 C 388.4 381.1 388.6 381.7 388.4 383.3 C 388.5 383.5 388.7 382.3 388.7 383.3 C 388.6 383.3 388.6 383.3 388.5 383.3 C 388.5 383.6 388.6 383.7 388.5 383.9 C 388.4 383.8 388.4 383.3 388.1 383.2 C 388.2 384.1 387.9 384.6 388.1 384.9 C 388.1 383.8 388.6 384.5 388.4 385.2 C 388.2 384.6 388.8 387.8 389.2 388.7 C 389.1 389.3 388.9 387.6 388.7 387.8 C 389.2 389.7 389.2 389.6 389.5 389.7 C 389.8 390.7 389.8 391.2 390.6 392.3 C 390.9 393.1 390.2 392.0 390.6 392.8 C 390.9 393.2 391.1 393.3 391.6 394.0 C 392.2 396.0 396.5 399.6 398.3 402.2 C 397.5 401.2 398.8 402.2 400.1 403.2 C 400.2 403.3 399.9 403.3 400.4 403.7 C 400.4 403.5 400.9 403.8 401.9 404.5 C 401.9 404.6 401.6 404.6 402.2 405.0 C 402.7 405.0 403.8 406.1 404.6 406.5 C 404.8 406.9 402.8 405.4 402.6 405.5 C 404.8 407.3 405.5 407.3 407.5 408.6 C 406.4 408.0 408.2 409.3 408.5 409.5 C 408.1 409.0 409.9 409.8 408.7 409.0 C 409.5 409.5 410.8 410.1 411.0 410.3 C 410.5 410.1 409.8 409.7 409.8 409.7 C 410.8 410.3 412.1 411.2 412.7 411.3 C 412.0 410.9 411.5 410.6 411.6 410.4 C 411.9 410.5 412.3 410.6 412.9 410.8 C 411.0 410.5 416.2 412.7 416.6 412.7 C 416.9 413.3 417.2 413.4 417.0 413.5 C 419.2 414.5 419.1 414.1 420.5 414.6 C 420.0 414.7 419.4 414.8 421.6 415.8 C 421.3 415.3 424.0 416.4 423.3 415.8 C 424.8 416.3 425.1 416.4 425.7 416.6 C 426.3 416.9 426.8 417.1 427.2 417.3 C 428.1 417.7 428.8 418.0 429.9 418.3 C 430.0 418.3 429.3 418.0 430.0 418.2 C 431.0 418.6 431.9 419.0 432.5 419.3 C 433.2 419.3 432.4 419.0 433.1 419.2 C 434.7 419.9 434.2 420.1 435.6 420.7 C 437.5 421.0 436.8 421.0 438.0 421.0 C 437.5 420.9 436.9 420.6 437.6 420.8 C 438.7 421.3 439.1 421.7 439.4 421.8 C 438.5 421.6 437.9 421.4 437.5 421.2 C 437.2 421.3 436.0 421.0 437.0 421.4 C 435.8 421.0 434.5 420.6 432.8 420.1 C 433.3 420.5 431.3 419.7 431.8 420.1 C 433.7 420.7 434.1 421.0 435.9 421.4 C 435.6 421.1 437.5 421.7 437.8 421.9 C 437.8 421.7 439.1 422.1 438.9 421.8 C 440.3 422.2 440.2 422.4 441.7 422.7 C 441.7 422.8 441.5 422.9 442.1 423.0 C 442.7 422.9 443.0 423.4 443.5 423.5 C 443.2 423.1 445.3 423.8 445.5 423.6 C 445.0 423.5 444.2 423.3 444.1 423.2 C 446.4 423.8 444.6 423.1 444.2 422.8 C 444.2 422.9 443.3 423.0 443.2 422.8 C 445.2 423.1 440.5 421.7 442.3 422.2 C 443.8 422.7 443.7 422.5 445.2 422.9 C 446.9 423.7 444.7 423.5 446.4 424.2 C 447.6 424.3 448.4 424.5 448.5 424.3 C 448.7 424.4 449.0 424.6 449.4 424.7 C 449.9 424.7 448.0 424.2 449.5 424.4 C 450.3 424.7 449.3 424.8 450.9 425.1 C 451.7 425.0 449.0 424.4 450.5 424.7 C 452.0 425.4 450.2 424.5 452.0 424.8 C 452.1 424.9 452.4 425.0 453.0 425.1 C 453.1 425.2 452.8 425.3 453.5 425.5 C 453.9 425.2 454.1 425.8 455.5 426.0 C 456.3 425.8 454.1 425.6 454.5 425.4 C 456.0 426.0 457.0 425.8 457.6 426.0 C 456.3 425.9 459.5 426.5 459.6 426.7 C 459.3 426.4 459.9 426.6 461.8 426.7 C 461.8 427.1 463.9 427.2 464.3 427.6 C 464.5 427.5 465.1 427.5 465.3 427.4 C 464.7 427.3 464.1 427.2 464.3 427.1 C 464.9 427.2 465.4 427.2 465.9 427.3 C 466.8 427.7 464.4 427.8 467.9 428.3 C 467.6 427.9 469.1 428.1 470.1 428.1 C 470.0 427.8 468.7 427.9 468.6 427.7 C 469.8 427.7 471.0 428.1 471.7 428.3 C 473.8 428.4 476.2 428.9 479.2 429.1 C 479.9 429.3 476.7 429.0 478.7 429.3 C 479.5 429.4 479.1 429.2 480.3 429.3 C 479.1 430.3 488.5 430.2 489.0 430.7 C 489.4 430.5 492.1 430.8 491.8 430.5 C 490.0 430.6 488.8 430.2 488.0 430.0 C 486.3 430.0 489.4 430.3 487.9 430.3 C 487.8 430.1 485.5 430.1 485.8 429.9 C 488.1 430.1 484.6 429.6 486.3 429.5 C 488.5 429.7 492.9 429.7 491.8 429.9 C 491.8 429.8 490.9 429.8 490.8 429.9 C 493.2 430.1 494.7 430.0 495.7 429.9 C 496.9 430.1 501.3 430.0 500.2 430.1 C 500.5 430.3 497.5 429.9 497.9 430.2 C 502.5 430.4 502.6 430.2 505.7 430.5 C 504.7 430.2 508.9 430.1 508.5 430.2 C 508.5 430.4 509.4 430.6 511.3 430.4 C 511.0 430.6 512.0 430.7 513.0 430.8 C 513.4 430.5 512.1 430.6 512.4 430.4 C 513.3 430.4 514.3 430.4 515.2 430.4 C 515.2 430.5 515.1 430.6 515.7 430.6 C 516.8 430.4 520.5 430.1 520.2 430.3 C 518.6 430.6 522.7 430.5 520.2 430.8 C 520.9 430.7 520.9 430.8 521.9 430.8 C 521.9 430.7 521.9 430.6 521.9 430.5 C 523.9 430.4 522.9 430.8 524.6 430.8 C 524.8 430.7 525.5 430.6 525.8 430.5 C 525.1 430.5 525.0 430.6 524.1 430.6 C 525.1 430.2 522.2 430.5 522.4 430.2 C 524.3 430.1 524.3 430.4 525.2 430.4 C 527.6 430.2 526.5 430.3 529.0 430.3 C 529.0 430.2 528.3 430.2 528.5 430.0 C 531.6 430.0 531.3 430.5 533.5 430.2 C 533.0 430.2 531.1 430.5 532.4 430.5 C 533.9 430.3 534.3 430.0 536.2 429.8 C 536.3 429.9 536.2 430.0 536.8 430.0 C 537.6 429.9 537.6 429.6 538.4 429.5 C 538.5 429.6 539.6 429.4 540.0 429.3 C 540.7 429.5 539.8 429.6 540.6 429.6 C 542.2 429.5 543.0 428.8 544.4 428.8 C 544.3 429.1 545.8 428.9 547.1 428.7 C 547.4 428.9 550.1 428.6 552.0 428.4 C 551.5 428.2 553.4 428.1 552.9 427.9 C 552.1 428.0 551.6 428.0 551.4 427.9 C 553.4 427.6 554.1 428.1 555.6 427.4 C 556.4 427.5 557.4 427.5 558.8 427.4 C 558.9 427.2 556.3 427.5 557.7 427.2 C 557.9 427.3 558.3 427.2 558.8 427.1 C 558.6 427.4 559.7 427.3 560.4 427.3 C 561.6 426.9 564.2 426.8 563.0 426.7 C 564.9 426.3 563.7 427.0 565.2 426.7 C 564.4 426.5 566.9 426.1 565.6 426.1 C 567.5 425.7 567.4 426.1 566.7 426.4 C 568.5 426.1 568.8 425.8 569.7 425.8 C 568.9 425.7 571.5 425.1 570.2 425.5 C 569.8 425.8 571.8 425.3 572.3 425.3 C 571.6 425.3 572.5 425.1 571.2 425.2 C 572.5 424.9 574.5 424.4 575.7 424.4 C 577.3 423.9 578.8 423.5 578.2 423.9 C 579.7 423.5 579.1 423.7 580.7 423.3 C 580.6 423.3 580.2 423.3 580.1 423.3 C 582.2 422.8 581.8 423.1 584.5 422.4 C 584.2 422.7 586.0 422.3 586.5 422.3 C 585.4 422.6 584.5 422.8 583.6 422.9 C 583.4 423.1 584.3 422.9 583.7 423.2 C 583.5 423.1 583.1 423.2 582.7 423.2 C 584.5 423.0 580.5 424.2 581.7 423.6 C 581.7 423.7 581.9 423.7 582.2 423.6 C 581.8 423.4 581.9 423.5 582.1 423.2 C 581.3 423.5 580.5 423.4 580.2 423.7 C 580.3 423.8 581.1 423.6 581.2 423.6 C 579.0 424.3 580.5 423.5 578.7 424.0 C 578.4 424.3 579.4 424.2 579.8 424.2 C 578.2 424.6 576.8 424.9 576.3 424.9 C 574.8 425.3 576.5 425.0 575.4 425.4 C 574.9 425.4 574.9 425.2 573.9 425.4 C 572.8 425.7 574.5 425.4 573.4 425.7 C 572.2 425.8 574.2 425.2 572.3 425.6 C 572.8 425.8 570.6 425.8 570.8 426.0 C 571.9 425.8 572.0 426.1 571.4 426.0 C 568.8 426.2 567.3 427.4 564.7 427.2 C 564.7 427.3 564.3 427.4 564.2 427.5 C 566.1 427.3 568.9 426.8 569.4 427.1 C 570.9 426.7 570.7 426.5 570.9 426.4 C 572.7 426.4 572.5 426.4 571.6 427.0 C 568.7 427.7 567.4 427.7 565.4 427.9 C 564.3 428.3 565.5 428.0 565.9 428.1 C 559.8 428.9 564.5 428.8 562.3 429.1 C 562.4 429.0 561.9 429.0 561.3 429.0 C 561.3 429.1 560.4 429.2 560.2 429.4 C 560.6 429.3 560.8 429.3 560.8 429.4 C 559.2 429.8 559.8 429.4 559.7 429.3 C 560.9 429.1 561.6 429.0 561.8 428.8 C 560.2 429.2 559.0 429.1 558.1 429.5 C 556.6 429.4 558.8 428.7 557.9 428.6 C 558.2 428.3 557.0 429.3 555.9 429.6 C 554.0 429.8 554.0 430.1 552.2 430.3 C 551.7 430.1 554.0 430.0 553.8 429.8 C 553.3 429.9 553.1 429.8 552.7 429.9 C 551.4 430.0 551.6 430.3 550.6 430.4 C 550.0 430.3 549.7 430.4 549.0 430.6 C 547.8 430.7 549.6 430.4 548.4 430.5 C 547.0 430.5 546.1 431.0 545.7 431.0 C 545.6 430.9 545.8 430.8 545.1 430.8 C 543.6 431.1 543.2 431.2 545.2 431.1 C 543.5 431.3 542.7 431.4 543.0 431.7 C 545.6 431.4 546.2 431.3 547.4 431.5 C 547.9 431.2 548.6 431.3 549.6 431.3 C 549.0 430.9 550.7 431.1 551.2 430.9 C 550.6 430.9 549.9 430.9 549.5 430.9 C 552.2 430.6 552.2 430.6 554.3 430.0 C 554.3 430.1 554.6 430.1 554.9 430.1 C 554.2 430.3 552.3 430.5 552.2 430.7 C 553.8 430.8 554.3 430.3 556.0 430.4 C 556.7 430.1 554.6 430.3 556.0 430.1 C 556.7 430.1 557.6 430.1 558.7 430.1 C 559.8 429.9 560.4 429.7 561.3 429.4 C 561.4 429.5 561.5 429.6 562.4 429.4 C 562.3 429.3 561.4 429.4 562.3 429.2 C 565.2 429.0 567.0 428.9 569.7 428.3 C 568.7 428.4 566.5 428.5 567.6 428.3 C 568.8 428.3 570.4 427.7 571.7 427.6 C 572.1 427.6 570.2 427.8 570.7 428.2 C 571.9 427.9 572.7 427.8 573.3 427.7 C 573.2 427.6 574.6 427.3 574.2 427.2 C 573.2 427.4 573.0 427.7 572.7 427.7 C 573.4 426.8 576.5 427.1 578.3 426.7 C 579.5 426.3 577.4 426.7 578.7 426.3 C 579.6 426.0 580.2 426.4 578.9 426.8 C 577.9 426.9 577.6 427.3 577.3 427.1 C 577.0 427.2 576.4 427.3 576.4 427.4 C 577.1 427.2 577.0 427.4 577.4 427.4 C 576.4 427.6 576.4 428.1 575.4 428.0 C 576.0 427.9 576.2 427.7 576.4 427.6 C 573.8 428.3 572.9 428.3 571.3 428.5 C 572.2 428.4 571.3 428.6 571.4 428.8 C 572.5 428.5 574.8 428.2 573.4 428.5 C 572.5 428.4 571.9 429.3 570.9 429.2 C 571.6 429.0 571.5 428.9 571.9 428.7 C 570.8 428.9 570.8 428.7 569.8 428.9 C 566.5 429.9 563.8 429.8 558.3 431.1 C 556.4 431.4 560.1 430.7 559.9 430.5 C 559.3 430.6 559.2 430.6 558.8 430.6 C 558.8 430.9 557.8 430.8 557.2 431.1 C 557.3 430.8 554.7 431.4 553.4 431.4 C 553.4 431.5 553.5 431.6 552.9 431.7 C 548.9 431.9 541.7 433.0 538.7 433.0 C 538.8 433.2 537.4 433.3 537.1 433.4 C 535.1 433.5 536.0 433.3 533.2 433.7 C 531.7 433.9 533.4 433.5 533.7 433.4 C 529.5 433.8 525.7 433.8 523.1 434.1 C 521.7 434.3 523.1 434.0 520.3 434.0 C 520.2 434.3 515.8 433.9 515.2 434.3 C 513.5 434.4 510.4 433.9 511.8 434.2 C 509.5 434.2 511.0 433.9 510.1 433.9 C 508.5 433.9 510.6 434.5 509.0 434.5 C 509.2 434.3 507.8 434.4 506.8 434.1 C 508.0 434.1 508.8 434.1 509.0 434.0 C 507.9 434.1 508.0 433.9 506.2 433.9 C 504.9 434.1 501.1 434.2 500.0 433.8 C 500.0 433.9 500.3 434.0 500.6 434.0 C 499.5 434.0 498.2 433.7 498.3 434.0 C 495.8 433.9 494.7 433.6 493.3 433.8 C 492.2 433.8 493.7 433.6 490.5 433.4 C 490.4 433.6 484.8 433.2 483.3 432.8 C 483.2 433.2 482.9 432.8 482.2 432.7 C 482.1 432.8 482.3 433.0 481.6 432.9 C 481.5 432.8 481.0 432.8 480.5 432.8 C 481.0 432.5 478.5 432.7 478.4 432.4 C 478.8 432.5 478.9 432.3 478.4 432.2 C 478.2 432.5 476.0 431.8 476.2 432.0 C 476.7 432.2 478.2 432.3 477.8 432.5 C 475.6 432.3 476.5 432.1 475.1 431.9 C 475.2 432.0 476.0 432.2 475.1 432.2 C 473.6 431.9 475.0 432.1 474.0 431.8 C 473.2 431.8 471.8 431.8 471.3 431.7 C 471.4 431.7 471.0 431.5 470.7 431.5 C 468.0 431.0 461.7 430.4 459.1 429.6 C 458.9 429.6 458.3 429.6 458.5 429.8 C 457.0 429.4 457.0 429.5 455.5 429.1 C 455.4 429.2 455.4 429.3 455.4 429.4 C 453.3 429.1 455.3 429.0 453.9 428.8 C 453.6 429.3 453.1 428.4 451.9 428.2 C 451.7 428.3 451.1 428.2 451.3 428.4 C 449.3 428.0 449.5 427.7 447.8 427.4 C 448.2 427.5 448.3 428.4 448.1 428.5 C 447.8 428.4 447.3 428.2 446.6 428.0 C 447.5 427.9 447.3 426.9 444.8 426.7 C 446.1 426.9 446.6 427.1 446.3 427.2 C 444.5 426.9 443.9 426.5 442.3 426.1 C 442.0 426.3 443.1 426.6 442.7 426.8 C 442.3 426.7 442.1 426.7 442.2 426.8 C 440.6 426.4 440.6 426.2 438.8 425.9 C 438.8 425.7 439.2 425.8 439.8 426.1 C 439.7 425.9 439.8 425.7 440.8 425.9 C 440.9 426.1 440.3 426.2 441.8 426.5 C 441.8 426.4 441.8 426.2 441.9 426.1 C 440.8 425.8 438.3 425.0 438.0 425.0 C 438.5 425.3 439.3 425.5 438.8 425.7 C 437.0 425.1 436.6 424.7 435.1 424.1 C 432.5 423.5 428.1 422.0 428.6 422.5 C 427.1 421.9 427.6 422.1 426.3 421.6 C 426.6 422.0 424.8 421.2 424.9 421.4 C 426.5 421.9 426.0 421.8 427.6 422.3 C 427.5 422.4 427.2 422.4 426.6 422.3 C 426.5 422.1 425.9 421.9 424.8 421.5 C 425.0 421.6 425.9 422.2 424.7 421.8 C 424.7 421.7 424.4 421.6 423.9 421.4 C 423.9 421.3 424.0 421.2 424.0 421.1 C 424.7 421.2 425.4 421.4 425.9 421.5 C 425.4 421.3 425.4 421.2 425.0 421.1 C 424.7 421.1 422.9 420.3 422.8 420.4 C 423.5 420.7 423.9 421.0 423.1 420.7 C 423.0 420.6 421.6 420.0 420.8 419.9 C 423.4 421.0 422.3 420.6 423.0 421.1 C 421.2 420.5 421.2 420.2 417.9 418.9 C 417.9 418.7 417.9 418.6 418.8 418.8 C 416.9 417.5 412.2 415.9 410.8 415.1 C 411.8 415.7 413.0 415.9 411.6 415.2 C 411.5 415.2 410.4 414.7 410.2 414.7 C 409.5 414.8 410.7 415.7 411.7 416.5 C 410.5 415.9 410.2 415.8 409.1 415.3 C 408.8 415.0 410.1 415.2 408.8 414.5 C 408.3 414.7 406.3 413.2 405.7 413.2 C 406.6 413.7 407.2 414.1 406.2 413.6 C 406.4 413.6 404.5 412.6 404.6 412.4 C 406.1 413.2 406.6 413.2 407.6 413.8 C 406.4 413.1 408.6 414.1 406.6 412.9 C 405.6 412.6 405.0 412.5 403.0 411.3 C 402.3 410.8 403.1 411.0 402.1 410.4 C 402.3 410.7 400.2 409.4 401.5 410.1 C 400.8 409.6 400.5 409.3 400.1 409.0 C 400.9 409.9 396.2 406.9 396.8 407.5 C 397.0 407.2 397.0 406.8 396.8 406.6 C 395.8 406.2 395.0 405.3 393.0 403.4 C 392.9 403.7 392.7 403.2 391.9 402.4 C 391.6 402.3 392.3 403.1 391.7 402.6 C 390.9 401.6 390.9 401.5 390.8 401.3 C 390.2 400.6 389.8 400.1 389.6 399.7 C 389.5 399.7 389.6 400.0 389.7 400.2 C 387.8 397.5 386.7 396.3 385.6 393.9 C 386.0 395.0 386.4 395.0 386.0 394.2 C 385.7 393.8 385.5 393.4 385.3 393.1 C 385.3 393.8 385.3 393.5 384.9 392.3 C 384.4 391.3 384.7 392.9 384.3 392.0 C 384.1 391.1 384.4 391.6 384.3 391.1 C 384.2 390.7 384.1 390.2 383.9 389.8 C 384.0 390.6 383.7 389.8 383.4 389.1 C 383.8 389.5 383.7 389.2 383.4 387.7 C 383.5 387.5 383.7 388.3 383.6 387.7 C 383.6 387.3 383.1 386.2 383.3 385.1 C 383.3 385.5 383.4 385.6 383.4 385.6 C 383.2 384.4 383.5 383.6 383.7 382.6 C 383.4 383.6 383.3 383.0 383.1 383.4 C 383.3 382.4 383.2 381.2 383.6 380.5 C 383.3 381.9 384.1 380.6 384.2 379.7 C 384.0 379.4 383.8 381.0 383.6 380.5 C 383.5 379.9 384.1 378.9 384.0 378.3 C 383.8 378.4 383.9 379.0 383.7 379.1 C 383.9 378.4 383.5 379.4 383.7 378.7 C 384.0 378.3 383.8 377.8 383.9 377.4 C 384.2 376.9 384.9 375.9 384.9 375.4 C 384.8 375.4 384.6 376.1 384.4 376.1 C 385.2 373.8 385.9 373.3 386.8 371.2 C 387.1 371.0 387.4 370.7 387.8 370.1 C 387.7 370.1 387.9 369.7 388.2 369.2 C 388.9 368.5 389.6 367.7 390.6 366.7 C 390.6 367.1 390.2 367.6 391.5 366.2 C 391.5 366.1 391.0 366.6 391.4 366.1 C 391.4 366.1 391.8 365.8 391.8 365.7 C 391.7 365.7 391.7 365.6 391.7 365.6 C 391.3 366.0 390.9 366.4 390.6 366.7 C 390.5 366.6 390.4 366.6 390.0 366.9 C 391.4 365.2 391.7 365.6 392.6 364.4 C 393.1 364.5 393.5 364.2 392.8 365.3 C 393.7 364.3 394.3 363.6 394.4 363.2 C 393.2 364.3 393.4 363.7 393.0 364.0 C 393.8 363.3 393.7 363.2 394.1 362.8 C 395.1 362.1 393.4 363.9 395.2 362.4 C 393.6 363.3 396.2 361.2 397.3 360.5 C 397.1 360.6 396.7 360.8 397.2 360.3 C 399.8 358.1 400.1 359.0 401.7 357.4 C 401.7 357.7 402.5 357.1 402.9 357.0 C 401.4 358.0 401.1 358.3 400.4 358.8 C 400.6 358.8 401.1 358.5 401.5 358.2 C 401.4 358.1 401.8 357.8 402.5 357.5 C 402.9 357.1 402.6 356.9 403.7 355.9 C 403.9 355.9 403.8 356.1 404.5 355.8 C 404.9 355.2 404.1 356.4 406.9 354.7 C 406.3 354.9 406.0 355.0 406.1 354.7 C 407.4 353.9 407.2 354.1 409.1 353.0 C 410.0 353.0 408.0 354.1 407.6 354.6 C 408.8 353.9 409.8 353.1 411.2 352.6 C 410.1 353.0 411.0 352.3 412.3 351.6 C 413.4 351.1 412.4 352.0 413.8 351.4 C 414.9 350.8 415.4 350.4 414.3 350.7 C 416.8 349.7 416.1 349.7 418.3 348.8 C 418.5 348.9 417.8 349.2 417.0 349.5 C 417.2 349.5 416.9 349.7 417.8 349.4 C 419.1 348.6 422.3 347.4 423.3 346.8 C 425.4 346.5 427.5 345.2 429.6 344.7 C 428.9 345.2 432.4 343.9 433.4 343.9 C 434.1 343.6 435.9 342.5 435.2 342.9 C 435.5 343.2 436.7 342.8 437.7 342.6 C 437.7 342.5 437.7 342.4 437.7 342.3 C 439.8 341.7 440.4 341.8 441.1 341.9 C 443.8 341.0 446.8 340.7 450.1 339.7 C 451.0 339.8 451.7 339.6 453.8 339.4 C 453.7 339.1 455.3 338.8 456.8 338.5 C 456.4 338.4 457.8 338.2 457.8 338.0 C 456.4 338.3 456.9 337.9 456.2 337.9 C 458.0 337.8 458.9 337.2 460.3 337.2 C 458.6 337.6 458.1 338.0 457.9 338.4 C 460.0 338.0 461.1 337.9 461.6 338.0 C 461.7 337.8 461.4 337.8 461.0 337.7 C 461.7 337.6 462.4 337.5 463.1 337.4 C 463.3 337.5 462.3 337.7 463.1 337.6 C 463.6 337.5 464.2 337.3 464.7 337.2 C 465.3 337.3 463.9 337.5 463.7 337.6 C 466.5 337.3 465.2 337.0 466.8 336.7 C 467.2 336.8 467.1 337.1 468.5 336.9 C 469.0 336.7 469.1 336.5 470.6 336.3 C 471.5 336.2 470.5 336.6 471.7 336.5 C 471.8 336.4 472.3 336.4 472.8 336.4 C 472.7 336.2 473.2 336.1 473.8 336.0 C 474.0 336.1 475.0 335.9 475.4 335.8 C 475.6 335.9 477.3 336.0 477.6 335.8 C 477.6 335.7 476.7 335.9 476.6 335.8 C 477.8 335.7 478.6 335.5 479.3 335.4 C 479.7 335.9 481.7 335.3 484.2 335.4 C 485.8 335.0 483.9 335.0 485.9 334.7 C 487.1 334.7 485.6 334.9 485.9 335.1 C 486.2 335.1 488.1 335.2 488.1 335.0 C 488.1 334.9 487.1 335.0 487.0 334.9 C 488.5 334.6 488.4 334.9 489.3 334.9 C 489.1 334.7 490.1 334.6 490.3 334.4 C 494.3 334.0 494.3 334.5 495.9 334.6 C 495.9 334.5 496.9 334.5 497.0 334.4 C 495.9 334.5 494.3 334.4 495.9 334.3 C 495.7 334.4 498.0 334.2 498.2 334.1 C 497.9 334.0 496.4 334.1 497.0 333.8 C 499.1 333.6 498.3 334.2 499.8 333.9 C 500.0 334.0 499.1 334.1 498.7 334.1 C 499.4 334.1 500.3 334.1 500.4 334.2 C 499.6 334.3 499.6 334.4 499.3 334.6 C 500.4 334.4 502.3 334.5 501.0 334.2 C 503.2 334.2 505.3 334.0 503.8 333.8 C 505.6 333.7 504.6 334.1 506.0 333.9 C 505.8 334.1 505.4 334.3 506.6 334.5 C 506.8 334.3 507.8 334.3 507.7 334.1 C 510.4 334.0 511.2 334.3 512.2 334.5 C 511.3 334.1 512.6 334.4 513.9 334.2 C 514.7 334.3 513.9 334.6 516.1 334.5 C 513.8 334.2 518.9 334.5 517.8 334.1 C 520.6 334.3 520.6 334.3 523.5 334.5 C 523.2 334.6 522.5 334.7 521.2 334.7 C 522.1 334.5 518.8 334.4 519.0 334.6 C 519.0 334.7 519.0 334.7 519.0 334.8 C 521.1 334.8 522.5 334.9 523.5 335.0 C 523.9 334.9 524.9 334.8 524.6 334.5 C 526.6 334.9 528.7 334.6 529.6 334.9 C 528.9 334.9 528.3 334.9 528.5 335.0 C 529.3 335.0 530.3 335.0 530.2 334.8 C 528.6 334.6 528.2 334.6 527.4 334.7 C 528.1 334.5 525.8 334.3 527.4 334.3 C 527.3 334.7 530.8 334.3 529.6 334.5 C 527.8 334.6 531.6 334.8 531.8 335.0 C 531.8 335.0 531.8 335.0 531.8 335.0 Z M 570.3 428.8 C 571.8 428.4 569.9 428.5 568.7 428.8 C 569.1 428.8 569.2 428.9 569.3 429.0 C 569.7 428.9 570.2 428.7 570.3 428.8 C 570.3 428.8 570.3 428.8 570.3 428.8 Z M 553.0 428.0 C 552.5 428.4 555.1 427.9 556.2 427.8 C 555.9 427.7 555.5 427.7 556.2 427.6 C 555.0 427.6 554.7 428.0 553.0 428.0 C 553.0 428.0 553.0 428.0 553.0 428.0 Z M 491.8 430.9 C 492.2 430.9 493.3 430.8 493.4 431.0 C 494.0 431.0 493.9 430.9 494.0 430.8 C 495.3 430.8 493.7 431.1 495.7 431.1 C 496.5 430.7 492.2 430.3 491.8 430.9 C 491.8 430.9 491.8 430.9 491.8 430.9 Z M 510.5 338.0 C 511.3 338.2 509.4 338.4 510.0 338.6 C 513.1 338.4 510.7 338.1 515.0 338.2 C 514.7 338.1 514.4 338.1 514.4 338.0 C 512.4 338.1 512.2 338.2 512.7 337.8 C 511.8 337.8 511.6 338.3 510.5 338.0 C 510.5 338.0 510.5 338.0 510.5 338.0 Z M 550.0 341.3 C 549.6 341.2 549.4 341.1 549.4 341.0 C 548.1 340.9 548.4 341.0 546.7 340.7 C 546.9 341.1 548.5 341.3 550.0 341.3 C 550.0 341.3 550.0 341.3 550.0 341.3 Z M 634.1 379.8 C 634.2 380.0 634.2 380.2 634.3 380.4 C 634.4 380.3 634.9 380.8 634.5 379.7 C 634.4 379.7 634.5 379.8 634.5 380.0 C 634.4 379.9 634.2 379.3 634.1 379.5 C 634.2 379.8 634.2 379.8 634.1 379.8 C 634.1 379.8 634.1 379.8 634.1 379.8 Z M 621.1 406.7 C 622.8 405.2 617.9 407.8 621.1 406.7 C 621.1 406.7 621.1 406.7 621.1 406.7 C 621.1 406.7 621.1 406.7 621.1 406.7 Z M 626.5 406.2 C 626.6 406.3 626.9 405.9 626.9 405.9 C 628.4 404.8 627.1 406.0 628.0 405.5 C 628.9 404.4 627.1 405.6 628.4 404.3 C 628.1 404.5 627.3 405.6 626.5 406.2 C 626.5 406.2 626.5 406.2 626.5 406.2 Z M 399.8 358.9 C 398.5 359.9 398.3 360.4 398.2 360.7 C 399.1 360.1 399.8 359.6 400.2 359.5 C 401.8 358.2 399.0 360.2 398.6 360.3 C 398.7 360.0 399.9 359.1 399.8 358.9 C 399.8 358.9 399.8 358.9 399.8 358.9 Z M 395.7 362.1 C 395.3 362.6 394.6 363.3 394.7 363.5 C 395.4 362.8 395.5 362.8 395.6 362.9 C 396.2 362.2 395.3 362.8 395.7 362.1 C 395.7 362.1 395.7 362.1 395.7 362.1 Z M 404.1 356.5 C 403.4 356.9 403.8 356.9 403.7 357.1 C 404.7 356.5 404.9 356.5 406.0 355.9 C 405.9 355.8 405.9 355.7 405.9 355.7 C 405.0 356.1 405.0 356.3 404.2 356.7 C 404.2 356.6 404.1 356.6 404.1 356.5 C 404.1 356.5 404.1 356.5 404.1 356.5 Z M 392.4 365.6 C 390.4 367.5 390.1 368.7 389.4 370.1 C 390.4 368.7 391.1 367.1 392.2 366.2 C 393.3 364.9 391.7 366.5 391.7 366.4 C 391.7 366.3 392.1 365.9 392.4 365.6 C 392.4 365.6 392.4 365.6 392.4 365.6 Z M 383.7 383.9 C 383.5 384.3 383.9 385.1 384.0 386.4 C 384.0 386.1 384.1 385.9 384.2 385.9 C 384.1 384.1 383.7 385.2 383.7 383.9 C 383.7 383.9 383.7 383.9 383.7 383.9 Z M 386.4 394.0 C 386.9 395.1 386.2 393.4 386.6 393.9 C 386.1 392.8 385.6 391.5 385.4 391.6 C 386.0 392.8 386.1 393.1 386.4 394.0 C 386.4 394.0 386.4 394.0 386.4 394.0 Z M 391.2 401.0 C 392.3 402.0 391.0 400.3 391.6 400.6 C 391.2 400.2 391.2 400.4 391.1 400.4 C 390.9 400.0 390.6 399.7 390.2 399.2 C 390.4 399.7 391.5 400.9 391.2 401.0 C 391.2 401.0 391.2 401.0 391.2 401.0 Z M 439.3 343.0 C 438.5 343.2 438.8 343.4 437.0 343.8 C 439.7 343.1 438.4 344.2 442.0 343.2 C 441.4 343.2 441.7 343.0 442.0 343.1 C 443.3 342.6 440.6 343.3 441.9 342.7 C 440.9 343.0 441.5 343.1 440.5 343.4 C 439.4 343.4 438.8 343.5 439.3 343.0 C 439.3 343.0 439.3 343.0 439.3 343.0 Z M 442.0 343.4 C 443.0 343.2 442.9 342.8 443.5 342.9 C 443.9 342.8 443.8 342.7 443.9 342.6 C 443.5 342.7 443.5 342.7 443.4 342.7 C 442.6 342.9 441.7 343.2 442.0 343.4 C 442.0 343.4 442.0 343.4 442.0 343.4 Z M 433.0 345.9 C 434.6 345.3 435.1 345.4 435.8 344.9 C 436.4 345.1 436.8 344.5 437.7 344.6 C 439.3 344.0 438.1 344.3 437.6 344.2 C 439.1 343.7 438.1 344.4 439.6 343.9 C 439.8 343.5 437.9 344.1 438.0 343.8 C 436.9 344.1 436.9 344.3 436.2 344.6 C 435.6 344.7 435.8 344.5 435.7 344.5 C 434.3 344.9 434.4 344.7 433.3 345.1 C 433.1 345.3 433.6 345.3 434.8 344.9 C 433.5 345.4 433.0 345.7 431.6 346.0 C 432.5 345.5 427.9 346.8 428.4 347.1 C 429.7 346.8 429.2 346.7 429.7 346.4 C 431.4 346.1 432.3 345.8 433.0 345.9 C 433.0 345.9 433.0 345.9 433.0 345.9 Z M 405.1 356.8 C 404.6 357.1 404.1 357.3 403.4 357.8 C 403.3 357.6 404.2 357.1 403.3 357.5 C 402.1 358.2 401.9 358.4 401.2 358.9 C 401.7 358.7 404.2 357.5 403.0 358.3 C 403.4 358.2 404.2 357.7 405.2 357.1 C 403.9 357.5 406.9 356.2 408.1 355.5 C 407.8 355.3 410.2 354.5 411.0 353.8 C 410.2 354.0 407.8 355.5 406.8 356.0 C 407.3 355.7 403.8 357.2 405.1 356.8 C 405.1 356.8 405.1 356.8 405.1 356.8 Z M 445.9 342.3 C 446.2 342.2 447.3 341.9 446.4 342.0 C 446.8 341.8 447.8 341.8 447.3 341.5 C 447.8 341.4 448.3 341.3 448.8 341.2 C 448.6 341.3 447.3 341.6 447.9 341.7 C 448.9 341.4 448.5 341.6 449.9 341.3 C 449.2 341.7 450.0 341.5 449.5 341.9 C 449.9 341.7 451.1 341.5 450.9 341.3 C 452.9 340.9 450.5 341.7 453.0 341.2 C 453.0 341.4 451.2 341.8 450.5 341.8 C 450.2 342.1 453.7 341.2 455.6 340.9 C 453.9 341.1 455.2 340.6 456.0 340.2 C 456.6 340.2 456.0 340.4 457.1 340.3 C 458.0 340.2 458.4 340.0 458.7 340.1 C 459.4 339.9 459.0 339.8 459.1 339.7 C 460.3 339.5 459.5 340.0 461.3 339.6 C 459.9 339.5 461.4 339.2 463.8 338.9 C 463.7 338.8 462.9 338.9 462.8 338.8 C 463.1 338.6 464.5 338.7 464.9 338.7 C 465.8 338.5 465.2 338.5 464.4 338.6 C 464.9 338.5 465.4 338.3 465.9 338.2 C 463.3 338.5 459.1 339.2 454.4 339.8 C 455.3 339.8 454.3 340.1 452.8 340.3 C 452.6 340.2 453.2 340.0 453.9 339.9 C 452.2 339.9 452.4 340.5 449.8 340.9 C 448.4 341.1 451.3 340.4 449.8 340.6 C 448.8 340.8 448.3 341.2 447.8 341.0 C 446.2 341.5 445.8 341.9 443.4 342.4 C 444.8 342.2 445.5 342.6 446.9 342.2 C 446.9 342.1 446.3 342.2 445.9 342.3 C 445.9 342.3 445.9 342.3 445.9 342.3 Z M 395.7 363.0 C 395.0 363.6 394.8 364.0 394.5 364.1 C 393.4 365.2 394.8 364.1 395.1 364.0 C 395.6 363.4 395.8 363.2 395.7 363.0 C 395.7 363.0 395.7 363.0 395.7 363.0 Z M 498.9 433.3 C 501.0 433.5 500.6 433.2 502.3 433.2 C 500.9 433.1 500.6 432.9 498.4 432.8 C 498.3 433.0 498.2 433.2 498.9 433.3 C 498.9 433.3 498.9 433.3 498.9 433.3 Z M 400.3 359.7 C 401.4 358.7 399.1 360.9 399.0 360.8 C 397.8 361.8 400.3 360.0 399.2 361.1 C 400.2 360.1 401.1 359.8 402.5 358.7 C 402.4 358.6 401.1 359.4 400.0 360.2 C 399.8 360.2 400.4 359.8 400.3 359.7 C 400.3 359.7 400.3 359.7 400.3 359.7 Z M 477.4 431.1 C 475.9 431.2 478.7 431.7 479.5 431.9 C 479.6 431.6 479.1 431.6 477.4 431.1 C 477.4 431.1 477.4 431.1 477.4 431.1 Z M 513.5 433.2 C 514.3 432.9 511.0 433.2 511.8 432.9 C 510.8 432.8 510.7 432.9 510.7 433.0 C 510.2 432.9 508.6 433.0 509.0 432.8 C 508.7 432.6 511.5 432.8 510.7 432.5 C 511.6 432.5 511.6 432.6 512.4 432.6 C 510.7 432.6 511.5 432.9 513.5 432.9 C 513.5 432.7 512.6 432.8 513.5 432.6 C 513.6 432.7 514.7 432.9 514.6 433.2 C 516.4 433.2 515.3 432.8 517.4 432.8 C 517.2 432.7 515.9 432.7 515.1 432.6 C 515.4 432.3 517.3 432.8 516.8 432.4 C 517.3 432.6 518.5 432.7 518.5 433.0 C 517.0 433.1 515.9 433.3 514.6 433.4 C 515.8 433.6 517.6 433.0 519.6 433.2 C 519.4 433.0 520.7 433.0 520.2 432.8 C 521.9 432.8 521.1 433.1 520.8 433.1 C 521.2 433.3 524.4 433.1 524.2 432.9 C 524.4 433.1 528.2 432.9 528.0 432.5 C 529.2 432.7 530.9 432.2 531.4 432.5 C 532.0 432.4 533.3 432.3 534.7 432.2 C 535.1 431.9 532.7 432.2 532.5 432.1 C 532.1 431.9 535.1 432.0 534.7 431.8 C 534.7 431.7 534.7 431.7 534.7 431.6 C 533.6 431.8 532.4 431.9 531.4 432.1 C 530.6 432.1 531.6 431.9 531.4 431.8 C 530.6 432.0 527.0 432.5 526.9 432.0 C 524.5 432.3 522.8 432.2 521.9 432.5 C 520.4 432.5 522.7 432.3 521.8 432.1 C 517.7 432.6 512.5 432.2 509.0 432.6 C 508.3 432.6 508.5 432.4 508.4 432.3 C 503.6 432.4 507.7 432.8 503.9 432.6 C 503.9 432.4 505.7 432.5 505.6 432.2 C 504.3 432.2 504.0 432.3 502.3 432.2 C 502.3 432.3 502.3 432.4 502.3 432.6 C 500.8 432.5 501.4 432.2 500.6 432.1 C 498.8 432.1 499.3 432.3 498.4 431.9 C 496.7 432.0 495.1 432.0 493.4 431.8 C 492.2 431.9 494.4 432.4 496.1 432.5 C 496.0 432.5 495.5 432.5 495.5 432.6 C 493.5 432.3 493.2 431.8 490.1 431.6 C 492.4 432.0 488.8 431.6 488.4 431.4 C 487.1 431.3 488.0 431.7 488.9 431.7 C 488.7 431.8 487.9 431.7 487.8 431.6 C 487.7 431.9 490.7 432.3 493.9 432.4 C 492.4 432.7 496.2 432.5 494.4 432.9 C 497.1 432.9 494.8 432.5 497.8 432.7 C 497.5 432.6 497.0 432.5 496.7 432.3 C 498.9 432.4 498.3 432.7 500.6 432.7 C 501.0 432.5 499.5 432.5 499.5 432.4 C 502.0 432.7 502.8 432.8 504.5 433.1 C 504.9 432.9 504.4 432.7 507.3 432.9 C 507.3 433.0 507.3 433.0 507.3 433.1 C 506.0 433.0 505.6 433.5 509.0 433.5 C 509.2 433.3 508.2 433.3 507.3 433.3 C 507.7 433.2 508.8 433.1 510.1 433.1 C 510.8 433.1 511.5 433.2 510.7 433.3 C 511.2 433.5 511.7 433.0 513.5 433.2 C 513.5 433.2 513.5 433.2 513.5 433.2 Z M 384.4 381.8 C 384.4 382.2 384.4 382.5 384.4 383.1 C 384.6 383.4 384.6 382.3 384.7 382.3 C 384.8 381.4 384.5 382.1 384.4 381.8 C 384.4 381.8 384.4 381.8 384.4 381.8 Z M 388.8 370.9 C 388.6 370.9 388.5 371.6 387.9 372.4 C 387.9 372.8 388.5 371.7 388.6 371.8 C 389.3 370.8 388.1 371.9 388.8 370.9 C 388.8 370.9 388.8 370.9 388.8 370.9 Z M 386.3 375.5 C 385.9 375.8 386.2 376.0 386.5 375.1 C 386.6 375.3 386.6 375.5 386.5 376.0 C 386.9 375.6 386.7 375.0 387.3 374.1 C 387.0 374.4 386.6 374.8 386.3 375.5 C 386.3 375.5 386.3 375.5 386.3 375.5 Z M 385.6 377.1 C 385.6 377.7 385.2 378.0 385.1 379.1 C 385.3 378.9 385.9 376.7 386.0 376.3 C 386.0 375.9 385.1 378.2 385.6 377.1 C 385.6 377.1 385.6 377.1 385.6 377.1 Z M 456.2 427.7 C 456.7 427.8 456.6 427.7 456.7 427.7 C 458.3 428.3 460.5 428.6 458.7 428.7 C 460.4 428.7 461.9 429.3 463.4 429.6 C 464.6 429.8 464.0 429.5 465.0 429.6 C 466.6 429.9 464.2 429.6 464.5 429.8 C 464.7 430.0 465.3 429.7 467.1 430.1 C 466.6 429.6 468.7 430.3 468.2 429.8 C 469.2 430.1 469.6 430.0 470.9 430.2 C 470.8 430.0 469.5 429.9 469.3 429.7 C 468.7 429.3 468.6 429.8 469.8 429.9 C 469.1 430.1 467.3 429.4 466.7 429.5 C 466.0 429.2 468.4 429.7 467.7 429.4 C 467.3 429.3 466.8 429.3 466.7 429.4 C 465.9 429.2 465.4 429.1 465.1 428.9 C 465.6 429.0 465.6 429.0 465.6 429.1 C 466.6 429.2 464.7 428.5 466.8 428.8 C 466.4 428.7 465.5 428.6 465.7 428.4 C 465.1 428.2 465.6 429.1 463.5 428.5 C 462.1 428.5 466.8 429.2 465.5 429.5 C 462.6 429.0 464.3 428.9 462.0 428.5 C 462.0 428.6 462.0 428.7 461.4 428.6 C 461.5 428.8 462.3 428.9 462.9 429.0 C 462.8 429.1 462.0 428.9 461.4 428.8 C 461.4 428.9 461.9 429.0 461.9 429.0 C 459.9 428.6 460.2 428.2 462.0 428.3 C 462.0 428.1 459.5 427.7 458.9 427.7 C 459.5 428.0 458.8 427.9 459.3 428.2 C 459.8 428.3 459.7 428.2 459.9 428.2 C 460.8 428.4 459.9 428.3 459.9 428.4 C 458.8 428.2 458.9 428.0 457.8 427.9 C 458.1 427.9 458.3 427.9 458.3 427.8 C 457.8 427.7 457.3 427.6 456.8 427.5 C 456.8 427.7 456.1 427.6 456.2 427.7 C 456.2 427.7 456.2 427.7 456.2 427.7 Z M 483.9 432.1 C 485.7 432.3 484.8 432.0 483.9 431.9 C 484.3 431.9 485.0 431.9 485.6 431.9 C 485.1 431.8 484.6 431.8 482.9 431.6 C 484.4 431.4 482.9 430.8 480.2 430.6 C 479.3 431.0 481.6 431.3 480.7 431.5 C 482.7 431.5 483.7 431.8 483.9 432.1 C 483.9 432.1 483.9 432.1 483.9 432.1 Z M 395.2 364.0 C 394.4 364.7 393.6 365.4 392.9 366.1 C 393.2 366.2 395.6 364.1 395.2 364.0 C 395.2 364.0 395.2 364.0 395.2 364.0 Z M 468.0 338.2 C 468.5 338.1 468.6 338.1 468.6 338.2 C 470.2 337.9 467.9 338.1 468.6 337.8 C 468.0 337.9 467.5 337.9 467.0 338.0 C 466.9 338.1 469.2 337.9 467.5 338.3 C 467.6 338.3 468.1 338.2 468.0 338.2 C 468.0 338.2 468.0 338.2 468.0 338.2 Z M 384.8 381.1 C 384.8 381.8 385.1 381.4 384.9 383.1 C 385.1 382.5 385.1 382.1 385.2 381.1 C 385.1 381.1 384.9 381.1 384.8 381.1 C 384.8 381.1 384.8 381.1 384.8 381.1 Z M 448.5 426.6 C 449.7 427.1 450.2 426.6 452.6 427.3 C 451.4 426.7 449.9 426.8 448.5 426.6 C 448.5 426.6 448.5 426.6 448.5 426.6 Z M 539.1 431.5 C 538.3 431.5 539.3 431.4 538.0 431.4 C 537.2 431.5 536.9 431.7 535.8 431.8 C 537.4 431.9 540.1 431.4 541.3 431.7 C 542.6 431.6 542.5 431.3 542.9 431.1 C 542.3 431.2 542.0 431.2 541.8 431.1 C 541.1 431.5 540.1 431.0 539.1 431.5 C 539.1 431.5 539.1 431.5 539.1 431.5 Z M 476.9 431.0 C 475.9 430.7 477.6 430.8 478.0 430.7 C 478.7 430.8 478.4 431.0 478.5 431.1 C 479.5 431.2 479.7 431.1 479.6 430.9 C 477.8 430.6 475.6 430.4 476.9 430.2 C 475.2 429.9 476.1 430.4 475.3 430.3 C 474.3 430.1 475.2 430.1 475.3 429.9 C 474.9 429.9 473.5 430.0 473.7 429.7 C 471.1 429.7 472.2 430.2 474.1 430.8 C 475.9 430.8 473.9 430.5 476.9 431.0 C 476.9 431.0 476.9 431.0 476.9 431.0 Z M 410.8 413.5 C 410.9 413.7 412.0 414.2 412.0 414.3 C 413.4 414.7 414.7 415.1 416.1 415.4 C 416.0 415.1 414.1 414.5 414.8 415.0 C 414.3 414.6 413.1 413.9 412.4 413.4 C 411.1 412.8 410.5 413.0 410.5 412.6 C 409.3 412.1 409.9 412.5 408.1 411.4 C 410.9 413.2 407.1 411.0 406.8 411.1 C 408.4 412.1 409.9 412.8 409.8 412.5 C 411.1 413.2 412.5 414.0 412.7 414.4 C 412.5 414.4 411.5 413.9 410.8 413.5 C 410.8 413.5 410.8 413.5 410.8 413.5 Z M 418.9 416.4 C 418.3 416.2 417.8 416.1 416.9 415.7 C 417.4 415.9 417.5 416.1 417.4 416.2 C 419.1 417.0 419.6 417.0 420.2 417.4 C 421.8 418.1 419.8 417.0 422.4 418.1 C 422.3 417.9 421.0 417.4 421.0 417.3 C 420.7 417.4 419.7 417.1 418.9 416.4 C 418.9 416.4 418.9 416.4 418.9 416.4 Z M 434.1 422.3 C 435.4 422.6 433.6 421.9 434.2 422.0 C 433.9 421.9 431.6 421.1 432.0 421.0 C 431.5 420.5 429.0 420.4 429.3 420.1 C 428.8 419.9 428.9 420.1 428.8 420.2 C 430.4 420.6 430.3 420.8 429.2 420.5 C 429.3 420.6 430.3 420.9 431.0 421.1 C 431.1 421.0 430.5 420.8 430.6 420.7 C 432.0 421.2 432.9 421.7 434.1 422.3 C 434.1 422.3 434.1 422.3 434.1 422.3 Z M 528.4 336.1 C 527.1 336.0 526.3 336.0 525.6 336.1 C 526.0 336.2 526.6 336.1 527.3 336.1 C 527.4 336.3 526.8 336.3 526.1 336.2 C 526.8 336.5 529.1 336.4 528.4 336.1 C 528.4 336.1 528.4 336.1 528.4 336.1 Z M 517.2 335.7 C 516.0 335.7 515.1 335.7 515.0 335.9 C 515.5 336.0 515.3 335.8 516.1 335.8 C 516.6 335.9 516.9 336.0 517.2 336.1 C 517.8 336.1 517.6 336.0 517.8 335.9 C 518.2 335.9 518.3 336.0 518.4 336.0 C 519.9 335.8 516.6 336.0 517.2 335.7 C 517.2 335.7 517.2 335.7 517.2 335.7 Z M 426.5 419.6 C 426.2 419.4 425.9 419.2 424.8 418.8 C 425.0 419.0 424.2 418.7 423.5 418.5 C 424.4 419.0 425.0 419.1 426.5 419.6 C 426.5 419.6 426.5 419.6 426.5 419.6 Z M 449.5 342.1 C 448.0 342.2 448.2 342.6 446.0 342.9 C 446.1 342.9 446.1 343.0 446.1 343.1 C 447.3 342.6 448.0 342.6 449.5 342.1 C 449.5 342.1 449.5 342.1 449.5 342.1 Z M 636.2 393.2 C 636.1 393.0 635.6 394.2 635.4 394.2 C 635.6 394.6 634.8 394.8 633.4 397.0 C 633.3 397.0 633.3 396.8 633.5 396.5 C 632.3 398.2 634.1 396.2 634.4 396.1 C 635.3 394.7 635.6 394.6 636.2 393.2 C 636.2 393.2 636.2 393.2 636.2 393.2 Z M 522.4 431.7 C 522.3 431.8 522.7 431.8 523.0 431.8 C 523.4 431.8 523.7 431.8 524.1 431.8 C 523.9 431.4 522.1 431.4 523.5 431.0 C 523.0 431.0 523.0 431.0 523.0 431.1 C 520.3 431.9 518.1 430.8 514.6 431.2 C 514.0 431.3 514.2 431.3 514.0 431.4 C 514.5 431.4 514.5 431.4 514.6 431.5 C 515.0 431.1 518.2 431.5 516.8 431.6 C 516.9 431.7 517.4 431.7 517.4 431.6 C 517.7 431.6 518.1 431.6 518.5 431.6 C 518.3 431.5 517.5 431.5 517.4 431.4 C 519.2 431.4 521.3 431.5 520.2 431.8 C 521.3 431.7 521.7 431.6 522.4 431.5 C 523.1 431.5 523.1 431.7 522.4 431.7 C 522.4 431.7 522.4 431.7 522.4 431.7 Z M 536.8 430.9 C 538.5 430.8 537.9 430.6 539.6 430.5 C 538.5 430.4 537.2 430.8 535.7 430.7 C 535.9 430.8 536.7 430.8 536.8 430.9 C 536.8 430.9 536.8 430.9 536.8 430.9 Z M 504.6 431.4 C 504.9 431.1 503.4 431.1 501.8 431.0 C 501.4 431.3 502.9 431.4 504.6 431.4 C 504.6 431.4 504.6 431.4 504.6 431.4 Z M 511.8 431.5 C 513.4 431.4 509.7 431.4 510.7 431.2 C 509.9 431.2 509.1 431.2 509.0 431.1 C 508.4 431.1 508.4 431.3 507.3 431.2 C 507.4 431.4 509.2 431.3 509.0 431.5 C 510.3 431.3 510.5 431.3 511.8 431.5 C 511.8 431.5 511.8 431.5 511.8 431.5 Z M 512.9 431.5 C 514.0 431.4 512.6 431.0 511.3 431.0 C 511.8 431.2 512.1 431.4 512.9 431.5 C 512.9 431.5 512.9 431.5 512.9 431.5 Z M 392.4 398.7 C 392.8 399.1 392.6 398.6 393.1 399.2 C 393.2 399.1 391.4 397.1 393.0 398.7 C 392.6 397.9 392.0 397.9 391.5 397.0 C 391.6 397.3 391.7 397.6 391.3 397.1 C 391.0 397.0 392.7 398.8 392.4 398.7 C 392.4 398.7 392.4 398.7 392.4 398.7 Z M 394.3 400.7 C 394.7 401.1 394.5 400.9 394.3 400.7 C 394.5 400.7 395.0 401.3 395.5 401.7 C 395.4 401.8 394.9 400.7 395.1 400.6 C 393.3 399.0 394.4 400.5 394.3 400.7 C 394.3 400.7 394.3 400.7 394.3 400.7 Z M 396.2 402.3 C 397.3 403.6 399.3 405.1 400.4 405.6 C 399.5 404.6 397.0 402.6 396.2 402.3 C 396.2 402.3 396.2 402.3 396.2 402.3 Z M 387.8 390.7 C 388.3 393.0 391.0 396.9 389.2 393.1 C 389.1 393.3 387.8 390.8 387.6 389.6 C 387.4 389.6 386.9 388.3 387.0 388.2 C 386.6 387.3 387.8 391.3 387.8 390.7 C 387.8 390.7 387.8 390.7 387.8 390.7 Z M 402.5 406.5 C 401.7 406.1 402.4 407.1 401.3 406.2 C 400.6 405.7 401.4 406.4 401.2 406.4 C 402.6 407.4 406.1 409.2 406.2 409.6 C 407.1 410.0 407.4 410.0 409.1 410.9 C 409.2 410.9 403.3 407.8 402.4 406.6 C 402.6 406.6 404.5 407.8 402.5 406.5 C 402.5 406.5 402.5 406.5 402.5 406.5 Z M 449.8 343.5 C 449.9 343.3 447.9 343.9 448.3 343.5 C 447.2 344.0 446.1 344.1 444.9 344.6 C 444.5 344.6 444.6 344.2 442.9 344.6 C 442.9 344.8 443.7 344.6 443.0 344.9 C 441.4 345.3 441.8 345.0 440.0 345.5 C 440.4 345.8 436.4 346.6 436.8 346.9 C 437.7 346.6 437.6 346.4 439.2 346.1 C 439.7 345.9 439.5 346.1 440.1 346.0 C 439.7 346.3 438.9 346.2 438.3 346.6 C 438.5 346.7 439.6 346.4 439.8 346.5 C 440.5 346.3 439.6 346.4 439.7 346.3 C 441.6 345.7 439.7 346.8 441.7 346.2 C 441.3 346.1 441.3 346.1 441.6 345.8 C 442.4 345.7 444.9 344.9 443.6 345.5 C 443.8 345.6 445.2 345.0 445.0 344.9 C 445.8 344.7 445.9 344.8 446.0 344.8 C 448.1 344.3 448.3 344.0 447.8 343.8 C 448.2 343.5 448.6 343.9 449.8 343.5 C 449.8 343.5 449.8 343.5 449.8 343.5 Z M 387.2 379.2 C 387.3 378.3 387.0 380.2 386.8 381.0 C 387.0 380.0 387.3 380.4 387.6 379.3 C 387.4 379.7 387.4 379.6 387.6 378.9 C 387.5 378.7 387.0 380.2 387.2 379.2 C 387.2 379.2 387.2 379.2 387.2 379.2 Z M 412.7 412.8 C 413.3 413.3 416.7 414.7 418.5 415.5 C 418.3 415.0 413.8 413.5 413.4 412.9 C 412.4 412.5 413.9 413.3 412.7 412.8 C 412.7 412.8 412.7 412.8 412.7 412.8 Z M 431.6 347.9 C 431.2 348.1 431.4 348.1 431.7 348.0 C 431.6 348.1 430.6 348.4 429.9 348.7 C 430.9 348.5 429.7 348.9 430.0 349.1 C 429.5 349.3 429.3 349.4 429.2 349.5 C 429.0 349.1 426.5 350.6 429.3 349.8 C 428.7 349.7 428.9 349.7 430.1 349.2 C 431.4 349.0 432.3 348.4 432.9 348.6 C 433.7 348.3 434.0 348.0 435.1 347.7 C 435.4 347.8 436.5 347.6 435.7 348.2 C 437.7 347.6 436.2 347.4 437.9 346.9 C 439.5 346.6 437.1 347.4 437.6 347.5 C 438.0 347.4 437.9 347.5 438.1 347.5 C 438.6 347.3 438.6 347.1 438.0 347.3 C 438.1 347.2 439.7 346.5 439.4 346.9 C 440.3 346.6 437.7 346.6 436.5 347.2 C 435.7 347.5 435.6 347.0 436.3 346.9 C 436.0 346.7 434.6 347.7 434.9 347.1 C 434.3 347.3 433.7 347.5 433.1 347.7 C 433.2 347.7 433.5 347.6 433.6 347.7 C 433.0 347.8 432.4 348.0 431.7 348.2 C 432.2 348.0 432.2 347.9 431.6 347.9 C 431.6 347.9 431.6 347.9 431.6 347.9 Z M 405.3 408.7 C 406.6 409.5 407.0 409.6 408.1 410.1 C 407.8 409.7 404.8 408.1 405.3 408.7 C 405.3 408.7 405.3 408.7 405.3 408.7 Z M 458.6 342.5 C 458.4 342.5 457.5 342.6 457.5 342.5 C 459.1 342.2 457.3 342.4 458.5 341.7 C 456.4 342.3 455.8 343.0 458.6 342.7 C 460.6 342.3 456.5 342.9 458.6 342.5 C 458.6 342.5 458.6 342.5 458.6 342.5 Z M 452.4 343.5 C 451.2 343.9 454.3 343.4 455.0 343.3 C 455.1 343.4 455.1 343.5 455.1 343.6 C 456.7 342.9 454.4 343.2 455.9 342.4 C 453.9 342.7 453.0 342.8 451.4 343.3 C 451.5 343.3 451.9 343.2 451.8 343.2 C 453.1 342.9 452.3 343.4 450.9 343.6 C 451.3 343.6 452.6 343.4 453.4 343.2 C 453.2 343.2 452.9 343.2 452.9 343.1 C 454.0 342.8 453.6 343.1 454.4 343.0 C 454.4 343.1 452.5 343.7 452.4 343.5 C 452.4 343.5 452.4 343.5 452.4 343.5 Z M 559.1 340.9 C 558.1 340.8 560.2 341.4 560.0 341.8 C 561.2 342.0 561.4 341.9 562.1 342.0 C 561.8 341.8 560.6 341.6 560.1 341.4 C 560.4 341.1 561.7 341.7 562.2 341.6 C 562.9 341.3 559.5 341.3 559.1 340.9 C 559.1 340.9 559.1 340.9 559.1 340.9 Z M 405.9 359.4 C 405.3 359.8 405.7 359.7 405.9 359.5 C 405.9 359.7 404.9 360.2 404.9 360.1 C 404.1 360.6 405.4 360.0 404.5 360.6 C 404.4 360.8 405.9 359.7 406.0 359.6 C 407.1 358.9 406.4 359.7 406.7 359.6 C 407.8 359.0 407.3 359.0 408.8 358.2 C 407.8 358.6 407.0 358.9 405.9 359.4 C 405.9 359.4 405.9 359.4 405.9 359.4 Z M 462.1 341.4 C 462.3 341.3 460.9 342.0 459.5 342.0 C 457.7 342.3 460.7 342.1 459.1 342.3 C 460.4 342.2 462.1 341.7 464.2 341.3 C 464.7 341.1 461.2 341.8 463.2 341.3 C 463.0 341.3 462.6 341.4 462.6 341.4 C 462.2 341.5 462.1 341.5 462.1 341.4 C 462.1 341.4 462.1 341.4 462.1 341.4 Z M 460.1 342.3 C 460.2 342.4 460.7 342.3 460.7 342.2 C 461.3 342.1 461.4 342.4 460.7 342.5 C 461.6 342.6 461.5 342.1 463.3 342.0 C 462.5 341.9 462.1 341.8 463.7 341.7 C 465.0 341.3 460.7 342.1 460.1 342.3 C 460.1 342.3 460.1 342.3 460.1 342.3 Z M 542.0 339.0 C 542.2 339.1 543.3 339.2 544.2 339.3 C 543.1 339.4 538.7 338.9 538.2 338.7 C 537.7 338.7 537.2 338.7 537.1 338.6 C 537.1 338.6 535.9 338.7 536.5 338.8 C 536.4 338.8 535.5 338.7 535.4 338.9 C 533.8 338.7 535.9 338.7 535.5 338.5 C 533.5 338.6 533.9 338.5 531.6 338.3 C 532.0 338.5 534.5 338.6 534.3 338.9 C 536.1 338.8 538.1 339.1 539.2 339.5 C 537.5 339.0 543.9 339.3 546.9 339.7 C 546.7 339.9 547.8 339.9 549.0 340.2 C 549.8 340.5 549.6 340.0 547.9 339.9 C 548.0 339.7 550.2 340.1 551.1 340.2 C 550.1 339.9 550.7 339.9 550.1 339.8 C 548.0 339.5 549.9 339.8 549.5 339.9 C 549.0 339.9 548.5 339.8 547.9 339.8 C 550.8 339.7 543.8 339.3 546.3 339.5 C 544.1 339.3 544.1 339.0 542.0 339.0 C 542.0 339.0 542.0 339.0 542.0 339.0 Z M 490.0 338.3 C 489.6 338.3 487.9 338.6 487.8 338.4 C 485.6 338.8 487.6 338.8 485.1 339.0 C 485.3 339.1 486.2 339.0 486.2 339.1 C 487.2 339.0 488.1 338.8 487.8 338.6 C 489.0 338.5 489.3 338.4 490.0 338.3 C 489.8 338.5 489.3 338.6 488.4 338.6 C 488.2 338.8 488.6 339.0 490.1 338.8 C 490.7 338.6 490.2 338.4 490.0 338.3 C 490.0 338.3 490.0 338.3 490.0 338.3 Z M 484.5 339.0 C 484.3 339.0 483.9 338.9 484.0 338.8 C 483.2 338.6 483.7 339.1 482.9 339.2 C 482.3 339.3 482.5 339.1 482.4 339.0 C 481.4 339.2 480.7 339.3 480.2 339.2 C 478.7 339.5 481.9 339.3 482.4 339.4 C 483.4 339.3 483.1 339.1 484.5 339.0 C 484.5 339.0 484.5 339.0 484.5 339.0 Z M 468.4 340.6 C 468.1 340.4 467.6 340.8 466.8 340.9 C 467.4 341.0 468.9 340.7 467.9 341.1 C 469.5 341.0 469.6 340.9 471.1 340.7 C 472.1 340.8 471.1 340.5 469.5 340.8 C 469.7 340.7 470.4 340.6 470.5 340.4 C 471.6 340.8 474.2 339.7 472.7 340.2 C 472.2 340.2 471.9 340.2 471.6 340.1 C 471.2 340.4 467.6 340.8 468.4 340.6 C 468.4 340.6 468.4 340.6 468.4 340.6 Z M 418.7 353.6 C 420.1 353.0 420.8 352.7 421.5 352.4 C 422.2 352.1 423.2 351.7 424.0 351.5 C 424.1 351.5 424.0 351.6 423.7 351.8 C 424.1 351.7 424.6 351.5 425.4 351.1 C 425.3 351.1 424.9 351.3 424.9 351.3 C 423.5 351.6 424.7 351.2 424.8 350.9 C 423.1 351.4 420.6 352.8 419.3 353.0 C 418.3 353.5 419.5 353.0 418.7 353.6 C 418.7 353.6 418.7 353.6 418.7 353.6 Z M 635.0 390.9 C 635.0 391.1 634.8 391.7 635.0 391.7 C 635.1 391.2 635.2 390.8 635.4 390.3 C 634.9 391.2 634.7 390.9 634.1 392.1 C 634.4 391.8 634.6 392.0 635.0 390.9 C 635.0 390.9 635.0 390.9 635.0 390.9 Z M 473.7 339.9 C 473.8 340.1 473.9 340.2 473.2 340.2 C 473.0 340.5 474.8 340.2 474.8 340.3 C 475.4 340.2 475.2 340.1 475.9 340.0 C 475.6 339.9 474.2 340.1 474.8 339.8 C 475.2 339.8 475.3 339.8 475.4 339.8 C 476.4 339.6 474.8 339.7 473.7 339.9 C 473.7 339.9 473.7 339.9 473.7 339.9 Z M 564.3 342.0 C 563.6 341.9 564.2 342.1 564.8 342.2 C 563.2 342.2 565.6 342.8 565.7 343.0 C 565.1 342.7 563.0 342.5 562.6 342.4 C 562.0 342.3 562.7 342.6 561.0 342.4 C 561.2 342.7 563.0 342.8 562.6 342.5 C 563.0 342.9 564.8 342.8 564.6 343.1 C 566.9 343.6 567.5 343.5 567.7 343.3 C 565.5 343.0 566.7 342.7 564.7 342.5 C 564.8 342.4 565.4 342.5 565.8 342.6 C 565.6 342.4 564.8 342.2 564.3 342.0 C 564.3 342.0 564.3 342.0 564.3 342.0 Z M 507.7 337.7 C 506.5 337.8 506.6 338.0 506.6 338.1 C 507.1 338.1 507.9 338.0 508.8 338.0 C 508.6 337.9 507.1 338.0 507.7 337.7 C 507.7 337.7 507.7 337.7 507.7 337.7 Z M 555.9 341.0 C 555.8 340.9 555.4 340.9 555.4 340.9 C 554.0 340.8 553.7 340.6 553.3 340.4 C 552.5 340.3 552.8 340.5 552.7 340.7 C 554.0 340.6 553.7 340.9 555.3 341.1 C 555.2 341.0 555.5 341.0 555.9 341.0 C 555.9 341.0 555.9 341.0 555.9 341.0 Z M 519.4 337.9 C 518.8 337.9 519.1 338.0 519.4 338.0 C 518.6 338.3 516.4 338.0 515.5 338.1 C 515.4 338.3 518.2 338.3 515.0 338.4 C 515.5 338.5 518.5 338.4 519.9 338.5 C 519.6 338.7 517.6 338.7 517.7 339.0 C 519.4 338.8 521.3 338.8 521.6 338.4 C 519.1 338.3 520.0 338.1 519.4 337.9 C 519.4 337.9 519.4 337.9 519.4 337.9 Z M 522.2 338.2 C 521.9 338.1 521.5 338.2 520.5 338.1 C 521.9 338.5 522.7 338.4 525.5 338.5 C 525.5 338.5 525.5 338.4 525.5 338.4 C 526.0 338.4 526.6 338.4 527.2 338.4 C 524.8 338.1 524.2 338.2 521.6 338.2 C 521.5 338.2 521.8 338.2 522.2 338.2 C 522.2 338.2 522.2 338.2 522.2 338.2 Z M 450.0 344.2 C 450.7 344.2 451.3 344.2 452.5 344.0 C 452.4 343.8 451.6 343.8 450.0 344.2 C 450.0 344.2 450.0 344.2 450.0 344.2 Z M 558.0 341.5 C 559.4 341.5 556.6 341.3 557.4 341.6 C 558.5 341.9 559.7 342.2 559.9 342.4 C 562.1 342.4 557.7 341.7 558.0 341.5 C 558.0 341.5 558.0 341.5 558.0 341.5 Z M 548.4 340.8 C 547.8 340.7 547.8 340.3 548.4 340.6 C 549.9 340.8 547.1 340.2 549.5 340.6 C 548.5 340.4 546.2 340.0 545.2 340.0 C 545.2 340.2 547.3 340.4 547.3 340.6 C 547.4 340.6 547.1 340.6 546.8 340.6 C 547.0 340.7 547.4 340.6 548.4 340.8 C 548.4 340.8 548.4 340.8 548.4 340.8 Z M 540.3 339.6 C 541.2 339.8 542.3 340.0 544.1 340.2 C 542.9 339.9 542.2 339.6 540.3 339.6 C 540.3 339.6 540.3 339.6 540.3 339.6 Z M 632.1 373.3 C 631.5 372.5 631.8 373.4 631.8 373.5 C 632.3 374.3 632.4 374.2 632.9 375.1 C 633.0 374.7 632.2 374.0 632.1 373.3 C 632.1 373.3 632.1 373.3 632.1 373.3 Z M 633.6 376.3 C 633.5 376.5 634.1 377.6 634.0 377.7 C 634.7 378.2 634.3 379.5 634.6 379.3 C 634.7 379.6 634.7 379.8 634.8 380.3 C 635.0 379.3 634.1 377.3 633.6 376.3 C 633.6 376.3 633.6 376.3 633.6 376.3 Z M 531.0 339.4 C 529.5 339.2 531.4 339.8 529.9 339.6 C 529.7 339.7 532.6 339.9 530.9 339.9 C 533.2 340.2 530.8 339.4 531.0 339.4 C 531.0 339.4 531.0 339.4 531.0 339.4 Z M 503.9 339.2 C 504.0 339.0 501.9 339.2 501.1 339.2 C 501.1 339.2 501.8 339.2 502.2 339.2 C 502.0 339.3 501.7 339.4 501.1 339.4 C 501.6 339.6 503.1 339.2 503.9 339.2 C 503.9 339.2 503.9 339.2 503.9 339.2 Z M 534.0 335.4 C 534.9 335.7 536.1 336.0 536.8 335.7 C 537.7 335.9 536.1 335.9 537.3 336.1 C 538.8 336.1 538.1 336.3 540.6 336.4 C 540.1 336.6 541.9 336.8 542.2 337.0 C 541.2 336.9 539.9 336.6 539.4 336.8 C 540.3 336.8 539.8 337.0 539.4 336.8 C 537.8 336.6 541.5 336.7 539.5 336.3 C 538.8 336.6 535.9 335.8 534.0 335.7 C 534.8 335.6 532.5 335.3 534.0 335.4 C 534.0 335.4 534.0 335.4 534.0 335.4 Z M 543.9 336.7 C 545.2 336.8 545.8 337.4 545.5 337.3 C 545.5 337.2 544.0 337.1 543.8 337.1 C 544.2 337.2 544.5 337.2 544.4 337.3 C 541.9 337.0 542.8 336.9 542.2 336.7 C 543.6 336.7 543.9 336.9 544.4 336.8 C 544.1 336.8 543.8 336.7 543.9 336.7 C 543.9 336.7 543.9 336.7 543.9 336.7 Z M 571.1 344.7 C 570.9 344.5 570.6 344.7 570.1 344.6 C 570.1 344.2 567.4 344.2 567.1 344.0 C 567.7 344.0 569.0 344.2 569.7 344.2 C 569.0 344.0 568.8 343.9 568.1 343.9 C 568.3 343.7 569.8 344.0 570.2 343.9 C 570.3 344.1 571.1 344.0 571.2 344.2 C 569.3 343.9 572.2 345.0 571.1 344.7 C 571.1 344.7 571.1 344.7 571.1 344.7 Z M 518.3 339.2 C 518.1 339.4 520.4 340.1 518.3 340.3 C 517.8 340.1 517.5 339.9 517.7 339.6 C 516.3 339.7 515.8 339.5 514.9 339.7 C 512.4 339.0 516.9 339.8 518.3 339.2 C 518.3 339.2 518.3 339.2 518.3 339.2 Z M 509.4 339.4 C 509.9 339.2 508.6 339.2 508.8 339.0 C 509.9 339.2 513.4 338.9 512.2 339.1 C 511.1 339.1 511.1 339.4 509.4 339.4 C 509.4 339.4 509.4 339.4 509.4 339.4 Z M 443.1 423.0 C 441.5 422.8 440.8 422.2 441.8 422.3 C 441.3 422.5 443.7 422.9 443.1 423.0 C 443.1 423.0 443.1 423.0 443.1 423.0 Z M 386.3 395.6 C 386.8 396.9 387.4 397.5 387.3 397.7 C 386.5 396.7 386.8 396.7 386.2 395.7 C 386.0 395.7 385.6 395.1 385.7 395.0 C 386.0 395.5 386.0 395.3 386.3 395.6 C 386.3 395.6 386.3 395.6 386.3 395.6 Z M 475.4 335.7 C 475.3 335.6 474.6 335.7 474.9 335.5 C 476.5 335.4 478.4 335.0 479.7 334.7 C 479.7 334.8 479.8 334.9 479.8 335.0 C 477.1 335.2 476.5 335.5 475.4 335.7 C 475.4 335.7 475.4 335.7 475.4 335.7 Z M 472.1 335.6 C 471.8 335.8 472.8 336.0 471.6 336.1 C 471.6 335.9 469.5 335.9 470.5 335.8 C 470.8 335.9 471.4 335.8 472.1 335.6 C 472.1 335.6 472.1 335.6 472.1 335.6 Z M 564.8 338.8 C 566.1 339.0 564.3 338.5 564.4 338.4 C 565.3 338.6 566.5 338.9 566.9 339.0 C 566.0 338.9 565.3 339.1 564.8 338.8 C 564.8 338.8 564.8 338.8 564.8 338.8 Z M 545.0 336.7 C 542.2 336.4 543.4 336.1 540.6 335.8 C 541.8 335.8 544.3 336.0 545.1 335.9 C 544.9 336.0 545.6 336.1 545.6 336.3 C 544.5 336.2 544.4 336.1 543.4 336.0 C 543.7 336.3 543.7 336.2 543.3 336.4 C 544.1 336.5 544.6 336.5 545.0 336.5 C 544.8 336.6 545.8 336.7 545.0 336.7 C 545.0 336.7 545.0 336.7 545.0 336.7 Z M 564.2 339.4 C 565.3 339.5 566.1 340.0 565.2 339.8 C 565.1 339.6 564.3 339.7 564.2 339.5 C 565.7 339.7 563.0 339.2 563.7 339.1 C 564.6 339.3 564.9 339.3 564.8 339.1 C 565.4 339.2 566.3 339.3 566.3 339.4 C 565.9 339.4 565.3 339.2 565.3 339.3 C 565.6 339.4 565.9 339.4 565.8 339.5 C 564.9 339.3 564.5 339.3 564.2 339.4 C 564.2 339.4 564.2 339.4 564.2 339.4 Z M 556.8 338.2 C 558.3 338.5 558.4 338.7 558.9 338.9 C 557.0 338.6 556.7 338.2 555.3 337.8 C 556.9 338.1 558.5 338.1 559.0 338.3 C 558.3 338.3 557.0 338.1 556.8 338.2 C 556.8 338.2 556.8 338.2 556.8 338.2 Z M 581.9 424.4 C 580.7 424.6 579.7 424.7 578.4 424.9 C 578.0 425.2 580.5 425.1 579.5 425.2 C 578.2 425.5 579.0 425.0 577.9 425.2 C 579.1 425.3 573.3 426.6 573.0 426.3 C 573.9 426.1 574.1 426.0 573.9 425.9 C 576.3 425.4 577.1 425.0 578.8 424.5 C 580.1 424.5 583.8 423.7 585.6 422.9 C 586.9 423.0 589.0 421.9 590.8 421.7 C 591.2 421.4 589.4 421.9 590.7 421.4 C 591.7 421.4 591.0 421.7 592.3 421.4 C 592.3 421.3 592.0 421.2 592.6 421.0 C 592.6 421.2 593.3 421.0 593.6 420.9 C 591.1 421.7 593.9 421.2 591.9 421.9 C 591.1 422.0 592.6 421.2 590.4 421.9 C 589.6 422.2 588.8 422.5 589.1 422.7 C 588.5 422.9 588.1 423.1 587.7 423.2 C 588.5 422.7 584.5 424.2 586.3 423.4 C 586.4 423.3 587.7 423.0 588.6 422.6 C 587.7 422.6 586.7 423.1 585.3 423.6 C 584.6 423.5 585.5 423.2 584.7 423.4 C 583.6 423.8 585.2 423.6 584.4 424.0 C 584.7 423.9 585.3 423.7 585.3 423.8 C 583.3 424.1 582.5 424.6 581.5 424.8 C 582.1 424.5 580.2 424.9 581.9 424.4 C 581.9 424.4 581.9 424.4 581.9 424.4 Z M 598.5 419.1 C 598.9 419.0 599.3 418.8 599.8 418.7 C 599.9 418.9 598.3 419.5 599.5 419.3 C 597.6 419.9 599.5 419.0 598.5 419.1 C 598.5 419.1 598.5 419.1 598.5 419.1 Z M 589.2 421.2 C 588.4 421.2 589.0 421.6 588.3 421.8 C 589.5 421.4 590.5 421.0 590.7 421.3 C 589.4 421.6 588.8 421.7 587.4 422.2 C 588.7 421.5 585.9 422.4 585.4 422.2 C 586.4 421.9 587.2 421.5 588.6 421.1 C 588.4 421.3 590.5 420.8 589.2 421.2 C 589.2 421.2 589.2 421.2 589.2 421.2 Z M 592.8 419.8 C 593.1 419.9 595.0 419.1 594.6 419.5 C 593.5 419.8 593.0 420.1 593.4 420.2 C 592.5 420.5 592.3 420.4 591.5 420.7 C 590.9 420.5 592.4 420.1 592.8 419.9 C 592.5 419.9 592.2 420.0 592.8 419.8 C 592.8 419.8 592.8 419.8 592.8 419.8 Z M 629.3 398.2 C 629.8 398.1 628.4 399.3 628.1 399.5 C 628.6 399.3 628.5 399.6 627.7 400.5 C 627.8 399.9 626.6 401.2 625.5 401.7 C 625.4 402.1 626.6 401.2 625.3 402.3 C 624.3 403.1 623.4 404.0 621.6 405.3 C 621.0 405.3 621.8 404.7 622.2 404.3 C 621.1 405.2 621.3 404.8 620.3 405.5 C 620.6 405.4 619.8 406.0 619.4 406.1 C 621.1 405.0 617.0 407.3 618.7 406.1 C 618.9 406.1 619.3 405.8 619.7 405.5 C 619.4 406.1 621.6 404.5 622.2 404.3 C 622.7 403.2 625.0 401.7 627.2 399.9 C 627.4 399.9 626.8 400.6 627.4 400.1 C 627.3 400.0 628.0 399.4 628.3 399.0 C 628.3 399.1 628.6 398.9 629.0 398.5 C 629.0 398.5 629.0 398.4 629.3 398.2 C 629.3 398.2 629.3 398.2 629.3 398.2 Z M 493.5 429.2 C 493.6 428.8 490.1 428.8 489.1 428.9 C 489.3 428.4 495.5 428.9 493.5 429.2 C 493.5 429.2 493.5 429.2 493.5 429.2 Z M 515.1 429.4 C 514.2 429.4 514.8 429.6 514.0 429.7 C 514.0 429.4 511.9 429.9 511.8 429.7 C 512.8 429.4 513.5 429.5 515.1 429.4 C 515.1 429.4 515.1 429.4 515.1 429.4 Z M 535.0 428.7 C 533.4 428.9 535.9 428.8 535.6 428.9 C 534.2 429.0 532.8 429.1 532.8 428.8 C 534.1 428.9 534.9 428.5 535.0 428.7 C 535.0 428.7 535.0 428.7 535.0 428.7 Z M 505.2 429.1 C 503.8 429.0 506.0 428.7 506.2 428.9 C 504.8 428.9 507.2 429.1 508.5 429.1 C 508.4 429.4 507.9 429.3 508.5 429.6 C 506.5 429.7 508.1 429.3 506.8 429.3 C 505.9 429.4 506.8 429.4 506.8 429.6 C 506.2 429.6 505.7 429.6 505.2 429.6 C 505.2 429.5 505.2 429.3 505.2 429.2 C 505.8 429.2 506.5 429.2 506.2 429.0 C 505.7 429.0 505.6 429.1 505.2 429.1 C 505.2 429.1 505.2 429.1 505.2 429.1 Z M 603.5 413.8 C 602.4 414.3 603.4 414.0 604.2 413.7 C 604.3 413.5 604.8 412.8 606.1 412.5 C 603.6 413.8 607.0 412.5 605.6 413.2 C 605.0 413.3 603.5 414.2 602.2 414.7 C 601.6 414.7 602.8 413.8 603.5 413.8 C 603.5 413.8 603.5 413.8 603.5 413.8 Z M 608.1 412.0 C 608.0 412.0 607.6 412.1 606.8 412.5 C 607.5 411.9 606.4 412.4 607.4 411.9 C 607.3 412.0 610.6 410.6 608.7 411.5 C 606.9 412.2 609.2 411.4 610.0 411.1 C 609.2 411.5 607.8 412.4 607.5 412.3 C 607.9 412.1 608.3 412.0 608.1 412.0 C 608.1 412.0 608.1 412.0 608.1 412.0 Z M 633.3 391.3 C 633.2 391.1 632.9 391.7 632.7 391.8 C 633.6 390.3 634.0 388.9 634.3 388.1 C 634.1 388.8 634.3 388.9 634.5 388.5 C 634.2 389.3 634.2 389.5 634.0 389.7 C 634.1 389.0 633.7 390.3 633.3 391.3 C 633.3 391.3 633.3 391.3 633.3 391.3 Z M 633.3 391.3 " fill="#000000"></path><image xlink:href="../../5527D29A-6B9A-42C4-9F60-23E2ABAF860D/assets/A5F817B5CC707520A3DC5410A5C74F35.png" width="141.00" height="44.00" transform="matrix(1.00, 0.00, -0.00, -1.00, 443.0, 392.0)"></image><g><clipPath id="clip-344"><path d="M 386.5 431.1 L 637.5 431.1 L 637.5 336.9 L 386.5 336.9 Z M 386.5 431.1 "></path></clipPath><g clip-path="url(#clip-344)"><text xml:space="preserve" font-family="Chalkduster" font-size="30.0" fill="#000000" transform="matrix(1.00, 0.00, -0.00, -1.00, 446.1, 371.2)">s</text><text xml:space="preserve" font-family="Chalkduster" font-size="30.0" fill="#000000" transform="matrix(1.00, 0.00, -0.00, -1.00, 461.3, 371.2)">y</text><text xml:space="preserve" font-family="Chalkduster" font-size="30.0" fill="#000000" transform="matrix(1.00, 0.00, -0.00, -1.00, 479.5, 371.2)">s</text><text xml:space="preserve" font-family="Chalkduster" font-size="30.0" fill="#000000" transform="matrix(1.00, 0.00, -0.00, -1.00, 494.1, 371.2)">.</text><text xml:space="preserve" font-family="Chalkduster" font-size="30.0" fill="#000000" transform="matrix(1.00, 0.00, -0.00, -1.00, 504.2, 371.2)">a</text><text xml:space="preserve" font-family="Chalkduster" font-size="30.0" fill="#000000" transform="matrix(1.00, 0.00, -0.00, -1.00, 523.4, 371.2)">r</text><text xml:space="preserve" font-family="Chalkduster" font-size="30.0" fill="#000000" transform="matrix(1.00, 0.00, -0.00, -1.00, 538.7, 371.2)">g</text><text xml:space="preserve" font-family="Chalkduster" font-size="30.0" fill="#000000" transform="matrix(1.00, 0.00, -0.00, -1.00, 559.2, 371.2)">v</text></g></g><text xml:space="preserve" font-family="Chalkduster" font-size="30.0" fill="#FEFFFE" transform="matrix(1.00, 0.00, -0.00, -1.00, 287.0, 246.0)">C</text><text xml:space="preserve" font-family="Chalkduster" font-size="30.0" fill="#FEFFFE" transform="matrix(1.00, 0.00, -0.00, -1.00, 311.3, 246.0)">o</text><text xml:space="preserve" font-family="Chalkduster" font-size="30.0" fill="#FEFFFE" transform="matrix(1.00, 0.00, -0.00, -1.00, 333.8, 246.0)">m</text><text xml:space="preserve" font-family="Chalkduster" font-size="30.0" fill="#FEFFFE" transform="matrix(1.00, 0.00, -0.00, -1.00, 365.1, 246.0)">m</text><text xml:space="preserve" font-family="Chalkduster" font-size="30.0" fill="#FEFFFE" transform="matrix(1.00, 0.00, -0.00, -1.00, 395.5, 246.0)">a</text><text xml:space="preserve" font-family="Chalkduster" font-size="30.0" fill="#FEFFFE" transform="matrix(1.00, 0.00, -0.00, -1.00, 416.2, 246.0)">n</text><text xml:space="preserve" font-family="Chalkduster" font-size="30.0" fill="#FEFFFE" transform="matrix(1.00, 0.00, -0.00, -1.00, 438.2, 246.0)">d</text><text xml:space="preserve" font-family="Chalkduster" font-size="30.0" fill="#FEFFFE" transform="matrix(1.00, 0.00, -0.00, -1.00, 461.6, 246.0)">-</text><text xml:space="preserve" font-family="Chalkduster" font-size="30.0" fill="#FEFFFE" transform="matrix(1.00, 0.00, -0.00, -1.00, 479.7, 246.0)">l</text><text xml:space="preserve" font-family="Chalkduster" font-size="30.0" fill="#FEFFFE" transform="matrix(1.00, 0.00, -0.00, -1.00, 494.2, 246.0)">i</text><text xml:space="preserve" font-family="Chalkduster" font-size="30.0" fill="#FEFFFE" transform="matrix(1.00, 0.00, -0.00, -1.00, 506.0, 246.0)">n</text><text xml:space="preserve" font-family="Chalkduster" font-size="30.0" fill="#FEFFFE" transform="matrix(1.00, 0.00, -0.00, -1.00, 528.5, 246.0)">e</text><text xml:space="preserve" font-family="Chalkduster" font-size="30.0" fill="#FEFFFE" transform="matrix(1.00, 0.00, -0.00, -1.00, 547.1, 246.0)"> </text><text xml:space="preserve" font-family="Chalkduster" font-size="30.0" fill="#FEFFFE" transform="matrix(1.00, 0.00, -0.00, -1.00, 562.0, 246.0)">a</text><text xml:space="preserve" font-family="Chalkduster" font-size="30.0" fill="#FEFFFE" transform="matrix(1.00, 0.00, -0.00, -1.00, 581.1, 246.0)">r</text><text xml:space="preserve" font-family="Chalkduster" font-size="30.0" fill="#FEFFFE" transform="matrix(1.00, 0.00, -0.00, -1.00, 596.5, 246.0)">g</text><text xml:space="preserve" font-family="Chalkduster" font-size="30.0" fill="#FEFFFE" transform="matrix(1.00, 0.00, -0.00, -1.00, 616.9, 246.0)">u</text><text xml:space="preserve" font-family="Chalkduster" font-size="30.0" fill="#FEFFFE" transform="matrix(1.00, 0.00, -0.00, -1.00, 636.9, 246.0)">m</text><text xml:space="preserve" font-family="Chalkduster" font-size="30.0" fill="#FEFFFE" transform="matrix(1.00, 0.00, -0.00, -1.00, 668.0, 246.0)">e</text><text xml:space="preserve" font-family="Chalkduster" font-size="30.0" fill="#FEFFFE" transform="matrix(1.00, 0.00, -0.00, -1.00, 686.9, 246.0)">n</text><text xml:space="preserve" font-family="Chalkduster" font-size="30.0" fill="#FEFFFE" transform="matrix(1.00, 0.00, -0.00, -1.00, 707.8, 246.0)">t</text><text xml:space="preserve" font-family="Chalkduster" font-size="30.0" fill="#FEFFFE" transform="matrix(1.00, 0.00, -0.00, -1.00, 721.5, 246.0)">s</text><text xml:space="preserve" font-family="Chalkduster" font-size="30.0" fill="#FEFFFE" transform="matrix(1.00, 0.00, -0.00, -1.00, 374.0, 147.0)">A</text><text xml:space="preserve" font-family="Chalkduster" font-size="30.0" fill="#FEFFFE" transform="matrix(1.00, 0.00, -0.00, -1.00, 396.2, 147.0)"> </text><text xml:space="preserve" font-family="Chalkduster" font-size="30.0" fill="#FEFFFE" transform="matrix(1.00, 0.00, -0.00, -1.00, 411.1, 147.0)">l</text><text xml:space="preserve" font-family="Chalkduster" font-size="30.0" fill="#FEFFFE" transform="matrix(1.00, 0.00, -0.00, -1.00, 425.5, 147.0)">i</text><text xml:space="preserve" font-family="Chalkduster" font-size="30.0" fill="#FEFFFE" transform="matrix(1.00, 0.00, -0.00, -1.00, 437.4, 147.0)">s</text><text xml:space="preserve" font-family="Chalkduster" font-size="30.0" fill="#FEFFFE" transform="matrix(1.00, 0.00, -0.00, -1.00, 453.4, 147.0)">t</text><text xml:space="preserve" font-family="Chalkduster" font-size="30.0" fill="#FEFFFE" transform="matrix(1.00, 0.00, -0.00, -1.00, 467.1, 147.0)"> </text><text xml:space="preserve" font-family="Chalkduster" font-size="30.0" fill="#FEFFFE" transform="matrix(1.00, 0.00, -0.00, -1.00, 482.1, 147.0)">o</text><text xml:space="preserve" font-family="Chalkduster" font-size="30.0" fill="#FEFFFE" transform="matrix(1.00, 0.00, -0.00, -1.00, 503.6, 147.0)">f</text><text xml:space="preserve" font-family="Chalkduster" font-size="30.0" fill="#FEFFFE" transform="matrix(1.00, 0.00, -0.00, -1.00, 519.6, 147.0)"> </text><text xml:space="preserve" font-family="Chalkduster" font-size="30.0" fill="#FEFFFE" transform="matrix(1.00, 0.00, -0.00, -1.00, 534.5, 147.0)">s</text><text xml:space="preserve" font-family="Chalkduster" font-size="30.0" fill="#FEFFFE" transform="matrix(1.00, 0.00, -0.00, -1.00, 550.6, 147.0)">t</text><text xml:space="preserve" font-family="Chalkduster" font-size="30.0" fill="#FEFFFE" transform="matrix(1.00, 0.00, -0.00, -1.00, 564.3, 147.0)">r</text><text xml:space="preserve" font-family="Chalkduster" font-size="30.0" fill="#FEFFFE" transform="matrix(1.00, 0.00, -0.00, -1.00, 580.9, 147.0)">i</text><text xml:space="preserve" font-family="Chalkduster" font-size="30.0" fill="#FEFFFE" transform="matrix(1.00, 0.00, -0.00, -1.00, 592.7, 147.0)">n</text><text xml:space="preserve" font-family="Chalkduster" font-size="30.0" fill="#FEFFFE" transform="matrix(1.00, 0.00, -0.00, -1.00, 613.8, 147.0)">g</text><text xml:space="preserve" font-family="Chalkduster" font-size="30.0" fill="#FEFFFE" transform="matrix(1.00, 0.00, -0.00, -1.00, 635.2, 147.0)">s</text><text xml:space="preserve" font-family="Chalkduster" font-size="30.0" fill="#FEFFFE" transform="matrix(1.00, 0.00, -0.00, -1.00, 650.3, 147.0)"> </text><g><clipPath id="clip-345"><path d="M 372.9 140.9 L 650.1 140.9 L 650.1 143.6 L 372.9 143.6 Z M 372.9 140.9 "></path></clipPath><g clip-path="url(#clip-345)"><path d="M 131.1 43.5 L 407.4 43.5 " fill="none" stroke="#FEFFFE" stroke-width="0.66" stroke-miterlimit="0.00" transform="matrix(1.00, 0.00, 0.00, -1.00, 242.8, 185.8)"></path></g></g><text xml:space="preserve" font-family="Chalkduster" font-size="30.0" fill="#FEFFFE" transform="matrix(1.00, 0.00, -0.00, -1.00, 255.0, 103.0)">P</text><text xml:space="preserve" font-family="Chalkduster" font-size="30.0" fill="#FEFFFE" transform="matrix(1.00, 0.00, -0.00, -1.00, 274.1, 103.0)">o</text><text xml:space="preserve" font-family="Chalkduster" font-size="30.0" fill="#FEFFFE" transform="matrix(1.00, 0.00, -0.00, -1.00, 296.0, 103.0)">s</text><text xml:space="preserve" font-family="Chalkduster" font-size="30.0" fill="#FEFFFE" transform="matrix(1.00, 0.00, -0.00, -1.00, 311.1, 103.0)">i</text><text xml:space="preserve" font-family="Chalkduster" font-size="30.0" fill="#FEFFFE" transform="matrix(1.00, 0.00, -0.00, -1.00, 323.3, 103.0)">t</text><text xml:space="preserve" font-family="Chalkduster" font-size="30.0" fill="#FEFFFE" transform="matrix(1.00, 0.00, -0.00, -1.00, 337.2, 103.0)">i</text><text xml:space="preserve" font-family="Chalkduster" font-size="30.0" fill="#FEFFFE" transform="matrix(1.00, 0.00, -0.00, -1.00, 349.0, 103.0)">o</text><text xml:space="preserve" font-family="Chalkduster" font-size="30.0" fill="#FEFFFE" transform="matrix(1.00, 0.00, -0.00, -1.00, 371.4, 103.0)">n</text><text xml:space="preserve" font-family="Chalkduster" font-size="30.0" fill="#FEFFFE" transform="matrix(1.00, 0.00, -0.00, -1.00, 393.4, 103.0)"> </text><text xml:space="preserve" font-family="Chalkduster" font-size="30.0" fill="#FEFFFE" transform="matrix(1.00, 0.00, -0.00, -1.00, 408.3, 103.0)">0</text><text xml:space="preserve" font-family="Chalkduster" font-size="30.0" fill="#FEFFFE" transform="matrix(1.00, 0.00, -0.00, -1.00, 428.9, 103.0)">:</text><text xml:space="preserve" font-family="Chalkduster" font-size="30.0" fill="#FEFFFE" transform="matrix(1.00, 0.00, -0.00, -1.00, 438.8, 103.0)"> </text><text xml:space="preserve" font-family="Chalkduster" font-size="30.0" fill="#FEFFFE" transform="matrix(1.00, 0.00, -0.00, -1.00, 453.8, 103.0)">t</text><text xml:space="preserve" font-family="Chalkduster" font-size="30.0" fill="#FEFFFE" transform="matrix(1.00, 0.00, -0.00, -1.00, 468.1, 103.0)">h</text><text xml:space="preserve" font-family="Chalkduster" font-size="30.0" fill="#FEFFFE" transform="matrix(1.00, 0.00, -0.00, -1.00, 486.6, 103.0)">e</text><text xml:space="preserve" font-family="Chalkduster" font-size="30.0" fill="#FEFFFE" transform="matrix(1.00, 0.00, -0.00, -1.00, 505.2, 103.0)"> </text><text xml:space="preserve" font-family="Chalkduster" font-size="30.0" fill="#FEFFFE" transform="matrix(1.00, 0.00, -0.00, -1.00, 520.1, 103.0)">p</text><text xml:space="preserve" font-family="Chalkduster" font-size="30.0" fill="#FEFFFE" transform="matrix(1.00, 0.00, -0.00, -1.00, 538.6, 103.0)">r</text><text xml:space="preserve" font-family="Chalkduster" font-size="30.0" fill="#FEFFFE" transform="matrix(1.00, 0.00, -0.00, -1.00, 554.0, 103.0)">o</text><text xml:space="preserve" font-family="Chalkduster" font-size="30.0" fill="#FEFFFE" transform="matrix(1.00, 0.00, -0.00, -1.00, 576.0, 103.0)">g</text><text xml:space="preserve" font-family="Chalkduster" font-size="30.0" fill="#FEFFFE" transform="matrix(1.00, 0.00, -0.00, -1.00, 597.4, 103.0)">r</text><text xml:space="preserve" font-family="Chalkduster" font-size="30.0" fill="#FEFFFE" transform="matrix(1.00, 0.00, -0.00, -1.00, 613.2, 103.0)">a</text><text xml:space="preserve" font-family="Chalkduster" font-size="30.0" fill="#FEFFFE" transform="matrix(1.00, 0.00, -0.00, -1.00, 632.9, 103.0)">m</text><text xml:space="preserve" font-family="Chalkduster" font-size="30.0" fill="#FEFFFE" transform="matrix(1.00, 0.00, -0.00, -1.00, 663.3, 103.0)"> </text><text xml:space="preserve" font-family="Chalkduster" font-size="30.0" fill="#FEFFFE" transform="matrix(1.00, 0.00, -0.00, -1.00, 678.2, 103.0)">n</text><text xml:space="preserve" font-family="Chalkduster" font-size="30.0" fill="#FEFFFE" transform="matrix(1.00, 0.00, -0.00, -1.00, 700.2, 103.0)">a</text><text xml:space="preserve" font-family="Chalkduster" font-size="30.0" fill="#FEFFFE" transform="matrix(1.00, 0.00, -0.00, -1.00, 720.0, 103.0)">m</text><text xml:space="preserve" font-family="Chalkduster" font-size="30.0" fill="#FEFFFE" transform="matrix(1.00, 0.00, -0.00, -1.00, 751.1, 103.0)">e</text><text xml:space="preserve" font-family="Chalkduster" font-size="30.0" fill="#FEFFFE" transform="matrix(1.00, 0.00, -0.00, -1.00, 769.6, 103.0)"> </text><text xml:space="preserve" font-family="Chalkduster" font-size="30.0" fill="#FEFFFE" transform="matrix(1.00, 0.00, -0.00, -1.00, 257.0, 59.0)">P</text><text xml:space="preserve" font-family="Chalkduster" font-size="30.0" fill="#FEFFFE" transform="matrix(1.00, 0.00, -0.00, -1.00, 276.1, 59.0)">o</text><text xml:space="preserve" font-family="Chalkduster" font-size="30.0" fill="#FEFFFE" transform="matrix(1.00, 0.00, -0.00, -1.00, 298.0, 59.0)">s</text><text xml:space="preserve" font-family="Chalkduster" font-size="30.0" fill="#FEFFFE" transform="matrix(1.00, 0.00, -0.00, -1.00, 313.1, 59.0)">i</text><text xml:space="preserve" font-family="Chalkduster" font-size="30.0" fill="#FEFFFE" transform="matrix(1.00, 0.00, -0.00, -1.00, 325.3, 59.0)">t</text><text xml:space="preserve" font-family="Chalkduster" font-size="30.0" fill="#FEFFFE" transform="matrix(1.00, 0.00, -0.00, -1.00, 339.2, 59.0)">i</text><text xml:space="preserve" font-family="Chalkduster" font-size="30.0" fill="#FEFFFE" transform="matrix(1.00, 0.00, -0.00, -1.00, 351.0, 59.0)">o</text><text xml:space="preserve" font-family="Chalkduster" font-size="30.0" fill="#FEFFFE" transform="matrix(1.00, 0.00, -0.00, -1.00, 373.4, 59.0)">n</text><text xml:space="preserve" font-family="Chalkduster" font-size="30.0" fill="#FEFFFE" transform="matrix(1.00, 0.00, -0.00, -1.00, 395.4, 59.0)"> </text><text xml:space="preserve" font-family="Chalkduster" font-size="30.0" fill="#FEFFFE" transform="matrix(1.00, 0.00, -0.00, -1.00, 410.3, 59.0)">1</text><text xml:space="preserve" font-family="Chalkduster" font-size="30.0" fill="#FEFFFE" transform="matrix(1.00, 0.00, -0.00, -1.00, 428.4, 59.0)">:</text><text xml:space="preserve" font-family="Chalkduster" font-size="30.0" fill="#FEFFFE" transform="matrix(1.00, 0.00, -0.00, -1.00, 438.3, 59.0)"> </text><text xml:space="preserve" font-family="Chalkduster" font-size="30.0" fill="#FEFFFE" transform="matrix(1.00, 0.00, -0.00, -1.00, 453.2, 59.0)">t</text><text xml:space="preserve" font-family="Chalkduster" font-size="30.0" fill="#FEFFFE" transform="matrix(1.00, 0.00, -0.00, -1.00, 467.6, 59.0)">h</text><text xml:space="preserve" font-family="Chalkduster" font-size="30.0" fill="#FEFFFE" transform="matrix(1.00, 0.00, -0.00, -1.00, 486.1, 59.0)">e</text><text xml:space="preserve" font-family="Chalkduster" font-size="30.0" fill="#FEFFFE" transform="matrix(1.00, 0.00, -0.00, -1.00, 504.7, 59.0)"> </text><text xml:space="preserve" font-family="Chalkduster" font-size="30.0" fill="#FEFFFE" transform="matrix(1.00, 0.00, -0.00, -1.00, 519.6, 59.0)">f</text><text xml:space="preserve" font-family="Chalkduster" font-size="30.0" fill="#FEFFFE" transform="matrix(1.00, 0.00, -0.00, -1.00, 535.6, 59.0)">i</text><text xml:space="preserve" font-family="Chalkduster" font-size="30.0" fill="#FEFFFE" transform="matrix(1.00, 0.00, -0.00, -1.00, 547.4, 59.0)">r</text><text xml:space="preserve" font-family="Chalkduster" font-size="30.0" fill="#FEFFFE" transform="matrix(1.00, 0.00, -0.00, -1.00, 562.9, 59.0)">s</text><text xml:space="preserve" font-family="Chalkduster" font-size="30.0" fill="#FEFFFE" transform="matrix(1.00, 0.00, -0.00, -1.00, 579.0, 59.0)">t</text><text xml:space="preserve" font-family="Chalkduster" font-size="30.0" fill="#FEFFFE" transform="matrix(1.00, 0.00, -0.00, -1.00, 592.7, 59.0)"> </text><text xml:space="preserve" font-family="Chalkduster" font-size="30.0" fill="#FEFFFE" transform="matrix(1.00, 0.00, -0.00, -1.00, 607.6, 59.0)">a</text><text xml:space="preserve" font-family="Chalkduster" font-size="30.0" fill="#FEFFFE" transform="matrix(1.00, 0.00, -0.00, -1.00, 626.7, 59.0)">r</text><text xml:space="preserve" font-family="Chalkduster" font-size="30.0" fill="#FEFFFE" transform="matrix(1.00, 0.00, -0.00, -1.00, 642.1, 59.0)">g</text><text xml:space="preserve" font-family="Chalkduster" font-size="30.0" fill="#FEFFFE" transform="matrix(1.00, 0.00, -0.00, -1.00, 662.6, 59.0)">u</text><text xml:space="preserve" font-family="Chalkduster" font-size="30.0" fill="#FEFFFE" transform="matrix(1.00, 0.00, -0.00, -1.00, 682.6, 59.0)">m</text><text xml:space="preserve" font-family="Chalkduster" font-size="30.0" fill="#FEFFFE" transform="matrix(1.00, 0.00, -0.00, -1.00, 713.7, 59.0)">e</text><text xml:space="preserve" font-family="Chalkduster" font-size="30.0" fill="#FEFFFE" transform="matrix(1.00, 0.00, -0.00, -1.00, 732.6, 59.0)">n</text><text xml:space="preserve" font-family="Chalkduster" font-size="30.0" fill="#FEFFFE" transform="matrix(1.00, 0.00, -0.00, -1.00, 753.5, 59.0)">t</text><text xml:space="preserve" font-family="Chalkduster" font-size="30.0" fill="#FEFFFE" transform="matrix(1.00, 0.00, -0.00, -1.00, 767.2, 59.0)"> </text><text xml:space="preserve" font-family="Chalkduster" font-size="30.0" fill="#FEFFFE" transform="matrix(1.00, 0.00, -0.00, -1.00, 499.0, 15.0)">.</text><text xml:space="preserve" font-family="Chalkduster" font-size="30.0" fill="#FEFFFE" transform="matrix(1.00, 0.00, -0.00, -1.00, 506.6, 15.0)">.</text><text xml:space="preserve" font-family="Chalkduster" font-size="30.0" fill="#FEFFFE" transform="matrix(1.00, 0.00, -0.00, -1.00, 514.2, 15.0)">.</text></g></svg>