<?xml version="1.0" encoding="UTF-8" standalone="no"?><svg xmlns="http://www.w3.org/2000/svg" xmlns:xlink="http://www.w3.org/1999/xlink" clip-rule="evenodd" stroke-miterlimit="4.00" viewBox="0 0 197 35"><desc>SVG generated by Keynote</desc><defs></defs><g transform="matrix(1.00, 0.00, -0.00, -1.00, 0.0, 35.0)"><image xlink:href="A18277AE752C380D74AF13B273D9C135.png" width="194.00" height="32.00" transform="matrix(1.00, 0.00, -0.00, -1.00, 1.0, 34.0)"></image><text xml:space="preserve" font-family="Chalkduster" font-size="24.0" fill="#000000" transform="matrix(1.00, 0.00, -0.00, -1.00, 5.0, 10.0)">C</text><text xml:space="preserve" font-family="Chalkduster" font-size="24.0" fill="#000000" transform="matrix(1.00, 0.00, -0.00, -1.00, 24.5, 10.0)">o</text><text xml:space="preserve" font-family="Chalkduster" font-size="24.0" fill="#000000" transform="matrix(1.00, 0.00, -0.00, -1.00, 42.3, 10.0)">n</text><text xml:space="preserve" font-family="Chalkduster" font-size="24.0" fill="#000000" transform="matrix(1.00, 0.00, -0.00, -1.00, 59.0, 10.0)">t</text><text xml:space="preserve" font-family="Chalkduster" font-size="24.0" fill="#000000" transform="matrix(1.00, 0.00, -0.00, -1.00, 70.0, 10.0)">r</text><text xml:space="preserve" font-family="Chalkduster" font-size="24.0" fill="#000000" transform="matrix(1.00, 0.00, -0.00, -1.00, 82.3, 10.0)">o</text><text xml:space="preserve" font-family="Chalkduster" font-size="24.0" fill="#000000" transform="matrix(1.00, 0.00, -0.00, -1.00, 100.5, 10.0)">l</text><text xml:space="preserve" font-family="Chalkduster" font-size="24.0" fill="#000000" transform="matrix(1.00, 0.00, -0.00, -1.00, 111.8, 10.0)"> </text><text xml:space="preserve" font-family="Chalkduster" font-size="24.0" fill="#000000" transform="matrix(1.00, 0.00, -0.00, -1.00, 123.7, 10.0)">F</text><text xml:space="preserve" font-family="Chalkduster" font-size="24.0" fill="#000000" transform="matrix(1.00, 0.00, -0.00, -1.00, 141.6, 10.0)">l</text><text xml:space="preserve" font-family="Chalkduster" font-size="24.0" fill="#000000" transform="matrix(1.00, 0.00, -0.00, -1.00, 151.9, 10.0)">o</text><text xml:space="preserve" font-family="Chalkduster" font-size="24.0" fill="#000000" transform="matrix(1.00, 0.00, -0.00, -1.00, 169.8, 10.0)">w</text></g></svg>