<?xml version="1.0" encoding="UTF-8" standalone="no"?><svg xmlns="http://www.w3.org/2000/svg" xmlns:xlink="http://www.w3.org/1999/xlink" clip-rule="evenodd" stroke-miterlimit="4.00" viewBox="0 0 167 35"><desc>SVG generated by Keynote</desc><defs></defs><g transform="matrix(1.00, 0.00, -0.00, -1.00, 0.0, 35.0)"><path d="M 14.3 22.1 C 14.2 22.5 13.3 22.7 13.2 23.0 M 14.3 22.1 C 13.0 21.5 11.6 22.2 9.6 23.1 C 7.7 24.3 10.3 24.1 10.4 24.6 C 8.2 26.7 7.7 25.9 7.3 24.5 C 6.8 25.9 3.1 26.5 4.6 27.5 C 8.6 24.8 2.1 29.7 6.0 28.3 C 6.5 28.3 5.8 29.3 5.5 29.5 C 6.9 29.4 5.6 31.3 7.6 30.6 C 8.4 31.3 7.9 31.1 9.4 31.1 C 10.0 30.9 9.5 30.7 9.4 30.5 C 8.8 29.4 11.1 30.3 11.5 29.0 C 13.3 29.9 13.1 27.7 12.0 27.6 C 12.9 27.2 14.7 28.1 15.0 26.6 C 15.9 27.0 17.9 25.2 16.0 25.1 C 14.7 25.1 15.5 24.0 15.5 23.6 C 15.0 23.5 13.8 24.8 13.4 24.6 C 13.7 24.1 15.2 22.5 13.3 23.7 C 13.6 22.8 12.5 23.1 14.3 22.1 C 14.3 22.1 14.3 22.1 14.3 22.1 Z M 7.0 25.6 C 6.7 25.2 7.6 25.2 7.0 25.6 C 7.0 25.6 7.0 25.6 7.0 25.6 Z M 14.7 27.7 C 14.5 27.3 15.4 27.3 14.7 27.7 C 14.7 27.7 14.7 27.7 14.7 27.7 Z M 9.7 30.4 C 9.4 30.0 10.3 30.0 9.7 30.4 C 9.7 30.4 9.7 30.4 9.7 30.4 Z M 8.9 24.7 C 10.2 24.3 8.4 25.8 8.0 25.5 C 8.2 25.4 8.4 24.5 8.9 24.7 C 8.9 24.7 8.9 24.7 8.9 24.7 Z M 10.4 26.7 C 10.4 26.6 10.8 26.2 11.0 26.6 C 10.8 26.9 10.4 26.9 10.4 26.7 C 10.4 26.7 10.4 26.7 10.4 26.7 Z M 4.2 28.7 C 4.2 28.5 4.6 28.2 4.8 28.6 C 4.6 28.9 4.3 28.9 4.2 28.7 C 4.2 28.7 4.2 28.7 4.2 28.7 Z M 10.8 24.9 C 11.1 24.8 11.4 25.1 11.1 25.3 C 10.8 25.2 10.0 25.7 10.8 24.9 C 10.8 24.9 10.8 24.9 10.8 24.9 Z M 11.7 22.6 C 12.7 22.2 11.2 23.9 11.1 23.7 C 10.7 23.6 11.0 22.6 11.7 22.6 C 11.7 22.6 11.7 22.6 11.7 22.6 Z M 11.6 25.1 C 12.4 24.8 11.4 25.6 11.6 25.1 C 11.6 25.1 11.6 25.1 11.6 25.1 Z M 6.8 30.9 C 7.7 30.6 6.7 31.4 6.8 30.9 C 6.8 30.9 6.8 30.9 6.8 30.9 Z M 11.3 29.5 C 12.1 29.3 11.2 30.0 11.3 29.5 C 11.3 29.5 11.3 29.5 11.3 29.5 Z M 7.4 26.7 C 6.1 27.5 6.6 25.9 7.4 26.7 C 7.4 26.7 7.4 26.7 7.4 26.7 Z M 13.7 21.2 C 12.4 22.0 13.0 20.4 13.7 21.2 C 13.7 21.2 13.7 21.2 13.7 21.2 Z M 160.7 27.1 C 162.0 27.7 158.2 23.4 159.0 26.0 C 158.7 27.6 155.7 25.4 157.2 24.8 C 156.3 24.1 156.4 24.0 155.5 24.3 C 155.9 23.3 154.0 21.4 152.9 21.5 C 152.0 22.0 154.3 22.4 152.6 22.5 C 149.7 21.1 152.2 23.5 150.6 23.9 C 150.5 23.8 150.7 23.3 150.3 23.4 C 149.7 24.4 150.8 25.9 149.7 26.2 C 150.2 26.3 151.5 28.5 151.2 27.2 C 151.5 26.1 152.6 29.6 153.4 28.0 C 153.6 29.1 154.8 28.6 154.9 29.8 C 155.3 30.2 155.7 29.5 155.8 29.2 C 156.2 28.5 155.4 31.1 156.9 30.4 C 156.7 30.8 158.9 32.1 157.7 30.5 C 158.1 30.9 160.2 32.9 159.9 30.8 C 158.6 29.0 162.5 30.7 160.6 29.2 C 159.2 28.0 158.7 28.1 160.3 28.2 C 160.6 28.5 162.4 29.6 161.3 28.0 C 160.9 27.9 160.2 27.3 160.7 27.1 C 160.7 27.1 160.7 27.1 160.7 27.1 Z M 159.7 29.2 C 158.8 28.6 160.0 28.7 159.7 29.2 C 159.7 29.2 159.7 29.2 159.7 29.2 Z M 154.6 30.0 C 153.7 29.5 154.8 29.4 154.6 30.0 C 154.6 30.0 154.6 30.0 154.6 30.0 Z M 158.1 24.9 C 157.3 25.0 158.1 23.5 158.1 24.9 C 158.1 24.9 158.1 24.9 158.1 24.9 Z M 156.7 29.9 C 156.7 29.8 157.0 29.8 157.2 29.8 C 157.1 29.9 156.8 29.9 156.7 29.9 C 156.7 29.9 156.7 29.9 156.7 29.9 Z M 156.5 23.9 C 154.7 23.7 156.9 22.7 156.5 23.9 C 156.5 23.9 156.5 23.9 156.5 23.9 Z M 152.9 23.5 C 151.9 24.7 151.7 22.3 152.9 23.5 C 152.9 23.5 152.9 23.5 152.9 23.5 Z M 153.0 27.6 C 153.4 27.5 153.1 27.9 153.0 27.6 C 153.0 27.6 153.0 27.6 153.0 27.6 Z M 158.6 31.6 C 159.0 31.5 158.7 31.9 158.6 31.6 C 158.6 31.6 158.6 31.6 158.6 31.6 Z M 151.4 26.5 C 151.8 26.0 151.7 27.0 151.4 26.5 C 151.4 26.5 151.4 26.5 151.4 26.5 Z M 157.4 25.3 C 159.4 25.0 157.9 27.8 157.4 25.3 C 157.4 25.3 157.4 25.3 157.4 25.3 Z M 159.7 26.6 C 160.7 27.0 159.1 27.2 158.9 26.8 C 159.0 26.7 159.6 26.6 159.7 26.6 C 159.7 26.6 159.7 26.6 159.7 26.6 Z M 156.1 24.5 C 157.2 24.5 156.7 25.3 156.1 24.5 C 156.1 24.5 156.1 24.5 156.1 24.5 Z M 158.6 25.4 C 158.9 25.8 158.2 25.3 158.6 25.4 C 158.6 25.4 158.6 25.4 158.6 25.4 Z M 155.0 22.3 C 155.4 22.7 154.6 22.3 155.0 22.3 C 155.0 22.3 155.0 22.3 155.0 22.3 Z M 161.1 26.8 C 161.5 27.2 160.7 26.7 161.1 26.8 C 161.1 26.8 161.1 26.8 161.1 26.8 Z M 155.0 23.3 C 154.5 23.7 155.1 25.5 153.5 23.3 C 153.3 22.7 154.6 22.5 155.0 23.3 C 155.0 23.3 155.0 23.3 155.0 23.3 Z M 18.4 19.9 C 11.7 21.5 14.7 23.5 14.7 24.2 C 14.4 25.4 15.4 25.4 16.8 25.3 C 19.0 26.3 17.6 22.5 19.4 23.7 C 22.2 25.3 20.0 20.8 22.0 22.9 C 22.1 23.7 24.0 22.1 23.7 22.0 C 25.4 22.6 26.0 19.7 25.9 19.5 C 26.8 19.5 27.9 21.7 29.5 18.9 C 31.0 17.6 32.8 19.5 31.6 18.1 C 33.7 19.3 32.3 17.2 33.9 17.3 C 35.2 17.9 33.4 15.7 35.8 17.0 C 36.0 15.2 35.3 18.2 39.5 15.5 C 37.3 16.2 41.3 13.6 40.8 14.9 C 39.6 16.5 42.8 13.7 45.1 13.8 C 45.5 13.0 47.7 10.9 47.7 12.6 C 50.4 13.7 49.7 10.9 51.0 12.1 C 51.9 12.5 51.9 11.1 52.4 11.1 C 53.4 12.1 54.0 11.1 56.8 10.9 C 63.1 10.2 57.2 7.8 59.5 7.0 C 59.8 6.4 55.6 3.4 57.5 5.9 C 56.9 5.2 52.4 9.1 54.3 5.5 C 52.6 7.2 54.4 4.2 50.8 6.6 C 56.7 7.4 44.9 8.9 49.8 6.6 C 48.8 6.2 46.7 6.9 48.3 7.0 C 49.4 8.7 44.4 7.1 47.2 8.9 C 43.7 9.1 45.2 11.0 43.9 9.8 C 42.4 7.5 44.2 10.4 42.4 10.2 C 38.5 11.3 40.6 7.6 38.9 10.2 C 34.7 10.3 38.4 11.6 37.3 12.3 C 37.5 14.1 33.0 12.4 35.8 11.1 C 34.6 12.6 35.2 10.4 33.9 12.1 C 35.7 13.2 31.1 11.4 32.1 12.4 C 30.7 13.4 31.9 14.0 31.4 14.2 C 29.2 15.1 29.3 13.4 29.3 14.7 C 29.1 15.5 27.2 14.0 27.1 14.6 C 29.4 13.7 26.0 17.0 25.4 16.3 C 26.7 15.6 23.7 14.7 23.4 16.3 C 26.1 19.0 21.1 16.4 20.7 18.0 C 22.5 19.3 16.0 20.8 17.7 18.8 C 17.7 19.0 18.4 19.9 18.4 19.9 M 26.6 15.2 C 28.5 14.5 24.7 16.4 26.6 15.2 M 26.3 14.7 C 27.4 15.0 24.3 15.0 26.3 14.5 C 26.3 14.5 26.2 14.7 26.3 14.7 M 34.0 11.4 C 34.0 12.0 32.9 11.5 34.0 11.4 M 36.0 12.0 C 37.4 12.0 34.3 12.7 36.0 12.0 M 53.6 6.5 C 52.4 9.8 51.3 5.2 53.6 6.5 M 41.6 9.0 C 39.6 10.1 42.0 7.6 41.6 9.0 M 41.2 10.0 C 40.3 10.7 40.8 9.4 41.2 10.0 M 50.2 7.3 C 50.4 7.3 50.4 7.3 50.2 7.3 C 50.2 7.3 50.2 7.3 50.2 7.3 Z M 55.6 6.1 C 55.6 6.1 55.6 6.1 55.6 6.1 C 55.6 6.1 55.6 6.1 55.6 6.1 Z M 45.1 8.9 C 43.3 8.7 47.7 7.9 45.1 8.9 C 45.1 8.9 45.1 8.9 45.1 8.9 Z M 54.0 11.1 C 53.9 11.2 53.9 11.2 54.0 11.1 C 54.0 11.1 54.0 11.1 54.0 11.1 Z M 25.7 17.1 C 25.6 17.1 25.6 17.1 25.7 17.1 C 25.7 17.1 25.7 17.1 25.7 17.1 Z M 19.6 18.8 C 19.9 19.1 18.5 19.1 19.6 18.8 C 19.6 18.8 19.6 18.8 19.6 18.8 Z M 16.8 24.2 C 16.8 24.3 16.8 24.3 16.8 24.2 C 16.8 24.2 16.8 24.2 16.8 24.2 Z M 24.5 19.4 C 24.5 19.4 24.5 19.4 24.5 19.4 C 24.5 19.4 24.5 19.4 24.5 19.4 Z M 24.3 17.0 C 22.7 15.9 26.7 16.4 24.3 17.0 C 24.3 17.0 24.3 17.0 24.3 17.0 Z M 44.3 13.5 C 44.2 12.8 45.7 13.3 44.3 13.5 C 44.3 13.5 44.3 13.5 44.3 13.5 Z M 36.4 12.5 C 36.6 12.1 37.4 12.4 36.4 12.5 C 36.4 12.5 36.4 12.5 36.4 12.5 Z M 32.4 11.7 C 32.6 11.2 33.4 11.5 32.4 11.7 C 32.4 11.7 32.4 11.7 32.4 11.7 Z M 19.5 18.4 C 19.6 18.2 19.6 18.2 19.5 18.4 C 19.5 18.4 19.5 18.4 19.5 18.4 Z M 22.0 18.5 C 20.0 17.8 24.6 18.1 22.0 18.5 C 22.0 18.5 22.0 18.5 22.0 18.5 Z M 19.9 20.0 C 20.9 20.2 18.0 20.7 19.9 20.0 M 22.3 21.5 C 23.7 20.0 22.1 24.7 22.3 21.5 C 22.3 21.5 22.3 21.5 22.3 21.5 Z M 31.1 18.1 C 31.2 18.1 31.2 18.1 31.1 18.1 C 31.1 18.1 31.1 18.1 31.1 18.1 Z M 28.4 14.3 C 29.9 13.7 27.5 15.1 28.4 14.3 C 28.4 14.3 28.4 14.3 28.4 14.3 Z M 15.2 20.5 C 16.7 19.7 14.4 21.4 15.2 20.5 C 15.2 20.5 15.2 20.5 15.2 20.5 Z M 35.6 14.6 C 38.0 13.5 34.3 16.0 35.6 14.6 C 35.6 14.6 35.6 14.6 35.6 14.6 Z M 44.4 9.8 C 44.5 9.8 44.5 9.8 44.4 9.8 C 44.4 9.8 44.4 9.8 44.4 9.8 Z M 46.0 8.7 C 46.1 8.7 46.1 8.7 46.0 8.7 C 46.0 8.7 46.0 8.7 46.0 8.7 Z M 53.9 8.3 C 54.0 8.4 54.0 8.4 53.9 8.3 C 53.9 8.3 53.9 8.3 53.9 8.3 Z M 47.4 7.5 C 47.5 7.5 47.5 7.5 47.4 7.5 C 47.4 7.5 47.4 7.5 47.4 7.5 Z M 52.8 6.6 C 52.9 6.6 52.9 6.6 52.8 6.6 C 52.8 6.6 52.8 6.6 52.8 6.6 Z M 51.7 5.5 C 51.9 5.5 51.9 5.5 51.7 5.5 C 51.7 5.5 51.7 5.5 51.7 5.5 Z M 42.2 15.1 C 42.3 15.1 42.3 15.1 42.2 15.1 C 42.2 15.1 42.2 15.1 42.2 15.1 Z M 21.9 16.5 C 22.1 16.6 22.1 16.6 21.9 16.5 C 21.9 16.5 21.9 16.5 21.9 16.5 Z M 52.5 7.3 C 52.6 7.3 52.6 7.3 52.5 7.3 C 52.5 7.3 52.5 7.3 52.5 7.3 Z M 40.3 12.0 C 40.7 13.2 38.7 10.7 40.6 11.8 C 40.5 11.9 40.1 11.8 40.3 12.0 M 42.6 13.5 C 42.5 13.6 42.5 13.6 42.6 13.5 C 42.6 13.5 42.6 13.5 42.6 13.5 Z M 37.4 16.1 C 37.3 16.2 37.3 16.2 37.4 16.1 C 37.4 16.1 37.4 16.1 37.4 16.1 Z M 46.5 7.5 C 46.0 6.8 48.0 7.6 46.2 7.6 M 54.4 10.6 C 54.0 9.9 55.9 10.8 54.2 10.6 M 13.8 21.9 C 13.8 22.5 12.6 22.2 13.8 21.9 M 36.4 17.2 C 36.4 17.9 35.3 17.3 36.4 17.2 M 38.4 14.7 C 37.9 14.1 39.9 14.8 38.2 14.9 M 50.5 11.4 C 50.6 11.4 50.6 11.4 50.5 11.4 C 50.5 11.4 50.5 11.4 50.5 11.4 Z M 30.8 13.4 C 30.9 13.4 30.9 13.4 30.8 13.4 C 30.8 13.4 30.8 13.4 30.8 13.4 Z M 38.1 12.3 C 36.9 11.7 39.5 12.5 38.1 12.3 M 29.5 15.9 C 27.7 15.3 31.8 15.4 29.5 15.9 M 57.4 10.2 C 55.6 9.1 58.7 10.8 57.4 10.2 M 48.9 8.3 C 47.0 7.2 50.3 8.8 48.9 8.3 M 32.4 13.5 C 32.0 12.8 34.1 13.3 32.4 13.5 M 17.0 19.9 C 15.6 20.5 18.5 18.4 17.0 19.9 M 46.9 12.5 C 47.0 12.5 47.0 12.5 46.9 12.5 C 46.9 12.5 46.9 12.5 46.9 12.5 Z M 24.1 22.7 C 24.2 22.7 24.2 22.7 24.1 22.7 C 24.1 22.7 24.1 22.7 24.1 22.7 Z M 58.5 5.0 C 58.6 5.0 58.6 5.0 58.5 5.0 C 58.5 5.0 58.5 5.0 58.5 5.0 Z M 48.1 9.2 C 48.2 9.3 48.2 9.3 48.1 9.2 C 48.1 9.2 48.1 9.2 48.1 9.2 Z M 55.4 5.4 C 55.5 5.5 55.5 5.5 55.4 5.4 C 55.4 5.4 55.4 5.4 55.4 5.4 Z M 43.7 11.7 C 43.7 11.7 43.7 11.7 43.7 11.7 C 43.7 11.7 43.7 11.7 43.7 11.7 Z M 41.6 8.3 C 41.6 8.4 41.6 8.4 41.6 8.3 C 41.6 8.3 41.6 8.3 41.6 8.3 Z M 36.9 11.6 C 36.9 11.7 36.9 11.7 36.9 11.6 C 36.9 11.6 36.9 11.6 36.9 11.6 Z M 44.1 7.9 C 47.2 6.7 42.9 9.6 44.1 7.9 C 44.1 7.9 44.1 7.9 44.1 7.9 Z M 39.9 13.3 C 39.9 13.3 39.9 13.3 39.9 13.3 C 39.9 13.3 39.9 13.3 39.9 13.3 Z M 38.6 10.8 C 40.2 9.1 40.2 12.2 38.6 10.8 M 29.6 13.3 C 30.0 12.5 30.3 14.0 29.6 13.3 M 28.4 19.3 C 28.4 19.4 28.4 19.4 28.4 19.3 C 28.4 19.3 28.4 19.3 28.4 19.3 Z M 29.1 18.6 C 29.2 18.6 29.2 18.6 29.1 18.6 C 29.1 18.6 29.1 18.6 29.1 18.6 Z M 27.5 13.9 C 27.5 13.9 27.5 13.9 27.5 13.9 C 27.5 13.9 27.5 13.9 27.5 13.9 Z M 29.8 19.9 C 29.9 19.8 29.9 19.8 29.8 19.9 C 29.8 19.9 29.8 19.9 29.8 19.9 Z M 40.4 8.8 C 40.5 8.8 40.5 8.8 40.4 8.8 C 40.4 8.8 40.4 8.8 40.4 8.8 Z M 56.9 4.5 C 56.9 4.5 56.9 4.5 56.9 4.5 C 56.9 4.5 56.9 4.5 56.9 4.5 Z M 19.4 23.2 C 19.5 23.2 19.5 23.2 19.4 23.2 C 19.4 23.2 19.4 23.2 19.4 23.2 Z M 42.6 9.7 C 42.6 9.8 42.6 9.8 42.6 9.7 C 42.6 9.7 42.6 9.7 42.6 9.7 Z M 26.2 20.1 C 26.2 20.1 26.2 20.1 26.2 20.1 C 26.2 20.1 26.2 20.1 26.2 20.1 Z M 41.4 9.8 C 41.5 9.8 41.5 9.8 41.4 9.8 C 41.4 9.8 41.4 9.8 41.4 9.8 Z M 46.5 12.9 C 46.5 12.9 46.5 12.9 46.5 12.9 C 46.5 12.9 46.5 12.9 46.5 12.9 Z M 50.1 12.8 C 50.1 12.8 50.1 12.8 50.1 12.8 C 50.1 12.8 50.1 12.8 50.1 12.8 Z M 45.5 10.4 C 45.5 10.4 45.5 10.4 45.5 10.4 C 45.5 10.4 45.5 10.4 45.5 10.4 Z M 24.4 19.1 C 17.9 20.8 28.8 16.3 24.4 19.1 M 46.6 10.4 C 42.1 11.3 49.7 8.0 46.6 10.4 C 47.0 9.9 46.7 10.3 46.6 10.4 M 60.0 4.1 C 58.4 5.8 58.6 7.2 59.7 8.5 C 60.7 9.0 60.2 6.2 60.7 8.6 C 58.6 9.4 62.2 12.0 61.6 8.9 C 64.3 8.1 62.3 10.8 63.8 9.3 C 66.7 8.6 65.3 9.8 67.6 9.3 C 68.7 7.5 69.0 10.0 69.4 8.3 C 68.4 10.2 71.8 7.6 71.9 8.4 C 69.9 9.6 79.9 7.9 74.4 7.7 C 76.6 6.7 76.2 8.2 77.0 8.4 C 77.9 7.3 80.6 9.1 82.0 8.1 C 81.7 7.8 81.1 7.8 80.8 7.4 C 80.4 6.8 82.4 7.6 82.2 7.5 C 83.1 7.1 86.7 6.1 82.9 7.9 C 82.7 8.7 86.0 7.6 85.9 8.3 C 89.2 8.4 86.8 6.7 88.2 8.0 C 90.6 8.1 92.3 8.2 92.3 8.0 C 93.7 8.3 93.9 9.3 95.3 8.5 C 98.0 10.6 97.8 5.2 98.4 8.9 C 99.4 8.1 99.9 10.6 100.0 8.4 C 98.9 9.2 104.7 10.8 102.4 8.8 C 103.1 8.4 106.3 11.8 106.2 9.5 C 107.8 8.1 107.9 6.4 105.2 4.3 C 105.3 5.7 102.3 2.5 104.2 5.0 C 106.6 6.2 99.4 5.2 101.0 4.6 C 101.7 2.0 97.3 5.8 95.9 3.8 C 97.1 4.9 91.1 5.0 93.0 3.1 C 91.9 2.9 91.6 3.8 90.4 2.6 C 94.0 3.0 89.0 4.6 89.2 3.4 C 89.9 2.7 84.5 1.9 85.0 3.0 C 86.9 5.8 83.6 2.4 82.7 3.5 C 79.8 4.1 83.1 1.2 81.0 3.2 C 80.4 2.9 76.4 3.0 78.9 2.4 C 79.9 2.6 76.7 5.4 76.2 3.1 C 80.3 1.6 71.3 2.7 72.7 3.3 C 79.3 4.1 66.0 5.4 71.0 3.7 C 68.0 2.6 71.8 3.0 68.3 4.0 C 68.8 4.6 66.2 5.7 66.6 4.1 C 65.8 2.0 66.1 7.1 63.5 4.5 C 63.0 3.2 59.4 6.1 60.7 4.4 C 60.8 4.2 60.1 4.1 60.0 4.1 M 61.3 4.1 C 61.0 4.7 60.5 3.7 61.3 4.1 M 60.9 4.7 C 60.9 4.7 60.9 4.7 60.9 4.7 C 60.9 4.7 60.9 4.7 60.9 4.7 Z M 67.8 4.1 C 67.7 4.0 67.7 4.0 67.8 4.1 C 67.8 4.1 67.8 4.1 67.8 4.1 Z M 73.6 9.1 C 73.5 9.1 73.5 9.1 73.6 9.1 C 73.6 9.1 73.6 9.1 73.6 9.1 Z M 72.4 3.8 C 72.3 3.8 72.3 3.8 72.4 3.8 C 72.4 3.8 72.4 3.8 72.4 3.8 Z M 65.4 4.7 C 65.3 4.7 65.3 4.7 65.4 4.7 C 65.4 4.7 65.4 4.7 65.4 4.7 Z M 71.9 3.0 C 72.3 3.8 70.2 2.5 71.9 2.9 C 72.0 2.9 71.7 3.0 71.9 3.0 M 77.9 2.3 C 77.9 2.4 77.9 2.4 77.9 2.3 M 90.8 9.0 C 90.9 9.1 90.9 9.1 90.8 9.0 M 92.3 2.5 C 92.5 2.6 92.5 2.6 92.3 2.5 M 83.9 3.1 C 85.8 3.0 84.3 3.5 83.9 3.1 M 97.1 3.4 C 94.9 2.6 99.6 3.2 97.1 3.4 M 99.4 3.1 C 99.6 3.2 99.6 3.2 99.4 3.1 M 89.0 2.6 C 88.9 2.7 88.9 2.7 89.0 2.6 C 89.0 2.6 89.0 2.6 89.0 2.6 Z M 83.1 2.7 C 80.7 2.3 85.6 2.0 83.1 2.7 M 68.5 3.2 C 69.8 2.7 68.6 4.3 68.5 3.2 M 65.8 4.0 C 65.8 4.0 65.8 4.0 65.8 4.0 C 65.8 4.0 65.8 4.0 65.8 4.0 Z M 93.4 3.0 C 93.3 3.0 93.3 3.0 93.4 3.0 C 93.4 3.0 93.4 3.0 93.4 3.0 Z M 96.1 3.1 C 96.0 3.1 96.0 3.1 96.1 3.1 C 96.1 3.1 96.1 3.1 96.1 3.1 Z M 99.7 9.6 C 99.7 9.6 99.7 9.6 99.7 9.6 C 99.7 9.6 99.7 9.6 99.7 9.6 Z M 68.1 6.3 C 66.3 6.0 69.7 4.1 69.5 5.6 C 69.8 6.2 68.3 6.1 68.1 6.3 M 81.4 4.6 C 81.9 6.7 79.6 1.8 81.4 4.6 M 99.6 4.5 C 101.0 7.2 97.6 2.5 99.6 4.5 M 103.2 4.6 C 104.2 5.2 96.5 3.9 102.0 4.0 C 102.6 3.7 102.9 4.3 103.2 4.6 M 78.0 3.3 C 78.6 4.5 75.1 2.9 78.0 3.3 M 88.9 6.8 C 89.8 6.1 92.1 5.6 91.0 6.8 C 90.9 8.4 87.8 7.4 88.9 6.8 M 62.1 5.2 C 63.2 3.2 62.2 6.8 62.1 5.2 M 69.0 4.5 C 69.0 4.4 69.0 4.4 69.0 4.5 C 69.0 4.5 69.0 4.5 69.0 4.5 Z M 71.7 3.9 C 71.8 4.1 71.8 4.1 71.7 3.9 M 62.9 3.5 C 63.1 3.6 63.1 3.6 62.9 3.5 M 88.9 4.9 C 89.1 5.1 89.1 5.1 88.9 4.9 M 83.4 3.6 C 86.0 5.4 81.9 3.9 83.4 3.6 M 76.9 7.2 C 77.8 8.0 75.3 7.3 76.9 7.2 M 87.8 3.0 C 89.7 4.7 85.1 4.5 87.8 3.0 M 82.0 3.4 C 82.2 3.4 82.2 3.4 82.0 3.4 C 82.0 3.4 82.0 3.4 82.0 3.4 Z M 89.6 7.0 C 89.5 7.1 89.5 7.1 89.6 7.0 C 89.6 7.0 89.6 7.0 89.6 7.0 Z M 90.4 7.0 C 90.3 7.0 90.3 7.0 90.4 7.0 C 90.4 7.0 90.4 7.0 90.4 7.0 Z M 90.2 2.9 C 90.1 2.9 90.1 2.9 90.2 2.9 C 90.2 2.9 90.2 2.9 90.2 2.9 Z M 66.3 8.7 C 68.1 8.6 64.9 9.2 66.3 8.7 C 66.3 8.7 66.3 8.7 66.3 8.7 Z M 74.0 2.9 C 77.3 4.0 71.9 4.3 74.0 2.9 C 74.0 2.9 74.0 2.9 74.0 2.9 Z M 77.7 4.9 C 77.7 5.0 77.7 5.0 77.7 4.9 C 77.7 4.9 77.7 4.9 77.7 4.9 Z M 86.6 1.9 C 86.6 2.0 86.6 2.0 86.6 1.9 C 86.6 1.9 86.6 1.9 86.6 1.9 Z M 67.2 8.8 C 67.2 8.9 67.2 8.9 67.2 8.8 C 67.2 8.8 67.2 8.8 67.2 8.8 Z M 95.5 4.2 C 95.5 4.3 95.5 4.3 95.5 4.2 C 95.5 4.2 95.5 4.2 95.5 4.2 Z M 84.5 7.1 C 85.2 6.5 84.7 7.7 84.5 7.1 C 84.5 7.1 84.5 7.1 84.5 7.1 Z M 87.3 7.2 C 87.4 7.2 87.4 7.2 87.3 7.2 C 87.3 7.2 87.3 7.2 87.3 7.2 Z M 100.1 3.1 C 100.2 3.1 100.2 3.1 100.1 3.1 C 100.1 3.1 100.1 3.1 100.1 3.1 Z M 94.2 9.3 C 94.3 9.3 94.3 9.3 94.2 9.3 C 94.2 9.3 94.2 9.3 94.2 9.3 Z M 96.7 7.5 C 96.7 7.5 96.7 7.5 96.7 7.5 C 96.7 7.5 96.7 7.5 96.7 7.5 Z M 89.6 3.3 C 92.5 3.1 88.9 4.0 89.6 3.3 C 89.6 3.3 89.6 3.3 89.6 3.3 Z M 103.6 7.8 C 103.6 7.9 103.6 7.9 103.6 7.8 C 103.6 7.8 103.6 7.8 103.6 7.8 Z M 105.4 5.7 C 105.4 5.8 105.4 5.8 105.4 5.7 C 105.4 5.7 105.4 5.7 105.4 5.7 Z M 106.3 4.6 C 106.3 4.7 106.3 4.7 106.3 4.6 C 106.3 4.6 106.3 4.6 106.3 4.6 Z M 71.8 6.5 C 71.8 6.4 71.8 6.4 71.8 6.5 C 71.8 6.5 71.8 6.5 71.8 6.5 Z M 70.4 2.7 C 70.3 2.7 70.3 2.7 70.4 2.7 C 70.4 2.7 70.4 2.7 70.4 2.7 Z M 74.2 2.3 C 74.2 2.2 74.2 2.2 74.2 2.3 C 74.2 2.3 74.2 2.3 74.2 2.3 Z M 71.3 8.8 C 71.3 8.8 71.3 8.8 71.3 8.8 C 71.3 8.8 71.3 8.8 71.3 8.8 Z M 85.3 5.1 C 85.3 5.0 85.3 5.0 85.3 5.1 C 85.3 5.1 85.3 5.1 85.3 5.1 Z M 86.6 6.7 C 86.6 6.6 86.6 6.6 86.6 6.7 C 86.6 6.7 86.6 6.7 86.6 6.7 Z M 83.4 8.7 C 83.3 8.6 83.3 8.6 83.4 8.7 C 83.4 8.7 83.4 8.7 83.4 8.7 Z M 87.6 8.0 C 87.6 8.0 87.6 8.0 87.6 8.0 C 87.6 8.0 87.6 8.0 87.6 8.0 Z M 62.0 9.3 C 62.0 9.3 62.0 9.3 62.0 9.3 C 62.0 9.3 62.0 9.3 62.0 9.3 Z M 61.3 6.4 C 61.2 6.5 61.2 6.5 61.3 6.4 C 61.3 6.4 61.3 6.4 61.3 6.4 Z M 85.8 3.0 C 86.5 2.4 87.1 3.8 85.8 3.0 M 80.3 3.3 C 80.3 3.4 80.3 3.4 80.3 3.3 C 80.3 3.3 80.3 3.3 80.3 3.3 Z M 95.1 3.6 C 95.7 4.8 92.6 2.8 95.1 3.6 C 95.1 3.6 95.1 3.6 95.1 3.6 Z M 91.9 8.2 C 91.9 8.3 91.9 8.3 91.9 8.2 C 91.9 8.2 91.9 8.2 91.9 8.2 Z M 93.3 7.9 C 93.4 8.0 93.4 8.0 93.3 7.9 C 93.3 7.9 93.3 7.9 93.3 7.9 Z M 101.4 5.5 C 101.5 5.7 101.5 5.7 101.4 5.5 M 79.6 2.3 C 80.4 2.8 80.2 2.7 79.6 2.3 M 96.9 3.8 C 96.9 3.8 96.9 3.8 96.9 3.8 C 96.9 3.8 96.9 3.8 96.9 3.8 Z M 103.2 5.1 C 103.1 5.2 103.1 5.2 103.2 5.1 C 103.2 5.1 103.2 5.1 103.2 5.1 Z M 75.7 3.2 C 75.9 4.7 75.1 4.4 75.7 3.2 M 64.8 4.7 C 64.8 4.8 64.8 4.8 64.8 4.7 C 64.8 4.7 64.8 4.7 64.8 4.7 Z M 111.9 5.7 C 109.3 3.5 108.9 5.7 108.9 5.8 C 109.7 2.9 106.1 6.5 106.5 7.1 C 106.4 7.5 107.6 13.0 110.2 10.4 C 110.8 10.1 110.9 11.0 111.3 11.2 C 114.7 11.8 109.3 9.0 113.5 10.0 C 114.1 10.6 112.7 12.8 115.5 11.8 C 115.6 12.0 118.1 13.6 117.4 12.2 C 118.4 13.7 119.6 12.6 120.9 12.7 C 121.8 13.7 119.4 14.1 123.8 14.1 C 124.8 16.6 126.6 13.4 127.3 16.1 C 128.3 16.5 131.0 13.5 128.1 14.7 C 128.5 14.6 127.6 12.4 130.5 14.1 C 129.9 14.4 126.9 17.2 132.3 17.5 C 133.1 17.8 135.2 17.7 135.5 18.3 C 132.9 17.6 138.1 21.2 138.0 20.0 C 141.4 22.4 140.0 19.8 142.1 22.3 C 144.2 23.4 142.2 20.4 144.4 22.7 C 146.5 23.6 144.7 23.7 144.5 23.5 C 146.1 24.6 147.1 24.4 147.7 24.7 C 148.0 25.1 148.4 26.2 149.3 25.6 C 151.9 25.2 151.1 22.8 152.8 21.8 C 151.8 20.3 151.6 22.6 151.3 20.9 C 150.0 21.5 151.2 20.7 147.3 18.9 C 147.3 19.2 147.8 20.3 146.9 19.9 C 145.5 19.0 147.8 17.0 144.4 17.6 C 147.1 19.6 139.9 16.4 142.4 18.3 C 138.9 16.9 141.5 17.6 139.3 15.8 C 138.7 17.6 140.0 13.8 138.4 14.8 C 138.5 14.0 134.4 12.6 136.8 14.9 C 132.5 13.6 135.5 13.7 134.4 12.2 C 132.5 11.3 133.1 15.1 132.8 12.4 C 130.7 10.4 132.3 13.4 131.1 11.0 C 131.3 12.9 129.3 10.3 129.3 12.2 C 125.0 10.8 130.5 10.6 127.1 10.7 C 128.0 11.1 128.4 8.7 126.0 9.6 C 125.9 12.5 124.3 6.3 124.5 10.4 C 118.2 9.5 124.0 8.5 120.6 7.6 C 119.7 7.3 121.2 9.0 120.4 8.8 C 116.2 7.1 120.1 7.1 117.3 8.3 C 112.9 7.7 116.5 6.4 114.3 5.8 C 114.0 6.6 111.9 7.7 111.9 5.7 M 115.6 7.5 C 116.6 7.1 116.0 8.2 115.6 7.5 M 107.0 4.7 C 108.0 4.3 107.4 5.5 107.0 4.7 M 119.3 7.9 C 120.7 7.6 119.4 8.9 119.3 7.9 M 141.5 17.1 C 140.0 16.4 142.4 17.0 141.5 17.1 M 110.5 5.3 C 112.0 4.9 110.7 6.4 110.5 5.3 M 108.7 6.4 C 108.7 6.5 108.7 6.5 108.7 6.4 M 144.3 16.8 C 144.4 16.8 144.4 16.8 144.3 16.8 M 138.4 14.0 C 139.7 14.6 137.6 14.0 138.4 14.0 M 135.7 19.6 C 136.9 20.2 134.8 19.7 135.7 19.6 M 147.5 18.3 C 148.9 18.5 147.5 19.1 147.5 18.3 M 150.0 21.2 C 151.4 21.4 150.4 22.2 150.0 21.2 M 114.3 9.4 C 114.3 9.5 114.3 9.5 114.3 9.4 C 114.3 9.4 114.3 9.4 114.3 9.4 Z M 125.0 14.1 C 123.9 13.1 126.3 15.3 125.0 14.1 M 124.2 9.5 C 124.7 11.0 122.5 8.9 124.2 9.5 C 124.2 9.5 124.2 9.5 124.2 9.5 Z M 122.1 9.5 C 122.0 9.5 122.0 9.5 122.1 9.5 C 122.1 9.5 122.1 9.5 122.1 9.5 Z M 128.4 11.6 C 128.3 11.6 128.3 11.6 128.4 11.6 C 128.4 11.6 128.4 11.6 128.4 11.6 Z M 127.0 11.2 C 126.4 11.3 126.4 10.8 127.0 11.2 C 127.0 11.2 127.0 11.2 127.0 11.2 Z M 134.5 18.4 C 133.9 18.4 133.9 17.9 134.5 18.4 C 134.5 18.4 134.5 18.4 134.5 18.4 Z M 124.9 11.0 C 124.3 12.2 124.3 9.9 124.9 11.0 C 124.9 11.0 124.9 11.0 124.9 11.0 Z M 130.5 16.2 C 131.2 16.1 131.2 17.8 130.5 16.2 M 145.4 17.6 C 146.1 17.5 146.0 19.2 145.4 17.6 M 132.6 11.5 C 133.3 11.4 133.3 13.0 132.6 11.5 M 116.5 7.1 C 116.6 7.3 116.6 7.3 116.5 7.1 M 122.4 14.5 C 123.4 14.3 122.6 15.2 122.4 14.5 M 110.1 10.9 C 111.1 10.6 110.4 11.5 110.1 10.9 M 141.0 22.0 C 141.1 21.6 142.2 22.7 141.0 22.0 M 133.4 14.0 C 134.5 14.6 135.4 15.7 133.0 14.6 C 133.0 14.3 133.8 14.4 133.4 14.0 C 133.4 14.0 133.4 14.0 133.4 14.0 Z M 136.3 18.3 C 136.4 18.5 136.4 18.5 136.3 18.3 M 135.9 13.7 C 136.0 13.9 136.0 13.9 135.9 13.7 M 142.4 16.8 C 142.5 17.0 142.5 17.0 142.4 16.8 M 143.4 16.8 C 143.3 16.9 143.3 16.9 143.4 16.8 C 143.4 16.8 143.4 16.8 143.4 16.8 Z M 150.7 20.1 C 150.6 20.1 150.6 20.1 150.7 20.1 C 150.7 20.1 150.7 20.1 150.7 20.1 Z M 140.3 15.9 C 140.2 16.0 140.2 16.0 140.3 15.9 C 140.3 15.9 140.3 15.9 140.3 15.9 Z M 143.9 23.1 C 143.9 23.2 143.9 23.2 143.9 23.1 C 143.9 23.1 143.9 23.1 143.9 23.1 Z M 143.5 22.1 C 143.5 22.1 143.5 22.1 143.5 22.1 C 143.5 22.1 143.5 22.1 143.5 22.1 Z M 112.6 5.8 C 113.8 5.2 112.7 8.1 112.6 5.8 M 146.5 23.7 C 147.0 24.9 144.9 23.0 146.5 23.7 C 146.5 23.7 146.5 23.7 146.5 23.7 Z M 139.0 16.6 C 139.0 16.7 139.0 16.7 139.0 16.6 M 143.7 17.2 C 143.8 17.4 143.8 17.4 143.7 17.2 M 124.5 8.4 C 124.5 8.6 124.5 8.6 124.5 8.4 M 148.6 20.0 C 151.4 21.8 146.4 20.8 148.6 20.0 M 122.7 9.1 C 122.6 9.0 122.6 9.0 122.7 9.1 M 129.0 13.7 C 131.1 14.4 128.0 14.1 129.0 13.7 M 134.9 14.3 C 134.8 14.3 134.8 14.3 134.9 14.3 C 134.9 14.3 134.9 14.3 134.9 14.3 Z M 131.8 13.0 C 130.2 12.6 131.6 12.6 131.8 13.0 C 131.8 13.0 131.8 13.0 131.8 13.0 Z M 113.8 7.3 C 115.9 8.0 111.6 7.2 113.8 7.3 C 113.8 7.3 113.8 7.3 113.8 7.3 Z M 145.8 21.8 C 145.7 21.9 145.7 21.9 145.8 21.8 C 145.8 21.8 145.8 21.8 145.8 21.8 Z M 140.2 15.0 C 139.2 14.8 140.0 14.4 140.2 15.0 C 140.2 15.0 140.2 15.0 140.2 15.0 Z M 151.7 20.7 C 150.7 20.5 151.5 20.1 151.7 20.7 C 151.7 20.7 151.7 20.7 151.7 20.7 Z M 111.4 6.6 C 118.6 10.3 101.3 3.9 111.4 6.6 C 111.4 6.6 111.4 6.6 111.4 6.6 Z M 133.4 12.7 C 133.3 12.8 133.3 12.8 133.4 12.7 C 133.4 12.7 133.4 12.7 133.4 12.7 Z M 119.9 7.3 C 119.9 7.3 119.9 7.3 119.9 7.3 C 119.9 7.3 119.9 7.3 119.9 7.3 Z M 117.3 7.8 C 117.2 7.8 117.2 7.8 117.3 7.8 C 117.3 7.8 117.3 7.8 117.3 7.8 Z M 116.7 12.8 C 116.6 12.8 116.6 12.8 116.7 12.8 C 116.7 12.8 116.7 12.8 116.7 12.8 Z M 118.0 10.8 C 117.9 10.9 117.9 10.9 118.0 10.8 C 118.0 10.8 118.0 10.8 118.0 10.8 Z M 113.0 10.4 C 113.0 10.5 113.0 10.5 113.0 10.4 C 113.0 10.4 113.0 10.4 113.0 10.4 Z M 113.0 11.1 C 113.0 11.1 113.0 11.1 113.0 11.1 C 113.0 11.1 113.0 11.1 113.0 11.1 Z M 143.1 18.4 C 143.0 18.5 143.0 18.5 143.1 18.4 C 143.1 18.4 143.1 18.4 143.1 18.4 Z M 139.8 19.1 C 141.7 19.2 138.9 19.9 139.8 19.1 C 139.8 19.1 139.8 19.1 139.8 19.1 Z M 125.5 12.3 C 127.2 12.6 124.3 12.6 125.5 12.3 C 125.5 12.3 125.5 12.3 125.5 12.3 Z M 126.3 15.4 C 126.3 15.5 126.3 15.5 126.3 15.4 C 126.3 15.4 126.3 15.4 126.3 15.4 Z M 117.6 6.6 C 117.5 6.7 117.5 6.7 117.6 6.6 C 117.6 6.6 117.6 6.6 117.6 6.6 Z M 114.4 6.7 C 114.0 7.7 113.6 6.0 114.4 6.7 M 129.4 10.5 C 129.4 10.6 129.4 10.6 129.4 10.5 C 129.4 10.5 129.4 10.5 129.4 10.5 Z M 137.9 15.7 C 137.8 15.7 137.8 15.7 137.9 15.7 C 137.9 15.7 137.9 15.7 137.9 15.7 Z M 146.9 19.3 C 146.8 19.4 146.8 19.4 146.9 19.3 C 146.9 19.3 146.9 19.3 146.9 19.3 Z M 135.1 12.8 C 135.0 12.9 135.0 12.9 135.1 12.8 C 135.1 12.8 135.1 12.8 135.1 12.8 Z M 130.4 12.0 C 130.3 12.2 130.3 12.2 130.4 12.0 C 130.4 12.0 130.4 12.0 130.4 12.0 Z M 148.1 21.6 C 148.0 21.6 148.0 21.6 148.1 21.6 C 148.1 21.6 148.1 21.6 148.1 21.6 Z M 136.2 13.1 C 136.1 13.1 136.1 13.1 136.2 13.1 C 136.2 13.1 136.2 13.1 136.2 13.1 Z M 137.4 17.3 C 137.3 17.3 137.3 17.3 137.4 17.3 C 137.4 17.3 137.4 17.3 137.4 17.3 Z M 115.1 5.3 C 115.1 5.4 115.1 5.4 115.1 5.3 C 115.1 5.3 115.1 5.3 115.1 5.3 Z M 148.9 20.4 C 148.8 20.5 148.8 20.5 148.9 20.4 C 148.9 20.4 148.9 20.4 148.9 20.4 Z M 149.8 19.9 C 149.8 19.9 149.8 19.9 149.8 19.9 C 149.8 19.9 149.8 19.9 149.8 19.9 Z M 141.5 21.2 C 138.8 19.2 144.3 22.3 142.6 20.2 C 147.0 22.1 142.1 21.5 141.5 21.2 C 141.5 21.2 141.5 21.2 141.5 21.2 Z M 141.5 21.2 " fill="#FEFFFE"></path></g></svg>