<?xml version="1.0" encoding="UTF-8" standalone="no"?><svg xmlns="http://www.w3.org/2000/svg" xmlns:xlink="http://www.w3.org/1999/xlink" clip-rule="evenodd" stroke-miterlimit="4.00" viewBox="0 0 109 115"><desc>SVG generated by Keynote</desc><defs></defs><g transform="matrix(1.00, 0.00, -0.00, -1.00, 0.0, 115.0)"><g><clipPath id="clip-483"><path d="M 14.3 0.2 L 101.1 0.2 L 101.1 114.6 L 14.3 114.6 Z M 14.3 0.2 "></path></clipPath><g clip-path="url(#clip-483)"><image xlink:href="../../DE3B4409-7999-4EDC-ACF1-3F223E844B25/assets/A14A10A9BF752EBB344FC720146687D3.png" width="85.00" height="112.00" transform="matrix(1.00, 0.00, -0.00, -1.00, 15.3, 113.6)" opacity="0.50"></image><path d="M 82.2 108.3 L 94.7 93.0 L 94.5 13.0 C 95.6 11.2 95.3 9.0 93.8 7.5 C 92.6 6.4 91.0 5.9 89.4 6.4 L 27.4 6.4 C 26.0 6.9 24.7 7.8 23.6 8.8 C 22.5 9.9 21.7 11.2 21.1 12.7 C 20.7 14.0 20.5 15.3 20.4 17.0 C 20.3 18.6 20.3 20.4 20.3 23.0 L 21.1 102.3 C 21.0 103.9 21.6 105.5 22.7 106.7 C 23.9 108.0 25.6 108.7 27.4 108.6 L 82.2 108.3 Z M 82.2 108.3 " fill="#EAEAEA"></path></g></g><g><clipPath id="clip-484"><path d="M 0.1 3.1 L 108.8 3.1 L 108.8 111.8 L 0.1 111.8 Z M 0.1 3.1 "></path></clipPath><g clip-path="url(#clip-484)"><image xlink:href="../../DE3B4409-7999-4EDC-ACF1-3F223E844B25/assets/30BDB59357BC950F00B729E4DA28C73E.png" width="109.00" height="109.00" transform="matrix(1.00, 0.00, -0.00, -1.00, 0.0, 112.0)"></image></g></g><g><clipPath id="clip-485"><path d="M 31.2 21.3 L 84.2 21.3 L 84.2 66.0 L 31.2 66.0 Z M 31.2 21.3 "></path></clipPath><g clip-path="url(#clip-485)"><image xlink:href="../../86BB661C-AAFE-46F2-89B5-B98D6D644DD8/assets/610DE41026624E3AEF638D24E71EF355.png" width="74.00" height="62.00" transform="matrix(0.72, 0.00, -0.00, -0.73, 31.0, 66.0)"></image></g></g></g></svg>