<?xml version="1.0" encoding="UTF-8" standalone="no"?><svg xmlns="http://www.w3.org/2000/svg" xmlns:xlink="http://www.w3.org/1999/xlink" clip-rule="evenodd" stroke-miterlimit="4.00" viewBox="0 0 681 264"><desc>SVG generated by Keynote</desc><defs></defs><g transform="matrix(1.00, 0.00, -0.00, -1.00, 0.0, 264.0)"><path d="M 23.1 236.8 L 657.1 236.8 L 657.1 25.2 L 23.1 25.2 Z M 23.1 236.8 " fill="#FEFFFE"></path><image xlink:href="../../70B384DE-A09B-420D-91B0-521CA36A27A5/assets/5E265983C7F71D06F55D13D99CA3D65E.png" width="678.00" height="262.00" transform="matrix(1.00, 0.00, -0.00, 1.00, 1.1, 1.2)"></image><g><clipPath id="clip-601"><path d="M 20.6 26.2 L 659.6 26.2 L 659.6 235.8 L 20.6 235.8 Z M 20.6 26.2 "></path></clipPath><g clip-path="url(#clip-601)"><text xml:space="preserve" font-family="Courier" font-size="30.0" fill="#000000" transform="matrix(1.00, 0.00, -0.00, -1.00, 58.0, 174.0)">f</text><text xml:space="preserve" font-family="Courier" font-size="30.0" fill="#000000" transform="matrix(1.00, 0.00, -0.00, -1.00, 76.0, 174.0)">r</text><text xml:space="preserve" font-family="Courier" font-size="30.0" fill="#000000" transform="matrix(1.00, 0.00, -0.00, -1.00, 94.0, 174.0)">u</text><text xml:space="preserve" font-family="Courier" font-size="30.0" fill="#000000" transform="matrix(1.00, 0.00, -0.00, -1.00, 112.0, 174.0)">i</text><text xml:space="preserve" font-family="Courier" font-size="30.0" fill="#000000" transform="matrix(1.00, 0.00, -0.00, -1.00, 130.0, 174.0)">t</text><text xml:space="preserve" font-family="Courier" font-size="30.0" fill="#000000" transform="matrix(1.00, 0.00, -0.00, -1.00, 148.0, 174.0)">s</text><text xml:space="preserve" font-family="Courier" font-size="30.0" fill="#000000" transform="matrix(1.00, 0.00, -0.00, -1.00, 166.0, 174.0)"> </text><text xml:space="preserve" font-family="Courier" font-size="30.0" fill="#797979" transform="matrix(1.00, 0.00, -0.00, -1.00, 184.0, 174.0)">=</text><text xml:space="preserve" font-family="Courier" font-size="30.0" fill="#000000" transform="matrix(1.00, 0.00, -0.00, -1.00, 202.0, 174.0)"> </text><text xml:space="preserve" font-family="Courier" font-size="30.0" fill="#000000" transform="matrix(1.00, 0.00, -0.00, -1.00, 220.0, 174.0)">[</text><text xml:space="preserve" font-family="Courier" font-size="30.0" fill="#C8352B" transform="matrix(1.00, 0.00, -0.00, -1.00, 238.0, 174.0)">'</text><text xml:space="preserve" font-family="Courier" font-size="30.0" fill="#C8352B" transform="matrix(1.00, 0.00, -0.00, -1.00, 256.0, 174.0)">A</text><text xml:space="preserve" font-family="Courier" font-size="30.0" fill="#C8352B" transform="matrix(1.00, 0.00, -0.00, -1.00, 274.0, 174.0)">p</text><text xml:space="preserve" font-family="Courier" font-size="30.0" fill="#C8352B" transform="matrix(1.00, 0.00, -0.00, -1.00, 292.0, 174.0)">p</text><text xml:space="preserve" font-family="Courier" font-size="30.0" fill="#C8352B" transform="matrix(1.00, 0.00, -0.00, -1.00, 310.1, 174.0)">l</text><text xml:space="preserve" font-family="Courier" font-size="30.0" fill="#C8352B" transform="matrix(1.00, 0.00, -0.00, -1.00, 328.1, 174.0)">e</text><text xml:space="preserve" font-family="Courier" font-size="30.0" fill="#C8352B" transform="matrix(1.00, 0.00, -0.00, -1.00, 346.1, 174.0)">'</text><text xml:space="preserve" font-family="Courier" font-size="30.0" fill="#000000" transform="matrix(1.00, 0.00, -0.00, -1.00, 364.0, 174.0)">,</text><text xml:space="preserve" font-family="Courier" font-size="30.0" fill="#000000" transform="matrix(1.00, 0.00, -0.00, -1.00, 382.1, 174.0)"> </text><text xml:space="preserve" font-family="Courier" font-size="30.0" fill="#C8352B" transform="matrix(1.00, 0.00, -0.00, -1.00, 400.1, 174.0)">'</text><text xml:space="preserve" font-family="Courier" font-size="30.0" fill="#C8352B" transform="matrix(1.00, 0.00, -0.00, -1.00, 418.1, 174.0)">O</text><text xml:space="preserve" font-family="Courier" font-size="30.0" fill="#C8352B" transform="matrix(1.00, 0.00, -0.00, -1.00, 436.1, 174.0)">r</text><text xml:space="preserve" font-family="Courier" font-size="30.0" fill="#C8352B" transform="matrix(1.00, 0.00, -0.00, -1.00, 454.1, 174.0)">a</text><text xml:space="preserve" font-family="Courier" font-size="30.0" fill="#C8352B" transform="matrix(1.00, 0.00, -0.00, -1.00, 472.1, 174.0)">n</text><text xml:space="preserve" font-family="Courier" font-size="30.0" fill="#C8352B" transform="matrix(1.00, 0.00, -0.00, -1.00, 490.1, 174.0)">g</text><text xml:space="preserve" font-family="Courier" font-size="30.0" fill="#C8352B" transform="matrix(1.00, 0.00, -0.00, -1.00, 508.1, 174.0)">e</text><text xml:space="preserve" font-family="Courier" font-size="30.0" fill="#C8352B" transform="matrix(1.00, 0.00, -0.00, -1.00, 526.1, 174.0)">'</text><text xml:space="preserve" font-family="Courier" font-size="30.0" fill="#000000" transform="matrix(1.00, 0.00, -0.00, -1.00, 544.1, 174.0)">]</text><text xml:space="preserve" font-family="Courier-Bold" font-weight="bold" font-size="30.0" fill="#008E00" transform="matrix(1.00, 0.00, -0.00, -1.00, 58.0, 102.0)">f</text><text xml:space="preserve" font-family="Courier-Bold" font-weight="bold" font-size="30.0" fill="#008E00" transform="matrix(1.00, 0.00, -0.00, -1.00, 76.0, 102.0)">o</text><text xml:space="preserve" font-family="Courier-Bold" font-weight="bold" font-size="30.0" fill="#008E00" transform="matrix(1.00, 0.00, -0.00, -1.00, 94.0, 102.0)">r</text><text xml:space="preserve" font-family="Courier" font-size="30.0" fill="#000000" transform="matrix(1.00, 0.00, -0.00, -1.00, 112.0, 102.0)"> </text><text xml:space="preserve" font-family="Courier" font-size="30.0" fill="#000000" transform="matrix(1.00, 0.00, -0.00, -1.00, 130.0, 102.0)">f</text><text xml:space="preserve" font-family="Courier" font-size="30.0" fill="#000000" transform="matrix(1.00, 0.00, -0.00, -1.00, 148.0, 102.0)">r</text><text xml:space="preserve" font-family="Courier" font-size="30.0" fill="#000000" transform="matrix(1.00, 0.00, -0.00, -1.00, 166.0, 102.0)">u</text><text xml:space="preserve" font-family="Courier" font-size="30.0" fill="#000000" transform="matrix(1.00, 0.00, -0.00, -1.00, 184.0, 102.0)">i</text><text xml:space="preserve" font-family="Courier" font-size="30.0" fill="#000000" transform="matrix(1.00, 0.00, -0.00, -1.00, 202.0, 102.0)">t</text><text xml:space="preserve" font-family="Courier" font-size="30.0" fill="#000000" transform="matrix(1.00, 0.00, -0.00, -1.00, 220.0, 102.0)"> </text><text xml:space="preserve" font-family="Courier-Bold" font-weight="bold" font-size="30.0" fill="#BA49FF" transform="matrix(1.00, 0.00, -0.00, -1.00, 238.0, 102.0)">i</text><text xml:space="preserve" font-family="Courier-Bold" font-weight="bold" font-size="30.0" fill="#BA49FF" transform="matrix(1.00, 0.00, -0.00, -1.00, 256.0, 102.0)">n</text><text xml:space="preserve" font-family="Courier" font-size="30.0" fill="#000000" transform="matrix(1.00, 0.00, -0.00, -1.00, 274.0, 102.0)"> </text><text xml:space="preserve" font-family="Courier" font-size="30.0" fill="#000000" transform="matrix(1.00, 0.00, -0.00, -1.00, 292.0, 102.0)">f</text><text xml:space="preserve" font-family="Courier" font-size="30.0" fill="#000000" transform="matrix(1.00, 0.00, -0.00, -1.00, 310.0, 102.0)">r</text><text xml:space="preserve" font-family="Courier" font-size="30.0" fill="#000000" transform="matrix(1.00, 0.00, -0.00, -1.00, 328.1, 102.0)">u</text><text xml:space="preserve" font-family="Courier" font-size="30.0" fill="#000000" transform="matrix(1.00, 0.00, -0.00, -1.00, 346.1, 102.0)">i</text><text xml:space="preserve" font-family="Courier" font-size="30.0" fill="#000000" transform="matrix(1.00, 0.00, -0.00, -1.00, 364.1, 102.0)">t</text><text xml:space="preserve" font-family="Courier" font-size="30.0" fill="#000000" transform="matrix(1.00, 0.00, -0.00, -1.00, 382.1, 102.0)">s</text><text xml:space="preserve" font-family="Courier" font-size="30.0" fill="#000000" transform="matrix(1.00, 0.00, -0.00, -1.00, 400.1, 102.0)">:</text><text xml:space="preserve" font-family="Courier" font-size="30.0" fill="#000000" transform="matrix(1.00, 0.00, -0.00, -1.00, 58.0, 66.0)"> </text><text xml:space="preserve" font-family="Courier" font-size="30.0" fill="#000000" transform="matrix(1.00, 0.00, -0.00, -1.00, 76.0, 66.0)"> </text><text xml:space="preserve" font-family="Courier" font-size="30.0" fill="#000000" transform="matrix(1.00, 0.00, -0.00, -1.00, 94.0, 66.0)"> </text><text xml:space="preserve" font-family="Courier" font-size="30.0" fill="#000000" transform="matrix(1.00, 0.00, -0.00, -1.00, 112.0, 66.0)"> </text><text xml:space="preserve" font-family="Courier-Bold" font-weight="bold" font-size="30.0" fill="#008E00" transform="matrix(1.00, 0.00, -0.00, -1.00, 130.0, 66.0)">p</text><text xml:space="preserve" font-family="Courier-Bold" font-weight="bold" font-size="30.0" fill="#008E00" transform="matrix(1.00, 0.00, -0.00, -1.00, 148.0, 66.0)">r</text><text xml:space="preserve" font-family="Courier-Bold" font-weight="bold" font-size="30.0" fill="#008E00" transform="matrix(1.00, 0.00, -0.00, -1.00, 166.0, 66.0)">i</text><text xml:space="preserve" font-family="Courier-Bold" font-weight="bold" font-size="30.0" fill="#008E00" transform="matrix(1.00, 0.00, -0.00, -1.00, 184.0, 66.0)">n</text><text xml:space="preserve" font-family="Courier-Bold" font-weight="bold" font-size="30.0" fill="#008E00" transform="matrix(1.00, 0.00, -0.00, -1.00, 202.0, 66.0)">t</text><text xml:space="preserve" font-family="Courier" font-size="30.0" fill="#000000" transform="matrix(1.00, 0.00, -0.00, -1.00, 220.0, 66.0)">(</text><text xml:space="preserve" font-family="Courier" font-size="30.0" fill="#000000" transform="matrix(1.00, 0.00, -0.00, -1.00, 238.0, 66.0)">f</text><text xml:space="preserve" font-family="Courier" font-size="30.0" fill="#000000" transform="matrix(1.00, 0.00, -0.00, -1.00, 256.0, 66.0)">r</text><text xml:space="preserve" font-family="Courier" font-size="30.0" fill="#000000" transform="matrix(1.00, 0.00, -0.00, -1.00, 274.0, 66.0)">u</text><text xml:space="preserve" font-family="Courier" font-size="30.0" fill="#000000" transform="matrix(1.00, 0.00, -0.00, -1.00, 292.1, 66.0)">i</text><text xml:space="preserve" font-family="Courier" font-size="30.0" fill="#000000" transform="matrix(1.00, 0.00, -0.00, -1.00, 310.1, 66.0)">t</text><text xml:space="preserve" font-family="Courier" font-size="30.0" fill="#000000" transform="matrix(1.00, 0.00, -0.00, -1.00, 328.1, 66.0)">)</text></g></g></g></svg>