<?xml version="1.0" encoding="UTF-8" standalone="no"?><svg xmlns="http://www.w3.org/2000/svg" xmlns:xlink="http://www.w3.org/1999/xlink" clip-rule="evenodd" stroke-miterlimit="4.00" viewBox="0 0 189 197"><desc>SVG generated by Keynote</desc><defs></defs><g transform="matrix(1.00, 0.00, -0.00, -1.00, 0.0, 197.0)"><g><clipPath id="clip-604"><path d="M 181.4 196.1 L 75.5 38.7 L 83.0 33.7 L 188.8 191.0 Z M 181.4 196.1 "></path></clipPath><g clip-path="url(#clip-604)"><path d="M 177.2 178.7 C 177.2 179.1 178.0 179.7 177.9 180.0 M 177.2 178.7 C 178.8 178.7 179.7 179.9 181.0 181.5 C 182.3 183.3 180.0 182.1 179.7 182.6 C 180.9 185.3 181.7 184.8 182.6 183.7 C 182.4 185.1 185.7 187.0 183.9 187.4 C 181.2 183.5 185.3 190.3 182.3 187.6 C 181.9 187.4 182.1 188.6 182.4 189.0 C 181.0 188.3 181.6 190.6 180.0 189.2 C 178.9 189.6 179.5 189.6 178.1 189.0 C 177.7 188.6 178.1 188.5 178.4 188.5 C 179.3 187.6 176.9 187.5 176.9 186.2 C 175.0 186.3 176.0 184.3 177.1 184.7 C 176.4 184.0 174.3 184.0 174.7 182.4 C 173.7 182.4 172.7 179.9 174.5 180.7 C 175.7 181.2 175.4 179.9 175.6 179.5 C 176.1 179.7 176.6 181.3 177.0 181.3 C 176.9 180.8 176.3 178.7 177.5 180.6 C 177.5 179.7 178.4 180.4 177.2 178.7 C 177.2 178.7 177.2 178.7 177.2 178.7 Z M 182.4 184.8 C 182.8 184.5 182.0 184.2 182.4 184.8 C 182.4 184.8 182.4 184.8 182.4 184.8 Z M 174.5 183.6 C 174.9 183.4 174.1 183.0 174.5 183.6 C 174.5 183.6 174.5 183.6 174.5 183.6 Z M 178.1 188.2 C 178.5 187.9 177.7 187.5 178.1 188.2 C 178.1 188.2 178.1 188.2 178.1 188.2 Z M 181.1 183.2 C 180.0 182.4 181.1 184.4 181.6 184.4 C 181.4 184.2 181.5 183.3 181.1 183.2 C 181.1 183.2 181.1 183.2 181.1 183.2 Z M 178.8 184.5 C 178.9 184.4 178.7 183.9 178.3 184.2 C 178.4 184.5 178.7 184.7 178.8 184.5 C 178.8 184.5 178.8 184.5 178.8 184.5 Z M 183.8 188.6 C 183.9 188.5 183.6 188.0 183.3 188.3 C 183.4 188.6 183.7 188.8 183.8 188.6 C 183.8 188.6 183.8 188.6 183.8 188.6 Z M 179.3 182.7 C 179.0 182.5 178.6 182.6 178.8 183.0 C 179.1 183.0 179.6 183.7 179.3 182.7 C 179.3 182.7 179.3 182.7 179.3 182.7 Z M 179.4 180.3 C 178.7 179.5 179.3 181.6 179.4 181.5 C 179.9 181.6 180.0 180.5 179.4 180.3 C 179.4 180.3 179.4 180.3 179.4 180.3 Z M 178.4 182.5 C 177.8 182.0 178.4 183.0 178.4 182.5 C 178.4 182.5 178.4 182.5 178.4 182.5 Z M 180.6 189.8 C 179.9 189.2 180.5 190.2 180.6 189.8 C 180.6 189.8 180.6 189.8 180.6 189.8 Z M 176.9 186.7 C 176.2 186.2 176.8 187.2 176.9 186.7 C 176.9 186.7 176.9 186.7 176.9 186.7 Z M 181.6 185.6 C 182.5 186.9 182.7 185.2 181.6 185.6 C 181.6 185.6 181.6 185.6 181.6 185.6 Z M 178.2 178.2 C 179.0 179.4 179.2 177.7 178.2 178.2 C 178.2 178.2 178.2 178.2 178.2 178.2 Z M 84.9 40.2 C 84.3 38.9 88.5 42.6 86.0 41.9 C 84.4 42.2 86.6 45.1 87.2 43.6 C 87.9 44.4 88.0 44.4 87.7 45.3 C 88.7 44.8 90.6 46.6 90.6 47.7 C 90.2 48.6 89.6 46.3 89.6 48.1 C 91.1 50.9 88.6 48.5 88.3 50.1 C 88.4 50.2 88.9 49.9 88.8 50.4 C 87.9 51.1 86.3 50.0 86.1 51.1 C 85.9 50.7 83.6 49.4 85.0 49.7 C 86.0 49.4 82.5 48.3 84.1 47.5 C 83.0 47.3 83.5 46.1 82.3 46.0 C 81.8 45.6 82.5 45.1 82.8 45.1 C 83.5 44.7 80.9 45.5 81.6 44.0 C 81.2 44.2 79.9 41.9 81.5 43.2 C 81.1 42.8 79.1 40.6 81.3 41.0 C 83.0 42.3 81.4 38.4 82.8 40.3 C 84.0 41.7 83.9 42.2 83.8 40.6 C 83.5 40.3 82.5 38.5 84.0 39.6 C 84.1 40.0 84.7 40.7 84.9 40.2 C 84.9 40.2 84.9 40.2 84.9 40.2 Z M 82.8 41.2 C 83.3 42.1 83.3 40.9 82.8 41.2 C 82.8 41.2 82.8 41.2 82.8 41.2 Z M 82.1 46.3 C 82.6 47.3 82.6 46.1 82.1 46.3 C 82.1 46.3 82.1 46.3 82.1 46.3 Z M 87.1 42.8 C 87.0 43.5 88.4 42.7 87.1 42.8 C 87.1 42.8 87.1 42.8 87.1 42.8 Z M 82.1 44.1 C 82.2 44.2 82.2 43.9 82.2 43.7 C 82.1 43.7 82.1 44.1 82.1 44.1 C 82.1 44.1 82.1 44.1 82.1 44.1 Z M 88.1 44.3 C 88.3 46.0 89.3 43.8 88.1 44.3 C 88.1 44.3 88.1 44.3 88.1 44.3 Z M 88.6 47.8 C 87.4 48.8 89.8 49.0 88.6 47.8 C 88.6 47.8 88.6 47.8 88.6 47.8 Z M 84.5 47.9 C 84.6 47.5 84.1 47.8 84.5 47.9 C 84.5 47.9 84.5 47.9 84.5 47.9 Z M 80.4 42.3 C 80.5 41.9 80.1 42.2 80.4 42.3 C 80.4 42.3 80.4 42.3 80.4 42.3 Z M 85.7 49.5 C 86.1 49.0 85.1 49.1 85.7 49.5 C 85.7 49.5 85.7 49.5 85.7 49.5 Z M 86.7 43.4 C 87.0 41.5 84.2 43.0 86.7 43.4 C 86.7 43.4 86.7 43.4 86.7 43.4 Z M 85.4 41.1 C 85.0 40.2 84.8 41.7 85.2 42.0 C 85.3 41.9 85.4 41.3 85.4 41.1 C 85.4 41.1 85.4 41.1 85.4 41.1 Z M 87.5 44.7 C 87.4 43.6 86.7 44.2 87.5 44.7 C 87.5 44.7 87.5 44.7 87.5 44.7 Z M 86.6 42.2 C 86.2 41.9 86.7 42.7 86.6 42.2 C 86.6 42.2 86.6 42.2 86.6 42.2 Z M 89.7 45.6 C 89.3 45.3 89.8 46.1 89.7 45.6 C 89.7 45.6 89.7 45.6 89.7 45.6 Z M 85.2 39.8 C 84.8 39.4 85.3 40.2 85.2 39.8 C 85.2 39.8 85.2 39.8 85.2 39.8 Z M 88.7 45.8 C 88.3 46.2 86.5 45.7 88.8 47.2 C 89.4 47.4 89.5 46.0 88.7 45.8 C 88.7 45.8 88.7 45.8 88.7 45.8 Z M 175.2 175.7 C 179.6 179.2 176.3 179.9 176.0 180.4 C 175.7 181.5 174.8 181.2 173.7 180.6 C 171.5 180.8 174.5 178.1 172.4 178.5 C 169.4 178.8 173.4 175.9 170.7 176.9 C 170.3 177.5 169.6 175.5 169.9 175.5 C 168.2 175.4 169.3 172.9 169.5 172.7 C 168.8 172.3 166.7 173.7 167.0 170.8 C 166.7 169.1 164.2 169.9 165.9 169.3 C 163.6 169.3 165.9 168.3 164.7 167.6 C 163.3 167.5 166.0 166.7 163.5 166.5 C 164.4 165.1 163.0 167.7 161.6 163.7 C 162.8 165.2 161.6 161.4 161.2 162.6 C 161.0 164.4 160.4 160.8 158.8 159.6 C 159.0 158.8 159.0 156.2 157.9 157.4 C 155.3 156.8 157.7 155.1 156.0 155.3 C 155.1 155.1 156.1 154.1 155.8 153.8 C 154.4 153.9 154.7 152.9 153.1 151.1 C 149.7 147.1 155.1 148.9 154.3 147.0 C 154.6 146.4 159.3 146.7 156.3 147.3 C 157.2 147.2 157.1 152.4 158.5 148.9 C 158.4 151.0 159.4 147.9 160.0 151.5 C 155.7 148.9 162.1 156.2 160.6 152.0 C 161.5 152.3 162.4 153.8 161.3 153.0 C 159.3 153.7 163.7 155.1 160.7 155.0 C 162.8 156.9 160.6 157.5 162.3 157.3 C 164.8 156.4 161.7 157.6 163.1 158.3 C 164.9 161.0 166.0 157.2 165.5 160.0 C 168.3 161.9 164.9 161.2 165.3 162.3 C 164.0 163.6 168.2 164.2 167.1 162.1 C 167.0 163.7 167.9 161.8 167.8 163.6 C 165.8 163.7 170.3 164.2 169.0 164.6 C 169.3 165.9 168.1 165.9 168.3 166.3 C 169.4 167.9 170.4 166.5 169.6 167.5 C 169.3 168.3 171.6 167.8 171.3 168.3 C 170.1 166.7 170.8 170.7 171.7 170.4 C 171.1 169.3 173.8 169.7 173.2 171.1 C 169.6 172.3 174.9 172.0 174.4 173.4 C 172.2 173.8 176.6 177.2 176.3 175.1 C 176.2 175.2 175.1 175.7 175.2 175.7 M 171.4 169.0 C 170.3 167.7 172.1 170.7 171.4 169.0 M 171.9 168.7 C 170.9 168.5 173.2 169.8 172.0 168.5 C 172.0 168.5 172.0 168.8 171.9 168.7 M 168.1 163.0 C 167.8 163.5 168.9 163.6 168.1 163.0 M 166.4 162.6 C 165.3 162.0 167.1 163.9 166.4 162.6 M 158.3 149.9 C 156.6 152.8 160.6 150.3 158.3 149.9 M 164.4 157.8 C 165.0 159.6 165.0 156.6 164.4 157.8 M 164.0 158.7 C 164.1 159.7 164.7 158.5 164.0 158.7 M 159.9 152.3 C 159.8 152.2 159.8 152.2 159.9 152.3 C 159.9 152.3 159.9 152.3 159.9 152.3 Z M 157.3 148.6 C 157.3 148.6 157.3 148.6 157.3 148.6 C 157.3 148.6 157.3 148.6 157.3 148.6 Z M 162.0 156.1 C 163.4 156.8 161.0 154.0 162.0 156.1 C 162.0 156.1 162.0 156.1 162.0 156.1 Z M 154.7 152.9 C 154.7 153.0 154.7 153.0 154.7 152.9 C 154.7 152.9 154.7 152.9 154.7 152.9 Z M 171.0 170.8 C 171.0 170.9 171.0 170.9 171.0 170.8 C 171.0 170.8 171.0 170.8 171.0 170.8 Z M 174.8 174.4 C 174.4 174.6 175.6 175.0 174.8 174.4 C 174.8 174.4 174.8 174.4 174.8 174.4 Z M 174.2 179.7 C 174.2 179.8 174.2 179.8 174.2 179.7 C 174.2 179.7 174.2 179.7 174.2 179.7 Z M 170.6 173.1 C 170.6 173.2 170.6 173.2 170.6 173.1 C 170.6 173.1 170.6 173.1 170.6 173.1 Z M 172.1 171.3 C 173.9 171.0 170.6 169.9 172.1 171.3 C 172.1 171.3 172.1 171.3 172.1 171.3 Z M 159.6 159.8 C 160.1 159.3 158.7 158.9 159.6 159.8 C 159.6 159.8 159.6 159.8 159.6 159.8 Z M 165.7 162.8 C 165.9 162.5 165.2 162.3 165.7 162.8 C 165.7 162.8 165.7 162.8 165.7 162.8 Z M 169.1 163.9 C 169.3 163.5 168.6 163.4 169.1 163.9 C 169.1 163.9 169.1 163.9 169.1 163.9 Z M 175.1 174.1 C 175.1 173.9 175.1 173.9 175.1 174.1 C 175.1 174.1 175.1 174.1 175.1 174.1 Z M 173.1 173.3 C 175.0 173.5 171.3 172.1 173.1 173.3 C 173.1 173.3 173.1 173.3 173.1 173.3 Z M 173.9 175.3 C 173.0 175.1 175.0 176.5 173.9 175.3 M 171.2 175.6 C 170.9 174.0 169.7 178.3 171.2 175.6 C 171.2 175.6 171.2 175.6 171.2 175.6 Z M 166.3 169.4 C 166.2 169.4 166.2 169.4 166.3 169.4 C 166.3 169.4 166.3 169.4 166.3 169.4 Z M 170.6 167.6 C 169.7 166.5 170.7 168.5 170.6 167.6 C 170.6 167.6 170.6 167.6 170.6 167.6 Z M 177.4 177.2 C 176.6 176.1 177.6 178.2 177.4 177.2 C 177.4 177.2 177.4 177.2 177.4 177.2 Z M 165.1 164.8 C 164.0 162.8 165.1 166.4 165.1 164.8 C 165.1 164.8 165.1 164.8 165.1 164.8 Z M 162.0 157.0 C 161.9 157.0 161.9 157.0 162.0 157.0 C 162.0 157.0 162.0 157.0 162.0 157.0 Z M 161.7 155.4 C 161.6 155.4 161.6 155.4 161.7 155.4 C 161.7 155.4 161.7 155.4 161.7 155.4 Z M 156.8 151.0 C 156.7 151.0 156.7 151.0 156.8 151.0 C 156.8 151.0 156.8 151.0 156.8 151.0 Z M 161.5 153.9 C 161.4 153.8 161.4 153.8 161.5 153.9 C 161.5 153.9 161.5 153.9 161.5 153.9 Z M 158.7 150.4 C 158.6 150.4 158.6 150.4 158.7 150.4 C 158.7 150.4 158.7 150.4 158.7 150.4 Z M 160.2 150.2 C 160.1 150.2 160.1 150.2 160.2 150.2 C 160.2 150.2 160.2 150.2 160.2 150.2 Z M 160.0 162.1 C 159.9 162.0 159.9 162.0 160.0 162.1 C 160.0 162.1 160.0 162.1 160.0 162.1 Z M 174.2 171.8 C 174.0 171.8 174.0 171.8 174.2 171.8 C 174.2 171.8 174.2 171.8 174.2 171.8 Z M 158.4 151.1 C 158.4 151.0 158.4 151.0 158.4 151.1 C 158.4 151.1 158.4 151.1 158.4 151.1 Z M 163.4 160.6 C 162.3 161.3 165.3 160.4 163.3 160.4 C 163.3 160.5 163.6 160.6 163.4 160.6 M 160.8 160.7 C 160.8 160.7 160.8 160.7 160.8 160.7 C 160.8 160.7 160.8 160.7 160.8 160.7 Z M 162.8 165.2 C 162.8 165.2 162.8 165.2 162.8 165.2 C 162.8 165.2 162.8 165.2 162.8 165.2 Z M 162.1 154.4 C 162.9 154.1 161.0 153.7 162.2 154.5 M 154.9 152.3 C 155.6 152.0 153.7 151.6 154.9 152.5 M 177.9 178.8 C 177.5 179.3 178.7 179.4 177.9 178.8 M 162.8 166.4 C 162.5 166.9 163.6 167.0 162.8 166.4 M 163.0 163.6 C 163.7 163.4 161.8 162.9 163.0 163.8 M 156.8 155.0 C 156.7 155.0 156.7 155.0 156.8 155.0 C 156.8 155.0 156.8 155.0 156.8 155.0 Z M 169.3 166.0 C 169.2 165.9 169.2 165.9 169.3 166.0 C 169.3 166.0 169.3 166.0 169.3 166.0 Z M 164.7 161.9 C 166.0 162.0 163.5 161.4 164.7 161.9 M 168.8 168.4 C 170.5 168.7 167.4 167.1 168.8 168.4 M 153.2 150.4 C 155.2 150.6 152.0 150.0 153.2 150.4 M 160.0 153.7 C 162.0 153.9 158.8 153.3 160.0 153.7 M 168.1 165.3 C 168.8 165.0 166.9 164.5 168.1 165.3 M 176.3 176.2 C 177.1 177.1 175.9 174.4 176.3 176.2 M 158.5 157.7 C 158.4 157.7 158.4 157.7 158.5 157.7 C 158.5 157.7 158.5 157.7 158.5 157.7 Z M 169.2 176.0 C 169.1 176.0 169.1 176.0 169.2 176.0 C 169.2 176.0 169.2 176.0 169.2 176.0 Z M 156.4 146.2 C 156.3 146.2 156.3 146.2 156.4 146.2 C 156.4 146.2 156.4 146.2 156.4 146.2 Z M 159.8 154.7 C 159.7 154.7 159.7 154.7 159.8 154.7 C 159.8 154.7 159.8 154.7 159.8 154.7 Z M 158.0 148.2 C 157.8 148.2 157.8 148.2 158.0 148.2 C 158.0 148.2 158.0 148.2 158.0 148.2 Z M 161.2 158.8 C 161.1 158.8 161.1 158.8 161.2 158.8 C 161.2 158.8 161.2 158.8 161.2 158.8 Z M 164.8 157.3 C 164.8 157.3 164.8 157.3 164.8 157.3 C 164.8 157.3 164.8 157.3 164.8 157.3 Z M 166.0 162.0 C 165.9 162.0 165.9 162.0 166.0 162.0 C 166.0 162.0 166.0 162.0 166.0 162.0 Z M 163.4 155.8 C 162.1 153.4 163.1 157.6 163.4 155.8 C 163.4 155.8 163.4 155.8 163.4 155.8 Z M 162.8 161.8 C 162.8 161.8 162.8 161.8 162.8 161.8 C 162.8 161.8 162.8 161.8 162.8 161.8 Z M 165.3 160.6 C 165.3 158.6 163.2 160.9 165.3 160.6 M 170.2 166.3 C 170.4 165.5 169.3 166.6 170.2 166.3 M 167.7 171.6 C 167.6 171.6 167.6 171.6 167.7 171.6 C 167.7 171.6 167.7 171.6 167.7 171.6 Z M 167.6 170.7 C 167.5 170.7 167.5 170.7 167.6 170.7 C 167.6 170.7 167.6 170.7 167.6 170.7 Z M 171.4 167.7 C 171.4 167.6 171.4 167.6 171.4 167.7 C 171.4 167.7 171.4 167.7 171.4 167.7 Z M 166.3 171.4 C 166.2 171.4 166.2 171.4 166.3 171.4 C 166.3 171.4 166.3 171.4 166.3 171.4 Z M 165.3 158.2 C 165.3 158.2 165.3 158.2 165.3 158.2 C 165.3 158.2 165.3 158.2 165.3 158.2 Z M 157.7 146.8 C 157.6 146.8 157.6 146.8 157.7 146.8 C 157.7 146.8 157.7 146.8 157.7 146.8 Z M 172.7 178.1 C 172.6 178.1 172.6 178.1 172.7 178.1 C 172.7 178.1 172.7 178.1 172.7 178.1 Z M 163.2 157.9 C 163.2 157.9 163.2 157.9 163.2 157.9 C 163.2 157.9 163.2 157.9 163.2 157.9 Z M 169.0 173.1 C 168.9 173.1 168.9 173.1 169.0 173.1 C 169.0 173.1 169.0 173.1 169.0 173.1 Z M 164.0 158.5 C 164.0 158.4 164.0 158.4 164.0 158.5 C 164.0 158.5 164.0 158.5 164.0 158.5 Z M 158.5 158.3 C 158.4 158.2 158.4 158.2 158.5 158.3 C 158.5 158.3 158.5 158.3 158.5 158.3 Z M 156.1 156.3 C 156.1 156.3 156.1 156.3 156.1 156.3 C 156.1 156.3 156.1 156.3 156.1 156.3 Z M 160.8 156.9 C 160.8 156.9 160.8 156.9 160.8 156.9 C 160.8 156.9 160.8 156.9 160.8 156.9 Z M 170.9 172.9 C 175.0 176.7 169.0 169.1 170.9 172.9 M 160.1 156.4 C 162.4 159.3 159.6 153.0 160.1 156.4 C 160.2 155.8 160.1 156.3 160.1 156.4 M 156.1 144.7 C 155.8 146.8 154.7 147.6 153.1 147.8 C 152.1 147.6 154.5 146.0 152.4 147.4 C 153.1 149.1 149.0 148.7 151.6 147.0 C 150.7 144.9 149.8 147.8 150.0 146.0 C 148.9 143.7 148.8 145.3 147.9 143.6 C 148.7 141.7 146.6 143.1 147.6 141.8 C 146.7 143.6 146.9 139.9 146.2 140.2 C 146.3 142.3 142.5 134.7 145.5 138.3 C 145.1 136.2 144.1 137.3 143.6 136.9 C 144.0 135.7 141.2 134.8 141.4 133.3 C 141.7 133.4 142.1 133.8 142.4 133.8 C 143.2 133.7 141.6 132.8 141.7 132.9 C 141.6 132.1 140.8 129.0 141.1 132.7 C 140.5 133.2 140.0 130.3 139.4 130.8 C 137.8 128.5 140.4 129.3 138.6 128.9 C 137.5 127.3 136.7 126.1 136.9 126.0 C 136.0 125.1 135.1 125.4 135.3 124.0 C 132.4 123.0 137.3 120.6 133.7 121.9 C 134.1 120.8 131.7 121.5 133.6 120.4 C 133.3 121.7 129.9 117.9 132.4 118.8 C 132.6 118.0 128.5 117.0 130.6 116.1 C 131.3 114.2 132.8 113.5 135.5 114.6 C 134.3 115.1 138.0 116.0 135.2 115.8 C 133.4 114.4 136.7 119.4 136.6 117.9 C 138.6 116.2 136.9 121.2 139.2 121.2 C 137.7 120.9 140.0 125.3 140.8 123.0 C 141.5 123.7 140.8 124.3 142.3 124.5 C 140.5 122.2 141.2 126.6 142.1 125.8 C 142.5 125.0 145.4 128.2 144.2 128.5 C 141.1 128.7 145.3 129.1 144.8 130.3 C 145.7 132.6 146.5 128.7 145.9 131.3 C 146.4 131.5 148.2 134.1 147.5 132.2 C 146.9 131.7 146.1 135.4 148.2 134.4 C 147.4 130.8 151.0 137.2 149.8 136.7 C 145.8 133.0 151.7 142.1 150.4 138.0 C 152.8 139.2 150.5 137.1 151.6 139.8 C 150.8 139.9 151.5 142.2 152.4 140.9 C 154.5 140.0 150.4 143.2 153.9 143.0 C 155.1 142.5 155.0 146.4 155.5 144.6 C 155.6 144.4 156.1 144.7 156.1 144.7 M 155.3 144.0 C 155.2 144.6 156.2 144.2 155.3 144.0 M 155.2 144.6 C 155.2 144.7 155.2 144.7 155.2 144.6 C 155.2 144.6 155.2 144.6 155.2 144.6 Z M 151.8 140.2 C 151.9 140.2 151.9 140.2 151.8 140.2 C 151.8 140.2 151.8 140.2 151.8 140.2 Z M 144.7 139.6 C 144.8 139.6 144.8 139.6 144.7 139.6 C 144.7 139.6 144.7 139.6 144.7 139.6 Z M 149.6 137.2 C 149.6 137.2 149.6 137.2 149.6 137.2 C 149.6 137.2 149.6 137.2 149.6 137.2 Z M 152.6 142.0 C 152.6 142.1 152.6 142.1 152.6 142.0 C 152.6 142.0 152.6 142.0 152.6 142.0 Z M 150.5 137.0 C 149.6 137.2 151.7 137.8 150.5 136.9 C 150.5 136.9 150.6 137.1 150.5 137.0 M 148.0 132.8 C 147.9 132.8 147.9 132.8 148.0 132.8 M 136.7 127.5 C 136.6 127.6 136.6 127.6 136.7 127.5 M 141.6 123.2 C 141.5 123.1 141.5 123.1 141.6 123.2 M 144.7 129.3 C 143.9 128.0 144.1 129.2 144.7 129.3 M 139.1 120.2 C 140.5 121.4 138.3 118.3 139.1 120.2 M 138.5 118.4 C 138.3 118.3 138.3 118.3 138.5 118.4 M 142.9 125.6 C 142.9 125.6 142.9 125.6 142.9 125.6 C 142.9 125.6 142.9 125.6 142.9 125.6 Z M 145.3 129.6 C 146.7 131.0 144.8 127.5 145.3 129.6 M 152.1 139.2 C 151.8 138.1 151.2 139.8 152.1 139.2 M 152.9 141.3 C 152.9 141.3 152.9 141.3 152.9 141.3 C 152.9 141.3 152.9 141.3 152.9 141.3 Z M 140.8 122.6 C 140.8 122.7 140.8 122.7 140.8 122.6 C 140.8 122.6 140.8 122.6 140.8 122.6 Z M 139.7 120.8 C 139.7 120.8 139.7 120.8 139.7 120.8 C 139.7 120.8 139.7 120.8 139.7 120.8 Z M 132.6 121.2 C 132.7 121.3 132.7 121.3 132.6 121.2 C 132.6 121.2 132.6 121.2 132.6 121.2 Z M 149.9 141.4 C 151.1 142.3 150.8 139.0 149.7 140.1 C 149.1 140.3 149.9 141.1 149.9 141.4 M 144.5 131.8 C 142.6 132.7 147.7 131.4 144.5 131.8 M 137.2 118.9 C 134.3 119.1 139.6 119.5 137.2 118.9 M 135.9 116.3 C 135.0 115.8 138.7 121.0 136.8 116.9 C 136.9 116.3 136.3 116.4 135.9 116.3 M 147.2 133.3 C 146.0 133.6 148.9 134.9 147.2 133.3 M 139.3 127.8 C 139.6 126.8 139.1 124.9 138.5 126.3 C 137.1 127.2 139.3 128.9 139.3 127.8 M 154.1 144.3 C 155.0 142.3 152.9 145.2 154.1 144.3 M 150.8 139.7 C 150.9 139.6 150.9 139.6 150.8 139.7 C 150.8 139.7 150.8 139.7 150.8 139.7 Z M 149.9 137.7 C 149.7 137.7 149.7 137.7 149.9 137.7 M 155.0 142.7 C 154.8 142.7 154.8 142.7 155.0 142.7 M 140.9 126.8 C 140.8 126.8 140.8 126.8 140.9 126.8 M 144.5 129.9 C 141.8 129.1 144.8 131.1 144.5 129.9 M 144.6 136.3 C 143.5 136.2 145.3 137.4 144.6 136.3 M 143.1 126.5 C 140.8 126.2 142.9 129.2 143.1 126.5 M 145.2 130.7 C 145.2 130.6 145.2 130.6 145.2 130.7 C 145.2 130.7 145.2 130.7 145.2 130.7 Z M 138.9 127.5 C 138.9 127.5 138.9 127.5 138.9 127.5 C 138.9 127.5 138.9 127.5 138.9 127.5 Z M 138.6 126.8 C 138.6 126.9 138.6 126.9 138.6 126.8 C 138.6 126.8 138.6 126.8 138.6 126.8 Z M 142.2 124.9 C 142.2 124.9 142.2 124.9 142.2 124.9 C 142.2 124.9 142.2 124.9 142.2 124.9 Z M 149.1 144.1 C 148.1 142.9 149.5 145.2 149.1 144.1 C 149.1 144.1 149.1 144.1 149.1 144.1 Z M 149.5 135.6 C 146.9 134.2 149.4 137.8 149.5 135.6 C 149.5 135.6 149.5 135.6 149.5 135.6 Z M 146.0 134.4 C 145.9 134.5 145.9 134.5 146.0 134.4 C 146.0 134.4 146.0 134.4 146.0 134.4 Z M 144.5 126.8 C 144.4 126.8 144.4 126.8 144.5 126.8 C 144.5 126.8 144.5 126.8 144.5 126.8 Z M 148.5 143.6 C 148.4 143.6 148.4 143.6 148.5 143.6 C 148.5 143.6 148.5 143.6 148.5 143.6 Z M 139.0 121.7 C 138.9 121.8 138.9 121.8 139.0 121.7 C 139.0 121.7 139.0 121.7 139.0 121.7 Z M 141.0 131.1 C 141.2 130.2 140.5 131.3 141.0 131.1 C 141.0 131.1 141.0 131.1 141.0 131.1 Z M 139.7 129.2 C 139.6 129.1 139.6 129.1 139.7 129.2 C 139.7 129.2 139.7 129.2 139.7 129.2 Z M 138.2 117.8 C 138.2 117.8 138.2 117.8 138.2 117.8 C 138.2 117.8 138.2 117.8 138.2 117.8 Z M 135.0 125.2 C 135.0 125.1 135.0 125.1 135.0 125.2 C 135.0 125.2 135.0 125.2 135.0 125.2 Z M 135.6 122.5 C 135.6 122.5 135.6 122.5 135.6 122.5 C 135.6 122.5 135.6 122.5 135.6 122.5 Z M 142.1 125.4 C 141.0 123.3 141.7 126.3 142.1 125.4 C 142.1 125.4 142.1 125.4 142.1 125.4 Z M 132.9 117.4 C 132.8 117.4 132.8 117.4 132.9 117.4 C 132.9 117.4 132.9 117.4 132.9 117.4 Z M 134.2 115.1 C 134.1 115.1 134.1 115.1 134.2 115.1 C 134.2 115.1 134.2 115.1 134.2 115.1 Z M 134.9 114.0 C 134.8 114.0 134.8 114.0 134.9 114.0 C 134.9 114.0 134.9 114.0 134.9 114.0 Z M 147.8 139.1 C 147.9 139.1 147.9 139.1 147.8 139.1 C 147.8 139.1 147.8 139.1 147.8 139.1 Z M 151.5 137.8 C 151.5 137.8 151.5 137.8 151.5 137.8 C 151.5 137.8 151.5 137.8 151.5 137.8 Z M 149.9 135.1 C 149.9 135.1 149.9 135.1 149.9 135.1 C 149.9 135.1 149.9 135.1 149.9 135.1 Z M 146.2 140.9 C 146.2 140.9 146.2 140.9 146.2 140.9 C 146.2 140.9 146.2 140.9 146.2 140.9 Z M 142.3 129.4 C 142.4 129.4 142.4 129.4 142.3 129.4 C 142.3 129.4 142.3 129.4 142.3 129.4 Z M 140.4 129.3 C 140.5 129.3 140.5 129.3 140.4 129.3 C 140.4 129.3 140.4 129.3 140.4 129.3 Z M 140.2 132.7 C 140.3 132.7 140.3 132.7 140.2 132.7 C 140.2 132.7 140.2 132.7 140.2 132.7 Z M 138.9 129.4 C 138.9 129.4 138.9 129.4 138.9 129.4 C 138.9 129.4 138.9 129.4 138.9 129.4 Z M 151.1 147.0 C 151.1 147.0 151.1 147.0 151.1 147.0 C 151.1 147.0 151.1 147.0 151.1 147.0 Z M 153.7 145.6 C 153.6 145.7 153.6 145.7 153.7 145.6 C 153.7 145.6 153.7 145.6 153.7 145.6 Z M 143.9 127.9 C 144.1 127.1 142.6 127.5 143.9 127.9 M 146.1 131.8 C 146.1 131.9 146.1 131.9 146.1 131.8 C 146.1 131.8 146.1 131.8 146.1 131.8 Z M 139.6 121.7 C 138.4 121.9 141.3 123.1 139.6 121.7 C 139.6 121.7 139.6 121.7 139.6 121.7 Z M 136.9 126.4 C 136.8 126.4 136.8 126.4 136.9 126.4 C 136.9 126.4 136.9 126.4 136.9 126.4 Z M 136.6 125.2 C 136.5 125.2 136.5 125.2 136.6 125.2 C 136.6 125.2 136.6 125.2 136.6 125.2 Z M 135.7 118.1 C 135.5 118.0 135.5 118.0 135.7 118.1 M 147.3 131.7 C 146.5 131.4 146.6 131.5 147.3 131.7 M 138.8 120.5 C 138.8 120.6 138.8 120.6 138.8 120.5 C 138.8 120.5 138.8 120.5 138.8 120.5 Z M 135.4 116.5 C 135.4 116.6 135.4 116.6 135.4 116.5 C 135.4 116.5 135.4 116.5 135.4 116.5 Z M 148.4 134.8 C 147.1 135.5 147.8 135.8 148.4 134.8 M 153.0 142.4 C 152.9 142.4 152.9 142.4 153.0 142.4 C 153.0 142.4 153.0 142.4 153.0 142.4 Z M 132.3 110.1 C 135.0 111.2 133.1 112.5 133.1 112.5 C 135.4 110.6 133.3 114.9 132.6 114.9 C 132.3 115.2 126.9 116.5 128.6 113.3 C 128.7 112.7 127.7 113.0 127.5 112.8 C 126.0 110.3 130.0 113.6 128.0 110.6 C 127.3 110.3 125.6 112.3 125.9 109.6 C 125.6 109.6 123.5 108.1 125.0 108.3 C 123.4 108.0 124.1 106.6 123.7 105.5 C 122.6 105.1 122.7 107.2 121.9 103.5 C 119.3 103.5 122.0 101.0 119.4 101.2 C 118.8 100.5 121.2 97.3 120.6 100.2 C 120.6 99.8 122.8 99.8 120.7 97.9 C 120.5 98.5 118.3 101.9 117.3 97.3 C 116.9 96.8 116.8 94.9 116.2 94.8 C 117.1 96.8 113.1 93.2 114.4 93.0 C 111.8 90.6 114.3 91.3 111.9 89.9 C 110.7 88.2 113.7 89.5 111.4 87.9 C 110.5 86.3 110.5 87.8 110.6 88.0 C 109.5 86.7 109.8 85.8 109.4 85.4 C 109.1 85.2 108.0 85.0 108.5 84.1 C 109.0 81.7 111.3 82.1 112.3 80.5 C 113.7 81.1 111.5 81.7 113.1 81.7 C 112.5 82.8 113.2 81.7 115.0 84.8 C 114.7 84.8 113.6 84.5 114.0 85.3 C 114.8 86.4 116.7 83.9 116.3 87.0 C 114.3 85.1 117.6 90.6 115.7 88.9 C 117.1 91.6 116.4 89.4 118.2 90.9 C 116.5 91.9 120.0 89.9 119.2 91.5 C 120.0 91.2 121.6 94.3 119.3 92.9 C 120.9 96.2 120.5 93.6 122.1 94.1 C 123.1 95.5 119.5 96.0 122.1 95.5 C 124.2 96.7 121.1 96.3 123.6 96.5 C 121.8 96.9 124.5 97.9 122.7 98.4 C 124.6 101.6 124.0 96.9 124.4 99.8 C 123.9 99.2 126.1 98.1 125.7 100.3 C 122.9 101.3 129.0 100.6 125.2 101.8 C 127.2 106.7 127.0 101.6 128.6 104.0 C 129.0 104.6 127.1 104.0 127.4 104.6 C 129.9 107.3 129.0 104.2 128.6 106.9 C 130.2 110.2 130.5 106.9 131.6 108.3 C 130.9 108.9 130.5 110.9 132.3 110.1 M 129.8 107.9 C 129.8 107.0 129.0 107.9 129.8 107.9 M 134.6 113.5 C 134.6 112.5 133.8 113.4 134.6 113.5 M 128.5 105.1 C 128.5 103.9 127.5 105.4 128.5 105.1 M 116.8 89.4 C 117.6 90.5 116.9 88.6 116.8 89.4 M 133.0 111.0 C 133.0 109.7 132.0 111.3 133.0 111.0 M 132.6 112.9 C 132.5 112.9 132.5 112.9 132.6 112.9 M 117.0 86.9 C 117.0 86.9 117.0 86.9 117.0 86.9 M 120.0 91.2 C 119.3 90.3 120.0 92.0 120.0 91.2 M 114.9 94.9 C 114.2 94.0 114.9 95.7 114.9 94.9 M 115.5 84.5 C 115.3 83.3 114.7 84.6 115.5 84.5 M 112.7 82.8 C 112.6 81.7 111.8 82.6 112.7 82.8 M 128.3 109.7 C 128.3 109.7 128.3 109.7 128.3 109.7 C 128.3 109.7 128.3 109.7 128.3 109.7 Z M 121.7 102.6 C 122.8 103.2 120.2 101.8 121.7 102.6 M 126.0 101.7 C 124.5 101.8 126.9 102.9 126.0 101.7 C 126.0 101.7 126.0 101.7 126.0 101.7 Z M 126.5 103.5 C 126.5 103.5 126.5 103.5 126.5 103.5 C 126.5 103.5 126.5 103.5 126.5 103.5 Z M 123.4 99.0 C 123.4 99.1 123.4 99.1 123.4 99.0 C 123.4 99.0 123.4 99.0 123.4 99.0 Z M 123.9 100.0 C 124.0 100.5 124.5 100.4 123.9 100.0 C 123.9 100.0 123.9 100.0 123.9 100.0 Z M 116.2 95.7 C 116.2 96.2 116.7 96.0 116.2 95.7 C 116.2 95.7 116.2 95.7 116.2 95.7 Z M 124.5 101.6 C 123.6 102.5 125.7 101.8 124.5 101.6 C 124.5 101.6 124.5 101.6 124.5 101.6 Z M 118.8 98.5 C 118.8 97.9 117.2 98.3 118.8 98.5 M 116.2 86.1 C 116.3 85.5 114.7 85.9 116.2 86.1 M 123.0 95.5 C 123.0 94.9 121.4 95.3 123.0 95.5 M 129.9 107.1 C 129.7 107.1 129.7 107.1 129.9 107.1 M 121.7 104.9 C 121.7 104.0 121.0 104.9 121.7 104.9 M 128.1 113.6 C 128.1 112.7 127.4 113.6 128.1 113.6 M 112.3 90.8 C 112.6 90.6 111.5 89.9 112.3 90.8 M 120.5 95.5 C 119.8 94.7 118.7 94.3 119.9 96.0 C 120.2 95.9 120.0 95.3 120.5 95.5 C 120.5 95.5 120.5 95.5 120.5 95.5 Z M 116.1 94.1 C 115.9 94.0 115.9 94.0 116.1 94.1 M 120.5 93.3 C 120.3 93.3 120.3 93.3 120.5 93.3 M 117.1 88.5 C 116.9 88.5 116.9 88.5 117.1 88.5 M 117.0 87.7 C 117.0 87.8 117.0 87.8 117.0 87.7 C 117.0 87.7 117.0 87.7 117.0 87.7 Z M 113.8 82.1 C 113.8 82.1 113.8 82.1 113.8 82.1 C 113.8 82.1 113.8 82.1 113.8 82.1 Z M 118.0 90.2 C 118.0 90.2 118.0 90.2 118.0 90.2 C 118.0 90.2 118.0 90.2 118.0 90.2 Z M 111.0 88.5 C 111.0 88.5 111.0 88.5 111.0 88.5 C 111.0 88.5 111.0 88.5 111.0 88.5 Z M 112.0 88.6 C 112.0 88.6 112.0 88.6 112.0 88.6 C 112.0 88.6 112.0 88.6 112.0 88.6 Z M 132.0 109.7 C 132.3 108.4 129.9 110.5 132.0 109.7 M 110.4 86.2 C 109.2 86.0 111.1 87.6 110.4 86.2 C 110.4 86.2 110.4 86.2 110.4 86.2 Z M 117.5 91.3 C 117.3 91.4 117.3 91.4 117.5 91.3 M 116.7 87.5 C 116.5 87.5 116.5 87.5 116.7 87.5 M 127.0 101.1 C 126.8 101.2 126.8 101.2 127.0 101.1 M 113.9 83.8 C 112.2 81.7 113.1 85.9 113.9 83.8 M 126.7 102.9 C 126.9 102.8 126.9 102.8 126.7 102.9 M 121.3 99.1 C 120.4 97.5 121.1 100.0 121.3 99.1 M 120.0 94.3 C 120.0 94.3 120.0 94.3 120.0 94.3 C 120.0 94.3 120.0 94.3 120.0 94.3 Z M 121.6 96.5 C 122.2 97.7 122.0 96.6 121.6 96.5 C 121.6 96.5 121.6 96.5 121.6 96.5 Z M 130.3 109.2 C 129.2 107.9 131.0 111.0 130.3 109.2 C 130.3 109.2 130.3 109.2 130.3 109.2 Z M 112.2 86.5 C 112.2 86.6 112.2 86.6 112.2 86.5 C 112.2 86.5 112.2 86.5 112.2 86.5 Z M 118.9 89.9 C 119.1 90.8 119.5 90.1 118.9 89.9 C 118.9 89.9 118.9 89.9 118.9 89.9 Z M 113.3 81.3 C 113.5 82.1 113.8 81.4 113.3 81.3 C 113.3 81.3 113.3 81.3 113.3 81.3 Z M 131.7 110.9 C 126.4 106.7 136.9 117.6 131.7 110.9 C 131.7 110.9 131.7 110.9 131.7 110.9 Z M 121.7 95.1 C 121.6 95.2 121.6 95.2 121.7 95.1 C 121.7 95.1 121.7 95.1 121.7 95.1 Z M 128.9 104.4 C 128.9 104.5 128.9 104.5 128.9 104.4 C 128.9 104.4 128.9 104.4 128.9 104.4 Z M 129.1 106.7 C 129.1 106.8 129.1 106.8 129.1 106.7 C 129.1 106.7 129.1 106.7 129.1 106.7 Z M 124.7 109.0 C 124.6 109.1 124.6 109.1 124.7 109.0 C 124.7 109.0 124.7 109.0 124.7 109.0 Z M 126.2 107.2 C 126.1 107.4 126.1 107.4 126.2 107.2 C 126.2 107.2 126.2 107.2 126.2 107.2 Z M 127.7 111.1 C 127.7 111.2 127.7 111.2 127.7 111.1 C 127.7 111.1 127.7 111.1 127.7 111.1 Z M 127.1 111.4 C 127.1 111.4 127.1 111.4 127.1 111.4 C 127.1 111.4 127.1 111.4 127.1 111.4 Z M 115.5 88.2 C 115.5 88.3 115.5 88.3 115.5 88.2 C 115.5 88.2 115.5 88.2 115.5 88.2 Z M 115.0 91.2 C 114.8 89.6 114.4 92.2 115.0 91.2 C 115.0 91.2 115.0 91.2 115.0 91.2 Z M 123.2 101.6 C 122.6 100.3 123.2 102.6 123.2 101.6 C 123.2 101.6 123.2 101.6 123.2 101.6 Z M 120.1 101.9 C 120.1 101.8 120.1 101.8 120.1 101.9 C 120.1 101.9 120.1 101.9 120.1 101.9 Z M 130.1 106.0 C 130.0 106.1 130.0 106.1 130.1 106.0 C 130.1 106.0 130.1 106.0 130.1 106.0 Z M 130.8 108.6 C 130.0 109.3 131.6 108.9 130.8 108.6 M 124.3 97.8 C 124.1 97.9 124.1 97.9 124.3 97.8 C 124.3 97.8 124.3 97.8 124.3 97.8 Z M 118.4 92.1 C 118.4 92.2 118.4 92.2 118.4 92.1 C 118.4 92.1 118.4 92.1 118.4 92.1 Z M 114.6 85.1 C 114.5 85.3 114.5 85.3 114.6 85.1 C 114.6 85.1 114.6 85.1 114.6 85.1 Z M 121.4 93.8 C 121.3 93.9 121.3 93.9 121.4 93.8 C 121.4 93.8 121.4 93.8 121.4 93.8 Z M 122.7 97.4 C 122.6 97.5 122.6 97.5 122.7 97.4 C 122.7 97.4 122.7 97.4 122.7 97.4 Z M 112.4 84.5 C 112.4 84.6 112.4 84.6 112.4 84.5 C 112.4 84.5 112.4 84.5 112.4 84.5 Z M 121.0 92.9 C 121.0 93.0 121.0 93.0 121.0 92.9 C 121.0 92.9 121.0 92.9 121.0 92.9 Z M 117.0 92.9 C 116.9 93.0 116.9 93.0 117.0 92.9 C 117.0 92.9 117.0 92.9 117.0 92.9 Z M 131.8 107.5 C 131.8 107.5 131.8 107.5 131.8 107.5 C 131.8 107.5 131.8 107.5 131.8 107.5 Z M 113.5 83.7 C 113.5 83.7 113.5 83.7 113.5 83.7 C 113.5 83.7 113.5 83.7 113.5 83.7 Z M 114.0 82.8 C 114.0 82.8 114.0 82.8 114.0 82.8 C 114.0 82.8 114.0 82.8 114.0 82.8 Z M 113.0 90.2 C 115.0 92.2 111.8 88.0 113.9 89.0 C 111.9 85.6 112.6 89.7 113.0 90.2 C 113.0 90.2 113.0 90.2 113.0 90.2 Z M 112.2 79.4 C 111.9 81.5 110.8 82.3 109.2 82.5 C 108.2 82.3 110.5 80.7 108.5 82.1 C 109.1 83.8 105.1 83.4 107.7 81.7 C 106.8 79.5 105.9 82.5 106.1 80.7 C 105.0 78.4 104.9 80.0 104.0 78.3 C 104.8 76.4 102.7 77.8 103.7 76.5 C 102.8 78.3 103.0 74.6 102.3 74.9 C 102.4 77.0 98.6 69.4 101.5 72.9 C 101.2 70.9 100.2 72.0 99.6 71.6 C 100.0 70.4 97.3 69.5 97.5 68.0 C 97.8 68.1 98.1 68.5 98.5 68.5 C 99.3 68.4 97.7 67.5 97.8 67.6 C 97.7 66.8 96.9 63.7 97.2 67.3 C 96.6 67.9 96.0 65.0 95.5 65.5 C 93.9 63.2 96.5 64.0 94.7 63.6 C 93.6 62.0 92.8 60.8 93.0 60.7 C 92.1 59.8 91.2 60.1 91.4 58.7 C 88.5 57.7 93.3 55.3 89.8 56.5 C 90.2 55.5 87.8 56.2 89.7 55.1 C 89.4 56.4 86.0 52.6 88.5 53.5 C 88.6 52.7 84.5 51.7 86.7 50.8 C 87.4 48.9 88.9 48.2 91.6 49.3 C 90.4 49.8 94.1 50.7 91.3 50.4 C 89.5 49.1 92.8 54.1 92.7 52.6 C 94.7 50.9 93.0 55.9 95.2 55.9 C 93.8 55.6 96.1 60.0 96.9 57.7 C 97.6 58.3 96.9 59.0 98.4 59.2 C 96.6 56.9 97.3 61.3 98.2 60.5 C 98.5 59.7 101.5 62.9 100.3 63.2 C 97.2 63.4 101.4 63.8 100.9 65.0 C 101.7 67.3 102.6 63.4 102.0 66.0 C 102.5 66.2 104.3 68.8 103.6 66.8 C 103.0 66.4 102.2 70.1 104.3 69.1 C 103.5 65.5 107.1 71.9 105.9 71.3 C 101.9 67.7 107.8 76.8 106.5 72.6 C 108.9 73.9 106.6 71.8 107.7 74.5 C 106.9 74.6 107.6 76.8 108.5 75.6 C 110.6 74.7 106.5 77.9 110.0 77.7 C 111.2 77.2 111.1 81.1 111.6 79.2 C 111.7 79.1 112.2 79.4 112.2 79.4 M 111.4 78.7 C 111.2 79.3 112.3 78.9 111.4 78.7 M 111.3 79.3 C 111.3 79.3 111.3 79.3 111.3 79.3 C 111.3 79.3 111.3 79.3 111.3 79.3 Z M 107.9 74.9 C 108.0 74.9 108.0 74.9 107.9 74.9 C 107.9 74.9 107.9 74.9 107.9 74.9 Z M 100.8 74.3 C 100.9 74.3 100.9 74.3 100.8 74.3 C 100.8 74.3 100.8 74.3 100.8 74.3 Z M 105.7 71.9 C 105.7 71.9 105.7 71.9 105.7 71.9 C 105.7 71.9 105.7 71.9 105.7 71.9 Z M 108.7 76.7 C 108.7 76.8 108.7 76.8 108.7 76.7 C 108.7 76.7 108.7 76.7 108.7 76.7 Z M 106.6 71.7 C 105.7 71.9 107.8 72.4 106.6 71.6 C 106.6 71.6 106.7 71.8 106.6 71.7 M 104.1 67.5 C 104.0 67.5 104.0 67.5 104.1 67.5 M 92.8 62.2 C 92.7 62.3 92.7 62.3 92.8 62.2 M 97.7 57.9 C 97.6 57.8 97.6 57.8 97.7 57.9 M 100.7 64.0 C 100.0 62.7 100.2 63.9 100.7 64.0 M 95.1 54.9 C 96.6 56.1 94.4 53.0 95.1 54.9 M 94.5 53.1 C 94.4 53.0 94.4 53.0 94.5 53.1 M 99.0 60.3 C 98.9 60.3 98.9 60.3 99.0 60.3 C 99.0 60.3 99.0 60.3 99.0 60.3 Z M 101.4 64.3 C 102.8 65.7 100.9 62.2 101.4 64.3 M 108.2 73.9 C 107.9 72.8 107.3 74.5 108.2 73.9 M 109.0 76.0 C 109.0 76.0 109.0 76.0 109.0 76.0 C 109.0 76.0 109.0 76.0 109.0 76.0 Z M 96.9 57.3 C 96.9 57.4 96.9 57.4 96.9 57.3 C 96.9 57.3 96.9 57.3 96.9 57.3 Z M 95.8 55.5 C 95.8 55.5 95.8 55.5 95.8 55.5 C 95.8 55.5 95.8 55.5 95.8 55.5 Z M 88.7 55.9 C 88.8 55.9 88.8 55.9 88.7 55.9 C 88.7 55.9 88.7 55.9 88.7 55.9 Z M 106.0 76.1 C 107.2 77.0 106.8 73.7 105.8 74.8 C 105.2 75.0 106.0 75.8 106.0 76.1 M 100.6 66.5 C 98.7 67.3 103.8 66.1 100.6 66.5 M 93.3 53.6 C 90.4 53.8 95.7 54.2 93.3 53.6 M 92.0 50.9 C 91.1 50.5 94.8 55.6 92.9 51.6 C 93.0 51.0 92.4 51.1 92.0 50.9 M 103.3 68.0 C 102.1 68.3 105.0 69.6 103.3 68.0 M 95.4 62.5 C 95.6 61.5 95.1 59.6 94.6 61.0 C 93.2 61.9 95.4 63.6 95.4 62.5 M 110.2 79.0 C 111.1 77.0 109.0 79.9 110.2 79.0 M 106.9 74.4 C 107.0 74.3 107.0 74.3 106.9 74.4 C 106.9 74.4 106.9 74.4 106.9 74.4 Z M 105.9 72.4 C 105.8 72.4 105.8 72.4 105.9 72.4 M 111.1 77.4 C 110.9 77.3 110.9 77.3 111.1 77.4 M 97.0 61.5 C 96.8 61.5 96.8 61.5 97.0 61.5 M 100.6 64.6 C 97.9 63.8 100.9 65.8 100.6 64.6 M 100.6 70.9 C 99.6 70.9 101.4 72.1 100.6 70.9 M 99.1 61.2 C 96.9 60.9 99.0 63.9 99.1 61.2 M 101.3 65.4 C 101.3 65.3 101.3 65.3 101.3 65.4 C 101.3 65.4 101.3 65.4 101.3 65.4 Z M 94.9 62.1 C 94.9 62.2 94.9 62.2 94.9 62.1 C 94.9 62.1 94.9 62.1 94.9 62.1 Z M 94.6 61.5 C 94.6 61.6 94.6 61.6 94.6 61.5 C 94.6 61.5 94.6 61.5 94.6 61.5 Z M 98.3 59.5 C 98.3 59.6 98.3 59.6 98.3 59.5 C 98.3 59.5 98.3 59.5 98.3 59.5 Z M 105.2 78.8 C 104.2 77.6 105.6 79.9 105.2 78.8 C 105.2 78.8 105.2 78.8 105.2 78.8 Z M 105.6 70.3 C 103.0 68.9 105.5 72.5 105.6 70.3 C 105.6 70.3 105.6 70.3 105.6 70.3 Z M 102.1 69.1 C 102.0 69.2 102.0 69.2 102.1 69.1 C 102.1 69.1 102.1 69.1 102.1 69.1 Z M 100.6 61.5 C 100.5 61.5 100.5 61.5 100.6 61.5 C 100.6 61.5 100.6 61.5 100.6 61.5 Z M 104.5 78.2 C 104.5 78.3 104.5 78.3 104.5 78.2 C 104.5 78.2 104.5 78.2 104.5 78.2 Z M 95.0 56.4 C 95.0 56.5 95.0 56.5 95.0 56.4 C 95.0 56.4 95.0 56.4 95.0 56.4 Z M 97.1 65.8 C 97.3 64.9 96.5 66.0 97.1 65.8 C 97.1 65.8 97.1 65.8 97.1 65.8 Z M 95.8 63.9 C 95.7 63.8 95.7 63.8 95.8 63.9 C 95.8 63.9 95.8 63.9 95.8 63.9 Z M 94.3 52.5 C 94.3 52.5 94.3 52.5 94.3 52.5 C 94.3 52.5 94.3 52.5 94.3 52.5 Z M 91.1 59.9 C 91.1 59.8 91.1 59.8 91.1 59.9 C 91.1 59.9 91.1 59.9 91.1 59.9 Z M 91.7 57.2 C 91.7 57.2 91.7 57.2 91.7 57.2 C 91.7 57.2 91.7 57.2 91.7 57.2 Z M 98.1 60.1 C 97.1 58.0 97.8 61.0 98.1 60.1 C 98.1 60.1 98.1 60.1 98.1 60.1 Z M 89.0 52.1 C 88.9 52.1 88.9 52.1 89.0 52.1 C 89.0 52.1 89.0 52.1 89.0 52.1 Z M 90.3 49.8 C 90.2 49.8 90.2 49.8 90.3 49.8 C 90.3 49.8 90.3 49.8 90.3 49.8 Z M 91.0 48.6 C 90.9 48.7 90.9 48.7 91.0 48.6 C 91.0 48.6 91.0 48.6 91.0 48.6 Z M 103.9 73.8 C 104.0 73.8 104.0 73.8 103.9 73.8 C 103.9 73.8 103.9 73.8 103.9 73.8 Z M 107.5 72.5 C 107.6 72.5 107.6 72.5 107.5 72.5 C 107.5 72.5 107.5 72.5 107.5 72.5 Z M 106.0 69.8 C 106.0 69.8 106.0 69.8 106.0 69.8 C 106.0 69.8 106.0 69.8 106.0 69.8 Z M 102.3 75.6 C 102.3 75.6 102.3 75.6 102.3 75.6 C 102.3 75.6 102.3 75.6 102.3 75.6 Z M 98.4 64.1 C 98.5 64.1 98.5 64.1 98.4 64.1 C 98.4 64.1 98.4 64.1 98.4 64.1 Z M 96.5 64.0 C 96.6 64.0 96.6 64.0 96.5 64.0 C 96.5 64.0 96.5 64.0 96.5 64.0 Z M 96.3 67.4 C 96.4 67.4 96.4 67.4 96.3 67.4 C 96.3 67.4 96.3 67.4 96.3 67.4 Z M 94.9 64.1 C 95.0 64.1 95.0 64.1 94.9 64.1 C 94.9 64.1 94.9 64.1 94.9 64.1 Z M 107.2 81.7 C 107.2 81.7 107.2 81.7 107.2 81.7 C 107.2 81.7 107.2 81.7 107.2 81.7 Z M 109.8 80.3 C 109.7 80.4 109.7 80.4 109.8 80.3 C 109.8 80.3 109.8 80.3 109.8 80.3 Z M 100.0 62.6 C 100.2 61.8 98.7 62.2 100.0 62.6 M 102.2 66.5 C 102.1 66.5 102.1 66.5 102.2 66.5 C 102.2 66.5 102.2 66.5 102.2 66.5 Z M 95.7 56.4 C 94.4 56.6 97.4 57.8 95.7 56.4 C 95.7 56.4 95.7 56.4 95.7 56.4 Z M 93.0 61.1 C 92.9 61.1 92.9 61.1 93.0 61.1 C 93.0 61.1 93.0 61.1 93.0 61.1 Z M 92.7 59.9 C 92.6 59.9 92.6 59.9 92.7 59.9 C 92.7 59.9 92.7 59.9 92.7 59.9 Z M 91.8 52.8 C 91.6 52.7 91.6 52.7 91.8 52.8 M 103.3 66.4 C 102.6 66.1 102.7 66.2 103.3 66.4 M 94.8 55.2 C 94.9 55.3 94.9 55.3 94.8 55.2 C 94.8 55.2 94.8 55.2 94.8 55.2 Z M 91.5 51.2 C 91.5 51.3 91.5 51.3 91.5 51.2 C 91.5 51.2 91.5 51.2 91.5 51.2 Z M 104.5 69.5 C 103.2 70.1 103.8 70.5 104.5 69.5 M 109.0 77.1 C 108.9 77.1 108.9 77.1 109.0 77.1 C 109.0 77.1 109.0 77.1 109.0 77.1 Z M 109.0 77.1 " fill="#71AFE1"></path></g></g><g><clipPath id="clip-605"><path d="M 0.0 0.8 L 91.8 0.8 L 91.8 45.1 L 0.0 45.1 Z M 0.0 0.8 "></path></clipPath><g clip-path="url(#clip-605)"><path d="M 34.3 7.1 C 34.0 6.9 33.1 7.2 32.9 7.0 M 34.3 7.1 C 33.5 8.4 31.9 8.5 29.9 8.7 C 27.7 8.7 30.0 7.5 29.7 7.0 C 26.8 6.5 26.8 7.4 27.2 8.8 C 26.1 7.8 22.8 9.5 23.5 7.8 C 28.1 7.8 20.2 7.3 24.1 6.4 C 24.5 6.1 23.4 5.6 22.9 5.6 C 24.2 4.9 22.0 4.1 24.1 3.6 C 24.4 2.5 24.0 2.9 25.4 2.1 C 25.9 2.0 25.7 2.3 25.6 2.6 C 25.8 3.9 27.2 1.9 28.3 2.7 C 29.3 1.0 30.3 3.0 29.5 3.7 C 30.4 3.5 31.6 1.7 32.6 2.9 C 33.2 2.1 35.9 2.7 34.3 3.7 C 33.1 4.4 34.4 4.9 34.6 5.3 C 34.2 5.6 32.5 5.1 32.3 5.4 C 32.8 5.7 34.9 6.3 32.7 6.2 C 33.4 6.8 32.3 7.2 34.3 7.1 C 34.3 7.1 34.3 7.1 34.3 7.1 Z M 26.4 8.0 C 26.4 8.5 27.1 8.0 26.4 8.0 C 26.4 8.0 26.4 8.0 26.4 8.0 Z M 31.8 2.1 C 31.8 2.5 32.5 2.1 31.8 2.1 C 31.8 2.1 31.8 2.1 31.8 2.1 Z M 26.0 2.6 C 26.0 3.0 26.8 2.6 26.0 2.6 C 26.0 2.6 26.0 2.6 26.0 2.6 Z M 28.5 7.8 C 29.7 7.4 27.4 7.1 27.2 7.5 C 27.5 7.5 28.1 8.1 28.5 7.8 C 28.5 7.8 28.5 7.8 28.5 7.8 Z M 28.6 5.2 C 28.7 5.3 29.2 5.4 29.2 5.0 C 28.9 4.8 28.5 5.0 28.6 5.2 C 28.6 5.2 28.6 5.2 28.6 5.2 Z M 22.4 7.0 C 22.5 7.2 23.1 7.2 23.0 6.8 C 22.7 6.7 22.4 6.8 22.4 7.0 C 22.4 7.0 22.4 7.0 22.4 7.0 Z M 29.9 6.6 C 30.2 6.5 30.3 6.1 29.9 6.0 C 29.8 6.2 28.9 6.3 29.9 6.6 C 29.9 6.6 29.9 6.6 29.9 6.6 Z M 31.8 8.1 C 32.9 7.8 30.7 7.2 30.8 7.4 C 30.4 7.7 31.2 8.4 31.8 8.1 C 31.8 8.1 31.8 8.1 31.8 8.1 Z M 30.5 6.0 C 31.3 5.7 30.1 5.6 30.5 6.0 C 30.5 6.0 30.5 6.0 30.5 6.0 Z M 23.3 3.7 C 24.2 3.5 22.9 3.4 23.3 3.7 C 23.3 3.7 23.3 3.7 23.3 3.7 Z M 27.9 2.3 C 28.7 2.1 27.5 2.0 27.9 2.3 C 27.9 2.3 27.9 2.3 27.9 2.3 Z M 26.2 6.9 C 24.6 6.9 25.9 8.0 26.2 6.9 C 26.2 6.9 26.2 6.9 26.2 6.9 Z M 34.2 8.2 C 32.7 8.2 34.0 9.3 34.2 8.2 C 34.2 8.2 34.2 8.2 34.2 8.2 Z M 19.5 7.8 C 21.1 8.0 15.5 9.6 17.4 7.8 C 17.9 6.3 14.7 6.6 15.6 7.9 C 14.7 8.1 14.8 8.2 14.3 7.6 C 14.3 8.7 13.0 9.5 12.2 9.3 C 11.5 8.6 13.4 8.6 12.0 8.2 C 9.4 9.0 11.8 7.1 10.2 6.7 C 10.0 6.7 10.3 7.3 9.9 7.1 C 9.2 6.3 10.7 4.6 9.4 4.3 C 10.0 4.2 12.1 2.2 11.5 3.4 C 11.5 4.5 13.6 1.6 13.7 3.4 C 14.3 2.5 15.1 3.5 15.8 2.5 C 16.4 2.2 16.4 3.1 16.4 3.4 C 16.3 4.2 17.0 1.5 18.0 2.9 C 18.1 2.5 21.1 2.6 18.9 3.3 C 19.5 3.1 23.4 2.8 21.3 4.3 C 18.5 5.0 24.0 5.9 20.9 6.0 C 18.5 6.1 18.2 5.8 19.8 6.6 C 20.3 6.5 23.1 6.7 20.8 7.4 C 20.2 7.2 19.2 7.3 19.5 7.8 C 19.5 7.8 19.5 7.8 19.5 7.8 Z M 20.0 5.5 C 18.6 5.4 19.9 6.1 20.0 5.5 C 20.0 5.5 20.0 5.5 20.0 5.5 Z M 15.6 2.1 C 14.5 2.1 15.6 2.7 15.6 2.1 C 15.6 2.1 15.6 2.1 15.6 2.1 Z M 16.2 8.3 C 15.7 7.8 15.7 9.4 16.2 8.3 C 16.2 8.3 16.2 8.3 16.2 8.3 Z M 17.5 3.3 C 17.5 3.3 17.7 3.5 18.0 3.6 C 17.9 3.5 17.6 3.3 17.5 3.3 C 17.5 3.3 17.5 3.3 17.5 3.3 Z M 14.8 8.4 C 13.6 7.8 14.8 9.7 14.8 8.4 C 14.8 8.4 14.8 8.4 14.8 8.4 Z M 12.3 7.4 C 11.7 5.9 11.2 8.1 12.3 7.4 C 12.3 7.4 12.3 7.4 12.3 7.4 Z M 13.2 3.6 C 13.6 3.9 13.5 3.3 13.2 3.6 C 13.2 3.6 13.2 3.6 13.2 3.6 Z M 20.5 2.9 C 20.9 3.2 20.9 2.7 20.5 2.9 C 20.5 2.9 20.5 2.9 20.5 2.9 Z M 11.5 4.1 C 11.8 4.7 11.9 3.7 11.5 4.1 C 11.5 4.1 11.5 4.1 11.5 4.1 Z M 15.9 7.6 C 17.2 8.8 17.2 5.7 15.9 7.6 C 15.9 7.6 15.9 7.6 15.9 7.6 Z M 18.4 7.7 C 19.4 7.9 18.2 6.9 17.7 7.1 C 17.8 7.2 18.2 7.6 18.4 7.7 C 18.4 7.7 18.4 7.7 18.4 7.7 Z M 14.7 7.6 C 15.5 8.1 15.3 7.2 14.7 7.6 C 14.7 7.6 14.7 7.6 14.7 7.6 Z M 16.8 8.1 C 17.2 8.0 16.4 8.0 16.8 8.1 C 16.8 8.1 16.8 8.1 16.8 8.1 Z M 13.6 9.2 C 13.9 9.0 13.3 9.1 13.6 9.2 C 13.6 9.2 13.6 9.2 13.6 9.2 Z M 19.8 8.3 C 20.3 8.1 19.3 8.1 19.8 8.3 C 19.8 8.3 19.8 8.3 19.8 8.3 Z M 13.7 8.3 C 13.5 7.8 14.1 6.2 12.7 7.8 C 12.5 8.3 13.4 8.8 13.7 8.3 C 13.7 8.3 13.7 8.3 13.7 8.3 Z M 38.9 7.0 C 32.3 8.8 33.9 5.7 33.6 5.1 C 32.7 4.3 33.6 3.7 34.9 3.1 C 36.3 1.1 37.0 5.2 38.0 3.2 C 39.7 0.5 40.0 5.5 40.7 2.7 C 40.4 2.0 43.0 2.6 42.8 2.8 C 44.0 1.4 45.9 3.8 45.9 4.0 C 46.7 3.7 46.8 1.2 49.5 3.1 C 51.5 3.7 52.4 1.2 51.9 2.9 C 53.4 1.0 52.9 3.5 54.4 2.9 C 55.4 1.8 54.4 4.5 56.3 2.5 C 57.1 4.1 55.4 1.4 60.5 2.6 C 58.1 2.7 62.9 3.8 61.9 2.7 C 60.2 1.6 64.3 3.2 66.6 2.5 C 67.2 3.1 69.9 4.5 69.5 2.9 C 70.7 2.0 71.8 2.3 72.3 2.6 C 72.9 3.0 73.2 3.3 73.8 2.6 C 74.7 2.0 74.9 3.3 75.5 3.3 C 76.4 2.2 77.1 2.8 79.9 3.2 C 81.4 3.4 82.7 4.2 83.0 4.7 C 83.4 5.2 83.1 5.5 82.8 5.8 C 82.1 6.4 81.0 6.8 81.9 7.6 C 81.9 8.3 77.6 10.3 79.9 8.2 C 79.2 8.8 76.3 5.2 77.5 8.5 C 76.4 7.1 78.4 9.7 74.7 8.1 C 80.0 6.1 68.4 7.0 73.8 8.2 C 72.9 8.8 70.2 8.7 72.1 8.2 C 72.9 6.2 67.0 9.1 70.1 6.7 C 67.7 7.0 67.6 6.6 67.3 6.4 C 67.0 6.1 67.0 5.9 66.5 6.7 C 65.7 9.3 66.7 6.0 64.9 6.8 C 60.9 6.8 64.0 9.8 61.6 7.8 C 57.7 9.1 60.7 6.7 59.4 6.3 C 59.0 4.5 55.4 7.7 58.4 7.9 C 56.8 7.0 58.1 8.8 56.3 7.7 C 57.6 6.0 54.0 9.4 54.5 8.1 C 52.9 7.7 53.7 6.7 53.2 6.6 C 50.8 6.6 51.6 8.3 51.1 7.0 C 50.5 6.4 49.4 8.5 49.1 8.0 C 51.6 7.9 47.1 6.2 46.8 7.1 C 48.3 7.3 46.0 9.3 45.1 8.0 C 46.3 4.4 42.9 8.9 41.8 7.7 C 42.9 5.7 36.4 7.4 38.9 8.3 C 38.7 8.2 38.9 7.0 38.9 7.0 M 48.4 7.7 C 50.4 7.5 46.2 7.3 48.4 7.7 M 48.3 8.2 C 49.2 7.6 46.4 8.7 48.4 8.5 C 48.4 8.4 48.2 8.3 48.3 8.2 M 56.7 8.3 C 56.4 7.7 55.5 8.6 56.7 8.3 M 58.3 7.0 C 59.6 6.5 56.5 7.0 58.3 7.0 M 77.1 7.7 C 76.1 4.5 75.4 9.2 77.1 7.7 M 64.6 8.1 C 62.3 7.7 65.3 9.3 64.6 8.1 M 63.9 7.3 C 62.8 6.8 63.7 8.0 63.9 7.3 M 74.0 7.5 C 74.2 7.4 74.2 7.4 74.0 7.5 C 74.0 7.5 74.0 7.5 74.0 7.5 Z M 78.5 7.9 C 78.5 7.9 78.5 7.9 78.5 7.9 C 78.5 7.9 78.5 7.9 78.5 7.9 Z M 68.0 7.1 C 66.2 7.8 70.7 7.4 68.0 7.1 C 68.0 7.1 68.0 7.1 68.0 7.1 Z M 77.1 3.0 C 77.0 3.0 77.0 3.0 77.1 3.0 C 77.1 3.0 77.1 3.0 77.1 3.0 Z M 46.8 6.3 C 46.7 6.3 46.7 6.3 46.8 6.3 C 46.8 6.3 46.8 6.3 46.8 6.3 Z M 40.5 7.5 C 40.6 7.1 39.4 7.8 40.5 7.5 C 40.5 7.5 40.5 7.5 40.5 7.5 Z M 35.5 4.0 C 35.4 4.0 35.4 4.0 35.5 4.0 C 35.5 4.0 35.5 4.0 35.5 4.0 Z M 44.7 4.7 C 44.6 4.7 44.6 4.7 44.7 4.7 C 44.7 4.7 44.7 4.7 44.7 4.7 Z M 45.6 7.0 C 44.6 8.6 47.9 6.5 45.6 7.0 C 45.6 7.0 45.6 7.0 45.6 7.0 Z M 65.9 3.0 C 65.9 3.7 67.3 2.7 65.9 3.0 C 65.9 3.0 65.9 3.0 65.9 3.0 Z M 58.5 6.4 C 58.8 6.8 59.4 6.2 58.5 6.4 C 58.5 6.4 58.5 6.4 58.5 6.4 Z M 55.1 8.6 C 55.3 9.0 56.0 8.4 55.1 8.6 C 55.1 8.6 55.1 8.6 55.1 8.6 Z M 40.6 7.9 C 40.8 8.0 40.8 8.0 40.6 7.9 C 40.6 7.9 40.6 7.9 40.6 7.9 Z M 42.9 6.7 C 41.3 8.2 45.3 5.8 42.9 6.7 C 42.9 6.7 42.9 6.7 42.9 6.7 Z M 40.2 6.2 C 41.0 5.6 38.2 6.5 40.2 6.2 M 41.7 3.9 C 43.6 4.5 40.0 1.1 41.7 3.9 C 41.7 3.9 41.7 3.9 41.7 3.9 Z M 51.4 3.2 C 51.5 3.2 51.5 3.2 51.4 3.2 C 51.4 3.2 51.4 3.2 51.4 3.2 Z M 50.3 7.8 C 52.0 7.7 49.3 7.4 50.3 7.8 C 50.3 7.8 50.3 7.8 50.3 7.8 Z M 35.8 8.1 C 37.5 8.0 34.8 7.7 35.8 8.1 C 35.8 8.1 35.8 8.1 35.8 8.1 Z M 57.0 4.7 C 59.7 5.0 55.3 3.9 57.0 4.7 C 57.0 4.7 57.0 4.7 57.0 4.7 Z M 67.0 6.5 C 67.1 6.5 67.1 6.5 67.0 6.5 C 67.0 6.5 67.0 6.5 67.0 6.5 Z M 68.9 7.2 C 68.9 7.1 68.9 7.1 68.9 7.2 C 68.9 7.2 68.9 7.2 68.9 7.2 Z M 77.2 5.8 C 77.3 5.8 77.3 5.8 77.2 5.8 C 77.2 5.8 77.2 5.8 77.2 5.8 Z M 70.9 7.9 C 71.0 7.9 71.0 7.9 70.9 7.9 C 70.9 7.9 70.9 7.9 70.9 7.9 Z M 76.4 7.7 C 76.5 7.6 76.5 7.6 76.4 7.7 C 76.4 7.7 76.4 7.7 76.4 7.7 Z M 75.7 9.0 C 75.8 8.9 75.8 8.9 75.7 9.0 C 75.7 9.0 75.7 9.0 75.7 9.0 Z M 63.2 2.1 C 63.3 2.0 63.3 2.0 63.2 2.1 C 63.2 2.1 63.2 2.1 63.2 2.1 Z M 43.6 8.4 C 43.7 8.3 43.7 8.3 43.6 8.4 C 43.6 8.4 43.6 8.4 43.6 8.4 Z M 76.1 7.1 C 76.2 7.0 76.2 7.0 76.1 7.1 C 76.1 7.1 76.1 7.1 76.1 7.1 Z M 62.4 5.7 C 62.4 4.4 61.2 7.4 62.7 5.8 C 62.6 5.7 62.3 5.9 62.4 5.7 M 64.1 3.5 C 64.1 3.5 64.1 3.5 64.1 3.5 C 64.1 3.5 64.1 3.5 64.1 3.5 Z M 58.2 2.7 C 58.1 2.6 58.1 2.6 58.2 2.7 C 58.2 2.7 58.2 2.7 58.2 2.7 Z M 69.6 8.2 C 69.4 8.9 71.1 7.6 69.4 8.1 M 77.5 3.6 C 77.2 4.3 79.0 3.2 77.3 3.5 M 33.9 7.6 C 33.7 7.0 32.8 7.9 33.9 7.6 M 56.8 2.0 C 56.6 1.4 55.7 2.3 56.8 2.0 M 59.6 3.7 C 59.4 4.4 61.1 3.1 59.4 3.6 M 73.4 3.3 C 73.5 3.3 73.5 3.3 73.4 3.3 C 73.4 3.3 73.4 3.3 73.4 3.3 Z M 52.9 7.6 C 53.0 7.6 53.0 7.6 52.9 7.6 C 52.9 7.6 52.9 7.6 52.9 7.6 Z M 60.2 6.0 C 59.2 7.1 61.5 5.4 60.2 6.0 M 50.8 5.8 C 49.3 7.1 53.1 5.4 50.8 5.8 M 80.4 3.9 C 78.5 4.9 81.7 3.4 80.4 3.9 M 72.4 6.8 C 70.5 8.3 73.8 5.9 72.4 6.8 M 54.4 7.0 C 54.3 7.7 56.0 6.5 54.4 7.0 M 37.7 7.7 C 36.2 7.9 39.8 8.3 37.7 7.7 M 68.7 3.3 C 68.7 3.2 68.7 3.2 68.7 3.3 C 68.7 3.3 68.7 3.3 68.7 3.3 Z M 42.7 2.0 C 42.8 1.9 42.8 1.9 42.7 2.0 C 42.7 2.0 42.7 2.0 42.7 2.0 Z M 80.3 9.2 C 80.4 9.2 80.4 9.2 80.3 9.2 C 80.3 9.2 80.3 9.2 80.3 9.2 Z M 71.2 6.1 C 71.3 6.0 71.3 6.0 71.2 6.1 C 71.2 6.1 71.2 6.1 71.2 6.1 Z M 78.3 8.6 C 78.4 8.5 78.4 8.5 78.3 8.6 C 78.3 8.6 78.3 8.6 78.3 8.6 Z M 65.8 4.9 C 65.8 4.8 65.8 4.8 65.8 4.9 C 65.8 4.9 65.8 4.9 65.8 4.9 Z M 64.8 8.7 C 64.8 8.7 64.8 8.7 64.8 8.7 C 64.8 8.7 64.8 8.7 64.8 8.7 Z M 59.2 7.1 C 59.3 7.1 59.3 7.1 59.2 7.1 C 59.2 7.1 59.2 7.1 59.2 7.1 Z M 67.3 8.4 C 70.6 8.7 65.6 7.1 67.3 8.4 C 67.3 8.4 67.3 8.4 67.3 8.4 Z M 61.6 4.6 C 61.6 4.5 61.6 4.5 61.6 4.6 C 61.6 4.6 61.6 4.6 61.6 4.6 Z M 61.1 7.3 C 63.2 8.4 62.2 5.4 61.1 7.3 M 51.9 8.2 C 52.6 8.8 52.2 7.3 51.9 8.2 M 48.3 3.2 C 48.3 3.1 48.3 3.1 48.3 3.2 C 48.3 3.2 48.3 3.2 48.3 3.2 Z M 49.2 3.6 C 49.3 3.5 49.3 3.5 49.2 3.6 C 49.2 3.6 49.2 3.6 49.2 3.6 Z M 49.7 8.4 C 49.7 8.4 49.7 8.4 49.7 8.4 C 49.7 8.4 49.7 8.4 49.7 8.4 Z M 49.4 2.1 C 49.5 2.1 49.5 2.1 49.4 2.1 C 49.4 2.1 49.4 2.1 49.4 2.1 Z M 63.5 8.6 C 63.5 8.6 63.5 8.6 63.5 8.6 C 63.5 8.6 63.5 8.6 63.5 8.6 Z M 79.0 9.4 C 79.1 9.4 79.1 9.4 79.0 9.4 C 79.0 9.4 79.0 9.4 79.0 9.4 Z M 38.2 3.7 C 38.3 3.6 38.3 3.6 38.2 3.7 C 38.2 3.7 38.2 3.7 38.2 3.7 Z M 65.3 7.1 C 65.3 7.1 65.3 7.1 65.3 7.1 C 65.3 7.1 65.3 7.1 65.3 7.1 Z M 45.9 3.4 C 45.9 3.3 45.9 3.3 45.9 3.4 C 45.9 3.4 45.9 3.4 45.9 3.4 Z M 64.2 7.4 C 64.2 7.4 64.2 7.4 64.2 7.4 C 64.2 7.4 64.2 7.4 64.2 7.4 Z M 68.1 3.0 C 68.2 2.9 68.2 2.9 68.1 3.0 C 68.1 3.0 68.1 3.0 68.1 3.0 Z M 72.4 2.1 C 72.5 2.1 72.5 2.1 72.4 2.1 C 72.4 2.1 72.4 2.1 72.4 2.1 Z M 67.9 5.6 C 67.9 5.6 67.9 5.6 67.9 5.6 C 67.9 5.6 67.9 5.6 67.9 5.6 Z M 44.7 5.0 C 38.0 6.4 50.0 5.6 44.7 5.0 M 69.0 5.3 C 64.4 5.6 72.7 6.8 69.0 5.3 C 69.5 5.7 69.1 5.4 69.0 5.3 M 81.0 10.4 C 80.8 8.4 81.1 7.1 82.6 6.4 C 83.9 6.3 82.2 8.6 83.6 6.7 C 82.0 4.9 86.9 4.7 84.7 7.0 C 86.9 9.5 86.8 6.0 87.0 8.4 C 88.0 10.0 88.3 10.3 88.6 10.6 C 88.9 10.8 89.3 11.3 89.5 12.4 C 88.3 14.1 90.7 13.6 89.2 14.4 C 90.7 13.0 89.0 16.8 89.8 16.9 C 90.7 14.6 90.0 26.1 89.4 19.6 C 88.6 22.3 90.0 21.9 90.2 23.0 C 89.2 24.4 91.0 27.8 89.9 29.1 C 89.7 28.8 89.7 28.1 89.3 27.9 C 88.7 27.4 89.4 29.5 89.4 29.3 C 88.9 30.2 87.5 33.6 89.7 30.0 C 90.5 29.9 88.8 32.9 89.6 33.0 C 89.2 34.6 88.5 34.9 88.3 34.8 C 88.0 34.6 88.1 34.3 88.3 35.4 C 87.0 38.1 85.2 39.5 85.1 39.3 C 83.9 40.6 84.0 41.7 82.1 41.6 C 79.5 44.8 79.1 39.0 78.8 42.7 C 77.8 42.0 77.4 44.4 77.2 42.2 C 78.3 43.1 72.1 44.2 74.8 42.5 C 74.1 42.0 69.2 44.8 70.0 42.6 C 68.0 40.9 68.9 39.3 72.4 37.7 C 72.0 39.0 75.8 36.3 73.4 38.5 C 72.1 38.9 73.4 39.1 74.7 39.1 C 75.9 39.0 77.0 38.7 76.4 38.4 C 75.8 35.8 79.5 39.6 79.9 37.3 C 79.4 38.7 83.8 36.5 81.6 35.8 C 82.1 35.1 83.0 35.6 82.6 34.2 C 81.2 36.3 84.9 34.4 83.8 33.9 C 82.9 34.0 83.6 30.5 84.6 31.1 C 87.0 32.8 84.2 30.1 85.3 29.4 C 86.1 27.1 83.0 29.9 85.1 27.9 C 84.8 27.3 84.8 22.9 84.2 25.8 C 84.5 26.8 87.2 22.8 84.9 22.2 C 84.3 25.0 84.1 23.3 84.1 21.3 C 84.2 19.4 84.5 17.6 84.9 18.3 C 86.3 24.5 85.9 12.5 84.9 16.7 C 83.5 14.5 84.7 17.2 84.7 14.7 C 85.5 14.9 85.7 12.8 84.4 13.6 C 83.3 13.7 84.0 13.5 84.4 12.9 C 84.9 12.3 85.0 11.4 83.3 11.5 C 82.1 12.1 81.7 8.5 81.6 10.3 C 81.5 10.5 81.0 10.4 81.0 10.4 M 81.8 10.8 C 81.9 10.2 81.0 10.8 81.8 10.8 M 81.9 10.2 C 81.8 10.2 81.8 10.2 81.9 10.2 C 81.9 10.2 81.9 10.2 81.9 10.2 Z M 84.7 14.3 C 84.6 14.3 84.6 14.3 84.7 14.3 C 84.7 14.3 84.7 14.3 84.7 14.3 Z M 90.7 18.5 C 90.6 18.5 90.6 18.5 90.7 18.5 C 90.7 18.5 90.7 18.5 90.7 18.5 Z M 85.3 17.9 C 85.3 17.8 85.3 17.8 85.3 17.9 C 85.3 17.9 85.3 17.9 85.3 17.9 Z M 84.5 12.5 C 84.5 12.5 84.5 12.5 84.5 12.5 C 84.5 12.5 84.5 12.5 84.5 12.5 Z M 84.4 17.5 C 85.3 17.8 83.8 16.1 84.3 17.6 C 84.4 17.6 84.4 17.4 84.4 17.5 M 84.2 24.5 C 84.3 24.6 84.3 24.6 84.2 24.5 M 87.1 38.7 C 87.1 38.9 87.1 38.9 87.1 38.7 M 81.6 35.0 C 81.6 35.2 81.6 35.2 81.6 35.0 M 84.8 30.3 C 84.5 31.6 85.1 30.7 84.8 30.3 M 79.0 37.1 C 80.3 36.2 77.3 37.2 79.0 37.1 M 77.5 37.0 C 77.3 37.1 77.3 37.1 77.5 37.0 M 83.2 33.4 C 83.3 33.4 83.3 33.4 83.2 33.4 C 83.2 33.4 83.2 33.4 83.2 33.4 Z M 84.5 29.7 C 84.3 27.8 83.6 31.4 84.5 29.7 M 84.1 15.0 C 83.8 16.0 85.1 14.8 84.1 15.0 M 84.0 13.2 C 84.1 13.2 84.1 13.2 84.0 13.2 C 84.0 13.2 84.0 13.2 84.0 13.2 Z M 81.2 35.9 C 81.3 35.8 81.3 35.8 81.2 35.9 C 81.2 35.9 81.2 35.9 81.2 35.9 Z M 79.5 36.7 C 79.6 36.7 79.6 36.7 79.5 36.7 C 79.5 36.7 79.5 36.7 79.5 36.7 Z M 77.5 43.4 C 77.6 43.4 77.6 43.4 77.5 43.4 C 77.5 43.4 77.5 43.4 77.5 43.4 Z M 86.9 13.9 C 86.2 12.6 85.2 15.7 86.6 15.2 C 87.2 15.2 86.8 14.1 86.9 13.9 M 86.5 28.3 C 88.5 28.9 83.7 26.5 86.5 28.3 M 77.5 38.4 C 76.6 41.0 78.8 36.4 77.5 38.4 M 74.4 38.2 C 73.4 38.7 80.2 38.1 75.6 37.8 C 75.1 37.4 74.8 37.9 74.4 38.2 M 85.2 24.7 C 86.3 25.3 84.7 21.1 85.2 24.7 M 86.8 35.5 C 85.7 36.0 83.7 37.4 85.4 37.4 C 86.6 38.4 88.0 34.8 86.8 35.5 M 83.0 10.2 C 82.4 12.4 84.1 9.2 83.0 10.2 M 85.4 15.0 C 85.3 15.1 85.3 15.1 85.4 15.0 C 85.4 15.0 85.4 15.0 85.4 15.0 Z M 85.3 17.2 C 85.5 17.3 85.5 17.3 85.3 17.2 M 82.2 11.9 C 82.4 11.9 82.4 11.9 82.2 11.9 M 85.2 34.5 C 85.3 34.7 85.3 34.7 85.2 34.5 M 85.3 30.0 C 86.9 32.2 85.8 28.9 85.3 30.0 M 89.0 23.0 C 89.9 24.2 89.1 20.6 89.0 23.0 M 84.0 32.8 C 85.0 34.8 86.2 31.6 84.0 32.8 M 85.2 28.8 C 85.2 29.0 85.2 29.0 85.2 28.8 C 85.2 28.8 85.2 28.8 85.2 28.8 Z M 86.6 36.3 C 86.6 36.3 86.6 36.3 86.6 36.3 C 86.6 36.3 86.6 36.3 86.6 36.3 Z M 86.0 37.0 C 86.1 36.9 86.1 36.9 86.0 37.0 C 86.0 37.0 86.0 37.0 86.0 37.0 Z M 82.9 34.2 C 83.0 34.2 83.0 34.2 82.9 34.2 C 82.9 34.2 82.9 34.2 82.9 34.2 Z M 88.3 11.2 C 89.4 13.3 87.9 9.5 88.3 11.2 C 88.3 11.2 88.3 11.2 88.3 11.2 Z M 84.5 19.7 C 85.9 23.1 85.8 17.2 84.5 19.7 C 84.5 19.7 84.5 19.7 84.5 19.7 Z M 86.8 24.2 C 86.9 24.2 86.9 24.2 86.8 24.2 C 86.8 24.2 86.8 24.2 86.8 24.2 Z M 83.2 31.8 C 83.3 31.8 83.3 31.8 83.2 31.8 C 83.2 31.8 83.2 31.8 83.2 31.8 Z M 89.0 12.2 C 89.1 12.2 89.1 12.2 89.0 12.2 C 89.0 12.2 89.0 12.2 89.0 12.2 Z M 80.4 37.6 C 80.4 37.7 80.4 37.7 80.4 37.6 C 80.4 37.6 80.4 37.6 80.4 37.6 Z M 88.7 31.5 C 87.9 32.0 89.2 31.7 88.7 31.5 C 88.7 31.5 88.7 31.5 88.7 31.5 Z M 88.0 34.1 C 88.0 34.2 88.0 34.2 88.0 34.1 C 88.0 34.1 88.0 34.1 88.0 34.1 Z M 77.0 36.9 C 76.9 36.9 76.9 36.9 77.0 36.9 C 77.0 36.9 77.0 36.9 77.0 36.9 Z M 83.6 41.7 C 83.5 41.7 83.5 41.7 83.6 41.7 C 83.6 41.7 83.6 41.7 83.6 41.7 Z M 80.2 41.1 C 80.2 41.1 80.2 41.1 80.2 41.1 C 80.2 41.1 80.2 41.1 80.2 41.1 Z M 83.5 34.1 C 82.0 35.8 84.4 34.1 83.5 34.1 C 83.5 34.1 83.5 34.1 83.5 34.1 Z M 73.6 41.3 C 73.6 41.5 73.6 41.5 73.6 41.3 C 73.6 41.3 73.6 41.3 73.6 41.3 Z M 72.0 39.0 C 71.9 39.1 71.9 39.1 72.0 39.0 C 72.0 39.0 72.0 39.0 72.0 39.0 Z M 71.1 37.8 C 71.0 37.9 71.0 37.9 71.1 37.8 C 71.1 37.8 71.1 37.8 71.1 37.8 Z M 87.8 17.0 C 87.8 17.0 87.8 17.0 87.8 17.0 C 87.8 17.0 87.8 17.0 87.8 17.0 Z M 84.0 16.4 C 83.9 16.4 83.9 16.4 84.0 16.4 C 84.0 16.4 84.0 16.4 84.0 16.4 Z M 83.9 19.9 C 83.9 19.9 83.9 19.9 83.9 19.9 C 83.9 19.9 83.9 19.9 83.9 19.9 Z M 90.1 16.2 C 90.1 16.1 90.1 16.1 90.1 16.2 C 90.1 16.2 90.1 16.2 90.1 16.2 Z M 86.5 31.7 C 86.5 31.7 86.5 31.7 86.5 31.7 C 86.5 31.7 86.5 31.7 86.5 31.7 Z M 87.8 33.2 C 87.7 33.1 87.7 33.1 87.8 33.2 C 87.8 33.2 87.8 33.2 87.8 33.2 Z M 90.4 30.6 C 90.4 30.5 90.4 30.5 90.4 30.6 C 90.4 30.6 90.4 30.6 90.4 30.6 Z M 88.6 34.8 C 88.6 34.7 88.6 34.7 88.6 34.8 C 88.6 34.8 88.6 34.8 88.6 34.8 Z M 85.3 7.0 C 85.3 6.9 85.3 6.9 85.3 7.0 C 85.3 7.0 85.3 7.0 85.3 7.0 Z M 83.1 8.9 C 83.1 8.8 83.1 8.8 83.1 8.9 C 83.1 8.9 83.1 8.9 83.1 8.9 Z M 84.4 31.6 C 83.7 31.8 85.0 32.6 84.4 31.6 M 85.2 27.2 C 85.3 27.2 85.3 27.2 85.2 27.2 C 85.2 27.2 85.2 27.2 85.2 27.2 Z M 80.4 36.9 C 80.5 38.2 81.9 35.4 80.4 36.9 C 80.4 36.9 80.4 36.9 80.4 36.9 Z M 85.6 39.1 C 85.6 39.2 85.6 39.2 85.6 39.1 C 85.6 39.1 85.6 39.1 85.6 39.1 Z M 84.0 39.9 C 84.0 40.0 84.0 40.0 84.0 39.9 C 84.0 39.9 84.0 39.9 84.0 39.9 Z M 76.0 39.3 C 75.9 39.4 75.9 39.4 76.0 39.3 M 84.2 26.5 C 84.7 27.4 84.6 27.2 84.2 26.5 M 79.2 37.5 C 79.3 37.5 79.3 37.5 79.2 37.5 C 79.2 37.5 79.2 37.5 79.2 37.5 Z M 74.4 38.8 C 74.5 38.8 74.5 38.8 74.4 38.8 C 74.4 38.8 74.4 38.8 74.4 38.8 Z M 85.0 21.5 C 86.4 21.7 86.1 20.7 85.0 21.5 M 84.2 12.2 C 84.3 12.1 84.3 12.1 84.2 12.2 C 84.2 12.2 84.2 12.2 84.2 12.2 Z M 65.0 37.8 C 67.9 36.2 68.0 38.4 67.9 38.5 C 67.6 35.5 70.9 39.7 70.1 40.2 C 70.3 40.7 67.8 45.8 65.7 42.7 C 65.2 42.3 64.8 43.2 64.4 43.3 C 60.8 43.2 66.9 41.7 62.5 41.7 C 61.7 42.1 62.6 44.6 60.0 42.9 C 59.9 43.1 56.9 44.0 58.1 42.9 C 56.6 44.0 55.7 42.6 54.4 42.4 C 53.2 43.0 55.4 44.2 51.1 42.8 C 49.3 44.9 48.7 41.3 47.0 43.5 C 45.9 43.6 44.3 39.9 46.8 42.0 C 46.4 41.8 48.0 40.0 44.6 40.6 C 45.1 41.1 47.0 44.9 41.7 43.1 C 40.8 43.2 38.8 42.2 38.3 42.6 C 41.0 43.0 34.6 44.3 35.2 43.1 C 31.0 43.9 33.4 42.2 30.4 43.5 C 27.9 43.5 31.2 41.8 28.1 42.8 C 25.7 42.6 27.3 43.5 27.6 43.4 C 25.5 43.6 24.8 42.9 24.1 43.0 C 23.6 43.2 22.7 44.0 22.2 43.0 C 20.1 41.3 21.9 39.6 20.7 37.9 C 22.7 37.1 21.8 39.2 22.8 37.9 C 23.6 39.0 23.0 37.8 27.3 38.1 C 27.1 38.3 26.1 39.1 27.1 39.2 C 28.8 39.0 27.6 36.1 30.4 38.2 C 27.1 38.8 35.0 39.1 31.9 39.7 C 35.7 40.1 33.0 39.5 35.8 38.8 C 35.6 40.7 36.0 36.7 37.0 38.3 C 37.2 37.5 41.5 37.8 38.5 39.0 C 42.9 39.5 40.1 38.4 41.7 37.4 C 43.8 37.3 41.8 40.6 43.1 38.2 C 45.8 37.1 43.2 39.3 45.2 37.5 C 44.3 39.1 47.1 37.5 46.4 39.3 C 51.0 39.4 45.8 37.3 49.1 38.6 C 48.1 38.7 48.5 36.2 50.4 37.8 C 49.6 40.7 53.0 35.3 51.6 39.1 C 58.0 40.2 52.6 37.5 56.2 37.5 C 57.1 37.5 55.2 38.7 56.0 38.8 C 60.5 38.2 56.8 37.2 59.1 39.1 C 63.6 39.6 60.4 37.5 62.6 37.4 C 62.8 38.3 64.6 39.8 65.0 37.8 M 61.0 38.7 C 60.1 38.1 60.4 39.3 61.0 38.7 M 70.1 37.8 C 68.7 37.2 69.3 38.4 70.1 37.8 M 57.3 38.1 C 56.1 37.5 56.9 39.1 57.3 38.1 M 33.2 39.1 C 34.9 39.1 32.5 38.6 33.2 39.1 M 66.4 37.7 C 65.1 37.0 66.0 38.7 66.4 37.7 M 68.0 39.2 C 67.9 39.2 67.9 39.2 68.0 39.2 M 30.9 37.5 C 30.8 37.6 30.8 37.6 30.9 37.5 M 37.3 37.5 C 35.9 37.5 38.1 37.9 37.3 37.5 M 37.6 43.8 C 36.2 43.8 38.3 44.2 37.6 43.8 M 27.4 37.4 C 26.0 37.0 26.9 38.1 27.4 37.4 M 23.8 38.8 C 22.5 38.3 23.0 39.5 23.8 38.8 M 61.8 40.9 C 61.8 41.0 61.8 41.0 61.8 40.9 C 61.8 40.9 61.8 40.9 61.8 40.9 Z M 50.0 42.4 C 51.4 41.8 48.3 43.2 50.0 42.4 M 52.2 38.3 C 51.2 39.6 54.0 38.2 52.2 38.3 C 52.2 38.3 52.2 38.3 52.2 38.3 Z M 54.2 38.9 C 54.3 39.0 54.3 39.0 54.2 38.9 C 54.2 38.9 54.2 38.9 54.2 38.9 Z M 47.5 39.0 C 47.6 39.0 47.6 39.0 47.5 39.0 C 47.5 39.0 47.5 39.0 47.5 39.0 Z M 48.9 39.1 C 49.5 39.4 49.7 38.8 48.9 39.1 C 48.9 39.1 48.9 39.1 48.9 39.1 Z M 39.2 43.1 C 39.8 43.4 40.0 42.9 39.2 43.1 C 39.2 43.1 39.2 43.1 39.2 43.1 Z M 51.0 39.5 C 51.2 40.8 52.0 38.7 51.0 39.5 C 51.0 39.5 51.0 39.5 51.0 39.5 Z M 43.9 42.6 C 43.3 42.2 42.6 43.8 43.9 42.6 M 29.5 37.8 C 28.9 37.4 28.3 39.0 29.5 37.8 M 43.6 37.4 C 43.0 37.0 42.4 38.6 43.6 37.4 M 60.2 38.1 C 60.1 38.3 60.1 38.3 60.2 38.1 M 52.4 43.7 C 51.5 43.2 51.9 44.2 52.4 43.7 M 65.7 43.2 C 64.8 42.8 65.2 43.8 65.7 43.2 M 31.5 43.6 C 31.6 43.3 30.1 43.8 31.5 43.6 M 42.0 39.4 C 40.7 39.6 39.5 40.3 42.1 40.2 C 42.2 39.9 41.4 39.7 42.0 39.4 C 42.0 39.4 42.0 39.4 42.0 39.4 Z M 37.5 42.3 C 37.4 42.5 37.4 42.5 37.5 42.3 M 39.8 38.3 C 39.6 38.4 39.6 38.4 39.8 38.3 M 32.6 38.4 C 32.4 38.6 32.4 38.6 32.6 38.4 M 31.6 38.0 C 31.7 38.1 31.7 38.1 31.6 38.0 C 31.6 38.0 31.6 38.0 31.6 38.0 Z M 23.7 37.5 C 23.7 37.5 23.7 37.5 23.7 37.5 C 23.7 37.5 23.7 37.5 23.7 37.5 Z M 34.9 38.5 C 34.9 38.6 34.9 38.6 34.9 38.5 C 34.9 38.5 34.9 38.5 34.9 38.5 Z M 28.3 43.4 C 28.3 43.4 28.3 43.4 28.3 43.4 C 28.3 43.4 28.3 43.4 28.3 43.4 Z M 29.1 42.6 C 29.1 42.7 29.1 42.7 29.1 42.6 C 29.1 42.6 29.1 42.6 29.1 42.6 Z M 64.3 37.8 C 63.2 36.9 63.7 40.0 64.3 37.8 M 25.6 42.6 C 24.6 43.5 27.5 42.8 25.6 42.6 C 25.6 42.6 25.6 42.6 25.6 42.6 Z M 35.7 39.6 C 35.6 39.8 35.6 39.8 35.7 39.6 M 31.2 38.1 C 31.1 38.3 31.1 38.3 31.2 38.1 M 52.2 37.2 C 52.1 37.3 52.1 37.3 52.2 37.2 M 25.6 38.4 C 22.2 38.7 27.1 40.2 25.6 38.4 M 53.8 38.4 C 53.8 38.3 53.8 38.3 53.8 38.4 M 46.2 40.8 C 43.9 40.7 47.0 41.5 46.2 40.8 M 40.4 39.1 C 40.5 39.2 40.5 39.2 40.4 39.1 C 40.4 39.1 40.4 39.1 40.4 39.1 Z M 43.8 39.2 C 45.4 39.3 44.2 38.8 43.8 39.2 C 43.8 39.2 43.8 39.2 43.8 39.2 Z M 62.7 39.0 C 60.6 39.1 64.9 39.4 62.7 39.0 C 62.7 39.0 62.7 39.0 62.7 39.0 Z M 27.2 41.3 C 27.2 41.4 27.2 41.4 27.2 41.3 C 27.2 41.3 27.2 41.3 27.2 41.3 Z M 35.3 37.6 C 36.3 38.0 35.7 37.3 35.3 37.6 C 35.3 37.6 35.3 37.6 35.3 37.6 Z M 22.5 37.5 C 23.5 37.8 23.0 37.1 22.5 37.5 C 22.5 37.5 22.5 37.5 22.5 37.5 Z M 65.3 38.7 C 57.5 40.9 75.7 38.2 65.3 38.7 C 65.3 38.7 65.3 38.7 65.3 38.7 Z M 42.4 38.3 C 42.5 38.4 42.5 38.4 42.4 38.3 C 42.4 38.3 42.4 38.3 42.4 38.3 Z M 56.9 37.4 C 56.9 37.5 56.9 37.5 56.9 37.4 C 56.9 37.4 56.9 37.4 56.9 37.4 Z M 59.3 38.6 C 59.4 38.6 59.4 38.6 59.3 38.6 C 59.3 38.6 59.3 38.6 59.3 38.6 Z M 58.6 43.5 C 58.7 43.6 58.7 43.6 58.6 43.5 C 58.6 43.5 58.6 43.5 58.6 43.5 Z M 57.8 41.3 C 57.9 41.4 57.9 41.4 57.8 41.3 C 57.8 41.3 57.8 41.3 57.8 41.3 Z M 62.8 42.1 C 62.9 42.2 62.9 42.2 62.8 42.1 C 62.8 42.1 62.8 42.1 62.8 42.1 Z M 62.7 42.8 C 62.8 42.8 62.8 42.8 62.7 42.8 C 62.7 42.8 62.7 42.8 62.7 42.8 Z M 31.2 39.5 C 31.3 39.6 31.3 39.6 31.2 39.5 C 31.2 39.5 31.2 39.5 31.2 39.5 Z M 33.9 41.6 C 32.1 40.9 34.4 42.7 33.9 41.6 C 33.9 41.6 33.9 41.6 33.9 41.6 Z M 50.0 40.6 C 48.3 40.3 51.1 41.2 50.0 40.6 C 50.0 40.6 50.0 40.6 50.0 40.6 Z M 48.2 43.3 C 48.2 43.3 48.2 43.3 48.2 43.3 C 48.2 43.3 48.2 43.3 48.2 43.3 Z M 59.3 37.4 C 59.4 37.5 59.4 37.5 59.3 37.4 C 59.3 37.4 59.3 37.4 59.3 37.4 Z M 62.4 38.2 C 62.5 39.3 63.3 37.7 62.4 38.2 M 46.9 37.6 C 46.9 37.7 46.9 37.7 46.9 37.6 C 46.9 37.6 46.9 37.6 46.9 37.6 Z M 37.1 39.3 C 37.1 39.3 37.1 39.3 37.1 39.3 C 37.1 39.3 37.1 39.3 37.1 39.3 Z M 27.4 38.6 C 27.4 38.7 27.4 38.7 27.4 38.6 C 27.4 38.6 27.4 38.6 27.4 38.6 Z M 40.8 37.7 C 40.9 37.9 40.9 37.9 40.8 37.7 C 40.8 37.7 40.8 37.7 40.8 37.7 Z M 45.4 38.7 C 45.5 38.8 45.5 38.8 45.4 38.7 C 45.4 38.7 45.4 38.7 45.4 38.7 Z M 25.3 40.1 C 25.3 40.1 25.3 40.1 25.3 40.1 C 25.3 40.1 25.3 40.1 25.3 40.1 Z M 39.7 37.6 C 39.8 37.6 39.8 37.6 39.7 37.6 C 39.7 37.6 39.7 37.6 39.7 37.6 Z M 36.9 40.9 C 37.0 41.0 37.0 41.0 36.9 40.9 C 36.9 40.9 36.9 40.9 36.9 40.9 Z M 61.9 36.7 C 62.0 36.8 62.0 36.8 61.9 36.7 C 61.9 36.7 61.9 36.7 61.9 36.7 Z M 25.2 38.7 C 25.2 38.7 25.2 38.7 25.2 38.7 C 25.2 38.7 25.2 38.7 25.2 38.7 Z M 24.6 37.7 C 24.6 37.8 24.6 37.8 24.6 37.7 C 24.6 37.7 24.6 37.7 24.6 37.7 Z M 31.4 42.7 C 34.9 42.1 28.4 42.5 30.9 41.3 C 25.9 41.1 30.7 42.8 31.4 42.7 C 31.4 42.7 31.4 42.7 31.4 42.7 Z M 19.3 37.3 C 21.5 38.8 21.7 40.1 20.6 41.6 C 19.4 42.3 19.5 39.5 19.4 41.9 C 22.1 42.3 18.3 45.5 18.4 42.4 C 15.2 41.9 17.7 44.4 16.1 43.0 C 13.0 42.5 14.5 43.6 12.3 42.9 C 11.4 41.0 10.5 43.3 10.5 41.5 C 11.1 43.7 8.1 39.7 7.6 40.2 C 8.3 41.5 6.2 40.0 5.1 38.3 C 3.9 36.7 3.4 35.5 5.7 37.8 C 4.6 35.2 3.9 36.4 3.3 35.6 C 3.6 34.0 1.2 31.8 2.1 30.3 C 2.3 30.5 2.5 31.2 2.8 31.3 C 3.6 31.6 2.5 29.9 2.6 30.1 C 2.9 29.1 3.6 25.4 2.1 29.4 C 1.3 29.7 2.4 26.0 1.6 26.1 C 1.5 22.1 3.3 25.2 2.0 23.0 C 2.0 19.6 2.1 17.9 2.3 17.9 C 2.1 16.3 1.2 15.9 2.3 14.8 C 0.9 11.7 5.9 14.3 3.0 11.7 C 4.2 11.0 2.6 9.1 4.4 10.3 C 3.0 10.8 6.8 4.5 6.0 7.9 C 6.9 7.6 9.2 2.7 9.7 5.0 C 11.9 5.7 11.5 7.5 10.7 10.0 C 10.2 8.9 9.8 12.7 9.6 9.8 C 10.7 7.9 6.7 12.4 8.0 11.8 C 10.4 12.9 5.4 14.0 7.1 15.4 C 6.2 14.3 5.2 19.3 7.2 17.8 C 7.3 18.8 6.4 19.0 7.5 20.4 C 7.4 16.2 5.5 22.2 6.7 21.9 C 7.4 21.1 8.1 27.6 6.9 27.1 C 4.2 25.3 7.5 28.4 6.5 29.2 C 6.1 31.7 8.7 28.6 7.0 30.5 C 7.4 30.9 8.0 33.3 8.2 31.7 C 7.7 31.2 6.1 34.5 8.2 33.6 C 8.0 31.9 8.6 32.7 9.1 33.7 C 9.7 34.6 10.5 35.8 9.8 35.7 C 5.4 33.2 13.4 39.9 10.8 36.6 C 13.4 36.8 10.4 36.3 12.6 37.6 C 12.1 38.2 13.8 39.4 13.7 37.9 C 14.6 35.8 14.0 41.0 16.0 38.1 C 16.4 36.8 20.3 39.2 18.7 37.7 C 18.6 37.6 19.2 37.3 19.3 37.3 M 18.0 37.6 C 18.4 38.1 18.8 37.0 18.0 37.6 M 18.5 38.1 C 18.5 38.0 18.5 38.0 18.5 38.1 C 18.5 38.1 18.5 38.1 18.5 38.1 Z M 12.9 37.8 C 13.0 37.7 13.0 37.7 12.9 37.8 C 12.9 37.8 12.9 37.8 12.9 37.8 Z M 5.5 39.6 C 5.6 39.6 5.6 39.6 5.5 39.6 C 5.5 39.6 5.5 39.6 5.5 39.6 Z M 9.8 36.2 C 9.8 36.2 9.8 36.2 9.8 36.2 C 9.8 36.2 9.8 36.2 9.8 36.2 Z M 14.6 38.5 C 14.6 38.5 14.6 38.5 14.6 38.5 C 14.6 38.5 14.6 38.5 14.6 38.5 Z M 10.6 35.8 C 9.8 36.3 11.8 36.0 10.6 35.7 C 10.5 35.7 10.7 35.8 10.6 35.8 M 8.4 32.2 C 8.3 32.2 8.3 32.2 8.4 32.2 M 1.2 19.5 C 1.1 19.4 1.1 19.4 1.2 19.5 M 7.8 18.5 C 7.7 18.3 7.7 18.3 7.8 18.5 M 6.9 28.2 C 6.9 26.5 6.5 27.8 6.9 28.2 M 7.7 14.7 C 7.9 16.3 8.5 13.2 7.7 14.7 M 8.5 13.5 C 8.5 13.4 8.5 13.4 8.5 13.5 M 7.4 22.3 C 7.4 22.4 7.4 22.4 7.4 22.3 C 7.4 22.3 7.4 22.3 7.4 22.3 Z M 7.3 28.8 C 7.9 30.8 7.9 26.7 7.3 28.8 M 12.7 36.9 C 12.0 36.2 12.4 37.9 12.7 36.9 M 14.3 37.8 C 14.3 37.8 14.3 37.8 14.3 37.8 C 14.3 37.8 14.3 37.8 14.3 37.8 Z M 7.4 17.4 C 7.4 17.5 7.4 17.5 7.4 17.4 C 7.4 17.4 7.4 17.4 7.4 17.4 Z M 7.7 15.4 C 7.7 15.5 7.7 15.5 7.7 15.4 C 7.7 15.4 7.7 15.4 7.7 15.4 Z M 3.2 9.8 C 3.2 9.9 3.2 9.9 3.2 9.8 C 3.2 9.8 3.2 9.8 3.2 9.8 Z M 12.3 39.9 C 13.7 39.9 11.5 37.4 11.2 38.9 C 10.7 39.4 12.1 39.7 12.3 39.9 M 5.6 30.4 C 3.5 30.3 8.6 31.4 5.6 30.4 M 7.4 12.7 C 5.7 10.4 8.2 15.2 7.4 12.7 M 9.3 10.6 C 9.5 9.6 6.1 14.5 9.0 11.6 C 9.5 11.5 9.3 11.0 9.3 10.6 M 7.4 32.5 C 6.2 32.5 8.6 34.4 7.4 32.5 M 3.2 22.1 C 4.0 20.9 4.6 18.3 3.4 19.5 C 1.8 19.5 2.6 23.5 3.2 22.1 M 17.4 38.7 C 16.0 36.8 17.4 40.3 17.4 38.7 M 12.0 38.0 C 12.0 37.9 12.0 37.9 12.0 38.0 C 12.0 38.0 12.0 38.0 12.0 38.0 Z M 10.2 36.6 C 10.0 36.7 10.0 36.7 10.2 36.6 M 16.5 37.1 C 16.3 37.2 16.3 37.2 16.5 37.1 M 5.1 22.2 C 5.0 22.0 5.0 22.0 5.1 22.2 M 6.4 28.7 C 4.5 26.4 6.1 30.0 6.4 28.7 M 4.3 35.0 C 3.2 34.6 5.1 36.8 4.3 35.0 M 7.0 23.9 C 5.3 21.3 5.4 27.3 7.0 23.9 M 6.7 29.8 C 6.7 29.6 6.7 29.6 6.7 29.8 C 6.7 29.8 6.7 29.8 6.7 29.8 Z M 3.0 21.2 C 3.0 21.3 3.0 21.3 3.0 21.2 C 3.0 21.2 3.0 21.2 3.0 21.2 Z M 3.1 20.2 C 3.1 20.3 3.1 20.3 3.1 20.2 C 3.1 20.2 3.1 20.2 3.1 20.2 Z M 7.2 20.7 C 7.2 20.8 7.2 20.8 7.2 20.7 C 7.2 20.7 7.2 20.7 7.2 20.7 Z M 13.6 42.5 C 11.9 42.3 14.9 43.0 13.6 42.5 C 13.6 42.5 13.6 42.5 13.6 42.5 Z M 9.4 34.7 C 6.9 33.8 9.5 36.8 9.4 34.7 C 9.4 34.7 9.4 34.7 9.4 34.7 Z M 6.0 33.3 C 5.9 33.3 5.9 33.3 6.0 33.3 C 6.0 33.3 6.0 33.3 6.0 33.3 Z M 8.1 25.4 C 8.0 25.4 8.0 25.4 8.1 25.4 C 8.1 25.4 8.1 25.4 8.1 25.4 Z M 12.7 42.5 C 12.7 42.6 12.7 42.6 12.7 42.5 C 12.7 42.5 12.7 42.5 12.7 42.5 Z M 6.6 15.6 C 6.5 15.6 6.5 15.6 6.6 15.6 C 6.6 15.6 6.6 15.6 6.6 15.6 Z M 2.8 27.6 C 3.4 26.9 2.3 27.5 2.8 27.6 C 2.8 27.6 2.8 27.6 2.8 27.6 Z M 2.8 24.3 C 2.8 24.2 2.8 24.2 2.8 24.3 C 2.8 24.3 2.8 24.3 2.8 24.3 Z M 8.8 13.1 C 8.9 13.1 8.9 13.1 8.8 13.1 C 8.8 13.1 8.8 13.1 8.8 13.1 Z M 1.3 15.7 C 1.4 15.6 1.4 15.6 1.3 15.7 C 1.3 15.7 1.3 15.7 1.3 15.7 Z M 3.7 13.8 C 3.6 13.8 3.6 13.8 3.7 13.8 C 3.7 13.8 3.7 13.8 3.7 13.8 Z M 6.8 21.4 C 7.2 17.8 6.0 22.2 6.8 21.4 C 6.8 21.4 6.8 21.4 6.8 21.4 Z M 7.6 7.8 C 7.6 7.7 7.6 7.7 7.6 7.8 C 7.6 7.8 7.6 7.8 7.6 7.8 Z M 10.2 8.8 C 10.2 8.7 10.2 8.7 10.2 8.8 C 10.2 8.8 10.2 8.8 10.2 8.8 Z M 11.4 9.5 C 11.3 9.4 11.3 9.4 11.4 9.5 C 11.4 9.5 11.4 9.5 11.4 9.5 Z M 8.7 38.7 C 8.8 38.6 8.8 38.6 8.7 38.7 C 8.7 38.7 8.7 38.7 8.7 38.7 Z M 11.6 36.0 C 11.7 36.0 11.7 36.0 11.6 36.0 C 11.6 36.0 11.6 36.0 11.6 36.0 Z M 9.8 34.2 C 9.8 34.2 9.8 34.2 9.8 34.2 C 9.8 34.2 9.8 34.2 9.8 34.2 Z M 8.0 41.0 C 8.1 41.0 8.1 41.0 8.0 41.0 C 8.0 41.0 8.0 41.0 8.0 41.0 Z M 4.9 26.8 C 4.9 26.8 4.9 26.8 4.9 26.8 C 4.9 26.8 4.9 26.8 4.9 26.8 Z M 3.3 25.2 C 3.4 25.3 3.4 25.3 3.3 25.2 C 3.3 25.2 3.3 25.2 3.3 25.2 Z M 1.3 29.0 C 1.4 29.0 1.4 29.0 1.3 29.0 C 1.3 29.0 1.3 29.0 1.3 29.0 Z M 2.0 23.9 C 2.0 23.9 2.0 23.9 2.0 23.9 C 2.0 23.9 2.0 23.9 2.0 23.9 Z M 18.0 42.7 C 18.0 42.8 18.0 42.8 18.0 42.7 C 18.0 42.7 18.0 42.7 18.0 42.7 Z M 18.4 39.8 C 18.4 39.9 18.4 39.9 18.4 39.8 C 18.4 39.8 18.4 39.8 18.4 39.8 Z M 7.0 26.3 C 7.6 25.5 6.1 24.8 7.0 26.3 M 7.0 31.0 C 6.9 31.0 6.9 31.0 7.0 31.0 C 7.0 31.0 7.0 31.0 7.0 31.0 Z M 7.1 16.0 C 6.0 15.3 7.4 18.0 7.1 16.0 C 7.1 16.0 7.1 16.0 7.1 16.0 Z M 2.0 18.4 C 2.0 18.3 2.0 18.3 2.0 18.4 C 2.0 18.4 2.0 18.4 2.0 18.4 Z M 2.6 16.9 C 2.5 16.8 2.5 16.8 2.6 16.9 C 2.6 16.9 2.6 16.9 2.6 16.9 Z M 7.5 11.0 C 7.5 10.8 7.5 10.8 7.5 11.0 M 8.1 31.3 C 7.5 30.9 7.6 30.9 8.1 31.3 M 7.2 14.7 C 7.2 14.7 7.2 14.7 7.2 14.7 C 7.2 14.7 7.2 14.7 7.2 14.7 Z M 8.9 10.2 C 8.9 10.2 8.9 10.2 8.9 10.2 C 8.9 10.2 8.9 10.2 8.9 10.2 Z M 8.4 34.0 C 7.1 34.7 7.7 35.0 8.4 34.0 M 15.0 38.4 C 15.0 38.5 15.0 38.5 15.0 38.4 C 15.0 38.4 15.0 38.4 15.0 38.4 Z M 15.0 38.4 " fill="#71AFE1"></path></g></g></g></svg>