<?xml version="1.0" encoding="UTF-8" standalone="no"?><svg xmlns="http://www.w3.org/2000/svg" xmlns:xlink="http://www.w3.org/1999/xlink" clip-rule="evenodd" stroke-miterlimit="4.00" viewBox="0 0 248 93"><desc>SVG generated by Keynote</desc><defs></defs><g transform="matrix(1.00, 0.00, -0.00, -1.00, 0.0, 93.0)"><g><clipPath id="clip-607"><path d="M 247.7 84.4 L 104.8 0.5 L 100.3 8.2 L 243.2 92.2 Z M 247.7 84.4 "></path></clipPath><g clip-path="url(#clip-607)"><path d="M 230.2 81.3 C 230.6 81.3 231.2 82.0 231.5 82.0 M 230.2 81.3 C 230.3 82.9 231.5 83.7 233.2 85.0 C 235.1 86.1 233.7 83.9 234.2 83.6 C 237.0 84.6 236.5 85.4 235.5 86.4 C 236.9 86.1 238.9 89.3 239.2 87.4 C 235.2 85.0 242.2 88.7 239.4 85.9 C 239.1 85.4 240.4 85.6 240.7 85.8 C 240.0 84.5 242.3 85.0 240.8 83.5 C 241.1 82.4 241.2 83.0 240.4 81.6 C 240.0 81.2 240.0 81.6 240.0 81.9 C 239.1 82.9 238.9 80.4 237.6 80.6 C 237.6 78.6 235.7 79.8 236.1 80.8 C 235.3 80.2 235.2 78.1 233.7 78.6 C 233.7 77.6 231.1 76.8 231.9 78.4 C 232.6 79.6 231.2 79.4 230.9 79.6 C 231.0 80.2 232.7 80.5 232.8 80.9 C 232.2 80.9 230.1 80.4 232.0 81.4 C 231.1 81.6 231.9 82.4 230.2 81.3 C 230.2 81.3 230.2 81.3 230.2 81.3 Z M 236.5 86.2 C 236.3 86.6 235.9 85.8 236.5 86.2 C 236.5 86.2 236.5 86.2 236.5 86.2 Z M 234.9 78.3 C 234.7 78.7 234.3 77.9 234.9 78.3 C 234.9 78.3 234.9 78.3 234.9 78.3 Z M 239.6 81.6 C 239.4 82.0 239.0 81.3 239.6 81.6 C 239.6 81.6 239.6 81.6 239.6 81.6 Z M 234.9 84.9 C 234.0 83.9 236.1 84.9 236.1 85.3 C 235.9 85.1 235.0 85.3 234.9 84.9 C 234.9 84.9 234.9 84.9 234.9 84.9 Z M 236.1 82.6 C 235.9 82.7 235.4 82.5 235.7 82.1 C 236.0 82.2 236.2 82.5 236.1 82.6 C 236.1 82.6 236.1 82.6 236.1 82.6 Z M 240.5 87.3 C 240.3 87.4 239.8 87.2 240.1 86.8 C 240.4 86.9 240.6 87.2 240.5 87.3 C 240.5 87.3 240.5 87.3 240.5 87.3 Z M 234.3 83.1 C 234.0 82.9 234.1 82.5 234.5 82.7 C 234.5 82.9 235.3 83.4 234.3 83.1 C 234.3 83.1 234.3 83.1 234.3 83.1 Z M 231.8 83.4 C 231.1 82.7 233.2 83.2 233.1 83.4 C 233.2 83.8 232.2 84.0 231.8 83.4 C 231.8 83.4 231.8 83.4 231.8 83.4 Z M 234.1 82.3 C 233.4 81.7 234.5 82.2 234.1 82.3 C 234.1 82.3 234.1 82.3 234.1 82.3 Z M 241.4 84.0 C 240.8 83.4 241.9 83.9 241.4 84.0 C 241.4 84.0 241.4 84.0 241.4 84.0 Z M 238.2 80.5 C 237.5 79.9 238.6 80.4 238.2 80.5 C 238.2 80.5 238.2 80.5 238.2 80.5 Z M 237.3 85.3 C 238.6 86.1 236.9 86.4 237.3 85.3 C 237.3 85.3 237.3 85.3 237.3 85.3 Z M 229.7 82.3 C 231.0 83.1 229.3 83.4 229.7 82.3 C 229.7 82.3 229.7 82.3 229.7 82.3 Z M 107.0 9.7 C 105.7 9.2 109.6 13.2 108.7 10.7 C 108.9 9.1 112.0 11.1 110.5 11.8 C 111.3 12.4 111.3 12.5 112.2 12.2 C 111.8 13.2 113.7 15.0 114.7 15.0 C 115.7 14.5 113.3 14.0 115.1 13.9 C 117.9 15.3 115.4 12.9 117.0 12.5 C 117.2 12.6 116.9 13.1 117.3 13.0 C 118.0 12.1 116.8 10.5 117.9 10.2 C 117.4 10.1 116.1 7.9 116.4 9.2 C 116.2 10.3 114.9 6.9 114.2 8.5 C 113.9 7.4 112.7 7.9 112.6 6.7 C 112.2 6.3 111.7 7.0 111.7 7.3 C 111.3 8.0 112.0 5.4 110.5 6.1 C 110.7 5.7 108.4 4.6 109.7 6.1 C 109.3 5.7 107.0 3.9 107.5 6.0 C 108.9 7.7 104.9 6.3 106.9 7.6 C 108.4 8.7 108.9 8.6 107.3 8.6 C 107.0 8.3 105.1 7.4 106.3 8.9 C 106.7 8.9 107.4 9.5 107.0 9.7 C 107.0 9.7 107.0 9.7 107.0 9.7 Z M 107.8 7.6 C 108.7 8.0 107.6 8.1 107.8 7.6 C 107.8 7.6 107.8 7.6 107.8 7.6 Z M 112.9 6.5 C 113.8 7.0 112.7 7.1 112.9 6.5 C 112.9 6.5 112.9 6.5 112.9 6.5 Z M 109.6 11.7 C 110.3 11.6 109.7 13.1 109.6 11.7 C 109.6 11.7 109.6 11.7 109.6 11.7 Z M 110.7 6.7 C 110.8 6.7 110.4 6.8 110.2 6.8 C 110.3 6.7 110.6 6.7 110.7 6.7 C 110.7 6.7 110.7 6.7 110.7 6.7 Z M 111.2 12.7 C 112.9 12.8 110.8 13.9 111.2 12.7 C 111.2 12.7 111.2 12.7 111.2 12.7 Z M 114.7 13.0 C 115.7 11.7 116.0 14.1 114.7 13.0 C 114.7 13.0 114.7 13.0 114.7 13.0 Z M 114.6 8.8 C 114.2 9.0 114.4 8.5 114.6 8.8 C 114.6 8.8 114.6 8.8 114.6 8.8 Z M 108.7 5.1 C 108.3 5.3 108.6 4.8 108.7 5.1 C 108.7 5.1 108.7 5.1 108.7 5.1 Z M 116.2 9.9 C 115.8 10.4 115.9 9.4 116.2 9.9 C 116.2 9.9 116.2 9.9 116.2 9.9 Z M 110.2 11.3 C 108.3 11.7 109.6 8.8 110.2 11.3 C 110.2 11.3 110.2 11.3 110.2 11.3 Z M 107.9 10.1 C 106.9 9.8 108.5 9.5 108.7 9.9 C 108.6 10.0 108.1 10.1 107.9 10.1 C 107.9 10.1 107.9 10.1 107.9 10.1 Z M 111.6 12.0 C 110.4 12.0 111.0 11.2 111.6 12.0 C 111.6 12.0 111.6 12.0 111.6 12.0 Z M 109.1 11.3 C 108.7 10.9 109.5 11.4 109.1 11.3 C 109.1 11.3 109.1 11.3 109.1 11.3 Z M 112.6 14.1 C 112.3 13.8 113.1 14.2 112.6 14.1 C 112.6 14.1 112.6 14.1 112.6 14.1 Z M 106.5 10.1 C 106.2 9.7 107.0 10.1 106.5 10.1 C 106.5 10.1 106.5 10.1 106.5 10.1 Z M 112.7 13.2 C 113.1 12.8 112.6 11.0 114.2 13.2 C 114.4 13.8 113.0 13.9 112.7 13.2 C 112.7 13.2 112.7 13.2 112.7 13.2 Z M 226.6 79.2 C 230.9 83.8 231.2 80.3 231.8 80.0 C 232.9 79.7 232.5 78.8 231.8 77.7 C 231.7 75.3 229.1 78.5 229.3 76.3 C 229.2 73.2 226.5 77.4 227.4 74.6 C 227.9 74.1 225.6 73.4 225.7 73.7 C 225.4 71.9 222.7 73.1 222.6 73.3 C 222.1 72.6 223.3 70.4 220.2 70.8 C 218.3 70.4 218.8 67.9 218.4 69.6 C 218.2 67.2 217.3 69.6 216.4 68.4 C 216.1 67.0 215.6 69.7 215.1 67.1 C 213.7 68.1 216.3 66.6 211.7 65.2 C 213.6 66.5 209.2 65.2 210.5 64.8 C 212.5 64.6 208.4 64.0 207.0 62.3 C 206.2 62.6 203.2 62.5 204.4 61.4 C 203.5 58.7 201.9 61.2 201.9 59.4 C 201.6 58.5 200.6 59.6 200.3 59.2 C 200.2 57.8 199.2 58.1 197.0 56.5 C 192.2 53.0 194.8 58.6 192.6 57.7 C 192.0 58.0 193.0 62.9 193.3 59.8 C 193.2 60.7 198.9 60.7 195.2 62.1 C 197.5 62.0 194.3 63.0 198.2 63.6 C 194.9 59.1 203.7 65.8 198.9 64.2 C 199.3 65.2 201.1 66.1 200.1 64.9 C 200.6 62.9 202.7 67.5 202.1 64.4 C 204.5 66.5 204.9 64.2 204.9 66.0 C 204.2 68.6 205.1 65.3 206.1 66.8 C 209.3 68.7 205.3 69.8 208.2 69.2 C 210.7 72.2 209.5 68.7 210.7 69.0 C 211.9 67.6 213.2 72.1 210.7 70.9 C 212.4 70.8 210.5 71.8 212.5 71.6 C 212.3 69.6 213.4 74.2 213.7 72.8 C 215.2 73.2 215.0 72.0 215.4 72.2 C 217.3 73.3 215.9 74.3 216.9 73.5 C 217.7 73.2 217.5 75.6 218.0 75.2 C 216.1 74.0 220.5 74.7 220.3 75.6 C 219.0 75.0 219.8 77.8 221.2 77.1 C 222.1 73.4 222.5 78.9 224.0 78.3 C 224.2 76.1 228.4 80.7 226.0 80.3 C 226.2 80.2 226.6 79.1 226.6 79.2 M 218.8 75.3 C 217.2 74.2 220.7 76.0 218.8 75.3 M 218.5 75.8 C 218.2 74.8 219.8 77.1 218.4 76.0 C 218.3 75.9 218.6 75.9 218.5 75.8 M 211.9 72.0 C 212.3 71.6 212.6 72.8 211.9 72.0 M 211.2 70.1 C 210.4 69.1 212.7 70.9 211.2 70.1 M 196.3 61.8 C 199.3 60.1 197.0 64.2 196.3 61.8 M 205.7 68.1 C 207.7 68.8 204.5 68.8 205.7 68.1 M 206.6 67.8 C 207.7 67.8 206.5 68.5 206.6 67.8 M 199.1 63.5 C 199.0 63.4 199.0 63.4 199.1 63.5 C 199.1 63.5 199.1 63.5 199.1 63.5 Z M 194.8 60.9 C 194.7 60.9 194.7 60.9 194.8 60.9 C 194.8 60.9 194.8 60.9 194.8 60.9 Z M 203.5 65.7 C 204.5 67.1 201.1 64.7 203.5 65.7 C 203.5 65.7 203.5 65.7 203.5 65.7 Z M 199.2 58.2 C 199.3 58.2 199.3 58.2 199.2 58.2 C 199.2 58.2 199.2 58.2 199.2 58.2 Z M 220.7 74.9 C 220.8 74.9 220.8 74.9 220.7 74.9 C 220.7 74.9 220.7 74.9 220.7 74.9 Z M 225.1 78.8 C 225.2 78.4 225.8 79.6 225.1 78.8 C 225.1 78.8 225.1 78.8 225.1 78.8 Z M 230.9 78.2 C 230.9 78.2 230.9 78.2 230.9 78.2 C 230.9 78.2 230.9 78.2 230.9 78.2 Z M 223.2 74.5 C 223.3 74.5 223.3 74.5 223.2 74.5 C 223.2 74.5 223.2 74.5 223.2 74.5 Z M 221.3 76.0 C 221.3 77.9 219.7 74.5 221.3 76.0 C 221.3 76.0 221.3 76.0 221.3 76.0 Z M 207.3 63.1 C 206.8 63.7 206.2 62.2 207.3 63.1 C 207.3 63.1 207.3 63.1 207.3 63.1 Z M 211.4 69.5 C 211.0 69.7 210.7 68.9 211.4 69.5 C 211.4 69.5 211.4 69.5 211.4 69.5 Z M 213.0 73.0 C 212.6 73.2 212.3 72.4 213.0 73.0 C 213.0 73.0 213.0 73.0 213.0 73.0 Z M 224.8 79.1 C 224.6 79.2 224.6 79.2 224.8 79.1 C 224.8 79.1 224.8 79.1 224.8 79.1 Z M 223.7 77.0 C 224.1 79.1 222.2 75.2 223.7 77.0 C 223.7 77.0 223.7 77.0 223.7 77.0 Z M 226.0 77.9 C 225.6 77.0 227.4 79.0 226.0 77.9 M 226.0 75.1 C 224.1 74.8 228.7 73.5 226.0 75.1 C 226.0 75.1 226.0 75.1 226.0 75.1 Z M 218.6 70.1 C 218.6 70.0 218.6 70.0 218.6 70.1 C 218.6 70.1 218.6 70.1 218.6 70.1 Z M 217.2 74.4 C 215.9 73.6 218.2 74.6 217.2 74.4 C 217.2 74.4 217.2 74.4 217.2 74.4 Z M 228.5 81.5 C 227.2 80.7 229.5 81.7 228.5 81.5 C 228.5 81.5 228.5 81.5 228.5 81.5 Z M 213.4 68.8 C 211.1 67.7 215.2 68.8 213.4 68.8 C 213.4 68.8 213.4 68.8 213.4 68.8 Z M 204.5 65.6 C 204.5 65.6 204.5 65.6 204.5 65.6 C 204.5 65.6 204.5 65.6 204.5 65.6 Z M 202.7 65.3 C 202.7 65.3 202.7 65.3 202.7 65.3 C 202.7 65.3 202.7 65.3 202.7 65.3 Z M 197.4 60.3 C 197.3 60.2 197.3 60.2 197.4 60.3 C 197.4 60.3 197.4 60.3 197.4 60.3 Z M 201.0 65.2 C 201.0 65.1 201.0 65.1 201.0 65.2 C 201.0 65.2 201.0 65.2 201.0 65.2 Z M 197.0 62.3 C 196.9 62.2 196.9 62.2 197.0 62.3 C 197.0 62.3 197.0 62.3 197.0 62.3 Z M 196.9 63.8 C 196.8 63.7 196.8 63.7 196.9 63.8 C 196.9 63.8 196.9 63.8 196.9 63.8 Z M 209.8 63.6 C 209.7 63.5 209.7 63.5 209.8 63.6 C 209.8 63.6 209.8 63.6 209.8 63.6 Z M 222.2 78.2 C 222.1 78.0 222.1 78.0 222.2 78.2 C 222.2 78.2 222.2 78.2 222.2 78.2 Z M 197.6 62.0 C 197.6 61.9 197.6 61.9 197.6 62.0 C 197.6 62.0 197.6 62.0 197.6 62.0 Z M 208.7 67.1 C 209.3 65.9 208.7 69.1 208.4 67.0 C 208.5 66.9 208.6 67.3 208.7 67.1 M 208.4 64.4 C 208.4 64.4 208.4 64.4 208.4 64.4 C 208.4 64.4 208.4 64.4 208.4 64.4 Z M 213.5 66.4 C 213.6 66.4 213.6 66.4 213.5 66.4 C 213.5 66.4 213.5 66.4 213.5 66.4 Z M 201.6 65.8 C 201.5 66.6 200.8 64.7 201.8 65.9 M 198.5 58.3 C 198.3 59.0 197.6 57.1 198.7 58.4 M 230.3 82.0 C 230.7 81.6 231.0 82.8 230.3 82.0 M 214.9 66.5 C 215.4 66.1 215.6 67.3 214.9 66.5 M 211.9 66.6 C 211.7 67.4 211.0 65.4 212.1 66.7 M 201.7 60.2 C 201.7 60.2 201.7 60.2 201.7 60.2 C 201.7 60.2 201.7 60.2 201.7 60.2 Z M 215.2 73.1 C 215.2 73.1 215.2 73.1 215.2 73.1 C 215.2 73.1 215.2 73.1 215.2 73.1 Z M 210.2 68.4 C 210.5 69.7 209.5 67.2 210.2 68.4 M 217.8 72.6 C 218.3 74.4 216.2 71.2 217.8 72.6 M 196.2 56.6 C 196.7 58.6 195.7 55.3 196.2 56.6 M 200.6 63.6 C 201.1 65.6 200.1 62.3 200.6 63.6 M 214.4 71.9 C 214.0 72.6 213.3 70.7 214.4 71.9 M 227.2 80.3 C 228.3 81.2 225.3 79.9 227.2 80.3 M 204.9 62.0 C 204.8 62.0 204.8 62.0 204.9 62.0 C 204.9 62.0 204.9 62.0 204.9 62.0 Z M 226.1 73.0 C 226.1 72.9 226.1 72.9 226.1 73.0 C 226.1 73.0 226.1 73.0 226.1 73.0 Z M 192.0 59.9 C 192.0 59.8 192.0 59.8 192.0 59.9 C 192.0 59.9 192.0 59.9 192.0 59.9 Z M 201.8 63.4 C 201.8 63.3 201.8 63.3 201.8 63.4 C 201.8 63.4 201.8 63.4 201.8 63.4 Z M 194.4 61.5 C 194.4 61.4 194.4 61.4 194.4 61.5 C 194.4 61.5 194.4 61.5 194.4 61.5 Z M 206.4 64.8 C 206.4 64.7 206.4 64.7 206.4 64.8 C 206.4 64.8 206.4 64.8 206.4 64.8 Z M 205.2 68.6 C 205.2 68.5 205.2 68.5 205.2 68.6 C 205.2 68.6 205.2 68.6 205.2 68.6 Z M 210.4 69.7 C 210.4 69.7 210.4 69.7 210.4 69.7 C 210.4 69.7 210.4 69.7 210.4 69.7 Z M 203.4 67.1 C 200.6 65.8 205.4 66.8 203.4 67.1 C 203.4 67.1 203.4 67.1 203.4 67.1 Z M 209.8 66.5 C 209.8 66.4 209.8 66.4 209.8 66.5 C 209.8 66.5 209.8 66.5 209.8 66.5 Z M 208.8 69.0 C 206.6 69.0 208.9 66.9 208.8 69.0 M 215.7 74.1 C 214.9 74.3 215.9 73.2 215.7 74.1 M 221.1 71.5 C 221.2 71.4 221.2 71.4 221.1 71.5 C 221.1 71.5 221.1 71.5 221.1 71.5 Z M 220.2 71.3 C 220.1 71.3 220.1 71.3 220.2 71.3 C 220.2 71.3 220.2 71.3 220.2 71.3 Z M 217.3 75.4 C 217.3 75.3 217.3 75.3 217.3 75.4 C 217.3 75.4 217.3 75.4 217.3 75.4 Z M 220.8 70.0 C 220.7 70.0 220.7 70.0 220.8 70.0 C 220.8 70.0 220.8 70.0 220.8 70.0 Z M 206.3 69.1 C 206.2 69.0 206.2 69.0 206.3 69.1 C 206.3 69.1 206.3 69.1 206.3 69.1 Z M 192.8 61.2 C 192.8 61.2 192.8 61.2 192.8 61.2 C 192.8 61.2 192.8 61.2 192.8 61.2 Z M 228.9 76.6 C 228.8 76.5 228.8 76.5 228.9 76.6 C 228.9 76.6 228.9 76.6 228.9 76.6 Z M 205.6 66.9 C 205.6 66.9 205.6 66.9 205.6 66.9 C 205.6 66.9 205.6 66.9 205.6 66.9 Z M 222.9 72.8 C 222.9 72.7 222.9 72.7 222.9 72.8 C 222.9 72.8 222.9 72.8 222.9 72.8 Z M 206.3 67.7 C 206.3 67.7 206.3 67.7 206.3 67.7 C 206.3 67.7 206.3 67.7 206.3 67.7 Z M 205.5 62.0 C 205.4 62.0 205.4 62.0 205.5 62.0 C 205.5 62.0 205.5 62.0 205.5 62.0 Z M 203.0 59.6 C 203.0 59.5 203.0 59.5 203.0 59.6 C 203.0 59.6 203.0 59.6 203.0 59.6 Z M 204.3 64.5 C 204.3 64.4 204.3 64.4 204.3 64.5 C 204.3 64.5 204.3 64.5 204.3 64.5 Z M 223.0 74.8 C 227.6 79.0 218.5 72.8 223.0 74.8 M 203.6 63.7 C 207.1 66.1 199.9 63.2 203.6 63.7 C 203.0 63.8 203.5 63.7 203.6 63.7 M 190.4 59.7 C 192.6 59.3 193.3 58.2 193.4 56.5 C 193.0 55.5 191.6 57.9 192.8 55.8 C 194.8 56.4 193.9 52.3 192.4 55.0 C 189.9 54.0 193.0 53.0 191.0 53.3 C 188.4 52.1 190.1 52.1 188.2 51.1 C 186.2 52.0 187.5 49.8 186.2 50.9 C 188.0 49.9 183.9 50.1 184.3 49.4 C 186.5 49.5 177.8 45.6 182.0 48.6 C 179.8 48.3 180.8 47.2 180.3 46.7 C 179.0 47.1 177.8 44.2 176.1 44.4 C 176.2 44.8 176.8 45.2 176.7 45.5 C 176.7 46.3 175.6 44.7 175.7 44.8 C 174.8 44.7 171.3 43.9 175.4 44.2 C 175.9 43.5 172.6 43.0 173.1 42.4 C 170.4 40.8 171.6 43.4 171.0 41.6 C 169.1 40.5 167.7 39.7 167.6 39.8 C 166.5 39.0 166.7 38.0 165.2 38.2 C 163.8 35.2 161.7 40.3 162.7 36.6 C 161.5 37.0 162.1 34.5 161.0 36.5 C 162.4 36.1 157.9 32.6 159.2 35.3 C 158.3 35.4 156.7 31.2 156.0 33.4 C 154.1 34.2 153.4 35.7 155.0 38.5 C 155.4 37.2 156.8 41.1 156.2 38.1 C 154.5 36.3 160.3 39.7 158.7 39.6 C 157.1 41.7 162.4 39.9 162.6 42.2 C 162.2 40.7 167.1 43.1 164.8 43.9 C 165.6 44.6 166.3 43.9 166.6 45.5 C 163.9 43.6 168.8 44.3 168.0 45.3 C 167.1 45.6 171.0 48.6 171.2 47.4 C 171.1 44.2 172.0 48.5 173.3 48.0 C 175.9 48.9 171.7 49.8 174.5 49.1 C 174.7 49.7 177.8 51.5 175.6 50.8 C 175.0 50.2 179.0 49.3 178.1 51.5 C 174.1 50.7 181.5 54.4 180.8 53.1 C 176.3 49.0 186.9 55.1 182.3 53.8 C 183.9 56.2 181.4 53.8 184.5 55.0 C 184.5 54.2 187.0 54.8 185.7 55.8 C 185.1 58.0 188.0 53.7 188.2 57.3 C 187.8 58.6 192.1 58.5 190.1 59.0 C 190.0 59.1 190.3 59.6 190.4 59.7 M 189.5 58.8 C 190.1 58.6 189.8 59.7 189.5 58.8 M 190.2 58.7 C 190.2 58.7 190.2 58.7 190.2 58.7 C 190.2 58.7 190.2 58.7 190.2 58.7 Z M 184.9 55.2 C 184.9 55.3 184.9 55.3 184.9 55.2 C 184.9 55.2 184.9 55.2 184.9 55.2 Z M 183.4 47.9 C 183.4 48.0 183.4 48.0 183.4 47.9 C 183.4 47.9 183.4 47.9 183.4 47.9 Z M 181.3 53.0 C 181.4 53.0 181.4 53.0 181.3 53.0 C 181.3 53.0 181.3 53.0 181.3 53.0 Z M 187.0 56.0 C 187.1 56.1 187.1 56.1 187.0 56.0 C 187.0 56.0 187.0 56.0 187.0 56.0 Z M 181.3 53.8 C 181.4 53.0 182.2 55.1 181.1 53.9 C 181.1 53.8 181.4 54.0 181.3 53.8 M 176.4 51.4 C 176.4 51.2 176.4 51.2 176.4 51.4 M 169.2 39.6 C 169.3 39.5 169.3 39.5 169.2 39.6 M 165.1 44.8 C 165.0 44.6 165.0 44.6 165.1 44.8 M 172.1 47.9 C 170.6 47.1 171.9 47.3 172.1 47.9 M 161.5 42.1 C 163.0 43.7 159.3 41.4 161.5 42.1 M 159.5 41.5 C 159.3 41.3 159.3 41.3 159.5 41.5 M 167.8 46.1 C 167.9 46.0 167.9 46.0 167.8 46.1 C 167.8 46.1 167.8 46.1 167.8 46.1 Z M 172.5 48.5 C 174.2 50.0 170.2 48.0 172.5 48.5 M 183.9 55.5 C 182.6 55.2 184.4 54.6 183.9 55.5 M 186.3 56.4 C 186.3 56.3 186.3 56.3 186.3 56.4 C 186.3 56.4 186.3 56.4 186.3 56.4 Z M 164.4 43.9 C 164.5 43.9 164.5 43.9 164.4 43.9 C 164.4 43.9 164.4 43.9 164.4 43.9 Z M 162.2 42.8 C 162.3 42.8 162.3 42.8 162.2 42.8 C 162.2 42.8 162.2 42.8 162.2 42.8 Z M 161.8 35.5 C 161.9 35.5 161.9 35.5 161.8 35.5 C 161.8 35.5 161.8 35.5 161.8 35.5 Z M 186.0 53.2 C 187.1 54.4 183.5 54.1 184.5 53.0 C 184.7 52.4 185.7 53.3 186.0 53.2 M 174.8 47.7 C 175.5 45.7 174.8 51.0 174.8 47.7 M 159.9 40.2 C 159.7 37.2 160.8 42.7 159.9 40.2 M 156.8 38.9 C 156.2 37.9 162.3 41.8 157.6 39.8 C 157.0 39.9 157.0 39.3 156.8 38.9 M 176.8 50.4 C 177.0 49.2 178.8 52.2 176.8 50.4 M 169.8 42.4 C 168.8 42.6 166.7 42.1 168.1 41.5 C 168.9 40.1 171.0 42.3 169.8 42.4 M 189.7 57.6 C 187.6 58.5 190.5 56.3 189.7 57.6 M 184.3 54.2 C 184.2 54.3 184.2 54.3 184.3 54.2 C 184.3 54.2 184.3 54.2 184.3 54.2 Z M 181.9 53.2 C 181.9 53.0 181.9 53.0 181.9 53.2 M 188.0 58.5 C 188.0 58.3 188.0 58.3 188.0 58.5 M 168.9 44.0 C 168.9 43.8 168.9 43.8 168.9 44.0 M 172.7 47.7 C 171.6 44.9 174.1 48.0 172.7 47.7 M 179.7 47.7 C 179.5 46.6 181.1 48.4 179.7 47.7 M 168.9 46.2 C 168.3 43.9 171.8 46.0 168.9 46.2 M 173.7 48.5 C 173.6 48.4 173.6 48.4 173.7 48.5 C 173.7 48.5 173.7 48.5 173.7 48.5 Z M 169.4 41.9 C 169.5 41.9 169.5 41.9 169.4 41.9 C 169.4 41.9 169.4 41.9 169.4 41.9 Z M 168.7 41.6 C 168.8 41.6 168.8 41.6 168.7 41.6 C 168.7 41.6 168.7 41.6 168.7 41.6 Z M 167.0 45.3 C 167.1 45.3 167.1 45.3 167.0 45.3 C 167.0 45.3 167.0 45.3 167.0 45.3 Z M 188.8 52.4 C 187.4 51.4 190.1 52.8 188.8 52.4 C 188.8 52.4 188.8 52.4 188.8 52.4 Z M 179.6 52.8 C 177.8 50.2 182.0 52.7 179.6 52.8 C 179.6 52.8 179.6 52.8 179.6 52.8 Z M 177.9 49.2 C 177.9 49.1 177.9 49.1 177.9 49.2 C 177.9 49.2 177.9 49.2 177.9 49.2 Z M 169.3 47.7 C 169.4 47.6 169.4 47.6 169.3 47.7 C 169.3 47.7 169.3 47.7 169.3 47.7 Z M 188.2 51.7 C 188.2 51.6 188.2 51.6 188.2 51.7 C 188.2 51.7 188.2 51.7 188.2 51.7 Z M 163.2 42.0 C 163.2 41.9 163.2 41.9 163.2 42.0 C 163.2 42.0 163.2 42.0 163.2 42.0 Z M 173.6 44.0 C 172.7 44.3 173.8 43.5 173.6 44.0 C 173.6 44.0 173.6 44.0 173.6 44.0 Z M 171.4 42.7 C 171.3 42.7 171.3 42.7 171.4 42.7 C 171.4 42.7 171.4 42.7 171.4 42.7 Z M 158.8 41.3 C 158.8 41.3 158.8 41.3 158.8 41.3 C 158.8 41.3 158.8 41.3 158.8 41.3 Z M 166.5 37.9 C 166.4 37.9 166.4 37.9 166.5 37.9 C 166.5 37.9 166.5 37.9 166.5 37.9 Z M 163.6 38.6 C 163.6 38.6 163.6 38.6 163.6 38.6 C 163.6 38.6 163.6 38.6 163.6 38.6 Z M 167.6 45.2 C 165.2 44.2 168.5 44.8 167.6 45.2 C 167.6 45.2 167.6 45.2 167.6 45.2 Z M 157.7 35.8 C 157.7 35.7 157.7 35.7 157.7 35.8 C 157.7 35.8 157.7 35.8 157.7 35.8 Z M 155.4 37.2 C 155.4 37.0 155.4 37.0 155.4 37.2 C 155.4 37.2 155.4 37.2 155.4 37.2 Z M 154.2 37.9 C 154.2 37.8 154.2 37.8 154.2 37.9 C 154.2 37.9 154.2 37.9 154.2 37.9 Z M 183.3 51.0 C 183.3 51.1 183.3 51.1 183.3 51.0 C 183.3 51.0 183.3 51.0 183.3 51.0 Z M 182.2 54.9 C 182.2 54.9 182.2 54.9 182.2 54.9 C 182.2 54.9 182.2 54.9 182.2 54.9 Z M 179.1 53.2 C 179.1 53.3 179.1 53.3 179.1 53.2 C 179.1 53.2 179.1 53.2 179.1 53.2 Z M 185.0 49.4 C 185.0 49.4 185.0 49.4 185.0 49.4 C 185.0 49.4 185.0 49.4 185.0 49.4 Z M 171.9 45.5 C 172.0 45.6 172.0 45.6 171.9 45.5 C 171.9 45.5 171.9 45.5 171.9 45.5 Z M 171.7 43.5 C 171.7 43.6 171.7 43.6 171.7 43.5 C 171.7 43.5 171.7 43.5 171.7 43.5 Z M 175.3 43.3 C 175.3 43.3 175.3 43.3 175.3 43.3 C 175.3 43.3 175.3 43.3 175.3 43.3 Z M 171.5 41.9 C 171.5 41.9 171.5 41.9 171.5 41.9 C 171.5 41.9 171.5 41.9 171.5 41.9 Z M 192.3 54.5 C 192.3 54.4 192.3 54.4 192.3 54.5 C 192.3 54.5 192.3 54.5 192.3 54.5 Z M 191.0 57.1 C 191.1 57.1 191.1 57.1 191.0 57.1 C 191.0 57.1 191.0 57.1 191.0 57.1 Z M 170.5 47.1 C 169.7 47.3 169.9 45.8 170.5 47.1 M 175.0 49.3 C 175.1 49.3 175.1 49.3 175.0 49.3 C 175.0 49.3 175.0 49.3 175.0 49.3 Z M 163.3 42.7 C 163.3 41.4 165.0 44.4 163.3 42.7 C 163.3 42.7 163.3 42.7 163.3 42.7 Z M 168.0 39.8 C 168.0 39.8 168.0 39.8 168.0 39.8 C 168.0 39.8 168.0 39.8 168.0 39.8 Z M 166.7 39.6 C 166.6 39.4 166.6 39.4 166.7 39.6 C 166.7 39.6 166.7 39.6 166.7 39.6 Z M 158.8 38.6 C 158.7 38.5 158.7 38.5 158.8 38.6 M 175.1 50.6 C 174.7 49.7 174.8 49.9 175.1 50.6 M 161.8 41.8 C 161.9 41.8 161.9 41.8 161.8 41.8 C 161.8 41.8 161.8 41.8 161.8 41.8 Z M 157.0 38.4 C 157.1 38.4 157.1 38.4 157.0 38.4 C 157.0 38.4 157.0 38.4 157.0 38.4 Z M 178.6 51.7 C 179.2 50.4 179.6 51.0 178.6 51.7 M 187.4 56.4 C 187.5 56.3 187.5 56.3 187.4 56.4 C 187.4 56.4 187.4 56.4 187.4 56.4 Z M 149.6 35.2 C 151.2 37.9 152.3 36.0 152.4 36.0 C 150.6 38.4 155.1 36.2 154.9 35.4 C 155.2 35.1 156.0 29.6 152.7 31.3 C 152.1 31.4 152.3 30.5 152.0 30.2 C 149.1 28.6 153.2 32.8 149.6 30.7 C 149.2 30.0 151.2 28.3 148.3 28.5 C 148.3 28.3 146.4 26.1 146.7 27.6 C 146.2 25.9 144.8 26.7 143.6 26.3 C 143.0 25.2 145.3 25.2 141.2 24.4 C 140.8 21.8 138.5 24.6 138.3 21.9 C 137.5 21.3 134.3 23.8 137.3 23.1 C 136.9 23.1 137.3 25.4 134.9 23.3 C 135.6 23.1 138.9 20.7 133.8 19.8 C 133.2 19.3 131.1 19.2 130.9 18.6 C 133.3 19.5 128.8 15.5 128.7 16.7 C 125.8 14.1 126.9 16.7 125.1 14.2 C 123.1 13.0 124.9 16.0 122.9 13.7 C 120.9 12.8 122.7 12.7 122.8 12.9 C 121.3 11.8 120.4 12.0 119.8 11.7 C 119.6 11.3 119.2 10.2 118.3 10.8 C 115.8 11.2 116.5 13.6 114.9 14.6 C 115.7 16.1 116.1 13.8 116.3 15.5 C 117.4 14.9 116.3 15.6 119.9 17.4 C 119.9 17.1 119.4 16.0 120.3 16.4 C 121.6 17.3 119.2 19.2 122.4 18.7 C 120.1 16.7 126.5 20.1 124.4 18.1 C 127.6 19.6 125.1 18.8 127.0 20.7 C 127.8 19.0 126.1 22.6 127.7 21.7 C 127.5 22.5 131.1 24.2 129.2 21.8 C 133.0 23.4 130.2 23.1 131.0 24.7 C 132.5 25.8 132.7 22.0 132.5 24.7 C 134.1 26.9 133.2 23.7 133.8 26.2 C 133.9 24.4 135.3 27.2 135.7 25.3 C 139.4 27.3 134.2 26.7 137.4 27.1 C 136.7 26.6 135.7 28.8 138.1 28.4 C 138.9 25.5 138.9 31.8 139.7 27.8 C 145.3 29.9 139.7 29.7 142.5 31.3 C 143.2 31.8 142.4 29.8 143.0 30.2 C 146.3 32.7 142.8 31.8 145.7 31.4 C 149.5 33.0 145.9 33.3 147.6 34.5 C 148.1 33.8 150.3 33.3 149.6 35.2 M 147.0 32.6 C 145.9 32.7 146.8 31.8 147.0 32.6 M 153.6 37.5 C 152.6 37.6 153.5 36.7 153.6 37.5 M 143.7 31.3 C 142.4 31.3 143.9 30.3 143.7 31.3 M 125.1 19.3 C 126.4 20.1 124.3 19.4 125.1 19.3 M 150.7 36.0 C 149.3 36.0 151.0 34.9 150.7 36.0 M 152.8 35.4 C 152.7 35.4 152.7 35.4 152.8 35.4 M 122.4 19.5 C 122.4 19.5 122.4 19.5 122.4 19.5 M 127.5 22.6 C 126.5 21.9 128.4 22.6 127.5 22.6 M 130.9 17.3 C 129.8 16.6 131.7 17.3 130.9 17.3 M 119.6 18.0 C 118.3 17.7 119.6 17.2 119.6 18.0 M 117.5 15.1 C 116.2 15.0 117.1 14.2 117.5 15.1 M 148.7 31.1 C 148.8 31.0 148.8 31.0 148.7 31.1 C 148.7 31.1 148.7 31.1 148.7 31.1 Z M 140.1 24.2 C 140.9 25.4 139.1 22.7 140.1 24.2 M 139.8 28.8 C 139.7 27.2 141.2 29.7 139.8 28.8 C 139.8 28.8 139.8 28.8 139.8 28.8 Z M 141.7 29.2 C 141.7 29.2 141.7 29.2 141.7 29.2 C 141.7 29.2 141.7 29.2 141.7 29.2 Z M 136.4 26.0 C 136.5 26.1 136.5 26.1 136.4 26.0 C 136.4 26.0 136.4 26.0 136.4 26.0 Z M 137.6 26.6 C 138.1 26.6 138.1 27.2 137.6 26.6 C 137.6 26.6 137.6 26.6 137.6 26.6 Z M 131.9 18.6 C 132.5 18.6 132.4 19.2 131.9 18.6 C 131.9 18.6 131.9 18.6 131.9 18.6 Z M 139.5 27.2 C 140.3 26.2 139.8 28.4 139.5 27.2 C 139.5 27.2 139.5 27.2 139.5 27.2 Z M 135.3 21.2 C 134.7 21.3 134.9 19.6 135.3 21.2 M 121.5 18.7 C 120.8 18.7 121.1 17.1 121.5 18.7 M 132.5 25.6 C 131.9 25.6 132.1 24.0 132.5 25.6 M 146.1 32.7 C 146.0 32.5 146.0 32.5 146.1 32.7 M 142.6 24.3 C 141.7 24.3 142.5 23.6 142.6 24.3 M 153.0 30.8 C 152.0 30.8 152.9 30.1 153.0 30.8 M 126.1 14.6 C 125.9 14.9 125.0 13.8 126.1 14.6 M 132.2 23.1 C 131.3 22.4 130.7 21.2 132.7 22.4 C 132.7 22.8 131.9 22.6 132.2 23.1 C 132.2 23.1 132.2 23.1 132.2 23.1 Z M 130.2 18.5 C 130.1 18.3 130.1 18.3 130.2 18.5 M 129.9 23.1 C 129.8 22.9 129.8 22.9 129.9 23.1 M 124.2 19.6 C 124.2 19.3 124.2 19.3 124.2 19.6 M 123.3 19.5 C 123.4 19.4 123.4 19.4 123.3 19.5 C 123.3 19.5 123.3 19.5 123.3 19.5 Z M 116.8 16.2 C 116.8 16.2 116.8 16.2 116.8 16.2 C 116.8 16.2 116.8 16.2 116.8 16.2 Z M 126.1 20.5 C 126.2 20.5 126.2 20.5 126.1 20.5 C 126.1 20.5 126.1 20.5 126.1 20.5 Z M 123.4 13.3 C 123.4 13.2 123.4 13.2 123.4 13.3 C 123.4 13.3 123.4 13.3 123.4 13.3 Z M 123.7 14.3 C 123.7 14.3 123.7 14.3 123.7 14.3 C 123.7 14.3 123.7 14.3 123.7 14.3 Z M 149.1 34.9 C 147.8 35.2 149.8 32.7 149.1 34.9 M 120.9 12.7 C 120.5 11.4 122.4 13.4 120.9 12.7 C 120.9 12.7 120.9 12.7 120.9 12.7 Z M 127.3 20.0 C 127.4 19.8 127.4 19.8 127.3 20.0 M 123.0 19.2 C 123.0 19.0 123.0 19.0 123.0 19.2 M 139.2 29.8 C 139.2 29.6 139.2 29.6 139.2 29.8 M 118.7 16.3 C 116.2 14.5 120.8 15.5 118.7 16.3 M 141.1 29.5 C 141.1 29.6 141.1 29.6 141.1 29.5 M 136.2 23.9 C 134.4 22.9 137.2 23.6 136.2 23.9 M 130.9 22.6 C 130.9 22.6 130.9 22.6 130.9 22.6 C 130.9 22.6 130.9 22.6 130.9 22.6 Z M 133.5 24.1 C 134.9 24.8 133.7 24.6 133.5 24.1 C 133.5 24.1 133.5 24.1 133.5 24.1 Z M 148.5 33.2 C 146.9 32.0 150.4 33.8 148.5 33.2 C 148.5 33.2 148.5 33.2 148.5 33.2 Z M 121.4 14.5 C 121.5 14.5 121.5 14.5 121.4 14.5 C 121.4 14.5 121.4 14.5 121.4 14.5 Z M 126.0 21.5 C 126.9 21.7 126.2 22.0 126.0 21.5 C 126.0 21.5 126.0 21.5 126.0 21.5 Z M 115.8 15.7 C 116.8 15.9 116.0 16.2 115.8 15.7 C 115.8 15.7 115.8 15.7 115.8 15.7 Z M 150.4 34.5 C 145.3 29.1 158.4 39.9 150.4 34.5 C 150.4 34.5 150.4 34.5 150.4 34.5 Z M 132.0 24.3 C 132.1 24.2 132.1 24.2 132.0 24.3 C 132.0 24.3 132.0 24.3 132.0 24.3 Z M 143.0 31.8 C 143.1 31.7 143.1 31.7 143.0 31.8 C 143.0 31.8 143.0 31.8 143.0 31.8 Z M 145.6 31.9 C 145.6 31.9 145.6 31.9 145.6 31.9 C 145.6 31.9 145.6 31.9 145.6 31.9 Z M 147.5 27.3 C 147.6 27.2 147.6 27.2 147.5 27.3 C 147.5 27.3 147.5 27.3 147.5 27.3 Z M 145.7 28.9 C 145.9 28.8 145.9 28.8 145.7 28.9 C 145.7 28.9 145.7 28.9 145.7 28.9 Z M 150.1 30.5 C 150.2 30.4 150.2 30.4 150.1 30.5 C 150.1 30.5 150.1 30.5 150.1 30.5 Z M 150.4 29.8 C 150.4 29.8 150.4 29.8 150.4 29.8 C 150.4 29.8 150.4 29.8 150.4 29.8 Z M 123.7 17.9 C 123.8 17.9 123.8 17.9 123.7 17.9 C 123.7 17.9 123.7 17.9 123.7 17.9 Z M 126.9 17.4 C 125.1 17.2 127.9 16.8 126.9 17.4 C 126.9 17.4 126.9 17.4 126.9 17.4 Z M 139.2 25.8 C 137.7 25.3 140.4 25.8 139.2 25.8 C 139.2 25.8 139.2 25.8 139.2 25.8 Z M 139.1 22.6 C 139.1 22.6 139.1 22.6 139.1 22.6 C 139.1 22.6 139.1 22.6 139.1 22.6 Z M 144.9 32.9 C 145.1 32.8 145.1 32.8 144.9 32.9 C 144.9 32.9 144.9 32.9 144.9 32.9 Z M 147.8 33.6 C 148.4 32.8 148.3 34.5 147.8 33.6 M 135.2 26.9 C 135.3 26.8 135.3 26.8 135.2 26.9 C 135.2 26.9 135.2 26.9 135.2 26.9 Z M 128.3 20.9 C 128.3 20.9 128.3 20.9 128.3 20.9 C 128.3 20.9 128.3 20.9 128.3 20.9 Z M 120.2 17.0 C 120.3 16.9 120.3 16.9 120.2 17.0 C 120.2 17.0 120.2 17.0 120.2 17.0 Z M 130.5 24.0 C 130.6 23.9 130.6 23.9 130.5 24.0 C 130.5 24.0 130.5 24.0 130.5 24.0 Z M 134.6 25.3 C 134.7 25.2 134.7 25.2 134.6 25.3 C 134.6 25.3 134.6 25.3 134.6 25.3 Z M 119.3 14.7 C 119.4 14.7 119.4 14.7 119.3 14.7 C 119.3 14.7 119.3 14.7 119.3 14.7 Z M 129.5 23.6 C 129.6 23.6 129.6 23.6 129.5 23.6 C 129.5 23.6 129.5 23.6 129.5 23.6 Z M 129.0 19.4 C 129.1 19.4 129.1 19.4 129.0 19.4 C 129.0 19.4 129.0 19.4 129.0 19.4 Z M 146.7 34.7 C 146.8 34.7 146.8 34.7 146.7 34.7 C 146.7 34.7 146.7 34.7 146.7 34.7 Z M 118.5 15.9 C 118.5 15.9 118.5 15.9 118.5 15.9 C 118.5 15.9 118.5 15.9 118.5 15.9 Z M 117.5 16.4 C 117.6 16.4 117.6 16.4 117.5 16.4 C 117.5 16.4 117.5 16.4 117.5 16.4 Z M 125.5 15.3 C 128.0 17.4 123.0 14.1 124.4 16.2 C 120.3 14.2 125.0 14.9 125.5 15.3 C 125.5 15.3 125.5 15.3 125.5 15.3 Z M 125.5 15.3 " fill="#71AFE1"></path></g></g><g><clipPath id="clip-608"><path d="M 0.2 1.1 L 200.2 1.1 L 200.2 10.1 L 0.2 10.1 Z M 0.2 1.1 "></path></clipPath><g clip-path="url(#clip-608)"><path d="M 16.9 3.8 C 16.5 4.0 15.7 3.7 15.4 3.9 M 16.9 3.8 C 16.0 2.5 14.5 2.4 12.4 2.2 C 10.2 2.2 12.5 3.4 12.2 3.9 C 9.3 4.4 9.3 3.5 9.7 2.1 C 8.6 3.1 5.3 1.4 6.0 3.1 C 10.7 3.1 2.7 3.6 6.6 4.5 C 7.1 4.8 5.9 5.3 5.5 5.3 C 6.8 6.0 4.6 6.8 6.7 7.3 C 6.9 8.4 6.6 8.0 7.9 8.8 C 8.5 8.9 8.2 8.6 8.2 8.3 C 8.4 7.0 9.8 9.0 10.9 8.2 C 11.8 9.9 12.9 7.9 12.0 7.2 C 13.0 7.4 14.1 9.2 15.2 8.0 C 15.7 8.8 18.4 8.2 16.8 7.2 C 15.6 6.5 16.9 6.0 17.1 5.6 C 16.7 5.3 15.1 5.8 14.8 5.5 C 15.3 5.2 17.4 4.6 15.2 4.7 C 15.9 4.1 14.8 3.7 16.9 3.8 C 16.9 3.8 16.9 3.8 16.9 3.8 Z M 8.9 2.9 C 8.9 2.4 9.7 2.9 8.9 2.9 C 8.9 2.9 8.9 2.9 8.9 2.9 Z M 14.3 8.8 C 14.3 8.4 15.1 8.8 14.3 8.8 C 14.3 8.8 14.3 8.8 14.3 8.8 Z M 8.5 8.3 C 8.5 7.9 9.3 8.3 8.5 8.3 C 8.5 8.3 8.5 8.3 8.5 8.3 Z M 11.0 3.1 C 12.2 3.5 10.0 3.8 9.8 3.4 C 10.0 3.4 10.7 2.8 11.0 3.1 C 11.0 3.1 11.0 3.1 11.0 3.1 Z M 11.2 5.7 C 11.3 5.6 11.8 5.5 11.7 5.9 C 11.4 6.1 11.1 5.9 11.2 5.7 C 11.2 5.7 11.2 5.7 11.2 5.7 Z M 5.0 3.9 C 5.1 3.7 5.6 3.7 5.5 4.1 C 5.2 4.2 4.9 4.1 5.0 3.9 C 5.0 3.9 5.0 3.9 5.0 3.9 Z M 12.4 4.3 C 12.7 4.4 12.8 4.8 12.5 4.9 C 12.3 4.7 11.4 4.6 12.4 4.3 C 12.4 4.3 12.4 4.3 12.4 4.3 Z M 14.4 2.8 C 15.4 3.1 13.3 3.7 13.3 3.5 C 13.0 3.2 13.8 2.5 14.4 2.8 C 14.4 2.8 14.4 2.8 14.4 2.8 Z M 13.0 4.9 C 13.9 5.2 12.6 5.3 13.0 4.9 C 13.0 4.9 13.0 4.9 13.0 4.9 Z M 5.8 7.2 C 6.7 7.4 5.5 7.5 5.8 7.2 C 5.8 7.2 5.8 7.2 5.8 7.2 Z M 10.4 8.6 C 11.2 8.8 10.0 8.9 10.4 8.6 C 10.4 8.6 10.4 8.6 10.4 8.6 Z M 8.7 4.0 C 7.2 4.0 8.5 2.9 8.7 4.0 C 8.7 4.0 8.7 4.0 8.7 4.0 Z M 16.8 2.7 C 15.3 2.7 16.6 1.6 16.8 2.7 C 16.8 2.7 16.8 2.7 16.8 2.7 Z M 193.7 3.2 C 195.1 2.9 189.7 1.5 191.7 3.2 C 192.3 4.6 188.7 4.5 189.6 3.2 C 188.5 3.0 188.5 2.9 187.9 3.6 C 187.8 2.5 185.2 2.0 184.3 2.6 C 183.8 3.5 186.0 2.7 184.6 3.7 C 181.4 3.9 184.8 4.6 183.6 5.8 C 183.4 5.8 183.4 5.3 183.1 5.6 C 183.0 6.7 184.8 7.4 184.0 8.3 C 184.5 8.1 186.8 9.3 185.8 8.4 C 185.5 7.3 188.3 9.6 188.1 7.9 C 188.9 8.7 189.6 7.6 190.4 8.6 C 191.0 8.8 190.9 7.9 190.9 7.6 C 190.8 6.8 191.5 9.4 192.4 8.0 C 192.5 8.4 195.1 8.3 193.2 7.6 C 193.7 7.8 196.6 8.1 195.1 6.6 C 193.1 5.9 197.2 5.0 194.8 4.9 C 193.0 4.8 192.6 5.1 194.0 4.3 C 194.4 4.4 196.5 4.2 194.7 3.5 C 194.3 3.7 193.4 3.6 193.7 3.2 C 193.7 3.2 193.7 3.2 193.7 3.2 Z M 194.1 5.4 C 193.0 5.5 194.0 4.8 194.1 5.4 C 194.1 5.4 194.1 5.4 194.1 5.4 Z M 190.2 8.9 C 189.2 9.0 190.1 8.3 190.2 8.9 C 190.2 8.9 190.2 8.9 190.2 8.9 Z M 190.4 2.8 C 189.8 3.2 189.7 1.6 190.4 2.8 C 190.4 2.8 190.4 2.8 190.4 2.8 Z M 192.0 7.6 C 191.9 7.6 192.2 7.4 192.4 7.3 C 192.3 7.4 192.1 7.6 192.0 7.6 C 192.0 7.6 192.0 7.6 192.0 7.6 Z M 188.6 2.8 C 187.0 3.5 188.2 1.5 188.6 2.8 C 188.6 2.8 188.6 2.8 188.6 2.8 Z M 185.4 4.3 C 185.2 5.9 183.7 3.9 185.4 4.3 C 185.4 4.3 185.4 4.3 185.4 4.3 Z M 187.6 7.8 C 187.9 7.4 187.9 8.0 187.6 7.8 C 187.6 7.8 187.6 7.8 187.6 7.8 Z M 194.5 8.0 C 194.8 7.7 194.8 8.2 194.5 8.0 C 194.5 8.0 194.5 8.0 194.5 8.0 Z M 185.6 7.6 C 185.7 7.1 186.2 8.0 185.6 7.6 C 185.6 7.6 185.6 7.6 185.6 7.6 Z M 190.1 3.4 C 191.5 2.1 191.8 5.3 190.1 3.4 C 190.1 3.4 190.1 3.4 190.1 3.4 Z M 192.7 3.3 C 193.7 3.0 192.5 4.1 192.1 3.9 C 192.1 3.7 192.5 3.3 192.7 3.3 C 192.7 3.3 192.7 3.3 192.7 3.3 Z M 188.5 3.5 C 189.5 2.9 189.5 3.9 188.5 3.5 C 188.5 3.5 188.5 3.5 188.5 3.5 Z M 191.1 2.8 C 191.6 3.0 190.6 3.0 191.1 2.8 C 191.1 2.8 191.1 2.8 191.1 2.8 Z M 186.6 2.2 C 187.1 2.4 186.1 2.4 186.6 2.2 C 186.6 2.2 186.6 2.2 186.6 2.2 Z M 193.9 2.6 C 194.4 2.8 193.5 2.8 193.9 2.6 C 193.9 2.6 193.9 2.6 193.9 2.6 Z M 187.0 3.1 C 186.8 3.6 188.2 4.9 185.7 3.8 C 185.3 3.4 186.3 2.6 187.0 3.1 C 187.0 3.1 187.0 3.1 187.0 3.1 Z M 20.8 3.9 C 15.1 2.1 16.4 5.2 16.2 5.8 C 15.4 6.6 16.2 7.2 17.3 7.8 C 18.5 9.8 19.1 5.7 19.9 7.7 C 21.5 10.4 21.7 5.4 22.3 8.2 C 22.1 8.9 24.3 8.3 24.1 8.1 C 25.2 9.5 26.8 7.1 26.8 6.9 C 27.6 7.2 27.6 9.7 30.0 7.9 C 31.7 7.2 32.5 9.7 32.0 8.0 C 33.3 9.9 32.9 7.4 34.2 8.0 C 35.1 9.1 34.2 6.4 35.9 8.4 C 36.6 6.8 35.1 9.5 39.5 8.3 C 37.4 8.2 41.6 7.1 40.7 8.2 C 39.2 9.3 42.8 7.7 44.8 8.4 C 45.3 7.8 47.7 6.4 47.3 8.0 C 49.4 9.8 49.4 6.8 50.3 8.3 C 51.0 9.0 51.2 7.6 51.7 7.7 C 52.4 8.9 53.1 8.1 55.6 8.4 C 61.3 9.0 56.5 5.5 58.6 5.1 C 59.0 4.6 55.9 0.8 57.1 3.7 C 56.7 2.9 52.1 5.8 54.4 2.7 C 52.7 3.9 54.8 1.4 51.3 2.9 C 56.1 5.1 45.8 3.8 50.4 2.7 C 49.7 2.1 47.7 2.2 49.1 2.7 C 49.7 4.7 45.8 1.8 47.7 4.2 C 44.8 3.6 45.5 5.7 44.7 4.2 C 44.0 1.6 44.9 4.9 43.4 4.1 C 39.9 4.1 42.6 1.2 40.5 3.1 C 37.1 1.8 39.7 4.2 38.5 4.6 C 38.2 6.4 35.0 3.2 37.7 3.0 C 36.3 3.9 37.4 2.1 35.9 3.2 C 37.0 4.9 33.8 1.5 34.3 2.8 C 32.9 3.2 33.6 4.2 33.2 4.3 C 31.1 4.3 31.7 2.6 31.3 3.9 C 30.9 4.5 29.9 2.4 29.6 2.9 C 31.7 3.0 27.8 4.7 27.6 3.8 C 28.9 3.7 26.9 1.6 26.1 2.9 C 27.2 6.5 24.2 2.0 23.3 3.2 C 24.2 5.2 18.6 3.5 20.7 2.6 C 20.6 2.7 20.8 3.9 20.8 3.9 M 29.0 3.2 C 30.7 3.4 27.1 3.6 29.0 3.2 M 28.9 2.7 C 29.7 3.4 27.2 2.2 29.0 2.4 C 29.0 2.5 28.8 2.6 28.9 2.7 M 36.2 2.6 C 36.0 3.2 35.2 2.3 36.2 2.6 M 37.6 3.9 C 38.7 4.4 36.0 3.9 37.6 3.9 M 53.7 3.4 C 52.0 6.5 52.0 1.8 53.7 3.4 M 43.0 2.8 C 41.1 3.2 43.7 1.6 43.0 2.8 M 42.4 3.6 C 41.5 4.1 42.2 2.9 42.4 3.6 M 50.6 3.5 C 50.8 3.5 50.8 3.5 50.6 3.5 C 50.6 3.5 50.6 3.5 50.6 3.5 Z M 55.4 3.5 C 55.4 3.5 55.4 3.5 55.4 3.5 C 55.4 3.5 55.4 3.5 55.4 3.5 Z M 46.0 3.8 C 44.5 3.1 48.4 3.5 46.0 3.8 C 46.0 3.8 46.0 3.8 46.0 3.8 Z M 53.1 8.1 C 53.0 8.1 53.0 8.1 53.1 8.1 C 53.1 8.1 53.1 8.1 53.1 8.1 Z M 27.6 4.6 C 27.5 4.6 27.5 4.6 27.6 4.6 C 27.6 4.6 27.6 4.6 27.6 4.6 Z M 22.2 3.4 C 22.2 3.8 21.2 3.1 22.2 3.4 C 22.2 3.4 22.2 3.4 22.2 3.4 Z M 17.8 6.9 C 17.7 6.9 17.7 6.9 17.8 6.9 C 17.8 6.9 17.8 6.9 17.8 6.9 Z M 25.8 6.2 C 25.7 6.2 25.7 6.2 25.8 6.2 C 25.8 6.2 25.8 6.2 25.8 6.2 Z M 26.6 3.9 C 25.7 2.3 28.6 4.4 26.6 3.9 C 26.6 3.9 26.6 3.9 26.6 3.9 Z M 44.2 7.9 C 44.2 7.2 45.4 8.2 44.2 7.9 C 44.2 7.9 44.2 7.9 44.2 7.9 Z M 37.8 4.5 C 38.0 4.1 38.6 4.7 37.8 4.5 C 37.8 4.5 37.8 4.5 37.8 4.5 Z M 34.8 2.3 C 35.0 1.9 35.6 2.5 34.8 2.3 C 34.8 2.3 34.8 2.3 34.8 2.3 Z M 22.3 3.0 C 22.4 2.9 22.4 2.9 22.3 3.0 C 22.3 3.0 22.3 3.0 22.3 3.0 Z M 24.2 4.2 C 22.9 2.7 26.3 5.1 24.2 4.2 C 24.2 4.2 24.2 4.2 24.2 4.2 Z M 21.9 4.7 C 22.6 5.3 20.1 4.4 21.9 4.7 M 23.2 7.0 C 24.9 6.4 21.7 9.8 23.2 7.0 C 23.2 7.0 23.2 7.0 23.2 7.0 Z M 31.6 7.7 C 31.7 7.7 31.7 7.7 31.6 7.7 C 31.6 7.7 31.6 7.7 31.6 7.7 Z M 30.7 3.1 C 32.2 3.2 29.8 3.5 30.7 3.1 C 30.7 3.1 30.7 3.1 30.7 3.1 Z M 18.1 2.8 C 19.6 2.9 17.2 3.2 18.1 2.8 C 18.1 2.8 18.1 2.8 18.1 2.8 Z M 36.4 6.2 C 38.8 5.9 35.0 7.0 36.4 6.2 C 36.4 6.2 36.4 6.2 36.4 6.2 Z M 45.2 4.4 C 45.2 4.4 45.2 4.4 45.2 4.4 C 45.2 4.4 45.2 4.4 45.2 4.4 Z M 46.8 3.7 C 46.8 3.8 46.8 3.8 46.8 3.7 C 46.8 3.7 46.8 3.7 46.8 3.7 Z M 53.5 5.3 C 53.6 5.4 53.6 5.4 53.5 5.3 C 53.5 5.3 53.5 5.3 53.5 5.3 Z M 48.3 3.0 C 48.3 3.0 48.3 3.0 48.3 3.0 C 48.3 3.0 48.3 3.0 48.3 3.0 Z M 52.9 3.4 C 53.0 3.4 53.0 3.4 52.9 3.4 C 52.9 3.4 52.9 3.4 52.9 3.4 Z M 52.3 2.1 C 52.4 2.1 52.4 2.1 52.3 2.1 C 52.3 2.1 52.3 2.1 52.3 2.1 Z M 41.9 8.8 C 42.0 8.9 42.0 8.9 41.9 8.8 C 41.9 8.8 41.9 8.8 41.9 8.8 Z M 24.8 2.5 C 24.9 2.6 24.9 2.6 24.8 2.5 C 24.8 2.5 24.8 2.5 24.8 2.5 Z M 52.6 4.0 C 52.6 4.0 52.6 4.0 52.6 4.0 C 52.6 4.0 52.6 4.0 52.6 4.0 Z M 41.1 5.2 C 41.2 6.5 40.2 3.5 41.4 5.2 C 41.4 5.2 41.0 5.0 41.1 5.2 M 42.7 7.4 C 42.6 7.4 42.6 7.4 42.7 7.4 C 42.7 7.4 42.7 7.4 42.7 7.4 Z M 37.5 8.2 C 37.4 8.3 37.4 8.3 37.5 8.2 C 37.5 8.2 37.5 8.2 37.5 8.2 Z M 47.4 2.7 C 47.2 2.0 48.7 3.3 47.2 2.8 M 53.6 7.6 C 53.4 6.9 54.9 8.2 53.4 7.7 M 16.5 3.3 C 16.3 3.9 15.5 3.0 16.5 3.3 M 36.3 8.9 C 36.1 9.5 35.4 8.6 36.3 8.9 M 38.7 7.2 C 38.5 6.5 40.0 7.8 38.6 7.3 M 50.0 7.6 C 50.1 7.6 50.1 7.6 50.0 7.6 C 50.0 7.6 50.0 7.6 50.0 7.6 Z M 32.9 3.3 C 33.0 3.3 33.0 3.3 32.9 3.3 C 32.9 3.3 32.9 3.3 32.9 3.3 Z M 39.2 4.9 C 38.4 3.8 40.4 5.5 39.2 4.9 M 31.1 5.1 C 29.8 3.8 33.1 5.5 31.1 5.1 M 56.3 7.9 C 54.9 6.4 57.3 8.7 56.3 7.9 M 49.3 4.1 C 47.9 2.6 50.4 5.0 49.3 4.1 M 34.2 3.9 C 34.1 3.2 35.6 4.4 34.2 3.9 M 19.7 3.2 C 18.4 3.0 21.5 2.6 19.7 3.2 M 46.6 7.6 C 46.7 7.7 46.7 7.7 46.6 7.6 C 46.6 7.6 46.6 7.6 46.6 7.6 Z M 24.1 8.9 C 24.2 9.0 24.2 9.0 24.1 8.9 C 24.1 8.9 24.1 8.9 24.1 8.9 Z M 58.1 3.0 C 58.1 3.0 58.1 3.0 58.1 3.0 C 58.1 3.0 58.1 3.0 58.1 3.0 Z M 48.5 4.8 C 48.5 4.9 48.5 4.9 48.5 4.8 C 48.5 4.8 48.5 4.8 48.5 4.8 Z M 55.4 2.8 C 55.5 2.9 55.5 2.9 55.4 2.8 C 55.4 2.8 55.4 2.8 55.4 2.8 Z M 44.1 6.0 C 44.1 6.1 44.1 6.1 44.1 6.0 C 44.1 6.0 44.1 6.0 44.1 6.0 Z M 43.2 2.2 C 43.2 2.2 43.2 2.2 43.2 2.2 C 43.2 2.2 43.2 2.2 43.2 2.2 Z M 38.4 3.8 C 38.4 3.8 38.4 3.8 38.4 3.8 C 38.4 3.8 38.4 3.8 38.4 3.8 Z M 45.4 2.5 C 48.3 2.2 43.9 3.8 45.4 2.5 C 45.4 2.5 45.4 2.5 45.4 2.5 Z M 40.4 6.3 C 40.5 6.4 40.5 6.4 40.4 6.3 C 40.4 6.3 40.4 6.3 40.4 6.3 Z M 40.0 3.6 C 41.8 2.5 41.0 5.5 40.0 3.6 M 32.1 2.7 C 32.6 2.1 32.3 3.6 32.1 2.7 M 28.9 7.7 C 28.9 7.8 28.9 7.8 28.9 7.7 C 28.9 7.7 28.9 7.7 28.9 7.7 Z M 29.7 7.3 C 29.8 7.4 29.8 7.4 29.7 7.3 C 29.7 7.3 29.7 7.3 29.7 7.3 Z M 30.1 2.5 C 30.2 2.5 30.2 2.5 30.1 2.5 C 30.1 2.5 30.1 2.5 30.1 2.5 Z M 29.9 8.8 C 29.9 8.8 29.9 8.8 29.9 8.8 C 29.9 8.8 29.9 8.8 29.9 8.8 Z M 42.1 2.3 C 42.2 2.3 42.2 2.3 42.1 2.3 C 42.1 2.3 42.1 2.3 42.1 2.3 Z M 56.8 2.2 C 56.8 2.2 56.8 2.2 56.8 2.2 C 56.8 2.2 56.8 2.2 56.8 2.2 Z M 20.1 7.2 C 20.2 7.3 20.2 7.3 20.1 7.2 C 20.1 7.2 20.1 7.2 20.1 7.2 Z M 43.6 3.8 C 43.7 3.8 43.7 3.8 43.6 3.8 C 43.6 3.8 43.6 3.8 43.6 3.8 Z M 26.8 7.5 C 26.9 7.6 26.9 7.6 26.8 7.5 C 26.8 7.5 26.8 7.5 26.8 7.5 Z M 42.7 3.5 C 42.7 3.5 42.7 3.5 42.7 3.5 C 42.7 3.5 42.7 3.5 42.7 3.5 Z M 46.1 8.0 C 46.2 8.0 46.2 8.0 46.1 8.0 C 46.1 8.0 46.1 8.0 46.1 8.0 Z M 49.3 8.8 C 49.3 8.8 49.3 8.8 49.3 8.8 C 49.3 8.8 49.3 8.8 49.3 8.8 Z M 45.9 5.3 C 46.0 5.3 46.0 5.3 45.9 5.3 C 45.9 5.3 45.9 5.3 45.9 5.3 Z M 25.8 5.9 C 20.0 4.5 30.4 5.3 25.8 5.9 M 46.9 5.6 C 42.9 5.3 50.1 4.1 46.9 5.6 C 47.3 5.2 47.0 5.5 46.9 5.6 M 59.5 2.4 C 57.8 3.8 57.8 5.1 58.6 6.6 C 59.4 7.3 59.3 4.5 59.4 6.9 C 57.5 7.3 60.2 10.5 60.2 7.4 C 62.7 6.9 60.6 9.4 62.1 8.1 C 64.7 7.8 63.4 8.8 65.4 8.6 C 66.6 6.9 66.6 9.4 67.1 7.8 C 66.1 9.5 69.3 7.3 69.4 8.1 C 67.5 9.2 76.5 8.1 71.6 7.6 C 73.6 6.8 73.2 8.2 73.9 8.4 C 74.8 7.4 77.2 9.2 78.4 8.2 C 78.1 8.0 77.5 7.9 77.4 7.6 C 77.0 6.9 78.7 7.7 78.5 7.7 C 79.4 7.3 82.6 6.3 79.1 8.1 C 79.0 8.9 81.9 7.7 81.8 8.5 C 84.8 8.5 82.6 6.8 83.9 8.0 C 86.0 8.1 87.5 8.1 87.5 7.9 C 88.8 8.1 89.1 9.0 90.2 8.1 C 92.8 9.9 92.1 4.6 93.1 8.2 C 93.8 7.3 94.5 9.7 94.4 7.4 C 93.5 8.4 98.9 9.2 96.6 7.5 C 97.2 7.0 100.5 9.8 100.0 7.6 C 101.2 5.9 101.0 4.3 98.4 2.7 C 98.7 4.0 95.7 1.4 97.6 3.6 C 99.9 4.3 93.5 4.4 94.8 3.6 C 95.2 0.9 91.8 5.2 90.4 3.3 C 91.5 4.4 86.3 4.9 87.8 2.9 C 86.9 2.8 86.7 3.7 85.6 2.5 C 88.7 2.7 84.4 4.6 84.6 3.4 C 85.1 2.7 80.5 2.1 81.0 3.2 C 82.6 5.9 79.8 2.6 79.0 3.7 C 76.5 4.3 79.4 1.4 77.5 3.4 C 77.0 3.0 73.6 3.0 75.8 2.5 C 76.6 2.7 73.7 5.4 73.4 3.1 C 77.0 1.8 69.2 2.4 70.4 3.1 C 76.0 4.4 64.5 4.6 68.9 3.3 C 66.4 2.0 69.6 2.8 66.6 3.3 C 67.0 4.1 64.6 4.8 65.1 3.3 C 64.7 1.1 64.3 6.3 62.4 3.2 C 62.1 1.9 58.7 4.2 60.0 2.7 C 60.1 2.6 59.6 2.3 59.5 2.4 M 60.6 2.6 C 60.2 3.1 59.9 2.0 60.6 2.6 M 60.2 3.1 C 60.1 3.0 60.1 3.0 60.2 3.1 C 60.2 3.1 60.2 3.1 60.2 3.1 Z M 66.1 3.4 C 66.1 3.4 66.1 3.4 66.1 3.4 C 66.1 3.4 66.1 3.4 66.1 3.4 Z M 70.8 9.0 C 70.8 8.9 70.8 8.9 70.8 9.0 C 70.8 9.0 70.8 9.0 70.8 9.0 Z M 70.1 3.5 C 70.0 3.5 70.0 3.5 70.1 3.5 C 70.1 3.5 70.1 3.5 70.1 3.5 Z M 64.0 3.8 C 63.9 3.8 63.9 3.8 64.0 3.8 C 64.0 3.8 64.0 3.8 64.0 3.8 Z M 69.7 2.7 C 70.0 3.6 68.3 2.1 69.8 2.6 C 69.8 2.7 69.6 2.7 69.7 2.7 M 74.9 2.4 C 74.9 2.5 74.9 2.5 74.9 2.4 M 86.3 8.9 C 86.3 9.0 86.3 9.0 86.3 8.9 M 87.2 2.4 C 87.3 2.4 87.3 2.4 87.2 2.4 M 80.0 3.2 C 81.6 3.1 80.4 3.7 80.0 3.2 M 91.4 2.8 C 89.4 2.3 93.5 2.4 91.4 2.8 M 93.3 2.3 C 93.5 2.4 93.5 2.4 93.3 2.3 M 84.4 2.6 C 84.3 2.7 84.3 2.7 84.4 2.6 C 84.4 2.6 84.4 2.6 84.4 2.6 Z M 79.4 2.9 C 77.3 2.5 81.5 2.1 79.4 2.9 M 66.8 2.6 C 67.9 2.2 66.8 3.7 66.8 2.6 M 64.5 3.1 C 64.4 3.1 64.4 3.1 64.5 3.1 C 64.5 3.1 64.5 3.1 64.5 3.1 Z M 88.2 2.8 C 88.1 2.8 88.1 2.8 88.2 2.8 C 88.2 2.8 88.2 2.8 88.2 2.8 Z M 90.5 2.6 C 90.4 2.6 90.4 2.6 90.5 2.6 C 90.5 2.6 90.5 2.6 90.5 2.6 Z M 94.3 8.7 C 94.2 8.7 94.2 8.7 94.3 8.7 C 94.3 8.7 94.3 8.7 94.3 8.7 Z M 66.2 5.6 C 64.7 5.2 67.8 3.6 67.5 5.1 C 67.6 5.7 66.4 5.5 66.2 5.6 M 77.9 4.8 C 78.2 6.8 76.3 1.9 77.9 4.8 M 93.6 3.7 C 95.2 6.1 91.7 2.0 93.6 3.7 M 96.7 3.3 C 97.7 3.8 90.9 3.5 95.6 2.9 C 96.1 2.5 96.4 3.0 96.7 3.3 M 75.0 3.4 C 75.4 4.6 72.5 2.9 75.0 3.4 M 84.5 6.8 C 85.2 6.1 87.2 5.5 86.3 6.7 C 86.3 8.3 83.6 7.5 84.5 6.8 M 61.1 3.8 C 62.3 1.9 61.0 5.3 61.1 3.8 M 67.1 3.9 C 67.1 3.8 67.1 3.8 67.1 3.9 C 67.1 3.9 67.1 3.9 67.1 3.9 Z M 69.5 3.6 C 69.6 3.8 69.6 3.8 69.5 3.6 M 62.0 2.2 C 62.2 2.3 62.2 2.3 62.0 2.2 M 84.4 4.9 C 84.5 5.1 84.5 5.1 84.4 4.9 M 79.6 3.7 C 81.9 5.5 78.3 4.1 79.6 3.7 M 73.9 7.2 C 74.6 8.1 72.4 7.3 73.9 7.2 M 83.4 3.0 C 85.0 4.8 81.1 4.7 83.4 3.0 M 78.4 3.5 C 78.5 3.5 78.5 3.5 78.4 3.5 C 78.4 3.5 78.4 3.5 78.4 3.5 Z M 85.1 7.0 C 85.0 7.1 85.0 7.1 85.1 7.0 C 85.1 7.0 85.1 7.0 85.1 7.0 Z M 85.8 7.0 C 85.7 7.0 85.7 7.0 85.8 7.0 C 85.8 7.0 85.8 7.0 85.8 7.0 Z M 85.4 2.8 C 85.3 2.9 85.3 2.9 85.4 2.8 C 85.4 2.8 85.4 2.8 85.4 2.8 Z M 64.3 7.8 C 65.9 8.0 63.0 8.1 64.3 7.8 C 64.3 7.8 64.3 7.8 64.3 7.8 Z M 71.6 2.8 C 74.3 4.1 69.7 4.1 71.6 2.8 C 71.6 2.8 71.6 2.8 71.6 2.8 Z M 74.7 5.0 C 74.7 5.1 74.7 5.1 74.7 5.0 C 74.7 5.0 74.7 5.0 74.7 5.0 Z M 82.3 2.0 C 82.3 2.1 82.3 2.1 82.3 2.0 C 82.3 2.0 82.3 2.0 82.3 2.0 Z M 65.1 8.1 C 65.1 8.2 65.1 8.2 65.1 8.1 C 65.1 8.1 65.1 8.1 65.1 8.1 Z M 90.1 3.8 C 90.1 3.9 90.1 3.9 90.1 3.8 C 90.1 3.8 90.1 3.8 90.1 3.8 Z M 80.6 7.3 C 81.2 6.7 80.8 7.8 80.6 7.3 C 80.6 7.3 80.6 7.3 80.6 7.3 Z M 83.1 7.3 C 83.2 7.3 83.2 7.3 83.1 7.3 C 83.1 7.3 83.1 7.3 83.1 7.3 Z M 93.9 2.2 C 94.0 2.2 94.0 2.2 93.9 2.2 C 93.9 2.2 93.9 2.2 93.9 2.2 Z M 89.3 8.9 C 89.4 8.9 89.4 8.9 89.3 8.9 C 89.3 8.9 89.3 8.9 89.3 8.9 Z M 91.4 6.9 C 91.4 7.0 91.4 7.0 91.4 6.9 C 91.4 6.9 91.4 6.9 91.4 6.9 Z M 85.0 3.3 C 87.4 2.9 84.4 4.0 85.0 3.3 C 85.0 3.3 85.0 3.3 85.0 3.3 Z M 97.5 6.4 C 97.5 6.5 97.5 6.5 97.5 6.4 C 97.5 6.4 97.5 6.4 97.5 6.4 Z M 98.7 4.0 C 98.8 4.1 98.8 4.1 98.7 4.0 C 98.7 4.0 98.7 4.0 98.7 4.0 Z M 99.3 2.8 C 99.4 2.9 99.4 2.9 99.3 2.8 C 99.3 2.8 99.3 2.8 99.3 2.8 Z M 69.4 6.2 C 69.4 6.1 69.4 6.1 69.4 6.2 C 69.4 6.2 69.4 6.2 69.4 6.2 Z M 68.5 2.3 C 68.4 2.3 68.4 2.3 68.5 2.3 C 68.5 2.3 68.5 2.3 68.5 2.3 Z M 71.8 2.2 C 71.8 2.1 71.8 2.1 71.8 2.2 C 71.8 2.2 71.8 2.2 71.8 2.2 Z M 68.8 8.5 C 68.8 8.4 68.8 8.4 68.8 8.5 C 68.8 8.5 68.8 8.5 68.8 8.5 Z M 81.3 5.2 C 81.2 5.2 81.2 5.2 81.3 5.2 C 81.3 5.2 81.3 5.2 81.3 5.2 Z M 82.5 6.8 C 82.4 6.7 82.4 6.7 82.5 6.8 C 82.5 6.8 82.5 6.8 82.5 6.8 Z M 79.6 8.8 C 79.6 8.8 79.6 8.8 79.6 8.8 C 79.6 8.8 79.6 8.8 79.6 8.8 Z M 83.4 8.1 C 83.4 8.1 83.4 8.1 83.4 8.1 C 83.4 8.1 83.4 8.1 83.4 8.1 Z M 60.5 7.8 C 60.5 7.8 60.5 7.8 60.5 7.8 C 60.5 7.8 60.5 7.8 60.5 7.8 Z M 60.2 4.8 C 60.2 4.9 60.2 4.9 60.2 4.8 C 60.2 4.8 60.2 4.8 60.2 4.8 Z M 81.7 3.1 C 82.2 2.5 82.8 3.9 81.7 3.1 M 76.9 3.5 C 76.9 3.5 76.9 3.5 76.9 3.5 C 76.9 3.5 76.9 3.5 76.9 3.5 Z M 89.7 3.2 C 90.3 4.4 87.4 2.6 89.7 3.2 C 89.7 3.2 89.7 3.2 89.7 3.2 Z M 87.2 8.1 C 87.2 8.1 87.2 8.1 87.2 8.1 C 87.2 8.1 87.2 8.1 87.2 8.1 Z M 88.4 7.6 C 88.5 7.7 88.5 7.7 88.4 7.6 C 88.4 7.6 88.4 7.6 88.4 7.6 Z M 95.3 4.5 C 95.4 4.6 95.4 4.6 95.3 4.5 M 76.3 2.4 C 77.0 2.9 76.9 2.8 76.3 2.4 M 91.3 3.3 C 91.2 3.3 91.2 3.3 91.3 3.3 C 91.3 3.3 91.3 3.3 91.3 3.3 Z M 96.8 3.8 C 96.7 3.8 96.7 3.8 96.8 3.8 C 96.8 3.8 96.8 3.8 96.8 3.8 Z M 73.0 3.2 C 73.1 4.6 72.4 4.3 73.0 3.2 M 63.5 3.7 C 63.5 3.8 63.5 3.8 63.5 3.7 C 63.5 3.7 63.5 3.7 63.5 3.7 Z M 104.3 2.8 C 101.8 1.2 101.7 3.4 101.7 3.5 C 102.0 0.5 99.4 4.7 100.0 5.2 C 99.9 5.7 101.9 10.8 103.7 7.7 C 104.2 7.3 104.4 8.2 104.8 8.3 C 108.0 8.2 102.6 6.7 106.5 6.7 C 107.2 7.1 106.4 9.6 108.6 7.9 C 108.7 8.1 111.3 9.0 110.3 7.9 C 111.5 9.0 112.3 7.6 113.5 7.4 C 114.5 8.0 112.6 9.2 116.3 7.8 C 117.9 9.9 118.5 6.3 119.9 8.5 C 120.8 8.6 122.3 4.9 120.1 7.0 C 120.4 6.8 119.1 5.0 122.0 5.6 C 121.6 6.1 120.0 9.9 124.6 8.1 C 125.3 8.2 127.1 7.2 127.5 7.6 C 125.1 8.0 130.7 9.3 130.1 8.1 C 133.8 8.9 131.7 7.2 134.4 8.5 C 136.5 8.5 133.6 6.8 136.3 7.8 C 138.4 7.6 137.0 8.5 136.8 8.4 C 138.6 8.6 139.2 7.9 139.8 8.0 C 140.2 8.2 141.0 9.0 141.4 8.0 C 143.3 6.3 141.6 4.6 142.4 2.9 C 141.0 2.1 141.8 4.2 140.9 2.9 C 140.2 4.0 140.8 2.8 137.1 3.1 C 137.2 3.3 138.1 4.1 137.2 4.2 C 135.7 4.0 136.7 1.1 134.3 3.2 C 137.2 3.8 130.4 4.1 133.0 4.7 C 129.7 5.1 132.1 4.5 129.7 3.8 C 129.8 5.7 129.5 1.7 128.6 3.3 C 128.4 2.5 124.7 2.8 127.3 4.0 C 123.5 4.5 125.9 3.4 124.5 2.4 C 122.7 2.3 124.4 5.6 123.3 3.2 C 121.0 2.1 123.2 4.3 121.5 2.5 C 122.3 4.1 119.8 2.5 120.4 4.3 C 116.5 4.4 120.9 2.3 118.1 3.6 C 119.0 3.7 118.7 1.2 116.9 2.8 C 117.7 5.7 114.7 0.3 115.9 4.1 C 110.4 5.2 115.0 2.5 112.0 2.5 C 111.2 2.5 112.8 3.7 112.1 3.8 C 108.2 3.2 111.5 2.2 109.4 4.1 C 105.5 4.6 108.3 2.5 106.4 2.4 C 106.2 3.3 104.7 4.8 104.3 2.8 M 107.8 3.7 C 108.6 3.1 108.3 4.3 107.8 3.7 M 100.0 2.8 C 100.8 2.2 100.5 3.4 100.0 2.8 M 111.0 3.1 C 112.0 2.5 111.3 4.1 111.0 3.1 M 131.9 4.1 C 130.4 4.1 132.5 3.6 131.9 4.1 M 103.1 2.7 C 104.2 2.0 103.4 3.7 103.1 2.7 M 101.7 4.2 C 101.7 4.2 101.7 4.2 101.7 4.2 M 133.9 2.5 C 134.0 2.6 134.0 2.6 133.9 2.5 M 128.3 2.5 C 129.5 2.5 127.7 2.9 128.3 2.5 M 128.1 8.8 C 129.3 8.8 127.4 9.2 128.1 8.8 M 137.0 2.4 C 138.2 2.0 137.3 3.1 137.0 2.4 M 140.1 3.8 C 141.2 3.3 140.8 4.5 140.1 3.8 M 107.1 5.9 C 107.1 6.0 107.1 6.0 107.1 5.9 C 107.1 5.9 107.1 5.9 107.1 5.9 Z M 117.3 7.4 C 116.1 6.8 118.8 8.2 117.3 7.4 M 115.4 3.3 C 116.3 4.6 113.9 3.2 115.4 3.3 C 115.4 3.3 115.4 3.3 115.4 3.3 Z M 113.6 3.9 C 113.6 4.0 113.6 4.0 113.6 3.9 C 113.6 3.9 113.6 3.9 113.6 3.9 Z M 119.4 4.0 C 119.4 4.0 119.4 4.0 119.4 4.0 C 119.4 4.0 119.4 4.0 119.4 4.0 Z M 118.2 4.1 C 117.8 4.4 117.6 3.8 118.2 4.1 C 118.2 4.1 118.2 4.1 118.2 4.1 Z M 126.7 8.1 C 126.2 8.4 126.0 7.9 126.7 8.1 C 126.7 8.1 126.7 8.1 126.7 8.1 Z M 116.4 4.5 C 116.3 5.8 115.6 3.7 116.4 4.5 C 116.4 4.5 116.4 4.5 116.4 4.5 Z M 122.6 7.6 C 123.2 7.2 123.7 8.8 122.6 7.6 M 135.1 2.8 C 135.6 2.4 136.2 4.0 135.1 2.8 M 122.8 2.4 C 123.4 2.0 123.9 3.6 122.8 2.4 M 108.4 3.1 C 108.6 3.3 108.6 3.3 108.4 3.1 M 115.2 8.7 C 116.0 8.2 115.7 9.2 115.2 8.7 M 103.7 8.2 C 104.5 7.8 104.1 8.8 103.7 8.2 M 133.4 8.6 C 133.3 8.3 134.6 8.8 133.4 8.6 M 124.3 4.4 C 125.4 4.6 126.5 5.3 124.2 5.2 C 124.1 4.9 124.8 4.7 124.3 4.4 C 124.3 4.4 124.3 4.4 124.3 4.4 Z M 128.1 7.3 C 128.3 7.5 128.3 7.5 128.1 7.3 M 126.2 3.3 C 126.3 3.4 126.3 3.4 126.2 3.3 M 132.5 3.4 C 132.6 3.6 132.6 3.6 132.5 3.4 M 133.2 3.0 C 133.2 3.1 133.2 3.1 133.2 3.0 C 133.2 3.0 133.2 3.0 133.2 3.0 Z M 140.1 2.5 C 140.1 2.5 140.1 2.5 140.1 2.5 C 140.1 2.5 140.1 2.5 140.1 2.5 Z M 130.5 3.5 C 130.4 3.6 130.4 3.6 130.5 3.5 C 130.5 3.5 130.5 3.5 130.5 3.5 Z M 136.1 8.4 C 136.1 8.4 136.1 8.4 136.1 8.4 C 136.1 8.4 136.1 8.4 136.1 8.4 Z M 135.4 7.6 C 135.4 7.7 135.4 7.7 135.4 7.6 C 135.4 7.6 135.4 7.6 135.4 7.6 Z M 104.9 2.8 C 105.8 1.9 105.4 5.0 104.9 2.8 M 138.5 7.6 C 139.4 8.5 136.9 7.8 138.5 7.6 C 138.5 7.6 138.5 7.6 138.5 7.6 Z M 129.7 4.6 C 129.8 4.8 129.8 4.8 129.7 4.6 M 133.6 3.1 C 133.7 3.3 133.7 3.3 133.6 3.1 M 115.4 2.2 C 115.5 2.3 115.5 2.3 115.4 2.2 M 138.5 3.4 C 141.4 3.7 137.2 5.2 138.5 3.4 M 114.1 3.4 C 114.0 3.3 114.0 3.3 114.1 3.4 M 120.6 5.8 C 122.6 5.7 119.9 6.5 120.6 5.8 M 125.6 4.1 C 125.6 4.2 125.6 4.2 125.6 4.1 C 125.6 4.1 125.6 4.1 125.6 4.1 Z M 122.7 4.2 C 121.3 4.3 122.4 3.8 122.7 4.2 C 122.7 4.2 122.7 4.2 122.7 4.2 Z M 106.2 4.0 C 108.1 4.1 104.4 4.4 106.2 4.0 C 106.2 4.0 106.2 4.0 106.2 4.0 Z M 137.1 6.3 C 137.1 6.4 137.1 6.4 137.1 6.3 C 137.1 6.3 137.1 6.3 137.1 6.3 Z M 130.1 2.6 C 129.2 3.0 129.7 2.3 130.1 2.6 C 130.1 2.6 130.1 2.6 130.1 2.6 Z M 141.2 2.5 C 140.3 2.8 140.8 2.1 141.2 2.5 C 141.2 2.5 141.2 2.5 141.2 2.5 Z M 104.0 3.7 C 110.8 5.9 95.0 3.2 104.0 3.7 C 104.0 3.7 104.0 3.7 104.0 3.7 Z M 123.9 3.3 C 123.8 3.4 123.8 3.4 123.9 3.3 C 123.9 3.3 123.9 3.3 123.9 3.3 Z M 111.4 2.4 C 111.3 2.5 111.3 2.5 111.4 2.4 C 111.4 2.4 111.4 2.4 111.4 2.4 Z M 109.2 3.6 C 109.2 3.6 109.2 3.6 109.2 3.6 C 109.2 3.6 109.2 3.6 109.2 3.6 Z M 109.8 8.5 C 109.8 8.6 109.8 8.6 109.8 8.5 C 109.8 8.5 109.8 8.5 109.8 8.5 Z M 110.6 6.3 C 110.5 6.4 110.5 6.4 110.6 6.3 C 110.6 6.3 110.6 6.3 110.6 6.3 Z M 106.2 7.1 C 106.1 7.2 106.1 7.2 106.2 7.1 C 106.2 7.1 106.2 7.1 106.2 7.1 Z M 106.3 7.8 C 106.2 7.8 106.2 7.8 106.3 7.8 C 106.3 7.8 106.3 7.8 106.3 7.8 Z M 133.6 4.5 C 133.6 4.6 133.6 4.6 133.6 4.5 C 133.6 4.5 133.6 4.5 133.6 4.5 Z M 131.3 6.6 C 132.9 5.9 130.8 7.7 131.3 6.6 C 131.3 6.6 131.3 6.6 131.3 6.6 Z M 117.3 5.6 C 118.8 5.3 116.4 6.2 117.3 5.6 C 117.3 5.6 117.3 5.6 117.3 5.6 Z M 118.9 8.3 C 118.9 8.3 118.9 8.3 118.9 8.3 C 118.9 8.3 118.9 8.3 118.9 8.3 Z M 109.2 2.4 C 109.2 2.5 109.2 2.5 109.2 2.4 C 109.2 2.4 109.2 2.4 109.2 2.4 Z M 106.6 3.2 C 106.5 4.3 105.8 2.7 106.6 3.2 M 120.0 2.6 C 120.0 2.7 120.0 2.7 120.0 2.6 C 120.0 2.6 120.0 2.6 120.0 2.6 Z M 128.5 4.3 C 128.5 4.3 128.5 4.3 128.5 4.3 C 128.5 4.3 128.5 4.3 128.5 4.3 Z M 136.9 3.6 C 136.9 3.7 136.9 3.7 136.9 3.6 C 136.9 3.6 136.9 3.6 136.9 3.6 Z M 125.3 2.7 C 125.2 2.9 125.2 2.9 125.3 2.7 C 125.3 2.7 125.3 2.7 125.3 2.7 Z M 121.3 3.7 C 121.2 3.8 121.2 3.8 121.3 3.7 C 121.3 3.7 121.3 3.7 121.3 3.7 Z M 138.8 5.1 C 138.7 5.1 138.7 5.1 138.8 5.1 C 138.8 5.1 138.8 5.1 138.8 5.1 Z M 126.2 2.6 C 126.2 2.6 126.2 2.6 126.2 2.6 C 126.2 2.6 126.2 2.6 126.2 2.6 Z M 128.7 5.9 C 128.6 6.0 128.6 6.0 128.7 5.9 C 128.7 5.9 128.7 5.9 128.7 5.9 Z M 106.9 1.7 C 106.9 1.8 106.9 1.8 106.9 1.7 C 106.9 1.7 106.9 1.7 106.9 1.7 Z M 138.9 3.7 C 138.8 3.7 138.8 3.7 138.9 3.7 C 138.9 3.7 138.9 3.7 138.9 3.7 Z M 139.4 2.7 C 139.4 2.8 139.4 2.8 139.4 2.7 C 139.4 2.7 139.4 2.7 139.4 2.7 Z M 133.4 7.7 C 130.4 7.1 136.1 7.5 133.9 6.3 C 138.2 6.1 134.1 7.8 133.4 7.7 C 133.4 7.7 133.4 7.7 133.4 7.7 Z M 143.4 2.4 C 141.7 3.8 141.7 5.1 142.5 6.6 C 143.3 7.3 143.2 4.5 143.3 6.9 C 141.4 7.3 144.1 10.5 144.1 7.4 C 146.6 6.9 144.5 9.4 146.0 8.1 C 148.6 7.8 147.2 8.8 149.3 8.6 C 150.5 6.9 150.5 9.4 151.0 7.8 C 150.0 9.5 153.2 7.3 153.3 8.1 C 151.4 9.2 160.4 8.1 155.5 7.6 C 157.5 6.8 157.1 8.2 157.8 8.4 C 158.6 7.4 161.0 9.2 162.3 8.2 C 162.0 8.0 161.4 7.9 161.2 7.6 C 160.9 6.9 162.6 7.7 162.4 7.7 C 163.2 7.3 166.5 6.3 163.0 8.1 C 162.9 8.9 165.8 7.7 165.7 8.5 C 168.7 8.5 166.5 6.8 167.8 8.0 C 169.9 8.1 171.4 8.1 171.4 7.9 C 172.7 8.1 173.0 9.0 174.1 8.1 C 176.7 9.9 176.0 4.6 177.0 8.2 C 177.7 7.3 178.4 9.7 178.3 7.4 C 177.4 8.4 182.8 9.2 180.4 7.5 C 181.1 7.0 184.4 9.8 183.9 7.6 C 185.1 5.9 184.9 4.3 182.3 2.7 C 182.6 4.0 179.5 1.4 181.5 3.6 C 183.7 4.3 177.4 4.4 178.7 3.6 C 179.1 0.9 175.6 5.2 174.3 3.3 C 175.4 4.4 170.2 4.9 171.7 2.9 C 170.8 2.8 170.6 3.7 169.5 2.5 C 172.6 2.7 168.3 4.6 168.5 3.4 C 169.0 2.7 164.4 2.1 164.9 3.2 C 166.5 5.9 163.7 2.6 162.9 3.7 C 160.4 4.3 163.3 1.4 161.4 3.4 C 160.9 3.0 157.5 3.0 159.6 2.5 C 160.5 2.7 157.6 5.4 157.3 3.1 C 160.9 1.8 153.1 2.4 154.3 3.1 C 159.9 4.4 148.4 4.6 152.8 3.3 C 150.3 2.0 153.5 2.8 150.4 3.3 C 150.9 4.1 148.5 4.8 149.0 3.3 C 148.5 1.1 148.2 6.3 146.3 3.2 C 146.0 1.9 142.6 4.2 143.9 2.7 C 144.0 2.6 143.5 2.3 143.4 2.4 M 144.5 2.6 C 144.1 3.1 143.8 2.0 144.5 2.6 M 144.0 3.1 C 144.0 3.0 144.0 3.0 144.0 3.1 C 144.0 3.1 144.0 3.1 144.0 3.1 Z M 150.0 3.4 C 150.0 3.4 150.0 3.4 150.0 3.4 C 150.0 3.4 150.0 3.4 150.0 3.4 Z M 154.7 9.0 C 154.7 8.9 154.7 8.9 154.7 9.0 C 154.7 9.0 154.7 9.0 154.7 9.0 Z M 154.0 3.5 C 153.9 3.5 153.9 3.5 154.0 3.5 C 154.0 3.5 154.0 3.5 154.0 3.5 Z M 147.9 3.8 C 147.8 3.8 147.8 3.8 147.9 3.8 C 147.9 3.8 147.9 3.8 147.9 3.8 Z M 153.6 2.7 C 153.9 3.6 152.2 2.1 153.7 2.6 C 153.7 2.7 153.5 2.7 153.6 2.7 M 158.8 2.4 C 158.8 2.5 158.8 2.5 158.8 2.4 M 170.2 8.9 C 170.2 9.0 170.2 9.0 170.2 8.9 M 171.1 2.4 C 171.2 2.4 171.2 2.4 171.1 2.4 M 163.9 3.2 C 165.5 3.1 164.3 3.7 163.9 3.2 M 175.3 2.8 C 173.3 2.3 177.4 2.4 175.3 2.8 M 177.2 2.3 C 177.4 2.4 177.4 2.4 177.2 2.3 M 168.2 2.6 C 168.2 2.7 168.2 2.7 168.2 2.6 C 168.2 2.6 168.2 2.6 168.2 2.6 Z M 163.3 2.9 C 161.2 2.5 165.4 2.1 163.3 2.9 M 150.7 2.6 C 151.8 2.2 150.7 3.7 150.7 2.6 M 148.4 3.1 C 148.3 3.1 148.3 3.1 148.4 3.1 C 148.4 3.1 148.4 3.1 148.4 3.1 Z M 172.1 2.8 C 172.0 2.8 172.0 2.8 172.1 2.8 C 172.1 2.8 172.1 2.8 172.1 2.8 Z M 174.4 2.6 C 174.3 2.6 174.3 2.6 174.4 2.6 C 174.4 2.6 174.4 2.6 174.4 2.6 Z M 178.2 8.7 C 178.1 8.7 178.1 8.7 178.2 8.7 C 178.2 8.7 178.2 8.7 178.2 8.7 Z M 150.1 5.6 C 148.6 5.2 151.7 3.6 151.4 5.1 C 151.5 5.7 150.3 5.5 150.1 5.6 M 161.7 4.8 C 162.1 6.8 160.2 1.9 161.7 4.8 M 177.5 3.7 C 179.0 6.1 175.6 2.0 177.5 3.7 M 180.6 3.3 C 181.6 3.8 174.8 3.5 179.5 2.9 C 180.0 2.5 180.3 3.0 180.6 3.3 M 158.8 3.4 C 159.3 4.6 156.4 2.9 158.8 3.4 M 168.4 6.8 C 169.1 6.1 171.1 5.5 170.2 6.7 C 170.2 8.3 167.4 7.5 168.4 6.8 M 145.0 3.8 C 146.2 1.9 144.9 5.3 145.0 3.8 M 151.0 3.9 C 151.0 3.8 151.0 3.8 151.0 3.9 C 151.0 3.9 151.0 3.9 151.0 3.9 Z M 153.4 3.6 C 153.5 3.8 153.5 3.8 153.4 3.6 M 145.9 2.2 C 146.0 2.3 146.0 2.3 145.9 2.2 M 168.3 4.9 C 168.4 5.1 168.4 5.1 168.3 4.9 M 163.5 3.7 C 165.8 5.5 162.2 4.1 163.5 3.7 M 157.8 7.2 C 158.5 8.1 156.3 7.3 157.8 7.2 M 167.3 3.0 C 168.9 4.8 165.0 4.7 167.3 3.0 M 162.3 3.5 C 162.4 3.5 162.4 3.5 162.3 3.5 C 162.3 3.5 162.3 3.5 162.3 3.5 Z M 169.0 7.0 C 168.9 7.1 168.9 7.1 169.0 7.0 C 169.0 7.0 169.0 7.0 169.0 7.0 Z M 169.7 7.0 C 169.6 7.0 169.6 7.0 169.7 7.0 C 169.7 7.0 169.7 7.0 169.7 7.0 Z M 169.3 2.8 C 169.2 2.9 169.2 2.9 169.3 2.8 C 169.3 2.8 169.3 2.8 169.3 2.8 Z M 148.2 7.8 C 149.8 8.0 146.9 8.1 148.2 7.8 C 148.2 7.8 148.2 7.8 148.2 7.8 Z M 155.5 2.8 C 158.2 4.1 153.6 4.1 155.5 2.8 C 155.5 2.8 155.5 2.8 155.5 2.8 Z M 158.6 5.0 C 158.6 5.1 158.6 5.1 158.6 5.0 C 158.6 5.0 158.6 5.0 158.6 5.0 Z M 166.2 2.0 C 166.2 2.1 166.2 2.1 166.2 2.0 C 166.2 2.0 166.2 2.0 166.2 2.0 Z M 149.0 8.1 C 149.0 8.2 149.0 8.2 149.0 8.1 C 149.0 8.1 149.0 8.1 149.0 8.1 Z M 174.0 3.8 C 174.0 3.9 174.0 3.9 174.0 3.8 C 174.0 3.8 174.0 3.8 174.0 3.8 Z M 164.5 7.3 C 165.1 6.7 164.6 7.8 164.5 7.3 C 164.5 7.3 164.5 7.3 164.5 7.3 Z M 167.0 7.3 C 167.0 7.3 167.0 7.3 167.0 7.3 C 167.0 7.3 167.0 7.3 167.0 7.3 Z M 177.8 2.2 C 177.9 2.2 177.9 2.2 177.8 2.2 C 177.8 2.2 177.8 2.2 177.8 2.2 Z M 173.2 8.9 C 173.3 8.9 173.3 8.9 173.2 8.9 C 173.2 8.9 173.2 8.9 173.2 8.9 Z M 175.3 6.9 C 175.3 7.0 175.3 7.0 175.3 6.9 C 175.3 6.9 175.3 6.9 175.3 6.9 Z M 168.9 3.3 C 171.3 2.9 168.3 4.0 168.9 3.3 C 168.9 3.3 168.9 3.3 168.9 3.3 Z M 181.4 6.4 C 181.4 6.5 181.4 6.5 181.4 6.4 C 181.4 6.4 181.4 6.4 181.4 6.4 Z M 182.6 4.0 C 182.7 4.1 182.7 4.1 182.6 4.0 C 182.6 4.0 182.6 4.0 182.6 4.0 Z M 183.2 2.8 C 183.3 2.9 183.3 2.9 183.2 2.8 C 183.2 2.8 183.2 2.8 183.2 2.8 Z M 153.3 6.2 C 153.3 6.1 153.3 6.1 153.3 6.2 C 153.3 6.2 153.3 6.2 153.3 6.2 Z M 152.3 2.3 C 152.3 2.3 152.3 2.3 152.3 2.3 C 152.3 2.3 152.3 2.3 152.3 2.3 Z M 155.7 2.2 C 155.7 2.1 155.7 2.1 155.7 2.2 C 155.7 2.2 155.7 2.2 155.7 2.2 Z M 152.7 8.5 C 152.7 8.4 152.7 8.4 152.7 8.5 C 152.7 8.5 152.7 8.5 152.7 8.5 Z M 165.2 5.2 C 165.1 5.2 165.1 5.2 165.2 5.2 C 165.2 5.2 165.2 5.2 165.2 5.2 Z M 166.4 6.8 C 166.3 6.7 166.3 6.7 166.4 6.8 C 166.4 6.8 166.4 6.8 166.4 6.8 Z M 163.5 8.8 C 163.5 8.8 163.5 8.8 163.5 8.8 C 163.5 8.8 163.5 8.8 163.5 8.8 Z M 167.3 8.1 C 167.2 8.1 167.2 8.1 167.3 8.1 C 167.3 8.1 167.3 8.1 167.3 8.1 Z M 144.4 7.8 C 144.4 7.8 144.4 7.8 144.4 7.8 C 144.4 7.8 144.4 7.8 144.4 7.8 Z M 144.1 4.8 C 144.1 4.9 144.1 4.9 144.1 4.8 C 144.1 4.8 144.1 4.8 144.1 4.8 Z M 165.6 3.1 C 166.1 2.5 166.7 3.9 165.6 3.1 M 160.8 3.5 C 160.8 3.5 160.8 3.5 160.8 3.5 C 160.8 3.5 160.8 3.5 160.8 3.5 Z M 173.6 3.2 C 174.2 4.4 171.3 2.6 173.6 3.2 C 173.6 3.2 173.6 3.2 173.6 3.2 Z M 171.0 8.1 C 171.1 8.1 171.1 8.1 171.0 8.1 C 171.0 8.1 171.0 8.1 171.0 8.1 Z M 172.3 7.6 C 172.4 7.7 172.4 7.7 172.3 7.6 C 172.3 7.6 172.3 7.6 172.3 7.6 Z M 179.2 4.5 C 179.3 4.6 179.3 4.6 179.2 4.5 M 160.2 2.4 C 160.9 2.9 160.8 2.8 160.2 2.4 M 175.2 3.3 C 175.1 3.3 175.1 3.3 175.2 3.3 C 175.2 3.3 175.2 3.3 175.2 3.3 Z M 180.7 3.8 C 180.6 3.8 180.6 3.8 180.7 3.8 C 180.7 3.8 180.7 3.8 180.7 3.8 Z M 156.8 3.2 C 157.0 4.6 156.3 4.3 156.8 3.2 M 147.4 3.7 C 147.4 3.8 147.4 3.8 147.4 3.7 C 147.4 3.7 147.4 3.7 147.4 3.7 Z M 147.4 3.7 " fill="#71AFE1"></path></g></g></g></svg>