<?xml version="1.0" encoding="UTF-8" standalone="no"?><svg xmlns="http://www.w3.org/2000/svg" xmlns:xlink="http://www.w3.org/1999/xlink" clip-rule="evenodd" stroke-miterlimit="4.00" viewBox="0 0 180 21"><desc>SVG generated by Keynote</desc><defs></defs><g transform="matrix(1.00, 0.00, -0.00, -1.00, 0.0, 21.0)"><text xml:space="preserve" font-family="Courier-Bold" font-weight="bold" font-size="20.0" fill="#008E00" transform="matrix(1.00, 0.00, -0.00, -1.00, 2.0, 6.0)">p</text><text xml:space="preserve" font-family="Courier-Bold" font-weight="bold" font-size="20.0" fill="#008E00" transform="matrix(1.00, 0.00, -0.00, -1.00, 14.0, 6.0)">r</text><text xml:space="preserve" font-family="Courier-Bold" font-weight="bold" font-size="20.0" fill="#008E00" transform="matrix(1.00, 0.00, -0.00, -1.00, 26.0, 6.0)">i</text><text xml:space="preserve" font-family="Courier-Bold" font-weight="bold" font-size="20.0" fill="#008E00" transform="matrix(1.00, 0.00, -0.00, -1.00, 38.0, 6.0)">n</text><text xml:space="preserve" font-family="Courier-Bold" font-weight="bold" font-size="20.0" fill="#008E00" transform="matrix(1.00, 0.00, -0.00, -1.00, 50.0, 6.0)">t</text><text xml:space="preserve" font-family="Courier" font-size="20.0" fill="#000000" transform="matrix(1.00, 0.00, -0.00, -1.00, 62.0, 6.0)">(</text><text xml:space="preserve" font-family="Courier" font-size="20.0" fill="#C8352B" transform="matrix(1.00, 0.00, -0.00, -1.00, 74.0, 6.0)">'</text><text xml:space="preserve" font-family="Courier" font-size="20.0" fill="#C8352B" transform="matrix(1.00, 0.00, -0.00, -1.00, 86.0, 6.0)">L</text><text xml:space="preserve" font-family="Courier" font-size="20.0" fill="#C8352B" transform="matrix(1.00, 0.00, -0.00, -1.00, 98.0, 6.0)">a</text><text xml:space="preserve" font-family="Courier" font-size="20.0" fill="#C8352B" transform="matrix(1.00, 0.00, -0.00, -1.00, 110.0, 6.0)">t</text><text xml:space="preserve" font-family="Courier" font-size="20.0" fill="#C8352B" transform="matrix(1.00, 0.00, -0.00, -1.00, 122.0, 6.0)">e</text><text xml:space="preserve" font-family="Courier" font-size="20.0" fill="#C8352B" transform="matrix(1.00, 0.00, -0.00, -1.00, 134.0, 6.0)">r</text><text xml:space="preserve" font-family="Courier" font-size="20.0" fill="#C8352B" transform="matrix(1.00, 0.00, -0.00, -1.00, 146.0, 6.0)">!</text><text xml:space="preserve" font-family="Courier" font-size="20.0" fill="#C8352B" transform="matrix(1.00, 0.00, -0.00, -1.00, 158.0, 6.0)">'</text><text xml:space="preserve" font-family="Courier" font-size="20.0" fill="#000000" transform="matrix(1.00, 0.00, -0.00, -1.00, 170.0, 6.0)">)</text></g></svg>