<?xml version="1.0" encoding="UTF-8" standalone="no"?><svg xmlns="http://www.w3.org/2000/svg" xmlns:xlink="http://www.w3.org/1999/xlink" clip-rule="evenodd" stroke-miterlimit="4.00" viewBox="0 0 335 21"><desc>SVG generated by Keynote</desc><defs></defs><g transform="matrix(1.00, 0.00, -0.00, -1.00, 0.0, 21.0)"><text xml:space="preserve" font-family="Courier" font-size="20.0" fill="#000000" transform="matrix(1.00, 0.00, -0.00, -1.00, 1.0, 6.0)">s</text><text xml:space="preserve" font-family="Courier" font-size="20.0" fill="#000000" transform="matrix(1.00, 0.00, -0.00, -1.00, 13.0, 6.0)"> </text><text xml:space="preserve" font-family="Courier" font-size="20.0" fill="#797979" transform="matrix(1.00, 0.00, -0.00, -1.00, 25.0, 6.0)">=</text><text xml:space="preserve" font-family="Courier" font-size="20.0" fill="#000000" transform="matrix(1.00, 0.00, -0.00, -1.00, 37.0, 6.0)"> </text><text xml:space="preserve" font-family="Courier" font-size="20.0" fill="#008E00" transform="matrix(1.00, 0.00, -0.00, -1.00, 49.0, 6.0)">i</text><text xml:space="preserve" font-family="Courier" font-size="20.0" fill="#008E00" transform="matrix(1.00, 0.00, -0.00, -1.00, 61.0, 6.0)">n</text><text xml:space="preserve" font-family="Courier" font-size="20.0" fill="#008E00" transform="matrix(1.00, 0.00, -0.00, -1.00, 73.0, 6.0)">p</text><text xml:space="preserve" font-family="Courier" font-size="20.0" fill="#008E00" transform="matrix(1.00, 0.00, -0.00, -1.00, 85.0, 6.0)">u</text><text xml:space="preserve" font-family="Courier" font-size="20.0" fill="#008E00" transform="matrix(1.00, 0.00, -0.00, -1.00, 97.0, 6.0)">t</text><text xml:space="preserve" font-family="Courier" font-size="20.0" fill="#000000" transform="matrix(1.00, 0.00, -0.00, -1.00, 109.0, 6.0)">(</text><text xml:space="preserve" font-family="Courier" font-size="20.0" fill="#C8352B" transform="matrix(1.00, 0.00, -0.00, -1.00, 121.0, 6.0)">'</text><text xml:space="preserve" font-family="Courier" font-size="20.0" fill="#C8352B" transform="matrix(1.00, 0.00, -0.00, -1.00, 133.0, 6.0)">W</text><text xml:space="preserve" font-family="Courier" font-size="20.0" fill="#C8352B" transform="matrix(1.00, 0.00, -0.00, -1.00, 145.0, 6.0)">a</text><text xml:space="preserve" font-family="Courier" font-size="20.0" fill="#C8352B" transform="matrix(1.00, 0.00, -0.00, -1.00, 157.0, 6.0)">n</text><text xml:space="preserve" font-family="Courier" font-size="20.0" fill="#C8352B" transform="matrix(1.00, 0.00, -0.00, -1.00, 169.0, 6.0)">t</text><text xml:space="preserve" font-family="Courier" font-size="20.0" fill="#C8352B" transform="matrix(1.00, 0.00, -0.00, -1.00, 181.0, 6.0)"> </text><text xml:space="preserve" font-family="Courier" font-size="20.0" fill="#C8352B" transform="matrix(1.00, 0.00, -0.00, -1.00, 193.0, 6.0)">c</text><text xml:space="preserve" font-family="Courier" font-size="20.0" fill="#C8352B" transform="matrix(1.00, 0.00, -0.00, -1.00, 205.0, 6.0)">a</text><text xml:space="preserve" font-family="Courier" font-size="20.0" fill="#C8352B" transform="matrix(1.00, 0.00, -0.00, -1.00, 217.1, 6.0)">n</text><text xml:space="preserve" font-family="Courier" font-size="20.0" fill="#C8352B" transform="matrix(1.00, 0.00, -0.00, -1.00, 229.1, 6.0)">d</text><text xml:space="preserve" font-family="Courier" font-size="20.0" fill="#C8352B" transform="matrix(1.00, 0.00, -0.00, -1.00, 241.1, 6.0)">i</text><text xml:space="preserve" font-family="Courier" font-size="20.0" fill="#C8352B" transform="matrix(1.00, 0.00, -0.00, -1.00, 253.1, 6.0)">e</text><text xml:space="preserve" font-family="Courier" font-size="20.0" fill="#C8352B" transform="matrix(1.00, 0.00, -0.00, -1.00, 265.1, 6.0)">s</text><text xml:space="preserve" font-family="Courier" font-size="20.0" fill="#C8352B" transform="matrix(1.00, 0.00, -0.00, -1.00, 277.1, 6.0)">?</text><text xml:space="preserve" font-family="Courier-Bold" font-weight="bold" font-size="20.0" fill="#C8792C" transform="matrix(1.00, 0.00, -0.00, -1.00, 289.0, 6.0)">\</text><text xml:space="preserve" font-family="Courier-Bold" font-weight="bold" font-size="20.0" fill="#C8792C" transform="matrix(1.00, 0.00, -0.00, -1.00, 301.1, 6.0)">n</text><text xml:space="preserve" font-family="Courier" font-size="20.0" fill="#C8352B" transform="matrix(1.00, 0.00, -0.00, -1.00, 313.1, 6.0)">'</text><text xml:space="preserve" font-family="Courier" font-size="20.0" fill="#000000" transform="matrix(1.00, 0.00, -0.00, -1.00, 325.1, 6.0)">)</text></g></svg>