<?xml version="1.0" encoding="UTF-8" standalone="no"?><svg xmlns="http://www.w3.org/2000/svg" xmlns:xlink="http://www.w3.org/1999/xlink" clip-rule="evenodd" stroke-miterlimit="4.00" viewBox="0 0 708 64"><desc>SVG generated by Keynote</desc><defs></defs><g transform="matrix(1.00, 0.00, -0.00, -1.00, 0.0, 64.0)"><text xml:space="preserve" font-family="Chalkduster" font-size="50.0" fill="#FEFFFE" transform="matrix(1.00, 0.00, -0.00, -1.00, -1.0, 19.0)">N</text><text xml:space="preserve" font-family="Chalkduster" font-size="50.0" fill="#FEFFFE" transform="matrix(1.00, 0.00, -0.00, -1.00, 33.7, 19.0)">e</text><text xml:space="preserve" font-family="Chalkduster" font-size="50.0" fill="#FEFFFE" transform="matrix(1.00, 0.00, -0.00, -1.00, 65.8, 19.0)">s</text><text xml:space="preserve" font-family="Chalkduster" font-size="50.0" fill="#FEFFFE" transform="matrix(1.00, 0.00, -0.00, -1.00, 92.6, 19.0)">t</text><text xml:space="preserve" font-family="Chalkduster" font-size="50.0" fill="#FEFFFE" transform="matrix(1.00, 0.00, -0.00, -1.00, 115.7, 19.0)">i</text><text xml:space="preserve" font-family="Chalkduster" font-size="50.0" fill="#FEFFFE" transform="matrix(1.00, 0.00, -0.00, -1.00, 135.5, 19.0)">n</text><text xml:space="preserve" font-family="Chalkduster" font-size="50.0" fill="#FEFFFE" transform="matrix(1.00, 0.00, -0.00, -1.00, 170.6, 19.0)">g</text><text xml:space="preserve" font-family="Chalkduster" font-size="50.0" fill="#FEFFFE" transform="matrix(1.00, 0.00, -0.00, -1.00, 204.7, 19.0)"> </text><text xml:space="preserve" font-family="Chalkduster" font-size="50.0" fill="#FEFFFE" transform="matrix(1.00, 0.00, -0.00, -1.00, 229.5, 19.0)">a</text><text xml:space="preserve" font-family="Chalkduster" font-size="50.0" fill="#FEFFFE" transform="matrix(1.00, 0.00, -0.00, -1.00, 264.0, 19.0)">n</text><text xml:space="preserve" font-family="Chalkduster" font-size="50.0" fill="#FEFFFE" transform="matrix(1.00, 0.00, -0.00, -1.00, 300.7, 19.0)">d</text><text xml:space="preserve" font-family="Chalkduster" font-size="50.0" fill="#FEFFFE" transform="matrix(1.00, 0.00, -0.00, -1.00, 339.7, 19.0)"> </text><text xml:space="preserve" font-family="Chalkduster" font-size="50.0" fill="#FEFFFE" transform="matrix(1.00, 0.00, -0.00, -1.00, 364.6, 19.0)">I</text><text xml:space="preserve" font-family="Chalkduster" font-size="50.0" fill="#FEFFFE" transform="matrix(1.00, 0.00, -0.00, -1.00, 394.3, 19.0)">n</text><text xml:space="preserve" font-family="Chalkduster" font-size="50.0" fill="#FEFFFE" transform="matrix(1.00, 0.00, -0.00, -1.00, 431.0, 19.0)">d</text><text xml:space="preserve" font-family="Chalkduster" font-size="50.0" fill="#FEFFFE" transform="matrix(1.00, 0.00, -0.00, -1.00, 470.1, 19.0)">e</text><text xml:space="preserve" font-family="Chalkduster" font-size="50.0" fill="#FEFFFE" transform="matrix(1.00, 0.00, -0.00, -1.00, 501.6, 19.0)">n</text><text xml:space="preserve" font-family="Chalkduster" font-size="50.0" fill="#FEFFFE" transform="matrix(1.00, 0.00, -0.00, -1.00, 536.4, 19.0)">t</text><text xml:space="preserve" font-family="Chalkduster" font-size="50.0" fill="#FEFFFE" transform="matrix(1.00, 0.00, -0.00, -1.00, 558.7, 19.0)">a</text><text xml:space="preserve" font-family="Chalkduster" font-size="50.0" fill="#FEFFFE" transform="matrix(1.00, 0.00, -0.00, -1.00, 589.7, 19.0)">t</text><text xml:space="preserve" font-family="Chalkduster" font-size="50.0" fill="#FEFFFE" transform="matrix(1.00, 0.00, -0.00, -1.00, 612.8, 19.0)">i</text><text xml:space="preserve" font-family="Chalkduster" font-size="50.0" fill="#FEFFFE" transform="matrix(1.00, 0.00, -0.00, -1.00, 632.6, 19.0)">o</text><text xml:space="preserve" font-family="Chalkduster" font-size="50.0" fill="#FEFFFE" transform="matrix(1.00, 0.00, -0.00, -1.00, 669.8, 19.0)">n</text></g></svg>