<?xml version="1.0" encoding="UTF-8" standalone="no"?><svg xmlns="http://www.w3.org/2000/svg" xmlns:xlink="http://www.w3.org/1999/xlink" clip-rule="evenodd" stroke-miterlimit="4.00" viewBox="0 0 206 21"><desc>SVG generated by Keynote</desc><defs></defs><g transform="matrix(1.00, 0.00, -0.00, -1.00, 0.0, 21.0)"><text xml:space="preserve" font-family="Courier-Oblique" font-style="italic" font-size="20.0" fill="#4E9192" transform="matrix(1.00, 0.00, -0.00, -1.00, 0.1, 5.0)">#</text><text xml:space="preserve" font-family="Courier-Oblique" font-style="italic" font-size="20.0" fill="#4E9192" transform="matrix(1.00, 0.00, -0.00, -1.00, 12.1, 5.0)"> </text><text xml:space="preserve" font-family="Courier-Oblique" font-style="italic" font-size="20.0" fill="#4E9192" transform="matrix(1.00, 0.00, -0.00, -1.00, 24.1, 5.0)">b</text><text xml:space="preserve" font-family="Courier-Oblique" font-style="italic" font-size="20.0" fill="#4E9192" transform="matrix(1.00, 0.00, -0.00, -1.00, 36.1, 5.0)">u</text><text xml:space="preserve" font-family="Courier-Oblique" font-style="italic" font-size="20.0" fill="#4E9192" transform="matrix(1.00, 0.00, -0.00, -1.00, 48.1, 5.0)">t</text><text xml:space="preserve" font-family="Courier-Oblique" font-style="italic" font-size="20.0" fill="#4E9192" transform="matrix(1.00, 0.00, -0.00, -1.00, 60.1, 5.0)"> </text><text xml:space="preserve" font-family="Courier-Oblique" font-style="italic" font-size="20.0" fill="#4E9192" transform="matrix(1.00, 0.00, -0.00, -1.00, 72.1, 5.0)">n</text><text xml:space="preserve" font-family="Courier-Oblique" font-style="italic" font-size="20.0" fill="#4E9192" transform="matrix(1.00, 0.00, -0.00, -1.00, 84.1, 5.0)">o</text><text xml:space="preserve" font-family="Courier-Oblique" font-style="italic" font-size="20.0" fill="#4E9192" transform="matrix(1.00, 0.00, -0.00, -1.00, 96.1, 5.0)"> </text><text xml:space="preserve" font-family="Courier-Oblique" font-style="italic" font-size="20.0" fill="#4E9192" transform="matrix(1.00, 0.00, -0.00, -1.00, 108.1, 5.0)">e</text><text xml:space="preserve" font-family="Courier-Oblique" font-style="italic" font-size="20.0" fill="#4E9192" transform="matrix(1.00, 0.00, -0.00, -1.00, 120.1, 5.0)">l</text><text xml:space="preserve" font-family="Courier-Oblique" font-style="italic" font-size="20.0" fill="#4E9192" transform="matrix(1.00, 0.00, -0.00, -1.00, 132.1, 5.0)">l</text><text xml:space="preserve" font-family="Courier-Oblique" font-style="italic" font-size="20.0" fill="#4E9192" transform="matrix(1.00, 0.00, -0.00, -1.00, 144.1, 5.0)">i</text><text xml:space="preserve" font-family="Courier-Oblique" font-style="italic" font-size="20.0" fill="#4E9192" transform="matrix(1.00, 0.00, -0.00, -1.00, 156.1, 5.0)">p</text><text xml:space="preserve" font-family="Courier-Oblique" font-style="italic" font-size="20.0" fill="#4E9192" transform="matrix(1.00, 0.00, -0.00, -1.00, 168.1, 5.0)">s</text><text xml:space="preserve" font-family="Courier-Oblique" font-style="italic" font-size="20.0" fill="#4E9192" transform="matrix(1.00, 0.00, -0.00, -1.00, 180.1, 5.0)">i</text><text xml:space="preserve" font-family="Courier-Oblique" font-style="italic" font-size="20.0" fill="#4E9192" transform="matrix(1.00, 0.00, -0.00, -1.00, 192.1, 5.0)">s</text></g></svg>