<?xml version="1.0" encoding="UTF-8" standalone="no"?><svg xmlns="http://www.w3.org/2000/svg" xmlns:xlink="http://www.w3.org/1999/xlink" clip-rule="evenodd" stroke-miterlimit="4.00" viewBox="0 0 733 22"><desc>SVG generated by Keynote</desc><defs></defs><g transform="matrix(1.00, 0.00, -0.00, -1.00, 0.0, 22.0)"><text xml:space="preserve" font-family="Courier-Bold" font-weight="bold" font-size="20.0" fill="#008E00" transform="matrix(1.00, 0.00, -0.00, -1.00, 2.0, 6.0)">w</text><text xml:space="preserve" font-family="Courier-Bold" font-weight="bold" font-size="20.0" fill="#008E00" transform="matrix(1.00, 0.00, -0.00, -1.00, 14.0, 6.0)">i</text><text xml:space="preserve" font-family="Courier-Bold" font-weight="bold" font-size="20.0" fill="#008E00" transform="matrix(1.00, 0.00, -0.00, -1.00, 26.0, 6.0)">t</text><text xml:space="preserve" font-family="Courier-Bold" font-weight="bold" font-size="20.0" fill="#008E00" transform="matrix(1.00, 0.00, -0.00, -1.00, 38.0, 6.0)">h</text><text xml:space="preserve" font-family="Courier" font-size="20.0" fill="#000000" transform="matrix(1.00, 0.00, -0.00, -1.00, 50.0, 6.0)"> </text><text xml:space="preserve" font-family="Courier" font-size="20.0" fill="#008E00" transform="matrix(1.00, 0.00, -0.00, -1.00, 62.0, 6.0)">o</text><text xml:space="preserve" font-family="Courier" font-size="20.0" fill="#008E00" transform="matrix(1.00, 0.00, -0.00, -1.00, 74.0, 6.0)">p</text><text xml:space="preserve" font-family="Courier" font-size="20.0" fill="#008E00" transform="matrix(1.00, 0.00, -0.00, -1.00, 86.0, 6.0)">e</text><text xml:space="preserve" font-family="Courier" font-size="20.0" fill="#008E00" transform="matrix(1.00, 0.00, -0.00, -1.00, 98.0, 6.0)">n</text><text xml:space="preserve" font-family="Courier" font-size="20.0" fill="#000000" transform="matrix(1.00, 0.00, -0.00, -1.00, 110.0, 6.0)">(</text><text xml:space="preserve" font-family="Courier" font-size="20.0" fill="#C8352B" transform="matrix(1.00, 0.00, -0.00, -1.00, 122.0, 6.0)">'</text><text xml:space="preserve" font-family="Courier" font-size="20.0" fill="#C8352B" transform="matrix(1.00, 0.00, -0.00, -1.00, 134.0, 6.0)">b</text><text xml:space="preserve" font-family="Courier" font-size="20.0" fill="#C8352B" transform="matrix(1.00, 0.00, -0.00, -1.00, 146.0, 6.0)">o</text><text xml:space="preserve" font-family="Courier" font-size="20.0" fill="#C8352B" transform="matrix(1.00, 0.00, -0.00, -1.00, 158.0, 6.0)">o</text><text xml:space="preserve" font-family="Courier" font-size="20.0" fill="#C8352B" transform="matrix(1.00, 0.00, -0.00, -1.00, 170.0, 6.0)">k</text><text xml:space="preserve" font-family="Courier" font-size="20.0" fill="#C8352B" transform="matrix(1.00, 0.00, -0.00, -1.00, 182.0, 6.0)">_</text><text xml:space="preserve" font-family="Courier" font-size="20.0" fill="#C8352B" transform="matrix(1.00, 0.00, -0.00, -1.00, 194.0, 6.0)">c</text><text xml:space="preserve" font-family="Courier" font-size="20.0" fill="#C8352B" transform="matrix(1.00, 0.00, -0.00, -1.00, 206.0, 6.0)">h</text><text xml:space="preserve" font-family="Courier" font-size="20.0" fill="#C8352B" transform="matrix(1.00, 0.00, -0.00, -1.00, 218.1, 6.0)">a</text><text xml:space="preserve" font-family="Courier" font-size="20.0" fill="#C8352B" transform="matrix(1.00, 0.00, -0.00, -1.00, 230.1, 6.0)">p</text><text xml:space="preserve" font-family="Courier" font-size="20.0" fill="#C8352B" transform="matrix(1.00, 0.00, -0.00, -1.00, 242.1, 6.0)">t</text><text xml:space="preserve" font-family="Courier" font-size="20.0" fill="#C8352B" transform="matrix(1.00, 0.00, -0.00, -1.00, 254.1, 6.0)">e</text><text xml:space="preserve" font-family="Courier" font-size="20.0" fill="#C8352B" transform="matrix(1.00, 0.00, -0.00, -1.00, 266.1, 6.0)">r</text><text xml:space="preserve" font-family="Courier" font-size="20.0" fill="#C8352B" transform="matrix(1.00, 0.00, -0.00, -1.00, 278.1, 6.0)">.</text><text xml:space="preserve" font-family="Courier" font-size="20.0" fill="#C8352B" transform="matrix(1.00, 0.00, -0.00, -1.00, 290.1, 6.0)">t</text><text xml:space="preserve" font-family="Courier" font-size="20.0" fill="#C8352B" transform="matrix(1.00, 0.00, -0.00, -1.00, 302.1, 6.0)">x</text><text xml:space="preserve" font-family="Courier" font-size="20.0" fill="#C8352B" transform="matrix(1.00, 0.00, -0.00, -1.00, 314.1, 6.0)">t</text><text xml:space="preserve" font-family="Courier" font-size="20.0" fill="#C8352B" transform="matrix(1.00, 0.00, -0.00, -1.00, 326.1, 6.0)">'</text><text xml:space="preserve" font-family="Courier" font-size="20.0" fill="#000000" transform="matrix(1.00, 0.00, -0.00, -1.00, 338.1, 6.0)">,</text><text xml:space="preserve" font-family="Courier" font-size="20.0" fill="#000000" transform="matrix(1.00, 0.00, -0.00, -1.00, 350.1, 6.0)"> </text><text xml:space="preserve" font-family="Courier" font-size="20.0" fill="#C8352B" transform="matrix(1.00, 0.00, -0.00, -1.00, 362.1, 6.0)">'</text><text xml:space="preserve" font-family="Courier" font-size="20.0" fill="#C8352B" transform="matrix(1.00, 0.00, -0.00, -1.00, 374.1, 6.0)">r</text><text xml:space="preserve" font-family="Courier" font-size="20.0" fill="#C8352B" transform="matrix(1.00, 0.00, -0.00, -1.00, 386.1, 6.0)">'</text><text xml:space="preserve" font-family="Courier" font-size="20.0" fill="#000000" transform="matrix(1.00, 0.00, -0.00, -1.00, 398.1, 6.0)">,</text><text xml:space="preserve" font-family="Courier" font-size="20.0" fill="#000000" transform="matrix(1.00, 0.00, -0.00, -1.00, 410.1, 6.0)"> </text><text xml:space="preserve" font-family="Courier" font-size="20.0" fill="#000000" transform="matrix(1.00, 0.00, -0.00, -1.00, 422.1, 6.0)">e</text><text xml:space="preserve" font-family="Courier" font-size="20.0" fill="#000000" transform="matrix(1.00, 0.00, -0.00, -1.00, 434.1, 6.0)">n</text><text xml:space="preserve" font-family="Courier" font-size="20.0" fill="#000000" transform="matrix(1.00, 0.00, -0.00, -1.00, 446.1, 6.0)">c</text><text xml:space="preserve" font-family="Courier" font-size="20.0" fill="#000000" transform="matrix(1.00, 0.00, -0.00, -1.00, 458.1, 6.0)">o</text><text xml:space="preserve" font-family="Courier" font-size="20.0" fill="#000000" transform="matrix(1.00, 0.00, -0.00, -1.00, 470.1, 6.0)">d</text><text xml:space="preserve" font-family="Courier" font-size="20.0" fill="#000000" transform="matrix(1.00, 0.00, -0.00, -1.00, 482.1, 6.0)">i</text><text xml:space="preserve" font-family="Courier" font-size="20.0" fill="#000000" transform="matrix(1.00, 0.00, -0.00, -1.00, 494.1, 6.0)">n</text><text xml:space="preserve" font-family="Courier" font-size="20.0" fill="#000000" transform="matrix(1.00, 0.00, -0.00, -1.00, 506.1, 6.0)">g</text><text xml:space="preserve" font-family="Courier" font-size="20.0" fill="#797979" transform="matrix(1.00, 0.00, -0.00, -1.00, 518.1, 6.0)">=</text><text xml:space="preserve" font-family="Courier" font-size="20.0" fill="#C8352B" transform="matrix(1.00, 0.00, -0.00, -1.00, 530.1, 6.0)">'</text><text xml:space="preserve" font-family="Courier" font-size="20.0" fill="#C8352B" transform="matrix(1.00, 0.00, -0.00, -1.00, 542.1, 6.0)">u</text><text xml:space="preserve" font-family="Courier" font-size="20.0" fill="#C8352B" transform="matrix(1.00, 0.00, -0.00, -1.00, 554.1, 6.0)">t</text><text xml:space="preserve" font-family="Courier" font-size="20.0" fill="#C8352B" transform="matrix(1.00, 0.00, -0.00, -1.00, 566.1, 6.0)">f</text><text xml:space="preserve" font-family="Courier" font-size="20.0" fill="#C8352B" transform="matrix(1.00, 0.00, -0.00, -1.00, 578.1, 6.0)">-</text><text xml:space="preserve" font-family="Courier" font-size="20.0" fill="#C8352B" transform="matrix(1.00, 0.00, -0.00, -1.00, 590.1, 6.0)">8</text><text xml:space="preserve" font-family="Courier" font-size="20.0" fill="#C8352B" transform="matrix(1.00, 0.00, -0.00, -1.00, 602.1, 6.0)">'</text><text xml:space="preserve" font-family="Courier" font-size="20.0" fill="#000000" transform="matrix(1.00, 0.00, -0.00, -1.00, 614.1, 6.0)">)</text><text xml:space="preserve" font-family="Courier" font-size="20.0" fill="#000000" transform="matrix(1.00, 0.00, -0.00, -1.00, 626.1, 6.0)"> </text><text xml:space="preserve" font-family="Courier-Bold" font-weight="bold" font-size="20.0" fill="#008E00" transform="matrix(1.00, 0.00, -0.00, -1.00, 638.1, 6.0)">a</text><text xml:space="preserve" font-family="Courier-Bold" font-weight="bold" font-size="20.0" fill="#008E00" transform="matrix(1.00, 0.00, -0.00, -1.00, 650.1, 6.0)">s</text><text xml:space="preserve" font-family="Courier" font-size="20.0" fill="#000000" transform="matrix(1.00, 0.00, -0.00, -1.00, 662.1, 6.0)"> </text><text xml:space="preserve" font-family="Courier" font-size="20.0" fill="#008E00" transform="matrix(1.00, 0.00, -0.00, -1.00, 674.1, 6.0)">f</text><text xml:space="preserve" font-family="Courier" font-size="20.0" fill="#008E00" transform="matrix(1.00, 0.00, -0.00, -1.00, 686.1, 6.0)">i</text><text xml:space="preserve" font-family="Courier" font-size="20.0" fill="#008E00" transform="matrix(1.00, 0.00, -0.00, -1.00, 698.1, 6.0)">l</text><text xml:space="preserve" font-family="Courier" font-size="20.0" fill="#008E00" transform="matrix(1.00, 0.00, -0.00, -1.00, 710.1, 6.0)">e</text><text xml:space="preserve" font-family="Courier" font-size="20.0" fill="#000000" transform="matrix(1.00, 0.00, -0.00, -1.00, 722.1, 6.0)">:</text></g></svg>