<?xml version="1.0" encoding="UTF-8" standalone="no"?><svg xmlns="http://www.w3.org/2000/svg" xmlns:xlink="http://www.w3.org/1999/xlink" clip-rule="evenodd" stroke-miterlimit="4.00" viewBox="0 0 176 46"><desc>SVG generated by Keynote</desc><defs></defs><g transform="matrix(1.00, 0.00, -0.00, -1.00, 0.0, 46.0)"><path d="M 151.3 35.0 C 151.0 35.2 150.6 34.8 149.6 34.9 C 148.7 34.9 147.5 35.2 147.8 35.4 C 148.1 35.7 148.5 35.8 148.1 36.3 C 147.7 36.8 147.2 37.7 148.0 37.8 C 148.7 37.9 151.5 37.9 152.2 37.3 C 152.9 36.8 153.1 36.5 153.6 36.2 C 154.1 35.8 153.9 36.7 153.9 36.7 C 153.9 36.7 155.2 36.4 156.2 36.1 C 157.1 35.9 158.1 35.6 158.1 35.5 C 158.2 35.3 158.4 34.9 158.4 34.9 C 158.4 34.9 159.0 35.1 159.6 35.0 C 160.2 34.8 159.9 34.7 159.8 34.6 C 159.6 34.4 158.7 34.2 159.0 34.1 C 159.3 34.0 160.3 34.5 160.7 34.4 C 161.2 34.3 162.0 33.9 162.0 33.9 C 162.0 33.9 161.8 33.5 161.8 33.4 C 161.8 33.3 162.6 32.9 162.7 33.0 C 162.8 33.1 163.0 33.6 163.4 33.5 C 164.7 33.0 164.1 32.3 164.2 32.2 C 164.3 32.1 164.6 32.7 164.9 32.7 C 165.2 32.7 167.3 31.4 167.3 31.2 C 167.3 31.0 168.3 31.2 168.4 30.6 C 168.4 30.1 168.4 29.9 168.4 29.8 C 168.4 29.7 168.3 28.9 168.6 29.0 C 168.9 29.1 168.7 30.2 169.0 30.3 C 169.3 30.3 170.4 29.6 170.4 29.3 C 170.4 28.9 170.1 28.3 170.2 28.2 C 170.3 28.1 171.3 28.3 171.3 28.2 C 171.2 28.0 170.7 27.5 170.7 27.4 C 170.6 27.3 169.8 26.3 169.6 26.3 C 169.4 26.2 168.7 26.2 169.0 26.5 C 169.3 26.7 169.7 26.9 169.6 27.2 C 169.6 27.4 169.5 27.5 169.4 27.5 C 169.3 27.4 169.3 27.2 168.8 27.2 C 168.4 27.3 168.4 26.9 168.1 27.2 C 167.9 27.4 167.6 27.7 167.8 27.9 C 168.0 28.1 167.9 28.6 167.7 28.8 C 167.4 28.9 167.5 28.1 166.6 28.4 C 165.7 28.7 165.1 29.0 165.0 29.3 C 164.8 29.7 165.1 30.3 164.5 30.3 C 163.9 30.2 164.1 29.9 163.4 30.3 C 162.8 30.6 162.7 31.2 162.3 31.5 C 161.8 31.7 161.7 31.7 161.7 31.7 C 161.7 31.7 161.6 30.8 160.5 31.2 C 159.4 31.6 159.1 31.6 159.6 32.1 C 160.0 32.6 159.2 33.0 159.0 32.6 C 158.8 32.2 158.0 32.2 157.6 32.4 C 157.1 32.4 157.3 33.5 157.2 33.5 C 157.0 33.6 156.4 33.7 156.5 33.4 C 156.6 33.0 156.1 33.1 155.7 33.1 C 155.2 33.1 154.0 33.6 154.1 33.7 C 154.1 33.9 155.0 34.4 154.0 34.3 C 153.0 34.2 152.6 33.8 151.8 34.1 C 150.9 34.3 151.8 34.7 151.3 35.0 C 151.3 35.0 151.3 35.0 151.3 35.0 Z M 169.5 25.9 C 169.1 26.3 171.3 27.9 171.9 28.0 C 172.5 28.2 172.6 27.5 173.0 27.1 C 173.4 26.8 172.6 26.4 172.5 26.1 C 172.4 25.7 172.9 26.1 173.3 26.2 C 173.7 26.2 173.7 25.4 173.9 25.0 C 174.1 24.6 173.3 23.9 173.3 23.6 C 173.3 23.3 172.8 23.8 172.9 23.3 C 173.0 22.8 173.5 23.0 173.7 23.8 C 173.8 24.5 174.2 23.5 174.3 23.1 C 174.4 22.7 174.0 22.1 174.0 21.8 C 174.0 21.4 173.4 22.0 173.3 21.6 C 173.2 21.1 173.9 21.2 173.9 20.7 C 173.8 20.2 173.2 20.5 173.0 20.3 C 172.8 20.2 173.1 20.1 173.1 19.9 C 173.0 19.7 173.0 19.3 172.7 19.0 C 172.3 18.7 172.2 18.9 172.0 18.8 C 171.9 18.6 171.6 18.4 171.6 18.4 C 171.8 18.2 171.9 18.0 172.1 17.8 C 172.1 17.8 171.5 17.1 171.3 16.9 C 171.1 16.7 170.4 16.5 170.5 16.7 C 170.5 16.9 169.7 16.8 169.7 16.7 C 169.6 16.5 169.4 15.9 169.2 15.6 C 169.0 15.3 168.1 16.7 167.9 16.9 C 167.8 17.1 167.1 17.8 167.3 18.0 C 167.5 18.3 167.9 18.1 167.7 18.3 C 167.5 18.5 168.2 18.7 168.4 18.9 C 168.6 19.0 169.2 18.7 169.2 18.7 C 169.2 18.7 169.7 18.4 169.9 18.6 C 170.1 18.9 169.4 19.7 169.4 19.7 C 169.4 19.7 169.5 20.1 169.8 20.3 C 170.0 20.5 170.9 20.2 171.1 20.2 C 171.3 20.1 170.6 20.6 170.7 20.8 C 170.7 21.0 170.6 21.4 170.6 21.4 C 170.7 21.5 171.3 21.4 171.3 21.4 C 171.3 21.4 171.7 21.6 171.7 21.6 C 171.7 21.7 170.9 21.8 170.9 21.8 C 170.9 21.8 170.9 22.4 170.8 22.6 C 170.8 22.7 171.0 22.8 171.0 22.9 C 171.1 23.0 172.1 23.1 172.0 23.3 C 171.9 23.4 171.4 23.1 171.2 23.2 C 171.1 23.3 170.9 23.5 170.9 23.6 C 170.9 23.6 171.2 23.8 171.2 23.9 C 171.2 24.1 171.8 24.5 171.7 24.7 C 171.7 24.9 171.2 24.8 171.1 24.8 C 170.9 24.9 170.4 24.6 170.3 24.7 C 170.2 24.9 170.6 25.0 170.5 25.1 C 170.4 25.3 170.8 25.6 170.6 25.7 C 170.4 25.8 169.9 25.2 169.8 25.4 C 169.8 25.5 169.9 25.4 169.5 25.9 C 169.5 25.9 169.5 25.9 169.5 25.9 Z M 166.8 17.6 C 166.9 18.1 167.5 17.9 167.6 17.6 C 167.8 17.3 168.2 16.4 168.5 16.2 C 168.8 16.1 169.7 15.8 169.1 15.2 C 168.5 14.7 168.1 14.8 168.0 15.0 C 167.9 15.2 167.2 16.0 167.1 15.8 C 166.9 15.6 166.9 15.2 166.9 15.1 C 166.9 14.9 167.1 13.9 166.6 13.8 C 166.2 13.7 165.7 13.8 165.7 13.8 C 165.5 13.7 165.2 13.6 165.0 13.5 C 165.0 13.5 164.7 12.7 164.1 12.6 C 163.6 12.5 163.0 12.2 162.6 12.0 C 162.2 11.8 161.8 11.7 161.6 11.9 C 161.5 12.1 160.6 12.7 160.6 12.7 C 160.6 12.7 159.9 12.6 159.7 12.4 C 159.4 12.2 159.5 11.7 159.7 11.6 C 159.8 11.4 159.9 11.0 159.5 10.7 C 159.0 10.5 157.1 9.3 156.7 9.5 C 156.3 9.7 156.3 10.0 156.0 10.0 C 155.7 10.1 154.2 9.7 154.2 9.4 C 154.1 9.2 154.4 8.7 153.9 8.6 C 153.4 8.5 152.6 8.1 152.5 8.3 C 152.5 8.4 152.2 8.5 152.1 8.7 C 152.0 9.0 151.0 9.0 150.8 9.1 C 150.5 9.1 149.8 9.0 149.8 9.0 C 149.5 8.8 149.2 8.5 148.9 8.3 C 148.9 8.3 149.6 8.0 149.9 7.9 C 150.2 7.9 149.8 7.5 149.5 7.4 C 149.2 7.3 147.8 7.0 147.8 7.0 C 147.7 7.4 147.6 7.7 147.5 8.1 C 147.3 8.1 147.0 8.2 146.7 8.2 C 146.7 8.2 147.1 6.9 146.7 6.8 C 146.2 6.7 145.7 6.6 145.7 6.6 C 145.7 6.6 145.1 7.0 145.0 7.0 C 144.8 7.0 144.5 8.2 144.5 8.2 C 144.5 8.6 144.4 9.1 144.3 9.6 C 144.3 9.6 144.8 10.1 145.1 10.0 C 145.5 9.9 145.3 9.4 145.4 9.1 C 145.5 8.9 146.0 8.8 146.0 8.8 C 146.2 9.1 146.3 9.4 146.5 9.7 C 146.5 9.7 146.6 10.0 146.8 10.2 C 146.9 10.5 147.7 10.8 148.1 10.8 C 148.5 10.8 149.0 10.6 149.5 10.5 C 150.0 10.4 150.0 10.0 150.5 10.4 C 151.0 10.9 151.1 11.3 151.4 11.4 C 151.7 11.4 152.9 11.3 152.9 11.3 C 153.3 11.3 153.6 11.3 154.0 11.3 C 154.0 11.3 154.9 11.3 154.9 11.6 C 154.9 11.9 156.6 12.1 156.6 12.1 C 156.6 12.1 156.2 12.8 156.5 13.1 C 156.9 13.3 157.4 13.7 158.0 13.8 C 158.7 13.9 159.4 13.3 159.4 13.3 C 159.5 13.5 159.6 13.8 159.7 14.0 C 160.2 14.3 160.6 14.5 161.1 14.8 C 161.1 14.8 162.2 15.2 162.2 15.1 C 162.3 14.9 162.4 14.3 162.6 14.1 C 162.7 14.0 163.3 14.0 163.3 14.2 C 163.3 14.5 163.5 15.3 163.5 15.3 C 163.5 15.3 163.7 15.8 163.9 16.0 C 164.2 16.2 164.7 16.2 164.9 16.1 C 165.0 16.1 165.7 15.8 165.7 15.8 C 165.7 16.1 165.7 16.3 165.7 16.6 C 165.7 16.6 166.5 16.7 166.8 17.6 C 166.8 17.6 166.8 17.6 166.8 17.6 Z M 143.9 9.9 C 144.8 10.0 144.7 7.3 144.5 6.7 C 144.2 6.1 143.6 6.3 143.0 6.1 C 142.3 5.9 142.4 6.8 142.0 6.9 C 141.6 7.1 141.8 6.6 141.7 6.2 C 141.6 5.8 140.6 5.9 140.0 5.8 C 139.4 5.6 138.7 6.4 138.2 6.4 C 137.7 6.3 138.5 6.9 137.7 6.7 C 136.8 6.5 137.3 6.1 138.3 6.0 C 139.4 5.9 138.0 5.4 137.5 5.2 C 137.0 5.0 136.0 5.3 135.6 5.2 C 135.1 5.0 135.6 5.8 134.9 5.7 C 134.3 5.6 134.7 4.9 134.1 4.7 C 133.4 4.5 133.4 5.2 133.1 5.3 C 132.7 5.4 132.8 5.0 132.6 4.9 C 132.3 4.8 131.9 4.6 131.2 4.6 C 130.6 4.7 130.7 4.9 130.4 4.9 C 130.1 4.9 129.6 4.9 129.6 4.9 C 129.6 4.6 129.6 4.4 129.6 4.2 C 129.6 4.2 128.5 4.0 128.1 3.9 C 127.8 3.8 126.9 4.0 127.1 4.1 C 127.3 4.3 126.5 4.7 126.3 4.5 C 126.2 4.4 125.6 4.0 125.2 3.8 C 124.8 3.6 124.8 5.3 124.7 5.6 C 124.7 5.8 124.4 6.7 124.7 6.9 C 125.0 7.0 125.4 6.7 125.3 6.9 C 125.2 7.2 126.3 7.1 126.6 7.1 C 126.8 7.1 127.3 6.5 127.3 6.5 C 127.3 6.5 127.6 6.0 128.1 6.1 C 128.5 6.1 128.6 7.2 128.6 7.2 C 128.6 7.2 129.1 7.5 129.7 7.5 C 130.3 7.6 131.0 6.8 131.1 6.6 C 131.3 6.4 131.1 7.2 131.5 7.4 C 131.9 7.5 132.4 7.9 132.6 7.8 C 132.8 7.8 133.1 7.3 133.1 7.3 C 133.1 7.3 133.9 7.1 134.1 7.1 C 134.2 7.1 133.8 7.9 133.8 7.9 C 133.8 7.9 135.3 8.3 135.6 8.4 C 135.9 8.6 136.4 8.4 136.6 8.4 C 136.8 8.4 137.3 7.5 137.6 7.6 C 137.9 7.8 137.2 8.2 137.5 8.4 C 137.8 8.5 138.3 8.8 138.5 8.8 C 138.7 8.8 138.9 8.6 139.2 8.5 C 139.5 8.5 140.0 7.9 140.4 8.0 C 140.8 8.0 140.9 8.5 141.1 8.6 C 141.2 8.8 141.2 9.4 141.5 9.5 C 141.8 9.6 141.7 9.1 142.0 9.2 C 142.3 9.2 142.4 8.8 142.7 8.9 C 143.0 9.1 142.6 9.8 143.0 9.8 C 143.1 9.7 143.0 9.8 143.9 9.9 C 143.9 9.9 143.9 9.9 143.9 9.9 Z M 123.8 6.7 C 124.3 7.1 124.8 6.7 124.8 6.3 C 124.8 5.9 124.7 5.0 124.9 4.7 C 125.1 4.5 125.8 3.8 124.9 3.6 C 124.0 3.3 123.8 3.6 123.8 3.8 C 123.8 4.1 123.5 5.1 123.2 4.9 C 123.0 4.8 122.8 4.5 122.8 4.4 C 122.7 4.2 122.5 3.2 122.0 3.3 C 121.6 3.4 121.1 3.7 121.1 3.7 C 120.9 3.7 120.7 3.6 120.5 3.6 C 120.5 3.6 119.9 3.0 119.4 3.1 C 118.9 3.2 118.4 3.1 118.0 3.0 C 117.6 3.0 117.3 3.0 117.2 3.2 C 117.1 3.5 116.5 4.3 116.5 4.3 C 116.5 4.3 116.0 4.4 115.7 4.3 C 115.5 4.1 115.5 3.7 115.5 3.5 C 115.6 3.3 115.6 2.8 115.2 2.7 C 114.9 2.6 113.3 2.0 113.0 2.3 C 112.7 2.5 112.8 2.9 112.6 3.0 C 112.4 3.1 111.3 3.0 111.2 2.8 C 111.2 2.6 111.3 2.1 110.9 2.1 C 110.6 2.1 110.0 1.9 110.0 2.1 C 110.0 2.2 109.8 2.3 109.7 2.6 C 109.7 2.9 109.0 3.1 108.9 3.2 C 108.8 3.3 108.3 3.4 108.3 3.4 C 108.1 3.2 107.9 3.0 107.7 2.9 C 107.7 2.9 108.1 2.4 108.3 2.3 C 108.5 2.2 108.2 1.9 108.0 1.8 C 107.8 1.8 106.6 1.8 106.6 1.8 C 106.5 2.2 106.5 2.5 106.5 2.9 C 106.2 3.0 105.9 3.1 105.6 3.1 C 105.6 3.1 105.8 1.8 105.2 1.8 C 104.6 1.7 103.9 1.7 103.9 1.7 C 103.9 1.7 103.3 2.2 103.1 2.2 C 103.0 2.3 102.9 3.5 102.9 3.5 C 102.9 3.9 102.9 4.4 102.9 4.9 C 102.9 4.9 103.6 5.3 104.0 5.2 C 104.4 5.0 104.1 4.5 104.2 4.3 C 104.2 4.0 104.8 3.8 104.8 3.8 C 105.1 4.1 105.3 4.4 105.6 4.7 C 105.6 4.7 105.8 4.9 106.0 5.1 C 106.3 5.4 107.1 5.6 107.4 5.5 C 107.7 5.4 107.9 5.1 108.2 4.9 C 108.6 4.7 108.5 4.3 108.9 4.6 C 109.3 4.9 109.4 5.3 109.6 5.3 C 109.8 5.3 110.6 4.9 110.6 4.9 C 110.9 4.8 111.1 4.8 111.3 4.7 C 111.3 4.7 111.9 4.5 112.0 4.7 C 112.1 5.0 113.3 4.8 113.3 4.8 C 113.3 4.8 113.1 5.6 113.4 5.8 C 113.7 5.9 114.2 6.2 114.7 6.1 C 115.2 6.0 115.6 5.2 115.6 5.2 C 115.8 5.4 115.9 5.6 116.1 5.9 C 116.5 6.0 117.0 6.0 117.4 6.1 C 117.4 6.1 118.5 6.2 118.5 6.1 C 118.5 5.9 118.4 5.2 118.5 5.0 C 118.6 4.9 119.1 4.7 119.2 4.9 C 119.2 5.1 119.6 5.8 119.6 5.8 C 119.6 5.8 120.0 6.3 120.3 6.4 C 120.6 6.4 121.1 6.3 121.3 6.1 C 121.4 6.0 121.9 5.5 121.9 5.5 C 122.0 5.8 122.1 6.0 122.2 6.2 C 122.2 6.2 123.1 6.0 123.8 6.7 C 123.8 6.7 123.8 6.7 123.8 6.7 Z M 102.5 5.3 C 103.6 5.3 102.9 2.6 102.5 2.0 C 102.1 1.5 101.3 1.8 100.6 1.7 C 99.8 1.5 100.0 2.4 99.6 2.6 C 99.1 2.8 99.3 2.3 99.1 1.9 C 99.0 1.5 97.8 1.8 97.1 1.8 C 96.4 1.7 95.6 2.6 95.0 2.6 C 94.5 2.6 95.5 3.1 94.5 3.0 C 93.5 2.9 94.0 2.5 95.2 2.2 C 96.4 2.0 94.7 1.7 94.1 1.6 C 93.4 1.5 92.4 1.9 91.9 1.8 C 91.3 1.7 92.0 2.4 91.2 2.4 C 90.5 2.4 90.9 1.7 90.1 1.6 C 89.4 1.5 89.5 2.1 89.1 2.3 C 88.7 2.4 88.8 2.0 88.5 2.0 C 88.2 1.9 87.6 1.7 86.9 1.9 C 86.2 2.0 86.4 2.2 86.1 2.3 C 85.8 2.3 85.2 2.3 85.2 2.3 C 85.2 2.1 85.1 1.9 85.1 1.6 C 85.1 1.6 83.8 1.6 83.4 1.6 C 83.0 1.5 82.2 1.8 82.4 2.0 C 82.6 2.1 81.8 2.6 81.6 2.5 C 81.4 2.4 80.8 2.1 80.3 1.9 C 79.9 1.8 80.0 3.5 80.0 3.7 C 80.0 4.0 79.8 4.9 80.2 5.0 C 80.6 5.1 80.9 4.7 80.8 5.0 C 80.8 5.2 81.9 5.0 82.2 5.0 C 82.5 5.0 82.9 4.3 82.9 4.3 C 82.9 4.3 83.2 3.8 83.7 3.8 C 84.2 3.8 84.4 4.8 84.4 4.8 C 84.4 4.8 85.1 5.0 85.7 5.0 C 86.3 4.9 87.0 4.0 87.1 3.8 C 87.3 3.6 87.2 4.5 87.7 4.6 C 88.1 4.7 88.8 4.9 89.0 4.9 C 89.2 4.8 89.5 4.3 89.5 4.3 C 89.5 4.3 90.3 3.9 90.5 3.9 C 90.7 3.9 90.4 4.7 90.4 4.7 C 90.4 4.7 92.1 5.0 92.4 5.1 C 92.8 5.1 93.3 4.9 93.6 4.9 C 93.9 4.8 94.2 3.8 94.6 3.9 C 95.0 4.1 94.2 4.6 94.6 4.7 C 95.0 4.8 95.7 5.0 95.9 5.0 C 96.0 5.0 96.3 4.7 96.6 4.6 C 96.9 4.6 97.4 3.9 97.9 3.9 C 98.4 3.9 98.7 4.3 98.8 4.4 C 99.0 4.5 99.1 5.2 99.5 5.2 C 99.9 5.3 99.7 4.8 100.0 4.8 C 100.4 4.8 100.4 4.3 100.8 4.5 C 101.2 4.6 100.9 5.4 101.3 5.3 C 101.5 5.2 101.3 5.3 102.5 5.3 C 102.5 5.3 102.5 5.3 102.5 5.3 Z M 77.7 4.3 C 78.0 4.2 78.2 4.7 78.8 4.8 C 79.4 5.0 80.2 5.0 80.1 4.7 C 79.9 4.3 79.7 4.1 80.0 3.7 C 80.3 3.3 80.7 2.6 80.2 2.4 C 79.8 2.1 78.0 1.4 77.5 1.8 C 76.9 2.2 76.8 2.4 76.4 2.6 C 76.0 2.9 76.2 2.1 76.2 2.1 C 76.2 2.1 75.3 2.0 74.6 2.0 C 73.9 2.0 73.1 2.0 73.0 2.1 C 72.9 2.2 72.7 2.5 72.7 2.5 C 72.7 2.5 72.3 2.2 71.8 2.1 C 71.3 2.1 71.5 2.3 71.5 2.5 C 71.6 2.6 72.3 3.1 72.0 3.1 C 71.8 3.1 71.1 2.4 70.8 2.3 C 70.4 2.3 69.6 2.4 69.6 2.4 C 69.6 2.4 69.7 2.8 69.6 2.9 C 69.6 3.0 68.8 3.1 68.7 3.0 C 68.7 2.8 68.7 2.3 68.3 2.3 C 67.1 2.3 67.3 3.2 67.2 3.2 C 67.1 3.2 67.0 2.5 66.7 2.5 C 66.4 2.4 64.0 2.6 63.9 2.8 C 63.8 3.0 62.9 2.4 62.6 2.9 C 62.3 3.3 62.2 3.4 62.1 3.6 C 62.1 3.7 61.6 4.4 61.4 4.1 C 61.2 3.9 62.0 3.1 61.7 2.9 C 61.4 2.7 59.9 2.8 59.7 3.0 C 59.4 3.3 59.3 4.0 59.1 4.0 C 58.9 4.0 58.0 3.2 57.9 3.4 C 57.9 3.5 57.8 4.2 57.8 4.4 C 57.8 4.5 57.7 5.8 57.9 5.9 C 58.1 6.1 59.0 6.5 58.8 6.1 C 58.7 5.8 58.5 5.3 58.8 5.1 C 59.1 5.0 59.2 4.9 59.3 5.0 C 59.4 5.2 59.2 5.3 59.8 5.5 C 60.3 5.7 60.1 6.0 60.6 6.0 C 61.0 5.9 61.5 5.8 61.4 5.5 C 61.3 5.3 61.9 4.8 62.2 4.8 C 62.6 4.8 62.0 5.5 63.1 5.6 C 64.3 5.8 65.0 5.8 65.3 5.5 C 65.6 5.3 65.6 4.6 66.2 4.8 C 66.7 5.1 66.5 5.3 67.2 5.3 C 67.9 5.2 68.2 4.6 68.6 4.6 C 69.1 4.5 69.2 4.5 69.2 4.5 C 69.2 4.5 69.0 5.4 70.1 5.4 C 71.1 5.4 71.3 5.4 71.1 4.8 C 70.9 4.2 71.6 4.2 71.7 4.6 C 71.8 5.0 72.4 5.2 72.8 5.2 C 73.1 5.3 73.2 4.2 73.3 4.2 C 73.5 4.2 73.9 4.2 73.8 4.6 C 73.6 4.9 74.0 4.9 74.3 5.0 C 74.7 5.2 75.7 5.0 75.6 4.9 C 75.6 4.7 75.1 4.0 75.8 4.3 C 76.5 4.6 76.7 5.1 77.3 5.1 C 77.9 5.1 77.3 4.5 77.7 4.3 C 77.7 4.3 77.7 4.3 77.7 4.3 Z M 57.0 6.2 C 57.6 6.5 58.0 6.0 57.9 5.6 C 57.8 5.3 57.5 4.3 57.7 4.0 C 57.9 3.7 58.4 3.0 57.5 2.9 C 56.6 2.9 56.4 3.2 56.4 3.4 C 56.4 3.6 56.4 4.7 56.1 4.6 C 55.9 4.5 55.6 4.3 55.5 4.1 C 55.4 4.0 55.0 3.1 54.6 3.3 C 54.1 3.4 53.8 3.8 53.8 3.8 C 53.5 3.8 53.3 3.8 53.1 3.9 C 53.1 3.9 52.4 3.3 52.0 3.5 C 51.5 3.7 51.0 3.8 50.6 3.8 C 50.3 3.8 49.9 3.9 49.9 4.1 C 49.8 4.4 49.5 5.3 49.5 5.3 C 49.5 5.3 49.0 5.5 48.7 5.4 C 48.5 5.3 48.4 4.9 48.4 4.7 C 48.4 4.5 48.3 4.0 47.9 4.0 C 47.6 4.0 46.0 3.7 45.8 4.0 C 45.6 4.3 45.7 4.7 45.6 4.8 C 45.4 4.9 44.4 5.1 44.3 4.8 C 44.2 4.6 44.2 4.1 43.9 4.2 C 43.6 4.3 43.0 4.2 43.0 4.4 C 43.1 4.5 42.9 4.7 42.9 5.0 C 42.9 5.2 42.4 5.5 42.3 5.7 C 42.2 5.9 41.8 6.0 41.8 6.0 C 41.6 5.8 41.4 5.7 41.2 5.6 C 41.2 5.6 41.4 5.0 41.6 4.9 C 41.7 4.8 41.4 4.5 41.2 4.5 C 41.0 4.5 40.0 4.7 40.0 4.7 C 40.0 5.1 40.1 5.5 40.1 5.9 C 39.9 6.0 39.6 6.1 39.4 6.3 C 39.4 6.3 39.3 4.9 38.8 5.0 C 38.3 5.1 37.7 5.2 37.7 5.2 C 37.7 5.2 37.2 5.8 37.1 5.8 C 37.0 5.9 37.2 7.1 37.2 7.1 C 37.3 7.5 37.4 8.0 37.5 8.4 C 37.5 8.4 38.2 8.8 38.5 8.6 C 38.8 8.3 38.4 7.9 38.4 7.6 C 38.4 7.4 38.9 7.1 38.9 7.1 C 39.2 7.3 39.4 7.5 39.7 7.7 C 39.7 7.7 39.9 7.9 40.2 8.1 C 40.4 8.3 41.2 8.3 41.4 8.2 C 41.6 8.1 41.8 7.7 42.1 7.5 C 42.3 7.2 42.2 6.8 42.6 7.1 C 43.0 7.3 43.2 7.7 43.3 7.6 C 43.5 7.6 44.2 7.1 44.2 7.1 C 44.4 6.9 44.6 6.8 44.8 6.7 C 44.8 6.7 45.3 6.4 45.4 6.6 C 45.5 6.9 46.6 6.4 46.6 6.4 C 46.6 6.4 46.6 7.3 46.9 7.3 C 47.2 7.4 47.7 7.6 48.1 7.4 C 48.6 7.2 48.8 6.4 48.8 6.4 C 49.0 6.5 49.2 6.7 49.3 6.9 C 49.8 6.9 50.2 6.9 50.7 6.9 C 50.7 6.9 51.7 6.8 51.7 6.6 C 51.6 6.5 51.4 5.8 51.5 5.6 C 51.5 5.4 52.0 5.2 52.1 5.4 C 52.2 5.6 52.7 6.2 52.7 6.2 C 52.7 6.2 53.2 6.6 53.5 6.6 C 53.8 6.6 54.3 6.3 54.4 6.2 C 54.5 6.0 54.9 5.5 54.9 5.5 C 55.1 5.7 55.2 5.9 55.4 6.1 C 55.4 6.1 56.1 5.7 57.0 6.2 C 57.0 6.2 57.0 6.2 57.0 6.2 Z M 37.2 8.9 C 38.1 8.7 37.0 6.2 36.6 5.7 C 36.1 5.3 35.5 5.7 34.9 5.8 C 34.2 5.8 34.6 6.6 34.3 6.9 C 33.9 7.2 34.0 6.6 33.7 6.3 C 33.5 5.9 32.6 6.4 32.0 6.5 C 31.5 6.6 31.0 7.6 30.6 7.7 C 30.2 7.9 31.1 8.1 30.3 8.2 C 29.5 8.3 29.8 7.8 30.6 7.3 C 31.5 6.9 30.2 6.9 29.6 6.9 C 29.1 6.9 28.3 7.5 27.9 7.5 C 27.5 7.6 28.4 8.1 27.3 8.3 C 26.2 8.6 26.6 7.8 25.5 7.9 C 24.3 8.1 24.6 8.7 24.1 9.0 C 23.6 9.3 23.6 8.9 23.2 9.0 C 22.7 9.0 21.9 9.0 21.0 9.4 C 20.2 9.9 20.5 10.0 20.1 10.1 C 19.7 10.3 19.0 10.5 19.0 10.5 C 18.8 10.3 18.7 10.2 18.6 9.9 C 18.6 9.9 17.0 10.4 16.6 10.5 C 16.1 10.6 15.2 11.3 15.5 11.3 C 15.8 11.4 15.0 12.1 14.8 12.1 C 14.6 12.1 13.8 12.1 13.2 12.1 C 12.7 12.2 13.5 13.7 13.6 13.9 C 13.7 14.2 13.8 15.1 14.3 15.1 C 14.7 15.0 14.8 14.5 14.9 14.8 C 14.9 15.0 16.0 14.4 16.3 14.2 C 16.6 14.1 16.8 13.3 16.8 13.3 C 16.8 13.3 17.0 12.7 17.6 12.5 C 18.2 12.3 18.7 13.2 18.7 13.2 C 18.7 13.2 19.6 13.2 20.3 12.9 C 21.1 12.6 21.7 11.5 21.8 11.2 C 22.0 11.0 22.2 11.8 22.8 11.7 C 23.4 11.7 24.4 11.7 24.6 11.5 C 24.9 11.4 25.2 10.8 25.2 10.8 C 25.2 10.8 26.3 10.2 26.6 10.1 C 26.9 10.0 26.6 10.9 26.6 10.9 C 26.6 10.9 28.9 10.6 29.1 10.6 C 29.4 10.6 29.8 10.3 30.0 10.2 C 30.2 10.1 30.3 9.1 30.6 9.1 C 30.9 9.1 30.4 9.8 30.7 9.8 C 31.0 9.9 31.6 9.9 31.8 9.9 C 31.9 9.9 32.1 9.5 32.3 9.4 C 32.5 9.3 32.8 8.5 33.2 8.4 C 33.6 8.3 33.9 8.7 34.0 8.8 C 34.2 8.9 34.4 9.5 34.8 9.4 C 35.1 9.4 34.8 9.0 35.1 9.0 C 35.4 8.9 35.3 8.4 35.6 8.5 C 36.0 8.5 35.9 9.3 36.2 9.1 C 36.4 9.1 36.2 9.1 37.2 8.9 C 37.2 8.9 37.2 8.9 37.2 8.9 Z M 13.3 15.4 C 14.0 15.5 14.3 14.8 14.1 14.5 C 13.8 14.2 13.3 13.4 13.3 13.1 C 13.4 12.7 13.8 11.8 12.8 12.1 C 11.8 12.4 11.7 12.7 11.8 13.0 C 11.9 13.2 12.1 14.2 11.9 14.2 C 11.6 14.2 11.2 14.1 11.1 14.0 C 11.0 13.9 10.2 13.2 9.9 13.5 C 9.5 13.9 9.3 14.3 9.3 14.3 C 9.1 14.4 9.0 14.5 8.8 14.7 C 8.8 14.7 8.0 14.5 7.7 14.8 C 7.3 15.2 6.9 15.4 6.6 15.6 C 6.4 15.7 6.2 16.0 6.3 16.2 C 6.4 16.4 6.6 17.3 6.6 17.3 C 6.6 17.3 6.4 17.8 6.2 17.8 C 6.0 17.8 5.6 17.5 5.5 17.3 C 5.4 17.1 5.1 16.8 4.8 17.0 C 4.5 17.1 3.3 17.7 3.4 18.0 C 3.5 18.3 3.9 18.5 3.9 18.7 C 3.8 18.8 3.5 19.4 3.2 19.3 C 3.0 19.3 2.6 19.0 2.5 19.2 C 2.5 19.4 2.1 19.7 2.3 19.8 C 2.4 19.8 2.4 20.0 2.7 20.2 C 2.9 20.3 3.0 20.7 3.1 20.8 C 3.2 21.0 3.1 21.2 3.1 21.2 C 3.0 21.3 2.8 21.4 2.6 21.4 C 2.6 21.4 2.2 21.1 2.1 20.9 C 2.1 20.8 1.7 20.9 1.6 21.0 C 1.5 21.1 1.5 21.9 1.5 21.9 C 1.8 22.0 2.2 22.1 2.6 22.1 C 2.7 22.3 2.7 22.5 2.8 22.7 C 2.8 22.7 1.4 22.5 1.4 22.9 C 1.4 23.3 1.5 23.7 1.5 23.7 C 1.5 23.7 2.0 24.0 2.1 24.1 C 2.2 24.2 3.4 24.0 3.4 24.0 C 3.8 23.8 4.2 23.7 4.7 23.6 C 4.7 23.6 5.1 23.3 4.9 23.2 C 4.7 23.1 4.2 23.3 4.0 23.3 C 3.8 23.2 3.5 23.0 3.5 23.0 C 3.8 22.9 4.0 22.8 4.3 22.7 C 4.3 22.7 4.5 22.6 4.8 22.6 C 5.0 22.5 5.2 22.3 5.1 22.2 C 5.1 22.1 4.8 21.9 4.6 21.7 C 4.4 21.5 4.0 21.4 4.4 21.3 C 4.8 21.3 5.1 21.4 5.2 21.3 C 5.2 21.3 5.0 20.7 5.0 20.7 C 4.9 20.6 4.9 20.4 4.9 20.3 C 4.9 20.3 4.9 19.9 5.1 20.0 C 5.4 20.1 5.6 19.4 5.6 19.4 C 5.6 19.4 6.1 20.0 6.3 19.9 C 6.6 19.9 6.9 19.8 7.0 19.5 C 7.1 19.2 6.8 18.5 6.8 18.5 C 7.0 18.6 7.2 18.7 7.4 18.7 C 7.7 18.6 8.0 18.4 8.3 18.3 C 8.3 18.3 8.9 17.8 8.8 17.7 C 8.8 17.6 8.3 17.0 8.2 16.9 C 8.2 16.7 8.4 16.2 8.6 16.4 C 8.8 16.6 9.5 16.9 9.5 16.9 C 9.5 16.9 10.0 17.1 10.2 17.0 C 10.5 16.9 10.8 16.5 10.8 16.3 C 10.8 16.1 11.0 15.4 11.0 15.4 C 11.2 15.6 11.4 15.7 11.7 15.8 C 11.7 15.8 12.3 15.2 13.3 15.4 C 13.3 15.4 13.3 15.4 13.3 15.4 Z M 5.1 23.7 C 5.0 23.3 2.5 24.1 2.0 24.5 C 1.6 24.9 2.1 25.3 2.2 25.8 C 2.3 26.3 3.0 25.8 3.3 25.9 C 3.7 26.0 3.2 26.2 2.9 26.5 C 2.6 26.8 3.4 27.3 3.7 27.7 C 3.9 28.1 4.9 27.9 5.3 28.1 C 5.6 28.3 5.3 27.5 5.8 28.0 C 6.3 28.6 5.7 28.7 4.9 28.3 C 4.1 27.9 4.8 28.9 5.1 29.3 C 5.4 29.7 6.4 29.9 6.7 30.2 C 7.0 30.5 7.0 29.7 7.5 30.0 C 7.9 30.4 7.3 30.8 7.8 31.2 C 8.3 31.7 8.6 31.1 9.0 31.1 C 9.3 31.2 9.1 31.5 9.3 31.6 C 9.6 31.8 9.9 32.2 10.6 32.4 C 11.3 32.6 11.2 32.3 11.5 32.4 C 11.8 32.5 12.4 32.8 12.4 32.8 C 12.3 33.0 12.3 33.2 12.2 33.5 C 12.2 33.5 13.5 34.1 13.9 34.3 C 14.3 34.5 15.3 34.6 15.1 34.3 C 14.9 34.1 16.0 34.1 16.2 34.2 C 16.4 34.4 17.0 35.0 17.5 35.3 C 18.0 35.6 18.4 34.0 18.5 33.7 C 18.6 33.5 19.2 32.7 18.7 32.5 C 18.3 32.2 17.9 32.4 18.0 32.2 C 18.2 32.0 16.8 31.8 16.5 31.7 C 16.1 31.5 15.5 32.0 15.5 32.0 C 15.5 32.0 15.0 32.3 14.5 32.1 C 13.9 31.9 14.2 30.8 14.2 30.8 C 14.2 30.8 13.7 30.4 13.1 30.2 C 12.5 30.0 11.5 30.5 11.3 30.6 C 11.1 30.7 11.5 30.0 11.2 29.7 C 10.9 29.4 10.5 28.9 10.3 28.9 C 10.2 28.9 9.7 29.2 9.7 29.2 C 9.7 29.2 8.9 29.1 8.8 29.1 C 8.7 29.0 9.3 28.4 9.3 28.4 C 9.3 28.4 8.4 27.5 8.2 27.3 C 8.1 27.1 7.6 27.1 7.5 27.0 C 7.3 26.9 6.5 27.5 6.4 27.3 C 6.3 27.1 7.0 27.0 6.9 26.8 C 6.8 26.5 6.6 26.1 6.6 26.0 C 6.5 26.0 6.1 26.1 6.0 26.0 C 5.8 25.9 5.1 26.2 5.0 26.0 C 4.8 25.7 5.1 25.4 5.1 25.3 C 5.2 25.1 5.7 24.7 5.6 24.6 C 5.6 24.4 5.2 24.8 5.2 24.6 C 5.1 24.5 4.6 24.7 4.7 24.5 C 4.7 24.3 5.5 24.1 5.3 24.0 C 5.2 24.0 5.3 24.0 5.1 23.7 C 5.1 23.7 5.1 23.7 5.1 23.7 Z M 19.8 32.9 C 19.3 32.4 18.6 32.6 18.5 33.0 C 18.5 33.4 18.4 34.4 18.1 34.5 C 17.8 34.7 16.8 35.1 17.9 35.6 C 19.0 36.2 19.4 36.0 19.5 35.8 C 19.5 35.5 20.1 34.6 20.4 34.8 C 20.7 35.0 20.9 35.4 21.0 35.5 C 21.0 35.7 21.3 36.8 21.9 36.8 C 22.6 36.9 23.3 36.8 23.3 36.8 C 23.6 36.9 24.0 36.9 24.3 37.0 C 24.3 37.0 25.1 37.8 25.9 37.9 C 26.7 37.9 27.7 38.2 28.0 38.3 C 28.3 38.4 28.6 38.4 28.7 38.2 C 28.8 38.0 29.4 37.2 29.4 37.2 C 29.4 37.2 29.9 37.1 30.0 37.3 C 30.2 37.5 30.2 37.9 30.1 38.1 C 30.0 38.3 29.9 38.7 30.2 38.9 C 30.5 39.0 31.8 39.8 32.0 39.5 C 32.3 39.3 32.3 38.9 32.5 38.9 C 32.7 38.8 33.6 39.0 33.6 39.2 C 33.6 39.4 33.5 39.9 33.8 39.9 C 34.0 39.9 34.5 40.2 34.6 40.0 C 34.6 39.9 34.8 39.8 34.9 39.5 C 34.9 39.3 35.5 39.1 35.6 39.0 C 35.8 38.9 36.2 38.9 36.2 38.9 C 36.4 39.1 36.5 39.3 36.7 39.5 C 36.7 39.5 36.3 39.9 36.1 40.0 C 35.9 40.1 36.1 40.4 36.3 40.5 C 36.4 40.6 37.5 40.7 37.5 40.7 C 37.6 40.3 37.6 39.9 37.7 39.5 C 38.0 39.5 38.3 39.5 38.5 39.4 C 38.5 39.4 38.2 40.7 38.7 40.8 C 39.2 40.9 39.8 41.0 39.8 41.0 C 39.8 41.0 40.4 40.6 40.5 40.6 C 40.7 40.5 40.9 39.3 40.9 39.3 C 41.0 38.9 41.0 38.4 41.0 38.0 C 41.0 38.0 40.5 37.4 40.1 37.5 C 39.8 37.7 40.0 38.2 39.9 38.4 C 39.8 38.6 39.3 38.8 39.3 38.8 C 39.1 38.5 38.9 38.2 38.7 37.9 C 38.7 37.9 38.5 37.6 38.4 37.4 C 38.2 37.1 37.5 36.9 37.2 36.9 C 37.0 37.0 36.7 37.2 36.4 37.4 C 36.1 37.6 36.1 38.0 35.8 37.6 C 35.6 37.3 35.5 36.9 35.3 36.8 C 35.2 36.8 34.4 37.1 34.4 37.1 C 34.2 37.2 34.0 37.3 33.8 37.3 C 33.8 37.3 33.2 37.5 33.2 37.2 C 33.2 36.9 32.1 37.0 32.1 37.0 C 32.1 37.0 32.4 36.2 32.2 36.0 C 31.9 35.8 31.6 35.6 31.1 35.6 C 30.7 35.7 30.2 36.4 30.2 36.4 C 30.2 36.2 30.1 35.9 30.0 35.7 C 29.6 35.6 29.3 35.4 28.9 35.3 C 28.9 35.3 27.7 35.0 27.7 35.2 C 27.6 35.3 27.7 36.0 27.5 36.2 C 27.4 36.3 26.5 36.4 26.4 36.1 C 26.4 35.9 25.8 35.1 25.8 35.1 C 25.8 35.1 25.3 34.5 24.8 34.3 C 24.4 34.2 23.6 34.2 23.4 34.3 C 23.2 34.4 22.4 34.7 22.4 34.7 C 22.2 34.4 22.1 34.1 22.0 33.9 C 22.0 33.9 20.8 33.8 19.8 32.9 C 19.8 32.9 19.8 32.9 19.8 32.9 Z M 41.5 37.6 C 40.5 37.5 40.8 40.2 41.1 40.8 C 41.4 41.4 42.1 41.2 42.7 41.4 C 43.4 41.6 43.3 40.7 43.7 40.5 C 44.2 40.3 43.9 40.8 44.1 41.3 C 44.2 41.7 45.3 41.5 45.9 41.6 C 46.5 41.7 47.3 40.9 47.8 40.9 C 48.4 40.9 47.4 40.4 48.4 40.6 C 49.3 40.7 48.8 41.2 47.7 41.3 C 46.6 41.4 48.0 41.9 48.6 42.0 C 49.2 42.2 50.2 41.9 50.7 42.0 C 51.1 42.1 50.6 41.4 51.3 41.5 C 52.0 41.6 51.6 42.2 52.2 42.4 C 52.9 42.6 52.9 41.9 53.3 41.8 C 53.6 41.7 53.5 42.1 53.8 42.2 C 54.1 42.3 54.6 42.5 55.2 42.4 C 55.9 42.3 55.8 42.1 56.1 42.1 C 56.4 42.1 56.9 42.1 56.9 42.1 C 56.9 42.4 56.9 42.6 57.0 42.8 C 57.0 42.8 58.2 43.0 58.5 43.1 C 58.9 43.1 59.7 42.9 59.5 42.8 C 59.3 42.6 60.2 42.2 60.4 42.3 C 60.5 42.4 61.1 42.8 61.5 43.0 C 62.0 43.2 62.0 41.5 62.0 41.2 C 62.0 41.0 62.3 40.1 62.0 39.9 C 61.6 39.8 61.3 40.1 61.4 39.9 C 61.4 39.7 60.3 39.8 60.0 39.8 C 59.7 39.8 59.3 40.4 59.3 40.4 C 59.3 40.4 59.0 40.9 58.5 40.8 C 58.0 40.8 57.9 39.7 57.9 39.7 C 57.9 39.7 57.3 39.5 56.7 39.5 C 56.1 39.5 55.4 40.3 55.3 40.5 C 55.1 40.6 55.2 39.8 54.8 39.7 C 54.4 39.5 53.8 39.2 53.6 39.3 C 53.5 39.3 53.1 39.8 53.1 39.8 C 53.1 39.8 52.3 40.0 52.1 40.0 C 52.0 40.0 52.3 39.2 52.3 39.2 C 52.3 39.2 50.8 38.8 50.5 38.7 C 50.1 38.6 49.6 38.8 49.4 38.8 C 49.1 38.8 48.7 39.8 48.4 39.6 C 48.0 39.5 48.8 39.1 48.4 38.9 C 48.1 38.8 47.5 38.5 47.3 38.5 C 47.2 38.5 46.9 38.8 46.6 38.8 C 46.3 38.8 45.8 39.5 45.4 39.4 C 44.9 39.3 44.8 38.9 44.6 38.8 C 44.5 38.6 44.4 38.0 44.1 37.9 C 43.7 37.8 43.9 38.3 43.6 38.3 C 43.3 38.2 43.2 38.7 42.9 38.6 C 42.6 38.4 42.9 37.7 42.5 37.7 C 42.3 37.7 42.5 37.7 41.5 37.6 C 41.5 37.6 41.5 37.6 41.5 37.6 Z M 64.3 40.9 C 64.0 41.0 63.9 40.5 63.3 40.3 C 62.7 40.0 61.9 40.0 62.1 40.3 C 62.2 40.6 62.4 40.8 62.0 41.2 C 61.7 41.6 61.3 42.3 61.7 42.6 C 62.1 42.9 63.7 43.7 64.3 43.4 C 64.8 43.0 65.0 42.9 65.4 42.7 C 65.9 42.5 65.5 43.2 65.5 43.2 C 65.5 43.2 66.4 43.4 67.1 43.5 C 67.8 43.6 68.6 43.6 68.7 43.5 C 68.8 43.4 69.0 43.1 69.0 43.1 C 69.0 43.1 69.4 43.5 69.9 43.6 C 70.4 43.7 70.2 43.5 70.2 43.3 C 70.1 43.1 69.5 42.6 69.7 42.6 C 69.9 42.6 70.6 43.4 70.9 43.5 C 71.3 43.6 72.1 43.6 72.1 43.6 C 72.1 43.6 72.0 43.1 72.1 43.0 C 72.2 42.9 73.0 42.9 73.0 43.1 C 73.1 43.2 73.0 43.7 73.4 43.8 C 74.6 43.9 74.5 43.0 74.6 43.0 C 74.7 43.0 74.7 43.6 75.0 43.7 C 75.3 43.9 77.8 43.8 77.9 43.7 C 78.0 43.5 78.9 44.2 79.2 43.7 C 79.6 43.3 79.7 43.2 79.8 43.1 C 79.9 43.0 80.4 42.3 80.6 42.6 C 80.8 42.9 79.8 43.6 80.1 43.8 C 80.4 44.0 82.0 44.1 82.2 43.9 C 82.6 43.6 82.7 43.0 82.9 43.0 C 83.2 43.0 84.0 43.8 84.1 43.7 C 84.2 43.6 84.3 42.9 84.3 42.7 C 84.3 42.6 84.6 41.3 84.4 41.2 C 84.3 41.0 83.3 40.5 83.4 40.9 C 83.6 41.2 83.8 41.7 83.4 41.8 C 83.1 42.0 82.9 42.0 82.8 41.9 C 82.8 41.8 83.0 41.6 82.4 41.4 C 81.9 41.1 82.2 40.8 81.6 40.8 C 81.1 40.9 80.7 40.9 80.7 41.2 C 80.8 41.5 80.2 41.9 79.8 41.8 C 79.5 41.8 80.1 41.2 78.9 40.9 C 77.8 40.7 77.1 40.6 76.7 40.8 C 76.4 41.0 76.3 41.8 75.8 41.4 C 75.2 41.1 75.5 40.9 74.8 40.9 C 74.1 40.9 73.8 41.5 73.3 41.5 C 72.8 41.5 72.7 41.4 72.7 41.4 C 72.7 41.4 73.0 40.6 71.9 40.5 C 70.9 40.4 70.6 40.4 70.8 41.0 C 71.0 41.6 70.2 41.6 70.2 41.2 C 70.2 40.8 69.6 40.5 69.2 40.4 C 68.9 40.3 68.7 41.4 68.6 41.4 C 68.4 41.4 68.0 41.3 68.2 41.0 C 68.4 40.7 68.0 40.6 67.6 40.5 C 67.3 40.3 66.4 40.3 66.4 40.5 C 66.4 40.7 66.8 41.4 66.2 41.0 C 65.5 40.6 65.4 40.1 64.8 40.1 C 64.2 40.1 64.7 40.7 64.3 40.9 C 64.3 40.9 64.3 40.9 64.3 40.9 Z M 85.3 41.0 C 84.8 40.6 84.3 41.1 84.4 41.4 C 84.4 41.8 84.6 42.8 84.4 43.1 C 84.2 43.3 83.6 44.0 84.5 44.2 C 85.5 44.3 85.7 44.0 85.7 43.8 C 85.7 43.6 85.9 42.6 86.2 42.7 C 86.4 42.7 86.7 43.0 86.7 43.2 C 86.8 43.3 87.2 44.3 87.6 44.1 C 88.1 44.0 88.5 43.7 88.5 43.7 C 88.8 43.7 89.0 43.7 89.3 43.7 C 89.3 43.7 89.9 44.3 90.4 44.1 C 90.9 44.0 91.5 44.0 91.9 44.0 C 92.3 44.1 92.7 44.0 92.7 43.7 C 92.8 43.5 93.3 42.7 93.3 42.7 C 93.3 42.7 93.9 42.4 94.1 42.6 C 94.4 42.7 94.5 43.2 94.4 43.3 C 94.4 43.5 94.4 44.0 94.8 44.1 C 95.2 44.2 96.9 44.6 97.1 44.3 C 97.4 44.0 97.3 43.7 97.5 43.6 C 97.7 43.5 98.8 43.4 98.9 43.6 C 99.0 43.8 98.9 44.3 99.3 44.3 C 99.6 44.2 100.2 44.4 100.2 44.2 C 100.2 44.1 100.4 43.9 100.4 43.6 C 100.5 43.4 101.1 43.1 101.2 43.0 C 101.3 42.8 101.8 42.8 101.8 42.8 C 102.1 42.9 102.3 43.1 102.5 43.2 C 102.5 43.2 102.1 43.7 101.9 43.8 C 101.8 43.9 102.1 44.2 102.3 44.3 C 102.5 44.3 103.7 44.2 103.7 44.2 C 103.7 43.8 103.7 43.4 103.7 43.0 C 104.0 42.9 104.3 42.8 104.6 42.7 C 104.6 42.7 104.5 44.1 105.1 44.1 C 105.7 44.0 106.4 44.0 106.4 44.0 C 106.4 44.0 106.9 43.5 107.1 43.4 C 107.2 43.3 107.2 42.1 107.2 42.1 C 107.2 41.7 107.1 41.2 107.0 40.8 C 107.0 40.8 106.3 40.3 105.9 40.5 C 105.6 40.7 105.9 41.2 105.9 41.5 C 105.8 41.7 105.3 42.0 105.3 42.0 C 105.0 41.7 104.7 41.5 104.4 41.2 C 104.4 41.2 104.2 41.0 103.9 40.8 C 103.7 40.6 102.8 40.5 102.5 40.6 C 102.3 40.7 102.0 41.0 101.7 41.2 C 101.4 41.5 101.5 41.9 101.1 41.6 C 100.7 41.3 100.5 40.9 100.3 40.9 C 100.1 40.9 99.3 41.4 99.3 41.4 C 99.1 41.5 98.9 41.6 98.6 41.8 C 98.6 41.8 98.0 42.0 97.9 41.7 C 97.8 41.5 96.6 41.8 96.6 41.8 C 96.6 41.8 96.7 41.0 96.4 40.9 C 96.0 40.7 95.5 40.5 95.0 40.7 C 94.5 40.8 94.1 41.6 94.1 41.6 C 94.0 41.4 93.8 41.2 93.6 41.0 C 93.2 41.0 92.7 40.9 92.2 40.9 C 92.2 40.9 91.1 40.9 91.1 41.1 C 91.1 41.2 91.2 41.9 91.2 42.1 C 91.1 42.3 90.5 42.5 90.5 42.3 C 90.4 42.1 89.9 41.4 89.9 41.4 C 89.9 41.4 89.4 41.0 89.1 40.9 C 88.8 40.9 88.3 41.1 88.2 41.3 C 88.0 41.4 87.5 41.9 87.5 41.9 C 87.4 41.7 87.2 41.5 87.1 41.3 C 87.1 41.3 86.2 41.6 85.3 41.0 C 85.3 41.0 85.3 41.0 85.3 41.0 Z M 107.5 40.3 C 106.4 40.4 107.2 43.0 107.7 43.5 C 108.2 44.1 108.9 43.7 109.6 43.7 C 110.4 43.8 110.1 43.0 110.5 42.7 C 110.9 42.4 110.8 43.0 111.0 43.3 C 111.2 43.7 112.4 43.3 113.0 43.3 C 113.7 43.3 114.4 42.4 114.9 42.3 C 115.5 42.2 114.4 41.8 115.4 41.8 C 116.4 41.8 115.9 42.3 114.8 42.7 C 113.7 43.0 115.3 43.1 115.9 43.2 C 116.6 43.2 117.6 42.8 118.0 42.8 C 118.5 42.8 117.9 42.1 118.6 42.1 C 119.3 42.1 119.0 42.8 119.7 42.8 C 120.4 42.8 120.3 42.2 120.6 42.0 C 120.9 41.9 120.9 42.2 121.2 42.3 C 121.5 42.3 122.0 42.4 122.7 42.2 C 123.3 42.0 123.1 41.8 123.4 41.8 C 123.7 41.7 124.2 41.6 124.2 41.6 C 124.3 41.8 124.3 42.1 124.4 42.3 C 124.4 42.3 125.6 42.2 125.9 42.2 C 126.3 42.2 127.0 41.8 126.8 41.7 C 126.6 41.6 127.3 41.1 127.5 41.1 C 127.7 41.2 128.3 41.5 128.7 41.6 C 129.2 41.7 128.8 40.0 128.8 39.7 C 128.8 39.5 128.9 38.5 128.5 38.5 C 128.2 38.4 127.9 38.8 128.0 38.6 C 128.0 38.3 127.0 38.7 126.7 38.7 C 126.4 38.7 126.1 39.4 126.1 39.4 C 126.1 39.4 125.9 40.0 125.4 40.0 C 125.0 40.1 124.7 39.1 124.7 39.1 C 124.7 39.1 124.1 38.9 123.5 39.0 C 122.9 39.1 122.4 40.1 122.3 40.3 C 122.2 40.5 122.1 39.7 121.7 39.6 C 121.3 39.6 120.6 39.4 120.5 39.4 C 120.3 39.5 120.0 40.1 120.0 40.1 C 120.0 40.1 119.3 40.5 119.1 40.5 C 118.9 40.5 119.2 39.7 119.2 39.7 C 119.2 39.7 117.5 39.6 117.2 39.6 C 116.8 39.5 116.3 39.8 116.1 39.9 C 115.8 39.9 115.6 41.0 115.2 40.9 C 114.8 40.8 115.5 40.2 115.1 40.2 C 114.8 40.1 114.1 39.9 113.9 40.0 C 113.7 40.0 113.5 40.3 113.2 40.4 C 112.9 40.5 112.5 41.2 112.0 41.3 C 111.5 41.3 111.3 40.9 111.1 40.8 C 110.9 40.7 110.7 40.1 110.3 40.1 C 109.9 40.1 110.3 40.5 109.9 40.5 C 109.5 40.5 109.5 41.0 109.2 41.0 C 108.8 40.9 109.0 40.1 108.6 40.2 C 108.4 40.3 108.6 40.2 107.5 40.3 C 107.5 40.3 107.5 40.3 107.5 40.3 Z M 129.4 38.5 C 128.9 38.2 128.5 38.7 128.6 39.0 C 128.7 39.4 129.0 40.3 128.8 40.6 C 128.7 40.9 128.2 41.7 129.1 41.7 C 130.0 41.8 130.1 41.5 130.1 41.2 C 130.1 41.0 130.1 40.0 130.4 40.0 C 130.6 40.1 130.9 40.3 130.9 40.5 C 131.0 40.6 131.5 41.5 131.9 41.3 C 132.3 41.1 132.6 40.8 132.6 40.8 C 132.8 40.7 133.0 40.7 133.2 40.6 C 133.2 40.6 133.9 41.2 134.3 41.0 C 134.7 40.7 135.3 40.7 135.6 40.7 C 135.9 40.7 136.3 40.5 136.3 40.3 C 136.3 40.0 136.6 39.1 136.6 39.1 C 136.6 39.1 137.1 38.8 137.3 38.9 C 137.5 39.0 137.7 39.5 137.6 39.7 C 137.6 39.9 137.8 40.3 138.1 40.3 C 138.4 40.4 139.9 40.6 140.1 40.3 C 140.3 40.0 140.2 39.6 140.3 39.5 C 140.4 39.4 141.4 39.1 141.5 39.4 C 141.6 39.6 141.6 40.1 141.9 40.0 C 142.1 39.9 142.7 39.9 142.7 39.8 C 142.7 39.7 142.8 39.5 142.8 39.2 C 142.7 38.9 143.2 38.6 143.3 38.5 C 143.4 38.3 143.8 38.2 143.8 38.2 C 144.0 38.3 144.2 38.4 144.4 38.5 C 144.4 38.5 144.2 39.1 144.0 39.2 C 143.9 39.3 144.2 39.6 144.4 39.6 C 144.5 39.6 145.5 39.3 145.5 39.3 C 145.4 38.9 145.4 38.6 145.3 38.2 C 145.5 38.0 145.8 37.9 146.0 37.8 C 146.0 37.8 146.2 39.1 146.6 39.0 C 147.1 38.9 147.6 38.8 147.6 38.8 C 147.6 38.8 148.0 38.2 148.1 38.1 C 148.2 38.0 148.0 36.9 148.0 36.9 C 147.8 36.4 147.7 36.0 147.6 35.5 C 147.6 35.5 146.9 35.2 146.7 35.5 C 146.4 35.7 146.8 36.1 146.8 36.4 C 146.8 36.6 146.4 36.9 146.4 36.9 C 146.1 36.7 145.9 36.5 145.6 36.3 C 145.6 36.3 145.4 36.1 145.1 35.9 C 144.9 35.8 144.1 35.8 143.9 35.9 C 143.8 36.0 143.6 36.4 143.4 36.7 C 143.2 37.0 143.3 37.4 143.0 37.1 C 142.6 36.8 142.4 36.5 142.2 36.5 C 142.0 36.6 141.5 37.2 141.5 37.2 C 141.3 37.3 141.1 37.4 140.9 37.6 C 140.9 37.6 140.5 37.9 140.4 37.6 C 140.2 37.4 139.2 37.9 139.2 37.9 C 139.2 37.9 139.2 37.1 138.9 37.0 C 138.6 36.9 138.2 36.8 137.8 37.0 C 137.3 37.2 137.1 38.0 137.1 38.0 C 137.0 37.8 136.8 37.7 136.6 37.5 C 136.2 37.5 135.8 37.5 135.4 37.5 C 135.4 37.5 134.5 37.7 134.5 37.8 C 134.5 38.0 134.7 38.6 134.7 38.8 C 134.7 39.0 134.2 39.3 134.1 39.1 C 134.0 38.9 133.5 38.3 133.5 38.3 C 133.5 38.3 133.0 38.0 132.7 38.0 C 132.4 38.0 132.0 38.3 131.9 38.4 C 131.8 38.6 131.4 39.1 131.4 39.1 C 131.3 38.9 131.1 38.7 131.0 38.5 C 131.0 38.5 130.3 39.0 129.4 38.5 C 129.4 38.5 129.4 38.5 129.4 38.5 Z M 129.4 38.5 " fill="#C03520"></path></g></svg>