<?xml version="1.0" encoding="UTF-8" standalone="no"?><svg xmlns="http://www.w3.org/2000/svg" xmlns:xlink="http://www.w3.org/1999/xlink" clip-rule="evenodd" stroke-miterlimit="4.00" viewBox="0 0 177 46"><desc>SVG generated by Keynote</desc><defs></defs><g transform="matrix(1.00, 0.00, -0.00, -1.00, 0.0, 46.0)"><path d="M 151.9 35.0 C 151.6 35.1 151.2 34.8 150.3 34.8 C 149.3 34.9 148.1 35.2 148.4 35.4 C 148.7 35.7 149.1 35.8 148.7 36.3 C 148.3 36.8 147.9 37.6 148.6 37.7 C 149.4 37.8 152.1 37.9 152.8 37.3 C 153.5 36.7 153.7 36.5 154.2 36.1 C 154.7 35.7 154.6 36.6 154.6 36.6 C 154.6 36.6 155.9 36.3 156.8 36.1 C 157.7 35.9 158.7 35.6 158.8 35.4 C 158.8 35.3 159.0 34.9 159.0 34.9 C 159.0 34.9 159.6 35.1 160.2 34.9 C 160.8 34.8 160.6 34.7 160.4 34.5 C 160.3 34.4 159.4 34.1 159.6 34.1 C 159.9 34.0 160.9 34.4 161.3 34.4 C 161.8 34.3 162.6 33.9 162.6 33.9 C 162.6 33.9 162.4 33.5 162.4 33.4 C 162.5 33.2 163.3 32.8 163.4 33.0 C 163.5 33.1 163.6 33.6 164.0 33.4 C 165.3 32.9 164.7 32.2 164.8 32.1 C 164.9 32.1 165.2 32.7 165.5 32.6 C 165.9 32.6 167.9 31.4 168.0 31.2 C 168.0 31.0 168.9 31.1 169.0 30.6 C 169.0 30.1 169.0 29.9 169.0 29.8 C 169.0 29.7 168.9 28.9 169.2 29.0 C 169.5 29.1 169.3 30.2 169.6 30.2 C 170.0 30.2 171.0 29.5 171.0 29.2 C 171.0 28.8 170.7 28.3 170.8 28.2 C 170.9 28.1 171.9 28.2 171.9 28.1 C 171.8 28.0 171.4 27.4 171.3 27.3 C 171.2 27.2 170.4 26.2 170.2 26.2 C 170.0 26.2 169.3 26.2 169.6 26.4 C 169.9 26.6 170.3 26.9 170.3 27.1 C 170.2 27.4 170.1 27.5 170.0 27.4 C 169.9 27.3 169.9 27.1 169.5 27.2 C 169.0 27.2 169.0 26.9 168.7 27.1 C 168.5 27.4 168.3 27.6 168.5 27.8 C 168.7 28.0 168.6 28.6 168.3 28.7 C 168.1 28.9 168.1 28.1 167.2 28.4 C 166.3 28.7 165.7 28.9 165.6 29.3 C 165.4 29.6 165.7 30.3 165.1 30.2 C 164.5 30.2 164.7 29.9 164.1 30.2 C 163.4 30.5 163.4 31.2 162.9 31.4 C 162.5 31.6 162.3 31.7 162.3 31.7 C 162.3 31.7 162.3 30.8 161.2 31.2 C 160.1 31.6 159.8 31.6 160.2 32.1 C 160.7 32.6 159.8 32.9 159.6 32.6 C 159.4 32.2 158.6 32.2 158.2 32.3 C 157.8 32.4 158.0 33.4 157.8 33.5 C 157.6 33.6 157.1 33.7 157.2 33.3 C 157.3 32.9 156.8 33.1 156.3 33.1 C 155.9 33.1 154.6 33.5 154.7 33.7 C 154.8 33.9 155.6 34.3 154.6 34.3 C 153.6 34.2 153.3 33.8 152.4 34.0 C 151.5 34.3 152.5 34.7 151.9 35.0 C 151.9 35.0 151.9 35.0 151.9 35.0 Z M 170.1 25.8 C 169.7 26.3 171.9 27.8 172.5 28.0 C 173.1 28.1 173.2 27.5 173.6 27.1 C 174.0 26.7 173.2 26.4 173.1 26.0 C 173.1 25.7 173.5 26.0 173.9 26.1 C 174.3 26.2 174.3 25.4 174.5 24.9 C 174.7 24.5 173.9 23.9 173.9 23.6 C 173.9 23.3 173.4 23.8 173.5 23.3 C 173.6 22.8 174.1 23.0 174.3 23.7 C 174.5 24.4 174.8 23.5 175.0 23.1 C 175.1 22.7 174.6 22.0 174.6 21.7 C 174.6 21.4 174.0 21.9 173.9 21.5 C 173.9 21.1 174.6 21.1 174.5 20.6 C 174.4 20.1 173.9 20.4 173.6 20.3 C 173.4 20.2 173.8 20.0 173.7 19.8 C 173.7 19.6 173.7 19.2 173.3 18.9 C 172.9 18.6 172.8 18.9 172.7 18.7 C 172.5 18.6 172.2 18.3 172.2 18.3 C 172.4 18.1 172.5 18.0 172.7 17.8 C 172.7 17.8 172.1 17.1 171.9 16.9 C 171.7 16.6 171.0 16.4 171.1 16.6 C 171.1 16.9 170.3 16.8 170.3 16.6 C 170.2 16.5 170.0 15.9 169.8 15.5 C 169.6 15.2 168.7 16.7 168.6 16.9 C 168.4 17.1 167.8 17.7 167.9 18.0 C 168.1 18.2 168.5 18.1 168.3 18.2 C 168.1 18.4 168.9 18.7 169.0 18.8 C 169.2 19.0 169.8 18.6 169.8 18.6 C 169.8 18.6 170.3 18.4 170.5 18.6 C 170.8 18.8 170.1 19.6 170.1 19.6 C 170.1 19.6 170.2 20.0 170.4 20.2 C 170.6 20.4 171.5 20.2 171.7 20.1 C 171.9 20.1 171.3 20.5 171.3 20.8 C 171.3 21.0 171.2 21.3 171.3 21.4 C 171.3 21.4 171.9 21.3 171.9 21.3 C 171.9 21.3 172.3 21.5 172.4 21.6 C 172.4 21.7 171.6 21.8 171.6 21.8 C 171.6 21.8 171.5 22.4 171.4 22.5 C 171.4 22.6 171.6 22.8 171.7 22.8 C 171.7 22.9 172.7 23.1 172.6 23.2 C 172.5 23.4 172.0 23.1 171.9 23.2 C 171.8 23.3 171.5 23.5 171.5 23.5 C 171.5 23.6 171.8 23.8 171.8 23.9 C 171.8 24.0 172.5 24.4 172.4 24.6 C 172.3 24.9 171.8 24.8 171.7 24.8 C 171.6 24.8 171.0 24.6 170.9 24.7 C 170.8 24.8 171.2 24.9 171.1 25.1 C 171.0 25.2 171.4 25.5 171.2 25.6 C 171.0 25.7 170.5 25.1 170.4 25.4 C 170.4 25.5 170.5 25.4 170.1 25.8 C 170.1 25.8 170.1 25.8 170.1 25.8 Z M 167.4 17.5 C 167.5 18.0 168.1 17.9 168.3 17.5 C 168.4 17.2 168.8 16.3 169.1 16.2 C 169.4 16.0 170.3 15.8 169.7 15.2 C 169.1 14.6 168.8 14.8 168.6 15.0 C 168.5 15.2 167.8 15.9 167.7 15.7 C 167.6 15.6 167.5 15.2 167.5 15.0 C 167.5 14.9 167.7 13.9 167.3 13.8 C 166.8 13.7 166.3 13.7 166.3 13.7 C 166.1 13.7 165.9 13.6 165.6 13.5 C 165.6 13.5 165.3 12.6 164.8 12.5 C 164.2 12.4 163.6 12.2 163.2 12.0 C 162.9 11.8 162.4 11.7 162.3 11.9 C 162.1 12.1 161.3 12.6 161.3 12.6 C 161.3 12.6 160.5 12.6 160.3 12.4 C 160.1 12.1 160.1 11.7 160.3 11.5 C 160.4 11.4 160.5 10.9 160.1 10.7 C 159.7 10.4 157.8 9.3 157.3 9.4 C 156.9 9.6 156.9 10.0 156.6 10.0 C 156.4 10.0 154.9 9.6 154.8 9.4 C 154.8 9.1 155.0 8.6 154.5 8.6 C 154.1 8.5 153.2 8.1 153.2 8.2 C 153.1 8.4 152.8 8.4 152.7 8.7 C 152.6 8.9 151.6 8.9 151.4 9.0 C 151.1 9.1 150.4 8.9 150.4 8.9 C 150.1 8.7 149.8 8.5 149.5 8.3 C 149.5 8.3 150.2 7.9 150.5 7.9 C 150.9 7.9 150.5 7.4 150.2 7.3 C 149.9 7.2 148.4 7.0 148.4 7.0 C 148.3 7.3 148.2 7.7 148.1 8.1 C 147.9 8.1 147.6 8.1 147.4 8.2 C 147.4 8.2 147.8 6.9 147.3 6.8 C 146.9 6.7 146.3 6.5 146.3 6.5 C 146.3 6.5 145.7 6.9 145.6 7.0 C 145.5 7.0 145.2 8.1 145.2 8.1 C 145.1 8.6 145.0 9.1 145.0 9.5 C 145.0 9.5 145.4 10.1 145.8 10.0 C 146.1 9.9 146.0 9.3 146.1 9.1 C 146.2 8.9 146.7 8.8 146.7 8.8 C 146.8 9.1 147.0 9.3 147.1 9.7 C 147.1 9.7 147.2 9.9 147.4 10.2 C 147.5 10.5 148.3 10.8 148.7 10.8 C 149.1 10.8 149.6 10.6 150.1 10.5 C 150.6 10.3 150.6 9.9 151.1 10.4 C 151.6 10.8 151.8 11.3 152.0 11.3 C 152.3 11.4 153.6 11.3 153.6 11.3 C 153.9 11.3 154.3 11.2 154.6 11.2 C 154.6 11.2 155.5 11.2 155.5 11.5 C 155.5 11.8 157.2 12.0 157.2 12.0 C 157.2 12.0 156.8 12.8 157.2 13.0 C 157.5 13.3 158.0 13.7 158.7 13.7 C 159.3 13.8 160.0 13.2 160.0 13.2 C 160.1 13.5 160.2 13.7 160.3 14.0 C 160.8 14.2 161.3 14.5 161.7 14.8 C 161.7 14.8 162.8 15.1 162.8 15.0 C 162.9 14.9 163.1 14.2 163.2 14.1 C 163.3 13.9 164.0 14.0 163.9 14.2 C 163.9 14.4 164.1 15.2 164.1 15.2 C 164.1 15.2 164.3 15.8 164.6 16.0 C 164.8 16.2 165.3 16.2 165.5 16.1 C 165.7 16.0 166.3 15.8 166.3 15.8 C 166.3 16.0 166.3 16.3 166.3 16.5 C 166.3 16.5 167.1 16.6 167.4 17.5 C 167.4 17.5 167.4 17.5 167.4 17.5 Z M 144.5 9.9 C 145.4 10.0 145.4 7.3 145.1 6.7 C 144.9 6.1 144.2 6.3 143.6 6.1 C 143.0 5.8 143.0 6.7 142.6 6.9 C 142.2 7.0 142.4 6.5 142.3 6.1 C 142.3 5.7 141.2 5.9 140.6 5.7 C 140.1 5.6 139.3 6.3 138.8 6.3 C 138.3 6.3 139.1 6.8 138.3 6.7 C 137.4 6.4 137.9 6.0 139.0 5.9 C 140.0 5.8 138.7 5.4 138.1 5.2 C 137.6 5.0 136.6 5.2 136.2 5.1 C 135.7 5.0 136.2 5.8 135.6 5.6 C 134.9 5.5 135.3 4.9 134.7 4.7 C 134.1 4.5 134.1 5.1 133.7 5.2 C 133.3 5.3 133.5 5.0 133.2 4.9 C 132.9 4.8 132.5 4.5 131.9 4.6 C 131.2 4.6 131.3 4.9 131.1 4.9 C 130.8 4.9 130.3 4.8 130.3 4.8 C 130.2 4.6 130.2 4.3 130.2 4.1 C 130.2 4.1 129.1 3.9 128.7 3.8 C 128.4 3.7 127.6 3.9 127.8 4.1 C 128.0 4.3 127.1 4.6 127.0 4.5 C 126.8 4.4 126.2 4.0 125.8 3.8 C 125.5 3.6 125.4 5.3 125.4 5.5 C 125.3 5.8 125.0 6.7 125.3 6.8 C 125.7 7.0 126.0 6.6 125.9 6.9 C 125.8 7.1 126.9 7.0 127.2 7.0 C 127.5 7.1 127.9 6.5 127.9 6.5 C 127.9 6.5 128.2 6.0 128.7 6.0 C 129.2 6.1 129.2 7.2 129.2 7.2 C 129.2 7.2 129.7 7.5 130.3 7.5 C 130.9 7.5 131.6 6.7 131.8 6.5 C 131.9 6.4 131.8 7.2 132.1 7.3 C 132.5 7.5 133.1 7.8 133.2 7.8 C 133.4 7.8 133.8 7.3 133.8 7.3 C 133.8 7.3 134.5 7.0 134.7 7.1 C 134.9 7.1 134.5 7.8 134.5 7.8 C 134.5 7.8 135.9 8.3 136.2 8.4 C 136.5 8.5 137.0 8.4 137.2 8.4 C 137.5 8.4 137.9 7.4 138.2 7.6 C 138.5 7.7 137.8 8.1 138.1 8.3 C 138.4 8.5 139.0 8.7 139.1 8.8 C 139.3 8.8 139.5 8.5 139.8 8.5 C 140.1 8.5 140.6 7.8 141.0 7.9 C 141.4 8.0 141.6 8.5 141.7 8.6 C 141.8 8.7 141.8 9.4 142.1 9.5 C 142.5 9.5 142.3 9.1 142.6 9.1 C 142.9 9.2 143.0 8.7 143.3 8.9 C 143.6 9.0 143.2 9.8 143.6 9.7 C 143.8 9.7 143.6 9.7 144.5 9.9 C 144.5 9.9 144.5 9.9 144.5 9.9 Z M 124.5 6.6 C 124.9 7.0 125.4 6.6 125.4 6.3 C 125.4 5.9 125.3 4.9 125.5 4.7 C 125.7 4.4 126.4 3.8 125.5 3.5 C 124.7 3.3 124.4 3.6 124.4 3.8 C 124.4 4.0 124.1 5.0 123.9 4.9 C 123.7 4.8 123.4 4.5 123.4 4.3 C 123.3 4.2 123.1 3.2 122.6 3.3 C 122.2 3.4 121.8 3.6 121.8 3.6 C 121.5 3.6 121.3 3.6 121.1 3.6 C 121.1 3.6 120.5 2.9 120.0 3.0 C 119.5 3.1 119.0 3.1 118.6 3.0 C 118.3 2.9 117.9 3.0 117.8 3.2 C 117.7 3.4 117.2 4.2 117.2 4.2 C 117.2 4.2 116.6 4.4 116.4 4.2 C 116.1 4.1 116.1 3.6 116.2 3.4 C 116.2 3.3 116.2 2.8 115.9 2.7 C 115.5 2.5 113.9 2.0 113.6 2.2 C 113.4 2.5 113.4 2.9 113.2 2.9 C 113.0 3.0 111.9 3.0 111.9 2.7 C 111.8 2.5 111.9 2.0 111.6 2.0 C 111.2 2.1 110.6 1.9 110.6 2.0 C 110.6 2.2 110.4 2.3 110.4 2.6 C 110.3 2.8 109.7 3.0 109.5 3.2 C 109.4 3.3 108.9 3.3 108.9 3.3 C 108.7 3.1 108.5 3.0 108.3 2.8 C 108.3 2.8 108.7 2.3 108.9 2.2 C 109.1 2.2 108.8 1.8 108.6 1.8 C 108.4 1.7 107.2 1.7 107.2 1.7 C 107.2 2.1 107.1 2.5 107.1 2.9 C 106.8 2.9 106.5 3.0 106.2 3.1 C 106.2 3.1 106.4 1.7 105.8 1.7 C 105.2 1.7 104.5 1.7 104.5 1.7 C 104.5 1.7 103.9 2.1 103.8 2.2 C 103.6 2.2 103.5 3.4 103.5 3.4 C 103.5 3.9 103.5 4.3 103.6 4.8 C 103.6 4.8 104.2 5.3 104.6 5.1 C 105.0 5.0 104.7 4.4 104.8 4.2 C 104.9 4.0 105.4 3.8 105.4 3.8 C 105.7 4.1 105.9 4.3 106.2 4.6 C 106.2 4.6 106.4 4.8 106.6 5.1 C 106.9 5.3 107.8 5.5 108.0 5.4 C 108.3 5.4 108.5 5.1 108.9 4.8 C 109.2 4.6 109.2 4.2 109.5 4.6 C 109.9 4.9 110.0 5.3 110.2 5.3 C 110.4 5.3 111.3 4.9 111.3 4.9 C 111.5 4.8 111.7 4.7 112.0 4.6 C 112.0 4.6 112.6 4.4 112.6 4.7 C 112.7 5.0 114.0 4.8 114.0 4.8 C 114.0 4.8 113.8 5.6 114.1 5.7 C 114.4 5.9 114.8 6.1 115.3 6.0 C 115.8 5.9 116.3 5.2 116.3 5.2 C 116.4 5.4 116.5 5.6 116.7 5.8 C 117.1 5.9 117.6 6.0 118.0 6.1 C 118.0 6.1 119.1 6.1 119.1 6.0 C 119.1 5.9 119.0 5.2 119.1 5.0 C 119.2 4.8 119.8 4.6 119.8 4.9 C 119.8 5.1 120.3 5.8 120.3 5.8 C 120.3 5.8 120.6 6.2 120.9 6.3 C 121.2 6.4 121.7 6.2 121.9 6.1 C 122.0 6.0 122.5 5.5 122.5 5.5 C 122.7 5.7 122.8 6.0 122.9 6.2 C 122.9 6.2 123.7 5.9 124.5 6.6 C 124.5 6.6 124.5 6.6 124.5 6.6 Z M 103.1 5.2 C 104.2 5.2 103.6 2.5 103.2 2.0 C 102.7 1.4 102.0 1.7 101.2 1.6 C 100.4 1.5 100.7 2.3 100.2 2.6 C 99.8 2.8 99.9 2.3 99.8 1.9 C 99.6 1.5 98.4 1.8 97.7 1.7 C 97.0 1.7 96.2 2.5 95.7 2.6 C 95.1 2.6 96.2 3.0 95.1 3.0 C 94.1 2.9 94.6 2.4 95.8 2.2 C 97.0 1.9 95.4 1.7 94.7 1.5 C 94.1 1.4 93.0 1.8 92.5 1.8 C 92.0 1.7 92.6 2.4 91.9 2.4 C 91.1 2.3 91.5 1.7 90.8 1.6 C 90.0 1.4 90.1 2.1 89.7 2.2 C 89.3 2.4 89.4 2.0 89.1 1.9 C 88.8 1.9 88.3 1.7 87.6 1.8 C 86.9 2.0 87.1 2.2 86.7 2.2 C 86.4 2.3 85.8 2.3 85.8 2.3 C 85.8 2.1 85.8 1.8 85.7 1.6 C 85.7 1.6 84.4 1.6 84.1 1.5 C 83.7 1.5 82.8 1.8 83.0 1.9 C 83.3 2.1 82.4 2.5 82.2 2.4 C 82.0 2.3 81.4 2.0 80.9 1.9 C 80.5 1.7 80.7 3.4 80.7 3.7 C 80.7 3.9 80.4 4.9 80.8 5.0 C 81.2 5.0 81.5 4.7 81.4 4.9 C 81.4 5.2 82.5 4.9 82.8 4.9 C 83.2 4.9 83.5 4.3 83.5 4.3 C 83.5 4.3 83.8 3.7 84.3 3.7 C 84.8 3.7 85.0 4.8 85.0 4.8 C 85.0 4.8 85.7 5.0 86.3 4.9 C 86.9 4.9 87.6 4.0 87.8 3.8 C 87.9 3.6 87.9 4.4 88.3 4.5 C 88.8 4.6 89.4 4.9 89.6 4.8 C 89.8 4.8 90.1 4.2 90.1 4.2 C 90.1 4.2 90.9 3.9 91.1 3.9 C 91.3 3.9 91.0 4.7 91.0 4.7 C 91.0 4.7 92.7 4.9 93.1 5.0 C 93.4 5.1 94.0 4.9 94.2 4.8 C 94.5 4.8 94.9 3.8 95.2 3.9 C 95.6 4.0 94.9 4.5 95.2 4.6 C 95.6 4.7 96.3 4.9 96.5 4.9 C 96.7 5.0 96.9 4.6 97.3 4.6 C 97.6 4.5 98.0 3.8 98.5 3.8 C 99.0 3.8 99.3 4.3 99.5 4.4 C 99.6 4.5 99.8 5.1 100.2 5.2 C 100.5 5.2 100.3 4.8 100.7 4.8 C 101.0 4.8 101.0 4.3 101.4 4.4 C 101.8 4.5 101.5 5.3 102.0 5.2 C 102.1 5.2 102.0 5.2 103.1 5.2 C 103.1 5.2 103.1 5.2 103.1 5.2 Z M 78.4 4.3 C 78.6 4.2 78.8 4.6 79.4 4.8 C 80.1 4.9 80.8 4.9 80.7 4.6 C 80.5 4.3 80.3 4.1 80.6 3.7 C 80.9 3.3 81.3 2.6 80.9 2.3 C 80.4 2.1 78.6 1.4 78.1 1.8 C 77.6 2.2 77.4 2.3 77.0 2.6 C 76.6 2.8 76.8 2.0 76.8 2.0 C 76.8 2.0 75.9 2.0 75.2 1.9 C 74.5 1.9 73.7 1.9 73.6 2.0 C 73.6 2.2 73.3 2.5 73.3 2.5 C 73.3 2.5 72.9 2.1 72.4 2.1 C 71.9 2.0 72.1 2.2 72.2 2.4 C 72.3 2.6 72.9 3.1 72.7 3.1 C 72.5 3.1 71.8 2.3 71.4 2.3 C 71.0 2.2 70.2 2.3 70.2 2.3 C 70.2 2.3 70.3 2.7 70.3 2.9 C 70.2 3.0 69.4 3.1 69.3 2.9 C 69.3 2.8 69.3 2.3 68.9 2.3 C 67.7 2.2 67.9 3.1 67.8 3.2 C 67.7 3.2 67.7 2.5 67.4 2.4 C 67.1 2.3 64.6 2.6 64.5 2.8 C 64.4 2.9 63.6 2.4 63.2 2.8 C 62.9 3.3 62.8 3.4 62.7 3.5 C 62.7 3.6 62.3 4.3 62.0 4.1 C 61.8 3.9 62.7 3.0 62.4 2.8 C 62.1 2.6 60.6 2.7 60.3 2.9 C 60.0 3.3 59.9 3.9 59.7 3.9 C 59.5 4.0 58.6 3.2 58.6 3.3 C 58.5 3.5 58.5 4.2 58.5 4.3 C 58.5 4.4 58.3 5.7 58.5 5.9 C 58.7 6.0 59.6 6.4 59.5 6.1 C 59.3 5.7 59.1 5.3 59.4 5.1 C 59.7 4.9 59.9 4.9 59.9 5.0 C 60.0 5.1 59.9 5.3 60.4 5.5 C 60.9 5.7 60.7 6.0 61.2 5.9 C 61.7 5.9 62.1 5.8 62.0 5.5 C 62.0 5.2 62.5 4.8 62.8 4.8 C 63.2 4.8 62.6 5.4 63.8 5.6 C 64.9 5.7 65.6 5.8 65.9 5.5 C 66.2 5.2 66.3 4.5 66.8 4.8 C 67.4 5.1 67.1 5.3 67.8 5.2 C 68.5 5.2 68.8 4.6 69.3 4.5 C 69.7 4.5 69.9 4.5 69.9 4.5 C 69.9 4.5 69.6 5.3 70.7 5.3 C 71.7 5.3 72.0 5.4 71.7 4.8 C 71.5 4.2 72.3 4.1 72.3 4.5 C 72.4 4.9 73.0 5.1 73.4 5.2 C 73.8 5.2 73.8 4.2 74.0 4.2 C 74.1 4.1 74.5 4.2 74.4 4.5 C 74.2 4.8 74.6 4.9 75.0 5.0 C 75.3 5.1 76.3 5.0 76.3 4.8 C 76.2 4.6 75.7 4.0 76.4 4.3 C 77.1 4.6 77.3 5.1 77.9 5.1 C 78.5 5.0 78.0 4.4 78.4 4.3 C 78.4 4.3 78.4 4.3 78.4 4.3 Z M 57.7 6.1 C 58.2 6.5 58.6 6.0 58.5 5.6 C 58.4 5.2 58.2 4.3 58.3 4.0 C 58.5 3.7 59.0 3.0 58.1 2.9 C 57.2 2.8 57.0 3.1 57.0 3.4 C 57.1 3.6 57.0 4.6 56.7 4.6 C 56.5 4.5 56.2 4.2 56.1 4.1 C 56.1 4.0 55.6 3.0 55.2 3.2 C 54.8 3.4 54.4 3.7 54.4 3.7 C 54.2 3.8 54.0 3.8 53.7 3.8 C 53.7 3.8 53.1 3.3 52.6 3.5 C 52.1 3.7 51.6 3.7 51.2 3.7 C 50.9 3.7 50.5 3.9 50.5 4.1 C 50.5 4.3 50.1 5.2 50.1 5.2 C 50.1 5.2 49.6 5.5 49.3 5.4 C 49.1 5.3 49.0 4.8 49.0 4.6 C 49.0 4.5 48.9 4.0 48.6 3.9 C 48.2 3.9 46.6 3.6 46.4 3.9 C 46.2 4.2 46.3 4.6 46.2 4.7 C 46.0 4.8 45.0 5.0 44.9 4.8 C 44.8 4.6 44.8 4.1 44.5 4.2 C 44.2 4.2 43.7 4.2 43.7 4.3 C 43.7 4.5 43.5 4.6 43.5 4.9 C 43.6 5.2 43.0 5.5 42.9 5.6 C 42.8 5.8 42.4 5.9 42.4 5.9 C 42.2 5.8 42.0 5.7 41.8 5.5 C 41.8 5.5 42.0 5.0 42.2 4.9 C 42.3 4.8 42.0 4.5 41.8 4.5 C 41.7 4.4 40.6 4.7 40.6 4.7 C 40.7 5.1 40.7 5.5 40.7 5.8 C 40.5 6.0 40.2 6.1 40.0 6.2 C 40.0 6.2 39.9 4.9 39.4 4.9 C 38.9 5.0 38.3 5.1 38.3 5.1 C 38.3 5.1 37.9 5.7 37.7 5.8 C 37.6 5.9 37.8 7.0 37.8 7.0 C 37.9 7.5 38.0 7.9 38.1 8.4 C 38.1 8.4 38.8 8.7 39.1 8.5 C 39.4 8.3 39.0 7.8 39.0 7.6 C 39.1 7.3 39.5 7.0 39.5 7.0 C 39.8 7.3 40.0 7.5 40.3 7.7 C 40.3 7.7 40.6 7.9 40.8 8.1 C 41.1 8.3 41.9 8.3 42.1 8.2 C 42.3 8.0 42.4 7.7 42.7 7.4 C 42.9 7.1 42.8 6.7 43.2 7.0 C 43.6 7.3 43.8 7.6 44.0 7.6 C 44.1 7.6 44.8 7.0 44.8 7.0 C 45.0 6.9 45.2 6.7 45.4 6.6 C 45.4 6.6 45.9 6.3 46.0 6.6 C 46.1 6.8 47.2 6.4 47.2 6.4 C 47.2 6.4 47.2 7.2 47.5 7.3 C 47.8 7.4 48.3 7.5 48.8 7.3 C 49.2 7.1 49.5 6.3 49.5 6.3 C 49.6 6.5 49.8 6.7 50.0 6.9 C 50.4 6.9 50.9 6.9 51.3 6.9 C 51.3 6.9 52.3 6.7 52.3 6.6 C 52.3 6.5 52.1 5.8 52.1 5.6 C 52.2 5.4 52.7 5.1 52.7 5.3 C 52.8 5.6 53.4 6.1 53.4 6.1 C 53.4 6.1 53.8 6.5 54.1 6.5 C 54.4 6.5 54.9 6.3 55.0 6.1 C 55.1 6.0 55.5 5.4 55.5 5.4 C 55.7 5.6 55.8 5.8 56.0 6.0 C 56.0 6.0 56.8 5.6 57.7 6.1 C 57.7 6.1 57.7 6.1 57.7 6.1 Z M 37.8 8.9 C 38.7 8.7 37.7 6.2 37.2 5.7 C 36.7 5.2 36.1 5.7 35.5 5.7 C 34.8 5.7 35.2 6.5 34.9 6.8 C 34.6 7.1 34.6 6.6 34.4 6.2 C 34.1 5.9 33.2 6.4 32.7 6.5 C 32.1 6.6 31.7 7.5 31.2 7.7 C 30.8 7.8 31.7 8.1 30.9 8.2 C 30.1 8.3 30.4 7.7 31.3 7.3 C 32.1 6.8 30.8 6.9 30.3 6.9 C 29.7 6.9 29.0 7.5 28.6 7.5 C 28.2 7.5 29.1 8.0 27.9 8.3 C 26.8 8.5 27.2 7.7 26.1 7.9 C 24.9 8.1 25.2 8.7 24.7 9.0 C 24.2 9.2 24.2 8.8 23.8 8.9 C 23.3 9.0 22.6 9.0 21.7 9.4 C 20.8 9.8 21.1 9.9 20.7 10.1 C 20.3 10.3 19.6 10.5 19.6 10.5 C 19.5 10.3 19.4 10.1 19.2 9.9 C 19.2 9.9 17.6 10.4 17.2 10.5 C 16.7 10.6 15.8 11.2 16.2 11.3 C 16.5 11.3 15.7 12.1 15.4 12.1 C 15.2 12.1 14.4 12.0 13.9 12.1 C 13.4 12.1 14.2 13.7 14.3 13.9 C 14.4 14.1 14.5 15.1 14.9 15.0 C 15.3 14.9 15.5 14.5 15.5 14.7 C 15.5 15.0 16.6 14.3 16.9 14.2 C 17.3 14.1 17.5 13.3 17.5 13.3 C 17.5 13.3 17.6 12.7 18.2 12.5 C 18.8 12.3 19.4 13.2 19.4 13.2 C 19.4 13.2 20.2 13.1 20.9 12.8 C 21.7 12.6 22.4 11.4 22.5 11.2 C 22.6 11.0 22.8 11.8 23.4 11.7 C 24.0 11.6 25.0 11.6 25.2 11.5 C 25.5 11.4 25.8 10.7 25.8 10.7 C 25.8 10.7 26.9 10.1 27.2 10.0 C 27.5 10.0 27.2 10.9 27.2 10.9 C 27.2 10.9 29.5 10.6 29.8 10.6 C 30.1 10.6 30.4 10.3 30.6 10.2 C 30.8 10.1 30.9 9.0 31.2 9.1 C 31.5 9.1 31.0 9.7 31.4 9.8 C 31.7 9.8 32.3 9.9 32.4 9.9 C 32.6 9.8 32.7 9.5 32.9 9.3 C 33.2 9.3 33.4 8.5 33.8 8.4 C 34.2 8.3 34.5 8.7 34.7 8.8 C 34.8 8.8 35.1 9.4 35.4 9.4 C 35.7 9.4 35.4 9.0 35.7 8.9 C 36.0 8.9 35.9 8.4 36.3 8.4 C 36.6 8.4 36.5 9.3 36.9 9.1 C 37.0 9.0 36.9 9.1 37.8 8.9 C 37.8 8.9 37.8 8.9 37.8 8.9 Z M 14.0 15.3 C 14.6 15.4 14.9 14.8 14.7 14.5 C 14.5 14.2 13.9 13.4 14.0 13.0 C 14.1 12.7 14.4 11.8 13.4 12.1 C 12.4 12.3 12.3 12.7 12.4 12.9 C 12.5 13.1 12.8 14.1 12.5 14.1 C 12.2 14.2 11.9 14.0 11.8 13.9 C 11.6 13.9 10.9 13.1 10.5 13.5 C 10.2 13.8 10.0 14.3 10.0 14.3 C 9.8 14.4 9.6 14.5 9.4 14.6 C 9.4 14.6 8.6 14.4 8.3 14.8 C 8.0 15.1 7.6 15.4 7.3 15.6 C 7.0 15.7 6.8 16.0 6.9 16.2 C 7.0 16.4 7.2 17.3 7.2 17.3 C 7.2 17.3 7.0 17.7 6.8 17.7 C 6.6 17.8 6.2 17.4 6.1 17.3 C 6.1 17.1 5.7 16.8 5.4 16.9 C 5.2 17.0 4.0 17.6 4.1 18.0 C 4.2 18.3 4.5 18.5 4.5 18.6 C 4.5 18.8 4.1 19.4 3.9 19.3 C 3.6 19.2 3.2 18.9 3.2 19.1 C 3.1 19.3 2.8 19.7 2.9 19.7 C 3.0 19.8 3.1 20.0 3.3 20.1 C 3.6 20.2 3.6 20.7 3.7 20.8 C 3.8 20.9 3.8 21.2 3.8 21.2 C 3.6 21.3 3.4 21.3 3.2 21.4 C 3.2 21.4 2.8 21.0 2.8 20.9 C 2.7 20.8 2.3 20.8 2.2 21.0 C 2.2 21.1 2.1 21.9 2.1 21.9 C 2.5 22.0 2.8 22.0 3.2 22.1 C 3.3 22.3 3.3 22.4 3.4 22.6 C 3.4 22.6 2.1 22.4 2.1 22.8 C 2.1 23.2 2.1 23.7 2.1 23.7 C 2.1 23.7 2.7 24.0 2.7 24.1 C 2.8 24.1 4.0 23.9 4.0 23.9 C 4.4 23.8 4.9 23.7 5.3 23.6 C 5.3 23.6 5.7 23.3 5.5 23.2 C 5.4 23.1 4.9 23.2 4.6 23.2 C 4.4 23.2 4.1 23.0 4.1 23.0 C 4.4 22.8 4.7 22.7 4.9 22.6 C 4.9 22.6 5.2 22.6 5.4 22.5 C 5.7 22.5 5.8 22.2 5.8 22.1 C 5.7 22.0 5.4 21.8 5.2 21.7 C 5.1 21.5 4.7 21.3 5.0 21.3 C 5.4 21.3 5.7 21.3 5.8 21.3 C 5.8 21.2 5.6 20.7 5.6 20.7 C 5.6 20.5 5.5 20.4 5.5 20.2 C 5.5 20.2 5.5 19.8 5.7 19.9 C 6.0 20.1 6.2 19.3 6.2 19.3 C 6.2 19.3 6.8 19.9 7.0 19.9 C 7.2 19.9 7.5 19.8 7.6 19.5 C 7.7 19.2 7.4 18.4 7.4 18.4 C 7.6 18.5 7.8 18.6 8.0 18.7 C 8.3 18.6 8.6 18.4 8.9 18.2 C 8.9 18.2 9.5 17.8 9.5 17.6 C 9.4 17.5 8.9 17.0 8.8 16.8 C 8.8 16.6 9.1 16.2 9.2 16.4 C 9.4 16.5 10.1 16.9 10.1 16.9 C 10.1 16.9 10.6 17.0 10.9 16.9 C 11.1 16.8 11.4 16.4 11.4 16.2 C 11.5 16.1 11.7 15.4 11.7 15.4 C 11.9 15.5 12.1 15.7 12.3 15.8 C 12.3 15.8 12.9 15.1 14.0 15.3 C 14.0 15.3 14.0 15.3 14.0 15.3 Z M 5.8 23.6 C 5.6 23.3 3.1 24.1 2.7 24.5 C 2.2 24.9 2.7 25.3 2.8 25.8 C 2.9 26.3 3.6 25.7 4.0 25.9 C 4.3 26.0 3.8 26.2 3.5 26.5 C 3.3 26.8 4.0 27.2 4.3 27.7 C 4.6 28.1 5.6 27.8 5.9 28.1 C 6.2 28.3 6.0 27.5 6.5 28.0 C 6.9 28.5 6.3 28.7 5.6 28.3 C 4.8 27.9 5.4 28.9 5.8 29.3 C 6.1 29.7 7.0 29.9 7.3 30.2 C 7.6 30.5 7.6 29.6 8.1 30.0 C 8.6 30.3 7.9 30.7 8.4 31.2 C 9.0 31.6 9.2 31.0 9.6 31.1 C 10.0 31.1 9.7 31.4 10.0 31.6 C 10.2 31.8 10.5 32.2 11.2 32.4 C 11.9 32.6 11.8 32.3 12.2 32.4 C 12.5 32.5 13.0 32.7 13.0 32.7 C 13.0 33.0 12.9 33.2 12.9 33.4 C 12.9 33.4 14.1 34.0 14.5 34.2 C 14.9 34.4 16.0 34.5 15.8 34.3 C 15.6 34.1 16.7 34.0 16.9 34.2 C 17.0 34.4 17.7 34.9 18.2 35.3 C 18.6 35.6 19.0 33.9 19.1 33.7 C 19.2 33.4 19.8 32.7 19.4 32.4 C 19.0 32.2 18.5 32.4 18.6 32.2 C 18.8 32.0 17.4 31.7 17.1 31.6 C 16.8 31.5 16.1 31.9 16.1 31.9 C 16.1 31.9 15.6 32.3 15.1 32.1 C 14.6 31.9 14.8 30.8 14.8 30.8 C 14.8 30.8 14.3 30.4 13.7 30.1 C 13.1 29.9 12.1 30.4 11.9 30.5 C 11.7 30.7 12.1 29.9 11.8 29.7 C 11.5 29.4 11.1 28.9 11.0 28.9 C 10.8 28.8 10.3 29.2 10.3 29.2 C 10.3 29.2 9.6 29.1 9.4 29.0 C 9.3 28.9 9.9 28.4 9.9 28.4 C 9.9 28.4 9.0 27.5 8.9 27.3 C 8.7 27.1 8.3 27.0 8.1 27.0 C 8.0 26.9 7.1 27.5 7.0 27.3 C 6.9 27.0 7.6 26.9 7.5 26.7 C 7.4 26.5 7.3 26.1 7.2 26.0 C 7.1 25.9 6.8 26.1 6.6 26.0 C 6.5 25.9 5.7 26.1 5.6 25.9 C 5.4 25.7 5.7 25.3 5.7 25.2 C 5.8 25.1 6.3 24.7 6.2 24.6 C 6.2 24.4 5.9 24.7 5.8 24.6 C 5.7 24.4 5.3 24.6 5.3 24.5 C 5.3 24.3 6.1 24.1 5.9 24.0 C 5.9 23.9 5.9 24.0 5.8 23.6 C 5.8 23.6 5.8 23.6 5.8 23.6 Z M 20.5 32.9 C 19.9 32.3 19.2 32.6 19.2 32.9 C 19.1 33.3 19.1 34.3 18.7 34.5 C 18.4 34.7 17.4 35.1 18.5 35.6 C 19.7 36.1 20.0 35.9 20.1 35.7 C 20.2 35.5 20.7 34.6 21.0 34.8 C 21.3 35.0 21.6 35.3 21.6 35.5 C 21.7 35.7 21.9 36.7 22.6 36.8 C 23.2 36.8 23.9 36.7 23.9 36.7 C 24.3 36.8 24.6 36.9 24.9 37.0 C 24.9 37.0 25.7 37.8 26.5 37.8 C 27.3 37.9 28.3 38.1 28.6 38.2 C 28.9 38.4 29.2 38.3 29.3 38.1 C 29.4 37.9 30.0 37.2 30.0 37.2 C 30.0 37.2 30.5 37.1 30.7 37.2 C 30.8 37.4 30.8 37.9 30.7 38.1 C 30.6 38.2 30.6 38.7 30.9 38.8 C 31.1 39.0 32.4 39.7 32.7 39.5 C 32.9 39.3 32.9 38.9 33.1 38.8 C 33.3 38.8 34.2 38.9 34.2 39.2 C 34.3 39.4 34.1 39.9 34.4 39.9 C 34.7 39.9 35.2 40.1 35.2 40.0 C 35.2 39.9 35.4 39.8 35.5 39.5 C 35.6 39.2 36.1 39.1 36.3 39.0 C 36.4 38.9 36.8 38.9 36.8 38.9 C 37.0 39.1 37.1 39.2 37.3 39.4 C 37.3 39.4 36.9 39.9 36.7 39.9 C 36.5 40.0 36.7 40.4 36.9 40.4 C 37.1 40.5 38.1 40.6 38.1 40.6 C 38.2 40.2 38.3 39.9 38.4 39.5 C 38.6 39.4 38.9 39.4 39.2 39.4 C 39.2 39.4 38.8 40.7 39.3 40.8 C 39.8 40.9 40.4 41.0 40.4 41.0 C 40.4 41.0 41.0 40.5 41.2 40.5 C 41.3 40.5 41.6 39.3 41.6 39.3 C 41.6 38.8 41.6 38.4 41.7 37.9 C 41.7 37.9 41.1 37.4 40.8 37.5 C 40.4 37.6 40.6 38.2 40.5 38.4 C 40.4 38.6 39.9 38.7 39.9 38.7 C 39.7 38.5 39.5 38.2 39.3 37.9 C 39.3 37.9 39.2 37.6 39.0 37.3 C 38.8 37.1 38.1 36.8 37.9 36.9 C 37.6 36.9 37.4 37.2 37.1 37.4 C 36.7 37.6 36.7 38.0 36.5 37.6 C 36.2 37.2 36.1 36.8 36.0 36.8 C 35.8 36.8 35.0 37.1 35.0 37.1 C 34.8 37.2 34.6 37.2 34.4 37.3 C 34.4 37.3 33.9 37.4 33.8 37.1 C 33.8 36.9 32.7 37.0 32.7 37.0 C 32.7 37.0 33.0 36.2 32.8 36.0 C 32.6 35.8 32.2 35.5 31.8 35.6 C 31.3 35.6 30.9 36.3 30.9 36.3 C 30.8 36.1 30.7 35.9 30.6 35.7 C 30.3 35.5 29.9 35.4 29.6 35.2 C 29.6 35.2 28.3 35.0 28.3 35.1 C 28.3 35.3 28.3 36.0 28.2 36.1 C 28.0 36.3 27.1 36.3 27.1 36.1 C 27.0 35.8 26.4 35.0 26.4 35.0 C 26.4 35.0 25.9 34.4 25.4 34.3 C 25.0 34.1 24.2 34.1 24.0 34.2 C 23.8 34.3 23.0 34.6 23.0 34.6 C 22.9 34.3 22.7 34.1 22.6 33.8 C 22.6 33.8 21.4 33.8 20.5 32.9 C 20.5 32.9 20.5 32.9 20.5 32.9 Z M 42.1 37.6 C 41.1 37.5 41.4 40.2 41.7 40.8 C 42.0 41.4 42.7 41.1 43.4 41.3 C 44.0 41.5 43.9 40.6 44.4 40.5 C 44.8 40.3 44.6 40.8 44.7 41.2 C 44.8 41.6 45.9 41.4 46.5 41.5 C 47.2 41.7 47.9 40.9 48.5 40.9 C 49.0 40.9 48.1 40.4 49.0 40.5 C 49.9 40.7 49.4 41.1 48.3 41.3 C 47.2 41.4 48.6 41.8 49.2 42.0 C 49.8 42.2 50.8 41.9 51.3 42.0 C 51.8 42.1 51.2 41.3 51.9 41.4 C 52.6 41.5 52.2 42.2 52.9 42.4 C 53.5 42.5 53.5 41.9 53.9 41.8 C 54.3 41.7 54.2 42.1 54.4 42.1 C 54.7 42.2 55.2 42.5 55.9 42.4 C 56.5 42.3 56.4 42.1 56.7 42.1 C 57.0 42.0 57.5 42.1 57.5 42.1 C 57.5 42.3 57.6 42.5 57.6 42.8 C 57.6 42.8 58.8 42.9 59.2 43.0 C 59.5 43.1 60.4 42.9 60.2 42.7 C 60.0 42.5 60.8 42.2 61.0 42.3 C 61.2 42.4 61.8 42.8 62.2 43.0 C 62.6 43.1 62.6 41.4 62.6 41.2 C 62.6 40.9 62.9 40.0 62.6 39.9 C 62.2 39.8 61.9 40.1 62.0 39.9 C 62.1 39.6 60.9 39.8 60.6 39.7 C 60.3 39.7 59.9 40.3 59.9 40.3 C 59.9 40.3 59.6 40.8 59.1 40.8 C 58.6 40.8 58.5 39.7 58.5 39.7 C 58.5 39.7 58.0 39.4 57.4 39.4 C 56.8 39.4 56.0 40.2 55.9 40.4 C 55.7 40.6 55.8 39.8 55.4 39.6 C 55.0 39.5 54.4 39.2 54.3 39.2 C 54.1 39.2 53.7 39.7 53.7 39.7 C 53.7 39.7 52.9 40.0 52.8 40.0 C 52.6 40.0 53.0 39.2 53.0 39.2 C 53.0 39.2 51.4 38.8 51.1 38.7 C 50.8 38.6 50.2 38.8 50.0 38.8 C 49.8 38.8 49.3 39.7 49.0 39.6 C 48.7 39.5 49.4 39.0 49.1 38.9 C 48.7 38.7 48.1 38.5 48.0 38.4 C 47.8 38.4 47.5 38.7 47.2 38.7 C 46.9 38.7 46.5 39.4 46.0 39.4 C 45.6 39.3 45.4 38.8 45.2 38.7 C 45.1 38.6 45.1 37.9 44.7 37.9 C 44.4 37.8 44.6 38.3 44.2 38.2 C 43.9 38.2 43.8 38.7 43.5 38.5 C 43.2 38.4 43.5 37.6 43.1 37.7 C 42.9 37.7 43.1 37.7 42.1 37.6 C 42.1 37.6 42.1 37.6 42.1 37.6 Z M 64.9 40.8 C 64.7 40.9 64.5 40.4 63.9 40.2 C 63.3 40.0 62.6 39.9 62.7 40.2 C 62.8 40.6 63.0 40.8 62.6 41.2 C 62.3 41.5 61.9 42.2 62.3 42.5 C 62.7 42.8 64.3 43.6 64.9 43.3 C 65.5 43.0 65.7 42.8 66.1 42.6 C 66.5 42.4 66.2 43.2 66.2 43.2 C 66.2 43.2 67.1 43.3 67.8 43.4 C 68.4 43.5 69.2 43.6 69.3 43.5 C 69.4 43.3 69.7 43.1 69.7 43.1 C 69.7 43.1 70.0 43.5 70.5 43.6 C 71.0 43.7 70.9 43.4 70.8 43.3 C 70.7 43.1 70.1 42.5 70.4 42.5 C 70.6 42.5 71.2 43.4 71.6 43.5 C 71.9 43.5 72.7 43.5 72.7 43.5 C 72.7 43.5 72.7 43.1 72.7 43.0 C 72.8 42.9 73.6 42.9 73.7 43.0 C 73.7 43.2 73.6 43.7 74.0 43.7 C 75.3 43.8 75.1 42.9 75.2 42.9 C 75.4 42.9 75.3 43.6 75.6 43.7 C 75.9 43.8 78.4 43.8 78.5 43.6 C 78.7 43.5 79.5 44.1 79.9 43.7 C 80.2 43.3 80.4 43.2 80.4 43.0 C 80.5 42.9 81.0 42.3 81.2 42.5 C 81.4 42.8 80.4 43.6 80.7 43.8 C 81.0 44.0 82.6 44.1 82.9 43.9 C 83.2 43.6 83.4 42.9 83.6 42.9 C 83.8 42.9 84.7 43.8 84.7 43.7 C 84.8 43.5 84.9 42.8 84.9 42.7 C 84.9 42.6 85.2 41.3 85.1 41.1 C 84.9 41.0 83.9 40.5 84.1 40.8 C 84.2 41.2 84.4 41.6 84.1 41.8 C 83.7 42.0 83.6 42.0 83.5 41.8 C 83.4 41.7 83.6 41.6 83.0 41.3 C 82.5 41.1 82.8 40.8 82.3 40.8 C 81.8 40.8 81.3 40.9 81.3 41.2 C 81.4 41.4 80.8 41.8 80.5 41.8 C 80.1 41.8 80.7 41.2 79.6 40.9 C 78.4 40.6 77.7 40.5 77.4 40.8 C 77.0 41.0 76.9 41.7 76.4 41.4 C 75.9 41.0 76.2 40.9 75.4 40.9 C 74.7 40.8 74.4 41.4 73.9 41.4 C 73.4 41.4 73.3 41.4 73.3 41.4 C 73.3 41.4 73.6 40.6 72.5 40.5 C 71.5 40.4 71.3 40.3 71.5 40.9 C 71.6 41.5 70.8 41.5 70.8 41.1 C 70.8 40.7 70.2 40.4 69.8 40.4 C 69.5 40.3 69.3 41.3 69.2 41.3 C 69.0 41.3 68.6 41.3 68.8 40.9 C 69.0 40.6 68.6 40.6 68.3 40.4 C 67.9 40.3 67.0 40.3 67.0 40.5 C 67.0 40.7 67.4 41.4 66.8 41.0 C 66.2 40.6 66.0 40.1 65.4 40.1 C 64.8 40.1 65.3 40.7 64.9 40.8 C 64.9 40.8 64.9 40.8 64.9 40.8 Z M 86.0 40.9 C 85.4 40.6 84.9 41.0 85.0 41.4 C 85.1 41.8 85.2 42.7 85.0 43.0 C 84.8 43.3 84.2 44.0 85.2 44.1 C 86.1 44.3 86.3 44.0 86.3 43.8 C 86.3 43.5 86.5 42.5 86.8 42.6 C 87.0 42.7 87.3 43.0 87.4 43.1 C 87.4 43.3 87.8 44.2 88.3 44.1 C 88.7 44.0 89.2 43.7 89.2 43.7 C 89.4 43.7 89.6 43.6 89.9 43.6 C 89.9 43.6 90.5 44.2 91.0 44.1 C 91.6 43.9 92.1 43.9 92.5 44.0 C 92.9 44.0 93.3 43.9 93.4 43.7 C 93.4 43.5 93.9 42.6 93.9 42.6 C 93.9 42.6 94.5 42.4 94.8 42.5 C 95.0 42.6 95.1 43.1 95.0 43.3 C 95.0 43.5 95.1 43.9 95.4 44.0 C 95.8 44.1 97.5 44.5 97.8 44.3 C 98.0 44.0 97.9 43.6 98.1 43.5 C 98.3 43.4 99.4 43.3 99.5 43.6 C 99.6 43.8 99.6 44.3 99.9 44.2 C 100.2 44.2 100.9 44.3 100.9 44.2 C 100.9 44.0 101.1 43.9 101.1 43.6 C 101.1 43.3 101.7 43.1 101.8 42.9 C 102.0 42.8 102.5 42.7 102.5 42.7 C 102.7 42.9 102.9 43.0 103.1 43.2 C 103.1 43.2 102.8 43.7 102.6 43.8 C 102.4 43.9 102.7 44.2 102.9 44.2 C 103.1 44.3 104.3 44.1 104.3 44.1 C 104.3 43.7 104.3 43.4 104.3 43.0 C 104.6 42.9 104.9 42.8 105.2 42.7 C 105.2 42.7 105.1 44.0 105.7 44.0 C 106.3 44.0 107.0 44.0 107.0 44.0 C 107.0 44.0 107.6 43.4 107.7 43.4 C 107.9 43.3 107.9 42.1 107.9 42.1 C 107.8 41.6 107.7 41.2 107.6 40.7 C 107.6 40.7 106.9 40.3 106.6 40.5 C 106.2 40.7 106.5 41.2 106.5 41.4 C 106.4 41.7 105.9 41.9 105.9 41.9 C 105.6 41.7 105.3 41.4 105.1 41.2 C 105.1 41.2 104.8 41.0 104.6 40.7 C 104.3 40.5 103.4 40.4 103.2 40.5 C 102.9 40.6 102.7 40.9 102.4 41.2 C 102.0 41.4 102.1 41.9 101.7 41.5 C 101.3 41.2 101.1 40.9 100.9 40.9 C 100.7 40.9 99.9 41.4 99.9 41.4 C 99.7 41.5 99.5 41.6 99.2 41.7 C 99.2 41.7 98.6 42.0 98.5 41.7 C 98.4 41.4 97.2 41.8 97.2 41.8 C 97.2 41.8 97.3 40.9 97.0 40.8 C 96.7 40.7 96.1 40.5 95.6 40.6 C 95.1 40.8 94.8 41.6 94.8 41.6 C 94.6 41.4 94.4 41.2 94.3 41.0 C 93.8 40.9 93.3 40.9 92.8 40.8 C 92.8 40.8 91.7 40.9 91.7 41.0 C 91.7 41.2 91.9 41.9 91.8 42.0 C 91.7 42.2 91.2 42.5 91.1 42.2 C 91.0 42.0 90.5 41.4 90.5 41.4 C 90.5 41.4 90.1 40.9 89.7 40.9 C 89.4 40.8 88.9 41.1 88.8 41.2 C 88.7 41.4 88.1 41.9 88.1 41.9 C 88.0 41.7 87.9 41.4 87.7 41.2 C 87.7 41.2 86.9 41.5 86.0 40.9 C 86.0 40.9 86.0 40.9 86.0 40.9 Z M 108.1 40.3 C 107.0 40.4 107.9 43.0 108.3 43.5 C 108.8 44.0 109.5 43.6 110.3 43.7 C 111.0 43.7 110.7 42.9 111.1 42.6 C 111.6 42.4 111.4 42.9 111.7 43.3 C 111.9 43.7 113.0 43.3 113.7 43.3 C 114.4 43.2 115.0 42.3 115.5 42.2 C 116.1 42.1 115.0 41.8 116.0 41.8 C 117.0 41.7 116.6 42.3 115.5 42.6 C 114.3 43.0 115.9 43.1 116.6 43.1 C 117.2 43.2 118.2 42.7 118.7 42.7 C 119.2 42.7 118.5 42.1 119.2 42.1 C 119.9 42.0 119.6 42.7 120.3 42.8 C 121.0 42.8 120.9 42.2 121.2 42.0 C 121.6 41.8 121.5 42.2 121.8 42.2 C 122.1 42.2 122.6 42.4 123.3 42.2 C 123.9 42.0 123.7 41.8 124.0 41.7 C 124.3 41.6 124.8 41.6 124.8 41.6 C 124.9 41.8 125.0 42.0 125.0 42.2 C 125.0 42.2 126.2 42.1 126.6 42.2 C 126.9 42.2 127.7 41.8 127.4 41.7 C 127.2 41.5 128.0 41.0 128.1 41.1 C 128.3 41.2 129.0 41.4 129.4 41.5 C 129.8 41.6 129.5 39.9 129.4 39.7 C 129.4 39.5 129.5 38.5 129.2 38.4 C 128.8 38.4 128.6 38.8 128.6 38.5 C 128.6 38.3 127.6 38.6 127.3 38.7 C 127.0 38.7 126.8 39.4 126.8 39.4 C 126.8 39.4 126.5 39.9 126.1 40.0 C 125.6 40.1 125.3 39.0 125.3 39.0 C 125.3 39.0 124.7 38.9 124.1 39.0 C 123.6 39.1 123.0 40.0 122.9 40.2 C 122.8 40.5 122.7 39.6 122.3 39.6 C 121.9 39.5 121.3 39.3 121.1 39.4 C 120.9 39.5 120.7 40.0 120.7 40.0 C 120.7 40.0 119.9 40.4 119.7 40.5 C 119.6 40.5 119.8 39.6 119.8 39.6 C 119.8 39.6 118.1 39.6 117.8 39.5 C 117.5 39.5 116.9 39.8 116.7 39.8 C 116.5 39.9 116.2 40.9 115.8 40.8 C 115.5 40.8 116.1 40.2 115.8 40.1 C 115.4 40.0 114.7 39.9 114.5 39.9 C 114.4 39.9 114.1 40.3 113.8 40.4 C 113.5 40.4 113.2 41.2 112.7 41.2 C 112.2 41.3 111.9 40.8 111.7 40.7 C 111.5 40.7 111.3 40.0 111.0 40.0 C 110.6 40.0 110.9 40.5 110.5 40.5 C 110.1 40.5 110.2 41.0 109.8 40.9 C 109.4 40.8 109.6 40.0 109.2 40.2 C 109.0 40.2 109.2 40.2 108.1 40.3 C 108.1 40.3 108.1 40.3 108.1 40.3 Z M 130.0 38.4 C 129.5 38.1 129.1 38.6 129.2 39.0 C 129.3 39.4 129.6 40.3 129.5 40.6 C 129.3 40.9 128.8 41.7 129.7 41.7 C 130.6 41.7 130.8 41.4 130.7 41.2 C 130.7 40.9 130.7 39.9 131.0 40.0 C 131.2 40.0 131.5 40.3 131.6 40.4 C 131.6 40.5 132.1 41.5 132.5 41.3 C 132.9 41.1 133.2 40.7 133.2 40.7 C 133.4 40.7 133.7 40.6 133.9 40.6 C 133.9 40.6 134.5 41.1 134.9 40.9 C 135.4 40.7 135.9 40.6 136.2 40.6 C 136.6 40.6 136.9 40.5 136.9 40.2 C 136.9 40.0 137.2 39.1 137.2 39.1 C 137.2 39.1 137.7 38.8 137.9 38.9 C 138.2 39.0 138.3 39.4 138.3 39.6 C 138.3 39.8 138.4 40.3 138.7 40.3 C 139.1 40.3 140.6 40.5 140.7 40.2 C 140.9 39.9 140.8 39.6 140.9 39.4 C 141.1 39.3 142.0 39.1 142.1 39.3 C 142.2 39.5 142.3 40.0 142.5 39.9 C 142.8 39.8 143.3 39.9 143.3 39.7 C 143.3 39.6 143.4 39.4 143.4 39.2 C 143.4 38.9 143.8 38.6 143.9 38.4 C 144.0 38.2 144.4 38.1 144.4 38.1 C 144.6 38.2 144.8 38.3 145.0 38.5 C 145.0 38.5 144.8 39.0 144.7 39.1 C 144.5 39.3 144.8 39.5 145.0 39.5 C 145.2 39.6 146.1 39.3 146.1 39.3 C 146.1 38.9 146.0 38.5 145.9 38.1 C 146.2 38.0 146.4 37.9 146.6 37.7 C 146.6 37.7 146.8 39.1 147.3 39.0 C 147.7 38.9 148.3 38.8 148.3 38.8 C 148.3 38.8 148.6 38.1 148.7 38.1 C 148.8 38.0 148.6 36.8 148.6 36.8 C 148.5 36.4 148.3 35.9 148.2 35.5 C 148.2 35.5 147.5 35.2 147.3 35.4 C 147.0 35.7 147.4 36.1 147.4 36.3 C 147.4 36.6 147.0 36.9 147.0 36.9 C 146.7 36.7 146.5 36.5 146.2 36.3 C 146.2 36.3 146.0 36.1 145.7 35.9 C 145.5 35.7 144.8 35.7 144.6 35.9 C 144.4 36.0 144.2 36.3 144.0 36.6 C 143.8 36.9 144.0 37.3 143.6 37.0 C 143.2 36.8 143.0 36.5 142.8 36.5 C 142.7 36.5 142.1 37.1 142.1 37.1 C 141.9 37.2 141.7 37.4 141.6 37.5 C 141.6 37.5 141.1 37.9 141.0 37.6 C 140.9 37.3 139.9 37.8 139.9 37.8 C 139.9 37.8 139.8 37.0 139.5 36.9 C 139.2 36.8 138.8 36.7 138.4 36.9 C 138.0 37.1 137.8 38.0 137.8 38.0 C 137.6 37.8 137.4 37.6 137.3 37.4 C 136.9 37.4 136.4 37.5 136.0 37.5 C 136.0 37.5 135.1 37.7 135.1 37.8 C 135.1 37.9 135.3 38.6 135.3 38.8 C 135.3 39.0 134.8 39.3 134.7 39.1 C 134.6 38.9 134.1 38.3 134.1 38.3 C 134.1 38.3 133.6 37.9 133.4 37.9 C 133.1 37.9 132.6 38.2 132.6 38.4 C 132.5 38.5 132.1 39.1 132.1 39.1 C 131.9 38.9 131.8 38.7 131.6 38.5 C 131.6 38.5 130.9 38.9 130.0 38.4 C 130.0 38.4 130.0 38.4 130.0 38.4 Z M 130.0 38.4 " fill="#C03520"></path></g></svg>