<?xml version="1.0" encoding="UTF-8" standalone="no"?><svg xmlns="http://www.w3.org/2000/svg" xmlns:xlink="http://www.w3.org/1999/xlink" clip-rule="evenodd" stroke-miterlimit="4.00" viewBox="0 0 177 47"><desc>SVG generated by Keynote</desc><defs></defs><g transform="matrix(1.00, 0.00, -0.00, -1.00, 0.0, 47.0)"><path d="M 151.9 35.6 C 151.6 35.8 151.2 35.4 150.3 35.5 C 149.3 35.6 148.1 35.8 148.4 36.1 C 148.7 36.3 149.1 36.5 148.7 37.0 C 148.3 37.5 147.9 38.3 148.6 38.4 C 149.4 38.5 152.1 38.5 152.8 38.0 C 153.5 37.4 153.7 37.2 154.2 36.8 C 154.7 36.4 154.6 37.3 154.6 37.3 C 154.6 37.3 155.9 37.0 156.8 36.8 C 157.7 36.5 158.7 36.2 158.8 36.1 C 158.8 35.9 159.0 35.5 159.0 35.5 C 159.0 35.5 159.6 35.7 160.2 35.6 C 160.8 35.5 160.6 35.3 160.4 35.2 C 160.2 35.0 159.4 34.8 159.6 34.7 C 159.9 34.6 160.9 35.1 161.3 35.0 C 161.8 34.9 162.6 34.5 162.6 34.5 C 162.6 34.5 162.4 34.2 162.4 34.0 C 162.5 33.9 163.3 33.5 163.4 33.6 C 163.5 33.8 163.6 34.2 164.0 34.1 C 165.3 33.6 164.7 32.9 164.8 32.8 C 164.9 32.7 165.2 33.4 165.5 33.3 C 165.9 33.3 167.9 32.1 168.0 31.9 C 168.0 31.6 168.9 31.8 169.0 31.3 C 169.0 30.7 169.0 30.6 169.0 30.4 C 169.0 30.3 168.9 29.6 169.2 29.7 C 169.5 29.8 169.3 30.9 169.6 30.9 C 170.0 30.9 171.0 30.2 171.0 29.9 C 171.0 29.5 170.7 28.9 170.8 28.8 C 170.9 28.7 171.9 28.9 171.9 28.8 C 171.8 28.7 171.4 28.1 171.3 28.0 C 171.2 27.9 170.4 26.9 170.2 26.9 C 170.0 26.8 169.3 26.9 169.6 27.1 C 169.9 27.3 170.3 27.5 170.3 27.8 C 170.2 28.1 170.1 28.2 170.0 28.1 C 169.9 28.0 169.9 27.8 169.5 27.9 C 169.0 27.9 169.0 27.6 168.7 27.8 C 168.5 28.0 168.3 28.3 168.5 28.5 C 168.6 28.7 168.5 29.3 168.3 29.4 C 168.0 29.5 168.1 28.8 167.2 29.1 C 166.3 29.3 165.7 29.6 165.6 29.9 C 165.4 30.3 165.7 31.0 165.1 30.9 C 164.5 30.9 164.7 30.6 164.0 30.9 C 163.4 31.2 163.4 31.9 162.9 32.1 C 162.5 32.3 162.3 32.3 162.3 32.3 C 162.3 32.3 162.3 31.5 161.2 31.9 C 160.1 32.3 159.8 32.3 160.2 32.7 C 160.7 33.2 159.8 33.6 159.6 33.2 C 159.4 32.9 158.6 32.9 158.2 33.0 C 157.7 33.1 158.0 34.1 157.8 34.2 C 157.6 34.3 157.1 34.4 157.2 34.0 C 157.3 33.6 156.7 33.7 156.3 33.7 C 155.8 33.7 154.6 34.2 154.7 34.4 C 154.8 34.5 155.6 35.0 154.6 34.9 C 153.6 34.9 153.3 34.4 152.4 34.7 C 151.5 35.0 152.5 35.3 151.9 35.6 C 151.9 35.6 151.9 35.6 151.9 35.6 Z M 170.1 26.5 C 169.7 27.0 171.9 28.5 172.5 28.7 C 173.1 28.8 173.2 28.1 173.6 27.8 C 174.0 27.4 173.2 27.1 173.1 26.7 C 173.1 26.4 173.5 26.7 173.9 26.8 C 174.3 26.9 174.3 26.0 174.5 25.6 C 174.7 25.2 173.9 24.6 173.9 24.3 C 173.9 23.9 173.4 24.4 173.5 23.9 C 173.6 23.4 174.1 23.7 174.3 24.4 C 174.4 25.1 174.8 24.2 175.0 23.8 C 175.1 23.4 174.6 22.7 174.6 22.4 C 174.6 22.1 174.0 22.6 173.9 22.2 C 173.8 21.8 174.6 21.8 174.5 21.3 C 174.4 20.8 173.9 21.1 173.6 21.0 C 173.4 20.8 173.8 20.7 173.7 20.5 C 173.7 20.3 173.7 19.9 173.3 19.6 C 172.9 19.3 172.8 19.5 172.6 19.4 C 172.5 19.3 172.2 19.0 172.2 19.0 C 172.4 18.8 172.5 18.7 172.7 18.5 C 172.7 18.5 172.1 17.8 171.9 17.5 C 171.7 17.3 171.0 17.1 171.1 17.3 C 171.1 17.5 170.3 17.5 170.3 17.3 C 170.2 17.1 170.0 16.6 169.8 16.2 C 169.6 15.9 168.7 17.4 168.6 17.6 C 168.4 17.8 167.8 18.4 167.9 18.7 C 168.1 18.9 168.5 18.7 168.3 18.9 C 168.1 19.1 168.9 19.4 169.0 19.5 C 169.2 19.6 169.8 19.3 169.8 19.3 C 169.8 19.3 170.3 19.0 170.5 19.3 C 170.8 19.5 170.1 20.3 170.1 20.3 C 170.1 20.3 170.2 20.7 170.4 20.9 C 170.6 21.1 171.5 20.9 171.7 20.8 C 171.9 20.8 171.2 21.2 171.3 21.4 C 171.3 21.6 171.2 22.0 171.3 22.0 C 171.3 22.1 171.9 22.0 171.9 22.0 C 171.9 22.0 172.3 22.2 172.3 22.3 C 172.4 22.3 171.6 22.5 171.6 22.5 C 171.6 22.5 171.5 23.1 171.4 23.2 C 171.4 23.3 171.6 23.4 171.7 23.5 C 171.7 23.6 172.7 23.8 172.6 23.9 C 172.5 24.1 172.0 23.7 171.9 23.8 C 171.8 24.0 171.5 24.1 171.5 24.2 C 171.5 24.3 171.8 24.4 171.8 24.6 C 171.8 24.7 172.5 25.1 172.4 25.3 C 172.3 25.5 171.8 25.4 171.7 25.5 C 171.6 25.5 171.0 25.2 170.9 25.4 C 170.8 25.5 171.2 25.6 171.1 25.8 C 171.0 25.9 171.4 26.2 171.2 26.3 C 171.0 26.4 170.5 25.8 170.4 26.0 C 170.4 26.1 170.5 26.0 170.1 26.5 C 170.1 26.5 170.1 26.5 170.1 26.5 Z M 167.4 18.2 C 167.5 18.7 168.1 18.5 168.2 18.2 C 168.4 17.9 168.8 17.0 169.1 16.9 C 169.4 16.7 170.3 16.5 169.7 15.9 C 169.1 15.3 168.8 15.4 168.6 15.6 C 168.5 15.8 167.8 16.6 167.7 16.4 C 167.6 16.2 167.5 15.9 167.5 15.7 C 167.5 15.6 167.7 14.6 167.3 14.5 C 166.8 14.4 166.3 14.4 166.3 14.4 C 166.1 14.3 165.9 14.2 165.6 14.1 C 165.6 14.1 165.3 13.3 164.8 13.2 C 164.2 13.1 163.6 12.9 163.2 12.7 C 162.9 12.4 162.4 12.4 162.3 12.5 C 162.1 12.7 161.3 13.3 161.3 13.3 C 161.3 13.3 160.5 13.3 160.3 13.0 C 160.1 12.8 160.1 12.3 160.3 12.2 C 160.4 12.0 160.5 11.6 160.1 11.3 C 159.7 11.1 157.8 10.0 157.3 10.1 C 156.9 10.3 156.9 10.7 156.6 10.7 C 156.3 10.7 154.9 10.3 154.8 10.0 C 154.7 9.8 155.0 9.3 154.5 9.2 C 154.1 9.2 153.2 8.8 153.2 8.9 C 153.1 9.0 152.8 9.1 152.7 9.4 C 152.6 9.6 151.6 9.6 151.4 9.7 C 151.1 9.8 150.4 9.6 150.4 9.6 C 150.1 9.4 149.8 9.2 149.5 8.9 C 149.5 8.9 150.2 8.6 150.5 8.6 C 150.8 8.6 150.4 8.1 150.2 8.0 C 149.9 7.9 148.4 7.6 148.4 7.6 C 148.3 8.0 148.2 8.4 148.1 8.8 C 147.9 8.8 147.6 8.8 147.4 8.8 C 147.4 8.8 147.8 7.5 147.3 7.4 C 146.9 7.3 146.3 7.2 146.3 7.2 C 146.3 7.2 145.7 7.6 145.6 7.6 C 145.4 7.7 145.1 8.8 145.1 8.8 C 145.1 9.3 145.0 9.7 145.0 10.2 C 145.0 10.2 145.4 10.8 145.8 10.7 C 146.1 10.5 146.0 10.0 146.1 9.8 C 146.2 9.6 146.7 9.4 146.7 9.4 C 146.8 9.7 147.0 10.0 147.1 10.3 C 147.1 10.3 147.2 10.6 147.4 10.9 C 147.5 11.1 148.3 11.5 148.7 11.5 C 149.1 11.5 149.6 11.2 150.1 11.1 C 150.6 11.0 150.6 10.6 151.1 11.1 C 151.6 11.5 151.8 11.9 152.0 12.0 C 152.3 12.1 153.6 11.9 153.6 11.9 C 153.9 11.9 154.3 11.9 154.6 11.9 C 154.6 11.9 155.5 11.9 155.5 12.2 C 155.5 12.5 157.2 12.7 157.2 12.7 C 157.2 12.7 156.8 13.5 157.2 13.7 C 157.5 14.0 158.0 14.3 158.7 14.4 C 159.3 14.5 160.0 13.9 160.0 13.9 C 160.1 14.2 160.2 14.4 160.3 14.7 C 160.8 14.9 161.2 15.2 161.7 15.4 C 161.7 15.4 162.8 15.8 162.8 15.7 C 162.9 15.6 163.1 14.9 163.2 14.7 C 163.3 14.6 164.0 14.6 163.9 14.9 C 163.9 15.1 164.1 15.9 164.1 15.9 C 164.1 15.9 164.3 16.5 164.6 16.6 C 164.8 16.8 165.3 16.8 165.5 16.8 C 165.7 16.7 166.3 16.5 166.3 16.5 C 166.3 16.7 166.3 17.0 166.3 17.2 C 166.3 17.2 167.1 17.3 167.4 18.2 C 167.4 18.2 167.4 18.2 167.4 18.2 Z M 144.5 10.5 C 145.4 10.7 145.4 8.0 145.1 7.4 C 144.9 6.8 144.2 7.0 143.6 6.7 C 143.0 6.5 143.0 7.4 142.6 7.6 C 142.2 7.7 142.4 7.2 142.3 6.8 C 142.3 6.4 141.2 6.5 140.6 6.4 C 140.1 6.3 139.3 7.0 138.8 7.0 C 138.3 7.0 139.1 7.5 138.3 7.3 C 137.4 7.1 137.9 6.7 139.0 6.6 C 140.0 6.5 138.7 6.0 138.1 5.9 C 137.6 5.7 136.6 5.9 136.2 5.8 C 135.7 5.7 136.2 6.4 135.5 6.3 C 134.9 6.2 135.3 5.6 134.7 5.4 C 134.1 5.2 134.0 5.8 133.7 5.9 C 133.3 6.0 133.5 5.6 133.2 5.5 C 132.9 5.4 132.5 5.2 131.8 5.3 C 131.2 5.3 131.3 5.5 131.0 5.5 C 130.8 5.5 130.3 5.5 130.3 5.5 C 130.2 5.3 130.2 5.0 130.2 4.8 C 130.2 4.8 129.1 4.6 128.7 4.5 C 128.4 4.4 127.6 4.6 127.8 4.8 C 128.0 4.9 127.1 5.3 127.0 5.2 C 126.8 5.1 126.2 4.6 125.8 4.5 C 125.5 4.3 125.4 6.0 125.4 6.2 C 125.3 6.5 125.0 7.4 125.3 7.5 C 125.7 7.6 126.0 7.3 125.9 7.6 C 125.8 7.8 126.9 7.7 127.2 7.7 C 127.5 7.7 127.9 7.2 127.9 7.2 C 127.9 7.2 128.2 6.7 128.7 6.7 C 129.2 6.8 129.2 7.9 129.2 7.9 C 129.2 7.9 129.7 8.1 130.3 8.2 C 130.9 8.2 131.6 7.4 131.7 7.2 C 131.9 7.0 131.8 7.8 132.1 8.0 C 132.5 8.2 133.1 8.5 133.2 8.5 C 133.4 8.4 133.8 7.9 133.8 7.9 C 133.8 7.9 134.5 7.7 134.7 7.7 C 134.9 7.8 134.4 8.5 134.4 8.5 C 134.4 8.5 135.9 9.0 136.2 9.1 C 136.5 9.2 137.0 9.1 137.2 9.0 C 137.4 9.0 137.9 8.1 138.2 8.3 C 138.5 8.4 137.8 8.8 138.1 9.0 C 138.4 9.1 139.0 9.4 139.1 9.4 C 139.3 9.5 139.5 9.2 139.8 9.2 C 140.1 9.2 140.6 8.5 141.0 8.6 C 141.4 8.7 141.6 9.1 141.7 9.3 C 141.8 9.4 141.8 10.0 142.1 10.1 C 142.4 10.2 142.3 9.7 142.6 9.8 C 142.9 9.9 143.0 9.4 143.3 9.5 C 143.6 9.7 143.2 10.4 143.6 10.4 C 143.8 10.4 143.6 10.4 144.5 10.5 C 144.5 10.5 144.5 10.5 144.5 10.5 Z M 124.5 7.3 C 124.9 7.7 125.4 7.3 125.4 7.0 C 125.4 6.6 125.3 5.6 125.5 5.3 C 125.7 5.1 126.4 4.5 125.5 4.2 C 124.7 4.0 124.4 4.2 124.4 4.5 C 124.4 4.7 124.1 5.7 123.9 5.6 C 123.6 5.5 123.4 5.2 123.4 5.0 C 123.3 4.9 123.1 3.9 122.6 4.0 C 122.2 4.0 121.8 4.3 121.8 4.3 C 121.5 4.3 121.3 4.3 121.1 4.3 C 121.1 4.3 120.5 3.6 120.0 3.7 C 119.5 3.8 119.0 3.7 118.6 3.7 C 118.2 3.6 117.9 3.6 117.8 3.9 C 117.7 4.1 117.2 4.9 117.2 4.9 C 117.2 4.9 116.6 5.1 116.3 4.9 C 116.1 4.8 116.1 4.3 116.2 4.1 C 116.2 3.9 116.2 3.5 115.9 3.3 C 115.5 3.2 113.9 2.6 113.6 2.9 C 113.4 3.2 113.4 3.5 113.2 3.6 C 113.0 3.7 111.9 3.7 111.9 3.4 C 111.8 3.2 111.9 2.7 111.6 2.7 C 111.2 2.7 110.6 2.6 110.6 2.7 C 110.6 2.8 110.4 3.0 110.4 3.2 C 110.3 3.5 109.7 3.7 109.5 3.8 C 109.4 4.0 108.9 4.0 108.9 4.0 C 108.7 3.8 108.5 3.7 108.3 3.5 C 108.3 3.5 108.7 3.0 108.9 2.9 C 109.1 2.8 108.8 2.5 108.6 2.4 C 108.4 2.4 107.2 2.4 107.2 2.4 C 107.2 2.8 107.1 3.2 107.1 3.6 C 106.8 3.6 106.5 3.7 106.2 3.8 C 106.2 3.8 106.4 2.4 105.8 2.4 C 105.2 2.4 104.5 2.3 104.5 2.3 C 104.5 2.3 103.9 2.8 103.8 2.8 C 103.6 2.9 103.5 4.1 103.5 4.1 C 103.5 4.6 103.5 5.0 103.6 5.5 C 103.6 5.5 104.2 6.0 104.6 5.8 C 105.0 5.6 104.7 5.1 104.8 4.9 C 104.9 4.7 105.4 4.5 105.4 4.5 C 105.7 4.7 105.9 5.0 106.2 5.3 C 106.2 5.3 106.4 5.5 106.6 5.8 C 106.9 6.0 107.8 6.2 108.0 6.1 C 108.3 6.0 108.5 5.7 108.9 5.5 C 109.2 5.3 109.2 4.9 109.5 5.2 C 109.9 5.6 110.0 6.0 110.2 6.0 C 110.4 6.0 111.2 5.6 111.2 5.6 C 111.5 5.5 111.7 5.4 112.0 5.3 C 112.0 5.3 112.6 5.1 112.6 5.4 C 112.7 5.7 113.9 5.4 113.9 5.4 C 113.9 5.4 113.8 6.3 114.1 6.4 C 114.4 6.6 114.8 6.8 115.3 6.7 C 115.8 6.6 116.3 5.8 116.3 5.8 C 116.4 6.1 116.5 6.3 116.7 6.5 C 117.1 6.6 117.6 6.7 118.0 6.8 C 118.0 6.8 119.1 6.8 119.1 6.7 C 119.1 6.5 119.0 5.8 119.1 5.7 C 119.2 5.5 119.8 5.3 119.8 5.5 C 119.8 5.8 120.3 6.5 120.3 6.5 C 120.3 6.5 120.6 6.9 120.9 7.0 C 121.2 7.1 121.7 6.9 121.9 6.8 C 122.0 6.6 122.5 6.2 122.5 6.2 C 122.6 6.4 122.8 6.6 122.9 6.9 C 122.9 6.9 123.7 6.6 124.5 7.3 C 124.5 7.3 124.5 7.3 124.5 7.3 Z M 103.1 5.9 C 104.2 5.9 103.6 3.2 103.1 2.7 C 102.7 2.1 102.0 2.4 101.2 2.3 C 100.4 2.2 100.7 3.0 100.2 3.2 C 99.8 3.5 99.9 2.9 99.8 2.5 C 99.6 2.1 98.4 2.4 97.7 2.4 C 97.0 2.3 96.2 3.2 95.7 3.2 C 95.1 3.3 96.1 3.7 95.1 3.6 C 94.1 3.6 94.6 3.1 95.8 2.8 C 97.0 2.6 95.4 2.3 94.7 2.2 C 94.1 2.1 93.0 2.5 92.5 2.4 C 92.0 2.4 92.6 3.1 91.9 3.0 C 91.1 3.0 91.5 2.3 90.8 2.2 C 90.0 2.1 90.1 2.8 89.7 2.9 C 89.3 3.1 89.4 2.7 89.1 2.6 C 88.8 2.6 88.3 2.4 87.6 2.5 C 86.9 2.7 87.1 2.9 86.7 2.9 C 86.4 3.0 85.8 3.0 85.8 3.0 C 85.8 2.7 85.8 2.5 85.7 2.3 C 85.7 2.3 84.4 2.2 84.1 2.2 C 83.7 2.2 82.8 2.5 83.0 2.6 C 83.3 2.7 82.4 3.2 82.2 3.1 C 82.0 3.0 81.4 2.7 80.9 2.5 C 80.5 2.4 80.7 4.1 80.7 4.4 C 80.7 4.6 80.4 5.5 80.8 5.6 C 81.2 5.7 81.5 5.4 81.4 5.6 C 81.4 5.9 82.5 5.6 82.8 5.6 C 83.1 5.6 83.5 4.9 83.5 4.9 C 83.5 4.9 83.8 4.4 84.3 4.4 C 84.8 4.4 85.0 5.5 85.0 5.5 C 85.0 5.5 85.7 5.7 86.3 5.6 C 86.9 5.6 87.6 4.7 87.8 4.5 C 87.9 4.3 87.9 5.1 88.3 5.2 C 88.8 5.3 89.4 5.5 89.6 5.5 C 89.8 5.4 90.1 4.9 90.1 4.9 C 90.1 4.9 90.9 4.6 91.1 4.6 C 91.3 4.6 91.0 5.4 91.0 5.4 C 91.0 5.4 92.7 5.6 93.1 5.7 C 93.4 5.8 94.0 5.5 94.2 5.5 C 94.5 5.5 94.9 4.5 95.2 4.6 C 95.6 4.7 94.9 5.2 95.2 5.3 C 95.6 5.4 96.3 5.6 96.5 5.6 C 96.7 5.6 96.9 5.3 97.3 5.3 C 97.6 5.2 98.0 4.5 98.5 4.5 C 99.0 4.5 99.3 5.0 99.5 5.1 C 99.6 5.2 99.8 5.8 100.1 5.9 C 100.5 5.9 100.3 5.4 100.6 5.4 C 101.0 5.5 101.0 5.0 101.4 5.1 C 101.8 5.2 101.5 6.0 102.0 5.9 C 102.1 5.8 102.0 5.9 103.1 5.9 C 103.1 5.9 103.1 5.9 103.1 5.9 Z M 78.4 4.9 C 78.6 4.8 78.8 5.3 79.4 5.5 C 80.1 5.6 80.8 5.6 80.7 5.3 C 80.5 5.0 80.3 4.8 80.6 4.4 C 80.9 4.0 81.3 3.3 80.9 3.0 C 80.4 2.7 78.6 2.1 78.1 2.5 C 77.6 2.8 77.4 3.0 77.0 3.3 C 76.6 3.5 76.8 2.7 76.8 2.7 C 76.8 2.7 75.9 2.6 75.2 2.6 C 74.5 2.6 73.7 2.6 73.6 2.7 C 73.5 2.9 73.3 3.2 73.3 3.2 C 73.3 3.2 72.9 2.8 72.4 2.7 C 71.9 2.7 72.1 2.9 72.2 3.1 C 72.3 3.3 72.9 3.8 72.7 3.8 C 72.4 3.8 71.8 3.0 71.4 2.9 C 71.0 2.9 70.2 3.0 70.2 3.0 C 70.2 3.0 70.3 3.4 70.2 3.5 C 70.2 3.6 69.4 3.7 69.3 3.6 C 69.3 3.4 69.3 2.9 68.9 2.9 C 67.7 2.9 67.9 3.8 67.8 3.8 C 67.7 3.9 67.7 3.2 67.3 3.1 C 67.1 3.0 64.6 3.3 64.5 3.4 C 64.4 3.6 63.5 3.1 63.2 3.5 C 62.9 3.9 62.8 4.1 62.7 4.2 C 62.7 4.3 62.3 5.0 62.0 4.8 C 61.8 4.5 62.7 3.7 62.4 3.5 C 62.1 3.3 60.6 3.4 60.3 3.6 C 60.0 3.9 59.9 4.6 59.7 4.6 C 59.5 4.6 58.6 3.9 58.6 4.0 C 58.5 4.1 58.4 4.9 58.5 5.0 C 58.5 5.1 58.3 6.4 58.5 6.5 C 58.7 6.7 59.6 7.1 59.5 6.7 C 59.3 6.4 59.1 6.0 59.4 5.8 C 59.7 5.6 59.8 5.6 59.9 5.7 C 60.0 5.8 59.9 6.0 60.4 6.2 C 60.9 6.4 60.7 6.7 61.2 6.6 C 61.7 6.5 62.1 6.4 62.0 6.2 C 62.0 5.9 62.5 5.4 62.8 5.5 C 63.2 5.4 62.6 6.1 63.8 6.3 C 64.9 6.4 65.6 6.4 65.9 6.2 C 66.2 5.9 66.2 5.2 66.8 5.5 C 67.4 5.8 67.1 6.0 67.8 5.9 C 68.5 5.8 68.8 5.2 69.2 5.2 C 69.7 5.1 69.9 5.2 69.9 5.2 C 69.9 5.2 69.6 6.0 70.7 6.0 C 71.7 6.0 72.0 6.1 71.7 5.5 C 71.5 4.9 72.3 4.8 72.3 5.2 C 72.4 5.6 73.0 5.8 73.4 5.9 C 73.7 5.9 73.8 4.9 74.0 4.8 C 74.1 4.8 74.5 4.9 74.4 5.2 C 74.2 5.5 74.6 5.6 75.0 5.7 C 75.3 5.8 76.3 5.7 76.3 5.5 C 76.2 5.3 75.7 4.6 76.4 5.0 C 77.1 5.3 77.3 5.8 77.9 5.7 C 78.5 5.7 78.0 5.1 78.4 4.9 C 78.4 4.9 78.4 4.9 78.4 4.9 Z M 57.7 6.8 C 58.2 7.1 58.6 6.6 58.5 6.3 C 58.4 5.9 58.2 5.0 58.3 4.7 C 58.5 4.4 59.0 3.6 58.1 3.6 C 57.2 3.5 57.0 3.8 57.0 4.0 C 57.1 4.3 57.0 5.3 56.7 5.2 C 56.5 5.2 56.2 4.9 56.1 4.8 C 56.1 4.6 55.6 3.7 55.2 3.9 C 54.8 4.1 54.4 4.4 54.4 4.4 C 54.2 4.4 53.9 4.5 53.7 4.5 C 53.7 4.5 53.1 4.0 52.6 4.2 C 52.1 4.3 51.6 4.4 51.2 4.4 C 50.9 4.4 50.5 4.5 50.5 4.8 C 50.5 5.0 50.1 5.9 50.1 5.9 C 50.1 5.9 49.6 6.2 49.3 6.1 C 49.1 6.0 49.0 5.5 49.0 5.3 C 49.0 5.1 48.9 4.7 48.6 4.6 C 48.2 4.6 46.6 4.3 46.4 4.6 C 46.2 4.9 46.3 5.3 46.2 5.4 C 46.0 5.5 45.0 5.7 44.9 5.5 C 44.8 5.3 44.8 4.7 44.5 4.8 C 44.2 4.9 43.6 4.9 43.7 5.0 C 43.7 5.1 43.5 5.3 43.5 5.6 C 43.6 5.9 43.0 6.2 42.9 6.3 C 42.8 6.5 42.4 6.6 42.4 6.6 C 42.2 6.5 42.0 6.4 41.8 6.2 C 41.8 6.2 42.0 5.7 42.2 5.6 C 42.3 5.4 42.0 5.2 41.8 5.1 C 41.7 5.1 40.6 5.4 40.6 5.4 C 40.6 5.8 40.7 6.1 40.7 6.5 C 40.5 6.6 40.2 6.8 40.0 6.9 C 40.0 6.9 39.9 5.5 39.4 5.6 C 38.9 5.7 38.3 5.8 38.3 5.8 C 38.3 5.8 37.9 6.4 37.7 6.5 C 37.6 6.5 37.8 7.7 37.8 7.7 C 37.9 8.2 38.0 8.6 38.1 9.1 C 38.1 9.1 38.8 9.4 39.1 9.2 C 39.4 9.0 39.0 8.5 39.0 8.3 C 39.1 8.0 39.5 7.7 39.5 7.7 C 39.8 7.9 40.0 8.1 40.3 8.4 C 40.3 8.4 40.6 8.6 40.8 8.8 C 41.1 9.0 41.9 9.0 42.1 8.8 C 42.3 8.7 42.4 8.4 42.7 8.1 C 42.9 7.8 42.8 7.4 43.2 7.7 C 43.6 8.0 43.8 8.3 44.0 8.3 C 44.1 8.3 44.8 7.7 44.8 7.7 C 45.0 7.6 45.2 7.4 45.4 7.3 C 45.4 7.3 45.9 7.0 46.0 7.2 C 46.1 7.5 47.2 7.0 47.2 7.0 C 47.2 7.0 47.2 7.9 47.5 8.0 C 47.8 8.1 48.3 8.2 48.8 8.0 C 49.2 7.8 49.5 7.0 49.5 7.0 C 49.6 7.2 49.8 7.4 50.0 7.5 C 50.4 7.6 50.8 7.6 51.3 7.6 C 51.3 7.6 52.3 7.4 52.3 7.3 C 52.3 7.1 52.1 6.5 52.1 6.3 C 52.1 6.1 52.7 5.8 52.7 6.0 C 52.8 6.2 53.4 6.8 53.4 6.8 C 53.4 6.8 53.8 7.2 54.1 7.2 C 54.4 7.2 54.9 6.9 55.0 6.8 C 55.1 6.6 55.5 6.1 55.5 6.1 C 55.7 6.3 55.8 6.5 56.0 6.7 C 56.0 6.7 56.8 6.3 57.7 6.8 C 57.7 6.8 57.7 6.8 57.7 6.8 Z M 37.8 9.6 C 38.7 9.3 37.7 6.8 37.2 6.4 C 36.7 5.9 36.1 6.4 35.5 6.4 C 34.8 6.4 35.2 7.2 34.9 7.5 C 34.6 7.8 34.6 7.3 34.4 6.9 C 34.1 6.5 33.2 7.1 32.7 7.2 C 32.1 7.2 31.7 8.2 31.2 8.4 C 30.8 8.5 31.7 8.7 30.9 8.9 C 30.1 9.0 30.4 8.4 31.2 8.0 C 32.1 7.5 30.8 7.5 30.3 7.5 C 29.7 7.6 29.0 8.1 28.6 8.2 C 28.2 8.2 29.1 8.7 27.9 9.0 C 26.8 9.2 27.2 8.4 26.1 8.6 C 24.9 8.8 25.2 9.3 24.7 9.6 C 24.2 9.9 24.2 9.5 23.8 9.6 C 23.3 9.6 22.6 9.7 21.7 10.1 C 20.8 10.5 21.1 10.6 20.7 10.8 C 20.3 10.9 19.6 11.2 19.6 11.2 C 19.5 11.0 19.3 10.8 19.2 10.6 C 19.2 10.6 17.6 11.1 17.2 11.2 C 16.7 11.3 15.8 11.9 16.2 12.0 C 16.5 12.0 15.7 12.8 15.4 12.8 C 15.2 12.7 14.4 12.7 13.9 12.8 C 13.4 12.8 14.2 14.3 14.3 14.6 C 14.3 14.8 14.5 15.7 14.9 15.7 C 15.3 15.6 15.5 15.2 15.5 15.4 C 15.5 15.7 16.6 15.0 16.9 14.9 C 17.3 14.7 17.5 14.0 17.5 14.0 C 17.5 14.0 17.6 13.3 18.2 13.1 C 18.8 12.9 19.4 13.9 19.4 13.9 C 19.4 13.9 20.2 13.8 20.9 13.5 C 21.7 13.2 22.4 12.1 22.5 11.9 C 22.6 11.6 22.8 12.4 23.4 12.4 C 24.0 12.3 25.0 12.3 25.2 12.2 C 25.5 12.1 25.8 11.4 25.8 11.4 C 25.8 11.4 26.9 10.8 27.2 10.7 C 27.5 10.6 27.2 11.5 27.2 11.5 C 27.2 11.5 29.5 11.2 29.8 11.2 C 30.1 11.2 30.4 10.9 30.6 10.8 C 30.8 10.7 30.9 9.7 31.2 9.7 C 31.5 9.8 31.0 10.4 31.4 10.5 C 31.7 10.5 32.3 10.6 32.4 10.5 C 32.6 10.5 32.7 10.1 32.9 10.0 C 33.2 9.9 33.4 9.1 33.8 9.1 C 34.2 9.0 34.5 9.4 34.7 9.4 C 34.8 9.5 35.1 10.1 35.4 10.1 C 35.7 10.0 35.4 9.6 35.7 9.6 C 36.0 9.5 35.9 9.0 36.3 9.1 C 36.6 9.1 36.5 9.9 36.9 9.8 C 37.0 9.7 36.9 9.8 37.8 9.6 C 37.8 9.6 37.8 9.6 37.8 9.6 Z M 14.0 16.0 C 14.6 16.1 14.9 15.5 14.7 15.2 C 14.5 14.9 13.9 14.0 14.0 13.7 C 14.1 13.4 14.4 12.4 13.4 12.7 C 12.4 13.0 12.3 13.4 12.4 13.6 C 12.5 13.8 12.8 14.8 12.5 14.8 C 12.2 14.9 11.9 14.7 11.7 14.6 C 11.6 14.5 10.9 13.8 10.5 14.2 C 10.2 14.5 9.9 14.9 9.9 14.9 C 9.8 15.1 9.6 15.2 9.4 15.3 C 9.4 15.3 8.6 15.1 8.3 15.4 C 8.0 15.8 7.6 16.1 7.3 16.2 C 7.0 16.4 6.8 16.6 6.9 16.9 C 7.0 17.1 7.2 18.0 7.2 18.0 C 7.2 18.0 7.0 18.4 6.8 18.4 C 6.6 18.4 6.2 18.1 6.1 17.9 C 6.0 17.8 5.7 17.5 5.4 17.6 C 5.2 17.7 4.0 18.3 4.1 18.6 C 4.2 18.9 4.5 19.1 4.5 19.3 C 4.5 19.5 4.1 20.1 3.9 20.0 C 3.6 19.9 3.2 19.6 3.2 19.8 C 3.1 20.0 2.8 20.3 2.9 20.4 C 3.0 20.5 3.1 20.7 3.3 20.8 C 3.6 20.9 3.6 21.4 3.7 21.5 C 3.8 21.6 3.8 21.9 3.8 21.9 C 3.6 21.9 3.4 22.0 3.2 22.1 C 3.2 22.1 2.8 21.7 2.8 21.6 C 2.7 21.4 2.3 21.5 2.2 21.6 C 2.2 21.8 2.1 22.6 2.1 22.6 C 2.5 22.6 2.8 22.7 3.2 22.8 C 3.3 23.0 3.3 23.1 3.4 23.3 C 3.4 23.3 2.1 23.1 2.1 23.5 C 2.1 23.9 2.1 24.4 2.1 24.4 C 2.1 24.4 2.7 24.7 2.7 24.7 C 2.8 24.8 4.0 24.6 4.0 24.6 C 4.4 24.5 4.9 24.4 5.3 24.2 C 5.3 24.2 5.7 23.9 5.5 23.8 C 5.3 23.7 4.8 23.9 4.6 23.9 C 4.4 23.9 4.1 23.6 4.1 23.6 C 4.4 23.5 4.7 23.4 4.9 23.3 C 4.9 23.3 5.2 23.3 5.4 23.2 C 5.7 23.1 5.8 22.9 5.8 22.8 C 5.7 22.7 5.4 22.5 5.2 22.3 C 5.0 22.1 4.7 22.0 5.0 22.0 C 5.4 21.9 5.7 22.0 5.8 22.0 C 5.8 21.9 5.6 21.3 5.6 21.3 C 5.5 21.2 5.5 21.0 5.5 20.9 C 5.5 20.9 5.5 20.5 5.7 20.6 C 6.0 20.7 6.2 20.0 6.2 20.0 C 6.2 20.0 6.8 20.6 7.0 20.6 C 7.2 20.5 7.5 20.5 7.6 20.2 C 7.7 19.9 7.4 19.1 7.4 19.1 C 7.6 19.2 7.8 19.3 8.0 19.4 C 8.3 19.2 8.6 19.1 8.9 18.9 C 8.9 18.9 9.5 18.4 9.5 18.3 C 9.4 18.2 8.9 17.7 8.8 17.5 C 8.8 17.3 9.1 16.9 9.2 17.0 C 9.4 17.2 10.1 17.5 10.1 17.5 C 10.1 17.5 10.6 17.7 10.9 17.6 C 11.1 17.5 11.4 17.1 11.4 16.9 C 11.5 16.7 11.7 16.1 11.7 16.1 C 11.9 16.2 12.1 16.3 12.3 16.5 C 12.3 16.5 12.9 15.8 14.0 16.0 C 14.0 16.0 14.0 16.0 14.0 16.0 Z M 5.8 24.3 C 5.6 24.0 3.1 24.7 2.7 25.2 C 2.2 25.6 2.7 25.9 2.8 26.4 C 2.9 27.0 3.6 26.4 4.0 26.5 C 4.3 26.6 3.8 26.8 3.5 27.1 C 3.3 27.5 4.0 27.9 4.3 28.3 C 4.6 28.7 5.6 28.5 5.9 28.7 C 6.2 29.0 6.0 28.2 6.4 28.7 C 6.9 29.2 6.3 29.3 5.6 29.0 C 4.8 28.6 5.4 29.6 5.7 30.0 C 6.1 30.4 7.0 30.6 7.3 30.9 C 7.6 31.2 7.6 30.3 8.1 30.6 C 8.6 31.0 7.9 31.4 8.4 31.8 C 9.0 32.3 9.2 31.7 9.6 31.7 C 10.0 31.8 9.7 32.1 10.0 32.3 C 10.2 32.5 10.5 32.9 11.2 33.1 C 11.9 33.2 11.8 33.0 12.2 33.1 C 12.5 33.2 13.0 33.4 13.0 33.4 C 13.0 33.6 12.9 33.9 12.9 34.1 C 12.9 34.1 14.1 34.7 14.5 34.9 C 14.9 35.1 16.0 35.2 15.8 35.0 C 15.6 34.7 16.7 34.7 16.9 34.9 C 17.0 35.0 17.7 35.6 18.2 35.9 C 18.6 36.3 19.0 34.6 19.1 34.4 C 19.2 34.1 19.8 33.3 19.4 33.1 C 18.9 32.9 18.5 33.1 18.6 32.8 C 18.8 32.6 17.4 32.4 17.1 32.3 C 16.8 32.2 16.1 32.6 16.1 32.6 C 16.1 32.6 15.6 33.0 15.1 32.8 C 14.6 32.5 14.8 31.5 14.8 31.5 C 14.8 31.5 14.3 31.0 13.7 30.8 C 13.1 30.6 12.1 31.1 11.9 31.2 C 11.7 31.3 12.1 30.6 11.8 30.3 C 11.5 30.1 11.1 29.6 11.0 29.5 C 10.8 29.5 10.3 29.8 10.3 29.8 C 10.3 29.8 9.5 29.8 9.4 29.7 C 9.3 29.6 9.9 29.1 9.9 29.1 C 9.9 29.1 9.0 28.2 8.8 28.0 C 8.7 27.8 8.3 27.7 8.1 27.6 C 8.0 27.6 7.1 28.2 7.0 27.9 C 6.9 27.7 7.6 27.6 7.5 27.4 C 7.4 27.2 7.3 26.7 7.2 26.7 C 7.1 26.6 6.8 26.7 6.6 26.6 C 6.5 26.5 5.7 26.8 5.6 26.6 C 5.4 26.4 5.7 26.0 5.7 25.9 C 5.8 25.8 6.3 25.4 6.2 25.2 C 6.2 25.1 5.8 25.4 5.8 25.3 C 5.7 25.1 5.3 25.3 5.3 25.1 C 5.3 24.9 6.1 24.7 5.9 24.6 C 5.9 24.6 5.9 24.6 5.8 24.3 C 5.8 24.3 5.8 24.3 5.8 24.3 Z M 20.5 33.6 C 19.9 33.0 19.2 33.2 19.2 33.6 C 19.1 34.0 19.1 35.0 18.7 35.2 C 18.4 35.4 17.4 35.7 18.5 36.3 C 19.7 36.8 20.0 36.6 20.1 36.4 C 20.2 36.2 20.7 35.3 21.0 35.5 C 21.3 35.7 21.6 36.0 21.6 36.2 C 21.7 36.3 21.9 37.4 22.6 37.5 C 23.2 37.5 23.9 37.4 23.9 37.4 C 24.2 37.5 24.6 37.6 24.9 37.6 C 24.9 37.6 25.7 38.5 26.5 38.5 C 27.3 38.6 28.3 38.8 28.6 38.9 C 28.9 39.0 29.2 39.0 29.3 38.8 C 29.4 38.6 30.0 37.9 30.0 37.9 C 30.0 37.9 30.5 37.7 30.7 37.9 C 30.8 38.1 30.8 38.6 30.7 38.7 C 30.6 38.9 30.6 39.4 30.9 39.5 C 31.1 39.7 32.4 40.4 32.7 40.2 C 32.9 40.0 32.9 39.6 33.1 39.5 C 33.3 39.5 34.2 39.6 34.2 39.8 C 34.3 40.1 34.1 40.6 34.4 40.6 C 34.7 40.6 35.2 40.8 35.2 40.7 C 35.2 40.5 35.4 40.4 35.5 40.2 C 35.6 39.9 36.1 39.8 36.3 39.6 C 36.4 39.5 36.8 39.6 36.8 39.6 C 37.0 39.7 37.1 39.9 37.3 40.1 C 37.3 40.1 36.9 40.6 36.7 40.6 C 36.5 40.7 36.7 41.1 36.9 41.1 C 37.0 41.2 38.1 41.3 38.1 41.3 C 38.2 40.9 38.3 40.5 38.3 40.2 C 38.6 40.1 38.9 40.1 39.2 40.1 C 39.2 40.1 38.8 41.4 39.3 41.4 C 39.8 41.5 40.4 41.6 40.4 41.6 C 40.4 41.6 41.0 41.2 41.2 41.2 C 41.3 41.2 41.6 40.0 41.6 40.0 C 41.6 39.5 41.6 39.1 41.6 38.6 C 41.6 38.6 41.1 38.0 40.8 38.2 C 40.4 38.3 40.6 38.8 40.5 39.1 C 40.4 39.3 39.9 39.4 39.9 39.4 C 39.7 39.1 39.5 38.8 39.3 38.5 C 39.3 38.5 39.2 38.3 39.0 38.0 C 38.8 37.7 38.1 37.5 37.9 37.5 C 37.6 37.6 37.4 37.9 37.1 38.1 C 36.7 38.2 36.7 38.6 36.5 38.3 C 36.2 37.9 36.1 37.5 36.0 37.5 C 35.8 37.4 35.0 37.8 35.0 37.8 C 34.8 37.8 34.6 37.9 34.4 38.0 C 34.4 38.0 33.9 38.1 33.8 37.8 C 33.8 37.5 32.7 37.6 32.7 37.6 C 32.7 37.6 33.0 36.8 32.8 36.7 C 32.6 36.5 32.2 36.2 31.8 36.3 C 31.3 36.3 30.9 37.0 30.9 37.0 C 30.8 36.8 30.7 36.6 30.6 36.3 C 30.3 36.2 29.9 36.1 29.6 35.9 C 29.6 35.9 28.3 35.7 28.3 35.8 C 28.3 35.9 28.3 36.7 28.2 36.8 C 28.0 37.0 27.1 37.0 27.1 36.7 C 27.0 36.5 26.4 35.7 26.4 35.7 C 26.4 35.7 25.9 35.1 25.4 35.0 C 25.0 34.8 24.2 34.8 24.0 34.9 C 23.8 35.0 23.0 35.3 23.0 35.3 C 22.9 35.0 22.7 34.8 22.6 34.5 C 22.6 34.5 21.4 34.5 20.5 33.6 C 20.5 33.6 20.5 33.6 20.5 33.6 Z M 42.1 38.2 C 41.1 38.1 41.4 40.8 41.7 41.4 C 42.0 42.0 42.7 41.8 43.4 42.0 C 44.0 42.2 43.9 41.3 44.4 41.1 C 44.8 41.0 44.6 41.5 44.7 41.9 C 44.8 42.3 45.9 42.1 46.5 42.2 C 47.1 42.3 47.9 41.5 48.5 41.6 C 49.0 41.6 48.1 41.0 49.0 41.2 C 49.9 41.4 49.4 41.8 48.3 41.9 C 47.2 42.1 48.6 42.5 49.2 42.7 C 49.8 42.8 50.8 42.6 51.3 42.7 C 51.8 42.8 51.2 42.0 51.9 42.1 C 52.6 42.2 52.2 42.9 52.9 43.0 C 53.5 43.2 53.5 42.6 53.9 42.5 C 54.3 42.3 54.1 42.7 54.4 42.8 C 54.7 42.9 55.2 43.1 55.9 43.0 C 56.5 43.0 56.4 42.8 56.7 42.7 C 57.0 42.7 57.5 42.8 57.5 42.8 C 57.5 43.0 57.6 43.2 57.6 43.5 C 57.6 43.5 58.8 43.6 59.2 43.7 C 59.5 43.8 60.4 43.5 60.2 43.4 C 59.9 43.2 60.8 42.8 61.0 43.0 C 61.2 43.1 61.8 43.5 62.2 43.6 C 62.6 43.8 62.6 42.1 62.6 41.9 C 62.6 41.6 62.9 40.7 62.6 40.6 C 62.2 40.5 61.9 40.8 62.0 40.5 C 62.1 40.3 60.9 40.4 60.6 40.4 C 60.3 40.4 59.9 41.0 59.9 41.0 C 59.9 41.0 59.6 41.5 59.1 41.5 C 58.6 41.4 58.5 40.3 58.5 40.3 C 58.5 40.3 57.9 40.1 57.3 40.1 C 56.8 40.1 56.0 40.9 55.9 41.1 C 55.7 41.3 55.8 40.4 55.4 40.3 C 55.0 40.2 54.4 39.9 54.3 39.9 C 54.1 39.9 53.7 40.4 53.7 40.4 C 53.7 40.4 52.9 40.7 52.8 40.7 C 52.6 40.6 53.0 39.9 53.0 39.9 C 53.0 39.9 51.4 39.5 51.1 39.4 C 50.8 39.3 50.2 39.4 50.0 39.4 C 49.8 39.5 49.3 40.4 49.0 40.3 C 48.6 40.1 49.4 39.7 49.1 39.5 C 48.7 39.4 48.1 39.1 48.0 39.1 C 47.8 39.1 47.5 39.4 47.2 39.4 C 46.9 39.4 46.5 40.1 46.0 40.0 C 45.6 40.0 45.4 39.5 45.2 39.4 C 45.1 39.3 45.1 38.6 44.7 38.5 C 44.4 38.5 44.5 38.9 44.2 38.9 C 43.9 38.8 43.8 39.3 43.5 39.2 C 43.2 39.0 43.5 38.3 43.1 38.3 C 42.9 38.4 43.1 38.3 42.1 38.2 C 42.1 38.2 42.1 38.2 42.1 38.2 Z M 64.9 41.5 C 64.6 41.6 64.5 41.1 63.9 40.9 C 63.3 40.7 62.6 40.6 62.7 40.9 C 62.8 41.3 63.0 41.5 62.6 41.8 C 62.3 42.2 61.9 42.9 62.3 43.2 C 62.7 43.5 64.3 44.3 64.9 44.0 C 65.5 43.7 65.7 43.5 66.1 43.3 C 66.5 43.1 66.2 43.9 66.2 43.9 C 66.2 43.9 67.1 44.0 67.8 44.1 C 68.4 44.2 69.2 44.3 69.3 44.1 C 69.4 44.0 69.7 43.7 69.7 43.7 C 69.7 43.7 70.0 44.1 70.5 44.2 C 71.0 44.3 70.9 44.1 70.8 43.9 C 70.7 43.7 70.1 43.2 70.4 43.2 C 70.6 43.2 71.2 44.0 71.6 44.1 C 71.9 44.2 72.7 44.2 72.7 44.2 C 72.7 44.2 72.7 43.8 72.7 43.7 C 72.8 43.6 73.6 43.5 73.7 43.7 C 73.7 43.9 73.6 44.3 74.0 44.4 C 75.3 44.5 75.1 43.6 75.2 43.6 C 75.3 43.6 75.3 44.3 75.6 44.4 C 75.9 44.5 78.4 44.5 78.5 44.3 C 78.7 44.1 79.5 44.8 79.9 44.4 C 80.2 44.0 80.3 43.8 80.4 43.7 C 80.5 43.6 81.0 43.0 81.2 43.2 C 81.4 43.5 80.4 44.2 80.7 44.5 C 81.0 44.7 82.6 44.7 82.9 44.5 C 83.2 44.2 83.3 43.6 83.6 43.6 C 83.8 43.6 84.7 44.5 84.7 44.3 C 84.8 44.2 84.9 43.5 84.9 43.4 C 84.9 43.2 85.2 42.0 85.1 41.8 C 84.9 41.6 83.9 41.1 84.1 41.5 C 84.2 41.9 84.4 42.3 84.1 42.5 C 83.7 42.6 83.5 42.7 83.5 42.5 C 83.4 42.4 83.6 42.2 83.0 42.0 C 82.5 41.7 82.8 41.5 82.3 41.5 C 81.8 41.5 81.3 41.6 81.3 41.8 C 81.4 42.1 80.8 42.5 80.5 42.5 C 80.1 42.4 80.7 41.8 79.6 41.6 C 78.4 41.3 77.7 41.2 77.4 41.4 C 77.0 41.7 76.9 42.4 76.4 42.1 C 75.9 41.7 76.2 41.5 75.4 41.5 C 74.7 41.5 74.4 42.1 73.9 42.1 C 73.4 42.1 73.3 42.1 73.3 42.1 C 73.3 42.1 73.6 41.2 72.5 41.2 C 71.5 41.1 71.3 41.0 71.5 41.6 C 71.6 42.2 70.8 42.2 70.8 41.8 C 70.8 41.4 70.2 41.1 69.8 41.1 C 69.5 41.0 69.3 42.0 69.2 42.0 C 69.0 42.0 68.6 41.9 68.8 41.6 C 69.0 41.3 68.6 41.2 68.3 41.1 C 67.9 40.9 67.0 41.0 67.0 41.1 C 67.0 41.3 67.4 42.0 66.8 41.7 C 66.2 41.3 66.0 40.8 65.4 40.8 C 64.8 40.7 65.3 41.4 64.9 41.5 C 64.9 41.5 64.9 41.5 64.9 41.5 Z M 86.0 41.6 C 85.4 41.2 84.9 41.7 85.0 42.1 C 85.1 42.4 85.2 43.4 85.0 43.7 C 84.8 44.0 84.2 44.6 85.2 44.8 C 86.1 44.9 86.3 44.7 86.3 44.4 C 86.3 44.2 86.5 43.2 86.8 43.3 C 87.0 43.4 87.3 43.7 87.4 43.8 C 87.4 43.9 87.8 44.9 88.3 44.8 C 88.7 44.6 89.2 44.3 89.2 44.3 C 89.4 44.3 89.6 44.3 89.9 44.3 C 89.9 44.3 90.5 44.9 91.0 44.8 C 91.6 44.6 92.1 44.6 92.5 44.7 C 92.9 44.7 93.3 44.6 93.4 44.4 C 93.4 44.1 93.9 43.3 93.9 43.3 C 93.9 43.3 94.5 43.1 94.8 43.2 C 95.0 43.3 95.1 43.8 95.0 44.0 C 95.0 44.2 95.0 44.6 95.4 44.7 C 95.8 44.8 97.5 45.2 97.8 44.9 C 98.0 44.7 97.9 44.3 98.1 44.2 C 98.3 44.1 99.4 44.0 99.5 44.2 C 99.6 44.5 99.6 45.0 99.9 44.9 C 100.2 44.9 100.9 45.0 100.9 44.8 C 100.8 44.7 101.1 44.6 101.1 44.3 C 101.1 44.0 101.7 43.7 101.8 43.6 C 102.0 43.5 102.5 43.4 102.5 43.4 C 102.7 43.5 102.9 43.7 103.1 43.8 C 103.1 43.8 102.8 44.4 102.6 44.5 C 102.4 44.6 102.7 44.9 102.9 44.9 C 103.1 44.9 104.3 44.8 104.3 44.8 C 104.3 44.4 104.3 44.0 104.3 43.6 C 104.6 43.6 104.9 43.5 105.2 43.4 C 105.2 43.4 105.1 44.7 105.7 44.7 C 106.3 44.7 107.0 44.6 107.0 44.6 C 107.0 44.6 107.6 44.1 107.7 44.0 C 107.8 44.0 107.8 42.8 107.8 42.8 C 107.8 42.3 107.7 41.9 107.6 41.4 C 107.6 41.4 106.9 41.0 106.6 41.2 C 106.2 41.4 106.5 41.9 106.5 42.1 C 106.4 42.3 105.9 42.6 105.9 42.6 C 105.6 42.4 105.3 42.1 105.1 41.8 C 105.1 41.8 104.8 41.6 104.6 41.4 C 104.3 41.2 103.4 41.1 103.1 41.2 C 102.9 41.3 102.7 41.6 102.3 41.9 C 102.0 42.1 102.1 42.5 101.7 42.2 C 101.3 41.9 101.1 41.5 100.9 41.6 C 100.7 41.6 99.9 42.0 99.9 42.0 C 99.7 42.2 99.5 42.3 99.2 42.4 C 99.2 42.4 98.6 42.6 98.5 42.4 C 98.4 42.1 97.2 42.4 97.2 42.4 C 97.2 42.4 97.3 41.6 97.0 41.5 C 96.7 41.3 96.1 41.2 95.6 41.3 C 95.1 41.5 94.7 42.3 94.7 42.3 C 94.6 42.1 94.4 41.9 94.3 41.7 C 93.8 41.6 93.3 41.6 92.8 41.5 C 92.8 41.5 91.7 41.6 91.7 41.7 C 91.7 41.8 91.9 42.5 91.8 42.7 C 91.7 42.9 91.2 43.1 91.1 42.9 C 91.0 42.7 90.5 42.0 90.5 42.0 C 90.5 42.0 90.1 41.6 89.7 41.6 C 89.4 41.5 88.9 41.8 88.8 41.9 C 88.6 42.0 88.1 42.5 88.1 42.5 C 88.0 42.3 87.9 42.1 87.7 41.9 C 87.7 41.9 86.8 42.2 86.0 41.6 C 86.0 41.6 86.0 41.6 86.0 41.6 Z M 108.1 41.0 C 107.0 41.1 107.9 43.7 108.3 44.2 C 108.8 44.7 109.5 44.3 110.3 44.4 C 111.0 44.4 110.7 43.6 111.1 43.3 C 111.6 43.1 111.4 43.6 111.7 44.0 C 111.9 44.4 113.0 43.9 113.7 43.9 C 114.4 43.9 115.0 43.0 115.5 42.9 C 116.1 42.8 115.0 42.5 116.0 42.4 C 117.0 42.4 116.5 42.9 115.4 43.3 C 114.3 43.6 115.9 43.8 116.6 43.8 C 117.2 43.9 118.2 43.4 118.7 43.4 C 119.2 43.4 118.5 42.8 119.2 42.7 C 119.9 42.7 119.6 43.4 120.3 43.4 C 121.0 43.5 120.9 42.8 121.2 42.7 C 121.6 42.5 121.5 42.9 121.8 42.9 C 122.1 42.9 122.6 43.1 123.3 42.9 C 123.9 42.6 123.7 42.5 124.0 42.4 C 124.3 42.3 124.8 42.2 124.8 42.2 C 124.9 42.5 124.9 42.7 125.0 42.9 C 125.0 42.9 126.2 42.8 126.6 42.8 C 126.9 42.8 127.7 42.5 127.4 42.3 C 127.2 42.2 128.0 41.7 128.1 41.8 C 128.3 41.8 128.9 42.1 129.4 42.2 C 129.8 42.3 129.5 40.6 129.4 40.4 C 129.4 40.1 129.5 39.2 129.2 39.1 C 128.8 39.1 128.6 39.4 128.6 39.2 C 128.6 38.9 127.6 39.3 127.3 39.3 C 127.0 39.4 126.8 40.1 126.8 40.1 C 126.8 40.1 126.5 40.6 126.1 40.7 C 125.6 40.7 125.3 39.7 125.3 39.7 C 125.3 39.7 124.7 39.6 124.1 39.7 C 123.5 39.8 123.0 40.7 122.9 40.9 C 122.8 41.1 122.7 40.3 122.3 40.3 C 121.9 40.2 121.2 40.0 121.1 40.1 C 120.9 40.1 120.7 40.7 120.7 40.7 C 120.7 40.7 119.9 41.1 119.7 41.1 C 119.6 41.1 119.8 40.3 119.8 40.3 C 119.8 40.3 118.1 40.2 117.8 40.2 C 117.5 40.2 116.9 40.4 116.7 40.5 C 116.5 40.6 116.2 41.6 115.8 41.5 C 115.5 41.4 116.1 40.9 115.8 40.8 C 115.4 40.7 114.7 40.6 114.5 40.6 C 114.3 40.6 114.1 41.0 113.8 41.0 C 113.5 41.1 113.1 41.9 112.7 41.9 C 112.2 41.9 111.9 41.5 111.7 41.4 C 111.5 41.3 111.3 40.7 111.0 40.7 C 110.6 40.7 110.9 41.1 110.5 41.2 C 110.1 41.2 110.2 41.7 109.8 41.6 C 109.4 41.5 109.6 40.7 109.2 40.8 C 109.0 40.9 109.2 40.8 108.1 41.0 C 108.1 41.0 108.1 41.0 108.1 41.0 Z M 130.0 39.1 C 129.5 38.8 129.1 39.3 129.2 39.7 C 129.3 40.0 129.6 41.0 129.5 41.3 C 129.3 41.6 128.8 42.3 129.7 42.4 C 130.6 42.4 130.8 42.1 130.7 41.9 C 130.7 41.6 130.7 40.6 131.0 40.7 C 131.2 40.7 131.5 41.0 131.6 41.1 C 131.6 41.2 132.1 42.1 132.5 41.9 C 132.9 41.7 133.2 41.4 133.2 41.4 C 133.4 41.4 133.6 41.3 133.9 41.3 C 133.9 41.3 134.5 41.8 134.9 41.6 C 135.4 41.4 135.9 41.3 136.2 41.3 C 136.6 41.3 136.9 41.1 136.9 40.9 C 136.9 40.7 137.2 39.8 137.2 39.8 C 137.2 39.8 137.7 39.5 137.9 39.6 C 138.2 39.7 138.3 40.1 138.3 40.3 C 138.3 40.5 138.4 40.9 138.7 41.0 C 139.1 41.0 140.6 41.2 140.7 40.9 C 140.9 40.6 140.8 40.2 140.9 40.1 C 141.1 40.0 142.0 39.8 142.1 40.0 C 142.2 40.2 142.3 40.7 142.5 40.6 C 142.8 40.5 143.3 40.6 143.3 40.4 C 143.3 40.3 143.4 40.1 143.4 39.8 C 143.4 39.6 143.8 39.2 143.9 39.1 C 144.0 38.9 144.4 38.8 144.4 38.8 C 144.6 38.9 144.8 39.0 145.0 39.1 C 145.0 39.1 144.8 39.7 144.7 39.8 C 144.5 39.9 144.8 40.2 145.0 40.2 C 145.2 40.2 146.1 39.9 146.1 39.9 C 146.1 39.6 146.0 39.2 145.9 38.8 C 146.2 38.7 146.4 38.5 146.6 38.4 C 146.6 38.4 146.8 39.8 147.2 39.7 C 147.7 39.6 148.3 39.4 148.3 39.4 C 148.3 39.4 148.6 38.8 148.7 38.8 C 148.8 38.7 148.6 37.5 148.6 37.5 C 148.5 37.1 148.3 36.6 148.2 36.2 C 148.2 36.2 147.5 35.8 147.3 36.1 C 147.0 36.3 147.4 36.8 147.4 37.0 C 147.4 37.2 147.0 37.6 147.0 37.6 C 146.7 37.4 146.5 37.2 146.2 36.9 C 146.2 36.9 146.0 36.8 145.7 36.6 C 145.5 36.4 144.8 36.4 144.6 36.5 C 144.4 36.7 144.2 37.0 144.0 37.3 C 143.8 37.6 144.0 38.0 143.6 37.7 C 143.2 37.5 143.0 37.1 142.8 37.2 C 142.7 37.2 142.1 37.8 142.1 37.8 C 141.9 37.9 141.7 38.1 141.6 38.2 C 141.6 38.2 141.1 38.5 141.0 38.3 C 140.9 38.0 139.9 38.5 139.9 38.5 C 139.9 38.5 139.8 37.7 139.5 37.6 C 139.2 37.5 138.8 37.4 138.4 37.6 C 138.0 37.8 137.8 38.7 137.8 38.7 C 137.6 38.5 137.4 38.3 137.3 38.1 C 136.8 38.1 136.4 38.1 136.0 38.1 C 136.0 38.1 135.1 38.3 135.1 38.5 C 135.1 38.6 135.3 39.3 135.3 39.5 C 135.3 39.7 134.8 40.0 134.7 39.7 C 134.6 39.5 134.1 38.9 134.1 38.9 C 134.1 38.9 133.6 38.6 133.3 38.6 C 133.1 38.6 132.6 38.9 132.5 39.0 C 132.5 39.2 132.1 39.8 132.1 39.8 C 131.9 39.6 131.8 39.4 131.6 39.2 C 131.6 39.2 130.9 39.6 130.0 39.1 C 130.0 39.1 130.0 39.1 130.0 39.1 Z M 130.0 39.1 " fill="#C03520"></path></g></svg>