<?xml version="1.0" encoding="UTF-8" standalone="no"?><svg xmlns="http://www.w3.org/2000/svg" xmlns:xlink="http://www.w3.org/1999/xlink" clip-rule="evenodd" stroke-miterlimit="4.00" viewBox="0 0 177 46"><desc>SVG generated by Keynote</desc><defs></defs><g transform="matrix(1.00, 0.00, -0.00, -1.00, 0.0, 46.0)"><path d="M 151.9 35.1 C 151.6 35.3 151.2 34.9 150.3 34.9 C 149.3 35.0 148.1 35.3 148.4 35.5 C 148.7 35.8 149.1 35.9 148.7 36.4 C 148.3 36.9 147.9 37.7 148.6 37.8 C 149.4 37.9 152.1 38.0 152.8 37.4 C 153.5 36.8 153.7 36.6 154.2 36.2 C 154.7 35.8 154.6 36.7 154.6 36.7 C 154.6 36.7 155.9 36.4 156.8 36.2 C 157.7 36.0 158.7 35.7 158.8 35.5 C 158.8 35.4 159.0 35.0 159.0 35.0 C 159.0 35.0 159.6 35.2 160.2 35.0 C 160.8 34.9 160.6 34.8 160.4 34.6 C 160.2 34.5 159.4 34.3 159.6 34.2 C 159.9 34.1 160.9 34.5 161.3 34.5 C 161.8 34.4 162.6 34.0 162.6 34.0 C 162.6 34.0 162.4 33.6 162.4 33.5 C 162.5 33.3 163.3 32.9 163.4 33.1 C 163.5 33.2 163.6 33.7 164.0 33.5 C 165.3 33.0 164.7 32.3 164.8 32.2 C 164.9 32.2 165.2 32.8 165.5 32.7 C 165.9 32.7 167.9 31.5 168.0 31.3 C 168.0 31.1 168.9 31.2 169.0 30.7 C 169.0 30.2 169.0 30.0 169.0 29.9 C 169.0 29.8 168.9 29.0 169.2 29.1 C 169.5 29.2 169.3 30.3 169.6 30.3 C 170.0 30.4 171.0 29.6 171.0 29.3 C 171.0 28.9 170.7 28.4 170.8 28.3 C 170.9 28.2 171.9 28.3 171.9 28.2 C 171.8 28.1 171.4 27.5 171.3 27.4 C 171.2 27.4 170.4 26.3 170.2 26.3 C 170.0 26.3 169.3 26.3 169.6 26.5 C 169.9 26.7 170.3 27.0 170.3 27.2 C 170.2 27.5 170.1 27.6 170.0 27.5 C 169.9 27.4 169.9 27.3 169.5 27.3 C 169.0 27.4 169.0 27.0 168.7 27.2 C 168.5 27.5 168.3 27.7 168.5 27.9 C 168.6 28.1 168.5 28.7 168.3 28.8 C 168.0 29.0 168.1 28.2 167.2 28.5 C 166.3 28.8 165.7 29.0 165.6 29.4 C 165.4 29.7 165.7 30.4 165.1 30.3 C 164.5 30.3 164.7 30.0 164.0 30.3 C 163.4 30.6 163.4 31.3 162.9 31.5 C 162.5 31.7 162.3 31.8 162.3 31.8 C 162.3 31.8 162.3 30.9 161.2 31.3 C 160.1 31.7 159.8 31.7 160.2 32.2 C 160.7 32.7 159.8 33.0 159.6 32.7 C 159.4 32.3 158.6 32.3 158.2 32.4 C 157.7 32.5 158.0 33.5 157.8 33.6 C 157.6 33.7 157.1 33.8 157.2 33.4 C 157.3 33.0 156.7 33.2 156.3 33.2 C 155.8 33.2 154.6 33.6 154.7 33.8 C 154.8 34.0 155.6 34.4 154.6 34.4 C 153.6 34.3 153.3 33.9 152.4 34.1 C 151.5 34.4 152.5 34.8 151.9 35.1 C 151.9 35.1 151.9 35.1 151.9 35.1 Z M 170.1 25.9 C 169.7 26.4 171.9 28.0 172.5 28.1 C 173.1 28.2 173.2 27.6 173.6 27.2 C 174.0 26.8 173.2 26.5 173.1 26.1 C 173.1 25.8 173.5 26.1 173.9 26.2 C 174.3 26.3 174.3 25.5 174.5 25.0 C 174.7 24.6 173.9 24.0 173.9 23.7 C 173.9 23.4 173.4 23.9 173.5 23.4 C 173.6 22.9 174.1 23.1 174.3 23.8 C 174.4 24.5 174.8 23.6 175.0 23.2 C 175.1 22.8 174.6 22.1 174.6 21.8 C 174.6 21.5 174.0 22.0 173.9 21.6 C 173.8 21.2 174.6 21.2 174.5 20.7 C 174.4 20.2 173.9 20.5 173.6 20.4 C 173.4 20.3 173.8 20.1 173.7 19.9 C 173.7 19.7 173.7 19.3 173.3 19.0 C 172.9 18.7 172.8 19.0 172.6 18.8 C 172.5 18.7 172.2 18.4 172.2 18.4 C 172.4 18.3 172.5 18.1 172.7 17.9 C 172.7 17.9 172.1 17.2 171.9 17.0 C 171.7 16.7 171.0 16.5 171.1 16.7 C 171.1 17.0 170.3 16.9 170.3 16.7 C 170.2 16.6 170.0 16.0 169.8 15.6 C 169.6 15.3 168.7 16.8 168.6 17.0 C 168.4 17.2 167.8 17.9 167.9 18.1 C 168.1 18.3 168.5 18.2 168.3 18.4 C 168.1 18.5 168.9 18.8 169.0 18.9 C 169.2 19.1 169.8 18.7 169.8 18.7 C 169.8 18.7 170.3 18.5 170.5 18.7 C 170.8 18.9 170.1 19.7 170.1 19.7 C 170.1 19.7 170.2 20.1 170.4 20.3 C 170.6 20.5 171.5 20.3 171.7 20.2 C 171.9 20.2 171.2 20.6 171.3 20.9 C 171.3 21.1 171.2 21.4 171.3 21.5 C 171.3 21.5 171.9 21.4 171.9 21.4 C 171.9 21.4 172.3 21.6 172.3 21.7 C 172.4 21.8 171.6 21.9 171.6 21.9 C 171.6 21.9 171.5 22.5 171.4 22.6 C 171.4 22.7 171.6 22.9 171.7 22.9 C 171.7 23.0 172.7 23.2 172.6 23.3 C 172.5 23.5 172.0 23.2 171.9 23.3 C 171.8 23.4 171.5 23.6 171.5 23.6 C 171.5 23.7 171.8 23.9 171.8 24.0 C 171.8 24.1 172.5 24.5 172.4 24.8 C 172.3 25.0 171.8 24.9 171.7 24.9 C 171.6 24.9 171.0 24.7 170.9 24.8 C 170.8 24.9 171.2 25.1 171.1 25.2 C 171.0 25.3 171.4 25.6 171.2 25.7 C 171.0 25.8 170.5 25.2 170.4 25.5 C 170.4 25.6 170.5 25.5 170.1 25.9 C 170.1 25.9 170.1 25.9 170.1 25.9 Z M 167.4 17.6 C 167.5 18.1 168.1 18.0 168.2 17.6 C 168.4 17.3 168.8 16.4 169.1 16.3 C 169.4 16.1 170.3 15.9 169.7 15.3 C 169.1 14.7 168.8 14.9 168.6 15.1 C 168.5 15.3 167.8 16.0 167.7 15.8 C 167.6 15.7 167.5 15.3 167.5 15.2 C 167.5 15.0 167.7 14.0 167.3 13.9 C 166.8 13.8 166.3 13.9 166.3 13.9 C 166.1 13.8 165.9 13.7 165.6 13.6 C 165.6 13.6 165.3 12.7 164.8 12.6 C 164.2 12.5 163.6 12.3 163.2 12.1 C 162.9 11.9 162.4 11.8 162.3 12.0 C 162.1 12.2 161.3 12.7 161.3 12.7 C 161.3 12.7 160.5 12.7 160.3 12.5 C 160.1 12.2 160.1 11.8 160.3 11.6 C 160.4 11.5 160.5 11.0 160.1 10.8 C 159.7 10.5 157.8 9.4 157.3 9.6 C 156.9 9.7 156.9 10.1 156.6 10.1 C 156.3 10.1 154.9 9.7 154.8 9.5 C 154.7 9.2 155.0 8.7 154.5 8.7 C 154.1 8.6 153.2 8.2 153.2 8.3 C 153.1 8.5 152.8 8.5 152.7 8.8 C 152.6 9.0 151.6 9.0 151.4 9.1 C 151.1 9.2 150.4 9.1 150.4 9.1 C 150.1 8.8 149.8 8.6 149.5 8.4 C 149.5 8.4 150.2 8.0 150.5 8.0 C 150.8 8.0 150.4 7.5 150.2 7.4 C 149.9 7.3 148.4 7.1 148.4 7.1 C 148.3 7.4 148.2 7.8 148.1 8.2 C 147.9 8.2 147.6 8.2 147.4 8.3 C 147.4 8.3 147.8 7.0 147.3 6.9 C 146.9 6.8 146.3 6.6 146.3 6.6 C 146.3 6.6 145.7 7.0 145.6 7.1 C 145.4 7.1 145.1 8.2 145.1 8.2 C 145.1 8.7 145.0 9.2 145.0 9.6 C 145.0 9.6 145.4 10.2 145.8 10.1 C 146.1 10.0 146.0 9.4 146.1 9.2 C 146.2 9.0 146.7 8.9 146.7 8.9 C 146.8 9.2 147.0 9.5 147.1 9.8 C 147.1 9.8 147.2 10.0 147.4 10.3 C 147.5 10.6 148.3 10.9 148.7 10.9 C 149.1 10.9 149.6 10.7 150.1 10.6 C 150.6 10.5 150.6 10.0 151.1 10.5 C 151.6 10.9 151.8 11.4 152.0 11.4 C 152.3 11.5 153.6 11.4 153.6 11.4 C 153.9 11.4 154.3 11.3 154.6 11.3 C 154.6 11.3 155.5 11.4 155.5 11.7 C 155.5 12.0 157.2 12.1 157.2 12.1 C 157.2 12.1 156.8 12.9 157.2 13.1 C 157.5 13.4 158.0 13.8 158.7 13.8 C 159.3 13.9 160.0 13.3 160.0 13.3 C 160.1 13.6 160.2 13.8 160.3 14.1 C 160.8 14.4 161.2 14.6 161.7 14.9 C 161.7 14.9 162.8 15.3 162.8 15.1 C 162.9 15.0 163.1 14.3 163.2 14.2 C 163.3 14.0 164.0 14.1 163.9 14.3 C 163.9 14.5 164.1 15.3 164.1 15.3 C 164.1 15.3 164.3 15.9 164.6 16.1 C 164.8 16.3 165.3 16.3 165.5 16.2 C 165.7 16.1 166.3 15.9 166.3 15.9 C 166.3 16.1 166.3 16.4 166.3 16.6 C 166.3 16.6 167.1 16.7 167.4 17.6 C 167.4 17.6 167.4 17.6 167.4 17.6 Z M 144.5 10.0 C 145.4 10.1 145.4 7.4 145.1 6.8 C 144.9 6.2 144.2 6.4 143.6 6.2 C 143.0 6.0 143.0 6.8 142.6 7.0 C 142.2 7.2 142.4 6.6 142.3 6.2 C 142.3 5.8 141.2 6.0 140.6 5.8 C 140.1 5.7 139.3 6.4 138.8 6.4 C 138.3 6.4 139.1 6.9 138.3 6.8 C 137.4 6.6 137.9 6.1 139.0 6.0 C 140.0 6.0 138.7 5.5 138.1 5.3 C 137.6 5.1 136.6 5.3 136.2 5.2 C 135.7 5.1 136.2 5.9 135.5 5.7 C 134.9 5.6 135.3 5.0 134.7 4.8 C 134.1 4.6 134.0 5.2 133.7 5.3 C 133.3 5.4 133.5 5.1 133.2 5.0 C 132.9 4.9 132.5 4.6 131.8 4.7 C 131.2 4.7 131.3 5.0 131.0 5.0 C 130.8 5.0 130.3 4.9 130.3 4.9 C 130.2 4.7 130.2 4.5 130.2 4.2 C 130.2 4.2 129.1 4.0 128.7 3.9 C 128.4 3.8 127.6 4.0 127.8 4.2 C 128.0 4.4 127.1 4.7 127.0 4.6 C 126.8 4.5 126.2 4.1 125.8 3.9 C 125.5 3.7 125.4 5.4 125.4 5.6 C 125.3 5.9 125.0 6.8 125.3 6.9 C 125.7 7.1 126.0 6.8 125.9 7.0 C 125.8 7.2 126.9 7.1 127.2 7.1 C 127.5 7.2 127.9 6.6 127.9 6.6 C 127.9 6.6 128.2 6.1 128.7 6.1 C 129.2 6.2 129.2 7.3 129.2 7.3 C 129.2 7.3 129.7 7.6 130.3 7.6 C 130.9 7.6 131.6 6.8 131.7 6.6 C 131.9 6.5 131.8 7.3 132.1 7.4 C 132.5 7.6 133.1 7.9 133.2 7.9 C 133.4 7.9 133.8 7.4 133.8 7.4 C 133.8 7.4 134.5 7.1 134.7 7.2 C 134.9 7.2 134.4 7.9 134.4 7.9 C 134.4 7.9 135.9 8.4 136.2 8.5 C 136.5 8.6 137.0 8.5 137.2 8.5 C 137.4 8.5 137.9 7.5 138.2 7.7 C 138.5 7.8 137.8 8.3 138.1 8.4 C 138.4 8.6 139.0 8.8 139.1 8.9 C 139.3 8.9 139.5 8.6 139.8 8.6 C 140.1 8.6 140.6 7.9 141.0 8.0 C 141.4 8.1 141.6 8.6 141.7 8.7 C 141.8 8.8 141.8 9.5 142.1 9.6 C 142.4 9.6 142.3 9.2 142.6 9.2 C 142.9 9.3 143.0 8.8 143.3 9.0 C 143.6 9.1 143.2 9.9 143.6 9.8 C 143.8 9.8 143.6 9.8 144.5 10.0 C 144.5 10.0 144.5 10.0 144.5 10.0 Z M 124.5 6.7 C 124.9 7.2 125.4 6.8 125.4 6.4 C 125.4 6.0 125.3 5.0 125.5 4.8 C 125.7 4.5 126.4 3.9 125.5 3.6 C 124.7 3.4 124.4 3.7 124.4 3.9 C 124.4 4.1 124.1 5.1 123.9 5.0 C 123.6 4.9 123.4 4.6 123.4 4.4 C 123.3 4.3 123.1 3.3 122.6 3.4 C 122.2 3.5 121.8 3.7 121.8 3.7 C 121.5 3.7 121.3 3.7 121.1 3.7 C 121.1 3.7 120.5 3.0 120.0 3.1 C 119.5 3.2 119.0 3.2 118.6 3.1 C 118.2 3.0 117.9 3.1 117.8 3.3 C 117.7 3.5 117.2 4.3 117.2 4.3 C 117.2 4.3 116.6 4.5 116.3 4.3 C 116.1 4.2 116.1 3.7 116.2 3.5 C 116.2 3.4 116.2 2.9 115.9 2.8 C 115.5 2.7 113.9 2.1 113.6 2.3 C 113.4 2.6 113.4 3.0 113.2 3.0 C 113.0 3.1 111.9 3.1 111.9 2.9 C 111.8 2.6 111.9 2.1 111.6 2.1 C 111.2 2.2 110.6 2.0 110.6 2.1 C 110.6 2.3 110.4 2.4 110.4 2.7 C 110.3 2.9 109.7 3.1 109.5 3.3 C 109.4 3.4 108.9 3.4 108.9 3.4 C 108.7 3.3 108.5 3.1 108.3 2.9 C 108.3 2.9 108.7 2.4 108.9 2.4 C 109.1 2.3 108.8 1.9 108.6 1.9 C 108.4 1.8 107.2 1.8 107.2 1.8 C 107.2 2.2 107.1 2.6 107.1 3.0 C 106.8 3.1 106.5 3.1 106.2 3.2 C 106.2 3.2 106.4 1.8 105.8 1.8 C 105.2 1.8 104.5 1.8 104.5 1.8 C 104.5 1.8 103.9 2.2 103.8 2.3 C 103.6 2.3 103.5 3.5 103.5 3.5 C 103.5 4.0 103.5 4.4 103.6 4.9 C 103.6 4.9 104.2 5.4 104.6 5.2 C 105.0 5.1 104.7 4.5 104.8 4.3 C 104.9 4.1 105.4 3.9 105.4 3.9 C 105.7 4.2 105.9 4.4 106.2 4.7 C 106.2 4.7 106.4 5.0 106.6 5.2 C 106.9 5.4 107.8 5.6 108.0 5.5 C 108.3 5.5 108.5 5.2 108.9 4.9 C 109.2 4.7 109.2 4.3 109.5 4.7 C 109.9 5.0 110.0 5.4 110.2 5.4 C 110.4 5.4 111.2 5.0 111.2 5.0 C 111.5 4.9 111.7 4.8 112.0 4.7 C 112.0 4.7 112.6 4.5 112.6 4.8 C 112.7 5.1 113.9 4.9 113.9 4.9 C 113.9 4.9 113.8 5.7 114.1 5.8 C 114.4 6.0 114.8 6.2 115.3 6.1 C 115.8 6.0 116.3 5.3 116.3 5.3 C 116.4 5.5 116.5 5.7 116.7 5.9 C 117.1 6.0 117.6 6.1 118.0 6.2 C 118.0 6.2 119.1 6.2 119.1 6.1 C 119.1 6.0 119.0 5.3 119.1 5.1 C 119.2 4.9 119.8 4.7 119.8 5.0 C 119.8 5.2 120.3 5.9 120.3 5.9 C 120.3 5.9 120.6 6.3 120.9 6.4 C 121.2 6.5 121.7 6.3 121.9 6.2 C 122.0 6.1 122.5 5.6 122.5 5.6 C 122.6 5.8 122.8 6.1 122.9 6.3 C 122.9 6.3 123.7 6.1 124.5 6.7 C 124.5 6.7 124.5 6.7 124.5 6.7 Z M 103.1 5.3 C 104.2 5.3 103.6 2.6 103.1 2.1 C 102.7 1.5 102.0 1.8 101.2 1.7 C 100.4 1.6 100.7 2.4 100.2 2.7 C 99.8 2.9 99.9 2.4 99.8 2.0 C 99.6 1.6 98.4 1.9 97.7 1.8 C 97.0 1.8 96.2 2.6 95.7 2.7 C 95.1 2.7 96.1 3.1 95.1 3.1 C 94.1 3.0 94.6 2.5 95.8 2.3 C 97.0 2.0 95.4 1.8 94.7 1.6 C 94.1 1.5 93.0 1.9 92.5 1.9 C 92.0 1.8 92.6 2.5 91.9 2.5 C 91.1 2.4 91.5 1.8 90.8 1.7 C 90.0 1.5 90.1 2.2 89.7 2.3 C 89.3 2.5 89.4 2.1 89.1 2.0 C 88.8 2.0 88.3 1.8 87.6 1.9 C 86.9 2.1 87.1 2.3 86.7 2.3 C 86.4 2.4 85.8 2.4 85.8 2.4 C 85.8 2.2 85.8 1.9 85.7 1.7 C 85.7 1.7 84.4 1.7 84.1 1.6 C 83.7 1.6 82.8 1.9 83.0 2.0 C 83.3 2.2 82.4 2.6 82.2 2.5 C 82.0 2.4 81.4 2.1 80.9 2.0 C 80.5 1.8 80.7 3.5 80.7 3.8 C 80.7 4.0 80.4 5.0 80.8 5.1 C 81.2 5.1 81.5 4.8 81.4 5.0 C 81.4 5.3 82.5 5.0 82.8 5.0 C 83.1 5.0 83.5 4.4 83.5 4.4 C 83.5 4.4 83.8 3.8 84.3 3.8 C 84.8 3.8 85.0 4.9 85.0 4.9 C 85.0 4.9 85.7 5.1 86.3 5.0 C 86.9 5.0 87.6 4.1 87.8 3.9 C 87.9 3.7 87.9 4.5 88.3 4.6 C 88.8 4.7 89.4 5.0 89.6 4.9 C 89.8 4.9 90.1 4.3 90.1 4.3 C 90.1 4.3 90.9 4.0 91.1 4.0 C 91.3 4.0 91.0 4.8 91.0 4.8 C 91.0 4.8 92.7 5.0 93.1 5.1 C 93.4 5.2 94.0 5.0 94.2 4.9 C 94.5 4.9 94.9 3.9 95.2 4.0 C 95.6 4.1 94.9 4.6 95.2 4.7 C 95.6 4.8 96.3 5.0 96.5 5.1 C 96.7 5.1 96.9 4.7 97.3 4.7 C 97.6 4.6 98.0 3.9 98.5 3.9 C 99.0 3.9 99.3 4.4 99.5 4.5 C 99.6 4.6 99.8 5.2 100.1 5.3 C 100.5 5.3 100.3 4.9 100.6 4.9 C 101.0 4.9 101.0 4.4 101.4 4.5 C 101.8 4.6 101.5 5.4 102.0 5.3 C 102.1 5.3 102.0 5.3 103.1 5.3 C 103.1 5.3 103.1 5.3 103.1 5.3 Z M 78.4 4.4 C 78.6 4.3 78.8 4.7 79.4 4.9 C 80.1 5.0 80.8 5.0 80.7 4.7 C 80.5 4.4 80.3 4.2 80.6 3.8 C 80.9 3.4 81.3 2.7 80.9 2.4 C 80.4 2.2 78.6 1.5 78.1 1.9 C 77.6 2.3 77.4 2.4 77.0 2.7 C 76.6 2.9 76.8 2.1 76.8 2.1 C 76.8 2.1 75.9 2.1 75.2 2.0 C 74.5 2.0 73.7 2.0 73.6 2.2 C 73.5 2.3 73.3 2.6 73.3 2.6 C 73.3 2.6 72.9 2.2 72.4 2.2 C 71.9 2.1 72.1 2.3 72.2 2.5 C 72.3 2.7 72.9 3.2 72.7 3.2 C 72.4 3.2 71.8 2.4 71.4 2.4 C 71.0 2.3 70.2 2.4 70.2 2.4 C 70.2 2.4 70.3 2.9 70.2 3.0 C 70.2 3.1 69.4 3.2 69.3 3.0 C 69.3 2.9 69.3 2.4 68.9 2.4 C 67.7 2.4 67.9 3.2 67.8 3.3 C 67.7 3.3 67.7 2.6 67.3 2.5 C 67.1 2.4 64.6 2.7 64.5 2.9 C 64.4 3.0 63.5 2.5 63.2 2.9 C 62.9 3.4 62.8 3.5 62.7 3.6 C 62.7 3.7 62.3 4.4 62.0 4.2 C 61.8 4.0 62.7 3.1 62.4 2.9 C 62.1 2.7 60.6 2.8 60.3 3.0 C 60.0 3.4 59.9 4.0 59.7 4.0 C 59.5 4.1 58.6 3.3 58.6 3.4 C 58.5 3.6 58.4 4.3 58.5 4.4 C 58.5 4.5 58.3 5.8 58.5 6.0 C 58.7 6.1 59.6 6.5 59.5 6.2 C 59.3 5.8 59.1 5.4 59.4 5.2 C 59.7 5.0 59.8 5.0 59.9 5.1 C 60.0 5.2 59.9 5.4 60.4 5.6 C 60.9 5.8 60.7 6.1 61.2 6.0 C 61.7 6.0 62.1 5.9 62.0 5.6 C 62.0 5.3 62.5 4.9 62.8 4.9 C 63.2 4.9 62.6 5.5 63.8 5.7 C 64.9 5.9 65.6 5.9 65.9 5.6 C 66.2 5.3 66.2 4.6 66.8 4.9 C 67.4 5.2 67.1 5.4 67.8 5.3 C 68.5 5.3 68.8 4.7 69.2 4.6 C 69.7 4.6 69.9 4.6 69.9 4.6 C 69.9 4.6 69.6 5.4 70.7 5.4 C 71.7 5.4 72.0 5.5 71.7 4.9 C 71.5 4.3 72.3 4.2 72.3 4.6 C 72.4 5.0 73.0 5.3 73.4 5.3 C 73.7 5.3 73.8 4.3 74.0 4.3 C 74.1 4.2 74.5 4.3 74.4 4.6 C 74.2 4.9 74.6 5.0 75.0 5.1 C 75.3 5.2 76.3 5.1 76.3 4.9 C 76.2 4.7 75.7 4.1 76.4 4.4 C 77.1 4.7 77.3 5.2 77.9 5.2 C 78.5 5.1 78.0 4.5 78.4 4.4 C 78.4 4.4 78.4 4.4 78.4 4.4 Z M 57.7 6.2 C 58.2 6.6 58.6 6.1 58.5 5.7 C 58.4 5.3 58.2 4.4 58.3 4.1 C 58.5 3.8 59.0 3.1 58.1 3.0 C 57.2 2.9 57.0 3.2 57.0 3.5 C 57.1 3.7 57.0 4.7 56.7 4.7 C 56.5 4.6 56.2 4.3 56.1 4.2 C 56.1 4.1 55.6 3.1 55.2 3.3 C 54.8 3.5 54.4 3.8 54.4 3.8 C 54.2 3.9 53.9 3.9 53.7 3.9 C 53.7 3.9 53.1 3.4 52.6 3.6 C 52.1 3.8 51.6 3.8 51.2 3.8 C 50.9 3.8 50.5 4.0 50.5 4.2 C 50.5 4.4 50.1 5.3 50.1 5.3 C 50.1 5.3 49.6 5.6 49.3 5.5 C 49.1 5.4 49.0 4.9 49.0 4.7 C 49.0 4.6 48.9 4.1 48.6 4.1 C 48.2 4.0 46.6 3.7 46.4 4.1 C 46.2 4.4 46.3 4.7 46.2 4.8 C 46.0 4.9 45.0 5.1 44.9 4.9 C 44.8 4.7 44.8 4.2 44.5 4.3 C 44.2 4.4 43.6 4.3 43.7 4.4 C 43.7 4.6 43.5 4.7 43.5 5.0 C 43.6 5.3 43.0 5.6 42.9 5.8 C 42.8 5.9 42.4 6.0 42.4 6.0 C 42.2 5.9 42.0 5.8 41.8 5.7 C 41.8 5.7 42.0 5.1 42.2 5.0 C 42.3 4.9 42.0 4.6 41.8 4.6 C 41.7 4.5 40.6 4.8 40.6 4.8 C 40.6 5.2 40.7 5.6 40.7 6.0 C 40.5 6.1 40.2 6.2 40.0 6.3 C 40.0 6.3 39.9 5.0 39.4 5.0 C 38.9 5.1 38.3 5.2 38.3 5.2 C 38.3 5.2 37.9 5.8 37.7 5.9 C 37.6 6.0 37.8 7.2 37.8 7.2 C 37.9 7.6 38.0 8.0 38.1 8.5 C 38.1 8.5 38.8 8.9 39.1 8.6 C 39.4 8.4 39.0 7.9 39.0 7.7 C 39.1 7.4 39.5 7.1 39.5 7.1 C 39.8 7.4 40.0 7.6 40.3 7.8 C 40.3 7.8 40.6 8.0 40.8 8.2 C 41.1 8.4 41.9 8.4 42.1 8.3 C 42.3 8.1 42.4 7.8 42.7 7.5 C 42.9 7.3 42.8 6.9 43.2 7.1 C 43.6 7.4 43.8 7.7 44.0 7.7 C 44.1 7.7 44.8 7.1 44.8 7.1 C 45.0 7.0 45.2 6.9 45.4 6.7 C 45.4 6.7 45.9 6.4 46.0 6.7 C 46.1 6.9 47.2 6.5 47.2 6.5 C 47.2 6.5 47.2 7.3 47.5 7.4 C 47.8 7.5 48.3 7.6 48.8 7.4 C 49.2 7.2 49.5 6.4 49.5 6.4 C 49.6 6.6 49.8 6.8 50.0 7.0 C 50.4 7.0 50.8 7.0 51.3 7.0 C 51.3 7.0 52.3 6.8 52.3 6.7 C 52.3 6.6 52.1 5.9 52.1 5.7 C 52.1 5.5 52.7 5.2 52.7 5.4 C 52.8 5.7 53.4 6.3 53.4 6.3 C 53.4 6.3 53.8 6.6 54.1 6.6 C 54.4 6.7 54.9 6.4 55.0 6.2 C 55.1 6.1 55.5 5.5 55.5 5.5 C 55.7 5.7 55.8 5.9 56.0 6.1 C 56.0 6.1 56.8 5.7 57.7 6.2 C 57.7 6.2 57.7 6.2 57.7 6.2 Z M 37.8 9.0 C 38.7 8.8 37.7 6.3 37.2 5.8 C 36.7 5.3 36.1 5.8 35.5 5.8 C 34.8 5.8 35.2 6.6 34.9 6.9 C 34.6 7.2 34.6 6.7 34.4 6.3 C 34.1 6.0 33.2 6.5 32.7 6.6 C 32.1 6.7 31.7 7.6 31.2 7.8 C 30.8 7.9 31.7 8.2 30.9 8.3 C 30.1 8.4 30.4 7.8 31.2 7.4 C 32.1 6.9 30.8 7.0 30.3 7.0 C 29.7 7.0 29.0 7.6 28.6 7.6 C 28.2 7.6 29.1 8.1 27.9 8.4 C 26.8 8.6 27.2 7.8 26.1 8.0 C 24.9 8.2 25.2 8.8 24.7 9.1 C 24.2 9.3 24.2 8.9 23.8 9.0 C 23.3 9.1 22.6 9.1 21.7 9.5 C 20.8 9.9 21.1 10.0 20.7 10.2 C 20.3 10.4 19.6 10.6 19.6 10.6 C 19.5 10.4 19.3 10.2 19.2 10.0 C 19.2 10.0 17.6 10.5 17.2 10.6 C 16.7 10.7 15.8 11.3 16.2 11.4 C 16.5 11.4 15.7 12.2 15.4 12.2 C 15.2 12.2 14.4 12.1 13.9 12.2 C 13.4 12.2 14.2 13.8 14.3 14.0 C 14.3 14.2 14.5 15.2 14.9 15.1 C 15.3 15.0 15.5 14.6 15.5 14.9 C 15.5 15.1 16.6 14.4 16.9 14.3 C 17.3 14.2 17.5 13.4 17.5 13.4 C 17.5 13.4 17.6 12.8 18.2 12.6 C 18.8 12.4 19.4 13.3 19.4 13.3 C 19.4 13.3 20.2 13.2 20.9 13.0 C 21.7 12.7 22.4 11.5 22.5 11.3 C 22.6 11.1 22.8 11.9 23.4 11.8 C 24.0 11.7 25.0 11.7 25.2 11.6 C 25.5 11.5 25.8 10.8 25.8 10.8 C 25.8 10.8 26.9 10.2 27.2 10.1 C 27.5 10.1 27.2 11.0 27.2 11.0 C 27.2 11.0 29.5 10.7 29.8 10.7 C 30.1 10.7 30.4 10.4 30.6 10.3 C 30.8 10.2 30.9 9.1 31.2 9.2 C 31.5 9.2 31.0 9.9 31.4 9.9 C 31.7 9.9 32.3 10.0 32.4 10.0 C 32.6 9.9 32.7 9.6 32.9 9.5 C 33.2 9.4 33.4 8.6 33.8 8.5 C 34.2 8.4 34.5 8.8 34.7 8.9 C 34.8 8.9 35.1 9.5 35.4 9.5 C 35.7 9.5 35.4 9.1 35.7 9.0 C 36.0 9.0 35.9 8.5 36.3 8.5 C 36.6 8.6 36.5 9.4 36.9 9.2 C 37.0 9.1 36.9 9.2 37.8 9.0 C 37.8 9.0 37.8 9.0 37.8 9.0 Z M 14.0 15.4 C 14.6 15.5 14.9 14.9 14.7 14.6 C 14.5 14.3 13.9 13.5 14.0 13.1 C 14.1 12.8 14.4 11.9 13.4 12.2 C 12.4 12.5 12.3 12.8 12.4 13.0 C 12.5 13.2 12.8 14.2 12.5 14.3 C 12.2 14.3 11.9 14.1 11.7 14.1 C 11.6 14.0 10.9 13.2 10.5 13.6 C 10.2 13.9 9.9 14.4 9.9 14.4 C 9.8 14.5 9.6 14.6 9.4 14.7 C 9.4 14.7 8.6 14.5 8.3 14.9 C 8.0 15.2 7.6 15.5 7.3 15.7 C 7.0 15.8 6.8 16.1 6.9 16.3 C 7.0 16.5 7.2 17.4 7.2 17.4 C 7.2 17.4 7.0 17.8 6.8 17.8 C 6.6 17.9 6.2 17.5 6.1 17.4 C 6.0 17.2 5.7 16.9 5.4 17.0 C 5.2 17.2 4.0 17.7 4.1 18.1 C 4.2 18.4 4.5 18.6 4.5 18.7 C 4.5 18.9 4.1 19.5 3.9 19.4 C 3.6 19.3 3.2 19.0 3.2 19.2 C 3.1 19.5 2.8 19.8 2.9 19.8 C 3.0 19.9 3.1 20.1 3.3 20.2 C 3.6 20.3 3.6 20.8 3.7 20.9 C 3.8 21.0 3.8 21.3 3.8 21.3 C 3.6 21.4 3.4 21.4 3.2 21.5 C 3.2 21.5 2.8 21.1 2.8 21.0 C 2.7 20.9 2.3 21.0 2.2 21.1 C 2.2 21.2 2.1 22.0 2.1 22.0 C 2.5 22.1 2.8 22.1 3.2 22.2 C 3.3 22.4 3.3 22.5 3.4 22.7 C 3.4 22.7 2.1 22.6 2.1 22.9 C 2.1 23.3 2.1 23.8 2.1 23.8 C 2.1 23.8 2.7 24.1 2.7 24.2 C 2.8 24.2 4.0 24.0 4.0 24.0 C 4.4 23.9 4.9 23.8 5.3 23.7 C 5.3 23.7 5.7 23.4 5.5 23.3 C 5.3 23.2 4.8 23.3 4.6 23.3 C 4.4 23.3 4.1 23.1 4.1 23.1 C 4.4 22.9 4.7 22.8 4.9 22.8 C 4.9 22.8 5.2 22.7 5.4 22.6 C 5.7 22.6 5.8 22.3 5.8 22.2 C 5.7 22.1 5.4 22.0 5.2 21.8 C 5.0 21.6 4.7 21.4 5.0 21.4 C 5.4 21.4 5.7 21.5 5.8 21.4 C 5.8 21.3 5.6 20.8 5.6 20.8 C 5.5 20.6 5.5 20.5 5.5 20.3 C 5.5 20.3 5.5 19.9 5.7 20.0 C 6.0 20.2 6.2 19.4 6.2 19.4 C 6.2 19.4 6.8 20.0 7.0 20.0 C 7.2 20.0 7.5 19.9 7.6 19.6 C 7.7 19.3 7.4 18.5 7.4 18.5 C 7.6 18.6 7.8 18.7 8.0 18.8 C 8.3 18.7 8.6 18.5 8.9 18.4 C 8.9 18.4 9.5 17.9 9.5 17.7 C 9.4 17.6 8.9 17.1 8.8 16.9 C 8.8 16.7 9.1 16.3 9.2 16.5 C 9.4 16.6 10.1 17.0 10.1 17.0 C 10.1 17.0 10.6 17.1 10.9 17.0 C 11.1 16.9 11.4 16.5 11.4 16.3 C 11.5 16.2 11.7 15.5 11.7 15.5 C 11.9 15.6 12.1 15.8 12.3 15.9 C 12.3 15.9 12.9 15.2 14.0 15.4 C 14.0 15.4 14.0 15.4 14.0 15.4 Z M 5.8 23.7 C 5.6 23.4 3.1 24.2 2.7 24.6 C 2.2 25.0 2.7 25.4 2.8 25.9 C 2.9 26.4 3.6 25.8 4.0 26.0 C 4.3 26.1 3.8 26.3 3.5 26.6 C 3.3 26.9 4.0 27.3 4.3 27.8 C 4.6 28.2 5.6 27.9 5.9 28.2 C 6.2 28.4 6.0 27.6 6.4 28.1 C 6.9 28.6 6.3 28.8 5.6 28.4 C 4.8 28.0 5.4 29.0 5.7 29.4 C 6.1 29.8 7.0 30.0 7.3 30.3 C 7.6 30.6 7.6 29.7 8.1 30.1 C 8.6 30.4 7.9 30.8 8.4 31.3 C 9.0 31.7 9.2 31.1 9.6 31.2 C 10.0 31.2 9.7 31.5 10.0 31.7 C 10.2 31.9 10.5 32.3 11.2 32.5 C 11.9 32.7 11.8 32.4 12.2 32.5 C 12.5 32.6 13.0 32.8 13.0 32.8 C 13.0 33.1 12.9 33.3 12.9 33.5 C 12.9 33.5 14.1 34.1 14.5 34.3 C 14.9 34.5 16.0 34.6 15.8 34.4 C 15.6 34.2 16.7 34.1 16.9 34.3 C 17.0 34.5 17.7 35.0 18.2 35.4 C 18.6 35.7 19.0 34.0 19.1 33.8 C 19.2 33.5 19.8 32.8 19.4 32.5 C 18.9 32.3 18.5 32.5 18.6 32.3 C 18.8 32.1 17.4 31.8 17.1 31.7 C 16.8 31.6 16.1 32.0 16.1 32.0 C 16.1 32.0 15.6 32.4 15.1 32.2 C 14.6 32.0 14.8 30.9 14.8 30.9 C 14.8 30.9 14.3 30.5 13.7 30.2 C 13.1 30.0 12.1 30.5 11.9 30.7 C 11.7 30.8 12.1 30.0 11.8 29.8 C 11.5 29.5 11.1 29.0 11.0 29.0 C 10.8 28.9 10.3 29.3 10.3 29.3 C 10.3 29.3 9.5 29.2 9.4 29.1 C 9.3 29.0 9.9 28.5 9.9 28.5 C 9.9 28.5 9.0 27.6 8.8 27.4 C 8.7 27.2 8.3 27.1 8.1 27.1 C 8.0 27.0 7.1 27.6 7.0 27.4 C 6.9 27.1 7.6 27.0 7.5 26.8 C 7.4 26.6 7.3 26.2 7.2 26.1 C 7.1 26.0 6.8 26.2 6.6 26.1 C 6.5 26.0 5.7 26.2 5.6 26.0 C 5.4 25.8 5.7 25.4 5.7 25.3 C 5.8 25.2 6.3 24.8 6.2 24.7 C 6.2 24.5 5.8 24.8 5.8 24.7 C 5.7 24.5 5.3 24.8 5.3 24.6 C 5.3 24.4 6.1 24.2 5.9 24.1 C 5.9 24.0 5.9 24.1 5.8 23.7 C 5.8 23.7 5.8 23.7 5.8 23.7 Z M 20.5 33.0 C 19.9 32.4 19.2 32.7 19.2 33.0 C 19.1 33.4 19.1 34.4 18.7 34.6 C 18.4 34.8 17.4 35.2 18.5 35.7 C 19.7 36.2 20.0 36.0 20.1 35.8 C 20.2 35.6 20.7 34.7 21.0 34.9 C 21.3 35.1 21.6 35.5 21.6 35.6 C 21.7 35.8 21.9 36.9 22.6 36.9 C 23.2 36.9 23.9 36.8 23.9 36.8 C 24.2 36.9 24.6 37.0 24.9 37.1 C 24.9 37.1 25.7 37.9 26.5 37.9 C 27.3 38.0 28.3 38.2 28.6 38.3 C 28.9 38.5 29.2 38.4 29.3 38.2 C 29.4 38.0 30.0 37.3 30.0 37.3 C 30.0 37.3 30.5 37.2 30.7 37.3 C 30.8 37.5 30.8 38.0 30.7 38.2 C 30.6 38.3 30.6 38.8 30.9 38.9 C 31.1 39.1 32.4 39.8 32.7 39.6 C 32.9 39.4 32.9 39.0 33.1 38.9 C 33.3 38.9 34.2 39.0 34.2 39.3 C 34.3 39.5 34.1 40.0 34.4 40.0 C 34.7 40.0 35.2 40.2 35.2 40.1 C 35.2 40.0 35.4 39.9 35.5 39.6 C 35.6 39.3 36.1 39.2 36.3 39.1 C 36.4 39.0 36.8 39.0 36.8 39.0 C 37.0 39.2 37.1 39.4 37.3 39.5 C 37.3 39.5 36.9 40.0 36.7 40.0 C 36.5 40.1 36.7 40.5 36.9 40.6 C 37.0 40.6 38.1 40.7 38.1 40.7 C 38.2 40.3 38.3 40.0 38.3 39.6 C 38.6 39.6 38.9 39.5 39.2 39.5 C 39.2 39.5 38.8 40.8 39.3 40.9 C 39.8 41.0 40.4 41.1 40.4 41.1 C 40.4 41.1 41.0 40.6 41.2 40.6 C 41.3 40.6 41.6 39.4 41.6 39.4 C 41.6 38.9 41.6 38.5 41.6 38.0 C 41.6 38.0 41.1 37.5 40.8 37.6 C 40.4 37.7 40.6 38.3 40.5 38.5 C 40.4 38.7 39.9 38.9 39.9 38.9 C 39.7 38.6 39.5 38.3 39.3 38.0 C 39.3 38.0 39.2 37.7 39.0 37.4 C 38.8 37.2 38.1 36.9 37.9 37.0 C 37.6 37.0 37.4 37.3 37.1 37.5 C 36.7 37.7 36.7 38.1 36.5 37.7 C 36.2 37.3 36.1 36.9 36.0 36.9 C 35.8 36.9 35.0 37.2 35.0 37.2 C 34.8 37.3 34.6 37.3 34.4 37.4 C 34.4 37.4 33.9 37.5 33.8 37.2 C 33.8 37.0 32.7 37.1 32.7 37.1 C 32.7 37.1 33.0 36.3 32.8 36.1 C 32.6 35.9 32.2 35.6 31.8 35.7 C 31.3 35.7 30.9 36.4 30.9 36.4 C 30.8 36.2 30.7 36.0 30.6 35.8 C 30.3 35.6 29.9 35.5 29.6 35.3 C 29.6 35.3 28.3 35.1 28.3 35.2 C 28.3 35.4 28.3 36.1 28.2 36.3 C 28.0 36.4 27.1 36.4 27.1 36.2 C 27.0 35.9 26.4 35.1 26.4 35.1 C 26.4 35.1 25.9 34.5 25.4 34.4 C 25.0 34.2 24.2 34.2 24.0 34.3 C 23.8 34.4 23.0 34.7 23.0 34.7 C 22.9 34.5 22.7 34.2 22.6 33.9 C 22.6 33.9 21.4 33.9 20.5 33.0 C 20.5 33.0 20.5 33.0 20.5 33.0 Z M 42.1 37.7 C 41.1 37.6 41.4 40.3 41.7 40.9 C 42.0 41.5 42.7 41.2 43.4 41.4 C 44.0 41.6 43.9 40.8 44.4 40.6 C 44.8 40.4 44.6 40.9 44.7 41.3 C 44.8 41.7 45.9 41.5 46.5 41.6 C 47.1 41.8 47.9 41.0 48.5 41.0 C 49.0 41.0 48.1 40.5 49.0 40.6 C 49.9 40.8 49.4 41.2 48.3 41.4 C 47.2 41.5 48.6 41.9 49.2 42.1 C 49.8 42.3 50.8 42.0 51.3 42.1 C 51.8 42.2 51.2 41.4 51.9 41.5 C 52.6 41.6 52.2 42.3 52.9 42.5 C 53.5 42.6 53.5 42.0 53.9 41.9 C 54.3 41.8 54.1 42.2 54.4 42.2 C 54.7 42.3 55.2 42.6 55.9 42.5 C 56.5 42.4 56.4 42.2 56.7 42.2 C 57.0 42.1 57.5 42.2 57.5 42.2 C 57.5 42.4 57.6 42.6 57.6 42.9 C 57.6 42.9 58.8 43.0 59.2 43.1 C 59.5 43.2 60.4 43.0 60.2 42.8 C 59.9 42.6 60.8 42.3 61.0 42.4 C 61.2 42.5 61.8 42.9 62.2 43.1 C 62.6 43.2 62.6 41.5 62.6 41.3 C 62.6 41.0 62.9 40.1 62.6 40.0 C 62.2 39.9 61.9 40.2 62.0 40.0 C 62.1 39.7 60.9 39.9 60.6 39.9 C 60.3 39.8 59.9 40.4 59.9 40.4 C 59.9 40.4 59.6 40.9 59.1 40.9 C 58.6 40.9 58.5 39.8 58.5 39.8 C 58.5 39.8 57.9 39.5 57.3 39.5 C 56.8 39.5 56.0 40.3 55.9 40.5 C 55.7 40.7 55.8 39.9 55.4 39.7 C 55.0 39.6 54.4 39.3 54.3 39.3 C 54.1 39.3 53.7 39.9 53.7 39.9 C 53.7 39.9 52.9 40.1 52.8 40.1 C 52.6 40.1 53.0 39.3 53.0 39.3 C 53.0 39.3 51.4 38.9 51.1 38.8 C 50.8 38.7 50.2 38.9 50.0 38.9 C 49.8 38.9 49.3 39.8 49.0 39.7 C 48.6 39.6 49.4 39.1 49.1 39.0 C 48.7 38.8 48.1 38.6 48.0 38.5 C 47.8 38.5 47.5 38.8 47.2 38.8 C 46.9 38.9 46.5 39.5 46.0 39.5 C 45.6 39.4 45.4 38.9 45.2 38.8 C 45.1 38.7 45.1 38.0 44.7 38.0 C 44.4 37.9 44.5 38.4 44.2 38.3 C 43.9 38.3 43.8 38.8 43.5 38.6 C 43.2 38.5 43.5 37.7 43.1 37.8 C 42.9 37.8 43.1 37.8 42.1 37.7 C 42.1 37.7 42.1 37.7 42.1 37.7 Z M 64.9 40.9 C 64.6 41.0 64.5 40.5 63.9 40.3 C 63.3 40.1 62.6 40.0 62.7 40.4 C 62.8 40.7 63.0 40.9 62.6 41.3 C 62.3 41.6 61.9 42.3 62.3 42.6 C 62.7 42.9 64.3 43.7 64.9 43.4 C 65.5 43.1 65.7 42.9 66.1 42.7 C 66.5 42.5 66.2 43.3 66.2 43.3 C 66.2 43.3 67.1 43.4 67.8 43.5 C 68.4 43.6 69.2 43.7 69.3 43.6 C 69.4 43.4 69.7 43.2 69.7 43.2 C 69.7 43.2 70.0 43.6 70.5 43.7 C 71.0 43.8 70.9 43.5 70.8 43.4 C 70.7 43.2 70.1 42.6 70.4 42.6 C 70.6 42.6 71.2 43.5 71.6 43.6 C 71.9 43.7 72.7 43.6 72.7 43.6 C 72.7 43.6 72.7 43.2 72.7 43.1 C 72.8 43.0 73.6 43.0 73.7 43.1 C 73.7 43.3 73.6 43.8 74.0 43.8 C 75.3 43.9 75.1 43.1 75.2 43.0 C 75.3 43.0 75.3 43.7 75.6 43.8 C 75.9 43.9 78.4 43.9 78.5 43.7 C 78.7 43.6 79.5 44.2 79.9 43.8 C 80.2 43.4 80.3 43.3 80.4 43.2 C 80.5 43.1 81.0 42.4 81.2 42.6 C 81.4 42.9 80.4 43.7 80.7 43.9 C 81.0 44.1 82.6 44.2 82.9 44.0 C 83.2 43.7 83.3 43.0 83.6 43.0 C 83.8 43.0 84.7 43.9 84.7 43.8 C 84.8 43.6 84.9 42.9 84.9 42.8 C 84.9 42.7 85.2 41.4 85.1 41.2 C 84.9 41.1 83.9 40.6 84.1 40.9 C 84.2 41.3 84.4 41.8 84.1 41.9 C 83.7 42.1 83.5 42.1 83.5 41.9 C 83.4 41.8 83.6 41.7 83.0 41.4 C 82.5 41.2 82.8 40.9 82.3 40.9 C 81.8 40.9 81.3 41.0 81.3 41.3 C 81.4 41.5 80.8 41.9 80.5 41.9 C 80.1 41.9 80.7 41.3 79.6 41.0 C 78.4 40.7 77.7 40.7 77.4 40.9 C 77.0 41.1 76.9 41.8 76.4 41.5 C 75.9 41.2 76.2 41.0 75.4 41.0 C 74.7 40.9 74.4 41.5 73.9 41.5 C 73.4 41.5 73.3 41.5 73.3 41.5 C 73.3 41.5 73.6 40.7 72.5 40.6 C 71.5 40.5 71.3 40.4 71.5 41.0 C 71.6 41.6 70.8 41.6 70.8 41.2 C 70.8 40.8 70.2 40.5 69.8 40.5 C 69.5 40.4 69.3 41.4 69.2 41.4 C 69.0 41.5 68.6 41.4 68.8 41.0 C 69.0 40.7 68.6 40.7 68.3 40.5 C 67.9 40.4 67.0 40.4 67.0 40.6 C 67.0 40.8 67.4 41.5 66.8 41.1 C 66.2 40.7 66.0 40.2 65.4 40.2 C 64.8 40.2 65.3 40.8 64.9 40.9 C 64.9 40.9 64.9 40.9 64.9 40.9 Z M 86.0 41.0 C 85.4 40.7 84.9 41.1 85.0 41.5 C 85.1 41.9 85.2 42.8 85.0 43.1 C 84.8 43.4 84.2 44.1 85.2 44.2 C 86.1 44.4 86.3 44.1 86.3 43.9 C 86.3 43.6 86.5 42.6 86.8 42.7 C 87.0 42.8 87.3 43.1 87.4 43.2 C 87.4 43.4 87.8 44.3 88.3 44.2 C 88.7 44.1 89.2 43.8 89.2 43.8 C 89.4 43.8 89.6 43.7 89.9 43.7 C 89.9 43.7 90.5 44.3 91.0 44.2 C 91.6 44.0 92.1 44.0 92.5 44.1 C 92.9 44.1 93.3 44.0 93.4 43.8 C 93.4 43.6 93.9 42.7 93.9 42.7 C 93.9 42.7 94.5 42.5 94.8 42.6 C 95.0 42.8 95.1 43.2 95.0 43.4 C 95.0 43.6 95.0 44.0 95.4 44.1 C 95.8 44.2 97.5 44.6 97.8 44.4 C 98.0 44.1 97.9 43.7 98.1 43.6 C 98.3 43.5 99.4 43.4 99.5 43.7 C 99.6 43.9 99.6 44.4 99.9 44.3 C 100.2 44.3 100.9 44.4 100.9 44.3 C 100.8 44.1 101.1 44.0 101.1 43.7 C 101.1 43.4 101.7 43.2 101.8 43.0 C 102.0 42.9 102.5 42.8 102.5 42.8 C 102.7 43.0 102.9 43.1 103.1 43.3 C 103.1 43.3 102.8 43.8 102.6 43.9 C 102.4 44.0 102.7 44.3 102.9 44.3 C 103.1 44.4 104.3 44.2 104.3 44.2 C 104.3 43.9 104.3 43.5 104.3 43.1 C 104.6 43.0 104.9 42.9 105.2 42.8 C 105.2 42.8 105.1 44.2 105.7 44.1 C 106.3 44.1 107.0 44.1 107.0 44.1 C 107.0 44.1 107.6 43.5 107.7 43.5 C 107.8 43.4 107.8 42.2 107.8 42.2 C 107.8 41.7 107.7 41.3 107.6 40.8 C 107.6 40.8 106.9 40.4 106.6 40.6 C 106.2 40.8 106.5 41.3 106.5 41.5 C 106.4 41.8 105.9 42.0 105.9 42.0 C 105.6 41.8 105.3 41.5 105.1 41.3 C 105.1 41.3 104.8 41.1 104.6 40.8 C 104.3 40.6 103.4 40.5 103.1 40.6 C 102.9 40.7 102.7 41.1 102.3 41.3 C 102.0 41.5 102.1 42.0 101.7 41.6 C 101.3 41.3 101.1 41.0 100.9 41.0 C 100.7 41.0 99.9 41.5 99.9 41.5 C 99.7 41.6 99.5 41.7 99.2 41.8 C 99.2 41.8 98.6 42.1 98.5 41.8 C 98.4 41.5 97.2 41.9 97.2 41.9 C 97.2 41.9 97.3 41.0 97.0 40.9 C 96.7 40.8 96.1 40.6 95.6 40.8 C 95.1 40.9 94.7 41.7 94.7 41.7 C 94.6 41.5 94.4 41.3 94.3 41.1 C 93.8 41.0 93.3 41.0 92.8 40.9 C 92.8 40.9 91.7 41.0 91.7 41.1 C 91.7 41.3 91.9 42.0 91.8 42.1 C 91.7 42.3 91.2 42.6 91.1 42.3 C 91.0 42.1 90.5 41.5 90.5 41.5 C 90.5 41.5 90.1 41.0 89.7 41.0 C 89.4 41.0 88.9 41.2 88.8 41.3 C 88.6 41.5 88.1 42.0 88.1 42.0 C 88.0 41.8 87.9 41.5 87.7 41.3 C 87.7 41.3 86.8 41.6 86.0 41.0 C 86.0 41.0 86.0 41.0 86.0 41.0 Z M 108.1 40.4 C 107.0 40.5 107.9 43.1 108.3 43.6 C 108.8 44.1 109.5 43.7 110.3 43.8 C 111.0 43.8 110.7 43.0 111.1 42.7 C 111.6 42.5 111.4 43.0 111.7 43.4 C 111.9 43.8 113.0 43.4 113.7 43.4 C 114.4 43.3 115.0 42.4 115.5 42.3 C 116.1 42.2 115.0 41.9 116.0 41.9 C 117.0 41.8 116.5 42.4 115.4 42.7 C 114.3 43.1 115.9 43.2 116.6 43.2 C 117.2 43.3 118.2 42.8 118.7 42.8 C 119.2 42.8 118.5 42.2 119.2 42.2 C 119.9 42.1 119.6 42.8 120.3 42.9 C 121.0 42.9 120.9 42.3 121.2 42.1 C 121.6 41.9 121.5 42.3 121.8 42.3 C 122.1 42.4 122.6 42.5 123.3 42.3 C 123.9 42.1 123.7 41.9 124.0 41.8 C 124.3 41.7 124.8 41.7 124.8 41.7 C 124.9 41.9 124.9 42.1 125.0 42.3 C 125.0 42.3 126.2 42.3 126.6 42.3 C 126.9 42.3 127.7 41.9 127.4 41.8 C 127.2 41.6 128.0 41.1 128.1 41.2 C 128.3 41.3 128.9 41.5 129.4 41.6 C 129.8 41.7 129.5 40.0 129.4 39.8 C 129.4 39.6 129.5 38.6 129.2 38.5 C 128.8 38.5 128.6 38.9 128.6 38.6 C 128.6 38.4 127.6 38.7 127.3 38.8 C 127.0 38.8 126.8 39.5 126.8 39.5 C 126.8 39.5 126.5 40.0 126.1 40.1 C 125.6 40.2 125.3 39.1 125.3 39.1 C 125.3 39.1 124.7 39.0 124.1 39.1 C 123.5 39.2 123.0 40.1 122.9 40.4 C 122.8 40.6 122.7 39.7 122.3 39.7 C 121.9 39.6 121.2 39.4 121.1 39.5 C 120.9 39.6 120.7 40.1 120.7 40.1 C 120.7 40.1 119.9 40.5 119.7 40.6 C 119.6 40.6 119.8 39.8 119.8 39.8 C 119.8 39.8 118.1 39.7 117.8 39.6 C 117.5 39.6 116.9 39.9 116.7 39.9 C 116.5 40.0 116.2 41.0 115.8 40.9 C 115.5 40.9 116.1 40.3 115.8 40.2 C 115.4 40.2 114.7 40.0 114.5 40.0 C 114.3 40.0 114.1 40.4 113.8 40.5 C 113.5 40.5 113.1 41.3 112.7 41.3 C 112.2 41.4 111.9 40.9 111.7 40.9 C 111.5 40.8 111.3 40.1 111.0 40.1 C 110.6 40.1 110.9 40.6 110.5 40.6 C 110.1 40.6 110.2 41.1 109.8 41.0 C 109.4 40.9 109.6 40.1 109.2 40.3 C 109.0 40.3 109.2 40.3 108.1 40.4 C 108.1 40.4 108.1 40.4 108.1 40.4 Z M 130.0 38.5 C 129.5 38.2 129.1 38.7 129.2 39.1 C 129.3 39.5 129.6 40.4 129.5 40.7 C 129.3 41.0 128.8 41.8 129.7 41.8 C 130.6 41.8 130.8 41.5 130.7 41.3 C 130.7 41.1 130.7 40.0 131.0 40.1 C 131.2 40.1 131.5 40.4 131.6 40.5 C 131.6 40.6 132.1 41.6 132.5 41.4 C 132.9 41.2 133.2 40.8 133.2 40.8 C 133.4 40.8 133.6 40.7 133.9 40.7 C 133.9 40.7 134.5 41.2 134.9 41.0 C 135.4 40.8 135.9 40.7 136.2 40.7 C 136.6 40.7 136.9 40.6 136.9 40.3 C 136.9 40.1 137.2 39.2 137.2 39.2 C 137.2 39.2 137.7 38.9 137.9 39.0 C 138.2 39.1 138.3 39.5 138.3 39.7 C 138.3 39.9 138.4 40.4 138.7 40.4 C 139.1 40.4 140.6 40.6 140.7 40.3 C 140.9 40.0 140.8 39.7 140.9 39.5 C 141.1 39.4 142.0 39.2 142.1 39.4 C 142.2 39.6 142.3 40.2 142.5 40.0 C 142.8 40.0 143.3 40.0 143.3 39.9 C 143.3 39.7 143.4 39.5 143.4 39.3 C 143.4 39.0 143.8 38.7 143.9 38.5 C 144.0 38.4 144.4 38.2 144.4 38.2 C 144.6 38.3 144.8 38.5 145.0 38.6 C 145.0 38.6 144.8 39.1 144.7 39.3 C 144.5 39.4 144.8 39.6 145.0 39.7 C 145.2 39.7 146.1 39.4 146.1 39.4 C 146.1 39.0 146.0 38.6 145.9 38.2 C 146.2 38.1 146.4 38.0 146.6 37.8 C 146.6 37.8 146.8 39.2 147.2 39.1 C 147.7 39.0 148.3 38.9 148.3 38.9 C 148.3 38.9 148.6 38.3 148.7 38.2 C 148.8 38.1 148.6 36.9 148.6 36.9 C 148.5 36.5 148.3 36.0 148.2 35.6 C 148.2 35.6 147.5 35.3 147.3 35.5 C 147.0 35.8 147.4 36.2 147.4 36.4 C 147.4 36.7 147.0 37.0 147.0 37.0 C 146.7 36.8 146.5 36.6 146.2 36.4 C 146.2 36.4 146.0 36.2 145.7 36.0 C 145.5 35.8 144.8 35.8 144.6 36.0 C 144.4 36.1 144.2 36.5 144.0 36.7 C 143.8 37.0 144.0 37.4 143.6 37.2 C 143.2 36.9 143.0 36.6 142.8 36.6 C 142.7 36.6 142.1 37.2 142.1 37.2 C 141.9 37.4 141.7 37.5 141.6 37.6 C 141.6 37.6 141.1 38.0 141.0 37.7 C 140.9 37.4 139.9 38.0 139.9 38.0 C 139.9 38.0 139.8 37.1 139.5 37.0 C 139.2 36.9 138.8 36.8 138.4 37.0 C 138.0 37.2 137.8 38.1 137.8 38.1 C 137.6 37.9 137.4 37.7 137.3 37.5 C 136.8 37.6 136.4 37.6 136.0 37.6 C 136.0 37.6 135.1 37.8 135.1 37.9 C 135.1 38.0 135.3 38.7 135.3 38.9 C 135.3 39.1 134.8 39.4 134.7 39.2 C 134.6 39.0 134.1 38.4 134.1 38.4 C 134.1 38.4 133.6 38.0 133.3 38.0 C 133.1 38.0 132.6 38.3 132.5 38.5 C 132.5 38.6 132.1 39.2 132.1 39.2 C 131.9 39.0 131.8 38.8 131.6 38.6 C 131.6 38.6 130.9 39.0 130.0 38.5 C 130.0 38.5 130.0 38.5 130.0 38.5 Z M 130.0 38.5 " fill="#C03520"></path></g></svg>