<?xml version="1.0" encoding="UTF-8" standalone="no"?><svg xmlns="http://www.w3.org/2000/svg" xmlns:xlink="http://www.w3.org/1999/xlink" clip-rule="evenodd" stroke-miterlimit="4.00" viewBox="0 0 477 77"><desc>SVG generated by Keynote</desc><defs></defs><g transform="matrix(1.00, 0.00, -0.00, -1.00, 0.0, 77.0)"><text xml:space="preserve" font-family="Chalkduster" font-size="50.0" fill="#FEFFFE" transform="matrix(1.00, 0.00, -0.00, -1.00, 0.0, 29.0)">S</text><text xml:space="preserve" font-family="Chalkduster" font-size="50.0" fill="#FEFFFE" transform="matrix(1.00, 0.00, -0.00, -1.00, 24.9, 29.0)">t</text><text xml:space="preserve" font-family="Chalkduster" font-size="50.0" fill="#FEFFFE" transform="matrix(1.00, 0.00, -0.00, -1.00, 47.2, 29.0)">a</text><text xml:space="preserve" font-family="Chalkduster" font-size="50.0" fill="#FEFFFE" transform="matrix(1.00, 0.00, -0.00, -1.00, 81.6, 29.0)">n</text><text xml:space="preserve" font-family="Chalkduster" font-size="50.0" fill="#FEFFFE" transform="matrix(1.00, 0.00, -0.00, -1.00, 118.3, 29.0)">d</text><text xml:space="preserve" font-family="Chalkduster" font-size="50.0" fill="#FEFFFE" transform="matrix(1.00, 0.00, -0.00, -1.00, 157.4, 29.0)">a</text><text xml:space="preserve" font-family="Chalkduster" font-size="50.0" fill="#FEFFFE" transform="matrix(1.00, 0.00, -0.00, -1.00, 189.2, 29.0)">r</text><text xml:space="preserve" font-family="Chalkduster" font-size="50.0" fill="#FEFFFE" transform="matrix(1.00, 0.00, -0.00, -1.00, 215.9, 29.0)">d</text><text xml:space="preserve" font-family="Chalkduster" font-size="50.0" fill="#FEFFFE" transform="matrix(1.00, 0.00, -0.00, -1.00, 255.0, 29.0)"> </text><text xml:space="preserve" font-family="Chalkduster" font-size="50.0" fill="#FEFFFE" transform="matrix(1.00, 0.00, -0.00, -1.00, 279.8, 29.0)">L</text><text xml:space="preserve" font-family="Chalkduster" font-size="50.0" fill="#FEFFFE" transform="matrix(1.00, 0.00, -0.00, -1.00, 311.5, 29.0)">i</text><text xml:space="preserve" font-family="Chalkduster" font-size="50.0" fill="#FEFFFE" transform="matrix(1.00, 0.00, -0.00, -1.00, 331.2, 29.0)">b</text><text xml:space="preserve" font-family="Chalkduster" font-size="50.0" fill="#FEFFFE" transform="matrix(1.00, 0.00, -0.00, -1.00, 360.3, 29.0)">r</text><text xml:space="preserve" font-family="Chalkduster" font-size="50.0" fill="#FEFFFE" transform="matrix(1.00, 0.00, -0.00, -1.00, 386.7, 29.0)">a</text><text xml:space="preserve" font-family="Chalkduster" font-size="50.0" fill="#FEFFFE" transform="matrix(1.00, 0.00, -0.00, -1.00, 418.5, 29.0)">r</text><text xml:space="preserve" font-family="Chalkduster" font-size="50.0" fill="#FEFFFE" transform="matrix(1.00, 0.00, -0.00, -1.00, 446.7, 29.0)">y</text></g></svg>