<?xml version="1.0" encoding="UTF-8" standalone="no"?><svg xmlns="http://www.w3.org/2000/svg" xmlns:xlink="http://www.w3.org/1999/xlink" clip-rule="evenodd" stroke-miterlimit="4.00" viewBox="0 0 1024 768"><desc>SVG generated by Keynote</desc><defs><pattern id="FDCC409C-370C-4786-9ADB-CEF73CE6F9F2" patternUnits="userSpaceOnUse" width="738" height="738" viewBox="0 0 738 738" patternTransform="matrix(0.542005, 0.000000, 0.000000, -0.542005, 142.410900, 63.828930)"><image xlink:href="../../44C12444-724C-48C3-8E70-A2784DD400CE/assets/25F00FA72F972CE9869197762536879F.jpeg" width="738.00" height="738.00"></image></pattern><pattern id="94409AE5-D9AE-4768-9634-FEB0A4460059" patternUnits="userSpaceOnUse" width="738" height="738" viewBox="0 0 738 738" patternTransform="matrix(0.542005, 0.000000, 0.000000, -0.542005, 141.675200, 107.892000)"><image xlink:href="../../44C12444-724C-48C3-8E70-A2784DD400CE/assets/25F00FA72F972CE9869197762536879F.jpeg" width="738.00" height="738.00"></image></pattern></defs><g transform="matrix(1.00, 0.00, -0.00, -1.00, 0.0, 768.0)"><g><clipPath id="clip-42"><path d="M 0.0 768.0 L 1024.0 768.0 L 1024.0 0.0 L 0.0 0.0 Z M 0.0 768.0 "></path></clipPath><g clip-path="url(#clip-42)"><image xlink:href="../../86BB661C-AAFE-46F2-89B5-B98D6D644DD8/assets/DE78B55DDE70D88C6FF874E8D33A46A3.jpeg" width="1024.00" height="768.00" transform="matrix(1.00, 0.00, -0.00, -1.00, 0.0, 768.0)"></image></g></g><image xlink:href="../../86BB661C-AAFE-46F2-89B5-B98D6D644DD8/assets/610DE41026624E3AEF638D24E71EF355.png" width="74.00" height="62.00" transform="matrix(1.00, 0.00, -0.00, -1.00, 949.0, 64.0)"></image><image xlink:href="../../86BB661C-AAFE-46F2-89B5-B98D6D644DD8/assets/C79B4846A618BF06956E5E1178655E37.png" width="40.00" height="40.00" transform="matrix(1.00, 0.00, -0.00, -1.01, 966.2, 53.0)" opacity="0.50"></image><g><clipPath id="clip-43"><path d="M 996.7 43.5 C 1002.5 37.6 1002.5 28.0 996.7 22.0 C 990.9 16.1 981.4 16.1 975.6 22.0 C 969.7 28.0 969.7 37.6 975.6 43.5 C 981.4 49.5 990.9 49.5 996.7 43.5 Z M 996.7 43.5 "></path></clipPath><g clip-path="url(#clip-43)"><image xlink:href="../../86BB661C-AAFE-46F2-89B5-B98D6D644DD8/assets/DE78B55DDE70D88C6FF874E8D33A46A3.jpeg" width="1024.00" height="768.00" transform="matrix(0.04, 0.00, -0.00, -0.04, 965.9, 48.0)"></image></g></g><text xml:space="preserve" font-family="HoboStd" font-size="18.0" fill="#E5CC77" transform="matrix(1.00, 0.00, -0.00, -1.00, 981.0, 26.0)">6</text><path d="M 655.2 430.9 C 734.3 405.0 734.3 363.0 655.2 337.1 C 576.1 311.3 447.9 311.3 368.8 337.1 C 289.7 363.0 289.7 405.0 368.8 430.9 C 447.9 456.7 576.1 456.7 655.2 430.9 Z M 655.2 430.9 " fill="#A8E685"></path><path d="M 406.0 323.6 C 405.4 323.7 404.7 323.9 403.6 324.1 C 404.1 324.1 404.5 324.1 404.4 324.2 C 405.3 323.9 406.6 323.7 408.4 323.3 C 408.3 323.3 407.4 323.5 406.8 323.6 C 406.0 323.7 406.1 323.6 406.0 323.6 C 406.0 323.6 406.0 323.6 406.0 323.6 Z M 395.3 441.6 C 393.7 441.2 395.4 441.8 396.0 442.0 C 396.1 441.9 396.2 441.9 396.8 442.1 C 396.9 442.3 395.5 442.0 394.4 441.9 C 390.2 440.8 393.4 441.1 395.3 441.6 C 395.3 441.6 395.3 441.6 395.3 441.6 Z M 622.5 442.8 C 625.9 442.1 622.2 442.6 621.7 442.6 C 623.3 442.2 621.9 442.1 623.9 441.7 C 624.3 441.7 625.1 441.6 625.5 441.6 C 624.6 441.8 623.3 442.1 623.2 442.2 C 624.4 442.0 626.0 441.6 626.3 441.6 C 623.7 442.3 625.9 442.0 626.4 442.0 C 624.0 442.5 623.3 442.9 622.5 442.8 C 622.5 442.8 622.5 442.8 622.5 442.8 Z M 676.2 342.3 C 677.5 342.8 678.5 343.3 678.2 343.3 C 676.8 342.7 675.9 342.3 675.2 341.9 C 674.9 341.9 675.3 342.2 674.1 341.7 C 672.7 340.9 673.5 340.9 674.3 341.1 C 674.3 341.3 678.9 343.3 676.2 342.3 C 676.2 342.3 676.2 342.3 676.2 342.3 Z M 582.6 319.6 C 579.4 319.1 582.4 319.9 579.2 319.4 C 579.3 319.2 578.8 318.9 581.0 319.1 C 581.1 319.3 582.3 319.4 582.6 319.6 C 582.6 319.6 582.6 319.6 582.6 319.6 Z M 527.0 451.4 C 527.0 451.6 529.4 451.4 528.8 451.7 C 527.6 451.7 526.5 451.7 525.3 451.8 C 525.0 451.6 525.5 451.5 527.0 451.4 C 527.0 451.4 527.0 451.4 527.0 451.4 Z M 644.3 435.0 C 647.7 434.4 650.9 433.0 650.0 433.5 C 651.3 433.4 648.0 434.9 648.0 434.6 C 647.6 434.4 641.8 435.8 644.3 435.0 C 644.3 435.0 644.3 435.0 644.3 435.0 Z M 414.0 441.2 C 417.8 442.0 417.1 441.2 419.6 442.0 C 418.7 441.8 418.3 441.8 418.0 441.9 C 418.6 442.0 419.5 442.1 419.5 442.2 C 417.7 441.9 415.5 441.6 414.0 441.2 C 414.0 441.2 414.0 441.2 414.0 441.2 Z M 462.6 316.4 C 463.3 316.3 463.6 316.2 463.5 316.2 C 466.2 316.0 466.1 315.8 467.8 315.8 C 468.0 316.1 465.7 316.2 463.5 316.3 C 463.5 316.4 462.8 316.5 462.6 316.4 C 462.6 316.4 462.6 316.4 462.6 316.4 Z M 540.3 315.9 C 540.2 315.7 538.6 315.6 541.2 315.7 C 544.1 316.1 541.5 316.2 538.5 316.2 C 538.5 316.3 538.5 316.4 538.5 316.5 C 539.7 316.5 540.4 316.6 541.1 316.7 C 541.6 316.3 543.6 317.1 548.1 317.1 C 546.0 317.2 548.3 317.6 545.5 317.3 C 546.2 317.6 544.2 317.5 544.6 317.7 C 545.8 317.6 548.8 317.8 548.1 317.5 C 549.6 317.5 550.8 317.6 551.6 317.8 C 552.7 318.1 548.8 317.6 549.9 318.0 C 550.7 318.0 550.9 318.1 551.6 318.2 C 551.7 318.1 551.4 317.9 552.4 318.0 C 555.2 318.3 551.9 318.2 555.9 318.5 C 556.1 318.4 555.0 318.3 555.1 318.1 C 556.8 318.1 556.7 318.3 558.5 318.3 C 558.9 318.5 557.2 318.4 558.5 318.6 C 559.6 318.3 562.1 319.1 564.6 319.0 C 562.9 318.3 565.0 319.1 567.2 318.8 C 567.7 319.0 566.1 319.2 568.0 319.4 C 567.4 318.7 575.1 319.6 568.9 318.5 C 572.2 318.8 573.3 318.4 570.7 318.1 C 576.4 318.8 574.6 318.3 576.8 318.5 C 578.9 318.8 575.6 318.5 576.7 318.8 C 574.4 318.6 575.0 318.8 573.3 318.5 C 573.3 318.6 572.9 318.6 572.4 318.6 C 574.7 318.7 577.4 319.3 575.7 319.4 C 574.6 319.3 575.7 319.1 574.1 318.9 C 574.6 319.4 572.4 318.7 572.3 318.9 C 573.4 319.3 570.0 319.3 573.2 319.6 C 573.2 319.5 573.2 319.4 573.2 319.3 C 574.1 319.3 574.9 319.4 575.7 319.5 C 576.4 319.8 575.8 319.9 576.6 320.1 C 578.0 320.3 578.7 320.3 579.2 320.2 C 577.4 320.0 575.4 319.5 578.3 319.8 C 577.2 320.2 582.3 320.4 580.0 320.4 C 583.1 320.9 584.7 320.7 585.0 321.1 C 586.6 321.3 585.6 320.9 587.5 321.2 C 590.6 321.8 590.1 321.4 594.1 322.2 C 594.7 321.8 594.5 322.3 595.8 322.5 C 595.8 322.4 595.9 322.2 595.9 322.1 C 597.3 322.5 600.5 323.1 604.0 323.4 C 604.8 323.7 604.2 323.8 606.4 324.1 C 608.8 324.2 611.5 325.0 614.3 325.2 C 614.5 325.4 616.5 325.8 617.5 325.9 C 617.9 326.1 616.5 326.1 618.2 326.5 C 619.4 326.5 617.4 326.0 619.8 326.4 C 619.6 326.6 622.1 326.7 622.2 326.9 C 621.4 326.9 620.5 326.8 619.8 326.7 C 620.8 326.9 620.5 327.0 621.3 327.2 C 621.2 326.8 623.1 327.5 623.6 327.7 C 623.6 327.5 623.9 327.5 624.5 327.5 C 625.8 327.8 626.9 328.0 627.5 328.1 C 629.2 328.6 626.5 328.1 628.2 328.5 C 629.2 328.1 630.7 329.2 634.3 329.6 C 635.0 330.0 636.5 330.5 638.7 331.1 C 638.9 331.0 636.5 330.5 636.5 330.3 C 639.7 331.2 636.0 330.0 638.0 330.5 C 642.6 331.8 645.5 332.6 650.1 334.2 C 650.1 334.0 653.7 335.0 653.6 335.1 C 652.6 334.8 655.3 335.9 657.9 336.8 C 658.7 336.7 662.8 337.7 663.1 337.6 C 663.9 338.1 663.7 338.1 664.0 338.6 C 668.2 340.2 670.4 340.7 672.7 342.1 C 672.5 341.9 674.4 342.6 675.9 343.2 C 675.4 343.2 674.5 342.9 673.6 342.7 C 675.6 343.6 675.9 343.8 677.6 344.6 C 679.6 344.7 682.0 346.8 683.5 346.9 C 686.1 348.2 685.5 348.2 687.7 349.4 C 687.7 349.3 688.0 349.3 688.7 349.6 C 687.2 348.8 686.0 348.4 685.3 347.7 C 688.7 349.5 679.0 343.7 684.8 346.4 C 685.0 346.6 684.4 346.5 685.6 347.2 C 688.8 348.8 687.0 347.5 685.7 346.9 C 687.9 347.9 690.0 349.2 688.5 348.0 C 693.3 350.6 690.2 349.1 691.7 350.2 C 699.8 354.8 708.0 361.2 712.5 368.9 C 713.0 369.0 715.0 373.3 715.3 374.7 C 716.4 376.8 716.9 379.2 716.7 379.9 C 717.1 380.2 716.9 382.6 717.1 382.9 C 717.1 381.9 717.1 381.2 717.3 382.2 C 717.4 385.5 716.4 390.3 715.9 392.3 C 715.2 393.3 714.5 395.4 713.9 396.8 C 713.6 397.0 714.1 395.8 713.6 396.7 C 713.6 397.0 712.0 400.0 711.4 400.6 C 712.0 399.8 712.4 398.6 711.5 399.9 C 711.6 400.0 710.5 401.5 711.0 401.2 C 709.5 403.0 708.7 404.1 707.3 405.5 C 708.4 404.3 708.9 403.5 708.9 403.1 C 708.2 404.3 707.5 405.1 706.5 405.8 C 707.0 405.8 705.3 407.3 703.5 409.1 C 702.9 409.5 702.4 409.7 700.8 411.0 C 700.1 411.8 703.5 409.2 701.7 410.7 C 701.6 410.6 699.8 411.9 700.4 411.8 C 698.1 413.4 696.8 414.5 694.7 415.7 C 697.3 414.0 695.2 415.0 694.5 415.4 C 693.9 415.8 693.0 416.4 693.0 416.4 C 693.1 416.5 694.4 415.6 694.6 415.6 C 692.7 416.7 692.4 417.4 691.6 417.6 C 692.4 417.1 692.5 416.9 691.5 417.5 C 691.4 418.0 685.3 421.1 687.3 419.8 C 687.4 419.9 689.7 418.6 689.9 418.4 C 689.2 418.6 685.7 420.7 686.4 420.0 C 688.4 418.9 688.3 419.2 690.6 417.7 C 690.7 417.5 692.0 416.6 692.8 416.0 C 689.3 418.2 688.5 418.9 687.9 418.9 C 686.3 419.9 687.5 419.6 684.5 421.0 C 680.4 423.1 683.7 421.1 682.6 421.6 C 678.9 423.6 680.2 423.3 681.9 422.7 C 678.9 424.2 678.0 424.8 674.1 426.4 C 674.2 426.2 674.7 425.8 676.0 425.2 C 676.2 425.2 679.4 423.9 679.1 423.9 C 678.6 423.7 676.1 424.8 671.7 426.5 C 672.9 426.4 673.0 426.2 668.5 428.0 C 669.4 428.0 666.4 428.7 666.3 429.0 C 666.6 429.0 668.2 428.4 669.7 427.8 C 669.6 428.0 669.2 428.3 667.7 428.9 C 666.7 429.2 666.0 429.6 663.1 430.5 C 662.8 430.4 664.8 429.6 665.2 429.3 C 663.7 429.9 663.4 430.2 661.8 430.8 C 660.3 431.0 660.3 430.7 660.4 430.3 C 662.2 429.6 665.0 428.6 662.7 429.3 C 669.4 426.8 662.5 429.7 665.0 428.8 C 667.6 427.5 666.4 428.5 670.5 426.8 C 671.7 426.2 672.1 426.0 672.6 425.7 C 672.3 425.8 669.8 426.5 672.5 425.4 C 673.1 425.3 674.6 424.8 676.7 423.9 C 676.6 423.8 672.4 425.6 676.6 423.7 C 678.6 422.8 676.9 424.0 679.6 422.7 C 679.6 422.6 680.3 422.2 680.5 422.1 C 676.6 424.0 681.2 421.5 678.5 422.7 C 681.8 421.0 679.2 422.6 681.4 421.5 C 681.4 421.4 684.9 419.9 684.9 419.6 C 683.7 420.4 681.0 421.7 681.2 421.3 C 683.7 420.1 693.6 414.2 690.0 416.8 C 691.3 415.8 697.5 411.2 697.2 411.7 C 695.4 413.0 695.5 413.1 695.3 413.4 C 698.7 410.7 700.5 409.6 703.2 406.6 C 700.0 409.6 702.2 407.0 700.0 408.6 C 699.0 409.4 697.6 410.4 697.4 410.7 C 698.0 410.6 699.5 409.3 700.0 408.7 C 700.1 408.9 700.3 409.0 700.4 409.2 C 696.3 412.3 693.7 414.1 691.3 415.5 C 693.3 414.2 687.2 417.6 689.6 416.1 C 690.7 415.6 693.1 414.2 695.0 412.9 C 695.0 412.9 694.9 412.8 694.9 412.7 C 695.7 412.2 696.8 411.4 696.8 411.3 C 694.4 413.1 692.8 413.8 691.1 415.1 C 691.0 415.1 691.0 415.0 691.0 415.0 C 690.5 415.2 690.1 415.5 690.2 415.4 C 691.1 414.8 692.4 414.0 692.5 413.9 C 690.5 415.1 690.0 415.1 687.6 416.4 C 688.0 415.9 684.7 417.4 688.1 415.3 C 688.8 415.2 690.6 414.2 690.6 414.4 C 691.6 413.8 693.5 412.6 694.3 411.9 C 693.3 412.3 691.4 413.5 691.1 413.4 C 692.6 412.4 693.7 411.5 694.7 411.1 C 691.9 413.2 696.4 410.1 697.6 409.6 C 697.3 409.7 696.6 410.1 696.1 410.3 C 698.3 408.7 699.3 408.1 699.2 407.7 C 701.5 405.7 701.2 406.3 702.6 404.9 C 701.4 405.6 703.5 403.9 702.3 404.6 C 704.7 402.3 703.2 404.1 704.0 403.3 C 704.7 402.6 704.7 402.4 705.3 401.7 C 706.4 400.8 708.0 398.7 708.5 398.5 C 709.1 397.6 709.3 397.5 709.8 396.6 C 709.9 396.3 710.0 395.9 710.2 395.5 C 710.4 395.4 710.8 394.7 710.8 394.5 C 709.2 396.9 709.6 396.2 707.5 398.7 C 707.4 398.9 707.2 399.3 707.7 398.8 C 706.4 400.7 705.8 401.1 704.3 402.7 C 704.0 402.7 703.5 402.8 702.1 404.4 C 702.3 403.9 701.9 404.2 702.4 403.6 C 703.3 402.9 704.3 402.0 705.3 400.9 C 705.4 400.8 705.1 400.9 705.6 400.3 C 706.1 399.9 706.8 399.1 707.2 398.4 C 707.3 398.4 707.2 398.7 707.0 399.0 C 708.9 396.7 708.0 397.3 709.2 395.6 C 708.9 395.8 708.2 396.9 708.7 395.9 C 709.6 394.2 709.9 393.9 710.4 393.1 C 710.4 392.9 710.2 393.0 710.4 392.5 C 711.1 391.4 709.7 395.3 710.9 393.4 C 710.8 393.1 711.7 391.1 711.9 390.9 C 711.9 391.6 711.1 392.7 711.2 392.9 C 712.9 389.1 712.0 392.9 713.0 389.0 C 712.9 389.0 712.8 389.0 712.7 388.9 C 712.4 390.5 712.1 390.5 711.9 390.3 C 711.5 391.7 711.0 392.1 710.6 393.2 C 710.4 392.6 711.1 392.1 711.6 390.8 C 711.4 390.7 710.9 391.9 710.6 392.0 C 712.1 389.0 711.9 388.3 712.5 385.4 C 712.1 386.1 712.5 383.8 712.3 384.0 C 712.3 386.5 711.6 385.4 711.5 385.8 C 711.4 387.4 711.9 386.8 711.8 387.8 C 711.5 388.2 711.4 387.9 711.1 387.6 C 711.5 386.2 711.4 386.4 711.4 385.3 C 711.6 384.4 712.1 383.6 712.2 384.9 C 712.2 384.6 712.0 382.7 712.2 382.6 C 712.3 384.4 712.3 382.4 712.4 383.5 C 712.6 382.1 711.9 379.6 711.5 377.7 C 711.4 377.9 711.2 377.3 711.1 377.4 C 711.9 379.1 711.5 379.5 711.7 381.2 C 711.6 380.5 711.5 380.9 711.4 381.2 C 711.3 379.6 710.9 378.8 710.7 377.5 C 710.6 377.5 710.6 377.6 710.5 377.6 C 710.0 375.5 710.0 375.8 709.0 374.4 C 708.8 373.7 709.6 374.3 710.0 374.5 C 709.5 373.8 708.0 371.0 708.7 372.7 C 707.7 371.1 708.3 371.3 707.0 369.7 C 706.8 369.8 707.9 371.3 707.2 370.9 C 706.2 369.4 707.1 370.1 705.9 369.0 C 706.0 368.8 706.2 368.6 705.0 367.3 C 705.7 368.4 704.9 367.2 704.4 367.0 C 704.9 367.6 705.3 368.2 705.5 368.5 C 703.6 366.1 703.1 365.6 701.0 363.8 C 702.0 364.3 700.9 363.1 702.3 364.4 C 701.0 363.3 699.4 361.5 698.5 361.0 C 699.4 361.8 700.8 363.0 701.2 363.6 C 697.0 359.8 694.0 358.1 689.0 354.6 C 689.9 355.1 691.1 355.9 691.3 356.0 C 690.7 355.6 689.8 355.0 689.8 354.9 C 691.6 356.1 693.3 357.2 694.2 357.7 C 695.6 358.8 693.2 357.3 694.7 358.4 C 695.0 358.4 697.6 360.5 696.8 359.5 C 694.3 357.9 691.9 356.0 690.8 354.9 C 688.0 353.7 690.6 355.2 687.3 353.8 C 687.5 353.7 686.8 353.3 685.9 352.7 C 686.7 353.6 682.9 351.3 682.4 351.0 C 684.0 351.7 689.5 354.6 686.9 352.7 C 687.9 354.0 680.4 349.1 681.7 350.3 C 677.9 348.4 679.4 348.8 677.1 348.1 C 677.1 347.9 677.4 347.9 676.3 347.4 C 675.2 346.9 674.7 346.8 674.2 346.7 C 680.0 349.4 678.1 348.9 681.6 350.7 C 681.0 350.4 680.4 350.1 680.6 350.3 C 680.5 350.3 680.4 350.3 679.7 349.9 C 679.5 349.5 676.8 348.6 676.0 348.0 C 677.1 348.5 678.2 349.0 677.9 348.7 C 673.3 346.6 674.4 346.6 667.1 343.6 C 669.3 344.6 666.4 343.5 663.8 342.6 C 660.1 341.2 661.7 341.3 656.9 339.7 C 657.1 340.1 655.2 339.5 654.1 339.0 C 653.0 338.6 651.4 338.1 649.7 337.7 C 650.2 337.5 645.9 336.1 644.9 336.1 C 644.8 336.0 643.2 335.6 642.1 335.3 C 641.9 335.0 643.2 335.4 642.2 335.0 C 641.2 334.8 642.0 335.3 640.7 335.0 C 639.2 334.5 639.6 334.3 637.2 333.7 C 637.1 333.9 638.4 334.2 637.1 334.0 C 635.1 333.4 633.3 332.9 634.9 333.6 C 631.8 332.9 633.4 332.8 630.5 332.1 C 631.4 332.4 631.3 332.5 629.8 332.2 C 628.7 331.7 628.7 331.6 628.3 331.4 C 627.4 331.4 627.7 331.5 625.3 330.9 C 625.3 331.0 625.2 331.1 625.2 331.2 C 624.1 331.0 622.5 330.7 622.2 330.5 C 624.3 331.0 623.7 330.6 624.5 330.7 C 622.5 330.2 618.5 329.2 621.5 330.1 C 618.6 329.6 620.0 329.6 617.7 329.1 C 619.1 329.7 617.8 329.2 615.3 328.7 C 615.5 329.1 613.7 328.5 612.2 328.2 C 612.4 328.5 612.0 328.5 610.6 328.3 C 610.7 328.1 609.8 327.9 608.2 327.7 C 608.2 327.8 611.5 328.5 608.2 327.9 C 606.7 327.5 606.7 327.3 604.2 326.8 C 603.7 326.5 606.5 327.0 605.9 326.7 C 603.9 326.6 603.3 326.3 600.3 325.8 C 601.4 326.4 594.2 325.4 597.7 326.2 C 596.7 326.0 595.2 326.1 594.4 325.8 C 595.6 325.9 593.6 325.4 593.7 325.3 C 592.2 325.2 588.9 324.6 588.8 324.7 C 591.9 325.1 591.9 325.3 592.8 325.6 C 588.3 325.1 584.2 324.5 584.6 324.3 C 584.6 324.3 583.9 324.3 583.7 324.3 C 585.4 324.5 586.4 325.0 584.5 324.8 C 584.9 324.6 583.6 324.4 582.1 324.1 C 582.0 324.3 575.9 323.3 577.0 323.8 C 579.5 323.8 581.4 324.4 579.5 324.4 C 578.0 324.0 574.6 323.5 575.4 323.3 C 574.5 323.3 573.6 323.3 572.8 323.3 C 572.0 323.5 573.9 323.6 573.6 323.8 C 572.4 323.7 570.5 323.5 570.2 323.4 C 573.6 323.7 568.5 323.1 572.0 323.2 C 569.8 323.0 569.4 322.8 567.7 322.7 C 567.7 322.7 567.0 322.7 566.8 322.7 C 568.4 322.7 569.8 323.0 569.4 323.2 C 566.3 323.0 566.9 322.7 564.3 322.5 C 563.5 322.6 560.0 322.6 558.2 322.3 C 561.7 322.6 558.0 322.2 560.0 322.2 C 563.1 322.6 563.9 322.5 565.1 322.3 C 563.8 322.1 561.2 321.8 560.9 322.1 C 562.5 322.2 562.5 322.1 563.5 322.1 C 563.4 322.3 562.9 322.3 561.7 322.3 C 560.3 322.0 557.1 321.9 559.2 321.8 C 557.0 321.7 554.6 321.3 552.3 321.3 C 554.8 321.5 556.7 321.8 557.4 322.0 C 555.3 322.0 553.2 321.5 553.1 321.7 C 553.3 321.9 556.7 322.1 557.4 322.3 C 554.7 322.4 550.6 321.4 553.9 322.2 C 552.4 322.0 550.3 321.9 549.6 321.7 C 551.5 321.8 549.5 321.4 548.7 321.3 C 547.1 321.2 545.8 321.2 545.2 321.2 C 547.7 321.3 549.5 321.7 547.9 321.6 C 547.4 321.5 546.9 321.6 546.2 321.6 C 546.0 321.4 543.2 321.4 542.7 321.3 C 542.9 321.4 544.1 321.5 544.4 321.6 C 542.8 321.6 540.4 321.8 539.2 321.4 C 540.2 321.4 541.7 321.5 541.7 321.5 C 537.3 320.9 535.8 320.5 530.4 320.2 C 531.1 320.2 531.5 320.2 531.3 320.1 C 527.9 319.9 525.6 319.8 526.1 319.6 C 523.9 319.6 522.8 319.7 521.7 319.9 C 523.9 320.0 524.7 319.8 526.1 320.0 C 525.2 320.0 527.8 320.5 528.7 320.7 C 532.5 320.6 532.7 321.0 536.6 321.0 C 535.4 321.2 539.4 321.2 538.3 321.4 C 534.7 320.8 531.3 321.0 526.1 320.7 C 526.7 320.5 527.3 320.4 525.2 320.2 C 521.9 320.0 523.5 320.4 520.7 320.3 C 519.6 320.1 521.3 320.1 519.9 320.0 C 519.0 320.1 516.4 320.0 515.5 319.8 C 519.1 319.8 514.8 319.6 517.2 319.5 C 516.0 319.5 515.4 319.4 514.6 319.4 C 518.1 319.7 511.1 319.7 513.7 319.9 C 508.8 320.0 513.4 319.3 509.3 319.4 C 511.3 319.5 508.7 319.7 505.8 319.6 C 505.0 319.4 502.0 319.4 499.6 319.3 C 500.9 319.5 501.9 319.5 499.6 319.7 C 500.8 319.7 502.9 319.7 504.0 319.6 C 504.0 319.7 504.4 319.8 505.0 319.8 C 502.0 319.9 503.2 320.0 502.3 320.1 C 501.4 320.0 499.3 320.0 498.8 319.9 C 498.8 320.0 498.0 320.0 497.9 320.1 C 501.6 320.0 497.3 320.4 499.7 320.5 C 501.3 320.4 500.3 320.2 502.3 320.2 C 504.3 320.5 500.7 320.5 499.7 320.8 C 501.4 320.9 503.4 320.6 504.0 320.9 C 501.8 321.2 498.2 321.1 495.3 321.0 C 495.5 321.4 490.4 321.1 490.0 321.5 C 489.6 321.4 489.1 321.4 488.3 321.4 C 487.5 321.6 486.5 321.3 485.7 321.4 C 485.6 321.5 485.8 321.6 486.5 321.7 C 483.0 321.7 482.1 321.7 477.9 322.1 C 477.2 322.0 476.4 321.9 476.1 321.7 C 477.1 321.6 478.0 321.5 478.7 321.4 C 472.9 321.7 476.7 322.1 472.6 322.0 C 472.8 322.1 475.6 322.2 473.5 322.4 C 469.8 322.4 464.7 323.0 464.9 322.3 C 461.7 322.3 459.5 323.0 458.0 322.8 C 457.0 322.9 456.7 323.0 456.3 323.1 C 457.3 323.2 458.5 323.2 459.7 323.2 C 461.6 322.9 462.5 323.1 460.6 322.9 C 463.4 322.6 464.2 322.7 465.7 322.7 C 461.8 323.2 458.2 323.3 458.1 323.7 C 456.7 323.7 455.7 323.6 454.6 323.5 C 454.2 323.8 449.9 324.3 449.5 324.1 C 452.5 323.8 455.5 323.2 452.9 323.3 C 445.6 324.2 441.6 324.2 435.3 325.4 C 435.1 325.3 435.6 325.0 434.5 325.2 C 434.5 325.3 434.3 325.4 433.6 325.6 C 431.7 325.8 430.6 325.9 427.9 326.3 C 428.1 326.1 427.6 326.0 426.2 326.1 C 425.5 326.5 422.9 327.4 421.4 327.5 C 423.0 327.2 420.9 327.3 419.8 327.5 C 420.8 327.6 412.6 328.4 415.0 328.4 C 411.8 329.0 410.4 329.1 410.3 329.0 C 409.2 329.3 408.3 329.5 407.2 329.8 C 406.5 329.6 401.1 331.0 400.3 331.0 C 402.2 330.7 402.5 330.2 401.0 330.6 C 400.0 331.0 395.2 332.3 394.3 332.4 C 394.6 332.3 394.9 331.9 397.2 331.3 C 393.2 332.2 393.3 332.6 392.1 333.1 C 392.2 332.7 390.4 333.5 389.9 333.7 C 388.6 333.8 389.9 333.5 389.8 333.3 C 388.4 333.6 387.9 333.6 386.1 334.1 C 386.7 334.2 384.7 334.6 384.0 334.8 C 383.7 335.0 382.8 335.4 381.2 335.9 C 383.2 334.9 372.3 338.0 374.9 337.5 C 372.8 338.4 372.7 337.9 370.1 338.8 C 369.8 339.0 369.2 339.2 368.8 339.3 C 368.3 339.5 368.8 339.4 369.5 339.2 C 369.0 339.4 368.0 339.7 367.6 339.8 C 367.2 340.0 367.0 340.0 366.7 340.1 C 366.2 340.2 365.6 340.3 363.5 341.1 C 365.5 340.7 359.2 342.6 360.3 342.6 C 358.3 342.9 355.1 344.8 351.7 345.8 C 351.7 345.9 350.9 346.3 350.7 346.4 C 350.3 346.7 354.7 344.9 351.9 346.2 C 348.4 347.5 350.2 346.6 349.7 346.7 C 340.7 350.8 331.8 355.8 325.9 360.4 C 326.7 360.0 326.6 360.1 325.5 361.1 C 323.5 362.1 318.2 367.8 317.7 368.7 C 317.0 369.1 315.3 372.1 314.9 372.5 C 315.3 372.0 315.7 370.7 315.0 371.9 C 314.8 372.8 314.0 373.7 313.7 374.9 C 313.2 375.4 312.2 379.0 312.3 377.2 C 312.1 377.9 311.9 378.3 311.8 378.6 C 312.1 378.8 311.8 379.4 312.3 378.3 C 311.2 381.3 311.5 382.1 311.3 384.5 C 311.5 384.9 311.6 383.1 311.6 384.5 C 311.6 384.5 311.5 384.5 311.5 384.5 C 311.5 385.0 311.6 385.2 311.5 385.4 C 311.4 385.4 311.4 384.6 311.1 384.5 C 311.2 385.7 311.0 386.5 311.3 386.9 C 311.1 385.3 311.7 386.4 311.6 387.4 C 311.3 386.5 312.6 391.2 313.4 392.6 C 313.4 393.5 312.7 391.0 312.6 391.3 C 313.6 394.1 313.6 393.9 314.1 394.1 C 314.8 395.7 314.9 396.3 316.4 398.0 C 317.0 399.1 315.7 397.5 316.5 398.7 C 317.1 399.3 317.4 399.5 318.2 400.5 C 320.0 403.4 327.6 408.9 331.5 412.4 C 329.8 411.1 332.2 412.5 334.6 414.0 C 334.7 414.2 334.4 414.1 335.3 414.7 C 335.2 414.4 336.1 414.8 337.8 415.8 C 337.9 416.0 337.5 416.0 338.5 416.5 C 339.4 416.6 341.5 418.1 343.0 418.7 C 343.5 419.2 339.7 417.1 339.3 417.1 C 343.6 419.7 344.6 419.8 348.4 421.6 C 346.4 420.7 349.7 422.5 350.3 422.8 C 349.5 422.2 352.7 423.4 350.5 422.3 C 352.0 422.9 354.3 423.9 354.6 424.1 C 353.8 423.8 352.5 423.2 352.4 423.3 C 354.3 424.0 356.7 425.3 357.8 425.4 C 356.4 424.9 355.6 424.5 355.7 424.4 C 356.2 424.5 356.9 424.6 358.0 425.0 C 354.7 424.4 364.0 427.6 364.6 427.6 C 365.4 428.3 366.0 428.5 365.6 428.5 C 369.7 430.0 369.2 429.5 370.7 429.9 C 370.2 430.0 369.6 430.1 371.8 430.9 C 371.4 430.5 374.1 431.3 373.4 430.8 C 379.1 432.4 380.3 433.1 383.8 434.0 C 383.9 434.0 382.8 433.6 383.9 433.9 C 385.5 434.4 387.0 434.9 388.1 435.3 C 389.1 435.4 387.8 435.0 388.9 435.2 C 391.6 436.1 390.8 436.2 393.2 437.0 C 396.2 437.5 395.1 437.4 397.0 437.5 C 396.2 437.3 395.2 437.0 396.3 437.2 C 398.1 437.8 398.8 438.3 399.2 438.4 C 397.9 438.1 396.8 437.9 396.2 437.7 C 395.7 437.7 393.9 437.3 395.4 437.8 C 393.5 437.3 391.4 436.8 388.7 436.1 C 389.5 436.6 386.3 435.6 387.2 436.1 C 390.2 436.8 390.8 437.1 393.8 437.8 C 393.2 437.3 396.2 438.2 396.8 438.4 C 396.8 438.2 398.9 438.8 398.4 438.4 C 400.7 438.9 400.6 439.1 403.0 439.5 C 403.1 439.6 402.8 439.7 403.7 439.9 C 404.5 439.8 405.2 440.3 406.0 440.4 C 405.5 440.1 408.9 440.9 409.2 440.7 C 408.3 440.5 407.0 440.3 406.8 440.2 C 410.6 441.0 407.6 440.1 406.9 439.8 C 407.0 439.9 405.6 440.0 405.3 439.7 C 408.6 440.2 401.0 438.4 403.8 439.1 C 406.2 439.7 406.1 439.4 408.5 440.0 C 411.3 441.0 407.9 440.5 410.7 441.4 C 412.5 441.6 413.7 441.8 413.9 441.6 C 414.3 441.8 414.8 442.0 415.4 442.2 C 416.2 442.1 413.2 441.5 415.5 441.8 C 416.7 442.1 415.3 442.2 417.9 442.6 C 419.0 442.6 414.8 441.8 417.1 442.1 C 419.6 442.9 416.6 441.9 419.5 442.4 C 419.7 442.5 420.2 442.6 421.1 442.7 C 421.3 442.9 420.9 443.0 421.9 443.2 C 422.5 442.8 423.0 443.5 425.1 443.8 C 426.3 443.6 422.9 443.3 423.6 443.1 C 426.0 443.8 427.5 443.7 428.4 443.9 C 426.4 443.8 431.5 444.5 431.7 444.7 C 431.1 444.4 432.2 444.7 435.1 444.8 C 435.2 445.3 438.5 445.4 439.2 445.8 C 439.6 445.8 440.4 445.8 440.8 445.7 C 439.9 445.6 438.9 445.4 439.2 445.3 C 440.1 445.4 440.9 445.5 441.8 445.7 C 443.1 446.0 439.5 446.1 445.1 446.7 C 444.4 446.3 446.8 446.5 448.4 446.6 C 448.3 446.3 446.2 446.3 445.9 446.1 C 447.9 446.2 449.8 446.6 451.0 446.8 C 454.3 447.1 458.2 447.6 463.0 447.9 C 464.1 448.2 458.9 447.7 462.1 448.1 C 463.5 448.2 462.8 448.0 464.7 448.2 C 462.9 449.1 477.7 449.2 478.6 449.7 C 479.2 449.5 483.4 449.9 483.0 449.6 C 480.1 449.6 478.2 449.2 476.8 449.0 C 474.2 449.0 479.2 449.4 476.8 449.3 C 476.6 449.1 473.0 449.1 473.4 448.9 C 477.1 449.1 471.4 448.5 474.2 448.4 C 477.7 448.7 484.6 448.8 483.0 449.0 C 483.0 448.9 481.5 448.8 481.3 448.9 C 485.2 449.2 487.5 449.1 489.2 449.0 C 490.9 449.3 498.0 449.1 496.2 449.2 C 496.8 449.5 492.0 449.0 492.7 449.3 C 499.9 449.6 500.1 449.4 504.9 449.6 C 503.4 449.3 510.0 449.2 509.4 449.3 C 509.4 449.6 510.9 449.8 513.8 449.5 C 513.4 449.8 514.9 449.8 516.5 449.9 C 517.2 449.7 515.2 449.7 515.5 449.5 C 517.0 449.5 518.5 449.5 520.0 449.5 C 520.1 449.6 519.8 449.7 520.9 449.7 C 522.5 449.5 528.4 449.2 527.9 449.3 C 525.4 449.7 531.9 449.5 527.9 449.8 C 529.0 449.8 529.1 449.9 530.6 449.8 C 530.6 449.7 530.6 449.6 530.6 449.5 C 533.8 449.3 532.2 449.8 535.0 449.7 C 535.2 449.6 536.4 449.5 536.7 449.4 C 535.6 449.5 535.5 449.6 534.1 449.6 C 535.7 449.1 531.2 449.5 531.4 449.2 C 534.5 449.1 534.5 449.3 535.8 449.4 C 539.6 449.1 537.8 449.2 541.9 449.1 C 541.9 449.0 540.8 449.0 541.1 448.9 C 546.0 448.8 545.6 449.3 548.9 448.9 C 548.2 448.9 545.1 449.3 547.3 449.2 C 549.5 449.0 550.2 448.7 553.3 448.4 C 553.4 448.5 553.2 448.7 554.2 448.6 C 555.5 448.4 555.5 448.2 556.7 448.0 C 557.0 448.1 558.6 447.9 559.3 447.8 C 560.4 448.0 558.9 448.1 560.3 448.1 C 562.8 447.9 564.1 447.2 566.2 447.1 C 566.1 447.4 568.4 447.1 570.5 446.9 C 570.9 447.1 575.3 446.6 578.2 446.4 C 577.5 446.2 580.4 445.9 579.8 445.8 C 578.4 445.9 577.6 446.0 577.3 445.9 C 580.6 445.5 581.6 445.9 584.0 445.2 C 585.2 445.2 586.8 445.2 589.0 444.9 C 589.2 444.8 585.1 445.2 587.3 444.8 C 587.5 444.9 588.2 444.8 589.0 444.6 C 588.7 444.9 590.5 444.8 591.5 444.8 C 593.4 444.3 597.5 444.0 595.6 444.0 C 598.6 443.5 596.7 444.2 599.0 443.9 C 597.7 443.7 601.7 443.1 599.7 443.2 C 602.8 442.7 602.6 443.1 601.4 443.4 C 604.2 443.1 604.8 442.7 606.2 442.6 C 604.9 442.6 609.1 441.7 607.0 442.3 C 606.3 442.6 609.6 441.9 610.2 441.9 C 609.2 441.9 610.6 441.7 608.6 441.9 C 610.7 441.5 613.7 440.8 615.7 440.7 C 618.3 440.1 620.7 439.6 619.6 440.0 C 622.0 439.5 621.1 439.7 623.5 439.2 C 623.5 439.1 622.8 439.3 622.6 439.2 C 625.9 438.5 625.3 438.8 629.5 437.8 C 629.1 438.3 631.8 437.6 632.6 437.6 C 630.9 438.0 629.5 438.3 628.1 438.5 C 627.8 438.7 629.2 438.5 628.1 438.7 C 628.0 438.7 627.3 438.8 626.6 438.9 C 629.4 438.5 623.1 440.1 625.1 439.4 C 625.1 439.5 625.3 439.5 625.9 439.3 C 625.3 439.2 625.3 439.3 625.8 439.0 C 624.4 439.3 623.2 439.3 622.7 439.6 C 622.8 439.7 624.1 439.4 624.3 439.4 C 620.8 440.3 623.2 439.4 620.4 440.0 C 619.9 440.4 621.3 440.2 622.0 440.2 C 619.5 440.7 617.3 441.2 616.6 441.1 C 614.2 441.7 616.8 441.3 615.1 441.7 C 614.2 441.8 614.3 441.6 612.7 441.9 C 610.9 442.3 613.7 441.9 611.9 442.3 C 610.0 442.5 613.2 441.7 610.2 442.2 C 611.0 442.4 607.6 442.6 607.9 442.8 C 609.6 442.4 609.6 442.8 608.7 442.7 C 604.8 443.0 602.2 444.4 598.2 444.4 C 598.2 444.5 597.6 444.6 597.4 444.7 C 600.4 444.4 604.7 443.7 605.6 444.0 C 607.9 443.5 607.6 443.3 607.9 443.2 C 610.7 443.0 610.5 443.1 608.9 443.7 C 604.3 444.6 602.3 444.7 599.2 445.1 C 597.5 445.5 599.4 445.2 600.0 445.2 C 590.3 446.4 597.8 446.0 594.3 446.5 C 594.4 446.3 593.6 446.4 592.7 446.5 C 592.7 446.6 591.2 446.7 591.0 446.9 C 591.6 446.8 592.0 446.8 591.8 446.9 C 589.4 447.3 590.3 446.9 590.2 446.8 C 592.0 446.6 593.2 446.4 593.4 446.2 C 591.0 446.7 589.2 446.7 587.6 447.1 C 585.3 447.1 588.8 446.3 587.5 446.2 C 587.9 446.0 586.1 447.0 584.3 447.3 C 581.2 447.7 581.2 448.0 578.4 448.3 C 577.6 448.1 581.2 447.8 580.9 447.7 C 580.1 447.8 579.9 447.7 579.2 447.8 C 577.2 448.0 577.4 448.2 575.8 448.5 C 574.9 448.3 574.5 448.5 573.3 448.7 C 571.4 448.8 574.4 448.4 572.4 448.6 C 570.3 448.8 568.8 449.2 568.1 449.3 C 568.0 449.2 568.3 449.0 567.3 449.1 C 564.9 449.5 564.3 449.6 567.3 449.4 C 564.6 449.6 563.5 449.8 563.9 450.0 C 567.9 449.7 568.9 449.6 570.8 449.7 C 571.5 449.4 572.7 449.5 574.2 449.4 C 573.3 449.0 576.0 449.2 576.8 448.9 C 575.8 448.9 574.8 449.0 574.2 449.0 C 578.4 448.6 578.3 448.6 581.7 447.8 C 581.8 447.9 582.2 447.9 582.6 447.9 C 581.5 448.2 578.5 448.5 578.4 448.7 C 580.8 448.7 581.6 448.1 584.4 448.1 C 585.5 447.8 582.1 448.1 584.3 447.8 C 585.4 447.8 586.8 447.8 588.5 447.7 C 590.3 447.4 591.2 447.2 592.6 446.9 C 592.8 446.9 593.0 447.0 594.4 446.8 C 594.3 446.7 592.9 446.8 594.3 446.5 C 598.7 446.2 601.6 446.0 605.8 445.1 C 604.3 445.3 600.9 445.6 602.6 445.4 C 604.5 445.2 607.0 444.5 609.0 444.3 C 609.7 444.3 606.7 444.7 607.4 444.9 C 609.3 444.6 610.5 444.4 611.4 444.3 C 611.4 444.2 613.6 443.8 613.0 443.7 C 611.4 444.0 611.0 444.3 610.6 444.3 C 611.8 443.4 616.5 443.4 619.4 442.9 C 621.3 442.4 617.9 442.9 620.1 442.4 C 621.4 442.0 622.3 442.4 620.2 442.9 C 618.7 443.1 618.2 443.5 617.8 443.3 C 617.2 443.5 616.3 443.6 616.3 443.7 C 617.4 443.5 617.2 443.7 617.9 443.7 C 616.3 443.9 616.2 444.4 614.7 444.4 C 615.7 444.2 616.0 444.1 616.3 444.0 C 612.1 444.9 610.7 444.9 608.3 445.2 C 609.6 445.1 608.2 445.3 608.3 445.5 C 610.2 445.1 613.7 444.6 611.6 445.1 C 610.1 445.1 609.1 446.0 607.6 446.0 C 608.7 445.8 608.5 445.6 609.1 445.5 C 607.5 445.7 607.5 445.5 605.9 445.8 C 600.7 447.0 596.5 447.1 587.8 448.7 C 584.8 449.1 590.6 448.3 590.3 448.1 C 589.4 448.2 589.3 448.2 588.6 448.2 C 588.6 448.5 587.1 448.4 586.1 448.8 C 586.2 448.5 582.2 449.3 580.2 449.3 C 580.1 449.4 580.4 449.5 579.4 449.6 C 573.1 450.0 561.7 451.5 557.0 451.6 C 557.1 451.7 555.0 451.9 554.4 452.1 C 551.4 452.2 552.7 452.0 548.3 452.5 C 546.1 452.6 548.7 452.3 549.1 452.2 C 542.5 452.7 536.6 452.7 532.4 453.1 C 530.2 453.3 532.4 452.9 528.0 453.0 C 527.9 453.4 521.0 453.0 520.0 453.4 C 517.4 453.5 512.5 453.0 514.7 453.3 C 511.0 453.4 513.5 453.0 512.0 453.0 C 509.5 453.1 512.8 453.6 510.3 453.7 C 510.5 453.4 508.4 453.5 506.7 453.3 C 508.7 453.3 510.0 453.3 510.3 453.1 C 508.5 453.3 508.6 453.1 505.9 453.1 C 503.8 453.2 497.8 453.3 496.1 452.9 C 496.0 453.0 496.5 453.1 496.9 453.2 C 495.2 453.2 493.2 452.8 493.4 453.2 C 489.4 453.1 487.7 452.7 485.5 452.9 C 483.8 452.9 486.1 452.7 481.0 452.4 C 480.9 452.6 472.0 452.1 469.7 451.7 C 469.6 452.1 469.1 451.7 468.0 451.6 C 467.8 451.7 468.0 451.9 467.0 451.8 C 466.9 451.7 466.1 451.7 465.3 451.7 C 465.9 451.3 462.1 451.5 461.9 451.2 C 462.6 451.3 462.6 451.1 461.9 451.0 C 461.6 451.3 458.0 450.5 458.4 450.8 C 459.2 450.9 461.6 451.1 460.9 451.2 C 457.5 451.1 458.9 450.8 456.7 450.6 C 456.8 450.7 458.2 450.9 456.6 450.9 C 454.3 450.6 456.5 450.8 455.0 450.5 C 453.7 450.4 451.4 450.3 450.6 450.3 C 450.9 450.3 450.1 450.1 449.8 450.0 C 445.4 449.5 435.5 448.5 431.3 447.6 C 431.0 447.7 430.1 447.6 430.4 447.8 C 427.9 447.3 428.1 447.4 425.5 446.9 C 425.5 447.0 425.5 447.1 425.5 447.2 C 422.2 446.8 425.2 446.8 423.0 446.5 C 422.7 447.0 421.8 446.1 419.8 445.8 C 419.6 445.9 418.6 445.8 418.9 446.0 C 415.8 445.5 416.0 445.1 413.4 444.8 C 414.0 444.9 414.3 445.8 414.0 445.9 C 413.5 445.7 412.7 445.5 411.6 445.3 C 413.0 445.3 412.4 444.2 408.6 443.8 C 410.7 444.2 411.4 444.4 410.9 444.5 C 408.1 444.0 407.1 443.6 404.7 443.1 C 404.2 443.3 406.0 443.7 405.3 443.8 C 404.7 443.7 404.4 443.7 404.5 443.8 C 401.9 443.2 401.9 443.0 399.1 442.6 C 399.1 442.4 399.7 442.6 400.7 442.9 C 400.6 442.6 400.6 442.4 402.3 442.8 C 402.5 443.0 401.4 443.0 403.8 443.4 C 403.8 443.3 403.9 443.2 403.9 443.0 C 402.1 442.7 398.1 441.6 397.7 441.6 C 398.5 441.9 399.9 442.3 399.1 442.4 C 396.2 441.6 395.5 441.2 393.1 440.5 C 389.0 439.6 381.9 437.7 382.7 438.3 C 380.3 437.5 381.2 437.8 379.1 437.1 C 379.6 437.5 376.7 436.5 376.8 436.8 C 379.4 437.5 378.6 437.3 381.2 437.9 C 381.1 438.1 380.6 438.1 379.6 437.8 C 379.5 437.7 378.5 437.3 376.8 436.9 C 377.1 437.0 378.5 437.7 376.7 437.2 C 376.6 437.1 376.2 436.9 375.4 436.7 C 375.4 436.6 375.4 436.4 375.5 436.3 C 376.5 436.5 377.6 436.8 378.4 436.9 C 377.7 436.7 377.6 436.6 376.9 436.4 C 376.5 436.4 373.6 435.4 373.4 435.5 C 374.6 435.9 375.3 436.2 374.0 435.9 C 373.8 435.8 371.9 435.1 371.2 435.0 C 373.6 435.9 372.7 435.6 373.9 436.3 C 371.1 435.5 371.6 435.3 368.4 434.4 C 368.4 434.2 368.5 434.0 369.3 434.2 C 367.4 433.1 358.7 430.5 356.2 429.5 C 357.9 430.2 360.1 430.6 357.4 429.6 C 357.4 429.7 355.5 428.9 355.1 428.9 C 354.1 429.0 356.2 430.1 358.1 431.1 C 356.0 430.3 355.6 430.2 353.6 429.4 C 353.1 429.0 355.2 429.5 352.8 428.5 C 352.1 428.6 348.4 426.6 347.5 426.5 C 349.1 427.2 350.1 427.8 348.4 427.1 C 348.8 427.1 345.5 425.7 345.4 425.5 C 348.1 426.6 348.9 426.7 350.6 427.5 C 348.5 426.6 352.3 428.0 348.7 426.4 C 347.1 425.8 346.1 425.7 342.6 424.0 C 341.3 423.3 342.6 423.7 340.9 422.8 C 341.2 423.3 337.5 421.4 339.9 422.4 C 338.6 421.7 337.9 421.3 337.3 420.9 C 338.9 422.1 330.7 417.8 331.8 418.6 C 332.0 418.4 331.8 417.9 331.4 417.6 C 329.8 416.9 328.2 415.7 324.7 413.1 C 324.6 413.4 324.1 412.7 322.7 411.7 C 322.4 411.6 323.5 412.6 322.5 411.9 C 321.0 410.5 321.0 410.4 320.8 410.1 C 319.7 409.2 319.0 408.5 318.5 407.9 C 318.4 408.0 318.7 408.3 318.9 408.6 C 315.2 404.9 313.4 403.2 311.3 399.9 C 312.1 401.3 312.7 401.4 311.9 400.3 C 311.4 399.7 311.0 399.1 310.7 398.8 C 311.0 399.7 310.9 399.3 310.0 397.6 C 309.1 396.2 309.9 398.4 309.3 397.3 C 308.8 395.9 309.2 396.6 309.0 395.9 C 308.7 395.4 308.4 394.7 308.2 394.2 C 308.5 395.3 307.9 394.1 307.4 393.1 C 308.0 393.8 307.8 393.3 307.1 391.2 C 307.1 391.0 307.5 392.1 307.3 391.2 C 307.2 390.7 306.4 389.1 306.5 387.6 C 306.6 388.1 306.6 388.3 306.7 388.2 C 306.3 386.7 306.5 385.4 306.6 384.0 C 306.4 385.4 306.2 384.6 306.1 385.2 C 306.2 383.8 306.0 382.1 306.5 381.0 C 306.1 383.0 306.9 381.1 307.1 379.9 C 306.9 379.5 306.7 381.7 306.5 381.0 C 306.3 380.3 307.0 378.8 306.9 378.0 C 306.7 378.1 306.8 379.0 306.6 379.2 C 306.8 378.1 306.4 379.5 306.5 378.5 C 306.9 378.0 306.8 377.3 306.9 376.7 C 307.2 376.0 308.1 374.5 308.2 373.8 C 308.1 373.8 307.7 374.8 307.6 374.9 C 308.6 371.6 309.5 370.9 311.1 367.9 C 311.4 367.7 311.8 367.1 312.5 366.4 C 312.3 366.3 312.6 365.8 313.1 365.1 C 314.1 364.0 315.2 362.9 316.7 361.5 C 316.6 361.9 316.0 362.6 318.0 360.7 C 318.0 360.5 317.2 361.3 317.9 360.6 C 317.9 360.6 318.4 360.2 318.5 360.0 C 318.4 360.0 318.4 359.9 318.4 359.9 C 317.8 360.5 317.2 361.0 316.7 361.5 C 316.7 361.3 316.4 361.4 316.0 361.8 C 318.2 359.4 318.4 359.9 320.0 358.2 C 320.5 358.2 321.1 357.8 319.9 359.3 C 321.3 357.9 322.3 356.9 322.6 356.4 C 320.7 358.0 321.2 357.2 320.6 357.6 C 321.8 356.6 321.7 356.5 322.3 356.0 C 323.9 354.9 321.0 357.5 323.9 355.3 C 321.5 356.7 325.6 353.7 327.3 352.6 C 327.0 352.7 326.4 353.1 327.2 352.4 C 331.5 349.3 331.7 350.3 334.4 348.2 C 334.2 348.5 335.6 347.7 336.3 347.4 C 333.8 348.9 333.2 349.3 332.2 350.0 C 332.4 350.0 333.1 349.6 333.9 349.2 C 333.8 349.0 334.4 348.6 335.5 348.1 C 336.2 347.6 335.8 347.4 337.8 346.1 C 338.0 346.1 337.8 346.3 338.8 345.8 C 339.7 345.1 338.1 346.6 342.7 344.2 C 341.8 344.5 341.3 344.7 341.6 344.3 C 343.7 343.1 343.3 343.5 346.4 342.0 C 347.7 341.8 344.5 343.4 343.7 344.0 C 345.8 342.9 347.4 341.9 349.7 341.1 C 347.9 341.7 349.5 340.8 351.6 339.9 C 353.5 339.1 351.6 340.3 354.0 339.4 C 355.7 338.6 356.6 338.0 354.9 338.6 C 359.0 337.0 357.9 337.1 361.6 335.9 C 361.8 336.0 360.7 336.4 359.4 336.8 C 359.6 336.8 359.2 337.1 360.6 336.6 C 361.7 336.0 363.6 335.3 365.7 334.6 C 367.7 333.8 368.9 333.4 369.7 333.1 C 372.9 332.5 376.4 330.9 379.6 330.2 C 378.4 330.8 383.9 329.1 385.5 328.9 C 386.5 328.6 389.5 327.3 388.4 327.8 C 388.8 328.0 390.7 327.4 392.3 327.2 C 392.3 327.1 392.2 327.0 392.2 326.9 C 395.6 326.1 396.4 326.1 397.6 326.1 C 401.7 325.0 406.4 324.4 411.7 323.1 C 413.0 323.2 414.2 322.9 417.4 322.5 C 417.2 322.3 419.8 321.9 422.2 321.5 C 421.6 321.4 423.8 321.1 423.8 320.9 C 421.6 321.2 422.4 320.8 421.2 320.9 C 424.1 320.7 425.5 320.0 427.8 319.9 C 425.0 320.4 424.2 320.9 423.8 321.3 C 427.2 320.7 429.0 320.6 429.6 320.7 C 429.9 320.5 429.4 320.4 428.7 320.4 C 429.8 320.2 431.0 320.1 432.0 319.9 C 432.4 320.0 430.8 320.3 432.0 320.2 C 432.8 320.0 433.7 319.8 434.5 319.6 C 435.5 319.7 433.3 320.0 433.0 320.1 C 437.4 319.6 435.4 319.4 437.9 319.0 C 438.5 319.1 438.4 319.4 440.5 319.1 C 441.3 318.9 441.5 318.6 443.8 318.3 C 445.3 318.2 443.8 318.7 445.5 318.6 C 445.7 318.4 446.5 318.4 447.2 318.4 C 447.1 318.2 447.9 318.1 448.9 317.9 C 449.1 318.0 450.8 317.8 451.5 317.7 C 451.6 317.8 454.3 317.8 454.9 317.6 C 454.9 317.5 453.4 317.6 453.2 317.6 C 455.1 317.4 456.5 317.2 457.5 317.1 C 458.1 317.6 461.3 316.9 465.3 316.8 C 467.7 316.5 464.7 316.5 467.9 316.1 C 469.7 316.1 467.5 316.3 467.9 316.6 C 468.4 316.6 471.3 316.5 471.4 316.3 C 471.4 316.2 469.8 316.4 469.7 316.3 C 472.0 315.9 471.9 316.2 473.2 316.2 C 473.0 316.0 474.5 315.9 474.9 315.7 C 481.2 315.2 481.1 315.6 483.7 315.7 C 483.7 315.6 485.2 315.6 485.4 315.5 C 483.6 315.6 481.2 315.5 483.7 315.4 C 483.3 315.5 487.0 315.2 487.2 315.2 C 486.8 315.1 484.5 315.2 485.4 314.9 C 488.7 314.7 487.4 315.2 489.9 314.9 C 490.1 315.1 488.7 315.1 488.1 315.2 C 489.1 315.2 490.6 315.1 490.7 315.2 C 489.5 315.3 489.5 315.5 489.0 315.7 C 490.7 315.4 493.8 315.5 491.6 315.2 C 495.1 315.2 498.5 315.0 496.1 314.8 C 498.9 314.7 497.3 315.0 499.6 314.8 C 499.3 315.1 498.6 315.2 500.5 315.4 C 500.8 315.3 502.4 315.2 502.2 315.0 C 506.5 314.9 507.7 315.2 509.4 315.4 C 507.9 315.0 509.9 315.3 512.0 315.1 C 513.3 315.2 512.1 315.5 515.5 315.4 C 511.8 315.0 519.9 315.4 518.2 314.9 C 522.6 315.2 522.6 315.2 527.1 315.3 C 526.7 315.5 525.6 315.6 523.6 315.6 C 525.0 315.4 519.7 315.3 520.0 315.4 C 520.0 315.5 520.0 315.5 520.0 315.6 C 523.4 315.6 525.6 315.7 527.1 315.9 C 527.8 315.7 529.4 315.7 528.9 315.4 C 532.0 315.8 535.4 315.5 536.9 315.8 C 535.7 315.8 534.7 315.8 535.0 315.9 C 536.3 315.9 537.9 315.9 537.7 315.7 C 535.1 315.5 534.6 315.5 533.3 315.6 C 534.5 315.4 530.8 315.2 533.3 315.2 C 533.2 315.6 538.6 315.2 536.9 315.4 C 534.0 315.4 540.0 315.7 540.3 315.9 C 540.3 315.9 540.3 315.9 540.3 315.9 Z M 606.7 445.6 C 609.1 445.1 606.1 445.4 604.2 445.7 C 604.8 445.7 605.1 445.8 605.1 445.9 C 605.8 445.7 606.5 445.6 606.7 445.6 C 606.7 445.6 606.7 445.6 606.7 445.6 Z M 579.8 445.9 C 579.0 446.3 583.1 445.7 584.9 445.5 C 584.4 445.5 583.8 445.5 584.8 445.3 C 583.0 445.3 582.4 445.8 579.8 445.9 C 579.8 445.9 579.8 445.9 579.8 445.9 Z M 483.0 449.9 C 483.6 449.9 485.4 449.9 485.5 450.1 C 486.5 450.1 486.3 450.0 486.5 449.9 C 488.5 449.9 485.9 450.2 489.1 450.2 C 490.3 449.8 483.7 449.4 483.0 449.9 C 483.0 449.9 483.0 449.9 483.0 449.9 Z M 506.7 318.9 C 508.0 319.1 505.0 319.3 505.8 319.5 C 510.7 319.3 506.9 319.0 513.7 319.1 C 513.3 319.0 512.8 318.9 512.9 318.8 C 509.7 318.9 509.4 319.1 510.2 318.7 C 508.7 318.7 508.4 319.2 506.7 318.9 C 506.7 318.9 506.7 318.9 506.7 318.9 Z M 569.5 322.7 C 569.0 322.5 568.6 322.4 568.6 322.3 C 566.6 322.3 567.0 322.3 564.3 322.0 C 564.6 322.4 567.2 322.6 569.5 322.7 C 569.5 322.7 569.5 322.7 569.5 322.7 Z M 710.1 376.1 C 710.2 376.4 710.4 376.8 710.5 377.1 C 710.5 376.8 711.2 377.6 710.5 376.0 C 710.4 375.9 710.5 376.2 710.6 376.5 C 710.4 376.2 710.1 375.4 710.0 375.6 C 710.2 376.0 710.1 376.1 710.1 376.1 C 710.1 376.1 710.1 376.1 710.1 376.1 Z M 689.2 415.5 C 692.2 413.4 684.3 417.4 689.2 415.5 C 689.2 415.5 689.2 415.5 689.2 415.5 C 689.2 415.5 689.2 415.5 689.2 415.5 Z M 696.8 413.9 C 696.9 414.0 697.5 413.5 697.5 413.4 C 699.9 411.8 697.7 413.5 699.0 412.7 C 700.7 411.2 697.9 413.1 700.0 411.2 C 699.5 411.5 698.2 412.9 696.8 413.9 C 696.8 413.9 696.8 413.9 696.8 413.9 Z M 331.2 350.3 C 329.1 351.7 328.7 352.3 328.4 352.7 C 329.8 351.8 331.1 351.1 331.6 350.9 C 334.3 349.1 329.7 351.9 329.2 352.1 C 329.4 351.8 331.3 350.5 331.2 350.3 C 331.2 350.3 331.2 350.3 331.2 350.3 Z M 324.6 354.8 C 323.9 355.5 322.8 356.5 322.9 356.7 C 324.0 355.8 324.2 355.7 324.3 355.8 C 325.3 354.9 323.9 355.7 324.6 354.8 C 324.6 354.8 324.6 354.8 324.6 354.8 Z M 338.1 346.7 C 337.0 347.3 337.5 347.3 337.4 347.5 C 339.0 346.6 339.3 346.5 341.0 345.7 C 341.0 345.6 340.9 345.5 340.9 345.4 C 339.4 346.1 339.4 346.3 338.2 346.9 C 338.2 346.9 338.1 346.8 338.1 346.7 C 338.1 346.7 338.1 346.7 338.1 346.7 Z M 319.2 359.7 C 316.2 362.5 315.5 364.0 314.3 366.1 C 315.9 364.0 317.2 361.8 318.9 360.5 C 320.6 358.7 318.2 361.0 318.2 360.8 C 318.2 360.7 318.8 360.1 319.2 359.7 C 319.2 359.7 319.2 359.7 319.2 359.7 Z M 306.7 385.8 C 306.6 386.4 307.1 387.5 307.4 389.3 C 307.4 389.0 307.4 388.7 307.5 388.6 C 307.1 386.2 306.9 387.7 306.7 385.8 C 306.7 385.8 306.7 385.8 306.7 385.8 Z M 312.2 400.1 C 313.3 401.5 311.8 399.3 312.5 399.9 C 311.4 398.3 310.5 396.6 310.3 396.7 C 311.4 398.4 311.6 398.8 312.2 400.1 C 312.2 400.1 312.2 400.1 312.2 400.1 Z M 321.1 409.7 C 323.0 411.2 320.6 408.9 321.5 409.3 C 320.8 408.7 320.9 409.0 320.7 409.0 C 320.3 408.5 319.8 408.1 319.1 407.4 C 319.5 408.0 321.5 409.7 321.1 409.7 C 321.1 409.7 321.1 409.7 321.1 409.7 Z M 394.7 327.4 C 393.4 327.8 393.8 327.9 391.0 328.5 C 395.2 327.5 393.0 328.8 398.6 327.4 C 397.7 327.5 398.3 327.3 398.6 327.3 C 400.8 326.7 396.6 327.6 398.5 326.9 C 397.0 327.3 397.9 327.4 396.4 327.7 C 394.7 327.9 393.7 328.0 394.7 327.4 C 394.7 327.4 394.7 327.4 394.7 327.4 Z M 398.7 327.6 C 400.3 327.4 400.2 326.9 401.0 327.0 C 401.7 326.8 401.6 326.7 401.7 326.6 C 401.1 326.8 401.0 326.8 400.9 326.7 C 399.6 327.1 398.3 327.5 398.7 327.6 C 398.7 327.6 398.7 327.6 398.7 327.6 Z M 384.5 331.1 C 387.0 330.3 387.7 330.3 388.9 329.8 C 389.9 329.9 390.5 329.2 391.9 329.2 C 394.4 328.5 392.5 328.9 391.8 328.9 C 394.2 328.2 392.5 329.0 394.9 328.3 C 395.3 327.9 392.2 328.8 392.5 328.4 C 390.7 328.8 390.7 329.0 389.6 329.4 C 388.7 329.6 389.0 329.4 388.8 329.3 C 386.7 329.9 386.8 329.7 385.1 330.2 C 384.7 330.5 385.5 330.4 387.4 329.8 C 385.4 330.4 384.6 330.8 382.3 331.3 C 383.9 330.6 376.6 332.6 377.3 332.8 C 379.2 332.3 378.6 332.3 379.4 332.0 C 381.9 331.5 383.5 331.0 384.5 331.1 C 384.5 331.1 384.5 331.1 384.5 331.1 Z M 339.4 346.9 C 338.6 347.3 337.9 347.6 336.7 348.3 C 336.5 348.1 338.1 347.3 336.6 348.0 C 334.7 349.0 334.4 349.3 333.3 350.0 C 334.0 349.7 337.8 347.8 335.9 349.0 C 336.6 348.8 337.8 348.1 339.5 347.2 C 337.4 347.9 342.2 345.8 344.2 344.9 C 343.8 344.7 347.6 343.4 349.0 342.5 C 347.7 342.8 343.8 344.9 342.2 345.7 C 343.0 345.3 337.4 347.5 339.4 346.9 C 339.4 346.9 339.4 346.9 339.4 346.9 Z M 404.8 326.2 C 405.3 326.0 407.0 325.6 405.6 325.8 C 406.3 325.6 407.8 325.5 407.1 325.2 C 407.9 325.1 408.7 324.9 409.5 324.8 C 409.2 324.9 407.0 325.3 407.9 325.4 C 409.5 324.9 408.9 325.2 411.1 324.8 C 410.0 325.2 411.2 325.0 410.4 325.5 C 411.0 325.2 412.9 324.9 412.8 324.7 C 415.8 324.2 411.9 325.2 416.0 324.5 C 416.0 324.7 413.1 325.2 412.1 325.2 C 411.6 325.6 417.0 324.4 420.0 324.0 C 417.3 324.3 419.4 323.7 420.7 323.2 C 421.7 323.2 420.8 323.4 422.4 323.3 C 423.8 323.1 424.5 322.8 424.9 322.9 C 426.0 322.7 425.5 322.6 425.6 322.5 C 427.6 322.2 426.2 322.8 429.0 322.3 C 426.8 322.2 429.2 321.8 433.0 321.4 C 432.8 321.3 431.6 321.5 431.4 321.4 C 431.9 321.1 434.2 321.1 434.7 321.1 C 436.1 320.9 435.2 320.9 433.9 321.1 C 434.7 320.9 435.5 320.7 436.4 320.5 C 432.2 321.0 425.7 322.0 418.2 322.9 C 419.7 322.9 418.0 323.2 415.8 323.5 C 415.5 323.4 416.4 323.2 417.5 323.1 C 414.8 323.2 415.1 323.8 411.1 324.4 C 408.9 324.7 413.5 323.7 411.0 324.1 C 409.6 324.4 408.6 324.8 407.9 324.7 C 405.4 325.3 404.7 325.7 400.9 326.5 C 403.1 326.2 404.2 326.5 406.5 325.9 C 406.4 325.8 405.4 326.1 404.8 326.2 C 404.8 326.2 404.8 326.2 404.8 326.2 Z M 324.4 355.9 C 323.2 356.8 322.8 357.3 322.5 357.4 C 320.6 359.0 322.9 357.5 323.3 357.2 C 324.1 356.5 324.4 356.1 324.4 355.9 C 324.4 355.9 324.4 355.9 324.4 355.9 Z M 494.3 452.5 C 497.7 452.6 497.0 452.3 499.6 452.3 C 497.5 452.2 497.0 452.0 493.4 452.0 C 493.3 452.1 493.3 452.3 494.3 452.5 C 494.3 452.5 494.3 452.5 494.3 452.5 Z M 331.7 351.1 C 333.5 349.7 329.6 352.8 329.5 352.6 C 327.5 354.1 331.6 351.4 329.7 352.9 C 331.5 351.6 332.7 351.1 335.1 349.5 C 335.0 349.4 333.0 350.6 331.1 351.8 C 330.8 351.8 331.8 351.2 331.7 351.1 C 331.7 351.1 331.7 351.1 331.7 351.1 Z M 460.2 449.9 C 457.9 449.9 462.3 450.5 463.6 450.7 C 463.7 450.4 463.0 450.4 460.2 449.9 C 460.2 449.9 460.2 449.9 460.2 449.9 Z M 517.4 452.3 C 518.6 452.0 513.4 452.3 514.7 452.0 C 513.1 452.0 512.9 452.1 512.9 452.2 C 512.1 452.1 509.6 452.1 510.3 451.9 C 509.8 451.7 514.2 452.0 512.9 451.7 C 514.3 451.6 514.4 451.7 515.5 451.7 C 512.9 451.7 514.2 452.0 517.4 452.0 C 517.4 451.8 515.9 451.9 517.4 451.7 C 517.5 451.8 519.2 452.0 519.1 452.3 C 521.8 452.3 520.2 451.9 523.5 451.9 C 523.2 451.7 521.1 451.8 519.9 451.7 C 520.3 451.4 523.4 451.9 522.6 451.5 C 523.3 451.7 525.2 451.8 525.3 452.0 C 522.8 452.2 521.2 452.4 519.1 452.5 C 521.0 452.6 523.7 452.0 527.0 452.2 C 526.7 452.0 528.7 452.0 528.0 451.8 C 530.5 451.8 529.4 452.1 528.8 452.2 C 529.5 452.3 534.5 452.0 534.2 451.8 C 534.5 452.0 540.5 451.7 540.3 451.4 C 542.1 451.5 544.8 451.0 545.6 451.3 C 546.6 451.2 548.6 451.1 550.9 450.9 C 551.4 450.6 547.6 451.0 547.3 450.8 C 546.6 450.6 551.4 450.6 550.8 450.4 C 550.8 450.4 550.8 450.3 550.8 450.3 C 549.0 450.5 547.2 450.7 545.5 450.8 C 544.3 450.9 545.9 450.7 545.5 450.6 C 544.3 450.8 538.7 451.4 538.5 450.9 C 534.8 451.2 532.1 451.2 530.5 451.5 C 528.3 451.5 531.8 451.3 530.5 451.1 C 523.9 451.7 515.8 451.4 510.3 451.7 C 509.1 451.7 509.5 451.5 509.3 451.4 C 501.7 451.6 508.2 451.9 502.2 451.7 C 502.2 451.5 505.1 451.6 504.9 451.4 C 502.9 451.4 502.3 451.5 499.6 451.4 C 499.6 451.5 499.6 451.6 499.6 451.7 C 497.3 451.6 498.2 451.4 497.0 451.2 C 494.2 451.3 494.8 451.4 493.5 451.1 C 490.8 451.1 488.2 451.1 485.5 450.9 C 483.7 451.0 487.1 451.5 489.9 451.6 C 489.7 451.7 489.0 451.6 489.0 451.7 C 485.7 451.4 485.2 450.9 480.3 450.6 C 484.0 451.1 478.3 450.6 477.6 450.4 C 475.6 450.3 477.1 450.7 478.5 450.8 C 478.2 450.9 476.9 450.7 476.8 450.6 C 476.5 450.9 481.2 451.4 486.3 451.5 C 484.0 451.8 489.9 451.6 487.2 452.0 C 491.4 452.1 487.9 451.6 492.5 451.8 C 492.1 451.7 491.2 451.6 490.8 451.5 C 494.3 451.5 493.3 451.9 497.0 451.9 C 497.6 451.7 495.2 451.7 495.2 451.5 C 499.2 451.9 500.5 452.0 503.2 452.2 C 503.7 452.1 503.0 451.9 507.6 452.1 C 507.6 452.1 507.6 452.2 507.6 452.2 C 505.4 452.1 504.9 452.6 510.3 452.6 C 510.6 452.5 509.0 452.5 507.6 452.5 C 508.2 452.3 509.9 452.3 512.0 452.2 C 513.0 452.3 514.2 452.4 512.9 452.4 C 513.7 452.6 514.5 452.2 517.4 452.3 C 517.4 452.3 517.4 452.3 517.4 452.3 Z M 307.3 382.9 C 307.3 383.3 307.3 383.8 307.3 384.6 C 307.5 385.0 307.5 383.4 307.6 383.4 C 307.7 382.2 307.4 383.2 307.3 382.9 C 307.3 382.9 307.3 382.9 307.3 382.9 Z M 313.5 367.2 C 313.2 367.1 312.9 368.1 312.0 369.3 C 311.9 369.8 312.8 368.3 313.0 368.4 C 314.0 367.0 312.4 368.6 313.5 367.2 C 313.5 367.2 313.5 367.2 313.5 367.2 Z M 309.6 373.8 C 309.1 374.3 309.4 374.4 309.9 373.2 C 310.0 373.4 310.0 373.7 309.7 374.5 C 310.3 373.8 310.1 373.0 311.0 371.7 C 310.6 372.1 310.1 372.8 309.6 373.8 C 309.6 373.8 309.6 373.8 309.6 373.8 Z M 308.7 376.0 C 308.6 376.9 308.2 377.4 308.0 378.9 C 308.3 378.6 309.1 375.4 309.2 374.9 C 309.2 374.3 308.1 377.7 308.7 376.0 C 308.7 376.0 308.7 376.0 308.7 376.0 Z M 426.5 445.6 C 427.3 445.7 427.2 445.6 427.4 445.6 C 429.9 446.3 433.4 446.7 430.6 446.7 C 433.3 446.8 435.7 447.5 438.0 447.8 C 440.0 448.1 439.0 447.7 440.6 447.9 C 443.0 448.3 439.3 447.9 439.7 448.1 C 440.2 448.3 441.0 448.0 443.9 448.5 C 443.2 448.0 446.5 448.8 445.6 448.3 C 447.3 448.6 447.8 448.5 449.9 448.7 C 449.7 448.6 447.6 448.3 447.4 448.1 C 446.3 447.8 446.2 448.3 448.2 448.4 C 447.0 448.5 444.1 447.8 443.2 447.9 C 442.1 447.5 445.9 448.2 444.8 447.8 C 444.1 447.7 443.4 447.7 443.2 447.8 C 442.0 447.6 441.1 447.4 440.7 447.2 C 441.4 447.3 441.5 447.3 441.5 447.4 C 443.0 447.6 440.0 446.8 443.2 447.2 C 442.7 447.0 441.3 446.9 441.6 446.8 C 440.6 446.5 441.5 447.4 438.2 446.7 C 435.9 446.7 443.4 447.6 441.4 447.9 C 436.7 447.2 439.4 447.2 435.7 446.7 C 435.7 446.8 435.7 446.9 434.8 446.8 C 434.9 446.9 436.3 447.0 437.3 447.2 C 437.1 447.3 435.7 447.0 434.7 446.9 C 434.9 447.0 435.6 447.1 435.6 447.2 C 432.4 446.7 432.8 446.2 435.7 446.5 C 435.6 446.3 431.8 445.8 430.7 445.7 C 431.7 446.1 430.6 445.9 431.4 446.2 C 432.3 446.3 432.1 446.2 432.4 446.2 C 433.8 446.5 432.4 446.4 432.3 446.4 C 430.6 446.2 430.7 446.0 429.0 445.9 C 429.4 445.9 429.9 445.9 429.9 445.8 C 429.1 445.6 428.2 445.5 427.4 445.4 C 427.4 445.6 426.4 445.4 426.5 445.6 C 426.5 445.6 426.5 445.6 426.5 445.6 Z M 470.6 451.0 C 473.5 451.3 471.9 450.9 470.6 450.8 C 471.2 450.8 472.2 450.8 473.2 450.9 C 472.4 450.7 471.6 450.7 468.9 450.5 C 471.3 450.3 468.9 449.7 464.6 449.4 C 463.3 449.8 466.9 450.1 465.4 450.3 C 468.6 450.4 470.3 450.7 470.6 451.0 C 470.6 451.0 470.6 451.0 470.6 451.0 Z M 323.3 357.3 C 322.1 358.2 320.9 359.3 319.8 360.3 C 320.0 360.4 323.9 357.3 323.3 357.3 C 323.3 357.3 323.3 357.3 323.3 357.3 Z M 439.7 320.4 C 440.4 320.3 440.5 320.4 440.6 320.4 C 443.1 320.0 439.4 320.3 440.6 320.0 C 439.7 320.1 438.8 320.2 438.0 320.3 C 437.9 320.4 441.5 320.1 438.9 320.5 C 439.1 320.6 439.7 320.5 439.7 320.4 C 439.7 320.4 439.7 320.4 439.7 320.4 Z M 307.7 381.7 C 307.7 382.8 307.9 382.1 307.9 384.6 C 308.0 383.7 308.0 383.2 308.1 381.8 C 307.9 381.7 307.8 381.7 307.7 381.7 C 307.7 381.7 307.7 381.7 307.7 381.7 Z M 414.3 444.0 C 416.3 444.6 416.9 444.1 420.8 444.9 C 418.9 444.3 416.6 444.3 414.3 444.0 C 414.3 444.0 414.3 444.0 414.3 444.0 Z M 557.8 450.0 C 556.5 450.1 558.1 449.9 556.0 449.9 C 554.8 450.1 554.3 450.3 552.5 450.4 C 555.0 450.5 559.4 449.9 561.2 450.2 C 563.3 450.0 563.1 449.7 563.8 449.5 C 562.8 449.6 562.2 449.6 562.1 449.5 C 560.8 450.0 559.3 449.5 557.8 450.0 C 557.8 450.0 557.8 450.0 557.8 450.0 Z M 459.4 449.7 C 457.8 449.5 460.5 449.6 461.1 449.5 C 462.3 449.6 461.8 449.7 462.0 449.9 C 463.5 450.0 463.9 449.9 463.7 449.7 C 460.8 449.4 457.3 449.1 459.4 448.9 C 456.7 448.6 458.2 449.1 456.8 449.0 C 455.3 448.7 456.7 448.8 456.9 448.5 C 456.2 448.5 454.1 448.6 454.3 448.3 C 450.1 448.2 451.9 448.8 455.0 449.5 C 457.8 449.5 454.6 449.1 459.4 449.7 C 459.4 449.7 459.4 449.7 459.4 449.7 Z M 355.6 427.7 C 355.9 427.9 357.8 428.6 357.8 428.7 C 360.2 429.4 362.5 429.9 364.9 430.5 C 364.5 430.1 361.2 429.2 362.5 429.9 C 361.6 429.3 359.4 428.4 358.1 427.8 C 355.8 426.9 354.9 427.1 354.8 426.6 C 352.6 425.9 353.8 426.4 350.5 424.9 C 355.6 427.4 348.7 424.3 348.3 424.4 C 351.2 425.7 354.0 426.8 353.6 426.4 C 355.9 427.4 358.5 428.5 359.0 428.9 C 358.7 428.9 356.8 428.2 355.6 427.7 C 355.6 427.7 355.6 427.7 355.6 427.7 Z M 369.2 431.8 C 368.7 431.7 367.8 431.4 366.2 430.9 C 367.1 431.3 367.4 431.5 367.3 431.6 C 370.3 432.6 370.0 432.3 370.5 432.7 C 372.1 433.2 370.2 432.2 372.6 433.1 C 372.5 433.0 371.2 432.6 371.3 432.5 C 371.0 432.6 370.0 432.3 369.2 431.8 C 369.2 431.8 369.2 431.8 369.2 431.8 Z M 391.2 438.5 C 393.2 438.9 390.2 438.1 391.3 438.2 C 390.8 438.1 387.1 437.1 387.7 437.0 C 386.7 436.4 382.8 436.1 383.3 435.8 C 382.4 435.6 382.7 435.8 382.5 435.8 C 385.1 436.4 385.0 436.6 383.2 436.2 C 383.4 436.4 385.0 436.7 386.1 437.0 C 386.3 436.9 385.3 436.6 385.4 436.5 C 387.6 437.2 389.2 437.8 391.2 438.5 C 391.2 438.5 391.2 438.5 391.2 438.5 Z M 534.9 317.0 C 532.9 316.9 531.6 316.9 530.5 316.9 C 531.1 317.1 532.2 317.0 533.2 317.0 C 533.4 317.2 532.5 317.1 531.4 317.1 C 532.4 317.4 536.1 317.3 534.9 317.0 C 534.9 317.0 534.9 317.0 534.9 317.0 Z M 517.3 316.6 C 515.3 316.6 514.0 316.6 513.7 316.7 C 514.5 316.9 514.2 316.6 515.5 316.7 C 516.3 316.7 516.8 316.8 517.3 316.9 C 518.1 316.9 518.0 316.8 518.2 316.8 C 518.9 316.8 519.0 316.8 519.1 316.8 C 521.5 316.6 516.2 316.9 517.3 316.6 C 517.3 316.6 517.3 316.6 517.3 316.6 Z M 378.9 435.1 C 378.3 434.8 377.9 434.5 376.1 434.0 C 376.4 434.3 375.1 433.9 374.0 433.5 C 375.6 434.2 376.4 434.4 378.9 435.1 C 378.9 435.1 378.9 435.1 378.9 435.1 Z M 410.5 325.6 C 408.0 325.9 408.3 326.2 404.9 326.7 C 405.0 326.8 405.0 326.9 405.0 326.9 C 407.0 326.3 407.9 326.3 410.5 325.6 C 410.5 325.6 410.5 325.6 410.5 325.6 Z M 712.6 395.4 C 712.5 395.2 711.7 396.9 711.5 396.9 C 711.7 397.4 710.8 397.9 708.5 401.0 C 708.4 401.0 708.5 400.8 708.8 400.3 C 706.9 402.8 709.6 399.8 710.0 399.6 C 711.3 397.6 711.6 397.4 712.6 395.4 C 712.6 395.4 712.6 395.4 712.6 395.4 Z M 531.5 450.7 C 531.3 450.8 531.8 450.8 532.3 450.8 C 532.9 450.8 533.5 450.7 534.0 450.7 C 533.9 450.4 530.9 450.4 533.2 449.9 C 532.4 450.0 532.3 450.0 532.3 450.1 C 528.0 450.9 524.7 449.8 519.1 450.3 C 518.2 450.4 518.4 450.5 518.2 450.5 C 518.9 450.5 519.0 450.5 519.1 450.6 C 519.7 450.2 524.8 450.5 522.6 450.7 C 522.8 450.8 523.5 450.7 523.5 450.7 C 524.1 450.7 524.7 450.7 525.3 450.6 C 524.9 450.6 523.7 450.5 523.5 450.4 C 526.3 450.5 529.7 450.5 527.9 450.8 C 529.7 450.8 530.3 450.6 531.5 450.5 C 532.6 450.5 532.6 450.7 531.5 450.7 C 531.5 450.7 531.5 450.7 531.5 450.7 Z M 554.2 449.5 C 556.9 449.4 555.9 449.2 558.6 449.0 C 556.9 449.0 554.8 449.4 552.5 449.4 C 552.8 449.5 554.0 449.4 554.2 449.5 C 554.2 449.5 554.2 449.5 554.2 449.5 Z M 503.2 450.6 C 503.7 450.3 501.3 450.2 498.7 450.2 C 498.2 450.5 500.5 450.5 503.2 450.6 C 503.2 450.6 503.2 450.6 503.2 450.6 Z M 514.7 450.6 C 517.3 450.5 511.4 450.6 512.9 450.3 C 511.7 450.3 510.4 450.3 510.3 450.2 C 509.3 450.3 509.3 450.4 507.6 450.4 C 507.7 450.5 510.5 450.4 510.3 450.6 C 512.3 450.5 512.6 450.5 514.7 450.6 C 514.7 450.6 514.7 450.6 514.7 450.6 Z M 516.4 450.6 C 518.1 450.5 516.0 450.1 513.8 450.1 C 514.6 450.3 515.1 450.5 516.4 450.6 C 516.4 450.6 516.4 450.6 516.4 450.6 Z M 321.6 406.9 C 322.3 407.6 321.9 406.9 322.8 407.7 C 322.9 407.6 319.5 404.7 322.4 407.1 C 321.5 406.0 320.7 405.8 319.6 404.6 C 319.9 405.0 320.2 405.4 319.5 404.8 C 319.0 404.6 322.1 407.1 321.6 406.9 C 321.6 406.9 321.6 406.9 321.6 406.9 Z M 325.1 409.9 C 325.9 410.5 325.5 410.1 325.2 409.8 C 325.3 409.9 326.4 410.7 327.2 411.3 C 327.2 411.4 326.0 409.9 326.2 409.8 C 322.8 407.5 325.1 409.6 325.1 409.9 C 325.1 409.9 325.1 409.9 325.1 409.9 Z M 328.5 412.2 C 330.7 414.0 334.3 416.1 336.1 416.9 C 334.4 415.5 329.8 412.7 328.5 412.2 C 328.5 412.2 328.5 412.2 328.5 412.2 Z M 312.5 395.5 C 313.9 398.8 318.8 404.6 315.1 399.0 C 315.1 399.3 312.6 395.7 311.9 393.9 C 311.8 393.9 310.8 392.0 310.9 391.9 C 310.2 390.6 312.7 396.3 312.5 395.5 C 312.5 395.5 312.5 395.5 312.5 395.5 Z M 339.7 418.4 C 338.3 417.7 339.9 419.1 337.8 417.8 C 336.6 417.1 338.1 418.0 337.7 418.0 C 340.3 419.4 346.4 422.1 346.8 422.6 C 348.4 423.2 348.9 423.2 351.9 424.5 C 352.0 424.5 341.5 420.0 339.7 418.5 C 339.9 418.5 343.3 420.3 339.7 418.4 C 339.7 418.4 339.7 418.4 339.7 418.4 Z M 410.7 327.0 C 410.9 326.8 407.7 327.6 408.3 327.2 C 406.6 327.8 404.9 328.0 403.0 328.6 C 402.4 328.6 402.5 328.2 399.8 328.8 C 399.8 329.0 401.1 328.7 399.9 329.1 C 397.4 329.7 398.0 329.2 395.3 330.0 C 395.8 330.2 389.5 331.4 390.1 331.7 C 391.6 331.3 391.4 331.1 393.9 330.6 C 394.7 330.4 394.3 330.7 395.4 330.4 C 394.7 330.8 393.4 330.8 392.4 331.2 C 392.7 331.3 394.5 330.9 394.7 331.0 C 395.8 330.7 394.4 331.0 394.7 330.8 C 397.6 330.0 394.6 331.3 397.8 330.5 C 397.1 330.5 397.1 330.4 397.7 330.1 C 399.0 329.9 402.9 328.9 400.8 329.6 C 401.0 329.7 403.4 329.0 403.0 328.9 C 404.3 328.6 404.5 328.7 404.6 328.7 C 407.9 328.0 408.3 327.7 407.6 327.6 C 408.2 327.2 408.7 327.5 410.7 327.0 C 410.7 327.0 410.7 327.0 410.7 327.0 Z M 310.2 378.8 C 310.3 377.5 309.9 380.2 309.7 381.4 C 309.9 379.9 310.2 380.4 310.6 378.9 C 310.3 379.4 310.3 379.3 310.5 378.3 C 310.5 378.0 309.9 380.3 310.2 378.8 C 310.2 378.8 310.2 378.8 310.2 378.8 Z M 358.4 427.1 C 359.5 427.8 365.5 429.8 368.8 430.9 C 368.3 430.3 360.4 428.1 359.5 427.4 C 357.8 426.8 360.4 427.9 358.4 427.1 C 358.4 427.1 358.4 427.1 358.4 427.1 Z M 382.0 333.3 C 381.2 333.5 381.7 333.5 382.0 333.4 C 381.8 333.5 380.3 333.9 379.2 334.3 C 380.8 334.0 378.9 334.6 379.3 334.7 C 378.5 334.9 378.1 335.1 378.0 335.2 C 377.8 334.8 373.6 336.7 378.1 335.5 C 377.2 335.5 377.5 335.4 379.4 334.8 C 381.4 334.4 383.0 333.8 383.7 333.8 C 385.1 333.4 385.5 333.2 387.3 332.7 C 387.8 332.8 389.4 332.5 388.2 333.2 C 391.4 332.4 389.1 332.3 391.7 331.6 C 394.3 331.2 390.5 332.2 391.1 332.3 C 391.8 332.1 391.7 332.2 391.9 332.2 C 392.8 332.0 392.8 331.8 391.8 332.0 C 392.1 331.9 394.7 331.0 394.0 331.5 C 395.5 331.0 391.5 331.3 389.5 332.1 C 388.3 332.4 388.2 332.0 389.4 331.7 C 388.9 331.6 386.6 332.8 387.1 332.1 C 386.1 332.4 385.2 332.6 384.2 332.9 C 384.4 332.9 385.0 332.8 385.0 332.8 C 384.1 333.1 383.1 333.4 382.1 333.6 C 382.9 333.3 382.9 333.2 382.0 333.3 C 382.0 333.3 382.0 333.3 382.0 333.3 Z M 345.0 421.4 C 347.4 422.5 348.0 422.6 350.0 423.5 C 349.3 423.0 344.0 420.6 345.0 421.4 C 345.0 421.4 345.0 421.4 345.0 421.4 Z M 424.5 325.4 C 424.2 325.3 422.8 325.6 422.8 325.5 C 425.3 325.0 422.4 325.3 424.4 324.6 C 421.1 325.3 420.1 326.1 424.5 325.6 C 427.7 325.0 421.2 325.9 424.5 325.4 C 424.5 325.4 424.5 325.4 424.5 325.4 Z M 414.8 326.9 C 412.8 327.3 417.7 326.6 418.8 326.5 C 418.9 326.6 418.9 326.6 418.9 326.7 C 421.6 325.9 417.9 326.4 420.3 325.5 C 417.1 325.9 415.8 326.1 413.1 326.7 C 413.3 326.7 413.9 326.6 413.9 326.5 C 415.9 326.2 414.6 326.8 412.4 327.1 C 413.0 327.1 415.0 326.7 416.4 326.5 C 416.0 326.5 415.5 326.5 415.5 326.4 C 417.2 326.1 416.7 326.4 417.9 326.2 C 417.9 326.3 414.9 327.0 414.8 326.9 C 414.8 326.9 414.8 326.9 414.8 326.9 Z M 583.9 322.6 C 582.2 322.5 585.7 323.2 585.5 323.6 C 587.3 323.8 587.7 323.8 588.8 323.9 C 588.3 323.7 586.3 323.4 585.5 323.2 C 585.9 322.9 588.1 323.6 588.9 323.4 C 590.0 323.2 584.6 323.0 583.9 322.6 C 583.9 322.6 583.9 322.6 583.9 322.6 Z M 339.7 349.8 C 338.8 350.3 339.3 350.0 339.7 349.8 C 339.6 350.0 338.1 350.8 338.1 350.7 C 336.8 351.5 338.9 350.4 337.3 351.3 C 337.1 351.6 339.7 350.0 339.8 349.9 C 341.7 348.9 340.3 349.9 340.9 349.8 C 342.6 348.9 341.9 349.0 344.4 347.8 C 342.8 348.4 341.4 349.0 339.7 349.8 C 339.7 349.8 339.7 349.8 339.7 349.8 Z M 430.1 324.1 C 430.4 323.9 428.2 324.7 426.0 324.8 C 423.2 325.3 427.8 324.8 425.3 325.2 C 427.4 324.9 430.0 324.3 433.4 323.8 C 434.2 323.6 428.7 324.4 431.8 323.9 C 431.6 323.8 430.9 324.0 430.9 324.0 C 430.2 324.1 430.1 324.1 430.1 324.1 C 430.1 324.1 430.1 324.1 430.1 324.1 Z M 426.9 325.1 C 427.0 325.2 427.8 325.0 427.7 325.0 C 428.8 324.8 428.8 325.1 427.8 325.2 C 429.2 325.3 429.0 324.8 431.8 324.5 C 430.6 324.5 430.0 324.4 432.6 324.3 C 434.7 323.7 427.8 324.8 426.9 325.1 C 426.9 325.1 426.9 325.1 426.9 325.1 Z M 556.7 320.1 C 556.9 320.2 558.8 320.3 560.1 320.5 C 558.4 320.5 551.4 319.9 550.6 319.7 C 549.8 319.7 549.1 319.7 548.8 319.6 C 548.9 319.7 546.9 319.7 548.0 319.8 C 547.8 319.9 546.3 319.7 546.3 319.8 C 543.6 319.6 547.0 319.7 546.3 319.5 C 543.1 319.6 543.8 319.4 540.1 319.2 C 540.7 319.5 544.8 319.6 544.5 319.9 C 547.4 319.8 550.5 320.2 552.3 320.5 C 549.6 320.0 559.7 320.5 564.4 321.0 C 564.2 321.1 565.9 321.2 567.8 321.5 C 569.1 321.9 568.7 321.3 566.1 321.2 C 566.2 321.1 569.7 321.5 571.2 321.6 C 569.5 321.3 570.5 321.3 569.6 321.1 C 566.3 320.8 569.3 321.2 568.7 321.3 C 567.8 321.2 567.0 321.1 566.1 321.1 C 570.6 321.1 559.6 320.4 563.6 320.8 C 560.1 320.5 560.0 320.2 556.7 320.1 C 556.7 320.1 556.7 320.1 556.7 320.1 Z M 474.2 319.6 C 473.6 319.6 470.9 320.0 470.8 319.8 C 467.2 320.2 470.4 320.2 466.4 320.5 C 466.7 320.6 468.2 320.4 468.2 320.5 C 469.7 320.3 471.2 320.2 470.8 320.0 C 472.6 319.9 473.1 319.7 474.2 319.6 C 473.8 319.8 473.2 319.9 471.6 320.0 C 471.4 320.2 472.0 320.3 474.3 320.1 C 475.3 319.9 474.6 319.7 474.2 319.6 C 474.2 319.6 474.2 319.6 474.2 319.6 Z M 465.6 320.5 C 465.1 320.5 464.6 320.4 464.7 320.3 C 463.4 320.2 464.2 320.7 463.0 320.8 C 462.0 320.8 462.3 320.7 462.1 320.6 C 460.6 320.8 459.4 320.9 458.7 320.9 C 456.3 321.2 461.4 320.9 462.1 320.9 C 463.8 320.8 463.2 320.6 465.6 320.5 C 465.6 320.5 465.6 320.5 465.6 320.5 Z M 440.0 322.8 C 439.6 322.6 438.7 323.1 437.6 323.2 C 438.4 323.3 440.8 322.9 439.2 323.4 C 441.7 323.2 441.9 323.1 444.3 322.8 C 445.9 322.8 444.4 322.6 441.8 323.0 C 442.1 322.9 443.2 322.7 443.4 322.6 C 445.1 322.8 449.3 321.6 446.7 322.3 C 446.0 322.3 445.5 322.3 445.1 322.2 C 444.5 322.5 438.8 323.1 440.0 322.8 C 440.0 322.8 440.0 322.8 440.0 322.8 Z M 360.9 341.0 C 363.1 340.1 364.3 339.7 365.5 339.3 C 366.7 338.9 368.4 338.3 369.8 337.9 C 369.9 337.9 369.7 338.1 369.2 338.2 C 369.8 338.1 370.6 337.8 371.8 337.4 C 371.7 337.3 371.1 337.6 371.2 337.6 C 368.9 338.1 370.8 337.5 371.0 337.2 C 368.3 337.9 364.0 339.8 361.9 340.2 C 360.2 340.9 362.3 340.2 360.9 341.0 C 360.9 341.0 360.9 341.0 360.9 341.0 Z M 711.7 392.5 C 711.7 392.8 711.3 393.7 711.5 393.6 C 711.8 392.8 712.0 392.2 712.2 391.5 C 711.6 392.9 711.5 392.6 710.5 394.4 C 710.9 393.8 711.1 394.1 711.7 392.5 C 711.7 392.5 711.7 392.5 711.7 392.5 Z M 448.5 321.9 C 448.6 322.0 448.6 322.1 447.7 322.2 C 447.3 322.5 450.1 322.1 450.2 322.2 C 451.1 322.1 450.7 322.0 451.9 321.9 C 451.5 321.8 449.2 322.1 450.1 321.7 C 450.9 321.6 450.9 321.7 451.0 321.7 C 452.8 321.4 450.1 321.6 448.5 321.9 C 448.5 321.9 448.5 321.9 448.5 321.9 Z M 592.2 324.0 C 591.0 323.8 592.1 324.1 593.0 324.3 C 590.6 324.2 594.4 324.8 594.5 325.1 C 593.5 324.8 590.2 324.4 589.7 324.3 C 588.7 324.2 589.8 324.6 587.1 324.3 C 587.4 324.5 590.3 324.7 589.6 324.4 C 590.3 324.8 593.2 324.9 592.9 325.1 C 596.6 325.7 597.5 325.7 597.8 325.5 C 594.2 325.0 596.1 324.9 593.0 324.5 C 593.0 324.4 594.0 324.6 594.6 324.6 C 594.4 324.5 593.0 324.2 592.2 324.0 C 592.2 324.0 592.2 324.0 592.2 324.0 Z M 502.3 318.6 C 500.3 318.7 500.4 318.9 500.5 319.1 C 501.3 319.0 502.5 319.0 504.0 318.9 C 503.7 318.8 501.3 318.9 502.3 318.6 C 502.3 318.6 502.3 318.6 502.3 318.6 Z M 578.8 322.6 C 578.6 322.5 578.0 322.5 578.0 322.5 C 575.8 322.3 575.4 322.1 574.6 321.9 C 573.5 321.8 573.9 322.0 573.8 322.1 C 575.8 322.1 575.3 322.4 578.0 322.7 C 577.8 322.5 578.1 322.5 578.8 322.6 C 578.8 322.6 578.8 322.6 578.8 322.6 Z M 520.8 318.8 C 519.7 318.8 520.3 318.9 520.8 318.9 C 519.6 319.1 516.0 318.9 514.6 319.0 C 514.4 319.2 518.9 319.1 513.7 319.2 C 514.7 319.4 519.3 319.3 521.6 319.4 C 521.1 319.6 517.9 319.5 518.1 319.8 C 520.8 319.7 523.8 319.6 524.3 319.3 C 520.3 319.1 521.7 319.0 520.8 318.8 C 520.8 318.8 520.8 318.8 520.8 318.8 Z M 525.1 319.0 C 524.8 318.9 524.0 319.0 522.6 319.0 C 524.7 319.3 526.0 319.2 530.5 319.4 C 530.5 319.4 530.5 319.3 530.5 319.2 C 531.3 319.3 532.3 319.3 533.1 319.3 C 529.3 318.9 528.3 319.1 524.3 319.1 C 524.1 319.0 524.6 319.0 525.1 319.0 C 525.1 319.0 525.1 319.0 525.1 319.0 Z M 410.9 327.8 C 412.0 327.7 412.9 327.6 414.8 327.3 C 414.6 327.2 413.5 327.2 410.9 327.8 C 410.9 327.8 410.9 327.8 410.9 327.8 Z M 582.1 323.1 C 584.4 323.3 579.9 322.9 581.3 323.3 C 583.1 323.6 585.0 323.9 585.4 324.2 C 588.8 324.3 581.7 323.4 582.1 323.1 C 582.1 323.1 582.1 323.1 582.1 323.1 Z M 566.9 322.1 C 565.9 322.0 565.9 321.6 566.9 321.9 C 569.3 322.2 564.9 321.5 568.6 321.9 C 567.0 321.7 563.5 321.2 561.8 321.2 C 561.8 321.4 565.1 321.6 565.2 321.9 C 565.3 321.9 564.8 321.9 564.3 321.9 C 564.6 322.0 565.4 321.9 566.9 322.1 C 566.9 322.1 566.9 322.1 566.9 322.1 Z M 554.0 320.6 C 555.5 320.9 557.1 321.1 560.1 321.3 C 558.2 321.0 557.1 320.7 554.0 320.6 C 554.0 320.6 554.0 320.6 554.0 320.6 Z M 704.9 366.5 C 703.9 365.3 704.6 366.5 704.7 366.7 C 705.7 367.9 705.8 367.7 706.8 369.1 C 706.7 368.5 705.4 367.4 704.9 366.5 C 704.9 366.5 704.9 366.5 704.9 366.5 Z M 708.2 371.0 C 708.2 371.2 709.3 372.8 709.2 373.0 C 710.2 373.8 710.2 375.6 710.5 375.4 C 710.6 375.8 710.7 376.2 711.0 376.9 C 710.9 375.4 709.2 372.4 708.2 371.0 C 708.2 371.0 708.2 371.0 708.2 371.0 Z M 539.2 320.3 C 536.9 320.1 539.8 320.7 537.4 320.5 C 537.3 320.6 541.9 320.9 539.1 320.8 C 542.7 321.2 538.9 320.4 539.2 320.3 C 539.2 320.3 539.2 320.3 539.2 320.3 Z M 496.1 320.1 C 496.3 320.0 493.1 320.2 491.8 320.2 C 491.8 320.3 492.8 320.2 493.5 320.2 C 493.1 320.3 492.7 320.4 491.8 320.4 C 492.5 320.6 494.9 320.2 496.1 320.1 C 496.1 320.1 496.1 320.1 496.1 320.1 Z M 543.8 316.3 C 545.2 316.6 547.1 316.9 548.1 316.7 C 549.7 317.0 547.1 316.9 549.0 317.1 C 551.5 317.1 550.3 317.3 554.2 317.5 C 553.5 317.7 556.3 317.9 556.8 318.1 C 555.2 318.0 553.2 317.6 552.4 317.8 C 553.8 317.9 553.0 318.1 552.4 317.9 C 549.8 317.6 555.7 317.8 552.5 317.4 C 551.5 317.7 546.9 316.8 543.8 316.7 C 545.0 316.5 541.5 316.2 543.8 316.3 C 543.8 316.3 543.8 316.3 543.8 316.3 Z M 559.4 317.8 C 561.5 318.0 562.6 318.6 562.0 318.5 C 562.0 318.4 559.6 318.2 559.4 318.3 C 560.0 318.4 560.5 318.4 560.3 318.5 C 556.4 318.1 557.8 318.0 556.9 317.8 C 559.0 317.9 559.6 318.0 560.3 318.0 C 559.8 317.9 559.3 317.9 559.4 317.8 C 559.4 317.8 559.4 317.8 559.4 317.8 Z M 603.4 327.2 C 603.0 326.9 602.5 327.0 601.7 327.0 C 601.6 326.6 597.4 326.4 596.9 326.1 C 597.9 326.2 600.0 326.5 601.0 326.5 C 599.9 326.3 599.6 326.2 598.5 326.1 C 598.8 325.9 601.2 326.3 601.8 326.3 C 602.0 326.4 603.2 326.4 603.4 326.6 C 600.3 326.2 605.2 327.4 603.4 327.2 C 603.4 327.2 603.4 327.2 603.4 327.2 Z M 519.0 320.1 C 518.7 320.3 522.5 320.9 519.0 321.2 C 518.3 321.0 517.8 320.7 518.1 320.4 C 515.9 320.6 515.0 320.3 513.7 320.6 C 509.7 319.8 516.8 320.7 519.0 320.1 C 519.0 320.1 519.0 320.1 519.0 320.1 Z M 504.9 320.3 C 505.7 320.1 503.7 320.1 504.0 319.9 C 505.7 320.0 511.2 319.8 509.3 319.9 C 507.5 320.0 507.5 320.3 504.9 320.3 C 504.9 320.3 504.9 320.3 504.9 320.3 Z M 405.3 440.0 C 402.8 439.6 401.6 438.9 403.0 439.1 C 402.4 439.2 406.2 439.8 405.3 440.0 C 405.3 440.0 405.3 440.0 405.3 440.0 Z M 312.8 402.2 C 313.9 404.0 314.9 404.8 314.9 405.1 C 313.5 403.6 313.7 403.7 312.7 402.3 C 312.5 402.3 311.8 401.5 311.8 401.3 C 312.4 402.0 312.4 401.8 312.8 402.2 C 312.8 402.2 312.8 402.2 312.8 402.2 Z M 451.4 317.6 C 451.2 317.5 450.2 317.5 450.6 317.3 C 453.2 317.2 456.1 316.7 458.3 316.4 C 458.3 316.5 458.3 316.6 458.3 316.7 C 454.2 317.0 453.1 317.3 451.4 317.6 C 451.4 317.6 451.4 317.6 451.4 317.6 Z M 446.2 317.6 C 445.8 317.8 447.3 317.9 445.4 318.1 C 445.5 318.0 442.3 318.1 443.7 317.8 C 444.3 318.0 445.1 317.9 446.2 317.6 C 446.2 317.6 446.2 317.6 446.2 317.6 Z M 592.6 320.8 C 594.6 321.1 591.7 320.5 591.8 320.4 C 593.3 320.6 595.3 320.9 595.9 321.1 C 594.5 320.9 593.4 321.1 592.6 320.8 C 592.6 320.8 592.6 320.8 592.6 320.8 Z M 561.2 317.9 C 556.7 317.6 558.7 317.3 554.3 316.9 C 556.1 316.9 560.1 317.2 561.3 317.1 C 561.1 317.2 562.2 317.4 562.1 317.5 C 560.5 317.4 560.2 317.2 558.6 317.1 C 559.2 317.4 559.2 317.3 558.6 317.5 C 559.8 317.6 560.5 317.6 561.2 317.7 C 560.9 317.8 562.5 318.0 561.2 317.9 C 561.2 317.9 561.2 317.9 561.2 317.9 Z M 591.7 321.3 C 593.4 321.5 594.8 322.0 593.4 321.8 C 593.1 321.6 592.0 321.7 591.7 321.5 C 594.1 321.8 589.8 321.1 590.9 321.1 C 592.4 321.3 592.9 321.2 592.6 321.0 C 593.5 321.2 595.0 321.4 595.1 321.5 C 594.4 321.4 593.4 321.2 593.4 321.3 C 593.9 321.4 594.4 321.5 594.2 321.5 C 592.8 321.3 592.1 321.3 591.7 321.3 C 591.7 321.3 591.7 321.3 591.7 321.3 Z M 580.0 319.8 C 582.3 320.1 582.6 320.4 583.4 320.6 C 580.3 320.2 579.8 319.8 577.5 319.4 C 580.1 319.7 582.6 319.7 583.4 320.0 C 582.3 319.9 580.2 319.7 580.0 319.8 C 580.0 319.8 580.0 319.8 580.0 319.8 Z M 625.2 440.2 C 623.4 440.5 621.8 440.7 619.8 441.0 C 619.1 441.4 623.0 441.0 621.4 441.2 C 619.3 441.7 620.7 441.1 619.0 441.4 C 620.7 441.4 611.6 443.2 611.2 442.9 C 612.6 442.7 613.0 442.5 612.7 442.4 C 616.4 441.7 617.8 441.2 620.5 440.6 C 622.5 440.5 628.2 439.3 631.1 438.3 C 633.2 438.3 636.6 436.9 639.3 436.6 C 640.0 436.2 637.1 436.9 639.2 436.3 C 640.7 436.1 639.6 436.5 641.6 436.1 C 641.7 436.0 641.2 435.9 642.2 435.6 C 642.1 435.8 643.3 435.5 643.7 435.5 C 639.8 436.5 644.0 435.7 640.9 436.6 C 639.6 436.9 642.2 435.9 638.6 436.8 C 637.4 437.2 636.2 437.6 636.5 437.8 C 635.5 438.0 634.9 438.2 634.3 438.4 C 635.6 437.8 629.2 439.7 632.1 438.7 C 632.3 438.7 634.3 438.2 635.7 437.7 C 634.4 437.8 632.8 438.4 630.5 439.0 C 629.5 439.0 630.9 438.7 629.7 438.9 C 627.9 439.5 630.5 439.1 629.1 439.5 C 629.7 439.4 630.6 439.2 630.6 439.3 C 627.4 439.8 626.1 440.3 624.5 440.6 C 625.6 440.2 622.6 440.8 625.2 440.2 C 625.2 440.2 625.2 440.2 625.2 440.2 Z M 651.4 433.0 C 652.1 432.8 652.7 432.6 653.5 432.4 C 653.7 432.6 651.0 433.4 652.9 433.1 C 649.9 434.0 652.9 432.7 651.4 433.0 C 651.4 433.0 651.4 433.0 651.4 433.0 Z M 637.0 436.2 C 635.8 436.2 636.5 436.6 635.5 436.9 C 637.3 436.4 638.9 435.9 639.2 436.1 C 637.1 436.6 636.2 436.8 634.1 437.4 C 636.1 436.6 631.7 437.7 630.9 437.6 C 632.6 437.1 633.9 436.7 636.1 436.2 C 635.8 436.4 639.0 435.6 637.0 436.2 C 637.0 436.2 637.0 436.2 637.0 436.2 Z M 642.6 434.3 C 643.1 434.4 646.2 433.4 645.6 433.8 C 643.7 434.3 643.0 434.6 643.5 434.7 C 642.1 435.1 641.9 435.0 640.6 435.4 C 639.8 435.3 642.0 434.7 642.7 434.4 C 642.2 434.5 641.8 434.6 642.6 434.3 C 642.6 434.3 642.6 434.3 642.6 434.3 Z M 703.1 403.4 C 703.8 403.2 701.6 405.1 701.2 405.4 C 701.9 405.0 701.7 405.3 700.3 406.7 C 700.7 405.9 698.6 407.8 697.0 408.6 C 696.8 409.1 698.7 407.8 696.6 409.4 C 694.8 410.6 693.4 411.9 690.3 413.8 C 689.5 414.0 690.9 413.1 691.6 412.5 C 689.6 413.8 690.1 413.3 688.5 414.2 C 688.9 414.2 687.6 415.0 687.0 415.2 C 689.8 413.5 683.0 417.1 686.0 415.3 C 686.2 415.3 686.9 414.9 687.6 414.4 C 687.0 415.2 690.7 412.8 691.5 412.4 C 692.7 411.1 696.4 408.8 699.9 406.1 C 700.2 406.0 699.2 407.0 700.0 406.3 C 700.1 406.1 701.1 405.2 701.6 404.7 C 701.6 404.9 702.1 404.5 702.7 403.9 C 702.7 403.9 702.8 403.8 703.1 403.4 C 703.1 403.4 703.1 403.4 703.1 403.4 Z M 485.6 448.3 C 485.8 447.9 480.1 447.9 478.6 447.9 C 478.9 447.5 488.8 448.0 485.6 448.3 C 485.6 448.3 485.6 448.3 485.6 448.3 Z M 519.9 448.5 C 518.4 448.5 519.5 448.7 518.2 448.8 C 518.1 448.5 514.7 449.0 514.7 448.8 C 516.3 448.5 517.3 448.6 519.9 448.5 C 519.9 448.5 519.9 448.5 519.9 448.5 Z M 551.5 447.4 C 548.9 447.6 552.8 447.4 552.3 447.5 C 550.1 447.7 547.9 447.8 548.0 447.6 C 550.0 447.6 551.2 447.2 551.5 447.4 C 551.5 447.4 551.5 447.4 551.5 447.4 Z M 504.1 448.3 C 502.0 448.1 505.5 447.9 505.8 448.0 C 503.5 448.1 507.4 448.3 509.3 448.2 C 509.3 448.5 508.4 448.4 509.3 448.7 C 506.2 448.8 508.8 448.4 506.7 448.4 C 505.2 448.6 506.8 448.5 506.7 448.8 C 505.8 448.8 505.0 448.8 504.1 448.7 C 504.1 448.6 504.1 448.5 504.1 448.3 C 505.1 448.3 506.2 448.3 505.8 448.2 C 505.0 448.2 504.8 448.2 504.1 448.3 C 504.1 448.3 504.1 448.3 504.1 448.3 Z M 660.5 426.6 C 658.7 427.3 660.3 426.9 661.6 426.4 C 661.9 426.2 662.9 425.3 664.9 424.8 C 660.7 426.7 666.3 424.7 664.0 425.7 C 662.9 425.8 660.4 427.1 658.2 427.8 C 657.2 427.9 659.4 426.8 660.5 426.6 C 660.5 426.6 660.5 426.6 660.5 426.6 Z M 668.3 423.9 C 668.0 423.9 667.3 424.2 666.0 424.7 C 667.3 423.9 665.4 424.6 667.1 423.9 C 666.9 424.1 672.4 421.9 669.2 423.3 C 666.3 424.3 670.1 423.1 671.4 422.6 C 670.0 423.2 667.5 424.5 667.1 424.4 C 667.9 424.1 668.5 423.9 668.3 423.9 C 668.3 423.9 668.3 423.9 668.3 423.9 Z M 709.8 393.4 C 709.7 393.1 709.3 394.0 709.1 394.2 C 710.4 391.8 711.0 389.8 711.3 388.6 C 711.1 389.7 711.3 389.8 711.5 389.1 C 711.1 390.3 711.1 390.6 710.9 391.0 C 711.0 389.9 710.5 391.9 709.8 393.4 C 709.8 393.4 709.8 393.4 709.8 393.4 Z M 709.8 393.4 " fill="#000000"></path><image xlink:href="../../08D8153F-124F-4877-8F0A-0F3AD155BE3D/assets/782BC84943EB43EBE0EF711BAC53ACFC.png" width="214.00" height="50.00" transform="matrix(1.00, 0.00, -0.00, -1.00, 406.0, 397.0)"></image><g><clipPath id="clip-44"><path d="M 309.5 450.3 L 714.5 450.3 L 714.5 317.7 L 309.5 317.7 Z M 309.5 450.3 "></path></clipPath><g clip-path="url(#clip-44)"><text xml:space="preserve" font-family="Chalkduster" font-size="30.0" fill="#000000" transform="matrix(1.00, 0.00, -0.00, -1.00, 409.5, 370.4)">S</text><text xml:space="preserve" font-family="Chalkduster" font-size="30.0" fill="#000000" transform="matrix(1.00, 0.00, -0.00, -1.00, 424.5, 370.4)">u</text><text xml:space="preserve" font-family="Chalkduster" font-size="30.0" fill="#000000" transform="matrix(1.00, 0.00, -0.00, -1.00, 444.5, 370.4)">m</text><text xml:space="preserve" font-family="Chalkduster" font-size="30.0" fill="#000000" transform="matrix(1.00, 0.00, -0.00, -1.00, 475.8, 370.4)">m</text><text xml:space="preserve" font-family="Chalkduster" font-size="30.0" fill="#000000" transform="matrix(1.00, 0.00, -0.00, -1.00, 506.6, 370.4)">i</text><text xml:space="preserve" font-family="Chalkduster" font-size="30.0" fill="#000000" transform="matrix(1.00, 0.00, -0.00, -1.00, 518.4, 370.4)">n</text><text xml:space="preserve" font-family="Chalkduster" font-size="30.0" fill="#000000" transform="matrix(1.00, 0.00, -0.00, -1.00, 539.5, 370.4)">g</text><text xml:space="preserve" font-family="Chalkduster" font-size="30.0" fill="#000000" transform="matrix(1.00, 0.00, -0.00, -1.00, 560.0, 370.4)"> </text><text xml:space="preserve" font-family="Chalkduster" font-size="30.0" fill="#000000" transform="matrix(1.00, 0.00, -0.00, -1.00, 574.9, 370.4)">u</text><text xml:space="preserve" font-family="Chalkduster" font-size="30.0" fill="#000000" transform="matrix(1.00, 0.00, -0.00, -1.00, 596.0, 370.4)">p</text></g></g><g><clipPath id="clip-45"><path d="M 141.3 230.0 L 282.9 230.0 L 282.9 293.0 L 141.3 293.0 Z M 141.3 230.0 "></path></clipPath><g clip-path="url(#clip-45)"><text xml:space="preserve" font-family="Chalkduster" font-size="30.0" fill="#FEFFFE" transform="matrix(1.00, 0.00, -0.00, -1.00, 151.0, 248.0)">L</text><text xml:space="preserve" font-family="Chalkduster" font-size="30.0" fill="#FEFFFE" transform="matrix(1.00, 0.00, -0.00, -1.00, 170.0, 248.0)">e</text><text xml:space="preserve" font-family="Chalkduster" font-size="30.0" fill="#FEFFFE" transform="matrix(1.00, 0.00, -0.00, -1.00, 188.4, 248.0)">v</text><text xml:space="preserve" font-family="Chalkduster" font-size="30.0" fill="#FEFFFE" transform="matrix(1.00, 0.00, -0.00, -1.00, 206.8, 248.0)">e</text><text xml:space="preserve" font-family="Chalkduster" font-size="30.0" fill="#FEFFFE" transform="matrix(1.00, 0.00, -0.00, -1.00, 225.4, 248.0)">l</text><text xml:space="preserve" font-family="Chalkduster" font-size="30.0" fill="#FEFFFE" transform="matrix(1.00, 0.00, -0.00, -1.00, 239.5, 248.0)"> </text><text xml:space="preserve" font-family="Chalkduster" font-size="30.0" fill="#FEFFFE" transform="matrix(1.00, 0.00, -0.00, -1.00, 254.4, 248.0)">1</text></g></g><g><clipPath id="clip-46"><path d="M 337.7 230.0 L 478.0 230.0 L 478.0 293.0 L 337.7 293.0 Z M 337.7 230.0 "></path></clipPath><g clip-path="url(#clip-46)"><text xml:space="preserve" font-family="Chalkduster" font-size="30.0" fill="#FEFFFE" transform="matrix(1.00, 0.00, -0.00, -1.00, 348.0, 248.0)">L</text><text xml:space="preserve" font-family="Chalkduster" font-size="30.0" fill="#FEFFFE" transform="matrix(1.00, 0.00, -0.00, -1.00, 367.0, 248.0)">e</text><text xml:space="preserve" font-family="Chalkduster" font-size="30.0" fill="#FEFFFE" transform="matrix(1.00, 0.00, -0.00, -1.00, 385.4, 248.0)">v</text><text xml:space="preserve" font-family="Chalkduster" font-size="30.0" fill="#FEFFFE" transform="matrix(1.00, 0.00, -0.00, -1.00, 403.8, 248.0)">e</text><text xml:space="preserve" font-family="Chalkduster" font-size="30.0" fill="#FEFFFE" transform="matrix(1.00, 0.00, -0.00, -1.00, 422.4, 248.0)">l</text><text xml:space="preserve" font-family="Chalkduster" font-size="30.0" fill="#FEFFFE" transform="matrix(1.00, 0.00, -0.00, -1.00, 436.5, 248.0)"> </text><text xml:space="preserve" font-family="Chalkduster" font-size="30.0" fill="#FEFFFE" transform="matrix(1.00, 0.00, -0.00, -1.00, 451.4, 248.0)">2</text></g></g><g><clipPath id="clip-47"><path d="M 532.9 230.0 L 676.9 230.0 L 676.9 293.0 L 532.9 293.0 Z M 532.9 230.0 "></path></clipPath><g clip-path="url(#clip-47)"><text xml:space="preserve" font-family="Chalkduster" font-size="30.0" fill="#FEFFFE" transform="matrix(1.00, 0.00, -0.00, -1.00, 543.0, 248.0)">L</text><text xml:space="preserve" font-family="Chalkduster" font-size="30.0" fill="#FEFFFE" transform="matrix(1.00, 0.00, -0.00, -1.00, 562.0, 248.0)">e</text><text xml:space="preserve" font-family="Chalkduster" font-size="30.0" fill="#FEFFFE" transform="matrix(1.00, 0.00, -0.00, -1.00, 580.4, 248.0)">v</text><text xml:space="preserve" font-family="Chalkduster" font-size="30.0" fill="#FEFFFE" transform="matrix(1.00, 0.00, -0.00, -1.00, 598.8, 248.0)">e</text><text xml:space="preserve" font-family="Chalkduster" font-size="30.0" fill="#FEFFFE" transform="matrix(1.00, 0.00, -0.00, -1.00, 617.4, 248.0)">l</text><text xml:space="preserve" font-family="Chalkduster" font-size="30.0" fill="#FEFFFE" transform="matrix(1.00, 0.00, -0.00, -1.00, 631.5, 248.0)"> </text><text xml:space="preserve" font-family="Chalkduster" font-size="30.0" fill="#FEFFFE" transform="matrix(1.00, 0.00, -0.00, -1.00, 646.4, 248.0)">3</text></g></g><g><clipPath id="clip-48"><path d="M 731.8 230.0 L 882.7 230.0 L 882.7 293.0 L 731.8 293.0 Z M 731.8 230.0 "></path></clipPath><g clip-path="url(#clip-48)"><text xml:space="preserve" font-family="Chalkduster" font-size="30.0" fill="#FEFFFE" transform="matrix(1.00, 0.00, -0.00, -1.00, 742.0, 248.0)">L</text><text xml:space="preserve" font-family="Chalkduster" font-size="30.0" fill="#FEFFFE" transform="matrix(1.00, 0.00, -0.00, -1.00, 761.0, 248.0)">e</text><text xml:space="preserve" font-family="Chalkduster" font-size="30.0" fill="#FEFFFE" transform="matrix(1.00, 0.00, -0.00, -1.00, 779.4, 248.0)">v</text><text xml:space="preserve" font-family="Chalkduster" font-size="30.0" fill="#FEFFFE" transform="matrix(1.00, 0.00, -0.00, -1.00, 797.8, 248.0)">e</text><text xml:space="preserve" font-family="Chalkduster" font-size="30.0" fill="#FEFFFE" transform="matrix(1.00, 0.00, -0.00, -1.00, 816.4, 248.0)">l</text><text xml:space="preserve" font-family="Chalkduster" font-size="30.0" fill="#FEFFFE" transform="matrix(1.00, 0.00, -0.00, -1.00, 830.5, 248.0)"> </text><text xml:space="preserve" font-family="Chalkduster" font-size="30.0" fill="#FEFFFE" transform="matrix(1.00, 0.00, -0.00, -1.00, 845.4, 248.0)">4</text></g></g><text xml:space="preserve" font-family="Chalkduster" font-size="30.0" fill="#FEFFFE" transform="matrix(1.00, 0.00, -0.00, -1.00, 159.0, 181.0)">S</text><text xml:space="preserve" font-family="Chalkduster" font-size="30.0" fill="#FEFFFE" transform="matrix(1.00, 0.00, -0.00, -1.00, 173.9, 181.0)">y</text><text xml:space="preserve" font-family="Chalkduster" font-size="30.0" fill="#FEFFFE" transform="matrix(1.00, 0.00, -0.00, -1.00, 192.8, 181.0)">n</text><text xml:space="preserve" font-family="Chalkduster" font-size="30.0" fill="#FEFFFE" transform="matrix(1.00, 0.00, -0.00, -1.00, 213.7, 181.0)">t</text><text xml:space="preserve" font-family="Chalkduster" font-size="30.0" fill="#FEFFFE" transform="matrix(1.00, 0.00, -0.00, -1.00, 227.1, 181.0)">a</text><text xml:space="preserve" font-family="Chalkduster" font-size="30.0" fill="#FEFFFE" transform="matrix(1.00, 0.00, -0.00, -1.00, 247.1, 181.0)">x</text><text xml:space="preserve" font-family="Chalkduster" font-size="30.0" fill="#FEFFFE" transform="matrix(1.00, 0.00, -0.00, -1.00, 317.0, 181.0)">C</text><text xml:space="preserve" font-family="Chalkduster" font-size="30.0" fill="#FEFFFE" transform="matrix(1.00, 0.00, -0.00, -1.00, 341.3, 181.0)">o</text><text xml:space="preserve" font-family="Chalkduster" font-size="30.0" fill="#FEFFFE" transform="matrix(1.00, 0.00, -0.00, -1.00, 363.6, 181.0)">n</text><text xml:space="preserve" font-family="Chalkduster" font-size="30.0" fill="#FEFFFE" transform="matrix(1.00, 0.00, -0.00, -1.00, 385.6, 181.0)">s</text><text xml:space="preserve" font-family="Chalkduster" font-size="30.0" fill="#FEFFFE" transform="matrix(1.00, 0.00, -0.00, -1.00, 401.7, 181.0)">t</text><text xml:space="preserve" font-family="Chalkduster" font-size="30.0" fill="#FEFFFE" transform="matrix(1.00, 0.00, -0.00, -1.00, 415.4, 181.0)">r</text><text xml:space="preserve" font-family="Chalkduster" font-size="30.0" fill="#FEFFFE" transform="matrix(1.00, 0.00, -0.00, -1.00, 432.1, 181.0)">u</text><text xml:space="preserve" font-family="Chalkduster" font-size="30.0" fill="#FEFFFE" transform="matrix(1.00, 0.00, -0.00, -1.00, 452.7, 181.0)">c</text><text xml:space="preserve" font-family="Chalkduster" font-size="30.0" fill="#FEFFFE" transform="matrix(1.00, 0.00, -0.00, -1.00, 470.5, 181.0)">t</text><text xml:space="preserve" font-family="Chalkduster" font-size="30.0" fill="#FEFFFE" transform="matrix(1.00, 0.00, -0.00, -1.00, 484.2, 181.0)">s</text><text xml:space="preserve" font-family="Chalkduster" font-size="30.0" fill="#FEFFFE" transform="matrix(1.00, 0.00, -0.00, -1.00, 558.0, 181.0)">L</text><text xml:space="preserve" font-family="Chalkduster" font-size="30.0" fill="#FEFFFE" transform="matrix(1.00, 0.00, -0.00, -1.00, 577.0, 181.0)">o</text><text xml:space="preserve" font-family="Chalkduster" font-size="30.0" fill="#FEFFFE" transform="matrix(1.00, 0.00, -0.00, -1.00, 599.0, 181.0)">g</text><text xml:space="preserve" font-family="Chalkduster" font-size="30.0" fill="#FEFFFE" transform="matrix(1.00, 0.00, -0.00, -1.00, 620.5, 181.0)">i</text><text xml:space="preserve" font-family="Chalkduster" font-size="30.0" fill="#FEFFFE" transform="matrix(1.00, 0.00, -0.00, -1.00, 632.7, 181.0)">c</text><text xml:space="preserve" font-family="Chalkduster" font-size="30.0" fill="#FEFFFE" transform="matrix(1.00, 0.00, -0.00, -1.00, 763.0, 181.0)">C</text><text xml:space="preserve" font-family="Chalkduster" font-size="30.0" fill="#FEFFFE" transform="matrix(1.00, 0.00, -0.00, -1.00, 787.3, 181.0)">r</text><text xml:space="preserve" font-family="Chalkduster" font-size="30.0" fill="#FEFFFE" transform="matrix(1.00, 0.00, -0.00, -1.00, 803.1, 181.0)">a</text><text xml:space="preserve" font-family="Chalkduster" font-size="30.0" fill="#FEFFFE" transform="matrix(1.00, 0.00, -0.00, -1.00, 822.8, 181.0)">f</text><text xml:space="preserve" font-family="Chalkduster" font-size="30.0" fill="#FEFFFE" transform="matrix(1.00, 0.00, -0.00, -1.00, 837.7, 181.0)">t</text><image xlink:href="../../44C12444-724C-48C3-8E70-A2784DD400CE/assets/E9F291D83A84602C625F4364D187672E.png" width="747.00" height="52.00" transform="matrix(1.00, 0.00, -0.00, -1.00, 137.4, 68.8)" opacity="0.50"></image><g><clipPath id="clip-49"><path d="M 163.5 63.8 L 858.5 63.8 C 863.0 63.8 866.3 63.8 869.3 63.0 C 873.8 61.6 877.4 58.1 878.8 53.5 C 879.6 50.5 879.6 47.2 879.6 42.7 C 879.6 38.2 879.6 34.9 878.8 31.9 C 877.4 27.3 873.8 23.8 869.3 22.4 C 866.3 21.6 863.0 21.6 858.5 21.6 L 163.5 21.6 C 159.0 21.6 155.7 21.6 152.7 22.4 C 148.2 23.8 144.6 27.3 143.2 31.9 C 142.4 34.9 142.4 38.2 142.4 42.7 C 142.4 47.2 142.4 50.5 143.2 53.5 C 144.6 58.1 148.2 61.6 152.7 63.0 C 155.7 63.8 159.0 63.8 163.5 63.8 Z M 163.5 63.8 "></path></clipPath><g clip-path="url(#clip-49)"><path d="M 142.4 21.6 L 879.6 21.6 L 879.6 63.8 L 142.4 63.8 Z M 142.4 21.6 " fill="url(#FDCC409C-370C-4786-9ADB-CEF73CE6F9F2)"></path></g></g><image xlink:href="../../44C12444-724C-48C3-8E70-A2784DD400CE/assets/1E66B90759E27F3F0864534F10F75730.png" width="186.00" height="35.00" transform="matrix(1.00, 0.00, -0.00, -1.00, 419.0, 55.0)"></image><g><clipPath id="clip-50"><path d="M 142.4 15.3 L 881.6 15.3 L 881.6 68.7 L 142.4 68.7 Z M 142.4 15.3 "></path></clipPath><g clip-path="url(#clip-50)"><text xml:space="preserve" font-family="Chalkduster" font-size="20.0" fill="#FEFFFE" transform="matrix(1.00, 0.00, -0.00, -1.00, 423.0, 34.0)">Y</text><text xml:space="preserve" font-family="Chalkduster" font-size="20.0" fill="#FEFFFE" transform="matrix(1.00, 0.00, -0.00, -1.00, 437.6, 34.0)">o</text><text xml:space="preserve" font-family="Chalkduster" font-size="20.0" fill="#FEFFFE" transform="matrix(1.00, 0.00, -0.00, -1.00, 452.6, 34.0)">u</text><text xml:space="preserve" font-family="Chalkduster" font-size="20.0" fill="#FEFFFE" transform="matrix(1.00, 0.00, -0.00, -1.00, 466.6, 34.0)">r</text><text xml:space="preserve" font-family="Chalkduster" font-size="20.0" fill="#FEFFFE" transform="matrix(1.00, 0.00, -0.00, -1.00, 477.2, 34.0)"> </text><text xml:space="preserve" font-family="Chalkduster" font-size="20.0" fill="#FEFFFE" transform="matrix(1.00, 0.00, -0.00, -1.00, 487.1, 34.0)">a</text><text xml:space="preserve" font-family="Chalkduster" font-size="20.0" fill="#FEFFFE" transform="matrix(1.00, 0.00, -0.00, -1.00, 501.2, 34.0)">s</text><text xml:space="preserve" font-family="Chalkduster" font-size="20.0" fill="#FEFFFE" transform="matrix(1.00, 0.00, -0.00, -1.00, 511.3, 34.0)">s</text><text xml:space="preserve" font-family="Chalkduster" font-size="20.0" fill="#FEFFFE" transform="matrix(1.00, 0.00, -0.00, -1.00, 521.4, 34.0)">i</text><text xml:space="preserve" font-family="Chalkduster" font-size="20.0" fill="#FEFFFE" transform="matrix(1.00, 0.00, -0.00, -1.00, 529.3, 34.0)">g</text><text xml:space="preserve" font-family="Chalkduster" font-size="20.0" fill="#FEFFFE" transform="matrix(1.00, 0.00, -0.00, -1.00, 542.9, 34.0)">m</text><text xml:space="preserve" font-family="Chalkduster" font-size="20.0" fill="#FEFFFE" transform="matrix(1.00, 0.00, -0.00, -1.00, 563.6, 34.0)">e</text><text xml:space="preserve" font-family="Chalkduster" font-size="20.0" fill="#FEFFFE" transform="matrix(1.00, 0.00, -0.00, -1.00, 576.2, 34.0)">n</text><text xml:space="preserve" font-family="Chalkduster" font-size="20.0" fill="#FEFFFE" transform="matrix(1.00, 0.00, -0.00, -1.00, 590.2, 34.0)">t</text></g></g><image xlink:href="../../44C12444-724C-48C3-8E70-A2784DD400CE/assets/99C2EA80C7C97FAE557D7A41C7CA7707.png" width="557.00" height="52.00" transform="matrix(1.00, 0.00, -0.00, -1.00, 136.7, 112.9)" opacity="0.50"></image><g><clipPath id="clip-51"><path d="M 162.8 107.9 L 667.1 107.9 C 671.6 107.9 674.8 107.9 677.9 107.1 C 682.4 105.7 686.0 102.1 687.3 97.6 C 688.2 94.6 688.2 91.3 688.2 86.8 C 688.2 82.3 688.2 79.0 687.3 75.9 C 686.0 71.4 682.4 67.9 677.9 66.5 C 674.8 65.6 671.6 65.6 667.1 65.6 L 162.8 65.6 C 158.3 65.6 155.0 65.6 152.0 66.5 C 147.4 67.9 143.9 71.4 142.5 75.9 C 141.7 79.0 141.7 82.3 141.7 86.8 C 141.7 91.3 141.7 94.6 142.5 97.6 C 143.9 102.1 147.4 105.7 152.0 107.1 C 155.0 107.9 158.3 107.9 162.8 107.9 Z M 162.8 107.9 "></path></clipPath><g clip-path="url(#clip-51)"><path d="M 141.7 65.6 L 688.2 65.6 L 688.2 107.9 L 141.7 107.9 Z M 141.7 65.6 " fill="url(#94409AE5-D9AE-4768-9634-FEB0A4460059)"></path></g></g><image xlink:href="../../44C12444-724C-48C3-8E70-A2784DD400CE/assets/BCC9145A62BDF76CAB74FDAF2F24DB82.png" width="179.00" height="28.00" transform="matrix(1.00, 0.00, -0.00, -1.00, 326.0, 98.0)"></image><g><clipPath id="clip-52"><path d="M 141.7 59.4 L 690.2 59.4 L 690.2 112.7 L 141.7 112.7 Z M 141.7 59.4 "></path></clipPath><g clip-path="url(#clip-52)"><text xml:space="preserve" font-family="Chalkduster" font-size="20.0" fill="#FEFFFE" transform="matrix(1.00, 0.00, -0.00, -1.00, 330.0, 78.0)">C</text><text xml:space="preserve" font-family="Chalkduster" font-size="20.0" fill="#FEFFFE" transform="matrix(1.00, 0.00, -0.00, -1.00, 346.2, 78.0)">l</text><text xml:space="preserve" font-family="Chalkduster" font-size="20.0" fill="#FEFFFE" transform="matrix(1.00, 0.00, -0.00, -1.00, 355.2, 78.0)">a</text><text xml:space="preserve" font-family="Chalkduster" font-size="20.0" fill="#FEFFFE" transform="matrix(1.00, 0.00, -0.00, -1.00, 369.2, 78.0)">s</text><text xml:space="preserve" font-family="Chalkduster" font-size="20.0" fill="#FEFFFE" transform="matrix(1.00, 0.00, -0.00, -1.00, 379.3, 78.0)">s</text><text xml:space="preserve" font-family="Chalkduster" font-size="20.0" fill="#FEFFFE" transform="matrix(1.00, 0.00, -0.00, -1.00, 389.4, 78.0)"> </text><text xml:space="preserve" font-family="Chalkduster" font-size="20.0" fill="#FEFFFE" transform="matrix(1.00, 0.00, -0.00, -1.00, 399.4, 78.0)">e</text><text xml:space="preserve" font-family="Chalkduster" font-size="20.0" fill="#FEFFFE" transform="matrix(1.00, 0.00, -0.00, -1.00, 411.1, 78.0)">x</text><text xml:space="preserve" font-family="Chalkduster" font-size="20.0" fill="#FEFFFE" transform="matrix(1.00, 0.00, -0.00, -1.00, 423.5, 78.0)">e</text><text xml:space="preserve" font-family="Chalkduster" font-size="20.0" fill="#FEFFFE" transform="matrix(1.00, 0.00, -0.00, -1.00, 435.7, 78.0)">r</text><text xml:space="preserve" font-family="Chalkduster" font-size="20.0" fill="#FEFFFE" transform="matrix(1.00, 0.00, -0.00, -1.00, 446.0, 78.0)">c</text><text xml:space="preserve" font-family="Chalkduster" font-size="20.0" fill="#FEFFFE" transform="matrix(1.00, 0.00, -0.00, -1.00, 458.6, 78.0)">i</text><text xml:space="preserve" font-family="Chalkduster" font-size="20.0" fill="#FEFFFE" transform="matrix(1.00, 0.00, -0.00, -1.00, 466.5, 78.0)">s</text><text xml:space="preserve" font-family="Chalkduster" font-size="20.0" fill="#FEFFFE" transform="matrix(1.00, 0.00, -0.00, -1.00, 476.6, 78.0)">e</text><text xml:space="preserve" font-family="Chalkduster" font-size="20.0" fill="#FEFFFE" transform="matrix(1.00, 0.00, -0.00, -1.00, 489.5, 78.0)">s</text></g></g><image xlink:href="../../44C12444-724C-48C3-8E70-A2784DD400CE/assets/119285814323AD45E711FD1EC0B6C8FA.png" width="389.00" height="52.00" transform="matrix(1.00, 0.00, -0.00, -1.00, 136.7, 157.0)" opacity="0.50"></image><g><clipPath id="clip-53"><path d="M 162.8 152.0 L 500.0 152.0 C 504.5 152.0 507.7 152.0 510.8 151.1 C 515.3 149.7 518.9 146.2 520.3 141.7 C 521.1 138.6 521.1 135.3 521.1 130.8 C 521.1 126.3 521.1 123.1 520.3 120.0 C 518.9 115.5 515.3 111.9 510.8 110.5 C 507.7 109.7 504.5 109.7 500.0 109.7 L 162.8 109.7 C 158.3 109.7 155.0 109.7 152.0 110.5 C 147.4 111.9 143.9 115.5 142.5 120.0 C 141.7 123.1 141.7 126.3 141.7 130.8 C 141.7 135.3 141.7 138.6 142.5 141.7 C 143.9 146.2 147.4 149.7 152.0 151.1 C 155.0 152.0 158.3 152.0 162.8 152.0 Z M 162.8 152.0 "></path></clipPath><g clip-path="url(#clip-53)"><image xlink:href="../../44C12444-724C-48C3-8E70-A2784DD400CE/assets/25F00FA72F972CE9869197762536879F.jpeg" width="738.00" height="738.00" transform="matrix(0.54, 0.00, -0.00, -0.54, 141.7, 152.0)"></image></g></g><image xlink:href="../../44C12444-724C-48C3-8E70-A2784DD400CE/assets/8980864C6523C89D5C26BF8B80A8161D.png" width="125.00" height="31.00" transform="matrix(1.00, 0.00, -0.00, -1.00, 270.0, 145.0)"></image><g><clipPath id="clip-54"><path d="M 141.7 103.4 L 523.1 103.4 L 523.1 156.8 L 141.7 156.8 Z M 141.7 103.4 "></path></clipPath><g clip-path="url(#clip-54)"><text xml:space="preserve" font-family="Chalkduster" font-size="20.0" fill="#FEFFFE" transform="matrix(1.00, 0.00, -0.00, -1.00, 273.0, 122.0)">N</text><text xml:space="preserve" font-family="Chalkduster" font-size="20.0" fill="#FEFFFE" transform="matrix(1.00, 0.00, -0.00, -1.00, 287.8, 122.0)">o</text><text xml:space="preserve" font-family="Chalkduster" font-size="20.0" fill="#FEFFFE" transform="matrix(1.00, 0.00, -0.00, -1.00, 301.5, 122.0)">t</text><text xml:space="preserve" font-family="Chalkduster" font-size="20.0" fill="#FEFFFE" transform="matrix(1.00, 0.00, -0.00, -1.00, 310.4, 122.0)">e</text><text xml:space="preserve" font-family="Chalkduster" font-size="20.0" fill="#FEFFFE" transform="matrix(1.00, 0.00, -0.00, -1.00, 322.8, 122.0)">b</text><text xml:space="preserve" font-family="Chalkduster" font-size="20.0" fill="#FEFFFE" transform="matrix(1.00, 0.00, -0.00, -1.00, 334.5, 122.0)">o</text><text xml:space="preserve" font-family="Chalkduster" font-size="20.0" fill="#FEFFFE" transform="matrix(1.00, 0.00, -0.00, -1.00, 349.6, 122.0)">o</text><text xml:space="preserve" font-family="Chalkduster" font-size="20.0" fill="#FEFFFE" transform="matrix(1.00, 0.00, -0.00, -1.00, 363.6, 122.0)">k</text><text xml:space="preserve" font-family="Chalkduster" font-size="20.0" fill="#FEFFFE" transform="matrix(1.00, 0.00, -0.00, -1.00, 379.1, 122.0)">s</text></g></g></g></svg>