<?xml version="1.0" encoding="UTF-8" standalone="no"?><svg xmlns="http://www.w3.org/2000/svg" xmlns:xlink="http://www.w3.org/1999/xlink" clip-rule="evenodd" stroke-miterlimit="4.00" viewBox="0 0 560 55"><desc>SVG generated by Keynote</desc><defs><pattern id="58E08A48-8CE5-454B-B0AA-301C14172B03" patternUnits="userSpaceOnUse" width="738" height="738" viewBox="0 0 738 738" patternTransform="matrix(0.542005, 0.000000, 0.000000, -0.542005, 6.675171, 48.891970)"><image xlink:href="../../44C12444-724C-48C3-8E70-A2784DD400CE/assets/25F00FA72F972CE9869197762536879F.jpeg" width="738.00" height="738.00"></image></pattern></defs><g transform="matrix(1.00, 0.00, -0.00, -1.00, 0.0, 55.0)"><image xlink:href="99C2EA80C7C97FAE557D7A41C7CA7707.png" width="557.00" height="52.00" transform="matrix(1.00, 0.00, -0.00, -1.00, 1.7, 53.9)" opacity="0.50"></image><g><clipPath id="clip-369"><path d="M 27.8 48.9 L 532.1 48.9 C 536.6 48.9 539.8 48.9 542.9 48.1 C 547.4 46.7 551.0 43.1 552.3 38.6 C 553.2 35.6 553.2 32.3 553.2 27.8 C 553.2 23.3 553.2 20.0 552.3 16.9 C 551.0 12.4 547.4 8.9 542.9 7.5 C 539.8 6.6 536.6 6.6 532.1 6.6 L 27.8 6.6 C 23.3 6.6 20.0 6.6 17.0 7.5 C 12.4 8.9 8.9 12.4 7.5 16.9 C 6.7 20.0 6.7 23.3 6.7 27.8 C 6.7 32.3 6.7 35.6 7.5 38.6 C 8.9 43.1 12.4 46.7 17.0 48.1 C 20.0 48.9 23.3 48.9 27.8 48.9 Z M 27.8 48.9 "></path></clipPath><g clip-path="url(#clip-369)"><path d="M 6.7 6.6 L 553.2 6.6 L 553.2 48.9 L 6.7 48.9 Z M 6.7 6.6 " fill="url(#58E08A48-8CE5-454B-B0AA-301C14172B03)"></path></g></g><image xlink:href="BCC9145A62BDF76CAB74FDAF2F24DB82.png" width="179.00" height="28.00" transform="matrix(1.00, 0.00, -0.00, -1.00, 191.0, 39.0)"></image><g><clipPath id="clip-370"><path d="M 6.7 0.4 L 555.2 0.4 L 555.2 53.7 L 6.7 53.7 Z M 6.7 0.4 "></path></clipPath><g clip-path="url(#clip-370)"><text xml:space="preserve" font-family="Chalkduster" font-size="20.0" fill="#FEFFFE" transform="matrix(1.00, 0.00, -0.00, -1.00, 195.0, 19.0)">C</text><text xml:space="preserve" font-family="Chalkduster" font-size="20.0" fill="#FEFFFE" transform="matrix(1.00, 0.00, -0.00, -1.00, 211.2, 19.0)">l</text><text xml:space="preserve" font-family="Chalkduster" font-size="20.0" fill="#FEFFFE" transform="matrix(1.00, 0.00, -0.00, -1.00, 220.2, 19.0)">a</text><text xml:space="preserve" font-family="Chalkduster" font-size="20.0" fill="#FEFFFE" transform="matrix(1.00, 0.00, -0.00, -1.00, 234.2, 19.0)">s</text><text xml:space="preserve" font-family="Chalkduster" font-size="20.0" fill="#FEFFFE" transform="matrix(1.00, 0.00, -0.00, -1.00, 244.3, 19.0)">s</text><text xml:space="preserve" font-family="Chalkduster" font-size="20.0" fill="#FEFFFE" transform="matrix(1.00, 0.00, -0.00, -1.00, 254.4, 19.0)"> </text><text xml:space="preserve" font-family="Chalkduster" font-size="20.0" fill="#FEFFFE" transform="matrix(1.00, 0.00, -0.00, -1.00, 264.4, 19.0)">e</text><text xml:space="preserve" font-family="Chalkduster" font-size="20.0" fill="#FEFFFE" transform="matrix(1.00, 0.00, -0.00, -1.00, 276.1, 19.0)">x</text><text xml:space="preserve" font-family="Chalkduster" font-size="20.0" fill="#FEFFFE" transform="matrix(1.00, 0.00, -0.00, -1.00, 288.5, 19.0)">e</text><text xml:space="preserve" font-family="Chalkduster" font-size="20.0" fill="#FEFFFE" transform="matrix(1.00, 0.00, -0.00, -1.00, 300.7, 19.0)">r</text><text xml:space="preserve" font-family="Chalkduster" font-size="20.0" fill="#FEFFFE" transform="matrix(1.00, 0.00, -0.00, -1.00, 311.0, 19.0)">c</text><text xml:space="preserve" font-family="Chalkduster" font-size="20.0" fill="#FEFFFE" transform="matrix(1.00, 0.00, -0.00, -1.00, 323.6, 19.0)">i</text><text xml:space="preserve" font-family="Chalkduster" font-size="20.0" fill="#FEFFFE" transform="matrix(1.00, 0.00, -0.00, -1.00, 331.5, 19.0)">s</text><text xml:space="preserve" font-family="Chalkduster" font-size="20.0" fill="#FEFFFE" transform="matrix(1.00, 0.00, -0.00, -1.00, 341.6, 19.0)">e</text><text xml:space="preserve" font-family="Chalkduster" font-size="20.0" fill="#FEFFFE" transform="matrix(1.00, 0.00, -0.00, -1.00, 354.5, 19.0)">s</text></g></g></g></svg>