<?xml version="1.0" encoding="UTF-8" standalone="no"?><svg xmlns="http://www.w3.org/2000/svg" xmlns:xlink="http://www.w3.org/1999/xlink" clip-rule="evenodd" stroke-miterlimit="4.00" viewBox="0 0 750 55"><desc>SVG generated by Keynote</desc><defs><pattern id="3DBED9BB-C7B4-4A58-8332-7978D3E04B25" patternUnits="userSpaceOnUse" width="738" height="738" viewBox="0 0 738 738" patternTransform="matrix(0.542005, 0.000000, 0.000000, -0.542005, 6.410919, 48.828930)"><image xlink:href="25F00FA72F972CE9869197762536879F.jpeg" width="738.00" height="738.00"></image></pattern></defs><g transform="matrix(1.00, 0.00, -0.00, -1.00, 0.0, 55.0)"><image xlink:href="E9F291D83A84602C625F4364D187672E.png" width="747.00" height="52.00" transform="matrix(1.00, 0.00, -0.00, -1.00, 1.4, 53.8)" opacity="0.50"></image><g><clipPath id="clip-36"><path d="M 27.5 48.8 L 722.5 48.8 C 727.0 48.8 730.3 48.8 733.3 48.0 C 737.8 46.6 741.4 43.1 742.8 38.5 C 743.6 35.5 743.6 32.2 743.6 27.7 C 743.6 23.2 743.6 19.9 742.8 16.9 C 741.4 12.3 737.8 8.8 733.3 7.4 C 730.3 6.6 727.0 6.6 722.5 6.6 L 27.5 6.6 C 23.0 6.6 19.7 6.6 16.7 7.4 C 12.2 8.8 8.6 12.3 7.2 16.9 C 6.4 19.9 6.4 23.2 6.4 27.7 C 6.4 32.2 6.4 35.5 7.2 38.5 C 8.6 43.1 12.2 46.6 16.7 48.0 C 19.7 48.8 23.0 48.8 27.5 48.8 Z M 27.5 48.8 "></path></clipPath><g clip-path="url(#clip-36)"><path d="M 6.4 6.6 L 743.6 6.6 L 743.6 48.8 L 6.4 48.8 Z M 6.4 6.6 " fill="url(#3DBED9BB-C7B4-4A58-8332-7978D3E04B25)"></path></g></g><image xlink:href="1E66B90759E27F3F0864534F10F75730.png" width="186.00" height="35.00" transform="matrix(1.00, 0.00, -0.00, -1.00, 283.0, 40.0)"></image><g><clipPath id="clip-37"><path d="M 6.4 0.3 L 745.6 0.3 L 745.6 53.7 L 6.4 53.7 Z M 6.4 0.3 "></path></clipPath><g clip-path="url(#clip-37)"><text xml:space="preserve" font-family="Chalkduster" font-size="20.0" fill="#FEFFFE" transform="matrix(1.00, 0.00, -0.00, -1.00, 287.0, 19.0)">Y</text><text xml:space="preserve" font-family="Chalkduster" font-size="20.0" fill="#FEFFFE" transform="matrix(1.00, 0.00, -0.00, -1.00, 301.6, 19.0)">o</text><text xml:space="preserve" font-family="Chalkduster" font-size="20.0" fill="#FEFFFE" transform="matrix(1.00, 0.00, -0.00, -1.00, 316.6, 19.0)">u</text><text xml:space="preserve" font-family="Chalkduster" font-size="20.0" fill="#FEFFFE" transform="matrix(1.00, 0.00, -0.00, -1.00, 330.6, 19.0)">r</text><text xml:space="preserve" font-family="Chalkduster" font-size="20.0" fill="#FEFFFE" transform="matrix(1.00, 0.00, -0.00, -1.00, 341.2, 19.0)"> </text><text xml:space="preserve" font-family="Chalkduster" font-size="20.0" fill="#FEFFFE" transform="matrix(1.00, 0.00, -0.00, -1.00, 351.1, 19.0)">a</text><text xml:space="preserve" font-family="Chalkduster" font-size="20.0" fill="#FEFFFE" transform="matrix(1.00, 0.00, -0.00, -1.00, 365.2, 19.0)">s</text><text xml:space="preserve" font-family="Chalkduster" font-size="20.0" fill="#FEFFFE" transform="matrix(1.00, 0.00, -0.00, -1.00, 375.3, 19.0)">s</text><text xml:space="preserve" font-family="Chalkduster" font-size="20.0" fill="#FEFFFE" transform="matrix(1.00, 0.00, -0.00, -1.00, 385.4, 19.0)">i</text><text xml:space="preserve" font-family="Chalkduster" font-size="20.0" fill="#FEFFFE" transform="matrix(1.00, 0.00, -0.00, -1.00, 393.3, 19.0)">g</text><text xml:space="preserve" font-family="Chalkduster" font-size="20.0" fill="#FEFFFE" transform="matrix(1.00, 0.00, -0.00, -1.00, 406.9, 19.0)">m</text><text xml:space="preserve" font-family="Chalkduster" font-size="20.0" fill="#FEFFFE" transform="matrix(1.00, 0.00, -0.00, -1.00, 427.6, 19.0)">e</text><text xml:space="preserve" font-family="Chalkduster" font-size="20.0" fill="#FEFFFE" transform="matrix(1.00, 0.00, -0.00, -1.00, 440.2, 19.0)">n</text><text xml:space="preserve" font-family="Chalkduster" font-size="20.0" fill="#FEFFFE" transform="matrix(1.00, 0.00, -0.00, -1.00, 454.2, 19.0)">t</text></g></g></g></svg>