<?xml version="1.0" encoding="UTF-8" standalone="no"?><svg xmlns="http://www.w3.org/2000/svg" xmlns:xlink="http://www.w3.org/1999/xlink" clip-rule="evenodd" stroke-miterlimit="4.00" viewBox="0 0 363 70"><desc>SVG generated by Keynote</desc><defs></defs><g transform="matrix(1.00, 0.00, -0.00, -1.00, 0.0, 70.0)"><path d="M 311.5 55.3 C 311.2 55.5 310.8 55.1 309.8 55.1 C 308.8 55.1 307.6 55.3 307.9 55.6 C 308.1 55.8 308.5 56.0 308.1 56.5 C 307.6 56.9 307.1 57.8 307.9 57.9 C 308.6 58.0 311.5 58.2 312.3 57.7 C 313.1 57.2 313.3 57.0 313.9 56.6 C 314.4 56.3 314.2 57.1 314.2 57.1 C 314.2 57.1 315.6 57.0 316.6 56.8 C 317.7 56.7 318.8 56.4 318.9 56.3 C 319.0 56.1 319.3 55.8 319.3 55.8 C 319.3 55.8 319.9 56.0 320.7 56.0 C 321.4 55.9 321.1 55.7 320.9 55.6 C 320.8 55.4 319.8 55.1 320.1 55.0 C 320.4 55.0 321.5 55.5 322.1 55.5 C 322.6 55.5 323.7 55.2 323.7 55.2 C 323.7 55.2 323.5 54.8 323.5 54.6 C 323.6 54.5 324.7 54.2 324.8 54.3 C 324.9 54.5 324.9 55.0 325.4 54.9 C 327.1 54.6 326.6 53.8 326.8 53.7 C 326.9 53.6 327.1 54.3 327.5 54.3 C 327.9 54.3 330.9 53.4 331.1 53.2 C 331.2 53.0 332.3 53.4 332.6 52.8 C 333.0 52.3 333.0 52.2 333.1 52.0 C 333.2 51.9 333.5 51.1 333.8 51.3 C 334.2 51.5 333.3 52.5 333.7 52.6 C 334.1 52.7 335.8 52.3 336.1 52.0 C 336.4 51.6 336.3 50.9 336.5 50.8 C 336.8 50.8 338.0 51.3 338.0 51.1 C 338.0 51.0 337.9 50.3 337.9 50.1 C 337.9 50.0 337.8 48.7 337.6 48.6 C 337.3 48.5 336.2 48.4 336.4 48.7 C 336.7 49.0 337.0 49.3 336.7 49.6 C 336.4 49.9 336.2 49.9 336.1 49.8 C 336.0 49.7 336.1 49.5 335.5 49.5 C 334.8 49.4 335.1 49.1 334.5 49.3 C 333.9 49.4 333.4 49.7 333.6 49.9 C 333.7 50.2 333.2 50.7 332.8 50.8 C 332.3 50.9 332.9 50.1 331.5 50.3 C 330.1 50.4 329.2 50.6 328.8 50.9 C 328.5 51.2 328.6 52.0 327.8 51.8 C 327.0 51.7 327.4 51.4 326.4 51.6 C 325.5 51.9 325.3 52.5 324.6 52.7 C 324.0 52.9 323.8 52.9 323.8 52.9 C 323.8 52.9 324.0 52.0 322.6 52.3 C 321.1 52.6 320.8 52.6 321.2 53.1 C 321.6 53.6 320.5 53.9 320.4 53.5 C 320.3 53.1 319.3 53.1 318.8 53.1 C 318.3 53.2 318.3 54.2 318.1 54.3 C 317.9 54.4 317.3 54.4 317.5 54.0 C 317.6 53.7 317.0 53.8 316.5 53.7 C 316.0 53.7 314.6 54.1 314.7 54.2 C 314.7 54.4 315.5 54.9 314.5 54.8 C 313.5 54.7 313.1 54.2 312.1 54.4 C 311.2 54.6 312.1 55.1 311.5 55.3 C 311.5 55.3 311.5 55.3 311.5 55.3 Z M 337.9 48.2 C 336.7 48.6 338.3 50.9 338.9 51.2 C 339.5 51.6 340.2 51.0 341.0 50.9 C 341.8 50.7 341.2 50.0 341.6 49.6 C 341.9 49.2 342.0 49.8 342.3 50.1 C 342.6 50.4 343.6 49.7 344.2 49.5 C 344.9 49.3 345.2 48.2 345.7 47.9 C 346.1 47.7 345.1 47.7 345.9 47.4 C 346.8 47.1 346.6 47.7 345.7 48.4 C 344.8 49.0 346.3 48.7 346.9 48.5 C 347.4 48.4 348.2 47.7 348.6 47.5 C 349.0 47.4 348.2 47.0 348.8 46.8 C 349.3 46.5 349.4 47.3 350.0 47.1 C 350.6 46.9 350.2 46.4 350.4 46.1 C 350.6 45.9 350.7 46.2 351.0 46.2 C 351.2 46.1 351.7 46.1 352.1 45.7 C 352.5 45.3 352.2 45.2 352.4 45.1 C 352.6 44.9 352.9 44.7 352.9 44.7 C 353.1 44.9 353.2 45.1 353.4 45.3 C 353.4 45.3 354.2 44.8 354.4 44.7 C 354.7 44.6 355.0 44.1 354.8 44.0 C 354.6 44.0 354.8 43.3 355.0 43.3 C 355.1 43.3 355.7 43.4 356.0 43.3 C 356.3 43.3 355.2 41.9 355.1 41.8 C 354.9 41.6 354.5 40.7 354.2 40.8 C 354.0 40.8 354.1 41.2 353.9 41.0 C 353.8 40.8 353.4 41.3 353.3 41.4 C 353.1 41.6 353.3 42.2 353.3 42.2 C 353.3 42.2 353.4 42.8 353.1 43.0 C 352.8 43.1 352.2 42.3 352.2 42.3 C 352.2 42.3 351.7 42.3 351.4 42.6 C 351.0 42.8 351.0 43.8 351.0 44.1 C 351.0 44.3 350.6 43.5 350.3 43.6 C 350.0 43.7 349.4 43.7 349.3 43.8 C 349.2 43.9 349.2 44.5 349.2 44.5 C 349.2 44.5 348.8 45.1 348.7 45.1 C 348.5 45.2 348.4 44.4 348.4 44.4 C 348.4 44.4 347.1 44.7 346.8 44.8 C 346.5 44.9 346.1 45.2 345.9 45.4 C 345.8 45.5 345.8 46.5 345.5 46.6 C 345.1 46.6 345.6 45.9 345.2 45.9 C 344.9 45.9 344.2 46.0 344.1 46.0 C 343.9 46.1 343.8 46.5 343.5 46.7 C 343.3 46.8 343.2 47.6 342.7 47.8 C 342.2 48.0 341.8 47.7 341.6 47.6 C 341.4 47.6 341.1 47.0 340.7 47.1 C 340.3 47.2 340.7 47.6 340.4 47.7 C 340.0 47.8 340.2 48.3 339.8 48.3 C 339.4 48.3 339.4 47.5 339.0 47.8 C 338.8 47.9 339.0 47.8 337.9 48.2 C 337.9 48.2 337.9 48.2 337.9 48.2 Z M 354.7 40.5 C 354.2 40.4 354.3 40.9 354.6 41.2 C 354.8 41.5 355.5 42.2 355.6 42.5 C 355.6 42.8 355.7 43.6 356.3 43.3 C 356.9 43.1 356.8 42.8 356.6 42.6 C 356.5 42.4 355.9 41.6 356.1 41.5 C 356.3 41.5 356.6 41.6 356.7 41.7 C 356.8 41.8 357.6 42.4 357.7 42.1 C 357.8 41.8 357.8 41.5 357.8 41.5 C 357.9 41.4 358.0 41.3 358.1 41.2 C 358.1 41.2 358.7 41.3 358.8 41.0 C 358.9 40.7 359.1 40.5 359.3 40.4 C 359.4 40.2 359.5 40.0 359.3 39.8 C 359.2 39.7 358.6 39.0 358.6 39.0 C 358.6 39.0 358.6 38.7 358.8 38.6 C 359.0 38.6 359.4 38.8 359.5 39.0 C 359.6 39.1 360.0 39.3 360.2 39.2 C 360.4 39.1 361.2 38.6 361.0 38.3 C 360.8 38.1 360.5 38.0 360.4 37.8 C 360.4 37.7 360.5 37.3 360.7 37.3 C 361.0 37.3 361.5 37.5 361.5 37.4 C 361.5 37.2 361.7 36.9 361.5 36.9 C 361.4 36.9 361.3 36.7 361.0 36.6 C 360.8 36.6 360.6 36.2 360.5 36.2 C 360.3 36.1 360.3 35.9 360.3 35.9 C 360.5 35.8 360.7 35.8 360.8 35.7 C 360.8 35.7 361.3 35.9 361.4 36.0 C 361.5 36.1 361.8 36.0 361.9 35.9 C 361.9 35.8 361.9 35.2 361.9 35.2 C 361.5 35.2 361.1 35.2 360.7 35.2 C 360.7 35.0 360.6 34.9 360.5 34.8 C 360.5 34.8 361.8 34.8 361.8 34.5 C 361.8 34.2 361.8 33.9 361.8 33.9 C 361.8 33.9 361.2 33.7 361.1 33.6 C 361.1 33.6 359.9 33.8 359.9 33.8 C 359.5 33.9 359.0 34.0 358.5 34.1 C 358.5 34.1 358.1 34.4 358.3 34.5 C 358.5 34.6 359.0 34.4 359.3 34.4 C 359.5 34.4 359.7 34.6 359.7 34.6 C 359.5 34.7 359.2 34.8 359.0 34.9 C 359.0 34.9 358.7 34.9 358.5 35.0 C 358.3 35.1 358.1 35.3 358.2 35.4 C 358.3 35.4 358.6 35.5 358.8 35.7 C 359.0 35.8 359.4 35.9 359.1 35.9 C 358.8 36.0 358.4 36.0 358.4 36.0 C 358.4 36.1 358.7 36.4 358.7 36.4 C 358.8 36.5 358.9 36.6 359.0 36.8 C 359.0 36.8 359.1 37.0 358.8 37.0 C 358.6 36.9 358.7 37.4 358.7 37.4 C 358.7 37.4 358.0 37.0 357.8 37.1 C 357.6 37.1 357.4 37.1 357.4 37.3 C 357.4 37.6 358.0 38.1 358.0 38.1 C 357.8 38.1 357.6 38.0 357.4 37.9 C 357.2 38.0 357.1 38.1 356.9 38.3 C 356.9 38.3 356.7 38.6 356.8 38.7 C 356.9 38.8 357.5 39.2 357.6 39.4 C 357.7 39.5 357.7 39.9 357.5 39.7 C 357.3 39.6 356.7 39.3 356.7 39.3 C 356.7 39.3 356.2 39.2 356.1 39.3 C 355.9 39.3 355.9 39.7 356.0 39.8 C 356.0 40.0 356.2 40.5 356.2 40.5 C 356.0 40.4 355.8 40.3 355.6 40.2 C 355.6 40.2 355.4 40.7 354.7 40.5 C 354.7 40.5 354.7 40.5 354.7 40.5 Z M 358.1 34.1 C 358.2 34.4 360.8 33.7 361.3 33.3 C 361.7 33.0 361.3 32.7 361.2 32.3 C 361.2 31.9 360.5 32.4 360.2 32.3 C 359.9 32.2 360.4 32.1 360.7 31.8 C 361.0 31.5 360.4 31.2 360.3 30.9 C 360.1 30.5 359.2 30.7 359.0 30.6 C 358.8 30.4 358.8 31.0 358.5 30.6 C 358.3 30.2 358.8 30.1 359.4 30.4 C 359.9 30.7 359.6 29.9 359.5 29.5 C 359.3 29.2 358.7 29.0 358.5 28.8 C 358.3 28.6 358.1 29.3 357.8 29.0 C 357.6 28.7 358.2 28.4 357.9 28.0 C 357.7 27.6 357.3 28.1 357.0 28.1 C 356.8 28.1 357.1 27.8 356.9 27.6 C 356.8 27.5 356.7 27.1 356.3 27.0 C 355.8 26.8 355.8 27.1 355.6 27.0 C 355.4 26.9 355.1 26.7 355.1 26.7 C 355.2 26.5 355.4 26.3 355.5 26.1 C 355.5 26.1 354.8 25.6 354.6 25.4 C 354.4 25.2 353.7 25.2 353.8 25.4 C 353.8 25.6 353.1 25.6 353.0 25.5 C 353.0 25.3 352.7 24.8 352.5 24.5 C 352.3 24.2 351.6 25.8 351.4 26.0 C 351.3 26.2 350.7 26.9 350.9 27.1 C 351.1 27.4 351.4 27.2 351.3 27.4 C 351.1 27.5 351.9 27.7 352.1 27.8 C 352.3 27.9 352.8 27.5 352.8 27.5 C 352.8 27.5 353.3 27.2 353.5 27.3 C 353.8 27.5 353.3 28.5 353.3 28.5 C 353.3 28.5 353.5 28.9 353.8 29.0 C 354.2 29.2 355.0 28.7 355.2 28.6 C 355.4 28.5 354.8 29.1 355.0 29.4 C 355.1 29.6 355.2 30.0 355.3 30.0 C 355.4 30.1 355.9 29.8 355.9 29.8 C 355.9 29.8 356.4 29.8 356.5 29.9 C 356.6 29.9 355.9 30.4 355.9 30.4 C 355.9 30.4 356.3 31.1 356.3 31.3 C 356.4 31.4 356.7 31.4 356.8 31.5 C 356.9 31.5 357.8 31.0 357.8 31.2 C 357.8 31.4 357.2 31.5 357.2 31.7 C 357.3 31.9 357.3 32.2 357.3 32.2 C 357.3 32.3 357.7 32.2 357.8 32.3 C 357.9 32.3 358.6 32.1 358.7 32.3 C 358.8 32.4 358.4 32.7 358.4 32.8 C 358.3 32.9 357.8 33.2 357.8 33.4 C 357.8 33.5 358.2 33.2 358.2 33.3 C 358.3 33.4 358.7 33.3 358.7 33.4 C 358.6 33.6 357.8 33.7 358.0 33.8 C 358.0 33.9 358.0 33.8 358.1 34.1 C 358.1 34.1 358.1 34.1 358.1 34.1 Z M 350.4 26.7 C 350.5 27.2 351.0 27.0 351.2 26.7 C 351.3 26.3 351.7 25.4 351.9 25.2 C 352.2 25.0 352.9 24.7 352.4 24.2 C 351.8 23.7 351.5 23.9 351.4 24.1 C 351.3 24.3 350.7 25.1 350.6 25.0 C 350.5 24.8 350.4 24.5 350.4 24.3 C 350.4 24.2 350.6 23.2 350.2 23.1 C 349.8 23.1 349.3 23.2 349.3 23.2 C 349.2 23.1 349.0 23.1 348.8 23.0 C 348.8 23.0 348.5 22.2 348.1 22.1 C 347.6 22.1 347.1 21.9 346.8 21.7 C 346.5 21.5 346.2 21.5 346.0 21.7 C 345.9 21.9 345.1 22.5 345.1 22.5 C 345.1 22.5 344.6 22.5 344.4 22.3 C 344.2 22.1 344.3 21.6 344.4 21.5 C 344.6 21.3 344.7 20.9 344.4 20.6 C 344.0 20.4 342.6 19.4 342.3 19.6 C 342.0 19.8 341.9 20.1 341.7 20.2 C 341.5 20.2 340.4 19.8 340.3 19.6 C 340.3 19.3 340.6 18.9 340.2 18.8 C 339.9 18.8 339.3 18.4 339.2 18.5 C 339.2 18.7 338.9 18.7 338.8 19.0 C 338.7 19.2 338.0 19.3 337.8 19.3 C 337.6 19.4 337.1 19.3 337.1 19.3 C 336.9 19.1 336.7 18.9 336.5 18.7 C 336.5 18.7 337.1 18.3 337.3 18.3 C 337.5 18.2 337.3 17.8 337.1 17.7 C 336.9 17.6 335.5 17.3 335.5 17.3 C 335.4 17.7 335.3 18.0 335.1 18.4 C 334.8 18.4 334.4 18.3 334.0 18.3 C 334.0 18.3 334.6 17.1 333.9 16.9 C 333.2 16.7 332.4 16.5 332.4 16.5 C 332.4 16.5 331.5 16.8 331.4 16.8 C 331.2 16.8 330.8 17.9 330.8 17.9 C 330.7 18.4 330.6 18.8 330.6 19.3 C 330.6 19.3 331.3 20.0 331.8 19.9 C 332.3 19.8 332.0 19.3 332.2 19.1 C 332.3 18.9 333.0 18.8 333.0 18.8 C 333.3 19.1 333.5 19.5 333.7 19.8 C 333.7 19.8 333.9 20.1 334.1 20.4 C 334.4 20.7 335.3 21.1 335.6 21.1 C 335.9 21.1 336.3 20.9 336.7 20.8 C 337.1 20.7 337.1 20.3 337.4 20.7 C 337.7 21.1 337.8 21.5 338.0 21.6 C 338.2 21.7 339.2 21.5 339.2 21.5 C 339.5 21.5 339.7 21.5 340.0 21.4 C 340.0 21.4 340.7 21.4 340.7 21.7 C 340.6 22.0 341.9 22.1 341.9 22.1 C 341.9 22.1 341.5 22.9 341.8 23.1 C 342.0 23.3 342.4 23.7 342.9 23.7 C 343.4 23.7 344.1 23.1 344.1 23.1 C 344.1 23.4 344.2 23.6 344.2 23.9 C 344.6 24.1 345.0 24.3 345.4 24.5 C 345.4 24.5 346.3 24.8 346.3 24.7 C 346.4 24.6 346.5 23.9 346.7 23.7 C 346.8 23.6 347.3 23.6 347.3 23.8 C 347.2 24.1 347.4 24.8 347.4 24.8 C 347.4 24.8 347.5 25.4 347.8 25.5 C 348.0 25.7 348.4 25.6 348.6 25.5 C 348.7 25.5 349.3 25.2 349.3 25.2 C 349.3 25.4 349.3 25.6 349.3 25.9 C 349.3 25.9 350.1 25.9 350.4 26.7 C 350.4 26.7 350.4 26.7 350.4 26.7 Z M 329.9 19.5 C 331.3 19.9 331.1 17.1 330.7 16.4 C 330.3 15.7 329.2 15.8 328.3 15.5 C 327.4 15.2 327.5 16.1 326.8 16.2 C 326.2 16.3 326.6 15.8 326.4 15.3 C 326.2 14.9 324.6 14.9 323.7 14.6 C 322.8 14.4 321.6 15.0 320.8 14.9 C 320.0 14.8 321.3 15.5 319.9 15.1 C 318.5 14.8 319.3 14.5 321.0 14.5 C 322.7 14.6 320.5 13.9 319.6 13.6 C 318.7 13.3 317.1 13.4 316.4 13.2 C 315.6 13.0 316.4 13.9 315.3 13.6 C 314.3 13.4 314.9 12.8 313.8 12.5 C 312.7 12.2 312.7 12.8 312.1 12.9 C 311.5 12.9 311.7 12.6 311.2 12.4 C 310.8 12.3 310.0 11.9 308.9 11.9 C 307.7 11.8 308.0 12.1 307.7 12.1 C 307.5 12.1 307.1 12.0 307.1 12.0 C 307.1 11.8 307.1 11.6 307.1 11.3 C 307.1 11.3 306.1 11.1 305.9 11.0 C 305.6 10.9 304.9 11.1 305.0 11.3 C 305.2 11.5 304.5 11.8 304.3 11.7 C 304.2 11.5 303.8 11.1 303.4 10.9 C 303.1 10.7 303.0 12.4 302.9 12.7 C 302.9 12.9 302.5 13.8 302.8 13.9 C 303.1 14.1 303.4 13.8 303.3 14.0 C 303.2 14.3 304.1 14.2 304.3 14.2 C 304.6 14.2 305.0 13.7 305.0 13.7 C 305.0 13.7 305.3 13.2 305.7 13.2 C 306.1 13.3 306.0 14.4 306.0 14.4 C 306.0 14.4 306.5 14.7 307.0 14.7 C 307.4 14.7 308.6 14.0 308.8 13.9 C 309.1 13.7 308.9 14.5 309.6 14.7 C 310.2 15.0 311.2 15.4 311.5 15.4 C 311.8 15.4 312.4 15.0 312.4 15.0 C 312.4 15.0 313.7 14.9 314.0 14.9 C 314.2 15.0 313.6 15.7 313.6 15.7 C 313.6 15.7 316.1 16.4 316.6 16.6 C 317.1 16.7 317.9 16.7 318.3 16.7 C 318.7 16.7 319.4 15.9 319.9 16.1 C 320.4 16.3 319.3 16.6 319.8 16.8 C 320.3 17.0 321.2 17.4 321.4 17.5 C 321.7 17.5 322.1 17.3 322.6 17.3 C 323.0 17.4 323.7 16.8 324.4 16.9 C 325.1 17.1 325.3 17.6 325.5 17.7 C 325.7 17.9 325.8 18.6 326.3 18.7 C 326.8 18.9 326.5 18.3 327.0 18.5 C 327.4 18.6 327.6 18.1 328.0 18.3 C 328.5 18.5 328.0 19.2 328.5 19.2 C 328.8 19.3 328.5 19.2 329.9 19.5 C 329.9 19.5 329.9 19.5 329.9 19.5 Z M 301.0 12.9 C 301.2 12.8 301.3 13.3 301.8 13.6 C 302.2 13.8 302.8 13.9 302.8 13.6 C 302.7 13.3 302.6 13.0 302.9 12.7 C 303.2 12.3 303.6 11.7 303.3 11.4 C 303.0 11.0 301.8 10.1 301.3 10.4 C 300.8 10.7 300.6 10.9 300.3 11.0 C 299.9 11.2 300.3 10.5 300.3 10.5 C 300.3 10.5 299.5 10.3 299.0 10.1 C 298.5 10.0 297.8 9.9 297.8 10.0 C 297.7 10.1 297.4 10.4 297.4 10.4 C 297.4 10.4 297.2 10.0 296.8 9.8 C 296.4 9.7 296.5 9.9 296.5 10.1 C 296.6 10.3 297.0 10.9 296.8 10.9 C 296.6 10.8 296.2 10.0 295.9 9.9 C 295.7 9.7 295.0 9.7 295.0 9.7 C 295.0 9.7 295.0 10.1 294.9 10.2 C 294.9 10.3 294.2 10.3 294.2 10.1 C 294.2 10.0 294.3 9.5 294.0 9.4 C 293.0 9.2 293.0 10.1 292.9 10.1 C 292.8 10.1 292.9 9.5 292.7 9.3 C 292.5 9.2 290.4 9.0 290.3 9.2 C 290.2 9.3 289.6 8.6 289.2 9.0 C 288.9 9.4 288.7 9.5 288.7 9.6 C 288.6 9.7 288.1 10.3 288.0 10.0 C 287.8 9.7 288.7 9.1 288.5 8.8 C 288.3 8.6 287.0 8.4 286.8 8.6 C 286.4 8.8 286.2 9.4 286.1 9.4 C 285.9 9.4 285.3 8.5 285.2 8.6 C 285.1 8.7 284.9 9.4 284.9 9.5 C 284.9 9.7 284.5 10.9 284.6 11.1 C 284.8 11.3 285.5 11.8 285.4 11.5 C 285.4 11.1 285.2 10.6 285.5 10.5 C 285.8 10.4 286.0 10.4 286.0 10.5 C 286.1 10.6 285.9 10.8 286.3 11.1 C 286.7 11.4 286.5 11.6 286.9 11.7 C 287.3 11.7 287.7 11.7 287.7 11.4 C 287.7 11.1 288.2 10.8 288.5 10.8 C 288.8 10.9 288.2 11.4 289.1 11.8 C 290.0 12.2 290.6 12.3 290.9 12.1 C 291.2 11.9 291.4 11.2 291.8 11.6 C 292.2 11.9 291.9 12.1 292.5 12.2 C 293.1 12.2 293.4 11.7 293.8 11.7 C 294.2 11.7 294.3 11.8 294.3 11.8 C 294.3 11.8 294.0 12.6 294.8 12.7 C 295.7 12.9 295.8 13.0 295.8 12.4 C 295.7 11.8 296.3 11.8 296.3 12.2 C 296.3 12.6 296.7 12.9 297.0 13.0 C 297.3 13.1 297.5 12.1 297.6 12.1 C 297.8 12.1 298.1 12.2 297.9 12.5 C 297.7 12.8 298.0 12.9 298.3 13.1 C 298.5 13.3 299.3 13.3 299.3 13.1 C 299.3 12.9 299.1 12.2 299.5 12.6 C 300.0 13.0 300.1 13.6 300.6 13.6 C 301.0 13.7 300.7 13.0 301.0 12.9 C 301.0 12.9 301.0 12.9 301.0 12.9 Z M 283.9 11.2 C 284.3 11.6 284.7 11.2 284.7 10.8 C 284.7 10.4 284.7 9.5 284.9 9.2 C 285.1 9.0 285.7 8.3 284.9 8.1 C 284.1 7.9 283.9 8.1 283.9 8.3 C 283.8 8.6 283.6 9.6 283.4 9.4 C 283.2 9.3 283.0 9.0 282.9 8.9 C 282.9 8.7 282.7 7.7 282.3 7.8 C 281.9 7.9 281.5 8.2 281.5 8.2 C 281.3 8.1 281.1 8.1 280.9 8.1 C 280.9 8.1 280.4 7.5 280.0 7.5 C 279.5 7.6 279.0 7.6 278.7 7.5 C 278.4 7.4 278.0 7.5 278.0 7.7 C 277.9 7.9 277.3 8.7 277.3 8.7 C 277.3 8.7 276.8 8.9 276.6 8.7 C 276.4 8.6 276.4 8.1 276.5 7.9 C 276.6 7.7 276.6 7.3 276.2 7.1 C 275.9 7.0 274.5 6.4 274.3 6.6 C 274.0 6.9 274.0 7.3 273.9 7.3 C 273.7 7.4 272.7 7.4 272.7 7.1 C 272.6 6.9 272.7 6.4 272.4 6.4 C 272.2 6.4 271.6 6.2 271.6 6.4 C 271.6 6.5 271.4 6.6 271.3 6.9 C 271.3 7.2 270.7 7.4 270.6 7.5 C 270.4 7.6 270.0 7.6 270.0 7.6 C 269.8 7.4 269.7 7.3 269.5 7.1 C 269.5 7.1 269.9 6.6 270.0 6.5 C 270.2 6.5 270.0 6.1 269.8 6.0 C 269.6 6.0 268.6 6.0 268.6 6.0 C 268.5 6.4 268.5 6.7 268.4 7.1 C 268.1 7.2 267.9 7.2 267.6 7.3 C 267.6 7.3 267.8 5.9 267.3 5.9 C 266.8 5.8 266.2 5.8 266.2 5.8 C 266.2 5.8 265.6 6.2 265.5 6.3 C 265.3 6.3 265.2 7.5 265.2 7.5 C 265.2 8.0 265.1 8.4 265.1 8.9 C 265.1 8.9 265.7 9.4 266.1 9.3 C 266.4 9.1 266.2 8.6 266.3 8.4 C 266.4 8.1 266.9 8.0 266.9 8.0 C 267.1 8.2 267.3 8.5 267.5 8.8 C 267.5 8.8 267.7 9.1 267.9 9.3 C 268.1 9.6 268.9 9.8 269.1 9.7 C 269.3 9.6 269.6 9.3 269.9 9.1 C 270.2 8.9 270.2 8.5 270.5 8.9 C 270.8 9.2 270.9 9.6 271.1 9.6 C 271.3 9.6 272.0 9.3 272.0 9.3 C 272.2 9.2 272.5 9.1 272.7 9.0 C 272.7 9.0 273.2 8.8 273.3 9.1 C 273.3 9.4 274.5 9.2 274.5 9.2 C 274.5 9.2 274.3 10.0 274.5 10.2 C 274.8 10.3 275.2 10.6 275.7 10.5 C 276.1 10.4 276.5 9.6 276.5 9.6 C 276.6 9.8 276.8 10.1 276.9 10.3 C 277.3 10.4 277.7 10.5 278.1 10.6 C 278.1 10.6 279.0 10.7 279.0 10.5 C 279.0 10.4 279.0 9.7 279.1 9.5 C 279.2 9.3 279.7 9.1 279.7 9.4 C 279.7 9.6 280.1 10.3 280.1 10.3 C 280.1 10.3 280.4 10.8 280.7 10.8 C 281.0 10.9 281.4 10.7 281.5 10.6 C 281.7 10.5 282.1 10.0 282.1 10.0 C 282.2 10.3 282.3 10.5 282.4 10.7 C 282.4 10.7 283.2 10.5 283.9 11.2 C 283.9 11.2 283.9 11.2 283.9 11.2 Z M 264.7 9.3 C 265.7 9.3 265.3 6.6 264.9 6.1 C 264.6 5.5 263.9 5.8 263.2 5.6 C 262.5 5.5 262.7 6.3 262.3 6.5 C 261.9 6.7 262.0 6.2 261.9 5.8 C 261.8 5.4 260.7 5.6 260.1 5.5 C 259.4 5.5 258.7 6.3 258.2 6.3 C 257.7 6.3 258.6 6.8 257.7 6.7 C 256.8 6.5 257.3 6.1 258.3 5.9 C 259.4 5.7 258.0 5.4 257.4 5.2 C 256.8 5.1 255.8 5.4 255.4 5.3 C 254.9 5.2 255.4 5.9 254.8 5.9 C 254.1 5.8 254.5 5.1 253.8 5.0 C 253.1 4.8 253.2 5.5 252.8 5.6 C 252.5 5.7 252.6 5.3 252.3 5.3 C 252.0 5.2 251.6 5.0 250.9 5.1 C 250.2 5.2 250.4 5.4 250.1 5.4 C 249.8 5.4 249.3 5.4 249.3 5.4 C 249.3 5.2 249.3 4.9 249.2 4.7 C 249.2 4.7 248.1 4.6 247.7 4.5 C 247.4 4.4 246.6 4.7 246.8 4.8 C 247.0 5.0 246.1 5.4 246.0 5.3 C 245.8 5.1 245.2 4.8 244.8 4.6 C 244.4 4.4 244.4 6.1 244.4 6.4 C 244.4 6.6 244.1 7.5 244.4 7.7 C 244.8 7.8 245.1 7.4 245.0 7.7 C 245.0 7.9 246.0 7.8 246.3 7.8 C 246.6 7.8 247.0 7.2 247.0 7.2 C 247.0 7.2 247.3 6.7 247.8 6.7 C 248.3 6.7 248.4 7.8 248.4 7.8 C 248.4 7.8 248.9 8.1 249.5 8.0 C 250.1 8.0 250.8 7.2 250.9 7.0 C 251.1 6.8 251.0 7.7 251.4 7.8 C 251.8 7.9 252.4 8.2 252.5 8.2 C 252.7 8.1 253.0 7.6 253.0 7.6 C 253.0 7.6 253.8 7.3 254.0 7.4 C 254.2 7.4 253.8 8.1 253.8 8.1 C 253.8 8.1 255.3 8.5 255.7 8.6 C 256.0 8.7 256.5 8.5 256.7 8.5 C 257.0 8.4 257.4 7.5 257.7 7.6 C 258.0 7.7 257.3 8.2 257.7 8.3 C 258.0 8.4 258.6 8.7 258.8 8.7 C 258.9 8.7 259.2 8.4 259.5 8.4 C 259.8 8.4 260.2 7.7 260.7 7.7 C 261.1 7.7 261.3 8.2 261.5 8.3 C 261.6 8.4 261.7 9.1 262.1 9.1 C 262.4 9.2 262.2 8.7 262.5 8.7 C 262.9 8.8 262.9 8.3 263.2 8.4 C 263.6 8.5 263.3 9.3 263.7 9.2 C 263.9 9.2 263.7 9.2 264.7 9.3 C 264.7 9.3 264.7 9.3 264.7 9.3 Z M 243.6 7.5 C 244.1 7.9 244.5 7.5 244.5 7.1 C 244.5 6.7 244.3 5.7 244.5 5.5 C 244.7 5.2 245.4 4.6 244.5 4.4 C 243.6 4.2 243.4 4.4 243.4 4.7 C 243.4 4.9 243.1 5.9 242.9 5.8 C 242.7 5.7 242.5 5.4 242.4 5.3 C 242.4 5.1 242.1 4.1 241.6 4.2 C 241.2 4.3 240.8 4.6 240.8 4.6 C 240.5 4.6 240.3 4.6 240.1 4.6 C 240.1 4.6 239.5 4.0 239.0 4.1 C 238.6 4.2 238.0 4.2 237.7 4.1 C 237.3 4.0 236.9 4.1 236.9 4.3 C 236.8 4.5 236.3 5.3 236.3 5.3 C 236.3 5.3 235.7 5.5 235.5 5.4 C 235.2 5.2 235.2 4.8 235.3 4.6 C 235.3 4.4 235.3 4.0 234.9 3.8 C 234.6 3.7 233.0 3.2 232.8 3.4 C 232.5 3.7 232.6 4.1 232.4 4.2 C 232.2 4.2 231.1 4.2 231.1 4.0 C 231.0 3.8 231.1 3.3 230.8 3.3 C 230.5 3.3 229.9 3.2 229.9 3.3 C 229.8 3.4 229.6 3.6 229.6 3.8 C 229.6 4.1 228.9 4.3 228.8 4.5 C 228.7 4.6 228.2 4.6 228.2 4.6 C 228.0 4.5 227.8 4.3 227.6 4.1 C 227.6 4.1 228.0 3.6 228.2 3.6 C 228.4 3.5 228.1 3.1 227.9 3.1 C 227.7 3.0 226.6 3.1 226.6 3.1 C 226.5 3.4 226.5 3.8 226.4 4.2 C 226.2 4.3 225.9 4.3 225.6 4.4 C 225.6 4.4 225.8 3.1 225.2 3.0 C 224.7 3.0 224.0 3.0 224.0 3.0 C 224.0 3.0 223.4 3.5 223.2 3.5 C 223.1 3.6 223.0 4.8 223.0 4.8 C 223.0 5.2 223.0 5.7 223.0 6.1 C 223.0 6.1 223.7 6.6 224.1 6.5 C 224.5 6.3 224.2 5.8 224.2 5.5 C 224.3 5.3 224.9 5.1 224.9 5.1 C 225.1 5.4 225.3 5.7 225.6 5.9 C 225.6 5.9 225.8 6.2 226.0 6.4 C 226.3 6.7 227.1 6.8 227.4 6.8 C 227.6 6.7 227.9 6.4 228.2 6.1 C 228.5 5.9 228.5 5.5 228.8 5.8 C 229.2 6.2 229.3 6.6 229.5 6.6 C 229.7 6.6 230.5 6.2 230.5 6.2 C 230.7 6.1 231.0 6.0 231.2 5.9 C 231.2 5.9 231.8 5.7 231.9 5.9 C 231.9 6.2 233.1 6.0 233.1 6.0 C 233.1 6.0 233.0 6.8 233.3 6.9 C 233.6 7.1 234.0 7.3 234.5 7.2 C 235.0 7.1 235.4 6.3 235.4 6.3 C 235.6 6.5 235.7 6.7 235.8 7.0 C 236.3 7.0 236.7 7.1 237.2 7.2 C 237.2 7.2 238.2 7.2 238.2 7.1 C 238.2 6.9 238.1 6.2 238.2 6.1 C 238.3 5.9 238.8 5.7 238.9 5.9 C 238.9 6.1 239.4 6.8 239.4 6.8 C 239.4 6.8 239.8 7.3 240.1 7.3 C 240.4 7.4 240.8 7.2 241.0 7.1 C 241.1 6.9 241.6 6.5 241.6 6.5 C 241.7 6.7 241.8 6.9 242.0 7.1 C 242.0 7.1 242.8 6.9 243.6 7.5 C 243.6 7.5 243.6 7.5 243.6 7.5 Z M 222.6 6.5 C 223.7 6.5 223.1 3.9 222.7 3.3 C 222.3 2.8 221.5 3.1 220.8 2.9 C 220.1 2.8 220.3 3.7 219.8 3.9 C 219.4 4.1 219.6 3.6 219.4 3.2 C 219.2 2.8 218.1 3.1 217.4 3.0 C 216.7 3.0 216.0 3.8 215.5 3.9 C 214.9 3.9 215.9 4.3 214.9 4.3 C 214.0 4.2 214.5 3.7 215.6 3.5 C 216.7 3.2 215.2 2.9 214.6 2.8 C 213.9 2.7 212.9 3.1 212.4 3.0 C 211.9 2.9 212.5 3.6 211.8 3.6 C 211.1 3.6 211.5 2.9 210.8 2.8 C 210.0 2.6 210.1 3.3 209.7 3.4 C 209.4 3.6 209.5 3.2 209.2 3.1 C 208.8 3.0 208.4 2.8 207.7 3.0 C 207.0 3.1 207.2 3.3 206.9 3.3 C 206.6 3.4 206.0 3.4 206.0 3.4 C 206.0 3.1 205.9 2.9 205.9 2.7 C 205.9 2.7 204.7 2.6 204.3 2.5 C 203.9 2.5 203.1 2.8 203.3 2.9 C 203.5 3.1 202.7 3.5 202.5 3.4 C 202.3 3.3 201.7 2.9 201.3 2.8 C 200.9 2.6 200.9 4.3 200.9 4.6 C 200.9 4.8 200.7 5.8 201.0 5.9 C 201.4 6.0 201.7 5.6 201.6 5.9 C 201.6 6.1 202.7 5.9 203.0 5.9 C 203.3 5.9 203.7 5.3 203.7 5.3 C 203.7 5.3 204.0 4.7 204.5 4.8 C 205.0 4.8 205.2 5.8 205.2 5.8 C 205.2 5.8 205.8 6.1 206.4 6.0 C 207.0 6.0 207.7 5.1 207.8 4.9 C 207.9 4.7 207.9 5.6 208.3 5.7 C 208.8 5.8 209.4 6.1 209.6 6.0 C 209.7 6.0 210.1 5.4 210.1 5.4 C 210.1 5.4 210.9 5.1 211.1 5.1 C 211.2 5.1 210.9 5.9 210.9 5.9 C 210.9 5.9 212.6 6.2 212.9 6.3 C 213.2 6.3 213.8 6.1 214.0 6.1 C 214.3 6.1 214.7 5.1 215.0 5.2 C 215.4 5.3 214.6 5.8 215.0 5.9 C 215.4 6.0 216.0 6.2 216.2 6.3 C 216.4 6.3 216.7 5.9 217.0 5.9 C 217.3 5.9 217.7 5.1 218.2 5.1 C 218.7 5.2 218.9 5.6 219.1 5.7 C 219.3 5.8 219.4 6.5 219.7 6.5 C 220.1 6.6 219.9 6.1 220.2 6.1 C 220.6 6.1 220.6 5.6 221.0 5.7 C 221.3 5.9 221.1 6.6 221.5 6.5 C 221.7 6.5 221.5 6.5 222.6 6.5 C 222.6 6.5 222.6 6.5 222.6 6.5 Z M 200.1 5.7 C 200.6 6.1 201.1 5.7 201.1 5.3 C 201.0 4.9 200.8 4.0 201.0 3.7 C 201.2 3.4 201.9 2.7 200.9 2.6 C 200.0 2.4 199.8 2.7 199.8 2.9 C 199.8 3.2 199.6 4.2 199.3 4.1 C 199.1 4.0 198.8 3.7 198.8 3.6 C 198.7 3.4 198.4 2.4 197.9 2.6 C 197.5 2.7 197.0 3.0 197.0 3.0 C 196.8 3.0 196.6 3.0 196.3 3.0 C 196.3 3.0 195.7 2.4 195.2 2.5 C 194.7 2.7 194.2 2.7 193.8 2.6 C 193.4 2.5 193.0 2.6 193.0 2.9 C 192.9 3.1 192.4 3.9 192.4 3.9 C 192.4 3.9 191.8 4.2 191.6 4.0 C 191.3 3.9 191.3 3.4 191.3 3.2 C 191.4 3.0 191.3 2.6 191.0 2.5 C 190.6 2.4 189.0 1.9 188.7 2.2 C 188.5 2.5 188.5 2.8 188.3 2.9 C 188.1 3.0 187.1 3.1 187.0 2.8 C 186.9 2.6 186.9 2.1 186.6 2.1 C 186.3 2.2 185.7 2.0 185.7 2.2 C 185.7 2.3 185.5 2.4 185.5 2.7 C 185.4 3.0 184.8 3.2 184.7 3.4 C 184.6 3.5 184.1 3.6 184.1 3.6 C 183.8 3.4 183.6 3.2 183.4 3.1 C 183.4 3.1 183.8 2.6 184.0 2.5 C 184.2 2.4 183.9 2.1 183.7 2.0 C 183.5 2.0 182.3 2.1 182.3 2.1 C 182.3 2.5 182.3 2.8 182.2 3.2 C 181.9 3.3 181.7 3.4 181.4 3.5 C 181.4 3.5 181.5 2.1 180.9 2.1 C 180.4 2.1 179.7 2.1 179.7 2.1 C 179.7 2.1 179.1 2.6 178.9 2.7 C 178.8 2.7 178.7 3.9 178.7 3.9 C 178.8 4.4 178.8 4.8 178.9 5.3 C 178.9 5.3 179.5 5.8 179.9 5.6 C 180.3 5.4 180.0 4.9 180.0 4.7 C 180.1 4.4 180.7 4.2 180.7 4.2 C 180.9 4.5 181.2 4.7 181.4 5.0 C 181.4 5.0 181.7 5.2 181.9 5.4 C 182.2 5.7 183.0 5.8 183.3 5.7 C 183.5 5.6 183.8 5.3 184.1 5.1 C 184.4 4.8 184.4 4.4 184.7 4.8 C 185.1 5.1 185.3 5.5 185.5 5.5 C 185.7 5.5 186.5 5.0 186.5 5.0 C 186.7 4.9 186.9 4.8 187.2 4.7 C 187.2 4.7 187.8 4.4 187.9 4.7 C 188.0 5.0 189.2 4.7 189.2 4.7 C 189.2 4.7 189.1 5.5 189.4 5.7 C 189.7 5.8 190.2 6.0 190.7 5.9 C 191.2 5.7 191.6 4.9 191.6 4.9 C 191.7 5.1 191.9 5.3 192.0 5.6 C 192.5 5.6 193.0 5.7 193.4 5.7 C 193.4 5.7 194.5 5.7 194.5 5.6 C 194.5 5.4 194.4 4.7 194.4 4.6 C 194.5 4.4 195.1 4.1 195.1 4.4 C 195.2 4.6 195.7 5.3 195.7 5.3 C 195.7 5.3 196.1 5.7 196.4 5.7 C 196.8 5.8 197.2 5.6 197.4 5.4 C 197.5 5.3 198.0 4.8 198.0 4.8 C 198.1 5.0 198.3 5.2 198.4 5.4 C 198.4 5.4 199.3 5.1 200.1 5.7 C 200.1 5.7 200.1 5.7 200.1 5.7 Z M 178.4 5.7 C 179.5 5.7 178.8 3.0 178.3 2.5 C 177.9 2.0 177.1 2.3 176.4 2.2 C 175.7 2.1 175.9 3.0 175.5 3.2 C 175.0 3.5 175.2 2.9 175.0 2.5 C 174.8 2.1 173.7 2.5 173.0 2.4 C 172.3 2.4 171.6 3.3 171.0 3.4 C 170.5 3.4 171.5 3.8 170.5 3.8 C 169.5 3.7 170.0 3.3 171.2 3.0 C 172.3 2.7 170.7 2.5 170.1 2.4 C 169.5 2.3 168.4 2.7 167.9 2.6 C 167.4 2.6 168.1 3.3 167.3 3.3 C 166.6 3.3 167.0 2.6 166.3 2.5 C 165.5 2.4 165.6 3.0 165.3 3.2 C 164.9 3.3 165.0 2.9 164.6 2.9 C 164.3 2.8 163.8 2.7 163.2 2.8 C 162.5 3.0 162.7 3.2 162.4 3.2 C 162.1 3.3 161.5 3.3 161.5 3.3 C 161.5 3.1 161.4 2.8 161.4 2.6 C 161.4 2.6 160.1 2.6 159.8 2.5 C 159.4 2.5 158.6 2.8 158.8 3.0 C 159.0 3.1 158.2 3.6 158.0 3.5 C 157.8 3.4 157.2 3.0 156.8 2.9 C 156.3 2.8 156.5 4.5 156.5 4.7 C 156.5 5.0 156.3 5.9 156.6 6.0 C 157.0 6.1 157.3 5.7 157.3 6.0 C 157.2 6.2 158.3 6.0 158.6 5.9 C 158.9 5.9 159.3 5.3 159.3 5.3 C 159.3 5.3 159.6 4.8 160.1 4.7 C 160.6 4.7 160.8 5.8 160.8 5.8 C 160.8 5.8 161.4 6.0 162.0 5.9 C 162.6 5.9 163.3 5.0 163.4 4.8 C 163.5 4.6 163.5 5.4 163.9 5.5 C 164.4 5.6 165.0 5.8 165.2 5.8 C 165.4 5.7 165.7 5.2 165.7 5.2 C 165.7 5.2 166.5 4.8 166.7 4.8 C 166.8 4.8 166.5 5.6 166.5 5.6 C 166.5 5.6 168.2 5.8 168.6 5.9 C 168.9 5.9 169.5 5.7 169.7 5.7 C 169.9 5.6 170.3 4.6 170.7 4.7 C 171.0 4.8 170.3 5.3 170.7 5.4 C 171.0 5.5 171.7 5.7 171.9 5.7 C 172.1 5.7 172.3 5.4 172.6 5.3 C 173.0 5.3 173.4 4.5 173.9 4.5 C 174.4 4.5 174.6 5.0 174.8 5.1 C 175.0 5.2 175.1 5.8 175.5 5.8 C 175.9 5.8 175.6 5.4 176.0 5.4 C 176.4 5.4 176.3 4.9 176.7 5.0 C 177.1 5.1 176.9 5.9 177.3 5.8 C 177.5 5.7 177.3 5.8 178.4 5.7 C 178.4 5.7 178.4 5.7 178.4 5.7 Z M 154.3 5.3 C 154.5 5.2 154.7 5.7 155.3 5.8 C 155.9 6.0 156.7 6.0 156.5 5.7 C 156.4 5.3 156.1 5.1 156.5 4.7 C 156.8 4.3 157.1 3.6 156.7 3.4 C 156.2 3.1 154.5 2.4 154.0 2.8 C 153.5 3.2 153.3 3.4 152.9 3.6 C 152.5 3.9 152.8 3.1 152.8 3.1 C 152.8 3.1 151.9 3.0 151.2 3.0 C 150.5 2.9 149.7 2.9 149.7 3.1 C 149.6 3.2 149.4 3.5 149.4 3.5 C 149.4 3.5 149.0 3.1 148.5 3.1 C 148.0 3.0 148.2 3.2 148.3 3.4 C 148.3 3.6 149.0 4.1 148.7 4.1 C 148.5 4.1 147.9 3.3 147.5 3.3 C 147.2 3.2 146.4 3.3 146.4 3.3 C 146.4 3.3 146.5 3.7 146.4 3.8 C 146.3 3.9 145.5 4.0 145.5 3.9 C 145.5 3.7 145.5 3.2 145.1 3.2 C 143.9 3.2 144.1 4.0 144.0 4.1 C 143.9 4.1 143.9 3.4 143.6 3.3 C 143.3 3.2 140.9 3.4 140.8 3.6 C 140.7 3.8 139.9 3.2 139.5 3.6 C 139.2 4.1 139.1 4.2 139.0 4.3 C 139.0 4.4 138.5 5.1 138.3 4.9 C 138.1 4.6 139.0 3.8 138.7 3.6 C 138.4 3.4 136.9 3.4 136.7 3.6 C 136.3 4.0 136.3 4.6 136.0 4.6 C 135.8 4.6 135.0 3.8 134.9 4.0 C 134.8 4.1 134.8 4.8 134.8 4.9 C 134.8 5.1 134.6 6.3 134.7 6.5 C 134.9 6.6 135.8 7.1 135.7 6.7 C 135.6 6.4 135.3 5.9 135.6 5.8 C 135.9 5.6 136.1 5.6 136.2 5.7 C 136.3 5.8 136.1 6.0 136.6 6.2 C 137.2 6.4 136.9 6.7 137.4 6.7 C 137.9 6.6 138.3 6.5 138.3 6.2 C 138.2 6.0 138.7 5.5 139.1 5.6 C 139.4 5.6 138.9 6.2 140.0 6.4 C 141.1 6.6 141.8 6.6 142.1 6.4 C 142.4 6.1 142.5 5.4 143.0 5.7 C 143.5 6.0 143.2 6.2 144.0 6.1 C 144.7 6.1 144.9 5.5 145.4 5.5 C 145.8 5.4 146.0 5.5 146.0 5.5 C 146.0 5.5 145.8 6.3 146.8 6.3 C 147.8 6.3 148.0 6.4 147.8 5.8 C 147.6 5.2 148.3 5.1 148.4 5.5 C 148.4 5.9 149.1 6.2 149.4 6.2 C 149.8 6.2 149.8 5.2 150.0 5.2 C 150.1 5.1 150.5 5.2 150.4 5.5 C 150.2 5.9 150.6 5.9 151.0 6.0 C 151.3 6.1 152.2 6.0 152.2 5.8 C 152.2 5.7 151.7 5.0 152.4 5.3 C 153.0 5.6 153.2 6.1 153.8 6.1 C 154.4 6.1 153.9 5.5 154.3 5.3 C 154.3 5.3 154.3 5.3 154.3 5.3 Z M 133.9 6.7 C 134.4 7.1 134.9 6.6 134.8 6.2 C 134.7 5.9 134.5 4.9 134.6 4.6 C 134.8 4.3 135.4 3.6 134.5 3.5 C 133.6 3.4 133.4 3.7 133.4 3.9 C 133.4 4.2 133.3 5.2 133.0 5.1 C 132.8 5.0 132.5 4.8 132.5 4.6 C 132.4 4.5 132.0 3.5 131.6 3.7 C 131.1 3.9 130.7 4.2 130.7 4.2 C 130.5 4.2 130.3 4.2 130.1 4.2 C 130.1 4.2 129.4 3.7 128.9 3.8 C 128.5 4.0 127.9 4.0 127.6 4.0 C 127.2 4.0 126.8 4.1 126.8 4.3 C 126.7 4.6 126.3 5.4 126.3 5.4 C 126.3 5.4 125.8 5.7 125.5 5.6 C 125.3 5.4 125.2 5.0 125.2 4.8 C 125.3 4.6 125.2 4.1 124.8 4.1 C 124.5 4.0 122.9 3.6 122.7 3.9 C 122.4 4.2 122.5 4.6 122.3 4.7 C 122.2 4.8 121.1 4.9 121.0 4.7 C 120.9 4.4 121.0 3.9 120.7 4.0 C 120.4 4.1 119.8 4.0 119.8 4.1 C 119.8 4.2 119.6 4.4 119.6 4.7 C 119.6 4.9 119.0 5.2 118.9 5.4 C 118.8 5.5 118.3 5.6 118.3 5.6 C 118.1 5.4 117.9 5.3 117.7 5.2 C 117.7 5.2 118.0 4.6 118.2 4.5 C 118.4 4.4 118.1 4.1 117.9 4.1 C 117.7 4.1 116.6 4.2 116.6 4.2 C 116.6 4.6 116.6 5.0 116.6 5.4 C 116.3 5.5 116.1 5.6 115.8 5.7 C 115.8 5.7 115.8 4.3 115.3 4.4 C 114.7 4.4 114.1 4.4 114.1 4.4 C 114.1 4.4 113.6 5.0 113.4 5.0 C 113.3 5.1 113.3 6.3 113.3 6.3 C 113.4 6.8 113.5 7.2 113.6 7.7 C 113.6 7.7 114.2 8.1 114.6 7.9 C 114.9 7.7 114.6 7.2 114.6 7.0 C 114.7 6.7 115.2 6.5 115.2 6.5 C 115.4 6.7 115.7 6.9 116.0 7.2 C 116.0 7.2 116.2 7.4 116.4 7.6 C 116.7 7.8 117.5 7.9 117.8 7.8 C 118.0 7.7 118.2 7.4 118.5 7.1 C 118.8 6.9 118.7 6.4 119.1 6.7 C 119.4 7.0 119.6 7.4 119.8 7.4 C 120.0 7.4 120.7 6.9 120.7 6.9 C 121.0 6.7 121.2 6.6 121.4 6.5 C 121.4 6.5 121.9 6.2 122.0 6.5 C 122.1 6.8 123.3 6.4 123.3 6.4 C 123.3 6.4 123.2 7.2 123.5 7.3 C 123.8 7.5 124.3 7.6 124.8 7.5 C 125.3 7.3 125.6 6.5 125.6 6.5 C 125.7 6.7 125.9 6.9 126.1 7.1 C 126.5 7.1 127.0 7.1 127.4 7.2 C 127.4 7.2 128.5 7.1 128.4 6.9 C 128.4 6.8 128.3 6.1 128.3 5.9 C 128.4 5.7 128.9 5.5 129.0 5.7 C 129.1 5.9 129.6 6.5 129.6 6.5 C 129.6 6.5 130.0 6.9 130.3 7.0 C 130.6 7.0 131.1 6.7 131.2 6.6 C 131.3 6.4 131.8 5.9 131.8 5.9 C 131.9 6.1 132.1 6.3 132.2 6.5 C 132.2 6.5 133.0 6.2 133.9 6.7 C 133.9 6.7 133.9 6.7 133.9 6.7 Z M 113.1 8.1 C 114.2 8.0 113.3 5.4 112.9 4.9 C 112.4 4.4 111.7 4.8 111.0 4.8 C 110.3 4.7 110.6 5.5 110.2 5.8 C 109.9 6.1 110.0 5.5 109.8 5.1 C 109.6 4.8 108.5 5.2 107.9 5.2 C 107.2 5.2 106.6 6.2 106.1 6.2 C 105.6 6.3 106.6 6.7 105.7 6.7 C 104.8 6.7 105.2 6.2 106.2 5.8 C 107.2 5.5 105.8 5.4 105.2 5.3 C 104.6 5.3 103.7 5.7 103.2 5.7 C 102.7 5.7 103.4 6.4 102.7 6.4 C 102.1 6.4 102.3 5.7 101.7 5.7 C 101.0 5.6 101.1 6.2 100.8 6.4 C 100.5 6.6 100.5 6.2 100.2 6.2 C 99.9 6.2 99.5 6.0 98.9 6.2 C 98.2 6.4 98.4 6.6 98.2 6.7 C 97.9 6.7 97.4 6.8 97.4 6.8 C 97.3 6.6 97.3 6.3 97.2 6.1 C 97.2 6.1 96.1 6.2 95.7 6.2 C 95.4 6.1 94.7 6.5 94.9 6.6 C 95.1 6.8 94.4 7.3 94.2 7.2 C 94.0 7.1 93.4 6.8 93.0 6.7 C 92.6 6.6 92.9 8.3 92.9 8.5 C 93.0 8.8 92.8 9.7 93.2 9.8 C 93.5 9.9 93.8 9.5 93.7 9.8 C 93.7 10.0 94.7 9.7 95.0 9.6 C 95.2 9.6 95.5 8.9 95.5 8.9 C 95.5 8.9 95.7 8.4 96.2 8.3 C 96.6 8.3 96.9 9.3 96.9 9.3 C 96.9 9.3 97.5 9.5 98.0 9.4 C 98.6 9.3 99.1 8.3 99.2 8.1 C 99.3 7.9 99.3 8.8 99.8 8.8 C 100.2 8.9 100.8 9.1 100.9 9.0 C 101.1 9.0 101.3 8.4 101.3 8.4 C 101.3 8.4 102.0 8.0 102.2 8.0 C 102.4 8.0 102.1 8.8 102.1 8.8 C 102.1 8.8 103.7 8.9 104.0 8.9 C 104.4 8.9 104.8 8.7 105.1 8.6 C 105.3 8.6 105.5 7.5 105.9 7.6 C 106.2 7.7 105.6 8.3 105.9 8.3 C 106.3 8.4 106.9 8.6 107.1 8.5 C 107.3 8.5 107.5 8.2 107.8 8.1 C 108.0 8.0 108.4 7.3 108.8 7.2 C 109.3 7.2 109.6 7.6 109.7 7.7 C 109.9 7.8 110.1 8.4 110.5 8.4 C 110.8 8.4 110.5 8.0 110.9 8.0 C 111.2 7.9 111.2 7.4 111.5 7.5 C 111.9 7.6 111.7 8.4 112.1 8.3 C 112.3 8.2 112.1 8.3 113.1 8.1 C 113.1 8.1 113.1 8.1 113.1 8.1 Z M 92.4 9.8 C 92.9 10.1 93.2 9.6 93.1 9.3 C 93.0 8.9 92.8 7.9 92.9 7.6 C 93.1 7.4 93.6 6.6 92.7 6.6 C 91.9 6.5 91.7 6.8 91.7 7.0 C 91.8 7.2 91.7 8.3 91.5 8.2 C 91.2 8.1 91.0 7.9 90.9 7.8 C 90.8 7.6 90.4 6.7 90.0 6.9 C 89.6 7.1 89.3 7.4 89.3 7.4 C 89.1 7.4 88.9 7.4 88.7 7.5 C 88.7 7.5 88.1 6.9 87.6 7.1 C 87.2 7.3 86.7 7.4 86.4 7.4 C 86.1 7.3 85.7 7.5 85.7 7.7 C 85.7 7.9 85.3 8.8 85.3 8.8 C 85.3 8.8 84.9 9.1 84.6 9.0 C 84.4 8.9 84.3 8.4 84.3 8.2 C 84.4 8.0 84.3 7.6 83.9 7.5 C 83.6 7.5 82.1 7.2 81.9 7.5 C 81.7 7.8 81.8 8.2 81.7 8.3 C 81.5 8.4 80.6 8.5 80.5 8.3 C 80.4 8.1 80.4 7.6 80.1 7.7 C 79.9 7.7 79.3 7.7 79.3 7.8 C 79.4 7.9 79.2 8.1 79.2 8.4 C 79.2 8.7 78.7 9.0 78.6 9.1 C 78.5 9.3 78.1 9.4 78.1 9.4 C 77.9 9.2 77.7 9.1 77.5 9.0 C 77.5 9.0 77.8 8.4 77.9 8.3 C 78.1 8.2 77.8 7.9 77.6 7.9 C 77.4 7.9 76.4 8.1 76.4 8.1 C 76.5 8.5 76.5 8.8 76.5 9.2 C 76.3 9.3 76.1 9.4 75.8 9.6 C 75.8 9.6 75.8 8.2 75.3 8.3 C 74.8 8.3 74.2 8.4 74.2 8.4 C 74.2 8.4 73.8 9.0 73.7 9.0 C 73.6 9.1 73.7 10.3 73.7 10.3 C 73.8 10.8 73.9 11.2 74.0 11.7 C 74.0 11.7 74.6 12.0 74.9 11.8 C 75.2 11.6 74.9 11.1 74.9 10.9 C 74.9 10.7 75.3 10.4 75.3 10.4 C 75.6 10.6 75.8 10.8 76.1 11.1 C 76.1 11.1 76.3 11.3 76.5 11.5 C 76.8 11.7 77.5 11.7 77.7 11.6 C 77.9 11.5 78.1 11.1 78.4 10.9 C 78.6 10.6 78.5 10.2 78.8 10.5 C 79.2 10.8 79.4 11.1 79.6 11.1 C 79.7 11.1 80.4 10.5 80.4 10.5 C 80.6 10.4 80.7 10.3 80.9 10.1 C 80.9 10.1 81.4 9.8 81.5 10.1 C 81.6 10.4 82.7 9.9 82.7 9.9 C 82.7 9.9 82.6 10.8 82.9 10.9 C 83.2 11.0 83.7 11.1 84.1 10.9 C 84.5 10.7 84.7 9.9 84.7 9.9 C 84.9 10.1 85.1 10.3 85.2 10.5 C 85.6 10.5 86.0 10.5 86.5 10.5 C 86.5 10.5 87.4 10.4 87.4 10.2 C 87.4 10.1 87.2 9.4 87.2 9.2 C 87.2 9.0 87.7 8.7 87.8 9.0 C 87.9 9.2 88.4 9.8 88.4 9.8 C 88.4 9.8 88.8 10.2 89.1 10.2 C 89.4 10.2 89.8 9.9 89.9 9.8 C 90.0 9.6 90.4 9.1 90.4 9.1 C 90.5 9.3 90.6 9.5 90.8 9.7 C 90.8 9.7 91.5 9.3 92.4 9.8 C 92.4 9.8 92.4 9.8 92.4 9.8 Z M 71.9 11.6 C 72.1 11.4 72.3 11.9 72.8 12.0 C 73.4 12.1 74.0 12.0 73.8 11.7 C 73.7 11.4 73.5 11.2 73.7 10.8 C 73.9 10.4 74.1 9.6 73.7 9.4 C 73.3 9.2 71.8 8.7 71.4 9.1 C 71.0 9.5 70.9 9.7 70.6 10.0 C 70.3 10.3 70.4 9.5 70.4 9.5 C 70.4 9.5 69.6 9.5 69.1 9.5 C 68.5 9.5 67.9 9.6 67.8 9.7 C 67.8 9.9 67.6 10.2 67.6 10.2 C 67.6 10.2 67.3 9.9 66.9 9.8 C 66.4 9.8 66.6 10.0 66.7 10.2 C 66.8 10.4 67.4 10.8 67.2 10.8 C 67.0 10.9 66.4 10.2 66.1 10.1 C 65.8 10.1 65.1 10.2 65.1 10.2 C 65.1 10.2 65.3 10.7 65.2 10.8 C 65.2 10.9 64.5 11.0 64.5 10.9 C 64.4 10.7 64.4 10.3 64.1 10.3 C 63.1 10.3 63.4 11.2 63.3 11.2 C 63.2 11.3 63.1 10.6 62.8 10.5 C 62.6 10.5 60.7 10.9 60.6 11.0 C 60.6 11.2 59.8 10.7 59.6 11.2 C 59.4 11.6 59.3 11.8 59.3 11.9 C 59.2 12.0 59.0 12.8 58.8 12.5 C 58.6 12.3 59.2 11.4 58.9 11.2 C 58.7 11.1 57.5 11.2 57.3 11.5 C 57.1 11.8 57.1 12.5 56.9 12.5 C 56.8 12.5 56.0 11.8 55.9 11.9 C 55.9 12.1 56.0 12.8 56.0 12.9 C 56.0 13.0 55.8 14.4 56.1 14.5 C 56.4 14.6 57.1 15.0 57.0 14.6 C 56.8 14.3 56.6 13.9 56.8 13.7 C 57.0 13.5 57.1 13.4 57.2 13.5 C 57.3 13.7 57.2 13.8 57.6 14.0 C 58.1 14.2 57.9 14.5 58.3 14.4 C 58.7 14.3 59.0 14.2 58.9 13.9 C 58.9 13.6 59.2 13.2 59.5 13.2 C 59.8 13.1 59.4 13.8 60.3 13.9 C 61.2 14.0 61.8 14.0 62.0 13.7 C 62.3 13.4 62.2 12.7 62.7 12.9 C 63.1 13.2 62.9 13.4 63.5 13.3 C 64.1 13.2 64.2 12.6 64.6 12.5 C 65.0 12.4 65.1 12.4 65.1 12.4 C 65.1 12.4 65.0 13.3 65.8 13.2 C 66.7 13.1 66.9 13.2 66.6 12.6 C 66.3 12.0 67.0 11.9 67.1 12.3 C 67.1 12.7 67.7 12.9 68.0 12.9 C 68.3 12.9 68.2 11.9 68.3 11.8 C 68.4 11.8 68.8 11.8 68.7 12.1 C 68.6 12.5 69.0 12.5 69.2 12.6 C 69.5 12.7 70.3 12.4 70.3 12.3 C 70.2 12.1 69.8 11.5 70.3 11.7 C 70.9 12.0 71.1 12.5 71.6 12.4 C 72.1 12.3 71.6 11.8 71.9 11.6 C 71.9 11.6 71.9 11.6 71.9 11.6 Z M 54.7 14.9 C 55.6 15.1 56.3 14.6 56.1 14.2 C 56.0 13.9 55.5 13.0 55.8 12.6 C 56.0 12.3 56.9 11.4 55.4 11.6 C 53.8 11.7 53.6 12.0 53.6 12.3 C 53.6 12.5 53.5 13.5 53.1 13.5 C 52.7 13.5 52.2 13.3 52.1 13.2 C 52.0 13.1 51.2 12.2 50.6 12.5 C 49.9 12.8 49.3 13.2 49.3 13.2 C 48.9 13.2 48.6 13.3 48.2 13.4 C 48.2 13.4 47.2 13.0 46.5 13.3 C 45.7 13.6 44.9 13.7 44.3 13.8 C 43.8 13.9 43.3 14.1 43.2 14.3 C 43.2 14.6 42.6 15.6 42.6 15.6 C 42.6 15.6 41.9 16.0 41.5 15.9 C 41.1 15.8 41.0 15.4 41.0 15.2 C 41.0 15.0 40.9 14.6 40.3 14.6 C 39.8 14.6 37.5 14.7 37.2 15.0 C 36.9 15.4 37.1 15.7 36.9 15.9 C 36.7 16.0 35.3 16.4 35.1 16.2 C 34.9 16.0 34.9 15.5 34.5 15.7 C 34.1 15.8 33.3 15.9 33.3 16.0 C 33.4 16.1 33.1 16.3 33.2 16.6 C 33.2 16.9 32.5 17.3 32.4 17.5 C 32.3 17.7 31.7 17.9 31.7 17.9 C 31.4 17.8 31.1 17.7 30.8 17.6 C 30.8 17.6 31.1 17.0 31.3 16.9 C 31.5 16.7 31.1 16.5 30.8 16.5 C 30.6 16.6 29.2 17.0 29.2 17.0 C 29.3 17.4 29.4 17.8 29.4 18.2 C 29.1 18.3 28.8 18.5 28.5 18.7 C 28.5 18.7 28.3 17.4 27.6 17.5 C 27.0 17.7 26.2 18.0 26.2 18.0 C 26.2 18.0 25.7 18.7 25.6 18.7 C 25.5 18.8 25.8 20.0 25.8 20.0 C 25.9 20.4 26.1 20.9 26.3 21.3 C 26.3 21.3 27.2 21.5 27.5 21.2 C 27.9 20.9 27.4 20.5 27.4 20.3 C 27.4 20.0 27.9 19.6 27.9 19.6 C 28.3 19.8 28.7 20.0 29.0 20.1 C 29.0 20.1 29.4 20.3 29.7 20.4 C 30.1 20.6 31.1 20.4 31.4 20.2 C 31.6 20.1 31.8 19.7 32.2 19.3 C 32.5 19.0 32.3 18.6 32.8 18.8 C 33.4 19.0 33.7 19.3 33.9 19.3 C 34.1 19.2 35.0 18.5 35.0 18.5 C 35.3 18.3 35.6 18.1 35.8 18.0 C 35.8 18.0 36.6 17.5 36.7 17.8 C 36.9 18.0 38.4 17.3 38.4 17.3 C 38.4 17.3 38.5 18.2 38.9 18.2 C 39.4 18.2 40.1 18.3 40.7 18.0 C 41.4 17.7 41.7 16.8 41.7 16.8 C 42.0 16.9 42.2 17.1 42.5 17.3 C 43.2 17.2 43.8 17.1 44.5 17.0 C 44.5 17.0 46.1 16.6 46.0 16.5 C 46.0 16.4 45.7 15.7 45.7 15.5 C 45.8 15.3 46.6 14.9 46.7 15.1 C 46.9 15.3 47.7 15.8 47.7 15.8 C 47.7 15.8 48.5 16.1 49.0 16.0 C 49.4 16.0 50.2 15.6 50.3 15.5 C 50.5 15.3 51.2 14.6 51.2 14.6 C 51.4 14.8 51.7 15.0 51.9 15.2 C 51.9 15.2 53.2 14.6 54.7 14.9 C 54.7 14.9 54.7 14.9 54.7 14.9 Z M 23.7 21.7 C 23.9 21.6 24.3 22.0 24.9 21.9 C 25.6 21.9 26.4 21.6 26.2 21.4 C 25.9 21.1 25.6 21.0 25.8 20.5 C 26.1 20.0 26.2 19.2 25.7 19.1 C 25.2 19.0 23.2 18.9 22.7 19.5 C 22.3 20.0 22.2 20.2 21.9 20.6 C 21.6 20.9 21.6 20.1 21.6 20.1 C 21.6 20.1 20.6 20.3 20.0 20.5 C 19.3 20.7 18.6 20.9 18.6 21.1 C 18.6 21.2 18.4 21.6 18.4 21.6 C 18.4 21.6 18.0 21.4 17.5 21.5 C 17.0 21.6 17.3 21.7 17.4 21.9 C 17.6 22.0 18.3 22.3 18.1 22.4 C 17.9 22.4 17.0 21.9 16.7 22.0 C 16.4 22.0 15.7 22.4 15.7 22.4 C 15.7 22.4 16.0 22.8 16.0 22.9 C 15.9 23.0 15.3 23.3 15.3 23.2 C 15.2 23.1 15.0 22.6 14.7 22.7 C 13.7 23.1 14.2 23.8 14.1 23.9 C 14.1 24.0 13.8 23.3 13.5 23.4 C 13.2 23.4 11.6 24.3 11.6 24.5 C 11.6 24.7 10.7 24.5 10.7 25.0 C 10.7 25.5 10.7 25.6 10.7 25.8 C 10.7 25.9 10.8 26.6 10.5 26.5 C 10.2 26.3 10.4 25.3 10.1 25.3 C 9.8 25.2 8.9 25.7 8.9 26.0 C 8.8 26.4 9.1 27.0 9.0 27.0 C 8.9 27.1 8.0 26.8 8.0 26.9 C 8.0 27.0 8.4 27.6 8.5 27.8 C 8.6 27.9 9.2 29.0 9.4 29.0 C 9.6 29.1 10.3 29.2 10.0 28.9 C 9.7 28.7 9.4 28.4 9.4 28.1 C 9.5 27.9 9.6 27.8 9.7 27.9 C 9.8 28.0 9.8 28.2 10.2 28.2 C 10.6 28.2 10.6 28.5 10.9 28.3 C 11.1 28.1 11.4 27.9 11.2 27.7 C 11.0 27.5 11.1 27.0 11.3 26.9 C 11.6 26.7 11.5 27.5 12.3 27.3 C 13.1 27.1 13.6 26.9 13.7 26.6 C 13.8 26.3 13.5 25.6 14.1 25.7 C 14.6 25.8 14.4 26.1 15.0 25.8 C 15.5 25.5 15.4 24.9 15.8 24.7 C 16.1 24.5 16.2 24.5 16.2 24.5 C 16.2 24.5 16.4 25.4 17.2 25.0 C 18.1 24.7 18.3 24.7 17.9 24.2 C 17.5 23.8 18.1 23.4 18.3 23.8 C 18.5 24.2 19.1 24.2 19.4 24.1 C 19.7 24.0 19.5 23.1 19.6 23.0 C 19.7 22.9 20.1 22.8 20.1 23.2 C 20.0 23.5 20.4 23.4 20.7 23.5 C 21.1 23.5 21.9 23.1 21.9 22.9 C 21.8 22.7 21.1 22.3 21.9 22.4 C 22.6 22.5 22.9 22.9 23.5 22.6 C 24.1 22.4 23.4 22.0 23.7 21.7 C 23.7 21.7 23.7 21.7 23.7 21.7 Z M 9.1 29.5 C 9.6 29.6 9.5 29.1 9.2 28.8 C 9.0 28.5 8.3 27.8 8.2 27.5 C 8.2 27.2 8.1 26.4 7.5 26.7 C 6.9 26.9 7.0 27.2 7.2 27.4 C 7.3 27.6 7.9 28.5 7.7 28.5 C 7.5 28.5 7.2 28.4 7.1 28.3 C 7.0 28.2 6.2 27.6 6.1 27.9 C 6.0 28.2 6.0 28.6 6.0 28.6 C 5.9 28.7 5.8 28.8 5.7 28.9 C 5.7 28.9 5.1 28.7 5.0 29.0 C 4.9 29.3 4.7 29.5 4.5 29.7 C 4.4 29.8 4.3 30.0 4.5 30.2 C 4.6 30.3 5.2 31.0 5.2 31.0 C 5.2 31.0 5.2 31.4 5.0 31.4 C 4.8 31.4 4.4 31.2 4.3 31.1 C 4.2 30.9 3.8 30.7 3.6 30.8 C 3.4 30.9 2.6 31.5 2.8 31.7 C 3.0 31.9 3.3 32.1 3.4 32.2 C 3.4 32.3 3.3 32.8 3.1 32.7 C 2.8 32.7 2.3 32.5 2.3 32.7 C 2.3 32.8 2.1 33.1 2.3 33.1 C 2.4 33.2 2.5 33.3 2.8 33.4 C 3.0 33.5 3.2 33.8 3.3 33.9 C 3.5 33.9 3.5 34.1 3.5 34.1 C 3.3 34.2 3.1 34.3 3.0 34.3 C 3.0 34.3 2.5 34.1 2.4 34.0 C 2.3 33.9 2.0 34.0 1.9 34.1 C 1.9 34.2 1.9 34.8 1.9 34.8 C 2.3 34.8 2.7 34.9 3.1 34.9 C 3.1 35.0 3.2 35.1 3.3 35.2 C 3.3 35.2 2.0 35.2 2.0 35.5 C 2.0 35.8 2.0 36.1 2.0 36.1 C 2.0 36.1 2.6 36.3 2.7 36.4 C 2.7 36.4 3.9 36.2 3.9 36.2 C 4.3 36.1 4.8 36.0 5.3 35.9 C 5.3 35.9 5.7 35.6 5.5 35.5 C 5.3 35.5 4.8 35.6 4.5 35.6 C 4.3 35.6 4.1 35.5 4.1 35.5 C 4.3 35.3 4.6 35.2 4.8 35.2 C 4.8 35.2 5.1 35.1 5.3 35.0 C 5.5 34.9 5.7 34.7 5.6 34.7 C 5.5 34.6 5.2 34.5 5.0 34.3 C 4.8 34.2 4.4 34.2 4.7 34.1 C 5.0 34.0 5.4 34.1 5.4 34.0 C 5.4 34.0 5.1 33.6 5.1 33.6 C 5.0 33.5 4.9 33.4 4.8 33.3 C 4.8 33.3 4.7 33.0 5.0 33.1 C 5.2 33.1 5.1 32.6 5.1 32.6 C 5.1 32.6 5.8 33.0 6.0 33.0 C 6.2 32.9 6.4 32.9 6.4 32.7 C 6.4 32.5 5.8 31.9 5.8 31.9 C 6.0 32.0 6.2 32.0 6.4 32.1 C 6.6 32.0 6.7 31.9 6.9 31.8 C 6.9 31.8 7.1 31.4 7.0 31.3 C 6.9 31.2 6.3 30.8 6.2 30.7 C 6.1 30.5 6.1 30.2 6.3 30.3 C 6.5 30.4 7.1 30.7 7.1 30.7 C 7.1 30.7 7.6 30.8 7.7 30.8 C 7.9 30.7 7.9 30.4 7.8 30.2 C 7.8 30.1 7.6 29.5 7.6 29.5 C 7.8 29.6 8.0 29.7 8.2 29.9 C 8.2 29.9 8.4 29.3 9.1 29.5 C 9.1 29.5 9.1 29.5 9.1 29.5 Z M 5.1 36.7 C 5.0 36.7 5.4 36.5 5.5 36.2 C 5.6 36.0 5.6 35.8 5.3 35.9 C 5.0 36.0 4.8 36.2 4.4 36.1 C 4.0 36.1 3.3 36.1 3.0 36.3 C 2.8 36.6 2.4 37.6 2.8 37.7 C 3.2 37.8 3.4 37.8 3.7 37.9 C 4.0 37.9 3.2 38.2 3.2 38.2 C 3.2 38.2 3.3 38.6 3.5 38.9 C 3.6 39.3 3.8 39.6 3.9 39.6 C 4.1 39.5 4.4 39.5 4.4 39.5 C 4.4 39.5 4.2 39.8 4.3 40.1 C 4.4 40.4 4.5 40.1 4.6 40.0 C 4.8 39.9 5.0 39.3 5.0 39.4 C 5.1 39.5 4.7 40.2 4.8 40.4 C 4.8 40.6 5.2 40.9 5.2 40.9 C 5.2 40.9 5.5 40.6 5.6 40.5 C 5.7 40.5 6.0 40.8 5.9 40.9 C 5.8 41.0 5.4 41.3 5.6 41.5 C 6.0 42.1 6.6 41.3 6.6 41.4 C 6.7 41.4 6.2 41.9 6.3 42.1 C 6.4 42.3 7.6 43.2 7.8 43.1 C 7.9 43.0 8.0 43.8 8.4 43.6 C 8.9 43.4 9.0 43.3 9.1 43.2 C 9.2 43.2 9.8 42.8 9.8 43.1 C 9.8 43.4 8.8 43.7 8.9 44.0 C 8.9 44.3 9.8 44.9 10.1 44.8 C 10.5 44.7 10.9 44.1 11.0 44.2 C 11.1 44.3 11.3 45.4 11.4 45.3 C 11.5 45.2 11.9 44.6 12.0 44.5 C 12.0 44.4 12.8 43.4 12.8 43.2 C 12.8 43.0 12.4 42.2 12.3 42.6 C 12.2 42.9 12.1 43.4 11.9 43.4 C 11.6 43.4 11.5 43.4 11.5 43.3 C 11.5 43.1 11.7 43.0 11.5 42.6 C 11.3 42.3 11.6 42.1 11.3 42.0 C 11.0 41.8 10.7 41.7 10.6 42.0 C 10.5 42.2 10.0 42.4 9.8 42.2 C 9.6 42.1 10.3 41.8 9.9 41.2 C 9.5 40.6 9.2 40.3 8.9 40.4 C 8.6 40.5 8.1 41.0 8.1 40.6 C 8.1 40.1 8.4 40.1 8.1 39.9 C 7.8 39.6 7.3 40.0 7.1 39.8 C 6.9 39.7 6.9 39.6 6.9 39.6 C 6.9 39.6 7.6 39.1 7.3 38.7 C 7.0 38.4 7.0 38.3 6.6 38.7 C 6.2 39.2 6.0 38.9 6.3 38.7 C 6.6 38.4 6.6 38.0 6.6 37.9 C 6.6 37.8 5.7 38.3 5.6 38.3 C 5.6 38.2 5.6 38.1 5.9 37.9 C 6.2 37.8 6.1 37.7 6.2 37.5 C 6.2 37.3 6.0 37.1 5.8 37.2 C 5.7 37.3 5.1 37.7 5.3 37.4 C 5.5 37.0 6.0 36.7 5.9 36.6 C 5.8 36.4 5.3 36.8 5.1 36.7 C 5.1 36.7 5.1 36.7 5.1 36.7 Z M 13.2 43.0 C 12.5 42.6 11.7 45.2 11.7 45.9 C 11.7 46.5 12.4 46.5 12.9 46.8 C 13.4 47.2 13.6 46.3 14.0 46.3 C 14.5 46.2 14.1 46.7 14.1 47.1 C 14.1 47.5 15.1 47.6 15.7 47.9 C 16.2 48.2 17.2 47.6 17.7 47.8 C 18.1 47.9 17.4 47.2 18.2 47.5 C 19.1 47.9 18.5 48.2 17.4 48.1 C 16.3 47.9 17.6 48.7 18.1 49.0 C 18.6 49.3 19.7 49.3 20.2 49.6 C 20.6 49.8 20.3 48.9 20.9 49.2 C 21.6 49.5 21.0 50.0 21.7 50.3 C 22.4 50.7 22.5 50.0 23.0 50.0 C 23.4 50.0 23.2 50.4 23.5 50.5 C 23.8 50.7 24.2 51.0 25.0 51.1 C 25.8 51.2 25.6 50.9 26.0 51.0 C 26.3 51.1 26.9 51.3 26.9 51.3 C 26.9 51.5 26.9 51.7 26.9 51.9 C 26.9 51.9 28.2 52.4 28.7 52.6 C 29.1 52.8 30.1 52.7 29.9 52.5 C 29.7 52.3 30.8 52.2 31.0 52.3 C 31.2 52.5 31.8 53.0 32.3 53.3 C 32.8 53.6 33.1 51.9 33.2 51.7 C 33.2 51.4 33.8 50.6 33.4 50.4 C 32.9 50.2 32.5 50.4 32.6 50.2 C 32.7 50.0 31.4 49.8 31.0 49.7 C 30.6 49.6 30.0 50.1 30.0 50.1 C 30.0 50.1 29.5 50.5 29.0 50.4 C 28.4 50.2 28.5 49.1 28.5 49.1 C 28.5 49.1 27.9 48.7 27.2 48.6 C 26.6 48.4 25.6 49.0 25.4 49.2 C 25.2 49.3 25.5 48.6 25.1 48.3 C 24.6 48.1 24.1 47.6 23.9 47.6 C 23.7 47.6 23.2 48.0 23.2 48.0 C 23.2 48.0 22.3 48.0 22.1 48.0 C 22.0 47.9 22.5 47.3 22.5 47.3 C 22.5 47.3 21.1 46.5 20.8 46.3 C 20.5 46.1 19.9 46.1 19.7 46.1 C 19.4 46.1 18.8 46.9 18.5 46.6 C 18.2 46.4 19.0 46.2 18.8 46.0 C 18.5 45.8 18.0 45.3 17.9 45.3 C 17.7 45.2 17.4 45.4 17.1 45.4 C 16.8 45.3 16.2 45.8 15.8 45.7 C 15.4 45.5 15.4 45.0 15.3 44.9 C 15.3 44.7 15.4 44.1 15.2 43.9 C 14.9 43.8 14.9 44.3 14.6 44.1 C 14.4 44.0 14.2 44.4 14.0 44.2 C 13.7 44.0 14.3 43.4 13.9 43.3 C 13.8 43.3 13.9 43.3 13.2 43.0 C 13.2 43.0 13.2 43.0 13.2 43.0 Z M 34.5 50.8 C 33.9 50.2 33.2 50.5 33.2 50.9 C 33.2 51.3 33.2 52.3 32.9 52.5 C 32.5 52.7 31.6 53.2 32.7 53.6 C 33.8 54.1 34.2 53.8 34.2 53.6 C 34.3 53.4 34.8 52.5 35.1 52.6 C 35.4 52.8 35.6 53.2 35.7 53.3 C 35.7 53.5 35.9 54.5 36.6 54.5 C 37.2 54.6 37.8 54.4 37.8 54.4 C 38.1 54.5 38.4 54.5 38.8 54.6 C 38.8 54.6 39.5 55.4 40.2 55.4 C 40.9 55.4 41.7 55.6 42.2 55.8 C 42.8 55.9 43.3 55.9 43.5 55.7 C 43.6 55.5 44.5 54.9 44.5 54.9 C 44.5 54.9 45.3 54.8 45.7 55.0 C 46.0 55.2 46.0 55.7 45.9 55.9 C 45.8 56.0 45.8 56.5 46.3 56.7 C 46.9 56.9 49.2 57.9 49.7 57.7 C 50.1 57.5 50.1 57.1 50.4 57.0 C 50.7 57.0 52.4 57.3 52.5 57.5 C 52.6 57.8 52.4 58.3 52.9 58.3 C 53.4 58.4 54.4 58.7 54.5 58.5 C 54.5 58.4 54.8 58.3 54.9 58.1 C 55.0 57.8 56.0 57.7 56.1 57.6 C 56.2 57.5 56.6 57.5 56.6 57.5 C 56.7 57.7 56.9 57.9 57.0 58.0 C 57.0 58.0 56.6 58.5 56.5 58.6 C 56.3 58.6 56.5 59.0 56.6 59.1 C 56.8 59.1 57.7 59.2 57.7 59.2 C 57.8 58.8 57.9 58.4 57.9 58.1 C 58.2 58.0 58.4 58.0 58.7 57.9 C 58.7 57.9 58.3 59.3 58.8 59.3 C 59.2 59.4 59.8 59.5 59.8 59.5 C 59.8 59.5 60.3 59.1 60.4 59.0 C 60.5 59.0 60.8 57.8 60.8 57.8 C 60.8 57.4 60.9 56.9 60.9 56.4 C 60.9 56.4 60.4 55.9 60.1 56.0 C 59.8 56.2 60.0 56.7 59.9 56.9 C 59.8 57.1 59.3 57.3 59.3 57.3 C 59.2 57.0 59.0 56.7 58.8 56.4 C 58.8 56.4 58.7 56.2 58.6 55.9 C 58.4 55.6 57.7 55.4 57.5 55.5 C 57.3 55.5 57.1 55.8 56.8 56.0 C 56.5 56.2 56.5 56.6 56.3 56.2 C 56.0 55.9 55.6 55.4 55.3 55.4 C 55.0 55.3 53.7 55.5 53.7 55.5 C 53.3 55.6 52.9 55.6 52.5 55.6 C 52.5 55.6 51.5 55.7 51.4 55.4 C 51.3 55.1 49.4 55.1 49.4 55.1 C 49.4 55.1 49.7 54.3 49.3 54.0 C 48.8 53.8 48.1 53.5 47.4 53.5 C 46.6 53.5 45.9 54.1 45.9 54.1 C 45.7 53.9 45.5 53.6 45.3 53.4 C 44.7 53.2 44.0 53.0 43.3 52.8 C 43.3 52.8 41.8 52.5 41.8 52.6 C 41.8 52.8 41.8 53.5 41.7 53.6 C 41.6 53.8 40.7 53.9 40.7 53.6 C 40.7 53.4 40.1 52.6 40.1 52.6 C 40.1 52.6 39.6 52.0 39.2 51.9 C 38.8 51.7 38.1 51.8 37.9 51.9 C 37.7 52.0 36.9 52.3 36.9 52.3 C 36.8 52.1 36.7 51.8 36.6 51.6 C 36.6 51.6 35.4 51.6 34.5 50.8 C 34.5 50.8 34.5 50.8 34.5 50.8 Z M 62.8 57.1 C 62.6 57.2 62.5 56.7 62.0 56.5 C 61.6 56.2 61.0 56.1 61.0 56.4 C 61.1 56.8 61.2 57.0 60.9 57.3 C 60.6 57.7 60.2 58.3 60.5 58.7 C 60.8 59.0 62.0 59.9 62.5 59.6 C 63.0 59.3 63.2 59.2 63.5 59.0 C 63.9 58.8 63.5 59.5 63.5 59.5 C 63.5 59.5 64.3 59.8 64.8 59.9 C 65.3 60.0 66.0 60.1 66.0 60.0 C 66.1 59.9 66.4 59.7 66.4 59.7 C 66.4 59.7 66.6 60.1 67.0 60.2 C 67.4 60.3 67.3 60.1 67.3 59.9 C 67.2 59.7 66.8 59.1 67.0 59.2 C 67.2 59.2 67.6 60.0 67.9 60.2 C 68.1 60.3 68.8 60.3 68.8 60.3 C 68.8 60.3 68.8 59.9 68.9 59.8 C 68.9 59.7 69.6 59.7 69.6 59.9 C 69.6 60.0 69.5 60.5 69.8 60.6 C 70.8 60.8 70.8 59.9 70.9 59.9 C 71.0 59.9 70.9 60.6 71.1 60.7 C 71.3 60.8 73.4 61.0 73.5 60.9 C 73.6 60.7 74.2 61.4 74.6 61.0 C 74.9 60.7 75.1 60.5 75.1 60.4 C 75.2 60.3 75.7 59.7 75.8 60.0 C 76.0 60.3 75.1 61.0 75.3 61.2 C 75.5 61.4 76.8 61.6 77.0 61.5 C 77.4 61.2 77.6 60.6 77.7 60.6 C 77.9 60.6 78.5 61.6 78.6 61.4 C 78.7 61.3 78.9 60.6 78.9 60.5 C 78.9 60.4 79.3 59.1 79.2 59.0 C 79.0 58.8 78.3 58.2 78.4 58.6 C 78.4 58.9 78.6 59.4 78.3 59.5 C 78.0 59.7 77.8 59.7 77.8 59.5 C 77.7 59.4 77.9 59.2 77.5 58.9 C 77.1 58.7 77.3 58.4 76.9 58.4 C 76.5 58.3 76.1 58.4 76.1 58.6 C 76.1 58.9 75.6 59.3 75.3 59.2 C 75.0 59.1 75.6 58.6 74.7 58.2 C 73.8 57.9 73.2 57.7 72.9 57.9 C 72.6 58.1 72.4 58.8 72.0 58.5 C 71.6 58.1 71.9 57.9 71.3 57.9 C 70.7 57.8 70.4 58.3 70.0 58.3 C 69.6 58.3 69.5 58.2 69.5 58.2 C 69.5 58.2 69.8 57.4 69.0 57.3 C 68.1 57.1 68.0 57.0 68.0 57.6 C 68.1 58.3 67.5 58.2 67.5 57.8 C 67.5 57.4 67.1 57.1 66.8 57.0 C 66.5 56.9 66.3 57.9 66.2 57.9 C 66.0 57.9 65.7 57.8 65.9 57.5 C 66.1 57.2 65.8 57.1 65.5 56.9 C 65.3 56.7 64.5 56.7 64.5 56.9 C 64.5 57.1 64.7 57.8 64.3 57.4 C 63.8 57.0 63.7 56.5 63.2 56.4 C 62.8 56.4 63.1 57.0 62.8 57.1 C 62.8 57.1 62.8 57.1 62.8 57.1 Z M 79.5 58.7 C 78.6 58.6 78.9 61.3 79.2 61.9 C 79.5 62.4 80.2 62.2 80.8 62.4 C 81.4 62.5 81.3 61.7 81.7 61.5 C 82.1 61.3 81.9 61.8 82.0 62.2 C 82.2 62.6 83.2 62.4 83.8 62.5 C 84.4 62.6 85.1 61.8 85.6 61.8 C 86.1 61.8 85.2 61.3 86.1 61.4 C 86.9 61.6 86.5 62.0 85.4 62.2 C 84.4 62.3 85.8 62.7 86.3 62.9 C 86.8 63.0 87.8 62.8 88.2 62.9 C 88.7 63.0 88.2 62.2 88.8 62.3 C 89.4 62.4 89.1 63.0 89.7 63.2 C 90.3 63.4 90.3 62.7 90.7 62.6 C 91.0 62.5 90.9 62.9 91.2 63.0 C 91.4 63.0 91.8 63.3 92.5 63.2 C 93.1 63.1 93.0 62.9 93.2 62.9 C 93.5 62.9 94.0 62.9 94.0 62.9 C 94.0 63.1 94.0 63.4 94.1 63.6 C 94.1 63.6 95.2 63.8 95.5 63.8 C 95.8 63.9 96.6 63.7 96.4 63.5 C 96.2 63.4 97.0 63.0 97.2 63.1 C 97.4 63.2 97.9 63.6 98.3 63.8 C 98.6 64.0 98.7 62.3 98.7 62.0 C 98.7 61.8 99.0 60.9 98.7 60.8 C 98.4 60.6 98.1 60.9 98.2 60.7 C 98.2 60.5 97.2 60.6 96.9 60.6 C 96.6 60.6 96.3 61.2 96.3 61.2 C 96.3 61.2 95.9 61.7 95.5 61.6 C 95.0 61.6 95.0 60.5 95.0 60.5 C 95.0 60.5 94.4 60.2 93.9 60.2 C 93.3 60.2 92.6 61.1 92.5 61.2 C 92.4 61.4 92.5 60.6 92.1 60.5 C 91.7 60.3 91.2 60.0 91.0 60.1 C 90.8 60.1 90.5 60.6 90.5 60.6 C 90.5 60.6 89.8 60.9 89.6 60.8 C 89.4 60.8 89.8 60.1 89.8 60.1 C 89.8 60.1 88.4 59.7 88.1 59.6 C 87.8 59.5 87.3 59.6 87.0 59.7 C 86.8 59.7 86.4 60.6 86.1 60.5 C 85.8 60.4 86.5 59.9 86.2 59.8 C 85.8 59.6 85.3 59.4 85.1 59.4 C 85.0 59.3 84.7 59.7 84.4 59.7 C 84.2 59.7 83.7 60.4 83.3 60.3 C 82.8 60.3 82.7 59.8 82.5 59.7 C 82.4 59.6 82.3 58.9 82.0 58.9 C 81.7 58.8 81.9 59.3 81.6 59.2 C 81.2 59.2 81.2 59.7 80.9 59.6 C 80.6 59.4 80.9 58.7 80.5 58.7 C 80.3 58.7 80.5 58.7 79.5 58.7 C 79.5 58.7 79.5 58.7 79.5 58.7 Z M 100.8 61.7 C 100.6 61.8 100.5 61.3 99.9 61.1 C 99.4 60.9 98.7 60.8 98.8 61.1 C 98.9 61.4 99.1 61.7 98.7 62.0 C 98.4 62.4 98.0 63.1 98.4 63.4 C 98.8 63.7 100.2 64.5 100.8 64.2 C 101.3 63.9 101.5 63.7 101.9 63.5 C 102.2 63.3 101.9 64.1 101.9 64.1 C 101.9 64.1 102.7 64.3 103.4 64.4 C 104.0 64.5 104.7 64.5 104.8 64.4 C 104.9 64.3 105.1 64.0 105.1 64.0 C 105.1 64.0 105.4 64.4 105.9 64.5 C 106.4 64.7 106.2 64.4 106.2 64.2 C 106.1 64.0 105.6 63.5 105.8 63.5 C 106.0 63.5 106.5 64.4 106.8 64.5 C 107.2 64.6 107.9 64.6 107.9 64.6 C 107.9 64.6 107.9 64.1 108.0 64.0 C 108.0 63.9 108.8 63.9 108.8 64.1 C 108.8 64.3 108.7 64.7 109.1 64.8 C 110.2 65.0 110.1 64.1 110.2 64.0 C 110.3 64.0 110.3 64.7 110.6 64.8 C 110.8 65.0 113.1 65.0 113.2 64.9 C 113.4 64.7 114.1 65.4 114.4 65.0 C 114.8 64.6 114.9 64.5 115.0 64.4 C 115.1 64.3 115.6 63.6 115.8 63.9 C 115.9 64.2 115.0 64.9 115.2 65.1 C 115.5 65.3 116.9 65.5 117.2 65.3 C 117.6 65.0 117.7 64.4 117.9 64.4 C 118.1 64.4 118.9 65.3 118.9 65.2 C 119.0 65.0 119.2 64.3 119.2 64.2 C 119.2 64.1 119.5 62.8 119.4 62.7 C 119.2 62.5 118.4 62.0 118.5 62.3 C 118.6 62.7 118.7 63.2 118.4 63.3 C 118.1 63.4 117.9 63.4 117.9 63.3 C 117.8 63.2 118.0 63.0 117.5 62.7 C 117.0 62.5 117.3 62.2 116.8 62.2 C 116.3 62.2 115.9 62.2 115.9 62.5 C 116.0 62.8 115.4 63.2 115.1 63.1 C 114.8 63.1 115.4 62.5 114.3 62.2 C 113.3 61.9 112.6 61.8 112.3 62.0 C 112.0 62.2 111.8 62.9 111.4 62.6 C 110.9 62.2 111.2 62.0 110.5 62.0 C 109.8 62.0 109.5 62.5 109.1 62.5 C 108.6 62.5 108.5 62.5 108.5 62.5 C 108.5 62.5 108.8 61.6 107.9 61.5 C 106.9 61.4 106.7 61.3 106.9 61.9 C 107.0 62.6 106.3 62.5 106.3 62.1 C 106.3 61.7 105.7 61.4 105.4 61.3 C 105.1 61.3 104.9 62.3 104.7 62.3 C 104.6 62.3 104.2 62.2 104.4 61.9 C 104.6 61.6 104.2 61.5 103.9 61.3 C 103.6 61.2 102.8 61.2 102.8 61.4 C 102.7 61.6 103.1 62.3 102.6 61.9 C 102.0 61.5 101.9 61.0 101.3 61.0 C 100.8 60.9 101.2 61.6 100.8 61.7 C 100.8 61.7 100.8 61.7 100.8 61.7 Z M 120.2 62.5 C 119.7 62.1 119.3 62.5 119.3 62.9 C 119.3 63.3 119.5 64.3 119.3 64.5 C 119.1 64.8 118.4 65.5 119.3 65.7 C 120.2 65.9 120.4 65.6 120.4 65.4 C 120.4 65.1 120.7 64.1 120.9 64.2 C 121.1 64.3 121.3 64.6 121.4 64.8 C 121.4 64.9 121.7 65.9 122.2 65.8 C 122.6 65.7 123.0 65.4 123.0 65.4 C 123.3 65.4 123.5 65.4 123.7 65.4 C 123.7 65.4 124.3 66.1 124.8 66.0 C 125.2 65.8 125.8 65.9 126.1 65.9 C 126.5 66.0 126.9 65.9 126.9 65.7 C 127.0 65.5 127.5 64.7 127.5 64.7 C 127.5 64.7 128.1 64.5 128.3 64.6 C 128.6 64.8 128.6 65.2 128.5 65.4 C 128.5 65.6 128.5 66.1 128.9 66.2 C 129.2 66.3 130.8 66.8 131.0 66.6 C 131.3 66.3 131.2 65.9 131.4 65.9 C 131.6 65.8 132.7 65.8 132.7 66.0 C 132.8 66.2 132.7 66.8 133.0 66.7 C 133.3 66.7 133.9 66.9 133.9 66.7 C 134.0 66.6 134.2 66.5 134.2 66.2 C 134.2 65.9 134.9 65.7 135.0 65.6 C 135.1 65.4 135.6 65.4 135.6 65.4 C 135.8 65.6 136.0 65.7 136.2 65.9 C 136.2 65.9 135.8 66.4 135.6 66.5 C 135.4 66.6 135.7 66.9 135.9 67.0 C 136.1 67.0 137.2 67.0 137.2 67.0 C 137.3 66.6 137.3 66.2 137.4 65.8 C 137.6 65.8 137.9 65.7 138.2 65.6 C 138.2 65.6 138.0 67.0 138.6 67.0 C 139.1 67.0 139.8 67.0 139.8 67.0 C 139.8 67.0 140.4 66.6 140.6 66.5 C 140.7 66.5 140.8 65.3 140.8 65.3 C 140.8 64.8 140.8 64.3 140.8 63.9 C 140.8 63.9 140.1 63.4 139.7 63.6 C 139.3 63.7 139.6 64.3 139.6 64.5 C 139.5 64.7 138.9 64.9 138.9 64.9 C 138.7 64.6 138.5 64.4 138.2 64.1 C 138.2 64.1 138.0 63.9 137.8 63.6 C 137.5 63.4 136.7 63.2 136.4 63.3 C 136.2 63.4 135.9 63.7 135.6 63.9 C 135.3 64.1 135.3 64.5 135.0 64.2 C 134.6 63.8 134.5 63.5 134.3 63.5 C 134.1 63.4 133.3 63.9 133.3 63.9 C 133.1 64.0 132.8 64.1 132.6 64.2 C 132.6 64.2 132.0 64.4 131.9 64.1 C 131.9 63.8 130.7 64.1 130.7 64.1 C 130.7 64.1 130.8 63.2 130.5 63.1 C 130.2 62.9 129.8 62.7 129.3 62.8 C 128.8 62.9 128.4 63.7 128.4 63.7 C 128.2 63.5 128.1 63.3 128.0 63.1 C 127.5 63.0 127.1 62.9 126.6 62.8 C 126.6 62.8 125.6 62.8 125.6 62.9 C 125.6 63.1 125.7 63.8 125.6 64.0 C 125.5 64.1 125.0 64.3 124.9 64.1 C 124.9 63.9 124.4 63.2 124.4 63.2 C 124.4 63.2 124.0 62.8 123.7 62.7 C 123.4 62.6 123.0 62.8 122.8 63.0 C 122.7 63.1 122.2 63.6 122.2 63.6 C 122.1 63.4 122.0 63.1 121.8 62.9 C 121.8 62.9 121.0 63.2 120.2 62.5 C 120.2 62.5 120.2 62.5 120.2 62.5 Z M 141.2 63.5 C 140.1 63.5 140.7 66.2 141.1 66.7 C 141.5 67.3 142.3 67.0 143.0 67.1 C 143.7 67.2 143.5 66.4 144.0 66.1 C 144.4 65.9 144.2 66.4 144.4 66.8 C 144.6 67.2 145.7 66.9 146.4 67.0 C 147.1 67.1 147.8 66.2 148.3 66.2 C 148.9 66.1 147.9 65.7 148.9 65.8 C 149.8 65.9 149.3 66.3 148.2 66.6 C 147.1 66.8 148.6 67.1 149.2 67.2 C 149.9 67.3 150.9 67.0 151.4 67.0 C 151.9 67.1 151.3 66.4 152.0 66.4 C 152.7 66.5 152.3 67.1 153.0 67.3 C 153.8 67.4 153.7 66.7 154.1 66.6 C 154.4 66.5 154.3 66.9 154.6 66.9 C 155.0 67.0 155.4 67.2 156.1 67.1 C 156.8 66.9 156.6 66.7 156.9 66.7 C 157.2 66.6 157.8 66.7 157.8 66.7 C 157.8 66.9 157.9 67.1 157.9 67.3 C 157.9 67.3 159.1 67.4 159.5 67.5 C 159.9 67.5 160.7 67.3 160.5 67.1 C 160.3 67.0 161.1 66.5 161.3 66.6 C 161.5 66.7 162.1 67.1 162.5 67.2 C 162.9 67.4 162.9 65.7 162.9 65.4 C 162.9 65.2 163.1 64.3 162.8 64.2 C 162.4 64.1 162.1 64.4 162.2 64.2 C 162.2 63.9 161.1 64.1 160.8 64.1 C 160.5 64.1 160.1 64.8 160.1 64.8 C 160.1 64.8 159.8 65.3 159.3 65.3 C 158.8 65.3 158.6 64.2 158.6 64.2 C 158.6 64.2 158.0 64.0 157.4 64.0 C 156.8 64.0 156.1 64.9 156.0 65.1 C 155.9 65.3 155.9 64.5 155.5 64.4 C 155.0 64.2 154.4 64.0 154.2 64.0 C 154.1 64.1 153.7 64.6 153.7 64.6 C 153.7 64.6 152.9 64.9 152.7 64.9 C 152.6 64.9 152.9 64.1 152.9 64.1 C 152.9 64.1 151.2 63.8 150.9 63.8 C 150.6 63.7 150.0 63.9 149.8 63.9 C 149.5 64.0 149.1 64.9 148.8 64.8 C 148.4 64.7 149.2 64.2 148.8 64.1 C 148.4 64.0 147.8 63.8 147.6 63.8 C 147.4 63.8 147.1 64.1 146.8 64.1 C 146.5 64.2 146.1 64.9 145.6 64.9 C 145.1 64.9 144.9 64.4 144.7 64.3 C 144.5 64.2 144.4 63.6 144.1 63.5 C 143.7 63.5 143.9 63.9 143.6 63.9 C 143.2 63.9 143.2 64.4 142.8 64.3 C 142.5 64.2 142.7 63.4 142.3 63.5 C 142.1 63.5 142.3 63.5 141.2 63.5 C 141.2 63.5 141.2 63.5 141.2 63.5 Z M 163.7 64.3 C 163.2 63.9 162.7 64.3 162.7 64.7 C 162.8 65.1 163.0 66.1 162.8 66.3 C 162.6 66.6 161.9 67.3 162.9 67.5 C 163.8 67.6 164.0 67.3 164.0 67.1 C 164.0 66.9 164.2 65.9 164.5 66.0 C 164.7 66.0 165.0 66.3 165.0 66.5 C 165.1 66.6 165.4 67.6 165.9 67.5 C 166.3 67.3 166.8 67.1 166.8 67.1 C 167.0 67.0 167.2 67.0 167.5 67.0 C 167.5 67.0 168.1 67.6 168.6 67.5 C 169.1 67.4 169.6 67.4 170.0 67.4 C 170.4 67.5 170.8 67.4 170.8 67.2 C 170.9 66.9 171.4 66.1 171.4 66.1 C 171.4 66.1 172.0 65.9 172.2 66.0 C 172.5 66.1 172.5 66.6 172.5 66.8 C 172.4 67.0 172.5 67.4 172.8 67.5 C 173.2 67.6 174.8 68.1 175.1 67.8 C 175.3 67.6 175.3 67.2 175.5 67.1 C 175.7 67.0 176.7 67.0 176.8 67.2 C 176.9 67.4 176.9 67.9 177.2 67.9 C 177.5 67.8 178.1 68.0 178.1 67.9 C 178.1 67.7 178.3 67.6 178.3 67.3 C 178.4 67.0 179.0 66.8 179.1 66.7 C 179.2 66.5 179.7 66.5 179.7 66.5 C 180.0 66.6 180.2 66.8 180.4 66.9 C 180.4 66.9 180.0 67.4 179.8 67.5 C 179.6 67.6 179.9 68.0 180.1 68.0 C 180.3 68.0 181.5 68.0 181.5 68.0 C 181.5 67.6 181.5 67.2 181.6 66.8 C 181.9 66.7 182.1 66.6 182.4 66.6 C 182.4 66.6 182.3 67.9 182.9 67.9 C 183.4 67.9 184.1 67.9 184.1 67.9 C 184.1 67.9 184.7 67.4 184.9 67.4 C 185.0 67.3 185.1 66.1 185.1 66.1 C 185.0 65.6 185.0 65.2 184.9 64.7 C 184.9 64.7 184.3 64.2 183.9 64.4 C 183.5 64.6 183.8 65.1 183.8 65.4 C 183.7 65.6 183.1 65.8 183.1 65.8 C 182.9 65.6 182.6 65.3 182.4 65.0 C 182.4 65.0 182.1 64.8 181.9 64.6 C 181.6 64.3 180.8 64.2 180.5 64.3 C 180.3 64.4 180.0 64.7 179.7 64.9 C 179.4 65.2 179.4 65.6 179.1 65.3 C 178.7 64.9 178.5 64.6 178.3 64.6 C 178.1 64.6 177.3 65.0 177.3 65.0 C 177.1 65.1 176.9 65.2 176.6 65.3 C 176.6 65.3 176.0 65.6 175.9 65.3 C 175.8 65.0 174.6 65.3 174.6 65.3 C 174.6 65.3 174.7 64.5 174.4 64.4 C 174.1 64.2 173.6 64.0 173.1 64.2 C 172.6 64.3 172.2 65.1 172.2 65.1 C 172.1 64.9 171.9 64.7 171.8 64.5 C 171.3 64.4 170.8 64.3 170.4 64.3 C 170.4 64.3 169.3 64.3 169.3 64.4 C 169.3 64.6 169.4 65.3 169.4 65.5 C 169.3 65.7 168.7 65.9 168.7 65.6 C 168.6 65.4 168.1 64.8 168.1 64.8 C 168.1 64.8 167.7 64.3 167.4 64.3 C 167.0 64.2 166.6 64.5 166.4 64.6 C 166.3 64.7 165.8 65.2 165.8 65.2 C 165.7 65.0 165.5 64.8 165.4 64.6 C 165.4 64.6 164.5 64.9 163.7 64.3 C 163.7 64.3 163.7 64.3 163.7 64.3 Z M 185.4 64.3 C 184.3 64.3 185.0 67.0 185.5 67.5 C 185.9 68.1 186.7 67.7 187.4 67.8 C 188.1 67.9 187.9 67.1 188.3 66.8 C 188.8 66.6 188.6 67.1 188.8 67.5 C 189.0 67.9 190.1 67.5 190.8 67.6 C 191.5 67.6 192.2 66.7 192.8 66.7 C 193.3 66.6 192.3 66.2 193.3 66.2 C 194.3 66.3 193.8 66.8 192.6 67.1 C 191.5 67.3 193.1 67.6 193.7 67.7 C 194.3 67.7 195.4 67.3 195.9 67.4 C 196.4 67.4 195.7 66.7 196.5 66.8 C 197.2 66.8 196.8 67.5 197.5 67.6 C 198.3 67.6 198.2 67.0 198.5 66.9 C 198.9 66.7 198.8 67.1 199.2 67.1 C 199.5 67.2 200.0 67.4 200.6 67.2 C 201.3 67.0 201.1 66.9 201.4 66.8 C 201.7 66.7 202.3 66.7 202.3 66.7 C 202.3 67.0 202.4 67.2 202.4 67.4 C 202.4 67.4 203.7 67.4 204.0 67.5 C 204.4 67.5 205.2 67.2 205.0 67.1 C 204.8 66.9 205.6 66.5 205.8 66.6 C 206.0 66.7 206.6 67.0 207.0 67.1 C 207.5 67.3 207.3 65.5 207.3 65.3 C 207.3 65.1 207.5 64.1 207.2 64.0 C 206.8 63.9 206.5 64.3 206.5 64.0 C 206.6 63.8 205.5 64.1 205.2 64.1 C 204.9 64.1 204.5 64.7 204.5 64.7 C 204.5 64.7 204.2 65.3 203.7 65.3 C 203.2 65.3 203.0 64.2 203.0 64.2 C 203.0 64.2 202.4 64.0 201.8 64.1 C 201.2 64.2 200.5 65.1 200.4 65.3 C 200.3 65.5 200.3 64.6 199.9 64.5 C 199.4 64.5 198.8 64.2 198.6 64.3 C 198.4 64.3 198.1 64.9 198.1 64.9 C 198.1 64.9 197.3 65.2 197.1 65.2 C 197.0 65.2 197.3 64.4 197.3 64.4 C 197.3 64.4 195.6 64.2 195.2 64.1 C 194.9 64.1 194.3 64.3 194.1 64.4 C 193.9 64.4 193.5 65.4 193.1 65.3 C 192.8 65.2 193.5 64.7 193.1 64.6 C 192.8 64.5 192.1 64.3 191.9 64.3 C 191.7 64.3 191.5 64.6 191.2 64.7 C 190.8 64.7 190.4 65.5 189.9 65.5 C 189.4 65.5 189.2 65.1 189.0 65.0 C 188.8 64.9 188.7 64.2 188.3 64.2 C 187.9 64.2 188.2 64.6 187.8 64.6 C 187.4 64.6 187.5 65.1 187.1 65.0 C 186.7 64.9 186.9 64.1 186.5 64.2 C 186.3 64.3 186.5 64.2 185.4 64.3 C 185.4 64.3 185.4 64.3 185.4 64.3 Z M 209.5 64.7 C 209.3 64.8 209.1 64.3 208.5 64.2 C 207.9 64.1 207.1 64.1 207.3 64.4 C 207.4 64.7 207.7 64.9 207.3 65.3 C 207.0 65.7 206.7 66.4 207.1 66.7 C 207.6 66.9 209.3 67.6 209.8 67.2 C 210.3 66.8 210.5 66.7 210.9 66.4 C 211.3 66.2 211.0 67.0 211.0 67.0 C 211.0 67.0 211.9 67.0 212.6 67.1 C 213.3 67.1 214.1 67.1 214.1 67.0 C 214.2 66.8 214.4 66.5 214.4 66.5 C 214.4 66.5 214.8 66.9 215.3 67.0 C 215.8 67.0 215.6 66.8 215.5 66.6 C 215.5 66.4 214.8 65.9 215.1 65.9 C 215.3 65.9 215.9 66.7 216.3 66.8 C 216.6 66.8 217.4 66.8 217.4 66.8 C 217.4 66.8 217.3 66.3 217.4 66.2 C 217.5 66.1 218.3 66.0 218.3 66.2 C 218.3 66.3 218.3 66.8 218.7 66.8 C 219.9 66.9 219.7 66.0 219.8 66.0 C 219.9 65.9 219.9 66.6 220.2 66.7 C 220.5 66.8 222.9 66.6 223.0 66.4 C 223.1 66.3 223.9 66.8 224.3 66.4 C 224.6 66.0 224.7 65.8 224.8 65.7 C 224.8 65.6 225.3 64.9 225.5 65.2 C 225.7 65.4 224.8 66.2 225.1 66.4 C 225.4 66.6 226.9 66.6 227.1 66.4 C 227.5 66.1 227.5 65.4 227.8 65.4 C 228.0 65.4 228.8 66.2 228.9 66.1 C 229.0 65.9 229.0 65.2 229.0 65.1 C 229.0 65.0 229.2 63.7 229.1 63.5 C 228.9 63.4 228.0 62.9 228.1 63.3 C 228.2 63.6 228.5 64.1 228.2 64.3 C 227.9 64.4 227.7 64.5 227.6 64.3 C 227.5 64.2 227.7 64.0 227.2 63.8 C 226.6 63.6 226.9 63.3 226.4 63.4 C 225.9 63.4 225.5 63.5 225.5 63.8 C 225.6 64.1 225.1 64.5 224.7 64.5 C 224.4 64.5 224.9 63.8 223.8 63.6 C 222.7 63.4 222.0 63.4 221.7 63.7 C 221.4 63.9 221.3 64.6 220.8 64.3 C 220.3 64.0 220.6 63.8 219.8 63.9 C 219.1 63.9 218.9 64.5 218.4 64.6 C 218.0 64.6 217.8 64.6 217.8 64.6 C 217.8 64.6 218.0 63.7 217.0 63.7 C 216.0 63.7 215.8 63.7 216.0 64.2 C 216.2 64.8 215.5 64.9 215.4 64.5 C 215.4 64.1 214.7 63.9 214.4 63.8 C 214.0 63.8 214.0 64.8 213.8 64.8 C 213.7 64.9 213.3 64.8 213.4 64.5 C 213.6 64.2 213.2 64.1 212.8 64.0 C 212.5 63.9 211.6 64.0 211.6 64.2 C 211.6 64.4 212.1 65.0 211.4 64.7 C 210.8 64.4 210.6 63.9 210.0 63.9 C 209.4 64.0 209.9 64.6 209.5 64.7 C 209.5 64.7 209.5 64.7 209.5 64.7 Z M 229.9 63.3 C 229.4 63.0 228.9 63.4 229.0 63.8 C 229.1 64.2 229.3 65.1 229.2 65.4 C 229.0 65.7 228.4 66.4 229.3 66.5 C 230.2 66.6 230.4 66.3 230.4 66.1 C 230.4 65.9 230.5 64.8 230.8 64.9 C 231.0 65.0 231.3 65.3 231.3 65.4 C 231.4 65.5 231.8 66.5 232.2 66.3 C 232.7 66.2 233.1 65.9 233.1 65.9 C 233.3 65.8 233.5 65.8 233.7 65.8 C 233.7 65.8 234.4 66.3 234.9 66.2 C 235.3 66.0 235.9 66.0 236.2 66.0 C 236.6 66.0 237.0 65.9 237.0 65.7 C 237.1 65.5 237.5 64.6 237.5 64.6 C 237.5 64.6 238.0 64.3 238.3 64.5 C 238.5 64.6 238.6 65.1 238.6 65.2 C 238.5 65.4 238.6 65.9 239.0 66.0 C 239.3 66.0 240.9 66.4 241.1 66.1 C 241.4 65.8 241.3 65.4 241.5 65.3 C 241.6 65.2 242.7 65.1 242.8 65.4 C 242.9 65.6 242.8 66.1 243.1 66.0 C 243.4 66.0 244.0 66.1 244.0 65.9 C 244.0 65.8 244.2 65.6 244.2 65.4 C 244.2 65.1 244.8 64.8 244.9 64.7 C 245.0 64.5 245.5 64.4 245.5 64.4 C 245.7 64.6 245.9 64.7 246.1 64.9 C 246.1 64.9 245.8 65.4 245.6 65.5 C 245.4 65.6 245.7 65.9 245.9 65.9 C 246.1 66.0 247.2 65.8 247.2 65.8 C 247.2 65.4 247.2 65.0 247.2 64.6 C 247.5 64.6 247.7 64.5 248.0 64.4 C 248.0 64.4 248.0 65.7 248.5 65.7 C 249.1 65.6 249.7 65.6 249.7 65.6 C 249.7 65.6 250.2 65.0 250.4 65.0 C 250.5 64.9 250.5 63.7 250.5 63.7 C 250.4 63.3 250.3 62.8 250.2 62.3 C 250.2 62.3 249.6 61.9 249.2 62.1 C 248.9 62.3 249.2 62.8 249.2 63.1 C 249.1 63.3 248.6 63.6 248.6 63.6 C 248.4 63.3 248.1 63.1 247.8 62.8 C 247.8 62.8 247.6 62.6 247.4 62.4 C 247.1 62.2 246.3 62.1 246.0 62.2 C 245.8 62.3 245.6 62.7 245.3 62.9 C 245.0 63.2 245.1 63.6 244.7 63.3 C 244.4 63.0 244.2 62.6 244.0 62.6 C 243.8 62.6 243.1 63.2 243.1 63.2 C 242.8 63.3 242.6 63.4 242.4 63.5 C 242.4 63.5 241.9 63.8 241.8 63.5 C 241.7 63.2 240.5 63.6 240.5 63.6 C 240.5 63.6 240.6 62.8 240.3 62.7 C 240.0 62.6 239.5 62.4 239.0 62.6 C 238.5 62.7 238.2 63.5 238.2 63.5 C 238.1 63.4 237.9 63.2 237.7 63.0 C 237.3 62.9 236.8 62.9 236.4 62.9 C 236.4 62.9 235.3 63.0 235.4 63.1 C 235.4 63.2 235.5 63.9 235.5 64.1 C 235.4 64.3 234.9 64.6 234.8 64.3 C 234.7 64.1 234.2 63.5 234.2 63.5 C 234.2 63.5 233.8 63.1 233.5 63.1 C 233.2 63.0 232.7 63.3 232.6 63.4 C 232.5 63.6 232.0 64.1 232.0 64.1 C 231.9 63.9 231.7 63.7 231.6 63.5 C 231.6 63.5 230.8 63.9 229.9 63.3 C 229.9 63.3 229.9 63.3 229.9 63.3 Z M 250.7 61.9 C 249.6 62.0 250.5 64.6 250.9 65.1 C 251.4 65.6 252.1 65.2 252.8 65.3 C 253.5 65.3 253.2 64.5 253.6 64.2 C 253.9 64.0 253.8 64.5 254.0 64.9 C 254.2 65.3 255.3 64.8 255.9 64.8 C 256.6 64.8 257.2 63.9 257.7 63.8 C 258.2 63.7 257.2 63.4 258.1 63.3 C 259.0 63.3 258.6 63.8 257.6 64.2 C 256.6 64.5 258.0 64.7 258.6 64.7 C 259.2 64.8 260.1 64.3 260.6 64.3 C 261.1 64.3 260.4 63.7 261.1 63.6 C 261.7 63.6 261.5 64.3 262.1 64.4 C 262.8 64.4 262.7 63.8 263.0 63.6 C 263.3 63.4 263.3 63.8 263.6 63.8 C 263.9 63.9 264.3 64.0 264.9 63.8 C 265.6 63.6 265.4 63.4 265.6 63.4 C 265.9 63.3 266.4 63.2 266.4 63.2 C 266.5 63.5 266.5 63.7 266.6 63.9 C 266.6 63.9 267.7 63.8 268.1 63.9 C 268.4 63.9 269.1 63.5 268.9 63.4 C 268.7 63.3 269.4 62.8 269.6 62.8 C 269.8 62.9 270.4 63.2 270.8 63.3 C 271.2 63.4 270.9 61.7 270.9 61.5 C 270.8 61.2 271.0 60.3 270.6 60.2 C 270.3 60.2 270.0 60.5 270.1 60.3 C 270.1 60.0 269.1 60.4 268.8 60.4 C 268.6 60.4 268.3 61.1 268.3 61.1 C 268.3 61.1 268.1 61.6 267.6 61.7 C 267.2 61.7 266.9 60.7 266.9 60.7 C 266.9 60.7 266.3 60.5 265.8 60.6 C 265.2 60.7 264.7 61.7 264.6 61.9 C 264.5 62.1 264.5 61.3 264.0 61.2 C 263.6 61.1 263.0 60.9 262.9 61.0 C 262.7 61.1 262.5 61.6 262.5 61.6 C 262.5 61.6 261.8 62.0 261.6 62.0 C 261.4 62.1 261.7 61.2 261.7 61.2 C 261.7 61.2 260.1 61.1 259.8 61.1 C 259.4 61.1 259.0 61.3 258.7 61.4 C 258.5 61.5 258.3 62.5 257.9 62.4 C 257.6 62.3 258.2 61.8 257.9 61.7 C 257.5 61.6 256.9 61.5 256.7 61.5 C 256.5 61.5 256.3 61.9 256.0 61.9 C 255.8 62.0 255.4 62.8 255.0 62.8 C 254.5 62.8 254.2 62.4 254.1 62.3 C 253.9 62.2 253.7 61.6 253.3 61.6 C 253.0 61.6 253.3 62.0 252.9 62.1 C 252.6 62.1 252.6 62.6 252.3 62.5 C 251.9 62.4 252.1 61.6 251.7 61.8 C 251.5 61.8 251.7 61.8 250.7 61.9 C 250.7 61.9 250.7 61.9 250.7 61.9 Z M 271.4 60.2 C 270.9 59.9 270.6 60.4 270.7 60.8 C 270.8 61.1 271.0 62.1 270.9 62.4 C 270.7 62.7 270.2 63.4 271.1 63.5 C 271.9 63.5 272.1 63.2 272.1 63.0 C 272.0 62.8 272.1 61.7 272.3 61.8 C 272.6 61.9 272.8 62.1 272.9 62.3 C 273.0 62.4 273.4 63.3 273.8 63.2 C 274.2 63.0 274.5 62.7 274.5 62.7 C 274.7 62.6 274.9 62.6 275.1 62.5 C 275.1 62.5 275.7 63.1 276.2 62.9 C 276.6 62.7 277.1 62.7 277.4 62.7 C 277.7 62.7 278.1 62.5 278.1 62.3 C 278.1 62.1 278.5 61.2 278.5 61.2 C 278.5 61.2 278.9 60.9 279.2 61.0 C 279.4 61.1 279.5 61.6 279.5 61.8 C 279.4 62.0 279.5 62.4 279.9 62.5 C 280.2 62.5 281.7 62.8 281.9 62.5 C 282.1 62.2 282.0 61.9 282.1 61.8 C 282.3 61.6 283.2 61.5 283.3 61.7 C 283.4 61.9 283.4 62.4 283.7 62.4 C 283.9 62.3 284.5 62.4 284.5 62.2 C 284.4 62.1 284.6 61.9 284.6 61.6 C 284.6 61.4 285.1 61.1 285.2 60.9 C 285.3 60.8 285.7 60.7 285.7 60.7 C 285.9 60.8 286.1 60.9 286.3 61.1 C 286.3 61.1 286.0 61.6 285.9 61.7 C 285.7 61.8 286.0 62.1 286.2 62.1 C 286.4 62.2 287.4 62.0 287.4 62.0 C 287.3 61.6 287.3 61.2 287.3 60.8 C 287.5 60.7 287.7 60.6 288.0 60.5 C 288.0 60.5 288.0 61.8 288.5 61.8 C 289.0 61.7 289.6 61.6 289.6 61.6 C 289.6 61.6 290.0 61.0 290.1 61.0 C 290.2 60.9 290.1 59.7 290.1 59.7 C 290.0 59.3 289.9 58.8 289.8 58.4 C 289.8 58.4 289.2 58.0 288.9 58.2 C 288.6 58.4 288.9 58.9 288.9 59.1 C 288.9 59.4 288.5 59.7 288.5 59.7 C 288.2 59.4 288.0 59.2 287.7 59.0 C 287.7 59.0 287.5 58.8 287.3 58.6 C 287.0 58.4 286.3 58.3 286.1 58.4 C 285.9 58.6 285.7 58.9 285.4 59.2 C 285.2 59.4 285.3 59.8 285.0 59.5 C 284.6 59.3 284.4 58.9 284.2 58.9 C 284.1 59.0 283.4 59.5 283.4 59.5 C 283.2 59.6 283.1 59.8 282.9 59.9 C 282.9 59.9 282.4 60.2 282.3 59.9 C 282.2 59.7 281.1 60.1 281.1 60.1 C 281.1 60.1 281.2 59.3 280.9 59.2 C 280.6 59.0 280.1 58.9 279.7 59.1 C 279.3 59.3 279.1 60.1 279.1 60.1 C 278.9 59.9 278.7 59.7 278.6 59.5 C 278.2 59.5 277.8 59.5 277.3 59.5 C 277.3 59.5 276.4 59.7 276.4 59.8 C 276.4 59.9 276.6 60.6 276.6 60.8 C 276.6 61.0 276.1 61.3 276.0 61.1 C 275.9 60.8 275.4 60.2 275.4 60.2 C 275.4 60.2 275.0 59.9 274.7 59.8 C 274.4 59.8 274.0 60.1 273.9 60.2 C 273.8 60.4 273.4 61.0 273.4 61.0 C 273.3 60.8 273.2 60.6 273.0 60.3 C 273.0 60.3 272.3 60.7 271.4 60.2 C 271.4 60.2 271.4 60.2 271.4 60.2 Z M 290.2 57.9 C 289.2 58.1 290.2 60.6 290.6 61.1 C 291.1 61.6 291.7 61.2 292.3 61.2 C 292.9 61.2 292.6 60.4 292.9 60.1 C 293.2 59.8 293.2 60.3 293.4 60.7 C 293.6 61.1 294.5 60.6 295.1 60.6 C 295.6 60.5 296.1 59.6 296.5 59.4 C 297.0 59.3 296.1 59.0 296.9 59.0 C 297.7 58.9 297.4 59.4 296.5 59.9 C 295.6 60.3 296.9 60.3 297.4 60.3 C 298.0 60.3 298.8 59.8 299.2 59.8 C 299.6 59.8 299.0 59.2 299.5 59.1 C 300.1 59.1 299.9 59.8 300.5 59.8 C 301.1 59.8 300.9 59.2 301.2 59.0 C 301.5 58.8 301.5 59.2 301.7 59.2 C 302.0 59.2 302.4 59.4 302.9 59.1 C 303.4 58.9 303.3 58.7 303.5 58.6 C 303.7 58.6 304.2 58.5 304.2 58.5 C 304.2 58.7 304.3 58.9 304.4 59.1 C 304.4 59.1 305.4 59.0 305.6 59.0 C 305.9 59.0 306.5 58.6 306.3 58.5 C 306.2 58.4 306.7 57.9 306.9 57.9 C 307.0 58.0 307.6 58.3 307.9 58.3 C 308.3 58.4 307.9 56.8 307.9 56.5 C 307.8 56.3 307.9 55.3 307.6 55.3 C 307.3 55.2 307.1 55.6 307.1 55.4 C 307.1 55.1 306.3 55.5 306.0 55.5 C 305.8 55.6 305.6 56.3 305.6 56.3 C 305.6 56.3 305.5 56.8 305.1 56.9 C 304.7 57.0 304.4 55.9 304.4 55.9 C 304.4 55.9 303.9 55.8 303.4 55.9 C 302.9 56.1 302.5 57.0 302.5 57.2 C 302.4 57.4 302.3 56.6 301.9 56.6 C 301.6 56.5 301.0 56.4 300.9 56.4 C 300.8 56.5 300.6 57.1 300.6 57.1 C 300.6 57.1 300.0 57.5 299.9 57.5 C 299.7 57.6 299.9 56.7 299.9 56.7 C 299.9 56.7 298.5 56.7 298.2 56.7 C 297.9 56.7 297.5 56.9 297.3 57.0 C 297.1 57.1 297.0 58.1 296.6 58.1 C 296.3 58.0 296.9 57.4 296.5 57.3 C 296.2 57.3 295.6 57.2 295.5 57.2 C 295.3 57.2 295.2 57.6 294.9 57.7 C 294.7 57.8 294.5 58.5 294.1 58.6 C 293.7 58.7 293.4 58.2 293.2 58.2 C 293.1 58.1 292.9 57.5 292.5 57.5 C 292.2 57.5 292.5 57.9 292.2 58.0 C 291.9 58.0 292.0 58.5 291.6 58.4 C 291.3 58.4 291.4 57.6 291.1 57.7 C 290.9 57.8 291.1 57.7 290.2 57.9 C 290.2 57.9 290.2 57.9 290.2 57.9 Z M 290.2 57.9 " fill="#C03520"></path></g></svg>