<?xml version="1.0" encoding="UTF-8" standalone="no"?><svg xmlns="http://www.w3.org/2000/svg" xmlns:xlink="http://www.w3.org/1999/xlink" clip-rule="evenodd" stroke-miterlimit="4.00" viewBox="0 0 466 30"><desc>SVG generated by Keynote</desc><defs></defs><g transform="matrix(1.00, 0.00, -0.00, -1.00, 0.0, 30.0)"><text xml:space="preserve" font-family="Courier" font-size="30.0" fill="#000000" transform="matrix(1.00, 0.00, -0.00, -1.00, 1.0, 8.0)">v</text><text xml:space="preserve" font-family="Courier" font-size="30.0" fill="#000000" transform="matrix(1.00, 0.00, -0.00, -1.00, 19.0, 8.0)"> </text><text xml:space="preserve" font-family="Courier" font-size="30.0" fill="#797979" transform="matrix(1.00, 0.00, -0.00, -1.00, 37.0, 8.0)">=</text><text xml:space="preserve" font-family="Courier" font-size="30.0" fill="#000000" transform="matrix(1.00, 0.00, -0.00, -1.00, 55.0, 8.0)"> </text><text xml:space="preserve" font-family="Courier" font-size="30.0" fill="#000000" transform="matrix(1.00, 0.00, -0.00, -1.00, 73.0, 8.0)">f</text><text xml:space="preserve" font-family="Courier" font-size="30.0" fill="#000000" transform="matrix(1.00, 0.00, -0.00, -1.00, 91.0, 8.0)">u</text><text xml:space="preserve" font-family="Courier" font-size="30.0" fill="#000000" transform="matrix(1.00, 0.00, -0.00, -1.00, 109.0, 8.0)">n</text><text xml:space="preserve" font-family="Courier" font-size="30.0" fill="#000000" transform="matrix(1.00, 0.00, -0.00, -1.00, 127.0, 8.0)">c</text><text xml:space="preserve" font-family="Courier" font-size="30.0" fill="#000000" transform="matrix(1.00, 0.00, -0.00, -1.00, 145.0, 8.0)">t</text><text xml:space="preserve" font-family="Courier" font-size="30.0" fill="#000000" transform="matrix(1.00, 0.00, -0.00, -1.00, 163.0, 8.0)">i</text><text xml:space="preserve" font-family="Courier" font-size="30.0" fill="#000000" transform="matrix(1.00, 0.00, -0.00, -1.00, 181.1, 8.0)">o</text><text xml:space="preserve" font-family="Courier" font-size="30.0" fill="#000000" transform="matrix(1.00, 0.00, -0.00, -1.00, 199.1, 8.0)">n</text><text xml:space="preserve" font-family="Courier" font-size="30.0" fill="#000000" transform="matrix(1.00, 0.00, -0.00, -1.00, 217.1, 8.0)">N</text><text xml:space="preserve" font-family="Courier" font-size="30.0" fill="#000000" transform="matrix(1.00, 0.00, -0.00, -1.00, 235.1, 8.0)">a</text><text xml:space="preserve" font-family="Courier" font-size="30.0" fill="#000000" transform="matrix(1.00, 0.00, -0.00, -1.00, 253.1, 8.0)">m</text><text xml:space="preserve" font-family="Courier" font-size="30.0" fill="#000000" transform="matrix(1.00, 0.00, -0.00, -1.00, 271.1, 8.0)">e</text><text xml:space="preserve" font-family="Courier" font-size="30.0" fill="#000000" transform="matrix(1.00, 0.00, -0.00, -1.00, 289.1, 8.0)">(</text><text xml:space="preserve" font-family="Courier" font-size="30.0" fill="#000000" transform="matrix(1.00, 0.00, -0.00, -1.00, 307.1, 8.0)">x</text><text xml:space="preserve" font-family="Courier" font-size="30.0" fill="#000000" transform="matrix(1.00, 0.00, -0.00, -1.00, 325.1, 8.0)">1</text><text xml:space="preserve" font-family="Courier" font-size="30.0" fill="#000000" transform="matrix(1.00, 0.00, -0.00, -1.00, 343.1, 8.0)">,</text><text xml:space="preserve" font-family="Courier" font-size="30.0" fill="#000000" transform="matrix(1.00, 0.00, -0.00, -1.00, 361.1, 8.0)">x</text><text xml:space="preserve" font-family="Courier" font-size="30.0" fill="#000000" transform="matrix(1.00, 0.00, -0.00, -1.00, 379.1, 8.0)">2</text><text xml:space="preserve" font-family="Courier" font-size="30.0" fill="#000000" transform="matrix(1.00, 0.00, -0.00, -1.00, 397.1, 8.0)">,</text><text xml:space="preserve" font-family="Courier" font-size="30.0" fill="#000000" transform="matrix(1.00, 0.00, -0.00, -1.00, 415.1, 8.0)">x</text><text xml:space="preserve" font-family="Courier" font-size="30.0" fill="#000000" transform="matrix(1.00, 0.00, -0.00, -1.00, 433.1, 8.0)">3</text><text xml:space="preserve" font-family="Courier" font-size="30.0" fill="#000000" transform="matrix(1.00, 0.00, -0.00, -1.00, 451.1, 8.0)">)</text></g></svg>