<?xml version="1.0" encoding="UTF-8" standalone="no"?><svg xmlns="http://www.w3.org/2000/svg" xmlns:xlink="http://www.w3.org/1999/xlink" clip-rule="evenodd" stroke-miterlimit="4.00" viewBox="0 0 808 458"><desc>SVG generated by Keynote</desc><defs></defs><g transform="matrix(1.00, 0.00, -0.00, -1.00, 0.0, 458.0)"><path d="M 23.4 431.0 L 784.6 431.0 L 784.6 25.0 L 23.4 25.0 Z M 23.4 431.0 " fill="#FEFFFE"></path><image xlink:href="../../94E76B92-E696-401A-AEEF-F444F6DA525E/assets/1E841A178BE0349AA6D0CA7C1E7C6B8C.png" width="805.00" height="456.00" transform="matrix(1.00, 0.00, -0.00, 1.00, 1.4, 1.0)"></image><g><clipPath id="clip-224"><path d="M 20.9 22.5 L 1524.3 22.5 L 1524.3 433.5 L 20.9 433.5 Z M 20.9 22.5 "></path></clipPath><g clip-path="url(#clip-224)"><text xml:space="preserve" font-family="Courier-Bold" font-weight="bold" font-size="30.0" fill="#008E00" transform="matrix(1.00, 0.00, -0.00, -1.00, 58.0, 397.0)">d</text><text xml:space="preserve" font-family="Courier-Bold" font-weight="bold" font-size="30.0" fill="#008E00" transform="matrix(1.00, 0.00, -0.00, -1.00, 76.0, 397.0)">e</text><text xml:space="preserve" font-family="Courier-Bold" font-weight="bold" font-size="30.0" fill="#008E00" transform="matrix(1.00, 0.00, -0.00, -1.00, 94.0, 397.0)">f</text><text xml:space="preserve" font-family="Courier" font-size="30.0" fill="#000000" transform="matrix(1.00, 0.00, -0.00, -1.00, 112.0, 397.0)"> </text><text xml:space="preserve" font-family="Courier" font-size="30.0" fill="#0432FF" transform="matrix(1.00, 0.00, -0.00, -1.00, 130.0, 397.0)">f</text><text xml:space="preserve" font-family="Courier" font-size="30.0" fill="#0432FF" transform="matrix(1.00, 0.00, -0.00, -1.00, 148.0, 397.0)">u</text><text xml:space="preserve" font-family="Courier" font-size="30.0" fill="#0432FF" transform="matrix(1.00, 0.00, -0.00, -1.00, 166.0, 397.0)">n</text><text xml:space="preserve" font-family="Courier" font-size="30.0" fill="#0432FF" transform="matrix(1.00, 0.00, -0.00, -1.00, 184.0, 397.0)">c</text><text xml:space="preserve" font-family="Courier" font-size="30.0" fill="#0432FF" transform="matrix(1.00, 0.00, -0.00, -1.00, 202.0, 397.0)">t</text><text xml:space="preserve" font-family="Courier" font-size="30.0" fill="#0432FF" transform="matrix(1.00, 0.00, -0.00, -1.00, 220.0, 397.0)">i</text><text xml:space="preserve" font-family="Courier" font-size="30.0" fill="#0432FF" transform="matrix(1.00, 0.00, -0.00, -1.00, 238.0, 397.0)">o</text><text xml:space="preserve" font-family="Courier" font-size="30.0" fill="#0432FF" transform="matrix(1.00, 0.00, -0.00, -1.00, 256.1, 397.0)">n</text><text xml:space="preserve" font-family="Courier" font-size="30.0" fill="#0432FF" transform="matrix(1.00, 0.00, -0.00, -1.00, 274.1, 397.0)">N</text><text xml:space="preserve" font-family="Courier" font-size="30.0" fill="#0432FF" transform="matrix(1.00, 0.00, -0.00, -1.00, 292.1, 397.0)">a</text><text xml:space="preserve" font-family="Courier" font-size="30.0" fill="#0432FF" transform="matrix(1.00, 0.00, -0.00, -1.00, 310.1, 397.0)">m</text><text xml:space="preserve" font-family="Courier" font-size="30.0" fill="#0432FF" transform="matrix(1.00, 0.00, -0.00, -1.00, 328.1, 397.0)">e</text><text xml:space="preserve" font-family="Courier" font-size="30.0" fill="#000000" transform="matrix(1.00, 0.00, -0.00, -1.00, 346.0, 397.0)">(</text><text xml:space="preserve" font-family="Courier" font-size="30.0" fill="#000000" transform="matrix(1.00, 0.00, -0.00, -1.00, 364.1, 397.0)">a</text><text xml:space="preserve" font-family="Courier" font-size="30.0" fill="#000000" transform="matrix(1.00, 0.00, -0.00, -1.00, 382.1, 397.0)">r</text><text xml:space="preserve" font-family="Courier" font-size="30.0" fill="#000000" transform="matrix(1.00, 0.00, -0.00, -1.00, 400.1, 397.0)">g</text><text xml:space="preserve" font-family="Courier" font-size="30.0" fill="#000000" transform="matrix(1.00, 0.00, -0.00, -1.00, 418.1, 397.0)">1</text><text xml:space="preserve" font-family="Courier" font-size="30.0" fill="#000000" transform="matrix(1.00, 0.00, -0.00, -1.00, 436.1, 397.0)">,</text><text xml:space="preserve" font-family="Courier" font-size="30.0" fill="#000000" transform="matrix(1.00, 0.00, -0.00, -1.00, 454.1, 397.0)"> </text><text xml:space="preserve" font-family="Courier" font-size="30.0" fill="#000000" transform="matrix(1.00, 0.00, -0.00, -1.00, 472.1, 397.0)">a</text><text xml:space="preserve" font-family="Courier" font-size="30.0" fill="#000000" transform="matrix(1.00, 0.00, -0.00, -1.00, 490.1, 397.0)">r</text><text xml:space="preserve" font-family="Courier" font-size="30.0" fill="#000000" transform="matrix(1.00, 0.00, -0.00, -1.00, 508.1, 397.0)">g</text><text xml:space="preserve" font-family="Courier" font-size="30.0" fill="#000000" transform="matrix(1.00, 0.00, -0.00, -1.00, 526.1, 397.0)">2</text><text xml:space="preserve" font-family="Courier" font-size="30.0" fill="#000000" transform="matrix(1.00, 0.00, -0.00, -1.00, 544.1, 397.0)">,</text><text xml:space="preserve" font-family="Courier" font-size="30.0" fill="#000000" transform="matrix(1.00, 0.00, -0.00, -1.00, 562.1, 397.0)"> </text><text xml:space="preserve" font-family="Courier" font-size="30.0" fill="#000000" transform="matrix(1.00, 0.00, -0.00, -1.00, 580.1, 397.0)">a</text><text xml:space="preserve" font-family="Courier" font-size="30.0" fill="#000000" transform="matrix(1.00, 0.00, -0.00, -1.00, 598.1, 397.0)">r</text><text xml:space="preserve" font-family="Courier" font-size="30.0" fill="#000000" transform="matrix(1.00, 0.00, -0.00, -1.00, 616.1, 397.0)">g</text><text xml:space="preserve" font-family="Courier" font-size="30.0" fill="#000000" transform="matrix(1.00, 0.00, -0.00, -1.00, 634.1, 397.0)">3</text><text xml:space="preserve" font-family="Courier" font-size="30.0" fill="#000000" transform="matrix(1.00, 0.00, -0.00, -1.00, 652.1, 397.0)">)</text><text xml:space="preserve" font-family="Courier" font-size="30.0" fill="#000000" transform="matrix(1.00, 0.00, -0.00, -1.00, 670.2, 397.0)">:</text><text xml:space="preserve" font-family="Courier" font-size="30.0" fill="#000000" transform="matrix(1.00, 0.00, -0.00, -1.00, 58.0, 361.0)"> </text><text xml:space="preserve" font-family="Courier" font-size="30.0" fill="#000000" transform="matrix(1.00, 0.00, -0.00, -1.00, 76.0, 361.0)"> </text><text xml:space="preserve" font-family="Courier" font-size="30.0" fill="#000000" transform="matrix(1.00, 0.00, -0.00, -1.00, 94.0, 361.0)"> </text><text xml:space="preserve" font-family="Courier" font-size="30.0" fill="#000000" transform="matrix(1.00, 0.00, -0.00, -1.00, 112.0, 361.0)"> </text><text xml:space="preserve" font-family="Courier" font-size="30.0" fill="#000000" transform="matrix(1.00, 0.00, -0.00, -1.00, 58.0, 325.0)"> </text><text xml:space="preserve" font-family="Courier" font-size="30.0" fill="#000000" transform="matrix(1.00, 0.00, -0.00, -1.00, 76.0, 325.0)"> </text><text xml:space="preserve" font-family="Courier" font-size="30.0" fill="#000000" transform="matrix(1.00, 0.00, -0.00, -1.00, 94.0, 325.0)"> </text><text xml:space="preserve" font-family="Courier" font-size="30.0" fill="#000000" transform="matrix(1.00, 0.00, -0.00, -1.00, 112.0, 325.0)"> </text><text xml:space="preserve" font-family="Courier" font-size="30.0" fill="#000000" transform="matrix(1.00, 0.00, -0.00, -1.00, 130.0, 325.0)">s</text><text xml:space="preserve" font-family="Courier" font-size="30.0" fill="#000000" transform="matrix(1.00, 0.00, -0.00, -1.00, 148.0, 325.0)">o</text><text xml:space="preserve" font-family="Courier" font-size="30.0" fill="#000000" transform="matrix(1.00, 0.00, -0.00, -1.00, 166.0, 325.0)">m</text><text xml:space="preserve" font-family="Courier" font-size="30.0" fill="#000000" transform="matrix(1.00, 0.00, -0.00, -1.00, 184.0, 325.0)">e</text><text xml:space="preserve" font-family="Courier" font-size="30.0" fill="#000000" transform="matrix(1.00, 0.00, -0.00, -1.00, 202.0, 325.0)">V</text><text xml:space="preserve" font-family="Courier" font-size="30.0" fill="#000000" transform="matrix(1.00, 0.00, -0.00, -1.00, 220.1, 325.0)">a</text><text xml:space="preserve" font-family="Courier" font-size="30.0" fill="#000000" transform="matrix(1.00, 0.00, -0.00, -1.00, 238.1, 325.0)">l</text><text xml:space="preserve" font-family="Courier" font-size="30.0" fill="#000000" transform="matrix(1.00, 0.00, -0.00, -1.00, 256.1, 325.0)">u</text><text xml:space="preserve" font-family="Courier" font-size="30.0" fill="#000000" transform="matrix(1.00, 0.00, -0.00, -1.00, 274.1, 325.0)">e</text><text xml:space="preserve" font-family="Courier" font-size="30.0" fill="#000000" transform="matrix(1.00, 0.00, -0.00, -1.00, 292.1, 325.0)"> </text><text xml:space="preserve" font-family="Courier" font-size="30.0" fill="#797979" transform="matrix(1.00, 0.00, -0.00, -1.00, 310.0, 325.0)">=</text><text xml:space="preserve" font-family="Courier" font-size="30.0" fill="#000000" transform="matrix(1.00, 0.00, -0.00, -1.00, 328.0, 325.0)"> </text><text xml:space="preserve" font-family="Courier" font-size="30.0" fill="#797979" transform="matrix(1.00, 0.00, -0.00, -1.00, 346.0, 325.0)">.</text><text xml:space="preserve" font-family="Courier" font-size="30.0" fill="#797979" transform="matrix(1.00, 0.00, -0.00, -1.00, 364.1, 325.0)">.</text><text xml:space="preserve" font-family="Courier" font-size="30.0" fill="#797979" transform="matrix(1.00, 0.00, -0.00, -1.00, 382.1, 325.0)">.</text><text xml:space="preserve" font-family="Courier" font-size="30.0" fill="#000000" transform="matrix(1.00, 0.00, -0.00, -1.00, 400.1, 325.0)"> </text><text xml:space="preserve" font-family="Courier-Oblique" font-style="italic" font-size="30.0" fill="#4E9192" transform="matrix(1.00, 0.00, -0.00, -1.00, 418.1, 325.0)">#</text><text xml:space="preserve" font-family="Courier-Oblique" font-style="italic" font-size="30.0" fill="#4E9192" transform="matrix(1.00, 0.00, -0.00, -1.00, 436.1, 325.0)"> </text><text xml:space="preserve" font-family="Courier-Oblique" font-style="italic" font-size="30.0" fill="#4E9192" transform="matrix(1.00, 0.00, -0.00, -1.00, 454.1, 325.0)">M</text><text xml:space="preserve" font-family="Courier-Oblique" font-style="italic" font-size="30.0" fill="#4E9192" transform="matrix(1.00, 0.00, -0.00, -1.00, 472.1, 325.0)">a</text><text xml:space="preserve" font-family="Courier-Oblique" font-style="italic" font-size="30.0" fill="#4E9192" transform="matrix(1.00, 0.00, -0.00, -1.00, 490.1, 325.0)">k</text><text xml:space="preserve" font-family="Courier-Oblique" font-style="italic" font-size="30.0" fill="#4E9192" transform="matrix(1.00, 0.00, -0.00, -1.00, 508.1, 325.0)">e</text><text xml:space="preserve" font-family="Courier-Oblique" font-style="italic" font-size="30.0" fill="#4E9192" transform="matrix(1.00, 0.00, -0.00, -1.00, 526.1, 325.0)"> </text><text xml:space="preserve" font-family="Courier-Oblique" font-style="italic" font-size="30.0" fill="#4E9192" transform="matrix(1.00, 0.00, -0.00, -1.00, 544.1, 325.0)">i</text><text xml:space="preserve" font-family="Courier-Oblique" font-style="italic" font-size="30.0" fill="#4E9192" transform="matrix(1.00, 0.00, -0.00, -1.00, 562.1, 325.0)">t</text><text xml:space="preserve" font-family="Courier-Oblique" font-style="italic" font-size="30.0" fill="#4E9192" transform="matrix(1.00, 0.00, -0.00, -1.00, 580.1, 325.0)"> </text><text xml:space="preserve" font-family="Courier-Oblique" font-style="italic" font-size="30.0" fill="#4E9192" transform="matrix(1.00, 0.00, -0.00, -1.00, 598.1, 325.0)">s</text><text xml:space="preserve" font-family="Courier-Oblique" font-style="italic" font-size="30.0" fill="#4E9192" transform="matrix(1.00, 0.00, -0.00, -1.00, 616.1, 325.0)">o</text><text xml:space="preserve" font-family="Courier-Oblique" font-style="italic" font-size="30.0" fill="#4E9192" transform="matrix(1.00, 0.00, -0.00, -1.00, 634.1, 325.0)">m</text><text xml:space="preserve" font-family="Courier-Oblique" font-style="italic" font-size="30.0" fill="#4E9192" transform="matrix(1.00, 0.00, -0.00, -1.00, 652.1, 325.0)">e</text><text xml:space="preserve" font-family="Courier-Oblique" font-style="italic" font-size="30.0" fill="#4E9192" transform="matrix(1.00, 0.00, -0.00, -1.00, 670.1, 325.0)">t</text><text xml:space="preserve" font-family="Courier-Oblique" font-style="italic" font-size="30.0" fill="#4E9192" transform="matrix(1.00, 0.00, -0.00, -1.00, 688.1, 325.0)">h</text><text xml:space="preserve" font-family="Courier-Oblique" font-style="italic" font-size="30.0" fill="#4E9192" transform="matrix(1.00, 0.00, -0.00, -1.00, 706.2, 325.0)">i</text><text xml:space="preserve" font-family="Courier-Oblique" font-style="italic" font-size="30.0" fill="#4E9192" transform="matrix(1.00, 0.00, -0.00, -1.00, 724.2, 325.0)">n</text><text xml:space="preserve" font-family="Courier-Oblique" font-style="italic" font-size="30.0" fill="#4E9192" transform="matrix(1.00, 0.00, -0.00, -1.00, 742.2, 325.0)">g</text><text xml:space="preserve" font-family="Courier" font-size="30.0" fill="#000000" transform="matrix(1.00, 0.00, -0.00, -1.00, 58.0, 253.0)"> </text><text xml:space="preserve" font-family="Courier" font-size="30.0" fill="#000000" transform="matrix(1.00, 0.00, -0.00, -1.00, 76.0, 253.0)"> </text><text xml:space="preserve" font-family="Courier" font-size="30.0" fill="#000000" transform="matrix(1.00, 0.00, -0.00, -1.00, 94.0, 253.0)"> </text><text xml:space="preserve" font-family="Courier" font-size="30.0" fill="#000000" transform="matrix(1.00, 0.00, -0.00, -1.00, 112.0, 253.0)"> </text><text xml:space="preserve" font-family="Courier-Oblique" font-style="italic" font-size="30.0" fill="#4E9192" transform="matrix(1.00, 0.00, -0.00, -1.00, 130.0, 253.0)">#</text><text xml:space="preserve" font-family="Courier-Oblique" font-style="italic" font-size="30.0" fill="#4E9192" transform="matrix(1.00, 0.00, -0.00, -1.00, 148.0, 253.0)"> </text><text xml:space="preserve" font-family="Courier-Oblique" font-style="italic" font-size="30.0" fill="#4E9192" transform="matrix(1.00, 0.00, -0.00, -1.00, 166.0, 253.0)">S</text><text xml:space="preserve" font-family="Courier-Oblique" font-style="italic" font-size="30.0" fill="#4E9192" transform="matrix(1.00, 0.00, -0.00, -1.00, 184.0, 253.0)">o</text><text xml:space="preserve" font-family="Courier-Oblique" font-style="italic" font-size="30.0" fill="#4E9192" transform="matrix(1.00, 0.00, -0.00, -1.00, 202.0, 253.0)">m</text><text xml:space="preserve" font-family="Courier-Oblique" font-style="italic" font-size="30.0" fill="#4E9192" transform="matrix(1.00, 0.00, -0.00, -1.00, 220.0, 253.0)">e</text><text xml:space="preserve" font-family="Courier-Oblique" font-style="italic" font-size="30.0" fill="#4E9192" transform="matrix(1.00, 0.00, -0.00, -1.00, 238.0, 253.0)"> </text><text xml:space="preserve" font-family="Courier-Oblique" font-style="italic" font-size="30.0" fill="#4E9192" transform="matrix(1.00, 0.00, -0.00, -1.00, 256.1, 253.0)">c</text><text xml:space="preserve" font-family="Courier-Oblique" font-style="italic" font-size="30.0" fill="#4E9192" transform="matrix(1.00, 0.00, -0.00, -1.00, 274.1, 253.0)">o</text><text xml:space="preserve" font-family="Courier-Oblique" font-style="italic" font-size="30.0" fill="#4E9192" transform="matrix(1.00, 0.00, -0.00, -1.00, 292.1, 253.0)">d</text><text xml:space="preserve" font-family="Courier-Oblique" font-style="italic" font-size="30.0" fill="#4E9192" transform="matrix(1.00, 0.00, -0.00, -1.00, 310.1, 253.0)">e</text><text xml:space="preserve" font-family="Courier-Oblique" font-style="italic" font-size="30.0" fill="#4E9192" transform="matrix(1.00, 0.00, -0.00, -1.00, 328.1, 253.0)"> </text><text xml:space="preserve" font-family="Courier-Oblique" font-style="italic" font-size="30.0" fill="#4E9192" transform="matrix(1.00, 0.00, -0.00, -1.00, 346.1, 253.0)">w</text><text xml:space="preserve" font-family="Courier-Oblique" font-style="italic" font-size="30.0" fill="#4E9192" transform="matrix(1.00, 0.00, -0.00, -1.00, 364.1, 253.0)">i</text><text xml:space="preserve" font-family="Courier-Oblique" font-style="italic" font-size="30.0" fill="#4E9192" transform="matrix(1.00, 0.00, -0.00, -1.00, 382.1, 253.0)">t</text><text xml:space="preserve" font-family="Courier-Oblique" font-style="italic" font-size="30.0" fill="#4E9192" transform="matrix(1.00, 0.00, -0.00, -1.00, 400.1, 253.0)">h</text><text xml:space="preserve" font-family="Courier-Oblique" font-style="italic" font-size="30.0" fill="#4E9192" transform="matrix(1.00, 0.00, -0.00, -1.00, 418.1, 253.0)"> </text><text xml:space="preserve" font-family="Courier-Oblique" font-style="italic" font-size="30.0" fill="#4E9192" transform="matrix(1.00, 0.00, -0.00, -1.00, 436.1, 253.0)">s</text><text xml:space="preserve" font-family="Courier-Oblique" font-style="italic" font-size="30.0" fill="#4E9192" transform="matrix(1.00, 0.00, -0.00, -1.00, 454.1, 253.0)">o</text><text xml:space="preserve" font-family="Courier-Oblique" font-style="italic" font-size="30.0" fill="#4E9192" transform="matrix(1.00, 0.00, -0.00, -1.00, 472.1, 253.0)">m</text><text xml:space="preserve" font-family="Courier-Oblique" font-style="italic" font-size="30.0" fill="#4E9192" transform="matrix(1.00, 0.00, -0.00, -1.00, 490.1, 253.0)">e</text><text xml:space="preserve" font-family="Courier-Oblique" font-style="italic" font-size="30.0" fill="#4E9192" transform="matrix(1.00, 0.00, -0.00, -1.00, 508.1, 253.0)">V</text><text xml:space="preserve" font-family="Courier-Oblique" font-style="italic" font-size="30.0" fill="#4E9192" transform="matrix(1.00, 0.00, -0.00, -1.00, 526.1, 253.0)">a</text><text xml:space="preserve" font-family="Courier-Oblique" font-style="italic" font-size="30.0" fill="#4E9192" transform="matrix(1.00, 0.00, -0.00, -1.00, 544.1, 253.0)">l</text><text xml:space="preserve" font-family="Courier-Oblique" font-style="italic" font-size="30.0" fill="#4E9192" transform="matrix(1.00, 0.00, -0.00, -1.00, 562.2, 253.0)">u</text><text xml:space="preserve" font-family="Courier-Oblique" font-style="italic" font-size="30.0" fill="#4E9192" transform="matrix(1.00, 0.00, -0.00, -1.00, 580.2, 253.0)">e</text><text xml:space="preserve" font-family="Courier" font-size="30.0" fill="#000000" transform="matrix(1.00, 0.00, -0.00, -1.00, 58.0, 217.0)"> </text><text xml:space="preserve" font-family="Courier" font-size="30.0" fill="#000000" transform="matrix(1.00, 0.00, -0.00, -1.00, 76.0, 217.0)"> </text><text xml:space="preserve" font-family="Courier" font-size="30.0" fill="#000000" transform="matrix(1.00, 0.00, -0.00, -1.00, 94.0, 217.0)"> </text><text xml:space="preserve" font-family="Courier" font-size="30.0" fill="#000000" transform="matrix(1.00, 0.00, -0.00, -1.00, 112.0, 217.0)"> </text><text xml:space="preserve" font-family="Courier-Oblique" font-style="italic" font-size="30.0" fill="#4E9192" transform="matrix(1.00, 0.00, -0.00, -1.00, 130.0, 217.0)">#</text><text xml:space="preserve" font-family="Courier-Oblique" font-style="italic" font-size="30.0" fill="#4E9192" transform="matrix(1.00, 0.00, -0.00, -1.00, 148.0, 217.0)"> </text><text xml:space="preserve" font-family="Courier-Oblique" font-style="italic" font-size="30.0" fill="#4E9192" transform="matrix(1.00, 0.00, -0.00, -1.00, 166.0, 217.0)">u</text><text xml:space="preserve" font-family="Courier-Oblique" font-style="italic" font-size="30.0" fill="#4E9192" transform="matrix(1.00, 0.00, -0.00, -1.00, 184.0, 217.0)">s</text><text xml:space="preserve" font-family="Courier-Oblique" font-style="italic" font-size="30.0" fill="#4E9192" transform="matrix(1.00, 0.00, -0.00, -1.00, 202.0, 217.0)">i</text><text xml:space="preserve" font-family="Courier-Oblique" font-style="italic" font-size="30.0" fill="#4E9192" transform="matrix(1.00, 0.00, -0.00, -1.00, 220.0, 217.0)">n</text><text xml:space="preserve" font-family="Courier-Oblique" font-style="italic" font-size="30.0" fill="#4E9192" transform="matrix(1.00, 0.00, -0.00, -1.00, 238.0, 217.0)">g</text><text xml:space="preserve" font-family="Courier-Oblique" font-style="italic" font-size="30.0" fill="#4E9192" transform="matrix(1.00, 0.00, -0.00, -1.00, 256.1, 217.0)"> </text><text xml:space="preserve" font-family="Courier-Oblique" font-style="italic" font-size="30.0" fill="#4E9192" transform="matrix(1.00, 0.00, -0.00, -1.00, 274.1, 217.0)">a</text><text xml:space="preserve" font-family="Courier-Oblique" font-style="italic" font-size="30.0" fill="#4E9192" transform="matrix(1.00, 0.00, -0.00, -1.00, 292.1, 217.0)">r</text><text xml:space="preserve" font-family="Courier-Oblique" font-style="italic" font-size="30.0" fill="#4E9192" transform="matrix(1.00, 0.00, -0.00, -1.00, 310.1, 217.0)">g</text><text xml:space="preserve" font-family="Courier-Oblique" font-style="italic" font-size="30.0" fill="#4E9192" transform="matrix(1.00, 0.00, -0.00, -1.00, 328.1, 217.0)">1</text><text xml:space="preserve" font-family="Courier-Oblique" font-style="italic" font-size="30.0" fill="#4E9192" transform="matrix(1.00, 0.00, -0.00, -1.00, 346.1, 217.0)">,</text><text xml:space="preserve" font-family="Courier-Oblique" font-style="italic" font-size="30.0" fill="#4E9192" transform="matrix(1.00, 0.00, -0.00, -1.00, 364.1, 217.0)"> </text><text xml:space="preserve" font-family="Courier-Oblique" font-style="italic" font-size="30.0" fill="#4E9192" transform="matrix(1.00, 0.00, -0.00, -1.00, 382.1, 217.0)">a</text><text xml:space="preserve" font-family="Courier-Oblique" font-style="italic" font-size="30.0" fill="#4E9192" transform="matrix(1.00, 0.00, -0.00, -1.00, 400.1, 217.0)">r</text><text xml:space="preserve" font-family="Courier-Oblique" font-style="italic" font-size="30.0" fill="#4E9192" transform="matrix(1.00, 0.00, -0.00, -1.00, 418.1, 217.0)">g</text><text xml:space="preserve" font-family="Courier-Oblique" font-style="italic" font-size="30.0" fill="#4E9192" transform="matrix(1.00, 0.00, -0.00, -1.00, 436.1, 217.0)">2</text><text xml:space="preserve" font-family="Courier-Oblique" font-style="italic" font-size="30.0" fill="#4E9192" transform="matrix(1.00, 0.00, -0.00, -1.00, 454.1, 217.0)">,</text><text xml:space="preserve" font-family="Courier-Oblique" font-style="italic" font-size="30.0" fill="#4E9192" transform="matrix(1.00, 0.00, -0.00, -1.00, 472.1, 217.0)"> </text><text xml:space="preserve" font-family="Courier-Oblique" font-style="italic" font-size="30.0" fill="#4E9192" transform="matrix(1.00, 0.00, -0.00, -1.00, 490.1, 217.0)">a</text><text xml:space="preserve" font-family="Courier-Oblique" font-style="italic" font-size="30.0" fill="#4E9192" transform="matrix(1.00, 0.00, -0.00, -1.00, 508.1, 217.0)">r</text><text xml:space="preserve" font-family="Courier-Oblique" font-style="italic" font-size="30.0" fill="#4E9192" transform="matrix(1.00, 0.00, -0.00, -1.00, 526.1, 217.0)">g</text><text xml:space="preserve" font-family="Courier-Oblique" font-style="italic" font-size="30.0" fill="#4E9192" transform="matrix(1.00, 0.00, -0.00, -1.00, 544.1, 217.0)">3</text><text xml:space="preserve" font-family="Courier-Oblique" font-style="italic" font-size="30.0" fill="#4E9192" transform="matrix(1.00, 0.00, -0.00, -1.00, 562.2, 217.0)"> </text><text xml:space="preserve" font-family="Courier-Oblique" font-style="italic" font-size="30.0" fill="#4E9192" transform="matrix(1.00, 0.00, -0.00, -1.00, 580.2, 217.0)">(</text><text xml:space="preserve" font-family="Courier-Oblique" font-style="italic" font-size="30.0" fill="#4E9192" transform="matrix(1.00, 0.00, -0.00, -1.00, 598.2, 217.0)">o</text><text xml:space="preserve" font-family="Courier-Oblique" font-style="italic" font-size="30.0" fill="#4E9192" transform="matrix(1.00, 0.00, -0.00, -1.00, 616.2, 217.0)">r</text><text xml:space="preserve" font-family="Courier-Oblique" font-style="italic" font-size="30.0" fill="#4E9192" transform="matrix(1.00, 0.00, -0.00, -1.00, 634.2, 217.0)"> </text><text xml:space="preserve" font-family="Courier-Oblique" font-style="italic" font-size="30.0" fill="#4E9192" transform="matrix(1.00, 0.00, -0.00, -1.00, 652.2, 217.0)">n</text><text xml:space="preserve" font-family="Courier-Oblique" font-style="italic" font-size="30.0" fill="#4E9192" transform="matrix(1.00, 0.00, -0.00, -1.00, 670.2, 217.0)">o</text><text xml:space="preserve" font-family="Courier-Oblique" font-style="italic" font-size="30.0" fill="#4E9192" transform="matrix(1.00, 0.00, -0.00, -1.00, 688.2, 217.0)">t</text><text xml:space="preserve" font-family="Courier-Oblique" font-style="italic" font-size="30.0" fill="#4E9192" transform="matrix(1.00, 0.00, -0.00, -1.00, 706.2, 217.0)">!</text><text xml:space="preserve" font-family="Courier-Oblique" font-style="italic" font-size="30.0" fill="#4E9192" transform="matrix(1.00, 0.00, -0.00, -1.00, 724.2, 217.0)">)</text><text xml:space="preserve" font-family="Courier" font-size="30.0" fill="#000000" transform="matrix(1.00, 0.00, -0.00, -1.00, 58.0, 181.0)"> </text><text xml:space="preserve" font-family="Courier" font-size="30.0" fill="#000000" transform="matrix(1.00, 0.00, -0.00, -1.00, 76.0, 181.0)"> </text><text xml:space="preserve" font-family="Courier" font-size="30.0" fill="#000000" transform="matrix(1.00, 0.00, -0.00, -1.00, 94.0, 181.0)"> </text><text xml:space="preserve" font-family="Courier" font-size="30.0" fill="#000000" transform="matrix(1.00, 0.00, -0.00, -1.00, 112.0, 181.0)"> </text><text xml:space="preserve" font-family="Courier-Oblique" font-style="italic" font-size="30.0" fill="#4E9192" transform="matrix(1.00, 0.00, -0.00, -1.00, 130.0, 181.0)">#</text><text xml:space="preserve" font-family="Courier" font-size="30.0" fill="#000000" transform="matrix(1.00, 0.00, -0.00, -1.00, 58.0, 145.0)"> </text><text xml:space="preserve" font-family="Courier" font-size="30.0" fill="#000000" transform="matrix(1.00, 0.00, -0.00, -1.00, 76.0, 145.0)"> </text><text xml:space="preserve" font-family="Courier" font-size="30.0" fill="#000000" transform="matrix(1.00, 0.00, -0.00, -1.00, 94.0, 145.0)"> </text><text xml:space="preserve" font-family="Courier" font-size="30.0" fill="#000000" transform="matrix(1.00, 0.00, -0.00, -1.00, 112.0, 145.0)"> </text><text xml:space="preserve" font-family="Courier-Oblique" font-style="italic" font-size="30.0" fill="#4E9192" transform="matrix(1.00, 0.00, -0.00, -1.00, 130.0, 145.0)">#</text><text xml:space="preserve" font-family="Courier-Oblique" font-style="italic" font-size="30.0" fill="#4E9192" transform="matrix(1.00, 0.00, -0.00, -1.00, 148.0, 145.0)"> </text><text xml:space="preserve" font-family="Courier-Oblique" font-style="italic" font-size="30.0" fill="#4E9192" transform="matrix(1.00, 0.00, -0.00, -1.00, 166.0, 145.0)">S</text><text xml:space="preserve" font-family="Courier-Oblique" font-style="italic" font-size="30.0" fill="#4E9192" transform="matrix(1.00, 0.00, -0.00, -1.00, 184.0, 145.0)">o</text><text xml:space="preserve" font-family="Courier-Oblique" font-style="italic" font-size="30.0" fill="#4E9192" transform="matrix(1.00, 0.00, -0.00, -1.00, 202.0, 145.0)">m</text><text xml:space="preserve" font-family="Courier-Oblique" font-style="italic" font-size="30.0" fill="#4E9192" transform="matrix(1.00, 0.00, -0.00, -1.00, 220.0, 145.0)">e</text><text xml:space="preserve" font-family="Courier-Oblique" font-style="italic" font-size="30.0" fill="#4E9192" transform="matrix(1.00, 0.00, -0.00, -1.00, 238.0, 145.0)"> </text><text xml:space="preserve" font-family="Courier-Oblique" font-style="italic" font-size="30.0" fill="#4E9192" transform="matrix(1.00, 0.00, -0.00, -1.00, 256.1, 145.0)">m</text><text xml:space="preserve" font-family="Courier-Oblique" font-style="italic" font-size="30.0" fill="#4E9192" transform="matrix(1.00, 0.00, -0.00, -1.00, 274.1, 145.0)">o</text><text xml:space="preserve" font-family="Courier-Oblique" font-style="italic" font-size="30.0" fill="#4E9192" transform="matrix(1.00, 0.00, -0.00, -1.00, 292.1, 145.0)">r</text><text xml:space="preserve" font-family="Courier-Oblique" font-style="italic" font-size="30.0" fill="#4E9192" transform="matrix(1.00, 0.00, -0.00, -1.00, 310.1, 145.0)">e</text><text xml:space="preserve" font-family="Courier-Oblique" font-style="italic" font-size="30.0" fill="#4E9192" transform="matrix(1.00, 0.00, -0.00, -1.00, 328.1, 145.0)"> </text><text xml:space="preserve" font-family="Courier-Oblique" font-style="italic" font-size="30.0" fill="#4E9192" transform="matrix(1.00, 0.00, -0.00, -1.00, 346.1, 145.0)">c</text><text xml:space="preserve" font-family="Courier-Oblique" font-style="italic" font-size="30.0" fill="#4E9192" transform="matrix(1.00, 0.00, -0.00, -1.00, 364.1, 145.0)">o</text><text xml:space="preserve" font-family="Courier-Oblique" font-style="italic" font-size="30.0" fill="#4E9192" transform="matrix(1.00, 0.00, -0.00, -1.00, 382.1, 145.0)">d</text><text xml:space="preserve" font-family="Courier-Oblique" font-style="italic" font-size="30.0" fill="#4E9192" transform="matrix(1.00, 0.00, -0.00, -1.00, 400.1, 145.0)">e</text><text xml:space="preserve" font-family="Courier" font-size="30.0" fill="#000000" transform="matrix(1.00, 0.00, -0.00, -1.00, 58.0, 73.0)"> </text><text xml:space="preserve" font-family="Courier" font-size="30.0" fill="#000000" transform="matrix(1.00, 0.00, -0.00, -1.00, 76.0, 73.0)"> </text><text xml:space="preserve" font-family="Courier" font-size="30.0" fill="#000000" transform="matrix(1.00, 0.00, -0.00, -1.00, 94.0, 73.0)"> </text><text xml:space="preserve" font-family="Courier" font-size="30.0" fill="#000000" transform="matrix(1.00, 0.00, -0.00, -1.00, 112.0, 73.0)"> </text><text xml:space="preserve" font-family="Courier-Bold" font-weight="bold" font-size="30.0" fill="#008E00" transform="matrix(1.00, 0.00, -0.00, -1.00, 130.0, 73.0)">r</text><text xml:space="preserve" font-family="Courier-Bold" font-weight="bold" font-size="30.0" fill="#008E00" transform="matrix(1.00, 0.00, -0.00, -1.00, 148.0, 73.0)">e</text><text xml:space="preserve" font-family="Courier-Bold" font-weight="bold" font-size="30.0" fill="#008E00" transform="matrix(1.00, 0.00, -0.00, -1.00, 166.0, 73.0)">t</text><text xml:space="preserve" font-family="Courier-Bold" font-weight="bold" font-size="30.0" fill="#008E00" transform="matrix(1.00, 0.00, -0.00, -1.00, 184.0, 73.0)">u</text><text xml:space="preserve" font-family="Courier-Bold" font-weight="bold" font-size="30.0" fill="#008E00" transform="matrix(1.00, 0.00, -0.00, -1.00, 202.0, 73.0)">r</text><text xml:space="preserve" font-family="Courier-Bold" font-weight="bold" font-size="30.0" fill="#008E00" transform="matrix(1.00, 0.00, -0.00, -1.00, 220.0, 73.0)">n</text><text xml:space="preserve" font-family="Courier" font-size="30.0" fill="#000000" transform="matrix(1.00, 0.00, -0.00, -1.00, 238.0, 73.0)"> </text><text xml:space="preserve" font-family="Courier" font-size="30.0" fill="#000000" transform="matrix(1.00, 0.00, -0.00, -1.00, 256.0, 73.0)">s</text><text xml:space="preserve" font-family="Courier" font-size="30.0" fill="#000000" transform="matrix(1.00, 0.00, -0.00, -1.00, 274.0, 73.0)">o</text><text xml:space="preserve" font-family="Courier" font-size="30.0" fill="#000000" transform="matrix(1.00, 0.00, -0.00, -1.00, 292.0, 73.0)">m</text><text xml:space="preserve" font-family="Courier" font-size="30.0" fill="#000000" transform="matrix(1.00, 0.00, -0.00, -1.00, 310.1, 73.0)">e</text><text xml:space="preserve" font-family="Courier" font-size="30.0" fill="#000000" transform="matrix(1.00, 0.00, -0.00, -1.00, 328.1, 73.0)">V</text><text xml:space="preserve" font-family="Courier" font-size="30.0" fill="#000000" transform="matrix(1.00, 0.00, -0.00, -1.00, 346.1, 73.0)">a</text><text xml:space="preserve" font-family="Courier" font-size="30.0" fill="#000000" transform="matrix(1.00, 0.00, -0.00, -1.00, 364.1, 73.0)">l</text><text xml:space="preserve" font-family="Courier" font-size="30.0" fill="#000000" transform="matrix(1.00, 0.00, -0.00, -1.00, 382.1, 73.0)">u</text><text xml:space="preserve" font-family="Courier" font-size="30.0" fill="#000000" transform="matrix(1.00, 0.00, -0.00, -1.00, 400.1, 73.0)">e</text></g></g></g></svg>