<?xml version="1.0" encoding="UTF-8" standalone="no"?><svg xmlns="http://www.w3.org/2000/svg" xmlns:xlink="http://www.w3.org/1999/xlink" clip-rule="evenodd" stroke-miterlimit="4.00" viewBox="0 0 524 29"><desc>SVG generated by Keynote</desc><defs></defs><g transform="matrix(1.00, 0.00, -0.00, -1.00, 0.0, 29.0)"><text xml:space="preserve" font-family="Courier-Oblique" font-style="italic" font-size="30.0" fill="#4E9192" transform="matrix(1.00, 0.00, -0.00, -1.00, 0.0, 7.0)">#</text><text xml:space="preserve" font-family="Courier-Oblique" font-style="italic" font-size="30.0" fill="#4E9192" transform="matrix(1.00, 0.00, -0.00, -1.00, 18.0, 7.0)"> </text><text xml:space="preserve" font-family="Courier-Oblique" font-style="italic" font-size="30.0" fill="#4E9192" transform="matrix(1.00, 0.00, -0.00, -1.00, 36.0, 7.0)">S</text><text xml:space="preserve" font-family="Courier-Oblique" font-style="italic" font-size="30.0" fill="#4E9192" transform="matrix(1.00, 0.00, -0.00, -1.00, 54.0, 7.0)">o</text><text xml:space="preserve" font-family="Courier-Oblique" font-style="italic" font-size="30.0" fill="#4E9192" transform="matrix(1.00, 0.00, -0.00, -1.00, 72.0, 7.0)">m</text><text xml:space="preserve" font-family="Courier-Oblique" font-style="italic" font-size="30.0" fill="#4E9192" transform="matrix(1.00, 0.00, -0.00, -1.00, 90.0, 7.0)">e</text><text xml:space="preserve" font-family="Courier-Oblique" font-style="italic" font-size="30.0" fill="#4E9192" transform="matrix(1.00, 0.00, -0.00, -1.00, 108.0, 7.0)"> </text><text xml:space="preserve" font-family="Courier-Oblique" font-style="italic" font-size="30.0" fill="#4E9192" transform="matrix(1.00, 0.00, -0.00, -1.00, 126.0, 7.0)">c</text><text xml:space="preserve" font-family="Courier-Oblique" font-style="italic" font-size="30.0" fill="#4E9192" transform="matrix(1.00, 0.00, -0.00, -1.00, 144.0, 7.0)">o</text><text xml:space="preserve" font-family="Courier-Oblique" font-style="italic" font-size="30.0" fill="#4E9192" transform="matrix(1.00, 0.00, -0.00, -1.00, 162.1, 7.0)">d</text><text xml:space="preserve" font-family="Courier-Oblique" font-style="italic" font-size="30.0" fill="#4E9192" transform="matrix(1.00, 0.00, -0.00, -1.00, 180.1, 7.0)">e</text><text xml:space="preserve" font-family="Courier-Oblique" font-style="italic" font-size="30.0" fill="#4E9192" transform="matrix(1.00, 0.00, -0.00, -1.00, 198.1, 7.0)"> </text><text xml:space="preserve" font-family="Courier-Oblique" font-style="italic" font-size="30.0" fill="#4E9192" transform="matrix(1.00, 0.00, -0.00, -1.00, 216.1, 7.0)">f</text><text xml:space="preserve" font-family="Courier-Oblique" font-style="italic" font-size="30.0" fill="#4E9192" transform="matrix(1.00, 0.00, -0.00, -1.00, 234.1, 7.0)">o</text><text xml:space="preserve" font-family="Courier-Oblique" font-style="italic" font-size="30.0" fill="#4E9192" transform="matrix(1.00, 0.00, -0.00, -1.00, 252.1, 7.0)">r</text><text xml:space="preserve" font-family="Courier-Oblique" font-style="italic" font-size="30.0" fill="#4E9192" transform="matrix(1.00, 0.00, -0.00, -1.00, 270.1, 7.0)"> </text><text xml:space="preserve" font-family="Courier-Oblique" font-style="italic" font-size="30.0" fill="#4E9192" transform="matrix(1.00, 0.00, -0.00, -1.00, 288.1, 7.0)">x</text><text xml:space="preserve" font-family="Courier-Oblique" font-style="italic" font-size="30.0" fill="#4E9192" transform="matrix(1.00, 0.00, -0.00, -1.00, 306.1, 7.0)">1</text><text xml:space="preserve" font-family="Courier-Oblique" font-style="italic" font-size="30.0" fill="#4E9192" transform="matrix(1.00, 0.00, -0.00, -1.00, 324.1, 7.0)">,</text><text xml:space="preserve" font-family="Courier-Oblique" font-style="italic" font-size="30.0" fill="#4E9192" transform="matrix(1.00, 0.00, -0.00, -1.00, 342.1, 7.0)"> </text><text xml:space="preserve" font-family="Courier-Oblique" font-style="italic" font-size="30.0" fill="#4E9192" transform="matrix(1.00, 0.00, -0.00, -1.00, 360.1, 7.0)">x</text><text xml:space="preserve" font-family="Courier-Oblique" font-style="italic" font-size="30.0" fill="#4E9192" transform="matrix(1.00, 0.00, -0.00, -1.00, 378.1, 7.0)">2</text><text xml:space="preserve" font-family="Courier-Oblique" font-style="italic" font-size="30.0" fill="#4E9192" transform="matrix(1.00, 0.00, -0.00, -1.00, 396.1, 7.0)"> </text><text xml:space="preserve" font-family="Courier-Oblique" font-style="italic" font-size="30.0" fill="#4E9192" transform="matrix(1.00, 0.00, -0.00, -1.00, 414.1, 7.0)">a</text><text xml:space="preserve" font-family="Courier-Oblique" font-style="italic" font-size="30.0" fill="#4E9192" transform="matrix(1.00, 0.00, -0.00, -1.00, 432.1, 7.0)">n</text><text xml:space="preserve" font-family="Courier-Oblique" font-style="italic" font-size="30.0" fill="#4E9192" transform="matrix(1.00, 0.00, -0.00, -1.00, 450.1, 7.0)">d</text><text xml:space="preserve" font-family="Courier-Oblique" font-style="italic" font-size="30.0" fill="#4E9192" transform="matrix(1.00, 0.00, -0.00, -1.00, 468.2, 7.0)"> </text><text xml:space="preserve" font-family="Courier-Oblique" font-style="italic" font-size="30.0" fill="#4E9192" transform="matrix(1.00, 0.00, -0.00, -1.00, 486.2, 7.0)">x</text><text xml:space="preserve" font-family="Courier-Oblique" font-style="italic" font-size="30.0" fill="#4E9192" transform="matrix(1.00, 0.00, -0.00, -1.00, 504.2, 7.0)">3</text></g></svg>