<?xml version="1.0" encoding="UTF-8" standalone="no"?><svg xmlns="http://www.w3.org/2000/svg" xmlns:xlink="http://www.w3.org/1999/xlink" clip-rule="evenodd" stroke-miterlimit="4.00" viewBox="0 0 1024 768"><desc>SVG generated by Keynote</desc><defs></defs><g transform="matrix(1.00, 0.00, -0.00, -1.00, 0.0, 768.0)"><g><clipPath id="clip-71"><path d="M 0.0 768.0 L 1024.0 768.0 L 1024.0 0.0 L 0.0 0.0 Z M 0.0 768.0 "></path></clipPath><g clip-path="url(#clip-71)"><image xlink:href="../../86BB661C-AAFE-46F2-89B5-B98D6D644DD8/assets/DE78B55DDE70D88C6FF874E8D33A46A3.jpeg" width="1024.00" height="768.00" transform="matrix(1.00, 0.00, -0.00, -1.00, 0.0, 768.0)"></image></g></g><image xlink:href="../../86BB661C-AAFE-46F2-89B5-B98D6D644DD8/assets/610DE41026624E3AEF638D24E71EF355.png" width="74.00" height="62.00" transform="matrix(1.00, 0.00, -0.00, -1.00, 949.0, 64.0)"></image><image xlink:href="../../86BB661C-AAFE-46F2-89B5-B98D6D644DD8/assets/C79B4846A618BF06956E5E1178655E37.png" width="40.00" height="40.00" transform="matrix(1.00, 0.00, -0.00, -1.01, 966.2, 53.0)" opacity="0.50"></image><g><clipPath id="clip-72"><path d="M 996.7 43.5 C 1002.5 37.6 1002.5 28.0 996.7 22.0 C 990.9 16.1 981.4 16.1 975.6 22.0 C 969.7 28.0 969.7 37.6 975.6 43.5 C 981.4 49.5 990.9 49.5 996.7 43.5 Z M 996.7 43.5 "></path></clipPath><g clip-path="url(#clip-72)"><image xlink:href="../../86BB661C-AAFE-46F2-89B5-B98D6D644DD8/assets/DE78B55DDE70D88C6FF874E8D33A46A3.jpeg" width="1024.00" height="768.00" transform="matrix(0.04, 0.00, -0.00, -0.04, 965.9, 48.0)"></image></g></g><text xml:space="preserve" font-family="HoboStd" font-size="18.0" fill="#E5CC77" transform="matrix(1.00, 0.00, -0.00, -1.00, 976.0, 26.0)">1</text><text xml:space="preserve" font-family="HoboStd" font-size="18.0" fill="#E5CC77" transform="matrix(1.00, 0.00, -0.00, -1.00, 986.4, 26.0)">8</text><text xml:space="preserve" font-family="Chalkduster" font-size="30.0" fill="#FEFFFE" transform="matrix(1.00, 0.00, -0.00, -1.00, 199.0, 371.0)">R</text><text xml:space="preserve" font-family="Chalkduster" font-size="30.0" fill="#FEFFFE" transform="matrix(1.00, 0.00, -0.00, -1.00, 222.3, 371.0)">e</text><text xml:space="preserve" font-family="Chalkduster" font-size="30.0" fill="#FEFFFE" transform="matrix(1.00, 0.00, -0.00, -1.00, 240.9, 371.0)">w</text><text xml:space="preserve" font-family="Chalkduster" font-size="30.0" fill="#FEFFFE" transform="matrix(1.00, 0.00, -0.00, -1.00, 265.4, 371.0)">r</text><text xml:space="preserve" font-family="Chalkduster" font-size="30.0" fill="#FEFFFE" transform="matrix(1.00, 0.00, -0.00, -1.00, 282.0, 371.0)">i</text><text xml:space="preserve" font-family="Chalkduster" font-size="30.0" fill="#FEFFFE" transform="matrix(1.00, 0.00, -0.00, -1.00, 294.2, 371.0)">t</text><text xml:space="preserve" font-family="Chalkduster" font-size="30.0" fill="#FEFFFE" transform="matrix(1.00, 0.00, -0.00, -1.00, 307.6, 371.0)">e</text><text xml:space="preserve" font-family="Chalkduster" font-size="30.0" fill="#FEFFFE" transform="matrix(1.00, 0.00, -0.00, -1.00, 326.2, 371.0)"> </text><text xml:space="preserve" font-family="Chalkduster" font-size="30.0" fill="#FEFFFE" transform="matrix(1.00, 0.00, -0.00, -1.00, 341.1, 371.0)">t</text><text xml:space="preserve" font-family="Chalkduster" font-size="30.0" fill="#FEFFFE" transform="matrix(1.00, 0.00, -0.00, -1.00, 355.5, 371.0)">h</text><text xml:space="preserve" font-family="Chalkduster" font-size="30.0" fill="#FEFFFE" transform="matrix(1.00, 0.00, -0.00, -1.00, 374.0, 371.0)">e</text><text xml:space="preserve" font-family="Chalkduster" font-size="30.0" fill="#FEFFFE" transform="matrix(1.00, 0.00, -0.00, -1.00, 392.6, 371.0)"> </text><text xml:space="preserve" font-family="Chalkduster" font-size="30.0" fill="#FEFFFE" transform="matrix(1.00, 0.00, -0.00, -1.00, 407.5, 371.0)">f</text><text xml:space="preserve" font-family="Chalkduster" font-size="30.0" fill="#FEFFFE" transform="matrix(1.00, 0.00, -0.00, -1.00, 423.5, 371.0)">i</text><text xml:space="preserve" font-family="Chalkduster" font-size="30.0" fill="#FEFFFE" transform="matrix(1.00, 0.00, -0.00, -1.00, 435.6, 371.0)">l</text><text xml:space="preserve" font-family="Chalkduster" font-size="30.0" fill="#FEFFFE" transform="matrix(1.00, 0.00, -0.00, -1.00, 448.0, 371.0)">e</text><text xml:space="preserve" font-family="Chalkduster" font-size="30.0" fill="#FEFFFE" transform="matrix(1.00, 0.00, -0.00, -1.00, 466.6, 371.0)"> </text><text xml:space="preserve" font-family="Chalkduster" font-size="30.0" fill="#FEFFFE" transform="matrix(1.00, 0.00, -0.00, -1.00, 481.6, 371.0)">i</text><text xml:space="preserve" font-family="Chalkduster" font-size="30.0" fill="#FEFFFE" transform="matrix(1.00, 0.00, -0.00, -1.00, 493.4, 371.0)">n</text><text xml:space="preserve" font-family="Chalkduster" font-size="30.0" fill="#FEFFFE" transform="matrix(1.00, 0.00, -0.00, -1.00, 515.4, 371.0)"> </text><text xml:space="preserve" font-family="Chalkduster" font-size="30.0" fill="#FEFFFE" transform="matrix(1.00, 0.00, -0.00, -1.00, 530.3, 371.0)">t</text><text xml:space="preserve" font-family="Chalkduster" font-size="30.0" fill="#FEFFFE" transform="matrix(1.00, 0.00, -0.00, -1.00, 544.7, 371.0)">h</text><text xml:space="preserve" font-family="Chalkduster" font-size="30.0" fill="#FEFFFE" transform="matrix(1.00, 0.00, -0.00, -1.00, 563.7, 371.0)">i</text><text xml:space="preserve" font-family="Chalkduster" font-size="30.0" fill="#FEFFFE" transform="matrix(1.00, 0.00, -0.00, -1.00, 575.5, 371.0)">s</text><text xml:space="preserve" font-family="Chalkduster" font-size="30.0" fill="#FEFFFE" transform="matrix(1.00, 0.00, -0.00, -1.00, 590.7, 371.0)"> </text><text xml:space="preserve" font-family="Chalkduster" font-size="30.0" fill="#FEFFFE" transform="matrix(1.00, 0.00, -0.00, -1.00, 605.6, 371.0)">o</text><text xml:space="preserve" font-family="Chalkduster" font-size="30.0" fill="#FEFFFE" transform="matrix(1.00, 0.00, -0.00, -1.00, 626.1, 371.0)">t</text><text xml:space="preserve" font-family="Chalkduster" font-size="30.0" fill="#FEFFFE" transform="matrix(1.00, 0.00, -0.00, -1.00, 640.4, 371.0)">h</text><text xml:space="preserve" font-family="Chalkduster" font-size="30.0" fill="#FEFFFE" transform="matrix(1.00, 0.00, -0.00, -1.00, 658.9, 371.0)">e</text><text xml:space="preserve" font-family="Chalkduster" font-size="30.0" fill="#FEFFFE" transform="matrix(1.00, 0.00, -0.00, -1.00, 677.2, 371.0)">r</text><text xml:space="preserve" font-family="Chalkduster" font-size="30.0" fill="#FEFFFE" transform="matrix(1.00, 0.00, -0.00, -1.00, 693.0, 371.0)"> </text><text xml:space="preserve" font-family="Chalkduster" font-size="30.0" fill="#FEFFFE" transform="matrix(1.00, 0.00, -0.00, -1.00, 708.0, 371.0)">f</text><text xml:space="preserve" font-family="Chalkduster" font-size="30.0" fill="#FEFFFE" transform="matrix(1.00, 0.00, -0.00, -1.00, 723.0, 371.0)">o</text><text xml:space="preserve" font-family="Chalkduster" font-size="30.0" fill="#FEFFFE" transform="matrix(1.00, 0.00, -0.00, -1.00, 744.8, 371.0)">r</text><text xml:space="preserve" font-family="Chalkduster" font-size="30.0" fill="#FEFFFE" transform="matrix(1.00, 0.00, -0.00, -1.00, 761.9, 371.0)">m</text><text xml:space="preserve" font-family="Chalkduster" font-size="30.0" fill="#FEFFFE" transform="matrix(1.00, 0.00, -0.00, -1.00, 792.3, 371.0)">a</text><text xml:space="preserve" font-family="Chalkduster" font-size="30.0" fill="#FEFFFE" transform="matrix(1.00, 0.00, -0.00, -1.00, 810.9, 371.0)">t</text><text xml:space="preserve" font-family="Chalkduster" font-size="30.0" fill="#FEFFFE" transform="matrix(1.00, 0.00, -0.00, -1.00, 216.0, 262.0)">&gt;</text><text xml:space="preserve" font-family="Chalkduster" font-size="30.0" fill="#FEFFFE" transform="matrix(1.00, 0.00, -0.00, -1.00, 230.6, 262.0)"> </text><text xml:space="preserve" font-family="Chalkduster" font-size="30.0" fill="#FEFFFE" transform="matrix(1.00, 0.00, -0.00, -1.00, 245.5, 262.0)">C</text><text xml:space="preserve" font-family="Chalkduster" font-size="30.0" fill="#FEFFFE" transform="matrix(1.00, 0.00, -0.00, -1.00, 269.9, 262.0)">A</text><text xml:space="preserve" font-family="Chalkduster" font-size="30.0" fill="#FEFFFE" transform="matrix(1.00, 0.00, -0.00, -1.00, 289.6, 262.0)">T</text><text xml:space="preserve" font-family="Chalkduster" font-size="30.0" fill="#FEFFFE" transform="matrix(1.00, 0.00, -0.00, -1.00, 312.6, 262.0)">E</text><text xml:space="preserve" font-family="Chalkduster" font-size="30.0" fill="#FEFFFE" transform="matrix(1.00, 0.00, -0.00, -1.00, 334.8, 262.0)">G</text><text xml:space="preserve" font-family="Chalkduster" font-size="30.0" fill="#FEFFFE" transform="matrix(1.00, 0.00, -0.00, -1.00, 368.1, 262.0)">O</text><text xml:space="preserve" font-family="Chalkduster" font-size="30.0" fill="#FEFFFE" transform="matrix(1.00, 0.00, -0.00, -1.00, 389.8, 262.0)">R</text><text xml:space="preserve" font-family="Chalkduster" font-size="30.0" fill="#FEFFFE" transform="matrix(1.00, 0.00, -0.00, -1.00, 413.2, 262.0)">Y</text><text xml:space="preserve" font-family="Chalkduster" font-size="30.0" fill="#FEFFFE" transform="matrix(1.00, 0.00, -0.00, -1.00, 439.1, 262.0)"> </text><text xml:space="preserve" font-family="Chalkduster" font-size="30.0" fill="#FEFFFE" transform="matrix(1.00, 0.00, -0.00, -1.00, 216.0, 218.0)">m</text><text xml:space="preserve" font-family="Chalkduster" font-size="30.0" fill="#FEFFFE" transform="matrix(1.00, 0.00, -0.00, -1.00, 246.4, 218.0)">o</text><text xml:space="preserve" font-family="Chalkduster" font-size="30.0" fill="#FEFFFE" transform="matrix(1.00, 0.00, -0.00, -1.00, 268.9, 218.0)">v</text><text xml:space="preserve" font-family="Chalkduster" font-size="30.0" fill="#FEFFFE" transform="matrix(1.00, 0.00, -0.00, -1.00, 287.5, 218.0)">i</text><text xml:space="preserve" font-family="Chalkduster" font-size="30.0" fill="#FEFFFE" transform="matrix(1.00, 0.00, -0.00, -1.00, 299.4, 218.0)">e</text><text xml:space="preserve" font-family="Chalkduster" font-size="30.0" fill="#FEFFFE" transform="matrix(1.00, 0.00, -0.00, -1.00, 318.0, 218.0)"> </text><text xml:space="preserve" font-family="Chalkduster" font-size="30.0" fill="#FEFFFE" transform="matrix(1.00, 0.00, -0.00, -1.00, 216.0, 174.0)">m</text><text xml:space="preserve" font-family="Chalkduster" font-size="30.0" fill="#FEFFFE" transform="matrix(1.00, 0.00, -0.00, -1.00, 246.4, 174.0)">o</text><text xml:space="preserve" font-family="Chalkduster" font-size="30.0" fill="#FEFFFE" transform="matrix(1.00, 0.00, -0.00, -1.00, 268.9, 174.0)">v</text><text xml:space="preserve" font-family="Chalkduster" font-size="30.0" fill="#FEFFFE" transform="matrix(1.00, 0.00, -0.00, -1.00, 287.5, 174.0)">i</text><text xml:space="preserve" font-family="Chalkduster" font-size="30.0" fill="#FEFFFE" transform="matrix(1.00, 0.00, -0.00, -1.00, 299.4, 174.0)">e</text><text xml:space="preserve" font-family="Chalkduster" font-size="30.0" fill="#FEFFFE" transform="matrix(1.00, 0.00, -0.00, -1.00, 318.0, 174.0)"> </text><text xml:space="preserve" font-family="Chalkduster" font-size="30.0" fill="#FEFFFE" transform="matrix(1.00, 0.00, -0.00, -1.00, 216.0, 130.0)">m</text><text xml:space="preserve" font-family="Chalkduster" font-size="30.0" fill="#FEFFFE" transform="matrix(1.00, 0.00, -0.00, -1.00, 246.4, 130.0)">o</text><text xml:space="preserve" font-family="Chalkduster" font-size="30.0" fill="#FEFFFE" transform="matrix(1.00, 0.00, -0.00, -1.00, 268.9, 130.0)">v</text><text xml:space="preserve" font-family="Chalkduster" font-size="30.0" fill="#FEFFFE" transform="matrix(1.00, 0.00, -0.00, -1.00, 287.5, 130.0)">i</text><text xml:space="preserve" font-family="Chalkduster" font-size="30.0" fill="#FEFFFE" transform="matrix(1.00, 0.00, -0.00, -1.00, 299.4, 130.0)">e</text><text xml:space="preserve" font-family="Chalkduster" font-size="30.0" fill="#FEFFFE" transform="matrix(1.00, 0.00, -0.00, -1.00, 549.0, 130.0)">R</text><text xml:space="preserve" font-family="Chalkduster" font-size="30.0" fill="#FEFFFE" transform="matrix(1.00, 0.00, -0.00, -1.00, 572.3, 130.0)">a</text><text xml:space="preserve" font-family="Chalkduster" font-size="30.0" fill="#FEFFFE" transform="matrix(1.00, 0.00, -0.00, -1.00, 590.9, 130.0)">t</text><text xml:space="preserve" font-family="Chalkduster" font-size="30.0" fill="#FEFFFE" transform="matrix(1.00, 0.00, -0.00, -1.00, 604.8, 130.0)">i</text><text xml:space="preserve" font-family="Chalkduster" font-size="30.0" fill="#FEFFFE" transform="matrix(1.00, 0.00, -0.00, -1.00, 616.7, 130.0)">n</text><text xml:space="preserve" font-family="Chalkduster" font-size="30.0" fill="#FEFFFE" transform="matrix(1.00, 0.00, -0.00, -1.00, 637.8, 130.0)">g</text><text xml:space="preserve" font-family="Chalkduster" font-size="30.0" fill="#FEFFFE" transform="matrix(1.00, 0.00, -0.00, -1.00, 658.2, 130.0)"> </text><text xml:space="preserve" font-family="Chalkduster" font-size="30.0" fill="#FEFFFE" transform="matrix(1.00, 0.00, -0.00, -1.00, 673.1, 130.0)"> </text><text xml:space="preserve" font-family="Chalkduster" font-size="30.0" fill="#FEFFFE" transform="matrix(1.00, 0.00, -0.00, -1.00, 688.0, 130.0)"> </text><text xml:space="preserve" font-family="Chalkduster" font-size="30.0" fill="#FEFFFE" transform="matrix(1.00, 0.00, -0.00, -1.00, 702.9, 130.0)"> </text><text xml:space="preserve" font-family="Chalkduster" font-size="30.0" fill="#FEFFFE" transform="matrix(1.00, 0.00, -0.00, -1.00, 717.9, 130.0)"> </text><text xml:space="preserve" font-family="Chalkduster" font-size="30.0" fill="#FEFFFE" transform="matrix(1.00, 0.00, -0.00, -1.00, 732.8, 130.0)">N</text><text xml:space="preserve" font-family="Chalkduster" font-size="30.0" fill="#FEFFFE" transform="matrix(1.00, 0.00, -0.00, -1.00, 753.7, 130.0)">a</text><text xml:space="preserve" font-family="Chalkduster" font-size="30.0" fill="#FEFFFE" transform="matrix(1.00, 0.00, -0.00, -1.00, 773.5, 130.0)">m</text><text xml:space="preserve" font-family="Chalkduster" font-size="30.0" fill="#FEFFFE" transform="matrix(1.00, 0.00, -0.00, -1.00, 804.6, 130.0)">e</text><text xml:space="preserve" font-family="Chalkduster" font-size="30.0" fill="#FEFFFE" transform="matrix(1.00, 0.00, -0.00, -1.00, 823.2, 130.0)"> </text><text xml:space="preserve" font-family="Chalkduster" font-size="30.0" fill="#FEFFFE" transform="matrix(1.00, 0.00, -0.00, -1.00, 838.1, 130.0)">(</text><text xml:space="preserve" font-family="Chalkduster" font-size="30.0" fill="#FEFFFE" transform="matrix(1.00, 0.00, -0.00, -1.00, 852.1, 130.0)">Y</text><text xml:space="preserve" font-family="Chalkduster" font-size="30.0" fill="#FEFFFE" transform="matrix(1.00, 0.00, -0.00, -1.00, 875.2, 130.0)">e</text><text xml:space="preserve" font-family="Chalkduster" font-size="30.0" fill="#FEFFFE" transform="matrix(1.00, 0.00, -0.00, -1.00, 893.8, 130.0)">a</text><text xml:space="preserve" font-family="Chalkduster" font-size="30.0" fill="#FEFFFE" transform="matrix(1.00, 0.00, -0.00, -1.00, 912.9, 130.0)">r</text><text xml:space="preserve" font-family="Chalkduster" font-size="30.0" fill="#FEFFFE" transform="matrix(1.00, 0.00, -0.00, -1.00, 927.6, 130.0)">)</text><path d="M 375.3 136.8 C 375.1 136.9 374.5 136.7 374.3 136.9 M 375.3 136.8 C 374.7 135.9 373.6 135.8 372.1 135.7 C 370.5 135.6 372.2 136.5 372.0 136.9 C 369.9 137.2 369.9 136.6 370.2 135.6 C 369.4 136.3 367.1 135.1 367.5 136.3 C 370.9 136.3 365.2 136.6 368.0 137.3 C 368.3 137.5 367.5 137.8 367.2 137.8 C 368.1 138.4 366.5 139.0 368.0 139.3 C 368.2 140.1 367.9 139.8 368.9 140.4 C 369.3 140.5 369.1 140.2 369.1 140.0 C 369.2 139.1 370.2 140.5 371.0 139.9 C 371.7 141.1 372.5 139.7 371.8 139.2 C 372.5 139.4 373.4 140.6 374.1 139.8 C 374.5 140.4 376.4 140.0 375.3 139.2 C 374.4 138.7 375.4 138.4 375.5 138.1 C 375.2 137.8 374.0 138.2 373.9 138.0 C 374.2 137.8 375.7 137.4 374.1 137.4 C 374.6 137.0 373.8 136.7 375.3 136.8 C 375.3 136.8 375.3 136.8 375.3 136.8 Z M 369.6 136.1 C 369.6 135.8 370.2 136.1 369.6 136.1 C 369.6 136.1 369.6 136.1 369.6 136.1 Z M 373.5 140.4 C 373.5 140.0 374.0 140.4 373.5 140.4 C 373.5 140.4 373.5 140.4 373.5 140.4 Z M 369.4 140.0 C 369.3 139.7 369.9 140.0 369.4 140.0 C 369.4 140.0 369.4 140.0 369.4 140.0 Z M 371.1 136.3 C 372.0 136.6 370.4 136.8 370.2 136.5 C 370.4 136.5 370.9 136.1 371.1 136.3 C 371.1 136.3 371.1 136.3 371.1 136.3 Z M 371.2 138.2 C 371.3 138.0 371.7 138.0 371.6 138.3 C 371.4 138.4 371.2 138.3 371.2 138.2 C 371.2 138.2 371.2 138.2 371.2 138.2 Z M 366.8 136.9 C 366.9 136.7 367.3 136.7 367.2 137.0 C 367.0 137.1 366.8 137.0 366.8 136.9 C 366.8 136.9 366.8 136.9 366.8 136.9 Z M 372.1 137.2 C 372.3 137.2 372.4 137.5 372.2 137.6 C 372.0 137.4 371.4 137.4 372.1 137.2 C 372.1 137.2 372.1 137.2 372.1 137.2 Z M 373.5 136.1 C 374.3 136.3 372.8 136.7 372.8 136.6 C 372.5 136.4 373.1 135.9 373.5 136.1 C 373.5 136.1 373.5 136.1 373.5 136.1 Z M 372.6 137.6 C 373.2 137.8 372.3 137.8 372.6 137.6 C 372.6 137.6 372.6 137.6 372.6 137.6 Z M 367.4 139.2 C 368.0 139.4 367.2 139.4 367.4 139.2 C 367.4 139.2 367.4 139.2 367.4 139.2 Z M 370.7 140.2 C 371.3 140.3 370.4 140.4 370.7 140.2 C 370.7 140.2 370.7 140.2 370.7 140.2 Z M 369.5 137.0 C 368.4 136.9 369.3 136.2 369.5 137.0 C 369.5 137.0 369.5 137.0 369.5 137.0 Z M 375.2 136.0 C 374.2 136.0 375.1 135.2 375.2 136.0 C 375.2 136.0 375.2 136.0 375.2 136.0 Z M 534.5 136.3 C 535.5 136.2 531.6 135.1 533.1 136.4 C 533.5 137.4 530.9 137.3 531.6 136.3 C 530.8 136.2 530.8 136.2 530.4 136.6 C 530.2 135.9 528.4 135.5 527.8 135.9 C 527.4 136.5 529.0 136.0 528.0 136.7 C 525.7 136.9 528.1 137.4 527.3 138.3 C 527.2 138.2 527.1 137.8 526.9 138.1 C 526.8 138.9 528.1 139.4 527.5 140.0 C 527.9 139.9 529.5 140.7 528.8 140.0 C 528.6 139.3 530.6 140.9 530.5 139.7 C 531.0 140.3 531.6 139.5 532.1 140.2 C 532.5 140.3 532.5 139.7 532.4 139.5 C 532.4 139.0 532.9 140.8 533.6 139.8 C 533.6 140.1 535.5 140.0 534.1 139.5 C 534.5 139.6 536.6 139.9 535.5 138.8 C 534.0 138.3 537.0 137.7 535.3 137.6 C 534.0 137.5 533.7 137.7 534.7 137.1 C 535.0 137.2 536.5 137.1 535.2 136.6 C 534.9 136.7 534.3 136.6 534.5 136.3 C 534.5 136.3 534.5 136.3 534.5 136.3 Z M 534.7 137.9 C 534.0 138.0 534.7 137.5 534.7 137.9 C 534.7 137.9 534.7 137.9 534.7 137.9 Z M 532.0 140.4 C 531.2 140.5 531.9 140.0 532.0 140.4 C 532.0 140.4 532.0 140.4 532.0 140.4 Z M 532.1 136.0 C 531.7 136.4 531.6 135.2 532.1 136.0 C 532.1 136.0 532.1 136.0 532.1 136.0 Z M 533.3 139.5 C 533.2 139.5 533.4 139.4 533.5 139.3 C 533.5 139.4 533.3 139.5 533.3 139.5 C 533.3 139.5 533.3 139.5 533.3 139.5 Z M 530.8 136.0 C 529.7 136.6 530.6 135.2 530.8 136.0 C 530.8 136.0 530.8 136.0 530.8 136.0 Z M 528.5 137.1 C 528.4 138.3 527.3 136.9 528.5 137.1 C 528.5 137.1 528.5 137.1 528.5 137.1 Z M 530.1 139.6 C 530.3 139.4 530.3 139.8 530.1 139.6 C 530.1 139.6 530.1 139.6 530.1 139.6 Z M 535.1 139.8 C 535.3 139.6 535.3 139.9 535.1 139.8 C 535.1 139.8 535.1 139.8 535.1 139.8 Z M 528.7 139.5 C 528.8 139.1 529.1 139.8 528.7 139.5 C 528.7 139.5 528.7 139.5 528.7 139.5 Z M 531.9 136.5 C 532.9 135.6 533.1 137.8 531.9 136.5 C 531.9 136.5 531.9 136.5 531.9 136.5 Z M 533.7 136.4 C 534.5 136.2 533.6 137.0 533.3 136.8 C 533.3 136.7 533.6 136.5 533.7 136.4 C 533.7 136.4 533.7 136.4 533.7 136.4 Z M 530.8 136.6 C 531.5 136.2 531.4 136.8 530.8 136.6 C 530.8 136.6 530.8 136.6 530.8 136.6 Z M 532.6 136.1 C 532.9 136.2 532.3 136.2 532.6 136.1 C 532.6 136.1 532.6 136.1 532.6 136.1 Z M 529.4 135.7 C 529.7 135.8 529.1 135.8 529.4 135.7 C 529.4 135.7 529.4 135.7 529.4 135.7 Z M 534.6 135.9 C 535.0 136.0 534.3 136.1 534.6 135.9 C 534.6 135.9 534.6 135.9 534.6 135.9 Z M 529.7 136.3 C 529.6 136.7 530.6 137.6 528.8 136.8 C 528.4 136.5 529.2 135.9 529.7 136.3 C 529.7 136.3 529.7 136.3 529.7 136.3 Z M 378.2 136.8 C 374.0 135.6 375.0 137.8 374.8 138.2 C 374.3 138.8 374.8 139.2 375.6 139.6 C 376.5 141.0 376.9 138.2 377.6 139.6 C 378.7 141.5 378.8 137.9 379.3 139.9 C 379.1 140.4 380.7 140.0 380.6 139.9 C 381.4 140.8 382.6 139.2 382.6 139.0 C 383.1 139.2 383.2 141.0 384.8 139.7 C 386.1 139.2 386.7 141.0 386.3 139.8 C 387.3 141.1 387.0 139.4 387.9 139.8 C 388.6 140.6 388.0 138.7 389.1 140.1 C 389.7 139.0 388.6 140.9 391.8 140.0 C 390.3 139.9 393.3 139.1 392.7 139.9 C 391.6 140.7 394.2 139.6 395.6 140.1 C 396.0 139.7 397.8 138.6 397.5 139.8 C 399.0 141.1 399.0 139.0 399.7 140.0 C 400.2 140.5 400.3 139.5 400.7 139.6 C 401.2 140.4 401.7 139.9 403.6 140.1 C 407.6 140.5 404.2 138.0 405.7 137.7 C 406.0 137.4 403.7 134.7 404.6 136.7 C 404.3 136.1 401.0 138.2 402.7 136.0 C 401.4 136.9 402.9 135.1 400.4 136.2 C 403.9 137.7 396.4 136.8 399.7 136.0 C 399.2 135.6 397.8 135.7 398.8 136.0 C 399.2 137.4 396.4 135.4 397.8 137.1 C 395.6 136.6 396.2 138.2 395.6 137.1 C 395.1 135.2 395.7 137.6 394.6 137.0 C 392.1 137.0 394.0 134.9 392.5 136.3 C 390.0 135.4 392.0 137.1 391.1 137.3 C 390.9 138.6 388.6 136.4 390.5 136.2 C 389.5 136.9 390.3 135.6 389.1 136.4 C 390.0 137.6 387.7 135.1 388.0 136.1 C 387.0 136.4 387.5 137.1 387.2 137.1 C 385.7 137.1 386.2 136.0 385.8 136.8 C 385.5 137.3 384.8 135.8 384.6 136.2 C 386.2 136.2 383.3 137.4 383.1 136.8 C 384.1 136.7 382.7 135.2 382.0 136.1 C 382.8 138.7 380.7 135.5 380.0 136.4 C 380.7 137.8 376.6 136.6 378.1 135.9 C 378.0 136.0 378.2 136.8 378.2 136.8 M 384.1 136.4 C 385.4 136.5 382.8 136.7 384.1 136.4 M 384.1 136.0 C 384.6 136.5 382.9 135.6 384.2 135.8 C 384.2 135.8 384.0 136.0 384.1 136.0 M 389.4 135.9 C 389.2 136.3 388.7 135.7 389.4 135.9 M 390.4 136.8 C 391.3 137.2 389.3 136.9 390.4 136.8 M 402.1 136.5 C 400.9 138.7 400.9 135.3 402.1 136.5 M 394.4 136.1 C 392.9 136.4 394.9 135.2 394.4 136.1 M 393.9 136.6 C 393.3 137.0 393.8 136.2 393.9 136.6 M 399.9 136.5 C 400.0 136.6 400.0 136.6 399.9 136.5 C 399.9 136.5 399.9 136.5 399.9 136.5 Z M 403.4 136.6 C 403.4 136.6 403.4 136.6 403.4 136.6 C 403.4 136.6 403.4 136.6 403.4 136.6 Z M 396.5 136.8 C 395.4 136.3 398.3 136.6 396.5 136.8 C 396.5 136.8 396.5 136.8 396.5 136.8 Z M 401.7 139.9 C 401.6 139.9 401.6 139.9 401.7 139.9 C 401.7 139.9 401.7 139.9 401.7 139.9 Z M 383.1 137.3 C 383.1 137.4 383.1 137.4 383.1 137.3 C 383.1 137.3 383.1 137.3 383.1 137.3 Z M 379.2 136.5 C 379.2 136.8 378.5 136.3 379.2 136.5 C 379.2 136.5 379.2 136.5 379.2 136.5 Z M 376.0 139.0 C 375.9 139.0 375.9 139.0 376.0 139.0 C 376.0 139.0 376.0 139.0 376.0 139.0 Z M 381.8 138.5 C 381.8 138.5 381.8 138.5 381.8 138.5 C 381.8 138.5 381.8 138.5 381.8 138.5 Z M 382.4 136.9 C 381.7 135.7 383.9 137.2 382.4 136.9 C 382.4 136.9 382.4 136.9 382.4 136.9 Z M 395.2 139.7 C 395.2 139.2 396.1 139.9 395.2 139.7 C 395.2 139.7 395.2 139.7 395.2 139.7 Z M 390.6 137.3 C 390.7 137.0 391.1 137.4 390.6 137.3 C 390.6 137.3 390.6 137.3 390.6 137.3 Z M 388.4 135.7 C 388.6 135.4 389.0 135.8 388.4 135.7 C 388.4 135.7 388.4 135.7 388.4 135.7 Z M 379.2 136.2 C 379.3 136.1 379.3 136.1 379.2 136.2 C 379.2 136.2 379.2 136.2 379.2 136.2 Z M 380.7 137.1 C 379.7 136.0 382.2 137.7 380.7 137.1 C 380.7 137.1 380.7 137.1 380.7 137.1 Z M 379.0 137.4 C 379.5 137.8 377.7 137.2 379.0 137.4 M 379.9 139.1 C 381.1 138.6 378.9 141.1 379.9 139.1 C 379.9 139.1 379.9 139.1 379.9 139.1 Z M 386.0 139.6 C 386.1 139.6 386.1 139.6 386.0 139.6 C 386.0 139.6 386.0 139.6 386.0 139.6 Z M 385.4 136.3 C 386.4 136.4 384.7 136.6 385.4 136.3 C 385.4 136.3 385.4 136.3 385.4 136.3 Z M 376.2 136.1 C 377.3 136.1 375.5 136.3 376.2 136.1 C 376.2 136.1 376.2 136.1 376.2 136.1 Z M 389.6 138.5 C 391.3 138.3 388.5 139.1 389.6 138.5 C 389.6 138.5 389.6 138.5 389.6 138.5 Z M 395.9 137.2 C 396.0 137.2 396.0 137.2 395.9 137.2 C 395.9 137.2 395.9 137.2 395.9 137.2 Z M 397.1 136.7 C 397.1 136.8 397.1 136.8 397.1 136.7 C 397.1 136.7 397.1 136.7 397.1 136.7 Z M 402.0 137.9 C 402.1 137.9 402.1 137.9 402.0 137.9 C 402.0 137.9 402.0 137.9 402.0 137.9 Z M 398.2 136.2 C 398.2 136.2 398.2 136.2 398.2 136.2 C 398.2 136.2 398.2 136.2 398.2 136.2 Z M 401.6 136.5 C 401.6 136.5 401.6 136.5 401.6 136.5 C 401.6 136.5 401.6 136.5 401.6 136.5 Z M 401.1 135.5 C 401.2 135.6 401.2 135.6 401.1 135.5 C 401.1 135.5 401.1 135.5 401.1 135.5 Z M 393.5 140.4 C 393.6 140.4 393.6 140.4 393.5 140.4 C 393.5 140.4 393.5 140.4 393.5 140.4 Z M 381.1 135.8 C 381.2 135.9 381.2 135.9 381.1 135.8 C 381.1 135.8 381.1 135.8 381.1 135.8 Z M 401.3 136.9 C 401.3 137.0 401.3 137.0 401.3 136.9 C 401.3 136.9 401.3 136.9 401.3 136.9 Z M 393.0 137.8 C 393.0 138.7 392.3 136.6 393.2 137.8 C 393.2 137.8 392.9 137.7 393.0 137.8 M 394.1 139.4 C 394.1 139.4 394.1 139.4 394.1 139.4 C 394.1 139.4 394.1 139.4 394.1 139.4 Z M 390.3 139.9 C 390.3 140.0 390.3 140.0 390.3 139.9 C 390.3 139.9 390.3 139.9 390.3 139.9 Z M 397.6 136.0 C 397.4 135.5 398.5 136.4 397.4 136.1 M 402.1 139.5 C 401.9 139.0 403.0 139.9 401.9 139.6 M 375.0 136.4 C 374.9 136.8 374.3 136.2 375.0 136.4 M 389.5 140.4 C 389.3 140.8 388.8 140.2 389.5 140.4 M 391.2 139.2 C 391.1 138.7 392.2 139.6 391.1 139.3 M 399.5 139.5 C 399.5 139.5 399.5 139.5 399.5 139.5 C 399.5 139.5 399.5 139.5 399.5 139.5 Z M 387.0 136.4 C 387.0 136.4 387.0 136.4 387.0 136.4 C 387.0 136.4 387.0 136.4 387.0 136.4 Z M 391.6 137.5 C 391.0 136.8 392.4 138.0 391.6 137.5 M 385.7 137.7 C 384.8 136.8 387.1 138.0 385.7 137.7 M 404.0 139.7 C 403.0 138.7 404.8 140.3 404.0 139.7 M 399.0 137.0 C 397.9 136.0 399.7 137.6 399.0 137.0 M 387.9 136.9 C 387.9 136.3 389.0 137.2 387.9 136.9 M 377.4 136.3 C 376.4 136.2 378.7 135.9 377.4 136.3 M 397.0 139.5 C 397.0 139.6 397.0 139.6 397.0 139.5 C 397.0 139.5 397.0 139.5 397.0 139.5 Z M 380.6 140.5 C 380.6 140.5 380.6 140.5 380.6 140.5 C 380.6 140.5 380.6 140.5 380.6 140.5 Z M 405.3 136.2 C 405.4 136.2 405.4 136.2 405.3 136.2 C 405.3 136.2 405.3 136.2 405.3 136.2 Z M 398.3 137.5 C 398.4 137.6 398.4 137.6 398.3 137.5 C 398.3 137.5 398.3 137.5 398.3 137.5 Z M 403.4 136.1 C 403.4 136.1 403.4 136.1 403.4 136.1 C 403.4 136.1 403.4 136.1 403.4 136.1 Z M 395.1 138.4 C 395.2 138.4 395.2 138.4 395.1 138.4 C 395.1 138.4 395.1 138.4 395.1 138.4 Z M 394.5 135.6 C 394.5 135.6 394.5 135.6 394.5 135.6 C 394.5 135.6 394.5 135.6 394.5 135.6 Z M 391.0 136.8 C 391.0 136.8 391.0 136.8 391.0 136.8 C 391.0 136.8 391.0 136.8 391.0 136.8 Z M 396.1 135.8 C 398.2 135.7 395.0 136.8 396.1 135.8 C 396.1 135.8 396.1 135.8 396.1 135.8 Z M 392.5 138.6 C 392.5 138.6 392.5 138.6 392.5 138.6 C 392.5 138.6 392.5 138.6 392.5 138.6 Z M 392.2 136.6 C 393.5 135.9 392.9 138.0 392.2 136.6 M 386.4 136.0 C 386.8 135.6 386.6 136.6 386.4 136.0 M 384.1 139.6 C 384.1 139.7 384.1 139.7 384.1 139.6 C 384.1 139.6 384.1 139.6 384.1 139.6 Z M 384.7 139.3 C 384.8 139.4 384.8 139.4 384.7 139.3 C 384.7 139.3 384.7 139.3 384.7 139.3 Z M 385.0 135.8 C 385.0 135.8 385.0 135.8 385.0 135.8 C 385.0 135.8 385.0 135.8 385.0 135.8 Z M 384.8 140.4 C 384.8 140.4 384.8 140.4 384.8 140.4 C 384.8 140.4 384.8 140.4 384.8 140.4 Z M 393.7 135.7 C 393.7 135.7 393.7 135.7 393.7 135.7 C 393.7 135.7 393.7 135.7 393.7 135.7 Z M 404.4 135.7 C 404.4 135.7 404.4 135.7 404.4 135.7 C 404.4 135.7 404.4 135.7 404.4 135.7 Z M 377.7 139.2 C 377.8 139.3 377.8 139.3 377.7 139.2 C 377.7 139.2 377.7 139.2 377.7 139.2 Z M 394.8 136.8 C 394.8 136.8 394.8 136.8 394.8 136.8 C 394.8 136.8 394.8 136.8 394.8 136.8 Z M 382.6 139.4 C 382.6 139.5 382.6 139.5 382.6 139.4 C 382.6 139.4 382.6 139.4 382.6 139.4 Z M 394.1 136.6 C 394.1 136.6 394.1 136.6 394.1 136.6 C 394.1 136.6 394.1 136.6 394.1 136.6 Z M 396.6 139.8 C 396.7 139.8 396.7 139.8 396.6 139.8 C 396.6 139.8 396.6 139.8 396.6 139.8 Z M 398.9 140.4 C 399.0 140.4 399.0 140.4 398.9 140.4 C 398.9 140.4 398.9 140.4 398.9 140.4 Z M 396.5 137.8 C 396.5 137.9 396.5 137.9 396.5 137.8 C 396.5 137.8 396.5 137.8 396.5 137.8 Z M 381.8 138.3 C 377.6 137.3 385.1 137.8 381.8 138.3 M 397.2 138.1 C 394.2 137.8 399.5 137.0 397.2 138.1 C 397.5 137.8 397.2 138.0 397.2 138.1 M 406.4 135.8 C 405.1 136.8 405.2 137.7 405.7 138.8 C 406.3 139.3 406.3 137.3 406.3 139.0 C 404.9 139.3 406.9 141.6 406.8 139.4 C 408.7 139.0 407.1 140.8 408.2 139.9 C 410.2 139.7 409.2 140.3 410.7 140.2 C 411.5 139.0 411.5 140.8 411.9 139.6 C 411.2 140.9 413.5 139.3 413.6 139.9 C 412.2 140.6 418.7 139.9 415.2 139.5 C 416.6 138.9 416.3 140.0 416.8 140.1 C 417.5 139.4 419.2 140.7 420.1 140.0 C 419.9 139.8 419.5 139.7 419.4 139.5 C 419.1 139.0 420.4 139.6 420.2 139.6 C 420.8 139.3 423.2 138.5 420.7 139.9 C 420.5 140.4 422.7 139.6 422.6 140.1 C 424.8 140.1 423.2 138.9 424.1 139.8 C 425.7 139.8 426.8 139.9 426.8 139.7 C 427.7 139.8 427.9 140.5 428.7 139.9 C 430.6 141.2 430.1 137.3 430.8 139.9 C 431.3 139.3 431.9 141.0 431.8 139.4 C 431.1 140.1 435.0 140.6 433.3 139.5 C 433.8 139.1 436.2 141.1 435.9 139.5 C 436.7 138.3 436.6 137.1 434.7 136.0 C 434.9 136.9 432.7 135.0 434.1 136.6 C 435.7 137.2 431.1 137.2 432.1 136.6 C 432.3 134.7 429.8 137.8 428.9 136.4 C 429.7 137.2 425.9 137.6 427.0 136.2 C 426.3 136.0 426.1 136.7 425.4 135.9 C 427.6 136.0 424.5 137.4 424.6 136.5 C 425.0 136.0 421.7 135.6 422.0 136.3 C 423.2 138.3 421.1 135.9 420.6 136.7 C 418.7 137.1 420.9 135.1 419.5 136.5 C 419.1 136.2 416.6 136.2 418.2 135.8 C 418.8 136.0 416.7 138.0 416.5 136.3 C 419.1 135.4 413.4 135.8 414.3 136.3 C 418.4 137.2 410.0 137.3 413.2 136.4 C 411.4 135.5 413.7 136.1 411.5 136.5 C 411.8 137.0 410.1 137.5 410.5 136.4 C 410.1 134.9 409.9 138.5 408.5 136.4 C 408.3 135.5 405.8 137.1 406.7 136.0 C 406.8 135.9 406.4 135.7 406.4 135.8 M 407.2 135.9 C 406.9 136.3 406.7 135.5 407.2 135.9 M 406.8 136.3 C 406.8 136.3 406.8 136.3 406.8 136.3 C 406.8 136.3 406.8 136.3 406.8 136.3 Z M 411.2 136.5 C 411.1 136.5 411.1 136.5 411.2 136.5 C 411.2 136.5 411.2 136.5 411.2 136.5 Z M 414.6 140.5 C 414.6 140.4 414.6 140.4 414.6 140.5 C 414.6 140.5 414.6 140.5 414.6 140.5 Z M 414.1 136.6 C 414.0 136.6 414.0 136.6 414.1 136.6 C 414.1 136.6 414.1 136.6 414.1 136.6 Z M 409.6 136.8 C 409.6 136.8 409.6 136.8 409.6 136.8 C 409.6 136.8 409.6 136.8 409.6 136.8 Z M 413.8 136.0 C 414.0 136.6 412.8 135.6 413.8 135.9 C 413.9 136.0 413.7 136.0 413.8 136.0 M 417.6 135.8 C 417.6 135.9 417.6 135.9 417.6 135.8 M 425.9 140.4 C 425.9 140.5 425.9 140.5 425.9 140.4 M 426.5 135.8 C 426.6 135.8 426.6 135.8 426.5 135.8 M 421.3 136.4 C 422.5 136.3 421.6 136.7 421.3 136.4 M 429.6 136.1 C 428.1 135.7 431.1 135.8 429.6 136.1 M 431.0 135.7 C 431.1 135.8 431.1 135.8 431.0 135.7 M 424.5 136.0 C 424.4 136.0 424.4 136.0 424.5 136.0 C 424.5 136.0 424.5 136.0 424.5 136.0 Z M 420.8 136.2 C 419.3 135.8 422.4 135.6 420.8 136.2 M 411.7 136.0 C 412.5 135.7 411.7 136.7 411.7 136.0 M 410.0 136.3 C 410.0 136.3 410.0 136.3 410.0 136.3 C 410.0 136.3 410.0 136.3 410.0 136.3 Z M 427.3 136.1 C 427.2 136.1 427.2 136.1 427.3 136.1 C 427.3 136.1 427.3 136.1 427.3 136.1 Z M 428.9 135.9 C 428.9 136.0 428.9 136.0 428.9 135.9 C 428.9 135.9 428.9 135.9 428.9 135.9 Z M 431.7 140.3 C 431.7 140.3 431.7 140.3 431.7 140.3 C 431.7 140.3 431.7 140.3 431.7 140.3 Z M 411.2 138.1 C 410.1 137.8 412.4 136.7 412.2 137.7 C 412.3 138.2 411.4 138.0 411.2 138.1 M 419.7 137.5 C 420.0 139.0 418.6 135.5 419.7 137.5 M 431.2 136.7 C 432.3 138.5 429.8 135.5 431.2 136.7 M 433.5 136.4 C 434.1 136.8 429.2 136.6 432.7 136.1 C 433.0 135.9 433.2 136.2 433.5 136.4 M 417.6 136.5 C 417.9 137.3 415.8 136.2 417.6 136.5 M 424.5 139.0 C 425.1 138.4 426.5 138.0 425.9 138.9 C 425.9 140.0 423.9 139.4 424.5 139.0 M 407.5 136.8 C 408.4 135.5 407.5 137.9 407.5 136.8 M 411.9 136.9 C 411.9 136.8 411.9 136.8 411.9 136.9 C 411.9 136.9 411.9 136.9 411.9 136.9 Z M 413.6 136.7 C 413.7 136.8 413.7 136.8 413.6 136.7 M 408.2 135.6 C 408.3 135.7 408.3 135.7 408.2 135.6 M 424.5 137.6 C 424.6 137.7 424.6 137.7 424.5 137.6 M 421.0 136.7 C 422.7 138.0 420.1 137.0 421.0 136.7 M 416.8 139.2 C 417.4 139.8 415.8 139.3 416.8 139.2 M 423.8 136.3 C 424.9 137.5 422.1 137.4 423.8 136.3 M 420.1 136.6 C 420.2 136.6 420.2 136.6 420.1 136.6 C 420.1 136.6 420.1 136.6 420.1 136.6 Z M 425.0 139.1 C 425.0 139.1 425.0 139.1 425.0 139.1 C 425.0 139.1 425.0 139.1 425.0 139.1 Z M 425.5 139.0 C 425.4 139.1 425.4 139.1 425.5 139.0 C 425.5 139.0 425.5 139.0 425.5 139.0 Z M 425.2 136.1 C 425.2 136.1 425.2 136.1 425.2 136.1 C 425.2 136.1 425.2 136.1 425.2 136.1 Z M 409.9 139.7 C 411.1 139.8 408.9 139.9 409.9 139.7 C 409.9 139.7 409.9 139.7 409.9 139.7 Z M 415.2 136.0 C 417.1 137.0 413.8 137.0 415.2 136.0 C 415.2 136.0 415.2 136.0 415.2 136.0 Z M 417.4 137.7 C 417.4 137.7 417.4 137.7 417.4 137.7 C 417.4 137.7 417.4 137.7 417.4 137.7 Z M 423.0 135.5 C 423.0 135.6 423.0 135.6 423.0 135.5 C 423.0 135.5 423.0 135.5 423.0 135.5 Z M 410.5 139.8 C 410.5 139.9 410.5 139.9 410.5 139.8 C 410.5 139.8 410.5 139.8 410.5 139.8 Z M 428.6 136.8 C 428.6 136.8 428.6 136.8 428.6 136.8 C 428.6 136.8 428.6 136.8 428.6 136.8 Z M 421.7 139.3 C 422.2 138.8 421.8 139.7 421.7 139.3 C 421.7 139.3 421.7 139.3 421.7 139.3 Z M 423.5 139.3 C 423.6 139.3 423.6 139.3 423.5 139.3 C 423.5 139.3 423.5 139.3 423.5 139.3 Z M 431.4 135.6 C 431.5 135.6 431.5 135.6 431.4 135.6 C 431.4 135.6 431.4 135.6 431.4 135.6 Z M 428.1 140.5 C 428.1 140.5 428.1 140.5 428.1 140.5 C 428.1 140.5 428.1 140.5 428.1 140.5 Z M 429.6 139.0 C 429.6 139.0 429.6 139.0 429.6 139.0 C 429.6 139.0 429.6 139.0 429.6 139.0 Z M 424.9 136.4 C 426.7 136.2 424.5 137.0 424.9 136.4 C 424.9 136.4 424.9 136.4 424.9 136.4 Z M 434.0 138.6 C 434.1 138.7 434.1 138.7 434.0 138.6 C 434.0 138.6 434.0 138.6 434.0 138.6 Z M 434.9 136.9 C 435.0 137.0 435.0 137.0 434.9 136.9 C 434.9 136.9 434.9 136.9 434.9 136.9 Z M 435.4 136.0 C 435.4 136.1 435.4 136.1 435.4 136.0 C 435.4 136.0 435.4 136.0 435.4 136.0 Z M 413.6 138.5 C 413.5 138.4 413.5 138.4 413.6 138.5 C 413.6 138.5 413.6 138.5 413.6 138.5 Z M 412.9 135.7 C 412.9 135.7 412.9 135.7 412.9 135.7 C 412.9 135.7 412.9 135.7 412.9 135.7 Z M 415.3 135.6 C 415.3 135.6 415.3 135.6 415.3 135.6 C 415.3 135.6 415.3 135.6 415.3 135.6 Z M 413.2 140.1 C 413.1 140.1 413.1 140.1 413.2 140.1 C 413.2 140.1 413.2 140.1 413.2 140.1 Z M 422.2 137.8 C 422.2 137.8 422.2 137.8 422.2 137.8 C 422.2 137.8 422.2 137.8 422.2 137.8 Z M 423.1 138.9 C 423.0 138.9 423.0 138.9 423.1 138.9 C 423.1 138.9 423.1 138.9 423.1 138.9 Z M 421.0 140.4 C 421.0 140.4 421.0 140.4 421.0 140.4 C 421.0 140.4 421.0 140.4 421.0 140.4 Z M 423.7 139.9 C 423.7 139.9 423.7 139.9 423.7 139.9 C 423.7 139.9 423.7 139.9 423.7 139.9 Z M 407.1 139.6 C 407.1 139.7 407.1 139.7 407.1 139.6 C 407.1 139.6 407.1 139.6 407.1 139.6 Z M 406.9 137.5 C 406.8 137.6 406.8 137.6 406.9 137.5 C 406.9 137.5 406.9 137.5 406.9 137.5 Z M 422.5 136.3 C 422.9 135.8 423.3 136.9 422.5 136.3 M 419.0 136.6 C 419.0 136.6 419.0 136.6 419.0 136.6 C 419.0 136.6 419.0 136.6 419.0 136.6 Z M 428.3 136.4 C 428.8 137.2 426.7 135.9 428.3 136.4 C 428.3 136.4 428.3 136.4 428.3 136.4 Z M 426.5 139.9 C 426.5 139.9 426.5 139.9 426.5 139.9 C 426.5 139.9 426.5 139.9 426.5 139.9 Z M 427.4 139.5 C 427.5 139.6 427.5 139.6 427.4 139.5 C 427.4 139.5 427.4 139.5 427.4 139.5 Z M 432.4 137.3 C 432.5 137.3 432.5 137.3 432.4 137.3 M 418.6 135.8 C 419.1 136.2 419.0 136.1 418.6 135.8 M 429.5 136.4 C 429.4 136.4 429.4 136.4 429.5 136.4 C 429.5 136.4 429.5 136.4 429.5 136.4 Z M 433.5 136.8 C 433.5 136.8 433.5 136.8 433.5 136.8 C 433.5 136.8 433.5 136.8 433.5 136.8 Z M 416.2 136.4 C 416.2 137.4 415.8 137.2 416.2 136.4 M 409.3 136.7 C 409.3 136.8 409.3 136.8 409.3 136.7 C 409.3 136.7 409.3 136.7 409.3 136.7 Z M 439.0 136.1 C 437.1 134.9 437.1 136.5 437.1 136.6 C 437.3 134.4 435.4 137.4 435.8 137.8 C 435.7 138.1 437.2 141.8 438.5 139.6 C 438.9 139.3 439.1 139.9 439.3 140.0 C 441.6 139.9 437.8 138.8 440.6 138.8 C 441.1 139.1 440.5 140.9 442.1 139.7 C 442.2 139.9 444.1 140.5 443.4 139.7 C 444.3 140.5 444.8 139.5 445.7 139.3 C 446.4 139.8 445.0 140.6 447.7 139.6 C 448.9 141.1 449.3 138.6 450.3 140.2 C 451.0 140.2 452.1 137.6 450.5 139.1 C 450.7 138.9 449.7 137.6 451.9 138.1 C 451.6 138.4 450.4 141.1 453.7 139.8 C 454.3 139.9 455.6 139.2 455.9 139.5 C 454.1 139.8 458.2 140.7 457.8 139.9 C 460.5 140.4 458.9 139.2 460.9 140.1 C 462.4 140.1 460.3 138.9 462.3 139.6 C 463.8 139.5 462.8 140.2 462.6 140.1 C 463.9 140.2 464.4 139.8 464.8 139.8 C 465.1 139.9 465.7 140.5 466.0 139.8 C 467.4 138.6 466.1 137.4 466.7 136.1 C 465.7 135.6 466.3 137.1 465.6 136.2 C 465.1 136.9 465.5 136.1 462.8 136.3 C 462.9 136.5 463.6 137.0 462.9 137.1 C 461.8 137.0 462.6 134.9 460.8 136.4 C 462.9 136.8 458.0 137.0 459.9 137.5 C 457.5 137.7 459.2 137.3 457.5 136.8 C 457.6 138.2 457.3 135.3 456.7 136.4 C 456.5 135.8 453.8 136.1 455.8 136.9 C 452.9 137.3 454.7 136.5 453.7 135.8 C 452.4 135.7 453.6 138.0 452.8 136.3 C 451.1 135.6 452.7 137.2 451.5 135.8 C 452.1 137.0 450.3 135.8 450.7 137.1 C 447.8 137.2 451.1 135.8 449.1 136.7 C 449.7 136.7 449.4 135.0 448.2 136.1 C 448.7 138.1 446.6 134.3 447.5 137.0 C 443.4 137.8 446.8 135.9 444.6 135.9 C 444.0 135.9 445.2 136.7 444.7 136.8 C 441.8 136.4 444.2 135.7 442.7 137.0 C 439.9 137.3 441.9 135.9 440.5 135.8 C 440.4 136.4 439.3 137.5 439.0 136.1 M 441.5 136.7 C 442.1 136.3 441.9 137.2 441.5 136.7 M 435.8 136.1 C 436.4 135.7 436.2 136.5 435.8 136.1 M 443.8 136.3 C 444.6 135.9 444.1 137.0 443.8 136.3 M 459.0 137.0 C 458.0 137.0 459.5 136.6 459.0 137.0 M 438.1 136.0 C 438.9 135.5 438.3 136.7 438.1 136.0 M 437.1 137.1 C 437.1 137.1 437.1 137.1 437.1 137.1 M 460.5 135.9 C 460.6 135.9 460.6 135.9 460.5 135.9 M 456.5 135.9 C 457.3 135.9 456.0 136.1 456.5 135.9 M 456.3 140.3 C 457.2 140.4 455.8 140.6 456.3 140.3 M 462.8 135.8 C 463.6 135.5 463.0 136.3 462.8 135.8 M 465.0 136.8 C 465.8 136.4 465.6 137.3 465.0 136.8 M 441.0 138.3 C 441.0 138.3 441.0 138.3 441.0 138.3 C 441.0 138.3 441.0 138.3 441.0 138.3 Z M 448.5 139.4 C 447.6 138.9 449.6 139.9 448.5 139.4 M 447.1 136.5 C 447.7 137.4 445.9 136.4 447.1 136.5 C 447.1 136.5 447.1 136.5 447.1 136.5 Z M 445.8 136.9 C 445.8 136.9 445.8 136.9 445.8 136.9 C 445.8 136.9 445.8 136.9 445.8 136.9 Z M 450.0 136.9 C 450.0 136.9 450.0 136.9 450.0 136.9 C 450.0 136.9 450.0 136.9 450.0 136.9 Z M 449.1 137.0 C 448.8 137.2 448.6 136.8 449.1 137.0 C 449.1 137.0 449.1 137.0 449.1 137.0 Z M 455.3 139.9 C 454.9 140.1 454.8 139.7 455.3 139.9 C 455.3 139.9 455.3 139.9 455.3 139.9 Z M 447.8 137.3 C 447.7 138.2 447.2 136.7 447.8 137.3 C 447.8 137.3 447.8 137.3 447.8 137.3 Z M 452.3 139.5 C 452.7 139.2 453.1 140.3 452.3 139.5 M 461.4 136.0 C 461.8 135.8 462.2 136.9 461.4 136.0 M 452.5 135.8 C 452.9 135.5 453.3 136.6 452.5 135.8 M 442.0 136.3 C 442.1 136.4 442.1 136.4 442.0 136.3 M 446.9 140.3 C 447.5 139.9 447.2 140.7 446.9 140.3 M 438.5 140.0 C 439.1 139.6 438.8 140.4 438.5 140.0 M 460.1 140.2 C 460.1 140.0 461.0 140.4 460.1 140.2 M 453.5 137.2 C 454.3 137.3 455.1 137.8 453.5 137.8 C 453.4 137.6 453.9 137.4 453.5 137.2 C 453.5 137.2 453.5 137.2 453.5 137.2 Z M 456.3 139.3 C 456.4 139.4 456.4 139.4 456.3 139.3 M 454.9 136.4 C 455.0 136.5 455.0 136.5 454.9 136.4 M 459.5 136.5 C 459.6 136.6 459.6 136.6 459.5 136.5 M 460.1 136.2 C 460.0 136.3 460.0 136.3 460.1 136.2 C 460.1 136.2 460.1 136.2 460.1 136.2 Z M 465.1 135.9 C 465.1 135.9 465.1 135.9 465.1 135.9 C 465.1 135.9 465.1 135.9 465.1 135.9 Z M 458.0 136.6 C 458.0 136.6 458.0 136.6 458.0 136.6 C 458.0 136.6 458.0 136.6 458.0 136.6 Z M 462.2 140.1 C 462.2 140.1 462.2 140.1 462.2 140.1 C 462.2 140.1 462.2 140.1 462.2 140.1 Z M 461.6 139.5 C 461.6 139.6 461.6 139.6 461.6 139.5 C 461.6 139.5 461.6 139.5 461.6 139.5 Z M 439.4 136.1 C 440.1 135.4 439.8 137.6 439.4 136.1 M 463.9 139.5 C 464.5 140.2 462.7 139.7 463.9 139.5 C 463.9 139.5 463.9 139.5 463.9 139.5 Z M 457.5 137.4 C 457.5 137.5 457.5 137.5 457.5 137.4 M 460.3 136.3 C 460.4 136.4 460.4 136.4 460.3 136.3 M 447.1 135.6 C 447.1 135.7 447.1 135.7 447.1 135.6 M 463.9 136.5 C 466.0 136.7 462.9 137.8 463.9 136.5 M 446.1 136.5 C 446.0 136.4 446.0 136.4 446.1 136.5 M 450.9 138.2 C 452.3 138.1 450.4 138.7 450.9 138.2 M 454.5 137.0 C 454.5 137.1 454.5 137.1 454.5 137.0 C 454.5 137.0 454.5 137.0 454.5 137.0 Z M 452.4 137.0 C 451.3 137.2 452.1 136.8 452.4 137.0 C 452.4 137.0 452.4 137.0 452.4 137.0 Z M 440.4 136.9 C 441.7 137.0 439.0 137.2 440.4 136.9 C 440.4 136.9 440.4 136.9 440.4 136.9 Z M 462.9 138.6 C 462.8 138.7 462.8 138.7 462.9 138.6 C 462.9 138.6 462.9 138.6 462.9 138.6 Z M 457.8 136.0 C 457.1 136.2 457.5 135.7 457.8 136.0 C 457.8 136.0 457.8 136.0 457.8 136.0 Z M 465.8 135.9 C 465.2 136.1 465.5 135.6 465.8 135.9 C 465.8 135.9 465.8 135.9 465.8 135.9 Z M 438.8 136.7 C 443.7 138.3 432.2 136.4 438.8 136.7 C 438.8 136.7 438.8 136.7 438.8 136.7 Z M 453.2 136.4 C 453.2 136.5 453.2 136.5 453.2 136.4 C 453.2 136.4 453.2 136.4 453.2 136.4 Z M 444.1 135.8 C 444.1 135.8 444.1 135.8 444.1 135.8 C 444.1 135.8 444.1 135.8 444.1 135.8 Z M 442.6 136.6 C 442.5 136.7 442.5 136.7 442.6 136.6 C 442.6 136.6 442.6 136.6 442.6 136.6 Z M 443.0 140.2 C 443.0 140.2 443.0 140.2 443.0 140.2 C 443.0 140.2 443.0 140.2 443.0 140.2 Z M 443.5 138.6 C 443.5 138.7 443.5 138.7 443.5 138.6 C 443.5 138.6 443.5 138.6 443.5 138.6 Z M 440.3 139.2 C 440.3 139.2 440.3 139.2 440.3 139.2 C 440.3 139.2 440.3 139.2 440.3 139.2 Z M 440.4 139.6 C 440.4 139.7 440.4 139.7 440.4 139.6 C 440.4 139.6 440.4 139.6 440.4 139.6 Z M 460.3 137.3 C 460.3 137.4 460.3 137.4 460.3 137.3 C 460.3 137.3 460.3 137.3 460.3 137.3 Z M 458.6 138.8 C 459.8 138.3 458.3 139.6 458.6 138.8 C 458.6 138.8 458.6 138.8 458.6 138.8 Z M 448.4 138.1 C 449.5 137.9 447.8 138.5 448.4 138.1 C 448.4 138.1 448.4 138.1 448.4 138.1 Z M 449.6 140.0 C 449.6 140.0 449.6 140.0 449.6 140.0 C 449.6 140.0 449.6 140.0 449.6 140.0 Z M 442.6 135.8 C 442.5 135.9 442.5 135.9 442.6 135.8 C 442.6 135.8 442.6 135.8 442.6 135.8 Z M 440.6 136.4 C 440.6 137.1 440.0 136.0 440.6 136.4 M 450.4 135.9 C 450.4 136.0 450.4 136.0 450.4 135.9 C 450.4 135.9 450.4 135.9 450.4 135.9 Z M 456.6 137.1 C 456.6 137.2 456.6 137.2 456.6 137.1 C 456.6 137.1 456.6 137.1 456.6 137.1 Z M 462.7 136.6 C 462.7 136.7 462.7 136.7 462.7 136.6 C 462.7 136.6 462.7 136.6 462.7 136.6 Z M 454.3 136.0 C 454.2 136.1 454.2 136.1 454.3 136.0 C 454.3 136.0 454.3 136.0 454.3 136.0 Z M 451.3 136.7 C 451.3 136.8 451.3 136.8 451.3 136.7 C 451.3 136.7 451.3 136.7 451.3 136.7 Z M 464.1 137.7 C 464.0 137.7 464.0 137.7 464.1 137.7 C 464.1 137.7 464.1 137.7 464.1 137.7 Z M 454.9 135.9 C 454.9 136.0 454.9 136.0 454.9 135.9 C 454.9 135.9 454.9 135.9 454.9 135.9 Z M 456.7 138.3 C 456.7 138.4 456.7 138.4 456.7 138.3 C 456.7 138.3 456.7 138.3 456.7 138.3 Z M 440.9 135.3 C 440.9 135.3 440.9 135.3 440.9 135.3 C 440.9 135.3 440.9 135.3 440.9 135.3 Z M 464.2 136.7 C 464.1 136.7 464.1 136.7 464.2 136.7 C 464.2 136.7 464.2 136.7 464.2 136.7 Z M 464.5 136.0 C 464.5 136.1 464.5 136.1 464.5 136.0 C 464.5 136.0 464.5 136.0 464.5 136.0 Z M 460.2 139.6 C 458.0 139.2 462.1 139.4 460.6 138.6 C 463.7 138.4 460.6 139.6 460.2 139.6 C 460.2 139.6 460.2 139.6 460.2 139.6 Z M 467.4 135.8 C 466.2 136.8 466.2 137.7 466.8 138.8 C 467.3 139.3 467.3 137.3 467.4 139.0 C 466.0 139.3 468.0 141.6 467.9 139.4 C 469.7 139.0 468.2 140.8 469.3 139.9 C 471.2 139.7 470.3 140.3 471.7 140.2 C 472.6 139.0 472.6 140.8 473.0 139.6 C 472.3 140.9 474.6 139.3 474.6 139.9 C 473.3 140.6 479.8 139.9 476.2 139.5 C 477.7 138.9 477.4 140.0 477.9 140.1 C 478.5 139.4 480.3 140.7 481.2 140.0 C 481.0 139.8 480.6 139.7 480.4 139.5 C 480.2 139.0 481.4 139.6 481.3 139.6 C 481.9 139.3 484.2 138.5 481.7 139.9 C 481.6 140.4 483.8 139.6 483.7 140.1 C 485.9 140.1 484.2 138.9 485.2 139.8 C 486.7 139.8 487.9 139.9 487.9 139.7 C 488.8 139.8 489.0 140.5 489.8 139.9 C 491.7 141.2 491.2 137.3 491.9 139.9 C 492.4 139.3 492.9 141.0 492.9 139.4 C 492.2 140.1 496.1 140.6 494.4 139.5 C 494.9 139.1 497.3 141.1 497.0 139.5 C 497.8 138.3 497.7 137.1 495.8 136.0 C 496.0 136.9 493.8 135.0 495.2 136.6 C 496.8 137.2 492.2 137.2 493.2 136.6 C 493.4 134.7 490.9 137.8 490.0 136.4 C 490.8 137.2 487.0 137.6 488.1 136.2 C 487.4 136.0 487.2 136.7 486.5 135.9 C 488.7 136.0 485.6 137.4 485.7 136.5 C 486.1 136.0 482.7 135.6 483.1 136.3 C 484.3 138.3 482.2 135.9 481.6 136.7 C 479.8 137.1 481.9 135.1 480.6 136.5 C 480.2 136.2 477.7 136.2 479.3 135.8 C 479.9 136.0 477.8 138.0 477.6 136.3 C 480.2 135.4 474.5 135.8 475.4 136.3 C 479.5 137.2 471.1 137.3 474.3 136.4 C 472.5 135.5 474.8 136.1 472.6 136.5 C 472.9 137.0 471.1 137.5 471.5 136.4 C 471.2 134.9 470.9 138.5 469.6 136.4 C 469.4 135.5 466.8 137.1 467.8 136.0 C 467.9 135.9 467.5 135.7 467.4 135.8 M 468.2 135.9 C 468.0 136.3 467.8 135.5 468.2 135.9 M 467.9 136.3 C 467.9 136.3 467.9 136.3 467.9 136.3 C 467.9 136.3 467.9 136.3 467.9 136.3 Z M 472.2 136.5 C 472.2 136.5 472.2 136.5 472.2 136.5 C 472.2 136.5 472.2 136.5 472.2 136.5 Z M 475.7 140.5 C 475.6 140.4 475.6 140.4 475.7 140.5 C 475.7 140.5 475.7 140.5 475.7 140.5 Z M 475.1 136.6 C 475.1 136.6 475.1 136.6 475.1 136.6 C 475.1 136.6 475.1 136.6 475.1 136.6 Z M 470.7 136.8 C 470.7 136.8 470.7 136.8 470.7 136.8 C 470.7 136.8 470.7 136.8 470.7 136.8 Z M 474.9 136.0 C 475.1 136.6 473.9 135.6 474.9 135.9 C 475.0 136.0 474.8 136.0 474.9 136.0 M 478.6 135.8 C 478.7 135.9 478.7 135.9 478.6 135.8 M 486.9 140.4 C 487.0 140.5 487.0 140.5 486.9 140.4 M 487.6 135.8 C 487.7 135.8 487.7 135.8 487.6 135.8 M 482.4 136.4 C 483.5 136.3 482.7 136.7 482.4 136.4 M 490.7 136.1 C 489.2 135.7 492.2 135.8 490.7 136.1 M 492.1 135.7 C 492.2 135.8 492.2 135.8 492.1 135.7 M 485.5 136.0 C 485.5 136.0 485.5 136.0 485.5 136.0 C 485.5 136.0 485.5 136.0 485.5 136.0 Z M 481.9 136.2 C 480.4 135.8 483.4 135.6 481.9 136.2 M 472.8 136.0 C 473.6 135.7 472.8 136.7 472.8 136.0 M 471.1 136.3 C 471.0 136.3 471.0 136.3 471.1 136.3 C 471.1 136.3 471.1 136.3 471.1 136.3 Z M 488.3 136.1 C 488.3 136.1 488.3 136.1 488.3 136.1 C 488.3 136.1 488.3 136.1 488.3 136.1 Z M 490.0 135.9 C 490.0 136.0 490.0 136.0 490.0 135.9 C 490.0 135.9 490.0 135.9 490.0 135.9 Z M 492.8 140.3 C 492.7 140.3 492.7 140.3 492.8 140.3 C 492.8 140.3 492.8 140.3 492.8 140.3 Z M 472.3 138.1 C 471.2 137.8 473.5 136.7 473.2 137.7 C 473.4 138.2 472.5 138.0 472.3 138.1 M 480.8 137.5 C 481.1 139.0 479.7 135.5 480.8 137.5 M 492.3 136.7 C 493.4 138.5 490.9 135.5 492.3 136.7 M 494.6 136.4 C 495.2 136.8 490.3 136.6 493.8 136.1 C 494.1 135.9 494.3 136.2 494.6 136.4 M 478.7 136.5 C 479.0 137.3 476.9 136.2 478.7 136.5 M 485.6 139.0 C 486.2 138.4 487.6 138.0 487.0 138.9 C 487.0 140.0 485.0 139.4 485.6 139.0 M 468.6 136.8 C 469.5 135.5 468.6 137.9 468.6 136.8 M 473.0 136.9 C 473.0 136.8 473.0 136.8 473.0 136.9 C 473.0 136.9 473.0 136.9 473.0 136.9 Z M 474.7 136.7 C 474.8 136.8 474.8 136.8 474.7 136.7 M 469.3 135.6 C 469.4 135.7 469.4 135.7 469.3 135.6 M 485.6 137.6 C 485.7 137.7 485.7 137.7 485.6 137.6 M 482.1 136.7 C 483.7 138.0 481.2 137.0 482.1 136.7 M 477.9 139.2 C 478.4 139.8 476.9 139.3 477.9 139.2 M 484.8 136.3 C 486.0 137.5 483.2 137.4 484.8 136.3 M 481.2 136.6 C 481.3 136.6 481.3 136.6 481.2 136.6 C 481.2 136.6 481.2 136.6 481.2 136.6 Z M 486.1 139.1 C 486.0 139.1 486.0 139.1 486.1 139.1 C 486.1 139.1 486.1 139.1 486.1 139.1 Z M 486.6 139.0 C 486.5 139.1 486.5 139.1 486.6 139.0 C 486.6 139.0 486.6 139.0 486.6 139.0 Z M 486.3 136.1 C 486.2 136.1 486.2 136.1 486.3 136.1 C 486.3 136.1 486.3 136.1 486.3 136.1 Z M 470.9 139.7 C 472.1 139.8 470.0 139.9 470.9 139.7 C 470.9 139.7 470.9 139.7 470.9 139.7 Z M 476.2 136.0 C 478.2 137.0 474.9 137.0 476.2 136.0 C 476.2 136.0 476.2 136.0 476.2 136.0 Z M 478.5 137.7 C 478.5 137.7 478.5 137.7 478.5 137.7 C 478.5 137.7 478.5 137.7 478.5 137.7 Z M 484.1 135.5 C 484.1 135.6 484.1 135.6 484.1 135.5 C 484.1 135.5 484.1 135.5 484.1 135.5 Z M 471.5 139.8 C 471.5 139.9 471.5 139.9 471.5 139.8 C 471.5 139.8 471.5 139.8 471.5 139.8 Z M 489.7 136.8 C 489.7 136.8 489.7 136.8 489.7 136.8 C 489.7 136.8 489.7 136.8 489.7 136.8 Z M 482.8 139.3 C 483.3 138.8 482.9 139.7 482.8 139.3 C 482.8 139.3 482.8 139.3 482.8 139.3 Z M 484.6 139.3 C 484.7 139.3 484.7 139.3 484.6 139.3 C 484.6 139.3 484.6 139.3 484.6 139.3 Z M 492.5 135.6 C 492.6 135.6 492.6 135.6 492.5 135.6 C 492.5 135.6 492.5 135.6 492.5 135.6 Z M 489.2 140.5 C 489.2 140.5 489.2 140.5 489.2 140.5 C 489.2 140.5 489.2 140.5 489.2 140.5 Z M 490.7 139.0 C 490.6 139.0 490.6 139.0 490.7 139.0 C 490.7 139.0 490.7 139.0 490.7 139.0 Z M 486.0 136.4 C 487.8 136.2 485.6 137.0 486.0 136.4 C 486.0 136.4 486.0 136.4 486.0 136.4 Z M 495.1 138.6 C 495.1 138.7 495.1 138.7 495.1 138.6 C 495.1 138.6 495.1 138.6 495.1 138.6 Z M 496.0 136.9 C 496.1 137.0 496.1 137.0 496.0 136.9 C 496.0 136.9 496.0 136.9 496.0 136.9 Z M 496.5 136.0 C 496.5 136.1 496.5 136.1 496.5 136.0 C 496.5 136.0 496.5 136.0 496.5 136.0 Z M 474.7 138.5 C 474.6 138.4 474.6 138.4 474.7 138.5 C 474.7 138.5 474.7 138.5 474.7 138.5 Z M 474.0 135.7 C 473.9 135.7 473.9 135.7 474.0 135.7 C 474.0 135.7 474.0 135.7 474.0 135.7 Z M 476.4 135.6 C 476.4 135.6 476.4 135.6 476.4 135.6 C 476.4 135.6 476.4 135.6 476.4 135.6 Z M 474.2 140.1 C 474.2 140.1 474.2 140.1 474.2 140.1 C 474.2 140.1 474.2 140.1 474.2 140.1 Z M 483.3 137.8 C 483.3 137.8 483.3 137.8 483.3 137.8 C 483.3 137.8 483.3 137.8 483.3 137.8 Z M 484.2 138.9 C 484.1 138.9 484.1 138.9 484.2 138.9 C 484.2 138.9 484.2 138.9 484.2 138.9 Z M 482.1 140.4 C 482.1 140.4 482.1 140.4 482.1 140.4 C 482.1 140.4 482.1 140.4 482.1 140.4 Z M 484.8 139.9 C 484.8 139.9 484.8 139.9 484.8 139.9 C 484.8 139.9 484.8 139.9 484.8 139.9 Z M 468.2 139.6 C 468.1 139.7 468.1 139.7 468.2 139.6 C 468.2 139.6 468.2 139.6 468.2 139.6 Z M 468.0 137.5 C 467.9 137.6 467.9 137.6 468.0 137.5 C 468.0 137.5 468.0 137.5 468.0 137.5 Z M 483.6 136.3 C 484.0 135.8 484.4 136.9 483.6 136.3 M 480.1 136.6 C 480.1 136.6 480.1 136.6 480.1 136.6 C 480.1 136.6 480.1 136.6 480.1 136.6 Z M 489.4 136.4 C 489.8 137.2 487.8 135.9 489.4 136.4 C 489.4 136.4 489.4 136.4 489.4 136.4 Z M 487.6 139.9 C 487.6 139.9 487.6 139.9 487.6 139.9 C 487.6 139.9 487.6 139.9 487.6 139.9 Z M 488.5 139.5 C 488.5 139.6 488.5 139.6 488.5 139.5 C 488.5 139.5 488.5 139.5 488.5 139.5 Z M 493.5 137.3 C 493.6 137.3 493.6 137.3 493.5 137.3 M 479.7 135.8 C 480.2 136.2 480.1 136.1 479.7 135.8 M 490.6 136.4 C 490.5 136.4 490.5 136.4 490.6 136.4 C 490.6 136.4 490.6 136.4 490.6 136.4 Z M 494.6 136.8 C 494.5 136.8 494.5 136.8 494.6 136.8 C 494.6 136.8 494.6 136.8 494.6 136.8 Z M 477.2 136.4 C 477.3 137.4 476.8 137.2 477.2 136.4 M 470.4 136.7 C 470.4 136.8 470.4 136.8 470.4 136.7 C 470.4 136.7 470.4 136.7 470.4 136.7 Z M 500.1 136.1 C 498.2 134.9 498.2 136.5 498.2 136.6 C 498.4 134.4 496.5 137.4 496.9 137.8 C 496.8 138.1 498.3 141.8 499.6 139.6 C 500.0 139.3 500.2 139.9 500.4 140.0 C 502.7 139.9 498.8 138.8 501.6 138.8 C 502.1 139.1 501.6 140.9 503.2 139.7 C 503.3 139.9 505.2 140.5 504.4 139.7 C 505.3 140.5 505.9 139.5 506.7 139.3 C 507.5 139.8 506.1 140.6 508.8 139.6 C 510.0 141.1 510.4 138.6 511.4 140.2 C 512.1 140.2 513.1 137.6 511.6 139.1 C 511.8 138.9 510.8 137.6 512.9 138.1 C 512.6 138.4 511.5 141.1 514.8 139.8 C 515.4 139.9 516.6 139.2 516.9 139.5 C 515.2 139.8 519.3 140.7 518.9 139.9 C 521.5 140.4 520.0 139.2 521.9 140.1 C 523.5 140.1 521.4 138.9 523.4 139.6 C 524.9 139.5 523.9 140.2 523.7 140.1 C 525.0 140.2 525.5 139.8 525.9 139.8 C 526.2 139.9 526.8 140.5 527.1 139.8 C 528.5 138.6 527.2 137.4 527.8 136.1 C 526.8 135.6 527.4 137.1 526.7 136.2 C 526.2 136.9 526.6 136.1 523.9 136.3 C 524.0 136.5 524.6 137.0 524.0 137.1 C 522.9 137.0 523.7 134.9 521.9 136.4 C 524.0 136.8 519.0 137.0 521.0 137.5 C 518.6 137.7 520.3 137.3 518.5 136.8 C 518.6 138.2 518.4 135.3 517.8 136.4 C 517.6 135.8 514.9 136.1 516.8 136.9 C 514.0 137.3 515.8 136.5 514.8 135.8 C 513.5 135.7 514.7 138.0 513.9 136.3 C 512.2 135.6 513.8 137.2 512.6 135.8 C 513.1 137.0 511.3 135.8 511.8 137.1 C 508.9 137.2 512.2 135.8 510.1 136.7 C 510.8 136.7 510.5 135.0 509.3 136.1 C 509.8 138.1 507.6 134.3 508.5 137.0 C 504.5 137.8 507.9 135.9 505.6 135.9 C 505.1 135.9 506.3 136.7 505.8 136.8 C 502.9 136.4 505.3 135.7 503.8 137.0 C 501.0 137.3 503.0 135.9 501.6 135.8 C 501.5 136.4 500.3 137.5 500.1 136.1 M 502.6 136.7 C 503.2 136.3 503.0 137.2 502.6 136.7 M 496.9 136.1 C 497.5 135.7 497.3 136.5 496.9 136.1 M 504.9 136.3 C 505.7 135.9 505.2 137.0 504.9 136.3 M 520.1 137.0 C 519.1 137.0 520.6 136.6 520.1 137.0 M 499.2 136.0 C 500.0 135.5 499.4 136.7 499.2 136.0 M 498.1 137.1 C 498.2 137.1 498.2 137.1 498.1 137.1 M 521.6 135.9 C 521.7 135.9 521.7 135.9 521.6 135.9 M 517.6 135.9 C 518.4 135.9 517.1 136.1 517.6 135.9 M 517.4 140.3 C 518.3 140.4 516.9 140.6 517.4 140.3 M 523.9 135.8 C 524.7 135.5 524.1 136.3 523.9 135.8 M 526.1 136.8 C 526.9 136.4 526.6 137.3 526.1 136.8 M 502.1 138.3 C 502.1 138.3 502.1 138.3 502.1 138.3 C 502.1 138.3 502.1 138.3 502.1 138.3 Z M 509.5 139.4 C 508.7 138.9 510.6 139.9 509.5 139.4 M 508.2 136.5 C 508.8 137.4 507.0 136.4 508.2 136.5 C 508.2 136.5 508.2 136.5 508.2 136.5 Z M 506.9 136.9 C 506.8 136.9 506.8 136.9 506.9 136.9 C 506.9 136.9 506.9 136.9 506.9 136.9 Z M 511.1 136.9 C 511.0 136.9 511.0 136.9 511.1 136.9 C 511.1 136.9 511.1 136.9 511.1 136.9 Z M 510.2 137.0 C 509.9 137.2 509.7 136.8 510.2 137.0 C 510.2 137.0 510.2 137.0 510.2 137.0 Z M 516.3 139.9 C 516.0 140.1 515.9 139.7 516.3 139.9 C 516.3 139.9 516.3 139.9 516.3 139.9 Z M 508.9 137.3 C 508.8 138.2 508.3 136.7 508.9 137.3 C 508.9 137.3 508.9 137.3 508.9 137.3 Z M 513.4 139.5 C 513.8 139.2 514.2 140.3 513.4 139.5 M 522.5 136.0 C 522.9 135.8 523.3 136.9 522.5 136.0 M 513.6 135.8 C 513.9 135.5 514.3 136.6 513.6 135.8 M 503.1 136.3 C 503.2 136.4 503.2 136.4 503.1 136.3 M 508.0 140.3 C 508.6 139.9 508.3 140.7 508.0 140.3 M 499.6 140.0 C 500.2 139.6 499.9 140.4 499.6 140.0 M 521.2 140.2 C 521.2 140.0 522.1 140.4 521.2 140.2 M 514.6 137.2 C 515.4 137.3 516.2 137.8 514.6 137.8 C 514.5 137.6 515.0 137.4 514.6 137.2 C 514.6 137.2 514.6 137.2 514.6 137.2 Z M 517.4 139.3 C 517.5 139.4 517.5 139.4 517.4 139.3 M 516.0 136.4 C 516.1 136.5 516.1 136.5 516.0 136.4 M 520.6 136.5 C 520.7 136.6 520.7 136.6 520.6 136.5 M 521.1 136.2 C 521.1 136.3 521.1 136.3 521.1 136.2 C 521.1 136.2 521.1 136.2 521.1 136.2 Z M 526.1 135.9 C 526.1 135.9 526.1 135.9 526.1 135.9 C 526.1 135.9 526.1 135.9 526.1 135.9 Z M 519.1 136.6 C 519.1 136.6 519.1 136.6 519.1 136.6 C 519.1 136.6 519.1 136.6 519.1 136.6 Z M 523.2 140.1 C 523.2 140.1 523.2 140.1 523.2 140.1 C 523.2 140.1 523.2 140.1 523.2 140.1 Z M 522.7 139.5 C 522.7 139.6 522.7 139.6 522.7 139.5 C 522.7 139.5 522.7 139.5 522.7 139.5 Z M 500.5 136.1 C 501.2 135.4 500.9 137.6 500.5 136.1 M 524.9 139.5 C 525.6 140.2 523.8 139.7 524.9 139.5 C 524.9 139.5 524.9 139.5 524.9 139.5 Z M 518.6 137.4 C 518.6 137.5 518.6 137.5 518.6 137.4 M 521.4 136.3 C 521.5 136.4 521.5 136.4 521.4 136.3 M 508.1 135.6 C 508.2 135.7 508.2 135.7 508.1 135.6 M 524.9 136.5 C 527.1 136.7 524.0 137.8 524.9 136.5 M 507.2 136.5 C 507.1 136.4 507.1 136.4 507.2 136.5 M 512.0 138.2 C 513.4 138.1 511.4 138.7 512.0 138.2 M 515.6 137.0 C 515.6 137.1 515.6 137.1 515.6 137.0 C 515.6 137.0 515.6 137.0 515.6 137.0 Z M 513.5 137.0 C 512.4 137.2 513.2 136.8 513.5 137.0 C 513.5 137.0 513.5 137.0 513.5 137.0 Z M 501.5 136.9 C 502.8 137.0 500.1 137.2 501.5 136.9 C 501.5 136.9 501.5 136.9 501.5 136.9 Z M 524.0 138.6 C 523.9 138.7 523.9 138.7 524.0 138.6 C 524.0 138.6 524.0 138.6 524.0 138.6 Z M 518.8 136.0 C 518.2 136.2 518.6 135.7 518.8 136.0 C 518.8 136.0 518.8 136.0 518.8 136.0 Z M 526.9 135.9 C 526.3 136.1 526.6 135.6 526.9 135.9 C 526.9 135.9 526.9 135.9 526.9 135.9 Z M 499.9 136.7 C 504.8 138.3 493.3 136.4 499.9 136.7 C 499.9 136.7 499.9 136.7 499.9 136.7 Z M 514.3 136.4 C 514.3 136.5 514.3 136.5 514.3 136.4 C 514.3 136.4 514.3 136.4 514.3 136.4 Z M 505.2 135.8 C 505.2 135.8 505.2 135.8 505.2 135.8 C 505.2 135.8 505.2 135.8 505.2 135.8 Z M 503.6 136.6 C 503.6 136.7 503.6 136.7 503.6 136.6 C 503.6 136.6 503.6 136.6 503.6 136.6 Z M 504.1 140.2 C 504.1 140.2 504.1 140.2 504.1 140.2 C 504.1 140.2 504.1 140.2 504.1 140.2 Z M 504.6 138.6 C 504.5 138.7 504.5 138.7 504.6 138.6 C 504.6 138.6 504.6 138.6 504.6 138.6 Z M 501.4 139.2 C 501.4 139.2 501.4 139.2 501.4 139.2 C 501.4 139.2 501.4 139.2 501.4 139.2 Z M 501.5 139.6 C 501.5 139.7 501.5 139.7 501.5 139.6 C 501.5 139.6 501.5 139.6 501.5 139.6 Z M 521.4 137.3 C 521.4 137.4 521.4 137.4 521.4 137.3 C 521.4 137.3 521.4 137.3 521.4 137.3 Z M 519.7 138.8 C 520.9 138.3 519.4 139.6 519.7 138.8 C 519.7 138.8 519.7 138.8 519.7 138.8 Z M 509.5 138.1 C 510.6 137.9 508.8 138.5 509.5 138.1 C 509.5 138.1 509.5 138.1 509.5 138.1 Z M 510.7 140.0 C 510.7 140.0 510.7 140.0 510.7 140.0 C 510.7 140.0 510.7 140.0 510.7 140.0 Z M 503.7 135.8 C 503.6 135.9 503.6 135.9 503.7 135.8 C 503.7 135.8 503.7 135.8 503.7 135.8 Z M 501.7 136.4 C 501.6 137.1 501.1 136.0 501.7 136.4 M 511.5 135.9 C 511.5 136.0 511.5 136.0 511.5 135.9 C 511.5 135.9 511.5 135.9 511.5 135.9 Z M 517.7 137.1 C 517.7 137.2 517.7 137.2 517.7 137.1 C 517.7 137.1 517.7 137.1 517.7 137.1 Z M 523.8 136.6 C 523.8 136.7 523.8 136.7 523.8 136.6 C 523.8 136.6 523.8 136.6 523.8 136.6 Z M 515.3 136.0 C 515.3 136.1 515.3 136.1 515.3 136.0 C 515.3 136.0 515.3 136.0 515.3 136.0 Z M 512.4 136.7 C 512.4 136.8 512.4 136.8 512.4 136.7 C 512.4 136.7 512.4 136.7 512.4 136.7 Z M 525.2 137.7 C 525.1 137.7 525.1 137.7 525.2 137.7 C 525.2 137.7 525.2 137.7 525.2 137.7 Z M 516.0 135.9 C 516.0 136.0 516.0 136.0 516.0 135.9 C 516.0 135.9 516.0 135.9 516.0 135.9 Z M 517.8 138.3 C 517.8 138.4 517.8 138.4 517.8 138.3 C 517.8 138.3 517.8 138.3 517.8 138.3 Z M 502.0 135.3 C 502.0 135.3 502.0 135.3 502.0 135.3 C 502.0 135.3 502.0 135.3 502.0 135.3 Z M 525.2 136.7 C 525.2 136.7 525.2 136.7 525.2 136.7 C 525.2 136.7 525.2 136.7 525.2 136.7 Z M 525.6 136.0 C 525.6 136.1 525.6 136.1 525.6 136.0 C 525.6 136.0 525.6 136.0 525.6 136.0 Z M 521.3 139.6 C 519.1 139.2 523.2 139.4 521.6 138.6 C 524.7 138.4 521.7 139.6 521.3 139.6 C 521.3 139.6 521.3 139.6 521.3 139.6 Z M 521.3 139.6 " fill="#71AFE1"></path><path d="M 369.1 135.6 C 370.4 136.0 368.9 138.3 370.3 138.7 C 371.6 139.1 369.5 140.3 368.3 140.9 C 368.2 140.9 368.1 140.9 368.1 141.0 C 367.8 141.0 367.5 141.0 367.2 141.0 C 367.8 141.0 366.7 141.8 367.1 142.2 C 367.1 142.3 367.9 142.3 368.0 142.3 C 368.3 142.8 368.7 143.0 369.2 143.5 C 369.3 143.6 369.3 143.7 369.4 143.8 C 369.4 143.8 369.5 143.8 369.5 143.9 C 369.7 144.0 369.3 144.9 369.5 145.0 C 369.5 145.1 370.1 145.3 370.2 145.4 C 370.3 145.6 370.3 144.8 370.4 145.0 C 370.5 145.1 370.6 145.4 370.6 145.4 C 370.8 145.8 370.9 145.8 371.2 146.1 C 371.3 146.1 371.4 146.2 371.4 146.3 C 372.0 146.3 372.2 147.0 372.6 147.6 C 372.6 147.6 372.8 149.1 372.9 149.2 C 373.0 149.3 373.0 149.3 373.1 149.3 C 373.1 149.4 373.1 149.5 373.0 149.6 C 372.9 149.9 372.5 150.0 372.2 149.7 C 371.9 149.3 373.6 150.6 373.3 150.8 C 372.6 151.2 372.7 150.5 372.4 150.2 C 372.0 149.9 371.4 150.5 371.0 149.9 C 370.9 149.6 370.2 148.0 369.8 148.4 C 370.0 148.9 370.3 148.5 370.0 149.0 C 369.7 149.5 369.3 148.8 369.1 148.6 C 368.9 148.5 368.6 148.7 368.5 148.6 C 368.0 148.4 367.4 148.3 367.0 147.9 C 366.9 147.8 367.0 145.9 366.2 146.8 C 365.9 147.2 365.7 147.4 365.3 146.9 C 365.3 146.8 365.2 146.7 365.2 146.6 C 365.2 146.5 365.2 146.4 365.3 146.2 C 365.2 146.2 365.1 146.2 365.1 146.1 C 364.8 146.0 364.6 145.9 364.4 145.7 C 364.4 145.9 364.4 145.9 364.3 146.1 C 363.8 145.6 363.6 144.8 363.0 144.5 C 362.5 144.2 363.5 145.1 363.1 145.6 C 362.8 145.5 361.4 144.6 361.3 144.2 C 360.9 144.1 362.2 143.8 362.0 143.3 C 361.9 143.0 360.9 143.3 361.0 142.8 C 361.0 142.6 360.2 142.5 360.1 142.4 C 360.0 142.3 359.4 142.8 359.3 142.8 C 359.2 142.8 359.0 142.8 358.9 142.8 C 358.8 142.7 358.7 142.7 358.6 142.4 C 358.6 142.4 358.7 141.8 358.7 141.7 C 358.7 141.8 358.3 141.9 358.3 142.0 C 358.0 142.1 357.6 141.9 357.5 141.7 C 357.5 141.6 357.4 141.5 357.3 141.4 C 356.8 141.0 357.4 141.1 356.8 140.8 C 356.6 140.7 356.4 140.6 356.1 140.6 L 354.9 139.7 C 354.9 139.6 354.2 139.0 354.1 139.0 C 352.7 138.0 354.7 137.5 354.8 137.4 C 354.9 137.3 355.3 136.9 355.4 136.8 C 355.9 136.5 356.5 136.2 356.7 135.7 C 356.8 135.7 357.1 135.5 357.2 135.5 C 355.7 138.0 360.0 133.8 358.3 134.1 C 358.3 134.1 358.4 134.0 358.4 133.9 C 358.4 133.8 358.7 133.7 358.8 133.7 C 359.0 133.5 359.0 133.8 359.3 133.7 C 359.6 133.5 359.8 133.4 360.2 133.3 C 360.6 133.2 360.0 133.0 360.9 132.2 C 359.5 135.6 361.8 133.9 362.8 133.0 C 363.2 132.7 362.1 131.7 362.4 131.5 C 364.1 130.3 363.2 131.9 363.2 132.2 C 363.4 131.9 363.4 132.7 364.5 131.4 C 364.7 131.2 364.7 130.7 364.8 130.6 C 365.1 130.3 365.7 129.9 366.1 129.8 C 366.6 129.9 367.1 130.4 367.5 130.2 C 367.9 129.9 367.7 129.5 367.5 129.0 C 367.6 129.0 369.1 128.7 369.0 128.4 C 368.9 128.4 368.8 128.4 368.7 128.5 L 368.7 128.4 C 369.0 128.2 368.9 127.9 369.0 127.8 L 369.7 127.4 C 369.9 127.4 369.5 129.2 369.7 129.1 C 374.4 127.0 370.6 127.3 370.8 127.1 C 370.8 127.1 371.1 127.1 371.4 127.1 C 371.6 127.1 371.7 127.0 371.8 127.0 C 372.1 126.6 372.6 126.5 373.1 126.4 C 373.2 126.4 373.3 126.4 373.4 126.4 C 373.8 126.4 374.2 126.4 374.3 126.7 C 374.0 127.6 373.5 127.9 373.0 128.5 C 372.9 128.6 372.8 128.6 372.8 128.7 C 372.5 128.9 372.3 129.2 372.2 129.6 C 372.1 129.7 372.0 129.8 372.0 129.8 C 371.5 130.5 371.2 131.3 371.0 132.0 C 370.9 132.1 370.2 132.1 370.1 132.2 C 370.0 132.4 370.6 132.7 370.3 132.7 C 370.3 132.8 369.2 133.2 369.1 133.3 C 368.9 133.5 369.6 133.3 369.4 133.5 C 369.3 133.5 369.2 133.6 369.1 133.7 C 369.0 134.4 367.1 134.5 367.6 135.4 C 369.0 135.8 367.7 135.2 369.1 135.6 Z M 373.4 148.9 C 373.2 148.9 373.2 148.9 373.3 148.6 C 373.4 148.8 373.5 148.9 373.4 148.9 Z M 372.5 148.8 C 372.4 148.8 372.3 148.8 372.2 148.7 C 371.8 148.7 371.8 148.4 371.7 148.1 C 371.7 148.0 371.7 147.6 371.7 147.5 C 371.7 147.0 371.8 146.9 371.7 147.0 C 371.7 147.1 371.6 146.8 371.3 146.8 C 371.3 146.7 371.3 147.0 371.3 147.0 C 371.3 147.1 370.9 147.2 370.9 147.3 C 370.9 147.3 371.4 147.5 371.4 147.7 C 371.4 147.8 371.4 148.3 371.4 148.4 C 371.5 148.4 372.1 149.0 372.3 148.8 C 372.4 148.8 372.5 148.8 372.5 148.8 Z M 368.0 145.3 C 367.8 145.0 367.7 144.7 367.7 144.4 C 367.7 144.4 367.7 144.3 367.7 144.2 C 367.7 144.0 367.7 143.9 367.7 143.8 C 367.6 143.7 367.4 143.9 367.5 143.8 C 367.5 144.0 367.4 144.2 367.5 144.1 C 367.4 144.2 367.4 144.3 367.3 144.4 C 367.1 144.8 367.3 145.2 367.9 145.4 C 368.0 145.4 368.1 145.4 368.0 145.3 Z M 370.4 148.2 C 370.5 146.4 370.2 146.4 370.1 148.1 C 370.2 148.1 370.3 148.2 370.4 148.2 Z M 369.9 144.6 C 370.0 144.6 370.1 144.7 370.2 144.7 C 370.1 144.6 370.0 144.2 369.9 144.4 C 370.0 144.5 370.0 144.4 369.9 144.6 Z M 368.6 145.8 C 368.1 145.8 368.1 145.8 367.9 145.8 C 367.7 145.8 367.7 145.8 367.7 145.9 C 367.6 145.9 367.8 145.9 368.0 146.0 C 368.2 146.0 368.4 146.0 368.4 146.0 C 368.4 146.0 368.5 145.9 368.6 145.8 Z M 367.8 146.9 C 368.0 147.0 368.1 147.1 368.3 147.2 C 368.6 146.7 368.0 146.4 367.6 146.6 C 367.7 146.7 367.7 146.8 367.8 146.9 Z M 368.5 143.2 C 368.4 143.1 367.8 142.8 367.8 142.5 C 367.2 142.5 367.2 142.8 367.2 143.4 C 367.5 142.8 368.5 143.8 369.1 144.5 C 369.2 144.5 368.5 143.2 368.5 143.2 Z M 366.0 145.3 C 366.0 145.2 366.1 145.0 366.2 144.8 C 366.3 144.7 366.4 144.7 366.4 144.6 C 366.5 144.5 366.5 144.4 366.6 144.3 C 366.6 144.3 366.6 144.2 366.6 144.1 C 366.3 143.7 366.9 143.1 366.3 142.8 C 366.3 143.1 366.3 143.1 366.4 143.4 C 366.4 143.5 366.4 143.6 366.4 143.6 C 366.4 143.7 366.4 143.8 366.4 143.9 C 366.3 143.9 366.3 144.0 366.3 144.1 C 366.3 144.2 366.2 144.3 366.2 144.4 C 366.2 144.5 366.1 144.6 366.1 144.7 C 366.1 144.9 366.0 145.0 365.8 145.1 C 365.9 145.1 365.9 145.2 366.0 145.3 Z M 359.7 139.8 C 359.9 139.8 359.8 139.6 359.7 139.6 C 359.6 139.6 359.5 139.6 359.4 139.7 C 359.3 139.7 359.3 139.7 359.2 139.8 C 359.3 139.8 359.3 139.8 359.4 139.8 C 359.5 139.8 359.6 139.8 359.7 139.8 Z M 357.5 138.7 C 357.5 138.6 357.3 138.6 357.2 138.6 C 357.1 138.6 357.0 138.6 356.9 138.6 C 356.8 138.7 356.7 138.7 356.6 138.7 C 356.6 138.7 356.5 138.7 356.4 138.7 C 355.9 138.6 356.2 138.3 355.6 138.9 C 356.2 138.9 356.1 139.6 356.6 139.0 C 356.6 138.9 356.7 139.0 356.8 139.0 C 356.9 139.0 356.9 139.0 357.0 139.1 C 357.1 139.1 357.1 139.2 357.2 139.2 L 357.2 139.2 C 357.4 139.3 357.7 138.8 357.5 138.7 Z M 357.7 141.0 C 361.0 141.0 359.5 140.7 357.8 140.8 C 357.7 140.9 357.7 140.9 357.7 141.0 Z M 358.4 137.1 C 358.3 137.2 358.3 137.3 358.2 137.3 L 358.1 137.3 C 358.2 137.4 358.2 137.5 358.4 137.5 C 358.6 137.6 358.6 137.3 358.8 137.2 C 358.8 137.2 359.3 137.1 359.2 137.0 C 359.0 136.9 358.6 136.9 358.4 137.1 Z M 359.0 135.9 C 359.2 136.1 359.6 135.8 359.7 135.6 C 359.6 135.7 358.9 135.7 359.0 135.9 Z M 359.9 138.1 C 359.8 138.1 359.7 138.1 359.6 138.2 C 359.5 138.2 359.5 138.3 359.4 138.3 L 359.5 138.3 C 359.5 138.4 359.6 138.6 359.7 138.5 C 359.8 138.4 359.8 138.3 359.9 138.2 C 360.0 138.2 360.1 138.2 360.2 138.2 C 360.1 138.0 360.1 138.1 359.9 138.1 Z M 362.1 141.9 C 362.1 141.8 362.1 141.8 362.0 141.7 C 362.0 141.7 361.9 141.7 361.8 141.7 C 361.8 141.7 361.8 141.8 361.9 141.9 C 362.0 142.0 362.0 142.1 362.1 141.9 Z M 362.1 141.4 C 361.9 140.9 361.6 140.8 361.2 140.8 C 361.4 141.1 361.7 141.3 362.1 141.4 Z M 361.9 139.4 C 361.8 139.4 361.7 139.4 361.5 139.5 C 361.6 139.5 361.7 139.6 361.7 139.6 C 361.8 139.6 361.9 139.5 361.9 139.4 Z M 361.3 143.5 C 361.4 143.5 361.4 143.5 361.5 143.4 C 361.4 143.4 361.3 143.4 361.2 143.4 C 361.3 143.4 361.3 143.5 361.3 143.5 Z M 359.8 143.0 C 360.1 143.1 360.3 143.2 360.6 143.3 L 360.9 143.3 C 360.7 142.9 360.3 142.9 360.1 142.8 C 359.9 142.7 359.8 142.8 359.8 143.0 Z M 360.5 141.8 C 360.5 142.1 360.6 142.3 360.9 142.1 C 360.8 142.0 360.6 141.9 360.5 141.8 Z M 361.3 132.6 C 361.4 132.6 361.8 132.3 361.9 132.2 C 361.5 132.1 361.2 132.7 361.3 132.6 Z M 359.3 133.9 C 359.3 134.2 359.7 134.5 360.0 134.2 C 360.0 133.6 359.7 133.7 359.3 133.9 Z M 361.6 135.0 C 361.5 135.0 361.2 135.1 361.2 135.1 C 361.5 135.2 361.6 135.1 361.9 135.1 C 361.6 135.1 361.5 135.1 361.6 135.0 Z M 361.5 135.9 C 361.3 136.0 361.1 136.0 361.0 136.0 C 361.3 136.1 361.6 136.2 361.9 136.2 C 361.9 136.1 362.0 136.1 362.0 136.0 C 362.3 135.7 361.6 135.9 361.5 135.9 Z M 372.0 128.1 C 371.9 128.3 371.8 128.4 371.6 128.5 C 371.4 128.7 371.2 129.0 371.4 129.4 C 371.4 129.1 371.4 128.8 371.7 128.7 C 371.8 128.6 371.9 128.6 371.9 128.5 C 372.0 128.4 372.0 128.3 372.0 128.1 Z M 371.1 130.7 C 371.4 130.3 371.7 130.3 371.7 129.7 C 371.1 130.0 371.1 130.6 370.9 130.9 C 371.0 130.8 371.1 130.7 371.1 130.7 Z M 371.1 129.7 C 370.8 130.0 370.7 129.5 370.5 129.8 C 370.6 129.9 370.7 130.0 370.9 129.9 C 370.9 129.8 371.0 129.8 371.1 129.7 Z M 370.3 131.5 C 369.9 131.2 370.8 130.9 370.2 130.6 C 370.2 130.9 370.2 131.2 370.2 131.3 C 370.2 131.4 370.3 131.4 370.3 131.5 Z M 365.1 145.5 C 365.1 143.7 364.8 143.7 364.9 145.4 C 365.0 145.5 365.1 145.5 365.1 145.5 Z M 366.3 141.5 C 365.6 141.4 366.7 141.5 365.8 141.5 C 365.7 141.5 365.7 141.2 365.6 141.2 C 365.7 141.1 365.7 140.9 365.9 140.9 C 366.9 141.0 366.2 140.7 367.0 141.4 C 367.0 141.4 366.3 141.5 366.3 141.5 Z M 363.9 143.9 C 363.9 143.9 363.9 143.8 363.8 143.8 C 363.6 143.7 363.4 143.7 363.2 143.6 C 363.4 143.8 363.7 143.9 363.9 143.9 Z M 363.4 138.4 C 363.3 138.3 363.1 138.3 363.0 138.2 C 363.0 138.4 363.3 138.4 363.4 138.4 Z M 357.7 134.7 C 357.6 134.8 357.6 134.8 357.6 134.8 C 357.6 134.9 357.6 134.9 357.7 134.9 C 357.7 134.8 357.7 134.8 357.7 134.7 Z M 362.7 142.9 C 362.6 143.0 362.6 143.1 362.6 143.1 C 362.6 143.2 362.7 143.3 362.9 143.4 C 362.9 143.4 363.0 143.4 363.1 143.4 C 363.1 143.1 363.1 143.1 362.9 143.0 C 362.8 142.9 362.7 142.9 362.7 142.9 Z M 368.5 134.6 C 368.5 134.7 368.4 134.7 368.4 134.8 C 368.5 134.9 368.6 135.0 368.7 135.0 C 368.7 135.1 368.8 135.1 368.9 135.1 C 368.9 134.7 368.9 134.7 368.7 134.6 C 368.6 134.6 368.6 134.6 368.5 134.6 Z M 373.4 149.9 C 373.3 150.0 373.3 150.1 373.3 150.3 C 373.4 150.5 373.6 150.7 373.8 150.8 C 373.9 150.8 374.1 150.8 374.2 150.8 C 374.2 150.2 374.2 150.2 373.8 149.9 C 373.7 149.9 373.5 149.9 373.4 149.9 Z M 366.1 147.4 C 366.0 147.5 366.0 147.5 366.0 147.6 C 366.0 147.7 366.1 147.8 366.3 147.8 C 366.3 147.9 366.4 147.9 366.5 147.9 C 366.5 147.5 366.5 147.5 366.3 147.4 C 366.2 147.4 366.1 147.4 366.1 147.4 Z M 361.8 133.0 C 361.7 133.1 361.1 133.6 361.3 133.7 C 361.4 133.7 362.3 133.0 362.5 132.9 C 362.4 132.7 362.0 133.0 361.8 133.0 Z M 364.2 134.2 C 363.7 134.5 363.5 134.4 363.7 135.2 C 363.9 135.1 364.1 135.1 364.3 134.9 C 364.5 134.8 364.6 134.7 364.8 134.5 C 364.8 134.1 364.8 134.1 364.9 133.9 C 364.8 133.9 364.7 133.9 364.5 134.0 C 364.4 134.0 364.3 134.1 364.2 134.2 Z M 370.3 127.9 C 370.0 128.1 369.9 128.1 370.0 128.6 C 370.1 128.6 370.2 128.5 370.3 128.4 C 370.5 128.4 370.6 128.3 370.6 128.2 C 370.7 127.9 370.7 127.9 370.7 127.8 C 370.7 127.7 370.6 127.8 370.5 127.8 C 370.4 127.9 370.4 127.9 370.3 127.9 Z M 363.8 135.4 C 363.8 135.5 363.9 135.5 364.2 135.3 C 364.0 135.3 363.9 135.3 363.8 135.4 Z M 366.6 135.7 C 366.5 135.8 366.4 136.0 366.3 136.2 C 367.0 136.4 367.7 136.2 368.2 136.1 C 367.7 135.8 367.1 135.9 366.6 135.7 Z M 364.4 139.4 C 364.5 139.2 365.1 139.8 365.3 139.2 C 365.3 139.2 365.2 139.2 365.1 139.1 C 364.9 139.1 364.8 139.1 364.6 139.3 C 364.5 139.3 364.5 139.4 364.4 139.4 Z M 363.4 130.7 C 363.6 130.5 364.2 131.1 364.4 130.5 C 364.3 130.5 364.2 130.5 364.2 130.5 C 364.0 130.4 363.8 130.4 363.6 130.6 C 363.6 130.6 363.5 130.7 363.4 130.7 Z M 365.8 131.4 C 365.7 131.4 365.6 131.6 365.6 131.7 C 365.5 131.9 365.5 132.1 365.5 132.1 C 365.7 132.1 366.0 132.1 366.0 131.9 C 366.1 131.8 366.2 131.8 366.2 131.7 C 366.3 131.6 366.3 131.5 366.4 131.3 C 366.1 131.4 366.1 131.3 365.8 131.4 Z M 366.8 129.6 C 366.9 129.7 367.3 129.9 367.3 129.6 C 367.3 129.4 366.9 129.6 366.8 129.6 Z M 367.9 130.2 C 367.9 130.3 368.1 130.3 368.3 130.3 C 368.4 130.1 367.9 130.0 367.9 130.2 Z M 367.8 131.7 C 368.0 131.7 368.1 131.7 368.2 131.7 C 368.1 131.6 367.9 131.7 367.8 131.7 Z M 369.3 132.3 C 369.6 132.4 369.6 132.4 369.7 132.0 C 369.8 131.9 369.7 131.8 369.7 131.8 C 369.7 131.5 369.6 131.2 369.9 131.2 C 369.6 130.9 369.3 131.5 369.0 131.5 C 369.0 131.7 369.0 131.9 369.1 132.1 C 369.1 132.1 369.2 132.2 369.2 132.2 C 369.3 132.3 369.3 132.2 369.3 132.3 Z M 369.0 129.6 L 368.8 129.7 C 368.6 129.8 368.4 129.9 368.6 130.2 C 368.7 130.1 368.9 129.8 369.0 129.6 Z M 368.9 132.4 C 368.7 132.4 368.7 132.4 368.4 132.3 C 368.3 132.4 368.2 132.4 368.1 132.4 C 367.7 132.4 367.3 132.6 366.9 133.0 C 367.3 133.1 367.7 132.9 368.1 132.6 C 368.1 132.6 368.2 132.5 368.3 132.5 C 368.4 132.4 368.7 132.4 368.7 132.4 C 368.8 132.4 368.8 132.4 368.9 132.4 Z M 367.8 133.3 C 367.7 133.3 367.6 133.3 367.5 133.4 C 367.1 133.4 366.7 133.5 367.4 133.5 C 367.5 133.5 367.6 133.5 367.8 133.5 C 367.9 133.5 367.9 133.4 367.8 133.3 Z M 366.7 133.1 C 366.5 133.0 366.4 133.0 366.2 132.9 C 366.1 132.9 366.0 132.8 366.0 132.7 C 365.9 132.7 365.8 132.6 365.7 132.6 C 365.6 132.6 365.5 132.7 365.4 132.9 C 365.7 132.7 365.9 133.2 366.1 133.2 C 366.2 133.3 366.3 133.2 366.4 133.1 C 366.5 133.1 366.6 133.1 366.7 133.1 Z M 365.3 137.9 C 365.5 138.2 365.6 139.1 366.0 138.6 C 365.9 138.3 365.6 138.0 365.3 137.9 Z M 367.0 139.7 C 367.0 139.6 367.0 139.5 367.0 139.5 C 366.9 139.5 367.0 139.4 367.0 139.3 C 367.0 139.2 366.9 139.2 366.9 139.2 C 366.7 139.1 366.5 139.1 366.3 139.2 C 366.2 139.4 366.4 139.4 366.6 139.4 C 366.8 139.4 366.9 139.4 367.0 139.4 C 367.1 139.5 367.1 139.6 367.0 139.7 L 367.0 139.7 Z M 367.4 137.5 C 367.3 137.5 367.2 137.6 367.2 137.7 C 367.1 137.8 367.0 137.9 367.0 138.0 C 367.0 138.1 367.1 138.1 367.3 138.1 C 367.4 138.1 367.6 138.1 367.7 138.1 C 367.8 138.0 368.1 138.0 368.5 137.9 C 368.5 137.8 368.5 137.8 368.5 137.7 C 368.6 137.6 368.6 137.6 368.6 137.5 C 368.5 137.4 368.3 137.4 368.1 137.4 C 367.9 137.4 367.7 137.4 367.7 137.4 C 367.6 137.4 367.5 137.5 367.4 137.5 Z M 368.3 137.1 C 368.4 137.2 368.5 137.3 368.7 137.3 C 368.7 137.1 368.6 137.0 368.3 137.1 Z M 368.3 139.1 C 368.1 139.2 368.4 139.2 368.5 139.1 C 368.5 139.1 368.4 139.1 368.3 139.1 Z M 369.4 136.5 C 368.8 136.5 369.1 136.9 369.2 137.0 C 369.2 136.9 369.4 136.5 369.4 136.5 Z M 369.4 136.5 " fill="#71AFE1"></path><path d="M 661.6 122.2 C 661.7 122.3 661.4 122.4 661.3 122.7 C 661.3 123.0 661.3 123.3 661.4 123.3 C 661.6 123.2 661.7 123.1 661.9 123.2 C 662.1 123.4 662.4 123.6 662.6 123.4 C 662.7 123.2 663.0 122.5 662.9 122.2 C 662.7 122.0 662.6 121.9 662.5 121.7 C 662.4 121.5 662.8 121.7 662.8 121.7 C 662.8 121.7 662.8 121.3 662.8 121.0 C 662.9 120.7 662.9 120.4 662.8 120.4 C 662.7 120.3 662.6 120.2 662.6 120.2 C 662.6 120.2 662.8 120.1 662.8 119.9 C 662.9 119.7 662.8 119.7 662.7 119.7 C 662.6 119.7 662.3 119.9 662.3 119.8 C 662.3 119.7 662.7 119.5 662.8 119.4 C 662.8 119.3 662.8 118.9 662.8 118.9 C 662.8 118.9 662.5 118.8 662.5 118.8 C 662.4 118.7 662.4 118.4 662.5 118.4 C 662.6 118.4 662.8 118.6 662.8 118.4 C 662.9 117.9 662.4 117.7 662.4 117.7 C 662.4 117.6 662.7 117.8 662.8 117.7 C 662.8 117.6 662.8 116.5 662.7 116.4 C 662.6 116.3 662.9 116.2 662.7 115.9 C 662.5 115.6 662.5 115.5 662.4 115.4 C 662.4 115.3 662.0 114.9 662.1 114.9 C 662.3 114.9 662.7 115.6 662.8 115.5 C 662.9 115.5 662.9 114.9 662.8 114.7 C 662.6 114.4 662.3 114.1 662.3 114.0 C 662.3 113.9 662.7 113.9 662.7 113.8 C 662.6 113.7 662.3 113.3 662.2 113.2 C 662.1 113.2 661.5 112.4 661.4 112.5 C 661.3 112.5 661.1 112.7 661.3 112.8 C 661.4 112.9 661.7 113.0 661.8 113.2 C 661.8 113.5 661.8 113.6 661.8 113.5 C 661.7 113.5 661.6 113.3 661.5 113.5 C 661.4 113.7 661.3 113.4 661.3 113.7 C 661.3 113.9 661.3 114.2 661.5 114.3 C 661.6 114.3 661.8 114.8 661.8 114.9 C 661.8 115.1 661.5 114.6 661.3 115.0 C 661.2 115.5 661.2 115.8 661.3 116.1 C 661.4 116.3 661.8 116.6 661.6 116.7 C 661.5 116.9 661.4 116.7 661.4 117.0 C 661.4 117.4 661.7 117.7 661.7 117.9 C 661.7 118.1 661.7 118.2 661.7 118.2 C 661.7 118.2 661.3 117.9 661.2 118.4 C 661.2 118.9 661.2 119.0 661.5 119.0 C 661.8 119.0 661.8 119.4 661.6 119.3 C 661.4 119.3 661.3 119.5 661.3 119.7 C 661.2 119.9 661.7 120.1 661.8 120.2 C 661.8 120.2 661.7 120.4 661.6 120.3 C 661.4 120.2 661.4 120.4 661.3 120.5 C 661.2 120.6 661.3 121.1 661.4 121.1 C 661.5 121.2 661.8 121.0 661.6 121.3 C 661.5 121.6 661.2 121.6 661.2 121.9 C 661.2 122.2 661.5 122.0 661.6 122.2 C 661.6 122.2 661.6 122.2 661.6 122.2 Z M 661.2 112.1 C 661.3 112.7 662.6 113.6 662.9 113.6 C 663.0 113.7 663.0 113.6 663.0 113.4 C 663.1 113.4 663.3 113.4 663.4 113.4 C 663.8 113.4 663.3 113.0 663.4 112.9 C 663.4 112.8 663.6 113.0 663.9 113.2 C 664.2 113.4 664.5 113.3 664.9 113.3 C 665.2 113.3 665.1 112.9 665.3 112.9 C 665.5 112.8 664.9 112.6 665.3 112.6 C 665.8 112.7 665.8 112.9 665.4 113.1 C 665.1 113.2 665.9 113.3 666.2 113.4 C 666.5 113.4 666.8 113.2 667.1 113.3 C 667.3 113.3 666.7 112.9 667.1 113.0 C 667.4 113.0 667.6 113.3 667.9 113.4 C 668.3 113.4 668.0 113.1 668.1 113.0 C 668.2 113.0 668.3 113.2 668.5 113.2 C 668.6 113.2 669.0 113.3 669.2 113.2 C 669.4 113.2 669.3 113.1 669.4 113.1 C 669.5 113.0 669.8 113.0 669.8 113.0 C 669.9 113.2 670.0 113.3 670.1 113.4 C 670.1 113.4 670.7 113.4 670.9 113.4 C 671.1 113.5 671.3 113.3 671.2 113.3 C 671.0 113.2 671.2 113.0 671.3 113.0 C 671.4 113.1 671.9 113.2 672.1 113.3 C 672.4 113.4 671.6 112.5 671.5 112.4 C 671.4 112.3 671.1 111.8 670.9 111.8 C 670.7 111.7 670.7 111.9 670.6 111.8 C 670.5 111.6 670.1 111.7 670.0 111.7 C 669.8 111.7 669.9 112.1 669.9 112.1 C 669.9 112.1 670.0 112.3 669.8 112.3 C 669.6 112.3 669.0 111.8 669.0 111.8 C 669.0 111.8 668.6 111.7 668.4 111.7 C 668.1 111.7 668.2 112.2 668.2 112.3 C 668.3 112.4 667.9 111.9 667.7 111.9 C 667.4 111.8 667.0 111.7 666.9 111.7 C 666.9 111.7 667.0 112.0 667.0 112.0 C 667.0 112.0 666.8 112.2 666.7 112.2 C 666.6 112.2 666.4 111.8 666.4 111.8 C 666.4 111.8 665.5 111.6 665.3 111.6 C 665.1 111.6 664.9 111.7 664.9 111.7 C 664.8 111.7 665.1 112.2 664.9 112.2 C 664.6 112.1 664.7 111.9 664.5 111.8 C 664.3 111.8 663.9 111.6 663.8 111.6 C 663.7 111.6 663.8 111.8 663.6 111.8 C 663.5 111.9 663.7 112.2 663.4 112.2 C 663.2 112.2 662.9 112.0 662.8 111.9 C 662.6 111.9 662.3 111.6 662.1 111.6 C 661.9 111.5 662.2 111.8 662.0 111.8 C 661.9 111.8 662.1 112.0 661.9 112.0 C 661.7 111.9 661.4 111.5 661.2 111.6 C 661.2 111.6 661.2 111.6 661.2 111.6 C 661.2 111.6 661.2 111.6 661.2 112.1 C 661.2 112.1 661.2 112.1 661.2 112.1 Z M 671.4 111.8 C 671.0 111.6 670.9 111.8 671.1 112.0 C 671.3 112.2 671.8 112.7 671.8 112.9 C 671.9 113.0 671.9 113.3 672.4 113.4 C 672.9 113.5 672.8 113.4 672.7 113.2 C 672.6 113.1 672.3 112.6 672.4 112.7 C 672.6 112.7 672.8 112.9 672.9 112.9 C 673.0 113.0 673.6 113.5 673.7 113.4 C 673.9 113.4 673.9 113.2 673.9 113.2 C 674.0 113.2 674.1 113.2 674.2 113.2 C 674.2 113.2 674.8 113.5 674.9 113.4 C 675.1 113.4 675.4 113.4 675.6 113.4 C 675.7 113.4 675.9 113.4 675.8 113.3 C 675.7 113.2 675.6 112.7 675.6 112.7 C 675.6 112.7 675.8 112.6 676.0 112.7 C 676.1 112.8 676.4 113.0 676.4 113.1 C 676.4 113.2 676.7 113.4 676.9 113.5 C 677.1 113.5 678.0 113.8 678.0 113.6 C 678.0 113.5 677.8 113.3 677.9 113.3 C 677.9 113.2 678.4 113.2 678.5 113.3 C 678.7 113.4 678.8 113.7 678.9 113.7 C 679.1 113.6 679.4 113.7 679.4 113.7 C 679.3 113.6 679.3 113.5 679.2 113.4 C 679.2 113.2 679.3 113.1 679.4 113.1 C 679.4 113.0 679.6 113.0 679.6 113.0 C 679.7 113.0 679.9 113.1 680.0 113.2 C 680.0 113.2 680.0 113.5 680.0 113.5 C 679.9 113.5 680.2 113.7 680.3 113.7 C 680.4 113.8 680.9 113.7 680.9 113.7 C 680.8 113.5 680.7 113.3 680.5 113.1 C 680.6 113.1 680.7 113.1 680.8 113.0 C 680.8 113.0 681.3 113.7 681.5 113.7 C 681.8 113.7 682.1 113.7 682.1 113.7 C 682.1 113.7 682.2 113.5 682.2 113.4 C 682.3 113.4 681.9 112.8 681.9 112.8 C 681.7 112.6 681.5 112.3 681.3 112.1 C 681.3 112.1 680.8 111.9 680.7 112.0 C 680.6 112.1 680.9 112.3 681.0 112.4 C 681.0 112.5 680.9 112.7 680.9 112.7 C 680.7 112.5 680.4 112.4 680.2 112.3 C 680.2 112.3 680.0 112.1 679.8 112.0 C 679.6 111.9 679.2 111.8 679.1 111.9 C 679.0 111.9 679.0 112.1 679.0 112.2 C 678.9 112.3 679.1 112.5 678.8 112.3 C 678.5 112.2 678.3 112.0 678.2 112.0 C 678.1 112.0 677.9 112.2 677.9 112.2 C 677.8 112.3 677.8 112.3 677.7 112.4 C 677.7 112.4 677.5 112.5 677.4 112.3 C 677.2 112.2 676.8 112.4 676.8 112.4 C 676.8 112.4 676.5 111.9 676.3 111.9 C 676.1 111.8 675.8 111.7 675.6 111.8 C 675.5 111.8 675.6 112.2 675.6 112.2 C 675.4 112.1 675.3 112.0 675.1 111.9 C 674.9 111.9 674.7 111.8 674.4 111.8 C 674.4 111.8 673.9 111.8 674.0 111.9 C 674.1 112.0 674.4 112.3 674.4 112.4 C 674.5 112.5 674.3 112.6 674.2 112.5 C 674.1 112.4 673.6 112.1 673.6 112.1 C 673.6 112.1 673.2 111.8 673.0 111.8 C 672.9 111.8 672.7 111.9 672.7 112.0 C 672.7 112.0 672.7 112.3 672.7 112.3 C 672.6 112.2 672.4 112.1 672.3 112.0 C 672.3 112.0 672.0 112.1 671.4 111.8 C 671.4 111.8 671.4 111.8 671.4 111.8 Z M 681.4 111.9 C 680.9 111.9 682.2 113.3 682.6 113.5 C 682.9 113.8 683.2 113.6 683.5 113.7 C 683.9 113.8 683.5 113.3 683.6 113.2 C 683.7 113.1 683.8 113.4 684.1 113.6 C 684.3 113.8 684.7 113.6 685.0 113.6 C 685.3 113.6 685.3 113.2 685.6 113.2 C 685.8 113.2 685.2 112.9 685.7 113.0 C 686.1 113.0 686.1 113.2 685.7 113.4 C 685.2 113.5 686.0 113.6 686.3 113.7 C 686.7 113.7 687.0 113.6 687.2 113.6 C 687.5 113.6 687.0 113.3 687.3 113.3 C 687.6 113.3 687.7 113.6 688.1 113.7 C 688.4 113.8 688.2 113.4 688.3 113.4 C 688.4 113.3 688.5 113.5 688.7 113.5 C 688.8 113.5 689.1 113.6 689.4 113.6 C 689.6 113.5 689.5 113.4 689.6 113.4 C 689.7 113.4 690.0 113.4 690.0 113.4 C 690.1 113.5 690.2 113.6 690.2 113.7 C 690.2 113.7 690.8 113.7 691.0 113.8 C 691.2 113.8 691.5 113.7 691.3 113.6 C 691.2 113.5 691.4 113.3 691.6 113.3 C 691.7 113.4 692.1 113.6 692.3 113.6 C 692.5 113.7 692.0 112.9 691.9 112.7 C 691.8 112.6 691.7 112.1 691.5 112.1 C 691.3 112.0 691.2 112.2 691.2 112.1 C 691.2 112.0 690.7 112.1 690.6 112.1 C 690.4 112.1 690.4 112.4 690.4 112.4 C 690.4 112.4 690.5 112.7 690.2 112.7 C 690.0 112.7 689.6 112.1 689.6 112.1 C 689.6 112.1 689.3 112.0 689.0 112.0 C 688.7 112.0 688.7 112.5 688.7 112.6 C 688.7 112.7 688.4 112.3 688.2 112.2 C 688.0 112.2 687.6 112.0 687.5 112.1 C 687.5 112.1 687.5 112.3 687.5 112.3 C 687.5 112.3 687.2 112.5 687.1 112.5 C 687.1 112.5 686.9 112.1 686.9 112.1 C 686.9 112.1 686.1 112.0 685.9 111.9 C 685.7 111.9 685.5 112.0 685.4 112.0 C 685.3 112.1 685.5 112.6 685.3 112.5 C 685.1 112.5 685.3 112.2 685.1 112.1 C 684.9 112.1 684.5 112.0 684.4 112.0 C 684.3 112.0 684.3 112.1 684.2 112.2 C 684.1 112.2 684.1 112.6 683.9 112.6 C 683.7 112.6 683.4 112.3 683.3 112.3 C 683.2 112.2 682.9 111.9 682.7 111.9 C 682.5 111.9 682.8 112.1 682.6 112.1 C 682.4 112.1 682.6 112.3 682.4 112.3 C 682.2 112.2 682.0 111.8 681.9 111.9 C 681.8 111.9 681.9 111.9 681.4 111.9 C 681.4 111.9 681.4 111.9 681.4 111.9 Z M 691.9 112.1 C 691.6 112.0 691.5 112.2 691.6 112.4 C 691.8 112.6 692.1 113.0 692.1 113.2 C 692.1 113.3 692.0 113.7 692.5 113.7 C 693.0 113.8 693.0 113.7 692.9 113.6 C 692.9 113.5 692.6 112.9 692.8 113.0 C 692.9 113.0 693.1 113.2 693.2 113.2 C 693.3 113.3 693.7 113.8 693.9 113.7 C 694.0 113.7 694.1 113.5 694.1 113.5 C 694.2 113.5 694.3 113.5 694.4 113.5 C 694.4 113.5 694.9 113.8 695.1 113.8 C 695.3 113.7 695.5 113.7 695.7 113.7 C 695.9 113.8 696.0 113.7 696.0 113.6 C 696.0 113.5 696.0 113.1 696.0 113.1 C 696.0 113.1 696.2 113.0 696.3 113.0 C 696.5 113.1 696.6 113.3 696.6 113.4 C 696.7 113.5 696.8 113.7 697.0 113.8 C 697.2 113.8 698.0 114.1 698.1 114.0 C 698.1 113.8 698.0 113.6 698.1 113.6 C 698.1 113.5 698.6 113.5 698.7 113.6 C 698.8 113.8 698.9 114.0 699.0 114.0 C 699.2 114.0 699.5 114.0 699.4 114.0 C 699.4 113.9 699.5 113.8 699.4 113.7 C 699.4 113.6 699.6 113.4 699.6 113.4 C 699.6 113.3 699.9 113.3 699.9 113.3 C 700.0 113.4 700.1 113.4 700.3 113.5 C 700.3 113.5 700.2 113.8 700.1 113.8 C 700.1 113.9 700.3 114.0 700.4 114.1 C 700.5 114.1 701.0 114.0 701.0 114.0 C 700.9 113.9 700.8 113.7 700.8 113.5 C 700.9 113.4 701.0 113.4 701.1 113.4 C 701.1 113.4 701.4 114.0 701.6 114.0 C 701.9 114.0 702.2 114.0 702.2 114.0 C 702.2 114.0 702.3 113.8 702.4 113.8 C 702.4 113.7 702.2 113.1 702.2 113.1 C 702.1 112.9 702.0 112.7 701.9 112.4 C 701.9 112.4 701.4 112.2 701.3 112.3 C 701.2 112.4 701.4 112.6 701.5 112.8 C 701.5 112.9 701.3 113.0 701.3 113.0 C 701.1 112.9 700.9 112.7 700.7 112.6 C 700.7 112.6 700.6 112.5 700.4 112.3 C 700.2 112.2 699.8 112.2 699.7 112.2 C 699.6 112.2 699.6 112.4 699.5 112.5 C 699.4 112.6 699.5 112.8 699.3 112.7 C 699.0 112.5 698.8 112.3 698.8 112.3 C 698.7 112.3 698.4 112.5 698.4 112.5 C 698.3 112.6 698.2 112.7 698.2 112.7 C 698.2 112.7 697.9 112.8 697.8 112.7 C 697.7 112.5 697.2 112.7 697.2 112.7 C 697.2 112.7 697.1 112.3 696.9 112.2 C 696.7 112.1 696.5 112.0 696.3 112.1 C 696.1 112.2 696.1 112.6 696.1 112.6 C 696.0 112.5 695.8 112.3 695.7 112.2 C 695.5 112.2 695.3 112.2 695.0 112.1 C 695.0 112.1 694.5 112.2 694.6 112.2 C 694.6 112.3 694.9 112.7 694.9 112.7 C 694.9 112.8 694.7 112.9 694.6 112.8 C 694.5 112.7 694.1 112.4 694.1 112.4 C 694.1 112.4 693.8 112.2 693.6 112.1 C 693.5 112.1 693.3 112.2 693.3 112.3 C 693.3 112.4 693.2 112.6 693.2 112.6 C 693.1 112.5 692.9 112.4 692.8 112.3 C 692.8 112.3 692.5 112.5 691.9 112.1 C 691.9 112.1 691.9 112.1 691.9 112.1 Z M 702.0 112.2 C 701.5 112.2 702.4 113.6 702.7 113.9 C 703.0 114.1 703.3 114.0 703.6 114.0 C 704.0 114.1 703.7 113.7 703.8 113.5 C 704.0 113.4 704.0 113.7 704.2 113.9 C 704.4 114.1 704.8 113.9 705.1 113.9 C 705.4 114.0 705.6 113.5 705.8 113.5 C 706.1 113.5 705.5 113.3 706.0 113.3 C 706.5 113.3 706.3 113.6 705.9 113.7 C 705.4 113.8 706.2 114.0 706.5 114.0 C 706.8 114.1 707.2 113.9 707.4 113.9 C 707.6 113.9 707.2 113.6 707.5 113.6 C 707.9 113.6 707.8 114.0 708.2 114.0 C 708.5 114.1 708.4 113.8 708.5 113.7 C 708.7 113.6 708.7 113.8 708.8 113.8 C 709.0 113.9 709.2 114.0 709.5 113.9 C 709.8 113.8 709.7 113.7 709.8 113.7 C 710.0 113.7 710.2 113.7 710.2 113.7 C 710.3 113.8 710.3 113.9 710.4 114.0 C 710.4 114.0 710.9 114.1 711.1 114.1 C 711.3 114.1 711.6 114.0 711.5 113.9 C 711.4 113.8 711.7 113.6 711.8 113.7 C 711.9 113.7 712.2 113.9 712.4 114.0 C 712.7 114.0 712.4 113.2 712.3 113.1 C 712.3 112.9 712.3 112.5 712.1 112.4 C 711.9 112.4 711.8 112.5 711.8 112.4 C 711.8 112.3 711.3 112.4 711.2 112.4 C 711.0 112.4 711.0 112.7 711.0 112.7 C 711.0 112.7 710.9 113.0 710.7 113.0 C 710.4 113.0 710.2 112.4 710.2 112.4 C 710.2 112.4 709.9 112.3 709.6 112.4 C 709.3 112.4 709.1 112.8 709.1 112.9 C 709.1 113.0 709.0 112.6 708.8 112.5 C 708.5 112.5 708.2 112.4 708.1 112.4 C 708.0 112.4 708.0 112.7 708.0 112.7 C 708.0 112.7 707.7 112.8 707.6 112.8 C 707.5 112.8 707.5 112.4 707.5 112.4 C 707.5 112.4 706.7 112.3 706.5 112.3 C 706.4 112.2 706.1 112.3 706.0 112.4 C 705.9 112.4 706.0 112.9 705.8 112.8 C 705.6 112.8 705.8 112.5 705.6 112.5 C 705.4 112.4 705.1 112.3 705.0 112.3 C 704.9 112.3 704.9 112.5 704.7 112.5 C 704.6 112.5 704.5 112.9 704.3 112.9 C 704.1 112.9 703.9 112.7 703.8 112.6 C 703.7 112.6 703.5 112.2 703.3 112.2 C 703.1 112.2 703.3 112.4 703.2 112.4 C 703.0 112.4 703.1 112.7 702.9 112.6 C 702.7 112.6 702.7 112.2 702.5 112.2 C 702.4 112.2 702.5 112.2 702.0 112.2 C 702.0 112.2 702.0 112.2 702.0 112.2 Z M 713.3 112.8 C 713.2 112.9 713.1 112.6 712.8 112.5 C 712.4 112.4 712.1 112.4 712.2 112.6 C 712.3 112.7 712.4 112.9 712.3 113.1 C 712.3 113.2 712.2 113.6 712.4 113.7 C 712.7 113.9 713.5 114.2 713.7 114.1 C 713.9 113.9 714.0 113.8 714.1 113.7 C 714.3 113.6 714.3 114.0 714.3 114.0 C 714.3 114.0 714.7 114.0 715.0 114.1 C 715.3 114.1 715.7 114.1 715.7 114.0 C 715.7 114.0 715.8 113.8 715.8 113.8 C 715.8 113.8 716.0 114.0 716.2 114.1 C 716.5 114.1 716.4 114.0 716.3 113.9 C 716.2 113.8 715.9 113.5 716.0 113.5 C 716.1 113.5 716.5 113.9 716.7 114.0 C 716.8 114.0 717.2 114.0 717.2 114.0 C 717.2 114.0 717.1 113.8 717.1 113.7 C 717.2 113.7 717.5 113.7 717.5 113.7 C 717.6 113.8 717.6 114.1 717.8 114.1 C 718.3 114.1 718.2 113.7 718.2 113.7 C 718.3 113.7 718.3 114.0 718.5 114.1 C 718.6 114.1 719.7 114.1 719.8 114.0 C 719.8 113.9 720.2 114.2 720.3 114.0 C 720.5 113.8 720.5 113.8 720.5 113.7 C 720.6 113.6 720.7 113.3 720.8 113.4 C 721.0 113.6 720.6 114.0 720.7 114.1 C 720.9 114.2 721.6 114.2 721.7 114.1 C 721.8 113.9 721.8 113.6 721.9 113.6 C 722.0 113.6 722.5 114.1 722.5 114.0 C 722.5 113.9 722.5 113.6 722.5 113.5 C 722.5 113.4 722.5 112.8 722.4 112.7 C 722.3 112.6 721.9 112.4 722.0 112.6 C 722.1 112.8 722.2 113.0 722.0 113.1 C 721.9 113.1 721.8 113.2 721.8 113.1 C 721.7 113.0 721.8 112.9 721.5 112.8 C 721.3 112.7 721.4 112.6 721.2 112.6 C 720.9 112.6 720.7 112.6 720.8 112.7 C 720.8 112.9 720.6 113.1 720.4 113.1 C 720.3 113.1 720.5 112.8 719.9 112.6 C 719.4 112.5 719.1 112.5 718.9 112.6 C 718.8 112.7 718.8 113.1 718.6 112.9 C 718.3 112.7 718.4 112.6 718.1 112.6 C 717.7 112.6 717.7 112.9 717.5 112.9 C 717.2 112.9 717.2 112.9 717.2 112.9 C 717.2 112.9 717.2 112.5 716.7 112.5 C 716.2 112.5 716.1 112.4 716.3 112.7 C 716.5 113.0 716.1 113.0 716.0 112.8 C 716.0 112.6 715.7 112.5 715.5 112.5 C 715.3 112.4 715.4 113.0 715.3 113.0 C 715.3 113.0 715.1 112.9 715.1 112.8 C 715.1 112.6 714.9 112.6 714.8 112.5 C 714.6 112.5 714.2 112.5 714.2 112.6 C 714.2 112.7 714.5 113.0 714.2 112.8 C 713.8 112.7 713.7 112.4 713.4 112.4 C 713.1 112.4 713.5 112.7 713.3 112.8 C 713.3 112.8 713.3 112.8 713.3 112.8 Z M 722.8 112.6 C 722.6 112.5 722.4 112.7 722.4 112.9 C 722.5 113.0 722.6 113.5 722.6 113.7 C 722.5 113.8 722.3 114.2 722.7 114.2 C 723.1 114.3 723.2 114.2 723.2 114.1 C 723.2 113.9 723.2 113.4 723.3 113.5 C 723.4 113.5 723.6 113.7 723.6 113.7 C 723.6 113.8 723.9 114.3 724.1 114.2 C 724.3 114.2 724.4 114.0 724.4 114.0 C 724.5 114.0 724.6 114.0 724.7 114.0 C 724.7 114.0 725.1 114.3 725.3 114.2 C 725.5 114.2 725.8 114.2 725.9 114.2 C 726.1 114.2 726.3 114.2 726.3 114.1 C 726.3 114.0 726.5 113.6 726.5 113.6 C 726.5 113.6 726.7 113.4 726.9 113.5 C 727.0 113.6 727.0 113.8 727.0 113.9 C 727.0 114.0 727.0 114.2 727.2 114.3 C 727.4 114.3 728.1 114.6 728.2 114.4 C 728.3 114.3 728.3 114.1 728.4 114.1 C 728.5 114.0 729.0 114.0 729.0 114.1 C 729.0 114.2 729.0 114.5 729.2 114.5 C 729.3 114.5 729.6 114.5 729.6 114.5 C 729.6 114.4 729.7 114.3 729.7 114.2 C 729.7 114.0 730.0 113.9 730.0 113.9 C 730.1 113.8 730.3 113.8 730.3 113.8 C 730.4 113.9 730.5 113.9 730.6 114.0 C 730.6 114.0 730.4 114.3 730.4 114.3 C 730.3 114.4 730.4 114.5 730.5 114.5 C 730.6 114.6 731.1 114.5 731.1 114.5 C 731.1 114.3 731.1 114.1 731.1 114.0 C 731.3 113.9 731.4 113.9 731.5 113.8 C 731.5 113.8 731.5 114.5 731.7 114.5 C 732.0 114.5 732.3 114.5 732.3 114.5 C 732.3 114.5 732.6 114.3 732.6 114.3 C 732.7 114.2 732.7 113.6 732.7 113.6 C 732.7 113.4 732.7 113.2 732.7 112.9 C 732.7 112.9 732.4 112.7 732.2 112.8 C 732.0 112.9 732.2 113.1 732.1 113.2 C 732.1 113.4 731.9 113.5 731.9 113.5 C 731.7 113.3 731.6 113.2 731.5 113.1 C 731.5 113.1 731.4 113.0 731.3 112.8 C 731.2 112.7 730.7 112.6 730.6 112.7 C 730.5 112.7 730.4 112.9 730.3 113.0 C 730.1 113.1 730.2 113.3 730.0 113.2 C 729.8 113.0 729.7 112.8 729.6 112.8 C 729.5 112.8 729.2 113.0 729.2 113.0 C 729.1 113.1 729.0 113.1 728.9 113.2 C 728.9 113.2 728.6 113.3 728.5 113.2 C 728.5 113.0 727.9 113.2 727.9 113.2 C 727.9 113.2 728.0 112.8 727.8 112.7 C 727.7 112.6 727.4 112.5 727.2 112.6 C 727.0 112.7 726.8 113.0 726.8 113.0 C 726.8 112.9 726.7 112.8 726.6 112.7 C 726.4 112.7 726.2 112.7 725.9 112.6 C 725.9 112.6 725.4 112.7 725.4 112.7 C 725.5 112.8 725.5 113.1 725.5 113.2 C 725.5 113.3 725.3 113.4 725.2 113.3 C 725.2 113.2 724.9 112.9 724.9 112.9 C 724.9 112.9 724.7 112.7 724.5 112.6 C 724.4 112.6 724.2 112.7 724.1 112.8 C 724.1 112.9 723.9 113.1 723.9 113.1 C 723.8 113.0 723.7 112.9 723.6 112.8 C 723.6 112.8 723.3 112.9 722.8 112.6 C 722.8 112.6 722.8 112.6 722.8 112.6 Z M 732.9 112.7 C 732.4 112.7 732.7 114.1 732.9 114.3 C 733.0 114.5 733.2 114.5 733.3 114.5 L 732.4 113.6 C 732.4 113.7 732.4 113.9 732.4 114.0 C 732.3 114.4 732.8 114.3 732.9 114.5 C 733.0 114.7 732.7 114.6 732.5 114.7 C 732.3 114.7 732.5 115.3 732.4 115.6 C 732.4 115.9 732.8 116.3 732.8 116.5 C 732.9 116.8 733.1 116.3 733.0 116.7 C 733.0 117.2 732.8 117.0 732.6 116.4 C 732.5 115.9 732.4 116.6 732.3 116.9 C 732.3 117.2 732.4 117.7 732.4 117.9 C 732.4 118.1 732.7 117.9 732.7 118.2 C 732.7 118.5 732.3 118.3 732.3 118.7 C 732.2 119.0 732.5 119.0 732.6 119.1 C 732.6 119.3 732.4 119.3 732.4 119.4 C 732.4 119.6 732.3 119.8 732.3 120.1 C 732.4 120.4 732.5 120.3 732.5 120.5 C 732.5 120.6 732.5 120.9 732.5 120.9 C 732.4 120.9 732.3 120.9 732.2 120.9 C 732.2 120.9 732.1 121.5 732.1 121.6 C 732.1 121.8 732.2 122.2 732.3 122.1 C 732.3 122.0 732.5 122.4 732.5 122.5 C 732.4 122.6 732.3 122.8 732.2 123.0 C 732.1 123.2 732.9 123.2 733.1 123.2 C 733.2 123.2 733.6 123.4 733.7 123.2 C 733.8 123.0 733.6 122.9 733.7 122.9 C 733.8 122.9 733.7 122.4 733.7 122.3 C 733.8 122.1 733.4 122.0 733.4 122.0 C 733.4 122.0 733.2 121.8 733.2 121.6 C 733.2 121.3 733.7 121.3 733.7 121.3 C 733.7 121.3 733.9 121.0 733.8 120.7 C 733.8 120.4 733.4 120.1 733.3 120.1 C 733.2 120.0 733.6 120.0 733.7 119.8 C 733.7 119.6 733.9 119.3 733.9 119.3 C 733.8 119.2 733.6 119.0 733.6 119.0 C 733.6 119.0 733.4 118.6 733.4 118.6 C 733.4 118.5 733.8 118.6 733.8 118.6 C 733.8 118.6 734.0 117.9 734.0 117.7 C 734.1 117.6 734.0 117.3 734.0 117.2 C 733.9 117.1 733.4 116.9 733.5 116.7 C 733.6 116.6 733.8 116.9 733.9 116.7 C 733.9 116.6 734.0 116.3 734.0 116.2 C 734.0 116.1 733.9 116.0 733.9 115.8 C 733.8 115.7 733.5 115.5 733.5 115.2 C 733.5 115.0 733.7 114.9 733.8 114.8 C 733.8 114.8 734.2 114.7 734.2 114.5 C 734.2 114.4 734.0 114.5 734.0 114.3 C 734.0 114.1 733.8 114.1 733.8 114.0 C 733.9 113.8 734.3 113.9 734.2 113.7 C 734.2 113.7 734.2 113.7 734.2 113.6 L 733.3 112.7 C 733.3 112.7 733.2 112.7 732.9 112.7 C 732.9 112.7 732.9 112.7 732.9 112.7 Z M 732.9 112.7 " fill="#FEFFFE"></path><text xml:space="preserve" font-family="Chalkduster" font-size="18.0" fill="#FEFFFE" transform="matrix(1.00, 0.00, -0.00, -1.00, 682.0, 94.0)">t</text><text xml:space="preserve" font-family="Chalkduster" font-size="18.0" fill="#FEFFFE" transform="matrix(1.00, 0.00, -0.00, -1.00, 690.0, 94.0)">a</text><text xml:space="preserve" font-family="Chalkduster" font-size="18.0" fill="#FEFFFE" transform="matrix(1.00, 0.00, -0.00, -1.00, 702.5, 94.0)">b</text></g></svg>