<?xml version="1.0" encoding="UTF-8" standalone="no"?><svg xmlns="http://www.w3.org/2000/svg" xmlns:xlink="http://www.w3.org/1999/xlink" clip-rule="evenodd" stroke-miterlimit="4.00" viewBox="0 0 110 116"><desc>SVG generated by Keynote</desc><defs></defs><g transform="matrix(1.00, 0.00, -0.00, -1.00, 0.0, 116.0)"><g><clipPath id="clip-272"><path d="M 14.7 0.7 L 101.6 0.7 L 101.6 115.1 L 14.7 115.1 Z M 14.7 0.7 "></path></clipPath><g clip-path="url(#clip-272)"><image xlink:href="../../74A6F468-518A-4803-BCF5-8806AB2EFF65/assets/A14A10A9BF752EBB344FC720146687D3.png" width="85.00" height="112.00" transform="matrix(1.00, 0.00, -0.00, -1.00, 15.7, 114.1)" opacity="0.50"></image><path d="M 82.6 108.8 L 95.1 93.5 L 94.9 13.6 C 96.0 11.8 95.7 9.5 94.2 8.0 C 93.1 6.9 91.4 6.4 89.9 6.9 L 27.9 6.9 C 26.4 7.4 25.1 8.3 24.0 9.4 C 22.9 10.4 22.1 11.8 21.5 13.2 C 21.1 14.6 20.9 15.9 20.8 17.5 C 20.7 19.1 20.7 21.0 20.7 23.5 L 21.5 102.8 C 21.4 104.4 22.0 106.0 23.1 107.2 C 24.3 108.5 26.1 109.2 27.9 109.1 L 82.6 108.8 Z M 82.6 108.8 " fill="#EAEAEA"></path></g></g><g><clipPath id="clip-273"><path d="M 0.6 3.7 L 109.2 3.7 L 109.2 112.3 L 0.6 112.3 Z M 0.6 3.7 "></path></clipPath><g clip-path="url(#clip-273)"><image xlink:href="../../74A6F468-518A-4803-BCF5-8806AB2EFF65/assets/30BDB59357BC950F00B729E4DA28C73E.png" width="109.00" height="109.00" transform="matrix(0.99, 0.00, -0.00, -0.99, 1.0, 112.0)"></image></g></g><g><clipPath id="clip-274"><path d="M 31.6 21.8 L 84.6 21.8 L 84.6 66.5 L 31.6 66.5 Z M 31.6 21.8 "></path></clipPath><g clip-path="url(#clip-274)"><image xlink:href="../../86BB661C-AAFE-46F2-89B5-B98D6D644DD8/assets/610DE41026624E3AEF638D24E71EF355.png" width="74.00" height="62.00" transform="matrix(0.72, 0.00, -0.00, -0.71, 32.0, 66.0)"></image></g></g></g></svg>