<?xml version="1.0" encoding="UTF-8" standalone="no"?><svg xmlns="http://www.w3.org/2000/svg" xmlns:xlink="http://www.w3.org/1999/xlink" clip-rule="evenodd" stroke-miterlimit="4.00" viewBox="0 0 191 27"><desc>SVG generated by Keynote</desc><defs></defs><g transform="matrix(1.00, 0.00, -0.00, -1.00, 0.0, 27.0)"><path d="M 26.6 11.6 C 26.4 11.8 25.7 11.6 25.6 11.7 M 26.6 11.6 C 26.0 10.7 24.9 10.6 23.4 10.5 C 21.8 10.4 23.5 11.3 23.3 11.7 C 21.2 12.1 21.2 11.4 21.5 10.4 C 20.7 11.1 18.3 9.9 18.8 11.1 C 22.2 11.1 16.5 11.4 19.3 12.1 C 19.6 12.3 18.8 12.7 18.5 12.7 C 19.4 13.2 17.8 13.8 19.3 14.1 C 19.5 14.9 19.2 14.6 20.2 15.2 C 20.6 15.3 20.4 15.0 20.4 14.8 C 20.5 13.9 21.5 15.3 22.3 14.8 C 23.0 16.0 23.8 14.6 23.1 14.1 C 23.8 14.2 24.7 15.4 25.4 14.6 C 25.8 15.2 27.7 14.8 26.6 14.0 C 25.7 13.6 26.6 13.2 26.8 12.9 C 26.5 12.7 25.3 13.0 25.2 12.8 C 25.5 12.6 27.0 12.2 25.4 12.2 C 25.9 11.8 25.1 11.6 26.6 11.6 C 26.6 11.6 26.6 11.6 26.6 11.6 Z M 20.9 10.9 C 20.9 10.6 21.5 11.0 20.9 10.9 C 20.9 10.9 20.9 10.9 20.9 10.9 Z M 24.8 15.2 C 24.8 14.9 25.3 15.2 24.8 15.2 C 24.8 15.2 24.8 15.2 24.8 15.2 Z M 20.6 14.9 C 20.6 14.5 21.2 14.9 20.6 14.9 C 20.6 14.9 20.6 14.9 20.6 14.9 Z M 22.4 11.1 C 23.3 11.4 21.7 11.6 21.5 11.3 C 21.7 11.3 22.2 10.9 22.4 11.1 C 22.4 11.1 22.4 11.1 22.4 11.1 Z M 22.5 13.0 C 22.6 12.9 23.0 12.8 22.9 13.1 C 22.7 13.2 22.5 13.1 22.5 13.0 C 22.5 13.0 22.5 13.0 22.5 13.0 Z M 18.1 11.7 C 18.2 11.6 18.5 11.5 18.5 11.8 C 18.3 11.9 18.0 11.8 18.1 11.7 C 18.1 11.7 18.1 11.7 18.1 11.7 Z M 23.4 12.0 C 23.6 12.0 23.7 12.3 23.4 12.4 C 23.3 12.2 22.7 12.2 23.4 12.0 C 23.4 12.0 23.4 12.0 23.4 12.0 Z M 24.8 10.9 C 25.6 11.1 24.0 11.6 24.1 11.4 C 23.8 11.2 24.4 10.7 24.8 10.9 C 24.8 10.9 24.8 10.9 24.8 10.9 Z M 23.8 12.4 C 24.5 12.6 23.6 12.7 23.8 12.4 C 23.8 12.4 23.8 12.4 23.8 12.4 Z M 18.7 14.0 C 19.3 14.2 18.5 14.3 18.7 14.0 C 18.7 14.0 18.7 14.0 18.7 14.0 Z M 22.0 15.0 C 22.6 15.2 21.7 15.2 22.0 15.0 C 22.0 15.0 22.0 15.0 22.0 15.0 Z M 20.8 11.8 C 19.7 11.8 20.6 11.0 20.8 11.8 C 20.8 11.8 20.8 11.8 20.8 11.8 Z M 26.5 10.9 C 25.5 10.8 26.4 10.1 26.5 10.9 C 26.5 10.9 26.5 10.9 26.5 10.9 Z M 185.8 11.1 C 186.7 11.0 182.9 9.9 184.4 11.2 C 184.8 12.2 182.2 12.1 182.9 11.2 C 182.1 11.0 182.1 11.0 181.6 11.5 C 181.5 10.7 179.7 10.3 179.1 10.7 C 178.7 11.4 180.3 10.8 179.3 11.5 C 177.0 11.7 179.4 12.2 178.5 13.1 C 178.4 13.1 178.4 12.6 178.2 12.9 C 178.1 13.7 179.4 14.2 178.8 14.8 C 179.2 14.7 180.8 15.6 180.1 14.9 C 179.9 14.1 181.9 15.8 181.8 14.5 C 182.3 15.1 182.9 14.3 183.4 15.0 C 183.8 15.2 183.8 14.5 183.7 14.3 C 183.7 13.8 184.2 15.6 184.9 14.6 C 184.9 14.9 186.7 14.8 185.4 14.4 C 185.8 14.4 187.9 14.7 186.8 13.6 C 185.3 13.1 188.3 12.5 186.6 12.4 C 185.2 12.3 185.0 12.5 186.0 11.9 C 186.3 12.0 187.8 11.9 186.5 11.4 C 186.2 11.6 185.6 11.4 185.8 11.1 C 185.8 11.1 185.8 11.1 185.8 11.1 Z M 186.0 12.8 C 185.3 12.8 186.0 12.3 186.0 12.8 C 186.0 12.8 186.0 12.8 186.0 12.8 Z M 183.3 15.3 C 182.5 15.3 183.2 14.8 183.3 15.3 C 183.3 15.3 183.3 15.3 183.3 15.3 Z M 183.4 10.9 C 183.0 11.2 182.9 10.0 183.4 10.9 C 183.4 10.9 183.4 10.9 183.4 10.9 Z M 184.5 14.3 C 184.5 14.3 184.7 14.2 184.8 14.1 C 184.8 14.2 184.6 14.3 184.5 14.3 C 184.5 14.3 184.5 14.3 184.5 14.3 Z M 182.1 10.9 C 181.0 11.4 181.9 10.0 182.1 10.9 C 182.1 10.9 182.1 10.9 182.1 10.9 Z M 179.8 12.0 C 179.7 13.1 178.6 11.7 179.8 12.0 C 179.8 12.0 179.8 12.0 179.8 12.0 Z M 181.4 14.5 C 181.6 14.2 181.6 14.6 181.4 14.5 C 181.4 14.5 181.4 14.5 181.4 14.5 Z M 186.3 14.6 C 186.5 14.4 186.5 14.8 186.3 14.6 C 186.3 14.6 186.3 14.6 186.3 14.6 Z M 180.0 14.4 C 180.1 13.9 180.4 14.6 180.0 14.4 C 180.0 14.4 180.0 14.4 180.0 14.4 Z M 183.2 11.3 C 184.2 10.4 184.4 12.7 183.2 11.3 C 183.2 11.3 183.2 11.3 183.2 11.3 Z M 185.0 11.2 C 185.7 11.0 184.9 11.8 184.6 11.7 C 184.6 11.6 184.9 11.3 185.0 11.2 C 185.0 11.2 185.0 11.2 185.0 11.2 Z M 182.1 11.4 C 182.8 11.0 182.7 11.7 182.1 11.4 C 182.1 11.4 182.1 11.4 182.1 11.4 Z M 183.9 10.9 C 184.2 11.0 183.6 11.0 183.9 10.9 C 183.9 10.9 183.9 10.9 183.9 10.9 Z M 180.7 10.5 C 181.0 10.6 180.4 10.6 180.7 10.5 C 180.7 10.5 180.7 10.5 180.7 10.5 Z M 185.9 10.8 C 186.3 10.9 185.6 10.9 185.9 10.8 C 185.9 10.8 185.9 10.8 185.9 10.8 Z M 181.0 11.1 C 180.9 11.5 181.9 12.4 180.1 11.6 C 179.7 11.3 180.5 10.7 181.0 11.1 C 181.0 11.1 181.0 11.1 181.0 11.1 Z M 29.4 11.7 C 25.3 10.4 26.3 12.6 26.1 13.0 C 25.6 13.6 26.1 14.0 26.9 14.4 C 27.8 15.9 28.2 13.0 28.9 14.4 C 30.0 16.3 30.1 12.7 30.6 14.7 C 30.4 15.3 32.0 14.8 31.9 14.7 C 32.7 15.7 33.8 14.0 33.9 13.8 C 34.4 14.1 34.5 15.8 36.1 14.5 C 37.4 14.0 38.0 15.8 37.6 14.6 C 38.6 16.0 38.3 14.2 39.2 14.6 C 39.9 15.4 39.3 13.5 40.4 14.9 C 41.0 13.8 39.9 15.7 43.1 14.9 C 41.5 14.8 44.6 14.0 44.0 14.7 C 42.9 15.5 45.5 14.4 46.9 14.9 C 47.3 14.5 49.1 13.5 48.8 14.6 C 50.3 15.9 50.3 13.8 50.9 14.9 C 51.4 15.3 51.6 14.3 52.0 14.4 C 52.5 15.2 53.0 14.7 54.8 14.9 C 58.9 15.3 55.5 12.8 57.0 12.6 C 57.3 12.2 55.0 9.5 55.9 11.5 C 55.6 10.9 52.3 13.0 53.9 10.8 C 52.7 11.7 54.2 9.9 51.7 11.0 C 55.2 12.5 47.7 11.6 51.0 10.8 C 50.5 10.4 49.1 10.5 50.1 10.9 C 50.5 12.3 47.7 10.2 49.1 11.9 C 46.9 11.5 47.5 13.0 46.9 11.9 C 46.4 10.1 47.0 12.4 45.9 11.9 C 43.4 11.8 45.3 9.7 43.8 11.1 C 41.3 10.2 43.2 11.9 42.4 12.2 C 42.1 13.4 39.8 11.2 41.7 11.0 C 40.7 11.7 41.6 10.4 40.4 11.2 C 41.3 12.4 39.0 10.0 39.3 10.9 C 38.3 11.2 38.8 11.9 38.5 11.9 C 37.0 11.9 37.4 10.8 37.1 11.7 C 36.8 12.1 36.1 10.6 35.9 11.0 C 37.4 11.0 34.6 12.2 34.4 11.6 C 35.4 11.5 33.9 10.0 33.3 11.0 C 34.1 13.6 32.0 10.3 31.3 11.2 C 31.9 12.6 27.9 11.4 29.4 10.7 C 29.3 10.8 29.5 11.7 29.4 11.7 M 35.4 11.2 C 36.7 11.3 34.0 11.5 35.4 11.2 M 35.4 10.8 C 35.9 11.3 34.2 10.4 35.4 10.6 C 35.5 10.7 35.3 10.8 35.4 10.8 M 40.7 10.8 C 40.5 11.2 40.0 10.5 40.7 10.8 M 41.7 11.6 C 42.5 12.0 40.5 11.7 41.7 11.6 M 53.4 11.4 C 52.2 13.5 52.2 10.2 53.4 11.4 M 45.7 10.9 C 44.2 11.2 46.2 10.0 45.7 10.9 M 45.2 11.5 C 44.6 11.8 45.1 11.0 45.2 11.5 M 51.2 11.4 C 51.3 11.4 51.3 11.4 51.2 11.4 C 51.2 11.4 51.2 11.4 51.2 11.4 Z M 54.6 11.4 C 54.7 11.4 54.7 11.4 54.6 11.4 C 54.6 11.4 54.6 11.4 54.6 11.4 Z M 47.8 11.6 C 46.7 11.1 49.6 11.4 47.8 11.6 C 47.8 11.6 47.8 11.6 47.8 11.6 Z M 53.0 14.7 C 52.9 14.7 52.9 14.7 53.0 14.7 C 53.0 14.7 53.0 14.7 53.0 14.7 Z M 34.4 12.2 C 34.4 12.2 34.4 12.2 34.4 12.2 C 34.4 12.2 34.4 12.2 34.4 12.2 Z M 30.5 11.4 C 30.5 11.6 29.7 11.1 30.5 11.4 C 30.5 11.4 30.5 11.4 30.5 11.4 Z M 27.3 13.8 C 27.2 13.8 27.2 13.8 27.3 13.8 C 27.3 13.8 27.3 13.8 27.3 13.8 Z M 33.1 13.3 C 33.0 13.3 33.0 13.3 33.1 13.3 C 33.1 13.3 33.1 13.3 33.1 13.3 Z M 33.7 11.7 C 33.0 10.5 35.2 12.0 33.7 11.7 C 33.7 11.7 33.7 11.7 33.7 11.7 Z M 46.5 14.5 C 46.5 14.0 47.4 14.7 46.5 14.5 C 46.5 14.5 46.5 14.5 46.5 14.5 Z M 41.8 12.1 C 42.0 11.9 42.4 12.2 41.8 12.1 C 41.8 12.1 41.8 12.1 41.8 12.1 Z M 39.7 10.5 C 39.8 10.3 40.2 10.7 39.7 10.5 C 39.7 10.5 39.7 10.5 39.7 10.5 Z M 30.5 11.0 C 30.6 11.0 30.6 11.0 30.5 11.0 C 30.5 11.0 30.5 11.0 30.5 11.0 Z M 31.9 11.9 C 31.0 10.8 33.5 12.5 31.9 11.9 C 31.9 11.9 31.9 11.9 31.9 11.9 Z M 30.3 12.2 C 30.8 12.7 29.0 12.1 30.3 12.2 M 31.2 13.9 C 32.4 13.5 30.1 15.9 31.2 13.9 C 31.2 13.9 31.2 13.9 31.2 13.9 Z M 37.3 14.4 C 37.4 14.4 37.4 14.4 37.3 14.4 C 37.3 14.4 37.3 14.4 37.3 14.4 Z M 36.7 11.1 C 37.7 11.2 36.0 11.4 36.7 11.1 C 36.7 11.1 36.7 11.1 36.7 11.1 Z M 27.5 10.9 C 28.6 10.9 26.8 11.2 27.5 10.9 C 27.5 10.9 27.5 10.9 27.5 10.9 Z M 40.9 13.3 C 42.6 13.1 39.8 13.9 40.9 13.3 C 40.9 13.3 40.9 13.3 40.9 13.3 Z M 47.2 12.0 C 47.3 12.0 47.3 12.0 47.2 12.0 C 47.2 12.0 47.2 12.0 47.2 12.0 Z M 48.4 11.6 C 48.4 11.6 48.4 11.6 48.4 11.6 C 48.4 11.6 48.4 11.6 48.4 11.6 Z M 53.3 12.7 C 53.4 12.7 53.4 12.7 53.3 12.7 C 53.3 12.7 53.3 12.7 53.3 12.7 Z M 49.5 11.0 C 49.5 11.1 49.5 11.1 49.5 11.0 C 49.5 11.0 49.5 11.0 49.5 11.0 Z M 52.9 11.3 C 52.9 11.4 52.9 11.4 52.9 11.3 C 52.9 11.3 52.9 11.3 52.9 11.3 Z M 52.4 10.4 C 52.5 10.4 52.5 10.4 52.4 10.4 C 52.4 10.4 52.4 10.4 52.4 10.4 Z M 44.8 15.2 C 44.9 15.2 44.9 15.2 44.8 15.2 C 44.8 15.2 44.8 15.2 44.8 15.2 Z M 32.4 10.7 C 32.5 10.8 32.5 10.8 32.4 10.7 C 32.4 10.7 32.4 10.7 32.4 10.7 Z M 52.6 11.7 C 52.6 11.8 52.6 11.8 52.6 11.7 C 52.6 11.7 52.6 11.7 52.6 11.7 Z M 44.3 12.6 C 44.3 13.6 43.6 11.4 44.5 12.6 C 44.4 12.6 44.2 12.5 44.3 12.6 M 45.4 14.2 C 45.3 14.2 45.3 14.2 45.4 14.2 C 45.4 14.2 45.4 14.2 45.4 14.2 Z M 41.6 14.8 C 41.6 14.8 41.6 14.8 41.6 14.8 C 41.6 14.8 41.6 14.8 41.6 14.8 Z M 48.9 10.8 C 48.7 10.3 49.8 11.2 48.7 10.9 M 53.3 14.3 C 53.2 13.8 54.3 14.7 53.2 14.4 M 26.3 11.3 C 26.2 11.7 25.6 11.0 26.3 11.3 M 40.8 15.3 C 40.6 15.7 40.1 15.0 40.8 15.3 M 42.5 14.1 C 42.4 13.5 43.5 14.5 42.4 14.1 M 50.8 14.3 C 50.8 14.3 50.8 14.3 50.8 14.3 C 50.8 14.3 50.8 14.3 50.8 14.3 Z M 38.3 11.3 C 38.3 11.3 38.3 11.3 38.3 11.3 C 38.3 11.3 38.3 11.3 38.3 11.3 Z M 42.9 12.4 C 42.3 11.6 43.7 12.8 42.9 12.4 M 36.9 12.5 C 36.0 11.6 38.4 12.8 36.9 12.5 M 55.3 14.6 C 54.3 13.5 56.0 15.1 55.3 14.6 M 50.2 11.9 C 49.2 10.8 51.0 12.4 50.2 11.9 M 39.2 11.7 C 39.2 11.2 40.2 12.0 39.2 11.7 M 28.7 11.2 C 27.7 11.1 30.0 10.7 28.7 11.2 M 48.3 14.3 C 48.3 14.4 48.3 14.4 48.3 14.3 C 48.3 14.3 48.3 14.3 48.3 14.3 Z M 31.9 15.3 C 31.9 15.3 31.9 15.3 31.9 15.3 C 31.9 15.3 31.9 15.3 31.9 15.3 Z M 56.6 11.0 C 56.7 11.1 56.7 11.1 56.6 11.0 C 56.6 11.0 56.6 11.0 56.6 11.0 Z M 49.6 12.4 C 49.7 12.4 49.7 12.4 49.6 12.4 C 49.6 12.4 49.6 12.4 49.6 12.4 Z M 54.7 10.9 C 54.7 10.9 54.7 10.9 54.7 10.9 C 54.7 10.9 54.7 10.9 54.7 10.9 Z M 46.4 13.2 C 46.4 13.2 46.4 13.2 46.4 13.2 C 46.4 13.2 46.4 13.2 46.4 13.2 Z M 45.8 10.4 C 45.8 10.5 45.8 10.5 45.8 10.4 C 45.8 10.4 45.8 10.4 45.8 10.4 Z M 42.3 11.6 C 42.3 11.6 42.3 11.6 42.3 11.6 C 42.3 11.6 42.3 11.6 42.3 11.6 Z M 47.4 10.7 C 49.5 10.5 46.3 11.6 47.4 10.7 C 47.4 10.7 47.4 10.7 47.4 10.7 Z M 43.8 13.4 C 43.8 13.4 43.8 13.4 43.8 13.4 C 43.8 13.4 43.8 13.4 43.8 13.4 Z M 43.5 11.5 C 44.8 10.7 44.2 12.8 43.5 11.5 M 37.7 10.8 C 38.1 10.4 37.9 11.5 37.7 10.8 M 35.4 14.4 C 35.4 14.5 35.4 14.5 35.4 14.4 C 35.4 14.4 35.4 14.4 35.4 14.4 Z M 36.0 14.1 C 36.0 14.2 36.0 14.2 36.0 14.1 C 36.0 14.1 36.0 14.1 36.0 14.1 Z M 36.3 10.7 C 36.3 10.7 36.3 10.7 36.3 10.7 C 36.3 10.7 36.3 10.7 36.3 10.7 Z M 36.1 15.2 C 36.1 15.2 36.1 15.2 36.1 15.2 C 36.1 15.2 36.1 15.2 36.1 15.2 Z M 45.0 10.5 C 45.0 10.5 45.0 10.5 45.0 10.5 C 45.0 10.5 45.0 10.5 45.0 10.5 Z M 55.7 10.5 C 55.7 10.5 55.7 10.5 55.7 10.5 C 55.7 10.5 55.7 10.5 55.7 10.5 Z M 29.0 14.0 C 29.1 14.1 29.1 14.1 29.0 14.0 C 29.0 14.0 29.0 14.0 29.0 14.0 Z M 46.1 11.6 C 46.1 11.6 46.1 11.6 46.1 11.6 C 46.1 11.6 46.1 11.6 46.1 11.6 Z M 33.9 14.3 C 33.9 14.3 33.9 14.3 33.9 14.3 C 33.9 14.3 33.9 14.3 33.9 14.3 Z M 45.4 11.4 C 45.4 11.4 45.4 11.4 45.4 11.4 C 45.4 11.4 45.4 11.4 45.4 11.4 Z M 47.9 14.6 C 48.0 14.6 48.0 14.6 47.9 14.6 C 47.9 14.6 47.9 14.6 47.9 14.6 Z M 50.2 15.2 C 50.2 15.2 50.2 15.2 50.2 15.2 C 50.2 15.2 50.2 15.2 50.2 15.2 Z M 47.8 12.7 C 47.8 12.7 47.8 12.7 47.8 12.7 C 47.8 12.7 47.8 12.7 47.8 12.7 Z M 33.1 13.1 C 28.9 12.1 36.4 12.7 33.1 13.1 M 48.5 12.9 C 45.5 12.7 50.8 11.8 48.5 12.9 C 48.8 12.6 48.5 12.8 48.5 12.9 M 57.7 10.6 C 56.4 11.6 56.4 12.6 57.0 13.6 C 57.6 14.1 57.5 12.1 57.6 13.8 C 56.2 14.1 58.2 16.4 58.1 14.2 C 59.9 13.9 58.4 15.6 59.5 14.7 C 61.5 14.5 60.5 15.2 61.9 15.0 C 62.8 13.8 62.8 15.6 63.2 14.5 C 62.5 15.7 64.8 14.1 64.8 14.7 C 63.5 15.4 70.0 14.7 66.5 14.3 C 67.9 13.7 67.6 14.8 68.1 14.9 C 68.8 14.2 70.5 15.5 71.4 14.8 C 71.2 14.6 70.8 14.6 70.6 14.3 C 70.4 13.9 71.6 14.4 71.5 14.4 C 72.1 14.1 74.5 13.4 72.0 14.7 C 71.8 15.3 74.0 14.4 73.9 14.9 C 76.1 15.0 74.4 13.8 75.4 14.6 C 77.0 14.7 78.1 14.7 78.1 14.5 C 79.0 14.7 79.2 15.3 80.0 14.7 C 81.9 16.0 81.4 12.2 82.1 14.7 C 82.6 14.1 83.2 15.8 83.1 14.2 C 82.4 14.9 86.3 15.4 84.6 14.3 C 85.1 13.9 87.5 15.9 87.2 14.3 C 88.0 13.1 87.9 12.0 86.0 10.8 C 86.2 11.7 84.0 9.9 85.4 11.4 C 87.0 12.0 82.4 12.0 83.4 11.4 C 83.6 9.6 81.1 12.6 80.2 11.3 C 81.0 12.0 77.2 12.4 78.3 11.0 C 77.6 10.9 77.4 11.5 76.7 10.7 C 78.9 10.8 75.8 12.2 75.9 11.3 C 76.3 10.8 73.0 10.4 73.3 11.2 C 74.5 13.1 72.4 10.8 71.8 11.5 C 70.0 12.0 72.1 9.9 70.8 11.3 C 70.4 11.1 67.9 11.1 69.5 10.7 C 70.1 10.8 68.0 12.8 67.8 11.1 C 70.4 10.2 64.7 10.6 65.6 11.1 C 69.7 12.0 61.3 12.2 64.5 11.3 C 62.7 10.3 65.0 10.9 62.8 11.3 C 63.1 11.8 61.3 12.3 61.8 11.3 C 61.4 9.7 61.1 13.4 59.8 11.2 C 59.6 10.3 57.1 11.9 58.0 10.9 C 58.1 10.7 57.7 10.6 57.7 10.6 M 58.5 10.8 C 58.2 11.1 58.0 10.3 58.5 10.8 M 58.1 11.1 C 58.1 11.1 58.1 11.1 58.1 11.1 C 58.1 11.1 58.1 11.1 58.1 11.1 Z M 62.5 11.3 C 62.4 11.3 62.4 11.3 62.5 11.3 C 62.5 11.3 62.5 11.3 62.5 11.3 Z M 65.9 15.3 C 65.9 15.3 65.9 15.3 65.9 15.3 C 65.9 15.3 65.9 15.3 65.9 15.3 Z M 65.3 11.4 C 65.3 11.4 65.3 11.4 65.3 11.4 C 65.3 11.4 65.3 11.4 65.3 11.4 Z M 60.9 11.6 C 60.9 11.6 60.9 11.6 60.9 11.6 C 60.9 11.6 60.9 11.6 60.9 11.6 Z M 65.1 10.9 C 65.3 11.4 64.1 10.4 65.1 10.8 C 65.2 10.8 65.0 10.8 65.1 10.9 M 68.8 10.6 C 68.9 10.7 68.9 10.7 68.8 10.6 M 77.2 15.3 C 77.2 15.3 77.2 15.3 77.2 15.3 M 77.8 10.6 C 77.9 10.6 77.9 10.6 77.8 10.6 M 72.6 11.2 C 73.8 11.1 72.9 11.5 72.6 11.2 M 80.9 10.9 C 79.4 10.5 82.4 10.6 80.9 10.9 M 82.3 10.6 C 82.4 10.6 82.4 10.6 82.3 10.6 M 75.7 10.8 C 75.7 10.8 75.7 10.8 75.7 10.8 C 75.7 10.8 75.7 10.8 75.7 10.8 Z M 72.1 11.0 C 70.6 10.7 73.6 10.4 72.1 11.0 M 63.0 10.8 C 63.8 10.5 63.0 11.5 63.0 10.8 M 61.3 11.1 C 61.2 11.1 61.2 11.1 61.3 11.1 C 61.3 11.1 61.3 11.1 61.3 11.1 Z M 78.5 10.9 C 78.5 10.9 78.5 10.9 78.5 10.9 C 78.5 10.9 78.5 10.9 78.5 10.9 Z M 80.2 10.8 C 80.2 10.8 80.2 10.8 80.2 10.8 C 80.2 10.8 80.2 10.8 80.2 10.8 Z M 83.0 15.1 C 82.9 15.1 82.9 15.1 83.0 15.1 C 83.0 15.1 83.0 15.1 83.0 15.1 Z M 62.5 12.9 C 61.4 12.6 63.7 11.5 63.4 12.5 C 63.6 13.0 62.7 12.8 62.5 12.9 M 71.0 12.3 C 71.3 13.8 69.9 10.3 71.0 12.3 M 82.5 11.5 C 83.6 13.3 81.1 10.3 82.5 11.5 M 84.8 11.2 C 85.4 11.6 80.5 11.4 84.0 11.0 C 84.3 10.7 84.5 11.0 84.8 11.2 M 68.9 11.3 C 69.2 12.2 67.1 11.0 68.9 11.3 M 75.8 13.8 C 76.4 13.3 77.8 12.8 77.2 13.7 C 77.2 14.8 75.2 14.2 75.8 13.8 M 58.8 11.6 C 59.7 10.3 58.8 12.7 58.8 11.6 M 63.2 11.7 C 63.2 11.6 63.2 11.6 63.2 11.7 C 63.2 11.7 63.2 11.7 63.2 11.7 Z M 64.9 11.5 C 65.0 11.6 65.0 11.6 64.9 11.5 M 59.5 10.4 C 59.6 10.5 59.6 10.5 59.5 10.4 M 75.8 12.4 C 75.9 12.5 75.9 12.5 75.8 12.4 M 72.3 11.6 C 73.9 12.9 71.4 11.8 72.3 11.6 M 68.1 14.1 C 68.6 14.7 67.1 14.1 68.1 14.1 M 75.0 11.1 C 76.2 12.3 73.4 12.2 75.0 11.1 M 71.4 11.4 C 71.5 11.4 71.5 11.4 71.4 11.4 C 71.4 11.4 71.4 11.4 71.4 11.4 Z M 76.3 13.9 C 76.2 13.9 76.2 13.9 76.3 13.9 C 76.3 13.9 76.3 13.9 76.3 13.9 Z M 76.8 13.9 C 76.7 13.9 76.7 13.9 76.8 13.9 C 76.8 13.9 76.8 13.9 76.8 13.9 Z M 76.5 10.9 C 76.5 11.0 76.5 11.0 76.5 10.9 C 76.5 10.9 76.5 10.9 76.5 10.9 Z M 61.1 14.5 C 62.3 14.6 60.2 14.7 61.1 14.5 C 61.1 14.5 61.1 14.5 61.1 14.5 Z M 66.4 10.9 C 68.4 11.8 65.1 11.8 66.4 10.9 C 66.4 10.9 66.4 10.9 66.4 10.9 Z M 68.7 12.5 C 68.7 12.5 68.7 12.5 68.7 12.5 C 68.7 12.5 68.7 12.5 68.7 12.5 Z M 74.3 10.3 C 74.3 10.4 74.3 10.4 74.3 10.3 C 74.3 10.3 74.3 10.3 74.3 10.3 Z M 61.7 14.7 C 61.7 14.7 61.7 14.7 61.7 14.7 C 61.7 14.7 61.7 14.7 61.7 14.7 Z M 79.9 11.6 C 79.9 11.7 79.9 11.7 79.9 11.6 C 79.9 11.6 79.9 11.6 79.9 11.6 Z M 73.0 14.1 C 73.5 13.6 73.1 14.5 73.0 14.1 C 73.0 14.1 73.0 14.1 73.0 14.1 Z M 74.8 14.1 C 74.9 14.1 74.9 14.1 74.8 14.1 C 74.8 14.1 74.8 14.1 74.8 14.1 Z M 82.7 10.5 C 82.8 10.5 82.8 10.5 82.7 10.5 C 82.7 10.5 82.7 10.5 82.7 10.5 Z M 79.4 15.3 C 79.4 15.3 79.4 15.3 79.4 15.3 C 79.4 15.3 79.4 15.3 79.4 15.3 Z M 80.9 13.8 C 80.9 13.9 80.9 13.9 80.9 13.8 C 80.9 13.8 80.9 13.8 80.9 13.8 Z M 76.2 11.2 C 78.0 11.0 75.8 11.8 76.2 11.2 C 76.2 11.2 76.2 11.2 76.2 11.2 Z M 85.3 13.4 C 85.3 13.5 85.3 13.5 85.3 13.4 C 85.3 13.4 85.3 13.4 85.3 13.4 Z M 86.2 11.8 C 86.3 11.8 86.3 11.8 86.2 11.8 C 86.2 11.8 86.2 11.8 86.2 11.8 Z M 86.7 10.9 C 86.7 10.9 86.7 10.9 86.7 10.9 C 86.7 10.9 86.7 10.9 86.7 10.9 Z M 64.9 13.3 C 64.8 13.2 64.8 13.2 64.9 13.3 C 64.9 13.3 64.9 13.3 64.9 13.3 Z M 64.2 10.6 C 64.2 10.5 64.2 10.5 64.2 10.6 C 64.2 10.6 64.2 10.6 64.2 10.6 Z M 66.6 10.4 C 66.6 10.4 66.6 10.4 66.6 10.4 C 66.6 10.4 66.6 10.4 66.6 10.4 Z M 64.4 15.0 C 64.4 14.9 64.4 14.9 64.4 15.0 C 64.4 15.0 64.4 15.0 64.4 15.0 Z M 73.5 12.6 C 73.5 12.6 73.5 12.6 73.5 12.6 C 73.5 12.6 73.5 12.6 73.5 12.6 Z M 74.4 13.7 C 74.3 13.7 74.3 13.7 74.4 13.7 C 74.4 13.7 74.4 13.7 74.4 13.7 Z M 72.3 15.2 C 72.3 15.2 72.3 15.2 72.3 15.2 C 72.3 15.2 72.3 15.2 72.3 15.2 Z M 75.0 14.7 C 75.0 14.7 75.0 14.7 75.0 14.7 C 75.0 14.7 75.0 14.7 75.0 14.7 Z M 58.4 14.5 C 58.4 14.5 58.4 14.5 58.4 14.5 C 58.4 14.5 58.4 14.5 58.4 14.5 Z M 58.2 12.4 C 58.1 12.4 58.1 12.4 58.2 12.4 C 58.2 12.4 58.2 12.4 58.2 12.4 Z M 73.8 11.1 C 74.2 10.7 74.6 11.7 73.8 11.1 M 70.3 11.4 C 70.3 11.4 70.3 11.4 70.3 11.4 C 70.3 11.4 70.3 11.4 70.3 11.4 Z M 79.6 11.2 C 80.1 12.0 78.0 10.8 79.6 11.2 C 79.6 11.2 79.6 11.2 79.6 11.2 Z M 77.8 14.7 C 77.8 14.7 77.8 14.7 77.8 14.7 C 77.8 14.7 77.8 14.7 77.8 14.7 Z M 78.7 14.3 C 78.8 14.4 78.8 14.4 78.7 14.3 C 78.7 14.3 78.7 14.3 78.7 14.3 Z M 83.7 12.1 C 83.8 12.2 83.8 12.2 83.7 12.1 M 69.9 10.6 C 70.4 11.0 70.3 10.9 69.9 10.6 M 80.8 11.2 C 80.7 11.2 80.7 11.2 80.8 11.2 C 80.8 11.2 80.8 11.2 80.8 11.2 Z M 84.8 11.6 C 84.7 11.6 84.7 11.6 84.8 11.6 C 84.8 11.6 84.8 11.6 84.8 11.6 Z M 67.4 11.2 C 67.5 12.2 67.1 12.0 67.4 11.2 M 60.6 11.5 C 60.6 11.6 60.6 11.6 60.6 11.5 C 60.6 11.5 60.6 11.5 60.6 11.5 Z M 90.3 10.9 C 88.4 9.8 88.4 11.3 88.4 11.4 C 88.6 9.3 86.7 12.2 87.1 12.6 C 87.0 12.9 88.5 16.6 89.8 14.4 C 90.2 14.1 90.4 14.8 90.6 14.8 C 92.9 14.7 89.0 13.7 91.8 13.7 C 92.3 14.0 91.8 15.7 93.4 14.5 C 93.5 14.7 95.4 15.3 94.7 14.5 C 95.5 15.3 96.1 14.4 97.0 14.2 C 97.7 14.6 96.3 15.4 99.0 14.5 C 100.2 15.9 100.6 13.4 101.6 15.0 C 102.3 15.0 103.4 12.4 101.8 13.9 C 102.0 13.7 101.0 12.5 103.1 12.9 C 102.8 13.3 101.7 15.9 105.0 14.7 C 105.6 14.7 106.8 14.0 107.1 14.3 C 105.4 14.6 109.5 15.5 109.1 14.7 C 111.8 15.3 110.2 14.0 112.1 14.9 C 113.7 15.0 111.6 13.7 113.6 14.4 C 115.1 14.3 114.1 15.0 113.9 14.9 C 115.2 15.1 115.7 14.6 116.1 14.6 C 116.4 14.7 117.0 15.3 117.3 14.6 C 118.7 13.4 117.4 12.2 118.0 11.0 C 117.0 10.4 117.6 11.9 116.9 11.0 C 116.4 11.7 116.8 10.9 114.1 11.1 C 114.2 11.3 114.8 11.8 114.2 11.9 C 113.1 11.8 113.9 9.7 112.1 11.2 C 114.2 11.6 109.2 11.8 111.2 12.3 C 108.8 12.5 110.5 12.1 108.7 11.6 C 108.8 13.0 108.6 10.1 108.0 11.2 C 107.8 10.7 105.1 10.9 107.0 11.8 C 104.2 12.1 106.0 11.3 105.0 10.6 C 103.7 10.5 104.9 12.9 104.1 11.2 C 102.4 10.4 104.0 12.0 102.8 10.7 C 103.3 11.9 101.5 10.7 102.0 11.9 C 99.1 12.0 102.4 10.6 100.3 11.5 C 101.0 11.5 100.7 9.8 99.5 10.9 C 100.0 13.0 97.8 9.1 98.7 11.8 C 94.7 12.6 98.1 10.7 95.9 10.7 C 95.3 10.7 96.5 11.6 96.0 11.6 C 93.1 11.2 95.5 10.5 94.0 11.8 C 91.2 12.2 93.2 10.7 91.8 10.6 C 91.7 11.2 90.5 12.3 90.3 10.9 M 92.8 11.5 C 93.4 11.1 93.2 12.0 92.8 11.5 M 87.1 10.9 C 87.7 10.5 87.5 11.3 87.1 10.9 M 95.1 11.1 C 95.9 10.7 95.4 11.9 95.1 11.1 M 110.3 11.8 C 109.3 11.8 110.8 11.4 110.3 11.8 M 89.4 10.8 C 90.2 10.3 89.6 11.5 89.4 10.8 M 88.4 11.9 C 88.4 11.9 88.4 11.9 88.4 11.9 M 111.8 10.7 C 111.9 10.7 111.9 10.7 111.8 10.7 M 107.8 10.7 C 108.6 10.7 107.3 11.0 107.8 10.7 M 107.6 15.2 C 108.5 15.2 107.1 15.4 107.6 15.2 M 114.1 10.6 C 114.9 10.3 114.3 11.1 114.1 10.6 M 116.3 11.6 C 117.1 11.2 116.8 12.1 116.3 11.6 M 92.3 13.1 C 92.3 13.1 92.3 13.1 92.3 13.1 C 92.3 13.1 92.3 13.1 92.3 13.1 Z M 99.8 14.2 C 98.9 13.8 100.8 14.8 99.8 14.2 M 98.4 11.3 C 99.0 12.2 97.2 11.2 98.4 11.3 C 98.4 11.3 98.4 11.3 98.4 11.3 Z M 97.1 11.7 C 97.1 11.7 97.1 11.7 97.1 11.7 C 97.1 11.7 97.1 11.7 97.1 11.7 Z M 101.3 11.7 C 101.2 11.8 101.2 11.8 101.3 11.7 C 101.3 11.7 101.3 11.7 101.3 11.7 Z M 100.4 11.8 C 100.1 12.0 99.9 11.6 100.4 11.8 C 100.4 11.8 100.4 11.8 100.4 11.8 Z M 106.6 14.7 C 106.2 14.9 106.1 14.5 106.6 14.7 C 106.6 14.7 106.6 14.7 106.6 14.7 Z M 99.1 12.1 C 99.0 13.0 98.5 11.5 99.1 12.1 C 99.1 12.1 99.1 12.1 99.1 12.1 Z M 103.6 14.3 C 104.0 14.1 104.4 15.2 103.6 14.3 M 112.7 10.9 C 113.1 10.6 113.5 11.7 112.7 10.9 M 103.8 10.6 C 104.1 10.4 104.6 11.5 103.8 10.6 M 93.3 11.1 C 93.4 11.2 93.4 11.2 93.3 11.1 M 98.2 15.1 C 98.8 14.7 98.5 15.5 98.2 15.1 M 89.8 14.8 C 90.4 14.4 90.1 15.2 89.8 14.8 M 111.4 15.1 C 111.4 14.8 112.3 15.2 111.4 15.1 M 104.8 12.1 C 105.6 12.2 106.4 12.7 104.8 12.6 C 104.7 12.4 105.2 12.3 104.8 12.1 C 104.8 12.1 104.8 12.1 104.8 12.1 Z M 107.6 14.1 C 107.7 14.2 107.7 14.2 107.6 14.1 M 106.2 11.2 C 106.3 11.3 106.3 11.3 106.2 11.2 M 110.8 11.3 C 110.9 11.4 110.9 11.4 110.8 11.3 M 111.3 11.0 C 111.3 11.1 111.3 11.1 111.3 11.0 C 111.3 11.0 111.3 11.0 111.3 11.0 Z M 116.4 10.7 C 116.3 10.7 116.3 10.7 116.4 10.7 C 116.4 10.7 116.4 10.7 116.4 10.7 Z M 109.3 11.4 C 109.3 11.5 109.3 11.5 109.3 11.4 C 109.3 11.4 109.3 11.4 109.3 11.4 Z M 113.5 14.9 C 113.5 14.9 113.5 14.9 113.5 14.9 C 113.5 14.9 113.5 14.9 113.5 14.9 Z M 112.9 14.3 C 112.9 14.4 112.9 14.4 112.9 14.3 C 112.9 14.3 112.9 14.3 112.9 14.3 Z M 90.7 10.9 C 91.4 10.2 91.1 12.5 90.7 10.9 M 115.2 14.4 C 115.8 15.0 114.0 14.5 115.2 14.4 C 115.2 14.4 115.2 14.4 115.2 14.4 Z M 108.8 12.2 C 108.8 12.3 108.8 12.3 108.8 12.2 M 111.6 11.1 C 111.7 11.3 111.7 11.3 111.6 11.1 M 98.3 10.4 C 98.4 10.6 98.4 10.6 98.3 10.4 M 115.1 11.3 C 117.3 11.5 114.2 12.6 115.1 11.3 M 97.4 11.3 C 97.3 11.2 97.3 11.2 97.4 11.3 M 102.2 13.0 C 103.6 13.0 101.7 13.5 102.2 13.0 M 105.8 11.9 C 105.8 11.9 105.8 11.9 105.8 11.9 C 105.8 11.9 105.8 11.9 105.8 11.9 Z M 103.7 11.9 C 102.6 12.0 103.4 11.6 103.7 11.9 C 103.7 11.9 103.7 11.9 103.7 11.9 Z M 91.7 11.7 C 93.0 11.9 90.3 12.0 91.7 11.7 C 91.7 11.7 91.7 11.7 91.7 11.7 Z M 114.2 13.4 C 114.1 13.5 114.1 13.5 114.2 13.4 C 114.2 13.4 114.2 13.4 114.2 13.4 Z M 109.1 10.8 C 108.4 11.0 108.8 10.5 109.1 10.8 C 109.1 10.8 109.1 10.8 109.1 10.8 Z M 117.1 10.7 C 116.5 10.9 116.8 10.4 117.1 10.7 C 117.1 10.7 117.1 10.7 117.1 10.7 Z M 90.1 11.6 C 95.0 13.1 83.5 11.2 90.1 11.6 C 90.1 11.6 90.1 11.6 90.1 11.6 Z M 104.5 11.2 C 104.5 11.3 104.5 11.3 104.5 11.2 C 104.5 11.2 104.5 11.2 104.5 11.2 Z M 95.4 10.6 C 95.4 10.7 95.4 10.7 95.4 10.6 C 95.4 10.6 95.4 10.6 95.4 10.6 Z M 93.9 11.5 C 93.8 11.5 93.8 11.5 93.9 11.5 C 93.9 11.5 93.9 11.5 93.9 11.5 Z M 94.3 15.0 C 94.3 15.0 94.3 15.0 94.3 15.0 C 94.3 15.0 94.3 15.0 94.3 15.0 Z M 94.8 13.4 C 94.8 13.5 94.8 13.5 94.8 13.4 C 94.8 13.4 94.8 13.4 94.8 13.4 Z M 91.6 14.0 C 91.6 14.1 91.6 14.1 91.6 14.0 C 91.6 14.0 91.6 14.0 91.6 14.0 Z M 91.7 14.5 C 91.7 14.5 91.7 14.5 91.7 14.5 C 91.7 14.5 91.7 14.5 91.7 14.5 Z M 111.6 12.1 C 111.6 12.2 111.6 12.2 111.6 12.1 C 111.6 12.1 111.6 12.1 111.6 12.1 Z M 109.9 13.6 C 111.1 13.1 109.6 14.4 109.9 13.6 C 109.9 13.6 109.9 13.6 109.9 13.6 Z M 99.7 12.9 C 100.8 12.7 99.0 13.3 99.7 12.9 C 99.7 12.9 99.7 12.9 99.7 12.9 Z M 100.9 14.8 C 100.9 14.8 100.9 14.8 100.9 14.8 C 100.9 14.8 100.9 14.8 100.9 14.8 Z M 93.9 10.6 C 93.8 10.7 93.8 10.7 93.9 10.6 C 93.9 10.6 93.9 10.6 93.9 10.6 Z M 91.9 11.2 C 91.8 11.9 91.3 10.8 91.9 11.2 M 101.7 10.8 C 101.7 10.9 101.7 10.9 101.7 10.8 C 101.7 10.8 101.7 10.8 101.7 10.8 Z M 107.9 11.9 C 107.9 12.0 107.9 12.0 107.9 11.9 C 107.9 11.9 107.9 11.9 107.9 11.9 Z M 114.0 11.5 C 114.0 11.6 114.0 11.6 114.0 11.5 C 114.0 11.5 114.0 11.5 114.0 11.5 Z M 105.6 10.9 C 105.5 11.0 105.5 11.0 105.6 10.9 C 105.6 10.9 105.6 10.9 105.6 10.9 Z M 102.6 11.5 C 102.6 11.6 102.6 11.6 102.6 11.5 C 102.6 11.5 102.6 11.5 102.6 11.5 Z M 115.4 12.5 C 115.3 12.6 115.3 12.6 115.4 12.5 C 115.4 12.5 115.4 12.5 115.4 12.5 Z M 106.2 10.8 C 106.2 10.8 106.2 10.8 106.2 10.8 C 106.2 10.8 106.2 10.8 106.2 10.8 Z M 108.0 13.1 C 108.0 13.2 108.0 13.2 108.0 13.1 C 108.0 13.1 108.0 13.1 108.0 13.1 Z M 92.2 10.1 C 92.2 10.2 92.2 10.2 92.2 10.1 C 92.2 10.1 92.2 10.1 92.2 10.1 Z M 115.4 11.5 C 115.4 11.5 115.4 11.5 115.4 11.5 C 115.4 11.5 115.4 11.5 115.4 11.5 Z M 115.8 10.8 C 115.8 10.9 115.8 10.9 115.8 10.8 C 115.8 10.8 115.8 10.8 115.8 10.8 Z M 111.5 14.4 C 109.3 14.0 113.4 14.2 111.8 13.4 C 114.9 13.2 111.9 14.4 111.5 14.4 C 111.5 14.4 111.5 14.4 111.5 14.4 Z M 118.7 10.6 C 117.5 11.6 117.5 12.6 118.0 13.6 C 118.6 14.1 118.6 12.1 118.6 13.8 C 117.3 14.1 119.2 16.4 119.2 14.2 C 121.0 13.9 119.5 15.6 120.6 14.7 C 122.5 14.5 121.5 15.2 123.0 15.0 C 123.9 13.8 123.9 15.6 124.3 14.5 C 123.5 15.7 125.9 14.1 125.9 14.7 C 124.6 15.4 131.1 14.7 127.5 14.3 C 129.0 13.7 128.7 14.8 129.2 14.9 C 129.8 14.2 131.6 15.5 132.5 14.8 C 132.3 14.6 131.9 14.6 131.7 14.3 C 131.5 13.9 132.7 14.4 132.6 14.4 C 133.2 14.1 135.5 13.4 133.0 14.7 C 132.9 15.3 135.1 14.4 135.0 14.9 C 137.2 15.0 135.5 13.8 136.5 14.6 C 138.0 14.7 139.1 14.7 139.1 14.5 C 140.1 14.7 140.3 15.3 141.1 14.7 C 143.0 16.0 142.5 12.2 143.2 14.7 C 143.7 14.1 144.2 15.8 144.2 14.2 C 143.5 14.9 147.4 15.4 145.7 14.3 C 146.2 13.9 148.6 15.9 148.2 14.3 C 149.1 13.1 149.0 12.0 147.1 10.8 C 147.3 11.7 145.1 9.9 146.5 11.4 C 148.1 12.0 143.5 12.0 144.5 11.4 C 144.7 9.6 142.2 12.6 141.2 11.3 C 142.0 12.0 138.3 12.4 139.4 11.0 C 138.7 10.9 138.5 11.5 137.7 10.7 C 140.0 10.8 136.9 12.2 137.0 11.3 C 137.4 10.8 134.0 10.4 134.4 11.2 C 135.6 13.1 133.5 10.8 132.9 11.5 C 131.1 12.0 133.2 9.9 131.8 11.3 C 131.5 11.1 129.0 11.1 130.6 10.7 C 131.2 10.8 129.1 12.8 128.8 11.1 C 131.5 10.2 125.8 10.6 126.7 11.1 C 130.8 12.0 122.4 12.2 125.6 11.3 C 123.8 10.3 126.1 10.9 123.9 11.3 C 124.2 11.8 122.4 12.3 122.8 11.3 C 122.5 9.7 122.2 13.4 120.8 11.2 C 120.6 10.3 118.1 11.9 119.1 10.9 C 119.2 10.7 118.8 10.6 118.7 10.6 M 119.5 10.8 C 119.2 11.1 119.0 10.3 119.5 10.8 M 119.2 11.1 C 119.2 11.1 119.2 11.1 119.2 11.1 C 119.2 11.1 119.2 11.1 119.2 11.1 Z M 123.5 11.3 C 123.5 11.3 123.5 11.3 123.5 11.3 C 123.5 11.3 123.5 11.3 123.5 11.3 Z M 127.0 15.3 C 126.9 15.3 126.9 15.3 127.0 15.3 C 127.0 15.3 127.0 15.3 127.0 15.3 Z M 126.4 11.4 C 126.4 11.4 126.4 11.4 126.4 11.4 C 126.4 11.4 126.4 11.4 126.4 11.4 Z M 122.0 11.6 C 122.0 11.6 122.0 11.6 122.0 11.6 C 122.0 11.6 122.0 11.6 122.0 11.6 Z M 126.2 10.9 C 126.4 11.4 125.2 10.4 126.2 10.8 C 126.2 10.8 126.1 10.8 126.2 10.9 M 129.9 10.6 C 130.0 10.7 130.0 10.7 129.9 10.6 M 138.2 15.3 C 138.3 15.3 138.3 15.3 138.2 15.3 M 138.9 10.6 C 139.0 10.6 139.0 10.6 138.9 10.6 M 133.7 11.2 C 134.8 11.1 134.0 11.5 133.7 11.2 M 142.0 10.9 C 140.5 10.5 143.5 10.6 142.0 10.9 M 143.4 10.6 C 143.5 10.6 143.5 10.6 143.4 10.6 M 136.8 10.8 C 136.8 10.8 136.8 10.8 136.8 10.8 C 136.8 10.8 136.8 10.8 136.8 10.8 Z M 133.2 11.0 C 131.7 10.7 134.7 10.4 133.2 11.0 M 124.0 10.8 C 124.9 10.5 124.0 11.5 124.0 10.8 M 122.3 11.1 C 122.3 11.1 122.3 11.1 122.3 11.1 C 122.3 11.1 122.3 11.1 122.3 11.1 Z M 139.6 10.9 C 139.6 10.9 139.6 10.9 139.6 10.9 C 139.6 10.9 139.6 10.9 139.6 10.9 Z M 141.3 10.8 C 141.2 10.8 141.2 10.8 141.3 10.8 C 141.3 10.8 141.3 10.8 141.3 10.8 Z M 144.1 15.1 C 144.0 15.1 144.0 15.1 144.1 15.1 C 144.1 15.1 144.1 15.1 144.1 15.1 Z M 123.6 12.9 C 122.5 12.6 124.7 11.5 124.5 12.5 C 124.7 13.0 123.7 12.8 123.6 12.9 M 132.1 12.3 C 132.4 13.8 131.0 10.3 132.1 12.3 M 143.6 11.5 C 144.7 13.3 142.2 10.3 143.6 11.5 M 145.9 11.2 C 146.5 11.6 141.6 11.4 145.0 11.0 C 145.4 10.7 145.6 11.0 145.9 11.2 M 130.0 11.3 C 130.3 12.2 128.2 11.0 130.0 11.3 M 136.9 13.8 C 137.5 13.3 138.9 12.8 138.3 13.7 C 138.2 14.8 136.2 14.2 136.9 13.8 M 119.9 11.6 C 120.8 10.3 119.8 12.7 119.9 11.6 M 124.3 11.7 C 124.3 11.6 124.3 11.6 124.3 11.7 C 124.3 11.7 124.3 11.7 124.3 11.7 Z M 126.0 11.5 C 126.1 11.6 126.1 11.6 126.0 11.5 M 120.6 10.4 C 120.7 10.5 120.7 10.5 120.6 10.4 M 136.9 12.4 C 137.0 12.5 137.0 12.5 136.9 12.4 M 133.4 11.6 C 135.0 12.9 132.4 11.8 133.4 11.6 M 129.2 14.1 C 129.7 14.7 128.2 14.1 129.2 14.1 M 136.1 11.1 C 137.3 12.3 134.5 12.2 136.1 11.1 M 132.5 11.4 C 132.6 11.4 132.6 11.4 132.5 11.4 C 132.5 11.4 132.5 11.4 132.5 11.4 Z M 137.4 13.9 C 137.3 13.9 137.3 13.9 137.4 13.9 C 137.4 13.9 137.4 13.9 137.4 13.9 Z M 137.9 13.9 C 137.8 13.9 137.8 13.9 137.9 13.9 C 137.9 13.9 137.9 13.9 137.9 13.9 Z M 137.6 10.9 C 137.5 11.0 137.5 11.0 137.6 10.9 C 137.6 10.9 137.6 10.9 137.6 10.9 Z M 122.2 14.5 C 123.4 14.6 121.3 14.7 122.2 14.5 C 122.2 14.5 122.2 14.5 122.2 14.5 Z M 127.5 10.9 C 129.5 11.8 126.1 11.8 127.5 10.9 C 127.5 10.9 127.5 10.9 127.5 10.9 Z M 129.8 12.5 C 129.8 12.5 129.8 12.5 129.8 12.5 C 129.8 12.5 129.8 12.5 129.8 12.5 Z M 135.4 10.3 C 135.4 10.4 135.4 10.4 135.4 10.3 C 135.4 10.3 135.4 10.3 135.4 10.3 Z M 122.8 14.7 C 122.8 14.7 122.8 14.7 122.8 14.7 C 122.8 14.7 122.8 14.7 122.8 14.7 Z M 141.0 11.6 C 141.0 11.7 141.0 11.7 141.0 11.6 C 141.0 11.6 141.0 11.6 141.0 11.6 Z M 134.1 14.1 C 134.5 13.6 134.2 14.5 134.1 14.1 C 134.1 14.1 134.1 14.1 134.1 14.1 Z M 135.9 14.1 C 136.0 14.1 136.0 14.1 135.9 14.1 C 135.9 14.1 135.9 14.1 135.9 14.1 Z M 143.8 10.5 C 143.9 10.5 143.9 10.5 143.8 10.5 C 143.8 10.5 143.8 10.5 143.8 10.5 Z M 140.5 15.3 C 140.5 15.3 140.5 15.3 140.5 15.3 C 140.5 15.3 140.5 15.3 140.5 15.3 Z M 142.0 13.8 C 141.9 13.9 141.9 13.9 142.0 13.8 C 142.0 13.8 142.0 13.8 142.0 13.8 Z M 137.3 11.2 C 139.1 11.0 136.9 11.8 137.3 11.2 C 137.3 11.2 137.3 11.2 137.3 11.2 Z M 146.4 13.4 C 146.4 13.5 146.4 13.5 146.4 13.4 C 146.4 13.4 146.4 13.4 146.4 13.4 Z M 147.3 11.8 C 147.3 11.8 147.3 11.8 147.3 11.8 C 147.3 11.8 147.3 11.8 147.3 11.8 Z M 147.7 10.9 C 147.8 10.9 147.8 10.9 147.7 10.9 C 147.7 10.9 147.7 10.9 147.7 10.9 Z M 126.0 13.3 C 125.9 13.2 125.9 13.2 126.0 13.3 C 126.0 13.3 126.0 13.3 126.0 13.3 Z M 125.3 10.6 C 125.2 10.5 125.2 10.5 125.3 10.6 C 125.3 10.6 125.3 10.6 125.3 10.6 Z M 127.7 10.4 C 127.7 10.4 127.7 10.4 127.7 10.4 C 127.7 10.4 127.7 10.4 127.7 10.4 Z M 125.5 15.0 C 125.5 14.9 125.5 14.9 125.5 15.0 C 125.5 15.0 125.5 15.0 125.5 15.0 Z M 134.6 12.6 C 134.6 12.6 134.6 12.6 134.6 12.6 C 134.6 12.6 134.6 12.6 134.6 12.6 Z M 135.5 13.7 C 135.4 13.7 135.4 13.7 135.5 13.7 C 135.5 13.7 135.5 13.7 135.5 13.7 Z M 133.4 15.2 C 133.3 15.2 133.3 15.2 133.4 15.2 C 133.4 15.2 133.4 15.2 133.4 15.2 Z M 136.1 14.7 C 136.1 14.7 136.1 14.7 136.1 14.7 C 136.1 14.7 136.1 14.7 136.1 14.7 Z M 119.4 14.5 C 119.4 14.5 119.4 14.5 119.4 14.5 C 119.4 14.5 119.4 14.5 119.4 14.5 Z M 119.3 12.4 C 119.2 12.4 119.2 12.4 119.3 12.4 C 119.3 12.4 119.3 12.4 119.3 12.4 Z M 134.9 11.1 C 135.3 10.7 135.7 11.7 134.9 11.1 M 131.4 11.4 C 131.4 11.4 131.4 11.4 131.4 11.4 C 131.4 11.4 131.4 11.4 131.4 11.4 Z M 140.7 11.2 C 141.1 12.0 139.1 10.8 140.7 11.2 C 140.7 11.2 140.7 11.2 140.7 11.2 Z M 138.9 14.7 C 138.9 14.7 138.9 14.7 138.9 14.7 C 138.9 14.7 138.9 14.7 138.9 14.7 Z M 139.8 14.3 C 139.8 14.4 139.8 14.4 139.8 14.3 C 139.8 14.3 139.8 14.3 139.8 14.3 Z M 144.8 12.1 C 144.9 12.2 144.9 12.2 144.8 12.1 M 131.0 10.6 C 131.5 11.0 131.4 10.9 131.0 10.6 M 141.9 11.2 C 141.8 11.2 141.8 11.2 141.9 11.2 C 141.9 11.2 141.9 11.2 141.9 11.2 Z M 145.9 11.6 C 145.8 11.6 145.8 11.6 145.9 11.6 C 145.9 11.6 145.9 11.6 145.9 11.6 Z M 128.5 11.2 C 128.6 12.2 128.1 12.0 128.5 11.2 M 121.6 11.5 C 121.7 11.6 121.7 11.6 121.6 11.5 C 121.6 11.5 121.6 11.5 121.6 11.5 Z M 151.4 10.9 C 149.5 9.8 149.5 11.3 149.5 11.4 C 149.7 9.3 147.8 12.2 148.2 12.6 C 148.1 12.9 149.6 16.6 150.9 14.4 C 151.2 14.1 151.5 14.8 151.7 14.8 C 154.0 14.7 150.1 13.7 152.9 13.7 C 153.4 14.0 152.9 15.7 154.5 14.5 C 154.6 14.7 156.4 15.3 155.7 14.5 C 156.6 15.3 157.2 14.4 158.0 14.2 C 158.8 14.6 157.4 15.4 160.1 14.5 C 161.3 15.9 161.7 13.4 162.7 15.0 C 163.4 15.0 164.4 12.4 162.9 13.9 C 163.1 13.7 162.1 12.5 164.2 12.9 C 163.9 13.3 162.7 15.9 166.1 14.7 C 166.6 14.7 167.9 14.0 168.2 14.3 C 166.5 14.6 170.6 15.5 170.2 14.7 C 172.8 15.3 171.3 14.0 173.2 14.9 C 174.8 15.0 172.7 13.7 174.7 14.4 C 176.2 14.3 175.2 15.0 175.0 14.9 C 176.3 15.1 176.8 14.6 177.2 14.6 C 177.5 14.7 178.1 15.3 178.4 14.6 C 179.7 13.4 178.5 12.2 179.1 11.0 C 178.1 10.4 178.7 11.9 178.0 11.0 C 177.5 11.7 177.9 10.9 175.2 11.1 C 175.3 11.3 175.9 11.8 175.3 11.9 C 174.2 11.8 175.0 9.7 173.2 11.2 C 175.3 11.6 170.3 11.8 172.2 12.3 C 169.9 12.5 171.6 12.1 169.8 11.6 C 169.9 13.0 169.7 10.1 169.1 11.2 C 168.9 10.7 166.2 10.9 168.1 11.8 C 165.3 12.1 167.1 11.3 166.1 10.6 C 164.8 10.5 166.0 12.9 165.2 11.2 C 163.5 10.4 165.1 12.0 163.9 10.7 C 164.4 11.9 162.6 10.7 163.1 11.9 C 160.2 12.0 163.5 10.6 161.4 11.5 C 162.0 11.5 161.8 9.8 160.6 10.9 C 161.1 13.0 158.9 9.1 159.8 11.8 C 155.8 12.6 159.2 10.7 156.9 10.7 C 156.4 10.7 157.6 11.6 157.0 11.6 C 154.2 11.2 156.6 10.5 155.1 11.8 C 152.2 12.2 154.2 10.7 152.9 10.6 C 152.8 11.2 151.6 12.3 151.4 10.9 M 153.9 11.5 C 154.5 11.1 154.2 12.0 153.9 11.5 M 148.2 10.9 C 148.8 10.5 148.6 11.3 148.2 10.9 M 156.2 11.1 C 157.0 10.7 156.5 11.9 156.2 11.1 M 171.4 11.8 C 170.4 11.8 171.9 11.4 171.4 11.8 M 150.5 10.8 C 151.3 10.3 150.7 11.5 150.5 10.8 M 149.4 11.9 C 149.5 11.9 149.5 11.9 149.4 11.9 M 172.9 10.7 C 173.0 10.7 173.0 10.7 172.9 10.7 M 168.8 10.7 C 169.7 10.7 168.4 11.0 168.8 10.7 M 168.7 15.2 C 169.6 15.2 168.2 15.4 168.7 15.2 M 175.1 10.6 C 176.0 10.3 175.4 11.1 175.1 10.6 M 177.4 11.6 C 178.2 11.2 177.9 12.1 177.4 11.6 M 153.4 13.1 C 153.4 13.1 153.4 13.1 153.4 13.1 C 153.4 13.1 153.4 13.1 153.4 13.1 Z M 160.8 14.2 C 159.9 13.8 161.9 14.8 160.8 14.2 M 159.5 11.3 C 160.1 12.2 158.3 11.2 159.5 11.3 C 159.5 11.3 159.5 11.3 159.5 11.3 Z M 158.2 11.7 C 158.1 11.7 158.1 11.7 158.2 11.7 C 158.2 11.7 158.2 11.7 158.2 11.7 Z M 162.4 11.7 C 162.3 11.8 162.3 11.8 162.4 11.7 C 162.4 11.7 162.4 11.7 162.4 11.7 Z M 161.5 11.8 C 161.2 12.0 161.0 11.6 161.5 11.8 C 161.5 11.8 161.5 11.8 161.5 11.8 Z M 167.6 14.7 C 167.3 14.9 167.2 14.5 167.6 14.7 C 167.6 14.7 167.6 14.7 167.6 14.7 Z M 160.2 12.1 C 160.1 13.0 159.6 11.5 160.2 12.1 C 160.2 12.1 160.2 12.1 160.2 12.1 Z M 164.7 14.3 C 165.1 14.1 165.5 15.2 164.7 14.3 M 173.8 10.9 C 174.1 10.6 174.6 11.7 173.8 10.9 M 164.8 10.6 C 165.2 10.4 165.6 11.5 164.8 10.6 M 154.4 11.1 C 154.5 11.2 154.5 11.2 154.4 11.1 M 159.3 15.1 C 159.9 14.7 159.6 15.5 159.3 15.1 M 150.9 14.8 C 151.5 14.4 151.2 15.2 150.9 14.8 M 172.5 15.1 C 172.5 14.8 173.4 15.2 172.5 15.1 M 165.9 12.1 C 166.7 12.2 167.5 12.7 165.8 12.6 C 165.7 12.4 166.2 12.3 165.9 12.1 C 165.9 12.1 165.9 12.1 165.9 12.1 Z M 168.7 14.1 C 168.8 14.2 168.8 14.2 168.7 14.1 M 167.3 11.2 C 167.4 11.3 167.4 11.3 167.3 11.2 M 171.9 11.3 C 172.0 11.4 172.0 11.4 171.9 11.3 M 172.4 11.0 C 172.4 11.1 172.4 11.1 172.4 11.0 C 172.4 11.0 172.4 11.0 172.4 11.0 Z M 177.4 10.7 C 177.4 10.7 177.4 10.7 177.4 10.7 C 177.4 10.7 177.4 10.7 177.4 10.7 Z M 170.4 11.4 C 170.4 11.5 170.4 11.5 170.4 11.4 C 170.4 11.4 170.4 11.4 170.4 11.4 Z M 174.5 14.9 C 174.5 14.9 174.5 14.9 174.5 14.9 C 174.5 14.9 174.5 14.9 174.5 14.9 Z M 174.0 14.3 C 174.0 14.4 174.0 14.4 174.0 14.3 C 174.0 14.3 174.0 14.3 174.0 14.3 Z M 151.8 10.9 C 152.5 10.2 152.1 12.5 151.8 10.9 M 176.2 14.4 C 176.9 15.0 175.1 14.5 176.2 14.4 C 176.2 14.4 176.2 14.4 176.2 14.4 Z M 169.9 12.2 C 169.9 12.3 169.9 12.3 169.9 12.2 M 172.7 11.1 C 172.8 11.3 172.8 11.3 172.7 11.1 M 159.4 10.4 C 159.5 10.6 159.5 10.6 159.4 10.4 M 176.2 11.3 C 178.4 11.5 175.3 12.6 176.2 11.3 M 158.4 11.3 C 158.4 11.2 158.4 11.2 158.4 11.3 M 163.2 13.0 C 164.7 13.0 162.7 13.5 163.2 13.0 M 166.9 11.9 C 166.8 11.9 166.8 11.9 166.9 11.9 C 166.9 11.9 166.9 11.9 166.9 11.9 Z M 164.8 11.9 C 163.7 12.0 164.5 11.6 164.8 11.9 C 164.8 11.9 164.8 11.9 164.8 11.9 Z M 152.8 11.7 C 154.1 11.9 151.4 12.0 152.8 11.7 C 152.8 11.7 152.8 11.7 152.8 11.7 Z M 175.3 13.4 C 175.2 13.5 175.2 13.5 175.3 13.4 C 175.3 13.4 175.3 13.4 175.3 13.4 Z M 170.1 10.8 C 169.5 11.0 169.8 10.5 170.1 10.8 C 170.1 10.8 170.1 10.8 170.1 10.8 Z M 178.2 10.7 C 177.6 10.9 177.9 10.4 178.2 10.7 C 178.2 10.7 178.2 10.7 178.2 10.7 Z M 151.1 11.6 C 156.1 13.1 144.6 11.2 151.1 11.6 C 151.1 11.6 151.1 11.6 151.1 11.6 Z M 165.6 11.2 C 165.6 11.3 165.6 11.3 165.6 11.2 C 165.6 11.2 165.6 11.2 165.6 11.2 Z M 156.5 10.6 C 156.5 10.7 156.5 10.7 156.5 10.6 C 156.5 10.6 156.5 10.6 156.5 10.6 Z M 154.9 11.5 C 154.9 11.5 154.9 11.5 154.9 11.5 C 154.9 11.5 154.9 11.5 154.9 11.5 Z M 155.4 15.0 C 155.3 15.0 155.3 15.0 155.4 15.0 C 155.4 15.0 155.4 15.0 155.4 15.0 Z M 155.9 13.4 C 155.8 13.5 155.8 13.5 155.9 13.4 C 155.9 13.4 155.9 13.4 155.9 13.4 Z M 152.7 14.0 C 152.7 14.1 152.7 14.1 152.7 14.0 C 152.7 14.0 152.7 14.0 152.7 14.0 Z M 152.8 14.5 C 152.8 14.5 152.8 14.5 152.8 14.5 C 152.8 14.5 152.8 14.5 152.8 14.5 Z M 172.7 12.1 C 172.7 12.2 172.7 12.2 172.7 12.1 C 172.7 12.1 172.7 12.1 172.7 12.1 Z M 171.0 13.6 C 172.2 13.1 170.7 14.4 171.0 13.6 C 171.0 13.6 171.0 13.6 171.0 13.6 Z M 160.8 12.9 C 161.9 12.7 160.1 13.3 160.8 12.9 C 160.8 12.9 160.8 12.9 160.8 12.9 Z M 162.0 14.8 C 162.0 14.8 162.0 14.8 162.0 14.8 C 162.0 14.8 162.0 14.8 162.0 14.8 Z M 154.9 10.6 C 154.9 10.7 154.9 10.7 154.9 10.6 C 154.9 10.6 154.9 10.6 154.9 10.6 Z M 153.0 11.2 C 152.9 11.9 152.4 10.8 153.0 11.2 M 162.8 10.8 C 162.8 10.9 162.8 10.9 162.8 10.8 C 162.8 10.8 162.8 10.8 162.8 10.8 Z M 169.0 11.9 C 169.0 12.0 169.0 12.0 169.0 11.9 C 169.0 11.9 169.0 11.9 169.0 11.9 Z M 175.1 11.5 C 175.1 11.6 175.1 11.6 175.1 11.5 C 175.1 11.5 175.1 11.5 175.1 11.5 Z M 166.6 10.9 C 166.6 11.0 166.6 11.0 166.6 10.9 C 166.6 10.9 166.6 10.9 166.6 10.9 Z M 163.7 11.5 C 163.7 11.6 163.7 11.6 163.7 11.5 C 163.7 11.5 163.7 11.5 163.7 11.5 Z M 176.5 12.5 C 176.4 12.6 176.4 12.6 176.5 12.5 C 176.5 12.5 176.5 12.5 176.5 12.5 Z M 167.3 10.8 C 167.3 10.8 167.3 10.8 167.3 10.8 C 167.3 10.8 167.3 10.8 167.3 10.8 Z M 169.1 13.1 C 169.0 13.2 169.0 13.2 169.1 13.1 C 169.1 13.1 169.1 13.1 169.1 13.1 Z M 153.3 10.1 C 153.3 10.2 153.3 10.2 153.3 10.1 C 153.3 10.1 153.3 10.1 153.3 10.1 Z M 176.5 11.5 C 176.5 11.5 176.5 11.5 176.5 11.5 C 176.5 11.5 176.5 11.5 176.5 11.5 Z M 176.9 10.8 C 176.9 10.9 176.9 10.9 176.9 10.8 C 176.9 10.8 176.9 10.8 176.9 10.8 Z M 172.6 14.4 C 170.4 14.0 174.5 14.2 172.9 13.4 C 176.0 13.2 173.0 14.4 172.6 14.4 C 172.6 14.4 172.6 14.4 172.6 14.4 Z M 172.6 14.4 " fill="#71AFE1"></path><path d="M 20.4 10.4 C 21.7 10.8 20.2 13.1 21.6 13.5 C 22.9 14.0 20.8 15.2 19.6 15.7 C 19.5 15.7 19.4 15.8 19.3 15.8 C 19.1 15.8 18.8 15.8 18.5 15.8 C 19.1 15.8 18.0 16.6 18.4 17.0 C 18.4 17.1 19.2 17.1 19.3 17.2 C 19.6 17.7 20.0 17.8 20.5 18.3 C 20.6 18.4 20.6 18.5 20.7 18.6 C 20.7 18.6 20.8 18.7 20.8 18.7 C 20.9 18.9 20.6 19.7 20.7 19.8 C 20.8 19.9 21.4 20.2 21.5 20.2 C 21.6 20.4 21.6 19.6 21.7 19.8 C 21.8 19.9 21.9 20.2 21.9 20.3 C 22.1 20.6 22.2 20.6 22.5 20.9 C 22.6 21.0 22.7 21.0 22.7 21.1 C 23.3 21.1 23.5 21.9 23.9 22.4 C 23.9 22.5 24.1 23.9 24.2 24.0 C 24.2 24.1 24.3 24.1 24.4 24.2 C 24.4 24.3 24.4 24.4 24.3 24.4 C 24.2 24.7 23.7 24.8 23.5 24.5 C 23.2 24.2 24.9 25.4 24.6 25.6 C 23.9 26.0 24.0 25.4 23.7 25.0 C 23.3 24.7 22.7 25.4 22.3 24.7 C 22.2 24.5 21.5 22.9 21.1 23.2 C 21.3 23.7 21.6 23.4 21.3 23.8 C 21.0 24.3 20.6 23.6 20.4 23.4 C 20.2 23.3 19.9 23.5 19.8 23.4 C 19.3 23.2 18.7 23.1 18.3 22.8 C 18.2 22.6 18.2 20.7 17.5 21.6 C 17.1 22.0 17.0 22.2 16.6 21.7 C 16.6 21.6 16.5 21.5 16.5 21.4 C 16.5 21.3 16.5 21.2 16.6 21.1 C 16.5 21.0 16.4 21.0 16.3 20.9 C 16.1 20.8 15.9 20.7 15.7 20.5 C 15.7 20.7 15.6 20.7 15.6 20.9 C 15.1 20.4 14.8 19.7 14.3 19.3 C 13.8 19.0 14.8 20.0 14.4 20.5 C 14.0 20.3 12.7 19.4 12.6 19.1 C 12.2 18.9 13.5 18.6 13.3 18.1 C 13.2 17.8 12.2 18.1 12.3 17.6 C 12.3 17.5 11.5 17.3 11.3 17.2 C 11.3 17.1 10.7 17.6 10.6 17.6 C 10.5 17.6 10.3 17.6 10.2 17.6 C 10.1 17.6 10.0 17.5 9.9 17.3 C 9.9 17.2 10.0 16.6 10.0 16.5 C 10.0 16.7 9.6 16.7 9.6 16.8 C 9.3 17.0 8.9 16.7 8.8 16.5 C 8.8 16.4 8.7 16.3 8.6 16.2 C 8.1 15.8 8.7 15.9 8.1 15.6 C 7.9 15.5 7.7 15.4 7.4 15.4 L 6.2 14.5 C 6.1 14.4 5.5 13.9 5.4 13.8 C 4.0 12.9 6.0 12.4 6.1 12.2 C 6.2 12.1 6.6 11.7 6.7 11.6 C 7.2 11.3 7.8 11.1 8.0 10.6 C 8.1 10.5 8.4 10.3 8.4 10.3 C 7.0 12.8 11.3 8.6 9.6 8.9 C 9.6 8.9 9.7 8.8 9.7 8.7 C 9.7 8.6 10.0 8.5 10.1 8.5 C 10.3 8.4 10.3 8.7 10.5 8.5 C 10.9 8.3 11.1 8.2 11.5 8.1 C 11.9 8.0 11.3 7.8 12.2 7.0 C 10.7 10.4 13.1 8.7 14.1 7.8 C 14.5 7.5 13.4 6.6 13.7 6.3 C 15.4 5.2 14.5 6.8 14.5 7.0 C 14.7 6.7 14.6 7.5 15.8 6.2 C 16.0 6.0 16.0 5.5 16.1 5.4 C 16.4 5.1 16.9 4.7 17.4 4.7 C 17.9 4.7 18.4 5.2 18.8 5.0 C 19.2 4.7 19.0 4.3 18.8 3.9 C 18.9 3.8 20.4 3.5 20.3 3.3 C 20.2 3.2 20.1 3.3 20.0 3.3 L 19.9 3.2 C 20.3 3.1 20.1 2.8 20.3 2.7 L 21.0 2.3 C 21.2 2.2 20.7 4.0 20.9 3.9 C 25.7 1.9 21.9 2.1 22.1 2.0 C 22.1 1.9 22.4 1.9 22.7 1.9 C 22.8 1.9 23.0 1.9 23.1 1.8 C 23.4 1.4 23.9 1.3 24.4 1.2 C 24.5 1.2 24.6 1.2 24.7 1.2 C 25.1 1.2 25.5 1.2 25.6 1.5 C 25.3 2.4 24.8 2.7 24.3 3.3 C 24.2 3.4 24.1 3.4 24.1 3.5 C 23.8 3.7 23.6 4.0 23.5 4.4 C 23.4 4.5 23.3 4.6 23.3 4.7 C 22.8 5.3 22.5 6.1 22.2 6.8 C 22.2 6.9 21.4 6.9 21.4 7.0 C 21.3 7.2 21.9 7.5 21.6 7.5 C 21.5 7.6 20.5 8.0 20.4 8.1 C 20.2 8.3 20.9 8.1 20.7 8.3 C 20.6 8.4 20.5 8.4 20.4 8.5 C 20.3 9.3 18.3 9.3 18.9 10.2 C 20.3 10.6 19.0 10.0 20.4 10.4 Z M 24.7 23.7 C 24.5 23.7 24.5 23.7 24.6 23.5 C 24.7 23.6 24.7 23.7 24.7 23.7 Z M 23.8 23.7 C 23.7 23.6 23.6 23.6 23.5 23.5 C 23.1 23.5 23.0 23.3 23.0 22.9 C 23.0 22.8 23.0 22.4 23.0 22.3 C 23.0 21.8 23.1 21.7 23.0 21.8 C 23.0 21.9 22.9 21.6 22.6 21.6 C 22.5 21.6 22.6 21.8 22.6 21.9 C 22.6 21.9 22.2 22.0 22.2 22.1 C 22.2 22.2 22.7 22.4 22.7 22.5 C 22.7 22.6 22.7 23.2 22.7 23.3 C 22.8 23.3 23.4 23.8 23.6 23.6 C 23.7 23.6 23.7 23.6 23.8 23.7 Z M 19.3 20.1 C 19.1 19.8 19.0 19.6 19.0 19.3 C 19.0 19.2 19.0 19.1 19.0 19.0 C 19.0 18.9 19.0 18.7 19.0 18.6 C 18.9 18.5 18.7 18.7 18.8 18.6 C 18.7 18.8 18.7 19.0 18.8 19.0 C 18.7 19.0 18.7 19.1 18.6 19.2 C 18.4 19.6 18.6 20.0 19.2 20.2 C 19.3 20.3 19.3 20.2 19.3 20.1 Z M 21.7 23.0 C 21.8 21.2 21.5 21.2 21.4 22.9 C 21.5 23.0 21.6 23.0 21.7 23.0 Z M 21.2 19.4 C 21.3 19.4 21.4 19.5 21.5 19.5 C 21.4 19.4 21.3 19.0 21.1 19.3 C 21.2 19.4 21.3 19.2 21.2 19.4 Z M 19.9 20.6 C 19.4 20.6 19.4 20.6 19.2 20.6 C 19.0 20.6 19.0 20.7 19.0 20.7 C 18.9 20.7 19.1 20.8 19.3 20.8 C 19.5 20.8 19.7 20.8 19.7 20.8 C 19.7 20.8 19.8 20.7 19.9 20.6 Z M 19.1 21.7 C 19.3 21.8 19.4 22.0 19.6 22.1 C 19.9 21.6 19.3 21.2 18.9 21.4 C 19.0 21.5 19.0 21.6 19.1 21.7 Z M 19.8 18.1 C 19.7 17.9 19.1 17.7 19.1 17.4 C 18.5 17.4 18.5 17.6 18.5 18.2 C 18.8 17.6 19.8 18.6 20.4 19.3 C 20.4 19.3 19.8 18.0 19.8 18.1 Z M 17.3 20.1 C 17.3 20.0 17.4 19.8 17.5 19.7 C 17.6 19.6 17.7 19.5 17.7 19.4 C 17.8 19.3 17.8 19.2 17.8 19.2 C 17.9 19.1 17.9 19.0 17.9 18.9 C 17.6 18.5 18.2 17.9 17.6 17.6 C 17.6 17.9 17.6 17.9 17.7 18.2 C 17.7 18.3 17.6 18.4 17.6 18.5 C 17.6 18.5 17.6 18.6 17.6 18.7 C 17.6 18.8 17.6 18.9 17.6 18.9 C 17.5 19.0 17.5 19.1 17.5 19.2 C 17.5 19.3 17.4 19.4 17.4 19.5 C 17.3 19.7 17.3 19.8 17.1 19.9 C 17.2 20.0 17.2 20.0 17.3 20.1 Z M 11.0 14.6 C 11.1 14.6 11.1 14.5 10.9 14.4 C 10.9 14.4 10.8 14.5 10.7 14.5 C 10.6 14.5 10.6 14.5 10.5 14.6 C 10.5 14.6 10.6 14.6 10.7 14.7 C 10.8 14.7 10.9 14.7 11.0 14.6 Z M 8.8 13.5 C 8.8 13.4 8.6 13.4 8.5 13.4 C 8.4 13.4 8.2 13.4 8.2 13.4 C 8.1 13.5 8.0 13.5 7.9 13.5 C 7.8 13.5 7.8 13.5 7.7 13.5 C 7.2 13.4 7.5 13.1 6.9 13.7 C 7.5 13.7 7.4 14.5 7.9 13.8 C 7.9 13.7 8.0 13.8 8.1 13.8 C 8.2 13.8 8.2 13.9 8.3 13.9 C 8.4 13.9 8.4 14.0 8.5 14.0 L 8.5 14.0 C 8.7 14.1 9.0 13.6 8.8 13.5 Z M 9.0 15.8 C 12.3 15.8 10.8 15.5 9.1 15.7 C 9.0 15.7 9.0 15.7 9.0 15.8 Z M 9.7 12.0 C 9.6 12.0 9.6 12.1 9.4 12.1 L 9.4 12.1 C 9.5 12.2 9.5 12.4 9.7 12.4 C 9.9 12.4 9.9 12.2 10.0 12.1 C 10.1 12.0 10.6 11.9 10.5 11.8 C 10.2 11.8 9.9 11.8 9.7 12.0 Z M 10.3 10.7 C 10.5 10.9 10.9 10.6 11.0 10.4 C 10.9 10.5 10.1 10.5 10.3 10.7 Z M 11.2 12.9 C 11.1 12.9 11.0 12.9 10.9 13.0 C 10.8 13.0 10.8 13.2 10.7 13.1 L 10.7 13.1 C 10.8 13.2 10.9 13.4 11.0 13.3 C 11.1 13.3 11.1 13.1 11.2 13.0 C 11.3 13.0 11.4 13.0 11.5 13.0 C 11.4 12.8 11.4 12.9 11.2 12.9 Z M 13.4 16.7 C 13.4 16.6 13.4 16.6 13.3 16.5 C 13.3 16.5 13.2 16.5 13.1 16.5 C 13.1 16.5 13.1 16.6 13.2 16.7 C 13.3 16.8 13.3 16.9 13.4 16.7 Z M 13.4 16.2 C 13.2 15.7 12.9 15.6 12.5 15.6 C 12.7 15.9 13.0 16.2 13.4 16.2 Z M 13.2 14.2 C 13.1 14.2 12.9 14.3 12.8 14.3 C 12.9 14.4 13.0 14.4 13.0 14.4 C 13.1 14.4 13.2 14.3 13.2 14.2 Z M 12.6 18.4 C 12.7 18.3 12.7 18.3 12.8 18.2 C 12.7 18.2 12.6 18.2 12.5 18.2 C 12.6 18.2 12.6 18.3 12.6 18.4 Z M 11.1 17.8 C 11.4 17.9 11.6 18.0 11.9 18.1 L 12.2 18.2 C 12.0 17.7 11.6 17.7 11.4 17.6 C 11.2 17.5 11.1 17.6 11.1 17.8 Z M 11.8 16.7 C 11.8 16.9 11.9 17.1 12.2 16.9 C 12.1 16.8 11.9 16.7 11.8 16.7 Z M 12.6 7.4 C 12.7 7.4 13.1 7.1 13.2 7.0 C 12.8 6.9 12.5 7.5 12.6 7.4 Z M 10.6 8.7 C 10.6 9.0 11.0 9.3 11.3 9.0 C 11.3 8.5 11.0 8.5 10.6 8.7 Z M 12.9 9.8 C 12.8 9.9 12.5 9.9 12.5 10.0 C 12.8 10.0 12.9 9.9 13.2 9.9 C 12.9 9.9 12.8 9.9 12.9 9.8 Z M 12.8 10.7 C 12.6 10.8 12.4 10.8 12.3 10.9 C 12.6 10.9 12.9 11.0 13.2 11.0 C 13.2 10.9 13.3 10.9 13.3 10.8 C 13.5 10.5 12.9 10.7 12.8 10.7 Z M 23.3 3.0 C 23.2 3.1 23.1 3.2 22.9 3.3 C 22.7 3.5 22.5 3.8 22.7 4.2 C 22.7 3.9 22.7 3.6 23.0 3.5 C 23.1 3.5 23.2 3.4 23.2 3.3 C 23.3 3.2 23.3 3.1 23.3 3.0 Z M 22.4 5.5 C 22.7 5.1 23.0 5.1 23.0 4.5 C 22.4 4.8 22.4 5.4 22.2 5.7 C 22.3 5.6 22.3 5.6 22.4 5.5 Z M 22.3 4.5 C 22.0 4.8 22.0 4.4 21.8 4.6 C 21.9 4.8 22.0 4.8 22.2 4.7 C 22.2 4.6 22.3 4.6 22.3 4.5 Z M 21.6 6.3 C 21.2 6.0 22.1 5.7 21.5 5.4 C 21.5 5.7 21.5 6.0 21.5 6.2 C 21.5 6.2 21.5 6.3 21.6 6.3 Z M 16.4 20.4 C 16.4 18.5 16.1 18.5 16.2 20.2 C 16.3 20.3 16.4 20.4 16.4 20.4 Z M 17.6 16.3 C 16.9 16.2 18.0 16.4 17.1 16.4 C 17.0 16.4 17.0 16.0 16.9 16.0 C 17.0 16.0 17.0 15.7 17.2 15.8 C 18.2 15.9 17.5 15.5 18.3 16.2 C 18.3 16.2 17.6 16.3 17.6 16.3 Z M 15.2 18.7 C 15.2 18.7 15.1 18.6 15.1 18.6 C 14.9 18.5 14.7 18.5 14.5 18.5 C 14.7 18.6 15.0 18.7 15.2 18.7 Z M 14.7 13.2 C 14.5 13.2 14.4 13.1 14.3 13.1 C 14.3 13.2 14.6 13.2 14.7 13.2 Z M 9.0 9.5 C 8.9 9.6 8.9 9.6 8.8 9.6 C 8.9 9.7 8.9 9.7 9.0 9.7 C 9.0 9.6 9.0 9.6 9.0 9.5 Z M 14.0 17.8 C 13.9 17.8 13.9 17.9 13.9 17.9 C 13.9 18.1 14.0 18.2 14.2 18.2 C 14.2 18.2 14.3 18.2 14.3 18.2 C 14.4 17.9 14.4 17.9 14.2 17.8 C 14.1 17.8 14.0 17.8 14.0 17.8 Z M 19.8 9.4 C 19.7 9.5 19.7 9.5 19.7 9.6 C 19.7 9.7 19.8 9.8 20.0 9.9 C 20.0 9.9 20.1 9.9 20.2 9.9 C 20.2 9.6 20.2 9.6 20.0 9.4 C 19.9 9.4 19.8 9.4 19.8 9.4 Z M 24.7 24.7 C 24.6 24.8 24.6 25.0 24.6 25.1 C 24.6 25.3 24.9 25.5 25.1 25.6 C 25.2 25.6 25.4 25.7 25.5 25.6 C 25.5 25.0 25.5 25.0 25.1 24.8 C 25.0 24.7 24.8 24.7 24.7 24.7 Z M 17.4 22.2 C 17.3 22.3 17.3 22.3 17.3 22.4 C 17.3 22.5 17.4 22.6 17.6 22.7 C 17.6 22.7 17.7 22.7 17.7 22.7 C 17.7 22.4 17.7 22.4 17.6 22.2 C 17.5 22.2 17.4 22.2 17.4 22.2 Z M 13.0 7.8 C 12.9 7.9 12.4 8.4 12.5 8.5 C 12.7 8.5 13.6 7.8 13.8 7.7 C 13.7 7.5 13.2 7.9 13.0 7.8 Z M 15.5 9.0 C 15.0 9.3 14.8 9.3 15.0 10.0 C 15.2 10.0 15.4 9.9 15.6 9.8 C 15.7 9.6 15.9 9.5 16.1 9.4 C 16.1 9.0 16.1 9.0 16.2 8.8 C 16.1 8.7 16.0 8.7 15.8 8.8 C 15.7 8.9 15.6 9.0 15.5 9.0 Z M 21.6 2.8 C 21.3 2.9 21.2 2.9 21.3 3.4 C 21.4 3.4 21.5 3.3 21.6 3.3 C 21.7 3.2 21.8 3.1 21.9 3.0 C 22.0 2.7 22.0 2.7 22.0 2.6 C 21.9 2.6 21.9 2.6 21.8 2.6 C 21.7 2.7 21.6 2.7 21.6 2.8 Z M 15.0 10.2 C 15.1 10.4 15.2 10.4 15.4 10.2 C 15.3 10.1 15.2 10.1 15.0 10.2 Z M 17.9 10.6 C 17.7 10.7 17.7 10.8 17.6 11.0 C 18.2 11.2 19.0 11.0 19.5 10.9 C 19.0 10.7 18.4 10.7 17.9 10.6 Z M 15.7 14.3 C 15.8 14.0 16.4 14.6 16.6 14.0 C 16.6 14.0 16.5 14.0 16.4 14.0 C 16.2 13.9 16.1 13.9 15.9 14.1 C 15.8 14.1 15.7 14.2 15.7 14.3 Z M 14.7 5.6 C 14.9 5.3 15.5 5.9 15.7 5.3 C 15.6 5.3 15.5 5.3 15.5 5.3 C 15.3 5.3 15.1 5.3 14.9 5.4 C 14.8 5.4 14.8 5.5 14.7 5.6 Z M 17.1 6.2 C 17.0 6.2 16.9 6.4 16.8 6.6 C 16.8 6.7 16.8 6.9 16.8 6.9 C 17.0 6.9 17.3 6.9 17.3 6.7 C 17.4 6.7 17.5 6.6 17.5 6.5 C 17.6 6.4 17.6 6.3 17.7 6.2 C 17.4 6.2 17.4 6.1 17.1 6.2 Z M 18.1 4.4 C 18.2 4.5 18.6 4.7 18.6 4.4 C 18.6 4.3 18.2 4.4 18.1 4.4 Z M 19.2 5.1 C 19.2 5.1 19.4 5.2 19.6 5.1 C 19.7 4.9 19.1 4.8 19.2 5.1 Z M 19.1 6.6 C 19.3 6.5 19.4 6.5 19.5 6.5 C 19.4 6.4 19.2 6.5 19.1 6.6 Z M 20.6 7.1 C 20.9 7.2 20.9 7.2 21.0 6.8 C 21.0 6.8 21.0 6.7 21.0 6.6 C 21.0 6.3 20.9 6.0 21.2 6.0 C 20.9 5.7 20.6 6.3 20.3 6.3 C 20.3 6.5 20.3 6.7 20.4 6.9 C 20.4 7.0 20.5 7.0 20.5 7.1 C 20.5 7.1 20.6 7.1 20.6 7.1 Z M 20.2 4.4 L 20.1 4.5 C 19.9 4.6 19.7 4.8 19.9 5.0 C 20.0 4.9 20.2 4.6 20.2 4.4 Z M 20.2 7.2 C 20.0 7.2 20.0 7.2 19.7 7.2 C 19.6 7.2 19.5 7.2 19.4 7.2 C 19.0 7.3 18.6 7.4 18.2 7.8 C 18.6 8.0 19.0 7.7 19.3 7.4 C 19.4 7.4 19.5 7.4 19.6 7.3 C 19.7 7.2 20.0 7.2 20.0 7.2 C 20.1 7.2 20.1 7.2 20.2 7.2 Z M 19.1 8.1 C 19.0 8.2 18.9 8.2 18.8 8.2 C 18.4 8.2 18.0 8.3 18.7 8.3 C 18.8 8.3 18.9 8.3 19.1 8.3 C 19.2 8.3 19.2 8.2 19.1 8.1 Z M 18.0 7.9 C 17.8 7.8 17.7 7.8 17.5 7.8 C 17.4 7.7 17.3 7.7 17.3 7.6 C 17.2 7.5 17.1 7.4 17.0 7.4 C 16.9 7.5 16.8 7.5 16.7 7.8 C 17.0 7.5 17.2 8.0 17.4 8.1 C 17.5 8.1 17.6 8.1 17.7 8.0 C 17.8 8.0 17.9 7.9 18.0 7.9 Z M 16.6 12.8 C 16.8 13.1 16.9 13.9 17.3 13.4 C 17.2 13.1 16.9 12.8 16.6 12.8 Z M 18.3 14.5 C 18.3 14.4 18.2 14.4 18.2 14.3 C 18.2 14.3 18.3 14.2 18.3 14.1 C 18.3 14.0 18.2 14.0 18.2 14.0 C 18.0 13.9 17.8 13.9 17.6 14.0 C 17.5 14.2 17.7 14.2 17.9 14.2 C 18.1 14.2 18.2 14.2 18.3 14.3 C 18.3 14.3 18.4 14.4 18.3 14.5 L 18.3 14.5 Z M 18.7 12.3 C 18.6 12.4 18.5 12.4 18.4 12.5 C 18.4 12.6 18.3 12.7 18.3 12.8 C 18.3 12.9 18.4 12.9 18.6 12.9 C 18.7 12.9 18.9 12.9 18.9 12.9 C 19.1 12.8 19.4 12.8 19.7 12.7 C 19.8 12.6 19.8 12.6 19.8 12.5 C 19.9 12.5 19.9 12.4 19.9 12.3 C 19.8 12.3 19.6 12.3 19.4 12.2 C 19.2 12.2 19.0 12.2 19.0 12.2 C 18.9 12.3 18.8 12.3 18.7 12.3 Z M 19.6 11.9 C 19.7 12.0 19.8 12.1 20.0 12.1 C 20.0 11.9 19.9 11.9 19.6 11.9 Z M 19.6 13.9 C 19.4 14.0 19.7 14.0 19.8 14.0 C 19.7 13.9 19.7 13.9 19.6 13.9 Z M 20.7 11.3 C 20.1 11.3 20.4 11.7 20.5 11.8 C 20.5 11.7 20.7 11.4 20.7 11.3 Z M 20.7 11.3 " fill="#71AFE1"></path></g></svg>