<?xml version="1.0" encoding="UTF-8" standalone="no"?><svg xmlns="http://www.w3.org/2000/svg" xmlns:xlink="http://www.w3.org/1999/xlink" clip-rule="evenodd" stroke-miterlimit="4.00" viewBox="0 0 742 127"><desc>SVG generated by Keynote</desc><defs></defs><g transform="matrix(1.00, 0.00, -0.00, -1.00, 0.0, 127.0)"><g><clipPath id="clip-545"><path d="M 93.5 56.2 L 746.1 56.2 L 746.1 119.1 L 93.5 119.1 Z M 93.5 56.2 "></path></clipPath><g clip-path="url(#clip-545)"><text xml:space="preserve" font-family="Chalkduster" font-size="30.0" fill="#FEFFFE" transform="matrix(1.00, 0.00, -0.00, -1.00, 103.0, 75.0)">+</text><text xml:space="preserve" font-family="Chalkduster" font-size="30.0" fill="#FEFFFE" transform="matrix(1.00, 0.00, -0.00, -1.00, 121.7, 75.0)"> </text><text xml:space="preserve" font-family="Chalkduster" font-size="30.0" fill="#FEFFFE" transform="matrix(1.00, 0.00, -0.00, -1.00, 136.6, 75.0)">-</text><text xml:space="preserve" font-family="Chalkduster" font-size="30.0" fill="#FEFFFE" transform="matrix(1.00, 0.00, -0.00, -1.00, 154.8, 75.0)"> </text><text xml:space="preserve" font-family="Chalkduster" font-size="30.0" fill="#FEFFFE" transform="matrix(1.00, 0.00, -0.00, -1.00, 169.7, 75.0)">*</text><text xml:space="preserve" font-family="Chalkduster" font-size="30.0" fill="#FEFFFE" transform="matrix(1.00, 0.00, -0.00, -1.00, 187.6, 75.0)"> </text><text xml:space="preserve" font-family="Chalkduster" font-size="30.0" fill="#FEFFFE" transform="matrix(1.00, 0.00, -0.00, -1.00, 202.5, 75.0)">$</text><text xml:space="preserve" font-family="Chalkduster" font-size="30.0" fill="#FEFFFE" transform="matrix(1.00, 0.00, -0.00, -1.00, 222.6, 75.0)"> </text><text xml:space="preserve" font-family="Chalkduster" font-size="30.0" fill="#FEFFFE" transform="matrix(1.00, 0.00, -0.00, -1.00, 237.5, 75.0)">%</text><text xml:space="preserve" font-family="Chalkduster" font-size="30.0" fill="#FEFFFE" transform="matrix(1.00, 0.00, -0.00, -1.00, 263.2, 75.0)"> </text><text xml:space="preserve" font-family="Chalkduster" font-size="30.0" fill="#FEFFFE" transform="matrix(1.00, 0.00, -0.00, -1.00, 278.1, 75.0)">;</text><text xml:space="preserve" font-family="Chalkduster" font-size="30.0" fill="#FEFFFE" transform="matrix(1.00, 0.00, -0.00, -1.00, 289.0, 75.0)"> </text><text xml:space="preserve" font-family="Chalkduster" font-size="30.0" fill="#FEFFFE" transform="matrix(1.00, 0.00, -0.00, -1.00, 303.9, 75.0)">:</text><text xml:space="preserve" font-family="Chalkduster" font-size="30.0" fill="#FEFFFE" transform="matrix(1.00, 0.00, -0.00, -1.00, 313.8, 75.0)"> </text><text xml:space="preserve" font-family="Chalkduster" font-size="30.0" fill="#FEFFFE" transform="matrix(1.00, 0.00, -0.00, -1.00, 328.8, 75.0)">,</text><text xml:space="preserve" font-family="Chalkduster" font-size="30.0" fill="#FEFFFE" transform="matrix(1.00, 0.00, -0.00, -1.00, 338.0, 75.0)"> </text><text xml:space="preserve" font-family="Chalkduster" font-size="30.0" fill="#FEFFFE" transform="matrix(1.00, 0.00, -0.00, -1.00, 353.0, 75.0)">?</text><text xml:space="preserve" font-family="Chalkduster" font-size="30.0" fill="#FEFFFE" transform="matrix(1.00, 0.00, -0.00, -1.00, 367.8, 75.0)"> </text><text xml:space="preserve" font-family="Chalkduster" font-size="30.0" fill="#FEFFFE" transform="matrix(1.00, 0.00, -0.00, -1.00, 382.7, 75.0)">!</text><text xml:space="preserve" font-family="Chalkduster" font-size="30.0" fill="#FEFFFE" transform="matrix(1.00, 0.00, -0.00, -1.00, 393.3, 75.0)"> </text><text xml:space="preserve" font-family="Chalkduster" font-size="30.0" fill="#FEFFFE" transform="matrix(1.00, 0.00, -0.00, -1.00, 408.2, 75.0)">{</text><text xml:space="preserve" font-family="Chalkduster" font-size="30.0" fill="#FEFFFE" transform="matrix(1.00, 0.00, -0.00, -1.00, 422.3, 75.0)"> </text><text xml:space="preserve" font-family="Chalkduster" font-size="30.0" fill="#FEFFFE" transform="matrix(1.00, 0.00, -0.00, -1.00, 437.2, 75.0)">}</text><text xml:space="preserve" font-family="Chalkduster" font-size="30.0" fill="#FEFFFE" transform="matrix(1.00, 0.00, -0.00, -1.00, 452.3, 75.0)"> </text><text xml:space="preserve" font-family="Chalkduster" font-size="30.0" fill="#FEFFFE" transform="matrix(1.00, 0.00, -0.00, -1.00, 467.2, 75.0)">(</text><text xml:space="preserve" font-family="Chalkduster" font-size="30.0" fill="#FEFFFE" transform="matrix(1.00, 0.00, -0.00, -1.00, 480.3, 75.0)"> </text><text xml:space="preserve" font-family="Chalkduster" font-size="30.0" fill="#FEFFFE" transform="matrix(1.00, 0.00, -0.00, -1.00, 495.3, 75.0)">)</text><text xml:space="preserve" font-family="Chalkduster" font-size="30.0" fill="#FEFFFE" transform="matrix(1.00, 0.00, -0.00, -1.00, 510.3, 75.0)"> </text><text xml:space="preserve" font-family="Chalkduster" font-size="30.0" fill="#FEFFFE" transform="matrix(1.00, 0.00, -0.00, -1.00, 525.3, 75.0)">&lt;</text><text xml:space="preserve" font-family="Chalkduster" font-size="30.0" fill="#FEFFFE" transform="matrix(1.00, 0.00, -0.00, -1.00, 539.7, 75.0)"> </text><text xml:space="preserve" font-family="Chalkduster" font-size="30.0" fill="#FEFFFE" transform="matrix(1.00, 0.00, -0.00, -1.00, 554.6, 75.0)">&gt;</text><text xml:space="preserve" font-family="Chalkduster" font-size="30.0" fill="#FEFFFE" transform="matrix(1.00, 0.00, -0.00, -1.00, 569.2, 75.0)"> </text><text xml:space="preserve" font-family="Chalkduster" font-size="30.0" fill="#FEFFFE" transform="matrix(1.00, 0.00, -0.00, -1.00, 584.1, 75.0)">"</text><text xml:space="preserve" font-family="Chalkduster" font-size="30.0" fill="#FEFFFE" transform="matrix(1.00, 0.00, -0.00, -1.00, 599.3, 75.0)"> </text><text xml:space="preserve" font-family="Chalkduster" font-size="30.0" fill="#FEFFFE" transform="matrix(1.00, 0.00, -0.00, -1.00, 614.2, 75.0)">'</text><text xml:space="preserve" font-family="Chalkduster" font-size="30.0" fill="#FEFFFE" transform="matrix(1.00, 0.00, -0.00, -1.00, 620.5, 75.0)"> </text><text xml:space="preserve" font-family="Chalkduster" font-size="30.0" fill="#FEFFFE" transform="matrix(1.00, 0.00, -0.00, -1.00, 635.4, 75.0)">|</text><text xml:space="preserve" font-family="Chalkduster" font-size="30.0" fill="#FEFFFE" transform="matrix(1.00, 0.00, -0.00, -1.00, 644.8, 75.0)"> </text><text xml:space="preserve" font-family="Chalkduster" font-size="30.0" fill="#FEFFFE" transform="matrix(1.00, 0.00, -0.00, -1.00, 659.7, 75.0)">\</text><text xml:space="preserve" font-family="Chalkduster" font-size="30.0" fill="#FEFFFE" transform="matrix(1.00, 0.00, -0.00, -1.00, 680.8, 75.0)"> </text><text xml:space="preserve" font-family="Chalkduster" font-size="30.0" fill="#FEFFFE" transform="matrix(1.00, 0.00, -0.00, -1.00, 695.7, 75.0)">@</text><text xml:space="preserve" font-family="Chalkduster" font-size="30.0" fill="#FEFFFE" transform="matrix(1.00, 0.00, -0.00, -1.00, 720.8, 75.0)"> </text></g></g><g><clipPath id="clip-546"><path d="M 0.5 49.2 L 77.9 49.2 L 77.9 126.5 L 0.5 126.5 Z M 0.5 49.2 "></path></clipPath><g clip-path="url(#clip-546)"><image xlink:href="AB3C1680C90EC6697EC91010298BCEDE.png" width="75.00" height="75.00" transform="matrix(1.00, 0.00, -0.00, -1.00, 1.5, 125.5)" opacity="0.50"></image><path d="M 9.4 117.6 L 69.1 117.6 L 69.1 58.1 L 9.4 58.1 Z M 9.4 117.6 " fill="#DDF3D0"></path><path d="M 10.0 115.7 C 9.1 115.7 7.9 115.9 7.7 117.2 C 7.6 118.5 8.6 119.6 9.9 119.6 C 11.3 119.6 10.9 118.8 14.1 118.8 C 15.3 118.8 15.3 116.4 14.1 116.4 C 11.3 116.4 11.7 115.7 10.0 115.7 C 10.0 115.7 10.0 115.7 10.0 115.7 Z M 68.2 119.6 C 68.5 119.6 68.8 119.6 69.1 119.5 L 70.9 117.6 C 70.8 116.6 70.1 116.1 69.1 116.1 C 68.0 116.1 67.4 116.6 67.2 117.6 L 69.1 115.8 C 68.8 115.7 68.5 115.7 68.2 115.7 C 66.8 115.7 66.8 116.4 64.4 116.4 C 63.1 116.4 63.3 118.8 64.4 118.8 C 67.0 118.8 66.6 119.6 68.2 119.6 C 68.2 119.6 68.2 119.6 68.2 119.6 Z M 14.2 116.4 C 13.2 116.4 13.1 118.9 14.4 118.9 C 15.7 118.9 18.5 118.4 19.2 118.5 C 20.0 118.5 22.0 119.0 22.7 119.0 C 23.3 119.0 26.5 118.3 27.8 118.5 C 29.1 118.7 29.5 118.6 30.5 118.6 C 31.4 118.6 32.8 118.4 33.7 118.4 C 34.6 118.3 35.4 119.0 36.6 118.8 C 37.7 118.6 38.3 118.9 39.1 118.9 C 40.4 118.9 40.3 116.4 39.1 116.4 C 38.0 116.4 37.2 116.2 36.2 116.3 C 35.3 116.4 34.4 116.6 33.5 116.4 C 32.6 116.1 30.8 116.4 29.7 116.5 C 28.6 116.7 27.3 116.6 26.5 116.5 C 24.7 116.3 20.5 116.8 19.9 116.6 C 19.3 116.4 17.4 116.6 16.7 116.6 C 16.0 116.6 15.6 116.4 14.2 116.4 C 14.2 116.4 14.2 116.4 14.2 116.4 Z M 64.1 118.9 C 65.2 118.9 65.4 116.4 64.1 116.4 C 62.7 116.4 60.2 116.6 59.5 116.6 C 58.7 116.5 55.6 116.4 55.0 116.4 C 54.3 116.4 52.0 116.7 50.7 116.5 C 49.3 116.3 48.0 116.7 47.1 116.6 C 46.0 116.5 45.3 116.6 44.5 116.7 C 43.6 116.7 42.2 116.2 41.5 116.4 C 40.8 116.6 40.3 116.4 39.3 116.4 C 38.3 116.4 38.3 118.8 39.2 118.8 C 40.2 118.8 41.1 118.8 42.0 118.8 C 43.0 118.7 44.2 118.7 45.2 118.7 C 46.2 118.7 47.6 119.0 48.7 118.8 C 49.8 118.6 51.5 118.6 52.1 118.6 C 52.9 118.5 54.6 118.6 55.4 118.5 C 56.3 118.3 58.0 118.5 58.6 118.8 C 59.2 119.0 59.6 118.7 60.9 118.7 C 61.7 118.8 62.9 118.9 64.1 118.9 C 64.1 118.9 64.1 118.9 64.1 118.9 Z M 67.1 117.0 C 67.1 117.9 67.3 119.1 68.6 119.2 C 70.0 119.4 71.0 118.4 71.0 117.1 C 71.0 115.7 70.3 116.1 70.3 112.9 C 70.3 111.7 67.8 111.6 67.8 112.8 C 67.8 115.7 67.1 115.3 67.1 117.0 C 67.1 117.0 67.1 117.0 67.1 117.0 Z M 71.0 58.9 C 71.0 58.6 71.0 58.3 70.9 58.1 L 69.1 56.2 C 68.0 56.4 67.6 57.0 67.5 58.0 C 67.5 59.1 68.1 59.7 69.1 59.9 L 67.2 58.1 C 67.1 58.3 67.1 58.6 67.1 58.9 C 67.1 60.3 67.8 60.3 67.8 62.7 C 67.8 64.0 70.3 63.8 70.3 62.7 C 70.3 60.1 71.0 60.5 71.0 58.9 C 71.0 58.9 71.0 58.9 71.0 58.9 Z M 70.3 112.6 C 70.3 111.2 70.0 109.1 70.0 108.5 C 70.0 108.0 70.1 106.2 70.1 105.4 C 70.0 104.5 69.8 104.2 69.8 102.8 C 69.7 101.0 70.0 99.9 70.0 99.8 C 70.1 99.5 70.3 98.7 70.2 97.5 C 70.1 95.9 70.4 95.4 70.3 94.7 C 70.0 93.5 70.3 93.3 70.2 92.4 C 70.2 91.5 70.3 90.9 70.1 90.1 C 70.0 89.3 70.3 88.7 70.3 88.0 C 70.3 86.8 67.8 86.9 67.8 88.0 C 67.8 88.7 68.1 89.3 68.1 90.0 C 68.1 90.7 68.0 91.3 67.9 92.1 C 67.8 92.8 68.0 94.2 67.9 95.4 C 67.9 96.5 67.7 98.4 67.8 99.8 C 67.8 101.1 68.4 101.9 68.0 104.7 C 67.9 105.5 68.0 107.3 68.0 108.0 C 68.0 109.3 67.8 111.7 67.8 112.7 C 67.8 113.9 70.3 113.9 70.3 112.6 C 70.3 112.6 70.3 112.6 70.3 112.6 Z M 70.3 63.0 C 70.3 61.9 67.8 61.7 67.8 63.0 C 67.8 64.4 68.1 66.9 68.0 67.6 C 68.0 68.4 67.8 71.5 67.8 72.1 C 67.8 72.7 68.2 75.1 68.0 76.4 C 67.8 77.7 68.2 79.0 68.1 80.0 C 67.9 81.1 68.1 81.7 68.1 82.6 C 68.2 83.5 67.7 84.8 67.9 85.6 C 68.1 86.3 67.8 86.7 67.8 87.7 C 67.8 88.8 70.3 88.8 70.3 87.8 C 70.3 86.8 70.2 86.0 70.2 85.0 C 70.1 84.1 70.1 82.9 70.1 81.8 C 70.1 80.9 70.4 79.4 70.2 78.3 C 70.1 77.2 70.0 75.6 70.0 75.0 C 70.0 74.2 70.0 72.5 69.9 71.7 C 69.7 70.8 70.0 69.1 70.2 68.5 C 70.4 67.9 70.1 67.5 70.1 66.2 C 70.2 65.4 70.3 64.2 70.3 63.0 C 70.3 63.0 70.3 63.0 70.3 63.0 Z M 68.4 60.0 C 69.3 60.0 70.5 59.8 70.7 58.5 C 70.8 57.2 69.8 56.1 68.5 56.1 C 67.1 56.1 67.5 56.8 64.3 56.8 C 63.1 56.8 63.1 59.3 64.3 59.3 C 67.1 59.3 66.7 60.0 68.4 60.0 C 68.4 60.0 68.4 60.0 68.4 60.0 Z M 10.2 56.1 C 9.9 56.1 9.6 56.1 9.4 56.2 L 7.5 58.1 C 7.7 59.1 8.3 59.6 9.3 59.6 C 10.4 59.6 11.0 59.0 11.2 58.1 L 9.4 59.9 C 9.6 60.0 9.9 60.0 10.2 60.0 C 11.6 60.0 11.6 59.3 14.0 59.3 C 15.3 59.3 15.1 56.9 14.0 56.9 C 11.4 56.9 11.8 56.1 10.2 56.1 C 10.2 56.1 10.2 56.1 10.2 56.1 Z M 64.0 56.8 C 62.7 56.8 60.5 57.2 59.9 57.2 C 59.4 57.2 57.6 57.0 56.8 57.0 C 55.9 57.1 55.6 57.3 54.2 57.3 C 52.4 57.4 51.3 57.1 51.2 57.1 C 50.9 57.0 50.1 56.8 48.9 56.9 C 47.2 57.0 46.8 56.7 46.1 56.8 C 44.8 57.1 44.7 56.9 43.8 56.9 C 42.8 57.0 42.3 56.9 41.5 57.0 C 40.7 57.1 40.1 56.8 39.3 56.8 C 38.1 56.8 38.3 59.3 39.4 59.3 C 40.1 59.3 40.7 59.0 41.4 59.0 C 42.1 59.0 42.7 59.1 43.4 59.2 C 44.1 59.3 45.6 59.1 46.7 59.2 C 47.9 59.2 49.8 59.4 51.2 59.3 C 52.5 59.3 53.3 58.7 56.1 59.1 C 56.9 59.2 58.7 59.1 59.4 59.1 C 60.7 59.1 63.1 59.3 64.1 59.3 C 65.4 59.3 65.3 56.8 64.0 56.8 C 64.0 56.8 64.0 56.8 64.0 56.8 Z M 14.3 56.8 C 13.2 56.8 13.0 59.3 14.3 59.3 C 15.7 59.3 18.2 59.1 19.0 59.1 C 19.7 59.2 22.8 59.3 23.4 59.3 C 24.1 59.3 26.4 58.9 27.7 59.2 C 29.1 59.4 30.4 59.0 31.3 59.1 C 32.4 59.2 33.1 59.1 33.9 59.0 C 34.8 59.0 36.2 59.5 36.9 59.3 C 37.7 59.0 38.1 59.3 39.1 59.3 C 40.2 59.3 40.1 56.8 39.2 56.8 C 38.2 56.8 37.3 56.9 36.4 56.9 C 35.4 57.0 34.2 57.0 33.2 57.0 C 32.2 57.0 30.8 56.7 29.7 56.9 C 28.6 57.0 27.0 57.1 26.3 57.1 C 25.5 57.2 23.8 57.1 23.0 57.2 C 22.1 57.4 20.4 57.1 19.8 56.9 C 19.2 56.7 18.8 57.0 17.5 57.0 C 16.7 56.9 15.5 56.8 14.3 56.8 C 14.3 56.8 14.3 56.8 14.3 56.8 Z M 11.3 58.7 C 11.3 57.8 11.1 56.6 9.8 56.4 C 8.4 56.3 7.4 57.3 7.4 58.6 C 7.4 60.0 8.1 59.6 8.1 62.8 C 8.1 64.0 10.6 64.0 10.6 62.8 C 10.6 60.0 11.3 60.4 11.3 58.7 C 11.3 58.7 11.3 58.7 11.3 58.7 Z M 7.4 116.8 C 7.4 118.5 8.0 119.1 9.3 119.2 C 10.7 119.2 11.3 118.3 11.3 116.8 C 11.3 115.4 10.6 115.4 10.6 113.0 C 10.6 111.6 8.1 111.9 8.1 112.9 C 8.1 115.6 7.4 115.2 7.4 116.8 C 7.4 116.8 7.4 116.8 7.4 116.8 Z M 10.6 62.9 C 10.6 61.9 8.1 61.9 8.1 63.1 C 8.1 64.4 8.6 67.2 8.5 67.9 C 8.5 68.7 8.0 70.7 8.0 71.4 C 8.0 72.0 8.7 75.1 8.5 76.5 C 8.3 77.8 8.4 78.2 8.4 79.1 C 8.4 80.0 8.6 81.5 8.6 82.4 C 8.7 83.3 8.0 84.0 8.2 85.2 C 8.4 86.3 8.1 87.0 8.1 87.8 C 8.1 89.0 10.6 89.0 10.6 87.8 C 10.6 86.6 10.7 85.8 10.7 84.9 C 10.6 83.9 10.4 83.1 10.6 82.2 C 10.9 81.2 10.6 79.4 10.5 78.3 C 10.3 77.2 10.4 76.0 10.5 75.1 C 10.7 73.4 10.2 69.2 10.4 68.6 C 10.6 68.0 10.4 66.1 10.4 65.4 C 10.4 64.7 10.6 64.3 10.6 62.9 C 10.6 62.9 10.6 62.9 10.6 62.9 Z M 8.1 88.1 C 8.1 89.4 8.5 91.6 8.5 92.1 C 8.5 92.6 8.3 94.4 8.3 95.3 C 8.4 96.1 8.6 96.4 8.6 97.8 C 8.7 99.6 8.4 100.8 8.4 100.9 C 8.3 101.1 8.1 102.0 8.2 103.2 C 8.3 104.8 8.0 105.2 8.1 106.0 C 8.4 107.2 8.2 107.3 8.2 108.2 C 8.3 109.2 8.1 109.7 8.3 110.5 C 8.4 111.3 8.1 111.9 8.1 112.7 C 8.1 113.8 10.6 113.7 10.6 112.6 C 10.6 111.9 10.3 111.3 10.3 110.6 C 10.3 109.9 10.4 109.3 10.5 108.6 C 10.6 107.9 10.4 106.4 10.5 105.3 C 10.5 104.1 10.7 102.2 10.6 100.9 C 10.6 99.5 10.0 98.7 10.4 96.0 C 10.5 95.1 10.4 93.3 10.4 92.6 C 10.4 91.4 10.6 89.0 10.6 87.9 C 10.6 86.7 8.1 86.7 8.1 88.1 C 8.1 88.1 8.1 88.1 8.1 88.1 Z M 8.1 88.1 " fill="#FF7777"></path></g></g><g><clipPath id="clip-547"><path d="M 5.2 53.5 L 73.2 53.5 L 73.2 121.7 L 5.2 121.7 Z M 5.2 53.5 "></path></clipPath><g clip-path="url(#clip-547)"><text xml:space="preserve" font-family="Chalkduster" font-size="32.0" fill="#000000" transform="matrix(1.00, 0.00, -0.00, -1.00, 16.0, 73.0)">N</text><text xml:space="preserve" font-family="Chalkduster" font-size="32.0" fill="#000000" transform="matrix(1.00, 0.00, -0.00, -1.00, 39.7, 73.0)">o</text></g></g><g><clipPath id="clip-548"><path d="M 94.6 -4.7 L 188.4 -4.7 L 188.4 58.3 L 94.6 58.3 Z M 94.6 -4.7 "></path></clipPath><g clip-path="url(#clip-548)"><text xml:space="preserve" font-family="Chalkduster" font-size="30.0" fill="#FEFFFE" transform="matrix(1.00, 0.00, -0.00, -1.00, 105.0, 14.0)">e</text><text xml:space="preserve" font-family="Chalkduster" font-size="30.0" fill="#FEFFFE" transform="matrix(1.00, 0.00, -0.00, -1.00, 123.3, 14.0)">t</text><text xml:space="preserve" font-family="Chalkduster" font-size="30.0" fill="#FEFFFE" transform="matrix(1.00, 0.00, -0.00, -1.00, 136.0, 14.0)">c</text><text xml:space="preserve" font-family="Chalkduster" font-size="30.0" fill="#FEFFFE" transform="matrix(1.00, 0.00, -0.00, -1.00, 153.5, 14.0)">.</text><text xml:space="preserve" font-family="Chalkduster" font-size="30.0" fill="#FEFFFE" transform="matrix(1.00, 0.00, -0.00, -1.00, 161.1, 14.0)">.</text><text xml:space="preserve" font-family="Chalkduster" font-size="30.0" fill="#FEFFFE" transform="matrix(1.00, 0.00, -0.00, -1.00, 168.7, 14.0)">.</text></g></g></g></svg>