<?xml version="1.0" encoding="UTF-8" standalone="no"?><svg xmlns="http://www.w3.org/2000/svg" xmlns:xlink="http://www.w3.org/1999/xlink" clip-rule="evenodd" stroke-miterlimit="4.00" viewBox="0 0 1024 768"><desc>SVG generated by Keynote</desc><defs></defs><g transform="matrix(1.00, 0.00, -0.00, -1.00, 0.0, 768.0)"><g><clipPath id="clip-337"><path d="M 0.0 768.0 L 1024.0 768.0 L 1024.0 0.0 L 0.0 0.0 Z M 0.0 768.0 "></path></clipPath><g clip-path="url(#clip-337)"><image xlink:href="../../86BB661C-AAFE-46F2-89B5-B98D6D644DD8/assets/DE78B55DDE70D88C6FF874E8D33A46A3.jpeg" width="1024.00" height="768.00" transform="matrix(1.00, 0.00, -0.00, -1.00, 0.0, 768.0)"></image></g></g><image xlink:href="../../86BB661C-AAFE-46F2-89B5-B98D6D644DD8/assets/610DE41026624E3AEF638D24E71EF355.png" width="74.00" height="62.00" transform="matrix(1.00, 0.00, -0.00, -1.00, 949.0, 64.0)"></image><image xlink:href="../../86BB661C-AAFE-46F2-89B5-B98D6D644DD8/assets/C79B4846A618BF06956E5E1178655E37.png" width="40.00" height="40.00" transform="matrix(1.00, 0.00, -0.00, -1.01, 966.2, 53.0)" opacity="0.50"></image><g><clipPath id="clip-338"><path d="M 996.7 43.5 C 1002.5 37.6 1002.5 28.0 996.7 22.0 C 990.9 16.1 981.4 16.1 975.6 22.0 C 969.7 28.0 969.7 37.6 975.6 43.5 C 981.4 49.5 990.9 49.5 996.7 43.5 Z M 996.7 43.5 "></path></clipPath><g clip-path="url(#clip-338)"><image xlink:href="../../86BB661C-AAFE-46F2-89B5-B98D6D644DD8/assets/DE78B55DDE70D88C6FF874E8D33A46A3.jpeg" width="1024.00" height="768.00" transform="matrix(0.04, 0.00, -0.00, -0.04, 965.9, 48.0)"></image></g></g><text xml:space="preserve" font-family="HoboStd" font-size="18.0" fill="#E5CC77" transform="matrix(1.00, 0.00, -0.00, -1.00, 976.0, 26.0)">3</text><text xml:space="preserve" font-family="HoboStd" font-size="18.0" fill="#E5CC77" transform="matrix(1.00, 0.00, -0.00, -1.00, 986.4, 26.0)">5</text><path d="M 195.7 698.9 L 828.3 698.9 L 828.3 418.1 L 195.7 418.1 Z M 195.7 698.9 " fill="#FEFFFE"></path><image xlink:href="../../FA37723B-2AE7-48BB-AE7F-6B4B40C81602/assets/989F87BA95F87DD4B20992C86CEF9EC1.png" width="677.00" height="331.00" transform="matrix(1.00, 0.00, -0.00, 1.00, 173.7, 394.1)"></image><g><clipPath id="clip-339"><path d="M 193.2 419.1 L 830.8 419.1 L 830.8 697.9 L 193.2 697.9 Z M 193.2 419.1 "></path></clipPath><g clip-path="url(#clip-339)"><text xml:space="preserve" font-family="Courier" font-size="30.0" fill="#000000" transform="matrix(1.00, 0.00, -0.00, -1.00, 231.0, 655.0)">s</text><text xml:space="preserve" font-family="Courier" font-size="30.0" fill="#000000" transform="matrix(1.00, 0.00, -0.00, -1.00, 249.0, 655.0)">o</text><text xml:space="preserve" font-family="Courier" font-size="30.0" fill="#000000" transform="matrix(1.00, 0.00, -0.00, -1.00, 267.0, 655.0)">m</text><text xml:space="preserve" font-family="Courier" font-size="30.0" fill="#000000" transform="matrix(1.00, 0.00, -0.00, -1.00, 285.0, 655.0)">e</text><text xml:space="preserve" font-family="Courier" font-size="30.0" fill="#000000" transform="matrix(1.00, 0.00, -0.00, -1.00, 303.0, 655.0)">L</text><text xml:space="preserve" font-family="Courier" font-size="30.0" fill="#000000" transform="matrix(1.00, 0.00, -0.00, -1.00, 321.0, 655.0)">i</text><text xml:space="preserve" font-family="Courier" font-size="30.0" fill="#000000" transform="matrix(1.00, 0.00, -0.00, -1.00, 339.0, 655.0)">s</text><text xml:space="preserve" font-family="Courier" font-size="30.0" fill="#000000" transform="matrix(1.00, 0.00, -0.00, -1.00, 357.0, 655.0)">t</text><text xml:space="preserve" font-family="Courier" font-size="30.0" fill="#000000" transform="matrix(1.00, 0.00, -0.00, -1.00, 375.0, 655.0)"> </text><text xml:space="preserve" font-family="Courier" font-size="30.0" fill="#797979" transform="matrix(1.00, 0.00, -0.00, -1.00, 393.0, 655.0)">=</text><text xml:space="preserve" font-family="Courier" font-size="30.0" fill="#000000" transform="matrix(1.00, 0.00, -0.00, -1.00, 411.0, 655.0)"> </text><text xml:space="preserve" font-family="Courier" font-size="30.0" fill="#000000" transform="matrix(1.00, 0.00, -0.00, -1.00, 429.0, 655.0)">[</text><text xml:space="preserve" font-family="Courier" font-size="30.0" fill="#797979" transform="matrix(1.00, 0.00, -0.00, -1.00, 447.0, 655.0)">1</text><text xml:space="preserve" font-family="Courier" font-size="30.0" fill="#000000" transform="matrix(1.00, 0.00, -0.00, -1.00, 465.0, 655.0)">,</text><text xml:space="preserve" font-family="Courier" font-size="30.0" fill="#797979" transform="matrix(1.00, 0.00, -0.00, -1.00, 483.0, 655.0)">7</text><text xml:space="preserve" font-family="Courier" font-size="30.0" fill="#000000" transform="matrix(1.00, 0.00, -0.00, -1.00, 501.0, 655.0)">,</text><text xml:space="preserve" font-family="Courier" font-size="30.0" fill="#797979" transform="matrix(1.00, 0.00, -0.00, -1.00, 519.0, 655.0)">2</text><text xml:space="preserve" font-family="Courier" font-size="30.0" fill="#000000" transform="matrix(1.00, 0.00, -0.00, -1.00, 537.0, 655.0)">,</text><text xml:space="preserve" font-family="Courier" font-size="30.0" fill="#797979" transform="matrix(1.00, 0.00, -0.00, -1.00, 555.1, 655.0)">4</text><text xml:space="preserve" font-family="Courier" font-size="30.0" fill="#000000" transform="matrix(1.00, 0.00, -0.00, -1.00, 573.1, 655.0)">,</text><text xml:space="preserve" font-family="Courier" font-size="30.0" fill="#797979" transform="matrix(1.00, 0.00, -0.00, -1.00, 591.1, 655.0)">1</text><text xml:space="preserve" font-family="Courier" font-size="30.0" fill="#797979" transform="matrix(1.00, 0.00, -0.00, -1.00, 609.1, 655.0)">4</text><text xml:space="preserve" font-family="Courier" font-size="30.0" fill="#000000" transform="matrix(1.00, 0.00, -0.00, -1.00, 627.1, 655.0)">,</text><text xml:space="preserve" font-family="Courier" font-size="30.0" fill="#797979" transform="matrix(1.00, 0.00, -0.00, -1.00, 645.1, 655.0)">1</text><text xml:space="preserve" font-family="Courier" font-size="30.0" fill="#797979" transform="matrix(1.00, 0.00, -0.00, -1.00, 663.1, 655.0)">1</text><text xml:space="preserve" font-family="Courier" font-size="30.0" fill="#000000" transform="matrix(1.00, 0.00, -0.00, -1.00, 681.1, 655.0)">,</text><text xml:space="preserve" font-family="Courier" font-size="30.0" fill="#797979" transform="matrix(1.00, 0.00, -0.00, -1.00, 699.1, 655.0)">9</text><text xml:space="preserve" font-family="Courier" font-size="30.0" fill="#000000" transform="matrix(1.00, 0.00, -0.00, -1.00, 717.1, 655.0)">,</text><text xml:space="preserve" font-family="Courier" font-size="30.0" fill="#797979" transform="matrix(1.00, 0.00, -0.00, -1.00, 735.1, 655.0)">3</text><text xml:space="preserve" font-family="Courier" font-size="30.0" fill="#000000" transform="matrix(1.00, 0.00, -0.00, -1.00, 753.1, 655.0)">]</text><text xml:space="preserve" font-family="Courier-Bold" font-weight="bold" font-size="30.0" fill="#008E00" transform="matrix(1.00, 0.00, -0.00, -1.00, 231.0, 619.0)">f</text><text xml:space="preserve" font-family="Courier-Bold" font-weight="bold" font-size="30.0" fill="#008E00" transform="matrix(1.00, 0.00, -0.00, -1.00, 249.0, 619.0)">o</text><text xml:space="preserve" font-family="Courier-Bold" font-weight="bold" font-size="30.0" fill="#008E00" transform="matrix(1.00, 0.00, -0.00, -1.00, 267.0, 619.0)">r</text><text xml:space="preserve" font-family="Courier" font-size="30.0" fill="#000000" transform="matrix(1.00, 0.00, -0.00, -1.00, 285.0, 619.0)"> </text><text xml:space="preserve" font-family="Courier" font-size="30.0" fill="#000000" transform="matrix(1.00, 0.00, -0.00, -1.00, 303.0, 619.0)">i</text><text xml:space="preserve" font-family="Courier" font-size="30.0" fill="#000000" transform="matrix(1.00, 0.00, -0.00, -1.00, 321.0, 619.0)">t</text><text xml:space="preserve" font-family="Courier" font-size="30.0" fill="#000000" transform="matrix(1.00, 0.00, -0.00, -1.00, 339.0, 619.0)">e</text><text xml:space="preserve" font-family="Courier" font-size="30.0" fill="#000000" transform="matrix(1.00, 0.00, -0.00, -1.00, 357.0, 619.0)">m</text><text xml:space="preserve" font-family="Courier" font-size="30.0" fill="#000000" transform="matrix(1.00, 0.00, -0.00, -1.00, 375.0, 619.0)"> </text><text xml:space="preserve" font-family="Courier-Bold" font-weight="bold" font-size="30.0" fill="#BA49FF" transform="matrix(1.00, 0.00, -0.00, -1.00, 393.0, 619.0)">i</text><text xml:space="preserve" font-family="Courier-Bold" font-weight="bold" font-size="30.0" fill="#BA49FF" transform="matrix(1.00, 0.00, -0.00, -1.00, 411.0, 619.0)">n</text><text xml:space="preserve" font-family="Courier" font-size="30.0" fill="#000000" transform="matrix(1.00, 0.00, -0.00, -1.00, 429.0, 619.0)"> </text><text xml:space="preserve" font-family="Courier" font-size="30.0" fill="#000000" transform="matrix(1.00, 0.00, -0.00, -1.00, 447.0, 619.0)">s</text><text xml:space="preserve" font-family="Courier" font-size="30.0" fill="#000000" transform="matrix(1.00, 0.00, -0.00, -1.00, 465.0, 619.0)">o</text><text xml:space="preserve" font-family="Courier" font-size="30.0" fill="#000000" transform="matrix(1.00, 0.00, -0.00, -1.00, 483.0, 619.0)">m</text><text xml:space="preserve" font-family="Courier" font-size="30.0" fill="#000000" transform="matrix(1.00, 0.00, -0.00, -1.00, 501.1, 619.0)">e</text><text xml:space="preserve" font-family="Courier" font-size="30.0" fill="#000000" transform="matrix(1.00, 0.00, -0.00, -1.00, 519.1, 619.0)">L</text><text xml:space="preserve" font-family="Courier" font-size="30.0" fill="#000000" transform="matrix(1.00, 0.00, -0.00, -1.00, 537.1, 619.0)">i</text><text xml:space="preserve" font-family="Courier" font-size="30.0" fill="#000000" transform="matrix(1.00, 0.00, -0.00, -1.00, 555.1, 619.0)">s</text><text xml:space="preserve" font-family="Courier" font-size="30.0" fill="#000000" transform="matrix(1.00, 0.00, -0.00, -1.00, 573.1, 619.0)">t</text><text xml:space="preserve" font-family="Courier" font-size="30.0" fill="#000000" transform="matrix(1.00, 0.00, -0.00, -1.00, 591.1, 619.0)">:</text><text xml:space="preserve" font-family="Courier" font-size="30.0" fill="#000000" transform="matrix(1.00, 0.00, -0.00, -1.00, 231.0, 583.0)"> </text><text xml:space="preserve" font-family="Courier" font-size="30.0" fill="#000000" transform="matrix(1.00, 0.00, -0.00, -1.00, 249.0, 583.0)"> </text><text xml:space="preserve" font-family="Courier" font-size="30.0" fill="#000000" transform="matrix(1.00, 0.00, -0.00, -1.00, 267.0, 583.0)"> </text><text xml:space="preserve" font-family="Courier" font-size="30.0" fill="#000000" transform="matrix(1.00, 0.00, -0.00, -1.00, 285.0, 583.0)"> </text><text xml:space="preserve" font-family="Courier-Bold" font-weight="bold" font-size="30.0" fill="#008E00" transform="matrix(1.00, 0.00, -0.00, -1.00, 303.0, 583.0)">i</text><text xml:space="preserve" font-family="Courier-Bold" font-weight="bold" font-size="30.0" fill="#008E00" transform="matrix(1.00, 0.00, -0.00, -1.00, 321.0, 583.0)">f</text><text xml:space="preserve" font-family="Courier" font-size="30.0" fill="#000000" transform="matrix(1.00, 0.00, -0.00, -1.00, 339.0, 583.0)"> </text><text xml:space="preserve" font-family="Courier" font-size="30.0" fill="#000000" transform="matrix(1.00, 0.00, -0.00, -1.00, 357.0, 583.0)">i</text><text xml:space="preserve" font-family="Courier" font-size="30.0" fill="#000000" transform="matrix(1.00, 0.00, -0.00, -1.00, 375.0, 583.0)">t</text><text xml:space="preserve" font-family="Courier" font-size="30.0" fill="#000000" transform="matrix(1.00, 0.00, -0.00, -1.00, 393.0, 583.0)">e</text><text xml:space="preserve" font-family="Courier" font-size="30.0" fill="#000000" transform="matrix(1.00, 0.00, -0.00, -1.00, 411.0, 583.0)">m</text><text xml:space="preserve" font-family="Courier" font-size="30.0" fill="#000000" transform="matrix(1.00, 0.00, -0.00, -1.00, 429.0, 583.0)"> </text><text xml:space="preserve" font-family="Courier" font-size="30.0" fill="#797979" transform="matrix(1.00, 0.00, -0.00, -1.00, 447.0, 583.0)">&lt;</text><text xml:space="preserve" font-family="Courier" font-size="30.0" fill="#797979" transform="matrix(1.00, 0.00, -0.00, -1.00, 465.0, 583.0)">=</text><text xml:space="preserve" font-family="Courier" font-size="30.0" fill="#000000" transform="matrix(1.00, 0.00, -0.00, -1.00, 483.0, 583.0)"> </text><text xml:space="preserve" font-family="Courier" font-size="30.0" fill="#797979" transform="matrix(1.00, 0.00, -0.00, -1.00, 501.0, 583.0)">1</text><text xml:space="preserve" font-family="Courier" font-size="30.0" fill="#797979" transform="matrix(1.00, 0.00, -0.00, -1.00, 519.0, 583.0)">0</text><text xml:space="preserve" font-family="Courier" font-size="30.0" fill="#000000" transform="matrix(1.00, 0.00, -0.00, -1.00, 537.0, 583.0)">:</text><text xml:space="preserve" font-family="Courier" font-size="30.0" fill="#000000" transform="matrix(1.00, 0.00, -0.00, -1.00, 231.0, 547.0)"> </text><text xml:space="preserve" font-family="Courier" font-size="30.0" fill="#000000" transform="matrix(1.00, 0.00, -0.00, -1.00, 249.0, 547.0)"> </text><text xml:space="preserve" font-family="Courier" font-size="30.0" fill="#000000" transform="matrix(1.00, 0.00, -0.00, -1.00, 267.0, 547.0)"> </text><text xml:space="preserve" font-family="Courier" font-size="30.0" fill="#000000" transform="matrix(1.00, 0.00, -0.00, -1.00, 285.0, 547.0)"> </text><text xml:space="preserve" font-family="Courier" font-size="30.0" fill="#000000" transform="matrix(1.00, 0.00, -0.00, -1.00, 303.0, 547.0)"> </text><text xml:space="preserve" font-family="Courier" font-size="30.0" fill="#000000" transform="matrix(1.00, 0.00, -0.00, -1.00, 321.0, 547.0)"> </text><text xml:space="preserve" font-family="Courier" font-size="30.0" fill="#000000" transform="matrix(1.00, 0.00, -0.00, -1.00, 339.0, 547.0)"> </text><text xml:space="preserve" font-family="Courier" font-size="30.0" fill="#000000" transform="matrix(1.00, 0.00, -0.00, -1.00, 357.0, 547.0)"> </text><text xml:space="preserve" font-family="Courier-Bold" font-weight="bold" font-size="30.0" fill="#008E00" transform="matrix(1.00, 0.00, -0.00, -1.00, 375.0, 547.0)">c</text><text xml:space="preserve" font-family="Courier-Bold" font-weight="bold" font-size="30.0" fill="#008E00" transform="matrix(1.00, 0.00, -0.00, -1.00, 393.0, 547.0)">o</text><text xml:space="preserve" font-family="Courier-Bold" font-weight="bold" font-size="30.0" fill="#008E00" transform="matrix(1.00, 0.00, -0.00, -1.00, 411.0, 547.0)">n</text><text xml:space="preserve" font-family="Courier-Bold" font-weight="bold" font-size="30.0" fill="#008E00" transform="matrix(1.00, 0.00, -0.00, -1.00, 429.0, 547.0)">t</text><text xml:space="preserve" font-family="Courier-Bold" font-weight="bold" font-size="30.0" fill="#008E00" transform="matrix(1.00, 0.00, -0.00, -1.00, 447.0, 547.0)">i</text><text xml:space="preserve" font-family="Courier-Bold" font-weight="bold" font-size="30.0" fill="#008E00" transform="matrix(1.00, 0.00, -0.00, -1.00, 465.1, 547.0)">n</text><text xml:space="preserve" font-family="Courier-Bold" font-weight="bold" font-size="30.0" fill="#008E00" transform="matrix(1.00, 0.00, -0.00, -1.00, 483.1, 547.0)">u</text><text xml:space="preserve" font-family="Courier-Bold" font-weight="bold" font-size="30.0" fill="#008E00" transform="matrix(1.00, 0.00, -0.00, -1.00, 501.1, 547.0)">e</text><text xml:space="preserve" font-family="Courier" font-size="30.0" fill="#000000" transform="matrix(1.00, 0.00, -0.00, -1.00, 231.0, 511.0)"> </text><text xml:space="preserve" font-family="Courier" font-size="30.0" fill="#000000" transform="matrix(1.00, 0.00, -0.00, -1.00, 249.0, 511.0)"> </text><text xml:space="preserve" font-family="Courier" font-size="30.0" fill="#000000" transform="matrix(1.00, 0.00, -0.00, -1.00, 267.0, 511.0)"> </text><text xml:space="preserve" font-family="Courier" font-size="30.0" fill="#000000" transform="matrix(1.00, 0.00, -0.00, -1.00, 285.0, 511.0)"> </text><text xml:space="preserve" font-family="Courier-Bold" font-weight="bold" font-size="30.0" fill="#008E00" transform="matrix(1.00, 0.00, -0.00, -1.00, 303.0, 511.0)">e</text><text xml:space="preserve" font-family="Courier-Bold" font-weight="bold" font-size="30.0" fill="#008E00" transform="matrix(1.00, 0.00, -0.00, -1.00, 321.0, 511.0)">l</text><text xml:space="preserve" font-family="Courier-Bold" font-weight="bold" font-size="30.0" fill="#008E00" transform="matrix(1.00, 0.00, -0.00, -1.00, 339.0, 511.0)">s</text><text xml:space="preserve" font-family="Courier-Bold" font-weight="bold" font-size="30.0" fill="#008E00" transform="matrix(1.00, 0.00, -0.00, -1.00, 357.0, 511.0)">e</text><text xml:space="preserve" font-family="Courier" font-size="30.0" fill="#000000" transform="matrix(1.00, 0.00, -0.00, -1.00, 375.0, 511.0)">:</text><text xml:space="preserve" font-family="Courier" font-size="30.0" fill="#000000" transform="matrix(1.00, 0.00, -0.00, -1.00, 231.0, 475.0)"> </text><text xml:space="preserve" font-family="Courier" font-size="30.0" fill="#000000" transform="matrix(1.00, 0.00, -0.00, -1.00, 249.0, 475.0)"> </text><text xml:space="preserve" font-family="Courier" font-size="30.0" fill="#000000" transform="matrix(1.00, 0.00, -0.00, -1.00, 267.0, 475.0)"> </text><text xml:space="preserve" font-family="Courier" font-size="30.0" fill="#000000" transform="matrix(1.00, 0.00, -0.00, -1.00, 285.0, 475.0)"> </text><text xml:space="preserve" font-family="Courier" font-size="30.0" fill="#000000" transform="matrix(1.00, 0.00, -0.00, -1.00, 303.0, 475.0)"> </text><text xml:space="preserve" font-family="Courier" font-size="30.0" fill="#000000" transform="matrix(1.00, 0.00, -0.00, -1.00, 321.0, 475.0)"> </text><text xml:space="preserve" font-family="Courier" font-size="30.0" fill="#000000" transform="matrix(1.00, 0.00, -0.00, -1.00, 339.0, 475.0)"> </text><text xml:space="preserve" font-family="Courier" font-size="30.0" fill="#000000" transform="matrix(1.00, 0.00, -0.00, -1.00, 357.0, 475.0)"> </text><text xml:space="preserve" font-family="Courier-Bold" font-weight="bold" font-size="30.0" fill="#008E00" transform="matrix(1.00, 0.00, -0.00, -1.00, 375.0, 475.0)">p</text><text xml:space="preserve" font-family="Courier-Bold" font-weight="bold" font-size="30.0" fill="#008E00" transform="matrix(1.00, 0.00, -0.00, -1.00, 393.0, 475.0)">r</text><text xml:space="preserve" font-family="Courier-Bold" font-weight="bold" font-size="30.0" fill="#008E00" transform="matrix(1.00, 0.00, -0.00, -1.00, 411.0, 475.0)">i</text><text xml:space="preserve" font-family="Courier-Bold" font-weight="bold" font-size="30.0" fill="#008E00" transform="matrix(1.00, 0.00, -0.00, -1.00, 429.0, 475.0)">n</text><text xml:space="preserve" font-family="Courier-Bold" font-weight="bold" font-size="30.0" fill="#008E00" transform="matrix(1.00, 0.00, -0.00, -1.00, 447.0, 475.0)">t</text><text xml:space="preserve" font-family="Courier" font-size="30.0" fill="#000000" transform="matrix(1.00, 0.00, -0.00, -1.00, 465.0, 475.0)">(</text><text xml:space="preserve" font-family="Courier" font-size="30.0" fill="#000000" transform="matrix(1.00, 0.00, -0.00, -1.00, 483.0, 475.0)">i</text><text xml:space="preserve" font-family="Courier" font-size="30.0" fill="#000000" transform="matrix(1.00, 0.00, -0.00, -1.00, 501.0, 475.0)">t</text><text xml:space="preserve" font-family="Courier" font-size="30.0" fill="#000000" transform="matrix(1.00, 0.00, -0.00, -1.00, 519.1, 475.0)">e</text><text xml:space="preserve" font-family="Courier" font-size="30.0" fill="#000000" transform="matrix(1.00, 0.00, -0.00, -1.00, 537.1, 475.0)">m</text><text xml:space="preserve" font-family="Courier" font-size="30.0" fill="#000000" transform="matrix(1.00, 0.00, -0.00, -1.00, 555.1, 475.0)">)</text></g></g><path d="M 195.7 347.9 L 828.3 347.9 L 828.3 67.1 L 195.7 67.1 Z M 195.7 347.9 " fill="#FEFFFE"></path><image xlink:href="../../FA37723B-2AE7-48BB-AE7F-6B4B40C81602/assets/989F87BA95F87DD4B20992C86CEF9EC1.png" width="677.00" height="331.00" transform="matrix(1.00, 0.00, -0.00, 1.00, 173.7, 43.1)"></image><g><clipPath id="clip-340"><path d="M 193.2 68.1 L 830.8 68.1 L 830.8 346.9 L 193.2 346.9 Z M 193.2 68.1 "></path></clipPath><g clip-path="url(#clip-340)"><text xml:space="preserve" font-family="Courier" font-size="30.0" fill="#000000" transform="matrix(1.00, 0.00, -0.00, -1.00, 231.0, 304.0)">s</text><text xml:space="preserve" font-family="Courier" font-size="30.0" fill="#000000" transform="matrix(1.00, 0.00, -0.00, -1.00, 249.0, 304.0)">o</text><text xml:space="preserve" font-family="Courier" font-size="30.0" fill="#000000" transform="matrix(1.00, 0.00, -0.00, -1.00, 267.0, 304.0)">m</text><text xml:space="preserve" font-family="Courier" font-size="30.0" fill="#000000" transform="matrix(1.00, 0.00, -0.00, -1.00, 285.0, 304.0)">e</text><text xml:space="preserve" font-family="Courier" font-size="30.0" fill="#000000" transform="matrix(1.00, 0.00, -0.00, -1.00, 303.0, 304.0)">L</text><text xml:space="preserve" font-family="Courier" font-size="30.0" fill="#000000" transform="matrix(1.00, 0.00, -0.00, -1.00, 321.0, 304.0)">i</text><text xml:space="preserve" font-family="Courier" font-size="30.0" fill="#000000" transform="matrix(1.00, 0.00, -0.00, -1.00, 339.0, 304.0)">s</text><text xml:space="preserve" font-family="Courier" font-size="30.0" fill="#000000" transform="matrix(1.00, 0.00, -0.00, -1.00, 357.0, 304.0)">t</text><text xml:space="preserve" font-family="Courier" font-size="30.0" fill="#000000" transform="matrix(1.00, 0.00, -0.00, -1.00, 375.0, 304.0)"> </text><text xml:space="preserve" font-family="Courier" font-size="30.0" fill="#797979" transform="matrix(1.00, 0.00, -0.00, -1.00, 393.0, 304.0)">=</text><text xml:space="preserve" font-family="Courier" font-size="30.0" fill="#000000" transform="matrix(1.00, 0.00, -0.00, -1.00, 411.0, 304.0)"> </text><text xml:space="preserve" font-family="Courier" font-size="30.0" fill="#000000" transform="matrix(1.00, 0.00, -0.00, -1.00, 429.0, 304.0)">[</text><text xml:space="preserve" font-family="Courier" font-size="30.0" fill="#797979" transform="matrix(1.00, 0.00, -0.00, -1.00, 447.0, 304.0)">1</text><text xml:space="preserve" font-family="Courier" font-size="30.0" fill="#000000" transform="matrix(1.00, 0.00, -0.00, -1.00, 465.0, 304.0)">,</text><text xml:space="preserve" font-family="Courier" font-size="30.0" fill="#797979" transform="matrix(1.00, 0.00, -0.00, -1.00, 483.0, 304.0)">7</text><text xml:space="preserve" font-family="Courier" font-size="30.0" fill="#000000" transform="matrix(1.00, 0.00, -0.00, -1.00, 501.0, 304.0)">,</text><text xml:space="preserve" font-family="Courier" font-size="30.0" fill="#797979" transform="matrix(1.00, 0.00, -0.00, -1.00, 519.0, 304.0)">2</text><text xml:space="preserve" font-family="Courier" font-size="30.0" fill="#000000" transform="matrix(1.00, 0.00, -0.00, -1.00, 537.0, 304.0)">,</text><text xml:space="preserve" font-family="Courier" font-size="30.0" fill="#797979" transform="matrix(1.00, 0.00, -0.00, -1.00, 555.1, 304.0)">4</text><text xml:space="preserve" font-family="Courier" font-size="30.0" fill="#000000" transform="matrix(1.00, 0.00, -0.00, -1.00, 573.1, 304.0)">,</text><text xml:space="preserve" font-family="Courier" font-size="30.0" fill="#797979" transform="matrix(1.00, 0.00, -0.00, -1.00, 591.1, 304.0)">1</text><text xml:space="preserve" font-family="Courier" font-size="30.0" fill="#797979" transform="matrix(1.00, 0.00, -0.00, -1.00, 609.1, 304.0)">4</text><text xml:space="preserve" font-family="Courier" font-size="30.0" fill="#000000" transform="matrix(1.00, 0.00, -0.00, -1.00, 627.1, 304.0)">,</text><text xml:space="preserve" font-family="Courier" font-size="30.0" fill="#797979" transform="matrix(1.00, 0.00, -0.00, -1.00, 645.1, 304.0)">1</text><text xml:space="preserve" font-family="Courier" font-size="30.0" fill="#797979" transform="matrix(1.00, 0.00, -0.00, -1.00, 663.1, 304.0)">1</text><text xml:space="preserve" font-family="Courier" font-size="30.0" fill="#000000" transform="matrix(1.00, 0.00, -0.00, -1.00, 681.1, 304.0)">,</text><text xml:space="preserve" font-family="Courier" font-size="30.0" fill="#797979" transform="matrix(1.00, 0.00, -0.00, -1.00, 699.1, 304.0)">9</text><text xml:space="preserve" font-family="Courier" font-size="30.0" fill="#000000" transform="matrix(1.00, 0.00, -0.00, -1.00, 717.1, 304.0)">,</text><text xml:space="preserve" font-family="Courier" font-size="30.0" fill="#797979" transform="matrix(1.00, 0.00, -0.00, -1.00, 735.1, 304.0)">3</text><text xml:space="preserve" font-family="Courier" font-size="30.0" fill="#000000" transform="matrix(1.00, 0.00, -0.00, -1.00, 753.1, 304.0)">]</text><text xml:space="preserve" font-family="Courier-Bold" font-weight="bold" font-size="30.0" fill="#008E00" transform="matrix(1.00, 0.00, -0.00, -1.00, 231.0, 268.0)">f</text><text xml:space="preserve" font-family="Courier-Bold" font-weight="bold" font-size="30.0" fill="#008E00" transform="matrix(1.00, 0.00, -0.00, -1.00, 249.0, 268.0)">o</text><text xml:space="preserve" font-family="Courier-Bold" font-weight="bold" font-size="30.0" fill="#008E00" transform="matrix(1.00, 0.00, -0.00, -1.00, 267.0, 268.0)">r</text><text xml:space="preserve" font-family="Courier" font-size="30.0" fill="#000000" transform="matrix(1.00, 0.00, -0.00, -1.00, 285.0, 268.0)"> </text><text xml:space="preserve" font-family="Courier" font-size="30.0" fill="#000000" transform="matrix(1.00, 0.00, -0.00, -1.00, 303.0, 268.0)">i</text><text xml:space="preserve" font-family="Courier" font-size="30.0" fill="#000000" transform="matrix(1.00, 0.00, -0.00, -1.00, 321.0, 268.0)">t</text><text xml:space="preserve" font-family="Courier" font-size="30.0" fill="#000000" transform="matrix(1.00, 0.00, -0.00, -1.00, 339.0, 268.0)">e</text><text xml:space="preserve" font-family="Courier" font-size="30.0" fill="#000000" transform="matrix(1.00, 0.00, -0.00, -1.00, 357.0, 268.0)">m</text><text xml:space="preserve" font-family="Courier" font-size="30.0" fill="#000000" transform="matrix(1.00, 0.00, -0.00, -1.00, 375.0, 268.0)"> </text><text xml:space="preserve" font-family="Courier-Bold" font-weight="bold" font-size="30.0" fill="#BA49FF" transform="matrix(1.00, 0.00, -0.00, -1.00, 393.0, 268.0)">i</text><text xml:space="preserve" font-family="Courier-Bold" font-weight="bold" font-size="30.0" fill="#BA49FF" transform="matrix(1.00, 0.00, -0.00, -1.00, 411.0, 268.0)">n</text><text xml:space="preserve" font-family="Courier" font-size="30.0" fill="#000000" transform="matrix(1.00, 0.00, -0.00, -1.00, 429.0, 268.0)"> </text><text xml:space="preserve" font-family="Courier" font-size="30.0" fill="#000000" transform="matrix(1.00, 0.00, -0.00, -1.00, 447.0, 268.0)">s</text><text xml:space="preserve" font-family="Courier" font-size="30.0" fill="#000000" transform="matrix(1.00, 0.00, -0.00, -1.00, 465.0, 268.0)">o</text><text xml:space="preserve" font-family="Courier" font-size="30.0" fill="#000000" transform="matrix(1.00, 0.00, -0.00, -1.00, 483.0, 268.0)">m</text><text xml:space="preserve" font-family="Courier" font-size="30.0" fill="#000000" transform="matrix(1.00, 0.00, -0.00, -1.00, 501.1, 268.0)">e</text><text xml:space="preserve" font-family="Courier" font-size="30.0" fill="#000000" transform="matrix(1.00, 0.00, -0.00, -1.00, 519.1, 268.0)">L</text><text xml:space="preserve" font-family="Courier" font-size="30.0" fill="#000000" transform="matrix(1.00, 0.00, -0.00, -1.00, 537.1, 268.0)">i</text><text xml:space="preserve" font-family="Courier" font-size="30.0" fill="#000000" transform="matrix(1.00, 0.00, -0.00, -1.00, 555.1, 268.0)">s</text><text xml:space="preserve" font-family="Courier" font-size="30.0" fill="#000000" transform="matrix(1.00, 0.00, -0.00, -1.00, 573.1, 268.0)">t</text><text xml:space="preserve" font-family="Courier" font-size="30.0" fill="#000000" transform="matrix(1.00, 0.00, -0.00, -1.00, 591.1, 268.0)">:</text><text xml:space="preserve" font-family="Courier" font-size="30.0" fill="#000000" transform="matrix(1.00, 0.00, -0.00, -1.00, 231.0, 232.0)"> </text><text xml:space="preserve" font-family="Courier" font-size="30.0" fill="#000000" transform="matrix(1.00, 0.00, -0.00, -1.00, 249.0, 232.0)"> </text><text xml:space="preserve" font-family="Courier" font-size="30.0" fill="#000000" transform="matrix(1.00, 0.00, -0.00, -1.00, 267.0, 232.0)"> </text><text xml:space="preserve" font-family="Courier" font-size="30.0" fill="#000000" transform="matrix(1.00, 0.00, -0.00, -1.00, 285.0, 232.0)"> </text><text xml:space="preserve" font-family="Courier-Bold" font-weight="bold" font-size="30.0" fill="#008E00" transform="matrix(1.00, 0.00, -0.00, -1.00, 303.0, 232.0)">i</text><text xml:space="preserve" font-family="Courier-Bold" font-weight="bold" font-size="30.0" fill="#008E00" transform="matrix(1.00, 0.00, -0.00, -1.00, 321.0, 232.0)">f</text><text xml:space="preserve" font-family="Courier" font-size="30.0" fill="#000000" transform="matrix(1.00, 0.00, -0.00, -1.00, 339.0, 232.0)"> </text><text xml:space="preserve" font-family="Courier" font-size="30.0" fill="#000000" transform="matrix(1.00, 0.00, -0.00, -1.00, 357.0, 232.0)">i</text><text xml:space="preserve" font-family="Courier" font-size="30.0" fill="#000000" transform="matrix(1.00, 0.00, -0.00, -1.00, 375.0, 232.0)">t</text><text xml:space="preserve" font-family="Courier" font-size="30.0" fill="#000000" transform="matrix(1.00, 0.00, -0.00, -1.00, 393.0, 232.0)">e</text><text xml:space="preserve" font-family="Courier" font-size="30.0" fill="#000000" transform="matrix(1.00, 0.00, -0.00, -1.00, 411.0, 232.0)">m</text><text xml:space="preserve" font-family="Courier" font-size="30.0" fill="#000000" transform="matrix(1.00, 0.00, -0.00, -1.00, 429.0, 232.0)"> </text><text xml:space="preserve" font-family="Courier" font-size="30.0" fill="#797979" transform="matrix(1.00, 0.00, -0.00, -1.00, 447.0, 232.0)">&lt;</text><text xml:space="preserve" font-family="Courier" font-size="30.0" fill="#797979" transform="matrix(1.00, 0.00, -0.00, -1.00, 465.0, 232.0)">=</text><text xml:space="preserve" font-family="Courier" font-size="30.0" fill="#000000" transform="matrix(1.00, 0.00, -0.00, -1.00, 483.0, 232.0)"> </text><text xml:space="preserve" font-family="Courier" font-size="30.0" fill="#797979" transform="matrix(1.00, 0.00, -0.00, -1.00, 501.0, 232.0)">1</text><text xml:space="preserve" font-family="Courier" font-size="30.0" fill="#797979" transform="matrix(1.00, 0.00, -0.00, -1.00, 519.0, 232.0)">0</text><text xml:space="preserve" font-family="Courier" font-size="30.0" fill="#000000" transform="matrix(1.00, 0.00, -0.00, -1.00, 537.0, 232.0)">:</text><text xml:space="preserve" font-family="Courier" font-size="30.0" fill="#000000" transform="matrix(1.00, 0.00, -0.00, -1.00, 231.0, 196.0)"> </text><text xml:space="preserve" font-family="Courier" font-size="30.0" fill="#000000" transform="matrix(1.00, 0.00, -0.00, -1.00, 249.0, 196.0)"> </text><text xml:space="preserve" font-family="Courier" font-size="30.0" fill="#000000" transform="matrix(1.00, 0.00, -0.00, -1.00, 267.0, 196.0)"> </text><text xml:space="preserve" font-family="Courier" font-size="30.0" fill="#000000" transform="matrix(1.00, 0.00, -0.00, -1.00, 285.0, 196.0)"> </text><text xml:space="preserve" font-family="Courier" font-size="30.0" fill="#000000" transform="matrix(1.00, 0.00, -0.00, -1.00, 303.0, 196.0)"> </text><text xml:space="preserve" font-family="Courier" font-size="30.0" fill="#000000" transform="matrix(1.00, 0.00, -0.00, -1.00, 321.0, 196.0)"> </text><text xml:space="preserve" font-family="Courier" font-size="30.0" fill="#000000" transform="matrix(1.00, 0.00, -0.00, -1.00, 339.0, 196.0)"> </text><text xml:space="preserve" font-family="Courier" font-size="30.0" fill="#000000" transform="matrix(1.00, 0.00, -0.00, -1.00, 357.0, 196.0)"> </text><text xml:space="preserve" font-family="Courier-Bold" font-weight="bold" font-size="30.0" fill="#008E00" transform="matrix(1.00, 0.00, -0.00, -1.00, 375.0, 196.0)">c</text><text xml:space="preserve" font-family="Courier-Bold" font-weight="bold" font-size="30.0" fill="#008E00" transform="matrix(1.00, 0.00, -0.00, -1.00, 393.0, 196.0)">o</text><text xml:space="preserve" font-family="Courier-Bold" font-weight="bold" font-size="30.0" fill="#008E00" transform="matrix(1.00, 0.00, -0.00, -1.00, 411.0, 196.0)">n</text><text xml:space="preserve" font-family="Courier-Bold" font-weight="bold" font-size="30.0" fill="#008E00" transform="matrix(1.00, 0.00, -0.00, -1.00, 429.0, 196.0)">t</text><text xml:space="preserve" font-family="Courier-Bold" font-weight="bold" font-size="30.0" fill="#008E00" transform="matrix(1.00, 0.00, -0.00, -1.00, 447.0, 196.0)">i</text><text xml:space="preserve" font-family="Courier-Bold" font-weight="bold" font-size="30.0" fill="#008E00" transform="matrix(1.00, 0.00, -0.00, -1.00, 465.1, 196.0)">n</text><text xml:space="preserve" font-family="Courier-Bold" font-weight="bold" font-size="30.0" fill="#008E00" transform="matrix(1.00, 0.00, -0.00, -1.00, 483.1, 196.0)">u</text><text xml:space="preserve" font-family="Courier-Bold" font-weight="bold" font-size="30.0" fill="#008E00" transform="matrix(1.00, 0.00, -0.00, -1.00, 501.1, 196.0)">e</text><text xml:space="preserve" font-family="Courier" font-size="30.0" fill="#000000" transform="matrix(1.00, 0.00, -0.00, -1.00, 231.0, 124.0)"> </text><text xml:space="preserve" font-family="Courier" font-size="30.0" fill="#000000" transform="matrix(1.00, 0.00, -0.00, -1.00, 249.0, 124.0)"> </text><text xml:space="preserve" font-family="Courier" font-size="30.0" fill="#000000" transform="matrix(1.00, 0.00, -0.00, -1.00, 267.0, 124.0)"> </text><text xml:space="preserve" font-family="Courier" font-size="30.0" fill="#000000" transform="matrix(1.00, 0.00, -0.00, -1.00, 285.0, 124.0)"> </text><text xml:space="preserve" font-family="Courier-Bold" font-weight="bold" font-size="30.0" fill="#008E00" transform="matrix(1.00, 0.00, -0.00, -1.00, 303.0, 124.0)">p</text><text xml:space="preserve" font-family="Courier-Bold" font-weight="bold" font-size="30.0" fill="#008E00" transform="matrix(1.00, 0.00, -0.00, -1.00, 321.0, 124.0)">r</text><text xml:space="preserve" font-family="Courier-Bold" font-weight="bold" font-size="30.0" fill="#008E00" transform="matrix(1.00, 0.00, -0.00, -1.00, 339.0, 124.0)">i</text><text xml:space="preserve" font-family="Courier-Bold" font-weight="bold" font-size="30.0" fill="#008E00" transform="matrix(1.00, 0.00, -0.00, -1.00, 357.0, 124.0)">n</text><text xml:space="preserve" font-family="Courier-Bold" font-weight="bold" font-size="30.0" fill="#008E00" transform="matrix(1.00, 0.00, -0.00, -1.00, 375.0, 124.0)">t</text><text xml:space="preserve" font-family="Courier" font-size="30.0" fill="#000000" transform="matrix(1.00, 0.00, -0.00, -1.00, 393.0, 124.0)">(</text><text xml:space="preserve" font-family="Courier" font-size="30.0" fill="#000000" transform="matrix(1.00, 0.00, -0.00, -1.00, 411.0, 124.0)">i</text><text xml:space="preserve" font-family="Courier" font-size="30.0" fill="#000000" transform="matrix(1.00, 0.00, -0.00, -1.00, 429.0, 124.0)">t</text><text xml:space="preserve" font-family="Courier" font-size="30.0" fill="#000000" transform="matrix(1.00, 0.00, -0.00, -1.00, 447.0, 124.0)">e</text><text xml:space="preserve" font-family="Courier" font-size="30.0" fill="#000000" transform="matrix(1.00, 0.00, -0.00, -1.00, 465.1, 124.0)">m</text><text xml:space="preserve" font-family="Courier" font-size="30.0" fill="#000000" transform="matrix(1.00, 0.00, -0.00, -1.00, 483.1, 124.0)">)</text></g></g></g></svg>