<?xml version="1.0" encoding="UTF-8" standalone="no"?><svg xmlns="http://www.w3.org/2000/svg" xmlns:xlink="http://www.w3.org/1999/xlink" clip-rule="evenodd" stroke-miterlimit="4.00" viewBox="0 0 1024 768"><desc>SVG generated by Keynote</desc><defs></defs><g transform="matrix(1.00, 0.00, -0.00, -1.00, 0.0, 768.0)"><g><clipPath id="clip-63"><path d="M 0.0 768.0 L 1024.0 768.0 L 1024.0 0.0 L 0.0 0.0 Z M 0.0 768.0 "></path></clipPath><g clip-path="url(#clip-63)"><image xlink:href="../../86BB661C-AAFE-46F2-89B5-B98D6D644DD8/assets/DE78B55DDE70D88C6FF874E8D33A46A3.jpeg" width="1024.00" height="768.00" transform="matrix(1.00, 0.00, -0.00, -1.00, 0.0, 768.0)"></image></g></g><image xlink:href="../../86BB661C-AAFE-46F2-89B5-B98D6D644DD8/assets/610DE41026624E3AEF638D24E71EF355.png" width="74.00" height="62.00" transform="matrix(1.00, 0.00, -0.00, -1.00, 949.0, 64.0)"></image><image xlink:href="../../86BB661C-AAFE-46F2-89B5-B98D6D644DD8/assets/C79B4846A618BF06956E5E1178655E37.png" width="40.00" height="40.00" transform="matrix(1.00, 0.00, -0.00, -1.01, 966.2, 53.0)" opacity="0.50"></image><g><clipPath id="clip-64"><path d="M 996.7 43.5 C 1002.5 37.6 1002.5 28.0 996.7 22.0 C 990.9 16.1 981.4 16.1 975.6 22.0 C 969.7 28.0 969.7 37.6 975.6 43.5 C 981.4 49.5 990.9 49.5 996.7 43.5 Z M 996.7 43.5 "></path></clipPath><g clip-path="url(#clip-64)"><image xlink:href="../../86BB661C-AAFE-46F2-89B5-B98D6D644DD8/assets/DE78B55DDE70D88C6FF874E8D33A46A3.jpeg" width="1024.00" height="768.00" transform="matrix(0.04, 0.00, -0.00, -0.04, 965.9, 48.0)"></image></g></g><text xml:space="preserve" font-family="HoboStd" font-size="18.0" fill="#E5CC77" transform="matrix(1.00, 0.00, -0.00, -1.00, 976.0, 26.0)">1</text><text xml:space="preserve" font-family="HoboStd" font-size="18.0" fill="#E5CC77" transform="matrix(1.00, 0.00, -0.00, -1.00, 986.4, 26.0)">2</text><g><clipPath id="clip-65"><path d="M 62.5 607.5 L 962.1 607.5 L 962.1 160.2 L 62.5 160.2 Z M 62.5 607.5 "></path></clipPath><g clip-path="url(#clip-65)"><path d="M 63.0 607.0 L 212.8 607.0 L 212.8 542.1 L 63.0 542.1 Z M 63.0 607.0 " fill="#869ABB"></path><path d="M 212.8 607.0 L 362.5 607.0 L 362.5 542.1 L 212.8 542.1 Z M 212.8 607.0 " fill="#869ABB"></path><path d="M 362.5 607.0 L 512.3 607.0 L 512.3 542.1 L 362.5 542.1 Z M 362.5 607.0 " fill="#869ABB"></path><path d="M 512.3 607.0 L 662.0 607.0 L 662.0 542.1 L 512.3 542.1 Z M 512.3 607.0 " fill="#869ABB"></path><path d="M 662.0 607.0 L 811.8 607.0 L 811.8 542.1 L 662.0 542.1 Z M 662.0 607.0 " fill="#869ABB"></path><path d="M 811.8 607.0 L 961.6 607.0 L 961.6 542.1 L 811.8 542.1 Z M 811.8 607.0 " fill="#869ABB"></path><path d="M 63.0 542.1 L 212.8 542.1 L 212.8 393.4 L 63.0 393.4 Z M 63.0 542.1 " fill="#869ABB"></path><path d="M 63.0 393.4 L 212.8 393.4 L 212.8 332.8 L 63.0 332.8 Z M 63.0 393.4 " fill="#869ABB"></path><path d="M 212.8 393.4 L 961.6 393.4 L 961.6 332.8 L 212.8 332.8 Z M 212.8 393.4 " fill="#000000" fill-opacity="0.25"></path><path d="M 63.0 332.8 L 212.8 332.8 L 212.8 160.7 L 63.0 160.7 Z M 63.0 332.8 " fill="#869ABB"></path></g></g><image xlink:href="3F63CEFE6CE33F4E08B9F13EFF9278B6.png" width="97.00" height="39.00" transform="matrix(1.00, 0.00, -0.00, -1.00, 239.0, 587.0)"></image><g><clipPath id="clip-66"><path d="M 62.5 607.5 L 962.1 607.5 L 962.1 160.2 L 62.5 160.2 Z M 62.5 607.5 "></path></clipPath><g clip-path="url(#clip-66)"><g><clipPath id="clip-67"><path d="M 213.3 542.6 L 362.0 542.6 L 362.0 606.5 L 213.3 606.5 Z M 213.3 542.6 "></path></clipPath><g clip-path="url(#clip-67)"><text xml:space="preserve" font-family="Chalkduster" font-size="20.0" fill="#FEFFFE" transform="matrix(1.00, 0.00, -0.00, -1.00, 243.0, 564.0)">M</text><text xml:space="preserve" font-family="Chalkduster" font-size="20.0" fill="#FEFFFE" transform="matrix(1.00, 0.00, -0.00, -1.00, 260.4, 564.0)">o</text><text xml:space="preserve" font-family="Chalkduster" font-size="20.0" fill="#FEFFFE" transform="matrix(1.00, 0.00, -0.00, -1.00, 275.2, 564.0)">n</text><text xml:space="preserve" font-family="Chalkduster" font-size="20.0" fill="#FEFFFE" transform="matrix(1.00, 0.00, -0.00, -1.00, 289.9, 564.0)">d</text><text xml:space="preserve" font-family="Chalkduster" font-size="20.0" fill="#FEFFFE" transform="matrix(1.00, 0.00, -0.00, -1.00, 305.5, 564.0)">a</text><text xml:space="preserve" font-family="Chalkduster" font-size="20.0" fill="#FEFFFE" transform="matrix(1.00, 0.00, -0.00, -1.00, 319.3, 564.0)">y</text></g></g></g></g><image xlink:href="2A0EC4650553CEA145B6C52FC33047A8.png" width="102.00" height="39.00" transform="matrix(1.00, 0.00, -0.00, -1.00, 387.0, 587.0)"></image><g><clipPath id="clip-68"><path d="M 62.5 607.5 L 962.1 607.5 L 962.1 160.2 L 62.5 160.2 Z M 62.5 607.5 "></path></clipPath><g clip-path="url(#clip-68)"><g><clipPath id="clip-69"><path d="M 363.0 542.6 L 511.8 542.6 L 511.8 606.5 L 363.0 606.5 Z M 363.0 542.6 "></path></clipPath><g clip-path="url(#clip-69)"><text xml:space="preserve" font-family="Chalkduster" font-size="20.0" fill="#FEFFFE" transform="matrix(1.00, 0.00, -0.00, -1.00, 392.0, 564.0)">T</text><text xml:space="preserve" font-family="Chalkduster" font-size="20.0" fill="#FEFFFE" transform="matrix(1.00, 0.00, -0.00, -1.00, 405.5, 564.0)">u</text><text xml:space="preserve" font-family="Chalkduster" font-size="20.0" fill="#FEFFFE" transform="matrix(1.00, 0.00, -0.00, -1.00, 419.2, 564.0)">e</text><text xml:space="preserve" font-family="Chalkduster" font-size="20.0" fill="#FEFFFE" transform="matrix(1.00, 0.00, -0.00, -1.00, 432.1, 564.0)">s</text><text xml:space="preserve" font-family="Chalkduster" font-size="20.0" fill="#FEFFFE" transform="matrix(1.00, 0.00, -0.00, -1.00, 442.2, 564.0)">d</text><text xml:space="preserve" font-family="Chalkduster" font-size="20.0" fill="#FEFFFE" transform="matrix(1.00, 0.00, -0.00, -1.00, 457.8, 564.0)">a</text><text xml:space="preserve" font-family="Chalkduster" font-size="20.0" fill="#FEFFFE" transform="matrix(1.00, 0.00, -0.00, -1.00, 471.6, 564.0)">y</text></g></g></g></g><image xlink:href="DDD45CF4741E89830BEC6D8C79354A87.png" width="137.00" height="39.00" transform="matrix(1.00, 0.00, -0.00, -1.00, 519.0, 587.0)"></image><g><clipPath id="clip-70"><path d="M 62.5 607.5 L 962.1 607.5 L 962.1 160.2 L 62.5 160.2 Z M 62.5 607.5 "></path></clipPath><g clip-path="url(#clip-70)"><g><clipPath id="clip-71"><path d="M 512.8 542.6 L 661.5 542.6 L 661.5 606.5 L 512.8 606.5 Z M 512.8 542.6 "></path></clipPath><g clip-path="url(#clip-71)"><text xml:space="preserve" font-family="Chalkduster" font-size="20.0" fill="#FEFFFE" transform="matrix(1.00, 0.00, -0.00, -1.00, 524.0, 564.0)">W</text><text xml:space="preserve" font-family="Chalkduster" font-size="20.0" fill="#FEFFFE" transform="matrix(1.00, 0.00, -0.00, -1.00, 542.5, 564.0)">e</text><text xml:space="preserve" font-family="Chalkduster" font-size="20.0" fill="#FEFFFE" transform="matrix(1.00, 0.00, -0.00, -1.00, 555.6, 564.0)">d</text><text xml:space="preserve" font-family="Chalkduster" font-size="20.0" fill="#FEFFFE" transform="matrix(1.00, 0.00, -0.00, -1.00, 571.2, 564.0)">n</text><text xml:space="preserve" font-family="Chalkduster" font-size="20.0" fill="#FEFFFE" transform="matrix(1.00, 0.00, -0.00, -1.00, 586.2, 564.0)">e</text><text xml:space="preserve" font-family="Chalkduster" font-size="20.0" fill="#FEFFFE" transform="matrix(1.00, 0.00, -0.00, -1.00, 599.0, 564.0)">s</text><text xml:space="preserve" font-family="Chalkduster" font-size="20.0" fill="#FEFFFE" transform="matrix(1.00, 0.00, -0.00, -1.00, 609.1, 564.0)">d</text><text xml:space="preserve" font-family="Chalkduster" font-size="20.0" fill="#FEFFFE" transform="matrix(1.00, 0.00, -0.00, -1.00, 624.8, 564.0)">a</text><text xml:space="preserve" font-family="Chalkduster" font-size="20.0" fill="#FEFFFE" transform="matrix(1.00, 0.00, -0.00, -1.00, 638.6, 564.0)">y</text></g></g></g></g><image xlink:href="6E92C726E3D93AF753CF87EF8A42AFBC.png" width="114.00" height="39.00" transform="matrix(1.00, 0.00, -0.00, -1.00, 680.0, 587.0)"></image><g><clipPath id="clip-72"><path d="M 62.5 607.5 L 962.1 607.5 L 962.1 160.2 L 62.5 160.2 Z M 62.5 607.5 "></path></clipPath><g clip-path="url(#clip-72)"><g><clipPath id="clip-73"><path d="M 662.5 542.6 L 811.3 542.6 L 811.3 606.5 L 662.5 606.5 Z M 662.5 542.6 "></path></clipPath><g clip-path="url(#clip-73)"><text xml:space="preserve" font-family="Chalkduster" font-size="20.0" fill="#FEFFFE" transform="matrix(1.00, 0.00, -0.00, -1.00, 685.0, 564.0)">T</text><text xml:space="preserve" font-family="Chalkduster" font-size="20.0" fill="#FEFFFE" transform="matrix(1.00, 0.00, -0.00, -1.00, 700.4, 564.0)">h</text><text xml:space="preserve" font-family="Chalkduster" font-size="20.0" fill="#FEFFFE" transform="matrix(1.00, 0.00, -0.00, -1.00, 712.7, 564.0)">u</text><text xml:space="preserve" font-family="Chalkduster" font-size="20.0" fill="#FEFFFE" transform="matrix(1.00, 0.00, -0.00, -1.00, 726.8, 564.0)">r</text><text xml:space="preserve" font-family="Chalkduster" font-size="20.0" fill="#FEFFFE" transform="matrix(1.00, 0.00, -0.00, -1.00, 737.1, 564.0)">s</text><text xml:space="preserve" font-family="Chalkduster" font-size="20.0" fill="#FEFFFE" transform="matrix(1.00, 0.00, -0.00, -1.00, 747.2, 564.0)">d</text><text xml:space="preserve" font-family="Chalkduster" font-size="20.0" fill="#FEFFFE" transform="matrix(1.00, 0.00, -0.00, -1.00, 762.8, 564.0)">a</text><text xml:space="preserve" font-family="Chalkduster" font-size="20.0" fill="#FEFFFE" transform="matrix(1.00, 0.00, -0.00, -1.00, 776.6, 564.0)">y</text></g></g></g></g><image xlink:href="D0DC2189A0E57001FCF0151F6B4788A9.png" width="86.00" height="39.00" transform="matrix(1.00, 0.00, -0.00, -1.00, 844.0, 587.0)"></image><g><clipPath id="clip-74"><path d="M 62.5 607.5 L 962.1 607.5 L 962.1 160.2 L 62.5 160.2 Z M 62.5 607.5 "></path></clipPath><g clip-path="url(#clip-74)"><g><clipPath id="clip-75"><path d="M 812.3 542.6 L 961.1 542.6 L 961.1 606.5 L 812.3 606.5 Z M 812.3 542.6 "></path></clipPath><g clip-path="url(#clip-75)"><text xml:space="preserve" font-family="Chalkduster" font-size="20.0" fill="#FEFFFE" transform="matrix(1.00, 0.00, -0.00, -1.00, 849.0, 564.0)">F</text><text xml:space="preserve" font-family="Chalkduster" font-size="20.0" fill="#FEFFFE" transform="matrix(1.00, 0.00, -0.00, -1.00, 863.4, 564.0)">r</text><text xml:space="preserve" font-family="Chalkduster" font-size="20.0" fill="#FEFFFE" transform="matrix(1.00, 0.00, -0.00, -1.00, 874.5, 564.0)">i</text><text xml:space="preserve" font-family="Chalkduster" font-size="20.0" fill="#FEFFFE" transform="matrix(1.00, 0.00, -0.00, -1.00, 883.1, 564.0)">d</text><text xml:space="preserve" font-family="Chalkduster" font-size="20.0" fill="#FEFFFE" transform="matrix(1.00, 0.00, -0.00, -1.00, 898.7, 564.0)">a</text><text xml:space="preserve" font-family="Chalkduster" font-size="20.0" fill="#FEFFFE" transform="matrix(1.00, 0.00, -0.00, -1.00, 912.5, 564.0)">y</text></g></g></g></g><image xlink:href="E01F31CBB90D06BF013FDD7F7A496D49.png" width="140.00" height="27.00" transform="matrix(1.00, 0.00, -0.00, -1.00, 68.0, 477.0)"></image><g><clipPath id="clip-76"><path d="M 62.5 607.5 L 962.1 607.5 L 962.1 160.2 L 62.5 160.2 Z M 62.5 607.5 "></path></clipPath><g clip-path="url(#clip-76)"><g><clipPath id="clip-77"><path d="M 63.5 393.9 L 212.3 393.9 L 212.3 541.6 L 63.5 541.6 Z M 63.5 393.9 "></path></clipPath><g clip-path="url(#clip-77)"><text xml:space="preserve" font-family="Chalkduster" font-size="20.0" fill="#FEFFFE" transform="matrix(1.00, 0.00, -0.00, -1.00, 73.0, 457.0)">0</text><text xml:space="preserve" font-family="Chalkduster" font-size="20.0" fill="#FEFFFE" transform="matrix(1.00, 0.00, -0.00, -1.00, 86.8, 457.0)">9</text><text xml:space="preserve" font-family="Chalkduster" font-size="20.0" fill="#FEFFFE" transform="matrix(1.00, 0.00, -0.00, -1.00, 98.9, 457.0)">:</text><text xml:space="preserve" font-family="Chalkduster" font-size="20.0" fill="#FEFFFE" transform="matrix(1.00, 0.00, -0.00, -1.00, 105.4, 457.0)">0</text><text xml:space="preserve" font-family="Chalkduster" font-size="20.0" fill="#FEFFFE" transform="matrix(1.00, 0.00, -0.00, -1.00, 119.5, 457.0)">0</text><text xml:space="preserve" font-family="Chalkduster" font-size="20.0" fill="#FEFFFE" transform="matrix(1.00, 0.00, -0.00, -1.00, 134.2, 457.0)">-</text><text xml:space="preserve" font-family="Chalkduster" font-size="20.0" fill="#FEFFFE" transform="matrix(1.00, 0.00, -0.00, -1.00, 146.3, 457.0)">1</text><text xml:space="preserve" font-family="Chalkduster" font-size="20.0" fill="#FEFFFE" transform="matrix(1.00, 0.00, -0.00, -1.00, 158.0, 457.0)">2</text><text xml:space="preserve" font-family="Chalkduster" font-size="20.0" fill="#FEFFFE" transform="matrix(1.00, 0.00, -0.00, -1.00, 169.2, 457.0)">:</text><text xml:space="preserve" font-family="Chalkduster" font-size="20.0" fill="#FEFFFE" transform="matrix(1.00, 0.00, -0.00, -1.00, 175.8, 457.0)">0</text><text xml:space="preserve" font-family="Chalkduster" font-size="20.0" fill="#FEFFFE" transform="matrix(1.00, 0.00, -0.00, -1.00, 189.9, 457.0)">0</text></g></g></g></g><image xlink:href="66499C9631A56C1ABA380613CBB8E42C.png" width="103.00" height="29.00" transform="matrix(1.00, 0.00, -0.00, -1.00, 535.0, 479.0)"></image><g><clipPath id="clip-78"><path d="M 62.5 607.5 L 962.1 607.5 L 962.1 160.2 L 62.5 160.2 Z M 62.5 607.5 "></path></clipPath><g clip-path="url(#clip-78)"><g><clipPath id="clip-79"><path d="M 213.3 393.9 L 961.1 393.9 L 961.1 541.6 L 213.3 541.6 Z M 213.3 393.9 "></path></clipPath><g clip-path="url(#clip-79)"><text xml:space="preserve" font-family="Chalkduster" font-size="20.0" fill="#FEFFFE" transform="matrix(1.00, 0.00, -0.00, -1.00, 540.0, 457.0)">L</text><text xml:space="preserve" font-family="Chalkduster" font-size="20.0" fill="#FEFFFE" transform="matrix(1.00, 0.00, -0.00, -1.00, 552.7, 457.0)">e</text><text xml:space="preserve" font-family="Chalkduster" font-size="20.0" fill="#FEFFFE" transform="matrix(1.00, 0.00, -0.00, -1.00, 565.4, 457.0)">c</text><text xml:space="preserve" font-family="Chalkduster" font-size="20.0" fill="#FEFFFE" transform="matrix(1.00, 0.00, -0.00, -1.00, 577.2, 457.0)">t</text><text xml:space="preserve" font-family="Chalkduster" font-size="20.0" fill="#FEFFFE" transform="matrix(1.00, 0.00, -0.00, -1.00, 586.4, 457.0)">u</text><text xml:space="preserve" font-family="Chalkduster" font-size="20.0" fill="#FEFFFE" transform="matrix(1.00, 0.00, -0.00, -1.00, 600.4, 457.0)">r</text><text xml:space="preserve" font-family="Chalkduster" font-size="20.0" fill="#FEFFFE" transform="matrix(1.00, 0.00, -0.00, -1.00, 610.6, 457.0)">e</text><text xml:space="preserve" font-family="Chalkduster" font-size="20.0" fill="#FEFFFE" transform="matrix(1.00, 0.00, -0.00, -1.00, 623.4, 457.0)">s</text></g></g></g></g><image xlink:href="CE8E01D5A916205A8930C5806761A55B.png" width="139.00" height="27.00" transform="matrix(1.00, 0.00, -0.00, -1.00, 69.0, 373.0)"></image><g><clipPath id="clip-80"><path d="M 62.5 607.5 L 962.1 607.5 L 962.1 160.2 L 62.5 160.2 Z M 62.5 607.5 "></path></clipPath><g clip-path="url(#clip-80)"><g><clipPath id="clip-81"><path d="M 63.5 333.3 L 212.3 333.3 L 212.3 392.9 L 63.5 392.9 Z M 63.5 333.3 "></path></clipPath><g clip-path="url(#clip-81)"><text xml:space="preserve" font-family="Chalkduster" font-size="20.0" fill="#FEFFFE" transform="matrix(1.00, 0.00, -0.00, -1.00, 73.0, 353.0)">1</text><text xml:space="preserve" font-family="Chalkduster" font-size="20.0" fill="#FEFFFE" transform="matrix(1.00, 0.00, -0.00, -1.00, 84.7, 353.0)">2</text><text xml:space="preserve" font-family="Chalkduster" font-size="20.0" fill="#FEFFFE" transform="matrix(1.00, 0.00, -0.00, -1.00, 95.9, 353.0)">:</text><text xml:space="preserve" font-family="Chalkduster" font-size="20.0" fill="#FEFFFE" transform="matrix(1.00, 0.00, -0.00, -1.00, 102.5, 353.0)">0</text><text xml:space="preserve" font-family="Chalkduster" font-size="20.0" fill="#FEFFFE" transform="matrix(1.00, 0.00, -0.00, -1.00, 116.6, 353.0)">0</text><text xml:space="preserve" font-family="Chalkduster" font-size="20.0" fill="#FEFFFE" transform="matrix(1.00, 0.00, -0.00, -1.00, 131.3, 353.0)">-</text><text xml:space="preserve" font-family="Chalkduster" font-size="20.0" fill="#FEFFFE" transform="matrix(1.00, 0.00, -0.00, -1.00, 143.4, 353.0)">1</text><text xml:space="preserve" font-family="Chalkduster" font-size="20.0" fill="#FEFFFE" transform="matrix(1.00, 0.00, -0.00, -1.00, 155.5, 353.0)">3</text><text xml:space="preserve" font-family="Chalkduster" font-size="20.0" fill="#FEFFFE" transform="matrix(1.00, 0.00, -0.00, -1.00, 169.2, 353.0)">:</text><text xml:space="preserve" font-family="Chalkduster" font-size="20.0" fill="#FEFFFE" transform="matrix(1.00, 0.00, -0.00, -1.00, 175.8, 353.0)">0</text><text xml:space="preserve" font-family="Chalkduster" font-size="20.0" fill="#FEFFFE" transform="matrix(1.00, 0.00, -0.00, -1.00, 189.9, 353.0)">0</text></g></g></g></g><image xlink:href="7206033E86186D209175CE2BFA33EDB5.png" width="76.00" height="28.00" transform="matrix(1.00, 0.00, -0.00, -1.00, 549.0, 374.0)"></image><g><clipPath id="clip-82"><path d="M 62.5 607.5 L 962.1 607.5 L 962.1 160.2 L 62.5 160.2 Z M 62.5 607.5 "></path></clipPath><g clip-path="url(#clip-82)"><g><clipPath id="clip-83"><path d="M 213.3 333.3 L 961.1 333.3 L 961.1 392.9 L 213.3 392.9 Z M 213.3 333.3 "></path></clipPath><g clip-path="url(#clip-83)"><text xml:space="preserve" font-family="Chalkduster" font-size="20.0" fill="#FEFFFE" transform="matrix(1.00, 0.00, -0.00, -1.00, 554.0, 353.0)">L</text><text xml:space="preserve" font-family="Chalkduster" font-size="20.0" fill="#FEFFFE" transform="matrix(1.00, 0.00, -0.00, -1.00, 566.7, 353.0)">u</text><text xml:space="preserve" font-family="Chalkduster" font-size="20.0" fill="#FEFFFE" transform="matrix(1.00, 0.00, -0.00, -1.00, 580.7, 353.0)">n</text><text xml:space="preserve" font-family="Chalkduster" font-size="20.0" fill="#FEFFFE" transform="matrix(1.00, 0.00, -0.00, -1.00, 595.4, 353.0)">c</text><text xml:space="preserve" font-family="Chalkduster" font-size="20.0" fill="#FEFFFE" transform="matrix(1.00, 0.00, -0.00, -1.00, 608.0, 353.0)">h</text></g></g></g></g><image xlink:href="171DDD30A65EE960A756B9CC7A32A388.png" width="140.00" height="27.00" transform="matrix(1.00, 0.00, -0.00, -1.00, 68.0, 257.0)"></image><g><clipPath id="clip-84"><path d="M 62.5 607.5 L 962.1 607.5 L 962.1 160.2 L 62.5 160.2 Z M 62.5 607.5 "></path></clipPath><g clip-path="url(#clip-84)"><g><clipPath id="clip-85"><path d="M 63.5 161.2 L 212.3 161.2 L 212.3 332.3 L 63.5 332.3 Z M 63.5 161.2 "></path></clipPath><g clip-path="url(#clip-85)"><text xml:space="preserve" font-family="Chalkduster" font-size="20.0" fill="#FEFFFE" transform="matrix(1.00, 0.00, -0.00, -1.00, 72.0, 237.0)">1</text><text xml:space="preserve" font-family="Chalkduster" font-size="20.0" fill="#FEFFFE" transform="matrix(1.00, 0.00, -0.00, -1.00, 84.1, 237.0)">3</text><text xml:space="preserve" font-family="Chalkduster" font-size="20.0" fill="#FEFFFE" transform="matrix(1.00, 0.00, -0.00, -1.00, 97.9, 237.0)">:</text><text xml:space="preserve" font-family="Chalkduster" font-size="20.0" fill="#FEFFFE" transform="matrix(1.00, 0.00, -0.00, -1.00, 104.4, 237.0)">0</text><text xml:space="preserve" font-family="Chalkduster" font-size="20.0" fill="#FEFFFE" transform="matrix(1.00, 0.00, -0.00, -1.00, 118.5, 237.0)">0</text><text xml:space="preserve" font-family="Chalkduster" font-size="20.0" fill="#FEFFFE" transform="matrix(1.00, 0.00, -0.00, -1.00, 133.2, 237.0)">-</text><text xml:space="preserve" font-family="Chalkduster" font-size="20.0" fill="#FEFFFE" transform="matrix(1.00, 0.00, -0.00, -1.00, 145.3, 237.0)">1</text><text xml:space="preserve" font-family="Chalkduster" font-size="20.0" fill="#FEFFFE" transform="matrix(1.00, 0.00, -0.00, -1.00, 157.4, 237.0)">7</text><text xml:space="preserve" font-family="Chalkduster" font-size="20.0" fill="#FEFFFE" transform="matrix(1.00, 0.00, -0.00, -1.00, 169.3, 237.0)">:</text><text xml:space="preserve" font-family="Chalkduster" font-size="20.0" fill="#FEFFFE" transform="matrix(1.00, 0.00, -0.00, -1.00, 175.9, 237.0)">0</text><text xml:space="preserve" font-family="Chalkduster" font-size="20.0" fill="#FEFFFE" transform="matrix(1.00, 0.00, -0.00, -1.00, 190.0, 237.0)">0</text></g></g></g></g><image xlink:href="9BD7D8E62B14429D40BC0A4C03BB9DF0.png" width="226.00" height="36.00" transform="matrix(1.00, 0.00, -0.00, -1.00, 474.0, 260.0)"></image><g><clipPath id="clip-86"><path d="M 62.5 607.5 L 962.1 607.5 L 962.1 160.2 L 62.5 160.2 Z M 62.5 607.5 "></path></clipPath><g clip-path="url(#clip-86)"><g><clipPath id="clip-87"><path d="M 213.3 161.2 L 961.1 161.2 L 961.1 332.3 L 213.3 332.3 Z M 213.3 161.2 "></path></clipPath><g clip-path="url(#clip-87)"><text xml:space="preserve" font-family="Chalkduster" font-size="20.0" fill="#FEFFFE" transform="matrix(1.00, 0.00, -0.00, -1.00, 479.0, 237.0)">E</text><text xml:space="preserve" font-family="Chalkduster" font-size="20.0" fill="#FEFFFE" transform="matrix(1.00, 0.00, -0.00, -1.00, 493.8, 237.0)">x</text><text xml:space="preserve" font-family="Chalkduster" font-size="20.0" fill="#FEFFFE" transform="matrix(1.00, 0.00, -0.00, -1.00, 506.2, 237.0)">e</text><text xml:space="preserve" font-family="Chalkduster" font-size="20.0" fill="#FEFFFE" transform="matrix(1.00, 0.00, -0.00, -1.00, 518.4, 237.0)">r</text><text xml:space="preserve" font-family="Chalkduster" font-size="20.0" fill="#FEFFFE" transform="matrix(1.00, 0.00, -0.00, -1.00, 528.7, 237.0)">c</text><text xml:space="preserve" font-family="Chalkduster" font-size="20.0" fill="#FEFFFE" transform="matrix(1.00, 0.00, -0.00, -1.00, 541.3, 237.0)">i</text><text xml:space="preserve" font-family="Chalkduster" font-size="20.0" fill="#FEFFFE" transform="matrix(1.00, 0.00, -0.00, -1.00, 549.2, 237.0)">s</text><text xml:space="preserve" font-family="Chalkduster" font-size="20.0" fill="#FEFFFE" transform="matrix(1.00, 0.00, -0.00, -1.00, 559.3, 237.0)">e</text><text xml:space="preserve" font-family="Chalkduster" font-size="20.0" fill="#FEFFFE" transform="matrix(1.00, 0.00, -0.00, -1.00, 572.1, 237.0)">s</text><text xml:space="preserve" font-family="Chalkduster" font-size="20.0" fill="#FEFFFE" transform="matrix(1.00, 0.00, -0.00, -1.00, 582.2, 237.0)"> </text><text xml:space="preserve" font-family="Chalkduster" font-size="20.0" fill="#FEFFFE" transform="matrix(1.00, 0.00, -0.00, -1.00, 592.2, 237.0)">+</text><text xml:space="preserve" font-family="Chalkduster" font-size="20.0" fill="#FEFFFE" transform="matrix(1.00, 0.00, -0.00, -1.00, 604.6, 237.0)"> </text><text xml:space="preserve" font-family="Chalkduster" font-size="20.0" fill="#FEFFFE" transform="matrix(1.00, 0.00, -0.00, -1.00, 614.6, 237.0)">P</text><text xml:space="preserve" font-family="Chalkduster" font-size="20.0" fill="#FEFFFE" transform="matrix(1.00, 0.00, -0.00, -1.00, 628.5, 237.0)">r</text><text xml:space="preserve" font-family="Chalkduster" font-size="20.0" fill="#FEFFFE" transform="matrix(1.00, 0.00, -0.00, -1.00, 638.7, 237.0)">o</text><text xml:space="preserve" font-family="Chalkduster" font-size="20.0" fill="#FEFFFE" transform="matrix(1.00, 0.00, -0.00, -1.00, 652.1, 237.0)">j</text><text xml:space="preserve" font-family="Chalkduster" font-size="20.0" fill="#FEFFFE" transform="matrix(1.00, 0.00, -0.00, -1.00, 661.9, 237.0)">e</text><text xml:space="preserve" font-family="Chalkduster" font-size="20.0" fill="#FEFFFE" transform="matrix(1.00, 0.00, -0.00, -1.00, 674.6, 237.0)">c</text><text xml:space="preserve" font-family="Chalkduster" font-size="20.0" fill="#FEFFFE" transform="matrix(1.00, 0.00, -0.00, -1.00, 686.5, 237.0)">t</text></g></g></g></g><g><clipPath id="clip-88"><path d="M 62.5 607.5 L 962.1 607.5 L 962.1 160.2 L 62.5 160.2 Z M 62.5 607.5 "></path></clipPath><g clip-path="url(#clip-88)"><path d="M 301.5 1.5 L 301.5 67.4 " fill="none" stroke="#FEFFFE" stroke-opacity="0.50" stroke-width="1.00" transform="matrix(1.00, 0.00, 0.00, -1.00, 61.0, 609.0)"></path><path d="M 451.3 1.5 L 451.3 67.4 " fill="none" stroke="#FEFFFE" stroke-opacity="0.50" stroke-width="1.00" transform="matrix(1.00, 0.00, 0.00, -1.00, 61.0, 609.0)"></path><path d="M 601.0 1.5 L 601.0 67.4 " fill="none" stroke="#FEFFFE" stroke-opacity="0.50" stroke-width="1.00" transform="matrix(1.00, 0.00, 0.00, -1.00, 61.0, 609.0)"></path><path d="M 750.8 1.5 L 750.8 67.4 " fill="none" stroke="#FEFFFE" stroke-opacity="0.50" stroke-width="1.00" transform="matrix(1.00, 0.00, 0.00, -1.00, 61.0, 609.0)"></path><path d="M 1.5 215.6 L 151.8 215.6 " fill="none" stroke="#FEFFFE" stroke-opacity="0.50" stroke-width="1.00" transform="matrix(1.00, 0.00, 0.00, -1.00, 61.0, 609.0)"></path><path d="M 151.8 215.6 L 901.1 215.6 " fill="none" stroke="#FEFFFE" stroke-opacity="0.50" stroke-width="1.00" transform="matrix(1.00, 0.00, 0.00, -1.00, 61.0, 609.0)"></path><path d="M 1.5 276.2 L 151.8 276.2 " fill="none" stroke="#FEFFFE" stroke-opacity="0.50" stroke-width="1.00" transform="matrix(1.00, 0.00, 0.00, -1.00, 61.0, 609.0)"></path><path d="M 151.8 276.2 L 901.1 276.2 " fill="none" stroke="#FEFFFE" stroke-opacity="0.50" stroke-width="1.00" transform="matrix(1.00, 0.00, 0.00, -1.00, 61.0, 609.0)"></path><path d="M 151.8 1.5 L 151.8 66.9 " fill="none" stroke="#FEFFFE" stroke-opacity="0.50" stroke-width="1.00" transform="matrix(1.00, 0.00, 0.00, -1.00, 61.0, 609.0)"></path><path d="M 151.8 66.9 L 151.8 448.8 " fill="none" stroke="#FEFFFE" stroke-opacity="0.50" stroke-width="1.00" transform="matrix(1.00, 0.00, 0.00, -1.00, 61.0, 609.0)"></path><path d="M 1.5 66.9 L 901.1 66.9 " fill="none" stroke="#FEFFFE" stroke-opacity="0.50" stroke-width="1.00" transform="matrix(1.00, 0.00, 0.00, -1.00, 61.0, 609.0)"></path><path d="M 2.0 1.5 L 2.0 66.9 " fill="none" stroke="#FEFFFE" stroke-opacity="0.50" stroke-width="1.00" transform="matrix(1.00, 0.00, 0.00, -1.00, 61.0, 609.0)"></path><path d="M 2.0 66.9 L 2.0 448.8 " fill="none" stroke="#FEFFFE" stroke-opacity="0.50" stroke-width="1.00" transform="matrix(1.00, 0.00, 0.00, -1.00, 61.0, 609.0)"></path><path d="M 900.6 1.5 L 900.6 66.9 " fill="none" stroke="#FEFFFE" stroke-opacity="0.50" stroke-width="1.00" transform="matrix(1.00, 0.00, 0.00, -1.00, 61.0, 609.0)"></path><path d="M 900.6 66.9 L 900.6 448.8 " fill="none" stroke="#FEFFFE" stroke-opacity="0.50" stroke-width="1.00" transform="matrix(1.00, 0.00, 0.00, -1.00, 61.0, 609.0)"></path><path d="M 1.5 2.0 L 901.1 2.0 " fill="none" stroke="#FEFFFE" stroke-opacity="0.50" stroke-width="1.00" transform="matrix(1.00, 0.00, 0.00, -1.00, 61.0, 609.0)"></path><path d="M 1.5 448.3 L 151.8 448.3 " fill="none" stroke="#FEFFFE" stroke-opacity="0.50" stroke-width="1.00" transform="matrix(1.00, 0.00, 0.00, -1.00, 61.0, 609.0)"></path><path d="M 151.8 448.3 L 901.1 448.3 " fill="none" stroke="#FEFFFE" stroke-opacity="0.50" stroke-width="1.00" transform="matrix(1.00, 0.00, 0.00, -1.00, 61.0, 609.0)"></path></g></g></g></svg>