<?xml version="1.0" encoding="UTF-8" standalone="no"?><svg xmlns="http://www.w3.org/2000/svg" xmlns:xlink="http://www.w3.org/1999/xlink" clip-rule="evenodd" stroke-miterlimit="4.00" viewBox="0 0 1024 768"><desc>SVG generated by Keynote</desc><defs></defs><g transform="matrix(1.00, 0.00, -0.00, -1.00, 0.0, 768.0)"><g><clipPath id="clip-219"><path d="M 0.0 768.0 L 1024.0 768.0 L 1024.0 0.0 L 0.0 0.0 Z M 0.0 768.0 "></path></clipPath><g clip-path="url(#clip-219)"><image xlink:href="../../86BB661C-AAFE-46F2-89B5-B98D6D644DD8/assets/DE78B55DDE70D88C6FF874E8D33A46A3.jpeg" width="1024.00" height="768.00" transform="matrix(1.00, 0.00, -0.00, -1.00, 0.0, 768.0)"></image></g></g><image xlink:href="../../86BB661C-AAFE-46F2-89B5-B98D6D644DD8/assets/610DE41026624E3AEF638D24E71EF355.png" width="74.00" height="62.00" transform="matrix(1.00, 0.00, -0.00, -1.00, 949.0, 64.0)"></image><image xlink:href="../../86BB661C-AAFE-46F2-89B5-B98D6D644DD8/assets/C79B4846A618BF06956E5E1178655E37.png" width="40.00" height="40.00" transform="matrix(1.00, 0.00, -0.00, -1.01, 966.2, 53.0)" opacity="0.50"></image><g><clipPath id="clip-220"><path d="M 996.7 43.5 C 1002.5 37.6 1002.5 28.0 996.7 22.0 C 990.9 16.1 981.4 16.1 975.6 22.0 C 969.7 28.0 969.7 37.6 975.6 43.5 C 981.4 49.5 990.9 49.5 996.7 43.5 Z M 996.7 43.5 "></path></clipPath><g clip-path="url(#clip-220)"><image xlink:href="../../86BB661C-AAFE-46F2-89B5-B98D6D644DD8/assets/DE78B55DDE70D88C6FF874E8D33A46A3.jpeg" width="1024.00" height="768.00" transform="matrix(0.04, 0.00, -0.00, -0.04, 965.9, 48.0)"></image></g></g><text xml:space="preserve" font-family="HoboStd" font-size="18.0" fill="#E5CC77" transform="matrix(1.00, 0.00, -0.00, -1.00, 976.0, 26.0)">3</text><text xml:space="preserve" font-family="HoboStd" font-size="18.0" fill="#E5CC77" transform="matrix(1.00, 0.00, -0.00, -1.00, 986.4, 26.0)">7</text><path d="M 131.4 586.0 L 892.6 586.0 L 892.6 180.0 L 131.4 180.0 Z M 131.4 586.0 " fill="#FEFFFE"></path><image xlink:href="1E841A178BE0349AA6D0CA7C1E7C6B8C.png" width="805.00" height="456.00" transform="matrix(1.00, 0.00, -0.00, 1.00, 109.4, 156.0)"></image><g><clipPath id="clip-221"><path d="M 128.9 177.5 L 1632.3 177.5 L 1632.3 588.5 L 128.9 588.5 Z M 128.9 177.5 "></path></clipPath><g clip-path="url(#clip-221)"><text xml:space="preserve" font-family="Courier-Bold" font-weight="bold" font-size="30.0" fill="#008E00" transform="matrix(1.00, 0.00, -0.00, -1.00, 166.0, 552.0)">d</text><text xml:space="preserve" font-family="Courier-Bold" font-weight="bold" font-size="30.0" fill="#008E00" transform="matrix(1.00, 0.00, -0.00, -1.00, 184.0, 552.0)">e</text><text xml:space="preserve" font-family="Courier-Bold" font-weight="bold" font-size="30.0" fill="#008E00" transform="matrix(1.00, 0.00, -0.00, -1.00, 202.0, 552.0)">f</text><text xml:space="preserve" font-family="Courier" font-size="30.0" fill="#000000" transform="matrix(1.00, 0.00, -0.00, -1.00, 220.0, 552.0)"> </text><text xml:space="preserve" font-family="Courier" font-size="30.0" fill="#0432FF" transform="matrix(1.00, 0.00, -0.00, -1.00, 238.0, 552.0)">f</text><text xml:space="preserve" font-family="Courier" font-size="30.0" fill="#0432FF" transform="matrix(1.00, 0.00, -0.00, -1.00, 256.0, 552.0)">u</text><text xml:space="preserve" font-family="Courier" font-size="30.0" fill="#0432FF" transform="matrix(1.00, 0.00, -0.00, -1.00, 274.0, 552.0)">n</text><text xml:space="preserve" font-family="Courier" font-size="30.0" fill="#0432FF" transform="matrix(1.00, 0.00, -0.00, -1.00, 292.0, 552.0)">c</text><text xml:space="preserve" font-family="Courier" font-size="30.0" fill="#0432FF" transform="matrix(1.00, 0.00, -0.00, -1.00, 310.0, 552.0)">t</text><text xml:space="preserve" font-family="Courier" font-size="30.0" fill="#0432FF" transform="matrix(1.00, 0.00, -0.00, -1.00, 328.0, 552.0)">i</text><text xml:space="preserve" font-family="Courier" font-size="30.0" fill="#0432FF" transform="matrix(1.00, 0.00, -0.00, -1.00, 346.0, 552.0)">o</text><text xml:space="preserve" font-family="Courier" font-size="30.0" fill="#0432FF" transform="matrix(1.00, 0.00, -0.00, -1.00, 364.1, 552.0)">n</text><text xml:space="preserve" font-family="Courier" font-size="30.0" fill="#0432FF" transform="matrix(1.00, 0.00, -0.00, -1.00, 382.1, 552.0)">N</text><text xml:space="preserve" font-family="Courier" font-size="30.0" fill="#0432FF" transform="matrix(1.00, 0.00, -0.00, -1.00, 400.1, 552.0)">a</text><text xml:space="preserve" font-family="Courier" font-size="30.0" fill="#0432FF" transform="matrix(1.00, 0.00, -0.00, -1.00, 418.1, 552.0)">m</text><text xml:space="preserve" font-family="Courier" font-size="30.0" fill="#0432FF" transform="matrix(1.00, 0.00, -0.00, -1.00, 436.1, 552.0)">e</text><text xml:space="preserve" font-family="Courier" font-size="30.0" fill="#000000" transform="matrix(1.00, 0.00, -0.00, -1.00, 454.0, 552.0)">(</text><text xml:space="preserve" font-family="Courier" font-size="30.0" fill="#000000" transform="matrix(1.00, 0.00, -0.00, -1.00, 472.1, 552.0)">a</text><text xml:space="preserve" font-family="Courier" font-size="30.0" fill="#000000" transform="matrix(1.00, 0.00, -0.00, -1.00, 490.1, 552.0)">r</text><text xml:space="preserve" font-family="Courier" font-size="30.0" fill="#000000" transform="matrix(1.00, 0.00, -0.00, -1.00, 508.1, 552.0)">g</text><text xml:space="preserve" font-family="Courier" font-size="30.0" fill="#000000" transform="matrix(1.00, 0.00, -0.00, -1.00, 526.1, 552.0)">1</text><text xml:space="preserve" font-family="Courier" font-size="30.0" fill="#000000" transform="matrix(1.00, 0.00, -0.00, -1.00, 544.1, 552.0)">,</text><text xml:space="preserve" font-family="Courier" font-size="30.0" fill="#000000" transform="matrix(1.00, 0.00, -0.00, -1.00, 562.1, 552.0)"> </text><text xml:space="preserve" font-family="Courier" font-size="30.0" fill="#000000" transform="matrix(1.00, 0.00, -0.00, -1.00, 580.1, 552.0)">a</text><text xml:space="preserve" font-family="Courier" font-size="30.0" fill="#000000" transform="matrix(1.00, 0.00, -0.00, -1.00, 598.1, 552.0)">r</text><text xml:space="preserve" font-family="Courier" font-size="30.0" fill="#000000" transform="matrix(1.00, 0.00, -0.00, -1.00, 616.1, 552.0)">g</text><text xml:space="preserve" font-family="Courier" font-size="30.0" fill="#000000" transform="matrix(1.00, 0.00, -0.00, -1.00, 634.1, 552.0)">2</text><text xml:space="preserve" font-family="Courier" font-size="30.0" fill="#000000" transform="matrix(1.00, 0.00, -0.00, -1.00, 652.1, 552.0)">,</text><text xml:space="preserve" font-family="Courier" font-size="30.0" fill="#000000" transform="matrix(1.00, 0.00, -0.00, -1.00, 670.1, 552.0)"> </text><text xml:space="preserve" font-family="Courier" font-size="30.0" fill="#000000" transform="matrix(1.00, 0.00, -0.00, -1.00, 688.1, 552.0)">a</text><text xml:space="preserve" font-family="Courier" font-size="30.0" fill="#000000" transform="matrix(1.00, 0.00, -0.00, -1.00, 706.1, 552.0)">r</text><text xml:space="preserve" font-family="Courier" font-size="30.0" fill="#000000" transform="matrix(1.00, 0.00, -0.00, -1.00, 724.1, 552.0)">g</text><text xml:space="preserve" font-family="Courier" font-size="30.0" fill="#000000" transform="matrix(1.00, 0.00, -0.00, -1.00, 742.1, 552.0)">3</text><text xml:space="preserve" font-family="Courier" font-size="30.0" fill="#000000" transform="matrix(1.00, 0.00, -0.00, -1.00, 760.1, 552.0)">)</text><text xml:space="preserve" font-family="Courier" font-size="30.0" fill="#000000" transform="matrix(1.00, 0.00, -0.00, -1.00, 778.2, 552.0)">:</text><text xml:space="preserve" font-family="Courier" font-size="30.0" fill="#000000" transform="matrix(1.00, 0.00, -0.00, -1.00, 166.0, 516.0)"> </text><text xml:space="preserve" font-family="Courier" font-size="30.0" fill="#000000" transform="matrix(1.00, 0.00, -0.00, -1.00, 184.0, 516.0)"> </text><text xml:space="preserve" font-family="Courier" font-size="30.0" fill="#000000" transform="matrix(1.00, 0.00, -0.00, -1.00, 202.0, 516.0)"> </text><text xml:space="preserve" font-family="Courier" font-size="30.0" fill="#000000" transform="matrix(1.00, 0.00, -0.00, -1.00, 220.0, 516.0)"> </text><text xml:space="preserve" font-family="Courier" font-size="30.0" fill="#000000" transform="matrix(1.00, 0.00, -0.00, -1.00, 166.0, 480.0)"> </text><text xml:space="preserve" font-family="Courier" font-size="30.0" fill="#000000" transform="matrix(1.00, 0.00, -0.00, -1.00, 184.0, 480.0)"> </text><text xml:space="preserve" font-family="Courier" font-size="30.0" fill="#000000" transform="matrix(1.00, 0.00, -0.00, -1.00, 202.0, 480.0)"> </text><text xml:space="preserve" font-family="Courier" font-size="30.0" fill="#000000" transform="matrix(1.00, 0.00, -0.00, -1.00, 220.0, 480.0)"> </text><text xml:space="preserve" font-family="Courier" font-size="30.0" fill="#000000" transform="matrix(1.00, 0.00, -0.00, -1.00, 238.0, 480.0)">s</text><text xml:space="preserve" font-family="Courier" font-size="30.0" fill="#000000" transform="matrix(1.00, 0.00, -0.00, -1.00, 256.0, 480.0)">o</text><text xml:space="preserve" font-family="Courier" font-size="30.0" fill="#000000" transform="matrix(1.00, 0.00, -0.00, -1.00, 274.0, 480.0)">m</text><text xml:space="preserve" font-family="Courier" font-size="30.0" fill="#000000" transform="matrix(1.00, 0.00, -0.00, -1.00, 292.0, 480.0)">e</text><text xml:space="preserve" font-family="Courier" font-size="30.0" fill="#000000" transform="matrix(1.00, 0.00, -0.00, -1.00, 310.0, 480.0)">V</text><text xml:space="preserve" font-family="Courier" font-size="30.0" fill="#000000" transform="matrix(1.00, 0.00, -0.00, -1.00, 328.1, 480.0)">a</text><text xml:space="preserve" font-family="Courier" font-size="30.0" fill="#000000" transform="matrix(1.00, 0.00, -0.00, -1.00, 346.1, 480.0)">l</text><text xml:space="preserve" font-family="Courier" font-size="30.0" fill="#000000" transform="matrix(1.00, 0.00, -0.00, -1.00, 364.1, 480.0)">u</text><text xml:space="preserve" font-family="Courier" font-size="30.0" fill="#000000" transform="matrix(1.00, 0.00, -0.00, -1.00, 382.1, 480.0)">e</text><text xml:space="preserve" font-family="Courier" font-size="30.0" fill="#000000" transform="matrix(1.00, 0.00, -0.00, -1.00, 400.1, 480.0)"> </text><text xml:space="preserve" font-family="Courier" font-size="30.0" fill="#797979" transform="matrix(1.00, 0.00, -0.00, -1.00, 418.0, 480.0)">=</text><text xml:space="preserve" font-family="Courier" font-size="30.0" fill="#000000" transform="matrix(1.00, 0.00, -0.00, -1.00, 436.0, 480.0)"> </text><text xml:space="preserve" font-family="Courier" font-size="30.0" fill="#797979" transform="matrix(1.00, 0.00, -0.00, -1.00, 454.0, 480.0)">.</text><text xml:space="preserve" font-family="Courier" font-size="30.0" fill="#797979" transform="matrix(1.00, 0.00, -0.00, -1.00, 472.1, 480.0)">.</text><text xml:space="preserve" font-family="Courier" font-size="30.0" fill="#797979" transform="matrix(1.00, 0.00, -0.00, -1.00, 490.1, 480.0)">.</text><text xml:space="preserve" font-family="Courier" font-size="30.0" fill="#000000" transform="matrix(1.00, 0.00, -0.00, -1.00, 508.1, 480.0)"> </text><text xml:space="preserve" font-family="Courier-Oblique" font-style="italic" font-size="30.0" fill="#4E9192" transform="matrix(1.00, 0.00, -0.00, -1.00, 526.1, 480.0)">#</text><text xml:space="preserve" font-family="Courier-Oblique" font-style="italic" font-size="30.0" fill="#4E9192" transform="matrix(1.00, 0.00, -0.00, -1.00, 544.1, 480.0)"> </text><text xml:space="preserve" font-family="Courier-Oblique" font-style="italic" font-size="30.0" fill="#4E9192" transform="matrix(1.00, 0.00, -0.00, -1.00, 562.1, 480.0)">M</text><text xml:space="preserve" font-family="Courier-Oblique" font-style="italic" font-size="30.0" fill="#4E9192" transform="matrix(1.00, 0.00, -0.00, -1.00, 580.1, 480.0)">a</text><text xml:space="preserve" font-family="Courier-Oblique" font-style="italic" font-size="30.0" fill="#4E9192" transform="matrix(1.00, 0.00, -0.00, -1.00, 598.1, 480.0)">k</text><text xml:space="preserve" font-family="Courier-Oblique" font-style="italic" font-size="30.0" fill="#4E9192" transform="matrix(1.00, 0.00, -0.00, -1.00, 616.1, 480.0)">e</text><text xml:space="preserve" font-family="Courier-Oblique" font-style="italic" font-size="30.0" fill="#4E9192" transform="matrix(1.00, 0.00, -0.00, -1.00, 634.1, 480.0)"> </text><text xml:space="preserve" font-family="Courier-Oblique" font-style="italic" font-size="30.0" fill="#4E9192" transform="matrix(1.00, 0.00, -0.00, -1.00, 652.1, 480.0)">i</text><text xml:space="preserve" font-family="Courier-Oblique" font-style="italic" font-size="30.0" fill="#4E9192" transform="matrix(1.00, 0.00, -0.00, -1.00, 670.1, 480.0)">t</text><text xml:space="preserve" font-family="Courier-Oblique" font-style="italic" font-size="30.0" fill="#4E9192" transform="matrix(1.00, 0.00, -0.00, -1.00, 688.1, 480.0)"> </text><text xml:space="preserve" font-family="Courier-Oblique" font-style="italic" font-size="30.0" fill="#4E9192" transform="matrix(1.00, 0.00, -0.00, -1.00, 706.1, 480.0)">s</text><text xml:space="preserve" font-family="Courier-Oblique" font-style="italic" font-size="30.0" fill="#4E9192" transform="matrix(1.00, 0.00, -0.00, -1.00, 724.1, 480.0)">o</text><text xml:space="preserve" font-family="Courier-Oblique" font-style="italic" font-size="30.0" fill="#4E9192" transform="matrix(1.00, 0.00, -0.00, -1.00, 742.1, 480.0)">m</text><text xml:space="preserve" font-family="Courier-Oblique" font-style="italic" font-size="30.0" fill="#4E9192" transform="matrix(1.00, 0.00, -0.00, -1.00, 760.1, 480.0)">e</text><text xml:space="preserve" font-family="Courier-Oblique" font-style="italic" font-size="30.0" fill="#4E9192" transform="matrix(1.00, 0.00, -0.00, -1.00, 778.1, 480.0)">t</text><text xml:space="preserve" font-family="Courier-Oblique" font-style="italic" font-size="30.0" fill="#4E9192" transform="matrix(1.00, 0.00, -0.00, -1.00, 796.1, 480.0)">h</text><text xml:space="preserve" font-family="Courier-Oblique" font-style="italic" font-size="30.0" fill="#4E9192" transform="matrix(1.00, 0.00, -0.00, -1.00, 814.2, 480.0)">i</text><text xml:space="preserve" font-family="Courier-Oblique" font-style="italic" font-size="30.0" fill="#4E9192" transform="matrix(1.00, 0.00, -0.00, -1.00, 832.2, 480.0)">n</text><text xml:space="preserve" font-family="Courier-Oblique" font-style="italic" font-size="30.0" fill="#4E9192" transform="matrix(1.00, 0.00, -0.00, -1.00, 850.2, 480.0)">g</text><text xml:space="preserve" font-family="Courier" font-size="30.0" fill="#000000" transform="matrix(1.00, 0.00, -0.00, -1.00, 166.0, 408.0)"> </text><text xml:space="preserve" font-family="Courier" font-size="30.0" fill="#000000" transform="matrix(1.00, 0.00, -0.00, -1.00, 184.0, 408.0)"> </text><text xml:space="preserve" font-family="Courier" font-size="30.0" fill="#000000" transform="matrix(1.00, 0.00, -0.00, -1.00, 202.0, 408.0)"> </text><text xml:space="preserve" font-family="Courier" font-size="30.0" fill="#000000" transform="matrix(1.00, 0.00, -0.00, -1.00, 220.0, 408.0)"> </text><text xml:space="preserve" font-family="Courier-Oblique" font-style="italic" font-size="30.0" fill="#4E9192" transform="matrix(1.00, 0.00, -0.00, -1.00, 238.0, 408.0)">#</text><text xml:space="preserve" font-family="Courier-Oblique" font-style="italic" font-size="30.0" fill="#4E9192" transform="matrix(1.00, 0.00, -0.00, -1.00, 256.0, 408.0)"> </text><text xml:space="preserve" font-family="Courier-Oblique" font-style="italic" font-size="30.0" fill="#4E9192" transform="matrix(1.00, 0.00, -0.00, -1.00, 274.0, 408.0)">S</text><text xml:space="preserve" font-family="Courier-Oblique" font-style="italic" font-size="30.0" fill="#4E9192" transform="matrix(1.00, 0.00, -0.00, -1.00, 292.0, 408.0)">o</text><text xml:space="preserve" font-family="Courier-Oblique" font-style="italic" font-size="30.0" fill="#4E9192" transform="matrix(1.00, 0.00, -0.00, -1.00, 310.0, 408.0)">m</text><text xml:space="preserve" font-family="Courier-Oblique" font-style="italic" font-size="30.0" fill="#4E9192" transform="matrix(1.00, 0.00, -0.00, -1.00, 328.0, 408.0)">e</text><text xml:space="preserve" font-family="Courier-Oblique" font-style="italic" font-size="30.0" fill="#4E9192" transform="matrix(1.00, 0.00, -0.00, -1.00, 346.0, 408.0)"> </text><text xml:space="preserve" font-family="Courier-Oblique" font-style="italic" font-size="30.0" fill="#4E9192" transform="matrix(1.00, 0.00, -0.00, -1.00, 364.1, 408.0)">c</text><text xml:space="preserve" font-family="Courier-Oblique" font-style="italic" font-size="30.0" fill="#4E9192" transform="matrix(1.00, 0.00, -0.00, -1.00, 382.1, 408.0)">o</text><text xml:space="preserve" font-family="Courier-Oblique" font-style="italic" font-size="30.0" fill="#4E9192" transform="matrix(1.00, 0.00, -0.00, -1.00, 400.1, 408.0)">d</text><text xml:space="preserve" font-family="Courier-Oblique" font-style="italic" font-size="30.0" fill="#4E9192" transform="matrix(1.00, 0.00, -0.00, -1.00, 418.1, 408.0)">e</text><text xml:space="preserve" font-family="Courier-Oblique" font-style="italic" font-size="30.0" fill="#4E9192" transform="matrix(1.00, 0.00, -0.00, -1.00, 436.1, 408.0)"> </text><text xml:space="preserve" font-family="Courier-Oblique" font-style="italic" font-size="30.0" fill="#4E9192" transform="matrix(1.00, 0.00, -0.00, -1.00, 454.1, 408.0)">w</text><text xml:space="preserve" font-family="Courier-Oblique" font-style="italic" font-size="30.0" fill="#4E9192" transform="matrix(1.00, 0.00, -0.00, -1.00, 472.1, 408.0)">i</text><text xml:space="preserve" font-family="Courier-Oblique" font-style="italic" font-size="30.0" fill="#4E9192" transform="matrix(1.00, 0.00, -0.00, -1.00, 490.1, 408.0)">t</text><text xml:space="preserve" font-family="Courier-Oblique" font-style="italic" font-size="30.0" fill="#4E9192" transform="matrix(1.00, 0.00, -0.00, -1.00, 508.1, 408.0)">h</text><text xml:space="preserve" font-family="Courier-Oblique" font-style="italic" font-size="30.0" fill="#4E9192" transform="matrix(1.00, 0.00, -0.00, -1.00, 526.1, 408.0)"> </text><text xml:space="preserve" font-family="Courier-Oblique" font-style="italic" font-size="30.0" fill="#4E9192" transform="matrix(1.00, 0.00, -0.00, -1.00, 544.1, 408.0)">s</text><text xml:space="preserve" font-family="Courier-Oblique" font-style="italic" font-size="30.0" fill="#4E9192" transform="matrix(1.00, 0.00, -0.00, -1.00, 562.1, 408.0)">o</text><text xml:space="preserve" font-family="Courier-Oblique" font-style="italic" font-size="30.0" fill="#4E9192" transform="matrix(1.00, 0.00, -0.00, -1.00, 580.1, 408.0)">m</text><text xml:space="preserve" font-family="Courier-Oblique" font-style="italic" font-size="30.0" fill="#4E9192" transform="matrix(1.00, 0.00, -0.00, -1.00, 598.1, 408.0)">e</text><text xml:space="preserve" font-family="Courier-Oblique" font-style="italic" font-size="30.0" fill="#4E9192" transform="matrix(1.00, 0.00, -0.00, -1.00, 616.1, 408.0)">V</text><text xml:space="preserve" font-family="Courier-Oblique" font-style="italic" font-size="30.0" fill="#4E9192" transform="matrix(1.00, 0.00, -0.00, -1.00, 634.1, 408.0)">a</text><text xml:space="preserve" font-family="Courier-Oblique" font-style="italic" font-size="30.0" fill="#4E9192" transform="matrix(1.00, 0.00, -0.00, -1.00, 652.1, 408.0)">l</text><text xml:space="preserve" font-family="Courier-Oblique" font-style="italic" font-size="30.0" fill="#4E9192" transform="matrix(1.00, 0.00, -0.00, -1.00, 670.2, 408.0)">u</text><text xml:space="preserve" font-family="Courier-Oblique" font-style="italic" font-size="30.0" fill="#4E9192" transform="matrix(1.00, 0.00, -0.00, -1.00, 688.2, 408.0)">e</text><text xml:space="preserve" font-family="Courier" font-size="30.0" fill="#000000" transform="matrix(1.00, 0.00, -0.00, -1.00, 166.0, 372.0)"> </text><text xml:space="preserve" font-family="Courier" font-size="30.0" fill="#000000" transform="matrix(1.00, 0.00, -0.00, -1.00, 184.0, 372.0)"> </text><text xml:space="preserve" font-family="Courier" font-size="30.0" fill="#000000" transform="matrix(1.00, 0.00, -0.00, -1.00, 202.0, 372.0)"> </text><text xml:space="preserve" font-family="Courier" font-size="30.0" fill="#000000" transform="matrix(1.00, 0.00, -0.00, -1.00, 220.0, 372.0)"> </text><text xml:space="preserve" font-family="Courier-Oblique" font-style="italic" font-size="30.0" fill="#4E9192" transform="matrix(1.00, 0.00, -0.00, -1.00, 238.0, 372.0)">#</text><text xml:space="preserve" font-family="Courier-Oblique" font-style="italic" font-size="30.0" fill="#4E9192" transform="matrix(1.00, 0.00, -0.00, -1.00, 256.0, 372.0)"> </text><text xml:space="preserve" font-family="Courier-Oblique" font-style="italic" font-size="30.0" fill="#4E9192" transform="matrix(1.00, 0.00, -0.00, -1.00, 274.0, 372.0)">u</text><text xml:space="preserve" font-family="Courier-Oblique" font-style="italic" font-size="30.0" fill="#4E9192" transform="matrix(1.00, 0.00, -0.00, -1.00, 292.0, 372.0)">s</text><text xml:space="preserve" font-family="Courier-Oblique" font-style="italic" font-size="30.0" fill="#4E9192" transform="matrix(1.00, 0.00, -0.00, -1.00, 310.0, 372.0)">i</text><text xml:space="preserve" font-family="Courier-Oblique" font-style="italic" font-size="30.0" fill="#4E9192" transform="matrix(1.00, 0.00, -0.00, -1.00, 328.0, 372.0)">n</text><text xml:space="preserve" font-family="Courier-Oblique" font-style="italic" font-size="30.0" fill="#4E9192" transform="matrix(1.00, 0.00, -0.00, -1.00, 346.0, 372.0)">g</text><text xml:space="preserve" font-family="Courier-Oblique" font-style="italic" font-size="30.0" fill="#4E9192" transform="matrix(1.00, 0.00, -0.00, -1.00, 364.1, 372.0)"> </text><text xml:space="preserve" font-family="Courier-Oblique" font-style="italic" font-size="30.0" fill="#4E9192" transform="matrix(1.00, 0.00, -0.00, -1.00, 382.1, 372.0)">a</text><text xml:space="preserve" font-family="Courier-Oblique" font-style="italic" font-size="30.0" fill="#4E9192" transform="matrix(1.00, 0.00, -0.00, -1.00, 400.1, 372.0)">r</text><text xml:space="preserve" font-family="Courier-Oblique" font-style="italic" font-size="30.0" fill="#4E9192" transform="matrix(1.00, 0.00, -0.00, -1.00, 418.1, 372.0)">g</text><text xml:space="preserve" font-family="Courier-Oblique" font-style="italic" font-size="30.0" fill="#4E9192" transform="matrix(1.00, 0.00, -0.00, -1.00, 436.1, 372.0)">1</text><text xml:space="preserve" font-family="Courier-Oblique" font-style="italic" font-size="30.0" fill="#4E9192" transform="matrix(1.00, 0.00, -0.00, -1.00, 454.1, 372.0)">,</text><text xml:space="preserve" font-family="Courier-Oblique" font-style="italic" font-size="30.0" fill="#4E9192" transform="matrix(1.00, 0.00, -0.00, -1.00, 472.1, 372.0)"> </text><text xml:space="preserve" font-family="Courier-Oblique" font-style="italic" font-size="30.0" fill="#4E9192" transform="matrix(1.00, 0.00, -0.00, -1.00, 490.1, 372.0)">a</text><text xml:space="preserve" font-family="Courier-Oblique" font-style="italic" font-size="30.0" fill="#4E9192" transform="matrix(1.00, 0.00, -0.00, -1.00, 508.1, 372.0)">r</text><text xml:space="preserve" font-family="Courier-Oblique" font-style="italic" font-size="30.0" fill="#4E9192" transform="matrix(1.00, 0.00, -0.00, -1.00, 526.1, 372.0)">g</text><text xml:space="preserve" font-family="Courier-Oblique" font-style="italic" font-size="30.0" fill="#4E9192" transform="matrix(1.00, 0.00, -0.00, -1.00, 544.1, 372.0)">2</text><text xml:space="preserve" font-family="Courier-Oblique" font-style="italic" font-size="30.0" fill="#4E9192" transform="matrix(1.00, 0.00, -0.00, -1.00, 562.1, 372.0)">,</text><text xml:space="preserve" font-family="Courier-Oblique" font-style="italic" font-size="30.0" fill="#4E9192" transform="matrix(1.00, 0.00, -0.00, -1.00, 580.1, 372.0)"> </text><text xml:space="preserve" font-family="Courier-Oblique" font-style="italic" font-size="30.0" fill="#4E9192" transform="matrix(1.00, 0.00, -0.00, -1.00, 598.1, 372.0)">a</text><text xml:space="preserve" font-family="Courier-Oblique" font-style="italic" font-size="30.0" fill="#4E9192" transform="matrix(1.00, 0.00, -0.00, -1.00, 616.1, 372.0)">r</text><text xml:space="preserve" font-family="Courier-Oblique" font-style="italic" font-size="30.0" fill="#4E9192" transform="matrix(1.00, 0.00, -0.00, -1.00, 634.1, 372.0)">g</text><text xml:space="preserve" font-family="Courier-Oblique" font-style="italic" font-size="30.0" fill="#4E9192" transform="matrix(1.00, 0.00, -0.00, -1.00, 652.1, 372.0)">3</text><text xml:space="preserve" font-family="Courier-Oblique" font-style="italic" font-size="30.0" fill="#4E9192" transform="matrix(1.00, 0.00, -0.00, -1.00, 670.2, 372.0)"> </text><text xml:space="preserve" font-family="Courier-Oblique" font-style="italic" font-size="30.0" fill="#4E9192" transform="matrix(1.00, 0.00, -0.00, -1.00, 688.2, 372.0)">(</text><text xml:space="preserve" font-family="Courier-Oblique" font-style="italic" font-size="30.0" fill="#4E9192" transform="matrix(1.00, 0.00, -0.00, -1.00, 706.2, 372.0)">o</text><text xml:space="preserve" font-family="Courier-Oblique" font-style="italic" font-size="30.0" fill="#4E9192" transform="matrix(1.00, 0.00, -0.00, -1.00, 724.2, 372.0)">r</text><text xml:space="preserve" font-family="Courier-Oblique" font-style="italic" font-size="30.0" fill="#4E9192" transform="matrix(1.00, 0.00, -0.00, -1.00, 742.2, 372.0)"> </text><text xml:space="preserve" font-family="Courier-Oblique" font-style="italic" font-size="30.0" fill="#4E9192" transform="matrix(1.00, 0.00, -0.00, -1.00, 760.2, 372.0)">n</text><text xml:space="preserve" font-family="Courier-Oblique" font-style="italic" font-size="30.0" fill="#4E9192" transform="matrix(1.00, 0.00, -0.00, -1.00, 778.2, 372.0)">o</text><text xml:space="preserve" font-family="Courier-Oblique" font-style="italic" font-size="30.0" fill="#4E9192" transform="matrix(1.00, 0.00, -0.00, -1.00, 796.2, 372.0)">t</text><text xml:space="preserve" font-family="Courier-Oblique" font-style="italic" font-size="30.0" fill="#4E9192" transform="matrix(1.00, 0.00, -0.00, -1.00, 814.2, 372.0)">!</text><text xml:space="preserve" font-family="Courier-Oblique" font-style="italic" font-size="30.0" fill="#4E9192" transform="matrix(1.00, 0.00, -0.00, -1.00, 832.2, 372.0)">)</text><text xml:space="preserve" font-family="Courier" font-size="30.0" fill="#000000" transform="matrix(1.00, 0.00, -0.00, -1.00, 166.0, 336.0)"> </text><text xml:space="preserve" font-family="Courier" font-size="30.0" fill="#000000" transform="matrix(1.00, 0.00, -0.00, -1.00, 184.0, 336.0)"> </text><text xml:space="preserve" font-family="Courier" font-size="30.0" fill="#000000" transform="matrix(1.00, 0.00, -0.00, -1.00, 202.0, 336.0)"> </text><text xml:space="preserve" font-family="Courier" font-size="30.0" fill="#000000" transform="matrix(1.00, 0.00, -0.00, -1.00, 220.0, 336.0)"> </text><text xml:space="preserve" font-family="Courier-Oblique" font-style="italic" font-size="30.0" fill="#4E9192" transform="matrix(1.00, 0.00, -0.00, -1.00, 238.0, 336.0)">#</text><text xml:space="preserve" font-family="Courier" font-size="30.0" fill="#000000" transform="matrix(1.00, 0.00, -0.00, -1.00, 166.0, 300.0)"> </text><text xml:space="preserve" font-family="Courier" font-size="30.0" fill="#000000" transform="matrix(1.00, 0.00, -0.00, -1.00, 184.0, 300.0)"> </text><text xml:space="preserve" font-family="Courier" font-size="30.0" fill="#000000" transform="matrix(1.00, 0.00, -0.00, -1.00, 202.0, 300.0)"> </text><text xml:space="preserve" font-family="Courier" font-size="30.0" fill="#000000" transform="matrix(1.00, 0.00, -0.00, -1.00, 220.0, 300.0)"> </text><text xml:space="preserve" font-family="Courier-Oblique" font-style="italic" font-size="30.0" fill="#4E9192" transform="matrix(1.00, 0.00, -0.00, -1.00, 238.0, 300.0)">#</text><text xml:space="preserve" font-family="Courier-Oblique" font-style="italic" font-size="30.0" fill="#4E9192" transform="matrix(1.00, 0.00, -0.00, -1.00, 256.0, 300.0)"> </text><text xml:space="preserve" font-family="Courier-Oblique" font-style="italic" font-size="30.0" fill="#4E9192" transform="matrix(1.00, 0.00, -0.00, -1.00, 274.0, 300.0)">S</text><text xml:space="preserve" font-family="Courier-Oblique" font-style="italic" font-size="30.0" fill="#4E9192" transform="matrix(1.00, 0.00, -0.00, -1.00, 292.0, 300.0)">o</text><text xml:space="preserve" font-family="Courier-Oblique" font-style="italic" font-size="30.0" fill="#4E9192" transform="matrix(1.00, 0.00, -0.00, -1.00, 310.0, 300.0)">m</text><text xml:space="preserve" font-family="Courier-Oblique" font-style="italic" font-size="30.0" fill="#4E9192" transform="matrix(1.00, 0.00, -0.00, -1.00, 328.0, 300.0)">e</text><text xml:space="preserve" font-family="Courier-Oblique" font-style="italic" font-size="30.0" fill="#4E9192" transform="matrix(1.00, 0.00, -0.00, -1.00, 346.0, 300.0)"> </text><text xml:space="preserve" font-family="Courier-Oblique" font-style="italic" font-size="30.0" fill="#4E9192" transform="matrix(1.00, 0.00, -0.00, -1.00, 364.1, 300.0)">m</text><text xml:space="preserve" font-family="Courier-Oblique" font-style="italic" font-size="30.0" fill="#4E9192" transform="matrix(1.00, 0.00, -0.00, -1.00, 382.1, 300.0)">o</text><text xml:space="preserve" font-family="Courier-Oblique" font-style="italic" font-size="30.0" fill="#4E9192" transform="matrix(1.00, 0.00, -0.00, -1.00, 400.1, 300.0)">r</text><text xml:space="preserve" font-family="Courier-Oblique" font-style="italic" font-size="30.0" fill="#4E9192" transform="matrix(1.00, 0.00, -0.00, -1.00, 418.1, 300.0)">e</text><text xml:space="preserve" font-family="Courier-Oblique" font-style="italic" font-size="30.0" fill="#4E9192" transform="matrix(1.00, 0.00, -0.00, -1.00, 436.1, 300.0)"> </text><text xml:space="preserve" font-family="Courier-Oblique" font-style="italic" font-size="30.0" fill="#4E9192" transform="matrix(1.00, 0.00, -0.00, -1.00, 454.1, 300.0)">c</text><text xml:space="preserve" font-family="Courier-Oblique" font-style="italic" font-size="30.0" fill="#4E9192" transform="matrix(1.00, 0.00, -0.00, -1.00, 472.1, 300.0)">o</text><text xml:space="preserve" font-family="Courier-Oblique" font-style="italic" font-size="30.0" fill="#4E9192" transform="matrix(1.00, 0.00, -0.00, -1.00, 490.1, 300.0)">d</text><text xml:space="preserve" font-family="Courier-Oblique" font-style="italic" font-size="30.0" fill="#4E9192" transform="matrix(1.00, 0.00, -0.00, -1.00, 508.1, 300.0)">e</text><text xml:space="preserve" font-family="Courier" font-size="30.0" fill="#000000" transform="matrix(1.00, 0.00, -0.00, -1.00, 166.0, 228.0)"> </text><text xml:space="preserve" font-family="Courier" font-size="30.0" fill="#000000" transform="matrix(1.00, 0.00, -0.00, -1.00, 184.0, 228.0)"> </text><text xml:space="preserve" font-family="Courier" font-size="30.0" fill="#000000" transform="matrix(1.00, 0.00, -0.00, -1.00, 202.0, 228.0)"> </text><text xml:space="preserve" font-family="Courier" font-size="30.0" fill="#000000" transform="matrix(1.00, 0.00, -0.00, -1.00, 220.0, 228.0)"> </text><text xml:space="preserve" font-family="Courier-Bold" font-weight="bold" font-size="30.0" fill="#008E00" transform="matrix(1.00, 0.00, -0.00, -1.00, 238.0, 228.0)">r</text><text xml:space="preserve" font-family="Courier-Bold" font-weight="bold" font-size="30.0" fill="#008E00" transform="matrix(1.00, 0.00, -0.00, -1.00, 256.0, 228.0)">e</text><text xml:space="preserve" font-family="Courier-Bold" font-weight="bold" font-size="30.0" fill="#008E00" transform="matrix(1.00, 0.00, -0.00, -1.00, 274.0, 228.0)">t</text><text xml:space="preserve" font-family="Courier-Bold" font-weight="bold" font-size="30.0" fill="#008E00" transform="matrix(1.00, 0.00, -0.00, -1.00, 292.0, 228.0)">u</text><text xml:space="preserve" font-family="Courier-Bold" font-weight="bold" font-size="30.0" fill="#008E00" transform="matrix(1.00, 0.00, -0.00, -1.00, 310.0, 228.0)">r</text><text xml:space="preserve" font-family="Courier-Bold" font-weight="bold" font-size="30.0" fill="#008E00" transform="matrix(1.00, 0.00, -0.00, -1.00, 328.0, 228.0)">n</text><text xml:space="preserve" font-family="Courier" font-size="30.0" fill="#000000" transform="matrix(1.00, 0.00, -0.00, -1.00, 346.0, 228.0)"> </text><text xml:space="preserve" font-family="Courier" font-size="30.0" fill="#000000" transform="matrix(1.00, 0.00, -0.00, -1.00, 364.0, 228.0)">s</text><text xml:space="preserve" font-family="Courier" font-size="30.0" fill="#000000" transform="matrix(1.00, 0.00, -0.00, -1.00, 382.0, 228.0)">o</text><text xml:space="preserve" font-family="Courier" font-size="30.0" fill="#000000" transform="matrix(1.00, 0.00, -0.00, -1.00, 400.0, 228.0)">m</text><text xml:space="preserve" font-family="Courier" font-size="30.0" fill="#000000" transform="matrix(1.00, 0.00, -0.00, -1.00, 418.1, 228.0)">e</text><text xml:space="preserve" font-family="Courier" font-size="30.0" fill="#000000" transform="matrix(1.00, 0.00, -0.00, -1.00, 436.1, 228.0)">V</text><text xml:space="preserve" font-family="Courier" font-size="30.0" fill="#000000" transform="matrix(1.00, 0.00, -0.00, -1.00, 454.1, 228.0)">a</text><text xml:space="preserve" font-family="Courier" font-size="30.0" fill="#000000" transform="matrix(1.00, 0.00, -0.00, -1.00, 472.1, 228.0)">l</text><text xml:space="preserve" font-family="Courier" font-size="30.0" fill="#000000" transform="matrix(1.00, 0.00, -0.00, -1.00, 490.1, 228.0)">u</text><text xml:space="preserve" font-family="Courier" font-size="30.0" fill="#000000" transform="matrix(1.00, 0.00, -0.00, -1.00, 508.1, 228.0)">e</text></g></g></g></svg>