<?xml version="1.0" encoding="UTF-8" standalone="no"?><svg xmlns="http://www.w3.org/2000/svg" xmlns:xlink="http://www.w3.org/1999/xlink" clip-rule="evenodd" stroke-miterlimit="4.00" viewBox="0 0 195 36"><desc>SVG generated by Keynote</desc><defs></defs><g transform="matrix(1.00, 0.00, -0.00, -1.00, 0.0, 36.0)"><text xml:space="preserve" font-family="Chalkduster" font-size="30.0" fill="#FEFFFE" transform="matrix(1.00, 0.00, -0.00, -1.00, 1.0, 10.0)">+</text><text xml:space="preserve" font-family="Chalkduster" font-size="30.0" fill="#FEFFFE" transform="matrix(1.00, 0.00, -0.00, -1.00, 19.7, 10.0)">,</text><text xml:space="preserve" font-family="Chalkduster" font-size="30.0" fill="#FEFFFE" transform="matrix(1.00, 0.00, -0.00, -1.00, 29.0, 10.0)"> </text><text xml:space="preserve" font-family="Chalkduster" font-size="30.0" fill="#FEFFFE" transform="matrix(1.00, 0.00, -0.00, -1.00, 43.9, 10.0)">-</text><text xml:space="preserve" font-family="Chalkduster" font-size="30.0" fill="#FEFFFE" transform="matrix(1.00, 0.00, -0.00, -1.00, 62.1, 10.0)">,</text><text xml:space="preserve" font-family="Chalkduster" font-size="30.0" fill="#FEFFFE" transform="matrix(1.00, 0.00, -0.00, -1.00, 71.3, 10.0)"> </text><text xml:space="preserve" font-family="Chalkduster" font-size="30.0" fill="#FEFFFE" transform="matrix(1.00, 0.00, -0.00, -1.00, 86.3, 10.0)">*</text><text xml:space="preserve" font-family="Chalkduster" font-size="30.0" fill="#FEFFFE" transform="matrix(1.00, 0.00, -0.00, -1.00, 100.0, 10.0)">,</text><text xml:space="preserve" font-family="Chalkduster" font-size="30.0" fill="#FEFFFE" transform="matrix(1.00, 0.00, -0.00, -1.00, 109.3, 10.0)"> </text><text xml:space="preserve" font-family="Chalkduster" font-size="30.0" fill="#FEFFFE" transform="matrix(1.00, 0.00, -0.00, -1.00, 124.2, 10.0)">/</text><text xml:space="preserve" font-family="Chalkduster" font-size="30.0" fill="#FEFFFE" transform="matrix(1.00, 0.00, -0.00, -1.00, 144.6, 10.0)">,</text><text xml:space="preserve" font-family="Chalkduster" font-size="30.0" fill="#FEFFFE" transform="matrix(1.00, 0.00, -0.00, -1.00, 153.9, 10.0)"> </text><text xml:space="preserve" font-family="Chalkduster" font-size="30.0" fill="#FEFFFE" transform="matrix(1.00, 0.00, -0.00, -1.00, 168.8, 10.0)">.</text><text xml:space="preserve" font-family="Chalkduster" font-size="30.0" fill="#FEFFFE" transform="matrix(1.00, 0.00, -0.00, -1.00, 176.4, 10.0)">.</text><text xml:space="preserve" font-family="Chalkduster" font-size="30.0" fill="#FEFFFE" transform="matrix(1.00, 0.00, -0.00, -1.00, 184.0, 10.0)">.</text></g></svg>