<?xml version="1.0" encoding="UTF-8" standalone="no"?><svg xmlns="http://www.w3.org/2000/svg" xmlns:xlink="http://www.w3.org/1999/xlink" clip-rule="evenodd" stroke-miterlimit="4.00" viewBox="0 0 160 180"><desc>SVG generated by Keynote</desc><defs></defs><g transform="matrix(1.00, 0.00, -0.00, -1.00, 0.0, 180.0)"><text xml:space="preserve" font-family="Chalkduster" font-size="30.0" fill="#FEFFFE" transform="matrix(1.00, 0.00, -0.00, -1.00, 10.0, 150.0)">(</text><text xml:space="preserve" font-family="Chalkduster" font-size="30.0" fill="#FEFFFE" transform="matrix(1.00, 0.00, -0.00, -1.00, 23.1, 150.0)"> </text><text xml:space="preserve" font-family="Chalkduster" font-size="30.0" fill="#FEFFFE" transform="matrix(1.00, 0.00, -0.00, -1.00, 38.1, 150.0)">,</text><text xml:space="preserve" font-family="Chalkduster" font-size="30.0" fill="#FEFFFE" transform="matrix(1.00, 0.00, -0.00, -1.00, 47.3, 150.0)"> </text><text xml:space="preserve" font-family="Chalkduster" font-size="30.0" fill="#FEFFFE" transform="matrix(1.00, 0.00, -0.00, -1.00, 62.3, 150.0)">,</text><text xml:space="preserve" font-family="Chalkduster" font-size="30.0" fill="#FEFFFE" transform="matrix(1.00, 0.00, -0.00, -1.00, 71.6, 150.0)"> </text><text xml:space="preserve" font-family="Chalkduster" font-size="30.0" fill="#FEFFFE" transform="matrix(1.00, 0.00, -0.00, -1.00, 86.5, 150.0)">,</text><text xml:space="preserve" font-family="Chalkduster" font-size="30.0" fill="#FEFFFE" transform="matrix(1.00, 0.00, -0.00, -1.00, 95.8, 150.0)"> </text><text xml:space="preserve" font-family="Chalkduster" font-size="30.0" fill="#FEFFFE" transform="matrix(1.00, 0.00, -0.00, -1.00, 110.8, 150.0)">,</text><text xml:space="preserve" font-family="Chalkduster" font-size="30.0" fill="#FEFFFE" transform="matrix(1.00, 0.00, -0.00, -1.00, 120.1, 150.0)"> </text><text xml:space="preserve" font-family="Chalkduster" font-size="30.0" fill="#FEFFFE" transform="matrix(1.00, 0.00, -0.00, -1.00, 135.0, 150.0)">)</text><text xml:space="preserve" font-family="Chalkduster" font-size="30.0" fill="#FEFFFE" transform="matrix(1.00, 0.00, -0.00, -1.00, 150.1, 150.0)"> </text><text xml:space="preserve" font-family="Chalkduster" font-size="30.0" fill="#FEFFFE" transform="matrix(1.00, 0.00, -0.00, -1.00, 1.0, 18.0)">t</text><text xml:space="preserve" font-family="Chalkduster" font-size="30.0" fill="#FEFFFE" transform="matrix(1.00, 0.00, -0.00, -1.00, 14.7, 18.0)">u</text><text xml:space="preserve" font-family="Chalkduster" font-size="30.0" fill="#FEFFFE" transform="matrix(1.00, 0.00, -0.00, -1.00, 35.8, 18.0)">p</text><text xml:space="preserve" font-family="Chalkduster" font-size="30.0" fill="#FEFFFE" transform="matrix(1.00, 0.00, -0.00, -1.00, 54.3, 18.0)">l</text><text xml:space="preserve" font-family="Chalkduster" font-size="30.0" fill="#FEFFFE" transform="matrix(1.00, 0.00, -0.00, -1.00, 66.7, 18.0)">e</text><text xml:space="preserve" font-family="Chalkduster" font-size="30.0" fill="#FEFFFE" transform="matrix(1.00, 0.00, -0.00, -1.00, 85.3, 18.0)">(</text><text xml:space="preserve" font-family="Chalkduster" font-size="30.0" fill="#FEFFFE" transform="matrix(1.00, 0.00, -0.00, -1.00, 98.4, 18.0)"> </text><text xml:space="preserve" font-family="Chalkduster" font-size="30.0" fill="#FEFFFE" transform="matrix(1.00, 0.00, -0.00, -1.00, 113.3, 18.0)"> </text><text xml:space="preserve" font-family="Chalkduster" font-size="30.0" fill="#FEFFFE" transform="matrix(1.00, 0.00, -0.00, -1.00, 128.3, 18.0)"> </text><text xml:space="preserve" font-family="Chalkduster" font-size="30.0" fill="#FEFFFE" transform="matrix(1.00, 0.00, -0.00, -1.00, 143.2, 18.0)">)</text></g></svg>