<?xml version="1.0" encoding="UTF-8" standalone="no"?><svg xmlns="http://www.w3.org/2000/svg" xmlns:xlink="http://www.w3.org/1999/xlink" clip-rule="evenodd" stroke-miterlimit="4.00" viewBox="0 0 453 265"><desc>SVG generated by Keynote</desc><defs></defs><g transform="matrix(1.00, 0.00, -0.00, -1.00, 0.0, 265.0)"><path d="M 23.1 237.2 L 429.9 237.2 L 429.9 25.6 L 23.1 25.6 Z M 23.1 237.2 " fill="#FEFFFE"></path><image xlink:href="../../2EE79FA3-69CF-42E7-AF77-947335F3129F/assets/17D7F2F96EEA251BC6D4B1D6323A93C0.png" width="451.00" height="262.00" transform="matrix(1.00, 0.00, -0.00, 1.00, 1.1, 1.6)"></image><g><clipPath id="clip-624"><path d="M 20.6 26.6 L 432.4 26.6 L 432.4 236.2 L 20.6 236.2 Z M 20.6 26.6 "></path></clipPath><g clip-path="url(#clip-624)"><text xml:space="preserve" font-family="Courier" font-size="30.0" fill="#000000" transform="matrix(1.00, 0.00, -0.00, -1.00, 58.0, 175.0)">x</text><text xml:space="preserve" font-family="Courier" font-size="30.0" fill="#000000" transform="matrix(1.00, 0.00, -0.00, -1.00, 76.0, 175.0)"> </text><text xml:space="preserve" font-family="Courier" font-size="30.0" fill="#797979" transform="matrix(1.00, 0.00, -0.00, -1.00, 94.0, 175.0)">=</text><text xml:space="preserve" font-family="Courier" font-size="30.0" fill="#000000" transform="matrix(1.00, 0.00, -0.00, -1.00, 112.0, 175.0)"> </text><text xml:space="preserve" font-family="Courier" font-size="30.0" fill="#797979" transform="matrix(1.00, 0.00, -0.00, -1.00, 130.0, 175.0)">0</text><text xml:space="preserve" font-family="Courier-Bold" font-weight="bold" font-size="30.0" fill="#008E00" transform="matrix(1.00, 0.00, -0.00, -1.00, 58.0, 139.0)">w</text><text xml:space="preserve" font-family="Courier-Bold" font-weight="bold" font-size="30.0" fill="#008E00" transform="matrix(1.00, 0.00, -0.00, -1.00, 76.0, 139.0)">h</text><text xml:space="preserve" font-family="Courier-Bold" font-weight="bold" font-size="30.0" fill="#008E00" transform="matrix(1.00, 0.00, -0.00, -1.00, 94.0, 139.0)">i</text><text xml:space="preserve" font-family="Courier-Bold" font-weight="bold" font-size="30.0" fill="#008E00" transform="matrix(1.00, 0.00, -0.00, -1.00, 112.0, 139.0)">l</text><text xml:space="preserve" font-family="Courier-Bold" font-weight="bold" font-size="30.0" fill="#008E00" transform="matrix(1.00, 0.00, -0.00, -1.00, 130.0, 139.0)">e</text><text xml:space="preserve" font-family="Courier" font-size="30.0" fill="#000000" transform="matrix(1.00, 0.00, -0.00, -1.00, 148.0, 139.0)"> </text><text xml:space="preserve" font-family="Courier" font-size="30.0" fill="#000000" transform="matrix(1.00, 0.00, -0.00, -1.00, 166.0, 139.0)">x</text><text xml:space="preserve" font-family="Courier" font-size="30.0" fill="#000000" transform="matrix(1.00, 0.00, -0.00, -1.00, 184.0, 139.0)"> </text><text xml:space="preserve" font-family="Courier" font-size="30.0" fill="#797979" transform="matrix(1.00, 0.00, -0.00, -1.00, 202.0, 139.0)">&lt;</text><text xml:space="preserve" font-family="Courier" font-size="30.0" fill="#000000" transform="matrix(1.00, 0.00, -0.00, -1.00, 220.0, 139.0)"> </text><text xml:space="preserve" font-family="Courier" font-size="30.0" fill="#797979" transform="matrix(1.00, 0.00, -0.00, -1.00, 238.0, 139.0)">1</text><text xml:space="preserve" font-family="Courier" font-size="30.0" fill="#797979" transform="matrix(1.00, 0.00, -0.00, -1.00, 256.0, 139.0)">0</text><text xml:space="preserve" font-family="Courier" font-size="30.0" fill="#797979" transform="matrix(1.00, 0.00, -0.00, -1.00, 274.0, 139.0)">0</text><text xml:space="preserve" font-family="Courier" font-size="30.0" fill="#000000" transform="matrix(1.00, 0.00, -0.00, -1.00, 292.0, 139.0)">:</text><text xml:space="preserve" font-family="Courier" font-size="30.0" fill="#000000" transform="matrix(1.00, 0.00, -0.00, -1.00, 58.0, 103.0)"> </text><text xml:space="preserve" font-family="Courier" font-size="30.0" fill="#000000" transform="matrix(1.00, 0.00, -0.00, -1.00, 76.0, 103.0)"> </text><text xml:space="preserve" font-family="Courier" font-size="30.0" fill="#000000" transform="matrix(1.00, 0.00, -0.00, -1.00, 94.0, 103.0)"> </text><text xml:space="preserve" font-family="Courier" font-size="30.0" fill="#000000" transform="matrix(1.00, 0.00, -0.00, -1.00, 112.0, 103.0)"> </text><text xml:space="preserve" font-family="Courier-Bold" font-weight="bold" font-size="30.0" fill="#008E00" transform="matrix(1.00, 0.00, -0.00, -1.00, 130.0, 103.0)">p</text><text xml:space="preserve" font-family="Courier-Bold" font-weight="bold" font-size="30.0" fill="#008E00" transform="matrix(1.00, 0.00, -0.00, -1.00, 148.0, 103.0)">r</text><text xml:space="preserve" font-family="Courier-Bold" font-weight="bold" font-size="30.0" fill="#008E00" transform="matrix(1.00, 0.00, -0.00, -1.00, 166.0, 103.0)">i</text><text xml:space="preserve" font-family="Courier-Bold" font-weight="bold" font-size="30.0" fill="#008E00" transform="matrix(1.00, 0.00, -0.00, -1.00, 184.0, 103.0)">n</text><text xml:space="preserve" font-family="Courier-Bold" font-weight="bold" font-size="30.0" fill="#008E00" transform="matrix(1.00, 0.00, -0.00, -1.00, 202.0, 103.0)">t</text><text xml:space="preserve" font-family="Courier" font-size="30.0" fill="#000000" transform="matrix(1.00, 0.00, -0.00, -1.00, 220.0, 103.0)">(</text><text xml:space="preserve" font-family="Courier" font-size="30.0" fill="#000000" transform="matrix(1.00, 0.00, -0.00, -1.00, 238.0, 103.0)">x</text><text xml:space="preserve" font-family="Courier" font-size="30.0" fill="#000000" transform="matrix(1.00, 0.00, -0.00, -1.00, 256.0, 103.0)">)</text><text xml:space="preserve" font-family="Courier" font-size="30.0" fill="#000000" transform="matrix(1.00, 0.00, -0.00, -1.00, 58.0, 67.0)"> </text><text xml:space="preserve" font-family="Courier" font-size="30.0" fill="#000000" transform="matrix(1.00, 0.00, -0.00, -1.00, 76.0, 67.0)"> </text><text xml:space="preserve" font-family="Courier" font-size="30.0" fill="#000000" transform="matrix(1.00, 0.00, -0.00, -1.00, 94.0, 67.0)"> </text><text xml:space="preserve" font-family="Courier" font-size="30.0" fill="#000000" transform="matrix(1.00, 0.00, -0.00, -1.00, 112.0, 67.0)"> </text><text xml:space="preserve" font-family="Courier" font-size="30.0" fill="#000000" transform="matrix(1.00, 0.00, -0.00, -1.00, 130.0, 67.0)">x</text><text xml:space="preserve" font-family="Courier" font-size="30.0" fill="#000000" transform="matrix(1.00, 0.00, -0.00, -1.00, 148.0, 67.0)"> </text><text xml:space="preserve" font-family="Courier" font-size="30.0" fill="#797979" transform="matrix(1.00, 0.00, -0.00, -1.00, 166.0, 67.0)">+</text><text xml:space="preserve" font-family="Courier" font-size="30.0" fill="#797979" transform="matrix(1.00, 0.00, -0.00, -1.00, 184.0, 67.0)">=</text><text xml:space="preserve" font-family="Courier" font-size="30.0" fill="#000000" transform="matrix(1.00, 0.00, -0.00, -1.00, 202.0, 67.0)"> </text><text xml:space="preserve" font-family="Courier" font-size="30.0" fill="#797979" transform="matrix(1.00, 0.00, -0.00, -1.00, 220.0, 67.0)">1</text></g></g></g></svg>