<?xml version="1.0" encoding="UTF-8" standalone="no"?><svg xmlns="http://www.w3.org/2000/svg" xmlns:xlink="http://www.w3.org/1999/xlink" clip-rule="evenodd" stroke-miterlimit="4.00" viewBox="0 0 1024 768"><desc>SVG generated by Keynote</desc><defs></defs><g transform="matrix(1.00, 0.00, -0.00, -1.00, 0.0, 768.0)"><g><clipPath id="clip-110"><path d="M 0.0 768.0 L 1024.0 768.0 L 1024.0 0.0 L 0.0 0.0 Z M 0.0 768.0 "></path></clipPath><g clip-path="url(#clip-110)"><image xlink:href="../../86BB661C-AAFE-46F2-89B5-B98D6D644DD8/assets/DE78B55DDE70D88C6FF874E8D33A46A3.jpeg" width="1024.00" height="768.00" transform="matrix(1.00, 0.00, -0.00, -1.00, 0.0, 768.0)"></image></g></g><image xlink:href="../../86BB661C-AAFE-46F2-89B5-B98D6D644DD8/assets/610DE41026624E3AEF638D24E71EF355.png" width="74.00" height="62.00" transform="matrix(1.00, 0.00, -0.00, -1.00, 949.0, 64.0)"></image><image xlink:href="../../86BB661C-AAFE-46F2-89B5-B98D6D644DD8/assets/C79B4846A618BF06956E5E1178655E37.png" width="40.00" height="40.00" transform="matrix(1.00, 0.00, -0.00, -1.01, 966.2, 53.0)" opacity="0.50"></image><g><clipPath id="clip-111"><path d="M 996.7 43.5 C 1002.5 37.6 1002.5 28.0 996.7 22.0 C 990.9 16.1 981.4 16.1 975.6 22.0 C 969.7 28.0 969.7 37.6 975.6 43.5 C 981.4 49.5 990.9 49.5 996.7 43.5 Z M 996.7 43.5 "></path></clipPath><g clip-path="url(#clip-111)"><image xlink:href="../../86BB661C-AAFE-46F2-89B5-B98D6D644DD8/assets/DE78B55DDE70D88C6FF874E8D33A46A3.jpeg" width="1024.00" height="768.00" transform="matrix(0.04, 0.00, -0.00, -0.04, 965.9, 48.0)"></image></g></g><text xml:space="preserve" font-family="HoboStd" font-size="18.0" fill="#E5CC77" transform="matrix(1.00, 0.00, -0.00, -1.00, 976.0, 26.0)">2</text><text xml:space="preserve" font-family="HoboStd" font-size="18.0" fill="#E5CC77" transform="matrix(1.00, 0.00, -0.00, -1.00, 986.4, 26.0)">2</text><path d="M 17.3 574.6 L 1006.7 574.6 L 1006.7 153.1 L 17.3 153.1 Z M 17.3 574.6 " fill="#FEFFFE"></path><image xlink:href="../../963CEC35-FCE8-4BAB-AC0A-B40CFB0A1C3C/assets/4E705C77D3CF26EDE400D44374334438.png" width="1033.00" height="471.00" transform="matrix(1.00, 0.00, -0.00, 1.00, -4.7, 129.1)"></image><g><clipPath id="clip-112"><path d="M 16.5 154.1 L 1007.5 154.1 L 1007.5 573.6 L 16.5 573.6 Z M 16.5 154.1 "></path></clipPath><g clip-path="url(#clip-112)"><text xml:space="preserve" font-family="Courier-Bold" font-weight="bold" font-size="23.0" fill="#008E00" transform="matrix(1.00, 0.00, -0.00, -1.00, 52.0, 509.0)">w</text><text xml:space="preserve" font-family="Courier-Bold" font-weight="bold" font-size="23.0" fill="#008E00" transform="matrix(1.00, 0.00, -0.00, -1.00, 65.8, 509.0)">i</text><text xml:space="preserve" font-family="Courier-Bold" font-weight="bold" font-size="23.0" fill="#008E00" transform="matrix(1.00, 0.00, -0.00, -1.00, 79.6, 509.0)">t</text><text xml:space="preserve" font-family="Courier-Bold" font-weight="bold" font-size="23.0" fill="#008E00" transform="matrix(1.00, 0.00, -0.00, -1.00, 93.4, 509.0)">h</text><text xml:space="preserve" font-family="Courier" font-size="23.0" fill="#000000" transform="matrix(1.00, 0.00, -0.00, -1.00, 107.2, 509.0)"> </text><text xml:space="preserve" font-family="Courier" font-size="23.0" fill="#008E00" transform="matrix(1.00, 0.00, -0.00, -1.00, 121.0, 509.0)">o</text><text xml:space="preserve" font-family="Courier" font-size="23.0" fill="#008E00" transform="matrix(1.00, 0.00, -0.00, -1.00, 134.8, 509.0)">p</text><text xml:space="preserve" font-family="Courier" font-size="23.0" fill="#008E00" transform="matrix(1.00, 0.00, -0.00, -1.00, 148.6, 509.0)">e</text><text xml:space="preserve" font-family="Courier" font-size="23.0" fill="#008E00" transform="matrix(1.00, 0.00, -0.00, -1.00, 162.4, 509.0)">n</text><text xml:space="preserve" font-family="Courier" font-size="23.0" fill="#000000" transform="matrix(1.00, 0.00, -0.00, -1.00, 176.2, 509.0)">(</text><text xml:space="preserve" font-family="Courier" font-size="23.0" fill="#C8352B" transform="matrix(1.00, 0.00, -0.00, -1.00, 190.0, 509.0)">'</text><text xml:space="preserve" font-family="Courier" font-size="23.0" fill="#C8352B" transform="matrix(1.00, 0.00, -0.00, -1.00, 203.8, 509.0)">a</text><text xml:space="preserve" font-family="Courier" font-size="23.0" fill="#C8352B" transform="matrix(1.00, 0.00, -0.00, -1.00, 217.6, 509.0)">'</text><text xml:space="preserve" font-family="Courier" font-size="23.0" fill="#000000" transform="matrix(1.00, 0.00, -0.00, -1.00, 231.4, 509.0)">,</text><text xml:space="preserve" font-family="Courier" font-size="23.0" fill="#000000" transform="matrix(1.00, 0.00, -0.00, -1.00, 245.2, 509.0)"> </text><text xml:space="preserve" font-family="Courier" font-size="23.0" fill="#C8352B" transform="matrix(1.00, 0.00, -0.00, -1.00, 259.0, 509.0)">'</text><text xml:space="preserve" font-family="Courier" font-size="23.0" fill="#C8352B" transform="matrix(1.00, 0.00, -0.00, -1.00, 272.8, 509.0)">r</text><text xml:space="preserve" font-family="Courier" font-size="23.0" fill="#C8352B" transform="matrix(1.00, 0.00, -0.00, -1.00, 286.6, 509.0)">'</text><text xml:space="preserve" font-family="Courier" font-size="23.0" fill="#000000" transform="matrix(1.00, 0.00, -0.00, -1.00, 300.4, 509.0)">)</text><text xml:space="preserve" font-family="Courier" font-size="23.0" fill="#000000" transform="matrix(1.00, 0.00, -0.00, -1.00, 314.2, 509.0)"> </text><text xml:space="preserve" font-family="Courier-Bold" font-weight="bold" font-size="23.0" fill="#008E00" transform="matrix(1.00, 0.00, -0.00, -1.00, 328.0, 509.0)">a</text><text xml:space="preserve" font-family="Courier-Bold" font-weight="bold" font-size="23.0" fill="#008E00" transform="matrix(1.00, 0.00, -0.00, -1.00, 341.8, 509.0)">s</text><text xml:space="preserve" font-family="Courier" font-size="23.0" fill="#000000" transform="matrix(1.00, 0.00, -0.00, -1.00, 355.6, 509.0)"> </text><text xml:space="preserve" font-family="Courier" font-size="23.0" fill="#000000" transform="matrix(1.00, 0.00, -0.00, -1.00, 369.5, 509.0)">f</text><text xml:space="preserve" font-family="Courier" font-size="23.0" fill="#000000" transform="matrix(1.00, 0.00, -0.00, -1.00, 383.3, 509.0)">_</text><text xml:space="preserve" font-family="Courier" font-size="23.0" fill="#000000" transform="matrix(1.00, 0.00, -0.00, -1.00, 397.1, 509.0)">i</text><text xml:space="preserve" font-family="Courier" font-size="23.0" fill="#000000" transform="matrix(1.00, 0.00, -0.00, -1.00, 410.9, 509.0)">n</text><text xml:space="preserve" font-family="Courier" font-size="23.0" fill="#000000" transform="matrix(1.00, 0.00, -0.00, -1.00, 424.7, 509.0)">p</text><text xml:space="preserve" font-family="Courier" font-size="23.0" fill="#000000" transform="matrix(1.00, 0.00, -0.00, -1.00, 438.5, 509.0)">u</text><text xml:space="preserve" font-family="Courier" font-size="23.0" fill="#000000" transform="matrix(1.00, 0.00, -0.00, -1.00, 452.3, 509.0)">t</text><text xml:space="preserve" font-family="Courier" font-size="23.0" fill="#000000" transform="matrix(1.00, 0.00, -0.00, -1.00, 466.1, 509.0)">,</text><text xml:space="preserve" font-family="Courier" font-size="23.0" fill="#000000" transform="matrix(1.00, 0.00, -0.00, -1.00, 479.9, 509.0)"> </text><text xml:space="preserve" font-family="Courier" font-size="23.0" fill="#008E00" transform="matrix(1.00, 0.00, -0.00, -1.00, 493.7, 509.0)">o</text><text xml:space="preserve" font-family="Courier" font-size="23.0" fill="#008E00" transform="matrix(1.00, 0.00, -0.00, -1.00, 507.5, 509.0)">p</text><text xml:space="preserve" font-family="Courier" font-size="23.0" fill="#008E00" transform="matrix(1.00, 0.00, -0.00, -1.00, 521.3, 509.0)">e</text><text xml:space="preserve" font-family="Courier" font-size="23.0" fill="#008E00" transform="matrix(1.00, 0.00, -0.00, -1.00, 535.1, 509.0)">n</text><text xml:space="preserve" font-family="Courier" font-size="23.0" fill="#000000" transform="matrix(1.00, 0.00, -0.00, -1.00, 548.9, 509.0)">(</text><text xml:space="preserve" font-family="Courier" font-size="23.0" fill="#C8352B" transform="matrix(1.00, 0.00, -0.00, -1.00, 562.7, 509.0)">'</text><text xml:space="preserve" font-family="Courier" font-size="23.0" fill="#C8352B" transform="matrix(1.00, 0.00, -0.00, -1.00, 576.5, 509.0)">b</text><text xml:space="preserve" font-family="Courier" font-size="23.0" fill="#C8352B" transform="matrix(1.00, 0.00, -0.00, -1.00, 590.3, 509.0)">'</text><text xml:space="preserve" font-family="Courier" font-size="23.0" fill="#000000" transform="matrix(1.00, 0.00, -0.00, -1.00, 604.1, 509.0)">,</text><text xml:space="preserve" font-family="Courier" font-size="23.0" fill="#000000" transform="matrix(1.00, 0.00, -0.00, -1.00, 617.9, 509.0)"> </text><text xml:space="preserve" font-family="Courier" font-size="23.0" fill="#C8352B" transform="matrix(1.00, 0.00, -0.00, -1.00, 631.7, 509.0)">'</text><text xml:space="preserve" font-family="Courier" font-size="23.0" fill="#C8352B" transform="matrix(1.00, 0.00, -0.00, -1.00, 645.5, 509.0)">w</text><text xml:space="preserve" font-family="Courier" font-size="23.0" fill="#C8352B" transform="matrix(1.00, 0.00, -0.00, -1.00, 659.3, 509.0)">'</text><text xml:space="preserve" font-family="Courier" font-size="23.0" fill="#000000" transform="matrix(1.00, 0.00, -0.00, -1.00, 673.1, 509.0)">)</text><text xml:space="preserve" font-family="Courier" font-size="23.0" fill="#000000" transform="matrix(1.00, 0.00, -0.00, -1.00, 686.9, 509.0)"> </text><text xml:space="preserve" font-family="Courier-Bold" font-weight="bold" font-size="23.0" fill="#008E00" transform="matrix(1.00, 0.00, -0.00, -1.00, 700.7, 509.0)">a</text><text xml:space="preserve" font-family="Courier-Bold" font-weight="bold" font-size="23.0" fill="#008E00" transform="matrix(1.00, 0.00, -0.00, -1.00, 714.5, 509.0)">s</text><text xml:space="preserve" font-family="Courier" font-size="23.0" fill="#000000" transform="matrix(1.00, 0.00, -0.00, -1.00, 728.3, 509.0)"> </text><text xml:space="preserve" font-family="Courier" font-size="23.0" fill="#000000" transform="matrix(1.00, 0.00, -0.00, -1.00, 742.1, 509.0)">f</text><text xml:space="preserve" font-family="Courier" font-size="23.0" fill="#000000" transform="matrix(1.00, 0.00, -0.00, -1.00, 755.9, 509.0)">_</text><text xml:space="preserve" font-family="Courier" font-size="23.0" fill="#000000" transform="matrix(1.00, 0.00, -0.00, -1.00, 769.7, 509.0)">o</text><text xml:space="preserve" font-family="Courier" font-size="23.0" fill="#000000" transform="matrix(1.00, 0.00, -0.00, -1.00, 783.5, 509.0)">u</text><text xml:space="preserve" font-family="Courier" font-size="23.0" fill="#000000" transform="matrix(1.00, 0.00, -0.00, -1.00, 797.3, 509.0)">t</text><text xml:space="preserve" font-family="Courier" font-size="23.0" fill="#000000" transform="matrix(1.00, 0.00, -0.00, -1.00, 811.1, 509.0)">p</text><text xml:space="preserve" font-family="Courier" font-size="23.0" fill="#000000" transform="matrix(1.00, 0.00, -0.00, -1.00, 824.9, 509.0)">u</text><text xml:space="preserve" font-family="Courier" font-size="23.0" fill="#000000" transform="matrix(1.00, 0.00, -0.00, -1.00, 838.7, 509.0)">t</text><text xml:space="preserve" font-family="Courier" font-size="23.0" fill="#000000" transform="matrix(1.00, 0.00, -0.00, -1.00, 852.5, 509.0)">:</text><text xml:space="preserve" font-family="Courier" font-size="23.0" fill="#000000" transform="matrix(1.00, 0.00, -0.00, -1.00, 52.0, 453.0)"> </text><text xml:space="preserve" font-family="Courier" font-size="23.0" fill="#000000" transform="matrix(1.00, 0.00, -0.00, -1.00, 65.8, 453.0)"> </text><text xml:space="preserve" font-family="Courier" font-size="23.0" fill="#000000" transform="matrix(1.00, 0.00, -0.00, -1.00, 79.6, 453.0)"> </text><text xml:space="preserve" font-family="Courier" font-size="23.0" fill="#000000" transform="matrix(1.00, 0.00, -0.00, -1.00, 93.4, 453.0)"> </text><text xml:space="preserve" font-family="Courier" font-size="23.0" fill="#000000" transform="matrix(1.00, 0.00, -0.00, -1.00, 107.2, 453.0)">f</text><text xml:space="preserve" font-family="Courier" font-size="23.0" fill="#000000" transform="matrix(1.00, 0.00, -0.00, -1.00, 121.0, 453.0)">_</text><text xml:space="preserve" font-family="Courier" font-size="23.0" fill="#000000" transform="matrix(1.00, 0.00, -0.00, -1.00, 134.8, 453.0)">o</text><text xml:space="preserve" font-family="Courier" font-size="23.0" fill="#000000" transform="matrix(1.00, 0.00, -0.00, -1.00, 148.6, 453.0)">u</text><text xml:space="preserve" font-family="Courier" font-size="23.0" fill="#000000" transform="matrix(1.00, 0.00, -0.00, -1.00, 162.4, 453.0)">t</text><text xml:space="preserve" font-family="Courier" font-size="23.0" fill="#000000" transform="matrix(1.00, 0.00, -0.00, -1.00, 176.2, 453.0)">p</text><text xml:space="preserve" font-family="Courier" font-size="23.0" fill="#000000" transform="matrix(1.00, 0.00, -0.00, -1.00, 190.0, 453.0)">u</text><text xml:space="preserve" font-family="Courier" font-size="23.0" fill="#000000" transform="matrix(1.00, 0.00, -0.00, -1.00, 203.9, 453.0)">t</text><text xml:space="preserve" font-family="Courier" font-size="23.0" fill="#797979" transform="matrix(1.00, 0.00, -0.00, -1.00, 217.6, 453.0)">.</text><text xml:space="preserve" font-family="Courier" font-size="23.0" fill="#000000" transform="matrix(1.00, 0.00, -0.00, -1.00, 231.4, 453.0)">w</text><text xml:space="preserve" font-family="Courier" font-size="23.0" fill="#000000" transform="matrix(1.00, 0.00, -0.00, -1.00, 245.2, 453.0)">r</text><text xml:space="preserve" font-family="Courier" font-size="23.0" fill="#000000" transform="matrix(1.00, 0.00, -0.00, -1.00, 259.0, 453.0)">i</text><text xml:space="preserve" font-family="Courier" font-size="23.0" fill="#000000" transform="matrix(1.00, 0.00, -0.00, -1.00, 272.8, 453.0)">t</text><text xml:space="preserve" font-family="Courier" font-size="23.0" fill="#000000" transform="matrix(1.00, 0.00, -0.00, -1.00, 286.6, 453.0)">e</text><text xml:space="preserve" font-family="Courier" font-size="23.0" fill="#000000" transform="matrix(1.00, 0.00, -0.00, -1.00, 300.5, 453.0)">(</text><text xml:space="preserve" font-family="Courier" font-size="23.0" fill="#C8352B" transform="matrix(1.00, 0.00, -0.00, -1.00, 314.2, 453.0)">'</text><text xml:space="preserve" font-family="Courier" font-size="23.0" fill="#C8352B" transform="matrix(1.00, 0.00, -0.00, -1.00, 328.0, 453.0)">#</text><text xml:space="preserve" font-family="Courier" font-size="23.0" fill="#C8352B" transform="matrix(1.00, 0.00, -0.00, -1.00, 341.9, 453.0)"> </text><text xml:space="preserve" font-family="Courier" font-size="23.0" fill="#C8352B" transform="matrix(1.00, 0.00, -0.00, -1.00, 355.7, 453.0)">F</text><text xml:space="preserve" font-family="Courier" font-size="23.0" fill="#C8352B" transform="matrix(1.00, 0.00, -0.00, -1.00, 369.5, 453.0)">O</text><text xml:space="preserve" font-family="Courier" font-size="23.0" fill="#C8352B" transform="matrix(1.00, 0.00, -0.00, -1.00, 383.3, 453.0)">R</text><text xml:space="preserve" font-family="Courier" font-size="23.0" fill="#C8352B" transform="matrix(1.00, 0.00, -0.00, -1.00, 397.1, 453.0)">M</text><text xml:space="preserve" font-family="Courier" font-size="23.0" fill="#C8352B" transform="matrix(1.00, 0.00, -0.00, -1.00, 410.9, 453.0)">A</text><text xml:space="preserve" font-family="Courier" font-size="23.0" fill="#C8352B" transform="matrix(1.00, 0.00, -0.00, -1.00, 424.7, 453.0)">T</text><text xml:space="preserve" font-family="Courier" font-size="23.0" fill="#C8352B" transform="matrix(1.00, 0.00, -0.00, -1.00, 438.5, 453.0)">:</text><text xml:space="preserve" font-family="Courier-Bold" font-weight="bold" font-size="23.0" fill="#C8792C" transform="matrix(1.00, 0.00, -0.00, -1.00, 452.3, 453.0)">\</text><text xml:space="preserve" font-family="Courier-Bold" font-weight="bold" font-size="23.0" fill="#C8792C" transform="matrix(1.00, 0.00, -0.00, -1.00, 466.1, 453.0)">n</text><text xml:space="preserve" font-family="Courier" font-size="23.0" fill="#C8352B" transform="matrix(1.00, 0.00, -0.00, -1.00, 479.9, 453.0)">'</text><text xml:space="preserve" font-family="Courier" font-size="23.0" fill="#000000" transform="matrix(1.00, 0.00, -0.00, -1.00, 493.7, 453.0)">)</text><text xml:space="preserve" font-family="Courier" font-size="23.0" fill="#000000" transform="matrix(1.00, 0.00, -0.00, -1.00, 52.0, 425.0)"> </text><text xml:space="preserve" font-family="Courier" font-size="23.0" fill="#000000" transform="matrix(1.00, 0.00, -0.00, -1.00, 65.8, 425.0)"> </text><text xml:space="preserve" font-family="Courier" font-size="23.0" fill="#000000" transform="matrix(1.00, 0.00, -0.00, -1.00, 79.6, 425.0)"> </text><text xml:space="preserve" font-family="Courier" font-size="23.0" fill="#000000" transform="matrix(1.00, 0.00, -0.00, -1.00, 93.4, 425.0)"> </text><text xml:space="preserve" font-family="Courier" font-size="23.0" fill="#000000" transform="matrix(1.00, 0.00, -0.00, -1.00, 107.2, 425.0)">f</text><text xml:space="preserve" font-family="Courier" font-size="23.0" fill="#000000" transform="matrix(1.00, 0.00, -0.00, -1.00, 121.0, 425.0)">_</text><text xml:space="preserve" font-family="Courier" font-size="23.0" fill="#000000" transform="matrix(1.00, 0.00, -0.00, -1.00, 134.8, 425.0)">o</text><text xml:space="preserve" font-family="Courier" font-size="23.0" fill="#000000" transform="matrix(1.00, 0.00, -0.00, -1.00, 148.6, 425.0)">u</text><text xml:space="preserve" font-family="Courier" font-size="23.0" fill="#000000" transform="matrix(1.00, 0.00, -0.00, -1.00, 162.4, 425.0)">t</text><text xml:space="preserve" font-family="Courier" font-size="23.0" fill="#000000" transform="matrix(1.00, 0.00, -0.00, -1.00, 176.2, 425.0)">p</text><text xml:space="preserve" font-family="Courier" font-size="23.0" fill="#000000" transform="matrix(1.00, 0.00, -0.00, -1.00, 190.0, 425.0)">u</text><text xml:space="preserve" font-family="Courier" font-size="23.0" fill="#000000" transform="matrix(1.00, 0.00, -0.00, -1.00, 203.9, 425.0)">t</text><text xml:space="preserve" font-family="Courier" font-size="23.0" fill="#797979" transform="matrix(1.00, 0.00, -0.00, -1.00, 217.6, 425.0)">.</text><text xml:space="preserve" font-family="Courier" font-size="23.0" fill="#000000" transform="matrix(1.00, 0.00, -0.00, -1.00, 231.4, 425.0)">w</text><text xml:space="preserve" font-family="Courier" font-size="23.0" fill="#000000" transform="matrix(1.00, 0.00, -0.00, -1.00, 245.2, 425.0)">r</text><text xml:space="preserve" font-family="Courier" font-size="23.0" fill="#000000" transform="matrix(1.00, 0.00, -0.00, -1.00, 259.0, 425.0)">i</text><text xml:space="preserve" font-family="Courier" font-size="23.0" fill="#000000" transform="matrix(1.00, 0.00, -0.00, -1.00, 272.8, 425.0)">t</text><text xml:space="preserve" font-family="Courier" font-size="23.0" fill="#000000" transform="matrix(1.00, 0.00, -0.00, -1.00, 286.6, 425.0)">e</text><text xml:space="preserve" font-family="Courier" font-size="23.0" fill="#000000" transform="matrix(1.00, 0.00, -0.00, -1.00, 300.5, 425.0)">(</text><text xml:space="preserve" font-family="Courier" font-size="23.0" fill="#C8352B" transform="matrix(1.00, 0.00, -0.00, -1.00, 314.2, 425.0)">'</text><text xml:space="preserve" font-family="Courier" font-size="23.0" fill="#C8352B" transform="matrix(1.00, 0.00, -0.00, -1.00, 328.0, 425.0)">#</text><text xml:space="preserve" font-family="Courier" font-size="23.0" fill="#C8352B" transform="matrix(1.00, 0.00, -0.00, -1.00, 341.9, 425.0)"> </text><text xml:space="preserve" font-family="Courier" font-size="23.0" fill="#C8352B" transform="matrix(1.00, 0.00, -0.00, -1.00, 355.7, 425.0)">&gt;</text><text xml:space="preserve" font-family="Courier" font-size="23.0" fill="#C8352B" transform="matrix(1.00, 0.00, -0.00, -1.00, 369.5, 425.0)"> </text><text xml:space="preserve" font-family="Courier" font-size="23.0" fill="#C8352B" transform="matrix(1.00, 0.00, -0.00, -1.00, 383.3, 425.0)">C</text><text xml:space="preserve" font-family="Courier" font-size="23.0" fill="#C8352B" transform="matrix(1.00, 0.00, -0.00, -1.00, 397.1, 425.0)">A</text><text xml:space="preserve" font-family="Courier" font-size="23.0" fill="#C8352B" transform="matrix(1.00, 0.00, -0.00, -1.00, 410.9, 425.0)">T</text><text xml:space="preserve" font-family="Courier" font-size="23.0" fill="#C8352B" transform="matrix(1.00, 0.00, -0.00, -1.00, 424.7, 425.0)">E</text><text xml:space="preserve" font-family="Courier" font-size="23.0" fill="#C8352B" transform="matrix(1.00, 0.00, -0.00, -1.00, 438.5, 425.0)">G</text><text xml:space="preserve" font-family="Courier" font-size="23.0" fill="#C8352B" transform="matrix(1.00, 0.00, -0.00, -1.00, 452.3, 425.0)">O</text><text xml:space="preserve" font-family="Courier" font-size="23.0" fill="#C8352B" transform="matrix(1.00, 0.00, -0.00, -1.00, 466.1, 425.0)">R</text><text xml:space="preserve" font-family="Courier" font-size="23.0" fill="#C8352B" transform="matrix(1.00, 0.00, -0.00, -1.00, 479.9, 425.0)">Y</text><text xml:space="preserve" font-family="Courier-Bold" font-weight="bold" font-size="23.0" fill="#C8792C" transform="matrix(1.00, 0.00, -0.00, -1.00, 493.7, 425.0)">\</text><text xml:space="preserve" font-family="Courier-Bold" font-weight="bold" font-size="23.0" fill="#C8792C" transform="matrix(1.00, 0.00, -0.00, -1.00, 507.5, 425.0)">n</text><text xml:space="preserve" font-family="Courier" font-size="23.0" fill="#C8352B" transform="matrix(1.00, 0.00, -0.00, -1.00, 521.3, 425.0)">'</text><text xml:space="preserve" font-family="Courier" font-size="23.0" fill="#000000" transform="matrix(1.00, 0.00, -0.00, -1.00, 535.1, 425.0)">)</text><text xml:space="preserve" font-family="Courier" font-size="23.0" fill="#000000" transform="matrix(1.00, 0.00, -0.00, -1.00, 52.0, 397.0)"> </text><text xml:space="preserve" font-family="Courier" font-size="23.0" fill="#000000" transform="matrix(1.00, 0.00, -0.00, -1.00, 65.8, 397.0)"> </text><text xml:space="preserve" font-family="Courier" font-size="23.0" fill="#000000" transform="matrix(1.00, 0.00, -0.00, -1.00, 79.6, 397.0)"> </text><text xml:space="preserve" font-family="Courier" font-size="23.0" fill="#000000" transform="matrix(1.00, 0.00, -0.00, -1.00, 93.4, 397.0)"> </text><text xml:space="preserve" font-family="Courier" font-size="23.0" fill="#000000" transform="matrix(1.00, 0.00, -0.00, -1.00, 107.2, 397.0)">f</text><text xml:space="preserve" font-family="Courier" font-size="23.0" fill="#000000" transform="matrix(1.00, 0.00, -0.00, -1.00, 121.0, 397.0)">_</text><text xml:space="preserve" font-family="Courier" font-size="23.0" fill="#000000" transform="matrix(1.00, 0.00, -0.00, -1.00, 134.8, 397.0)">o</text><text xml:space="preserve" font-family="Courier" font-size="23.0" fill="#000000" transform="matrix(1.00, 0.00, -0.00, -1.00, 148.6, 397.0)">u</text><text xml:space="preserve" font-family="Courier" font-size="23.0" fill="#000000" transform="matrix(1.00, 0.00, -0.00, -1.00, 162.4, 397.0)">t</text><text xml:space="preserve" font-family="Courier" font-size="23.0" fill="#000000" transform="matrix(1.00, 0.00, -0.00, -1.00, 176.2, 397.0)">p</text><text xml:space="preserve" font-family="Courier" font-size="23.0" fill="#000000" transform="matrix(1.00, 0.00, -0.00, -1.00, 190.0, 397.0)">u</text><text xml:space="preserve" font-family="Courier" font-size="23.0" fill="#000000" transform="matrix(1.00, 0.00, -0.00, -1.00, 203.9, 397.0)">t</text><text xml:space="preserve" font-family="Courier" font-size="23.0" fill="#797979" transform="matrix(1.00, 0.00, -0.00, -1.00, 217.6, 397.0)">.</text><text xml:space="preserve" font-family="Courier" font-size="23.0" fill="#000000" transform="matrix(1.00, 0.00, -0.00, -1.00, 231.4, 397.0)">w</text><text xml:space="preserve" font-family="Courier" font-size="23.0" fill="#000000" transform="matrix(1.00, 0.00, -0.00, -1.00, 245.2, 397.0)">r</text><text xml:space="preserve" font-family="Courier" font-size="23.0" fill="#000000" transform="matrix(1.00, 0.00, -0.00, -1.00, 259.0, 397.0)">i</text><text xml:space="preserve" font-family="Courier" font-size="23.0" fill="#000000" transform="matrix(1.00, 0.00, -0.00, -1.00, 272.8, 397.0)">t</text><text xml:space="preserve" font-family="Courier" font-size="23.0" fill="#000000" transform="matrix(1.00, 0.00, -0.00, -1.00, 286.6, 397.0)">e</text><text xml:space="preserve" font-family="Courier" font-size="23.0" fill="#000000" transform="matrix(1.00, 0.00, -0.00, -1.00, 300.5, 397.0)">(</text><text xml:space="preserve" font-family="Courier" font-size="23.0" fill="#C8352B" transform="matrix(1.00, 0.00, -0.00, -1.00, 314.2, 397.0)">'</text><text xml:space="preserve" font-family="Courier" font-size="23.0" fill="#C8352B" transform="matrix(1.00, 0.00, -0.00, -1.00, 328.0, 397.0)">#</text><text xml:space="preserve" font-family="Courier" font-size="23.0" fill="#C8352B" transform="matrix(1.00, 0.00, -0.00, -1.00, 341.9, 397.0)"> </text><text xml:space="preserve" font-family="Courier" font-size="23.0" fill="#C8352B" transform="matrix(1.00, 0.00, -0.00, -1.00, 355.7, 397.0)">M</text><text xml:space="preserve" font-family="Courier" font-size="23.0" fill="#C8352B" transform="matrix(1.00, 0.00, -0.00, -1.00, 369.5, 397.0)">o</text><text xml:space="preserve" font-family="Courier" font-size="23.0" fill="#C8352B" transform="matrix(1.00, 0.00, -0.00, -1.00, 383.3, 397.0)">v</text><text xml:space="preserve" font-family="Courier" font-size="23.0" fill="#C8352B" transform="matrix(1.00, 0.00, -0.00, -1.00, 397.1, 397.0)">i</text><text xml:space="preserve" font-family="Courier" font-size="23.0" fill="#C8352B" transform="matrix(1.00, 0.00, -0.00, -1.00, 410.9, 397.0)">e</text><text xml:space="preserve" font-family="Courier" font-size="23.0" fill="#C8352B" transform="matrix(1.00, 0.00, -0.00, -1.00, 424.7, 397.0)">:</text><text xml:space="preserve" font-family="Courier" font-size="23.0" fill="#C8352B" transform="matrix(1.00, 0.00, -0.00, -1.00, 438.5, 397.0)"> </text><text xml:space="preserve" font-family="Courier" font-size="23.0" fill="#C8352B" transform="matrix(1.00, 0.00, -0.00, -1.00, 452.3, 397.0)">R</text><text xml:space="preserve" font-family="Courier" font-size="23.0" fill="#C8352B" transform="matrix(1.00, 0.00, -0.00, -1.00, 466.1, 397.0)">a</text><text xml:space="preserve" font-family="Courier" font-size="23.0" fill="#C8352B" transform="matrix(1.00, 0.00, -0.00, -1.00, 479.9, 397.0)">t</text><text xml:space="preserve" font-family="Courier" font-size="23.0" fill="#C8352B" transform="matrix(1.00, 0.00, -0.00, -1.00, 493.7, 397.0)">i</text><text xml:space="preserve" font-family="Courier" font-size="23.0" fill="#C8352B" transform="matrix(1.00, 0.00, -0.00, -1.00, 507.5, 397.0)">n</text><text xml:space="preserve" font-family="Courier" font-size="23.0" fill="#C8352B" transform="matrix(1.00, 0.00, -0.00, -1.00, 521.3, 397.0)">g</text><text xml:space="preserve" font-family="Courier" font-size="23.0" fill="#C8352B" transform="matrix(1.00, 0.00, -0.00, -1.00, 535.1, 397.0)"> </text><text xml:space="preserve" font-family="Courier-Bold" font-weight="bold" font-size="23.0" fill="#C8792C" transform="matrix(1.00, 0.00, -0.00, -1.00, 548.9, 397.0)">\</text><text xml:space="preserve" font-family="Courier-Bold" font-weight="bold" font-size="23.0" fill="#C8792C" transform="matrix(1.00, 0.00, -0.00, -1.00, 562.7, 397.0)">t</text><text xml:space="preserve" font-family="Courier" font-size="23.0" fill="#C8352B" transform="matrix(1.00, 0.00, -0.00, -1.00, 576.5, 397.0)"> </text><text xml:space="preserve" font-family="Courier" font-size="23.0" fill="#C8352B" transform="matrix(1.00, 0.00, -0.00, -1.00, 590.3, 397.0)">N</text><text xml:space="preserve" font-family="Courier" font-size="23.0" fill="#C8352B" transform="matrix(1.00, 0.00, -0.00, -1.00, 604.1, 397.0)">a</text><text xml:space="preserve" font-family="Courier" font-size="23.0" fill="#C8352B" transform="matrix(1.00, 0.00, -0.00, -1.00, 617.9, 397.0)">m</text><text xml:space="preserve" font-family="Courier" font-size="23.0" fill="#C8352B" transform="matrix(1.00, 0.00, -0.00, -1.00, 631.7, 397.0)">e</text><text xml:space="preserve" font-family="Courier" font-size="23.0" fill="#C8352B" transform="matrix(1.00, 0.00, -0.00, -1.00, 645.5, 397.0)"> </text><text xml:space="preserve" font-family="Courier" font-size="23.0" fill="#C8352B" transform="matrix(1.00, 0.00, -0.00, -1.00, 659.3, 397.0)">(</text><text xml:space="preserve" font-family="Courier" font-size="23.0" fill="#C8352B" transform="matrix(1.00, 0.00, -0.00, -1.00, 673.1, 397.0)">Y</text><text xml:space="preserve" font-family="Courier" font-size="23.0" fill="#C8352B" transform="matrix(1.00, 0.00, -0.00, -1.00, 686.9, 397.0)">e</text><text xml:space="preserve" font-family="Courier" font-size="23.0" fill="#C8352B" transform="matrix(1.00, 0.00, -0.00, -1.00, 700.7, 397.0)">a</text><text xml:space="preserve" font-family="Courier" font-size="23.0" fill="#C8352B" transform="matrix(1.00, 0.00, -0.00, -1.00, 714.5, 397.0)">r</text><text xml:space="preserve" font-family="Courier" font-size="23.0" fill="#C8352B" transform="matrix(1.00, 0.00, -0.00, -1.00, 728.3, 397.0)">)</text><text xml:space="preserve" font-family="Courier-Bold" font-weight="bold" font-size="23.0" fill="#C8792C" transform="matrix(1.00, 0.00, -0.00, -1.00, 742.1, 397.0)">\</text><text xml:space="preserve" font-family="Courier-Bold" font-weight="bold" font-size="23.0" fill="#C8792C" transform="matrix(1.00, 0.00, -0.00, -1.00, 755.9, 397.0)">n</text><text xml:space="preserve" font-family="Courier" font-size="23.0" fill="#C8352B" transform="matrix(1.00, 0.00, -0.00, -1.00, 769.7, 397.0)">'</text><text xml:space="preserve" font-family="Courier" font-size="23.0" fill="#000000" transform="matrix(1.00, 0.00, -0.00, -1.00, 783.5, 397.0)">)</text><text xml:space="preserve" font-family="Courier" font-size="23.0" fill="#000000" transform="matrix(1.00, 0.00, -0.00, -1.00, 52.0, 313.0)"> </text><text xml:space="preserve" font-family="Courier" font-size="23.0" fill="#000000" transform="matrix(1.00, 0.00, -0.00, -1.00, 65.8, 313.0)"> </text><text xml:space="preserve" font-family="Courier" font-size="23.0" fill="#000000" transform="matrix(1.00, 0.00, -0.00, -1.00, 79.6, 313.0)"> </text><text xml:space="preserve" font-family="Courier" font-size="23.0" fill="#000000" transform="matrix(1.00, 0.00, -0.00, -1.00, 93.4, 313.0)"> </text><text xml:space="preserve" font-family="Courier-Bold" font-weight="bold" font-size="23.0" fill="#008E00" transform="matrix(1.00, 0.00, -0.00, -1.00, 107.2, 313.0)">f</text><text xml:space="preserve" font-family="Courier-Bold" font-weight="bold" font-size="23.0" fill="#008E00" transform="matrix(1.00, 0.00, -0.00, -1.00, 121.0, 313.0)">o</text><text xml:space="preserve" font-family="Courier-Bold" font-weight="bold" font-size="23.0" fill="#008E00" transform="matrix(1.00, 0.00, -0.00, -1.00, 134.8, 313.0)">r</text><text xml:space="preserve" font-family="Courier" font-size="23.0" fill="#000000" transform="matrix(1.00, 0.00, -0.00, -1.00, 148.6, 313.0)"> </text><text xml:space="preserve" font-family="Courier" font-size="23.0" fill="#000000" transform="matrix(1.00, 0.00, -0.00, -1.00, 162.4, 313.0)">l</text><text xml:space="preserve" font-family="Courier" font-size="23.0" fill="#000000" transform="matrix(1.00, 0.00, -0.00, -1.00, 176.2, 313.0)">i</text><text xml:space="preserve" font-family="Courier" font-size="23.0" fill="#000000" transform="matrix(1.00, 0.00, -0.00, -1.00, 190.0, 313.0)">n</text><text xml:space="preserve" font-family="Courier" font-size="23.0" fill="#000000" transform="matrix(1.00, 0.00, -0.00, -1.00, 203.8, 313.0)">e</text><text xml:space="preserve" font-family="Courier" font-size="23.0" fill="#000000" transform="matrix(1.00, 0.00, -0.00, -1.00, 217.6, 313.0)"> </text><text xml:space="preserve" font-family="Courier-Bold" font-weight="bold" font-size="23.0" fill="#BA49FF" transform="matrix(1.00, 0.00, -0.00, -1.00, 231.4, 313.0)">i</text><text xml:space="preserve" font-family="Courier-Bold" font-weight="bold" font-size="23.0" fill="#BA49FF" transform="matrix(1.00, 0.00, -0.00, -1.00, 245.2, 313.0)">n</text><text xml:space="preserve" font-family="Courier" font-size="23.0" fill="#000000" transform="matrix(1.00, 0.00, -0.00, -1.00, 259.0, 313.0)"> </text><text xml:space="preserve" font-family="Courier" font-size="23.0" fill="#000000" transform="matrix(1.00, 0.00, -0.00, -1.00, 272.8, 313.0)">f</text><text xml:space="preserve" font-family="Courier" font-size="23.0" fill="#000000" transform="matrix(1.00, 0.00, -0.00, -1.00, 286.6, 313.0)">_</text><text xml:space="preserve" font-family="Courier" font-size="23.0" fill="#000000" transform="matrix(1.00, 0.00, -0.00, -1.00, 300.4, 313.0)">i</text><text xml:space="preserve" font-family="Courier" font-size="23.0" fill="#000000" transform="matrix(1.00, 0.00, -0.00, -1.00, 314.3, 313.0)">n</text><text xml:space="preserve" font-family="Courier" font-size="23.0" fill="#000000" transform="matrix(1.00, 0.00, -0.00, -1.00, 328.1, 313.0)">p</text><text xml:space="preserve" font-family="Courier" font-size="23.0" fill="#000000" transform="matrix(1.00, 0.00, -0.00, -1.00, 341.9, 313.0)">u</text><text xml:space="preserve" font-family="Courier" font-size="23.0" fill="#000000" transform="matrix(1.00, 0.00, -0.00, -1.00, 355.7, 313.0)">t</text><text xml:space="preserve" font-family="Courier" font-size="23.0" fill="#000000" transform="matrix(1.00, 0.00, -0.00, -1.00, 369.5, 313.0)">:</text><text xml:space="preserve" font-family="Courier" font-size="23.0" fill="#000000" transform="matrix(1.00, 0.00, -0.00, -1.00, 52.0, 285.0)"> </text><text xml:space="preserve" font-family="Courier" font-size="23.0" fill="#000000" transform="matrix(1.00, 0.00, -0.00, -1.00, 65.8, 285.0)"> </text><text xml:space="preserve" font-family="Courier" font-size="23.0" fill="#000000" transform="matrix(1.00, 0.00, -0.00, -1.00, 79.6, 285.0)"> </text><text xml:space="preserve" font-family="Courier" font-size="23.0" fill="#000000" transform="matrix(1.00, 0.00, -0.00, -1.00, 93.4, 285.0)"> </text><text xml:space="preserve" font-family="Courier" font-size="23.0" fill="#000000" transform="matrix(1.00, 0.00, -0.00, -1.00, 107.2, 285.0)"> </text><text xml:space="preserve" font-family="Courier" font-size="23.0" fill="#000000" transform="matrix(1.00, 0.00, -0.00, -1.00, 121.0, 285.0)"> </text><text xml:space="preserve" font-family="Courier" font-size="23.0" fill="#000000" transform="matrix(1.00, 0.00, -0.00, -1.00, 134.8, 285.0)"> </text><text xml:space="preserve" font-family="Courier" font-size="23.0" fill="#000000" transform="matrix(1.00, 0.00, -0.00, -1.00, 148.6, 285.0)"> </text><text xml:space="preserve" font-family="Courier-Bold" font-weight="bold" font-size="23.0" fill="#008E00" transform="matrix(1.00, 0.00, -0.00, -1.00, 162.4, 285.0)">i</text><text xml:space="preserve" font-family="Courier-Bold" font-weight="bold" font-size="23.0" fill="#008E00" transform="matrix(1.00, 0.00, -0.00, -1.00, 176.2, 285.0)">f</text><text xml:space="preserve" font-family="Courier" font-size="23.0" fill="#000000" transform="matrix(1.00, 0.00, -0.00, -1.00, 190.0, 285.0)"> </text><text xml:space="preserve" font-family="Courier" font-size="23.0" fill="#000000" transform="matrix(1.00, 0.00, -0.00, -1.00, 203.8, 285.0)">l</text><text xml:space="preserve" font-family="Courier" font-size="23.0" fill="#000000" transform="matrix(1.00, 0.00, -0.00, -1.00, 217.6, 285.0)">i</text><text xml:space="preserve" font-family="Courier" font-size="23.0" fill="#000000" transform="matrix(1.00, 0.00, -0.00, -1.00, 231.4, 285.0)">n</text><text xml:space="preserve" font-family="Courier" font-size="23.0" fill="#000000" transform="matrix(1.00, 0.00, -0.00, -1.00, 245.2, 285.0)">e</text><text xml:space="preserve" font-family="Courier" font-size="23.0" fill="#797979" transform="matrix(1.00, 0.00, -0.00, -1.00, 259.0, 285.0)">.</text><text xml:space="preserve" font-family="Courier" font-size="23.0" fill="#000000" transform="matrix(1.00, 0.00, -0.00, -1.00, 272.8, 285.0)">s</text><text xml:space="preserve" font-family="Courier" font-size="23.0" fill="#000000" transform="matrix(1.00, 0.00, -0.00, -1.00, 286.6, 285.0)">t</text><text xml:space="preserve" font-family="Courier" font-size="23.0" fill="#000000" transform="matrix(1.00, 0.00, -0.00, -1.00, 300.4, 285.0)">a</text><text xml:space="preserve" font-family="Courier" font-size="23.0" fill="#000000" transform="matrix(1.00, 0.00, -0.00, -1.00, 314.2, 285.0)">r</text><text xml:space="preserve" font-family="Courier" font-size="23.0" fill="#000000" transform="matrix(1.00, 0.00, -0.00, -1.00, 328.1, 285.0)">t</text><text xml:space="preserve" font-family="Courier" font-size="23.0" fill="#000000" transform="matrix(1.00, 0.00, -0.00, -1.00, 341.9, 285.0)">s</text><text xml:space="preserve" font-family="Courier" font-size="23.0" fill="#000000" transform="matrix(1.00, 0.00, -0.00, -1.00, 355.7, 285.0)">w</text><text xml:space="preserve" font-family="Courier" font-size="23.0" fill="#000000" transform="matrix(1.00, 0.00, -0.00, -1.00, 369.5, 285.0)">i</text><text xml:space="preserve" font-family="Courier" font-size="23.0" fill="#000000" transform="matrix(1.00, 0.00, -0.00, -1.00, 383.3, 285.0)">t</text><text xml:space="preserve" font-family="Courier" font-size="23.0" fill="#000000" transform="matrix(1.00, 0.00, -0.00, -1.00, 397.1, 285.0)">h</text><text xml:space="preserve" font-family="Courier" font-size="23.0" fill="#000000" transform="matrix(1.00, 0.00, -0.00, -1.00, 410.9, 285.0)">(</text><text xml:space="preserve" font-family="Courier" font-size="23.0" fill="#C8352B" transform="matrix(1.00, 0.00, -0.00, -1.00, 424.7, 285.0)">'</text><text xml:space="preserve" font-family="Courier" font-size="23.0" fill="#C8352B" transform="matrix(1.00, 0.00, -0.00, -1.00, 438.5, 285.0)">#</text><text xml:space="preserve" font-family="Courier" font-size="23.0" fill="#C8352B" transform="matrix(1.00, 0.00, -0.00, -1.00, 452.3, 285.0)">'</text><text xml:space="preserve" font-family="Courier" font-size="23.0" fill="#000000" transform="matrix(1.00, 0.00, -0.00, -1.00, 466.1, 285.0)">)</text><text xml:space="preserve" font-family="Courier" font-size="23.0" fill="#000000" transform="matrix(1.00, 0.00, -0.00, -1.00, 479.9, 285.0)">:</text><text xml:space="preserve" font-family="Courier" font-size="23.0" fill="#000000" transform="matrix(1.00, 0.00, -0.00, -1.00, 52.0, 257.0)"> </text><text xml:space="preserve" font-family="Courier" font-size="23.0" fill="#000000" transform="matrix(1.00, 0.00, -0.00, -1.00, 65.8, 257.0)"> </text><text xml:space="preserve" font-family="Courier" font-size="23.0" fill="#000000" transform="matrix(1.00, 0.00, -0.00, -1.00, 79.6, 257.0)"> </text><text xml:space="preserve" font-family="Courier" font-size="23.0" fill="#000000" transform="matrix(1.00, 0.00, -0.00, -1.00, 93.4, 257.0)"> </text><text xml:space="preserve" font-family="Courier" font-size="23.0" fill="#000000" transform="matrix(1.00, 0.00, -0.00, -1.00, 107.2, 257.0)"> </text><text xml:space="preserve" font-family="Courier" font-size="23.0" fill="#000000" transform="matrix(1.00, 0.00, -0.00, -1.00, 121.0, 257.0)"> </text><text xml:space="preserve" font-family="Courier" font-size="23.0" fill="#000000" transform="matrix(1.00, 0.00, -0.00, -1.00, 134.8, 257.0)"> </text><text xml:space="preserve" font-family="Courier" font-size="23.0" fill="#000000" transform="matrix(1.00, 0.00, -0.00, -1.00, 148.6, 257.0)"> </text><text xml:space="preserve" font-family="Courier" font-size="23.0" fill="#000000" transform="matrix(1.00, 0.00, -0.00, -1.00, 162.4, 257.0)"> </text><text xml:space="preserve" font-family="Courier" font-size="23.0" fill="#000000" transform="matrix(1.00, 0.00, -0.00, -1.00, 176.2, 257.0)"> </text><text xml:space="preserve" font-family="Courier" font-size="23.0" fill="#000000" transform="matrix(1.00, 0.00, -0.00, -1.00, 190.0, 257.0)"> </text><text xml:space="preserve" font-family="Courier" font-size="23.0" fill="#000000" transform="matrix(1.00, 0.00, -0.00, -1.00, 203.9, 257.0)"> </text><text xml:space="preserve" font-family="Courier-Bold" font-weight="bold" font-size="23.0" fill="#008E00" transform="matrix(1.00, 0.00, -0.00, -1.00, 217.6, 257.0)">c</text><text xml:space="preserve" font-family="Courier-Bold" font-weight="bold" font-size="23.0" fill="#008E00" transform="matrix(1.00, 0.00, -0.00, -1.00, 231.4, 257.0)">o</text><text xml:space="preserve" font-family="Courier-Bold" font-weight="bold" font-size="23.0" fill="#008E00" transform="matrix(1.00, 0.00, -0.00, -1.00, 245.2, 257.0)">n</text><text xml:space="preserve" font-family="Courier-Bold" font-weight="bold" font-size="23.0" fill="#008E00" transform="matrix(1.00, 0.00, -0.00, -1.00, 259.0, 257.0)">t</text><text xml:space="preserve" font-family="Courier-Bold" font-weight="bold" font-size="23.0" fill="#008E00" transform="matrix(1.00, 0.00, -0.00, -1.00, 272.8, 257.0)">i</text><text xml:space="preserve" font-family="Courier-Bold" font-weight="bold" font-size="23.0" fill="#008E00" transform="matrix(1.00, 0.00, -0.00, -1.00, 286.6, 257.0)">n</text><text xml:space="preserve" font-family="Courier-Bold" font-weight="bold" font-size="23.0" fill="#008E00" transform="matrix(1.00, 0.00, -0.00, -1.00, 300.5, 257.0)">u</text><text xml:space="preserve" font-family="Courier-Bold" font-weight="bold" font-size="23.0" fill="#008E00" transform="matrix(1.00, 0.00, -0.00, -1.00, 314.3, 257.0)">e</text><text xml:space="preserve" font-family="Courier" font-size="23.0" fill="#000000" transform="matrix(1.00, 0.00, -0.00, -1.00, 52.0, 201.0)"> </text><text xml:space="preserve" font-family="Courier" font-size="23.0" fill="#000000" transform="matrix(1.00, 0.00, -0.00, -1.00, 65.8, 201.0)"> </text><text xml:space="preserve" font-family="Courier" font-size="23.0" fill="#000000" transform="matrix(1.00, 0.00, -0.00, -1.00, 79.6, 201.0)"> </text><text xml:space="preserve" font-family="Courier" font-size="23.0" fill="#000000" transform="matrix(1.00, 0.00, -0.00, -1.00, 93.4, 201.0)"> </text><text xml:space="preserve" font-family="Courier" font-size="23.0" fill="#000000" transform="matrix(1.00, 0.00, -0.00, -1.00, 107.2, 201.0)"> </text><text xml:space="preserve" font-family="Courier" font-size="23.0" fill="#000000" transform="matrix(1.00, 0.00, -0.00, -1.00, 121.0, 201.0)"> </text><text xml:space="preserve" font-family="Courier" font-size="23.0" fill="#000000" transform="matrix(1.00, 0.00, -0.00, -1.00, 134.8, 201.0)"> </text><text xml:space="preserve" font-family="Courier" font-size="23.0" fill="#000000" transform="matrix(1.00, 0.00, -0.00, -1.00, 148.6, 201.0)"> </text><text xml:space="preserve" font-family="Courier-Oblique" font-style="italic" font-size="23.0" fill="#4E9192" transform="matrix(1.00, 0.00, -0.00, -1.00, 162.4, 201.0)">#</text><text xml:space="preserve" font-family="Courier-Oblique" font-style="italic" font-size="23.0" fill="#4E9192" transform="matrix(1.00, 0.00, -0.00, -1.00, 176.2, 201.0)"> </text><text xml:space="preserve" font-family="Courier-Oblique" font-style="italic" font-size="23.0" fill="#4E9192" transform="matrix(1.00, 0.00, -0.00, -1.00, 190.0, 201.0)">D</text><text xml:space="preserve" font-family="Courier-Oblique" font-style="italic" font-size="23.0" fill="#4E9192" transform="matrix(1.00, 0.00, -0.00, -1.00, 203.8, 201.0)">o</text><text xml:space="preserve" font-family="Courier-Oblique" font-style="italic" font-size="23.0" fill="#4E9192" transform="matrix(1.00, 0.00, -0.00, -1.00, 217.6, 201.0)"> </text><text xml:space="preserve" font-family="Courier-Oblique" font-style="italic" font-size="23.0" fill="#4E9192" transform="matrix(1.00, 0.00, -0.00, -1.00, 231.4, 201.0)">s</text><text xml:space="preserve" font-family="Courier-Oblique" font-style="italic" font-size="23.0" fill="#4E9192" transform="matrix(1.00, 0.00, -0.00, -1.00, 245.2, 201.0)">o</text><text xml:space="preserve" font-family="Courier-Oblique" font-style="italic" font-size="23.0" fill="#4E9192" transform="matrix(1.00, 0.00, -0.00, -1.00, 259.0, 201.0)">m</text><text xml:space="preserve" font-family="Courier-Oblique" font-style="italic" font-size="23.0" fill="#4E9192" transform="matrix(1.00, 0.00, -0.00, -1.00, 272.9, 201.0)">e</text><text xml:space="preserve" font-family="Courier-Oblique" font-style="italic" font-size="23.0" fill="#4E9192" transform="matrix(1.00, 0.00, -0.00, -1.00, 286.7, 201.0)">t</text><text xml:space="preserve" font-family="Courier-Oblique" font-style="italic" font-size="23.0" fill="#4E9192" transform="matrix(1.00, 0.00, -0.00, -1.00, 300.5, 201.0)">h</text><text xml:space="preserve" font-family="Courier-Oblique" font-style="italic" font-size="23.0" fill="#4E9192" transform="matrix(1.00, 0.00, -0.00, -1.00, 314.3, 201.0)">i</text><text xml:space="preserve" font-family="Courier-Oblique" font-style="italic" font-size="23.0" fill="#4E9192" transform="matrix(1.00, 0.00, -0.00, -1.00, 328.1, 201.0)">n</text><text xml:space="preserve" font-family="Courier-Oblique" font-style="italic" font-size="23.0" fill="#4E9192" transform="matrix(1.00, 0.00, -0.00, -1.00, 341.9, 201.0)">g</text><text xml:space="preserve" font-family="Courier-Oblique" font-style="italic" font-size="23.0" fill="#4E9192" transform="matrix(1.00, 0.00, -0.00, -1.00, 355.7, 201.0)"> </text><text xml:space="preserve" font-family="Courier-Oblique" font-style="italic" font-size="23.0" fill="#4E9192" transform="matrix(1.00, 0.00, -0.00, -1.00, 369.5, 201.0)">w</text><text xml:space="preserve" font-family="Courier-Oblique" font-style="italic" font-size="23.0" fill="#4E9192" transform="matrix(1.00, 0.00, -0.00, -1.00, 383.3, 201.0)">i</text><text xml:space="preserve" font-family="Courier-Oblique" font-style="italic" font-size="23.0" fill="#4E9192" transform="matrix(1.00, 0.00, -0.00, -1.00, 397.1, 201.0)">t</text><text xml:space="preserve" font-family="Courier-Oblique" font-style="italic" font-size="23.0" fill="#4E9192" transform="matrix(1.00, 0.00, -0.00, -1.00, 410.9, 201.0)">h</text><text xml:space="preserve" font-family="Courier-Oblique" font-style="italic" font-size="23.0" fill="#4E9192" transform="matrix(1.00, 0.00, -0.00, -1.00, 424.7, 201.0)"> </text><text xml:space="preserve" font-family="Courier-Oblique" font-style="italic" font-size="23.0" fill="#4E9192" transform="matrix(1.00, 0.00, -0.00, -1.00, 438.5, 201.0)">t</text><text xml:space="preserve" font-family="Courier-Oblique" font-style="italic" font-size="23.0" fill="#4E9192" transform="matrix(1.00, 0.00, -0.00, -1.00, 452.3, 201.0)">h</text><text xml:space="preserve" font-family="Courier-Oblique" font-style="italic" font-size="23.0" fill="#4E9192" transform="matrix(1.00, 0.00, -0.00, -1.00, 466.1, 201.0)">a</text><text xml:space="preserve" font-family="Courier-Oblique" font-style="italic" font-size="23.0" fill="#4E9192" transform="matrix(1.00, 0.00, -0.00, -1.00, 479.9, 201.0)">t</text><text xml:space="preserve" font-family="Courier-Oblique" font-style="italic" font-size="23.0" fill="#4E9192" transform="matrix(1.00, 0.00, -0.00, -1.00, 493.7, 201.0)"> </text><text xml:space="preserve" font-family="Courier-Oblique" font-style="italic" font-size="23.0" fill="#4E9192" transform="matrix(1.00, 0.00, -0.00, -1.00, 507.5, 201.0)">l</text><text xml:space="preserve" font-family="Courier-Oblique" font-style="italic" font-size="23.0" fill="#4E9192" transform="matrix(1.00, 0.00, -0.00, -1.00, 521.3, 201.0)">i</text><text xml:space="preserve" font-family="Courier-Oblique" font-style="italic" font-size="23.0" fill="#4E9192" transform="matrix(1.00, 0.00, -0.00, -1.00, 535.1, 201.0)">n</text><text xml:space="preserve" font-family="Courier-Oblique" font-style="italic" font-size="23.0" fill="#4E9192" transform="matrix(1.00, 0.00, -0.00, -1.00, 548.9, 201.0)">e</text></g></g></g></svg>