<?xml version="1.0" encoding="UTF-8" standalone="no"?><svg xmlns="http://www.w3.org/2000/svg" xmlns:xlink="http://www.w3.org/1999/xlink" clip-rule="evenodd" stroke-miterlimit="4.00" viewBox="0 0 132 40"><desc>SVG generated by Keynote</desc><defs></defs><g transform="matrix(1.00, 0.00, -0.00, -1.00, 0.0, 40.0)"><g><clipPath id="clip-95"><path d="M 0.9 0.2 L 70.5 0.2 L 70.5 39.3 L 0.9 39.3 Z M 0.9 0.2 "></path></clipPath><g clip-path="url(#clip-95)"><path d="M 21.5 35.4 C 21.3 35.5 21.1 35.0 20.5 34.8 C 19.8 34.7 19.1 34.6 19.2 35.0 C 19.4 35.3 19.6 35.5 19.3 35.9 C 19.0 36.3 18.6 37.0 19.0 37.2 C 19.5 37.5 21.1 38.2 21.7 37.8 C 22.2 37.5 22.4 37.3 22.8 37.1 C 23.2 36.8 22.9 37.6 22.9 37.6 C 22.9 37.6 23.8 37.7 24.5 37.8 C 25.2 37.8 26.0 37.9 26.0 37.7 C 26.1 37.6 26.4 37.3 26.4 37.3 C 26.4 37.3 26.7 37.7 27.2 37.8 C 27.7 37.8 27.5 37.6 27.5 37.4 C 27.4 37.3 26.8 36.7 27.0 36.7 C 27.2 36.7 27.9 37.5 28.2 37.6 C 28.6 37.7 29.4 37.6 29.4 37.6 C 29.4 37.6 29.3 37.2 29.4 37.1 C 29.4 37.0 30.2 36.9 30.2 37.1 C 30.3 37.2 30.2 37.7 30.6 37.8 C 31.8 37.8 31.7 37.0 31.8 36.9 C 31.9 36.9 31.9 37.6 32.2 37.7 C 32.5 37.8 34.9 37.7 35.0 37.5 C 35.1 37.4 35.9 38.0 36.3 37.6 C 36.6 37.1 36.8 37.0 36.8 36.9 C 36.9 36.8 37.4 36.1 37.6 36.4 C 37.8 36.6 36.8 37.4 37.1 37.6 C 37.4 37.8 38.9 37.9 39.2 37.7 C 39.5 37.4 39.6 36.7 39.9 36.7 C 40.1 36.7 40.9 37.6 41.0 37.4 C 41.1 37.3 41.2 36.6 41.2 36.5 C 41.2 36.3 41.5 35.1 41.3 34.9 C 41.1 34.7 40.2 34.3 40.3 34.6 C 40.4 35.0 40.6 35.4 40.3 35.6 C 40.0 35.8 39.8 35.8 39.8 35.6 C 39.7 35.5 39.9 35.4 39.3 35.1 C 38.8 34.9 39.1 34.6 38.6 34.6 C 38.1 34.6 37.6 34.7 37.7 35.0 C 37.7 35.3 37.2 35.7 36.8 35.6 C 36.5 35.6 37.1 35.0 35.9 34.8 C 34.8 34.5 34.1 34.5 33.8 34.7 C 33.5 34.9 33.4 35.7 32.9 35.4 C 32.3 35.0 32.6 34.8 31.9 34.9 C 31.2 34.9 30.9 35.5 30.4 35.5 C 30.0 35.5 29.8 35.5 29.8 35.5 C 29.8 35.5 30.1 34.6 29.0 34.6 C 28.0 34.6 27.8 34.5 28.0 35.1 C 28.2 35.7 27.4 35.7 27.4 35.3 C 27.4 34.9 26.7 34.7 26.4 34.6 C 26.0 34.6 25.9 35.6 25.8 35.6 C 25.6 35.6 25.2 35.6 25.4 35.2 C 25.5 34.9 25.1 34.9 24.8 34.7 C 24.5 34.6 23.5 34.7 23.6 34.9 C 23.6 35.1 24.0 35.7 23.4 35.4 C 22.8 35.1 22.6 34.6 22.0 34.6 C 21.3 34.6 21.9 35.2 21.5 35.4 C 21.5 35.4 21.5 35.4 21.5 35.4 Z M 41.7 34.6 C 40.6 34.6 41.3 37.3 41.7 37.8 C 42.1 38.3 42.9 38.0 43.6 38.1 C 44.4 38.2 44.1 37.4 44.5 37.1 C 45.0 36.9 44.8 37.4 45.0 37.8 C 45.2 38.2 46.3 37.8 47.0 37.9 C 47.7 37.9 48.4 37.0 49.0 37.0 C 49.5 36.9 48.5 36.5 49.5 36.6 C 50.4 36.6 50.0 37.1 48.8 37.4 C 47.7 37.7 49.3 37.9 49.9 38.0 C 50.5 38.1 51.6 37.7 52.0 37.7 C 52.5 37.8 51.8 37.1 52.8 37.1 C 53.8 37.2 53.3 37.8 54.2 37.9 C 55.1 38.0 55.0 37.4 55.4 37.2 C 55.8 37.1 55.7 37.5 56.0 37.5 C 56.4 37.6 56.9 37.7 57.6 37.6 C 58.2 37.4 58.0 37.2 58.3 37.1 C 58.6 37.0 59.0 37.0 59.0 37.0 C 59.1 37.2 59.2 37.4 59.2 37.6 C 59.2 37.6 60.4 37.5 60.7 37.5 C 61.0 37.4 61.7 36.9 61.4 36.9 C 61.2 36.8 61.9 36.1 62.1 36.1 C 62.3 36.1 63.1 36.1 63.6 36.0 C 64.1 35.8 63.0 34.5 62.9 34.3 C 62.8 34.1 62.4 33.2 62.1 33.2 C 61.8 33.3 61.8 33.7 61.7 33.5 C 61.6 33.3 60.9 33.9 60.7 34.0 C 60.4 34.0 60.4 34.7 60.4 34.7 C 60.4 34.7 60.4 35.3 60.0 35.4 C 59.6 35.4 59.3 34.4 59.3 34.4 C 59.3 34.4 58.8 34.3 58.4 34.4 C 57.9 34.5 57.4 35.4 57.3 35.6 C 57.2 35.8 57.1 35.0 56.7 34.9 C 56.3 34.8 55.6 34.6 55.4 34.7 C 55.3 34.7 54.9 35.2 54.9 35.2 C 54.9 35.2 53.9 35.6 53.7 35.6 C 53.5 35.6 53.9 34.8 53.9 34.8 C 53.9 34.8 51.8 34.6 51.4 34.5 C 51.1 34.4 50.6 34.7 50.3 34.7 C 50.1 34.8 49.7 35.7 49.3 35.6 C 49.0 35.5 49.7 35.0 49.3 34.9 C 49.0 34.8 48.3 34.6 48.1 34.6 C 47.9 34.6 47.7 35.0 47.4 35.0 C 47.1 35.1 46.6 35.8 46.1 35.8 C 45.7 35.8 45.4 35.4 45.2 35.3 C 45.0 35.2 44.9 34.5 44.5 34.5 C 44.1 34.5 44.4 34.9 44.1 34.9 C 43.7 34.9 43.7 35.4 43.3 35.3 C 42.9 35.2 43.2 34.4 42.8 34.5 C 42.6 34.6 42.8 34.5 41.7 34.6 C 41.7 34.6 41.7 34.6 41.7 34.6 Z M 62.8 32.9 C 62.2 32.9 62.1 33.4 62.4 33.7 C 62.6 34.0 63.3 34.7 63.3 35.1 C 63.3 35.4 63.1 36.4 64.0 35.9 C 65.0 35.4 65.0 35.0 64.8 34.8 C 64.7 34.7 64.2 33.8 64.4 33.7 C 64.6 33.6 65.0 33.6 65.2 33.6 C 65.3 33.7 66.3 34.1 66.5 33.6 C 66.7 33.1 66.8 32.5 66.8 32.5 C 66.9 32.3 67.0 32.1 67.1 31.8 C 67.1 31.8 68.0 31.5 68.1 30.9 C 68.2 30.3 68.3 29.8 68.4 29.5 C 68.5 29.2 68.5 28.8 68.3 28.7 C 68.1 28.6 67.3 28.1 67.3 28.1 C 67.3 28.1 67.2 27.6 67.3 27.4 C 67.5 27.2 68.0 27.2 68.1 27.3 C 68.3 27.3 68.8 27.3 68.9 27.0 C 69.0 26.6 69.6 25.0 69.3 24.7 C 69.0 24.4 68.7 24.5 68.6 24.3 C 68.5 24.1 68.4 22.8 68.7 22.7 C 68.9 22.6 69.4 22.7 69.4 22.2 C 69.3 21.8 69.5 21.0 69.3 21.0 C 69.2 21.0 69.0 20.8 68.8 20.7 C 68.5 20.7 68.3 20.1 68.1 20.0 C 68.0 19.8 67.9 19.4 67.9 19.4 C 68.1 19.1 68.2 18.9 68.4 18.7 C 68.4 18.7 68.9 19.1 69.0 19.3 C 69.1 19.5 69.4 19.2 69.5 19.0 C 69.5 18.8 69.4 17.3 69.4 17.3 C 69.0 17.3 68.7 17.3 68.3 17.2 C 68.2 16.8 68.1 16.5 68.0 16.1 C 68.0 16.1 69.4 16.3 69.4 15.6 C 69.4 14.9 69.3 14.2 69.3 14.2 C 69.3 14.2 68.8 13.6 68.7 13.5 C 68.7 13.3 67.5 13.3 67.5 13.3 C 67.0 13.4 66.6 13.5 66.1 13.5 C 66.1 13.5 65.7 14.2 65.9 14.6 C 66.1 14.9 66.6 14.6 66.8 14.7 C 67.0 14.7 67.3 15.3 67.3 15.3 C 67.0 15.6 66.8 15.9 66.5 16.2 C 66.5 16.2 66.3 16.5 66.0 16.8 C 65.8 17.1 65.7 18.4 65.8 18.6 C 65.9 18.9 66.2 19.1 66.4 19.4 C 66.6 19.7 67.1 19.7 66.7 20.0 C 66.4 20.4 66.0 20.6 66.0 20.8 C 66.0 21.0 66.5 22.1 66.5 22.1 C 66.6 22.4 66.7 22.7 66.8 23.0 C 66.8 23.0 67.0 23.7 66.8 23.8 C 66.5 23.9 66.8 25.2 66.8 25.2 C 66.8 25.2 66.0 25.0 65.8 25.3 C 65.7 25.6 65.5 26.1 65.6 26.5 C 65.7 26.9 66.4 27.3 66.4 27.3 C 66.2 27.4 66.0 27.5 65.8 27.6 C 65.6 27.9 65.5 28.2 65.4 28.5 C 65.4 28.5 65.3 29.3 65.4 29.3 C 65.5 29.3 66.2 29.4 66.4 29.5 C 66.6 29.6 66.6 30.2 66.4 30.1 C 66.2 30.1 65.4 30.3 65.4 30.3 C 65.4 30.3 64.8 30.4 64.7 30.6 C 64.5 30.8 64.5 31.3 64.5 31.4 C 64.6 31.6 64.7 32.3 64.7 32.3 C 64.5 32.2 64.2 32.2 64.0 32.1 C 64.0 32.1 63.7 32.9 62.8 32.9 C 62.8 32.9 62.8 32.9 62.8 32.9 Z M 65.7 13.2 C 65.8 14.1 68.4 13.3 68.9 12.9 C 69.4 12.4 69.0 11.8 69.0 11.1 C 69.0 10.4 68.2 10.8 67.9 10.4 C 67.5 10.1 68.1 10.2 68.4 9.9 C 68.8 9.6 68.1 8.6 67.8 7.9 C 67.5 7.1 66.3 6.9 65.9 6.5 C 65.5 6.1 65.9 7.2 65.2 6.4 C 64.6 5.6 65.3 5.6 66.3 6.4 C 67.3 7.2 66.4 5.7 66.0 5.1 C 65.6 4.5 64.4 4.0 63.9 3.7 C 63.5 3.3 63.7 4.3 63.0 3.9 C 62.4 3.4 63.1 3.0 62.3 2.6 C 61.6 2.2 61.4 2.8 61.1 2.9 C 60.7 2.9 60.9 2.6 60.7 2.5 C 60.4 2.3 60.0 2.1 59.4 2.1 C 58.8 2.2 58.9 2.4 58.6 2.4 C 58.4 2.4 57.9 2.4 57.9 2.4 C 57.8 2.2 57.8 1.9 57.8 1.7 C 57.8 1.7 56.6 1.6 56.2 1.5 C 55.8 1.5 54.8 1.7 55.1 1.9 C 55.3 2.0 54.3 2.5 54.1 2.4 C 53.9 2.3 53.0 1.9 52.4 1.8 C 51.8 1.6 52.1 3.3 52.1 3.6 C 52.1 3.8 51.8 4.8 52.2 4.9 C 52.6 5.0 53.1 4.6 53.0 4.9 C 52.9 5.1 54.4 4.9 54.7 4.9 C 55.1 4.9 55.5 4.2 55.5 4.2 C 55.5 4.2 55.9 3.7 56.4 3.7 C 56.9 3.7 57.0 4.8 57.0 4.8 C 57.0 4.8 57.5 5.0 58.0 5.0 C 58.5 5.0 59.1 4.2 59.2 4.1 C 59.4 3.9 59.2 4.7 59.5 4.8 C 59.8 5.0 60.2 5.4 60.3 5.4 C 60.4 5.3 60.8 4.9 60.8 4.9 C 60.8 4.9 61.6 4.8 61.7 4.9 C 61.9 5.0 61.3 5.6 61.3 5.6 C 61.3 5.6 62.3 6.4 62.5 6.7 C 62.7 6.9 63.2 7.0 63.4 7.1 C 63.5 7.2 64.5 6.7 64.6 7.1 C 64.8 7.4 63.9 7.2 64.1 7.5 C 64.2 7.8 64.3 8.4 64.4 8.5 C 64.5 8.6 64.9 8.6 65.1 8.9 C 65.2 9.1 66.1 9.1 66.2 9.5 C 66.4 10.0 66.0 10.2 65.9 10.4 C 65.9 10.5 65.3 10.8 65.3 11.0 C 65.3 11.3 65.7 11.0 65.8 11.3 C 65.8 11.5 66.3 11.5 66.3 11.8 C 66.2 12.1 65.4 12.0 65.5 12.3 C 65.6 12.4 65.5 12.2 65.7 13.2 C 65.7 13.2 65.7 13.2 65.7 13.2 Z M 51.3 4.8 C 51.8 5.1 52.3 4.7 52.2 4.3 C 52.1 3.9 51.9 3.0 52.1 2.7 C 52.3 2.4 52.9 1.7 52.0 1.6 C 51.1 1.4 50.9 1.7 50.9 1.9 C 50.9 2.2 50.7 3.2 50.4 3.1 C 50.2 3.0 50.0 2.7 49.9 2.6 C 49.8 2.5 49.5 1.5 49.0 1.6 C 48.6 1.8 48.1 2.0 48.1 2.0 C 47.9 2.1 47.7 2.1 47.5 2.1 C 47.5 2.1 46.8 1.5 46.3 1.6 C 45.8 1.8 45.3 1.8 44.9 1.7 C 44.5 1.7 44.2 1.8 44.1 2.0 C 44.0 2.2 43.5 3.1 43.5 3.1 C 43.5 3.1 43.0 3.3 42.7 3.2 C 42.5 3.0 42.4 2.5 42.5 2.4 C 42.5 2.2 42.5 1.7 42.1 1.6 C 41.7 1.5 40.1 1.1 39.9 1.3 C 39.6 1.6 39.7 2.0 39.5 2.1 C 39.3 2.2 38.2 2.2 38.1 2.0 C 38.1 1.8 38.1 1.2 37.8 1.3 C 37.5 1.3 36.9 1.2 36.9 1.3 C 36.9 1.5 36.7 1.6 36.7 1.9 C 36.6 2.2 36.0 2.4 35.9 2.5 C 35.8 2.7 35.3 2.7 35.3 2.7 C 35.1 2.6 34.9 2.4 34.6 2.3 C 34.6 2.3 35.0 1.8 35.2 1.7 C 35.4 1.6 35.1 1.2 34.9 1.2 C 34.7 1.2 33.5 1.2 33.5 1.2 C 33.5 1.6 33.5 2.0 33.5 2.4 C 33.2 2.5 32.9 2.6 32.6 2.6 C 32.6 2.6 32.7 1.3 32.1 1.3 C 31.6 1.3 30.9 1.3 30.9 1.3 C 30.9 1.3 30.3 1.8 30.2 1.8 C 30.0 1.9 30.0 3.1 30.0 3.1 C 30.0 3.6 30.1 4.0 30.1 4.5 C 30.1 4.5 30.8 5.0 31.2 4.8 C 31.5 4.6 31.2 4.1 31.3 3.8 C 31.3 3.6 31.9 3.4 31.9 3.4 C 32.2 3.6 32.4 3.9 32.7 4.2 C 32.7 4.2 32.9 4.4 33.1 4.6 C 33.4 4.9 34.3 5.0 34.5 4.9 C 34.8 4.8 35.0 4.5 35.3 4.3 C 35.6 4.0 35.6 3.6 35.9 3.9 C 36.3 4.3 36.5 4.6 36.7 4.6 C 36.9 4.6 37.7 4.2 37.7 4.2 C 37.9 4.1 38.1 3.9 38.4 3.8 C 38.4 3.8 39.0 3.6 39.1 3.9 C 39.1 4.2 40.4 3.8 40.4 3.8 C 40.4 3.8 40.2 4.7 40.6 4.8 C 40.9 5.0 41.4 5.1 41.9 5.0 C 42.4 4.9 42.7 4.1 42.7 4.1 C 42.9 4.3 43.0 4.5 43.2 4.7 C 43.7 4.7 44.1 4.8 44.6 4.9 C 44.6 4.9 45.7 4.8 45.7 4.7 C 45.7 4.5 45.5 3.8 45.6 3.7 C 45.7 3.5 46.2 3.2 46.3 3.5 C 46.3 3.7 46.8 4.4 46.8 4.4 C 46.8 4.4 47.3 4.8 47.6 4.8 C 47.9 4.9 48.4 4.6 48.5 4.5 C 48.6 4.4 49.1 3.8 49.1 3.8 C 49.3 4.1 49.4 4.3 49.5 4.5 C 49.5 4.5 50.4 4.2 51.3 4.8 C 51.3 4.8 51.3 4.8 51.3 4.8 Z M 29.6 4.9 C 30.7 4.9 30.0 2.2 29.6 1.7 C 29.1 1.1 28.4 1.5 27.7 1.4 C 26.9 1.3 27.2 2.1 26.7 2.4 C 26.3 2.6 26.5 2.1 26.3 1.7 C 26.1 1.3 25.0 1.6 24.3 1.6 C 23.6 1.5 22.9 2.4 22.3 2.5 C 21.8 2.5 22.8 2.9 21.8 2.9 C 20.9 2.8 21.3 2.4 22.5 2.1 C 23.6 1.8 22.0 1.6 21.4 1.5 C 20.8 1.4 19.7 1.8 19.3 1.7 C 18.8 1.7 19.5 2.4 18.5 2.3 C 17.5 2.3 18.0 1.6 17.1 1.5 C 16.2 1.4 16.3 2.1 15.9 2.2 C 15.5 2.4 15.6 2.0 15.2 2.0 C 14.9 1.9 14.4 1.7 13.7 1.9 C 13.1 2.1 13.3 2.3 13.0 2.4 C 12.7 2.4 12.3 2.5 12.3 2.5 C 12.2 2.3 12.1 2.1 12.1 1.9 C 12.1 1.9 11.0 2.0 10.6 2.0 C 10.3 2.1 9.6 2.6 9.9 2.6 C 10.1 2.7 9.4 3.4 9.2 3.4 C 9.0 3.4 8.2 3.4 7.7 3.6 C 7.2 3.7 8.3 5.0 8.4 5.2 C 8.6 5.5 8.9 6.3 9.2 6.3 C 9.5 6.2 9.6 5.8 9.6 6.0 C 9.7 6.2 10.4 5.6 10.6 5.5 C 10.9 5.4 10.9 4.8 10.9 4.8 C 10.9 4.8 11.0 4.2 11.3 4.1 C 11.7 4.0 12.0 5.1 12.0 5.1 C 12.0 5.1 12.5 5.2 13.0 5.1 C 13.4 5.0 13.9 4.1 14.0 3.9 C 14.1 3.7 14.2 4.5 14.6 4.6 C 15.0 4.6 15.6 4.9 15.8 4.8 C 16.0 4.8 16.4 4.2 16.4 4.2 C 16.4 4.2 17.3 3.9 17.6 3.9 C 17.8 3.9 17.4 4.7 17.4 4.7 C 17.4 4.7 19.5 4.9 19.8 5.0 C 20.2 5.0 20.7 4.8 21.0 4.8 C 21.2 4.7 21.6 3.7 22.0 3.8 C 22.3 3.9 21.6 4.5 22.0 4.6 C 22.3 4.7 23.0 4.9 23.2 4.9 C 23.4 4.9 23.6 4.5 23.9 4.5 C 24.2 4.4 24.7 3.7 25.2 3.7 C 25.6 3.7 25.9 4.1 26.1 4.2 C 26.3 4.3 26.4 5.0 26.8 5.0 C 27.2 5.0 26.9 4.6 27.2 4.6 C 27.6 4.6 27.6 4.1 28.0 4.2 C 28.4 4.3 28.1 5.1 28.5 5.0 C 28.7 4.9 28.5 5.0 29.6 4.9 C 29.6 4.9 29.6 4.9 29.6 4.9 Z M 7.2 7.0 C 7.3 6.8 7.7 7.0 8.2 6.7 C 8.7 6.5 9.2 6.2 8.9 6.0 C 8.7 5.8 8.4 5.8 8.4 5.3 C 8.4 4.8 8.4 4.0 7.9 4.0 C 7.3 4.0 5.4 4.7 5.2 5.4 C 5.1 6.2 5.1 6.4 5.1 6.9 C 5.0 7.4 4.5 6.7 4.5 6.7 C 4.5 6.7 3.9 7.5 3.5 8.2 C 3.1 8.9 2.9 9.6 3.0 9.7 C 3.1 9.8 3.4 10.1 3.4 10.1 C 3.4 10.1 2.9 10.3 2.8 10.8 C 2.6 11.2 2.9 11.1 3.1 11.0 C 3.3 11.0 3.9 10.6 3.8 10.8 C 3.8 10.9 2.9 11.4 2.8 11.7 C 2.7 12.0 2.7 12.7 2.7 12.7 C 2.7 12.7 3.1 12.7 3.2 12.8 C 3.3 12.8 3.3 13.6 3.2 13.6 C 3.0 13.6 2.5 13.5 2.5 13.9 C 2.3 15.2 3.2 15.1 3.3 15.2 C 3.3 15.4 2.6 15.3 2.5 15.7 C 2.4 16.0 2.5 19.0 2.6 19.2 C 2.8 19.3 2.2 20.1 2.6 20.4 C 3.0 20.8 3.2 20.9 3.3 21.0 C 3.4 21.0 4.1 21.7 3.8 22.0 C 3.5 22.3 2.8 21.0 2.6 21.4 C 2.3 21.8 2.3 23.7 2.5 24.0 C 2.8 24.4 3.5 24.5 3.5 24.7 C 3.5 25.0 2.7 25.9 2.8 25.9 C 2.9 26.0 3.7 26.1 3.8 26.1 C 3.9 26.0 5.2 26.2 5.3 26.1 C 5.5 25.9 5.9 25.0 5.6 25.1 C 5.2 25.3 4.8 25.5 4.6 25.2 C 4.4 24.9 4.4 24.7 4.6 24.6 C 4.7 24.5 4.8 24.7 5.1 24.1 C 5.3 23.5 5.6 23.9 5.6 23.2 C 5.5 22.6 5.5 22.0 5.2 22.1 C 4.9 22.2 4.5 21.3 4.5 21.0 C 4.6 20.6 5.2 21.2 5.4 20.1 C 5.7 19.0 5.7 18.2 5.5 17.7 C 5.2 17.3 4.5 17.2 4.8 16.5 C 5.1 15.9 5.3 16.2 5.3 15.4 C 5.3 14.6 4.8 14.3 4.7 13.9 C 4.7 13.4 4.8 13.3 4.8 13.3 C 4.8 13.3 5.6 13.5 5.7 12.7 C 5.8 11.9 5.9 11.8 5.3 11.8 C 4.7 11.9 4.8 11.3 5.1 11.3 C 5.5 11.4 5.9 11.0 6.0 10.8 C 6.1 10.5 5.1 10.2 5.1 10.1 C 5.1 10.0 5.3 9.7 5.6 9.9 C 5.8 10.1 6.0 9.9 6.2 9.7 C 6.4 9.5 6.7 8.8 6.5 8.7 C 6.4 8.6 5.6 8.6 6.2 8.3 C 6.7 8.0 7.2 8.2 7.5 7.8 C 7.8 7.4 7.1 7.3 7.2 7.0 C 7.2 7.0 7.2 7.0 7.2 7.0 Z M 5.6 26.8 C 5.9 26.3 5.4 25.9 5.1 26.0 C 4.7 26.1 3.8 26.3 3.5 26.2 C 3.2 26.0 2.4 25.4 2.4 26.4 C 2.3 27.3 2.6 27.4 2.8 27.4 C 3.1 27.4 4.1 27.4 4.0 27.6 C 4.0 27.9 3.7 28.1 3.6 28.2 C 3.5 28.3 2.5 28.7 2.8 29.1 C 3.0 29.5 3.4 29.8 3.4 29.8 C 3.4 29.9 3.5 30.1 3.6 30.3 C 3.6 30.3 3.3 31.3 3.7 31.7 C 4.0 32.2 4.4 32.7 4.6 33.1 C 4.8 33.5 5.2 33.7 5.4 33.6 C 5.6 33.5 6.6 33.4 6.6 33.4 C 6.6 33.4 7.1 33.6 7.2 33.8 C 7.3 34.1 7.1 34.5 6.9 34.6 C 6.7 34.7 6.5 35.1 6.7 35.4 C 7.0 35.8 8.5 37.2 8.9 37.0 C 9.3 36.9 9.3 36.5 9.6 36.5 C 9.8 36.5 10.7 36.7 10.8 37.0 C 10.8 37.2 10.6 37.7 10.9 37.7 C 11.2 37.7 11.7 37.9 11.7 37.8 C 11.8 37.7 12.0 37.6 12.0 37.3 C 12.1 37.0 12.7 36.9 12.8 36.7 C 12.9 36.6 13.3 36.6 13.3 36.6 C 13.5 36.8 13.7 36.9 13.9 37.1 C 13.9 37.1 13.5 37.6 13.3 37.7 C 13.1 37.8 13.4 38.1 13.6 38.2 C 13.8 38.2 15.0 38.2 15.0 38.2 C 15.0 37.8 15.1 37.4 15.1 37.0 C 15.4 37.0 15.7 36.9 16.0 36.8 C 16.0 36.8 15.9 38.2 16.5 38.2 C 17.2 38.2 18.1 38.2 18.1 38.2 C 18.1 38.2 18.9 37.7 19.1 37.6 C 19.4 37.6 19.5 36.4 19.5 36.4 C 19.4 35.9 19.3 35.5 19.3 35.0 C 19.3 35.0 18.3 34.5 17.8 34.7 C 17.3 34.9 17.7 35.4 17.6 35.6 C 17.6 35.9 16.9 36.1 16.9 36.1 C 16.6 35.8 16.3 35.6 16.0 35.3 C 16.0 35.3 15.7 35.1 15.5 34.8 C 15.2 34.6 14.4 34.4 14.2 34.5 C 13.9 34.6 13.7 34.9 13.4 35.1 C 13.1 35.3 13.2 35.7 12.9 35.4 C 12.6 35.0 12.5 34.6 12.4 34.6 C 12.3 34.6 11.6 34.9 11.6 34.9 C 11.4 35.0 11.2 35.0 11.0 35.1 C 11.0 35.1 10.5 35.2 10.5 34.9 C 10.6 34.6 9.5 34.5 9.5 34.5 C 9.5 34.5 9.9 33.8 9.8 33.6 C 9.6 33.4 9.4 33.0 9.0 32.9 C 8.6 32.8 7.8 33.1 7.8 33.1 C 7.8 32.9 7.9 32.7 7.9 32.4 C 7.7 32.1 7.5 31.8 7.3 31.5 C 7.3 31.5 6.8 30.8 6.7 30.8 C 6.5 30.9 6.0 31.4 5.8 31.4 C 5.6 31.5 5.2 31.1 5.3 30.9 C 5.5 30.8 5.9 30.1 5.9 30.1 C 5.9 30.1 6.2 29.6 6.1 29.4 C 6.1 29.2 5.8 28.9 5.7 28.9 C 5.5 28.8 4.9 28.5 4.9 28.5 C 5.1 28.4 5.3 28.3 5.5 28.1 C 5.5 28.1 5.1 27.5 5.6 26.8 C 5.6 26.8 5.6 26.8 5.6 26.8 Z M 5.6 26.8 " fill="#71AFE1"></path></g></g><g><clipPath id="clip-96"><path d="M 64.8 0.2 L 131.4 0.2 L 131.4 39.3 L 64.8 39.3 Z M 64.8 0.2 "></path></clipPath><g clip-path="url(#clip-96)"><path d="M 85.3 35.4 C 85.1 35.5 84.9 35.0 84.3 34.8 C 83.7 34.7 83.0 34.6 83.1 35.0 C 83.3 35.3 83.5 35.5 83.2 35.9 C 82.9 36.3 82.5 37.0 82.9 37.2 C 83.3 37.5 85.0 38.2 85.5 37.8 C 86.0 37.5 86.2 37.3 86.6 37.1 C 86.9 36.8 86.7 37.6 86.7 37.6 C 86.7 37.6 87.6 37.7 88.2 37.8 C 88.9 37.8 89.6 37.9 89.7 37.7 C 89.8 37.6 90.0 37.3 90.0 37.3 C 90.0 37.3 90.3 37.7 90.8 37.8 C 91.3 37.8 91.1 37.6 91.1 37.4 C 91.0 37.3 90.4 36.7 90.6 36.7 C 90.8 36.7 91.5 37.5 91.8 37.6 C 92.1 37.7 92.9 37.6 92.9 37.6 C 92.9 37.6 92.8 37.2 92.9 37.1 C 93.0 37.0 93.7 36.9 93.8 37.1 C 93.8 37.2 93.7 37.7 94.1 37.8 C 95.3 37.8 95.1 37.0 95.2 36.9 C 95.3 36.9 95.3 37.6 95.6 37.7 C 95.9 37.8 98.2 37.7 98.3 37.5 C 98.5 37.4 99.2 38.0 99.6 37.6 C 99.9 37.1 100.0 37.0 100.1 36.9 C 100.2 36.8 100.6 36.1 100.8 36.4 C 101.0 36.6 100.1 37.4 100.4 37.6 C 100.7 37.8 102.1 37.9 102.4 37.7 C 102.7 37.4 102.8 36.7 103.0 36.7 C 103.2 36.7 104.1 37.6 104.1 37.4 C 104.2 37.3 104.3 36.6 104.3 36.5 C 104.3 36.3 104.6 35.1 104.4 34.9 C 104.2 34.7 103.4 34.3 103.5 34.6 C 103.6 35.0 103.8 35.4 103.5 35.6 C 103.2 35.8 103.0 35.8 102.9 35.6 C 102.9 35.5 103.0 35.4 102.5 35.1 C 102.0 34.9 102.3 34.6 101.8 34.6 C 101.3 34.6 100.9 34.7 100.9 35.0 C 101.0 35.3 100.5 35.7 100.1 35.6 C 99.8 35.6 100.3 35.0 99.3 34.8 C 98.2 34.5 97.5 34.5 97.2 34.7 C 96.9 34.9 96.8 35.7 96.3 35.4 C 95.8 35.0 96.0 34.8 95.3 34.9 C 94.7 34.9 94.4 35.5 93.9 35.5 C 93.5 35.5 93.4 35.5 93.4 35.5 C 93.4 35.5 93.6 34.6 92.6 34.6 C 91.6 34.6 91.4 34.5 91.6 35.1 C 91.8 35.7 91.0 35.7 91.0 35.3 C 91.0 34.9 90.4 34.7 90.0 34.6 C 89.7 34.6 89.6 35.6 89.5 35.6 C 89.3 35.6 88.9 35.6 89.1 35.2 C 89.2 34.9 88.8 34.9 88.5 34.7 C 88.2 34.6 87.3 34.7 87.3 34.9 C 87.3 35.1 87.8 35.7 87.1 35.4 C 86.5 35.1 86.3 34.6 85.8 34.6 C 85.2 34.6 85.7 35.2 85.3 35.4 C 85.3 35.4 85.3 35.4 85.3 35.4 Z M 104.8 34.6 C 103.7 34.6 104.4 37.3 104.8 37.8 C 105.3 38.3 106.0 38.0 106.7 38.1 C 107.4 38.2 107.2 37.4 107.6 37.1 C 108.0 36.9 107.8 37.4 108.0 37.8 C 108.2 38.2 109.3 37.8 110.0 37.9 C 110.6 37.9 111.3 37.0 111.8 37.0 C 112.4 36.9 111.4 36.5 112.3 36.6 C 113.3 36.6 112.8 37.1 111.7 37.4 C 110.6 37.7 112.1 37.9 112.7 38.0 C 113.3 38.1 114.8 37.7 115.4 37.7 C 115.9 37.8 115.2 37.1 116.0 37.1 C 116.8 37.1 116.4 37.8 117.2 37.9 C 117.9 38.0 117.8 37.4 118.1 37.2 C 118.5 37.0 118.4 37.4 118.7 37.4 C 119.0 37.5 119.5 37.6 120.0 37.4 C 120.6 37.2 120.4 37.0 120.7 36.9 C 120.9 36.8 121.3 36.7 121.3 36.7 C 121.4 36.9 121.5 37.1 121.6 37.3 C 121.6 37.3 122.7 37.1 123.2 37.0 C 123.6 36.8 124.3 36.1 124.0 36.1 C 123.7 36.1 124.2 35.3 124.5 35.3 C 124.7 35.3 125.4 35.1 125.9 34.9 C 126.3 34.8 125.1 33.6 124.9 33.4 C 124.7 33.2 124.2 32.4 124.0 32.5 C 123.7 32.6 123.7 33.0 123.6 32.8 C 123.5 32.6 122.9 33.3 122.7 33.4 C 122.5 33.5 122.5 34.2 122.5 34.2 C 122.5 34.2 122.5 34.8 122.1 35.0 C 121.7 35.2 121.3 34.1 121.3 34.1 C 121.3 34.1 120.9 34.1 120.5 34.2 C 120.1 34.3 119.7 35.3 119.6 35.5 C 119.6 35.7 119.5 34.9 119.1 34.8 C 118.8 34.7 118.2 34.5 118.1 34.6 C 117.9 34.6 117.7 35.2 117.7 35.2 C 117.7 35.2 116.9 35.6 116.7 35.6 C 116.6 35.6 116.9 34.8 116.9 34.8 C 116.9 34.8 115.1 34.6 114.6 34.5 C 114.2 34.4 113.4 34.7 113.1 34.7 C 112.9 34.8 112.6 35.7 112.2 35.6 C 111.8 35.5 112.6 35.0 112.2 34.9 C 111.8 34.8 111.2 34.6 111.0 34.6 C 110.8 34.6 110.6 35.0 110.3 35.0 C 110.0 35.1 109.6 35.8 109.1 35.8 C 108.6 35.8 108.4 35.4 108.2 35.3 C 108.1 35.2 107.9 34.5 107.6 34.5 C 107.2 34.5 107.5 34.9 107.1 34.9 C 106.7 34.9 106.7 35.4 106.4 35.3 C 106.0 35.2 106.3 34.4 105.9 34.5 C 105.7 34.6 105.9 34.5 104.8 34.6 C 104.8 34.6 104.8 34.6 104.8 34.6 Z M 124.5 32.1 C 124.0 32.1 124.0 32.7 124.3 32.9 C 124.6 33.2 125.4 33.8 125.4 34.1 C 125.5 34.4 125.4 35.4 126.3 34.8 C 127.1 34.2 127.0 33.8 126.9 33.7 C 126.7 33.6 126.0 32.8 126.3 32.6 C 126.5 32.5 126.8 32.5 127.0 32.5 C 127.1 32.5 128.2 32.7 128.3 32.2 C 128.4 31.7 128.4 31.2 128.4 31.2 C 128.5 30.9 128.6 30.7 128.6 30.5 C 128.6 30.5 129.4 30.1 129.4 29.6 C 129.3 29.2 129.4 28.7 129.5 28.4 C 129.6 28.1 129.6 27.7 129.3 27.7 C 129.1 27.6 128.3 27.1 128.3 27.1 C 128.3 27.1 128.1 26.6 128.3 26.4 C 128.5 26.1 128.9 26.1 129.1 26.2 C 129.3 26.2 129.7 26.2 129.9 25.9 C 130.0 25.5 130.5 23.8 130.2 23.5 C 129.9 23.2 129.6 23.3 129.5 23.0 C 129.4 22.8 129.3 21.4 129.6 21.3 C 129.8 21.2 130.3 21.2 130.2 20.9 C 130.2 20.6 130.3 20.0 130.2 20.0 C 130.1 20.0 129.9 19.8 129.6 19.8 C 129.4 19.7 129.1 19.1 129.0 19.0 C 128.9 18.9 128.8 18.4 128.8 18.4 C 129.0 18.2 129.1 17.9 129.3 17.6 C 129.3 17.6 129.8 18.1 129.9 18.4 C 130.0 18.6 130.3 18.2 130.3 17.9 C 130.4 17.7 130.3 16.2 130.3 16.2 C 129.9 16.2 129.5 16.1 129.1 16.1 C 129.1 15.8 129.0 15.5 128.9 15.1 C 128.9 15.1 130.2 15.3 130.2 14.7 C 130.2 14.1 130.2 13.4 130.2 13.4 C 130.2 13.4 129.6 12.9 129.6 12.7 C 129.5 12.6 128.3 12.7 128.3 12.7 C 127.9 12.7 127.4 12.8 126.9 12.9 C 126.9 12.9 126.5 13.5 126.7 13.8 C 126.9 14.1 127.4 13.8 127.7 13.9 C 127.9 13.9 128.1 14.5 128.1 14.5 C 127.9 14.7 127.6 15.0 127.4 15.3 C 127.4 15.3 127.1 15.5 126.9 15.8 C 126.7 16.1 126.5 17.1 126.6 17.4 C 126.7 17.8 127.1 18.2 127.3 18.5 C 127.5 18.8 127.9 18.7 127.6 19.1 C 127.3 19.4 126.9 19.6 126.9 19.8 C 126.9 20.0 127.4 20.8 127.4 20.8 C 127.5 21.0 127.6 21.3 127.7 21.6 C 127.7 21.6 127.9 22.4 127.7 22.5 C 127.4 22.6 127.7 24.0 127.7 24.0 C 127.7 24.0 126.9 23.9 126.7 24.2 C 126.6 24.5 126.4 25.0 126.5 25.5 C 126.6 25.9 127.4 26.3 127.4 26.3 C 127.2 26.4 127.0 26.5 126.7 26.6 C 126.6 27.0 126.6 27.3 126.4 27.7 C 126.4 27.7 126.4 28.4 126.5 28.4 C 126.6 28.4 127.3 28.5 127.5 28.6 C 127.7 28.7 127.8 29.1 127.6 29.1 C 127.3 29.1 126.6 29.3 126.6 29.3 C 126.6 29.3 126.2 29.4 126.0 29.6 C 125.9 29.8 125.9 30.3 126.0 30.4 C 126.1 30.6 126.3 31.2 126.3 31.2 C 126.1 31.2 125.8 31.2 125.6 31.2 C 125.6 31.2 125.4 32.0 124.5 32.1 C 124.5 32.1 124.5 32.1 124.5 32.1 Z M 126.5 12.6 C 126.6 13.4 129.2 12.6 129.7 12.2 C 130.2 11.7 129.8 11.1 129.7 10.5 C 129.7 9.8 128.9 10.2 128.6 9.9 C 128.3 9.6 128.8 9.6 129.2 9.4 C 129.5 9.1 128.7 8.0 128.4 7.3 C 128.0 6.6 126.9 6.5 126.4 6.1 C 126.0 5.7 126.4 6.7 125.8 6.0 C 125.2 5.3 125.9 5.2 126.8 6.0 C 127.8 6.7 126.9 5.2 126.5 4.7 C 126.0 4.1 124.9 3.8 124.4 3.4 C 124.0 3.1 124.2 4.0 123.6 3.7 C 122.9 3.3 123.6 2.8 122.8 2.4 C 122.1 2.0 122.1 2.7 121.7 2.8 C 121.4 2.9 121.5 2.5 121.3 2.4 C 121.1 2.3 120.7 2.0 120.1 2.1 C 119.5 2.1 119.6 2.4 119.3 2.4 C 119.1 2.4 118.6 2.4 118.6 2.4 C 118.6 2.1 118.5 1.9 118.5 1.7 C 118.5 1.7 117.3 1.6 116.9 1.5 C 116.5 1.4 115.6 1.7 115.8 1.9 C 116.1 2.0 115.1 2.5 114.9 2.4 C 114.7 2.3 113.9 1.9 113.3 1.8 C 112.7 1.6 112.9 3.3 112.9 3.6 C 112.9 3.8 112.7 4.8 113.1 4.9 C 113.4 5.0 114.0 4.6 113.9 4.9 C 113.8 5.1 115.2 4.9 115.5 4.9 C 115.9 4.9 116.3 4.2 116.3 4.2 C 116.3 4.2 116.6 3.7 117.1 3.7 C 117.6 3.7 117.7 4.8 117.7 4.8 C 117.7 4.8 118.2 5.0 118.7 5.0 C 119.2 5.0 119.8 4.2 119.9 4.0 C 120.1 3.9 119.9 4.7 120.2 4.8 C 120.5 5.0 120.9 5.3 121.0 5.3 C 121.1 5.3 121.5 4.8 121.5 4.8 C 121.5 4.8 122.2 4.7 122.3 4.8 C 122.5 4.8 121.9 5.5 121.9 5.5 C 121.9 5.5 123.0 6.3 123.1 6.5 C 123.3 6.7 123.8 6.8 124.0 6.9 C 124.1 6.9 125.1 6.4 125.2 6.7 C 125.4 7.0 124.5 7.0 124.7 7.2 C 124.8 7.5 125.0 8.1 125.1 8.2 C 125.2 8.3 125.5 8.3 125.7 8.5 C 125.9 8.6 126.7 8.6 126.9 9.0 C 127.1 9.4 126.7 9.8 126.7 9.9 C 126.6 10.1 126.0 10.3 126.1 10.6 C 126.1 10.8 126.5 10.6 126.6 10.8 C 126.6 11.1 127.1 11.0 127.0 11.2 C 127.0 11.5 126.2 11.5 126.3 11.8 C 126.4 11.9 126.4 11.7 126.5 12.6 C 126.5 12.6 126.5 12.6 126.5 12.6 Z M 112.2 4.8 C 112.7 5.1 113.1 4.7 113.1 4.3 C 113.0 3.9 112.8 3.0 113.0 2.7 C 113.2 2.4 113.8 1.7 112.9 1.6 C 112.0 1.4 111.8 1.7 111.8 1.9 C 111.8 2.2 111.6 3.2 111.4 3.1 C 111.2 3.0 110.9 2.7 110.8 2.6 C 110.8 2.5 110.4 1.5 110.0 1.6 C 109.6 1.8 109.2 2.0 109.2 2.0 C 108.9 2.1 108.7 2.1 108.5 2.1 C 108.5 2.1 107.9 1.5 107.4 1.6 C 106.9 1.8 106.4 1.8 106.0 1.7 C 105.7 1.7 105.3 1.8 105.3 2.0 C 105.2 2.2 104.7 3.1 104.7 3.1 C 104.7 3.1 104.2 3.3 103.9 3.2 C 103.7 3.0 103.6 2.5 103.7 2.4 C 103.8 2.2 103.7 1.7 103.3 1.6 C 103.0 1.5 101.4 1.1 101.2 1.3 C 100.9 1.6 101.0 2.0 100.8 2.1 C 100.6 2.2 99.6 2.2 99.5 2.0 C 99.4 1.8 99.5 1.2 99.2 1.3 C 98.9 1.3 98.3 1.2 98.3 1.3 C 98.3 1.5 98.1 1.6 98.1 1.9 C 98.0 2.2 97.4 2.4 97.3 2.5 C 97.2 2.7 96.7 2.7 96.7 2.7 C 96.5 2.6 96.3 2.4 96.1 2.3 C 96.1 2.3 96.5 1.8 96.7 1.7 C 96.8 1.6 96.5 1.2 96.4 1.2 C 96.2 1.2 95.0 1.2 95.0 1.2 C 95.0 1.6 95.0 2.0 95.0 2.4 C 94.7 2.5 94.4 2.6 94.1 2.6 C 94.1 2.6 94.3 1.3 93.7 1.3 C 93.2 1.3 92.5 1.3 92.5 1.3 C 92.5 1.3 91.9 1.8 91.8 1.8 C 91.7 1.9 91.6 3.1 91.6 3.1 C 91.6 3.6 91.7 4.0 91.7 4.5 C 91.7 4.5 92.4 5.0 92.8 4.8 C 93.1 4.6 92.8 4.1 92.9 3.8 C 92.9 3.6 93.5 3.4 93.5 3.4 C 93.7 3.6 94.0 3.9 94.2 4.2 C 94.2 4.2 94.4 4.4 94.7 4.6 C 94.9 4.9 95.8 5.0 96.0 4.9 C 96.2 4.8 96.5 4.5 96.8 4.3 C 97.1 4.0 97.0 3.6 97.4 3.9 C 97.7 4.3 97.9 4.6 98.1 4.6 C 98.3 4.6 99.1 4.2 99.1 4.2 C 99.3 4.1 99.5 3.9 99.7 3.8 C 99.7 3.8 100.3 3.6 100.4 3.9 C 100.5 4.2 101.7 3.8 101.7 3.8 C 101.7 3.8 101.5 4.7 101.8 4.8 C 102.1 5.0 102.6 5.1 103.1 5.0 C 103.6 4.9 103.9 4.1 103.9 4.1 C 104.1 4.3 104.2 4.5 104.4 4.7 C 104.8 4.7 105.3 4.8 105.7 4.9 C 105.7 4.9 106.8 4.8 106.8 4.7 C 106.8 4.5 106.6 3.8 106.7 3.7 C 106.8 3.5 107.3 3.2 107.4 3.5 C 107.4 3.7 107.9 4.4 107.9 4.4 C 107.9 4.4 108.3 4.8 108.6 4.8 C 108.9 4.9 109.4 4.6 109.5 4.5 C 109.6 4.4 110.1 3.8 110.1 3.8 C 110.3 4.1 110.4 4.3 110.5 4.5 C 110.5 4.5 111.3 4.2 112.2 4.8 C 112.2 4.8 112.2 4.8 112.2 4.8 Z M 91.3 4.9 C 92.4 4.9 91.6 2.2 91.2 1.7 C 90.8 1.1 90.1 1.5 89.4 1.4 C 88.7 1.3 88.9 2.1 88.5 2.4 C 88.1 2.6 88.2 2.1 88.1 1.7 C 87.9 1.3 86.8 1.6 86.1 1.6 C 85.5 1.5 84.8 2.4 84.2 2.5 C 83.7 2.5 84.7 2.9 83.8 2.9 C 82.8 2.8 83.3 2.4 84.4 2.1 C 85.5 1.8 83.9 1.6 83.3 1.5 C 82.7 1.4 81.3 1.8 80.7 1.7 C 80.1 1.7 80.8 2.4 80.0 2.4 C 79.3 2.3 79.6 1.6 78.9 1.6 C 78.1 1.5 78.3 2.1 77.9 2.3 C 77.6 2.5 77.6 2.1 77.4 2.0 C 77.1 2.0 76.6 1.9 76.0 2.1 C 75.5 2.3 75.7 2.5 75.4 2.6 C 75.2 2.7 74.7 2.8 74.7 2.8 C 74.7 2.6 74.6 2.4 74.5 2.1 C 74.5 2.1 73.3 2.4 72.9 2.5 C 72.5 2.7 71.8 3.4 72.1 3.4 C 72.4 3.4 71.8 4.2 71.6 4.2 C 71.4 4.3 70.7 4.4 70.2 4.6 C 69.8 4.8 71.0 5.9 71.2 6.1 C 71.4 6.3 71.9 7.1 72.1 7.0 C 72.4 6.9 72.4 6.5 72.5 6.7 C 72.6 6.9 73.2 6.2 73.4 6.1 C 73.6 6.0 73.6 5.3 73.6 5.3 C 73.6 5.3 73.6 4.7 74.0 4.5 C 74.4 4.3 74.8 5.3 74.8 5.3 C 74.8 5.3 75.2 5.4 75.6 5.3 C 76.0 5.2 76.4 4.2 76.5 4.0 C 76.5 3.8 76.6 4.6 77.0 4.7 C 77.3 4.7 77.8 5.0 78.0 4.9 C 78.1 4.8 78.4 4.3 78.4 4.3 C 78.4 4.3 79.1 3.9 79.3 3.9 C 79.5 3.9 79.2 4.7 79.2 4.7 C 79.2 4.7 81.0 4.9 81.4 5.0 C 81.9 5.0 82.6 4.8 82.9 4.8 C 83.3 4.7 83.5 3.7 83.9 3.8 C 84.2 3.9 83.5 4.5 83.9 4.6 C 84.2 4.7 84.9 4.9 85.1 4.9 C 85.2 4.9 85.5 4.5 85.8 4.5 C 86.1 4.4 86.5 3.7 87.0 3.7 C 87.4 3.7 87.7 4.1 87.8 4.2 C 88.0 4.3 88.1 5.0 88.5 5.0 C 88.9 5.0 88.6 4.6 89.0 4.6 C 89.3 4.6 89.3 4.1 89.7 4.2 C 90.0 4.3 89.8 5.1 90.2 5.0 C 90.4 4.9 90.2 5.0 91.3 4.9 C 91.3 4.9 91.3 4.9 91.3 4.9 Z M 70.3 8.0 C 70.3 7.7 70.8 7.9 71.3 7.6 C 71.7 7.3 72.1 7.0 71.8 6.8 C 71.5 6.7 71.2 6.6 71.2 6.2 C 71.1 5.7 71.0 4.9 70.5 5.0 C 69.9 5.1 68.2 6.0 68.1 6.8 C 68.1 7.4 68.2 7.7 68.2 8.2 C 68.2 8.6 67.6 8.0 67.6 8.0 C 67.6 8.0 67.1 9.0 66.9 9.5 C 66.7 10.1 66.6 10.8 66.7 10.8 C 66.8 10.9 67.1 11.2 67.1 11.2 C 67.1 11.2 66.6 11.4 66.5 11.9 C 66.4 12.3 66.6 12.2 66.8 12.1 C 67.0 12.1 67.6 11.6 67.5 11.8 C 67.5 12.0 66.7 12.4 66.6 12.8 C 66.5 13.1 66.5 13.9 66.5 13.9 C 66.5 13.9 66.9 13.8 67.0 13.9 C 67.1 14.0 67.2 14.7 67.0 14.8 C 66.8 14.8 66.4 14.7 66.3 15.1 C 66.2 16.5 67.1 16.4 67.1 16.5 C 67.2 16.6 66.5 16.6 66.4 17.0 C 66.3 17.4 66.4 20.0 66.5 20.1 C 66.7 20.2 66.1 21.0 66.5 21.5 C 66.9 22.0 67.1 22.1 67.2 22.2 C 67.3 22.3 68.0 22.8 67.7 23.1 C 67.4 23.4 66.7 22.2 66.5 22.6 C 66.2 22.9 66.2 24.7 66.4 24.9 C 66.7 25.3 67.4 25.4 67.4 25.6 C 67.4 25.8 66.6 26.6 66.8 26.7 C 66.9 26.7 67.6 26.8 67.7 26.8 C 67.9 26.7 69.1 26.9 69.3 26.7 C 69.4 26.5 69.9 25.8 69.5 25.9 C 69.2 26.0 68.7 26.2 68.6 25.9 C 68.4 25.7 68.3 25.5 68.5 25.4 C 68.6 25.3 68.8 25.5 69.0 25.0 C 69.2 24.5 69.5 24.7 69.5 24.2 C 69.4 23.7 69.4 23.1 69.1 23.2 C 68.8 23.3 68.4 22.6 68.4 22.2 C 68.4 21.7 69.1 22.1 69.3 21.0 C 69.5 19.9 69.6 19.3 69.4 18.9 C 69.1 18.6 68.4 18.6 68.7 17.9 C 69.0 17.2 69.2 17.5 69.2 16.6 C 69.2 15.8 68.6 15.5 68.6 15.0 C 68.6 14.5 68.6 14.4 68.6 14.4 C 68.6 14.4 69.4 14.6 69.5 13.7 C 69.6 12.8 69.7 12.7 69.1 12.8 C 68.5 12.9 68.5 12.3 68.9 12.3 C 69.3 12.3 69.6 11.9 69.7 11.6 C 69.8 11.4 68.8 11.2 68.8 11.0 C 68.8 10.9 68.9 10.7 69.2 10.8 C 69.5 11.0 69.6 10.7 69.8 10.6 C 70.0 10.4 70.1 9.8 69.9 9.7 C 69.8 9.7 69.0 9.8 69.5 9.4 C 70.0 9.0 70.5 9.1 70.8 8.7 C 71.0 8.3 70.2 8.3 70.3 8.0 C 70.3 8.0 70.3 8.0 70.3 8.0 Z M 69.6 27.3 C 69.9 26.9 69.4 26.6 69.0 26.7 C 68.7 26.8 67.7 27.0 67.4 26.9 C 67.1 26.7 66.4 26.2 66.3 27.1 C 66.3 27.9 66.6 28.1 66.8 28.0 C 67.0 28.0 68.1 28.0 68.0 28.2 C 67.9 28.4 67.7 28.7 67.6 28.7 C 67.5 28.8 66.6 29.3 66.8 29.7 C 67.0 30.0 67.4 30.3 67.4 30.3 C 67.5 30.5 67.6 30.8 67.7 31.0 C 67.7 31.0 67.5 31.9 67.9 32.3 C 68.3 32.7 68.6 33.2 68.8 33.5 C 69.1 33.9 69.4 34.1 69.6 34.0 C 69.8 33.9 70.8 33.7 70.8 33.7 C 70.8 33.7 71.3 33.9 71.4 34.1 C 71.5 34.4 71.3 34.8 71.1 34.9 C 71.0 35.0 70.7 35.4 71.0 35.7 C 71.3 36.0 72.8 37.3 73.1 37.2 C 73.5 37.0 73.6 36.7 73.8 36.6 C 74.0 36.6 74.9 36.8 74.9 37.0 C 74.9 37.2 74.7 37.7 75.0 37.7 C 75.3 37.8 75.8 38.0 75.8 37.8 C 75.9 37.7 76.1 37.6 76.1 37.3 C 76.2 37.1 76.7 36.9 76.8 36.8 C 77.0 36.6 77.4 36.6 77.4 36.6 C 77.6 36.8 77.7 37.0 77.9 37.1 C 77.9 37.1 77.6 37.6 77.4 37.7 C 77.2 37.8 77.5 38.1 77.6 38.2 C 77.8 38.2 79.0 38.2 79.0 38.2 C 79.0 37.8 79.1 37.4 79.1 37.0 C 79.4 37.0 79.7 36.9 80.0 36.8 C 80.0 36.8 79.9 38.2 80.5 38.2 C 81.2 38.2 82.1 38.2 82.1 38.2 C 82.1 38.2 82.8 37.7 83.0 37.6 C 83.2 37.6 83.3 36.4 83.3 36.4 C 83.3 35.9 83.2 35.5 83.2 35.0 C 83.2 35.0 82.2 34.5 81.7 34.7 C 81.3 34.9 81.7 35.4 81.6 35.6 C 81.5 35.9 80.8 36.1 80.8 36.1 C 80.5 35.8 80.2 35.6 80.0 35.3 C 80.0 35.3 79.7 35.1 79.5 34.8 C 79.2 34.6 78.4 34.4 78.2 34.5 C 78.0 34.6 77.7 34.9 77.5 35.1 C 77.2 35.3 77.2 35.7 76.9 35.4 C 76.7 35.0 76.6 34.6 76.5 34.6 C 76.3 34.6 75.7 35.0 75.7 35.0 C 75.5 35.0 75.3 35.1 75.1 35.2 C 75.1 35.2 74.6 35.3 74.6 35.0 C 74.7 34.7 73.6 34.7 73.6 34.7 C 73.6 34.7 74.1 34.0 73.9 33.7 C 73.8 33.5 73.5 33.2 73.1 33.1 C 72.7 33.0 72.0 33.4 72.0 33.4 C 72.0 33.2 72.1 32.9 72.1 32.7 C 71.9 32.4 71.6 32.1 71.5 31.8 C 71.5 31.8 70.9 31.1 70.8 31.2 C 70.7 31.3 70.2 31.8 70.0 31.8 C 69.8 31.9 69.3 31.6 69.5 31.4 C 69.7 31.2 70.0 30.5 70.0 30.5 C 70.0 30.5 70.2 30.0 70.2 29.8 C 70.1 29.5 69.8 29.3 69.7 29.3 C 69.5 29.3 68.9 29.0 68.9 29.0 C 69.1 28.9 69.3 28.7 69.5 28.6 C 69.5 28.6 69.0 28.1 69.6 27.3 C 69.6 27.3 69.6 27.3 69.6 27.3 Z M 69.6 27.3 " fill="#71AFE1"></path></g></g></g></svg>