<?xml version="1.0" encoding="UTF-8" standalone="no"?><svg xmlns="http://www.w3.org/2000/svg" xmlns:xlink="http://www.w3.org/1999/xlink" clip-rule="evenodd" stroke-miterlimit="4.00" viewBox="0 0 650 47"><desc>SVG generated by Keynote</desc><defs></defs><g transform="matrix(1.00, 0.00, -0.00, -1.00, 0.0, 47.0)"><text xml:space="preserve" font-family="Chalkduster" font-size="25.0" fill="#FEFFFE" transform="matrix(1.00, 0.00, -0.00, -1.00, 2.0, 16.0)">h</text><text xml:space="preserve" font-family="Chalkduster" font-size="25.0" fill="#FEFFFE" transform="matrix(1.00, 0.00, -0.00, -1.00, 16.3, 16.0)">t</text><text xml:space="preserve" font-family="Chalkduster" font-size="25.0" fill="#FEFFFE" transform="matrix(1.00, 0.00, -0.00, -1.00, 26.7, 16.0)">t</text><text xml:space="preserve" font-family="Chalkduster" font-size="25.0" fill="#FEFFFE" transform="matrix(1.00, 0.00, -0.00, -1.00, 38.1, 16.0)">p</text><text xml:space="preserve" font-family="Chalkduster" font-size="25.0" fill="#FEFFFE" transform="matrix(1.00, 0.00, -0.00, -1.00, 53.6, 16.0)">s</text><text xml:space="preserve" font-family="Chalkduster" font-size="25.0" fill="#FEFFFE" transform="matrix(1.00, 0.00, -0.00, -1.00, 65.2, 16.0)">:</text><text xml:space="preserve" font-family="Chalkduster" font-size="25.0" fill="#FEFFFE" transform="matrix(1.00, 0.00, -0.00, -1.00, 73.4, 16.0)">/</text><text xml:space="preserve" font-family="Chalkduster" font-size="25.0" fill="#FEFFFE" transform="matrix(1.00, 0.00, -0.00, -1.00, 85.2, 16.0)">/</text><text xml:space="preserve" font-family="Chalkduster" font-size="25.0" fill="#FEFFFE" transform="matrix(1.00, 0.00, -0.00, -1.00, 98.7, 16.0)">g</text><text xml:space="preserve" font-family="Chalkduster" font-size="25.0" fill="#FEFFFE" transform="matrix(1.00, 0.00, -0.00, -1.00, 116.6, 16.0)">i</text><text xml:space="preserve" font-family="Chalkduster" font-size="25.0" fill="#FEFFFE" transform="matrix(1.00, 0.00, -0.00, -1.00, 126.8, 16.0)">t</text><text xml:space="preserve" font-family="Chalkduster" font-size="25.0" fill="#FEFFFE" transform="matrix(1.00, 0.00, -0.00, -1.00, 138.7, 16.0)">h</text><text xml:space="preserve" font-family="Chalkduster" font-size="25.0" fill="#FEFFFE" transform="matrix(1.00, 0.00, -0.00, -1.00, 154.1, 16.0)">u</text><text xml:space="preserve" font-family="Chalkduster" font-size="25.0" fill="#FEFFFE" transform="matrix(1.00, 0.00, -0.00, -1.00, 171.3, 16.0)">b</text><text xml:space="preserve" font-family="Chalkduster" font-size="25.0" fill="#FEFFFE" transform="matrix(1.00, 0.00, -0.00, -1.00, 183.9, 16.0)">.</text><text xml:space="preserve" font-family="Chalkduster" font-size="25.0" fill="#FEFFFE" transform="matrix(1.00, 0.00, -0.00, -1.00, 191.4, 16.0)">c</text><text xml:space="preserve" font-family="Chalkduster" font-size="25.0" fill="#FEFFFE" transform="matrix(1.00, 0.00, -0.00, -1.00, 206.4, 16.0)">o</text><text xml:space="preserve" font-family="Chalkduster" font-size="25.0" fill="#FEFFFE" transform="matrix(1.00, 0.00, -0.00, -1.00, 225.1, 16.0)">m</text><text xml:space="preserve" font-family="Chalkduster" font-size="25.0" fill="#FEFFFE" transform="matrix(1.00, 0.00, -0.00, -1.00, 250.4, 16.0)">/</text><text xml:space="preserve" font-family="Chalkduster" font-size="25.0" fill="#FEFFFE" transform="matrix(1.00, 0.00, -0.00, -1.00, 267.4, 16.0)">N</text><text xml:space="preserve" font-family="Chalkduster" font-size="25.0" fill="#FEFFFE" transform="matrix(1.00, 0.00, -0.00, -1.00, 286.7, 16.0)">B</text><text xml:space="preserve" font-family="Chalkduster" font-size="25.0" fill="#FEFFFE" transform="matrix(1.00, 0.00, -0.00, -1.00, 303.4, 16.0)">I</text><text xml:space="preserve" font-family="Chalkduster" font-size="25.0" fill="#FEFFFE" transform="matrix(1.00, 0.00, -0.00, -1.00, 318.3, 16.0)">S</text><text xml:space="preserve" font-family="Chalkduster" font-size="25.0" fill="#FEFFFE" transform="matrix(1.00, 0.00, -0.00, -1.00, 330.7, 16.0)">w</text><text xml:space="preserve" font-family="Chalkduster" font-size="25.0" fill="#FEFFFE" transform="matrix(1.00, 0.00, -0.00, -1.00, 351.1, 16.0)">e</text><text xml:space="preserve" font-family="Chalkduster" font-size="25.0" fill="#FEFFFE" transform="matrix(1.00, 0.00, -0.00, -1.00, 367.4, 16.0)">d</text><text xml:space="preserve" font-family="Chalkduster" font-size="25.0" fill="#FEFFFE" transform="matrix(1.00, 0.00, -0.00, -1.00, 386.9, 16.0)">e</text><text xml:space="preserve" font-family="Chalkduster" font-size="25.0" fill="#FEFFFE" transform="matrix(1.00, 0.00, -0.00, -1.00, 402.7, 16.0)">n</text><text xml:space="preserve" font-family="Chalkduster" font-size="25.0" fill="#FEFFFE" transform="matrix(1.00, 0.00, -0.00, -1.00, 421.0, 16.0)">/</text><text xml:space="preserve" font-family="Chalkduster" font-size="25.0" fill="#FEFFFE" transform="matrix(1.00, 0.00, -0.00, -1.00, 436.9, 16.0)">P</text><text xml:space="preserve" font-family="Chalkduster" font-size="25.0" fill="#FEFFFE" transform="matrix(1.00, 0.00, -0.00, -1.00, 454.7, 16.0)">y</text><text xml:space="preserve" font-family="Chalkduster" font-size="25.0" fill="#FEFFFE" transform="matrix(1.00, 0.00, -0.00, -1.00, 469.9, 16.0)">t</text><text xml:space="preserve" font-family="Chalkduster" font-size="25.0" fill="#FEFFFE" transform="matrix(1.00, 0.00, -0.00, -1.00, 481.8, 16.0)">h</text><text xml:space="preserve" font-family="Chalkduster" font-size="25.0" fill="#FEFFFE" transform="matrix(1.00, 0.00, -0.00, -1.00, 497.3, 16.0)">o</text><text xml:space="preserve" font-family="Chalkduster" font-size="25.0" fill="#FEFFFE" transform="matrix(1.00, 0.00, -0.00, -1.00, 515.9, 16.0)">n</text><text xml:space="preserve" font-family="Chalkduster" font-size="25.0" fill="#FEFFFE" transform="matrix(1.00, 0.00, -0.00, -1.00, 534.2, 16.0)">C</text><text xml:space="preserve" font-family="Chalkduster" font-size="25.0" fill="#FEFFFE" transform="matrix(1.00, 0.00, -0.00, -1.00, 554.5, 16.0)">o</text><text xml:space="preserve" font-family="Chalkduster" font-size="25.0" fill="#FEFFFE" transform="matrix(1.00, 0.00, -0.00, -1.00, 573.2, 16.0)">u</text><text xml:space="preserve" font-family="Chalkduster" font-size="25.0" fill="#FEFFFE" transform="matrix(1.00, 0.00, -0.00, -1.00, 590.8, 16.0)">r</text><text xml:space="preserve" font-family="Chalkduster" font-size="25.0" fill="#FEFFFE" transform="matrix(1.00, 0.00, -0.00, -1.00, 603.7, 16.0)">s</text><text xml:space="preserve" font-family="Chalkduster" font-size="25.0" fill="#FEFFFE" transform="matrix(1.00, 0.00, -0.00, -1.00, 616.3, 16.0)">e</text><text xml:space="preserve" font-family="Chalkduster" font-size="25.0" fill="#FEFFFE" transform="matrix(1.00, 0.00, -0.00, -1.00, 631.8, 16.0)">/</text><g><clipPath id="clip-122"><path d="M 0.6 11.2 L 648.4 11.2 L 648.4 13.8 L 0.6 13.8 Z M 0.6 11.2 "></path></clipPath><g clip-path="url(#clip-122)"><path d="M 4.5 38.3 L 651.3 38.3 " fill="none" stroke="#FEFFFE" stroke-width="0.55" stroke-miterlimit="0.00" transform="matrix(1.00, 0.00, 0.00, -1.00, -2.9, 50.8)"></path></g></g></g></svg>