<?xml version="1.0" encoding="UTF-8" standalone="no"?><svg xmlns="http://www.w3.org/2000/svg" xmlns:xlink="http://www.w3.org/1999/xlink" clip-rule="evenodd" stroke-miterlimit="4.00" viewBox="0 0 177 46"><desc>SVG generated by Keynote</desc><defs></defs><g transform="matrix(1.00, 0.00, -0.00, -1.00, 0.0, 46.0)"><path d="M 151.7 35.4 C 151.4 35.6 151.0 35.2 150.0 35.2 C 149.1 35.3 147.9 35.6 148.2 35.8 C 148.5 36.1 148.9 36.2 148.5 36.7 C 148.1 37.2 147.6 38.0 148.4 38.1 C 149.1 38.2 151.9 38.3 152.6 37.7 C 153.3 37.1 153.5 36.9 154.0 36.5 C 154.5 36.1 154.3 37.0 154.3 37.0 C 154.3 37.0 155.6 36.8 156.6 36.5 C 157.5 36.3 158.5 36.0 158.5 35.8 C 158.6 35.7 158.8 35.3 158.8 35.3 C 158.8 35.3 159.4 35.5 160.0 35.4 C 160.6 35.2 160.3 35.1 160.2 34.9 C 160.0 34.8 159.1 34.6 159.4 34.5 C 159.6 34.4 160.7 34.9 161.1 34.8 C 161.5 34.7 162.4 34.3 162.4 34.3 C 162.4 34.3 162.2 33.9 162.2 33.8 C 162.2 33.6 163.0 33.3 163.1 33.4 C 163.2 33.5 163.4 34.0 163.8 33.8 C 165.1 33.4 164.5 32.6 164.6 32.6 C 164.7 32.5 165.0 33.1 165.3 33.1 C 165.6 33.0 167.7 31.8 167.7 31.6 C 167.7 31.4 168.7 31.5 168.7 31.0 C 168.8 30.5 168.8 30.3 168.8 30.2 C 168.8 30.1 168.7 29.3 169.0 29.4 C 169.3 29.5 169.1 30.6 169.4 30.6 C 169.7 30.7 170.8 29.9 170.8 29.6 C 170.8 29.2 170.4 28.7 170.6 28.6 C 170.7 28.5 171.7 28.7 171.7 28.5 C 171.6 28.4 171.1 27.9 171.0 27.8 C 171.0 27.7 170.2 26.7 170.0 26.6 C 169.8 26.6 169.1 26.6 169.4 26.8 C 169.7 27.0 170.1 27.3 170.0 27.5 C 170.0 27.8 169.9 27.9 169.8 27.8 C 169.7 27.8 169.7 27.6 169.2 27.6 C 168.8 27.7 168.8 27.3 168.5 27.6 C 168.3 27.8 168.0 28.0 168.2 28.2 C 168.4 28.4 168.3 29.0 168.1 29.1 C 167.8 29.3 167.9 28.5 167.0 28.8 C 166.1 29.1 165.5 29.3 165.4 29.7 C 165.2 30.0 165.5 30.7 164.9 30.7 C 164.3 30.6 164.5 30.3 163.8 30.6 C 163.2 31.0 163.1 31.6 162.7 31.8 C 162.2 32.1 162.1 32.1 162.1 32.1 C 162.1 32.1 162.0 31.2 160.9 31.6 C 159.8 32.0 159.5 32.0 160.0 32.5 C 160.4 33.0 159.6 33.3 159.4 33.0 C 159.2 32.6 158.4 32.6 158.0 32.7 C 157.5 32.8 157.7 33.8 157.5 33.9 C 157.4 34.0 156.8 34.1 156.9 33.7 C 157.0 33.4 156.5 33.5 156.1 33.5 C 155.6 33.5 154.4 34.0 154.5 34.1 C 154.5 34.3 155.3 34.7 154.4 34.7 C 153.4 34.6 153.0 34.2 152.2 34.4 C 151.3 34.7 152.2 35.1 151.7 35.4 C 151.7 35.4 151.7 35.4 151.7 35.4 Z M 169.9 26.2 C 169.5 26.7 171.7 28.3 172.3 28.4 C 172.9 28.5 173.0 27.9 173.4 27.5 C 173.8 27.1 173.0 26.8 172.9 26.5 C 172.8 26.1 173.2 26.5 173.6 26.5 C 174.0 26.6 174.1 25.8 174.3 25.4 C 174.4 25.0 173.7 24.3 173.7 24.0 C 173.7 23.7 173.2 24.2 173.3 23.7 C 173.4 23.2 173.9 23.4 174.1 24.1 C 174.2 24.8 174.6 23.9 174.7 23.5 C 174.8 23.1 174.4 22.5 174.4 22.1 C 174.4 21.8 173.8 22.3 173.7 21.9 C 173.6 21.5 174.3 21.5 174.3 21.1 C 174.2 20.6 173.6 20.9 173.4 20.7 C 173.2 20.6 173.5 20.5 173.5 20.3 C 173.4 20.1 173.4 19.7 173.1 19.4 C 172.7 19.1 172.6 19.3 172.4 19.2 C 172.3 19.0 172.0 18.7 172.0 18.7 C 172.2 18.6 172.3 18.4 172.5 18.2 C 172.5 18.2 171.9 17.5 171.7 17.3 C 171.5 17.1 170.8 16.8 170.9 17.1 C 170.9 17.3 170.1 17.2 170.1 17.0 C 170.0 16.9 169.8 16.3 169.6 16.0 C 169.4 15.6 168.5 17.1 168.3 17.3 C 168.2 17.5 167.5 18.2 167.7 18.4 C 167.9 18.6 168.2 18.5 168.1 18.7 C 167.9 18.8 168.6 19.1 168.8 19.2 C 169.0 19.4 169.6 19.0 169.6 19.0 C 169.6 19.0 170.1 18.8 170.3 19.0 C 170.5 19.2 169.8 20.1 169.8 20.1 C 169.8 20.1 169.9 20.4 170.2 20.7 C 170.4 20.9 171.3 20.6 171.5 20.6 C 171.7 20.5 171.0 21.0 171.0 21.2 C 171.1 21.4 171.0 21.7 171.0 21.8 C 171.1 21.8 171.7 21.7 171.7 21.7 C 171.7 21.7 172.1 21.9 172.1 22.0 C 172.1 22.1 171.3 22.2 171.3 22.2 C 171.3 22.2 171.3 22.8 171.2 22.9 C 171.2 23.0 171.4 23.2 171.4 23.3 C 171.5 23.3 172.5 23.5 172.4 23.7 C 172.2 23.8 171.7 23.5 171.6 23.6 C 171.5 23.7 171.3 23.9 171.3 23.9 C 171.3 24.0 171.6 24.2 171.6 24.3 C 171.6 24.4 172.2 24.9 172.1 25.1 C 172.0 25.3 171.6 25.2 171.5 25.2 C 171.3 25.2 170.8 25.0 170.7 25.1 C 170.5 25.2 171.0 25.4 170.9 25.5 C 170.8 25.7 171.2 25.9 171.0 26.0 C 170.8 26.1 170.3 25.6 170.2 25.8 C 170.2 25.9 170.2 25.8 169.9 26.2 C 169.9 26.2 169.9 26.2 169.9 26.2 Z M 167.2 17.9 C 167.3 18.5 167.8 18.3 168.0 18.0 C 168.2 17.6 168.6 16.7 168.9 16.6 C 169.2 16.5 170.0 16.2 169.4 15.6 C 168.8 15.0 168.5 15.2 168.4 15.4 C 168.3 15.6 167.6 16.4 167.5 16.2 C 167.3 16.0 167.3 15.6 167.3 15.5 C 167.3 15.3 167.5 14.3 167.0 14.2 C 166.6 14.1 166.1 14.2 166.1 14.2 C 165.9 14.1 165.6 14.0 165.4 13.9 C 165.4 13.9 165.1 13.1 164.5 13.0 C 164.0 12.9 163.4 12.6 163.0 12.4 C 162.6 12.2 162.2 12.1 162.0 12.3 C 161.9 12.5 161.0 13.0 161.0 13.0 C 161.0 13.0 160.3 13.0 160.1 12.8 C 159.8 12.6 159.9 12.1 160.1 11.9 C 160.2 11.8 160.3 11.3 159.9 11.1 C 159.4 10.8 157.5 9.7 157.1 9.9 C 156.7 10.0 156.7 10.4 156.4 10.4 C 156.1 10.4 154.6 10.0 154.6 9.8 C 154.5 9.5 154.8 9.1 154.3 9.0 C 153.8 8.9 153.0 8.5 152.9 8.7 C 152.9 8.8 152.6 8.8 152.5 9.1 C 152.3 9.4 151.4 9.3 151.1 9.4 C 150.9 9.5 150.2 9.4 150.2 9.4 C 149.9 9.1 149.6 8.9 149.3 8.7 C 149.3 8.7 150.0 8.3 150.3 8.3 C 150.6 8.3 150.2 7.9 149.9 7.7 C 149.6 7.6 148.2 7.4 148.2 7.4 C 148.1 7.8 148.0 8.1 147.9 8.5 C 147.6 8.5 147.4 8.5 147.1 8.6 C 147.1 8.6 147.5 7.3 147.1 7.2 C 146.6 7.1 146.1 7.0 146.1 7.0 C 146.1 7.0 145.5 7.4 145.3 7.4 C 145.2 7.4 144.9 8.6 144.9 8.6 C 144.9 9.0 144.8 9.5 144.7 9.9 C 144.7 9.9 145.2 10.5 145.5 10.4 C 145.9 10.3 145.7 9.7 145.8 9.5 C 145.9 9.3 146.4 9.2 146.4 9.2 C 146.6 9.5 146.7 9.8 146.9 10.1 C 146.9 10.1 147.0 10.3 147.1 10.6 C 147.3 10.9 148.1 11.2 148.5 11.2 C 148.9 11.2 149.4 11.0 149.9 10.9 C 150.4 10.8 150.4 10.3 150.9 10.8 C 151.4 11.3 151.5 11.7 151.8 11.8 C 152.1 11.8 153.3 11.7 153.3 11.7 C 153.7 11.7 154.0 11.7 154.4 11.7 C 154.4 11.7 155.2 11.7 155.3 12.0 C 155.3 12.3 157.0 12.5 157.0 12.5 C 157.0 12.5 156.6 13.2 156.9 13.5 C 157.3 13.7 157.8 14.1 158.4 14.2 C 159.1 14.2 159.8 13.7 159.8 13.7 C 159.9 13.9 160.0 14.2 160.1 14.4 C 160.5 14.7 161.0 14.9 161.5 15.2 C 161.5 15.2 162.6 15.6 162.6 15.4 C 162.7 15.3 162.8 14.6 163.0 14.5 C 163.1 14.3 163.7 14.4 163.7 14.6 C 163.7 14.9 163.9 15.7 163.9 15.7 C 163.9 15.7 164.1 16.2 164.3 16.4 C 164.6 16.6 165.1 16.6 165.3 16.5 C 165.4 16.4 166.1 16.2 166.1 16.2 C 166.1 16.5 166.1 16.7 166.1 17.0 C 166.1 17.0 166.9 17.1 167.2 17.9 C 167.2 17.9 167.2 17.9 167.2 17.9 Z M 144.3 10.3 C 145.2 10.4 145.1 7.7 144.9 7.1 C 144.6 6.5 143.9 6.7 143.3 6.5 C 142.7 6.3 142.8 7.1 142.4 7.3 C 142.0 7.5 142.2 7.0 142.1 6.6 C 142.0 6.1 141.0 6.3 140.4 6.1 C 139.8 6.0 139.0 6.8 138.6 6.7 C 138.1 6.7 138.9 7.3 138.0 7.1 C 137.2 6.9 137.7 6.5 138.7 6.4 C 139.8 6.3 138.4 5.8 137.9 5.6 C 137.4 5.4 136.4 5.7 135.9 5.5 C 135.5 5.4 136.0 6.2 135.3 6.1 C 134.7 5.9 135.1 5.3 134.5 5.1 C 133.8 4.9 133.8 5.6 133.5 5.7 C 133.1 5.8 133.2 5.4 133.0 5.3 C 132.7 5.2 132.3 4.9 131.6 5.0 C 131.0 5.1 131.1 5.3 130.8 5.3 C 130.5 5.3 130.0 5.2 130.0 5.2 C 130.0 5.0 130.0 4.8 130.0 4.5 C 130.0 4.5 128.8 4.3 128.5 4.2 C 128.2 4.2 127.3 4.4 127.5 4.5 C 127.7 4.7 126.9 5.0 126.7 4.9 C 126.6 4.8 126.0 4.4 125.6 4.2 C 125.2 4.0 125.2 5.7 125.1 6.0 C 125.1 6.2 124.8 7.1 125.1 7.2 C 125.4 7.4 125.8 7.1 125.7 7.3 C 125.6 7.5 126.7 7.4 126.9 7.5 C 127.2 7.5 127.7 6.9 127.7 6.9 C 127.7 6.9 128.0 6.4 128.5 6.5 C 128.9 6.5 129.0 7.6 129.0 7.6 C 129.0 7.6 129.5 7.9 130.1 7.9 C 130.6 7.9 131.4 7.1 131.5 7.0 C 131.7 6.8 131.5 7.6 131.9 7.7 C 132.3 7.9 132.8 8.2 133.0 8.2 C 133.2 8.2 133.5 7.7 133.5 7.7 C 133.5 7.7 134.3 7.5 134.5 7.5 C 134.6 7.5 134.2 8.3 134.2 8.3 C 134.2 8.3 135.7 8.7 136.0 8.8 C 136.3 8.9 136.8 8.8 137.0 8.8 C 137.2 8.8 137.7 7.9 138.0 8.0 C 138.3 8.2 137.6 8.6 137.9 8.7 C 138.2 8.9 138.7 9.2 138.9 9.2 C 139.0 9.2 139.3 8.9 139.6 8.9 C 139.9 8.9 140.4 8.3 140.8 8.3 C 141.2 8.4 141.3 8.9 141.5 9.0 C 141.6 9.1 141.6 9.8 141.9 9.9 C 142.2 10.0 142.1 9.5 142.4 9.5 C 142.7 9.6 142.8 9.1 143.1 9.3 C 143.4 9.4 143.0 10.2 143.4 10.1 C 143.5 10.1 143.4 10.1 144.3 10.3 C 144.3 10.3 144.3 10.3 144.3 10.3 Z M 124.2 7.1 C 124.7 7.5 125.2 7.1 125.2 6.7 C 125.2 6.3 125.1 5.3 125.3 5.1 C 125.5 4.8 126.2 4.2 125.3 4.0 C 124.4 3.7 124.2 4.0 124.2 4.2 C 124.2 4.4 123.9 5.4 123.6 5.3 C 123.4 5.2 123.2 4.9 123.2 4.8 C 123.1 4.6 122.9 3.6 122.4 3.7 C 122.0 3.8 121.5 4.0 121.5 4.0 C 121.3 4.0 121.1 4.0 120.9 4.0 C 120.9 4.0 120.3 3.4 119.8 3.4 C 119.3 3.5 118.8 3.5 118.4 3.4 C 118.0 3.3 117.6 3.4 117.6 3.6 C 117.5 3.8 116.9 4.6 116.9 4.6 C 116.9 4.6 116.4 4.8 116.1 4.7 C 115.9 4.5 115.9 4.0 115.9 3.9 C 116.0 3.7 116.0 3.2 115.6 3.1 C 115.2 3.0 113.7 2.4 113.4 2.6 C 113.1 2.9 113.2 3.3 113.0 3.4 C 112.8 3.4 111.7 3.4 111.6 3.2 C 111.5 2.9 111.6 2.4 111.3 2.5 C 111.0 2.5 110.4 2.3 110.4 2.4 C 110.4 2.6 110.2 2.7 110.1 3.0 C 110.1 3.3 109.4 3.5 109.3 3.6 C 109.2 3.7 108.7 3.7 108.7 3.7 C 108.5 3.6 108.3 3.4 108.1 3.2 C 108.1 3.2 108.5 2.7 108.7 2.7 C 108.9 2.6 108.6 2.2 108.4 2.2 C 108.2 2.1 107.0 2.2 107.0 2.2 C 106.9 2.5 106.9 2.9 106.8 3.3 C 106.6 3.4 106.3 3.4 105.9 3.5 C 105.9 3.5 106.1 2.2 105.6 2.1 C 105.0 2.1 104.3 2.1 104.3 2.1 C 104.3 2.1 103.7 2.6 103.5 2.6 C 103.4 2.6 103.3 3.8 103.3 3.8 C 103.3 4.3 103.3 4.8 103.3 5.2 C 103.3 5.2 104.0 5.7 104.4 5.6 C 104.8 5.4 104.5 4.9 104.6 4.6 C 104.6 4.4 105.2 4.2 105.2 4.2 C 105.5 4.5 105.7 4.7 106.0 5.0 C 106.0 5.0 106.2 5.3 106.4 5.5 C 106.7 5.8 107.5 5.9 107.8 5.9 C 108.0 5.8 108.3 5.5 108.6 5.3 C 109.0 5.0 108.9 4.6 109.3 5.0 C 109.6 5.3 109.8 5.7 110.0 5.7 C 110.2 5.7 111.0 5.3 111.0 5.3 C 111.3 5.2 111.5 5.1 111.7 5.0 C 111.7 5.0 112.3 4.8 112.4 5.1 C 112.5 5.4 113.7 5.2 113.7 5.2 C 113.7 5.2 113.5 6.0 113.8 6.2 C 114.1 6.3 114.6 6.5 115.1 6.4 C 115.6 6.3 116.0 5.6 116.0 5.6 C 116.2 5.8 116.3 6.0 116.5 6.2 C 116.9 6.3 117.3 6.4 117.8 6.5 C 117.8 6.5 118.8 6.6 118.9 6.4 C 118.9 6.3 118.8 5.6 118.9 5.4 C 119.0 5.2 119.5 5.0 119.6 5.3 C 119.6 5.5 120.0 6.2 120.0 6.2 C 120.0 6.2 120.4 6.7 120.7 6.7 C 121.0 6.8 121.5 6.6 121.6 6.5 C 121.8 6.4 122.3 5.9 122.3 5.9 C 122.4 6.1 122.5 6.4 122.6 6.6 C 122.6 6.6 123.5 6.4 124.2 7.1 C 124.2 7.1 124.2 7.1 124.2 7.1 Z M 102.8 5.6 C 104.0 5.6 103.3 3.0 102.9 2.4 C 102.5 1.8 101.7 2.2 101.0 2.0 C 100.2 1.9 100.4 2.8 100.0 3.0 C 99.5 3.2 99.7 2.7 99.5 2.3 C 99.4 1.9 98.2 2.2 97.5 2.1 C 96.8 2.1 96.0 2.9 95.4 3.0 C 94.9 3.0 95.9 3.5 94.9 3.4 C 93.9 3.3 94.4 2.8 95.6 2.6 C 96.7 2.3 95.1 2.1 94.5 2.0 C 93.8 1.9 92.8 2.2 92.2 2.2 C 91.7 2.1 92.4 2.8 91.6 2.8 C 90.9 2.8 91.3 2.1 90.5 2.0 C 89.8 1.9 89.9 2.5 89.5 2.6 C 89.1 2.8 89.2 2.4 88.9 2.4 C 88.5 2.3 88.0 2.1 87.3 2.3 C 86.6 2.4 86.8 2.6 86.5 2.7 C 86.2 2.7 85.6 2.7 85.6 2.7 C 85.6 2.5 85.5 2.3 85.5 2.0 C 85.5 2.0 84.2 2.0 83.8 1.9 C 83.4 1.9 82.6 2.2 82.8 2.3 C 83.0 2.5 82.2 2.9 82.0 2.9 C 81.8 2.8 81.2 2.4 80.7 2.3 C 80.3 2.1 80.4 3.9 80.4 4.1 C 80.4 4.3 80.2 5.3 80.6 5.4 C 81.0 5.5 81.3 5.1 81.2 5.4 C 81.2 5.6 82.3 5.3 82.6 5.3 C 82.9 5.3 83.3 4.7 83.3 4.7 C 83.3 4.7 83.6 4.1 84.1 4.1 C 84.6 4.1 84.8 5.2 84.8 5.2 C 84.8 5.2 85.4 5.4 86.1 5.3 C 86.7 5.3 87.4 4.4 87.5 4.2 C 87.7 4.0 87.6 4.8 88.1 4.9 C 88.5 5.0 89.2 5.3 89.4 5.2 C 89.6 5.2 89.9 4.7 89.9 4.7 C 89.9 4.7 90.7 4.3 90.9 4.3 C 91.1 4.3 90.7 5.1 90.7 5.1 C 90.7 5.1 92.5 5.4 92.8 5.4 C 93.2 5.5 93.7 5.3 94.0 5.3 C 94.3 5.2 94.6 4.2 95.0 4.3 C 95.4 4.4 94.6 4.9 95.0 5.1 C 95.4 5.2 96.1 5.4 96.3 5.4 C 96.4 5.4 96.7 5.0 97.0 5.0 C 97.3 5.0 97.8 4.2 98.3 4.2 C 98.8 4.3 99.0 4.7 99.2 4.8 C 99.4 4.9 99.5 5.6 99.9 5.6 C 100.3 5.6 100.0 5.2 100.4 5.2 C 100.8 5.2 100.8 4.7 101.2 4.8 C 101.6 4.9 101.3 5.7 101.7 5.6 C 101.9 5.6 101.7 5.6 102.8 5.6 C 102.8 5.6 102.8 5.6 102.8 5.6 Z M 78.1 4.7 C 78.4 4.6 78.6 5.1 79.2 5.2 C 79.8 5.3 80.6 5.3 80.4 5.0 C 80.3 4.7 80.1 4.5 80.4 4.1 C 80.7 3.7 81.1 3.0 80.6 2.7 C 80.2 2.5 78.4 1.8 77.9 2.2 C 77.3 2.6 77.2 2.8 76.7 3.0 C 76.4 3.3 76.6 2.4 76.6 2.4 C 76.6 2.4 75.7 2.4 75.0 2.4 C 74.3 2.3 73.5 2.3 73.4 2.5 C 73.3 2.6 73.1 2.9 73.1 2.9 C 73.1 2.9 72.7 2.6 72.2 2.5 C 71.7 2.4 71.8 2.6 71.9 2.8 C 72.0 3.0 72.7 3.5 72.4 3.5 C 72.2 3.5 71.5 2.8 71.2 2.7 C 70.8 2.6 70.0 2.7 70.0 2.7 C 70.0 2.7 70.1 3.2 70.0 3.3 C 69.9 3.4 69.2 3.5 69.1 3.3 C 69.1 3.2 69.1 2.7 68.7 2.7 C 67.4 2.7 67.7 3.5 67.6 3.6 C 67.5 3.6 67.4 2.9 67.1 2.8 C 66.8 2.7 64.4 3.0 64.3 3.2 C 64.2 3.4 63.3 2.8 63.0 3.2 C 62.7 3.7 62.6 3.8 62.5 3.9 C 62.4 4.0 62.0 4.8 61.8 4.5 C 61.6 4.3 62.4 3.4 62.1 3.2 C 61.8 3.1 60.3 3.1 60.1 3.4 C 59.8 3.7 59.7 4.3 59.5 4.4 C 59.3 4.4 58.4 3.6 58.3 3.7 C 58.3 3.9 58.2 4.6 58.2 4.7 C 58.2 4.9 58.1 6.1 58.3 6.3 C 58.5 6.4 59.4 6.8 59.2 6.5 C 59.1 6.1 58.8 5.7 59.1 5.5 C 59.4 5.3 59.6 5.3 59.7 5.4 C 59.8 5.6 59.6 5.7 60.2 5.9 C 60.7 6.1 60.5 6.4 60.9 6.3 C 61.4 6.3 61.9 6.2 61.8 5.9 C 61.7 5.6 62.2 5.2 62.6 5.2 C 63.0 5.2 62.4 5.8 63.5 6.0 C 64.7 6.2 65.4 6.2 65.7 5.9 C 66.0 5.7 66.0 4.9 66.6 5.2 C 67.1 5.5 66.8 5.7 67.6 5.7 C 68.3 5.6 68.6 5.0 69.0 4.9 C 69.5 4.9 69.6 4.9 69.6 4.9 C 69.6 4.9 69.4 5.8 70.5 5.7 C 71.5 5.7 71.7 5.8 71.5 5.2 C 71.2 4.6 72.0 4.5 72.1 4.9 C 72.2 5.3 72.8 5.6 73.2 5.6 C 73.5 5.6 73.6 4.6 73.7 4.6 C 73.9 4.6 74.3 4.6 74.1 4.9 C 74.0 5.3 74.4 5.3 74.7 5.4 C 75.1 5.5 76.0 5.4 76.0 5.2 C 76.0 5.1 75.5 4.4 76.2 4.7 C 76.8 5.0 77.0 5.5 77.7 5.5 C 78.3 5.4 77.7 4.8 78.1 4.7 C 78.1 4.7 78.1 4.7 78.1 4.7 Z M 57.4 6.6 C 58.0 6.9 58.4 6.4 58.3 6.0 C 58.2 5.7 57.9 4.7 58.1 4.4 C 58.3 4.1 58.8 3.4 57.9 3.3 C 57.0 3.3 56.8 3.6 56.8 3.8 C 56.8 4.0 56.7 5.0 56.5 5.0 C 56.2 4.9 56.0 4.7 55.9 4.5 C 55.8 4.4 55.4 3.5 55.0 3.6 C 54.5 3.8 54.2 4.1 54.2 4.1 C 53.9 4.2 53.7 4.2 53.5 4.3 C 53.5 4.3 52.8 3.7 52.4 3.9 C 51.9 4.1 51.4 4.2 51.0 4.2 C 50.6 4.1 50.3 4.3 50.3 4.5 C 50.2 4.7 49.9 5.6 49.9 5.6 C 49.9 5.6 49.4 5.9 49.1 5.8 C 48.9 5.7 48.7 5.3 48.8 5.1 C 48.8 4.9 48.7 4.4 48.3 4.4 C 48.0 4.3 46.4 4.1 46.2 4.4 C 46.0 4.7 46.1 5.0 46.0 5.1 C 45.8 5.3 44.8 5.4 44.7 5.2 C 44.6 5.0 44.6 4.5 44.3 4.6 C 44.0 4.7 43.4 4.6 43.4 4.8 C 43.5 4.9 43.3 5.0 43.3 5.3 C 43.3 5.6 42.8 5.9 42.7 6.1 C 42.6 6.2 42.2 6.3 42.2 6.3 C 42.0 6.2 41.8 6.1 41.5 6.0 C 41.5 6.0 41.8 5.4 42.0 5.3 C 42.1 5.2 41.8 4.9 41.6 4.9 C 41.4 4.9 40.4 5.1 40.4 5.1 C 40.4 5.5 40.5 5.9 40.5 6.3 C 40.3 6.4 40.0 6.5 39.8 6.6 C 39.8 6.6 39.7 5.3 39.2 5.4 C 38.7 5.4 38.1 5.5 38.1 5.5 C 38.1 5.5 37.6 6.1 37.5 6.2 C 37.4 6.3 37.5 7.5 37.5 7.5 C 37.7 7.9 37.8 8.4 37.9 8.8 C 37.9 8.8 38.6 9.2 38.9 8.9 C 39.1 8.7 38.8 8.2 38.8 8.0 C 38.8 7.8 39.3 7.5 39.3 7.5 C 39.5 7.7 39.8 7.9 40.1 8.1 C 40.1 8.1 40.3 8.3 40.6 8.5 C 40.8 8.7 41.6 8.7 41.8 8.6 C 42.0 8.5 42.2 8.1 42.5 7.8 C 42.7 7.6 42.6 7.2 43.0 7.4 C 43.4 7.7 43.6 8.0 43.7 8.0 C 43.9 8.0 44.6 7.4 44.6 7.4 C 44.8 7.3 45.0 7.2 45.2 7.0 C 45.2 7.0 45.7 6.7 45.8 7.0 C 45.9 7.3 47.0 6.8 47.0 6.8 C 47.0 6.8 47.0 7.6 47.3 7.7 C 47.6 7.8 48.1 7.9 48.5 7.8 C 49.0 7.6 49.2 6.7 49.2 6.7 C 49.4 6.9 49.6 7.1 49.7 7.3 C 50.2 7.3 50.6 7.3 51.1 7.3 C 51.1 7.3 52.1 7.1 52.1 7.0 C 52.0 6.9 51.8 6.2 51.9 6.0 C 51.9 5.8 52.4 5.5 52.5 5.8 C 52.6 6.0 53.1 6.6 53.1 6.6 C 53.1 6.6 53.6 6.9 53.9 7.0 C 54.2 7.0 54.7 6.7 54.8 6.5 C 54.9 6.4 55.3 5.8 55.3 5.8 C 55.5 6.0 55.6 6.2 55.7 6.4 C 55.7 6.4 56.5 6.0 57.4 6.6 C 57.4 6.6 57.4 6.6 57.4 6.6 Z M 37.6 9.3 C 38.5 9.1 37.4 6.6 37.0 6.1 C 36.5 5.7 35.9 6.1 35.3 6.1 C 34.6 6.2 35.0 6.9 34.6 7.2 C 34.3 7.6 34.4 7.0 34.1 6.6 C 33.9 6.3 33.0 6.8 32.4 6.9 C 31.8 7.0 31.4 8.0 31.0 8.1 C 30.6 8.3 31.5 8.5 30.7 8.6 C 29.9 8.7 30.2 8.2 31.0 7.7 C 31.9 7.2 30.5 7.3 30.0 7.3 C 29.5 7.3 28.7 7.9 28.3 7.9 C 27.9 8.0 28.8 8.5 27.7 8.7 C 26.6 8.9 27.0 8.1 25.8 8.3 C 24.7 8.5 25.0 9.1 24.5 9.4 C 24.0 9.7 24.0 9.3 23.6 9.3 C 23.1 9.4 22.3 9.4 21.4 9.8 C 20.5 10.2 20.9 10.4 20.5 10.5 C 20.1 10.7 19.4 10.9 19.4 10.9 C 19.2 10.7 19.1 10.5 19.0 10.3 C 19.0 10.3 17.4 10.8 17.0 10.9 C 16.5 11.0 15.6 11.7 15.9 11.7 C 16.2 11.7 15.4 12.5 15.2 12.5 C 15.0 12.5 14.1 12.5 13.6 12.5 C 13.1 12.6 13.9 14.1 14.0 14.3 C 14.1 14.5 14.2 15.5 14.6 15.4 C 15.1 15.4 15.2 14.9 15.3 15.2 C 15.3 15.4 16.4 14.7 16.7 14.6 C 17.0 14.5 17.2 13.7 17.2 13.7 C 17.2 13.7 17.4 13.1 18.0 12.9 C 18.6 12.7 19.1 13.6 19.1 13.6 C 19.1 13.6 19.9 13.6 20.7 13.3 C 21.5 13.0 22.1 11.9 22.2 11.6 C 22.4 11.4 22.6 12.2 23.2 12.1 C 23.8 12.0 24.8 12.0 25.0 11.9 C 25.3 11.8 25.6 11.2 25.6 11.2 C 25.6 11.2 26.7 10.5 27.0 10.5 C 27.3 10.4 27.0 11.3 27.0 11.3 C 27.0 11.3 29.2 11.0 29.5 11.0 C 29.8 11.0 30.2 10.7 30.4 10.6 C 30.6 10.5 30.7 9.5 31.0 9.5 C 31.3 9.5 30.8 10.2 31.1 10.2 C 31.4 10.2 32.0 10.3 32.2 10.3 C 32.3 10.2 32.5 9.9 32.7 9.8 C 32.9 9.7 33.1 8.9 33.6 8.8 C 34.0 8.7 34.3 9.1 34.4 9.2 C 34.6 9.2 34.8 9.9 35.2 9.8 C 35.5 9.8 35.2 9.4 35.5 9.3 C 35.8 9.3 35.7 8.8 36.0 8.8 C 36.4 8.9 36.3 9.7 36.6 9.5 C 36.8 9.4 36.6 9.5 37.6 9.3 C 37.6 9.3 37.6 9.3 37.6 9.3 Z M 13.7 15.7 C 14.4 15.8 14.7 15.2 14.4 14.9 C 14.2 14.6 13.7 13.8 13.7 13.4 C 13.8 13.1 14.2 12.2 13.2 12.5 C 12.1 12.8 12.1 13.1 12.2 13.3 C 12.3 13.5 12.5 14.5 12.3 14.6 C 12.0 14.6 11.6 14.5 11.5 14.4 C 11.4 14.3 10.6 13.6 10.3 13.9 C 9.9 14.2 9.7 14.7 9.7 14.7 C 9.5 14.8 9.4 14.9 9.2 15.0 C 9.2 15.0 8.4 14.8 8.0 15.2 C 7.7 15.5 7.3 15.8 7.0 16.0 C 6.7 16.1 6.6 16.4 6.7 16.6 C 6.8 16.8 7.0 17.7 7.0 17.7 C 7.0 17.7 6.8 18.1 6.6 18.2 C 6.3 18.2 6.0 17.9 5.9 17.7 C 5.8 17.5 5.5 17.2 5.2 17.3 C 4.9 17.5 3.7 18.1 3.8 18.4 C 3.9 18.7 4.2 18.9 4.2 19.0 C 4.2 19.2 3.9 19.8 3.6 19.7 C 3.4 19.7 3.0 19.3 2.9 19.6 C 2.9 19.8 2.5 20.1 2.7 20.2 C 2.8 20.2 2.8 20.4 3.1 20.5 C 3.3 20.7 3.4 21.1 3.5 21.2 C 3.6 21.3 3.5 21.6 3.5 21.6 C 3.4 21.7 3.2 21.7 3.0 21.8 C 3.0 21.8 2.6 21.5 2.5 21.3 C 2.5 21.2 2.1 21.3 2.0 21.4 C 1.9 21.5 1.9 22.3 1.9 22.3 C 2.2 22.4 2.6 22.5 3.0 22.5 C 3.0 22.7 3.1 22.9 3.2 23.0 C 3.2 23.0 1.8 22.9 1.8 23.3 C 1.8 23.6 1.9 24.1 1.9 24.1 C 1.9 24.1 2.4 24.4 2.5 24.5 C 2.6 24.6 3.8 24.3 3.8 24.3 C 4.2 24.2 4.6 24.1 5.1 24.0 C 5.1 24.0 5.5 23.7 5.3 23.6 C 5.1 23.5 4.6 23.6 4.4 23.6 C 4.2 23.6 3.9 23.4 3.9 23.4 C 4.2 23.3 4.4 23.2 4.7 23.1 C 4.7 23.1 4.9 23.0 5.2 22.9 C 5.4 22.9 5.6 22.6 5.5 22.5 C 5.5 22.4 5.2 22.3 5.0 22.1 C 4.8 21.9 4.4 21.7 4.8 21.7 C 5.1 21.7 5.5 21.8 5.5 21.7 C 5.6 21.6 5.4 21.1 5.4 21.1 C 5.3 20.9 5.3 20.8 5.3 20.6 C 5.3 20.6 5.3 20.2 5.5 20.4 C 5.8 20.5 5.9 19.7 5.9 19.7 C 5.9 19.7 6.5 20.4 6.7 20.3 C 7.0 20.3 7.3 20.2 7.4 19.9 C 7.5 19.6 7.2 18.9 7.2 18.9 C 7.4 18.9 7.6 19.0 7.8 19.1 C 8.1 19.0 8.4 18.8 8.7 18.7 C 8.7 18.7 9.3 18.2 9.2 18.1 C 9.1 17.9 8.7 17.4 8.6 17.2 C 8.6 17.1 8.8 16.6 9.0 16.8 C 9.2 16.9 9.9 17.3 9.9 17.3 C 9.9 17.3 10.4 17.4 10.6 17.3 C 10.9 17.3 11.2 16.8 11.2 16.7 C 11.2 16.5 11.4 15.8 11.4 15.8 C 11.6 15.9 11.8 16.1 12.1 16.2 C 12.1 16.2 12.7 15.6 13.7 15.7 C 13.7 15.7 13.7 15.7 13.7 15.7 Z M 5.5 24.0 C 5.4 23.7 2.9 24.5 2.4 24.9 C 2.0 25.3 2.5 25.7 2.6 26.2 C 2.7 26.7 3.4 26.2 3.7 26.3 C 4.1 26.4 3.6 26.6 3.3 26.9 C 3.0 27.2 3.8 27.7 4.1 28.1 C 4.3 28.5 5.3 28.2 5.7 28.5 C 6.0 28.7 5.7 27.9 6.2 28.4 C 6.7 28.9 6.1 29.1 5.3 28.7 C 4.5 28.3 5.2 29.3 5.5 29.7 C 5.8 30.1 6.8 30.3 7.1 30.6 C 7.4 30.9 7.4 30.0 7.8 30.4 C 8.3 30.8 7.7 31.2 8.2 31.6 C 8.7 32.0 9.0 31.4 9.4 31.5 C 9.7 31.5 9.5 31.8 9.7 32.0 C 10.0 32.2 10.3 32.6 11.0 32.8 C 11.7 33.0 11.6 32.7 11.9 32.8 C 12.2 32.9 12.8 33.2 12.8 33.2 C 12.7 33.4 12.7 33.6 12.6 33.8 C 12.6 33.8 13.9 34.4 14.3 34.7 C 14.7 34.9 15.7 34.9 15.5 34.7 C 15.3 34.5 16.4 34.4 16.6 34.6 C 16.8 34.8 17.4 35.4 17.9 35.7 C 18.4 36.0 18.8 34.3 18.9 34.1 C 19.0 33.9 19.5 33.1 19.1 32.8 C 18.7 32.6 18.3 32.8 18.4 32.6 C 18.6 32.4 17.2 32.2 16.9 32.0 C 16.5 31.9 15.9 32.3 15.9 32.3 C 15.9 32.3 15.4 32.7 14.9 32.5 C 14.3 32.3 14.6 31.2 14.6 31.2 C 14.6 31.2 14.0 30.8 13.5 30.6 C 12.9 30.3 11.9 30.8 11.7 31.0 C 11.5 31.1 11.9 30.4 11.6 30.1 C 11.3 29.8 10.9 29.3 10.7 29.3 C 10.6 29.2 10.1 29.6 10.1 29.6 C 10.1 29.6 9.3 29.5 9.2 29.4 C 9.1 29.3 9.7 28.8 9.7 28.8 C 9.7 28.8 8.8 27.9 8.6 27.7 C 8.5 27.5 8.0 27.5 7.9 27.4 C 7.7 27.3 6.9 27.9 6.8 27.7 C 6.7 27.4 7.4 27.4 7.3 27.1 C 7.2 26.9 7.0 26.5 7.0 26.4 C 6.9 26.3 6.5 26.5 6.4 26.4 C 6.2 26.3 5.5 26.6 5.3 26.3 C 5.2 26.1 5.5 25.8 5.5 25.6 C 5.6 25.5 6.1 25.1 6.0 25.0 C 6.0 24.8 5.6 25.1 5.5 25.0 C 5.5 24.9 5.0 25.1 5.1 24.9 C 5.1 24.7 5.9 24.5 5.7 24.4 C 5.6 24.3 5.7 24.4 5.5 24.0 C 5.5 24.0 5.5 24.0 5.5 24.0 Z M 20.2 33.3 C 19.7 32.7 19.0 33.0 18.9 33.4 C 18.9 33.7 18.8 34.7 18.5 34.9 C 18.2 35.1 17.2 35.5 18.3 36.0 C 19.4 36.6 19.8 36.4 19.9 36.1 C 19.9 35.9 20.5 35.0 20.8 35.2 C 21.1 35.4 21.3 35.8 21.4 35.9 C 21.4 36.1 21.6 37.2 22.3 37.2 C 23.0 37.3 23.7 37.2 23.7 37.2 C 24.0 37.2 24.4 37.3 24.7 37.4 C 24.7 37.4 25.5 38.2 26.3 38.3 C 27.1 38.3 28.1 38.6 28.4 38.7 C 28.7 38.8 29.0 38.8 29.1 38.5 C 29.2 38.3 29.8 37.6 29.8 37.6 C 29.8 37.6 30.3 37.5 30.4 37.7 C 30.6 37.8 30.6 38.3 30.5 38.5 C 30.4 38.6 30.3 39.1 30.6 39.3 C 30.9 39.4 32.2 40.2 32.4 39.9 C 32.7 39.7 32.7 39.3 32.9 39.3 C 33.1 39.2 34.0 39.3 34.0 39.6 C 34.0 39.8 33.9 40.3 34.2 40.3 C 34.4 40.3 34.9 40.6 35.0 40.4 C 35.0 40.3 35.2 40.2 35.3 39.9 C 35.3 39.6 35.9 39.5 36.0 39.4 C 36.2 39.3 36.6 39.3 36.6 39.3 C 36.8 39.5 36.9 39.7 37.1 39.9 C 37.1 39.9 36.6 40.3 36.5 40.4 C 36.3 40.4 36.5 40.8 36.7 40.9 C 36.8 40.9 37.9 41.0 37.9 41.0 C 38.0 40.7 38.0 40.3 38.1 39.9 C 38.4 39.9 38.7 39.8 38.9 39.8 C 38.9 39.8 38.6 41.1 39.1 41.2 C 39.6 41.3 40.2 41.4 40.2 41.4 C 40.2 41.4 40.8 41.0 40.9 40.9 C 41.1 40.9 41.3 39.7 41.3 39.7 C 41.4 39.3 41.4 38.8 41.4 38.3 C 41.4 38.3 40.9 37.8 40.5 37.9 C 40.2 38.0 40.4 38.6 40.3 38.8 C 40.2 39.0 39.7 39.2 39.7 39.2 C 39.5 38.9 39.3 38.6 39.1 38.3 C 39.1 38.3 38.9 38.0 38.8 37.8 C 38.6 37.5 37.9 37.2 37.6 37.3 C 37.4 37.3 37.1 37.6 36.8 37.8 C 36.5 38.0 36.5 38.4 36.2 38.0 C 36.0 37.6 35.9 37.2 35.7 37.2 C 35.6 37.2 34.8 37.5 34.8 37.5 C 34.6 37.6 34.4 37.7 34.2 37.7 C 34.2 37.7 33.6 37.8 33.6 37.6 C 33.6 37.3 32.5 37.4 32.5 37.4 C 32.5 37.4 32.8 36.6 32.6 36.4 C 32.3 36.2 32.0 36.0 31.5 36.0 C 31.1 36.1 30.6 36.8 30.6 36.8 C 30.6 36.5 30.5 36.3 30.4 36.1 C 30.0 35.9 29.7 35.8 29.3 35.7 C 29.3 35.7 28.1 35.4 28.1 35.6 C 28.0 35.7 28.1 36.4 27.9 36.6 C 27.8 36.7 26.9 36.7 26.8 36.5 C 26.8 36.2 26.2 35.4 26.2 35.4 C 26.2 35.4 25.7 34.9 25.2 34.7 C 24.8 34.5 24.0 34.6 23.8 34.6 C 23.6 34.7 22.8 35.0 22.8 35.0 C 22.6 34.8 22.5 34.5 22.4 34.2 C 22.4 34.2 21.1 34.2 20.2 33.3 C 20.2 33.3 20.2 33.3 20.2 33.3 Z M 41.9 38.0 C 40.9 37.9 41.1 40.6 41.5 41.2 C 41.8 41.8 42.5 41.5 43.1 41.7 C 43.8 41.9 43.7 41.1 44.1 40.9 C 44.6 40.7 44.3 41.2 44.5 41.6 C 44.6 42.0 45.7 41.8 46.3 42.0 C 46.9 42.1 47.7 41.3 48.2 41.3 C 48.7 41.3 47.8 40.8 48.7 41.0 C 49.7 41.1 49.1 41.5 48.1 41.7 C 47.0 41.8 48.4 42.2 49.0 42.4 C 49.6 42.6 50.6 42.3 51.1 42.4 C 51.5 42.5 51.0 41.8 51.7 41.9 C 52.4 42.0 51.9 42.6 52.6 42.8 C 53.3 43.0 53.3 42.3 53.7 42.2 C 54.0 42.1 53.9 42.5 54.2 42.5 C 54.5 42.6 55.0 42.9 55.6 42.8 C 56.3 42.7 56.2 42.5 56.5 42.5 C 56.8 42.5 57.3 42.5 57.3 42.5 C 57.3 42.7 57.3 43.0 57.4 43.2 C 57.4 43.2 58.6 43.4 58.9 43.4 C 59.3 43.5 60.1 43.3 59.9 43.1 C 59.7 43.0 60.6 42.6 60.8 42.7 C 60.9 42.8 61.5 43.2 61.9 43.4 C 62.4 43.6 62.4 41.8 62.4 41.6 C 62.4 41.4 62.7 40.5 62.4 40.3 C 62.0 40.2 61.7 40.5 61.7 40.3 C 61.8 40.0 60.7 40.2 60.4 40.2 C 60.1 40.1 59.7 40.8 59.7 40.8 C 59.7 40.8 59.4 41.3 58.9 41.2 C 58.4 41.2 58.3 40.1 58.3 40.1 C 58.3 40.1 57.7 39.8 57.1 39.8 C 56.5 39.8 55.8 40.6 55.6 40.8 C 55.5 41.0 55.6 40.2 55.2 40.1 C 54.8 39.9 54.2 39.6 54.0 39.6 C 53.9 39.7 53.5 40.2 53.5 40.2 C 53.5 40.2 52.7 40.4 52.5 40.4 C 52.4 40.4 52.7 39.6 52.7 39.6 C 52.7 39.6 51.2 39.2 50.9 39.1 C 50.5 39.0 50.0 39.2 49.8 39.2 C 49.5 39.2 49.1 40.2 48.7 40.0 C 48.4 39.9 49.2 39.4 48.8 39.3 C 48.5 39.2 47.9 38.9 47.7 38.9 C 47.6 38.8 47.3 39.1 47.0 39.2 C 46.7 39.2 46.2 39.8 45.8 39.8 C 45.3 39.7 45.2 39.3 45.0 39.1 C 44.8 39.0 44.8 38.4 44.5 38.3 C 44.1 38.2 44.3 38.7 44.0 38.6 C 43.7 38.6 43.6 39.1 43.3 38.9 C 42.9 38.8 43.3 38.0 42.9 38.1 C 42.7 38.1 42.9 38.1 41.9 38.0 C 41.9 38.0 41.9 38.0 41.9 38.0 Z M 64.7 41.2 C 64.4 41.3 64.3 40.8 63.7 40.6 C 63.1 40.4 62.3 40.3 62.5 40.7 C 62.6 41.0 62.8 41.2 62.4 41.6 C 62.1 42.0 61.7 42.6 62.1 42.9 C 62.5 43.2 64.1 44.1 64.7 43.7 C 65.2 43.4 65.4 43.3 65.8 43.0 C 66.2 42.8 65.9 43.6 65.9 43.6 C 65.9 43.6 66.8 43.8 67.5 43.9 C 68.2 43.9 69.0 44.0 69.1 43.9 C 69.2 43.8 69.4 43.5 69.4 43.5 C 69.4 43.5 69.8 43.9 70.3 44.0 C 70.8 44.1 70.6 43.9 70.6 43.7 C 70.5 43.5 69.9 42.9 70.1 42.9 C 70.3 43.0 71.0 43.8 71.3 43.9 C 71.7 44.0 72.5 44.0 72.5 44.0 C 72.5 44.0 72.4 43.5 72.5 43.4 C 72.6 43.3 73.4 43.3 73.4 43.4 C 73.5 43.6 73.4 44.1 73.8 44.1 C 75.0 44.3 74.9 43.4 75.0 43.3 C 75.1 43.3 75.1 44.0 75.4 44.1 C 75.7 44.2 78.2 44.2 78.3 44.1 C 78.4 43.9 79.2 44.5 79.6 44.1 C 80.0 43.7 80.1 43.6 80.2 43.5 C 80.3 43.4 80.8 42.7 81.0 43.0 C 81.2 43.2 80.2 44.0 80.5 44.2 C 80.8 44.4 82.4 44.5 82.6 44.3 C 83.0 44.0 83.1 43.3 83.3 43.3 C 83.6 43.4 84.4 44.2 84.5 44.1 C 84.6 43.9 84.7 43.2 84.7 43.1 C 84.7 43.0 85.0 41.7 84.8 41.6 C 84.6 41.4 83.7 40.9 83.8 41.3 C 83.9 41.6 84.2 42.1 83.8 42.2 C 83.5 42.4 83.3 42.4 83.2 42.3 C 83.2 42.1 83.4 42.0 82.8 41.7 C 82.3 41.5 82.6 41.2 82.0 41.2 C 81.5 41.2 81.1 41.3 81.1 41.6 C 81.1 41.9 80.6 42.2 80.2 42.2 C 79.9 42.2 80.5 41.6 79.3 41.3 C 78.2 41.0 77.5 41.0 77.1 41.2 C 76.8 41.4 76.7 42.1 76.2 41.8 C 75.6 41.5 75.9 41.3 75.2 41.3 C 74.5 41.3 74.1 41.8 73.7 41.8 C 73.2 41.9 73.1 41.8 73.1 41.8 C 73.1 41.8 73.4 41.0 72.3 40.9 C 71.2 40.8 71.0 40.7 71.2 41.3 C 71.4 42.0 70.6 42.0 70.6 41.6 C 70.6 41.2 70.0 40.9 69.6 40.8 C 69.3 40.7 69.1 41.7 69.0 41.8 C 68.8 41.8 68.4 41.7 68.6 41.4 C 68.8 41.1 68.3 41.0 68.0 40.8 C 67.7 40.7 66.7 40.7 66.8 40.9 C 66.8 41.1 67.2 41.8 66.6 41.4 C 65.9 41.0 65.8 40.5 65.2 40.5 C 64.6 40.5 65.1 41.1 64.7 41.2 C 64.7 41.2 64.7 41.2 64.7 41.2 Z M 85.7 41.4 C 85.2 41.0 84.7 41.4 84.8 41.8 C 84.8 42.2 85.0 43.2 84.8 43.4 C 84.6 43.7 84.0 44.4 84.9 44.5 C 85.9 44.7 86.1 44.4 86.1 44.2 C 86.1 44.0 86.3 42.9 86.6 43.0 C 86.8 43.1 87.1 43.4 87.1 43.5 C 87.2 43.7 87.6 44.7 88.0 44.5 C 88.5 44.4 88.9 44.1 88.9 44.1 C 89.2 44.1 89.4 44.1 89.7 44.0 C 89.7 44.0 90.3 44.6 90.8 44.5 C 91.3 44.4 91.9 44.4 92.3 44.4 C 92.7 44.4 93.1 44.3 93.1 44.1 C 93.2 43.9 93.7 43.0 93.7 43.0 C 93.7 43.0 94.3 42.8 94.5 42.9 C 94.8 43.1 94.9 43.5 94.8 43.7 C 94.8 43.9 94.8 44.4 95.2 44.5 C 95.6 44.5 97.3 45.0 97.5 44.7 C 97.8 44.4 97.7 44.0 97.9 43.9 C 98.1 43.8 99.2 43.7 99.3 44.0 C 99.4 44.2 99.3 44.7 99.7 44.7 C 100.0 44.6 100.6 44.7 100.6 44.6 C 100.6 44.5 100.8 44.3 100.8 44.0 C 100.9 43.7 101.5 43.5 101.6 43.4 C 101.7 43.2 102.2 43.1 102.2 43.1 C 102.5 43.3 102.7 43.4 102.9 43.6 C 102.9 43.6 102.5 44.1 102.3 44.2 C 102.2 44.3 102.5 44.6 102.7 44.7 C 102.9 44.7 104.1 44.5 104.1 44.5 C 104.1 44.2 104.1 43.8 104.1 43.4 C 104.4 43.3 104.7 43.2 105.0 43.1 C 105.0 43.1 104.9 44.5 105.5 44.4 C 106.1 44.4 106.8 44.4 106.8 44.4 C 106.8 44.4 107.3 43.8 107.5 43.8 C 107.6 43.7 107.6 42.5 107.6 42.5 C 107.6 42.1 107.5 41.6 107.4 41.1 C 107.4 41.1 106.7 40.7 106.3 40.9 C 106.0 41.1 106.3 41.6 106.3 41.9 C 106.2 42.1 105.6 42.3 105.6 42.3 C 105.4 42.1 105.1 41.8 104.8 41.6 C 104.8 41.6 104.6 41.4 104.3 41.2 C 104.1 40.9 103.2 40.8 102.9 40.9 C 102.7 41.0 102.4 41.4 102.1 41.6 C 101.8 41.9 101.9 42.3 101.5 42.0 C 101.1 41.7 100.9 41.3 100.7 41.3 C 100.5 41.3 99.7 41.8 99.7 41.8 C 99.5 41.9 99.2 42.0 99.0 42.1 C 99.0 42.1 98.4 42.4 98.3 42.1 C 98.2 41.8 97.0 42.2 97.0 42.2 C 97.0 42.2 97.1 41.4 96.7 41.2 C 96.4 41.1 95.9 40.9 95.4 41.1 C 94.9 41.2 94.5 42.0 94.5 42.0 C 94.4 41.8 94.2 41.6 94.0 41.4 C 93.6 41.4 93.1 41.3 92.6 41.2 C 92.6 41.2 91.5 41.3 91.5 41.4 C 91.5 41.6 91.6 42.3 91.6 42.5 C 91.5 42.7 90.9 42.9 90.9 42.7 C 90.8 42.4 90.3 41.8 90.3 41.8 C 90.3 41.8 89.8 41.4 89.5 41.3 C 89.2 41.3 88.7 41.5 88.5 41.6 C 88.4 41.8 87.9 42.3 87.9 42.3 C 87.8 42.1 87.6 41.9 87.5 41.6 C 87.5 41.6 86.6 42.0 85.7 41.4 C 85.7 41.4 85.7 41.4 85.7 41.4 Z M 107.9 40.7 C 106.7 40.8 107.6 43.4 108.1 43.9 C 108.6 44.4 109.3 44.1 110.0 44.1 C 110.8 44.2 110.5 43.3 110.9 43.1 C 111.3 42.8 111.2 43.3 111.4 43.7 C 111.6 44.1 112.8 43.7 113.4 43.7 C 114.1 43.7 114.8 42.7 115.3 42.6 C 115.9 42.5 114.8 42.2 115.8 42.2 C 116.8 42.2 116.3 42.7 115.2 43.0 C 114.1 43.4 115.7 43.5 116.3 43.6 C 116.9 43.6 117.9 43.1 118.4 43.1 C 118.9 43.1 118.3 42.5 119.0 42.5 C 119.7 42.4 119.4 43.1 120.1 43.2 C 120.8 43.2 120.7 42.6 121.0 42.4 C 121.3 42.2 121.3 42.6 121.6 42.6 C 121.9 42.7 122.4 42.8 123.0 42.6 C 123.7 42.4 123.5 42.2 123.8 42.1 C 124.1 42.1 124.6 42.0 124.6 42.0 C 124.7 42.2 124.7 42.4 124.8 42.7 C 124.8 42.7 126.0 42.6 126.3 42.6 C 126.7 42.6 127.4 42.2 127.2 42.1 C 127.0 42.0 127.7 41.4 127.9 41.5 C 128.1 41.6 128.7 41.8 129.1 41.9 C 129.6 42.0 129.2 40.4 129.2 40.1 C 129.2 39.9 129.3 38.9 128.9 38.9 C 128.6 38.8 128.3 39.2 128.4 38.9 C 128.4 38.7 127.4 39.1 127.1 39.1 C 126.8 39.1 126.5 39.8 126.5 39.8 C 126.5 39.8 126.3 40.4 125.8 40.4 C 125.4 40.5 125.1 39.4 125.1 39.4 C 125.1 39.4 124.5 39.3 123.9 39.4 C 123.3 39.5 122.8 40.5 122.7 40.7 C 122.6 40.9 122.5 40.1 122.1 40.0 C 121.7 39.9 121.0 39.8 120.8 39.8 C 120.7 39.9 120.4 40.5 120.4 40.5 C 120.4 40.5 119.7 40.9 119.5 40.9 C 119.3 40.9 119.6 40.1 119.6 40.1 C 119.6 40.1 117.9 40.0 117.6 40.0 C 117.2 39.9 116.7 40.2 116.5 40.2 C 116.2 40.3 116.0 41.3 115.6 41.3 C 115.2 41.2 115.9 40.6 115.5 40.5 C 115.2 40.5 114.5 40.3 114.3 40.3 C 114.1 40.4 113.9 40.7 113.6 40.8 C 113.3 40.8 112.9 41.6 112.4 41.6 C 111.9 41.7 111.7 41.3 111.5 41.2 C 111.3 41.1 111.1 40.5 110.7 40.5 C 110.3 40.5 110.6 40.9 110.3 40.9 C 109.9 40.9 109.9 41.4 109.6 41.3 C 109.2 41.3 109.4 40.5 109.0 40.6 C 108.8 40.6 109.0 40.6 107.9 40.7 C 107.9 40.7 107.9 40.7 107.9 40.7 Z M 129.8 38.8 C 129.3 38.5 128.9 39.1 129.0 39.4 C 129.1 39.8 129.4 40.7 129.2 41.0 C 129.1 41.3 128.6 42.1 129.5 42.1 C 130.4 42.1 130.5 41.8 130.5 41.6 C 130.5 41.4 130.5 40.3 130.7 40.4 C 131.0 40.5 131.3 40.7 131.3 40.8 C 131.4 41.0 131.9 41.9 132.3 41.7 C 132.7 41.5 133.0 41.2 133.0 41.2 C 133.2 41.1 133.4 41.1 133.6 41.0 C 133.6 41.0 134.3 41.5 134.7 41.3 C 135.1 41.1 135.6 41.0 136.0 41.0 C 136.3 41.0 136.7 40.9 136.7 40.6 C 136.7 40.4 137.0 39.5 137.0 39.5 C 137.0 39.5 137.5 39.2 137.7 39.3 C 137.9 39.4 138.1 39.9 138.0 40.0 C 138.0 40.2 138.2 40.7 138.5 40.7 C 138.8 40.8 140.3 41.0 140.5 40.7 C 140.7 40.3 140.6 40.0 140.7 39.9 C 140.8 39.7 141.8 39.5 141.9 39.7 C 142.0 40.0 142.0 40.5 142.3 40.4 C 142.5 40.3 143.1 40.3 143.1 40.2 C 143.0 40.0 143.2 39.9 143.2 39.6 C 143.1 39.3 143.6 39.0 143.7 38.8 C 143.8 38.7 144.2 38.5 144.2 38.5 C 144.4 38.7 144.6 38.8 144.8 38.9 C 144.8 38.9 144.6 39.4 144.4 39.6 C 144.3 39.7 144.6 40.0 144.8 40.0 C 144.9 40.0 145.9 39.7 145.9 39.7 C 145.8 39.3 145.8 38.9 145.7 38.5 C 145.9 38.4 146.2 38.3 146.4 38.2 C 146.4 38.2 146.6 39.5 147.0 39.4 C 147.5 39.3 148.0 39.2 148.0 39.2 C 148.0 39.2 148.4 38.6 148.5 38.5 C 148.6 38.4 148.4 37.2 148.4 37.2 C 148.2 36.8 148.1 36.4 148.0 35.9 C 148.0 35.9 147.3 35.6 147.1 35.8 C 146.8 36.1 147.2 36.5 147.2 36.8 C 147.2 37.0 146.8 37.3 146.8 37.3 C 146.5 37.1 146.2 36.9 146.0 36.7 C 146.0 36.7 145.7 36.5 145.5 36.3 C 145.3 36.1 144.5 36.2 144.3 36.3 C 144.2 36.4 144.0 36.8 143.8 37.1 C 143.6 37.3 143.7 37.7 143.4 37.5 C 143.0 37.2 142.8 36.9 142.6 36.9 C 142.4 36.9 141.9 37.5 141.9 37.5 C 141.7 37.7 141.5 37.8 141.3 38.0 C 141.3 38.0 140.9 38.3 140.7 38.0 C 140.6 37.8 139.6 38.3 139.6 38.3 C 139.6 38.3 139.6 37.4 139.3 37.3 C 139.0 37.3 138.6 37.1 138.1 37.4 C 137.7 37.6 137.5 38.4 137.5 38.4 C 137.4 38.2 137.2 38.0 137.0 37.9 C 136.6 37.9 136.2 37.9 135.8 37.9 C 135.8 37.9 134.8 38.1 134.9 38.2 C 134.9 38.4 135.1 39.0 135.1 39.2 C 135.0 39.4 134.6 39.7 134.5 39.5 C 134.4 39.3 133.9 38.7 133.9 38.7 C 133.9 38.7 133.4 38.3 133.1 38.3 C 132.8 38.3 132.4 38.6 132.3 38.8 C 132.2 38.9 131.8 39.5 131.8 39.5 C 131.7 39.3 131.5 39.1 131.4 38.9 C 131.4 38.9 130.7 39.3 129.8 38.8 C 129.8 38.8 129.8 38.8 129.8 38.8 Z M 129.8 38.8 " fill="#C03520"></path></g></svg>