<?xml version="1.0" encoding="UTF-8" standalone="no"?><svg xmlns="http://www.w3.org/2000/svg" xmlns:xlink="http://www.w3.org/1999/xlink" clip-rule="evenodd" stroke-miterlimit="4.00" viewBox="0 0 396 42"><desc>SVG generated by Keynote</desc><defs></defs><g transform="matrix(1.00, 0.00, -0.00, -1.00, 0.0, 42.0)"><text xml:space="preserve" font-family="Chalkduster" font-size="30.0" fill="#FEFFFE" transform="matrix(1.00, 0.00, -0.00, -1.00, 0.0, 12.0)">R</text><text xml:space="preserve" font-family="Chalkduster" font-size="30.0" fill="#FEFFFE" transform="matrix(1.00, 0.00, -0.00, -1.00, 23.3, 12.0)">a</text><text xml:space="preserve" font-family="Chalkduster" font-size="30.0" fill="#FEFFFE" transform="matrix(1.00, 0.00, -0.00, -1.00, 41.9, 12.0)">t</text><text xml:space="preserve" font-family="Chalkduster" font-size="30.0" fill="#FEFFFE" transform="matrix(1.00, 0.00, -0.00, -1.00, 55.8, 12.0)">i</text><text xml:space="preserve" font-family="Chalkduster" font-size="30.0" fill="#FEFFFE" transform="matrix(1.00, 0.00, -0.00, -1.00, 67.7, 12.0)">n</text><text xml:space="preserve" font-family="Chalkduster" font-size="30.0" fill="#FEFFFE" transform="matrix(1.00, 0.00, -0.00, -1.00, 88.8, 12.0)">g</text><text xml:space="preserve" font-family="Chalkduster" font-size="30.0" fill="#FEFFFE" transform="matrix(1.00, 0.00, -0.00, -1.00, 109.2, 12.0)"> </text><text xml:space="preserve" font-family="Chalkduster" font-size="30.0" fill="#FEFFFE" transform="matrix(1.00, 0.00, -0.00, -1.00, 124.1, 12.0)"> </text><text xml:space="preserve" font-family="Chalkduster" font-size="30.0" fill="#FEFFFE" transform="matrix(1.00, 0.00, -0.00, -1.00, 139.0, 12.0)"> </text><text xml:space="preserve" font-family="Chalkduster" font-size="30.0" fill="#FEFFFE" transform="matrix(1.00, 0.00, -0.00, -1.00, 153.9, 12.0)"> </text><text xml:space="preserve" font-family="Chalkduster" font-size="30.0" fill="#FEFFFE" transform="matrix(1.00, 0.00, -0.00, -1.00, 168.9, 12.0)"> </text><text xml:space="preserve" font-family="Chalkduster" font-size="30.0" fill="#FEFFFE" transform="matrix(1.00, 0.00, -0.00, -1.00, 183.8, 12.0)">N</text><text xml:space="preserve" font-family="Chalkduster" font-size="30.0" fill="#FEFFFE" transform="matrix(1.00, 0.00, -0.00, -1.00, 204.7, 12.0)">a</text><text xml:space="preserve" font-family="Chalkduster" font-size="30.0" fill="#FEFFFE" transform="matrix(1.00, 0.00, -0.00, -1.00, 224.5, 12.0)">m</text><text xml:space="preserve" font-family="Chalkduster" font-size="30.0" fill="#FEFFFE" transform="matrix(1.00, 0.00, -0.00, -1.00, 255.6, 12.0)">e</text><text xml:space="preserve" font-family="Chalkduster" font-size="30.0" fill="#FEFFFE" transform="matrix(1.00, 0.00, -0.00, -1.00, 274.2, 12.0)"> </text><text xml:space="preserve" font-family="Chalkduster" font-size="30.0" fill="#FEFFFE" transform="matrix(1.00, 0.00, -0.00, -1.00, 289.1, 12.0)">(</text><text xml:space="preserve" font-family="Chalkduster" font-size="30.0" fill="#FEFFFE" transform="matrix(1.00, 0.00, -0.00, -1.00, 303.1, 12.0)">Y</text><text xml:space="preserve" font-family="Chalkduster" font-size="30.0" fill="#FEFFFE" transform="matrix(1.00, 0.00, -0.00, -1.00, 326.2, 12.0)">e</text><text xml:space="preserve" font-family="Chalkduster" font-size="30.0" fill="#FEFFFE" transform="matrix(1.00, 0.00, -0.00, -1.00, 344.8, 12.0)">a</text><text xml:space="preserve" font-family="Chalkduster" font-size="30.0" fill="#FEFFFE" transform="matrix(1.00, 0.00, -0.00, -1.00, 363.9, 12.0)">r</text><text xml:space="preserve" font-family="Chalkduster" font-size="30.0" fill="#FEFFFE" transform="matrix(1.00, 0.00, -0.00, -1.00, 378.6, 12.0)">)</text></g></svg>