<?xml version="1.0" encoding="UTF-8" standalone="no"?><svg xmlns="http://www.w3.org/2000/svg" xmlns:xlink="http://www.w3.org/1999/xlink" clip-rule="evenodd" stroke-miterlimit="4.00" viewBox="0 0 192 28"><desc>SVG generated by Keynote</desc><defs></defs><g transform="matrix(1.00, 0.00, -0.00, -1.00, 0.0, 28.0)"><path d="M 26.3 12.8 C 26.1 12.9 25.5 12.7 25.3 12.9 M 26.3 12.8 C 25.7 11.9 24.6 11.8 23.1 11.7 C 21.5 11.6 23.2 12.5 23.0 12.9 C 20.9 13.2 20.9 12.6 21.2 11.6 C 20.4 12.3 18.1 11.1 18.5 12.3 C 21.9 12.3 16.2 12.6 19.0 13.3 C 19.3 13.5 18.5 13.8 18.2 13.8 C 19.1 14.4 17.5 15.0 19.0 15.3 C 19.2 16.1 18.9 15.8 19.9 16.4 C 20.3 16.5 20.1 16.2 20.1 16.0 C 20.2 15.1 21.2 16.5 22.0 15.9 C 22.7 17.1 23.5 15.7 22.8 15.2 C 23.5 15.4 24.4 16.6 25.1 15.8 C 25.5 16.4 27.4 16.0 26.3 15.2 C 25.4 14.7 26.4 14.4 26.5 14.1 C 26.2 13.8 25.0 14.2 24.9 14.0 C 25.2 13.8 26.7 13.4 25.1 13.4 C 25.6 13.0 24.8 12.7 26.3 12.8 C 26.3 12.8 26.3 12.8 26.3 12.8 Z M 20.6 12.1 C 20.6 11.8 21.2 12.1 20.6 12.1 C 20.6 12.1 20.6 12.1 20.6 12.1 Z M 24.5 16.4 C 24.5 16.0 25.0 16.4 24.5 16.4 C 24.5 16.4 24.5 16.4 24.5 16.4 Z M 20.4 16.0 C 20.3 15.7 20.9 16.0 20.4 16.0 C 20.4 16.0 20.4 16.0 20.4 16.0 Z M 22.1 12.3 C 23.0 12.6 21.4 12.8 21.2 12.5 C 21.4 12.5 21.9 12.1 22.1 12.3 C 22.1 12.3 22.1 12.3 22.1 12.3 Z M 22.2 14.2 C 22.3 14.0 22.7 14.0 22.6 14.3 C 22.4 14.4 22.2 14.3 22.2 14.2 C 22.2 14.2 22.2 14.2 22.2 14.2 Z M 17.8 12.9 C 17.9 12.7 18.3 12.7 18.2 13.0 C 18.0 13.1 17.8 13.0 17.8 12.9 C 17.8 12.9 17.8 12.9 17.8 12.9 Z M 23.1 13.2 C 23.3 13.2 23.4 13.5 23.2 13.6 C 23.0 13.4 22.4 13.4 23.1 13.2 C 23.1 13.2 23.1 13.2 23.1 13.2 Z M 24.5 12.1 C 25.3 12.3 23.8 12.7 23.8 12.6 C 23.5 12.4 24.1 11.9 24.5 12.1 C 24.5 12.1 24.5 12.1 24.5 12.1 Z M 23.6 13.6 C 24.2 13.8 23.3 13.8 23.6 13.6 C 23.6 13.6 23.6 13.6 23.6 13.6 Z M 18.4 15.2 C 19.0 15.4 18.2 15.4 18.4 15.2 C 18.4 15.2 18.4 15.2 18.4 15.2 Z M 21.7 16.2 C 22.3 16.3 21.4 16.4 21.7 16.2 C 21.7 16.2 21.7 16.2 21.7 16.2 Z M 20.5 13.0 C 19.4 12.9 20.3 12.2 20.5 13.0 C 20.5 13.0 20.5 13.0 20.5 13.0 Z M 26.2 12.0 C 25.2 12.0 26.1 11.2 26.2 12.0 C 26.2 12.0 26.2 12.0 26.2 12.0 Z M 185.5 12.3 C 186.5 12.2 182.6 11.1 184.1 12.4 C 184.5 13.4 181.9 13.3 182.6 12.3 C 181.8 12.2 181.8 12.2 181.4 12.6 C 181.2 11.9 179.4 11.5 178.8 11.9 C 178.4 12.5 180.0 12.0 179.0 12.7 C 176.7 12.9 179.1 13.4 178.3 14.3 C 178.2 14.2 178.1 13.8 177.9 14.1 C 177.8 14.9 179.1 15.4 178.5 16.0 C 178.9 15.9 180.5 16.7 179.8 16.0 C 179.6 15.3 181.6 16.9 181.5 15.7 C 182.0 16.3 182.6 15.5 183.1 16.2 C 183.5 16.3 183.5 15.7 183.4 15.5 C 183.4 15.0 183.9 16.8 184.6 15.8 C 184.6 16.1 186.5 16.0 185.1 15.5 C 185.5 15.6 187.6 15.9 186.5 14.8 C 185.0 14.3 188.0 13.7 186.3 13.6 C 185.0 13.5 184.7 13.7 185.7 13.1 C 186.0 13.2 187.5 13.1 186.2 12.6 C 185.9 12.7 185.3 12.6 185.5 12.3 C 185.5 12.3 185.5 12.3 185.5 12.3 Z M 185.7 13.9 C 185.0 14.0 185.7 13.5 185.7 13.9 C 185.7 13.9 185.7 13.9 185.7 13.9 Z M 183.0 16.4 C 182.2 16.5 182.9 16.0 183.0 16.4 C 183.0 16.4 183.0 16.4 183.0 16.4 Z M 183.1 12.0 C 182.7 12.4 182.6 11.2 183.1 12.0 C 183.1 12.0 183.1 12.0 183.1 12.0 Z M 184.3 15.5 C 184.2 15.5 184.4 15.4 184.5 15.3 C 184.5 15.4 184.3 15.5 184.3 15.5 C 184.3 15.5 184.3 15.5 184.3 15.5 Z M 181.8 12.0 C 180.7 12.6 181.6 11.2 181.8 12.0 C 181.8 12.0 181.8 12.0 181.8 12.0 Z M 179.5 13.1 C 179.4 14.3 178.3 12.9 179.5 13.1 C 179.5 13.1 179.5 13.1 179.5 13.1 Z M 181.1 15.6 C 181.3 15.4 181.3 15.8 181.1 15.6 C 181.1 15.6 181.1 15.6 181.1 15.6 Z M 186.1 15.8 C 186.3 15.6 186.3 15.9 186.1 15.8 C 186.1 15.8 186.1 15.8 186.1 15.8 Z M 179.7 15.5 C 179.8 15.1 180.1 15.8 179.7 15.5 C 179.7 15.5 179.7 15.5 179.7 15.5 Z M 182.9 12.5 C 183.9 11.6 184.1 13.8 182.9 12.5 C 182.9 12.5 182.9 12.5 182.9 12.5 Z M 184.7 12.4 C 185.5 12.2 184.6 13.0 184.3 12.8 C 184.3 12.7 184.6 12.5 184.7 12.4 C 184.7 12.4 184.7 12.4 184.7 12.4 Z M 181.8 12.6 C 182.5 12.2 182.4 12.8 181.8 12.6 C 181.8 12.6 181.8 12.6 181.8 12.6 Z M 183.6 12.1 C 183.9 12.2 183.3 12.2 183.6 12.1 C 183.6 12.1 183.6 12.1 183.6 12.1 Z M 180.4 11.7 C 180.7 11.8 180.1 11.8 180.4 11.7 C 180.4 11.7 180.4 11.7 180.4 11.7 Z M 185.6 11.9 C 186.0 12.0 185.3 12.1 185.6 11.9 C 185.6 11.9 185.6 11.9 185.6 11.9 Z M 180.7 12.3 C 180.6 12.7 181.6 13.6 179.8 12.8 C 179.4 12.5 180.2 11.9 180.7 12.3 C 180.7 12.3 180.7 12.3 180.7 12.3 Z M 29.2 12.8 C 25.0 11.6 26.0 13.8 25.8 14.2 C 25.3 14.8 25.8 15.2 26.6 15.6 C 27.5 17.0 27.9 14.2 28.6 15.6 C 29.7 17.5 29.8 13.9 30.3 15.9 C 30.1 16.4 31.7 16.0 31.6 15.9 C 32.4 16.8 33.6 15.2 33.6 15.0 C 34.1 15.2 34.2 17.0 35.8 15.7 C 37.1 15.2 37.7 17.0 37.3 15.8 C 38.3 17.1 38.0 15.4 38.9 15.8 C 39.6 16.6 39.0 14.7 40.1 16.1 C 40.7 15.0 39.6 16.9 42.8 16.0 C 41.3 15.9 44.3 15.1 43.7 15.9 C 42.6 16.7 45.2 15.6 46.6 16.1 C 47.0 15.7 48.8 14.6 48.5 15.8 C 50.0 17.1 50.0 15.0 50.7 16.0 C 51.2 16.5 51.3 15.5 51.7 15.6 C 52.2 16.4 52.7 15.9 54.6 16.1 C 58.6 16.5 55.2 14.0 56.7 13.7 C 57.0 13.4 54.7 10.7 55.6 12.7 C 55.3 12.1 52.0 14.2 53.7 12.0 C 52.4 12.9 53.9 11.1 51.4 12.2 C 54.9 13.7 47.4 12.8 50.7 12.0 C 50.2 11.6 48.8 11.7 49.8 12.0 C 50.2 13.4 47.4 11.4 48.8 13.1 C 46.6 12.6 47.2 14.2 46.6 13.1 C 46.1 11.2 46.7 13.6 45.6 13.0 C 43.1 13.0 45.0 10.9 43.5 12.3 C 41.0 11.4 43.0 13.1 42.1 13.3 C 41.9 14.6 39.6 12.4 41.5 12.2 C 40.5 12.9 41.3 11.6 40.1 12.4 C 41.0 13.6 38.7 11.1 39.0 12.1 C 38.0 12.4 38.5 13.1 38.2 13.1 C 36.7 13.1 37.2 12.0 36.8 12.8 C 36.5 13.3 35.8 11.8 35.6 12.2 C 37.2 12.2 34.3 13.4 34.1 12.8 C 35.1 12.7 33.7 11.2 33.0 12.1 C 33.8 14.7 31.7 11.5 31.0 12.4 C 31.7 13.8 27.6 12.6 29.1 11.9 C 29.0 12.0 29.2 12.8 29.2 12.8 M 35.1 12.4 C 36.4 12.5 33.8 12.7 35.1 12.4 M 35.1 12.0 C 35.6 12.5 33.9 11.6 35.2 11.8 C 35.2 11.8 35.0 12.0 35.1 12.0 M 40.4 11.9 C 40.2 12.3 39.7 11.7 40.4 11.9 M 41.4 12.8 C 42.3 13.2 40.3 12.9 41.4 12.8 M 53.1 12.5 C 51.9 14.7 51.9 11.3 53.1 12.5 M 45.4 12.1 C 43.9 12.4 45.9 11.2 45.4 12.1 M 44.9 12.6 C 44.3 13.0 44.8 12.2 44.9 12.6 M 50.9 12.5 C 51.0 12.6 51.0 12.6 50.9 12.5 C 50.9 12.5 50.9 12.5 50.9 12.5 Z M 54.4 12.6 C 54.4 12.6 54.4 12.6 54.4 12.6 C 54.4 12.6 54.4 12.6 54.4 12.6 Z M 47.5 12.8 C 46.4 12.3 49.3 12.6 47.5 12.8 C 47.5 12.8 47.5 12.8 47.5 12.8 Z M 52.7 15.9 C 52.6 15.9 52.6 15.9 52.7 15.9 C 52.7 15.9 52.7 15.9 52.7 15.9 Z M 34.1 13.3 C 34.1 13.4 34.1 13.4 34.1 13.3 C 34.1 13.3 34.1 13.3 34.1 13.3 Z M 30.2 12.5 C 30.2 12.8 29.5 12.3 30.2 12.5 C 30.2 12.5 30.2 12.5 30.2 12.5 Z M 27.0 15.0 C 26.9 15.0 26.9 15.0 27.0 15.0 C 27.0 15.0 27.0 15.0 27.0 15.0 Z M 32.8 14.5 C 32.8 14.5 32.8 14.5 32.8 14.5 C 32.8 14.5 32.8 14.5 32.8 14.5 Z M 33.4 12.9 C 32.7 11.7 34.9 13.2 33.4 12.9 C 33.4 12.9 33.4 12.9 33.4 12.9 Z M 46.2 15.7 C 46.2 15.2 47.1 15.9 46.2 15.7 C 46.2 15.7 46.2 15.7 46.2 15.7 Z M 41.6 13.3 C 41.7 13.0 42.1 13.4 41.6 13.3 C 41.6 13.3 41.6 13.3 41.6 13.3 Z M 39.4 11.7 C 39.6 11.4 40.0 11.8 39.4 11.7 C 39.4 11.7 39.4 11.7 39.4 11.7 Z M 30.2 12.2 C 30.3 12.1 30.3 12.1 30.2 12.2 C 30.2 12.2 30.2 12.2 30.2 12.2 Z M 31.7 13.1 C 30.7 12.0 33.2 13.7 31.7 13.1 C 31.7 13.1 31.7 13.1 31.7 13.1 Z M 30.0 13.4 C 30.5 13.8 28.7 13.2 30.0 13.4 M 30.9 15.1 C 32.1 14.6 29.9 17.1 30.9 15.1 C 30.9 15.1 30.9 15.1 30.9 15.1 Z M 37.0 15.6 C 37.1 15.6 37.1 15.6 37.0 15.6 C 37.0 15.6 37.0 15.6 37.0 15.6 Z M 36.4 12.3 C 37.4 12.4 35.7 12.6 36.4 12.3 C 36.4 12.3 36.4 12.3 36.4 12.3 Z M 27.2 12.1 C 28.3 12.1 26.5 12.3 27.2 12.1 C 27.2 12.1 27.2 12.1 27.2 12.1 Z M 40.6 14.5 C 42.3 14.3 39.5 15.1 40.6 14.5 C 40.6 14.5 40.6 14.5 40.6 14.5 Z M 46.9 13.2 C 47.0 13.2 47.0 13.2 46.9 13.2 C 46.9 13.2 46.9 13.2 46.9 13.2 Z M 48.1 12.7 C 48.1 12.8 48.1 12.8 48.1 12.7 C 48.1 12.7 48.1 12.7 48.1 12.7 Z M 53.0 13.9 C 53.1 13.9 53.1 13.9 53.0 13.9 C 53.0 13.9 53.0 13.9 53.0 13.9 Z M 49.2 12.2 C 49.2 12.2 49.2 12.2 49.2 12.2 C 49.2 12.2 49.2 12.2 49.2 12.2 Z M 52.6 12.5 C 52.6 12.5 52.6 12.5 52.6 12.5 C 52.6 12.5 52.6 12.5 52.6 12.5 Z M 52.1 11.5 C 52.2 11.6 52.2 11.6 52.1 11.5 C 52.1 11.5 52.1 11.5 52.1 11.5 Z M 44.5 16.4 C 44.6 16.4 44.6 16.4 44.5 16.4 C 44.5 16.4 44.5 16.4 44.5 16.4 Z M 32.1 11.8 C 32.2 11.9 32.2 11.9 32.1 11.8 C 32.1 11.8 32.1 11.8 32.1 11.8 Z M 52.3 12.9 C 52.3 13.0 52.3 13.0 52.3 12.9 C 52.3 12.9 52.3 12.9 52.3 12.9 Z M 44.0 13.8 C 44.0 14.7 43.3 12.6 44.2 13.8 C 44.2 13.8 43.9 13.7 44.0 13.8 M 45.1 15.4 C 45.1 15.4 45.1 15.4 45.1 15.4 C 45.1 15.4 45.1 15.4 45.1 15.4 Z M 41.3 15.9 C 41.3 16.0 41.3 16.0 41.3 15.9 C 41.3 15.9 41.3 15.9 41.3 15.9 Z M 48.6 12.0 C 48.4 11.5 49.5 12.4 48.4 12.1 M 53.1 15.5 C 52.9 15.0 54.0 15.9 52.9 15.6 M 26.0 12.4 C 25.9 12.8 25.3 12.2 26.0 12.4 M 40.5 16.4 C 40.3 16.8 39.8 16.2 40.5 16.4 M 42.2 15.2 C 42.1 14.7 43.2 15.6 42.1 15.3 M 50.5 15.5 C 50.5 15.5 50.5 15.5 50.5 15.5 C 50.5 15.5 50.5 15.5 50.5 15.5 Z M 38.0 12.4 C 38.0 12.4 38.0 12.4 38.0 12.4 C 38.0 12.4 38.0 12.4 38.0 12.4 Z M 42.6 13.5 C 42.0 12.8 43.4 14.0 42.6 13.5 M 36.7 13.7 C 35.8 12.8 38.1 14.0 36.7 13.7 M 55.0 15.7 C 54.0 14.7 55.8 16.3 55.0 15.7 M 50.0 13.0 C 48.9 12.0 50.7 13.6 50.0 13.0 M 38.9 12.9 C 38.9 12.3 40.0 13.2 38.9 12.9 M 28.4 12.3 C 27.4 12.2 29.7 11.9 28.4 12.3 M 48.0 15.5 C 48.0 15.6 48.0 15.6 48.0 15.5 C 48.0 15.5 48.0 15.5 48.0 15.5 Z M 31.6 16.5 C 31.6 16.5 31.6 16.5 31.6 16.5 C 31.6 16.5 31.6 16.5 31.6 16.5 Z M 56.3 12.2 C 56.4 12.2 56.4 12.2 56.3 12.2 C 56.3 12.2 56.3 12.2 56.3 12.2 Z M 49.3 13.5 C 49.4 13.6 49.4 13.6 49.3 13.5 C 49.3 13.5 49.3 13.5 49.3 13.5 Z M 54.4 12.1 C 54.4 12.1 54.4 12.1 54.4 12.1 C 54.4 12.1 54.4 12.1 54.4 12.1 Z M 46.1 14.4 C 46.2 14.4 46.2 14.4 46.1 14.4 C 46.1 14.4 46.1 14.4 46.1 14.4 Z M 45.5 11.6 C 45.5 11.6 45.5 11.6 45.5 11.6 C 45.5 11.6 45.5 11.6 45.5 11.6 Z M 42.0 12.8 C 42.0 12.8 42.0 12.8 42.0 12.8 C 42.0 12.8 42.0 12.8 42.0 12.8 Z M 47.1 11.8 C 49.2 11.7 46.0 12.8 47.1 11.8 C 47.1 11.8 47.1 11.8 47.1 11.8 Z M 43.5 14.6 C 43.5 14.6 43.5 14.6 43.5 14.6 C 43.5 14.6 43.5 14.6 43.5 14.6 Z M 43.2 12.6 C 44.5 11.9 43.9 14.0 43.2 12.6 M 37.4 12.0 C 37.8 11.6 37.6 12.6 37.4 12.0 M 35.1 15.6 C 35.1 15.7 35.1 15.7 35.1 15.6 C 35.1 15.6 35.1 15.6 35.1 15.6 Z M 35.7 15.3 C 35.8 15.4 35.8 15.4 35.7 15.3 C 35.7 15.3 35.7 15.3 35.7 15.3 Z M 36.0 11.8 C 36.0 11.8 36.0 11.8 36.0 11.8 C 36.0 11.8 36.0 11.8 36.0 11.8 Z M 35.8 16.4 C 35.8 16.4 35.8 16.4 35.8 16.4 C 35.8 16.4 35.8 16.4 35.8 16.4 Z M 44.7 11.7 C 44.7 11.7 44.7 11.7 44.7 11.7 C 44.7 11.7 44.7 11.7 44.7 11.7 Z M 55.4 11.7 C 55.4 11.7 55.4 11.7 55.4 11.7 C 55.4 11.7 55.4 11.7 55.4 11.7 Z M 28.7 15.2 C 28.8 15.3 28.8 15.3 28.7 15.2 C 28.7 15.2 28.7 15.2 28.7 15.2 Z M 45.8 12.8 C 45.8 12.8 45.8 12.8 45.8 12.8 C 45.8 12.8 45.8 12.8 45.8 12.8 Z M 33.6 15.4 C 33.6 15.5 33.6 15.5 33.6 15.4 C 33.6 15.4 33.6 15.4 33.6 15.4 Z M 45.1 12.6 C 45.1 12.6 45.1 12.6 45.1 12.6 C 45.1 12.6 45.1 12.6 45.1 12.6 Z M 47.6 15.8 C 47.7 15.8 47.7 15.8 47.6 15.8 C 47.6 15.8 47.6 15.8 47.6 15.8 Z M 49.9 16.4 C 50.0 16.4 50.0 16.4 49.9 16.4 C 49.9 16.4 49.9 16.4 49.9 16.4 Z M 47.5 13.8 C 47.5 13.9 47.5 13.9 47.5 13.8 C 47.5 13.8 47.5 13.8 47.5 13.8 Z M 32.8 14.3 C 28.6 13.3 36.1 13.8 32.8 14.3 M 48.2 14.1 C 45.2 13.8 50.5 13.0 48.2 14.1 C 48.5 13.8 48.2 14.0 48.2 14.1 M 57.4 11.8 C 56.1 12.8 56.2 13.7 56.7 14.8 C 57.3 15.3 57.3 13.3 57.3 15.0 C 55.9 15.3 57.9 17.6 57.8 15.4 C 59.7 15.0 58.1 16.8 59.2 15.9 C 61.2 15.7 60.2 16.3 61.7 16.2 C 62.5 15.0 62.5 16.8 62.9 15.6 C 62.2 16.9 64.5 15.3 64.6 15.9 C 63.2 16.6 69.7 15.9 66.2 15.5 C 67.6 14.9 67.3 16.0 67.8 16.1 C 68.5 15.4 70.2 16.7 71.1 16.0 C 70.9 15.8 70.5 15.7 70.4 15.5 C 70.1 15.0 71.4 15.6 71.2 15.6 C 71.8 15.3 74.2 14.5 71.7 15.9 C 71.5 16.4 73.7 15.6 73.6 16.1 C 75.8 16.1 74.2 14.9 75.1 15.8 C 76.7 15.8 77.8 15.9 77.8 15.7 C 78.7 15.8 78.9 16.5 79.7 15.9 C 81.6 17.2 81.1 13.3 81.8 15.9 C 82.3 15.3 82.9 17.0 82.8 15.4 C 82.1 16.1 86.0 16.6 84.3 15.5 C 84.8 15.1 87.2 17.1 86.9 15.5 C 87.7 14.3 87.6 13.1 85.7 12.0 C 85.9 12.9 83.7 11.0 85.1 12.6 C 86.7 13.2 82.1 13.2 83.1 12.6 C 83.3 10.7 80.8 13.8 79.9 12.4 C 80.7 13.2 76.9 13.6 78.0 12.2 C 77.3 12.0 77.1 12.7 76.4 11.9 C 78.6 12.0 75.5 13.4 75.6 12.5 C 76.0 12.0 72.7 11.6 73.0 12.3 C 74.2 14.3 72.1 11.9 71.6 12.7 C 69.7 13.1 71.9 11.1 70.5 12.5 C 70.1 12.2 67.6 12.2 69.2 11.8 C 69.8 12.0 67.7 14.0 67.5 12.3 C 70.1 11.4 64.4 11.8 65.3 12.3 C 69.4 13.2 61.0 13.3 64.2 12.4 C 62.4 11.5 64.7 12.1 62.5 12.5 C 62.8 13.0 61.1 13.5 61.5 12.4 C 61.1 10.9 60.9 14.5 59.5 12.4 C 59.3 11.5 56.8 13.1 57.7 12.0 C 57.8 11.9 57.4 11.7 57.4 11.8 M 58.2 11.9 C 57.9 12.3 57.7 11.5 58.2 11.9 M 57.8 12.3 C 57.8 12.3 57.8 12.3 57.8 12.3 C 57.8 12.3 57.8 12.3 57.8 12.3 Z M 62.2 12.5 C 62.1 12.5 62.1 12.5 62.2 12.5 C 62.2 12.5 62.2 12.5 62.2 12.5 Z M 65.6 16.5 C 65.6 16.4 65.6 16.4 65.6 16.5 C 65.6 16.5 65.6 16.5 65.6 16.5 Z M 65.1 12.6 C 65.0 12.6 65.0 12.6 65.1 12.6 C 65.1 12.6 65.1 12.6 65.1 12.6 Z M 60.6 12.8 C 60.6 12.8 60.6 12.8 60.6 12.8 C 60.6 12.8 60.6 12.8 60.6 12.8 Z M 64.8 12.0 C 65.0 12.6 63.8 11.6 64.8 11.9 C 64.9 12.0 64.7 12.0 64.8 12.0 M 68.6 11.8 C 68.6 11.9 68.6 11.9 68.6 11.8 M 76.9 16.4 C 76.9 16.5 76.9 16.5 76.9 16.4 M 77.5 11.8 C 77.6 11.8 77.6 11.8 77.5 11.8 M 72.3 12.4 C 73.5 12.3 72.6 12.7 72.3 12.4 M 80.6 12.1 C 79.1 11.7 82.1 11.8 80.6 12.1 M 82.0 11.7 C 82.1 11.8 82.1 11.8 82.0 11.7 M 75.5 12.0 C 75.4 12.0 75.4 12.0 75.5 12.0 C 75.5 12.0 75.5 12.0 75.5 12.0 Z M 71.8 12.2 C 70.3 11.8 73.4 11.6 71.8 12.2 M 62.7 12.0 C 63.5 11.7 62.7 12.7 62.7 12.0 M 61.0 12.3 C 61.0 12.3 61.0 12.3 61.0 12.3 C 61.0 12.3 61.0 12.3 61.0 12.3 Z M 78.3 12.1 C 78.2 12.1 78.2 12.1 78.3 12.1 C 78.3 12.1 78.3 12.1 78.3 12.1 Z M 79.9 11.9 C 79.9 12.0 79.9 12.0 79.9 11.9 C 79.9 11.9 79.9 11.9 79.9 11.9 Z M 82.7 16.3 C 82.7 16.3 82.7 16.3 82.7 16.3 C 82.7 16.3 82.7 16.3 82.7 16.3 Z M 62.2 14.1 C 61.1 13.8 63.4 12.7 63.2 13.7 C 63.3 14.2 62.4 14.0 62.2 14.1 M 70.7 13.5 C 71.0 15.0 69.6 11.5 70.7 13.5 M 82.2 12.7 C 83.3 14.5 80.8 11.5 82.2 12.7 M 84.5 12.4 C 85.1 12.8 80.2 12.6 83.7 12.1 C 84.0 11.9 84.2 12.2 84.5 12.4 M 68.6 12.5 C 68.9 13.3 66.8 12.2 68.6 12.5 M 75.5 15.0 C 76.1 14.4 77.5 14.0 76.9 14.9 C 76.9 16.0 74.9 15.4 75.5 15.0 M 58.5 12.8 C 59.4 11.5 58.5 13.9 58.5 12.8 M 62.9 12.9 C 62.9 12.8 62.9 12.8 62.9 12.9 C 62.9 12.9 62.9 12.9 62.9 12.9 Z M 64.6 12.7 C 64.7 12.8 64.7 12.8 64.6 12.7 M 59.2 11.6 C 59.3 11.7 59.3 11.7 59.2 11.6 M 75.5 13.6 C 75.6 13.7 75.6 13.7 75.5 13.6 M 72.0 12.7 C 73.7 14.0 71.1 13.0 72.0 12.7 M 67.8 15.2 C 68.4 15.8 66.8 15.3 67.8 15.2 M 74.8 12.3 C 75.9 13.5 73.1 13.4 74.8 12.3 M 71.1 12.6 C 71.2 12.6 71.2 12.6 71.1 12.6 C 71.1 12.6 71.1 12.6 71.1 12.6 Z M 76.0 15.1 C 76.0 15.1 76.0 15.1 76.0 15.1 C 76.0 15.1 76.0 15.1 76.0 15.1 Z M 76.5 15.0 C 76.4 15.1 76.4 15.1 76.5 15.0 C 76.5 15.0 76.5 15.0 76.5 15.0 Z M 76.2 12.1 C 76.2 12.1 76.2 12.1 76.2 12.1 C 76.2 12.1 76.2 12.1 76.2 12.1 Z M 60.9 15.7 C 62.1 15.8 59.9 15.9 60.9 15.7 C 60.9 15.7 60.9 15.7 60.9 15.7 Z M 66.2 12.0 C 68.1 13.0 64.8 13.0 66.2 12.0 C 66.2 12.0 66.2 12.0 66.2 12.0 Z M 68.4 13.7 C 68.4 13.7 68.4 13.7 68.4 13.7 C 68.4 13.7 68.4 13.7 68.4 13.7 Z M 74.0 11.5 C 74.0 11.6 74.0 11.6 74.0 11.5 C 74.0 11.5 74.0 11.5 74.0 11.5 Z M 61.5 15.8 C 61.5 15.9 61.5 15.9 61.5 15.8 C 61.5 15.8 61.5 15.8 61.5 15.8 Z M 79.6 12.8 C 79.6 12.8 79.6 12.8 79.6 12.8 C 79.6 12.8 79.6 12.8 79.6 12.8 Z M 72.7 15.3 C 73.2 14.8 72.8 15.7 72.7 15.3 C 72.7 15.3 72.7 15.3 72.7 15.3 Z M 74.5 15.3 C 74.6 15.3 74.6 15.3 74.5 15.3 C 74.5 15.3 74.5 15.3 74.5 15.3 Z M 82.4 11.6 C 82.5 11.6 82.5 11.6 82.4 11.6 C 82.4 11.6 82.4 11.6 82.4 11.6 Z M 79.1 16.5 C 79.1 16.5 79.1 16.5 79.1 16.5 C 79.1 16.5 79.1 16.5 79.1 16.5 Z M 80.6 15.0 C 80.6 15.0 80.6 15.0 80.6 15.0 C 80.6 15.0 80.6 15.0 80.6 15.0 Z M 75.9 12.4 C 77.7 12.2 75.5 13.0 75.9 12.4 C 75.9 12.4 75.9 12.4 75.9 12.4 Z M 85.0 14.6 C 85.1 14.7 85.1 14.7 85.0 14.6 C 85.0 14.6 85.0 14.6 85.0 14.6 Z M 85.9 12.9 C 86.0 13.0 86.0 13.0 85.9 12.9 C 85.9 12.9 85.9 12.9 85.9 12.9 Z M 86.4 12.0 C 86.4 12.1 86.4 12.1 86.4 12.0 C 86.4 12.0 86.4 12.0 86.4 12.0 Z M 64.6 14.5 C 64.5 14.4 64.5 14.4 64.6 14.5 C 64.6 14.5 64.6 14.5 64.6 14.5 Z M 63.9 11.7 C 63.9 11.7 63.9 11.7 63.9 11.7 C 63.9 11.7 63.9 11.7 63.9 11.7 Z M 66.3 11.6 C 66.3 11.6 66.3 11.6 66.3 11.6 C 66.3 11.6 66.3 11.6 66.3 11.6 Z M 64.2 16.1 C 64.1 16.1 64.1 16.1 64.2 16.1 C 64.2 16.1 64.2 16.1 64.2 16.1 Z M 73.2 13.8 C 73.2 13.8 73.2 13.8 73.2 13.8 C 73.2 13.8 73.2 13.8 73.2 13.8 Z M 74.1 14.9 C 74.0 14.9 74.0 14.9 74.1 14.9 C 74.1 14.9 74.1 14.9 74.1 14.9 Z M 72.0 16.4 C 72.0 16.4 72.0 16.4 72.0 16.4 C 72.0 16.4 72.0 16.4 72.0 16.4 Z M 74.7 15.9 C 74.7 15.9 74.7 15.9 74.7 15.9 C 74.7 15.9 74.7 15.9 74.7 15.9 Z M 58.1 15.6 C 58.1 15.7 58.1 15.7 58.1 15.6 C 58.1 15.6 58.1 15.6 58.1 15.6 Z M 57.9 13.5 C 57.8 13.6 57.8 13.6 57.9 13.5 C 57.9 13.5 57.9 13.5 57.9 13.5 Z M 73.5 12.3 C 73.9 11.8 74.3 12.9 73.5 12.3 M 70.0 12.6 C 70.0 12.6 70.0 12.6 70.0 12.6 C 70.0 12.6 70.0 12.6 70.0 12.6 Z M 79.3 12.4 C 79.8 13.2 77.7 11.9 79.3 12.4 C 79.3 12.4 79.3 12.4 79.3 12.4 Z M 77.5 15.9 C 77.5 15.9 77.5 15.9 77.5 15.9 C 77.5 15.9 77.5 15.9 77.5 15.9 Z M 78.4 15.5 C 78.5 15.6 78.5 15.6 78.4 15.5 C 78.4 15.5 78.4 15.5 78.4 15.5 Z M 83.4 13.3 C 83.5 13.3 83.5 13.3 83.4 13.3 M 69.6 11.8 C 70.1 12.2 70.0 12.1 69.6 11.8 M 80.5 12.4 C 80.4 12.4 80.4 12.4 80.5 12.4 C 80.5 12.4 80.5 12.4 80.5 12.4 Z M 84.5 12.8 C 84.5 12.8 84.5 12.8 84.5 12.8 C 84.5 12.8 84.5 12.8 84.5 12.8 Z M 67.2 12.4 C 67.2 13.4 66.8 13.2 67.2 12.4 M 60.3 12.7 C 60.3 12.8 60.3 12.8 60.3 12.7 C 60.3 12.7 60.3 12.7 60.3 12.7 Z M 90.0 12.1 C 88.1 10.9 88.1 12.5 88.1 12.6 C 88.3 10.4 86.4 13.4 86.8 13.8 C 86.7 14.1 88.2 17.8 89.5 15.6 C 89.9 15.3 90.1 15.9 90.3 16.0 C 92.6 15.9 88.8 14.8 91.6 14.8 C 92.1 15.1 91.5 16.9 93.1 15.7 C 93.2 15.9 95.1 16.5 94.4 15.7 C 95.3 16.5 95.8 15.5 96.7 15.3 C 97.4 15.8 96.0 16.6 98.7 15.6 C 99.9 17.1 100.3 14.6 101.3 16.2 C 102.0 16.2 103.1 13.6 101.5 15.1 C 101.7 14.9 100.7 13.6 102.9 14.1 C 102.6 14.4 101.4 17.1 104.7 15.8 C 105.3 15.9 106.6 15.2 106.9 15.5 C 105.1 15.8 109.2 16.7 108.8 15.9 C 111.5 16.4 109.9 15.2 111.9 16.1 C 113.4 16.1 111.3 14.9 113.3 15.6 C 114.8 15.5 113.8 16.2 113.6 16.1 C 114.9 16.2 115.4 15.8 115.8 15.8 C 116.1 15.9 116.7 16.5 117.0 15.8 C 118.4 14.6 117.1 13.4 117.7 12.1 C 116.7 11.6 117.3 13.1 116.6 12.2 C 116.1 12.9 116.5 12.1 113.8 12.3 C 113.9 12.5 114.6 13.0 113.9 13.1 C 112.8 13.0 113.6 10.9 111.8 12.4 C 113.9 12.8 109.0 13.0 110.9 13.5 C 108.5 13.7 110.2 13.3 108.5 12.8 C 108.6 14.2 108.3 11.3 107.7 12.4 C 107.5 11.8 104.8 12.1 106.8 12.9 C 103.9 13.3 105.7 12.5 104.7 11.8 C 103.4 11.7 104.6 14.0 103.8 12.3 C 102.1 11.6 103.7 13.2 102.5 11.8 C 103.1 13.0 101.3 11.8 101.7 13.1 C 98.8 13.2 102.1 11.8 100.1 12.7 C 100.7 12.7 100.4 11.0 99.2 12.1 C 99.7 14.1 97.6 10.3 98.5 13.0 C 94.4 13.8 97.8 11.9 95.6 11.9 C 95.0 11.9 96.2 12.7 95.7 12.8 C 92.8 12.4 95.2 11.7 93.7 13.0 C 90.9 13.3 92.9 11.9 91.5 11.8 C 91.4 12.4 90.3 13.5 90.0 12.1 M 92.5 12.7 C 93.1 12.3 92.9 13.2 92.5 12.7 M 86.8 12.1 C 87.4 11.7 87.2 12.5 86.8 12.1 M 94.8 12.3 C 95.6 11.9 95.1 13.0 94.8 12.3 M 110.0 13.0 C 109.0 13.0 110.5 12.6 110.0 13.0 M 89.1 12.0 C 89.9 11.5 89.3 12.7 89.1 12.0 M 88.1 13.1 C 88.1 13.1 88.1 13.1 88.1 13.1 M 111.5 11.9 C 111.6 11.9 111.6 11.9 111.5 11.9 M 107.5 11.9 C 108.3 11.9 107.0 12.1 107.5 11.9 M 107.3 16.3 C 108.2 16.4 106.8 16.6 107.3 16.3 M 113.8 11.8 C 114.6 11.5 114.0 12.3 113.8 11.8 M 116.0 12.8 C 116.8 12.4 116.6 13.3 116.0 12.8 M 92.0 14.3 C 92.0 14.3 92.0 14.3 92.0 14.3 C 92.0 14.3 92.0 14.3 92.0 14.3 Z M 99.5 15.4 C 98.6 14.9 100.6 15.9 99.5 15.4 M 98.1 12.5 C 98.7 13.4 96.9 12.4 98.1 12.5 C 98.1 12.5 98.1 12.5 98.1 12.5 Z M 96.8 12.9 C 96.8 12.9 96.8 12.9 96.8 12.9 C 96.8 12.9 96.8 12.9 96.8 12.9 Z M 101.0 12.9 C 101.0 12.9 101.0 12.9 101.0 12.9 C 101.0 12.9 101.0 12.9 101.0 12.9 Z M 100.1 13.0 C 99.8 13.2 99.6 12.8 100.1 13.0 C 100.1 13.0 100.1 13.0 100.1 13.0 Z M 106.3 15.9 C 105.9 16.1 105.8 15.7 106.3 15.9 C 106.3 15.9 106.3 15.9 106.3 15.9 Z M 98.8 13.3 C 98.7 14.2 98.2 12.7 98.8 13.3 C 98.8 13.3 98.8 13.3 98.8 13.3 Z M 103.3 15.5 C 103.7 15.2 104.1 16.3 103.3 15.5 M 112.4 12.0 C 112.8 11.8 113.2 12.9 112.4 12.0 M 103.5 11.8 C 103.9 11.5 104.3 12.6 103.5 11.8 M 93.0 12.3 C 93.1 12.4 93.1 12.4 93.0 12.3 M 97.9 16.3 C 98.5 15.9 98.2 16.7 97.9 16.3 M 89.5 16.0 C 90.1 15.6 89.8 16.4 89.5 16.0 M 111.1 16.2 C 111.1 16.0 112.0 16.4 111.1 16.2 M 104.5 13.2 C 105.3 13.3 106.1 13.8 104.5 13.8 C 104.4 13.6 104.9 13.4 104.5 13.2 C 104.5 13.2 104.5 13.2 104.5 13.2 Z M 107.3 15.3 C 107.4 15.4 107.4 15.4 107.3 15.3 M 105.9 12.4 C 106.0 12.5 106.0 12.5 105.9 12.4 M 110.5 12.5 C 110.6 12.6 110.6 12.6 110.5 12.5 M 111.1 12.2 C 111.0 12.3 111.0 12.3 111.1 12.2 C 111.1 12.2 111.1 12.2 111.1 12.2 Z M 116.1 11.9 C 116.1 11.9 116.1 11.9 116.1 11.9 C 116.1 11.9 116.1 11.9 116.1 11.9 Z M 109.0 12.6 C 109.0 12.6 109.0 12.6 109.0 12.6 C 109.0 12.6 109.0 12.6 109.0 12.6 Z M 113.2 16.1 C 113.2 16.1 113.2 16.1 113.2 16.1 C 113.2 16.1 113.2 16.1 113.2 16.1 Z M 112.6 15.5 C 112.6 15.6 112.6 15.6 112.6 15.5 C 112.6 15.5 112.6 15.5 112.6 15.5 Z M 90.4 12.1 C 91.1 11.4 90.8 13.6 90.4 12.1 M 114.9 15.5 C 115.5 16.2 113.7 15.7 114.9 15.5 C 114.9 15.5 114.9 15.5 114.9 15.5 Z M 108.5 13.4 C 108.5 13.5 108.5 13.5 108.5 13.4 M 111.3 12.3 C 111.4 12.4 111.4 12.4 111.3 12.3 M 98.1 11.6 C 98.1 11.7 98.1 11.7 98.1 11.6 M 114.9 12.5 C 117.0 12.7 113.9 13.8 114.9 12.5 M 97.1 12.5 C 97.0 12.4 97.0 12.4 97.1 12.5 M 101.9 14.2 C 103.3 14.1 101.4 14.7 101.9 14.2 M 105.5 13.0 C 105.5 13.1 105.5 13.1 105.5 13.0 C 105.5 13.0 105.5 13.0 105.5 13.0 Z M 103.4 13.0 C 102.3 13.2 103.1 12.8 103.4 13.0 C 103.4 13.0 103.4 13.0 103.4 13.0 Z M 91.4 12.9 C 92.7 13.0 90.0 13.2 91.4 12.9 C 91.4 12.9 91.4 12.9 91.4 12.9 Z M 113.9 14.6 C 113.8 14.7 113.8 14.7 113.9 14.6 C 113.9 14.6 113.9 14.6 113.9 14.6 Z M 108.8 12.0 C 108.1 12.2 108.5 11.7 108.8 12.0 C 108.8 12.0 108.8 12.0 108.8 12.0 Z M 116.8 11.9 C 116.2 12.1 116.5 11.6 116.8 11.9 C 116.8 11.9 116.8 11.9 116.8 11.9 Z M 89.8 12.7 C 94.7 14.3 83.2 12.4 89.8 12.7 C 89.8 12.7 89.8 12.7 89.8 12.7 Z M 104.2 12.4 C 104.2 12.5 104.2 12.5 104.2 12.4 C 104.2 12.4 104.2 12.4 104.2 12.4 Z M 95.1 11.8 C 95.1 11.8 95.1 11.8 95.1 11.8 C 95.1 11.8 95.1 11.8 95.1 11.8 Z M 93.6 12.6 C 93.5 12.7 93.5 12.7 93.6 12.6 C 93.6 12.6 93.6 12.6 93.6 12.6 Z M 94.0 16.2 C 94.0 16.2 94.0 16.2 94.0 16.2 C 94.0 16.2 94.0 16.2 94.0 16.2 Z M 94.5 14.6 C 94.5 14.7 94.5 14.7 94.5 14.6 C 94.5 14.6 94.5 14.6 94.5 14.6 Z M 91.3 15.2 C 91.3 15.2 91.3 15.2 91.3 15.2 C 91.3 15.2 91.3 15.2 91.3 15.2 Z M 91.4 15.6 C 91.4 15.7 91.4 15.7 91.4 15.6 C 91.4 15.6 91.4 15.6 91.4 15.6 Z M 111.3 13.3 C 111.3 13.4 111.3 13.4 111.3 13.3 C 111.3 13.3 111.3 13.3 111.3 13.3 Z M 109.6 14.8 C 110.8 14.3 109.3 15.6 109.6 14.8 C 109.6 14.8 109.6 14.8 109.6 14.8 Z M 99.4 14.1 C 100.5 13.9 98.8 14.5 99.4 14.1 C 99.4 14.1 99.4 14.1 99.4 14.1 Z M 100.6 16.0 C 100.6 16.0 100.6 16.0 100.6 16.0 C 100.6 16.0 100.6 16.0 100.6 16.0 Z M 93.6 11.8 C 93.5 11.9 93.5 11.9 93.6 11.8 C 93.6 11.8 93.6 11.8 93.6 11.8 Z M 91.6 12.4 C 91.6 13.1 91.0 12.0 91.6 12.4 M 101.4 11.9 C 101.4 12.0 101.4 12.0 101.4 11.9 C 101.4 11.9 101.4 11.9 101.4 11.9 Z M 107.6 13.1 C 107.6 13.2 107.6 13.2 107.6 13.1 C 107.6 13.1 107.6 13.1 107.6 13.1 Z M 113.7 12.6 C 113.7 12.7 113.7 12.7 113.7 12.6 C 113.7 12.6 113.7 12.6 113.7 12.6 Z M 105.3 12.0 C 105.2 12.1 105.2 12.1 105.3 12.0 C 105.3 12.0 105.3 12.0 105.3 12.0 Z M 102.3 12.7 C 102.3 12.8 102.3 12.8 102.3 12.7 C 102.3 12.7 102.3 12.7 102.3 12.7 Z M 115.1 13.7 C 115.0 13.7 115.0 13.7 115.1 13.7 C 115.1 13.7 115.1 13.7 115.1 13.7 Z M 105.9 11.9 C 105.9 12.0 105.9 12.0 105.9 11.9 C 105.9 11.9 105.9 11.9 105.9 11.9 Z M 107.7 14.3 C 107.7 14.4 107.7 14.4 107.7 14.3 C 107.7 14.3 107.7 14.3 107.7 14.3 Z M 91.9 11.3 C 91.9 11.3 91.9 11.3 91.9 11.3 C 91.9 11.3 91.9 11.3 91.9 11.3 Z M 115.2 12.7 C 115.1 12.7 115.1 12.7 115.2 12.7 C 115.2 12.7 115.2 12.7 115.2 12.7 Z M 115.5 12.0 C 115.5 12.1 115.5 12.1 115.5 12.0 C 115.5 12.0 115.5 12.0 115.5 12.0 Z M 111.2 15.6 C 109.0 15.2 113.1 15.4 111.6 14.6 C 114.7 14.4 111.6 15.6 111.2 15.6 C 111.2 15.6 111.2 15.6 111.2 15.6 Z M 118.4 11.8 C 117.2 12.8 117.2 13.7 117.8 14.8 C 118.3 15.3 118.3 13.3 118.4 15.0 C 117.0 15.3 119.0 17.6 118.9 15.4 C 120.7 15.0 119.2 16.8 120.3 15.9 C 122.2 15.7 121.3 16.3 122.7 16.2 C 123.6 15.0 123.6 16.8 124.0 15.6 C 123.3 16.9 125.6 15.3 125.6 15.9 C 124.3 16.6 130.8 15.9 127.2 15.5 C 128.7 14.9 128.4 16.0 128.9 16.1 C 129.5 15.4 131.3 16.7 132.2 16.0 C 132.0 15.8 131.6 15.7 131.4 15.5 C 131.2 15.0 132.4 15.6 132.3 15.6 C 132.9 15.3 135.2 14.5 132.7 15.9 C 132.6 16.4 134.8 15.6 134.7 16.1 C 136.9 16.1 135.2 14.9 136.2 15.8 C 137.7 15.8 138.9 15.9 138.9 15.7 C 139.8 15.8 140.0 16.5 140.8 15.9 C 142.7 17.2 142.2 13.3 142.9 15.9 C 143.4 15.3 143.9 17.0 143.9 15.4 C 143.2 16.1 147.1 16.6 145.4 15.5 C 145.9 15.1 148.3 17.1 148.0 15.5 C 148.8 14.3 148.7 13.1 146.8 12.0 C 147.0 12.9 144.8 11.0 146.2 12.6 C 147.8 13.2 143.2 13.2 144.2 12.6 C 144.4 10.7 141.9 13.8 141.0 12.4 C 141.8 13.2 138.0 13.6 139.1 12.2 C 138.4 12.0 138.2 12.7 137.5 11.9 C 139.7 12.0 136.6 13.4 136.7 12.5 C 137.1 12.0 133.7 11.6 134.1 12.3 C 135.3 14.3 133.2 11.9 132.6 12.7 C 130.8 13.1 132.9 11.1 131.6 12.5 C 131.2 12.2 128.7 12.2 130.3 11.8 C 130.9 12.0 128.8 14.0 128.6 12.3 C 131.2 11.4 125.5 11.8 126.4 12.3 C 130.5 13.2 122.1 13.3 125.3 12.4 C 123.5 11.5 125.8 12.1 123.6 12.5 C 123.9 13.0 122.1 13.5 122.5 12.4 C 122.2 10.9 121.9 14.5 120.6 12.4 C 120.4 11.5 117.8 13.1 118.8 12.0 C 118.9 11.9 118.5 11.7 118.4 11.8 M 119.2 11.9 C 119.0 12.3 118.8 11.5 119.2 11.9 M 118.9 12.3 C 118.9 12.3 118.9 12.3 118.9 12.3 C 118.9 12.3 118.9 12.3 118.9 12.3 Z M 123.2 12.5 C 123.2 12.5 123.2 12.5 123.2 12.5 C 123.2 12.5 123.2 12.5 123.2 12.5 Z M 126.7 16.5 C 126.6 16.4 126.6 16.4 126.7 16.5 C 126.7 16.5 126.7 16.5 126.7 16.5 Z M 126.1 12.6 C 126.1 12.6 126.1 12.6 126.1 12.6 C 126.1 12.6 126.1 12.6 126.1 12.6 Z M 121.7 12.8 C 121.7 12.8 121.7 12.8 121.7 12.8 C 121.7 12.8 121.7 12.8 121.7 12.8 Z M 125.9 12.0 C 126.1 12.6 124.9 11.6 125.9 11.9 C 126.0 12.0 125.8 12.0 125.9 12.0 M 129.6 11.8 C 129.7 11.9 129.7 11.9 129.6 11.8 M 137.9 16.4 C 138.0 16.5 138.0 16.5 137.9 16.4 M 138.6 11.8 C 138.7 11.8 138.7 11.8 138.6 11.8 M 133.4 12.4 C 134.5 12.3 133.7 12.7 133.4 12.4 M 141.7 12.1 C 140.2 11.7 143.2 11.8 141.7 12.1 M 143.1 11.7 C 143.2 11.8 143.2 11.8 143.1 11.7 M 136.5 12.0 C 136.5 12.0 136.5 12.0 136.5 12.0 C 136.5 12.0 136.5 12.0 136.5 12.0 Z M 132.9 12.2 C 131.4 11.8 134.4 11.6 132.9 12.2 M 123.8 12.0 C 124.6 11.7 123.8 12.7 123.8 12.0 M 122.1 12.3 C 122.0 12.3 122.0 12.3 122.1 12.3 C 122.1 12.3 122.1 12.3 122.1 12.3 Z M 139.3 12.1 C 139.3 12.1 139.3 12.1 139.3 12.1 C 139.3 12.1 139.3 12.1 139.3 12.1 Z M 141.0 11.9 C 141.0 12.0 141.0 12.0 141.0 11.9 C 141.0 11.9 141.0 11.9 141.0 11.9 Z M 143.8 16.3 C 143.7 16.3 143.7 16.3 143.8 16.3 C 143.8 16.3 143.8 16.3 143.8 16.3 Z M 123.3 14.1 C 122.2 13.8 124.5 12.7 124.2 13.7 C 124.4 14.2 123.5 14.0 123.3 14.1 M 131.8 13.5 C 132.1 15.0 130.7 11.5 131.8 13.5 M 143.3 12.7 C 144.4 14.5 141.9 11.5 143.3 12.7 M 145.6 12.4 C 146.2 12.8 141.3 12.6 144.8 12.1 C 145.1 11.9 145.3 12.2 145.6 12.4 M 129.7 12.5 C 130.0 13.3 127.9 12.2 129.7 12.5 M 136.6 15.0 C 137.2 14.4 138.6 14.0 138.0 14.9 C 138.0 16.0 136.0 15.4 136.6 15.0 M 119.6 12.8 C 120.5 11.5 119.6 13.9 119.6 12.8 M 124.0 12.9 C 124.0 12.8 124.0 12.8 124.0 12.9 C 124.0 12.9 124.0 12.9 124.0 12.9 Z M 125.7 12.7 C 125.8 12.8 125.8 12.8 125.7 12.7 M 120.3 11.6 C 120.4 11.7 120.4 11.7 120.3 11.6 M 136.6 13.6 C 136.7 13.7 136.7 13.7 136.6 13.6 M 133.1 12.7 C 134.7 14.0 132.2 13.0 133.1 12.7 M 128.9 15.2 C 129.4 15.8 127.9 15.3 128.9 15.2 M 135.8 12.3 C 137.0 13.5 134.2 13.4 135.8 12.3 M 132.2 12.6 C 132.3 12.6 132.3 12.6 132.2 12.6 C 132.2 12.6 132.2 12.6 132.2 12.6 Z M 137.1 15.1 C 137.0 15.1 137.0 15.1 137.1 15.1 C 137.1 15.1 137.1 15.1 137.1 15.1 Z M 137.6 15.0 C 137.5 15.1 137.5 15.1 137.6 15.0 C 137.6 15.0 137.6 15.0 137.6 15.0 Z M 137.3 12.1 C 137.2 12.1 137.2 12.1 137.3 12.1 C 137.3 12.1 137.3 12.1 137.3 12.1 Z M 121.9 15.7 C 123.1 15.8 121.0 15.9 121.9 15.7 C 121.9 15.7 121.9 15.7 121.9 15.7 Z M 127.2 12.0 C 129.2 13.0 125.9 13.0 127.2 12.0 C 127.2 12.0 127.2 12.0 127.2 12.0 Z M 129.5 13.7 C 129.5 13.7 129.5 13.7 129.5 13.7 C 129.5 13.7 129.5 13.7 129.5 13.7 Z M 135.1 11.5 C 135.1 11.6 135.1 11.6 135.1 11.5 C 135.1 11.5 135.1 11.5 135.1 11.5 Z M 122.5 15.8 C 122.5 15.9 122.5 15.9 122.5 15.8 C 122.5 15.8 122.5 15.8 122.5 15.8 Z M 140.7 12.8 C 140.7 12.8 140.7 12.8 140.7 12.8 C 140.7 12.8 140.7 12.8 140.7 12.8 Z M 133.8 15.3 C 134.3 14.8 133.9 15.7 133.8 15.3 C 133.8 15.3 133.8 15.3 133.8 15.3 Z M 135.6 15.3 C 135.7 15.3 135.7 15.3 135.6 15.3 C 135.6 15.3 135.6 15.3 135.6 15.3 Z M 143.5 11.6 C 143.6 11.6 143.6 11.6 143.5 11.6 C 143.5 11.6 143.5 11.6 143.5 11.6 Z M 140.2 16.5 C 140.2 16.5 140.2 16.5 140.2 16.5 C 140.2 16.5 140.2 16.5 140.2 16.5 Z M 141.7 15.0 C 141.6 15.0 141.6 15.0 141.7 15.0 C 141.7 15.0 141.7 15.0 141.7 15.0 Z M 137.0 12.4 C 138.8 12.2 136.6 13.0 137.0 12.4 C 137.0 12.4 137.0 12.4 137.0 12.4 Z M 146.1 14.6 C 146.1 14.7 146.1 14.7 146.1 14.6 C 146.1 14.6 146.1 14.6 146.1 14.6 Z M 147.0 12.9 C 147.1 13.0 147.1 13.0 147.0 12.9 C 147.0 12.9 147.0 12.9 147.0 12.9 Z M 147.5 12.0 C 147.5 12.1 147.5 12.1 147.5 12.0 C 147.5 12.0 147.5 12.0 147.5 12.0 Z M 125.7 14.5 C 125.6 14.4 125.6 14.4 125.7 14.5 C 125.7 14.5 125.7 14.5 125.7 14.5 Z M 125.0 11.7 C 124.9 11.7 124.9 11.7 125.0 11.7 C 125.0 11.7 125.0 11.7 125.0 11.7 Z M 127.4 11.6 C 127.4 11.6 127.4 11.6 127.4 11.6 C 127.4 11.6 127.4 11.6 127.4 11.6 Z M 125.2 16.1 C 125.2 16.1 125.2 16.1 125.2 16.1 C 125.2 16.1 125.2 16.1 125.2 16.1 Z M 134.3 13.8 C 134.3 13.8 134.3 13.8 134.3 13.8 C 134.3 13.8 134.3 13.8 134.3 13.8 Z M 135.2 14.9 C 135.1 14.9 135.1 14.9 135.2 14.9 C 135.2 14.9 135.2 14.9 135.2 14.9 Z M 133.1 16.4 C 133.1 16.4 133.1 16.4 133.1 16.4 C 133.1 16.4 133.1 16.4 133.1 16.4 Z M 135.8 15.9 C 135.8 15.9 135.8 15.9 135.8 15.9 C 135.8 15.9 135.8 15.9 135.8 15.9 Z M 119.2 15.6 C 119.1 15.7 119.1 15.7 119.2 15.6 C 119.2 15.6 119.2 15.6 119.2 15.6 Z M 119.0 13.5 C 118.9 13.6 118.9 13.6 119.0 13.5 C 119.0 13.5 119.0 13.5 119.0 13.5 Z M 134.6 12.3 C 135.0 11.8 135.4 12.9 134.6 12.3 M 131.1 12.6 C 131.1 12.6 131.1 12.6 131.1 12.6 C 131.1 12.6 131.1 12.6 131.1 12.6 Z M 140.4 12.4 C 140.8 13.2 138.8 11.9 140.4 12.4 C 140.4 12.4 140.4 12.4 140.4 12.4 Z M 138.6 15.9 C 138.6 15.9 138.6 15.9 138.6 15.9 C 138.6 15.9 138.6 15.9 138.6 15.9 Z M 139.5 15.5 C 139.5 15.6 139.5 15.6 139.5 15.5 C 139.5 15.5 139.5 15.5 139.5 15.5 Z M 144.5 13.3 C 144.6 13.3 144.6 13.3 144.5 13.3 M 130.7 11.8 C 131.2 12.2 131.1 12.1 130.7 11.8 M 141.6 12.4 C 141.5 12.4 141.5 12.4 141.6 12.4 C 141.6 12.4 141.6 12.4 141.6 12.4 Z M 145.6 12.8 C 145.5 12.8 145.5 12.8 145.6 12.8 C 145.6 12.8 145.6 12.8 145.6 12.8 Z M 128.2 12.4 C 128.3 13.4 127.8 13.2 128.2 12.4 M 121.4 12.7 C 121.4 12.8 121.4 12.8 121.4 12.7 C 121.4 12.7 121.4 12.7 121.4 12.7 Z M 151.1 12.1 C 149.2 10.9 149.2 12.5 149.2 12.6 C 149.4 10.4 147.5 13.4 147.9 13.8 C 147.8 14.1 149.3 17.8 150.6 15.6 C 151.0 15.3 151.2 15.9 151.4 16.0 C 153.7 15.9 149.8 14.8 152.6 14.8 C 153.1 15.1 152.6 16.9 154.2 15.7 C 154.3 15.9 156.2 16.5 155.4 15.7 C 156.3 16.5 156.9 15.5 157.7 15.3 C 158.5 15.8 157.1 16.6 159.8 15.6 C 161.0 17.1 161.4 14.6 162.4 16.2 C 163.1 16.2 164.1 13.6 162.6 15.1 C 162.8 14.9 161.8 13.6 163.9 14.1 C 163.6 14.4 162.5 17.1 165.8 15.8 C 166.4 15.9 167.6 15.2 167.9 15.5 C 166.2 15.8 170.3 16.7 169.9 15.9 C 172.5 16.4 171.0 15.2 172.9 16.1 C 174.5 16.1 172.4 14.9 174.4 15.6 C 175.9 15.5 174.9 16.2 174.7 16.1 C 176.0 16.2 176.5 15.8 176.9 15.8 C 177.2 15.9 177.8 16.5 178.1 15.8 C 179.5 14.6 178.2 13.4 178.8 12.1 C 177.8 11.6 178.4 13.1 177.7 12.2 C 177.2 12.9 177.6 12.1 174.9 12.3 C 175.0 12.5 175.6 13.0 175.0 13.1 C 173.9 13.0 174.7 10.9 172.9 12.4 C 175.0 12.8 170.0 13.0 172.0 13.5 C 169.6 13.7 171.3 13.3 169.5 12.8 C 169.6 14.2 169.4 11.3 168.8 12.4 C 168.6 11.8 165.9 12.1 167.8 12.9 C 165.0 13.3 166.8 12.5 165.8 11.8 C 164.5 11.7 165.7 14.0 164.9 12.3 C 163.2 11.6 164.8 13.2 163.6 11.8 C 164.1 13.0 162.3 11.8 162.8 13.1 C 159.9 13.2 163.2 11.8 161.1 12.7 C 161.8 12.7 161.5 11.0 160.3 12.1 C 160.8 14.1 158.6 10.3 159.5 13.0 C 155.5 13.8 158.9 11.9 156.6 11.9 C 156.1 11.9 157.3 12.7 156.8 12.8 C 153.9 12.4 156.3 11.7 154.8 13.0 C 152.0 13.3 154.0 11.9 152.6 11.8 C 152.5 12.4 151.3 13.5 151.1 12.1 M 153.6 12.7 C 154.2 12.3 154.0 13.2 153.6 12.7 M 147.9 12.1 C 148.5 11.7 148.3 12.5 147.9 12.1 M 155.9 12.3 C 156.7 11.9 156.2 13.0 155.9 12.3 M 171.1 13.0 C 170.1 13.0 171.6 12.6 171.1 13.0 M 150.2 12.0 C 151.0 11.5 150.4 12.7 150.2 12.0 M 149.1 13.1 C 149.2 13.1 149.2 13.1 149.1 13.1 M 172.6 11.9 C 172.7 11.9 172.7 11.9 172.6 11.9 M 168.6 11.9 C 169.4 11.9 168.1 12.1 168.6 11.9 M 168.4 16.3 C 169.3 16.4 167.9 16.6 168.4 16.3 M 174.9 11.8 C 175.7 11.5 175.1 12.3 174.9 11.8 M 177.1 12.8 C 177.9 12.4 177.6 13.3 177.1 12.8 M 153.1 14.3 C 153.1 14.3 153.1 14.3 153.1 14.3 C 153.1 14.3 153.1 14.3 153.1 14.3 Z M 160.5 15.4 C 159.7 14.9 161.6 15.9 160.5 15.4 M 159.2 12.5 C 159.8 13.4 158.0 12.4 159.2 12.5 C 159.2 12.5 159.2 12.5 159.2 12.5 Z M 157.9 12.9 C 157.8 12.9 157.8 12.9 157.9 12.9 C 157.9 12.9 157.9 12.9 157.9 12.9 Z M 162.1 12.9 C 162.0 12.9 162.0 12.9 162.1 12.9 C 162.1 12.9 162.1 12.9 162.1 12.9 Z M 161.2 13.0 C 160.9 13.2 160.7 12.8 161.2 13.0 C 161.2 13.0 161.2 13.0 161.2 13.0 Z M 167.3 15.9 C 167.0 16.1 166.9 15.7 167.3 15.9 C 167.3 15.9 167.3 15.9 167.3 15.9 Z M 159.9 13.3 C 159.8 14.2 159.3 12.7 159.9 13.3 C 159.9 13.3 159.9 13.3 159.9 13.3 Z M 164.4 15.5 C 164.8 15.2 165.2 16.3 164.4 15.5 M 173.5 12.0 C 173.9 11.8 174.3 12.9 173.5 12.0 M 164.6 11.8 C 164.9 11.5 165.3 12.6 164.6 11.8 M 154.1 12.3 C 154.2 12.4 154.2 12.4 154.1 12.3 M 159.0 16.3 C 159.6 15.9 159.3 16.7 159.0 16.3 M 150.6 16.0 C 151.2 15.6 150.9 16.4 150.6 16.0 M 172.2 16.2 C 172.2 16.0 173.1 16.4 172.2 16.2 M 165.6 13.2 C 166.4 13.3 167.2 13.8 165.6 13.8 C 165.5 13.6 166.0 13.4 165.6 13.2 C 165.6 13.2 165.6 13.2 165.6 13.2 Z M 168.4 15.3 C 168.5 15.4 168.5 15.4 168.4 15.3 M 167.0 12.4 C 167.1 12.5 167.1 12.5 167.0 12.4 M 171.6 12.5 C 171.7 12.6 171.7 12.6 171.6 12.5 M 172.1 12.2 C 172.1 12.3 172.1 12.3 172.1 12.2 C 172.1 12.2 172.1 12.2 172.1 12.2 Z M 177.1 11.9 C 177.1 11.9 177.1 11.9 177.1 11.9 C 177.1 11.9 177.1 11.9 177.1 11.9 Z M 170.1 12.6 C 170.1 12.6 170.1 12.6 170.1 12.6 C 170.1 12.6 170.1 12.6 170.1 12.6 Z M 174.2 16.1 C 174.2 16.1 174.2 16.1 174.2 16.1 C 174.2 16.1 174.2 16.1 174.2 16.1 Z M 173.7 15.5 C 173.7 15.6 173.7 15.6 173.7 15.5 C 173.7 15.5 173.7 15.5 173.7 15.5 Z M 151.5 12.1 C 152.2 11.4 151.9 13.6 151.5 12.1 M 175.9 15.5 C 176.6 16.2 174.8 15.7 175.9 15.5 C 175.9 15.5 175.9 15.5 175.9 15.5 Z M 169.6 13.4 C 169.6 13.5 169.6 13.5 169.6 13.4 M 172.4 12.3 C 172.5 12.4 172.5 12.4 172.4 12.3 M 159.1 11.6 C 159.2 11.7 159.2 11.7 159.1 11.6 M 175.9 12.5 C 178.1 12.7 175.0 13.8 175.9 12.5 M 158.2 12.5 C 158.1 12.4 158.1 12.4 158.2 12.5 M 163.0 14.2 C 164.4 14.1 162.4 14.7 163.0 14.2 M 166.6 13.0 C 166.6 13.1 166.6 13.1 166.6 13.0 C 166.6 13.0 166.6 13.0 166.6 13.0 Z M 164.5 13.0 C 163.4 13.2 164.2 12.8 164.5 13.0 C 164.5 13.0 164.5 13.0 164.5 13.0 Z M 152.5 12.9 C 153.8 13.0 151.1 13.2 152.5 12.9 C 152.5 12.9 152.5 12.9 152.5 12.9 Z M 175.0 14.6 C 174.9 14.7 174.9 14.7 175.0 14.6 C 175.0 14.6 175.0 14.6 175.0 14.6 Z M 169.8 12.0 C 169.2 12.2 169.6 11.7 169.8 12.0 C 169.8 12.0 169.8 12.0 169.8 12.0 Z M 177.9 11.9 C 177.3 12.1 177.6 11.6 177.9 11.9 C 177.9 11.9 177.9 11.9 177.9 11.9 Z M 150.9 12.7 C 155.8 14.3 144.3 12.4 150.9 12.7 C 150.9 12.7 150.9 12.7 150.9 12.7 Z M 165.3 12.4 C 165.3 12.5 165.3 12.5 165.3 12.4 C 165.3 12.4 165.3 12.4 165.3 12.4 Z M 156.2 11.8 C 156.2 11.8 156.2 11.8 156.2 11.8 C 156.2 11.8 156.2 11.8 156.2 11.8 Z M 154.6 12.6 C 154.6 12.7 154.6 12.7 154.6 12.6 C 154.6 12.6 154.6 12.6 154.6 12.6 Z M 155.1 16.2 C 155.1 16.2 155.1 16.2 155.1 16.2 C 155.1 16.2 155.1 16.2 155.1 16.2 Z M 155.6 14.6 C 155.5 14.7 155.5 14.7 155.6 14.6 C 155.6 14.6 155.6 14.6 155.6 14.6 Z M 152.4 15.2 C 152.4 15.2 152.4 15.2 152.4 15.2 C 152.4 15.2 152.4 15.2 152.4 15.2 Z M 152.5 15.6 C 152.5 15.7 152.5 15.7 152.5 15.6 C 152.5 15.6 152.5 15.6 152.5 15.6 Z M 172.4 13.3 C 172.4 13.4 172.4 13.4 172.4 13.3 C 172.4 13.3 172.4 13.3 172.4 13.3 Z M 170.7 14.8 C 171.9 14.3 170.4 15.6 170.7 14.8 C 170.7 14.8 170.7 14.8 170.7 14.8 Z M 160.5 14.1 C 161.6 13.9 159.8 14.5 160.5 14.1 C 160.5 14.1 160.5 14.1 160.5 14.1 Z M 161.7 16.0 C 161.7 16.0 161.7 16.0 161.7 16.0 C 161.7 16.0 161.7 16.0 161.7 16.0 Z M 154.7 11.8 C 154.6 11.9 154.6 11.9 154.7 11.8 C 154.7 11.8 154.7 11.8 154.7 11.8 Z M 152.7 12.4 C 152.6 13.1 152.1 12.0 152.7 12.4 M 162.5 11.9 C 162.5 12.0 162.5 12.0 162.5 11.9 C 162.5 11.9 162.5 11.9 162.5 11.9 Z M 168.7 13.1 C 168.7 13.2 168.7 13.2 168.7 13.1 C 168.7 13.1 168.7 13.1 168.7 13.1 Z M 174.8 12.6 C 174.8 12.7 174.8 12.7 174.8 12.6 C 174.8 12.6 174.8 12.6 174.8 12.6 Z M 166.3 12.0 C 166.3 12.1 166.3 12.1 166.3 12.0 C 166.3 12.0 166.3 12.0 166.3 12.0 Z M 163.4 12.7 C 163.4 12.8 163.4 12.8 163.4 12.7 C 163.4 12.7 163.4 12.7 163.4 12.7 Z M 176.2 13.7 C 176.1 13.7 176.1 13.7 176.2 13.7 C 176.2 13.7 176.2 13.7 176.2 13.7 Z M 167.0 11.9 C 167.0 12.0 167.0 12.0 167.0 11.9 C 167.0 11.9 167.0 11.9 167.0 11.9 Z M 168.8 14.3 C 168.8 14.4 168.8 14.4 168.8 14.3 C 168.8 14.3 168.8 14.3 168.8 14.3 Z M 153.0 11.3 C 153.0 11.3 153.0 11.3 153.0 11.3 C 153.0 11.3 153.0 11.3 153.0 11.3 Z M 176.2 12.7 C 176.2 12.7 176.2 12.7 176.2 12.7 C 176.2 12.7 176.2 12.7 176.2 12.7 Z M 176.6 12.0 C 176.6 12.1 176.6 12.1 176.6 12.0 C 176.6 12.0 176.6 12.0 176.6 12.0 Z M 172.3 15.6 C 170.1 15.2 174.2 15.4 172.6 14.6 C 175.7 14.4 172.7 15.6 172.3 15.6 C 172.3 15.6 172.3 15.6 172.3 15.6 Z M 172.3 15.6 " fill="#71AFE1"></path><path d="M 20.1 11.6 C 21.4 12.0 19.9 14.3 21.3 14.7 C 22.6 15.1 20.5 16.3 19.3 16.9 C 19.2 16.9 19.1 16.9 19.1 17.0 C 18.8 17.0 18.5 17.0 18.2 17.0 C 18.8 17.0 17.7 17.8 18.1 18.2 C 18.1 18.3 18.9 18.3 19.0 18.3 C 19.3 18.8 19.7 19.0 20.2 19.5 C 20.3 19.6 20.3 19.7 20.4 19.8 C 20.4 19.8 20.5 19.8 20.5 19.9 C 20.7 20.0 20.3 20.9 20.5 21.0 C 20.5 21.1 21.1 21.3 21.2 21.4 C 21.3 21.6 21.3 20.8 21.4 21.0 C 21.5 21.1 21.6 21.4 21.6 21.4 C 21.8 21.8 21.9 21.8 22.2 22.1 C 22.3 22.1 22.4 22.2 22.4 22.3 C 23.0 22.3 23.2 23.0 23.6 23.6 C 23.6 23.6 23.8 25.1 23.9 25.2 C 24.0 25.3 24.0 25.3 24.1 25.3 C 24.1 25.4 24.1 25.5 24.0 25.6 C 23.9 25.9 23.5 26.0 23.2 25.7 C 22.9 25.3 24.6 26.6 24.3 26.8 C 23.6 27.2 23.7 26.5 23.4 26.2 C 23.0 25.9 22.4 26.5 22.0 25.9 C 21.9 25.6 21.2 24.0 20.8 24.4 C 21.0 24.9 21.3 24.5 21.0 25.0 C 20.7 25.5 20.3 24.8 20.1 24.6 C 19.9 24.5 19.6 24.7 19.5 24.6 C 19.0 24.4 18.4 24.3 18.0 23.9 C 17.9 23.8 18.0 21.9 17.2 22.8 C 16.9 23.2 16.7 23.4 16.3 22.9 C 16.3 22.8 16.2 22.7 16.2 22.6 C 16.2 22.5 16.2 22.4 16.3 22.2 C 16.2 22.2 16.1 22.2 16.1 22.1 C 15.8 22.0 15.6 21.9 15.4 21.7 C 15.4 21.9 15.4 21.9 15.3 22.1 C 14.8 21.6 14.6 20.8 14.0 20.5 C 13.5 20.2 14.5 21.1 14.1 21.6 C 13.8 21.5 12.4 20.6 12.3 20.2 C 11.9 20.1 13.2 19.8 13.0 19.3 C 12.9 19.0 11.9 19.3 12.0 18.8 C 12.0 18.6 11.2 18.5 11.1 18.4 C 11.0 18.3 10.4 18.8 10.3 18.8 C 10.2 18.8 10.0 18.8 9.9 18.8 C 9.8 18.7 9.7 18.7 9.6 18.4 C 9.6 18.4 9.7 17.8 9.7 17.7 C 9.7 17.8 9.3 17.9 9.3 18.0 C 9.0 18.1 8.6 17.9 8.5 17.7 C 8.5 17.6 8.4 17.5 8.3 17.4 C 7.8 17.0 8.4 17.1 7.8 16.8 C 7.6 16.7 7.4 16.6 7.1 16.6 L 5.9 15.7 C 5.9 15.6 5.2 15.0 5.1 15.0 C 3.7 14.0 5.7 13.5 5.8 13.4 C 5.9 13.3 6.3 12.9 6.4 12.8 C 6.9 12.5 7.5 12.2 7.7 11.7 C 7.8 11.7 8.1 11.5 8.2 11.5 C 6.7 14.0 11.0 9.8 9.3 10.1 C 9.3 10.1 9.4 10.0 9.4 9.9 C 9.4 9.8 9.7 9.7 9.8 9.7 C 10.0 9.5 10.0 9.8 10.3 9.7 C 10.6 9.5 10.8 9.4 11.2 9.3 C 11.6 9.2 11.0 9.0 11.9 8.2 C 10.5 11.6 12.8 9.9 13.8 9.0 C 14.2 8.7 13.1 7.7 13.4 7.5 C 15.1 6.3 14.2 7.9 14.2 8.2 C 14.4 7.9 14.4 8.7 15.5 7.4 C 15.7 7.2 15.7 6.7 15.8 6.6 C 16.1 6.3 16.7 5.9 17.1 5.8 C 17.6 5.9 18.1 6.4 18.5 6.2 C 18.9 5.9 18.7 5.5 18.5 5.0 C 18.6 5.0 20.1 4.7 20.0 4.4 C 19.9 4.4 19.8 4.4 19.7 4.5 L 19.7 4.4 C 20.0 4.2 19.9 3.9 20.0 3.8 L 20.7 3.4 C 20.9 3.4 20.5 5.2 20.7 5.1 C 25.4 3.0 21.6 3.3 21.8 3.1 C 21.8 3.1 22.1 3.1 22.4 3.1 C 22.6 3.1 22.7 3.0 22.8 3.0 C 23.1 2.6 23.6 2.5 24.1 2.4 C 24.2 2.4 24.3 2.4 24.4 2.4 C 24.8 2.4 25.2 2.4 25.3 2.7 C 25.0 3.6 24.5 3.9 24.0 4.5 C 23.9 4.6 23.8 4.6 23.8 4.7 C 23.5 4.9 23.3 5.2 23.2 5.6 C 23.1 5.7 23.0 5.8 23.0 5.8 C 22.5 6.5 22.2 7.3 22.0 8.0 C 21.9 8.1 21.2 8.1 21.1 8.2 C 21.0 8.4 21.6 8.7 21.3 8.7 C 21.3 8.8 20.2 9.2 20.1 9.3 C 19.9 9.5 20.6 9.3 20.4 9.5 C 20.3 9.5 20.2 9.6 20.1 9.7 C 20.0 10.4 18.1 10.5 18.6 11.4 C 20.0 11.8 18.7 11.2 20.1 11.6 Z M 24.4 24.9 C 24.2 24.9 24.2 24.9 24.3 24.6 C 24.4 24.7 24.5 24.9 24.4 24.9 Z M 23.5 24.8 C 23.4 24.8 23.3 24.8 23.2 24.7 C 22.8 24.7 22.8 24.4 22.7 24.1 C 22.7 24.0 22.7 23.6 22.7 23.5 C 22.7 23.0 22.8 22.9 22.7 23.0 C 22.7 23.1 22.6 22.8 22.3 22.8 C 22.3 22.7 22.3 23.0 22.3 23.0 C 22.3 23.1 21.9 23.2 21.9 23.3 C 21.9 23.3 22.4 23.5 22.4 23.7 C 22.4 23.8 22.4 24.3 22.4 24.4 C 22.5 24.4 23.1 25.0 23.3 24.8 C 23.4 24.8 23.5 24.8 23.5 24.8 Z M 19.0 21.3 C 18.8 21.0 18.7 20.7 18.7 20.4 C 18.7 20.4 18.7 20.3 18.7 20.2 C 18.7 20.0 18.7 19.9 18.7 19.8 C 18.6 19.7 18.4 19.9 18.5 19.8 C 18.5 20.0 18.4 20.2 18.5 20.1 C 18.4 20.2 18.4 20.3 18.3 20.4 C 18.1 20.8 18.3 21.2 18.9 21.4 C 19.0 21.4 19.1 21.4 19.0 21.3 Z M 21.4 24.2 C 21.5 22.4 21.2 22.4 21.1 24.1 C 21.2 24.1 21.3 24.2 21.4 24.2 Z M 20.9 20.6 C 21.0 20.6 21.1 20.7 21.2 20.7 C 21.1 20.6 21.0 20.2 20.9 20.4 C 21.0 20.5 21.0 20.4 20.9 20.6 Z M 19.6 21.8 C 19.1 21.8 19.1 21.8 18.9 21.8 C 18.7 21.8 18.7 21.8 18.7 21.9 C 18.6 21.9 18.8 21.9 19.0 22.0 C 19.2 22.0 19.4 22.0 19.4 22.0 C 19.4 22.0 19.5 21.9 19.6 21.8 Z M 18.8 22.9 C 19.0 23.0 19.1 23.1 19.3 23.2 C 19.6 22.7 19.0 22.4 18.6 22.6 C 18.7 22.7 18.7 22.8 18.8 22.9 Z M 19.5 19.2 C 19.4 19.1 18.8 18.8 18.8 18.5 C 18.2 18.5 18.2 18.8 18.2 19.4 C 18.5 18.8 19.5 19.8 20.1 20.5 C 20.2 20.5 19.5 19.2 19.5 19.2 Z M 17.0 21.3 C 17.0 21.2 17.1 21.0 17.2 20.8 C 17.3 20.7 17.4 20.7 17.4 20.6 C 17.5 20.5 17.5 20.4 17.6 20.3 C 17.6 20.3 17.6 20.2 17.6 20.1 C 17.3 19.7 17.9 19.1 17.3 18.8 C 17.3 19.1 17.3 19.1 17.4 19.4 C 17.4 19.5 17.4 19.6 17.4 19.6 C 17.4 19.7 17.4 19.8 17.4 19.9 C 17.3 19.9 17.3 20.0 17.3 20.1 C 17.3 20.2 17.2 20.3 17.2 20.4 C 17.2 20.5 17.1 20.6 17.1 20.7 C 17.1 20.9 17.0 21.0 16.8 21.1 C 16.9 21.1 16.9 21.2 17.0 21.3 Z M 10.7 15.8 C 10.9 15.8 10.8 15.6 10.7 15.6 C 10.6 15.6 10.5 15.6 10.4 15.7 C 10.3 15.7 10.3 15.7 10.2 15.8 C 10.3 15.8 10.3 15.8 10.4 15.8 C 10.5 15.8 10.6 15.8 10.7 15.8 Z M 8.5 14.7 C 8.5 14.6 8.3 14.6 8.2 14.6 C 8.1 14.6 8.0 14.6 7.9 14.6 C 7.8 14.7 7.7 14.7 7.6 14.7 C 7.6 14.7 7.5 14.7 7.4 14.7 C 6.9 14.6 7.2 14.3 6.6 14.9 C 7.2 14.9 7.1 15.6 7.6 15.0 C 7.6 14.9 7.7 15.0 7.8 15.0 C 7.9 15.0 7.9 15.0 8.0 15.1 C 8.1 15.1 8.1 15.2 8.2 15.2 L 8.2 15.2 C 8.4 15.3 8.7 14.8 8.5 14.7 Z M 8.7 17.0 C 12.0 17.0 10.5 16.7 8.8 16.8 C 8.7 16.9 8.7 16.9 8.7 17.0 Z M 9.4 13.1 C 9.3 13.2 9.3 13.3 9.2 13.3 L 9.1 13.3 C 9.2 13.4 9.2 13.5 9.4 13.5 C 9.6 13.6 9.6 13.3 9.8 13.2 C 9.8 13.2 10.3 13.1 10.2 13.0 C 10.0 12.9 9.6 12.9 9.4 13.1 Z M 10.0 11.9 C 10.2 12.1 10.6 11.8 10.7 11.6 C 10.6 11.7 9.9 11.7 10.0 11.9 Z M 10.9 14.1 C 10.8 14.1 10.7 14.1 10.6 14.2 C 10.5 14.2 10.5 14.3 10.4 14.3 L 10.5 14.3 C 10.5 14.4 10.6 14.6 10.7 14.5 C 10.8 14.4 10.8 14.3 10.9 14.2 C 11.0 14.2 11.1 14.2 11.2 14.2 C 11.1 14.0 11.1 14.1 10.9 14.1 Z M 13.1 17.9 C 13.1 17.8 13.1 17.8 13.0 17.7 C 13.0 17.7 12.9 17.7 12.8 17.7 C 12.8 17.7 12.8 17.8 12.9 17.9 C 13.0 18.0 13.0 18.1 13.1 17.9 Z M 13.1 17.4 C 12.9 16.9 12.6 16.8 12.2 16.8 C 12.4 17.1 12.7 17.3 13.1 17.4 Z M 12.9 15.4 C 12.8 15.4 12.7 15.4 12.5 15.5 C 12.6 15.5 12.7 15.6 12.7 15.6 C 12.8 15.6 12.9 15.5 12.9 15.4 Z M 12.3 19.5 C 12.4 19.5 12.4 19.5 12.5 19.4 C 12.4 19.4 12.3 19.4 12.2 19.4 C 12.3 19.4 12.3 19.5 12.3 19.5 Z M 10.8 19.0 C 11.1 19.1 11.3 19.2 11.6 19.3 L 11.9 19.3 C 11.7 18.9 11.3 18.9 11.1 18.8 C 10.9 18.7 10.8 18.8 10.8 19.0 Z M 11.5 17.8 C 11.5 18.1 11.6 18.3 11.9 18.1 C 11.8 18.0 11.6 17.9 11.5 17.8 Z M 12.3 8.6 C 12.4 8.6 12.8 8.3 12.9 8.2 C 12.5 8.1 12.2 8.7 12.3 8.6 Z M 10.3 9.9 C 10.3 10.2 10.7 10.5 11.0 10.2 C 11.0 9.6 10.7 9.7 10.3 9.9 Z M 12.6 11.0 C 12.5 11.0 12.2 11.1 12.2 11.1 C 12.5 11.2 12.6 11.1 12.9 11.1 C 12.6 11.1 12.5 11.1 12.6 11.0 Z M 12.5 11.9 C 12.3 12.0 12.1 12.0 12.0 12.0 C 12.3 12.1 12.6 12.2 12.9 12.2 C 12.9 12.1 13.0 12.1 13.0 12.0 C 13.3 11.7 12.6 11.9 12.5 11.9 Z M 23.0 4.1 C 22.9 4.3 22.8 4.4 22.6 4.5 C 22.4 4.7 22.2 5.0 22.4 5.4 C 22.4 5.1 22.4 4.8 22.7 4.7 C 22.8 4.6 22.9 4.6 22.9 4.5 C 23.0 4.4 23.0 4.3 23.0 4.1 Z M 22.1 6.7 C 22.4 6.3 22.7 6.3 22.7 5.7 C 22.1 6.0 22.1 6.6 21.9 6.9 C 22.0 6.8 22.1 6.7 22.1 6.7 Z M 22.1 5.7 C 21.8 6.0 21.7 5.5 21.5 5.8 C 21.6 5.9 21.7 6.0 21.9 5.9 C 21.9 5.8 22.0 5.8 22.1 5.7 Z M 21.3 7.5 C 20.9 7.2 21.8 6.9 21.2 6.6 C 21.2 6.9 21.2 7.2 21.2 7.3 C 21.2 7.4 21.3 7.4 21.3 7.5 Z M 16.1 21.5 C 16.1 19.7 15.8 19.7 15.9 21.4 C 16.0 21.5 16.1 21.5 16.1 21.5 Z M 17.3 17.5 C 16.6 17.4 17.7 17.5 16.8 17.5 C 16.7 17.5 16.7 17.2 16.6 17.2 C 16.7 17.1 16.7 16.9 16.9 16.9 C 17.9 17.0 17.2 16.7 18.0 17.4 C 18.0 17.4 17.3 17.5 17.3 17.5 Z M 14.9 19.9 C 14.9 19.9 14.9 19.8 14.8 19.8 C 14.6 19.7 14.4 19.7 14.2 19.6 C 14.4 19.8 14.7 19.9 14.9 19.9 Z M 14.4 14.4 C 14.3 14.3 14.1 14.3 14.0 14.2 C 14.0 14.4 14.3 14.4 14.4 14.4 Z M 8.7 10.7 C 8.6 10.8 8.6 10.8 8.6 10.8 C 8.6 10.9 8.6 10.9 8.7 10.9 C 8.7 10.8 8.7 10.8 8.7 10.7 Z M 13.7 18.9 C 13.6 19.0 13.6 19.1 13.6 19.1 C 13.6 19.2 13.7 19.3 13.9 19.4 C 13.9 19.4 14.0 19.4 14.1 19.4 C 14.1 19.1 14.1 19.1 13.9 19.0 C 13.8 18.9 13.7 18.9 13.7 18.9 Z M 19.5 10.6 C 19.5 10.7 19.4 10.7 19.4 10.8 C 19.5 10.9 19.6 11.0 19.7 11.0 C 19.7 11.1 19.8 11.1 19.9 11.1 C 19.9 10.7 19.9 10.7 19.7 10.6 C 19.6 10.6 19.6 10.6 19.5 10.6 Z M 24.4 25.9 C 24.3 26.0 24.3 26.1 24.3 26.3 C 24.4 26.5 24.6 26.7 24.8 26.8 C 24.9 26.8 25.1 26.8 25.2 26.8 C 25.2 26.2 25.2 26.2 24.8 25.9 C 24.7 25.9 24.5 25.9 24.4 25.9 Z M 17.1 23.4 C 17.0 23.5 17.0 23.5 17.0 23.6 C 17.0 23.7 17.1 23.8 17.3 23.8 C 17.3 23.9 17.4 23.9 17.5 23.9 C 17.5 23.5 17.5 23.5 17.3 23.4 C 17.2 23.4 17.1 23.4 17.1 23.4 Z M 12.8 9.0 C 12.7 9.1 12.1 9.6 12.3 9.7 C 12.4 9.7 13.3 9.0 13.5 8.9 C 13.4 8.7 13.0 9.0 12.8 9.0 Z M 15.2 10.2 C 14.7 10.5 14.5 10.4 14.7 11.2 C 14.9 11.1 15.1 11.1 15.3 10.9 C 15.5 10.8 15.6 10.7 15.8 10.5 C 15.8 10.1 15.8 10.1 15.9 9.9 C 15.8 9.9 15.7 9.9 15.5 10.0 C 15.4 10.0 15.3 10.1 15.2 10.2 Z M 21.3 3.9 C 21.0 4.1 20.9 4.1 21.0 4.6 C 21.1 4.6 21.2 4.5 21.3 4.4 C 21.5 4.4 21.6 4.3 21.6 4.2 C 21.7 3.9 21.7 3.9 21.7 3.8 C 21.7 3.7 21.6 3.8 21.5 3.8 C 21.4 3.9 21.4 3.9 21.3 3.9 Z M 14.8 11.4 C 14.8 11.5 14.9 11.5 15.2 11.3 C 15.0 11.3 14.9 11.3 14.8 11.4 Z M 17.6 11.7 C 17.5 11.8 17.4 12.0 17.3 12.2 C 18.0 12.4 18.7 12.2 19.2 12.1 C 18.7 11.8 18.1 11.9 17.6 11.7 Z M 15.4 15.4 C 15.5 15.2 16.1 15.8 16.3 15.2 C 16.3 15.2 16.2 15.2 16.1 15.1 C 15.9 15.1 15.8 15.1 15.6 15.3 C 15.5 15.3 15.5 15.4 15.4 15.4 Z M 14.4 6.7 C 14.6 6.5 15.2 7.1 15.4 6.5 C 15.3 6.5 15.2 6.5 15.2 6.5 C 15.0 6.4 14.8 6.4 14.6 6.6 C 14.6 6.6 14.5 6.7 14.4 6.7 Z M 16.8 7.4 C 16.7 7.4 16.6 7.6 16.6 7.7 C 16.5 7.9 16.5 8.1 16.5 8.1 C 16.7 8.1 17.0 8.1 17.0 7.9 C 17.1 7.8 17.2 7.8 17.2 7.7 C 17.3 7.6 17.3 7.5 17.4 7.3 C 17.1 7.4 17.1 7.3 16.8 7.4 Z M 17.8 5.6 C 17.9 5.7 18.3 5.9 18.3 5.6 C 18.3 5.4 17.9 5.6 17.8 5.6 Z M 18.9 6.2 C 18.9 6.3 19.1 6.3 19.3 6.3 C 19.4 6.1 18.9 6.0 18.9 6.2 Z M 18.8 7.7 C 19.0 7.7 19.1 7.7 19.2 7.7 C 19.1 7.6 18.9 7.7 18.8 7.7 Z M 20.3 8.3 C 20.6 8.4 20.6 8.4 20.7 8.0 C 20.8 7.9 20.7 7.8 20.7 7.8 C 20.7 7.5 20.6 7.2 20.9 7.2 C 20.6 6.9 20.3 7.5 20.0 7.5 C 20.0 7.7 20.0 7.9 20.1 8.1 C 20.1 8.1 20.2 8.2 20.2 8.2 C 20.3 8.3 20.3 8.2 20.3 8.3 Z M 20.0 5.6 L 19.8 5.7 C 19.6 5.8 19.4 5.9 19.6 6.2 C 19.7 6.1 19.9 5.8 20.0 5.6 Z M 19.9 8.4 C 19.7 8.4 19.7 8.4 19.4 8.3 C 19.3 8.4 19.2 8.4 19.1 8.4 C 18.7 8.4 18.3 8.6 17.9 9.0 C 18.3 9.1 18.7 8.9 19.1 8.6 C 19.1 8.6 19.2 8.5 19.3 8.5 C 19.4 8.4 19.7 8.4 19.7 8.4 C 19.8 8.4 19.8 8.4 19.9 8.4 Z M 18.8 9.3 C 18.7 9.3 18.6 9.3 18.5 9.4 C 18.1 9.4 17.7 9.5 18.4 9.5 C 18.5 9.5 18.6 9.5 18.8 9.5 C 18.9 9.5 18.9 9.4 18.8 9.3 Z M 17.7 9.1 C 17.5 9.0 17.4 9.0 17.2 8.9 C 17.1 8.9 17.0 8.8 17.0 8.7 C 16.9 8.7 16.8 8.6 16.7 8.6 C 16.6 8.6 16.5 8.7 16.4 8.9 C 16.7 8.7 16.9 9.2 17.1 9.2 C 17.2 9.3 17.3 9.2 17.4 9.1 C 17.5 9.1 17.6 9.1 17.7 9.1 Z M 16.3 13.9 C 16.5 14.2 16.6 15.1 17.0 14.6 C 16.9 14.3 16.6 14.0 16.3 13.9 Z M 18.0 15.7 C 18.0 15.6 18.0 15.5 18.0 15.5 C 17.9 15.5 18.0 15.4 18.0 15.3 C 18.0 15.2 17.9 15.2 17.9 15.2 C 17.7 15.1 17.5 15.1 17.3 15.2 C 17.2 15.4 17.4 15.4 17.6 15.4 C 17.8 15.4 17.9 15.4 18.0 15.4 C 18.1 15.5 18.1 15.6 18.0 15.7 L 18.0 15.7 Z M 18.4 13.5 C 18.3 13.5 18.2 13.6 18.2 13.7 C 18.1 13.8 18.0 13.9 18.0 14.0 C 18.0 14.1 18.1 14.1 18.3 14.1 C 18.4 14.1 18.6 14.1 18.7 14.1 C 18.8 14.0 19.1 14.0 19.5 13.9 C 19.5 13.8 19.5 13.8 19.5 13.7 C 19.6 13.6 19.6 13.6 19.6 13.5 C 19.5 13.4 19.3 13.4 19.1 13.4 C 18.9 13.4 18.7 13.4 18.7 13.4 C 18.6 13.4 18.5 13.5 18.4 13.5 Z M 19.3 13.1 C 19.4 13.2 19.5 13.3 19.7 13.3 C 19.7 13.1 19.6 13.0 19.3 13.1 Z M 19.3 15.1 C 19.1 15.2 19.4 15.2 19.5 15.1 C 19.5 15.1 19.4 15.1 19.3 15.1 Z M 20.4 12.5 C 19.8 12.5 20.1 12.9 20.2 13.0 C 20.2 12.9 20.4 12.5 20.4 12.5 Z M 20.4 12.5 " fill="#71AFE1"></path></g></svg>