<?xml version="1.0" encoding="UTF-8" standalone="no"?><svg xmlns="http://www.w3.org/2000/svg" xmlns:xlink="http://www.w3.org/1999/xlink" clip-rule="evenodd" stroke-miterlimit="4.00" viewBox="0 0 134 135"><desc>SVG generated by Keynote</desc><defs></defs><g transform="matrix(1.00, 0.00, -0.00, -1.00, 0.0, 135.0)"><g><clipPath id="clip-736"><path d="M 0.3 122.8 L 53.3 122.8 L 53.3 131.8 L 0.3 131.8 Z M 0.3 122.8 "></path></clipPath><g clip-path="url(#clip-736)"><path d="M 16.9 125.6 C 16.6 125.8 15.8 125.5 15.5 125.7 M 16.9 125.6 C 16.1 124.3 14.6 124.2 12.5 124.0 C 10.3 123.9 12.6 125.2 12.3 125.7 C 9.4 126.2 9.4 125.3 9.8 123.9 C 8.7 124.8 5.4 123.2 6.1 124.9 C 10.8 124.9 2.8 125.3 6.7 126.3 C 7.1 126.6 6.0 127.0 5.6 127.1 C 6.9 127.8 4.6 128.6 6.7 129.1 C 7.0 130.2 6.6 129.7 8.0 130.6 C 8.5 130.7 8.3 130.3 8.2 130.1 C 8.5 128.8 9.9 130.8 10.9 130.0 C 11.9 131.7 13.0 129.7 12.1 129.0 C 13.1 129.2 14.2 130.9 15.3 129.7 C 15.8 130.6 18.5 130.0 16.9 129.0 C 15.7 128.3 17.0 127.8 17.2 127.4 C 16.8 127.0 15.2 127.6 14.9 127.3 C 15.4 127.0 17.5 126.4 15.3 126.4 C 16.0 125.9 14.9 125.5 16.9 125.6 C 16.9 125.6 16.9 125.6 16.9 125.6 Z M 9.0 124.6 C 9.0 124.2 9.8 124.7 9.0 124.6 C 9.0 124.6 9.0 124.6 9.0 124.6 Z M 14.4 130.6 C 14.4 130.1 15.2 130.6 14.4 130.6 C 14.4 130.6 14.4 130.6 14.4 130.6 Z M 8.6 130.1 C 8.6 129.7 9.4 130.1 8.6 130.1 C 8.6 130.1 8.6 130.1 8.6 130.1 Z M 11.1 124.9 C 12.3 125.3 10.0 125.6 9.9 125.1 C 10.1 125.2 10.8 124.6 11.1 124.9 C 11.1 124.9 11.1 124.9 11.1 124.9 Z M 11.3 127.5 C 11.3 127.3 11.9 127.3 11.8 127.7 C 11.5 127.8 11.2 127.7 11.3 127.5 C 11.3 127.5 11.3 127.5 11.3 127.5 Z M 5.1 125.7 C 5.2 125.5 5.7 125.5 5.6 125.9 C 5.3 126.0 5.0 125.8 5.1 125.7 C 5.1 125.7 5.1 125.7 5.1 125.7 Z M 12.5 126.1 C 12.8 126.2 12.9 126.6 12.5 126.6 C 12.4 126.4 11.5 126.4 12.5 126.1 C 12.5 126.1 12.5 126.1 12.5 126.1 Z M 14.4 124.6 C 15.5 124.9 13.4 125.5 13.4 125.3 C 13.1 125.0 13.9 124.3 14.4 124.6 C 14.4 124.6 14.4 124.6 14.4 124.6 Z M 13.1 126.7 C 14.0 126.9 12.7 127.0 13.1 126.7 C 13.1 126.7 13.1 126.7 13.1 126.7 Z M 5.9 129.0 C 6.8 129.2 5.6 129.3 5.9 129.0 C 5.9 129.0 5.9 129.0 5.9 129.0 Z M 10.5 130.3 C 11.3 130.6 10.1 130.7 10.5 130.3 C 10.5 130.3 10.5 130.3 10.5 130.3 Z M 8.8 125.8 C 7.3 125.8 8.6 124.7 8.8 125.8 C 8.8 125.8 8.8 125.8 8.8 125.8 Z M 16.9 124.5 C 15.3 124.5 16.7 123.4 16.9 124.5 C 16.9 124.5 16.9 124.5 16.9 124.5 Z M 46.8 124.9 C 48.2 124.7 42.8 123.2 44.9 125.0 C 45.5 126.4 41.8 126.3 42.7 124.9 C 41.7 124.8 41.6 124.7 41.1 125.4 C 40.9 124.3 38.3 123.8 37.4 124.3 C 36.9 125.2 39.1 124.5 37.7 125.4 C 34.5 125.7 37.9 126.4 36.7 127.6 C 36.6 127.6 36.5 127.0 36.2 127.4 C 36.1 128.5 37.9 129.2 37.1 130.1 C 37.6 129.9 39.9 131.1 38.9 130.1 C 38.6 129.1 41.4 131.4 41.2 129.7 C 42.0 130.5 42.8 129.4 43.5 130.3 C 44.1 130.5 44.1 129.6 44.0 129.4 C 43.9 128.6 44.7 131.2 45.6 129.8 C 45.6 130.2 48.2 130.0 46.3 129.4 C 46.8 129.5 49.8 129.9 48.2 128.4 C 46.2 127.7 50.3 126.8 47.9 126.7 C 46.1 126.5 45.7 126.9 47.1 126.0 C 47.5 126.1 49.6 126.0 47.8 125.3 C 47.4 125.5 46.6 125.3 46.8 124.9 C 46.8 124.9 46.8 124.9 46.8 124.9 Z M 47.2 127.2 C 46.1 127.3 47.1 126.6 47.2 127.2 C 47.2 127.2 47.2 127.2 47.2 127.2 Z M 43.3 130.7 C 42.3 130.8 43.3 130.1 43.3 130.7 C 43.3 130.7 43.3 130.7 43.3 130.7 Z M 43.5 124.5 C 42.9 125.0 42.8 123.4 43.5 124.5 C 43.5 124.5 43.5 124.5 43.5 124.5 Z M 45.1 129.4 C 45.0 129.4 45.3 129.2 45.5 129.1 C 45.5 129.2 45.2 129.4 45.1 129.4 C 45.1 129.4 45.1 129.4 45.1 129.4 Z M 41.7 124.5 C 40.1 125.3 41.4 123.3 41.7 124.5 C 41.7 124.5 41.7 124.5 41.7 124.5 Z M 38.5 126.1 C 38.3 127.7 36.8 125.7 38.5 126.1 C 38.5 126.1 38.5 126.1 38.5 126.1 Z M 40.7 129.6 C 41.0 129.2 41.0 129.8 40.7 129.6 C 40.7 129.6 40.7 129.6 40.7 129.6 Z M 47.6 129.8 C 47.9 129.5 47.9 130.0 47.6 129.8 C 47.6 129.8 47.6 129.8 47.6 129.8 Z M 38.7 129.4 C 38.8 128.8 39.3 129.7 38.7 129.4 C 38.7 129.4 38.7 129.4 38.7 129.4 Z M 43.2 125.2 C 44.6 123.9 45.0 127.0 43.2 125.2 C 43.2 125.2 43.2 125.2 43.2 125.2 Z M 45.8 125.0 C 46.8 124.8 45.6 125.8 45.2 125.6 C 45.2 125.5 45.6 125.1 45.8 125.0 C 45.8 125.0 45.8 125.0 45.8 125.0 Z M 41.7 125.3 C 42.7 124.7 42.6 125.7 41.7 125.3 C 41.7 125.3 41.7 125.3 41.7 125.3 Z M 44.2 124.6 C 44.7 124.8 43.8 124.8 44.2 124.6 C 44.2 124.6 44.2 124.6 44.2 124.6 Z M 39.7 124.0 C 40.2 124.1 39.3 124.2 39.7 124.0 C 39.7 124.0 39.7 124.0 39.7 124.0 Z M 47.0 124.4 C 47.5 124.5 46.6 124.6 47.0 124.4 C 47.0 124.4 47.0 124.4 47.0 124.4 Z M 40.1 124.8 C 39.9 125.4 41.4 126.7 38.8 125.6 C 38.4 125.2 39.4 124.4 40.1 124.8 C 40.1 124.8 40.1 124.8 40.1 124.8 Z M 18.6 125.6 C 15.8 123.9 16.5 127.0 16.3 127.6 C 15.9 128.4 16.3 129.0 16.9 129.5 C 17.5 131.5 17.8 127.5 18.2 129.5 C 19.0 132.1 19.1 127.2 19.4 130.0 C 19.3 130.7 20.4 130.1 20.3 129.9 C 20.8 131.2 21.6 128.9 21.6 128.6 C 22.0 129.0 22.0 131.5 23.2 129.6 C 24.0 129.0 24.4 131.4 24.2 129.7 C 24.8 131.7 24.6 129.2 25.3 129.8 C 25.7 130.9 25.3 128.2 26.1 130.2 C 26.4 128.6 25.7 131.3 27.9 130.1 C 26.9 130.0 28.9 128.9 28.5 129.9 C 27.8 131.1 29.5 129.5 30.5 130.2 C 30.8 129.6 32.0 128.2 31.8 129.7 C 32.8 131.6 32.8 128.6 33.3 130.1 C 33.6 130.8 33.7 129.4 34.0 129.5 C 34.3 130.6 34.6 129.9 35.9 130.2 C 38.7 130.8 36.3 127.3 37.4 126.9 C 37.6 126.4 36.0 122.6 36.6 125.4 C 36.4 124.6 34.2 127.6 35.3 124.5 C 34.4 125.7 35.5 123.2 33.7 124.7 C 36.1 126.9 31.0 125.6 33.3 124.5 C 32.9 123.9 32.0 124.0 32.7 124.5 C 32.9 126.5 31.0 123.6 32.0 126.0 C 30.5 125.4 30.9 127.5 30.5 126.0 C 30.1 123.4 30.6 126.7 29.8 125.9 C 28.1 125.9 29.4 122.9 28.4 124.9 C 26.7 123.6 28.0 126.0 27.4 126.4 C 27.3 128.1 25.7 125.0 27.0 124.7 C 26.3 125.7 26.9 123.9 26.1 125.0 C 26.7 126.7 25.1 123.3 25.3 124.6 C 24.6 125.0 25.0 126.0 24.8 126.0 C 23.7 126.0 24.1 124.4 23.8 125.6 C 23.6 126.3 23.1 124.2 23.0 124.7 C 24.1 124.8 22.1 126.4 22.0 125.5 C 22.7 125.4 21.7 123.4 21.2 124.7 C 21.8 128.3 20.3 123.7 19.8 125.0 C 20.3 127.0 17.5 125.3 18.6 124.3 C 18.5 124.5 18.6 125.7 18.6 125.6 M 22.7 125.0 C 23.5 125.1 21.7 125.4 22.7 125.0 M 22.6 124.4 C 23.0 125.1 21.8 124.0 22.7 124.2 C 22.7 124.2 22.6 124.4 22.6 124.4 M 26.2 124.4 C 26.1 124.9 25.8 124.1 26.2 124.4 M 26.9 125.6 C 27.5 126.2 26.2 125.7 26.9 125.6 M 34.9 125.2 C 34.1 128.2 34.1 123.5 34.9 125.2 M 29.6 124.6 C 28.7 125.0 30.0 123.4 29.6 124.6 M 29.4 125.4 C 28.9 125.9 29.3 124.7 29.4 125.4 M 33.4 125.2 C 33.5 125.3 33.5 125.3 33.4 125.2 C 33.4 125.2 33.4 125.2 33.4 125.2 Z M 35.8 125.3 C 35.8 125.3 35.8 125.3 35.8 125.3 C 35.8 125.3 35.8 125.3 35.8 125.3 Z M 31.1 125.5 C 30.4 124.8 32.3 125.3 31.1 125.5 C 31.1 125.5 31.1 125.5 31.1 125.5 Z M 34.7 129.9 C 34.6 129.9 34.6 129.9 34.7 129.9 C 34.7 129.9 34.7 129.9 34.7 129.9 Z M 22.0 126.3 C 22.0 126.4 22.0 126.4 22.0 126.3 C 22.0 126.3 22.0 126.3 22.0 126.3 Z M 19.3 125.2 C 19.3 125.6 18.8 124.9 19.3 125.2 C 19.3 125.2 19.3 125.2 19.3 125.2 Z M 17.1 128.6 C 17.1 128.7 17.1 128.7 17.1 128.6 C 17.1 128.6 17.1 128.6 17.1 128.6 Z M 21.1 127.9 C 21.1 128.0 21.1 128.0 21.1 127.9 C 21.1 127.9 21.1 127.9 21.1 127.9 Z M 21.5 125.7 C 21.0 124.1 22.5 126.1 21.5 125.7 C 21.5 125.7 21.5 125.7 21.5 125.7 Z M 30.2 129.7 C 30.2 129.0 30.8 129.9 30.2 129.7 C 30.2 129.7 30.2 129.7 30.2 129.7 Z M 27.1 126.3 C 27.2 125.9 27.4 126.5 27.1 126.3 C 27.1 126.3 27.1 126.3 27.1 126.3 Z M 25.6 124.1 C 25.7 123.7 26.0 124.2 25.6 124.1 C 25.6 124.1 25.6 124.1 25.6 124.1 Z M 19.3 124.8 C 19.4 124.7 19.4 124.7 19.3 124.8 C 19.3 124.8 19.3 124.8 19.3 124.8 Z M 20.3 126.0 C 19.6 124.5 21.3 126.8 20.3 126.0 C 20.3 126.0 20.3 126.0 20.3 126.0 Z M 19.2 126.5 C 19.5 127.1 18.3 126.2 19.2 126.5 M 19.8 128.8 C 20.6 128.2 19.1 131.6 19.8 128.8 C 19.8 128.8 19.8 128.8 19.8 128.8 Z M 24.0 129.4 C 24.0 129.5 24.0 129.5 24.0 129.4 C 24.0 129.4 24.0 129.4 24.0 129.4 Z M 23.5 124.9 C 24.3 125.0 23.1 125.3 23.5 124.9 C 23.5 124.9 23.5 124.9 23.5 124.9 Z M 17.3 124.6 C 18.0 124.6 16.8 124.9 17.3 124.6 C 17.3 124.6 17.3 124.6 17.3 124.6 Z M 26.4 127.9 C 27.6 127.7 25.7 128.8 26.4 127.9 C 26.4 127.9 26.4 127.9 26.4 127.9 Z M 30.7 126.1 C 30.7 126.2 30.7 126.2 30.7 126.1 C 30.7 126.1 30.7 126.1 30.7 126.1 Z M 31.5 125.5 C 31.5 125.5 31.5 125.5 31.5 125.5 C 31.5 125.5 31.5 125.5 31.5 125.5 Z M 34.9 127.1 C 34.9 127.2 34.9 127.2 34.9 127.1 C 34.9 127.1 34.9 127.1 34.9 127.1 Z M 32.2 124.8 C 32.3 124.8 32.3 124.8 32.2 124.8 C 32.2 124.8 32.2 124.8 32.2 124.8 Z M 34.6 125.2 C 34.6 125.2 34.6 125.2 34.6 125.2 C 34.6 125.2 34.6 125.2 34.6 125.2 Z M 34.2 123.8 C 34.3 123.9 34.3 123.9 34.2 123.8 C 34.2 123.8 34.2 123.8 34.2 123.8 Z M 29.1 130.6 C 29.1 130.6 29.1 130.6 29.1 130.6 C 29.1 130.6 29.1 130.6 29.1 130.6 Z M 20.6 124.2 C 20.7 124.4 20.7 124.4 20.6 124.2 C 20.6 124.2 20.6 124.2 20.6 124.2 Z M 34.4 125.8 C 34.4 125.8 34.4 125.8 34.4 125.8 C 34.4 125.8 34.4 125.8 34.4 125.8 Z M 28.7 127.0 C 28.7 128.3 28.2 125.3 28.8 126.9 C 28.8 127.0 28.7 126.8 28.7 127.0 M 29.5 129.2 C 29.4 129.2 29.4 129.2 29.5 129.2 C 29.5 129.2 29.5 129.2 29.5 129.2 Z M 26.9 130.0 C 26.9 130.0 26.9 130.0 26.9 130.0 C 26.9 130.0 26.9 130.0 26.9 130.0 Z M 31.8 124.5 C 31.7 123.8 32.5 125.1 31.7 124.5 M 34.9 129.4 C 34.8 128.7 35.5 130.0 34.8 129.4 M 16.5 125.1 C 16.4 125.7 16.0 124.8 16.5 125.1 M 26.3 130.7 C 26.2 131.3 25.8 130.4 26.3 130.7 M 27.5 129.0 C 27.4 128.3 28.2 129.6 27.4 129.0 M 33.1 129.4 C 33.2 129.4 33.2 129.4 33.1 129.4 C 33.1 129.4 33.1 129.4 33.1 129.4 Z M 24.6 125.1 C 24.7 125.1 24.7 125.1 24.6 125.1 C 24.6 125.1 24.6 125.1 24.6 125.1 Z M 27.8 126.6 C 27.3 125.6 28.3 127.3 27.8 126.6 M 23.7 126.8 C 23.1 125.6 24.7 127.2 23.7 126.8 M 36.2 129.7 C 35.5 128.2 36.7 130.5 36.2 129.7 M 32.8 125.9 C 32.1 124.4 33.3 126.7 32.8 125.9 M 25.3 125.7 C 25.2 124.9 26.0 126.2 25.3 125.7 M 18.1 124.9 C 17.4 124.8 19.0 124.3 18.1 124.9 M 31.4 129.4 C 31.5 129.5 31.5 129.5 31.4 129.4 C 31.4 129.4 31.4 129.4 31.4 129.4 Z M 20.3 130.7 C 20.3 130.8 20.3 130.8 20.3 130.7 C 20.3 130.7 20.3 130.7 20.3 130.7 Z M 37.1 124.8 C 37.2 124.8 37.2 124.8 37.1 124.8 C 37.1 124.8 37.1 124.8 37.1 124.8 Z M 32.3 126.6 C 32.4 126.7 32.4 126.7 32.3 126.6 C 32.3 126.6 32.3 126.6 32.3 126.6 Z M 35.8 124.5 C 35.8 124.6 35.8 124.6 35.8 124.5 C 35.8 124.5 35.8 124.5 35.8 124.5 Z M 30.2 127.8 C 30.2 127.8 30.2 127.8 30.2 127.8 C 30.2 127.8 30.2 127.8 30.2 127.8 Z M 29.7 123.9 C 29.8 124.0 29.8 124.0 29.7 123.9 C 29.7 123.9 29.7 123.9 29.7 123.9 Z M 27.4 125.6 C 27.4 125.6 27.4 125.6 27.4 125.6 C 27.4 125.6 27.4 125.6 27.4 125.6 Z M 30.8 124.2 C 32.2 124.0 30.1 125.5 30.8 124.2 C 30.8 124.2 30.8 124.2 30.8 124.2 Z M 28.4 128.1 C 28.4 128.1 28.4 128.1 28.4 128.1 C 28.4 128.1 28.4 128.1 28.4 128.1 Z M 28.2 125.4 C 29.1 124.3 28.6 127.2 28.2 125.4 M 24.2 124.5 C 24.5 123.9 24.3 125.4 24.2 124.5 M 22.6 129.5 C 22.6 129.6 22.6 129.6 22.6 129.5 C 22.6 129.5 22.6 129.5 22.6 129.5 Z M 23.1 129.1 C 23.1 129.2 23.1 129.2 23.1 129.1 C 23.1 129.1 23.1 129.1 23.1 129.1 Z M 23.2 124.2 C 23.3 124.3 23.3 124.3 23.2 124.2 C 23.2 124.2 23.2 124.2 23.2 124.2 Z M 23.1 130.6 C 23.2 130.6 23.2 130.6 23.1 130.6 C 23.1 130.6 23.1 130.6 23.1 130.6 Z M 29.2 124.0 C 29.2 124.1 29.2 124.1 29.2 124.0 C 29.2 124.0 29.2 124.0 29.2 124.0 Z M 36.5 124.0 C 36.5 124.0 36.5 124.0 36.5 124.0 C 36.5 124.0 36.5 124.0 36.5 124.0 Z M 18.3 129.0 C 18.3 129.0 18.3 129.0 18.3 129.0 C 18.3 129.0 18.3 129.0 18.3 129.0 Z M 30.0 125.6 C 30.0 125.6 30.0 125.6 30.0 125.6 C 30.0 125.6 30.0 125.6 30.0 125.6 Z M 21.6 129.3 C 21.6 129.3 21.6 129.3 21.6 129.3 C 21.6 129.3 21.6 129.3 21.6 129.3 Z M 29.5 125.2 C 29.5 125.3 29.5 125.3 29.5 125.2 C 29.5 125.2 29.5 125.2 29.5 125.2 Z M 31.2 129.7 C 31.2 129.7 31.2 129.7 31.2 129.7 C 31.2 129.7 31.2 129.7 31.2 129.7 Z M 32.8 130.6 C 32.8 130.6 32.8 130.6 32.8 130.6 C 32.8 130.6 32.8 130.6 32.8 130.6 Z M 31.1 127.0 C 31.1 127.1 31.1 127.1 31.1 127.0 C 31.1 127.0 31.1 127.0 31.1 127.0 Z M 21.1 127.6 C 18.2 126.3 23.4 127.0 21.1 127.6 M 31.6 127.4 C 29.6 127.0 33.2 125.9 31.6 127.4 C 31.8 127.0 31.6 127.3 31.6 127.4 " fill="#71AFE1"></path></g></g><g><clipPath id="clip-737"><path d="M 126.1 0.1 L 22.2 128.6 L 29.2 134.3 L 133.1 5.8 Z M 126.1 0.1 "></path></clipPath><g clip-path="url(#clip-737)"><path d="M 120.4 17.0 C 120.5 16.7 121.3 16.2 121.3 15.8 M 120.4 17.0 C 122.0 17.2 123.0 16.0 124.5 14.6 C 125.9 12.9 123.5 13.9 123.3 13.4 C 124.7 10.8 125.4 11.4 126.2 12.6 C 126.2 11.1 129.6 9.6 127.8 9.0 C 124.9 12.7 129.5 6.2 126.3 8.6 C 125.8 8.8 126.2 7.6 126.5 7.3 C 125.1 7.8 125.8 5.6 124.1 6.9 C 123.1 6.4 123.7 6.4 122.2 6.9 C 121.7 7.3 122.2 7.3 122.4 7.4 C 123.3 8.4 120.9 8.3 120.8 9.6 C 118.9 9.3 119.8 11.4 120.9 11.1 C 120.1 11.8 118.0 11.6 118.3 13.1 C 117.3 13.0 116.1 15.5 117.9 14.9 C 119.1 14.4 118.7 15.7 118.9 16.1 C 119.4 16.0 120.0 14.4 120.4 14.4 C 120.3 15.0 119.5 17.0 120.8 15.2 C 120.8 16.1 121.8 15.5 120.4 17.0 C 120.4 17.0 120.4 17.0 120.4 17.0 Z M 126.2 11.5 C 126.5 11.7 125.7 12.0 126.2 11.5 C 126.2 11.5 126.2 11.5 126.2 11.5 Z M 118.2 11.9 C 118.5 12.2 117.7 12.5 118.2 11.9 C 118.2 11.9 118.2 11.9 118.2 11.9 Z M 122.2 7.7 C 122.5 8.0 121.7 8.3 122.2 7.7 C 122.2 7.7 122.2 7.7 122.2 7.7 Z M 124.7 12.9 C 123.6 13.6 124.8 11.7 125.3 11.8 C 125.1 12.0 125.1 12.9 124.7 12.9 C 124.7 12.9 124.7 12.9 124.7 12.9 Z M 122.5 11.4 C 122.6 11.6 122.3 12.0 122.0 11.7 C 122.1 11.4 122.5 11.2 122.5 11.4 C 122.5 11.4 122.5 11.4 122.5 11.4 Z M 127.8 7.7 C 127.9 7.9 127.6 8.4 127.3 8.0 C 127.4 7.7 127.8 7.6 127.8 7.7 C 127.8 7.7 127.8 7.7 127.8 7.7 Z M 122.8 13.3 C 122.6 13.4 122.2 13.3 122.4 12.9 C 122.7 12.9 123.3 12.3 122.8 13.3 C 122.8 13.3 122.8 13.3 122.8 13.3 Z M 122.8 15.7 C 121.9 16.4 122.8 14.3 122.9 14.5 C 123.4 14.4 123.4 15.5 122.8 15.7 C 122.8 15.7 122.8 15.7 122.8 15.7 Z M 122.0 13.3 C 121.3 13.9 122.0 12.8 122.0 13.3 C 122.0 13.3 122.0 13.3 122.0 13.3 Z M 124.8 6.3 C 124.0 6.9 124.7 5.9 124.8 6.3 C 124.8 6.3 124.8 6.3 124.8 6.3 Z M 120.8 9.0 C 120.1 9.5 120.8 8.5 120.8 9.0 C 120.8 9.0 120.8 9.0 120.8 9.0 Z M 125.4 10.5 C 126.4 9.4 126.4 11.1 125.4 10.5 C 125.4 10.5 125.4 10.5 125.4 10.5 Z M 121.3 17.6 C 122.3 16.5 122.3 18.2 121.3 17.6 C 121.3 17.6 121.3 17.6 121.3 17.6 Z M 31.7 127.9 C 31.0 129.1 35.5 125.9 32.9 126.3 C 31.4 125.9 33.8 123.2 34.2 124.7 C 35.1 124.0 35.1 124.0 35.0 123.1 C 35.9 123.7 37.9 122.0 38.0 121.0 C 37.7 120.0 36.9 122.2 37.0 120.5 C 38.8 117.9 36.1 120.0 36.0 118.3 C 36.1 118.2 36.5 118.6 36.5 118.1 C 35.7 117.4 33.9 118.3 33.8 117.1 C 33.6 117.6 31.3 118.6 32.6 118.5 C 33.6 118.9 30.1 119.6 31.5 120.6 C 30.4 120.7 30.8 122.0 29.6 121.9 C 29.1 122.2 29.8 122.8 30.0 122.9 C 30.7 123.3 28.2 122.3 28.7 123.9 C 28.3 123.7 26.9 125.8 28.5 124.7 C 28.1 125.0 26.0 127.1 28.1 126.8 C 30.0 125.7 28.0 129.5 29.6 127.6 C 30.9 126.3 30.9 125.8 30.7 127.4 C 30.3 127.7 29.1 129.4 30.8 128.5 C 30.9 128.0 31.5 127.4 31.7 127.9 C 31.7 127.9 31.7 127.9 31.7 127.9 Z M 29.7 126.8 C 30.3 125.9 30.2 127.1 29.7 126.8 C 29.7 126.8 29.7 126.8 29.7 126.8 Z M 29.4 121.6 C 30.0 120.7 29.9 121.9 29.4 121.6 C 29.4 121.6 29.4 121.6 29.4 121.6 Z M 34.1 125.6 C 34.1 124.8 35.4 125.7 34.1 125.6 C 34.1 125.6 34.1 125.6 34.1 125.6 Z M 29.3 123.8 C 29.3 123.7 29.3 124.0 29.3 124.3 C 29.2 124.2 29.2 123.8 29.3 123.8 C 29.3 123.8 29.3 123.8 29.3 123.8 Z M 35.2 124.2 C 35.6 122.4 36.4 124.7 35.2 124.2 C 35.2 124.2 35.2 124.2 35.2 124.2 Z M 36.1 120.7 C 34.9 119.6 37.4 119.6 36.1 120.7 C 36.1 120.7 36.1 120.7 36.1 120.7 Z M 31.9 120.2 C 32.0 120.7 31.6 120.3 31.9 120.2 C 31.9 120.2 31.9 120.2 31.9 120.2 Z M 27.4 125.5 C 27.5 125.9 27.1 125.6 27.4 125.5 C 27.4 125.5 27.4 125.5 27.4 125.5 Z M 33.3 118.8 C 33.7 119.2 32.7 119.0 33.3 118.8 C 33.3 118.8 33.3 118.8 33.3 118.8 Z M 33.8 124.9 C 33.9 126.9 31.2 125.1 33.8 124.9 C 33.8 124.9 33.8 124.9 33.8 124.9 Z M 32.2 127.0 C 31.8 128.0 31.7 126.4 32.2 126.2 C 32.2 126.3 32.3 126.9 32.2 127.0 C 32.2 127.0 32.2 127.0 32.2 127.0 Z M 34.6 123.6 C 34.5 124.8 33.8 124.1 34.6 123.6 C 34.6 123.6 34.6 123.6 34.6 123.6 Z M 33.6 126.1 C 33.2 126.3 33.7 125.6 33.6 126.1 C 33.6 126.1 33.6 126.1 33.6 126.1 Z M 36.9 122.9 C 36.5 123.2 37.0 122.5 36.9 122.9 C 36.9 122.9 36.9 122.9 36.9 122.9 Z M 32.0 128.4 C 31.6 128.7 32.1 128.0 32.0 128.4 C 32.0 128.4 32.0 128.4 32.0 128.4 Z M 36.0 122.7 C 35.6 122.3 33.8 122.6 36.2 121.3 C 36.8 121.2 36.8 122.5 36.0 122.7 C 36.0 122.7 36.0 122.7 36.0 122.7 Z M 117.8 20.2 C 123.0 16.7 119.6 15.8 119.3 15.3 C 119.2 14.1 118.3 14.4 117.1 14.9 C 114.7 14.7 117.5 17.7 115.4 17.2 C 112.3 16.7 116.0 20.0 113.4 18.8 C 113.0 18.2 112.0 20.3 112.2 20.3 C 110.5 20.4 111.3 23.2 111.4 23.3 C 110.7 23.7 108.7 22.2 108.6 25.3 C 107.9 27.1 105.5 26.2 107.2 26.9 C 104.8 26.8 107.0 28.0 105.6 28.7 C 104.2 28.7 106.9 29.7 104.2 29.8 C 105.0 31.4 103.9 28.5 101.9 32.8 C 103.4 31.2 101.5 35.3 101.2 33.9 C 101.3 32.0 100.2 35.9 98.3 37.1 C 98.4 37.9 97.9 40.8 97.0 39.5 C 94.2 40.0 96.5 41.9 94.7 41.7 C 93.7 41.8 94.6 42.9 94.2 43.2 C 92.9 43.1 93.0 44.1 91.1 46.0 C 86.9 50.3 92.8 48.6 91.7 50.6 C 91.8 51.2 96.8 51.0 93.8 50.2 C 94.7 50.4 95.5 44.8 96.4 48.6 C 96.6 46.4 97.1 49.7 98.3 45.9 C 93.4 48.5 101.2 40.9 99.0 45.3 C 100.0 45.1 101.2 43.4 99.8 44.2 C 98.0 43.4 102.7 42.1 99.6 42.2 C 102.1 40.2 99.9 39.4 101.6 39.7 C 104.1 40.7 101.0 39.4 102.6 38.6 C 104.9 35.8 105.4 39.9 105.3 36.9 C 108.6 34.9 104.9 35.6 105.4 34.4 C 104.3 33.0 108.8 32.4 107.3 34.7 C 107.5 33.0 108.1 35.0 108.3 33.0 C 106.2 32.9 111.0 32.5 109.6 32.0 C 110.2 30.6 109.0 30.6 109.2 30.2 C 110.6 28.5 111.5 30.0 110.8 28.9 C 110.6 28.1 112.9 28.7 112.7 28.1 C 111.2 29.8 112.5 25.5 113.3 25.9 C 112.5 27.1 115.5 26.7 115.0 25.2 C 111.5 23.8 117.0 24.3 116.6 22.7 C 114.4 22.2 119.5 18.7 118.8 21.0 C 118.8 20.8 117.8 20.3 117.8 20.2 M 112.8 27.4 C 111.6 28.7 113.8 25.6 112.8 27.4 M 113.3 27.7 C 112.3 27.9 114.8 26.6 113.4 27.9 C 113.4 27.9 113.4 27.6 113.3 27.7 M 108.5 33.7 C 108.2 33.2 109.4 33.1 108.5 33.7 M 106.6 34.1 C 105.5 34.7 107.6 32.7 106.6 34.1 M 96.3 47.5 C 95.0 44.3 98.7 47.2 96.3 47.5 M 103.8 39.2 C 104.8 37.3 104.3 40.5 103.8 39.2 M 103.6 38.2 C 103.8 37.2 104.3 38.5 103.6 38.2 M 98.3 45.0 C 98.2 45.1 98.2 45.1 98.3 45.0 C 98.3 45.0 98.3 45.0 98.3 45.0 Z M 95.1 48.9 C 95.1 48.9 95.1 48.9 95.1 48.9 C 95.1 48.9 95.1 48.9 95.1 48.9 Z M 101.1 41.0 C 102.7 40.2 99.7 43.2 101.1 41.0 C 101.1 41.0 101.1 41.0 101.1 41.0 Z M 93.0 44.2 C 93.0 44.1 93.0 44.1 93.0 44.2 C 93.0 44.2 93.0 44.2 93.0 44.2 Z M 112.7 25.4 C 112.7 25.3 112.7 25.3 112.7 25.4 C 112.7 25.4 112.7 25.4 112.7 25.4 Z M 117.2 21.6 C 116.8 21.5 118.1 21.0 117.2 21.6 C 117.2 21.6 117.2 21.6 117.2 21.6 Z M 117.4 15.9 C 117.5 15.8 117.5 15.8 117.4 15.9 C 117.4 15.9 117.4 15.9 117.4 15.9 Z M 112.7 22.9 C 112.7 22.8 112.7 22.8 112.7 22.9 C 112.7 22.9 112.7 22.9 112.7 22.9 Z M 113.9 25.0 C 115.8 25.3 112.2 26.4 113.9 25.0 C 113.9 25.0 113.9 25.0 113.9 25.0 Z M 99.1 36.9 C 99.6 37.4 98.1 37.8 99.1 36.9 C 99.1 36.9 99.1 36.9 99.1 36.9 Z M 106.0 33.8 C 106.1 34.2 105.3 34.4 106.0 33.8 C 106.0 33.8 106.0 33.8 106.0 33.8 Z M 109.7 32.8 C 109.8 33.2 109.0 33.3 109.7 32.8 C 109.7 32.8 109.7 32.8 109.7 32.8 Z M 117.5 22.0 C 117.5 22.2 117.5 22.2 117.5 22.0 C 117.5 22.0 117.5 22.0 117.5 22.0 Z M 115.2 22.8 C 117.3 22.7 113.2 24.0 115.2 22.8 C 115.2 22.8 115.2 22.8 115.2 22.8 Z M 116.4 20.7 C 115.5 20.9 117.8 19.4 116.4 20.7 M 113.7 20.2 C 113.1 22.0 112.5 17.3 113.7 20.2 C 113.7 20.2 113.7 20.2 113.7 20.2 Z M 107.7 26.7 C 107.5 26.8 107.5 26.8 107.7 26.7 C 107.7 26.7 107.7 26.7 107.7 26.7 Z M 111.8 28.8 C 110.7 30.0 112.1 27.8 111.8 28.8 C 111.8 28.8 111.8 28.8 111.8 28.8 Z M 120.4 18.7 C 119.4 19.9 120.7 17.7 120.4 18.7 C 120.4 18.7 120.4 18.7 120.4 18.7 Z M 105.6 31.7 C 104.2 33.8 105.9 30.0 105.6 31.7 C 105.6 31.7 105.6 31.7 105.6 31.7 Z M 101.2 40.0 C 101.1 40.0 101.1 40.0 101.2 40.0 C 101.2 40.0 101.2 40.0 101.2 40.0 Z M 100.6 41.7 C 100.6 41.7 100.6 41.7 100.6 41.7 C 100.6 41.7 100.6 41.7 100.6 41.7 Z M 94.9 46.2 C 94.8 46.3 94.8 46.3 94.9 46.2 C 94.9 46.2 94.9 46.2 94.9 46.2 Z M 100.2 43.4 C 100.2 43.4 100.2 43.4 100.2 43.4 C 100.2 43.4 100.2 43.4 100.2 43.4 Z M 96.8 47.0 C 96.7 47.0 96.7 47.0 96.8 47.0 C 96.8 47.0 96.8 47.0 96.8 47.0 Z M 98.3 47.3 C 98.2 47.3 98.2 47.3 98.3 47.3 C 98.3 47.3 98.3 47.3 98.3 47.3 Z M 99.9 34.5 C 99.8 34.5 99.8 34.5 99.9 34.5 C 99.9 34.5 99.9 34.5 99.9 34.5 Z M 116.2 24.4 C 116.0 24.5 116.0 24.5 116.2 24.4 C 116.2 24.4 116.2 24.4 116.2 24.4 Z M 96.6 46.3 C 96.5 46.3 96.5 46.3 96.6 46.3 C 96.6 46.3 96.6 46.3 96.6 46.3 Z M 103.2 36.1 C 102.2 35.3 105.2 36.4 103.1 36.4 C 103.1 36.3 103.4 36.2 103.2 36.1 M 100.5 36.0 C 100.5 35.9 100.5 35.9 100.5 36.0 C 100.5 36.0 100.5 36.0 100.5 36.0 Z M 103.3 31.2 C 103.3 31.2 103.3 31.2 103.3 31.2 C 103.3 31.2 103.3 31.2 103.3 31.2 Z M 101.0 42.9 C 101.7 43.2 99.7 43.6 101.1 42.7 M 93.1 44.8 C 93.8 45.1 91.8 45.5 93.2 44.7 M 121.1 17.0 C 120.8 16.5 122.0 16.5 121.1 17.0 M 103.5 29.9 C 103.2 29.3 104.4 29.3 103.5 29.9 M 103.2 32.9 C 104.0 33.2 101.9 33.6 103.3 32.7 M 95.5 42.0 C 95.4 42.0 95.4 42.0 95.5 42.0 C 95.5 42.0 95.5 42.0 95.5 42.0 Z M 110.2 30.6 C 110.1 30.6 110.1 30.6 110.2 30.6 C 110.2 30.6 110.2 30.6 110.2 30.6 Z M 104.8 34.8 C 106.1 34.7 103.5 35.3 104.8 34.8 M 110.0 28.0 C 111.8 27.7 108.4 29.3 110.0 28.0 M 91.1 46.9 C 93.2 46.7 89.7 47.2 91.1 46.9 M 98.6 43.5 C 100.7 43.3 97.3 43.9 98.6 43.5 M 108.8 31.2 C 109.5 31.6 107.5 32.1 108.8 31.2 M 119.0 19.8 C 120.0 18.8 118.3 21.7 119.0 19.8 M 97.7 39.1 C 97.6 39.1 97.6 39.1 97.7 39.1 C 97.7 39.1 97.7 39.1 97.7 39.1 Z M 111.6 19.8 C 111.5 19.8 111.5 19.8 111.6 19.8 C 111.6 19.8 111.6 19.8 111.6 19.8 Z M 93.7 51.5 C 93.6 51.5 93.6 51.5 93.7 51.5 C 93.7 51.5 93.7 51.5 93.7 51.5 Z M 98.6 42.4 C 98.5 42.4 98.5 42.4 98.6 42.4 C 98.6 42.4 98.6 42.4 98.6 42.4 Z M 95.7 49.4 C 95.5 49.4 95.5 49.4 95.7 49.4 C 95.7 49.4 95.7 49.4 95.7 49.4 Z M 100.6 38.0 C 100.6 38.0 100.6 38.0 100.6 38.0 C 100.6 38.0 100.6 38.0 100.6 38.0 Z M 104.2 39.7 C 104.2 39.7 104.2 39.7 104.2 39.7 C 104.2 39.7 104.2 39.7 104.2 39.7 Z M 106.1 34.8 C 106.1 34.8 106.1 34.8 106.1 34.8 C 106.1 34.8 106.1 34.8 106.1 34.8 Z M 102.5 41.3 C 100.8 43.8 102.5 39.3 102.5 41.3 C 102.5 41.3 102.5 41.3 102.5 41.3 Z M 102.8 34.9 C 102.8 34.9 102.8 34.9 102.8 34.9 C 102.8 34.9 102.8 34.9 102.8 34.9 Z M 105.2 36.2 C 104.9 38.4 103.1 35.9 105.2 36.2 M 111.2 30.3 C 111.3 31.1 110.3 29.9 111.2 30.3 M 109.4 24.5 C 109.3 24.4 109.3 24.4 109.4 24.5 C 109.4 24.5 109.4 24.5 109.4 24.5 Z M 109.1 25.4 C 109.0 25.5 109.0 25.5 109.1 25.4 C 109.1 25.4 109.1 25.4 109.1 25.4 Z M 112.7 28.8 C 112.6 28.8 112.6 28.8 112.7 28.8 C 112.7 28.8 112.7 28.8 112.7 28.8 Z M 107.9 24.6 C 107.8 24.7 107.8 24.7 107.9 24.6 C 107.9 24.6 107.9 24.6 107.9 24.6 Z M 104.9 38.8 C 104.8 38.8 104.8 38.8 104.9 38.8 C 104.9 38.8 104.9 38.8 104.9 38.8 Z M 95.2 50.9 C 95.1 50.9 95.1 50.9 95.2 50.9 C 95.2 50.9 95.2 50.9 95.2 50.9 Z M 115.6 17.6 C 115.5 17.7 115.5 17.7 115.6 17.6 C 115.6 17.6 115.6 17.6 115.6 17.6 Z M 102.7 39.1 C 102.6 39.1 102.6 39.1 102.7 39.1 C 102.7 39.1 102.7 39.1 102.7 39.1 Z M 110.9 22.9 C 110.9 22.9 110.9 22.9 110.9 22.9 C 110.9 22.9 110.9 22.9 110.9 22.9 Z M 103.5 38.5 C 103.5 38.5 103.5 38.5 103.5 38.5 C 103.5 38.5 103.5 38.5 103.5 38.5 Z M 97.8 38.5 C 97.7 38.5 97.7 38.5 97.8 38.5 C 97.8 38.5 97.8 38.5 97.8 38.5 Z M 95.0 40.6 C 95.0 40.6 95.0 40.6 95.0 40.6 C 95.0 40.6 95.0 40.6 95.0 40.6 Z M 100.0 40.0 C 99.9 40.1 99.9 40.1 100.0 40.0 C 100.0 40.0 100.0 40.0 100.0 40.0 Z M 112.9 23.1 C 117.8 19.2 110.3 27.2 112.9 23.1 M 99.1 40.6 C 102.0 37.5 98.1 44.2 99.1 40.6 C 99.1 41.2 99.1 40.7 99.1 40.6 M 93.2 53.0 C 93.3 50.8 92.2 49.9 90.6 49.6 C 89.5 49.8 91.7 51.6 89.8 50.1 C 90.7 48.2 86.5 48.5 88.9 50.4 C 87.6 52.7 87.1 49.5 87.0 51.5 C 85.5 53.9 85.7 52.2 84.5 54.0 C 85.0 56.0 83.1 54.4 84.0 55.9 C 83.3 53.9 82.9 58.0 82.2 57.5 C 82.6 55.3 77.5 63.4 81.1 59.7 C 80.4 61.8 79.6 60.6 79.0 61.0 C 79.2 62.4 76.2 63.2 76.1 64.8 C 76.5 64.8 76.9 64.3 77.3 64.4 C 78.1 64.5 76.3 65.4 76.4 65.3 C 76.2 66.2 74.9 69.5 75.7 65.6 C 75.2 64.9 74.2 68.1 73.7 67.5 C 71.7 70.0 74.5 69.2 72.6 69.5 C 71.2 71.2 70.2 72.5 70.3 72.6 C 69.3 73.5 68.4 73.1 68.4 74.7 C 65.2 75.7 69.9 78.4 66.4 77.0 C 66.6 78.1 64.3 77.2 66.1 78.5 C 65.9 77.1 61.8 81.1 64.6 80.2 C 64.6 81.0 60.2 82.0 62.3 83.1 C 62.8 85.1 64.2 85.9 67.1 84.8 C 65.9 84.2 70.0 83.4 67.0 83.6 C 64.9 84.9 69.1 79.7 68.8 81.3 C 70.7 83.2 69.6 77.7 72.0 77.8 C 70.4 78.1 73.4 73.5 74.0 76.0 C 74.7 75.3 74.2 74.5 75.7 74.4 C 73.6 76.8 74.9 72.1 75.7 73.0 C 76.0 73.9 79.5 70.5 78.3 70.2 C 75.1 69.8 79.6 69.5 79.3 68.2 C 80.5 65.8 80.8 70.0 80.5 67.2 C 81.1 67.0 83.4 64.2 82.4 66.3 C 81.6 66.8 81.4 62.8 83.4 63.9 C 82.0 67.7 86.7 61.0 85.4 61.5 C 80.7 65.3 88.2 55.8 86.3 60.2 C 88.9 58.9 86.2 61.1 87.8 58.2 C 87.0 58.1 88.0 55.7 88.8 57.0 C 90.8 58.0 87.0 54.5 90.6 54.8 C 91.8 55.4 92.4 51.2 92.6 53.2 C 92.7 53.4 93.2 53.1 93.2 53.0 M 92.3 53.8 C 92.2 53.1 93.2 53.6 92.3 53.8 M 92.2 53.1 C 92.3 53.1 92.3 53.1 92.2 53.1 C 92.2 53.1 92.2 53.1 92.2 53.1 Z M 88.0 57.8 C 88.1 57.8 88.1 57.8 88.0 57.8 C 88.0 57.8 88.0 57.8 88.0 57.8 Z M 80.6 58.2 C 80.7 58.2 80.7 58.2 80.6 58.2 C 80.6 58.2 80.6 58.2 80.6 58.2 Z M 85.3 61.0 C 85.3 60.9 85.3 60.9 85.3 61.0 C 85.3 61.0 85.3 61.0 85.3 61.0 Z M 89.2 55.8 C 89.2 55.8 89.2 55.8 89.2 55.8 C 89.2 55.8 89.2 55.8 89.2 55.8 Z M 86.2 61.2 C 85.3 60.9 87.6 60.4 86.2 61.3 C 86.1 61.3 86.3 61.1 86.2 61.2 M 83.0 65.6 C 82.9 65.6 82.9 65.6 83.0 65.6 M 70.4 70.9 C 70.3 70.9 70.3 70.9 70.4 70.9 M 74.8 75.8 C 74.7 75.8 74.7 75.8 74.8 75.8 M 78.9 69.3 C 77.9 70.7 78.3 69.4 78.9 69.3 M 71.7 78.9 C 73.4 77.6 70.6 81.0 71.7 78.9 M 70.8 80.8 C 70.6 80.9 70.6 80.9 70.8 80.8 M 76.5 73.3 C 76.5 73.2 76.5 73.2 76.5 73.3 C 76.5 73.3 76.5 73.3 76.5 73.3 Z M 79.6 69.0 C 81.3 67.6 78.8 71.2 79.6 69.0 M 88.2 58.9 C 87.7 60.0 87.4 58.2 88.2 58.9 M 89.4 56.6 C 89.4 56.6 89.4 56.6 89.4 56.6 C 89.4 56.6 89.4 56.6 89.4 56.6 Z M 73.9 76.3 C 73.9 76.3 73.9 76.3 73.9 76.3 C 73.9 76.3 73.9 76.3 73.9 76.3 Z M 72.4 78.3 C 72.5 78.2 72.5 78.2 72.4 78.3 C 72.4 78.3 72.4 78.3 72.4 78.3 Z M 65.2 77.6 C 65.2 77.6 65.2 77.6 65.2 77.6 C 65.2 77.6 65.2 77.6 65.2 77.6 Z M 86.3 56.5 C 87.6 55.5 86.8 59.0 85.8 57.8 C 85.2 57.6 86.2 56.7 86.3 56.5 M 79.2 66.6 C 77.3 65.6 82.4 67.1 79.2 66.6 M 69.5 80.2 C 66.6 79.9 72.2 79.7 69.5 80.2 M 67.8 83.1 C 66.8 83.5 71.5 78.1 68.8 82.4 C 68.8 83.0 68.2 83.0 67.8 83.1 M 82.2 65.1 C 81.0 64.7 84.2 63.3 82.2 65.1 M 73.2 70.7 C 73.2 71.8 72.4 73.8 72.0 72.3 C 70.8 71.3 73.3 69.6 73.2 70.7 M 91.1 53.4 C 91.7 55.6 89.9 52.4 91.1 53.4 M 87.0 58.3 C 87.0 58.3 87.0 58.3 87.0 58.3 C 87.0 58.3 87.0 58.3 87.0 58.3 Z M 85.6 60.4 C 85.4 60.4 85.4 60.4 85.6 60.4 M 91.7 55.2 C 91.5 55.2 91.5 55.2 91.7 55.2 M 74.7 71.9 C 74.5 71.9 74.5 71.9 74.7 71.9 M 78.8 68.7 C 75.9 69.4 79.4 67.4 78.8 68.7 M 79.9 61.8 C 78.8 61.8 80.8 60.6 79.9 61.8 M 76.8 72.2 C 74.4 72.5 77.1 69.3 76.8 72.2 M 79.7 67.8 C 79.7 67.9 79.7 67.9 79.7 67.8 C 79.7 67.8 79.7 67.8 79.7 67.8 Z M 72.6 71.1 C 72.6 71.0 72.6 71.0 72.6 71.1 C 72.6 71.1 72.6 71.1 72.6 71.1 Z M 72.2 71.7 C 72.2 71.6 72.2 71.6 72.2 71.7 C 72.2 71.7 72.2 71.7 72.2 71.7 Z M 75.7 74.0 C 75.7 73.9 75.7 73.9 75.7 74.0 C 75.7 74.0 75.7 74.0 75.7 74.0 Z M 85.8 53.5 C 84.6 54.8 86.4 52.3 85.8 53.5 C 85.8 53.5 85.8 53.5 85.8 53.5 Z M 84.9 62.7 C 82.0 64.1 85.2 60.3 84.9 62.7 C 84.9 62.7 84.9 62.7 84.9 62.7 Z M 81.1 63.8 C 81.0 63.8 81.0 63.8 81.1 63.8 C 81.1 63.8 81.1 63.8 81.1 63.8 Z M 78.4 72.0 C 78.3 72.0 78.3 72.0 78.4 72.0 C 78.4 72.0 78.4 72.0 78.4 72.0 Z M 85.1 54.1 C 85.0 54.0 85.0 54.0 85.1 54.1 C 85.1 54.1 85.1 54.1 85.1 54.1 Z M 71.8 77.3 C 71.8 77.2 71.8 77.2 71.8 77.3 C 71.8 77.3 71.8 77.3 71.8 77.3 Z M 75.4 67.3 C 75.5 68.2 74.9 67.0 75.4 67.3 C 75.4 67.3 75.4 67.3 75.4 67.3 Z M 73.7 69.3 C 73.7 69.3 73.7 69.3 73.7 69.3 C 73.7 69.3 73.7 69.3 73.7 69.3 Z M 70.5 81.4 C 70.5 81.5 70.5 81.5 70.5 81.4 C 70.5 81.4 70.5 81.4 70.5 81.4 Z M 68.3 73.4 C 68.3 73.5 68.3 73.5 68.3 73.4 C 68.3 73.4 68.3 73.4 68.3 73.4 Z M 68.5 76.4 C 68.5 76.3 68.5 76.3 68.5 76.4 C 68.5 76.4 68.5 76.4 68.5 76.4 Z M 75.6 73.4 C 74.3 75.6 75.4 72.4 75.6 73.4 C 75.6 73.4 75.6 73.4 75.6 73.4 Z M 64.9 81.7 C 64.8 81.7 64.8 81.7 64.9 81.7 C 64.9 81.7 64.9 81.7 64.9 81.7 Z M 65.9 84.2 C 65.8 84.2 65.8 84.2 65.9 84.2 C 65.9 84.2 65.9 84.2 65.9 84.2 Z M 66.5 85.5 C 66.3 85.5 66.3 85.5 66.5 85.5 C 66.5 85.5 66.5 85.5 66.5 85.5 Z M 83.7 58.8 C 83.8 58.8 83.8 58.8 83.7 58.8 C 83.7 58.8 83.7 58.8 83.7 58.8 Z M 87.3 60.4 C 87.3 60.4 87.3 60.4 87.3 60.4 C 87.3 60.4 87.3 60.4 87.3 60.4 Z M 85.2 63.2 C 85.3 63.2 85.3 63.2 85.2 63.2 C 85.2 63.2 85.2 63.2 85.2 63.2 Z M 82.3 56.8 C 82.3 56.8 82.3 56.8 82.3 56.8 C 82.3 56.8 82.3 56.8 82.3 56.8 Z M 76.5 69.1 C 76.6 69.1 76.6 69.1 76.5 69.1 C 76.5 69.1 76.5 69.1 76.5 69.1 Z M 74.5 69.1 C 74.6 69.1 74.6 69.1 74.5 69.1 C 74.5 69.1 74.5 69.1 74.5 69.1 Z M 74.9 65.5 C 74.9 65.5 74.9 65.5 74.9 65.5 C 74.9 65.5 74.9 65.5 74.9 65.5 Z M 72.9 69.0 C 72.9 69.0 72.9 69.0 72.9 69.0 C 72.9 69.0 72.9 69.0 72.9 69.0 Z M 88.4 50.4 C 88.4 50.4 88.4 50.4 88.4 50.4 C 88.4 50.4 88.4 50.4 88.4 50.4 Z M 90.8 52.0 C 90.8 51.9 90.8 51.9 90.8 52.0 C 90.8 52.0 90.8 52.0 90.8 52.0 Z M 77.9 70.8 C 78.0 71.6 76.5 71.2 77.9 70.8 M 80.8 66.6 C 80.8 66.6 80.8 66.6 80.8 66.6 C 80.8 66.6 80.8 66.6 80.8 66.6 Z M 72.5 77.3 C 71.2 77.0 74.5 75.8 72.5 77.3 C 72.5 77.3 72.5 77.3 72.5 77.3 Z M 70.4 72.1 C 70.4 72.1 70.4 72.1 70.4 72.1 C 70.4 72.1 70.4 72.1 70.4 72.1 Z M 70.0 73.5 C 69.8 73.5 69.8 73.5 70.0 73.5 C 70.0 73.5 70.0 73.5 70.0 73.5 Z M 67.9 81.1 C 67.7 81.1 67.7 81.1 67.9 81.1 M 82.0 66.8 C 81.1 67.1 81.3 67.0 82.0 66.8 M 71.4 78.6 C 71.5 78.5 71.5 78.5 71.4 78.6 C 71.4 78.6 71.4 78.6 71.4 78.6 Z M 67.4 82.8 C 67.4 82.7 67.4 82.7 67.4 82.8 C 67.4 82.8 67.4 82.8 67.4 82.8 Z M 83.6 63.5 C 82.5 62.7 83.1 62.4 83.6 63.5 M 89.6 55.5 C 89.5 55.4 89.5 55.4 89.6 55.5 C 89.6 55.5 89.6 55.5 89.6 55.5 Z M 63.2 89.6 C 66.1 88.5 64.4 87.1 64.3 87.0 C 66.4 89.1 64.9 84.4 64.1 84.4 C 63.9 84.1 58.5 82.5 59.8 86.0 C 59.7 86.6 58.8 86.3 58.5 86.5 C 56.5 89.2 61.2 85.7 58.7 88.9 C 57.9 89.2 56.5 87.0 56.3 89.9 C 56.1 89.9 53.7 91.4 55.2 91.3 C 53.5 91.6 54.0 93.1 53.5 94.2 C 52.3 94.7 52.7 92.4 51.3 96.3 C 48.6 96.3 51.0 99.0 48.3 98.8 C 47.6 99.5 49.6 103.0 49.4 99.9 C 49.4 100.3 51.6 100.3 49.2 102.3 C 49.1 101.7 47.2 98.0 45.6 102.9 C 45.0 103.5 44.6 105.5 44.0 105.6 C 45.3 103.4 40.6 107.2 41.8 107.4 C 38.8 110.0 41.5 109.3 38.8 110.7 C 37.3 112.5 40.6 111.2 38.0 112.8 C 36.8 114.6 37.0 112.8 37.2 112.7 C 35.9 114.0 36.0 115.0 35.5 115.5 C 35.1 115.7 34.0 115.8 34.4 116.8 C 34.5 119.4 37.0 119.1 37.7 120.8 C 39.3 120.2 37.1 119.5 38.8 119.5 C 38.4 118.3 38.9 119.5 41.2 116.3 C 40.9 116.2 39.7 116.5 40.3 115.7 C 41.3 114.6 42.9 117.2 42.9 114.0 C 40.5 115.9 44.8 110.2 42.6 111.9 C 44.5 109.0 43.4 111.3 45.5 109.8 C 43.9 108.7 47.2 110.9 46.6 109.2 C 47.4 109.6 49.6 106.3 46.9 107.7 C 49.1 104.2 48.3 106.9 50.0 106.4 C 51.3 105.0 47.6 104.3 50.3 104.9 C 52.6 103.7 49.4 104.1 52.0 103.9 C 50.2 103.5 53.1 102.5 51.3 101.9 C 53.8 98.5 52.5 103.5 53.3 100.4 C 52.7 101.1 54.8 102.3 54.7 99.9 C 52.0 98.7 58.2 99.7 54.4 98.3 C 57.3 93.1 56.3 98.5 58.3 96.1 C 58.8 95.4 56.8 96.0 57.2 95.4 C 60.2 92.5 58.8 95.8 58.7 92.9 C 61.0 89.4 60.7 93.0 62.1 91.5 C 61.5 90.8 61.4 88.6 63.2 89.6 M 60.1 91.8 C 60.1 92.9 59.3 91.9 60.1 91.8 M 66.0 86.0 C 65.9 87.0 65.2 86.0 66.0 86.0 M 58.4 94.8 C 58.2 96.1 57.4 94.5 58.4 94.8 M 43.9 111.4 C 44.8 110.2 43.8 112.3 43.9 111.4 M 64.0 88.6 C 63.8 90.0 63.0 88.2 64.0 88.6 M 63.8 86.5 C 63.8 86.6 63.8 86.6 63.8 86.5 M 43.7 114.1 C 43.6 114.1 43.6 114.1 43.7 114.1 M 47.4 109.5 C 46.6 110.4 47.6 108.7 47.4 109.5 M 42.7 105.4 C 41.8 106.3 42.8 104.6 42.7 105.4 M 41.7 116.6 C 41.3 117.9 40.9 116.5 41.7 116.6 M 38.6 118.3 C 38.3 119.6 37.6 118.5 38.6 118.3 M 58.9 89.9 C 58.9 89.8 58.9 89.8 58.9 89.9 C 58.9 89.9 58.9 89.9 58.9 89.9 Z M 50.9 97.3 C 52.2 96.7 49.3 98.1 50.9 97.3 M 55.3 98.4 C 53.8 98.2 56.5 97.1 55.3 98.4 C 55.3 98.4 55.3 98.4 55.3 98.4 Z M 56.1 96.5 C 56.0 96.5 56.0 96.5 56.1 96.5 C 56.1 96.5 56.1 96.5 56.1 96.5 Z M 52.2 101.2 C 52.2 101.2 52.2 101.2 52.2 101.2 C 52.2 101.2 52.2 101.2 52.2 101.2 Z M 52.9 100.2 C 53.0 99.6 53.5 99.8 52.9 100.2 C 52.9 100.2 52.9 100.2 52.9 100.2 Z M 44.1 104.6 C 44.3 104.0 44.8 104.2 44.1 104.6 C 44.1 104.6 44.1 104.6 44.1 104.6 Z M 53.7 98.4 C 52.9 97.5 54.9 98.3 53.7 98.4 C 53.7 98.4 53.7 98.4 53.7 98.4 Z M 47.3 101.6 C 47.2 102.3 45.6 101.8 47.3 101.6 M 42.7 114.9 C 42.7 115.5 41.1 115.0 42.7 114.9 M 51.1 105.0 C 51.1 105.7 49.5 105.2 51.1 105.0 M 60.1 92.7 C 59.9 92.8 59.9 92.8 60.1 92.7 M 51.3 94.9 C 51.2 95.8 50.6 94.8 51.3 94.9 M 59.3 85.6 C 59.1 86.6 58.6 85.6 59.3 85.6 M 39.3 109.8 C 39.6 109.9 38.3 110.7 39.3 109.8 M 48.6 105.0 C 47.8 105.7 46.5 106.2 48.1 104.4 C 48.4 104.5 48.1 105.2 48.6 105.0 C 48.6 105.0 48.6 105.0 48.6 105.0 Z M 43.8 106.3 C 43.6 106.3 43.6 106.3 43.8 106.3 M 48.3 107.3 C 48.1 107.3 48.1 107.3 48.3 107.3 M 44.0 112.3 C 43.8 112.3 43.8 112.3 44.0 112.3 M 43.8 113.2 C 43.7 113.2 43.7 113.2 43.8 113.2 C 43.8 113.2 43.8 113.2 43.8 113.2 Z M 39.6 119.2 C 39.6 119.1 39.6 119.1 39.6 119.2 C 39.6 119.2 39.6 119.2 39.6 119.2 Z M 45.2 110.6 C 45.2 110.5 45.2 110.5 45.2 110.6 C 45.2 110.6 45.2 110.6 45.2 110.6 Z M 37.6 112.2 C 37.6 112.2 37.6 112.2 37.6 112.2 C 37.6 112.2 37.6 112.2 37.6 112.2 Z M 38.7 112.1 C 38.7 112.1 38.7 112.1 38.7 112.1 C 38.7 112.1 38.7 112.1 38.7 112.1 Z M 62.8 90.0 C 62.8 91.4 60.7 89.1 62.8 90.0 M 36.7 114.6 C 35.4 114.8 37.6 113.2 36.7 114.6 C 36.7 114.6 36.7 114.6 36.7 114.6 Z M 44.9 109.3 C 44.7 109.3 44.7 109.3 44.9 109.3 M 43.4 113.5 C 43.2 113.4 43.2 113.4 43.4 113.5 M 56.3 99.1 C 56.1 99.0 56.1 99.0 56.3 99.1 M 40.0 117.3 C 37.8 119.5 39.5 115.0 40.0 117.3 M 56.2 97.2 C 56.3 97.2 56.3 97.2 56.2 97.2 M 50.0 101.1 C 48.8 102.8 49.9 100.1 50.0 101.1 M 47.9 106.2 C 47.9 106.1 47.9 106.1 47.9 106.2 C 47.9 106.2 47.9 106.2 47.9 106.2 Z M 49.9 103.8 C 50.7 102.6 50.4 103.8 49.9 103.8 C 49.9 103.8 49.9 103.8 49.9 103.8 Z M 61.0 90.4 C 59.6 91.8 61.9 88.6 61.0 90.4 C 61.0 90.4 61.0 90.4 61.0 90.4 Z M 38.6 114.3 C 38.6 114.2 38.6 114.2 38.6 114.3 C 38.6 114.3 38.6 114.3 38.6 114.3 Z M 46.1 110.9 C 46.4 109.9 46.7 110.8 46.1 110.9 C 46.1 110.9 46.1 110.9 46.1 110.9 Z M 38.9 120.0 C 39.2 119.1 39.5 119.9 38.9 120.0 C 38.9 120.0 38.9 120.0 38.9 120.0 Z M 62.6 88.7 C 56.4 93.0 69.0 81.6 62.6 88.7 C 62.6 88.7 62.6 88.7 62.6 88.7 Z M 49.8 105.3 C 49.7 105.3 49.7 105.3 49.8 105.3 C 49.8 105.3 49.8 105.3 49.8 105.3 Z M 58.8 95.6 C 58.7 95.5 58.7 95.5 58.8 95.6 C 58.8 95.6 58.8 95.6 58.8 95.6 Z M 59.3 93.1 C 59.2 93.0 59.2 93.0 59.3 93.1 C 59.3 93.1 59.3 93.1 59.3 93.1 Z M 55.0 90.5 C 55.0 90.4 55.0 90.4 55.0 90.5 C 55.0 90.5 55.0 90.5 55.0 90.5 Z M 56.3 92.5 C 56.2 92.3 56.2 92.3 56.3 92.5 C 56.3 92.5 56.3 92.5 56.3 92.5 Z M 58.5 88.4 C 58.5 88.3 58.5 88.3 58.5 88.4 C 58.5 88.4 58.5 88.4 58.5 88.4 Z M 58.0 88.0 C 57.9 88.0 57.9 88.0 58.0 88.0 C 58.0 88.0 58.0 88.0 58.0 88.0 Z M 42.3 112.6 C 42.3 112.5 42.3 112.5 42.3 112.6 C 42.3 112.6 42.3 112.6 42.3 112.6 Z M 42.2 109.4 C 41.8 111.1 41.7 108.3 42.2 109.4 C 42.2 109.4 42.2 109.4 42.2 109.4 Z M 52.3 98.5 C 51.6 99.8 52.5 97.3 52.3 98.5 C 52.3 98.5 52.3 98.5 52.3 98.5 Z M 49.2 98.1 C 49.2 98.1 49.2 98.1 49.2 98.1 C 49.2 98.1 49.2 98.1 49.2 98.1 Z M 60.2 93.9 C 60.1 93.8 60.1 93.8 60.2 93.9 C 60.2 93.9 60.2 93.9 60.2 93.9 Z M 61.3 91.2 C 60.6 90.4 62.3 90.8 61.3 91.2 M 52.9 102.6 C 52.8 102.5 52.8 102.5 52.9 102.6 C 52.9 102.6 52.9 102.6 52.9 102.6 Z M 45.9 108.5 C 45.9 108.5 45.9 108.5 45.9 108.5 C 45.9 108.5 45.9 108.5 45.9 108.5 Z M 40.9 115.9 C 40.8 115.8 40.8 115.8 40.9 115.9 C 40.9 115.9 40.9 115.9 40.9 115.9 Z M 49.2 106.8 C 49.2 106.7 49.2 106.7 49.2 106.8 C 49.2 106.8 49.2 106.8 49.2 106.8 Z M 51.2 102.9 C 51.1 102.8 51.1 102.8 51.2 102.9 C 51.2 102.9 51.2 102.9 51.2 102.9 Z M 38.5 116.5 C 38.5 116.4 38.5 116.4 38.5 116.5 C 38.5 116.5 38.5 116.5 38.5 116.5 Z M 48.7 107.7 C 48.7 107.7 48.7 107.7 48.7 107.7 C 48.7 107.7 48.7 107.7 48.7 107.7 Z M 44.5 107.6 C 44.5 107.5 44.5 107.5 44.5 107.6 C 44.5 107.6 44.5 107.6 44.5 107.6 Z M 62.2 92.4 C 62.2 92.3 62.2 92.3 62.2 92.4 C 62.2 92.4 62.2 92.4 62.2 92.4 Z M 39.5 117.4 C 39.5 117.4 39.5 117.4 39.5 117.4 C 39.5 117.4 39.5 117.4 39.5 117.4 Z M 39.9 118.4 C 39.9 118.4 39.9 118.4 39.9 118.4 C 39.9 118.4 39.9 118.4 39.9 118.4 Z M 40.0 110.4 C 42.4 108.3 38.4 112.7 40.7 111.7 C 38.1 115.4 39.5 110.9 40.0 110.4 C 40.0 110.4 40.0 110.4 40.0 110.4 Z M 40.0 110.4 " fill="#71AFE1"></path></g></g></g></svg>