<?xml version="1.0" encoding="UTF-8" standalone="no"?><svg xmlns="http://www.w3.org/2000/svg" xmlns:xlink="http://www.w3.org/1999/xlink" clip-rule="evenodd" stroke-miterlimit="4.00" viewBox="0 0 419 171"><desc>SVG generated by Keynote</desc><defs></defs><g transform="matrix(1.00, 0.00, -0.00, -1.00, 0.0, 171.0)"><text xml:space="preserve" font-family="Chalkduster" font-size="30.0" fill="#FEFFFE" transform="matrix(1.00, 0.00, -0.00, -1.00, 144.0, 140.0)">f</text><text xml:space="preserve" font-family="Chalkduster" font-size="30.0" fill="#FEFFFE" transform="matrix(1.00, 0.00, -0.00, -1.00, 160.0, 140.0)">i</text><text xml:space="preserve" font-family="Chalkduster" font-size="30.0" fill="#FEFFFE" transform="matrix(1.00, 0.00, -0.00, -1.00, 172.1, 140.0)">l</text><text xml:space="preserve" font-family="Chalkduster" font-size="30.0" fill="#FEFFFE" transform="matrix(1.00, 0.00, -0.00, -1.00, 184.6, 140.0)">e</text><text xml:space="preserve" font-family="Chalkduster" font-size="30.0" fill="#FEFFFE" transform="matrix(1.00, 0.00, -0.00, -1.00, 203.2, 140.0)"> </text><text xml:space="preserve" font-family="Chalkduster" font-size="30.0" fill="#FEFFFE" transform="matrix(1.00, 0.00, -0.00, -1.00, 218.1, 140.0)">p</text><text xml:space="preserve" font-family="Chalkduster" font-size="30.0" fill="#FEFFFE" transform="matrix(1.00, 0.00, -0.00, -1.00, 236.6, 140.0)">a</text><text xml:space="preserve" font-family="Chalkduster" font-size="30.0" fill="#FEFFFE" transform="matrix(1.00, 0.00, -0.00, -1.00, 255.2, 140.0)">t</text><text xml:space="preserve" font-family="Chalkduster" font-size="30.0" fill="#FEFFFE" transform="matrix(1.00, 0.00, -0.00, -1.00, 269.6, 140.0)">h</text><text xml:space="preserve" font-family="Chalkduster" font-size="30.0" fill="#FEFFFE" transform="matrix(1.00, 0.00, -0.00, -1.00, 288.1, 140.0)"> </text><text xml:space="preserve" font-family="CourierNewPSMT" font-size="24.0" fill="#FEFFFE" transform="matrix(1.00, 0.00, -0.00, -1.00, -1.0, 112.0)">.</text><text xml:space="preserve" font-family="CourierNewPSMT" font-size="24.0" fill="#FEFFFE" transform="matrix(1.00, 0.00, -0.00, -1.00, 13.4, 112.0)">/</text><text xml:space="preserve" font-family="CourierNewPSMT" font-size="24.0" fill="#FEFFFE" transform="matrix(1.00, 0.00, -0.00, -1.00, 27.8, 112.0)">s</text><text xml:space="preserve" font-family="CourierNewPSMT" font-size="24.0" fill="#FEFFFE" transform="matrix(1.00, 0.00, -0.00, -1.00, 42.2, 112.0)">o</text><text xml:space="preserve" font-family="CourierNewPSMT" font-size="24.0" fill="#FEFFFE" transform="matrix(1.00, 0.00, -0.00, -1.00, 56.6, 112.0)">m</text><text xml:space="preserve" font-family="CourierNewPSMT" font-size="24.0" fill="#FEFFFE" transform="matrix(1.00, 0.00, -0.00, -1.00, 71.0, 112.0)">e</text><text xml:space="preserve" font-family="CourierNewPSMT" font-size="24.0" fill="#FEFFFE" transform="matrix(1.00, 0.00, -0.00, -1.00, 85.4, 112.0)">/</text><text xml:space="preserve" font-family="CourierNewPSMT" font-size="24.0" fill="#FEFFFE" transform="matrix(1.00, 0.00, -0.00, -1.00, 99.8, 112.0)">f</text><text xml:space="preserve" font-family="CourierNewPSMT" font-size="24.0" fill="#FEFFFE" transform="matrix(1.00, 0.00, -0.00, -1.00, 114.2, 112.0)">o</text><text xml:space="preserve" font-family="CourierNewPSMT" font-size="24.0" fill="#FEFFFE" transform="matrix(1.00, 0.00, -0.00, -1.00, 128.6, 112.0)">l</text><text xml:space="preserve" font-family="CourierNewPSMT" font-size="24.0" fill="#FEFFFE" transform="matrix(1.00, 0.00, -0.00, -1.00, 143.0, 112.0)">d</text><text xml:space="preserve" font-family="CourierNewPSMT" font-size="24.0" fill="#FEFFFE" transform="matrix(1.00, 0.00, -0.00, -1.00, 157.5, 112.0)">e</text><text xml:space="preserve" font-family="CourierNewPSMT" font-size="24.0" fill="#FEFFFE" transform="matrix(1.00, 0.00, -0.00, -1.00, 171.9, 112.0)">r</text><text xml:space="preserve" font-family="CourierNewPSMT" font-size="24.0" fill="#FEFFFE" transform="matrix(1.00, 0.00, -0.00, -1.00, 186.3, 112.0)">/</text><text xml:space="preserve" font-family="CourierNewPSMT" font-size="24.0" fill="#FEFFFE" transform="matrix(1.00, 0.00, -0.00, -1.00, 200.7, 112.0)">t</text><text xml:space="preserve" font-family="CourierNewPSMT" font-size="24.0" fill="#FEFFFE" transform="matrix(1.00, 0.00, -0.00, -1.00, 215.1, 112.0)">o</text><text xml:space="preserve" font-family="CourierNewPSMT" font-size="24.0" fill="#FEFFFE" transform="matrix(1.00, 0.00, -0.00, -1.00, 229.5, 112.0)">/</text><text xml:space="preserve" font-family="CourierNewPSMT" font-size="24.0" fill="#FEFFFE" transform="matrix(1.00, 0.00, -0.00, -1.00, 243.9, 112.0)">f</text><text xml:space="preserve" font-family="CourierNewPSMT" font-size="24.0" fill="#FEFFFE" transform="matrix(1.00, 0.00, -0.00, -1.00, 258.3, 112.0)">i</text><text xml:space="preserve" font-family="CourierNewPSMT" font-size="24.0" fill="#FEFFFE" transform="matrix(1.00, 0.00, -0.00, -1.00, 272.7, 112.0)">l</text><text xml:space="preserve" font-family="CourierNewPSMT" font-size="24.0" fill="#FEFFFE" transform="matrix(1.00, 0.00, -0.00, -1.00, 287.1, 112.0)">e</text><text xml:space="preserve" font-family="CourierNewPSMT" font-size="24.0" fill="#FEFFFE" transform="matrix(1.00, 0.00, -0.00, -1.00, 301.5, 112.0)">/</text><text xml:space="preserve" font-family="CourierNewPSMT" font-size="24.0" fill="#FEFFFE" transform="matrix(1.00, 0.00, -0.00, -1.00, 315.9, 112.0)">n</text><text xml:space="preserve" font-family="CourierNewPSMT" font-size="24.0" fill="#FEFFFE" transform="matrix(1.00, 0.00, -0.00, -1.00, 330.3, 112.0)">a</text><text xml:space="preserve" font-family="CourierNewPSMT" font-size="24.0" fill="#FEFFFE" transform="matrix(1.00, 0.00, -0.00, -1.00, 344.7, 112.0)">m</text><text xml:space="preserve" font-family="CourierNewPSMT" font-size="24.0" fill="#FEFFFE" transform="matrix(1.00, 0.00, -0.00, -1.00, 359.1, 112.0)">e</text><text xml:space="preserve" font-family="CourierNewPSMT" font-size="24.0" fill="#FEFFFE" transform="matrix(1.00, 0.00, -0.00, -1.00, 373.5, 112.0)"> </text><text xml:space="preserve" font-family="CourierNewPSMT" font-size="24.0" fill="#FEFFFE" transform="matrix(1.00, 0.00, -0.00, -1.00, -1.0, 85.0)">s</text><text xml:space="preserve" font-family="CourierNewPSMT" font-size="24.0" fill="#FEFFFE" transform="matrix(1.00, 0.00, -0.00, -1.00, 13.4, 85.0)">o</text><text xml:space="preserve" font-family="CourierNewPSMT" font-size="24.0" fill="#FEFFFE" transform="matrix(1.00, 0.00, -0.00, -1.00, 27.8, 85.0)">m</text><text xml:space="preserve" font-family="CourierNewPSMT" font-size="24.0" fill="#FEFFFE" transform="matrix(1.00, 0.00, -0.00, -1.00, 42.2, 85.0)">e</text><text xml:space="preserve" font-family="CourierNewPSMT" font-size="24.0" fill="#FEFFFE" transform="matrix(1.00, 0.00, -0.00, -1.00, 56.6, 85.0)">/</text><text xml:space="preserve" font-family="CourierNewPSMT" font-size="24.0" fill="#FEFFFE" transform="matrix(1.00, 0.00, -0.00, -1.00, 71.0, 85.0)">f</text><text xml:space="preserve" font-family="CourierNewPSMT" font-size="24.0" fill="#FEFFFE" transform="matrix(1.00, 0.00, -0.00, -1.00, 85.4, 85.0)">o</text><text xml:space="preserve" font-family="CourierNewPSMT" font-size="24.0" fill="#FEFFFE" transform="matrix(1.00, 0.00, -0.00, -1.00, 99.8, 85.0)">l</text><text xml:space="preserve" font-family="CourierNewPSMT" font-size="24.0" fill="#FEFFFE" transform="matrix(1.00, 0.00, -0.00, -1.00, 114.2, 85.0)">d</text><text xml:space="preserve" font-family="CourierNewPSMT" font-size="24.0" fill="#FEFFFE" transform="matrix(1.00, 0.00, -0.00, -1.00, 128.6, 85.0)">e</text><text xml:space="preserve" font-family="CourierNewPSMT" font-size="24.0" fill="#FEFFFE" transform="matrix(1.00, 0.00, -0.00, -1.00, 143.0, 85.0)">r</text><text xml:space="preserve" font-family="CourierNewPSMT" font-size="24.0" fill="#FEFFFE" transform="matrix(1.00, 0.00, -0.00, -1.00, 157.5, 85.0)">/</text><text xml:space="preserve" font-family="CourierNewPSMT" font-size="24.0" fill="#FEFFFE" transform="matrix(1.00, 0.00, -0.00, -1.00, 171.9, 85.0)">t</text><text xml:space="preserve" font-family="CourierNewPSMT" font-size="24.0" fill="#FEFFFE" transform="matrix(1.00, 0.00, -0.00, -1.00, 186.3, 85.0)">o</text><text xml:space="preserve" font-family="CourierNewPSMT" font-size="24.0" fill="#FEFFFE" transform="matrix(1.00, 0.00, -0.00, -1.00, 200.7, 85.0)">/</text><text xml:space="preserve" font-family="CourierNewPSMT" font-size="24.0" fill="#FEFFFE" transform="matrix(1.00, 0.00, -0.00, -1.00, 215.1, 85.0)">f</text><text xml:space="preserve" font-family="CourierNewPSMT" font-size="24.0" fill="#FEFFFE" transform="matrix(1.00, 0.00, -0.00, -1.00, 229.5, 85.0)">i</text><text xml:space="preserve" font-family="CourierNewPSMT" font-size="24.0" fill="#FEFFFE" transform="matrix(1.00, 0.00, -0.00, -1.00, 243.9, 85.0)">l</text><text xml:space="preserve" font-family="CourierNewPSMT" font-size="24.0" fill="#FEFFFE" transform="matrix(1.00, 0.00, -0.00, -1.00, 258.3, 85.0)">e</text><text xml:space="preserve" font-family="CourierNewPSMT" font-size="24.0" fill="#FEFFFE" transform="matrix(1.00, 0.00, -0.00, -1.00, 272.7, 85.0)">/</text><text xml:space="preserve" font-family="CourierNewPSMT" font-size="24.0" fill="#FEFFFE" transform="matrix(1.00, 0.00, -0.00, -1.00, 287.1, 85.0)">n</text><text xml:space="preserve" font-family="CourierNewPSMT" font-size="24.0" fill="#FEFFFE" transform="matrix(1.00, 0.00, -0.00, -1.00, 301.5, 85.0)">a</text><text xml:space="preserve" font-family="CourierNewPSMT" font-size="24.0" fill="#FEFFFE" transform="matrix(1.00, 0.00, -0.00, -1.00, 315.9, 85.0)">m</text><text xml:space="preserve" font-family="CourierNewPSMT" font-size="24.0" fill="#FEFFFE" transform="matrix(1.00, 0.00, -0.00, -1.00, 330.3, 85.0)">e</text><text xml:space="preserve" font-family="CourierNewPSMT" font-size="24.0" fill="#FEFFFE" transform="matrix(1.00, 0.00, -0.00, -1.00, 344.7, 85.0)"> </text><text xml:space="preserve" font-family="CourierNewPSMT" font-size="24.0" fill="#FEFFFE" transform="matrix(1.00, 0.00, -0.00, -1.00, -1.0, 58.0)">/</text><text xml:space="preserve" font-family="CourierNewPSMT" font-size="24.0" fill="#FEFFFE" transform="matrix(1.00, 0.00, -0.00, -1.00, 13.4, 58.0)">a</text><text xml:space="preserve" font-family="CourierNewPSMT" font-size="24.0" fill="#FEFFFE" transform="matrix(1.00, 0.00, -0.00, -1.00, 27.8, 58.0)">b</text><text xml:space="preserve" font-family="CourierNewPSMT" font-size="24.0" fill="#FEFFFE" transform="matrix(1.00, 0.00, -0.00, -1.00, 42.2, 58.0)">s</text><text xml:space="preserve" font-family="CourierNewPSMT" font-size="24.0" fill="#FEFFFE" transform="matrix(1.00, 0.00, -0.00, -1.00, 56.6, 58.0)">o</text><text xml:space="preserve" font-family="CourierNewPSMT" font-size="24.0" fill="#FEFFFE" transform="matrix(1.00, 0.00, -0.00, -1.00, 71.0, 58.0)">l</text><text xml:space="preserve" font-family="CourierNewPSMT" font-size="24.0" fill="#FEFFFE" transform="matrix(1.00, 0.00, -0.00, -1.00, 85.4, 58.0)">u</text><text xml:space="preserve" font-family="CourierNewPSMT" font-size="24.0" fill="#FEFFFE" transform="matrix(1.00, 0.00, -0.00, -1.00, 99.8, 58.0)">t</text><text xml:space="preserve" font-family="CourierNewPSMT" font-size="24.0" fill="#FEFFFE" transform="matrix(1.00, 0.00, -0.00, -1.00, 114.2, 58.0)">e</text><text xml:space="preserve" font-family="CourierNewPSMT" font-size="24.0" fill="#FEFFFE" transform="matrix(1.00, 0.00, -0.00, -1.00, 128.6, 58.0)">/</text><text xml:space="preserve" font-family="CourierNewPSMT" font-size="24.0" fill="#FEFFFE" transform="matrix(1.00, 0.00, -0.00, -1.00, 143.0, 58.0)">p</text><text xml:space="preserve" font-family="CourierNewPSMT" font-size="24.0" fill="#FEFFFE" transform="matrix(1.00, 0.00, -0.00, -1.00, 157.5, 58.0)">a</text><text xml:space="preserve" font-family="CourierNewPSMT" font-size="24.0" fill="#FEFFFE" transform="matrix(1.00, 0.00, -0.00, -1.00, 171.9, 58.0)">t</text><text xml:space="preserve" font-family="CourierNewPSMT" font-size="24.0" fill="#FEFFFE" transform="matrix(1.00, 0.00, -0.00, -1.00, 186.3, 58.0)">h</text><text xml:space="preserve" font-family="CourierNewPSMT" font-size="24.0" fill="#FEFFFE" transform="matrix(1.00, 0.00, -0.00, -1.00, 200.7, 58.0)">/</text><text xml:space="preserve" font-family="CourierNewPSMT" font-size="24.0" fill="#FEFFFE" transform="matrix(1.00, 0.00, -0.00, -1.00, 215.1, 58.0)">t</text><text xml:space="preserve" font-family="CourierNewPSMT" font-size="24.0" fill="#FEFFFE" transform="matrix(1.00, 0.00, -0.00, -1.00, 229.5, 58.0)">o</text><text xml:space="preserve" font-family="CourierNewPSMT" font-size="24.0" fill="#FEFFFE" transform="matrix(1.00, 0.00, -0.00, -1.00, 243.9, 58.0)">/</text><text xml:space="preserve" font-family="CourierNewPSMT" font-size="24.0" fill="#FEFFFE" transform="matrix(1.00, 0.00, -0.00, -1.00, 258.3, 58.0)">f</text><text xml:space="preserve" font-family="CourierNewPSMT" font-size="24.0" fill="#FEFFFE" transform="matrix(1.00, 0.00, -0.00, -1.00, 272.7, 58.0)">i</text><text xml:space="preserve" font-family="CourierNewPSMT" font-size="24.0" fill="#FEFFFE" transform="matrix(1.00, 0.00, -0.00, -1.00, 287.1, 58.0)">l</text><text xml:space="preserve" font-family="CourierNewPSMT" font-size="24.0" fill="#FEFFFE" transform="matrix(1.00, 0.00, -0.00, -1.00, 301.5, 58.0)">e</text><text xml:space="preserve" font-family="CourierNewPSMT" font-size="24.0" fill="#FEFFFE" transform="matrix(1.00, 0.00, -0.00, -1.00, 315.9, 58.0)">/</text><text xml:space="preserve" font-family="CourierNewPSMT" font-size="24.0" fill="#FEFFFE" transform="matrix(1.00, 0.00, -0.00, -1.00, 330.3, 58.0)">n</text><text xml:space="preserve" font-family="CourierNewPSMT" font-size="24.0" fill="#FEFFFE" transform="matrix(1.00, 0.00, -0.00, -1.00, 344.7, 58.0)">a</text><text xml:space="preserve" font-family="CourierNewPSMT" font-size="24.0" fill="#FEFFFE" transform="matrix(1.00, 0.00, -0.00, -1.00, 359.1, 58.0)">m</text><text xml:space="preserve" font-family="CourierNewPSMT" font-size="24.0" fill="#FEFFFE" transform="matrix(1.00, 0.00, -0.00, -1.00, 373.5, 58.0)">e</text><text xml:space="preserve" font-family="CourierNewPSMT" font-size="24.0" fill="#FEFFFE" transform="matrix(1.00, 0.00, -0.00, -1.00, 387.9, 58.0)"> </text><text xml:space="preserve" font-family="CourierNewPSMT" font-size="24.0" fill="#FEFFFE" transform="matrix(1.00, 0.00, -0.00, -1.00, -1.0, 31.0)">.</text><text xml:space="preserve" font-family="CourierNewPSMT" font-size="24.0" fill="#FEFFFE" transform="matrix(1.00, 0.00, -0.00, -1.00, 13.4, 31.0)">.</text><text xml:space="preserve" font-family="CourierNewPSMT" font-size="24.0" fill="#FEFFFE" transform="matrix(1.00, 0.00, -0.00, -1.00, 27.8, 31.0)">/</text><text xml:space="preserve" font-family="CourierNewPSMT" font-size="24.0" fill="#FEFFFE" transform="matrix(1.00, 0.00, -0.00, -1.00, 42.2, 31.0)">p</text><text xml:space="preserve" font-family="CourierNewPSMT" font-size="24.0" fill="#FEFFFE" transform="matrix(1.00, 0.00, -0.00, -1.00, 56.6, 31.0)">a</text><text xml:space="preserve" font-family="CourierNewPSMT" font-size="24.0" fill="#FEFFFE" transform="matrix(1.00, 0.00, -0.00, -1.00, 71.0, 31.0)">r</text><text xml:space="preserve" font-family="CourierNewPSMT" font-size="24.0" fill="#FEFFFE" transform="matrix(1.00, 0.00, -0.00, -1.00, 85.4, 31.0)">e</text><text xml:space="preserve" font-family="CourierNewPSMT" font-size="24.0" fill="#FEFFFE" transform="matrix(1.00, 0.00, -0.00, -1.00, 99.8, 31.0)">n</text><text xml:space="preserve" font-family="CourierNewPSMT" font-size="24.0" fill="#FEFFFE" transform="matrix(1.00, 0.00, -0.00, -1.00, 114.2, 31.0)">t</text><text xml:space="preserve" font-family="CourierNewPSMT" font-size="24.0" fill="#FEFFFE" transform="matrix(1.00, 0.00, -0.00, -1.00, 128.6, 31.0)">/</text><text xml:space="preserve" font-family="CourierNewPSMT" font-size="24.0" fill="#FEFFFE" transform="matrix(1.00, 0.00, -0.00, -1.00, 143.0, 31.0)">s</text><text xml:space="preserve" font-family="CourierNewPSMT" font-size="24.0" fill="#FEFFFE" transform="matrix(1.00, 0.00, -0.00, -1.00, 157.5, 31.0)">e</text><text xml:space="preserve" font-family="CourierNewPSMT" font-size="24.0" fill="#FEFFFE" transform="matrix(1.00, 0.00, -0.00, -1.00, 171.9, 31.0)">a</text><text xml:space="preserve" font-family="CourierNewPSMT" font-size="24.0" fill="#FEFFFE" transform="matrix(1.00, 0.00, -0.00, -1.00, 186.3, 31.0)">r</text><text xml:space="preserve" font-family="CourierNewPSMT" font-size="24.0" fill="#FEFFFE" transform="matrix(1.00, 0.00, -0.00, -1.00, 200.7, 31.0)">c</text><text xml:space="preserve" font-family="CourierNewPSMT" font-size="24.0" fill="#FEFFFE" transform="matrix(1.00, 0.00, -0.00, -1.00, 215.1, 31.0)">h</text><text xml:space="preserve" font-family="CourierNewPSMT" font-size="24.0" fill="#FEFFFE" transform="matrix(1.00, 0.00, -0.00, -1.00, 229.5, 31.0)">/</text><text xml:space="preserve" font-family="CourierNewPSMT" font-size="24.0" fill="#FEFFFE" transform="matrix(1.00, 0.00, -0.00, -1.00, 243.9, 31.0)">t</text><text xml:space="preserve" font-family="CourierNewPSMT" font-size="24.0" fill="#FEFFFE" transform="matrix(1.00, 0.00, -0.00, -1.00, 258.3, 31.0)">o</text><text xml:space="preserve" font-family="CourierNewPSMT" font-size="24.0" fill="#FEFFFE" transform="matrix(1.00, 0.00, -0.00, -1.00, 272.7, 31.0)">/</text><text xml:space="preserve" font-family="CourierNewPSMT" font-size="24.0" fill="#FEFFFE" transform="matrix(1.00, 0.00, -0.00, -1.00, 287.1, 31.0)">f</text><text xml:space="preserve" font-family="CourierNewPSMT" font-size="24.0" fill="#FEFFFE" transform="matrix(1.00, 0.00, -0.00, -1.00, 301.5, 31.0)">i</text><text xml:space="preserve" font-family="CourierNewPSMT" font-size="24.0" fill="#FEFFFE" transform="matrix(1.00, 0.00, -0.00, -1.00, 315.9, 31.0)">l</text><text xml:space="preserve" font-family="CourierNewPSMT" font-size="24.0" fill="#FEFFFE" transform="matrix(1.00, 0.00, -0.00, -1.00, 330.3, 31.0)">e</text><text xml:space="preserve" font-family="CourierNewPSMT" font-size="24.0" fill="#FEFFFE" transform="matrix(1.00, 0.00, -0.00, -1.00, 344.7, 31.0)">/</text><text xml:space="preserve" font-family="CourierNewPSMT" font-size="24.0" fill="#FEFFFE" transform="matrix(1.00, 0.00, -0.00, -1.00, 359.1, 31.0)">n</text><text xml:space="preserve" font-family="CourierNewPSMT" font-size="24.0" fill="#FEFFFE" transform="matrix(1.00, 0.00, -0.00, -1.00, 373.5, 31.0)">a</text><text xml:space="preserve" font-family="CourierNewPSMT" font-size="24.0" fill="#FEFFFE" transform="matrix(1.00, 0.00, -0.00, -1.00, 387.9, 31.0)">m</text><text xml:space="preserve" font-family="CourierNewPSMT" font-size="24.0" fill="#FEFFFE" transform="matrix(1.00, 0.00, -0.00, -1.00, 402.3, 31.0)">e</text><text xml:space="preserve" font-family="CourierNewPSMT" font-size="24.0" fill="#FEFFFE" transform="matrix(1.00, 0.00, -0.00, -1.00, 416.7, 31.0)"> </text><text xml:space="preserve" font-family="CourierNewPSMT" font-size="24.0" fill="#FEFFFE" transform="matrix(1.00, 0.00, -0.00, -1.00, -1.0, 4.0)">.</text><text xml:space="preserve" font-family="CourierNewPSMT" font-size="24.0" fill="#FEFFFE" transform="matrix(1.00, 0.00, -0.00, -1.00, 13.4, 4.0)">.</text><text xml:space="preserve" font-family="CourierNewPSMT" font-size="24.0" fill="#FEFFFE" transform="matrix(1.00, 0.00, -0.00, -1.00, 27.8, 4.0)">/</text><text xml:space="preserve" font-family="CourierNewPSMT" font-size="24.0" fill="#FEFFFE" transform="matrix(1.00, 0.00, -0.00, -1.00, 42.2, 4.0)">.</text><text xml:space="preserve" font-family="CourierNewPSMT" font-size="24.0" fill="#FEFFFE" transform="matrix(1.00, 0.00, -0.00, -1.00, 56.6, 4.0)">.</text><text xml:space="preserve" font-family="CourierNewPSMT" font-size="24.0" fill="#FEFFFE" transform="matrix(1.00, 0.00, -0.00, -1.00, 71.0, 4.0)">/</text><text xml:space="preserve" font-family="CourierNewPSMT" font-size="24.0" fill="#FEFFFE" transform="matrix(1.00, 0.00, -0.00, -1.00, 85.4, 4.0)">.</text><text xml:space="preserve" font-family="CourierNewPSMT" font-size="24.0" fill="#FEFFFE" transform="matrix(1.00, 0.00, -0.00, -1.00, 99.8, 4.0)">.</text><text xml:space="preserve" font-family="CourierNewPSMT" font-size="24.0" fill="#FEFFFE" transform="matrix(1.00, 0.00, -0.00, -1.00, 114.2, 4.0)">/</text><text xml:space="preserve" font-family="CourierNewPSMT" font-size="24.0" fill="#FEFFFE" transform="matrix(1.00, 0.00, -0.00, -1.00, 128.6, 4.0)">b</text><text xml:space="preserve" font-family="CourierNewPSMT" font-size="24.0" fill="#FEFFFE" transform="matrix(1.00, 0.00, -0.00, -1.00, 143.0, 4.0)">l</text><text xml:space="preserve" font-family="CourierNewPSMT" font-size="24.0" fill="#FEFFFE" transform="matrix(1.00, 0.00, -0.00, -1.00, 157.5, 4.0)">a</text><text xml:space="preserve" font-family="CourierNewPSMT" font-size="24.0" fill="#FEFFFE" transform="matrix(1.00, 0.00, -0.00, -1.00, 171.9, 4.0)">/</text><text xml:space="preserve" font-family="CourierNewPSMT" font-size="24.0" fill="#FEFFFE" transform="matrix(1.00, 0.00, -0.00, -1.00, 186.3, 4.0)">b</text><text xml:space="preserve" font-family="CourierNewPSMT" font-size="24.0" fill="#FEFFFE" transform="matrix(1.00, 0.00, -0.00, -1.00, 200.7, 4.0)">l</text><text xml:space="preserve" font-family="CourierNewPSMT" font-size="24.0" fill="#FEFFFE" transform="matrix(1.00, 0.00, -0.00, -1.00, 215.1, 4.0)">a</text><text xml:space="preserve" font-family="CourierNewPSMT" font-size="24.0" fill="#FEFFFE" transform="matrix(1.00, 0.00, -0.00, -1.00, 229.5, 4.0)">/</text><text xml:space="preserve" font-family="CourierNewPSMT" font-size="24.0" fill="#FEFFFE" transform="matrix(1.00, 0.00, -0.00, -1.00, 243.9, 4.0)">f</text><text xml:space="preserve" font-family="CourierNewPSMT" font-size="24.0" fill="#FEFFFE" transform="matrix(1.00, 0.00, -0.00, -1.00, 258.3, 4.0)">i</text><text xml:space="preserve" font-family="CourierNewPSMT" font-size="24.0" fill="#FEFFFE" transform="matrix(1.00, 0.00, -0.00, -1.00, 272.7, 4.0)">l</text><text xml:space="preserve" font-family="CourierNewPSMT" font-size="24.0" fill="#FEFFFE" transform="matrix(1.00, 0.00, -0.00, -1.00, 287.1, 4.0)">e</text><text xml:space="preserve" font-family="CourierNewPSMT" font-size="24.0" fill="#FEFFFE" transform="matrix(1.00, 0.00, -0.00, -1.00, 301.5, 4.0)">/</text><text xml:space="preserve" font-family="CourierNewPSMT" font-size="24.0" fill="#FEFFFE" transform="matrix(1.00, 0.00, -0.00, -1.00, 315.9, 4.0)">n</text><text xml:space="preserve" font-family="CourierNewPSMT" font-size="24.0" fill="#FEFFFE" transform="matrix(1.00, 0.00, -0.00, -1.00, 330.3, 4.0)">a</text><text xml:space="preserve" font-family="CourierNewPSMT" font-size="24.0" fill="#FEFFFE" transform="matrix(1.00, 0.00, -0.00, -1.00, 344.7, 4.0)">m</text><text xml:space="preserve" font-family="CourierNewPSMT" font-size="24.0" fill="#FEFFFE" transform="matrix(1.00, 0.00, -0.00, -1.00, 359.1, 4.0)">e</text></g></svg>