<?xml version="1.0" encoding="UTF-8" standalone="no"?><svg xmlns="http://www.w3.org/2000/svg" xmlns:xlink="http://www.w3.org/1999/xlink" clip-rule="evenodd" stroke-miterlimit="4.00" viewBox="0 0 396 126"><desc>SVG generated by Keynote</desc><defs></defs><g transform="matrix(1.00, 0.00, -0.00, -1.00, 0.0, 126.0)"><image xlink:href="ED6306E606C89525F147281FEF5C4D0D.png" width="393.00" height="123.00" transform="matrix(1.00, 0.00, -0.00, -1.00, 1.4, 124.9)" opacity="0.50"></image><path d="M 9.3 117.1 L 386.7 117.1 L 386.7 9.5 L 9.3 9.5 Z M 9.3 117.1 " fill="#DDF3D0"></path><path d="M 9.9 115.1 C 9.0 115.1 7.8 115.3 7.7 116.6 C 7.5 118.0 8.5 119.0 9.9 119.0 C 11.2 119.0 10.8 118.3 14.0 118.3 C 15.2 118.3 15.3 115.8 14.1 115.8 C 11.2 115.8 11.6 115.1 9.9 115.1 C 9.9 115.1 9.9 115.1 9.9 115.1 Z M 385.9 119.0 C 386.2 119.0 386.5 119.0 386.7 118.9 L 388.6 117.1 C 388.4 116.0 387.8 115.5 386.7 115.5 C 385.7 115.5 385.0 116.1 384.8 117.1 L 386.7 115.2 C 386.5 115.1 386.2 115.1 385.9 115.1 C 384.4 115.1 384.5 115.8 382.1 115.8 C 380.7 115.8 381.0 118.3 382.0 118.3 C 384.6 118.3 384.3 119.0 385.9 119.0 C 385.9 119.0 385.9 119.0 385.9 119.0 Z M 14.1 115.8 C 13.0 115.8 12.9 118.3 14.3 118.3 C 15.8 118.3 19.0 117.8 19.8 117.9 C 20.7 117.9 23.0 118.4 23.7 118.4 C 24.4 118.4 28.0 117.7 29.5 117.9 C 31.0 118.1 31.5 118.0 32.5 118.0 C 33.6 118.0 35.2 117.8 36.2 117.8 C 37.2 117.7 38.1 118.4 39.4 118.2 C 40.7 118.0 41.4 118.3 42.3 118.3 C 43.7 118.3 43.7 115.8 42.3 115.8 C 41.0 115.8 40.1 115.7 39.0 115.7 C 37.9 115.8 37.0 116.0 36.0 115.8 C 34.9 115.5 32.9 115.8 31.6 115.9 C 30.4 116.1 29.0 116.0 28.0 115.9 C 26.0 115.7 21.2 116.2 20.6 116.0 C 19.9 115.8 17.7 116.0 16.9 116.0 C 16.2 116.0 15.7 115.8 14.1 115.8 C 14.1 115.8 14.1 115.8 14.1 115.8 Z M 70.5 118.3 C 71.8 118.3 72.1 115.8 70.5 115.8 C 69.0 115.8 66.1 116.1 65.3 116.0 C 64.5 115.9 61.0 115.8 60.3 115.8 C 59.5 115.8 56.9 116.2 55.4 116.0 C 53.9 115.7 52.4 116.2 51.3 116.0 C 50.1 115.9 49.4 116.0 48.4 116.1 C 47.4 116.1 45.8 115.7 45.0 115.9 C 44.2 116.1 43.7 115.8 42.5 115.8 C 41.3 115.8 41.3 118.3 42.4 118.3 C 43.6 118.3 44.5 118.2 45.6 118.2 C 46.7 118.1 48.0 118.1 49.2 118.1 C 50.3 118.1 51.9 118.4 53.2 118.2 C 54.4 118.1 56.3 118.0 57.0 118.0 C 57.9 117.9 59.9 118.0 60.7 117.9 C 61.8 117.7 63.6 118.0 64.3 118.2 C 65.0 118.4 65.5 118.1 66.9 118.1 C 67.8 118.2 69.2 118.3 70.5 118.3 C 70.5 118.3 70.5 118.3 70.5 118.3 Z M 70.9 118.3 C 72.5 118.3 74.9 117.9 75.5 117.9 C 76.1 117.9 78.2 118.1 79.1 118.1 C 80.1 118.0 80.4 117.8 82.0 117.8 C 84.0 117.7 85.4 118.0 85.5 118.0 C 85.7 118.1 86.7 118.3 88.1 118.2 C 89.9 118.1 90.4 118.4 91.2 118.3 C 92.6 118.0 92.8 118.2 93.8 118.2 C 94.9 118.1 95.5 118.3 96.4 118.1 C 97.3 118.0 98.0 118.3 98.8 118.3 C 100.2 118.3 100.1 115.8 98.8 115.8 C 98.0 115.8 97.3 116.1 96.5 116.1 C 95.7 116.1 95.0 116.0 94.2 115.9 C 93.4 115.8 91.8 116.0 90.5 115.9 C 89.1 115.9 87.0 115.7 85.5 115.8 C 83.9 115.8 83.0 116.4 79.9 116.0 C 78.9 115.9 76.9 116.0 76.1 116.0 C 74.7 116.0 72.0 115.8 70.8 115.8 C 69.4 115.8 69.4 118.3 70.9 118.3 C 70.9 118.3 70.9 118.3 70.9 118.3 Z M 127.1 118.3 C 128.4 118.3 128.7 115.8 127.1 115.8 C 125.6 115.8 122.7 116.1 121.9 116.0 C 121.1 115.9 117.6 115.8 116.8 115.8 C 116.1 115.8 113.5 116.2 112.0 116.0 C 110.4 115.7 109.0 116.2 107.9 116.0 C 106.6 115.9 105.9 116.0 104.9 116.1 C 103.9 116.1 102.4 115.7 101.6 115.9 C 100.7 116.1 100.3 115.8 99.1 115.8 C 97.9 115.8 97.9 118.3 99.0 118.3 C 100.1 118.3 101.1 118.2 102.2 118.2 C 103.3 118.1 104.6 118.1 105.8 118.1 C 106.9 118.1 108.5 118.4 109.8 118.2 C 111.0 118.1 112.8 118.0 113.6 118.0 C 114.5 117.9 116.4 118.0 117.3 117.9 C 118.4 117.7 120.2 118.0 120.9 118.2 C 121.6 118.4 122.0 118.1 123.5 118.1 C 124.4 118.2 125.8 118.3 127.1 118.3 C 127.1 118.3 127.1 118.3 127.1 118.3 Z M 127.5 118.3 C 129.0 118.3 131.5 117.9 132.1 117.9 C 132.7 117.9 134.7 118.1 135.7 118.1 C 136.7 118.0 137.0 117.8 138.6 117.8 C 140.6 117.7 141.9 118.0 142.0 118.0 C 142.3 118.1 143.3 118.3 144.7 118.2 C 146.5 118.1 147.0 118.4 147.8 118.3 C 149.2 118.0 149.3 118.2 150.4 118.2 C 151.5 118.1 152.1 118.3 153.0 118.1 C 153.9 118.0 154.6 118.3 155.4 118.3 C 156.8 118.3 156.6 115.8 155.4 115.8 C 154.6 115.8 153.9 116.1 153.1 116.1 C 152.3 116.1 151.6 116.0 150.8 115.9 C 150.0 115.8 148.3 116.0 147.0 115.9 C 145.7 115.9 143.5 115.7 142.0 115.8 C 140.5 115.8 139.6 116.4 136.5 116.0 C 135.5 115.9 133.5 116.0 132.7 116.0 C 131.3 116.0 128.6 115.8 127.4 115.8 C 126.0 115.8 126.0 118.3 127.5 118.3 C 127.5 118.3 127.5 118.3 127.5 118.3 Z M 183.7 118.3 C 185.0 118.3 185.2 115.8 183.7 115.8 C 182.2 115.8 179.3 116.1 178.5 116.0 C 177.6 115.9 174.1 115.8 173.4 115.8 C 172.7 115.8 170.1 116.2 168.5 116.0 C 167.0 115.7 165.5 116.2 164.5 116.0 C 163.2 115.9 162.5 116.0 161.5 116.1 C 160.5 116.1 159.0 115.7 158.2 115.9 C 157.3 116.1 156.8 115.8 155.7 115.8 C 154.5 115.8 154.5 118.3 155.6 118.3 C 156.7 118.3 157.7 118.2 158.8 118.2 C 159.9 118.1 161.2 118.1 162.4 118.1 C 163.5 118.1 165.1 118.4 166.3 118.2 C 167.6 118.1 169.4 118.0 170.2 118.0 C 171.1 117.9 173.0 118.0 173.9 117.9 C 174.9 117.7 176.8 118.0 177.5 118.2 C 178.2 118.4 178.6 118.1 180.1 118.1 C 181.0 118.2 182.4 118.3 183.7 118.3 C 183.7 118.3 183.7 118.3 183.7 118.3 Z M 183.9 115.8 C 182.7 115.8 182.7 118.3 184.1 118.3 C 185.5 118.3 188.7 117.8 189.6 117.9 C 190.4 117.9 192.7 118.4 193.5 118.4 C 194.2 118.4 197.7 117.7 199.3 117.9 C 200.8 118.1 201.2 118.0 202.2 118.0 C 203.3 118.0 205.0 117.8 205.9 117.8 C 206.9 117.7 207.8 118.4 209.1 118.2 C 210.4 118.0 211.1 118.3 212.0 118.3 C 213.5 118.3 213.4 115.8 212.1 115.8 C 210.8 115.8 209.9 115.7 208.8 115.7 C 207.7 115.8 206.7 116.0 205.7 115.8 C 204.6 115.5 202.6 115.8 201.4 115.9 C 200.1 116.1 198.7 116.0 197.7 115.9 C 195.7 115.7 191.0 116.2 190.3 116.0 C 189.6 115.8 187.4 116.0 186.7 116.0 C 185.9 116.0 185.5 115.8 183.9 115.8 C 183.9 115.8 183.9 115.8 183.9 115.8 Z M 212.4 118.3 C 213.9 118.3 216.4 117.9 217.0 117.9 C 217.6 117.9 219.6 118.1 220.6 118.1 C 221.5 118.0 221.9 117.8 223.5 117.8 C 225.5 117.7 226.8 118.0 226.9 118.0 C 227.2 118.1 228.2 118.3 229.5 118.2 C 231.3 118.1 231.9 118.4 232.7 118.3 C 234.1 118.0 234.2 118.2 235.3 118.2 C 236.3 118.1 237.0 118.3 237.8 118.1 C 238.8 118.0 239.4 118.3 240.3 118.3 C 241.6 118.3 241.5 115.8 240.2 115.8 C 239.5 115.8 238.8 116.1 238.0 116.1 C 237.2 116.1 236.5 116.0 235.7 115.9 C 234.9 115.8 233.2 116.0 231.9 115.9 C 230.6 115.9 228.4 115.7 226.9 115.8 C 225.4 115.8 224.5 116.4 221.4 116.0 C 220.4 115.9 218.4 116.0 217.6 116.0 C 216.2 116.0 213.4 115.8 212.2 115.8 C 210.8 115.8 210.9 118.3 212.4 118.3 C 212.4 118.3 212.4 118.3 212.4 118.3 Z M 268.6 118.3 C 269.9 118.3 270.1 115.8 268.6 115.8 C 267.0 115.8 264.2 116.1 263.3 116.0 C 262.5 115.9 259.0 115.8 258.3 115.8 C 257.6 115.8 254.9 116.2 253.4 116.0 C 251.9 115.7 250.4 116.2 249.4 116.0 C 248.1 115.9 247.4 116.0 246.4 116.1 C 245.4 116.1 243.9 115.7 243.0 115.9 C 242.2 116.1 241.7 115.8 240.5 115.8 C 239.4 115.8 239.4 118.3 240.5 118.3 C 241.6 118.3 242.5 118.2 243.6 118.2 C 244.7 118.1 246.1 118.1 247.3 118.1 C 248.3 118.1 250.0 118.4 251.2 118.2 C 252.5 118.1 254.3 118.0 255.0 118.0 C 255.9 117.9 257.9 118.0 258.7 117.9 C 259.8 117.7 261.7 118.0 262.3 118.2 C 263.0 118.4 263.5 118.1 265.0 118.1 C 265.9 118.2 267.3 118.3 268.6 118.3 C 268.6 118.3 268.6 118.3 268.6 118.3 Z M 269.0 118.3 C 270.5 118.3 273.0 117.9 273.6 117.9 C 274.2 117.9 276.2 118.1 277.2 118.1 C 278.1 118.0 278.4 117.8 280.0 117.8 C 282.1 117.7 283.4 118.0 283.5 118.0 C 283.8 118.1 284.7 118.3 286.1 118.2 C 287.9 118.1 288.5 118.4 289.3 118.3 C 290.7 118.0 290.8 118.2 291.8 118.2 C 292.9 118.1 293.6 118.3 294.4 118.1 C 295.3 118.0 296.0 118.3 296.9 118.3 C 298.2 118.3 298.1 115.8 296.8 115.8 C 296.0 115.8 295.4 116.1 294.6 116.1 C 293.8 116.1 293.0 116.0 292.2 115.9 C 291.4 115.8 289.8 116.0 288.5 115.9 C 287.2 115.9 285.0 115.7 283.5 115.8 C 282.0 115.8 281.0 116.4 277.9 116.0 C 276.9 115.9 275.0 116.0 274.1 116.0 C 272.7 116.0 270.0 115.8 268.8 115.8 C 267.4 115.8 267.5 118.3 269.0 118.3 C 269.0 118.3 269.0 118.3 269.0 118.3 Z M 325.1 118.3 C 326.5 118.3 326.7 115.8 325.1 115.8 C 323.6 115.8 320.8 116.1 319.9 116.0 C 319.1 115.9 315.6 115.8 314.9 115.8 C 314.1 115.8 311.5 116.2 310.0 116.0 C 308.5 115.7 307.0 116.2 306.0 116.0 C 304.7 115.9 304.0 116.0 303.0 116.1 C 302.0 116.1 300.4 115.7 299.6 115.9 C 298.8 116.1 298.3 115.8 297.1 115.8 C 295.9 115.8 295.9 118.3 297.1 118.3 C 298.2 118.3 299.1 118.2 300.2 118.2 C 301.3 118.1 302.6 118.1 303.8 118.1 C 304.9 118.1 306.5 118.4 307.8 118.2 C 309.0 118.1 310.9 118.0 311.6 118.0 C 312.5 117.9 314.5 118.0 315.3 117.9 C 316.4 117.7 318.2 118.0 318.9 118.2 C 319.6 118.4 320.1 118.1 321.6 118.1 C 322.4 118.2 323.8 118.3 325.1 118.3 C 325.1 118.3 325.1 118.3 325.1 118.3 Z M 325.6 118.3 C 327.1 118.3 329.5 117.9 330.1 117.9 C 330.7 117.9 332.8 118.1 333.7 118.1 C 334.7 118.0 335.0 117.8 336.6 117.8 C 338.6 117.7 340.0 118.0 340.1 118.0 C 340.3 118.1 341.3 118.3 342.7 118.2 C 344.5 118.1 345.0 118.4 345.8 118.3 C 347.2 118.0 347.4 118.2 348.4 118.2 C 349.5 118.1 350.1 118.3 351.0 118.1 C 351.9 118.0 352.6 118.3 353.4 118.3 C 354.8 118.3 354.7 115.8 353.4 115.8 C 352.6 115.8 351.9 116.1 351.1 116.1 C 350.3 116.1 349.6 116.0 348.8 115.9 C 348.0 115.8 346.4 116.0 345.1 115.9 C 343.7 115.9 341.6 115.7 340.1 115.8 C 338.5 115.8 337.6 116.4 334.5 116.0 C 333.5 115.9 331.5 116.0 330.7 116.0 C 329.3 116.0 326.6 115.8 325.4 115.8 C 324.0 115.8 324.0 118.3 325.6 118.3 C 325.6 118.3 325.6 118.3 325.6 118.3 Z M 381.7 118.3 C 383.0 118.3 383.3 115.8 381.7 115.8 C 380.2 115.8 377.3 116.1 376.5 116.0 C 375.7 115.9 372.2 115.8 371.4 115.8 C 370.7 115.8 368.1 116.2 366.6 116.0 C 365.1 115.7 363.6 116.2 362.5 116.0 C 361.2 115.9 360.5 116.0 359.5 116.1 C 358.6 116.1 357.0 115.7 356.2 115.9 C 355.3 116.1 354.9 115.8 353.7 115.8 C 352.5 115.8 352.5 118.3 353.6 118.3 C 354.7 118.3 355.7 118.2 356.8 118.2 C 357.9 118.1 359.2 118.1 360.4 118.1 C 361.5 118.1 363.1 118.4 364.4 118.2 C 365.6 118.1 367.4 118.0 368.2 118.0 C 369.1 117.9 371.0 118.0 371.9 117.9 C 373.0 117.7 374.8 118.0 375.5 118.2 C 376.2 118.4 376.6 118.1 378.1 118.1 C 379.0 118.2 380.4 118.3 381.7 118.3 C 381.7 118.3 381.7 118.3 381.7 118.3 Z M 384.8 116.4 C 384.8 117.3 384.9 118.5 386.3 118.7 C 387.6 118.8 388.7 117.8 388.7 116.5 C 388.7 115.1 387.9 115.5 387.9 112.3 C 387.9 111.1 385.5 111.1 385.5 112.3 C 385.5 115.1 384.8 114.7 384.8 116.4 C 384.8 116.4 384.8 116.4 384.8 116.4 Z M 388.7 10.3 C 388.7 10.0 388.6 9.7 388.6 9.5 L 386.7 7.6 C 385.7 7.8 385.2 8.4 385.2 9.5 C 385.2 10.5 385.7 11.2 386.7 11.4 L 384.8 9.5 C 384.8 9.7 384.8 10.0 384.8 10.3 C 384.8 11.8 385.5 11.7 385.5 14.1 C 385.5 15.5 387.9 15.2 387.9 14.2 C 387.9 11.6 388.7 11.9 388.7 10.3 C 388.7 10.3 388.7 10.3 388.7 10.3 Z M 385.5 112.2 C 385.5 113.2 387.9 113.2 387.9 112.0 C 387.9 110.8 387.5 108.0 387.6 107.3 C 387.6 106.5 388.1 104.5 388.1 103.9 C 388.1 103.3 387.4 100.2 387.6 98.9 C 387.8 97.6 387.6 97.2 387.6 96.3 C 387.6 95.4 387.5 94.0 387.4 93.1 C 387.4 92.2 388.0 91.5 387.9 90.3 C 387.7 89.2 387.9 88.6 387.9 87.8 C 387.9 86.6 385.5 86.6 385.5 87.8 C 385.5 88.9 385.3 89.7 385.4 90.6 C 385.4 91.6 385.7 92.4 385.4 93.3 C 385.2 94.2 385.5 96.0 385.6 97.1 C 385.8 98.1 385.7 99.4 385.6 100.2 C 385.4 101.9 385.9 106.0 385.6 106.6 C 385.4 107.2 385.6 109.1 385.6 109.8 C 385.6 110.4 385.5 110.8 385.5 112.2 C 385.5 112.2 385.5 112.2 385.5 112.2 Z M 387.9 87.5 C 387.9 86.2 387.6 84.1 387.6 83.5 C 387.6 83.0 387.8 81.3 387.8 80.4 C 387.7 79.6 387.5 79.3 387.5 77.9 C 387.4 76.2 387.6 75.0 387.7 75.0 C 387.7 74.7 388.0 73.9 387.9 72.7 C 387.8 71.1 388.0 70.7 387.9 70.0 C 387.6 68.8 387.9 68.6 387.9 67.7 C 387.8 66.8 387.9 66.2 387.8 65.5 C 387.6 64.7 388.0 64.1 387.9 63.4 C 387.9 62.2 385.5 62.3 385.5 63.4 C 385.5 64.1 385.8 64.7 385.8 65.4 C 385.8 66.1 385.7 66.7 385.6 67.4 C 385.5 68.1 385.6 69.5 385.6 70.6 C 385.5 71.8 385.4 73.7 385.5 75.0 C 385.5 76.3 386.1 77.1 385.7 79.8 C 385.6 80.6 385.7 82.3 385.7 83.0 C 385.7 84.3 385.5 86.6 385.5 87.6 C 385.5 88.9 387.9 88.8 387.9 87.5 C 387.9 87.5 387.9 87.5 387.9 87.5 Z M 387.9 38.9 C 387.9 37.8 385.5 37.6 385.5 38.9 C 385.5 40.3 385.7 42.7 385.7 43.4 C 385.6 44.2 385.5 47.2 385.5 47.8 C 385.5 48.5 385.8 50.7 385.6 52.0 C 385.4 53.3 385.8 54.6 385.7 55.5 C 385.6 56.7 385.7 57.3 385.8 58.1 C 385.8 59.0 385.3 60.3 385.5 61.0 C 385.7 61.7 385.5 62.2 385.5 63.2 C 385.5 64.2 387.9 64.2 387.9 63.2 C 387.9 62.3 387.9 61.4 387.8 60.5 C 387.8 59.5 387.8 58.4 387.8 57.4 C 387.8 56.4 388.0 55.0 387.9 53.9 C 387.7 52.9 387.7 51.3 387.6 50.6 C 387.6 49.8 387.7 48.2 387.6 47.4 C 387.4 46.5 387.6 44.9 387.8 44.3 C 388.0 43.7 387.8 43.3 387.8 42.0 C 387.8 41.3 387.9 40.1 387.9 38.9 C 387.9 38.9 387.9 38.9 387.9 38.9 Z M 387.9 38.6 C 387.9 37.3 387.6 35.1 387.6 34.6 C 387.6 34.1 387.8 32.3 387.8 31.5 C 387.7 30.7 387.5 30.4 387.5 29.0 C 387.4 27.2 387.6 26.1 387.7 26.0 C 387.7 25.8 388.0 24.9 387.9 23.8 C 387.8 22.2 388.0 21.7 387.9 21.0 C 387.6 19.8 387.9 19.7 387.9 18.8 C 387.8 17.9 387.9 17.3 387.8 16.6 C 387.6 15.8 388.0 15.2 387.9 14.4 C 387.9 13.3 385.5 13.4 385.5 14.5 C 385.5 15.1 385.8 15.7 385.8 16.4 C 385.8 17.1 385.7 17.7 385.6 18.4 C 385.5 19.1 385.6 20.6 385.6 21.7 C 385.5 22.8 385.4 24.7 385.5 26.0 C 385.5 27.3 386.1 28.1 385.7 30.8 C 385.6 31.7 385.7 33.4 385.7 34.1 C 385.7 35.3 385.5 37.7 385.5 38.7 C 385.5 39.9 387.9 39.9 387.9 38.6 C 387.9 38.6 387.9 38.6 387.9 38.6 Z M 386.1 11.4 C 387.0 11.4 388.2 11.3 388.3 9.9 C 388.5 8.6 387.5 7.5 386.1 7.5 C 384.8 7.5 385.2 8.3 382.0 8.3 C 380.8 8.3 380.7 10.7 381.9 10.7 C 384.8 10.7 384.4 11.4 386.1 11.4 C 386.1 11.4 386.1 11.4 386.1 11.4 Z M 10.1 7.5 C 9.8 7.5 9.5 7.6 9.3 7.6 L 7.4 9.5 C 7.6 10.5 8.2 11.0 9.3 11.0 C 10.3 11.0 11.0 10.5 11.2 9.5 L 9.3 11.4 C 9.5 11.4 9.8 11.4 10.1 11.4 C 11.6 11.4 11.5 10.7 13.9 10.7 C 15.3 10.7 15.0 8.3 14.0 8.3 C 11.4 8.3 11.7 7.5 10.1 7.5 C 10.1 7.5 10.1 7.5 10.1 7.5 Z M 381.9 10.7 C 383.0 10.7 383.1 8.3 381.7 8.3 C 380.2 8.3 377.0 8.7 376.2 8.6 C 375.3 8.6 373.0 8.1 372.3 8.1 C 371.6 8.1 368.0 8.8 366.5 8.6 C 365.0 8.4 364.5 8.5 363.5 8.5 C 362.4 8.5 360.8 8.7 359.8 8.8 C 358.8 8.8 357.9 8.2 356.6 8.3 C 355.3 8.5 354.6 8.3 353.7 8.3 C 352.2 8.3 352.3 10.7 353.7 10.7 C 355.0 10.7 355.9 10.9 357.0 10.8 C 358.1 10.8 359.0 10.5 360.0 10.8 C 361.1 11.0 363.1 10.7 364.4 10.6 C 365.6 10.4 367.0 10.5 368.0 10.6 C 370.0 10.8 374.8 10.3 375.4 10.5 C 376.1 10.8 378.3 10.6 379.1 10.6 C 379.8 10.6 380.3 10.7 381.9 10.7 C 381.9 10.7 381.9 10.7 381.9 10.7 Z M 353.3 8.3 C 351.8 8.3 349.4 8.6 348.7 8.6 C 348.1 8.6 346.1 8.4 345.2 8.4 C 344.2 8.5 343.9 8.7 342.3 8.7 C 340.3 8.8 338.9 8.6 338.8 8.5 C 338.5 8.5 337.6 8.2 336.2 8.3 C 334.4 8.4 333.9 8.2 333.0 8.3 C 331.7 8.5 331.5 8.3 330.5 8.3 C 329.4 8.4 328.8 8.3 327.9 8.4 C 327.0 8.6 326.3 8.2 325.5 8.3 C 324.1 8.3 324.2 10.7 325.5 10.7 C 326.3 10.7 327.0 10.4 327.8 10.4 C 328.6 10.4 329.3 10.5 330.1 10.6 C 330.9 10.7 332.5 10.5 333.8 10.6 C 335.1 10.7 337.3 10.8 338.8 10.7 C 340.3 10.7 341.3 10.1 344.4 10.5 C 345.4 10.6 347.4 10.5 348.2 10.5 C 349.6 10.5 352.3 10.7 353.5 10.7 C 354.9 10.7 354.9 8.3 353.3 8.3 C 353.3 8.3 353.3 8.3 353.3 8.3 Z M 325.3 10.7 C 326.5 10.7 326.5 8.3 325.1 8.3 C 323.6 8.3 320.4 8.7 319.6 8.6 C 318.8 8.6 316.4 8.1 315.7 8.1 C 315.0 8.1 311.4 8.8 309.9 8.6 C 308.4 8.4 308.0 8.5 306.9 8.5 C 305.9 8.5 304.2 8.7 303.2 8.8 C 302.2 8.8 301.3 8.2 300.0 8.3 C 298.7 8.5 298.0 8.3 297.1 8.3 C 295.7 8.3 295.8 10.7 297.1 10.7 C 298.4 10.7 299.3 10.9 300.4 10.8 C 301.5 10.8 302.4 10.5 303.5 10.8 C 304.5 11.0 306.5 10.7 307.8 10.6 C 309.1 10.4 310.4 10.5 311.4 10.6 C 313.4 10.8 318.2 10.3 318.9 10.5 C 319.5 10.8 321.7 10.6 322.5 10.6 C 323.3 10.6 323.7 10.7 325.3 10.7 C 325.3 10.7 325.3 10.7 325.3 10.7 Z M 296.8 8.3 C 295.2 8.3 292.8 8.6 292.2 8.6 C 291.6 8.6 289.5 8.4 288.6 8.4 C 287.6 8.5 287.3 8.7 285.7 8.7 C 283.7 8.8 282.3 8.6 282.3 8.5 C 282.0 8.5 281.0 8.2 279.6 8.3 C 277.8 8.4 277.3 8.2 276.5 8.3 C 275.1 8.5 275.0 8.3 273.9 8.3 C 272.8 8.4 272.2 8.3 271.3 8.4 C 270.4 8.6 269.7 8.2 268.9 8.3 C 267.5 8.3 267.7 10.7 268.9 10.7 C 269.7 10.7 270.4 10.4 271.2 10.4 C 272.0 10.4 272.7 10.5 273.5 10.6 C 274.3 10.7 275.9 10.5 277.3 10.6 C 278.6 10.7 280.7 10.8 282.3 10.7 C 283.8 10.7 284.7 10.1 287.8 10.5 C 288.8 10.6 290.8 10.5 291.6 10.5 C 293.0 10.5 295.7 10.7 296.9 10.7 C 298.3 10.7 298.3 8.3 296.8 8.3 C 296.8 8.3 296.8 8.3 296.8 8.3 Z M 268.7 10.7 C 269.9 10.7 269.9 8.3 268.5 8.3 C 267.1 8.3 263.9 8.7 263.0 8.6 C 262.2 8.6 259.9 8.1 259.1 8.1 C 258.4 8.1 254.9 8.8 253.3 8.6 C 251.8 8.4 251.4 8.5 250.3 8.5 C 249.3 8.5 247.6 8.7 246.6 8.8 C 245.6 8.8 244.7 8.2 243.4 8.3 C 242.1 8.5 241.4 8.3 240.5 8.3 C 239.1 8.3 239.2 10.7 240.5 10.7 C 241.8 10.7 242.7 10.9 243.8 10.8 C 244.9 10.8 245.8 10.5 246.9 10.8 C 247.9 11.0 250.0 10.7 251.2 10.6 C 252.5 10.4 253.9 10.5 254.9 10.6 C 256.8 10.8 261.6 10.3 262.3 10.5 C 263.0 10.8 265.1 10.6 265.9 10.6 C 266.7 10.6 267.1 10.7 268.7 10.7 C 268.7 10.7 268.7 10.7 268.7 10.7 Z M 212.3 8.3 C 211.0 8.3 210.8 10.7 212.3 10.7 C 213.8 10.7 216.7 10.5 217.5 10.5 C 218.4 10.6 221.9 10.7 222.6 10.7 C 223.3 10.7 225.9 10.4 227.5 10.6 C 229.0 10.8 230.5 10.4 231.5 10.5 C 232.8 10.6 233.5 10.5 234.5 10.4 C 235.5 10.4 237.0 10.9 237.8 10.7 C 238.7 10.5 239.2 10.7 240.3 10.7 C 241.5 10.7 241.5 8.3 240.4 8.3 C 239.3 8.3 238.3 8.3 237.2 8.4 C 236.1 8.4 234.8 8.4 233.6 8.4 C 232.5 8.4 230.9 8.1 229.7 8.3 C 228.4 8.5 226.6 8.5 225.8 8.5 C 224.9 8.6 223.0 8.5 222.1 8.6 C 221.1 8.8 219.2 8.6 218.5 8.4 C 217.8 8.1 217.4 8.4 215.9 8.4 C 215.0 8.4 213.6 8.3 212.3 8.3 C 212.3 8.3 212.3 8.3 212.3 8.3 Z M 211.9 8.3 C 210.4 8.3 207.9 8.6 207.3 8.6 C 206.7 8.6 204.7 8.4 203.7 8.4 C 202.8 8.5 202.4 8.7 200.8 8.7 C 198.8 8.8 197.5 8.6 197.4 8.5 C 197.1 8.5 196.1 8.2 194.8 8.3 C 193.0 8.4 192.4 8.2 191.6 8.3 C 190.2 8.5 190.1 8.3 189.0 8.3 C 188.0 8.4 187.3 8.3 186.5 8.4 C 185.5 8.6 184.9 8.2 184.0 8.3 C 182.7 8.3 182.8 10.7 184.1 10.7 C 184.8 10.7 185.5 10.4 186.3 10.4 C 187.1 10.4 187.8 10.5 188.6 10.6 C 189.4 10.7 191.1 10.5 192.4 10.6 C 193.7 10.7 195.9 10.8 197.4 10.7 C 198.9 10.7 199.8 10.1 202.9 10.5 C 203.9 10.6 205.9 10.5 206.7 10.5 C 208.1 10.5 210.9 10.7 212.0 10.7 C 213.4 10.7 213.4 8.3 211.9 8.3 C 211.9 8.3 211.9 8.3 211.9 8.3 Z M 183.8 10.7 C 185.0 10.7 185.0 8.3 183.7 8.3 C 182.2 8.3 179.0 8.7 178.1 8.6 C 177.3 8.6 175.0 8.1 174.3 8.1 C 173.5 8.1 170.0 8.8 168.5 8.6 C 166.9 8.4 166.5 8.5 165.5 8.5 C 164.4 8.5 162.8 8.7 161.8 8.8 C 160.8 8.8 159.9 8.2 158.6 8.3 C 157.3 8.5 156.6 8.3 155.7 8.3 C 154.2 8.3 154.3 10.7 155.7 10.7 C 156.9 10.7 157.8 10.9 158.9 10.8 C 160.0 10.8 161.0 10.5 162.0 10.8 C 163.1 11.0 165.1 10.7 166.3 10.6 C 167.6 10.4 169.0 10.5 170.0 10.6 C 172.0 10.8 176.7 10.3 177.4 10.5 C 178.1 10.8 180.3 10.6 181.0 10.6 C 181.8 10.6 182.2 10.7 183.8 10.7 C 183.8 10.7 183.8 10.7 183.8 10.7 Z M 127.4 8.3 C 126.1 8.3 125.9 10.7 127.4 10.7 C 129.0 10.7 131.8 10.5 132.7 10.5 C 133.5 10.6 137.0 10.7 137.7 10.7 C 138.4 10.7 141.1 10.4 142.6 10.6 C 144.1 10.8 145.6 10.4 146.6 10.5 C 147.9 10.6 148.6 10.5 149.6 10.4 C 150.6 10.4 152.1 10.9 153.0 10.7 C 153.8 10.5 154.3 10.7 155.5 10.7 C 156.6 10.7 156.6 8.3 155.5 8.3 C 154.4 8.3 153.5 8.3 152.4 8.4 C 151.3 8.4 149.9 8.4 148.7 8.4 C 147.7 8.4 146.0 8.1 144.8 8.3 C 143.5 8.5 141.7 8.5 141.0 8.5 C 140.1 8.6 138.1 8.5 137.3 8.6 C 136.2 8.8 134.3 8.6 133.7 8.4 C 133.0 8.1 132.5 8.4 131.0 8.4 C 130.1 8.4 128.7 8.3 127.4 8.3 C 127.4 8.3 127.4 8.3 127.4 8.3 Z M 127.2 10.7 C 128.4 10.7 128.5 8.3 127.1 8.3 C 125.6 8.3 122.4 8.7 121.6 8.6 C 120.7 8.6 118.4 8.1 117.7 8.1 C 116.9 8.1 113.4 8.8 111.9 8.6 C 110.4 8.4 109.9 8.5 108.9 8.5 C 107.8 8.5 106.2 8.7 105.2 8.8 C 104.2 8.8 103.3 8.2 102.0 8.3 C 100.7 8.5 100.0 8.3 99.1 8.3 C 97.6 8.3 97.7 10.7 99.1 10.7 C 100.4 10.7 101.3 10.9 102.4 10.8 C 103.5 10.8 104.4 10.5 105.4 10.8 C 106.5 11.0 108.5 10.7 109.8 10.6 C 111.0 10.4 112.4 10.5 113.4 10.6 C 115.4 10.8 120.2 10.3 120.8 10.5 C 121.5 10.8 123.7 10.6 124.5 10.6 C 125.2 10.6 125.7 10.7 127.2 10.7 C 127.2 10.7 127.2 10.7 127.2 10.7 Z M 98.7 8.3 C 97.2 8.3 94.8 8.6 94.1 8.6 C 93.5 8.6 91.5 8.4 90.6 8.4 C 89.6 8.5 89.3 8.7 87.7 8.7 C 85.6 8.8 84.3 8.6 84.2 8.5 C 83.9 8.5 83.0 8.2 81.6 8.3 C 79.8 8.4 79.3 8.2 78.4 8.3 C 77.1 8.5 76.9 8.3 75.9 8.3 C 74.8 8.4 74.1 8.3 73.3 8.4 C 72.4 8.6 71.7 8.2 70.8 8.3 C 69.5 8.3 69.6 10.7 70.9 10.7 C 71.7 10.7 72.3 10.4 73.2 10.4 C 74.0 10.4 74.7 10.5 75.5 10.6 C 76.3 10.7 77.9 10.5 79.2 10.6 C 80.5 10.7 82.7 10.8 84.2 10.7 C 85.7 10.7 86.7 10.1 89.8 10.5 C 90.8 10.6 92.8 10.5 93.6 10.5 C 95.0 10.5 97.7 10.7 98.9 10.7 C 100.3 10.7 100.3 8.3 98.7 8.3 C 98.7 8.3 98.7 8.3 98.7 8.3 Z M 42.6 8.3 C 41.3 8.3 41.0 10.7 42.6 10.7 C 44.1 10.7 47.0 10.5 47.8 10.5 C 48.6 10.6 52.1 10.7 52.8 10.7 C 53.6 10.7 56.2 10.4 57.7 10.6 C 59.2 10.8 60.7 10.4 61.8 10.5 C 63.1 10.6 63.8 10.5 64.7 10.4 C 65.7 10.4 67.3 10.9 68.1 10.7 C 68.9 10.5 69.4 10.7 70.6 10.7 C 71.8 10.7 71.8 8.3 70.7 8.3 C 69.5 8.3 68.6 8.3 67.5 8.4 C 66.4 8.4 65.1 8.4 63.9 8.4 C 62.8 8.4 61.2 8.1 59.9 8.3 C 58.7 8.5 56.8 8.5 56.1 8.5 C 55.2 8.6 53.2 8.5 52.4 8.6 C 51.3 8.8 49.5 8.6 48.8 8.4 C 48.1 8.1 47.6 8.4 46.2 8.4 C 45.3 8.4 43.9 8.3 42.6 8.3 C 42.6 8.3 42.6 8.3 42.6 8.3 Z M 42.2 8.3 C 40.6 8.3 38.2 8.6 37.6 8.6 C 37.0 8.6 34.9 8.4 34.0 8.4 C 33.0 8.5 32.7 8.7 31.1 8.7 C 29.1 8.8 27.7 8.6 27.7 8.5 C 27.4 8.5 26.4 8.2 25.0 8.3 C 23.2 8.4 22.7 8.2 21.9 8.3 C 20.5 8.5 20.3 8.3 19.3 8.3 C 18.2 8.4 17.6 8.3 16.7 8.4 C 15.8 8.6 15.1 8.2 14.3 8.3 C 12.9 8.3 13.0 10.7 14.3 10.7 C 15.1 10.7 15.8 10.4 16.6 10.4 C 17.4 10.4 18.1 10.5 18.9 10.6 C 19.7 10.7 21.3 10.5 22.7 10.6 C 24.0 10.7 26.1 10.8 27.6 10.7 C 29.2 10.7 30.1 10.1 33.2 10.5 C 34.2 10.6 36.2 10.5 37.0 10.5 C 38.4 10.5 41.1 10.7 42.3 10.7 C 43.7 10.7 43.7 8.3 42.2 8.3 C 42.2 8.3 42.2 8.3 42.2 8.3 Z M 11.2 10.1 C 11.2 9.2 11.1 8.0 9.7 7.9 C 8.4 7.7 7.3 8.7 7.3 10.1 C 7.3 11.4 8.1 11.0 8.1 14.2 C 8.1 15.4 10.5 15.5 10.5 14.3 C 10.5 11.4 11.2 11.8 11.2 10.1 C 11.2 10.1 11.2 10.1 11.2 10.1 Z M 7.3 116.2 C 7.3 117.9 8.0 118.5 9.3 118.6 C 10.6 118.6 11.2 117.7 11.2 116.2 C 11.2 114.8 10.5 114.8 10.5 112.4 C 10.5 111.1 8.1 111.3 8.1 112.4 C 8.1 115.0 7.3 114.6 7.3 116.2 C 7.3 116.2 7.3 116.2 7.3 116.2 Z M 8.1 38.7 C 8.1 39.8 10.5 40.0 10.5 38.7 C 10.5 37.3 10.3 34.9 10.3 34.1 C 10.4 33.4 10.5 30.4 10.5 29.8 C 10.5 29.1 10.2 26.9 10.4 25.5 C 10.6 24.2 10.2 23.0 10.3 22.1 C 10.4 20.9 10.3 20.3 10.2 19.5 C 10.2 18.6 10.7 17.3 10.5 16.6 C 10.3 15.8 10.5 15.4 10.5 14.4 C 10.5 13.4 8.1 13.4 8.1 14.4 C 8.1 15.3 8.1 16.1 8.2 17.1 C 8.2 18.0 8.2 19.2 8.2 20.2 C 8.2 21.2 8.0 22.6 8.1 23.6 C 8.3 24.7 8.3 26.3 8.4 26.9 C 8.4 27.7 8.3 29.4 8.4 30.1 C 8.6 31.1 8.4 32.7 8.2 33.3 C 8.0 33.9 8.2 34.3 8.2 35.5 C 8.2 36.3 8.1 37.5 8.1 38.7 C 8.1 38.7 8.1 38.7 8.1 38.7 Z M 10.5 38.8 C 10.5 37.8 8.1 37.8 8.1 39.0 C 8.1 40.2 8.5 43.0 8.4 43.7 C 8.4 44.5 7.9 46.5 7.9 47.1 C 7.9 47.7 8.6 50.8 8.4 52.1 C 8.2 53.4 8.4 53.8 8.4 54.7 C 8.4 55.6 8.5 57.0 8.6 57.9 C 8.6 58.8 8.0 59.5 8.1 60.7 C 8.3 61.8 8.1 62.4 8.1 63.2 C 8.1 64.4 10.5 64.4 10.5 63.2 C 10.5 62.1 10.7 61.3 10.6 60.3 C 10.6 59.4 10.3 58.6 10.6 57.7 C 10.8 56.8 10.5 55.0 10.4 53.9 C 10.2 52.9 10.3 51.6 10.4 50.8 C 10.6 49.1 10.1 45.0 10.4 44.4 C 10.6 43.8 10.4 41.9 10.4 41.2 C 10.4 40.6 10.5 40.2 10.5 38.8 C 10.5 38.8 10.5 38.8 10.5 38.8 Z M 8.1 63.5 C 8.1 64.8 8.4 66.9 8.4 67.5 C 8.4 68.0 8.2 69.7 8.2 70.6 C 8.3 71.4 8.5 71.7 8.5 73.1 C 8.6 74.8 8.4 75.9 8.3 76.0 C 8.3 76.3 8.0 77.1 8.1 78.3 C 8.2 79.9 8.0 80.3 8.1 81.0 C 8.4 82.2 8.1 82.4 8.1 83.3 C 8.2 84.2 8.1 84.8 8.2 85.5 C 8.4 86.3 8.0 86.9 8.1 87.6 C 8.1 88.8 10.5 88.7 10.5 87.6 C 10.5 86.9 10.2 86.3 10.2 85.6 C 10.2 84.9 10.3 84.3 10.4 83.6 C 10.5 82.9 10.4 81.5 10.4 80.4 C 10.5 79.2 10.6 77.3 10.5 76.0 C 10.5 74.7 9.9 73.9 10.3 71.2 C 10.4 70.4 10.3 68.7 10.3 68.0 C 10.3 66.7 10.5 64.4 10.5 63.4 C 10.5 62.1 8.1 62.2 8.1 63.5 C 8.1 63.5 8.1 63.5 8.1 63.5 Z M 8.1 112.1 C 8.1 113.2 10.5 113.4 10.5 112.1 C 10.5 110.7 10.3 108.3 10.3 107.6 C 10.4 106.8 10.5 103.8 10.5 103.2 C 10.5 102.5 10.2 100.3 10.4 99.0 C 10.6 97.7 10.2 96.4 10.3 95.5 C 10.4 94.3 10.3 93.7 10.2 92.9 C 10.2 92.0 10.7 90.7 10.5 90.0 C 10.3 89.3 10.5 88.8 10.5 87.8 C 10.5 86.8 8.1 86.8 8.1 87.8 C 8.1 88.7 8.1 89.6 8.2 90.5 C 8.2 91.5 8.2 92.6 8.2 93.6 C 8.2 94.6 8.0 96.0 8.1 97.1 C 8.3 98.1 8.3 99.7 8.4 100.4 C 8.4 101.1 8.3 102.8 8.4 103.6 C 8.6 104.5 8.4 106.1 8.2 106.7 C 8.0 107.3 8.2 107.7 8.2 109.0 C 8.2 109.7 8.1 110.9 8.1 112.1 C 8.1 112.1 8.1 112.1 8.1 112.1 Z M 8.1 112.1 " fill="#FF7777"></path><g><clipPath id="clip-740"><path d="M 5.2 4.9 L 654.5 4.9 L 654.5 121.2 L 5.2 121.2 Z M 5.2 4.9 "></path></clipPath><g clip-path="url(#clip-740)"><text xml:space="preserve" font-family="Chalkduster" font-size="32.0" fill="#000000" transform="matrix(1.00, 0.00, -0.00, -1.00, 69.0, 73.0)">O</text><text xml:space="preserve" font-family="Chalkduster" font-size="32.0" fill="#000000" transform="matrix(1.00, 0.00, -0.00, -1.00, 92.2, 73.0)">p</text><text xml:space="preserve" font-family="Chalkduster" font-size="32.0" fill="#000000" transform="matrix(1.00, 0.00, -0.00, -1.00, 112.3, 73.0)">e</text><text xml:space="preserve" font-family="Chalkduster" font-size="32.0" fill="#000000" transform="matrix(1.00, 0.00, -0.00, -1.00, 132.5, 73.0)">n</text><text xml:space="preserve" font-family="Chalkduster" font-size="32.0" fill="#000000" transform="matrix(1.00, 0.00, -0.00, -1.00, 156.5, 73.0)">i</text><text xml:space="preserve" font-family="Chalkduster" font-size="32.0" fill="#000000" transform="matrix(1.00, 0.00, -0.00, -1.00, 169.2, 73.0)">n</text><text xml:space="preserve" font-family="Chalkduster" font-size="32.0" fill="#000000" transform="matrix(1.00, 0.00, -0.00, -1.00, 191.7, 73.0)">g</text><text xml:space="preserve" font-family="Chalkduster" font-size="32.0" fill="#000000" transform="matrix(1.00, 0.00, -0.00, -1.00, 213.5, 73.0)"> </text><text xml:space="preserve" font-family="Chalkduster" font-size="32.0" fill="#000000" transform="matrix(1.00, 0.00, -0.00, -1.00, 229.4, 73.0)">.</text><text xml:space="preserve" font-family="Chalkduster" font-size="32.0" fill="#000000" transform="matrix(1.00, 0.00, -0.00, -1.00, 237.5, 73.0)">.</text><text xml:space="preserve" font-family="Chalkduster" font-size="32.0" fill="#000000" transform="matrix(1.00, 0.00, -0.00, -1.00, 245.6, 73.0)">.</text><text xml:space="preserve" font-family="Chalkduster" font-size="32.0" fill="#000000" transform="matrix(1.00, 0.00, -0.00, -1.00, 255.8, 73.0)">o</text><text xml:space="preserve" font-family="Chalkduster" font-size="32.0" fill="#000000" transform="matrix(1.00, 0.00, -0.00, -1.00, 278.1, 73.0)">k</text><text xml:space="preserve" font-family="Chalkduster" font-size="32.0" fill="#000000" transform="matrix(1.00, 0.00, -0.00, -1.00, 302.2, 73.0)">.</text><text xml:space="preserve" font-family="Chalkduster" font-size="32.0" fill="#000000" transform="matrix(1.00, 0.00, -0.00, -1.00, 310.3, 73.0)">.</text><text xml:space="preserve" font-family="Chalkduster" font-size="32.0" fill="#000000" transform="matrix(1.00, 0.00, -0.00, -1.00, 318.4, 73.0)">.</text><text xml:space="preserve" font-family="Chalkduster" font-size="32.0" fill="#000000" transform="matrix(1.00, 0.00, -0.00, -1.00, 327.6, 73.0)"> </text><text xml:space="preserve" font-family="Chalkduster" font-size="32.0" fill="#000000" transform="matrix(1.00, 0.00, -0.00, -1.00, 16.0, 25.0)">H</text><text xml:space="preserve" font-family="Chalkduster" font-size="32.0" fill="#000000" transform="matrix(1.00, 0.00, -0.00, -1.00, 35.7, 25.0)">o</text><text xml:space="preserve" font-family="Chalkduster" font-size="32.0" fill="#000000" transform="matrix(1.00, 0.00, -0.00, -1.00, 59.5, 25.0)">w</text><text xml:space="preserve" font-family="Chalkduster" font-size="32.0" fill="#000000" transform="matrix(1.00, 0.00, -0.00, -1.00, 85.6, 25.0)"> </text><text xml:space="preserve" font-family="Chalkduster" font-size="32.0" fill="#000000" transform="matrix(1.00, 0.00, -0.00, -1.00, 101.5, 25.0)">a</text><text xml:space="preserve" font-family="Chalkduster" font-size="32.0" fill="#000000" transform="matrix(1.00, 0.00, -0.00, -1.00, 123.6, 25.0)">b</text><text xml:space="preserve" font-family="Chalkduster" font-size="32.0" fill="#000000" transform="matrix(1.00, 0.00, -0.00, -1.00, 142.2, 25.0)">o</text><text xml:space="preserve" font-family="Chalkduster" font-size="32.0" fill="#000000" transform="matrix(1.00, 0.00, -0.00, -1.00, 166.2, 25.0)">u</text><text xml:space="preserve" font-family="Chalkduster" font-size="32.0" fill="#000000" transform="matrix(1.00, 0.00, -0.00, -1.00, 187.9, 25.0)">t</text><text xml:space="preserve" font-family="Chalkduster" font-size="32.0" fill="#000000" transform="matrix(1.00, 0.00, -0.00, -1.00, 202.5, 25.0)"> </text><text xml:space="preserve" font-family="Chalkduster" font-size="32.0" fill="#000000" transform="matrix(1.00, 0.00, -0.00, -1.00, 218.4, 25.0)">c</text><text xml:space="preserve" font-family="Chalkduster" font-size="32.0" fill="#000000" transform="matrix(1.00, 0.00, -0.00, -1.00, 238.6, 25.0)">l</text><text xml:space="preserve" font-family="Chalkduster" font-size="32.0" fill="#000000" transform="matrix(1.00, 0.00, -0.00, -1.00, 252.3, 25.0)">o</text><text xml:space="preserve" font-family="Chalkduster" font-size="32.0" fill="#000000" transform="matrix(1.00, 0.00, -0.00, -1.00, 275.6, 25.0)">s</text><text xml:space="preserve" font-family="Chalkduster" font-size="32.0" fill="#000000" transform="matrix(1.00, 0.00, -0.00, -1.00, 291.8, 25.0)">i</text><text xml:space="preserve" font-family="Chalkduster" font-size="32.0" fill="#000000" transform="matrix(1.00, 0.00, -0.00, -1.00, 304.4, 25.0)">n</text><text xml:space="preserve" font-family="Chalkduster" font-size="32.0" fill="#000000" transform="matrix(1.00, 0.00, -0.00, -1.00, 326.9, 25.0)">g</text><text xml:space="preserve" font-family="Chalkduster" font-size="32.0" fill="#000000" transform="matrix(1.00, 0.00, -0.00, -1.00, 348.7, 25.0)"> </text><text xml:space="preserve" font-family="Chalkduster" font-size="32.0" fill="#000000" transform="matrix(1.00, 0.00, -0.00, -1.00, 364.6, 25.0)">?</text></g></g></g></svg>