<?xml version="1.0" encoding="UTF-8" standalone="no"?><svg xmlns="http://www.w3.org/2000/svg" xmlns:xlink="http://www.w3.org/1999/xlink" clip-rule="evenodd" stroke-miterlimit="4.00" viewBox="0 0 175 104"><desc>SVG generated by Keynote</desc><defs></defs><g transform="matrix(1.00, 0.00, -0.00, -1.00, 0.0, 104.0)"><g><clipPath id="clip-147"><path d="M 0.5 38.2 L 174.1 38.2 L 174.1 103.2 L 0.5 103.2 Z M 0.5 38.2 "></path></clipPath><g clip-path="url(#clip-147)"><path d="M 145.1 90.2 C 177.0 79.4 177.0 62.0 145.1 51.3 C 113.2 40.5 61.4 40.5 29.4 51.3 C -2.5 62.0 -2.5 79.4 29.4 90.2 C 61.4 100.9 113.2 100.9 145.1 90.2 Z M 145.1 90.2 " fill="#A8E685"></path><path d="M 44.0 43.4 C 43.8 43.5 43.5 43.6 43.1 43.7 C 43.3 43.7 43.5 43.8 43.4 43.9 C 43.8 43.7 44.3 43.6 45.1 43.5 C 45.0 43.4 44.6 43.5 44.4 43.5 C 44.1 43.6 44.1 43.5 44.0 43.4 C 44.0 43.4 44.0 43.4 44.0 43.4 Z M 39.3 96.4 C 38.7 96.3 39.3 96.7 39.6 96.7 C 39.6 96.7 39.7 96.7 39.9 96.7 C 39.9 96.9 39.4 96.9 38.9 96.8 C 37.2 96.3 38.6 96.2 39.3 96.4 C 39.3 96.4 39.3 96.4 39.3 96.4 Z M 132.3 96.9 C 133.7 96.7 132.1 96.7 131.9 96.7 C 132.5 96.5 131.9 96.2 132.7 96.0 C 132.9 96.1 133.2 96.1 133.4 96.2 C 133.1 96.3 132.5 96.4 132.5 96.5 C 133.0 96.4 133.6 96.2 133.8 96.3 C 132.7 96.6 133.6 96.5 133.9 96.7 C 132.9 96.8 132.6 97.1 132.3 96.9 C 132.3 96.9 132.3 96.9 132.3 96.9 Z M 154.7 52.2 C 155.2 52.5 155.7 52.7 155.5 52.7 C 154.9 52.5 154.6 52.3 154.3 52.1 C 154.2 52.2 154.3 52.3 153.8 52.1 C 153.3 51.7 153.7 51.5 154.0 51.6 C 154.0 51.8 155.9 52.5 154.7 52.2 C 154.7 52.2 154.7 52.2 154.7 52.2 Z M 116.3 42.7 C 115.0 42.4 116.2 43.1 114.9 42.8 C 114.9 42.6 114.7 42.3 115.6 42.4 C 115.7 42.5 116.2 42.6 116.3 42.7 C 116.3 42.7 116.3 42.7 116.3 42.7 Z M 93.1 99.5 C 93.2 99.6 94.1 99.6 93.9 99.8 C 93.4 99.8 92.9 99.8 92.5 99.8 C 92.3 99.6 92.5 99.5 93.1 99.5 C 93.1 99.5 93.1 99.5 93.1 99.5 Z M 140.8 92.4 C 142.2 92.3 143.5 91.5 143.2 91.8 C 143.7 91.9 142.5 92.8 142.4 92.5 C 142.2 92.3 139.8 92.7 140.8 92.4 C 140.8 92.4 140.8 92.4 140.8 92.4 Z M 47.5 93.9 C 49.0 94.4 48.8 93.7 49.7 94.2 C 49.4 94.1 49.2 94.2 49.1 94.2 C 49.3 94.3 49.7 94.3 49.7 94.4 C 48.9 94.3 48.1 94.2 47.5 93.9 C 47.5 93.9 47.5 93.9 47.5 93.9 Z M 67.3 40.7 C 67.6 40.7 67.7 40.6 67.7 40.5 C 68.8 40.5 68.7 40.3 69.4 40.4 C 69.5 40.7 68.6 40.7 67.7 40.7 C 67.7 40.8 67.4 40.8 67.3 40.7 C 67.3 40.7 67.3 40.7 67.3 40.7 Z M 99.0 41.1 C 99.0 40.9 98.3 40.8 99.4 40.8 C 100.6 41.1 99.5 41.3 98.3 41.4 C 98.3 41.5 98.3 41.6 98.3 41.7 C 98.8 41.7 99.1 41.8 99.3 41.8 C 99.6 41.5 100.3 42.2 102.2 42.1 C 101.3 42.2 102.2 42.5 101.1 42.3 C 101.4 42.6 100.6 42.5 100.7 42.7 C 101.2 42.6 102.4 42.7 102.2 42.4 C 102.8 42.4 103.3 42.5 103.6 42.5 C 104.0 42.8 102.4 42.5 102.9 42.8 C 103.2 42.8 103.3 42.9 103.6 42.9 C 103.6 42.9 103.5 42.7 103.9 42.7 C 105.1 42.9 103.7 43.0 105.3 43.1 C 105.4 43.0 104.9 42.9 105.0 42.8 C 105.7 42.7 105.7 42.9 106.4 42.8 C 106.5 43.0 105.9 43.0 106.4 43.1 C 106.9 42.7 107.8 43.4 108.9 43.2 C 108.2 42.6 109.0 43.3 109.9 42.9 C 110.1 43.1 109.5 43.3 110.2 43.4 C 110.0 42.8 113.1 43.2 110.7 42.5 C 112.0 42.6 112.5 42.2 111.4 42.0 C 113.7 42.4 113.0 42.0 113.9 42.0 C 114.8 42.2 113.4 42.1 113.9 42.4 C 112.9 42.2 113.2 42.4 112.5 42.2 C 112.5 42.3 112.3 42.4 112.1 42.4 C 113.1 42.3 114.1 42.8 113.4 43.0 C 113.0 42.9 113.4 42.7 112.8 42.6 C 113.0 43.0 112.1 42.5 112.1 42.7 C 112.5 43.1 111.1 43.2 112.4 43.4 C 112.4 43.3 112.4 43.1 112.4 43.0 C 112.7 43.0 113.1 43.1 113.4 43.1 C 113.7 43.4 113.4 43.5 113.7 43.6 C 114.3 43.7 114.6 43.7 114.8 43.6 C 114.1 43.5 113.3 43.1 114.5 43.2 C 114.0 43.7 116.1 43.5 115.1 43.7 C 116.4 44.0 117.0 43.7 117.1 44.0 C 117.8 44.1 117.4 43.8 118.2 43.9 C 119.4 44.3 119.2 44.0 120.9 44.4 C 121.1 44.1 121.0 44.5 121.6 44.6 C 121.6 44.5 121.6 44.3 121.6 44.2 C 122.2 44.5 123.5 44.8 124.9 44.8 C 125.2 44.9 124.9 45.1 125.8 45.2 C 126.9 45.1 127.9 45.6 129.1 45.5 C 129.2 45.7 130.0 45.9 130.4 45.9 C 130.6 46.0 129.9 46.2 130.6 46.3 C 131.2 46.2 130.3 45.9 131.3 46.1 C 131.2 46.3 132.3 46.1 132.3 46.3 C 132.0 46.3 131.6 46.4 131.3 46.4 C 131.7 46.5 131.6 46.6 131.9 46.7 C 131.9 46.3 132.6 46.8 132.8 46.9 C 132.8 46.7 133.0 46.6 133.2 46.6 C 133.8 46.8 134.2 46.8 134.5 46.8 C 135.1 47.1 134.0 46.9 134.7 47.1 C 135.2 46.6 135.7 47.5 137.2 47.4 C 137.5 47.7 138.1 48.0 139.0 48.2 C 139.1 48.1 138.1 47.9 138.1 47.8 C 139.4 48.2 137.9 47.5 138.8 47.8 C 140.6 48.4 141.8 48.7 143.6 49.5 C 143.6 49.3 145.1 49.7 145.1 49.7 C 144.7 49.6 146.0 50.4 147.0 50.7 C 147.4 50.5 149.1 50.7 149.3 50.5 C 149.6 50.9 149.5 50.8 149.5 51.2 C 151.2 52.0 152.2 52.0 153.0 52.8 C 153.0 52.6 153.7 52.9 154.4 53.1 C 154.1 53.2 153.7 53.2 153.3 53.2 C 154.1 53.5 154.2 53.7 154.9 54.0 C 155.9 53.7 156.6 55.0 157.4 54.7 C 158.4 55.3 158.1 55.4 159.0 55.9 C 159.1 55.8 159.2 55.7 159.5 55.8 C 158.9 55.5 158.3 55.5 158.1 55.0 C 159.6 55.7 155.8 53.0 158.2 54.0 C 158.3 54.1 158.0 54.2 158.4 54.5 C 159.8 55.1 159.1 54.5 158.6 54.2 C 159.5 54.6 160.4 55.2 159.8 54.5 C 161.8 55.6 160.5 55.1 161.1 55.6 C 164.4 57.5 168.0 60.3 169.8 63.9 C 170.1 63.8 170.9 65.9 170.9 66.5 C 171.5 67.5 171.8 68.6 171.5 69.0 C 171.8 69.1 171.5 70.3 171.7 70.4 C 171.7 69.9 171.8 69.6 171.9 70.1 C 171.8 71.6 171.3 73.9 171.2 74.8 C 170.7 75.2 170.4 76.2 170.2 76.9 C 170.0 76.9 170.2 76.4 170.0 76.8 C 170.0 77.0 169.4 78.4 169.0 78.6 C 169.3 78.3 169.3 77.6 168.9 78.2 C 169.1 78.3 168.6 78.9 168.8 78.9 C 168.1 79.6 167.9 80.2 167.2 80.8 C 167.7 80.2 167.8 79.8 167.8 79.6 C 167.5 80.1 167.3 80.6 166.7 80.8 C 167.1 80.9 166.3 81.5 165.6 82.4 C 165.3 82.5 165.0 82.5 164.3 83.1 C 164.1 83.5 165.6 82.4 164.8 83.1 C 164.8 83.0 163.9 83.5 164.3 83.5 C 163.2 84.2 162.8 84.8 161.8 85.1 C 163.0 84.5 161.9 84.7 161.6 84.9 C 161.4 85.0 161.0 85.3 161.1 85.3 C 161.1 85.4 161.7 85.0 161.8 85.1 C 160.9 85.5 160.9 86.0 160.5 86.0 C 160.9 85.8 160.9 85.6 160.4 85.8 C 160.5 86.2 157.9 87.4 158.7 86.8 C 158.7 86.9 159.7 86.3 159.7 86.2 C 159.4 86.2 158.0 87.2 158.2 86.8 C 159.0 86.3 159.1 86.5 160.0 85.8 C 160.0 85.6 160.5 85.3 160.8 84.9 C 159.4 85.9 159.1 86.3 158.8 86.2 C 158.1 86.6 158.7 86.6 157.5 87.2 C 155.7 88.0 157.0 87.0 156.6 87.2 C 155.1 88.1 155.7 88.2 156.5 88.0 C 155.2 88.7 154.9 89.0 153.3 89.6 C 153.3 89.5 153.5 89.3 154.0 89.0 C 154.1 89.0 155.5 88.6 155.3 88.5 C 155.0 88.2 153.9 88.6 152.1 89.3 C 152.7 89.4 152.7 89.2 150.9 90.0 C 151.3 90.2 150.0 90.3 150.0 90.5 C 150.1 90.5 150.8 90.3 151.4 90.0 C 151.4 90.2 151.2 90.4 150.6 90.7 C 150.2 90.7 150.0 91.0 148.8 91.3 C 148.6 91.1 149.4 90.8 149.5 90.6 C 148.9 90.8 148.8 91.0 148.2 91.3 C 147.5 91.3 147.5 90.9 147.4 90.6 C 148.1 90.3 149.3 89.8 148.3 90.0 C 151.0 89.0 148.3 90.4 149.3 90.1 C 150.3 89.3 149.9 90.0 151.6 89.2 C 152.1 89.0 152.2 88.9 152.4 88.7 C 152.2 88.7 151.2 88.9 152.3 88.4 C 152.6 88.5 153.2 88.3 154.0 88.0 C 154.0 87.9 152.3 88.5 153.9 87.8 C 154.8 87.4 154.2 88.1 155.3 87.5 C 155.2 87.4 155.5 87.3 155.6 87.2 C 154.0 88.0 155.8 86.8 154.7 87.2 C 156.0 86.5 155.0 87.4 155.9 86.9 C 155.9 86.7 157.4 86.3 157.3 86.0 C 156.8 86.4 155.7 86.9 155.8 86.6 C 156.8 86.2 160.8 83.6 159.4 84.9 C 159.9 84.4 162.3 82.3 162.2 82.6 C 161.5 83.1 161.6 83.3 161.6 83.5 C 162.9 82.2 163.7 81.8 164.7 80.5 C 163.3 81.7 164.1 80.4 163.1 81.0 C 162.7 81.3 162.1 81.7 162.1 81.9 C 162.4 82.0 163.0 81.4 163.1 81.1 C 163.3 81.2 163.4 81.4 163.5 81.6 C 161.8 82.7 160.8 83.6 159.8 84.1 C 160.6 83.6 158.0 84.8 159.0 84.2 C 159.5 84.1 160.5 83.5 161.3 83.0 C 161.2 82.9 161.2 82.9 161.1 82.8 C 161.4 82.6 161.9 82.2 161.9 82.2 C 160.9 82.9 160.2 83.1 159.6 83.7 C 159.5 83.7 159.5 83.7 159.5 83.6 C 159.3 83.7 159.1 83.8 159.1 83.7 C 159.5 83.5 160.0 83.2 160.0 83.1 C 159.2 83.5 158.9 83.4 158.0 84.0 C 158.0 83.6 156.6 84.0 157.9 83.1 C 158.3 83.2 159.0 82.9 159.1 83.0 C 159.5 82.8 160.2 82.3 160.5 82.0 C 160.1 82.1 159.3 82.5 159.1 82.3 C 159.7 81.9 160.1 81.5 160.6 81.4 C 159.5 82.4 161.3 81.2 161.9 81.0 C 161.7 81.0 161.4 81.2 161.2 81.2 C 162.0 80.5 162.5 80.4 162.3 80.1 C 163.2 79.2 163.2 79.6 163.7 79.0 C 163.1 79.2 164.0 78.6 163.4 78.7 C 164.3 77.7 163.9 78.6 164.2 78.3 C 164.5 78.0 164.4 77.9 164.6 77.6 C 165.1 77.3 165.8 76.5 166.1 76.6 C 166.3 76.2 166.5 76.2 166.7 75.8 C 166.7 75.7 166.7 75.5 166.7 75.3 C 166.8 75.3 167.0 75.1 167.0 74.9 C 166.1 75.8 166.3 75.5 165.4 76.3 C 165.4 76.5 165.3 76.6 165.6 76.5 C 165.1 77.2 164.8 77.3 164.2 78.0 C 164.0 77.9 163.6 77.8 163.2 78.5 C 163.2 78.2 163.0 78.3 163.2 78.0 C 163.5 77.8 164.0 77.5 164.4 77.1 C 164.4 77.0 164.2 77.0 164.4 76.8 C 164.7 76.7 165.0 76.4 165.0 76.1 C 165.1 76.2 165.1 76.3 165.1 76.4 C 165.9 75.5 165.3 75.7 165.9 75.1 C 165.7 75.1 165.4 75.5 165.5 75.1 C 165.8 74.5 166.0 74.4 166.2 74.1 C 166.2 74.0 166.1 74.0 166.2 73.9 C 166.5 73.5 166.1 75.1 166.8 74.4 C 166.6 74.2 167.0 73.5 167.2 73.4 C 167.3 73.7 166.8 74.1 167.0 74.2 C 167.6 72.8 167.5 74.3 167.9 72.8 C 167.8 72.8 167.7 72.8 167.6 72.7 C 167.5 73.3 167.3 73.3 167.1 73.2 C 166.9 73.7 166.5 73.8 166.5 74.2 C 166.2 73.9 166.7 73.8 166.9 73.3 C 166.7 73.3 166.5 73.7 166.2 73.7 C 166.9 72.7 166.6 72.4 167.1 71.4 C 166.8 71.6 167.0 70.8 166.8 70.8 C 166.9 71.7 166.2 71.3 166.1 71.4 C 166.1 72.0 166.5 71.8 166.6 72.1 C 166.3 72.3 166.2 72.1 165.9 72.0 C 166.1 71.6 166.0 71.6 165.9 71.3 C 166.2 71.0 166.6 70.7 166.8 71.2 C 166.7 71.1 166.6 70.4 166.8 70.3 C 166.8 71.0 166.9 70.3 167.0 70.7 C 167.2 70.2 166.7 69.3 166.8 68.6 C 166.6 68.7 166.5 68.5 166.4 68.5 C 166.8 69.1 166.3 69.3 166.4 69.9 C 166.3 69.6 166.2 69.8 166.2 69.9 C 166.2 69.4 165.9 69.1 166.0 68.6 C 166.0 68.7 165.9 68.7 165.8 68.7 C 165.8 68.0 165.7 68.1 165.3 67.6 C 165.3 67.4 165.8 67.5 166.1 67.5 C 165.9 67.2 165.4 66.2 165.5 66.9 C 165.1 66.3 165.5 66.3 165.1 65.7 C 164.9 65.8 165.3 66.4 164.8 66.3 C 164.4 65.8 164.9 65.9 164.4 65.6 C 164.6 65.5 164.7 65.3 164.3 64.8 C 164.5 65.3 164.2 64.8 164.0 64.8 C 164.1 65.0 164.3 65.3 164.3 65.4 C 163.7 64.5 163.5 64.3 162.7 63.6 C 163.1 63.7 162.8 63.2 163.4 63.7 C 162.8 63.3 162.4 62.5 162.0 62.3 C 162.2 62.7 162.8 63.2 162.8 63.5 C 161.3 62.0 160.1 61.5 158.3 59.9 C 158.6 60.1 159.1 60.5 159.2 60.4 C 159.0 60.3 158.6 60.1 158.6 60.0 C 159.3 60.5 159.9 60.9 160.3 61.0 C 160.8 61.5 159.9 61.0 160.4 61.4 C 160.6 61.4 161.5 62.3 161.3 61.7 C 160.3 61.2 159.5 60.3 159.2 59.7 C 158.0 59.4 159.0 60.0 157.6 59.7 C 157.7 59.6 157.5 59.4 157.1 59.1 C 157.3 59.7 155.9 58.7 155.7 58.6 C 156.4 58.7 158.6 59.8 157.7 58.9 C 157.8 59.7 155.2 57.4 155.6 58.1 C 154.1 57.4 154.8 57.3 153.8 57.2 C 153.8 57.1 154.0 57.0 153.5 56.8 C 153.1 56.6 152.9 56.6 152.7 56.6 C 154.9 57.8 154.1 57.7 155.4 58.5 C 155.2 58.3 154.9 58.2 155.0 58.3 C 155.0 58.4 154.9 58.4 154.6 58.2 C 154.7 57.9 153.5 57.7 153.3 57.4 C 153.7 57.6 154.1 57.8 154.0 57.6 C 152.2 56.7 152.8 56.6 150.0 55.3 C 150.8 55.8 149.6 55.4 148.6 55.0 C 147.2 54.4 147.9 54.2 146.0 53.6 C 146.0 54.3 144.3 52.9 142.8 52.9 C 143.1 52.6 141.4 52.0 140.9 52.1 C 140.9 52.0 140.3 51.8 139.8 51.7 C 139.8 51.6 140.3 51.6 139.9 51.5 C 139.5 51.4 139.8 51.8 139.3 51.6 C 138.7 51.4 138.9 51.2 137.9 50.9 C 137.8 51.1 138.4 51.2 137.8 51.2 C 137.0 50.9 136.3 50.7 136.9 51.2 C 135.7 50.9 136.4 50.6 135.2 50.3 C 135.5 50.5 135.5 50.6 134.9 50.5 C 134.5 50.2 134.5 50.1 134.4 49.9 C 134.0 50.1 134.1 50.1 133.1 49.8 C 133.1 49.9 133.1 50.0 133.0 50.1 C 132.6 50.0 131.9 49.9 131.8 49.8 C 132.7 50.0 132.5 49.8 132.8 49.8 C 132.0 49.5 130.4 48.9 131.6 49.5 C 130.4 49.3 131.0 49.1 130.1 49.0 C 130.6 49.4 130.1 49.0 129.1 48.9 C 129.2 49.2 128.5 48.8 127.9 48.7 C 127.9 48.9 127.7 49.0 127.2 48.9 C 127.2 48.8 126.9 48.6 126.3 48.6 C 126.2 48.7 127.5 49.1 126.2 48.8 C 125.6 48.6 125.7 48.3 124.7 48.1 C 124.5 47.8 125.6 48.1 125.4 47.8 C 124.5 47.9 124.3 47.7 123.1 47.4 C 123.5 48.0 120.6 47.6 122.0 48.1 C 121.6 48.0 121.0 48.2 120.7 47.9 C 121.1 48.0 120.4 47.6 120.4 47.6 C 119.8 47.5 118.5 47.2 118.4 47.4 C 119.7 47.5 119.7 47.7 120.0 47.9 C 118.2 47.8 116.6 47.5 116.7 47.2 C 116.7 47.3 116.4 47.3 116.4 47.3 C 117.0 47.4 117.4 47.8 116.6 47.8 C 116.8 47.6 116.3 47.4 115.7 47.3 C 115.7 47.5 113.2 46.8 113.7 47.2 C 114.7 47.2 115.4 47.6 114.6 47.7 C 114.0 47.4 112.7 47.1 113.0 46.9 C 112.6 47.0 112.3 47.0 112.0 47.1 C 111.6 47.3 112.4 47.3 112.3 47.5 C 111.8 47.4 111.0 47.4 110.9 47.3 C 112.3 47.4 110.2 47.1 111.6 47.0 C 110.8 46.9 110.6 46.8 109.9 46.7 C 109.9 46.8 109.6 46.8 109.6 46.8 C 110.2 46.7 110.8 46.9 110.6 47.2 C 109.3 47.1 109.6 46.8 108.5 46.7 C 108.2 46.9 106.8 47.1 106.1 46.8 C 107.5 47.0 106.0 46.7 106.8 46.7 C 108.0 46.9 108.4 46.7 108.9 46.5 C 108.4 46.3 107.3 46.1 107.2 46.4 C 107.8 46.5 107.9 46.4 108.2 46.4 C 108.2 46.5 108.0 46.6 107.5 46.6 C 106.9 46.4 105.6 46.5 106.5 46.2 C 105.6 46.3 104.7 46.0 103.7 46.1 C 104.7 46.2 105.5 46.3 105.8 46.6 C 104.9 46.6 104.1 46.3 104.0 46.4 C 104.1 46.7 105.5 46.7 105.7 46.9 C 104.6 47.0 103.0 46.2 104.3 46.9 C 103.7 46.8 102.9 46.7 102.6 46.6 C 103.4 46.6 102.6 46.2 102.3 46.2 C 101.6 46.1 101.1 46.1 100.9 46.2 C 101.9 46.2 102.6 46.6 101.9 46.5 C 101.8 46.4 101.5 46.5 101.2 46.6 C 101.2 46.4 100.0 46.5 99.8 46.3 C 99.9 46.5 100.4 46.5 100.5 46.6 C 99.9 46.7 98.9 47.0 98.4 46.6 C 98.8 46.6 99.4 46.6 99.5 46.6 C 97.7 46.1 97.1 45.8 94.9 45.6 C 95.2 45.6 95.3 45.5 95.3 45.4 C 93.9 45.3 93.0 45.2 93.2 45.0 C 92.3 45.1 91.9 45.2 91.4 45.3 C 92.3 45.5 92.6 45.3 93.2 45.4 C 92.8 45.5 93.8 45.9 94.2 46.1 C 95.7 45.9 95.8 46.3 97.4 46.2 C 96.9 46.5 98.5 46.3 98.0 46.6 C 96.6 46.1 95.2 46.4 93.1 46.2 C 93.4 46.0 93.7 45.8 92.8 45.7 C 91.5 45.5 92.1 45.9 91.0 45.8 C 90.6 45.6 91.2 45.5 90.7 45.5 C 90.3 45.6 89.3 45.5 88.9 45.3 C 90.4 45.3 88.6 45.1 89.6 45.0 C 89.1 45.0 88.8 44.9 88.5 44.9 C 90.0 45.2 87.1 45.2 88.2 45.4 C 86.2 45.6 88.0 44.8 86.4 44.9 C 87.2 45.1 86.2 45.2 85.0 45.1 C 84.7 44.9 83.5 44.9 82.5 44.8 C 83.0 44.9 83.4 44.9 82.5 45.1 C 83.0 45.2 83.8 45.2 84.3 45.1 C 84.3 45.2 84.4 45.2 84.7 45.3 C 83.5 45.4 84.0 45.5 83.6 45.6 C 83.2 45.5 82.4 45.5 82.2 45.3 C 82.2 45.4 81.9 45.4 81.8 45.5 C 83.3 45.5 81.6 45.8 82.5 45.9 C 83.2 45.9 82.8 45.6 83.6 45.6 C 84.4 45.9 82.9 46.0 82.5 46.2 C 83.2 46.4 84.0 46.1 84.3 46.3 C 83.4 46.6 81.9 46.5 80.8 46.4 C 80.9 46.7 78.8 46.4 78.7 46.8 C 78.5 46.7 78.3 46.6 78.0 46.6 C 77.6 46.9 77.2 46.5 76.9 46.5 C 76.9 46.7 77.0 46.8 77.3 46.9 C 75.8 46.8 75.5 46.8 73.8 47.0 C 73.5 46.9 73.2 46.8 73.0 46.6 C 73.4 46.5 73.8 46.5 74.1 46.4 C 71.8 46.5 73.3 47.1 71.6 46.8 C 71.7 46.9 72.9 47.1 72.0 47.2 C 70.5 47.0 68.5 47.4 68.5 46.7 C 67.2 46.6 66.4 47.2 65.8 46.9 C 65.4 47.0 65.2 47.0 65.1 47.1 C 65.5 47.2 66.0 47.3 66.5 47.4 C 67.2 47.2 67.6 47.4 66.8 47.1 C 68.0 47.0 68.3 47.1 68.9 47.2 C 67.3 47.5 65.9 47.4 65.8 47.8 C 65.3 47.7 64.9 47.6 64.4 47.4 C 64.3 47.6 62.5 47.9 62.4 47.6 C 63.6 47.6 64.8 47.2 63.7 47.1 C 60.8 47.6 59.1 47.3 56.6 48.0 C 56.5 47.8 56.7 47.6 56.3 47.7 C 56.3 47.8 56.2 47.9 55.9 48.0 C 55.2 48.1 54.7 48.1 53.7 48.3 C 53.7 48.1 53.5 47.9 52.9 47.9 C 52.6 48.2 51.7 48.9 51.1 48.9 C 51.7 48.8 50.8 48.6 50.4 48.7 C 50.8 48.9 47.5 48.9 48.5 49.1 C 47.2 49.3 46.6 49.3 46.5 49.2 C 46.1 49.4 45.8 49.5 45.3 49.6 C 45.0 49.3 42.8 50.1 42.5 50.0 C 43.3 49.9 43.3 49.5 42.7 49.7 C 42.4 50.0 40.5 50.6 40.1 50.6 C 40.2 50.5 40.3 50.2 41.2 50.0 C 39.6 50.3 39.7 50.6 39.2 51.0 C 39.2 50.7 38.6 51.1 38.3 51.2 C 37.8 51.2 38.4 51.1 38.3 50.9 C 37.7 51.0 37.5 50.9 36.8 51.1 C 37.0 51.3 36.2 51.4 35.9 51.5 C 35.9 51.7 35.5 51.9 34.9 52.1 C 35.6 51.4 31.2 52.7 32.3 52.7 C 31.5 53.2 31.4 52.7 30.3 53.1 C 30.2 53.3 29.5 53.4 30.1 53.4 C 29.3 53.7 29.4 53.3 27.7 54.1 C 28.6 54.1 26.0 54.6 26.5 54.9 C 25.6 54.7 24.5 55.8 23.1 56.0 C 23.1 56.1 22.8 56.2 22.7 56.3 C 22.6 56.5 24.4 55.8 23.3 56.4 C 21.8 56.8 22.5 56.4 22.3 56.4 C 18.8 58.1 15.3 60.0 13.0 61.8 C 13.3 61.7 13.3 61.8 12.9 62.2 C 11.9 62.4 10.0 64.7 9.9 65.1 C 9.5 65.1 9.0 66.4 8.8 66.5 C 8.9 66.3 9.0 65.7 8.7 66.2 C 8.8 66.6 8.4 66.9 8.4 67.4 C 8.0 67.5 7.9 68.9 7.6 68.1 C 7.5 68.4 7.4 68.5 7.3 68.6 C 7.6 68.7 7.5 69.0 7.8 68.6 C 7.2 69.6 7.5 69.9 7.3 70.8 C 7.4 71.0 7.6 70.3 7.6 70.8 C 7.6 70.8 7.5 70.8 7.5 70.8 C 7.5 71.0 7.6 71.1 7.5 71.1 C 7.3 71.1 7.4 70.8 7.1 70.8 C 7.2 71.3 6.9 71.6 7.1 71.7 C 7.1 71.1 7.6 71.5 7.4 71.9 C 7.2 71.5 7.7 73.3 8.1 73.7 C 7.9 74.1 7.8 73.2 7.6 73.3 C 8.1 74.3 8.0 74.3 8.3 74.3 C 8.5 74.9 8.5 75.2 9.1 75.8 C 9.3 76.2 8.8 75.7 9.0 76.1 C 9.3 76.3 9.4 76.3 9.8 76.7 C 10.2 78.1 13.3 79.8 14.6 81.6 C 14.0 81.0 14.9 81.5 15.9 82.1 C 15.9 82.3 15.7 82.3 16.0 82.5 C 16.1 82.3 16.4 82.5 17.1 82.9 C 17.1 83.0 16.9 83.0 17.3 83.3 C 17.7 83.2 18.5 83.9 19.1 84.1 C 19.2 84.4 17.8 83.5 17.6 83.6 C 19.2 84.7 19.7 84.6 21.1 85.4 C 20.3 85.1 21.6 85.9 21.8 86.1 C 21.5 85.7 22.8 86.1 22.0 85.6 C 22.6 85.9 23.5 86.2 23.6 86.4 C 23.2 86.2 22.7 86.0 22.7 86.1 C 23.5 86.4 24.3 87.0 24.8 87.0 C 24.3 86.7 24.0 86.5 24.0 86.4 C 24.3 86.4 24.5 86.4 25.0 86.5 C 23.5 86.6 27.3 87.8 27.5 87.7 C 27.8 88.2 28.0 88.3 27.8 88.4 C 29.4 89.0 29.6 88.7 30.1 88.8 C 29.9 89.1 29.6 89.2 30.5 89.6 C 30.4 89.3 31.4 89.6 31.2 89.2 C 33.5 89.8 33.9 90.3 35.4 90.7 C 35.4 90.6 35.0 90.5 35.4 90.5 C 36.1 90.8 36.6 91.1 37.1 91.3 C 37.5 91.2 37.0 91.0 37.4 91.1 C 38.5 91.6 38.1 91.8 39.0 92.2 C 40.3 92.3 39.8 92.4 40.6 92.3 C 40.3 92.2 39.9 92.0 40.4 92.1 C 41.1 92.5 41.3 92.8 41.5 92.9 C 40.9 92.8 40.5 92.7 40.3 92.5 C 40.0 92.7 39.3 92.5 39.9 92.8 C 39.1 92.5 38.3 92.3 37.2 92.0 C 37.5 92.4 36.2 91.8 36.5 92.2 C 37.8 92.4 38.0 92.7 39.2 92.9 C 39.0 92.6 40.2 93.0 40.4 93.2 C 40.5 93.0 41.3 93.2 41.1 93.0 C 42.1 93.1 42.0 93.3 42.9 93.5 C 43.0 93.6 42.8 93.7 43.2 93.8 C 43.6 93.6 43.8 94.0 44.1 94.1 C 44.0 93.7 45.3 94.2 45.5 94.0 C 45.1 93.9 44.6 93.8 44.5 93.7 C 46.0 94.1 44.9 93.6 44.6 93.3 C 44.6 93.5 44.0 93.7 43.9 93.4 C 45.3 93.5 42.2 92.7 43.4 93.0 C 44.3 93.3 44.3 93.1 45.3 93.3 C 46.3 94.0 44.9 93.9 46.0 94.5 C 46.8 94.5 47.3 94.6 47.4 94.4 C 47.5 94.5 47.7 94.6 48.0 94.7 C 48.3 94.6 47.1 94.3 48.0 94.4 C 48.5 94.6 47.9 94.8 48.9 94.9 C 49.4 94.8 47.7 94.4 48.7 94.5 C 49.6 95.1 48.5 94.4 49.7 94.6 C 49.7 94.6 49.9 94.7 50.3 94.7 C 50.3 94.9 50.2 95.0 50.6 95.1 C 50.9 94.7 51.0 95.4 51.9 95.4 C 52.4 95.2 51.0 95.1 51.3 94.9 C 52.2 95.4 52.9 95.1 53.2 95.2 C 52.4 95.3 54.5 95.6 54.5 95.8 C 54.3 95.5 54.8 95.7 55.9 95.6 C 55.9 96.1 57.3 95.9 57.6 96.3 C 57.7 96.2 58.1 96.2 58.3 96.1 C 57.9 96.0 57.5 96.0 57.6 95.8 C 57.9 95.9 58.3 95.9 58.6 96.0 C 59.2 96.2 57.6 96.6 59.9 96.8 C 59.7 96.4 60.7 96.5 61.3 96.5 C 61.3 96.2 60.4 96.4 60.3 96.2 C 61.1 96.1 61.9 96.4 62.3 96.6 C 63.7 96.6 65.3 96.9 67.2 97.0 C 67.6 97.2 65.6 97.0 66.8 97.2 C 67.4 97.3 67.1 97.1 67.9 97.2 C 67.1 98.2 73.1 97.7 73.5 98.2 C 73.8 98.0 75.4 98.2 75.3 97.9 C 74.1 98.1 73.4 97.7 72.8 97.5 C 71.7 97.6 73.8 97.8 72.8 97.8 C 72.7 97.7 71.2 97.7 71.4 97.5 C 72.9 97.6 70.6 97.2 71.8 97.1 C 73.2 97.2 76.0 97.1 75.3 97.3 C 75.3 97.3 74.7 97.2 74.6 97.3 C 76.2 97.5 77.1 97.3 77.8 97.2 C 78.5 97.4 81.4 97.2 80.7 97.3 C 80.9 97.5 79.0 97.2 79.2 97.4 C 82.2 97.6 82.2 97.4 84.2 97.6 C 83.6 97.3 86.2 97.2 86.0 97.3 C 86.0 97.5 86.6 97.7 87.8 97.5 C 87.6 97.7 88.2 97.8 88.9 97.9 C 89.1 97.6 88.3 97.7 88.5 97.5 C 89.1 97.5 89.7 97.5 90.3 97.5 C 90.3 97.5 90.2 97.7 90.6 97.7 C 91.3 97.5 93.7 97.3 93.5 97.4 C 92.5 97.7 95.1 97.6 93.5 97.9 C 93.9 97.9 94.0 98.0 94.6 97.9 C 94.6 97.8 94.6 97.7 94.6 97.6 C 95.9 97.5 95.2 98.0 96.3 97.9 C 96.4 97.8 96.9 97.8 97.1 97.7 C 96.6 97.7 96.6 97.8 96.0 97.8 C 96.6 97.4 94.8 97.6 94.9 97.4 C 96.2 97.3 96.2 97.5 96.7 97.6 C 98.2 97.4 97.5 97.5 99.2 97.5 C 99.2 97.4 98.7 97.4 98.8 97.3 C 100.8 97.3 100.6 97.8 102.0 97.5 C 101.7 97.5 100.5 97.8 101.3 97.8 C 102.3 97.6 102.5 97.3 103.8 97.2 C 103.8 97.3 103.7 97.5 104.1 97.4 C 104.7 97.3 104.7 97.1 105.1 97.0 C 105.3 97.1 105.9 97.0 106.2 96.9 C 106.7 97.1 106.0 97.1 106.6 97.2 C 107.6 97.1 108.1 96.5 109.0 96.5 C 109.0 96.8 109.9 96.6 110.7 96.5 C 110.9 96.8 112.7 96.5 113.9 96.5 C 113.6 96.2 114.8 96.2 114.5 96.0 C 113.9 96.1 113.6 96.0 113.5 95.9 C 114.8 95.8 115.2 96.2 116.2 95.7 C 116.7 95.8 117.3 95.9 118.2 95.8 C 118.3 95.7 116.6 95.8 117.5 95.6 C 117.6 95.7 117.9 95.6 118.2 95.5 C 118.1 95.8 118.8 95.8 119.3 95.8 C 120.0 95.5 121.7 95.6 120.9 95.4 C 122.1 95.2 121.4 95.8 122.3 95.6 C 121.8 95.4 123.4 95.1 122.6 95.0 C 123.8 94.7 123.8 95.2 123.3 95.4 C 124.4 95.3 124.7 95.0 125.2 95.1 C 124.7 94.9 126.4 94.5 125.5 94.8 C 125.3 95.1 126.6 94.7 126.9 94.8 C 126.4 94.7 127.0 94.5 126.2 94.6 C 127.0 94.3 128.2 94.1 129.1 94.2 C 130.1 93.8 131.1 93.6 130.7 93.9 C 131.6 93.7 131.3 93.7 132.2 93.6 C 132.2 93.5 131.9 93.5 131.9 93.5 C 133.2 93.2 133.0 93.4 134.7 93.0 C 134.6 93.4 135.6 93.1 136.0 93.2 C 135.3 93.3 134.7 93.4 134.1 93.5 C 134.0 93.6 134.6 93.6 134.2 93.7 C 134.1 93.6 133.8 93.7 133.6 93.7 C 134.7 93.7 132.2 94.4 133.0 94.0 C 133.0 94.0 133.0 94.1 133.3 94.0 C 133.0 93.8 133.0 93.9 133.2 93.6 C 132.6 93.8 132.1 93.6 132.0 93.9 C 132.0 94.0 132.5 93.8 132.6 93.9 C 131.2 94.4 132.1 93.7 131.0 94.0 C 130.8 94.3 131.4 94.3 131.7 94.3 C 130.7 94.6 129.8 94.8 129.5 94.7 C 128.5 94.9 129.6 94.8 128.9 95.1 C 128.6 95.1 128.6 94.9 127.9 95.0 C 127.2 95.2 128.3 95.1 127.6 95.3 C 126.8 95.3 128.1 94.8 126.9 95.0 C 127.3 95.3 125.8 95.1 126.0 95.3 C 126.6 95.2 126.7 95.5 126.3 95.4 C 124.7 95.3 123.7 96.4 122.0 96.1 C 122.0 96.2 121.8 96.2 121.7 96.3 C 123.0 96.3 124.7 96.0 125.1 96.3 C 126.1 96.1 125.9 95.8 126.0 95.7 C 127.2 95.8 127.1 95.9 126.5 96.4 C 124.6 96.8 123.8 96.7 122.5 96.8 C 121.9 97.1 122.6 96.9 122.9 97.0 C 118.9 97.4 122.0 97.6 120.6 97.8 C 120.6 97.6 120.3 97.6 119.9 97.6 C 119.9 97.7 119.3 97.8 119.2 97.9 C 119.5 97.9 119.6 97.9 119.6 98.0 C 118.6 98.2 119.0 97.9 118.9 97.8 C 119.6 97.7 120.1 97.6 120.2 97.4 C 119.2 97.7 118.4 97.6 117.8 97.9 C 116.9 97.7 118.2 97.1 117.7 97.0 C 117.9 96.7 117.2 97.6 116.5 97.8 C 115.2 98.0 115.2 98.2 114.1 98.4 C 113.7 98.2 115.2 98.1 115.1 97.9 C 114.7 98.0 114.7 97.9 114.4 97.9 C 113.6 98.1 113.7 98.3 113.0 98.4 C 112.7 98.2 112.5 98.4 112.0 98.5 C 111.2 98.5 112.4 98.3 111.6 98.3 C 110.8 98.4 110.2 98.7 109.9 98.7 C 109.8 98.6 109.9 98.5 109.5 98.5 C 108.6 98.8 108.3 98.8 109.6 98.9 C 108.5 98.9 108.0 99.1 108.2 99.3 C 109.8 99.2 110.2 99.1 111.0 99.3 C 111.3 99.0 111.8 99.2 112.4 99.2 C 112.0 98.8 113.1 99.1 113.4 98.9 C 113.0 98.9 112.6 98.9 112.4 98.8 C 114.1 98.6 114.1 98.7 115.4 98.1 C 115.5 98.2 115.6 98.3 115.8 98.3 C 115.4 98.5 114.1 98.6 114.1 98.8 C 115.1 99.0 115.4 98.5 116.6 98.6 C 117.0 98.4 115.6 98.5 116.5 98.3 C 117.0 98.4 117.6 98.5 118.3 98.5 C 119.0 98.3 119.3 98.2 119.9 98.0 C 120.0 98.1 120.1 98.2 120.6 98.1 C 120.6 98.0 120.0 98.0 120.6 97.8 C 122.4 97.9 123.6 97.9 125.3 97.5 C 124.7 97.5 123.3 97.5 124.0 97.4 C 124.8 97.4 125.8 96.9 126.6 97.0 C 126.9 97.0 125.6 97.1 126.0 97.4 C 126.8 97.3 127.2 97.2 127.6 97.2 C 127.6 97.1 128.5 97.0 128.2 96.8 C 127.6 96.9 127.5 97.2 127.3 97.1 C 127.7 96.4 129.7 96.9 130.9 96.7 C 131.7 96.4 130.3 96.5 131.1 96.3 C 131.7 96.1 132.1 96.6 131.3 96.8 C 130.6 96.8 130.5 97.2 130.3 97.0 C 130.0 97.0 129.7 97.1 129.7 97.2 C 130.1 97.1 130.0 97.3 130.3 97.3 C 129.7 97.4 129.7 97.8 129.1 97.7 C 129.5 97.6 129.6 97.5 129.7 97.4 C 128.0 97.8 127.4 97.7 126.4 97.8 C 127.0 97.8 126.4 97.9 126.4 98.1 C 127.2 97.9 128.7 97.8 127.8 98.0 C 127.2 97.8 126.8 98.7 126.2 98.5 C 126.6 98.4 126.5 98.2 126.8 98.1 C 126.1 98.2 126.1 98.0 125.4 98.1 C 123.3 98.8 121.6 98.5 118.1 99.5 C 116.8 99.7 119.2 99.2 119.0 99.0 C 118.7 99.1 118.6 99.0 118.3 99.1 C 118.3 99.3 117.7 99.1 117.3 99.4 C 117.4 99.2 115.7 99.6 114.9 99.5 C 114.9 99.6 115.0 99.7 114.6 99.8 C 112.0 99.7 107.4 100.6 105.4 100.5 C 105.5 100.7 104.6 100.7 104.4 100.9 C 103.1 100.9 103.7 100.7 101.9 101.0 C 101.0 101.1 102.0 100.9 102.2 100.8 C 99.5 101.1 97.1 100.9 95.4 101.3 C 94.5 101.4 95.4 101.1 93.6 101.1 C 93.5 101.4 90.7 101.0 90.3 101.4 C 89.2 101.4 87.3 101.0 88.1 101.3 C 86.7 101.3 87.6 101.0 87.0 101.0 C 86.0 101.0 87.4 101.6 86.3 101.6 C 86.4 101.4 85.6 101.5 84.9 101.2 C 85.7 101.3 86.2 101.2 86.3 101.1 C 85.6 101.2 85.7 101.0 84.5 101.1 C 83.7 101.2 81.2 101.4 80.6 101.0 C 80.5 101.1 80.7 101.2 80.9 101.2 C 80.2 101.3 79.4 100.9 79.5 101.3 C 77.8 101.2 77.1 100.9 76.2 101.2 C 75.5 101.2 76.5 100.9 74.4 100.8 C 74.4 101.0 70.7 100.8 69.8 100.5 C 69.7 100.9 69.5 100.5 69.1 100.5 C 69.0 100.6 69.1 100.7 68.7 100.7 C 68.6 100.6 68.3 100.6 68.0 100.6 C 68.3 100.3 66.7 100.6 66.6 100.4 C 66.9 100.4 66.9 100.2 66.6 100.1 C 66.5 100.4 65.0 99.8 65.2 100.1 C 65.5 100.2 66.5 100.2 66.2 100.4 C 64.8 100.4 65.4 100.1 64.5 100.0 C 64.5 100.1 65.1 100.2 64.4 100.2 C 63.5 100.1 64.4 100.2 63.8 99.9 C 63.3 99.9 62.3 100.0 62.0 100.0 C 62.1 100.0 61.8 99.8 61.7 99.8 C 59.9 99.5 55.8 99.3 54.1 98.7 C 54.0 98.8 53.6 98.7 53.7 98.9 C 52.7 98.6 52.8 98.7 51.7 98.5 C 51.7 98.6 51.7 98.7 51.7 98.8 C 50.3 98.7 51.6 98.4 50.7 98.3 C 50.5 98.8 50.2 98.0 49.4 97.9 C 49.3 98.0 48.9 98.0 49.0 98.2 C 47.8 97.9 47.9 97.6 46.8 97.5 C 47.0 97.6 47.1 98.4 46.9 98.6 C 46.7 98.5 46.4 98.3 46.0 98.2 C 46.6 98.0 46.4 97.1 44.8 97.1 C 45.7 97.2 46.0 97.3 45.8 97.5 C 44.6 97.3 44.2 97.0 43.2 96.8 C 43.0 97.0 43.7 97.2 43.4 97.4 C 43.2 97.4 43.0 97.4 43.1 97.5 C 42.0 97.2 42.0 97.1 40.9 96.9 C 40.9 96.8 41.1 96.8 41.5 97.0 C 41.5 96.8 41.5 96.6 42.2 96.8 C 42.3 96.9 41.8 97.1 42.8 97.2 C 42.8 97.1 42.9 97.0 42.9 96.8 C 42.2 96.7 40.6 96.1 40.4 96.2 C 40.7 96.4 41.2 96.5 40.9 96.7 C 39.7 96.4 39.5 96.0 38.5 95.7 C 36.8 95.3 33.9 94.5 34.2 94.9 C 33.2 94.6 33.6 94.7 32.7 94.4 C 32.9 94.7 31.7 94.2 31.8 94.4 C 32.8 94.6 32.5 94.6 33.6 94.8 C 33.5 95.0 33.3 95.0 32.9 95.0 C 32.8 94.8 32.4 94.7 31.7 94.5 C 31.8 94.6 32.4 95.0 31.6 94.8 C 31.6 94.7 31.4 94.6 31.1 94.5 C 31.1 94.4 31.2 94.3 31.2 94.1 C 31.6 94.2 32.1 94.3 32.4 94.3 C 32.2 94.2 32.1 94.1 31.9 94.0 C 31.7 94.1 30.5 93.6 30.4 93.7 C 30.9 93.9 31.1 94.1 30.6 94.0 C 30.5 93.9 29.8 93.6 29.5 93.6 C 30.4 94.0 30.0 93.9 30.5 94.3 C 29.9 94.2 29.7 94.1 29.4 93.9 C 29.2 93.8 29.4 93.8 28.2 93.4 C 28.2 93.2 28.4 93.1 28.7 93.1 C 28.0 92.4 24.2 91.4 23.2 91.0 C 23.9 91.3 24.8 91.3 23.7 90.9 C 23.7 91.0 22.9 90.6 22.7 90.6 C 22.2 90.9 23.0 91.5 23.8 92.1 C 22.9 91.7 22.7 91.7 21.9 91.4 C 21.7 91.1 22.7 91.2 21.7 90.7 C 21.3 91.0 19.9 90.0 19.5 90.1 C 20.1 90.3 20.5 90.7 19.8 90.4 C 20.0 90.3 18.6 89.7 18.6 89.6 C 19.8 90.0 20.1 89.9 20.9 90.3 C 20.0 89.8 21.6 90.4 20.1 89.7 C 19.4 89.5 19.0 89.6 17.5 88.8 C 17.0 88.5 17.6 88.6 16.9 88.2 C 17.0 88.5 15.5 87.7 16.5 88.0 C 16.0 87.8 15.7 87.6 15.4 87.4 C 16.0 88.0 12.6 86.3 13.0 86.7 C 13.1 86.4 13.1 86.1 13.0 85.9 C 12.3 85.8 11.7 85.1 10.2 84.0 C 10.1 84.3 10.0 83.9 9.4 83.4 C 9.2 83.4 9.6 83.9 9.2 83.6 C 8.6 83.0 8.6 82.9 8.6 82.7 C 8.1 82.3 7.8 82.0 7.6 81.7 C 7.5 81.8 7.6 82.0 7.7 82.1 C 6.3 80.3 5.3 79.7 4.4 78.2 C 4.7 78.9 5.1 78.8 4.8 78.3 C 4.6 78.0 4.4 77.7 4.2 77.6 C 4.2 78.1 4.2 77.9 3.8 77.1 C 3.4 76.5 3.6 77.6 3.3 77.0 C 3.2 76.4 3.4 76.7 3.3 76.3 C 3.2 76.0 3.1 75.7 3.0 75.5 C 3.1 76.0 2.7 75.5 2.5 75.0 C 2.9 75.3 2.8 75.1 2.5 74.1 C 2.6 73.9 2.8 74.4 2.7 74.0 C 2.7 73.8 2.1 73.1 2.3 72.3 C 2.3 72.5 2.4 72.7 2.5 72.6 C 2.2 71.9 2.5 71.2 2.6 70.6 C 2.4 71.2 2.2 70.9 2.0 71.2 C 2.2 70.5 2.0 69.6 2.4 69.1 C 2.2 70.1 2.8 69.2 2.9 68.6 C 2.7 68.4 2.6 69.5 2.4 69.1 C 2.2 68.7 2.7 68.1 2.6 67.7 C 2.4 67.7 2.5 68.1 2.4 68.2 C 2.4 67.7 2.2 68.4 2.3 67.9 C 2.6 67.7 2.3 67.3 2.4 67.0 C 2.6 66.6 3.2 66.0 3.1 65.7 C 3.0 65.6 2.9 66.1 2.8 66.1 C 3.2 64.5 3.8 64.3 4.4 62.8 C 4.6 62.7 4.8 62.5 5.1 62.2 C 5.0 62.1 5.1 61.8 5.3 61.5 C 5.8 61.0 6.4 60.6 7.0 60.0 C 7.1 60.2 6.8 60.6 7.7 59.8 C 7.7 59.6 7.3 60.0 7.6 59.6 C 7.6 59.7 7.9 59.5 7.9 59.4 C 7.8 59.3 7.8 59.3 7.8 59.3 C 7.5 59.5 7.3 59.8 7.0 60.0 C 7.0 59.9 6.8 59.9 6.6 60.0 C 7.5 58.9 7.8 59.3 8.4 58.5 C 8.8 58.6 9.1 58.5 8.6 59.2 C 9.2 58.6 9.6 58.1 9.7 57.8 C 8.9 58.5 9.0 58.1 8.6 58.2 C 9.2 57.7 9.1 57.6 9.3 57.4 C 10.1 57.0 8.9 58.2 10.2 57.3 C 9.1 57.8 10.8 56.5 11.6 56.1 C 11.4 56.0 11.2 56.2 11.5 55.9 C 13.2 54.4 13.6 55.3 14.6 54.1 C 14.6 54.3 15.1 54.0 15.4 53.9 C 14.4 54.6 14.2 54.8 13.8 55.1 C 13.9 55.1 14.2 55.0 14.5 54.8 C 14.4 54.7 14.7 54.5 15.2 54.3 C 15.4 54.0 15.1 53.8 15.9 53.1 C 16.0 53.2 16.0 53.3 16.4 53.1 C 16.7 52.7 16.2 53.6 18.1 52.6 C 17.7 52.7 17.5 52.7 17.6 52.4 C 18.4 51.9 18.3 52.1 19.5 51.4 C 20.2 51.5 18.9 52.2 18.6 52.6 C 19.4 52.2 20.1 51.6 21.0 51.3 C 20.3 51.5 20.9 51.0 21.7 50.6 C 22.5 50.3 21.8 51.0 22.8 50.6 C 23.5 50.2 23.8 49.9 23.1 50.0 C 24.8 49.4 24.3 49.3 25.8 48.8 C 25.9 48.9 25.5 49.1 24.9 49.2 C 25.0 49.3 24.9 49.5 25.4 49.3 C 26.4 48.7 28.5 48.0 29.1 47.6 C 30.5 47.6 31.9 46.6 33.2 46.4 C 32.8 46.8 35.0 46.0 35.7 46.1 C 36.1 45.9 37.3 45.0 36.8 45.3 C 37.0 45.7 37.8 45.3 38.5 45.3 C 38.5 45.2 38.4 45.1 38.4 45.0 C 39.8 44.7 40.2 44.8 40.7 44.9 C 42.4 44.3 44.3 44.3 46.5 43.6 C 47.0 43.8 47.5 43.6 48.8 43.6 C 48.8 43.4 49.8 43.2 50.8 43.0 C 50.5 42.8 51.4 42.8 51.4 42.6 C 50.5 42.7 50.8 42.4 50.3 42.4 C 51.5 42.4 52.1 41.8 53.0 41.9 C 51.9 42.2 51.6 42.6 51.5 43.0 C 52.8 42.7 53.6 42.7 53.9 42.9 C 53.9 42.7 53.8 42.6 53.4 42.5 C 53.9 42.5 54.4 42.4 54.8 42.3 C 55.0 42.4 54.3 42.6 54.8 42.6 C 55.2 42.4 55.5 42.3 55.8 42.2 C 56.3 42.4 55.3 42.4 55.2 42.6 C 57.1 42.4 56.2 42.1 57.2 41.8 C 57.5 42.0 57.4 42.2 58.3 42.2 C 58.6 42.0 58.7 41.7 59.6 41.6 C 60.2 41.6 59.6 42.0 60.3 41.9 C 60.4 41.8 60.7 41.8 61.0 41.8 C 61.0 41.7 61.3 41.6 61.7 41.5 C 61.8 41.6 62.5 41.5 62.8 41.4 C 62.8 41.5 64.0 41.7 64.2 41.5 C 64.2 41.4 63.6 41.5 63.5 41.4 C 64.3 41.4 64.8 41.3 65.2 41.2 C 65.5 41.7 66.8 41.2 68.4 41.3 C 69.4 41.0 68.2 40.9 69.5 40.7 C 70.2 40.8 69.3 40.9 69.5 41.1 C 69.7 41.2 70.9 41.2 70.9 41.0 C 70.9 40.9 70.3 41.0 70.2 40.9 C 71.1 40.7 71.1 40.9 71.7 41.0 C 71.6 40.8 72.2 40.7 72.3 40.6 C 74.9 40.2 74.9 40.7 76.0 40.8 C 75.9 40.7 76.6 40.7 76.6 40.7 C 75.9 40.8 74.9 40.6 75.9 40.5 C 75.8 40.7 77.3 40.5 77.4 40.4 C 77.2 40.3 76.2 40.4 76.6 40.1 C 78.0 40.0 77.4 40.5 78.5 40.2 C 78.6 40.3 78.0 40.4 77.7 40.4 C 78.2 40.4 78.7 40.4 78.8 40.5 C 78.3 40.6 78.3 40.8 78.1 40.9 C 78.8 40.7 80.1 40.8 79.2 40.6 C 80.6 40.6 82.0 40.4 81.0 40.2 C 82.2 40.1 81.5 40.5 82.4 40.2 C 82.3 40.5 82.0 40.7 82.8 40.9 C 82.9 40.7 83.6 40.6 83.5 40.5 C 85.2 40.4 85.7 40.7 86.4 40.9 C 85.8 40.5 86.7 40.8 87.5 40.6 C 88.0 40.7 87.5 41.0 88.9 40.9 C 87.4 40.6 90.7 40.8 90.0 40.4 C 91.8 40.6 91.8 40.6 93.7 40.7 C 93.5 40.9 93.0 41.0 92.2 41.0 C 92.8 40.8 90.6 40.8 90.8 40.9 C 90.8 41.0 90.8 41.0 90.8 41.1 C 92.1 41.1 93.1 41.2 93.7 41.3 C 93.9 41.1 94.6 41.1 94.4 40.8 C 95.7 41.1 97.0 40.7 97.6 41.0 C 97.2 41.0 96.8 41.0 96.9 41.2 C 97.4 41.1 98.0 41.1 98.0 40.9 C 96.9 40.8 96.7 40.7 96.2 40.9 C 96.7 40.7 95.2 40.5 96.2 40.5 C 96.2 40.9 98.4 40.4 97.6 40.6 C 96.5 40.7 98.9 40.9 99.0 41.1 C 99.0 41.1 99.0 41.1 99.0 41.1 Z M 125.7 98.1 C 126.7 97.8 125.5 97.7 124.7 97.9 C 125.0 97.9 125.1 98.0 125.1 98.2 C 125.4 98.1 125.7 98.0 125.7 98.1 C 125.7 98.1 125.7 98.1 125.7 98.1 Z M 114.5 96.1 C 114.2 96.5 115.9 96.1 116.6 96.1 C 116.4 96.0 116.1 96.0 116.5 95.9 C 115.8 95.8 115.6 96.2 114.5 96.1 C 114.5 96.1 114.5 96.1 114.5 96.1 Z M 75.3 98.3 C 75.5 98.3 76.2 98.2 76.3 98.3 C 76.7 98.4 76.6 98.2 76.7 98.1 C 77.5 98.1 76.5 98.5 77.8 98.4 C 78.3 98.0 75.6 97.7 75.3 98.3 C 75.3 98.3 75.3 98.3 75.3 98.3 Z M 85.3 44.4 C 85.9 44.6 84.7 44.8 85.0 45.0 C 87.0 44.8 85.4 44.5 88.2 44.6 C 88.0 44.5 87.8 44.4 87.8 44.3 C 86.6 44.4 86.5 44.6 86.8 44.2 C 86.2 44.2 86.0 44.7 85.3 44.4 C 85.3 44.4 85.3 44.4 85.3 44.4 Z M 110.6 46.6 C 110.4 46.5 110.3 46.4 110.3 46.3 C 109.5 46.4 109.6 46.4 108.6 46.2 C 108.7 46.6 109.7 46.7 110.6 46.6 C 110.6 46.6 110.6 46.6 110.6 46.6 Z M 165.8 68.2 C 165.8 68.3 165.9 68.4 165.9 68.5 C 166.0 68.4 166.5 68.6 166.2 68.0 C 166.1 68.0 166.1 68.1 166.2 68.2 C 166.0 68.2 165.9 67.9 165.8 68.0 C 165.9 68.1 165.8 68.2 165.8 68.2 C 165.8 68.2 165.8 68.2 165.8 68.2 Z M 158.6 83.6 C 159.7 82.6 156.4 84.0 158.6 83.6 C 158.6 83.6 158.6 83.6 158.6 83.6 C 158.6 83.6 158.6 83.6 158.6 83.6 Z M 162.6 84.3 C 162.7 84.3 162.9 84.1 162.9 84.1 C 163.9 83.4 163.1 84.2 163.7 83.9 C 164.3 83.2 163.1 83.9 163.9 83.0 C 163.6 83.1 163.2 83.9 162.6 84.3 C 162.6 84.3 162.6 84.3 162.6 84.3 Z M 13.3 55.1 C 12.4 55.7 12.3 56.1 12.3 56.4 C 12.9 56.0 13.4 55.7 13.7 55.7 C 14.7 54.9 12.8 56.1 12.6 56.1 C 12.6 55.9 13.4 55.3 13.3 55.1 C 13.3 55.1 13.3 55.1 13.3 55.1 Z M 10.5 57.1 C 10.3 57.5 9.8 57.9 9.9 58.1 C 10.4 57.7 10.5 57.7 10.6 57.8 C 10.9 57.3 10.3 57.6 10.5 57.1 C 10.5 57.1 10.5 57.1 10.5 57.1 Z M 16.3 53.7 C 15.8 54.0 16.1 54.1 16.1 54.2 C 16.7 53.8 16.9 53.9 17.6 53.5 C 17.5 53.4 17.5 53.3 17.5 53.3 C 16.9 53.6 16.9 53.7 16.4 53.9 C 16.3 53.9 16.3 53.8 16.3 53.7 C 16.3 53.7 16.3 53.7 16.3 53.7 Z M 8.3 59.4 C 7.0 60.6 6.9 61.4 6.5 62.5 C 7.2 61.5 7.5 60.4 8.3 59.9 C 9.0 59.1 7.9 60.0 7.9 59.9 C 7.9 59.8 8.1 59.6 8.3 59.4 C 8.3 59.4 8.3 59.4 8.3 59.4 Z M 2.7 71.4 C 2.5 71.7 2.9 72.2 3.0 73.1 C 3.1 72.9 3.1 72.8 3.2 72.7 C 3.1 71.6 2.7 72.3 2.7 71.4 C 2.7 71.4 2.7 71.4 2.7 71.4 Z M 5.1 78.1 C 5.6 78.7 5.0 77.7 5.4 77.9 C 4.9 77.2 4.5 76.4 4.3 76.5 C 4.9 77.2 5.0 77.4 5.1 78.1 C 5.1 78.1 5.1 78.1 5.1 78.1 Z M 8.9 82.4 C 9.7 82.9 8.8 81.9 9.3 82.0 C 9.0 81.7 8.9 81.9 8.9 81.9 C 8.7 81.7 8.5 81.5 8.2 81.2 C 8.3 81.5 9.2 82.3 8.9 82.4 C 8.9 82.4 8.9 82.4 8.9 82.4 Z M 39.6 45.8 C 39.0 46.0 39.2 46.2 38.1 46.4 C 39.8 46.0 39.0 46.9 41.3 46.3 C 40.9 46.3 41.2 46.1 41.3 46.2 C 42.1 45.9 40.4 46.3 41.2 45.8 C 40.6 46.0 41.0 46.2 40.4 46.4 C 39.7 46.3 39.2 46.2 39.6 45.8 C 39.6 45.8 39.6 45.8 39.6 45.8 Z M 41.4 46.5 C 42.0 46.5 41.9 46.0 42.3 46.2 C 42.6 46.1 42.5 46.0 42.6 45.9 C 42.3 46.0 42.3 46.0 42.2 45.9 C 41.7 46.1 41.2 46.3 41.4 46.5 C 41.4 46.5 41.4 46.5 41.4 46.5 Z M 35.6 48.0 C 36.6 47.6 36.9 47.7 37.4 47.3 C 37.8 47.6 38.0 47.0 38.6 47.2 C 39.6 46.9 38.8 47.0 38.5 46.9 C 39.5 46.5 38.8 47.1 39.8 46.7 C 39.9 46.4 38.7 46.8 38.8 46.5 C 38.0 46.7 38.0 46.9 37.6 47.0 C 37.2 47.1 37.3 47.0 37.2 46.9 C 36.4 47.2 36.4 47.0 35.7 47.2 C 35.6 47.4 35.9 47.4 36.7 47.2 C 35.9 47.5 35.6 47.8 34.6 47.9 C 35.2 47.5 32.3 48.3 32.6 48.6 C 33.4 48.4 33.1 48.3 33.4 48.1 C 34.5 48.0 35.1 47.8 35.6 48.0 C 35.6 48.0 35.6 48.0 35.6 48.0 Z M 17.0 54.2 C 16.7 54.4 16.4 54.5 15.9 54.8 C 15.8 54.6 16.4 54.3 15.7 54.5 C 15.0 54.9 14.8 55.1 14.4 55.4 C 14.7 55.3 16.4 54.6 15.6 55.2 C 15.9 55.1 16.5 54.9 17.1 54.5 C 16.2 54.7 18.3 53.9 19.1 53.6 C 18.8 53.3 20.5 53.0 21.0 52.5 C 20.4 52.5 18.9 53.5 18.2 53.8 C 18.5 53.6 16.1 54.3 17.0 54.2 C 17.0 54.2 17.0 54.2 17.0 54.2 Z M 43.9 45.8 C 44.0 45.7 44.7 45.5 44.2 45.6 C 44.4 45.5 45.0 45.5 44.7 45.2 C 45.1 45.1 45.4 45.0 45.7 45.0 C 45.6 45.1 44.7 45.2 45.1 45.4 C 45.7 45.2 45.5 45.3 46.4 45.2 C 46.0 45.5 46.5 45.4 46.2 45.8 C 46.4 45.6 47.2 45.5 47.1 45.3 C 48.3 45.1 46.8 45.7 48.5 45.4 C 48.5 45.6 47.3 45.8 46.9 45.7 C 46.7 46.0 48.9 45.4 50.1 45.3 C 49.0 45.3 49.8 44.9 50.3 44.6 C 50.7 44.6 50.4 44.8 51.1 44.8 C 51.6 44.7 51.9 44.5 52.1 44.7 C 52.5 44.6 52.3 44.4 52.3 44.3 C 53.1 44.2 52.6 44.6 53.7 44.4 C 52.8 44.2 53.8 44.0 55.4 43.8 C 55.2 43.8 54.7 43.8 54.7 43.7 C 54.9 43.5 55.8 43.7 56.0 43.7 C 56.6 43.6 56.2 43.5 55.7 43.6 C 56.0 43.5 56.3 43.4 56.7 43.3 C 55.0 43.5 52.3 43.9 49.2 44.1 C 49.9 44.2 49.2 44.3 48.3 44.4 C 48.1 44.3 48.5 44.2 48.9 44.1 C 47.8 44.0 48.0 44.6 46.3 44.8 C 45.4 44.9 47.3 44.4 46.3 44.5 C 45.7 44.6 45.3 44.9 45.0 44.7 C 44.0 45.0 43.8 45.4 42.2 45.7 C 43.1 45.6 43.6 46.1 44.5 45.8 C 44.5 45.7 44.1 45.8 43.9 45.8 C 43.9 45.8 43.9 45.8 43.9 45.8 Z M 10.7 57.9 C 10.2 58.3 10.1 58.6 9.9 58.6 C 9.1 59.3 10.1 58.7 10.3 58.6 C 10.7 58.3 10.7 58.1 10.7 57.9 C 10.7 57.9 10.7 57.9 10.7 57.9 Z M 79.8 100.6 C 81.2 100.7 80.9 100.4 82.0 100.4 C 81.1 100.3 80.9 100.1 79.5 100.1 C 79.4 100.3 79.4 100.5 79.8 100.6 C 79.8 100.6 79.8 100.6 79.8 100.6 Z M 13.8 55.9 C 14.4 55.2 13.0 56.8 12.9 56.6 C 12.1 57.3 13.8 56.2 13.1 56.9 C 13.8 56.3 14.4 56.2 15.3 55.4 C 15.2 55.3 14.4 55.8 13.6 56.3 C 13.4 56.3 13.8 56.0 13.8 55.9 C 13.8 55.9 13.8 55.9 13.8 55.9 Z M 66.0 99.1 C 65.0 99.2 66.8 99.6 67.3 99.8 C 67.4 99.4 67.1 99.5 66.0 99.1 C 66.0 99.1 66.0 99.1 66.0 99.1 Z M 89.2 100.3 C 89.8 100.0 87.6 100.3 88.1 100.0 C 87.5 99.9 87.4 100.0 87.4 100.1 C 87.1 100.0 86.1 100.1 86.3 99.9 C 86.2 99.7 88.0 99.9 87.4 99.6 C 88.0 99.6 88.0 99.7 88.5 99.7 C 87.4 99.7 87.9 100.0 89.2 100.0 C 89.2 99.8 88.6 99.9 89.2 99.7 C 89.3 99.8 90.0 100.0 89.9 100.3 C 91.1 100.3 90.4 99.9 91.7 99.9 C 91.6 99.7 90.8 99.8 90.3 99.7 C 90.4 99.4 91.7 99.9 91.4 99.5 C 91.6 99.7 92.4 99.8 92.5 100.1 C 91.4 100.2 90.8 100.4 89.9 100.5 C 90.7 100.6 91.8 100.1 93.2 100.3 C 93.0 100.1 93.8 100.1 93.5 99.9 C 94.6 99.9 94.1 100.2 93.9 100.3 C 94.2 100.4 96.2 100.2 96.1 100.0 C 96.2 100.2 98.7 100.1 98.6 99.8 C 99.3 99.9 100.4 99.5 100.7 99.8 C 101.1 99.7 102.0 99.7 102.9 99.6 C 103.1 99.3 101.5 99.6 101.4 99.4 C 101.1 99.2 103.1 99.3 102.8 99.1 C 102.8 99.1 102.8 99.0 102.8 99.0 C 102.1 99.1 101.4 99.2 100.7 99.3 C 100.2 99.3 100.8 99.2 100.7 99.1 C 100.2 99.3 97.9 99.7 97.8 99.2 C 96.3 99.4 95.2 99.4 94.6 99.6 C 93.7 99.6 95.1 99.4 94.6 99.3 C 91.9 99.7 88.6 99.3 86.3 99.7 C 85.9 99.7 86.0 99.5 86.0 99.4 C 82.9 99.5 85.5 99.9 83.1 99.8 C 83.1 99.5 84.2 99.6 84.2 99.4 C 83.3 99.4 83.1 99.5 82.0 99.4 C 82.0 99.5 82.0 99.6 82.0 99.7 C 81.1 99.7 81.4 99.4 80.9 99.3 C 79.8 99.4 80.1 99.5 79.5 99.2 C 78.4 99.3 77.4 99.3 76.3 99.1 C 75.5 99.3 76.9 99.7 78.1 99.8 C 78.0 99.8 77.7 99.8 77.7 99.9 C 76.3 99.7 76.2 99.2 74.1 99.0 C 75.7 99.4 73.3 99.1 73.1 98.9 C 72.2 98.9 72.8 99.2 73.4 99.2 C 73.3 99.3 72.8 99.2 72.7 99.1 C 72.6 99.5 74.5 99.8 76.6 99.7 C 75.6 100.1 78.1 99.7 77.0 100.2 C 78.6 100.2 77.2 99.9 79.1 100.0 C 78.9 99.8 78.6 99.8 78.4 99.6 C 79.9 99.6 79.4 100.0 80.9 99.9 C 81.2 99.7 80.2 99.8 80.2 99.6 C 81.8 99.9 82.4 100.0 83.5 100.2 C 83.7 100.1 83.4 99.9 85.3 100.0 C 85.3 100.1 85.3 100.1 85.3 100.2 C 84.4 100.1 84.2 100.6 86.3 100.6 C 86.5 100.4 85.8 100.4 85.2 100.4 C 85.5 100.3 86.2 100.2 87.0 100.2 C 87.5 100.2 88.0 100.3 87.4 100.4 C 87.7 100.6 88.1 100.1 89.2 100.3 C 89.2 100.3 89.2 100.3 89.2 100.3 Z M 3.2 70.0 C 3.3 70.3 3.3 70.5 3.3 70.9 C 3.5 71.0 3.5 70.3 3.6 70.3 C 3.7 69.8 3.3 70.2 3.2 70.0 C 3.2 70.0 3.2 70.0 3.2 70.0 Z M 6.1 62.9 C 5.9 62.9 5.9 63.4 5.5 63.9 C 5.6 64.2 5.9 63.5 6.1 63.6 C 6.5 63.0 5.6 63.5 6.1 62.9 C 6.1 62.9 6.1 62.9 6.1 62.9 Z M 4.4 65.9 C 4.1 66.1 4.4 66.2 4.6 65.7 C 4.7 65.8 4.8 65.9 4.7 66.3 C 5.1 66.0 4.8 65.6 5.2 65.0 C 4.9 65.2 4.7 65.5 4.4 65.9 C 4.4 65.9 4.4 65.9 4.4 65.9 Z M 4.0 66.9 C 4.1 67.3 3.8 67.5 3.7 68.2 C 3.9 68.1 4.3 66.7 4.3 66.4 C 4.2 66.1 3.7 67.7 4.0 66.9 C 4.0 66.9 4.0 66.9 4.0 66.9 Z M 52.3 97.1 C 52.6 97.1 52.6 97.0 52.6 97.0 C 53.6 97.5 55.1 97.6 53.9 97.8 C 55.0 97.8 56.0 98.2 56.9 98.4 C 57.7 98.5 57.3 98.2 58.0 98.3 C 59.0 98.5 57.4 98.4 57.6 98.5 C 57.8 98.7 58.1 98.3 59.3 98.6 C 59.0 98.2 60.4 98.8 60.0 98.3 C 60.7 98.6 60.9 98.4 61.8 98.5 C 61.7 98.3 60.9 98.3 60.8 98.1 C 60.4 97.8 60.3 98.3 61.1 98.3 C 60.6 98.5 59.4 98.0 59.0 98.1 C 58.6 97.8 60.2 98.2 59.8 97.9 C 59.4 97.9 59.1 97.9 59.1 98.0 C 58.6 97.9 58.2 97.7 58.1 97.6 C 58.4 97.6 58.4 97.7 58.4 97.7 C 59.0 97.8 57.8 97.2 59.1 97.4 C 58.9 97.3 58.3 97.2 58.5 97.1 C 58.1 96.9 58.4 97.8 57.1 97.3 C 56.1 97.4 59.2 97.8 58.3 98.2 C 56.4 97.9 57.5 97.7 56.0 97.4 C 56.0 97.5 56.0 97.6 55.6 97.6 C 55.7 97.7 56.3 97.7 56.6 97.8 C 56.6 97.9 56.0 97.8 55.6 97.8 C 55.7 97.8 56.0 97.9 56.0 98.0 C 54.7 97.7 54.9 97.2 56.1 97.2 C 56.0 97.0 54.5 96.8 54.0 96.9 C 54.4 97.1 54.0 97.0 54.3 97.3 C 54.6 97.4 54.6 97.3 54.7 97.2 C 55.3 97.4 54.7 97.4 54.6 97.5 C 54.0 97.3 54.0 97.1 53.3 97.2 C 53.5 97.1 53.7 97.1 53.7 97.0 C 53.3 96.9 53.0 96.9 52.7 96.8 C 52.7 97.0 52.3 96.9 52.3 97.1 C 52.3 97.1 52.3 97.1 52.3 97.1 Z M 70.2 99.8 C 71.3 99.9 70.7 99.6 70.2 99.6 C 70.4 99.5 70.8 99.5 71.3 99.5 C 70.9 99.4 70.6 99.4 69.5 99.3 C 70.5 99.1 69.5 98.5 67.8 98.4 C 67.2 98.9 68.7 99.1 68.1 99.3 C 69.4 99.2 70.1 99.4 70.2 99.8 C 70.2 99.8 70.2 99.8 70.2 99.8 Z M 10.4 58.7 C 9.9 59.1 9.3 59.5 8.9 60.0 C 9.1 60.1 10.8 58.9 10.4 58.7 C 10.4 58.7 10.4 58.7 10.4 58.7 Z M 58.1 43.4 C 58.4 43.3 58.4 43.4 58.4 43.4 C 59.4 43.2 57.9 43.3 58.4 43.0 C 58.0 43.1 57.7 43.1 57.4 43.2 C 57.3 43.3 58.8 43.2 57.7 43.4 C 57.8 43.5 58.1 43.4 58.1 43.4 C 58.1 43.4 58.1 43.4 58.1 43.4 Z M 3.6 69.5 C 3.6 70.0 3.9 69.7 3.9 70.9 C 4.0 70.5 4.0 70.2 4.0 69.6 C 3.9 69.6 3.7 69.5 3.6 69.5 C 3.6 69.5 3.6 69.5 3.6 69.5 Z M 47.3 96.6 C 48.1 97.0 48.4 96.5 49.9 97.0 C 49.2 96.5 48.2 96.7 47.3 96.6 C 47.3 96.6 47.3 96.6 47.3 96.6 Z M 105.7 99.0 C 105.2 99.0 105.8 98.9 104.9 98.8 C 104.5 98.9 104.3 99.1 103.5 99.2 C 104.6 99.4 106.3 99.0 107.1 99.3 C 107.9 99.2 107.8 98.9 108.1 98.7 C 107.7 98.8 107.5 98.8 107.4 98.7 C 106.9 99.1 106.3 98.6 105.7 99.0 C 105.7 99.0 105.7 99.0 105.7 99.0 Z M 65.6 99.0 C 65.0 98.8 66.1 98.8 66.3 98.6 C 66.8 98.7 66.6 98.9 66.7 99.0 C 67.3 99.0 67.5 98.9 67.4 98.7 C 66.2 98.6 64.8 98.4 65.7 98.2 C 64.6 98.0 65.2 98.4 64.6 98.4 C 64.0 98.2 64.6 98.2 64.7 97.9 C 64.4 98.0 63.5 98.2 63.6 97.8 C 61.9 98.0 62.6 98.5 63.8 99.0 C 65.0 98.8 63.7 98.6 65.6 99.0 C 65.6 99.0 65.6 99.0 65.6 99.0 Z M 23.2 89.4 C 23.3 89.6 24.1 89.9 24.1 90.0 C 25.1 90.1 26.1 90.2 27.1 90.3 C 27.0 90.1 25.6 89.8 26.1 90.1 C 25.8 89.8 24.9 89.4 24.4 89.1 C 23.5 88.7 23.1 89.0 23.1 88.6 C 22.2 88.4 22.7 88.6 21.4 87.9 C 23.4 89.1 20.6 87.8 20.4 87.9 C 21.6 88.5 22.7 89.0 22.6 88.6 C 23.5 89.1 24.5 89.6 24.6 89.9 C 24.5 90.0 23.8 89.6 23.2 89.4 C 23.2 89.4 23.2 89.4 23.2 89.4 Z M 29.1 90.9 C 28.7 90.8 28.3 90.7 27.6 90.4 C 28.0 90.6 28.1 90.8 28.0 90.9 C 29.2 91.3 29.4 91.2 29.5 91.5 C 30.2 91.8 29.5 91.1 30.5 91.6 C 30.4 91.5 29.9 91.3 29.9 91.2 C 29.8 91.4 29.6 91.3 29.1 90.9 C 29.1 90.9 29.1 90.9 29.1 90.9 Z M 38.0 94.0 C 38.8 94.1 37.6 93.7 38.0 93.6 C 37.8 93.6 36.4 93.2 36.6 93.0 C 36.3 92.6 34.6 92.8 34.8 92.5 C 34.5 92.4 34.6 92.5 34.5 92.6 C 35.5 92.8 35.5 93.0 34.7 92.9 C 34.8 93.0 35.5 93.1 35.9 93.3 C 36.0 93.1 35.6 93.0 35.7 92.9 C 36.6 93.2 37.2 93.6 38.0 94.0 C 38.0 94.0 38.0 94.0 38.0 94.0 Z M 96.8 42.3 C 96.0 42.2 95.4 42.2 95.0 42.3 C 95.3 42.4 95.7 42.3 96.1 42.3 C 96.2 42.5 95.8 42.5 95.4 42.5 C 95.8 42.7 97.3 42.5 96.8 42.3 C 96.8 42.3 96.8 42.3 96.8 42.3 Z M 89.6 42.1 C 88.8 42.1 88.3 42.1 88.2 42.2 C 88.5 42.4 88.4 42.2 88.9 42.2 C 89.3 42.2 89.5 42.3 89.6 42.4 C 90.0 42.4 89.9 42.3 90.0 42.3 C 90.3 42.3 90.3 42.3 90.4 42.3 C 91.4 42.1 89.2 42.4 89.6 42.1 C 89.6 42.1 89.6 42.1 89.6 42.1 Z M 33.0 92.4 C 32.8 92.2 32.6 92.1 31.9 91.9 C 32.0 92.1 31.4 91.9 31.0 91.7 C 31.6 92.1 32.0 92.1 33.0 92.4 C 33.0 92.4 33.0 92.4 33.0 92.4 Z M 46.2 45.9 C 45.2 45.9 45.4 46.3 44.0 46.4 C 44.0 46.5 44.0 46.5 44.0 46.6 C 44.8 46.3 45.2 46.3 46.2 45.9 C 46.2 45.9 46.2 45.9 46.2 45.9 Z M 168.8 75.8 C 168.6 75.7 168.3 76.4 168.2 76.4 C 168.4 76.7 167.8 76.7 166.9 78.1 C 166.8 78.1 166.8 77.9 166.9 77.8 C 166.1 78.8 167.3 77.6 167.6 77.6 C 168.1 76.8 168.4 76.7 168.8 75.8 C 168.8 75.8 168.8 75.8 168.8 75.8 Z M 95.0 98.9 C 94.9 98.9 95.1 98.9 95.3 98.9 C 95.5 98.9 95.8 98.9 96.0 98.9 C 95.9 98.6 94.7 98.5 95.6 98.1 C 95.3 98.1 95.3 98.2 95.3 98.2 C 93.6 99.0 92.2 97.8 89.9 98.3 C 89.6 98.3 89.6 98.4 89.6 98.5 C 89.8 98.5 89.9 98.5 89.9 98.6 C 90.2 98.2 92.3 98.6 91.3 98.7 C 91.4 98.8 91.7 98.8 91.7 98.7 C 91.9 98.7 92.2 98.7 92.4 98.7 C 92.3 98.6 91.8 98.6 91.7 98.5 C 92.8 98.5 94.2 98.6 93.5 98.9 C 94.2 98.9 94.5 98.7 94.9 98.6 C 95.4 98.6 95.4 98.9 95.0 98.9 C 95.0 98.9 95.0 98.9 95.0 98.9 Z M 104.2 98.3 C 105.3 98.3 104.8 98.1 105.9 98.0 C 105.2 97.9 104.4 98.2 103.5 98.1 C 103.6 98.2 104.1 98.2 104.2 98.3 C 104.2 98.3 104.2 98.3 104.2 98.3 Z M 83.5 98.6 C 83.7 98.3 82.7 98.2 81.7 98.2 C 81.5 98.5 82.4 98.5 83.5 98.6 C 83.5 98.6 83.5 98.6 83.5 98.6 Z M 88.1 98.6 C 89.2 98.5 86.8 98.5 87.4 98.3 C 86.9 98.3 86.4 98.3 86.3 98.2 C 86.0 98.2 86.0 98.4 85.3 98.3 C 85.3 98.5 86.5 98.4 86.3 98.6 C 87.2 98.4 87.3 98.4 88.1 98.6 C 88.1 98.6 88.1 98.6 88.1 98.6 Z M 88.8 98.6 C 89.5 98.5 88.7 98.1 87.8 98.1 C 88.1 98.3 88.3 98.5 88.8 98.6 C 88.8 98.6 88.8 98.6 88.8 98.6 Z M 10.0 80.2 C 10.4 80.5 10.3 80.1 10.6 80.4 C 10.7 80.3 9.4 79.1 10.5 80.1 C 10.3 79.5 9.8 79.6 9.4 79.1 C 9.5 79.3 9.6 79.5 9.3 79.2 C 9.0 79.2 10.3 80.2 10.0 80.2 C 10.0 80.2 10.0 80.2 10.0 80.2 Z M 11.4 81.4 C 11.7 81.6 11.6 81.5 11.5 81.3 C 11.6 81.3 12.0 81.7 12.3 81.9 C 12.3 82.0 12.0 81.2 12.1 81.1 C 10.8 80.2 11.6 81.2 11.4 81.4 C 11.4 81.4 11.4 81.4 11.4 81.4 Z M 12.8 82.3 C 13.6 83.1 15.1 84.0 15.9 84.2 C 15.3 83.5 13.5 82.4 12.8 82.3 C 12.8 82.3 12.8 82.3 12.8 82.3 Z M 6.6 75.4 C 7.0 76.8 9.1 79.0 7.8 76.7 C 7.7 76.9 6.7 75.4 6.5 74.7 C 6.3 74.7 5.8 73.9 6.0 73.9 C 5.6 73.3 6.6 75.8 6.6 75.4 C 6.6 75.4 6.6 75.4 6.6 75.4 Z M 17.5 84.6 C 16.8 84.4 17.3 85.1 16.6 84.5 C 16.1 84.3 16.7 84.7 16.5 84.7 C 17.5 85.3 20.0 86.3 20.1 86.6 C 20.7 86.8 21.0 86.8 22.1 87.3 C 22.2 87.2 18.0 85.6 17.4 84.7 C 17.5 84.6 18.9 85.3 17.5 84.6 C 17.5 84.6 17.5 84.6 17.5 84.6 Z M 46.5 47.3 C 46.5 47.1 45.2 47.5 45.5 47.2 C 44.8 47.7 44.1 47.6 43.3 48.0 C 43.1 48.0 43.1 47.6 42.0 47.8 C 42.0 48.0 42.6 47.8 42.1 48.1 C 41.1 48.4 41.3 48.0 40.2 48.4 C 40.5 48.7 37.8 49.0 38.2 49.4 C 38.8 49.2 38.7 49.0 39.7 48.8 C 40.0 48.8 39.9 48.9 40.3 48.8 C 40.0 49.1 39.5 48.9 39.1 49.2 C 39.2 49.4 40.0 49.2 40.1 49.3 C 40.5 49.2 39.9 49.2 40.0 49.1 C 41.2 48.7 40.1 49.6 41.4 49.3 C 41.0 49.1 41.0 49.1 41.3 48.8 C 41.8 48.8 43.3 48.3 42.5 48.7 C 42.7 48.9 43.6 48.4 43.4 48.3 C 43.9 48.2 44.0 48.2 44.1 48.3 C 45.4 47.9 45.5 47.7 45.2 47.5 C 45.4 47.2 45.7 47.6 46.5 47.3 C 46.5 47.3 46.5 47.3 46.5 47.3 Z M 5.8 68.5 C 5.8 67.9 5.7 69.0 5.6 69.5 C 5.7 68.9 6.0 69.2 6.2 68.6 C 6.1 68.8 6.0 68.7 6.1 68.3 C 6.0 68.2 5.7 69.1 5.8 68.5 C 5.8 68.5 5.8 68.5 5.8 68.5 Z M 24.7 88.4 C 25.1 88.8 27.5 89.5 28.8 90.0 C 28.7 89.6 25.4 88.9 25.2 88.4 C 24.5 88.2 25.5 88.7 24.7 88.4 C 24.7 88.4 24.7 88.4 24.7 88.4 Z M 34.8 49.8 C 34.5 49.9 34.7 49.9 34.8 49.8 C 34.8 50.0 34.1 50.1 33.7 50.3 C 34.4 50.2 33.6 50.5 33.8 50.7 C 33.5 50.8 33.3 50.9 33.3 51.0 C 33.2 50.5 31.6 51.7 33.4 51.3 C 33.0 51.1 33.1 51.1 33.9 50.8 C 34.7 50.7 35.3 50.3 35.7 50.5 C 36.2 50.4 36.4 50.2 37.1 50.0 C 37.3 50.1 38.0 50.1 37.5 50.5 C 38.8 50.2 37.8 49.9 38.9 49.5 C 39.9 49.4 38.4 49.9 38.7 50.1 C 39.0 50.0 38.9 50.1 39.0 50.1 C 39.4 50.0 39.3 49.8 39.0 49.9 C 39.1 49.8 40.1 49.3 39.8 49.7 C 40.4 49.4 38.7 49.2 37.9 49.7 C 37.5 49.8 37.3 49.4 37.8 49.3 C 37.6 49.1 36.8 49.9 36.9 49.4 C 36.5 49.5 36.1 49.6 35.7 49.7 C 35.8 49.7 36.0 49.7 36.1 49.8 C 35.7 49.9 35.3 50.0 34.9 50.1 C 35.2 49.9 35.2 49.8 34.8 49.8 C 34.8 49.8 34.8 49.8 34.8 49.8 Z M 19.4 86.0 C 20.4 86.4 20.7 86.4 21.5 86.8 C 21.2 86.4 19.1 85.5 19.4 86.0 C 19.4 86.0 19.4 86.0 19.4 86.0 Z M 52.1 47.1 C 52.0 47.0 51.4 47.1 51.4 47.0 C 52.4 46.8 51.3 46.8 52.0 46.3 C 50.7 46.7 50.4 47.3 52.1 47.2 C 53.4 47.0 50.8 47.3 52.1 47.1 C 52.1 47.1 52.1 47.1 52.1 47.1 Z M 48.2 47.6 C 47.4 47.9 49.4 47.6 49.9 47.6 C 49.9 47.7 49.9 47.8 49.9 47.9 C 50.9 47.3 49.4 47.4 50.4 46.8 C 49.1 46.9 48.5 46.9 47.5 47.2 C 47.5 47.3 47.8 47.2 47.8 47.2 C 48.6 47.1 48.1 47.5 47.2 47.5 C 47.5 47.6 48.2 47.5 48.8 47.4 C 48.7 47.4 48.5 47.3 48.5 47.2 C 49.1 47.1 48.9 47.3 49.4 47.2 C 49.5 47.3 48.2 47.7 48.2 47.6 C 48.2 47.6 48.2 47.6 48.2 47.6 Z M 116.6 45.7 C 115.9 45.6 117.3 46.1 117.2 46.5 C 117.9 46.6 118.0 46.5 118.5 46.6 C 118.3 46.4 117.5 46.3 117.2 46.1 C 117.4 45.8 118.2 46.3 118.6 46.1 C 119.0 45.8 116.8 46.0 116.6 45.7 C 116.6 45.7 116.6 45.7 116.6 45.7 Z M 17.9 56.8 C 17.5 57.0 17.8 56.9 17.9 56.8 C 17.9 57.0 17.3 57.3 17.3 57.2 C 16.8 57.5 17.6 57.2 17.0 57.5 C 17.0 57.7 18.0 57.0 18.0 56.9 C 18.7 56.5 18.3 57.1 18.5 57.1 C 19.2 56.7 18.9 56.6 19.9 56.2 C 19.2 56.4 18.6 56.5 17.9 56.8 C 17.9 56.8 17.9 56.8 17.9 56.8 Z M 54.3 46.2 C 54.4 46.1 53.6 46.7 52.7 46.7 C 51.6 46.9 53.5 46.8 52.4 46.9 C 53.3 46.9 54.3 46.5 55.7 46.3 C 56.0 46.1 53.8 46.5 55.0 46.2 C 54.9 46.1 54.7 46.2 54.7 46.3 C 54.4 46.3 54.4 46.3 54.3 46.2 C 54.3 46.2 54.3 46.2 54.3 46.2 Z M 53.1 47.0 C 53.2 47.1 53.5 47.0 53.4 47.0 C 53.9 46.9 53.9 47.1 53.5 47.2 C 54.1 47.4 54.0 46.9 55.1 46.9 C 54.6 46.7 54.4 46.6 55.4 46.7 C 56.2 46.3 53.5 46.8 53.1 47.0 C 53.1 47.0 53.1 47.0 53.1 47.0 Z M 105.6 44.7 C 105.7 44.8 106.4 44.8 107.0 44.9 C 106.3 45.0 103.4 44.7 103.1 44.5 C 102.8 44.6 102.5 44.6 102.4 44.5 C 102.4 44.6 101.6 44.6 102.0 44.7 C 102.0 44.8 101.3 44.7 101.3 44.8 C 100.3 44.7 101.7 44.7 101.4 44.5 C 100.1 44.6 100.4 44.5 98.9 44.4 C 99.1 44.6 100.8 44.6 100.6 44.9 C 101.8 44.7 103.0 45.0 103.7 45.3 C 102.7 44.8 106.8 45.0 108.7 45.2 C 108.6 45.4 109.3 45.4 110.0 45.6 C 110.5 45.9 110.4 45.3 109.4 45.3 C 109.4 45.2 110.8 45.5 111.4 45.5 C 110.7 45.3 111.2 45.2 110.8 45.1 C 109.4 44.9 110.6 45.1 110.4 45.3 C 110.1 45.3 109.7 45.2 109.4 45.2 C 111.2 45.0 106.7 44.9 108.3 45.0 C 106.9 44.9 106.9 44.6 105.6 44.7 C 105.6 44.7 105.6 44.7 105.6 44.7 Z M 72.2 44.4 C 72.0 44.4 70.9 44.7 70.8 44.5 C 69.4 44.8 70.7 44.9 69.1 45.0 C 69.2 45.1 69.8 45.0 69.8 45.1 C 70.4 45.0 71.0 44.9 70.8 44.6 C 71.5 44.6 71.7 44.5 72.2 44.5 C 72.1 44.6 71.8 44.7 71.2 44.7 C 71.1 44.9 71.3 45.0 72.2 45.0 C 72.6 44.7 72.4 44.6 72.2 44.4 C 72.2 44.4 72.2 44.4 72.2 44.4 Z M 68.7 45.0 C 68.5 44.9 68.3 44.9 68.4 44.7 C 67.8 44.5 68.2 45.1 67.7 45.1 C 67.3 45.1 67.4 45.0 67.3 44.9 C 66.7 45.0 66.2 45.1 65.9 45.0 C 65.0 45.2 67.0 45.2 67.3 45.2 C 68.0 45.2 67.8 45.0 68.7 45.0 C 68.7 45.0 68.7 45.0 68.7 45.0 Z M 58.4 45.8 C 58.2 45.6 57.9 46.0 57.4 46.0 C 57.7 46.2 58.7 45.9 58.1 46.3 C 59.1 46.2 59.2 46.2 60.1 46.0 C 60.8 46.2 60.1 45.8 59.1 46.1 C 59.2 46.0 59.7 45.9 59.7 45.8 C 60.5 46.2 62.1 45.2 61.1 45.7 C 60.8 45.7 60.6 45.6 60.4 45.5 C 60.2 45.8 57.9 45.9 58.4 45.8 C 58.4 45.8 58.4 45.8 58.4 45.8 Z M 26.5 53.4 C 28.3 52.7 28.9 52.5 30.0 52.2 C 30.1 52.2 30.0 52.3 29.8 52.4 C 30.1 52.4 30.4 52.3 30.9 52.1 C 30.8 52.0 30.6 52.1 30.6 52.1 C 29.7 52.3 30.4 52.0 30.5 51.8 C 29.4 51.9 27.7 53.0 26.8 53.0 C 26.2 53.3 27.0 53.0 26.5 53.4 C 26.5 53.4 26.5 53.4 26.5 53.4 Z M 167.3 74.1 C 167.4 74.3 167.2 74.6 167.4 74.6 C 167.5 74.3 167.5 74.1 167.6 73.8 C 167.3 74.3 167.1 74.1 166.7 74.8 C 166.9 74.6 167.1 74.8 167.3 74.1 C 167.3 74.1 167.3 74.1 167.3 74.1 Z M 61.8 45.4 C 61.8 45.6 61.9 45.7 61.5 45.7 C 61.4 45.9 62.5 45.7 62.5 45.9 C 62.9 45.8 62.7 45.7 63.2 45.6 C 63.0 45.5 62.1 45.7 62.5 45.4 C 62.8 45.3 62.8 45.4 62.8 45.4 C 63.5 45.2 62.4 45.3 61.8 45.4 C 61.8 45.4 61.8 45.4 61.8 45.4 Z M 119.9 46.4 C 119.4 46.3 119.9 46.5 120.2 46.6 C 119.2 46.7 120.7 47.0 120.8 47.3 C 120.4 47.0 119.0 47.0 118.8 46.9 C 118.4 46.9 118.9 47.1 117.8 47.0 C 117.9 47.3 119.1 47.2 118.8 47.0 C 119.1 47.3 120.2 47.2 120.1 47.4 C 121.6 47.7 121.9 47.6 122.1 47.4 C 120.7 47.2 121.5 46.9 120.2 46.8 C 120.2 46.7 120.6 46.8 120.8 46.8 C 120.8 46.7 120.2 46.5 119.9 46.4 C 119.9 46.4 119.9 46.4 119.9 46.4 Z M 83.6 44.1 C 82.8 44.1 82.8 44.3 82.8 44.5 C 83.2 44.5 83.6 44.4 84.3 44.4 C 84.1 44.3 83.2 44.4 83.6 44.1 C 83.6 44.1 83.6 44.1 83.6 44.1 Z M 114.5 46.0 C 114.4 45.9 114.1 45.9 114.1 45.9 C 113.3 45.8 113.1 45.7 112.8 45.5 C 112.3 45.5 112.5 45.7 112.4 45.8 C 113.3 45.7 113.1 46.0 114.1 46.1 C 114.1 46.0 114.2 46.0 114.5 46.0 C 114.5 46.0 114.5 46.0 114.5 46.0 Z M 91.0 44.3 C 90.6 44.3 90.8 44.3 91.0 44.4 C 90.5 44.6 89.1 44.4 88.5 44.5 C 88.5 44.7 90.3 44.7 88.2 44.7 C 88.6 44.9 90.4 44.8 91.4 44.8 C 91.2 45.1 89.9 45.0 90.0 45.3 C 91.1 45.2 92.3 45.1 92.5 44.7 C 90.9 44.6 91.4 44.4 91.0 44.3 C 91.0 44.3 91.0 44.3 91.0 44.3 Z M 92.8 44.5 C 92.7 44.3 92.4 44.5 91.8 44.4 C 92.6 44.8 93.2 44.6 94.9 44.8 C 95.0 44.7 95.0 44.7 95.0 44.6 C 95.3 44.6 95.7 44.6 96.0 44.6 C 94.5 44.3 94.1 44.5 92.5 44.5 C 92.4 44.5 92.6 44.5 92.8 44.5 C 92.8 44.5 92.8 44.5 92.8 44.5 Z M 46.6 48.1 C 47.1 48.1 47.5 48.2 48.3 48.1 C 48.2 47.9 47.7 47.8 46.6 48.1 C 46.6 48.1 46.6 48.1 46.6 48.1 Z M 115.8 46.3 C 116.7 46.3 114.9 46.2 115.4 46.5 C 116.2 46.7 116.9 46.9 117.1 47.1 C 118.4 47.0 115.6 46.6 115.8 46.3 C 115.8 46.3 115.8 46.3 115.8 46.3 Z M 109.6 46.2 C 109.2 46.1 109.3 45.8 109.6 46.0 C 110.6 46.1 108.8 45.7 110.3 45.9 C 109.7 45.8 108.3 45.5 107.6 45.6 C 107.6 45.8 108.9 45.8 108.9 46.0 C 109.0 46.1 108.8 46.1 108.6 46.1 C 108.7 46.2 109.0 46.1 109.6 46.2 C 109.6 46.2 109.6 46.2 109.6 46.2 Z M 104.5 45.3 C 105.0 45.5 105.7 45.7 106.9 45.8 C 106.1 45.5 105.7 45.3 104.5 45.3 C 104.5 45.3 104.5 45.3 104.5 45.3 Z M 164.5 64.3 C 164.1 63.9 164.3 64.4 164.3 64.5 C 164.6 65.0 164.8 64.9 165.1 65.4 C 165.2 65.1 164.6 64.8 164.5 64.3 C 164.5 64.3 164.5 64.3 164.5 64.3 Z M 165.6 66.1 C 165.5 66.2 166.0 66.8 165.8 66.9 C 166.4 67.1 166.0 67.9 166.3 67.8 C 166.3 67.9 166.4 68.1 166.4 68.3 C 166.7 67.7 166.0 66.6 165.6 66.1 C 165.6 66.1 165.6 66.1 165.6 66.1 Z M 98.4 45.5 C 97.5 45.4 98.7 45.9 97.7 45.8 C 97.7 45.9 99.5 46.0 98.4 46.0 C 99.8 46.3 98.3 45.5 98.4 45.5 C 98.4 45.5 98.4 45.5 98.4 45.5 Z M 81.1 45.5 C 81.2 45.3 79.9 45.5 79.3 45.5 C 79.3 45.6 79.8 45.5 80.0 45.6 C 79.9 45.6 79.7 45.7 79.3 45.7 C 79.6 45.9 80.6 45.6 81.1 45.5 C 81.1 45.5 81.1 45.5 81.1 45.5 Z M 100.5 41.4 C 101.0 41.7 101.8 41.9 102.2 41.6 C 102.8 41.8 101.8 41.8 102.5 42.0 C 103.6 41.9 103.1 42.2 104.7 42.1 C 104.4 42.4 105.5 42.5 105.7 42.7 C 105.1 42.7 104.3 42.4 103.9 42.6 C 104.5 42.6 104.2 42.8 103.9 42.6 C 102.9 42.4 105.3 42.4 104.0 42.2 C 103.6 42.5 101.7 41.8 100.4 41.7 C 100.9 41.6 99.5 41.4 100.5 41.4 C 100.5 41.4 100.5 41.4 100.5 41.4 Z M 106.8 42.3 C 107.7 42.4 108.1 42.9 107.8 42.9 C 107.8 42.8 106.9 42.7 106.8 42.8 C 107.0 42.8 107.2 42.8 107.1 42.9 C 105.6 42.7 106.1 42.6 105.7 42.4 C 106.6 42.3 106.8 42.5 107.2 42.4 C 107.0 42.4 106.8 42.4 106.8 42.3 C 106.8 42.3 106.8 42.3 106.8 42.3 Z M 124.3 48.5 C 124.1 48.4 123.9 48.5 123.6 48.5 C 123.6 48.1 121.9 48.3 121.7 48.1 C 122.1 48.0 122.9 48.2 123.3 48.1 C 122.9 48.0 122.8 47.9 122.3 48.0 C 122.5 47.8 123.4 47.9 123.7 47.8 C 123.8 47.9 124.2 47.8 124.4 48.0 C 123.1 47.9 125.0 48.6 124.3 48.5 C 124.3 48.5 124.3 48.5 124.3 48.5 Z M 90.3 45.5 C 90.2 45.8 91.7 46.4 90.3 46.7 C 90.0 46.5 89.8 46.2 89.9 45.9 C 89.1 46.1 88.7 45.8 88.2 46.1 C 86.6 45.4 89.4 46.2 90.3 45.5 C 90.3 45.5 90.3 45.5 90.3 45.5 Z M 84.6 45.8 C 84.9 45.5 84.1 45.6 84.3 45.4 C 85.0 45.5 87.2 45.3 86.4 45.4 C 85.7 45.5 85.7 45.8 84.6 45.8 C 84.6 45.8 84.6 45.8 84.6 45.8 Z M 43.9 93.7 C 42.8 93.6 42.4 93.1 43.0 93.1 C 42.7 93.3 44.3 93.5 43.9 93.7 C 43.9 93.7 43.9 93.7 43.9 93.7 Z M 5.0 79.3 C 5.4 80.1 5.9 80.5 5.8 80.7 C 5.1 80.0 5.3 80.0 4.9 79.4 C 4.8 79.4 4.4 79.1 4.4 78.9 C 4.7 79.3 4.8 79.1 5.0 79.3 C 5.0 79.3 5.0 79.3 5.0 79.3 Z M 62.7 41.3 C 62.6 41.2 62.2 41.2 62.4 41.0 C 63.4 41.0 64.6 40.7 65.5 40.5 C 65.5 40.6 65.5 40.7 65.5 40.8 C 63.8 40.9 63.4 41.1 62.7 41.3 C 62.7 41.3 62.7 41.3 62.7 41.3 Z M 60.6 41.1 C 60.4 41.2 61.0 41.4 60.3 41.5 C 60.3 41.3 59.0 41.2 59.6 41.1 C 59.8 41.3 60.1 41.2 60.6 41.1 C 60.6 41.1 60.6 41.1 60.6 41.1 Z M 120.4 43.2 C 121.2 43.3 120.0 42.9 120.1 42.8 C 120.7 43.0 121.5 43.1 121.7 43.2 C 121.1 43.1 120.7 43.5 120.4 43.2 C 120.4 43.2 120.4 43.2 120.4 43.2 Z M 107.5 42.3 C 105.7 42.2 106.5 41.8 104.7 41.6 C 105.5 41.5 107.1 41.7 107.6 41.5 C 107.5 41.6 108.0 41.7 107.9 41.8 C 107.3 41.8 107.2 41.7 106.5 41.6 C 106.7 41.9 106.7 41.8 106.5 42.0 C 107.0 42.1 107.3 42.1 107.5 42.0 C 107.4 42.2 108.0 42.3 107.5 42.3 C 107.5 42.3 107.5 42.3 107.5 42.3 Z M 119.9 43.8 C 120.6 43.8 121.2 44.2 120.6 44.1 C 120.5 44.0 120.0 44.1 119.9 43.9 C 120.9 44.0 119.1 43.7 119.6 43.6 C 120.2 43.7 120.4 43.6 120.3 43.4 C 120.7 43.5 121.3 43.6 121.3 43.7 C 121.1 43.6 120.7 43.6 120.7 43.7 C 120.9 43.7 121.1 43.7 121.0 43.8 C 120.4 43.7 120.1 43.7 119.9 43.8 C 119.9 43.8 119.9 43.8 119.9 43.8 Z M 115.2 43.2 C 116.1 43.3 116.2 43.5 116.5 43.7 C 115.2 43.5 115.1 43.1 114.2 42.9 C 115.2 43.1 116.3 42.9 116.6 43.1 C 116.1 43.1 115.3 43.0 115.2 43.2 C 115.2 43.2 115.2 43.2 115.2 43.2 Z M 133.1 94.8 C 132.3 94.8 131.7 94.8 130.8 94.9 C 130.6 95.2 132.3 95.3 131.6 95.3 C 130.7 95.5 131.2 95.1 130.6 95.2 C 131.3 95.4 127.6 96.1 127.4 95.8 C 127.9 95.7 128.1 95.6 128.0 95.4 C 129.5 95.2 130.0 94.9 131.1 94.6 C 132.0 94.7 134.3 94.3 135.4 93.7 C 136.4 93.9 137.7 93.0 138.8 93.1 C 139.1 92.9 137.9 93.1 138.7 92.8 C 139.4 92.9 139.0 93.1 139.8 93.0 C 139.8 92.9 139.6 92.8 140.0 92.6 C 140.0 92.8 140.4 92.7 140.6 92.7 C 139.0 93.1 140.8 93.0 139.6 93.4 C 139.0 93.4 140.0 92.9 138.6 93.3 C 138.1 93.5 137.6 93.7 137.8 93.9 C 137.3 94.0 137.1 94.1 136.9 94.2 C 137.4 93.8 134.8 94.8 135.9 94.2 C 136.0 94.2 136.8 94.0 137.4 93.7 C 136.8 93.6 136.2 93.9 135.3 94.3 C 134.8 94.2 135.4 94.0 134.9 94.0 C 134.2 94.4 135.3 94.3 134.7 94.6 C 135.0 94.5 135.3 94.4 135.3 94.5 C 134.0 94.6 133.5 95.0 132.9 95.1 C 133.3 94.8 132.1 95.1 133.1 94.8 C 133.1 94.8 133.1 94.8 133.1 94.8 Z M 143.7 91.6 C 144.0 91.5 144.3 91.4 144.6 91.3 C 144.7 91.5 143.6 91.9 144.4 91.9 C 143.2 92.2 144.4 91.6 143.7 91.6 C 143.7 91.6 143.7 91.6 143.7 91.6 Z M 137.7 92.4 C 137.2 92.3 137.6 92.8 137.2 92.9 C 137.9 92.7 138.5 92.4 138.7 92.7 C 137.8 92.8 137.5 92.9 136.6 93.2 C 137.4 92.6 135.6 93.2 135.3 93.0 C 135.9 92.7 136.4 92.5 137.3 92.3 C 137.2 92.4 138.5 92.2 137.7 92.4 C 137.7 92.4 137.7 92.4 137.7 92.4 Z M 140.0 91.5 C 140.2 91.6 141.4 91.1 141.2 91.4 C 140.4 91.6 140.2 91.8 140.4 91.9 C 139.8 92.1 139.7 92.0 139.2 92.2 C 138.8 92.0 139.7 91.8 140.0 91.5 C 139.8 91.6 139.6 91.6 140.0 91.5 C 140.0 91.5 140.0 91.5 140.0 91.5 Z M 163.6 78.1 C 164.0 78.2 163.1 78.8 162.9 78.9 C 163.3 78.9 163.2 79.1 162.7 79.6 C 162.7 79.2 162.0 80.0 161.2 80.1 C 161.2 80.5 162.0 80.0 161.2 80.7 C 160.5 81.1 159.9 81.6 158.8 82.4 C 158.4 82.4 158.9 82.0 159.1 81.7 C 158.4 82.3 158.5 82.0 157.9 82.3 C 158.0 82.4 157.6 82.8 157.3 82.8 C 158.4 82.1 155.7 83.4 156.8 82.6 C 156.9 82.7 157.2 82.5 157.4 82.3 C 157.3 82.7 158.7 81.7 159.1 81.7 C 159.3 80.8 160.8 80.0 162.3 79.1 C 162.4 79.1 162.1 79.5 162.4 79.3 C 162.4 79.1 162.8 78.8 162.9 78.6 C 163.0 78.7 163.2 78.6 163.5 78.4 C 163.5 78.3 163.5 78.3 163.6 78.1 C 163.6 78.1 163.6 78.1 163.6 78.1 Z M 76.4 96.6 C 76.5 96.2 74.2 96.3 73.6 96.4 C 73.7 95.9 77.7 96.2 76.4 96.6 C 76.4 96.6 76.4 96.6 76.4 96.6 Z M 90.2 96.5 C 89.6 96.5 90.1 96.7 89.5 96.7 C 89.5 96.5 88.2 97.0 88.1 96.8 C 88.8 96.5 89.2 96.5 90.2 96.5 C 90.2 96.5 90.2 96.5 90.2 96.5 Z M 103.0 96.1 C 102.0 96.2 103.5 96.2 103.3 96.3 C 102.5 96.3 101.5 96.4 101.6 96.2 C 102.4 96.2 102.9 95.9 103.0 96.1 C 103.0 96.1 103.0 96.1 103.0 96.1 Z M 83.9 96.2 C 83.0 96.1 84.4 95.8 84.6 96.0 C 83.6 96.1 85.2 96.2 86.0 96.2 C 85.9 96.5 85.6 96.4 86.0 96.7 C 84.7 96.8 85.8 96.4 84.9 96.4 C 84.3 96.6 84.9 96.5 84.9 96.7 C 84.6 96.7 84.2 96.7 83.9 96.7 C 83.9 96.6 83.9 96.5 83.9 96.3 C 84.3 96.3 84.7 96.3 84.6 96.2 C 84.2 96.2 84.1 96.2 83.9 96.2 C 83.9 96.2 83.9 96.2 83.9 96.2 Z M 146.7 87.2 C 146.0 87.5 146.7 87.3 147.2 87.2 C 147.3 87.0 147.6 86.4 148.5 86.4 C 146.8 87.2 149.1 86.5 148.2 87.0 C 147.7 86.9 146.8 87.6 145.9 87.8 C 145.5 87.8 146.3 87.1 146.7 87.2 C 146.7 87.2 146.7 87.2 146.7 87.2 Z M 149.9 86.1 C 149.8 86.1 149.5 86.2 149.0 86.4 C 149.4 86.0 148.7 86.3 149.3 85.9 C 149.3 86.1 151.5 85.2 150.2 85.8 C 149.0 86.2 150.6 85.8 151.1 85.6 C 150.5 85.8 149.6 86.5 149.4 86.4 C 149.7 86.3 150.0 86.2 149.9 86.1 C 149.9 86.1 149.9 86.1 149.9 86.1 Z M 165.8 74.1 C 165.7 74.0 165.5 74.3 165.4 74.3 C 165.9 73.5 166.1 72.8 166.2 72.4 C 166.2 72.8 166.3 72.8 166.5 72.6 C 166.3 73.0 166.4 73.2 166.2 73.3 C 166.2 72.9 166.0 73.6 165.8 74.1 C 165.8 74.1 165.8 74.1 165.8 74.1 Z M 165.8 74.1 " fill="#000000"></path></g></g><image xlink:href="B96F23E9B2ABE21F7C4655E3A7B11AAB.png" width="93.00" height="28.00" transform="matrix(1.00, 0.00, -0.00, -1.00, 42.0, 82.0)"></image><g><clipPath id="clip-148"><path d="M 5.5 43.2 L 169.1 43.2 L 169.1 98.2 L 5.5 98.2 Z M 5.5 43.2 "></path></clipPath><g clip-path="url(#clip-148)"><text xml:space="preserve" font-family="Chalkduster" font-size="18.0" fill="#000000" transform="matrix(1.00, 0.00, -0.00, -1.00, 45.0, 62.0)">M</text><text xml:space="preserve" font-family="Chalkduster" font-size="18.0" fill="#000000" transform="matrix(1.00, 0.00, -0.00, -1.00, 60.6, 62.0)">o</text><text xml:space="preserve" font-family="Chalkduster" font-size="18.0" fill="#000000" transform="matrix(1.00, 0.00, -0.00, -1.00, 74.5, 62.0)">d</text><text xml:space="preserve" font-family="Chalkduster" font-size="18.0" fill="#000000" transform="matrix(1.00, 0.00, -0.00, -1.00, 88.9, 62.0)">u</text><text xml:space="preserve" font-family="Chalkduster" font-size="18.0" fill="#000000" transform="matrix(1.00, 0.00, -0.00, -1.00, 101.7, 62.0)">l</text><text xml:space="preserve" font-family="Chalkduster" font-size="18.0" fill="#000000" transform="matrix(1.00, 0.00, -0.00, -1.00, 109.2, 62.0)">e</text><text xml:space="preserve" font-family="Chalkduster" font-size="18.0" fill="#000000" transform="matrix(1.00, 0.00, -0.00, -1.00, 120.8, 62.0)">s</text></g></g><g><clipPath id="clip-149"><path d="M 24.5 -4.2 L 156.9 -4.2 L 156.9 58.7 L 24.5 58.7 Z M 24.5 -4.2 "></path></clipPath><g clip-path="url(#clip-149)"><text xml:space="preserve" font-family="Chalkduster" font-size="30.0" fill="#FEFFFE" transform="matrix(1.00, 0.00, -0.00, -1.00, 34.0, 14.0)">i</text><text xml:space="preserve" font-family="Chalkduster" font-size="30.0" fill="#FEFFFE" transform="matrix(1.00, 0.00, -0.00, -1.00, 45.8, 14.0)">m</text><text xml:space="preserve" font-family="Chalkduster" font-size="30.0" fill="#FEFFFE" transform="matrix(1.00, 0.00, -0.00, -1.00, 76.2, 14.0)">p</text><text xml:space="preserve" font-family="Chalkduster" font-size="30.0" fill="#FEFFFE" transform="matrix(1.00, 0.00, -0.00, -1.00, 95.1, 14.0)">o</text><text xml:space="preserve" font-family="Chalkduster" font-size="30.0" fill="#FEFFFE" transform="matrix(1.00, 0.00, -0.00, -1.00, 117.0, 14.0)">r</text><text xml:space="preserve" font-family="Chalkduster" font-size="30.0" fill="#FEFFFE" transform="matrix(1.00, 0.00, -0.00, -1.00, 132.8, 14.0)">t</text></g></g></g></svg>