<?xml version="1.0" encoding="UTF-8" standalone="no"?><svg xmlns="http://www.w3.org/2000/svg" xmlns:xlink="http://www.w3.org/1999/xlink" clip-rule="evenodd" stroke-miterlimit="4.00" viewBox="0 0 300 132"><desc>SVG generated by Keynote</desc><defs></defs><g transform="matrix(1.00, 0.00, -0.00, -1.00, 0.0, 132.0)"><g><clipPath id="clip-141"><path d="M 13.9 74.2 L 286.4 74.2 L 286.4 131.8 L 13.9 131.8 Z M 13.9 74.2 "></path></clipPath><g clip-path="url(#clip-141)"><path d="M 242.9 119.8 C 294.2 110.5 294.2 95.5 242.9 86.2 C 191.7 76.9 108.6 76.9 57.3 86.2 C 6.1 95.5 6.1 110.5 57.3 119.8 C 108.6 129.1 191.7 129.1 242.9 119.8 Z M 242.9 119.8 " fill="#A8E685"></path><path d="M 80.1 79.0 C 79.7 79.1 79.3 79.2 78.7 79.3 C 79.0 79.3 79.2 79.3 79.2 79.4 C 79.7 79.3 80.5 79.2 81.6 79.1 C 81.5 79.0 81.0 79.1 80.6 79.1 C 80.1 79.2 80.2 79.1 80.1 79.0 C 80.1 79.0 80.1 79.0 80.1 79.0 Z M 82.8 126.8 C 81.8 126.6 82.9 127.0 83.3 127.0 C 83.3 127.0 83.4 127.0 83.8 127.0 C 83.8 127.2 83.0 127.2 82.3 127.2 C 79.6 126.8 81.7 126.6 82.8 126.8 C 82.8 126.8 82.8 126.8 82.8 126.8 Z M 222.9 126.0 C 225.0 125.7 222.8 125.7 222.4 125.7 C 223.4 125.5 222.6 125.2 223.8 125.1 C 224.0 125.1 224.5 125.2 224.8 125.3 C 224.2 125.3 223.4 125.4 223.3 125.5 C 224.1 125.4 225.1 125.3 225.2 125.4 C 223.6 125.6 225.0 125.6 225.3 125.8 C 223.9 125.9 223.4 126.2 222.9 126.0 C 222.9 126.0 222.9 126.0 222.9 126.0 Z M 242.8 83.5 C 243.3 83.6 244.2 83.7 243.9 83.8 C 242.7 83.6 242.7 83.6 242.4 83.5 C 242.3 83.5 242.4 83.7 241.9 83.6 C 241.4 83.3 241.7 83.1 242.0 83.0 C 242.0 83.2 243.9 83.5 242.8 83.5 C 242.8 83.5 242.8 83.5 242.8 83.5 Z M 188.4 78.0 C 186.5 77.8 188.3 78.3 186.3 78.1 C 186.4 77.9 186.1 77.6 187.4 77.7 C 187.5 77.8 188.3 77.9 188.4 78.0 C 188.4 78.0 188.4 78.0 188.4 78.0 Z M 164.6 127.9 C 164.6 128.1 166.1 128.0 165.7 128.2 C 165.0 128.3 164.3 128.3 163.6 128.3 C 163.4 128.1 163.7 128.0 164.6 127.9 C 164.6 127.9 164.6 127.9 164.6 127.9 Z M 236.3 121.8 C 238.3 121.7 240.3 121.0 239.8 121.3 C 240.5 121.5 238.5 122.3 238.5 122.0 C 238.3 121.8 234.7 122.1 236.3 121.8 C 236.3 121.8 236.3 121.8 236.3 121.8 Z M 94.6 123.7 C 96.9 124.1 96.5 123.4 98.1 123.8 C 97.5 123.8 97.3 123.8 97.1 123.9 C 97.5 124.0 98.1 124.0 98.0 124.1 C 96.9 124.0 95.5 124.0 94.6 123.7 C 94.6 123.7 94.6 123.7 94.6 123.7 Z M 114.6 76.8 C 115.0 76.8 115.2 76.7 115.2 76.6 C 116.8 76.6 116.8 76.4 117.8 76.5 C 117.9 76.8 116.5 76.8 115.2 76.8 C 115.2 76.8 114.7 76.9 114.6 76.8 C 114.6 76.8 114.6 76.8 114.6 76.8 Z M 162.2 76.9 C 162.2 76.7 161.2 76.6 162.8 76.6 C 164.6 76.9 163.0 77.1 161.1 77.2 C 161.1 77.3 161.1 77.4 161.1 77.5 C 161.9 77.5 162.3 77.6 162.8 77.6 C 163.1 77.3 164.3 78.0 167.1 77.8 C 165.8 77.9 167.2 78.3 165.4 78.1 C 165.9 78.3 164.7 78.3 164.9 78.5 C 165.6 78.4 167.5 78.4 167.1 78.1 C 168.0 78.1 168.8 78.2 169.2 78.3 C 169.9 78.5 167.5 78.3 168.2 78.6 C 168.7 78.6 168.8 78.6 169.2 78.7 C 169.3 78.6 169.1 78.4 169.8 78.4 C 171.5 78.6 169.4 78.7 171.9 78.8 C 172.1 78.7 171.3 78.6 171.4 78.5 C 172.5 78.4 172.4 78.6 173.5 78.5 C 173.7 78.6 172.7 78.6 173.5 78.7 C 174.2 78.4 175.8 79.0 177.3 78.8 C 176.3 78.2 177.5 78.9 178.9 78.4 C 179.2 78.6 178.2 78.9 179.4 78.9 C 179.0 78.3 183.8 78.7 180.0 78.0 C 182.0 78.1 182.7 77.6 181.1 77.5 C 184.6 77.8 183.5 77.4 184.8 77.4 C 186.2 77.5 184.1 77.5 184.8 77.7 C 183.4 77.6 183.7 77.8 182.7 77.6 C 182.7 77.7 182.4 77.8 182.1 77.8 C 183.6 77.7 185.2 78.2 184.2 78.4 C 183.5 78.3 184.2 78.1 183.2 78.1 C 183.5 78.4 182.2 77.9 182.1 78.2 C 182.7 78.5 180.7 78.7 182.6 78.8 C 182.6 78.7 182.6 78.6 182.6 78.4 C 183.2 78.5 183.7 78.5 184.2 78.5 C 184.6 78.8 184.3 78.9 184.7 79.0 C 185.6 79.1 186.1 79.0 186.3 78.9 C 185.3 78.8 184.0 78.5 185.8 78.6 C 185.1 79.0 188.3 78.8 186.9 79.0 C 188.8 79.3 189.8 79.0 190.0 79.3 C 191.0 79.3 190.3 79.0 191.6 79.1 C 193.5 79.5 193.1 79.1 195.7 79.5 C 196.0 79.1 196.0 79.6 196.8 79.6 C 196.8 79.5 196.8 79.4 196.8 79.2 C 197.7 79.5 199.7 79.8 201.9 79.7 C 202.4 79.8 202.0 80.0 203.4 80.0 C 204.9 79.8 206.6 80.3 208.4 80.1 C 208.5 80.3 209.8 80.5 210.4 80.4 C 210.7 80.6 209.8 80.8 210.9 80.9 C 211.6 80.7 210.3 80.5 211.9 80.6 C 211.7 80.8 213.3 80.5 213.4 80.8 C 212.9 80.8 212.3 80.8 211.9 80.9 C 212.5 80.9 212.3 81.1 212.8 81.1 C 212.8 80.8 213.9 81.2 214.3 81.3 C 214.3 81.1 214.4 81.0 214.8 81.0 C 215.7 81.1 216.3 81.1 216.8 81.1 C 217.9 81.4 216.1 81.3 217.2 81.4 C 217.8 80.9 218.8 81.7 221.1 81.5 C 221.6 81.8 222.5 82.0 223.9 82.2 C 224.1 82.0 222.5 81.9 222.5 81.8 C 224.6 82.1 222.2 81.6 223.5 81.7 C 226.4 82.2 228.3 82.5 231.3 83.1 C 231.2 82.9 233.6 83.1 233.5 83.2 C 232.9 83.1 234.7 83.7 235.7 83.8 C 236.0 83.5 237.5 83.3 237.6 83.2 C 237.9 83.4 237.8 83.4 237.9 83.8 C 239.5 84.2 240.4 83.9 241.3 84.5 C 241.3 84.3 242.0 84.4 242.7 84.4 C 242.5 84.6 242.1 84.6 241.7 84.7 C 242.5 84.9 242.1 84.9 243.6 85.2 C 245.3 84.8 247.6 86.1 248.8 85.7 C 251.2 86.1 250.7 86.3 252.8 86.8 C 252.7 86.6 253.0 86.6 253.6 86.6 C 252.2 86.4 251.2 86.4 250.4 85.9 C 253.6 86.5 244.6 84.0 249.9 84.8 C 250.0 85.0 249.5 85.0 250.6 85.3 C 253.5 85.8 251.8 85.2 250.6 85.0 C 252.6 85.3 254.6 85.8 253.1 85.2 C 257.4 86.1 254.7 85.7 256.1 86.1 C 263.4 87.7 271.1 90.0 276.3 93.2 C 276.6 93.1 279.1 94.9 279.7 95.6 C 281.0 96.3 282.0 97.4 282.0 97.9 C 282.4 97.9 282.7 99.3 283.0 99.3 C 282.7 98.8 282.6 98.4 283.0 98.9 C 283.9 100.6 284.1 103.4 284.1 104.5 C 283.6 105.1 283.3 106.2 283.0 107.0 C 282.8 107.0 283.1 106.4 282.8 106.9 C 282.8 107.1 281.9 108.6 281.5 108.8 C 281.9 108.5 282.0 107.8 281.5 108.4 C 281.6 108.5 280.9 109.1 281.2 109.1 C 280.3 109.9 279.8 110.5 278.9 111.0 C 279.6 110.4 279.9 110.0 279.9 109.8 C 279.4 110.4 279.0 110.8 278.4 110.9 C 278.7 111.2 277.6 111.7 276.4 112.5 C 276.0 112.6 275.7 112.7 274.6 113.2 C 274.2 113.6 276.4 112.6 275.2 113.3 C 275.2 113.1 274.0 113.6 274.4 113.7 C 272.8 114.3 272.0 114.9 270.6 115.2 C 272.4 114.6 270.9 114.8 270.4 114.9 C 270.0 115.1 269.4 115.3 269.5 115.4 C 269.5 115.5 270.4 115.1 270.5 115.1 C 269.3 115.5 269.0 116.0 268.5 116.0 C 269.0 115.8 269.1 115.6 268.4 115.8 C 268.4 116.3 264.2 117.4 265.6 116.7 C 265.6 116.8 267.2 116.3 267.3 116.1 C 266.8 116.2 264.4 117.1 264.9 116.7 C 266.3 116.2 266.2 116.4 267.8 115.8 C 267.9 115.6 268.8 115.2 269.3 114.9 C 267.0 115.8 266.4 116.2 266.0 116.1 C 264.9 116.5 265.7 116.5 263.6 117.1 C 260.8 117.9 263.1 116.9 262.3 117.1 C 259.7 118.0 260.6 118.0 261.8 118.0 C 259.7 118.5 259.1 118.9 256.3 119.5 C 256.4 119.3 256.8 119.1 257.7 118.8 C 257.8 118.9 260.1 118.4 259.8 118.3 C 259.5 118.0 257.8 118.4 254.7 119.1 C 255.5 119.2 255.6 119.0 252.4 119.7 C 253.0 120.0 250.9 120.0 250.9 120.2 C 251.0 120.3 252.2 120.1 253.2 119.8 C 253.2 120.0 252.9 120.2 251.8 120.5 C 251.1 120.5 250.6 120.7 248.5 121.1 C 248.3 120.9 249.8 120.6 250.1 120.3 C 249.0 120.6 248.7 120.7 247.6 121.0 C 246.6 121.0 246.6 120.6 246.6 120.3 C 247.9 120.0 249.9 119.6 248.3 119.7 C 253.1 118.7 248.1 120.1 249.9 119.8 C 251.8 119.0 250.9 119.7 253.8 119.0 C 254.7 118.8 255.0 118.7 255.3 118.5 C 255.1 118.5 253.4 118.6 255.2 118.2 C 255.7 118.2 256.7 118.1 258.2 117.8 C 258.2 117.7 255.2 118.3 258.1 117.6 C 259.5 117.2 258.4 117.9 260.3 117.3 C 260.2 117.2 260.7 117.1 260.9 117.0 C 258.2 117.8 261.3 116.6 259.5 117.0 C 261.8 116.3 260.0 117.2 261.5 116.7 C 261.5 116.6 263.9 116.1 263.9 115.8 C 263.1 116.2 261.2 116.7 261.4 116.4 C 263.1 116.0 269.9 113.4 267.4 114.7 C 268.3 114.3 272.4 112.2 272.2 112.5 C 271.0 113.0 271.1 113.2 271.0 113.4 C 273.2 112.1 274.4 111.8 276.1 110.4 C 274.0 111.6 275.4 110.3 274.0 110.8 C 273.4 111.2 272.5 111.5 272.4 111.7 C 272.8 111.8 273.7 111.2 274.0 110.9 C 274.1 111.1 274.2 111.3 274.3 111.5 C 271.6 112.6 269.9 113.5 268.3 114.0 C 269.7 113.5 265.5 114.6 267.1 114.0 C 267.9 113.9 269.5 113.3 270.8 112.9 C 270.7 112.8 270.7 112.7 270.7 112.6 C 271.2 112.4 272.0 112.1 272.0 112.0 C 270.4 112.8 269.3 112.9 268.1 113.5 C 268.1 113.5 268.1 113.4 268.1 113.4 C 267.8 113.5 267.5 113.6 267.6 113.5 C 268.2 113.3 269.0 113.0 269.1 112.9 C 267.7 113.3 267.4 113.2 265.8 113.7 C 266.1 113.3 263.9 113.7 266.1 112.8 C 266.6 112.9 267.8 112.6 267.8 112.7 C 268.5 112.6 269.7 112.0 270.3 111.7 C 269.6 111.8 268.4 112.2 268.2 112.0 C 269.2 111.6 269.9 111.2 270.6 111.1 C 268.7 112.1 271.7 110.9 272.5 110.8 C 272.2 110.8 271.8 110.9 271.5 110.9 C 272.9 110.2 273.5 110.1 273.4 109.8 C 274.9 108.9 274.7 109.3 275.6 108.8 C 274.8 108.8 276.0 108.3 275.3 108.4 C 276.7 107.4 275.9 108.4 276.4 108.0 C 276.8 107.7 276.7 107.6 277.0 107.3 C 277.7 107.1 278.5 106.3 278.8 106.4 C 279.2 106.0 279.3 106.0 279.5 105.7 C 279.5 105.5 279.5 105.4 279.6 105.2 C 279.7 105.2 279.9 105.0 279.9 104.9 C 279.0 105.6 279.3 105.3 278.1 106.1 C 278.2 106.2 278.0 106.4 278.3 106.2 C 277.7 107.0 277.3 107.0 276.5 107.7 C 276.3 107.6 275.9 107.4 275.2 108.1 C 275.2 107.8 275.0 107.9 275.3 107.6 C 275.8 107.4 276.4 107.1 277.0 106.8 C 277.0 106.7 276.8 106.6 277.0 106.4 C 277.4 106.3 277.7 106.1 277.9 105.8 C 277.9 105.9 277.9 106.0 277.9 106.1 C 278.8 105.3 278.3 105.4 278.8 104.9 C 278.6 104.9 278.3 105.3 278.4 104.9 C 278.8 104.3 278.9 104.3 279.1 104.1 C 279.0 104.0 278.9 104.0 279.0 103.9 C 279.3 103.7 279.1 104.9 279.7 104.4 C 279.5 104.2 279.7 103.7 279.9 103.6 C 280.1 103.8 279.7 104.1 279.8 104.2 C 280.3 103.1 280.4 104.4 280.5 103.0 C 280.4 103.0 280.3 103.0 280.2 103.0 C 280.3 103.5 280.0 103.5 279.8 103.4 C 279.7 103.8 279.4 103.8 279.4 104.2 C 279.0 103.9 279.5 103.9 279.6 103.5 C 279.4 103.5 279.3 103.8 279.0 103.8 C 279.5 103.1 279.2 103.1 279.3 102.2 C 279.1 102.5 279.1 101.8 278.9 101.9 C 279.3 102.6 278.5 102.5 278.4 102.6 C 278.5 102.9 278.9 102.6 279.1 102.8 C 278.8 103.0 278.7 102.9 278.4 102.9 C 278.4 102.7 278.4 102.7 278.2 102.6 C 278.4 102.3 278.7 101.9 278.9 102.2 C 278.9 102.1 278.5 101.7 278.6 101.6 C 278.9 102.1 278.7 101.4 279.0 101.7 C 278.9 101.2 278.0 100.5 277.5 99.7 C 277.4 99.9 277.1 99.7 277.1 99.8 C 278.0 100.3 277.7 100.8 278.1 101.3 C 277.9 101.1 277.9 101.3 277.9 101.5 C 277.6 100.9 277.1 100.7 276.8 100.1 C 276.7 100.2 276.7 100.2 276.6 100.3 C 275.9 99.4 276.0 99.6 275.0 99.2 C 274.7 98.8 275.4 98.8 275.7 98.7 C 275.2 98.5 273.4 97.4 274.3 98.2 C 273.3 97.6 273.7 97.4 272.4 96.8 C 272.3 97.0 273.5 97.6 272.9 97.7 C 271.7 97.1 272.6 97.2 271.4 96.9 C 271.5 96.7 271.6 96.5 270.4 95.9 C 271.2 96.5 270.2 96.0 269.8 96.0 C 270.4 96.2 270.8 96.5 271.0 96.7 C 269.0 95.7 268.5 95.5 266.5 94.8 C 267.3 94.9 266.2 94.4 267.6 94.7 C 266.3 94.4 264.7 93.6 263.9 93.4 C 264.7 93.8 266.1 94.3 266.5 94.6 C 262.4 93.2 259.6 92.7 254.8 91.2 C 255.7 91.4 256.8 91.7 257.0 91.6 C 256.4 91.5 255.6 91.3 255.6 91.2 C 257.3 91.6 258.8 92.1 259.7 92.2 C 261.0 92.7 258.8 92.2 260.2 92.6 C 260.5 92.5 263.0 93.4 262.2 92.8 C 259.8 92.4 257.5 91.5 256.4 90.8 C 253.8 90.7 256.2 91.2 253.3 91.0 C 253.4 90.9 252.8 90.7 251.9 90.4 C 252.7 91.0 249.2 90.0 248.8 89.9 C 250.2 90.1 255.2 91.0 252.8 90.1 C 253.8 91.0 246.8 88.7 248.1 89.4 C 244.6 88.8 245.9 88.7 243.9 88.6 C 243.8 88.5 244.1 88.4 243.1 88.2 C 242.0 88.1 242.2 88.2 241.9 88.2 C 243.2 88.5 244.7 88.9 245.3 89.1 C 246.0 89.3 246.4 89.5 248.0 89.8 C 247.4 89.7 247.0 89.6 247.1 89.7 C 247.1 89.8 247.0 89.8 246.3 89.7 C 246.1 89.3 243.7 89.2 242.9 88.9 C 244.0 89.0 245.0 89.2 244.6 89.0 C 240.4 88.3 241.9 88.2 239.1 87.6 C 239.9 87.9 238.7 87.8 237.7 87.6 C 236.3 87.4 236.9 87.1 235.2 86.8 C 235.3 87.5 233.4 86.5 231.2 86.6 C 231.5 86.3 228.7 85.8 228.1 86.0 C 228.0 85.8 227.0 85.7 226.3 85.6 C 226.1 85.5 227.0 85.5 226.3 85.4 C 225.7 85.4 226.2 85.7 225.4 85.6 C 224.4 85.4 224.6 85.2 223.1 85.0 C 223.0 85.2 223.8 85.2 223.1 85.3 C 221.7 85.1 220.6 84.9 221.6 85.3 C 219.7 85.1 220.7 84.8 218.8 84.6 C 219.4 84.8 219.3 84.8 218.3 84.8 C 217.6 84.5 217.6 84.4 217.4 84.3 C 216.8 84.4 217.0 84.5 215.5 84.2 C 215.4 84.3 215.4 84.4 215.4 84.5 C 214.7 84.4 213.7 84.4 213.5 84.3 C 214.8 84.4 214.5 84.2 215.0 84.2 C 213.7 84.0 211.1 83.5 213.0 84.0 C 211.2 83.9 212.1 83.7 210.6 83.6 C 211.5 83.9 210.7 83.6 209.1 83.5 C 209.2 83.8 208.1 83.5 207.1 83.4 C 207.3 83.6 207.0 83.7 206.1 83.6 C 206.2 83.5 205.6 83.4 204.6 83.4 C 204.6 83.5 206.7 83.8 204.6 83.6 C 203.7 83.4 203.7 83.1 202.1 83.0 C 201.8 82.7 203.5 83.0 203.2 82.7 C 201.9 82.8 201.5 82.6 199.6 82.4 C 200.3 82.9 195.8 82.7 198.0 83.1 C 197.4 83.0 196.5 83.3 196.0 83.0 C 196.7 83.0 195.4 82.7 195.5 82.7 C 194.6 82.7 192.5 82.4 192.4 82.6 C 194.4 82.6 194.4 82.9 195.0 83.0 C 192.1 83.0 189.6 82.7 189.8 82.5 C 189.8 82.6 189.4 82.6 189.3 82.6 C 190.3 82.6 190.9 83.1 189.8 83.0 C 190.0 82.8 189.2 82.7 188.2 82.6 C 188.2 82.8 184.4 82.2 185.1 82.6 C 186.6 82.5 187.8 83.0 186.6 83.0 C 185.7 82.8 183.6 82.5 184.1 82.3 C 183.5 82.4 183.0 82.4 182.5 82.5 C 182.0 82.7 183.2 82.7 183.0 82.9 C 182.2 82.9 181.0 82.9 180.9 82.8 C 183.0 82.8 179.8 82.6 181.9 82.5 C 180.6 82.4 180.3 82.3 179.3 82.2 C 179.3 82.3 178.9 82.3 178.7 82.3 C 179.7 82.2 180.6 82.4 180.3 82.7 C 178.4 82.6 178.8 82.3 177.1 82.3 C 176.7 82.4 174.5 82.7 173.4 82.5 C 175.5 82.6 173.2 82.3 174.5 82.3 C 176.4 82.5 176.9 82.3 177.7 82.1 C 176.8 81.9 175.2 81.7 175.0 82.0 C 176.1 82.1 176.1 82.0 176.6 81.9 C 176.6 82.1 176.3 82.2 175.5 82.2 C 174.7 82.0 172.7 82.1 174.0 81.9 C 172.6 82.0 171.1 81.7 169.7 81.8 C 171.3 81.9 172.4 82.0 172.9 82.2 C 171.6 82.3 170.3 82.0 170.2 82.1 C 170.4 82.4 172.5 82.3 172.9 82.5 C 171.2 82.7 168.7 82.0 170.7 82.6 C 169.8 82.5 168.5 82.4 168.1 82.3 C 169.2 82.3 168.0 82.0 167.5 81.9 C 166.5 81.9 165.7 81.9 165.4 82.0 C 166.9 81.9 168.0 82.3 167.0 82.3 C 166.7 82.1 166.4 82.3 165.9 82.4 C 165.8 82.2 164.1 82.3 163.8 82.1 C 163.9 82.3 164.7 82.3 164.8 82.4 C 163.8 82.5 162.4 82.8 161.6 82.4 C 162.3 82.4 163.1 82.5 163.2 82.4 C 160.4 82.0 159.5 81.7 156.2 81.5 C 156.6 81.5 156.9 81.4 156.7 81.3 C 154.6 81.3 153.3 81.2 153.5 81.0 C 152.2 81.0 151.5 81.2 150.8 81.3 C 152.2 81.4 152.7 81.2 153.5 81.4 C 153.0 81.4 154.6 81.9 155.2 82.0 C 157.5 81.8 157.6 82.2 160.0 82.1 C 159.3 82.3 161.7 82.2 161.0 82.4 C 158.8 82.0 156.7 82.3 153.5 82.1 C 153.9 81.9 154.3 81.7 153.0 81.6 C 150.9 81.5 151.9 81.8 150.3 81.8 C 149.6 81.6 150.6 81.5 149.7 81.5 C 149.2 81.6 147.6 81.5 147.0 81.3 C 149.3 81.3 146.6 81.1 148.1 81.0 C 147.4 81.0 146.9 80.9 146.5 80.9 C 148.6 81.2 144.3 81.3 145.9 81.5 C 142.9 81.6 145.7 80.9 143.2 80.9 C 144.5 81.1 142.9 81.2 141.1 81.2 C 140.6 80.9 138.8 80.9 137.3 80.8 C 138.1 81.0 138.7 81.0 137.3 81.2 C 138.0 81.3 139.3 81.2 140.0 81.1 C 140.0 81.2 140.2 81.3 140.6 81.4 C 138.8 81.4 139.5 81.5 138.9 81.6 C 138.4 81.5 137.1 81.5 136.8 81.4 C 136.8 81.5 136.3 81.5 136.3 81.6 C 138.5 81.6 135.9 81.9 137.3 82.0 C 138.3 81.9 137.7 81.7 138.9 81.7 C 140.1 82.0 137.9 82.0 137.3 82.3 C 138.4 82.5 139.6 82.1 140.0 82.4 C 138.6 82.7 136.4 82.6 134.6 82.5 C 134.8 82.8 131.7 82.5 131.4 82.9 C 131.1 82.8 130.8 82.7 130.4 82.7 C 129.8 83.0 129.3 82.6 128.7 82.7 C 128.7 82.8 128.9 82.9 129.3 83.0 C 127.1 82.9 126.6 82.9 124.0 83.1 C 123.6 83.0 123.1 82.9 122.9 82.7 C 123.5 82.6 124.1 82.6 124.5 82.5 C 120.9 82.6 123.2 83.2 120.8 82.9 C 120.9 83.0 122.6 83.2 121.3 83.3 C 119.1 83.1 115.9 83.5 116.0 82.8 C 114.1 82.7 112.8 83.2 111.8 83.0 C 111.2 83.0 111.0 83.1 110.8 83.2 C 111.4 83.3 112.2 83.4 112.9 83.5 C 114.0 83.3 114.6 83.5 113.4 83.2 C 115.2 83.1 115.6 83.2 116.5 83.3 C 114.2 83.6 112.0 83.5 111.9 83.9 C 111.1 83.8 110.4 83.6 109.8 83.5 C 109.5 83.7 106.9 83.9 106.6 83.7 C 108.5 83.6 110.3 83.2 108.7 83.2 C 104.3 83.6 101.8 83.3 98.0 83.9 C 97.9 83.8 98.1 83.6 97.5 83.6 C 97.5 83.8 97.3 83.9 96.9 84.0 C 95.8 84.0 95.1 84.0 93.5 84.2 C 93.6 84.0 93.3 83.8 92.4 83.8 C 92.0 84.1 90.4 84.7 89.5 84.7 C 90.5 84.6 89.2 84.4 88.5 84.5 C 89.1 84.8 84.1 84.7 85.6 84.9 C 83.6 85.1 82.8 85.0 82.7 84.9 C 82.0 85.0 81.5 85.2 80.8 85.3 C 80.4 85.0 77.1 85.6 76.6 85.6 C 77.7 85.5 77.9 85.1 77.0 85.3 C 76.4 85.5 73.5 86.1 72.9 86.1 C 73.1 86.0 73.3 85.7 74.7 85.5 C 72.3 85.7 72.3 86.1 71.6 86.4 C 71.6 86.1 70.6 86.5 70.2 86.6 C 69.5 86.6 70.2 86.5 70.2 86.3 C 69.3 86.4 69.0 86.3 67.9 86.5 C 68.3 86.7 67.0 86.7 66.6 86.8 C 66.5 87.0 65.9 87.1 64.9 87.3 C 66.2 86.7 59.4 87.8 61.1 87.8 C 59.8 88.2 59.7 87.7 58.1 88.1 C 57.9 88.2 57.6 88.3 57.2 88.3 C 56.9 88.4 57.3 88.4 57.7 88.4 C 57.4 88.5 56.6 88.6 56.4 88.6 C 56.1 88.6 55.9 88.6 55.7 88.6 C 55.4 88.6 55.0 88.7 53.4 89.0 C 54.8 89.1 50.3 89.6 51.1 89.8 C 49.7 89.7 47.4 90.8 45.0 91.0 C 45.1 91.0 44.5 91.2 44.3 91.3 C 44.0 91.5 47.1 90.8 45.1 91.3 C 42.7 91.8 44.0 91.4 43.6 91.3 C 37.3 93.0 31.3 95.0 27.6 96.8 C 28.1 96.7 28.1 96.8 27.3 97.2 C 26.1 97.3 23.1 99.6 22.9 100.0 C 22.5 100.0 21.9 101.1 21.6 101.2 C 21.8 101.0 21.8 100.5 21.5 100.9 C 21.6 101.4 21.2 101.6 21.3 101.9 C 20.9 102.0 21.0 103.0 20.6 102.5 C 20.6 102.6 20.5 102.7 20.5 102.8 C 20.8 102.9 20.7 103.0 20.9 102.8 C 20.6 103.5 20.9 103.6 21.1 104.4 C 21.3 104.5 21.1 103.9 21.4 104.3 C 21.3 104.3 21.3 104.3 21.2 104.4 C 21.3 104.5 21.4 104.5 21.4 104.6 C 21.3 104.7 21.1 104.4 20.9 104.5 C 21.2 104.9 21.1 105.3 21.4 105.3 C 21.0 104.7 21.6 104.9 21.7 105.4 C 21.4 105.1 23.1 106.7 23.9 107.2 C 24.2 107.7 23.1 106.6 23.1 106.8 C 24.4 107.8 24.4 107.9 24.8 107.7 C 25.6 108.4 25.9 108.7 27.3 109.3 C 28.1 109.8 26.8 109.2 27.6 109.7 C 28.2 109.9 28.4 109.9 29.3 110.3 C 31.4 111.8 38.5 113.3 42.4 115.1 C 40.8 114.5 43.0 114.9 45.3 115.5 C 45.4 115.7 45.1 115.7 45.9 115.9 C 45.8 115.7 46.6 115.8 48.2 116.2 C 48.3 116.3 48.0 116.4 48.9 116.6 C 49.6 116.5 51.7 117.2 53.0 117.3 C 53.5 117.7 50.0 116.8 49.7 116.9 C 51.7 117.5 53.0 117.7 54.1 117.9 C 55.2 118.1 57.0 118.3 57.8 118.5 C 56.9 118.4 58.3 118.9 58.5 119.0 C 58.2 118.7 59.5 118.8 58.6 118.5 C 59.3 118.6 60.2 118.7 60.3 118.8 C 60.0 118.8 59.4 118.7 59.4 118.8 C 60.2 118.8 61.2 119.3 61.6 119.1 C 61.0 119.0 60.7 118.9 60.7 118.7 C 61.0 118.7 61.2 118.6 61.6 118.6 C 60.3 119.1 63.9 119.4 64.2 119.2 C 64.4 119.7 64.7 119.7 64.5 119.8 C 66.0 120.1 65.9 119.8 66.8 119.9 C 66.5 120.1 66.1 120.3 67.5 120.6 C 67.3 120.3 69.0 120.6 68.5 120.1 C 72.2 120.6 73.0 121.0 75.3 121.3 C 75.4 121.2 74.7 121.1 75.3 121.1 C 76.4 121.3 77.4 121.6 78.1 121.8 C 78.7 121.7 77.9 121.5 78.6 121.5 C 80.3 122.0 79.8 122.2 81.3 122.6 C 83.3 122.6 82.6 122.6 83.8 122.5 C 83.2 122.4 82.6 122.2 83.3 122.3 C 84.5 122.6 84.9 123.0 85.2 123.1 C 84.3 123.0 83.7 122.9 83.3 122.8 C 83.0 122.9 81.8 122.8 82.8 123.0 C 81.5 122.8 80.2 122.7 78.5 122.5 C 79.0 122.8 76.9 122.4 77.5 122.7 C 79.4 122.9 79.9 123.1 81.7 123.2 C 81.4 122.9 83.3 123.3 83.7 123.4 C 83.7 123.2 85.0 123.4 84.7 123.2 C 86.2 123.3 86.1 123.5 87.6 123.5 C 87.7 123.6 87.5 123.8 88.0 123.8 C 88.6 123.6 89.0 124.0 89.5 124.0 C 89.2 123.7 91.4 124.1 91.5 123.9 C 90.9 123.8 90.1 123.8 90.0 123.7 C 92.4 123.9 90.5 123.5 90.1 123.3 C 90.2 123.4 89.3 123.7 89.1 123.4 C 91.1 123.4 86.3 122.8 88.1 123.0 C 89.6 123.2 89.6 123.0 91.1 123.2 C 92.9 123.8 90.7 123.9 92.5 124.4 C 93.6 124.3 94.4 124.4 94.5 124.2 C 94.8 124.3 95.1 124.4 95.5 124.5 C 96.0 124.4 94.0 124.1 95.5 124.2 C 96.3 124.3 95.4 124.6 97.0 124.6 C 97.7 124.5 95.1 124.2 96.5 124.3 C 98.1 124.8 96.2 124.1 98.0 124.2 C 98.2 124.3 98.5 124.4 99.1 124.4 C 99.2 124.5 98.9 124.7 99.5 124.7 C 99.9 124.3 100.2 125.0 101.6 125.0 C 102.3 124.7 100.2 124.7 100.6 124.5 C 102.1 124.9 103.0 124.6 103.6 124.7 C 102.4 124.8 105.6 125.0 105.7 125.3 C 105.3 124.9 106.0 125.1 107.8 125.0 C 107.9 125.5 109.9 125.3 110.4 125.6 C 110.6 125.5 111.2 125.5 111.4 125.4 C 110.8 125.3 110.2 125.3 110.4 125.1 C 110.9 125.2 111.4 125.2 112.0 125.2 C 112.8 125.5 110.6 125.9 114.1 126.0 C 113.7 125.6 115.1 125.7 116.1 125.6 C 116.0 125.3 114.7 125.5 114.6 125.4 C 115.8 125.2 117.0 125.5 117.7 125.7 C 119.8 125.7 122.2 125.9 125.2 125.9 C 125.9 126.1 122.7 126.0 124.7 126.2 C 125.5 126.2 125.1 126.0 126.2 126.1 C 125.2 127.1 134.3 126.5 134.9 127.0 C 135.2 126.8 137.8 126.9 137.6 126.6 C 135.8 126.8 134.6 126.5 133.8 126.3 C 132.1 126.4 135.2 126.6 133.8 126.6 C 133.6 126.5 131.4 126.6 131.6 126.3 C 133.9 126.4 130.4 126.1 132.2 125.9 C 134.3 126.0 138.6 125.8 137.6 126.1 C 137.6 126.0 136.6 125.9 136.5 126.0 C 138.9 126.2 140.4 126.0 141.4 125.9 C 142.5 126.1 146.8 125.8 145.7 125.9 C 146.1 126.1 143.1 125.8 143.5 126.1 C 148.0 126.2 148.1 126.0 151.1 126.2 C 150.1 125.9 154.2 125.7 153.8 125.8 C 153.8 126.1 154.7 126.3 156.5 126.0 C 156.3 126.2 157.2 126.3 158.2 126.4 C 158.6 126.1 157.4 126.2 157.6 126.0 C 158.5 126.0 159.4 125.9 160.3 125.9 C 160.4 126.0 160.2 126.2 160.9 126.2 C 161.9 126.0 165.5 125.7 165.2 125.9 C 163.6 126.2 167.6 126.1 165.2 126.3 C 165.9 126.3 165.9 126.4 166.8 126.4 C 166.8 126.3 166.8 126.2 166.8 126.1 C 168.8 126.0 167.8 126.4 169.5 126.4 C 169.6 126.3 170.4 126.2 170.6 126.1 C 169.9 126.1 169.8 126.2 169.0 126.2 C 169.9 125.8 167.2 126.1 167.3 125.8 C 169.2 125.7 169.2 126.0 170.0 126.1 C 172.4 125.8 171.3 125.9 173.8 125.9 C 173.8 125.8 173.1 125.9 173.2 125.7 C 176.3 125.7 176.0 126.2 178.0 125.9 C 177.6 126.0 175.7 126.2 177.0 126.2 C 178.4 126.1 178.8 125.8 180.7 125.7 C 180.8 125.8 180.6 125.9 181.3 125.9 C 182.0 125.8 182.1 125.6 182.8 125.4 C 182.9 125.5 184.0 125.4 184.4 125.3 C 185.1 125.5 184.1 125.6 185.0 125.6 C 186.5 125.6 187.3 125.0 188.6 125.0 C 188.5 125.3 190.0 125.1 191.2 125.0 C 191.4 125.3 194.1 125.0 195.9 125.0 C 195.5 124.8 197.3 124.8 196.9 124.5 C 196.0 124.6 195.5 124.6 195.3 124.5 C 197.3 124.3 198.0 124.8 199.4 124.3 C 200.2 124.4 201.2 124.5 202.5 124.4 C 202.6 124.3 200.1 124.4 201.5 124.2 C 201.6 124.3 202.0 124.2 202.5 124.1 C 202.3 124.4 203.4 124.4 204.0 124.5 C 205.2 124.2 207.7 124.3 206.5 124.1 C 208.4 123.9 207.2 124.4 208.6 124.3 C 207.8 124.0 210.2 123.8 209.0 123.7 C 210.9 123.5 210.8 123.9 210.0 124.1 C 211.8 124.0 212.1 123.8 213.0 123.8 C 212.2 123.7 214.8 123.3 213.5 123.5 C 213.1 123.8 215.0 123.5 215.4 123.6 C 214.8 123.5 215.7 123.4 214.4 123.4 C 215.7 123.2 217.6 122.9 218.8 123.1 C 220.4 122.7 221.8 122.5 221.2 122.9 C 222.6 122.6 222.1 122.7 223.5 122.6 C 223.5 122.5 223.1 122.5 223.0 122.5 C 225.0 122.2 224.6 122.5 227.2 122.1 C 227.0 122.5 228.6 122.2 229.1 122.3 C 228.1 122.5 227.2 122.5 226.3 122.6 C 226.2 122.7 227.0 122.7 226.4 122.8 C 226.3 122.7 225.9 122.7 225.5 122.8 C 227.2 122.8 223.3 123.4 224.5 123.0 C 224.5 123.1 224.6 123.1 225.0 123.1 C 224.6 122.8 224.6 122.9 224.9 122.7 C 224.1 122.8 223.4 122.6 223.1 122.9 C 223.1 123.0 223.9 122.9 224.0 122.9 C 221.9 123.3 223.4 122.7 221.7 123.0 C 221.3 123.3 222.2 123.2 222.7 123.3 C 221.1 123.6 219.8 123.7 219.3 123.6 C 217.9 123.8 219.4 123.8 218.4 124.0 C 217.9 123.9 217.9 123.7 216.9 123.8 C 215.9 124.1 217.6 124.0 216.5 124.1 C 215.3 124.1 217.3 123.7 215.5 123.8 C 215.9 124.2 213.8 123.9 214.0 124.1 C 215.0 124.0 215.1 124.3 214.5 124.2 C 212.1 124.1 210.5 125.1 208.1 124.8 C 208.1 124.9 207.7 124.9 207.6 125.0 C 209.4 125.0 212.1 124.8 212.6 125.1 C 214.0 124.9 213.8 124.6 214.0 124.5 C 215.7 124.7 215.6 124.7 214.6 125.2 C 211.8 125.5 210.6 125.5 208.7 125.5 C 207.7 125.8 208.8 125.6 209.2 125.7 C 203.3 126.0 207.8 126.3 205.7 126.4 C 205.8 126.3 205.3 126.3 204.7 126.3 C 204.7 126.4 203.8 126.4 203.7 126.5 C 204.1 126.5 204.3 126.5 204.2 126.6 C 202.7 126.8 203.3 126.5 203.2 126.4 C 204.3 126.3 205.1 126.2 205.2 126.1 C 203.7 126.3 202.6 126.2 201.7 126.5 C 200.2 126.3 202.4 125.8 201.6 125.6 C 201.8 125.4 200.7 126.2 199.6 126.4 C 197.8 126.5 197.7 126.8 196.0 126.9 C 195.5 126.7 197.7 126.7 197.5 126.5 C 197.0 126.5 196.9 126.5 196.5 126.5 C 195.3 126.6 195.4 126.8 194.4 127.0 C 193.9 126.7 193.6 126.9 192.9 127.0 C 191.7 127.0 193.6 126.8 192.3 126.8 C 191.1 126.9 190.2 127.2 189.8 127.2 C 189.7 127.1 189.9 127.0 189.2 127.0 C 187.8 127.3 187.4 127.3 189.3 127.3 C 187.6 127.4 186.9 127.5 187.2 127.8 C 189.6 127.7 190.2 127.6 191.4 127.9 C 191.8 127.6 192.6 127.7 193.5 127.7 C 192.9 127.3 194.5 127.6 195.0 127.4 C 194.4 127.4 193.8 127.4 193.4 127.3 C 196.0 127.2 196.0 127.2 198.1 126.7 C 198.1 126.8 198.3 126.9 198.6 126.9 C 197.9 127.1 196.1 127.1 196.0 127.3 C 197.5 127.5 198.0 127.0 199.7 127.2 C 200.3 127.0 198.3 127.0 199.6 126.9 C 200.3 127.0 201.2 127.1 202.2 127.1 C 203.3 127.0 203.8 126.8 204.7 126.7 C 204.8 126.8 204.9 126.8 205.8 126.8 C 205.7 126.7 204.9 126.6 205.7 126.5 C 208.4 126.6 210.2 126.7 212.8 126.3 C 211.8 126.3 209.7 126.2 210.8 126.1 C 211.9 126.2 213.5 125.7 214.7 125.8 C 215.1 125.9 213.3 125.9 213.7 126.3 C 214.9 126.1 215.6 126.1 216.2 126.1 C 216.1 125.9 217.5 125.8 217.1 125.7 C 216.2 125.7 215.9 126.1 215.7 126.0 C 216.4 125.2 219.2 125.8 221.0 125.6 C 222.2 125.4 220.1 125.5 221.4 125.3 C 222.3 125.1 222.8 125.6 221.5 125.8 C 220.6 125.8 220.3 126.2 220.1 125.9 C 219.7 126.0 219.1 126.0 219.1 126.1 C 219.8 126.0 219.7 126.2 220.1 126.2 C 219.1 126.3 219.1 126.8 218.2 126.6 C 218.7 126.5 218.9 126.4 219.1 126.3 C 216.6 126.7 215.7 126.6 214.2 126.6 C 215.1 126.7 214.2 126.7 214.3 126.9 C 215.4 126.7 217.6 126.7 216.2 126.9 C 215.4 126.7 214.7 127.5 213.8 127.3 C 214.5 127.2 214.4 127.1 214.8 127.0 C 213.8 127.0 213.8 126.8 212.8 126.9 C 209.6 127.6 207.1 127.2 201.8 128.1 C 199.9 128.2 203.5 127.9 203.3 127.7 C 202.8 127.7 202.6 127.7 202.3 127.7 C 202.2 128.0 201.3 127.7 200.7 128.0 C 200.8 127.8 198.3 128.2 197.1 128.1 C 197.1 128.2 197.2 128.3 196.6 128.3 C 192.8 128.3 185.9 129.1 182.9 128.9 C 183.1 129.1 181.8 129.2 181.4 129.3 C 179.5 129.4 180.4 129.1 177.7 129.5 C 176.3 129.6 177.9 129.3 178.2 129.2 C 174.1 129.5 170.5 129.4 167.9 129.7 C 166.6 129.8 167.9 129.5 165.2 129.5 C 165.2 129.9 161.0 129.4 160.4 129.9 C 158.7 129.9 155.8 129.5 157.1 129.8 C 154.9 129.9 156.3 129.5 155.4 129.5 C 153.9 129.6 155.9 130.1 154.4 130.2 C 154.5 129.9 153.2 130.0 152.2 129.8 C 153.4 129.8 154.2 129.7 154.4 129.6 C 153.3 129.8 153.4 129.6 151.7 129.6 C 150.4 129.8 146.7 130.0 145.7 129.6 C 145.6 129.7 145.9 129.8 146.2 129.8 C 145.1 129.9 143.9 129.6 144.0 129.9 C 141.6 129.9 140.5 129.6 139.1 129.9 C 138.1 129.9 139.5 129.6 136.4 129.6 C 136.3 129.8 130.8 129.6 129.4 129.4 C 129.3 129.7 129.0 129.4 128.3 129.4 C 128.2 129.5 128.4 129.6 127.7 129.6 C 127.6 129.5 127.2 129.5 126.7 129.6 C 127.1 129.2 124.7 129.6 124.6 129.3 C 125.0 129.3 125.0 129.1 124.6 129.1 C 124.4 129.4 122.2 128.8 122.4 129.1 C 122.9 129.2 124.4 129.2 124.0 129.4 C 121.9 129.4 122.7 129.1 121.3 129.0 C 121.4 129.1 122.3 129.3 121.3 129.3 C 119.9 129.2 121.2 129.2 120.3 129.0 C 119.5 129.0 118.1 129.1 117.6 129.1 C 117.7 129.1 117.3 129.0 117.1 128.9 C 114.3 128.7 108.2 128.6 105.5 128.1 C 105.3 128.2 104.8 128.2 105.0 128.4 C 103.4 128.2 103.5 128.3 101.9 128.0 C 101.9 128.1 101.9 128.3 101.9 128.4 C 99.8 128.3 101.7 128.0 100.3 127.9 C 100.2 128.5 99.6 127.7 98.3 127.6 C 98.2 127.7 97.6 127.7 97.7 127.9 C 95.8 127.7 95.9 127.4 94.3 127.4 C 94.6 127.4 94.9 128.2 94.7 128.4 C 94.4 128.3 93.9 128.2 93.2 128.1 C 94.1 127.9 93.6 126.9 91.2 127.0 C 92.6 127.1 93.0 127.2 92.7 127.4 C 90.9 127.3 90.3 127.0 88.8 126.9 C 88.5 127.1 89.6 127.2 89.2 127.5 C 88.8 127.5 88.6 127.5 88.7 127.6 C 87.0 127.4 87.0 127.2 85.2 127.2 C 85.3 127.0 85.6 127.0 86.2 127.2 C 86.2 127.0 86.2 126.8 87.2 126.9 C 87.4 127.0 86.7 127.2 88.2 127.3 C 88.2 127.2 88.3 127.0 88.3 126.9 C 87.2 126.8 84.6 126.3 84.3 126.4 C 84.9 126.6 85.7 126.7 85.3 126.9 C 83.4 126.7 82.9 126.3 81.4 126.0 C 78.8 125.8 74.3 125.2 74.8 125.7 C 73.2 125.4 73.8 125.4 72.4 125.2 C 72.8 125.5 70.9 125.1 71.0 125.3 C 72.7 125.5 72.2 125.5 73.8 125.6 C 73.7 125.7 73.5 125.8 72.8 125.8 C 72.7 125.6 72.1 125.5 71.0 125.4 C 71.2 125.5 72.1 125.9 70.9 125.7 C 70.9 125.6 70.6 125.6 70.1 125.5 C 70.1 125.4 70.1 125.2 70.1 125.1 C 70.8 125.1 71.5 125.2 72.0 125.1 C 71.5 125.1 71.5 125.0 71.1 124.9 C 70.8 125.0 68.9 124.6 68.8 124.8 C 69.5 124.8 70.0 125.0 69.2 125.0 C 69.1 124.9 67.8 124.7 67.4 124.7 C 68.9 125.1 68.3 125.0 69.1 125.4 C 67.3 125.2 67.6 124.9 65.6 124.7 C 65.5 124.5 65.6 124.3 66.1 124.3 C 64.9 123.6 61.8 123.6 60.9 123.4 C 61.5 123.5 62.3 123.3 61.3 123.1 C 61.3 123.2 60.6 123.1 60.4 123.2 C 60.0 123.5 60.9 123.9 61.6 124.3 C 60.8 124.2 60.6 124.2 59.8 124.1 C 59.6 123.9 60.5 123.7 59.5 123.5 C 59.2 123.8 57.7 123.2 57.3 123.4 C 58.0 123.5 58.4 123.7 57.7 123.7 C 57.9 123.5 56.3 123.3 56.2 123.1 C 57.4 123.3 57.4 123.2 57.7 123.2 C 58.0 123.2 58.3 123.2 58.6 123.3 C 57.8 123.1 59.3 123.2 57.9 122.9 C 57.2 122.9 56.8 123.1 53.6 122.5 C 52.5 122.2 53.6 122.2 52.1 121.9 C 52.4 122.2 49.1 121.6 51.1 121.8 C 50.0 121.5 49.4 121.4 48.8 121.2 C 50.3 121.7 42.9 120.4 44.0 120.8 C 44.1 120.5 43.8 120.1 43.4 119.9 C 42.0 119.9 40.5 119.3 37.2 118.3 C 37.3 118.7 36.7 118.2 35.4 117.9 C 35.1 117.9 36.2 118.3 35.3 118.1 C 33.8 117.5 33.8 117.5 33.6 117.3 C 32.6 116.9 31.8 116.6 31.4 116.4 C 31.3 116.5 31.6 116.7 31.8 116.8 C 28.2 115.2 26.5 114.8 24.1 113.5 C 25.1 114.1 25.5 113.9 24.6 113.5 C 24.1 113.3 23.7 113.1 23.4 113.0 C 23.8 113.5 23.6 113.3 22.6 112.6 C 21.6 112.1 22.7 113.2 22.0 112.7 C 21.3 112.1 21.8 112.3 21.4 112.0 C 21.1 111.7 20.8 111.5 20.4 111.3 C 21.0 111.8 20.2 111.4 19.6 111.0 C 20.2 111.1 19.9 110.9 18.9 110.1 C 18.9 109.9 19.4 110.3 19.1 109.9 C 18.9 109.7 17.9 109.2 17.5 108.3 C 17.7 108.5 17.8 108.6 17.9 108.5 C 17.1 107.9 17.0 107.0 16.7 106.3 C 16.9 107.1 16.6 106.8 16.6 107.2 C 16.4 106.3 15.7 105.4 15.9 104.7 C 16.1 105.9 16.3 104.7 16.2 103.9 C 15.9 103.8 16.2 105.0 15.9 104.7 C 15.6 104.4 15.8 103.4 15.6 102.9 C 15.4 103.0 15.7 103.5 15.5 103.7 C 15.5 103.0 15.4 103.9 15.4 103.3 C 15.6 102.9 15.3 102.5 15.3 102.1 C 15.4 101.7 16.0 100.8 16.0 100.4 C 15.9 100.3 15.7 101.0 15.6 101.0 C 16.0 99.0 16.7 98.7 17.6 97.1 C 17.9 97.0 18.2 96.8 18.6 96.4 C 18.4 96.3 18.6 96.0 18.9 95.7 C 19.6 95.2 20.4 94.8 21.3 94.2 C 21.3 94.5 20.9 94.9 22.2 94.0 C 22.2 93.9 21.6 94.2 22.1 93.9 C 22.1 93.9 22.5 93.8 22.5 93.7 C 22.5 93.6 22.4 93.6 22.4 93.5 C 22.0 93.8 21.7 94.0 21.3 94.2 C 21.3 94.1 21.1 94.1 20.8 94.2 C 22.3 93.1 22.4 93.6 23.4 92.7 C 23.8 92.9 24.2 92.8 23.4 93.6 C 24.4 93.0 25.0 92.5 25.2 92.1 C 24.0 92.8 24.3 92.3 23.8 92.4 C 24.6 92.0 24.6 91.9 25.0 91.6 C 26.0 91.3 24.1 92.5 26.1 91.6 C 24.5 92.1 27.2 90.8 28.4 90.4 C 28.1 90.4 27.7 90.6 28.3 90.2 C 31.2 88.8 31.3 89.7 33.2 88.6 C 33.1 88.8 34.0 88.5 34.5 88.5 C 32.7 89.1 32.4 89.3 31.7 89.6 C 31.8 89.6 32.3 89.5 32.8 89.4 C 32.8 89.2 33.2 89.0 34.0 88.9 C 34.4 88.6 34.1 88.3 35.5 87.6 C 35.7 87.7 35.5 87.9 36.2 87.7 C 36.9 87.3 35.7 88.2 38.9 87.2 C 38.3 87.3 38.0 87.3 38.2 87.0 C 39.7 86.5 39.3 86.7 41.5 86.0 C 42.5 86.2 40.2 86.9 39.6 87.3 C 41.1 86.8 42.2 86.2 43.8 86.0 C 42.6 86.2 43.7 85.7 45.2 85.3 C 46.5 85.0 45.2 85.7 46.8 85.3 C 48.1 84.9 48.8 84.6 47.5 84.7 C 50.4 84.2 49.7 84.0 52.3 83.6 C 52.4 83.7 51.7 83.9 50.7 84.0 C 50.9 84.0 50.6 84.2 51.6 84.0 C 52.4 83.8 53.8 83.4 55.2 83.1 C 56.7 82.8 57.4 82.6 57.9 82.4 C 59.9 82.6 62.0 81.6 64.0 81.5 C 63.2 81.9 66.6 81.1 67.6 81.3 C 68.2 81.1 70.1 80.3 69.4 80.6 C 69.6 81.0 70.8 80.7 71.7 80.6 C 71.7 80.5 71.7 80.5 71.7 80.4 C 73.8 80.1 74.3 80.3 75.0 80.4 C 77.5 79.9 80.4 79.9 83.6 79.3 C 84.4 79.5 85.1 79.3 87.0 79.3 C 87.0 79.1 88.5 78.9 90.0 78.8 C 89.6 78.6 91.0 78.6 91.0 78.4 C 89.6 78.5 90.1 78.2 89.4 78.1 C 91.2 78.2 92.0 77.7 93.4 77.8 C 91.7 78.1 91.2 78.4 91.0 78.8 C 93.0 78.5 94.1 78.6 94.5 78.7 C 94.7 78.5 94.4 78.4 94.0 78.4 C 94.6 78.3 95.3 78.3 96.0 78.2 C 96.2 78.3 95.3 78.5 96.0 78.5 C 96.5 78.3 97.0 78.2 97.5 78.1 C 98.1 78.3 96.7 78.3 96.5 78.5 C 99.3 78.4 98.1 78.0 99.5 77.8 C 100.0 77.9 99.9 78.2 101.1 78.1 C 101.6 77.9 101.8 77.7 103.2 77.6 C 104.1 77.6 103.1 78.0 104.2 77.9 C 104.3 77.8 104.8 77.8 105.3 77.9 C 105.2 77.7 105.6 77.6 106.3 77.5 C 106.4 77.7 107.4 77.5 107.8 77.4 C 107.9 77.6 109.6 77.8 109.9 77.6 C 109.9 77.5 109.0 77.5 108.9 77.5 C 110.1 77.4 110.9 77.3 111.5 77.2 C 111.9 77.8 113.8 77.2 116.3 77.4 C 117.8 77.1 115.9 77.0 117.8 76.8 C 119.0 76.9 117.6 77.0 117.9 77.2 C 118.2 77.2 120.0 77.3 120.0 77.1 C 120.0 77.0 119.1 77.1 118.9 77.0 C 120.3 76.7 120.3 77.0 121.1 77.1 C 121.0 76.9 121.9 76.8 122.1 76.7 C 126.0 76.4 125.9 76.8 127.5 76.9 C 127.5 76.8 128.5 76.8 128.6 76.8 C 127.5 76.9 126.0 76.7 127.5 76.6 C 127.3 76.8 129.5 76.6 129.7 76.5 C 129.4 76.4 128.0 76.5 128.5 76.2 C 130.6 76.0 129.8 76.5 131.3 76.3 C 131.5 76.4 130.6 76.5 130.2 76.5 C 130.8 76.5 131.7 76.5 131.8 76.6 C 131.0 76.7 131.0 76.9 130.7 77.0 C 131.8 76.8 133.7 76.9 132.4 76.6 C 134.5 76.7 136.6 76.5 135.1 76.3 C 136.8 76.2 135.8 76.5 137.3 76.3 C 137.1 76.6 136.6 76.7 137.8 76.9 C 138.0 76.8 139.0 76.7 138.9 76.5 C 141.4 76.5 142.2 76.7 143.3 76.9 C 142.3 76.6 143.6 76.9 144.8 76.6 C 145.6 76.7 144.9 77.0 147.0 76.9 C 144.7 76.6 149.7 76.8 148.7 76.4 C 151.4 76.6 151.3 76.6 154.1 76.7 C 153.9 76.9 153.2 77.0 152.0 77.0 C 152.8 76.8 149.6 76.8 149.8 76.9 C 149.8 77.0 149.8 77.0 149.8 77.1 C 151.9 77.0 153.2 77.1 154.1 77.2 C 154.6 77.1 155.5 77.0 155.2 76.7 C 157.2 77.0 159.2 76.6 160.1 76.9 C 159.4 76.9 158.8 76.9 159.0 77.0 C 159.8 77.0 160.8 77.0 160.7 76.7 C 159.1 76.7 158.8 76.6 158.0 76.8 C 158.6 76.6 156.4 76.4 158.0 76.4 C 157.9 76.8 161.2 76.2 160.1 76.5 C 158.4 76.6 162.1 76.7 162.2 76.9 C 162.2 76.9 162.2 76.9 162.2 76.9 Z M 213.3 126.9 C 214.7 126.6 212.9 126.5 211.8 126.7 C 212.1 126.7 212.3 126.8 212.3 127.0 C 212.7 126.9 213.2 126.8 213.3 126.9 C 213.3 126.9 213.3 126.9 213.3 126.9 Z M 196.9 124.7 C 196.4 125.0 198.9 124.7 200.0 124.6 C 199.7 124.6 199.3 124.5 200.0 124.5 C 198.9 124.3 198.5 124.8 196.9 124.7 C 196.9 124.7 196.9 124.7 196.9 124.7 Z M 137.6 127.0 C 138.0 127.0 139.0 126.9 139.1 127.0 C 139.8 127.0 139.6 126.9 139.7 126.8 C 141.0 126.8 139.4 127.2 141.4 127.1 C 142.1 126.6 138.0 126.5 137.6 127.0 C 137.6 127.0 137.6 127.0 137.6 127.0 Z M 141.6 80.5 C 142.4 80.6 140.6 80.8 141.1 81.0 C 144.1 80.8 141.8 80.5 145.9 80.6 C 145.7 80.5 145.3 80.5 145.4 80.3 C 143.4 80.5 143.3 80.6 143.8 80.2 C 142.9 80.2 142.7 80.7 141.6 80.5 C 141.6 80.5 141.6 80.5 141.6 80.5 Z M 180.4 82.1 C 180.1 82.0 179.8 81.9 179.8 81.8 C 178.6 81.9 178.8 82.0 177.2 81.8 C 177.4 82.2 179.0 82.2 180.4 82.1 C 180.4 82.1 180.4 82.1 180.4 82.1 Z M 276.1 99.7 C 276.3 99.8 276.4 99.9 276.5 100.0 C 276.5 99.8 277.2 99.9 276.3 99.3 C 276.3 99.4 276.4 99.5 276.5 99.6 C 276.3 99.5 275.9 99.2 275.9 99.4 C 276.1 99.6 276.1 99.6 276.1 99.7 C 276.1 99.7 276.1 99.7 276.1 99.7 Z M 266.9 113.3 C 268.9 112.3 263.6 113.6 266.9 113.3 C 266.9 113.3 266.9 113.3 266.9 113.3 C 266.9 113.3 266.9 113.3 266.9 113.3 Z M 272.0 114.3 C 272.1 114.4 272.5 114.2 272.5 114.1 C 274.0 113.5 272.6 114.3 273.5 114.0 C 274.6 113.3 272.7 113.9 274.1 113.1 C 273.8 113.1 272.9 113.9 272.0 114.3 C 272.0 114.3 272.0 114.3 272.0 114.3 Z M 31.0 89.6 C 29.6 90.2 29.3 90.6 29.1 90.9 C 30.1 90.5 30.9 90.3 31.3 90.2 C 33.1 89.4 30.0 90.5 29.6 90.6 C 29.8 90.3 31.1 89.8 31.0 89.6 C 31.0 89.6 31.0 89.6 31.0 89.6 Z M 26.6 91.5 C 26.1 91.8 25.4 92.3 25.4 92.5 C 26.1 92.1 26.3 92.1 26.4 92.2 C 27.0 91.7 26.1 92.0 26.6 91.5 C 26.6 91.5 26.6 91.5 26.6 91.5 Z M 35.7 88.3 C 34.9 88.6 35.3 88.6 35.2 88.8 C 36.3 88.4 36.5 88.5 37.7 88.1 C 37.7 88.0 37.7 88.0 37.7 87.9 C 36.7 88.2 36.6 88.3 35.8 88.5 C 35.8 88.5 35.7 88.4 35.7 88.3 C 35.7 88.3 35.7 88.3 35.7 88.3 Z M 23.0 93.7 C 21.1 94.9 20.6 95.8 20.0 96.8 C 20.9 95.9 21.7 94.7 22.8 94.2 C 23.9 93.4 22.3 94.3 22.3 94.2 C 22.3 94.1 22.7 93.9 23.0 93.7 C 23.0 93.7 23.0 93.7 23.0 93.7 Z M 17.3 107.2 C 17.3 107.6 18.0 107.9 18.7 108.7 C 18.6 108.5 18.6 108.4 18.6 108.3 C 17.7 107.1 17.9 108.1 17.3 107.2 C 17.3 107.2 17.3 107.2 17.3 107.2 Z M 24.8 113.1 C 25.9 113.7 24.3 112.7 25.0 112.9 C 23.8 112.2 22.7 111.5 22.6 111.8 C 23.8 112.3 24.1 112.5 24.8 113.1 C 24.8 113.1 24.8 113.1 24.8 113.1 Z M 33.7 116.8 C 35.5 117.3 33.1 116.3 33.9 116.3 C 33.2 116.1 33.4 116.3 33.3 116.3 C 32.8 116.1 32.4 115.9 31.6 115.7 C 32.1 116.0 34.0 116.6 33.7 116.8 C 33.7 116.8 33.7 116.8 33.7 116.8 Z M 73.2 81.2 C 72.4 81.4 72.6 81.6 70.9 81.8 C 73.5 81.4 72.2 82.3 75.6 81.8 C 75.1 81.8 75.4 81.6 75.6 81.7 C 76.9 81.4 74.4 81.7 75.6 81.3 C 74.6 81.5 75.2 81.7 74.2 81.8 C 73.2 81.7 72.6 81.6 73.2 81.2 C 73.2 81.2 73.2 81.2 73.2 81.2 Z M 75.6 82.0 C 76.6 82.0 76.6 81.5 77.0 81.7 C 77.5 81.6 77.4 81.6 77.5 81.5 C 77.1 81.5 77.1 81.5 77.0 81.5 C 76.2 81.6 75.4 81.8 75.6 82.0 C 75.6 82.0 75.6 82.0 75.6 82.0 Z M 67.0 83.2 C 68.5 82.9 68.9 83.0 69.7 82.7 C 70.2 82.9 70.7 82.4 71.5 82.6 C 73.0 82.3 71.9 82.3 71.5 82.3 C 72.9 82.0 71.8 82.5 73.3 82.2 C 73.6 81.9 71.7 82.2 71.9 81.9 C 70.7 82.0 70.8 82.2 70.1 82.4 C 69.5 82.4 69.7 82.3 69.6 82.2 C 68.3 82.4 68.4 82.2 67.3 82.4 C 67.1 82.7 67.6 82.7 68.7 82.5 C 67.5 82.8 67.0 83.0 65.6 83.1 C 66.6 82.7 62.2 83.3 62.6 83.7 C 63.8 83.5 63.4 83.4 63.8 83.2 C 65.4 83.2 66.4 83.0 67.0 83.2 C 67.0 83.2 67.0 83.2 67.0 83.2 Z M 36.6 88.9 C 36.1 89.0 35.6 89.1 34.8 89.4 C 34.6 89.2 35.7 88.9 34.7 89.1 C 33.4 89.4 33.1 89.6 32.4 89.9 C 32.9 89.9 35.5 89.2 34.2 89.8 C 34.6 89.8 35.5 89.5 36.6 89.2 C 35.2 89.3 38.5 88.6 39.9 88.2 C 39.7 87.9 42.3 87.7 43.3 87.2 C 42.4 87.2 39.6 88.1 38.5 88.5 C 39.1 88.3 35.2 88.9 36.6 88.9 C 36.6 88.9 36.6 88.9 36.6 88.9 Z M 79.4 81.4 C 79.7 81.3 80.7 81.1 79.9 81.2 C 80.3 81.1 81.2 81.1 80.8 80.8 C 81.3 80.7 81.8 80.7 82.2 80.6 C 82.1 80.8 80.7 80.9 81.3 81.0 C 82.3 80.8 81.9 81.0 83.2 80.8 C 82.5 81.1 83.3 81.1 82.8 81.4 C 83.2 81.3 84.3 81.2 84.2 81.0 C 86.1 80.8 83.7 81.3 86.2 81.1 C 86.2 81.3 84.4 81.5 83.8 81.4 C 83.5 81.7 86.8 81.2 88.7 81.1 C 87.0 81.0 88.3 80.7 89.1 80.4 C 89.7 80.4 89.1 80.6 90.1 80.6 C 91.0 80.6 91.4 80.4 91.6 80.5 C 92.3 80.4 92.0 80.3 92.1 80.1 C 93.3 80.0 92.4 80.5 94.1 80.3 C 92.8 80.0 94.3 79.8 96.6 79.7 C 96.4 79.7 95.7 79.7 95.6 79.6 C 95.9 79.4 97.3 79.6 97.6 79.7 C 98.5 79.5 97.9 79.5 97.1 79.5 C 97.6 79.4 98.1 79.3 98.6 79.2 C 96.1 79.4 92.1 79.7 87.6 79.8 C 88.5 79.9 87.5 80.1 86.1 80.1 C 85.9 80.0 86.5 79.9 87.1 79.9 C 85.5 79.7 85.6 80.4 83.2 80.4 C 81.9 80.5 84.7 80.1 83.2 80.1 C 82.3 80.3 81.7 80.5 81.3 80.3 C 79.7 80.6 79.3 81.0 77.0 81.2 C 78.3 81.2 79.0 81.7 80.4 81.4 C 80.4 81.3 79.8 81.4 79.4 81.4 C 79.4 81.4 79.4 81.4 79.4 81.4 Z M 26.4 92.3 C 25.7 92.7 25.4 93.0 25.2 93.0 C 24.0 93.7 25.4 93.1 25.7 93.1 C 26.3 92.7 26.4 92.5 26.4 92.3 C 26.4 92.3 26.4 92.3 26.4 92.3 Z M 144.6 129.2 C 146.6 129.3 146.2 129.0 147.8 129.0 C 146.5 128.9 146.2 128.7 144.0 128.7 C 143.9 128.9 143.9 129.1 144.6 129.2 C 144.6 129.2 144.6 129.2 144.6 129.2 Z M 31.3 90.5 C 32.5 89.7 29.9 91.3 29.8 91.1 C 28.5 91.8 31.2 90.7 30.0 91.5 C 31.2 90.9 32.0 90.8 33.7 90.1 C 33.6 89.9 32.2 90.4 30.9 90.9 C 30.7 90.8 31.4 90.6 31.3 90.5 C 31.3 90.5 31.3 90.5 31.3 90.5 Z M 123.5 128.1 C 122.1 128.2 124.8 128.6 125.6 128.7 C 125.7 128.4 125.3 128.4 123.5 128.1 C 123.5 128.1 123.5 128.1 123.5 128.1 Z M 158.7 128.8 C 159.5 128.4 156.3 128.8 157.1 128.5 C 156.1 128.4 156.0 128.5 156.0 128.6 C 155.5 128.5 153.9 128.6 154.4 128.4 C 154.1 128.2 156.8 128.4 156.0 128.1 C 156.9 128.1 156.9 128.2 157.6 128.2 C 156.0 128.2 156.8 128.5 158.7 128.5 C 158.7 128.3 157.8 128.4 158.7 128.2 C 158.8 128.3 159.8 128.5 159.8 128.8 C 161.5 128.8 160.5 128.4 162.5 128.4 C 162.3 128.2 161.0 128.2 160.3 128.2 C 160.5 127.9 162.4 128.4 161.9 128.0 C 162.4 128.2 163.5 128.3 163.6 128.5 C 162.1 128.6 161.1 128.8 159.8 129.0 C 160.9 129.1 162.6 128.5 164.6 128.7 C 164.4 128.6 165.6 128.5 165.2 128.3 C 166.8 128.4 166.1 128.7 165.8 128.7 C 166.2 128.9 169.2 128.7 169.0 128.5 C 169.2 128.7 172.9 128.5 172.7 128.2 C 173.8 128.4 175.5 127.9 176.0 128.3 C 176.6 128.1 177.9 128.1 179.2 128.1 C 179.6 127.8 177.2 128.0 177.1 127.8 C 176.6 127.6 179.6 127.8 179.2 127.6 C 179.2 127.5 179.2 127.5 179.2 127.4 C 178.1 127.5 177.0 127.7 176.0 127.8 C 175.2 127.8 176.2 127.7 176.0 127.5 C 175.2 127.7 171.8 128.1 171.7 127.7 C 169.4 127.9 167.7 127.8 166.8 128.1 C 165.4 128.1 167.6 127.9 166.8 127.7 C 162.7 128.2 157.8 127.8 154.4 128.2 C 153.6 128.2 153.9 128.0 153.8 127.9 C 149.1 128.1 153.1 128.4 149.4 128.3 C 149.4 128.1 151.2 128.1 151.1 127.9 C 149.8 127.9 149.5 128.1 147.8 128.0 C 147.8 128.1 147.8 128.2 147.8 128.3 C 146.4 128.3 147.0 128.0 146.2 127.9 C 144.5 128.0 144.9 128.1 144.0 127.8 C 142.4 127.9 140.8 128.0 139.1 127.8 C 138.0 128.0 140.1 128.4 141.9 128.4 C 141.8 128.5 141.3 128.5 141.3 128.6 C 139.3 128.4 139.0 127.9 135.9 127.8 C 138.2 128.1 134.7 127.9 134.3 127.7 C 133.0 127.7 133.9 128.0 134.8 128.0 C 134.6 128.1 133.8 128.0 133.7 127.9 C 133.6 128.3 136.5 128.5 139.6 128.4 C 138.2 128.8 141.9 128.4 140.2 128.9 C 142.8 128.9 140.6 128.5 143.5 128.6 C 143.2 128.5 142.7 128.4 142.4 128.3 C 144.6 128.3 143.9 128.6 146.2 128.6 C 146.6 128.3 145.1 128.4 145.1 128.2 C 147.6 128.5 148.4 128.6 150.0 128.8 C 150.3 128.7 149.9 128.4 152.7 128.6 C 152.7 128.6 152.7 128.7 152.7 128.7 C 151.4 128.7 151.1 129.1 154.4 129.1 C 154.6 128.9 153.6 129.0 152.7 129.0 C 153.1 128.8 154.2 128.7 155.4 128.7 C 156.1 128.7 156.8 128.8 156.0 128.9 C 156.5 129.1 157.0 128.6 158.7 128.8 C 158.7 128.8 158.7 128.8 158.7 128.8 Z M 17.1 105.4 C 17.2 105.7 17.3 105.9 17.5 106.3 C 17.8 106.4 17.4 105.6 17.6 105.6 C 17.3 105.0 17.2 105.5 17.1 105.4 C 17.1 105.4 17.1 105.4 17.1 105.4 Z M 19.5 97.3 C 19.3 97.2 19.1 97.8 18.6 98.3 C 18.6 98.6 19.1 97.9 19.2 98.0 C 19.9 97.4 18.8 97.9 19.5 97.3 C 19.5 97.3 19.5 97.3 19.5 97.3 Z M 17.3 100.5 C 16.9 100.7 17.2 100.9 17.5 100.2 C 17.6 100.4 17.6 100.5 17.5 100.9 C 17.9 100.6 17.6 100.2 18.1 99.5 C 17.8 99.7 17.5 100.0 17.3 100.5 C 17.3 100.5 17.3 100.5 17.3 100.5 Z M 16.9 101.7 C 17.0 102.2 16.7 102.5 16.9 103.2 C 17.0 103.1 17.1 101.4 17.1 101.1 C 17.0 100.8 16.6 102.6 16.9 101.7 C 16.9 101.7 16.9 101.7 16.9 101.7 Z M 102.5 126.6 C 103.0 126.7 102.9 126.6 103.0 126.5 C 104.6 127.0 106.8 127.1 105.0 127.3 C 106.7 127.2 108.3 127.6 109.7 127.7 C 110.9 127.8 110.3 127.5 111.3 127.6 C 112.8 127.7 110.5 127.7 110.8 127.8 C 111.1 128.0 111.5 127.6 113.4 127.9 C 112.9 127.4 115.0 128.0 114.4 127.5 C 115.5 127.7 115.8 127.6 117.1 127.7 C 117.0 127.5 115.7 127.4 115.5 127.3 C 114.9 127.0 114.8 127.5 116.0 127.4 C 115.3 127.7 113.5 127.2 112.9 127.4 C 112.2 127.1 114.6 127.4 113.9 127.1 C 113.5 127.1 113.0 127.1 112.9 127.2 C 112.1 127.1 111.6 127.0 111.3 126.9 C 111.8 126.9 111.8 126.9 111.8 127.0 C 112.8 127.0 110.9 126.5 112.9 126.6 C 112.6 126.5 111.7 126.5 111.9 126.3 C 111.3 126.2 111.8 127.0 109.8 126.6 C 108.4 126.8 113.0 127.1 111.8 127.5 C 108.9 127.2 110.6 127.0 108.2 126.8 C 108.2 126.9 108.3 127.0 107.7 127.0 C 107.7 127.1 108.6 127.1 109.2 127.2 C 109.1 127.2 108.3 127.2 107.6 127.1 C 107.7 127.2 108.2 127.2 108.2 127.3 C 106.2 127.1 106.4 126.6 108.2 126.6 C 108.2 126.4 105.8 126.3 105.1 126.3 C 105.7 126.6 105.0 126.5 105.6 126.8 C 106.1 126.8 106.0 126.7 106.1 126.6 C 107.1 126.8 106.2 126.8 106.1 126.9 C 105.1 126.8 105.1 126.6 104.1 126.7 C 104.3 126.6 104.6 126.6 104.6 126.5 C 104.1 126.4 103.5 126.4 103.0 126.4 C 103.1 126.5 102.4 126.5 102.5 126.6 C 102.5 126.6 102.5 126.6 102.5 126.6 Z M 129.9 128.6 C 131.7 128.7 130.8 128.5 129.9 128.4 C 130.3 128.4 130.9 128.4 131.6 128.3 C 131.0 128.2 130.6 128.3 128.9 128.2 C 130.4 127.9 128.9 127.4 126.2 127.4 C 125.4 127.8 127.6 128.0 126.7 128.2 C 128.7 128.1 129.7 128.3 129.9 128.6 C 129.9 128.6 129.9 128.6 129.9 128.6 Z M 25.7 93.1 C 24.9 93.5 24.1 94.0 23.4 94.4 C 23.6 94.5 26.1 93.4 25.7 93.1 C 25.7 93.1 25.7 93.1 25.7 93.1 Z M 100.7 79.3 C 101.1 79.3 101.2 79.3 101.2 79.4 C 102.7 79.2 100.5 79.2 101.2 79.0 C 100.6 79.0 100.1 79.1 99.6 79.1 C 99.6 79.2 101.8 79.2 100.2 79.4 C 100.3 79.5 100.7 79.4 100.7 79.3 C 100.7 79.3 100.7 79.3 100.7 79.3 Z M 17.2 104.7 C 17.4 105.2 17.5 104.8 18.0 106.0 C 18.0 105.5 17.8 105.3 17.6 104.6 C 17.4 104.7 17.3 104.7 17.2 104.7 C 17.2 104.7 17.2 104.7 17.2 104.7 Z M 94.8 126.5 C 96.1 126.8 96.5 126.3 98.9 126.6 C 97.7 126.2 96.3 126.5 94.8 126.5 C 94.8 126.5 94.8 126.5 94.8 126.5 Z M 183.4 127.5 C 182.7 127.4 183.6 127.3 182.4 127.3 C 181.6 127.4 181.3 127.6 180.2 127.6 C 181.8 127.8 184.4 127.4 185.5 127.8 C 186.8 127.7 186.7 127.4 187.1 127.2 C 186.5 127.3 186.2 127.2 186.1 127.2 C 185.3 127.6 184.4 127.0 183.4 127.5 C 183.4 127.5 183.4 127.5 183.4 127.5 Z M 123.0 128.0 C 122.0 127.8 123.7 127.8 124.0 127.6 C 124.8 127.7 124.5 127.8 124.6 128.0 C 125.5 128.0 125.8 127.9 125.7 127.7 C 123.9 127.5 121.7 127.5 123.0 127.2 C 121.3 127.0 122.2 127.4 121.4 127.4 C 120.5 127.2 121.3 127.2 121.4 127.0 C 121.0 127.0 119.7 127.2 119.8 126.9 C 117.2 127.1 118.4 127.6 120.3 128.0 C 122.0 127.8 120.0 127.7 123.0 128.0 C 123.0 128.0 123.0 128.0 123.0 128.0 Z M 60.6 121.9 C 60.7 122.0 61.5 122.1 61.5 122.2 C 62.4 122.1 63.3 122.0 64.2 121.9 C 64.0 121.7 62.8 121.7 63.3 121.9 C 63.0 121.7 62.1 121.5 61.6 121.2 C 60.8 121.1 60.4 121.5 60.3 121.1 C 59.5 121.1 60.0 121.2 58.6 120.9 C 60.7 121.5 57.9 120.9 57.7 121.1 C 58.9 121.4 60.0 121.5 59.9 121.3 C 60.8 121.5 61.8 121.8 61.9 122.0 C 61.8 122.1 61.1 122.0 60.6 121.9 C 60.6 121.9 60.6 121.9 60.6 121.9 Z M 66.0 122.0 C 65.6 122.0 65.3 122.0 64.7 121.9 C 65.0 122.0 65.1 122.1 65.0 122.3 C 66.2 122.4 66.4 122.3 66.8 122.6 C 67.8 122.8 66.6 122.2 68.2 122.6 C 68.1 122.5 67.3 122.4 67.3 122.3 C 67.1 122.4 66.5 122.4 66.0 122.0 C 66.0 122.0 66.0 122.0 66.0 122.0 Z M 80.2 124.4 C 81.4 124.5 79.5 124.2 80.2 124.0 C 79.9 124.0 77.5 123.7 77.9 123.5 C 77.2 123.1 74.8 123.5 75.0 123.1 C 74.5 123.0 74.7 123.2 74.6 123.3 C 76.2 123.4 76.2 123.6 75.0 123.5 C 75.2 123.6 76.2 123.7 76.9 123.8 C 77.0 123.7 76.3 123.6 76.4 123.4 C 77.8 123.7 78.9 124.1 80.2 124.4 C 80.2 124.4 80.2 124.4 80.2 124.4 Z M 158.9 78.1 C 157.7 78.1 156.9 78.1 156.2 78.2 C 156.6 78.3 157.3 78.2 157.9 78.2 C 158.0 78.4 157.5 78.4 156.8 78.4 C 157.4 78.6 159.7 78.4 158.9 78.1 C 158.9 78.1 158.9 78.1 158.9 78.1 Z M 148.1 78.1 C 146.9 78.1 146.1 78.1 145.9 78.3 C 146.4 78.4 146.2 78.2 147.0 78.2 C 147.5 78.2 147.8 78.3 148.1 78.4 C 148.6 78.4 148.5 78.3 148.7 78.3 C 149.1 78.2 149.1 78.3 149.2 78.3 C 150.7 78.1 147.5 78.4 148.1 78.1 C 148.1 78.1 148.1 78.1 148.1 78.1 Z M 72.2 123.2 C 71.9 123.1 71.6 122.9 70.4 122.7 C 70.6 122.9 69.8 122.8 69.1 122.7 C 70.1 123.0 70.6 123.0 72.2 123.2 C 72.2 123.2 72.2 123.2 72.2 123.2 Z M 82.8 81.6 C 81.3 81.5 81.5 81.9 79.5 82.0 C 79.5 82.1 79.5 82.1 79.5 82.2 C 80.7 81.9 81.3 82.0 82.8 81.6 C 82.8 81.6 82.8 81.6 82.8 81.6 Z M 281.6 105.8 C 281.5 105.7 281.1 106.5 281.0 106.4 C 281.2 106.8 280.6 106.7 279.3 108.1 C 279.2 108.0 279.3 107.9 279.4 107.7 C 278.3 108.7 279.9 107.6 280.2 107.6 C 280.9 106.8 281.2 106.7 281.6 105.8 C 281.6 105.8 281.6 105.8 281.6 105.8 Z M 167.4 127.3 C 167.3 127.4 167.6 127.4 167.9 127.4 C 168.3 127.4 168.6 127.4 168.9 127.4 C 168.8 127.0 167.0 126.9 168.4 126.6 C 167.9 126.6 167.9 126.6 167.9 126.7 C 165.3 127.4 163.2 126.3 159.8 126.8 C 159.2 126.8 159.3 126.9 159.2 127.0 C 159.7 127.0 159.7 127.0 159.8 127.1 C 160.2 126.7 163.3 127.1 161.9 127.2 C 162.0 127.3 162.5 127.2 162.5 127.2 C 162.8 127.2 163.2 127.2 163.6 127.2 C 163.3 127.1 162.6 127.1 162.4 126.9 C 164.2 127.0 166.3 127.0 165.2 127.4 C 166.3 127.3 166.6 127.2 167.3 127.1 C 168.0 127.1 168.0 127.3 167.4 127.3 C 167.4 127.3 167.4 127.3 167.4 127.3 Z M 181.2 126.8 C 182.9 126.8 182.3 126.5 183.9 126.5 C 182.9 126.3 181.6 126.7 180.2 126.6 C 180.4 126.7 181.1 126.7 181.2 126.8 C 181.2 126.8 181.2 126.8 181.2 126.8 Z M 150.0 127.1 C 150.3 126.8 148.9 126.8 147.3 126.8 C 147.0 127.1 148.4 127.1 150.0 127.1 C 150.0 127.1 150.0 127.1 150.0 127.1 Z M 157.1 127.1 C 158.6 127.0 155.1 127.0 155.9 126.8 C 155.2 126.8 154.4 126.8 154.4 126.7 C 153.8 126.8 153.8 126.9 152.7 126.9 C 152.8 127.0 154.5 126.9 154.4 127.1 C 155.6 127.0 155.8 127.0 157.1 127.1 C 157.1 127.1 157.1 127.1 157.1 127.1 Z M 158.1 127.1 C 159.2 127.0 157.9 126.6 156.5 126.6 C 157.0 126.8 157.3 127.0 158.1 127.1 C 158.1 127.1 158.1 127.1 158.1 127.1 Z M 33.4 114.2 C 34.2 114.4 33.6 114.0 34.6 114.3 C 34.6 114.2 31.3 113.1 34.1 114.0 C 33.1 113.4 32.5 113.6 31.4 113.1 C 31.7 113.3 32.0 113.5 31.3 113.2 C 30.9 113.3 33.9 114.1 33.4 114.2 C 33.4 114.2 33.4 114.2 33.4 114.2 Z M 36.8 115.3 C 37.5 115.5 37.2 115.3 36.9 115.2 C 37.0 115.2 38.0 115.5 38.7 115.7 C 38.8 115.8 37.5 115.0 37.6 114.8 C 34.5 114.0 36.8 115.0 36.8 115.3 C 36.8 115.3 36.8 115.3 36.8 115.3 Z M 40.0 116.1 C 42.1 116.9 45.4 117.6 47.1 117.8 C 45.4 117.0 41.1 116.0 40.0 116.1 C 40.0 116.1 40.0 116.1 40.0 116.1 Z M 24.0 109.6 C 25.7 111.1 30.7 113.0 26.6 110.7 C 26.7 111.0 24.0 109.7 23.1 108.9 C 23.0 108.9 21.9 108.3 22.0 108.2 C 21.2 107.8 24.3 110.1 24.0 109.6 C 24.0 109.6 24.0 109.6 24.0 109.6 Z M 50.3 118.0 C 48.9 117.8 50.5 118.6 48.6 118.0 C 47.5 117.8 48.9 118.2 48.5 118.3 C 51.0 118.8 56.4 119.6 56.8 119.9 C 58.2 120.1 58.0 119.9 59.2 120.1 C 59.2 120.0 58.9 120.1 56.4 119.6 C 53.8 119.1 51.1 118.6 50.3 118.1 C 50.4 118.1 53.5 118.7 50.3 118.0 C 50.3 118.0 50.3 118.0 50.3 118.0 Z M 83.0 83.0 C 83.1 82.8 81.1 83.2 81.5 82.9 C 80.5 83.3 79.4 83.2 78.2 83.6 C 77.9 83.5 78.0 83.2 76.3 83.3 C 76.3 83.5 77.1 83.4 76.4 83.6 C 74.9 83.9 75.2 83.5 73.5 83.8 C 73.9 84.2 70.0 84.4 70.4 84.7 C 71.3 84.6 71.2 84.4 72.7 84.3 C 73.2 84.2 73.0 84.4 73.6 84.3 C 73.2 84.6 72.4 84.4 71.8 84.6 C 71.9 84.8 73.0 84.6 73.2 84.8 C 73.9 84.6 73.0 84.7 73.2 84.5 C 74.9 84.2 73.1 85.1 75.1 84.8 C 74.6 84.6 74.6 84.6 75.0 84.3 C 75.8 84.3 78.2 83.9 76.9 84.3 C 77.1 84.4 78.5 84.0 78.3 83.9 C 79.1 83.8 79.2 83.8 79.2 83.9 C 81.2 83.6 81.5 83.4 81.1 83.2 C 81.4 82.9 81.8 83.3 83.0 83.0 C 83.0 83.0 83.0 83.0 83.0 83.0 Z M 18.9 103.0 C 18.8 102.5 19.0 103.5 19.1 104.0 C 19.0 103.4 19.3 103.5 19.3 103.0 C 19.2 103.2 19.2 103.1 19.2 102.8 C 19.1 102.7 19.0 103.6 18.9 103.0 C 18.9 103.0 18.9 103.0 18.9 103.0 Z M 61.8 120.5 C 62.2 120.8 64.4 121.0 65.6 121.2 C 65.5 120.8 62.5 120.9 62.2 120.4 C 61.5 120.4 62.6 120.6 61.8 120.5 C 61.8 120.5 61.8 120.5 61.8 120.5 Z M 65.4 85.0 C 65.0 85.1 65.2 85.1 65.4 85.1 C 65.3 85.2 64.4 85.3 63.7 85.4 C 64.7 85.4 63.5 85.7 63.8 85.9 C 63.3 86.0 63.0 86.0 63.0 86.1 C 62.8 85.7 60.3 86.8 63.0 86.4 C 62.5 86.3 62.7 86.2 63.8 86.0 C 65.0 86.0 66.0 85.6 66.5 85.8 C 67.3 85.6 67.6 85.5 68.7 85.3 C 68.9 85.5 70.0 85.4 69.2 85.9 C 71.1 85.6 69.7 85.2 71.4 84.9 C 72.9 84.9 70.6 85.3 71.0 85.5 C 71.4 85.4 71.3 85.5 71.5 85.6 C 72.0 85.5 72.0 85.3 71.4 85.3 C 71.6 85.2 73.2 84.8 72.8 85.1 C 73.7 84.9 71.2 84.6 70.0 85.0 C 69.3 85.2 69.2 84.7 69.9 84.6 C 69.6 84.5 68.2 85.2 68.6 84.7 C 67.9 84.8 67.4 84.9 66.8 84.9 C 66.9 85.0 67.2 85.0 67.2 85.0 C 66.7 85.1 66.1 85.2 65.5 85.3 C 66.0 85.1 66.0 85.0 65.4 85.0 C 65.4 85.0 65.4 85.0 65.4 85.0 Z M 55.1 119.3 C 57.3 119.7 57.6 119.6 58.4 119.7 C 58.3 119.6 57.9 119.5 56.7 119.3 C 55.6 119.2 54.6 119.1 55.1 119.3 C 55.1 119.3 55.1 119.3 55.1 119.3 Z M 91.4 82.9 C 91.2 82.9 90.4 83.0 90.3 82.9 C 91.9 82.6 90.1 82.7 91.3 82.1 C 89.3 82.5 88.7 83.1 91.4 83.1 C 93.3 82.9 89.4 83.1 91.4 82.9 C 91.4 82.9 91.4 82.9 91.4 82.9 Z M 85.4 83.3 C 84.3 83.6 87.3 83.4 87.9 83.4 C 87.9 83.5 87.9 83.6 88.0 83.6 C 89.6 83.1 87.3 83.2 88.8 82.6 C 86.9 82.7 86.1 82.7 84.4 83.0 C 84.5 83.0 84.9 83.0 84.9 82.9 C 86.1 82.8 85.3 83.2 84.0 83.2 C 84.4 83.3 85.6 83.2 86.4 83.2 C 86.2 83.1 85.9 83.1 85.9 83.0 C 87.0 82.8 86.6 83.1 87.4 83.0 C 87.4 83.1 85.5 83.5 85.4 83.3 C 85.4 83.3 85.4 83.3 85.4 83.3 Z M 189.4 80.9 C 188.3 80.9 190.5 81.4 190.3 81.7 C 191.5 81.8 191.7 81.7 192.4 81.8 C 192.1 81.6 190.9 81.5 190.4 81.3 C 190.6 81.0 192.0 81.5 192.4 81.3 C 193.1 81.0 189.8 81.3 189.4 80.9 C 189.4 80.9 189.4 80.9 189.4 80.9 Z M 36.7 91.6 C 36.1 91.8 36.5 91.8 36.8 91.7 C 36.7 91.8 35.6 92.1 35.6 92.0 C 34.7 92.3 36.2 92.0 35.1 92.4 C 35.0 92.6 36.7 91.8 36.8 91.7 C 38.1 91.3 37.2 91.9 37.5 91.9 C 38.7 91.6 38.2 91.5 40.0 91.0 C 38.9 91.2 37.9 91.3 36.7 91.6 C 36.7 91.6 36.7 91.6 36.7 91.6 Z M 94.8 82.1 C 95.0 82.0 93.6 82.6 92.3 82.5 C 90.6 82.7 93.4 82.7 91.8 82.8 C 93.2 82.7 94.7 82.4 96.8 82.2 C 97.3 82.0 94.0 82.4 95.8 82.1 C 95.7 82.1 95.3 82.1 95.3 82.2 C 94.9 82.2 94.8 82.2 94.8 82.1 C 94.8 82.1 94.8 82.1 94.8 82.1 Z M 92.8 82.9 C 92.9 83.0 93.4 82.9 93.4 82.8 C 94.0 82.8 94.0 83.0 93.4 83.1 C 94.2 83.3 94.1 82.8 95.9 82.8 C 95.1 82.6 94.8 82.5 96.3 82.6 C 97.6 82.2 93.4 82.7 92.8 82.9 C 92.8 82.9 92.8 82.9 92.8 82.9 Z M 172.4 80.4 C 172.6 80.5 173.7 80.5 174.6 80.5 C 173.5 80.7 169.2 80.4 168.7 80.2 C 168.2 80.3 167.7 80.3 167.6 80.2 C 167.6 80.3 166.4 80.4 167.0 80.4 C 166.9 80.5 166.0 80.5 166.0 80.6 C 164.3 80.5 166.4 80.4 166.0 80.3 C 164.0 80.5 164.5 80.3 162.2 80.2 C 162.6 80.4 165.1 80.4 164.9 80.7 C 166.7 80.5 168.6 80.7 169.7 81.0 C 168.0 80.6 174.3 80.6 177.2 80.8 C 177.1 80.9 178.1 80.9 179.3 81.1 C 180.1 81.4 179.9 80.8 178.3 80.9 C 178.3 80.7 180.5 80.9 181.4 80.9 C 180.4 80.8 181.0 80.7 180.4 80.6 C 178.4 80.5 180.2 80.6 179.8 80.8 C 179.3 80.8 178.8 80.7 178.2 80.7 C 181.1 80.4 174.2 80.5 176.7 80.6 C 174.5 80.5 174.5 80.3 172.4 80.4 C 172.4 80.4 172.4 80.4 172.4 80.4 Z M 121.7 80.5 C 121.4 80.5 119.7 80.8 119.6 80.6 C 117.5 80.9 119.4 81.0 117.0 81.1 C 117.1 81.2 118.0 81.1 118.0 81.2 C 119.0 81.1 119.9 81.0 119.6 80.7 C 120.7 80.7 121.0 80.6 121.7 80.6 C 121.5 80.7 121.1 80.8 120.1 80.8 C 120.0 81.0 120.4 81.1 121.8 81.1 C 122.4 80.8 122.0 80.7 121.7 80.5 C 121.7 80.5 121.7 80.5 121.7 80.5 Z M 116.4 81.0 C 116.2 81.0 115.9 80.9 115.9 80.8 C 115.1 80.6 115.6 81.2 114.9 81.2 C 114.2 81.2 114.4 81.1 114.3 81.0 C 113.4 81.1 112.7 81.2 112.2 81.1 C 110.8 81.3 113.9 81.2 114.3 81.3 C 115.4 81.3 115.0 81.1 116.4 81.0 C 116.4 81.0 116.4 81.0 116.4 81.0 Z M 100.8 81.7 C 100.6 81.5 100.1 81.9 99.4 81.9 C 99.9 82.1 101.3 81.9 100.4 82.3 C 101.9 82.2 102.0 82.2 103.5 82.0 C 104.4 82.2 103.5 81.8 101.9 82.1 C 102.1 82.0 102.8 81.9 102.9 81.8 C 103.9 82.2 106.5 81.2 105.0 81.7 C 104.5 81.7 104.2 81.6 103.9 81.5 C 103.6 81.8 100.1 81.9 100.8 81.7 C 100.8 81.7 100.8 81.7 100.8 81.7 Z M 51.6 88.3 C 53.2 88.0 54.1 87.8 54.9 87.6 C 55.7 87.5 57.1 87.2 57.9 87.1 C 58.0 87.2 57.9 87.3 57.5 87.4 C 57.9 87.4 58.4 87.2 59.2 87.1 C 59.1 87.0 58.7 87.1 58.8 87.1 C 57.4 87.2 58.5 87.0 58.7 86.7 C 57.0 86.8 53.8 87.9 52.3 87.9 C 51.2 88.2 52.6 87.9 51.6 88.3 C 51.6 88.3 51.6 88.3 51.6 88.3 Z M 280.2 104.2 C 280.2 104.3 280.1 104.6 280.3 104.6 C 280.3 104.3 280.3 104.1 280.4 103.9 C 280.2 104.3 279.9 104.1 279.6 104.7 C 279.8 104.6 280.0 104.7 280.2 104.2 C 280.2 104.2 280.2 104.2 280.2 104.2 Z M 106.0 81.5 C 106.1 81.6 106.1 81.7 105.5 81.7 C 105.3 81.9 107.0 81.7 107.0 81.9 C 107.6 81.8 107.4 81.7 108.1 81.7 C 107.8 81.6 106.5 81.7 107.0 81.4 C 107.5 81.4 107.5 81.4 107.6 81.5 C 108.6 81.3 107.0 81.3 106.0 81.5 C 106.0 81.5 106.0 81.5 106.0 81.5 Z M 194.5 81.5 C 193.8 81.5 194.5 81.6 195.1 81.7 C 193.5 81.8 195.9 82.1 196.0 82.4 C 195.4 82.1 193.3 82.1 193.0 82.0 C 192.3 82.0 193.0 82.3 191.4 82.3 C 191.6 82.5 193.4 82.4 192.9 82.2 C 193.4 82.5 195.2 82.3 195.0 82.6 C 197.3 82.8 197.9 82.6 198.1 82.4 C 195.8 82.3 197.0 82.0 195.0 81.9 C 195.0 81.8 195.6 81.9 196.0 81.9 C 195.9 81.7 195.1 81.6 194.5 81.5 C 194.5 81.5 194.5 81.5 194.5 81.5 Z M 138.9 80.2 C 137.7 80.2 137.8 80.4 137.8 80.6 C 138.3 80.5 139.0 80.5 140.0 80.5 C 139.8 80.4 138.3 80.4 138.9 80.2 C 138.9 80.2 138.9 80.2 138.9 80.2 Z M 186.2 81.3 C 186.1 81.2 185.7 81.3 185.7 81.3 C 184.3 81.2 184.0 81.1 183.6 81.0 C 182.8 80.9 183.1 81.1 183.0 81.2 C 184.3 81.1 184.0 81.4 185.6 81.5 C 185.5 81.4 185.8 81.3 186.2 81.3 C 186.2 81.3 186.2 81.3 186.2 81.3 Z M 150.3 80.2 C 149.6 80.3 149.9 80.3 150.3 80.3 C 149.5 80.6 147.3 80.4 146.5 80.5 C 146.4 80.7 149.1 80.6 145.9 80.7 C 146.5 80.9 149.4 80.8 150.8 80.8 C 150.5 81.0 148.5 81.0 148.6 81.3 C 150.3 81.1 152.2 81.0 152.4 80.7 C 150.0 80.6 150.8 80.4 150.3 80.2 C 150.3 80.2 150.3 80.2 150.3 80.2 Z M 153.0 80.4 C 152.7 80.3 152.3 80.4 151.4 80.4 C 152.7 80.7 153.5 80.6 156.2 80.7 C 156.2 80.6 156.2 80.6 156.2 80.5 C 156.8 80.5 157.3 80.5 157.9 80.5 C 155.5 80.2 154.9 80.4 152.4 80.5 C 152.3 80.4 152.6 80.4 153.0 80.4 C 153.0 80.4 153.0 80.4 153.0 80.4 Z M 83.1 83.7 C 83.7 83.8 84.3 83.9 85.5 83.8 C 85.4 83.6 84.6 83.6 83.1 83.7 C 83.1 83.7 83.1 83.7 83.1 83.7 Z M 188.3 81.6 C 189.7 81.5 186.9 81.5 187.7 81.8 C 188.8 82.0 190.1 82.1 190.3 82.3 C 192.4 82.1 188.0 81.9 188.3 81.6 C 188.3 81.6 188.3 81.6 188.3 81.6 Z M 178.8 81.7 C 178.2 81.6 178.2 81.3 178.8 81.5 C 180.3 81.6 177.5 81.3 179.8 81.4 C 178.8 81.3 176.6 81.1 175.6 81.2 C 175.6 81.4 177.6 81.4 177.7 81.6 C 177.8 81.7 177.5 81.6 177.2 81.6 C 177.4 81.8 177.8 81.6 178.8 81.7 C 178.8 81.7 178.8 81.7 178.8 81.7 Z M 170.8 81.0 C 171.7 81.2 172.7 81.3 174.5 81.4 C 173.3 81.2 172.7 80.9 170.8 81.0 C 170.8 81.0 170.8 81.0 170.8 81.0 Z M 270.1 95.3 C 269.0 94.9 269.9 95.5 270.0 95.6 C 271.0 96.1 271.1 95.9 272.1 96.5 C 271.9 96.1 270.7 95.9 270.1 95.3 C 270.1 95.3 270.1 95.3 270.1 95.3 Z M 273.6 97.2 C 273.6 97.4 274.8 97.9 274.8 98.1 C 275.7 98.1 276.1 99.3 276.2 99.0 C 276.4 99.1 276.6 99.3 276.9 99.6 C 276.6 98.8 274.7 97.7 273.6 97.2 C 273.6 97.2 273.6 97.2 273.6 97.2 Z M 161.6 81.3 C 160.2 81.2 162.0 81.7 160.5 81.6 C 160.4 81.7 163.3 81.8 161.6 81.9 C 163.8 82.1 161.4 81.4 161.6 81.3 C 161.6 81.3 161.6 81.3 161.6 81.3 Z M 135.2 81.6 C 135.3 81.4 133.3 81.6 132.5 81.6 C 132.5 81.7 133.1 81.6 133.5 81.6 C 133.3 81.7 133.1 81.8 132.5 81.8 C 132.9 82.0 134.4 81.6 135.2 81.6 C 135.2 81.6 135.2 81.6 135.2 81.6 Z M 164.4 77.2 C 165.3 77.4 166.5 77.7 167.1 77.3 C 168.0 77.6 166.5 77.6 167.6 77.7 C 169.1 77.7 168.4 77.9 170.9 77.8 C 170.4 78.1 172.2 78.1 172.5 78.4 C 171.5 78.4 170.2 78.0 169.8 78.3 C 170.6 78.3 170.1 78.5 169.8 78.4 C 168.1 78.2 171.8 78.1 169.8 77.9 C 169.2 78.2 166.3 77.5 164.4 77.5 C 165.1 77.3 163.0 77.2 164.4 77.2 C 164.4 77.2 164.4 77.2 164.4 77.2 Z M 174.1 77.9 C 175.4 78.0 176.0 78.5 175.7 78.5 C 175.7 78.4 174.2 78.3 174.1 78.4 C 174.4 78.4 174.7 78.4 174.6 78.5 C 172.2 78.4 173.1 78.2 172.5 78.0 C 173.8 78.0 174.2 78.1 174.6 78.0 C 174.3 78.0 174.0 78.0 174.1 77.9 C 174.1 77.9 174.1 77.9 174.1 77.9 Z M 201.6 83.4 C 201.3 83.3 201.0 83.4 200.5 83.4 C 200.5 83.1 197.9 83.4 197.5 83.1 C 198.1 83.1 199.5 83.2 200.1 83.1 C 199.4 83.0 199.2 82.9 198.5 83.0 C 198.7 82.8 200.2 82.9 200.6 82.7 C 200.7 82.9 201.4 82.7 201.6 82.9 C 199.6 82.9 202.7 83.5 201.6 83.4 C 201.6 83.4 201.6 83.4 201.6 83.4 Z M 149.2 81.5 C 149.0 81.8 151.3 82.4 149.2 82.7 C 148.7 82.5 148.5 82.2 148.6 81.9 C 147.3 82.1 146.7 81.9 145.9 82.1 C 143.5 81.4 147.8 82.2 149.2 81.5 C 149.2 81.5 149.2 81.5 149.2 81.5 Z M 140.5 81.8 C 141.0 81.6 139.8 81.6 140.0 81.4 C 141.0 81.6 144.4 81.3 143.2 81.5 C 142.1 81.6 142.1 81.8 140.5 81.8 C 140.5 81.8 140.5 81.8 140.5 81.8 Z M 89.1 123.7 C 87.5 123.7 86.7 123.2 87.6 123.1 C 87.2 123.4 89.6 123.4 89.1 123.7 C 89.1 123.7 89.1 123.7 89.1 123.7 Z M 25.8 114.5 C 27.0 115.3 27.9 115.5 28.0 115.8 C 26.6 115.3 26.8 115.1 25.7 114.7 C 25.6 114.7 24.9 114.5 24.8 114.3 C 25.4 114.6 25.3 114.4 25.8 114.5 C 25.8 114.5 25.8 114.5 25.8 114.5 Z M 107.8 77.3 C 107.7 77.2 107.1 77.2 107.3 77.1 C 108.9 77.1 110.7 76.8 112.0 76.5 C 112.0 76.7 112.0 76.8 112.0 76.9 C 109.5 76.9 108.8 77.1 107.8 77.3 C 107.8 77.3 107.8 77.3 107.8 77.3 Z M 104.6 77.1 C 104.4 77.2 105.3 77.4 104.2 77.5 C 104.2 77.3 102.2 77.2 103.1 77.1 C 103.4 77.2 103.9 77.2 104.6 77.1 C 104.6 77.1 104.6 77.1 104.6 77.1 Z M 194.7 78.3 C 196.0 78.4 194.2 78.0 194.2 77.9 C 195.1 78.0 196.4 78.1 196.8 78.3 C 195.9 78.2 195.2 78.5 194.7 78.3 C 194.7 78.3 194.7 78.3 194.7 78.3 Z M 175.2 77.9 C 172.4 77.8 173.6 77.4 170.9 77.3 C 172.0 77.1 174.5 77.3 175.2 77.1 C 175.1 77.2 175.8 77.3 175.7 77.4 C 174.7 77.4 174.6 77.3 173.6 77.3 C 173.9 77.5 173.9 77.4 173.6 77.7 C 174.3 77.7 174.8 77.7 175.2 77.6 C 175.0 77.8 176.0 77.9 175.2 77.9 C 175.2 77.9 175.2 77.9 175.2 77.9 Z M 194.2 78.9 C 195.2 78.9 196.1 79.3 195.2 79.2 C 195.1 79.0 194.4 79.2 194.2 79.1 C 195.7 79.1 193.0 78.9 193.7 78.7 C 194.6 78.8 194.9 78.7 194.7 78.5 C 195.3 78.6 196.2 78.6 196.3 78.7 C 195.9 78.7 195.3 78.6 195.2 78.7 C 195.5 78.7 195.9 78.8 195.7 78.8 C 194.8 78.8 194.4 78.8 194.2 78.9 C 194.2 78.9 194.2 78.9 194.2 78.9 Z M 186.9 78.5 C 188.3 78.6 188.5 78.8 189.0 79.0 C 187.0 78.8 186.7 78.5 185.3 78.2 C 186.9 78.4 188.5 78.2 189.0 78.3 C 188.3 78.4 187.0 78.3 186.9 78.5 C 186.9 78.5 186.9 78.5 186.9 78.5 Z M 224.6 123.8 C 223.5 123.8 222.5 123.8 221.3 123.8 C 220.9 124.1 223.2 124.3 222.3 124.3 C 221.0 124.5 221.8 124.0 220.8 124.1 C 221.8 124.4 216.3 125.0 216.0 124.7 C 216.9 124.6 217.1 124.5 216.9 124.3 C 219.2 124.1 220.1 123.8 221.7 123.5 C 222.9 123.7 226.4 123.4 228.2 122.8 C 229.5 123.1 231.6 122.3 233.2 122.4 C 233.6 122.2 231.8 122.3 233.2 122.1 C 234.1 122.2 233.4 122.4 234.6 122.4 C 234.6 122.2 234.4 122.1 235.0 122.0 C 234.9 122.2 235.6 122.1 235.9 122.1 C 233.5 122.4 236.1 122.4 234.2 122.8 C 233.4 122.8 235.0 122.2 232.8 122.6 C 232.0 122.7 231.3 122.9 231.5 123.1 C 230.9 123.2 230.5 123.3 230.1 123.4 C 230.9 123.0 227.0 123.9 228.8 123.4 C 228.9 123.3 230.2 123.2 231.0 123.0 C 230.2 122.8 229.2 123.1 227.8 123.4 C 227.2 123.3 228.1 123.1 227.3 123.2 C 226.2 123.5 227.8 123.5 226.9 123.7 C 227.3 123.7 227.8 123.6 227.9 123.7 C 225.9 123.7 225.2 124.0 224.1 124.1 C 224.8 123.9 223.0 124.1 224.6 123.8 C 224.6 123.8 224.6 123.8 224.6 123.8 Z M 240.6 121.2 C 241.0 121.1 241.4 121.0 241.9 120.9 C 242.0 121.2 240.4 121.5 241.5 121.5 C 239.7 121.8 241.6 121.2 240.6 121.2 C 240.6 121.2 240.6 121.2 240.6 121.2 Z M 231.8 121.7 C 231.1 121.5 231.5 122.0 230.9 122.1 C 232.0 121.9 233.0 121.7 233.1 121.9 C 231.9 122.0 231.3 122.1 230.0 122.4 C 231.2 121.9 228.5 122.3 228.1 122.1 C 229.1 121.9 229.9 121.7 231.3 121.5 C 231.1 121.6 233.0 121.4 231.8 121.7 C 231.8 121.7 231.8 121.7 231.8 121.7 Z M 235.3 120.8 C 235.5 120.9 237.4 120.5 237.1 120.9 C 235.9 121.0 235.5 121.1 235.8 121.3 C 234.9 121.4 234.8 121.4 234.0 121.5 C 233.5 121.3 234.9 121.1 235.3 120.9 C 235.0 120.9 234.8 120.9 235.3 120.8 C 235.3 120.8 235.3 120.8 235.3 120.8 Z M 275.8 107.8 C 276.2 107.8 274.9 108.5 274.6 108.6 C 275.1 108.6 275.0 108.7 274.1 109.3 C 274.3 108.8 273.1 109.6 272.0 109.8 C 271.9 110.1 273.1 109.6 271.8 110.3 C 270.6 110.7 269.7 111.3 267.7 112.1 C 267.1 112.0 268.0 111.7 268.5 111.4 C 267.2 111.9 267.5 111.6 266.4 112.0 C 266.7 112.0 265.8 112.4 265.4 112.4 C 267.3 111.7 262.7 113.0 264.7 112.2 C 264.9 112.3 265.3 112.0 265.8 111.8 C 265.4 112.3 267.9 111.3 268.5 111.3 C 269.2 110.4 271.7 109.6 273.8 108.7 C 274.0 108.7 273.4 109.1 273.9 108.9 C 273.9 108.7 274.6 108.4 274.8 108.2 C 274.9 108.3 275.1 108.2 275.5 108.0 C 275.5 108.0 275.5 107.9 275.8 107.8 C 275.8 107.8 275.8 107.8 275.8 107.8 Z M 139.2 125.3 C 139.3 124.9 135.8 125.0 134.8 125.1 C 135.0 124.7 141.1 124.9 139.2 125.3 C 139.2 125.3 139.2 125.3 139.2 125.3 Z M 160.3 125.0 C 159.4 125.0 160.0 125.2 159.2 125.2 C 159.2 125.0 157.1 125.5 157.0 125.3 C 158.0 125.0 158.7 125.0 160.3 125.0 C 160.3 125.0 160.3 125.0 160.3 125.0 Z M 179.6 124.5 C 178.0 124.6 180.4 124.6 180.1 124.7 C 178.8 124.8 177.4 124.8 177.5 124.6 C 178.7 124.7 179.4 124.3 179.6 124.5 C 179.6 124.5 179.6 124.5 179.6 124.5 Z M 150.6 124.8 C 149.2 124.7 151.4 124.4 151.6 124.6 C 150.2 124.6 152.6 124.8 153.8 124.7 C 153.7 125.0 153.2 124.9 153.8 125.2 C 151.9 125.3 153.5 124.9 152.1 125.0 C 151.2 125.1 152.2 125.1 152.1 125.3 C 151.6 125.3 151.1 125.3 150.6 125.3 C 150.6 125.2 150.6 125.0 150.6 124.9 C 151.2 124.9 151.8 124.9 151.6 124.7 C 151.1 124.7 151.0 124.8 150.6 124.8 C 150.6 124.8 150.6 124.8 150.6 124.8 Z M 246.8 116.7 C 245.6 117.0 246.7 116.9 247.7 116.7 C 247.9 116.6 248.6 116.0 250.0 115.9 C 247.0 116.8 251.0 116.1 249.3 116.6 C 248.6 116.5 246.8 117.1 245.2 117.4 C 244.5 117.3 246.1 116.7 246.8 116.7 C 246.8 116.7 246.8 116.7 246.8 116.7 Z M 252.4 115.7 C 252.2 115.7 251.7 115.8 250.8 116.0 C 251.7 115.6 250.4 115.8 251.6 115.5 C 251.4 115.6 255.4 114.8 253.1 115.4 C 251.0 115.7 253.7 115.4 254.6 115.2 C 253.6 115.4 251.9 116.1 251.6 116.0 C 252.1 115.9 252.6 115.8 252.4 115.7 C 252.4 115.7 252.4 115.7 252.4 115.7 Z M 278.7 104.1 C 278.5 103.9 278.4 104.2 278.3 104.2 C 278.7 103.6 278.7 103.2 278.8 103.0 C 278.8 103.2 279.0 103.3 279.1 103.1 C 279.0 103.4 279.1 103.5 279.0 103.5 C 278.8 103.2 278.9 103.7 278.7 104.1 C 278.7 104.1 278.7 104.1 278.7 104.1 Z M 278.7 104.1 " fill="#000000"></path></g></g><image xlink:href="../../77A22124-ADA6-47CF-82EF-BF417E5B2E45/assets/4720ABD66D4B7A0EA01F88AA9BB3503E.png" width="140.00" height="35.00" transform="matrix(1.00, 0.00, -0.00, -1.00, 81.0, 113.0)"></image><g><clipPath id="clip-142"><path d="M 18.9 77.3 L 281.4 77.3 L 281.4 126.8 L 18.9 126.8 Z M 18.9 77.3 "></path></clipPath><g clip-path="url(#clip-142)"><text xml:space="preserve" font-family="Chalkduster" font-size="18.0" fill="#000000" transform="matrix(1.00, 0.00, -0.00, -1.00, 85.0, 94.0)">B</text><text xml:space="preserve" font-family="Chalkduster" font-size="18.0" fill="#000000" transform="matrix(1.00, 0.00, -0.00, -1.00, 97.0, 94.0)">u</text><text xml:space="preserve" font-family="Chalkduster" font-size="18.0" fill="#000000" transform="matrix(1.00, 0.00, -0.00, -1.00, 109.4, 94.0)">i</text><text xml:space="preserve" font-family="Chalkduster" font-size="18.0" fill="#000000" transform="matrix(1.00, 0.00, -0.00, -1.00, 116.7, 94.0)">l</text><text xml:space="preserve" font-family="Chalkduster" font-size="18.0" fill="#000000" transform="matrix(1.00, 0.00, -0.00, -1.00, 123.2, 94.0)">t</text><text xml:space="preserve" font-family="Chalkduster" font-size="18.0" fill="#000000" transform="matrix(1.00, 0.00, -0.00, -1.00, 131.6, 94.0)">i</text><text xml:space="preserve" font-family="Chalkduster" font-size="18.0" fill="#000000" transform="matrix(1.00, 0.00, -0.00, -1.00, 138.7, 94.0)">n</text><text xml:space="preserve" font-family="Chalkduster" font-size="18.0" fill="#000000" transform="matrix(1.00, 0.00, -0.00, -1.00, 151.9, 94.0)"> </text><text xml:space="preserve" font-family="Chalkduster" font-size="18.0" fill="#000000" transform="matrix(1.00, 0.00, -0.00, -1.00, 159.3, 94.0)">T</text><text xml:space="preserve" font-family="Chalkduster" font-size="18.0" fill="#000000" transform="matrix(1.00, 0.00, -0.00, -1.00, 172.1, 94.0)">y</text><text xml:space="preserve" font-family="Chalkduster" font-size="18.0" fill="#000000" transform="matrix(1.00, 0.00, -0.00, -1.00, 183.0, 94.0)">p</text><text xml:space="preserve" font-family="Chalkduster" font-size="18.0" fill="#000000" transform="matrix(1.00, 0.00, -0.00, -1.00, 194.3, 94.0)">e</text><text xml:space="preserve" font-family="Chalkduster" font-size="18.0" fill="#000000" transform="matrix(1.00, 0.00, -0.00, -1.00, 205.9, 94.0)">s</text></g></g><g><clipPath id="clip-143"><path d="M -0.7 -0.8 L 303.7 -0.8 L 303.7 73.8 L -0.7 73.8 Z M -0.7 -0.8 "></path></clipPath><g clip-path="url(#clip-143)"><text xml:space="preserve" font-family="Chalkduster" font-size="20.0" fill="#FEFFFE" transform="matrix(1.00, 0.00, -0.00, -1.00, 10.0, 42.0)">m</text><text xml:space="preserve" font-family="Chalkduster" font-size="20.0" fill="#FEFFFE" transform="matrix(1.00, 0.00, -0.00, -1.00, 30.6, 42.0)">i</text><text xml:space="preserve" font-family="Chalkduster" font-size="20.0" fill="#FEFFFE" transform="matrix(1.00, 0.00, -0.00, -1.00, 38.5, 42.0)">n</text><text xml:space="preserve" font-family="Chalkduster" font-size="20.0" fill="#FEFFFE" transform="matrix(1.00, 0.00, -0.00, -1.00, 52.5, 42.0)">,</text><text xml:space="preserve" font-family="Chalkduster" font-size="20.0" fill="#FEFFFE" transform="matrix(1.00, 0.00, -0.00, -1.00, 58.7, 42.0)"> </text><text xml:space="preserve" font-family="Chalkduster" font-size="20.0" fill="#FEFFFE" transform="matrix(1.00, 0.00, -0.00, -1.00, 68.7, 42.0)">m</text><text xml:space="preserve" font-family="Chalkduster" font-size="20.0" fill="#FEFFFE" transform="matrix(1.00, 0.00, -0.00, -1.00, 88.9, 42.0)">a</text><text xml:space="preserve" font-family="Chalkduster" font-size="20.0" fill="#FEFFFE" transform="matrix(1.00, 0.00, -0.00, -1.00, 102.3, 42.0)">x</text><text xml:space="preserve" font-family="Chalkduster" font-size="20.0" fill="#FEFFFE" transform="matrix(1.00, 0.00, -0.00, -1.00, 114.5, 42.0)">,</text><text xml:space="preserve" font-family="Chalkduster" font-size="20.0" fill="#FEFFFE" transform="matrix(1.00, 0.00, -0.00, -1.00, 120.7, 42.0)"> </text><text xml:space="preserve" font-family="Chalkduster" font-size="20.0" fill="#FEFFFE" transform="matrix(1.00, 0.00, -0.00, -1.00, 130.7, 42.0)">l</text><text xml:space="preserve" font-family="Chalkduster" font-size="20.0" fill="#FEFFFE" transform="matrix(1.00, 0.00, -0.00, -1.00, 139.0, 42.0)">e</text><text xml:space="preserve" font-family="Chalkduster" font-size="20.0" fill="#FEFFFE" transform="matrix(1.00, 0.00, -0.00, -1.00, 151.6, 42.0)">n</text><text xml:space="preserve" font-family="Chalkduster" font-size="20.0" fill="#FEFFFE" transform="matrix(1.00, 0.00, -0.00, -1.00, 165.6, 42.0)">,</text><text xml:space="preserve" font-family="Chalkduster" font-size="20.0" fill="#FEFFFE" transform="matrix(1.00, 0.00, -0.00, -1.00, 171.8, 42.0)"> </text><text xml:space="preserve" font-family="Chalkduster" font-size="20.0" fill="#FEFFFE" transform="matrix(1.00, 0.00, -0.00, -1.00, 181.8, 42.0)">t</text><text xml:space="preserve" font-family="Chalkduster" font-size="20.0" fill="#FEFFFE" transform="matrix(1.00, 0.00, -0.00, -1.00, 190.9, 42.0)">y</text><text xml:space="preserve" font-family="Chalkduster" font-size="20.0" fill="#FEFFFE" transform="matrix(1.00, 0.00, -0.00, -1.00, 203.1, 42.0)">p</text><text xml:space="preserve" font-family="Chalkduster" font-size="20.0" fill="#FEFFFE" transform="matrix(1.00, 0.00, -0.00, -1.00, 215.7, 42.0)">e</text><text xml:space="preserve" font-family="Chalkduster" font-size="20.0" fill="#FEFFFE" transform="matrix(1.00, 0.00, -0.00, -1.00, 227.6, 42.0)">,</text><text xml:space="preserve" font-family="Chalkduster" font-size="20.0" fill="#FEFFFE" transform="matrix(1.00, 0.00, -0.00, -1.00, 233.8, 42.0)"> </text><text xml:space="preserve" font-family="Chalkduster" font-size="20.0" fill="#FEFFFE" transform="matrix(1.00, 0.00, -0.00, -1.00, 243.7, 42.0)">h</text><text xml:space="preserve" font-family="Chalkduster" font-size="20.0" fill="#FEFFFE" transform="matrix(1.00, 0.00, -0.00, -1.00, 256.1, 42.0)">e</text><text xml:space="preserve" font-family="Chalkduster" font-size="20.0" fill="#FEFFFE" transform="matrix(1.00, 0.00, -0.00, -1.00, 268.5, 42.0)">l</text><text xml:space="preserve" font-family="Chalkduster" font-size="20.0" fill="#FEFFFE" transform="matrix(1.00, 0.00, -0.00, -1.00, 277.9, 42.0)">p</text><text xml:space="preserve" font-family="Chalkduster" font-size="20.0" fill="#FEFFFE" transform="matrix(1.00, 0.00, -0.00, -1.00, 290.2, 42.0)"> </text><text xml:space="preserve" font-family="Chalkduster" font-size="20.0" fill="#FEFFFE" transform="matrix(1.00, 0.00, -0.00, -1.00, 50.0, 11.0)">s</text><text xml:space="preserve" font-family="Chalkduster" font-size="20.0" fill="#FEFFFE" transform="matrix(1.00, 0.00, -0.00, -1.00, 60.1, 11.0)">u</text><text xml:space="preserve" font-family="Chalkduster" font-size="20.0" fill="#FEFFFE" transform="matrix(1.00, 0.00, -0.00, -1.00, 73.4, 11.0)">m</text><text xml:space="preserve" font-family="Chalkduster" font-size="20.0" fill="#FEFFFE" transform="matrix(1.00, 0.00, -0.00, -1.00, 93.7, 11.0)">,</text><text xml:space="preserve" font-family="Chalkduster" font-size="20.0" fill="#FEFFFE" transform="matrix(1.00, 0.00, -0.00, -1.00, 99.9, 11.0)"> </text><text xml:space="preserve" font-family="Chalkduster" font-size="20.0" fill="#FEFFFE" transform="matrix(1.00, 0.00, -0.00, -1.00, 109.8, 11.0)">r</text><text xml:space="preserve" font-family="Chalkduster" font-size="20.0" fill="#FEFFFE" transform="matrix(1.00, 0.00, -0.00, -1.00, 120.1, 11.0)">o</text><text xml:space="preserve" font-family="Chalkduster" font-size="20.0" fill="#FEFFFE" transform="matrix(1.00, 0.00, -0.00, -1.00, 135.1, 11.0)">u</text><text xml:space="preserve" font-family="Chalkduster" font-size="20.0" fill="#FEFFFE" transform="matrix(1.00, 0.00, -0.00, -1.00, 149.1, 11.0)">n</text><text xml:space="preserve" font-family="Chalkduster" font-size="20.0" fill="#FEFFFE" transform="matrix(1.00, 0.00, -0.00, -1.00, 163.8, 11.0)">d</text><text xml:space="preserve" font-family="Chalkduster" font-size="20.0" fill="#FEFFFE" transform="matrix(1.00, 0.00, -0.00, -1.00, 179.4, 11.0)">,</text><text xml:space="preserve" font-family="Chalkduster" font-size="20.0" fill="#FEFFFE" transform="matrix(1.00, 0.00, -0.00, -1.00, 185.6, 11.0)"> </text><text xml:space="preserve" font-family="Chalkduster" font-size="20.0" fill="#FEFFFE" transform="matrix(1.00, 0.00, -0.00, -1.00, 195.5, 11.0)">o</text><text xml:space="preserve" font-family="Chalkduster" font-size="20.0" fill="#FEFFFE" transform="matrix(1.00, 0.00, -0.00, -1.00, 210.1, 11.0)">p</text><text xml:space="preserve" font-family="Chalkduster" font-size="20.0" fill="#FEFFFE" transform="matrix(1.00, 0.00, -0.00, -1.00, 222.7, 11.0)">e</text><text xml:space="preserve" font-family="Chalkduster" font-size="20.0" fill="#FEFFFE" transform="matrix(1.00, 0.00, -0.00, -1.00, 235.3, 11.0)">n</text></g></g></g></svg>