<?xml version="1.0" encoding="UTF-8" standalone="no"?><svg xmlns="http://www.w3.org/2000/svg" xmlns:xlink="http://www.w3.org/1999/xlink" clip-rule="evenodd" stroke-miterlimit="4.00" viewBox="0 0 174 66"><desc>SVG generated by Keynote</desc><defs></defs><g transform="matrix(1.00, 0.00, -0.00, -1.00, 0.0, 66.0)"><path d="M 144.8 52.6 C 176.7 41.8 176.7 24.4 144.8 13.7 C 112.9 2.9 61.1 2.9 29.1 13.7 C -2.8 24.4 -2.8 41.8 29.1 52.6 C 61.1 63.3 112.9 63.3 144.8 52.6 Z M 144.8 52.6 " fill="#A8E685"></path><path d="M 43.7 5.8 C 43.5 5.9 43.2 6.0 42.8 6.1 C 43.0 6.1 43.1 6.2 43.1 6.3 C 43.5 6.1 44.0 6.0 44.8 5.9 C 44.7 5.8 44.3 5.9 44.1 5.9 C 43.8 6.0 43.8 5.9 43.7 5.8 C 43.7 5.8 43.7 5.8 43.7 5.8 Z M 39.0 58.8 C 38.4 58.6 39.0 59.1 39.3 59.1 C 39.3 59.1 39.3 59.0 39.6 59.1 C 39.6 59.3 39.0 59.3 38.6 59.2 C 36.9 58.7 38.3 58.6 39.0 58.8 C 39.0 58.8 39.0 58.8 39.0 58.8 Z M 132.0 59.3 C 133.4 59.0 131.8 59.1 131.6 59.1 C 132.2 58.9 131.6 58.6 132.4 58.4 C 132.6 58.5 132.9 58.5 133.1 58.6 C 132.7 58.7 132.2 58.8 132.2 58.9 C 132.7 58.8 133.3 58.6 133.5 58.7 C 132.4 59.0 133.3 58.9 133.5 59.1 C 132.6 59.2 132.3 59.5 132.0 59.3 C 132.0 59.3 132.0 59.3 132.0 59.3 Z M 154.4 14.6 C 154.9 14.9 155.3 15.1 155.2 15.1 C 154.6 14.9 154.3 14.7 154.0 14.5 C 153.9 14.5 154.0 14.7 153.5 14.5 C 153.0 14.1 153.4 13.9 153.7 13.9 C 153.7 14.1 155.6 14.9 154.4 14.6 C 154.4 14.6 154.4 14.6 154.4 14.6 Z M 115.9 5.1 C 114.7 4.8 115.8 5.5 114.5 5.2 C 114.6 5.0 114.4 4.7 115.3 4.8 C 115.4 4.9 115.9 5.0 115.9 5.1 C 115.9 5.1 115.9 5.1 115.9 5.1 Z M 92.8 61.9 C 92.8 62.0 93.8 61.9 93.6 62.2 C 93.1 62.2 92.6 62.2 92.1 62.2 C 92.0 62.0 92.2 61.9 92.8 61.9 C 92.8 61.9 92.8 61.9 92.8 61.9 Z M 140.5 54.8 C 141.9 54.6 143.2 53.9 142.9 54.2 C 143.4 54.3 142.1 55.2 142.1 54.9 C 141.9 54.7 139.5 55.1 140.5 54.8 C 140.5 54.8 140.5 54.8 140.5 54.8 Z M 47.2 56.3 C 48.6 56.8 48.5 56.0 49.4 56.5 C 49.1 56.5 48.9 56.5 48.7 56.6 C 49.0 56.6 49.4 56.7 49.4 56.8 C 48.6 56.7 47.7 56.6 47.2 56.3 C 47.2 56.3 47.2 56.3 47.2 56.3 Z M 67.0 3.1 C 67.3 3.1 67.4 3.0 67.4 2.9 C 68.5 2.9 68.4 2.7 69.1 2.8 C 69.2 3.1 68.2 3.1 67.4 3.1 C 67.3 3.1 67.1 3.2 67.0 3.1 C 67.0 3.1 67.0 3.1 67.0 3.1 Z M 98.7 3.5 C 98.7 3.3 98.0 3.2 99.1 3.2 C 100.3 3.5 99.2 3.7 98.0 3.8 C 98.0 3.9 98.0 4.0 98.0 4.1 C 98.4 4.1 98.8 4.2 99.0 4.2 C 99.3 3.8 100.0 4.6 101.9 4.4 C 101.0 4.6 101.9 4.9 100.8 4.7 C 101.1 4.9 100.3 4.9 100.4 5.1 C 100.9 5.0 102.1 5.1 101.9 4.8 C 102.5 4.8 103.0 4.9 103.3 4.9 C 103.7 5.2 102.1 4.9 102.6 5.2 C 102.9 5.2 103.0 5.3 103.2 5.3 C 103.3 5.2 103.2 5.1 103.6 5.1 C 104.7 5.3 103.4 5.4 105.0 5.5 C 105.1 5.4 104.6 5.3 104.7 5.2 C 105.4 5.1 105.4 5.3 106.1 5.2 C 106.2 5.4 105.6 5.4 106.1 5.5 C 106.5 5.1 107.5 5.8 108.5 5.6 C 107.9 5.0 108.7 5.7 109.6 5.3 C 109.8 5.5 109.1 5.7 109.9 5.8 C 109.7 5.2 112.8 5.6 110.4 4.9 C 111.7 5.0 112.2 4.6 111.1 4.4 C 113.4 4.8 112.7 4.4 113.6 4.4 C 114.5 4.5 113.1 4.5 113.6 4.7 C 112.6 4.6 112.8 4.8 112.2 4.6 C 112.2 4.7 112.0 4.7 111.8 4.8 C 112.7 4.7 113.8 5.2 113.1 5.4 C 112.6 5.3 113.1 5.1 112.5 5.0 C 112.7 5.4 111.8 4.9 111.7 5.1 C 112.2 5.5 110.8 5.6 112.0 5.8 C 112.1 5.7 112.1 5.5 112.1 5.4 C 112.4 5.4 112.8 5.5 113.1 5.5 C 113.4 5.8 113.1 5.9 113.4 6.0 C 114.0 6.1 114.3 6.1 114.5 6.0 C 113.8 5.8 113.0 5.5 114.1 5.6 C 113.7 6.0 115.8 5.9 114.8 6.1 C 116.1 6.4 116.7 6.1 116.8 6.4 C 117.5 6.5 117.1 6.2 117.9 6.3 C 119.1 6.7 118.9 6.3 120.6 6.8 C 120.8 6.4 120.7 6.9 121.2 7.0 C 121.3 6.8 121.3 6.7 121.3 6.6 C 121.9 6.9 123.2 7.2 124.6 7.2 C 124.9 7.3 124.6 7.5 125.5 7.6 C 126.6 7.4 127.6 8.0 128.8 7.9 C 128.9 8.1 129.7 8.3 130.1 8.2 C 130.2 8.4 129.6 8.6 130.3 8.7 C 130.8 8.6 130.0 8.3 131.0 8.4 C 130.9 8.7 132.0 8.4 132.0 8.7 C 131.6 8.7 131.3 8.7 131.0 8.8 C 131.4 8.9 131.2 9.0 131.6 9.1 C 131.6 8.7 132.3 9.2 132.5 9.3 C 132.5 9.1 132.6 9.0 132.9 9.0 C 133.4 9.1 133.9 9.2 134.2 9.2 C 134.8 9.5 133.7 9.3 134.4 9.5 C 134.9 9.0 135.4 9.8 136.9 9.8 C 137.2 10.1 137.8 10.3 138.6 10.6 C 138.8 10.5 137.8 10.3 137.8 10.1 C 139.1 10.5 137.6 9.9 138.5 10.2 C 140.3 10.8 141.5 11.1 143.3 11.9 C 143.3 11.7 144.8 12.0 144.8 12.1 C 144.4 12.0 145.7 12.7 146.7 13.1 C 147.1 12.9 148.8 13.1 149.0 12.9 C 149.3 13.3 149.2 13.2 149.2 13.6 C 150.9 14.4 151.9 14.4 152.7 15.2 C 152.7 15.0 153.4 15.3 154.0 15.5 C 153.8 15.6 153.4 15.6 153.0 15.5 C 153.8 15.9 153.9 16.0 154.6 16.4 C 155.6 16.1 156.3 17.4 157.1 17.1 C 158.1 17.6 157.8 17.8 158.7 18.3 C 158.7 18.2 158.9 18.1 159.2 18.2 C 158.6 17.9 158.0 17.8 157.8 17.4 C 159.2 18.1 155.5 15.4 157.9 16.4 C 157.9 16.5 157.6 16.6 158.1 16.9 C 159.5 17.5 158.8 16.8 158.3 16.6 C 159.2 17.0 160.1 17.6 159.5 16.9 C 161.5 18.0 160.2 17.4 160.8 17.9 C 164.1 19.9 167.6 22.6 169.5 26.2 C 169.8 26.2 170.5 28.2 170.6 28.9 C 171.2 29.9 171.5 31.0 171.2 31.4 C 171.5 31.5 171.1 32.7 171.4 32.8 C 171.4 32.3 171.5 32.0 171.6 32.4 C 171.5 34.0 171.0 36.3 170.9 37.2 C 170.4 37.6 170.1 38.6 169.9 39.3 C 169.7 39.3 169.9 38.8 169.7 39.2 C 169.7 39.4 169.1 40.8 168.7 41.0 C 169.0 40.6 169.0 40.0 168.6 40.6 C 168.8 40.7 168.2 41.3 168.5 41.3 C 167.8 42.0 167.6 42.6 166.9 43.1 C 167.3 42.6 167.5 42.2 167.5 42.0 C 167.2 42.5 166.9 42.9 166.4 43.2 C 166.8 43.3 165.9 43.9 165.3 44.7 C 165.0 44.9 164.7 44.9 164.0 45.5 C 163.8 45.9 165.3 44.8 164.5 45.5 C 164.4 45.4 163.6 45.9 164.0 45.9 C 162.9 46.6 162.5 47.1 161.5 47.5 C 162.7 46.9 161.6 47.1 161.3 47.3 C 161.1 47.4 160.7 47.7 160.7 47.7 C 160.8 47.8 161.3 47.4 161.5 47.5 C 160.6 47.9 160.6 48.4 160.2 48.4 C 160.6 48.1 160.6 48.0 160.1 48.2 C 160.2 48.6 157.6 49.8 158.4 49.2 C 158.4 49.3 159.4 48.7 159.4 48.6 C 159.1 48.6 157.7 49.6 157.9 49.2 C 158.7 48.7 158.8 48.9 159.7 48.2 C 159.7 48.0 160.2 47.6 160.5 47.3 C 159.1 48.3 158.8 48.7 158.5 48.6 C 157.8 49.0 158.4 49.0 157.2 49.6 C 155.4 50.4 156.7 49.4 156.3 49.6 C 154.8 50.5 155.4 50.6 156.2 50.4 C 154.9 51.0 154.6 51.4 153.0 52.0 C 153.0 51.9 153.2 51.7 153.7 51.4 C 153.8 51.4 155.1 50.9 155.0 50.9 C 154.7 50.6 153.6 51.0 151.8 51.7 C 152.4 51.8 152.4 51.6 150.6 52.4 C 151.0 52.6 149.7 52.6 149.7 52.9 C 149.8 52.9 150.5 52.7 151.1 52.4 C 151.1 52.6 150.9 52.8 150.3 53.0 C 149.9 53.1 149.6 53.4 148.5 53.7 C 148.3 53.5 149.1 53.2 149.2 53.0 C 148.6 53.2 148.5 53.4 147.9 53.6 C 147.2 53.6 147.2 53.3 147.1 53.0 C 147.8 52.6 148.9 52.2 148.0 52.4 C 150.7 51.4 148.0 52.8 149.0 52.4 C 150.0 51.7 149.6 52.4 151.3 51.6 C 151.8 51.4 151.9 51.3 152.1 51.1 C 151.9 51.1 150.9 51.3 151.9 50.8 C 152.3 50.9 152.9 50.7 153.7 50.4 C 153.7 50.3 151.9 50.9 153.6 50.2 C 154.5 49.8 153.9 50.4 155.0 49.9 C 154.9 49.8 155.2 49.6 155.3 49.5 C 153.7 50.4 155.5 49.2 154.4 49.6 C 155.7 48.9 154.7 49.8 155.6 49.3 C 155.6 49.1 157.1 48.7 157.0 48.4 C 156.5 48.8 155.4 49.3 155.4 49.0 C 156.5 48.6 160.4 46.0 159.1 47.3 C 159.6 46.8 162.0 44.7 161.9 45.0 C 161.2 45.5 161.3 45.6 161.3 45.8 C 162.5 44.6 163.4 44.2 164.4 42.8 C 163.0 44.1 163.7 42.8 162.8 43.4 C 162.4 43.7 161.8 44.1 161.8 44.3 C 162.1 44.3 162.7 43.8 162.8 43.4 C 163.0 43.6 163.1 43.8 163.2 43.9 C 161.4 45.1 160.5 46.0 159.5 46.5 C 160.3 46.0 157.7 47.2 158.7 46.6 C 159.2 46.5 160.1 45.9 160.9 45.4 C 160.9 45.3 160.8 45.3 160.8 45.2 C 161.1 44.9 161.6 44.6 161.6 44.5 C 160.6 45.3 159.9 45.5 159.2 46.1 C 159.2 46.1 159.2 46.0 159.2 46.0 C 159.0 46.1 158.8 46.2 158.8 46.1 C 159.2 45.9 159.7 45.6 159.7 45.5 C 158.9 45.9 158.6 45.8 157.6 46.4 C 157.7 46.0 156.3 46.4 157.6 45.5 C 158.0 45.6 158.7 45.3 158.8 45.4 C 159.2 45.2 159.9 44.7 160.2 44.3 C 159.8 44.4 159.0 44.9 158.8 44.7 C 159.4 44.3 159.8 43.9 160.2 43.8 C 159.2 44.8 161.0 43.5 161.6 43.4 C 161.4 43.4 161.1 43.6 160.9 43.6 C 161.7 42.9 162.2 42.8 162.0 42.5 C 162.9 41.6 162.8 42.0 163.4 41.4 C 162.8 41.6 163.7 41.0 163.1 41.1 C 164.0 40.1 163.6 41.0 163.9 40.7 C 164.2 40.4 164.1 40.3 164.3 40.0 C 164.8 39.7 165.5 38.9 165.8 38.9 C 166.0 38.6 166.2 38.6 166.4 38.2 C 166.3 38.0 166.3 37.9 166.4 37.7 C 166.5 37.7 166.7 37.4 166.7 37.3 C 165.8 38.2 166.0 37.9 165.0 38.7 C 165.1 38.9 165.0 39.0 165.2 38.9 C 164.8 39.6 164.5 39.7 163.9 40.4 C 163.7 40.3 163.3 40.2 162.9 40.9 C 162.9 40.6 162.7 40.7 162.8 40.4 C 163.2 40.2 163.7 39.9 164.1 39.5 C 164.1 39.4 163.9 39.4 164.1 39.2 C 164.3 39.1 164.6 38.8 164.7 38.5 C 164.8 38.5 164.8 38.7 164.8 38.8 C 165.5 37.9 165.0 38.1 165.6 37.5 C 165.4 37.5 165.1 37.9 165.2 37.5 C 165.5 36.8 165.7 36.8 165.9 36.5 C 165.9 36.4 165.8 36.4 165.9 36.2 C 166.2 35.9 165.8 37.4 166.5 36.8 C 166.3 36.6 166.7 35.9 166.9 35.8 C 167.0 36.1 166.5 36.5 166.7 36.6 C 167.3 35.2 167.2 36.7 167.6 35.2 C 167.5 35.2 167.4 35.2 167.3 35.1 C 167.2 35.7 167.0 35.7 166.8 35.6 C 166.6 36.1 166.2 36.2 166.2 36.6 C 165.9 36.3 166.4 36.2 166.6 35.7 C 166.3 35.7 166.1 36.1 165.9 36.1 C 166.6 35.0 166.3 34.8 166.7 33.7 C 166.4 34.0 166.7 33.2 166.5 33.2 C 166.6 34.1 165.9 33.7 165.8 33.8 C 165.8 34.3 166.2 34.2 166.3 34.5 C 166.0 34.6 165.9 34.5 165.6 34.4 C 165.8 33.9 165.7 34.0 165.6 33.6 C 165.9 33.4 166.3 33.1 166.4 33.5 C 166.4 33.4 166.3 32.8 166.4 32.7 C 166.5 33.4 166.6 32.7 166.7 33.0 C 166.9 32.5 166.4 31.7 166.5 31.0 C 166.3 31.1 166.2 30.9 166.1 30.9 C 166.5 31.5 166.0 31.7 166.1 32.3 C 166.0 32.0 165.9 32.2 165.8 32.3 C 165.9 31.8 165.6 31.5 165.7 31.0 C 165.7 31.1 165.6 31.1 165.5 31.1 C 165.5 30.4 165.4 30.5 165.0 30.0 C 165.0 29.8 165.5 29.9 165.8 29.8 C 165.6 29.6 165.1 28.6 165.2 29.3 C 164.8 28.7 165.2 28.7 164.8 28.1 C 164.5 28.2 164.9 28.8 164.5 28.7 C 164.1 28.2 164.6 28.3 164.1 28.0 C 164.3 27.9 164.4 27.7 164.0 27.2 C 164.2 27.7 163.9 27.2 163.7 27.2 C 163.8 27.4 163.9 27.7 164.0 27.8 C 163.3 26.9 163.2 26.7 162.4 26.0 C 162.8 26.1 162.5 25.6 163.1 26.0 C 162.5 25.7 162.0 24.9 161.7 24.7 C 161.9 25.1 162.4 25.6 162.5 25.9 C 161.0 24.4 159.7 23.9 158.0 22.3 C 158.3 22.5 158.8 22.9 158.9 22.8 C 158.7 22.7 158.3 22.4 158.3 22.4 C 159.0 22.8 159.6 23.3 160.0 23.4 C 160.5 23.9 159.6 23.4 160.1 23.8 C 160.3 23.8 161.2 24.7 161.0 24.1 C 160.0 23.6 159.2 22.7 158.9 22.1 C 157.7 21.8 158.7 22.4 157.3 22.1 C 157.4 22.0 157.1 21.8 156.8 21.5 C 157.0 22.1 155.6 21.0 155.4 20.9 C 156.1 21.1 158.2 22.2 157.3 21.3 C 157.5 22.1 154.9 19.7 155.3 20.5 C 153.8 19.8 154.5 19.7 153.5 19.6 C 153.5 19.5 153.7 19.4 153.2 19.2 C 152.8 19.0 152.6 19.0 152.4 19.0 C 154.6 20.1 153.8 20.1 155.1 20.8 C 154.8 20.7 154.6 20.6 154.7 20.7 C 154.6 20.8 154.6 20.8 154.3 20.6 C 154.3 20.3 153.2 20.1 152.9 19.8 C 153.4 20.0 153.8 20.2 153.7 20.0 C 151.9 19.1 152.4 19.0 149.6 17.7 C 150.4 18.2 149.3 17.8 148.3 17.4 C 146.9 16.8 147.6 16.6 145.7 16.0 C 145.7 16.7 143.9 15.3 142.5 15.3 C 142.8 15.0 141.1 14.4 140.6 14.5 C 140.6 14.4 140.0 14.2 139.5 14.1 C 139.5 13.9 140.0 14.0 139.6 13.9 C 139.2 13.8 139.5 14.2 138.9 14.0 C 138.4 13.8 138.5 13.6 137.6 13.3 C 137.5 13.5 138.0 13.6 137.5 13.6 C 136.7 13.3 136.0 13.1 136.6 13.6 C 135.4 13.3 136.1 13.0 134.9 12.7 C 135.2 12.9 135.2 13.0 134.6 12.9 C 134.2 12.6 134.2 12.5 134.0 12.3 C 133.6 12.5 133.8 12.5 132.8 12.2 C 132.8 12.3 132.8 12.4 132.7 12.5 C 132.3 12.4 131.6 12.3 131.5 12.2 C 132.4 12.4 132.2 12.1 132.5 12.1 C 131.7 11.9 130.1 11.3 131.3 11.9 C 130.1 11.7 130.7 11.5 129.8 11.4 C 130.3 11.8 129.8 11.4 128.8 11.3 C 128.8 11.6 128.2 11.2 127.5 11.1 C 127.6 11.3 127.4 11.4 126.9 11.3 C 126.9 11.2 126.6 11.0 125.9 10.9 C 125.9 11.1 127.2 11.4 125.9 11.2 C 125.3 11.0 125.3 10.7 124.3 10.5 C 124.2 10.2 125.3 10.5 125.1 10.2 C 124.2 10.3 124.0 10.1 122.8 9.8 C 123.2 10.4 120.3 10.0 121.7 10.5 C 121.3 10.4 120.6 10.6 120.4 10.3 C 120.8 10.3 120.0 10.0 120.1 10.0 C 119.5 9.9 118.2 9.6 118.1 9.8 C 119.4 9.9 119.3 10.1 119.7 10.3 C 117.9 10.2 116.2 9.9 116.4 9.6 C 116.4 9.7 116.1 9.7 116.1 9.7 C 116.7 9.8 117.1 10.2 116.3 10.2 C 116.5 9.9 116.0 9.8 115.4 9.6 C 115.3 9.9 112.9 9.2 113.3 9.6 C 114.4 9.6 115.1 10.0 114.3 10.1 C 113.7 9.8 112.4 9.5 112.7 9.3 C 112.3 9.4 112.0 9.4 111.7 9.4 C 111.3 9.6 112.1 9.7 111.9 9.9 C 111.4 9.8 110.7 9.8 110.6 9.7 C 112.0 9.8 109.9 9.4 111.3 9.4 C 110.5 9.3 110.3 9.2 109.6 9.1 C 109.6 9.2 109.3 9.2 109.3 9.2 C 109.9 9.1 110.5 9.3 110.3 9.5 C 109.0 9.5 109.3 9.2 108.2 9.1 C 107.9 9.3 106.5 9.5 105.8 9.2 C 107.2 9.3 105.7 9.1 106.5 9.0 C 107.7 9.3 108.1 9.1 108.6 8.9 C 108.1 8.7 107.0 8.5 106.9 8.8 C 107.5 8.9 107.5 8.8 107.9 8.8 C 107.9 8.9 107.7 9.0 107.2 9.0 C 106.6 8.8 105.3 8.9 106.2 8.6 C 105.3 8.7 104.3 8.4 103.4 8.5 C 104.4 8.6 105.2 8.7 105.5 9.0 C 104.6 9.0 103.8 8.6 103.7 8.8 C 103.8 9.0 105.2 9.1 105.4 9.3 C 104.3 9.4 102.7 8.6 104.0 9.2 C 103.4 9.2 102.6 9.1 102.3 9.0 C 103.1 9.0 102.3 8.6 102.0 8.5 C 101.3 8.5 100.8 8.5 100.6 8.6 C 101.6 8.6 102.3 9.0 101.6 8.9 C 101.4 8.8 101.2 8.9 100.9 9.0 C 100.9 8.8 99.7 8.8 99.5 8.7 C 99.6 8.8 100.1 8.9 100.2 9.0 C 99.5 9.0 98.6 9.3 98.1 9.0 C 98.5 9.0 99.1 9.0 99.1 8.9 C 97.3 8.5 96.8 8.2 94.6 8.0 C 94.9 8.0 95.0 7.9 95.0 7.8 C 93.6 7.7 92.7 7.6 92.9 7.4 C 92.0 7.4 91.5 7.6 91.1 7.7 C 92.0 7.9 92.3 7.6 92.9 7.8 C 92.5 7.9 93.5 8.3 93.9 8.5 C 95.4 8.3 95.5 8.7 97.1 8.6 C 96.6 8.8 98.2 8.7 97.7 9.0 C 96.3 8.5 94.9 8.7 92.8 8.5 C 93.1 8.3 93.4 8.2 92.5 8.1 C 91.2 7.9 91.8 8.3 90.7 8.2 C 90.3 8.0 90.9 7.9 90.4 7.9 C 90.0 8.0 88.9 7.9 88.6 7.7 C 90.1 7.7 88.3 7.5 89.3 7.4 C 88.8 7.4 88.5 7.3 88.2 7.3 C 89.6 7.6 86.8 7.6 87.9 7.8 C 85.9 8.0 87.7 7.2 86.1 7.3 C 86.9 7.4 85.9 7.6 84.7 7.5 C 84.4 7.3 83.2 7.2 82.2 7.2 C 82.7 7.3 83.1 7.3 82.2 7.5 C 82.7 7.6 83.5 7.6 84.0 7.5 C 84.0 7.6 84.1 7.6 84.3 7.7 C 83.2 7.8 83.7 7.9 83.3 7.9 C 82.9 7.8 82.1 7.9 81.9 7.7 C 81.9 7.8 81.5 7.8 81.5 7.9 C 83.0 7.9 81.3 8.2 82.2 8.3 C 82.9 8.3 82.4 8.0 83.3 8.0 C 84.1 8.3 82.6 8.4 82.2 8.6 C 82.9 8.8 83.7 8.4 84.0 8.7 C 83.1 9.0 81.6 8.9 80.5 8.8 C 80.5 9.1 78.5 8.8 78.3 9.2 C 78.2 9.1 78.0 9.0 77.7 9.0 C 77.3 9.3 76.9 8.9 76.6 8.9 C 76.6 9.1 76.7 9.2 76.9 9.2 C 75.5 9.2 75.2 9.2 73.5 9.4 C 73.2 9.3 72.9 9.2 72.7 9.0 C 73.1 8.9 73.5 8.8 73.8 8.8 C 71.4 8.9 73.0 9.4 71.3 9.1 C 71.4 9.3 72.5 9.5 71.7 9.6 C 70.2 9.4 68.2 9.8 68.2 9.1 C 66.9 9.0 66.1 9.6 65.4 9.3 C 65.0 9.3 64.9 9.4 64.8 9.5 C 65.2 9.6 65.7 9.7 66.2 9.8 C 66.9 9.6 67.3 9.8 66.5 9.5 C 67.6 9.4 68.0 9.5 68.6 9.6 C 67.0 9.9 65.6 9.8 65.5 10.2 C 65.0 10.1 64.6 9.9 64.1 9.8 C 64.0 10.0 62.2 10.3 62.1 10.0 C 63.3 10.0 64.5 9.6 63.4 9.5 C 60.5 10.0 58.8 9.7 56.3 10.3 C 56.2 10.2 56.4 10.0 55.9 10.1 C 56.0 10.2 55.9 10.3 55.6 10.4 C 54.9 10.5 54.4 10.5 53.3 10.7 C 53.4 10.5 53.2 10.3 52.6 10.3 C 52.3 10.6 51.4 11.3 50.7 11.3 C 51.4 11.2 50.5 11.0 50.1 11.1 C 50.5 11.3 47.1 11.3 48.1 11.5 C 46.8 11.7 46.3 11.7 46.2 11.6 C 45.8 11.7 45.4 11.9 45.0 12.0 C 44.7 11.7 42.5 12.5 42.2 12.4 C 43.0 12.3 43.0 11.9 42.4 12.1 C 42.0 12.3 40.2 13.0 39.8 13.0 C 39.9 12.9 40.0 12.6 40.9 12.3 C 39.3 12.7 39.4 13.0 38.9 13.4 C 38.9 13.0 38.2 13.5 38.0 13.6 C 37.5 13.6 38.0 13.5 38.0 13.3 C 37.4 13.4 37.2 13.3 36.5 13.5 C 36.7 13.7 35.9 13.8 35.6 13.8 C 35.5 14.0 35.2 14.3 34.6 14.5 C 35.3 13.8 30.9 15.1 32.0 15.1 C 31.2 15.6 31.1 15.1 30.0 15.5 C 29.9 15.7 29.2 15.8 29.8 15.8 C 29.0 16.1 29.1 15.7 27.4 16.5 C 28.3 16.5 25.7 17.0 26.2 17.2 C 25.3 17.1 24.2 18.2 22.8 18.4 C 22.8 18.5 22.5 18.6 22.4 18.7 C 22.3 18.9 24.0 18.2 22.9 18.8 C 21.5 19.2 22.2 18.8 22.0 18.8 C 18.5 20.5 15.0 22.4 12.6 24.2 C 13.0 24.1 13.0 24.2 12.6 24.6 C 11.6 24.7 9.7 27.1 9.6 27.5 C 9.2 27.5 8.7 28.7 8.5 28.9 C 8.6 28.7 8.7 28.1 8.4 28.6 C 8.5 29.0 8.1 29.3 8.1 29.8 C 7.7 29.9 7.5 31.3 7.3 30.5 C 7.2 30.8 7.1 30.9 7.0 31.0 C 7.3 31.1 7.2 31.4 7.5 31.0 C 6.9 32.0 7.2 32.3 7.0 33.2 C 7.1 33.4 7.3 32.7 7.3 33.2 C 7.3 33.2 7.2 33.2 7.1 33.2 C 7.1 33.4 7.3 33.4 7.2 33.5 C 7.0 33.5 7.0 33.2 6.7 33.2 C 6.9 33.6 6.6 34.0 6.8 34.1 C 6.8 33.5 7.3 33.8 7.1 34.2 C 6.9 33.9 7.4 35.6 7.8 36.1 C 7.6 36.5 7.5 35.5 7.3 35.7 C 7.7 36.7 7.7 36.7 8.0 36.7 C 8.2 37.3 8.2 37.6 8.8 38.2 C 8.9 38.6 8.4 38.0 8.7 38.5 C 8.9 38.7 9.1 38.7 9.5 39.1 C 9.8 40.4 13.0 42.2 14.2 44.0 C 13.7 43.4 14.6 43.9 15.6 44.5 C 15.6 44.6 15.4 44.7 15.7 44.9 C 15.8 44.7 16.1 44.9 16.8 45.3 C 16.8 45.4 16.6 45.4 17.0 45.7 C 17.4 45.6 18.1 46.3 18.8 46.5 C 18.9 46.8 17.4 45.9 17.3 46.0 C 18.9 47.1 19.3 47.0 20.8 47.8 C 20.0 47.5 21.2 48.3 21.4 48.5 C 21.2 48.1 22.5 48.5 21.7 48.0 C 22.2 48.2 23.2 48.6 23.2 48.8 C 22.9 48.6 22.4 48.4 22.4 48.5 C 23.1 48.7 24.0 49.4 24.5 49.4 C 24.0 49.1 23.7 48.9 23.7 48.8 C 24.0 48.8 24.2 48.8 24.7 48.9 C 23.2 49.0 26.9 50.1 27.2 50.1 C 27.4 50.6 27.7 50.6 27.5 50.8 C 29.1 51.4 29.2 51.1 29.8 51.2 C 29.6 51.4 29.3 51.6 30.1 52.0 C 30.1 51.6 31.1 52.0 30.9 51.6 C 33.2 52.2 33.6 52.7 35.1 53.1 C 35.1 53.0 34.7 52.8 35.1 52.9 C 35.8 53.2 36.3 53.5 36.8 53.7 C 37.2 53.6 36.7 53.4 37.1 53.5 C 38.1 54.0 37.8 54.2 38.7 54.6 C 40.0 54.7 39.5 54.8 40.3 54.7 C 40.0 54.6 39.6 54.4 40.1 54.5 C 40.7 54.9 41.0 55.2 41.1 55.3 C 40.6 55.2 40.2 55.0 39.9 54.9 C 39.7 55.0 39.0 54.9 39.6 55.2 C 38.8 54.9 38.0 54.7 36.9 54.4 C 37.2 54.8 35.9 54.2 36.2 54.6 C 37.4 54.8 37.7 55.1 38.9 55.3 C 38.7 55.0 39.9 55.4 40.1 55.5 C 40.1 55.4 41.0 55.6 40.8 55.4 C 41.7 55.5 41.7 55.7 42.6 55.9 C 42.7 56.0 42.5 56.1 42.9 56.2 C 43.3 56.0 43.5 56.4 43.8 56.4 C 43.7 56.1 45.0 56.6 45.1 56.4 C 44.8 56.3 44.2 56.2 44.2 56.1 C 45.7 56.5 44.6 56.0 44.3 55.7 C 44.3 55.8 43.7 56.1 43.6 55.8 C 44.9 55.9 41.9 55.0 43.1 55.4 C 44.0 55.6 44.0 55.4 45.0 55.7 C 46.0 56.4 44.6 56.3 45.7 56.9 C 46.5 56.8 47.0 57.0 47.1 56.8 C 47.2 56.9 47.4 57.0 47.6 57.1 C 48.0 57.0 46.8 56.7 47.7 56.8 C 48.2 57.0 47.6 57.2 48.6 57.3 C 49.1 57.2 47.4 56.8 48.4 56.9 C 49.3 57.5 48.2 56.8 49.3 56.9 C 49.4 57.0 49.6 57.1 50.0 57.1 C 50.0 57.3 49.8 57.4 50.3 57.5 C 50.5 57.1 50.7 57.7 51.6 57.8 C 52.1 57.6 50.7 57.5 51.0 57.3 C 51.9 57.8 52.6 57.5 52.9 57.6 C 52.1 57.7 54.2 58.0 54.2 58.2 C 54.0 57.9 54.5 58.1 55.6 58.0 C 55.6 58.5 57.0 58.3 57.2 58.7 C 57.4 58.6 57.8 58.6 57.9 58.5 C 57.5 58.4 57.2 58.4 57.3 58.2 C 57.6 58.3 58.0 58.3 58.3 58.4 C 58.9 58.6 57.3 59.0 59.6 59.2 C 59.4 58.8 60.3 58.9 61.0 58.8 C 61.0 58.6 60.1 58.7 60.0 58.6 C 60.8 58.5 61.6 58.8 62.0 59.0 C 63.4 59.0 65.0 59.3 66.9 59.3 C 67.3 59.6 65.3 59.4 66.5 59.6 C 67.1 59.7 66.8 59.5 67.6 59.6 C 66.8 60.6 72.8 60.1 73.2 60.6 C 73.4 60.4 75.1 60.6 75.0 60.3 C 73.8 60.5 73.0 60.1 72.5 59.9 C 71.4 60.0 73.5 60.2 72.5 60.2 C 72.4 60.1 70.9 60.1 71.1 59.9 C 72.6 60.0 70.3 59.6 71.5 59.4 C 72.9 59.6 75.7 59.5 75.0 59.7 C 75.0 59.6 74.4 59.6 74.3 59.7 C 75.9 59.9 76.8 59.7 77.5 59.6 C 78.2 59.8 81.1 59.6 80.3 59.7 C 80.6 59.9 78.6 59.6 78.9 59.8 C 81.9 60.0 81.9 59.8 83.9 60.0 C 83.3 59.7 85.9 59.6 85.7 59.7 C 85.7 59.9 86.3 60.1 87.5 59.9 C 87.3 60.1 87.9 60.2 88.5 60.3 C 88.8 60.0 88.0 60.0 88.2 59.9 C 88.8 59.9 89.4 59.8 90.0 59.8 C 90.0 59.9 89.9 60.1 90.3 60.1 C 91.0 59.9 93.4 59.6 93.2 59.8 C 92.2 60.1 94.8 60.0 93.2 60.3 C 93.6 60.3 93.7 60.3 94.3 60.3 C 94.3 60.2 94.3 60.1 94.3 60.0 C 95.6 59.9 94.9 60.4 96.0 60.3 C 96.1 60.2 96.6 60.2 96.8 60.1 C 96.3 60.1 96.3 60.2 95.7 60.2 C 96.3 59.8 94.5 60.0 94.6 59.7 C 95.8 59.7 95.8 59.9 96.4 60.0 C 97.9 59.8 97.2 59.9 98.9 59.9 C 98.9 59.8 98.4 59.8 98.5 59.7 C 100.5 59.6 100.3 60.1 101.7 59.9 C 101.4 59.9 100.2 60.2 101.0 60.2 C 101.9 60.0 102.2 59.7 103.4 59.6 C 103.5 59.7 103.4 59.8 103.8 59.8 C 104.3 59.7 104.4 59.5 104.8 59.4 C 104.9 59.5 105.6 59.3 105.9 59.3 C 106.3 59.4 105.7 59.5 106.3 59.6 C 107.3 59.5 107.8 58.9 108.7 58.9 C 108.7 59.2 109.6 59.0 110.4 58.9 C 110.6 59.2 112.4 58.9 113.5 58.8 C 113.2 58.6 114.5 58.6 114.2 58.4 C 113.6 58.4 113.3 58.4 113.1 58.3 C 114.5 58.2 114.9 58.6 115.9 58.1 C 116.4 58.2 117.0 58.3 117.9 58.2 C 118.0 58.1 116.3 58.2 117.2 58.0 C 117.3 58.1 117.6 58.0 117.9 57.9 C 117.8 58.2 118.5 58.2 119.0 58.2 C 119.7 57.9 121.4 58.0 120.6 57.8 C 121.8 57.6 121.1 58.1 122.0 58.0 C 121.5 57.7 123.1 57.5 122.2 57.4 C 123.5 57.1 123.5 57.6 123.0 57.8 C 124.1 57.7 124.3 57.4 124.9 57.4 C 124.4 57.3 126.1 56.8 125.2 57.1 C 125.0 57.5 126.3 57.1 126.5 57.1 C 126.1 57.0 126.7 56.9 125.9 56.9 C 126.7 56.7 127.9 56.5 128.8 56.6 C 129.8 56.2 130.7 56.0 130.3 56.3 C 131.3 56.1 130.9 56.1 131.9 56.0 C 131.9 55.9 131.6 55.9 131.6 55.9 C 132.9 55.6 132.7 55.8 134.4 55.4 C 134.2 55.8 135.3 55.5 135.7 55.6 C 135.0 55.7 134.4 55.8 133.8 55.9 C 133.7 56.0 134.3 56.0 133.9 56.1 C 133.8 56.0 133.5 56.1 133.2 56.1 C 134.4 56.1 131.9 56.8 132.6 56.4 C 132.7 56.4 132.7 56.5 133.0 56.4 C 132.7 56.2 132.7 56.3 132.9 56.0 C 132.3 56.2 131.8 56.0 131.6 56.3 C 131.7 56.4 132.2 56.2 132.3 56.3 C 130.9 56.8 131.8 56.1 130.7 56.4 C 130.5 56.7 131.1 56.7 131.4 56.7 C 130.4 57.0 129.5 57.2 129.2 57.0 C 128.2 57.3 129.3 57.2 128.6 57.5 C 128.3 57.4 128.2 57.3 127.6 57.4 C 126.9 57.6 128.0 57.5 127.3 57.7 C 126.5 57.6 127.8 57.2 126.6 57.4 C 126.9 57.7 125.5 57.5 125.6 57.7 C 126.3 57.6 126.4 57.9 126.0 57.7 C 124.4 57.7 123.4 58.8 121.7 58.5 C 121.7 58.5 121.5 58.6 121.4 58.7 C 122.6 58.7 124.4 58.4 124.8 58.7 C 125.7 58.4 125.6 58.2 125.7 58.1 C 126.9 58.2 126.8 58.3 126.2 58.8 C 124.3 59.2 123.5 59.1 122.2 59.2 C 121.5 59.5 122.3 59.3 122.6 59.4 C 118.6 59.8 121.7 60.0 120.3 60.1 C 120.3 60.0 120.0 60.0 119.6 60.0 C 119.6 60.1 119.0 60.2 118.9 60.3 C 119.2 60.2 119.3 60.3 119.3 60.4 C 118.3 60.6 118.6 60.3 118.6 60.2 C 119.3 60.1 119.8 60.0 119.9 59.8 C 118.9 60.1 118.1 59.9 117.5 60.3 C 116.6 60.1 117.9 59.5 117.4 59.3 C 117.5 59.1 116.9 60.0 116.1 60.2 C 114.9 60.4 114.9 60.6 113.8 60.8 C 113.4 60.5 114.9 60.5 114.8 60.3 C 114.4 60.4 114.4 60.3 114.0 60.3 C 113.2 60.4 113.3 60.7 112.7 60.8 C 112.3 60.6 112.2 60.8 111.7 60.9 C 110.9 60.9 112.1 60.7 111.3 60.7 C 110.4 60.7 109.9 61.1 109.6 61.1 C 109.5 61.0 109.6 60.9 109.2 60.9 C 108.3 61.2 108.0 61.2 109.3 61.2 C 108.2 61.3 107.7 61.4 107.9 61.7 C 109.5 61.6 109.9 61.5 110.7 61.7 C 111.0 61.4 111.5 61.6 112.1 61.6 C 111.7 61.2 112.8 61.5 113.1 61.2 C 112.7 61.2 112.3 61.2 112.1 61.2 C 113.8 61.0 113.8 61.1 115.1 60.5 C 115.1 60.6 115.3 60.7 115.5 60.7 C 115.1 60.9 113.8 61.0 113.8 61.2 C 114.8 61.3 115.1 60.8 116.2 61.0 C 116.7 60.8 115.3 60.8 116.2 60.7 C 116.7 60.8 117.2 60.9 118.0 60.9 C 118.7 60.7 119.0 60.6 119.6 60.4 C 119.7 60.5 119.8 60.6 120.3 60.5 C 120.3 60.4 119.7 60.4 120.3 60.2 C 122.1 60.3 123.3 60.3 125.0 59.9 C 124.4 59.9 123.0 59.9 123.7 59.8 C 124.5 59.8 125.5 59.3 126.3 59.4 C 126.6 59.4 125.3 59.5 125.7 59.8 C 126.5 59.7 126.9 59.6 127.3 59.6 C 127.3 59.5 128.2 59.3 127.9 59.2 C 127.3 59.3 127.2 59.6 127.0 59.5 C 127.4 58.7 129.4 59.3 130.6 59.0 C 131.3 58.8 130.0 58.9 130.8 58.7 C 131.4 58.4 131.8 58.9 131.0 59.2 C 130.3 59.2 130.1 59.6 130.0 59.3 C 129.7 59.4 129.3 59.5 129.4 59.5 C 129.8 59.5 129.7 59.6 130.0 59.7 C 129.4 59.7 129.4 60.2 128.8 60.1 C 129.1 60.0 129.3 59.9 129.4 59.8 C 127.7 60.2 127.1 60.1 126.1 60.2 C 126.7 60.2 126.1 60.3 126.1 60.5 C 126.9 60.3 128.4 60.2 127.5 60.4 C 126.8 60.2 126.5 61.1 125.9 60.9 C 126.3 60.8 126.2 60.6 126.5 60.5 C 125.8 60.6 125.8 60.4 125.1 60.5 C 123.0 61.2 121.3 60.9 117.7 61.9 C 116.5 62.0 118.9 61.6 118.7 61.4 C 118.4 61.5 118.3 61.4 118.0 61.4 C 118.0 61.7 117.4 61.5 117.0 61.8 C 117.1 61.6 115.4 62.0 114.6 61.9 C 114.5 62.0 114.7 62.1 114.3 62.2 C 111.7 62.1 107.1 63.0 105.1 62.9 C 105.2 63.1 104.3 63.1 104.1 63.3 C 102.8 63.3 103.4 63.1 101.6 63.4 C 100.7 63.5 101.7 63.2 101.9 63.2 C 99.2 63.5 96.8 63.3 95.1 63.7 C 94.2 63.8 95.1 63.5 93.3 63.5 C 93.2 63.8 90.4 63.3 90.0 63.8 C 88.9 63.8 86.9 63.4 87.8 63.7 C 86.3 63.7 87.3 63.4 86.7 63.4 C 85.7 63.4 87.1 64.0 86.0 64.0 C 86.1 63.8 85.2 63.9 84.6 63.6 C 85.4 63.6 85.9 63.6 86.0 63.5 C 85.3 63.6 85.4 63.4 84.2 63.5 C 83.4 63.6 80.9 63.7 80.2 63.4 C 80.2 63.5 80.4 63.6 80.6 63.6 C 79.9 63.6 79.0 63.3 79.1 63.7 C 77.5 63.6 76.8 63.3 75.9 63.5 C 75.2 63.6 76.2 63.3 74.1 63.2 C 74.0 63.4 70.4 63.2 69.5 62.9 C 69.4 63.2 69.2 62.9 68.8 62.9 C 68.7 63.0 68.8 63.1 68.4 63.1 C 68.3 63.0 68.0 63.0 67.7 63.0 C 67.9 62.6 66.3 63.0 66.3 62.7 C 66.6 62.7 66.6 62.6 66.3 62.5 C 66.2 62.8 64.7 62.2 64.9 62.5 C 65.2 62.6 66.2 62.6 65.9 62.8 C 64.5 62.8 65.1 62.5 64.1 62.4 C 64.2 62.5 64.7 62.6 64.1 62.6 C 63.2 62.5 64.1 62.6 63.5 62.3 C 62.9 62.3 62.0 62.4 61.7 62.4 C 61.8 62.4 61.5 62.2 61.3 62.2 C 59.6 61.9 55.5 61.7 53.8 61.1 C 53.7 61.1 53.3 61.1 53.4 61.3 C 52.4 61.0 52.5 61.1 51.4 60.9 C 51.4 61.0 51.4 61.1 51.4 61.2 C 50.0 61.1 51.3 60.8 50.4 60.7 C 50.2 61.2 49.9 60.4 49.1 60.3 C 49.0 60.4 48.6 60.4 48.7 60.6 C 47.4 60.3 47.6 60.0 46.5 59.9 C 46.7 60.0 46.8 60.8 46.6 61.0 C 46.4 60.8 46.1 60.7 45.7 60.6 C 46.3 60.4 46.1 59.5 44.5 59.4 C 45.4 59.6 45.7 59.7 45.5 59.9 C 44.3 59.7 43.9 59.4 42.9 59.2 C 42.7 59.4 43.4 59.6 43.1 59.8 C 42.9 59.8 42.7 59.8 42.8 59.9 C 41.7 59.6 41.7 59.4 40.5 59.3 C 40.6 59.2 40.8 59.2 41.2 59.4 C 41.2 59.2 41.2 59.0 41.9 59.2 C 42.0 59.3 41.5 59.5 42.5 59.6 C 42.5 59.5 42.6 59.3 42.6 59.2 C 41.9 59.0 40.2 58.5 40.1 58.6 C 40.4 58.7 40.9 58.9 40.6 59.1 C 39.4 58.8 39.1 58.4 38.2 58.1 C 36.5 57.7 33.6 56.9 33.9 57.3 C 32.9 56.9 33.3 57.0 32.4 56.7 C 32.6 57.1 31.4 56.6 31.4 56.8 C 32.5 57.0 32.2 57.0 33.2 57.2 C 33.2 57.4 33.0 57.4 32.5 57.4 C 32.5 57.2 32.1 57.0 31.4 56.9 C 31.5 56.9 32.1 57.4 31.3 57.2 C 31.3 57.1 31.1 57.0 30.8 56.9 C 30.8 56.8 30.9 56.7 30.9 56.5 C 31.3 56.6 31.8 56.7 32.1 56.7 C 31.8 56.6 31.8 56.5 31.6 56.4 C 31.3 56.5 30.2 56.0 30.1 56.1 C 30.6 56.2 30.8 56.5 30.3 56.4 C 30.2 56.3 29.5 56.0 29.2 56.0 C 30.1 56.4 29.7 56.3 30.2 56.7 C 29.6 56.6 29.4 56.4 29.1 56.3 C 28.9 56.2 29.1 56.2 27.9 55.8 C 27.9 55.6 28.0 55.5 28.4 55.5 C 27.7 54.8 23.8 53.8 22.9 53.4 C 23.5 53.7 24.5 53.7 23.4 53.2 C 23.4 53.3 22.6 53.0 22.4 53.0 C 21.9 53.3 22.7 53.9 23.4 54.5 C 22.6 54.1 22.4 54.1 21.6 53.8 C 21.4 53.5 22.4 53.5 21.4 53.1 C 21.0 53.4 19.6 52.3 19.1 52.4 C 19.8 52.7 20.2 53.0 19.5 52.8 C 19.7 52.7 18.3 52.1 18.3 52.0 C 19.5 52.4 19.8 52.3 20.5 52.6 C 19.7 52.2 21.3 52.7 19.8 52.0 C 19.1 51.9 18.6 52.0 17.2 51.2 C 16.7 50.9 17.3 50.9 16.6 50.6 C 16.7 50.9 15.1 50.1 16.2 50.4 C 15.6 50.1 15.4 50.0 15.1 49.8 C 15.7 50.4 12.3 48.7 12.7 49.1 C 12.8 48.8 12.8 48.5 12.7 48.3 C 12.0 48.1 11.4 47.5 9.9 46.4 C 9.8 46.7 9.7 46.3 9.0 45.8 C 8.8 45.8 9.3 46.3 8.9 46.0 C 8.3 45.3 8.3 45.3 8.2 45.1 C 7.8 44.7 7.5 44.4 7.3 44.1 C 7.2 44.2 7.3 44.4 7.4 44.5 C 5.9 42.7 5.0 42.1 4.1 40.5 C 4.4 41.3 4.8 41.2 4.5 40.7 C 4.3 40.4 4.0 40.1 3.9 40.0 C 3.9 40.5 3.9 40.3 3.5 39.5 C 3.1 38.9 3.3 39.9 3.0 39.4 C 2.8 38.7 3.1 39.1 3.0 38.7 C 2.9 38.4 2.8 38.1 2.7 37.9 C 2.7 38.4 2.4 37.9 2.2 37.4 C 2.6 37.7 2.5 37.5 2.1 36.5 C 2.3 36.3 2.5 36.8 2.4 36.4 C 2.4 36.2 1.8 35.4 2.0 34.7 C 2.0 34.9 2.1 35.0 2.2 35.0 C 1.9 34.2 2.2 33.6 2.3 32.9 C 2.1 33.6 1.9 33.3 1.7 33.5 C 1.9 32.8 1.7 32.0 2.1 31.5 C 1.9 32.5 2.5 31.6 2.6 31.0 C 2.4 30.8 2.3 31.8 2.1 31.5 C 1.9 31.1 2.4 30.4 2.2 30.1 C 2.1 30.1 2.2 30.5 2.0 30.6 C 2.1 30.1 1.9 30.7 1.9 30.3 C 2.3 30.1 2.0 29.7 2.1 29.4 C 2.3 29.0 2.9 28.4 2.8 28.0 C 2.7 28.0 2.6 28.5 2.5 28.5 C 2.9 26.9 3.5 26.6 4.1 25.2 C 4.3 25.1 4.5 24.9 4.8 24.6 C 4.7 24.5 4.8 24.2 5.0 23.9 C 5.5 23.4 6.1 23.0 6.7 22.4 C 6.8 22.6 6.5 23.0 7.4 22.1 C 7.4 22.0 7.0 22.4 7.3 22.0 C 7.3 22.1 7.6 21.9 7.6 21.8 C 7.5 21.7 7.5 21.7 7.5 21.7 C 7.2 21.9 7.0 22.1 6.7 22.4 C 6.7 22.3 6.5 22.3 6.3 22.4 C 7.2 21.3 7.5 21.7 8.1 20.9 C 8.5 21.0 8.8 20.9 8.3 21.6 C 8.9 21.0 9.3 20.5 9.4 20.2 C 8.5 20.9 8.6 20.4 8.3 20.6 C 8.8 20.1 8.8 20.0 9.0 19.8 C 9.8 19.4 8.6 20.6 9.9 19.7 C 8.8 20.2 10.5 18.9 11.3 18.4 C 11.1 18.4 10.8 18.6 11.1 18.2 C 12.9 16.8 13.3 17.6 14.3 16.5 C 14.2 16.7 14.8 16.4 15.1 16.3 C 14.1 17.0 13.9 17.2 13.5 17.5 C 13.6 17.5 13.9 17.4 14.2 17.2 C 14.1 17.1 14.4 16.9 14.9 16.7 C 15.1 16.4 14.8 16.2 15.6 15.5 C 15.7 15.6 15.7 15.7 16.1 15.5 C 16.4 15.1 15.9 16.0 17.8 15.0 C 17.4 15.1 17.2 15.1 17.2 14.8 C 18.1 14.3 18.0 14.5 19.2 13.8 C 19.9 13.9 18.5 14.6 18.3 15.0 C 19.1 14.5 19.7 14.0 20.7 13.7 C 20.0 13.9 20.6 13.4 21.4 13.0 C 22.2 12.7 21.5 13.4 22.5 13.0 C 23.2 12.6 23.5 12.3 22.8 12.4 C 24.5 11.8 24.0 11.7 25.5 11.2 C 25.6 11.3 25.2 11.5 24.6 11.6 C 24.7 11.7 24.6 11.9 25.1 11.7 C 26.0 11.1 28.2 10.4 28.8 10.0 C 30.2 10.0 31.5 9.0 32.9 8.8 C 32.4 9.2 34.7 8.3 35.4 8.4 C 35.8 8.3 37.0 7.4 36.5 7.7 C 36.7 8.1 37.5 7.7 38.2 7.7 C 38.1 7.6 38.1 7.5 38.1 7.4 C 39.5 7.0 39.9 7.2 40.4 7.3 C 42.0 6.7 44.0 6.7 46.1 6.0 C 46.7 6.2 47.2 6.0 48.5 6.0 C 48.4 5.7 49.5 5.6 50.5 5.4 C 50.2 5.2 51.1 5.1 51.1 5.0 C 50.2 5.1 50.5 4.8 50.0 4.8 C 51.2 4.8 51.7 4.2 52.7 4.3 C 51.6 4.6 51.3 5.0 51.2 5.4 C 52.5 5.1 53.3 5.1 53.6 5.2 C 53.6 5.1 53.4 5.0 53.1 4.9 C 53.6 4.8 54.1 4.8 54.5 4.7 C 54.6 4.8 54.0 5.0 54.5 5.0 C 54.8 4.8 55.2 4.7 55.5 4.6 C 56.0 4.8 55.0 4.8 54.9 5.0 C 56.7 4.8 55.9 4.4 56.9 4.2 C 57.2 4.4 57.1 4.6 58.0 4.6 C 58.3 4.4 58.4 4.1 59.3 4.0 C 59.9 4.0 59.3 4.4 60.0 4.3 C 60.1 4.2 60.4 4.2 60.7 4.2 C 60.7 4.1 61.0 4.0 61.4 3.9 C 61.5 4.0 62.2 3.9 62.4 3.8 C 62.5 3.9 63.6 4.1 63.9 3.9 C 63.9 3.8 63.2 3.9 63.2 3.8 C 64.0 3.8 64.5 3.7 64.9 3.6 C 65.2 4.1 66.5 3.5 68.1 3.7 C 69.1 3.4 67.9 3.3 69.1 3.1 C 69.9 3.2 69.0 3.3 69.2 3.5 C 69.4 3.5 70.6 3.6 70.6 3.4 C 70.6 3.3 70.0 3.4 69.9 3.3 C 70.8 3.0 70.8 3.3 71.3 3.4 C 71.3 3.2 71.9 3.1 72.0 2.9 C 74.6 2.6 74.6 3.1 75.6 3.2 C 75.6 3.1 76.3 3.1 76.3 3.0 C 75.6 3.2 74.6 3.0 75.6 2.9 C 75.5 3.0 77.0 2.8 77.1 2.8 C 76.9 2.6 75.9 2.7 76.3 2.5 C 77.7 2.3 77.1 2.8 78.1 2.6 C 78.3 2.7 77.7 2.7 77.4 2.8 C 77.8 2.8 78.4 2.8 78.5 2.9 C 78.0 3.0 78.0 3.2 77.8 3.3 C 78.5 3.1 79.8 3.2 78.9 2.9 C 80.3 3.0 81.7 2.8 80.7 2.6 C 81.8 2.5 81.2 2.8 82.1 2.6 C 82.0 2.9 81.7 3.0 82.5 3.2 C 82.6 3.1 83.3 3.0 83.2 2.8 C 84.9 2.8 85.4 3.1 86.1 3.3 C 85.5 2.9 86.3 3.2 87.2 3.0 C 87.7 3.1 87.2 3.4 88.6 3.3 C 87.1 2.9 90.4 3.2 89.7 2.8 C 91.5 3.0 91.5 3.0 93.4 3.1 C 93.2 3.3 92.7 3.4 91.9 3.4 C 92.5 3.2 90.3 3.2 90.5 3.3 C 90.5 3.4 90.5 3.4 90.5 3.5 C 91.8 3.5 92.7 3.5 93.3 3.7 C 93.6 3.5 94.3 3.4 94.1 3.2 C 95.4 3.5 96.7 3.1 97.3 3.4 C 96.9 3.4 96.4 3.4 96.6 3.6 C 97.1 3.5 97.7 3.5 97.7 3.3 C 96.6 3.2 96.4 3.1 95.9 3.3 C 96.3 3.1 94.8 2.9 95.9 2.9 C 95.8 3.3 98.0 2.8 97.3 3.0 C 96.2 3.1 98.6 3.3 98.7 3.5 C 98.7 3.5 98.7 3.5 98.7 3.5 Z M 125.4 60.4 C 126.4 60.1 125.1 60.1 124.4 60.3 C 124.6 60.3 124.8 60.4 124.8 60.6 C 125.1 60.5 125.3 60.4 125.4 60.4 C 125.4 60.4 125.4 60.4 125.4 60.4 Z M 114.2 58.5 C 113.9 58.9 115.5 58.5 116.2 58.4 C 116.0 58.4 115.8 58.4 116.2 58.3 C 115.5 58.2 115.3 58.6 114.2 58.5 C 114.2 58.5 114.2 58.5 114.2 58.5 Z M 75.0 60.7 C 75.2 60.6 75.9 60.6 76.0 60.7 C 76.4 60.7 76.3 60.6 76.4 60.5 C 77.2 60.5 76.2 60.9 77.5 60.8 C 78.0 60.3 75.3 60.1 75.0 60.7 C 75.0 60.7 75.0 60.7 75.0 60.7 Z M 85.0 6.8 C 85.6 6.9 84.3 7.1 84.7 7.4 C 86.7 7.2 85.1 6.9 87.9 7.0 C 87.7 6.9 87.5 6.8 87.5 6.7 C 86.2 6.8 86.1 7.0 86.5 6.6 C 85.9 6.6 85.7 7.1 85.0 6.8 C 85.0 6.8 85.0 6.8 85.0 6.8 Z M 110.3 9.0 C 110.1 8.9 110.0 8.8 110.0 8.7 C 109.2 8.7 109.3 8.8 108.3 8.6 C 108.4 9.0 109.4 9.1 110.3 9.0 C 110.3 9.0 110.3 9.0 110.3 9.0 Z M 165.5 30.6 C 165.5 30.7 165.6 30.8 165.6 30.9 C 165.7 30.8 166.2 31.0 165.9 30.4 C 165.8 30.4 165.8 30.5 165.8 30.6 C 165.7 30.6 165.6 30.3 165.5 30.4 C 165.6 30.5 165.5 30.6 165.5 30.6 C 165.5 30.6 165.5 30.6 165.5 30.6 Z M 158.3 46.0 C 159.4 45.0 156.1 46.4 158.3 46.0 C 158.3 46.0 158.3 46.0 158.3 46.0 C 158.3 46.0 158.3 46.0 158.3 46.0 Z M 162.3 46.7 C 162.4 46.7 162.6 46.5 162.6 46.5 C 163.6 45.8 162.8 46.6 163.4 46.3 C 164.0 45.6 162.7 46.3 163.6 45.4 C 163.3 45.4 162.9 46.3 162.3 46.7 C 162.3 46.7 162.3 46.7 162.3 46.7 Z M 13.0 17.5 C 12.1 18.1 12.0 18.5 12.0 18.8 C 12.6 18.4 13.1 18.1 13.4 18.1 C 14.4 17.3 12.5 18.4 12.3 18.5 C 12.3 18.3 13.1 17.7 13.0 17.5 C 13.0 17.5 13.0 17.5 13.0 17.5 Z M 10.2 19.5 C 9.9 19.9 9.5 20.3 9.6 20.5 C 10.1 20.1 10.2 20.1 10.3 20.2 C 10.6 19.7 10.0 20.0 10.2 19.5 C 10.2 19.5 10.2 19.5 10.2 19.5 Z M 15.9 16.1 C 15.5 16.4 15.7 16.5 15.7 16.6 C 16.4 16.2 16.6 16.3 17.3 15.9 C 17.2 15.8 17.2 15.7 17.2 15.7 C 16.5 16.0 16.6 16.1 16.1 16.3 C 16.0 16.3 16.0 16.2 15.9 16.1 C 15.9 16.1 15.9 16.1 15.9 16.1 Z M 8.0 21.8 C 6.7 23.0 6.5 23.8 6.2 24.8 C 6.8 23.9 7.2 22.8 8.0 22.3 C 8.7 21.4 7.6 22.4 7.6 22.3 C 7.5 22.2 7.8 22.0 8.0 21.8 C 8.0 21.8 8.0 21.8 8.0 21.8 Z M 2.4 33.8 C 2.2 34.1 2.6 34.6 2.7 35.5 C 2.8 35.3 2.8 35.1 2.9 35.1 C 2.8 34.0 2.4 34.7 2.4 33.8 C 2.4 33.8 2.4 33.8 2.4 33.8 Z M 4.8 40.5 C 5.3 41.1 4.7 40.0 5.1 40.3 C 4.6 39.6 4.2 38.8 4.0 38.9 C 4.6 39.6 4.7 39.8 4.8 40.5 C 4.8 40.5 4.8 40.5 4.8 40.5 Z M 8.6 44.8 C 9.4 45.3 8.5 44.2 8.9 44.3 C 8.6 44.1 8.6 44.3 8.5 44.3 C 8.4 44.1 8.2 43.9 7.9 43.6 C 8.0 43.9 8.8 44.6 8.6 44.8 C 8.6 44.8 8.6 44.8 8.6 44.8 Z M 39.3 8.2 C 38.7 8.4 38.9 8.6 37.8 8.8 C 39.5 8.4 38.7 9.3 41.0 8.7 C 40.6 8.7 40.8 8.5 41.0 8.6 C 41.8 8.2 40.1 8.7 40.9 8.2 C 40.3 8.4 40.7 8.6 40.1 8.7 C 39.3 8.7 38.9 8.6 39.3 8.2 C 39.3 8.2 39.3 8.2 39.3 8.2 Z M 41.1 8.9 C 41.7 8.9 41.6 8.4 42.0 8.6 C 42.3 8.5 42.2 8.4 42.2 8.3 C 42.0 8.4 42.0 8.4 41.9 8.3 C 41.4 8.5 40.9 8.7 41.1 8.9 C 41.1 8.9 41.1 8.9 41.1 8.9 Z M 35.3 10.4 C 36.2 10.0 36.6 10.1 37.0 9.7 C 37.5 10.0 37.7 9.4 38.3 9.6 C 39.3 9.3 38.5 9.3 38.2 9.3 C 39.2 8.9 38.5 9.5 39.5 9.1 C 39.6 8.8 38.4 9.2 38.4 8.9 C 37.7 9.1 37.7 9.2 37.3 9.4 C 36.9 9.5 37.0 9.3 36.9 9.3 C 36.1 9.6 36.1 9.4 35.4 9.6 C 35.3 9.8 35.6 9.8 36.4 9.6 C 35.6 9.9 35.3 10.2 34.3 10.3 C 34.9 9.9 31.9 10.6 32.3 11.0 C 33.1 10.8 32.8 10.6 33.1 10.5 C 34.2 10.4 34.8 10.2 35.3 10.4 C 35.3 10.4 35.3 10.4 35.3 10.4 Z M 16.7 16.6 C 16.4 16.8 16.1 16.9 15.6 17.1 C 15.4 17.0 16.1 16.7 15.4 16.9 C 14.6 17.3 14.5 17.5 14.1 17.8 C 14.4 17.7 16.1 17.0 15.3 17.6 C 15.6 17.5 16.1 17.3 16.8 16.9 C 15.9 17.0 17.9 16.3 18.8 15.9 C 18.5 15.6 20.2 15.3 20.7 14.9 C 20.1 14.9 18.6 15.9 17.9 16.2 C 18.2 16.0 15.8 16.7 16.7 16.6 C 16.7 16.6 16.7 16.6 16.7 16.6 Z M 43.5 8.2 C 43.7 8.1 44.4 7.9 43.9 8.0 C 44.1 7.8 44.7 7.9 44.4 7.6 C 44.8 7.5 45.1 7.4 45.4 7.4 C 45.3 7.5 44.4 7.6 44.8 7.8 C 45.4 7.5 45.2 7.7 46.1 7.6 C 45.6 7.9 46.2 7.8 45.9 8.2 C 46.1 8.0 46.9 7.8 46.8 7.7 C 48.0 7.5 46.5 8.0 48.1 7.7 C 48.1 7.9 47.0 8.1 46.5 8.1 C 46.4 8.4 48.6 7.8 49.8 7.7 C 48.7 7.7 49.5 7.3 50.0 7.0 C 50.4 7.0 50.1 7.2 50.8 7.2 C 51.3 7.1 51.6 6.9 51.8 7.0 C 52.2 6.9 52.0 6.8 52.0 6.7 C 52.8 6.6 52.3 7.0 53.4 6.8 C 52.5 6.6 53.5 6.3 55.0 6.2 C 54.9 6.1 54.4 6.2 54.3 6.1 C 54.6 5.9 55.5 6.1 55.7 6.1 C 56.3 6.0 55.9 5.9 55.4 6.0 C 55.7 5.9 56.0 5.8 56.4 5.6 C 54.7 5.8 52.0 6.3 48.9 6.5 C 49.5 6.6 48.9 6.7 48.0 6.8 C 47.8 6.7 48.2 6.6 48.6 6.5 C 47.5 6.4 47.7 7.0 46.0 7.2 C 45.1 7.3 47.0 6.8 46.0 6.8 C 45.4 7.0 45.0 7.3 44.7 7.1 C 43.7 7.4 43.4 7.8 41.9 8.1 C 42.8 8.0 43.3 8.5 44.2 8.2 C 44.2 8.1 43.8 8.2 43.5 8.2 C 43.5 8.2 43.5 8.2 43.5 8.2 Z M 10.4 20.3 C 9.9 20.7 9.7 21.0 9.6 21.0 C 8.8 21.7 9.8 21.1 10.0 21.0 C 10.3 20.6 10.4 20.4 10.4 20.3 C 10.4 20.3 10.4 20.3 10.4 20.3 Z M 79.5 62.9 C 80.9 63.1 80.6 62.7 81.7 62.8 C 80.8 62.7 80.6 62.4 79.2 62.5 C 79.1 62.7 79.1 62.8 79.5 62.9 C 79.5 62.9 79.5 62.9 79.5 62.9 Z M 13.5 18.3 C 14.1 17.6 12.7 19.2 12.6 19.0 C 11.8 19.7 13.5 18.6 12.8 19.3 C 13.5 18.7 14.1 18.6 15.0 17.8 C 14.9 17.7 14.1 18.2 13.3 18.7 C 13.1 18.7 13.5 18.4 13.5 18.3 C 13.5 18.3 13.5 18.3 13.5 18.3 Z M 65.6 61.5 C 64.7 61.6 66.5 62.0 67.0 62.2 C 67.1 61.8 66.8 61.9 65.6 61.5 C 65.6 61.5 65.6 61.5 65.6 61.5 Z M 88.9 62.7 C 89.4 62.3 87.3 62.6 87.8 62.3 C 87.2 62.3 87.1 62.4 87.1 62.5 C 86.8 62.4 85.7 62.5 86.0 62.3 C 85.9 62.1 87.6 62.3 87.1 62.0 C 87.7 62.0 87.7 62.1 88.2 62.1 C 87.1 62.1 87.6 62.3 88.9 62.4 C 88.9 62.2 88.3 62.3 88.9 62.1 C 89.0 62.2 89.7 62.4 89.6 62.7 C 90.7 62.7 90.1 62.3 91.4 62.3 C 91.3 62.1 90.5 62.2 90.0 62.1 C 90.1 61.8 91.4 62.3 91.0 61.9 C 91.3 62.1 92.1 62.2 92.1 62.4 C 91.1 62.6 90.5 62.7 89.6 62.9 C 90.4 63.0 91.5 62.4 92.9 62.7 C 92.7 62.5 93.5 62.5 93.2 62.3 C 94.3 62.3 93.8 62.6 93.6 62.6 C 93.9 62.8 95.9 62.6 95.8 62.4 C 95.9 62.6 98.4 62.5 98.2 62.2 C 99.0 62.3 100.1 61.9 100.4 62.2 C 100.8 62.1 101.7 62.0 102.6 62.0 C 102.8 61.7 101.2 61.9 101.1 61.8 C 100.8 61.6 102.8 61.7 102.5 61.5 C 102.5 61.5 102.5 61.4 102.5 61.4 C 101.8 61.5 101.1 61.6 100.4 61.7 C 99.9 61.7 100.5 61.6 100.4 61.5 C 99.9 61.7 97.6 62.1 97.5 61.6 C 96.0 61.8 94.9 61.8 94.3 62.0 C 93.4 62.0 94.8 61.8 94.3 61.7 C 91.6 62.1 88.3 61.7 86.0 62.1 C 85.5 62.1 85.7 61.9 85.6 61.8 C 82.6 61.9 85.2 62.3 82.8 62.1 C 82.8 61.9 83.9 62.0 83.9 61.8 C 83.0 61.7 82.8 61.9 81.7 61.8 C 81.7 61.9 81.7 62.0 81.7 62.1 C 80.8 62.1 81.1 61.8 80.6 61.7 C 79.5 61.7 79.8 61.9 79.2 61.6 C 78.1 61.7 77.1 61.7 76.0 61.5 C 75.2 61.7 76.6 62.1 77.7 62.2 C 77.7 62.2 77.4 62.2 77.4 62.3 C 76.0 62.0 75.8 61.6 73.8 61.4 C 75.3 61.8 73.0 61.5 72.8 61.3 C 71.9 61.3 72.5 61.6 73.1 61.6 C 73.0 61.7 72.5 61.6 72.4 61.5 C 72.3 61.9 74.2 62.2 76.3 62.1 C 75.3 62.5 77.8 62.1 76.6 62.6 C 78.3 62.6 76.9 62.2 78.8 62.4 C 78.6 62.2 78.3 62.1 78.1 62.0 C 79.5 62.0 79.1 62.4 80.6 62.3 C 80.9 62.1 79.9 62.2 79.9 62.0 C 81.5 62.3 82.1 62.4 83.1 62.6 C 83.4 62.5 83.1 62.2 84.9 62.4 C 84.9 62.5 84.9 62.5 84.9 62.6 C 84.1 62.5 83.8 63.0 86.0 63.0 C 86.2 62.8 85.5 62.8 84.9 62.8 C 85.2 62.7 85.9 62.6 86.7 62.6 C 87.2 62.6 87.6 62.7 87.1 62.7 C 87.4 63.0 87.8 62.5 88.9 62.7 C 88.9 62.7 88.9 62.7 88.9 62.7 Z M 2.9 32.4 C 3.0 32.6 3.0 32.9 3.0 33.2 C 3.2 33.4 3.2 32.7 3.3 32.7 C 3.3 32.2 3.0 32.6 2.9 32.4 C 2.9 32.4 2.9 32.4 2.9 32.4 Z M 5.8 25.3 C 5.6 25.3 5.6 25.8 5.2 26.3 C 5.2 26.6 5.6 25.9 5.8 26.0 C 6.2 25.4 5.3 25.9 5.8 25.3 C 5.8 25.3 5.8 25.3 5.8 25.3 Z M 4.1 28.3 C 3.8 28.5 4.1 28.6 4.3 28.0 C 4.4 28.2 4.5 28.3 4.4 28.7 C 4.8 28.4 4.5 28.0 4.9 27.4 C 4.6 27.6 4.4 27.9 4.1 28.3 C 4.1 28.3 4.1 28.3 4.1 28.3 Z M 3.7 29.3 C 3.7 29.7 3.4 29.9 3.4 30.6 C 3.6 30.5 4.0 29.1 4.0 28.8 C 3.9 28.5 3.3 30.0 3.7 29.3 C 3.7 29.3 3.7 29.3 3.7 29.3 Z M 52.0 59.5 C 52.3 59.5 52.3 59.4 52.3 59.4 C 53.3 59.9 54.8 60.0 53.6 60.2 C 54.7 60.2 55.7 60.6 56.6 60.8 C 57.4 60.9 57.0 60.6 57.7 60.7 C 58.7 60.9 57.1 60.7 57.3 60.9 C 57.5 61.1 57.8 60.7 59.0 61.0 C 58.7 60.6 60.0 61.2 59.7 60.7 C 60.4 60.9 60.6 60.8 61.5 60.9 C 61.4 60.7 60.6 60.6 60.5 60.5 C 60.1 60.2 60.0 60.6 60.8 60.7 C 60.3 60.9 59.1 60.4 58.7 60.5 C 58.3 60.2 59.8 60.6 59.4 60.3 C 59.1 60.3 58.8 60.3 58.8 60.4 C 58.3 60.2 57.9 60.1 57.7 60.0 C 58.0 60.0 58.1 60.1 58.1 60.1 C 58.7 60.2 57.5 59.6 58.8 59.8 C 58.6 59.7 58.0 59.6 58.1 59.5 C 57.8 59.3 58.1 60.1 56.7 59.7 C 55.8 59.8 58.8 60.2 58.0 60.6 C 56.1 60.3 57.2 60.1 55.7 59.8 C 55.7 59.9 55.7 60.0 55.3 60.0 C 55.4 60.1 55.9 60.1 56.3 60.2 C 56.3 60.3 55.7 60.2 55.3 60.1 C 55.4 60.2 55.7 60.3 55.6 60.3 C 54.4 60.1 54.6 59.6 55.7 59.6 C 55.7 59.4 54.2 59.2 53.7 59.3 C 54.1 59.5 53.7 59.4 54.0 59.7 C 54.3 59.8 54.3 59.7 54.4 59.6 C 54.9 59.7 54.4 59.8 54.3 59.8 C 53.6 59.7 53.7 59.5 53.0 59.6 C 53.2 59.5 53.3 59.5 53.4 59.4 C 53.0 59.3 52.7 59.3 52.4 59.2 C 52.4 59.4 51.9 59.3 52.0 59.5 C 52.0 59.5 52.0 59.5 52.0 59.5 Z M 69.9 62.1 C 71.0 62.3 70.4 62.0 69.9 62.0 C 70.1 61.9 70.5 61.9 71.0 61.9 C 70.6 61.8 70.3 61.8 69.2 61.7 C 70.2 61.4 69.2 60.9 67.5 60.8 C 66.9 61.3 68.4 61.4 67.8 61.7 C 69.1 61.6 69.7 61.8 69.9 62.1 C 69.9 62.1 69.9 62.1 69.9 62.1 Z M 10.1 21.0 C 9.5 21.5 9.0 21.9 8.6 22.4 C 8.8 22.5 10.4 21.2 10.1 21.0 C 10.1 21.0 10.1 21.0 10.1 21.0 Z M 57.7 5.8 C 58.0 5.7 58.1 5.8 58.1 5.8 C 59.1 5.6 57.6 5.7 58.1 5.4 C 57.7 5.5 57.4 5.5 57.0 5.6 C 57.0 5.7 58.5 5.6 57.4 5.8 C 57.5 5.9 57.8 5.8 57.7 5.8 C 57.7 5.8 57.7 5.8 57.7 5.8 Z M 3.3 31.9 C 3.3 32.4 3.6 32.1 3.5 33.2 C 3.7 32.8 3.7 32.6 3.7 32.0 C 3.6 31.9 3.4 31.9 3.3 31.9 C 3.3 31.9 3.3 31.9 3.3 31.9 Z M 47.0 59.0 C 47.7 59.4 48.1 58.9 49.6 59.3 C 48.9 58.9 47.9 59.1 47.0 59.0 C 47.0 59.0 47.0 59.0 47.0 59.0 Z M 105.4 61.4 C 104.8 61.4 105.5 61.3 104.6 61.2 C 104.1 61.3 104.0 61.5 103.2 61.6 C 104.2 61.7 106.0 61.3 106.8 61.7 C 107.6 61.6 107.5 61.3 107.8 61.1 C 107.4 61.2 107.2 61.2 107.1 61.1 C 106.6 61.5 106.0 61.0 105.4 61.4 C 105.4 61.4 105.4 61.4 105.4 61.4 Z M 65.3 61.4 C 64.7 61.2 65.8 61.2 66.0 61.0 C 66.5 61.1 66.3 61.3 66.4 61.4 C 67.0 61.4 67.2 61.3 67.1 61.1 C 65.9 61.0 64.5 60.8 65.4 60.6 C 64.3 60.4 64.9 60.8 64.3 60.8 C 63.7 60.6 64.3 60.6 64.3 60.3 C 64.1 60.3 63.2 60.5 63.3 60.2 C 61.6 60.4 62.3 60.8 63.5 61.4 C 64.7 61.2 63.4 61.0 65.3 61.4 C 65.3 61.4 65.3 61.4 65.3 61.4 Z M 22.9 51.8 C 23.0 52.0 23.8 52.3 23.8 52.3 C 24.8 52.5 25.8 52.6 26.8 52.7 C 26.7 52.4 25.3 52.2 25.8 52.5 C 25.4 52.2 24.6 51.8 24.1 51.5 C 23.2 51.1 22.8 51.4 22.8 51.0 C 21.9 50.8 22.4 51.0 21.1 50.3 C 23.0 51.5 20.3 50.1 20.1 50.3 C 21.2 50.9 22.3 51.3 22.3 51.0 C 23.1 51.5 24.2 52.0 24.3 52.3 C 24.2 52.4 23.4 52.0 22.9 51.8 C 22.9 51.8 22.9 51.8 22.9 51.8 Z M 28.8 53.2 C 28.4 53.1 28.0 53.1 27.3 52.8 C 27.7 53.0 27.8 53.2 27.7 53.3 C 28.9 53.7 29.1 53.6 29.2 53.9 C 29.9 54.1 29.2 53.5 30.1 53.9 C 30.1 53.8 29.6 53.7 29.6 53.6 C 29.5 53.7 29.3 53.7 28.8 53.2 C 28.8 53.2 28.8 53.2 28.8 53.2 Z M 37.7 56.3 C 38.5 56.5 37.3 56.1 37.7 56.0 C 37.5 56.0 36.0 55.6 36.3 55.4 C 35.9 55.0 34.3 55.2 34.5 54.9 C 34.2 54.8 34.3 54.9 34.2 55.0 C 35.2 55.2 35.2 55.4 34.4 55.2 C 34.5 55.4 35.2 55.5 35.6 55.6 C 35.7 55.5 35.3 55.4 35.4 55.3 C 36.2 55.6 36.9 56.0 37.7 56.3 C 37.7 56.3 37.7 56.3 37.7 56.3 Z M 96.5 4.7 C 95.7 4.6 95.1 4.6 94.7 4.7 C 95.0 4.8 95.4 4.7 95.8 4.7 C 95.9 4.9 95.5 4.8 95.1 4.8 C 95.5 5.1 97.0 4.9 96.5 4.7 C 96.5 4.7 96.5 4.7 96.5 4.7 Z M 89.3 4.5 C 88.5 4.4 88.0 4.5 87.9 4.6 C 88.2 4.8 88.1 4.5 88.6 4.6 C 88.9 4.6 89.1 4.7 89.3 4.8 C 89.7 4.8 89.6 4.7 89.7 4.6 C 90.0 4.6 90.0 4.7 90.1 4.7 C 91.0 4.5 88.9 4.7 89.3 4.5 C 89.3 4.5 89.3 4.5 89.3 4.5 Z M 32.7 54.8 C 32.5 54.6 32.3 54.4 31.6 54.2 C 31.7 54.4 31.1 54.3 30.7 54.1 C 31.3 54.5 31.7 54.5 32.7 54.8 C 32.7 54.8 32.7 54.8 32.7 54.8 Z M 45.9 8.3 C 44.9 8.3 45.1 8.7 43.7 8.8 C 43.7 8.9 43.7 8.9 43.7 9.0 C 44.5 8.6 44.9 8.7 45.9 8.3 C 45.9 8.3 45.9 8.3 45.9 8.3 Z M 168.5 38.2 C 168.3 38.1 168.0 38.8 167.9 38.8 C 168.1 39.1 167.4 39.1 166.5 40.5 C 166.4 40.4 166.5 40.3 166.6 40.1 C 165.8 41.1 167.0 40.0 167.3 40.0 C 167.8 39.1 168.1 39.1 168.5 38.2 C 168.5 38.2 168.5 38.2 168.5 38.2 Z M 94.6 61.3 C 94.6 61.3 94.8 61.3 95.0 61.3 C 95.2 61.3 95.5 61.3 95.7 61.3 C 95.6 61.0 94.4 60.9 95.3 60.5 C 95.0 60.5 95.0 60.6 95.0 60.6 C 93.3 61.4 91.9 60.2 89.6 60.7 C 89.2 60.7 89.3 60.8 89.3 60.9 C 89.5 60.9 89.6 60.9 89.6 61.0 C 89.9 60.6 91.9 61.0 91.0 61.1 C 91.1 61.2 91.4 61.1 91.4 61.1 C 91.6 61.1 91.9 61.1 92.1 61.1 C 92.0 61.0 91.5 61.0 91.4 60.9 C 92.5 60.9 93.9 61.0 93.2 61.3 C 93.9 61.3 94.1 61.1 94.6 61.0 C 95.1 61.0 95.1 61.2 94.6 61.3 C 94.6 61.3 94.6 61.3 94.6 61.3 Z M 103.9 60.7 C 105.0 60.7 104.5 60.4 105.6 60.4 C 104.9 60.3 104.1 60.6 103.2 60.5 C 103.3 60.6 103.8 60.6 103.9 60.7 C 103.9 60.7 103.9 60.7 103.9 60.7 Z M 83.2 60.9 C 83.4 60.7 82.4 60.6 81.4 60.6 C 81.1 60.9 82.1 60.9 83.2 60.9 C 83.2 60.9 83.2 60.9 83.2 60.9 Z M 87.8 61.0 C 88.9 60.9 86.5 60.9 87.1 60.7 C 86.6 60.7 86.1 60.7 86.0 60.6 C 85.7 60.6 85.7 60.8 85.0 60.7 C 85.0 60.9 86.1 60.8 86.0 61.0 C 86.8 60.8 87.0 60.8 87.8 61.0 C 87.8 61.0 87.8 61.0 87.8 61.0 Z M 88.5 61.0 C 89.2 60.9 88.3 60.5 87.5 60.5 C 87.8 60.7 88.0 60.9 88.5 61.0 C 88.5 61.0 88.5 61.0 88.5 61.0 Z M 9.7 42.6 C 10.0 42.8 10.0 42.5 10.3 42.8 C 10.4 42.7 9.1 41.5 10.2 42.5 C 10.0 41.9 9.5 42.0 9.1 41.5 C 9.2 41.7 9.3 41.9 9.0 41.6 C 8.7 41.6 10.0 42.6 9.7 42.6 C 9.7 42.6 9.7 42.6 9.7 42.6 Z M 11.1 43.8 C 11.4 44.0 11.3 43.9 11.2 43.7 C 11.3 43.7 11.7 44.1 12.0 44.3 C 12.0 44.4 11.7 43.6 11.8 43.4 C 10.5 42.6 11.2 43.6 11.1 43.8 C 11.1 43.8 11.1 43.8 11.1 43.8 Z M 12.5 44.7 C 13.3 45.5 14.8 46.4 15.6 46.6 C 15.0 45.9 13.1 44.7 12.5 44.7 C 12.5 44.7 12.5 44.7 12.5 44.7 Z M 6.3 37.8 C 6.7 39.2 8.8 41.4 7.4 39.1 C 7.4 39.2 6.3 37.8 6.1 37.0 C 6.0 37.1 5.5 36.3 5.7 36.2 C 5.3 35.7 6.3 38.1 6.3 37.8 C 6.3 37.8 6.3 37.8 6.3 37.8 Z M 17.2 47.0 C 16.5 46.7 17.0 47.5 16.3 46.9 C 15.8 46.7 16.3 47.1 16.1 47.1 C 17.2 47.7 19.7 48.7 19.8 49.0 C 20.4 49.2 20.6 49.2 21.8 49.7 C 21.9 49.6 17.6 47.9 17.1 47.1 C 17.2 47.0 18.5 47.7 17.2 47.0 C 17.2 47.0 17.2 47.0 17.2 47.0 Z M 46.2 9.7 C 46.2 9.5 44.9 9.9 45.1 9.6 C 44.5 10.0 43.8 10.0 43.0 10.4 C 42.8 10.4 42.8 10.0 41.7 10.2 C 41.7 10.4 42.2 10.2 41.8 10.5 C 40.8 10.8 41.0 10.4 39.9 10.8 C 40.1 11.1 37.5 11.4 37.9 11.8 C 38.4 11.6 38.4 11.4 39.4 11.2 C 39.7 11.2 39.6 11.3 40.0 11.2 C 39.7 11.5 39.2 11.3 38.8 11.6 C 38.9 11.7 39.7 11.6 39.8 11.7 C 40.2 11.6 39.6 11.6 39.7 11.5 C 40.9 11.1 39.8 12.0 41.0 11.6 C 40.7 11.5 40.7 11.5 40.9 11.2 C 41.5 11.2 43.0 10.7 42.2 11.1 C 42.3 11.3 43.3 10.8 43.1 10.7 C 43.6 10.5 43.7 10.6 43.7 10.7 C 45.1 10.3 45.2 10.1 44.9 9.9 C 45.1 9.6 45.4 10.0 46.2 9.7 C 46.2 9.7 46.2 9.7 46.2 9.7 Z M 5.5 30.9 C 5.5 30.3 5.4 31.4 5.3 31.9 C 5.4 31.3 5.7 31.6 5.9 30.9 C 5.7 31.1 5.7 31.1 5.8 30.7 C 5.7 30.6 5.4 31.5 5.5 30.9 C 5.5 30.9 5.5 30.9 5.5 30.9 Z M 24.4 50.8 C 24.8 51.1 27.2 51.9 28.5 52.4 C 28.4 52.0 25.1 51.3 24.9 50.8 C 24.2 50.6 25.2 51.1 24.4 50.8 C 24.4 50.8 24.4 50.8 24.4 50.8 Z M 34.5 12.2 C 34.2 12.3 34.4 12.3 34.5 12.2 C 34.5 12.4 33.8 12.5 33.4 12.6 C 34.1 12.6 33.3 12.9 33.5 13.1 C 33.2 13.2 33.0 13.3 33.0 13.3 C 32.8 12.9 31.3 14.1 33.1 13.6 C 32.7 13.5 32.8 13.5 33.5 13.2 C 34.4 13.1 35.0 12.7 35.4 12.9 C 35.9 12.7 36.0 12.5 36.8 12.4 C 37.0 12.5 37.7 12.4 37.2 12.9 C 38.5 12.6 37.5 12.2 38.6 11.9 C 39.6 11.8 38.1 12.3 38.4 12.4 C 38.6 12.4 38.6 12.5 38.7 12.5 C 39.1 12.4 39.0 12.2 38.7 12.3 C 38.7 12.2 39.8 11.7 39.5 12.1 C 40.1 11.8 38.4 11.6 37.6 12.1 C 37.2 12.2 37.0 11.8 37.5 11.7 C 37.3 11.5 36.5 12.3 36.6 11.8 C 36.2 11.9 35.8 12.0 35.4 12.1 C 35.5 12.1 35.7 12.1 35.8 12.1 C 35.4 12.2 35.0 12.4 34.6 12.5 C 34.9 12.3 34.9 12.2 34.5 12.2 C 34.5 12.2 34.5 12.2 34.5 12.2 Z M 19.1 48.4 C 20.1 48.8 20.4 48.8 21.1 49.1 C 20.9 48.8 18.8 47.9 19.1 48.4 C 19.1 48.4 19.1 48.4 19.1 48.4 Z M 51.8 9.5 C 51.7 9.4 51.1 9.5 51.1 9.4 C 52.1 9.2 50.9 9.2 51.7 8.7 C 50.4 9.1 50.1 9.7 51.8 9.6 C 53.1 9.4 50.5 9.7 51.8 9.5 C 51.8 9.5 51.8 9.5 51.8 9.5 Z M 47.9 10.0 C 47.1 10.2 49.1 10.0 49.6 10.0 C 49.6 10.1 49.6 10.2 49.6 10.2 C 50.6 9.7 49.1 9.8 50.1 9.2 C 48.8 9.3 48.2 9.3 47.2 9.6 C 47.2 9.7 47.5 9.6 47.5 9.6 C 48.3 9.5 47.8 9.9 46.9 9.9 C 47.2 10.0 47.9 9.8 48.5 9.8 C 48.3 9.8 48.1 9.7 48.2 9.6 C 48.8 9.4 48.6 9.7 49.1 9.6 C 49.1 9.7 47.9 10.1 47.9 10.0 C 47.9 10.0 47.9 10.0 47.9 10.0 Z M 116.3 8.1 C 115.6 8.0 117.0 8.5 116.8 8.9 C 117.6 9.0 117.7 8.9 118.2 9.0 C 118.0 8.8 117.2 8.6 116.9 8.5 C 117.1 8.2 117.9 8.7 118.3 8.5 C 118.7 8.2 116.5 8.4 116.3 8.1 C 116.3 8.1 116.3 8.1 116.3 8.1 Z M 17.6 19.1 C 17.2 19.4 17.5 19.3 17.6 19.2 C 17.6 19.3 17.0 19.7 17.0 19.6 C 16.4 19.9 17.3 19.5 16.7 19.9 C 16.7 20.1 17.7 19.4 17.7 19.3 C 18.4 18.9 18.0 19.5 18.2 19.4 C 18.9 19.1 18.6 19.0 19.6 18.6 C 18.9 18.7 18.3 18.9 17.6 19.1 C 17.6 19.1 17.6 19.1 17.6 19.1 Z M 54.0 8.6 C 54.1 8.5 53.3 9.1 52.4 9.0 C 51.2 9.2 53.1 9.2 52.1 9.3 C 53.0 9.2 54.0 8.9 55.4 8.7 C 55.7 8.5 53.5 8.9 54.7 8.6 C 54.6 8.5 54.4 8.6 54.4 8.7 C 54.1 8.7 54.1 8.7 54.0 8.6 C 54.0 8.6 54.0 8.6 54.0 8.6 Z M 52.8 9.4 C 52.9 9.5 53.1 9.4 53.1 9.3 C 53.6 9.3 53.6 9.5 53.2 9.6 C 53.8 9.8 53.7 9.3 54.8 9.3 C 54.3 9.1 54.0 9.0 55.1 9.0 C 55.9 8.7 53.1 9.2 52.8 9.4 C 52.8 9.4 52.8 9.4 52.8 9.4 Z M 105.3 7.1 C 105.4 7.2 106.1 7.2 106.6 7.3 C 105.9 7.4 103.1 7.1 102.8 6.9 C 102.5 6.9 102.2 7.0 102.1 6.9 C 102.1 6.9 101.3 7.0 101.7 7.1 C 101.6 7.2 101.0 7.1 101.0 7.2 C 100.0 7.1 101.3 7.1 101.0 6.9 C 99.8 7.0 100.0 6.9 98.6 6.8 C 98.8 7.0 100.4 7.0 100.3 7.3 C 101.5 7.1 102.7 7.4 103.4 7.7 C 102.4 7.2 106.5 7.4 108.4 7.6 C 108.3 7.7 109.0 7.8 109.7 8.0 C 110.2 8.3 110.1 7.7 109.1 7.7 C 109.1 7.6 110.5 7.8 111.1 7.9 C 110.4 7.6 110.8 7.6 110.5 7.5 C 109.1 7.3 110.3 7.5 110.1 7.7 C 109.7 7.6 109.4 7.6 109.0 7.6 C 110.9 7.4 106.4 7.3 108.0 7.4 C 106.6 7.3 106.6 7.0 105.3 7.1 C 105.3 7.1 105.3 7.1 105.3 7.1 Z M 71.9 6.8 C 71.7 6.8 70.5 7.1 70.5 6.9 C 69.1 7.2 70.3 7.3 68.7 7.4 C 68.9 7.5 69.5 7.4 69.5 7.5 C 70.1 7.4 70.7 7.3 70.5 7.0 C 71.2 7.0 71.4 6.9 71.9 6.9 C 71.7 7.0 71.5 7.1 70.9 7.1 C 70.8 7.3 71.0 7.4 71.9 7.3 C 72.3 7.1 72.0 6.9 71.9 6.8 C 71.9 6.8 71.9 6.8 71.9 6.8 Z M 68.4 7.3 C 68.2 7.3 68.0 7.2 68.0 7.1 C 67.5 6.9 67.9 7.5 67.4 7.5 C 66.9 7.5 67.1 7.4 67.0 7.3 C 66.4 7.4 65.9 7.5 65.6 7.4 C 64.7 7.6 66.7 7.5 67.0 7.6 C 67.7 7.6 67.4 7.4 68.4 7.3 C 68.4 7.3 68.4 7.3 68.4 7.3 Z M 58.1 8.2 C 57.9 8.0 57.5 8.4 57.1 8.4 C 57.4 8.6 58.4 8.3 57.8 8.7 C 58.8 8.6 58.8 8.6 59.8 8.4 C 60.5 8.6 59.8 8.2 58.8 8.5 C 58.9 8.4 59.4 8.3 59.4 8.2 C 60.1 8.6 61.8 7.6 60.8 8.1 C 60.5 8.1 60.3 8.0 60.1 7.9 C 59.9 8.1 57.6 8.3 58.1 8.2 C 58.1 8.2 58.1 8.2 58.1 8.2 Z M 26.2 15.8 C 27.9 15.1 28.6 14.9 29.7 14.5 C 29.8 14.6 29.7 14.7 29.5 14.8 C 29.8 14.8 30.1 14.6 30.6 14.4 C 30.5 14.4 30.3 14.5 30.3 14.5 C 29.4 14.6 30.1 14.4 30.2 14.1 C 29.0 14.3 27.4 15.3 26.5 15.3 C 25.9 15.7 26.7 15.4 26.2 15.8 C 26.2 15.8 26.2 15.8 26.2 15.8 Z M 167.0 36.5 C 167.1 36.7 166.9 37.0 167.1 37.0 C 167.2 36.7 167.2 36.5 167.3 36.2 C 167.0 36.7 166.7 36.5 166.4 37.2 C 166.6 37.0 166.8 37.2 167.0 36.5 C 167.0 36.5 167.0 36.5 167.0 36.5 Z M 61.5 7.8 C 61.5 7.9 61.6 8.1 61.2 8.1 C 61.1 8.3 62.1 8.1 62.2 8.2 C 62.6 8.2 62.4 8.1 62.9 8.0 C 62.7 7.9 61.8 8.1 62.1 7.8 C 62.4 7.7 62.5 7.8 62.5 7.8 C 63.2 7.6 62.1 7.7 61.5 7.8 C 61.5 7.8 61.5 7.8 61.5 7.8 Z M 119.6 8.8 C 119.1 8.7 119.6 8.9 119.9 9.0 C 118.9 9.1 120.4 9.4 120.5 9.7 C 120.1 9.4 118.7 9.4 118.5 9.2 C 118.1 9.2 118.5 9.5 117.5 9.4 C 117.6 9.6 118.8 9.6 118.5 9.4 C 118.7 9.7 119.9 9.6 119.8 9.8 C 121.3 10.1 121.6 10.0 121.8 9.7 C 120.3 9.6 121.1 9.3 119.9 9.2 C 119.9 9.1 120.3 9.2 120.5 9.2 C 120.5 9.0 119.9 8.9 119.6 8.8 C 119.6 8.8 119.6 8.8 119.6 8.8 Z M 83.3 6.5 C 82.5 6.5 82.5 6.7 82.5 6.9 C 82.8 6.8 83.3 6.8 84.0 6.8 C 83.8 6.7 82.8 6.8 83.3 6.5 C 83.3 6.5 83.3 6.5 83.3 6.5 Z M 114.2 8.4 C 114.1 8.3 113.8 8.3 113.8 8.3 C 113.0 8.2 112.8 8.1 112.5 7.9 C 112.0 7.9 112.2 8.1 112.1 8.2 C 112.9 8.1 112.7 8.4 113.8 8.5 C 113.8 8.4 113.9 8.3 114.2 8.4 C 114.2 8.4 114.2 8.4 114.2 8.4 Z M 90.7 6.7 C 90.3 6.7 90.5 6.7 90.7 6.7 C 90.2 7.0 88.8 6.8 88.2 6.9 C 88.2 7.1 90.0 7.0 87.9 7.1 C 88.3 7.3 90.1 7.2 91.1 7.2 C 90.9 7.4 89.6 7.4 89.6 7.7 C 90.7 7.5 92.0 7.4 92.1 7.1 C 90.5 7.0 91.1 6.8 90.7 6.7 C 90.7 6.7 90.7 6.7 90.7 6.7 Z M 92.5 6.9 C 92.4 6.7 92.0 6.9 91.5 6.8 C 92.3 7.1 92.8 7.0 94.6 7.2 C 94.6 7.1 94.6 7.0 94.6 7.0 C 95.0 7.0 95.4 7.0 95.7 7.0 C 94.2 6.7 93.8 6.9 92.1 6.9 C 92.1 6.9 92.3 6.9 92.5 6.9 C 92.5 6.9 92.5 6.9 92.5 6.9 Z M 46.3 10.4 C 46.8 10.5 47.2 10.6 48.0 10.5 C 47.8 10.2 47.4 10.2 46.3 10.4 C 46.3 10.4 46.3 10.4 46.3 10.4 Z M 115.5 8.7 C 116.4 8.7 114.6 8.6 115.1 8.9 C 115.8 9.1 116.6 9.2 116.8 9.5 C 118.1 9.3 115.3 9.0 115.5 8.7 C 115.5 8.7 115.5 8.7 115.5 8.7 Z M 109.3 8.6 C 108.9 8.5 109.0 8.1 109.3 8.4 C 110.3 8.5 108.5 8.1 110.0 8.3 C 109.4 8.1 108.0 7.9 107.3 8.0 C 107.3 8.2 108.6 8.2 108.6 8.4 C 108.7 8.5 108.5 8.5 108.3 8.5 C 108.4 8.6 108.7 8.5 109.3 8.6 C 109.3 8.6 109.3 8.6 109.3 8.6 Z M 104.1 7.7 C 104.7 7.9 105.4 8.1 106.6 8.2 C 105.8 7.9 105.4 7.7 104.1 7.7 C 104.1 7.7 104.1 7.7 104.1 7.7 Z M 164.2 26.7 C 163.8 26.3 164.0 26.8 164.0 26.9 C 164.3 27.4 164.4 27.2 164.8 27.8 C 164.9 27.5 164.3 27.2 164.2 26.7 C 164.2 26.7 164.2 26.7 164.2 26.7 Z M 165.3 28.5 C 165.2 28.6 165.6 29.2 165.5 29.3 C 166.1 29.5 165.7 30.3 166.0 30.2 C 166.0 30.3 166.0 30.5 166.1 30.7 C 166.4 30.1 165.7 29.0 165.3 28.5 C 165.3 28.5 165.3 28.5 165.3 28.5 Z M 98.1 7.9 C 97.2 7.8 98.4 8.2 97.4 8.1 C 97.4 8.2 99.2 8.4 98.1 8.4 C 99.5 8.7 98.0 7.9 98.1 7.9 C 98.1 7.9 98.1 7.9 98.1 7.9 Z M 80.8 7.9 C 80.9 7.7 79.5 7.9 79.0 7.9 C 79.0 8.0 79.4 7.9 79.7 7.9 C 79.6 8.0 79.4 8.1 79.0 8.1 C 79.3 8.3 80.3 7.9 80.8 7.9 C 80.8 7.9 80.8 7.9 80.8 7.9 Z M 100.1 3.8 C 100.7 4.0 101.5 4.3 101.9 4.0 C 102.5 4.2 101.5 4.2 102.2 4.4 C 103.2 4.3 102.7 4.5 104.4 4.5 C 104.0 4.8 105.2 4.9 105.4 5.1 C 104.8 5.1 103.9 4.7 103.6 5.0 C 104.2 5.0 103.8 5.2 103.6 5.0 C 102.6 4.8 104.9 4.8 103.6 4.6 C 103.2 4.9 101.4 4.2 100.1 4.1 C 100.6 3.9 99.2 3.8 100.1 3.8 C 100.1 3.8 100.1 3.8 100.1 3.8 Z M 106.5 4.7 C 107.3 4.8 107.7 5.3 107.5 5.3 C 107.5 5.2 106.6 5.1 106.4 5.2 C 106.7 5.2 106.9 5.2 106.8 5.3 C 105.2 5.1 105.8 5.0 105.4 4.8 C 106.3 4.7 106.5 4.9 106.9 4.8 C 106.6 4.8 106.4 4.8 106.5 4.7 C 106.5 4.7 106.5 4.7 106.5 4.7 Z M 123.9 10.9 C 123.8 10.7 123.6 10.9 123.3 10.9 C 123.3 10.5 121.5 10.7 121.4 10.5 C 121.8 10.4 122.6 10.6 123.0 10.5 C 122.6 10.4 122.5 10.3 122.0 10.3 C 122.2 10.1 123.1 10.3 123.4 10.2 C 123.5 10.3 123.9 10.2 124.0 10.4 C 122.8 10.3 124.7 11.0 123.9 10.9 C 123.9 10.9 123.9 10.9 123.9 10.9 Z M 90.0 7.9 C 89.9 8.2 91.4 8.8 90.0 9.1 C 89.7 8.8 89.5 8.6 89.6 8.3 C 88.8 8.5 88.4 8.2 87.9 8.5 C 86.3 7.7 89.1 8.6 90.0 7.9 C 90.0 7.9 90.0 7.9 90.0 7.9 Z M 84.3 8.2 C 84.6 7.9 83.8 8.0 84.0 7.8 C 84.7 7.9 86.9 7.7 86.1 7.8 C 85.4 7.9 85.4 8.1 84.3 8.2 C 84.3 8.2 84.3 8.2 84.3 8.2 Z M 43.6 56.1 C 42.5 56.0 42.1 55.5 42.7 55.5 C 42.4 55.7 44.0 55.8 43.6 56.1 C 43.6 56.1 43.6 56.1 43.6 56.1 Z M 4.7 41.7 C 5.1 42.5 5.6 42.8 5.5 43.1 C 4.8 42.4 5.0 42.4 4.5 41.8 C 4.4 41.8 4.1 41.4 4.1 41.3 C 4.4 41.7 4.5 41.5 4.7 41.7 C 4.7 41.7 4.7 41.7 4.7 41.7 Z M 62.4 3.7 C 62.3 3.6 61.9 3.6 62.1 3.4 C 63.1 3.4 64.3 3.1 65.2 2.9 C 65.2 3.0 65.2 3.1 65.2 3.2 C 63.5 3.3 63.1 3.5 62.4 3.7 C 62.4 3.7 62.4 3.7 62.4 3.7 Z M 60.3 3.5 C 60.1 3.6 60.7 3.8 60.0 3.9 C 60.0 3.7 58.6 3.6 59.2 3.5 C 59.5 3.6 59.8 3.6 60.3 3.5 C 60.3 3.5 60.3 3.5 60.3 3.5 Z M 120.0 5.6 C 120.9 5.7 119.7 5.3 119.8 5.2 C 120.3 5.4 121.2 5.5 121.4 5.6 C 120.8 5.5 120.3 5.8 120.0 5.6 C 120.0 5.6 120.0 5.6 120.0 5.6 Z M 107.2 4.7 C 105.4 4.6 106.2 4.2 104.4 4.0 C 105.2 3.9 106.8 4.0 107.3 3.9 C 107.2 4.0 107.6 4.1 107.6 4.2 C 106.9 4.2 106.8 4.1 106.2 4.0 C 106.4 4.3 106.4 4.2 106.2 4.4 C 106.6 4.5 106.9 4.5 107.2 4.4 C 107.1 4.6 107.7 4.7 107.2 4.7 C 107.2 4.7 107.2 4.7 107.2 4.7 Z M 119.6 6.2 C 120.3 6.2 120.9 6.6 120.3 6.5 C 120.2 6.4 119.7 6.5 119.6 6.3 C 120.6 6.4 118.8 6.1 119.3 6.0 C 119.9 6.1 120.1 6.0 120.0 5.8 C 120.4 5.9 121.0 6.0 121.0 6.1 C 120.7 6.0 120.4 6.0 120.3 6.0 C 120.5 6.1 120.7 6.1 120.7 6.2 C 120.1 6.1 119.8 6.1 119.6 6.2 C 119.6 6.2 119.6 6.2 119.6 6.2 Z M 114.9 5.5 C 115.8 5.7 115.9 5.9 116.2 6.1 C 114.9 5.9 114.8 5.5 113.8 5.3 C 114.9 5.5 116.0 5.3 116.3 5.5 C 115.8 5.5 115.0 5.4 114.9 5.5 C 114.9 5.5 114.9 5.5 114.9 5.5 Z M 132.8 57.2 C 132.0 57.2 131.4 57.2 130.5 57.3 C 130.3 57.6 132.0 57.7 131.3 57.7 C 130.4 57.9 130.9 57.4 130.2 57.6 C 131.0 57.8 127.3 58.5 127.1 58.2 C 127.6 58.1 127.8 58.0 127.6 57.8 C 129.2 57.6 129.7 57.3 130.8 57.0 C 131.7 57.1 134.0 56.6 135.1 56.0 C 136.0 56.3 137.4 55.4 138.5 55.5 C 138.8 55.3 137.6 55.5 138.4 55.2 C 139.1 55.3 138.6 55.5 139.5 55.4 C 139.5 55.3 139.3 55.2 139.7 55.0 C 139.6 55.2 140.1 55.1 140.3 55.1 C 138.7 55.5 140.5 55.4 139.2 55.8 C 138.7 55.8 139.7 55.3 138.2 55.7 C 137.7 55.9 137.3 56.1 137.4 56.3 C 137.0 56.4 136.8 56.5 136.6 56.6 C 137.0 56.2 134.5 57.2 135.6 56.6 C 135.7 56.6 136.5 56.4 137.1 56.1 C 136.5 56.0 135.9 56.3 135.0 56.7 C 134.5 56.6 135.1 56.4 134.6 56.4 C 133.9 56.8 134.9 56.7 134.4 57.0 C 134.6 56.9 135.0 56.8 135.0 56.9 C 133.7 57.0 133.2 57.3 132.5 57.5 C 133.0 57.2 131.7 57.4 132.8 57.2 C 132.8 57.2 132.8 57.2 132.8 57.2 Z M 143.4 54.0 C 143.7 53.9 144.0 53.8 144.3 53.7 C 144.4 53.9 143.3 54.3 144.1 54.3 C 142.9 54.6 144.1 54.0 143.4 54.0 C 143.4 54.0 143.4 54.0 143.4 54.0 Z M 137.4 54.8 C 136.9 54.7 137.3 55.2 136.9 55.3 C 137.6 55.0 138.2 54.8 138.4 55.0 C 137.5 55.2 137.2 55.3 136.3 55.6 C 137.1 55.0 135.3 55.6 135.0 55.3 C 135.6 55.1 136.1 54.9 137.0 54.7 C 136.9 54.8 138.2 54.5 137.4 54.8 C 137.4 54.8 137.4 54.8 137.4 54.8 Z M 139.7 53.9 C 139.9 54.0 141.1 53.5 140.9 53.8 C 140.1 54.0 139.9 54.2 140.1 54.3 C 139.5 54.5 139.4 54.4 138.9 54.6 C 138.5 54.4 139.4 54.2 139.7 53.9 C 139.5 54.0 139.3 54.0 139.7 53.9 C 139.7 53.9 139.7 53.9 139.7 53.9 Z M 163.3 40.5 C 163.7 40.5 162.8 41.2 162.6 41.3 C 163.0 41.3 162.9 41.4 162.4 42.0 C 162.4 41.6 161.7 42.4 160.9 42.5 C 160.9 42.8 161.7 42.3 160.9 43.1 C 160.2 43.5 159.6 44.0 158.5 44.8 C 158.1 44.8 158.6 44.4 158.8 44.1 C 158.1 44.7 158.2 44.4 157.6 44.7 C 157.7 44.8 157.3 45.2 157.0 45.2 C 158.0 44.4 155.3 45.8 156.5 45.0 C 156.6 45.0 156.8 44.8 157.1 44.6 C 157.0 45.1 158.4 44.1 158.8 44.1 C 159.0 43.2 160.5 42.4 161.9 41.5 C 162.1 41.5 161.8 41.9 162.1 41.6 C 162.1 41.5 162.5 41.2 162.6 41.0 C 162.7 41.1 162.9 41.0 163.2 40.8 C 163.2 40.7 163.2 40.7 163.3 40.5 C 163.3 40.5 163.3 40.5 163.3 40.5 Z M 76.1 59.0 C 76.2 58.6 73.9 58.7 73.3 58.8 C 73.4 58.3 77.4 58.6 76.1 59.0 C 76.1 59.0 76.1 59.0 76.1 59.0 Z M 89.9 58.9 C 89.3 58.9 89.8 59.1 89.2 59.1 C 89.2 58.9 87.8 59.4 87.8 59.1 C 88.5 58.9 88.9 58.9 89.9 58.9 C 89.9 58.9 89.9 58.9 89.9 58.9 Z M 102.7 58.5 C 101.7 58.6 103.2 58.6 103.0 58.7 C 102.1 58.7 101.2 58.8 101.3 58.6 C 102.1 58.6 102.6 58.3 102.7 58.5 C 102.7 58.5 102.7 58.5 102.7 58.5 Z M 83.6 58.6 C 82.7 58.5 84.1 58.2 84.2 58.4 C 83.3 58.5 84.9 58.6 85.7 58.6 C 85.6 58.9 85.3 58.8 85.7 59.1 C 84.4 59.2 85.5 58.8 84.6 58.8 C 84.0 59.0 84.6 58.9 84.6 59.1 C 84.2 59.1 83.9 59.1 83.5 59.1 C 83.5 59.0 83.5 58.8 83.6 58.7 C 84.0 58.7 84.4 58.7 84.2 58.6 C 83.9 58.6 83.8 58.6 83.6 58.6 C 83.6 58.6 83.6 58.6 83.6 58.6 Z M 146.4 49.6 C 145.7 49.8 146.4 49.7 146.9 49.6 C 147.0 49.4 147.3 48.8 148.1 48.8 C 146.5 49.6 148.8 48.9 147.9 49.4 C 147.4 49.3 146.5 50.0 145.6 50.2 C 145.2 50.2 146.0 49.5 146.4 49.6 C 146.4 49.6 146.4 49.6 146.4 49.6 Z M 149.5 48.5 C 149.4 48.5 149.1 48.6 148.6 48.8 C 149.1 48.4 148.4 48.7 149.0 48.3 C 148.9 48.5 151.1 47.6 149.9 48.2 C 148.7 48.6 150.3 48.2 150.8 48.0 C 150.2 48.2 149.3 48.9 149.1 48.8 C 149.4 48.7 149.7 48.6 149.5 48.5 C 149.5 48.5 149.5 48.5 149.5 48.5 Z M 165.5 36.5 C 165.4 36.4 165.2 36.7 165.1 36.7 C 165.6 35.9 165.8 35.2 165.9 34.8 C 165.9 35.2 166.0 35.2 166.2 35.0 C 166.0 35.4 166.1 35.6 165.9 35.7 C 165.9 35.2 165.7 36.0 165.5 36.5 C 165.5 36.5 165.5 36.5 165.5 36.5 Z M 165.5 36.5 " fill="#000000"></path><image xlink:href="A346AE12D7B9F73A2D7718CA2C5E6188.png" width="82.00" height="34.00" transform="matrix(1.00, 0.00, -0.00, -1.00, 47.0, 42.0)"></image><g><clipPath id="clip-121"><path d="M 5.2 5.6 L 168.7 5.6 L 168.7 60.6 L 5.2 60.6 Z M 5.2 5.6 "></path></clipPath><g clip-path="url(#clip-121)"><text xml:space="preserve" font-family="Chalkduster" font-size="18.0" fill="#000000" transform="matrix(1.00, 0.00, -0.00, -1.00, 51.0, 24.0)">R</text><text xml:space="preserve" font-family="Chalkduster" font-size="18.0" fill="#000000" transform="matrix(1.00, 0.00, -0.00, -1.00, 65.0, 24.0)">e</text><text xml:space="preserve" font-family="Chalkduster" font-size="18.0" fill="#000000" transform="matrix(1.00, 0.00, -0.00, -1.00, 75.6, 24.0)">g</text><text xml:space="preserve" font-family="Chalkduster" font-size="18.0" fill="#000000" transform="matrix(1.00, 0.00, -0.00, -1.00, 87.9, 24.0)">E</text><text xml:space="preserve" font-family="Chalkduster" font-size="18.0" fill="#000000" transform="matrix(1.00, 0.00, -0.00, -1.00, 101.2, 24.0)">x</text><text xml:space="preserve" font-family="Chalkduster" font-size="18.0" fill="#000000" transform="matrix(1.00, 0.00, -0.00, -1.00, 112.4, 24.0)">p</text></g></g></g></svg>