<?xml version="1.0" encoding="UTF-8" standalone="no"?><svg xmlns="http://www.w3.org/2000/svg" xmlns:xlink="http://www.w3.org/1999/xlink" clip-rule="evenodd" stroke-miterlimit="4.00" viewBox="0 0 273 58"><desc>SVG generated by Keynote</desc><defs></defs><g transform="matrix(1.00, 0.00, -0.00, -1.00, 0.0, 58.0)"><path d="M 229.4 45.7 C 280.6 36.4 280.6 21.4 229.4 12.1 C 178.1 2.8 95.0 2.8 43.8 12.1 C -7.5 21.4 -7.5 36.4 43.8 45.7 C 95.0 55.0 178.1 55.0 229.4 45.7 Z M 229.4 45.7 " fill="#A8E685"></path><path d="M 66.5 4.9 C 66.2 5.0 65.7 5.0 65.1 5.1 C 65.4 5.1 65.6 5.2 65.6 5.3 C 66.1 5.2 66.9 5.0 68.0 4.9 C 68.0 4.9 67.4 5.0 67.0 5.0 C 66.5 5.0 66.6 4.9 66.5 4.9 C 66.5 4.9 66.5 4.9 66.5 4.9 Z M 69.3 52.6 C 68.3 52.5 69.3 52.9 69.7 52.9 C 69.8 52.9 69.8 52.8 70.2 52.9 C 70.3 53.1 69.4 53.1 68.7 53.0 C 66.1 52.6 68.1 52.5 69.3 52.6 C 69.3 52.6 69.3 52.6 69.3 52.6 Z M 209.3 51.8 C 211.4 51.6 209.2 51.6 208.9 51.6 C 209.8 51.4 209.0 51.1 210.2 50.9 C 210.5 51.0 210.9 51.0 211.2 51.1 C 210.6 51.2 209.8 51.3 209.8 51.4 C 210.5 51.3 211.5 51.1 211.7 51.2 C 210.1 51.5 211.4 51.5 211.7 51.6 C 210.3 51.8 209.8 52.0 209.3 51.8 C 209.3 51.8 209.3 51.8 209.3 51.8 Z M 229.2 9.3 C 229.7 9.4 230.6 9.6 230.3 9.7 C 229.1 9.5 229.1 9.4 228.8 9.3 C 228.7 9.4 228.8 9.6 228.3 9.5 C 227.8 9.2 228.1 8.9 228.4 8.9 C 228.5 9.1 230.4 9.3 229.2 9.3 C 229.2 9.3 229.2 9.3 229.2 9.3 Z M 174.9 3.9 C 172.9 3.6 174.8 4.2 172.8 4.0 C 172.8 3.8 172.5 3.5 173.9 3.6 C 174.0 3.7 174.7 3.7 174.9 3.9 C 174.9 3.9 174.9 3.9 174.9 3.9 Z M 151.1 53.8 C 151.1 54.0 152.5 53.9 152.2 54.1 C 151.4 54.1 150.7 54.1 150.0 54.2 C 149.8 54.0 150.1 53.9 151.1 53.8 C 151.1 53.8 151.1 53.8 151.1 53.8 Z M 222.7 47.7 C 224.8 47.6 226.8 46.9 226.2 47.2 C 227.0 47.3 224.9 48.1 225.0 47.9 C 224.7 47.6 221.1 47.9 222.7 47.7 C 222.7 47.7 222.7 47.7 222.7 47.7 Z M 81.0 49.6 C 83.4 50.0 82.9 49.2 84.5 49.7 C 83.9 49.7 83.7 49.7 83.5 49.8 C 83.9 49.8 84.5 49.9 84.5 49.9 C 83.3 49.9 82.0 49.8 81.0 49.6 C 81.0 49.6 81.0 49.6 81.0 49.6 Z M 101.1 2.7 C 101.5 2.6 101.7 2.6 101.6 2.5 C 103.3 2.5 103.2 2.3 104.3 2.4 C 104.3 2.7 102.9 2.6 101.6 2.6 C 101.6 2.7 101.2 2.8 101.1 2.7 C 101.1 2.7 101.1 2.7 101.1 2.7 Z M 148.7 2.8 C 148.6 2.6 147.6 2.5 149.2 2.5 C 151.0 2.8 149.4 3.0 147.5 3.1 C 147.5 3.2 147.5 3.3 147.5 3.4 C 148.3 3.4 148.8 3.5 149.2 3.5 C 149.5 3.1 150.7 3.8 153.5 3.7 C 152.2 3.8 153.6 4.1 151.9 4.0 C 152.3 4.2 151.1 4.1 151.3 4.3 C 152.1 4.2 153.9 4.3 153.5 4.0 C 154.4 4.0 155.2 4.1 155.7 4.1 C 156.3 4.4 153.9 4.1 154.6 4.4 C 155.1 4.4 155.2 4.5 155.6 4.5 C 155.8 4.4 155.5 4.3 156.2 4.3 C 157.9 4.4 155.9 4.6 158.3 4.7 C 158.5 4.5 157.7 4.5 157.8 4.3 C 158.9 4.2 158.8 4.4 160.0 4.3 C 160.2 4.5 159.2 4.5 159.9 4.6 C 160.6 4.2 162.2 4.9 163.7 4.6 C 162.7 4.1 164.0 4.7 165.3 4.3 C 165.6 4.4 164.6 4.7 165.8 4.8 C 165.4 4.1 170.2 4.5 166.4 3.9 C 168.4 3.9 169.1 3.5 167.5 3.3 C 171.0 3.6 169.9 3.2 171.2 3.3 C 172.6 3.4 170.5 3.4 171.2 3.6 C 169.8 3.5 170.1 3.7 169.1 3.5 C 169.1 3.6 168.8 3.7 168.5 3.7 C 170.0 3.6 171.7 4.0 170.6 4.3 C 169.9 4.2 170.6 4.0 169.6 3.9 C 170.0 4.3 168.6 3.8 168.5 4.0 C 169.2 4.4 167.1 4.6 169.1 4.7 C 169.1 4.6 169.1 4.4 169.1 4.3 C 169.6 4.3 170.1 4.3 170.6 4.4 C 171.1 4.6 170.7 4.8 171.2 4.9 C 172.0 4.9 172.5 4.9 172.8 4.8 C 171.7 4.7 170.4 4.4 172.2 4.4 C 171.5 4.9 174.7 4.7 173.3 4.9 C 175.2 5.2 176.2 4.8 176.4 5.2 C 177.4 5.2 176.8 4.9 178.0 5.0 C 179.9 5.3 179.6 5.0 182.1 5.3 C 182.5 5.0 182.4 5.4 183.2 5.5 C 183.2 5.4 183.2 5.2 183.2 5.1 C 184.1 5.4 186.1 5.6 188.3 5.6 C 188.8 5.7 188.4 5.9 189.8 5.9 C 191.3 5.7 193.0 6.2 194.8 6.0 C 195.0 6.2 196.2 6.3 196.8 6.3 C 197.1 6.4 196.2 6.6 197.3 6.7 C 198.0 6.6 196.8 6.4 198.3 6.4 C 198.1 6.7 199.8 6.4 199.8 6.6 C 199.3 6.7 198.8 6.7 198.3 6.7 C 198.9 6.8 198.7 6.9 199.3 7.0 C 199.2 6.7 200.4 7.1 200.7 7.1 C 200.7 7.0 200.9 6.9 201.3 6.9 C 202.1 7.0 202.8 7.0 203.2 7.0 C 204.3 7.2 202.6 7.1 203.6 7.3 C 204.2 6.7 205.2 7.5 207.5 7.4 C 208.0 7.6 208.9 7.9 210.3 8.1 C 210.5 7.9 209.0 7.8 208.9 7.6 C 211.0 7.9 208.6 7.4 209.9 7.6 C 212.8 8.1 214.7 8.3 217.7 8.9 C 217.7 8.8 220.0 8.9 219.9 9.0 C 219.3 9.0 221.2 9.5 222.1 9.7 C 222.4 9.3 223.9 9.2 224.0 9.0 C 224.3 9.3 224.3 9.3 224.4 9.6 C 225.9 10.0 226.8 9.8 227.8 10.4 C 227.7 10.2 228.5 10.2 229.1 10.3 C 228.9 10.4 228.5 10.5 228.1 10.6 C 229.0 10.7 228.5 10.8 230.0 11.0 C 231.7 10.6 234.0 12.0 235.3 11.5 C 237.6 12.0 237.1 12.2 239.2 12.6 C 239.1 12.5 239.4 12.4 240.0 12.5 C 238.6 12.2 237.6 12.2 236.9 11.8 C 240.0 12.4 231.1 9.9 236.3 10.7 C 236.4 10.8 235.9 10.9 237.0 11.2 C 239.9 11.7 238.3 11.1 237.1 10.9 C 239.1 11.2 241.0 11.7 239.5 11.1 C 243.9 12.0 241.1 11.5 242.5 12.0 C 249.9 13.6 257.5 15.9 262.7 19.1 C 263.0 18.9 265.5 20.8 266.1 21.5 C 267.4 22.2 268.4 23.2 268.4 23.7 C 268.8 23.7 269.2 25.1 269.4 25.1 C 269.2 24.6 269.1 24.3 269.4 24.7 C 270.3 26.4 270.5 29.2 270.5 30.4 C 270.0 30.9 269.7 32.1 269.4 32.9 C 269.2 32.9 269.5 32.3 269.2 32.7 C 269.3 33.0 268.3 34.5 267.9 34.7 C 268.3 34.3 268.4 33.7 267.9 34.2 C 268.0 34.3 267.3 35.0 267.6 35.0 C 266.7 35.7 266.2 36.3 265.3 36.9 C 266.0 36.3 266.3 35.9 266.3 35.7 C 265.8 36.2 265.4 36.6 264.8 36.8 C 265.1 37.0 264.0 37.5 262.8 38.4 C 262.4 38.5 262.1 38.5 261.1 39.1 C 260.6 39.5 262.8 38.4 261.7 39.1 C 261.6 39.0 260.4 39.5 260.8 39.6 C 259.3 40.2 258.4 40.7 257.0 41.1 C 258.8 40.4 257.3 40.6 256.9 40.8 C 256.5 40.9 255.9 41.2 255.9 41.2 C 255.9 41.3 256.8 40.9 256.9 41.0 C 255.7 41.4 255.4 41.9 254.9 41.9 C 255.5 41.6 255.5 41.5 254.8 41.7 C 254.8 42.1 250.6 43.2 252.0 42.6 C 252.0 42.7 253.6 42.2 253.7 42.0 C 253.2 42.0 250.9 43.0 251.3 42.6 C 252.7 42.1 252.7 42.3 254.2 41.7 C 254.3 41.5 255.2 41.1 255.7 40.8 C 253.4 41.7 252.8 42.1 252.4 42.0 C 251.3 42.4 252.1 42.4 250.1 42.9 C 247.2 43.7 249.5 42.8 248.7 42.9 C 246.2 43.8 247.0 43.9 248.2 43.8 C 246.1 44.4 245.5 44.7 242.7 45.4 C 242.8 45.2 243.2 45.0 244.1 44.7 C 244.2 44.7 246.5 44.3 246.3 44.2 C 246.0 43.9 244.2 44.3 241.1 44.9 C 241.9 45.1 242.0 44.9 238.9 45.6 C 239.5 45.8 237.3 45.9 237.3 46.1 C 237.4 46.2 238.6 45.9 239.7 45.7 C 239.6 45.8 239.3 46.0 238.2 46.3 C 237.5 46.4 237.0 46.6 235.0 46.9 C 234.8 46.8 236.2 46.4 236.5 46.2 C 235.4 46.5 235.2 46.6 234.0 46.9 C 233.0 46.8 233.0 46.5 233.0 46.2 C 234.3 45.8 236.3 45.4 234.7 45.6 C 239.5 44.6 234.5 46.0 236.4 45.7 C 238.3 44.9 237.3 45.6 240.3 44.9 C 241.1 44.7 241.4 44.5 241.7 44.4 C 241.5 44.4 239.8 44.5 241.7 44.1 C 242.1 44.1 243.2 44.0 244.6 43.6 C 244.6 43.5 241.6 44.2 244.5 43.4 C 246.0 43.1 244.8 43.7 246.7 43.2 C 246.7 43.1 247.2 42.9 247.3 42.8 C 244.6 43.6 247.8 42.5 245.9 42.9 C 248.2 42.1 246.4 43.0 247.9 42.6 C 247.9 42.4 250.4 42.0 250.3 41.7 C 249.5 42.1 247.6 42.6 247.8 42.3 C 249.5 41.8 256.3 39.3 253.8 40.6 C 254.7 40.1 258.9 38.1 258.6 38.4 C 257.4 38.9 257.5 39.0 257.4 39.2 C 259.7 38.0 260.8 37.7 262.5 36.3 C 260.5 37.4 261.8 36.2 260.4 36.7 C 259.8 37.0 258.9 37.4 258.8 37.6 C 259.2 37.7 260.1 37.1 260.4 36.8 C 260.5 37.0 260.6 37.2 260.7 37.3 C 258.1 38.4 256.3 39.4 254.7 39.9 C 256.1 39.3 252.0 40.5 253.6 39.9 C 254.3 39.8 255.9 39.2 257.2 38.7 C 257.2 38.7 257.1 38.6 257.1 38.5 C 257.6 38.3 258.4 38.0 258.4 37.9 C 256.8 38.6 255.8 38.8 254.6 39.4 C 254.5 39.4 254.5 39.3 254.5 39.3 C 254.2 39.4 253.9 39.5 254.0 39.4 C 254.6 39.1 255.4 38.8 255.5 38.7 C 254.2 39.2 253.8 39.0 252.2 39.6 C 252.5 39.2 250.3 39.6 252.6 38.7 C 253.0 38.8 254.3 38.4 254.3 38.6 C 254.9 38.4 256.2 37.9 256.7 37.5 C 256.0 37.6 254.8 38.1 254.6 37.9 C 255.6 37.4 256.3 37.0 257.0 37.0 C 255.1 37.9 258.1 36.7 258.9 36.7 C 258.6 36.6 258.2 36.8 257.9 36.8 C 259.3 36.1 259.9 36.0 259.9 35.6 C 261.3 34.8 261.1 35.2 262.0 34.6 C 261.2 34.7 262.5 34.2 261.7 34.2 C 263.1 33.3 262.3 34.2 262.8 33.9 C 263.2 33.6 263.2 33.5 263.5 33.2 C 264.1 32.9 264.9 32.1 265.3 32.2 C 265.6 31.9 265.7 31.9 266.0 31.5 C 265.9 31.4 266.0 31.2 266.0 31.1 C 266.1 31.1 266.3 30.9 266.3 30.7 C 265.5 31.5 265.7 31.2 264.6 31.9 C 264.6 32.1 264.4 32.2 264.7 32.1 C 264.1 32.8 263.7 32.9 262.9 33.5 C 262.7 33.4 262.4 33.3 261.6 34.0 C 261.7 33.7 261.4 33.8 261.7 33.5 C 262.2 33.3 262.8 33.0 263.4 32.7 C 263.4 32.5 263.2 32.5 263.5 32.3 C 263.8 32.2 264.1 31.9 264.3 31.6 C 264.4 31.7 264.3 31.8 264.3 32.0 C 265.2 31.2 264.7 31.3 265.2 30.8 C 265.0 30.8 264.8 31.1 264.9 30.7 C 265.2 30.2 265.3 30.2 265.5 30.0 C 265.5 29.9 265.4 29.9 265.4 29.8 C 265.7 29.5 265.5 30.8 266.1 30.2 C 265.9 30.1 266.2 29.5 266.3 29.5 C 266.5 29.7 266.1 30.0 266.2 30.1 C 266.7 28.9 266.8 30.2 267.0 28.9 C 266.9 28.9 266.7 28.9 266.6 28.9 C 266.7 29.4 266.4 29.4 266.2 29.3 C 266.1 29.7 265.8 29.7 265.8 30.1 C 265.4 29.8 265.9 29.8 266.0 29.4 C 265.8 29.4 265.7 29.7 265.5 29.7 C 265.9 29.0 265.6 29.0 265.7 28.1 C 265.5 28.4 265.5 27.7 265.3 27.8 C 265.7 28.5 264.9 28.4 264.8 28.5 C 264.9 28.7 265.3 28.5 265.5 28.7 C 265.3 28.8 265.1 28.8 264.8 28.8 C 264.9 28.6 264.8 28.6 264.6 28.4 C 264.8 28.2 265.1 27.8 265.4 28.1 C 265.3 28.0 264.9 27.6 265.0 27.4 C 265.4 28.0 265.1 27.3 265.4 27.6 C 265.3 27.1 264.4 26.4 263.9 25.6 C 263.8 25.8 263.5 25.6 263.5 25.7 C 264.4 26.1 264.1 26.6 264.5 27.2 C 264.3 27.0 264.3 27.2 264.3 27.3 C 264.0 26.8 263.6 26.6 263.2 26.0 C 263.2 26.0 263.1 26.1 263.1 26.2 C 262.4 25.3 262.4 25.4 261.4 25.0 C 261.1 24.7 261.8 24.6 262.1 24.5 C 261.6 24.3 259.9 23.2 260.8 24.1 C 259.7 23.4 260.2 23.3 258.9 22.7 C 258.7 22.9 259.9 23.5 259.3 23.5 C 258.2 23.0 259.0 23.0 257.9 22.7 C 257.9 22.5 258.0 22.3 256.8 21.8 C 257.6 22.4 256.6 21.8 256.2 21.8 C 256.8 22.1 257.2 22.4 257.5 22.5 C 255.5 21.6 255.0 21.4 252.9 20.7 C 253.7 20.7 252.6 20.2 254.0 20.6 C 252.7 20.3 251.1 19.4 250.3 19.3 C 251.1 19.7 252.5 20.2 253.0 20.5 C 248.8 19.1 246.1 18.6 241.3 17.1 C 242.1 17.2 243.2 17.6 243.4 17.5 C 242.9 17.4 242.0 17.2 242.0 17.1 C 243.7 17.5 245.2 17.9 246.1 18.1 C 247.4 18.6 245.2 18.0 246.6 18.5 C 246.9 18.4 249.4 19.3 248.6 18.7 C 246.2 18.2 243.9 17.4 242.8 16.7 C 240.3 16.5 242.6 17.1 239.7 16.9 C 239.9 16.7 239.2 16.5 238.3 16.3 C 239.2 16.8 235.6 15.9 235.2 15.8 C 236.6 15.9 241.7 16.9 239.2 16.0 C 240.2 16.9 233.2 14.6 234.5 15.3 C 231.0 14.7 232.3 14.6 230.3 14.5 C 230.2 14.4 230.5 14.3 229.5 14.1 C 228.5 13.9 228.6 14.0 228.4 14.1 C 229.6 14.3 231.1 14.7 231.8 15.0 C 232.4 15.2 232.9 15.4 234.4 15.7 C 233.9 15.6 233.4 15.5 233.5 15.6 C 233.5 15.7 233.4 15.7 232.7 15.5 C 232.5 15.2 230.1 15.1 229.4 14.7 C 230.4 14.9 231.4 15.1 231.1 14.9 C 226.8 14.1 228.3 14.1 225.5 13.5 C 226.3 13.8 225.2 13.6 224.2 13.5 C 222.8 13.2 223.4 12.9 221.6 12.7 C 221.7 13.3 219.8 12.4 217.6 12.4 C 217.9 12.1 215.1 11.6 214.5 11.8 C 214.4 11.7 213.4 11.6 212.7 11.5 C 212.5 11.3 213.4 11.4 212.7 11.3 C 212.1 11.2 212.6 11.6 211.8 11.5 C 210.8 11.3 211.0 11.0 209.5 10.9 C 209.4 11.1 210.3 11.1 209.5 11.2 C 208.2 10.9 207.0 10.8 208.0 11.2 C 206.1 11.0 207.1 10.6 205.2 10.4 C 205.8 10.6 205.7 10.7 204.7 10.6 C 204.1 10.4 204.0 10.3 203.8 10.1 C 203.2 10.3 203.4 10.3 201.9 10.1 C 201.9 10.2 201.9 10.3 201.8 10.4 C 201.1 10.3 200.1 10.3 199.9 10.1 C 201.2 10.3 200.9 10.1 201.4 10.0 C 200.1 9.9 197.5 9.4 199.5 9.8 C 197.6 9.8 198.5 9.5 197.0 9.4 C 197.9 9.8 197.1 9.5 195.6 9.4 C 195.7 9.7 194.5 9.3 193.6 9.3 C 193.7 9.5 193.4 9.6 192.6 9.5 C 192.6 9.4 192.0 9.3 191.1 9.2 C 191.1 9.3 193.1 9.7 191.0 9.5 C 190.1 9.3 190.1 9.0 188.5 8.9 C 188.2 8.6 190.0 8.8 189.6 8.5 C 188.3 8.7 187.9 8.5 186.0 8.3 C 186.8 8.8 182.2 8.6 184.4 9.0 C 183.8 8.9 182.9 9.2 182.4 8.9 C 183.1 8.9 181.9 8.6 181.9 8.5 C 181.0 8.5 178.9 8.3 178.8 8.4 C 180.8 8.5 180.8 8.7 181.4 8.9 C 178.5 8.9 176.0 8.6 176.2 8.3 C 176.2 8.4 175.8 8.4 175.7 8.5 C 176.7 8.5 177.3 8.9 176.2 8.9 C 176.4 8.7 175.6 8.6 174.7 8.4 C 174.6 8.7 170.8 8.1 171.5 8.5 C 173.0 8.4 174.2 8.8 173.1 8.9 C 172.1 8.6 170.0 8.4 170.5 8.2 C 169.9 8.3 169.4 8.3 168.9 8.4 C 168.4 8.6 169.6 8.6 169.4 8.8 C 168.6 8.7 167.4 8.7 167.3 8.6 C 169.4 8.7 166.2 8.4 168.4 8.4 C 167.0 8.3 166.7 8.2 165.7 8.1 C 165.7 8.2 165.3 8.2 165.2 8.2 C 166.1 8.1 167.0 8.3 166.8 8.5 C 164.9 8.5 165.2 8.2 163.6 8.2 C 163.1 8.3 160.9 8.6 159.8 8.3 C 162.0 8.4 159.7 8.2 160.9 8.1 C 162.8 8.4 163.4 8.1 164.1 7.9 C 163.3 7.8 161.7 7.6 161.4 7.9 C 162.5 8.0 162.5 7.8 163.1 7.8 C 163.0 8.0 162.7 8.1 162.0 8.1 C 161.1 7.9 159.1 8.0 160.4 7.7 C 159.1 7.8 157.6 7.5 156.1 7.7 C 157.7 7.7 158.8 7.9 159.3 8.1 C 158.0 8.1 156.7 7.8 156.6 8.0 C 156.8 8.2 158.9 8.2 159.3 8.4 C 157.6 8.6 155.1 7.8 157.2 8.4 C 156.2 8.3 154.9 8.3 154.5 8.2 C 155.7 8.2 154.4 7.8 153.9 7.8 C 152.9 7.8 152.2 7.8 151.8 7.9 C 153.3 7.8 154.4 8.2 153.4 8.2 C 153.1 8.0 152.8 8.2 152.4 8.2 C 152.3 8.1 150.5 8.1 150.2 8.0 C 150.3 8.1 151.1 8.2 151.3 8.3 C 150.3 8.3 148.8 8.7 148.0 8.3 C 148.7 8.3 149.6 8.3 149.6 8.2 C 146.9 7.8 146.0 7.5 142.6 7.3 C 143.1 7.3 143.3 7.3 143.2 7.2 C 141.1 7.1 139.7 7.0 140.0 6.9 C 138.6 6.9 137.9 7.0 137.3 7.2 C 138.6 7.3 139.1 7.1 140.0 7.2 C 139.4 7.3 141.0 7.7 141.6 7.9 C 143.9 7.7 144.1 8.1 146.4 7.9 C 145.7 8.2 148.2 8.0 147.5 8.3 C 145.3 7.9 143.2 8.1 139.9 8.0 C 140.4 7.8 140.7 7.6 139.4 7.5 C 137.4 7.4 138.4 7.7 136.7 7.6 C 136.0 7.4 137.0 7.4 136.2 7.3 C 135.6 7.4 134.0 7.4 133.5 7.2 C 135.7 7.2 133.0 7.0 134.5 6.8 C 133.8 6.8 133.4 6.8 132.9 6.8 C 135.0 7.0 130.7 7.1 132.4 7.3 C 129.4 7.5 132.1 6.7 129.7 6.8 C 130.9 7.0 129.3 7.1 127.5 7.1 C 127.0 6.8 125.2 6.8 123.7 6.7 C 124.5 6.9 125.1 6.9 123.7 7.0 C 124.5 7.1 125.7 7.1 126.4 7.0 C 126.4 7.1 126.7 7.2 127.0 7.2 C 125.2 7.3 125.9 7.4 125.4 7.5 C 124.8 7.4 123.5 7.4 123.2 7.3 C 123.2 7.4 122.7 7.4 122.7 7.5 C 124.9 7.4 122.3 7.8 123.7 7.8 C 124.7 7.8 124.1 7.6 125.4 7.6 C 126.6 7.9 124.4 7.9 123.7 8.2 C 124.8 8.3 126.0 8.0 126.4 8.3 C 125.1 8.6 122.8 8.4 121.1 8.4 C 121.2 8.7 118.1 8.4 117.8 8.8 C 117.6 8.7 117.3 8.6 116.8 8.6 C 116.3 8.8 115.7 8.5 115.2 8.5 C 115.1 8.7 115.3 8.8 115.7 8.8 C 113.5 8.8 113.0 8.8 110.4 9.0 C 110.0 8.9 109.5 8.7 109.3 8.6 C 109.9 8.5 110.5 8.4 110.9 8.3 C 107.4 8.4 109.7 9.0 107.2 8.7 C 107.3 8.9 109.0 9.1 107.7 9.2 C 105.5 9.0 102.4 9.4 102.4 8.7 C 100.5 8.6 99.2 9.1 98.2 8.8 C 97.6 8.9 97.4 9.0 97.2 9.1 C 97.8 9.2 98.6 9.3 99.3 9.3 C 100.5 9.2 101.0 9.4 99.8 9.1 C 101.6 9.0 102.0 9.1 103.0 9.2 C 100.6 9.5 98.4 9.3 98.3 9.7 C 97.5 9.6 96.9 9.5 96.2 9.4 C 96.0 9.5 93.3 9.8 93.1 9.6 C 94.9 9.5 96.7 9.1 95.1 9.0 C 90.7 9.5 88.2 9.2 84.4 9.8 C 84.3 9.7 84.6 9.5 83.9 9.5 C 83.9 9.6 83.8 9.7 83.4 9.8 C 82.2 9.9 81.5 9.9 79.9 10.1 C 80.0 9.8 79.7 9.7 78.8 9.7 C 78.4 10.0 76.8 10.6 75.9 10.6 C 76.9 10.5 75.6 10.3 74.9 10.4 C 75.5 10.6 70.6 10.5 72.0 10.7 C 70.0 10.9 69.2 10.9 69.1 10.8 C 68.4 10.9 67.9 11.0 67.2 11.2 C 66.8 10.9 63.5 11.5 63.0 11.4 C 64.2 11.4 64.3 11.0 63.4 11.1 C 62.8 11.4 59.9 12.0 59.3 12.0 C 59.5 11.9 59.7 11.6 61.1 11.3 C 58.7 11.6 58.8 12.0 58.0 12.3 C 58.0 12.0 57.0 12.4 56.6 12.5 C 55.9 12.4 56.7 12.4 56.6 12.2 C 55.8 12.3 55.4 12.2 54.4 12.3 C 54.7 12.6 53.5 12.6 53.0 12.6 C 52.9 12.8 52.3 13.0 51.3 13.2 C 52.6 12.6 45.9 13.6 47.5 13.7 C 46.2 14.1 46.1 13.6 44.5 13.9 C 44.4 14.0 44.0 14.1 43.6 14.2 C 43.3 14.3 43.7 14.2 44.2 14.2 C 43.8 14.3 43.1 14.5 42.8 14.5 C 42.5 14.5 42.3 14.5 42.2 14.5 C 41.8 14.5 41.4 14.5 39.8 14.9 C 41.2 14.9 36.8 15.5 37.5 15.7 C 36.1 15.5 33.8 16.6 31.5 16.8 C 31.5 16.9 30.9 17.1 30.8 17.2 C 30.4 17.4 33.6 16.7 31.6 17.2 C 29.1 17.6 30.4 17.2 30.0 17.2 C 23.8 18.9 17.7 20.9 14.0 22.6 C 14.5 22.5 14.5 22.6 13.7 23.0 C 12.5 23.1 9.5 25.5 9.3 25.9 C 8.9 25.8 8.3 27.0 8.0 27.1 C 8.2 26.9 8.2 26.4 7.9 26.8 C 8.0 27.2 7.6 27.4 7.7 27.8 C 7.3 27.8 7.4 28.9 7.0 28.3 C 7.0 28.5 6.9 28.6 6.9 28.7 C 7.2 28.7 7.1 28.9 7.3 28.6 C 7.0 29.3 7.3 29.5 7.5 30.3 C 7.7 30.4 7.5 29.8 7.8 30.1 C 7.7 30.2 7.7 30.2 7.6 30.2 C 7.7 30.4 7.9 30.4 7.8 30.5 C 7.7 30.5 7.6 30.3 7.3 30.4 C 7.6 30.7 7.5 31.2 7.8 31.2 C 7.4 30.6 8.0 30.7 8.1 31.2 C 7.8 31.0 9.5 32.6 10.4 33.0 C 10.6 33.6 9.5 32.5 9.5 32.7 C 10.8 33.7 10.8 33.7 11.2 33.6 C 12.0 34.2 12.3 34.6 13.8 35.2 C 14.5 35.7 13.2 35.1 14.0 35.6 C 14.6 35.8 14.9 35.7 15.7 36.1 C 17.8 37.6 24.9 39.2 28.8 41.0 C 27.2 40.4 29.4 40.8 31.7 41.4 C 31.8 41.5 31.5 41.6 32.3 41.8 C 32.2 41.6 33.0 41.7 34.6 42.1 C 34.8 42.2 34.4 42.3 35.3 42.5 C 36.1 42.3 38.1 43.1 39.4 43.2 C 39.9 43.5 36.4 42.7 36.1 42.8 C 38.1 43.3 39.4 43.6 40.5 43.7 C 41.7 43.9 43.4 44.2 44.2 44.4 C 43.3 44.3 44.7 44.8 45.0 44.9 C 44.7 44.5 46.0 44.7 45.1 44.3 C 45.7 44.4 46.6 44.6 46.7 44.7 C 46.4 44.6 45.9 44.5 45.9 44.6 C 46.6 44.7 47.6 45.2 48.0 45.0 C 47.5 44.9 47.1 44.7 47.2 44.6 C 47.4 44.5 47.6 44.5 48.1 44.5 C 46.8 44.9 50.4 45.2 50.6 45.1 C 50.9 45.5 51.1 45.6 50.9 45.7 C 52.4 46.0 52.3 45.7 53.2 45.7 C 52.9 46.0 52.6 46.1 54.0 46.5 C 53.7 46.1 55.4 46.4 55.0 46.0 C 58.7 46.4 59.4 46.9 61.7 47.1 C 61.8 47.1 61.1 46.9 61.8 47.0 C 62.8 47.2 63.8 47.4 64.5 47.6 C 65.1 47.5 64.3 47.4 65.0 47.4 C 66.7 47.8 66.3 48.1 67.8 48.4 C 69.7 48.4 69.0 48.5 70.2 48.4 C 69.7 48.3 69.0 48.1 69.7 48.2 C 70.9 48.5 71.3 48.8 71.6 48.9 C 70.8 48.8 70.1 48.7 69.7 48.6 C 69.4 48.8 68.2 48.6 69.2 48.9 C 68.0 48.7 66.6 48.5 64.9 48.3 C 65.4 48.7 63.4 48.2 63.9 48.5 C 65.9 48.7 66.3 49.0 68.2 49.1 C 67.8 48.8 69.7 49.2 70.1 49.2 C 70.1 49.1 71.4 49.3 71.1 49.0 C 72.6 49.1 72.5 49.3 74.0 49.4 C 74.1 49.5 73.9 49.6 74.5 49.7 C 75.0 49.5 75.4 49.9 75.9 49.9 C 75.6 49.6 77.8 50.0 77.9 49.8 C 77.4 49.7 76.5 49.7 76.4 49.6 C 78.9 49.8 77.0 49.4 76.5 49.2 C 76.6 49.3 75.7 49.5 75.5 49.3 C 77.5 49.3 72.7 48.6 74.5 48.9 C 76.1 49.1 76.0 48.9 77.5 49.1 C 79.3 49.7 77.1 49.7 78.9 50.3 C 80.1 50.2 80.8 50.3 81.0 50.0 C 81.2 50.2 81.5 50.3 81.9 50.4 C 82.4 50.3 80.5 50.0 81.9 50.0 C 82.7 50.2 81.8 50.4 83.4 50.5 C 84.1 50.3 81.5 50.1 83.0 50.1 C 84.5 50.6 82.6 50.0 84.5 50.1 C 84.6 50.2 84.9 50.2 85.5 50.2 C 85.6 50.4 85.3 50.5 86.0 50.6 C 86.3 50.2 86.6 50.8 88.0 50.8 C 88.8 50.6 86.6 50.6 87.0 50.4 C 88.5 50.8 89.5 50.5 90.1 50.6 C 88.8 50.7 92.0 50.9 92.1 51.1 C 91.8 50.8 92.5 51.0 94.2 50.9 C 94.3 51.3 96.4 51.1 96.8 51.5 C 97.1 51.4 97.6 51.3 97.8 51.2 C 97.2 51.2 96.6 51.1 96.8 51.0 C 97.3 51.0 97.9 51.1 98.4 51.1 C 99.3 51.3 97.0 51.7 100.5 51.8 C 100.1 51.5 101.6 51.5 102.6 51.5 C 102.5 51.2 101.2 51.4 101.0 51.2 C 102.2 51.1 103.4 51.4 104.1 51.5 C 106.2 51.5 108.6 51.8 111.6 51.8 C 112.3 52.0 109.1 51.9 111.1 52.1 C 111.9 52.1 111.5 51.9 112.7 52.0 C 111.6 53.0 120.7 52.4 121.3 52.8 C 121.7 52.6 124.2 52.8 124.0 52.5 C 122.2 52.7 121.0 52.3 120.2 52.2 C 118.6 52.3 121.7 52.5 120.2 52.5 C 120.0 52.3 117.8 52.4 118.0 52.2 C 120.3 52.2 116.8 51.9 118.6 51.7 C 120.7 51.8 125.0 51.6 124.0 51.9 C 124.0 51.8 123.0 51.8 122.9 51.9 C 125.4 52.1 126.8 51.9 127.8 51.7 C 128.9 51.9 133.2 51.6 132.1 51.8 C 132.5 52.0 129.5 51.7 129.9 51.9 C 134.4 52.1 134.5 51.9 137.5 52.0 C 136.6 51.7 140.6 51.6 140.3 51.7 C 140.3 51.9 141.2 52.1 142.9 51.8 C 142.7 52.1 143.6 52.2 144.6 52.2 C 145.0 52.0 143.8 52.0 144.0 51.8 C 144.9 51.8 145.8 51.8 146.7 51.8 C 146.8 51.9 146.6 52.0 147.3 52.0 C 148.3 51.9 151.9 51.6 151.6 51.7 C 150.1 52.1 154.1 51.9 151.6 52.2 C 152.3 52.2 152.3 52.3 153.2 52.2 C 153.2 52.1 153.2 52.0 153.2 51.9 C 155.2 51.8 154.2 52.3 155.9 52.3 C 156.1 52.1 156.8 52.1 157.0 52.0 C 156.3 52.0 156.3 52.1 155.4 52.1 C 156.4 51.7 153.6 51.9 153.7 51.7 C 155.6 51.6 155.6 51.8 156.4 51.9 C 158.8 51.7 157.7 51.8 160.2 51.8 C 160.2 51.7 159.5 51.7 159.7 51.6 C 162.7 51.6 162.4 52.1 164.5 51.8 C 164.0 51.9 162.1 52.1 163.4 52.1 C 164.8 51.9 165.2 51.7 167.1 51.5 C 167.2 51.6 167.1 51.8 167.7 51.8 C 168.4 51.6 168.5 51.4 169.2 51.3 C 169.4 51.4 170.4 51.3 170.8 51.2 C 171.5 51.4 170.6 51.5 171.4 51.5 C 172.9 51.4 173.7 50.8 175.0 50.8 C 175.0 51.2 176.4 51.0 177.6 50.8 C 177.9 51.1 180.5 50.9 182.3 50.9 C 181.9 50.7 183.7 50.6 183.3 50.4 C 182.4 50.5 182.0 50.4 181.8 50.3 C 183.8 50.2 184.4 50.7 185.9 50.1 C 186.6 50.3 187.6 50.3 188.9 50.3 C 189.1 50.2 186.5 50.2 187.9 50.1 C 188.0 50.2 188.5 50.1 188.9 50.0 C 188.7 50.3 189.8 50.3 190.5 50.3 C 191.6 50.1 194.1 50.2 192.9 50.0 C 194.8 49.8 193.6 50.3 195.0 50.2 C 194.3 49.9 196.7 49.7 195.4 49.6 C 197.3 49.3 197.2 49.8 196.5 50.0 C 198.2 49.9 198.6 49.6 199.4 49.7 C 198.6 49.5 201.2 49.1 199.9 49.4 C 199.5 49.7 201.5 49.4 201.8 49.5 C 201.2 49.3 202.1 49.2 200.9 49.2 C 202.1 49.0 204.0 48.8 205.2 48.9 C 206.8 48.6 208.2 48.4 207.6 48.7 C 209.0 48.5 208.5 48.6 210.0 48.5 C 210.0 48.4 209.5 48.4 209.4 48.4 C 211.5 48.1 211.1 48.3 213.7 48.0 C 213.4 48.3 215.0 48.1 215.6 48.2 C 214.5 48.3 213.6 48.4 212.8 48.4 C 212.6 48.6 213.5 48.5 212.8 48.7 C 212.7 48.6 212.3 48.6 211.9 48.6 C 213.6 48.6 209.7 49.3 210.9 48.9 C 210.9 48.9 211.0 49.0 211.4 48.9 C 211.1 48.7 211.1 48.8 211.4 48.5 C 210.5 48.7 209.8 48.5 209.5 48.8 C 209.5 48.9 210.4 48.7 210.5 48.8 C 208.3 49.2 209.8 48.6 208.1 48.8 C 207.8 49.2 208.7 49.1 209.1 49.2 C 207.5 49.4 206.2 49.6 205.7 49.4 C 204.3 49.7 205.9 49.6 204.8 49.9 C 204.3 49.8 204.3 49.6 203.4 49.7 C 202.3 49.9 204.0 49.8 202.9 50.0 C 201.7 50.0 203.7 49.6 201.9 49.7 C 202.3 50.0 200.3 49.8 200.4 50.0 C 201.5 49.9 201.5 50.2 201.0 50.0 C 198.5 49.9 196.9 51.0 194.5 50.6 C 194.5 50.7 194.1 50.8 194.0 50.8 C 195.9 50.9 198.5 50.6 199.0 50.9 C 200.4 50.7 200.2 50.5 200.5 50.4 C 202.2 50.5 202.0 50.6 201.1 51.1 C 198.3 51.4 197.0 51.3 195.1 51.4 C 194.1 51.7 195.2 51.5 195.6 51.6 C 189.7 51.9 194.3 52.2 192.2 52.3 C 192.2 52.2 191.7 52.1 191.1 52.1 C 191.2 52.2 190.3 52.3 190.1 52.4 C 190.5 52.4 190.7 52.4 190.6 52.5 C 189.2 52.7 189.7 52.4 189.6 52.3 C 190.8 52.2 191.5 52.1 191.6 51.9 C 190.2 52.2 189.0 52.0 188.1 52.4 C 186.7 52.1 188.8 51.6 188.0 51.4 C 188.2 51.2 187.1 52.1 186.0 52.3 C 184.2 52.4 184.1 52.7 182.4 52.8 C 182.0 52.6 184.1 52.6 184.0 52.4 C 183.5 52.4 183.4 52.3 182.9 52.4 C 181.7 52.5 181.8 52.7 180.9 52.8 C 180.3 52.6 180.0 52.8 179.3 52.9 C 178.2 52.9 180.0 52.7 178.8 52.7 C 177.5 52.7 176.6 53.1 176.2 53.1 C 176.1 53.0 176.3 52.9 175.7 52.9 C 174.2 53.1 173.8 53.2 175.7 53.2 C 174.0 53.3 173.3 53.4 173.6 53.6 C 176.1 53.5 176.7 53.5 177.8 53.7 C 178.3 53.4 179.0 53.6 179.9 53.6 C 179.3 53.2 181.0 53.5 181.5 53.3 C 180.8 53.3 180.2 53.3 179.9 53.2 C 182.5 53.1 182.4 53.1 184.5 52.6 C 184.5 52.7 184.8 52.7 185.0 52.8 C 184.4 52.9 182.5 53.0 182.5 53.2 C 183.9 53.4 184.4 52.9 186.1 53.1 C 186.8 52.9 184.7 52.9 186.1 52.8 C 186.7 52.9 187.6 53.0 188.6 53.0 C 189.7 52.9 190.3 52.7 191.1 52.5 C 191.2 52.6 191.3 52.7 192.2 52.6 C 192.1 52.5 191.3 52.5 192.2 52.4 C 194.8 52.5 196.6 52.5 199.2 52.1 C 198.3 52.2 196.2 52.1 197.2 52.0 C 198.4 52.1 199.9 51.6 201.1 51.7 C 201.5 51.7 199.7 51.8 200.2 52.1 C 201.3 52.0 202.0 51.9 202.6 52.0 C 202.6 51.8 203.9 51.7 203.5 51.5 C 202.6 51.6 202.3 51.9 202.1 51.8 C 202.8 51.1 205.7 51.7 207.4 51.5 C 208.6 51.3 206.5 51.4 207.9 51.1 C 208.7 50.9 209.2 51.4 207.9 51.7 C 207.0 51.7 206.7 52.0 206.5 51.8 C 206.1 51.8 205.5 51.9 205.5 52.0 C 206.2 51.9 206.1 52.1 206.5 52.1 C 205.6 52.2 205.5 52.6 204.6 52.5 C 205.2 52.4 205.3 52.3 205.6 52.2 C 203.0 52.6 202.2 52.4 200.7 52.5 C 201.5 52.5 200.6 52.6 200.7 52.8 C 201.8 52.6 204.0 52.5 202.7 52.8 C 201.8 52.5 201.1 53.4 200.3 53.2 C 200.9 53.1 200.8 52.9 201.2 52.8 C 200.2 52.9 200.2 52.7 199.2 52.8 C 196.0 53.5 193.5 53.0 188.2 54.0 C 186.4 54.1 189.9 53.7 189.7 53.5 C 189.2 53.6 189.1 53.5 188.7 53.5 C 188.6 53.8 187.7 53.6 187.1 53.9 C 187.2 53.6 184.7 54.1 183.5 53.9 C 183.5 54.0 183.6 54.1 183.0 54.2 C 179.2 54.1 172.3 55.0 169.4 54.8 C 169.5 55.0 168.2 55.1 167.8 55.2 C 166.0 55.2 166.8 55.0 164.1 55.4 C 162.7 55.5 164.3 55.2 164.6 55.1 C 160.5 55.4 156.9 55.2 154.4 55.6 C 153.0 55.7 154.4 55.4 151.7 55.4 C 151.6 55.8 147.4 55.3 146.8 55.7 C 145.2 55.8 142.2 55.4 143.5 55.7 C 141.3 55.7 142.8 55.4 141.9 55.4 C 140.3 55.4 142.3 56.0 140.8 56.0 C 141.0 55.8 139.6 55.9 138.6 55.6 C 139.8 55.7 140.6 55.6 140.8 55.5 C 139.7 55.6 139.8 55.4 138.1 55.5 C 136.8 55.6 133.2 55.8 132.1 55.5 C 132.0 55.6 132.4 55.6 132.6 55.7 C 131.6 55.7 130.3 55.5 130.4 55.8 C 128.0 55.8 126.9 55.5 125.6 55.7 C 124.5 55.8 125.9 55.5 122.8 55.4 C 122.8 55.7 117.3 55.5 115.8 55.3 C 115.7 55.6 115.4 55.3 114.8 55.2 C 114.6 55.3 114.8 55.5 114.2 55.5 C 114.1 55.4 113.6 55.4 113.1 55.4 C 113.5 55.0 111.1 55.5 111.0 55.2 C 111.4 55.2 111.5 55.0 111.0 54.9 C 110.8 55.2 108.6 54.7 108.8 54.9 C 109.3 55.1 110.8 55.0 110.4 55.2 C 108.3 55.3 109.1 55.0 107.7 54.9 C 107.8 55.0 108.7 55.1 107.7 55.1 C 106.3 55.0 107.6 55.1 106.7 54.9 C 105.9 54.9 104.5 55.0 104.0 55.0 C 104.1 55.0 103.7 54.8 103.5 54.8 C 100.7 54.6 94.6 54.5 92.0 54.0 C 91.8 54.1 91.2 54.1 91.4 54.3 C 89.8 54.0 89.9 54.1 88.3 53.9 C 88.3 54.0 88.3 54.1 88.3 54.2 C 86.2 54.2 88.1 53.9 86.8 53.8 C 86.6 54.3 86.0 53.6 84.7 53.5 C 84.6 53.6 84.0 53.6 84.2 53.8 C 82.2 53.6 82.4 53.2 80.7 53.2 C 81.1 53.3 81.3 54.1 81.1 54.3 C 80.8 54.2 80.3 54.0 79.6 53.9 C 80.5 53.8 80.1 52.8 77.7 52.9 C 79.0 53.0 79.5 53.1 79.1 53.3 C 77.3 53.1 76.7 52.9 75.2 52.7 C 74.9 53.0 76.0 53.1 75.6 53.3 C 75.2 53.3 75.0 53.4 75.1 53.5 C 73.5 53.2 73.4 53.1 71.7 53.0 C 71.7 52.9 72.1 52.9 72.7 53.1 C 72.6 52.8 72.6 52.7 73.7 52.8 C 73.8 52.9 73.1 53.1 74.6 53.2 C 74.7 53.0 74.7 52.9 74.7 52.8 C 73.6 52.7 71.0 52.2 70.8 52.3 C 71.3 52.5 72.1 52.6 71.7 52.8 C 69.8 52.5 69.3 52.2 67.9 51.9 C 65.2 51.7 60.7 51.1 61.2 51.5 C 59.7 51.2 60.2 51.3 58.9 51.1 C 59.2 51.4 57.3 51.0 57.4 51.2 C 59.1 51.3 58.6 51.3 60.2 51.5 C 60.2 51.6 59.9 51.7 59.2 51.7 C 59.2 51.5 58.5 51.4 57.4 51.3 C 57.6 51.3 58.5 51.7 57.4 51.6 C 57.3 51.5 57.0 51.4 56.5 51.4 C 56.5 51.2 56.5 51.1 56.5 51.0 C 57.2 51.0 57.9 51.0 58.4 51.0 C 58.0 50.9 57.9 50.9 57.5 50.8 C 57.2 50.9 55.3 50.5 55.2 50.6 C 55.9 50.7 56.4 50.9 55.6 50.9 C 55.5 50.8 54.3 50.5 53.8 50.6 C 55.4 50.9 54.7 50.9 55.6 51.2 C 53.7 51.1 54.0 50.8 52.0 50.6 C 52.0 50.4 52.0 50.2 52.5 50.2 C 51.3 49.5 48.2 49.5 47.3 49.2 C 47.9 49.4 48.8 49.2 47.8 49.0 C 47.7 49.1 47.0 49.0 46.8 49.0 C 46.4 49.4 47.3 49.8 48.0 50.2 C 47.2 50.0 47.0 50.1 46.3 50.0 C 46.0 49.8 46.9 49.5 45.9 49.3 C 45.7 49.7 44.1 49.1 43.8 49.3 C 44.4 49.4 44.9 49.6 44.1 49.5 C 44.3 49.4 42.7 49.2 42.7 49.0 C 43.8 49.2 43.8 49.1 44.2 49.1 C 44.5 49.1 44.7 49.1 45.1 49.1 C 44.2 48.9 45.8 49.0 44.3 48.7 C 43.6 48.8 43.2 49.0 40.1 48.4 C 38.9 48.1 40.0 48.0 38.5 47.7 C 38.8 48.0 35.5 47.4 37.6 47.6 C 36.4 47.4 35.8 47.2 35.2 47.0 C 36.7 47.6 29.4 46.3 30.4 46.7 C 30.5 46.3 30.2 46.0 29.9 45.8 C 28.5 45.7 26.9 45.2 23.7 44.2 C 23.7 44.5 23.1 44.1 21.8 43.7 C 21.5 43.8 22.6 44.2 21.7 44.0 C 20.3 43.4 20.2 43.3 20.0 43.1 C 19.0 42.8 18.2 42.5 17.8 42.3 C 17.7 42.4 18.0 42.5 18.2 42.7 C 14.6 41.1 12.9 40.7 10.6 39.4 C 11.5 40.0 11.9 39.8 11.1 39.4 C 10.6 39.1 10.1 38.9 9.8 38.9 C 10.2 39.4 10.0 39.1 9.0 38.5 C 8.0 38.0 9.2 39.0 8.4 38.6 C 7.7 38.0 8.2 38.2 7.9 37.8 C 7.5 37.6 7.2 37.4 6.9 37.1 C 7.4 37.7 6.6 37.3 6.1 36.9 C 6.6 37.0 6.4 36.8 5.3 35.9 C 5.3 35.7 5.9 36.2 5.5 35.7 C 5.3 35.5 4.3 35.0 3.9 34.2 C 4.1 34.4 4.3 34.5 4.3 34.4 C 3.6 33.7 3.4 32.9 3.2 32.1 C 3.3 33.0 3.0 32.7 3.0 33.1 C 2.8 32.2 2.2 31.3 2.3 30.6 C 2.5 31.8 2.7 30.5 2.6 29.8 C 2.4 29.7 2.7 30.9 2.3 30.6 C 2.0 30.2 2.3 29.2 2.0 28.8 C 1.9 28.9 2.1 29.4 2.0 29.5 C 1.9 28.8 1.8 29.8 1.8 29.2 C 2.0 28.8 1.7 28.4 1.7 28.0 C 1.9 27.5 2.4 26.7 2.4 26.2 C 2.3 26.2 2.1 26.8 2.0 26.9 C 2.4 24.9 3.1 24.5 4.1 22.9 C 4.3 22.8 4.6 22.6 5.0 22.3 C 4.9 22.2 5.1 21.9 5.4 21.6 C 6.1 21.1 6.8 20.7 7.8 20.1 C 7.7 20.4 7.3 20.7 8.6 19.9 C 8.6 19.8 8.1 20.1 8.5 19.8 C 8.6 19.8 8.9 19.6 8.9 19.5 C 8.9 19.5 8.9 19.4 8.8 19.4 C 8.4 19.6 8.1 19.9 7.8 20.1 C 7.7 19.9 7.6 19.9 7.3 20.1 C 8.7 18.9 8.9 19.4 9.9 18.6 C 10.3 18.8 10.7 18.7 9.9 19.4 C 10.8 18.8 11.5 18.3 11.7 18.0 C 10.4 18.7 10.7 18.2 10.3 18.3 C 11.1 17.9 11.0 17.8 11.4 17.5 C 12.5 17.2 10.5 18.4 12.5 17.5 C 10.9 17.9 13.7 16.7 14.8 16.3 C 14.6 16.3 14.2 16.4 14.7 16.1 C 17.6 14.7 17.7 15.6 19.6 14.5 C 19.5 14.7 20.5 14.4 20.9 14.3 C 19.2 15.0 18.8 15.2 18.1 15.5 C 18.2 15.5 18.7 15.4 19.2 15.2 C 19.2 15.1 19.6 14.9 20.4 14.7 C 20.9 14.4 20.5 14.1 21.9 13.5 C 22.1 13.6 21.9 13.7 22.7 13.5 C 23.3 13.1 22.1 14.1 25.3 13.1 C 24.7 13.1 24.4 13.1 24.6 12.9 C 26.1 12.3 25.8 12.5 27.9 11.9 C 28.9 12.1 26.6 12.7 26.1 13.1 C 27.5 12.7 28.6 12.1 30.3 11.9 C 29.0 12.0 30.2 11.5 31.6 11.1 C 32.9 10.9 31.6 11.5 33.3 11.2 C 34.5 10.8 35.2 10.4 33.9 10.6 C 36.9 10.0 36.1 9.9 38.7 9.4 C 38.8 9.6 38.1 9.7 37.1 9.8 C 37.3 9.9 37.0 10.1 38.0 9.9 C 38.8 9.6 40.2 9.3 41.6 9.0 C 43.1 8.6 43.8 8.5 44.3 8.3 C 46.3 8.4 48.4 7.5 50.4 7.4 C 49.7 7.7 53.0 7.0 54.0 7.1 C 54.6 7.0 56.5 6.2 55.8 6.5 C 56.0 6.8 57.2 6.5 58.2 6.5 C 58.2 6.4 58.1 6.3 58.1 6.2 C 60.2 5.9 60.7 6.1 61.4 6.2 C 63.9 5.7 66.8 5.8 70.0 5.2 C 70.8 5.4 71.5 5.2 73.5 5.2 C 73.4 5.0 74.9 4.8 76.4 4.7 C 76.0 4.5 77.4 4.4 77.4 4.3 C 76.1 4.4 76.5 4.0 75.8 4.0 C 77.6 4.1 78.4 3.5 79.8 3.7 C 78.1 3.9 77.6 4.3 77.4 4.7 C 79.5 4.4 80.5 4.4 81.0 4.6 C 81.1 4.4 80.8 4.3 80.4 4.2 C 81.1 4.2 81.8 4.1 82.4 4.1 C 82.6 4.2 81.7 4.3 82.4 4.3 C 82.9 4.2 83.4 4.1 83.9 4.0 C 84.6 4.2 83.2 4.2 83.0 4.4 C 85.7 4.2 84.5 3.8 86.0 3.6 C 86.4 3.8 86.3 4.0 87.6 4.0 C 88.0 3.8 88.2 3.6 89.6 3.5 C 90.5 3.4 89.6 3.8 90.6 3.8 C 90.8 3.7 91.2 3.7 91.7 3.7 C 91.6 3.6 92.1 3.5 92.7 3.4 C 92.8 3.5 93.8 3.4 94.3 3.3 C 94.4 3.4 96.0 3.6 96.4 3.4 C 96.4 3.3 95.4 3.4 95.3 3.3 C 96.5 3.3 97.3 3.2 97.9 3.1 C 98.3 3.6 100.2 3.1 102.7 3.3 C 104.2 3.0 102.4 2.9 104.3 2.6 C 105.4 2.7 104.0 2.9 104.3 3.1 C 104.6 3.1 106.4 3.2 106.4 3.0 C 106.4 2.9 105.5 3.0 105.4 2.9 C 106.8 2.6 106.7 2.9 107.5 3.0 C 107.4 2.8 108.3 2.7 108.5 2.5 C 112.4 2.2 112.4 2.7 113.9 2.8 C 113.9 2.7 114.9 2.7 115.0 2.6 C 113.9 2.7 112.4 2.6 113.9 2.5 C 113.7 2.6 115.9 2.4 116.1 2.3 C 115.8 2.2 114.4 2.3 115.0 2.1 C 117.0 1.9 116.2 2.4 117.7 2.1 C 117.9 2.3 117.0 2.3 116.6 2.4 C 117.2 2.4 118.1 2.4 118.2 2.4 C 117.5 2.5 117.5 2.7 117.2 2.9 C 118.2 2.6 120.1 2.8 118.8 2.5 C 120.9 2.5 123.0 2.3 121.5 2.1 C 123.3 2.0 122.3 2.4 123.7 2.2 C 123.5 2.5 123.1 2.6 124.2 2.8 C 124.4 2.6 125.4 2.6 125.3 2.4 C 127.9 2.3 128.6 2.6 129.7 2.8 C 128.7 2.4 130.0 2.7 131.3 2.5 C 132.1 2.6 131.3 2.9 133.4 2.8 C 131.2 2.5 136.1 2.7 135.1 2.3 C 137.8 2.5 137.7 2.5 140.6 2.6 C 140.3 2.7 139.6 2.8 138.4 2.9 C 139.2 2.6 136.0 2.6 136.2 2.8 C 136.2 2.8 136.2 2.9 136.2 2.9 C 138.3 2.9 139.7 3.0 140.6 3.1 C 141.0 2.9 141.9 2.8 141.6 2.6 C 143.6 2.9 145.7 2.5 146.5 2.8 C 145.9 2.8 145.2 2.8 145.4 2.9 C 146.2 2.9 147.2 2.8 147.1 2.6 C 145.5 2.5 145.2 2.5 144.4 2.7 C 145.1 2.5 142.8 2.3 144.4 2.3 C 144.3 2.6 147.6 2.1 146.6 2.4 C 144.8 2.5 148.5 2.6 148.7 2.8 C 148.7 2.8 148.7 2.8 148.7 2.8 Z M 199.7 52.7 C 201.2 52.5 199.3 52.4 198.2 52.6 C 198.6 52.6 198.7 52.7 198.7 52.8 C 199.1 52.7 199.6 52.6 199.7 52.7 C 199.7 52.7 199.7 52.7 199.7 52.7 Z M 183.3 50.6 C 182.8 50.9 185.3 50.5 186.4 50.5 C 186.1 50.5 185.7 50.4 186.4 50.3 C 185.3 50.2 184.9 50.7 183.3 50.6 C 183.3 50.6 183.3 50.6 183.3 50.6 Z M 124.0 52.9 C 124.4 52.8 125.5 52.8 125.6 52.9 C 126.2 52.9 126.0 52.8 126.1 52.7 C 127.4 52.7 125.8 53.0 127.8 52.9 C 128.5 52.5 124.4 52.3 124.0 52.9 C 124.0 52.9 124.0 52.9 124.0 52.9 Z M 128.0 6.3 C 128.8 6.5 127.0 6.7 127.5 6.9 C 130.5 6.7 128.2 6.4 132.4 6.5 C 132.1 6.4 131.8 6.3 131.8 6.2 C 129.9 6.3 129.7 6.5 130.2 6.1 C 129.3 6.1 129.1 6.6 128.0 6.3 C 128.0 6.3 128.0 6.3 128.0 6.3 Z M 166.8 8.0 C 166.5 7.9 166.2 7.8 166.2 7.7 C 165.0 7.8 165.2 7.8 163.6 7.7 C 163.8 8.0 165.4 8.1 166.8 8.0 C 166.8 8.0 166.8 8.0 166.8 8.0 Z M 262.5 25.5 C 262.7 25.6 262.8 25.8 263.0 25.9 C 263.0 25.7 263.6 25.7 262.8 25.2 C 262.7 25.2 262.8 25.3 262.9 25.4 C 262.8 25.4 262.4 25.1 262.3 25.3 C 262.6 25.4 262.6 25.5 262.5 25.5 C 262.5 25.5 262.5 25.5 262.5 25.5 Z M 253.3 39.2 C 255.3 38.2 250.0 39.5 253.3 39.2 C 253.3 39.2 253.3 39.2 253.3 39.2 C 253.3 39.2 253.3 39.2 253.3 39.2 Z M 258.4 40.2 C 258.5 40.3 258.9 40.0 258.9 40.0 C 260.4 39.4 259.0 40.2 259.9 39.9 C 261.0 39.2 259.2 39.8 260.6 39.0 C 260.2 39.0 259.3 39.8 258.4 40.2 C 258.4 40.2 258.4 40.2 258.4 40.2 Z M 17.4 15.4 C 16.0 16.0 15.7 16.4 15.6 16.8 C 16.5 16.4 17.3 16.1 17.7 16.1 C 19.5 15.3 16.4 16.4 16.1 16.5 C 16.2 16.2 17.5 15.7 17.4 15.4 C 17.4 15.4 17.4 15.4 17.4 15.4 Z M 13.0 17.3 C 12.5 17.7 11.8 18.1 11.8 18.3 C 12.6 17.9 12.7 18.0 12.8 18.1 C 13.4 17.6 12.5 17.9 13.0 17.3 C 13.0 17.3 13.0 17.3 13.0 17.3 Z M 22.1 14.2 C 21.4 14.4 21.7 14.5 21.6 14.7 C 22.8 14.3 23.0 14.3 24.2 14.0 C 24.1 13.9 24.1 13.8 24.1 13.7 C 23.1 14.0 23.0 14.1 22.2 14.4 C 22.2 14.3 22.2 14.2 22.1 14.2 C 22.1 14.2 22.1 14.2 22.1 14.2 Z M 9.4 19.6 C 7.5 20.7 7.1 21.6 6.4 22.7 C 7.3 21.8 8.2 20.6 9.2 20.1 C 10.4 19.3 8.8 20.2 8.7 20.1 C 8.7 20.0 9.2 19.8 9.4 19.6 C 9.4 19.6 9.4 19.6 9.4 19.6 Z M 3.7 33.0 C 3.8 33.4 4.5 33.8 5.1 34.6 C 5.0 34.4 5.0 34.2 5.1 34.2 C 4.2 33.0 4.3 34.0 3.7 33.0 C 3.7 33.0 3.7 33.0 3.7 33.0 Z M 11.3 39.0 C 12.3 39.6 10.8 38.6 11.4 38.7 C 10.2 38.1 9.1 37.4 9.0 37.6 C 10.2 38.2 10.5 38.3 11.3 39.0 C 11.3 39.0 11.3 39.0 11.3 39.0 Z M 20.1 42.7 C 21.9 43.1 19.5 42.2 20.3 42.2 C 19.7 41.9 19.8 42.1 19.7 42.2 C 19.2 42.0 18.8 41.8 18.0 41.5 C 18.5 41.9 20.5 42.5 20.1 42.7 C 20.1 42.7 20.1 42.7 20.1 42.7 Z M 59.6 7.1 C 58.8 7.3 59.1 7.5 57.4 7.6 C 59.9 7.3 58.6 8.2 62.0 7.7 C 61.5 7.6 61.8 7.5 62.0 7.6 C 63.3 7.2 60.8 7.6 62.0 7.2 C 61.0 7.3 61.6 7.5 60.7 7.7 C 59.6 7.6 59.0 7.5 59.6 7.1 C 59.6 7.1 59.6 7.1 59.6 7.1 Z M 62.1 7.9 C 63.0 7.9 63.0 7.4 63.5 7.6 C 63.9 7.5 63.8 7.4 63.9 7.4 C 63.5 7.4 63.5 7.4 63.4 7.3 C 62.6 7.5 61.8 7.7 62.1 7.9 C 62.1 7.9 62.1 7.9 62.1 7.9 Z M 53.4 9.1 C 54.9 8.7 55.4 8.9 56.1 8.5 C 56.7 8.8 57.1 8.2 57.9 8.4 C 59.4 8.2 58.3 8.2 57.9 8.1 C 59.3 7.8 58.3 8.3 59.7 8.0 C 60.0 7.7 58.1 8.1 58.3 7.7 C 57.2 7.9 57.2 8.1 56.5 8.2 C 56.0 8.3 56.1 8.1 56.0 8.1 C 54.7 8.3 54.8 8.1 53.8 8.3 C 53.5 8.5 54.0 8.6 55.2 8.3 C 53.9 8.6 53.4 8.9 52.0 9.0 C 53.0 8.6 48.6 9.2 49.0 9.5 C 50.2 9.4 49.8 9.2 50.3 9.1 C 51.8 9.1 52.8 8.9 53.4 9.1 C 53.4 9.1 53.4 9.1 53.4 9.1 Z M 23.0 14.7 C 22.5 14.9 22.0 15.0 21.2 15.2 C 21.1 15.0 22.1 14.8 21.1 14.9 C 19.8 15.3 19.6 15.5 18.8 15.8 C 19.3 15.7 21.9 15.1 20.6 15.7 C 21.1 15.6 21.9 15.4 23.1 15.1 C 21.6 15.1 25.0 14.5 26.3 14.1 C 26.1 13.8 28.7 13.5 29.7 13.1 C 28.8 13.1 26.1 14.0 24.9 14.3 C 25.5 14.1 21.7 14.8 23.0 14.7 C 23.0 14.7 23.0 14.7 23.0 14.7 Z M 65.8 7.3 C 66.1 7.2 67.2 7.0 66.3 7.1 C 66.7 6.9 67.6 7.0 67.2 6.6 C 67.7 6.6 68.2 6.5 68.7 6.5 C 68.5 6.6 67.2 6.7 67.7 6.9 C 68.7 6.7 68.3 6.9 69.6 6.7 C 69.0 7.0 69.7 6.9 69.2 7.3 C 69.6 7.1 70.8 7.0 70.7 6.8 C 72.5 6.7 70.2 7.2 72.6 7.0 C 72.6 7.2 70.8 7.3 70.2 7.3 C 69.9 7.6 73.3 7.1 75.1 7.0 C 73.4 6.9 74.7 6.6 75.5 6.3 C 76.1 6.3 75.5 6.4 76.6 6.5 C 77.4 6.4 77.8 6.2 78.1 6.4 C 78.7 6.3 78.4 6.1 78.5 6.0 C 79.7 5.9 78.8 6.3 80.5 6.1 C 79.2 5.9 80.7 5.7 83.0 5.6 C 82.9 5.5 82.1 5.6 82.0 5.5 C 82.3 5.3 83.7 5.5 84.1 5.5 C 84.9 5.4 84.3 5.3 83.6 5.4 C 84.0 5.3 84.5 5.2 85.1 5.1 C 82.5 5.2 78.5 5.6 74.0 5.7 C 74.9 5.8 73.9 6.0 72.5 6.0 C 72.3 5.9 72.9 5.8 73.5 5.7 C 71.9 5.6 72.1 6.2 69.6 6.3 C 68.3 6.4 71.1 6.0 69.6 6.0 C 68.7 6.2 68.1 6.4 67.7 6.2 C 66.1 6.5 65.8 6.8 63.4 7.1 C 64.8 7.1 65.4 7.5 66.8 7.3 C 66.8 7.2 66.2 7.3 65.8 7.3 C 65.8 7.3 65.8 7.3 65.8 7.3 Z M 12.9 18.2 C 12.1 18.6 11.8 18.9 11.6 18.8 C 10.4 19.6 11.9 19.0 12.1 18.9 C 12.7 18.6 12.8 18.4 12.9 18.2 C 12.9 18.2 12.9 18.2 12.9 18.2 Z M 131.0 55.1 C 133.0 55.1 132.6 54.8 134.3 54.8 C 132.9 54.8 132.6 54.5 130.5 54.6 C 130.3 54.8 130.3 55.0 131.0 55.1 C 131.0 55.1 131.0 55.1 131.0 55.1 Z M 17.8 16.3 C 19.0 15.6 16.4 17.2 16.3 17.0 C 14.9 17.7 17.6 16.6 16.4 17.4 C 17.6 16.7 18.4 16.6 20.1 15.9 C 20.0 15.8 18.6 16.3 17.3 16.7 C 17.1 16.7 17.8 16.4 17.8 16.3 C 17.8 16.3 17.8 16.3 17.8 16.3 Z M 109.9 53.9 C 108.5 54.1 111.2 54.4 112.0 54.6 C 112.1 54.3 111.7 54.3 109.9 53.9 C 109.9 53.9 109.9 53.9 109.9 53.9 Z M 145.1 54.6 C 145.9 54.3 142.7 54.6 143.5 54.3 C 142.5 54.3 142.4 54.4 142.4 54.5 C 141.9 54.4 140.4 54.5 140.8 54.3 C 140.5 54.1 143.2 54.3 142.4 54.0 C 143.3 54.0 143.3 54.1 144.0 54.1 C 142.4 54.1 143.2 54.3 145.1 54.4 C 145.1 54.2 144.2 54.2 145.1 54.1 C 145.2 54.2 146.3 54.3 146.2 54.7 C 147.9 54.7 146.9 54.3 148.9 54.2 C 148.7 54.1 147.5 54.1 146.7 54.0 C 146.9 53.8 148.8 54.2 148.4 53.9 C 148.8 54.1 149.9 54.1 150.0 54.4 C 148.5 54.5 147.5 54.7 146.2 54.9 C 147.4 55.0 149.1 54.4 151.1 54.6 C 150.9 54.4 152.1 54.4 151.6 54.2 C 153.2 54.2 152.5 54.5 152.2 54.6 C 152.6 54.7 155.7 54.5 155.4 54.3 C 155.7 54.5 159.3 54.4 159.2 54.1 C 160.3 54.2 161.9 53.8 162.4 54.1 C 163.0 54.0 164.3 54.0 165.6 53.9 C 166.0 53.6 163.7 53.9 163.5 53.7 C 163.1 53.5 166.0 53.6 165.6 53.4 C 165.6 53.4 165.6 53.3 165.6 53.3 C 164.5 53.4 163.4 53.5 162.4 53.6 C 161.6 53.6 162.6 53.5 162.4 53.4 C 161.7 53.6 158.2 54.0 158.1 53.6 C 155.8 53.7 154.2 53.7 153.2 53.9 C 151.8 53.9 154.0 53.8 153.2 53.6 C 149.2 54.0 144.2 53.7 140.8 54.1 C 140.1 54.1 140.3 53.9 140.2 53.8 C 135.5 54.0 139.5 54.3 135.9 54.2 C 135.9 54.0 137.6 54.0 137.5 53.8 C 136.2 53.8 135.9 53.9 134.2 53.9 C 134.2 54.0 134.2 54.1 134.2 54.2 C 132.8 54.2 133.4 53.9 132.6 53.8 C 130.9 53.9 131.3 54.0 130.5 53.7 C 128.8 53.8 127.2 53.9 125.5 53.7 C 124.4 53.9 126.5 54.3 128.3 54.3 C 128.2 54.4 127.7 54.4 127.7 54.5 C 125.7 54.2 125.4 53.8 122.3 53.7 C 124.6 54.0 121.1 53.7 120.7 53.5 C 119.4 53.5 120.4 53.9 121.2 53.9 C 121.1 54.0 120.3 53.9 120.2 53.8 C 120.0 54.1 122.9 54.4 126.1 54.3 C 124.6 54.7 128.3 54.3 126.6 54.8 C 129.2 54.7 127.0 54.4 129.9 54.5 C 129.6 54.4 129.1 54.3 128.8 54.2 C 131.0 54.1 130.3 54.5 132.6 54.4 C 133.0 54.2 131.5 54.3 131.5 54.1 C 134.0 54.3 134.8 54.4 136.4 54.7 C 136.8 54.5 136.3 54.3 139.2 54.4 C 139.2 54.5 139.2 54.5 139.2 54.6 C 137.8 54.5 137.5 55.0 140.8 55.0 C 141.0 54.8 140.0 54.8 139.2 54.8 C 139.5 54.7 140.6 54.6 141.9 54.6 C 142.5 54.6 143.2 54.7 142.4 54.7 C 142.9 54.9 143.4 54.5 145.1 54.6 C 145.1 54.6 145.1 54.6 145.1 54.6 Z M 3.5 31.3 C 3.6 31.5 3.8 31.7 4.0 32.1 C 4.3 32.2 3.8 31.5 4.0 31.4 C 3.7 30.8 3.7 31.4 3.5 31.3 C 3.5 31.3 3.5 31.3 3.5 31.3 Z M 5.9 23.2 C 5.7 23.1 5.5 23.7 5.0 24.2 C 5.0 24.5 5.5 23.8 5.7 23.9 C 6.3 23.3 5.2 23.8 5.9 23.2 C 5.9 23.2 5.9 23.2 5.9 23.2 Z M 3.7 26.4 C 3.4 26.6 3.7 26.7 3.9 26.1 C 4.0 26.2 4.0 26.4 4.0 26.8 C 4.4 26.5 4.1 26.0 4.5 25.4 C 4.3 25.6 4.0 25.9 3.7 26.4 C 3.7 26.4 3.7 26.4 3.7 26.4 Z M 3.3 27.6 C 3.4 28.1 3.1 28.3 3.3 29.1 C 3.5 28.9 3.6 27.3 3.6 27.0 C 3.5 26.7 3.0 28.5 3.3 27.6 C 3.3 27.6 3.3 27.6 3.3 27.6 Z M 88.9 52.5 C 89.4 52.5 89.3 52.4 89.4 52.4 C 91.0 52.9 93.3 52.9 91.5 53.2 C 93.1 53.0 94.7 53.5 96.1 53.6 C 97.3 53.7 96.7 53.4 97.7 53.5 C 99.3 53.6 96.9 53.5 97.2 53.7 C 97.5 53.9 98.0 53.5 99.8 53.7 C 99.3 53.3 101.4 53.8 100.9 53.4 C 101.9 53.6 102.2 53.5 103.5 53.5 C 103.4 53.3 102.1 53.3 102.0 53.1 C 101.3 52.8 101.2 53.3 102.5 53.3 C 101.7 53.5 99.9 53.1 99.3 53.2 C 98.7 52.9 101.0 53.3 100.4 53.0 C 99.9 53.0 99.4 53.0 99.3 53.1 C 98.6 53.0 98.1 52.9 97.8 52.7 C 98.2 52.8 98.3 52.8 98.3 52.9 C 99.2 52.9 97.3 52.4 99.4 52.5 C 99.0 52.4 98.1 52.4 98.3 52.2 C 97.7 52.0 98.3 52.9 96.2 52.5 C 94.8 52.7 99.4 52.9 98.2 53.3 C 95.3 53.1 97.0 52.8 94.6 52.6 C 94.6 52.8 94.7 52.9 94.1 52.8 C 94.2 52.9 95.0 53.0 95.6 53.0 C 95.5 53.1 94.7 53.0 94.1 53.0 C 94.2 53.1 94.6 53.1 94.6 53.2 C 92.6 53.0 92.9 52.5 94.7 52.5 C 94.6 52.3 92.2 52.1 91.5 52.2 C 92.2 52.4 91.5 52.4 92.0 52.6 C 92.5 52.7 92.4 52.6 92.6 52.5 C 93.5 52.6 92.6 52.7 92.6 52.7 C 91.5 52.6 91.6 52.4 90.5 52.5 C 90.7 52.5 91.0 52.4 91.0 52.3 C 90.5 52.3 90.0 52.3 89.5 52.2 C 89.5 52.4 88.8 52.3 88.9 52.5 C 88.9 52.5 88.9 52.5 88.9 52.5 Z M 116.4 54.5 C 118.1 54.6 117.2 54.3 116.4 54.3 C 116.7 54.3 117.4 54.2 118.0 54.2 C 117.5 54.1 117.0 54.1 115.3 54.0 C 116.8 53.8 115.3 53.3 112.6 53.2 C 111.8 53.7 114.1 53.8 113.2 54.1 C 115.1 54.0 116.1 54.2 116.4 54.5 C 116.4 54.5 116.4 54.5 116.4 54.5 Z M 12.2 19.0 C 11.4 19.4 10.6 19.8 9.9 20.3 C 10.0 20.4 12.5 19.2 12.2 19.0 C 12.2 19.0 12.2 19.0 12.2 19.0 Z M 87.1 5.2 C 87.5 5.2 87.6 5.2 87.6 5.3 C 89.1 5.1 86.9 5.1 87.6 4.9 C 87.1 4.9 86.6 4.9 86.1 5.0 C 86.0 5.1 88.2 5.1 86.6 5.3 C 86.7 5.3 87.1 5.3 87.1 5.2 C 87.1 5.2 87.1 5.2 87.1 5.2 Z M 3.6 30.6 C 3.8 31.1 3.9 30.7 4.5 31.9 C 4.4 31.4 4.2 31.2 4.0 30.5 C 3.9 30.5 3.7 30.6 3.6 30.6 C 3.6 30.6 3.6 30.6 3.6 30.6 Z M 81.3 52.3 C 82.5 52.7 82.9 52.1 85.3 52.5 C 84.1 52.1 82.7 52.3 81.3 52.3 C 81.3 52.3 81.3 52.3 81.3 52.3 Z M 169.9 53.3 C 169.1 53.3 170.1 53.2 168.8 53.2 C 168.1 53.3 167.7 53.4 166.7 53.5 C 168.2 53.7 170.8 53.3 172.0 53.6 C 173.2 53.5 173.1 53.3 173.5 53.1 C 172.9 53.1 172.6 53.1 172.5 53.1 C 171.7 53.4 170.8 52.9 169.9 53.3 C 169.9 53.3 169.9 53.3 169.9 53.3 Z M 109.4 53.8 C 108.4 53.7 110.1 53.6 110.5 53.5 C 111.2 53.5 110.9 53.7 111.0 53.8 C 112.0 53.8 112.2 53.7 112.1 53.5 C 110.3 53.4 108.1 53.3 109.4 53.0 C 107.7 52.9 108.6 53.3 107.8 53.3 C 106.9 53.1 107.8 53.1 107.8 52.8 C 107.4 52.9 106.1 53.1 106.2 52.8 C 103.7 53.0 104.8 53.4 106.7 53.9 C 108.4 53.7 106.4 53.5 109.4 53.8 C 109.4 53.8 109.4 53.8 109.4 53.8 Z M 47.1 47.8 C 47.2 47.9 47.9 48.0 47.9 48.1 C 48.9 48.0 49.7 47.9 50.6 47.8 C 50.5 47.5 49.2 47.5 49.7 47.8 C 49.4 47.6 48.5 47.3 48.1 47.1 C 47.2 46.9 46.8 47.4 46.8 47.0 C 45.9 47.0 46.4 47.1 45.1 46.8 C 47.1 47.4 44.3 46.8 44.1 47.0 C 45.4 47.2 46.4 47.4 46.3 47.1 C 47.2 47.4 48.2 47.6 48.4 47.9 C 48.3 48.0 47.6 47.8 47.1 47.8 C 47.1 47.8 47.1 47.8 47.1 47.8 Z M 52.4 47.9 C 52.0 47.9 51.7 47.9 51.1 47.8 C 51.4 47.9 51.5 48.0 51.5 48.1 C 52.6 48.3 52.9 48.2 53.2 48.5 C 54.3 48.7 53.0 48.1 54.6 48.4 C 54.5 48.3 53.7 48.3 53.7 48.1 C 53.6 48.3 52.9 48.2 52.4 47.9 C 52.4 47.9 52.4 47.9 52.4 47.9 Z M 66.6 50.2 C 67.8 50.4 65.9 50.0 66.6 49.9 C 66.3 49.9 63.9 49.6 64.3 49.4 C 63.6 49.0 61.2 49.4 61.5 49.0 C 60.9 48.9 61.1 49.1 61.0 49.2 C 62.6 49.3 62.6 49.5 61.4 49.4 C 61.6 49.5 62.6 49.6 63.3 49.7 C 63.4 49.5 62.7 49.4 62.9 49.3 C 64.3 49.6 65.3 49.9 66.6 50.2 C 66.6 50.2 66.6 50.2 66.6 50.2 Z M 145.4 4.0 C 144.1 4.0 143.3 4.0 142.7 4.1 C 143.0 4.2 143.7 4.1 144.3 4.1 C 144.5 4.2 143.9 4.2 143.2 4.2 C 143.8 4.4 146.1 4.3 145.4 4.0 C 145.4 4.0 145.4 4.0 145.4 4.0 Z M 134.5 4.0 C 133.3 3.9 132.5 4.0 132.3 4.1 C 132.8 4.3 132.7 4.0 133.5 4.0 C 133.9 4.1 134.2 4.2 134.5 4.3 C 135.0 4.3 134.9 4.2 135.1 4.1 C 135.5 4.1 135.6 4.2 135.6 4.2 C 137.1 4.0 133.9 4.2 134.5 4.0 C 134.5 4.0 134.5 4.0 134.5 4.0 Z M 58.7 49.1 C 58.3 48.9 58.0 48.7 56.9 48.6 C 57.1 48.8 56.2 48.7 55.5 48.6 C 56.5 48.9 57.0 48.9 58.7 49.1 C 58.7 49.1 58.7 49.1 58.7 49.1 Z M 69.2 7.5 C 67.8 7.4 67.9 7.8 65.9 7.8 C 65.9 7.9 65.9 8.0 65.9 8.1 C 67.1 7.7 67.7 7.8 69.2 7.5 C 69.2 7.5 69.2 7.5 69.2 7.5 Z M 268.0 31.7 C 267.9 31.5 267.6 32.3 267.4 32.3 C 267.6 32.6 267.0 32.6 265.7 33.9 C 265.6 33.9 265.7 33.8 265.8 33.6 C 264.7 34.6 266.3 33.5 266.6 33.5 C 267.4 32.6 267.6 32.6 268.0 31.7 C 268.0 31.7 268.0 31.7 268.0 31.7 Z M 153.8 53.2 C 153.7 53.3 154.0 53.3 154.3 53.3 C 154.7 53.2 155.0 53.2 155.4 53.2 C 155.2 52.9 153.5 52.8 154.8 52.4 C 154.3 52.4 154.3 52.5 154.3 52.5 C 151.7 53.3 149.6 52.2 146.2 52.7 C 145.6 52.7 145.8 52.8 145.7 52.9 C 146.1 52.8 146.1 52.9 146.2 52.9 C 146.6 52.6 149.7 52.9 148.3 53.1 C 148.5 53.2 148.9 53.1 148.9 53.1 C 149.2 53.0 149.6 53.0 150.0 53.0 C 149.8 52.9 149.0 52.9 148.9 52.8 C 150.6 52.9 152.7 52.9 151.6 53.2 C 152.7 53.2 153.0 53.0 153.8 53.0 C 154.5 53.0 154.5 53.2 153.8 53.2 C 153.8 53.2 153.8 53.2 153.8 53.2 Z M 167.7 52.6 C 169.3 52.6 168.7 52.4 170.3 52.4 C 169.3 52.2 168.0 52.6 166.6 52.5 C 166.8 52.5 167.6 52.5 167.7 52.6 C 167.7 52.6 167.7 52.6 167.7 52.6 Z M 136.4 53.0 C 136.8 52.7 135.3 52.7 133.7 52.7 C 133.4 53.0 134.8 53.0 136.4 53.0 C 136.4 53.0 136.4 53.0 136.4 53.0 Z M 143.5 53.0 C 145.1 52.9 141.5 52.9 142.4 52.7 C 141.6 52.7 140.8 52.7 140.8 52.6 C 140.2 52.6 140.2 52.8 139.1 52.8 C 139.2 52.9 140.9 52.8 140.8 53.0 C 142.0 52.8 142.2 52.8 143.5 53.0 C 143.5 53.0 143.5 53.0 143.5 53.0 Z M 144.5 53.0 C 145.6 52.9 144.3 52.5 143.0 52.5 C 143.4 52.7 143.7 52.8 144.5 53.0 C 144.5 53.0 144.5 53.0 144.5 53.0 Z M 19.8 40.0 C 20.6 40.3 20.1 39.9 21.0 40.2 C 21.0 40.1 17.7 39.0 20.5 39.8 C 19.6 39.2 18.9 39.4 17.8 39.0 C 18.1 39.2 18.4 39.3 17.7 39.1 C 17.3 39.2 20.3 40.0 19.8 40.0 C 19.8 40.0 19.8 40.0 19.8 40.0 Z M 23.2 41.2 C 24.0 41.4 23.6 41.2 23.3 41.1 C 23.4 41.0 24.4 41.4 25.2 41.6 C 25.2 41.7 23.9 40.8 24.1 40.7 C 20.9 39.9 23.2 40.9 23.2 41.2 C 23.2 41.2 23.2 41.2 23.2 41.2 Z M 26.4 41.9 C 28.5 42.7 31.8 43.5 33.5 43.6 C 31.8 42.9 27.5 41.9 26.4 41.9 C 26.4 41.9 26.4 41.9 26.4 41.9 Z M 10.4 35.5 C 12.1 36.9 17.1 38.9 13.0 36.6 C 13.1 36.8 10.5 35.5 9.6 34.7 C 9.5 34.8 8.3 34.2 8.4 34.0 C 7.6 33.7 10.7 35.9 10.4 35.5 C 10.4 35.5 10.4 35.5 10.4 35.5 Z M 36.7 43.8 C 35.4 43.7 37.0 44.5 35.0 43.9 C 33.9 43.7 35.3 44.1 35.0 44.1 C 37.4 44.6 42.8 45.4 43.3 45.8 C 44.6 45.9 44.4 45.7 45.6 46.0 C 45.7 45.9 45.4 45.9 42.8 45.5 C 40.2 45.0 37.6 44.4 36.7 44.0 C 36.9 43.9 40.0 44.5 36.7 43.8 C 36.7 43.8 36.7 43.8 36.7 43.8 Z M 69.4 8.9 C 69.5 8.7 67.5 9.0 67.9 8.7 C 66.9 9.2 65.8 9.1 64.7 9.4 C 64.3 9.4 64.4 9.0 62.7 9.2 C 62.7 9.4 63.5 9.3 62.8 9.5 C 61.3 9.7 61.6 9.4 60.0 9.7 C 60.3 10.1 56.4 10.3 56.8 10.6 C 57.7 10.5 57.6 10.3 59.1 10.1 C 59.6 10.1 59.4 10.3 60.0 10.2 C 59.6 10.5 58.8 10.2 58.2 10.5 C 58.4 10.6 59.5 10.5 59.6 10.6 C 60.3 10.5 59.4 10.6 59.6 10.4 C 61.4 10.1 59.5 11.0 61.5 10.6 C 61.1 10.5 61.1 10.4 61.4 10.2 C 62.2 10.2 64.6 9.7 63.3 10.2 C 63.5 10.3 64.9 9.9 64.7 9.8 C 65.5 9.6 65.6 9.7 65.6 9.8 C 67.7 9.5 67.9 9.2 67.5 9.0 C 67.9 8.8 68.2 9.1 69.4 8.9 C 69.4 8.9 69.4 8.9 69.4 8.9 Z M 5.4 28.8 C 5.2 28.3 5.4 29.4 5.5 29.9 C 5.4 29.3 5.7 29.4 5.8 28.8 C 5.7 29.0 5.6 29.0 5.6 28.6 C 5.5 28.5 5.4 29.4 5.4 28.8 C 5.4 28.8 5.4 28.8 5.4 28.8 Z M 48.2 46.4 C 48.6 46.7 50.9 46.9 52.1 47.1 C 51.9 46.7 48.9 46.8 48.6 46.3 C 48.0 46.2 49.0 46.5 48.2 46.4 C 48.2 46.4 48.2 46.4 48.2 46.4 Z M 51.8 10.9 C 51.4 10.9 51.6 11.0 51.9 10.9 C 51.7 11.1 50.8 11.2 50.1 11.3 C 51.1 11.3 50.0 11.5 50.2 11.8 C 49.7 11.8 49.5 11.9 49.4 12.0 C 49.3 11.5 46.7 12.7 49.4 12.3 C 48.9 12.1 49.1 12.1 50.2 11.8 C 51.5 11.8 52.4 11.5 52.9 11.7 C 53.7 11.5 54.0 11.3 55.1 11.2 C 55.4 11.3 56.4 11.3 55.6 11.8 C 57.6 11.5 56.2 11.1 57.8 10.8 C 59.4 10.7 57.0 11.2 57.4 11.3 C 57.8 11.3 57.7 11.4 57.9 11.4 C 58.4 11.3 58.4 11.1 57.8 11.2 C 58.0 11.1 59.6 10.7 59.2 11.0 C 60.1 10.8 57.7 10.5 56.4 10.9 C 55.7 11.0 55.6 10.6 56.4 10.5 C 56.1 10.3 54.7 11.1 55.0 10.5 C 54.4 10.6 53.8 10.7 53.2 10.8 C 53.3 10.9 53.6 10.8 53.7 10.9 C 53.1 11.0 52.5 11.1 51.9 11.2 C 52.4 11.0 52.4 10.9 51.8 10.9 C 51.8 10.9 51.8 10.9 51.8 10.9 Z M 41.5 45.1 C 43.7 45.6 44.0 45.5 44.8 45.6 C 44.7 45.5 44.3 45.4 43.1 45.2 C 42.0 45.0 41.1 44.9 41.5 45.1 C 41.5 45.1 41.5 45.1 41.5 45.1 Z M 77.8 8.8 C 77.6 8.7 76.8 8.8 76.8 8.7 C 78.3 8.5 76.5 8.5 77.7 8.0 C 75.8 8.4 75.1 9.0 77.8 8.9 C 79.7 8.7 75.8 9.0 77.8 8.8 C 77.8 8.8 77.8 8.8 77.8 8.8 Z M 71.9 9.2 C 70.7 9.4 73.7 9.3 74.4 9.3 C 74.4 9.4 74.4 9.4 74.4 9.5 C 76.0 9.0 73.8 9.1 75.2 8.5 C 73.3 8.5 72.5 8.5 70.9 8.8 C 71.0 8.9 71.3 8.8 71.3 8.8 C 72.6 8.7 71.7 9.1 70.4 9.1 C 70.8 9.2 72.0 9.1 72.8 9.0 C 72.6 9.0 72.3 9.0 72.3 8.8 C 73.4 8.7 73.0 8.9 73.8 8.9 C 73.8 9.0 71.9 9.4 71.9 9.2 C 71.9 9.2 71.9 9.2 71.9 9.2 Z M 175.8 6.8 C 174.7 6.8 176.9 7.2 176.8 7.6 C 177.9 7.7 178.1 7.6 178.8 7.6 C 178.5 7.4 177.3 7.3 176.8 7.2 C 177.0 6.9 178.4 7.3 178.9 7.1 C 179.5 6.8 176.2 7.1 175.8 6.8 C 175.8 6.8 175.8 6.8 175.8 6.8 Z M 23.2 17.5 C 22.5 17.7 22.9 17.6 23.2 17.5 C 23.1 17.7 22.1 18.0 22.0 17.9 C 21.2 18.2 22.6 17.9 21.5 18.2 C 21.4 18.5 23.2 17.7 23.2 17.6 C 24.5 17.2 23.6 17.8 24.0 17.8 C 25.1 17.4 24.6 17.3 26.4 16.9 C 25.3 17.1 24.4 17.2 23.2 17.5 C 23.2 17.5 23.2 17.5 23.2 17.5 Z M 81.2 8.0 C 81.4 7.9 80.1 8.5 78.7 8.4 C 77.0 8.6 79.8 8.6 78.3 8.7 C 79.6 8.6 81.2 8.3 83.2 8.1 C 83.7 7.9 80.4 8.3 82.2 8.0 C 82.1 7.9 81.7 8.0 81.7 8.1 C 81.3 8.1 81.2 8.1 81.2 8.0 C 81.2 8.0 81.2 8.0 81.2 8.0 Z M 79.2 8.7 C 79.4 8.8 79.8 8.7 79.8 8.7 C 80.4 8.7 80.4 8.9 79.8 8.9 C 80.7 9.1 80.6 8.6 82.3 8.6 C 81.5 8.5 81.2 8.4 82.8 8.4 C 84.0 8.1 79.8 8.5 79.2 8.7 C 79.2 8.7 79.2 8.7 79.2 8.7 Z M 158.8 6.2 C 159.0 6.3 160.1 6.3 161.0 6.4 C 159.9 6.5 155.6 6.3 155.1 6.1 C 154.6 6.2 154.1 6.2 154.0 6.1 C 154.0 6.2 152.8 6.3 153.4 6.3 C 153.3 6.4 152.4 6.3 152.4 6.5 C 150.8 6.4 152.9 6.3 152.4 6.1 C 150.4 6.3 150.9 6.1 148.6 6.1 C 149.0 6.3 151.5 6.3 151.3 6.6 C 153.1 6.4 155.0 6.6 156.1 6.9 C 154.4 6.4 160.7 6.5 163.6 6.6 C 163.5 6.8 164.6 6.8 165.7 7.0 C 166.6 7.2 166.3 6.7 164.7 6.7 C 164.8 6.6 166.9 6.8 167.9 6.8 C 166.8 6.6 167.4 6.5 166.9 6.4 C 164.8 6.3 166.6 6.5 166.3 6.7 C 165.8 6.6 165.2 6.6 164.7 6.6 C 167.5 6.3 160.6 6.4 163.1 6.5 C 160.9 6.4 160.9 6.1 158.8 6.2 C 158.8 6.2 158.8 6.2 158.8 6.2 Z M 108.2 6.4 C 107.8 6.4 106.1 6.6 106.0 6.4 C 103.9 6.7 105.8 6.9 103.4 7.0 C 103.5 7.0 104.5 7.0 104.5 7.1 C 105.4 7.0 106.3 6.8 106.1 6.6 C 107.1 6.6 107.4 6.5 108.2 6.4 C 107.9 6.5 107.5 6.6 106.6 6.7 C 106.4 6.9 106.8 7.0 108.2 6.9 C 108.8 6.7 108.4 6.5 108.2 6.4 C 108.2 6.4 108.2 6.4 108.2 6.4 Z M 102.9 6.9 C 102.6 6.9 102.3 6.8 102.3 6.7 C 101.6 6.5 102.0 7.0 101.3 7.1 C 100.7 7.1 100.9 6.9 100.8 6.9 C 99.8 7.0 99.1 7.0 98.7 7.0 C 97.2 7.2 100.3 7.1 100.8 7.2 C 101.8 7.1 101.4 6.9 102.9 6.9 C 102.9 6.9 102.9 6.9 102.9 6.9 Z M 87.3 7.6 C 87.0 7.4 86.5 7.8 85.8 7.8 C 86.3 8.0 87.8 7.8 86.8 8.1 C 88.3 8.1 88.4 8.1 89.9 7.9 C 90.9 8.1 89.9 7.7 88.3 7.9 C 88.5 7.8 89.2 7.7 89.3 7.6 C 90.4 8.0 92.9 7.1 91.4 7.6 C 90.9 7.5 90.6 7.5 90.4 7.4 C 90.0 7.6 86.5 7.8 87.3 7.6 C 87.3 7.6 87.3 7.6 87.3 7.6 Z M 38.0 14.2 C 39.6 13.8 40.5 13.7 41.3 13.5 C 42.2 13.3 43.5 13.1 44.3 13.0 C 44.4 13.1 44.3 13.1 44.0 13.2 C 44.3 13.2 44.9 13.1 45.6 12.9 C 45.5 12.9 45.2 13.0 45.2 13.0 C 43.8 13.1 44.9 12.9 45.1 12.6 C 43.5 12.7 40.3 13.8 38.8 13.7 C 37.6 14.0 39.0 13.8 38.0 14.2 C 38.0 14.2 38.0 14.2 38.0 14.2 Z M 266.6 30.1 C 266.6 30.2 266.5 30.5 266.7 30.5 C 266.8 30.2 266.8 30.0 266.8 29.7 C 266.6 30.2 266.3 30.0 266.0 30.6 C 266.2 30.5 266.4 30.6 266.6 30.1 C 266.6 30.1 266.6 30.1 266.6 30.1 Z M 92.4 7.3 C 92.5 7.4 92.5 7.6 91.9 7.6 C 91.7 7.8 93.4 7.6 93.5 7.8 C 94.0 7.7 93.8 7.6 94.5 7.5 C 94.3 7.4 92.9 7.6 93.4 7.3 C 93.9 7.2 93.9 7.3 94.0 7.3 C 95.0 7.1 93.4 7.2 92.4 7.3 C 92.4 7.3 92.4 7.3 92.4 7.3 Z M 180.9 7.4 C 180.2 7.3 180.9 7.5 181.5 7.5 C 180.0 7.7 182.4 8.0 182.4 8.3 C 181.8 8.0 179.7 8.0 179.4 7.9 C 178.8 7.9 179.5 8.2 177.8 8.1 C 178.0 8.3 179.8 8.3 179.4 8.1 C 179.8 8.4 181.6 8.1 181.4 8.4 C 183.7 8.6 184.3 8.5 184.5 8.2 C 182.2 8.2 183.4 7.8 181.5 7.8 C 181.5 7.7 182.1 7.8 182.5 7.8 C 182.3 7.6 181.5 7.5 180.9 7.4 C 180.9 7.4 180.9 7.4 180.9 7.4 Z M 125.3 6.0 C 124.1 6.1 124.2 6.3 124.2 6.5 C 124.7 6.4 125.4 6.4 126.4 6.3 C 126.2 6.2 124.7 6.3 125.3 6.0 C 125.3 6.0 125.3 6.0 125.3 6.0 Z M 172.6 7.2 C 172.5 7.1 172.1 7.1 172.1 7.2 C 170.7 7.1 170.4 7.0 170.0 6.8 C 169.3 6.8 169.5 7.0 169.5 7.1 C 170.7 7.0 170.4 7.3 172.1 7.3 C 172.0 7.2 172.2 7.2 172.6 7.2 C 172.6 7.2 172.6 7.2 172.6 7.2 Z M 136.7 6.1 C 136.0 6.1 136.4 6.2 136.7 6.2 C 135.9 6.5 133.7 6.2 132.9 6.4 C 132.8 6.6 135.5 6.5 132.4 6.6 C 132.9 6.8 135.8 6.6 137.2 6.7 C 136.9 6.9 134.9 6.9 135.0 7.2 C 136.7 7.0 138.6 6.9 138.8 6.5 C 136.4 6.5 137.3 6.3 136.7 6.1 C 136.7 6.1 136.7 6.1 136.7 6.1 Z M 139.4 6.3 C 139.2 6.2 138.7 6.3 137.8 6.3 C 139.1 6.6 139.9 6.5 142.6 6.5 C 142.6 6.5 142.6 6.4 142.6 6.4 C 143.2 6.4 143.8 6.4 144.3 6.4 C 141.9 6.1 141.3 6.3 138.8 6.4 C 138.7 6.3 139.1 6.3 139.4 6.3 C 139.4 6.3 139.4 6.3 139.4 6.3 Z M 69.5 9.6 C 70.1 9.7 70.7 9.8 71.9 9.7 C 71.8 9.5 71.1 9.4 69.5 9.6 C 69.5 9.6 69.5 9.6 69.5 9.6 Z M 174.7 7.5 C 176.1 7.4 173.3 7.4 174.2 7.7 C 175.3 7.8 176.5 8.0 176.7 8.2 C 178.8 8.0 174.4 7.8 174.7 7.5 C 174.7 7.5 174.7 7.5 174.7 7.5 Z M 165.2 7.6 C 164.6 7.5 164.6 7.2 165.2 7.4 C 166.7 7.5 163.9 7.1 166.2 7.3 C 165.3 7.1 163.0 6.9 162.0 7.1 C 162.0 7.3 164.1 7.2 164.1 7.4 C 164.2 7.5 163.9 7.5 163.6 7.5 C 163.8 7.6 164.3 7.5 165.2 7.6 C 165.2 7.6 165.2 7.6 165.2 7.6 Z M 157.2 6.9 C 158.1 7.1 159.1 7.2 160.9 7.3 C 159.8 7.1 159.1 6.8 157.2 6.9 C 157.2 6.9 157.2 6.9 157.2 6.9 Z M 256.5 21.2 C 255.4 20.7 256.3 21.4 256.4 21.5 C 257.5 22.0 257.5 21.8 258.6 22.4 C 258.3 21.9 257.1 21.7 256.5 21.2 C 256.5 21.2 256.5 21.2 256.5 21.2 Z M 260.0 23.0 C 260.1 23.2 261.2 23.8 261.2 24.0 C 262.1 23.9 262.5 25.2 262.7 24.8 C 262.8 25.0 263.0 25.2 263.3 25.4 C 263.0 24.6 261.1 23.6 260.0 23.0 C 260.0 23.0 260.0 23.0 260.0 23.0 Z M 148.0 7.2 C 146.6 7.1 148.4 7.6 147.0 7.5 C 146.9 7.6 149.7 7.7 148.0 7.7 C 150.2 7.9 147.9 7.2 148.0 7.2 C 148.0 7.2 148.0 7.2 148.0 7.2 Z M 121.6 7.5 C 121.7 7.3 119.7 7.5 118.9 7.5 C 118.9 7.5 119.5 7.5 119.9 7.5 C 119.7 7.6 119.5 7.7 118.9 7.7 C 119.3 7.9 120.8 7.5 121.6 7.5 C 121.6 7.5 121.6 7.5 121.6 7.5 Z M 150.8 3.1 C 151.7 3.3 152.9 3.5 153.5 3.2 C 154.5 3.4 152.9 3.5 154.0 3.6 C 155.6 3.5 154.8 3.8 157.3 3.7 C 156.8 4.0 158.6 4.0 158.9 4.2 C 157.9 4.2 156.7 3.9 156.2 4.1 C 157.0 4.2 156.5 4.4 156.2 4.2 C 154.6 4.0 158.2 4.0 156.2 3.7 C 155.6 4.1 152.7 3.4 150.8 3.4 C 151.6 3.2 149.4 3.0 150.8 3.1 C 150.8 3.1 150.8 3.1 150.8 3.1 Z M 160.5 3.8 C 161.8 3.8 162.5 4.4 162.1 4.3 C 162.1 4.2 160.6 4.2 160.5 4.3 C 160.8 4.3 161.2 4.3 161.0 4.4 C 158.6 4.3 159.5 4.1 158.9 3.9 C 160.2 3.8 160.6 4.0 161.1 3.9 C 160.8 3.9 160.4 3.9 160.5 3.8 C 160.5 3.8 160.5 3.8 160.5 3.8 Z M 188.0 9.3 C 187.8 9.1 187.5 9.3 187.0 9.3 C 186.9 8.9 184.3 9.2 183.9 9.0 C 184.5 8.9 185.9 9.0 186.5 8.9 C 185.8 8.9 185.7 8.8 185.0 8.8 C 185.1 8.6 186.6 8.7 187.0 8.6 C 187.2 8.7 187.9 8.6 188.0 8.7 C 186.1 8.7 189.1 9.4 188.0 9.3 C 188.0 9.3 188.0 9.3 188.0 9.3 Z M 135.6 7.4 C 135.4 7.6 137.7 8.2 135.6 8.5 C 135.2 8.3 134.9 8.1 135.0 7.8 C 133.7 8.0 133.2 7.7 132.4 8.0 C 129.9 7.3 134.3 8.0 135.6 7.4 C 135.6 7.4 135.6 7.4 135.6 7.4 Z M 126.9 7.7 C 127.4 7.5 126.2 7.5 126.4 7.3 C 127.5 7.5 130.8 7.2 129.7 7.4 C 128.6 7.4 128.6 7.7 126.9 7.7 C 126.9 7.7 126.9 7.7 126.9 7.7 Z M 75.5 49.6 C 73.9 49.6 73.1 49.1 74.0 49.0 C 73.6 49.2 76.0 49.3 75.5 49.6 C 75.5 49.6 75.5 49.6 75.5 49.6 Z M 12.2 40.4 C 13.4 41.1 14.3 41.4 14.4 41.6 C 13.0 41.1 13.2 41.0 12.1 40.5 C 12.0 40.6 11.3 40.3 11.2 40.2 C 11.8 40.5 11.8 40.2 12.2 40.4 C 12.2 40.4 12.2 40.4 12.2 40.4 Z M 94.2 3.2 C 94.1 3.1 93.5 3.1 93.7 2.9 C 95.3 2.9 97.1 2.6 98.4 2.4 C 98.4 2.5 98.4 2.6 98.4 2.7 C 95.9 2.8 95.3 3.0 94.2 3.2 C 94.2 3.2 94.2 3.2 94.2 3.2 Z M 91.1 2.9 C 90.8 3.1 91.7 3.3 90.6 3.4 C 90.6 3.2 88.6 3.1 89.5 3.0 C 89.9 3.1 90.4 3.1 91.1 2.9 C 91.1 2.9 91.1 2.9 91.1 2.9 Z M 181.1 4.2 C 182.4 4.2 180.6 3.9 180.7 3.8 C 181.6 3.9 182.8 4.0 183.2 4.1 C 182.3 4.1 181.6 4.4 181.1 4.2 C 181.1 4.2 181.1 4.2 181.1 4.2 Z M 161.6 3.8 C 158.8 3.7 160.0 3.3 157.3 3.1 C 158.4 3.0 160.9 3.1 161.6 3.0 C 161.5 3.1 162.2 3.1 162.1 3.3 C 161.1 3.3 161.0 3.2 160.0 3.1 C 160.3 3.4 160.4 3.3 160.0 3.5 C 160.7 3.6 161.2 3.5 161.6 3.5 C 161.4 3.6 162.4 3.7 161.6 3.8 C 161.6 3.8 161.6 3.8 161.6 3.8 Z M 180.6 4.8 C 181.7 4.8 182.5 5.2 181.6 5.1 C 181.5 4.9 180.8 5.1 180.6 4.9 C 182.1 5.0 179.4 4.7 180.1 4.6 C 181.0 4.6 181.3 4.6 181.1 4.4 C 181.7 4.4 182.6 4.5 182.7 4.6 C 182.3 4.6 181.7 4.5 181.7 4.6 C 182.0 4.6 182.3 4.6 182.2 4.7 C 181.3 4.6 180.9 4.7 180.6 4.8 C 180.6 4.8 180.6 4.8 180.6 4.8 Z M 173.3 4.3 C 174.7 4.4 174.9 4.7 175.4 4.9 C 173.4 4.7 173.2 4.3 171.7 4.1 C 173.3 4.2 174.9 4.0 175.4 4.2 C 174.7 4.3 173.4 4.2 173.3 4.3 C 173.3 4.3 173.3 4.3 173.3 4.3 Z M 211.0 49.7 C 209.9 49.7 209.0 49.7 207.7 49.7 C 207.3 50.0 209.7 50.2 208.7 50.1 C 207.4 50.3 208.2 49.9 207.2 50.0 C 208.3 50.2 202.7 50.8 202.4 50.5 C 203.3 50.4 203.6 50.3 203.4 50.2 C 205.6 50.0 206.5 49.7 208.1 49.4 C 209.4 49.6 212.8 49.2 214.6 48.7 C 215.9 49.0 218.0 48.2 219.6 48.3 C 220.1 48.1 218.3 48.2 219.6 48.0 C 220.5 48.1 219.8 48.3 221.0 48.2 C 221.1 48.1 220.8 48.0 221.4 47.9 C 221.3 48.0 222.1 47.9 222.3 48.0 C 219.9 48.3 222.5 48.3 220.6 48.6 C 219.8 48.6 221.4 48.1 219.2 48.4 C 218.4 48.6 217.7 48.8 217.9 49.0 C 217.3 49.1 217.0 49.2 216.6 49.3 C 217.4 48.9 213.5 49.8 215.2 49.2 C 215.3 49.2 216.6 49.1 217.4 48.8 C 216.6 48.7 215.7 49.0 214.2 49.3 C 213.6 49.2 214.5 49.0 213.8 49.0 C 212.7 49.3 214.2 49.3 213.4 49.6 C 213.7 49.5 214.3 49.4 214.3 49.5 C 212.3 49.5 211.6 49.9 210.6 50.0 C 211.2 49.8 209.4 49.9 211.0 49.7 C 211.0 49.7 211.0 49.7 211.0 49.7 Z M 227.0 47.0 C 227.5 47.0 227.9 46.9 228.3 46.8 C 228.4 47.0 226.8 47.3 227.9 47.4 C 226.1 47.6 228.0 47.0 227.0 47.0 C 227.0 47.0 227.0 47.0 227.0 47.0 Z M 218.2 47.5 C 217.5 47.4 217.9 47.9 217.3 48.0 C 218.4 47.8 219.4 47.5 219.6 47.8 C 218.3 47.9 217.7 48.0 216.4 48.3 C 217.7 47.7 215.0 48.2 214.5 48.0 C 215.5 47.8 216.3 47.5 217.7 47.4 C 217.5 47.5 219.5 47.3 218.2 47.5 C 218.2 47.5 218.2 47.5 218.2 47.5 Z M 221.7 46.7 C 222.0 46.8 223.8 46.4 223.5 46.7 C 222.3 46.9 221.9 47.0 222.2 47.2 C 221.3 47.3 221.2 47.2 220.4 47.4 C 219.9 47.1 221.3 47.0 221.7 46.8 C 221.4 46.8 221.2 46.8 221.7 46.7 C 221.7 46.7 221.7 46.7 221.7 46.7 Z M 262.2 33.6 C 262.6 33.7 261.3 34.4 261.0 34.5 C 261.5 34.4 261.4 34.6 260.6 35.2 C 260.7 34.7 259.5 35.5 258.4 35.6 C 258.3 36.0 259.6 35.5 258.2 36.2 C 257.1 36.6 256.1 37.2 254.1 38.0 C 253.6 37.9 254.4 37.5 254.9 37.2 C 253.6 37.8 253.9 37.4 252.8 37.8 C 253.1 37.9 252.2 38.3 251.8 38.3 C 253.7 37.5 249.1 38.8 251.2 38.1 C 251.3 38.1 251.8 37.9 252.2 37.7 C 251.8 38.2 254.3 37.2 254.9 37.2 C 255.6 36.3 258.1 35.5 260.2 34.5 C 260.4 34.6 259.8 35.0 260.3 34.8 C 260.3 34.6 261.0 34.3 261.2 34.0 C 261.3 34.2 261.6 34.1 262.0 33.9 C 262.0 33.8 262.0 33.8 262.2 33.6 C 262.2 33.6 262.2 33.6 262.2 33.6 Z M 125.6 51.2 C 125.7 50.7 122.2 50.9 121.3 51.0 C 121.4 50.6 127.5 50.8 125.6 51.2 C 125.6 51.2 125.6 51.2 125.6 51.2 Z M 146.7 50.8 C 145.8 50.9 146.4 51.1 145.6 51.1 C 145.6 50.9 143.5 51.4 143.5 51.1 C 144.5 50.9 145.1 50.9 146.7 50.8 C 146.7 50.8 146.7 50.8 146.7 50.8 Z M 166.0 50.4 C 164.5 50.5 166.8 50.5 166.5 50.6 C 165.2 50.7 163.8 50.7 163.9 50.5 C 165.1 50.5 165.8 50.2 166.0 50.4 C 166.0 50.4 166.0 50.4 166.0 50.4 Z M 137.0 50.7 C 135.7 50.6 137.8 50.3 138.0 50.4 C 136.6 50.5 139.0 50.7 140.2 50.6 C 140.1 50.9 139.6 50.8 140.2 51.1 C 138.3 51.2 139.9 50.8 138.6 50.8 C 137.7 51.0 138.6 50.9 138.6 51.2 C 138.0 51.2 137.5 51.2 137.0 51.2 C 137.0 51.0 137.0 50.9 137.0 50.8 C 137.6 50.7 138.2 50.7 138.0 50.6 C 137.5 50.6 137.4 50.7 137.0 50.7 C 137.0 50.7 137.0 50.7 137.0 50.7 Z M 233.3 42.6 C 232.0 42.9 233.1 42.8 234.1 42.6 C 234.3 42.4 235.0 41.8 236.4 41.8 C 233.4 42.6 237.4 41.9 235.8 42.4 C 235.0 42.3 233.2 43.0 231.6 43.3 C 230.9 43.2 232.5 42.5 233.3 42.6 C 233.3 42.6 233.3 42.6 233.3 42.6 Z M 238.8 41.6 C 238.7 41.6 238.1 41.7 237.2 41.9 C 238.2 41.5 236.8 41.7 238.0 41.4 C 237.9 41.5 241.8 40.7 239.5 41.3 C 237.5 41.6 240.1 41.3 241.0 41.1 C 240.0 41.3 238.3 42.0 238.0 41.9 C 238.5 41.7 239.0 41.6 238.8 41.6 C 238.8 41.6 238.8 41.6 238.8 41.6 Z M 265.1 29.9 C 265.0 29.8 264.9 30.0 264.7 30.1 C 265.1 29.4 265.2 29.1 265.2 28.9 C 265.2 29.1 265.4 29.1 265.5 29.0 C 265.4 29.2 265.5 29.3 265.4 29.4 C 265.2 29.1 265.3 29.5 265.1 29.9 C 265.1 29.9 265.1 29.9 265.1 29.9 Z M 265.1 29.9 " fill="#000000"></path><image xlink:href="2691324A7B77E958CF2380DF55212D71.png" width="64.00" height="26.00" transform="matrix(1.00, 0.00, -0.00, -1.00, 106.0, 38.0)"></image><g><clipPath id="clip-391"><path d="M 5.3 3.1 L 267.8 3.1 L 267.8 52.6 L 5.3 52.6 Z M 5.3 3.1 "></path></clipPath><g clip-path="url(#clip-391)"><text xml:space="preserve" font-family="Chalkduster" font-size="18.0" fill="#000000" transform="matrix(1.00, 0.00, -0.00, -1.00, 110.0, 20.0)">L</text><text xml:space="preserve" font-family="Chalkduster" font-size="18.0" fill="#000000" transform="matrix(1.00, 0.00, -0.00, -1.00, 121.4, 20.0)">e</text><text xml:space="preserve" font-family="Chalkduster" font-size="18.0" fill="#000000" transform="matrix(1.00, 0.00, -0.00, -1.00, 132.0, 20.0)">x</text><text xml:space="preserve" font-family="Chalkduster" font-size="18.0" fill="#000000" transform="matrix(1.00, 0.00, -0.00, -1.00, 143.2, 20.0)">e</text><text xml:space="preserve" font-family="Chalkduster" font-size="18.0" fill="#000000" transform="matrix(1.00, 0.00, -0.00, -1.00, 154.1, 20.0)">r</text></g></g></g></svg>