<?xml version="1.0" encoding="UTF-8" standalone="no"?><svg xmlns="http://www.w3.org/2000/svg" xmlns:xlink="http://www.w3.org/1999/xlink" clip-rule="evenodd" stroke-miterlimit="4.00" viewBox="0 0 237 66"><desc>SVG generated by Keynote</desc><defs></defs><g transform="matrix(1.00, 0.00, -0.00, -1.00, 0.0, 66.0)"><path d="M 198.7 52.3 C 242.9 41.6 242.9 24.2 198.7 13.4 C 154.5 2.7 82.8 2.7 38.6 13.4 C -5.6 24.2 -5.6 41.6 38.6 52.3 C 82.8 63.1 154.5 63.1 198.7 52.3 Z M 198.7 52.3 " fill="#A8E685"></path><path d="M 58.5 5.7 C 58.2 5.8 57.8 5.9 57.3 5.9 C 57.5 6.0 57.7 6.0 57.7 6.1 C 58.2 6.0 58.9 5.8 59.9 5.7 C 59.8 5.6 59.3 5.7 59.0 5.8 C 58.6 5.8 58.6 5.7 58.5 5.7 C 58.5 5.7 58.5 5.7 58.5 5.7 Z M 57.6 59.4 C 56.7 59.2 57.6 59.6 58.0 59.7 C 58.0 59.7 58.1 59.6 58.4 59.7 C 58.5 59.9 57.7 59.8 57.1 59.8 C 54.8 59.3 56.6 59.2 57.6 59.4 C 57.6 59.4 57.6 59.4 57.6 59.4 Z M 181.2 59.0 C 183.1 58.7 181.1 58.8 180.8 58.8 C 181.6 58.6 180.9 58.3 182.0 58.1 C 182.2 58.2 182.6 58.2 182.8 58.3 C 182.3 58.4 181.6 58.4 181.6 58.5 C 182.2 58.5 183.1 58.3 183.2 58.3 C 181.8 58.6 183.0 58.6 183.3 58.7 C 182.1 58.9 181.7 59.2 181.2 59.0 C 181.2 59.0 181.2 59.0 181.2 59.0 Z M 203.9 12.0 C 204.8 12.3 205.5 12.5 205.3 12.6 C 204.4 12.3 203.8 12.1 203.2 11.9 C 203.1 12.0 203.3 12.2 202.5 12.0 C 201.6 11.5 202.1 11.3 202.7 11.3 C 202.7 11.6 205.8 12.3 203.9 12.0 C 203.9 12.0 203.9 12.0 203.9 12.0 Z M 154.3 4.5 C 152.6 4.2 154.2 4.8 152.5 4.6 C 152.5 4.4 152.3 4.1 153.4 4.2 C 153.5 4.3 154.2 4.4 154.3 4.5 C 154.3 4.5 154.3 4.5 154.3 4.5 Z M 129.6 61.6 C 129.6 61.7 130.9 61.6 130.6 61.9 C 129.9 61.9 129.3 61.9 128.6 61.9 C 128.5 61.7 128.7 61.6 129.6 61.6 C 129.6 61.6 129.6 61.6 129.6 61.6 Z M 192.9 54.5 C 194.7 54.4 196.5 53.6 196.0 54.0 C 196.7 54.1 194.9 54.9 194.9 54.6 C 194.7 54.4 191.5 54.8 192.9 54.5 C 192.9 54.5 192.9 54.5 192.9 54.5 Z M 68.1 56.6 C 70.1 57.1 69.8 56.4 71.1 56.8 C 70.6 56.8 70.4 56.8 70.2 56.9 C 70.6 57.0 71.1 57.0 71.1 57.1 C 70.1 57.0 68.9 56.9 68.1 56.6 C 68.1 56.6 68.1 56.6 68.1 56.6 Z M 89.2 3.0 C 89.5 3.0 89.7 2.9 89.7 2.8 C 91.1 2.8 91.1 2.6 92.0 2.7 C 92.1 3.0 90.8 3.0 89.7 3.0 C 89.6 3.0 89.3 3.1 89.2 3.0 C 89.2 3.0 89.2 3.0 89.2 3.0 Z M 131.3 3.1 C 131.2 2.9 130.3 2.8 131.7 2.8 C 133.3 3.1 131.9 3.3 130.3 3.4 C 130.3 3.5 130.3 3.6 130.3 3.7 C 130.9 3.7 131.3 3.8 131.7 3.9 C 132.0 3.5 133.1 4.2 135.5 4.0 C 134.4 4.2 135.6 4.5 134.1 4.3 C 134.5 4.6 133.4 4.5 133.6 4.7 C 134.2 4.6 135.9 4.7 135.5 4.4 C 136.3 4.4 137.0 4.4 137.4 4.5 C 138.0 4.8 135.9 4.5 136.5 4.8 C 136.9 4.8 137.0 4.9 137.4 4.9 C 137.5 4.8 137.3 4.7 137.9 4.7 C 139.4 4.9 137.6 5.0 139.7 5.1 C 139.9 5.0 139.2 4.9 139.3 4.8 C 140.3 4.7 140.2 4.9 141.2 4.8 C 141.4 4.9 140.5 4.9 141.2 5.0 C 141.8 4.7 143.1 5.3 144.5 5.1 C 143.6 4.5 144.7 5.2 145.9 4.8 C 146.2 4.9 145.3 5.2 146.3 5.3 C 146.0 4.6 150.2 5.1 146.9 4.4 C 148.6 4.5 149.3 4.0 147.9 3.9 C 150.9 4.2 150.0 3.8 151.1 3.9 C 152.3 4.0 150.5 3.9 151.1 4.2 C 149.9 4.1 150.2 4.2 149.3 4.0 C 149.3 4.1 149.0 4.2 148.7 4.2 C 150.0 4.2 151.5 4.6 150.6 4.9 C 149.9 4.8 150.5 4.5 149.7 4.5 C 150.0 4.8 148.8 4.3 148.7 4.6 C 149.3 4.9 147.5 5.1 149.2 5.2 C 149.2 5.1 149.2 5.0 149.2 4.8 C 149.7 4.9 150.1 4.9 150.6 4.9 C 151.0 5.2 150.6 5.3 151.0 5.5 C 151.8 5.5 152.2 5.5 152.4 5.4 C 151.5 5.3 150.4 5.0 152.0 5.0 C 151.3 5.5 154.2 5.3 152.9 5.5 C 154.6 5.8 155.5 5.5 155.6 5.8 C 156.5 5.9 155.9 5.6 157.0 5.7 C 158.7 6.1 158.4 5.7 160.6 6.1 C 160.9 5.7 160.9 6.2 161.6 6.3 C 161.6 6.1 161.6 6.0 161.6 5.9 C 162.4 6.2 164.2 6.5 166.1 6.4 C 166.5 6.5 166.2 6.7 167.4 6.8 C 168.7 6.6 170.2 7.2 171.8 7.0 C 171.9 7.2 172.9 7.4 173.5 7.3 C 173.7 7.5 172.9 7.7 173.9 7.8 C 174.6 7.6 173.4 7.4 174.8 7.5 C 174.6 7.7 176.1 7.5 176.1 7.8 C 175.7 7.8 175.2 7.8 174.8 7.8 C 175.3 7.9 175.2 8.0 175.6 8.1 C 175.6 7.8 176.6 8.2 176.9 8.3 C 176.9 8.1 177.0 8.1 177.4 8.0 C 178.1 8.1 178.7 8.2 179.1 8.2 C 180.0 8.5 178.5 8.3 179.4 8.5 C 180.0 8.0 180.8 8.8 182.8 8.7 C 183.2 9.0 184.0 9.2 185.2 9.5 C 185.4 9.3 184.1 9.2 184.0 9.0 C 185.8 9.4 183.8 8.8 184.9 9.0 C 187.4 9.6 189.1 9.9 191.6 10.6 C 191.6 10.4 193.7 10.7 193.6 10.8 C 193.1 10.7 194.6 11.3 195.4 11.5 C 195.7 11.1 197.1 11.1 197.2 10.9 C 197.4 11.2 197.4 11.2 197.4 11.5 C 198.8 12.0 200.0 11.9 201.6 12.7 C 201.5 12.5 202.7 12.8 203.7 13.0 C 203.4 13.1 202.8 13.0 202.2 13.0 C 203.6 13.4 203.7 13.5 204.9 13.9 C 206.3 13.5 207.9 14.9 208.9 14.6 C 210.7 15.1 210.3 15.2 211.8 15.8 C 211.8 15.6 212.0 15.6 212.5 15.7 C 211.5 15.4 210.6 15.3 210.1 14.9 C 212.5 15.6 205.8 12.8 209.8 13.8 C 209.9 13.9 209.5 14.0 210.3 14.3 C 212.6 14.9 211.3 14.2 210.4 14.0 C 212.0 14.3 213.4 14.9 212.3 14.3 C 215.6 15.3 213.5 14.8 214.6 15.3 C 220.2 17.2 226.0 19.9 229.7 23.5 C 230.0 23.4 231.7 25.5 232.1 26.3 C 233.1 27.2 233.7 28.4 233.6 28.9 C 234.0 29.0 233.9 30.4 234.2 30.4 C 234.1 29.9 234.1 29.5 234.3 30.0 C 234.7 31.8 234.4 34.5 234.3 35.6 C 233.9 36.1 233.5 37.2 233.2 38.0 C 233.0 38.0 233.3 37.4 233.0 37.9 C 233.1 38.1 232.2 39.7 231.8 39.9 C 232.2 39.5 232.3 38.8 231.8 39.4 C 231.9 39.5 231.3 40.2 231.6 40.2 C 230.7 41.0 230.3 41.6 229.4 42.2 C 230.1 41.6 230.3 41.2 230.3 41.0 C 229.9 41.6 229.6 42.0 229.0 42.2 C 229.3 42.4 228.3 43.0 227.3 43.9 C 226.9 44.0 226.6 44.1 225.7 44.7 C 225.3 45.2 227.3 44.0 226.3 44.7 C 226.2 44.6 225.1 45.1 225.5 45.2 C 224.1 45.9 223.5 46.5 222.2 46.9 C 223.7 46.2 222.4 46.5 222.0 46.6 C 221.7 46.8 221.2 47.0 221.2 47.1 C 221.2 47.2 222.0 46.8 222.1 46.8 C 221.0 47.3 220.9 47.8 220.4 47.8 C 220.9 47.5 220.9 47.4 220.3 47.6 C 220.3 48.1 216.7 49.3 217.8 48.6 C 217.9 48.7 219.2 48.1 219.3 48.0 C 218.9 48.0 216.9 49.0 217.3 48.6 C 218.4 48.1 218.4 48.3 219.7 47.6 C 219.8 47.4 220.5 47.0 221.0 46.7 C 219.0 47.7 218.5 48.1 218.1 48.0 C 217.2 48.4 217.9 48.4 216.2 49.1 C 213.8 49.9 215.7 48.9 215.0 49.1 C 212.9 50.1 213.6 50.1 214.7 50.0 C 212.9 50.6 212.4 51.0 210.1 51.7 C 210.2 51.5 210.4 51.3 211.2 51.0 C 211.3 51.0 213.2 50.5 213.0 50.4 C 212.7 50.2 211.2 50.5 208.6 51.3 C 209.3 51.4 209.4 51.2 206.8 52.0 C 207.3 52.2 205.5 52.3 205.5 52.6 C 205.6 52.6 206.6 52.3 207.5 52.1 C 207.4 52.2 207.2 52.4 206.3 52.8 C 205.7 52.8 205.3 53.1 203.6 53.4 C 203.4 53.3 204.6 52.9 204.8 52.7 C 203.9 53.0 203.7 53.1 202.8 53.4 C 201.9 53.4 201.9 53.1 201.9 52.7 C 202.9 52.4 204.6 51.9 203.2 52.1 C 207.2 51.0 203.1 52.5 204.6 52.1 C 206.2 51.4 205.4 52.1 207.9 51.3 C 208.6 51.0 208.8 50.9 209.1 50.7 C 208.9 50.7 207.5 50.9 209.0 50.4 C 209.4 50.5 210.3 50.3 211.5 49.9 C 211.5 49.8 209.0 50.5 211.4 49.7 C 212.6 49.3 211.7 50.0 213.3 49.4 C 213.2 49.3 213.7 49.2 213.7 49.1 C 211.5 49.9 214.1 48.7 212.5 49.1 C 214.5 48.3 213.0 49.3 214.2 48.8 C 214.2 48.6 216.4 48.1 216.3 47.8 C 215.6 48.2 214.0 48.8 214.1 48.5 C 215.6 48.0 221.3 45.2 219.3 46.6 C 220.0 46.1 223.5 43.9 223.3 44.2 C 222.3 44.7 222.4 44.9 222.3 45.1 C 224.2 43.7 225.3 43.4 226.7 41.9 C 224.9 43.2 226.0 41.8 224.8 42.4 C 224.2 42.8 223.5 43.2 223.4 43.4 C 223.7 43.5 224.6 42.8 224.8 42.5 C 224.9 42.7 225.0 42.9 225.2 43.0 C 222.8 44.3 221.4 45.3 220.0 45.8 C 221.1 45.2 217.6 46.6 218.9 45.9 C 219.6 45.8 221.0 45.1 222.1 44.6 C 222.0 44.5 222.0 44.5 221.9 44.4 C 222.4 44.1 223.1 43.8 223.0 43.7 C 221.7 44.5 220.8 44.7 219.8 45.4 C 219.7 45.4 219.7 45.3 219.7 45.3 C 219.4 45.4 219.2 45.5 219.2 45.4 C 219.8 45.1 220.5 44.8 220.5 44.7 C 219.4 45.2 219.1 45.1 217.7 45.7 C 217.9 45.3 216.0 45.7 217.9 44.8 C 218.3 44.9 219.4 44.5 219.4 44.6 C 220.0 44.4 221.0 43.8 221.4 43.5 C 220.9 43.6 219.8 44.1 219.6 43.9 C 220.4 43.4 221.0 43.0 221.6 42.9 C 220.1 43.9 222.6 42.6 223.3 42.5 C 223.1 42.5 222.7 42.6 222.4 42.6 C 223.7 41.9 224.2 41.8 224.1 41.4 C 225.3 40.5 225.2 40.9 226.0 40.3 C 225.3 40.4 226.4 39.8 225.7 39.9 C 226.9 38.9 226.3 39.9 226.7 39.5 C 227.0 39.2 227.0 39.1 227.3 38.8 C 227.9 38.5 228.7 37.6 229.0 37.6 C 229.3 37.2 229.5 37.2 229.7 36.8 C 229.7 36.7 229.7 36.5 229.8 36.3 C 229.9 36.3 230.1 36.1 230.1 35.9 C 229.2 36.8 229.4 36.5 228.3 37.4 C 228.3 37.6 228.2 37.7 228.5 37.6 C 227.9 38.4 227.5 38.5 226.8 39.2 C 226.5 39.1 226.2 39.0 225.5 39.7 C 225.6 39.4 225.3 39.5 225.6 39.2 C 226.1 39.0 226.6 38.6 227.2 38.2 C 227.1 38.1 227.0 38.1 227.2 37.9 C 227.5 37.8 227.9 37.5 228.0 37.1 C 228.1 37.2 228.1 37.3 228.0 37.5 C 228.9 36.5 228.4 36.7 229.0 36.1 C 228.8 36.1 228.5 36.5 228.6 36.1 C 228.9 35.4 229.1 35.4 229.3 35.1 C 229.3 35.0 229.2 35.0 229.3 34.8 C 229.6 34.5 229.2 36.1 229.9 35.4 C 229.7 35.2 230.1 34.5 230.3 34.4 C 230.4 34.7 229.9 35.1 230.1 35.2 C 230.7 33.7 230.6 35.3 231.0 33.7 C 230.9 33.7 230.8 33.7 230.7 33.7 C 230.6 34.3 230.4 34.3 230.2 34.2 C 230.0 34.7 229.6 34.7 229.6 35.2 C 229.3 34.9 229.8 34.8 230.0 34.3 C 229.7 34.3 229.6 34.7 229.3 34.7 C 229.9 33.7 229.6 33.5 229.9 32.4 C 229.6 32.7 229.8 31.9 229.6 32.0 C 229.8 32.8 229.0 32.5 228.9 32.7 C 229.0 33.1 229.5 32.9 229.6 33.2 C 229.3 33.4 229.2 33.3 228.9 33.2 C 229.0 32.8 228.9 32.8 228.8 32.5 C 229.0 32.2 229.4 31.9 229.6 32.3 C 229.5 32.2 229.2 31.6 229.4 31.5 C 229.6 32.2 229.5 31.4 229.7 31.8 C 229.7 31.2 229.1 30.4 228.8 29.6 C 228.7 29.8 228.5 29.5 228.4 29.6 C 229.1 30.2 228.7 30.6 228.9 31.1 C 228.8 30.9 228.7 31.1 228.7 31.2 C 228.6 30.7 228.2 30.4 228.1 29.8 C 228.0 29.9 228.0 29.9 227.9 30.0 C 227.6 29.1 227.5 29.3 226.8 28.8 C 226.7 28.5 227.3 28.5 227.6 28.4 C 227.2 28.2 226.1 27.0 226.6 27.9 C 225.9 27.2 226.3 27.1 225.4 26.4 C 225.2 26.6 226.0 27.2 225.6 27.3 C 224.8 26.7 225.4 26.8 224.6 26.4 C 224.7 26.2 224.8 26.0 224.0 25.5 C 224.5 26.0 223.8 25.5 223.5 25.5 C 223.9 25.8 224.2 26.0 224.3 26.2 C 223.0 25.2 222.6 25.0 221.1 24.2 C 221.8 24.3 221.0 23.7 222.1 24.2 C 221.1 23.8 220.0 22.9 219.4 22.8 C 220.0 23.2 220.9 23.7 221.2 24.0 C 218.3 22.4 216.2 21.9 212.7 20.2 C 213.4 20.4 214.2 20.7 214.3 20.7 C 213.9 20.5 213.3 20.3 213.3 20.2 C 214.6 20.7 215.7 21.2 216.3 21.3 C 217.3 21.9 215.7 21.3 216.7 21.8 C 216.9 21.7 218.7 22.7 218.2 22.1 C 216.4 21.5 214.7 20.6 214.0 19.9 C 212.0 19.6 213.8 20.2 211.6 19.9 C 211.7 19.8 211.2 19.6 210.6 19.3 C 211.1 19.9 208.5 18.8 208.3 18.7 C 209.3 18.9 213.1 20.0 211.3 19.1 C 212.0 20.0 206.9 17.4 207.8 18.2 C 205.2 17.5 206.2 17.4 204.6 17.3 C 204.6 17.2 204.8 17.1 204.1 16.9 C 203.3 16.7 203.0 16.7 202.7 16.7 C 206.6 17.9 205.3 17.9 207.6 18.6 C 207.2 18.5 206.9 18.4 207.0 18.5 C 207.0 18.5 206.9 18.6 206.4 18.4 C 206.3 18.0 204.4 17.9 203.9 17.5 C 204.6 17.7 205.4 17.9 205.2 17.7 C 203.6 17.3 202.9 17.0 202.1 16.7 C 201.7 16.6 201.2 16.4 200.6 16.2 C 199.9 15.9 198.7 15.6 198.1 15.4 C 198.8 15.7 197.8 15.5 196.9 15.4 C 195.7 15.0 196.3 14.8 194.8 14.5 C 194.8 15.1 193.2 14.1 191.3 14.0 C 191.6 13.8 189.2 13.2 188.6 13.3 C 188.6 13.2 187.7 13.1 187.1 13.0 C 186.9 12.8 187.7 12.9 187.1 12.7 C 186.6 12.7 187.0 13.0 186.3 12.9 C 185.4 12.7 185.6 12.4 184.3 12.2 C 184.3 12.4 185.0 12.5 184.3 12.6 C 183.2 12.3 182.1 12.1 183.0 12.5 C 181.3 12.3 182.2 11.9 180.6 11.7 C 181.1 11.9 181.0 12.0 180.2 11.9 C 179.6 11.6 179.6 11.5 179.4 11.3 C 178.9 11.5 179.1 11.5 177.7 11.2 C 177.7 11.4 177.7 11.5 177.7 11.6 C 177.1 11.5 176.2 11.4 176.0 11.2 C 177.2 11.5 176.9 11.2 177.3 11.2 C 176.2 11.0 174.0 10.4 175.6 10.9 C 174.0 10.8 174.8 10.6 173.5 10.5 C 174.3 10.9 173.6 10.5 172.2 10.4 C 172.3 10.7 171.3 10.3 170.5 10.3 C 170.6 10.5 170.4 10.5 169.6 10.5 C 169.7 10.3 169.2 10.2 168.3 10.1 C 168.3 10.3 170.1 10.6 168.3 10.4 C 167.5 10.2 167.5 9.9 166.1 9.7 C 165.8 9.5 167.4 9.7 167.1 9.4 C 165.9 9.5 165.6 9.3 164.0 9.1 C 164.6 9.6 160.6 9.3 162.5 9.7 C 162.0 9.7 161.2 9.9 160.7 9.7 C 161.4 9.7 160.3 9.3 160.3 9.3 C 159.5 9.3 157.7 8.9 157.7 9.1 C 159.4 9.2 159.4 9.4 159.9 9.6 C 157.4 9.5 155.1 9.3 155.3 9.0 C 155.3 9.1 155.0 9.1 154.9 9.1 C 155.8 9.2 156.3 9.6 155.3 9.6 C 155.5 9.3 154.8 9.2 154.0 9.1 C 153.9 9.3 150.6 8.7 151.2 9.1 C 152.6 9.0 153.6 9.4 152.6 9.5 C 151.7 9.2 149.9 9.0 150.3 8.8 C 149.8 8.8 149.4 8.9 148.9 8.9 C 148.5 9.1 149.5 9.2 149.4 9.3 C 148.7 9.3 147.6 9.3 147.5 9.1 C 149.4 9.2 146.6 8.9 148.5 8.9 C 147.3 8.8 147.0 8.7 146.1 8.6 C 146.1 8.7 145.8 8.7 145.7 8.7 C 146.5 8.6 147.3 8.8 147.1 9.0 C 145.4 9.0 145.7 8.7 144.3 8.6 C 143.9 8.8 141.9 9.0 141.0 8.8 C 142.9 8.9 140.9 8.6 142.0 8.6 C 143.6 8.8 144.1 8.6 144.7 8.4 C 144.0 8.2 142.6 8.1 142.4 8.4 C 143.3 8.4 143.3 8.3 143.8 8.3 C 143.8 8.4 143.5 8.5 142.9 8.6 C 142.1 8.3 140.4 8.4 141.5 8.2 C 140.3 8.3 139.0 7.9 137.8 8.1 C 139.1 8.2 140.1 8.3 140.5 8.5 C 139.4 8.6 138.3 8.2 138.2 8.4 C 138.3 8.6 140.2 8.6 140.5 8.8 C 139.1 9.0 136.8 8.2 138.6 8.8 C 137.8 8.7 136.7 8.7 136.3 8.6 C 137.3 8.6 136.2 8.2 135.8 8.2 C 135.0 8.1 134.3 8.2 133.9 8.2 C 135.3 8.2 136.3 8.6 135.4 8.5 C 135.1 8.4 134.8 8.6 134.4 8.6 C 134.3 8.4 132.8 8.5 132.6 8.4 C 132.6 8.5 133.3 8.5 133.5 8.6 C 132.6 8.7 131.3 9.0 130.7 8.6 C 131.2 8.6 132.0 8.7 132.0 8.6 C 129.6 8.2 128.8 7.9 125.9 7.7 C 126.3 7.6 126.5 7.6 126.4 7.5 C 124.5 7.4 123.3 7.3 123.6 7.1 C 122.4 7.2 121.8 7.3 121.2 7.4 C 122.4 7.6 122.8 7.4 123.5 7.5 C 123.1 7.6 124.5 8.0 125.0 8.2 C 127.0 8.0 127.1 8.4 129.2 8.3 C 128.6 8.5 130.8 8.4 130.1 8.6 C 128.2 8.2 126.4 8.4 123.5 8.3 C 123.9 8.1 124.2 7.9 123.1 7.8 C 121.3 7.6 122.2 8.0 120.7 7.9 C 120.1 7.7 120.9 7.7 120.2 7.6 C 119.7 7.7 118.3 7.7 117.8 7.4 C 119.8 7.5 117.5 7.2 118.8 7.1 C 118.1 7.1 117.7 7.1 117.3 7.0 C 119.2 7.3 115.4 7.4 116.9 7.6 C 114.2 7.7 116.7 7.0 114.5 7.1 C 115.6 7.2 114.2 7.3 112.6 7.3 C 112.2 7.1 110.5 7.0 109.2 7.0 C 109.9 7.1 110.5 7.1 109.3 7.3 C 109.9 7.4 111.0 7.4 111.6 7.2 C 111.6 7.4 111.9 7.4 112.1 7.5 C 110.6 7.6 111.2 7.7 110.7 7.7 C 110.2 7.6 109.1 7.7 108.8 7.5 C 108.8 7.6 108.4 7.6 108.3 7.7 C 110.3 7.7 108.0 8.1 109.3 8.1 C 110.2 8.1 109.6 7.8 110.7 7.8 C 111.8 8.1 109.8 8.2 109.3 8.4 C 110.2 8.6 111.3 8.2 111.6 8.5 C 110.4 8.8 108.5 8.7 106.9 8.6 C 107.0 9.0 104.3 8.6 104.1 9.0 C 103.9 8.9 103.6 8.9 103.2 8.8 C 102.7 9.1 102.2 8.8 101.7 8.8 C 101.7 8.9 101.8 9.0 102.2 9.1 C 100.3 9.0 99.8 9.0 97.5 9.3 C 97.2 9.1 96.7 9.0 96.6 8.8 C 97.1 8.8 97.6 8.7 98.0 8.6 C 94.9 8.7 96.9 9.3 94.7 9.0 C 94.8 9.1 96.3 9.4 95.2 9.5 C 93.2 9.3 90.5 9.7 90.5 9.0 C 88.8 8.9 87.6 9.4 86.8 9.2 C 86.3 9.2 86.1 9.3 85.9 9.4 C 86.4 9.5 87.1 9.6 87.8 9.7 C 88.8 9.5 89.2 9.7 88.2 9.4 C 89.8 9.3 90.2 9.4 91.0 9.5 C 88.9 9.8 86.9 9.7 86.9 10.1 C 86.2 10.0 85.6 9.8 85.0 9.7 C 84.8 9.9 82.5 10.2 82.3 9.9 C 83.9 9.9 85.5 9.5 84.1 9.4 C 80.1 9.9 78.0 9.6 74.6 10.3 C 74.5 10.1 74.7 9.9 74.1 10.0 C 74.2 10.1 74.0 10.2 73.7 10.3 C 72.7 10.4 72.0 10.4 70.6 10.6 C 70.7 10.4 70.5 10.2 69.7 10.2 C 69.3 10.5 68.0 11.2 67.1 11.2 C 68.0 11.1 66.8 10.9 66.3 11.0 C 66.8 11.3 62.4 11.2 63.7 11.4 C 61.9 11.6 61.2 11.6 61.1 11.5 C 60.5 11.6 60.1 11.8 59.5 11.9 C 59.1 11.6 56.2 12.3 55.7 12.3 C 56.8 12.2 56.9 11.8 56.1 12.0 C 55.6 12.2 53.0 12.9 52.5 12.9 C 52.7 12.8 52.8 12.5 54.1 12.2 C 51.9 12.5 52.0 12.9 51.3 13.3 C 51.4 12.9 50.4 13.4 50.1 13.5 C 49.5 13.5 50.2 13.4 50.1 13.2 C 49.3 13.3 49.1 13.2 48.1 13.4 C 48.4 13.6 47.3 13.7 47.0 13.7 C 46.8 13.9 46.3 14.1 45.5 14.3 C 46.5 13.7 40.6 14.9 42.1 14.9 C 41.0 15.4 40.9 14.9 39.5 15.3 C 39.2 15.5 38.4 15.6 39.2 15.6 C 38.6 15.8 37.8 15.9 37.5 15.9 C 37.2 15.9 36.9 15.9 35.6 16.3 C 36.8 16.3 33.0 17.0 33.7 17.2 C 32.5 17.0 30.7 18.2 28.7 18.4 C 28.7 18.5 28.2 18.7 28.1 18.8 C 27.9 19.0 30.5 18.2 28.8 18.8 C 26.8 19.3 27.8 18.9 27.5 18.8 C 22.3 20.7 17.2 22.9 14.0 24.8 C 14.4 24.7 14.4 24.7 13.8 25.2 C 12.7 25.4 10.0 27.9 9.8 28.4 C 9.4 28.4 8.8 29.7 8.5 29.8 C 8.7 29.6 8.8 29.0 8.4 29.5 C 8.5 29.9 8.1 30.2 8.1 30.7 C 7.7 30.8 7.7 32.2 7.3 31.4 C 7.3 31.7 7.2 31.8 7.1 31.9 C 7.4 32.0 7.3 32.3 7.6 31.9 C 7.1 32.9 7.4 33.1 7.4 34.1 C 7.6 34.2 7.6 33.5 7.7 34.0 C 7.7 34.0 7.6 34.0 7.6 34.0 C 7.6 34.2 7.8 34.2 7.7 34.3 C 7.5 34.4 7.5 34.1 7.2 34.1 C 7.4 34.5 7.2 34.9 7.5 35.0 C 7.3 34.4 7.8 34.6 7.8 35.1 C 7.5 34.8 8.6 36.6 9.2 37.1 C 9.3 37.6 8.7 36.5 8.6 36.7 C 9.5 37.8 9.4 37.8 9.8 37.7 C 10.3 38.4 10.4 38.7 11.5 39.4 C 12.0 39.9 11.0 39.3 11.6 39.8 C 12.0 40.0 12.2 40.0 12.9 40.4 C 14.1 42.0 19.5 43.8 22.2 45.8 C 21.1 45.1 22.7 45.6 24.4 46.3 C 24.4 46.4 24.2 46.4 24.8 46.7 C 24.8 46.5 25.4 46.6 26.6 47.0 C 26.6 47.2 26.4 47.2 27.0 47.5 C 27.6 47.4 29.1 48.1 30.1 48.3 C 30.4 48.7 27.8 47.7 27.6 47.8 C 30.5 49.0 31.2 48.9 33.8 49.7 C 32.4 49.3 34.7 50.2 35.1 50.4 C 34.5 49.9 36.7 50.4 35.2 49.8 C 36.2 50.1 37.8 50.5 38.0 50.6 C 37.4 50.5 36.5 50.3 36.5 50.3 C 37.8 50.6 39.2 51.3 39.5 51.1 C 39.1 51.0 38.7 50.8 38.7 50.6 C 39.1 50.6 39.3 50.6 39.7 50.6 C 38.5 51.0 41.6 51.4 41.8 51.3 C 42.0 51.7 42.2 51.8 42.0 51.9 C 43.3 52.3 43.2 51.9 44.0 52.0 C 43.7 52.3 43.4 52.4 44.6 52.8 C 44.4 52.4 45.9 52.8 45.5 52.4 C 48.7 52.9 49.4 53.4 51.4 53.7 C 51.4 53.6 50.8 53.5 51.4 53.6 C 52.3 53.8 53.1 54.1 53.7 54.3 C 54.3 54.2 53.6 54.0 54.2 54.1 C 55.7 54.6 55.3 54.8 56.6 55.2 C 58.2 55.3 57.6 55.3 58.7 55.2 C 58.2 55.1 57.7 54.9 58.3 55.0 C 59.3 55.3 59.6 55.7 59.9 55.8 C 59.1 55.7 58.6 55.6 58.2 55.4 C 57.9 55.6 56.9 55.4 57.8 55.7 C 56.7 55.5 55.5 55.2 54.0 55.0 C 54.5 55.4 52.7 54.8 53.2 55.2 C 54.9 55.4 55.2 55.7 56.9 55.9 C 56.5 55.5 58.2 56.0 58.5 56.1 C 58.6 55.9 59.7 56.1 59.4 55.9 C 60.7 56.0 60.6 56.2 61.9 56.3 C 62.0 56.4 61.8 56.5 62.3 56.6 C 62.8 56.4 63.2 56.8 63.6 56.9 C 63.4 56.6 65.2 57.0 65.4 56.8 C 64.9 56.7 64.2 56.6 64.1 56.5 C 66.2 56.8 64.5 56.4 64.1 56.1 C 64.2 56.3 63.4 56.5 63.3 56.3 C 65.0 56.3 60.9 55.5 62.4 55.8 C 63.8 56.1 63.7 55.9 65.0 56.1 C 66.6 56.7 64.6 56.7 66.2 57.3 C 67.2 57.2 67.9 57.3 68.0 57.1 C 68.2 57.2 68.4 57.4 68.8 57.5 C 69.3 57.4 67.6 57.0 68.9 57.1 C 69.5 57.3 68.7 57.5 70.2 57.6 C 70.8 57.5 68.5 57.2 69.8 57.2 C 71.1 57.8 69.5 57.1 71.1 57.2 C 71.2 57.3 71.4 57.4 72.0 57.4 C 72.0 57.5 71.8 57.7 72.4 57.8 C 72.7 57.4 72.9 58.0 74.1 58.1 C 74.8 57.8 72.9 57.8 73.3 57.6 C 74.6 58.0 75.4 57.7 76.0 57.8 C 74.9 57.9 77.7 58.2 77.7 58.4 C 77.4 58.1 78.0 58.3 79.6 58.2 C 79.7 58.6 81.5 58.5 81.8 58.9 C 82.1 58.8 82.5 58.7 82.8 58.6 C 82.2 58.6 81.7 58.5 81.9 58.4 C 82.3 58.4 82.8 58.4 83.3 58.5 C 84.0 58.7 82.0 59.1 85.1 59.3 C 84.7 58.9 86.0 59.0 86.9 58.9 C 86.8 58.6 85.7 58.8 85.6 58.7 C 86.6 58.6 87.7 58.8 88.3 59.0 C 90.1 59.0 92.2 59.3 94.8 59.3 C 95.4 59.6 92.6 59.4 94.4 59.6 C 95.1 59.7 94.7 59.4 95.8 59.5 C 94.8 60.5 102.8 60.0 103.3 60.5 C 103.7 60.3 105.9 60.5 105.7 60.2 C 104.2 60.3 103.1 60.0 102.4 59.8 C 100.9 59.9 103.7 60.1 102.4 60.1 C 102.2 60.0 100.3 60.0 100.5 59.8 C 102.5 59.9 99.4 59.5 101.0 59.4 C 102.8 59.5 106.6 59.3 105.7 59.6 C 105.7 59.5 104.9 59.5 104.8 59.6 C 106.9 59.8 108.2 59.6 109.1 59.4 C 110.0 59.6 113.9 59.4 112.9 59.5 C 113.2 59.7 110.6 59.4 111.0 59.6 C 114.9 59.8 115.0 59.6 117.6 59.8 C 116.8 59.5 120.4 59.3 120.0 59.5 C 120.0 59.7 120.8 59.9 122.4 59.6 C 122.2 59.9 123.0 59.9 123.9 60.0 C 124.2 59.8 123.2 59.8 123.3 59.6 C 124.1 59.6 125.0 59.6 125.8 59.6 C 125.8 59.7 125.7 59.8 126.2 59.8 C 127.1 59.6 130.3 59.3 130.0 59.5 C 128.7 59.8 132.2 59.7 130.0 60.0 C 130.6 60.0 130.7 60.0 131.5 60.0 C 131.5 59.9 131.5 59.8 131.5 59.7 C 133.2 59.6 132.4 60.0 133.8 60.0 C 134.0 59.9 134.6 59.9 134.8 59.7 C 134.2 59.8 134.2 59.9 133.4 59.9 C 134.2 59.4 131.8 59.7 131.9 59.4 C 133.6 59.3 133.6 59.6 134.3 59.7 C 136.4 59.4 135.4 59.6 137.6 59.6 C 137.6 59.4 137.0 59.5 137.1 59.3 C 139.8 59.3 139.6 59.8 141.4 59.5 C 141.0 59.6 139.3 59.9 140.5 59.8 C 141.7 59.7 142.1 59.4 143.7 59.3 C 143.8 59.3 143.7 59.5 144.2 59.5 C 144.9 59.3 144.9 59.1 145.6 59.0 C 145.7 59.1 146.6 59.0 147.0 58.9 C 147.6 59.1 146.8 59.2 147.5 59.2 C 148.9 59.1 149.6 58.5 150.7 58.5 C 150.7 58.8 151.9 58.6 153.0 58.5 C 153.2 58.8 155.6 58.5 157.2 58.5 C 156.8 58.3 158.4 58.2 158.0 58.0 C 157.3 58.1 156.8 58.0 156.7 57.9 C 158.4 57.8 159.0 58.2 160.3 57.7 C 161.0 57.8 161.8 57.9 163.0 57.8 C 163.1 57.7 160.9 57.8 162.1 57.6 C 162.2 57.7 162.6 57.6 163.0 57.5 C 162.8 57.8 163.8 57.8 164.4 57.8 C 165.4 57.5 167.6 57.6 166.5 57.4 C 168.2 57.2 167.2 57.8 168.4 57.6 C 167.7 57.4 169.8 57.1 168.8 57.0 C 170.4 56.8 170.3 57.2 169.7 57.4 C 171.2 57.3 171.5 57.0 172.3 57.1 C 171.5 56.9 173.8 56.5 172.7 56.8 C 172.3 57.1 174.1 56.7 174.4 56.8 C 173.9 56.7 174.7 56.6 173.6 56.6 C 174.7 56.4 176.3 56.1 177.4 56.2 C 178.8 55.8 180.1 55.6 179.5 56.0 C 180.8 55.7 180.3 55.8 181.6 55.6 C 181.6 55.5 181.2 55.6 181.1 55.5 C 182.9 55.2 182.6 55.5 184.9 55.1 C 184.6 55.4 186.1 55.2 186.6 55.3 C 185.6 55.4 184.9 55.5 184.1 55.5 C 184.0 55.7 184.7 55.6 184.1 55.8 C 184.0 55.7 183.7 55.7 183.3 55.7 C 184.8 55.7 181.5 56.5 182.5 56.0 C 182.5 56.1 182.6 56.1 182.9 56.1 C 182.6 55.9 182.6 56.0 182.8 55.7 C 182.1 55.9 181.4 55.7 181.2 55.9 C 181.2 56.0 182.0 55.9 182.1 56.0 C 180.2 56.4 181.5 55.7 180.0 56.0 C 179.7 56.4 180.5 56.3 180.9 56.4 C 179.5 56.6 178.3 56.8 177.9 56.7 C 176.6 57.0 178.0 56.9 177.1 57.1 C 176.6 57.1 176.7 56.9 175.8 57.0 C 174.8 57.2 176.3 57.1 175.4 57.3 C 174.3 57.3 176.1 56.9 174.5 57.0 C 174.9 57.3 173.0 57.2 173.2 57.4 C 174.1 57.2 174.2 57.5 173.7 57.4 C 171.5 57.3 170.1 58.4 168.0 58.1 C 168.0 58.2 167.6 58.2 167.6 58.3 C 169.2 58.3 171.5 58.0 172.0 58.3 C 173.2 58.1 173.0 57.9 173.2 57.8 C 174.8 57.9 174.6 57.9 173.8 58.4 C 171.3 58.8 170.2 58.7 168.5 58.8 C 167.7 59.1 168.6 58.9 169.0 59.0 C 163.8 59.4 167.8 59.6 165.9 59.8 C 166.0 59.6 165.6 59.6 165.0 59.6 C 165.0 59.7 164.3 59.8 164.1 59.9 C 164.5 59.9 164.7 59.9 164.6 60.0 C 163.3 60.2 163.8 59.9 163.7 59.8 C 164.7 59.7 165.3 59.6 165.5 59.4 C 164.2 59.7 163.1 59.6 162.3 59.9 C 161.1 59.7 162.9 59.2 162.2 59.0 C 162.4 58.7 161.5 59.6 160.5 59.9 C 158.9 60.0 158.8 60.3 157.3 60.4 C 156.9 60.2 158.8 60.1 158.7 59.9 C 158.2 60.0 158.1 59.9 157.7 59.9 C 156.7 60.1 156.8 60.3 155.9 60.4 C 155.5 60.2 155.2 60.4 154.6 60.5 C 153.5 60.5 155.2 60.3 154.1 60.3 C 152.9 60.4 152.2 60.8 151.8 60.8 C 151.7 60.7 151.9 60.5 151.3 60.5 C 150.0 60.8 149.7 60.8 151.4 60.9 C 149.9 60.9 149.3 61.1 149.5 61.3 C 151.7 61.2 152.2 61.1 153.2 61.4 C 153.6 61.1 154.3 61.2 155.1 61.2 C 154.6 60.8 156.0 61.1 156.5 60.9 C 155.9 60.9 155.4 60.9 155.1 60.8 C 157.4 60.7 157.3 60.7 159.1 60.1 C 159.1 60.3 159.4 60.3 159.6 60.3 C 159.0 60.5 157.4 60.6 157.4 60.8 C 158.7 61.0 159.1 60.5 160.6 60.7 C 161.2 60.4 159.3 60.5 160.5 60.3 C 161.1 60.4 161.9 60.5 162.8 60.5 C 163.8 60.4 164.3 60.2 165.0 60.0 C 165.1 60.1 165.2 60.2 166.0 60.1 C 165.9 60.0 165.2 60.0 165.9 59.9 C 168.3 59.9 169.9 59.9 172.2 59.5 C 171.4 59.5 169.5 59.5 170.4 59.4 C 171.4 59.4 172.8 59.0 173.9 59.0 C 174.2 59.1 172.6 59.1 173.0 59.5 C 174.1 59.3 174.7 59.3 175.2 59.3 C 175.2 59.1 176.4 59.0 176.0 58.8 C 175.2 58.9 175.0 59.2 174.8 59.2 C 175.4 58.4 177.9 58.9 179.5 58.7 C 180.5 58.4 178.7 58.6 179.9 58.3 C 180.6 58.1 181.1 58.6 179.9 58.9 C 179.1 58.9 178.9 59.3 178.7 59.0 C 178.3 59.1 177.8 59.1 177.8 59.2 C 178.4 59.1 178.3 59.3 178.7 59.3 C 177.9 59.4 177.8 59.9 177.0 59.7 C 177.5 59.6 177.7 59.5 177.9 59.4 C 175.6 59.9 174.8 59.7 173.5 59.8 C 174.3 59.9 173.5 59.9 173.6 60.1 C 174.6 59.9 176.5 59.8 175.3 60.1 C 174.5 59.9 174.0 60.7 173.2 60.5 C 173.8 60.4 173.7 60.3 174.0 60.2 C 173.1 60.2 173.1 60.1 172.2 60.1 C 169.4 60.9 167.2 60.5 162.5 61.5 C 160.9 61.7 164.0 61.2 163.8 61.0 C 163.3 61.1 163.2 61.0 162.9 61.1 C 162.9 61.4 162.0 61.1 161.5 61.4 C 161.6 61.2 159.4 61.6 158.3 61.5 C 158.3 61.6 158.4 61.7 157.9 61.8 C 154.5 61.7 148.4 62.6 145.8 62.5 C 145.9 62.7 144.7 62.8 144.4 62.9 C 142.8 63.0 143.5 62.7 141.1 63.1 C 139.9 63.2 141.3 62.9 141.6 62.8 C 138.0 63.1 134.8 63.0 132.5 63.3 C 131.3 63.5 132.5 63.2 130.1 63.2 C 130.1 63.5 126.3 63.1 125.8 63.5 C 124.4 63.6 121.7 63.1 122.9 63.4 C 120.9 63.5 122.3 63.1 121.5 63.1 C 120.1 63.2 121.9 63.7 120.5 63.8 C 120.7 63.5 119.5 63.6 118.6 63.4 C 119.7 63.4 120.4 63.4 120.5 63.2 C 119.6 63.4 119.6 63.2 118.1 63.2 C 117.0 63.4 113.8 63.6 112.8 63.2 C 112.8 63.3 113.1 63.4 113.3 63.4 C 112.4 63.5 111.2 63.2 111.4 63.5 C 109.2 63.5 108.3 63.2 107.1 63.4 C 106.1 63.5 107.4 63.2 104.6 63.1 C 104.6 63.3 99.7 63.1 98.5 62.9 C 98.4 63.2 98.1 62.9 97.5 62.8 C 97.4 62.9 97.6 63.1 97.0 63.0 C 96.9 62.9 96.5 63.0 96.1 63.0 C 96.4 62.6 94.3 63.0 94.2 62.7 C 94.6 62.7 94.6 62.5 94.2 62.5 C 94.1 62.8 92.1 62.2 92.3 62.5 C 92.7 62.6 94.1 62.6 93.7 62.8 C 91.8 62.8 92.6 62.5 91.4 62.4 C 91.4 62.5 92.2 62.7 91.3 62.7 C 90.1 62.5 91.3 62.6 90.4 62.4 C 89.8 62.4 88.5 62.5 88.1 62.4 C 88.2 62.5 87.8 62.3 87.6 62.3 C 85.2 62.0 79.8 61.8 77.5 61.3 C 77.3 61.4 76.8 61.4 77.0 61.5 C 75.6 61.3 75.7 61.4 74.3 61.1 C 74.3 61.2 74.3 61.3 74.3 61.4 C 72.5 61.4 74.1 61.1 72.9 61.0 C 72.8 61.5 72.3 60.7 71.2 60.6 C 71.0 60.7 70.5 60.7 70.7 60.9 C 69.0 60.7 69.1 60.3 67.6 60.3 C 68.0 60.4 68.1 61.2 67.9 61.4 C 67.7 61.2 67.3 61.1 66.6 61.0 C 67.4 60.8 67.1 59.9 65.0 59.9 C 66.1 60.0 66.5 60.1 66.3 60.3 C 64.7 60.1 64.1 59.9 62.8 59.7 C 62.6 59.9 63.5 60.1 63.1 60.3 C 62.8 60.3 62.6 60.3 62.7 60.4 C 61.3 60.1 61.3 59.9 59.7 59.9 C 59.7 59.7 60.0 59.8 60.6 59.9 C 60.5 59.7 60.6 59.5 61.5 59.6 C 61.6 59.8 61.0 60.0 62.3 60.1 C 62.3 60.0 62.4 59.8 62.4 59.7 C 61.4 59.5 59.2 59.0 59.0 59.1 C 59.4 59.3 60.1 59.4 59.7 59.6 C 58.1 59.3 57.7 59.0 56.4 58.7 C 54.1 58.4 50.2 57.6 50.6 58.1 C 49.3 57.7 49.7 57.8 48.6 57.5 C 48.9 57.8 47.2 57.4 47.3 57.6 C 48.7 57.8 48.3 57.8 49.7 58.0 C 49.7 58.1 49.4 58.2 48.9 58.1 C 48.8 58.0 48.2 57.8 47.3 57.7 C 47.4 57.8 48.2 58.2 47.2 58.0 C 47.2 57.9 46.9 57.8 46.5 57.8 C 46.5 57.6 46.5 57.5 46.5 57.4 C 47.1 57.4 47.8 57.5 48.2 57.5 C 47.8 57.4 47.7 57.3 47.4 57.2 C 47.1 57.3 45.5 56.8 45.4 57.0 C 46.0 57.1 46.4 57.3 45.7 57.2 C 45.6 57.2 44.6 56.9 44.2 56.9 C 45.5 57.3 45.0 57.2 45.6 57.6 C 44.1 57.3 44.3 57.1 42.6 56.8 C 42.6 56.6 42.6 56.4 43.1 56.4 C 42.0 55.7 39.4 55.6 38.5 55.3 C 39.1 55.5 39.8 55.3 39.0 55.1 C 38.9 55.2 38.3 55.0 38.2 55.1 C 37.8 55.4 38.5 55.8 39.1 56.3 C 38.4 56.1 38.7 56.3 37.4 55.9 C 37.0 55.7 38.4 55.7 36.8 55.2 C 36.4 55.5 33.8 54.5 33.2 54.6 C 34.3 54.9 35.0 55.2 33.8 54.9 C 34.1 54.8 31.9 54.3 31.8 54.1 C 33.6 54.5 34.2 54.4 35.4 54.8 C 33.9 54.4 36.5 54.8 34.0 54.2 C 32.9 54.0 32.3 54.1 29.9 53.4 C 29.0 53.1 29.9 53.1 28.7 52.7 C 28.9 53.0 26.4 52.3 28.0 52.6 C 27.2 52.3 26.7 52.1 26.2 51.9 C 27.3 52.5 21.7 50.9 22.5 51.4 C 22.6 51.0 22.4 50.7 22.2 50.5 C 21.1 50.4 19.9 49.7 17.5 48.6 C 17.4 48.9 17.1 48.5 16.1 48.0 C 15.8 48.1 16.7 48.6 16.0 48.3 C 14.9 47.6 14.9 47.6 14.7 47.4 C 13.9 47.0 13.4 46.6 13.1 46.4 C 13.0 46.4 13.2 46.6 13.3 46.8 C 10.7 45.0 9.3 44.4 7.6 42.9 C 8.2 43.6 8.7 43.4 8.0 43.0 C 7.7 42.7 7.3 42.5 7.1 42.3 C 7.3 42.9 7.2 42.6 6.4 41.8 C 5.7 41.2 6.4 42.4 5.9 41.9 C 5.4 41.2 5.8 41.5 5.6 41.1 C 5.4 40.8 5.1 40.5 4.9 40.2 C 5.2 40.8 4.6 40.3 4.2 39.9 C 4.7 40.1 4.5 39.8 3.8 38.8 C 3.8 38.6 4.2 39.1 4.0 38.7 C 3.9 38.4 3.1 37.7 3.0 36.9 C 3.1 37.1 3.2 37.2 3.2 37.1 C 2.7 36.4 2.8 35.6 2.8 34.8 C 2.7 35.6 2.4 35.2 2.4 35.6 C 2.4 34.7 2.0 33.8 2.3 33.2 C 2.2 34.3 2.7 33.2 2.7 32.5 C 2.5 32.3 2.6 33.5 2.3 33.2 C 2.0 32.8 2.5 31.9 2.3 31.4 C 2.1 31.5 2.3 32.0 2.1 32.1 C 2.2 31.5 2.0 32.3 2.0 31.8 C 2.3 31.4 2.0 31.0 2.1 30.7 C 2.2 30.3 2.9 29.5 2.8 29.1 C 2.7 29.0 2.5 29.6 2.4 29.7 C 2.9 27.8 3.5 27.4 4.4 25.8 C 4.6 25.7 4.9 25.5 5.2 25.1 C 5.1 25.0 5.3 24.8 5.5 24.4 C 6.2 23.9 6.9 23.4 7.7 22.8 C 7.7 23.0 7.4 23.4 8.5 22.5 C 8.6 22.4 8.0 22.8 8.4 22.4 C 8.5 22.4 8.8 22.2 8.8 22.1 C 8.8 22.1 8.7 22.0 8.7 22.0 C 8.3 22.3 8.0 22.5 7.7 22.8 C 7.7 22.6 7.5 22.6 7.2 22.8 C 8.5 21.5 8.7 22.0 9.6 21.1 C 10.0 21.3 10.3 21.2 9.7 21.9 C 10.5 21.3 11.1 20.8 11.2 20.4 C 10.1 21.2 10.3 20.7 9.9 20.8 C 10.6 20.3 10.6 20.2 10.9 19.9 C 11.9 19.6 10.2 20.9 12.0 19.9 C 10.5 20.4 12.9 19.0 13.9 18.6 C 13.7 18.6 13.3 18.7 13.8 18.4 C 16.3 16.8 16.5 17.7 18.1 16.6 C 18.0 16.8 18.8 16.4 19.2 16.3 C 17.7 17.0 17.4 17.2 16.8 17.6 C 16.9 17.6 17.4 17.4 17.8 17.3 C 17.7 17.1 18.1 17.0 18.8 16.8 C 19.2 16.4 18.8 16.2 20.0 15.5 C 20.1 15.5 20.0 15.7 20.7 15.5 C 21.2 15.0 20.3 16.0 23.0 14.9 C 22.4 15.0 22.1 15.0 22.3 14.8 C 23.5 14.2 23.3 14.4 25.1 13.7 C 25.9 13.8 24.0 14.5 23.6 15.0 C 24.8 14.4 25.7 13.8 27.1 13.6 C 26.1 13.8 27.0 13.3 28.2 12.8 C 29.3 12.5 28.2 13.2 29.6 12.8 C 30.7 12.4 31.2 12.0 30.2 12.2 C 32.6 11.6 31.9 11.5 34.1 10.9 C 34.2 11.1 33.6 11.2 32.8 11.4 C 33.0 11.4 32.7 11.6 33.5 11.4 C 34.9 10.8 38.0 10.0 38.9 9.7 C 40.6 9.7 42.5 8.7 44.3 8.5 C 43.6 8.9 46.6 8.1 47.5 8.2 C 48.0 8.0 49.6 7.2 49.0 7.5 C 49.3 7.8 50.3 7.5 51.1 7.5 C 51.1 7.4 51.1 7.3 51.1 7.2 C 52.9 6.9 53.4 7.0 54.0 7.1 C 56.3 6.6 58.8 6.5 61.6 5.9 C 62.4 6.1 63.0 5.9 64.7 5.9 C 64.7 5.6 66.0 5.4 67.3 5.3 C 67.0 5.1 68.2 5.0 68.2 4.9 C 67.0 5.0 67.4 4.7 66.8 4.6 C 68.4 4.7 69.1 4.1 70.3 4.2 C 68.8 4.5 68.4 4.9 68.2 5.3 C 70.0 5.0 71.0 5.0 71.4 5.1 C 71.5 4.9 71.3 4.8 70.9 4.8 C 71.5 4.7 72.1 4.7 72.6 4.6 C 72.8 4.7 72.0 4.9 72.7 4.8 C 73.1 4.7 73.6 4.6 74.0 4.5 C 74.6 4.6 73.3 4.7 73.2 4.9 C 75.6 4.7 74.5 4.3 75.8 4.1 C 76.2 4.3 76.1 4.5 77.2 4.5 C 77.6 4.3 77.8 4.0 79.0 3.9 C 79.8 3.9 79.0 4.3 79.9 4.2 C 80.1 4.1 80.5 4.1 80.9 4.1 C 80.8 4.0 81.2 3.9 81.8 3.8 C 81.9 3.9 82.8 3.8 83.2 3.7 C 83.3 3.8 84.7 4.0 85.0 3.8 C 85.0 3.7 84.2 3.8 84.1 3.7 C 85.1 3.7 85.9 3.6 86.4 3.5 C 86.8 4.0 88.5 3.4 90.6 3.6 C 91.9 3.3 90.3 3.2 92.0 2.9 C 93.0 3.0 91.8 3.2 92.0 3.4 C 92.3 3.4 93.9 3.5 93.9 3.3 C 93.9 3.2 93.1 3.3 93.0 3.2 C 94.2 2.9 94.2 3.2 94.9 3.3 C 94.8 3.1 95.6 3.0 95.8 2.8 C 99.2 2.5 99.2 2.9 100.6 3.1 C 100.6 3.0 101.4 3.0 101.5 2.9 C 100.5 3.0 99.2 2.8 100.6 2.8 C 100.4 2.9 102.3 2.7 102.5 2.6 C 102.2 2.5 101.0 2.6 101.5 2.3 C 103.3 2.2 102.6 2.7 103.9 2.4 C 104.1 2.6 103.3 2.6 102.9 2.7 C 103.5 2.7 104.3 2.6 104.4 2.7 C 103.7 2.8 103.7 3.0 103.4 3.1 C 104.4 2.9 106.0 3.1 104.9 2.8 C 106.8 2.8 108.6 2.6 107.3 2.4 C 108.8 2.3 107.9 2.7 109.2 2.4 C 109.0 2.7 108.7 2.9 109.7 3.1 C 109.9 2.9 110.7 2.8 110.6 2.6 C 112.9 2.6 113.6 2.9 114.5 3.1 C 113.7 2.7 114.8 3.0 115.9 2.7 C 116.6 2.8 116.0 3.2 117.8 3.1 C 115.8 2.7 120.2 3.0 119.3 2.6 C 121.7 2.8 121.6 2.8 124.1 2.8 C 123.9 3.0 123.3 3.1 122.2 3.1 C 122.9 2.9 120.1 2.9 120.3 3.1 C 120.3 3.1 120.3 3.2 120.3 3.2 C 122.1 3.2 123.3 3.3 124.1 3.4 C 124.5 3.2 125.3 3.1 125.0 2.9 C 126.8 3.2 128.6 2.8 129.4 3.1 C 128.8 3.1 128.2 3.1 128.4 3.2 C 129.1 3.2 130.0 3.1 129.9 2.9 C 128.5 2.8 128.2 2.8 127.5 3.0 C 128.1 2.8 126.1 2.6 127.5 2.6 C 127.4 3.0 130.3 2.5 129.4 2.7 C 127.9 2.8 131.1 2.9 131.3 3.1 C 131.3 3.1 131.3 3.1 131.3 3.1 Z M 172.6 60.1 C 173.9 59.8 172.3 59.8 171.3 59.9 C 171.6 60.0 171.8 60.1 171.8 60.2 C 172.2 60.1 172.5 60.0 172.6 60.1 C 172.6 60.1 172.6 60.1 172.6 60.1 Z M 158.0 58.2 C 157.6 58.5 159.8 58.1 160.8 58.1 C 160.5 58.0 160.2 58.0 160.8 57.9 C 159.8 57.8 159.5 58.2 158.0 58.2 C 158.0 58.2 158.0 58.2 158.0 58.2 Z M 105.7 60.6 C 106.1 60.5 107.0 60.5 107.1 60.6 C 107.6 60.6 107.5 60.5 107.6 60.4 C 108.7 60.4 107.3 60.7 109.0 60.6 C 109.7 60.2 106.1 60.0 105.7 60.6 C 105.7 60.6 105.7 60.6 105.7 60.6 Z M 113.1 6.6 C 113.7 6.7 112.1 6.9 112.6 7.2 C 115.2 6.9 113.2 6.7 116.9 6.7 C 116.6 6.7 116.4 6.6 116.4 6.5 C 114.7 6.6 114.5 6.8 115.0 6.3 C 114.2 6.3 114.0 6.9 113.1 6.6 C 113.1 6.6 113.1 6.6 113.1 6.6 Z M 147.1 8.5 C 146.8 8.4 146.6 8.3 146.6 8.2 C 145.5 8.3 145.8 8.3 144.3 8.1 C 144.5 8.5 145.9 8.6 147.1 8.5 C 147.1 8.5 147.1 8.5 147.1 8.5 Z M 227.6 29.4 C 227.7 29.5 227.8 29.6 227.9 29.7 C 228.0 29.5 228.5 29.7 228.0 29.1 C 227.9 29.1 228.0 29.2 228.0 29.3 C 227.9 29.3 227.6 29.0 227.6 29.1 C 227.7 29.3 227.7 29.3 227.6 29.4 C 227.6 29.4 227.6 29.4 227.6 29.4 Z M 218.6 45.2 C 220.3 44.2 215.7 45.7 218.6 45.2 C 218.6 45.2 218.6 45.2 218.6 45.2 C 218.6 45.2 218.6 45.2 218.6 45.2 Z M 223.4 46.0 C 223.5 46.0 223.8 45.8 223.8 45.8 C 225.1 45.1 223.9 45.9 224.7 45.6 C 225.6 44.8 224.0 45.5 225.2 44.6 C 224.9 44.7 224.2 45.5 223.4 46.0 C 223.4 46.0 223.4 46.0 223.4 46.0 Z M 16.2 17.6 C 15.0 18.2 14.8 18.6 14.7 19.0 C 15.5 18.6 16.2 18.3 16.5 18.2 C 18.1 17.3 15.4 18.6 15.1 18.7 C 15.2 18.4 16.3 17.8 16.2 17.6 C 16.2 17.6 16.2 17.6 16.2 17.6 Z M 12.4 19.7 C 12.0 20.1 11.3 20.6 11.4 20.7 C 12.1 20.3 12.2 20.3 12.3 20.4 C 12.8 19.9 12.0 20.2 12.4 19.7 C 12.4 19.7 12.4 19.7 12.4 19.7 Z M 20.3 16.1 C 19.6 16.4 19.9 16.5 19.9 16.6 C 20.8 16.2 21.0 16.3 22.0 15.9 C 22.0 15.8 22.0 15.7 21.9 15.6 C 21.1 15.9 21.1 16.1 20.4 16.3 C 20.3 16.3 20.3 16.2 20.3 16.1 C 20.3 16.1 20.3 16.1 20.3 16.1 Z M 9.3 22.1 C 7.6 23.4 7.2 24.3 6.7 25.4 C 7.5 24.4 8.2 23.2 9.1 22.6 C 10.1 21.8 8.7 22.8 8.7 22.7 C 8.7 22.6 9.1 22.3 9.3 22.1 C 9.3 22.1 9.3 22.1 9.3 22.1 Z M 3.1 35.7 C 3.0 36.1 3.6 36.6 4.0 37.5 C 3.9 37.3 3.9 37.2 4.0 37.1 C 3.5 35.8 3.4 36.8 3.1 35.7 C 3.1 35.7 3.1 35.7 3.1 35.7 Z M 8.3 42.7 C 9.1 43.3 8.0 42.2 8.5 42.4 C 7.6 41.7 6.9 40.9 6.7 41.1 C 7.6 41.8 7.8 41.9 8.3 42.7 C 8.3 42.7 8.3 42.7 8.3 42.7 Z M 14.9 46.9 C 16.2 47.5 14.5 46.4 15.2 46.4 C 14.7 46.2 14.7 46.4 14.7 46.4 C 14.3 46.2 14.0 46.0 13.4 45.7 C 13.8 46.0 15.2 46.8 14.9 46.9 C 14.9 46.9 14.9 46.9 14.9 46.9 Z M 52.5 8.0 C 51.8 8.2 52.0 8.4 50.5 8.6 C 52.8 8.2 51.6 9.2 54.7 8.5 C 54.2 8.5 54.5 8.4 54.7 8.5 C 55.8 8.1 53.5 8.5 54.6 8.1 C 53.8 8.2 54.3 8.4 53.4 8.6 C 52.5 8.5 52.0 8.5 52.5 8.0 C 52.5 8.0 52.5 8.0 52.5 8.0 Z M 54.7 8.8 C 55.6 8.7 55.5 8.2 55.9 8.4 C 56.3 8.3 56.3 8.3 56.3 8.2 C 56.0 8.3 56.0 8.2 55.9 8.2 C 55.2 8.4 54.5 8.6 54.7 8.8 C 54.7 8.8 54.7 8.8 54.7 8.8 Z M 47.0 10.2 C 48.4 9.8 48.8 9.9 49.4 9.5 C 49.9 9.8 50.3 9.2 51.0 9.4 C 52.4 9.1 51.4 9.2 51.0 9.1 C 52.3 8.8 51.3 9.3 52.6 9.0 C 52.8 8.6 51.2 9.0 51.3 8.7 C 50.3 8.9 50.4 9.1 49.8 9.2 C 49.3 9.3 49.4 9.2 49.3 9.1 C 48.2 9.4 48.2 9.2 47.3 9.4 C 47.1 9.6 47.5 9.6 48.6 9.4 C 47.5 9.7 47.1 10.0 45.8 10.1 C 46.7 9.7 42.7 10.4 43.1 10.7 C 44.2 10.6 43.8 10.4 44.2 10.2 C 45.6 10.2 46.5 10.0 47.0 10.2 C 47.0 10.2 47.0 10.2 47.0 10.2 Z M 21.1 16.6 C 20.6 16.8 20.2 16.9 19.5 17.2 C 19.4 17.0 20.3 16.7 19.4 16.9 C 18.3 17.3 18.1 17.5 17.5 17.8 C 17.9 17.8 20.2 17.1 19.1 17.7 C 19.5 17.6 20.2 17.3 21.2 17.0 C 19.9 17.1 22.8 16.3 23.9 15.9 C 23.7 15.6 26.0 15.3 26.8 14.8 C 26.0 14.8 23.7 15.8 22.8 16.2 C 23.2 16.0 19.9 16.7 21.1 16.6 C 21.1 16.6 21.1 16.6 21.1 16.6 Z M 58.0 8.1 C 58.3 8.0 59.2 7.8 58.5 7.9 C 58.8 7.7 59.6 7.7 59.2 7.4 C 59.7 7.3 60.1 7.3 60.5 7.2 C 60.4 7.4 59.2 7.5 59.7 7.7 C 60.5 7.4 60.2 7.6 61.4 7.4 C 60.8 7.7 61.5 7.7 61.1 8.0 C 61.4 7.9 62.4 7.7 62.3 7.5 C 63.9 7.4 61.9 7.9 64.1 7.6 C 64.1 7.8 62.5 8.0 61.9 8.0 C 61.7 8.3 64.6 7.7 66.3 7.6 C 64.8 7.6 65.9 7.2 66.6 6.9 C 67.1 6.9 66.6 7.1 67.5 7.1 C 68.3 7.0 68.6 6.8 68.9 6.9 C 69.5 6.8 69.2 6.7 69.3 6.6 C 70.3 6.5 69.6 6.9 71.1 6.7 C 69.9 6.5 71.2 6.2 73.3 6.1 C 73.1 6.0 72.5 6.1 72.4 6.0 C 72.6 5.8 73.9 6.0 74.2 6.0 C 74.9 5.9 74.4 5.8 73.7 5.9 C 74.1 5.8 74.6 5.7 75.1 5.5 C 72.8 5.7 69.3 6.2 65.2 6.3 C 66.0 6.4 65.1 6.6 63.9 6.7 C 63.8 6.6 64.3 6.5 64.8 6.4 C 63.4 6.3 63.5 6.9 61.4 7.0 C 60.2 7.1 62.7 6.7 61.3 6.7 C 60.5 6.9 60.0 7.2 59.6 7.0 C 58.3 7.3 57.9 7.6 55.9 7.9 C 57.1 7.9 57.7 8.3 58.9 8.0 C 58.9 8.0 58.4 8.1 58.0 8.1 C 58.0 8.1 58.0 8.1 58.0 8.1 Z M 12.4 20.5 C 11.7 20.9 11.5 21.3 11.2 21.2 C 10.2 22.0 11.5 21.4 11.8 21.3 C 12.2 20.9 12.4 20.7 12.4 20.5 C 12.4 20.5 12.4 20.5 12.4 20.5 Z M 111.8 62.8 C 113.7 62.9 113.3 62.6 114.8 62.6 C 113.6 62.5 113.3 62.3 111.4 62.3 C 111.3 62.5 111.3 62.7 111.8 62.8 C 111.8 62.8 111.8 62.8 111.8 62.8 Z M 16.6 18.4 C 17.6 17.7 15.4 19.4 15.3 19.2 C 14.2 19.9 16.5 18.7 15.5 19.5 C 16.5 18.8 17.3 18.7 18.7 17.9 C 18.5 17.8 17.4 18.3 16.3 18.9 C 16.1 18.8 16.7 18.5 16.6 18.4 C 16.6 18.4 16.6 18.4 16.6 18.4 Z M 93.3 61.5 C 92.1 61.6 94.4 62.0 95.2 62.1 C 95.2 61.8 94.8 61.8 93.3 61.5 C 93.3 61.5 93.3 61.5 93.3 61.5 Z M 124.4 62.4 C 125.0 62.1 122.2 62.4 122.9 62.1 C 122.1 62.1 122.0 62.2 121.9 62.2 C 121.5 62.2 120.1 62.2 120.5 62.0 C 120.3 61.8 122.7 62.0 121.9 61.8 C 122.7 61.7 122.8 61.8 123.4 61.8 C 122.0 61.8 122.6 62.1 124.3 62.1 C 124.3 61.9 123.6 62.0 124.3 61.8 C 124.4 61.9 125.3 62.1 125.3 62.5 C 126.8 62.4 125.9 62.0 127.7 62.0 C 127.5 61.9 126.4 61.9 125.7 61.8 C 125.9 61.5 127.6 62.0 127.2 61.6 C 127.6 61.8 128.6 61.9 128.6 62.1 C 127.3 62.3 126.4 62.5 125.3 62.6 C 126.3 62.8 127.8 62.2 129.6 62.4 C 129.4 62.2 130.5 62.2 130.1 62.0 C 131.5 62.0 130.8 62.3 130.6 62.3 C 130.9 62.5 133.6 62.3 133.4 62.1 C 133.6 62.3 136.9 62.1 136.7 61.8 C 137.7 62.0 139.2 61.5 139.6 61.9 C 140.2 61.7 141.3 61.7 142.5 61.6 C 142.8 61.4 140.7 61.6 140.6 61.4 C 140.2 61.2 142.8 61.4 142.4 61.2 C 142.4 61.1 142.4 61.1 142.4 61.0 C 141.5 61.1 140.5 61.3 139.6 61.4 C 138.9 61.4 139.8 61.3 139.6 61.1 C 138.9 61.3 135.9 61.8 135.8 61.3 C 133.8 61.5 132.3 61.5 131.5 61.7 C 130.3 61.7 132.2 61.5 131.5 61.4 C 127.9 61.8 123.5 61.5 120.5 61.8 C 119.9 61.8 120.1 61.7 120.0 61.5 C 115.9 61.7 119.4 62.0 116.2 61.9 C 116.2 61.7 117.7 61.8 117.6 61.5 C 116.5 61.5 116.2 61.7 114.7 61.6 C 114.7 61.7 114.7 61.8 114.7 61.9 C 113.5 61.9 114.0 61.6 113.3 61.5 C 111.8 61.6 112.1 61.7 111.4 61.4 C 110.0 61.5 108.6 61.5 107.1 61.4 C 106.1 61.5 107.9 62.0 109.5 62.0 C 109.4 62.1 109.0 62.1 109.0 62.2 C 107.2 61.9 106.9 61.4 104.2 61.3 C 106.3 61.6 103.2 61.4 102.8 61.2 C 101.7 61.2 102.5 61.5 103.2 61.5 C 103.1 61.6 102.4 61.5 102.3 61.4 C 102.2 61.8 104.8 62.0 107.5 62.0 C 106.2 62.4 109.5 62.0 108.0 62.5 C 110.3 62.4 108.4 62.1 110.9 62.2 C 110.6 62.1 110.2 62.0 109.9 61.9 C 111.9 61.8 111.3 62.2 113.3 62.1 C 113.6 61.9 112.3 62.0 112.3 61.8 C 114.5 62.1 115.2 62.2 116.7 62.4 C 117.0 62.3 116.6 62.0 119.1 62.2 C 119.1 62.2 119.1 62.3 119.1 62.3 C 117.9 62.3 117.6 62.8 120.5 62.7 C 120.7 62.6 119.8 62.6 119.1 62.6 C 119.4 62.4 120.3 62.4 121.4 62.3 C 122.0 62.4 122.7 62.5 121.9 62.5 C 122.4 62.7 122.8 62.3 124.4 62.4 C 124.4 62.4 124.4 62.4 124.4 62.4 Z M 3.3 34.1 C 3.4 34.3 3.4 34.5 3.5 35.0 C 3.8 35.1 3.6 34.3 3.7 34.3 C 3.6 33.7 3.4 34.2 3.3 34.1 C 3.3 34.1 3.3 34.1 3.3 34.1 Z M 6.2 26.0 C 6.0 25.9 5.9 26.5 5.4 27.0 C 5.4 27.3 5.9 26.6 6.0 26.7 C 6.6 26.0 5.6 26.6 6.2 26.0 C 6.2 26.0 6.2 26.0 6.2 26.0 Z M 4.1 29.3 C 3.8 29.5 4.1 29.6 4.3 29.0 C 4.4 29.1 4.5 29.3 4.4 29.7 C 4.8 29.4 4.5 28.9 5.0 28.3 C 4.7 28.4 4.4 28.8 4.1 29.3 C 4.1 29.3 4.1 29.3 4.1 29.3 Z M 3.7 30.4 C 3.8 30.9 3.4 31.1 3.5 31.9 C 3.7 31.8 4.0 30.1 4.0 29.8 C 3.9 29.5 3.4 31.3 3.7 30.4 C 3.7 30.4 3.7 30.4 3.7 30.4 Z M 74.9 59.7 C 75.3 59.8 75.3 59.7 75.3 59.6 C 76.7 60.1 78.7 60.2 77.1 60.4 C 78.6 60.3 79.9 60.8 81.2 61.0 C 82.2 61.1 81.7 60.8 82.6 60.8 C 83.9 61.0 81.9 60.9 82.1 61.0 C 82.4 61.2 82.8 60.9 84.4 61.1 C 84.0 60.7 85.8 61.3 85.3 60.8 C 86.2 61.0 86.5 60.9 87.7 61.0 C 87.6 60.8 86.4 60.7 86.3 60.6 C 85.7 60.3 85.7 60.7 86.8 60.8 C 86.1 61.0 84.5 60.5 84.0 60.6 C 83.4 60.3 85.5 60.7 84.9 60.4 C 84.5 60.4 84.1 60.4 84.0 60.5 C 83.3 60.4 82.9 60.3 82.6 60.1 C 83.0 60.1 83.1 60.2 83.1 60.2 C 83.9 60.3 82.3 59.8 84.1 59.9 C 83.7 59.8 83.0 59.7 83.1 59.6 C 82.6 59.4 83.1 60.3 81.3 59.8 C 80.0 60.0 84.1 60.3 83.0 60.7 C 80.5 60.4 82.0 60.2 79.9 60.0 C 79.9 60.1 79.9 60.2 79.4 60.2 C 79.5 60.3 80.2 60.3 80.8 60.4 C 80.7 60.5 79.9 60.4 79.4 60.3 C 79.5 60.4 79.9 60.4 79.9 60.5 C 78.1 60.3 78.4 59.8 79.9 59.8 C 79.9 59.6 77.8 59.4 77.2 59.5 C 77.7 59.7 77.1 59.6 77.6 59.9 C 78.0 60.0 77.9 59.9 78.1 59.8 C 78.9 59.9 78.1 60.0 78.1 60.0 C 77.1 59.9 77.2 59.7 76.3 59.8 C 76.5 59.8 76.7 59.7 76.7 59.6 C 76.3 59.5 75.8 59.5 75.4 59.5 C 75.4 59.6 74.8 59.6 74.9 59.7 C 74.9 59.7 74.9 59.7 74.9 59.7 Z M 99.0 62.1 C 100.5 62.2 99.7 62.0 99.0 61.9 C 99.3 61.9 99.8 61.8 100.4 61.8 C 99.9 61.7 99.5 61.8 98.0 61.6 C 99.4 61.4 98.0 60.9 95.7 60.8 C 95.0 61.2 96.9 61.4 96.2 61.6 C 97.9 61.6 98.8 61.8 99.0 62.1 C 99.0 62.1 99.0 62.1 99.0 62.1 Z M 11.8 21.4 C 11.1 21.8 10.4 22.3 9.8 22.8 C 10.0 22.9 12.2 21.6 11.8 21.4 C 11.8 21.4 11.8 21.4 11.8 21.4 Z M 76.8 5.7 C 77.2 5.6 77.3 5.7 77.3 5.7 C 78.7 5.5 76.7 5.6 77.3 5.3 C 76.8 5.4 76.4 5.4 75.9 5.5 C 75.9 5.6 77.8 5.5 76.4 5.7 C 76.5 5.8 76.8 5.7 76.8 5.7 C 76.8 5.7 76.8 5.7 76.8 5.7 Z M 3.5 33.4 C 3.7 34.0 3.9 33.6 4.1 34.8 C 4.1 34.4 4.0 34.1 3.9 33.4 C 3.8 33.4 3.7 33.4 3.5 33.4 C 3.5 33.4 3.5 33.4 3.5 33.4 Z M 68.2 59.4 C 69.2 59.8 69.6 59.2 71.7 59.6 C 70.7 59.2 69.4 59.4 68.2 59.4 C 68.2 59.4 68.2 59.4 68.2 59.4 Z M 146.2 61.0 C 145.5 61.0 146.4 60.9 145.2 60.9 C 144.6 61.0 144.3 61.1 143.4 61.2 C 144.7 61.4 147.1 61.0 148.1 61.3 C 149.2 61.2 149.1 61.0 149.4 60.7 C 148.9 60.8 148.6 60.8 148.5 60.7 C 147.9 61.1 147.0 60.6 146.2 61.0 C 146.2 61.0 146.2 61.0 146.2 61.0 Z M 92.8 61.4 C 92.0 61.2 93.5 61.2 93.8 61.0 C 94.4 61.1 94.2 61.3 94.3 61.4 C 95.1 61.4 95.3 61.3 95.2 61.1 C 93.7 61.0 91.7 60.8 92.9 60.6 C 91.4 60.4 92.2 60.8 91.5 60.8 C 90.6 60.6 91.4 60.6 91.5 60.3 C 91.1 60.4 90.0 60.6 90.1 60.3 C 87.8 60.4 88.8 60.9 90.5 61.4 C 92.0 61.2 90.2 61.0 92.8 61.4 C 92.8 61.4 92.8 61.4 92.8 61.4 Z M 38.5 53.8 C 38.6 53.9 39.2 54.0 39.2 54.1 C 40.0 54.1 40.8 54.0 41.6 54.0 C 41.5 53.7 40.4 53.7 40.8 53.9 C 40.5 53.7 39.8 53.5 39.4 53.2 C 38.7 53.0 38.2 53.4 38.1 53.0 C 36.7 52.8 37.5 53.0 35.3 52.3 C 38.7 53.5 34.0 52.1 33.7 52.3 C 35.7 52.9 37.6 53.4 37.4 53.0 C 38.9 53.5 39.5 53.7 39.6 54.0 C 39.5 54.1 38.9 53.9 38.5 53.8 C 38.5 53.8 38.5 53.8 38.5 53.8 Z M 43.1 54.1 C 42.8 54.1 42.5 54.1 42.0 54.0 C 42.3 54.1 42.4 54.2 42.3 54.4 C 43.3 54.6 43.5 54.5 43.8 54.8 C 44.7 55.0 43.7 54.4 45.0 54.8 C 44.9 54.7 44.3 54.6 44.3 54.5 C 44.1 54.6 43.6 54.5 43.1 54.1 C 43.1 54.1 43.1 54.1 43.1 54.1 Z M 55.4 56.9 C 56.5 57.1 54.9 56.7 55.4 56.6 C 55.2 56.6 53.1 56.2 53.4 56.0 C 52.9 55.6 50.7 55.9 51.0 55.5 C 50.5 55.5 50.7 55.6 50.6 55.7 C 52.0 55.9 52.0 56.1 50.9 55.9 C 51.1 56.1 51.9 56.2 52.5 56.3 C 52.6 56.2 52.1 56.0 52.2 55.9 C 53.4 56.3 54.3 56.6 55.4 56.9 C 55.4 56.9 55.4 56.9 55.4 56.9 Z M 128.3 4.3 C 127.2 4.3 126.5 4.3 126.0 4.4 C 126.3 4.5 126.8 4.4 127.4 4.4 C 127.5 4.5 127.0 4.5 126.4 4.5 C 127.0 4.8 129.0 4.6 128.3 4.3 C 128.3 4.3 128.3 4.3 128.3 4.3 Z M 118.8 4.2 C 117.7 4.2 117.0 4.3 116.9 4.4 C 117.3 4.5 117.1 4.3 117.8 4.3 C 118.3 4.4 118.5 4.5 118.8 4.6 C 119.2 4.6 119.1 4.5 119.3 4.4 C 119.7 4.4 119.7 4.4 119.8 4.5 C 121.1 4.2 118.2 4.5 118.8 4.2 C 118.8 4.2 118.8 4.2 118.8 4.2 Z M 48.5 55.6 C 48.2 55.4 48.0 55.2 47.0 55.0 C 47.2 55.2 46.4 55.1 45.8 54.9 C 46.7 55.3 47.1 55.3 48.5 55.6 C 48.5 55.6 48.5 55.6 48.5 55.6 Z M 61.1 8.2 C 59.8 8.2 59.9 8.6 58.1 8.6 C 58.1 8.7 58.1 8.8 58.1 8.9 C 59.2 8.5 59.7 8.6 61.1 8.2 C 61.1 8.2 61.1 8.2 61.1 8.2 Z M 231.8 36.9 C 231.7 36.7 231.4 37.5 231.2 37.5 C 231.4 37.8 230.8 37.9 229.6 39.3 C 229.5 39.3 229.5 39.1 229.7 39.0 C 228.7 40.0 230.2 38.8 230.5 38.8 C 231.1 37.9 231.4 37.8 231.8 36.9 C 231.8 36.9 231.8 36.9 231.8 36.9 Z M 132.0 61.0 C 131.9 61.0 132.2 61.0 132.4 61.0 C 132.8 61.0 133.1 61.0 133.4 61.0 C 133.3 60.7 131.7 60.6 132.9 60.2 C 132.5 60.2 132.4 60.2 132.4 60.3 C 130.1 61.1 128.3 59.9 125.3 60.4 C 124.8 60.5 124.9 60.6 124.8 60.6 C 125.2 60.6 125.2 60.6 125.3 60.7 C 125.6 60.4 128.4 60.7 127.2 60.8 C 127.3 60.9 127.6 60.9 127.6 60.8 C 128.0 60.8 128.3 60.8 128.6 60.8 C 128.4 60.7 127.8 60.7 127.6 60.6 C 129.2 60.6 131.0 60.7 130.1 61.0 C 131.0 61.0 131.3 60.8 132.0 60.7 C 132.6 60.7 132.6 60.9 132.0 61.0 C 132.0 61.0 132.0 61.0 132.0 61.0 Z M 144.2 60.4 C 145.7 60.3 145.1 60.1 146.6 60.1 C 145.7 59.9 144.6 60.3 143.3 60.2 C 143.5 60.3 144.1 60.2 144.2 60.4 C 144.2 60.4 144.2 60.4 144.2 60.4 Z M 116.7 60.7 C 117.0 60.4 115.7 60.4 114.3 60.4 C 114.0 60.7 115.2 60.7 116.7 60.7 C 116.7 60.7 116.7 60.7 116.7 60.7 Z M 122.9 60.7 C 124.3 60.6 121.1 60.7 121.9 60.4 C 121.3 60.4 120.6 60.4 120.5 60.3 C 120.0 60.4 120.0 60.5 119.1 60.5 C 119.1 60.7 120.6 60.5 120.5 60.7 C 121.6 60.6 121.8 60.6 122.9 60.7 C 122.9 60.7 122.9 60.7 122.9 60.7 Z M 123.8 60.7 C 124.8 60.6 123.6 60.2 122.4 60.2 C 122.8 60.4 123.1 60.6 123.8 60.7 C 123.8 60.7 123.8 60.7 123.8 60.7 Z M 15.2 44.4 C 15.8 44.7 15.5 44.2 16.1 44.6 C 16.2 44.5 13.8 43.2 15.8 44.2 C 15.2 43.6 14.6 43.8 13.8 43.2 C 14.0 43.4 14.2 43.6 13.7 43.4 C 13.4 43.4 15.6 44.3 15.2 44.4 C 15.2 44.4 15.2 44.4 15.2 44.4 Z M 17.7 45.7 C 18.3 45.9 18.0 45.7 17.8 45.6 C 17.9 45.5 18.6 45.9 19.2 46.1 C 19.2 46.3 18.4 45.4 18.5 45.2 C 16.1 44.3 17.8 45.4 17.7 45.7 C 17.7 45.7 17.7 45.7 17.7 45.7 Z M 20.1 46.6 C 21.7 47.4 24.1 48.3 25.4 48.5 C 24.2 47.7 21.0 46.6 20.1 46.6 C 20.1 46.6 20.1 46.6 20.1 46.6 Z M 8.5 39.3 C 9.6 40.9 13.3 43.2 10.5 40.6 C 10.5 40.8 8.6 39.4 8.0 38.5 C 7.9 38.6 7.1 37.8 7.2 37.7 C 6.6 37.2 8.7 39.8 8.5 39.3 C 8.5 39.3 8.5 39.3 8.5 39.3 Z M 27.9 48.8 C 26.9 48.6 28.0 49.5 26.6 48.8 C 25.7 48.6 26.8 49.0 26.5 49.1 C 28.3 49.7 32.4 50.6 32.7 51.0 C 33.8 51.2 34.1 51.1 36.2 51.7 C 36.3 51.6 29.1 49.9 27.8 49.0 C 28.0 48.9 30.3 49.7 27.9 48.8 C 27.9 48.8 27.9 48.8 27.9 48.8 Z M 61.3 9.6 C 61.4 9.4 59.6 9.8 60.0 9.5 C 59.1 9.9 58.1 9.9 57.1 10.3 C 56.8 10.2 56.8 9.9 55.4 10.0 C 55.4 10.3 56.1 10.1 55.4 10.4 C 54.1 10.6 54.4 10.3 52.9 10.6 C 53.2 11.0 49.8 11.3 50.2 11.6 C 51.0 11.4 50.9 11.2 52.2 11.1 C 52.6 11.0 52.5 11.2 53.0 11.1 C 52.7 11.4 51.9 11.2 51.4 11.5 C 51.6 11.6 52.5 11.4 52.7 11.6 C 53.3 11.4 52.5 11.5 52.6 11.3 C 54.2 11.0 52.6 11.9 54.3 11.5 C 54.0 11.3 54.0 11.3 54.3 11.0 C 55.0 11.0 57.1 10.5 55.9 11.0 C 56.1 11.2 57.3 10.7 57.2 10.6 C 57.8 10.4 57.9 10.5 58.0 10.6 C 59.8 10.2 60.0 10.0 59.6 9.8 C 59.9 9.5 60.2 9.9 61.3 9.6 C 61.3 9.6 61.3 9.6 61.3 9.6 Z M 5.6 31.9 C 5.5 31.4 5.6 32.5 5.5 33.1 C 5.5 32.4 5.9 32.6 6.0 32.0 C 5.9 32.2 5.8 32.2 5.9 31.7 C 5.8 31.6 5.5 32.6 5.6 31.9 C 5.6 31.9 5.6 31.9 5.6 31.9 Z M 39.6 52.5 C 39.9 52.8 41.9 53.1 42.9 53.4 C 42.8 52.9 40.2 52.9 40.0 52.4 C 39.4 52.3 40.3 52.7 39.6 52.5 C 39.6 52.5 39.6 52.5 39.6 52.5 Z M 45.8 12.0 C 45.4 12.1 45.6 12.1 45.8 12.1 C 45.7 12.2 44.9 12.3 44.3 12.5 C 45.2 12.4 44.1 12.7 44.4 12.9 C 43.9 13.0 43.7 13.1 43.6 13.2 C 43.5 12.7 41.3 13.9 43.7 13.5 C 43.2 13.3 43.4 13.3 44.4 13.0 C 45.5 13.0 46.3 12.6 46.8 12.8 C 47.5 12.6 47.7 12.4 48.7 12.2 C 48.9 12.4 49.8 12.3 49.2 12.8 C 50.9 12.4 49.6 12.1 51.1 11.8 C 52.5 11.7 50.4 12.2 50.8 12.3 C 51.1 12.2 51.1 12.4 51.2 12.4 C 51.7 12.3 51.6 12.1 51.1 12.2 C 51.3 12.0 52.7 11.6 52.3 11.9 C 53.1 11.7 50.9 11.4 49.8 11.9 C 49.2 12.1 49.1 11.6 49.8 11.5 C 49.5 11.4 48.3 12.1 48.5 11.6 C 48.0 11.7 47.5 11.8 47.0 11.9 C 47.1 11.9 47.4 11.9 47.4 12.0 C 46.9 12.1 46.4 12.2 45.8 12.3 C 46.3 12.1 46.3 12.0 45.8 12.0 C 45.8 12.0 45.8 12.0 45.8 12.0 Z M 31.5 50.3 C 33.1 50.8 33.5 50.8 34.9 51.1 C 34.4 50.8 30.8 49.8 31.5 50.3 C 31.5 50.3 31.5 50.3 31.5 50.3 Z M 68.7 9.4 C 68.6 9.3 67.8 9.4 67.8 9.3 C 69.2 9.1 67.6 9.1 68.6 8.6 C 66.9 9.0 66.4 9.6 68.7 9.5 C 70.4 9.3 67.0 9.6 68.7 9.4 C 68.7 9.4 68.7 9.4 68.7 9.4 Z M 63.5 9.9 C 62.5 10.1 65.1 9.9 65.7 9.9 C 65.7 10.0 65.7 10.1 65.7 10.2 C 67.2 9.6 65.2 9.7 66.4 9.1 C 64.7 9.2 64.0 9.2 62.6 9.5 C 62.7 9.6 63.0 9.5 63.0 9.5 C 64.1 9.4 63.4 9.8 62.2 9.8 C 62.5 9.9 63.6 9.7 64.3 9.7 C 64.1 9.7 63.9 9.6 63.9 9.5 C 64.8 9.3 64.5 9.6 65.2 9.5 C 65.2 9.6 63.5 10.0 63.5 9.9 C 63.5 9.9 63.5 9.9 63.5 9.9 Z M 155.0 7.4 C 154.1 7.4 156.0 7.9 155.9 8.2 C 156.8 8.4 157.1 8.3 157.7 8.3 C 157.4 8.1 156.3 8.0 155.9 7.8 C 156.1 7.5 157.3 8.0 157.7 7.8 C 158.3 7.5 155.4 7.8 155.0 7.4 C 155.0 7.4 155.0 7.4 155.0 7.4 Z M 21.6 19.3 C 21.0 19.5 21.4 19.5 21.6 19.4 C 21.5 19.5 20.7 19.9 20.6 19.8 C 19.9 20.1 21.1 19.7 20.2 20.1 C 20.1 20.4 21.6 19.5 21.6 19.5 C 22.7 19.0 22.0 19.6 22.3 19.6 C 23.3 19.2 22.9 19.2 24.3 18.7 C 23.4 18.9 22.6 19.0 21.6 19.3 C 21.6 19.3 21.6 19.3 21.6 19.3 Z M 71.7 8.5 C 71.9 8.4 70.7 9.0 69.5 9.0 C 68.0 9.1 70.5 9.1 69.1 9.2 C 70.3 9.2 71.7 8.8 73.5 8.6 C 73.9 8.4 71.0 8.8 72.6 8.5 C 72.5 8.4 72.1 8.5 72.2 8.6 C 71.8 8.6 71.8 8.6 71.7 8.5 C 71.7 8.5 71.7 8.5 71.7 8.5 Z M 70.0 9.3 C 70.1 9.4 70.5 9.3 70.5 9.2 C 71.0 9.2 71.1 9.4 70.5 9.5 C 71.3 9.7 71.2 9.2 72.7 9.2 C 72.0 9.0 71.7 8.9 73.1 9.0 C 74.2 8.6 70.5 9.1 70.0 9.3 C 70.0 9.3 70.0 9.3 70.0 9.3 Z M 140.2 6.6 C 140.3 6.8 141.3 6.8 142.0 6.8 C 141.1 7.0 137.3 6.7 136.9 6.5 C 136.4 6.5 136.0 6.6 135.9 6.5 C 135.9 6.5 134.9 6.6 135.4 6.7 C 135.3 6.8 134.5 6.7 134.5 6.8 C 133.1 6.7 134.9 6.7 134.5 6.5 C 132.8 6.7 133.2 6.5 131.2 6.4 C 131.5 6.6 133.7 6.6 133.5 7.0 C 135.1 6.7 136.8 7.0 137.7 7.3 C 136.3 6.8 141.8 6.9 144.4 7.1 C 144.3 7.3 145.2 7.3 146.2 7.5 C 146.9 7.7 146.7 7.2 145.3 7.2 C 145.4 7.1 147.3 7.3 148.1 7.3 C 147.1 7.1 147.7 7.1 147.2 7.0 C 145.4 6.8 147.0 7.0 146.7 7.2 C 146.2 7.1 145.8 7.1 145.3 7.1 C 147.8 6.8 141.7 6.8 143.9 6.9 C 142.0 6.8 142.0 6.6 140.2 6.6 C 140.2 6.6 140.2 6.6 140.2 6.6 Z M 95.5 6.6 C 95.2 6.7 93.7 6.9 93.7 6.7 C 91.8 7.0 93.4 7.2 91.3 7.3 C 91.5 7.4 92.3 7.3 92.3 7.4 C 93.1 7.3 93.9 7.1 93.7 6.9 C 94.6 6.9 94.9 6.8 95.5 6.7 C 95.3 6.8 94.9 6.9 94.1 7.0 C 94.0 7.2 94.3 7.3 95.6 7.2 C 96.1 7.0 95.7 6.8 95.5 6.6 C 95.5 6.6 95.5 6.6 95.5 6.6 Z M 90.9 7.2 C 90.6 7.2 90.3 7.1 90.4 7.0 C 89.7 6.8 90.1 7.4 89.5 7.4 C 88.9 7.4 89.1 7.3 89.0 7.2 C 88.2 7.3 87.5 7.4 87.1 7.3 C 85.9 7.5 88.6 7.4 89.0 7.5 C 89.9 7.4 89.6 7.3 90.9 7.2 C 90.9 7.2 90.9 7.2 90.9 7.2 Z M 77.1 8.1 C 76.8 7.9 76.4 8.3 75.8 8.3 C 76.2 8.5 77.5 8.2 76.7 8.6 C 78.0 8.5 78.1 8.5 79.4 8.3 C 80.3 8.5 79.4 8.1 78.0 8.4 C 78.2 8.3 78.8 8.2 78.9 8.1 C 79.8 8.5 82.1 7.5 80.7 8.0 C 80.3 8.0 80.0 7.9 79.8 7.8 C 79.5 8.1 76.4 8.2 77.1 8.1 C 77.1 8.1 77.1 8.1 77.1 8.1 Z M 34.0 15.7 C 35.3 15.3 36.0 15.1 36.7 14.9 C 37.4 14.7 38.5 14.5 39.2 14.3 C 39.3 14.4 39.2 14.5 38.9 14.6 C 39.2 14.6 39.7 14.4 40.3 14.2 C 40.3 14.2 40.0 14.3 40.0 14.3 C 38.8 14.4 39.8 14.2 39.9 13.9 C 38.4 14.1 35.8 15.2 34.6 15.2 C 33.6 15.5 34.8 15.3 34.0 15.7 C 34.0 15.7 34.0 15.7 34.0 15.7 Z M 230.4 35.1 C 230.5 35.3 230.3 35.6 230.5 35.6 C 230.6 35.3 230.6 35.0 230.7 34.7 C 230.4 35.3 230.2 35.1 229.8 35.8 C 230.0 35.6 230.2 35.8 230.4 35.1 C 230.4 35.1 230.4 35.1 230.4 35.1 Z M 81.6 7.7 C 81.7 7.8 81.7 8.0 81.2 8.0 C 81.0 8.2 82.5 8.0 82.6 8.1 C 83.1 8.1 82.9 8.0 83.5 7.9 C 83.3 7.8 82.1 8.0 82.5 7.7 C 82.9 7.6 83.0 7.7 83.0 7.7 C 83.9 7.5 82.5 7.6 81.6 7.7 C 81.6 7.7 81.6 7.7 81.6 7.7 Z M 159.5 8.1 C 158.9 8.1 159.5 8.2 160.0 8.3 C 158.7 8.4 160.7 8.7 160.8 9.0 C 160.3 8.7 158.4 8.7 158.1 8.6 C 157.6 8.6 158.2 8.9 156.7 8.8 C 156.9 9.0 158.5 9.0 158.1 8.8 C 158.5 9.1 160.1 8.9 159.9 9.2 C 161.9 9.4 162.4 9.3 162.6 9.0 C 160.6 8.9 161.7 8.6 160.0 8.5 C 160.0 8.4 160.5 8.5 160.9 8.5 C 160.7 8.4 160.0 8.2 159.5 8.1 C 159.5 8.1 159.5 8.1 159.5 8.1 Z M 110.7 6.3 C 109.6 6.3 109.7 6.5 109.7 6.7 C 110.1 6.6 110.8 6.6 111.6 6.6 C 111.4 6.5 110.1 6.6 110.7 6.3 C 110.7 6.3 110.7 6.3 110.7 6.3 Z M 152.2 7.8 C 152.1 7.7 151.8 7.7 151.8 7.7 C 150.6 7.7 150.3 7.5 149.9 7.4 C 149.3 7.4 149.5 7.6 149.5 7.7 C 150.6 7.5 150.3 7.8 151.8 7.9 C 151.7 7.8 151.9 7.8 152.2 7.8 C 152.2 7.8 152.2 7.8 152.2 7.8 Z M 120.7 6.4 C 120.1 6.4 120.4 6.5 120.7 6.5 C 120.0 6.7 118.1 6.5 117.3 6.6 C 117.2 6.8 119.7 6.8 116.9 6.9 C 117.4 7.1 119.9 6.9 121.1 7.0 C 120.9 7.2 119.1 7.2 119.2 7.4 C 120.7 7.3 122.3 7.2 122.6 6.8 C 120.4 6.8 121.2 6.6 120.7 6.4 C 120.7 6.4 120.7 6.4 120.7 6.4 Z M 123.0 6.6 C 122.9 6.4 122.4 6.6 121.7 6.6 C 122.8 6.9 123.5 6.7 125.9 6.8 C 125.9 6.8 125.9 6.7 125.9 6.7 C 126.4 6.7 126.9 6.7 127.4 6.7 C 125.3 6.4 124.8 6.6 122.6 6.6 C 122.5 6.6 122.8 6.6 123.0 6.6 C 123.0 6.6 123.0 6.6 123.0 6.6 Z M 61.4 10.3 C 62.0 10.4 62.5 10.5 63.5 10.4 C 63.4 10.1 62.8 10.1 61.4 10.3 C 61.4 10.3 61.4 10.3 61.4 10.3 Z M 154.0 8.1 C 155.3 8.0 152.8 8.0 153.6 8.3 C 154.5 8.5 155.6 8.6 155.8 8.9 C 157.6 8.7 153.8 8.4 154.0 8.1 C 154.0 8.1 154.0 8.1 154.0 8.1 Z M 145.7 8.1 C 145.2 8.0 145.2 7.6 145.7 7.9 C 147.0 8.0 144.6 7.6 146.6 7.8 C 145.8 7.6 143.8 7.4 142.9 7.5 C 143.0 7.7 144.7 7.7 144.8 7.9 C 144.9 8.0 144.6 8.0 144.3 8.0 C 144.5 8.1 144.9 8.0 145.7 8.1 C 145.7 8.1 145.7 8.1 145.7 8.1 Z M 138.7 7.3 C 139.5 7.5 140.4 7.6 142.0 7.7 C 141.0 7.5 140.4 7.2 138.7 7.3 C 138.7 7.3 138.7 7.3 138.7 7.3 Z M 223.9 24.9 C 223.1 24.4 223.7 25.0 223.7 25.1 C 224.5 25.7 224.5 25.5 225.3 26.1 C 225.2 25.7 224.3 25.4 223.9 24.9 C 223.9 24.9 223.9 24.9 223.9 24.9 Z M 226.3 26.9 C 226.3 27.0 227.1 27.7 227.0 27.8 C 227.8 27.9 227.7 29.0 228.0 28.8 C 228.1 28.9 228.2 29.1 228.4 29.4 C 228.3 28.6 227.0 27.4 226.3 26.9 C 226.3 26.9 226.3 26.9 226.3 26.9 Z M 130.6 7.5 C 129.4 7.4 131.0 7.9 129.7 7.8 C 129.6 7.9 132.1 8.0 130.6 8.1 C 132.6 8.3 130.5 7.6 130.6 7.5 C 130.6 7.5 130.6 7.5 130.6 7.5 Z M 107.4 7.7 C 107.5 7.6 105.7 7.7 105.0 7.7 C 105.0 7.8 105.6 7.8 105.9 7.8 C 105.8 7.8 105.5 7.9 105.0 8.0 C 105.4 8.1 106.7 7.8 107.4 7.7 C 107.4 7.7 107.4 7.7 107.4 7.7 Z M 133.2 3.4 C 134.0 3.7 135.0 3.9 135.5 3.6 C 136.4 3.8 135.0 3.8 136.0 4.0 C 137.3 3.9 136.7 4.1 138.9 4.1 C 138.4 4.4 140.0 4.4 140.3 4.6 C 139.4 4.7 138.3 4.3 137.9 4.5 C 138.6 4.6 138.2 4.8 137.9 4.6 C 136.4 4.4 139.6 4.4 137.9 4.1 C 137.4 4.5 134.8 3.8 133.2 3.7 C 133.8 3.6 131.9 3.4 133.2 3.4 C 133.2 3.4 133.2 3.4 133.2 3.4 Z M 141.7 4.2 C 142.8 4.3 143.4 4.8 143.1 4.8 C 143.1 4.7 141.8 4.6 141.6 4.7 C 142.0 4.7 142.2 4.8 142.1 4.8 C 140.0 4.7 140.8 4.5 140.3 4.3 C 141.4 4.3 141.7 4.4 142.2 4.3 C 141.9 4.3 141.6 4.3 141.7 4.2 C 141.7 4.2 141.7 4.2 141.7 4.2 Z M 165.6 10.2 C 165.4 10.0 165.2 10.1 164.7 10.1 C 164.7 9.8 162.4 10.0 162.1 9.8 C 162.6 9.7 163.8 9.8 164.3 9.8 C 163.7 9.7 163.6 9.6 163.0 9.6 C 163.1 9.4 164.4 9.6 164.8 9.4 C 164.9 9.6 165.5 9.5 165.7 9.6 C 164.0 9.5 166.6 10.3 165.6 10.2 C 165.6 10.2 165.6 10.2 165.6 10.2 Z M 119.7 7.7 C 119.6 7.9 121.6 8.5 119.7 8.8 C 119.3 8.6 119.1 8.4 119.2 8.1 C 118.1 8.2 117.6 8.0 116.9 8.2 C 114.7 7.5 118.5 8.3 119.7 7.7 C 119.7 7.7 119.7 7.7 119.7 7.7 Z M 112.1 8.0 C 112.5 7.7 111.4 7.8 111.6 7.6 C 112.6 7.7 115.5 7.5 114.5 7.6 C 113.5 7.7 113.5 7.9 112.1 8.0 C 112.1 8.0 112.1 8.0 112.1 8.0 Z M 63.2 56.5 C 61.8 56.5 61.2 55.9 62.0 55.9 C 61.6 56.1 63.7 56.3 63.2 56.5 C 63.2 56.5 63.2 56.5 63.2 56.5 Z M 8.8 44.1 C 9.6 44.9 10.3 45.2 10.4 45.5 C 9.3 44.8 9.5 44.8 8.7 44.2 C 8.5 44.2 8.0 43.9 8.0 43.7 C 8.4 44.1 8.4 43.9 8.8 44.1 C 8.8 44.1 8.8 44.1 8.8 44.1 Z M 83.1 3.6 C 83.0 3.5 82.5 3.5 82.7 3.3 C 84.1 3.3 85.6 3.0 86.8 2.8 C 86.8 2.9 86.8 3.0 86.8 3.1 C 84.6 3.2 84.0 3.4 83.1 3.6 C 83.1 3.6 83.1 3.6 83.1 3.6 Z M 80.3 3.4 C 80.1 3.5 80.9 3.7 79.9 3.8 C 79.9 3.6 78.2 3.5 79.0 3.4 C 79.2 3.5 79.7 3.5 80.3 3.4 C 80.3 3.4 80.3 3.4 80.3 3.4 Z M 159.8 4.9 C 160.9 5.0 159.4 4.6 159.4 4.5 C 160.2 4.7 161.3 4.8 161.7 4.9 C 160.9 4.8 160.2 5.1 159.8 4.9 C 159.8 4.9 159.8 4.9 159.8 4.9 Z M 142.6 4.2 C 140.2 4.1 141.3 3.7 138.9 3.5 C 139.9 3.4 142.0 3.6 142.7 3.4 C 142.6 3.6 143.2 3.6 143.1 3.8 C 142.2 3.7 142.1 3.6 141.2 3.6 C 141.5 3.8 141.6 3.7 141.2 4.0 C 141.9 4.0 142.3 4.0 142.6 4.0 C 142.5 4.1 143.3 4.2 142.6 4.2 C 142.6 4.2 142.6 4.2 142.6 4.2 Z M 159.3 5.5 C 160.3 5.5 161.0 5.9 160.2 5.8 C 160.1 5.7 159.5 5.8 159.3 5.6 C 160.6 5.7 158.3 5.4 158.9 5.3 C 159.7 5.4 160.0 5.3 159.8 5.1 C 160.3 5.2 161.1 5.2 161.2 5.3 C 160.8 5.3 160.3 5.3 160.3 5.3 C 160.5 5.4 160.8 5.4 160.7 5.5 C 159.9 5.4 159.6 5.4 159.3 5.5 C 159.3 5.5 159.3 5.5 159.3 5.5 Z M 152.9 4.9 C 154.2 5.1 154.3 5.3 154.7 5.5 C 153.0 5.3 152.8 4.9 151.5 4.7 C 152.9 4.9 154.4 4.6 154.8 4.9 C 154.2 4.9 153.0 4.8 152.9 4.9 C 152.9 4.9 152.9 4.9 152.9 4.9 Z M 182.6 56.8 C 181.6 56.9 180.8 56.8 179.6 56.9 C 179.3 57.2 181.4 57.4 180.5 57.3 C 179.4 57.6 180.1 57.1 179.2 57.2 C 180.2 57.4 175.3 58.1 175.0 57.8 C 175.8 57.7 176.0 57.6 175.8 57.5 C 177.8 57.2 178.6 56.9 180.0 56.6 C 181.1 56.8 184.2 56.3 185.8 55.7 C 186.9 56.0 188.7 55.1 190.2 55.2 C 190.6 55.0 189.0 55.2 190.1 54.9 C 191.0 55.0 190.4 55.2 191.4 55.1 C 191.5 55.0 191.2 54.9 191.7 54.7 C 191.7 54.9 192.3 54.8 192.6 54.8 C 190.5 55.2 192.8 55.1 191.1 55.5 C 190.4 55.5 191.8 55.0 189.8 55.4 C 189.2 55.6 188.5 55.8 188.7 56.0 C 188.2 56.1 187.9 56.2 187.5 56.3 C 188.2 55.9 184.8 56.9 186.3 56.3 C 186.4 56.3 187.5 56.1 188.3 55.8 C 187.5 55.7 186.7 56.0 185.5 56.4 C 184.9 56.2 185.7 56.1 185.0 56.1 C 184.0 56.4 185.4 56.4 184.7 56.6 C 185.0 56.6 185.5 56.5 185.5 56.6 C 183.8 56.6 183.1 57.0 182.2 57.1 C 182.8 56.9 181.2 57.1 182.6 56.8 C 182.6 56.8 182.6 56.8 182.6 56.8 Z M 196.7 53.7 C 197.1 53.7 197.5 53.6 197.9 53.5 C 198.0 53.7 196.6 54.1 197.6 54.0 C 195.9 54.4 197.6 53.7 196.7 53.7 C 196.7 53.7 196.7 53.7 196.7 53.7 Z M 188.9 54.5 C 188.2 54.4 188.7 54.9 188.1 55.0 C 189.1 54.7 189.9 54.5 190.1 54.7 C 189.0 54.9 188.5 55.0 187.3 55.3 C 188.4 54.7 186.0 55.2 185.6 55.0 C 186.5 54.8 187.2 54.6 188.4 54.3 C 188.2 54.5 190.0 54.2 188.9 54.5 C 188.9 54.5 188.9 54.5 188.9 54.5 Z M 191.9 53.6 C 192.2 53.7 193.8 53.2 193.5 53.6 C 192.5 53.7 192.2 53.9 192.4 54.0 C 191.7 54.2 191.5 54.1 190.9 54.3 C 190.4 54.1 191.6 53.9 191.9 53.6 C 191.7 53.7 191.5 53.7 191.9 53.6 C 191.9 53.6 191.9 53.6 191.9 53.6 Z M 226.1 39.3 C 226.5 39.4 225.3 40.1 225.1 40.2 C 225.5 40.2 225.4 40.3 224.7 40.9 C 224.8 40.5 223.7 41.3 222.8 41.5 C 222.7 41.8 223.8 41.3 222.6 42.1 C 221.7 42.6 220.8 43.1 219.2 44.0 C 218.7 44.0 219.4 43.6 219.8 43.3 C 218.7 43.9 218.9 43.5 218.0 43.9 C 218.3 44.0 217.5 44.4 217.2 44.4 C 218.8 43.6 214.9 45.1 216.6 44.2 C 216.7 44.3 217.1 44.1 217.5 43.8 C 217.2 44.3 219.2 43.2 219.8 43.2 C 220.3 42.3 222.4 41.4 224.3 40.3 C 224.5 40.4 224.0 40.8 224.4 40.5 C 224.4 40.4 225.0 40.0 225.2 39.8 C 225.3 39.9 225.5 39.8 225.9 39.6 C 225.9 39.5 225.9 39.5 226.1 39.3 C 226.1 39.3 226.1 39.3 226.1 39.3 Z M 107.1 58.8 C 107.2 58.4 104.2 58.6 103.3 58.6 C 103.5 58.2 108.9 58.5 107.1 58.8 C 107.1 58.8 107.1 58.8 107.1 58.8 Z M 125.7 58.6 C 124.9 58.6 125.5 58.8 124.8 58.9 C 124.7 58.6 122.9 59.1 122.9 58.9 C 123.8 58.6 124.3 58.7 125.7 58.6 C 125.7 58.6 125.7 58.6 125.7 58.6 Z M 142.7 58.1 C 141.4 58.2 143.5 58.2 143.2 58.3 C 142.0 58.4 140.8 58.4 140.9 58.2 C 141.9 58.3 142.6 57.9 142.7 58.1 C 142.7 58.1 142.7 58.1 142.7 58.1 Z M 117.2 58.4 C 116.0 58.3 117.9 58.0 118.1 58.2 C 116.8 58.2 118.9 58.4 120.0 58.3 C 119.9 58.6 119.5 58.6 120.0 58.8 C 118.3 58.9 119.7 58.5 118.5 58.6 C 117.8 58.7 118.6 58.7 118.5 58.9 C 118.1 58.9 117.6 58.9 117.2 58.9 C 117.2 58.8 117.2 58.6 117.2 58.5 C 117.7 58.5 118.3 58.5 118.1 58.3 C 117.6 58.3 117.5 58.4 117.2 58.4 C 117.2 58.4 117.2 58.4 117.2 58.4 Z M 201.7 49.2 C 200.7 49.5 201.6 49.4 202.4 49.2 C 202.6 49.0 203.1 48.4 204.3 48.3 C 201.9 49.2 205.2 48.5 203.8 49.0 C 203.2 48.9 201.7 49.6 200.4 49.9 C 199.8 49.8 201.1 49.2 201.7 49.2 C 201.7 49.2 201.7 49.2 201.7 49.2 Z M 206.3 48.1 C 206.2 48.0 205.8 48.1 205.0 48.4 C 205.8 48.0 204.6 48.2 205.6 47.9 C 205.5 48.0 208.8 47.1 206.9 47.7 C 205.2 48.1 207.4 47.7 208.2 47.5 C 207.3 47.8 205.9 48.5 205.7 48.4 C 206.1 48.2 206.5 48.1 206.3 48.1 C 206.3 48.1 206.3 48.1 206.3 48.1 Z M 228.9 35.1 C 228.8 35.0 228.6 35.2 228.5 35.3 C 229.0 34.5 229.1 33.8 229.2 33.5 C 229.2 33.8 229.4 33.9 229.5 33.7 C 229.4 34.1 229.5 34.2 229.3 34.3 C 229.2 33.9 229.1 34.6 228.9 35.1 C 228.9 35.1 228.9 35.1 228.9 35.1 Z M 228.9 35.1 " fill="#000000"></path><image xlink:href="CBF02A7E1AE09CD01E33B062EEC1CAEF.png" width="133.00" height="27.00" transform="matrix(1.00, 0.00, -0.00, -1.00, 53.0, 44.0)"></image><g><clipPath id="clip-133"><path d="M 5.5 5.4 L 231.9 5.4 L 231.9 60.4 L 5.5 60.4 Z M 5.5 5.4 "></path></clipPath><g clip-path="url(#clip-133)"><text xml:space="preserve" font-family="Chalkduster" font-size="18.0" fill="#000000" transform="matrix(1.00, 0.00, -0.00, -1.00, 57.0, 24.0)">I</text><text xml:space="preserve" font-family="Chalkduster" font-size="18.0" fill="#000000" transform="matrix(1.00, 0.00, -0.00, -1.00, 67.7, 24.0)">n</text><text xml:space="preserve" font-family="Chalkduster" font-size="18.0" fill="#000000" transform="matrix(1.00, 0.00, -0.00, -1.00, 80.9, 24.0)">d</text><text xml:space="preserve" font-family="Chalkduster" font-size="18.0" fill="#000000" transform="matrix(1.00, 0.00, -0.00, -1.00, 95.0, 24.0)">e</text><text xml:space="preserve" font-family="Chalkduster" font-size="18.0" fill="#000000" transform="matrix(1.00, 0.00, -0.00, -1.00, 106.3, 24.0)">n</text><text xml:space="preserve" font-family="Chalkduster" font-size="18.0" fill="#000000" transform="matrix(1.00, 0.00, -0.00, -1.00, 118.8, 24.0)">t</text><text xml:space="preserve" font-family="Chalkduster" font-size="18.0" fill="#000000" transform="matrix(1.00, 0.00, -0.00, -1.00, 126.9, 24.0)">a</text><text xml:space="preserve" font-family="Chalkduster" font-size="18.0" fill="#000000" transform="matrix(1.00, 0.00, -0.00, -1.00, 138.1, 24.0)">t</text><text xml:space="preserve" font-family="Chalkduster" font-size="18.0" fill="#000000" transform="matrix(1.00, 0.00, -0.00, -1.00, 146.4, 24.0)">i</text><text xml:space="preserve" font-family="Chalkduster" font-size="18.0" fill="#000000" transform="matrix(1.00, 0.00, -0.00, -1.00, 153.5, 24.0)">o</text><text xml:space="preserve" font-family="Chalkduster" font-size="18.0" fill="#000000" transform="matrix(1.00, 0.00, -0.00, -1.00, 166.9, 24.0)">n</text></g></g></g></svg>