<?xml version="1.0" encoding="UTF-8" standalone="no"?><svg xmlns="http://www.w3.org/2000/svg" xmlns:xlink="http://www.w3.org/1999/xlink" clip-rule="evenodd" stroke-miterlimit="4.00" viewBox="0 0 174 104"><desc>SVG generated by Keynote</desc><defs></defs><g transform="matrix(1.00, 0.00, -0.00, -1.00, 0.0, 104.0)"><g><clipPath id="clip-419"><path d="M 0.4 38.2 L 173.9 38.2 L 173.9 103.2 L 0.4 103.2 Z M 0.4 38.2 "></path></clipPath><g clip-path="url(#clip-419)"><path d="M 145.0 90.2 C 176.9 79.4 176.9 62.0 145.0 51.3 C 113.0 40.5 61.3 40.5 29.3 51.3 C -2.6 62.0 -2.6 79.4 29.3 90.2 C 61.3 100.9 113.0 100.9 145.0 90.2 Z M 145.0 90.2 " fill="#A8E685"></path><path d="M 43.9 43.4 C 43.7 43.5 43.4 43.6 43.0 43.7 C 43.2 43.7 43.3 43.8 43.3 43.9 C 43.7 43.7 44.2 43.6 44.9 43.5 C 44.9 43.4 44.5 43.5 44.3 43.5 C 43.9 43.6 44.0 43.5 43.9 43.4 C 43.9 43.4 43.9 43.4 43.9 43.4 Z M 39.2 96.4 C 38.6 96.3 39.2 96.7 39.4 96.7 C 39.5 96.7 39.5 96.7 39.8 96.7 C 39.8 96.9 39.2 96.9 38.8 96.8 C 37.1 96.3 38.4 96.2 39.2 96.4 C 39.2 96.4 39.2 96.4 39.2 96.4 Z M 132.1 96.9 C 133.5 96.7 132.0 96.7 131.8 96.7 C 132.4 96.5 131.8 96.2 132.6 96.0 C 132.8 96.1 133.1 96.1 133.3 96.2 C 132.9 96.3 132.4 96.4 132.4 96.5 C 132.9 96.4 133.5 96.2 133.6 96.3 C 132.6 96.6 133.5 96.5 133.7 96.7 C 132.8 96.8 132.5 97.1 132.1 96.9 C 132.1 96.9 132.1 96.9 132.1 96.9 Z M 154.6 52.2 C 155.1 52.5 155.5 52.7 155.4 52.7 C 154.8 52.5 154.5 52.3 154.2 52.1 C 154.0 52.2 154.1 52.3 153.7 52.1 C 153.2 51.7 153.6 51.5 153.9 51.6 C 153.9 51.8 155.8 52.5 154.6 52.2 C 154.6 52.2 154.6 52.2 154.6 52.2 Z M 116.1 42.7 C 114.8 42.4 116.0 43.1 114.7 42.8 C 114.8 42.6 114.6 42.3 115.5 42.4 C 115.5 42.5 116.0 42.6 116.1 42.7 C 116.1 42.7 116.1 42.7 116.1 42.7 Z M 93.0 99.5 C 93.0 99.6 94.0 99.6 93.8 99.8 C 93.3 99.8 92.8 99.8 92.3 99.8 C 92.2 99.6 92.4 99.5 93.0 99.5 C 93.0 99.5 93.0 99.5 93.0 99.5 Z M 140.7 92.4 C 142.1 92.3 143.4 91.5 143.0 91.8 C 143.6 91.9 142.3 92.8 142.3 92.5 C 142.1 92.3 139.7 92.7 140.7 92.4 C 140.7 92.4 140.7 92.4 140.7 92.4 Z M 47.3 93.9 C 48.8 94.4 48.6 93.7 49.6 94.2 C 49.2 94.1 49.1 94.2 48.9 94.2 C 49.2 94.3 49.6 94.3 49.5 94.4 C 48.8 94.3 47.9 94.2 47.3 93.9 C 47.3 93.9 47.3 93.9 47.3 93.9 Z M 67.2 40.7 C 67.5 40.7 67.6 40.6 67.5 40.5 C 68.7 40.5 68.6 40.3 69.3 40.4 C 69.4 40.7 68.4 40.7 67.6 40.7 C 67.5 40.8 67.3 40.8 67.2 40.7 C 67.2 40.7 67.2 40.7 67.2 40.7 Z M 98.9 41.1 C 98.9 40.9 98.2 40.8 99.3 40.8 C 100.4 41.1 99.4 41.3 98.2 41.4 C 98.1 41.5 98.1 41.6 98.1 41.7 C 98.6 41.7 98.9 41.8 99.2 41.8 C 99.4 41.5 100.2 42.2 102.1 42.1 C 101.2 42.2 102.1 42.5 101.0 42.3 C 101.3 42.6 100.5 42.5 100.6 42.7 C 101.1 42.6 102.3 42.7 102.0 42.4 C 102.7 42.4 103.2 42.5 103.5 42.5 C 103.9 42.8 102.3 42.5 102.7 42.8 C 103.1 42.8 103.2 42.9 103.4 42.9 C 103.5 42.9 103.4 42.7 103.8 42.7 C 104.9 42.9 103.6 43.0 105.2 43.1 C 105.3 43.0 104.8 42.9 104.9 42.8 C 105.6 42.7 105.5 42.9 106.3 42.8 C 106.4 43.0 105.7 43.0 106.3 43.1 C 106.7 42.7 107.7 43.4 108.7 43.2 C 108.1 42.6 108.9 43.3 109.8 42.9 C 110.0 43.1 109.3 43.3 110.1 43.4 C 109.9 42.8 113.0 43.2 110.5 42.5 C 111.9 42.6 112.4 42.2 111.3 42.0 C 113.6 42.4 112.9 42.0 113.8 42.0 C 114.7 42.2 113.3 42.1 113.7 42.4 C 112.8 42.2 113.0 42.4 112.4 42.2 C 112.3 42.3 112.2 42.4 112.0 42.4 C 112.9 42.3 114.0 42.8 113.3 43.0 C 112.8 42.9 113.3 42.7 112.7 42.6 C 112.9 43.0 112.0 42.5 111.9 42.7 C 112.3 43.1 111.0 43.2 112.2 43.4 C 112.2 43.3 112.3 43.1 112.3 43.0 C 112.6 43.0 113.0 43.1 113.3 43.1 C 113.6 43.4 113.3 43.5 113.6 43.6 C 114.2 43.7 114.5 43.7 114.7 43.6 C 114.0 43.5 113.1 43.1 114.3 43.2 C 113.8 43.7 116.0 43.5 115.0 43.7 C 116.2 44.0 116.9 43.7 117.0 44.0 C 117.7 44.1 117.3 43.8 118.1 43.9 C 119.3 44.3 119.1 44.0 120.8 44.4 C 121.0 44.1 120.9 44.5 121.4 44.6 C 121.4 44.5 121.5 44.3 121.5 44.2 C 122.0 44.5 123.4 44.8 124.8 44.8 C 125.1 44.9 124.8 45.1 125.7 45.2 C 126.7 45.1 127.8 45.6 129.0 45.5 C 129.1 45.7 129.8 45.9 130.3 45.9 C 130.4 46.0 129.8 46.2 130.5 46.3 C 131.0 46.2 130.2 45.9 131.2 46.1 C 131.1 46.3 132.2 46.1 132.2 46.3 C 131.8 46.3 131.5 46.4 131.2 46.4 C 131.6 46.5 131.4 46.6 131.8 46.7 C 131.8 46.3 132.5 46.8 132.7 46.9 C 132.7 46.7 132.8 46.6 133.1 46.6 C 133.6 46.8 134.1 46.8 134.3 46.8 C 135.0 47.1 133.9 46.9 134.6 47.1 C 135.1 46.6 135.6 47.5 137.1 47.4 C 137.4 47.7 137.9 48.0 138.8 48.2 C 139.0 48.1 138.0 47.9 138.0 47.8 C 139.3 48.2 137.8 47.5 138.6 47.8 C 140.5 48.4 141.7 48.7 143.5 49.5 C 143.5 49.3 145.0 49.7 144.9 49.7 C 144.6 49.6 145.9 50.4 146.9 50.7 C 147.3 50.5 149.0 50.7 149.2 50.5 C 149.5 50.9 149.4 50.8 149.4 51.2 C 151.1 52.0 152.0 52.0 152.9 52.8 C 152.9 52.6 153.6 52.9 154.2 53.1 C 154.0 53.2 153.6 53.2 153.2 53.2 C 154.0 53.5 154.1 53.7 154.8 54.0 C 155.7 53.7 156.5 55.0 157.3 54.7 C 158.3 55.3 158.0 55.4 158.9 55.9 C 158.9 55.8 159.1 55.7 159.4 55.8 C 158.8 55.5 158.2 55.5 158.0 55.0 C 159.4 55.7 155.7 53.0 158.1 54.0 C 158.1 54.1 157.8 54.2 158.3 54.5 C 159.7 55.1 159.0 54.5 158.5 54.2 C 159.4 54.6 160.2 55.2 159.7 54.5 C 161.7 55.6 160.4 55.1 160.9 55.6 C 164.3 57.5 167.8 60.3 169.7 63.9 C 170.0 63.8 170.7 65.9 170.8 66.5 C 171.4 67.5 171.7 68.6 171.4 69.0 C 171.7 69.1 171.3 70.3 171.6 70.4 C 171.6 69.9 171.7 69.6 171.7 70.1 C 171.7 71.6 171.2 73.9 171.1 74.8 C 170.6 75.2 170.3 76.2 170.1 76.9 C 169.9 76.9 170.1 76.4 169.8 76.8 C 169.9 77.0 169.3 78.4 168.9 78.6 C 169.2 78.3 169.2 77.6 168.8 78.2 C 168.9 78.3 168.4 78.9 168.7 78.9 C 168.0 79.6 167.8 80.2 167.1 80.8 C 167.5 80.2 167.7 79.8 167.7 79.6 C 167.4 80.1 167.1 80.6 166.6 80.8 C 167.0 80.9 166.1 81.5 165.4 82.4 C 165.1 82.5 164.9 82.5 164.2 83.1 C 164.0 83.5 165.4 82.4 164.7 83.1 C 164.6 83.0 163.8 83.5 164.1 83.5 C 163.1 84.2 162.7 84.8 161.7 85.1 C 162.8 84.5 161.8 84.7 161.5 84.9 C 161.3 85.0 160.9 85.3 160.9 85.3 C 161.0 85.4 161.5 85.0 161.6 85.1 C 160.8 85.5 160.8 86.0 160.4 86.0 C 160.7 85.8 160.7 85.6 160.3 85.8 C 160.4 86.2 157.8 87.4 158.6 86.8 C 158.6 86.9 159.6 86.3 159.6 86.2 C 159.3 86.2 157.9 87.2 158.1 86.8 C 158.9 86.3 158.9 86.5 159.9 85.8 C 159.9 85.6 160.4 85.3 160.7 84.9 C 159.2 85.9 159.0 86.3 158.7 86.2 C 158.0 86.6 158.6 86.6 157.3 87.2 C 155.6 88.0 156.9 87.0 156.4 87.2 C 155.0 88.1 155.6 88.2 156.4 88.0 C 155.1 88.7 154.8 89.0 153.2 89.6 C 153.2 89.5 153.3 89.3 153.9 89.0 C 153.9 89.0 155.3 88.6 155.1 88.5 C 154.9 88.2 153.8 88.6 152.0 89.3 C 152.6 89.4 152.6 89.2 150.7 90.0 C 151.2 90.2 149.8 90.3 149.9 90.5 C 150.0 90.5 150.7 90.3 151.3 90.0 C 151.3 90.2 151.1 90.4 150.5 90.7 C 150.1 90.7 149.8 91.0 148.6 91.3 C 148.5 91.1 149.3 90.8 149.4 90.6 C 148.8 90.8 148.7 91.0 148.0 91.3 C 147.4 91.3 147.3 90.9 147.3 90.6 C 148.0 90.3 149.1 89.8 148.2 90.0 C 150.9 89.0 148.2 90.4 149.2 90.1 C 150.2 89.3 149.8 90.0 151.4 89.2 C 151.9 89.0 152.1 88.9 152.3 88.7 C 152.1 88.7 151.1 88.9 152.1 88.4 C 152.4 88.5 153.1 88.3 153.9 88.0 C 153.9 87.9 152.1 88.5 153.8 87.8 C 154.6 87.4 154.1 88.1 155.1 87.5 C 155.1 87.4 155.4 87.3 155.4 87.2 C 153.9 88.0 155.7 86.8 154.5 87.2 C 155.9 86.5 154.9 87.4 155.8 86.9 C 155.7 86.7 157.3 86.3 157.2 86.0 C 156.7 86.4 155.6 86.9 155.6 86.6 C 156.6 86.2 160.6 83.6 159.3 84.9 C 159.8 84.4 162.2 82.3 162.1 82.6 C 161.3 83.1 161.5 83.3 161.4 83.5 C 162.7 82.2 163.5 81.8 164.5 80.5 C 163.2 81.7 163.9 80.4 163.0 81.0 C 162.6 81.3 162.0 81.7 162.0 81.9 C 162.3 82.0 162.9 81.4 163.0 81.1 C 163.1 81.2 163.3 81.4 163.4 81.6 C 161.6 82.7 160.7 83.6 159.7 84.1 C 160.5 83.6 157.9 84.8 158.9 84.2 C 159.3 84.1 160.3 83.5 161.1 83.0 C 161.1 82.9 161.0 82.9 161.0 82.8 C 161.3 82.6 161.8 82.2 161.8 82.2 C 160.8 82.9 160.1 83.1 159.4 83.7 C 159.4 83.7 159.4 83.7 159.3 83.6 C 159.2 83.7 159.0 83.8 159.0 83.7 C 159.4 83.5 159.9 83.2 159.9 83.1 C 159.1 83.5 158.8 83.4 157.8 84.0 C 157.9 83.6 156.5 84.0 157.8 83.1 C 158.2 83.2 158.9 82.9 159.0 83.0 C 159.4 82.8 160.1 82.3 160.4 82.0 C 159.9 82.1 159.2 82.5 159.0 82.3 C 159.6 81.9 160.0 81.5 160.4 81.4 C 159.3 82.4 161.2 81.2 161.8 81.0 C 161.6 81.0 161.3 81.2 161.0 81.2 C 161.9 80.5 162.4 80.4 162.2 80.1 C 163.1 79.2 163.0 79.6 163.6 79.0 C 163.0 79.2 163.9 78.6 163.3 78.7 C 164.2 77.7 163.8 78.6 164.1 78.3 C 164.3 78.0 164.3 77.9 164.5 77.6 C 165.0 77.3 165.6 76.5 166.0 76.6 C 166.2 76.2 166.3 76.2 166.6 75.8 C 166.5 75.7 166.5 75.5 166.6 75.3 C 166.7 75.3 166.9 75.1 166.9 74.9 C 166.0 75.8 166.2 75.5 165.2 76.3 C 165.3 76.5 165.2 76.6 165.4 76.5 C 165.0 77.2 164.6 77.3 164.1 78.0 C 163.9 77.9 163.5 77.8 163.1 78.5 C 163.1 78.2 162.9 78.3 163.0 78.0 C 163.4 77.8 163.9 77.5 164.3 77.1 C 164.3 77.0 164.1 77.0 164.3 76.8 C 164.5 76.7 164.8 76.4 164.9 76.1 C 165.0 76.2 165.0 76.3 165.0 76.4 C 165.7 75.5 165.2 75.7 165.8 75.1 C 165.6 75.1 165.3 75.5 165.4 75.1 C 165.7 74.5 165.9 74.4 166.1 74.1 C 166.1 74.0 166.0 74.0 166.0 73.9 C 166.4 73.5 166.0 75.1 166.7 74.4 C 166.5 74.2 166.9 73.5 167.1 73.4 C 167.2 73.7 166.7 74.1 166.8 74.2 C 167.5 72.8 167.3 74.3 167.8 72.8 C 167.7 72.8 167.6 72.8 167.5 72.7 C 167.4 73.3 167.2 73.3 167.0 73.2 C 166.8 73.7 166.4 73.8 166.4 74.2 C 166.0 73.9 166.6 73.8 166.8 73.3 C 166.5 73.3 166.3 73.7 166.1 73.7 C 166.8 72.7 166.5 72.4 166.9 71.4 C 166.6 71.6 166.9 70.8 166.7 70.8 C 166.7 71.7 166.1 71.3 166.0 71.4 C 165.9 72.0 166.4 71.8 166.5 72.1 C 166.2 72.3 166.1 72.1 165.8 72.0 C 166.0 71.6 165.9 71.6 165.8 71.3 C 166.0 71.0 166.5 70.7 166.6 71.2 C 166.6 71.1 166.4 70.4 166.6 70.3 C 166.6 71.0 166.8 70.3 166.9 70.7 C 167.0 70.2 166.6 69.3 166.6 68.6 C 166.5 68.7 166.4 68.5 166.3 68.5 C 166.7 69.1 166.2 69.3 166.3 69.9 C 166.2 69.6 166.1 69.8 166.0 69.9 C 166.1 69.4 165.8 69.1 165.9 68.6 C 165.8 68.7 165.8 68.7 165.7 68.7 C 165.7 68.0 165.6 68.1 165.2 67.6 C 165.2 67.4 165.7 67.5 166.0 67.5 C 165.7 67.2 165.2 66.2 165.3 66.9 C 165.0 66.3 165.4 66.3 164.9 65.7 C 164.7 65.8 165.1 66.4 164.7 66.3 C 164.3 65.8 164.8 65.9 164.3 65.6 C 164.4 65.5 164.6 65.3 164.2 64.8 C 164.3 65.3 164.1 64.8 163.8 64.8 C 164.0 65.0 164.1 65.3 164.2 65.4 C 163.5 64.5 163.3 64.3 162.5 63.6 C 163.0 63.7 162.7 63.2 163.2 63.7 C 162.7 63.3 162.2 62.5 161.8 62.3 C 162.1 62.7 162.6 63.2 162.7 63.5 C 161.1 62.0 159.9 61.5 158.1 59.9 C 158.5 60.1 158.9 60.5 159.0 60.4 C 158.8 60.3 158.5 60.1 158.5 60.0 C 159.2 60.5 159.8 60.9 160.2 61.0 C 160.7 61.5 159.8 61.0 160.3 61.4 C 160.5 61.4 161.4 62.3 161.2 61.7 C 160.2 61.2 159.4 60.3 159.1 59.7 C 157.8 59.4 158.8 60.0 157.5 59.7 C 157.6 59.6 157.3 59.4 157.0 59.1 C 157.2 59.7 155.8 58.7 155.6 58.6 C 156.3 58.7 158.4 59.8 157.5 58.9 C 157.7 59.7 155.1 57.4 155.4 58.1 C 154.0 57.4 154.6 57.3 153.7 57.2 C 153.7 57.1 153.8 57.0 153.4 56.8 C 153.0 56.6 152.8 56.6 152.6 56.6 C 154.8 57.8 154.0 57.7 155.3 58.5 C 155.0 58.3 154.8 58.2 154.9 58.3 C 154.8 58.4 154.8 58.4 154.5 58.2 C 154.5 57.9 153.4 57.7 153.1 57.4 C 153.6 57.6 154.0 57.8 153.9 57.6 C 152.1 56.7 152.6 56.6 149.8 55.3 C 150.6 55.8 149.5 55.4 148.5 55.0 C 147.0 54.4 147.8 54.2 145.9 53.6 C 145.9 54.3 144.1 52.9 142.7 52.9 C 142.9 52.6 141.2 52.0 140.8 52.1 C 140.8 52.0 140.2 51.8 139.7 51.7 C 139.6 51.6 140.2 51.6 139.8 51.5 C 139.4 51.4 139.7 51.8 139.1 51.6 C 138.5 51.4 138.7 51.2 137.8 50.9 C 137.7 51.1 138.2 51.2 137.7 51.2 C 136.9 50.9 136.2 50.7 136.8 51.2 C 135.5 50.9 136.3 50.6 135.1 50.3 C 135.4 50.5 135.4 50.6 134.7 50.5 C 134.4 50.2 134.3 50.1 134.2 49.9 C 133.8 50.1 133.9 50.1 133.0 49.8 C 133.0 49.9 132.9 50.0 132.9 50.1 C 132.5 50.0 131.8 49.9 131.7 49.8 C 132.5 50.0 132.3 49.8 132.7 49.8 C 131.9 49.5 130.3 48.9 131.5 49.5 C 130.3 49.3 130.9 49.1 130.0 49.0 C 130.5 49.4 130.0 49.0 129.0 48.9 C 129.0 49.2 128.4 48.8 127.7 48.7 C 127.8 48.9 127.6 49.0 127.1 48.9 C 127.1 48.8 126.7 48.6 126.1 48.6 C 126.1 48.7 127.4 49.1 126.1 48.8 C 125.5 48.6 125.5 48.3 124.5 48.1 C 124.3 47.8 125.5 48.1 125.3 47.8 C 124.4 47.9 124.2 47.7 123.0 47.4 C 123.4 48.0 120.5 47.6 121.9 48.1 C 121.5 48.0 120.8 48.2 120.5 47.9 C 121.0 48.0 120.2 47.6 120.3 47.6 C 119.7 47.5 118.4 47.2 118.3 47.4 C 119.6 47.5 119.5 47.7 119.9 47.9 C 118.0 47.8 116.4 47.5 116.6 47.2 C 116.6 47.3 116.3 47.3 116.2 47.3 C 116.9 47.4 117.3 47.8 116.5 47.8 C 116.7 47.6 116.2 47.4 115.6 47.3 C 115.5 47.5 113.1 46.8 113.5 47.2 C 114.5 47.2 115.3 47.6 114.5 47.7 C 113.9 47.4 112.6 47.1 112.9 46.9 C 112.5 47.0 112.2 47.0 111.8 47.1 C 111.5 47.3 112.3 47.3 112.1 47.5 C 111.6 47.4 110.9 47.4 110.8 47.3 C 112.1 47.4 110.1 47.1 111.5 47.0 C 110.6 46.9 110.5 46.8 109.8 46.7 C 109.8 46.8 109.5 46.8 109.4 46.8 C 110.1 46.7 110.6 46.9 110.5 47.2 C 109.2 47.1 109.4 46.8 108.4 46.7 C 108.1 46.9 106.6 47.1 106.0 46.8 C 107.3 47.0 105.9 46.7 106.7 46.7 C 107.9 46.9 108.3 46.7 108.8 46.5 C 108.2 46.3 107.2 46.1 107.0 46.4 C 107.7 46.5 107.7 46.4 108.1 46.4 C 108.0 46.5 107.8 46.6 107.4 46.6 C 106.8 46.4 105.5 46.5 106.4 46.2 C 105.5 46.3 104.5 46.0 103.6 46.1 C 104.6 46.2 105.3 46.3 105.6 46.6 C 104.8 46.6 104.0 46.3 103.9 46.4 C 104.0 46.7 105.4 46.7 105.6 46.9 C 104.5 47.0 102.9 46.2 104.2 46.9 C 103.6 46.8 102.8 46.7 102.5 46.6 C 103.3 46.6 102.5 46.2 102.2 46.2 C 101.5 46.1 101.0 46.1 100.7 46.2 C 101.7 46.2 102.5 46.6 101.8 46.5 C 101.6 46.4 101.4 46.5 101.1 46.6 C 101.0 46.4 99.9 46.5 99.7 46.3 C 99.8 46.5 100.3 46.5 100.4 46.6 C 99.7 46.7 98.8 47.0 98.3 46.6 C 98.7 46.6 99.3 46.6 99.3 46.6 C 97.5 46.1 97.0 45.8 94.8 45.6 C 95.1 45.6 95.2 45.5 95.1 45.4 C 93.8 45.3 92.9 45.2 93.0 45.0 C 92.2 45.1 91.7 45.2 91.3 45.3 C 92.2 45.5 92.5 45.3 93.0 45.4 C 92.7 45.5 93.7 45.9 94.1 46.1 C 95.6 45.9 95.7 46.3 97.2 46.2 C 96.8 46.5 98.4 46.3 97.9 46.6 C 96.5 46.1 95.1 46.4 93.0 46.2 C 93.3 46.0 93.5 45.8 92.7 45.7 C 91.3 45.5 92.0 45.9 90.9 45.8 C 90.4 45.6 91.1 45.5 90.5 45.5 C 90.2 45.6 89.1 45.5 88.8 45.3 C 90.2 45.3 88.5 45.1 89.5 45.0 C 89.0 45.0 88.7 44.9 88.4 44.9 C 89.8 45.2 87.0 45.2 88.1 45.4 C 86.1 45.6 87.9 44.8 86.3 44.9 C 87.1 45.1 86.0 45.2 84.9 45.1 C 84.6 44.9 83.3 44.9 82.4 44.8 C 82.9 44.9 83.3 44.9 82.4 45.1 C 82.9 45.2 83.7 45.2 84.1 45.1 C 84.1 45.2 84.3 45.2 84.5 45.3 C 83.4 45.4 83.8 45.5 83.5 45.6 C 83.1 45.5 82.2 45.5 82.0 45.3 C 82.0 45.4 81.7 45.4 81.7 45.5 C 83.2 45.5 81.5 45.8 82.4 45.9 C 83.0 45.9 82.6 45.6 83.5 45.6 C 84.3 45.9 82.8 46.0 82.4 46.2 C 83.1 46.4 83.9 46.1 84.2 46.3 C 83.3 46.6 81.8 46.5 80.6 46.4 C 80.7 46.7 78.7 46.4 78.5 46.8 C 78.4 46.7 78.1 46.6 77.8 46.6 C 77.5 46.9 77.1 46.5 76.8 46.5 C 76.7 46.7 76.9 46.8 77.1 46.9 C 75.7 46.8 75.3 46.8 73.6 47.0 C 73.4 46.9 73.1 46.8 72.9 46.6 C 73.3 46.5 73.7 46.5 74.0 46.4 C 71.6 46.5 73.2 47.1 71.5 46.8 C 71.6 46.9 72.7 47.1 71.9 47.2 C 70.4 47.0 68.4 47.4 68.4 46.7 C 67.1 46.6 66.3 47.2 65.6 46.9 C 65.2 47.0 65.1 47.0 64.9 47.1 C 65.4 47.2 65.9 47.3 66.3 47.4 C 67.1 47.2 67.5 47.4 66.7 47.1 C 67.8 47.0 68.1 47.1 68.8 47.2 C 67.2 47.5 65.7 47.4 65.7 47.8 C 65.2 47.7 64.7 47.6 64.3 47.4 C 64.1 47.6 62.4 47.9 62.2 47.6 C 63.4 47.6 64.6 47.2 63.6 47.1 C 60.6 47.6 59.0 47.3 56.5 48.0 C 56.4 47.8 56.6 47.6 56.1 47.7 C 56.1 47.8 56.1 47.9 55.8 48.0 C 55.0 48.1 54.6 48.1 53.5 48.3 C 53.6 48.1 53.4 47.9 52.8 47.9 C 52.5 48.2 51.5 48.9 50.9 48.9 C 51.6 48.8 50.7 48.6 50.2 48.7 C 50.7 48.9 47.3 48.9 48.3 49.1 C 47.0 49.3 46.5 49.3 46.4 49.2 C 45.9 49.4 45.6 49.5 45.2 49.6 C 44.8 49.3 42.7 50.1 42.4 50.0 C 43.1 49.9 43.2 49.5 42.6 49.7 C 42.2 50.0 40.3 50.6 40.0 50.6 C 40.1 50.5 40.2 50.2 41.1 50.0 C 39.5 50.3 39.6 50.6 39.1 51.0 C 39.1 50.7 38.4 51.1 38.2 51.2 C 37.7 51.2 38.2 51.1 38.1 50.9 C 37.6 51.0 37.3 50.9 36.6 51.1 C 36.9 51.3 36.1 51.4 35.8 51.5 C 35.7 51.7 35.4 51.9 34.7 52.1 C 35.5 51.4 31.1 52.7 32.2 52.7 C 31.4 53.2 31.2 52.7 30.2 53.1 C 30.0 53.3 29.4 53.4 30.0 53.4 C 29.2 53.7 29.3 53.3 27.6 54.1 C 28.5 54.1 25.9 54.6 26.4 54.9 C 25.5 54.7 24.4 55.8 23.0 56.0 C 23.0 56.1 22.7 56.2 22.6 56.3 C 22.5 56.5 24.2 55.8 23.1 56.4 C 21.7 56.8 22.4 56.4 22.2 56.4 C 18.7 58.1 15.1 60.0 12.8 61.8 C 13.2 61.7 13.2 61.8 12.8 62.2 C 11.8 62.4 9.9 64.7 9.8 65.1 C 9.4 65.1 8.9 66.4 8.7 66.5 C 8.8 66.3 8.8 65.7 8.6 66.2 C 8.7 66.6 8.3 66.9 8.3 67.4 C 7.9 67.5 7.7 68.9 7.5 68.1 C 7.4 68.4 7.3 68.5 7.2 68.6 C 7.5 68.7 7.4 69.0 7.7 68.6 C 7.1 69.6 7.4 69.9 7.2 70.8 C 7.3 71.0 7.4 70.3 7.5 70.8 C 7.4 70.8 7.4 70.8 7.3 70.8 C 7.3 71.0 7.5 71.1 7.3 71.1 C 7.2 71.1 7.2 70.8 6.9 70.8 C 7.0 71.3 6.7 71.6 7.0 71.7 C 6.9 71.1 7.4 71.5 7.3 71.9 C 7.1 71.5 7.6 73.3 7.9 73.7 C 7.8 74.1 7.7 73.2 7.5 73.3 C 7.9 74.3 7.9 74.3 8.2 74.3 C 8.4 74.9 8.4 75.2 9.0 75.8 C 9.1 76.2 8.6 75.7 8.9 76.1 C 9.1 76.3 9.3 76.3 9.6 76.7 C 10.0 78.1 13.2 79.8 14.4 81.6 C 13.9 81.0 14.8 81.5 15.8 82.1 C 15.8 82.3 15.6 82.3 15.9 82.5 C 16.0 82.3 16.3 82.5 17.0 82.9 C 17.0 83.0 16.8 83.0 17.2 83.3 C 17.6 83.2 18.3 83.9 18.9 84.1 C 19.1 84.4 17.6 83.5 17.4 83.6 C 19.1 84.7 19.5 84.6 21.0 85.4 C 20.2 85.1 21.4 85.9 21.6 86.1 C 21.4 85.7 22.7 86.1 21.9 85.6 C 22.4 85.9 23.4 86.2 23.4 86.4 C 23.1 86.2 22.6 86.0 22.6 86.1 C 23.3 86.4 24.2 87.0 24.7 87.0 C 24.1 86.7 23.8 86.5 23.9 86.4 C 24.1 86.4 24.4 86.4 24.8 86.5 C 23.4 86.6 27.1 87.8 27.4 87.7 C 27.6 88.2 27.9 88.3 27.7 88.4 C 29.3 89.0 29.4 88.7 30.0 88.8 C 29.8 89.1 29.5 89.2 30.3 89.6 C 30.2 89.3 31.3 89.6 31.1 89.2 C 33.4 89.8 33.8 90.3 35.2 90.7 C 35.3 90.6 34.9 90.5 35.3 90.5 C 35.9 90.8 36.5 91.1 36.9 91.3 C 37.4 91.2 36.9 91.0 37.3 91.1 C 38.3 91.6 38.0 91.8 38.9 92.2 C 40.2 92.3 39.7 92.4 40.5 92.3 C 40.2 92.2 39.8 92.0 40.2 92.1 C 40.9 92.5 41.2 92.8 41.3 92.9 C 40.8 92.8 40.4 92.7 40.1 92.5 C 39.9 92.7 39.2 92.5 39.8 92.8 C 39.0 92.5 38.2 92.3 37.1 92.0 C 37.4 92.4 36.1 91.8 36.4 92.2 C 37.6 92.4 37.9 92.7 39.1 92.9 C 38.9 92.6 40.1 93.0 40.3 93.2 C 40.3 93.0 41.2 93.2 41.0 93.0 C 41.9 93.1 41.9 93.3 42.8 93.5 C 42.9 93.6 42.7 93.7 43.1 93.8 C 43.5 93.6 43.7 94.0 44.0 94.1 C 43.8 93.7 45.2 94.2 45.3 94.0 C 45.0 93.9 44.4 93.8 44.4 93.7 C 45.9 94.1 44.7 93.6 44.5 93.3 C 44.5 93.5 43.9 93.7 43.8 93.4 C 45.1 93.5 42.1 92.7 43.2 93.0 C 44.2 93.3 44.2 93.1 45.1 93.3 C 46.2 94.0 44.8 93.9 45.9 94.5 C 46.6 94.5 47.1 94.6 47.2 94.4 C 47.4 94.5 47.6 94.6 47.8 94.7 C 48.2 94.6 46.9 94.3 47.9 94.4 C 48.4 94.6 47.7 94.8 48.8 94.9 C 49.3 94.8 47.6 94.4 48.5 94.5 C 49.5 95.1 48.3 94.4 49.5 94.6 C 49.6 94.6 49.8 94.7 50.2 94.7 C 50.2 94.9 50.0 95.0 50.4 95.1 C 50.7 94.7 50.9 95.4 51.7 95.4 C 52.3 95.2 50.9 95.1 51.2 94.9 C 52.1 95.4 52.7 95.1 53.1 95.2 C 52.3 95.3 54.4 95.6 54.4 95.8 C 54.2 95.5 54.6 95.7 55.8 95.6 C 55.8 96.1 57.2 95.9 57.4 96.3 C 57.6 96.2 57.9 96.2 58.1 96.1 C 57.7 96.0 57.3 96.0 57.5 95.8 C 57.8 95.9 58.1 95.9 58.5 96.0 C 59.0 96.2 57.5 96.6 59.8 96.8 C 59.6 96.4 60.5 96.5 61.2 96.5 C 61.1 96.2 60.3 96.4 60.2 96.2 C 61.0 96.1 61.8 96.4 62.2 96.6 C 63.6 96.6 65.1 96.9 67.1 97.0 C 67.5 97.2 65.4 97.0 66.7 97.2 C 67.3 97.3 67.0 97.1 67.8 97.2 C 67.0 98.2 73.0 97.7 73.4 98.2 C 73.6 98.0 75.3 98.2 75.2 97.9 C 74.0 98.1 73.2 97.7 72.7 97.5 C 71.6 97.6 73.6 97.8 72.7 97.8 C 72.6 97.7 71.1 97.7 71.3 97.5 C 72.8 97.6 70.5 97.2 71.6 97.1 C 73.0 97.2 75.9 97.1 75.2 97.3 C 75.2 97.3 74.6 97.2 74.5 97.3 C 76.1 97.5 77.0 97.3 77.7 97.2 C 78.4 97.4 81.3 97.2 80.5 97.3 C 80.8 97.5 78.8 97.2 79.1 97.4 C 82.0 97.6 82.1 97.4 84.1 97.6 C 83.4 97.3 86.1 97.2 85.9 97.3 C 85.9 97.5 86.5 97.7 87.6 97.5 C 87.5 97.7 88.1 97.8 88.7 97.9 C 89.0 97.6 88.2 97.7 88.3 97.5 C 88.9 97.5 89.6 97.5 90.2 97.5 C 90.2 97.5 90.1 97.7 90.5 97.7 C 91.2 97.5 93.6 97.3 93.4 97.4 C 92.4 97.7 95.0 97.6 93.4 97.9 C 93.8 97.9 93.9 98.0 94.4 97.9 C 94.4 97.8 94.4 97.7 94.4 97.6 C 95.8 97.5 95.1 98.0 96.2 97.9 C 96.3 97.8 96.8 97.8 96.9 97.7 C 96.5 97.7 96.5 97.8 95.9 97.8 C 96.5 97.4 94.7 97.6 94.8 97.4 C 96.0 97.3 96.0 97.5 96.6 97.6 C 98.1 97.4 97.4 97.5 99.0 97.5 C 99.0 97.4 98.6 97.4 98.7 97.3 C 100.7 97.3 100.5 97.8 101.9 97.5 C 101.6 97.5 100.3 97.8 101.2 97.8 C 102.1 97.6 102.4 97.3 103.6 97.2 C 103.7 97.3 103.6 97.5 104.0 97.4 C 104.5 97.3 104.5 97.1 105.0 97.0 C 105.1 97.1 105.8 97.0 106.1 96.9 C 106.5 97.1 105.9 97.1 106.5 97.2 C 107.5 97.1 108.0 96.5 108.8 96.5 C 108.8 96.8 109.8 96.6 110.6 96.5 C 110.8 96.8 112.5 96.5 113.7 96.5 C 113.4 96.2 114.6 96.2 114.3 96.0 C 113.8 96.1 113.5 96.0 113.3 95.9 C 114.7 95.8 115.1 96.2 116.1 95.7 C 116.6 95.8 117.2 95.9 118.1 95.8 C 118.2 95.7 116.5 95.8 117.4 95.6 C 117.5 95.7 117.8 95.6 118.1 95.5 C 118.0 95.8 118.7 95.8 119.1 95.8 C 119.9 95.5 121.6 95.6 120.8 95.4 C 122.0 95.2 121.3 95.8 122.2 95.6 C 121.7 95.4 123.3 95.1 122.4 95.0 C 123.7 94.7 123.6 95.2 123.1 95.4 C 124.3 95.3 124.5 95.0 125.1 95.1 C 124.5 94.9 126.3 94.5 125.4 94.8 C 125.2 95.1 126.5 94.7 126.7 94.8 C 126.3 94.7 126.9 94.5 126.0 94.6 C 126.9 94.3 128.1 94.1 128.9 94.2 C 130.0 93.8 130.9 93.6 130.5 93.9 C 131.5 93.7 131.1 93.7 132.1 93.6 C 132.1 93.5 131.8 93.5 131.7 93.5 C 133.1 93.2 132.8 93.4 134.6 93.0 C 134.4 93.4 135.5 93.1 135.9 93.2 C 135.2 93.3 134.6 93.4 134.0 93.5 C 133.9 93.6 134.5 93.6 134.1 93.7 C 134.0 93.6 133.7 93.7 133.4 93.7 C 134.6 93.7 132.1 94.4 132.8 94.0 C 132.8 94.0 132.9 94.1 133.2 94.0 C 132.9 93.8 132.9 93.9 133.1 93.6 C 132.5 93.8 132.0 93.6 131.8 93.9 C 131.9 94.0 132.4 93.8 132.5 93.9 C 131.1 94.4 132.0 93.7 130.9 94.0 C 130.7 94.3 131.3 94.3 131.6 94.3 C 130.6 94.6 129.7 94.8 129.4 94.7 C 128.4 94.9 129.5 94.8 128.8 95.1 C 128.4 95.1 128.4 94.9 127.8 95.0 C 127.1 95.2 128.2 95.1 127.5 95.3 C 126.7 95.3 128.0 94.8 126.8 95.0 C 127.1 95.3 125.7 95.1 125.8 95.3 C 126.5 95.2 126.6 95.5 126.2 95.4 C 124.5 95.3 123.6 96.4 121.9 96.1 C 121.9 96.2 121.7 96.2 121.6 96.3 C 122.8 96.3 124.6 96.0 125.0 96.3 C 125.9 96.1 125.8 95.8 125.9 95.7 C 127.1 95.8 127.0 95.9 126.4 96.4 C 124.5 96.8 123.7 96.7 122.4 96.8 C 121.7 97.1 122.5 96.9 122.7 97.0 C 118.8 97.4 121.9 97.6 120.5 97.8 C 120.5 97.6 120.2 97.6 119.8 97.6 C 119.8 97.7 119.2 97.8 119.1 97.9 C 119.4 97.9 119.5 97.9 119.4 98.0 C 118.5 98.2 118.8 97.9 118.7 97.8 C 119.5 97.7 120.0 97.6 120.1 97.4 C 119.1 97.7 118.3 97.6 117.7 97.9 C 116.7 97.7 118.1 97.1 117.6 97.0 C 117.7 96.7 117.0 97.6 116.3 97.8 C 115.1 98.0 115.1 98.2 113.9 98.4 C 113.6 98.2 115.1 98.1 114.9 97.9 C 114.6 98.0 114.5 97.9 114.2 97.9 C 113.4 98.1 113.5 98.3 112.9 98.4 C 112.5 98.2 112.3 98.4 111.9 98.5 C 111.1 98.5 112.3 98.3 111.5 98.3 C 110.6 98.4 110.0 98.7 109.8 98.7 C 109.7 98.6 109.8 98.5 109.4 98.5 C 108.4 98.8 108.2 98.8 109.4 98.9 C 108.3 98.9 107.9 99.1 108.1 99.3 C 109.7 99.2 110.1 99.1 110.9 99.3 C 111.2 99.0 111.7 99.2 112.3 99.2 C 111.9 98.8 113.0 99.1 113.3 98.9 C 112.9 98.9 112.5 98.9 112.2 98.8 C 114.0 98.6 114.0 98.7 115.3 98.1 C 115.3 98.2 115.5 98.3 115.7 98.3 C 115.3 98.5 114.0 98.6 114.0 98.8 C 115.0 99.0 115.3 98.5 116.4 98.6 C 116.9 98.4 115.5 98.5 116.4 98.3 C 116.8 98.4 117.4 98.5 118.1 98.5 C 118.9 98.3 119.2 98.2 119.8 98.0 C 119.9 98.1 119.9 98.2 120.5 98.1 C 120.5 98.0 119.9 98.0 120.5 97.8 C 122.3 97.9 123.5 97.9 125.2 97.5 C 124.6 97.5 123.2 97.5 123.8 97.4 C 124.6 97.4 125.6 96.9 126.5 97.0 C 126.8 97.0 125.5 97.1 125.9 97.4 C 126.6 97.3 127.1 97.2 127.5 97.2 C 127.5 97.1 128.4 97.0 128.1 96.8 C 127.5 96.9 127.3 97.2 127.2 97.1 C 127.6 96.4 129.6 96.9 130.8 96.7 C 131.5 96.4 130.1 96.5 131.0 96.3 C 131.6 96.1 132.0 96.6 131.1 96.8 C 130.5 96.8 130.3 97.2 130.1 97.0 C 129.9 97.0 129.5 97.1 129.5 97.2 C 130.0 97.1 129.9 97.3 130.2 97.3 C 129.6 97.4 129.6 97.8 129.0 97.7 C 129.3 97.6 129.4 97.5 129.6 97.4 C 127.9 97.8 127.3 97.7 126.3 97.8 C 126.8 97.8 126.2 97.9 126.3 98.1 C 127.1 97.9 128.5 97.8 127.7 98.0 C 127.0 97.8 126.7 98.7 126.1 98.5 C 126.5 98.4 126.4 98.2 126.7 98.1 C 126.0 98.2 126.0 98.0 125.3 98.1 C 123.2 98.8 121.4 98.5 117.9 99.5 C 116.7 99.7 119.0 99.2 118.9 99.0 C 118.6 99.1 118.5 99.0 118.2 99.1 C 118.2 99.3 117.6 99.1 117.2 99.4 C 117.2 99.2 115.6 99.6 114.8 99.5 C 114.7 99.6 114.9 99.7 114.4 99.8 C 111.9 99.7 107.2 100.6 105.3 100.5 C 105.4 100.7 104.5 100.7 104.3 100.9 C 103.0 100.9 103.6 100.7 101.7 101.0 C 100.8 101.1 101.9 100.9 102.1 100.8 C 99.4 101.1 97.0 100.9 95.3 101.3 C 94.4 101.4 95.2 101.1 93.4 101.1 C 93.4 101.4 90.6 101.0 90.2 101.4 C 89.1 101.4 87.1 101.0 88.0 101.3 C 86.5 101.3 87.5 101.0 86.9 101.0 C 85.9 101.0 87.2 101.6 86.2 101.6 C 86.3 101.4 85.4 101.5 84.8 101.2 C 85.6 101.3 86.1 101.2 86.2 101.1 C 85.5 101.2 85.5 101.0 84.4 101.1 C 83.6 101.2 81.1 101.4 80.4 101.0 C 80.4 101.1 80.6 101.2 80.8 101.2 C 80.1 101.3 79.2 100.9 79.3 101.3 C 77.7 101.2 77.0 100.9 76.1 101.2 C 75.4 101.2 76.3 100.9 74.3 100.8 C 74.2 101.0 70.6 100.8 69.6 100.5 C 69.6 100.9 69.4 100.5 68.9 100.5 C 68.9 100.6 69.0 100.7 68.5 100.7 C 68.5 100.6 68.2 100.6 67.9 100.6 C 68.1 100.3 66.5 100.6 66.4 100.4 C 66.8 100.4 66.8 100.2 66.5 100.1 C 66.3 100.4 64.9 99.8 65.1 100.1 C 65.4 100.2 66.4 100.2 66.1 100.4 C 64.7 100.4 65.3 100.1 64.3 100.0 C 64.4 100.1 64.9 100.2 64.3 100.2 C 63.4 100.1 64.2 100.2 63.6 99.9 C 63.1 99.9 62.2 100.0 61.8 100.0 C 61.9 100.0 61.7 99.8 61.5 99.8 C 59.7 99.5 55.7 99.3 54.0 98.7 C 53.9 98.8 53.5 98.7 53.6 98.9 C 52.6 98.6 52.6 98.7 51.6 98.5 C 51.6 98.6 51.6 98.7 51.6 98.8 C 50.2 98.7 51.5 98.4 50.6 98.3 C 50.4 98.8 50.1 98.0 49.3 97.9 C 49.2 98.0 48.8 98.0 48.9 98.2 C 47.6 97.9 47.8 97.6 46.7 97.5 C 46.9 97.6 47.0 98.4 46.8 98.6 C 46.6 98.5 46.3 98.3 45.8 98.2 C 46.5 98.0 46.3 97.1 44.7 97.1 C 45.6 97.2 45.9 97.3 45.6 97.5 C 44.5 97.3 44.1 97.0 43.1 96.8 C 42.9 97.0 43.6 97.2 43.3 97.4 C 43.0 97.4 42.9 97.4 42.9 97.5 C 41.9 97.2 41.9 97.1 40.7 96.9 C 40.8 96.8 41.0 96.8 41.4 97.0 C 41.4 96.8 41.4 96.6 42.1 96.8 C 42.2 96.9 41.7 97.1 42.7 97.2 C 42.7 97.1 42.7 97.0 42.8 96.8 C 42.1 96.7 40.4 96.1 40.3 96.2 C 40.6 96.4 41.1 96.5 40.8 96.7 C 39.6 96.4 39.3 96.0 38.4 95.7 C 36.7 95.3 33.8 94.5 34.1 94.9 C 33.1 94.6 33.4 94.7 32.6 94.4 C 32.8 94.7 31.6 94.2 31.6 94.4 C 32.7 94.6 32.4 94.6 33.4 94.8 C 33.4 95.0 33.1 95.0 32.7 95.0 C 32.7 94.8 32.3 94.7 31.6 94.5 C 31.7 94.6 32.3 95.0 31.5 94.8 C 31.5 94.7 31.3 94.6 31.0 94.5 C 31.0 94.4 31.0 94.3 31.1 94.1 C 31.5 94.2 32.0 94.3 32.3 94.3 C 32.0 94.2 32.0 94.1 31.7 94.0 C 31.5 94.1 30.4 93.6 30.2 93.7 C 30.7 93.9 31.0 94.1 30.5 94.0 C 30.4 93.9 29.7 93.6 29.3 93.6 C 30.3 94.0 29.9 93.9 30.4 94.3 C 29.8 94.2 29.6 94.1 29.3 93.9 C 29.1 93.8 29.2 93.8 28.1 93.4 C 28.1 93.2 28.2 93.1 28.6 93.1 C 27.9 92.4 24.0 91.4 23.0 91.0 C 23.7 91.3 24.7 91.3 23.6 90.9 C 23.6 91.0 22.8 90.6 22.6 90.6 C 22.1 90.9 22.9 91.5 23.6 92.1 C 22.8 91.7 22.6 91.7 21.8 91.4 C 21.6 91.1 22.5 91.2 21.6 90.7 C 21.2 91.0 19.8 90.0 19.3 90.1 C 20.0 90.3 20.4 90.7 19.7 90.4 C 19.9 90.3 18.5 89.7 18.5 89.6 C 19.6 90.0 20.0 89.9 20.7 90.3 C 19.9 89.8 21.4 90.4 20.0 89.7 C 19.3 89.5 18.8 89.6 17.4 88.8 C 16.9 88.5 17.5 88.6 16.8 88.2 C 16.9 88.5 15.3 87.7 16.3 88.0 C 15.8 87.8 15.6 87.6 15.3 87.4 C 15.9 88.0 12.4 86.3 12.8 86.7 C 13.0 86.4 13.0 86.1 12.9 85.9 C 12.1 85.8 11.5 85.1 10.1 84.0 C 10.0 84.3 9.8 83.9 9.2 83.4 C 9.0 83.4 9.5 83.9 9.1 83.6 C 8.5 83.0 8.5 82.9 8.4 82.7 C 8.0 82.3 7.7 82.0 7.5 81.7 C 7.4 81.8 7.5 82.0 7.6 82.1 C 6.1 80.3 5.2 79.7 4.3 78.2 C 4.6 78.9 5.0 78.8 4.7 78.3 C 4.4 78.0 4.2 77.7 4.1 77.6 C 4.1 78.1 4.1 77.9 3.7 77.1 C 3.2 76.5 3.5 77.6 3.2 77.0 C 3.0 76.4 3.3 76.7 3.2 76.3 C 3.1 76.0 3.0 75.7 2.9 75.5 C 2.9 76.0 2.6 75.5 2.4 75.0 C 2.8 75.3 2.7 75.1 2.3 74.1 C 2.4 73.9 2.6 74.4 2.6 74.0 C 2.5 73.8 2.0 73.1 2.2 72.3 C 2.2 72.5 2.3 72.7 2.3 72.6 C 2.1 71.9 2.4 71.2 2.5 70.6 C 2.2 71.2 2.1 70.9 1.9 71.2 C 2.1 70.5 1.9 69.6 2.2 69.1 C 2.0 70.1 2.7 69.2 2.8 68.6 C 2.6 68.4 2.5 69.5 2.2 69.1 C 2.1 68.7 2.6 68.1 2.4 67.7 C 2.3 67.7 2.4 68.1 2.2 68.2 C 2.3 67.7 2.1 68.4 2.1 67.9 C 2.5 67.7 2.2 67.3 2.3 67.0 C 2.5 66.6 3.1 66.0 3.0 65.7 C 2.9 65.6 2.7 66.1 2.6 66.1 C 3.1 64.5 3.6 64.3 4.2 62.8 C 4.4 62.7 4.7 62.5 5.0 62.2 C 4.9 62.1 5.0 61.8 5.2 61.5 C 5.7 61.0 6.2 60.6 6.9 60.0 C 7.0 60.2 6.7 60.6 7.6 59.8 C 7.6 59.6 7.2 60.0 7.5 59.6 C 7.5 59.7 7.8 59.5 7.7 59.4 C 7.7 59.3 7.7 59.3 7.6 59.3 C 7.4 59.5 7.1 59.8 6.9 60.0 C 6.8 59.9 6.7 59.9 6.5 60.0 C 7.4 58.9 7.7 59.3 8.3 58.5 C 8.6 58.6 8.9 58.5 8.5 59.2 C 9.1 58.6 9.5 58.1 9.5 57.8 C 8.7 58.5 8.8 58.1 8.5 58.2 C 9.0 57.7 9.0 57.6 9.2 57.4 C 9.9 57.0 8.8 58.2 10.1 57.3 C 8.9 57.8 10.7 56.5 11.5 56.1 C 11.3 56.0 11.0 56.2 11.3 55.9 C 13.1 54.4 13.4 55.3 14.5 54.1 C 14.4 54.3 15.0 54.0 15.3 53.9 C 14.3 54.6 14.1 54.8 13.6 55.1 C 13.8 55.1 14.1 55.0 14.4 54.8 C 14.3 54.7 14.6 54.5 15.1 54.3 C 15.3 54.0 15.0 53.8 15.8 53.1 C 15.9 53.2 15.9 53.3 16.3 53.1 C 16.6 52.7 16.1 53.6 18.0 52.6 C 17.6 52.7 17.4 52.7 17.4 52.4 C 18.3 51.9 18.1 52.1 19.4 51.4 C 20.1 51.5 18.7 52.2 18.5 52.6 C 19.3 52.2 19.9 51.6 20.9 51.3 C 20.2 51.5 20.8 51.0 21.6 50.6 C 22.4 50.3 21.7 51.0 22.7 50.6 C 23.4 50.2 23.7 49.9 22.9 50.0 C 24.7 49.4 24.2 49.3 25.7 48.8 C 25.8 48.9 25.4 49.1 24.8 49.2 C 24.9 49.3 24.8 49.5 25.3 49.3 C 26.2 48.7 28.4 48.0 29.0 47.6 C 30.4 47.6 31.7 46.6 33.1 46.4 C 32.6 46.8 34.9 46.0 35.6 46.1 C 36.0 45.9 37.1 45.0 36.7 45.3 C 36.9 45.7 37.7 45.3 38.4 45.3 C 38.3 45.2 38.3 45.1 38.3 45.0 C 39.7 44.7 40.0 44.8 40.6 44.9 C 42.2 44.3 44.2 44.3 46.3 43.6 C 46.9 43.8 47.4 43.6 48.7 43.6 C 48.6 43.4 49.7 43.2 50.6 43.0 C 50.4 42.8 51.3 42.8 51.3 42.6 C 50.4 42.7 50.7 42.4 50.2 42.4 C 51.4 42.4 51.9 41.8 52.9 41.9 C 51.7 42.2 51.4 42.6 51.3 43.0 C 52.7 42.7 53.4 42.7 53.7 42.9 C 53.8 42.7 53.6 42.6 53.3 42.5 C 53.8 42.5 54.2 42.4 54.7 42.3 C 54.8 42.4 54.2 42.6 54.7 42.6 C 55.0 42.4 55.4 42.3 55.7 42.2 C 56.1 42.4 55.2 42.4 55.1 42.6 C 56.9 42.4 56.1 42.1 57.1 41.8 C 57.3 42.0 57.3 42.2 58.2 42.2 C 58.5 42.0 58.5 41.7 59.5 41.6 C 60.1 41.6 59.5 42.0 60.2 41.9 C 60.3 41.8 60.6 41.8 60.9 41.8 C 60.9 41.7 61.2 41.6 61.6 41.5 C 61.7 41.6 62.4 41.5 62.6 41.4 C 62.7 41.5 63.8 41.7 64.1 41.5 C 64.0 41.4 63.4 41.5 63.4 41.4 C 64.1 41.4 64.7 41.3 65.1 41.2 C 65.4 41.7 66.7 41.2 68.3 41.3 C 69.3 41.0 68.1 40.9 69.3 40.7 C 70.1 40.8 69.2 40.9 69.4 41.1 C 69.6 41.2 70.8 41.2 70.8 41.0 C 70.8 40.9 70.2 41.0 70.1 40.9 C 71.0 40.7 71.0 40.9 71.5 41.0 C 71.4 40.8 72.1 40.7 72.2 40.6 C 74.8 40.2 74.8 40.7 75.8 40.8 C 75.8 40.7 76.5 40.7 76.5 40.7 C 75.8 40.8 74.8 40.6 75.8 40.5 C 75.6 40.7 77.1 40.5 77.2 40.4 C 77.1 40.3 76.1 40.4 76.5 40.1 C 77.9 40.0 77.3 40.5 78.3 40.2 C 78.4 40.3 77.8 40.4 77.6 40.4 C 78.0 40.4 78.6 40.4 78.7 40.5 C 78.2 40.6 78.2 40.8 78.0 40.9 C 78.7 40.7 79.9 40.8 79.0 40.6 C 80.5 40.6 81.9 40.4 80.9 40.2 C 82.0 40.1 81.4 40.5 82.3 40.2 C 82.2 40.5 81.9 40.7 82.7 40.9 C 82.8 40.7 83.5 40.6 83.4 40.5 C 85.1 40.4 85.6 40.7 86.3 40.9 C 85.7 40.5 86.5 40.8 87.4 40.6 C 87.9 40.7 87.4 41.0 88.8 40.9 C 87.3 40.6 90.6 40.8 89.9 40.4 C 91.7 40.6 91.7 40.6 93.5 40.7 C 93.4 40.9 92.9 41.0 92.1 41.0 C 92.7 40.8 90.5 40.8 90.6 40.9 C 90.6 41.0 90.6 41.0 90.6 41.1 C 92.0 41.1 92.9 41.2 93.5 41.3 C 93.8 41.1 94.4 41.1 94.2 40.8 C 95.5 41.1 96.9 40.7 97.5 41.0 C 97.0 41.0 96.6 41.0 96.8 41.2 C 97.3 41.1 97.9 41.1 97.9 40.9 C 96.8 40.8 96.6 40.7 96.1 40.9 C 96.5 40.7 95.0 40.5 96.1 40.5 C 96.0 40.9 98.2 40.4 97.5 40.6 C 96.4 40.7 98.8 40.9 98.9 41.1 C 98.9 41.1 98.9 41.1 98.9 41.1 Z M 125.6 98.1 C 126.6 97.8 125.3 97.7 124.6 97.9 C 124.8 97.9 124.9 98.0 125.0 98.2 C 125.3 98.1 125.5 98.0 125.6 98.1 C 125.6 98.1 125.6 98.1 125.6 98.1 Z M 114.4 96.1 C 114.1 96.5 115.7 96.1 116.4 96.1 C 116.2 96.0 116.0 96.0 116.4 95.9 C 115.7 95.8 115.4 96.2 114.4 96.1 C 114.4 96.1 114.4 96.1 114.4 96.1 Z M 75.1 98.3 C 75.4 98.3 76.1 98.2 76.2 98.3 C 76.6 98.4 76.5 98.2 76.6 98.1 C 77.4 98.1 76.3 98.5 77.6 98.4 C 78.1 98.0 75.4 97.7 75.1 98.3 C 75.1 98.3 75.1 98.3 75.1 98.3 Z M 85.2 44.4 C 85.7 44.6 84.5 44.8 84.9 45.0 C 86.8 44.8 85.3 44.5 88.1 44.6 C 87.9 44.5 87.7 44.4 87.7 44.3 C 86.4 44.4 86.3 44.6 86.6 44.2 C 86.0 44.2 85.9 44.7 85.2 44.4 C 85.2 44.4 85.2 44.4 85.2 44.4 Z M 110.5 46.6 C 110.3 46.5 110.2 46.4 110.2 46.3 C 109.4 46.4 109.5 46.4 108.4 46.2 C 108.5 46.6 109.6 46.7 110.5 46.6 C 110.5 46.6 110.5 46.6 110.5 46.6 Z M 165.7 68.2 C 165.7 68.3 165.7 68.4 165.8 68.5 C 165.9 68.4 166.3 68.6 166.0 68.0 C 166.0 68.0 166.0 68.1 166.0 68.2 C 165.9 68.2 165.8 67.9 165.7 68.0 C 165.7 68.1 165.7 68.2 165.7 68.2 C 165.7 68.2 165.7 68.2 165.7 68.2 Z M 158.5 83.6 C 159.6 82.6 156.3 84.0 158.5 83.6 C 158.5 83.6 158.5 83.6 158.5 83.6 C 158.5 83.6 158.5 83.6 158.5 83.6 Z M 162.5 84.3 C 162.6 84.3 162.8 84.1 162.8 84.1 C 163.8 83.4 162.9 84.2 163.5 83.9 C 164.2 83.2 162.9 83.9 163.8 83.0 C 163.5 83.1 163.1 83.9 162.5 84.3 C 162.5 84.3 162.5 84.3 162.5 84.3 Z M 13.2 55.1 C 12.3 55.7 12.2 56.1 12.2 56.4 C 12.8 56.0 13.3 55.7 13.5 55.7 C 14.6 54.9 12.7 56.1 12.5 56.1 C 12.5 55.9 13.3 55.3 13.2 55.1 C 13.2 55.1 13.2 55.1 13.2 55.1 Z M 10.4 57.1 C 10.1 57.5 9.7 57.9 9.8 58.1 C 10.3 57.7 10.4 57.7 10.5 57.8 C 10.8 57.3 10.2 57.6 10.4 57.1 C 10.4 57.1 10.4 57.1 10.4 57.1 Z M 16.1 53.7 C 15.7 54.0 15.9 54.1 15.9 54.2 C 16.6 53.8 16.7 53.9 17.4 53.5 C 17.4 53.4 17.4 53.3 17.3 53.3 C 16.7 53.6 16.7 53.7 16.2 53.9 C 16.2 53.9 16.2 53.8 16.1 53.7 C 16.1 53.7 16.1 53.7 16.1 53.7 Z M 8.2 59.4 C 6.9 60.6 6.7 61.4 6.4 62.5 C 7.0 61.5 7.4 60.4 8.2 59.9 C 8.9 59.1 7.8 60.0 7.8 59.9 C 7.7 59.8 8.0 59.6 8.2 59.4 C 8.2 59.4 8.2 59.4 8.2 59.4 Z M 2.5 71.4 C 2.4 71.7 2.8 72.2 2.9 73.1 C 2.9 72.9 3.0 72.8 3.1 72.7 C 3.0 71.6 2.6 72.3 2.5 71.4 C 2.5 71.4 2.5 71.4 2.5 71.4 Z M 5.0 78.1 C 5.4 78.7 4.9 77.7 5.3 77.9 C 4.8 77.2 4.4 76.4 4.2 76.5 C 4.7 77.2 4.9 77.4 5.0 78.1 C 5.0 78.1 5.0 78.1 5.0 78.1 Z M 8.7 82.4 C 9.6 82.9 8.6 81.9 9.1 82.0 C 8.8 81.7 8.8 81.9 8.7 81.9 C 8.5 81.7 8.4 81.5 8.1 81.2 C 8.2 81.5 9.0 82.3 8.7 82.4 C 8.7 82.4 8.7 82.4 8.7 82.4 Z M 39.4 45.8 C 38.9 46.0 39.1 46.2 38.0 46.4 C 39.7 46.0 38.9 46.9 41.2 46.3 C 40.8 46.3 41.0 46.1 41.2 46.2 C 42.0 45.9 40.3 46.3 41.1 45.8 C 40.4 46.0 40.9 46.2 40.2 46.4 C 39.5 46.3 39.1 46.2 39.4 45.8 C 39.4 45.8 39.4 45.8 39.4 45.8 Z M 41.2 46.5 C 41.9 46.5 41.8 46.0 42.2 46.2 C 42.5 46.1 42.4 46.0 42.4 45.9 C 42.2 46.0 42.1 46.0 42.1 45.9 C 41.6 46.1 41.0 46.3 41.2 46.5 C 41.2 46.5 41.2 46.5 41.2 46.5 Z M 35.5 48.0 C 36.4 47.6 36.8 47.7 37.2 47.3 C 37.7 47.6 37.9 47.0 38.5 47.2 C 39.5 46.9 38.7 47.0 38.4 46.9 C 39.4 46.5 38.7 47.1 39.7 46.7 C 39.8 46.4 38.5 46.8 38.6 46.5 C 37.9 46.7 37.9 46.9 37.5 47.0 C 37.1 47.1 37.2 47.0 37.1 46.9 C 36.3 47.2 36.3 47.0 35.6 47.2 C 35.5 47.4 35.8 47.4 36.6 47.2 C 35.8 47.5 35.5 47.8 34.5 47.9 C 35.1 47.5 32.1 48.3 32.5 48.6 C 33.3 48.4 33.0 48.3 33.3 48.1 C 34.4 48.0 35.0 47.8 35.5 48.0 C 35.5 48.0 35.5 48.0 35.5 48.0 Z M 16.9 54.2 C 16.6 54.4 16.2 54.5 15.8 54.8 C 15.6 54.6 16.3 54.3 15.6 54.5 C 14.8 54.9 14.7 55.1 14.3 55.4 C 14.6 55.3 16.3 54.6 15.5 55.2 C 15.8 55.1 16.3 54.9 17.0 54.5 C 16.1 54.7 18.1 53.9 18.9 53.6 C 18.7 53.3 20.4 53.0 20.9 52.5 C 20.3 52.5 18.7 53.5 18.1 53.8 C 18.4 53.6 16.0 54.3 16.9 54.2 C 16.9 54.2 16.9 54.2 16.9 54.2 Z M 43.7 45.8 C 43.9 45.7 44.6 45.5 44.0 45.6 C 44.3 45.5 44.9 45.5 44.6 45.2 C 44.9 45.1 45.3 45.0 45.6 45.0 C 45.5 45.1 44.6 45.2 45.0 45.4 C 45.6 45.2 45.4 45.3 46.3 45.2 C 45.8 45.5 46.3 45.4 46.0 45.8 C 46.3 45.6 47.1 45.5 47.0 45.3 C 48.2 45.1 46.7 45.7 48.3 45.4 C 48.3 45.6 47.2 45.8 46.7 45.7 C 46.5 46.0 48.8 45.4 50.0 45.3 C 48.9 45.3 49.7 44.9 50.2 44.6 C 50.6 44.6 50.2 44.8 50.9 44.8 C 51.5 44.7 51.8 44.5 51.9 44.7 C 52.4 44.6 52.2 44.4 52.2 44.3 C 53.0 44.2 52.5 44.6 53.6 44.4 C 52.7 44.2 53.7 44.0 55.2 43.8 C 55.1 43.8 54.6 43.8 54.5 43.7 C 54.7 43.5 55.7 43.7 55.9 43.7 C 56.5 43.6 56.1 43.5 55.6 43.6 C 55.9 43.5 56.2 43.4 56.6 43.3 C 54.9 43.5 52.2 43.9 49.1 44.1 C 49.7 44.2 49.1 44.3 48.2 44.4 C 48.0 44.3 48.4 44.2 48.8 44.1 C 47.7 44.0 47.9 44.6 46.2 44.8 C 45.3 44.9 47.2 44.4 46.2 44.5 C 45.6 44.6 45.2 44.9 44.9 44.7 C 43.8 45.0 43.6 45.4 42.1 45.7 C 43.0 45.6 43.5 46.1 44.4 45.8 C 44.4 45.7 44.0 45.8 43.7 45.8 C 43.7 45.8 43.7 45.8 43.7 45.8 Z M 10.6 57.9 C 10.1 58.3 9.9 58.6 9.7 58.6 C 9.0 59.3 10.0 58.7 10.2 58.6 C 10.5 58.3 10.6 58.1 10.6 57.9 C 10.6 57.9 10.6 57.9 10.6 57.9 Z M 79.7 100.6 C 81.1 100.7 80.8 100.4 81.9 100.4 C 81.0 100.3 80.8 100.1 79.4 100.1 C 79.3 100.3 79.3 100.5 79.7 100.6 C 79.7 100.6 79.7 100.6 79.7 100.6 Z M 13.7 55.9 C 14.3 55.2 12.9 56.8 12.8 56.6 C 12.0 57.3 13.7 56.2 13.0 56.9 C 13.7 56.3 14.2 56.2 15.2 55.4 C 15.1 55.3 14.3 55.8 13.5 56.3 C 13.3 56.3 13.7 56.0 13.7 55.9 C 13.7 55.9 13.7 55.9 13.7 55.9 Z M 65.8 99.1 C 64.9 99.2 66.7 99.6 67.2 99.8 C 67.3 99.4 67.0 99.5 65.8 99.1 C 65.8 99.1 65.8 99.1 65.8 99.1 Z M 89.1 100.3 C 89.6 100.0 87.5 100.3 88.0 100.0 C 87.4 99.9 87.3 100.0 87.3 100.1 C 87.0 100.0 85.9 100.1 86.2 99.9 C 86.0 99.7 87.8 99.9 87.3 99.6 C 87.9 99.6 87.9 99.7 88.4 99.7 C 87.3 99.7 87.8 100.0 89.1 100.0 C 89.1 99.8 88.5 99.9 89.1 99.7 C 89.2 99.8 89.8 100.0 89.8 100.3 C 90.9 100.3 90.3 99.9 91.6 99.9 C 91.5 99.7 90.6 99.8 90.1 99.7 C 90.3 99.4 91.6 99.9 91.2 99.5 C 91.5 99.7 92.3 99.8 92.3 100.1 C 91.3 100.2 90.6 100.4 89.8 100.5 C 90.6 100.6 91.7 100.1 93.0 100.3 C 92.9 100.1 93.7 100.1 93.4 99.9 C 94.5 99.9 94.0 100.2 93.8 100.3 C 94.1 100.4 96.1 100.2 95.9 100.0 C 96.1 100.2 98.5 100.1 98.4 99.8 C 99.2 99.9 100.3 99.5 100.6 99.8 C 101.0 99.7 101.8 99.7 102.7 99.6 C 103.0 99.3 101.4 99.6 101.3 99.4 C 101.0 99.2 103.0 99.3 102.7 99.1 C 102.7 99.1 102.7 99.0 102.7 99.0 C 102.0 99.1 101.3 99.2 100.6 99.3 C 100.0 99.3 100.7 99.2 100.6 99.1 C 100.1 99.3 97.8 99.7 97.7 99.2 C 96.2 99.4 95.1 99.4 94.5 99.6 C 93.5 99.6 95.0 99.4 94.5 99.3 C 91.8 99.7 88.5 99.3 86.2 99.7 C 85.7 99.7 85.9 99.5 85.8 99.4 C 82.7 99.5 85.4 99.9 82.9 99.8 C 83.0 99.5 84.1 99.6 84.0 99.4 C 83.2 99.4 83.0 99.5 81.9 99.4 C 81.9 99.5 81.9 99.6 81.9 99.7 C 80.9 99.7 81.3 99.4 80.8 99.3 C 79.7 99.4 79.9 99.5 79.4 99.2 C 78.3 99.3 77.2 99.3 76.1 99.1 C 75.4 99.3 76.8 99.7 77.9 99.8 C 77.9 99.8 77.5 99.8 77.5 99.9 C 76.2 99.7 76.0 99.2 74.0 99.0 C 75.5 99.4 73.2 99.1 72.9 98.9 C 72.1 98.9 72.7 99.2 73.3 99.2 C 73.2 99.3 72.7 99.2 72.6 99.1 C 72.5 99.5 74.4 99.8 76.5 99.7 C 75.5 100.1 77.9 99.7 76.8 100.2 C 78.5 100.2 77.1 99.9 79.0 100.0 C 78.8 99.8 78.5 99.8 78.3 99.6 C 79.7 99.6 79.3 100.0 80.8 99.9 C 81.1 99.7 80.1 99.8 80.1 99.6 C 81.7 99.9 82.2 100.0 83.3 100.2 C 83.5 100.1 83.3 99.9 85.1 100.0 C 85.1 100.1 85.1 100.1 85.1 100.2 C 84.2 100.1 84.0 100.6 86.2 100.6 C 86.4 100.4 85.7 100.4 85.1 100.4 C 85.4 100.3 86.1 100.2 86.9 100.2 C 87.3 100.2 87.8 100.3 87.3 100.4 C 87.6 100.6 87.9 100.1 89.1 100.3 C 89.1 100.3 89.1 100.3 89.1 100.3 Z M 3.1 70.0 C 3.1 70.3 3.2 70.5 3.2 70.9 C 3.4 71.0 3.3 70.3 3.5 70.3 C 3.5 69.8 3.2 70.2 3.1 70.0 C 3.1 70.0 3.1 70.0 3.1 70.0 Z M 6.0 62.9 C 5.8 62.9 5.8 63.4 5.3 63.9 C 5.4 64.2 5.8 63.5 5.9 63.6 C 6.4 63.0 5.5 63.5 6.0 62.9 C 6.0 62.9 6.0 62.9 6.0 62.9 Z M 4.3 65.9 C 4.0 66.1 4.3 66.2 4.5 65.7 C 4.6 65.8 4.6 65.9 4.6 66.3 C 4.9 66.0 4.7 65.6 5.1 65.0 C 4.8 65.2 4.6 65.5 4.3 65.9 C 4.3 65.9 4.3 65.9 4.3 65.9 Z M 3.9 66.9 C 3.9 67.3 3.6 67.5 3.6 68.2 C 3.8 68.1 4.1 66.7 4.2 66.4 C 4.1 66.1 3.5 67.7 3.9 66.9 C 3.9 66.9 3.9 66.9 3.9 66.9 Z M 52.2 97.1 C 52.5 97.1 52.4 97.0 52.5 97.0 C 53.5 97.5 55.0 97.6 53.8 97.8 C 54.9 97.8 55.9 98.2 56.8 98.4 C 57.6 98.5 57.2 98.2 57.8 98.3 C 58.8 98.5 57.3 98.4 57.5 98.5 C 57.7 98.7 58.0 98.3 59.2 98.6 C 58.9 98.2 60.2 98.8 59.9 98.3 C 60.6 98.6 60.8 98.4 61.7 98.5 C 61.6 98.3 60.7 98.3 60.7 98.1 C 60.2 97.8 60.2 98.3 61.0 98.3 C 60.5 98.5 59.3 98.0 58.9 98.1 C 58.5 97.8 60.0 98.2 59.6 97.9 C 59.3 97.9 59.0 97.9 58.9 98.0 C 58.4 97.9 58.1 97.7 57.9 97.6 C 58.2 97.6 58.3 97.7 58.3 97.7 C 58.9 97.8 57.7 97.2 59.0 97.4 C 58.8 97.3 58.2 97.2 58.3 97.1 C 58.0 96.9 58.2 97.8 56.9 97.3 C 56.0 97.4 59.0 97.8 58.2 98.2 C 56.3 97.9 57.4 97.7 55.9 97.4 C 55.9 97.5 55.9 97.6 55.5 97.6 C 55.6 97.7 56.1 97.7 56.5 97.8 C 56.4 97.9 55.9 97.8 55.5 97.8 C 55.5 97.8 55.8 97.9 55.8 98.0 C 54.5 97.7 54.7 97.2 55.9 97.2 C 55.9 97.0 54.3 96.8 53.9 96.9 C 54.3 97.1 53.8 97.0 54.2 97.3 C 54.5 97.4 54.4 97.3 54.5 97.2 C 55.1 97.4 54.6 97.4 54.5 97.5 C 53.8 97.3 53.9 97.1 53.2 97.2 C 53.4 97.1 53.5 97.1 53.5 97.0 C 53.2 96.9 52.9 96.9 52.5 96.8 C 52.5 97.0 52.1 96.9 52.2 97.1 C 52.2 97.1 52.2 97.1 52.2 97.1 Z M 70.0 99.8 C 71.2 99.9 70.6 99.6 70.1 99.6 C 70.3 99.5 70.7 99.5 71.1 99.5 C 70.8 99.4 70.5 99.4 69.4 99.3 C 70.4 99.1 69.4 98.5 67.6 98.4 C 67.1 98.9 68.6 99.1 68.0 99.3 C 69.2 99.2 69.9 99.4 70.0 99.8 C 70.0 99.8 70.0 99.8 70.0 99.8 Z M 10.2 58.7 C 9.7 59.1 9.2 59.5 8.7 60.0 C 9.0 60.1 10.6 58.9 10.2 58.7 C 10.2 58.7 10.2 58.7 10.2 58.7 Z M 57.9 43.4 C 58.2 43.3 58.3 43.4 58.3 43.4 C 59.3 43.2 57.8 43.3 58.3 43.0 C 57.9 43.1 57.6 43.1 57.2 43.2 C 57.2 43.3 58.7 43.2 57.6 43.4 C 57.7 43.5 57.9 43.4 57.9 43.4 C 57.9 43.4 57.9 43.4 57.9 43.4 Z M 3.5 69.5 C 3.5 70.0 3.8 69.7 3.7 70.9 C 3.9 70.5 3.8 70.2 3.9 69.6 C 3.7 69.6 3.6 69.5 3.5 69.5 C 3.5 69.5 3.5 69.5 3.5 69.5 Z M 47.1 96.6 C 47.9 97.0 48.2 96.5 49.8 97.0 C 49.0 96.5 48.1 96.7 47.1 96.6 C 47.1 96.6 47.1 96.6 47.1 96.6 Z M 105.5 99.0 C 105.0 99.0 105.7 98.9 104.8 98.8 C 104.3 98.9 104.1 99.1 103.4 99.2 C 104.4 99.4 106.2 99.0 107.0 99.3 C 107.8 99.2 107.7 98.9 108.0 98.7 C 107.6 98.8 107.4 98.8 107.3 98.7 C 106.8 99.1 106.1 98.6 105.5 99.0 C 105.5 99.0 105.5 99.0 105.5 99.0 Z M 65.5 99.0 C 64.9 98.8 66.0 98.8 66.2 98.6 C 66.7 98.7 66.5 98.9 66.6 99.0 C 67.2 99.0 67.4 98.9 67.3 98.7 C 66.1 98.6 64.7 98.4 65.6 98.2 C 64.5 98.0 65.0 98.4 64.5 98.4 C 63.9 98.2 64.5 98.2 64.5 97.9 C 64.3 98.0 63.4 98.2 63.5 97.8 C 61.8 98.0 62.5 98.5 63.7 99.0 C 64.9 98.8 63.6 98.6 65.5 99.0 C 65.5 99.0 65.5 99.0 65.5 99.0 Z M 23.1 89.4 C 23.2 89.6 24.0 89.9 24.0 90.0 C 25.0 90.1 25.9 90.2 27.0 90.3 C 26.8 90.1 25.5 89.8 26.0 90.1 C 25.6 89.8 24.8 89.4 24.3 89.1 C 23.4 88.7 22.9 89.0 23.0 88.6 C 22.1 88.4 22.5 88.6 21.3 87.9 C 23.2 89.1 20.5 87.8 20.3 87.9 C 21.4 88.5 22.5 89.0 22.5 88.6 C 23.3 89.1 24.3 89.6 24.5 89.9 C 24.4 90.0 23.6 89.6 23.1 89.4 C 23.1 89.4 23.1 89.4 23.1 89.4 Z M 28.9 90.9 C 28.5 90.8 28.1 90.7 27.5 90.4 C 27.8 90.6 27.9 90.8 27.9 90.9 C 29.1 91.3 29.2 91.2 29.4 91.5 C 30.1 91.8 29.4 91.1 30.3 91.6 C 30.3 91.5 29.8 91.3 29.8 91.2 C 29.7 91.4 29.5 91.3 28.9 90.9 C 28.9 90.9 28.9 90.9 28.9 90.9 Z M 37.8 94.0 C 38.6 94.1 37.5 93.7 37.9 93.6 C 37.7 93.6 36.2 93.2 36.5 93.0 C 36.1 92.6 34.5 92.8 34.7 92.5 C 34.4 92.4 34.5 92.5 34.4 92.6 C 35.4 92.8 35.4 93.0 34.6 92.9 C 34.7 93.0 35.3 93.1 35.8 93.3 C 35.9 93.1 35.5 93.0 35.6 92.9 C 36.4 93.2 37.0 93.6 37.8 94.0 C 37.8 94.0 37.8 94.0 37.8 94.0 Z M 96.7 42.3 C 95.8 42.2 95.3 42.2 94.9 42.3 C 95.1 42.4 95.6 42.3 96.0 42.3 C 96.1 42.5 95.7 42.5 95.2 42.5 C 95.7 42.7 97.2 42.5 96.7 42.3 C 96.7 42.3 96.7 42.3 96.7 42.3 Z M 89.5 42.1 C 88.7 42.1 88.2 42.1 88.1 42.2 C 88.4 42.4 88.3 42.2 88.8 42.2 C 89.1 42.2 89.3 42.3 89.5 42.4 C 89.9 42.4 89.8 42.3 89.9 42.3 C 90.2 42.3 90.2 42.3 90.2 42.3 C 91.2 42.1 89.1 42.4 89.5 42.1 C 89.5 42.1 89.5 42.1 89.5 42.1 Z M 32.9 92.4 C 32.6 92.2 32.5 92.1 31.8 91.9 C 31.9 92.1 31.3 91.9 30.9 91.7 C 31.5 92.1 31.8 92.1 32.9 92.4 C 32.9 92.4 32.9 92.4 32.9 92.4 Z M 46.1 45.9 C 45.1 45.9 45.2 46.3 43.8 46.4 C 43.9 46.5 43.9 46.5 43.9 46.6 C 44.7 46.3 45.1 46.3 46.1 45.9 C 46.1 45.9 46.1 45.9 46.1 45.9 Z M 168.6 75.8 C 168.5 75.7 168.2 76.4 168.1 76.4 C 168.3 76.7 167.6 76.7 166.7 78.1 C 166.6 78.1 166.7 77.9 166.8 77.8 C 165.9 78.8 167.2 77.6 167.5 77.6 C 168.0 76.8 168.3 76.7 168.6 75.8 C 168.6 75.8 168.6 75.8 168.6 75.8 Z M 94.8 98.9 C 94.8 98.9 95.0 98.9 95.2 98.9 C 95.4 98.9 95.7 98.9 95.9 98.9 C 95.8 98.6 94.6 98.5 95.5 98.1 C 95.2 98.1 95.1 98.2 95.2 98.2 C 93.4 99.0 92.0 97.8 89.8 98.3 C 89.4 98.3 89.5 98.4 89.4 98.5 C 89.7 98.5 89.7 98.5 89.8 98.6 C 90.1 98.2 92.1 98.6 91.2 98.7 C 91.3 98.8 91.6 98.8 91.6 98.7 C 91.8 98.7 92.1 98.7 92.3 98.7 C 92.2 98.6 91.7 98.6 91.6 98.5 C 92.7 98.5 94.1 98.6 93.4 98.9 C 94.1 98.9 94.3 98.7 94.8 98.6 C 95.3 98.6 95.3 98.9 94.8 98.9 C 94.8 98.9 94.8 98.9 94.8 98.9 Z M 104.0 98.3 C 105.1 98.3 104.7 98.1 105.8 98.0 C 105.1 97.9 104.3 98.2 103.3 98.1 C 103.5 98.2 104.0 98.2 104.0 98.3 C 104.0 98.3 104.0 98.3 104.0 98.3 Z M 83.4 98.6 C 83.6 98.3 82.6 98.2 81.5 98.2 C 81.3 98.5 82.3 98.5 83.4 98.6 C 83.4 98.6 83.4 98.6 83.4 98.6 Z M 88.0 98.6 C 89.1 98.5 86.7 98.5 87.3 98.3 C 86.8 98.3 86.3 98.3 86.2 98.2 C 85.8 98.2 85.8 98.4 85.1 98.3 C 85.2 98.5 86.3 98.4 86.2 98.6 C 87.0 98.4 87.2 98.4 88.0 98.6 C 88.0 98.6 88.0 98.6 88.0 98.6 Z M 88.7 98.6 C 89.4 98.5 88.5 98.1 87.7 98.1 C 88.0 98.3 88.2 98.5 88.7 98.6 C 88.7 98.6 88.7 98.6 88.7 98.6 Z M 9.9 80.2 C 10.2 80.5 10.1 80.1 10.5 80.4 C 10.6 80.3 9.3 79.1 10.4 80.1 C 10.2 79.5 9.7 79.6 9.3 79.1 C 9.4 79.3 9.4 79.5 9.2 79.2 C 8.9 79.2 10.2 80.2 9.9 80.2 C 9.9 80.2 9.9 80.2 9.9 80.2 Z M 11.3 81.4 C 11.6 81.6 11.5 81.5 11.4 81.3 C 11.5 81.3 11.9 81.7 12.2 81.9 C 12.1 82.0 11.9 81.2 12.0 81.1 C 10.6 80.2 11.4 81.2 11.3 81.4 C 11.3 81.4 11.3 81.4 11.3 81.4 Z M 12.7 82.3 C 13.5 83.1 14.9 84.0 15.8 84.2 C 15.2 83.5 13.3 82.4 12.7 82.3 C 12.7 82.3 12.7 82.3 12.7 82.3 Z M 6.5 75.4 C 6.9 76.8 9.0 79.0 7.6 76.7 C 7.5 76.9 6.5 75.4 6.3 74.7 C 6.2 74.7 5.7 73.9 5.9 73.9 C 5.5 73.3 6.4 75.8 6.5 75.4 C 6.5 75.4 6.5 75.4 6.5 75.4 Z M 17.3 84.6 C 16.7 84.4 17.2 85.1 16.4 84.5 C 15.9 84.3 16.5 84.7 16.3 84.7 C 17.4 85.3 19.8 86.3 19.9 86.6 C 20.6 86.8 20.8 86.8 22.0 87.3 C 22.1 87.2 17.8 85.6 17.3 84.7 C 17.4 84.6 18.7 85.3 17.3 84.6 C 17.3 84.6 17.3 84.6 17.3 84.6 Z M 46.4 47.3 C 46.4 47.1 45.1 47.5 45.3 47.2 C 44.7 47.7 44.0 47.6 43.2 48.0 C 43.0 48.0 43.0 47.6 41.9 47.8 C 41.9 48.0 42.4 47.8 41.9 48.1 C 41.0 48.4 41.2 48.0 40.1 48.4 C 40.3 48.7 37.7 49.0 38.1 49.4 C 38.6 49.2 38.5 49.0 39.5 48.8 C 39.9 48.8 39.7 48.9 40.2 48.8 C 39.9 49.1 39.3 48.9 39.0 49.2 C 39.1 49.4 39.8 49.2 40.0 49.3 C 40.4 49.2 39.8 49.2 39.9 49.1 C 41.1 48.7 39.9 49.6 41.2 49.3 C 40.9 49.1 40.9 49.1 41.1 48.8 C 41.7 48.8 43.2 48.3 42.4 48.7 C 42.5 48.9 43.4 48.4 43.3 48.3 C 43.8 48.2 43.9 48.2 43.9 48.3 C 45.2 47.9 45.4 47.7 45.1 47.5 C 45.3 47.2 45.6 47.6 46.4 47.3 C 46.4 47.3 46.4 47.3 46.4 47.3 Z M 5.7 68.5 C 5.6 67.9 5.6 69.0 5.5 69.5 C 5.6 68.9 5.9 69.2 6.1 68.6 C 5.9 68.8 5.9 68.7 6.0 68.3 C 5.9 68.2 5.6 69.1 5.7 68.5 C 5.7 68.5 5.7 68.5 5.7 68.5 Z M 24.6 88.4 C 25.0 88.8 27.4 89.5 28.7 90.0 C 28.6 89.6 25.3 88.9 25.1 88.4 C 24.4 88.2 25.4 88.7 24.6 88.4 C 24.6 88.4 24.6 88.4 24.6 88.4 Z M 34.7 49.8 C 34.4 49.9 34.6 49.9 34.7 49.8 C 34.6 50.0 34.0 50.1 33.6 50.3 C 34.3 50.2 33.5 50.5 33.7 50.7 C 33.4 50.8 33.2 50.9 33.2 51.0 C 33.0 50.5 31.5 51.7 33.3 51.3 C 32.9 51.1 33.0 51.1 33.7 50.8 C 34.6 50.7 35.2 50.3 35.5 50.5 C 36.1 50.4 36.2 50.2 36.9 50.0 C 37.2 50.1 37.9 50.1 37.4 50.5 C 38.7 50.2 37.7 49.9 38.7 49.5 C 39.8 49.4 38.3 49.9 38.6 50.1 C 38.8 50.0 38.8 50.1 38.9 50.1 C 39.3 50.0 39.2 49.8 38.8 49.9 C 38.9 49.8 39.9 49.3 39.7 49.7 C 40.3 49.4 38.6 49.2 37.8 49.7 C 37.3 49.8 37.2 49.4 37.7 49.3 C 37.5 49.1 36.6 49.9 36.8 49.4 C 36.4 49.5 36.0 49.6 35.6 49.7 C 35.7 49.7 35.9 49.7 35.9 49.8 C 35.6 49.9 35.2 50.0 34.8 50.1 C 35.1 49.9 35.1 49.8 34.7 49.8 C 34.7 49.8 34.7 49.8 34.7 49.8 Z M 19.3 86.0 C 20.2 86.4 20.5 86.4 21.3 86.8 C 21.1 86.4 19.0 85.5 19.3 86.0 C 19.3 86.0 19.3 86.0 19.3 86.0 Z M 52.0 47.1 C 51.9 47.0 51.3 47.1 51.3 47.0 C 52.3 46.8 51.1 46.8 51.9 46.3 C 50.6 46.7 50.2 47.3 52.0 47.2 C 53.3 47.0 50.7 47.3 52.0 47.1 C 52.0 47.1 52.0 47.1 52.0 47.1 Z M 48.0 47.6 C 47.3 47.9 49.3 47.6 49.7 47.6 C 49.7 47.7 49.8 47.8 49.8 47.9 C 50.8 47.3 49.3 47.4 50.2 46.8 C 49.0 46.9 48.4 46.9 47.3 47.2 C 47.4 47.3 47.7 47.2 47.6 47.2 C 48.5 47.1 48.0 47.5 47.1 47.5 C 47.3 47.6 48.1 47.5 48.7 47.4 C 48.5 47.4 48.3 47.3 48.3 47.2 C 49.0 47.1 48.8 47.3 49.3 47.2 C 49.3 47.3 48.1 47.7 48.0 47.6 C 48.0 47.6 48.0 47.6 48.0 47.6 Z M 116.5 45.7 C 115.8 45.6 117.1 46.1 117.0 46.5 C 117.7 46.6 117.9 46.5 118.4 46.6 C 118.2 46.4 117.4 46.3 117.1 46.1 C 117.2 45.8 118.1 46.3 118.4 46.1 C 118.9 45.8 116.7 46.0 116.5 45.7 C 116.5 45.7 116.5 45.7 116.5 45.7 Z M 17.8 56.8 C 17.4 57.0 17.6 56.9 17.8 56.8 C 17.8 57.0 17.2 57.3 17.1 57.2 C 16.6 57.5 17.5 57.2 16.9 57.5 C 16.9 57.7 17.8 57.0 17.8 56.9 C 18.6 56.5 18.2 57.1 18.4 57.1 C 19.1 56.7 18.7 56.6 19.8 56.2 C 19.1 56.4 18.5 56.5 17.8 56.8 C 17.8 56.8 17.8 56.8 17.8 56.8 Z M 54.2 46.2 C 54.3 46.1 53.5 46.7 52.6 46.7 C 51.4 46.9 53.3 46.8 52.3 46.9 C 53.2 46.9 54.2 46.5 55.6 46.3 C 55.9 46.1 53.7 46.5 54.9 46.2 C 54.8 46.1 54.5 46.2 54.5 46.3 C 54.3 46.3 54.2 46.3 54.2 46.2 C 54.2 46.2 54.2 46.2 54.2 46.2 Z M 53.0 47.0 C 53.0 47.1 53.3 47.0 53.3 47.0 C 53.7 46.9 53.8 47.1 53.4 47.2 C 53.9 47.4 53.8 46.9 55.0 46.9 C 54.5 46.7 54.2 46.6 55.3 46.7 C 56.1 46.3 53.3 46.8 53.0 47.0 C 53.0 47.0 53.0 47.0 53.0 47.0 Z M 105.4 44.7 C 105.5 44.8 106.3 44.8 106.8 44.9 C 106.1 45.0 103.3 44.7 103.0 44.5 C 102.7 44.6 102.4 44.6 102.3 44.5 C 102.3 44.6 101.5 44.6 101.9 44.7 C 101.8 44.8 101.2 44.7 101.2 44.8 C 100.1 44.7 101.5 44.7 101.2 44.5 C 99.9 44.6 100.2 44.5 98.7 44.4 C 99.0 44.6 100.6 44.6 100.5 44.9 C 101.7 44.7 102.9 45.0 103.6 45.3 C 102.5 44.8 106.7 45.0 108.5 45.2 C 108.5 45.4 109.1 45.4 109.9 45.6 C 110.4 45.9 110.3 45.3 109.2 45.3 C 109.3 45.2 110.7 45.5 111.3 45.5 C 110.6 45.3 111.0 45.2 110.7 45.1 C 109.3 44.9 110.5 45.1 110.3 45.3 C 109.9 45.3 109.6 45.2 109.2 45.2 C 111.1 45.0 106.6 44.9 108.2 45.0 C 106.8 44.9 106.8 44.6 105.4 44.7 C 105.4 44.7 105.4 44.7 105.4 44.7 Z M 72.1 44.4 C 71.8 44.4 70.7 44.7 70.7 44.5 C 69.3 44.8 70.5 44.9 68.9 45.0 C 69.0 45.1 69.7 45.0 69.7 45.1 C 70.3 45.0 70.9 44.9 70.7 44.6 C 71.4 44.6 71.6 44.5 72.1 44.5 C 71.9 44.6 71.7 44.7 71.0 44.7 C 70.9 44.9 71.2 45.0 72.1 45.0 C 72.5 44.7 72.2 44.6 72.1 44.4 C 72.1 44.4 72.1 44.4 72.1 44.4 Z M 68.6 45.0 C 68.4 44.9 68.2 44.9 68.2 44.7 C 67.7 44.5 68.0 45.1 67.5 45.1 C 67.1 45.1 67.3 45.0 67.2 44.9 C 66.6 45.0 66.1 45.1 65.8 45.0 C 64.9 45.2 66.9 45.2 67.2 45.2 C 67.9 45.2 67.6 45.0 68.6 45.0 C 68.6 45.0 68.6 45.0 68.6 45.0 Z M 58.2 45.8 C 58.0 45.6 57.7 46.0 57.3 46.0 C 57.6 46.2 58.6 45.9 58.0 46.3 C 59.0 46.2 59.0 46.2 60.0 46.0 C 60.7 46.2 60.0 45.8 59.0 46.1 C 59.1 46.0 59.6 45.9 59.6 45.8 C 60.3 46.2 62.0 45.2 61.0 45.7 C 60.7 45.7 60.5 45.6 60.3 45.5 C 60.1 45.8 57.8 45.9 58.2 45.8 C 58.2 45.8 58.2 45.8 58.2 45.8 Z M 26.3 53.4 C 28.1 52.7 28.8 52.5 29.9 52.2 C 30.0 52.2 29.9 52.3 29.7 52.4 C 30.0 52.4 30.3 52.3 30.7 52.1 C 30.7 52.0 30.5 52.1 30.5 52.1 C 29.5 52.3 30.3 52.0 30.4 51.8 C 29.2 51.9 27.6 53.0 26.7 53.0 C 26.0 53.3 26.9 53.0 26.3 53.4 C 26.3 53.4 26.3 53.4 26.3 53.4 Z M 167.2 74.1 C 167.2 74.3 167.1 74.6 167.3 74.6 C 167.4 74.3 167.4 74.1 167.4 73.8 C 167.2 74.3 166.9 74.1 166.6 74.8 C 166.8 74.6 167.0 74.8 167.2 74.1 C 167.2 74.1 167.2 74.1 167.2 74.1 Z M 61.7 45.4 C 61.7 45.6 61.8 45.7 61.4 45.7 C 61.2 45.9 62.3 45.7 62.4 45.9 C 62.7 45.8 62.6 45.7 63.1 45.6 C 62.9 45.5 62.0 45.7 62.3 45.4 C 62.6 45.3 62.7 45.4 62.7 45.4 C 63.4 45.2 62.3 45.3 61.7 45.4 C 61.7 45.4 61.7 45.4 61.7 45.4 Z M 119.8 46.4 C 119.3 46.3 119.7 46.5 120.1 46.6 C 119.1 46.7 120.6 47.0 120.6 47.3 C 120.3 47.0 118.9 47.0 118.7 46.9 C 118.3 46.9 118.7 47.1 117.6 47.0 C 117.7 47.3 118.9 47.2 118.7 47.0 C 118.9 47.3 120.1 47.2 120.0 47.4 C 121.4 47.7 121.8 47.6 122.0 47.4 C 120.5 47.2 121.3 46.9 120.1 46.8 C 120.1 46.7 120.5 46.8 120.7 46.8 C 120.6 46.7 120.1 46.5 119.8 46.4 C 119.8 46.4 119.8 46.4 119.8 46.4 Z M 83.4 44.1 C 82.6 44.1 82.7 44.3 82.7 44.5 C 83.0 44.5 83.5 44.4 84.1 44.4 C 84.0 44.3 83.0 44.4 83.4 44.1 C 83.4 44.1 83.4 44.1 83.4 44.1 Z M 114.3 46.0 C 114.3 45.9 114.0 45.9 114.0 45.9 C 113.2 45.8 113.0 45.7 112.7 45.5 C 112.2 45.5 112.4 45.7 112.3 45.8 C 113.1 45.7 112.9 46.0 114.0 46.1 C 113.9 46.0 114.1 46.0 114.3 46.0 C 114.3 46.0 114.3 46.0 114.3 46.0 Z M 90.9 44.3 C 90.5 44.3 90.7 44.3 90.9 44.4 C 90.4 44.6 89.0 44.4 88.4 44.5 C 88.3 44.7 90.1 44.7 88.1 44.7 C 88.4 44.9 90.3 44.8 91.2 44.8 C 91.0 45.1 89.8 45.0 89.8 45.3 C 90.9 45.2 92.1 45.1 92.3 44.7 C 90.7 44.6 91.3 44.4 90.9 44.3 C 90.9 44.3 90.9 44.3 90.9 44.3 Z M 92.7 44.5 C 92.5 44.3 92.2 44.5 91.6 44.4 C 92.5 44.8 93.0 44.6 94.8 44.8 C 94.8 44.7 94.8 44.7 94.8 44.6 C 95.2 44.6 95.6 44.6 95.9 44.6 C 94.4 44.3 94.0 44.5 92.3 44.5 C 92.3 44.5 92.5 44.5 92.7 44.5 C 92.7 44.5 92.7 44.5 92.7 44.5 Z M 46.5 48.1 C 46.9 48.1 47.3 48.2 48.1 48.1 C 48.0 47.9 47.5 47.8 46.5 48.1 C 46.5 48.1 46.5 48.1 46.5 48.1 Z M 115.7 46.3 C 116.6 46.3 114.8 46.2 115.3 46.5 C 116.0 46.7 116.8 46.9 116.9 47.1 C 118.3 47.0 115.5 46.6 115.7 46.3 C 115.7 46.3 115.7 46.3 115.7 46.3 Z M 109.5 46.2 C 109.1 46.1 109.1 45.8 109.5 46.0 C 110.5 46.1 108.7 45.7 110.2 45.9 C 109.6 45.8 108.1 45.5 107.5 45.6 C 107.5 45.8 108.8 45.8 108.8 46.0 C 108.9 46.1 108.7 46.1 108.5 46.1 C 108.6 46.2 108.9 46.1 109.5 46.2 C 109.5 46.2 109.5 46.2 109.5 46.2 Z M 104.3 45.3 C 104.9 45.5 105.6 45.7 106.8 45.8 C 106.0 45.5 105.6 45.3 104.3 45.3 C 104.3 45.3 104.3 45.3 104.3 45.3 Z M 164.4 64.3 C 164.0 63.9 164.1 64.4 164.1 64.5 C 164.5 65.0 164.6 64.9 164.9 65.4 C 165.1 65.1 164.4 64.8 164.4 64.3 C 164.4 64.3 164.4 64.3 164.4 64.3 Z M 165.5 66.1 C 165.4 66.2 165.8 66.8 165.7 66.9 C 166.3 67.1 165.9 67.9 166.2 67.8 C 166.2 67.9 166.2 68.1 166.3 68.3 C 166.5 67.7 165.9 66.6 165.5 66.1 C 165.5 66.1 165.5 66.1 165.5 66.1 Z M 98.3 45.5 C 97.4 45.4 98.6 45.9 97.6 45.8 C 97.5 45.9 99.4 46.0 98.3 46.0 C 99.7 46.3 98.2 45.5 98.3 45.5 C 98.3 45.5 98.3 45.5 98.3 45.5 Z M 81.0 45.5 C 81.0 45.3 79.7 45.5 79.2 45.5 C 79.2 45.6 79.6 45.5 79.9 45.6 C 79.8 45.6 79.6 45.7 79.2 45.7 C 79.5 45.9 80.5 45.6 81.0 45.5 C 81.0 45.5 81.0 45.5 81.0 45.5 Z M 100.3 41.4 C 100.9 41.7 101.7 41.9 102.1 41.6 C 102.7 41.8 101.7 41.8 102.4 42.0 C 103.4 41.9 102.9 42.2 104.6 42.1 C 104.2 42.4 105.4 42.5 105.6 42.7 C 104.9 42.7 104.1 42.4 103.8 42.6 C 104.4 42.6 104.0 42.8 103.8 42.6 C 102.7 42.4 105.1 42.4 103.8 42.2 C 103.4 42.5 101.6 41.8 100.3 41.7 C 100.8 41.6 99.4 41.4 100.3 41.4 C 100.3 41.4 100.3 41.4 100.3 41.4 Z M 106.7 42.3 C 107.5 42.4 107.9 42.9 107.7 42.9 C 107.7 42.8 106.7 42.7 106.6 42.8 C 106.9 42.8 107.1 42.8 107.0 42.9 C 105.4 42.7 106.0 42.6 105.6 42.4 C 106.5 42.3 106.7 42.5 107.0 42.4 C 106.8 42.4 106.6 42.4 106.7 42.3 C 106.7 42.3 106.7 42.3 106.7 42.3 Z M 124.1 48.5 C 124.0 48.4 123.8 48.5 123.5 48.5 C 123.5 48.1 121.7 48.3 121.5 48.1 C 121.9 48.0 122.8 48.2 123.2 48.1 C 122.8 48.0 122.7 47.9 122.2 48.0 C 122.3 47.8 123.3 47.9 123.6 47.8 C 123.6 47.9 124.1 47.8 124.2 48.0 C 122.9 47.9 124.9 48.6 124.1 48.5 C 124.1 48.5 124.1 48.5 124.1 48.5 Z M 90.2 45.5 C 90.1 45.8 91.6 46.4 90.2 46.7 C 89.9 46.5 89.7 46.2 89.8 45.9 C 89.0 46.1 88.6 45.8 88.1 46.1 C 86.4 45.4 89.3 46.2 90.2 45.5 C 90.2 45.5 90.2 45.5 90.2 45.5 Z M 84.5 45.8 C 84.8 45.5 84.0 45.6 84.1 45.4 C 84.8 45.5 87.1 45.3 86.3 45.4 C 85.6 45.5 85.6 45.8 84.5 45.8 C 84.5 45.8 84.5 45.8 84.5 45.8 Z M 43.8 93.7 C 42.7 93.6 42.3 93.1 42.9 93.1 C 42.6 93.3 44.2 93.5 43.8 93.7 C 43.8 93.7 43.8 93.7 43.8 93.7 Z M 4.9 79.3 C 5.3 80.1 5.8 80.5 5.7 80.7 C 5.0 80.0 5.2 80.0 4.7 79.4 C 4.6 79.4 4.3 79.1 4.3 78.9 C 4.6 79.3 4.6 79.1 4.9 79.3 C 4.9 79.3 4.9 79.3 4.9 79.3 Z M 62.6 41.3 C 62.5 41.2 62.1 41.2 62.2 41.0 C 63.3 41.0 64.5 40.7 65.4 40.5 C 65.4 40.6 65.4 40.7 65.4 40.8 C 63.7 40.9 63.3 41.1 62.6 41.3 C 62.6 41.3 62.6 41.3 62.6 41.3 Z M 60.5 41.1 C 60.3 41.2 60.9 41.4 60.2 41.5 C 60.2 41.3 58.8 41.2 59.4 41.1 C 59.7 41.3 60.0 41.2 60.5 41.1 C 60.5 41.1 60.5 41.1 60.5 41.1 Z M 120.2 43.2 C 121.1 43.3 119.9 42.9 119.9 42.8 C 120.5 43.0 121.4 43.1 121.6 43.2 C 121.0 43.1 120.5 43.5 120.2 43.2 C 120.2 43.2 120.2 43.2 120.2 43.2 Z M 107.4 42.3 C 105.6 42.2 106.4 41.8 104.6 41.6 C 105.3 41.5 107.0 41.7 107.5 41.5 C 107.4 41.6 107.8 41.7 107.8 41.8 C 107.1 41.8 107.0 41.7 106.4 41.6 C 106.6 41.9 106.6 41.8 106.3 42.0 C 106.8 42.1 107.1 42.1 107.4 42.0 C 107.3 42.2 107.9 42.3 107.4 42.3 C 107.4 42.3 107.4 42.3 107.4 42.3 Z M 119.8 43.8 C 120.5 43.8 121.0 44.2 120.5 44.1 C 120.4 44.0 119.9 44.1 119.8 43.9 C 120.8 44.0 119.0 43.7 119.5 43.6 C 120.1 43.7 120.3 43.6 120.2 43.4 C 120.6 43.5 121.2 43.6 121.2 43.7 C 120.9 43.6 120.5 43.6 120.5 43.7 C 120.7 43.7 120.9 43.7 120.8 43.8 C 120.3 43.7 120.0 43.7 119.8 43.8 C 119.8 43.8 119.8 43.8 119.8 43.8 Z M 115.1 43.2 C 116.0 43.3 116.1 43.5 116.4 43.7 C 115.1 43.5 115.0 43.1 114.0 42.9 C 115.1 43.1 116.1 42.9 116.5 43.1 C 116.0 43.1 115.1 43.0 115.1 43.2 C 115.1 43.2 115.1 43.2 115.1 43.2 Z M 133.0 94.8 C 132.2 94.8 131.6 94.8 130.7 94.9 C 130.5 95.2 132.1 95.3 131.5 95.3 C 130.6 95.5 131.1 95.1 130.4 95.2 C 131.2 95.4 127.5 96.1 127.2 95.8 C 127.8 95.7 128.0 95.6 127.8 95.4 C 129.3 95.2 129.9 94.9 131.0 94.6 C 131.8 94.7 134.2 94.3 135.3 93.7 C 136.2 93.9 137.5 93.0 138.7 93.1 C 139.0 92.9 137.7 93.1 138.6 92.8 C 139.3 92.9 138.8 93.1 139.6 93.0 C 139.7 92.9 139.4 92.8 139.8 92.6 C 139.8 92.8 140.3 92.7 140.5 92.7 C 138.9 93.1 140.7 93.0 139.4 93.4 C 138.9 93.4 139.9 92.9 138.4 93.3 C 137.9 93.5 137.5 93.7 137.6 93.9 C 137.2 94.0 137.0 94.1 136.7 94.2 C 137.2 93.8 134.7 94.8 135.8 94.2 C 135.9 94.2 136.7 94.0 137.3 93.7 C 136.7 93.6 136.1 93.9 135.1 94.3 C 134.7 94.2 135.3 94.0 134.8 94.0 C 134.1 94.4 135.1 94.3 134.6 94.6 C 134.8 94.5 135.2 94.4 135.2 94.5 C 133.9 94.6 133.4 95.0 132.7 95.1 C 133.2 94.8 131.9 95.1 133.0 94.8 C 133.0 94.8 133.0 94.8 133.0 94.8 Z M 143.6 91.6 C 143.9 91.5 144.2 91.4 144.5 91.3 C 144.6 91.5 143.5 91.9 144.3 91.9 C 143.1 92.2 144.3 91.6 143.6 91.6 C 143.6 91.6 143.6 91.6 143.6 91.6 Z M 137.6 92.4 C 137.1 92.3 137.5 92.8 137.1 92.9 C 137.8 92.7 138.4 92.4 138.6 92.7 C 137.7 92.8 137.3 92.9 136.5 93.2 C 137.2 92.6 135.5 93.2 135.1 93.0 C 135.8 92.7 136.3 92.5 137.2 92.3 C 137.1 92.4 138.4 92.2 137.6 92.4 C 137.6 92.4 137.6 92.4 137.6 92.4 Z M 139.8 91.5 C 140.1 91.6 141.3 91.1 141.1 91.4 C 140.3 91.6 140.1 91.8 140.3 91.9 C 139.7 92.1 139.6 92.0 139.1 92.2 C 138.7 92.0 139.6 91.8 139.9 91.5 C 139.7 91.6 139.5 91.6 139.8 91.5 C 139.8 91.5 139.8 91.5 139.8 91.5 Z M 163.5 78.1 C 163.9 78.2 163.0 78.8 162.8 78.9 C 163.2 78.9 163.1 79.1 162.6 79.6 C 162.6 79.2 161.9 80.0 161.1 80.1 C 161.1 80.5 161.9 80.0 161.1 80.7 C 160.4 81.1 159.8 81.6 158.6 82.4 C 158.2 82.4 158.7 82.0 159.0 81.7 C 158.3 82.3 158.4 82.0 157.7 82.3 C 157.9 82.4 157.5 82.8 157.2 82.8 C 158.2 82.1 155.5 83.4 156.7 82.6 C 156.8 82.7 157.0 82.5 157.3 82.3 C 157.1 82.7 158.6 81.7 159.0 81.7 C 159.2 80.8 160.7 80.0 162.1 79.1 C 162.3 79.1 161.9 79.5 162.3 79.3 C 162.3 79.1 162.7 78.8 162.8 78.6 C 162.9 78.7 163.1 78.6 163.4 78.4 C 163.3 78.3 163.3 78.3 163.5 78.1 C 163.5 78.1 163.5 78.1 163.5 78.1 Z M 76.3 96.6 C 76.3 96.2 74.1 96.3 73.4 96.4 C 73.6 95.9 77.5 96.2 76.3 96.6 C 76.3 96.6 76.3 96.6 76.3 96.6 Z M 90.1 96.5 C 89.5 96.5 89.9 96.7 89.4 96.7 C 89.4 96.5 88.0 97.0 88.0 96.8 C 88.7 96.5 89.1 96.5 90.1 96.5 C 90.1 96.5 90.1 96.5 90.1 96.5 Z M 102.9 96.1 C 101.8 96.2 103.4 96.2 103.2 96.3 C 102.3 96.3 101.4 96.4 101.5 96.2 C 102.3 96.2 102.7 95.9 102.9 96.1 C 102.9 96.1 102.9 96.1 102.9 96.1 Z M 83.7 96.2 C 82.9 96.1 84.3 95.8 84.4 96.0 C 83.5 96.1 85.1 96.2 85.8 96.2 C 85.8 96.5 85.5 96.4 85.8 96.7 C 84.6 96.8 85.6 96.4 84.8 96.4 C 84.2 96.6 84.8 96.5 84.8 96.7 C 84.4 96.7 84.1 96.7 83.7 96.7 C 83.7 96.6 83.7 96.5 83.7 96.3 C 84.1 96.3 84.6 96.3 84.4 96.2 C 84.1 96.2 84.0 96.2 83.7 96.2 C 83.7 96.2 83.7 96.2 83.7 96.2 Z M 146.6 87.2 C 145.9 87.5 146.6 87.3 147.1 87.2 C 147.2 87.0 147.5 86.4 148.3 86.4 C 146.7 87.2 149.0 86.5 148.1 87.0 C 147.6 86.9 146.7 87.6 145.8 87.8 C 145.4 87.8 146.1 87.1 146.6 87.2 C 146.6 87.2 146.6 87.2 146.6 87.2 Z M 149.7 86.1 C 149.6 86.1 149.3 86.2 148.8 86.4 C 149.3 86.0 148.5 86.3 149.2 85.9 C 149.1 86.1 151.3 85.2 150.1 85.8 C 148.9 86.2 150.4 85.8 151.0 85.6 C 150.4 85.8 149.5 86.5 149.3 86.4 C 149.6 86.3 149.8 86.2 149.7 86.1 C 149.7 86.1 149.7 86.1 149.7 86.1 Z M 165.7 74.1 C 165.5 74.0 165.4 74.3 165.3 74.3 C 165.8 73.5 166.0 72.8 166.1 72.4 C 166.0 72.8 166.2 72.8 166.4 72.6 C 166.2 73.0 166.3 73.2 166.1 73.3 C 166.0 72.9 165.9 73.6 165.7 74.1 C 165.7 74.1 165.7 74.1 165.7 74.1 Z M 165.7 74.1 " fill="#000000"></path></g></g><image xlink:href="B96F23E9B2ABE21F7C4655E3A7B11AAB.png" width="93.00" height="28.00" transform="matrix(1.00, 0.00, -0.00, -1.00, 42.0, 82.0)"></image><g><clipPath id="clip-420"><path d="M 5.4 43.2 L 168.9 43.2 L 168.9 98.2 L 5.4 98.2 Z M 5.4 43.2 "></path></clipPath><g clip-path="url(#clip-420)"><text xml:space="preserve" font-family="Chalkduster" font-size="18.0" fill="#000000" transform="matrix(1.00, 0.00, -0.00, -1.00, 45.0, 62.0)">M</text><text xml:space="preserve" font-family="Chalkduster" font-size="18.0" fill="#000000" transform="matrix(1.00, 0.00, -0.00, -1.00, 60.6, 62.0)">o</text><text xml:space="preserve" font-family="Chalkduster" font-size="18.0" fill="#000000" transform="matrix(1.00, 0.00, -0.00, -1.00, 74.5, 62.0)">d</text><text xml:space="preserve" font-family="Chalkduster" font-size="18.0" fill="#000000" transform="matrix(1.00, 0.00, -0.00, -1.00, 88.9, 62.0)">u</text><text xml:space="preserve" font-family="Chalkduster" font-size="18.0" fill="#000000" transform="matrix(1.00, 0.00, -0.00, -1.00, 101.7, 62.0)">l</text><text xml:space="preserve" font-family="Chalkduster" font-size="18.0" fill="#000000" transform="matrix(1.00, 0.00, -0.00, -1.00, 109.2, 62.0)">e</text><text xml:space="preserve" font-family="Chalkduster" font-size="18.0" fill="#000000" transform="matrix(1.00, 0.00, -0.00, -1.00, 120.8, 62.0)">s</text></g></g><g><clipPath id="clip-421"><path d="M 24.3 -4.2 L 156.7 -4.2 L 156.7 58.7 L 24.3 58.7 Z M 24.3 -4.2 "></path></clipPath><g clip-path="url(#clip-421)"><text xml:space="preserve" font-family="Chalkduster" font-size="30.0" fill="#FEFFFE" transform="matrix(1.00, 0.00, -0.00, -1.00, 34.0, 14.0)">i</text><text xml:space="preserve" font-family="Chalkduster" font-size="30.0" fill="#FEFFFE" transform="matrix(1.00, 0.00, -0.00, -1.00, 45.8, 14.0)">m</text><text xml:space="preserve" font-family="Chalkduster" font-size="30.0" fill="#FEFFFE" transform="matrix(1.00, 0.00, -0.00, -1.00, 76.2, 14.0)">p</text><text xml:space="preserve" font-family="Chalkduster" font-size="30.0" fill="#FEFFFE" transform="matrix(1.00, 0.00, -0.00, -1.00, 95.1, 14.0)">o</text><text xml:space="preserve" font-family="Chalkduster" font-size="30.0" fill="#FEFFFE" transform="matrix(1.00, 0.00, -0.00, -1.00, 117.0, 14.0)">r</text><text xml:space="preserve" font-family="Chalkduster" font-size="30.0" fill="#FEFFFE" transform="matrix(1.00, 0.00, -0.00, -1.00, 132.8, 14.0)">t</text></g></g></g></svg>