<?xml version="1.0" encoding="UTF-8" standalone="no"?><svg xmlns="http://www.w3.org/2000/svg" xmlns:xlink="http://www.w3.org/1999/xlink" clip-rule="evenodd" stroke-miterlimit="4.00" viewBox="0 0 237 84"><desc>SVG generated by Keynote</desc><defs></defs><g transform="matrix(1.00, 0.00, -0.00, -1.00, 0.0, 84.0)"><path d="M 198.7 67.8 C 242.9 53.6 242.9 30.6 198.7 16.5 C 154.5 2.3 82.8 2.3 38.6 16.5 C -5.6 30.6 -5.6 53.6 38.6 67.8 C 82.8 81.9 154.5 81.9 198.7 67.8 Z M 198.7 67.8 " fill="#A8E685"></path><path d="M 59.0 7.3 C 58.7 7.5 58.3 7.6 57.7 7.7 C 58.0 7.7 58.2 7.7 58.2 7.8 C 58.7 7.7 59.4 7.5 60.4 7.3 C 60.4 7.3 59.8 7.4 59.5 7.4 C 59.1 7.5 59.1 7.4 59.0 7.3 C 59.0 7.3 59.0 7.3 59.0 7.3 Z M 53.5 75.2 C 52.6 74.9 53.5 75.4 53.8 75.5 C 53.9 75.5 53.9 75.4 54.3 75.5 C 54.3 75.7 53.6 75.6 53.0 75.5 C 50.6 74.9 52.4 74.9 53.5 75.2 C 53.5 75.2 53.5 75.2 53.5 75.2 Z M 180.8 75.7 C 182.7 75.3 180.6 75.5 180.3 75.4 C 181.2 75.2 180.4 75.0 181.5 74.7 C 181.8 74.8 182.2 74.8 182.4 74.8 C 181.9 75.0 181.2 75.1 181.1 75.2 C 181.8 75.1 182.7 74.8 182.9 74.9 C 181.4 75.3 182.7 75.2 183.0 75.3 C 181.7 75.5 181.3 75.8 180.8 75.7 C 180.8 75.7 180.8 75.7 180.8 75.7 Z M 210.4 18.0 C 211.2 18.3 211.8 18.6 211.6 18.6 C 210.8 18.3 210.3 18.0 209.8 17.8 C 209.7 17.8 209.9 18.1 209.2 17.8 C 208.4 17.3 209.0 17.1 209.4 17.2 C 209.4 17.4 212.1 18.4 210.4 18.0 C 210.4 18.0 210.4 18.0 210.4 18.0 Z M 157.9 5.8 C 156.2 5.5 157.8 6.2 156.0 5.8 C 156.1 5.6 155.8 5.3 157.0 5.5 C 157.1 5.6 157.8 5.7 157.9 5.8 C 157.9 5.8 157.9 5.8 157.9 5.8 Z M 127.3 79.6 C 127.3 79.7 128.6 79.7 128.3 79.9 C 127.6 79.9 127.0 79.9 126.3 79.9 C 126.2 79.8 126.4 79.6 127.3 79.6 C 127.3 79.6 127.3 79.6 127.3 79.6 Z M 192.8 70.4 C 194.7 70.2 196.5 69.2 196.0 69.6 C 196.7 69.7 194.9 70.7 194.9 70.4 C 194.6 70.2 191.3 70.8 192.8 70.4 C 192.8 70.4 192.8 70.4 192.8 70.4 Z M 64.3 73.1 C 66.4 73.6 66.1 72.9 67.4 73.4 C 66.9 73.4 66.7 73.4 66.5 73.5 C 66.9 73.5 67.4 73.6 67.4 73.7 C 66.4 73.5 65.1 73.4 64.3 73.1 C 64.3 73.1 64.3 73.1 64.3 73.1 Z M 90.8 3.7 C 91.2 3.6 91.4 3.5 91.3 3.5 C 92.8 3.4 92.8 3.2 93.7 3.3 C 93.8 3.6 92.5 3.6 91.3 3.6 C 91.3 3.7 90.9 3.7 90.8 3.7 C 90.8 3.7 90.8 3.7 90.8 3.7 Z M 134.3 3.8 C 134.2 3.6 133.3 3.5 134.8 3.5 C 136.4 3.8 134.9 4.0 133.3 4.1 C 133.3 4.2 133.2 4.3 133.2 4.4 C 133.9 4.4 134.3 4.5 134.7 4.5 C 135.0 4.2 136.1 4.9 138.6 4.8 C 137.4 4.9 138.7 5.3 137.1 5.0 C 137.6 5.3 136.5 5.2 136.6 5.4 C 137.3 5.3 139.0 5.4 138.6 5.1 C 139.5 5.2 140.1 5.2 140.6 5.3 C 141.2 5.6 139.0 5.3 139.6 5.6 C 140.1 5.6 140.2 5.7 140.5 5.7 C 140.6 5.6 140.5 5.5 141.0 5.5 C 142.6 5.7 140.7 5.8 142.9 5.9 C 143.1 5.8 142.4 5.7 142.5 5.6 C 143.5 5.5 143.4 5.7 144.4 5.7 C 144.6 5.8 143.7 5.8 144.4 5.9 C 145.1 5.6 146.4 6.3 147.8 6.1 C 146.9 5.5 148.0 6.2 149.3 5.8 C 149.6 6.0 148.7 6.2 149.7 6.3 C 149.4 5.7 153.7 6.2 150.3 5.4 C 152.1 5.6 152.8 5.2 151.3 5.0 C 154.5 5.4 153.5 5.0 154.7 5.1 C 155.9 5.2 154.0 5.1 154.7 5.4 C 153.4 5.2 153.7 5.4 152.8 5.2 C 152.7 5.3 152.5 5.3 152.2 5.4 C 153.5 5.3 155.0 5.8 154.1 6.0 C 153.4 5.9 154.1 5.7 153.2 5.6 C 153.5 6.0 152.3 5.5 152.2 5.7 C 152.8 6.1 150.9 6.1 152.6 6.4 C 152.6 6.2 152.7 6.1 152.7 6.0 C 153.1 6.0 153.6 6.1 154.1 6.1 C 154.5 6.4 154.1 6.5 154.5 6.7 C 155.3 6.7 155.7 6.7 156.0 6.6 C 155.0 6.5 153.9 6.1 155.5 6.3 C 154.8 6.7 157.7 6.6 156.4 6.8 C 158.2 7.1 159.1 6.9 159.2 7.2 C 160.1 7.3 159.6 7.0 160.7 7.1 C 162.4 7.6 162.1 7.2 164.4 7.7 C 164.7 7.3 164.6 7.8 165.3 7.9 C 165.3 7.8 165.3 7.6 165.3 7.5 C 166.1 7.8 167.9 8.2 169.9 8.3 C 170.3 8.4 170.0 8.6 171.2 8.7 C 172.6 8.6 174.1 9.3 175.7 9.2 C 175.8 9.4 176.9 9.6 177.4 9.6 C 177.7 9.8 176.8 9.9 177.8 10.1 C 178.5 10.0 177.4 9.7 178.7 9.9 C 178.6 10.1 180.1 9.9 180.0 10.2 C 179.6 10.2 179.1 10.2 178.7 10.2 C 179.3 10.3 179.1 10.4 179.5 10.5 C 179.5 10.2 180.5 10.7 180.8 10.8 C 180.8 10.7 181.0 10.6 181.3 10.6 C 182.1 10.7 182.7 10.8 183.1 10.9 C 184.0 11.2 182.5 10.9 183.4 11.2 C 184.0 10.7 184.8 11.6 186.8 11.7 C 187.3 11.9 188.0 12.2 189.3 12.6 C 189.4 12.4 188.1 12.2 188.1 12.0 C 189.9 12.5 187.8 11.8 189.0 12.1 C 191.5 12.9 193.1 13.3 195.7 14.3 C 195.7 14.1 197.7 14.5 197.7 14.6 C 197.1 14.5 198.3 15.1 199.8 15.6 C 200.3 15.4 202.7 15.8 202.9 15.6 C 203.3 16.0 203.2 16.0 203.3 16.4 C 205.7 17.4 207.0 17.5 208.2 18.4 C 208.2 18.2 209.3 18.6 210.1 18.9 C 209.8 19.0 209.3 18.9 208.7 18.8 C 209.9 19.3 210.0 19.4 211.0 19.9 C 212.3 19.7 213.5 21.2 214.5 21.0 C 215.9 21.7 215.6 21.8 216.8 22.5 C 216.9 22.3 217.1 22.3 217.5 22.4 C 216.6 22.0 215.9 21.9 215.5 21.4 C 217.5 22.3 212.0 18.9 215.4 20.3 C 215.5 20.4 215.1 20.4 215.8 20.8 C 217.7 21.7 216.7 20.9 215.9 20.5 C 217.2 21.1 218.4 21.8 217.6 21.1 C 220.4 22.5 218.6 21.7 219.4 22.3 C 224.1 24.9 229.0 28.5 231.7 33.0 C 232.1 33.0 233.2 35.6 233.3 36.4 C 234.1 37.6 234.5 39.0 234.2 39.5 C 234.6 39.7 234.3 41.2 234.5 41.3 C 234.5 40.7 234.6 40.3 234.7 40.9 C 234.7 42.9 234.1 45.8 233.9 46.9 C 233.4 47.5 232.9 48.7 232.7 49.6 C 232.5 49.7 232.7 49.0 232.4 49.5 C 232.5 49.7 231.6 51.5 231.2 51.8 C 231.6 51.4 231.7 50.6 231.1 51.3 C 231.3 51.4 230.6 52.3 230.9 52.2 C 230.0 53.2 229.6 53.9 228.7 54.6 C 229.4 53.9 229.6 53.4 229.6 53.2 C 229.2 53.9 228.8 54.4 228.2 54.7 C 228.6 54.8 227.5 55.6 226.5 56.7 C 226.2 56.9 225.9 57.0 224.9 57.7 C 224.6 58.2 226.5 56.7 225.5 57.6 C 225.5 57.5 224.4 58.2 224.8 58.2 C 223.4 59.1 222.8 59.8 221.5 60.4 C 223.0 59.5 221.7 59.9 221.3 60.1 C 221.0 60.3 220.4 60.6 220.5 60.7 C 220.5 60.8 221.3 60.3 221.4 60.3 C 220.3 60.9 220.2 61.4 219.7 61.5 C 220.2 61.2 220.2 61.0 219.6 61.3 C 219.7 61.7 216.1 63.4 217.2 62.6 C 217.3 62.7 218.6 61.9 218.7 61.8 C 218.2 61.9 216.3 63.1 216.6 62.6 C 217.8 62.0 217.8 62.2 219.0 61.4 C 219.1 61.2 219.8 60.7 220.2 60.3 C 218.3 61.5 217.9 62.0 217.5 61.9 C 216.5 62.4 217.3 62.4 215.6 63.2 C 213.2 64.3 215.1 63.1 214.4 63.3 C 212.4 64.5 213.1 64.5 214.2 64.2 C 212.5 65.0 212.0 65.4 209.7 66.3 C 209.8 66.1 210.0 65.9 210.8 65.5 C 210.9 65.5 212.8 64.9 212.5 64.8 C 212.2 64.6 210.7 65.1 208.3 66.1 C 209.0 66.1 209.0 65.9 206.5 66.9 C 207.1 67.1 205.3 67.3 205.3 67.6 C 205.4 67.6 206.4 67.3 207.2 66.9 C 207.2 67.1 206.9 67.3 206.1 67.7 C 205.5 67.8 205.1 68.1 203.5 68.5 C 203.3 68.4 204.4 68.0 204.6 67.7 C 203.8 68.1 203.6 68.2 202.7 68.6 C 201.9 68.6 201.8 68.3 201.8 68.0 C 202.8 67.5 204.4 67.0 203.1 67.3 C 206.8 65.9 203.0 67.7 204.4 67.2 C 205.9 66.3 205.2 67.1 207.6 66.1 C 208.3 65.8 208.5 65.6 208.7 65.4 C 208.5 65.5 207.1 65.8 208.6 65.1 C 209.0 65.2 209.8 64.9 211.0 64.5 C 211.0 64.4 208.6 65.3 210.9 64.2 C 212.1 63.8 211.2 64.5 212.7 63.8 C 212.7 63.7 213.1 63.5 213.1 63.4 C 211.0 64.5 213.5 63.0 212.0 63.6 C 213.8 62.6 212.4 63.7 213.6 63.1 C 213.6 62.9 215.7 62.2 215.6 61.9 C 214.9 62.4 213.4 63.1 213.5 62.8 C 214.9 62.2 220.4 58.8 218.5 60.4 C 219.2 59.8 222.6 57.1 222.4 57.5 C 221.4 58.2 221.6 58.3 221.5 58.5 C 223.3 56.9 224.4 56.4 225.8 54.6 C 224.0 56.3 225.1 54.7 223.8 55.5 C 223.3 56.0 222.5 56.5 222.4 56.7 C 222.8 56.7 223.6 56.0 223.9 55.6 C 224.0 55.8 224.1 55.9 224.3 56.1 C 221.9 57.7 220.5 58.8 219.1 59.5 C 220.3 58.8 216.8 60.6 218.1 59.7 C 218.7 59.5 220.1 58.7 221.2 58.1 C 221.1 58.0 221.1 57.9 221.0 57.9 C 221.5 57.5 222.1 57.1 222.1 57.0 C 220.8 58.0 219.8 58.3 218.9 59.1 C 218.9 59.1 218.8 59.0 218.8 59.0 C 218.6 59.2 218.3 59.3 218.3 59.2 C 218.8 58.9 219.6 58.5 219.6 58.3 C 218.5 59.0 218.1 58.9 216.8 59.6 C 217.0 59.2 215.1 59.9 216.9 58.7 C 217.4 58.8 218.4 58.2 218.4 58.4 C 219.0 58.1 220.0 57.4 220.5 57.0 C 219.9 57.2 218.8 57.8 218.6 57.6 C 219.4 57.1 220.0 56.6 220.6 56.4 C 219.1 57.6 221.6 56.0 222.3 55.8 C 222.1 55.8 221.7 56.0 221.4 56.0 C 222.6 55.2 223.2 54.9 223.1 54.6 C 224.3 53.4 224.2 53.9 225.0 53.1 C 224.2 53.4 225.4 52.5 224.7 52.8 C 225.9 51.5 225.3 52.6 225.7 52.2 C 226.1 51.8 226.0 51.7 226.4 51.3 C 227.0 50.9 227.9 49.7 228.2 49.7 C 228.6 49.2 228.7 49.2 229.0 48.7 C 229.0 48.5 229.0 48.3 229.1 48.1 C 229.2 48.0 229.5 47.7 229.5 47.6 C 228.5 48.8 228.7 48.4 227.5 49.6 C 227.5 49.8 227.3 50.0 227.6 49.7 C 227.0 50.8 226.6 50.9 225.8 51.8 C 225.6 51.8 225.2 51.7 224.5 52.6 C 224.5 52.2 224.3 52.4 224.5 52.0 C 225.0 51.7 225.6 51.3 226.2 50.7 C 226.2 50.6 226.0 50.6 226.3 50.3 C 226.6 50.1 227.0 49.7 227.1 49.3 C 227.2 49.4 227.2 49.6 227.1 49.8 C 228.2 48.5 227.6 48.8 228.3 47.9 C 228.1 48.0 227.7 48.6 227.9 48.0 C 228.3 47.1 228.5 47.0 228.8 46.6 C 228.8 46.5 228.7 46.5 228.8 46.3 C 229.2 45.7 228.6 47.8 229.4 46.9 C 229.2 46.7 229.7 45.7 229.9 45.6 C 230.0 46.0 229.4 46.5 229.6 46.6 C 230.5 44.7 230.1 46.7 230.7 44.7 C 230.6 44.6 230.5 44.6 230.4 44.6 C 230.3 45.4 230.0 45.4 229.8 45.3 C 229.6 45.9 229.2 46.1 229.1 46.7 C 228.8 46.3 229.3 46.2 229.6 45.5 C 229.4 45.4 229.1 46.0 228.9 46.0 C 229.7 44.6 229.4 44.2 229.9 42.7 C 229.6 43.1 229.9 41.9 229.7 42.0 C 229.7 43.3 229.0 42.7 228.9 42.9 C 228.9 43.7 229.4 43.4 229.4 43.9 C 229.1 44.1 229.0 43.9 228.7 43.7 C 228.9 43.1 228.9 43.2 228.8 42.6 C 229.0 42.2 229.5 41.8 229.6 42.5 C 229.6 42.3 229.4 41.4 229.6 41.3 C 229.6 42.2 229.7 41.2 229.8 41.8 C 230.0 41.0 229.5 39.8 229.4 38.9 C 229.3 39.0 229.1 38.7 229.0 38.7 C 229.5 39.5 229.0 39.8 229.2 40.7 C 229.1 40.3 229.0 40.5 228.9 40.7 C 228.9 39.9 228.6 39.5 228.6 38.9 C 228.5 38.9 228.5 38.9 228.4 38.9 C 228.2 37.9 228.2 38.1 227.6 37.4 C 227.6 37.0 228.1 37.2 228.4 37.2 C 228.1 36.9 227.3 35.5 227.6 36.4 C 227.1 35.6 227.5 35.6 226.8 34.8 C 226.6 34.9 227.2 35.7 226.7 35.6 C 226.1 34.8 226.8 35.1 226.0 34.5 C 226.2 34.4 226.4 34.2 225.7 33.5 C 226.0 34.2 225.6 33.5 225.3 33.4 C 225.6 33.8 225.8 34.1 225.8 34.3 C 224.8 33.0 224.6 32.8 223.4 31.8 C 224.0 32.0 223.4 31.3 224.3 31.9 C 223.4 31.4 222.7 30.4 222.2 30.2 C 222.6 30.6 223.4 31.3 223.5 31.6 C 221.2 29.7 219.5 28.8 216.8 26.8 C 217.3 27.1 217.9 27.5 218.1 27.5 C 217.8 27.3 217.2 27.0 217.3 26.9 C 218.3 27.6 219.2 28.1 219.7 28.4 C 220.5 29.0 219.1 28.2 219.9 28.8 C 220.2 28.8 221.6 30.0 221.2 29.3 C 219.8 28.6 218.5 27.4 218.0 26.7 C 216.3 26.2 217.7 27.0 215.8 26.5 C 215.9 26.4 215.6 26.1 215.0 25.8 C 215.4 26.4 213.3 25.1 213.1 24.9 C 214.0 25.2 217.1 26.7 215.7 25.6 C 216.1 26.5 212.1 23.5 212.8 24.4 C 210.6 23.4 211.5 23.5 210.2 23.2 C 210.2 23.1 210.4 23.0 209.7 22.7 C 209.1 22.5 208.9 22.4 208.6 22.4 C 211.8 23.9 210.7 23.8 212.6 24.8 C 212.2 24.6 211.9 24.5 212.0 24.6 C 212.0 24.6 211.9 24.6 211.5 24.4 C 211.5 24.1 209.9 23.7 209.5 23.3 C 210.1 23.6 210.7 23.9 210.6 23.6 C 208.0 22.5 208.6 22.4 204.6 20.7 C 205.8 21.3 204.1 20.7 202.6 20.2 C 200.6 19.5 201.5 19.4 198.9 18.5 C 198.9 19.2 197.0 17.9 195.1 17.7 C 195.4 17.4 193.0 16.6 192.4 16.7 C 192.4 16.6 191.5 16.4 190.9 16.2 C 190.8 16.1 191.5 16.2 190.9 16.0 C 190.4 15.9 190.8 16.3 190.1 16.1 C 189.2 15.8 189.5 15.6 188.2 15.3 C 188.1 15.5 188.8 15.6 188.1 15.6 C 187.0 15.2 185.9 15.0 186.8 15.4 C 185.1 15.1 186.1 14.8 184.4 14.5 C 184.9 14.7 184.8 14.8 184.0 14.6 C 183.4 14.3 183.4 14.2 183.2 14.0 C 182.7 14.1 182.8 14.2 181.5 13.8 C 181.5 13.9 181.5 14.0 181.4 14.1 C 180.8 14.0 179.9 13.8 179.8 13.7 C 180.9 14.0 180.6 13.7 181.1 13.7 C 180.0 13.4 177.8 12.7 179.4 13.4 C 177.8 13.2 178.6 13.0 177.3 12.8 C 178.0 13.2 177.3 12.8 176.0 12.6 C 176.0 13.0 175.1 12.5 174.2 12.4 C 174.3 12.6 174.1 12.6 173.3 12.5 C 173.4 12.4 172.9 12.3 172.0 12.1 C 172.0 12.2 173.8 12.7 172.0 12.4 C 171.1 12.1 171.2 11.8 169.8 11.6 C 169.5 11.3 171.1 11.7 170.8 11.4 C 169.6 11.4 169.3 11.2 167.6 10.9 C 168.2 11.4 164.2 10.9 166.1 11.4 C 165.6 11.3 164.7 11.6 164.3 11.3 C 164.9 11.3 163.9 10.9 163.9 10.9 C 163.1 10.8 161.2 10.4 161.2 10.6 C 162.9 10.7 162.9 11.0 163.4 11.2 C 160.9 11.0 158.6 10.6 158.8 10.4 C 158.8 10.4 158.5 10.4 158.4 10.5 C 159.3 10.5 159.8 11.0 158.8 10.9 C 159.0 10.7 158.3 10.5 157.4 10.4 C 157.4 10.6 154.0 9.9 154.6 10.3 C 156.0 10.2 157.0 10.7 156.0 10.8 C 155.1 10.4 153.3 10.1 153.7 9.9 C 153.2 10.0 152.7 10.0 152.3 10.0 C 151.8 10.2 152.9 10.3 152.7 10.5 C 152.0 10.4 150.9 10.3 150.8 10.2 C 152.7 10.4 149.9 10.0 151.8 10.0 C 150.6 9.9 150.4 9.7 149.4 9.6 C 149.4 9.7 149.1 9.7 149.0 9.7 C 149.8 9.7 150.6 9.9 150.4 10.1 C 148.7 10.0 149.0 9.7 147.5 9.6 C 147.1 9.7 145.1 9.9 144.1 9.7 C 146.1 9.8 144.0 9.5 145.1 9.5 C 146.9 9.8 147.3 9.6 148.0 9.4 C 147.3 9.2 145.8 9.0 145.6 9.3 C 146.6 9.4 146.6 9.3 147.1 9.2 C 147.0 9.4 146.7 9.5 146.1 9.5 C 145.3 9.2 143.5 9.3 144.7 9.1 C 143.5 9.1 142.1 8.8 140.9 8.9 C 142.3 9.0 143.3 9.2 143.7 9.4 C 142.5 9.4 141.4 9.0 141.3 9.2 C 141.4 9.4 143.3 9.5 143.7 9.7 C 142.2 9.8 139.9 9.0 141.8 9.6 C 140.9 9.5 139.7 9.5 139.4 9.3 C 140.4 9.4 139.3 9.0 138.9 8.9 C 138.0 8.9 137.3 8.9 136.9 9.0 C 138.3 8.9 139.3 9.3 138.4 9.3 C 138.2 9.1 137.9 9.3 137.4 9.3 C 137.4 9.2 135.8 9.2 135.5 9.0 C 135.6 9.2 136.3 9.2 136.4 9.3 C 135.5 9.4 134.2 9.7 133.6 9.3 C 134.1 9.3 134.9 9.4 135.0 9.3 C 132.5 8.8 131.7 8.5 128.7 8.2 C 129.1 8.2 129.3 8.2 129.2 8.1 C 127.3 8.0 126.1 7.8 126.3 7.7 C 125.1 7.7 124.5 7.8 123.9 8.0 C 125.1 8.1 125.5 7.9 126.3 8.1 C 125.8 8.1 127.2 8.6 127.7 8.8 C 129.8 8.6 130.0 9.0 132.1 8.9 C 131.5 9.1 133.7 9.0 133.0 9.3 C 131.1 8.8 129.2 9.0 126.3 8.8 C 126.7 8.6 127.0 8.4 125.8 8.3 C 123.9 8.2 124.8 8.5 123.3 8.4 C 122.7 8.2 123.6 8.2 122.8 8.1 C 122.3 8.2 120.9 8.2 120.4 7.9 C 122.4 8.0 120.0 7.7 121.4 7.6 C 120.7 7.6 120.3 7.6 119.9 7.5 C 121.9 7.8 117.9 7.9 119.4 8.1 C 116.7 8.2 119.2 7.5 117.0 7.5 C 118.1 7.7 116.6 7.8 115.0 7.8 C 114.6 7.5 112.9 7.5 111.6 7.4 C 112.3 7.6 112.8 7.6 111.6 7.8 C 112.3 7.8 113.4 7.8 114.0 7.7 C 114.0 7.8 114.3 7.9 114.5 7.9 C 112.9 8.0 113.6 8.1 113.1 8.2 C 112.6 8.1 111.4 8.1 111.1 8.0 C 111.1 8.1 110.7 8.1 110.6 8.2 C 112.7 8.2 110.3 8.5 111.6 8.6 C 112.5 8.5 111.9 8.3 113.1 8.3 C 114.2 8.6 112.2 8.6 111.6 8.9 C 112.6 9.0 113.7 8.7 114.0 9.0 C 112.8 9.3 110.8 9.1 109.2 9.1 C 109.3 9.4 106.5 9.1 106.3 9.5 C 106.0 9.4 105.7 9.3 105.3 9.3 C 104.8 9.6 104.3 9.2 103.8 9.3 C 103.8 9.4 103.9 9.5 104.3 9.6 C 102.3 9.5 101.9 9.6 99.5 9.8 C 99.1 9.7 98.7 9.6 98.5 9.4 C 99.1 9.3 99.6 9.2 99.9 9.1 C 96.7 9.3 98.9 9.8 96.6 9.6 C 96.7 9.7 98.2 9.9 97.1 10.0 C 95.0 9.9 92.2 10.4 92.3 9.6 C 90.5 9.6 89.3 10.1 88.5 9.9 C 87.9 9.9 87.7 10.0 87.5 10.1 C 88.1 10.2 88.8 10.3 89.4 10.4 C 90.5 10.2 91.0 10.3 89.9 10.1 C 91.5 9.9 91.9 10.1 92.8 10.1 C 90.6 10.4 88.6 10.4 88.5 10.8 C 87.8 10.7 87.2 10.6 86.6 10.5 C 86.4 10.7 84.0 11.0 83.8 10.7 C 85.4 10.6 87.1 10.2 85.6 10.2 C 81.6 10.7 79.3 10.5 75.9 11.3 C 75.8 11.2 76.0 11.0 75.4 11.0 C 75.4 11.2 75.3 11.3 74.9 11.4 C 73.8 11.5 73.2 11.5 71.8 11.8 C 71.8 11.5 71.6 11.4 70.8 11.4 C 70.4 11.7 69.0 12.4 68.2 12.5 C 69.0 12.3 67.8 12.2 67.2 12.3 C 67.8 12.6 63.2 12.7 64.6 12.8 C 62.8 13.2 62.0 13.2 61.9 13.1 C 61.3 13.2 60.9 13.4 60.2 13.6 C 59.8 13.3 56.8 14.2 56.4 14.1 C 57.4 14.0 57.6 13.6 56.7 13.8 C 56.2 14.1 53.6 14.9 53.1 14.9 C 53.2 14.8 53.3 14.5 54.6 14.2 C 52.4 14.6 52.5 15.0 51.9 15.4 C 51.9 15.0 50.9 15.5 50.6 15.7 C 49.9 15.7 50.6 15.6 50.5 15.4 C 49.8 15.5 49.5 15.4 48.5 15.7 C 48.8 15.9 47.7 16.0 47.3 16.1 C 47.2 16.3 46.7 16.6 45.8 16.8 C 46.9 16.1 40.8 17.8 42.3 17.7 C 41.2 18.2 41.0 17.7 39.6 18.2 C 39.4 18.5 38.5 18.7 39.3 18.6 C 38.7 18.8 38.0 19.0 37.8 19.0 C 37.5 19.0 37.1 19.1 35.9 19.6 C 37.1 19.5 33.5 20.3 34.2 20.5 C 33.0 20.5 31.3 21.7 29.4 22.1 C 29.4 22.2 28.9 22.4 28.9 22.5 C 28.6 22.8 31.1 21.8 29.5 22.5 C 27.6 23.1 28.6 22.6 28.3 22.6 C 23.3 24.9 18.3 27.6 15.1 30.0 C 15.6 29.8 15.6 29.9 14.9 30.5 C 13.7 30.8 11.0 33.9 10.7 34.5 C 10.3 34.6 9.5 36.2 9.2 36.4 C 9.4 36.1 9.5 35.4 9.2 36.0 C 9.2 36.6 8.7 37.0 8.6 37.7 C 8.2 37.8 7.9 39.7 7.7 38.8 C 7.6 39.1 7.5 39.3 7.4 39.5 C 7.7 39.6 7.5 39.9 7.8 39.3 C 7.2 40.9 7.5 41.3 7.3 42.5 C 7.4 42.7 7.5 41.8 7.6 42.5 C 7.6 42.5 7.5 42.5 7.4 42.5 C 7.5 42.7 7.6 42.8 7.5 43.0 C 7.3 42.9 7.4 42.5 7.1 42.5 C 7.2 43.1 6.9 43.6 7.2 43.7 C 7.1 42.9 7.6 43.4 7.5 43.9 C 7.2 43.5 8.0 45.9 8.5 46.6 C 8.4 47.1 8.1 45.8 7.9 46.0 C 8.6 47.4 8.5 47.3 8.9 47.4 C 9.2 48.2 9.3 48.6 10.1 49.4 C 10.4 50.1 9.7 49.2 10.1 49.8 C 10.4 50.1 10.6 50.2 11.1 50.7 C 11.9 52.5 16.4 55.1 18.4 57.3 C 17.5 56.5 18.8 57.2 20.2 58.0 C 20.3 58.2 20.0 58.2 20.5 58.5 C 20.5 58.3 21.0 58.5 22.0 59.0 C 22.1 59.2 21.8 59.2 22.3 59.5 C 22.9 59.5 24.0 60.4 24.9 60.6 C 25.1 61.0 23.0 59.8 22.8 59.9 C 25.2 61.4 25.8 61.3 27.9 62.3 C 26.8 61.9 28.6 62.9 28.9 63.1 C 28.5 62.7 30.3 63.3 29.1 62.6 C 30.0 63.0 31.3 63.5 31.4 63.6 C 30.9 63.5 30.2 63.1 30.2 63.2 C 31.3 63.6 32.6 64.4 33.2 64.4 C 32.4 64.1 32.0 63.8 32.1 63.7 C 32.4 63.7 32.8 63.8 33.4 63.9 C 31.4 63.9 36.7 65.5 37.1 65.4 C 37.5 66.0 37.8 66.1 37.6 66.2 C 39.9 67.0 39.4 66.5 40.2 66.7 C 39.9 66.9 39.6 67.0 40.7 67.5 C 40.6 67.1 42.0 67.6 41.7 67.2 C 44.9 68.0 45.5 68.5 47.5 69.0 C 47.6 69.0 47.0 68.8 47.6 68.9 C 48.5 69.2 49.3 69.5 49.9 69.8 C 50.4 69.7 49.7 69.5 50.3 69.6 C 51.8 70.2 51.4 70.4 52.7 70.9 C 54.4 71.1 53.7 71.1 54.8 71.0 C 54.4 70.9 53.8 70.7 54.4 70.8 C 55.4 71.2 55.8 71.6 56.0 71.7 C 55.3 71.6 54.7 71.4 54.3 71.3 C 54.1 71.4 53.0 71.1 53.9 71.5 C 52.8 71.2 51.6 70.9 50.1 70.5 C 50.6 70.9 48.8 70.3 49.2 70.6 C 50.9 71.0 51.3 71.3 52.9 71.6 C 52.6 71.2 54.3 71.8 54.6 71.9 C 54.7 71.7 55.8 72.0 55.6 71.8 C 56.9 72.0 56.8 72.2 58.1 72.4 C 58.2 72.5 58.0 72.6 58.5 72.7 C 59.0 72.5 59.3 73.0 59.8 73.0 C 59.5 72.7 61.4 73.2 61.6 73.1 C 61.1 73.0 60.3 72.8 60.3 72.7 C 62.4 73.2 60.7 72.6 60.3 72.3 C 60.4 72.5 59.6 72.6 59.4 72.4 C 61.3 72.6 57.0 71.5 58.6 71.9 C 60.0 72.2 59.9 72.0 61.3 72.4 C 62.8 73.1 60.8 73.0 62.4 73.6 C 63.4 73.6 64.1 73.8 64.2 73.5 C 64.4 73.7 64.7 73.8 65.0 73.9 C 65.5 73.9 63.8 73.4 65.1 73.6 C 65.8 73.8 64.9 74.0 66.4 74.2 C 67.0 74.1 64.7 73.6 66.0 73.8 C 67.3 74.4 65.7 73.6 67.3 73.8 C 67.5 73.9 67.7 74.0 68.3 74.1 C 68.3 74.2 68.1 74.3 68.6 74.4 C 69.0 74.1 69.2 74.7 70.4 74.8 C 71.1 74.6 69.2 74.5 69.6 74.3 C 70.9 74.8 71.8 74.6 72.3 74.7 C 71.2 74.7 74.0 75.1 74.1 75.3 C 73.8 75.0 74.4 75.2 76.0 75.2 C 76.1 75.7 77.9 75.6 78.3 76.0 C 78.5 75.9 79.0 75.8 79.2 75.7 C 78.7 75.7 78.1 75.6 78.3 75.5 C 78.8 75.5 79.3 75.6 79.8 75.6 C 80.5 75.9 78.4 76.2 81.6 76.5 C 81.2 76.1 82.6 76.2 83.4 76.2 C 83.4 75.9 82.2 76.1 82.1 75.9 C 83.2 75.8 84.2 76.2 84.9 76.4 C 86.7 76.4 88.9 76.8 91.6 76.9 C 92.2 77.1 89.3 76.9 91.1 77.2 C 91.8 77.2 91.5 77.0 92.5 77.1 C 91.5 78.1 99.8 77.8 100.3 78.3 C 100.6 78.1 102.9 78.3 102.7 78.0 C 101.1 78.1 100.1 77.8 99.3 77.6 C 97.8 77.6 100.6 77.9 99.3 77.9 C 99.2 77.7 97.2 77.7 97.4 77.5 C 99.4 77.6 96.3 77.2 97.9 77.1 C 99.8 77.2 103.7 77.1 102.7 77.4 C 102.7 77.3 101.9 77.3 101.8 77.4 C 104.0 77.6 105.3 77.4 106.2 77.3 C 107.2 77.5 111.1 77.3 110.1 77.4 C 110.4 77.7 107.8 77.3 108.1 77.5 C 112.2 77.7 112.3 77.5 115.0 77.8 C 114.1 77.5 117.8 77.3 117.5 77.5 C 117.5 77.7 118.3 77.9 119.9 77.6 C 119.7 77.9 120.5 77.9 121.4 78.0 C 121.8 77.8 120.7 77.8 120.9 77.6 C 121.7 77.6 122.5 77.6 123.4 77.6 C 123.4 77.7 123.3 77.8 123.8 77.8 C 124.8 77.7 128.0 77.4 127.8 77.5 C 126.4 77.9 130.0 77.7 127.8 78.0 C 128.4 78.0 128.4 78.1 129.3 78.0 C 129.3 77.9 129.3 77.8 129.3 77.7 C 131.1 77.6 130.2 78.1 131.7 78.0 C 131.8 77.9 132.5 77.8 132.7 77.7 C 132.1 77.8 132.0 77.9 131.2 77.9 C 132.1 77.4 129.6 77.7 129.7 77.4 C 131.4 77.3 131.4 77.6 132.2 77.7 C 134.3 77.4 133.3 77.6 135.6 77.5 C 135.6 77.4 135.0 77.4 135.1 77.3 C 137.9 77.3 137.6 77.8 139.5 77.5 C 139.1 77.5 137.4 77.8 138.6 77.8 C 139.8 77.6 140.2 77.3 141.9 77.2 C 142.0 77.3 141.9 77.4 142.4 77.4 C 143.1 77.2 143.2 77.0 143.8 76.9 C 144.0 77.0 144.9 76.8 145.3 76.8 C 145.9 76.9 145.0 77.0 145.8 77.0 C 147.2 76.9 147.9 76.3 149.1 76.3 C 149.1 76.6 150.4 76.4 151.5 76.2 C 151.7 76.5 154.2 76.2 155.8 76.1 C 155.4 75.9 157.0 75.8 156.6 75.6 C 155.9 75.7 155.5 75.7 155.3 75.6 C 157.1 75.4 157.7 75.8 159.0 75.2 C 159.7 75.3 160.6 75.4 161.8 75.3 C 161.9 75.1 159.6 75.3 160.9 75.1 C 161.0 75.2 161.4 75.1 161.8 75.0 C 161.6 75.3 162.6 75.2 163.2 75.3 C 164.3 74.9 166.6 74.9 165.5 74.8 C 167.2 74.5 166.1 75.1 167.4 74.9 C 166.7 74.6 168.9 74.3 167.8 74.3 C 169.5 73.9 169.4 74.4 168.7 74.6 C 170.3 74.4 170.6 74.1 171.4 74.2 C 170.7 74.0 173.0 73.5 171.8 73.9 C 171.5 74.2 173.3 73.7 173.6 73.8 C 173.1 73.7 173.9 73.6 172.7 73.6 C 173.9 73.3 175.6 73.0 176.7 73.1 C 178.1 72.6 179.5 72.3 178.9 72.7 C 180.2 72.4 179.7 72.5 181.0 72.3 C 181.0 72.2 180.7 72.2 180.6 72.2 C 182.4 71.8 182.1 72.1 184.4 71.5 C 184.2 71.9 185.7 71.5 186.2 71.6 C 185.2 71.8 184.4 71.9 183.6 72.0 C 183.5 72.2 184.3 72.1 183.7 72.3 C 183.6 72.2 183.2 72.2 182.8 72.3 C 184.4 72.2 180.9 73.1 182.0 72.6 C 182.0 72.7 182.1 72.7 182.4 72.6 C 182.1 72.4 182.1 72.5 182.3 72.2 C 181.6 72.5 180.9 72.3 180.6 72.6 C 180.7 72.7 181.4 72.5 181.5 72.6 C 179.6 73.1 180.9 72.4 179.4 72.8 C 179.1 73.1 179.9 73.0 180.3 73.1 C 178.9 73.4 177.6 73.6 177.2 73.5 C 175.9 73.9 177.4 73.7 176.4 74.0 C 175.9 74.0 176.0 73.8 175.1 73.9 C 174.1 74.2 175.6 74.0 174.7 74.2 C 173.6 74.3 175.3 73.8 173.7 74.0 C 174.1 74.3 172.2 74.2 172.4 74.4 C 173.3 74.2 173.4 74.6 172.9 74.4 C 170.6 74.5 169.2 75.6 167.0 75.4 C 167.0 75.4 166.6 75.5 166.6 75.6 C 168.2 75.5 170.7 75.1 171.2 75.4 C 172.5 75.1 172.2 74.9 172.4 74.8 C 174.0 74.8 173.9 74.9 173.0 75.4 C 170.5 75.9 169.3 75.9 167.6 76.1 C 166.7 76.4 167.7 76.2 168.1 76.3 C 162.7 76.8 166.9 76.9 164.9 77.1 C 164.9 77.0 164.5 77.0 164.0 77.0 C 164.0 77.1 163.2 77.2 163.0 77.3 C 163.4 77.3 163.6 77.3 163.5 77.4 C 162.2 77.7 162.7 77.3 162.6 77.2 C 163.6 77.1 164.3 77.0 164.4 76.8 C 163.1 77.1 162.0 77.0 161.2 77.4 C 159.8 77.2 161.8 76.6 161.0 76.4 C 161.2 76.2 160.3 77.2 159.3 77.4 C 157.6 77.6 157.6 77.8 156.0 78.0 C 155.5 77.8 157.5 77.7 157.4 77.5 C 156.9 77.6 156.8 77.5 156.4 77.6 C 155.3 77.7 155.4 77.9 154.5 78.1 C 154.1 77.9 153.8 78.1 153.2 78.2 C 152.1 78.2 153.7 78.0 152.6 78.0 C 151.5 78.1 150.6 78.5 150.3 78.5 C 150.2 78.4 150.3 78.3 149.8 78.3 C 148.4 78.6 148.1 78.7 149.8 78.6 C 148.3 78.7 147.7 78.9 147.9 79.1 C 150.2 79.0 150.7 78.9 151.8 79.1 C 152.2 78.8 152.9 78.9 153.7 78.9 C 153.1 78.5 154.7 78.8 155.1 78.5 C 154.5 78.5 154.0 78.5 153.7 78.5 C 156.0 78.3 156.0 78.3 157.9 77.7 C 157.9 77.8 158.1 77.9 158.4 77.9 C 157.8 78.1 156.1 78.2 156.0 78.4 C 157.4 78.6 157.8 78.0 159.4 78.2 C 160.0 77.9 158.1 78.0 159.3 77.9 C 159.9 78.0 160.7 78.0 161.7 78.0 C 162.7 77.8 163.2 77.6 164.0 77.4 C 164.1 77.5 164.2 77.6 165.0 77.4 C 164.9 77.4 164.1 77.4 164.9 77.2 C 167.4 77.2 169.0 77.1 171.4 76.6 C 170.5 76.7 168.6 76.7 169.5 76.6 C 170.6 76.6 172.0 76.0 173.2 76.1 C 173.5 76.1 171.8 76.2 172.3 76.5 C 173.3 76.3 174.0 76.3 174.5 76.2 C 174.5 76.1 175.7 75.9 175.4 75.7 C 174.5 75.9 174.3 76.2 174.1 76.1 C 174.7 75.3 177.4 75.8 179.0 75.5 C 180.0 75.1 178.1 75.4 179.3 75.1 C 180.1 74.8 180.6 75.3 179.5 75.6 C 178.6 75.7 178.3 76.0 178.1 75.8 C 177.8 75.9 177.3 76.0 177.3 76.0 C 177.9 75.9 177.8 76.1 178.2 76.1 C 177.3 76.2 177.3 76.7 176.4 76.6 C 177.0 76.5 177.1 76.4 177.3 76.3 C 175.0 76.8 174.2 76.7 172.8 76.9 C 173.6 76.9 172.8 77.0 172.8 77.2 C 173.9 76.9 175.9 76.7 174.7 77.0 C 173.8 76.9 173.3 77.7 172.5 77.6 C 173.1 77.4 173.0 77.3 173.3 77.2 C 172.4 77.3 172.4 77.1 171.5 77.2 C 168.6 78.1 166.2 77.8 161.4 79.0 C 159.7 79.2 162.9 78.7 162.7 78.5 C 162.2 78.5 162.1 78.5 161.8 78.5 C 161.8 78.8 160.9 78.6 160.4 78.9 C 160.4 78.7 158.2 79.2 157.0 79.1 C 157.0 79.2 157.2 79.3 156.6 79.4 C 153.1 79.5 146.7 80.5 144.1 80.4 C 144.2 80.6 143.0 80.7 142.7 80.8 C 140.9 80.9 141.7 80.6 139.2 81.0 C 138.0 81.1 139.5 80.8 139.7 80.8 C 136.0 81.1 132.7 81.0 130.3 81.4 C 129.1 81.5 130.3 81.2 127.9 81.2 C 127.8 81.5 123.9 81.1 123.4 81.5 C 121.9 81.6 119.2 81.1 120.4 81.5 C 118.4 81.5 119.7 81.1 118.9 81.1 C 117.5 81.2 119.3 81.7 117.9 81.8 C 118.1 81.5 116.9 81.6 116.0 81.4 C 117.1 81.4 117.8 81.4 117.9 81.2 C 117.0 81.4 117.0 81.2 115.5 81.2 C 114.3 81.3 111.0 81.5 110.0 81.1 C 110.0 81.2 110.2 81.3 110.5 81.4 C 109.5 81.4 108.4 81.1 108.5 81.4 C 106.3 81.3 105.3 81.0 104.1 81.2 C 103.1 81.3 104.4 81.0 101.6 80.9 C 101.5 81.1 96.5 80.8 95.2 80.5 C 95.1 80.9 94.9 80.5 94.3 80.5 C 94.2 80.5 94.3 80.7 93.7 80.7 C 93.6 80.6 93.2 80.6 92.8 80.6 C 93.1 80.2 91.0 80.6 90.8 80.3 C 91.3 80.3 91.3 80.1 90.9 80.0 C 90.7 80.3 88.7 79.7 88.9 80.0 C 89.3 80.1 90.7 80.1 90.3 80.3 C 88.4 80.3 89.2 80.0 87.9 79.9 C 88.0 80.0 88.8 80.1 87.9 80.1 C 86.6 79.9 87.8 80.1 87.0 79.8 C 86.3 79.8 85.0 79.8 84.5 79.8 C 84.7 79.8 84.3 79.6 84.1 79.6 C 81.6 79.2 76.1 78.9 73.7 78.2 C 73.6 78.3 73.0 78.3 73.2 78.4 C 71.8 78.1 71.9 78.2 70.5 77.9 C 70.5 78.0 70.4 78.1 70.4 78.2 C 68.6 78.1 70.3 77.8 69.1 77.7 C 68.9 78.2 68.4 77.4 67.3 77.2 C 67.1 77.3 66.6 77.3 66.8 77.5 C 65.0 77.2 65.2 76.8 63.7 76.7 C 64.0 76.8 64.1 77.6 63.9 77.8 C 63.7 77.6 63.3 77.5 62.6 77.3 C 63.4 77.2 63.2 76.2 61.0 76.1 C 62.2 76.3 62.6 76.5 62.3 76.6 C 60.7 76.3 60.1 76.1 58.8 75.8 C 58.5 76.0 59.5 76.2 59.1 76.4 C 58.7 76.4 58.6 76.4 58.6 76.5 C 57.2 76.2 57.2 76.0 55.6 75.8 C 55.6 75.6 56.0 75.7 56.5 75.9 C 56.4 75.7 56.5 75.5 57.4 75.7 C 57.5 75.8 56.9 76.0 58.3 76.2 C 58.3 76.0 58.3 75.9 58.3 75.8 C 57.4 75.6 55.1 74.9 54.9 75.0 C 55.3 75.2 56.1 75.4 55.6 75.6 C 54.0 75.1 53.6 74.8 52.3 74.3 C 50.0 73.9 46.0 72.8 46.4 73.3 C 45.1 72.8 45.5 73.0 44.4 72.6 C 44.7 72.9 43.0 72.3 43.1 72.6 C 44.5 72.9 44.1 72.8 45.5 73.1 C 45.5 73.3 45.2 73.3 44.6 73.2 C 44.6 73.1 44.0 72.9 43.1 72.6 C 43.2 72.7 44.0 73.2 43.0 72.9 C 42.9 72.9 42.7 72.8 42.2 72.6 C 42.2 72.5 42.3 72.4 42.3 72.3 C 42.9 72.3 43.6 72.5 44.0 72.5 C 43.6 72.4 43.5 72.3 43.2 72.2 C 42.9 72.2 41.3 71.6 41.2 71.8 C 41.8 71.9 42.2 72.2 41.5 72.0 C 41.4 72.0 40.3 71.6 39.9 71.6 C 41.3 72.1 40.7 71.9 41.4 72.4 C 39.8 72.0 40.1 71.8 38.3 71.3 C 38.3 71.1 38.4 70.9 38.9 71.0 C 37.9 70.2 33.1 69.0 31.7 68.4 C 32.7 68.9 33.9 69.0 32.4 68.4 C 32.4 68.5 31.3 68.0 31.1 68.0 C 30.4 68.3 31.6 69.0 32.7 69.7 C 31.5 69.2 31.2 69.2 30.1 68.8 C 29.8 68.5 31.1 68.6 29.7 68.0 C 29.2 68.3 27.1 67.0 26.6 67.1 C 27.5 67.5 28.1 67.8 27.1 67.5 C 27.3 67.4 25.4 66.7 25.4 66.5 C 27.0 67.1 27.5 67.0 28.5 67.4 C 27.2 66.9 29.5 67.6 27.4 66.7 C 26.4 66.5 25.8 66.5 23.8 65.6 C 23.1 65.2 23.9 65.3 22.9 64.8 C 23.0 65.1 20.9 64.1 22.3 64.6 C 21.5 64.2 21.2 64.0 20.8 63.7 C 21.7 64.5 16.9 62.2 17.5 62.7 C 17.7 62.4 17.6 62.1 17.4 61.9 C 16.4 61.6 15.5 60.8 13.5 59.4 C 13.4 59.7 13.1 59.2 12.3 58.6 C 12.0 58.6 12.7 59.2 12.1 58.8 C 11.3 58.0 11.3 57.9 11.2 57.7 C 10.5 57.2 10.1 56.8 9.8 56.5 C 9.7 56.5 9.9 56.7 10.0 56.9 C 7.9 54.7 6.7 53.8 5.4 51.9 C 5.9 52.7 6.3 52.7 5.9 52.1 C 5.6 51.7 5.3 51.4 5.1 51.2 C 5.2 51.8 5.1 51.5 4.6 50.5 C 4.0 49.7 4.4 51.1 4.0 50.4 C 3.7 49.6 4.1 50.0 3.9 49.5 C 3.8 49.2 3.6 48.8 3.4 48.5 C 3.6 49.2 3.2 48.5 2.9 47.9 C 3.3 48.3 3.2 48.0 2.7 46.7 C 2.8 46.5 3.1 47.2 2.9 46.7 C 2.9 46.4 2.3 45.5 2.4 44.5 C 2.4 44.8 2.5 44.9 2.6 44.9 C 2.2 43.9 2.5 43.1 2.6 42.3 C 2.4 43.1 2.2 42.7 2.0 43.1 C 2.2 42.2 2.0 41.1 2.3 40.5 C 2.1 41.7 2.8 40.6 2.9 39.8 C 2.7 39.6 2.6 40.9 2.3 40.5 C 2.2 40.0 2.7 39.1 2.6 38.6 C 2.4 38.7 2.5 39.2 2.3 39.3 C 2.5 38.6 2.2 39.5 2.3 38.9 C 2.6 38.6 2.4 38.2 2.5 37.8 C 2.7 37.4 3.3 36.5 3.3 36.1 C 3.2 36.1 3.0 36.7 2.9 36.7 C 3.5 34.7 4.1 34.3 5.0 32.5 C 5.2 32.4 5.5 32.1 5.9 31.6 C 5.7 31.6 5.9 31.3 6.2 30.9 C 6.8 30.2 7.5 29.6 8.4 28.8 C 8.4 29.1 8.1 29.6 9.2 28.5 C 9.2 28.3 8.7 28.8 9.1 28.3 C 9.2 28.4 9.5 28.1 9.5 28.0 C 9.4 28.0 9.4 27.9 9.4 27.9 C 9.0 28.2 8.7 28.5 8.4 28.8 C 8.3 28.7 8.2 28.7 7.9 28.9 C 9.1 27.5 9.4 27.9 10.2 26.9 C 10.7 27.0 11.0 26.8 10.4 27.7 C 11.2 26.9 11.8 26.3 11.9 26.0 C 10.8 26.9 11.0 26.4 10.6 26.5 C 11.3 25.9 11.2 25.8 11.6 25.5 C 12.5 25.0 10.9 26.5 12.6 25.3 C 11.2 26.0 13.5 24.3 14.5 23.7 C 14.3 23.8 14.0 24.0 14.4 23.5 C 16.9 21.7 17.1 22.6 18.6 21.2 C 18.5 21.5 19.3 21.0 19.7 20.9 C 18.3 21.8 18.0 22.0 17.4 22.4 C 17.6 22.4 18.0 22.2 18.4 22.0 C 18.3 21.9 18.7 21.6 19.4 21.4 C 19.7 21.0 19.4 20.8 20.5 20.0 C 20.6 20.0 20.5 20.2 21.1 19.9 C 21.6 19.4 20.8 20.5 23.4 19.1 C 22.9 19.3 22.6 19.3 22.7 19.0 C 23.9 18.3 23.7 18.6 25.4 17.7 C 26.3 17.8 24.4 18.7 24.0 19.1 C 25.2 18.5 26.1 17.8 27.4 17.4 C 26.4 17.7 27.3 17.1 28.4 16.6 C 29.5 16.2 28.5 17.0 29.8 16.5 C 30.8 16.0 31.3 15.6 30.3 15.8 C 32.6 15.0 32.0 15.0 34.1 14.3 C 34.2 14.4 33.6 14.6 32.8 14.8 C 33.0 14.9 32.8 15.1 33.5 14.8 C 34.8 14.1 37.8 13.1 38.7 12.7 C 40.5 12.6 42.4 11.5 44.3 11.1 C 43.6 11.6 46.7 10.5 47.6 10.6 C 48.2 10.4 49.8 9.4 49.2 9.8 C 49.4 10.1 50.5 9.7 51.4 9.6 C 51.4 9.5 51.4 9.4 51.3 9.3 C 53.2 8.9 53.7 9.0 54.4 9.1 C 56.7 8.4 59.4 8.2 62.3 7.4 C 63.1 7.6 63.7 7.4 65.5 7.2 C 65.4 7.0 66.8 6.8 68.2 6.6 C 67.8 6.4 69.1 6.3 69.0 6.1 C 67.8 6.3 68.2 5.9 67.6 5.9 C 69.2 5.9 70.0 5.3 71.3 5.4 C 69.7 5.7 69.3 6.1 69.1 6.5 C 71.0 6.2 72.0 6.1 72.4 6.3 C 72.5 6.1 72.2 6.0 71.8 5.9 C 72.5 5.9 73.1 5.8 73.7 5.7 C 73.9 5.8 73.0 6.0 73.7 5.9 C 74.2 5.8 74.6 5.6 75.1 5.5 C 75.7 5.7 74.4 5.8 74.2 5.9 C 76.7 5.7 75.6 5.4 76.9 5.1 C 77.3 5.2 77.3 5.5 78.4 5.4 C 78.9 5.2 79.0 4.9 80.3 4.8 C 81.1 4.7 80.3 5.2 81.2 5.1 C 81.4 5.0 81.8 5.0 82.2 5.0 C 82.2 4.8 82.6 4.7 83.1 4.6 C 83.3 4.7 84.2 4.6 84.6 4.5 C 84.7 4.6 86.2 4.7 86.5 4.5 C 86.5 4.4 85.7 4.5 85.6 4.5 C 86.6 4.4 87.4 4.3 87.9 4.2 C 88.3 4.7 90.1 4.1 92.3 4.2 C 93.7 3.9 92.0 3.8 93.8 3.5 C 94.8 3.6 93.5 3.8 93.8 4.0 C 94.1 4.0 95.7 4.1 95.7 3.9 C 95.7 3.8 94.9 3.9 94.8 3.8 C 96.0 3.5 96.0 3.8 96.7 3.8 C 96.6 3.6 97.5 3.5 97.7 3.4 C 101.2 3.0 101.2 3.4 102.6 3.6 C 102.6 3.5 103.5 3.5 103.6 3.4 C 102.6 3.5 101.2 3.4 102.6 3.3 C 102.4 3.4 104.4 3.2 104.6 3.1 C 104.3 3.0 103.0 3.1 103.6 2.8 C 105.4 2.7 104.7 3.2 106.1 2.9 C 106.2 3.0 105.4 3.1 105.1 3.2 C 105.6 3.1 106.5 3.1 106.6 3.2 C 105.8 3.3 105.8 3.5 105.6 3.6 C 106.5 3.4 108.3 3.5 107.0 3.2 C 109.0 3.3 110.9 3.0 109.5 2.9 C 111.1 2.8 110.2 3.1 111.5 2.9 C 111.3 3.2 111.0 3.3 112.0 3.5 C 112.2 3.4 113.1 3.3 113.0 3.1 C 115.4 3.1 116.0 3.3 117.0 3.5 C 116.1 3.2 117.3 3.5 118.5 3.2 C 119.2 3.3 118.5 3.6 120.4 3.5 C 118.4 3.2 122.9 3.5 121.9 3.1 C 124.4 3.3 124.4 3.3 126.9 3.4 C 126.7 3.6 126.0 3.7 124.9 3.7 C 125.7 3.5 122.8 3.4 123.0 3.6 C 123.0 3.6 123.0 3.7 122.9 3.7 C 124.8 3.7 126.1 3.8 126.9 4.0 C 127.3 3.8 128.2 3.7 127.9 3.4 C 129.7 3.8 131.5 3.4 132.4 3.7 C 131.7 3.7 131.2 3.7 131.3 3.8 C 132.1 3.8 132.9 3.8 132.8 3.6 C 131.4 3.4 131.1 3.4 130.4 3.6 C 131.0 3.4 129.0 3.2 130.4 3.2 C 130.3 3.5 133.3 3.1 132.4 3.3 C 130.8 3.4 134.1 3.6 134.3 3.8 C 134.3 3.8 134.3 3.8 134.3 3.8 Z M 171.9 77.2 C 173.2 76.8 171.5 76.9 170.5 77.1 C 170.8 77.1 171.0 77.2 171.0 77.3 C 171.4 77.2 171.8 77.1 171.9 77.2 C 171.9 77.2 171.9 77.2 171.9 77.2 Z M 156.7 75.8 C 156.2 76.1 158.5 75.6 159.5 75.6 C 159.2 75.5 158.9 75.5 159.5 75.4 C 158.5 75.3 158.2 75.8 156.7 75.8 C 156.7 75.8 156.7 75.8 156.7 75.8 Z M 102.7 78.4 C 103.1 78.3 104.0 78.3 104.1 78.4 C 104.7 78.4 104.6 78.3 104.7 78.2 C 105.8 78.2 104.4 78.6 106.1 78.5 C 106.8 78.1 103.1 77.8 102.7 78.4 C 102.7 78.4 102.7 78.4 102.7 78.4 Z M 115.5 7.0 C 116.2 7.2 114.5 7.4 115.0 7.6 C 117.7 7.4 115.6 7.1 119.4 7.2 C 119.2 7.1 118.9 7.1 118.9 7.0 C 117.2 7.1 117.0 7.2 117.5 6.8 C 116.6 6.8 116.5 7.3 115.5 7.0 C 115.5 7.0 115.5 7.0 115.5 7.0 Z M 150.4 9.5 C 150.1 9.4 149.9 9.4 149.9 9.2 C 148.8 9.3 149.0 9.3 147.6 9.1 C 147.7 9.5 149.2 9.6 150.4 9.5 C 150.4 9.5 150.4 9.5 150.4 9.5 Z M 228.3 38.2 C 228.3 38.4 228.4 38.5 228.5 38.7 C 228.6 38.5 229.1 38.8 228.6 38.0 C 228.5 38.0 228.6 38.2 228.7 38.3 C 228.5 38.2 228.3 37.8 228.2 37.9 C 228.3 38.1 228.3 38.2 228.3 38.2 C 228.3 38.2 228.3 38.2 228.3 38.2 Z M 217.7 59.1 C 219.3 57.9 214.8 59.8 217.7 59.1 C 217.7 59.1 217.7 59.1 217.7 59.1 C 217.7 59.1 217.7 59.1 217.7 59.1 Z M 222.6 59.3 C 222.7 59.3 223.1 59.1 223.0 59.0 C 224.4 58.2 223.2 59.2 224.0 58.7 C 224.9 57.8 223.2 58.8 224.4 57.7 C 224.1 57.8 223.4 58.7 222.6 59.3 C 222.6 59.3 222.6 59.3 222.6 59.3 Z M 16.8 22.5 C 15.6 23.3 15.4 23.7 15.4 24.0 C 16.1 23.5 16.9 23.1 17.2 23.1 C 18.7 22.0 16.1 23.6 15.8 23.7 C 15.8 23.4 16.9 22.7 16.8 22.5 C 16.8 22.5 16.8 22.5 16.8 22.5 Z M 13.0 25.1 C 12.7 25.5 12.0 26.1 12.1 26.3 C 12.8 25.7 12.9 25.7 13.0 25.8 C 13.5 25.2 12.7 25.7 13.0 25.1 C 13.0 25.1 13.0 25.1 13.0 25.1 Z M 20.8 20.6 C 20.2 20.9 20.5 21.0 20.5 21.1 C 21.4 20.6 21.6 20.6 22.5 20.2 C 22.5 20.1 22.5 20.0 22.4 19.9 C 21.6 20.3 21.6 20.4 20.9 20.8 C 20.9 20.7 20.8 20.7 20.8 20.6 C 20.8 20.6 20.8 20.6 20.8 20.6 Z M 10.0 28.0 C 8.3 29.5 7.9 30.5 7.4 31.8 C 8.3 30.6 8.9 29.2 9.9 28.5 C 10.9 27.5 9.4 28.7 9.4 28.6 C 9.4 28.5 9.8 28.2 10.0 28.0 C 10.0 28.0 10.0 28.0 10.0 28.0 Z M 2.7 43.4 C 2.5 43.8 3.0 44.4 3.2 45.5 C 3.2 45.3 3.2 45.1 3.3 45.1 C 3.1 43.6 2.8 44.5 2.7 43.4 C 2.7 43.4 2.7 43.4 2.7 43.4 Z M 6.2 51.8 C 6.8 52.7 6.0 51.3 6.4 51.6 C 5.8 50.7 5.2 49.7 5.0 49.9 C 5.7 50.8 5.9 51.0 6.2 51.8 C 6.2 51.8 6.2 51.8 6.2 51.8 Z M 11.5 57.3 C 12.6 58.1 11.2 56.7 11.8 56.9 C 11.4 56.6 11.4 56.8 11.3 56.8 C 11.0 56.5 10.8 56.3 10.4 55.9 C 10.6 56.3 11.8 57.2 11.5 57.3 C 11.5 57.3 11.5 57.3 11.5 57.3 Z M 52.8 10.1 C 52.1 10.3 52.3 10.5 50.8 10.8 C 53.1 10.2 52.0 11.2 55.1 10.4 C 54.6 10.5 54.9 10.3 55.1 10.4 C 56.3 9.9 53.9 10.5 55.0 10.0 C 54.1 10.2 54.7 10.3 53.8 10.6 C 52.9 10.5 52.3 10.5 52.8 10.1 C 52.8 10.1 52.8 10.1 52.8 10.1 Z M 55.2 10.7 C 56.1 10.6 56.0 10.1 56.4 10.2 C 56.9 10.2 56.7 10.1 56.8 10.0 C 56.5 10.1 56.4 10.1 56.4 10.0 C 55.6 10.2 54.9 10.5 55.2 10.7 C 55.2 10.7 55.2 10.7 55.2 10.7 Z M 47.2 12.6 C 48.6 12.1 49.0 12.2 49.7 11.8 C 50.2 12.0 50.6 11.4 51.4 11.5 C 52.7 11.1 51.7 11.3 51.3 11.2 C 52.6 10.8 51.7 11.4 53.0 11.0 C 53.2 10.7 51.5 11.1 51.6 10.8 C 50.6 11.0 50.7 11.2 50.0 11.4 C 49.5 11.6 49.7 11.4 49.6 11.3 C 48.4 11.7 48.4 11.5 47.5 11.8 C 47.3 12.0 47.7 12.0 48.8 11.7 C 47.7 12.1 47.3 12.3 46.0 12.6 C 46.8 12.1 42.7 13.1 43.2 13.4 C 44.3 13.2 43.9 13.0 44.3 12.8 C 45.8 12.7 46.6 12.4 47.2 12.6 C 47.2 12.6 47.2 12.6 47.2 12.6 Z M 21.7 21.0 C 21.3 21.2 20.8 21.4 20.2 21.7 C 20.0 21.6 20.9 21.2 20.0 21.5 C 19.0 22.0 18.8 22.2 18.2 22.6 C 18.6 22.5 20.8 21.5 19.8 22.2 C 20.1 22.1 20.9 21.8 21.8 21.3 C 20.6 21.6 23.4 20.5 24.5 20.0 C 24.2 19.7 26.4 19.2 27.2 18.6 C 26.4 18.7 24.2 20.0 23.3 20.4 C 23.8 20.1 20.5 21.2 21.7 21.0 C 21.7 21.0 21.7 21.0 21.7 21.0 Z M 58.6 9.8 C 58.8 9.7 59.8 9.4 59.0 9.6 C 59.4 9.4 60.2 9.4 59.8 9.1 C 60.3 9.0 60.7 8.9 61.1 8.8 C 61.0 9.0 59.8 9.1 60.3 9.3 C 61.2 9.0 60.9 9.2 62.1 9.0 C 61.5 9.3 62.2 9.2 61.7 9.6 C 62.1 9.4 63.1 9.2 63.0 9.0 C 64.7 8.8 62.6 9.5 64.9 9.0 C 64.8 9.3 63.2 9.5 62.7 9.5 C 62.4 9.8 65.4 9.1 67.1 8.9 C 65.6 9.0 66.8 8.5 67.5 8.2 C 68.0 8.2 67.5 8.4 68.4 8.4 C 69.2 8.3 69.6 8.1 69.8 8.2 C 70.4 8.0 70.1 7.9 70.2 7.8 C 71.3 7.6 70.5 8.1 72.1 7.8 C 70.9 7.6 72.2 7.4 74.3 7.2 C 74.2 7.1 73.5 7.2 73.4 7.1 C 73.7 6.9 75.0 7.0 75.3 7.1 C 76.1 6.9 75.5 6.8 74.8 7.0 C 75.3 6.8 75.7 6.7 76.2 6.5 C 73.9 6.8 70.2 7.4 66.0 7.7 C 66.9 7.8 65.9 8.0 64.7 8.1 C 64.5 8.0 65.0 7.9 65.6 7.8 C 64.1 7.7 64.3 8.3 62.0 8.6 C 60.8 8.7 63.3 8.2 62.0 8.3 C 61.2 8.5 60.6 8.8 60.2 8.6 C 58.8 9.0 58.5 9.3 56.3 9.8 C 57.6 9.6 58.2 10.1 59.5 9.7 C 59.5 9.6 58.9 9.8 58.6 9.8 C 58.6 9.8 58.6 9.8 58.6 9.8 Z M 13.1 25.9 C 12.4 26.4 12.2 26.8 12.0 26.8 C 10.9 27.7 12.3 26.9 12.5 26.8 C 13.0 26.3 13.1 26.1 13.1 25.9 C 13.1 25.9 13.1 25.9 13.1 25.9 Z M 109.0 80.7 C 110.9 80.8 110.5 80.5 112.0 80.5 C 110.8 80.4 110.5 80.2 108.5 80.2 C 108.4 80.4 108.4 80.6 109.0 80.7 C 109.0 80.7 109.0 80.7 109.0 80.7 Z M 17.3 23.3 C 18.3 22.4 16.2 24.3 16.1 24.2 C 15.0 25.1 17.3 23.6 16.3 24.5 C 17.2 23.7 18.0 23.5 19.3 22.6 C 19.2 22.4 18.1 23.1 17.0 23.8 C 16.8 23.7 17.4 23.4 17.3 23.3 C 17.3 23.3 17.3 23.3 17.3 23.3 Z M 90.0 79.0 C 88.7 79.1 91.1 79.5 91.8 79.7 C 91.9 79.4 91.5 79.4 90.0 79.0 C 90.0 79.0 90.0 79.0 90.0 79.0 Z M 121.9 80.4 C 122.6 80.1 119.7 80.4 120.4 80.1 C 119.5 80.1 119.4 80.2 119.4 80.3 C 119.0 80.2 117.6 80.2 117.9 80.0 C 117.7 79.8 120.2 80.1 119.4 79.8 C 120.2 79.7 120.3 79.8 120.9 79.8 C 119.4 79.8 120.1 80.1 121.9 80.2 C 121.9 79.9 121.1 80.0 121.9 79.8 C 122.0 79.9 122.9 80.1 122.9 80.5 C 124.4 80.4 123.5 80.0 125.3 80.0 C 125.2 79.9 124.0 79.9 123.3 79.8 C 123.5 79.6 125.3 80.0 124.8 79.6 C 125.2 79.8 126.3 79.9 126.3 80.2 C 124.9 80.3 124.0 80.5 122.9 80.6 C 123.9 80.8 125.5 80.2 127.3 80.4 C 127.1 80.2 128.2 80.2 127.8 80.0 C 129.3 80.0 128.6 80.3 128.3 80.4 C 128.7 80.5 131.5 80.3 131.3 80.1 C 131.5 80.3 134.9 80.1 134.7 79.8 C 135.7 80.0 137.2 79.5 137.7 79.8 C 138.2 79.7 139.4 79.6 140.6 79.6 C 140.9 79.3 138.8 79.5 138.7 79.4 C 138.3 79.2 140.9 79.3 140.6 79.1 C 140.6 79.0 140.6 79.0 140.6 78.9 C 139.6 79.1 138.6 79.2 137.6 79.3 C 136.9 79.3 137.8 79.2 137.6 79.1 C 137.0 79.3 133.8 79.7 133.7 79.3 C 131.6 79.5 130.1 79.5 129.3 79.7 C 128.0 79.7 130.0 79.5 129.3 79.4 C 125.6 79.8 121.0 79.5 117.9 79.8 C 117.3 79.8 117.5 79.6 117.4 79.5 C 113.2 79.7 116.8 80.0 113.5 79.9 C 113.5 79.7 115.0 79.7 115.0 79.5 C 113.8 79.5 113.5 79.6 112.0 79.5 C 112.0 79.7 112.0 79.8 112.0 79.9 C 110.7 79.8 111.2 79.6 110.5 79.4 C 108.9 79.5 109.3 79.6 108.6 79.3 C 107.1 79.4 105.6 79.4 104.1 79.2 C 103.1 79.4 105.0 79.8 106.6 79.9 C 106.5 79.9 106.0 79.9 106.0 80.0 C 104.2 79.8 103.9 79.3 101.2 79.1 C 103.3 79.5 100.1 79.2 99.7 78.9 C 98.6 78.9 99.4 79.3 100.2 79.3 C 100.0 79.4 99.3 79.3 99.2 79.2 C 99.1 79.5 101.7 79.8 104.6 79.8 C 103.2 80.2 106.6 79.9 105.1 80.3 C 107.4 80.3 105.4 80.0 108.0 80.1 C 107.8 80.0 107.3 79.9 107.1 79.7 C 109.0 79.8 108.4 80.1 110.5 80.1 C 110.9 79.9 109.5 79.9 109.5 79.7 C 111.8 80.0 112.5 80.1 114.0 80.4 C 114.3 80.2 113.9 80.0 116.4 80.2 C 116.4 80.2 116.4 80.3 116.4 80.3 C 115.2 80.3 114.9 80.7 117.9 80.7 C 118.1 80.6 117.2 80.6 116.4 80.6 C 116.8 80.4 117.7 80.4 118.9 80.3 C 119.5 80.4 120.2 80.5 119.4 80.5 C 119.9 80.7 120.3 80.3 121.9 80.4 C 121.9 80.4 121.9 80.4 121.9 80.4 Z M 3.2 41.6 C 3.2 41.9 3.3 42.1 3.3 42.6 C 3.5 42.9 3.4 41.9 3.6 42.0 C 3.6 41.2 3.3 41.8 3.2 41.6 C 3.2 41.6 3.2 41.6 3.2 41.6 Z M 6.9 32.4 C 6.7 32.4 6.6 33.0 6.0 33.7 C 6.1 34.0 6.6 33.1 6.7 33.2 C 7.3 32.4 6.2 33.2 6.9 32.4 C 6.9 32.4 6.9 32.4 6.9 32.4 Z M 4.6 36.3 C 4.3 36.5 4.6 36.7 4.9 35.9 C 5.0 36.1 5.0 36.3 4.9 36.7 C 5.3 36.4 5.0 35.9 5.5 35.1 C 5.3 35.3 4.9 35.7 4.6 36.3 C 4.6 36.3 4.6 36.3 4.6 36.3 Z M 4.1 37.6 C 4.1 38.1 3.8 38.4 3.7 39.3 C 4.0 39.1 4.4 37.2 4.4 36.9 C 4.4 36.6 3.7 38.5 4.1 37.6 C 4.1 37.6 4.1 37.6 4.1 37.6 Z M 71.1 76.5 C 71.6 76.6 71.5 76.5 71.6 76.4 C 73.0 77.0 75.0 77.2 73.4 77.3 C 74.9 77.3 76.2 77.8 77.5 78.0 C 78.6 78.2 78.1 77.9 79.0 78.0 C 80.3 78.2 78.2 78.0 78.5 78.2 C 78.7 78.4 79.2 78.0 80.8 78.4 C 80.4 77.9 82.3 78.5 81.8 78.1 C 82.7 78.3 83.0 78.2 84.2 78.3 C 84.1 78.1 82.9 78.0 82.8 77.8 C 82.2 77.5 82.1 78.0 83.3 78.0 C 82.6 78.2 81.0 77.7 80.4 77.8 C 79.9 77.5 82.0 77.9 81.4 77.6 C 81.0 77.6 80.6 77.6 80.4 77.7 C 79.8 77.5 79.3 77.4 79.1 77.3 C 79.5 77.3 79.5 77.3 79.5 77.4 C 80.4 77.5 78.7 76.9 80.5 77.1 C 80.2 77.0 79.4 76.9 79.6 76.8 C 79.0 76.5 79.5 77.4 77.7 76.9 C 76.4 77.0 80.6 77.5 79.4 77.9 C 76.8 77.5 78.3 77.3 76.3 77.0 C 76.2 77.1 76.3 77.2 75.7 77.2 C 75.8 77.3 76.6 77.3 77.1 77.4 C 77.0 77.5 76.3 77.4 75.7 77.3 C 75.8 77.4 76.2 77.5 76.2 77.5 C 74.4 77.2 74.7 76.8 76.3 76.8 C 76.3 76.6 74.1 76.4 73.5 76.4 C 74.1 76.6 73.4 76.5 73.9 76.8 C 74.3 76.9 74.3 76.8 74.4 76.7 C 75.2 76.9 74.4 76.9 74.4 77.0 C 73.4 76.8 73.5 76.6 72.5 76.7 C 72.8 76.6 73.0 76.6 73.0 76.5 C 72.6 76.4 72.1 76.3 71.6 76.3 C 71.7 76.4 71.1 76.4 71.1 76.5 C 71.1 76.5 71.1 76.5 71.1 76.5 Z M 95.7 79.7 C 97.4 79.9 96.5 79.6 95.8 79.6 C 96.1 79.5 96.7 79.5 97.2 79.5 C 96.8 79.4 96.3 79.4 94.8 79.3 C 96.2 79.1 94.8 78.5 92.4 78.4 C 91.7 78.8 93.7 79.0 92.9 79.2 C 94.6 79.2 95.6 79.4 95.7 79.7 C 95.7 79.7 95.7 79.7 95.7 79.7 Z M 12.6 26.8 C 11.9 27.4 11.2 28.0 10.5 28.5 C 10.8 28.7 13.0 27.0 12.6 26.8 C 12.6 26.8 12.6 26.8 12.6 26.8 Z M 78.1 6.6 C 78.5 6.6 78.5 6.6 78.6 6.6 C 79.9 6.4 77.9 6.5 78.5 6.3 C 78.0 6.3 77.6 6.4 77.1 6.4 C 77.0 6.5 79.1 6.4 77.6 6.7 C 77.7 6.8 78.1 6.7 78.1 6.6 C 78.1 6.6 78.1 6.6 78.1 6.6 Z M 3.6 40.9 C 3.6 41.6 3.9 41.2 3.8 42.6 C 4.0 42.1 3.9 41.8 4.0 41.0 C 3.8 41.0 3.7 40.9 3.6 40.9 C 3.6 40.9 3.6 40.9 3.6 40.9 Z M 64.3 75.8 C 65.4 76.3 65.8 75.8 67.9 76.3 C 66.8 75.8 65.5 76.0 64.3 75.8 C 64.3 75.8 64.3 75.8 64.3 75.8 Z M 144.5 78.9 C 143.8 78.9 144.7 78.8 143.5 78.7 C 142.8 78.9 142.5 79.0 141.5 79.1 C 142.9 79.3 145.4 78.8 146.4 79.2 C 147.6 79.0 147.5 78.8 147.8 78.6 C 147.3 78.6 147.0 78.6 146.9 78.6 C 146.2 79.0 145.3 78.5 144.5 78.9 C 144.5 78.9 144.5 78.9 144.5 78.9 Z M 89.5 78.9 C 88.6 78.7 90.1 78.7 90.5 78.6 C 91.1 78.6 90.9 78.8 91.0 78.9 C 91.8 79.0 92.0 78.9 91.9 78.7 C 90.3 78.5 88.4 78.3 89.6 78.1 C 88.0 77.9 88.8 78.3 88.1 78.3 C 87.2 78.0 88.0 78.0 88.1 77.8 C 87.7 77.8 86.5 78.0 86.7 77.7 C 84.4 77.8 85.3 78.3 87.0 78.8 C 88.6 78.7 86.8 78.5 89.5 78.9 C 89.5 78.9 89.5 78.9 89.5 78.9 Z M 31.5 66.8 C 31.7 67.0 32.8 67.4 32.8 67.5 C 34.2 67.8 35.5 68.0 36.9 68.2 C 36.7 67.9 34.8 67.5 35.6 67.9 C 35.0 67.5 33.8 67.0 33.1 66.6 C 31.8 66.1 31.2 66.4 31.2 65.9 C 29.9 65.6 30.6 65.9 28.8 65.1 C 31.6 66.5 27.7 64.8 27.4 64.9 C 29.1 65.7 30.7 66.3 30.5 65.9 C 31.8 66.5 33.2 67.2 33.5 67.5 C 33.3 67.5 32.3 67.1 31.5 66.8 C 31.5 66.8 31.5 66.8 31.5 66.8 Z M 39.1 68.7 C 38.8 68.7 38.6 68.6 37.7 68.3 C 38.2 68.6 38.3 68.7 38.2 68.8 C 39.1 69.1 39.0 69.1 39.3 69.1 C 39.5 69.2 39.6 69.2 39.8 69.4 C 40.6 69.7 39.6 69.0 41.0 69.5 C 40.9 69.4 40.2 69.2 40.3 69.1 C 40.1 69.3 39.5 69.1 39.1 68.7 C 39.1 68.7 39.1 68.7 39.1 68.7 Z M 51.4 72.6 C 52.5 72.8 50.8 72.3 51.5 72.2 C 51.2 72.2 49.1 71.6 49.5 71.5 C 48.9 71.0 46.7 71.2 47.0 70.8 C 46.5 70.7 46.7 70.9 46.6 70.9 C 48.0 71.2 47.9 71.4 46.9 71.2 C 47.0 71.3 47.9 71.5 48.5 71.7 C 48.6 71.6 48.1 71.4 48.2 71.3 C 49.4 71.7 50.3 72.1 51.4 72.6 C 51.4 72.6 51.4 72.6 51.4 72.6 Z M 131.3 4.9 C 130.1 4.9 129.4 4.9 128.8 4.9 C 129.1 5.1 129.7 5.0 130.3 5.0 C 130.4 5.1 129.9 5.1 129.3 5.1 C 129.8 5.3 131.9 5.2 131.3 4.9 C 131.3 4.9 131.3 4.9 131.3 4.9 Z M 121.4 4.7 C 120.3 4.7 119.6 4.7 119.4 4.9 C 119.9 5.0 119.7 4.8 120.4 4.8 C 120.9 4.9 121.2 5.0 121.4 5.0 C 121.9 5.1 121.8 5.0 121.9 4.9 C 122.3 4.9 122.4 4.9 122.4 5.0 C 123.8 4.8 120.8 5.0 121.4 4.7 C 121.4 4.7 121.4 4.7 121.4 4.7 Z M 44.5 70.6 C 44.2 70.4 43.9 70.2 43.0 69.9 C 43.1 70.2 42.4 69.9 41.8 69.8 C 42.6 70.2 43.1 70.3 44.5 70.6 C 44.5 70.6 44.5 70.6 44.5 70.6 Z M 61.8 9.8 C 60.4 9.8 60.6 10.2 58.7 10.4 C 58.7 10.4 58.7 10.5 58.7 10.6 C 59.8 10.2 60.4 10.2 61.8 9.8 C 61.8 9.8 61.8 9.8 61.8 9.8 Z M 231.3 48.5 C 231.2 48.3 230.7 49.3 230.6 49.3 C 230.8 49.6 230.1 49.7 228.8 51.5 C 228.7 51.5 228.8 51.3 228.9 51.1 C 227.8 52.4 229.4 50.9 229.7 50.8 C 230.5 49.7 230.8 49.6 231.3 48.5 C 231.3 48.5 231.3 48.5 231.3 48.5 Z M 129.8 79.0 C 129.7 79.0 130.0 79.0 130.3 79.0 C 130.6 79.0 130.9 79.0 131.2 79.0 C 131.1 78.7 129.5 78.6 130.7 78.2 C 130.3 78.2 130.2 78.3 130.2 78.3 C 127.9 79.1 126.0 78.0 122.8 78.5 C 122.4 78.5 122.5 78.6 122.4 78.6 C 122.8 78.6 122.8 78.7 122.8 78.7 C 123.2 78.4 126.1 78.7 124.8 78.8 C 124.9 78.9 125.3 78.9 125.3 78.8 C 125.6 78.8 126.0 78.8 126.3 78.8 C 126.1 78.7 125.4 78.7 125.3 78.6 C 126.9 78.7 128.8 78.7 127.8 79.0 C 128.8 79.0 129.1 78.8 129.8 78.7 C 130.4 78.7 130.4 78.9 129.8 79.0 C 129.8 79.0 129.8 79.0 129.8 79.0 Z M 142.4 78.3 C 144.0 78.2 143.4 78.0 144.9 77.9 C 143.9 77.8 142.8 78.2 141.5 78.1 C 141.7 78.2 142.3 78.1 142.4 78.3 C 142.4 78.3 142.4 78.3 142.4 78.3 Z M 114.0 78.7 C 114.3 78.4 113.0 78.4 111.5 78.3 C 111.2 78.6 112.5 78.7 114.0 78.7 C 114.0 78.7 114.0 78.7 114.0 78.7 Z M 120.4 78.7 C 121.8 78.6 118.6 78.7 119.4 78.4 C 118.7 78.4 118.0 78.4 117.9 78.3 C 117.4 78.4 117.4 78.5 116.5 78.5 C 116.5 78.6 118.1 78.5 117.9 78.7 C 119.1 78.6 119.2 78.6 120.4 78.7 C 120.4 78.7 120.4 78.7 120.4 78.7 Z M 121.4 78.7 C 122.3 78.6 121.1 78.2 119.9 78.3 C 120.3 78.4 120.6 78.6 121.4 78.7 C 121.4 78.7 121.4 78.7 121.4 78.7 Z M 12.3 55.0 C 12.8 55.3 12.6 54.8 13.1 55.3 C 13.2 55.2 11.3 53.6 12.9 54.9 C 12.5 54.2 11.9 54.2 11.3 53.6 C 11.5 53.8 11.6 54.0 11.2 53.7 C 10.9 53.7 12.7 55.0 12.3 55.0 C 12.3 55.0 12.3 55.0 12.3 55.0 Z M 14.4 56.6 C 14.8 56.9 14.6 56.7 14.4 56.5 C 14.5 56.5 15.1 57.0 15.6 57.3 C 15.6 57.4 15.0 56.4 15.2 56.3 C 13.2 55.1 14.5 56.3 14.4 56.6 C 14.4 56.6 14.4 56.6 14.4 56.6 Z M 16.3 57.8 C 17.5 58.8 19.6 60.0 20.7 60.3 C 19.8 59.4 17.1 57.9 16.3 57.8 C 16.3 57.8 16.3 57.8 16.3 57.8 Z M 7.2 48.6 C 7.9 50.4 10.9 53.5 8.8 50.4 C 8.7 50.6 7.3 48.7 6.9 47.7 C 6.8 47.7 6.2 46.7 6.3 46.6 C 5.8 45.9 7.3 49.1 7.2 48.6 C 7.2 48.6 7.2 48.6 7.2 48.6 Z M 22.9 60.9 C 22.0 60.6 22.8 61.5 21.7 60.8 C 21.0 60.4 21.8 61.0 21.6 61.0 C 23.1 61.8 26.5 63.1 26.7 63.5 C 27.6 63.8 28.0 63.8 29.7 64.5 C 29.8 64.4 23.7 62.1 22.8 61.1 C 22.9 61.0 24.9 62.0 22.9 60.9 C 22.9 60.9 22.9 60.9 22.9 60.9 Z M 62.0 11.2 C 62.1 11.0 60.3 11.4 60.6 11.1 C 59.7 11.6 58.8 11.6 57.7 12.0 C 57.4 12.0 57.4 11.6 55.9 11.9 C 55.9 12.1 56.6 11.9 56.0 12.2 C 54.6 12.6 54.9 12.2 53.4 12.6 C 53.7 13.0 50.2 13.5 50.6 13.8 C 51.4 13.6 51.3 13.4 52.6 13.1 C 53.1 13.0 52.9 13.2 53.5 13.1 C 53.1 13.4 52.4 13.2 51.9 13.6 C 52.0 13.7 53.0 13.5 53.2 13.6 C 53.8 13.4 53.0 13.5 53.1 13.3 C 54.7 12.9 53.1 13.9 54.9 13.4 C 54.5 13.3 54.5 13.3 54.8 13.0 C 55.5 12.9 57.7 12.3 56.5 12.8 C 56.7 13.0 58.0 12.5 57.8 12.3 C 58.5 12.2 58.6 12.2 58.7 12.3 C 60.5 11.9 60.7 11.6 60.3 11.4 C 60.6 11.1 60.9 11.5 62.0 11.2 C 62.0 11.2 62.0 11.2 62.0 11.2 Z M 5.8 39.4 C 5.8 38.7 5.7 40.2 5.6 40.8 C 5.7 40.0 6.0 40.3 6.2 39.5 C 6.1 39.8 6.0 39.7 6.1 39.2 C 6.1 39.0 5.7 40.2 5.8 39.4 C 5.8 39.4 5.8 39.4 5.8 39.4 Z M 33.3 65.9 C 34.0 66.3 38.0 67.5 39.0 67.9 C 38.9 67.5 34.4 66.6 34.0 66.0 C 33.0 65.6 34.5 66.3 33.3 65.9 C 33.3 65.9 33.3 65.9 33.3 65.9 Z M 46.0 14.5 C 45.6 14.6 45.8 14.6 46.0 14.5 C 45.9 14.7 45.1 14.9 44.5 15.0 C 45.4 15.0 44.3 15.3 44.6 15.5 C 44.1 15.6 43.9 15.7 43.8 15.8 C 43.7 15.4 41.4 16.7 43.9 16.1 C 43.4 16.0 43.6 16.0 44.6 15.6 C 45.8 15.5 46.6 15.0 47.1 15.2 C 47.8 14.9 48.0 14.7 49.0 14.5 C 49.3 14.6 50.3 14.5 49.6 15.0 C 51.4 14.6 50.0 14.3 51.5 13.9 C 52.9 13.7 50.8 14.3 51.2 14.5 C 51.6 14.4 51.5 14.5 51.7 14.5 C 52.2 14.4 52.1 14.2 51.6 14.3 C 51.7 14.2 53.1 13.6 52.8 14.0 C 53.6 13.7 51.3 13.6 50.2 14.1 C 49.6 14.3 49.5 13.9 50.1 13.7 C 49.9 13.6 48.6 14.4 48.9 13.9 C 48.3 14.0 47.8 14.1 47.3 14.3 C 47.4 14.3 47.7 14.3 47.7 14.3 C 47.2 14.5 46.6 14.6 46.1 14.8 C 46.5 14.5 46.5 14.4 46.0 14.5 C 46.0 14.5 46.0 14.5 46.0 14.5 Z M 25.8 62.7 C 27.1 63.3 27.5 63.4 28.6 63.8 C 28.3 63.4 25.2 62.2 25.8 62.7 C 25.8 62.7 25.8 62.7 25.8 62.7 Z M 69.7 10.6 C 69.6 10.5 68.8 10.7 68.8 10.6 C 70.2 10.3 68.6 10.4 69.6 9.8 C 67.8 10.3 67.3 11.0 69.8 10.8 C 71.5 10.4 67.9 10.9 69.7 10.6 C 69.7 10.6 69.7 10.6 69.7 10.6 Z M 64.3 11.3 C 63.3 11.6 66.0 11.3 66.6 11.3 C 66.6 11.3 66.6 11.4 66.7 11.5 C 68.1 10.9 66.1 11.1 67.4 10.4 C 65.6 10.6 64.9 10.6 63.4 11.0 C 63.5 11.1 63.8 11.0 63.8 10.9 C 64.9 10.8 64.2 11.2 63.0 11.3 C 63.4 11.4 64.4 11.2 65.2 11.1 C 65.0 11.1 64.7 11.1 64.7 10.9 C 65.7 10.7 65.4 11.0 66.1 10.9 C 66.1 11.0 64.4 11.5 64.3 11.3 C 64.3 11.3 64.3 11.3 64.3 11.3 Z M 158.6 8.8 C 157.6 8.7 159.5 9.3 159.4 9.6 C 160.4 9.8 160.6 9.7 161.2 9.8 C 160.9 9.6 159.9 9.4 159.4 9.2 C 159.6 8.9 160.9 9.5 161.3 9.3 C 161.9 9.0 158.9 9.1 158.6 8.8 C 158.6 8.8 158.6 8.8 158.6 8.8 Z M 22.4 23.6 C 21.9 23.9 22.2 23.8 22.4 23.7 C 22.4 23.8 21.5 24.3 21.5 24.2 C 20.8 24.6 22.0 24.1 21.1 24.6 C 21.0 24.8 22.5 23.9 22.5 23.8 C 23.5 23.2 22.8 23.9 23.2 23.9 C 24.1 23.4 23.7 23.4 25.1 22.7 C 24.2 23.0 23.4 23.2 22.4 23.6 C 22.4 23.6 22.4 23.6 22.4 23.6 Z M 72.8 9.7 C 73.0 9.5 71.8 10.2 70.6 10.2 C 69.0 10.4 71.6 10.3 70.2 10.5 C 71.4 10.3 72.8 9.9 74.7 9.6 C 75.1 9.4 72.1 10.0 73.8 9.6 C 73.7 9.5 73.3 9.6 73.3 9.7 C 72.9 9.7 72.9 9.7 72.8 9.7 C 72.8 9.7 72.8 9.7 72.8 9.7 Z M 71.1 10.5 C 71.2 10.6 71.6 10.5 71.6 10.4 C 72.1 10.3 72.2 10.6 71.6 10.6 C 72.4 10.8 72.3 10.3 73.9 10.2 C 73.2 10.1 72.8 10.0 74.3 10.0 C 75.4 9.6 71.6 10.2 71.1 10.5 C 71.1 10.5 71.1 10.5 71.1 10.5 Z M 143.4 7.5 C 143.5 7.6 144.5 7.7 145.3 7.7 C 144.3 7.9 140.4 7.5 140.0 7.3 C 139.5 7.3 139.1 7.3 139.0 7.2 C 139.0 7.3 137.9 7.4 138.5 7.4 C 138.4 7.5 137.5 7.4 137.5 7.5 C 136.1 7.4 138.0 7.4 137.6 7.2 C 135.8 7.4 136.2 7.2 134.1 7.1 C 134.5 7.3 136.7 7.3 136.5 7.7 C 138.2 7.5 139.9 7.7 140.9 8.1 C 139.4 7.6 145.0 7.8 147.6 8.1 C 147.5 8.2 148.5 8.3 149.5 8.5 C 150.3 8.8 150.1 8.2 148.6 8.2 C 148.7 8.1 150.6 8.4 151.5 8.4 C 150.5 8.2 151.1 8.1 150.6 8.0 C 148.7 7.8 150.4 8.1 150.0 8.2 C 149.6 8.2 149.1 8.1 148.6 8.1 C 151.1 7.9 145.0 7.7 147.2 7.9 C 145.2 7.7 145.2 7.5 143.4 7.5 C 143.4 7.5 143.4 7.5 143.4 7.5 Z M 97.4 7.2 C 97.1 7.2 95.5 7.5 95.5 7.3 C 93.5 7.6 95.3 7.7 93.1 7.9 C 93.2 8.0 94.1 7.9 94.1 8.0 C 94.9 7.8 95.8 7.7 95.5 7.5 C 96.5 7.5 96.8 7.3 97.4 7.3 C 97.2 7.4 96.8 7.5 96.0 7.5 C 95.8 7.7 96.2 7.9 97.5 7.8 C 98.0 7.5 97.6 7.4 97.4 7.2 C 97.4 7.2 97.4 7.2 97.4 7.2 Z M 92.6 7.8 C 92.4 7.8 92.1 7.8 92.1 7.6 C 91.4 7.4 91.9 8.0 91.2 8.0 C 90.6 8.1 90.8 7.9 90.7 7.8 C 89.8 8.0 89.2 8.1 88.8 8.0 C 87.5 8.2 90.3 8.1 90.7 8.2 C 91.6 8.1 91.3 7.9 92.6 7.8 C 92.6 7.8 92.6 7.8 92.6 7.8 Z M 78.4 9.0 C 78.1 8.8 77.6 9.2 77.0 9.3 C 77.5 9.4 78.8 9.1 78.0 9.5 C 79.3 9.4 79.4 9.4 80.8 9.2 C 81.7 9.3 80.8 9.0 79.4 9.3 C 79.5 9.2 80.2 9.1 80.2 8.9 C 81.2 9.3 83.5 8.3 82.1 8.8 C 81.7 8.8 81.4 8.7 81.2 8.7 C 80.9 8.9 77.7 9.2 78.4 9.0 C 78.4 9.0 78.4 9.0 78.4 9.0 Z M 34.3 19.0 C 35.6 18.5 36.2 18.3 36.9 18.1 C 37.6 17.9 38.5 17.5 39.3 17.3 C 39.4 17.4 39.3 17.5 39.0 17.6 C 39.3 17.6 39.8 17.4 40.5 17.1 C 40.4 17.1 40.1 17.2 40.1 17.3 C 38.8 17.5 39.8 17.1 40.0 16.9 C 38.4 17.1 36.1 18.4 34.8 18.5 C 33.9 18.9 35.1 18.5 34.3 19.0 C 34.3 19.0 34.3 19.0 34.3 19.0 Z M 230.0 46.5 C 230.0 46.7 229.8 47.1 230.0 47.1 C 230.1 46.7 230.2 46.4 230.3 46.0 C 229.9 46.7 229.7 46.5 229.2 47.4 C 229.5 47.2 229.7 47.3 230.0 46.5 C 230.0 46.5 230.0 46.5 230.0 46.5 Z M 83.1 8.6 C 83.1 8.7 83.2 8.8 82.6 8.8 C 82.5 9.0 84.0 8.8 84.0 8.9 C 84.5 8.9 84.3 8.7 85.0 8.7 C 84.7 8.6 83.5 8.8 84.0 8.5 C 84.4 8.4 84.5 8.4 84.5 8.5 C 85.5 8.3 84.0 8.4 83.1 8.6 C 83.1 8.6 83.1 8.6 83.1 8.6 Z M 163.1 9.6 C 162.5 9.6 163.1 9.8 163.6 9.8 C 162.2 9.9 164.3 10.3 164.4 10.6 C 163.8 10.3 162.0 10.2 161.7 10.1 C 161.2 10.1 161.8 10.4 160.3 10.2 C 160.4 10.4 162.1 10.5 161.7 10.2 C 162.0 10.6 163.6 10.5 163.5 10.7 C 165.5 11.1 166.0 10.9 166.2 10.7 C 164.2 10.5 165.3 10.3 163.6 10.1 C 163.6 10.0 164.1 10.1 164.5 10.1 C 164.4 10.0 163.6 9.8 163.1 9.6 C 163.1 9.6 163.1 9.6 163.1 9.6 Z M 113.0 6.8 C 111.9 6.8 112.0 7.0 112.0 7.2 C 112.5 7.1 113.1 7.1 114.0 7.1 C 113.8 6.9 112.5 7.0 113.0 6.8 C 113.0 6.8 113.0 6.8 113.0 6.8 Z M 155.7 9.0 C 155.6 8.9 155.2 8.9 155.2 9.0 C 154.0 8.9 153.8 8.7 153.4 8.5 C 152.7 8.5 152.9 8.7 152.9 8.8 C 154.0 8.7 153.7 9.0 155.2 9.1 C 155.1 9.0 155.3 9.0 155.7 9.0 C 155.7 9.0 155.7 9.0 155.7 9.0 Z M 123.3 6.9 C 122.8 6.9 123.1 7.0 123.3 7.0 C 122.7 7.3 120.7 7.0 119.9 7.1 C 119.8 7.3 122.3 7.3 119.4 7.4 C 119.9 7.5 122.5 7.4 123.8 7.5 C 123.5 7.7 121.8 7.7 121.8 7.9 C 123.4 7.8 125.1 7.7 125.3 7.3 C 123.1 7.3 123.9 7.1 123.3 6.9 C 123.3 6.9 123.3 6.9 123.3 6.9 Z M 125.8 7.1 C 125.6 7.0 125.2 7.1 124.3 7.1 C 125.5 7.4 126.3 7.3 128.7 7.4 C 128.7 7.4 128.7 7.3 128.7 7.3 C 129.2 7.3 129.7 7.3 130.2 7.3 C 128.1 7.0 127.5 7.1 125.3 7.2 C 125.2 7.1 125.5 7.1 125.8 7.1 C 125.8 7.1 125.8 7.1 125.8 7.1 Z M 62.2 11.9 C 62.8 11.9 63.3 12.0 64.4 11.8 C 64.3 11.6 63.6 11.6 62.2 11.9 C 62.2 11.9 62.2 11.9 62.2 11.9 Z M 157.5 9.4 C 158.8 9.4 156.3 9.2 157.0 9.6 C 158.0 9.8 159.1 10.0 159.3 10.3 C 161.2 10.2 157.3 9.7 157.5 9.4 C 157.5 9.4 157.5 9.4 157.5 9.4 Z M 149.0 9.1 C 148.5 9.0 148.5 8.6 149.0 8.9 C 150.4 9.0 147.9 8.6 150.0 8.8 C 149.1 8.7 147.1 8.4 146.2 8.4 C 146.2 8.6 148.0 8.7 148.0 8.9 C 148.1 9.0 147.9 9.0 147.6 9.0 C 147.7 9.1 148.2 9.0 149.0 9.1 C 149.0 9.1 149.0 9.1 149.0 9.1 Z M 141.9 8.1 C 142.6 8.3 143.6 8.5 145.2 8.6 C 144.1 8.4 143.6 8.1 141.9 8.1 C 141.9 8.1 141.9 8.1 141.9 8.1 Z M 225.8 32.9 C 225.2 32.3 225.6 33.1 225.6 33.2 C 226.1 33.8 226.2 33.6 226.8 34.4 C 226.8 34.0 226.0 33.5 225.8 32.9 C 225.8 32.9 225.8 32.9 225.8 32.9 Z M 227.6 35.4 C 227.5 35.5 228.1 36.4 228.0 36.5 C 228.7 36.7 228.4 37.9 228.7 37.7 C 228.8 37.9 228.8 38.1 229.0 38.5 C 229.1 37.6 228.1 36.1 227.6 35.4 C 227.6 35.4 227.6 35.4 227.6 35.4 Z M 133.6 8.2 C 132.3 8.0 133.9 8.5 132.6 8.4 C 132.5 8.5 135.1 8.7 133.5 8.7 C 135.5 9.0 133.4 8.2 133.6 8.2 C 133.6 8.2 133.6 8.2 133.6 8.2 Z M 109.6 8.2 C 109.7 8.0 107.9 8.2 107.2 8.2 C 107.2 8.3 107.8 8.2 108.2 8.2 C 108.0 8.3 107.7 8.4 107.2 8.4 C 107.6 8.6 108.9 8.2 109.6 8.2 C 109.6 8.2 109.6 8.2 109.6 8.2 Z M 136.2 4.1 C 137.0 4.4 138.1 4.6 138.7 4.3 C 139.5 4.6 138.1 4.6 139.1 4.7 C 140.5 4.7 139.8 4.9 142.1 4.9 C 141.6 5.2 143.2 5.3 143.5 5.5 C 142.6 5.5 141.5 5.1 141.0 5.3 C 141.8 5.4 141.4 5.6 141.0 5.4 C 139.6 5.2 142.9 5.2 141.1 4.9 C 140.5 5.2 137.9 4.5 136.2 4.4 C 136.9 4.3 134.9 4.1 136.2 4.1 C 136.2 4.1 136.2 4.1 136.2 4.1 Z M 145.0 5.1 C 146.1 5.2 146.7 5.8 146.4 5.7 C 146.4 5.6 145.1 5.5 144.9 5.6 C 145.2 5.6 145.5 5.7 145.4 5.7 C 143.3 5.5 144.0 5.4 143.5 5.2 C 144.7 5.2 145.0 5.3 145.5 5.3 C 145.2 5.2 144.9 5.2 145.0 5.1 C 145.0 5.1 145.0 5.1 145.0 5.1 Z M 169.3 12.0 C 169.1 11.8 168.8 12.0 168.3 11.9 C 168.3 11.6 166.0 11.7 165.7 11.4 C 166.2 11.4 167.4 11.6 168.0 11.5 C 167.3 11.4 167.2 11.3 166.6 11.3 C 166.8 11.1 168.1 11.3 168.5 11.2 C 168.6 11.4 169.2 11.3 169.4 11.4 C 167.6 11.3 170.3 12.2 169.3 12.0 C 169.3 12.0 169.3 12.0 169.3 12.0 Z M 122.4 8.2 C 122.2 8.4 124.3 9.0 122.4 9.3 C 121.9 9.1 121.7 8.9 121.8 8.6 C 120.7 8.7 120.1 8.5 119.4 8.7 C 117.2 8.0 121.1 8.8 122.4 8.2 C 122.4 8.2 122.4 8.2 122.4 8.2 Z M 114.5 8.4 C 114.9 8.2 113.8 8.2 114.0 8.0 C 115.0 8.2 118.0 7.9 117.0 8.1 C 116.0 8.2 116.0 8.4 114.5 8.4 C 114.5 8.4 114.5 8.4 114.5 8.4 Z M 59.4 72.6 C 58.0 72.6 57.4 72.0 58.2 72.0 C 57.8 72.2 59.9 72.4 59.4 72.6 C 59.4 72.6 59.4 72.6 59.4 72.6 Z M 6.3 53.3 C 6.9 54.3 7.5 54.8 7.5 55.0 C 6.6 54.2 6.8 54.2 6.1 53.4 C 6.0 53.4 5.6 53.0 5.6 52.8 C 5.9 53.2 6.0 53.0 6.3 53.3 C 6.3 53.3 6.3 53.3 6.3 53.3 Z M 84.6 4.4 C 84.4 4.3 83.8 4.3 84.1 4.1 C 85.5 4.1 87.1 3.7 88.4 3.5 C 88.4 3.6 88.4 3.7 88.4 3.8 C 86.1 3.9 85.5 4.1 84.6 4.4 C 84.6 4.4 84.6 4.4 84.6 4.4 Z M 81.6 4.2 C 81.4 4.3 82.2 4.6 81.2 4.6 C 81.2 4.5 79.4 4.4 80.2 4.3 C 80.5 4.4 81.0 4.4 81.6 4.2 C 81.6 4.2 81.6 4.2 81.6 4.2 Z M 163.6 6.5 C 164.7 6.6 163.1 6.2 163.2 6.1 C 164.0 6.2 165.1 6.4 165.4 6.6 C 164.6 6.4 164.0 6.7 163.6 6.5 C 163.6 6.5 163.6 6.5 163.6 6.5 Z M 146.0 5.1 C 143.5 5.0 144.6 4.6 142.1 4.4 C 143.1 4.3 145.3 4.5 146.0 4.3 C 145.9 4.5 146.5 4.6 146.5 4.7 C 145.6 4.6 145.4 4.5 144.5 4.5 C 144.8 4.7 144.9 4.6 144.5 4.9 C 145.2 4.9 145.6 4.9 146.0 4.9 C 145.8 5.0 146.7 5.2 146.0 5.1 C 146.0 5.1 146.0 5.1 146.0 5.1 Z M 163.0 7.0 C 164.0 7.1 164.7 7.5 163.9 7.4 C 163.8 7.2 163.2 7.3 163.0 7.2 C 164.4 7.3 161.9 6.9 162.6 6.8 C 163.4 6.9 163.7 6.9 163.5 6.7 C 164.1 6.8 164.9 6.9 164.9 7.0 C 164.6 6.9 164.0 6.8 164.0 6.9 C 164.3 7.0 164.5 7.0 164.4 7.1 C 163.6 6.9 163.3 7.0 163.0 7.0 C 163.0 7.0 163.0 7.0 163.0 7.0 Z M 156.5 6.2 C 157.8 6.4 157.9 6.6 158.3 6.8 C 156.6 6.5 156.4 6.2 155.1 5.9 C 156.5 6.1 158.0 6.0 158.4 6.2 C 157.8 6.2 156.6 6.1 156.5 6.2 C 156.5 6.2 156.5 6.2 156.5 6.2 Z M 182.1 73.4 C 181.1 73.5 180.2 73.5 179.1 73.7 C 178.7 74.0 180.9 74.0 180.0 74.0 C 178.8 74.3 179.6 73.8 178.6 74.0 C 179.6 74.1 174.6 75.1 174.3 74.8 C 175.1 74.7 175.3 74.5 175.1 74.4 C 177.2 74.1 177.9 73.7 179.4 73.3 C 180.6 73.4 183.8 72.8 185.4 72.1 C 186.6 72.3 188.4 71.3 190.0 71.3 C 190.4 71.1 188.7 71.4 189.9 71.0 C 190.8 71.1 190.2 71.3 191.3 71.1 C 191.3 71.0 191.0 70.9 191.6 70.7 C 191.5 70.9 192.2 70.7 192.5 70.7 C 190.3 71.3 192.7 71.0 190.9 71.6 C 190.2 71.6 191.6 71.0 189.6 71.5 C 188.9 71.7 188.3 72.0 188.5 72.2 C 187.9 72.3 187.6 72.5 187.2 72.6 C 187.9 72.1 184.4 73.3 186.0 72.6 C 186.1 72.6 187.2 72.3 188.0 72.1 C 187.2 72.0 186.4 72.3 185.1 72.8 C 184.5 72.7 185.3 72.5 184.6 72.5 C 183.6 72.9 185.1 72.8 184.3 73.1 C 184.6 73.0 185.1 72.9 185.1 73.0 C 183.3 73.2 182.7 73.6 181.8 73.7 C 182.3 73.5 180.7 73.8 182.1 73.4 C 182.1 73.4 182.1 73.4 182.1 73.4 Z M 196.7 69.3 C 197.1 69.2 197.5 69.1 197.9 69.0 C 198.0 69.2 196.6 69.7 197.6 69.6 C 195.9 70.1 197.6 69.3 196.7 69.3 C 196.7 69.3 196.7 69.3 196.7 69.3 Z M 188.6 70.7 C 187.9 70.6 188.4 71.1 187.8 71.2 C 188.8 70.9 189.7 70.6 189.9 70.8 C 188.7 71.1 188.2 71.2 187.0 71.6 C 188.1 70.9 185.6 71.6 185.2 71.4 C 186.1 71.1 186.8 70.9 188.1 70.6 C 187.9 70.7 189.7 70.4 188.6 70.7 C 188.6 70.7 188.6 70.7 188.6 70.7 Z M 191.7 69.5 C 192.0 69.6 193.7 69.0 193.4 69.4 C 192.3 69.7 192.0 69.8 192.2 70.0 C 191.5 70.2 191.3 70.1 190.6 70.3 C 190.1 70.1 191.4 69.9 191.7 69.6 C 191.5 69.7 191.2 69.7 191.7 69.5 C 191.7 69.5 191.7 69.5 191.7 69.5 Z M 225.1 52.1 C 225.5 52.1 224.3 53.0 224.0 53.2 C 224.5 53.0 224.4 53.2 223.7 54.0 C 223.8 53.5 222.7 54.5 221.7 54.8 C 221.7 55.2 222.7 54.5 221.6 55.4 C 220.6 56.1 219.8 56.8 218.1 57.8 C 217.6 57.8 218.4 57.3 218.7 57.0 C 217.7 57.7 217.9 57.3 217.0 57.9 C 217.2 57.9 216.5 58.4 216.2 58.4 C 217.7 57.5 213.9 59.3 215.5 58.3 C 215.7 58.3 216.1 58.1 216.4 57.8 C 216.2 58.4 218.2 57.0 218.7 56.9 C 219.2 55.9 221.3 54.8 223.2 53.4 C 223.4 53.4 222.9 54.0 223.4 53.6 C 223.4 53.5 223.9 53.0 224.2 52.7 C 224.2 52.8 224.5 52.7 224.9 52.4 C 224.8 52.3 224.8 52.3 225.1 52.1 C 225.1 52.1 225.1 52.1 225.1 52.1 Z M 104.2 76.7 C 104.3 76.3 101.2 76.3 100.3 76.4 C 100.5 76.0 106.0 76.4 104.2 76.7 C 104.2 76.7 104.2 76.7 104.2 76.7 Z M 123.3 76.6 C 122.5 76.6 123.1 76.8 122.3 76.9 C 122.3 76.6 120.4 77.1 120.4 76.9 C 121.3 76.7 121.9 76.7 123.3 76.6 C 123.3 76.6 123.3 76.6 123.3 76.6 Z M 140.9 76.0 C 139.5 76.2 141.6 76.1 141.4 76.2 C 140.1 76.3 138.9 76.4 138.9 76.2 C 140.0 76.2 140.7 75.8 140.9 76.0 C 140.9 76.0 140.9 76.0 140.9 76.0 Z M 114.5 76.4 C 113.3 76.3 115.3 76.0 115.5 76.2 C 114.2 76.2 116.3 76.4 117.4 76.3 C 117.4 76.6 116.9 76.6 117.4 76.8 C 115.7 76.9 117.1 76.5 115.9 76.6 C 115.1 76.7 116.0 76.7 115.9 76.9 C 115.5 76.9 115.0 76.9 114.5 76.9 C 114.5 76.7 114.5 76.6 114.5 76.5 C 115.1 76.5 115.7 76.5 115.5 76.3 C 115.0 76.3 114.9 76.4 114.5 76.4 C 114.5 76.4 114.5 76.4 114.5 76.4 Z M 201.4 64.5 C 200.4 64.8 201.3 64.6 202.0 64.4 C 202.2 64.2 202.7 63.6 203.8 63.4 C 201.5 64.5 204.7 63.5 203.4 64.1 C 202.8 64.1 201.4 64.9 200.1 65.2 C 199.6 65.2 200.7 64.5 201.4 64.5 C 201.4 64.5 201.4 64.5 201.4 64.5 Z M 205.7 63.0 C 205.6 63.0 205.2 63.1 204.5 63.4 C 205.2 62.9 204.1 63.3 205.0 62.9 C 204.9 63.0 208.0 61.8 206.2 62.6 C 204.6 63.1 206.8 62.6 207.5 62.3 C 206.7 62.6 205.4 63.5 205.1 63.3 C 205.5 63.2 205.9 63.0 205.7 63.0 C 205.7 63.0 205.7 63.0 205.7 63.0 Z M 228.3 46.7 C 228.2 46.5 228.0 46.9 227.9 47.0 C 228.6 45.8 228.8 44.8 229.0 44.3 C 228.9 44.8 229.1 44.9 229.3 44.6 C 229.0 45.1 229.1 45.3 228.9 45.5 C 228.9 44.9 228.7 45.9 228.3 46.7 C 228.3 46.7 228.3 46.7 228.3 46.7 Z M 228.3 46.7 " fill="#000000"></path><image xlink:href="6CE81A6EFD7393CE8A6B5085518B2D66.png" width="88.00" height="24.00" transform="matrix(1.00, 0.00, -0.00, -1.00, 75.0, 51.0)"></image><g><clipPath id="clip-140"><path d="M 5.5 5.9 L 231.9 5.9 L 231.9 78.4 L 5.5 78.4 Z M 5.5 5.9 "></path></clipPath><g clip-path="url(#clip-140)"><text xml:space="preserve" font-family="Chalkduster" font-size="18.0" fill="#000000" transform="matrix(1.00, 0.00, -0.00, -1.00, 79.0, 34.0)">=</text><text xml:space="preserve" font-family="Chalkduster" font-size="18.0" fill="#000000" transform="matrix(1.00, 0.00, -0.00, -1.00, 91.2, 34.0)">=</text><text xml:space="preserve" font-family="Chalkduster" font-size="18.0" fill="#000000" transform="matrix(1.00, 0.00, -0.00, -1.00, 103.4, 34.0)"> </text><text xml:space="preserve" font-family="Chalkduster" font-size="18.0" fill="#000000" transform="matrix(1.00, 0.00, -0.00, -1.00, 112.3, 34.0)">v</text><text xml:space="preserve" font-family="Chalkduster" font-size="18.0" fill="#000000" transform="matrix(1.00, 0.00, -0.00, -1.00, 123.5, 34.0)">s</text><text xml:space="preserve" font-family="Chalkduster" font-size="18.0" fill="#000000" transform="matrix(1.00, 0.00, -0.00, -1.00, 132.6, 34.0)"> </text><text xml:space="preserve" font-family="Chalkduster" font-size="18.0" fill="#000000" transform="matrix(1.00, 0.00, -0.00, -1.00, 141.5, 34.0)">i</text><text xml:space="preserve" font-family="Chalkduster" font-size="18.0" fill="#000000" transform="matrix(1.00, 0.00, -0.00, -1.00, 148.7, 34.0)">s</text></g></g></g></svg>