<?xml version="1.0" encoding="UTF-8" standalone="no"?><svg xmlns="http://www.w3.org/2000/svg" xmlns:xlink="http://www.w3.org/1999/xlink" clip-rule="evenodd" stroke-miterlimit="4.00" viewBox="0 0 274 59"><desc>SVG generated by Keynote</desc><defs></defs><g transform="matrix(1.00, 0.00, -0.00, -1.00, 0.0, 59.0)"><path d="M 229.7 46.1 C 280.9 36.8 280.9 21.8 229.7 12.5 C 178.4 3.2 95.3 3.2 44.1 12.5 C -7.2 21.8 -7.2 36.8 44.1 46.1 C 95.3 55.4 178.4 55.4 229.7 46.1 Z M 229.7 46.1 " fill="#A8E685"></path><path d="M 66.8 5.3 C 66.5 5.4 66.1 5.5 65.4 5.5 C 65.7 5.6 65.9 5.6 65.9 5.7 C 66.4 5.6 67.2 5.5 68.3 5.4 C 68.3 5.3 67.7 5.4 67.3 5.4 C 66.9 5.4 66.9 5.3 66.8 5.3 C 66.8 5.3 66.8 5.3 66.8 5.3 Z M 69.6 53.0 C 68.6 52.9 69.6 53.3 70.0 53.3 C 70.1 53.3 70.1 53.2 70.5 53.3 C 70.6 53.5 69.7 53.5 69.0 53.5 C 66.4 53.1 68.4 52.9 69.6 53.0 C 69.6 53.0 69.6 53.0 69.6 53.0 Z M 209.7 52.3 C 211.7 52.0 209.5 52.0 209.2 52.0 C 210.1 51.8 209.3 51.5 210.5 51.3 C 210.8 51.4 211.2 51.5 211.5 51.6 C 210.9 51.6 210.2 51.7 210.1 51.8 C 210.8 51.7 211.8 51.6 212.0 51.6 C 210.4 51.9 211.7 51.9 212.0 52.0 C 210.6 52.2 210.2 52.5 209.7 52.3 C 209.7 52.3 209.7 52.3 209.7 52.3 Z M 229.5 9.7 C 230.0 9.9 230.9 10.0 230.6 10.1 C 229.4 9.9 229.4 9.9 229.1 9.8 C 229.0 9.8 229.1 10.0 228.6 9.9 C 228.1 9.6 228.4 9.4 228.8 9.3 C 228.8 9.5 230.7 9.7 229.5 9.7 C 229.5 9.7 229.5 9.7 229.5 9.7 Z M 175.2 4.3 C 173.2 4.1 175.1 4.6 173.1 4.4 C 173.1 4.2 172.8 3.9 174.2 4.0 C 174.3 4.1 175.0 4.2 175.2 4.3 C 175.2 4.3 175.2 4.3 175.2 4.3 Z M 151.4 54.2 C 151.4 54.4 152.8 54.3 152.5 54.5 C 151.7 54.5 151.0 54.6 150.3 54.6 C 150.1 54.4 150.4 54.3 151.4 54.2 C 151.4 54.2 151.4 54.2 151.4 54.2 Z M 223.0 48.1 C 225.1 48.0 227.1 47.3 226.5 47.6 C 227.3 47.8 225.2 48.6 225.3 48.3 C 225.0 48.0 221.4 48.3 223.0 48.1 C 223.0 48.1 223.0 48.1 223.0 48.1 Z M 81.3 50.0 C 83.7 50.4 83.2 49.7 84.8 50.1 C 84.3 50.1 84.0 50.1 83.8 50.2 C 84.2 50.2 84.8 50.3 84.8 50.3 C 83.6 50.3 82.3 50.3 81.3 50.0 C 81.3 50.0 81.3 50.0 81.3 50.0 Z M 101.4 3.1 C 101.8 3.1 102.0 3.0 101.9 2.9 C 103.6 2.9 103.5 2.7 104.6 2.8 C 104.6 3.1 103.2 3.1 101.9 3.1 C 101.9 3.1 101.5 3.2 101.4 3.1 C 101.4 3.1 101.4 3.1 101.4 3.1 Z M 149.0 3.2 C 148.9 3.0 147.9 2.9 149.5 2.9 C 151.3 3.2 149.7 3.4 147.9 3.5 C 147.9 3.6 147.9 3.7 147.9 3.8 C 148.6 3.8 149.1 3.9 149.5 3.9 C 149.8 3.6 151.0 4.3 153.8 4.1 C 152.5 4.2 153.9 4.6 152.2 4.4 C 152.6 4.6 151.4 4.6 151.6 4.8 C 152.4 4.7 154.2 4.7 153.8 4.4 C 154.8 4.4 155.5 4.5 156.0 4.5 C 156.6 4.8 154.2 4.6 154.9 4.8 C 155.4 4.9 155.5 4.9 155.9 4.9 C 156.1 4.8 155.9 4.7 156.5 4.7 C 158.2 4.9 156.2 5.0 158.6 5.1 C 158.8 5.0 158.1 4.9 158.1 4.8 C 159.2 4.7 159.2 4.9 160.3 4.8 C 160.5 4.9 159.5 4.9 160.2 5.0 C 160.9 4.7 162.5 5.3 164.0 5.0 C 163.0 4.5 164.3 5.2 165.6 4.7 C 165.9 4.9 164.9 5.2 166.1 5.2 C 165.7 4.6 170.5 4.9 166.7 4.3 C 168.7 4.4 169.4 3.9 167.8 3.8 C 171.3 4.0 170.2 3.7 171.5 3.7 C 172.9 3.8 170.8 3.8 171.5 4.0 C 170.1 3.9 170.4 4.1 169.4 3.9 C 169.4 4.0 169.1 4.1 168.8 4.1 C 170.3 4.0 172.0 4.5 170.9 4.7 C 170.2 4.6 170.9 4.4 169.9 4.3 C 170.3 4.7 168.9 4.2 168.8 4.4 C 169.5 4.8 167.4 5.0 169.4 5.1 C 169.4 5.0 169.4 4.8 169.4 4.7 C 169.9 4.7 170.4 4.8 170.9 4.8 C 171.4 5.1 171.0 5.2 171.5 5.3 C 172.3 5.3 172.8 5.3 173.1 5.2 C 172.0 5.1 170.7 4.8 172.5 4.9 C 171.8 5.3 175.0 5.1 173.6 5.3 C 175.5 5.6 176.5 5.2 176.7 5.6 C 177.7 5.6 177.1 5.3 178.3 5.4 C 180.2 5.8 179.9 5.4 182.4 5.8 C 182.8 5.4 182.7 5.9 183.5 5.9 C 183.5 5.8 183.5 5.7 183.5 5.5 C 184.4 5.8 186.4 6.0 188.6 6.0 C 189.1 6.1 188.7 6.3 190.1 6.3 C 191.6 6.1 193.4 6.6 195.1 6.4 C 195.3 6.6 196.5 6.7 197.1 6.7 C 197.4 6.8 196.5 7.1 197.6 7.1 C 198.4 7.0 197.1 6.8 198.6 6.8 C 198.4 7.1 200.1 6.8 200.1 7.1 C 199.6 7.1 199.1 7.1 198.6 7.2 C 199.3 7.2 199.0 7.3 199.6 7.4 C 199.5 7.1 200.7 7.5 201.1 7.6 C 201.0 7.4 201.2 7.3 201.6 7.3 C 202.4 7.4 203.1 7.4 203.5 7.4 C 204.6 7.6 202.9 7.5 204.0 7.7 C 204.5 7.1 205.5 7.9 207.8 7.8 C 208.3 8.1 209.2 8.3 210.6 8.5 C 210.8 8.3 209.3 8.2 209.2 8.1 C 211.3 8.4 208.9 7.9 210.2 8.0 C 213.1 8.5 215.0 8.8 218.0 9.4 C 218.0 9.2 220.3 9.4 220.3 9.5 C 219.6 9.4 221.5 9.9 222.4 10.1 C 222.7 9.8 224.2 9.6 224.3 9.4 C 224.6 9.7 224.6 9.7 224.7 10.1 C 226.3 10.4 227.1 10.2 228.1 10.8 C 228.0 10.6 228.8 10.7 229.4 10.7 C 229.2 10.9 228.8 10.9 228.4 11.0 C 229.3 11.1 228.8 11.2 230.4 11.4 C 232.0 11.1 234.3 12.4 235.6 12.0 C 237.9 12.4 237.5 12.6 239.5 13.1 C 239.4 12.9 239.7 12.8 240.3 12.9 C 238.9 12.7 237.9 12.6 237.2 12.2 C 240.3 12.8 231.4 10.3 236.6 11.1 C 236.7 11.3 236.2 11.3 237.3 11.6 C 240.2 12.1 238.6 11.5 237.4 11.3 C 239.4 11.6 241.3 12.1 239.8 11.5 C 244.2 12.4 241.4 12.0 242.8 12.4 C 250.2 14.0 257.8 16.3 263.0 19.5 C 263.4 19.3 265.8 21.2 266.4 21.9 C 267.7 22.6 268.7 23.7 268.7 24.2 C 269.1 24.2 269.5 25.6 269.8 25.5 C 269.5 25.1 269.4 24.7 269.7 25.1 C 270.6 26.9 270.8 29.6 270.8 30.8 C 270.3 31.4 270.0 32.5 269.7 33.3 C 269.5 33.3 269.8 32.7 269.5 33.2 C 269.6 33.4 268.6 34.9 268.2 35.1 C 268.6 34.8 268.7 34.1 268.2 34.7 C 268.3 34.8 267.6 35.4 267.9 35.4 C 267.0 36.2 266.5 36.7 265.6 37.3 C 266.3 36.7 266.6 36.3 266.6 36.1 C 266.1 36.6 265.7 37.1 265.1 37.2 C 265.4 37.4 264.3 38.0 263.1 38.8 C 262.7 38.9 262.4 38.9 261.4 39.5 C 260.9 39.9 263.1 38.9 262.0 39.5 C 261.9 39.4 260.7 39.9 261.1 40.0 C 259.6 40.6 258.7 41.1 257.3 41.5 C 259.1 40.9 257.6 41.1 257.2 41.2 C 256.8 41.4 256.2 41.6 256.2 41.6 C 256.2 41.7 257.1 41.4 257.3 41.4 C 256.0 41.8 255.7 42.3 255.2 42.3 C 255.8 42.1 255.8 41.9 255.1 42.1 C 255.1 42.6 250.9 43.7 252.3 43.0 C 252.3 43.1 253.9 42.6 254.0 42.4 C 253.5 42.5 251.2 43.4 251.6 43.0 C 253.0 42.5 253.0 42.7 254.5 42.1 C 254.6 41.9 255.5 41.5 256.0 41.2 C 253.7 42.1 253.1 42.5 252.7 42.4 C 251.6 42.8 252.4 42.8 250.4 43.4 C 247.5 44.2 249.8 43.2 249.0 43.3 C 246.5 44.2 247.3 44.3 248.5 44.2 C 246.4 44.8 245.8 45.2 243.0 45.8 C 243.2 45.6 243.5 45.4 244.4 45.1 C 244.5 45.1 246.8 44.7 246.6 44.6 C 246.3 44.3 244.5 44.7 241.4 45.3 C 242.2 45.5 242.3 45.3 239.2 46.0 C 239.8 46.3 237.6 46.3 237.6 46.5 C 237.8 46.6 238.9 46.3 240.0 46.1 C 239.9 46.3 239.6 46.5 238.5 46.7 C 237.8 46.8 237.3 47.0 235.3 47.3 C 235.1 47.2 236.5 46.8 236.8 46.6 C 235.7 46.9 235.5 47.0 234.3 47.3 C 233.3 47.3 233.3 46.9 233.3 46.6 C 234.6 46.3 236.6 45.9 235.0 46.0 C 239.8 45.0 234.9 46.4 236.7 46.1 C 238.6 45.3 237.6 46.0 240.6 45.3 C 241.4 45.1 241.7 44.9 242.1 44.8 C 241.8 44.8 240.1 44.9 242.0 44.5 C 242.4 44.5 243.5 44.4 244.9 44.1 C 244.9 44.0 241.9 44.6 244.8 43.8 C 246.3 43.5 245.1 44.1 247.0 43.6 C 247.0 43.5 247.5 43.4 247.6 43.3 C 244.9 44.0 248.1 42.9 246.2 43.3 C 248.5 42.6 246.7 43.5 248.2 43.0 C 248.2 42.8 250.7 42.4 250.6 42.1 C 249.8 42.5 247.9 43.0 248.1 42.7 C 249.8 42.3 256.6 39.7 254.1 41.0 C 255.0 40.5 259.2 38.5 258.9 38.8 C 257.8 39.3 257.8 39.4 257.7 39.7 C 260.0 38.4 261.1 38.1 262.8 36.7 C 260.8 37.9 262.2 36.6 260.7 37.1 C 260.1 37.4 259.2 37.8 259.1 38.0 C 259.5 38.1 260.4 37.5 260.8 37.2 C 260.9 37.4 260.9 37.6 261.0 37.8 C 258.4 38.9 256.6 39.8 255.0 40.3 C 256.4 39.7 252.3 40.9 253.9 40.3 C 254.6 40.2 256.2 39.6 257.5 39.1 C 257.5 39.1 257.4 39.0 257.4 38.9 C 257.9 38.7 258.7 38.4 258.7 38.3 C 257.1 39.0 256.1 39.2 254.9 39.8 C 254.9 39.8 254.8 39.7 254.8 39.7 C 254.5 39.8 254.2 39.9 254.3 39.8 C 254.9 39.6 255.7 39.3 255.8 39.1 C 254.5 39.6 254.1 39.5 252.5 40.0 C 252.8 39.6 250.6 40.0 252.9 39.1 C 253.3 39.2 254.6 38.9 254.6 39.0 C 255.3 38.9 256.5 38.3 257.0 38.0 C 256.4 38.1 255.1 38.5 254.9 38.3 C 255.9 37.9 256.6 37.4 257.3 37.4 C 255.4 38.3 258.4 37.2 259.2 37.1 C 258.9 37.1 258.5 37.2 258.2 37.2 C 259.6 36.5 260.3 36.4 260.2 36.1 C 261.6 35.2 261.4 35.6 262.3 35.1 C 261.5 35.1 262.8 34.6 262.0 34.6 C 263.4 33.7 262.6 34.6 263.1 34.3 C 263.5 34.0 263.5 33.9 263.8 33.6 C 264.4 33.4 265.3 32.6 265.6 32.7 C 265.9 32.3 266.0 32.3 266.3 32.0 C 266.3 31.8 266.3 31.7 266.3 31.5 C 266.4 31.5 266.7 31.3 266.6 31.2 C 265.8 31.9 266.0 31.6 264.9 32.4 C 264.9 32.5 264.8 32.7 265.0 32.5 C 264.4 33.2 264.1 33.3 263.2 34.0 C 263.0 33.9 262.7 33.7 261.9 34.4 C 262.0 34.1 261.7 34.2 262.0 33.9 C 262.5 33.7 263.2 33.4 263.7 33.1 C 263.7 33.0 263.5 32.9 263.8 32.7 C 264.1 32.6 264.4 32.4 264.6 32.1 C 264.7 32.1 264.6 32.3 264.6 32.4 C 265.5 31.6 265.0 31.7 265.5 31.2 C 265.3 31.2 265.1 31.6 265.2 31.2 C 265.5 30.6 265.6 30.6 265.8 30.4 C 265.8 30.3 265.7 30.3 265.7 30.2 C 266.0 30.0 265.8 31.2 266.4 30.7 C 266.2 30.5 266.5 30.0 266.6 29.9 C 266.8 30.1 266.4 30.4 266.5 30.5 C 267.0 29.3 267.2 30.6 267.3 29.3 C 267.2 29.3 267.1 29.3 267.0 29.3 C 267.0 29.8 266.7 29.8 266.5 29.7 C 266.4 30.1 266.1 30.1 266.1 30.5 C 265.7 30.2 266.2 30.2 266.3 29.8 C 266.1 29.8 266.0 30.1 265.8 30.1 C 266.2 29.4 265.9 29.4 266.0 28.5 C 265.8 28.8 265.8 28.1 265.6 28.2 C 266.0 28.9 265.2 28.8 265.1 28.9 C 265.2 29.2 265.6 28.9 265.8 29.1 C 265.6 29.2 265.4 29.2 265.1 29.2 C 265.2 29.0 265.1 29.0 264.9 28.8 C 265.1 28.6 265.4 28.2 265.7 28.5 C 265.6 28.4 265.2 28.0 265.4 27.8 C 265.7 28.4 265.4 27.7 265.7 28.0 C 265.6 27.5 264.7 26.8 264.2 26.0 C 264.1 26.2 263.9 26.0 263.8 26.1 C 264.7 26.6 264.4 27.1 264.8 27.6 C 264.6 27.4 264.6 27.6 264.6 27.7 C 264.3 27.2 263.9 27.0 263.5 26.4 C 263.5 26.5 263.4 26.5 263.4 26.6 C 262.7 25.7 262.7 25.9 261.7 25.4 C 261.4 25.1 262.1 25.1 262.4 24.9 C 261.9 24.8 260.2 23.6 261.1 24.5 C 260.0 23.9 260.5 23.7 259.2 23.1 C 259.0 23.3 260.2 23.9 259.6 24.0 C 258.5 23.4 259.3 23.4 258.2 23.2 C 258.2 22.9 258.3 22.7 257.1 22.2 C 257.9 22.8 257.0 22.3 256.5 22.3 C 257.1 22.5 257.5 22.8 257.8 23.0 C 255.8 22.0 255.3 21.8 253.2 21.1 C 254.0 21.1 252.9 20.6 254.3 21.0 C 253.0 20.7 251.4 19.8 250.6 19.7 C 251.4 20.1 252.8 20.6 253.3 20.9 C 249.1 19.5 246.4 19.0 241.6 17.5 C 242.4 17.7 243.5 18.0 243.7 17.9 C 243.2 17.8 242.3 17.6 242.3 17.5 C 244.0 17.9 245.6 18.3 246.4 18.5 C 247.7 19.0 245.5 18.4 246.9 18.9 C 247.2 18.8 249.7 19.7 248.9 19.1 C 246.5 18.7 244.2 17.8 243.1 17.1 C 240.6 16.9 242.9 17.5 240.1 17.3 C 240.2 17.2 239.5 17.0 238.7 16.7 C 239.5 17.3 235.9 16.3 235.5 16.2 C 237.0 16.3 242.0 17.3 239.5 16.4 C 240.5 17.3 233.5 15.0 234.8 15.7 C 231.3 15.1 232.6 15.0 230.6 14.9 C 230.5 14.8 230.8 14.7 229.8 14.5 C 228.8 14.3 228.9 14.4 228.7 14.5 C 229.9 14.8 231.4 15.2 232.1 15.4 C 232.7 15.6 233.2 15.8 234.7 16.1 C 234.2 16.0 233.7 15.9 233.8 16.0 C 233.8 16.1 233.7 16.1 233.0 15.9 C 232.8 15.6 230.4 15.5 229.7 15.1 C 230.7 15.3 231.7 15.5 231.4 15.3 C 227.1 14.6 228.7 14.5 225.8 13.9 C 226.6 14.2 225.5 14.1 224.5 13.9 C 223.1 13.7 223.7 13.4 221.9 13.1 C 222.0 13.8 220.1 12.8 217.9 12.8 C 218.2 12.5 215.4 12.0 214.8 12.2 C 214.7 12.1 213.7 12.0 213.0 11.9 C 212.8 11.8 213.7 11.8 213.0 11.7 C 212.4 11.6 212.9 12.0 212.1 11.9 C 211.1 11.7 211.3 11.4 209.8 11.3 C 209.8 11.5 210.6 11.5 209.8 11.6 C 208.5 11.3 207.3 11.2 208.4 11.6 C 206.4 11.4 207.4 11.1 205.5 10.9 C 206.1 11.0 206.0 11.1 205.1 11.0 C 204.4 10.8 204.3 10.7 204.1 10.5 C 203.5 10.7 203.7 10.8 202.2 10.5 C 202.2 10.6 202.2 10.7 202.1 10.8 C 201.4 10.7 200.4 10.7 200.2 10.5 C 201.5 10.7 201.2 10.5 201.7 10.5 C 200.4 10.3 197.9 9.8 199.8 10.3 C 197.9 10.2 198.8 9.9 197.4 9.9 C 198.2 10.2 197.4 9.9 195.9 9.8 C 196.0 10.1 194.8 9.7 193.9 9.7 C 194.0 9.9 193.7 10.0 192.9 9.9 C 192.9 9.8 192.4 9.7 191.4 9.6 C 191.4 9.8 193.5 10.1 191.4 9.9 C 190.4 9.7 190.4 9.4 188.8 9.3 C 188.5 9.0 190.3 9.2 189.9 9.0 C 188.6 9.1 188.2 8.9 186.3 8.7 C 187.1 9.2 182.5 9.0 184.7 9.4 C 184.1 9.3 183.2 9.6 182.7 9.3 C 183.4 9.3 182.2 9.0 182.2 9.0 C 181.3 9.0 179.2 8.7 179.1 8.8 C 181.1 8.9 181.1 9.1 181.7 9.3 C 178.8 9.3 176.3 9.0 176.5 8.8 C 176.5 8.9 176.1 8.8 176.0 8.9 C 177.0 8.9 177.6 9.4 176.5 9.3 C 176.7 9.1 175.9 9.0 175.0 8.8 C 174.9 9.1 171.1 8.5 171.8 8.9 C 173.3 8.8 174.6 9.2 173.4 9.3 C 172.4 9.1 170.3 8.8 170.8 8.6 C 170.2 8.7 169.7 8.7 169.2 8.8 C 168.7 9.0 169.9 9.0 169.7 9.2 C 168.9 9.2 167.7 9.2 167.6 9.0 C 169.7 9.1 166.5 8.9 168.7 8.8 C 167.3 8.7 167.0 8.6 166.0 8.5 C 166.0 8.6 165.6 8.6 165.5 8.6 C 166.4 8.5 167.3 8.7 167.1 8.9 C 165.2 8.9 165.5 8.6 163.9 8.6 C 163.4 8.7 161.2 9.0 160.1 8.8 C 162.3 8.8 160.0 8.6 161.2 8.6 C 163.1 8.8 163.7 8.5 164.4 8.4 C 163.6 8.2 162.0 8.0 161.8 8.3 C 162.8 8.4 162.8 8.3 163.4 8.2 C 163.3 8.4 163.0 8.5 162.3 8.5 C 161.4 8.3 159.4 8.4 160.7 8.1 C 159.4 8.2 157.9 7.9 156.4 8.1 C 158.0 8.2 159.2 8.3 159.6 8.5 C 158.3 8.6 157.0 8.2 157.0 8.4 C 157.1 8.6 159.2 8.6 159.6 8.8 C 157.9 9.0 155.4 8.3 157.5 8.8 C 156.5 8.8 155.2 8.7 154.8 8.6 C 156.0 8.6 154.7 8.3 154.2 8.2 C 153.2 8.2 152.5 8.2 152.1 8.3 C 153.6 8.2 154.8 8.6 153.7 8.6 C 153.4 8.4 153.1 8.6 152.7 8.6 C 152.6 8.5 150.8 8.5 150.5 8.4 C 150.6 8.6 151.4 8.6 151.6 8.7 C 150.6 8.8 149.1 9.1 148.4 8.7 C 149.0 8.7 149.9 8.8 149.9 8.7 C 147.2 8.3 146.3 8.0 142.9 7.8 C 143.4 7.8 143.6 7.7 143.5 7.6 C 141.4 7.6 140.0 7.4 140.3 7.3 C 138.9 7.3 138.3 7.5 137.6 7.6 C 138.9 7.7 139.4 7.5 140.3 7.7 C 139.7 7.7 141.3 8.2 141.9 8.3 C 144.2 8.1 144.4 8.5 146.7 8.4 C 146.0 8.6 148.5 8.5 147.8 8.7 C 145.6 8.3 143.5 8.6 140.3 8.4 C 140.7 8.2 141.0 8.0 139.7 7.9 C 137.7 7.8 138.7 8.1 137.0 8.1 C 136.3 7.9 137.3 7.8 136.5 7.7 C 135.9 7.8 134.3 7.8 133.8 7.6 C 136.0 7.6 133.3 7.4 134.8 7.3 C 134.1 7.3 133.7 7.2 133.2 7.2 C 135.4 7.5 131.0 7.5 132.7 7.8 C 129.7 7.9 132.4 7.1 130.0 7.2 C 131.2 7.4 129.6 7.5 127.8 7.5 C 127.3 7.2 125.5 7.2 124.0 7.1 C 124.8 7.3 125.4 7.3 124.0 7.5 C 124.8 7.5 126.0 7.5 126.7 7.4 C 126.7 7.5 127.0 7.6 127.3 7.6 C 125.5 7.7 126.2 7.8 125.7 7.9 C 125.1 7.8 123.8 7.8 123.5 7.7 C 123.5 7.8 123.0 7.8 123.0 7.9 C 125.2 7.9 122.6 8.2 124.0 8.3 C 125.0 8.2 124.4 8.0 125.7 8.0 C 126.9 8.3 124.7 8.3 124.0 8.6 C 125.1 8.8 126.4 8.4 126.7 8.7 C 125.4 9.0 123.2 8.8 121.4 8.8 C 121.5 9.1 118.4 8.8 118.1 9.2 C 117.9 9.1 117.6 9.0 117.1 9.0 C 116.6 9.3 116.0 8.9 115.5 8.9 C 115.4 9.1 115.6 9.2 116.0 9.2 C 113.8 9.2 113.3 9.2 110.7 9.4 C 110.3 9.3 109.8 9.2 109.6 9.0 C 110.2 8.9 110.8 8.9 111.2 8.8 C 107.7 8.9 110.0 9.4 107.5 9.1 C 107.6 9.3 109.3 9.5 108.0 9.6 C 105.8 9.4 102.7 9.8 102.7 9.1 C 100.8 9.0 99.5 9.5 98.6 9.3 C 97.9 9.3 97.7 9.4 97.5 9.5 C 98.1 9.6 98.9 9.7 99.6 9.8 C 100.8 9.6 101.3 9.8 100.2 9.5 C 101.9 9.4 102.4 9.5 103.3 9.6 C 100.9 9.9 98.7 9.8 98.6 10.1 C 97.8 10.0 97.2 9.9 96.5 9.8 C 96.3 10.0 93.6 10.2 93.4 10.0 C 95.2 9.9 97.0 9.5 95.4 9.4 C 91.0 9.9 88.5 9.6 84.7 10.2 C 84.6 10.1 84.9 9.9 84.2 9.9 C 84.2 10.0 84.1 10.2 83.7 10.3 C 82.5 10.3 81.8 10.3 80.2 10.5 C 80.3 10.2 80.0 10.1 79.1 10.1 C 78.7 10.4 77.1 11.0 76.2 11.0 C 77.2 10.9 75.9 10.7 75.2 10.8 C 75.8 11.1 70.9 10.9 72.3 11.1 C 70.3 11.4 69.5 11.3 69.4 11.2 C 68.7 11.3 68.2 11.5 67.6 11.6 C 67.1 11.3 63.8 11.9 63.3 11.8 C 64.5 11.8 64.6 11.4 63.7 11.5 C 63.1 11.8 60.2 12.4 59.7 12.4 C 59.8 12.3 60.0 12.0 61.4 11.8 C 59.0 12.0 59.1 12.4 58.3 12.7 C 58.3 12.4 57.3 12.8 56.9 12.9 C 56.2 12.9 57.0 12.8 56.9 12.6 C 56.1 12.7 55.7 12.6 54.7 12.8 C 55.0 13.0 53.8 13.0 53.3 13.0 C 53.2 13.2 52.6 13.4 51.6 13.6 C 52.9 13.0 46.2 14.1 47.8 14.1 C 46.5 14.5 46.4 14.0 44.8 14.4 C 44.7 14.5 44.3 14.5 43.9 14.6 C 43.6 14.7 44.0 14.7 44.5 14.7 C 44.1 14.7 43.4 14.9 43.1 14.9 C 42.8 14.9 42.7 14.9 42.5 14.9 C 42.1 14.9 41.7 15.0 40.1 15.3 C 41.6 15.4 37.1 15.9 37.8 16.1 C 36.4 16.0 34.2 17.1 31.8 17.2 C 31.8 17.3 31.2 17.5 31.1 17.6 C 30.7 17.8 33.9 17.1 31.9 17.6 C 29.4 18.1 30.7 17.7 30.3 17.6 C 24.1 19.3 18.0 21.3 14.3 23.1 C 14.8 22.9 14.8 23.0 14.1 23.5 C 12.8 23.6 9.8 25.9 9.6 26.3 C 9.2 26.3 8.6 27.4 8.3 27.5 C 8.5 27.3 8.6 26.8 8.3 27.2 C 8.3 27.6 7.9 27.8 8.0 28.2 C 7.6 28.3 7.7 29.3 7.3 28.7 C 7.3 28.9 7.3 29.0 7.2 29.1 C 7.5 29.2 7.4 29.3 7.6 29.0 C 7.3 29.8 7.6 29.9 7.8 30.7 C 8.0 30.8 7.8 30.2 8.1 30.6 C 8.1 30.6 8.0 30.6 8.0 30.6 C 8.0 30.8 8.2 30.8 8.1 30.9 C 8.0 31.0 7.9 30.7 7.6 30.8 C 7.9 31.2 7.8 31.6 8.1 31.6 C 7.7 31.0 8.4 31.2 8.4 31.6 C 8.1 31.4 9.8 33.0 10.7 33.5 C 10.9 34.0 9.8 32.9 9.8 33.1 C 11.1 34.1 11.1 34.1 11.5 34.0 C 12.3 34.7 12.6 35.0 14.1 35.6 C 14.8 36.1 13.5 35.5 14.3 36.0 C 14.9 36.2 15.2 36.2 16.1 36.5 C 18.1 38.0 25.2 39.6 29.1 41.4 C 27.5 40.8 29.7 41.2 32.0 41.8 C 32.1 41.9 31.8 42.0 32.6 42.2 C 32.5 42.0 33.3 42.1 34.9 42.5 C 35.1 42.6 34.7 42.7 35.6 42.9 C 36.4 42.8 38.4 43.5 39.7 43.6 C 40.2 44.0 36.7 43.1 36.4 43.2 C 38.4 43.8 39.7 44.0 40.8 44.2 C 42.0 44.4 43.7 44.6 44.5 44.8 C 43.6 44.7 45.0 45.2 45.3 45.3 C 45.0 44.9 46.3 45.1 45.4 44.7 C 46.0 44.9 46.9 45.0 47.0 45.1 C 46.7 45.1 46.2 45.0 46.2 45.0 C 46.9 45.1 47.9 45.6 48.3 45.4 C 47.8 45.3 47.4 45.2 47.5 45.0 C 47.7 45.0 48.0 44.9 48.4 44.9 C 47.1 45.3 50.7 45.6 50.9 45.5 C 51.2 45.9 51.4 46.0 51.2 46.1 C 52.8 46.4 52.6 46.1 53.5 46.1 C 53.2 46.4 52.9 46.6 54.3 46.9 C 54.0 46.5 55.7 46.8 55.3 46.4 C 59.0 46.8 59.7 47.3 62.1 47.6 C 62.1 47.5 61.4 47.4 62.1 47.4 C 63.1 47.6 64.1 47.8 64.8 48.1 C 65.4 47.9 64.6 47.8 65.3 47.8 C 67.0 48.2 66.6 48.5 68.1 48.8 C 70.0 48.9 69.3 48.9 70.5 48.8 C 70.0 48.7 69.3 48.5 70.0 48.6 C 71.2 48.9 71.6 49.3 71.9 49.3 C 71.1 49.3 70.4 49.2 70.0 49.1 C 69.7 49.2 68.5 49.1 69.5 49.3 C 68.3 49.1 66.9 48.9 65.2 48.8 C 65.8 49.1 63.7 48.6 64.2 49.0 C 66.2 49.1 66.6 49.4 68.5 49.5 C 68.1 49.2 70.0 49.6 70.4 49.7 C 70.4 49.5 71.7 49.7 71.4 49.5 C 72.9 49.6 72.8 49.7 74.3 49.8 C 74.4 49.9 74.2 50.0 74.8 50.1 C 75.3 49.9 75.8 50.3 76.2 50.3 C 75.9 50.0 78.1 50.4 78.2 50.2 C 77.7 50.1 76.8 50.1 76.8 50.0 C 79.2 50.2 77.3 49.8 76.8 49.6 C 76.9 49.7 76.0 50.0 75.8 49.7 C 77.8 49.7 73.0 49.0 74.8 49.3 C 76.4 49.5 76.3 49.3 77.8 49.5 C 79.6 50.1 77.4 50.2 79.2 50.7 C 80.4 50.6 81.1 50.7 81.3 50.5 C 81.5 50.6 81.8 50.7 82.2 50.8 C 82.7 50.7 80.8 50.4 82.2 50.5 C 83.0 50.6 82.1 50.9 83.7 50.9 C 84.4 50.8 81.8 50.5 83.3 50.6 C 84.8 51.1 82.9 50.4 84.8 50.5 C 84.9 50.6 85.2 50.6 85.8 50.7 C 85.9 50.8 85.6 51.0 86.3 51.0 C 86.6 50.6 86.9 51.3 88.3 51.3 C 89.1 51.0 86.9 51.0 87.3 50.8 C 88.9 51.2 89.8 50.9 90.4 51.0 C 89.1 51.1 92.3 51.3 92.4 51.5 C 92.1 51.2 92.8 51.4 94.6 51.3 C 94.6 51.7 96.7 51.5 97.1 51.9 C 97.4 51.8 97.9 51.7 98.1 51.6 C 97.5 51.6 96.9 51.6 97.1 51.4 C 97.6 51.5 98.2 51.5 98.7 51.5 C 99.6 51.8 97.3 52.1 100.8 52.3 C 100.4 51.9 101.9 52.0 102.9 51.9 C 102.8 51.6 101.5 51.8 101.3 51.7 C 102.5 51.5 103.7 51.8 104.5 52.0 C 106.5 51.9 109.0 52.2 111.9 52.2 C 112.6 52.4 109.4 52.3 111.4 52.5 C 112.2 52.5 111.8 52.3 113.0 52.4 C 111.9 53.4 121.0 52.8 121.6 53.3 C 122.0 53.1 124.5 53.2 124.3 52.9 C 122.5 53.1 121.3 52.8 120.5 52.6 C 118.9 52.7 122.0 52.9 120.5 52.9 C 120.3 52.7 118.1 52.8 118.3 52.6 C 120.7 52.7 117.1 52.4 118.9 52.2 C 121.0 52.3 125.3 52.1 124.3 52.3 C 124.3 52.3 123.3 52.2 123.2 52.3 C 125.7 52.5 127.1 52.3 128.1 52.2 C 129.2 52.4 133.5 52.1 132.4 52.2 C 132.8 52.4 129.8 52.1 130.3 52.3 C 134.7 52.5 134.9 52.3 137.8 52.5 C 136.9 52.2 140.9 52.0 140.6 52.1 C 140.6 52.4 141.5 52.6 143.3 52.3 C 143.0 52.5 143.9 52.6 144.9 52.6 C 145.3 52.4 144.1 52.5 144.3 52.3 C 145.2 52.2 146.2 52.2 147.1 52.2 C 147.1 52.3 146.9 52.5 147.6 52.5 C 148.6 52.3 152.2 52.0 151.9 52.1 C 150.4 52.5 154.4 52.4 151.9 52.6 C 152.6 52.6 152.6 52.7 153.5 52.7 C 153.5 52.6 153.5 52.5 153.5 52.3 C 155.5 52.3 154.5 52.7 156.2 52.7 C 156.4 52.6 157.1 52.5 157.3 52.4 C 156.6 52.4 156.6 52.5 155.7 52.5 C 156.7 52.1 153.9 52.4 154.0 52.1 C 155.9 52.0 155.9 52.2 156.7 52.3 C 159.1 52.1 158.0 52.2 160.5 52.2 C 160.5 52.1 159.8 52.1 160.0 52.0 C 163.0 52.0 162.7 52.5 164.8 52.2 C 164.3 52.3 162.4 52.5 163.7 52.5 C 165.1 52.3 165.5 52.1 167.4 52.0 C 167.5 52.1 167.4 52.2 168.0 52.2 C 168.8 52.1 168.8 51.8 169.5 51.7 C 169.7 51.8 170.7 51.7 171.1 51.6 C 171.8 51.8 170.9 51.9 171.7 51.9 C 173.2 51.8 174.0 51.2 175.3 51.3 C 175.3 51.6 176.7 51.4 177.9 51.3 C 178.2 51.6 180.8 51.3 182.6 51.3 C 182.2 51.1 184.0 51.0 183.6 50.8 C 182.7 50.9 182.3 50.9 182.1 50.8 C 184.1 50.6 184.7 51.1 186.2 50.6 C 186.9 50.7 187.9 50.8 189.2 50.7 C 189.4 50.6 186.8 50.7 188.2 50.5 C 188.3 50.6 188.8 50.5 189.2 50.4 C 189.0 50.7 190.1 50.7 190.8 50.8 C 191.9 50.5 194.4 50.6 193.2 50.4 C 195.1 50.2 193.9 50.7 195.3 50.6 C 194.6 50.3 197.0 50.1 195.8 50.0 C 197.6 49.8 197.5 50.2 196.8 50.4 C 198.5 50.3 198.9 50.1 199.7 50.1 C 198.9 50.0 201.5 49.6 200.2 49.8 C 199.8 50.1 201.8 49.8 202.2 49.9 C 201.5 49.8 202.4 49.7 201.2 49.7 C 202.4 49.5 204.3 49.2 205.5 49.3 C 207.1 49.0 208.5 48.8 207.9 49.2 C 209.4 48.9 208.8 49.0 210.3 48.9 C 210.3 48.8 209.8 48.8 209.7 48.8 C 211.8 48.5 211.4 48.7 214.0 48.4 C 213.7 48.8 215.3 48.5 215.9 48.6 C 214.8 48.8 213.9 48.8 213.1 48.8 C 212.9 49.0 213.8 49.0 213.1 49.1 C 213.0 49.0 212.6 49.0 212.2 49.0 C 213.9 49.1 210.1 49.7 211.2 49.3 C 211.3 49.4 211.4 49.4 211.7 49.3 C 211.4 49.1 211.4 49.2 211.7 48.9 C 210.8 49.1 210.1 48.9 209.8 49.2 C 209.9 49.3 210.7 49.1 210.8 49.2 C 208.7 49.6 210.1 49.0 208.4 49.3 C 208.1 49.6 209.0 49.5 209.4 49.6 C 207.8 49.8 206.5 50.0 206.0 49.9 C 204.6 50.1 206.2 50.0 205.1 50.3 C 204.6 50.2 204.6 50.0 203.7 50.1 C 202.6 50.3 204.3 50.2 203.2 50.4 C 202.0 50.4 204.0 50.0 202.2 50.1 C 202.6 50.4 200.6 50.2 200.7 50.4 C 201.8 50.3 201.8 50.6 201.3 50.5 C 198.9 50.4 197.3 51.4 194.8 51.1 C 194.8 51.1 194.4 51.2 194.4 51.3 C 196.2 51.3 198.8 51.0 199.3 51.4 C 200.8 51.1 200.5 50.9 200.8 50.8 C 202.5 51.0 202.3 51.0 201.4 51.5 C 198.6 51.8 197.3 51.7 195.4 51.8 C 194.4 52.1 195.5 51.9 195.9 52.0 C 190.0 52.3 194.6 52.6 192.5 52.7 C 192.5 52.6 192.0 52.5 191.5 52.6 C 191.5 52.7 190.6 52.7 190.4 52.8 C 190.8 52.8 191.0 52.8 190.9 52.9 C 189.5 53.1 190.0 52.8 189.9 52.7 C 191.1 52.6 191.8 52.5 191.9 52.4 C 190.5 52.6 189.3 52.5 188.4 52.8 C 187.0 52.6 189.1 52.1 188.3 51.8 C 188.6 51.6 187.4 52.5 186.3 52.7 C 184.5 52.8 184.5 53.1 182.7 53.2 C 182.3 53.0 184.4 53.0 184.3 52.8 C 183.8 52.8 183.7 52.8 183.2 52.8 C 182.0 52.9 182.1 53.1 181.2 53.2 C 180.6 53.0 180.4 53.2 179.7 53.3 C 178.5 53.3 180.3 53.1 179.1 53.1 C 177.8 53.1 176.9 53.5 176.5 53.5 C 176.4 53.4 176.6 53.3 176.0 53.3 C 174.5 53.6 174.1 53.6 176.0 53.6 C 174.4 53.7 173.6 53.8 173.9 54.1 C 176.4 54.0 177.0 53.9 178.1 54.1 C 178.6 53.9 179.3 54.0 180.2 54.0 C 179.6 53.6 181.3 53.9 181.8 53.7 C 181.1 53.7 180.5 53.7 180.2 53.6 C 182.8 53.5 182.7 53.5 184.8 53.0 C 184.8 53.1 185.1 53.2 185.3 53.2 C 184.7 53.4 182.8 53.4 182.8 53.6 C 184.2 53.8 184.7 53.3 186.4 53.5 C 187.1 53.3 185.0 53.3 186.4 53.2 C 187.0 53.3 187.9 53.4 188.9 53.4 C 190.0 53.3 190.6 53.1 191.4 53.0 C 191.5 53.1 191.7 53.1 192.5 53.0 C 192.4 52.9 191.6 52.9 192.5 52.8 C 195.1 52.9 196.9 52.9 199.5 52.6 C 198.6 52.6 196.5 52.5 197.5 52.4 C 198.7 52.5 200.2 52.0 201.4 52.1 C 201.8 52.2 200.0 52.2 200.5 52.5 C 201.6 52.4 202.3 52.4 202.9 52.4 C 202.9 52.2 204.2 52.1 203.9 51.9 C 202.9 52.0 202.7 52.3 202.4 52.3 C 203.1 51.5 206.0 52.1 207.7 51.9 C 208.9 51.7 206.8 51.8 208.2 51.6 C 209.0 51.3 209.5 51.9 208.2 52.1 C 207.3 52.1 207.0 52.4 206.8 52.2 C 206.4 52.3 205.8 52.3 205.9 52.4 C 206.5 52.3 206.4 52.5 206.8 52.5 C 205.9 52.6 205.8 53.1 204.9 52.9 C 205.5 52.8 205.7 52.7 205.9 52.6 C 203.3 53.0 202.5 52.9 201.0 52.9 C 201.8 53.0 200.9 53.0 201.0 53.2 C 202.1 53.0 204.3 53.0 203.0 53.2 C 202.1 53.0 201.5 53.8 200.6 53.6 C 201.2 53.5 201.1 53.3 201.5 53.2 C 200.5 53.3 200.5 53.1 199.5 53.2 C 196.3 53.9 193.8 53.5 188.5 54.4 C 186.7 54.5 190.2 54.2 190.0 54.0 C 189.5 54.0 189.4 54.0 189.0 54.0 C 189.0 54.3 188.0 54.0 187.5 54.3 C 187.5 54.1 185.1 54.5 183.8 54.3 C 183.8 54.4 183.9 54.6 183.3 54.6 C 179.5 54.5 172.6 55.4 169.7 55.2 C 169.8 55.4 168.5 55.5 168.1 55.6 C 166.3 55.7 167.1 55.4 164.4 55.8 C 163.0 55.9 164.6 55.6 164.9 55.5 C 160.8 55.8 157.2 55.7 154.7 56.0 C 153.4 56.1 154.7 55.8 152.0 55.8 C 151.9 56.2 147.7 55.7 147.1 56.2 C 145.5 56.2 142.5 55.8 143.8 56.1 C 141.6 56.2 143.1 55.8 142.2 55.8 C 140.6 55.8 142.7 56.4 141.1 56.4 C 141.3 56.2 139.9 56.3 138.9 56.1 C 140.2 56.1 140.9 56.0 141.1 55.9 C 140.0 56.0 140.1 55.9 138.4 55.9 C 137.1 56.1 133.5 56.3 132.4 55.9 C 132.3 56.0 132.7 56.1 132.9 56.1 C 131.9 56.2 130.6 55.9 130.8 56.2 C 128.3 56.2 127.3 55.9 125.9 56.1 C 124.8 56.2 126.2 55.9 123.1 55.9 C 123.1 56.1 117.6 55.9 116.1 55.7 C 116.0 56.0 115.7 55.7 115.1 55.7 C 114.9 55.7 115.1 55.9 114.5 55.9 C 114.4 55.8 113.9 55.8 113.4 55.8 C 113.8 55.5 111.4 55.9 111.3 55.6 C 111.8 55.6 111.8 55.4 111.3 55.4 C 111.1 55.6 108.9 55.1 109.1 55.4 C 109.6 55.5 111.1 55.5 110.7 55.7 C 108.6 55.7 109.5 55.4 108.0 55.3 C 108.1 55.4 109.0 55.5 108.0 55.6 C 106.6 55.5 107.9 55.5 107.0 55.3 C 106.2 55.3 104.8 55.4 104.3 55.4 C 104.5 55.4 104.0 55.2 103.8 55.2 C 101.0 55.0 94.9 54.9 92.3 54.4 C 92.1 54.5 91.5 54.5 91.7 54.7 C 90.1 54.4 90.2 54.5 88.6 54.3 C 88.6 54.4 88.6 54.5 88.6 54.6 C 86.5 54.6 88.4 54.3 87.1 54.2 C 86.9 54.8 86.3 54.0 85.0 53.9 C 84.9 54.0 84.3 54.0 84.5 54.2 C 82.5 54.0 82.7 53.7 81.0 53.7 C 81.4 53.7 81.6 54.5 81.4 54.7 C 81.1 54.6 80.6 54.5 79.9 54.4 C 80.8 54.2 80.4 53.2 78.0 53.3 C 79.3 53.4 79.8 53.5 79.5 53.7 C 77.6 53.5 77.0 53.3 75.5 53.2 C 75.2 53.4 76.3 53.5 75.9 53.8 C 75.5 53.7 75.3 53.8 75.4 53.9 C 73.8 53.7 73.7 53.5 72.0 53.5 C 72.0 53.3 72.4 53.3 73.0 53.5 C 72.9 53.3 72.9 53.1 74.0 53.2 C 74.1 53.3 73.5 53.5 75.0 53.6 C 75.0 53.5 75.0 53.3 75.0 53.2 C 73.9 53.1 71.3 52.6 71.1 52.7 C 71.6 52.9 72.4 53.0 72.0 53.2 C 70.1 53.0 69.6 52.6 68.2 52.3 C 65.5 52.1 61.0 51.5 61.5 51.9 C 60.0 51.6 60.5 51.7 59.2 51.5 C 59.5 51.8 57.6 51.4 57.7 51.6 C 59.4 51.8 58.9 51.8 60.5 51.9 C 60.5 52.0 60.2 52.1 59.5 52.1 C 59.5 51.9 58.8 51.8 57.7 51.7 C 57.9 51.8 58.8 52.1 57.7 52.0 C 57.6 51.9 57.3 51.9 56.8 51.8 C 56.8 51.7 56.8 51.5 56.8 51.4 C 57.5 51.4 58.2 51.5 58.7 51.4 C 58.3 51.4 58.2 51.3 57.8 51.2 C 57.5 51.3 55.7 50.9 55.5 51.1 C 56.2 51.1 56.7 51.3 55.9 51.3 C 55.8 51.2 54.6 51.0 54.1 51.0 C 55.7 51.4 55.1 51.3 55.9 51.7 C 54.0 51.5 54.3 51.2 52.3 51.0 C 52.3 50.8 52.3 50.6 52.8 50.6 C 51.6 49.9 48.5 49.9 47.6 49.7 C 48.3 49.8 49.1 49.6 48.1 49.4 C 48.0 49.5 47.3 49.4 47.2 49.4 C 46.7 49.8 47.6 50.2 48.3 50.6 C 47.5 50.5 47.3 50.5 46.6 50.4 C 46.3 50.2 47.2 50.0 46.2 49.8 C 46.0 50.1 44.4 49.5 44.1 49.7 C 44.7 49.8 45.2 50.0 44.5 49.9 C 44.6 49.8 43.0 49.6 43.0 49.4 C 44.2 49.6 44.2 49.5 44.5 49.5 C 44.8 49.5 45.0 49.5 45.4 49.5 C 44.5 49.4 46.1 49.4 44.6 49.2 C 43.9 49.2 43.5 49.4 40.4 48.8 C 39.2 48.5 40.3 48.5 38.8 48.1 C 39.1 48.5 35.8 47.8 37.9 48.0 C 36.7 47.8 36.1 47.6 35.5 47.5 C 37.0 48.0 29.7 46.7 30.7 47.1 C 30.8 46.8 30.5 46.4 30.2 46.2 C 28.8 46.2 27.2 45.6 24.0 44.6 C 24.0 45.0 23.4 44.5 22.1 44.1 C 21.8 44.2 22.9 44.6 22.0 44.4 C 20.6 43.8 20.6 43.8 20.3 43.6 C 19.3 43.2 18.5 42.9 18.1 42.7 C 18.0 42.8 18.3 43.0 18.5 43.1 C 14.9 41.5 13.2 41.1 10.9 39.8 C 11.8 40.4 12.2 40.2 11.4 39.8 C 10.9 39.6 10.4 39.4 10.1 39.3 C 10.5 39.8 10.3 39.5 9.3 38.9 C 8.3 38.4 9.5 39.5 8.7 39.0 C 8.0 38.4 8.5 38.6 8.2 38.3 C 7.8 38.0 7.5 37.8 7.2 37.5 C 7.7 38.1 6.9 37.7 6.4 37.3 C 6.9 37.4 6.7 37.2 5.6 36.3 C 5.6 36.1 6.2 36.6 5.8 36.2 C 5.6 35.9 4.6 35.4 4.3 34.6 C 4.4 34.8 4.6 34.9 4.6 34.8 C 3.9 34.2 3.7 33.3 3.5 32.6 C 3.6 33.4 3.3 33.1 3.3 33.5 C 3.1 32.6 2.5 31.7 2.6 31.0 C 2.8 32.2 3.0 30.9 2.9 30.2 C 2.7 30.1 3.0 31.3 2.6 31.0 C 2.3 30.6 2.6 29.7 2.3 29.2 C 2.2 29.3 2.4 29.8 2.3 29.9 C 2.2 29.3 2.1 30.2 2.1 29.6 C 2.3 29.2 2.0 28.8 2.0 28.4 C 2.2 28.0 2.7 27.1 2.7 26.7 C 2.6 26.6 2.4 27.3 2.3 27.3 C 2.7 25.3 3.4 25.0 4.4 23.4 C 4.6 23.3 4.9 23.0 5.3 22.7 C 5.2 22.6 5.4 22.3 5.7 22.0 C 6.4 21.5 7.1 21.1 8.1 20.5 C 8.0 20.8 7.6 21.2 8.9 20.3 C 8.9 20.2 8.4 20.5 8.8 20.2 C 8.9 20.2 9.2 20.1 9.2 19.9 C 9.2 19.9 9.2 19.9 9.1 19.8 C 8.8 20.1 8.4 20.3 8.1 20.5 C 8.0 20.4 7.9 20.3 7.6 20.5 C 9.0 19.3 9.2 19.8 10.2 19.0 C 10.6 19.2 11.0 19.1 10.2 19.9 C 11.1 19.2 11.8 18.8 12.0 18.4 C 10.7 19.1 11.0 18.6 10.6 18.7 C 11.4 18.3 11.3 18.2 11.7 17.9 C 12.8 17.6 10.9 18.8 12.8 17.9 C 11.2 18.3 14.0 17.1 15.1 16.7 C 14.9 16.7 14.5 16.8 15.0 16.5 C 17.9 15.1 18.0 16.0 19.9 14.9 C 19.8 15.1 20.8 14.8 21.2 14.8 C 19.5 15.4 19.1 15.6 18.4 15.9 C 18.5 15.9 19.0 15.8 19.5 15.6 C 19.5 15.5 19.9 15.3 20.7 15.2 C 21.2 14.9 20.9 14.6 22.2 13.9 C 22.4 14.0 22.2 14.2 23.0 13.9 C 23.6 13.5 22.4 14.5 25.6 13.5 C 25.0 13.6 24.7 13.5 24.9 13.3 C 26.4 12.8 26.1 13.0 28.3 12.3 C 29.2 12.5 26.9 13.1 26.4 13.5 C 27.8 13.1 29.0 12.5 30.6 12.3 C 29.3 12.5 30.5 12.0 31.9 11.6 C 33.3 11.3 31.9 11.9 33.6 11.6 C 34.8 11.2 35.5 10.9 34.2 11.0 C 37.2 10.5 36.4 10.3 39.0 9.8 C 39.2 10.0 38.4 10.1 37.4 10.3 C 37.6 10.3 37.3 10.5 38.3 10.3 C 39.1 10.0 40.5 9.7 41.9 9.4 C 43.4 9.1 44.2 8.9 44.7 8.7 C 46.6 8.8 48.7 7.9 50.7 7.8 C 50.0 8.2 53.3 7.4 54.3 7.6 C 55.0 7.4 56.8 6.6 56.1 6.9 C 56.3 7.2 57.5 6.9 58.5 6.9 C 58.5 6.8 58.4 6.8 58.4 6.7 C 60.5 6.4 61.0 6.5 61.7 6.7 C 64.2 6.2 67.1 6.2 70.3 5.6 C 71.1 5.8 71.8 5.6 73.8 5.6 C 73.7 5.4 75.2 5.2 76.7 5.1 C 76.3 4.9 77.7 4.8 77.7 4.7 C 76.4 4.8 76.8 4.5 76.1 4.4 C 77.9 4.5 78.7 3.9 80.1 4.1 C 78.4 4.3 77.9 4.7 77.7 5.1 C 79.8 4.8 80.9 4.8 81.3 5.0 C 81.4 4.8 81.1 4.7 80.7 4.7 C 81.4 4.6 82.1 4.6 82.7 4.5 C 82.9 4.6 82.0 4.8 82.7 4.7 C 83.2 4.6 83.8 4.5 84.2 4.4 C 84.9 4.6 83.5 4.6 83.3 4.8 C 86.0 4.7 84.8 4.3 86.3 4.1 C 86.7 4.2 86.6 4.5 87.9 4.4 C 88.3 4.2 88.5 4.0 89.9 3.9 C 90.8 3.9 89.9 4.3 90.9 4.2 C 91.1 4.1 91.5 4.1 92.0 4.1 C 91.9 4.0 92.4 3.9 93.0 3.8 C 93.1 3.9 94.2 3.8 94.6 3.7 C 94.7 3.9 96.3 4.1 96.7 3.9 C 96.7 3.7 95.7 3.8 95.6 3.8 C 96.8 3.7 97.6 3.6 98.2 3.5 C 98.6 4.1 100.6 3.5 103.0 3.7 C 104.5 3.4 102.7 3.3 104.6 3.0 C 105.7 3.2 104.3 3.3 104.6 3.5 C 104.9 3.5 106.7 3.6 106.7 3.4 C 106.7 3.3 105.8 3.4 105.7 3.3 C 107.1 3.0 107.0 3.3 107.8 3.4 C 107.7 3.2 108.6 3.1 108.8 2.9 C 112.7 2.6 112.7 3.1 114.2 3.2 C 114.2 3.1 115.2 3.1 115.3 3.0 C 114.2 3.2 112.7 3.0 114.2 2.9 C 114.0 3.0 116.2 2.8 116.4 2.8 C 116.1 2.6 114.7 2.7 115.3 2.5 C 117.3 2.3 116.5 2.8 118.0 2.6 C 118.2 2.7 117.3 2.7 116.9 2.8 C 117.6 2.8 118.4 2.8 118.6 2.9 C 117.8 3.0 117.8 3.1 117.5 3.3 C 118.5 3.1 120.4 3.2 119.1 2.9 C 121.2 3.0 123.3 2.8 121.8 2.6 C 123.6 2.5 122.6 2.8 124.0 2.6 C 123.8 2.9 123.4 3.0 124.5 3.2 C 124.7 3.1 125.7 3.0 125.6 2.8 C 128.2 2.8 128.9 3.0 130.0 3.2 C 129.0 2.9 130.3 3.2 131.6 2.9 C 132.4 3.0 131.6 3.3 133.8 3.2 C 131.5 2.9 136.4 3.1 135.4 2.7 C 138.1 2.9 138.1 2.9 140.9 3.0 C 140.6 3.1 139.9 3.2 138.7 3.3 C 139.5 3.1 136.3 3.1 136.5 3.2 C 136.5 3.3 136.5 3.3 136.5 3.4 C 138.6 3.3 140.0 3.4 140.9 3.5 C 141.3 3.4 142.2 3.3 141.9 3.0 C 143.9 3.3 146.0 2.9 146.9 3.2 C 146.2 3.2 145.5 3.2 145.7 3.3 C 146.5 3.3 147.5 3.2 147.4 3.0 C 145.8 2.9 145.5 2.9 144.7 3.1 C 145.4 2.9 143.1 2.7 144.7 2.7 C 144.6 3.1 147.9 2.5 146.9 2.8 C 145.1 2.9 148.8 3.0 149.0 3.2 C 149.0 3.2 149.0 3.2 149.0 3.2 Z M 200.0 53.2 C 201.5 52.9 199.6 52.8 198.5 53.0 C 198.9 53.0 199.0 53.1 199.0 53.2 C 199.5 53.2 199.9 53.1 200.0 53.2 C 200.0 53.2 200.0 53.2 200.0 53.2 Z M 183.6 51.0 C 183.1 51.3 185.7 51.0 186.7 50.9 C 186.4 50.9 186.0 50.8 186.7 50.8 C 185.6 50.6 185.2 51.1 183.6 51.0 C 183.6 51.0 183.6 51.0 183.6 51.0 Z M 124.3 53.3 C 124.7 53.3 125.8 53.2 125.9 53.3 C 126.5 53.3 126.3 53.2 126.4 53.1 C 127.7 53.1 126.1 53.5 128.1 53.4 C 128.8 52.9 124.7 52.8 124.3 53.3 C 124.3 53.3 124.3 53.3 124.3 53.3 Z M 128.3 6.7 C 129.1 6.9 127.3 7.1 127.8 7.3 C 130.8 7.1 128.5 6.8 132.7 6.9 C 132.4 6.8 132.1 6.7 132.1 6.6 C 130.2 6.8 130.0 6.9 130.5 6.5 C 129.6 6.5 129.4 7.0 128.3 6.7 C 128.3 6.7 128.3 6.7 128.3 6.7 Z M 167.1 8.4 C 166.8 8.3 166.5 8.2 166.5 8.1 C 165.3 8.2 165.5 8.2 163.9 8.1 C 164.1 8.5 165.7 8.5 167.1 8.4 C 167.1 8.4 167.1 8.4 167.1 8.4 Z M 262.8 25.9 C 263.0 26.1 263.1 26.2 263.3 26.3 C 263.3 26.1 263.9 26.2 263.1 25.6 C 263.0 25.6 263.1 25.8 263.2 25.9 C 263.1 25.8 262.7 25.5 262.6 25.7 C 262.9 25.9 262.9 25.9 262.8 25.9 C 262.8 25.9 262.8 25.9 262.8 25.9 Z M 253.6 39.6 C 255.6 38.6 250.3 39.9 253.6 39.6 C 253.6 39.6 253.6 39.6 253.6 39.6 C 253.6 39.6 253.6 39.6 253.6 39.6 Z M 258.7 40.6 C 258.8 40.7 259.2 40.5 259.2 40.4 C 260.8 39.8 259.3 40.6 260.2 40.3 C 261.3 39.6 259.5 40.2 260.9 39.4 C 260.5 39.4 259.6 40.2 258.7 40.6 C 258.7 40.6 258.7 40.6 258.7 40.6 Z M 17.7 15.8 C 16.3 16.5 16.0 16.8 15.9 17.2 C 16.8 16.8 17.6 16.5 18.0 16.5 C 19.8 15.7 16.7 16.8 16.4 16.9 C 16.5 16.6 17.8 16.1 17.7 15.8 C 17.7 15.8 17.7 15.8 17.7 15.8 Z M 13.3 17.8 C 12.8 18.1 12.1 18.6 12.1 18.8 C 12.9 18.4 13.0 18.4 13.1 18.5 C 13.7 18.0 12.8 18.3 13.3 17.8 C 13.3 17.8 13.3 17.8 13.3 17.8 Z M 22.4 14.6 C 21.7 14.9 22.0 14.9 21.9 15.1 C 23.1 14.7 23.3 14.8 24.5 14.4 C 24.4 14.3 24.4 14.2 24.4 14.2 C 23.4 14.4 23.4 14.6 22.5 14.8 C 22.5 14.7 22.5 14.7 22.4 14.6 C 22.4 14.6 22.4 14.6 22.4 14.6 Z M 9.7 20.0 C 7.8 21.1 7.4 22.1 6.7 23.1 C 7.7 22.2 8.5 21.0 9.5 20.5 C 10.7 19.7 9.1 20.6 9.1 20.5 C 9.0 20.4 9.5 20.2 9.7 20.0 C 9.7 20.0 9.7 20.0 9.7 20.0 Z M 4.0 33.4 C 4.1 33.9 4.8 34.2 5.4 35.0 C 5.3 34.8 5.3 34.7 5.4 34.6 C 4.5 33.4 4.6 34.4 4.0 33.4 C 4.0 33.4 4.0 33.4 4.0 33.4 Z M 11.6 39.4 C 12.6 40.0 11.1 39.0 11.7 39.1 C 10.5 38.5 9.4 37.8 9.3 38.1 C 10.5 38.6 10.8 38.8 11.6 39.4 C 11.6 39.4 11.6 39.4 11.6 39.4 Z M 20.5 43.1 C 22.2 43.6 19.8 42.6 20.6 42.6 C 20.0 42.4 20.1 42.5 20.0 42.6 C 19.5 42.4 19.1 42.2 18.4 41.9 C 18.8 42.3 20.8 42.9 20.5 43.1 C 20.5 43.1 20.5 43.1 20.5 43.1 Z M 59.9 7.5 C 59.1 7.7 59.4 7.9 57.7 8.1 C 60.3 7.7 58.9 8.6 62.3 8.1 C 61.8 8.1 62.1 7.9 62.3 8.0 C 63.6 7.7 61.1 8.0 62.3 7.6 C 61.3 7.7 61.9 8.0 61.0 8.1 C 59.9 8.0 59.3 7.9 59.9 7.5 C 59.9 7.5 59.9 7.5 59.9 7.5 Z M 62.4 8.3 C 63.3 8.3 63.3 7.8 63.8 8.0 C 64.2 7.9 64.1 7.8 64.2 7.8 C 63.8 7.8 63.8 7.8 63.7 7.7 C 62.9 7.9 62.1 8.1 62.4 8.3 C 62.4 8.3 62.4 8.3 62.4 8.3 Z M 53.7 9.5 C 55.2 9.2 55.7 9.3 56.4 9.0 C 57.0 9.2 57.4 8.7 58.2 8.9 C 59.7 8.6 58.6 8.6 58.2 8.5 C 59.6 8.2 58.6 8.7 60.0 8.5 C 60.3 8.1 58.4 8.5 58.6 8.2 C 57.5 8.3 57.5 8.5 56.8 8.7 C 56.3 8.7 56.4 8.6 56.3 8.5 C 55.0 8.7 55.1 8.5 54.1 8.7 C 53.8 9.0 54.3 9.0 55.5 8.8 C 54.2 9.0 53.7 9.3 52.4 9.4 C 53.3 9.0 48.9 9.6 49.3 9.9 C 50.5 9.8 50.1 9.6 50.6 9.5 C 52.1 9.5 53.1 9.3 53.7 9.5 C 53.7 9.5 53.7 9.5 53.7 9.5 Z M 23.3 15.2 C 22.8 15.3 22.3 15.4 21.5 15.6 C 21.4 15.5 22.4 15.2 21.4 15.3 C 20.1 15.7 19.9 15.9 19.1 16.2 C 19.6 16.2 22.3 15.5 20.9 16.1 C 21.4 16.1 22.2 15.8 23.4 15.5 C 22.0 15.6 25.3 14.9 26.6 14.5 C 26.4 14.2 29.0 14.0 30.0 13.5 C 29.1 13.5 26.4 14.4 25.2 14.8 C 25.8 14.6 22.0 15.2 23.3 15.2 C 23.3 15.2 23.3 15.2 23.3 15.2 Z M 66.1 7.7 C 66.4 7.6 67.5 7.4 66.6 7.5 C 67.0 7.4 67.9 7.4 67.5 7.1 C 68.0 7.0 68.5 7.0 69.0 6.9 C 68.8 7.1 67.5 7.1 68.0 7.3 C 69.0 7.1 68.6 7.3 69.9 7.1 C 69.3 7.4 70.0 7.4 69.5 7.7 C 69.9 7.6 71.1 7.4 71.0 7.3 C 72.8 7.1 70.5 7.6 72.9 7.4 C 72.9 7.6 71.2 7.7 70.5 7.7 C 70.2 8.0 73.6 7.5 75.4 7.4 C 73.7 7.3 75.0 7.0 75.8 6.7 C 76.4 6.7 75.8 6.9 76.9 6.9 C 77.7 6.9 78.1 6.7 78.4 6.8 C 79.0 6.7 78.7 6.5 78.8 6.4 C 80.0 6.3 79.1 6.8 80.9 6.6 C 79.5 6.3 81.0 6.1 83.3 6.0 C 83.2 5.9 82.4 6.0 82.3 5.9 C 82.7 5.7 84.0 5.9 84.4 5.9 C 85.2 5.8 84.7 5.7 83.9 5.8 C 84.3 5.7 84.8 5.6 85.4 5.5 C 82.8 5.6 78.9 6.0 74.3 6.1 C 75.2 6.2 74.2 6.4 72.8 6.4 C 72.6 6.3 73.2 6.2 73.8 6.2 C 72.2 6.0 72.4 6.6 69.9 6.7 C 68.6 6.8 71.4 6.4 69.9 6.4 C 69.0 6.6 68.4 6.8 68.0 6.6 C 66.4 6.9 66.1 7.2 63.7 7.5 C 65.1 7.5 65.7 8.0 67.1 7.7 C 67.1 7.6 66.5 7.7 66.1 7.7 C 66.1 7.7 66.1 7.7 66.1 7.7 Z M 13.2 18.6 C 12.4 19.0 12.1 19.3 11.9 19.3 C 10.7 20.0 12.2 19.4 12.4 19.3 C 13.0 19.0 13.1 18.8 13.2 18.6 C 13.2 18.6 13.2 18.6 13.2 18.6 Z M 131.3 55.5 C 133.4 55.6 132.9 55.3 134.6 55.3 C 133.3 55.2 132.9 55.0 130.8 55.0 C 130.7 55.2 130.7 55.4 131.3 55.5 C 131.3 55.5 131.3 55.5 131.3 55.5 Z M 18.1 16.8 C 19.3 16.0 16.7 17.6 16.6 17.4 C 15.2 18.1 17.9 17.0 16.7 17.8 C 17.9 17.2 18.7 17.1 20.4 16.3 C 20.3 16.2 18.9 16.7 17.6 17.2 C 17.4 17.1 18.1 16.8 18.1 16.8 C 18.1 16.8 18.1 16.8 18.1 16.8 Z M 110.2 54.4 C 108.8 54.5 111.5 54.9 112.3 55.0 C 112.4 54.7 112.0 54.7 110.2 54.4 C 110.2 54.4 110.2 54.4 110.2 54.4 Z M 145.4 55.0 C 146.2 54.7 143.0 55.1 143.8 54.7 C 142.9 54.7 142.7 54.8 142.7 54.9 C 142.2 54.8 140.7 54.9 141.1 54.7 C 140.8 54.5 143.5 54.7 142.7 54.4 C 143.6 54.4 143.6 54.5 144.3 54.5 C 142.7 54.5 143.5 54.8 145.4 54.8 C 145.4 54.6 144.5 54.7 145.4 54.5 C 145.6 54.6 146.6 54.8 146.5 55.1 C 148.2 55.1 147.2 54.7 149.2 54.7 C 149.0 54.5 147.8 54.5 147.0 54.5 C 147.2 54.2 149.1 54.6 148.7 54.3 C 149.1 54.5 150.3 54.6 150.3 54.8 C 148.8 54.9 147.8 55.1 146.5 55.3 C 147.7 55.4 149.4 54.8 151.4 55.0 C 151.2 54.8 152.4 54.8 151.9 54.6 C 153.5 54.6 152.8 55.0 152.5 55.0 C 152.9 55.2 156.0 55.0 155.7 54.8 C 156.0 55.0 159.6 54.8 159.5 54.5 C 160.6 54.7 162.2 54.2 162.7 54.5 C 163.3 54.4 164.6 54.4 165.9 54.3 C 166.3 54.1 164.0 54.3 163.8 54.1 C 163.4 53.9 166.3 54.1 165.9 53.9 C 165.9 53.8 165.9 53.8 165.9 53.7 C 164.8 53.8 163.7 53.9 162.7 54.1 C 161.9 54.1 162.9 54.0 162.7 53.8 C 162.0 54.0 158.5 54.4 158.4 54.0 C 156.1 54.2 154.5 54.1 153.5 54.3 C 152.2 54.4 154.3 54.2 153.5 54.0 C 149.5 54.4 144.5 54.1 141.1 54.5 C 140.4 54.5 140.6 54.3 140.5 54.2 C 135.9 54.4 139.8 54.7 136.2 54.6 C 136.2 54.4 137.9 54.4 137.8 54.2 C 136.5 54.2 136.2 54.4 134.5 54.3 C 134.5 54.4 134.5 54.5 134.5 54.6 C 133.1 54.6 133.7 54.3 132.9 54.2 C 131.2 54.3 131.6 54.4 130.8 54.1 C 129.1 54.2 127.5 54.3 125.8 54.1 C 124.7 54.3 126.8 54.7 128.6 54.7 C 128.5 54.8 128.0 54.8 128.0 54.9 C 126.0 54.6 125.7 54.2 122.6 54.1 C 124.9 54.4 121.4 54.2 121.0 54.0 C 119.7 54.0 120.7 54.3 121.5 54.3 C 121.4 54.4 120.6 54.3 120.5 54.2 C 120.3 54.6 123.2 54.8 126.4 54.7 C 124.9 55.1 128.6 54.7 126.9 55.2 C 129.5 55.1 127.3 54.8 130.2 54.9 C 129.9 54.8 129.4 54.7 129.1 54.6 C 131.3 54.5 130.7 54.9 132.9 54.8 C 133.3 54.6 131.8 54.7 131.8 54.5 C 134.3 54.8 135.1 54.9 136.8 55.1 C 137.1 54.9 136.6 54.7 139.5 54.9 C 139.5 54.9 139.5 55.0 139.5 55.0 C 138.1 55.0 137.8 55.4 141.1 55.4 C 141.3 55.2 140.3 55.3 139.5 55.2 C 139.8 55.1 140.9 55.0 142.2 55.0 C 142.8 55.0 143.5 55.1 142.7 55.2 C 143.2 55.4 143.7 54.9 145.4 55.0 C 145.4 55.0 145.4 55.0 145.4 55.0 Z M 3.8 31.7 C 3.9 31.9 4.1 32.2 4.3 32.6 C 4.6 32.7 4.1 31.9 4.3 31.9 C 4.0 31.3 4.0 31.8 3.8 31.7 C 3.8 31.7 3.8 31.7 3.8 31.7 Z M 6.2 23.6 C 6.0 23.5 5.9 24.1 5.3 24.6 C 5.3 24.9 5.8 24.2 6.0 24.3 C 6.6 23.7 5.5 24.2 6.2 23.6 C 6.2 23.6 6.2 23.6 6.2 23.6 Z M 4.0 26.8 C 3.7 27.0 4.0 27.2 4.2 26.5 C 4.3 26.6 4.4 26.8 4.3 27.2 C 4.7 26.9 4.4 26.5 4.8 25.8 C 4.6 26.0 4.3 26.3 4.0 26.8 C 4.0 26.8 4.0 26.8 4.0 26.8 Z M 3.6 28.0 C 3.7 28.5 3.4 28.8 3.6 29.5 C 3.8 29.3 3.9 27.7 3.9 27.4 C 3.8 27.1 3.4 28.9 3.6 28.0 C 3.6 28.0 3.6 28.0 3.6 28.0 Z M 89.2 52.9 C 89.7 53.0 89.6 52.9 89.7 52.8 C 91.3 53.3 93.6 53.3 91.8 53.6 C 93.4 53.5 95.0 53.9 96.4 54.0 C 97.7 54.1 97.1 53.8 98.0 53.9 C 99.6 54.0 97.2 54.0 97.5 54.1 C 97.8 54.3 98.3 53.9 100.1 54.2 C 99.6 53.7 101.7 54.3 101.2 53.8 C 102.2 54.0 102.5 53.9 103.8 53.9 C 103.7 53.8 102.4 53.7 102.3 53.5 C 101.6 53.3 101.5 53.7 102.8 53.7 C 102.0 53.9 100.2 53.5 99.6 53.6 C 99.0 53.4 101.3 53.7 100.7 53.4 C 100.2 53.4 99.7 53.4 99.6 53.5 C 98.9 53.4 98.4 53.3 98.1 53.2 C 98.5 53.2 98.6 53.2 98.6 53.3 C 99.5 53.3 97.6 52.8 99.7 52.9 C 99.3 52.8 98.4 52.8 98.6 52.6 C 98.0 52.4 98.6 53.3 96.5 52.9 C 95.1 53.1 99.7 53.3 98.5 53.7 C 95.6 53.5 97.3 53.3 95.0 53.1 C 94.9 53.2 95.0 53.3 94.4 53.3 C 94.5 53.4 95.3 53.4 96.0 53.4 C 95.8 53.5 95.0 53.5 94.4 53.4 C 94.5 53.5 94.9 53.5 94.9 53.6 C 92.9 53.4 93.2 52.9 95.0 52.9 C 94.9 52.7 92.5 52.6 91.8 52.6 C 92.5 52.9 91.8 52.8 92.3 53.1 C 92.8 53.1 92.7 53.0 92.9 52.9 C 93.8 53.0 92.9 53.1 92.9 53.2 C 91.8 53.1 91.9 52.9 90.8 53.0 C 91.1 52.9 91.3 52.9 91.3 52.7 C 90.8 52.7 90.3 52.7 89.8 52.6 C 89.8 52.8 89.1 52.8 89.2 52.9 C 89.2 52.9 89.2 52.9 89.2 52.9 Z M 116.7 54.9 C 118.4 55.0 117.5 54.8 116.7 54.7 C 117.0 54.7 117.7 54.6 118.3 54.6 C 117.8 54.5 117.3 54.6 115.6 54.5 C 117.1 54.2 115.6 53.7 112.9 53.7 C 112.1 54.1 114.4 54.2 113.5 54.5 C 115.4 54.4 116.5 54.6 116.7 54.9 C 116.7 54.9 116.7 54.9 116.7 54.9 Z M 12.5 19.4 C 11.7 19.8 10.9 20.3 10.2 20.7 C 10.4 20.8 12.8 19.7 12.5 19.4 C 12.5 19.4 12.5 19.4 12.5 19.4 Z M 87.4 5.6 C 87.8 5.6 87.9 5.6 87.9 5.7 C 89.4 5.5 87.2 5.5 87.9 5.3 C 87.4 5.3 86.9 5.4 86.4 5.4 C 86.3 5.5 88.5 5.5 86.9 5.7 C 87.0 5.8 87.4 5.7 87.4 5.6 C 87.4 5.6 87.4 5.6 87.4 5.6 Z M 3.9 31.0 C 4.2 31.5 4.2 31.1 4.8 32.3 C 4.7 31.8 4.5 31.6 4.3 30.9 C 4.2 30.9 4.0 31.0 3.9 31.0 C 3.9 31.0 3.9 31.0 3.9 31.0 Z M 81.6 52.7 C 82.8 53.1 83.2 52.6 85.6 52.9 C 84.4 52.5 83.0 52.8 81.6 52.7 C 81.6 52.7 81.6 52.7 81.6 52.7 Z M 170.2 53.8 C 169.4 53.7 170.4 53.6 169.1 53.6 C 168.4 53.7 168.1 53.8 167.0 53.9 C 168.5 54.1 171.2 53.7 172.3 54.1 C 173.5 54.0 173.4 53.7 173.8 53.5 C 173.2 53.5 172.9 53.5 172.8 53.5 C 172.0 53.9 171.1 53.3 170.2 53.8 C 170.2 53.8 170.2 53.8 170.2 53.8 Z M 109.7 54.3 C 108.7 54.1 110.4 54.1 110.8 53.9 C 111.5 54.0 111.2 54.1 111.3 54.3 C 112.3 54.3 112.5 54.2 112.4 54.0 C 110.6 53.8 108.4 53.7 109.7 53.5 C 108.0 53.3 108.9 53.7 108.1 53.7 C 107.2 53.5 108.1 53.5 108.1 53.2 C 107.7 53.3 106.4 53.5 106.5 53.2 C 104.0 53.4 105.1 53.8 107.0 54.3 C 108.7 54.1 106.7 54.0 109.7 54.3 C 109.7 54.3 109.7 54.3 109.7 54.3 Z M 47.4 48.2 C 47.5 48.3 48.2 48.4 48.2 48.5 C 49.2 48.4 50.0 48.3 50.9 48.2 C 50.8 47.9 49.6 48.0 50.0 48.2 C 49.7 48.0 48.9 47.8 48.4 47.5 C 47.5 47.3 47.1 47.8 47.1 47.4 C 46.2 47.4 46.7 47.5 45.4 47.2 C 47.5 47.8 44.6 47.2 44.4 47.4 C 45.7 47.7 46.7 47.8 46.6 47.6 C 47.5 47.8 48.5 48.1 48.7 48.3 C 48.6 48.4 47.9 48.2 47.4 48.2 C 47.4 48.2 47.4 48.2 47.4 48.2 Z M 52.7 48.3 C 52.3 48.3 52.0 48.3 51.4 48.2 C 51.7 48.3 51.8 48.4 51.8 48.6 C 52.9 48.7 53.2 48.6 53.5 48.9 C 54.6 49.1 53.3 48.5 54.9 48.9 C 54.8 48.8 54.0 48.7 54.0 48.6 C 53.9 48.7 53.2 48.7 52.7 48.3 C 52.7 48.3 52.7 48.3 52.7 48.3 Z M 66.9 50.7 C 68.1 50.8 66.2 50.4 66.9 50.3 C 66.6 50.3 64.2 50.0 64.6 49.8 C 63.9 49.4 61.5 49.8 61.8 49.4 C 61.2 49.3 61.4 49.5 61.3 49.6 C 62.9 49.7 62.9 49.9 61.7 49.8 C 61.9 49.9 62.9 50.0 63.6 50.1 C 63.7 50.0 63.1 49.9 63.2 49.7 C 64.6 50.0 65.6 50.3 66.9 50.7 C 66.9 50.7 66.9 50.7 66.9 50.7 Z M 145.7 4.4 C 144.4 4.4 143.6 4.4 143.0 4.5 C 143.3 4.6 144.0 4.5 144.6 4.5 C 144.8 4.6 144.2 4.6 143.5 4.6 C 144.1 4.9 146.4 4.7 145.7 4.4 C 145.7 4.4 145.7 4.4 145.7 4.4 Z M 134.8 4.4 C 133.6 4.4 132.8 4.4 132.6 4.6 C 133.1 4.7 133.0 4.5 133.8 4.5 C 134.2 4.5 134.6 4.6 134.8 4.7 C 135.3 4.7 135.2 4.6 135.4 4.5 C 135.8 4.5 135.9 4.6 135.9 4.6 C 137.4 4.4 134.2 4.7 134.8 4.4 C 134.8 4.4 134.8 4.4 134.8 4.4 Z M 59.0 49.5 C 58.6 49.3 58.3 49.2 57.2 49.0 C 57.4 49.2 56.5 49.1 55.8 49.0 C 56.8 49.3 57.4 49.3 59.0 49.5 C 59.0 49.5 59.0 49.5 59.0 49.5 Z M 69.5 7.9 C 68.1 7.8 68.2 8.2 66.2 8.3 C 66.2 8.3 66.2 8.4 66.2 8.5 C 67.4 8.2 68.0 8.2 69.5 7.9 C 69.5 7.9 69.5 7.9 69.5 7.9 Z M 268.4 32.1 C 268.2 32.0 267.9 32.7 267.7 32.7 C 267.9 33.1 267.3 33.0 266.0 34.4 C 265.9 34.3 266.0 34.2 266.2 34.0 C 265.0 35.0 266.6 33.9 266.9 33.9 C 267.7 33.1 267.9 33.0 268.4 32.1 C 268.4 32.1 268.4 32.1 268.4 32.1 Z M 154.1 53.6 C 154.0 53.7 154.3 53.7 154.6 53.7 C 155.0 53.7 155.3 53.7 155.7 53.7 C 155.5 53.3 153.8 53.2 155.1 52.9 C 154.6 52.9 154.6 52.9 154.6 53.0 C 152.0 53.7 149.9 52.6 146.5 53.1 C 146.0 53.1 146.1 53.2 146.0 53.3 C 146.4 53.3 146.4 53.3 146.5 53.4 C 146.9 53.0 150.0 53.3 148.7 53.5 C 148.8 53.6 149.2 53.5 149.2 53.5 C 149.5 53.5 149.9 53.5 150.3 53.5 C 150.1 53.4 149.3 53.3 149.2 53.2 C 150.9 53.3 153.0 53.3 151.9 53.7 C 153.0 53.6 153.3 53.5 154.1 53.4 C 154.8 53.4 154.8 53.6 154.1 53.6 C 154.1 53.6 154.1 53.6 154.1 53.6 Z M 168.0 53.1 C 169.6 53.1 169.0 52.8 170.6 52.8 C 169.6 52.6 168.3 53.0 166.9 52.9 C 167.1 53.0 167.9 53.0 168.0 53.1 C 168.0 53.1 168.0 53.1 168.0 53.1 Z M 136.8 53.4 C 137.1 53.1 135.6 53.1 134.0 53.1 C 133.7 53.4 135.1 53.4 136.8 53.4 C 136.8 53.4 136.8 53.4 136.8 53.4 Z M 143.8 53.4 C 145.4 53.3 141.8 53.3 142.7 53.1 C 141.9 53.1 141.1 53.1 141.1 53.0 C 140.5 53.1 140.5 53.2 139.5 53.2 C 139.5 53.3 141.3 53.2 141.1 53.4 C 142.3 53.2 142.5 53.2 143.8 53.4 C 143.8 53.4 143.8 53.4 143.8 53.4 Z M 144.8 53.4 C 145.9 53.3 144.6 52.9 143.3 52.9 C 143.7 53.1 144.1 53.3 144.8 53.4 C 144.8 53.4 144.8 53.4 144.8 53.4 Z M 20.1 40.5 C 20.9 40.7 20.4 40.3 21.3 40.6 C 21.3 40.5 18.0 39.4 20.8 40.3 C 19.9 39.6 19.2 39.9 18.1 39.4 C 18.4 39.6 18.7 39.8 18.0 39.5 C 17.6 39.6 20.6 40.4 20.1 40.5 C 20.1 40.5 20.1 40.5 20.1 40.5 Z M 23.6 41.6 C 24.3 41.8 23.9 41.6 23.6 41.5 C 23.7 41.5 24.7 41.8 25.5 42.0 C 25.5 42.1 24.2 41.3 24.4 41.1 C 21.2 40.3 23.5 41.3 23.6 41.6 C 23.6 41.6 23.6 41.6 23.6 41.6 Z M 26.7 42.3 C 28.8 43.2 32.1 43.9 33.8 44.1 C 32.1 43.3 27.8 42.3 26.7 42.3 C 26.7 42.3 26.7 42.3 26.7 42.3 Z M 10.7 35.9 C 12.4 37.4 17.4 39.3 13.3 37.0 C 13.4 37.3 10.8 35.9 9.9 35.1 C 9.8 35.2 8.6 34.6 8.7 34.5 C 7.9 34.1 11.0 36.4 10.7 35.9 C 10.7 35.9 10.7 35.9 10.7 35.9 Z M 37.0 44.3 C 35.7 44.1 37.3 44.9 35.3 44.3 C 34.2 44.1 35.6 44.5 35.3 44.5 C 37.7 45.1 43.1 45.8 43.6 46.2 C 44.9 46.4 44.7 46.1 45.9 46.4 C 46.0 46.3 45.7 46.3 43.1 45.9 C 40.5 45.4 37.9 44.8 37.0 44.4 C 37.2 44.3 40.3 45.0 37.0 44.3 C 37.0 44.3 37.0 44.3 37.0 44.3 Z M 69.7 9.3 C 69.8 9.1 67.8 9.5 68.2 9.2 C 67.2 9.6 66.1 9.5 65.0 9.9 C 64.6 9.8 64.7 9.5 63.0 9.6 C 63.0 9.8 63.8 9.7 63.1 9.9 C 61.6 10.1 62.0 9.8 60.3 10.1 C 60.6 10.5 56.7 10.7 57.1 11.0 C 58.0 10.9 57.9 10.7 59.4 10.6 C 59.9 10.5 59.7 10.7 60.3 10.6 C 59.9 10.9 59.1 10.6 58.5 10.9 C 58.7 11.1 59.8 10.9 59.9 11.1 C 60.6 10.9 59.7 11.0 59.9 10.8 C 61.7 10.5 59.8 11.4 61.8 11.1 C 61.4 10.9 61.4 10.9 61.7 10.6 C 62.5 10.6 64.9 10.1 63.6 10.6 C 63.8 10.7 65.2 10.3 65.0 10.2 C 65.8 10.1 65.9 10.1 65.9 10.2 C 68.0 9.9 68.2 9.7 67.8 9.5 C 68.2 9.2 68.5 9.6 69.7 9.3 C 69.7 9.3 69.7 9.3 69.7 9.3 Z M 5.7 29.3 C 5.5 28.8 5.7 29.8 5.8 30.3 C 5.7 29.7 6.0 29.8 6.1 29.3 C 6.0 29.5 5.9 29.4 5.9 29.0 C 5.8 28.9 5.7 29.8 5.7 29.3 C 5.7 29.3 5.7 29.3 5.7 29.3 Z M 48.5 46.8 C 48.9 47.1 51.2 47.3 52.4 47.5 C 52.2 47.1 49.2 47.2 48.9 46.7 C 48.3 46.6 49.3 46.9 48.5 46.8 C 48.5 46.8 48.5 46.8 48.5 46.8 Z M 52.2 11.3 C 51.7 11.4 52.0 11.4 52.2 11.3 C 52.1 11.5 51.1 11.6 50.4 11.7 C 51.4 11.7 50.3 12.0 50.5 12.2 C 50.0 12.2 49.8 12.3 49.7 12.4 C 49.6 12.0 47.0 13.1 49.7 12.7 C 49.2 12.5 49.4 12.5 50.5 12.3 C 51.8 12.2 52.7 11.9 53.2 12.1 C 54.0 11.9 54.3 11.7 55.4 11.6 C 55.7 11.8 56.7 11.7 55.9 12.2 C 57.9 11.9 56.5 11.5 58.1 11.2 C 59.7 11.2 57.3 11.6 57.7 11.8 C 58.1 11.7 58.0 11.8 58.2 11.9 C 58.8 11.8 58.7 11.5 58.2 11.6 C 58.3 11.5 59.9 11.1 59.5 11.4 C 60.4 11.2 58.0 10.9 56.7 11.3 C 56.0 11.5 55.9 11.0 56.7 10.9 C 56.4 10.8 55.0 11.5 55.3 11.0 C 54.7 11.1 54.1 11.1 53.5 11.2 C 53.6 11.3 54.0 11.2 54.0 11.3 C 53.4 11.4 52.8 11.5 52.2 11.6 C 52.7 11.4 52.7 11.3 52.2 11.3 C 52.2 11.3 52.2 11.3 52.2 11.3 Z M 41.9 45.6 C 44.0 46.0 44.3 45.9 45.2 46.0 C 45.0 45.9 44.6 45.8 43.5 45.6 C 42.3 45.4 41.4 45.4 41.9 45.6 C 41.9 45.6 41.9 45.6 41.9 45.6 Z M 78.1 9.2 C 77.9 9.1 77.1 9.3 77.1 9.1 C 78.6 8.9 76.9 9.0 78.0 8.4 C 76.1 8.8 75.4 9.4 78.1 9.4 C 80.0 9.2 76.1 9.4 78.1 9.2 C 78.1 9.2 78.1 9.2 78.1 9.2 Z M 72.2 9.6 C 71.0 9.9 74.0 9.7 74.7 9.7 C 74.7 9.8 74.7 9.9 74.7 9.9 C 76.3 9.4 74.1 9.5 75.5 8.9 C 73.6 9.0 72.8 9.0 71.2 9.3 C 71.3 9.3 71.6 9.2 71.6 9.2 C 72.9 9.1 72.1 9.5 70.7 9.5 C 71.1 9.6 72.3 9.5 73.1 9.4 C 72.9 9.4 72.6 9.4 72.6 9.3 C 73.7 9.1 73.3 9.3 74.1 9.3 C 74.1 9.4 72.2 9.8 72.2 9.6 C 72.2 9.6 72.2 9.6 72.2 9.6 Z M 176.1 7.2 C 175.0 7.2 177.2 7.6 177.1 8.0 C 178.2 8.1 178.4 8.0 179.1 8.0 C 178.8 7.9 177.6 7.8 177.1 7.6 C 177.3 7.3 178.7 7.8 179.2 7.6 C 179.9 7.2 176.5 7.5 176.1 7.2 C 176.1 7.2 176.1 7.2 176.1 7.2 Z M 23.5 17.9 C 22.8 18.1 23.2 18.0 23.5 18.0 C 23.4 18.1 22.4 18.4 22.4 18.3 C 21.5 18.6 22.9 18.3 21.8 18.6 C 21.7 18.9 23.5 18.1 23.5 18.0 C 24.8 17.6 23.9 18.2 24.3 18.2 C 25.4 17.9 24.9 17.8 26.7 17.3 C 25.6 17.5 24.7 17.6 23.5 17.9 C 23.5 17.9 23.5 17.9 23.5 17.9 Z M 81.5 8.4 C 81.7 8.3 80.4 8.9 79.0 8.8 C 77.3 9.0 80.1 9.0 78.6 9.1 C 79.9 9.0 81.5 8.7 83.5 8.5 C 84.0 8.3 80.7 8.7 82.5 8.4 C 82.4 8.3 82.0 8.4 82.0 8.5 C 81.6 8.5 81.6 8.5 81.5 8.4 C 81.5 8.4 81.5 8.4 81.5 8.4 Z M 79.6 9.2 C 79.7 9.2 80.1 9.2 80.1 9.1 C 80.7 9.1 80.7 9.3 80.1 9.4 C 81.0 9.6 80.9 9.1 82.6 9.1 C 81.8 8.9 81.5 8.8 83.1 8.9 C 84.3 8.5 80.1 9.0 79.6 9.2 C 79.6 9.2 79.6 9.2 79.6 9.2 Z M 159.2 6.6 C 159.3 6.8 160.5 6.8 161.3 6.8 C 160.2 7.0 155.9 6.7 155.4 6.5 C 154.9 6.6 154.4 6.6 154.3 6.5 C 154.3 6.6 153.1 6.7 153.8 6.7 C 153.6 6.8 152.7 6.8 152.7 6.9 C 151.1 6.8 153.2 6.7 152.7 6.6 C 150.8 6.7 151.2 6.6 148.9 6.5 C 149.3 6.7 151.8 6.7 151.6 7.0 C 153.4 6.8 155.3 7.0 156.4 7.3 C 154.7 6.9 161.0 6.9 163.9 7.1 C 163.8 7.2 164.9 7.2 166.0 7.4 C 166.9 7.6 166.6 7.1 165.0 7.2 C 165.1 7.0 167.2 7.2 168.2 7.2 C 167.1 7.0 167.7 7.0 167.2 6.9 C 165.1 6.8 166.9 6.9 166.6 7.1 C 166.1 7.1 165.5 7.0 165.0 7.0 C 167.8 6.7 160.9 6.8 163.4 6.9 C 161.2 6.8 161.2 6.6 159.2 6.6 C 159.2 6.6 159.2 6.6 159.2 6.6 Z M 108.5 6.8 C 108.1 6.8 106.4 7.1 106.4 6.9 C 104.2 7.2 106.1 7.3 103.7 7.4 C 103.8 7.5 104.8 7.4 104.8 7.5 C 105.7 7.4 106.6 7.3 106.4 7.0 C 107.4 7.0 107.8 6.9 108.5 6.9 C 108.2 7.0 107.8 7.1 106.9 7.1 C 106.7 7.3 107.1 7.4 108.5 7.3 C 109.1 7.1 108.7 6.9 108.5 6.8 C 108.5 6.8 108.5 6.8 108.5 6.8 Z M 103.2 7.3 C 102.9 7.3 102.6 7.2 102.6 7.1 C 101.9 6.9 102.4 7.4 101.6 7.5 C 101.0 7.5 101.2 7.4 101.1 7.3 C 100.1 7.4 99.4 7.5 99.0 7.4 C 97.5 7.6 100.6 7.5 101.1 7.6 C 102.1 7.5 101.7 7.3 103.2 7.3 C 103.2 7.3 103.2 7.3 103.2 7.3 Z M 87.6 8.0 C 87.3 7.8 86.8 8.2 86.1 8.2 C 86.6 8.4 88.1 8.2 87.1 8.6 C 88.6 8.5 88.7 8.5 90.2 8.3 C 91.2 8.5 90.2 8.1 88.6 8.4 C 88.8 8.2 89.5 8.2 89.6 8.0 C 90.7 8.5 93.2 7.5 91.7 8.0 C 91.2 8.0 90.9 7.9 90.7 7.8 C 90.3 8.0 86.8 8.2 87.6 8.0 C 87.6 8.0 87.6 8.0 87.6 8.0 Z M 38.3 14.6 C 39.9 14.3 40.8 14.1 41.6 13.9 C 42.5 13.8 43.8 13.5 44.6 13.4 C 44.7 13.5 44.6 13.6 44.3 13.6 C 44.7 13.7 45.2 13.5 45.9 13.4 C 45.8 13.3 45.5 13.4 45.5 13.4 C 44.1 13.5 45.3 13.3 45.4 13.0 C 43.8 13.1 40.6 14.2 39.1 14.2 C 37.9 14.5 39.3 14.2 38.3 14.6 C 38.3 14.6 38.3 14.6 38.3 14.6 Z M 266.9 30.5 C 266.9 30.6 266.8 30.9 267.0 30.9 C 267.1 30.6 267.1 30.4 267.1 30.2 C 266.9 30.6 266.6 30.4 266.3 31.0 C 266.5 30.9 266.8 31.0 266.9 30.5 C 266.9 30.5 266.9 30.5 266.9 30.5 Z M 92.7 7.8 C 92.8 7.9 92.8 8.0 92.2 8.0 C 92.1 8.2 93.7 8.0 93.8 8.2 C 94.3 8.1 94.1 8.0 94.8 7.9 C 94.6 7.8 93.2 8.0 93.7 7.7 C 94.2 7.7 94.2 7.7 94.3 7.7 C 95.4 7.6 93.7 7.6 92.7 7.8 C 92.7 7.8 92.7 7.8 92.7 7.8 Z M 181.2 7.8 C 180.5 7.8 181.2 7.9 181.8 8.0 C 180.3 8.1 182.7 8.4 182.7 8.7 C 182.1 8.4 180.0 8.4 179.7 8.3 C 179.1 8.3 179.8 8.6 178.1 8.5 C 178.3 8.8 180.1 8.7 179.7 8.5 C 180.1 8.8 181.9 8.6 181.7 8.8 C 184.0 9.1 184.6 8.9 184.8 8.7 C 182.6 8.6 183.7 8.3 181.8 8.2 C 181.8 8.1 182.4 8.2 182.8 8.2 C 182.6 8.0 181.8 7.9 181.2 7.8 C 181.2 7.8 181.2 7.8 181.2 7.8 Z M 125.6 6.5 C 124.4 6.5 124.5 6.7 124.5 6.9 C 125.0 6.8 125.7 6.8 126.7 6.8 C 126.5 6.6 125.0 6.7 125.6 6.5 C 125.6 6.5 125.6 6.5 125.6 6.5 Z M 172.9 7.6 C 172.8 7.5 172.4 7.5 172.4 7.6 C 171.1 7.5 170.7 7.4 170.3 7.2 C 169.6 7.2 169.8 7.4 169.8 7.5 C 171.0 7.4 170.7 7.7 172.4 7.7 C 172.3 7.6 172.5 7.6 172.9 7.6 C 172.9 7.6 172.9 7.6 172.9 7.6 Z M 137.0 6.5 C 136.4 6.6 136.7 6.6 137.0 6.6 C 136.2 6.9 134.0 6.7 133.2 6.8 C 133.1 7.0 135.8 6.9 132.7 7.0 C 133.2 7.2 136.1 7.1 137.5 7.1 C 137.2 7.3 135.2 7.3 135.4 7.6 C 137.0 7.4 138.9 7.3 139.2 6.9 C 136.7 6.9 137.6 6.7 137.0 6.5 C 137.0 6.5 137.0 6.5 137.0 6.5 Z M 139.7 6.7 C 139.5 6.6 139.0 6.7 138.1 6.7 C 139.4 7.0 140.2 6.9 143.0 7.0 C 143.0 6.9 143.0 6.9 143.0 6.8 C 143.5 6.8 144.1 6.8 144.6 6.8 C 142.2 6.5 141.6 6.7 139.2 6.8 C 139.0 6.7 139.4 6.7 139.7 6.7 C 139.7 6.7 139.7 6.7 139.7 6.7 Z M 69.8 10.0 C 70.4 10.1 71.0 10.2 72.2 10.1 C 72.1 9.9 71.4 9.8 69.8 10.0 C 69.8 10.0 69.8 10.0 69.8 10.0 Z M 175.0 7.9 C 176.4 7.8 173.6 7.8 174.5 8.1 C 175.6 8.3 176.8 8.4 177.0 8.6 C 179.1 8.4 174.7 8.2 175.0 7.9 C 175.0 7.9 175.0 7.9 175.0 7.9 Z M 165.5 8.0 C 164.9 7.9 164.9 7.6 165.5 7.8 C 167.0 7.9 164.2 7.6 166.6 7.7 C 165.6 7.6 163.3 7.4 162.3 7.5 C 162.3 7.7 164.4 7.7 164.4 7.9 C 164.5 7.9 164.2 7.9 163.9 7.9 C 164.1 8.1 164.6 7.9 165.5 8.0 C 165.5 8.0 165.5 8.0 165.5 8.0 Z M 157.5 7.3 C 158.4 7.5 159.4 7.6 161.3 7.7 C 160.1 7.5 159.4 7.2 157.5 7.3 C 157.5 7.3 157.5 7.3 157.5 7.3 Z M 256.8 21.6 C 255.7 21.1 256.6 21.8 256.7 21.9 C 257.8 22.4 257.8 22.2 258.9 22.8 C 258.6 22.4 257.4 22.1 256.8 21.6 C 256.8 21.6 256.8 21.6 256.8 21.6 Z M 260.3 23.4 C 260.4 23.6 261.6 24.2 261.5 24.4 C 262.4 24.4 262.8 25.6 263.0 25.3 C 263.1 25.4 263.3 25.6 263.6 25.9 C 263.3 25.0 261.4 24.0 260.3 23.4 C 260.3 23.4 260.3 23.4 260.3 23.4 Z M 148.3 7.6 C 146.9 7.5 148.7 8.0 147.3 7.9 C 147.2 8.0 150.0 8.1 148.3 8.1 C 150.5 8.4 148.2 7.7 148.3 7.6 C 148.3 7.6 148.3 7.6 148.3 7.6 Z M 121.9 7.9 C 122.0 7.7 120.0 7.9 119.2 7.9 C 119.2 8.0 119.8 7.9 120.3 7.9 C 120.0 8.0 119.8 8.1 119.2 8.1 C 119.6 8.3 121.1 7.9 121.9 7.9 C 121.9 7.9 121.9 7.9 121.9 7.9 Z M 151.1 3.5 C 152.0 3.7 153.2 3.9 153.8 3.6 C 154.8 3.8 153.2 3.9 154.3 4.0 C 155.9 3.9 155.1 4.2 157.6 4.1 C 157.1 4.4 158.9 4.4 159.2 4.6 C 158.2 4.7 157.0 4.3 156.5 4.6 C 157.3 4.6 156.8 4.8 156.5 4.6 C 154.9 4.5 158.5 4.4 156.5 4.2 C 155.9 4.5 153.0 3.8 151.1 3.8 C 151.9 3.6 149.7 3.5 151.1 3.5 C 151.1 3.5 151.1 3.5 151.1 3.5 Z M 160.8 4.2 C 162.1 4.3 162.8 4.8 162.4 4.7 C 162.4 4.6 160.9 4.6 160.8 4.7 C 161.1 4.7 161.5 4.7 161.4 4.8 C 159.0 4.7 159.8 4.5 159.2 4.3 C 160.5 4.3 160.9 4.4 161.4 4.3 C 161.1 4.3 160.7 4.3 160.8 4.2 C 160.8 4.2 160.8 4.2 160.8 4.2 Z M 188.3 9.7 C 188.1 9.6 187.8 9.7 187.3 9.7 C 187.2 9.4 184.6 9.6 184.2 9.4 C 184.9 9.3 186.2 9.4 186.8 9.4 C 186.1 9.3 186.0 9.2 185.3 9.3 C 185.4 9.0 186.9 9.1 187.3 9.0 C 187.5 9.2 188.2 9.0 188.4 9.2 C 186.4 9.1 189.4 9.8 188.3 9.7 C 188.3 9.7 188.3 9.7 188.3 9.7 Z M 135.9 7.8 C 135.7 8.1 138.0 8.6 135.9 8.9 C 135.5 8.7 135.2 8.5 135.4 8.2 C 134.0 8.4 133.5 8.1 132.7 8.4 C 130.2 7.7 134.6 8.5 135.9 7.8 C 135.9 7.8 135.9 7.8 135.9 7.8 Z M 127.2 8.1 C 127.7 7.9 126.5 7.9 126.7 7.7 C 127.8 7.9 131.1 7.6 130.0 7.8 C 128.9 7.9 128.9 8.1 127.2 8.1 C 127.2 8.1 127.2 8.1 127.2 8.1 Z M 75.8 50.0 C 74.2 50.0 73.4 49.5 74.3 49.4 C 73.9 49.7 76.3 49.7 75.8 50.0 C 75.8 50.0 75.8 50.0 75.8 50.0 Z M 12.5 40.8 C 13.7 41.6 14.6 41.8 14.7 42.1 C 13.3 41.5 13.5 41.4 12.4 40.9 C 12.3 41.0 11.6 40.8 11.5 40.6 C 12.1 40.9 12.1 40.7 12.5 40.8 C 12.5 40.8 12.5 40.8 12.5 40.8 Z M 94.6 3.6 C 94.4 3.5 93.8 3.5 94.0 3.3 C 95.6 3.4 97.4 3.1 98.7 2.8 C 98.7 2.9 98.7 3.0 98.7 3.1 C 96.2 3.2 95.6 3.4 94.6 3.6 C 94.6 3.6 94.6 3.6 94.6 3.6 Z M 91.4 3.4 C 91.1 3.5 92.0 3.7 90.9 3.8 C 90.9 3.6 89.0 3.5 89.9 3.4 C 90.2 3.5 90.7 3.5 91.4 3.4 C 91.4 3.4 91.4 3.4 91.4 3.4 Z M 181.4 4.6 C 182.7 4.6 180.9 4.3 181.0 4.2 C 181.9 4.3 183.1 4.4 183.5 4.6 C 182.6 4.5 181.9 4.8 181.4 4.6 C 181.4 4.6 181.4 4.6 181.4 4.6 Z M 161.9 4.2 C 159.1 4.1 160.3 3.7 157.6 3.6 C 158.7 3.4 161.2 3.6 161.9 3.4 C 161.8 3.5 162.5 3.6 162.4 3.7 C 161.4 3.7 161.3 3.6 160.3 3.6 C 160.7 3.8 160.7 3.7 160.3 4.0 C 161.0 4.0 161.5 4.0 161.9 3.9 C 161.7 4.1 162.7 4.2 161.9 4.2 C 161.9 4.2 161.9 4.2 161.9 4.2 Z M 180.9 5.2 C 182.0 5.2 182.9 5.6 181.9 5.5 C 181.8 5.3 181.1 5.5 180.9 5.3 C 182.4 5.4 179.7 5.1 180.4 5.0 C 181.3 5.1 181.6 5.0 181.4 4.8 C 182.0 4.9 182.9 4.9 183.0 5.0 C 182.6 5.0 182.0 4.9 182.0 5.0 C 182.3 5.0 182.6 5.1 182.5 5.1 C 181.6 5.1 181.2 5.1 180.9 5.2 C 180.9 5.2 180.9 5.2 180.9 5.2 Z M 173.6 4.8 C 175.0 4.9 175.2 5.1 175.7 5.3 C 173.8 5.1 173.5 4.7 172.0 4.5 C 173.6 4.7 175.2 4.4 175.7 4.6 C 175.0 4.7 173.7 4.6 173.6 4.8 C 173.6 4.8 173.6 4.8 173.6 4.8 Z M 211.3 50.1 C 210.2 50.1 209.3 50.1 208.0 50.1 C 207.6 50.4 210.0 50.6 209.0 50.6 C 207.7 50.8 208.5 50.3 207.5 50.4 C 208.6 50.6 203.0 51.3 202.7 50.9 C 203.6 50.9 203.9 50.7 203.7 50.6 C 205.9 50.4 206.8 50.1 208.4 49.8 C 209.7 50.0 213.1 49.6 214.9 49.1 C 216.2 49.4 218.3 48.6 219.9 48.7 C 220.4 48.5 218.6 48.6 219.9 48.4 C 220.8 48.5 220.1 48.7 221.3 48.7 C 221.4 48.5 221.1 48.4 221.7 48.3 C 221.6 48.4 222.4 48.3 222.6 48.4 C 220.2 48.7 222.8 48.7 220.9 49.0 C 220.1 49.0 221.7 48.5 219.5 48.8 C 218.8 49.0 218.0 49.2 218.2 49.4 C 217.6 49.5 217.3 49.6 216.9 49.7 C 217.7 49.3 213.8 50.2 215.5 49.7 C 215.6 49.6 216.9 49.5 217.8 49.3 C 216.9 49.1 216.0 49.4 214.6 49.7 C 213.9 49.6 214.8 49.4 214.1 49.4 C 213.0 49.8 214.5 49.7 213.7 50.0 C 214.0 49.9 214.6 49.9 214.6 49.9 C 212.6 50.0 211.9 50.3 210.9 50.4 C 211.5 50.2 209.7 50.4 211.3 50.1 C 211.3 50.1 211.3 50.1 211.3 50.1 Z M 227.3 47.4 C 227.8 47.4 228.2 47.3 228.6 47.2 C 228.7 47.4 227.1 47.8 228.3 47.8 C 226.4 48.1 228.3 47.5 227.3 47.4 C 227.3 47.4 227.3 47.4 227.3 47.4 Z M 218.5 47.9 C 217.8 47.8 218.2 48.3 217.6 48.4 C 218.7 48.2 219.7 48.0 219.9 48.2 C 218.6 48.3 218.0 48.4 216.7 48.7 C 218.0 48.2 215.3 48.6 214.8 48.4 C 215.8 48.2 216.6 48.0 218.0 47.8 C 217.8 47.9 219.8 47.7 218.5 47.9 C 218.5 47.9 218.5 47.9 218.5 47.9 Z M 222.0 47.1 C 222.3 47.2 224.2 46.8 223.8 47.1 C 222.6 47.3 222.2 47.4 222.5 47.6 C 221.7 47.7 221.5 47.6 220.7 47.8 C 220.2 47.6 221.6 47.4 222.0 47.2 C 221.7 47.2 221.5 47.2 222.0 47.1 C 222.0 47.1 222.0 47.1 222.0 47.1 Z M 262.5 34.1 C 262.9 34.1 261.6 34.8 261.3 34.9 C 261.8 34.9 261.7 35.0 260.9 35.6 C 261.1 35.1 259.8 35.9 258.8 36.0 C 258.6 36.4 259.9 35.9 258.5 36.6 C 257.4 37.0 256.4 37.6 254.4 38.4 C 253.9 38.3 254.7 37.9 255.2 37.6 C 253.9 38.2 254.2 37.9 253.1 38.2 C 253.4 38.3 252.5 38.7 252.1 38.7 C 254.0 37.9 249.5 39.3 251.5 38.5 C 251.6 38.5 252.1 38.3 252.5 38.1 C 252.1 38.6 254.6 37.6 255.2 37.6 C 255.9 36.7 258.4 35.9 260.5 35.0 C 260.7 35.0 260.1 35.4 260.6 35.2 C 260.6 35.0 261.3 34.7 261.5 34.5 C 261.6 34.6 261.9 34.5 262.3 34.3 C 262.3 34.2 262.3 34.2 262.5 34.1 C 262.5 34.1 262.5 34.1 262.5 34.1 Z M 125.9 51.6 C 126.0 51.2 122.5 51.3 121.6 51.4 C 121.7 51.0 127.8 51.2 125.9 51.6 C 125.9 51.6 125.9 51.6 125.9 51.6 Z M 147.0 51.3 C 146.1 51.3 146.7 51.5 145.9 51.5 C 145.9 51.3 143.8 51.8 143.8 51.5 C 144.8 51.3 145.4 51.3 147.0 51.3 C 147.0 51.3 147.0 51.3 147.0 51.3 Z M 166.3 50.8 C 164.8 50.9 167.2 50.9 166.8 51.0 C 165.5 51.1 164.1 51.1 164.2 50.9 C 165.4 51.0 166.2 50.6 166.3 50.8 C 166.3 50.8 166.3 50.8 166.3 50.8 Z M 137.3 51.1 C 136.0 51.0 138.1 50.7 138.3 50.9 C 136.9 50.9 139.3 51.1 140.5 51.0 C 140.4 51.3 139.9 51.2 140.5 51.5 C 138.6 51.6 140.2 51.2 138.9 51.3 C 138.0 51.4 138.9 51.4 138.9 51.6 C 138.3 51.6 137.8 51.6 137.3 51.6 C 137.3 51.4 137.3 51.3 137.3 51.2 C 137.9 51.2 138.5 51.2 138.3 51.0 C 137.8 51.0 137.7 51.1 137.3 51.1 C 137.3 51.1 137.3 51.1 137.3 51.1 Z M 233.6 43.0 C 232.3 43.3 233.4 43.2 234.4 43.0 C 234.6 42.9 235.3 42.3 236.7 42.2 C 233.7 43.1 237.7 42.4 236.1 42.9 C 235.3 42.8 233.5 43.4 231.9 43.7 C 231.2 43.6 232.8 43.0 233.6 43.0 C 233.6 43.0 233.6 43.0 233.6 43.0 Z M 239.1 42.0 C 239.0 42.0 238.4 42.1 237.5 42.3 C 238.5 41.9 237.1 42.1 238.3 41.8 C 238.2 41.9 242.1 41.1 239.8 41.7 C 237.8 42.0 240.4 41.7 241.3 41.5 C 240.4 41.7 238.6 42.4 238.3 42.3 C 238.8 42.2 239.3 42.1 239.1 42.0 C 239.1 42.0 239.1 42.0 239.1 42.0 Z M 265.4 30.3 C 265.3 30.2 265.2 30.4 265.0 30.5 C 265.5 29.9 265.5 29.5 265.5 29.3 C 265.5 29.5 265.7 29.5 265.8 29.4 C 265.7 29.7 265.8 29.7 265.7 29.8 C 265.5 29.5 265.6 30.0 265.4 30.3 C 265.4 30.3 265.4 30.3 265.4 30.3 Z M 265.4 30.3 " fill="#000000"></path><image xlink:href="EDF08685A1C379C7E1E51FFD91BE9890.png" width="86.00" height="27.00" transform="matrix(1.00, 0.00, -0.00, -1.00, 95.0, 40.0)"></image><g><clipPath id="clip-395"><path d="M 5.6 3.3 L 268.1 3.3 L 268.1 53.1 L 5.6 53.1 Z M 5.6 3.3 "></path></clipPath><g clip-path="url(#clip-395)"><text xml:space="preserve" font-family="Chalkduster" font-size="18.0" fill="#000000" transform="matrix(1.00, 0.00, -0.00, -1.00, 99.0, 21.0)">L</text><text xml:space="preserve" font-family="Chalkduster" font-size="18.0" fill="#000000" transform="matrix(1.00, 0.00, -0.00, -1.00, 110.4, 21.0)">i</text><text xml:space="preserve" font-family="Chalkduster" font-size="18.0" fill="#000000" transform="matrix(1.00, 0.00, -0.00, -1.00, 117.7, 21.0)">t</text><text xml:space="preserve" font-family="Chalkduster" font-size="18.0" fill="#000000" transform="matrix(1.00, 0.00, -0.00, -1.00, 125.7, 21.0)">e</text><text xml:space="preserve" font-family="Chalkduster" font-size="18.0" fill="#000000" transform="matrix(1.00, 0.00, -0.00, -1.00, 136.7, 21.0)">r</text><text xml:space="preserve" font-family="Chalkduster" font-size="18.0" fill="#000000" transform="matrix(1.00, 0.00, -0.00, -1.00, 146.2, 21.0)">a</text><text xml:space="preserve" font-family="Chalkduster" font-size="18.0" fill="#000000" transform="matrix(1.00, 0.00, -0.00, -1.00, 157.9, 21.0)">l</text><text xml:space="preserve" font-family="Chalkduster" font-size="18.0" fill="#000000" transform="matrix(1.00, 0.00, -0.00, -1.00, 166.3, 21.0)">s</text></g></g></g></svg>