<?xml version="1.0" encoding="UTF-8" standalone="no"?><svg xmlns="http://www.w3.org/2000/svg" xmlns:xlink="http://www.w3.org/1999/xlink" clip-rule="evenodd" stroke-miterlimit="4.00" viewBox="0 0 258 143"><desc>SVG generated by Keynote</desc><defs></defs><g transform="matrix(1.00, 0.00, -0.00, -1.00, 0.0, 143.0)"><image xlink:href="B8FE74EDBA2C65736D2750157DC02A0B.png" width="255.00" height="139.00" transform="matrix(1.00, 0.00, -0.00, -1.00, 1.4, 141.2)" opacity="0.50"></image><g><clipPath id="clip-131"><path d="M 6.4 136.2 L 251.1 136.2 L 251.1 6.9 L 6.4 6.9 Z M 6.4 136.2 "></path></clipPath><g clip-path="url(#clip-131)"><image xlink:href="CFA53D52FE8B7C3E70EDC25518D34A22.jpeg" width="400.00" height="400.00" transform="matrix(1.00, 0.00, -0.00, -1.00, 6.4, 136.2)"></image></g></g><image xlink:href="11FC601C2B3F077592DC16797DB9BF6E.png" width="164.00" height="25.00" transform="matrix(1.00, 0.00, -0.00, -1.00, 36.0, 127.0)"></image><g><clipPath id="clip-132"><path d="M 3.0 6.9 L 257.3 6.9 L 257.3 136.2 L 3.0 136.2 Z M 3.0 6.9 "></path></clipPath><g clip-path="url(#clip-132)"><text xml:space="preserve" font-family="Chalkduster" font-size="12.0" fill="#FEFFFE" transform="matrix(1.00, 0.00, -0.00, -1.00, 40.0, 111.0)">D</text><text xml:space="preserve" font-family="Chalkduster" font-size="12.0" fill="#FEFFFE" transform="matrix(1.00, 0.00, -0.00, -1.00, 48.4, 111.0)">R</text><text xml:space="preserve" font-family="Chalkduster" font-size="12.0" fill="#FEFFFE" transform="matrix(1.00, 0.00, -0.00, -1.00, 57.7, 111.0)">A</text><text xml:space="preserve" font-family="Chalkduster" font-size="12.0" fill="#FEFFFE" transform="matrix(1.00, 0.00, -0.00, -1.00, 66.6, 111.0)">M</text><text xml:space="preserve" font-family="Chalkduster" font-size="12.0" fill="#FEFFFE" transform="matrix(1.00, 0.00, -0.00, -1.00, 76.7, 111.0)">A</text><text xml:space="preserve" font-family="Chalkduster" font-size="12.0" fill="#FEFFFE" transform="matrix(1.00, 0.00, -0.00, -1.00, 85.6, 111.0)"> </text><text xml:space="preserve" font-family="Chalkduster" font-size="12.0" fill="#FEFFFE" transform="matrix(1.00, 0.00, -0.00, -1.00, 91.5, 111.0)">-</text><text xml:space="preserve" font-family="Chalkduster" font-size="12.0" fill="#FEFFFE" transform="matrix(1.00, 0.00, -0.00, -1.00, 98.8, 111.0)">&gt;</text><text xml:space="preserve" font-family="Chalkduster" font-size="12.0" fill="#FEFFFE" transform="matrix(1.00, 0.00, -0.00, -1.00, 104.6, 111.0)"> </text><text xml:space="preserve" font-family="Chalkduster" font-size="12.0" fill="#FEFFFE" transform="matrix(1.00, 0.00, -0.00, -1.00, 110.6, 111.0)">[</text><text xml:space="preserve" font-family="Chalkduster" font-size="12.0" fill="#FEFFFE" transform="matrix(1.00, 0.00, -0.00, -1.00, 117.6, 111.0)">.</text><text xml:space="preserve" font-family="Chalkduster" font-size="12.0" fill="#FEFFFE" transform="matrix(1.00, 0.00, -0.00, -1.00, 120.6, 111.0)">.</text><text xml:space="preserve" font-family="Chalkduster" font-size="12.0" fill="#FEFFFE" transform="matrix(1.00, 0.00, -0.00, -1.00, 123.7, 111.0)">.</text><text xml:space="preserve" font-family="Chalkduster" font-size="12.0" fill="#FEFFFE" transform="matrix(1.00, 0.00, -0.00, -1.00, 127.8, 111.0)">,</text><text xml:space="preserve" font-family="Chalkduster" font-size="12.0" fill="#FEFFFE" transform="matrix(1.00, 0.00, -0.00, -1.00, 131.5, 111.0)"> </text><text xml:space="preserve" font-family="Chalkduster" font-size="12.0" fill="#FEFFFE" transform="matrix(1.00, 0.00, -0.00, -1.00, 137.5, 111.0)">.</text><text xml:space="preserve" font-family="Chalkduster" font-size="12.0" fill="#FEFFFE" transform="matrix(1.00, 0.00, -0.00, -1.00, 140.5, 111.0)">.</text><text xml:space="preserve" font-family="Chalkduster" font-size="12.0" fill="#FEFFFE" transform="matrix(1.00, 0.00, -0.00, -1.00, 143.5, 111.0)">.</text><text xml:space="preserve" font-family="Chalkduster" font-size="12.0" fill="#FEFFFE" transform="matrix(1.00, 0.00, -0.00, -1.00, 147.6, 111.0)">,</text><text xml:space="preserve" font-family="Chalkduster" font-size="12.0" fill="#FEFFFE" transform="matrix(1.00, 0.00, -0.00, -1.00, 151.3, 111.0)"> </text><text xml:space="preserve" font-family="Chalkduster" font-size="12.0" fill="#FEFFFE" transform="matrix(1.00, 0.00, -0.00, -1.00, 157.3, 111.0)">.</text><text xml:space="preserve" font-family="Chalkduster" font-size="12.0" fill="#FEFFFE" transform="matrix(1.00, 0.00, -0.00, -1.00, 160.4, 111.0)">.</text><text xml:space="preserve" font-family="Chalkduster" font-size="12.0" fill="#FEFFFE" transform="matrix(1.00, 0.00, -0.00, -1.00, 163.4, 111.0)">.</text><text xml:space="preserve" font-family="Chalkduster" font-size="12.0" fill="#FEFFFE" transform="matrix(1.00, 0.00, -0.00, -1.00, 167.5, 111.0)">,</text><text xml:space="preserve" font-family="Chalkduster" font-size="12.0" fill="#FEFFFE" transform="matrix(1.00, 0.00, -0.00, -1.00, 171.2, 111.0)"> </text><text xml:space="preserve" font-family="Chalkduster" font-size="12.0" fill="#FEFFFE" transform="matrix(1.00, 0.00, -0.00, -1.00, 177.2, 111.0)">.</text><text xml:space="preserve" font-family="Chalkduster" font-size="12.0" fill="#FEFFFE" transform="matrix(1.00, 0.00, -0.00, -1.00, 180.2, 111.0)">.</text><text xml:space="preserve" font-family="Chalkduster" font-size="12.0" fill="#FEFFFE" transform="matrix(1.00, 0.00, -0.00, -1.00, 183.2, 111.0)">.</text><text xml:space="preserve" font-family="Chalkduster" font-size="12.0" fill="#FEFFFE" transform="matrix(1.00, 0.00, -0.00, -1.00, 187.3, 111.0)">]</text><text xml:space="preserve" font-family="Chalkduster" font-size="12.0" fill="#FEFFFE" transform="matrix(1.00, 0.00, -0.00, -1.00, 194.1, 111.0)"> </text></g></g><image xlink:href="58EC36CC15B0BDC431440B4F567F8A95.png" width="180.00" height="25.00" transform="matrix(1.00, 0.00, -0.00, -1.00, 36.0, 109.0)"></image><g><clipPath id="clip-133"><path d="M 3.0 6.9 L 257.3 6.9 L 257.3 136.2 L 3.0 136.2 Z M 3.0 6.9 "></path></clipPath><g clip-path="url(#clip-133)"><text xml:space="preserve" font-family="Chalkduster" font-size="12.0" fill="#FEFFFE" transform="matrix(1.00, 0.00, -0.00, -1.00, 40.0, 93.0)">W</text><text xml:space="preserve" font-family="Chalkduster" font-size="12.0" fill="#FEFFFE" transform="matrix(1.00, 0.00, -0.00, -1.00, 50.9, 93.0)">E</text><text xml:space="preserve" font-family="Chalkduster" font-size="12.0" fill="#FEFFFE" transform="matrix(1.00, 0.00, -0.00, -1.00, 59.7, 93.0)">S</text><text xml:space="preserve" font-family="Chalkduster" font-size="12.0" fill="#FEFFFE" transform="matrix(1.00, 0.00, -0.00, -1.00, 65.7, 93.0)">T</text><text xml:space="preserve" font-family="Chalkduster" font-size="12.0" fill="#FEFFFE" transform="matrix(1.00, 0.00, -0.00, -1.00, 74.9, 93.0)">E</text><text xml:space="preserve" font-family="Chalkduster" font-size="12.0" fill="#FEFFFE" transform="matrix(1.00, 0.00, -0.00, -1.00, 83.8, 93.0)">R</text><text xml:space="preserve" font-family="Chalkduster" font-size="12.0" fill="#FEFFFE" transform="matrix(1.00, 0.00, -0.00, -1.00, 93.1, 93.0)">N</text><text xml:space="preserve" font-family="Chalkduster" font-size="12.0" fill="#FEFFFE" transform="matrix(1.00, 0.00, -0.00, -1.00, 101.7, 93.0)"> </text><text xml:space="preserve" font-family="Chalkduster" font-size="12.0" fill="#FEFFFE" transform="matrix(1.00, 0.00, -0.00, -1.00, 107.6, 93.0)">-</text><text xml:space="preserve" font-family="Chalkduster" font-size="12.0" fill="#FEFFFE" transform="matrix(1.00, 0.00, -0.00, -1.00, 114.9, 93.0)">&gt;</text><text xml:space="preserve" font-family="Chalkduster" font-size="12.0" fill="#FEFFFE" transform="matrix(1.00, 0.00, -0.00, -1.00, 120.7, 93.0)"> </text><text xml:space="preserve" font-family="Chalkduster" font-size="12.0" fill="#FEFFFE" transform="matrix(1.00, 0.00, -0.00, -1.00, 126.7, 93.0)">[</text><text xml:space="preserve" font-family="Chalkduster" font-size="12.0" fill="#FEFFFE" transform="matrix(1.00, 0.00, -0.00, -1.00, 133.7, 93.0)">.</text><text xml:space="preserve" font-family="Chalkduster" font-size="12.0" fill="#FEFFFE" transform="matrix(1.00, 0.00, -0.00, -1.00, 136.7, 93.0)">.</text><text xml:space="preserve" font-family="Chalkduster" font-size="12.0" fill="#FEFFFE" transform="matrix(1.00, 0.00, -0.00, -1.00, 139.8, 93.0)">.</text><text xml:space="preserve" font-family="Chalkduster" font-size="12.0" fill="#FEFFFE" transform="matrix(1.00, 0.00, -0.00, -1.00, 143.8, 93.0)">,</text><text xml:space="preserve" font-family="Chalkduster" font-size="12.0" fill="#FEFFFE" transform="matrix(1.00, 0.00, -0.00, -1.00, 147.5, 93.0)"> </text><text xml:space="preserve" font-family="Chalkduster" font-size="12.0" fill="#FEFFFE" transform="matrix(1.00, 0.00, -0.00, -1.00, 153.5, 93.0)">.</text><text xml:space="preserve" font-family="Chalkduster" font-size="12.0" fill="#FEFFFE" transform="matrix(1.00, 0.00, -0.00, -1.00, 156.6, 93.0)">.</text><text xml:space="preserve" font-family="Chalkduster" font-size="12.0" fill="#FEFFFE" transform="matrix(1.00, 0.00, -0.00, -1.00, 159.6, 93.0)">.</text><text xml:space="preserve" font-family="Chalkduster" font-size="12.0" fill="#FEFFFE" transform="matrix(1.00, 0.00, -0.00, -1.00, 163.7, 93.0)">,</text><text xml:space="preserve" font-family="Chalkduster" font-size="12.0" fill="#FEFFFE" transform="matrix(1.00, 0.00, -0.00, -1.00, 167.4, 93.0)"> </text><text xml:space="preserve" font-family="Chalkduster" font-size="12.0" fill="#FEFFFE" transform="matrix(1.00, 0.00, -0.00, -1.00, 173.3, 93.0)">.</text><text xml:space="preserve" font-family="Chalkduster" font-size="12.0" fill="#FEFFFE" transform="matrix(1.00, 0.00, -0.00, -1.00, 176.4, 93.0)">.</text><text xml:space="preserve" font-family="Chalkduster" font-size="12.0" fill="#FEFFFE" transform="matrix(1.00, 0.00, -0.00, -1.00, 179.4, 93.0)">.</text><text xml:space="preserve" font-family="Chalkduster" font-size="12.0" fill="#FEFFFE" transform="matrix(1.00, 0.00, -0.00, -1.00, 183.5, 93.0)">,</text><text xml:space="preserve" font-family="Chalkduster" font-size="12.0" fill="#FEFFFE" transform="matrix(1.00, 0.00, -0.00, -1.00, 187.2, 93.0)"> </text><text xml:space="preserve" font-family="Chalkduster" font-size="12.0" fill="#FEFFFE" transform="matrix(1.00, 0.00, -0.00, -1.00, 193.2, 93.0)">.</text><text xml:space="preserve" font-family="Chalkduster" font-size="12.0" fill="#FEFFFE" transform="matrix(1.00, 0.00, -0.00, -1.00, 196.2, 93.0)">.</text><text xml:space="preserve" font-family="Chalkduster" font-size="12.0" fill="#FEFFFE" transform="matrix(1.00, 0.00, -0.00, -1.00, 199.3, 93.0)">.</text><text xml:space="preserve" font-family="Chalkduster" font-size="12.0" fill="#FEFFFE" transform="matrix(1.00, 0.00, -0.00, -1.00, 203.3, 93.0)">]</text><text xml:space="preserve" font-family="Chalkduster" font-size="12.0" fill="#FEFFFE" transform="matrix(1.00, 0.00, -0.00, -1.00, 210.1, 93.0)"> </text></g></g><image xlink:href="0111FAA61E991DCAEF9B5D884C8778B5.png" width="185.00" height="25.00" transform="matrix(1.00, 0.00, -0.00, -1.00, 36.0, 91.0)"></image><g><clipPath id="clip-134"><path d="M 3.0 6.9 L 257.3 6.9 L 257.3 136.2 L 3.0 136.2 Z M 3.0 6.9 "></path></clipPath><g clip-path="url(#clip-134)"><text xml:space="preserve" font-family="Chalkduster" font-size="12.0" fill="#FEFFFE" transform="matrix(1.00, 0.00, -0.00, -1.00, 40.0, 75.0)">T</text><text xml:space="preserve" font-family="Chalkduster" font-size="12.0" fill="#FEFFFE" transform="matrix(1.00, 0.00, -0.00, -1.00, 49.2, 75.0)">H</text><text xml:space="preserve" font-family="Chalkduster" font-size="12.0" fill="#FEFFFE" transform="matrix(1.00, 0.00, -0.00, -1.00, 56.6, 75.0)">R</text><text xml:space="preserve" font-family="Chalkduster" font-size="12.0" fill="#FEFFFE" transform="matrix(1.00, 0.00, -0.00, -1.00, 65.9, 75.0)">I</text><text xml:space="preserve" font-family="Chalkduster" font-size="12.0" fill="#FEFFFE" transform="matrix(1.00, 0.00, -0.00, -1.00, 73.1, 75.0)">L</text><text xml:space="preserve" font-family="Chalkduster" font-size="12.0" fill="#FEFFFE" transform="matrix(1.00, 0.00, -0.00, -1.00, 80.7, 75.0)">L</text><text xml:space="preserve" font-family="Chalkduster" font-size="12.0" fill="#FEFFFE" transform="matrix(1.00, 0.00, -0.00, -1.00, 88.3, 75.0)">E</text><text xml:space="preserve" font-family="Chalkduster" font-size="12.0" fill="#FEFFFE" transform="matrix(1.00, 0.00, -0.00, -1.00, 97.1, 75.0)">R</text><text xml:space="preserve" font-family="Chalkduster" font-size="12.0" fill="#FEFFFE" transform="matrix(1.00, 0.00, -0.00, -1.00, 106.5, 75.0)"> </text><text xml:space="preserve" font-family="Chalkduster" font-size="12.0" fill="#FEFFFE" transform="matrix(1.00, 0.00, -0.00, -1.00, 112.4, 75.0)">-</text><text xml:space="preserve" font-family="Chalkduster" font-size="12.0" fill="#FEFFFE" transform="matrix(1.00, 0.00, -0.00, -1.00, 119.7, 75.0)">&gt;</text><text xml:space="preserve" font-family="Chalkduster" font-size="12.0" fill="#FEFFFE" transform="matrix(1.00, 0.00, -0.00, -1.00, 125.5, 75.0)"> </text><text xml:space="preserve" font-family="Chalkduster" font-size="12.0" fill="#FEFFFE" transform="matrix(1.00, 0.00, -0.00, -1.00, 131.5, 75.0)">[</text><text xml:space="preserve" font-family="Chalkduster" font-size="12.0" fill="#FEFFFE" transform="matrix(1.00, 0.00, -0.00, -1.00, 138.5, 75.0)">.</text><text xml:space="preserve" font-family="Chalkduster" font-size="12.0" fill="#FEFFFE" transform="matrix(1.00, 0.00, -0.00, -1.00, 141.6, 75.0)">.</text><text xml:space="preserve" font-family="Chalkduster" font-size="12.0" fill="#FEFFFE" transform="matrix(1.00, 0.00, -0.00, -1.00, 144.6, 75.0)">.</text><text xml:space="preserve" font-family="Chalkduster" font-size="12.0" fill="#FEFFFE" transform="matrix(1.00, 0.00, -0.00, -1.00, 148.7, 75.0)">,</text><text xml:space="preserve" font-family="Chalkduster" font-size="12.0" fill="#FEFFFE" transform="matrix(1.00, 0.00, -0.00, -1.00, 152.4, 75.0)"> </text><text xml:space="preserve" font-family="Chalkduster" font-size="12.0" fill="#FEFFFE" transform="matrix(1.00, 0.00, -0.00, -1.00, 158.3, 75.0)">.</text><text xml:space="preserve" font-family="Chalkduster" font-size="12.0" fill="#FEFFFE" transform="matrix(1.00, 0.00, -0.00, -1.00, 161.4, 75.0)">.</text><text xml:space="preserve" font-family="Chalkduster" font-size="12.0" fill="#FEFFFE" transform="matrix(1.00, 0.00, -0.00, -1.00, 164.4, 75.0)">.</text><text xml:space="preserve" font-family="Chalkduster" font-size="12.0" fill="#FEFFFE" transform="matrix(1.00, 0.00, -0.00, -1.00, 168.5, 75.0)">,</text><text xml:space="preserve" font-family="Chalkduster" font-size="12.0" fill="#FEFFFE" transform="matrix(1.00, 0.00, -0.00, -1.00, 172.2, 75.0)"> </text><text xml:space="preserve" font-family="Chalkduster" font-size="12.0" fill="#FEFFFE" transform="matrix(1.00, 0.00, -0.00, -1.00, 178.2, 75.0)">.</text><text xml:space="preserve" font-family="Chalkduster" font-size="12.0" fill="#FEFFFE" transform="matrix(1.00, 0.00, -0.00, -1.00, 181.2, 75.0)">.</text><text xml:space="preserve" font-family="Chalkduster" font-size="12.0" fill="#FEFFFE" transform="matrix(1.00, 0.00, -0.00, -1.00, 184.3, 75.0)">.</text><text xml:space="preserve" font-family="Chalkduster" font-size="12.0" fill="#FEFFFE" transform="matrix(1.00, 0.00, -0.00, -1.00, 188.3, 75.0)">,</text><text xml:space="preserve" font-family="Chalkduster" font-size="12.0" fill="#FEFFFE" transform="matrix(1.00, 0.00, -0.00, -1.00, 192.0, 75.0)"> </text><text xml:space="preserve" font-family="Chalkduster" font-size="12.0" fill="#FEFFFE" transform="matrix(1.00, 0.00, -0.00, -1.00, 198.0, 75.0)">.</text><text xml:space="preserve" font-family="Chalkduster" font-size="12.0" fill="#FEFFFE" transform="matrix(1.00, 0.00, -0.00, -1.00, 201.1, 75.0)">.</text><text xml:space="preserve" font-family="Chalkduster" font-size="12.0" fill="#FEFFFE" transform="matrix(1.00, 0.00, -0.00, -1.00, 204.1, 75.0)">.</text><text xml:space="preserve" font-family="Chalkduster" font-size="12.0" fill="#FEFFFE" transform="matrix(1.00, 0.00, -0.00, -1.00, 208.2, 75.0)">]</text><text xml:space="preserve" font-family="Chalkduster" font-size="12.0" fill="#FEFFFE" transform="matrix(1.00, 0.00, -0.00, -1.00, 214.9, 75.0)"> </text></g></g><image xlink:href="34A39F54FC84D144CD7D4F464014950F.png" width="192.00" height="25.00" transform="matrix(1.00, 0.00, -0.00, -1.00, 36.0, 73.0)"></image><g><clipPath id="clip-135"><path d="M 3.0 6.9 L 257.3 6.9 L 257.3 136.2 L 3.0 136.2 Z M 3.0 6.9 "></path></clipPath><g clip-path="url(#clip-135)"><text xml:space="preserve" font-family="Chalkduster" font-size="12.0" fill="#FEFFFE" transform="matrix(1.00, 0.00, -0.00, -1.00, 40.0, 57.0)">F</text><text xml:space="preserve" font-family="Chalkduster" font-size="12.0" fill="#FEFFFE" transform="matrix(1.00, 0.00, -0.00, -1.00, 48.9, 57.0)">I</text><text xml:space="preserve" font-family="Chalkduster" font-size="12.0" fill="#FEFFFE" transform="matrix(1.00, 0.00, -0.00, -1.00, 56.1, 57.0)">L</text><text xml:space="preserve" font-family="Chalkduster" font-size="12.0" fill="#FEFFFE" transform="matrix(1.00, 0.00, -0.00, -1.00, 63.7, 57.0)">M</text><text xml:space="preserve" font-family="Chalkduster" font-size="12.0" fill="#FEFFFE" transform="matrix(1.00, 0.00, -0.00, -1.00, 73.2, 57.0)">-</text><text xml:space="preserve" font-family="Chalkduster" font-size="12.0" fill="#FEFFFE" transform="matrix(1.00, 0.00, -0.00, -1.00, 80.4, 57.0)">N</text><text xml:space="preserve" font-family="Chalkduster" font-size="12.0" fill="#FEFFFE" transform="matrix(1.00, 0.00, -0.00, -1.00, 88.9, 57.0)">O</text><text xml:space="preserve" font-family="Chalkduster" font-size="12.0" fill="#FEFFFE" transform="matrix(1.00, 0.00, -0.00, -1.00, 97.6, 57.0)">I</text><text xml:space="preserve" font-family="Chalkduster" font-size="12.0" fill="#FEFFFE" transform="matrix(1.00, 0.00, -0.00, -1.00, 104.8, 57.0)">R</text><text xml:space="preserve" font-family="Chalkduster" font-size="12.0" fill="#FEFFFE" transform="matrix(1.00, 0.00, -0.00, -1.00, 114.1, 57.0)"> </text><text xml:space="preserve" font-family="Chalkduster" font-size="12.0" fill="#FEFFFE" transform="matrix(1.00, 0.00, -0.00, -1.00, 120.1, 57.0)">-</text><text xml:space="preserve" font-family="Chalkduster" font-size="12.0" fill="#FEFFFE" transform="matrix(1.00, 0.00, -0.00, -1.00, 127.3, 57.0)">&gt;</text><text xml:space="preserve" font-family="Chalkduster" font-size="12.0" fill="#FEFFFE" transform="matrix(1.00, 0.00, -0.00, -1.00, 133.2, 57.0)"> </text><text xml:space="preserve" font-family="Chalkduster" font-size="12.0" fill="#FEFFFE" transform="matrix(1.00, 0.00, -0.00, -1.00, 139.1, 57.0)">[</text><text xml:space="preserve" font-family="Chalkduster" font-size="12.0" fill="#FEFFFE" transform="matrix(1.00, 0.00, -0.00, -1.00, 146.2, 57.0)">.</text><text xml:space="preserve" font-family="Chalkduster" font-size="12.0" fill="#FEFFFE" transform="matrix(1.00, 0.00, -0.00, -1.00, 149.2, 57.0)">.</text><text xml:space="preserve" font-family="Chalkduster" font-size="12.0" fill="#FEFFFE" transform="matrix(1.00, 0.00, -0.00, -1.00, 152.2, 57.0)">.</text><text xml:space="preserve" font-family="Chalkduster" font-size="12.0" fill="#FEFFFE" transform="matrix(1.00, 0.00, -0.00, -1.00, 156.3, 57.0)">,</text><text xml:space="preserve" font-family="Chalkduster" font-size="12.0" fill="#FEFFFE" transform="matrix(1.00, 0.00, -0.00, -1.00, 160.0, 57.0)"> </text><text xml:space="preserve" font-family="Chalkduster" font-size="12.0" fill="#FEFFFE" transform="matrix(1.00, 0.00, -0.00, -1.00, 166.0, 57.0)">.</text><text xml:space="preserve" font-family="Chalkduster" font-size="12.0" fill="#FEFFFE" transform="matrix(1.00, 0.00, -0.00, -1.00, 169.0, 57.0)">.</text><text xml:space="preserve" font-family="Chalkduster" font-size="12.0" fill="#FEFFFE" transform="matrix(1.00, 0.00, -0.00, -1.00, 172.1, 57.0)">.</text><text xml:space="preserve" font-family="Chalkduster" font-size="12.0" fill="#FEFFFE" transform="matrix(1.00, 0.00, -0.00, -1.00, 176.1, 57.0)">,</text><text xml:space="preserve" font-family="Chalkduster" font-size="12.0" fill="#FEFFFE" transform="matrix(1.00, 0.00, -0.00, -1.00, 179.8, 57.0)"> </text><text xml:space="preserve" font-family="Chalkduster" font-size="12.0" fill="#FEFFFE" transform="matrix(1.00, 0.00, -0.00, -1.00, 185.8, 57.0)">.</text><text xml:space="preserve" font-family="Chalkduster" font-size="12.0" fill="#FEFFFE" transform="matrix(1.00, 0.00, -0.00, -1.00, 188.8, 57.0)">.</text><text xml:space="preserve" font-family="Chalkduster" font-size="12.0" fill="#FEFFFE" transform="matrix(1.00, 0.00, -0.00, -1.00, 191.9, 57.0)">.</text><text xml:space="preserve" font-family="Chalkduster" font-size="12.0" fill="#FEFFFE" transform="matrix(1.00, 0.00, -0.00, -1.00, 196.0, 57.0)">,</text><text xml:space="preserve" font-family="Chalkduster" font-size="12.0" fill="#FEFFFE" transform="matrix(1.00, 0.00, -0.00, -1.00, 199.7, 57.0)"> </text><text xml:space="preserve" font-family="Chalkduster" font-size="12.0" fill="#FEFFFE" transform="matrix(1.00, 0.00, -0.00, -1.00, 205.6, 57.0)">.</text><text xml:space="preserve" font-family="Chalkduster" font-size="12.0" fill="#FEFFFE" transform="matrix(1.00, 0.00, -0.00, -1.00, 208.7, 57.0)">.</text><text xml:space="preserve" font-family="Chalkduster" font-size="12.0" fill="#FEFFFE" transform="matrix(1.00, 0.00, -0.00, -1.00, 211.7, 57.0)">.</text><text xml:space="preserve" font-family="Chalkduster" font-size="12.0" fill="#FEFFFE" transform="matrix(1.00, 0.00, -0.00, -1.00, 215.8, 57.0)">]</text><text xml:space="preserve" font-family="Chalkduster" font-size="12.0" fill="#FEFFFE" transform="matrix(1.00, 0.00, -0.00, -1.00, 222.6, 57.0)"> </text></g></g><image xlink:href="CB73237843D938F213969772CF48E757.png" width="171.00" height="25.00" transform="matrix(1.00, 0.00, -0.00, -1.00, 36.0, 55.0)"></image><g><clipPath id="clip-136"><path d="M 3.0 6.9 L 257.3 6.9 L 257.3 136.2 L 3.0 136.2 Z M 3.0 6.9 "></path></clipPath><g clip-path="url(#clip-136)"><text xml:space="preserve" font-family="Chalkduster" font-size="12.0" fill="#FEFFFE" transform="matrix(1.00, 0.00, -0.00, -1.00, 40.0, 39.0)">H</text><text xml:space="preserve" font-family="Chalkduster" font-size="12.0" fill="#FEFFFE" transform="matrix(1.00, 0.00, -0.00, -1.00, 47.4, 39.0)">O</text><text xml:space="preserve" font-family="Chalkduster" font-size="12.0" fill="#FEFFFE" transform="matrix(1.00, 0.00, -0.00, -1.00, 56.1, 39.0)">R</text><text xml:space="preserve" font-family="Chalkduster" font-size="12.0" fill="#FEFFFE" transform="matrix(1.00, 0.00, -0.00, -1.00, 65.4, 39.0)">R</text><text xml:space="preserve" font-family="Chalkduster" font-size="12.0" fill="#FEFFFE" transform="matrix(1.00, 0.00, -0.00, -1.00, 74.5, 39.0)">O</text><text xml:space="preserve" font-family="Chalkduster" font-size="12.0" fill="#FEFFFE" transform="matrix(1.00, 0.00, -0.00, -1.00, 83.2, 39.0)">R</text><text xml:space="preserve" font-family="Chalkduster" font-size="12.0" fill="#FEFFFE" transform="matrix(1.00, 0.00, -0.00, -1.00, 92.5, 39.0)"> </text><text xml:space="preserve" font-family="Chalkduster" font-size="12.0" fill="#FEFFFE" transform="matrix(1.00, 0.00, -0.00, -1.00, 98.5, 39.0)">-</text><text xml:space="preserve" font-family="Chalkduster" font-size="12.0" fill="#FEFFFE" transform="matrix(1.00, 0.00, -0.00, -1.00, 105.8, 39.0)">&gt;</text><text xml:space="preserve" font-family="Chalkduster" font-size="12.0" fill="#FEFFFE" transform="matrix(1.00, 0.00, -0.00, -1.00, 111.6, 39.0)"> </text><text xml:space="preserve" font-family="Chalkduster" font-size="12.0" fill="#FEFFFE" transform="matrix(1.00, 0.00, -0.00, -1.00, 117.6, 39.0)">[</text><text xml:space="preserve" font-family="Chalkduster" font-size="12.0" fill="#FEFFFE" transform="matrix(1.00, 0.00, -0.00, -1.00, 124.6, 39.0)">.</text><text xml:space="preserve" font-family="Chalkduster" font-size="12.0" fill="#FEFFFE" transform="matrix(1.00, 0.00, -0.00, -1.00, 127.6, 39.0)">.</text><text xml:space="preserve" font-family="Chalkduster" font-size="12.0" fill="#FEFFFE" transform="matrix(1.00, 0.00, -0.00, -1.00, 130.7, 39.0)">.</text><text xml:space="preserve" font-family="Chalkduster" font-size="12.0" fill="#FEFFFE" transform="matrix(1.00, 0.00, -0.00, -1.00, 134.7, 39.0)">,</text><text xml:space="preserve" font-family="Chalkduster" font-size="12.0" fill="#FEFFFE" transform="matrix(1.00, 0.00, -0.00, -1.00, 138.5, 39.0)"> </text><text xml:space="preserve" font-family="Chalkduster" font-size="12.0" fill="#FEFFFE" transform="matrix(1.00, 0.00, -0.00, -1.00, 144.4, 39.0)">.</text><text xml:space="preserve" font-family="Chalkduster" font-size="12.0" fill="#FEFFFE" transform="matrix(1.00, 0.00, -0.00, -1.00, 147.5, 39.0)">.</text><text xml:space="preserve" font-family="Chalkduster" font-size="12.0" fill="#FEFFFE" transform="matrix(1.00, 0.00, -0.00, -1.00, 150.5, 39.0)">.</text><text xml:space="preserve" font-family="Chalkduster" font-size="12.0" fill="#FEFFFE" transform="matrix(1.00, 0.00, -0.00, -1.00, 154.6, 39.0)">,</text><text xml:space="preserve" font-family="Chalkduster" font-size="12.0" fill="#FEFFFE" transform="matrix(1.00, 0.00, -0.00, -1.00, 158.3, 39.0)"> </text><text xml:space="preserve" font-family="Chalkduster" font-size="12.0" fill="#FEFFFE" transform="matrix(1.00, 0.00, -0.00, -1.00, 164.3, 39.0)">.</text><text xml:space="preserve" font-family="Chalkduster" font-size="12.0" fill="#FEFFFE" transform="matrix(1.00, 0.00, -0.00, -1.00, 167.3, 39.0)">.</text><text xml:space="preserve" font-family="Chalkduster" font-size="12.0" fill="#FEFFFE" transform="matrix(1.00, 0.00, -0.00, -1.00, 170.3, 39.0)">.</text><text xml:space="preserve" font-family="Chalkduster" font-size="12.0" fill="#FEFFFE" transform="matrix(1.00, 0.00, -0.00, -1.00, 174.4, 39.0)">,</text><text xml:space="preserve" font-family="Chalkduster" font-size="12.0" fill="#FEFFFE" transform="matrix(1.00, 0.00, -0.00, -1.00, 178.1, 39.0)"> </text><text xml:space="preserve" font-family="Chalkduster" font-size="12.0" fill="#FEFFFE" transform="matrix(1.00, 0.00, -0.00, -1.00, 184.1, 39.0)">.</text><text xml:space="preserve" font-family="Chalkduster" font-size="12.0" fill="#FEFFFE" transform="matrix(1.00, 0.00, -0.00, -1.00, 187.1, 39.0)">.</text><text xml:space="preserve" font-family="Chalkduster" font-size="12.0" fill="#FEFFFE" transform="matrix(1.00, 0.00, -0.00, -1.00, 190.2, 39.0)">.</text><text xml:space="preserve" font-family="Chalkduster" font-size="12.0" fill="#FEFFFE" transform="matrix(1.00, 0.00, -0.00, -1.00, 194.3, 39.0)">]</text><text xml:space="preserve" font-family="Chalkduster" font-size="12.0" fill="#FEFFFE" transform="matrix(1.00, 0.00, -0.00, -1.00, 201.0, 39.0)"> </text></g></g><image xlink:href="A16D98C32CADFD681BE4E360AF5829A7.png" width="19.00" height="14.00" transform="matrix(1.00, 0.00, -0.00, -1.00, 37.0, 28.0)"></image><g><clipPath id="clip-137"><path d="M 3.0 6.9 L 257.3 6.9 L 257.3 136.2 L 3.0 136.2 Z M 3.0 6.9 "></path></clipPath><g clip-path="url(#clip-137)"><text xml:space="preserve" font-family="Chalkduster" font-size="12.0" fill="#FEFFFE" transform="matrix(1.00, 0.00, -0.00, -1.00, 40.0, 21.0)">.</text><text xml:space="preserve" font-family="Chalkduster" font-size="12.0" fill="#FEFFFE" transform="matrix(1.00, 0.00, -0.00, -1.00, 43.0, 21.0)">.</text><text xml:space="preserve" font-family="Chalkduster" font-size="12.0" fill="#FEFFFE" transform="matrix(1.00, 0.00, -0.00, -1.00, 46.1, 21.0)">.</text></g></g></g></svg>