<?xml version="1.0" encoding="UTF-8" standalone="no"?><svg xmlns="http://www.w3.org/2000/svg" xmlns:xlink="http://www.w3.org/1999/xlink" clip-rule="evenodd" stroke-miterlimit="4.00" viewBox="0 0 171 142"><desc>SVG generated by Keynote</desc><defs></defs><g transform="matrix(1.00, 0.00, -0.00, -1.00, 0.0, 142.0)"><image xlink:href="../../2AA2AFAE-DF67-4397-9C2B-14052E838B89/assets/3473D3183AC7159DAD1976248DDF98EB.png" width="168.00" height="139.00" transform="matrix(1.00, 0.00, -0.00, -1.00, 1.9, 140.6)" opacity="0.50"></image><g><clipPath id="clip-129"><path d="M 36.6 135.6 L 134.9 135.6 C 143.4 135.6 147.8 135.6 152.3 134.1 C 157.4 132.3 161.3 128.4 163.1 123.4 C 164.6 118.8 164.6 114.5 164.6 105.8 L 164.6 35.9 C 164.6 27.4 164.6 23.1 163.1 18.5 C 161.3 13.5 157.4 9.6 152.3 7.7 C 147.8 6.3 143.4 6.3 134.8 6.3 L 36.6 6.3 C 28.1 6.3 23.7 6.3 19.2 7.7 C 14.1 9.6 10.2 13.5 8.4 18.5 C 6.9 23.1 6.9 27.4 6.9 36.1 L 6.9 106.0 C 6.9 114.5 6.9 118.8 8.4 123.4 C 10.2 128.4 14.1 132.3 19.2 134.1 C 23.7 135.6 28.1 135.6 36.7 135.6 Z M 36.6 135.6 "></path></clipPath><g clip-path="url(#clip-129)"><image xlink:href="../../2AA2AFAE-DF67-4397-9C2B-14052E838B89/assets/59DBD66EA15A3D40E065F836EF2595FD.jpeg" width="400.00" height="400.00" transform="matrix(1.00, 0.00, -0.00, -1.00, 6.9, 135.6)"></image></g></g><image xlink:href="../../2AA2AFAE-DF67-4397-9C2B-14052E838B89/assets/2AE79B3F95C3E84AD4E4E2DA61DBFFC8.png" width="134.00" height="54.00" transform="matrix(1.00, 0.00, -0.00, -1.00, 20.0, 86.0)"></image><g><clipPath id="clip-130"><path d="M -2.8 6.3 L 177.1 6.3 L 177.1 135.6 L -2.8 135.6 Z M -2.8 6.3 "></path></clipPath><g clip-path="url(#clip-130)"><text xml:space="preserve" font-family="Chalkduster" font-size="32.0" fill="#FEFFFE" transform="matrix(1.00, 0.00, -0.00, -1.00, 23.0, 56.0)">P</text><text xml:space="preserve" font-family="Chalkduster" font-size="32.0" fill="#FEFFFE" transform="matrix(1.00, 0.00, -0.00, -1.00, 45.8, 56.0)">y</text><text xml:space="preserve" font-family="Chalkduster" font-size="32.0" fill="#FEFFFE" transform="matrix(1.00, 0.00, -0.00, -1.00, 65.2, 56.0)">t</text><text xml:space="preserve" font-family="Chalkduster" font-size="32.0" fill="#FEFFFE" transform="matrix(1.00, 0.00, -0.00, -1.00, 80.5, 56.0)">h</text><text xml:space="preserve" font-family="Chalkduster" font-size="32.0" fill="#FEFFFE" transform="matrix(1.00, 0.00, -0.00, -1.00, 100.3, 56.0)">o</text><text xml:space="preserve" font-family="Chalkduster" font-size="32.0" fill="#FEFFFE" transform="matrix(1.00, 0.00, -0.00, -1.00, 124.1, 56.0)">n</text></g></g></g></svg>