<?xml version="1.0" encoding="UTF-8" standalone="no"?><svg xmlns="http://www.w3.org/2000/svg" xmlns:xlink="http://www.w3.org/1999/xlink" clip-rule="evenodd" stroke-miterlimit="4.00" viewBox="0 0 319 262"><desc>SVG generated by Keynote</desc><defs></defs><g transform="matrix(1.00, 0.00, -0.00, -1.00, 0.0, 262.0)"><path d="M 2.9 256.0 C 2.9 256.2 2.4 256.3 2.2 256.9 C 2.0 257.4 1.9 258.1 2.2 258.0 C 2.6 257.9 2.8 257.8 3.2 258.1 C 3.5 258.4 4.2 258.8 4.5 258.5 C 4.8 258.1 5.7 256.6 5.3 256.0 C 5.0 255.5 4.9 255.3 4.7 254.9 C 4.5 254.5 5.2 254.8 5.2 254.8 C 5.2 254.8 5.4 254.0 5.5 253.4 C 5.6 252.7 5.7 252.0 5.6 251.9 C 5.5 251.8 5.2 251.6 5.2 251.6 C 5.2 251.6 5.6 251.3 5.7 250.8 C 5.8 250.3 5.6 250.5 5.4 250.5 C 5.2 250.6 4.7 251.1 4.7 250.9 C 4.7 250.7 5.6 250.2 5.7 249.8 C 5.8 249.5 5.8 248.8 5.8 248.8 C 5.8 248.8 5.3 248.8 5.2 248.7 C 5.1 248.6 5.1 247.9 5.3 247.9 C 5.5 247.9 5.9 248.0 6.0 247.6 C 6.2 246.4 5.3 246.5 5.3 246.4 C 5.3 246.3 5.9 246.4 6.1 246.1 C 6.2 245.9 6.3 243.6 6.1 243.4 C 6.0 243.3 6.7 242.6 6.3 242.2 C 5.9 241.9 5.8 241.8 5.7 241.7 C 5.6 241.6 4.9 241.1 5.2 240.9 C 5.5 240.7 6.2 241.7 6.4 241.4 C 6.6 241.2 6.8 239.8 6.6 239.5 C 6.3 239.2 5.7 239.0 5.7 238.8 C 5.7 238.6 6.7 237.9 6.5 237.8 C 6.4 237.7 5.7 237.5 5.6 237.5 C 5.4 237.5 4.2 237.2 4.0 237.3 C 3.9 237.5 3.3 238.3 3.7 238.2 C 4.0 238.1 4.5 238.0 4.6 238.3 C 4.8 238.6 4.8 238.8 4.6 238.8 C 4.5 238.9 4.4 238.7 4.1 239.2 C 3.8 239.7 3.5 239.4 3.5 239.8 C 3.5 240.3 3.6 240.7 3.8 240.7 C 4.1 240.7 4.5 241.2 4.4 241.6 C 4.4 241.9 3.8 241.3 3.5 242.3 C 3.1 243.4 3.0 244.0 3.2 244.3 C 3.4 244.7 4.2 244.8 3.8 245.3 C 3.4 245.7 3.3 245.5 3.2 246.1 C 3.2 246.8 3.7 247.1 3.7 247.6 C 3.7 248.0 3.7 248.1 3.7 248.1 C 3.7 248.1 2.9 247.8 2.7 248.8 C 2.6 249.8 2.5 250.0 3.1 249.8 C 3.7 249.7 3.7 250.4 3.3 250.4 C 2.9 250.4 2.6 251.0 2.5 251.3 C 2.4 251.6 3.4 251.8 3.5 252.0 C 3.5 252.1 3.4 252.5 3.1 252.3 C 2.8 252.1 2.7 252.5 2.5 252.8 C 2.4 253.1 2.4 254.0 2.5 254.0 C 2.7 254.0 3.4 253.6 3.0 254.2 C 2.7 254.8 2.1 254.9 2.1 255.5 C 2.1 256.0 2.7 255.6 2.9 256.0 C 2.9 256.0 2.9 256.0 2.9 256.0 Z M 3.7 236.9 C 3.7 238.0 6.4 237.5 6.9 237.1 C 7.5 236.8 7.2 236.1 7.4 235.4 C 7.5 234.7 6.7 234.8 6.5 234.4 C 6.3 234.0 6.8 234.2 7.2 234.0 C 7.6 233.9 7.4 232.8 7.5 232.2 C 7.5 231.5 6.7 230.8 6.7 230.3 C 6.7 229.7 6.2 230.7 6.3 229.8 C 6.5 228.8 6.9 229.3 7.1 230.4 C 7.3 231.5 7.6 230.0 7.8 229.5 C 7.9 228.9 7.6 227.9 7.7 227.4 C 7.8 227.0 7.1 227.5 7.1 226.8 C 7.2 226.1 7.9 226.5 8.0 225.9 C 8.2 225.2 7.5 225.2 7.4 224.9 C 7.3 224.5 7.7 224.6 7.8 224.3 C 7.8 224.0 8.1 223.6 8.0 222.9 C 7.9 222.3 7.7 222.5 7.6 222.2 C 7.6 221.9 7.7 221.4 7.7 221.4 C 7.9 221.3 8.1 221.3 8.3 221.3 C 8.3 221.3 8.5 220.1 8.6 219.8 C 8.6 219.4 8.4 218.6 8.2 218.8 C 8.1 219.0 7.7 218.2 7.8 218.0 C 7.9 217.9 8.3 217.3 8.5 216.9 C 8.7 216.5 6.9 216.5 6.7 216.5 C 6.5 216.5 5.5 216.2 5.4 216.5 C 5.3 216.9 5.6 217.2 5.4 217.1 C 5.1 217.0 5.3 218.1 5.3 218.4 C 5.3 218.7 5.9 219.1 5.9 219.1 C 5.9 219.1 6.4 219.4 6.3 219.9 C 6.3 220.3 5.2 220.4 5.2 220.4 C 5.2 220.4 5.0 221.0 5.0 221.5 C 5.0 222.1 5.8 222.8 6.0 223.0 C 6.2 223.1 5.4 223.0 5.2 223.4 C 5.1 223.8 4.8 224.4 4.8 224.6 C 4.9 224.7 5.4 225.1 5.4 225.1 C 5.4 225.1 5.7 225.9 5.7 226.0 C 5.6 226.2 4.9 225.8 4.9 225.8 C 4.9 225.8 4.5 227.4 4.4 227.7 C 4.3 228.0 4.5 228.6 4.5 228.8 C 4.6 229.0 5.5 229.5 5.4 229.8 C 5.3 230.1 4.8 229.4 4.7 229.7 C 4.5 230.1 4.3 230.7 4.3 230.9 C 4.3 231.0 4.6 231.3 4.6 231.6 C 4.6 231.9 5.3 232.3 5.3 232.8 C 5.3 233.3 4.8 233.5 4.7 233.6 C 4.6 233.8 3.9 233.9 3.9 234.2 C 3.8 234.6 4.3 234.4 4.3 234.7 C 4.2 235.0 4.7 235.1 4.6 235.4 C 4.5 235.8 3.7 235.5 3.8 235.9 C 3.8 236.1 3.8 235.9 3.7 236.9 C 3.7 236.9 3.7 236.9 3.7 236.9 Z M 5.6 215.7 C 5.2 216.1 5.6 216.6 6.0 216.6 C 6.3 216.5 7.3 216.4 7.6 216.6 C 7.9 216.8 8.5 217.5 8.7 216.6 C 8.9 215.7 8.7 215.5 8.4 215.5 C 8.2 215.5 7.2 215.3 7.3 215.0 C 7.4 214.8 7.7 214.6 7.8 214.5 C 8.0 214.5 9.0 214.2 8.9 213.8 C 8.8 213.4 8.5 212.9 8.5 212.9 C 8.5 212.7 8.5 212.5 8.5 212.3 C 8.5 212.3 9.2 211.7 9.1 211.3 C 9.0 210.8 9.0 210.3 9.1 209.9 C 9.2 209.6 9.1 209.2 8.9 209.1 C 8.6 209.1 7.8 208.5 7.8 208.5 C 7.8 208.5 7.6 208.0 7.8 207.8 C 8.0 207.5 8.4 207.5 8.6 207.6 C 8.8 207.6 9.2 207.6 9.4 207.3 C 9.5 206.9 10.1 205.4 9.8 205.2 C 9.5 204.9 9.2 205.0 9.1 204.8 C 9.0 204.6 9.0 203.6 9.3 203.5 C 9.5 203.5 10.0 203.5 10.0 203.3 C 10.0 203.0 10.1 202.4 10.0 202.4 C 9.9 202.4 9.7 202.2 9.5 202.1 C 9.2 202.1 9.0 201.5 8.9 201.3 C 8.7 201.2 8.7 200.7 8.7 200.7 C 8.9 200.6 9.1 200.4 9.2 200.2 C 9.2 200.2 9.7 200.6 9.8 200.8 C 9.9 200.9 10.2 200.7 10.3 200.5 C 10.3 200.3 10.3 199.2 10.3 199.2 C 9.9 199.2 9.6 199.1 9.2 199.1 C 9.1 198.8 9.1 198.5 9.0 198.2 C 9.0 198.2 10.3 198.4 10.4 197.9 C 10.4 197.4 10.5 196.7 10.5 196.7 C 10.5 196.7 10.0 196.2 9.9 196.0 C 9.9 195.9 8.7 195.7 8.7 195.7 C 8.3 195.7 7.8 195.7 7.3 195.8 C 7.3 195.8 6.8 196.4 7.0 196.7 C 7.1 197.1 7.7 196.8 7.9 196.9 C 8.1 197.0 8.3 197.5 8.3 197.5 C 8.0 197.8 7.8 198.0 7.5 198.2 C 7.5 198.2 7.2 198.4 7.0 198.6 C 6.7 198.8 6.5 199.6 6.6 199.9 C 6.7 200.1 7.0 200.4 7.2 200.7 C 7.4 201.0 7.8 201.0 7.5 201.3 C 7.1 201.6 6.8 201.8 6.7 202.0 C 6.7 202.1 7.1 202.9 7.1 202.9 C 7.2 203.1 7.3 203.4 7.4 203.6 C 7.4 203.6 7.6 204.2 7.3 204.2 C 7.0 204.3 7.3 205.5 7.3 205.5 C 7.3 205.5 6.4 205.3 6.3 205.6 C 6.1 205.9 5.9 206.3 6.0 206.8 C 6.1 207.3 6.9 207.7 6.9 207.7 C 6.7 207.8 6.5 208.0 6.2 208.1 C 6.1 208.5 6.1 208.9 6.0 209.4 C 6.0 209.4 5.9 210.4 6.1 210.4 C 6.2 210.4 6.9 210.3 7.1 210.4 C 7.3 210.5 7.5 211.0 7.2 211.1 C 7.0 211.1 6.3 211.5 6.3 211.5 C 6.3 211.5 5.9 211.9 5.8 212.2 C 5.7 212.5 5.9 213.0 6.1 213.1 C 6.2 213.2 6.7 213.7 6.7 213.7 C 6.4 213.9 6.2 214.0 6.0 214.1 C 6.0 214.1 6.2 214.9 5.6 215.7 C 5.6 215.7 5.6 215.7 5.6 215.7 Z M 6.9 195.3 C 6.9 196.3 9.6 195.8 10.2 195.5 C 10.7 195.1 10.4 194.4 10.6 193.7 C 10.7 193.0 9.9 193.2 9.7 192.7 C 9.4 192.3 10.0 192.5 10.4 192.4 C 10.8 192.2 10.5 191.1 10.6 190.5 C 10.7 189.8 9.8 189.1 9.8 188.6 C 9.8 188.1 9.3 189.0 9.4 188.1 C 9.5 187.2 10.0 187.7 10.2 188.7 C 10.4 189.8 10.7 188.3 10.9 187.8 C 11.0 187.2 10.7 186.2 10.8 185.7 C 10.8 185.3 10.1 185.8 10.2 185.1 C 10.3 184.5 10.9 184.8 11.1 184.2 C 11.2 183.5 10.6 183.5 10.4 183.2 C 10.3 182.8 10.7 182.9 10.8 182.6 C 10.8 182.4 11.1 181.9 11.0 181.3 C 10.9 180.6 10.6 180.8 10.6 180.5 C 10.6 180.2 10.6 179.7 10.6 179.7 C 10.8 179.6 11.1 179.6 11.3 179.6 C 11.3 179.6 11.4 178.4 11.5 178.1 C 11.6 177.7 11.3 176.9 11.2 177.1 C 11.0 177.3 10.6 176.5 10.7 176.4 C 10.8 176.2 11.2 175.6 11.4 175.2 C 11.6 174.8 9.8 174.9 9.6 174.8 C 9.4 174.8 8.4 174.5 8.3 174.9 C 8.2 175.2 8.5 175.5 8.3 175.4 C 8.0 175.4 8.2 176.4 8.2 176.7 C 8.2 177.0 8.8 177.4 8.8 177.4 C 8.8 177.4 9.3 177.7 9.3 178.2 C 9.3 178.7 8.2 178.8 8.2 178.8 C 8.2 178.8 7.9 179.3 8.0 179.9 C 8.0 180.5 8.8 181.2 9.0 181.3 C 9.2 181.4 8.4 181.4 8.2 181.8 C 8.1 182.2 7.8 182.7 7.9 182.9 C 7.9 183.1 8.4 183.4 8.4 183.4 C 8.4 183.4 8.7 184.2 8.7 184.4 C 8.7 184.5 7.9 184.2 7.9 184.2 C 7.9 184.2 7.6 185.8 7.5 186.1 C 7.4 186.4 7.6 186.9 7.6 187.2 C 7.7 187.4 8.6 187.8 8.5 188.1 C 8.4 188.5 7.9 187.7 7.8 188.1 C 7.7 188.4 7.4 189.1 7.4 189.2 C 7.4 189.4 7.7 189.7 7.7 189.9 C 7.8 190.2 8.5 190.7 8.4 191.2 C 8.4 191.6 8.0 191.8 7.8 192.0 C 7.7 192.1 7.1 192.2 7.0 192.6 C 7.0 192.9 7.5 192.7 7.4 193.1 C 7.4 193.4 7.9 193.4 7.8 193.8 C 7.6 194.1 6.9 193.9 7.0 194.3 C 7.0 194.4 7.0 194.3 6.9 195.3 C 6.9 195.3 6.9 195.3 6.9 195.3 Z M 8.5 174.0 C 8.1 174.5 8.5 175.0 8.9 174.9 C 9.2 174.9 10.2 174.8 10.5 175.0 C 10.8 175.2 11.4 175.8 11.6 174.9 C 11.8 174.0 11.5 173.8 11.3 173.8 C 11.1 173.8 10.1 173.6 10.2 173.3 C 10.3 173.1 10.6 172.9 10.7 172.9 C 10.9 172.8 11.9 172.5 11.7 172.1 C 11.6 171.7 11.4 171.2 11.4 171.2 C 11.4 171.0 11.4 170.8 11.4 170.6 C 11.4 170.6 12.0 170.0 11.9 169.6 C 11.8 169.1 11.8 168.6 11.9 168.2 C 12.0 167.9 11.9 167.5 11.6 167.4 C 11.4 167.4 10.6 166.8 10.6 166.8 C 10.6 166.8 10.4 166.3 10.6 166.1 C 10.7 165.8 11.2 165.8 11.4 165.9 C 11.6 165.9 12.0 165.9 12.1 165.6 C 12.2 165.2 12.8 163.7 12.5 163.5 C 12.3 163.2 11.9 163.3 11.8 163.1 C 11.7 162.9 11.7 161.9 12.0 161.8 C 12.2 161.7 12.7 161.8 12.7 161.5 C 12.7 161.2 12.8 160.7 12.7 160.7 C 12.6 160.6 12.4 160.4 12.1 160.4 C 11.9 160.4 11.7 159.8 11.5 159.6 C 11.4 159.5 11.4 159.1 11.4 159.1 C 11.6 158.9 11.7 158.7 11.9 158.5 C 11.9 158.5 12.4 158.9 12.5 159.0 C 12.5 159.2 12.9 159.0 12.9 158.8 C 13.0 158.6 13.0 157.5 13.0 157.5 C 12.6 157.4 12.2 157.4 11.8 157.4 C 11.7 157.1 11.7 156.8 11.6 156.5 C 11.6 156.5 13.0 156.7 13.0 156.2 C 13.0 155.7 13.1 155.0 13.1 155.0 C 13.1 155.0 12.6 154.4 12.5 154.3 C 12.5 154.2 11.3 154.0 11.3 154.0 C 10.8 154.0 10.4 154.1 9.9 154.1 C 9.9 154.1 9.4 154.7 9.6 155.1 C 9.7 155.4 10.3 155.2 10.5 155.2 C 10.7 155.3 10.9 155.8 10.9 155.8 C 10.6 156.1 10.4 156.3 10.1 156.5 C 10.1 156.5 9.9 156.7 9.6 156.9 C 9.4 157.2 9.2 158.0 9.3 158.2 C 9.3 158.5 9.6 158.7 9.9 159.0 C 10.1 159.3 10.5 159.3 10.1 159.6 C 9.8 160.0 9.4 160.1 9.4 160.3 C 9.4 160.5 9.8 161.3 9.8 161.3 C 9.9 161.5 10.0 161.7 10.1 161.9 C 10.1 161.9 10.3 162.5 10.0 162.6 C 9.7 162.6 10.0 163.8 10.0 163.8 C 10.0 163.8 9.2 163.6 9.0 163.9 C 8.9 164.2 8.7 164.7 8.8 165.1 C 8.9 165.6 9.6 166.0 9.6 166.0 C 9.4 166.2 9.2 166.3 9.0 166.4 C 8.9 166.9 8.8 167.3 8.8 167.7 C 8.8 167.7 8.7 168.7 8.9 168.7 C 9.0 168.7 9.7 168.7 9.9 168.7 C 10.1 168.8 10.3 169.3 10.0 169.4 C 9.8 169.4 9.1 169.9 9.1 169.9 C 9.1 169.9 8.7 170.3 8.6 170.5 C 8.6 170.8 8.8 171.3 8.9 171.5 C 9.0 171.6 9.5 172.1 9.5 172.1 C 9.3 172.2 9.1 172.3 8.8 172.4 C 8.8 172.4 9.1 173.2 8.5 174.0 C 8.5 174.0 8.5 174.0 8.5 174.0 Z M 9.5 153.6 C 9.5 154.7 12.2 154.1 12.7 153.7 C 13.3 153.4 13.0 152.6 13.1 152.0 C 13.3 151.3 12.4 151.5 12.2 151.0 C 12.0 150.6 12.5 150.8 12.9 150.6 C 13.3 150.5 13.0 149.4 13.1 148.8 C 13.2 148.1 12.3 147.4 12.3 146.9 C 12.3 146.4 11.8 147.3 11.9 146.4 C 12.0 145.4 12.5 145.9 12.7 147.0 C 12.9 148.1 13.2 146.6 13.3 146.0 C 13.5 145.5 13.1 144.5 13.2 144.0 C 13.3 143.5 12.6 144.1 12.6 143.4 C 12.7 142.7 13.3 143.1 13.5 142.4 C 13.6 141.8 13.0 141.8 12.8 141.5 C 12.7 141.1 13.1 141.2 13.2 140.9 C 13.2 140.6 13.4 140.2 13.3 139.5 C 13.2 138.9 13.0 139.0 13.0 138.8 C 12.9 138.5 13.0 137.9 13.0 137.9 C 13.2 137.9 13.4 137.9 13.7 137.9 C 13.7 137.9 13.8 136.7 13.8 136.4 C 13.9 136.0 13.6 135.2 13.5 135.4 C 13.3 135.6 12.9 134.8 13.0 134.6 C 13.1 134.5 13.5 133.9 13.7 133.5 C 13.8 133.1 12.1 133.1 11.9 133.1 C 11.6 133.1 10.7 132.8 10.6 133.2 C 10.5 133.5 10.8 133.8 10.6 133.8 C 10.3 133.7 10.5 134.8 10.5 135.0 C 10.5 135.3 11.1 135.7 11.1 135.7 C 11.1 135.7 11.6 136.0 11.6 136.5 C 11.6 136.9 10.5 137.1 10.5 137.1 C 10.5 137.1 10.3 137.6 10.3 138.2 C 10.3 138.8 11.2 139.5 11.4 139.6 C 11.6 139.7 10.7 139.7 10.6 140.1 C 10.5 140.5 10.2 141.1 10.3 141.2 C 10.3 141.4 10.8 141.7 10.8 141.7 C 10.8 141.7 11.1 142.5 11.1 142.7 C 11.1 142.8 10.3 142.5 10.3 142.5 C 10.3 142.5 10.0 144.1 9.9 144.4 C 9.9 144.7 10.0 145.2 10.1 145.5 C 10.1 145.7 11.1 146.1 11.0 146.4 C 10.9 146.8 10.4 146.1 10.2 146.4 C 10.1 146.7 9.9 147.4 9.9 147.5 C 9.9 147.7 10.2 148.0 10.2 148.3 C 10.3 148.6 11.0 149.0 11.0 149.5 C 10.9 149.9 10.5 150.1 10.4 150.3 C 10.3 150.5 9.6 150.6 9.6 150.9 C 9.5 151.3 10.0 151.0 10.0 151.4 C 10.0 151.7 10.4 151.8 10.3 152.1 C 10.2 152.4 9.4 152.2 9.5 152.6 C 9.6 152.8 9.5 152.6 9.5 153.6 C 9.5 153.6 9.5 153.6 9.5 153.6 Z M 11.5 131.0 C 11.5 131.2 11.0 131.4 10.9 131.9 C 10.7 132.5 10.6 133.2 10.9 133.1 C 11.3 133.0 11.5 132.8 11.9 133.1 C 12.2 133.4 12.9 133.8 13.2 133.4 C 13.5 133.0 14.3 131.4 13.9 130.9 C 13.6 130.4 13.4 130.2 13.2 129.8 C 13.0 129.5 13.8 129.8 13.8 129.8 C 13.8 129.8 13.9 128.9 14.0 128.3 C 14.1 127.6 14.1 126.9 14.0 126.8 C 13.9 126.7 13.6 126.5 13.6 126.5 C 13.6 126.5 14.0 126.2 14.1 125.7 C 14.2 125.2 14.0 125.4 13.8 125.4 C 13.6 125.5 13.0 126.1 13.1 125.8 C 13.1 125.6 13.9 125.1 14.0 124.7 C 14.1 124.4 14.1 123.7 14.1 123.7 C 14.1 123.7 13.6 123.7 13.5 123.6 C 13.4 123.6 13.4 122.8 13.5 122.8 C 13.7 122.8 14.2 122.9 14.2 122.5 C 14.4 121.3 13.5 121.4 13.4 121.3 C 13.4 121.2 14.1 121.3 14.2 121.0 C 14.3 120.7 14.3 118.5 14.2 118.3 C 14.0 118.2 14.7 117.5 14.2 117.1 C 13.8 116.8 13.7 116.7 13.6 116.6 C 13.5 116.5 12.8 116.0 13.1 115.8 C 13.4 115.7 14.1 116.6 14.3 116.3 C 14.6 116.1 14.7 114.6 14.5 114.4 C 14.2 114.0 13.5 113.9 13.5 113.7 C 13.6 113.5 14.4 112.7 14.3 112.7 C 14.2 112.6 13.5 112.5 13.3 112.5 C 13.2 112.4 11.9 112.1 11.8 112.3 C 11.6 112.5 11.1 113.3 11.5 113.2 C 11.8 113.1 12.3 112.9 12.4 113.2 C 12.6 113.5 12.6 113.7 12.5 113.8 C 12.3 113.8 12.2 113.7 11.9 114.2 C 11.7 114.6 11.4 114.4 11.4 114.8 C 11.4 115.3 11.5 115.7 11.7 115.7 C 12.0 115.7 12.4 116.2 12.3 116.5 C 12.3 116.9 11.7 116.3 11.4 117.3 C 11.2 118.4 11.1 119.0 11.3 119.4 C 11.5 119.7 12.2 119.8 11.9 120.3 C 11.6 120.7 11.4 120.5 11.4 121.1 C 11.4 121.8 11.9 122.1 11.9 122.6 C 11.9 123.0 11.9 123.1 11.9 123.1 C 11.9 123.1 11.1 122.8 11.0 123.8 C 10.9 124.8 10.8 125.0 11.4 124.8 C 12.1 124.7 12.1 125.4 11.7 125.4 C 11.3 125.4 11.0 126.0 10.9 126.3 C 10.8 126.7 11.9 126.8 11.9 126.9 C 11.9 127.1 11.8 127.5 11.5 127.3 C 11.2 127.1 11.1 127.5 11.0 127.8 C 10.8 128.1 10.9 129.0 11.1 129.0 C 11.2 129.0 11.9 128.6 11.6 129.2 C 11.2 129.8 10.7 129.9 10.7 130.5 C 10.7 131.1 11.3 130.6 11.5 131.0 C 11.5 131.0 11.5 131.0 11.5 131.0 Z M 11.6 111.5 C 11.2 111.9 11.7 112.4 12.0 112.4 C 12.4 112.3 13.4 112.2 13.7 112.4 C 13.9 112.6 14.6 113.2 14.8 112.3 C 15.0 111.4 14.7 111.2 14.5 111.2 C 14.2 111.2 13.2 111.0 13.3 110.8 C 13.4 110.5 13.7 110.3 13.8 110.3 C 14.0 110.2 15.0 109.9 14.8 109.5 C 14.7 109.0 14.5 108.6 14.5 108.6 C 14.4 108.4 14.4 108.2 14.4 108.0 C 14.4 108.0 15.1 107.4 14.9 106.9 C 14.8 106.5 14.8 105.9 14.9 105.6 C 15.0 105.2 14.9 104.9 14.6 104.8 C 14.4 104.7 13.6 104.2 13.6 104.2 C 13.6 104.2 13.4 103.7 13.5 103.5 C 13.7 103.2 14.2 103.2 14.3 103.3 C 14.5 103.3 15.0 103.3 15.1 102.9 C 15.2 102.6 15.7 101.1 15.4 100.8 C 15.2 100.6 14.8 100.6 14.7 100.5 C 14.6 100.3 14.6 99.3 14.8 99.2 C 15.1 99.1 15.6 99.2 15.5 98.9 C 15.5 98.6 15.7 98.0 15.5 98.0 C 15.4 98.0 15.3 97.8 15.0 97.8 C 14.7 97.7 14.5 97.2 14.4 97.0 C 14.2 96.9 14.2 96.4 14.2 96.4 C 14.4 96.3 14.5 96.1 14.7 95.9 C 14.7 95.9 15.2 96.2 15.3 96.4 C 15.4 96.6 15.7 96.3 15.7 96.1 C 15.8 96.0 15.7 94.8 15.7 94.8 C 15.4 94.8 15.0 94.8 14.6 94.7 C 14.5 94.5 14.4 94.2 14.4 93.9 C 14.4 93.9 15.7 94.1 15.7 93.5 C 15.8 93.0 15.8 92.4 15.8 92.4 C 15.8 92.4 15.3 91.8 15.2 91.7 C 15.2 91.5 14.0 91.4 14.0 91.4 C 13.5 91.5 13.1 91.5 12.6 91.5 C 12.6 91.5 12.1 92.1 12.3 92.5 C 12.5 92.9 13.0 92.6 13.2 92.6 C 13.4 92.7 13.7 93.2 13.7 93.2 C 13.4 93.5 13.1 93.7 12.8 93.9 C 12.8 93.9 12.6 94.2 12.4 94.4 C 12.1 94.6 12.0 95.4 12.0 95.7 C 12.1 95.9 12.4 96.1 12.7 96.4 C 12.9 96.7 13.3 96.7 13.0 97.0 C 12.6 97.4 12.3 97.6 12.3 97.7 C 12.3 97.9 12.7 98.7 12.7 98.7 C 12.8 98.9 12.9 99.1 13.0 99.3 C 13.0 99.3 13.2 99.9 12.9 100.0 C 12.6 100.1 12.9 101.2 12.9 101.2 C 12.9 101.2 12.1 101.1 11.9 101.4 C 11.8 101.6 11.6 102.1 11.7 102.6 C 11.8 103.1 12.6 103.4 12.6 103.4 C 12.4 103.6 12.2 103.7 12.0 103.9 C 11.9 104.3 11.8 104.7 11.8 105.2 C 11.8 105.2 11.8 106.2 11.9 106.2 C 12.0 106.2 12.7 106.1 12.9 106.2 C 13.1 106.2 13.3 106.8 13.1 106.8 C 12.9 106.9 12.2 107.3 12.2 107.3 C 12.2 107.3 11.8 107.7 11.7 108.0 C 11.6 108.3 11.9 108.8 12.0 108.9 C 12.1 109.0 12.6 109.5 12.6 109.5 C 12.4 109.6 12.2 109.7 12.0 109.9 C 12.0 109.9 12.2 110.7 11.6 111.5 C 11.6 111.5 11.6 111.5 11.6 111.5 Z M 12.2 91.1 C 12.2 92.1 14.9 91.5 15.4 91.1 C 16.0 90.7 15.7 90.0 15.8 89.3 C 15.9 88.6 15.1 88.8 14.8 88.4 C 14.6 88.0 15.1 88.2 15.5 88.0 C 15.9 87.8 15.6 86.8 15.7 86.1 C 15.7 85.5 14.9 84.8 14.8 84.2 C 14.8 83.7 14.3 84.7 14.4 83.8 C 14.5 82.8 15.0 83.3 15.2 84.4 C 15.5 85.5 15.7 84.0 15.9 83.4 C 16.0 82.8 15.6 81.8 15.7 81.4 C 15.7 80.9 15.0 81.4 15.1 80.8 C 15.1 80.1 15.8 80.5 15.9 79.8 C 16.0 79.1 15.4 79.2 15.2 78.8 C 15.1 78.5 15.5 78.6 15.6 78.3 C 15.6 78.0 15.8 77.5 15.7 76.9 C 15.6 76.2 15.4 76.4 15.3 76.1 C 15.3 75.8 15.3 75.3 15.3 75.3 C 15.5 75.3 15.7 75.2 16.0 75.2 C 16.0 75.2 16.1 74.0 16.1 73.7 C 16.2 73.4 15.9 72.6 15.8 72.8 C 15.6 73.0 15.2 72.2 15.3 72.0 C 15.4 71.8 15.7 71.2 15.9 70.8 C 16.1 70.4 14.3 70.5 14.1 70.5 C 13.8 70.5 12.9 70.3 12.8 70.6 C 12.7 70.9 13.0 71.2 12.8 71.2 C 12.6 71.1 12.8 72.2 12.8 72.5 C 12.8 72.7 13.4 73.1 13.4 73.1 C 13.4 73.1 13.9 73.4 13.9 73.9 C 13.9 74.3 12.8 74.5 12.8 74.5 C 12.8 74.5 12.6 75.1 12.6 75.6 C 12.7 76.2 13.5 76.9 13.7 77.0 C 13.9 77.1 13.1 77.1 13.0 77.5 C 12.9 77.9 12.6 78.5 12.7 78.7 C 12.7 78.8 13.2 79.1 13.2 79.1 C 13.2 79.1 13.6 79.9 13.5 80.1 C 13.5 80.2 12.8 79.9 12.8 79.9 C 12.8 79.9 12.5 81.5 12.4 81.8 C 12.3 82.1 12.5 82.7 12.6 82.9 C 12.6 83.1 13.6 83.5 13.5 83.8 C 13.4 84.2 12.9 83.5 12.8 83.8 C 12.7 84.2 12.4 84.8 12.4 85.0 C 12.4 85.1 12.8 85.4 12.8 85.7 C 12.8 86.0 13.6 86.4 13.6 86.9 C 13.5 87.3 13.1 87.5 13.0 87.7 C 12.9 87.9 12.2 88.0 12.2 88.3 C 12.2 88.7 12.6 88.5 12.6 88.8 C 12.6 89.2 13.1 89.2 13.0 89.5 C 12.9 89.9 12.1 89.6 12.2 90.0 C 12.2 90.2 12.2 90.0 12.2 91.1 C 12.2 91.1 12.2 91.1 12.2 91.1 Z M 12.9 69.7 C 12.6 70.2 13.0 70.7 13.4 70.6 C 13.7 70.6 14.7 70.4 15.0 70.6 C 15.3 70.8 15.9 71.4 16.1 70.5 C 16.3 69.6 16.0 69.4 15.8 69.4 C 15.5 69.4 14.5 69.2 14.6 69.0 C 14.7 68.8 15.0 68.5 15.1 68.5 C 15.3 68.4 16.3 68.1 16.1 67.7 C 16.0 67.3 15.7 66.9 15.7 66.9 C 15.7 66.6 15.7 66.4 15.7 66.2 C 15.7 66.2 16.3 65.6 16.2 65.2 C 16.1 64.7 16.1 64.2 16.1 63.8 C 16.2 63.5 16.1 63.1 15.9 63.0 C 15.6 63.0 14.8 62.5 14.8 62.5 C 14.8 62.5 14.6 62.0 14.7 61.7 C 14.9 61.5 15.3 61.4 15.5 61.5 C 15.7 61.6 16.2 61.5 16.3 61.2 C 16.4 60.8 16.9 59.3 16.6 59.0 C 16.3 58.8 15.9 58.9 15.9 58.7 C 15.8 58.5 15.7 57.5 16.0 57.4 C 16.2 57.3 16.7 57.4 16.7 57.1 C 16.6 56.8 16.8 56.2 16.6 56.2 C 16.5 56.2 16.4 56.0 16.1 56.0 C 15.8 56.0 15.6 55.4 15.5 55.3 C 15.3 55.1 15.3 54.7 15.3 54.7 C 15.4 54.5 15.6 54.3 15.8 54.1 C 15.8 54.1 16.3 54.5 16.3 54.6 C 16.4 54.8 16.8 54.5 16.8 54.3 C 16.9 54.2 16.8 53.0 16.8 53.0 C 16.4 53.0 16.0 53.0 15.6 53.0 C 15.6 52.7 15.5 52.4 15.4 52.1 C 15.4 52.1 16.8 52.3 16.8 51.8 C 16.8 51.2 16.8 50.6 16.8 50.6 C 16.8 50.6 16.3 50.0 16.3 49.9 C 16.2 49.7 15.0 49.7 15.0 49.7 C 14.5 49.7 14.1 49.7 13.6 49.8 C 13.6 49.8 13.1 50.4 13.3 50.8 C 13.5 51.1 14.0 50.8 14.2 50.9 C 14.5 50.9 14.7 51.5 14.7 51.5 C 14.4 51.7 14.2 52.0 13.9 52.2 C 13.9 52.2 13.7 52.4 13.4 52.6 C 13.2 52.9 13.0 53.7 13.1 53.9 C 13.2 54.2 13.5 54.4 13.8 54.7 C 14.0 55.0 14.4 54.9 14.1 55.3 C 13.7 55.6 13.4 55.8 13.4 56.0 C 13.4 56.2 13.8 56.9 13.8 56.9 C 13.9 57.1 14.0 57.4 14.1 57.6 C 14.1 57.6 14.3 58.2 14.1 58.2 C 13.8 58.3 14.1 59.5 14.1 59.5 C 14.1 59.5 13.2 59.3 13.1 59.6 C 13.0 59.9 12.8 60.4 12.9 60.9 C 13.0 61.3 13.8 61.7 13.8 61.7 C 13.6 61.8 13.4 62.0 13.2 62.1 C 13.1 62.6 13.0 63.0 13.0 63.4 C 13.0 63.4 13.0 64.4 13.1 64.4 C 13.3 64.5 14.0 64.4 14.2 64.4 C 14.3 64.5 14.6 65.0 14.3 65.1 C 14.1 65.1 13.4 65.6 13.4 65.6 C 13.4 65.6 13.0 66.0 13.0 66.3 C 12.9 66.6 13.1 67.0 13.3 67.2 C 13.4 67.3 13.9 67.8 13.9 67.8 C 13.7 67.9 13.5 68.0 13.2 68.1 C 13.2 68.1 13.5 68.9 12.9 69.7 C 12.9 69.7 12.9 69.7 12.9 69.7 Z M 13.2 49.3 C 13.2 50.4 15.9 49.7 16.4 49.3 C 17.0 48.9 16.6 48.2 16.8 47.5 C 16.9 46.8 16.0 47.0 15.8 46.6 C 15.6 46.2 16.1 46.4 16.5 46.2 C 16.9 46.0 16.5 45.0 16.6 44.3 C 16.6 43.7 15.8 43.0 15.7 42.5 C 15.7 41.9 15.3 42.9 15.3 42.0 C 15.4 41.1 15.9 41.5 16.1 42.6 C 16.4 43.7 16.6 42.2 16.7 41.6 C 16.8 41.0 16.5 40.0 16.5 39.6 C 16.6 39.1 15.9 39.7 15.9 39.0 C 16.0 38.3 16.6 38.7 16.7 38.0 C 16.9 37.3 16.2 37.4 16.1 37.0 C 15.9 36.7 16.3 36.8 16.4 36.5 C 16.4 36.2 16.6 35.7 16.5 35.1 C 16.3 34.4 16.1 34.6 16.1 34.3 C 16.1 34.0 16.1 33.5 16.1 33.5 C 16.3 33.5 16.5 33.4 16.7 33.4 C 16.7 33.4 16.8 32.2 16.9 31.9 C 16.9 31.6 16.6 30.8 16.5 31.0 C 16.3 31.2 15.9 30.4 16.0 30.2 C 16.1 30.0 16.4 29.5 16.6 29.1 C 16.7 28.7 15.0 28.7 14.8 28.7 C 14.5 28.7 13.6 28.5 13.5 28.8 C 13.4 29.2 13.8 29.5 13.5 29.4 C 13.3 29.4 13.5 30.4 13.5 30.7 C 13.5 31.0 14.1 31.3 14.1 31.3 C 14.1 31.3 14.7 31.6 14.7 32.1 C 14.6 32.6 13.6 32.7 13.6 32.7 C 13.6 32.7 13.4 33.3 13.4 33.9 C 13.5 34.5 14.3 35.1 14.5 35.2 C 14.7 35.4 13.9 35.3 13.8 35.7 C 13.7 36.1 13.4 36.7 13.5 36.9 C 13.5 37.1 14.1 37.4 14.1 37.4 C 14.1 37.4 14.4 38.1 14.4 38.3 C 14.4 38.5 13.6 38.2 13.6 38.2 C 13.6 38.2 13.3 39.8 13.3 40.1 C 13.2 40.4 13.4 40.9 13.5 41.2 C 13.5 41.4 14.5 41.7 14.4 42.1 C 14.3 42.4 13.8 41.7 13.7 42.1 C 13.6 42.4 13.4 43.1 13.3 43.2 C 13.3 43.4 13.7 43.6 13.7 43.9 C 13.8 44.2 14.5 44.6 14.5 45.1 C 14.5 45.6 14.0 45.8 13.9 46.0 C 13.8 46.1 13.2 46.2 13.2 46.6 C 13.1 47.0 13.6 46.7 13.6 47.1 C 13.6 47.4 14.1 47.4 14.0 47.8 C 13.9 48.1 13.1 47.9 13.2 48.3 C 13.2 48.5 13.2 48.3 13.2 49.3 C 13.2 49.3 13.2 49.3 13.2 49.3 Z M 13.6 28.0 C 13.2 28.5 13.7 28.9 14.1 28.9 C 14.4 28.8 15.4 28.6 15.7 28.8 C 16.0 29.0 16.6 29.6 16.8 28.7 C 17.0 27.8 16.7 27.7 16.4 27.7 C 16.2 27.7 15.2 27.5 15.3 27.2 C 15.4 27.0 15.7 26.8 15.8 26.7 C 16.0 26.7 16.9 26.3 16.8 25.9 C 16.7 25.5 16.4 25.1 16.4 25.1 C 16.4 24.9 16.4 24.7 16.4 24.4 C 16.4 24.4 17.0 23.9 16.9 23.4 C 16.8 23.0 16.8 22.4 16.9 22.1 C 16.9 21.7 16.9 21.4 16.6 21.3 C 16.4 21.2 15.6 20.7 15.6 20.7 C 15.6 20.7 15.4 20.2 15.6 20.0 C 15.7 19.7 16.2 19.7 16.4 19.8 C 16.6 19.9 17.0 19.8 17.2 19.5 C 17.3 19.2 17.9 18.4 17.7 18.1 C 17.5 17.9 17.2 17.8 17.2 17.6 C 17.1 17.5 17.5 16.8 17.7 16.9 C 17.9 17.0 18.3 17.3 18.4 17.2 C 18.5 17.0 18.8 16.8 18.7 16.7 C 18.6 16.6 18.6 16.4 18.5 16.2 C 18.3 16.0 18.5 15.5 18.5 15.4 C 18.5 15.2 18.8 14.9 18.8 14.9 C 19.1 15.0 19.3 15.0 19.5 15.1 C 19.5 15.1 19.5 15.7 19.4 15.8 C 19.4 16.0 19.7 16.1 19.9 16.1 C 20.0 16.1 20.8 15.6 20.8 15.6 C 20.6 15.2 20.5 14.9 20.4 14.5 C 20.6 14.3 20.8 14.2 21.0 14.0 C 21.0 14.0 21.3 15.3 21.8 15.2 C 22.2 15.0 22.9 14.9 22.9 14.9 C 22.9 14.9 23.3 14.3 23.4 14.2 C 23.5 14.1 23.4 12.9 23.4 12.9 C 23.2 12.5 23.1 12.0 23.0 11.6 C 23.0 11.6 22.1 11.3 21.8 11.6 C 21.4 11.8 21.9 12.2 21.9 12.5 C 21.9 12.7 21.4 13.1 21.4 13.1 C 21.1 12.9 20.8 12.8 20.4 12.6 C 20.4 12.6 20.1 12.5 19.8 12.3 C 19.5 12.2 18.6 12.5 18.4 12.7 C 18.2 12.9 18.1 13.3 18.0 13.7 C 17.8 14.0 18.1 14.3 17.7 14.3 C 17.2 14.2 16.8 14.1 16.6 14.2 C 16.5 14.3 16.3 15.2 16.3 15.2 C 16.2 15.5 16.2 15.7 16.1 15.9 C 16.1 15.9 16.0 16.5 15.7 16.5 C 15.5 16.4 15.3 17.6 15.3 17.6 C 15.3 17.6 14.5 17.2 14.3 17.5 C 14.1 17.8 13.7 18.5 13.8 19.0 C 13.9 19.4 14.7 19.9 14.7 19.9 C 14.5 20.0 14.2 20.1 14.0 20.3 C 13.9 20.7 13.8 21.2 13.7 21.6 C 13.7 21.6 13.7 22.6 13.9 22.6 C 14.0 22.6 14.7 22.6 14.9 22.6 C 15.1 22.7 15.3 23.2 15.0 23.3 C 14.8 23.3 14.1 23.8 14.1 23.8 C 14.1 23.8 13.7 24.2 13.7 24.5 C 13.6 24.8 13.8 25.2 13.9 25.4 C 14.1 25.5 14.6 26.0 14.6 26.0 C 14.4 26.1 14.1 26.2 13.9 26.3 C 13.9 26.3 14.2 27.2 13.6 28.0 C 13.6 28.0 13.6 28.0 13.6 28.0 Z M 23.4 11.1 C 22.2 11.3 23.5 13.8 24.0 14.3 C 24.5 14.7 25.1 14.3 25.9 14.3 C 26.6 14.3 26.3 13.5 26.7 13.3 C 27.2 13.0 27.0 13.6 27.2 13.9 C 27.4 14.3 28.5 14.0 29.2 14.0 C 29.8 14.0 30.5 13.1 31.0 13.0 C 31.5 13.0 30.5 12.6 31.4 12.6 C 32.4 12.7 31.9 13.1 30.9 13.4 C 29.8 13.7 31.3 13.9 31.9 14.0 C 32.5 14.1 33.4 13.7 33.9 13.7 C 34.4 13.8 33.8 13.1 34.4 13.1 C 35.1 13.1 34.8 13.8 35.5 13.9 C 36.2 14.0 36.1 13.4 36.4 13.2 C 36.7 13.0 36.7 13.4 37.0 13.5 C 37.3 13.5 37.7 13.7 38.4 13.6 C 39.0 13.4 38.8 13.2 39.1 13.1 C 39.4 13.1 39.9 13.1 39.9 13.1 C 40.0 13.3 40.0 13.5 40.1 13.8 C 40.1 13.8 41.2 13.8 41.6 13.8 C 41.9 13.9 42.7 13.6 42.5 13.4 C 42.3 13.3 43.1 12.8 43.2 12.9 C 43.4 13.0 44.0 13.3 44.4 13.5 C 44.8 13.6 44.7 11.9 44.7 11.7 C 44.6 11.4 44.9 10.5 44.5 10.4 C 44.2 10.3 43.9 10.6 43.9 10.4 C 44.0 10.2 42.9 10.4 42.7 10.4 C 42.4 10.4 42.0 11.1 42.0 11.1 C 42.0 11.1 41.8 11.6 41.3 11.6 C 40.8 11.6 40.6 10.6 40.6 10.6 C 40.6 10.6 40.0 10.4 39.5 10.4 C 38.9 10.5 38.3 11.4 38.2 11.6 C 38.0 11.8 38.0 11.0 37.6 10.9 C 37.2 10.8 36.6 10.6 36.4 10.6 C 36.3 10.7 36.0 11.2 36.0 11.2 C 36.0 11.2 35.2 11.6 35.1 11.6 C 34.9 11.6 35.2 10.8 35.2 10.8 C 35.2 10.8 33.6 10.6 33.3 10.5 C 32.9 10.5 32.4 10.7 32.2 10.7 C 32.0 10.8 31.7 11.8 31.3 11.7 C 31.0 11.6 31.6 11.1 31.3 11.0 C 30.9 10.9 30.3 10.7 30.1 10.7 C 30.0 10.7 29.7 11.0 29.4 11.1 C 29.1 11.2 28.8 11.9 28.3 11.9 C 27.8 11.9 27.6 11.5 27.4 11.4 C 27.2 11.3 27.0 10.7 26.6 10.7 C 26.1 10.7 26.5 11.1 26.1 11.1 C 25.7 11.1 25.7 11.6 25.3 11.6 C 24.9 11.5 25.1 10.7 24.6 10.9 C 24.4 10.9 24.6 10.8 23.4 11.1 C 23.4 11.1 23.4 11.1 23.4 11.1 Z M 46.8 11.1 C 46.6 11.2 46.4 10.7 45.8 10.6 C 45.2 10.4 44.5 10.4 44.6 10.7 C 44.8 11.0 45.0 11.2 44.7 11.6 C 44.4 12.0 44.1 12.8 44.5 13.0 C 44.9 13.3 46.5 13.9 47.0 13.6 C 47.5 13.2 47.7 13.0 48.0 12.8 C 48.4 12.5 48.2 13.3 48.2 13.3 C 48.2 13.3 49.0 13.4 49.7 13.5 C 50.3 13.5 51.0 13.5 51.1 13.4 C 51.2 13.2 51.4 12.9 51.4 12.9 C 51.4 12.9 51.7 13.3 52.2 13.4 C 52.7 13.4 52.5 13.2 52.4 13.0 C 52.4 12.9 51.8 12.4 52.0 12.4 C 52.2 12.3 52.8 13.1 53.2 13.2 C 53.5 13.3 54.2 13.2 54.2 13.2 C 54.2 13.2 54.2 12.8 54.2 12.6 C 54.3 12.5 55.0 12.5 55.1 12.6 C 55.1 12.8 55.1 13.3 55.4 13.3 C 56.6 13.3 56.4 12.5 56.5 12.4 C 56.6 12.4 56.6 13.1 56.9 13.2 C 57.2 13.3 59.5 13.1 59.6 13.0 C 59.7 12.8 60.5 13.4 60.8 13.0 C 61.1 12.5 61.2 12.4 61.3 12.3 C 61.3 12.2 61.8 11.5 62.0 11.8 C 62.2 12.0 61.3 12.8 61.6 13.0 C 61.9 13.2 63.3 13.2 63.5 13.0 C 63.9 12.7 63.9 12.1 64.1 12.1 C 64.3 12.0 65.2 12.9 65.2 12.7 C 65.3 12.6 65.4 11.9 65.4 11.8 C 65.4 11.6 65.6 10.4 65.5 10.2 C 65.3 10.0 64.4 9.6 64.5 9.9 C 64.6 10.3 64.9 10.7 64.6 10.9 C 64.3 11.1 64.1 11.1 64.0 11.0 C 63.9 10.8 64.1 10.7 63.6 10.5 C 63.1 10.2 63.4 9.9 62.9 10.0 C 62.4 10.0 62.0 10.1 62.0 10.4 C 62.1 10.6 61.6 11.1 61.3 11.0 C 60.9 11.0 61.5 10.4 60.4 10.2 C 59.3 10.0 58.7 9.9 58.4 10.2 C 58.1 10.4 58.0 11.1 57.5 10.8 C 57.0 10.5 57.3 10.3 56.6 10.4 C 55.9 10.4 55.6 11.0 55.2 11.0 C 54.8 11.1 54.6 11.0 54.6 11.0 C 54.6 11.0 54.9 10.2 53.9 10.2 C 52.9 10.1 52.7 10.1 52.9 10.7 C 53.1 11.3 52.4 11.3 52.3 10.9 C 52.3 10.5 51.7 10.3 51.4 10.2 C 51.0 10.2 51.0 11.2 50.8 11.3 C 50.7 11.3 50.3 11.2 50.4 10.9 C 50.6 10.6 50.2 10.5 49.9 10.4 C 49.6 10.3 48.7 10.4 48.7 10.6 C 48.7 10.7 49.2 11.4 48.6 11.1 C 48.0 10.8 47.8 10.3 47.2 10.3 C 46.6 10.3 47.1 10.9 46.8 11.1 C 46.8 11.1 46.8 11.1 46.8 11.1 Z M 66.3 10.0 C 65.8 9.6 65.3 10.1 65.4 10.5 C 65.5 10.8 65.7 11.8 65.5 12.1 C 65.3 12.4 64.7 13.1 65.6 13.2 C 66.5 13.3 66.7 13.0 66.7 12.8 C 66.7 12.6 66.8 11.5 67.1 11.6 C 67.3 11.7 67.5 12.0 67.6 12.1 C 67.7 12.3 68.0 13.2 68.5 13.1 C 68.9 12.9 69.3 12.6 69.3 12.6 C 69.5 12.6 69.7 12.6 69.9 12.6 C 69.9 12.6 70.5 13.2 71.0 13.0 C 71.4 12.9 72.0 12.9 72.3 12.9 C 72.7 12.9 73.0 12.8 73.1 12.6 C 73.1 12.4 73.6 11.5 73.6 11.5 C 73.6 11.5 74.1 11.3 74.4 11.4 C 74.6 11.5 74.7 12.0 74.6 12.2 C 74.6 12.4 74.6 12.8 75.0 12.9 C 75.3 13.0 76.9 13.4 77.1 13.2 C 77.3 12.9 77.3 12.5 77.4 12.4 C 77.6 12.3 78.6 12.2 78.7 12.5 C 78.8 12.7 78.8 13.2 79.0 13.2 C 79.3 13.1 79.9 13.2 79.9 13.1 C 79.9 13.0 80.1 12.8 80.1 12.5 C 80.1 12.2 80.7 12.0 80.8 11.9 C 81.0 11.7 81.4 11.7 81.4 11.7 C 81.6 11.8 81.8 12.0 82.0 12.1 C 82.0 12.1 81.7 12.6 81.5 12.7 C 81.3 12.8 81.6 13.1 81.8 13.2 C 82.0 13.2 83.1 13.1 83.1 13.1 C 83.1 12.7 83.1 12.3 83.1 11.9 C 83.4 11.9 83.7 11.8 84.0 11.7 C 84.0 11.7 83.9 13.0 84.4 13.0 C 84.9 13.0 85.6 13.0 85.6 13.0 C 85.6 13.0 86.1 12.5 86.2 12.4 C 86.4 12.4 86.4 11.2 86.4 11.2 C 86.4 10.7 86.3 10.3 86.3 9.8 C 86.3 9.8 85.6 9.3 85.3 9.5 C 84.9 9.7 85.2 10.2 85.2 10.5 C 85.1 10.7 84.6 10.9 84.6 10.9 C 84.3 10.7 84.1 10.4 83.8 10.2 C 83.8 10.2 83.6 9.9 83.4 9.7 C 83.1 9.5 82.3 9.4 82.1 9.5 C 81.8 9.6 81.6 9.9 81.3 10.1 C 81.0 10.4 81.1 10.8 80.7 10.5 C 80.4 10.2 80.2 9.8 80.0 9.8 C 79.8 9.8 79.1 10.3 79.1 10.3 C 78.9 10.4 78.7 10.5 78.5 10.6 C 78.5 10.6 77.9 10.9 77.8 10.6 C 77.7 10.3 76.6 10.7 76.6 10.7 C 76.6 10.7 76.7 9.8 76.4 9.7 C 76.1 9.6 75.6 9.4 75.1 9.5 C 74.7 9.7 74.3 10.5 74.3 10.5 C 74.2 10.3 74.0 10.1 73.9 9.9 C 73.4 9.8 73.0 9.8 72.6 9.7 C 72.6 9.7 71.6 9.8 71.6 10.0 C 71.6 10.1 71.7 10.8 71.6 11.0 C 71.6 11.2 71.1 11.4 71.0 11.2 C 70.9 10.9 70.5 10.3 70.5 10.3 C 70.5 10.3 70.0 9.9 69.7 9.9 C 69.4 9.8 69.0 10.1 68.9 10.2 C 68.7 10.3 68.3 10.9 68.3 10.9 C 68.2 10.7 68.0 10.4 67.9 10.2 C 67.9 10.2 67.1 10.6 66.3 10.0 C 66.3 10.0 66.3 10.0 66.3 10.0 Z M 86.7 9.4 C 85.6 9.4 86.4 12.1 86.8 12.6 C 87.2 13.1 87.9 12.8 88.6 12.8 C 89.3 12.9 89.1 12.1 89.5 11.8 C 89.9 11.6 89.7 12.1 89.9 12.5 C 90.1 12.9 91.2 12.5 91.8 12.5 C 92.5 12.6 93.1 11.7 93.6 11.6 C 94.1 11.5 93.2 11.1 94.1 11.2 C 95.0 11.2 94.6 11.7 93.5 12.0 C 92.5 12.3 94.0 12.5 94.5 12.6 C 95.1 12.7 96.1 12.2 96.6 12.3 C 97.0 12.3 96.4 11.6 97.1 11.7 C 97.8 11.7 97.5 12.3 98.1 12.4 C 98.8 12.5 98.7 11.9 99.1 11.7 C 99.4 11.6 99.3 12.0 99.6 12.0 C 99.9 12.0 100.4 12.2 101.0 12.1 C 101.7 11.9 101.5 11.7 101.8 11.7 C 102.1 11.6 102.6 11.6 102.6 11.6 C 102.6 11.8 102.7 12.0 102.7 12.3 C 102.7 12.3 103.9 12.3 104.2 12.3 C 104.6 12.4 105.4 12.0 105.1 11.9 C 104.9 11.8 105.7 11.3 105.9 11.4 C 106.1 11.5 106.7 11.8 107.1 12.0 C 107.5 12.1 107.3 10.4 107.3 10.1 C 107.3 9.9 107.5 9.0 107.2 8.9 C 106.8 8.8 106.5 9.1 106.6 8.9 C 106.6 8.6 105.6 8.9 105.3 8.9 C 105.0 8.9 104.7 9.6 104.7 9.6 C 104.7 9.6 104.4 10.1 103.9 10.1 C 103.5 10.1 103.3 9.1 103.3 9.1 C 103.3 9.1 102.7 8.9 102.1 9.0 C 101.5 9.0 100.9 9.9 100.8 10.1 C 100.7 10.3 100.7 9.5 100.3 9.4 C 99.9 9.3 99.3 9.1 99.1 9.1 C 98.9 9.2 98.6 9.7 98.6 9.7 C 98.6 9.7 97.9 10.1 97.7 10.1 C 97.6 10.1 97.8 9.3 97.8 9.3 C 97.8 9.3 96.2 9.1 95.9 9.1 C 95.6 9.0 95.1 9.2 94.8 9.3 C 94.6 9.3 94.3 10.3 94.0 10.2 C 93.6 10.2 94.3 9.6 93.9 9.5 C 93.6 9.4 92.9 9.2 92.8 9.3 C 92.6 9.3 92.4 9.6 92.1 9.7 C 91.8 9.7 91.4 10.5 90.9 10.5 C 90.5 10.5 90.2 10.0 90.1 10.0 C 89.9 9.9 89.8 9.2 89.4 9.2 C 89.0 9.2 89.3 9.6 88.9 9.6 C 88.6 9.6 88.6 10.1 88.3 10.0 C 87.9 10.0 88.1 9.2 87.7 9.3 C 87.5 9.3 87.7 9.3 86.7 9.4 C 86.7 9.4 86.7 9.4 86.7 9.4 Z M 108.0 8.9 C 107.5 8.6 107.1 9.1 107.2 9.4 C 107.2 9.8 107.4 10.8 107.3 11.0 C 107.1 11.3 106.5 12.0 107.4 12.1 C 108.3 12.3 108.5 12.0 108.5 11.7 C 108.5 11.5 108.6 10.5 108.8 10.6 C 109.1 10.7 109.3 10.9 109.4 11.1 C 109.4 11.2 109.8 12.2 110.2 12.0 C 110.7 11.9 111.0 11.6 111.0 11.6 C 111.3 11.6 111.5 11.5 111.7 11.5 C 111.7 11.5 112.3 12.1 112.8 12.0 C 113.2 11.8 113.7 11.8 114.1 11.8 C 114.5 11.9 114.8 11.8 114.9 11.5 C 114.9 11.3 115.4 10.4 115.4 10.4 C 115.4 10.4 115.9 10.2 116.1 10.3 C 116.4 10.5 116.4 10.9 116.4 11.1 C 116.3 11.3 116.4 11.8 116.7 11.8 C 117.1 11.9 118.6 12.4 118.9 12.1 C 119.1 11.8 119.0 11.4 119.2 11.3 C 119.4 11.2 120.4 11.1 120.5 11.4 C 120.6 11.6 120.5 12.1 120.8 12.1 C 121.1 12.0 121.7 12.1 121.7 12.0 C 121.7 11.9 121.9 11.7 121.9 11.4 C 121.9 11.1 122.5 10.9 122.6 10.8 C 122.7 10.6 123.2 10.6 123.2 10.6 C 123.4 10.7 123.6 10.8 123.8 11.0 C 123.8 11.0 123.4 11.5 123.3 11.6 C 123.1 11.7 123.4 12.0 123.6 12.1 C 123.8 12.1 124.9 12.0 124.9 12.0 C 124.9 11.6 124.9 11.2 124.9 10.8 C 125.2 10.7 125.4 10.7 125.7 10.6 C 125.7 10.6 125.6 11.9 126.2 11.9 C 126.7 11.9 127.3 11.9 127.3 11.9 C 127.3 11.9 127.9 11.3 128.0 11.3 C 128.2 11.2 128.2 10.0 128.2 10.0 C 128.1 9.6 128.1 9.1 128.0 8.7 C 128.0 8.7 127.4 8.2 127.0 8.4 C 126.7 8.6 127.0 9.1 126.9 9.3 C 126.9 9.6 126.3 9.8 126.3 9.8 C 126.1 9.6 125.8 9.3 125.6 9.1 C 125.6 9.1 125.4 8.8 125.1 8.6 C 124.9 8.4 124.1 8.3 123.8 8.4 C 123.6 8.5 123.4 8.8 123.1 9.0 C 122.8 9.3 122.9 9.7 122.5 9.4 C 122.1 9.1 122.0 8.7 121.8 8.7 C 121.6 8.7 120.9 9.2 120.9 9.2 C 120.6 9.3 120.4 9.4 120.2 9.5 C 120.2 9.5 119.7 9.8 119.6 9.5 C 119.5 9.2 118.3 9.6 118.3 9.6 C 118.3 9.6 118.4 8.7 118.1 8.6 C 117.8 8.5 117.4 8.3 116.9 8.5 C 116.4 8.6 116.1 9.4 116.1 9.4 C 115.9 9.2 115.8 9.0 115.6 8.8 C 115.2 8.8 114.8 8.7 114.3 8.7 C 114.3 8.7 113.3 8.7 113.3 8.9 C 113.3 9.0 113.5 9.7 113.4 9.9 C 113.3 10.1 112.8 10.3 112.8 10.1 C 112.7 9.9 112.2 9.2 112.2 9.2 C 112.2 9.2 111.8 8.8 111.5 8.8 C 111.2 8.8 110.7 9.0 110.6 9.1 C 110.5 9.3 110.0 9.8 110.0 9.8 C 109.9 9.6 109.8 9.4 109.7 9.2 C 109.7 9.2 108.9 9.5 108.0 8.9 C 108.0 8.9 108.0 8.9 108.0 8.9 Z M 130.3 9.0 C 130.1 9.1 129.9 8.6 129.3 8.5 C 128.7 8.3 128.0 8.3 128.2 8.6 C 128.3 8.9 128.5 9.1 128.2 9.5 C 127.9 9.9 127.6 10.7 128.0 10.9 C 128.4 11.2 130.0 11.8 130.5 11.5 C 131.0 11.1 131.2 10.9 131.6 10.7 C 131.9 10.4 131.7 11.2 131.7 11.2 C 131.7 11.2 132.6 11.3 133.2 11.3 C 133.8 11.4 134.6 11.4 134.6 11.2 C 134.7 11.1 134.9 10.8 134.9 10.8 C 134.9 10.8 135.3 11.2 135.8 11.2 C 136.2 11.3 136.1 11.1 136.0 10.9 C 135.9 10.7 135.3 10.2 135.5 10.2 C 135.7 10.2 136.4 11.0 136.7 11.0 C 137.0 11.1 137.8 11.0 137.8 11.0 C 137.8 11.0 137.7 10.6 137.8 10.5 C 137.8 10.4 138.6 10.3 138.6 10.5 C 138.7 10.6 138.6 11.1 139.0 11.1 C 140.1 11.2 140.0 10.3 140.1 10.3 C 140.2 10.2 140.2 10.9 140.5 11.0 C 140.7 11.1 143.0 10.9 143.1 10.8 C 143.2 10.6 144.0 11.2 144.3 10.8 C 144.7 10.3 144.8 10.2 144.8 10.1 C 144.9 10.0 145.3 9.3 145.5 9.5 C 145.7 9.8 144.9 10.6 145.1 10.8 C 145.4 11.0 146.8 11.0 147.1 10.8 C 147.4 10.5 147.5 9.8 147.7 9.8 C 147.9 9.8 148.7 10.6 148.8 10.5 C 148.8 10.4 148.9 9.6 148.9 9.5 C 148.9 9.4 149.1 8.1 149.0 8.0 C 148.8 7.8 147.9 7.4 148.0 7.7 C 148.2 8.1 148.4 8.5 148.1 8.7 C 147.8 8.8 147.6 8.9 147.5 8.7 C 147.5 8.6 147.6 8.4 147.1 8.2 C 146.6 8.0 146.9 7.7 146.4 7.8 C 145.9 7.8 145.5 7.9 145.6 8.2 C 145.6 8.4 145.1 8.8 144.8 8.8 C 144.4 8.8 145.0 8.2 143.9 8.0 C 142.9 7.8 142.2 7.7 141.9 8.0 C 141.6 8.2 141.5 9.0 141.0 8.6 C 140.5 8.3 140.8 8.1 140.1 8.2 C 139.4 8.2 139.2 8.8 138.7 8.8 C 138.3 8.9 138.2 8.9 138.2 8.9 C 138.2 8.9 138.4 8.0 137.4 8.0 C 136.4 8.0 136.2 7.9 136.4 8.5 C 136.7 9.1 135.9 9.2 135.9 8.8 C 135.8 8.4 135.2 8.1 134.9 8.1 C 134.6 8.1 134.5 9.1 134.4 9.1 C 134.2 9.1 133.8 9.1 134.0 8.8 C 134.1 8.4 133.7 8.4 133.4 8.3 C 133.1 8.1 132.2 8.3 132.2 8.4 C 132.2 8.6 132.7 9.3 132.1 9.0 C 131.5 8.6 131.3 8.1 130.7 8.2 C 130.1 8.2 130.7 8.8 130.3 9.0 C 130.3 9.0 130.3 9.0 130.3 9.0 Z M 149.8 7.7 C 149.3 7.4 148.8 7.9 148.9 8.2 C 149.0 8.6 149.2 9.6 149.0 9.8 C 148.9 10.1 148.3 10.8 149.2 11.0 C 150.1 11.1 150.2 10.8 150.2 10.5 C 150.2 10.3 150.4 9.3 150.6 9.4 C 150.8 9.5 151.1 9.7 151.1 9.9 C 151.2 10.0 151.6 11.0 152.0 10.8 C 152.4 10.7 152.8 10.4 152.8 10.4 C 153.0 10.4 153.2 10.3 153.5 10.3 C 153.5 10.3 154.1 10.9 154.5 10.7 C 155.0 10.6 155.5 10.6 155.9 10.6 C 156.2 10.6 156.6 10.5 156.6 10.3 C 156.7 10.1 157.1 9.2 157.1 9.2 C 157.1 9.2 157.6 9.0 157.9 9.1 C 158.1 9.2 158.2 9.7 158.1 9.9 C 158.1 10.1 158.2 10.5 158.5 10.6 C 158.9 10.7 160.4 11.1 160.6 10.8 C 160.9 10.5 160.8 10.2 161.0 10.1 C 161.1 10.0 162.2 9.9 162.2 10.1 C 162.3 10.4 162.3 10.9 162.6 10.8 C 162.9 10.8 163.5 10.9 163.5 10.7 C 163.5 10.6 163.6 10.5 163.7 10.2 C 163.7 9.9 164.3 9.6 164.4 9.5 C 164.5 9.4 164.9 9.3 164.9 9.3 C 165.1 9.4 165.3 9.6 165.6 9.7 C 165.6 9.7 165.2 10.3 165.0 10.4 C 164.9 10.5 165.2 10.8 165.4 10.8 C 165.5 10.9 166.6 10.7 166.6 10.7 C 166.7 10.4 166.7 10.0 166.7 9.6 C 166.9 9.5 167.2 9.4 167.5 9.3 C 167.5 9.3 167.4 10.7 167.9 10.6 C 168.5 10.6 169.1 10.6 169.1 10.6 C 169.1 10.6 169.6 10.1 169.8 10.0 C 169.9 10.0 169.9 8.8 169.9 8.8 C 169.9 8.3 169.8 7.9 169.8 7.4 C 169.8 7.4 169.1 6.9 168.8 7.1 C 168.4 7.3 168.7 7.8 168.7 8.1 C 168.6 8.3 168.1 8.6 168.1 8.6 C 167.9 8.3 167.6 8.0 167.4 7.8 C 167.4 7.8 167.1 7.6 166.9 7.3 C 166.6 7.1 165.8 7.0 165.6 7.1 C 165.4 7.2 165.1 7.5 164.8 7.8 C 164.6 8.0 164.6 8.4 164.3 8.1 C 163.9 7.8 163.7 7.4 163.5 7.5 C 163.4 7.5 162.6 7.9 162.6 7.9 C 162.4 8.1 162.2 8.2 162.0 8.3 C 162.0 8.3 161.4 8.5 161.3 8.3 C 161.2 8.0 160.1 8.3 160.1 8.3 C 160.1 8.3 160.2 7.5 159.9 7.4 C 159.6 7.2 159.1 7.1 158.6 7.2 C 158.2 7.4 157.9 8.2 157.9 8.2 C 157.7 8.0 157.5 7.8 157.4 7.6 C 157.0 7.5 156.5 7.5 156.1 7.4 C 156.1 7.4 155.1 7.5 155.1 7.7 C 155.1 7.8 155.2 8.5 155.2 8.7 C 155.1 8.9 154.6 9.1 154.5 8.9 C 154.5 8.7 154.0 8.0 154.0 8.0 C 154.0 8.0 153.5 7.6 153.2 7.6 C 152.9 7.5 152.5 7.8 152.4 7.9 C 152.3 8.1 151.8 8.6 151.8 8.6 C 151.7 8.4 151.5 8.2 151.4 8.0 C 151.4 8.0 150.6 8.3 149.8 7.7 C 149.8 7.7 149.8 7.7 149.8 7.7 Z M 172.1 7.7 C 171.8 7.8 171.6 7.3 171.1 7.2 C 170.5 7.0 169.8 7.0 169.9 7.4 C 170.1 7.7 170.3 7.9 170.0 8.3 C 169.7 8.7 169.4 9.4 169.8 9.6 C 170.2 9.9 171.8 10.6 172.3 10.2 C 172.8 9.8 173.0 9.6 173.3 9.4 C 173.7 9.1 173.5 9.9 173.5 9.9 C 173.5 9.9 174.3 10.0 175.0 10.0 C 175.6 10.1 176.3 10.1 176.4 9.9 C 176.5 9.8 176.7 9.5 176.7 9.5 C 176.7 9.5 177.1 9.9 177.5 9.9 C 178.0 10.0 177.8 9.8 177.8 9.6 C 177.7 9.4 177.1 8.9 177.3 8.9 C 177.5 8.9 178.1 9.7 178.5 9.7 C 178.8 9.8 179.6 9.7 179.6 9.7 C 179.6 9.7 179.5 9.3 179.5 9.2 C 179.6 9.1 180.3 9.0 180.4 9.1 C 180.4 9.3 180.4 9.8 180.7 9.8 C 181.9 9.9 181.7 9.0 181.8 8.9 C 181.9 8.9 181.9 9.6 182.2 9.7 C 182.5 9.8 184.8 9.6 184.9 9.4 C 185.0 9.3 185.8 9.9 186.1 9.4 C 186.4 9.0 186.5 8.9 186.6 8.8 C 186.6 8.6 187.1 8.0 187.3 8.2 C 187.5 8.5 186.6 9.3 186.9 9.5 C 187.2 9.7 188.6 9.7 188.8 9.4 C 189.2 9.1 189.2 8.5 189.4 8.5 C 189.6 8.5 190.5 9.3 190.5 9.2 C 190.6 9.0 190.7 8.3 190.7 8.2 C 190.7 8.0 190.9 6.8 190.7 6.6 C 190.5 6.5 189.7 6.0 189.8 6.4 C 189.9 6.7 190.1 7.2 189.8 7.3 C 189.5 7.5 189.4 7.5 189.3 7.4 C 189.2 7.3 189.4 7.1 188.9 6.9 C 188.4 6.7 188.6 6.4 188.2 6.4 C 187.7 6.5 187.3 6.6 187.3 6.8 C 187.4 7.1 186.9 7.5 186.5 7.5 C 186.2 7.5 186.7 6.9 185.7 6.6 C 184.6 6.4 183.9 6.4 183.6 6.7 C 183.3 6.9 183.3 7.6 182.8 7.3 C 182.3 7.0 182.5 6.8 181.9 6.9 C 181.2 6.9 180.9 7.5 180.5 7.5 C 180.1 7.6 179.9 7.6 179.9 7.6 C 179.9 7.6 180.1 6.7 179.2 6.7 C 178.2 6.7 178.0 6.6 178.2 7.2 C 178.4 7.8 177.7 7.9 177.6 7.5 C 177.6 7.1 177.0 6.8 176.7 6.8 C 176.3 6.8 176.3 7.8 176.1 7.8 C 176.0 7.8 175.6 7.8 175.7 7.5 C 175.9 7.1 175.5 7.1 175.2 7.0 C 174.9 6.9 174.0 7.0 174.0 7.2 C 174.0 7.3 174.5 8.0 173.8 7.7 C 173.2 7.4 173.0 6.9 172.5 6.9 C 171.9 6.9 172.4 7.5 172.1 7.7 C 172.1 7.7 172.1 7.7 172.1 7.7 Z M 191.5 6.4 C 191.0 6.0 190.6 6.5 190.7 6.9 C 190.7 7.2 191.0 8.2 190.8 8.5 C 190.6 8.8 190.0 9.5 190.9 9.6 C 191.8 9.7 192.0 9.4 192.0 9.2 C 192.0 9.0 192.1 7.9 192.4 8.0 C 192.6 8.1 192.8 8.4 192.9 8.5 C 193.0 8.7 193.3 9.6 193.8 9.5 C 194.2 9.3 194.6 9.0 194.6 9.0 C 194.8 9.0 195.0 9.0 195.2 8.9 C 195.2 8.9 195.8 9.5 196.3 9.4 C 196.8 9.2 197.3 9.2 197.6 9.2 C 198.0 9.3 198.3 9.2 198.4 8.9 C 198.4 8.7 198.9 7.9 198.9 7.9 C 198.9 7.9 199.4 7.6 199.6 7.7 C 199.9 7.9 200.0 8.3 199.9 8.5 C 199.9 8.7 199.9 9.2 200.3 9.2 C 200.6 9.3 202.2 9.7 202.4 9.4 C 202.6 9.2 202.6 8.8 202.7 8.7 C 202.9 8.6 203.9 8.5 204.0 8.7 C 204.1 9.0 204.1 9.5 204.3 9.4 C 204.6 9.4 205.2 9.5 205.2 9.3 C 205.2 9.2 205.4 9.1 205.4 8.8 C 205.4 8.5 206.0 8.2 206.1 8.1 C 206.2 8.0 206.7 7.9 206.7 7.9 C 206.9 8.0 207.1 8.2 207.3 8.3 C 207.3 8.3 207.0 8.9 206.8 9.0 C 206.6 9.1 206.9 9.4 207.1 9.4 C 207.3 9.5 208.4 9.3 208.4 9.3 C 208.4 8.9 208.4 8.6 208.4 8.2 C 208.7 8.1 209.0 8.0 209.2 7.9 C 209.2 7.9 209.2 9.3 209.7 9.2 C 210.2 9.2 210.9 9.2 210.9 9.2 C 210.9 9.2 211.4 8.7 211.5 8.6 C 211.7 8.6 211.7 7.4 211.7 7.4 C 211.6 6.9 211.6 6.4 211.5 6.0 C 211.5 6.0 210.9 5.5 210.5 5.7 C 210.2 5.9 210.5 6.4 210.4 6.7 C 210.4 6.9 209.9 7.1 209.9 7.1 C 209.6 6.9 209.4 6.6 209.1 6.4 C 209.1 6.4 208.9 6.2 208.6 5.9 C 208.4 5.7 207.6 5.6 207.3 5.7 C 207.1 5.8 206.9 6.1 206.6 6.4 C 206.3 6.6 206.4 7.0 206.0 6.7 C 205.7 6.4 205.5 6.1 205.3 6.1 C 205.1 6.1 204.4 6.5 204.4 6.5 C 204.2 6.7 203.9 6.8 203.7 6.9 C 203.7 6.9 203.2 7.1 203.1 6.9 C 203.0 6.6 201.8 7.0 201.8 7.0 C 201.8 7.0 201.9 6.1 201.6 6.0 C 201.3 5.9 200.9 5.7 200.4 5.9 C 199.9 6.0 199.6 6.8 199.6 6.8 C 199.5 6.6 199.3 6.4 199.1 6.2 C 198.7 6.2 198.3 6.1 197.8 6.1 C 197.8 6.1 196.8 6.2 196.8 6.3 C 196.8 6.4 197.0 7.1 196.9 7.3 C 196.9 7.5 196.3 7.8 196.3 7.5 C 196.2 7.3 195.7 6.7 195.7 6.7 C 195.7 6.7 195.3 6.3 195.0 6.2 C 194.7 6.2 194.2 6.4 194.1 6.6 C 194.0 6.7 193.6 7.2 193.6 7.2 C 193.4 7.0 193.3 6.8 193.2 6.6 C 193.2 6.6 192.4 7.0 191.5 6.4 C 191.5 6.4 191.5 6.4 191.5 6.4 Z M 213.8 6.3 C 213.6 6.4 213.4 5.9 212.8 5.8 C 212.2 5.6 211.5 5.6 211.7 5.9 C 211.8 6.2 212.0 6.4 211.7 6.9 C 211.4 7.3 211.1 8.0 211.5 8.2 C 212.0 8.5 213.6 9.1 214.1 8.7 C 214.6 8.4 214.7 8.2 215.1 7.9 C 215.4 7.7 215.2 8.5 215.2 8.5 C 215.2 8.5 216.1 8.6 216.7 8.6 C 217.4 8.6 218.1 8.6 218.2 8.5 C 218.2 8.4 218.5 8.1 218.5 8.1 C 218.5 8.1 218.8 8.4 219.3 8.5 C 219.8 8.5 219.6 8.3 219.5 8.1 C 219.4 8.0 218.8 7.5 219.1 7.5 C 219.3 7.5 219.9 8.2 220.2 8.3 C 220.6 8.4 221.3 8.3 221.3 8.3 C 221.3 8.3 221.2 7.8 221.3 7.7 C 221.4 7.6 222.1 7.5 222.1 7.7 C 222.2 7.9 222.1 8.3 222.5 8.4 C 223.7 8.4 223.5 7.5 223.6 7.5 C 223.7 7.5 223.7 8.1 224.0 8.2 C 224.3 8.3 226.5 8.1 226.6 8.0 C 226.7 7.8 227.5 8.4 227.9 8.0 C 228.2 7.5 228.3 7.4 228.3 7.3 C 228.4 7.2 228.8 6.5 229.0 6.7 C 229.2 7.0 228.4 7.8 228.7 8.0 C 228.9 8.2 230.4 8.2 230.6 8.0 C 230.9 7.6 231.0 7.0 231.2 7.0 C 231.4 7.0 232.2 7.8 232.3 7.7 C 232.4 7.5 232.4 6.8 232.4 6.7 C 232.4 6.6 232.6 5.3 232.5 5.1 C 232.3 5.0 231.4 4.5 231.5 4.9 C 231.7 5.2 231.9 5.7 231.6 5.8 C 231.3 6.0 231.1 6.0 231.1 5.9 C 231.0 5.8 231.1 5.6 230.6 5.4 C 230.1 5.2 230.4 4.9 229.9 4.9 C 229.4 5.0 229.0 5.1 229.1 5.3 C 229.1 5.6 228.6 6.0 228.3 6.0 C 227.9 6.0 228.5 5.4 227.4 5.2 C 226.4 5.0 225.7 4.9 225.4 5.2 C 225.1 5.4 225.0 6.2 224.5 5.9 C 224.0 5.6 224.3 5.4 223.6 5.4 C 222.9 5.4 222.7 6.0 222.2 6.1 C 221.8 6.1 221.7 6.1 221.7 6.1 C 221.7 6.1 221.9 5.3 220.9 5.3 C 219.9 5.2 219.7 5.2 219.9 5.8 C 220.2 6.4 219.4 6.4 219.4 6.0 C 219.3 5.6 218.7 5.4 218.4 5.4 C 218.1 5.3 218.0 6.3 217.9 6.4 C 217.7 6.4 217.3 6.3 217.5 6.0 C 217.6 5.7 217.2 5.7 216.9 5.5 C 216.6 5.4 215.7 5.6 215.7 5.7 C 215.8 5.9 216.2 6.6 215.6 6.2 C 215.0 5.9 214.8 5.4 214.2 5.5 C 213.6 5.5 214.2 6.1 213.8 6.3 C 213.8 6.3 213.8 6.3 213.8 6.3 Z M 232.8 4.8 C 231.8 4.9 232.6 7.5 233.0 8.0 C 233.4 8.5 234.1 8.2 234.8 8.2 C 235.5 8.3 235.2 7.5 235.6 7.2 C 236.0 7.0 235.9 7.5 236.1 7.9 C 236.3 8.3 237.3 7.9 238.0 7.9 C 238.6 7.9 239.3 7.0 239.8 6.9 C 240.3 6.9 239.3 6.5 240.2 6.5 C 241.2 6.5 240.7 7.0 239.7 7.3 C 238.6 7.6 240.1 7.8 240.7 7.9 C 241.3 8.0 242.3 7.5 242.7 7.6 C 243.2 7.6 242.6 6.9 243.3 6.9 C 243.9 6.9 243.6 7.6 244.3 7.7 C 245.0 7.8 244.9 7.2 245.2 7.0 C 245.6 6.8 245.5 7.2 245.8 7.3 C 246.1 7.3 246.6 7.5 247.2 7.3 C 247.8 7.1 247.7 6.9 247.9 6.9 C 248.2 6.8 248.7 6.8 248.7 6.8 C 248.8 7.0 248.8 7.3 248.9 7.5 C 248.9 7.5 250.1 7.5 250.4 7.5 C 250.7 7.6 251.5 7.2 251.3 7.1 C 251.1 7.0 251.9 6.5 252.0 6.6 C 252.2 6.7 252.8 7.0 253.2 7.1 C 253.6 7.3 253.5 5.5 253.4 5.3 C 253.4 5.1 253.6 4.1 253.3 4.0 C 252.9 4.0 252.7 4.3 252.7 4.1 C 252.7 3.8 251.7 4.1 251.4 4.1 C 251.1 4.1 250.8 4.8 250.8 4.8 C 250.8 4.8 250.5 5.3 250.1 5.3 C 249.6 5.4 249.4 4.3 249.4 4.3 C 249.4 4.3 248.8 4.1 248.2 4.2 C 247.7 4.3 247.1 5.2 246.9 5.4 C 246.8 5.6 246.8 4.7 246.4 4.7 C 246.0 4.6 245.4 4.3 245.2 4.4 C 245.1 4.5 244.8 5.0 244.8 5.0 C 244.8 5.0 244.0 5.4 243.9 5.4 C 243.7 5.4 244.0 4.6 244.0 4.6 C 244.0 4.6 242.4 4.4 242.1 4.4 C 241.7 4.3 241.2 4.5 241.0 4.6 C 240.8 4.7 240.5 5.7 240.1 5.6 C 239.8 5.5 240.4 4.9 240.1 4.8 C 239.7 4.8 239.1 4.6 238.9 4.6 C 238.7 4.6 238.5 4.9 238.2 5.0 C 237.9 5.1 237.6 5.8 237.1 5.8 C 236.6 5.9 236.4 5.4 236.2 5.3 C 236.0 5.2 235.9 4.6 235.5 4.6 C 235.2 4.6 235.4 5.0 235.1 5.0 C 234.7 5.0 234.8 5.5 234.4 5.4 C 234.1 5.4 234.2 4.6 233.9 4.7 C 233.7 4.7 233.9 4.7 232.8 4.8 C 232.8 4.8 232.8 4.8 232.8 4.8 Z M 254.2 4.1 C 253.6 3.8 253.2 4.2 253.3 4.6 C 253.4 5.0 253.6 5.9 253.4 6.2 C 253.2 6.5 252.7 7.2 253.6 7.3 C 254.5 7.4 254.6 7.1 254.6 6.9 C 254.6 6.7 254.7 5.6 255.0 5.7 C 255.2 5.8 255.5 6.1 255.5 6.2 C 255.6 6.4 256.0 7.3 256.4 7.2 C 256.8 7.0 257.2 6.7 257.2 6.7 C 257.4 6.7 257.6 6.7 257.8 6.6 C 257.8 6.6 258.5 7.2 258.9 7.1 C 259.4 6.9 259.9 6.9 260.3 6.9 C 260.6 6.9 261.0 6.8 261.0 6.6 C 261.1 6.4 261.5 5.5 261.5 5.5 C 261.5 5.5 262.0 5.3 262.3 5.4 C 262.5 5.5 262.6 6.0 262.5 6.2 C 262.5 6.4 262.6 6.8 262.9 6.9 C 263.3 7.0 264.8 7.4 265.0 7.1 C 265.3 6.8 265.2 6.4 265.4 6.3 C 265.5 6.2 266.5 6.1 266.6 6.4 C 266.7 6.6 266.7 7.1 267.0 7.1 C 267.3 7.0 267.9 7.1 267.9 7.0 C 267.9 6.8 268.0 6.7 268.1 6.4 C 268.1 6.1 268.6 5.9 268.8 5.7 C 268.9 5.6 269.3 5.5 269.3 5.5 C 269.5 5.7 269.7 5.8 269.9 6.0 C 269.9 6.0 269.6 6.5 269.4 6.6 C 269.3 6.7 269.6 7.0 269.8 7.0 C 269.9 7.1 271.0 6.9 271.0 6.9 C 271.0 6.6 271.0 6.2 271.1 5.8 C 271.3 5.7 271.6 5.6 271.9 5.5 C 271.9 5.5 271.8 6.9 272.3 6.8 C 272.9 6.8 273.5 6.8 273.5 6.8 C 273.5 6.8 274.0 6.3 274.2 6.2 C 274.3 6.2 274.3 5.0 274.3 5.0 C 274.3 4.5 274.2 4.0 274.1 3.6 C 274.1 3.6 273.5 3.1 273.1 3.3 C 272.8 3.5 273.1 4.0 273.1 4.3 C 273.0 4.5 272.5 4.7 272.5 4.7 C 272.2 4.5 272.0 4.2 271.7 4.0 C 271.7 4.0 271.5 3.8 271.3 3.6 C 271.0 3.3 270.2 3.2 270.0 3.3 C 269.7 3.4 269.5 3.8 269.2 4.0 C 268.9 4.2 269.0 4.7 268.6 4.3 C 268.3 4.0 268.1 3.7 267.9 3.7 C 267.7 3.7 267.0 4.2 267.0 4.2 C 266.8 4.3 266.6 4.4 266.4 4.5 C 266.4 4.5 265.8 4.8 265.7 4.5 C 265.6 4.2 264.5 4.6 264.5 4.6 C 264.5 4.6 264.6 3.8 264.3 3.6 C 264.0 3.5 263.5 3.4 263.0 3.5 C 262.6 3.7 262.2 4.5 262.2 4.5 C 262.1 4.3 261.9 4.1 261.8 3.9 C 261.3 3.8 260.9 3.8 260.4 3.7 C 260.4 3.7 259.4 3.8 259.4 4.0 C 259.4 4.1 259.6 4.8 259.5 5.0 C 259.5 5.2 259.0 5.4 258.9 5.2 C 258.8 5.0 258.3 4.3 258.3 4.3 C 258.3 4.3 257.9 3.9 257.6 3.9 C 257.3 3.9 256.9 4.1 256.7 4.3 C 256.6 4.4 256.2 4.9 256.2 4.9 C 256.1 4.7 255.9 4.5 255.8 4.3 C 255.8 4.3 255.0 4.7 254.2 4.1 C 254.2 4.1 254.2 4.1 254.2 4.1 Z M 276.4 3.9 C 276.2 4.0 276.0 3.5 275.4 3.4 C 274.8 3.2 274.1 3.2 274.3 3.5 C 274.4 3.8 274.6 4.0 274.4 4.5 C 274.1 4.9 273.8 5.6 274.2 5.8 C 274.6 6.1 276.2 6.7 276.7 6.3 C 277.2 5.9 277.3 5.8 277.7 5.5 C 278.1 5.3 277.9 6.1 277.9 6.1 C 277.9 6.1 278.7 6.1 279.4 6.2 C 280.0 6.2 280.7 6.2 280.8 6.1 C 280.9 5.9 281.1 5.6 281.1 5.6 C 281.1 5.6 281.4 6.0 281.9 6.0 C 282.4 6.1 282.2 5.9 282.1 5.7 C 282.1 5.5 281.5 5.0 281.7 5.0 C 281.9 5.0 282.5 5.8 282.9 5.8 C 283.2 5.9 283.9 5.8 283.9 5.8 C 283.9 5.8 283.9 5.4 283.9 5.3 C 284.0 5.2 284.7 5.1 284.8 5.2 C 284.8 5.4 284.8 5.9 285.1 5.9 C 286.3 5.9 286.1 5.0 286.2 5.0 C 286.3 5.0 286.3 5.7 286.6 5.8 C 286.9 5.9 289.2 5.7 289.3 5.5 C 289.4 5.3 290.2 5.9 290.5 5.5 C 290.8 5.0 290.9 4.9 291.0 4.8 C 291.0 4.7 291.4 4.0 291.6 4.2 C 291.9 4.5 291.0 5.3 291.3 5.5 C 291.6 5.7 293.0 5.7 293.2 5.5 C 293.5 5.1 293.6 4.5 293.8 4.5 C 294.0 4.5 294.9 5.3 294.9 5.1 C 295.0 5.0 295.1 4.3 295.0 4.2 C 295.0 4.0 295.3 2.8 295.1 2.6 C 294.9 2.5 294.0 2.0 294.2 2.4 C 294.3 2.7 294.5 3.2 294.2 3.3 C 293.9 3.5 293.7 3.5 293.7 3.4 C 293.6 3.3 293.8 3.1 293.2 2.9 C 292.7 2.7 293.0 2.4 292.5 2.4 C 292.0 2.5 291.6 2.6 291.7 2.8 C 291.7 3.1 291.2 3.5 290.9 3.5 C 290.6 3.5 291.1 2.9 290.0 2.7 C 289.0 2.5 288.3 2.5 288.0 2.7 C 287.7 3.0 287.7 3.7 287.1 3.4 C 286.6 3.1 286.9 2.9 286.2 2.9 C 285.5 3.0 285.3 3.6 284.9 3.6 C 284.4 3.7 284.3 3.6 284.3 3.6 C 284.3 3.6 284.5 2.8 283.5 2.8 C 282.5 2.8 282.3 2.7 282.6 3.3 C 282.8 3.9 282.0 4.0 282.0 3.6 C 281.9 3.2 281.4 3.0 281.0 2.9 C 280.7 2.9 280.6 3.9 280.5 3.9 C 280.3 4.0 280.0 3.9 280.1 3.6 C 280.2 3.3 279.8 3.2 279.5 3.1 C 279.2 3.0 278.3 3.1 278.4 3.3 C 278.4 3.5 278.8 4.1 278.2 3.8 C 277.6 3.5 277.4 3.0 276.8 3.1 C 276.3 3.1 276.8 3.7 276.4 3.9 C 276.4 3.9 276.4 3.9 276.4 3.9 Z M 295.4 2.3 C 294.4 2.3 295.2 5.0 295.6 5.5 C 296.0 6.0 296.7 5.6 297.4 5.7 C 298.1 5.8 297.9 4.9 298.3 4.7 C 298.7 4.4 298.5 5.0 298.7 5.4 C 298.9 5.7 300.0 5.3 300.6 5.4 C 301.3 5.4 301.9 4.5 302.4 4.4 C 302.9 4.3 301.9 3.9 302.9 3.9 C 303.8 4.0 303.4 4.5 302.3 4.8 C 301.3 5.1 302.8 5.3 303.3 5.3 C 303.9 5.4 304.9 5.0 305.4 5.0 C 305.8 5.0 305.2 4.4 305.9 4.4 C 306.6 4.4 306.2 5.1 306.9 5.1 C 307.6 5.2 307.5 4.6 307.8 4.4 C 308.2 4.3 308.1 4.6 308.4 4.7 C 308.7 4.7 309.2 4.9 309.8 4.7 C 310.5 4.5 310.3 4.4 310.6 4.3 C 310.8 4.2 311.4 4.2 311.4 4.2 C 311.4 4.4 311.5 4.7 311.5 4.9 C 311.5 4.9 312.7 4.9 313.0 4.9 C 313.4 5.0 314.2 4.6 313.9 4.5 C 313.7 4.4 314.5 3.9 314.7 4.0 C 314.8 4.1 315.4 4.4 315.9 4.5 C 316.3 4.6 316.1 2.9 316.1 2.7 C 316.1 2.4 316.2 1.5 315.9 1.4 C 315.5 1.3 315.3 1.7 315.3 1.4 C 315.4 1.2 314.3 1.5 314.0 1.5 C 313.7 1.5 313.4 2.2 313.4 2.2 C 313.4 2.2 313.2 2.7 312.7 2.7 C 312.2 2.7 312.0 1.7 312.0 1.7 C 312.0 1.7 311.4 1.5 310.8 1.6 C 310.3 1.7 309.7 2.6 309.6 2.8 C 309.5 3.0 309.4 2.2 309.0 2.1 C 308.6 2.0 308.0 1.8 307.8 1.8 C 307.7 1.9 307.4 2.4 307.4 2.4 C 307.4 2.4 306.7 2.8 306.5 2.8 C 306.3 2.8 306.6 2.0 306.6 2.0 C 306.6 2.0 305.0 1.8 304.7 1.8 C 304.3 1.7 303.8 2.0 303.6 2.0 C 303.4 2.1 303.1 3.1 302.7 3.0 C 302.4 2.9 303.0 2.4 302.7 2.3 C 302.3 2.2 301.7 2.0 301.5 2.0 C 301.3 2.1 301.1 2.4 300.8 2.5 C 300.5 2.5 300.2 3.3 299.7 3.3 C 299.2 3.3 299.0 2.9 298.8 2.8 C 298.6 2.7 298.5 2.1 298.1 2.1 C 297.8 2.1 298.0 2.5 297.7 2.5 C 297.4 2.5 297.4 3.0 297.0 2.9 C 296.7 2.8 296.9 2.0 296.5 2.2 C 296.3 2.2 296.5 2.2 295.4 2.3 C 295.4 2.3 295.4 2.3 295.4 2.3 Z M 295.4 2.3 " fill="#71AFE1"></path></g></svg>