<?xml version="1.0" encoding="UTF-8" standalone="no"?><svg xmlns="http://www.w3.org/2000/svg" xmlns:xlink="http://www.w3.org/1999/xlink" clip-rule="evenodd" stroke-miterlimit="4.00" viewBox="0 0 178 120"><desc>SVG generated by Keynote</desc><defs></defs><g transform="matrix(1.00, 0.00, -0.00, -1.00, 0.0, 120.0)"><path d="M 133.7 97.4 C 165.8 98.6 172.0 82.8 147.4 62.0 C 122.8 41.2 76.9 23.4 44.7 22.2 C 12.6 20.9 6.4 36.8 31.0 57.6 C 55.5 78.4 101.5 96.2 133.7 97.4 Z M 133.7 97.4 " fill="#A8E685"></path><path d="M 60.5 19.9 C 60.2 19.9 60.0 19.9 59.5 19.9 C 59.7 20.0 59.8 20.0 59.8 20.2 C 60.2 20.1 60.7 20.2 61.4 20.3 C 61.4 20.3 61.0 20.2 60.8 20.2 C 60.5 20.1 60.5 20.0 60.5 19.9 C 60.5 19.9 60.5 19.9 60.5 19.9 Z M 37.2 66.5 C 36.7 66.2 37.1 66.8 37.3 66.9 C 37.4 66.9 37.4 66.9 37.6 67.0 C 37.5 67.2 37.1 66.9 36.7 66.8 C 35.3 65.7 36.6 66.1 37.2 66.5 C 37.2 66.5 37.2 66.5 37.2 66.5 Z M 119.9 99.2 C 121.2 99.4 119.8 99.0 119.6 98.9 C 120.2 98.9 119.8 98.4 120.6 98.5 C 120.7 98.7 121.0 98.8 121.2 98.9 C 120.8 98.9 120.3 98.8 120.2 98.9 C 120.7 99.0 121.4 99.0 121.4 99.1 C 120.4 99.0 121.2 99.3 121.4 99.5 C 120.5 99.4 120.1 99.5 119.9 99.2 C 119.9 99.2 119.9 99.2 119.9 99.2 Z M 156.0 66.5 C 156.4 66.9 156.7 67.2 156.5 67.2 C 156.1 66.8 155.9 66.5 155.7 66.2 C 155.6 66.2 155.6 66.4 155.2 66.1 C 155.0 65.5 155.4 65.5 155.7 65.6 C 155.6 65.8 156.9 67.2 156.0 66.5 C 156.0 66.5 156.0 66.5 156.0 66.5 Z M 125.1 44.4 C 124.1 43.6 124.9 44.6 123.8 43.9 C 124.0 43.8 123.9 43.4 124.7 43.8 C 124.7 44.0 125.1 44.2 125.1 44.4 C 125.1 44.4 125.1 44.4 125.1 44.4 Z M 84.1 88.0 C 84.0 88.1 84.9 88.4 84.6 88.5 C 84.2 88.3 83.8 88.2 83.3 88.0 C 83.3 87.8 83.5 87.8 84.1 88.0 C 84.1 88.0 84.1 88.0 84.1 88.0 Z M 129.1 98.0 C 130.4 98.4 131.8 98.1 131.4 98.3 C 131.9 98.5 130.4 98.9 130.5 98.6 C 130.4 98.4 128.1 97.9 129.1 98.0 C 129.1 98.0 129.1 98.0 129.1 98.0 Z M 45.4 67.0 C 46.6 68.0 46.7 67.2 47.3 68.0 C 47.0 67.8 46.9 67.8 46.7 67.8 C 46.9 68.0 47.3 68.1 47.2 68.2 C 46.6 67.9 45.8 67.5 45.4 67.0 C 45.4 67.0 45.4 67.0 45.4 67.0 Z M 82.2 25.6 C 82.5 25.6 82.6 25.6 82.6 25.5 C 83.6 25.8 83.6 25.7 84.2 26.0 C 84.2 26.3 83.3 25.9 82.6 25.7 C 82.5 25.7 82.2 25.7 82.2 25.6 C 82.2 25.6 82.2 25.6 82.2 25.6 Z M 110.4 36.9 C 110.4 36.7 109.9 36.4 110.8 36.7 C 111.7 37.4 110.7 37.2 109.6 36.9 C 109.5 37.0 109.5 37.1 109.5 37.2 C 109.9 37.4 110.1 37.5 110.4 37.7 C 110.7 37.4 111.1 38.3 112.8 38.9 C 112.0 38.7 112.7 39.3 111.8 38.7 C 111.9 39.1 111.2 38.7 111.3 39.0 C 111.8 39.0 112.8 39.6 112.7 39.2 C 113.2 39.4 113.6 39.6 113.9 39.8 C 114.2 40.2 112.9 39.4 113.1 39.8 C 113.4 40.0 113.5 40.1 113.7 40.2 C 113.8 40.1 113.8 39.9 114.1 40.1 C 115.1 40.7 113.8 40.3 115.2 41.0 C 115.4 40.9 114.9 40.7 115.0 40.5 C 115.7 40.7 115.6 40.9 116.3 41.1 C 116.3 41.2 115.8 41.0 116.2 41.3 C 116.7 41.1 117.4 42.1 118.3 42.2 C 118.0 41.5 118.4 42.4 119.4 42.3 C 119.5 42.6 118.8 42.6 119.5 42.9 C 119.5 42.2 122.1 43.8 120.2 42.2 C 121.4 42.8 122.0 42.6 121.1 42.0 C 123.0 43.2 122.5 42.5 123.3 42.9 C 124.0 43.3 122.8 42.8 123.1 43.2 C 122.3 42.8 122.5 43.0 121.9 42.6 C 121.9 42.7 121.7 42.7 121.5 42.6 C 122.4 42.9 123.2 43.7 122.5 43.7 C 122.1 43.4 122.6 43.4 122.1 43.1 C 122.1 43.5 121.5 42.7 121.4 42.9 C 121.6 43.4 120.3 43.0 121.4 43.6 C 121.5 43.5 121.5 43.4 121.6 43.3 C 121.9 43.4 122.2 43.6 122.4 43.7 C 122.6 44.1 122.3 44.1 122.5 44.3 C 123.0 44.6 123.3 44.7 123.5 44.7 C 122.9 44.3 122.3 43.7 123.3 44.2 C 122.7 44.4 124.7 45.1 123.7 44.9 C 124.7 45.6 125.5 45.6 125.4 45.9 C 126.0 46.2 125.7 45.8 126.4 46.2 C 127.3 46.9 127.3 46.5 128.6 47.5 C 129.0 47.3 128.7 47.7 129.1 47.9 C 129.2 47.8 129.3 47.7 129.3 47.6 C 129.7 48.0 130.8 48.8 132.0 49.3 C 132.3 49.5 132.0 49.6 132.7 50.0 C 133.7 50.2 134.4 51.1 135.6 51.4 C 135.5 51.6 136.2 52.0 136.6 52.1 C 136.7 52.3 136.0 52.3 136.6 52.6 C 137.1 52.7 136.5 52.2 137.3 52.6 C 137.1 52.8 138.2 53.0 138.1 53.2 C 137.8 53.1 137.5 53.0 137.2 52.9 C 137.5 53.1 137.3 53.2 137.6 53.4 C 137.7 53.1 138.2 53.7 138.4 53.9 C 138.4 53.8 138.6 53.7 138.8 53.8 C 139.2 54.1 139.6 54.3 139.8 54.4 C 140.3 54.9 139.4 54.4 139.9 54.8 C 140.6 54.5 140.7 55.4 142.1 55.9 C 142.2 56.3 142.6 56.7 143.3 57.3 C 143.5 57.2 142.7 56.7 142.8 56.5 C 143.8 57.4 142.7 56.3 143.3 56.8 C 144.7 58.0 145.7 58.7 147.0 60.1 C 147.1 59.9 148.3 60.7 148.2 60.8 C 147.9 60.5 149.0 61.8 149.8 62.5 C 150.2 62.4 151.7 63.2 151.9 63.1 C 152.0 63.5 151.9 63.5 151.8 63.8 C 153.0 65.1 153.8 65.4 154.2 66.4 C 154.3 66.2 154.9 66.8 155.3 67.2 C 155.1 67.2 154.7 67.0 154.4 66.9 C 155.0 67.4 155.0 67.6 155.5 68.1 C 156.5 68.2 156.6 69.6 157.4 69.6 C 158.1 70.5 157.8 70.5 158.4 71.3 C 158.5 71.2 158.7 71.2 158.9 71.4 C 158.4 70.9 158.0 70.6 158.0 70.2 C 159.0 71.3 156.7 67.5 158.5 69.3 C 158.4 69.4 158.1 69.4 158.5 69.8 C 159.4 70.8 159.1 70.0 158.7 69.6 C 159.4 70.3 159.9 71.1 159.7 70.3 C 161.0 72.0 160.1 71.0 160.4 71.7 C 162.7 74.6 164.8 78.3 165.0 82.2 C 165.4 82.3 165.2 84.4 165.0 85.0 C 165.2 86.1 165.1 87.2 164.7 87.4 C 164.9 87.7 164.1 88.5 164.4 88.7 C 164.5 88.3 164.7 88.1 164.6 88.5 C 164.0 89.9 162.7 91.7 162.3 92.6 C 161.7 92.8 161.1 93.5 160.6 94.1 C 160.5 94.1 160.8 93.7 160.5 93.9 C 160.5 94.1 159.4 95.2 159.0 95.2 C 159.4 95.0 159.6 94.5 159.1 94.8 C 159.2 95.0 158.5 95.3 158.7 95.4 C 157.9 95.8 157.4 96.3 156.6 96.5 C 157.2 96.2 157.5 95.9 157.5 95.7 C 157.1 96.1 156.7 96.4 156.2 96.4 C 156.5 96.7 155.5 96.9 154.6 97.4 C 154.3 97.4 154.0 97.4 153.2 97.7 C 152.9 98.0 154.6 97.5 153.7 97.8 C 153.6 97.7 152.7 97.9 153.0 98.1 C 151.9 98.3 151.3 98.6 150.3 98.7 C 151.5 98.4 150.5 98.3 150.2 98.3 C 149.9 98.4 149.5 98.5 149.5 98.6 C 149.5 98.7 150.2 98.5 150.3 98.6 C 149.4 98.7 149.2 99.1 148.8 99.0 C 149.2 98.9 149.3 98.7 148.8 98.8 C 148.8 99.2 146.0 99.4 146.9 99.1 C 146.9 99.2 148.0 99.0 148.1 98.9 C 147.7 98.8 146.2 99.2 146.5 98.9 C 147.4 98.7 147.4 98.9 148.4 98.6 C 148.5 98.5 149.1 98.3 149.4 98.1 C 147.8 98.5 147.5 98.8 147.2 98.5 C 146.5 98.7 147.0 98.9 145.7 99.0 C 143.9 99.1 145.4 98.7 144.9 98.7 C 143.3 99.0 143.8 99.3 144.5 99.5 C 143.2 99.6 142.8 99.8 141.1 99.8 C 141.2 99.6 141.4 99.5 142.0 99.4 C 142.0 99.5 143.4 99.6 143.3 99.4 C 143.1 99.1 142.0 99.0 140.2 99.0 C 140.7 99.4 140.7 99.2 138.9 99.2 C 139.2 99.6 138.0 99.2 137.9 99.4 C 138.0 99.5 138.7 99.5 139.3 99.5 C 139.3 99.6 139.1 99.8 138.4 99.8 C 138.0 99.7 137.7 99.9 136.5 99.7 C 136.5 99.5 137.3 99.5 137.5 99.3 C 136.8 99.4 136.7 99.5 136.0 99.5 C 135.5 99.3 135.5 98.9 135.6 98.6 C 136.3 98.6 137.5 98.6 136.6 98.4 C 139.3 98.4 136.4 98.7 137.5 98.8 C 138.6 98.4 138.0 98.9 139.7 98.8 C 140.3 98.8 140.4 98.7 140.6 98.6 C 140.5 98.6 139.5 98.4 140.6 98.3 C 140.9 98.5 141.5 98.5 142.4 98.5 C 142.3 98.4 140.6 98.4 142.3 98.3 C 143.2 98.2 142.5 98.6 143.6 98.5 C 143.6 98.4 143.9 98.4 144.0 98.3 C 142.3 98.5 144.3 98.1 143.2 98.1 C 144.6 97.8 143.4 98.3 144.4 98.2 C 144.4 98.0 145.9 98.1 145.9 97.8 C 145.4 98.0 144.2 98.1 144.3 97.9 C 145.4 97.8 149.8 96.8 148.2 97.5 C 148.8 97.3 151.6 96.2 151.5 96.4 C 150.6 96.7 150.7 96.8 150.6 97.0 C 152.2 96.3 153.0 96.3 154.4 95.3 C 152.8 96.0 153.9 95.1 152.8 95.3 C 152.3 95.4 151.7 95.6 151.6 95.7 C 151.9 95.9 152.6 95.6 152.8 95.3 C 152.9 95.5 153.0 95.7 153.0 95.9 C 151.0 96.4 149.9 96.9 148.8 97.0 C 149.7 96.8 147.0 97.0 148.0 96.8 C 148.5 96.8 149.6 96.6 150.5 96.5 C 150.5 96.4 150.4 96.3 150.4 96.2 C 150.8 96.1 151.3 96.0 151.3 95.9 C 150.2 96.3 149.5 96.2 148.7 96.5 C 148.7 96.5 148.7 96.4 148.7 96.4 C 148.5 96.4 148.3 96.5 148.3 96.4 C 148.7 96.3 149.3 96.2 149.3 96.1 C 148.4 96.2 148.2 96.0 147.2 96.2 C 147.4 95.9 146.0 95.8 147.4 95.4 C 147.7 95.6 148.5 95.5 148.5 95.7 C 149.0 95.7 149.8 95.4 150.2 95.2 C 149.7 95.2 148.9 95.3 148.8 95.1 C 149.4 94.9 149.9 94.6 150.4 94.8 C 149.1 95.2 151.1 94.8 151.7 94.9 C 151.5 94.8 151.2 94.8 151.0 94.8 C 152.0 94.5 152.5 94.5 152.4 94.1 C 153.5 93.7 153.3 94.0 154.0 93.7 C 153.4 93.6 154.4 93.4 153.8 93.2 C 154.9 92.7 154.3 93.4 154.7 93.2 C 155.0 93.0 155.0 92.9 155.3 92.7 C 155.8 92.6 156.7 92.1 157.0 92.3 C 157.3 92.0 157.5 92.1 157.8 91.8 C 157.8 91.6 157.9 91.5 158.0 91.3 C 158.1 91.4 158.4 91.2 158.4 91.1 C 157.3 91.6 157.5 91.3 156.4 91.8 C 156.4 91.9 156.2 92.1 156.5 92.0 C 155.8 92.5 155.5 92.5 154.8 92.9 C 154.6 92.7 154.3 92.5 153.7 93.0 C 153.8 92.7 153.6 92.7 153.8 92.5 C 154.2 92.5 154.8 92.4 155.3 92.2 C 155.3 92.1 155.1 92.0 155.4 91.9 C 155.6 91.9 156.0 91.7 156.2 91.4 C 156.3 91.5 156.2 91.7 156.1 91.8 C 157.1 91.2 156.6 91.2 157.3 90.8 C 157.1 90.8 156.7 91.1 157.0 90.7 C 157.5 90.2 157.7 90.3 157.9 90.1 C 157.9 90.0 157.8 89.9 158.0 89.8 C 158.4 89.6 157.5 90.9 158.4 90.5 C 158.3 90.3 158.9 89.8 159.1 89.8 C 159.0 90.1 158.5 90.3 158.6 90.4 C 159.7 89.4 159.0 90.7 160.0 89.5 C 159.9 89.5 159.8 89.4 159.7 89.4 C 159.4 89.9 159.2 89.7 159.1 89.6 C 158.7 89.9 158.4 89.9 158.2 90.3 C 158.0 89.9 158.5 90.0 158.8 89.6 C 158.6 89.5 158.3 89.8 158.1 89.7 C 159.1 89.0 158.9 88.6 159.7 87.9 C 159.3 88.0 159.9 87.3 159.7 87.3 C 159.4 88.1 158.9 87.5 158.8 87.6 C 158.5 88.0 159.0 88.1 159.0 88.4 C 158.7 88.4 158.6 88.3 158.4 88.0 C 158.7 87.7 158.6 87.7 158.7 87.4 C 159.0 87.2 159.5 87.1 159.5 87.6 C 159.5 87.5 159.6 86.8 159.8 86.9 C 159.6 87.4 159.9 86.8 159.9 87.2 C 160.2 86.8 160.1 85.9 160.4 85.3 C 160.3 85.3 160.3 85.1 160.1 85.1 C 160.3 85.7 159.8 85.8 159.6 86.3 C 159.6 86.1 159.5 86.2 159.4 86.2 C 159.6 85.8 159.5 85.5 159.7 85.1 C 159.7 85.1 159.6 85.1 159.5 85.0 C 159.7 84.4 159.7 84.5 159.4 83.9 C 159.6 83.7 160.0 84.0 160.2 84.0 C 160.1 83.8 160.1 82.7 159.9 83.3 C 159.8 82.7 160.2 82.8 160.0 82.1 C 159.7 82.1 159.9 82.8 159.5 82.6 C 159.4 82.0 159.8 82.3 159.4 81.8 C 159.6 81.7 159.8 81.7 159.6 81.1 C 159.6 81.6 159.5 81.1 159.3 80.9 C 159.4 81.2 159.4 81.4 159.4 81.6 C 159.2 80.6 159.1 80.3 158.6 79.5 C 159.0 79.7 158.9 79.1 159.2 79.7 C 158.8 79.2 158.8 78.3 158.5 78.1 C 158.6 78.5 158.9 79.1 158.8 79.4 C 158.0 77.6 157.1 76.7 156.1 74.7 C 156.4 75.0 156.6 75.4 156.7 75.4 C 156.6 75.2 156.4 74.9 156.4 74.8 C 156.9 75.5 157.3 76.1 157.5 76.4 C 157.8 77.0 157.2 76.1 157.5 76.7 C 157.7 76.7 158.1 77.9 158.2 77.3 C 157.5 76.5 157.1 75.4 157.1 74.8 C 156.1 74.1 156.7 75.0 155.6 74.2 C 155.7 74.2 155.6 73.9 155.4 73.6 C 155.4 74.1 154.5 72.7 154.4 72.6 C 154.9 72.9 156.4 74.6 156.0 73.5 C 155.8 74.3 154.4 71.3 154.5 72.1 C 153.4 70.9 154.0 71.1 153.2 70.7 C 153.3 70.6 153.5 70.6 153.2 70.2 C 152.8 69.9 152.7 69.8 152.5 69.7 C 154.0 71.6 153.3 71.3 154.1 72.3 C 154.0 72.2 153.8 72.0 153.8 72.1 C 153.8 72.1 153.7 72.1 153.6 71.9 C 153.7 71.6 152.7 71.0 152.7 70.7 C 153.0 71.0 153.3 71.3 153.3 71.1 C 152.0 69.7 152.5 69.8 150.6 67.7 C 151.1 68.4 150.2 67.6 149.5 66.9 C 148.5 65.9 149.2 66.0 147.8 64.8 C 147.5 65.4 146.3 63.4 145.0 62.9 C 145.3 62.7 144.1 61.5 143.6 61.5 C 143.6 61.4 143.1 61.1 142.8 60.8 C 142.8 60.6 143.2 60.9 142.9 60.6 C 142.6 60.4 142.7 60.8 142.3 60.5 C 141.9 60.1 142.1 59.9 141.4 59.4 C 141.2 59.6 141.6 59.8 141.2 59.7 C 140.6 59.1 140.0 58.7 140.4 59.3 C 139.4 58.6 140.1 58.6 139.2 57.9 C 139.4 58.2 139.3 58.3 138.8 57.9 C 138.6 57.5 138.6 57.4 138.6 57.3 C 138.2 57.2 138.2 57.3 137.5 56.7 C 137.4 56.8 137.4 56.9 137.3 57.0 C 137.0 56.7 136.4 56.4 136.4 56.3 C 137.0 56.8 137.0 56.4 137.3 56.6 C 136.6 56.1 135.4 55.0 136.3 55.9 C 135.3 55.3 135.9 55.4 135.1 54.9 C 135.4 55.5 135.1 55.0 134.3 54.5 C 134.2 54.8 133.8 54.2 133.2 53.9 C 133.2 54.1 133.0 54.1 132.6 53.8 C 132.7 53.7 132.4 53.5 131.9 53.2 C 131.8 53.3 132.8 54.1 131.7 53.4 C 131.3 53.0 131.4 52.8 130.6 52.2 C 130.5 51.9 131.4 52.6 131.4 52.2 C 130.6 52.0 130.4 51.7 129.5 51.1 C 129.6 51.7 127.2 50.4 128.2 51.3 C 127.9 51.1 127.3 51.1 127.1 50.7 C 127.5 50.9 127.0 50.3 127.0 50.3 C 126.5 50.1 125.4 49.3 125.3 49.4 C 126.4 50.0 126.3 50.2 126.5 50.5 C 124.9 49.7 123.6 48.9 123.9 48.7 C 123.8 48.8 123.6 48.7 123.5 48.7 C 124.1 48.9 124.2 49.5 123.6 49.2 C 123.8 49.0 123.4 48.7 123.0 48.4 C 122.8 48.6 120.9 47.1 121.1 47.7 C 122.1 47.9 122.5 48.6 121.8 48.4 C 121.4 47.9 120.3 47.2 120.7 47.2 C 120.3 47.1 120.0 47.0 119.7 46.9 C 119.3 47.0 120.0 47.3 119.8 47.4 C 119.4 47.2 118.7 46.9 118.7 46.7 C 119.8 47.3 118.1 46.3 119.4 46.8 C 118.7 46.4 118.6 46.2 118.0 45.9 C 118.0 45.9 117.7 45.8 117.6 45.9 C 118.2 46.0 118.7 46.4 118.4 46.5 C 117.3 46.0 117.6 45.8 116.8 45.4 C 116.4 45.4 115.1 45.1 114.5 44.7 C 115.7 45.3 114.5 44.5 115.2 44.7 C 116.2 45.4 116.6 45.3 117.1 45.3 C 116.7 45.0 115.9 44.5 115.6 44.7 C 116.2 45.0 116.3 44.9 116.6 45.0 C 116.5 45.1 116.3 45.1 115.9 45.0 C 115.4 44.6 114.3 44.2 115.1 44.2 C 114.3 44.0 113.6 43.4 112.7 43.2 C 113.6 43.6 114.2 44.0 114.3 44.3 C 113.6 44.0 113.0 43.4 112.9 43.6 C 112.9 43.8 114.1 44.3 114.2 44.6 C 113.2 44.4 112.0 43.1 113.0 44.1 C 112.5 43.8 111.7 43.5 111.6 43.2 C 112.2 43.5 111.6 42.9 111.4 42.7 C 110.8 42.5 110.4 42.3 110.1 42.3 C 111.0 42.6 111.5 43.2 110.9 43.0 C 110.8 42.8 110.6 42.8 110.3 42.8 C 110.3 42.6 109.3 42.2 109.2 42.0 C 109.2 42.2 109.6 42.4 109.7 42.5 C 109.1 42.4 108.1 42.3 107.8 41.8 C 108.2 41.9 108.7 42.2 108.7 42.1 C 107.3 41.1 106.9 40.6 105.1 39.6 C 105.3 39.7 105.5 39.7 105.4 39.6 C 104.2 39.1 103.5 38.6 103.7 38.5 C 102.9 38.3 102.5 38.2 102.0 38.2 C 102.8 38.6 103.1 38.5 103.5 38.9 C 103.2 38.8 104.0 39.6 104.2 39.9 C 105.7 40.2 105.6 40.7 107.0 41.1 C 106.5 41.2 108.0 41.6 107.5 41.6 C 106.4 40.8 105.1 40.5 103.3 39.6 C 103.6 39.5 103.9 39.4 103.2 39.0 C 102.0 38.4 102.5 39.0 101.5 38.5 C 101.2 38.1 101.8 38.3 101.3 38.1 C 100.9 38.0 100.0 37.6 99.8 37.3 C 101.1 37.8 99.6 37.0 100.5 37.2 C 100.1 37.1 99.9 36.9 99.6 36.8 C 100.8 37.6 98.2 36.6 99.1 37.2 C 97.3 36.6 99.2 36.6 97.7 36.1 C 98.4 36.5 97.4 36.2 96.4 35.8 C 96.2 35.5 95.1 35.0 94.3 34.6 C 94.7 34.9 95.0 35.1 94.2 34.9 C 94.6 35.2 95.3 35.4 95.8 35.5 C 95.7 35.6 95.9 35.7 96.0 35.8 C 95.0 35.5 95.3 35.8 95.0 35.7 C 94.7 35.5 93.9 35.2 93.8 35.0 C 93.8 35.1 93.5 35.0 93.4 35.0 C 94.8 35.6 93.1 35.3 93.9 35.6 C 94.5 35.9 94.2 35.5 95.0 35.8 C 95.6 36.3 94.3 35.9 93.8 35.9 C 94.4 36.4 95.2 36.3 95.3 36.7 C 94.4 36.6 93.2 36.0 92.2 35.5 C 92.1 35.9 90.4 34.8 90.1 35.2 C 90.0 35.0 89.9 34.9 89.6 34.7 C 89.2 34.9 89.0 34.4 88.7 34.3 C 88.6 34.4 88.7 34.6 88.9 34.7 C 87.6 34.2 87.3 34.1 85.7 33.7 C 85.5 33.5 85.3 33.2 85.2 33.0 C 85.6 33.1 86.0 33.2 86.2 33.2 C 84.1 32.5 85.3 33.5 83.9 32.7 C 83.9 32.8 84.9 33.4 84.1 33.2 C 82.8 32.5 80.9 32.2 81.1 31.6 C 80.0 31.0 79.1 31.2 78.6 30.8 C 78.3 30.7 78.1 30.7 77.9 30.7 C 78.3 31.0 78.7 31.2 79.1 31.5 C 79.8 31.6 80.1 31.9 79.5 31.4 C 80.6 31.6 80.8 31.9 81.3 32.1 C 79.8 31.9 78.5 31.3 78.4 31.6 C 77.9 31.3 77.6 31.1 77.3 30.8 C 77.1 30.9 75.4 30.6 75.3 30.3 C 76.4 30.7 77.7 30.7 76.7 30.2 C 74.0 29.7 72.6 28.9 70.1 28.6 C 70.1 28.4 70.3 28.3 69.9 28.2 C 69.9 28.3 69.8 28.4 69.5 28.4 C 68.8 28.2 68.4 28.0 67.4 27.9 C 67.5 27.7 67.4 27.4 66.8 27.3 C 66.5 27.4 65.4 27.7 64.8 27.5 C 65.4 27.6 64.7 27.2 64.3 27.1 C 64.6 27.5 61.6 26.3 62.4 26.8 C 61.2 26.6 60.7 26.4 60.7 26.2 C 60.2 26.2 59.9 26.2 59.5 26.2 C 59.3 25.8 57.1 25.7 56.8 25.5 C 57.5 25.8 57.7 25.4 57.2 25.3 C 56.7 25.5 54.8 25.4 54.5 25.3 C 54.6 25.2 54.8 25.0 55.7 25.1 C 54.1 24.8 54.1 25.2 53.6 25.3 C 53.7 25.0 52.9 25.2 52.7 25.2 C 52.2 25.0 52.7 25.1 52.7 24.9 C 52.2 24.8 52.0 24.7 51.3 24.6 C 51.5 24.9 50.7 24.7 50.5 24.6 C 50.3 24.8 49.9 24.8 49.3 24.8 C 50.2 24.5 45.8 24.1 46.8 24.5 C 45.9 24.7 46.0 24.1 44.9 24.1 C 44.7 24.3 44.1 24.2 44.6 24.4 C 43.8 24.4 44.0 24.1 42.3 24.2 C 43.0 24.5 40.5 24.1 40.9 24.5 C 40.2 24.0 38.8 24.6 37.5 24.3 C 37.5 24.4 37.1 24.4 37.1 24.5 C 36.9 24.6 38.7 24.6 37.5 24.7 C 36.1 24.6 36.9 24.5 36.7 24.4 C 33.0 24.7 29.2 25.3 26.5 26.1 C 26.9 26.1 26.9 26.2 26.3 26.4 C 25.4 26.2 22.9 27.7 22.7 28.0 C 22.3 27.9 21.4 28.8 21.2 28.9 C 21.4 28.7 21.6 28.2 21.2 28.5 C 21.1 29.0 20.7 29.1 20.5 29.6 C 20.1 29.5 19.5 30.7 19.5 29.9 C 19.3 30.1 19.2 30.2 19.1 30.3 C 19.3 30.5 19.1 30.7 19.5 30.4 C 18.7 31.2 18.8 31.6 18.3 32.3 C 18.4 32.4 18.7 31.9 18.6 32.4 C 18.5 32.4 18.5 32.3 18.4 32.3 C 18.4 32.5 18.5 32.6 18.3 32.6 C 18.2 32.5 18.3 32.3 18.1 32.2 C 18.0 32.6 17.6 32.8 17.8 33.0 C 18.0 32.4 18.3 32.9 18.0 33.2 C 17.9 32.9 17.8 34.6 17.9 35.2 C 17.6 35.4 17.9 34.5 17.7 34.6 C 17.7 35.7 17.6 35.6 17.9 35.7 C 17.9 36.3 17.7 36.6 18.0 37.3 C 18.0 37.8 17.8 37.1 17.9 37.6 C 18.0 37.9 18.2 37.9 18.3 38.4 C 18.1 39.7 20.3 42.4 20.7 44.4 C 20.4 43.7 21.1 44.4 21.7 45.3 C 21.6 45.4 21.4 45.4 21.7 45.7 C 21.8 45.6 22.0 45.8 22.5 46.4 C 22.4 46.5 22.2 46.5 22.5 46.8 C 22.9 46.9 23.3 47.8 23.7 48.1 C 23.7 48.5 22.8 47.2 22.6 47.2 C 23.6 48.8 24.0 48.9 25.0 50.1 C 24.4 49.5 25.2 50.7 25.3 50.9 C 25.3 50.4 26.2 51.3 25.7 50.5 C 26.1 50.9 26.8 51.6 26.8 51.7 C 26.6 51.5 26.2 51.1 26.2 51.2 C 26.7 51.7 27.2 52.6 27.7 52.7 C 27.3 52.3 27.1 52.0 27.2 51.9 C 27.4 52.0 27.7 52.1 28.0 52.4 C 26.7 52.0 29.5 54.3 29.8 54.3 C 29.8 54.8 30.0 55.0 29.8 55.0 C 31.0 56.1 31.0 55.7 31.8 56.3 C 31.4 56.4 31.3 56.5 31.9 57.2 C 31.9 56.8 32.7 57.6 32.7 57.1 C 34.5 58.5 34.7 59.0 35.8 59.9 C 35.9 59.8 35.6 59.5 35.9 59.8 C 36.4 60.2 36.8 60.7 37.1 61.0 C 37.5 61.1 37.1 60.8 37.5 61.0 C 38.3 61.8 37.9 61.9 38.5 62.6 C 39.6 63.1 39.2 63.0 39.9 63.2 C 39.7 63.0 39.4 62.6 39.8 62.9 C 40.2 63.5 40.3 63.9 40.4 64.0 C 40.0 63.7 39.7 63.5 39.5 63.3 C 39.3 63.3 38.7 62.9 39.1 63.4 C 38.5 62.9 37.8 62.3 37.0 61.7 C 37.1 62.2 36.2 61.2 36.3 61.6 C 37.3 62.3 37.4 62.6 38.4 63.3 C 38.3 62.9 39.3 63.7 39.4 63.9 C 39.5 63.8 40.2 64.3 40.1 64.0 C 40.9 64.4 40.8 64.6 41.5 65.1 C 41.5 65.2 41.4 65.2 41.7 65.4 C 42.1 65.4 42.1 65.8 42.4 66.0 C 42.4 65.7 43.4 66.5 43.6 66.4 C 43.3 66.2 42.9 65.9 42.9 65.8 C 44.1 66.7 43.2 65.8 43.1 65.5 C 43.1 65.6 42.4 65.6 42.4 65.4 C 43.6 65.9 41.2 64.1 42.1 64.8 C 42.9 65.3 42.9 65.1 43.7 65.7 C 44.4 66.7 43.1 66.2 43.9 67.1 C 44.6 67.3 45.0 67.6 45.2 67.4 C 45.2 67.6 45.3 67.7 45.5 67.9 C 45.9 68.0 44.9 67.2 45.7 67.7 C 46.1 68.0 45.5 68.0 46.4 68.4 C 46.8 68.5 45.4 67.6 46.3 68.0 C 46.9 68.8 46.1 67.8 47.1 68.4 C 47.2 68.5 47.3 68.6 47.6 68.8 C 47.6 68.9 47.4 69.0 47.7 69.2 C 48.1 68.9 48.0 69.6 48.8 69.9 C 49.3 69.9 48.1 69.3 48.5 69.2 C 49.1 70.0 49.8 70.0 50.1 70.2 C 49.3 70.0 51.1 71.0 51.0 71.2 C 50.9 70.8 51.3 71.2 52.3 71.5 C 52.2 71.9 53.4 72.3 53.5 72.7 C 53.7 72.7 54.0 72.8 54.2 72.7 C 53.9 72.5 53.6 72.4 53.7 72.3 C 54.0 72.4 54.3 72.6 54.6 72.8 C 55.0 73.2 53.5 73.0 55.5 74.0 C 55.4 73.5 56.2 74.0 56.8 74.1 C 56.9 73.9 56.0 73.7 56.0 73.5 C 56.8 73.7 57.4 74.3 57.7 74.6 C 58.9 75.1 60.2 75.9 61.9 76.6 C 62.2 77.0 60.4 76.1 61.5 76.8 C 61.9 77.0 61.8 76.7 62.4 77.1 C 61.4 77.7 66.9 79.4 67.0 80.0 C 67.3 79.9 68.8 80.6 68.7 80.3 C 67.6 80.1 67.1 79.4 66.7 79.1 C 65.7 78.8 67.4 79.7 66.5 79.4 C 66.5 79.2 65.2 78.7 65.4 78.6 C 66.7 79.2 64.8 78.1 65.9 78.3 C 67.1 78.9 69.7 79.8 69.0 79.8 C 69.0 79.7 68.5 79.5 68.4 79.5 C 69.7 80.2 70.6 80.4 71.2 80.5 C 71.8 81.0 74.4 81.7 73.7 81.6 C 73.9 81.9 72.3 80.9 72.4 81.2 C 75.0 82.4 75.1 82.2 76.8 83.1 C 76.3 82.6 78.8 83.4 78.5 83.5 C 78.4 83.7 78.9 84.1 80.0 84.2 C 79.8 84.4 80.3 84.7 80.8 85.0 C 81.2 84.8 80.4 84.6 80.6 84.5 C 81.2 84.7 81.7 84.9 82.3 85.1 C 82.2 85.2 82.1 85.3 82.5 85.4 C 83.1 85.5 85.4 86.1 85.1 86.1 C 84.1 86.1 86.5 86.9 85.0 86.6 C 85.4 86.7 85.4 86.8 85.9 87.0 C 85.9 86.9 86.0 86.8 86.0 86.7 C 87.2 87.1 86.5 87.3 87.5 87.6 C 87.6 87.6 88.1 87.7 88.2 87.6 C 87.8 87.5 87.7 87.6 87.2 87.4 C 87.9 87.2 86.2 86.8 86.4 86.6 C 87.5 86.9 87.5 87.2 87.9 87.4 C 89.4 87.8 88.7 87.6 90.2 88.2 C 90.2 88.1 89.8 88.0 89.9 87.9 C 91.7 88.5 91.4 89.0 92.7 89.2 C 92.4 89.1 91.2 88.9 92.0 89.2 C 92.9 89.4 93.2 89.2 94.3 89.5 C 94.4 89.6 94.2 89.7 94.6 89.9 C 95.1 89.9 95.2 89.7 95.7 89.8 C 95.7 89.9 96.4 90.0 96.6 90.1 C 97.0 90.4 96.4 90.3 96.9 90.5 C 97.8 90.7 98.5 90.4 99.2 90.7 C 99.1 91.0 100.0 91.1 100.8 91.3 C 100.9 91.6 102.5 92.0 103.6 92.3 C 103.4 92.0 104.5 92.4 104.3 92.1 C 103.8 92.0 103.5 91.8 103.4 91.7 C 104.7 92.0 104.9 92.6 105.9 92.4 C 106.4 92.7 106.9 93.0 107.7 93.3 C 107.9 93.2 106.3 92.7 107.2 92.8 C 107.2 92.9 107.5 92.9 107.8 93.0 C 107.6 93.2 108.3 93.4 108.6 93.6 C 109.4 93.6 110.9 94.3 110.2 93.8 C 111.4 94.0 110.6 94.3 111.4 94.5 C 111.1 94.1 112.6 94.4 111.9 94.0 C 113.1 94.2 112.9 94.6 112.4 94.6 C 113.5 94.9 113.7 94.7 114.2 95.0 C 113.8 94.7 115.5 94.8 114.6 94.8 C 114.3 95.0 115.6 95.1 115.8 95.3 C 115.4 95.0 116.0 95.1 115.2 94.9 C 116.1 94.9 117.3 95.1 118.0 95.5 C 119.0 95.5 119.9 95.7 119.5 95.8 C 120.4 95.9 120.1 95.9 121.0 96.1 C 121.0 96.0 120.7 95.9 120.7 95.9 C 122.0 96.0 121.7 96.2 123.4 96.4 C 123.1 96.7 124.2 96.8 124.5 97.0 C 123.8 96.9 123.3 96.8 122.7 96.6 C 122.6 96.8 123.1 96.9 122.7 96.9 C 122.7 96.8 122.4 96.7 122.1 96.6 C 123.2 97.0 120.7 96.9 121.5 96.7 C 121.5 96.8 121.5 96.8 121.8 96.8 C 121.6 96.6 121.6 96.6 121.8 96.4 C 121.3 96.4 120.9 96.1 120.6 96.3 C 120.6 96.4 121.2 96.4 121.2 96.5 C 119.8 96.5 120.9 96.1 119.8 96.0 C 119.5 96.3 120.0 96.4 120.3 96.6 C 119.3 96.5 118.4 96.3 118.2 96.1 C 117.2 96.0 118.2 96.3 117.5 96.3 C 117.2 96.2 117.3 96.0 116.6 95.8 C 115.9 95.8 117.0 96.1 116.3 96.0 C 115.6 95.7 116.9 95.8 115.7 95.5 C 115.9 95.9 114.7 95.3 114.8 95.5 C 115.5 95.6 115.4 95.9 115.1 95.6 C 113.6 95.0 112.4 95.7 111.0 94.8 C 111.0 94.9 110.8 94.9 110.7 94.9 C 111.8 95.3 113.5 95.7 113.7 96.1 C 114.6 96.2 114.5 96.0 114.7 95.9 C 115.7 96.4 115.6 96.4 114.9 96.7 C 113.1 96.4 112.4 96.0 111.2 95.7 C 110.5 95.7 111.2 95.8 111.4 96.0 C 107.8 94.9 110.5 96.3 109.1 95.9 C 109.2 95.8 108.9 95.6 108.6 95.5 C 108.5 95.6 108.0 95.5 107.9 95.5 C 108.1 95.6 108.2 95.7 108.2 95.8 C 107.2 95.6 107.6 95.5 107.6 95.3 C 108.3 95.5 108.8 95.6 108.9 95.4 C 108.0 95.3 107.3 95.0 106.6 95.1 C 105.9 94.5 107.3 94.5 106.9 94.1 C 107.1 94.0 106.1 94.6 105.4 94.5 C 104.3 94.2 104.2 94.5 103.1 94.2 C 102.9 93.9 104.2 94.4 104.2 94.1 C 103.8 94.1 103.8 94.0 103.5 93.9 C 102.8 93.7 102.8 94.0 102.2 93.9 C 101.9 93.6 101.7 93.6 101.2 93.6 C 100.5 93.3 101.7 93.5 100.9 93.3 C 100.2 93.0 99.5 93.2 99.3 93.1 C 99.2 93.0 99.4 92.9 99.0 92.8 C 98.1 92.7 97.8 92.6 98.9 93.1 C 97.9 92.7 97.5 92.7 97.5 93.0 C 99.1 93.5 99.4 93.5 100.1 94.0 C 100.4 93.9 100.8 94.2 101.3 94.4 C 101.1 93.9 102.0 94.6 102.4 94.4 C 102.0 94.3 101.6 94.1 101.4 94.0 C 103.0 94.5 103.0 94.5 104.4 94.5 C 104.4 94.6 104.5 94.7 104.7 94.8 C 104.2 94.8 103.1 94.4 103.0 94.6 C 103.8 95.1 104.3 94.7 105.2 95.3 C 105.7 95.2 104.5 94.8 105.3 95.0 C 105.7 95.3 106.2 95.5 106.8 95.8 C 107.5 95.9 107.9 95.9 108.5 95.9 C 108.5 96.0 108.5 96.1 109.1 96.2 C 109.1 96.1 108.6 95.9 109.1 96.0 C 110.7 96.7 111.8 97.1 113.5 97.3 C 112.9 97.1 111.6 96.6 112.3 96.7 C 113.0 97.0 114.1 96.9 114.8 97.3 C 115.0 97.4 113.9 97.0 114.1 97.5 C 114.8 97.6 115.3 97.7 115.6 97.9 C 115.7 97.7 116.5 97.9 116.3 97.7 C 115.7 97.5 115.5 97.8 115.4 97.6 C 116.0 97.1 117.6 98.3 118.7 98.5 C 119.5 98.5 118.2 98.1 119.1 98.2 C 119.6 98.2 119.9 98.8 119.0 98.8 C 118.4 98.6 118.2 98.8 118.1 98.5 C 117.8 98.5 117.5 98.4 117.5 98.5 C 117.9 98.6 117.8 98.7 118.0 98.8 C 117.4 98.7 117.3 99.2 116.8 98.8 C 117.1 98.8 117.3 98.8 117.4 98.7 C 115.7 98.5 115.2 98.2 114.3 97.9 C 114.8 98.2 114.3 98.0 114.3 98.3 C 115.0 98.3 116.4 98.7 115.5 98.7 C 115.0 98.2 114.4 98.9 113.9 98.5 C 114.3 98.6 114.3 98.4 114.5 98.4 C 113.9 98.3 114.0 98.1 113.3 97.9 C 111.2 97.9 109.8 96.9 106.3 96.6 C 105.1 96.3 107.4 96.8 107.3 96.5 C 107.0 96.5 106.9 96.4 106.7 96.3 C 106.6 96.6 106.1 96.2 105.7 96.3 C 105.8 96.1 104.1 95.9 103.4 95.5 C 103.4 95.6 103.4 95.8 103.1 95.7 C 100.8 94.7 96.3 94.0 94.6 93.1 C 94.6 93.4 93.8 93.1 93.6 93.2 C 92.5 92.8 93.0 92.7 91.3 92.4 C 90.4 92.2 91.5 92.3 91.7 92.3 C 89.2 91.6 87.1 90.7 85.4 90.4 C 84.6 90.2 85.5 90.2 83.9 89.6 C 83.7 89.9 81.4 88.5 80.9 88.7 C 79.9 88.4 78.3 87.3 78.9 87.9 C 77.6 87.4 78.6 87.5 78.1 87.3 C 77.2 86.9 78.1 87.9 77.2 87.6 C 77.4 87.4 76.6 87.2 76.1 86.7 C 76.8 87.0 77.3 87.2 77.4 87.1 C 76.7 87.0 76.8 86.8 75.8 86.4 C 75.0 86.3 72.8 85.6 72.3 85.0 C 72.2 85.1 72.4 85.2 72.5 85.3 C 71.9 85.1 71.2 84.5 71.2 84.9 C 69.8 84.3 69.3 83.8 68.4 83.6 C 67.7 83.5 68.7 83.5 66.9 82.7 C 66.8 82.9 63.6 81.4 62.9 80.8 C 62.7 81.1 62.6 80.8 62.3 80.6 C 62.1 80.6 62.2 80.8 61.8 80.6 C 61.8 80.5 61.5 80.4 61.2 80.3 C 61.6 80.1 60.0 79.9 60.1 79.6 C 60.3 79.7 60.4 79.5 60.2 79.4 C 60.0 79.6 58.9 78.6 58.9 78.8 C 59.2 79.0 60.0 79.4 59.7 79.5 C 58.5 79.0 59.1 78.9 58.3 78.5 C 58.3 78.6 58.8 78.9 58.2 78.7 C 57.4 78.3 58.2 78.7 57.7 78.2 C 57.3 78.0 56.4 77.8 56.1 77.6 C 56.2 77.7 56.0 77.4 55.9 77.4 C 54.4 76.5 50.9 74.8 49.6 73.7 C 49.4 73.7 49.1 73.6 49.1 73.8 C 48.3 73.2 48.4 73.3 47.5 72.7 C 47.5 72.8 47.4 72.9 47.4 73.0 C 46.2 72.4 47.4 72.6 46.7 72.2 C 46.3 72.6 46.3 71.8 45.7 71.4 C 45.5 71.4 45.2 71.3 45.2 71.5 C 44.2 70.8 44.4 70.6 43.5 70.1 C 43.6 70.3 43.4 71.0 43.2 71.2 C 43.1 71.0 42.8 70.7 42.5 70.4 C 43.1 70.5 43.3 69.6 41.9 69.0 C 42.6 69.4 42.8 69.7 42.6 69.7 C 41.6 69.1 41.3 68.8 40.5 68.2 C 40.3 68.4 40.8 68.8 40.5 68.9 C 40.3 68.7 40.1 68.7 40.1 68.8 C 39.3 68.2 39.4 68.0 38.4 67.5 C 38.5 67.4 38.7 67.5 38.9 67.8 C 39.0 67.6 39.1 67.5 39.7 67.8 C 39.7 68.0 39.2 68.0 40.0 68.5 C 40.1 68.4 40.2 68.2 40.2 68.1 C 39.7 67.7 38.4 66.7 38.2 66.7 C 38.5 66.9 38.9 67.3 38.5 67.3 C 37.6 66.6 37.5 66.2 36.8 65.5 C 35.4 64.6 33.1 62.9 33.2 63.4 C 32.4 62.7 32.7 62.9 32.1 62.3 C 32.1 62.7 31.3 61.8 31.2 62.0 C 32.1 62.6 31.8 62.5 32.6 63.1 C 32.5 63.2 32.3 63.2 32.0 63.0 C 32.0 62.8 31.7 62.5 31.1 62.1 C 31.2 62.2 31.5 62.8 30.9 62.4 C 30.9 62.3 30.8 62.1 30.5 61.9 C 30.6 61.8 30.7 61.7 30.8 61.6 C 31.2 61.8 31.6 62.1 31.9 62.2 C 31.6 62.0 31.6 61.9 31.4 61.7 C 31.2 61.7 30.4 60.9 30.2 61.0 C 30.6 61.2 30.8 61.5 30.3 61.3 C 30.3 61.2 29.7 60.6 29.4 60.5 C 30.1 61.3 29.8 61.0 30.1 61.6 C 29.1 60.9 30.0 61.2 28.2 59.8 C 28.3 59.6 28.4 59.4 28.9 59.7 C 28.1 58.4 25.4 56.6 24.7 55.8 C 25.2 56.3 26.0 56.6 25.2 55.9 C 25.1 56.0 24.6 55.4 24.4 55.3 C 23.9 55.4 24.3 56.3 24.8 57.0 C 24.1 56.4 23.9 56.3 23.4 55.8 C 23.3 55.5 24.2 55.8 23.5 55.1 C 23.0 55.2 22.2 53.8 21.7 53.7 C 22.2 54.2 22.4 54.6 21.9 54.1 C 22.1 54.1 21.1 53.1 21.2 53.0 C 22.0 53.8 22.4 53.8 22.9 54.4 C 22.3 53.7 23.5 54.7 22.5 53.6 C 21.9 53.2 21.5 53.1 20.5 51.9 C 20.1 51.5 20.7 51.7 20.2 51.1 C 20.1 51.4 19.1 50.2 19.8 50.8 C 19.5 50.4 19.3 50.2 19.2 49.9 C 19.5 50.6 17.0 47.9 17.2 48.5 C 17.5 48.3 17.6 47.9 17.6 47.7 C 17.0 47.3 16.7 46.6 15.8 45.1 C 15.6 45.3 15.6 44.8 15.3 44.2 C 15.1 44.2 15.3 44.8 15.1 44.3 C 14.8 43.5 14.8 43.5 14.8 43.3 C 14.6 42.8 14.4 42.4 14.4 42.1 C 14.2 42.1 14.3 42.3 14.3 42.5 C 13.7 40.4 13.1 39.4 12.8 37.8 C 12.8 38.5 13.3 38.6 13.1 38.0 C 13.0 37.7 12.9 37.4 12.8 37.2 C 12.7 37.6 12.7 37.4 12.7 36.6 C 12.5 35.8 12.3 36.9 12.3 36.3 C 12.4 35.7 12.5 36.0 12.6 35.7 C 12.5 35.4 12.5 35.1 12.5 34.8 C 12.4 35.4 12.3 34.8 12.3 34.2 C 12.5 34.6 12.5 34.4 12.6 33.4 C 12.7 33.3 12.7 33.8 12.8 33.4 C 12.9 33.2 12.7 32.3 13.1 31.7 C 13.0 32.0 13.1 32.1 13.2 32.0 C 13.2 31.3 13.7 30.8 14.0 30.3 C 13.6 30.8 13.5 30.4 13.3 30.6 C 13.7 30.0 13.8 29.2 14.3 28.9 C 13.8 29.7 14.7 29.1 15.0 28.6 C 14.9 28.4 14.4 29.3 14.3 28.9 C 14.3 28.5 15.0 28.1 15.0 27.6 C 14.9 27.6 14.8 28.0 14.6 28.1 C 14.9 27.6 14.4 28.1 14.7 27.7 C 15.0 27.6 14.9 27.2 15.1 27.0 C 15.4 26.7 16.2 26.4 16.2 26.0 C 16.2 26.0 15.8 26.4 15.7 26.3 C 16.7 25.0 17.3 25.0 18.3 23.9 C 18.6 23.9 18.8 23.8 19.2 23.6 C 19.1 23.5 19.3 23.3 19.6 23.0 C 20.3 22.8 20.9 22.6 21.7 22.3 C 21.7 22.5 21.4 22.8 22.4 22.3 C 22.5 22.2 22.0 22.4 22.4 22.1 C 22.4 22.2 22.7 22.1 22.7 22.0 C 22.7 21.9 22.7 21.9 22.6 21.9 C 22.3 22.0 22.0 22.1 21.7 22.3 C 21.7 22.1 21.6 22.1 21.3 22.1 C 22.6 21.4 22.7 21.9 23.5 21.3 C 23.8 21.6 24.1 21.6 23.4 22.1 C 24.2 21.8 24.7 21.5 24.9 21.2 C 23.9 21.5 24.1 21.2 23.8 21.1 C 24.4 20.9 24.4 20.8 24.7 20.7 C 25.5 20.6 24.0 21.3 25.5 20.9 C 24.3 20.9 26.4 20.4 27.2 20.3 C 27.0 20.2 26.7 20.2 27.1 20.0 C 29.2 19.3 29.2 20.2 30.5 19.6 C 30.4 19.7 31.1 19.6 31.3 19.7 C 30.2 19.9 29.9 20.0 29.5 20.2 C 29.6 20.2 29.9 20.2 30.2 20.2 C 30.2 20.0 30.5 19.9 31.0 20.0 C 31.3 19.8 31.1 19.4 32.0 19.1 C 32.1 19.2 32.0 19.3 32.5 19.3 C 32.9 19.0 32.2 19.7 34.2 19.4 C 33.8 19.3 33.6 19.2 33.7 19.0 C 34.7 18.8 34.5 18.9 35.9 18.8 C 36.4 19.1 35.0 19.3 34.6 19.6 C 35.5 19.4 36.3 19.1 37.2 19.2 C 36.5 19.1 37.2 18.9 38.1 18.8 C 38.9 18.8 38.1 19.2 39.0 19.2 C 39.8 19.1 40.2 18.8 39.5 18.7 C 41.2 18.8 40.8 18.5 42.3 18.6 C 42.4 18.7 41.9 18.7 41.4 18.6 C 41.5 18.7 41.3 18.9 41.8 18.9 C 42.8 18.7 45.0 18.7 45.7 18.6 C 46.9 19.1 48.5 18.6 49.8 18.9 C 49.2 19.1 51.5 19.1 52.1 19.5 C 52.6 19.4 53.9 19.1 53.4 19.2 C 53.5 19.6 54.3 19.5 54.9 19.7 C 54.9 19.6 54.9 19.6 54.9 19.5 C 56.3 19.6 56.5 19.9 57.0 20.2 C 58.7 20.2 60.4 20.9 62.6 21.0 C 63.0 21.3 63.5 21.4 64.7 21.8 C 64.7 21.5 65.7 21.7 66.6 21.9 C 66.5 21.7 67.3 21.9 67.4 21.7 C 66.5 21.6 66.9 21.3 66.5 21.1 C 67.5 21.6 68.2 21.3 69.0 21.7 C 67.9 21.6 67.5 21.8 67.3 22.1 C 68.6 22.3 69.3 22.6 69.5 22.8 C 69.6 22.7 69.5 22.5 69.2 22.4 C 69.6 22.5 70.1 22.6 70.5 22.7 C 70.6 22.8 70.0 22.8 70.4 22.9 C 70.8 22.9 71.1 22.9 71.5 22.9 C 71.8 23.2 70.9 23.0 70.8 23.1 C 72.5 23.6 71.8 22.9 72.8 23.0 C 73.0 23.3 72.9 23.5 73.6 23.8 C 74.0 23.7 74.1 23.5 75.0 23.7 C 75.6 23.9 74.9 24.0 75.6 24.2 C 75.7 24.2 76.0 24.3 76.2 24.4 C 76.2 24.3 76.5 24.3 76.9 24.3 C 77.0 24.5 77.6 24.6 77.9 24.6 C 77.9 24.7 78.9 25.3 79.1 25.2 C 79.2 25.1 78.6 25.0 78.6 24.9 C 79.3 25.1 79.8 25.2 80.2 25.2 C 80.3 25.8 81.6 25.8 83.0 26.5 C 84.0 26.6 82.9 26.0 84.2 26.2 C 84.8 26.6 83.9 26.4 84.0 26.7 C 84.2 26.8 85.2 27.3 85.3 27.1 C 85.4 27.0 84.8 26.9 84.7 26.7 C 85.7 26.8 85.5 27.1 86.0 27.3 C 86.0 27.1 86.6 27.2 86.7 27.1 C 89.2 27.7 89.0 28.2 89.9 28.7 C 89.9 28.6 90.5 28.8 90.6 28.7 C 89.9 28.6 89.0 28.1 90.0 28.4 C 89.8 28.4 91.2 28.8 91.3 28.7 C 91.2 28.5 90.3 28.3 90.7 28.2 C 92.0 28.5 91.3 28.8 92.3 28.9 C 92.4 29.1 91.9 28.9 91.6 28.9 C 92.0 29.1 92.5 29.2 92.6 29.3 C 92.1 29.2 92.0 29.4 91.8 29.5 C 92.5 29.5 93.5 30.1 92.9 29.5 C 94.1 30.0 95.4 30.3 94.6 29.8 C 95.7 30.1 95.0 30.2 95.9 30.3 C 95.7 30.6 95.4 30.6 96.0 31.1 C 96.2 31.0 96.8 31.1 96.8 30.9 C 98.3 31.5 98.7 31.9 99.2 32.4 C 98.8 31.8 99.4 32.4 100.3 32.4 C 100.7 32.7 100.1 32.8 101.4 33.2 C 100.2 32.4 103.0 33.8 102.6 33.2 C 104.1 34.0 104.1 34.0 105.7 34.7 C 105.5 34.8 105.0 34.7 104.3 34.5 C 104.9 34.5 103.0 33.7 103.1 33.9 C 103.0 33.9 103.0 34.0 103.0 34.0 C 104.2 34.5 105.0 34.9 105.5 35.2 C 105.8 35.2 106.4 35.3 106.3 35.0 C 107.3 35.8 108.7 35.9 109.1 36.4 C 108.7 36.2 108.3 36.0 108.4 36.2 C 108.9 36.4 109.5 36.6 109.5 36.3 C 108.6 35.9 108.4 35.8 107.9 35.7 C 108.4 35.7 107.1 35.0 108.1 35.4 C 107.9 35.7 110.0 36.0 109.3 36.0 C 108.2 35.7 110.3 36.7 110.4 36.9 C 110.4 36.9 110.4 36.9 110.4 36.9 Z M 113.6 98.0 C 114.6 98.0 113.5 97.6 112.8 97.5 C 113.0 97.6 113.1 97.7 113.0 97.9 C 113.3 97.9 113.6 97.9 113.6 98.0 C 113.6 98.0 113.6 98.0 113.6 98.0 Z M 104.3 92.3 C 103.9 92.5 105.5 92.7 106.2 92.9 C 106.0 92.8 105.8 92.7 106.2 92.7 C 105.6 92.4 105.2 92.7 104.3 92.3 C 104.3 92.3 104.3 92.3 104.3 92.3 Z M 68.6 80.7 C 68.8 80.7 69.5 80.9 69.5 81.1 C 69.8 81.2 69.8 81.1 69.9 81.0 C 70.7 81.3 69.6 81.2 70.8 81.6 C 71.4 81.4 69.0 80.3 68.6 80.7 C 68.6 80.7 68.6 80.7 68.6 80.7 Z M 97.0 35.2 C 97.4 35.6 96.2 35.3 96.4 35.6 C 98.3 36.2 97.0 35.3 99.4 36.4 C 99.3 36.3 99.1 36.1 99.2 36.0 C 98.0 35.7 97.9 35.8 98.3 35.5 C 97.8 35.3 97.5 35.7 97.0 35.2 C 97.0 35.2 97.0 35.2 97.0 35.2 Z M 118.7 46.0 C 118.5 45.9 118.4 45.7 118.5 45.6 C 117.7 45.4 117.9 45.5 117.0 45.0 C 116.9 45.3 117.8 45.8 118.7 46.0 C 118.7 46.0 118.7 46.0 118.7 46.0 Z M 159.7 84.6 C 159.7 84.7 159.7 84.8 159.7 84.9 C 159.8 84.8 160.1 85.2 160.1 84.6 C 160.0 84.5 160.0 84.6 160.0 84.7 C 159.9 84.6 159.9 84.4 159.8 84.4 C 159.8 84.6 159.7 84.6 159.7 84.6 C 159.7 84.6 159.7 84.6 159.7 84.6 Z M 147.9 96.1 C 149.2 95.5 145.8 95.6 147.9 96.1 C 147.9 96.1 147.9 96.1 147.9 96.1 C 147.9 96.1 147.9 96.1 147.9 96.1 Z M 151.3 98.2 C 151.4 98.2 151.6 98.1 151.6 98.1 C 152.8 97.8 151.7 98.2 152.4 98.2 C 153.2 97.7 151.8 97.9 152.9 97.4 C 152.6 97.4 152.0 98.0 151.3 98.2 C 151.3 98.2 151.3 98.2 151.3 98.2 Z M 29.0 20.0 C 28.0 20.3 27.8 20.6 27.7 20.9 C 28.3 20.7 28.9 20.6 29.2 20.7 C 30.4 20.3 28.3 20.7 28.1 20.7 C 28.1 20.4 29.1 20.2 29.0 20.0 C 29.0 20.0 29.0 20.0 29.0 20.0 Z M 25.9 20.9 C 25.5 21.1 25.0 21.3 25.0 21.5 C 25.5 21.3 25.6 21.4 25.7 21.5 C 26.2 21.2 25.5 21.2 25.9 20.9 C 25.9 20.9 25.9 20.9 25.9 20.9 Z M 32.1 19.8 C 31.6 19.9 31.9 20.0 31.8 20.1 C 32.5 20.0 32.7 20.1 33.4 20.0 C 33.4 19.9 33.4 19.9 33.4 19.8 C 32.7 19.8 32.7 19.9 32.2 20.0 C 32.2 19.9 32.2 19.8 32.1 19.8 C 32.1 19.8 32.1 19.8 32.1 19.8 Z M 23.1 22.2 C 21.5 22.8 21.1 23.5 20.4 24.3 C 21.3 23.7 22.1 22.8 22.9 22.6 C 23.9 22.1 22.5 22.6 22.5 22.5 C 22.5 22.4 22.9 22.3 23.1 22.2 C 23.1 22.2 23.1 22.2 23.1 22.2 Z M 13.8 31.1 C 13.5 31.3 13.7 31.9 13.5 32.7 C 13.6 32.6 13.7 32.4 13.8 32.5 C 14.1 31.4 13.5 31.9 13.8 31.1 C 13.8 31.1 13.8 31.1 13.8 31.1 Z M 13.5 37.9 C 13.7 38.7 13.6 37.5 13.8 37.9 C 13.7 37.1 13.6 36.2 13.4 36.2 C 13.6 37.1 13.6 37.3 13.5 37.9 C 13.5 37.9 13.5 37.9 13.5 37.9 Z M 15.2 43.1 C 15.8 43.9 15.4 42.6 15.8 42.9 C 15.6 42.5 15.5 42.7 15.4 42.7 C 15.3 42.4 15.3 42.2 15.1 41.8 C 15.1 42.1 15.5 43.1 15.2 43.1 C 15.2 43.1 15.2 43.1 15.2 43.1 Z M 55.7 20.6 C 55.1 20.6 55.2 20.9 54.1 20.7 C 55.8 20.9 54.8 21.5 57.1 21.7 C 56.7 21.5 57.0 21.5 57.1 21.6 C 58.0 21.6 56.3 21.3 57.1 21.2 C 56.5 21.1 56.8 21.5 56.2 21.4 C 55.6 21.1 55.2 20.9 55.7 20.6 C 55.7 20.6 55.7 20.6 55.7 20.6 Z M 57.0 21.9 C 57.6 22.1 57.7 21.6 58.0 21.9 C 58.3 21.9 58.2 21.8 58.3 21.8 C 58.0 21.8 58.0 21.7 58.0 21.7 C 57.5 21.6 56.9 21.6 57.0 21.9 C 57.0 21.9 57.0 21.9 57.0 21.9 Z M 51.3 21.2 C 52.4 21.2 52.6 21.4 53.2 21.3 C 53.5 21.7 53.8 21.2 54.3 21.6 C 55.3 21.6 54.6 21.4 54.4 21.2 C 55.3 21.3 54.6 21.5 55.5 21.6 C 55.8 21.3 54.5 21.2 54.7 21.0 C 54.0 20.9 53.9 21.0 53.5 21.1 C 53.1 21.0 53.3 20.9 53.2 20.8 C 52.4 20.8 52.4 20.6 51.7 20.5 C 51.5 20.7 51.8 20.8 52.6 20.9 C 51.8 20.9 51.4 21.0 50.5 20.8 C 51.2 20.6 48.3 20.3 48.5 20.7 C 49.3 20.9 49.0 20.6 49.4 20.6 C 50.4 20.9 51.0 20.9 51.3 21.2 C 51.3 21.2 51.3 21.2 51.3 21.2 Z M 32.7 20.5 C 32.3 20.5 32.0 20.5 31.5 20.6 C 31.4 20.4 32.1 20.3 31.4 20.3 C 30.6 20.4 30.4 20.5 29.9 20.6 C 30.2 20.7 32.0 20.6 31.1 20.9 C 31.4 21.0 31.9 20.9 32.7 20.8 C 31.8 20.6 33.9 20.7 34.7 20.6 C 34.6 20.2 36.2 20.6 36.8 20.3 C 36.3 20.1 34.6 20.4 33.9 20.5 C 34.2 20.4 31.8 20.2 32.7 20.5 C 32.7 20.5 32.7 20.5 32.7 20.5 Z M 59.5 22.1 C 59.7 22.1 60.4 22.2 59.8 22.0 C 60.1 22.0 60.7 22.2 60.5 21.8 C 60.8 21.9 61.1 21.9 61.4 22.0 C 61.3 22.1 60.5 21.9 60.7 22.2 C 61.4 22.1 61.1 22.2 62.0 22.4 C 61.5 22.5 62.0 22.6 61.6 22.9 C 61.8 22.8 62.6 22.9 62.6 22.7 C 63.7 23.0 62.2 23.0 63.8 23.3 C 63.7 23.5 62.6 23.3 62.2 23.1 C 61.9 23.3 64.1 23.5 65.3 23.8 C 64.3 23.4 65.1 23.4 65.7 23.3 C 66.0 23.4 65.7 23.4 66.3 23.7 C 66.8 23.8 67.1 23.7 67.2 23.9 C 67.7 24.0 67.5 23.8 67.6 23.7 C 68.3 23.8 67.7 24.1 68.8 24.2 C 68.1 23.7 69.0 23.9 70.4 24.3 C 70.4 24.2 69.9 24.0 69.9 23.9 C 70.1 23.8 70.9 24.3 71.1 24.4 C 71.6 24.5 71.3 24.3 70.8 24.2 C 71.2 24.2 71.5 24.2 71.8 24.2 C 70.3 23.8 67.7 23.3 64.9 22.4 C 65.4 22.7 64.8 22.6 63.9 22.3 C 63.8 22.2 64.2 22.2 64.6 22.3 C 63.7 21.8 63.6 22.5 62.1 22.0 C 61.2 21.8 63.1 22.0 62.1 21.7 C 61.5 21.7 61.1 21.8 60.9 21.5 C 59.9 21.4 59.6 21.7 58.0 21.4 C 58.9 21.7 59.2 22.3 60.1 22.3 C 60.1 22.2 59.7 22.2 59.5 22.1 C 59.5 22.1 59.5 22.1 59.5 22.1 Z M 25.7 21.6 C 25.2 21.8 24.9 22.0 24.8 22.0 C 23.9 22.4 25.0 22.2 25.2 22.2 C 25.6 22.0 25.7 21.8 25.7 21.6 C 25.7 21.6 25.7 21.6 25.7 21.6 Z M 71.8 84.3 C 73.0 84.9 72.9 84.5 73.8 84.9 C 73.1 84.5 73.0 84.3 71.7 83.8 C 71.5 83.9 71.5 84.1 71.8 84.3 C 71.8 84.3 71.8 84.3 71.8 84.3 Z M 29.2 20.9 C 30.0 20.5 28.2 21.5 28.2 21.2 C 27.2 21.6 29.1 21.2 28.3 21.6 C 29.1 21.3 29.6 21.4 30.8 21.0 C 30.7 20.9 29.8 21.0 28.9 21.2 C 28.8 21.1 29.2 21.0 29.2 20.9 C 29.2 20.9 29.2 20.9 29.2 20.9 Z M 60.0 78.2 C 59.1 78.0 60.5 79.0 60.9 79.3 C 61.1 79.0 60.9 78.9 60.0 78.2 C 60.0 78.2 60.0 78.2 60.0 78.2 Z M 80.3 87.3 C 80.9 87.2 78.9 86.8 79.4 86.7 C 78.9 86.4 78.8 86.5 78.7 86.6 C 78.5 86.4 77.5 86.1 77.9 86.0 C 77.8 85.7 79.3 86.6 78.9 86.1 C 79.4 86.3 79.4 86.4 79.8 86.6 C 78.9 86.2 79.2 86.6 80.4 87.1 C 80.5 86.9 79.9 86.7 80.5 86.8 C 80.5 86.9 81.1 87.3 80.9 87.6 C 81.9 88.0 81.5 87.4 82.6 87.9 C 82.6 87.7 81.8 87.4 81.4 87.2 C 81.7 87.0 82.6 87.8 82.5 87.4 C 82.6 87.7 83.3 88.0 83.3 88.3 C 82.3 88.0 81.6 87.9 80.8 87.8 C 81.5 88.2 82.7 88.0 83.8 88.7 C 83.7 88.5 84.5 88.8 84.3 88.5 C 85.2 88.8 84.7 89.0 84.5 88.9 C 84.7 89.2 86.5 89.7 86.5 89.5 C 86.5 89.7 88.8 90.4 88.8 90.1 C 89.4 90.5 90.5 90.5 90.7 90.9 C 91.1 90.9 91.9 91.2 92.7 91.5 C 93.0 91.3 91.5 90.9 91.5 90.7 C 91.3 90.4 93.0 91.3 92.8 91.0 C 92.8 90.9 92.9 90.9 92.9 90.8 C 92.2 90.7 91.5 90.6 90.8 90.4 C 90.4 90.3 91.0 90.4 90.9 90.2 C 90.4 90.2 88.2 89.8 88.3 89.4 C 86.9 89.0 85.9 88.6 85.3 88.6 C 84.5 88.3 85.8 88.6 85.4 88.3 C 82.9 87.7 80.1 86.2 77.9 85.8 C 77.5 85.6 77.7 85.5 77.7 85.4 C 74.9 84.4 77.1 85.7 75.0 84.7 C 75.1 84.5 76.1 85.0 76.1 84.7 C 75.4 84.4 75.1 84.5 74.2 84.0 C 74.1 84.1 74.1 84.2 74.0 84.3 C 73.2 84.0 73.7 83.8 73.3 83.6 C 72.2 83.2 72.4 83.5 72.0 83.0 C 71.0 82.7 70.1 82.3 69.2 81.8 C 68.4 81.7 69.5 82.6 70.5 83.0 C 70.4 83.0 70.2 82.9 70.1 83.0 C 69.0 82.3 69.0 81.8 67.3 81.0 C 68.5 81.8 66.6 80.8 66.4 80.5 C 65.7 80.1 66.1 80.7 66.6 80.9 C 66.4 81.0 66.0 80.7 66.0 80.5 C 65.8 80.8 67.4 81.8 69.2 82.4 C 68.2 82.5 70.5 83.0 69.4 83.0 C 70.9 83.6 69.7 82.8 71.4 83.5 C 71.3 83.4 71.0 83.2 70.9 83.0 C 72.2 83.5 71.7 83.7 73.0 84.2 C 73.3 84.1 72.4 83.7 72.5 83.6 C 73.9 84.4 74.3 84.7 75.2 85.3 C 75.4 85.2 75.2 84.9 76.8 85.7 C 76.8 85.8 76.8 85.8 76.8 85.9 C 76.0 85.5 75.7 85.9 77.6 86.6 C 77.8 86.5 77.2 86.3 76.7 86.1 C 77.0 86.0 77.6 86.2 78.4 86.5 C 78.7 86.7 79.1 86.9 78.6 86.8 C 78.9 87.1 79.3 86.8 80.3 87.3 C 80.3 87.3 80.3 87.3 80.3 87.3 Z M 14.8 30.0 C 14.7 30.2 14.7 30.4 14.6 30.8 C 14.7 31.0 14.9 30.4 15.1 30.4 C 15.3 30.0 14.8 30.2 14.8 30.0 C 14.8 30.0 14.8 30.0 14.8 30.0 Z M 19.9 24.6 C 19.8 24.5 19.6 25.0 19.0 25.3 C 19.0 25.6 19.6 25.1 19.6 25.2 C 20.3 24.8 19.3 25.0 19.9 24.6 C 19.9 24.6 19.9 24.6 19.9 24.6 Z M 17.3 26.7 C 17.0 26.8 17.2 27.0 17.6 26.6 C 17.7 26.7 17.7 26.9 17.5 27.2 C 17.9 27.1 17.8 26.6 18.3 26.2 C 18.1 26.3 17.7 26.4 17.3 26.7 C 17.3 26.7 17.3 26.7 17.3 26.7 Z M 16.6 27.5 C 16.5 27.9 16.2 28.0 15.9 28.6 C 16.1 28.6 16.9 27.4 17.0 27.1 C 17.1 26.8 16.0 28.0 16.6 27.5 C 16.6 27.5 16.6 27.5 16.6 27.5 Z M 48.5 71.6 C 48.8 71.8 48.8 71.7 48.9 71.6 C 49.6 72.5 50.8 73.1 49.7 72.8 C 50.7 73.2 51.4 73.9 52.2 74.4 C 52.8 74.8 52.6 74.4 53.2 74.7 C 54.0 75.2 52.6 74.6 52.8 74.8 C 52.8 75.0 53.3 74.8 54.2 75.5 C 54.2 74.9 55.1 76.0 55.0 75.4 C 55.5 75.9 55.7 75.8 56.5 76.2 C 56.5 76.0 55.8 75.7 55.7 75.5 C 55.5 75.0 55.2 75.5 56.0 75.8 C 55.4 75.8 54.6 74.9 54.2 74.9 C 53.9 74.5 55.1 75.3 54.9 74.9 C 54.6 74.8 54.4 74.7 54.3 74.8 C 53.9 74.5 53.6 74.3 53.5 74.1 C 53.8 74.2 53.8 74.3 53.7 74.3 C 54.3 74.6 53.4 73.7 54.5 74.3 C 54.4 74.1 53.9 73.8 54.0 73.7 C 53.8 73.4 53.7 74.3 52.7 73.5 C 51.8 73.2 54.4 74.7 53.5 74.7 C 51.9 73.8 53.0 74.0 51.8 73.2 C 51.7 73.3 51.7 73.4 51.3 73.2 C 51.3 73.3 51.8 73.6 52.2 73.8 C 52.1 73.8 51.6 73.5 51.3 73.4 C 51.3 73.5 51.5 73.6 51.5 73.7 C 50.4 73.0 50.8 72.6 51.8 73.1 C 51.9 72.8 50.6 72.1 50.2 72.0 C 50.4 72.4 50.1 72.1 50.2 72.5 C 50.5 72.7 50.5 72.6 50.6 72.6 C 51.1 72.9 50.6 72.7 50.5 72.8 C 49.9 72.4 50.1 72.2 49.4 72.0 C 49.6 72.1 49.8 72.1 49.8 72.0 C 49.5 71.8 49.2 71.7 49.0 71.5 C 48.9 71.6 48.6 71.5 48.5 71.6 C 48.5 71.6 48.5 71.6 48.5 71.6 Z M 63.5 80.3 C 64.5 80.8 64.0 80.3 63.6 80.1 C 63.8 80.1 64.2 80.3 64.6 80.4 C 64.3 80.2 64.0 80.1 63.1 79.6 C 64.0 79.7 63.4 78.9 61.8 78.2 C 61.2 78.4 62.4 79.1 61.8 79.1 C 63.0 79.5 63.5 79.9 63.5 80.3 C 63.5 80.3 63.5 80.3 63.5 80.3 Z M 25.2 22.2 C 24.6 22.4 24.0 22.7 23.4 22.9 C 23.6 23.1 25.5 22.5 25.2 22.2 C 25.2 22.2 25.2 22.2 25.2 22.2 Z M 73.0 24.8 C 73.3 24.9 73.3 24.9 73.3 25.0 C 74.3 25.1 73.0 24.7 73.4 24.6 C 73.1 24.5 72.8 24.4 72.5 24.4 C 72.4 24.4 73.7 24.9 72.7 24.7 C 72.7 24.8 73.0 24.9 73.0 24.8 C 73.0 24.8 73.0 24.8 73.0 24.8 Z M 15.3 29.7 C 15.2 30.2 15.6 30.0 15.1 31.0 C 15.4 30.7 15.4 30.5 15.7 29.9 C 15.5 29.8 15.4 29.8 15.3 29.7 C 15.3 29.7 15.3 29.7 15.3 29.7 Z M 44.2 69.5 C 44.8 70.1 45.3 69.7 46.5 70.7 C 46.0 70.0 45.0 69.9 44.2 69.5 C 44.2 69.5 44.2 69.5 44.2 69.5 Z M 95.4 91.9 C 95.0 91.7 95.6 91.8 94.8 91.4 C 94.3 91.4 94.1 91.5 93.4 91.3 C 94.3 91.8 96.0 92.0 96.6 92.6 C 97.4 92.8 97.4 92.6 97.7 92.5 C 97.3 92.4 97.1 92.3 97.1 92.2 C 96.5 92.4 96.1 91.7 95.4 91.9 C 95.4 91.9 95.4 91.9 95.4 91.9 Z M 59.7 78.0 C 59.2 77.6 60.2 78.0 60.5 77.9 C 60.9 78.1 60.7 78.2 60.7 78.4 C 61.2 78.6 61.4 78.6 61.4 78.4 C 60.4 77.8 59.2 77.2 60.1 77.3 C 59.2 76.7 59.5 77.3 59.0 77.1 C 58.6 76.7 59.1 76.9 59.3 76.7 C 59.0 76.6 58.1 76.5 58.4 76.2 C 56.8 75.8 57.2 76.4 58.1 77.3 C 59.2 77.6 58.1 77.0 59.7 78.0 C 59.7 78.0 59.7 78.0 59.7 78.0 Z M 25.3 54.4 C 25.4 54.6 25.9 55.1 25.9 55.2 C 26.7 55.7 27.5 56.1 28.4 56.5 C 28.4 56.3 27.3 55.6 27.6 56.0 C 27.4 55.6 26.8 55.0 26.5 54.5 C 25.9 53.8 25.3 54.0 25.5 53.6 C 24.8 53.1 25.2 53.5 24.3 52.4 C 25.6 54.2 23.7 52.0 23.4 52.1 C 24.2 53.0 25.0 53.8 25.1 53.5 C 25.6 54.2 26.4 55.0 26.4 55.3 C 26.2 55.3 25.7 54.8 25.3 54.4 C 25.3 54.4 25.3 54.4 25.3 54.4 Z M 29.9 57.7 C 29.6 57.5 29.3 57.3 28.8 56.8 C 29.1 57.1 29.1 57.3 29.0 57.4 C 29.9 58.2 30.3 58.3 30.3 58.6 C 30.8 59.1 30.4 58.2 31.1 59.0 C 31.1 58.9 30.7 58.6 30.8 58.5 C 30.6 58.6 30.2 58.3 29.9 57.7 C 29.9 57.7 29.9 57.7 29.9 57.7 Z M 36.9 63.8 C 37.6 64.2 36.7 63.4 37.1 63.5 C 36.9 63.4 35.8 62.5 36.1 62.5 C 35.9 61.9 34.3 61.6 34.7 61.3 C 34.4 61.1 34.4 61.3 34.3 61.3 C 35.2 61.9 35.1 62.1 34.5 61.7 C 34.5 61.8 35.0 62.1 35.3 62.4 C 35.5 62.3 35.2 62.1 35.3 62.0 C 35.9 62.6 36.3 63.2 36.9 63.8 C 36.9 63.8 36.9 63.8 36.9 63.8 Z M 107.9 37.2 C 107.2 36.9 106.7 36.7 106.4 36.6 C 106.5 36.8 106.9 36.9 107.3 37.0 C 107.3 37.2 107.0 37.1 106.6 36.9 C 106.9 37.2 108.3 37.6 107.9 37.2 C 107.9 37.2 107.9 37.2 107.9 37.2 Z M 101.6 34.6 C 100.9 34.3 100.4 34.1 100.3 34.2 C 100.5 34.5 100.5 34.2 101.0 34.4 C 101.2 34.6 101.4 34.7 101.5 34.9 C 101.8 35.0 101.8 34.9 101.9 34.9 C 102.2 34.9 102.2 35.0 102.2 35.1 C 103.1 35.2 101.1 34.7 101.6 34.6 C 101.6 34.6 101.6 34.6 101.6 34.6 Z M 33.0 60.7 C 32.9 60.4 32.8 60.2 32.3 59.8 C 32.3 60.0 31.9 59.6 31.5 59.3 C 31.9 59.9 32.2 60.0 33.0 60.7 C 33.0 60.7 33.0 60.7 33.0 60.7 Z M 61.6 23.0 C 60.7 22.7 60.7 23.1 59.4 22.7 C 59.4 22.8 59.4 22.8 59.4 22.9 C 60.2 22.9 60.5 23.1 61.6 23.0 C 61.6 23.0 61.6 23.0 61.6 23.0 Z M 159.7 92.6 C 159.6 92.4 159.1 93.0 159.0 92.9 C 159.1 93.3 158.5 93.0 157.2 94.0 C 157.1 93.9 157.2 93.8 157.3 93.7 C 156.2 94.3 157.8 93.7 158.0 93.8 C 158.8 93.2 159.0 93.3 159.7 92.6 C 159.7 92.6 159.7 92.6 159.7 92.6 Z M 85.9 88.0 C 85.8 88.1 86.0 88.1 86.2 88.2 C 86.4 88.3 86.6 88.4 86.8 88.4 C 86.9 88.1 85.8 87.6 86.8 87.6 C 86.5 87.4 86.4 87.5 86.4 87.5 C 84.6 87.6 83.8 86.1 81.6 85.8 C 81.3 85.7 81.3 85.8 81.2 85.8 C 81.5 85.9 81.5 85.9 81.5 86.0 C 81.9 85.8 83.6 86.8 82.7 86.6 C 82.8 86.7 83.0 86.8 83.1 86.7 C 83.3 86.8 83.5 86.9 83.7 87.0 C 83.6 86.8 83.2 86.6 83.1 86.5 C 84.1 87.0 85.4 87.5 84.6 87.6 C 85.2 87.8 85.5 87.7 86.0 87.8 C 86.4 87.9 86.3 88.2 85.9 88.0 C 85.9 88.0 85.9 88.0 85.9 88.0 Z M 94.3 90.7 C 95.3 91.1 95.0 90.7 96.0 91.0 C 95.4 90.7 94.5 90.7 93.7 90.3 C 93.8 90.4 94.3 90.6 94.3 90.7 C 94.3 90.7 94.3 90.7 94.3 90.7 Z M 75.8 83.7 C 76.1 83.6 75.2 83.2 74.3 82.8 C 74.0 83.0 74.8 83.4 75.8 83.7 C 75.8 83.7 75.8 83.7 75.8 83.7 Z M 79.9 85.4 C 80.9 85.7 78.8 84.9 79.4 84.8 C 78.9 84.7 78.5 84.5 78.5 84.4 C 78.1 84.3 78.1 84.4 77.5 84.2 C 77.4 84.3 78.5 84.6 78.3 84.8 C 79.1 84.9 79.2 85.0 79.9 85.4 C 79.9 85.4 79.9 85.4 79.9 85.4 Z M 80.5 85.6 C 81.2 85.8 80.6 85.1 79.8 84.8 C 80.0 85.1 80.1 85.3 80.5 85.6 C 80.5 85.6 80.5 85.6 80.5 85.6 Z M 17.2 41.6 C 17.4 41.9 17.4 41.5 17.6 42.0 C 17.7 41.9 17.0 40.4 17.7 41.7 C 17.7 41.1 17.2 41.0 17.0 40.4 C 17.0 40.6 17.0 40.8 16.9 40.4 C 16.6 40.3 17.5 41.7 17.2 41.6 C 17.2 41.6 17.2 41.6 17.2 41.6 Z M 18.0 43.2 C 18.1 43.5 18.1 43.3 18.0 43.1 C 18.1 43.1 18.4 43.6 18.6 43.9 C 18.5 44.0 18.5 43.1 18.7 43.1 C 17.8 41.8 18.2 43.0 18.0 43.2 C 18.0 43.2 18.0 43.2 18.0 43.2 Z M 18.9 44.4 C 19.2 45.5 20.2 46.7 20.8 47.2 C 20.6 46.3 19.4 44.7 18.9 44.4 C 18.9 44.4 18.9 44.4 18.9 44.4 Z M 15.9 36.1 C 15.7 37.4 16.8 40.2 16.5 37.6 C 16.3 37.8 15.9 36.1 16.1 35.4 C 15.9 35.3 15.8 34.5 15.9 34.5 C 15.8 33.9 15.7 36.4 15.9 36.1 C 15.9 36.1 15.9 36.1 15.9 36.1 Z M 22.1 48.0 C 21.6 47.6 21.8 48.5 21.3 47.7 C 21.0 47.3 21.3 47.9 21.1 47.9 C 21.8 48.7 23.7 50.4 23.6 50.8 C 24.1 51.2 24.4 51.2 25.2 52.1 C 25.3 52.1 22.2 49.1 22.0 48.1 C 22.1 48.1 23.0 49.2 22.1 48.0 C 22.1 48.0 22.1 48.0 22.1 48.0 Z M 61.3 24.5 C 61.4 24.3 60.1 24.2 60.4 24.0 C 59.7 24.2 59.1 23.9 58.3 24.0 C 58.1 23.9 58.2 23.5 57.2 23.3 C 57.1 23.5 57.6 23.5 57.1 23.6 C 56.1 23.5 56.4 23.3 55.3 23.2 C 55.4 23.6 53.0 23.0 53.2 23.4 C 53.8 23.5 53.8 23.3 54.7 23.5 C 55.0 23.5 54.9 23.6 55.3 23.7 C 54.9 23.9 54.5 23.5 54.1 23.6 C 54.1 23.8 54.9 23.9 54.9 24.1 C 55.4 24.1 54.8 23.9 54.9 23.8 C 56.1 23.9 54.8 24.3 56.1 24.5 C 55.8 24.2 55.8 24.2 56.1 24.0 C 56.6 24.2 58.2 24.2 57.3 24.4 C 57.4 24.6 58.3 24.5 58.2 24.3 C 58.7 24.3 58.8 24.4 58.8 24.5 C 60.1 24.6 60.3 24.5 60.1 24.2 C 60.4 24.0 60.5 24.4 61.3 24.5 C 61.3 24.5 61.3 24.5 61.3 24.5 Z M 17.7 29.6 C 17.9 29.1 17.5 30.1 17.2 30.5 C 17.5 30.0 17.7 30.3 18.1 29.8 C 17.9 29.9 17.8 29.9 18.1 29.5 C 18.0 29.4 17.4 30.1 17.7 29.6 C 17.7 29.6 17.7 29.6 17.7 29.6 Z M 27.0 54.0 C 27.3 54.4 29.1 55.9 30.1 56.8 C 30.1 56.4 27.5 54.7 27.5 54.2 C 26.9 53.7 27.6 54.5 27.0 54.0 C 27.0 54.0 27.0 54.0 27.0 54.0 Z M 50.0 22.6 C 49.7 22.6 49.9 22.7 50.0 22.7 C 49.9 22.8 49.3 22.7 48.9 22.7 C 49.5 22.9 48.7 22.9 48.8 23.2 C 48.5 23.1 48.4 23.2 48.3 23.2 C 48.3 22.8 46.5 23.3 48.3 23.5 C 48.0 23.3 48.1 23.3 48.8 23.3 C 49.6 23.5 50.3 23.3 50.5 23.6 C 51.1 23.7 51.3 23.5 52.0 23.6 C 52.1 23.8 52.8 24.0 52.2 24.3 C 53.5 24.4 52.7 23.8 53.8 23.8 C 54.7 24.1 53.2 24.0 53.4 24.3 C 53.7 24.3 53.6 24.4 53.7 24.5 C 54.0 24.5 54.1 24.3 53.7 24.2 C 53.8 24.2 54.9 24.1 54.6 24.3 C 55.2 24.3 53.7 23.5 52.9 23.6 C 52.4 23.6 52.4 23.2 52.9 23.2 C 52.8 23.0 51.8 23.5 52.1 23.0 C 51.7 22.9 51.3 22.9 50.9 22.9 C 51.0 22.9 51.2 23.0 51.2 23.1 C 50.8 23.0 50.4 23.0 50.0 23.0 C 50.4 22.9 50.4 22.8 50.0 22.6 C 50.0 22.6 50.0 22.6 50.0 22.6 Z M 23.3 50.0 C 24.0 50.7 24.2 50.8 24.8 51.4 C 24.7 51.0 23.2 49.5 23.3 50.0 C 23.3 50.0 23.3 50.0 23.3 50.0 Z M 66.4 26.2 C 66.4 26.1 65.8 26.0 65.8 25.9 C 66.8 26.0 65.7 25.7 66.6 25.4 C 65.3 25.3 64.8 25.8 66.4 26.3 C 67.6 26.6 65.2 26.0 66.4 26.2 C 66.4 26.2 66.4 26.2 66.4 26.2 Z M 62.7 25.3 C 62.0 25.3 63.8 25.7 64.2 25.9 C 64.2 26.0 64.2 26.1 64.2 26.1 C 65.3 26.0 63.9 25.6 65.0 25.3 C 63.8 25.0 63.3 24.8 62.2 24.7 C 62.3 24.8 62.5 24.8 62.5 24.8 C 63.3 24.9 62.7 25.2 61.9 24.9 C 62.1 25.1 62.8 25.2 63.4 25.3 C 63.2 25.2 63.1 25.1 63.1 25.0 C 63.8 25.1 63.5 25.3 64.0 25.4 C 64.0 25.5 62.7 25.4 62.7 25.3 C 62.7 25.3 62.7 25.3 62.7 25.3 Z M 124.3 47.2 C 123.7 46.9 124.8 47.9 124.5 48.1 C 125.1 48.5 125.3 48.5 125.7 48.7 C 125.6 48.5 124.9 48.1 124.7 47.8 C 125.0 47.6 125.6 48.3 125.9 48.3 C 126.5 48.2 124.4 47.6 124.3 47.2 C 124.3 47.2 124.3 47.2 124.3 47.2 Z M 32.6 23.2 C 32.2 23.2 32.4 23.3 32.6 23.3 C 32.6 23.4 31.9 23.4 31.9 23.4 C 31.3 23.5 32.2 23.4 31.6 23.6 C 31.5 23.8 32.6 23.4 32.6 23.3 C 33.5 23.2 32.9 23.6 33.1 23.7 C 33.8 23.6 33.5 23.4 34.6 23.3 C 33.9 23.3 33.4 23.2 32.6 23.2 C 32.6 23.2 32.6 23.2 32.6 23.2 Z M 68.7 26.2 C 68.8 26.1 67.9 26.4 67.1 26.0 C 66.0 25.8 67.7 26.4 66.7 26.2 C 67.6 26.4 68.6 26.4 69.9 26.7 C 70.2 26.6 68.1 26.2 69.3 26.4 C 69.3 26.3 69.0 26.3 69.0 26.3 C 68.7 26.3 68.7 26.2 68.7 26.2 C 68.7 26.2 68.7 26.2 68.7 26.2 Z M 67.3 26.5 C 67.4 26.6 67.6 26.6 67.7 26.5 C 68.0 26.6 68.0 26.8 67.6 26.8 C 68.1 27.2 68.1 26.6 69.2 27.0 C 68.8 26.7 68.6 26.5 69.5 26.9 C 70.4 26.9 67.7 26.4 67.3 26.5 C 67.3 26.5 67.3 26.5 67.3 26.5 Z M 114.9 42.5 C 114.9 42.6 115.6 42.9 116.0 43.2 C 115.4 43.1 113.0 41.8 112.7 41.5 C 112.4 41.4 112.2 41.3 112.1 41.2 C 112.1 41.3 111.4 41.1 111.7 41.3 C 111.6 41.3 111.1 41.1 111.0 41.2 C 110.1 40.7 111.4 41.1 111.2 40.9 C 110.0 40.6 110.3 40.5 109.0 39.9 C 109.1 40.2 110.6 40.8 110.4 41.0 C 111.5 41.2 112.5 41.9 113.0 42.4 C 112.2 41.6 115.8 43.2 117.4 44.0 C 117.3 44.2 117.9 44.4 118.5 44.9 C 118.9 45.3 119.0 44.8 118.0 44.4 C 118.1 44.3 119.3 45.0 119.8 45.2 C 119.3 44.8 119.7 44.9 119.4 44.7 C 118.2 44.1 119.2 44.7 118.9 44.7 C 118.7 44.6 118.4 44.4 118.0 44.3 C 119.8 44.7 115.8 43.1 117.2 43.8 C 116.0 43.2 116.1 42.9 114.9 42.5 C 114.9 42.5 114.9 42.5 114.9 42.5 Z M 85.3 30.7 C 85.0 30.6 84.0 30.5 84.0 30.3 C 82.6 30.0 83.7 30.6 82.2 30.2 C 82.3 30.3 82.9 30.4 82.9 30.5 C 83.4 30.6 84.0 30.7 83.9 30.4 C 84.6 30.7 84.8 30.6 85.2 30.7 C 85.1 30.8 84.8 30.8 84.2 30.6 C 84.1 30.8 84.3 31.0 85.1 31.2 C 85.5 31.1 85.3 30.9 85.3 30.7 C 85.3 30.7 85.3 30.7 85.3 30.7 Z M 82.0 30.0 C 81.8 29.9 81.7 29.8 81.7 29.7 C 81.3 29.3 81.4 29.9 81.0 29.8 C 80.6 29.7 80.8 29.6 80.7 29.5 C 80.1 29.3 79.7 29.3 79.4 29.1 C 78.5 29.0 80.4 29.6 80.6 29.8 C 81.3 29.9 81.1 29.7 82.0 30.0 C 82.0 30.0 82.0 30.0 82.0 30.0 Z M 72.4 27.1 C 72.3 26.9 71.9 27.1 71.5 27.0 C 71.8 27.3 72.7 27.4 72.0 27.5 C 72.9 27.8 73.0 27.8 73.9 28.0 C 74.5 28.4 74.0 27.8 73.0 27.7 C 73.1 27.6 73.6 27.7 73.7 27.6 C 74.2 28.2 76.0 27.9 74.9 28.0 C 74.7 27.9 74.5 27.8 74.4 27.6 C 74.1 27.8 72.0 27.1 72.4 27.1 C 72.4 27.1 72.4 27.1 72.4 27.1 Z M 41.4 23.1 C 43.2 23.1 43.9 23.1 44.9 23.2 C 45.0 23.3 44.9 23.3 44.7 23.3 C 44.9 23.4 45.3 23.4 45.7 23.4 C 45.7 23.3 45.5 23.3 45.5 23.4 C 44.6 23.2 45.3 23.2 45.5 23.0 C 44.4 22.7 42.6 23.1 41.8 22.8 C 41.1 22.9 42.0 22.9 41.4 23.1 C 41.4 23.1 41.4 23.1 41.4 23.1 Z M 159.0 90.5 C 158.9 90.7 158.7 90.9 158.8 91.0 C 159.0 90.7 159.1 90.5 159.3 90.3 C 158.9 90.7 158.7 90.4 158.2 90.9 C 158.4 90.8 158.5 91.0 159.0 90.5 C 159.0 90.5 159.0 90.5 159.0 90.5 Z M 75.6 28.0 C 75.6 28.2 75.6 28.3 75.2 28.2 C 75.1 28.3 76.1 28.5 76.1 28.7 C 76.5 28.7 76.4 28.6 76.8 28.7 C 76.7 28.5 75.8 28.4 76.2 28.2 C 76.5 28.3 76.5 28.3 76.6 28.4 C 77.2 28.4 76.3 28.1 75.6 28.0 C 75.6 28.0 75.6 28.0 75.6 28.0 Z M 127.0 49.0 C 126.6 48.8 126.9 49.1 127.2 49.3 C 126.3 49.0 127.5 49.9 127.4 50.2 C 127.2 49.8 126.0 49.3 125.9 49.1 C 125.5 48.9 125.8 49.3 124.9 48.9 C 124.9 49.1 126.0 49.5 125.8 49.2 C 125.9 49.6 127.0 49.9 126.8 50.1 C 128.0 50.8 128.4 50.8 128.6 50.7 C 127.4 50.1 128.2 50.0 127.1 49.5 C 127.1 49.4 127.5 49.6 127.7 49.7 C 127.7 49.6 127.2 49.2 127.0 49.0 C 127.0 49.0 127.0 49.0 127.0 49.0 Z M 95.5 34.3 C 94.8 34.1 94.7 34.3 94.7 34.5 C 95.0 34.5 95.4 34.7 96.0 34.9 C 95.9 34.7 95.0 34.4 95.5 34.3 C 95.5 34.3 95.5 34.3 95.5 34.3 Z M 122.3 46.8 C 122.3 46.6 122.1 46.6 122.0 46.6 C 121.3 46.2 121.2 46.0 121.0 45.8 C 120.6 45.6 120.6 45.8 120.6 45.9 C 121.3 46.1 121.1 46.3 122.0 46.7 C 122.0 46.6 122.1 46.6 122.3 46.8 C 122.3 46.8 122.3 46.8 122.3 46.8 Z M 102.1 37.1 C 101.7 36.9 101.9 37.1 102.0 37.2 C 101.5 37.2 100.3 36.5 99.8 36.4 C 99.6 36.6 101.3 37.2 99.4 36.5 C 99.6 36.8 101.4 37.3 102.2 37.7 C 101.9 37.9 100.8 37.4 100.7 37.7 C 101.8 37.9 102.9 38.2 103.2 38.0 C 101.8 37.4 102.4 37.4 102.1 37.1 C 102.1 37.1 102.1 37.1 102.1 37.1 Z M 103.6 37.9 C 103.5 37.7 103.2 37.7 102.7 37.5 C 103.3 38.1 103.8 38.2 105.4 38.9 C 105.4 38.8 105.4 38.8 105.4 38.7 C 105.7 38.9 106.1 39.0 106.4 39.2 C 105.1 38.3 104.7 38.3 103.2 37.8 C 103.2 37.7 103.4 37.8 103.6 37.9 C 103.6 37.9 103.6 37.9 103.6 37.9 Z M 61.2 25.2 C 61.6 25.4 61.9 25.6 62.6 25.8 C 62.6 25.5 62.2 25.3 61.2 25.2 C 61.2 25.2 61.2 25.2 61.2 25.2 Z M 123.4 47.5 C 124.2 47.8 122.6 47.1 123.0 47.6 C 123.6 48.0 124.2 48.4 124.2 48.7 C 125.5 49.0 123.1 47.7 123.4 47.5 C 123.4 47.5 123.4 47.5 123.4 47.5 Z M 117.9 45.3 C 117.6 45.1 117.8 44.8 118.0 45.1 C 118.8 45.6 117.4 44.6 118.7 45.3 C 118.2 44.9 117.0 44.2 116.3 44.0 C 116.3 44.2 117.4 44.7 117.4 44.9 C 117.4 45.0 117.2 44.9 117.0 44.8 C 117.1 45.0 117.4 45.0 117.9 45.3 C 117.9 45.3 117.9 45.3 117.9 45.3 Z M 113.6 42.7 C 114.1 43.1 114.6 43.5 115.6 44.0 C 115.0 43.5 114.8 43.1 113.6 42.7 C 113.6 42.7 113.6 42.7 113.6 42.7 Z M 160.0 80.7 C 159.8 80.2 159.7 80.7 159.7 80.8 C 159.9 81.4 160.0 81.3 160.1 81.9 C 160.3 81.6 159.9 81.1 160.0 80.7 C 160.0 80.7 160.0 80.7 160.0 80.7 Z M 160.3 82.7 C 160.2 82.7 160.4 83.4 160.2 83.5 C 160.7 83.8 160.0 84.4 160.3 84.4 C 160.3 84.6 160.2 84.7 160.2 84.9 C 160.7 84.5 160.5 83.3 160.3 82.7 C 160.3 82.7 160.3 82.7 160.3 82.7 Z M 108.2 40.8 C 107.4 40.3 108.3 41.2 107.5 40.8 C 107.4 40.9 109.0 41.6 108.0 41.3 C 109.2 42.0 108.1 40.8 108.2 40.8 C 108.2 40.8 108.2 40.8 108.2 40.8 Z M 92.8 34.8 C 92.9 34.7 91.7 34.4 91.2 34.2 C 91.2 34.2 91.6 34.4 91.8 34.5 C 91.7 34.5 91.5 34.5 91.1 34.4 C 91.3 34.7 92.3 34.7 92.8 34.8 C 92.8 34.8 92.8 34.8 92.8 34.8 Z M 111.5 37.7 C 111.9 38.1 112.5 38.6 113.0 38.4 C 113.5 38.9 112.5 38.5 113.2 38.9 C 114.1 39.2 113.6 39.3 115.0 39.8 C 114.6 40.0 115.6 40.4 115.7 40.7 C 115.1 40.5 114.6 39.9 114.2 40.0 C 114.7 40.2 114.3 40.3 114.2 40.0 C 113.3 39.5 115.4 40.3 114.4 39.6 C 113.9 39.7 112.5 38.4 111.4 37.9 C 111.9 38.0 110.7 37.3 111.5 37.7 C 111.5 37.7 111.5 37.7 111.5 37.7 Z M 116.8 40.7 C 117.6 41.1 117.7 41.7 117.5 41.6 C 117.6 41.5 116.8 41.1 116.6 41.1 C 116.8 41.2 117.0 41.3 116.9 41.4 C 115.6 40.7 116.1 40.7 115.9 40.4 C 116.7 40.7 116.8 40.9 117.1 40.9 C 116.9 40.8 116.8 40.7 116.8 40.7 C 116.8 40.7 116.8 40.7 116.8 40.7 Z M 130.1 52.5 C 130.0 52.3 129.8 52.3 129.5 52.2 C 129.6 51.9 128.0 51.5 127.9 51.2 C 128.3 51.3 129.0 51.7 129.4 51.8 C 129.1 51.5 129.0 51.4 128.6 51.3 C 128.8 51.2 129.6 51.6 129.9 51.6 C 129.9 51.8 130.3 51.8 130.4 52.0 C 129.3 51.5 130.7 52.8 130.1 52.5 C 130.1 52.5 130.1 52.5 130.1 52.5 Z M 101.0 38.0 C 100.8 38.2 101.9 39.3 100.6 39.1 C 100.4 38.8 100.3 38.5 100.5 38.3 C 99.7 38.1 99.4 37.7 98.9 37.8 C 97.7 36.5 100.0 38.3 101.0 38.0 C 101.0 38.0 101.0 38.0 101.0 38.0 Z M 95.8 36.3 C 96.2 36.2 95.5 35.9 95.7 35.8 C 96.2 36.2 98.3 36.7 97.5 36.6 C 96.9 36.4 96.8 36.6 95.8 36.3 C 95.8 36.3 95.8 36.3 95.8 36.3 Z M 42.3 65.6 C 41.4 65.2 41.2 64.5 41.8 64.7 C 41.4 64.8 42.7 65.5 42.3 65.6 C 42.3 65.6 42.3 65.6 42.3 65.6 Z M 12.9 39.0 C 13.0 39.9 13.3 40.3 13.1 40.5 C 12.8 39.7 13.0 39.7 12.8 39.0 C 12.7 39.0 12.5 38.5 12.5 38.4 C 12.7 38.8 12.8 38.7 12.9 39.0 C 12.9 39.0 12.9 39.0 12.9 39.0 Z M 77.9 24.5 C 77.9 24.4 77.5 24.2 77.7 24.1 C 78.7 24.5 79.8 24.6 80.7 24.7 C 80.7 24.8 80.6 24.9 80.6 25.0 C 79.1 24.5 78.6 24.6 77.9 24.5 C 77.9 24.5 77.9 24.5 77.9 24.5 Z M 76.1 23.5 C 75.9 23.6 76.4 24.0 75.7 23.8 C 75.7 23.7 74.6 23.1 75.2 23.2 C 75.3 23.4 75.6 23.5 76.1 23.5 C 76.1 23.5 76.1 23.5 76.1 23.5 Z M 128.6 46.2 C 129.3 46.6 128.4 45.9 128.5 45.8 C 129.0 46.1 129.6 46.5 129.8 46.7 C 129.3 46.4 128.8 46.6 128.6 46.2 C 128.6 46.2 128.6 46.2 128.6 46.2 Z M 117.5 40.9 C 115.9 40.2 116.8 40.1 115.3 39.3 C 116.0 39.5 117.3 40.2 117.8 40.2 C 117.7 40.3 118.1 40.5 118.0 40.7 C 117.4 40.4 117.4 40.2 116.8 40.0 C 116.9 40.3 117.0 40.2 116.6 40.3 C 117.1 40.5 117.3 40.6 117.6 40.7 C 117.4 40.8 117.9 41.1 117.5 40.9 C 117.5 40.9 117.5 40.9 117.5 40.9 Z M 128.0 46.6 C 128.6 46.9 128.9 47.5 128.5 47.1 C 128.5 47.0 128.0 46.9 127.9 46.7 C 128.8 47.2 127.3 46.3 127.8 46.3 C 128.3 46.6 128.5 46.6 128.5 46.4 C 128.8 46.6 129.3 46.9 129.3 47.0 C 129.1 46.9 128.7 46.7 128.7 46.7 C 128.9 46.8 129.0 46.9 128.9 47.0 C 128.4 46.7 128.2 46.6 128.0 46.6 C 128.0 46.6 128.0 46.6 128.0 46.6 Z M 124.0 44.4 C 124.8 44.8 124.8 45.1 125.0 45.4 C 123.9 44.7 123.9 44.3 123.2 43.8 C 124.0 44.3 125.1 44.5 125.3 44.8 C 124.8 44.7 124.1 44.3 124.0 44.4 C 124.0 44.4 124.0 44.4 124.0 44.4 Z M 121.4 97.5 C 120.7 97.3 120.1 97.0 119.3 96.8 C 119.0 97.0 120.4 97.7 119.8 97.4 C 119.0 97.3 119.6 97.1 118.9 97.0 C 119.5 97.4 116.0 96.8 115.9 96.4 C 116.4 96.6 116.6 96.5 116.5 96.3 C 118.0 96.6 118.6 96.5 119.6 96.6 C 120.4 97.0 122.6 97.4 123.8 97.3 C 124.6 97.8 126.0 97.5 127.0 97.9 C 127.3 97.8 126.2 97.6 127.1 97.6 C 127.6 98.0 127.2 98.0 127.9 98.2 C 128.0 98.1 127.8 97.9 128.2 97.9 C 128.2 98.1 128.6 98.1 128.8 98.2 C 127.2 98.0 128.9 98.5 127.6 98.5 C 127.1 98.3 128.2 98.1 126.8 98.0 C 126.2 98.0 125.7 98.0 125.8 98.3 C 125.4 98.3 125.2 98.3 124.9 98.3 C 125.5 98.0 122.9 98.1 124.1 97.9 C 124.2 97.9 125.0 98.1 125.6 98.0 C 125.1 97.7 124.4 97.8 123.5 97.8 C 123.1 97.5 123.7 97.6 123.2 97.4 C 122.5 97.5 123.4 97.8 122.9 97.9 C 123.1 97.9 123.4 97.9 123.4 98.0 C 122.2 97.6 121.7 97.8 121.0 97.7 C 121.5 97.6 120.3 97.4 121.4 97.5 C 121.4 97.5 121.4 97.5 121.4 97.5 Z M 132.0 98.2 C 132.2 98.3 132.5 98.3 132.8 98.3 C 132.9 98.5 131.8 98.5 132.5 98.8 C 131.3 98.7 132.6 98.5 132.0 98.2 C 132.0 98.2 132.0 98.2 132.0 98.2 Z M 126.3 96.9 C 125.9 96.6 126.1 97.2 125.7 97.2 C 126.4 97.2 127.0 97.2 127.1 97.5 C 126.3 97.3 125.9 97.3 125.0 97.2 C 125.9 97.0 124.1 96.9 123.9 96.6 C 124.6 96.6 125.1 96.5 126.0 96.6 C 125.8 96.7 127.1 96.9 126.3 96.9 C 126.3 96.9 126.3 96.9 126.3 96.9 Z M 128.6 96.8 C 128.8 97.0 130.1 96.9 129.8 97.2 C 129.0 97.1 128.7 97.2 128.9 97.4 C 128.3 97.4 128.2 97.2 127.7 97.2 C 127.4 96.9 128.3 97.0 128.6 96.9 C 128.5 96.9 128.3 96.8 128.6 96.8 C 128.6 96.8 128.6 96.8 128.6 96.8 Z M 154.2 92.8 C 154.5 93.0 153.5 93.3 153.3 93.3 C 153.7 93.4 153.6 93.5 152.9 93.9 C 153.1 93.5 152.1 93.9 151.4 93.8 C 151.3 94.1 152.2 93.9 151.2 94.3 C 150.4 94.4 149.7 94.7 148.4 95.0 C 148.1 94.9 148.7 94.7 149.0 94.5 C 148.1 94.8 148.3 94.5 147.6 94.6 C 147.8 94.7 147.3 94.9 147.0 94.8 C 148.2 94.5 145.3 94.8 146.6 94.5 C 146.7 94.6 147.0 94.5 147.3 94.4 C 147.0 94.8 148.6 94.3 149.0 94.4 C 149.5 93.8 151.1 93.6 152.7 93.2 C 152.8 93.3 152.4 93.5 152.8 93.4 C 152.8 93.3 153.3 93.1 153.5 93.0 C 153.5 93.1 153.7 93.1 154.0 93.0 C 154.0 92.9 154.0 92.9 154.2 92.8 C 154.2 92.8 154.2 92.8 154.2 92.8 Z M 70.2 79.5 C 70.4 79.1 68.4 78.4 67.8 78.3 C 68.0 77.9 71.5 79.6 70.2 79.5 C 70.2 79.5 70.2 79.5 70.2 79.5 Z M 82.6 84.2 C 82.0 84.0 82.3 84.3 81.9 84.2 C 81.9 83.9 80.5 83.9 80.6 83.7 C 81.3 83.7 81.6 83.8 82.6 84.2 C 82.6 84.2 82.6 84.2 82.6 84.2 Z M 94.1 88.2 C 93.1 87.9 94.5 88.5 94.3 88.5 C 93.5 88.3 92.6 88.0 92.8 87.8 C 93.5 88.1 94.0 88.0 94.1 88.2 C 94.1 88.2 94.1 88.2 94.1 88.2 Z M 77.0 81.7 C 76.2 81.3 77.6 81.5 77.7 81.7 C 76.8 81.5 78.1 82.2 78.9 82.4 C 78.7 82.7 78.5 82.5 78.7 82.8 C 77.5 82.5 78.6 82.5 77.8 82.2 C 77.3 82.2 77.8 82.4 77.7 82.5 C 77.4 82.4 77.1 82.3 76.8 82.2 C 76.8 82.0 76.9 81.9 76.9 81.8 C 77.3 81.9 77.7 82.1 77.6 81.9 C 77.3 81.8 77.2 81.8 77.0 81.7 C 77.0 81.7 77.0 81.7 77.0 81.7 Z M 136.1 95.2 C 135.4 95.2 136.0 95.3 136.6 95.3 C 136.7 95.2 137.1 94.8 137.9 95.0 C 136.2 95.2 138.5 95.4 137.5 95.5 C 137.1 95.3 136.0 95.6 135.2 95.5 C 134.8 95.3 135.7 95.0 136.1 95.2 C 136.1 95.2 136.1 95.2 136.1 95.2 Z M 139.2 95.3 C 139.2 95.3 138.9 95.2 138.4 95.3 C 138.9 95.0 138.1 95.0 138.8 94.9 C 138.7 95.0 141.0 95.0 139.7 95.1 C 138.5 95.0 140.0 95.3 140.5 95.3 C 140.0 95.3 138.9 95.6 138.8 95.4 C 139.1 95.4 139.3 95.4 139.2 95.3 C 139.2 95.3 139.2 95.3 139.2 95.3 Z M 157.5 89.9 C 157.5 89.7 157.2 90.0 157.1 90.0 C 157.8 89.4 158.3 88.8 158.5 88.5 C 158.3 88.8 158.5 89.0 158.7 88.8 C 158.4 89.1 158.4 89.3 158.2 89.3 C 158.3 88.9 158.0 89.5 157.5 89.9 C 157.5 89.9 157.5 89.9 157.5 89.9 Z M 157.5 89.9 " fill="#000000"></path><image xlink:href="B3452E32113AED19F68412EFAD4909CE.png" width="101.00" height="55.00" transform="matrix(1.00, 0.00, -0.00, -1.00, 42.0, 82.0)"></image><g><clipPath id="clip-239"><path d="M 6.9 56.7 L 152.1 113.0 L 171.5 62.9 L 26.3 6.6 Z M 6.9 56.7 "></path></clipPath><g clip-path="url(#clip-239)"><text xml:space="preserve" font-family="Chalkduster" font-size="18.0" fill="#000000" transform="matrix(0.93, 0.36, 0.36, -0.93, 46.5, 33.8)">A</text><text xml:space="preserve" font-family="Chalkduster" font-size="18.0" fill="#000000" transform="matrix(0.93, 0.36, 0.36, -0.93, 58.9, 38.6)">s</text><text xml:space="preserve" font-family="Chalkduster" font-size="18.0" fill="#000000" transform="matrix(0.93, 0.36, 0.36, -0.93, 67.3, 41.9)">s</text><text xml:space="preserve" font-family="Chalkduster" font-size="18.0" fill="#000000" transform="matrix(0.93, 0.36, 0.36, -0.93, 75.8, 45.2)">i</text><text xml:space="preserve" font-family="Chalkduster" font-size="18.0" fill="#000000" transform="matrix(0.93, 0.36, 0.36, -0.93, 82.4, 47.7)">s</text><text xml:space="preserve" font-family="Chalkduster" font-size="18.0" fill="#000000" transform="matrix(0.93, 0.36, 0.36, -0.93, 91.4, 51.2)">t</text><text xml:space="preserve" font-family="Chalkduster" font-size="18.0" fill="#000000" transform="matrix(0.93, 0.36, 0.36, -0.93, 98.9, 54.1)">a</text><text xml:space="preserve" font-family="Chalkduster" font-size="18.0" fill="#000000" transform="matrix(0.93, 0.36, 0.36, -0.93, 110.5, 58.6)">n</text><text xml:space="preserve" font-family="Chalkduster" font-size="18.0" fill="#000000" transform="matrix(0.93, 0.36, 0.36, -0.93, 122.2, 63.1)">t</text><text xml:space="preserve" font-family="Chalkduster" font-size="18.0" fill="#000000" transform="matrix(0.93, 0.36, 0.36, -0.93, 129.8, 66.1)">s</text></g></g></g></svg>