<?xml version="1.0" encoding="UTF-8" standalone="no"?><svg xmlns="http://www.w3.org/2000/svg" xmlns:xlink="http://www.w3.org/1999/xlink" clip-rule="evenodd" stroke-miterlimit="4.00" viewBox="0 0 247 61"><desc>SVG generated by Keynote</desc><defs></defs><g transform="matrix(1.00, 0.00, -0.00, -1.00, 0.0, 61.0)"><image xlink:href="E213A93F0780626E009C0672AAFEA555.png" width="245.00" height="57.00" transform="matrix(1.00, 0.00, -0.00, -1.00, 1.2, 59.0)" opacity="0.50"></image><g><clipPath id="clip-242"><path d="M 6.2 54.0 L 240.8 54.0 L 240.8 6.8 L 6.2 6.8 Z M 6.2 54.0 "></path></clipPath><g clip-path="url(#clip-242)"><image xlink:href="EB1D23D851EEB35D21A1FEFF7AD28E55.jpeg" width="400.00" height="400.00" transform="matrix(1.00, 0.00, -0.00, -1.00, 6.2, 54.0)"></image></g></g><image xlink:href="E3FF6455FA55AFDF29C3A303F304124E.png" width="195.00" height="46.00" transform="matrix(1.00, 0.00, -0.00, -1.00, 27.0, 45.0)"></image><g><clipPath id="clip-243"><path d="M -1.0 -1.7 L 250.8 -1.7 L 250.8 60.2 L -1.0 60.2 Z M -1.0 -1.7 "></path></clipPath><g clip-path="url(#clip-243)"><text xml:space="preserve" font-family="Chalkduster" font-size="24.0" fill="#FEFFFE" transform="matrix(1.00, 0.00, -0.00, -1.00, 31.0, 19.0)">E</text><text xml:space="preserve" font-family="Chalkduster" font-size="24.0" fill="#FEFFFE" transform="matrix(1.00, 0.00, -0.00, -1.00, 48.7, 19.0)">x</text><text xml:space="preserve" font-family="Chalkduster" font-size="24.0" fill="#FEFFFE" transform="matrix(1.00, 0.00, -0.00, -1.00, 63.1, 19.0)">a</text><text xml:space="preserve" font-family="Chalkduster" font-size="24.0" fill="#FEFFFE" transform="matrix(1.00, 0.00, -0.00, -1.00, 78.9, 19.0)">m</text><text xml:space="preserve" font-family="Chalkduster" font-size="24.0" fill="#FEFFFE" transform="matrix(1.00, 0.00, -0.00, -1.00, 103.2, 19.0)">p</text><text xml:space="preserve" font-family="Chalkduster" font-size="24.0" fill="#FEFFFE" transform="matrix(1.00, 0.00, -0.00, -1.00, 118.0, 19.0)">l</text><text xml:space="preserve" font-family="Chalkduster" font-size="24.0" fill="#FEFFFE" transform="matrix(1.00, 0.00, -0.00, -1.00, 127.9, 19.0)">e</text><text xml:space="preserve" font-family="Chalkduster" font-size="24.0" fill="#FEFFFE" transform="matrix(1.00, 0.00, -0.00, -1.00, 142.8, 19.0)"> </text><text xml:space="preserve" font-family="Chalkduster" font-size="24.0" fill="#FEFFFE" transform="matrix(1.00, 0.00, -0.00, -1.00, 154.8, 19.0)">(</text><text xml:space="preserve" font-family="Chalkduster" font-size="24.0" fill="#FEFFFE" transform="matrix(1.00, 0.00, -0.00, -1.00, 165.2, 19.0)">m</text><text xml:space="preserve" font-family="Chalkduster" font-size="24.0" fill="#FEFFFE" transform="matrix(1.00, 0.00, -0.00, -1.00, 190.1, 19.0)">e</text><text xml:space="preserve" font-family="Chalkduster" font-size="24.0" fill="#FEFFFE" transform="matrix(1.00, 0.00, -0.00, -1.00, 204.1, 19.0)">)</text></g></g></g></svg>