<?xml version="1.0" encoding="UTF-8" standalone="no"?><svg xmlns="http://www.w3.org/2000/svg" xmlns:xlink="http://www.w3.org/1999/xlink" clip-rule="evenodd" stroke-miterlimit="4.00" viewBox="0 0 117 327"><desc>SVG generated by Keynote</desc><defs></defs><g transform="matrix(1.00, 0.00, -0.00, -1.00, 0.0, 327.0)"><g><clipPath id="clip-245"><path d="M 0.7 303.5 L 116.1 303.5 L 116.1 326.1 L 0.7 326.1 Z M 0.7 303.5 "></path></clipPath><g clip-path="url(#clip-245)"><image xlink:href="9C3651D8B1FF35933204D17300795FDF.png" width="113.00" height="21.00" transform="matrix(1.00, 0.00, -0.00, -0.99, 1.7, 325.1)" opacity="0.50"></image></g></g><g><clipPath id="clip-246"><path d="M 6.7 320.1 L 110.1 320.1 L 110.1 309.5 L 6.7 309.5 Z M 6.7 320.1 "></path></clipPath><g clip-path="url(#clip-246)"><g><clipPath id="clip-247"><path d="M 0.7 303.5 L 116.1 303.5 L 116.1 326.1 L 0.7 326.1 Z M 0.7 303.5 "></path></clipPath><g clip-path="url(#clip-247)"><image xlink:href="../../0F1C3E34-B6D3-4443-8C0C-3E94B790F8DE/assets/59DBD66EA15A3D40E065F836EF2595FD.jpeg" width="400.00" height="400.00" transform="matrix(1.00, 0.00, -0.00, -1.00, 6.7, 320.1)"></image></g></g></g></g><g><clipPath id="clip-248"><path d="M 0.7 292.8 L 116.1 292.8 L 116.1 315.5 L 0.7 315.5 Z M 0.7 292.8 "></path></clipPath><g clip-path="url(#clip-248)"><image xlink:href="../../0F1C3E34-B6D3-4443-8C0C-3E94B790F8DE/assets/9C3651D8B1FF35933204D17300795FDF.png" width="113.00" height="21.00" transform="matrix(1.00, 0.00, -0.00, -0.99, 1.7, 314.5)" opacity="0.50"></image></g></g><g><clipPath id="clip-249"><path d="M 6.7 309.5 L 110.1 309.5 L 110.1 298.8 L 6.7 298.8 Z M 6.7 309.5 "></path></clipPath><g clip-path="url(#clip-249)"><g><clipPath id="clip-250"><path d="M 0.7 292.8 L 116.1 292.8 L 116.1 315.5 L 0.7 315.5 Z M 0.7 292.8 "></path></clipPath><g clip-path="url(#clip-250)"><image xlink:href="../../0F1C3E34-B6D3-4443-8C0C-3E94B790F8DE/assets/EB1D23D851EEB35D21A1FEFF7AD28E55.jpeg" width="400.00" height="400.00" transform="matrix(1.00, 0.00, -0.00, -1.00, 6.7, 309.5)"></image></g></g></g></g><g><clipPath id="clip-251"><path d="M 5.7 287.2 L 111.1 287.2 L 111.1 299.9 L 5.7 299.9 Z M 5.7 287.2 "></path></clipPath><g clip-path="url(#clip-251)"><path d="M 6.7 298.9 L 110.1 298.9 L 110.1 288.2 L 6.7 288.2 Z M 6.7 298.9 " fill="#F9DC7E"></path></g></g><g><clipPath id="clip-252"><path d="M 0.7 264.1 L 116.1 264.1 L 116.1 286.7 L 0.7 286.7 Z M 0.7 264.1 "></path></clipPath><g clip-path="url(#clip-252)"><image xlink:href="../../0F1C3E34-B6D3-4443-8C0C-3E94B790F8DE/assets/9C3651D8B1FF35933204D17300795FDF.png" width="113.00" height="21.00" transform="matrix(1.00, 0.00, -0.00, -0.99, 1.7, 285.7)" opacity="0.50"></image></g></g><g><clipPath id="clip-253"><path d="M 6.7 280.7 L 110.1 280.7 L 110.1 270.1 L 6.7 270.1 Z M 6.7 280.7 "></path></clipPath><g clip-path="url(#clip-253)"><g><clipPath id="clip-254"><path d="M 0.7 264.1 L 116.1 264.1 L 116.1 286.7 L 0.7 286.7 Z M 0.7 264.1 "></path></clipPath><g clip-path="url(#clip-254)"><image xlink:href="../../0F1C3E34-B6D3-4443-8C0C-3E94B790F8DE/assets/59DBD66EA15A3D40E065F836EF2595FD.jpeg" width="400.00" height="400.00" transform="matrix(1.00, 0.00, -0.00, -1.00, 6.7, 280.7)"></image></g></g></g></g><g><clipPath id="clip-255"><path d="M 0.7 253.4 L 116.1 253.4 L 116.1 276.1 L 0.7 276.1 Z M 0.7 253.4 "></path></clipPath><g clip-path="url(#clip-255)"><image xlink:href="../../0F1C3E34-B6D3-4443-8C0C-3E94B790F8DE/assets/9C3651D8B1FF35933204D17300795FDF.png" width="113.00" height="21.00" transform="matrix(1.00, 0.00, -0.00, -0.99, 1.7, 275.1)" opacity="0.50"></image></g></g><g><clipPath id="clip-256"><path d="M 6.7 270.1 L 110.1 270.1 L 110.1 259.4 L 6.7 259.4 Z M 6.7 270.1 "></path></clipPath><g clip-path="url(#clip-256)"><g><clipPath id="clip-257"><path d="M 0.7 253.4 L 116.1 253.4 L 116.1 276.1 L 0.7 276.1 Z M 0.7 253.4 "></path></clipPath><g clip-path="url(#clip-257)"><image xlink:href="../../0F1C3E34-B6D3-4443-8C0C-3E94B790F8DE/assets/EB1D23D851EEB35D21A1FEFF7AD28E55.jpeg" width="400.00" height="400.00" transform="matrix(1.00, 0.00, -0.00, -1.00, 6.7, 270.1)"></image></g></g></g></g><g><clipPath id="clip-258"><path d="M 5.7 247.8 L 111.1 247.8 L 111.1 260.5 L 5.7 260.5 Z M 5.7 247.8 "></path></clipPath><g clip-path="url(#clip-258)"><path d="M 6.7 259.5 L 110.1 259.5 L 110.1 248.8 L 6.7 248.8 Z M 6.7 259.5 " fill="#F9DC7E"></path></g></g><g><clipPath id="clip-259"><path d="M 0.7 224.6 L 116.1 224.6 L 116.1 247.3 L 0.7 247.3 Z M 0.7 224.6 "></path></clipPath><g clip-path="url(#clip-259)"><image xlink:href="../../0F1C3E34-B6D3-4443-8C0C-3E94B790F8DE/assets/9C3651D8B1FF35933204D17300795FDF.png" width="113.00" height="21.00" transform="matrix(1.00, 0.00, -0.00, -0.99, 1.7, 246.3)" opacity="0.50"></image></g></g><g><clipPath id="clip-260"><path d="M 6.7 241.3 L 110.1 241.3 L 110.1 230.6 L 6.7 230.6 Z M 6.7 241.3 "></path></clipPath><g clip-path="url(#clip-260)"><g><clipPath id="clip-261"><path d="M 0.7 224.6 L 116.1 224.6 L 116.1 247.3 L 0.7 247.3 Z M 0.7 224.6 "></path></clipPath><g clip-path="url(#clip-261)"><image xlink:href="../../0F1C3E34-B6D3-4443-8C0C-3E94B790F8DE/assets/59DBD66EA15A3D40E065F836EF2595FD.jpeg" width="400.00" height="400.00" transform="matrix(1.00, 0.00, -0.00, -1.00, 6.7, 241.3)"></image></g></g></g></g><g><clipPath id="clip-262"><path d="M 0.7 214.0 L 116.1 214.0 L 116.1 236.7 L 0.7 236.7 Z M 0.7 214.0 "></path></clipPath><g clip-path="url(#clip-262)"><image xlink:href="../../0F1C3E34-B6D3-4443-8C0C-3E94B790F8DE/assets/9C3651D8B1FF35933204D17300795FDF.png" width="113.00" height="21.00" transform="matrix(1.00, 0.00, -0.00, -0.99, 1.7, 235.7)" opacity="0.50"></image></g></g><g><clipPath id="clip-263"><path d="M 6.7 230.7 L 110.1 230.7 L 110.1 220.0 L 6.7 220.0 Z M 6.7 230.7 "></path></clipPath><g clip-path="url(#clip-263)"><g><clipPath id="clip-264"><path d="M 0.7 214.0 L 116.1 214.0 L 116.1 236.7 L 0.7 236.7 Z M 0.7 214.0 "></path></clipPath><g clip-path="url(#clip-264)"><image xlink:href="../../0F1C3E34-B6D3-4443-8C0C-3E94B790F8DE/assets/EB1D23D851EEB35D21A1FEFF7AD28E55.jpeg" width="400.00" height="400.00" transform="matrix(1.00, 0.00, -0.00, -1.00, 6.7, 230.7)"></image></g></g></g></g><g><clipPath id="clip-265"><path d="M 5.7 208.4 L 111.1 208.4 L 111.1 221.1 L 5.7 221.1 Z M 5.7 208.4 "></path></clipPath><g clip-path="url(#clip-265)"><path d="M 6.7 220.1 L 110.1 220.1 L 110.1 209.4 L 6.7 209.4 Z M 6.7 220.1 " fill="#F9DC7E"></path></g></g><g><clipPath id="clip-266"><path d="M 0.7 185.2 L 116.1 185.2 L 116.1 207.9 L 0.7 207.9 Z M 0.7 185.2 "></path></clipPath><g clip-path="url(#clip-266)"><image xlink:href="../../0F1C3E34-B6D3-4443-8C0C-3E94B790F8DE/assets/9C3651D8B1FF35933204D17300795FDF.png" width="113.00" height="21.00" transform="matrix(1.00, 0.00, -0.00, -0.99, 1.7, 206.9)" opacity="0.50"></image></g></g><g><clipPath id="clip-267"><path d="M 6.7 201.9 L 110.1 201.9 L 110.1 191.2 L 6.7 191.2 Z M 6.7 201.9 "></path></clipPath><g clip-path="url(#clip-267)"><g><clipPath id="clip-268"><path d="M 0.7 185.2 L 116.1 185.2 L 116.1 207.9 L 0.7 207.9 Z M 0.7 185.2 "></path></clipPath><g clip-path="url(#clip-268)"><image xlink:href="../../0F1C3E34-B6D3-4443-8C0C-3E94B790F8DE/assets/59DBD66EA15A3D40E065F836EF2595FD.jpeg" width="400.00" height="400.00" transform="matrix(1.00, 0.00, -0.00, -1.00, 6.7, 201.9)"></image></g></g></g></g><g><clipPath id="clip-269"><path d="M 0.7 174.6 L 116.1 174.6 L 116.1 197.3 L 0.7 197.3 Z M 0.7 174.6 "></path></clipPath><g clip-path="url(#clip-269)"><image xlink:href="../../0F1C3E34-B6D3-4443-8C0C-3E94B790F8DE/assets/9C3651D8B1FF35933204D17300795FDF.png" width="113.00" height="21.00" transform="matrix(1.00, 0.00, -0.00, -0.99, 1.7, 196.3)" opacity="0.50"></image></g></g><g><clipPath id="clip-270"><path d="M 6.7 191.3 L 110.1 191.3 L 110.1 180.6 L 6.7 180.6 Z M 6.7 191.3 "></path></clipPath><g clip-path="url(#clip-270)"><g><clipPath id="clip-271"><path d="M 0.7 174.6 L 116.1 174.6 L 116.1 197.3 L 0.7 197.3 Z M 0.7 174.6 "></path></clipPath><g clip-path="url(#clip-271)"><image xlink:href="../../0F1C3E34-B6D3-4443-8C0C-3E94B790F8DE/assets/EB1D23D851EEB35D21A1FEFF7AD28E55.jpeg" width="400.00" height="400.00" transform="matrix(1.00, 0.00, -0.00, -1.00, 6.7, 191.3)"></image></g></g></g></g><g><clipPath id="clip-272"><path d="M 5.7 169.0 L 111.1 169.0 L 111.1 181.7 L 5.7 181.7 Z M 5.7 169.0 "></path></clipPath><g clip-path="url(#clip-272)"><path d="M 6.7 180.7 L 110.1 180.7 L 110.1 170.0 L 6.7 170.0 Z M 6.7 180.7 " fill="#F9DC7E"></path></g></g><g><clipPath id="clip-273"><path d="M 0.7 88.4 L 116.1 88.4 L 116.1 111.1 L 0.7 111.1 Z M 0.7 88.4 "></path></clipPath><g clip-path="url(#clip-273)"><image xlink:href="../../0F1C3E34-B6D3-4443-8C0C-3E94B790F8DE/assets/9C3651D8B1FF35933204D17300795FDF.png" width="113.00" height="21.00" transform="matrix(1.00, 0.00, -0.00, -0.99, 1.7, 110.1)" opacity="0.50"></image></g></g><g><clipPath id="clip-274"><path d="M 6.7 105.1 L 110.1 105.1 L 110.1 94.4 L 6.7 94.4 Z M 6.7 105.1 "></path></clipPath><g clip-path="url(#clip-274)"><g><clipPath id="clip-275"><path d="M 0.7 88.4 L 116.1 88.4 L 116.1 111.1 L 0.7 111.1 Z M 0.7 88.4 "></path></clipPath><g clip-path="url(#clip-275)"><image xlink:href="../../0F1C3E34-B6D3-4443-8C0C-3E94B790F8DE/assets/59DBD66EA15A3D40E065F836EF2595FD.jpeg" width="400.00" height="400.00" transform="matrix(1.00, 0.00, -0.00, -1.00, 6.7, 105.1)"></image></g></g></g></g><g><clipPath id="clip-276"><path d="M 0.7 77.8 L 116.1 77.8 L 116.1 100.5 L 0.7 100.5 Z M 0.7 77.8 "></path></clipPath><g clip-path="url(#clip-276)"><image xlink:href="../../0F1C3E34-B6D3-4443-8C0C-3E94B790F8DE/assets/9C3651D8B1FF35933204D17300795FDF.png" width="113.00" height="21.00" transform="matrix(1.00, 0.00, -0.00, -0.99, 1.7, 99.5)" opacity="0.50"></image></g></g><g><clipPath id="clip-277"><path d="M 6.7 94.5 L 110.1 94.5 L 110.1 83.8 L 6.7 83.8 Z M 6.7 94.5 "></path></clipPath><g clip-path="url(#clip-277)"><g><clipPath id="clip-278"><path d="M 0.7 77.8 L 116.1 77.8 L 116.1 100.5 L 0.7 100.5 Z M 0.7 77.8 "></path></clipPath><g clip-path="url(#clip-278)"><image xlink:href="../../0F1C3E34-B6D3-4443-8C0C-3E94B790F8DE/assets/EB1D23D851EEB35D21A1FEFF7AD28E55.jpeg" width="400.00" height="400.00" transform="matrix(1.00, 0.00, -0.00, -1.00, 6.7, 94.5)"></image></g></g></g></g><g><clipPath id="clip-279"><path d="M 5.7 72.2 L 111.1 72.2 L 111.1 84.9 L 5.7 84.9 Z M 5.7 72.2 "></path></clipPath><g clip-path="url(#clip-279)"><path d="M 6.7 83.9 L 110.1 83.9 L 110.1 73.2 L 6.7 73.2 Z M 6.7 83.9 " fill="#F9DC7E"></path></g></g><g><clipPath id="clip-280"><path d="M 0.7 52.7 L 116.1 52.7 L 116.1 75.4 L 0.7 75.4 Z M 0.7 52.7 "></path></clipPath><g clip-path="url(#clip-280)"><image xlink:href="../../0F1C3E34-B6D3-4443-8C0C-3E94B790F8DE/assets/9C3651D8B1FF35933204D17300795FDF.png" width="113.00" height="21.00" transform="matrix(1.00, 0.00, -0.00, -0.99, 1.7, 74.4)" opacity="0.50"></image></g></g><g><clipPath id="clip-281"><path d="M 6.7 69.4 L 110.1 69.4 L 110.1 58.7 L 6.7 58.7 Z M 6.7 69.4 "></path></clipPath><g clip-path="url(#clip-281)"><g><clipPath id="clip-282"><path d="M 0.7 52.7 L 116.1 52.7 L 116.1 75.4 L 0.7 75.4 Z M 0.7 52.7 "></path></clipPath><g clip-path="url(#clip-282)"><image xlink:href="../../0F1C3E34-B6D3-4443-8C0C-3E94B790F8DE/assets/59DBD66EA15A3D40E065F836EF2595FD.jpeg" width="400.00" height="400.00" transform="matrix(1.00, 0.00, -0.00, -1.00, 6.7, 69.4)"></image></g></g></g></g><g><clipPath id="clip-283"><path d="M 0.7 42.1 L 116.1 42.1 L 116.1 64.8 L 0.7 64.8 Z M 0.7 42.1 "></path></clipPath><g clip-path="url(#clip-283)"><image xlink:href="../../0F1C3E34-B6D3-4443-8C0C-3E94B790F8DE/assets/9C3651D8B1FF35933204D17300795FDF.png" width="113.00" height="21.00" transform="matrix(1.00, 0.00, -0.00, -0.99, 1.7, 63.8)" opacity="0.50"></image></g></g><g><clipPath id="clip-284"><path d="M 6.7 58.8 L 110.1 58.8 L 110.1 48.1 L 6.7 48.1 Z M 6.7 58.8 "></path></clipPath><g clip-path="url(#clip-284)"><g><clipPath id="clip-285"><path d="M 0.7 42.1 L 116.1 42.1 L 116.1 64.8 L 0.7 64.8 Z M 0.7 42.1 "></path></clipPath><g clip-path="url(#clip-285)"><image xlink:href="../../0F1C3E34-B6D3-4443-8C0C-3E94B790F8DE/assets/EB1D23D851EEB35D21A1FEFF7AD28E55.jpeg" width="400.00" height="400.00" transform="matrix(1.00, 0.00, -0.00, -1.00, 6.7, 58.8)"></image></g></g></g></g><g><clipPath id="clip-286"><path d="M 5.7 36.5 L 111.1 36.5 L 111.1 49.2 L 5.7 49.2 Z M 5.7 36.5 "></path></clipPath><g clip-path="url(#clip-286)"><path d="M 6.7 48.2 L 110.1 48.2 L 110.1 37.5 L 6.7 37.5 Z M 6.7 48.2 " fill="#F9DC7E"></path></g></g><g><clipPath id="clip-287"><path d="M 0.7 17.0 L 116.1 17.0 L 116.1 39.7 L 0.7 39.7 Z M 0.7 17.0 "></path></clipPath><g clip-path="url(#clip-287)"><image xlink:href="../../0F1C3E34-B6D3-4443-8C0C-3E94B790F8DE/assets/9C3651D8B1FF35933204D17300795FDF.png" width="113.00" height="21.00" transform="matrix(1.00, 0.00, -0.00, -0.99, 1.7, 38.7)" opacity="0.50"></image></g></g><g><clipPath id="clip-288"><path d="M 6.7 33.7 L 110.1 33.7 L 110.1 23.0 L 6.7 23.0 Z M 6.7 33.7 "></path></clipPath><g clip-path="url(#clip-288)"><g><clipPath id="clip-289"><path d="M 0.7 17.0 L 116.1 17.0 L 116.1 39.7 L 0.7 39.7 Z M 0.7 17.0 "></path></clipPath><g clip-path="url(#clip-289)"><image xlink:href="../../0F1C3E34-B6D3-4443-8C0C-3E94B790F8DE/assets/59DBD66EA15A3D40E065F836EF2595FD.jpeg" width="400.00" height="400.00" transform="matrix(1.00, 0.00, -0.00, -1.00, 6.7, 33.7)"></image></g></g></g></g><g><clipPath id="clip-290"><path d="M 0.7 6.4 L 116.1 6.4 L 116.1 29.1 L 0.7 29.1 Z M 0.7 6.4 "></path></clipPath><g clip-path="url(#clip-290)"><image xlink:href="../../0F1C3E34-B6D3-4443-8C0C-3E94B790F8DE/assets/9C3651D8B1FF35933204D17300795FDF.png" width="113.00" height="21.00" transform="matrix(1.00, 0.00, -0.00, -0.99, 1.7, 28.1)" opacity="0.50"></image></g></g><g><clipPath id="clip-291"><path d="M 6.7 23.1 L 110.1 23.1 L 110.1 12.4 L 6.7 12.4 Z M 6.7 23.1 "></path></clipPath><g clip-path="url(#clip-291)"><g><clipPath id="clip-292"><path d="M 0.7 6.4 L 116.1 6.4 L 116.1 29.1 L 0.7 29.1 Z M 0.7 6.4 "></path></clipPath><g clip-path="url(#clip-292)"><image xlink:href="../../0F1C3E34-B6D3-4443-8C0C-3E94B790F8DE/assets/EB1D23D851EEB35D21A1FEFF7AD28E55.jpeg" width="400.00" height="400.00" transform="matrix(1.00, 0.00, -0.00, -1.00, 6.7, 23.1)"></image></g></g></g></g><g><clipPath id="clip-293"><path d="M 5.7 0.8 L 111.1 0.8 L 111.1 13.5 L 5.7 13.5 Z M 5.7 0.8 "></path></clipPath><g clip-path="url(#clip-293)"><path d="M 6.7 12.5 L 110.1 12.5 L 110.1 1.8 L 6.7 1.8 Z M 6.7 12.5 " fill="#F9DC7E"></path></g></g></g></svg>