<?xml version="1.0" encoding="UTF-8" standalone="no"?><svg xmlns="http://www.w3.org/2000/svg" xmlns:xlink="http://www.w3.org/1999/xlink" clip-rule="evenodd" stroke-miterlimit="4.00" viewBox="0 0 224 51"><desc>SVG generated by Keynote</desc><defs></defs><g transform="matrix(1.00, 0.00, -0.00, -1.00, 0.0, 51.0)"><path d="M 2.0 49.0 L 222.7 49.0 L 222.7 1.8 L 2.0 1.8 Z M 2.0 49.0 " fill="#F9DC7E"></path><g><clipPath id="clip-244"><path d="M -1.6 -0.6 L 226.2 -0.6 L 226.2 51.6 L -1.6 51.6 Z M -1.6 -0.6 "></path></clipPath><g clip-path="url(#clip-244)"><text xml:space="preserve" font-family="Chalkduster" font-size="24.0" fill="#282A2E" transform="matrix(1.00, 0.00, -0.00, -1.00, 10.0, 14.0)">P</text><text xml:space="preserve" font-family="Chalkduster" font-size="24.0" fill="#282A2E" transform="matrix(1.00, 0.00, -0.00, -1.00, 26.7, 14.0)">r</text><text xml:space="preserve" font-family="Chalkduster" font-size="24.0" fill="#282A2E" transform="matrix(1.00, 0.00, -0.00, -1.00, 39.3, 14.0)">a</text><text xml:space="preserve" font-family="Chalkduster" font-size="24.0" fill="#282A2E" transform="matrix(1.00, 0.00, -0.00, -1.00, 55.1, 14.0)">c</text><text xml:space="preserve" font-family="Chalkduster" font-size="24.0" fill="#282A2E" transform="matrix(1.00, 0.00, -0.00, -1.00, 69.4, 14.0)">t</text><text xml:space="preserve" font-family="Chalkduster" font-size="24.0" fill="#282A2E" transform="matrix(1.00, 0.00, -0.00, -1.00, 80.5, 14.0)">i</text><text xml:space="preserve" font-family="Chalkduster" font-size="24.0" fill="#282A2E" transform="matrix(1.00, 0.00, -0.00, -1.00, 90.2, 14.0)">c</text><text xml:space="preserve" font-family="Chalkduster" font-size="24.0" fill="#282A2E" transform="matrix(1.00, 0.00, -0.00, -1.00, 104.7, 14.0)">e</text><text xml:space="preserve" font-family="Chalkduster" font-size="24.0" fill="#282A2E" transform="matrix(1.00, 0.00, -0.00, -1.00, 119.6, 14.0)"> </text><text xml:space="preserve" font-family="Chalkduster" font-size="24.0" fill="#282A2E" transform="matrix(1.00, 0.00, -0.00, -1.00, 131.5, 14.0)">(</text><text xml:space="preserve" font-family="Chalkduster" font-size="24.0" fill="#282A2E" transform="matrix(1.00, 0.00, -0.00, -1.00, 142.7, 14.0)">Y</text><text xml:space="preserve" font-family="Chalkduster" font-size="24.0" fill="#282A2E" transform="matrix(1.00, 0.00, -0.00, -1.00, 160.2, 14.0)">o</text><text xml:space="preserve" font-family="Chalkduster" font-size="24.0" fill="#282A2E" transform="matrix(1.00, 0.00, -0.00, -1.00, 178.2, 14.0)">u</text><text xml:space="preserve" font-family="Chalkduster" font-size="24.0" fill="#282A2E" transform="matrix(1.00, 0.00, -0.00, -1.00, 194.7, 14.0)">!</text><text xml:space="preserve" font-family="Chalkduster" font-size="24.0" fill="#282A2E" transform="matrix(1.00, 0.00, -0.00, -1.00, 203.2, 14.0)">)</text></g></g></g></svg>