<?xml version="1.0" encoding="UTF-8" standalone="no"?><svg xmlns="http://www.w3.org/2000/svg" xmlns:xlink="http://www.w3.org/1999/xlink" clip-rule="evenodd" stroke-miterlimit="4.00" viewBox="0 0 178 119"><desc>SVG generated by Keynote</desc><defs></defs><g transform="matrix(1.00, 0.00, -0.00, -1.00, 0.0, 119.0)"><path d="M 133.7 97.1 C 165.8 98.3 172.0 82.4 147.4 61.7 C 122.8 40.9 76.9 23.0 44.7 21.8 C 12.6 20.6 6.4 36.5 31.0 57.3 C 55.5 78.0 101.5 95.9 133.7 97.1 Z M 133.7 97.1 " fill="#A8E685"></path><path d="M 60.5 19.6 C 60.2 19.6 60.0 19.6 59.5 19.5 C 59.7 19.6 59.8 19.7 59.8 19.8 C 60.2 19.8 60.7 19.9 61.4 20.0 C 61.4 19.9 61.0 19.9 60.8 19.8 C 60.5 19.8 60.5 19.7 60.5 19.6 C 60.5 19.6 60.5 19.6 60.5 19.6 Z M 37.2 66.2 C 36.7 65.8 37.1 66.4 37.3 66.6 C 37.4 66.5 37.4 66.5 37.6 66.7 C 37.5 66.9 37.1 66.6 36.7 66.4 C 35.3 65.4 36.6 65.8 37.2 66.2 C 37.2 66.2 37.2 66.2 37.2 66.2 Z M 119.9 98.9 C 121.2 99.1 119.8 98.6 119.6 98.5 C 120.2 98.5 119.8 98.1 120.6 98.2 C 120.7 98.3 121.0 98.5 121.2 98.6 C 120.8 98.5 120.3 98.4 120.2 98.5 C 120.7 98.6 121.4 98.7 121.4 98.8 C 120.4 98.7 121.2 99.0 121.4 99.2 C 120.5 99.0 120.1 99.2 119.9 98.9 C 119.9 98.9 119.9 98.9 119.9 98.9 Z M 156.0 66.1 C 156.4 66.5 156.7 66.9 156.5 66.9 C 156.1 66.5 155.9 66.2 155.7 65.9 C 155.6 65.9 155.6 66.1 155.2 65.7 C 155.0 65.2 155.4 65.2 155.7 65.3 C 155.6 65.5 156.9 66.8 156.0 66.1 C 156.0 66.1 156.0 66.1 156.0 66.1 Z M 125.1 44.0 C 124.1 43.3 124.9 44.3 123.8 43.6 C 124.0 43.4 123.9 43.1 124.7 43.5 C 124.7 43.6 125.1 43.9 125.1 44.0 C 125.1 44.0 125.1 44.0 125.1 44.0 Z M 84.1 87.6 C 84.0 87.8 84.9 88.0 84.6 88.2 C 84.2 88.0 83.8 87.9 83.3 87.7 C 83.3 87.5 83.5 87.4 84.1 87.6 C 84.1 87.6 84.1 87.6 84.1 87.6 Z M 129.1 97.6 C 130.4 98.0 131.8 97.7 131.4 97.9 C 131.9 98.2 130.4 98.6 130.5 98.3 C 130.4 98.0 128.1 97.6 129.1 97.6 C 129.1 97.6 129.1 97.6 129.1 97.6 Z M 45.4 66.7 C 46.6 67.6 46.7 66.9 47.3 67.7 C 47.0 67.5 46.9 67.5 46.7 67.5 C 46.9 67.6 47.3 67.8 47.2 67.9 C 46.6 67.5 45.8 67.2 45.4 66.7 C 45.4 66.7 45.4 66.7 45.4 66.7 Z M 82.2 25.2 C 82.5 25.3 82.6 25.3 82.6 25.2 C 83.6 25.5 83.6 25.3 84.2 25.7 C 84.2 26.0 83.3 25.6 82.6 25.3 C 82.5 25.4 82.2 25.3 82.2 25.2 C 82.2 25.2 82.2 25.2 82.2 25.2 Z M 110.4 36.5 C 110.4 36.4 109.9 36.0 110.8 36.4 C 111.7 37.1 110.7 36.9 109.6 36.6 C 109.5 36.6 109.5 36.7 109.5 36.8 C 109.9 37.0 110.1 37.2 110.4 37.3 C 110.7 37.1 111.1 38.0 112.8 38.5 C 112.0 38.3 112.7 39.0 111.8 38.4 C 111.9 38.7 111.2 38.4 111.3 38.6 C 111.8 38.7 112.8 39.2 112.7 38.8 C 113.2 39.1 113.6 39.3 113.9 39.5 C 114.2 39.9 112.9 39.1 113.1 39.5 C 113.4 39.6 113.5 39.7 113.7 39.8 C 113.8 39.8 113.8 39.6 114.1 39.8 C 115.1 40.3 113.8 39.9 115.2 40.6 C 115.4 40.5 114.9 40.3 115.0 40.2 C 115.7 40.4 115.6 40.5 116.3 40.7 C 116.3 40.9 115.8 40.7 116.2 40.9 C 116.7 40.8 117.4 41.8 118.3 41.9 C 118.0 41.2 118.4 42.1 119.4 42.0 C 119.5 42.2 118.8 42.2 119.5 42.6 C 119.5 41.9 122.1 43.4 120.2 41.9 C 121.4 42.5 122.0 42.2 121.1 41.7 C 123.0 42.8 122.5 42.2 123.3 42.6 C 124.0 43.0 122.8 42.5 123.1 42.9 C 122.3 42.4 122.5 42.7 121.9 42.2 C 121.9 42.3 121.7 42.3 121.5 42.3 C 122.4 42.6 123.2 43.4 122.5 43.3 C 122.1 43.1 122.6 43.0 122.1 42.7 C 122.1 43.2 121.5 42.4 121.4 42.6 C 121.6 43.0 120.3 42.7 121.4 43.3 C 121.5 43.2 121.5 43.1 121.6 43.0 C 121.9 43.1 122.2 43.3 122.4 43.4 C 122.6 43.8 122.3 43.8 122.5 44.0 C 123.0 44.3 123.3 44.3 123.5 44.3 C 122.9 44.0 122.3 43.4 123.3 43.9 C 122.7 44.1 124.7 44.7 123.7 44.5 C 124.7 45.3 125.5 45.2 125.4 45.6 C 126.0 45.9 125.7 45.4 126.4 45.8 C 127.3 46.6 127.3 46.2 128.6 47.2 C 129.0 46.9 128.7 47.3 129.1 47.6 C 129.2 47.5 129.3 47.4 129.3 47.2 C 129.7 47.7 130.8 48.5 132.0 48.9 C 132.3 49.2 132.0 49.2 132.7 49.6 C 133.7 49.8 134.4 50.8 135.6 51.0 C 135.5 51.3 136.2 51.7 136.6 51.8 C 136.7 52.0 136.0 51.9 136.6 52.3 C 137.1 52.4 136.5 51.9 137.3 52.3 C 137.1 52.5 138.2 52.6 138.1 52.9 C 137.8 52.8 137.5 52.7 137.2 52.6 C 137.5 52.8 137.3 52.9 137.6 53.1 C 137.7 52.8 138.2 53.4 138.4 53.6 C 138.4 53.4 138.6 53.4 138.8 53.5 C 139.2 53.8 139.6 54.0 139.8 54.1 C 140.3 54.6 139.4 54.1 139.9 54.5 C 140.6 54.2 140.7 55.1 142.1 55.6 C 142.2 55.9 142.6 56.4 143.3 56.9 C 143.5 56.8 142.7 56.3 142.8 56.2 C 143.8 57.0 142.7 55.9 143.3 56.4 C 144.7 57.7 145.7 58.4 147.0 59.7 C 147.1 59.6 148.3 60.4 148.2 60.4 C 147.9 60.2 149.0 61.5 149.8 62.2 C 150.2 62.1 151.7 62.9 151.9 62.8 C 152.0 63.2 151.9 63.1 151.8 63.5 C 153.0 64.8 153.8 65.1 154.2 66.1 C 154.3 65.9 154.9 66.4 155.3 66.8 C 155.1 66.8 154.7 66.7 154.4 66.5 C 155.0 67.1 155.0 67.3 155.5 67.8 C 156.5 67.9 156.6 69.3 157.4 69.3 C 158.1 70.2 157.8 70.2 158.4 70.9 C 158.5 70.8 158.7 70.9 158.9 71.0 C 158.4 70.6 158.0 70.3 158.0 69.8 C 159.0 71.0 156.7 67.2 158.5 68.9 C 158.4 69.1 158.1 69.0 158.5 69.4 C 159.4 70.5 159.1 69.7 158.7 69.2 C 159.4 69.9 159.9 70.8 159.7 70.0 C 161.0 71.6 160.1 70.7 160.4 71.3 C 162.7 74.2 164.8 78.0 165.0 81.9 C 165.4 81.9 165.2 84.0 165.0 84.7 C 165.2 85.7 165.1 86.8 164.7 87.1 C 164.9 87.3 164.1 88.2 164.4 88.4 C 164.5 88.0 164.7 87.7 164.6 88.2 C 164.0 89.6 162.7 91.4 162.3 92.2 C 161.7 92.4 161.1 93.2 160.6 93.8 C 160.5 93.7 160.8 93.3 160.5 93.6 C 160.5 93.8 159.4 94.9 159.0 94.9 C 159.4 94.7 159.6 94.1 159.1 94.5 C 159.2 94.6 158.5 95.0 158.7 95.1 C 157.9 95.5 157.4 95.9 156.6 96.2 C 157.2 95.9 157.5 95.6 157.5 95.4 C 157.1 95.8 156.7 96.0 156.2 96.1 C 156.5 96.3 155.5 96.5 154.6 97.1 C 154.3 97.1 154.0 97.0 153.2 97.3 C 152.9 97.6 154.6 97.1 153.7 97.5 C 153.6 97.4 152.7 97.5 153.0 97.7 C 151.9 98.0 151.3 98.3 150.3 98.3 C 151.5 98.1 150.5 98.0 150.2 98.0 C 149.9 98.1 149.5 98.2 149.5 98.2 C 149.5 98.3 150.2 98.2 150.3 98.2 C 149.4 98.3 149.2 98.8 148.8 98.6 C 149.2 98.6 149.3 98.4 148.8 98.5 C 148.8 98.9 146.0 99.0 146.9 98.7 C 146.9 98.8 148.0 98.7 148.1 98.5 C 147.7 98.5 146.2 98.8 146.5 98.5 C 147.4 98.4 147.4 98.6 148.4 98.3 C 148.5 98.1 149.1 98.0 149.4 97.8 C 147.8 98.1 147.5 98.4 147.2 98.2 C 146.5 98.3 147.0 98.6 145.7 98.7 C 143.9 98.8 145.4 98.4 144.9 98.4 C 143.3 98.7 143.8 99.0 144.5 99.1 C 143.2 99.2 142.8 99.4 141.1 99.5 C 141.2 99.3 141.4 99.2 142.0 99.1 C 142.0 99.2 143.4 99.2 143.3 99.1 C 143.1 98.7 142.0 98.7 140.2 98.7 C 140.7 99.0 140.7 98.9 138.9 98.9 C 139.2 99.3 138.0 98.9 137.9 99.1 C 138.0 99.2 138.7 99.2 139.3 99.1 C 139.3 99.3 139.1 99.4 138.4 99.5 C 138.0 99.4 137.7 99.5 136.5 99.4 C 136.5 99.2 137.3 99.2 137.5 99.0 C 136.8 99.0 136.7 99.1 136.0 99.2 C 135.5 98.9 135.5 98.6 135.6 98.3 C 136.3 98.2 137.5 98.2 136.6 98.1 C 139.3 98.0 136.4 98.4 137.5 98.5 C 138.6 98.1 138.0 98.6 139.7 98.5 C 140.3 98.5 140.4 98.4 140.6 98.3 C 140.5 98.2 139.5 98.0 140.6 98.0 C 140.9 98.1 141.5 98.2 142.4 98.2 C 142.3 98.1 140.6 98.1 142.3 98.0 C 143.2 97.9 142.5 98.3 143.6 98.2 C 143.6 98.1 143.9 98.0 144.0 98.0 C 142.3 98.2 144.3 97.7 143.2 97.7 C 144.6 97.5 143.4 98.0 144.4 97.8 C 144.4 97.7 145.9 97.8 145.9 97.5 C 145.4 97.7 144.2 97.8 144.3 97.5 C 145.4 97.5 149.8 96.5 148.2 97.2 C 148.8 96.9 151.6 95.9 151.5 96.1 C 150.6 96.3 150.7 96.5 150.6 96.7 C 152.2 96.0 153.0 95.9 154.4 95.0 C 152.8 95.6 153.9 94.8 152.8 94.9 C 152.3 95.1 151.7 95.3 151.6 95.4 C 151.9 95.6 152.6 95.2 152.8 95.0 C 152.9 95.2 153.0 95.4 153.0 95.6 C 151.0 96.0 149.9 96.5 148.8 96.7 C 149.7 96.5 147.0 96.7 148.0 96.4 C 148.5 96.5 149.6 96.3 150.5 96.1 C 150.5 96.1 150.4 96.0 150.4 95.9 C 150.8 95.8 151.3 95.7 151.3 95.6 C 150.2 95.9 149.5 95.8 148.7 96.2 C 148.7 96.2 148.7 96.1 148.7 96.1 C 148.5 96.1 148.3 96.1 148.3 96.0 C 148.7 95.9 149.3 95.9 149.3 95.7 C 148.4 95.9 148.2 95.7 147.2 95.8 C 147.4 95.5 146.0 95.4 147.4 95.1 C 147.7 95.3 148.5 95.2 148.5 95.3 C 149.0 95.4 149.8 95.1 150.2 94.9 C 149.7 94.8 148.9 95.0 148.8 94.7 C 149.4 94.5 149.9 94.3 150.4 94.4 C 149.1 94.9 151.1 94.4 151.7 94.5 C 151.5 94.5 151.2 94.5 151.0 94.4 C 152.0 94.1 152.5 94.2 152.4 93.8 C 153.5 93.3 153.3 93.7 154.0 93.4 C 153.4 93.2 154.4 93.0 153.8 92.9 C 154.9 92.4 154.3 93.0 154.7 92.9 C 155.0 92.7 155.0 92.6 155.3 92.4 C 155.8 92.3 156.7 91.8 157.0 91.9 C 157.3 91.7 157.5 91.7 157.8 91.5 C 157.8 91.3 157.9 91.2 158.0 91.0 C 158.1 91.0 158.4 90.9 158.4 90.8 C 157.3 91.2 157.5 91.0 156.4 91.5 C 156.4 91.6 156.2 91.7 156.5 91.7 C 155.8 92.2 155.5 92.2 154.8 92.5 C 154.6 92.4 154.3 92.2 153.7 92.7 C 153.8 92.4 153.6 92.4 153.8 92.2 C 154.2 92.2 154.8 92.0 155.3 91.9 C 155.3 91.7 155.1 91.7 155.4 91.5 C 155.6 91.5 156.0 91.4 156.2 91.1 C 156.3 91.2 156.2 91.3 156.1 91.4 C 157.1 90.9 156.6 90.9 157.3 90.5 C 157.1 90.5 156.7 90.8 157.0 90.4 C 157.5 89.9 157.7 89.9 157.9 89.7 C 157.9 89.7 157.8 89.6 158.0 89.5 C 158.4 89.3 157.5 90.6 158.4 90.2 C 158.3 90.0 158.9 89.5 159.1 89.5 C 159.0 89.8 158.5 90.0 158.6 90.1 C 159.7 89.0 159.0 90.4 160.0 89.2 C 159.9 89.1 159.8 89.1 159.7 89.0 C 159.4 89.5 159.2 89.4 159.1 89.2 C 158.7 89.6 158.4 89.5 158.2 90.0 C 158.0 89.5 158.5 89.7 158.8 89.3 C 158.6 89.1 158.3 89.5 158.1 89.4 C 159.1 88.7 158.9 88.3 159.7 87.5 C 159.3 87.6 159.9 87.0 159.7 87.0 C 159.4 87.8 158.9 87.2 158.8 87.2 C 158.5 87.7 159.0 87.7 159.0 88.1 C 158.7 88.1 158.6 88.0 158.4 87.7 C 158.7 87.4 158.6 87.4 158.7 87.0 C 159.0 86.9 159.5 86.8 159.5 87.3 C 159.5 87.1 159.6 86.5 159.8 86.5 C 159.6 87.1 159.9 86.5 159.9 86.9 C 160.2 86.5 160.1 85.6 160.4 85.0 C 160.3 85.0 160.3 84.8 160.1 84.8 C 160.3 85.4 159.8 85.4 159.6 86.0 C 159.6 85.7 159.5 85.8 159.4 85.9 C 159.6 85.4 159.5 85.1 159.7 84.7 C 159.7 84.7 159.6 84.7 159.5 84.7 C 159.7 84.1 159.7 84.1 159.4 83.6 C 159.6 83.3 160.0 83.6 160.2 83.7 C 160.1 83.4 160.1 82.3 159.9 83.0 C 159.8 82.4 160.2 82.5 160.0 81.8 C 159.7 81.8 159.9 82.4 159.5 82.3 C 159.4 81.7 159.8 82.0 159.4 81.5 C 159.6 81.4 159.8 81.3 159.6 80.8 C 159.6 81.2 159.5 80.7 159.3 80.6 C 159.4 80.9 159.4 81.1 159.4 81.3 C 159.2 80.2 159.1 80.0 158.6 79.1 C 159.0 79.4 158.9 78.8 159.2 79.4 C 158.8 78.9 158.8 78.0 158.5 77.7 C 158.6 78.2 158.9 78.8 158.8 79.0 C 158.0 77.2 157.1 76.3 156.1 74.3 C 156.4 74.6 156.6 75.1 156.7 75.1 C 156.6 74.9 156.4 74.5 156.4 74.5 C 156.9 75.1 157.3 75.7 157.5 76.0 C 157.8 76.6 157.2 75.8 157.5 76.4 C 157.7 76.4 158.1 77.5 158.2 77.0 C 157.5 76.1 157.1 75.1 157.1 74.4 C 156.1 73.8 156.7 74.6 155.6 73.9 C 155.7 73.8 155.6 73.6 155.4 73.2 C 155.4 73.7 154.5 72.4 154.4 72.2 C 154.9 72.6 156.4 74.3 156.0 73.2 C 155.8 74.0 154.4 71.0 154.5 71.8 C 153.4 70.6 154.0 70.8 153.2 70.3 C 153.3 70.2 153.5 70.2 153.2 69.9 C 152.8 69.6 152.7 69.5 152.5 69.4 C 154.0 71.2 153.3 70.9 154.1 72.0 C 154.0 71.8 153.8 71.7 153.8 71.8 C 153.8 71.8 153.7 71.8 153.6 71.5 C 153.7 71.3 152.7 70.7 152.7 70.3 C 153.0 70.6 153.3 71.0 153.3 70.8 C 152.0 69.4 152.5 69.5 150.6 67.3 C 151.1 68.0 150.2 67.3 149.5 66.6 C 148.5 65.6 149.2 65.7 147.8 64.5 C 147.5 65.1 146.3 63.1 145.0 62.6 C 145.3 62.4 144.1 61.2 143.6 61.2 C 143.6 61.1 143.1 60.7 142.8 60.5 C 142.8 60.3 143.2 60.5 142.9 60.3 C 142.6 60.1 142.7 60.5 142.3 60.2 C 141.9 59.8 142.1 59.6 141.4 59.1 C 141.2 59.2 141.6 59.5 141.2 59.3 C 140.6 58.8 140.0 58.3 140.4 58.9 C 139.4 58.3 140.1 58.2 139.2 57.6 C 139.4 57.9 139.3 57.9 138.8 57.6 C 138.6 57.2 138.6 57.1 138.6 56.9 C 138.2 56.9 138.2 57.0 137.5 56.4 C 137.4 56.5 137.4 56.6 137.3 56.7 C 137.0 56.4 136.4 56.1 136.4 55.9 C 137.0 56.4 137.0 56.1 137.3 56.2 C 136.6 55.7 135.4 54.6 136.3 55.6 C 135.3 55.0 135.9 55.0 135.1 54.6 C 135.4 55.1 135.1 54.6 134.3 54.1 C 134.2 54.5 133.8 53.8 133.2 53.6 C 133.2 53.8 133.0 53.8 132.6 53.5 C 132.7 53.4 132.4 53.2 131.9 52.9 C 131.8 53.0 132.8 53.8 131.7 53.1 C 131.3 52.7 131.4 52.4 130.6 51.9 C 130.5 51.6 131.4 52.2 131.4 51.9 C 130.6 51.7 130.4 51.4 129.5 50.8 C 129.6 51.4 127.2 50.1 128.2 51.0 C 127.9 50.7 127.3 50.8 127.1 50.4 C 127.5 50.6 127.0 50.0 127.0 50.0 C 126.5 49.7 125.4 48.9 125.3 49.1 C 126.4 49.6 126.3 49.8 126.5 50.1 C 124.9 49.4 123.6 48.5 123.9 48.4 C 123.8 48.4 123.6 48.3 123.5 48.3 C 124.1 48.6 124.2 49.2 123.6 48.8 C 123.8 48.7 123.4 48.4 123.0 48.0 C 122.8 48.2 120.9 46.8 121.1 47.3 C 122.1 47.6 122.5 48.3 121.8 48.1 C 121.4 47.6 120.3 46.9 120.7 46.8 C 120.3 46.7 120.0 46.6 119.7 46.6 C 119.3 46.6 120.0 47.0 119.8 47.1 C 119.4 46.8 118.7 46.5 118.7 46.4 C 119.8 47.0 118.1 46.0 119.4 46.4 C 118.7 46.1 118.6 45.8 118.0 45.5 C 118.0 45.6 117.7 45.5 117.6 45.5 C 118.2 45.6 118.7 46.0 118.4 46.2 C 117.3 45.7 117.6 45.5 116.8 45.1 C 116.4 45.1 115.1 44.8 114.5 44.3 C 115.7 44.9 114.5 44.2 115.2 44.4 C 116.2 45.1 116.6 45.0 117.1 45.0 C 116.7 44.6 115.9 44.1 115.6 44.3 C 116.2 44.6 116.3 44.5 116.6 44.6 C 116.5 44.8 116.3 44.8 115.9 44.6 C 115.4 44.2 114.3 43.9 115.1 43.9 C 114.3 43.7 113.6 43.0 112.7 42.8 C 113.6 43.3 114.2 43.7 114.3 44.0 C 113.6 43.7 113.0 43.1 112.9 43.3 C 112.9 43.5 114.1 44.0 114.2 44.3 C 113.2 44.0 112.0 42.7 113.0 43.8 C 112.5 43.5 111.7 43.1 111.6 42.9 C 112.2 43.2 111.6 42.6 111.4 42.4 C 110.8 42.1 110.4 42.0 110.1 42.0 C 111.0 42.3 111.5 42.9 110.9 42.6 C 110.8 42.4 110.6 42.5 110.3 42.4 C 110.3 42.3 109.3 41.9 109.2 41.7 C 109.2 41.8 109.6 42.1 109.7 42.2 C 109.1 42.0 108.1 42.0 107.8 41.5 C 108.2 41.6 108.7 41.9 108.7 41.8 C 107.3 40.8 106.9 40.3 105.1 39.3 C 105.3 39.4 105.5 39.4 105.4 39.3 C 104.2 38.7 103.5 38.3 103.7 38.2 C 102.9 37.9 102.5 37.9 102.0 37.9 C 102.8 38.3 103.1 38.2 103.5 38.6 C 103.2 38.5 104.0 39.3 104.2 39.6 C 105.7 39.9 105.6 40.3 107.0 40.8 C 106.5 40.8 108.0 41.2 107.5 41.3 C 106.4 40.4 105.1 40.2 103.3 39.2 C 103.6 39.2 103.9 39.1 103.2 38.7 C 102.0 38.1 102.5 38.6 101.5 38.2 C 101.2 37.8 101.8 38.0 101.3 37.7 C 100.9 37.7 100.0 37.3 99.8 37.0 C 101.1 37.5 99.6 36.7 100.5 36.9 C 100.1 36.7 99.9 36.6 99.6 36.5 C 100.8 37.2 98.2 36.3 99.1 36.9 C 97.3 36.3 99.2 36.2 97.7 35.7 C 98.4 36.2 97.4 35.9 96.4 35.5 C 96.2 35.1 95.1 34.7 94.3 34.3 C 94.7 34.6 95.0 34.7 94.2 34.6 C 94.6 34.8 95.3 35.1 95.8 35.1 C 95.7 35.3 95.9 35.4 96.0 35.5 C 95.0 35.2 95.3 35.4 95.0 35.4 C 94.7 35.2 93.9 34.9 93.8 34.7 C 93.8 34.8 93.5 34.7 93.4 34.7 C 94.8 35.2 93.1 35.0 93.9 35.3 C 94.5 35.5 94.2 35.1 95.0 35.4 C 95.6 36.0 94.3 35.5 93.8 35.6 C 94.4 36.0 95.2 36.0 95.3 36.3 C 94.4 36.3 93.2 35.7 92.2 35.2 C 92.1 35.5 90.4 34.5 90.1 34.8 C 90.0 34.7 89.9 34.5 89.6 34.4 C 89.2 34.5 89.0 34.1 88.7 34.0 C 88.6 34.1 88.7 34.2 88.9 34.4 C 87.6 33.8 87.3 33.7 85.7 33.3 C 85.5 33.1 85.3 32.9 85.2 32.7 C 85.6 32.8 86.0 32.8 86.2 32.8 C 84.1 32.1 85.3 33.2 83.9 32.4 C 83.9 32.5 84.9 33.1 84.1 32.9 C 82.8 32.2 80.9 31.9 81.1 31.3 C 80.0 30.7 79.1 30.9 78.6 30.4 C 78.3 30.3 78.1 30.4 77.9 30.4 C 78.3 30.7 78.7 30.9 79.1 31.2 C 79.8 31.2 80.1 31.6 79.5 31.0 C 80.6 31.3 80.8 31.5 81.3 31.8 C 79.8 31.5 78.5 31.0 78.4 31.3 C 77.9 31.0 77.6 30.7 77.3 30.5 C 77.1 30.6 75.4 30.2 75.3 30.0 C 76.4 30.3 77.7 30.3 76.7 29.9 C 74.0 29.3 72.6 28.5 70.1 28.2 C 70.1 28.1 70.3 28.0 69.9 27.9 C 69.9 28.0 69.8 28.1 69.5 28.1 C 68.8 27.9 68.4 27.7 67.4 27.5 C 67.5 27.3 67.4 27.1 66.8 26.9 C 66.5 27.1 65.4 27.4 64.8 27.2 C 65.4 27.3 64.7 26.8 64.3 26.7 C 64.6 27.1 61.6 26.0 62.4 26.5 C 61.2 26.2 60.7 26.0 60.7 25.9 C 60.2 25.9 59.9 25.9 59.5 25.9 C 59.3 25.5 57.1 25.4 56.8 25.2 C 57.5 25.4 57.7 25.1 57.2 25.0 C 56.7 25.1 54.8 25.1 54.5 25.0 C 54.6 24.9 54.8 24.7 55.7 24.7 C 54.1 24.5 54.1 24.8 53.6 25.0 C 53.7 24.7 52.9 24.9 52.7 24.9 C 52.2 24.7 52.7 24.8 52.7 24.6 C 52.2 24.5 52.0 24.3 51.3 24.3 C 51.5 24.6 50.7 24.3 50.5 24.3 C 50.3 24.4 49.9 24.5 49.3 24.5 C 50.2 24.1 45.8 23.8 46.8 24.2 C 45.9 24.3 46.0 23.8 44.9 23.8 C 44.7 24.0 44.1 23.8 44.6 24.0 C 43.8 24.1 44.0 23.7 42.3 23.8 C 43.0 24.1 40.5 23.7 40.9 24.1 C 40.2 23.7 38.8 24.3 37.5 24.0 C 37.5 24.1 37.1 24.1 37.1 24.2 C 36.9 24.3 38.7 24.3 37.5 24.4 C 36.1 24.3 36.9 24.2 36.7 24.0 C 33.0 24.4 29.2 25.0 26.5 25.8 C 26.9 25.8 26.9 25.9 26.3 26.1 C 25.4 25.9 22.9 27.3 22.7 27.7 C 22.3 27.5 21.4 28.5 21.2 28.5 C 21.4 28.4 21.6 27.9 21.2 28.2 C 21.1 28.7 20.7 28.8 20.5 29.2 C 20.1 29.2 19.5 30.4 19.5 29.6 C 19.3 29.8 19.2 29.9 19.1 30.0 C 19.3 30.2 19.1 30.3 19.5 30.1 C 18.7 30.9 18.8 31.2 18.3 31.9 C 18.4 32.1 18.7 31.6 18.6 32.0 C 18.5 32.0 18.5 32.0 18.4 32.0 C 18.4 32.1 18.5 32.2 18.3 32.3 C 18.2 32.2 18.3 32.0 18.1 31.8 C 18.0 32.3 17.6 32.5 17.8 32.7 C 18.0 32.1 18.3 32.6 18.0 32.9 C 17.9 32.5 17.8 34.3 17.9 34.8 C 17.6 35.1 17.9 34.2 17.7 34.3 C 17.7 35.3 17.6 35.3 17.9 35.4 C 17.9 36.0 17.7 36.3 18.0 37.0 C 18.0 37.5 17.8 36.8 17.9 37.3 C 18.0 37.5 18.2 37.6 18.3 38.1 C 18.1 39.4 20.3 42.1 20.7 44.1 C 20.4 43.3 21.1 44.1 21.7 45.0 C 21.6 45.1 21.4 45.1 21.7 45.4 C 21.8 45.2 22.0 45.5 22.5 46.1 C 22.4 46.2 22.2 46.2 22.5 46.5 C 22.9 46.6 23.3 47.5 23.7 47.8 C 23.7 48.2 22.8 46.9 22.6 46.9 C 23.6 48.4 24.0 48.5 25.0 49.7 C 24.4 49.2 25.2 50.3 25.3 50.6 C 25.3 50.1 26.2 50.9 25.7 50.2 C 26.1 50.6 26.8 51.2 26.8 51.4 C 26.6 51.2 26.2 50.8 26.2 50.9 C 26.7 51.4 27.2 52.3 27.7 52.4 C 27.3 52.0 27.1 51.7 27.2 51.6 C 27.4 51.7 27.7 51.8 28.0 52.0 C 26.7 51.6 29.5 53.9 29.8 53.9 C 29.8 54.5 30.0 54.6 29.8 54.7 C 31.0 55.8 31.0 55.4 31.8 56.0 C 31.4 56.0 31.3 56.2 31.9 56.9 C 31.9 56.5 32.7 57.2 32.7 56.7 C 34.5 58.1 34.7 58.7 35.8 59.6 C 35.9 59.5 35.6 59.2 35.9 59.4 C 36.4 59.9 36.8 60.3 37.1 60.7 C 37.5 60.8 37.1 60.4 37.5 60.6 C 38.3 61.4 37.9 61.5 38.5 62.2 C 39.6 62.8 39.2 62.6 39.9 62.8 C 39.7 62.6 39.4 62.3 39.8 62.5 C 40.2 63.1 40.3 63.5 40.4 63.7 C 40.0 63.4 39.7 63.1 39.5 62.9 C 39.3 63.0 38.7 62.5 39.1 63.0 C 38.5 62.5 37.8 62.0 37.0 61.4 C 37.1 61.8 36.2 60.9 36.3 61.3 C 37.3 62.0 37.4 62.3 38.4 62.9 C 38.3 62.5 39.3 63.4 39.4 63.6 C 39.5 63.4 40.2 63.9 40.1 63.6 C 40.9 64.1 40.8 64.3 41.5 64.7 C 41.5 64.8 41.4 64.9 41.7 65.1 C 42.1 65.0 42.1 65.5 42.4 65.7 C 42.4 65.3 43.4 66.2 43.6 66.1 C 43.3 65.9 42.9 65.6 42.9 65.5 C 44.1 66.3 43.2 65.5 43.1 65.2 C 43.1 65.3 42.4 65.3 42.4 65.0 C 43.6 65.6 41.2 63.7 42.1 64.4 C 42.9 65.0 42.9 64.8 43.7 65.4 C 44.4 66.4 43.1 65.8 43.9 66.7 C 44.6 66.9 45.0 67.2 45.2 67.1 C 45.2 67.2 45.3 67.4 45.5 67.6 C 45.9 67.6 44.9 66.9 45.7 67.3 C 46.1 67.6 45.5 67.6 46.4 68.1 C 46.8 68.2 45.4 67.2 46.3 67.7 C 46.9 68.5 46.1 67.5 47.1 68.0 C 47.2 68.1 47.3 68.2 47.6 68.4 C 47.6 68.6 47.4 68.6 47.7 68.9 C 48.1 68.6 48.0 69.2 48.8 69.6 C 49.3 69.6 48.1 69.0 48.5 68.9 C 49.1 69.7 49.8 69.6 50.1 69.9 C 49.3 69.7 51.1 70.6 51.0 70.9 C 50.9 70.5 51.3 70.8 52.3 71.2 C 52.2 71.6 53.4 71.9 53.5 72.4 C 53.7 72.4 54.0 72.4 54.2 72.4 C 53.9 72.2 53.6 72.0 53.7 72.0 C 54.0 72.1 54.3 72.3 54.6 72.4 C 55.0 72.9 53.5 72.6 55.5 73.6 C 55.4 73.2 56.2 73.6 56.8 73.8 C 56.9 73.5 56.0 73.4 56.0 73.2 C 56.8 73.4 57.4 73.9 57.7 74.3 C 58.9 74.8 60.2 75.6 61.9 76.3 C 62.2 76.7 60.4 75.8 61.5 76.4 C 61.9 76.7 61.8 76.4 62.4 76.7 C 61.4 77.4 66.9 79.1 67.0 79.6 C 67.3 79.5 68.8 80.3 68.7 80.0 C 67.6 79.7 67.1 79.1 66.7 78.8 C 65.7 78.5 67.4 79.4 66.5 79.0 C 66.5 78.9 65.2 78.4 65.4 78.3 C 66.7 78.9 64.8 77.7 65.9 78.0 C 67.1 78.6 69.7 79.4 69.0 79.4 C 69.0 79.4 68.5 79.1 68.4 79.2 C 69.7 79.9 70.6 80.1 71.2 80.2 C 71.8 80.6 74.4 81.4 73.7 81.3 C 73.9 81.5 72.3 80.6 72.4 80.9 C 75.0 82.1 75.1 81.9 76.8 82.8 C 76.3 82.3 78.8 83.1 78.5 83.1 C 78.4 83.3 78.9 83.7 80.0 83.9 C 79.8 84.1 80.3 84.4 80.8 84.6 C 81.2 84.5 80.4 84.3 80.6 84.1 C 81.2 84.3 81.7 84.5 82.3 84.7 C 82.2 84.8 82.1 84.9 82.5 85.1 C 83.1 85.2 85.4 85.7 85.1 85.8 C 84.1 85.8 86.5 86.6 85.0 86.2 C 85.4 86.4 85.4 86.5 85.9 86.7 C 85.9 86.6 86.0 86.5 86.0 86.4 C 87.2 86.8 86.5 86.9 87.5 87.3 C 87.6 87.2 88.1 87.4 88.2 87.3 C 87.8 87.2 87.7 87.2 87.2 87.0 C 87.9 86.9 86.2 86.5 86.4 86.2 C 87.5 86.6 87.5 86.8 87.9 87.1 C 89.4 87.4 88.7 87.3 90.2 87.9 C 90.2 87.8 89.8 87.6 89.9 87.5 C 91.7 88.2 91.4 88.6 92.7 88.8 C 92.4 88.8 91.2 88.6 92.0 88.9 C 92.9 89.0 93.2 88.9 94.3 89.2 C 94.4 89.3 94.2 89.4 94.6 89.5 C 95.1 89.6 95.2 89.4 95.7 89.4 C 95.7 89.6 96.4 89.7 96.6 89.7 C 97.0 90.0 96.4 89.9 96.9 90.1 C 97.8 90.4 98.5 90.0 99.2 90.3 C 99.1 90.6 100.0 90.8 100.8 90.9 C 100.9 91.3 102.5 91.6 103.6 92.0 C 103.4 91.7 104.5 92.1 104.3 91.8 C 103.8 91.6 103.5 91.5 103.4 91.4 C 104.7 91.7 104.9 92.3 105.9 92.1 C 106.4 92.4 106.9 92.7 107.7 92.9 C 107.9 92.8 106.3 92.3 107.2 92.5 C 107.2 92.6 107.5 92.6 107.8 92.6 C 107.6 92.9 108.3 93.1 108.6 93.3 C 109.4 93.3 110.9 94.0 110.2 93.5 C 111.4 93.7 110.6 94.0 111.4 94.2 C 111.1 93.7 112.6 94.0 111.9 93.7 C 113.1 93.9 112.9 94.3 112.4 94.3 C 113.5 94.6 113.7 94.4 114.2 94.7 C 113.8 94.3 115.5 94.5 114.6 94.5 C 114.3 94.7 115.6 94.8 115.8 94.9 C 115.4 94.7 116.0 94.8 115.2 94.5 C 116.1 94.6 117.3 94.8 118.0 95.2 C 119.0 95.2 119.9 95.3 119.5 95.5 C 120.4 95.6 120.1 95.5 121.0 95.7 C 121.0 95.7 120.7 95.6 120.7 95.5 C 122.0 95.7 121.7 95.8 123.4 96.1 C 123.1 96.3 124.2 96.5 124.5 96.7 C 123.8 96.6 123.3 96.4 122.7 96.3 C 122.6 96.4 123.1 96.6 122.7 96.5 C 122.7 96.4 122.4 96.4 122.1 96.3 C 123.2 96.7 120.7 96.5 121.5 96.4 C 121.5 96.4 121.5 96.5 121.8 96.5 C 121.6 96.2 121.6 96.3 121.8 96.1 C 121.3 96.1 120.9 95.7 120.6 95.9 C 120.6 96.0 121.2 96.1 121.2 96.2 C 119.8 96.1 120.9 95.8 119.8 95.7 C 119.5 95.9 120.0 96.1 120.3 96.3 C 119.3 96.1 118.4 96.0 118.2 95.8 C 117.2 95.7 118.2 96.0 117.5 96.0 C 117.2 95.8 117.3 95.6 116.6 95.5 C 115.9 95.5 117.0 95.8 116.3 95.7 C 115.6 95.4 116.9 95.5 115.7 95.2 C 115.9 95.6 114.7 94.9 114.8 95.2 C 115.5 95.3 115.4 95.6 115.1 95.3 C 113.6 94.7 112.4 95.4 111.0 94.5 C 111.0 94.6 110.8 94.5 110.7 94.6 C 111.8 95.0 113.5 95.3 113.7 95.8 C 114.6 95.9 114.5 95.6 114.7 95.6 C 115.7 96.1 115.6 96.1 114.9 96.3 C 113.1 96.1 112.4 95.7 111.2 95.4 C 110.5 95.4 111.2 95.5 111.4 95.7 C 107.8 94.6 110.5 95.9 109.1 95.6 C 109.2 95.4 108.9 95.3 108.6 95.2 C 108.5 95.3 108.0 95.1 107.9 95.2 C 108.1 95.3 108.2 95.3 108.2 95.4 C 107.2 95.3 107.6 95.1 107.6 95.0 C 108.3 95.2 108.8 95.2 108.9 95.1 C 108.0 95.0 107.3 94.6 106.6 94.7 C 105.9 94.2 107.3 94.2 106.9 93.8 C 107.1 93.7 106.1 94.3 105.4 94.2 C 104.3 93.9 104.2 94.1 103.1 93.9 C 102.9 93.5 104.2 94.0 104.2 93.8 C 103.8 93.7 103.8 93.6 103.5 93.6 C 102.8 93.4 102.8 93.6 102.2 93.5 C 101.9 93.2 101.7 93.3 101.2 93.3 C 100.5 93.0 101.7 93.2 100.9 93.0 C 100.2 92.7 99.5 92.8 99.3 92.7 C 99.2 92.6 99.4 92.5 99.0 92.4 C 98.1 92.3 97.8 92.3 98.9 92.7 C 97.9 92.4 97.5 92.4 97.5 92.7 C 99.1 93.1 99.4 93.2 100.1 93.7 C 100.4 93.5 100.8 93.8 101.3 94.1 C 101.1 93.6 102.0 94.2 102.4 94.1 C 102.0 94.0 101.6 93.8 101.4 93.7 C 103.0 94.1 103.0 94.2 104.4 94.1 C 104.4 94.2 104.5 94.3 104.7 94.4 C 104.2 94.4 103.1 94.1 103.0 94.3 C 103.8 94.8 104.3 94.4 105.2 95.0 C 105.7 94.9 104.5 94.5 105.3 94.7 C 105.7 94.9 106.2 95.2 106.8 95.4 C 107.5 95.6 107.9 95.5 108.5 95.6 C 108.5 95.7 108.5 95.8 109.1 95.9 C 109.1 95.8 108.6 95.6 109.1 95.6 C 110.7 96.3 111.8 96.8 113.5 97.0 C 112.9 96.8 111.6 96.2 112.3 96.4 C 113.0 96.7 114.1 96.6 114.8 97.0 C 115.0 97.1 113.9 96.7 114.1 97.2 C 114.8 97.3 115.3 97.4 115.6 97.5 C 115.7 97.4 116.5 97.6 116.3 97.3 C 115.7 97.2 115.5 97.4 115.4 97.3 C 116.0 96.7 117.6 97.9 118.7 98.1 C 119.5 98.2 118.2 97.8 119.1 97.9 C 119.6 97.9 119.9 98.5 119.0 98.4 C 118.4 98.2 118.2 98.5 118.1 98.2 C 117.8 98.2 117.5 98.1 117.5 98.2 C 117.9 98.3 117.8 98.4 118.0 98.5 C 117.4 98.4 117.3 98.8 116.8 98.5 C 117.1 98.5 117.3 98.5 117.4 98.4 C 115.7 98.2 115.2 97.9 114.3 97.6 C 114.8 97.9 114.3 97.7 114.3 97.9 C 115.0 98.0 116.4 98.4 115.5 98.3 C 115.0 97.9 114.4 98.6 113.9 98.2 C 114.3 98.2 114.3 98.1 114.5 98.1 C 113.9 97.9 114.0 97.7 113.3 97.6 C 111.2 97.5 109.8 96.6 106.3 96.3 C 105.1 96.0 107.4 96.4 107.3 96.2 C 107.0 96.1 106.9 96.1 106.7 96.0 C 106.6 96.3 106.1 95.8 105.7 96.0 C 105.8 95.8 104.1 95.6 103.4 95.2 C 103.4 95.3 103.4 95.4 103.1 95.3 C 100.8 94.4 96.3 93.6 94.6 92.8 C 94.6 93.0 93.8 92.8 93.6 92.8 C 92.5 92.4 93.0 92.4 91.3 92.1 C 90.4 91.9 91.5 92.0 91.7 92.0 C 89.2 91.3 87.1 90.3 85.4 90.1 C 84.6 89.9 85.5 89.9 83.9 89.3 C 83.7 89.6 81.4 88.2 80.9 88.4 C 79.9 88.1 78.3 87.0 78.9 87.6 C 77.6 87.1 78.6 87.1 78.1 86.9 C 77.2 86.6 78.1 87.6 77.2 87.3 C 77.4 87.1 76.6 86.8 76.1 86.4 C 76.8 86.7 77.3 86.8 77.4 86.7 C 76.7 86.6 76.8 86.5 75.8 86.1 C 75.0 85.9 72.8 85.3 72.3 84.7 C 72.2 84.8 72.4 84.9 72.5 85.0 C 71.9 84.8 71.2 84.2 71.2 84.5 C 69.8 83.9 69.3 83.4 68.4 83.3 C 67.7 83.1 68.7 83.2 66.9 82.4 C 66.8 82.6 63.6 81.1 62.9 80.5 C 62.7 80.8 62.6 80.4 62.3 80.2 C 62.1 80.3 62.2 80.4 61.8 80.3 C 61.8 80.2 61.5 80.1 61.2 80.0 C 61.6 79.7 60.0 79.5 60.1 79.2 C 60.3 79.4 60.4 79.2 60.2 79.0 C 60.0 79.2 58.9 78.2 58.9 78.5 C 59.2 78.7 60.0 79.1 59.7 79.2 C 58.5 78.7 59.1 78.6 58.3 78.2 C 58.3 78.3 58.8 78.6 58.2 78.4 C 57.4 77.9 58.2 78.3 57.7 77.9 C 57.3 77.7 56.4 77.5 56.1 77.3 C 56.2 77.4 56.0 77.1 55.9 77.0 C 54.4 76.1 50.9 74.5 49.6 73.4 C 49.4 73.4 49.1 73.3 49.1 73.5 C 48.3 72.9 48.4 73.0 47.5 72.4 C 47.5 72.5 47.4 72.6 47.4 72.6 C 46.2 72.1 47.4 72.3 46.7 71.9 C 46.3 72.3 46.3 71.5 45.7 71.1 C 45.5 71.1 45.2 70.9 45.2 71.2 C 44.2 70.5 44.4 70.2 43.5 69.8 C 43.6 69.9 43.4 70.7 43.2 70.8 C 43.1 70.6 42.8 70.4 42.5 70.1 C 43.1 70.2 43.3 69.3 41.9 68.7 C 42.6 69.1 42.8 69.3 42.6 69.4 C 41.6 68.8 41.3 68.4 40.5 67.9 C 40.3 68.0 40.8 68.4 40.5 68.5 C 40.3 68.4 40.1 68.4 40.1 68.5 C 39.3 67.9 39.4 67.7 38.4 67.2 C 38.5 67.1 38.7 67.2 38.9 67.5 C 39.0 67.3 39.1 67.1 39.7 67.5 C 39.7 67.7 39.2 67.7 40.0 68.1 C 40.1 68.0 40.2 67.9 40.2 67.8 C 39.7 67.4 38.4 66.3 38.2 66.3 C 38.5 66.6 38.9 67.0 38.5 67.0 C 37.6 66.3 37.5 65.9 36.8 65.2 C 35.4 64.3 33.1 62.5 33.2 63.0 C 32.4 62.4 32.7 62.6 32.1 62.0 C 32.1 62.4 31.3 61.5 31.2 61.7 C 32.1 62.3 31.8 62.2 32.6 62.7 C 32.5 62.8 32.3 62.8 32.0 62.6 C 32.0 62.5 31.7 62.2 31.1 61.8 C 31.2 61.9 31.5 62.5 30.9 62.0 C 30.9 61.9 30.8 61.8 30.5 61.6 C 30.6 61.5 30.7 61.4 30.8 61.3 C 31.2 61.5 31.6 61.7 31.9 61.8 C 31.6 61.7 31.6 61.6 31.4 61.4 C 31.2 61.4 30.4 60.5 30.2 60.6 C 30.6 60.9 30.8 61.2 30.3 60.9 C 30.3 60.8 29.7 60.3 29.4 60.2 C 30.1 60.9 29.8 60.7 30.1 61.2 C 29.1 60.5 30.0 60.8 28.2 59.4 C 28.3 59.2 28.4 59.1 28.9 59.4 C 28.1 58.1 25.4 56.2 24.7 55.5 C 25.2 56.0 26.0 56.3 25.2 55.5 C 25.1 55.6 24.6 55.0 24.4 55.0 C 23.9 55.1 24.3 55.9 24.8 56.7 C 24.1 56.1 23.9 56.0 23.4 55.4 C 23.3 55.1 24.2 55.5 23.5 54.7 C 23.0 54.8 22.2 53.4 21.7 53.4 C 22.2 53.9 22.4 54.3 21.9 53.8 C 22.1 53.8 21.1 52.8 21.2 52.7 C 22.0 53.4 22.4 53.5 22.9 54.0 C 22.3 53.4 23.5 54.4 22.5 53.2 C 21.9 52.9 21.5 52.8 20.5 51.6 C 20.1 51.2 20.7 51.4 20.2 50.8 C 20.1 51.1 19.1 49.9 19.8 50.5 C 19.5 50.1 19.3 49.8 19.2 49.6 C 19.5 50.3 17.0 47.6 17.2 48.1 C 17.5 47.9 17.6 47.6 17.6 47.4 C 17.0 47.0 16.7 46.2 15.8 44.7 C 15.6 44.9 15.6 44.5 15.3 43.9 C 15.1 43.8 15.3 44.4 15.1 44.0 C 14.8 43.2 14.8 43.2 14.8 43.0 C 14.6 42.5 14.4 42.1 14.4 41.8 C 14.2 41.8 14.3 42.0 14.3 42.2 C 13.7 40.0 13.1 39.1 12.8 37.4 C 12.8 38.2 13.3 38.2 13.1 37.7 C 13.0 37.3 12.9 37.0 12.8 36.8 C 12.7 37.3 12.7 37.1 12.7 36.2 C 12.5 35.5 12.3 36.6 12.3 36.0 C 12.4 35.3 12.5 35.7 12.6 35.4 C 12.5 35.1 12.5 34.8 12.5 34.5 C 12.4 35.0 12.3 34.4 12.3 33.9 C 12.5 34.3 12.5 34.1 12.6 33.0 C 12.7 32.9 12.7 33.5 12.8 33.1 C 12.9 32.9 12.7 32.0 13.1 31.4 C 13.0 31.6 13.1 31.7 13.2 31.7 C 13.2 30.9 13.7 30.5 14.0 29.9 C 13.6 30.4 13.5 30.1 13.3 30.3 C 13.7 29.7 13.8 28.9 14.3 28.5 C 13.8 29.4 14.7 28.8 15.0 28.3 C 14.9 28.1 14.4 29.0 14.3 28.5 C 14.3 28.2 15.0 27.7 15.0 27.3 C 14.9 27.3 14.8 27.7 14.6 27.7 C 14.9 27.3 14.4 27.8 14.7 27.4 C 15.0 27.3 14.9 26.9 15.1 26.6 C 15.4 26.4 16.2 26.0 16.2 25.7 C 16.2 25.6 15.8 26.0 15.7 26.0 C 16.7 24.7 17.3 24.7 18.3 23.5 C 18.6 23.5 18.8 23.4 19.2 23.2 C 19.1 23.1 19.3 22.9 19.6 22.7 C 20.3 22.5 20.9 22.2 21.7 21.9 C 21.7 22.2 21.4 22.4 22.4 22.0 C 22.5 21.8 22.0 22.0 22.4 21.8 C 22.4 21.8 22.7 21.8 22.7 21.7 C 22.7 21.6 22.7 21.6 22.6 21.5 C 22.3 21.7 22.0 21.8 21.7 21.9 C 21.7 21.8 21.6 21.7 21.3 21.8 C 22.6 21.1 22.7 21.6 23.5 21.0 C 23.8 21.3 24.1 21.3 23.4 21.8 C 24.2 21.4 24.7 21.1 24.9 20.8 C 23.9 21.2 24.1 20.8 23.8 20.8 C 24.4 20.6 24.4 20.5 24.7 20.3 C 25.5 20.2 24.0 21.0 25.5 20.6 C 24.3 20.6 26.4 20.0 27.2 19.9 C 27.0 19.8 26.7 19.9 27.1 19.7 C 29.2 19.0 29.2 19.9 30.5 19.2 C 30.4 19.4 31.1 19.3 31.3 19.3 C 30.2 19.6 29.9 19.7 29.5 19.8 C 29.6 19.9 29.9 19.9 30.2 19.8 C 30.2 19.7 30.5 19.6 31.0 19.6 C 31.3 19.4 31.1 19.1 32.0 18.7 C 32.1 18.8 32.0 19.0 32.5 18.9 C 32.9 18.7 32.2 19.3 34.2 19.0 C 33.8 19.0 33.6 18.9 33.7 18.7 C 34.7 18.5 34.5 18.6 35.9 18.4 C 36.4 18.8 35.0 19.0 34.6 19.2 C 35.5 19.1 36.3 18.8 37.2 18.9 C 36.5 18.8 37.2 18.6 38.1 18.5 C 38.9 18.5 38.1 18.8 39.0 18.8 C 39.8 18.7 40.2 18.5 39.5 18.4 C 41.2 18.5 40.8 18.2 42.3 18.2 C 42.4 18.4 41.9 18.4 41.4 18.3 C 41.5 18.4 41.3 18.5 41.8 18.6 C 42.8 18.3 45.0 18.4 45.7 18.3 C 46.9 18.8 48.5 18.3 49.8 18.6 C 49.2 18.8 51.5 18.8 52.1 19.1 C 52.6 19.1 53.9 18.7 53.4 18.9 C 53.5 19.2 54.3 19.2 54.9 19.4 C 54.9 19.3 54.9 19.2 54.9 19.1 C 56.3 19.3 56.5 19.6 57.0 19.8 C 58.7 19.9 60.4 20.5 62.6 20.6 C 63.0 21.0 63.5 21.0 64.7 21.4 C 64.7 21.2 65.7 21.4 66.6 21.6 C 66.5 21.3 67.3 21.6 67.4 21.4 C 66.5 21.2 66.9 21.0 66.5 20.8 C 67.5 21.3 68.2 20.9 69.0 21.4 C 67.9 21.2 67.5 21.5 67.3 21.8 C 68.6 22.0 69.3 22.3 69.5 22.5 C 69.6 22.4 69.5 22.2 69.2 22.1 C 69.6 22.1 70.1 22.2 70.5 22.3 C 70.6 22.5 70.0 22.4 70.4 22.6 C 70.8 22.6 71.1 22.6 71.5 22.6 C 71.8 22.9 70.9 22.6 70.8 22.7 C 72.5 23.2 71.8 22.6 72.8 22.7 C 73.0 22.9 72.9 23.2 73.6 23.4 C 74.0 23.3 74.1 23.1 75.0 23.4 C 75.6 23.5 74.9 23.7 75.6 23.9 C 75.7 23.8 76.0 24.0 76.2 24.1 C 76.2 23.9 76.5 23.9 76.9 24.0 C 77.0 24.2 77.6 24.3 77.9 24.3 C 77.9 24.4 78.9 25.0 79.1 24.9 C 79.2 24.8 78.6 24.6 78.6 24.5 C 79.3 24.8 79.8 24.9 80.2 24.9 C 80.3 25.5 81.6 25.4 83.0 26.1 C 84.0 26.2 82.9 25.7 84.2 25.9 C 84.8 26.3 83.9 26.1 84.0 26.4 C 84.2 26.4 85.2 26.9 85.3 26.8 C 85.4 26.7 84.8 26.5 84.7 26.4 C 85.7 26.5 85.5 26.7 86.0 27.0 C 86.0 26.8 86.6 26.9 86.7 26.8 C 89.2 27.4 89.0 27.8 89.9 28.3 C 89.9 28.2 90.5 28.4 90.6 28.4 C 89.9 28.2 89.0 27.7 90.0 28.0 C 89.8 28.1 91.2 28.4 91.3 28.4 C 91.2 28.2 90.3 28.0 90.7 27.9 C 92.0 28.2 91.3 28.5 92.3 28.6 C 92.4 28.8 91.9 28.6 91.6 28.6 C 92.0 28.7 92.5 28.9 92.6 29.0 C 92.1 28.9 92.0 29.1 91.8 29.1 C 92.5 29.2 93.5 29.8 92.9 29.2 C 94.1 29.7 95.4 30.0 94.6 29.5 C 95.7 29.8 95.0 29.9 95.9 30.0 C 95.7 30.2 95.4 30.3 96.0 30.7 C 96.2 30.6 96.8 30.8 96.8 30.6 C 98.3 31.2 98.7 31.6 99.2 32.0 C 98.8 31.5 99.4 32.0 100.3 32.1 C 100.7 32.4 100.1 32.5 101.4 32.9 C 100.2 32.0 103.0 33.4 102.6 32.8 C 104.1 33.6 104.1 33.6 105.7 34.4 C 105.5 34.5 105.0 34.4 104.3 34.1 C 104.9 34.1 103.0 33.4 103.1 33.5 C 103.0 33.6 103.0 33.6 103.0 33.7 C 104.2 34.2 105.0 34.5 105.5 34.9 C 105.8 34.8 106.4 35.0 106.3 34.6 C 107.3 35.4 108.7 35.5 109.1 36.0 C 108.7 35.9 108.3 35.7 108.4 35.9 C 108.9 36.0 109.5 36.2 109.5 36.0 C 108.6 35.5 108.4 35.4 107.9 35.4 C 108.4 35.4 107.1 34.7 108.1 35.0 C 107.9 35.4 110.0 35.7 109.3 35.7 C 108.2 35.4 110.3 36.3 110.4 36.5 C 110.4 36.5 110.4 36.5 110.4 36.5 Z M 113.6 97.6 C 114.6 97.7 113.5 97.3 112.8 97.1 C 113.0 97.3 113.1 97.4 113.0 97.5 C 113.3 97.5 113.6 97.5 113.6 97.6 C 113.6 97.6 113.6 97.6 113.6 97.6 Z M 104.3 91.9 C 103.9 92.1 105.5 92.4 106.2 92.6 C 106.0 92.4 105.8 92.3 106.2 92.4 C 105.6 92.0 105.2 92.4 104.3 91.9 C 104.3 91.9 104.3 91.9 104.3 91.9 Z M 68.6 80.3 C 68.8 80.4 69.5 80.6 69.5 80.7 C 69.8 80.9 69.8 80.7 69.9 80.7 C 70.7 80.9 69.6 80.9 70.8 81.3 C 71.4 81.1 69.0 79.9 68.6 80.3 C 68.6 80.3 68.6 80.3 68.6 80.3 Z M 97.0 34.9 C 97.4 35.2 96.2 35.0 96.4 35.3 C 98.3 35.8 97.0 35.0 99.4 36.0 C 99.3 35.9 99.1 35.8 99.2 35.7 C 98.0 35.4 97.9 35.5 98.3 35.2 C 97.8 35.0 97.5 35.4 97.0 34.9 C 97.0 34.9 97.0 34.9 97.0 34.9 Z M 118.7 45.7 C 118.5 45.5 118.4 45.4 118.5 45.3 C 117.7 45.1 117.9 45.2 117.0 44.6 C 116.9 45.0 117.8 45.4 118.7 45.7 C 118.7 45.7 118.7 45.7 118.7 45.7 Z M 159.7 84.2 C 159.7 84.3 159.7 84.5 159.7 84.6 C 159.8 84.5 160.1 84.8 160.1 84.2 C 160.0 84.2 160.0 84.3 160.0 84.4 C 159.9 84.3 159.9 84.0 159.8 84.1 C 159.8 84.2 159.7 84.2 159.7 84.2 C 159.7 84.2 159.7 84.2 159.7 84.2 Z M 147.9 95.7 C 149.2 95.2 145.8 95.3 147.9 95.7 C 147.9 95.7 147.9 95.7 147.9 95.7 C 147.9 95.7 147.9 95.7 147.9 95.7 Z M 151.3 97.8 C 151.4 97.9 151.6 97.8 151.6 97.7 C 152.8 97.5 151.7 97.9 152.4 97.9 C 153.2 97.4 151.8 97.6 152.9 97.1 C 152.6 97.0 152.0 97.6 151.3 97.8 C 151.3 97.8 151.3 97.8 151.3 97.8 Z M 29.0 19.6 C 28.0 19.9 27.8 20.2 27.7 20.5 C 28.3 20.4 28.9 20.3 29.2 20.4 C 30.4 20.0 28.3 20.4 28.1 20.3 C 28.1 20.1 29.1 19.9 29.0 19.6 C 29.0 19.6 29.0 19.6 29.0 19.6 Z M 25.9 20.5 C 25.5 20.8 25.0 21.0 25.0 21.2 C 25.5 21.0 25.6 21.1 25.7 21.2 C 26.2 20.9 25.5 20.9 25.9 20.5 C 25.9 20.5 25.9 20.5 25.9 20.5 Z M 32.1 19.4 C 31.6 19.5 31.9 19.7 31.8 19.8 C 32.5 19.7 32.7 19.8 33.4 19.7 C 33.4 19.6 33.4 19.5 33.4 19.4 C 32.7 19.5 32.7 19.6 32.2 19.7 C 32.2 19.6 32.2 19.5 32.1 19.4 C 32.1 19.4 32.1 19.4 32.1 19.4 Z M 23.1 21.8 C 21.5 22.5 21.1 23.2 20.4 24.0 C 21.3 23.4 22.1 22.5 22.9 22.3 C 23.9 21.8 22.5 22.2 22.5 22.2 C 22.5 22.1 22.9 21.9 23.1 21.8 C 23.1 21.8 23.1 21.8 23.1 21.8 Z M 13.8 30.7 C 13.5 31.0 13.7 31.6 13.5 32.4 C 13.6 32.2 13.7 32.1 13.8 32.1 C 14.1 31.0 13.5 31.6 13.8 30.7 C 13.8 30.7 13.8 30.7 13.8 30.7 Z M 13.5 37.6 C 13.7 38.3 13.6 37.2 13.8 37.5 C 13.7 36.7 13.6 35.9 13.4 35.9 C 13.6 36.8 13.6 36.9 13.5 37.6 C 13.5 37.6 13.5 37.6 13.5 37.6 Z M 15.2 42.8 C 15.8 43.6 15.4 42.3 15.8 42.5 C 15.6 42.2 15.5 42.4 15.4 42.4 C 15.3 42.1 15.3 41.9 15.1 41.5 C 15.1 41.8 15.5 42.8 15.2 42.8 C 15.2 42.8 15.2 42.8 15.2 42.8 Z M 55.7 20.3 C 55.1 20.3 55.2 20.5 54.1 20.3 C 55.8 20.5 54.8 21.1 57.1 21.3 C 56.7 21.2 57.0 21.1 57.1 21.3 C 58.0 21.2 56.3 21.0 57.1 20.9 C 56.5 20.8 56.8 21.1 56.2 21.1 C 55.6 20.7 55.2 20.6 55.7 20.3 C 55.7 20.3 55.7 20.3 55.7 20.3 Z M 57.0 21.6 C 57.6 21.7 57.7 21.3 58.0 21.6 C 58.3 21.6 58.2 21.5 58.3 21.4 C 58.0 21.4 58.0 21.4 58.0 21.3 C 57.5 21.3 56.9 21.3 57.0 21.6 C 57.0 21.6 57.0 21.6 57.0 21.6 Z M 51.3 20.9 C 52.4 20.9 52.6 21.1 53.2 20.9 C 53.5 21.3 53.8 20.9 54.3 21.2 C 55.3 21.3 54.6 21.1 54.4 20.9 C 55.3 20.9 54.6 21.2 55.5 21.2 C 55.8 21.0 54.5 20.9 54.7 20.6 C 54.0 20.5 53.9 20.7 53.5 20.7 C 53.1 20.7 53.3 20.5 53.2 20.4 C 52.4 20.4 52.4 20.2 51.7 20.2 C 51.5 20.4 51.8 20.5 52.6 20.5 C 51.8 20.6 51.4 20.7 50.5 20.5 C 51.2 20.3 48.3 20.0 48.5 20.4 C 49.3 20.5 49.0 20.3 49.4 20.2 C 50.4 20.5 51.0 20.6 51.3 20.9 C 51.3 20.9 51.3 20.9 51.3 20.9 Z M 32.7 20.2 C 32.3 20.2 32.0 20.2 31.5 20.3 C 31.4 20.1 32.1 20.0 31.4 19.9 C 30.6 20.0 30.4 20.2 29.9 20.3 C 30.2 20.4 32.0 20.3 31.1 20.6 C 31.4 20.6 31.9 20.6 32.7 20.5 C 31.8 20.3 33.9 20.3 34.7 20.3 C 34.6 19.9 36.2 20.2 36.8 19.9 C 36.3 19.8 34.6 20.1 33.9 20.2 C 34.2 20.1 31.8 19.9 32.7 20.2 C 32.7 20.2 32.7 20.2 32.7 20.2 Z M 59.5 21.8 C 59.7 21.8 60.4 21.8 59.8 21.7 C 60.1 21.6 60.7 21.9 60.5 21.5 C 60.8 21.5 61.1 21.6 61.4 21.6 C 61.3 21.7 60.5 21.5 60.7 21.8 C 61.4 21.8 61.1 21.9 62.0 22.1 C 61.5 22.2 62.0 22.3 61.6 22.6 C 61.8 22.5 62.6 22.6 62.6 22.4 C 63.7 22.7 62.2 22.7 63.8 23.0 C 63.7 23.1 62.6 22.9 62.2 22.7 C 61.9 22.9 64.1 23.2 65.3 23.5 C 64.3 23.1 65.1 23.0 65.7 22.9 C 66.0 23.1 65.7 23.1 66.3 23.4 C 66.8 23.5 67.1 23.4 67.2 23.6 C 67.7 23.6 67.5 23.4 67.6 23.3 C 68.3 23.5 67.7 23.7 68.8 23.9 C 68.1 23.4 69.0 23.5 70.4 23.9 C 70.4 23.8 69.9 23.7 69.9 23.6 C 70.1 23.5 70.9 24.0 71.1 24.1 C 71.6 24.2 71.3 24.0 70.8 23.9 C 71.2 23.9 71.5 23.9 71.8 23.9 C 70.3 23.5 67.7 22.9 64.9 22.0 C 65.4 22.3 64.8 22.3 63.9 22.0 C 63.8 21.8 64.2 21.9 64.6 22.0 C 63.7 21.5 63.6 22.1 62.1 21.7 C 61.2 21.4 63.1 21.7 62.1 21.4 C 61.5 21.3 61.1 21.4 60.9 21.1 C 59.9 21.1 59.6 21.3 58.0 21.1 C 58.9 21.3 59.2 22.0 60.1 22.0 C 60.1 21.9 59.7 21.8 59.5 21.8 C 59.5 21.8 59.5 21.8 59.5 21.8 Z M 25.7 21.3 C 25.2 21.5 24.9 21.7 24.8 21.6 C 23.9 22.0 25.0 21.8 25.2 21.8 C 25.6 21.6 25.7 21.5 25.7 21.3 C 25.7 21.3 25.7 21.3 25.7 21.3 Z M 71.8 84.0 C 73.0 84.6 72.9 84.2 73.8 84.6 C 73.1 84.2 73.0 83.9 71.7 83.4 C 71.5 83.6 71.5 83.8 71.8 84.0 C 71.8 84.0 71.8 84.0 71.8 84.0 Z M 29.2 20.6 C 30.0 20.1 28.2 21.1 28.2 20.9 C 27.2 21.3 29.1 20.8 28.3 21.3 C 29.1 20.9 29.6 21.0 30.8 20.7 C 30.7 20.5 29.8 20.7 28.9 20.9 C 28.8 20.8 29.2 20.7 29.2 20.6 C 29.2 20.6 29.2 20.6 29.2 20.6 Z M 60.0 77.9 C 59.1 77.6 60.5 78.6 60.9 79.0 C 61.1 78.7 60.9 78.6 60.0 77.9 C 60.0 77.9 60.0 77.9 60.0 77.9 Z M 80.3 87.0 C 80.9 86.9 78.9 86.4 79.4 86.3 C 78.9 86.1 78.8 86.1 78.7 86.2 C 78.5 86.0 77.5 85.7 77.9 85.6 C 77.8 85.4 79.3 86.2 78.9 85.8 C 79.4 86.0 79.4 86.1 79.8 86.2 C 78.9 85.8 79.2 86.3 80.4 86.8 C 80.5 86.6 79.9 86.4 80.5 86.5 C 80.5 86.6 81.1 87.0 80.9 87.3 C 81.9 87.7 81.5 87.1 82.6 87.5 C 82.6 87.3 81.8 87.1 81.4 86.8 C 81.7 86.6 82.6 87.5 82.5 87.0 C 82.6 87.3 83.3 87.7 83.3 87.9 C 82.3 87.7 81.6 87.6 80.8 87.5 C 81.5 87.9 82.7 87.7 83.8 88.4 C 83.7 88.1 84.5 88.4 84.3 88.1 C 85.2 88.5 84.7 88.6 84.5 88.6 C 84.7 88.8 86.5 89.4 86.5 89.1 C 86.5 89.4 88.8 90.1 88.8 89.8 C 89.4 90.2 90.5 90.1 90.7 90.6 C 91.1 90.6 91.9 90.8 92.7 91.1 C 93.0 90.9 91.5 90.6 91.5 90.4 C 91.3 90.1 93.0 90.9 92.8 90.7 C 92.8 90.6 92.9 90.6 92.9 90.5 C 92.2 90.4 91.5 90.2 90.8 90.1 C 90.4 89.9 91.0 90.1 90.9 89.9 C 90.4 89.9 88.2 89.5 88.3 89.0 C 86.9 88.7 85.9 88.3 85.3 88.2 C 84.5 87.9 85.8 88.3 85.4 87.9 C 82.9 87.4 80.1 85.9 77.9 85.5 C 77.5 85.3 77.7 85.2 77.7 85.0 C 74.9 84.1 77.1 85.4 75.0 84.4 C 75.1 84.2 76.1 84.6 76.1 84.4 C 75.4 84.1 75.1 84.2 74.2 83.7 C 74.1 83.8 74.1 83.9 74.0 84.0 C 73.2 83.6 73.7 83.5 73.3 83.2 C 72.2 82.9 72.4 83.1 72.0 82.6 C 71.0 82.3 70.1 82.0 69.2 81.5 C 68.4 81.3 69.5 82.2 70.5 82.7 C 70.4 82.7 70.2 82.6 70.1 82.7 C 69.0 82.0 69.0 81.5 67.3 80.6 C 68.5 81.5 66.6 80.4 66.4 80.1 C 65.7 79.8 66.1 80.4 66.6 80.6 C 66.4 80.6 66.0 80.3 66.0 80.2 C 65.8 80.5 67.4 81.4 69.2 82.1 C 68.2 82.1 70.5 82.6 69.4 82.7 C 70.9 83.3 69.7 82.4 71.4 83.2 C 71.3 83.0 71.0 82.8 70.9 82.7 C 72.2 83.2 71.7 83.3 73.0 83.8 C 73.3 83.7 72.4 83.4 72.5 83.3 C 73.9 84.1 74.3 84.4 75.2 85.0 C 75.4 84.9 75.2 84.6 76.8 85.4 C 76.8 85.4 76.8 85.5 76.8 85.5 C 76.0 85.2 75.7 85.5 77.6 86.3 C 77.8 86.2 77.2 86.0 76.7 85.8 C 77.0 85.7 77.6 85.9 78.4 86.2 C 78.7 86.3 79.1 86.6 78.6 86.4 C 78.9 86.8 79.3 86.5 80.3 87.0 C 80.3 87.0 80.3 87.0 80.3 87.0 Z M 14.8 29.7 C 14.7 29.9 14.7 30.1 14.6 30.5 C 14.7 30.7 14.9 30.0 15.1 30.1 C 15.3 29.6 14.8 29.9 14.8 29.7 C 14.8 29.7 14.8 29.7 14.8 29.7 Z M 19.9 24.3 C 19.8 24.2 19.6 24.6 19.0 25.0 C 19.0 25.2 19.6 24.7 19.6 24.9 C 20.3 24.5 19.3 24.7 19.9 24.3 C 19.9 24.3 19.9 24.3 19.9 24.3 Z M 17.3 26.4 C 17.0 26.4 17.2 26.7 17.6 26.2 C 17.7 26.4 17.7 26.6 17.5 26.8 C 17.9 26.8 17.8 26.3 18.3 25.9 C 18.1 25.9 17.7 26.1 17.3 26.4 C 17.3 26.4 17.3 26.4 17.3 26.4 Z M 16.6 27.2 C 16.5 27.6 16.2 27.6 15.9 28.2 C 16.1 28.2 16.9 27.0 17.0 26.8 C 17.1 26.5 16.0 27.7 16.6 27.2 C 16.6 27.2 16.6 27.2 16.6 27.2 Z M 48.5 71.3 C 48.8 71.4 48.8 71.3 48.9 71.3 C 49.6 72.1 50.8 72.8 49.7 72.5 C 50.7 72.8 51.4 73.6 52.2 74.1 C 52.8 74.5 52.6 74.1 53.2 74.4 C 54.0 74.9 52.6 74.2 52.8 74.4 C 52.8 74.7 53.3 74.4 54.2 75.1 C 54.2 74.6 55.1 75.6 55.0 75.1 C 55.5 75.5 55.7 75.5 56.5 75.9 C 56.5 75.7 55.8 75.3 55.7 75.1 C 55.5 74.7 55.2 75.1 56.0 75.4 C 55.4 75.4 54.6 74.6 54.2 74.6 C 53.9 74.1 55.1 75.0 54.9 74.6 C 54.6 74.5 54.4 74.4 54.3 74.4 C 53.9 74.2 53.6 73.9 53.5 73.7 C 53.8 73.9 53.8 73.9 53.7 74.0 C 54.3 74.3 53.4 73.3 54.5 73.9 C 54.4 73.8 53.9 73.5 54.0 73.4 C 53.8 73.1 53.7 74.0 52.7 73.1 C 51.8 72.9 54.4 74.3 53.5 74.4 C 51.9 73.4 53.0 73.6 51.8 72.9 C 51.7 73.0 51.7 73.1 51.3 72.9 C 51.3 73.0 51.8 73.3 52.2 73.5 C 52.1 73.5 51.6 73.2 51.3 73.0 C 51.3 73.1 51.5 73.3 51.5 73.3 C 50.4 72.7 50.8 72.3 51.8 72.7 C 51.9 72.5 50.6 71.8 50.2 71.7 C 50.4 72.0 50.1 71.8 50.2 72.2 C 50.5 72.3 50.5 72.2 50.6 72.2 C 51.1 72.6 50.6 72.4 50.5 72.4 C 49.9 72.1 50.1 71.9 49.4 71.7 C 49.6 71.7 49.8 71.8 49.8 71.7 C 49.5 71.5 49.2 71.3 49.0 71.2 C 48.9 71.3 48.6 71.1 48.5 71.3 C 48.5 71.3 48.5 71.3 48.5 71.3 Z M 63.5 79.9 C 64.5 80.5 64.0 80.0 63.6 79.8 C 63.8 79.8 64.2 79.9 64.6 80.1 C 64.3 79.8 64.0 79.8 63.1 79.3 C 64.0 79.4 63.4 78.6 61.8 77.9 C 61.2 78.1 62.4 78.8 61.8 78.8 C 63.0 79.1 63.5 79.6 63.5 79.9 C 63.5 79.9 63.5 79.9 63.5 79.9 Z M 25.2 21.9 C 24.6 22.1 24.0 22.3 23.4 22.6 C 23.6 22.8 25.5 22.2 25.2 21.9 C 25.2 21.9 25.2 21.9 25.2 21.9 Z M 73.0 24.5 C 73.3 24.5 73.3 24.6 73.3 24.6 C 74.3 24.8 73.0 24.3 73.4 24.3 C 73.1 24.2 72.8 24.1 72.5 24.0 C 72.4 24.1 73.7 24.6 72.7 24.4 C 72.7 24.5 73.0 24.5 73.0 24.5 C 73.0 24.5 73.0 24.5 73.0 24.5 Z M 15.3 29.4 C 15.2 29.8 15.6 29.7 15.1 30.7 C 15.4 30.4 15.4 30.1 15.7 29.6 C 15.5 29.5 15.4 29.4 15.3 29.4 C 15.3 29.4 15.3 29.4 15.3 29.4 Z M 44.2 69.1 C 44.8 69.8 45.3 69.4 46.5 70.3 C 46.0 69.7 45.0 69.5 44.2 69.1 C 44.2 69.1 44.2 69.1 44.2 69.1 Z M 95.4 91.5 C 95.0 91.3 95.6 91.5 94.8 91.1 C 94.3 91.0 94.1 91.1 93.4 90.9 C 94.3 91.5 96.0 91.7 96.6 92.3 C 97.4 92.5 97.4 92.2 97.7 92.1 C 97.3 92.0 97.1 91.9 97.1 91.9 C 96.5 92.1 96.1 91.3 95.4 91.5 C 95.4 91.5 95.4 91.5 95.4 91.5 Z M 59.7 77.6 C 59.2 77.2 60.2 77.6 60.5 77.6 C 60.9 77.8 60.7 77.9 60.7 78.0 C 61.2 78.3 61.4 78.2 61.4 78.0 C 60.4 77.5 59.2 76.8 60.1 76.9 C 59.2 76.4 59.5 76.9 59.0 76.8 C 58.6 76.3 59.1 76.5 59.3 76.3 C 59.0 76.3 58.1 76.1 58.4 75.9 C 56.8 75.4 57.2 76.1 58.1 77.0 C 59.2 77.3 58.1 76.6 59.7 77.6 C 59.7 77.6 59.7 77.6 59.7 77.6 Z M 25.3 54.1 C 25.4 54.3 25.9 54.8 25.9 54.9 C 26.7 55.4 27.5 55.8 28.4 56.2 C 28.4 55.9 27.3 55.2 27.6 55.7 C 27.4 55.3 26.8 54.6 26.5 54.2 C 25.9 53.5 25.3 53.7 25.5 53.3 C 24.8 52.8 25.2 53.1 24.3 52.1 C 25.6 53.8 23.7 51.7 23.4 51.8 C 24.2 52.7 25.0 53.5 25.1 53.2 C 25.6 53.9 26.4 54.7 26.4 55.0 C 26.2 55.0 25.7 54.5 25.3 54.1 C 25.3 54.1 25.3 54.1 25.3 54.1 Z M 29.9 57.4 C 29.6 57.1 29.3 56.9 28.8 56.5 C 29.1 56.8 29.1 57.0 29.0 57.0 C 29.9 57.8 30.3 58.0 30.3 58.3 C 30.8 58.7 30.4 57.9 31.1 58.7 C 31.1 58.5 30.7 58.2 30.8 58.2 C 30.6 58.2 30.2 58.0 29.9 57.4 C 29.9 57.4 29.9 57.4 29.9 57.4 Z M 36.9 63.4 C 37.6 63.9 36.7 63.1 37.1 63.2 C 36.9 63.1 35.8 62.2 36.1 62.1 C 35.9 61.6 34.3 61.2 34.7 61.0 C 34.4 60.8 34.4 61.0 34.3 61.0 C 35.2 61.6 35.1 61.7 34.5 61.3 C 34.5 61.5 35.0 61.8 35.3 62.1 C 35.5 62.0 35.2 61.7 35.3 61.7 C 35.9 62.3 36.3 62.8 36.9 63.4 C 36.9 63.4 36.9 63.4 36.9 63.4 Z M 107.9 36.9 C 107.2 36.5 106.7 36.4 106.4 36.3 C 106.5 36.5 106.9 36.5 107.3 36.7 C 107.3 36.9 107.0 36.7 106.6 36.6 C 106.9 36.9 108.3 37.3 107.9 36.9 C 107.9 36.9 107.9 36.9 107.9 36.9 Z M 101.6 34.2 C 100.9 33.9 100.4 33.8 100.3 33.9 C 100.5 34.1 100.5 33.9 101.0 34.1 C 101.2 34.2 101.4 34.4 101.5 34.5 C 101.8 34.7 101.8 34.5 101.9 34.5 C 102.2 34.6 102.2 34.7 102.2 34.7 C 103.1 34.9 101.1 34.3 101.6 34.2 C 101.6 34.2 101.6 34.2 101.6 34.2 Z M 33.0 60.3 C 32.9 60.1 32.8 59.8 32.3 59.4 C 32.3 59.6 31.9 59.3 31.5 59.0 C 31.9 59.6 32.2 59.7 33.0 60.3 C 33.0 60.3 33.0 60.3 33.0 60.3 Z M 61.6 22.7 C 60.7 22.3 60.7 22.7 59.4 22.4 C 59.4 22.4 59.4 22.5 59.4 22.6 C 60.2 22.5 60.5 22.7 61.6 22.7 C 61.6 22.7 61.6 22.7 61.6 22.7 Z M 159.7 92.3 C 159.6 92.1 159.1 92.7 159.0 92.6 C 159.1 93.0 158.5 92.7 157.2 93.6 C 157.1 93.6 157.2 93.5 157.3 93.3 C 156.2 93.9 157.8 93.4 158.0 93.5 C 158.8 92.9 159.0 92.9 159.7 92.3 C 159.7 92.3 159.7 92.3 159.7 92.3 Z M 85.9 87.7 C 85.8 87.7 86.0 87.8 86.2 87.9 C 86.4 87.9 86.6 88.0 86.8 88.1 C 86.9 87.8 85.8 87.3 86.8 87.2 C 86.5 87.1 86.4 87.1 86.4 87.2 C 84.6 87.3 83.8 85.8 81.6 85.4 C 81.3 85.3 81.3 85.4 81.2 85.5 C 81.5 85.5 81.5 85.6 81.5 85.7 C 81.9 85.4 83.6 86.5 82.7 86.3 C 82.8 86.4 83.0 86.4 83.1 86.4 C 83.3 86.5 83.5 86.6 83.7 86.6 C 83.6 86.5 83.2 86.3 83.1 86.2 C 84.1 86.6 85.4 87.2 84.6 87.2 C 85.2 87.4 85.5 87.4 86.0 87.5 C 86.4 87.6 86.3 87.8 85.9 87.7 C 85.9 87.7 85.9 87.7 85.9 87.7 Z M 94.3 90.4 C 95.3 90.7 95.0 90.4 96.0 90.7 C 95.4 90.3 94.5 90.4 93.7 89.9 C 93.8 90.1 94.3 90.2 94.3 90.4 C 94.3 90.4 94.3 90.4 94.3 90.4 Z M 75.8 83.4 C 76.1 83.2 75.2 82.8 74.3 82.5 C 74.0 82.7 74.8 83.0 75.8 83.4 C 75.8 83.4 75.8 83.4 75.8 83.4 Z M 79.9 85.1 C 80.9 85.3 78.8 84.5 79.4 84.5 C 78.9 84.3 78.5 84.2 78.5 84.1 C 78.1 84.0 78.1 84.1 77.5 83.8 C 77.4 84.0 78.5 84.3 78.3 84.4 C 79.1 84.6 79.2 84.6 79.9 85.1 C 79.9 85.1 79.9 85.1 79.9 85.1 Z M 80.5 85.3 C 81.2 85.5 80.6 84.8 79.8 84.5 C 80.0 84.7 80.1 85.0 80.5 85.3 C 80.5 85.3 80.5 85.3 80.5 85.3 Z M 17.2 41.2 C 17.4 41.6 17.4 41.2 17.6 41.6 C 17.7 41.6 17.0 40.0 17.7 41.3 C 17.7 40.7 17.2 40.6 17.0 40.0 C 17.0 40.2 17.0 40.4 16.9 40.1 C 16.6 40.0 17.5 41.3 17.2 41.2 C 17.2 41.2 17.2 41.2 17.2 41.2 Z M 18.0 42.8 C 18.1 43.1 18.1 42.9 18.0 42.8 C 18.1 42.8 18.4 43.3 18.6 43.6 C 18.5 43.6 18.5 42.8 18.7 42.7 C 17.8 41.5 18.2 42.6 18.0 42.8 C 18.0 42.8 18.0 42.8 18.0 42.8 Z M 18.9 44.1 C 19.2 45.1 20.2 46.4 20.8 46.9 C 20.6 46.0 19.4 44.4 18.9 44.1 C 18.9 44.1 18.9 44.1 18.9 44.1 Z M 15.9 35.7 C 15.7 37.1 16.8 39.9 16.5 37.3 C 16.3 37.4 15.9 35.8 16.1 35.0 C 15.9 35.0 15.8 34.2 15.9 34.1 C 15.8 33.6 15.7 36.1 15.9 35.7 C 15.9 35.7 15.9 35.7 15.9 35.7 Z M 22.1 47.7 C 21.6 47.3 21.8 48.2 21.3 47.4 C 21.0 47.0 21.3 47.5 21.1 47.5 C 21.8 48.4 23.7 50.1 23.6 50.5 C 24.1 50.9 24.4 50.9 25.2 51.8 C 25.3 51.7 22.2 48.8 22.0 47.8 C 22.1 47.8 23.0 48.9 22.1 47.7 C 22.1 47.7 22.1 47.7 22.1 47.7 Z M 61.3 24.1 C 61.4 23.9 60.1 23.9 60.4 23.7 C 59.7 23.8 59.1 23.5 58.3 23.6 C 58.1 23.5 58.2 23.2 57.2 23.0 C 57.1 23.2 57.6 23.2 57.1 23.3 C 56.1 23.2 56.4 22.9 55.3 22.9 C 55.4 23.3 53.0 22.7 53.2 23.1 C 53.8 23.1 53.8 22.9 54.7 23.1 C 55.0 23.2 54.9 23.3 55.3 23.4 C 54.9 23.5 54.5 23.1 54.1 23.3 C 54.1 23.5 54.9 23.5 54.9 23.7 C 55.4 23.7 54.8 23.6 54.9 23.5 C 56.1 23.6 54.8 24.0 56.1 24.1 C 55.8 23.9 55.8 23.8 56.1 23.6 C 56.6 23.8 58.2 23.9 57.3 24.0 C 57.4 24.2 58.3 24.1 58.2 23.9 C 58.7 24.0 58.8 24.1 58.8 24.2 C 60.1 24.3 60.3 24.1 60.1 23.8 C 60.4 23.7 60.5 24.1 61.3 24.1 C 61.3 24.1 61.3 24.1 61.3 24.1 Z M 17.7 29.2 C 17.9 28.7 17.5 29.7 17.2 30.1 C 17.5 29.6 17.7 30.0 18.1 29.5 C 17.9 29.6 17.8 29.5 18.1 29.2 C 18.0 29.0 17.4 29.8 17.7 29.2 C 17.7 29.2 17.7 29.2 17.7 29.2 Z M 27.0 53.6 C 27.3 54.1 29.1 55.6 30.1 56.5 C 30.1 56.1 27.5 54.4 27.5 53.8 C 26.9 53.4 27.6 54.2 27.0 53.6 C 27.0 53.6 27.0 53.6 27.0 53.6 Z M 50.0 22.3 C 49.7 22.3 49.9 22.4 50.0 22.4 C 49.9 22.5 49.3 22.4 48.9 22.4 C 49.5 22.6 48.7 22.6 48.8 22.8 C 48.5 22.8 48.4 22.8 48.3 22.9 C 48.3 22.4 46.5 23.0 48.3 23.2 C 48.0 22.9 48.1 23.0 48.8 22.9 C 49.6 23.2 50.3 23.0 50.5 23.3 C 51.1 23.3 51.3 23.2 52.0 23.3 C 52.1 23.5 52.8 23.7 52.2 24.0 C 53.5 24.1 52.7 23.4 53.8 23.5 C 54.7 23.8 53.2 23.7 53.4 23.9 C 53.7 24.0 53.6 24.1 53.7 24.1 C 54.0 24.2 54.1 23.9 53.7 23.9 C 53.8 23.8 54.9 23.8 54.6 24.0 C 55.2 24.0 53.7 23.1 52.9 23.3 C 52.4 23.3 52.4 22.8 52.9 22.9 C 52.8 22.7 51.8 23.1 52.1 22.7 C 51.7 22.6 51.3 22.6 50.9 22.5 C 51.0 22.6 51.2 22.6 51.2 22.7 C 50.8 22.7 50.4 22.7 50.0 22.6 C 50.4 22.5 50.4 22.4 50.0 22.3 C 50.0 22.3 50.0 22.3 50.0 22.3 Z M 23.3 49.6 C 24.0 50.4 24.2 50.5 24.8 51.0 C 24.7 50.7 23.2 49.1 23.3 49.6 C 23.3 49.6 23.3 49.6 23.3 49.6 Z M 66.4 25.8 C 66.4 25.7 65.8 25.7 65.8 25.6 C 66.8 25.7 65.7 25.3 66.6 25.1 C 65.3 25.0 64.8 25.5 66.4 26.0 C 67.6 26.2 65.2 25.6 66.4 25.8 C 66.4 25.8 66.4 25.8 66.4 25.8 Z M 62.7 25.0 C 62.0 24.9 63.8 25.4 64.2 25.6 C 64.2 25.6 64.2 25.7 64.2 25.8 C 65.3 25.6 63.9 25.3 65.0 25.0 C 63.8 24.6 63.3 24.4 62.2 24.4 C 62.3 24.5 62.5 24.5 62.5 24.4 C 63.3 24.6 62.7 24.8 61.9 24.6 C 62.1 24.7 62.8 24.9 63.4 25.0 C 63.2 24.9 63.1 24.8 63.1 24.7 C 63.8 24.8 63.5 24.9 64.0 25.0 C 64.0 25.1 62.7 25.1 62.7 25.0 C 62.7 25.0 62.7 25.0 62.7 25.0 Z M 124.3 46.9 C 123.7 46.6 124.8 47.5 124.5 47.8 C 125.1 48.2 125.3 48.2 125.7 48.4 C 125.6 48.1 124.9 47.7 124.7 47.5 C 125.0 47.2 125.6 48.0 125.9 47.9 C 126.5 47.8 124.4 47.3 124.3 46.9 C 124.3 46.9 124.3 46.9 124.3 46.9 Z M 32.6 22.8 C 32.2 22.9 32.4 22.9 32.6 22.9 C 32.6 23.0 31.9 23.1 31.9 23.0 C 31.3 23.1 32.2 23.1 31.6 23.2 C 31.5 23.4 32.6 23.1 32.6 23.0 C 33.5 22.9 32.9 23.3 33.1 23.3 C 33.8 23.3 33.5 23.1 34.6 23.0 C 33.9 22.9 33.4 22.9 32.6 22.8 C 32.6 22.8 32.6 22.8 32.6 22.8 Z M 68.7 25.8 C 68.8 25.8 67.9 26.1 67.1 25.7 C 66.0 25.4 67.7 26.1 66.7 25.8 C 67.6 26.1 68.6 26.1 69.9 26.4 C 70.2 26.3 68.1 25.9 69.3 26.1 C 69.3 26.0 69.0 26.0 69.0 26.0 C 68.7 26.0 68.7 25.9 68.7 25.8 C 68.7 25.8 68.7 25.8 68.7 25.8 Z M 67.3 26.1 C 67.4 26.2 67.6 26.2 67.7 26.2 C 68.0 26.3 68.0 26.5 67.6 26.4 C 68.1 26.8 68.1 26.3 69.2 26.7 C 68.8 26.4 68.6 26.2 69.5 26.6 C 70.4 26.6 67.7 26.0 67.3 26.1 C 67.3 26.1 67.3 26.1 67.3 26.1 Z M 114.9 42.2 C 114.9 42.3 115.6 42.6 116.0 42.8 C 115.4 42.7 113.0 41.4 112.7 41.2 C 112.4 41.1 112.2 41.0 112.1 40.9 C 112.1 40.9 111.4 40.7 111.7 40.9 C 111.6 41.0 111.1 40.7 111.0 40.8 C 110.1 40.3 111.4 40.8 111.2 40.5 C 110.0 40.2 110.3 40.2 109.0 39.5 C 109.1 39.9 110.6 40.4 110.4 40.7 C 111.5 40.9 112.5 41.6 113.0 42.1 C 112.2 41.3 115.8 42.8 117.4 43.7 C 117.3 43.8 117.9 44.1 118.5 44.5 C 118.9 45.0 119.0 44.4 118.0 44.1 C 118.1 43.9 119.3 44.7 119.8 44.9 C 119.3 44.5 119.7 44.6 119.4 44.3 C 118.2 43.7 119.2 44.3 118.9 44.4 C 118.7 44.2 118.4 44.1 118.0 43.9 C 119.8 44.4 115.8 42.8 117.2 43.4 C 116.0 42.8 116.1 42.6 114.9 42.2 C 114.9 42.2 114.9 42.2 114.9 42.2 Z M 85.3 30.3 C 85.0 30.3 84.0 30.1 84.0 29.9 C 82.6 29.7 83.7 30.3 82.2 29.8 C 82.3 29.9 82.9 30.1 82.9 30.2 C 83.4 30.3 84.0 30.4 83.9 30.1 C 84.6 30.3 84.8 30.3 85.2 30.4 C 85.1 30.5 84.8 30.4 84.2 30.3 C 84.1 30.4 84.3 30.6 85.1 30.9 C 85.5 30.8 85.3 30.5 85.3 30.3 C 85.3 30.3 85.3 30.3 85.3 30.3 Z M 82.0 29.7 C 81.8 29.5 81.7 29.4 81.7 29.3 C 81.3 28.9 81.4 29.6 81.0 29.4 C 80.6 29.3 80.8 29.2 80.7 29.1 C 80.1 29.0 79.7 28.9 79.4 28.7 C 78.5 28.6 80.4 29.2 80.6 29.4 C 81.3 29.6 81.1 29.3 82.0 29.7 C 82.0 29.7 82.0 29.7 82.0 29.7 Z M 72.4 26.8 C 72.3 26.5 71.9 26.8 71.5 26.7 C 71.8 27.0 72.7 27.1 72.0 27.2 C 72.9 27.5 73.0 27.5 73.9 27.7 C 74.5 28.0 74.0 27.5 73.0 27.4 C 73.1 27.3 73.6 27.4 73.7 27.3 C 74.2 27.9 76.0 27.6 74.9 27.7 C 74.7 27.6 74.5 27.4 74.4 27.3 C 74.1 27.4 72.0 26.8 72.4 26.8 C 72.4 26.8 72.4 26.8 72.4 26.8 Z M 41.4 22.8 C 43.2 22.7 43.9 22.8 44.9 22.8 C 45.0 22.9 44.9 23.0 44.7 23.0 C 44.9 23.1 45.3 23.1 45.7 23.0 C 45.7 23.0 45.5 23.0 45.5 23.0 C 44.6 22.8 45.3 22.8 45.5 22.6 C 44.4 22.4 42.6 22.8 41.8 22.5 C 41.1 22.5 42.0 22.6 41.4 22.8 C 41.4 22.8 41.4 22.8 41.4 22.8 Z M 159.0 90.2 C 158.9 90.3 158.7 90.6 158.8 90.6 C 159.0 90.4 159.1 90.2 159.3 89.9 C 158.9 90.3 158.7 90.0 158.2 90.5 C 158.4 90.5 158.5 90.7 159.0 90.2 C 159.0 90.2 159.0 90.2 159.0 90.2 Z M 75.6 27.7 C 75.6 27.8 75.6 27.9 75.2 27.9 C 75.1 28.0 76.1 28.2 76.1 28.3 C 76.5 28.4 76.4 28.2 76.8 28.3 C 76.7 28.2 75.8 28.0 76.2 27.9 C 76.5 27.9 76.5 28.0 76.6 28.0 C 77.2 28.1 76.3 27.8 75.6 27.7 C 75.6 27.7 75.6 27.7 75.6 27.7 Z M 127.0 48.7 C 126.6 48.5 126.9 48.8 127.2 49.0 C 126.3 48.7 127.5 49.6 127.4 49.8 C 127.2 49.4 126.0 48.9 125.9 48.7 C 125.5 48.6 125.8 49.0 124.9 48.5 C 124.9 48.8 126.0 49.2 125.8 48.9 C 125.9 49.3 127.0 49.5 126.8 49.7 C 128.0 50.5 128.4 50.5 128.6 50.3 C 127.4 49.7 128.2 49.7 127.1 49.2 C 127.1 49.1 127.5 49.3 127.7 49.4 C 127.7 49.2 127.2 48.9 127.0 48.7 C 127.0 48.7 127.0 48.7 127.0 48.7 Z M 95.5 34.0 C 94.8 33.8 94.7 34.0 94.7 34.1 C 95.0 34.2 95.4 34.3 96.0 34.5 C 95.9 34.4 95.0 34.1 95.5 34.0 C 95.5 34.0 95.5 34.0 95.5 34.0 Z M 122.3 46.4 C 122.3 46.3 122.1 46.2 122.0 46.3 C 121.3 45.9 121.2 45.7 121.0 45.4 C 120.6 45.3 120.6 45.5 120.6 45.6 C 121.3 45.8 121.1 46.0 122.0 46.4 C 122.0 46.3 122.1 46.3 122.3 46.4 C 122.3 46.4 122.3 46.4 122.3 46.4 Z M 102.1 36.8 C 101.7 36.6 101.9 36.8 102.0 36.8 C 101.5 36.9 100.3 36.2 99.8 36.1 C 99.6 36.2 101.3 36.8 99.4 36.2 C 99.6 36.5 101.4 37.0 102.2 37.4 C 101.9 37.5 100.8 37.0 100.7 37.3 C 101.8 37.6 102.9 37.9 103.2 37.6 C 101.8 37.0 102.4 37.0 102.1 36.8 C 102.1 36.8 102.1 36.8 102.1 36.8 Z M 103.6 37.5 C 103.5 37.4 103.2 37.4 102.7 37.2 C 103.3 37.7 103.8 37.8 105.4 38.6 C 105.4 38.5 105.4 38.5 105.4 38.4 C 105.7 38.5 106.1 38.7 106.4 38.8 C 105.1 38.0 104.7 38.0 103.2 37.5 C 103.2 37.4 103.4 37.5 103.6 37.5 C 103.6 37.5 103.6 37.5 103.6 37.5 Z M 61.2 24.8 C 61.6 25.0 61.9 25.2 62.6 25.4 C 62.6 25.2 62.2 25.0 61.2 24.8 C 61.2 24.8 61.2 24.8 61.2 24.8 Z M 123.4 47.2 C 124.2 47.5 122.6 46.8 123.0 47.2 C 123.6 47.7 124.2 48.1 124.2 48.4 C 125.5 48.7 123.1 47.4 123.4 47.2 C 123.4 47.2 123.4 47.2 123.4 47.2 Z M 117.9 44.9 C 117.6 44.7 117.8 44.4 118.0 44.8 C 118.8 45.2 117.4 44.2 118.7 44.9 C 118.2 44.6 117.0 43.8 116.3 43.7 C 116.3 43.9 117.4 44.4 117.4 44.6 C 117.4 44.7 117.2 44.6 117.0 44.5 C 117.1 44.7 117.4 44.7 117.9 44.9 C 117.9 44.9 117.9 44.9 117.9 44.9 Z M 113.6 42.4 C 114.1 42.7 114.6 43.1 115.6 43.6 C 115.0 43.1 114.8 42.7 113.6 42.4 C 113.6 42.4 113.6 42.4 113.6 42.4 Z M 160.0 80.4 C 159.8 79.8 159.7 80.4 159.7 80.5 C 159.9 81.0 160.0 80.9 160.1 81.5 C 160.3 81.3 159.9 80.8 160.0 80.4 C 160.0 80.4 160.0 80.4 160.0 80.4 Z M 160.3 82.3 C 160.2 82.4 160.4 83.1 160.2 83.1 C 160.7 83.5 160.0 84.1 160.3 84.1 C 160.3 84.2 160.2 84.4 160.2 84.6 C 160.7 84.1 160.5 82.9 160.3 82.3 C 160.3 82.3 160.3 82.3 160.3 82.3 Z M 108.2 40.4 C 107.4 40.0 108.3 40.9 107.5 40.4 C 107.4 40.5 109.0 41.3 108.0 40.9 C 109.2 41.7 108.1 40.5 108.2 40.4 C 108.2 40.4 108.2 40.4 108.2 40.4 Z M 92.8 34.5 C 92.9 34.3 91.7 34.0 91.2 33.8 C 91.2 33.9 91.6 34.0 91.8 34.1 C 91.7 34.2 91.5 34.2 91.1 34.1 C 91.3 34.3 92.3 34.3 92.8 34.5 C 92.8 34.5 92.8 34.5 92.8 34.5 Z M 111.5 37.3 C 111.9 37.8 112.5 38.3 113.0 38.1 C 113.5 38.5 112.5 38.2 113.2 38.6 C 114.1 38.9 113.6 38.9 115.0 39.5 C 114.6 39.6 115.6 40.1 115.7 40.4 C 115.1 40.1 114.6 39.5 114.2 39.6 C 114.7 39.8 114.3 39.9 114.2 39.7 C 113.3 39.1 115.4 40.0 114.4 39.3 C 113.9 39.4 112.5 38.1 111.4 37.6 C 111.9 37.6 110.7 37.0 111.5 37.3 C 111.5 37.3 111.5 37.3 111.5 37.3 Z M 116.8 40.4 C 117.6 40.7 117.7 41.4 117.5 41.2 C 117.6 41.2 116.8 40.7 116.6 40.8 C 116.8 40.9 117.0 41.0 116.9 41.0 C 115.6 40.3 116.1 40.4 115.9 40.1 C 116.7 40.3 116.8 40.6 117.1 40.6 C 116.9 40.5 116.8 40.4 116.8 40.4 C 116.8 40.4 116.8 40.4 116.8 40.4 Z M 130.1 52.2 C 130.0 52.0 129.8 52.0 129.5 51.9 C 129.6 51.6 128.0 51.1 127.9 50.9 C 128.3 51.0 129.0 51.4 129.4 51.5 C 129.1 51.2 129.0 51.1 128.6 51.0 C 128.8 50.8 129.6 51.3 129.9 51.3 C 129.9 51.5 130.3 51.5 130.4 51.7 C 129.3 51.2 130.7 52.5 130.1 52.2 C 130.1 52.2 130.1 52.2 130.1 52.2 Z M 101.0 37.7 C 100.8 37.9 101.9 38.9 100.6 38.7 C 100.4 38.4 100.3 38.2 100.5 37.9 C 99.7 37.8 99.4 37.4 98.9 37.5 C 97.7 36.2 100.0 38.0 101.0 37.7 C 101.0 37.7 101.0 37.7 101.0 37.7 Z M 95.8 35.9 C 96.2 35.8 95.5 35.6 95.7 35.4 C 96.2 35.8 98.3 36.4 97.5 36.2 C 96.9 36.1 96.8 36.3 95.8 35.9 C 95.8 35.9 95.8 35.9 95.8 35.9 Z M 42.3 65.2 C 41.4 64.8 41.2 64.2 41.8 64.4 C 41.4 64.5 42.7 65.2 42.3 65.2 C 42.3 65.2 42.3 65.2 42.3 65.2 Z M 12.9 38.6 C 13.0 39.5 13.3 40.0 13.1 40.2 C 12.8 39.4 13.0 39.4 12.8 38.7 C 12.7 38.6 12.5 38.2 12.5 38.1 C 12.7 38.5 12.8 38.4 12.9 38.6 C 12.9 38.6 12.9 38.6 12.9 38.6 Z M 77.9 24.2 C 77.9 24.0 77.5 23.9 77.7 23.8 C 78.7 24.1 79.8 24.3 80.7 24.4 C 80.7 24.5 80.6 24.6 80.6 24.7 C 79.1 24.1 78.6 24.2 77.9 24.2 C 77.9 24.2 77.9 24.2 77.9 24.2 Z M 76.1 23.2 C 75.9 23.3 76.4 23.7 75.7 23.5 C 75.7 23.3 74.6 22.8 75.2 22.9 C 75.3 23.1 75.6 23.2 76.1 23.2 C 76.1 23.2 76.1 23.2 76.1 23.2 Z M 128.6 45.9 C 129.3 46.3 128.4 45.5 128.5 45.4 C 129.0 45.8 129.6 46.2 129.8 46.4 C 129.3 46.1 128.8 46.2 128.6 45.9 C 128.6 45.9 128.6 45.9 128.6 45.9 Z M 117.5 40.6 C 115.9 39.9 116.8 39.8 115.3 39.0 C 116.0 39.1 117.3 39.9 117.8 39.9 C 117.7 40.0 118.1 40.2 118.0 40.3 C 117.4 40.1 117.4 39.9 116.8 39.6 C 116.9 40.0 117.0 39.9 116.6 40.0 C 117.1 40.2 117.3 40.3 117.6 40.4 C 117.4 40.5 117.9 40.8 117.5 40.6 C 117.5 40.6 117.5 40.6 117.5 40.6 Z M 128.0 46.3 C 128.6 46.5 128.9 47.1 128.5 46.8 C 128.5 46.6 128.0 46.6 127.9 46.4 C 128.8 46.8 127.3 45.9 127.8 46.0 C 128.3 46.3 128.5 46.3 128.5 46.1 C 128.8 46.3 129.3 46.5 129.3 46.6 C 129.1 46.5 128.7 46.3 128.7 46.4 C 128.9 46.5 129.0 46.6 128.9 46.6 C 128.4 46.3 128.2 46.3 128.0 46.3 C 128.0 46.3 128.0 46.3 128.0 46.3 Z M 124.0 44.0 C 124.8 44.5 124.8 44.7 125.0 45.0 C 123.9 44.4 123.9 44.0 123.2 43.4 C 124.0 44.0 125.1 44.2 125.3 44.5 C 124.8 44.3 124.1 43.9 124.0 44.0 C 124.0 44.0 124.0 44.0 124.0 44.0 Z M 121.4 97.2 C 120.7 96.9 120.1 96.7 119.3 96.4 C 119.0 96.7 120.4 97.4 119.8 97.1 C 119.0 97.0 119.6 96.8 118.9 96.6 C 119.5 97.1 116.0 96.5 115.9 96.1 C 116.4 96.2 116.6 96.2 116.5 96.0 C 118.0 96.3 118.6 96.2 119.6 96.3 C 120.4 96.7 122.6 97.1 123.8 96.9 C 124.6 97.5 126.0 97.1 127.0 97.6 C 127.3 97.5 126.2 97.3 127.1 97.3 C 127.6 97.6 127.2 97.7 127.9 97.9 C 128.0 97.7 127.8 97.6 128.2 97.6 C 128.2 97.7 128.6 97.8 128.8 97.9 C 127.2 97.7 128.9 98.2 127.6 98.1 C 127.1 98.0 128.2 97.8 126.8 97.7 C 126.2 97.7 125.7 97.7 125.8 98.0 C 125.4 97.9 125.2 97.9 124.9 97.9 C 125.5 97.7 122.9 97.8 124.1 97.6 C 124.2 97.6 125.0 97.7 125.6 97.7 C 125.1 97.4 124.4 97.5 123.5 97.5 C 123.1 97.2 123.7 97.2 123.2 97.1 C 122.5 97.2 123.4 97.5 122.9 97.5 C 123.1 97.6 123.4 97.6 123.4 97.7 C 122.2 97.3 121.7 97.5 121.0 97.4 C 121.5 97.3 120.3 97.0 121.4 97.2 C 121.4 97.2 121.4 97.2 121.4 97.2 Z M 132.0 97.9 C 132.2 97.9 132.5 97.9 132.8 98.0 C 132.9 98.2 131.8 98.2 132.5 98.4 C 131.3 98.3 132.6 98.1 132.0 97.9 C 132.0 97.9 132.0 97.9 132.0 97.9 Z M 126.3 96.6 C 125.9 96.3 126.1 96.9 125.7 96.8 C 126.4 96.9 127.0 96.8 127.1 97.1 C 126.3 97.0 125.9 96.9 125.0 96.9 C 125.9 96.7 124.1 96.5 123.9 96.2 C 124.6 96.2 125.1 96.2 126.0 96.3 C 125.8 96.4 127.1 96.6 126.3 96.6 C 126.3 96.6 126.3 96.6 126.3 96.6 Z M 128.6 96.5 C 128.8 96.7 130.1 96.6 129.8 96.9 C 129.0 96.8 128.7 96.8 128.9 97.1 C 128.3 97.0 128.2 96.9 127.7 96.9 C 127.4 96.6 128.3 96.7 128.6 96.6 C 128.5 96.5 128.3 96.5 128.6 96.5 C 128.6 96.5 128.6 96.5 128.6 96.5 Z M 154.2 92.5 C 154.5 92.6 153.5 92.9 153.3 93.0 C 153.7 93.1 153.6 93.2 152.9 93.5 C 153.1 93.1 152.1 93.6 151.4 93.5 C 151.3 93.8 152.2 93.6 151.2 93.9 C 150.4 94.1 149.7 94.4 148.4 94.7 C 148.1 94.5 148.7 94.4 149.0 94.2 C 148.1 94.4 148.3 94.2 147.6 94.3 C 147.8 94.4 147.3 94.6 147.0 94.5 C 148.2 94.2 145.3 94.5 146.6 94.2 C 146.7 94.2 147.0 94.1 147.3 94.0 C 147.0 94.4 148.6 94.0 149.0 94.1 C 149.5 93.4 151.1 93.2 152.7 92.9 C 152.8 92.9 152.4 93.2 152.8 93.1 C 152.8 93.0 153.3 92.8 153.5 92.6 C 153.5 92.8 153.7 92.7 154.0 92.6 C 154.0 92.6 154.0 92.5 154.2 92.5 C 154.2 92.5 154.2 92.5 154.2 92.5 Z M 70.2 79.1 C 70.4 78.8 68.4 78.1 67.8 77.9 C 68.0 77.6 71.5 79.3 70.2 79.1 C 70.2 79.1 70.2 79.1 70.2 79.1 Z M 82.6 83.8 C 82.0 83.6 82.3 84.0 81.9 83.8 C 81.9 83.6 80.5 83.6 80.6 83.3 C 81.3 83.3 81.6 83.5 82.6 83.8 C 82.6 83.8 82.6 83.8 82.6 83.8 Z M 94.1 87.9 C 93.1 87.6 94.5 88.1 94.3 88.2 C 93.5 87.9 92.6 87.7 92.8 87.5 C 93.5 87.8 94.0 87.6 94.1 87.9 C 94.1 87.9 94.1 87.9 94.1 87.9 Z M 77.0 81.4 C 76.2 81.0 77.6 81.2 77.7 81.4 C 76.8 81.2 78.1 81.8 78.9 82.1 C 78.7 82.3 78.5 82.1 78.7 82.5 C 77.5 82.2 78.6 82.2 77.8 81.9 C 77.3 81.9 77.8 82.0 77.7 82.2 C 77.4 82.1 77.1 82.0 76.8 81.8 C 76.8 81.7 76.9 81.6 76.9 81.5 C 77.3 81.6 77.7 81.7 77.6 81.6 C 77.3 81.4 77.2 81.5 77.0 81.4 C 77.0 81.4 77.0 81.4 77.0 81.4 Z M 136.1 94.8 C 135.4 94.9 136.0 95.0 136.6 95.0 C 136.7 94.9 137.1 94.4 137.9 94.7 C 136.2 94.9 138.5 95.0 137.5 95.2 C 137.1 94.9 136.0 95.2 135.2 95.2 C 134.8 95.0 135.7 94.6 136.1 94.8 C 136.1 94.8 136.1 94.8 136.1 94.8 Z M 139.2 95.0 C 139.2 94.9 138.9 94.9 138.4 94.9 C 138.9 94.7 138.1 94.7 138.8 94.6 C 138.7 94.7 141.0 94.7 139.7 94.8 C 138.5 94.7 140.0 94.9 140.5 94.9 C 140.0 94.9 138.9 95.3 138.8 95.1 C 139.1 95.1 139.3 95.1 139.2 95.0 C 139.2 95.0 139.2 95.0 139.2 95.0 Z M 157.5 89.6 C 157.5 89.4 157.2 89.6 157.1 89.6 C 157.8 89.0 158.3 88.5 158.5 88.2 C 158.3 88.5 158.5 88.6 158.7 88.5 C 158.4 88.8 158.4 88.9 158.2 89.0 C 158.3 88.6 158.0 89.2 157.5 89.6 C 157.5 89.6 157.5 89.6 157.5 89.6 Z M 157.5 89.6 " fill="#000000"></path><image xlink:href="0DF80A8598E4DE481FAA3D8D864AA02A.png" width="101.00" height="55.00" transform="matrix(1.00, 0.00, -0.00, -1.00, 42.0, 82.0)"></image><g><clipPath id="clip-238"><path d="M 6.9 56.3 L 152.1 112.7 L 171.5 62.6 L 26.3 6.2 Z M 6.9 56.3 "></path></clipPath><g clip-path="url(#clip-238)"><text xml:space="preserve" font-family="Chalkduster" font-size="18.0" fill="#000000" transform="matrix(0.93, 0.36, 0.36, -0.93, 46.5, 33.4)">A</text><text xml:space="preserve" font-family="Chalkduster" font-size="18.0" fill="#000000" transform="matrix(0.93, 0.36, 0.36, -0.93, 58.9, 38.2)">s</text><text xml:space="preserve" font-family="Chalkduster" font-size="18.0" fill="#000000" transform="matrix(0.93, 0.36, 0.36, -0.93, 67.3, 41.5)">s</text><text xml:space="preserve" font-family="Chalkduster" font-size="18.0" fill="#000000" transform="matrix(0.93, 0.36, 0.36, -0.93, 75.8, 44.8)">i</text><text xml:space="preserve" font-family="Chalkduster" font-size="18.0" fill="#000000" transform="matrix(0.93, 0.36, 0.36, -0.93, 82.4, 47.4)">s</text><text xml:space="preserve" font-family="Chalkduster" font-size="18.0" fill="#000000" transform="matrix(0.93, 0.36, 0.36, -0.93, 91.4, 50.9)">t</text><text xml:space="preserve" font-family="Chalkduster" font-size="18.0" fill="#000000" transform="matrix(0.93, 0.36, 0.36, -0.93, 98.9, 53.8)">a</text><text xml:space="preserve" font-family="Chalkduster" font-size="18.0" fill="#000000" transform="matrix(0.93, 0.36, 0.36, -0.93, 110.5, 58.3)">n</text><text xml:space="preserve" font-family="Chalkduster" font-size="18.0" fill="#000000" transform="matrix(0.93, 0.36, 0.36, -0.93, 122.2, 62.8)">t</text><text xml:space="preserve" font-family="Chalkduster" font-size="18.0" fill="#000000" transform="matrix(0.93, 0.36, 0.36, -0.93, 129.8, 65.8)">s</text></g></g></g></svg>